
<svg xmlns="http://www.w3.org/2000/svg" xmlns:xlink="http://www.w3.org/1999/xlink" width="32px" height="32px" viewBox="0 0 32 32" version="1.1">
<g id="surface1">
<path style=" stroke:none;fill-rule:nonzero;fill:rgb(69.019608%,76.862745%,87.058824%);fill-opacity:1;" d="M 19.664062 0.40625 C 49.652344 6.65625 17.457031 49.640625 2.214844 23.820312 C -4.320312 13.789062 4.238281 -2.804688 19.664062 0.40625 Z M 19.664062 0.40625 "/>
<path style=" stroke:none;fill-rule:nonzero;fill:rgb(0%,0%,0%);fill-opacity:0.196078;" d="M 20.691406 7.617188 L 20.722656 7.648438 L 20.804688 7.617188 Z M 21.75 8.625 L 27.578125 14.1875 L 27.578125 8.625 Z M 21.75 8.625 "/>
<path style=" stroke:none;fill-rule:nonzero;fill:rgb(100%,100%,100%);fill-opacity:0.392157;" d="M 20.691406 2.058594 L 27.578125 8.625 L 21.75 8.625 C 21.234375 8.625 20.691406 8.105469 20.691406 7.617188 L 20.691406 2.058594 "/>
<path style=" stroke:none;fill-rule:nonzero;fill:rgb(23.921569%,26.27451%,29.019608%);fill-opacity:1;" d="M 20.078125 8.433594 C 20.035156 8.457031 20.027344 8.46875 20.039062 8.453125 C 19.625 9.15625 19.613281 10.089844 19.429688 10.921875 C 19.429688 10.929688 19.429688 10.933594 19.429688 10.941406 C 19.425781 10.953125 19.433594 10.96875 19.429688 10.980469 C 19.339844 11.875 19.050781 12.785156 19.257812 13.644531 C 19.265625 13.664062 19.273438 13.683594 19.277344 13.703125 C 19.277344 13.707031 19.273438 13.714844 19.277344 13.722656 C 19.28125 13.726562 19.273438 13.734375 19.277344 13.738281 C 19.28125 13.746094 19.292969 13.734375 19.296875 13.738281 C 19.339844 13.800781 19.394531 13.847656 19.429688 13.855469 C 19.453125 13.859375 19.496094 13.859375 19.582031 13.796875 C 19.671875 13.734375 19.726562 13.601562 19.753906 13.429688 C 19.761719 13.410156 19.777344 13.390625 19.792969 13.375 C 19.789062 13.367188 19.789062 13.359375 19.792969 13.355469 C 19.796875 13.335938 19.800781 13.316406 19.808594 13.296875 C 19.816406 13.289062 19.824219 13.28125 19.828125 13.277344 C 20.195312 11.800781 20.441406 10.253906 20.34375 8.742188 C 20.332031 8.664062 20.316406 8.613281 20.25 8.527344 C 20.203125 8.472656 20.164062 8.441406 20.152344 8.433594 C 20.140625 8.421875 20.15625 8.429688 20.113281 8.433594 C 20.109375 8.433594 20.101562 8.433594 20.097656 8.433594 C 20.082031 8.433594 20.085938 8.433594 20.078125 8.433594 Z M 20.078125 8.433594 "/>
<path style=" stroke:none;fill-rule:nonzero;fill:rgb(23.921569%,26.27451%,29.019608%);fill-opacity:1;" d="M 23.433594 9.15625 C 22.804688 9.464844 22.480469 10.207031 22.042969 10.816406 C 22.039062 10.835938 22.035156 10.855469 22.023438 10.871094 C 22.019531 10.886719 22.011719 10.898438 22.007812 10.910156 C 21.453125 11.902344 20.75 12.890625 20.671875 14.039062 C 20.671875 14.042969 20.671875 14.050781 20.671875 14.058594 C 20.679688 14.230469 20.777344 14.324219 20.882812 14.347656 C 20.984375 14.367188 21.171875 14.308594 21.246094 14.191406 C 21.25 14.1875 21.257812 14.179688 21.261719 14.171875 C 21.261719 14.167969 21.261719 14.160156 21.261719 14.152344 C 21.261719 14.148438 21.261719 14.140625 21.261719 14.132812 C 22.265625 12.738281 23.019531 11.09375 23.644531 9.484375 C 23.644531 9.476562 23.644531 9.46875 23.644531 9.464844 C 23.6875 9.359375 23.703125 9.332031 23.664062 9.25 C 23.652344 9.226562 23.535156 9.148438 23.472656 9.15625 C 23.464844 9.160156 23.445312 9.148438 23.433594 9.15625 Z M 23.433594 9.15625 "/>
<path style=" stroke:none;fill-rule:nonzero;fill:rgb(23.921569%,26.27451%,29.019608%);fill-opacity:1;" d="M 13.601562 9.617188 C 13.5 9.632812 13.351562 9.726562 13.242188 9.769531 C 12.859375 9.917969 12.648438 10.25 12.554688 10.636719 C 12.460938 11.035156 12.492188 11.480469 12.554688 11.933594 C 12.617188 12.382812 12.707031 12.851562 12.804688 13.207031 C 12.886719 13.511719 12.945312 13.664062 12.976562 13.765625 L 12.976562 13.84375 C 12.976562 13.875 12.957031 13.875 12.9375 13.902344 C 12.925781 13.90625 12.949219 13.9375 12.9375 13.9375 C 12.910156 13.960938 12.875 13.976562 12.839844 13.976562 C 12.773438 13.980469 12.722656 13.957031 12.652344 13.9375 C 12.601562 13.929688 12.542969 13.890625 12.554688 13.902344 C 12.535156 13.886719 12.492188 13.886719 12.480469 13.863281 C 12.480469 13.871094 12.492188 13.871094 12.480469 13.84375 C 12.464844 13.8125 12.445312 13.738281 12.421875 13.6875 C 12.367188 13.570312 12.324219 13.4375 12.25 13.261719 C 12.101562 12.921875 11.910156 12.5 11.699219 12.105469 C 11.484375 11.710938 11.234375 11.351562 10.957031 11.101562 C 10.816406 10.976562 10.644531 10.855469 10.480469 10.8125 C 10.320312 10.773438 10.128906 10.804688 9.964844 10.890625 C 9.539062 11.128906 9.296875 11.523438 9.203125 11.933594 C 9.109375 12.347656 9.152344 12.828125 9.222656 13.246094 C 9.292969 13.660156 9.398438 14.003906 9.46875 14.285156 C 9.5 14.40625 9.535156 14.515625 9.546875 14.578125 C 9.546875 14.636719 9.523438 14.789062 9.507812 14.847656 C 9.4375 15.097656 9.261719 15.523438 9.261719 15.523438 C 9.261719 15.523438 5.9375 24.46875 13.070312 23.839844 C 13.128906 23.835938 13.261719 23.804688 13.316406 23.804688 C 14.71875 23.515625 16.042969 23.085938 17.222656 22.605469 C 17.453125 22.492188 17.757812 22.382812 18.097656 22.21875 C 18.78125 21.894531 19.636719 21.480469 20.460938 21.023438 C 21.285156 20.566406 22.046875 20.078125 22.632812 19.554688 C 23.21875 19.035156 23.644531 18.464844 23.566406 17.894531 C 23.441406 16.980469 22.839844 16.300781 22.042969 15.773438 C 21.238281 15.246094 20.238281 14.878906 19.242188 14.613281 C 18.246094 14.347656 17.277344 14.132812 16.535156 14.015625 C 16.167969 13.957031 15.820312 13.941406 15.601562 13.902344 C 15.539062 13.890625 15.503906 13.875 15.46875 13.863281 C 15.453125 13.859375 15.449219 13.855469 15.433594 13.84375 C 15.410156 13.828125 15.367188 13.828125 15.355469 13.804688 C 15.34375 13.78125 15.355469 13.753906 15.355469 13.726562 C 15.355469 13.71875 15.355469 13.703125 15.355469 13.6875 L 15.355469 13.128906 C 15.34375 12.667969 15.316406 12.054688 15.222656 11.488281 C 15.128906 10.917969 14.980469 10.371094 14.671875 10 C 14.484375 9.78125 14.226562 9.636719 13.90625 9.617188 C 13.8125 9.605469 13.707031 9.597656 13.601562 9.617188 Z M 13.601562 9.617188 "/>
</g>
</svg>
