<svg xmlns="http://www.w3.org/2000/svg" viewBox="0 0 32 32"><g style="fill:#38a34e"><path d="m 26.449219 4.589844 c 25.226562 33.296875 -44.199219 38.027344 -21.921875 4.039062 c 5.082031 -7.75 15.238281 -12.859375 21.921875 -4.039062"/><path d="m 7.75 5.996094 c -0.535156 0 -1.035156 0.476562 -1.035156 0.984375 v 20.714843 c 0 0.480469 0.53125 0.988282 1.035156 0.988282 h 16.605469 c 0.5 0 1.035156 -0.507813 1.035156 -0.988282 v -15.289062 l -6.746094 -6.410156"/></g><path d="m 18.644531 11.421875 l 0.03125 0.027344 l 0.085938 -0.027344 m 0.921875 0.984375 l 5.707031 5.425781 v -5.425781" style="fill-opacity:0.196078"/><path d="m 18.644531 5.996094 l 6.746094 6.410156 h -5.707031 c -0.503906 0 -1.039063 -0.507812 -1.039063 -0.984375" style="fill:#fff;fill-opacity:0.392157"/><path d="m 6.714844 22.761719 v 4.933593 c 0 0.480469 0.53125 0.988282 1.035156 0.988282 h 16.605469 c 0.5 0 1.035156 -0.507813 1.035156 -0.988282 v -4.933593" style="fill-opacity:0.196078"/><g style="fill:#fff"><path d="m 12.441406 13.394531 c -0.292968 0.023438 -0.542968 0.320313 -0.539062 0.632813 v 6.640625 c 0.003906 0.328125 0.28125 0.621093 0.585937 0.617187 h 7.148438 c 0.300781 -0.007812 0.5625 -0.296875 0.570312 -0.617187 v -6.640625 c 0 -0.328125 -0.265625 -0.632813 -0.570312 -0.632813 m -6.691407 0.984375 h 6.21875 v 4.238282 c -0.046874 -0.050782 -0.066406 -0.066407 -0.113281 -0.121094 c -0.464843 -0.527344 -0.992187 -1.15625 -1.628906 -1.914063 c -0.128906 0.121094 -0.28125 0.265625 -0.488281 0.449219 c -0.210938 0.183594 -0.460938 0.402344 -0.75 0.644531 c -0.035156 0.039063 -0.183594 -0.105469 -0.453125 -0.429687 c -0.28125 -0.324219 -0.664063 -0.820313 -1.171875 -1.507813 c -0.6875 0.671875 -1.183594 1.15625 -1.613282 1.570313"/><path d="m 18.96875 23.667969 c 0.035156 0.085937 0.074219 0.199219 0.125 0.335937 c 0.054688 0.136719 0.109375 0.28125 0.167969 0.441406 c 0.058593 0.15625 0.117187 0.316407 0.175781 0.480469 c 0.058594 0.160157 0.113281 0.308594 0.167969 0.445313 c 0.058593 -0.152344 0.121093 -0.3125 0.183593 -0.472656 c 0.0625 -0.164063 0.125 -0.324219 0.183594 -0.472657 c 0.058594 -0.152343 0.113282 -0.296875 0.160156 -0.429687 c 0.050782 -0.132813 0.09375 -0.242188 0.132813 -0.328125 h 0.746094 c 0.03125 0.335937 0.066406 0.664062 0.09375 0.984375 c 0.035156 0.316406 0.0625 0.632812 0.082031 0.949218 c 0.023438 0.3125 0.042969 0.628907 0.058594 0.949219 c 0.015625 0.3125 0.027344 0.636719 0.035156 0.96875 h -0.824219 l 0.042969 -2.992187 l -0.558594 1.628906 h -0.65625 l -0.535156 -1.628906 l 0.035156 2.992187 h -0.828125 c 0.015625 -0.316406 0.03125 -0.644531 0.046875 -0.984375 c 0.019532 -0.339844 0.039063 -0.679687 0.058594 -1.015625 c 0.019531 -0.335937 0.042969 -0.660156 0.066406 -0.976562 c 0.027344 -0.3125 0.058594 -0.605469 0.09375 -0.875 h 0.746094"/><path d="m 12.117188 23.75 c 0.527343 0 0.9375 0.109375 1.230468 0.324219 c 0.289063 0.210937 0.4375 0.5625 0.4375 1.046875 c 0 0.492187 -0.148437 0.847656 -0.445312 1.070312 c -0.289063 0.214844 -0.703125 0.320313 -1.242188 0.320313 h -0.296875 v 1.386719 h -0.824219 v -4.050782 c 0.082032 -0.015625 0.167969 -0.03125 0.269532 -0.042968 c 0.101562 -0.011719 0.203125 -0.023438 0.308594 -0.027344 c 0.105468 -0.007813 0.203124 -0.015625 0.300781 -0.019532 c 0.101562 -0.003906 0.1875 -0.007812 0.265625 -0.007812 m 0.09375 0.710938 c -0.050782 0 -0.121094 0 -0.210938 0.003906 c -0.085937 0 -0.152344 0.007812 -0.203125 0.015625 v 1.324219 h 0.335938 c 0.265625 0 0.464843 -0.050782 0.601562 -0.152344 c 0.132813 -0.105469 0.199219 -0.285156 0.199219 -0.539063 c 0 -0.234375 -0.066406 -0.40625 -0.199219 -0.5 c -0.132812 -0.101562 -0.304687 -0.15625 -0.523437 -0.15625"/><path d="m 16.230469 24.335938 c -0.207031 0 -0.378907 0.035156 -0.515625 0.097656 c -0.140625 0.0625 -0.257813 0.15625 -0.355469 0.269531 c -0.089844 0.113281 -0.152344 0.25 -0.195313 0.410156 c -0.039062 0.15625 -0.058593 0.332031 -0.058593 0.523438 c 0 0.445312 0.085937 0.777343 0.25 0.988281 c 0.164062 0.207031 0.402343 0.3125 0.722656 0.3125 c 0.050781 0 0.105469 -0.003906 0.167969 -0.003906 c 0.0625 -0.007813 0.117187 -0.011719 0.171875 -0.019532 v -1.363281 h 0.863281 v 1.863281 c -0.101562 0.03125 -0.265625 0.066407 -0.484375 0.109376 c -0.214844 0.039062 -0.480469 0.058593 -0.789063 0.058593 c -0.269531 0 -0.519531 -0.039062 -0.738281 -0.121093 c -0.214843 -0.082032 -0.402343 -0.207032 -0.554687 -0.367188 c -0.15625 -0.164062 -0.277344 -0.367188 -0.359375 -0.605469 c -0.085938 -0.246093 -0.128907 -0.53125 -0.128907 -0.851562 c 0 -0.316407 0.050782 -0.597657 0.148438 -0.835938 c 0.097656 -0.246093 0.230469 -0.453125 0.402344 -0.617187 c 0.167968 -0.164063 0.367187 -0.285156 0.597656 -0.367188 c 0.230469 -0.085937 0.476562 -0.125 0.738281 -0.125 c 0.167969 0 0.320313 0.011719 0.449219 0.035156 c 0.136719 0.019532 0.253906 0.042969 0.355469 0.074219 c 0.09375 0.027344 0.175781 0.054688 0.234375 0.085938 c 0.070312 0.035156 0.117187 0.058593 0.148437 0.074219 l -0.222656 0.589843 c -0.105469 -0.054687 -0.230469 -0.105469 -0.378906 -0.148437 c -0.152344 -0.046875 -0.304688 -0.066406 -0.464844 -0.066406"/></g></svg>