<svg xmlns="http://www.w3.org/2000/svg" viewBox="0 0 32 32"><path d="m 0.40625 19.660156 c 6.246094 29.992188 49.230469 -2.203125 23.410156 -17.445312 c -10.03125 -6.535156 -26.625 2.023437 -23.410156 17.445312" style="fill:#dcdcdc"/><path d="m 19.328125 9.933594 l 0.035156 0.03125 l 0.082031 -0.03125 m 0.941407 1.011718 l 5.828125 5.558594 v -5.558594" style="fill-opacity:0.196078"/><path d="m 19.328125 4.378906 l 6.886719 6.566406 h -5.828125 c -0.511719 0 -1.058594 -0.519531 -1.058594 -1.011718" style="fill:#fff;fill-opacity:0.392157"/><path d="m 10.59375 12.65625 h 3.867188 c 0.183593 0 0.328124 0.128906 0.328124 0.285156 v 2.75 c 0 0.160156 -0.144531 0.289063 -0.328124 0.289063 h -3.867188 c -0.183594 0 -0.328125 -0.128907 -0.328125 -0.289063 v -2.75 c 0 -0.15625 0.144531 -0.285156 0.328125 -0.285156" style="fill:#878787"/><g transform="matrix(0.565493 0 0 0.474764 1.217254 4.584223)" style="fill:none;stroke:#878787;stroke-linecap:round;stroke-linejoin:round"><path d="m 26.500558 17.504083 h 5.00117"/><path d="m 26.500558 20.498992 h 5.00117"/><path d="m 26.500558 23.502129 h 5.00117"/><path d="m 16.000864 26.505266 h 15.998218"/><path d="m 16.000864 29.500175 h 15.998218"/><path d="m 16.000864 32.495084 h 15.998218"/><path d="m 16.000864 35.498221 h 15.998218"/></g><path d="m 11.101562 5.285156 c -0.25 -0.21875 -0.667968 -0.214844 -0.855468 0.007813 l -2.015625 2.382812 l -5.679688 6.707031 c -0.179687 0.210938 -0.113281 0.652344 0.125 0.855469 l 7.832031 6.789063 c 0.238282 0.207031 0.679688 0.203125 0.855469 -0.007813 l 5.679688 -6.710937 l 2.015625 -2.375 c 0.1875 -0.226563 0.128906 -0.640625 -0.121094 -0.859375 l -2.695312 -2.335938 l -2.449219 -2.117187" style="fill:#dcdcdc"/></svg>