<svg xmlns="http://www.w3.org/2000/svg" viewBox="0 0 32 32"><path d="m 0.40625 19.660156 c 6.246094 29.992188 49.230469 -2.203125 23.410156 -17.445312 c -10.03125 -6.535156 -26.625 2.023437 -23.410156 17.445312" style="fill:#c0c0c0"/><path d="m 18.808594 9.371094 l 0.035156 0.03125 l 0.089844 -0.03125 m 1 0.960937 l 6.183594 5.269531 v -5.269531" style="fill-opacity:0.196078"/><g style="fill:#fff"><path d="m 18.808594 4.101562 l 7.308594 6.230469 h -6.183594 c -0.546875 0 -1.125 -0.496093 -1.125 -0.960937 v -5.269532" style="fill-opacity:0.392157"/><path d="m 10.6875 15.101562 v 0.984376 h 9.488281 v -0.984376"/><path d="m 10.160156 17.074219 v 0.984375 h 10.542969 v -0.984375"/><path d="m 10.6875 19.042969 v 0.984375 h 9.488281 v -0.984375"/><path d="m 14.902344 12.636719 v 9.851562 h 1.054687 v -9.851562"/></g><g style="fill:none;stroke:#fff"><g transform="matrix(0.527074 0 0 0.492583 2.782213 5.742283)" style="stroke-width:1.657"><path d="m 20.44567 32.997077 c -2.001024 -5.995178 -2.001024 -11.998287 0 -18.001395"/><path d="m 27.471486 32.997077 c 2.001024 -4.995982 2.001024 -11.998287 0 -18.001395"/></g><path d="m 33.058893 27.314643 c 0 5.032128 -4.075336 9.104037 -9.102033 9.104037 c -5.033445 0 -9.108781 -4.071909 -9.108781 -9.104037 c 0 -5.032127 4.082083 -9.104036 9.108781 -9.104036 c 5.033445 0 9.102033 4.079128 9.102033 9.104036" transform="matrix(0.57894 0 0 0.541055 1.564009 2.783785)" style="stroke-linecap:round;stroke-width:1.509"/></g></svg>