
<svg xmlns="http://www.w3.org/2000/svg" xmlns:xlink="http://www.w3.org/1999/xlink" width="32px" height="32px" viewBox="0 0 32 32" version="1.1">
<g id="surface1">
<path style=" stroke:none;fill-rule:nonzero;fill:rgb(86.27451%,86.27451%,86.27451%);fill-opacity:1;" d="M 31.59375 12.339844 C 25.347656 -17.648438 -17.640625 14.542969 8.183594 29.789062 C 18.214844 36.320312 34.808594 27.761719 31.59375 12.339844 Z M 31.59375 12.339844 "/>
<path style=" stroke:none;fill-rule:nonzero;fill:rgb(0%,0%,0%);fill-opacity:0.196078;" d="M 19.863281 8.445312 L 19.894531 8.476562 L 19.980469 8.445312 Z M 20.921875 9.453125 L 26.75 15.011719 L 26.75 9.453125 Z M 20.921875 9.453125 "/>
<path style=" stroke:none;fill-rule:nonzero;fill:rgb(100%,100%,100%);fill-opacity:0.392157;" d="M 19.863281 2.882812 L 26.75 9.453125 L 20.921875 9.453125 C 20.40625 9.453125 19.863281 8.933594 19.863281 8.445312 L 19.863281 2.882812 "/>
<path style="fill-rule:evenodd;fill:rgb(53.333333%,53.333333%,53.333333%);fill-opacity:1;stroke-width:1.056113;stroke-linecap:butt;stroke-linejoin:miter;stroke:rgb(53.333333%,53.333333%,53.333333%);stroke-opacity:1;stroke-miterlimit:4;" d="M 92.65625 944.735 L 92.65625 915.39125 L 72.78125 915.39125 L 72.78125 909.0475 L 118.21875 909.0475 L 118.21875 915.39125 L 99.28125 915.39125 L 99.28125 974.11 L 92.65625 974.11 Z M 92.65625 944.735 " transform="matrix(0.125,0,0,0.125,0,-99.545)"/>
<path style="fill-rule:evenodd;fill:rgb(53.333333%,53.333333%,53.333333%);fill-opacity:1;stroke-width:1.062399;stroke-linecap:butt;stroke-linejoin:miter;stroke:rgb(53.333333%,53.333333%,53.333333%);stroke-opacity:1;stroke-miterlimit:4;" d="M 151.53125 907.235 C 146.28125 907.235 142.4375 908.82875 138.8125 912.2975 C 131.5 919.2975 131.375 932.01625 138.59375 938.51625 C 140.9375 940.61 144.28125 942.14125 150.15625 943.82875 C 154.75 945.1725 159.4375 947.14125 160.65625 948.2975 C 165.0625 952.36 164.9375 961.61 160.4375 965.9225 C 158.15625 968.11 157.21875 968.32875 150.5 968.32875 C 144.3125 968.32875 142.3125 967.9225 138.15625 965.89125 L 133.21875 963.4225 L 133.21875 967.39125 C 133.21875 971.70375 132.40625 971.11 142.71875 974.64125 C 143.5 974.89125 147.625 975.01625 151.84375 974.89125 C 158.25 974.735 160.09375 974.32875 162.96875 972.45375 C 168.34375 968.9225 170.625 964.20375 170.65625 956.57875 C 170.6875 945.0475 166.3125 940.0475 153.0625 936.485 C 148.96875 935.36 144.5625 933.7975 143.25 932.985 C 139.125 930.39125 138.8125 921.1725 142.75 917.14125 C 146.84375 912.9225 156.84375 912.64125 164.65625 916.51625 L 167.46875 917.89125 L 167.46875 914.26625 C 167.46875 909.89125 166.40625 909.1725 157.3125 907.735 C 155.21875 907.39125 153.28125 907.235 151.53125 907.235 Z M 151.53125 907.235 " transform="matrix(0.125,0,0,0.125,0,-99.545)"/>
</g>
</svg>
