<svg xmlns="http://www.w3.org/2000/svg" viewBox="0 0 32 32"><g style="fill:#dc312f"><path d="m 2.636719 25.40625 c 6.121093 11.0625 25.296875 6.769531 28.539062 -2.339844 c 3.863281 -10.851562 -6.195312 -31.464844 -23.234375 -19.390625 c -5.742187 4.21875 -11.421875 10.664063 -5.304687 21.730469"/><path d="m 6.9375 5.363281 c -0.566406 0 -1.097656 0.503907 -1.097656 1.039063 v 21.75 c 0 0.5 0.5625 1.035156 1.097656 1.035156 h 17.59375 c 0.535156 0 1.101562 -0.535156 1.101562 -1.035156 v -16.054688 l -7.148437 -6.734375"/></g><path d="m 18.484375 11.058594 l 0.035156 0.035156 l 0.085938 -0.035156 m 0.976562 1.039062 l 6.050781 5.695313 v -5.695313" style="fill-opacity:0.196078"/><g style="fill:#fff"><path d="m 18.484375 5.363281 l 7.148437 6.734375 h -6.050781 c -0.53125 0 -1.097656 -0.53125 -1.097656 -1.039062 v -5.695313" style="fill-opacity:0.392157"/><path d="m 11.027344 14.175781 c -0.230469 0.023438 -0.242188 0.125 -0.242188 0.515625 v 1.554688 h 9.898438 v -1.554688 c 0 -0.515625 0 -0.515625 -0.550782 -0.515625 h -8.796874 c -0.136719 0 -0.230469 -0.007812 -0.308594 0 m -0.242188 2.585938 v 6.210937 c 0 0.519532 0 0.519532 0.550782 0.519532 h 8.796874 c 0.550782 0 0.550782 0 0.550782 -0.519532 v -6.210937 m -3.160156 1.035156 c 0.359374 0 0.675781 0.085937 0.941406 0.242187 c 0.273437 0.160157 0.476562 0.378907 0.621094 0.679688 c 0.144531 0.300781 0.222656 0.652344 0.222656 1.066406 c 0 0.898438 -0.195313 1.566406 -0.601563 2.007813 c -0.402343 0.441406 -1.019531 0.664062 -1.835937 0.664062 c -0.289063 0 -0.507813 -0.019531 -0.65625 -0.046875 v -0.761718 c 0.1875 0.042968 0.382812 0.066406 0.585937 0.066406 c 0.34375 0 0.617188 -0.054688 0.84375 -0.148438 c 0.21875 -0.09375 0.394531 -0.234375 0.515625 -0.4375 c 0.117188 -0.203125 0.1875 -0.484375 0.203125 -0.839844 h -0.050781 c -0.128906 0.195313 -0.277344 0.324219 -0.449219 0.40625 c -0.167969 0.078126 -0.363281 0.128907 -0.617187 0.128907 c -0.421875 0 -0.769532 -0.136719 -1.015625 -0.390625 c -0.242188 -0.253906 -0.359375 -0.597656 -0.359375 -1.050782 c 0 -0.488281 0.152344 -0.882812 0.449218 -1.164062 c 0.296876 -0.285156 0.691407 -0.417969 1.203126 -0.417969 m -3.800782 0.046875 h 0.859375 v 4.546875 h -1.027343 v -3.0625 l 0.015624 -0.46875 c -0.167968 0.164063 -0.292968 0.257813 -0.359374 0.308594 l -0.550782 0.421875 l -0.5 -0.582031 l 1.566406 -1.164063 m 3.675782 0.726563 c -0.140625 0.023437 -0.273438 0.09375 -0.359375 0.195312 c -0.121094 0.136719 -0.171875 0.339844 -0.171875 0.597657 c 0 0.21875 0.042968 0.390624 0.152344 0.519531 c 0.109374 0.125 0.277343 0.191406 0.5 0.191406 c 0.207031 0 0.382812 -0.066406 0.53125 -0.191406 c 0.148437 -0.128907 0.222656 -0.273438 0.222656 -0.4375 c 0 -0.246094 -0.066406 -0.460938 -0.203125 -0.632813 c -0.140625 -0.167968 -0.320313 -0.242187 -0.535157 -0.242187 c -0.050781 0 -0.089843 -0.007813 -0.136718 0"/></g></svg>