<svg xmlns="http://www.w3.org/2000/svg" viewBox="0 0 24 24"><path d="M 4.945312 21.65625 C 22.992188 33.65625 34.101562 -4.601562 10.78125 0.464844 C 1.140625 2.625 -4.710938 16.15625 4.945312 21.65625 " style="fill:#ff8c00"/><g style="fill:#fff"><path d="m 12.25 4.695312 c -4.085938 0 -7.402344 3.28125 -7.402344 7.328126 c 0 4.046874 3.316406 7.324218 7.402344 7.324218 c 4.09375 0 7.40625 -3.277344 7.40625 -7.324218 c 0 -4.046876 -3.3125 -7.328126 -7.40625 -7.328126"/><path d="m 11.328125 17.28125 c -0.59375 -0.25 -0.882813 -0.726562 -0.84375 -1.351562 c 0.0625 -0.917969 0.921875 -1.46875 1.792969 -1.15625 c 0.378906 0.140624 0.5625 0.320312 0.761718 0.746093 c 0.371094 0.800781 -0.203124 1.746094 -1.117187 1.835938 c -0.226563 0.019531 -0.429687 -0.003907 -0.59375 -0.074219" style="fill-rule:evenodd"/></g><path d="m 12.148438 8.660156 c -3.523438 0 -6.386719 1.253906 -6.386719 2.800782 c 0 1.546874 2.863281 2.804687 6.386719 2.804687 c 3.53125 0 6.390624 -1.257813 6.390624 -2.804687 c 0 -1.546876 -2.859374 -2.800782 -6.390624 -2.800782" style="fill:#ff8c00"/><g style="fill:#fff;fill-rule:evenodd"><path d="m 14.882812 12.703125 c -0.585937 -0.25 -0.882812 -0.722656 -0.839843 -1.351563 c 0.0625 -0.914062 0.921875 -1.46875 1.792969 -1.15625 c 0.382812 0.140626 0.5625 0.320313 0.761718 0.75 c 0.371094 0.796876 -0.207031 1.746094 -1.113281 1.835938 c -0.234375 0.019531 -0.433594 -0.007812 -0.601563 -0.078125"/><path d="m 8.578125 12.804688 c -0.585937 -0.25 -0.882813 -0.722657 -0.839844 -1.351563 c 0.0625 -0.914063 0.921875 -1.46875 1.792969 -1.15625 c 0.378906 0.140625 0.5625 0.320313 0.761719 0.75 c 0.371093 0.796875 -0.207031 1.746094 -1.113281 1.835937 c -0.234376 0.019532 -0.433594 -0.007812 -0.601563 -0.078124"/></g></svg>