<svg xmlns="http://www.w3.org/2000/svg" viewBox="0 0 24 24"><path d="m 23.910156 17.007812 c 2.386719 -34.242187 -43.675781 -8.578124 -13.347656 5.96875 c 4.675781 2.007813 11.644531 0.539063 13.347656 -5.96875" style="fill:#ff8c00"/><g style="fill:#fff"><path d="m 12.515625 3.789062 c -1.117187 0.671876 -0.96875 1.492188 -0.824219 1.859376 c -1.644531 0.246093 -3.226562 1.203124 -3.746094 2.921874 c -0.257812 -0.195312 -0.539062 -0.316406 -0.855468 -0.316406 c -0.941406 0 -1.703125 0.996094 -1.703125 2.175782 c 0 1.1875 0.761719 2.148437 1.703125 2.148437 c 0.425781 0 0.804687 -0.195313 1.105468 -0.515625 c 2.472657 -1.164062 6.445313 -1.34375 8.976563 0.03125 c 0.289063 0.292969 0.644531 0.484375 1.046875 0.484375 c 0.941406 0 1.703125 -0.960937 1.703125 -2.148437 c 0 -1.183594 -0.761719 -2.175782 -1.703125 -2.175782 c -0.386719 0 -0.734375 0.175782 -1.019531 0.457032 c -0.460938 -1.558594 -1.671875 -2.664063 -3.464844 -3.007813 c -0.15625 -0.585937 -0.257813 -1.753906 1.476563 -1.632813 c -1.96875 -0.726562 -2.46875 1.492188 -2.46875 1.492188 c -0.242188 -0.109375 -0.878907 -0.585938 -0.226563 -1.777344 m -1.59375 4.527344 c 0.507813 0 0.910156 0.414062 0.910156 0.921875 c 0 0.5 -0.402343 0.914063 -0.910156 0.914063 c -0.5 0 -0.90625 -0.414063 -0.90625 -0.914063 c 0 -0.507813 0.40625 -0.921875 0.90625 -0.921875 m 3.636719 0 c 0.503906 0 0.910156 0.414062 0.910156 0.921875 c 0 0.5 -0.40625 0.914063 -0.910156 0.914063 c -0.503906 0 -0.910156 -0.414063 -0.910156 -0.914063 c 0 -0.507813 0.40625 -0.921875 0.910156 -0.921875 m -7.355469 0.914062 c 0.234375 0 0.429687 0.140626 0.59375 0.316407 c -0.027344 0.484375 -0.015625 1.027343 0.117187 1.605469 c -0.175781 0.265624 -0.414062 0.457031 -0.710937 0.457031 c -0.519531 0 -0.9375 -0.519531 -0.9375 -1.175781 c 0 -0.65625 0.417969 -1.203126 0.9375 -1.203126 m 10.929687 0 c 0.523438 0 0.96875 0.546876 0.96875 1.203126 c 0 0.65625 -0.445312 1.175781 -0.96875 1.175781 c -0.335937 0 -0.597656 -0.238281 -0.765624 -0.574219 c 0.050781 -0.4375 0.03125 -0.855469 0 -1.257812 c 0.171874 -0.320313 0.4375 -0.546876 0.765624 -0.546876"/><path d="m 12.742188 11.980469 c -3.007813 0 -5.453126 1.222656 -5.453126 2.738281 c 0 1.507812 2.445313 2.734375 5.453126 2.734375 c 3.007812 0 5.453124 -1.226563 5.453124 -2.734375 c 0 -1.515625 -2.445312 -2.738281 -5.453124 -2.738281 m -2.570313 1.660156 c 0.679687 0.6875 1.605469 1.078125 2.570313 1.078125 c 0.960937 0 1.886718 -0.390625 2.566406 -1.078125 l 0.644531 0.648437 c -0.851563 0.859376 -2.007813 1.34375 -3.210937 1.34375 c -1.207032 0 -2.359376 -0.484374 -3.210938 -1.34375"/></g></svg>