
<svg xmlns="http://www.w3.org/2000/svg" xmlns:xlink="http://www.w3.org/1999/xlink" width="22px" height="22px" viewBox="0 0 22 22" version="1.1">
<g id="surface1">
<path style=" stroke:none;fill-rule:nonzero;fill:rgb(10.196078%,10.196078%,10.196078%);fill-opacity:1;" d="M 19.734375 16.828125 C 27.644531 5.578125 13.035156 -5.820312 3.714844 3.347656 C -5.066406 11.984375 3.074219 25.402344 14.003906 21.207031 C 16.28125 20.332031 18.28125 18.894531 19.734375 16.828125 Z M 19.734375 16.828125 "/>
<path style=" stroke:none;fill-rule:nonzero;fill:rgb(100%,100%,100%);fill-opacity:1;" d="M 8.976562 9.105469 C 9.648438 8.722656 10.316406 8.335938 10.988281 7.949219 C 11.664062 8.335938 12.335938 8.722656 13.015625 9.109375 C 12.335938 9.496094 11.664062 9.882812 10.988281 10.269531 C 10.320312 9.878906 9.644531 9.496094 8.976562 9.105469 Z M 6.054688 8.535156 C 6.054688 8.921875 6.054688 9.308594 6.054688 9.695312 C 7.699219 10.632812 9.34375 11.582031 10.988281 12.519531 C 11.980469 11.945312 12.976562 11.371094 13.964844 10.796875 C 13.96875 11.558594 13.960938 12.3125 13.96875 13.074219 C 12.984375 13.660156 11.980469 14.21875 10.988281 14.800781 C 9.996094 14.222656 9 13.652344 8.007812 13.082031 C 7.347656 13.449219 6.691406 13.828125 6.035156 14.199219 C 7.679688 15.160156 9.339844 16.097656 10.988281 17.050781 C 12.632812 16.105469 14.285156 15.167969 15.925781 14.21875 C 15.921875 12.324219 15.925781 10.429688 15.925781 8.535156 C 14.285156 7.585938 12.636719 6.644531 10.992188 5.699219 C 9.34375 6.640625 7.699219 7.589844 6.054688 8.535156 Z M 6.054688 8.535156 "/>
</g>
</svg>
