
<svg xmlns="http://www.w3.org/2000/svg" xmlns:xlink="http://www.w3.org/1999/xlink" width="22px" height="22px" viewBox="0 0 22 22" version="1.1">
<defs>
<clipPath id="clip1">
  <path d="M 6.519531 8.707031 L 11.914062 8.707031 L 11.914062 14.601562 L 6.519531 14.601562 Z M 6.519531 8.707031 "/>
</clipPath>
<clipPath id="clip2">
  <path d="M 0.0507812 3.171875 L 20.539062 3.171875 C 21.730469 3.171875 22.699219 3.878906 22.699219 4.75 L 22.699219 19.722656 C 22.699219 20.59375 21.730469 21.300781 20.539062 21.300781 L 0.0507812 21.300781 C -1.140625 21.300781 -2.105469 20.59375 -2.105469 19.722656 L -2.105469 4.75 C -2.105469 3.878906 -1.140625 3.171875 0.0507812 3.171875 Z M 0.0507812 3.171875 "/>
</clipPath>
<clipPath id="clip3">
  <path d="M 6.519531 9.0625 L 6.519531 14.601562 L 7.910156 14.601562 L 7.910156 12.484375 C 8.09375 12.511719 8.332031 12.519531 8.59375 12.519531 C 9.585938 12.519531 10.460938 12.328125 11.023438 11.921875 C 11.453125 11.621094 11.683594 11.179688 11.683594 10.644531 C 11.683594 10.121094 11.386719 9.679688 10.929688 9.40625 C 10.441406 9.105469 9.6875 8.949219 8.664062 8.949219 C 7.71875 8.949219 7.023438 8.996094 6.519531 9.066406 M 7.910156 11.679688 L 7.910156 9.78125 C 8.058594 9.753906 8.332031 9.730469 8.71875 9.730469 C 9.6875 9.730469 10.28125 10.0625 10.28125 10.6875 C 10.28125 11.347656 9.644531 11.722656 8.59375 11.722656 C 8.308594 11.722656 8.082031 11.710938 7.910156 11.679688 "/>
</clipPath>
<clipPath id="clip4">
  <path d="M 12.796875 9.0625 L 14.210938 9.0625 L 14.210938 14.601562 L 12.796875 14.601562 Z M 12.796875 9.0625 "/>
</clipPath>
<clipPath id="clip5">
  <path d="M 0.0507812 3.171875 L 20.539062 3.171875 C 21.730469 3.171875 22.699219 3.878906 22.699219 4.75 L 22.699219 19.722656 C 22.699219 20.59375 21.730469 21.300781 20.539062 21.300781 L 0.0507812 21.300781 C -1.140625 21.300781 -2.105469 20.59375 -2.105469 19.722656 L -2.105469 4.75 C -2.105469 3.878906 -1.140625 3.171875 0.0507812 3.171875 Z M 0.0507812 3.171875 "/>
</clipPath>
</defs>
<g id="surface1">
<path style=" stroke:none;fill-rule:nonzero;fill:rgb(18.431373%,23.921569%,50.588235%);fill-opacity:1;" d="M 10.804688 0.191406 C 1.1875 -1.730469 -2.464844 11.441406 1.703125 18.597656 C 5.023438 24.296875 16.398438 22.667969 20.640625 14.972656 C 24.878906 7.277344 18.523438 1.730469 10.804688 0.191406 Z M 10.804688 0.191406 "/>
<g clip-path="url(#clip1)" clip-rule="nonzero">
<g clip-path="url(#clip2)" clip-rule="nonzero">
<g clip-path="url(#clip3)" clip-rule="nonzero">
<path style=" stroke:none;fill-rule:nonzero;fill:rgb(35.686275%,75.686275%,89.803922%);fill-opacity:1;" d="M 6.519531 9.0625 L 6.519531 14.601562 L 7.910156 14.601562 L 7.910156 12.484375 C 8.09375 12.511719 8.332031 12.519531 8.59375 12.519531 C 9.585938 12.519531 10.460938 12.328125 11.023438 11.921875 C 11.453125 11.621094 11.683594 11.179688 11.683594 10.644531 C 11.683594 10.121094 11.386719 9.679688 10.929688 9.40625 C 10.441406 9.105469 9.6875 8.949219 8.664062 8.949219 C 7.71875 8.949219 7.023438 8.996094 6.519531 9.066406 M 7.910156 11.679688 L 7.910156 9.78125 C 8.058594 9.753906 8.332031 9.730469 8.71875 9.730469 C 9.6875 9.730469 10.28125 10.0625 10.28125 10.6875 C 10.28125 11.347656 9.644531 11.722656 8.59375 11.722656 C 8.308594 11.722656 8.082031 11.710938 7.910156 11.679688 "/>
</g>
</g>
</g>
<g clip-path="url(#clip4)" clip-rule="nonzero">
<g clip-path="url(#clip5)" clip-rule="nonzero">
<path style=" stroke:none;fill-rule:nonzero;fill:rgb(35.686275%,75.686275%,89.803922%);fill-opacity:1;" d="M 12.796875 14.601562 L 14.210938 14.601562 L 14.210938 9.0625 L 12.796875 9.0625 M 12.796875 14.601562 "/>
</g>
</g>
</g>
</svg>
