
<svg xmlns="http://www.w3.org/2000/svg" xmlns:xlink="http://www.w3.org/1999/xlink" width="22px" height="22px" viewBox="0 0 22 22" version="1.1">
<g id="surface1">
<path style=" stroke:none;fill-rule:nonzero;fill:rgb(86.27451%,7.843137%,23.529412%);fill-opacity:1;" d="M 19.851562 17.464844 C 30.851562 0.925781 -4.214844 -9.261719 0.425781 12.117188 C 2.40625 20.957031 14.808594 26.320312 19.851562 17.464844 Z M 19.851562 17.464844 "/>
<path style=" stroke:none;fill-rule:nonzero;fill:rgb(100%,100%,100%);fill-opacity:1;" d="M 16.023438 13.476562 L 10.667969 7.914062 C 9.496094 6.699219 8.121094 6.136719 7.589844 6.660156 C 7.058594 7.175781 7.574219 8.574219 8.746094 9.792969 L 14.101562 15.351562 C 15.277344 16.570312 16.648438 17.128906 17.179688 16.609375 C 17.710938 16.09375 17.195312 14.695312 16.023438 13.476562 Z M 16.023438 13.476562 "/>
<path style=" stroke:none;fill-rule:nonzero;fill:rgb(100%,100%,100%);fill-opacity:1;" d="M 16.046875 5.621094 L 14.898438 4.46875 L 10.824219 10.011719 L 5.421875 14.253906 L 6.535156 15.441406 L 13.660156 12.972656 Z M 16.046875 5.621094 "/>
<path style=" stroke:none;fill-rule:nonzero;fill:rgb(100%,100%,100%);fill-opacity:1;" d="M 9.507812 8.660156 L 9.820312 4.359375 L 9.175781 3.707031 L 7.265625 6.371094 L 4.691406 8.320312 L 5.328125 8.976562 Z M 9.507812 8.660156 "/>
</g>
</svg>
