
<svg xmlns="http://www.w3.org/2000/svg" xmlns:xlink="http://www.w3.org/1999/xlink" width="22px" height="22px" viewBox="0 0 22 22" version="1.1">
<g id="surface1">
<path style=" stroke:none;fill-rule:nonzero;fill:rgb(100%,64.705882%,0%);fill-opacity:1;" d="M 20.210938 16.527344 C 31.871094 -11.78125 -17.164062 1.519531 6.644531 20.003906 C 10.917969 23.226562 18.089844 23.476562 20.210938 16.527344 Z M 20.210938 16.527344 "/>
<path style=" stroke:none;fill-rule:nonzero;fill:rgb(99.607843%,99.607843%,99.607843%);fill-opacity:1;" d="M 11.234375 16.75 C 11.058594 16.625 10.8125 16.488281 10.695312 16.445312 C 10.5 16.375 10.441406 16.382812 10.058594 16.503906 C 9.832031 16.582031 9.546875 16.640625 9.429688 16.640625 C 9.226562 16.640625 9.214844 16.628906 9.140625 16.320312 C 9.097656 16.144531 9.042969 15.816406 9.019531 15.597656 L 8.980469 15.191406 L 9.214844 15.191406 C 9.34375 15.191406 9.5625 15.230469 9.691406 15.277344 C 10.070312 15.40625 10.078125 15.402344 10.058594 14.933594 L 10.039062 14.503906 L 9.667969 14.414062 C 9.160156 14.289062 8.390625 13.945312 8.035156 13.683594 C 7.613281 13.378906 7.5 13.140625 7.5 12.605469 C 7.5 12.125 7.601562 11.859375 7.894531 11.539062 C 7.984375 11.4375 8.058594 11.320312 8.058594 11.273438 C 8.058594 11.226562 8.132812 11.15625 8.222656 11.117188 C 8.3125 11.078125 8.515625 10.953125 8.675781 10.84375 C 9.078125 10.5625 9.667969 10.324219 10.371094 10.15625 C 10.699219 10.078125 10.980469 10.003906 10.996094 9.992188 C 11.007812 9.980469 10.769531 9.902344 10.460938 9.820312 C 9.023438 9.425781 7.871094 8.699219 6.75 7.480469 C 6.316406 7.007812 5.996094 6.300781 5.816406 5.421875 C 5.664062 4.683594 5.65625 4.703125 6.011719 4.738281 C 6.402344 4.773438 8.453125 5.707031 9.332031 6.25 C 10.054688 6.691406 10.953125 7.390625 11.359375 7.828125 C 11.507812 7.992188 11.671875 8.121094 11.722656 8.121094 C 11.773438 8.121094 11.816406 8.167969 11.816406 8.222656 C 11.816406 8.277344 11.894531 8.382812 11.988281 8.457031 C 12.078125 8.53125 12.296875 8.746094 12.464844 8.941406 C 12.636719 9.132812 12.808594 9.289062 12.851562 9.289062 C 12.894531 9.289062 12.960938 9.359375 13 9.445312 C 13.050781 9.5625 13.074219 9.429688 13.105469 8.816406 C 13.183594 7.449219 13.429688 6.835938 14.285156 5.878906 C 14.972656 5.109375 16.121094 4.277344 16.496094 4.277344 L 16.664062 4.277344 L 16.628906 5.65625 C 16.589844 7.03125 16.503906 7.699219 16.273438 8.335938 C 16.113281 8.78125 15.714844 9.511719 15.496094 9.761719 C 15.390625 9.882812 15.304688 10.011719 15.304688 10.054688 C 15.304688 10.09375 15.261719 10.125 15.210938 10.125 C 15.160156 10.125 15.039062 10.214844 14.941406 10.320312 L 14.761719 10.515625 L 15 10.777344 C 15.132812 10.917969 15.339844 11.199219 15.457031 11.402344 L 15.671875 11.765625 L 15.671875 12.6875 C 15.671875 13.414062 15.648438 13.6875 15.546875 13.996094 C 15.339844 14.621094 15.179688 14.753906 14.171875 15.117188 C 13.605469 15.324219 13.609375 15.339844 14.199219 15.21875 C 14.417969 15.175781 14.714844 15.140625 14.851562 15.136719 L 15.101562 15.136719 L 15.101562 15.792969 L 14.851562 15.816406 C 14.714844 15.832031 14.144531 15.960938 13.585938 16.101562 C 13.027344 16.246094 12.460938 16.363281 12.328125 16.363281 L 12.085938 16.363281 L 12.085938 16.058594 C 12.085938 15.78125 12.101562 15.746094 12.269531 15.671875 L 12.453125 15.585938 L 12.269531 15.585938 C 12.09375 15.582031 12.085938 15.566406 12.085938 15.335938 C 12.085938 15.15625 12.058594 15.09375 12 15.113281 C 11.933594 15.132812 11.925781 15.292969 11.96875 15.820312 C 11.996094 16.195312 12.003906 16.609375 11.980469 16.738281 C 11.945312 16.953125 11.921875 16.972656 11.75 16.972656 C 11.628906 16.972656 11.449219 16.894531 11.234375 16.75 Z M 10.257812 11.765625 C 10.433594 11.664062 10.449219 11.507812 10.300781 11.382812 C 10.148438 11.257812 9.894531 11.273438 9.773438 11.417969 C 9.640625 11.578125 9.640625 11.605469 9.804688 11.742188 C 9.964844 11.875 10.0625 11.882812 10.257812 11.765625 Z M 10.257812 11.765625 "/>
</g>
</svg>
