
<svg xmlns="http://www.w3.org/2000/svg" xmlns:xlink="http://www.w3.org/1999/xlink" width="22px" height="22px" viewBox="0 0 22 22" version="1.1">
<g id="surface1">
<path style=" stroke:none;fill-rule:nonzero;fill:rgb(0%,71.764706%,100%);fill-opacity:1;" d="M 11.207031 21.882812 C 8.9375 21.707031 6.285156 20.617188 4.433594 19.105469 C 2.183594 17.265625 0.535156 14.445312 0.09375 11.664062 C -0.00390625 11.058594 -0.03125 9.652344 0.0429688 9.027344 C 0.34375 6.433594 1.867188 3.851562 4.085938 2.171875 C 5.292969 1.261719 6.886719 0.535156 8.382812 0.214844 C 12.277344 -0.609375 16.335938 0.957031 19.121094 4.359375 C 20.792969 6.394531 21.65625 8.449219 21.867188 10.882812 C 22.117188 13.796875 20.96875 16.921875 18.875 19.023438 C 17.230469 20.675781 15.023438 21.726562 12.925781 21.855469 C 12.621094 21.875 12.25 21.898438 12.097656 21.910156 C 11.945312 21.921875 11.546875 21.910156 11.207031 21.882812 Z M 11.207031 21.882812 "/>
<path style=" stroke:none;fill-rule:nonzero;fill:rgb(100%,100%,100%);fill-opacity:1;" d="M 10.480469 18.851562 C 10.269531 18.839844 9.804688 18.777344 9.53125 18.726562 C 6.675781 18.199219 4.359375 16.203125 3.433594 13.46875 C 3.265625 12.96875 3.160156 12.523438 3.070312 11.910156 C 2.996094 11.390625 2.996094 10.515625 3.070312 10 C 3.160156 9.386719 3.265625 8.9375 3.433594 8.441406 C 4.347656 5.746094 6.585938 3.785156 9.410156 3.207031 C 9.96875 3.09375 10.328125 3.054688 10.949219 3.054688 C 11.574219 3.054688 11.929688 3.09375 12.488281 3.207031 C 15.3125 3.785156 17.554688 5.746094 18.46875 8.441406 C 18.636719 8.9375 18.738281 9.386719 18.828125 10 C 18.90625 10.515625 18.90625 11.390625 18.828125 11.910156 C 18.710938 12.722656 18.539062 13.367188 18.253906 14.035156 C 17.035156 16.902344 14.210938 18.800781 11.089844 18.855469 C 10.828125 18.859375 10.550781 18.859375 10.480469 18.851562 Z M 11.523438 17.886719 C 14.667969 17.621094 17.230469 15.351562 17.84375 12.285156 C 17.945312 11.761719 17.96875 11.523438 17.96875 10.933594 C 17.96875 9.820312 17.757812 8.894531 17.277344 7.902344 C 16.523438 6.328125 15.191406 5.09375 13.554688 4.445312 C 12.136719 3.886719 10.582031 3.804688 9.101562 4.210938 C 8.457031 4.386719 7.671875 4.742188 7.132812 5.09375 C 5.363281 6.261719 4.242188 8.09375 4.007812 10.207031 C 3.949219 10.746094 3.992188 11.867188 4.074219 11.949219 C 4.179688 12.054688 4.667969 11.882812 4.84375 11.675781 C 4.917969 11.585938 4.917969 11.546875 4.84375 11.417969 C 4.683594 11.128906 4.359375 9.855469 4.359375 9.519531 C 4.359375 9.378906 4.371094 9.378906 5.027344 9.4375 C 6.078125 9.53125 6.085938 9.53125 6.589844 9.40625 C 7.167969 9.257812 7.21875 9.257812 7.414062 9.328125 C 7.605469 9.402344 7.996094 9.484375 8.15625 9.484375 C 8.304688 9.484375 8.605469 9.425781 9.414062 9.246094 C 10.234375 9.0625 10.328125 9.058594 10.648438 9.199219 C 10.769531 9.253906 11 9.375 11.152344 9.464844 C 11.578125 9.722656 11.625 9.730469 11.988281 9.636719 C 12.355469 9.542969 13.582031 9.394531 14.351562 9.355469 C 14.519531 9.34375 14.773438 9.3125 14.957031 9.273438 C 15.496094 9.160156 15.726562 9.152344 15.78125 9.253906 C 15.792969 9.277344 15.820312 9.484375 15.84375 9.710938 C 15.875 10.09375 15.875 10.136719 15.84375 10.253906 C 15.785156 10.445312 15.683594 10.546875 15.304688 10.78125 C 14.601562 11.214844 13.9375 11.675781 13.730469 11.871094 C 13.589844 12.003906 13.585938 12.074219 13.710938 12.1875 C 13.820312 12.289062 14.070312 12.441406 14.300781 12.539062 C 14.4375 12.601562 14.515625 12.617188 14.753906 12.636719 C 15.078125 12.664062 15.199219 12.691406 15.242188 12.742188 C 15.320312 12.832031 15.1875 13.285156 15.039062 13.441406 C 14.949219 13.539062 14.855469 13.546875 14.601562 13.472656 C 14.476562 13.4375 14.335938 13.421875 14.070312 13.414062 C 13.203125 13.382812 12.238281 13.5625 11.800781 13.839844 C 11.429688 14.074219 10.769531 14.851562 10 15.960938 C 9.820312 16.21875 9.605469 16.527344 9.519531 16.652344 C 9.339844 16.90625 9.066406 17.320312 9.015625 17.421875 C 8.96875 17.511719 8.972656 17.601562 9.023438 17.628906 C 9.085938 17.660156 9.535156 17.765625 9.847656 17.816406 C 10.398438 17.90625 10.992188 17.929688 11.523438 17.886719 Z M 9.230469 10.917969 C 9.839844 10.730469 9.914062 10.714844 10.171875 10.734375 C 10.421875 10.75 10.558594 10.726562 10.785156 10.621094 C 10.953125 10.542969 11.113281 10.410156 11.113281 10.347656 C 11.113281 10.269531 10.851562 10.109375 10.601562 10.035156 C 10.417969 9.980469 10.140625 9.988281 9.957031 10.046875 C 9.546875 10.183594 8.863281 10.65625 8.699219 10.917969 C 8.59375 11.085938 8.683594 11.085938 9.230469 10.917969 Z M 9.230469 10.917969 "/>
</g>
</svg>
