
<svg xmlns="http://www.w3.org/2000/svg" xmlns:xlink="http://www.w3.org/1999/xlink" width="22px" height="22px" viewBox="0 0 22 22" version="1.1">
<g id="surface1">
<path style=" stroke:none;fill-rule:nonzero;fill:rgb(100%,100%,100%);fill-opacity:1;" d="M 10.464844 4.902344 C 10.183594 4.902344 9.957031 5.128906 9.957031 5.410156 L 9.957031 6.613281 C 9.53125 6.71875 9.128906 6.886719 8.757812 7.109375 L 7.910156 6.257812 C 7.710938 6.058594 7.390625 6.058594 7.191406 6.257812 L 6.359375 7.09375 C 6.160156 7.292969 6.160156 7.613281 6.359375 7.8125 L 7.207031 8.660156 C 6.984375 9.027344 6.816406 9.429688 6.710938 9.859375 L 5.507812 9.859375 C 5.226562 9.859375 5 10.085938 5 10.367188 L 5 11.546875 C 5 11.832031 5.226562 12.054688 5.507812 12.054688 L 6.710938 12.054688 C 6.816406 12.484375 6.984375 12.886719 7.207031 13.257812 L 6.359375 14.105469 C 6.160156 14.304688 6.160156 14.625 6.359375 14.824219 L 7.191406 15.65625 C 7.390625 15.855469 7.710938 15.855469 7.910156 15.65625 L 8.757812 14.808594 C 9.128906 15.027344 9.53125 15.195312 9.957031 15.304688 L 9.957031 16.507812 C 9.957031 16.789062 10.183594 17.015625 10.464844 17.015625 L 11.648438 17.015625 C 11.929688 17.015625 12.15625 16.789062 12.15625 16.507812 L 12.15625 15.304688 C 12.582031 15.195312 12.984375 15.027344 13.355469 14.808594 L 14.203125 15.65625 C 14.402344 15.855469 14.722656 15.855469 14.921875 15.65625 L 15.753906 14.824219 C 15.957031 14.625 15.957031 14.304688 15.753906 14.105469 L 14.90625 13.257812 C 15.125 12.886719 15.296875 12.484375 15.40625 12.054688 L 16.605469 12.054688 C 16.886719 12.054688 17.113281 11.832031 17.113281 11.546875 L 17.113281 10.367188 C 17.113281 10.085938 16.886719 9.859375 16.605469 9.859375 L 15.40625 9.859375 C 15.296875 9.429688 15.125 9.027344 14.90625 8.660156 L 15.753906 7.8125 C 15.957031 7.609375 15.957031 7.292969 15.753906 7.09375 L 14.921875 6.257812 C 14.722656 6.058594 14.402344 6.058594 14.203125 6.257812 L 13.355469 7.109375 C 12.984375 6.886719 12.582031 6.71875 12.15625 6.613281 L 12.15625 5.410156 C 12.15625 5.128906 11.929688 4.902344 11.648438 4.902344 Z M 11.058594 8.886719 C 12.203125 8.886719 13.125 9.816406 13.125 10.957031 C 13.125 12.101562 12.203125 13.027344 11.058594 13.027344 C 9.914062 13.027344 8.984375 12.101562 8.984375 10.957031 C 8.984375 9.816406 9.914062 8.886719 11.058594 8.886719 Z M 11.058594 8.886719 "/>
<path style="fill:none;stroke-width:17.6;stroke-linecap:butt;stroke-linejoin:miter;stroke:rgb(69.019608%,91.764706%,82.352941%);stroke-opacity:1;stroke-miterlimit:4;" d="M 163.575602 127.994262 C 163.575602 147.644671 147.625271 163.545002 128.024863 163.545002 C 108.374454 163.545002 92.424122 147.644671 92.424122 127.994262 C 92.424122 108.393855 108.374454 92.443523 128.024863 92.443523 C 147.625271 92.443523 163.575602 108.393855 163.575602 127.994262 Z M 163.575602 127.994262 " transform="matrix(0.0781234,0,0,0.0781234,1.056859,0.957688)"/>
<path style=" stroke:none;fill-rule:nonzero;fill:rgb(86.27451%,86.27451%,86.27451%);fill-opacity:1;" d="M 9.988281 14.203125 C 9.773438 14.132812 9.335938 13.875 9.007812 13.625 C 7.003906 12.113281 7.34375 8.976562 9.632812 7.890625 C 11.304688 7.097656 13.464844 7.9375 14.207031 9.667969 C 14.503906 10.359375 14.46875 11.585938 14.125 12.359375 C 13.449219 13.882812 11.578125 14.714844 9.988281 14.203125 Z M 12.230469 12.742188 C 13.296875 12.085938 13.472656 10.242188 12.558594 9.414062 C 12.21875 9.105469 11.480469 8.824219 11.015625 8.824219 C 10.789062 8.824219 10.359375 8.949219 10.058594 9.101562 C 8.453125 9.914062 8.652344 12.4375 10.371094 12.992188 C 10.890625 13.160156 11.738281 13.046875 12.230469 12.742188 Z M 12.230469 12.742188 "/>
<path style=" stroke:none;fill-rule:nonzero;fill:rgb(40%,41.568627%,76.078431%);fill-opacity:1;" d="M 9.945312 21.65625 C 5.28125 20.609375 1.355469 16.386719 0.359375 11.34375 C 0.136719 10.207031 0.191406 8.1875 0.472656 7.089844 C 1.265625 4.035156 3.59375 1.539062 6.597656 0.523438 C 7.746094 0.132812 9.796875 -0.00390625 11.121094 0.21875 C 16.03125 1.050781 20.453125 5.042969 21.671875 9.757812 C 21.964844 10.882812 21.964844 12.898438 21.679688 13.984375 C 20.730469 17.539062 18.011719 20.296875 14.289062 21.472656 C 13.183594 21.820312 11.074219 21.910156 9.945312 21.65625 Z M 12.023438 16.9375 C 12.128906 16.867188 12.21875 16.542969 12.25 16.089844 L 12.304688 15.355469 L 13.402344 14.933594 L 13.859375 15.378906 C 14.117188 15.632812 14.4375 15.824219 14.597656 15.824219 C 14.964844 15.824219 15.960938 14.847656 15.960938 14.484375 C 15.960938 14.339844 15.746094 13.988281 15.488281 13.703125 L 15.015625 13.183594 L 15.246094 12.660156 C 15.476562 12.140625 15.476562 12.140625 16.136719 12.140625 C 17.023438 12.140625 17.1875 11.964844 17.1875 11.019531 C 17.1875 9.933594 17.082031 9.808594 16.199219 9.808594 C 15.507812 9.808594 15.453125 9.789062 15.339844 9.472656 C 15.277344 9.285156 15.164062 9.027344 15.089844 8.902344 C 14.976562 8.710938 15.039062 8.589844 15.457031 8.164062 C 15.734375 7.882812 15.960938 7.554688 15.960938 7.441406 C 15.960938 7.183594 15.140625 6.253906 14.796875 6.125 C 14.5 6.011719 14.1875 6.152344 13.683594 6.628906 L 13.308594 6.984375 L 12.792969 6.78125 C 12.296875 6.585938 12.277344 6.554688 12.277344 6.054688 C 12.277344 5.761719 12.222656 5.382812 12.15625 5.207031 C 12.035156 4.894531 12.011719 4.886719 11.019531 4.921875 L 10.007812 4.960938 L 9.933594 6.558594 L 9.355469 6.765625 L 8.78125 6.976562 L 8.328125 6.535156 C 7.730469 5.949219 7.363281 5.957031 6.738281 6.570312 C 6.023438 7.265625 6.003906 7.511719 6.617188 8.136719 L 7.128906 8.65625 L 6.875 9.234375 L 6.617188 9.808594 L 5.957031 9.808594 C 5.070312 9.808594 4.910156 9.984375 4.910156 10.941406 C 4.910156 11.953125 5.089844 12.140625 6.035156 12.140625 C 6.636719 12.140625 6.753906 12.175781 6.757812 12.355469 C 6.757812 12.472656 6.835938 12.707031 6.929688 12.875 C 7.089844 13.160156 7.066406 13.214844 6.617188 13.703125 C 6.355469 13.988281 6.140625 14.320312 6.140625 14.4375 C 6.140625 14.738281 7.242188 15.824219 7.550781 15.824219 C 7.691406 15.824219 8.015625 15.609375 8.273438 15.347656 L 8.738281 14.871094 L 9.339844 15.125 L 9.945312 15.382812 L 9.945312 16.070312 C 9.945312 16.445312 10.011719 16.824219 10.09375 16.90625 C 10.265625 17.078125 11.761719 17.101562 12.023438 16.9375 Z M 12.023438 16.9375 "/>
<path style=" stroke:none;fill-rule:nonzero;fill:rgb(40%,41.568627%,76.078431%);fill-opacity:1;" d="M 10.1875 12.730469 C 9.449219 12.351562 9.082031 11.78125 9.082031 11.011719 C 9.082031 10.304688 9.296875 9.835938 9.820312 9.394531 C 11.074219 8.339844 13.066406 9.324219 13.039062 10.988281 C 13.019531 12.476562 11.496094 13.40625 10.1875 12.730469 Z M 10.1875 12.730469 "/>
</g>
</svg>
