
<svg xmlns="http://www.w3.org/2000/svg" xmlns:xlink="http://www.w3.org/1999/xlink" width="22px" height="22px" viewBox="0 0 22 22" version="1.1">
<g id="surface1">
<path style=" stroke:none;fill-rule:nonzero;fill:rgb(84.705882%,74.901961%,84.705882%);fill-opacity:1;" d="M 21.289062 7.976562 C 25.394531 19.441406 10.632812 25.015625 5.089844 20.347656 C -0.457031 15.679688 -2.351562 7.683594 3.929688 3.65625 C 10.210938 -0.367188 17.179688 -3.488281 21.289062 7.976562 Z M 21.289062 7.976562 "/>
<path style="fill-rule:evenodd;fill:rgb(84.705882%,74.901961%,84.705882%);fill-opacity:1;stroke-width:1;stroke-linecap:butt;stroke-linejoin:miter;stroke:rgb(84.705882%,74.901961%,84.705882%);stroke-opacity:1;stroke-miterlimit:4;" d="M 186.878746 144.27363 C 179.820865 176.742806 155.878661 194.829084 133.418221 184.623256 C 110.957782 174.46049 98.440767 139.881249 105.498648 107.412073 C 112.517535 74.942897 136.459739 56.899682 158.959172 67.062447 C 180.48376 76.83765 193.039769 109.177638 187.580635 140.785563 " transform="matrix(0.100176,0,0,0.090711,-3.490322,-1.173148)"/>
<path style=" stroke:none;fill-rule:nonzero;fill:rgb(63.137255%,63.137255%,64.705882%);fill-opacity:1;" d="M 10.972656 17.390625 C 10.59375 17.347656 9.929688 17.230469 9.496094 17.121094 C 8.796875 16.949219 8.617188 16.945312 7.792969 17.066406 C 7.183594 17.15625 6.839844 17.167969 6.773438 17.097656 C 6.722656 17.039062 6.640625 16.695312 6.589844 16.335938 C 6.5 15.621094 6.171875 15.042969 5.414062 14.25 C 5.085938 13.90625 5.015625 13.753906 5.015625 13.429688 C 5.015625 13.210938 5.054688 13.003906 5.105469 12.96875 C 5.265625 12.863281 5.578125 11.816406 5.648438 11.152344 C 5.710938 10.554688 5.695312 10.484375 5.40625 10.007812 C 4.984375 9.324219 5.058594 9.132812 5.691406 9.226562 C 6.167969 9.292969 6.171875 9.292969 6.234375 8.957031 C 6.265625 8.773438 6.292969 8.488281 6.292969 8.324219 C 6.292969 7.941406 6.527344 7.691406 6.882812 7.691406 C 7.117188 7.691406 7.199219 7.613281 7.375 7.214844 C 7.691406 6.507812 8.402344 5.566406 8.878906 5.21875 C 9.546875 4.734375 10.5 4.464844 11.394531 4.511719 C 12.027344 4.542969 12.269531 4.609375 12.835938 4.921875 C 13.722656 5.40625 14.570312 6.296875 14.816406 7 C 14.957031 7.398438 15.863281 9.027344 16.074219 9.253906 C 16.089844 9.269531 16.269531 9.234375 16.472656 9.171875 C 17.058594 8.996094 17.363281 9.449219 16.9375 9.867188 C 16.832031 9.96875 16.695312 10.1875 16.632812 10.355469 C 16.472656 10.769531 16.644531 11.921875 16.972656 12.644531 C 17.332031 13.441406 17.304688 13.742188 16.820312 14.25 C 16.066406 15.042969 15.738281 15.621094 15.644531 16.335938 C 15.597656 16.695312 15.515625 17.039062 15.460938 17.097656 C 15.394531 17.171875 15.070312 17.160156 14.476562 17.070312 C 13.535156 16.921875 12.792969 17.007812 12.058594 17.339844 C 11.871094 17.425781 11.703125 17.488281 11.6875 17.476562 C 11.671875 17.46875 11.351562 17.429688 10.972656 17.390625 Z M 11.429688 14.832031 C 11.480469 14.832031 11.496094 14.78125 11.464844 14.722656 C 11.386719 14.589844 10.855469 14.582031 10.777344 14.714844 C 10.714844 14.828125 11 14.933594 11.199219 14.871094 C 11.273438 14.847656 11.375 14.832031 11.429688 14.832031 Z M 11.265625 11.847656 C 11.265625 11.554688 11.046875 11.433594 10.960938 11.679688 C 10.878906 11.90625 10.992188 12.195312 11.144531 12.140625 C 11.210938 12.117188 11.265625 11.984375 11.265625 11.847656 Z M 9.523438 11.828125 C 9.5625 11.601562 9.136719 11.285156 8.917969 11.375 C 8.710938 11.460938 8.710938 11.675781 8.914062 11.898438 C 9.113281 12.113281 9.480469 12.070312 9.523438 11.828125 Z M 13.328125 11.890625 C 13.671875 11.519531 13.34375 11.179688 12.925781 11.472656 C 12.699219 11.636719 12.628906 11.847656 12.757812 11.988281 C 12.875 12.113281 13.167969 12.066406 13.328125 11.890625 Z M 9.9375 10.886719 C 9.9375 10.828125 9.894531 10.78125 9.84375 10.78125 C 9.792969 10.78125 9.722656 10.828125 9.691406 10.886719 C 9.65625 10.945312 9.699219 10.996094 9.785156 10.996094 C 9.867188 10.996094 9.9375 10.945312 9.9375 10.886719 Z M 12.546875 10.886719 C 12.511719 10.828125 12.445312 10.78125 12.394531 10.78125 C 12.339844 10.78125 12.300781 10.828125 12.300781 10.886719 C 12.300781 10.945312 12.367188 10.996094 12.453125 10.996094 C 12.539062 10.996094 12.578125 10.945312 12.546875 10.886719 Z M 11.492188 9.589844 C 11.65625 9.410156 11.640625 9.183594 11.449219 8.953125 C 11.246094 8.710938 11.039062 8.703125 10.804688 8.933594 C 10.464844 9.265625 10.644531 9.714844 11.117188 9.714844 C 11.257812 9.714844 11.425781 9.660156 11.492188 9.589844 Z M 8.914062 6.820312 C 9.105469 6.410156 9.28125 6.09375 9.304688 6.121094 C 9.332031 6.148438 9.300781 6.417969 9.242188 6.722656 C 9.03125 7.773438 9.367188 7.53125 9.996094 6.179688 C 10.234375 5.664062 10.460938 5.242188 10.492188 5.242188 C 10.527344 5.242188 10.609375 5.320312 10.675781 5.417969 C 10.746094 5.523438 10.929688 5.597656 11.117188 5.597656 C 11.304688 5.597656 11.492188 5.523438 11.5625 5.417969 C 11.628906 5.320312 11.710938 5.242188 11.742188 5.242188 C 11.777344 5.242188 12 5.664062 12.242188 6.179688 C 12.878906 7.558594 13.199219 7.769531 12.988281 6.679688 C 12.925781 6.347656 12.894531 6.054688 12.917969 6.027344 C 12.941406 6.003906 13.117188 6.335938 13.3125 6.773438 C 13.503906 7.207031 13.707031 7.589844 13.757812 7.625 C 13.808594 7.660156 13.878906 7.449219 13.914062 7.15625 C 13.996094 6.511719 13.847656 6.160156 13.289062 5.640625 C 12.761719 5.152344 12.359375 5.046875 11.070312 5.046875 C 9.875 5.046875 9.347656 5.210938 8.820312 5.753906 C 8.371094 6.214844 8.25 6.558594 8.320312 7.15625 C 8.359375 7.449219 8.425781 7.660156 8.476562 7.628906 C 8.523438 7.59375 8.71875 7.230469 8.914062 6.820312 Z M 8.914062 6.820312 "/>
<path style=" stroke:none;fill-rule:nonzero;fill:rgb(42.745098%,69.803922%,57.647059%);fill-opacity:1;" d="M 10.578125 17.175781 C 10.199219 17.132812 9.644531 17.035156 9.351562 16.960938 C 8.847656 16.835938 8.292969 16.851562 7.214844 17.027344 L 6.808594 17.09375 L 6.738281 16.4375 C 6.65625 15.6875 6.230469 14.898438 5.464844 14.089844 C 4.996094 13.59375 4.917969 13.347656 5.160156 13.128906 C 5.390625 12.921875 5.699219 11.898438 5.761719 11.125 C 5.820312 10.4375 5.8125 10.390625 5.515625 9.992188 C 5.34375 9.761719 5.222656 9.519531 5.242188 9.457031 C 5.265625 9.390625 5.472656 9.355469 5.738281 9.375 C 6.15625 9.402344 6.207031 9.382812 6.296875 9.128906 C 6.347656 8.976562 6.394531 8.707031 6.394531 8.53125 C 6.394531 8.042969 6.554688 7.796875 6.882812 7.796875 C 7.074219 7.796875 7.234375 7.703125 7.382812 7.503906 L 7.597656 7.210938 L 7.527344 7.765625 C 7.429688 8.542969 7.554688 8.679688 7.832031 8.105469 L 8.058594 7.636719 L 8.0625 7.976562 C 8.070312 8.527344 8.222656 8.480469 8.566406 7.824219 L 8.890625 7.210938 L 9.078125 8.039062 L 9.382812 7.664062 C 9.78125 7.175781 10.203125 7.054688 10.320312 7.394531 C 10.402344 7.632812 10.410156 7.628906 10.589844 7.28125 C 10.691406 7.082031 10.851562 6.820312 10.945312 6.695312 L 11.117188 6.464844 L 11.289062 6.695312 C 11.386719 6.820312 11.546875 7.082031 11.648438 7.28125 C 11.816406 7.605469 11.839844 7.617188 11.902344 7.425781 C 12.023438 7.074219 12.460938 7.140625 12.804688 7.5625 C 13.136719 7.96875 13.121094 7.972656 13.253906 7.53125 L 13.351562 7.210938 L 13.671875 7.824219 C 14.015625 8.480469 14.167969 8.527344 14.175781 7.976562 L 14.179688 7.636719 L 14.402344 8.09375 C 14.75 8.820312 14.878906 8.4375 14.632812 7.40625 C 14.558594 7.109375 14.355469 6.667969 14.179688 6.425781 C 14.003906 6.183594 13.90625 5.988281 13.964844 5.988281 C 14.089844 5.988281 14.695312 6.980469 14.808594 7.371094 C 14.851562 7.515625 15.050781 7.875 15.253906 8.167969 C 15.453125 8.460938 15.703125 8.863281 15.804688 9.058594 C 15.972656 9.371094 16.023438 9.402344 16.289062 9.339844 C 17.078125 9.144531 17.207031 9.335938 16.722656 9.988281 C 16.425781 10.390625 16.414062 10.4375 16.472656 11.125 C 16.539062 11.898438 16.847656 12.921875 17.078125 13.128906 C 17.320312 13.347656 17.242188 13.59375 16.773438 14.089844 C 16.007812 14.898438 15.578125 15.6875 15.5 16.4375 L 15.429688 17.09375 L 15.019531 17.027344 C 13.886719 16.839844 13.320312 16.835938 12.695312 17.015625 C 11.878906 17.242188 11.4375 17.277344 10.578125 17.175781 Z M 11.570312 14.816406 C 11.65625 14.664062 11.433594 14.515625 11.117188 14.515625 C 10.984375 14.515625 10.8125 14.554688 10.738281 14.605469 C 10.511719 14.761719 10.714844 14.9375 11.117188 14.9375 C 11.328125 14.9375 11.53125 14.882812 11.570312 14.816406 Z M 7.550781 14.492188 C 7.492188 14.292969 7.277344 14.261719 7.277344 14.449219 C 7.277344 14.542969 7.347656 14.617188 7.433594 14.617188 C 7.519531 14.617188 7.574219 14.558594 7.550781 14.492188 Z M 14.957031 14.449219 C 14.957031 14.261719 14.746094 14.292969 14.683594 14.492188 C 14.664062 14.558594 14.714844 14.617188 14.800781 14.617188 C 14.886719 14.617188 14.957031 14.542969 14.957031 14.449219 Z M 9.839844 12.105469 C 9.839844 11.882812 9.648438 11.503906 9.453125 11.34375 C 9.105469 11.054688 8.582031 11.320312 8.703125 11.722656 C 8.832031 12.160156 9.839844 12.503906 9.839844 12.105469 Z M 11.292969 12.183594 C 11.382812 12.121094 11.40625 11.90625 11.367188 11.421875 C 11.324219 10.847656 11.351562 10.664062 11.570312 10.164062 C 11.753906 9.746094 11.90625 9.550781 12.113281 9.464844 C 12.441406 9.332031 12.488281 9.183594 12.203125 9.183594 C 12.097656 9.183594 11.859375 9.039062 11.675781 8.863281 C 11.285156 8.492188 10.929688 8.453125 10.675781 8.753906 C 10.578125 8.871094 10.351562 9.027344 10.167969 9.097656 C 9.789062 9.246094 9.757812 9.34375 10.035156 9.503906 C 10.140625 9.566406 10.414062 9.882812 10.636719 10.207031 C 10.929688 10.640625 11.011719 10.832031 10.933594 10.917969 C 10.78125 11.085938 10.792969 12.136719 10.945312 12.203125 C 11.125 12.28125 11.15625 12.277344 11.292969 12.183594 Z M 13.183594 12.113281 C 13.550781 11.910156 13.667969 11.539062 13.425781 11.347656 C 13.097656 11.089844 12.746094 11.230469 12.503906 11.722656 C 12.253906 12.230469 12.613281 12.433594 13.183594 12.113281 Z M 10.332031 11.632812 C 10.332031 11.574219 10.285156 11.527344 10.234375 11.527344 C 10.179688 11.527344 10.132812 11.574219 10.132812 11.632812 C 10.132812 11.691406 10.179688 11.738281 10.234375 11.738281 C 10.285156 11.738281 10.332031 11.691406 10.332031 11.632812 Z M 12.101562 11.632812 C 12.101562 11.574219 12.058594 11.527344 12.003906 11.527344 C 11.949219 11.527344 11.90625 11.574219 11.90625 11.632812 C 11.90625 11.691406 11.949219 11.738281 12.003906 11.738281 C 12.058594 11.738281 12.101562 11.691406 12.101562 11.632812 Z M 10.023438 11.015625 C 10.082031 10.90625 10.085938 10.761719 10.035156 10.675781 C 9.964844 10.550781 9.910156 10.546875 9.707031 10.664062 C 9.40625 10.839844 9.246094 10.746094 9.246094 10.394531 C 9.246094 10.195312 9.203125 10.136719 9.078125 10.160156 C 8.808594 10.21875 8.820312 10.507812 9.105469 10.875 C 9.40625 11.261719 9.867188 11.332031 10.023438 11.015625 Z M 13.132812 10.875 C 13.417969 10.507812 13.429688 10.21875 13.160156 10.160156 C 13.035156 10.136719 12.988281 10.195312 12.988281 10.394531 C 12.988281 10.746094 12.832031 10.839844 12.53125 10.664062 C 12.328125 10.546875 12.273438 10.550781 12.203125 10.675781 C 12.0625 10.917969 12.273438 11.207031 12.589844 11.207031 C 12.785156 11.207031 12.953125 11.105469 13.132812 10.875 Z M 13.132812 10.875 "/>
<path style=" stroke:none;fill-rule:nonzero;fill:rgb(32.941176%,55.686275%,45.490196%);fill-opacity:1;" d="M 10.578125 17.175781 C 10.199219 17.132812 9.644531 17.035156 9.351562 16.960938 C 8.847656 16.835938 8.292969 16.851562 7.214844 17.027344 L 6.808594 17.09375 L 6.738281 16.4375 C 6.65625 15.6875 6.230469 14.898438 5.464844 14.089844 C 4.996094 13.59375 4.917969 13.347656 5.160156 13.128906 C 5.390625 12.921875 5.699219 11.898438 5.761719 11.125 C 5.820312 10.4375 5.8125 10.390625 5.515625 9.992188 C 5.34375 9.761719 5.222656 9.519531 5.242188 9.457031 C 5.265625 9.390625 5.472656 9.355469 5.738281 9.375 C 6.15625 9.402344 6.207031 9.382812 6.296875 9.128906 C 6.347656 8.976562 6.394531 8.707031 6.394531 8.53125 C 6.394531 8.042969 6.554688 7.796875 6.882812 7.796875 C 7.074219 7.796875 7.234375 7.703125 7.382812 7.503906 L 7.597656 7.210938 L 7.527344 7.765625 C 7.429688 8.542969 7.554688 8.679688 7.832031 8.105469 L 8.058594 7.636719 L 8.0625 7.976562 C 8.070312 8.527344 8.222656 8.480469 8.566406 7.824219 L 8.890625 7.210938 L 9.078125 8.039062 L 9.382812 7.664062 C 9.78125 7.175781 10.203125 7.054688 10.320312 7.394531 C 10.402344 7.632812 10.410156 7.628906 10.589844 7.28125 C 10.691406 7.082031 10.851562 6.820312 10.945312 6.695312 L 11.117188 6.464844 L 11.289062 6.695312 C 11.386719 6.820312 11.546875 7.082031 11.648438 7.28125 C 11.816406 7.605469 11.839844 7.617188 11.902344 7.425781 C 12.023438 7.074219 12.460938 7.140625 12.804688 7.5625 C 13.136719 7.96875 13.121094 7.972656 13.253906 7.53125 L 13.351562 7.210938 L 13.671875 7.824219 C 14.015625 8.480469 14.167969 8.527344 14.175781 7.976562 L 14.179688 7.636719 L 14.402344 8.09375 C 14.75 8.820312 14.878906 8.4375 14.632812 7.40625 C 14.558594 7.109375 14.355469 6.667969 14.179688 6.425781 C 14.003906 6.183594 13.90625 5.988281 13.964844 5.988281 C 14.089844 5.988281 14.695312 6.980469 14.808594 7.371094 C 14.851562 7.515625 15.050781 7.875 15.253906 8.167969 C 15.453125 8.460938 15.703125 8.859375 15.800781 9.050781 C 16 9.421875 16.085938 9.453125 16.476562 9.292969 C 16.761719 9.175781 17.027344 9.25 17.027344 9.445312 C 17.027344 9.519531 16.886719 9.765625 16.71875 9.996094 C 16.425781 10.390625 16.417969 10.4375 16.472656 11.125 C 16.539062 11.898438 16.847656 12.921875 17.078125 13.128906 C 17.320312 13.347656 17.242188 13.59375 16.773438 14.089844 C 16.007812 14.898438 15.578125 15.6875 15.5 16.4375 L 15.429688 17.09375 L 15.019531 17.027344 C 13.886719 16.839844 13.320312 16.835938 12.695312 17.015625 C 11.878906 17.242188 11.4375 17.277344 10.578125 17.175781 Z M 12.140625 14.664062 C 12.722656 14.125 13.285156 13.238281 13.285156 12.859375 C 13.285156 12.792969 13.394531 12.578125 13.53125 12.378906 C 13.710938 12.117188 13.777344 11.882812 13.777344 11.527344 L 13.777344 11.039062 L 13.433594 11.082031 C 13.042969 11.128906 13.023438 11.09375 13.246094 10.726562 C 13.421875 10.433594 13.371094 10.140625 13.140625 10.140625 C 13.042969 10.140625 12.988281 10.242188 12.988281 10.410156 C 12.988281 10.726562 12.757812 10.863281 12.546875 10.675781 C 12.320312 10.46875 12.089844 10.628906 12.125 10.964844 C 12.144531 11.195312 12.105469 11.269531 11.945312 11.292969 C 11.53125 11.355469 11.585938 10.242188 12.015625 9.859375 C 12.089844 9.789062 12.441406 9.671875 12.792969 9.597656 C 13.417969 9.46875 13.792969 9.289062 13.449219 9.289062 C 13.355469 9.289062 13.167969 9.210938 13.035156 9.117188 C 12.902344 9.023438 12.726562 8.972656 12.644531 9.007812 C 12.390625 9.113281 11.996094 8.878906 11.550781 8.355469 L 11.125 7.851562 L 10.613281 8.410156 C 10.132812 8.9375 9.984375 9.023438 9.648438 8.972656 C 9.492188 8.949219 8.757812 9.308594 8.757812 9.410156 C 8.757812 9.445312 8.964844 9.503906 9.222656 9.542969 C 10.125 9.671875 10.699219 10.269531 10.582031 10.949219 C 10.527344 11.261719 10.480469 11.320312 10.300781 11.292969 C 10.128906 11.269531 10.089844 11.199219 10.113281 10.964844 C 10.144531 10.628906 9.917969 10.46875 9.691406 10.675781 C 9.480469 10.863281 9.246094 10.726562 9.246094 10.410156 C 9.246094 10.242188 9.191406 10.140625 9.097656 10.140625 C 8.867188 10.140625 8.816406 10.433594 8.996094 10.730469 C 9.140625 10.96875 9.140625 11.003906 9.003906 11.0625 C 8.917969 11.097656 8.761719 11.101562 8.65625 11.070312 C 8.484375 11.019531 8.460938 11.066406 8.460938 11.476562 C 8.460938 12.058594 8.601562 12.472656 8.910156 12.785156 C 9.042969 12.917969 9.148438 13.140625 9.148438 13.28125 C 9.148438 13.441406 9.285156 13.664062 9.527344 13.890625 C 9.734375 14.085938 9.984375 14.390625 10.082031 14.574219 C 10.3125 15.007812 10.691406 15.25 11.136719 15.253906 C 11.433594 15.253906 11.609375 15.152344 12.140625 14.664062 Z M 10.003906 13.929688 C 9.6875 13.609375 9.453125 13.300781 9.484375 13.246094 C 9.515625 13.195312 9.828125 13.175781 10.183594 13.207031 C 10.558594 13.238281 10.824219 13.21875 10.824219 13.160156 C 10.824219 13.105469 10.691406 12.921875 10.527344 12.753906 C 10.191406 12.402344 10.164062 12.214844 10.394531 11.855469 L 10.558594 11.601562 L 10.714844 11.964844 C 10.832031 12.234375 10.9375 12.328125 11.117188 12.328125 C 11.300781 12.328125 11.402344 12.234375 11.519531 11.964844 L 11.679688 11.601562 L 11.839844 11.855469 C 12.0625 12.195312 12.046875 12.347656 11.757812 12.71875 C 11.386719 13.199219 11.4375 13.257812 12.175781 13.214844 C 12.945312 13.171875 13.027344 13.292969 12.496094 13.679688 C 12.308594 13.820312 12.09375 14.0625 12.023438 14.222656 C 11.902344 14.492188 11.855469 14.511719 11.234375 14.511719 L 10.578125 14.511719 Z M 7.550781 14.492188 C 7.492188 14.292969 7.277344 14.261719 7.277344 14.449219 C 7.277344 14.542969 7.347656 14.617188 7.433594 14.617188 C 7.519531 14.617188 7.574219 14.558594 7.550781 14.492188 Z M 14.957031 14.449219 C 14.957031 14.261719 14.746094 14.292969 14.683594 14.492188 C 14.664062 14.558594 14.714844 14.617188 14.800781 14.617188 C 14.886719 14.617188 14.957031 14.542969 14.957031 14.449219 Z M 6.984375 11.164062 C 6.984375 10.710938 6.886719 10.558594 6.683594 10.679688 C 6.582031 10.738281 6.519531 10.855469 6.542969 10.941406 C 6.570312 11.03125 6.609375 11.171875 6.636719 11.261719 C 6.710938 11.527344 6.984375 11.449219 6.984375 11.164062 Z M 15.65625 11.074219 C 15.710938 10.847656 15.6875 10.753906 15.550781 10.675781 C 15.347656 10.558594 15.253906 10.71875 15.253906 11.171875 C 15.253906 11.535156 15.558594 11.460938 15.65625 11.074219 Z M 15.65625 11.074219 "/>
<path style=" stroke:none;fill-rule:nonzero;fill:rgb(41.176471%,26.666667%,57.647059%);fill-opacity:1;" d="M 10.625 17.171875 C 10.273438 17.128906 9.679688 17.03125 9.304688 16.957031 C 8.757812 16.84375 8.460938 16.84375 7.800781 16.945312 C 7.347656 17.015625 6.941406 17.050781 6.894531 17.019531 C 6.851562 16.992188 6.789062 16.726562 6.757812 16.429688 C 6.671875 15.667969 6.476562 15.289062 5.679688 14.351562 L 4.976562 13.527344 L 5.238281 13.023438 C 5.550781 12.425781 5.800781 11.441406 5.800781 10.835938 C 5.800781 10.550781 5.71875 10.273438 5.554688 10.011719 C 5.238281 9.503906 5.226562 9.238281 5.53125 9.339844 C 6.136719 9.542969 6.386719 9.304688 6.390625 8.523438 C 6.394531 8.089844 6.597656 7.796875 6.898438 7.796875 C 7.007812 7.796875 7.179688 7.75 7.285156 7.6875 C 7.460938 7.585938 7.476562 7.617188 7.476562 8.113281 C 7.476562 8.410156 7.511719 8.652344 7.554688 8.652344 C 7.601562 8.652344 7.71875 8.46875 7.820312 8.25 C 8 7.871094 8.007812 7.863281 8.046875 8.117188 C 8.113281 8.605469 8.234375 8.5625 8.566406 7.9375 C 8.859375 7.394531 8.902344 7.351562 8.929688 7.585938 C 8.996094 8.125 9.042969 8.160156 9.300781 7.859375 C 9.433594 7.703125 9.582031 7.597656 9.628906 7.628906 C 9.675781 7.660156 9.792969 7.589844 9.890625 7.476562 C 10.132812 7.1875 10.230469 7.210938 10.234375 7.558594 L 10.238281 7.851562 L 10.480469 7.53125 C 10.613281 7.359375 10.769531 7.082031 10.832031 6.921875 C 10.894531 6.757812 11.023438 6.625 11.117188 6.625 C 11.214844 6.625 11.339844 6.757812 11.402344 6.921875 C 11.464844 7.082031 11.625 7.359375 11.757812 7.53125 L 11.996094 7.851562 L 12 7.558594 C 12.003906 7.398438 12.019531 7.265625 12.042969 7.265625 C 12.195312 7.265625 12.78125 7.609375 12.929688 7.785156 C 13.148438 8.050781 13.285156 7.988281 13.285156 7.625 C 13.285156 7.253906 13.4375 7.394531 13.738281 8.03125 C 13.992188 8.578125 14.121094 8.601562 14.191406 8.117188 C 14.226562 7.863281 14.238281 7.871094 14.414062 8.25 C 14.515625 8.46875 14.636719 8.652344 14.679688 8.652344 C 14.726562 8.652344 14.761719 8.398438 14.765625 8.089844 L 14.769531 7.53125 L 15.070312 7.90625 C 15.234375 8.109375 15.503906 8.53125 15.667969 8.84375 L 15.96875 9.414062 L 16.4375 9.34375 C 16.695312 9.304688 16.929688 9.316406 16.960938 9.367188 C 16.992188 9.421875 16.882812 9.675781 16.726562 9.9375 C 16.523438 10.261719 16.4375 10.542969 16.433594 10.839844 C 16.433594 11.441406 16.6875 12.425781 16.996094 13.023438 L 17.257812 13.527344 L 16.558594 14.351562 C 15.761719 15.289062 15.582031 15.628906 15.472656 16.441406 L 15.394531 17.015625 L 15.054688 16.984375 C 13.804688 16.882812 12.621094 16.929688 12.261719 17.101562 C 11.863281 17.289062 11.679688 17.296875 10.625 17.171875 Z M 11.757812 15.15625 C 12.5 14.632812 13.480469 13.324219 13.480469 12.859375 C 13.480469 12.765625 13.566406 12.5625 13.671875 12.402344 C 13.78125 12.238281 13.886719 11.832031 13.925781 11.460938 C 13.992188 10.78125 13.898438 10.546875 13.675781 10.835938 C 13.5625 10.984375 13.1875 11.0625 13.1875 10.9375 C 13.1875 10.90625 13.257812 10.765625 13.34375 10.621094 C 13.519531 10.328125 13.457031 10.140625 13.179688 10.140625 C 13.058594 10.140625 12.988281 10.214844 12.988281 10.34375 C 12.988281 10.683594 12.742188 10.820312 12.472656 10.628906 C 12.203125 10.4375 12.101562 10.496094 12.101562 10.847656 C 12.101562 11.195312 11.925781 11.261719 11.796875 10.960938 C 11.546875 10.363281 12.167969 9.773438 13.175781 9.644531 C 13.578125 9.59375 13.679688 9.539062 13.679688 9.382812 C 13.679688 9.257812 13.609375 9.183594 13.496094 9.183594 C 13.394531 9.183594 13.191406 9.082031 13.042969 8.957031 C 12.847656 8.789062 12.75 8.761719 12.667969 8.851562 C 12.457031 9.078125 12.253906 8.96875 11.6875 8.304688 L 11.117188 7.640625 L 10.550781 8.304688 C 9.980469 8.96875 9.78125 9.078125 9.570312 8.851562 C 9.488281 8.761719 9.390625 8.789062 9.191406 8.957031 C 9.046875 9.082031 8.839844 9.183594 8.734375 9.183594 C 8.609375 9.183594 8.554688 9.246094 8.578125 9.359375 C 8.597656 9.484375 8.792969 9.578125 9.214844 9.671875 C 9.988281 9.84375 10.195312 9.964844 10.390625 10.375 C 10.511719 10.632812 10.523438 10.761719 10.4375 10.960938 C 10.3125 11.261719 10.132812 11.195312 10.132812 10.847656 C 10.132812 10.496094 10.035156 10.4375 9.765625 10.628906 C 9.492188 10.820312 9.246094 10.683594 9.246094 10.34375 C 9.246094 10.21875 9.179688 10.140625 9.0625 10.140625 C 8.8125 10.140625 8.734375 10.394531 8.90625 10.636719 C 8.984375 10.746094 9.046875 10.871094 9.046875 10.914062 C 9.054688 11.0625 8.683594 10.996094 8.550781 10.824219 C 8.433594 10.671875 8.414062 10.679688 8.34375 10.882812 C 8.207031 11.285156 8.421875 12.484375 8.683594 12.792969 C 8.816406 12.945312 8.976562 13.230469 9.046875 13.421875 C 9.117188 13.613281 9.3125 13.894531 9.480469 14.046875 C 9.652344 14.203125 9.867188 14.464844 9.960938 14.632812 C 10.34375 15.3125 11.1875 15.558594 11.757812 15.15625 Z M 10.109375 13.929688 C 9.851562 13.671875 9.640625 13.421875 9.640625 13.375 C 9.640625 13.296875 11.8125 13.296875 12.496094 13.371094 L 12.742188 13.402344 L 12.46875 13.546875 C 12.320312 13.628906 12.105469 13.855469 11.996094 14.050781 C 11.800781 14.390625 11.769531 14.402344 11.183594 14.398438 C 10.605469 14.394531 10.554688 14.371094 10.109375 13.929688 Z M 10.972656 13 C 10.625 12.792969 10.332031 12.453125 10.332031 12.261719 C 10.332031 11.949219 10.5 11.933594 10.761719 12.21875 C 10.898438 12.367188 11.058594 12.484375 11.117188 12.484375 C 11.175781 12.484375 11.335938 12.367188 11.472656 12.21875 C 11.734375 11.933594 11.90625 11.949219 11.90625 12.257812 C 11.90625 12.417969 11.335938 13.132812 11.210938 13.121094 C 11.1875 13.121094 11.078125 13.066406 10.972656 13 Z M 7.550781 14.492188 C 7.492188 14.292969 7.277344 14.261719 7.277344 14.449219 C 7.277344 14.542969 7.347656 14.617188 7.433594 14.617188 C 7.519531 14.617188 7.574219 14.558594 7.550781 14.492188 Z M 14.957031 14.449219 C 14.957031 14.261719 14.746094 14.292969 14.683594 14.492188 C 14.664062 14.558594 14.714844 14.617188 14.800781 14.617188 C 14.886719 14.617188 14.957031 14.542969 14.957031 14.449219 Z M 7.109375 12.265625 C 7.046875 12.015625 6.851562 11.898438 6.6875 12.007812 C 6.609375 12.058594 6.628906 12.144531 6.746094 12.285156 C 6.976562 12.558594 7.175781 12.546875 7.109375 12.265625 Z M 15.496094 12.273438 C 15.65625 12.085938 15.65625 12.058594 15.519531 12 C 15.304688 11.910156 15.15625 12.027344 15.15625 12.28125 C 15.15625 12.542969 15.273438 12.542969 15.496094 12.273438 Z M 7.042969 11.363281 C 7.125 11.007812 7.023438 10.351562 6.863281 10.1875 C 6.792969 10.117188 6.625 10.023438 6.492188 9.980469 C 6.246094 9.902344 6.246094 9.902344 6.429688 10.125 C 6.605469 10.335938 6.605469 10.355469 6.445312 10.421875 C 6.265625 10.496094 6.277344 10.757812 6.480469 11.339844 C 6.617188 11.726562 6.957031 11.738281 7.042969 11.363281 Z M 15.835938 11.0625 C 15.972656 10.585938 15.972656 10.539062 15.808594 10.441406 C 15.640625 10.339844 15.640625 10.328125 15.8125 10.117188 C 15.988281 9.90625 15.988281 9.902344 15.746094 9.980469 C 15.386719 10.09375 15.253906 10.269531 15.1875 10.703125 C 15.101562 11.289062 15.214844 11.65625 15.472656 11.613281 C 15.632812 11.589844 15.726562 11.449219 15.835938 11.0625 Z M 15.835938 11.0625 "/>
<path style=" stroke:none;fill-rule:nonzero;fill:rgb(33.333333%,39.215686%,38.823529%);fill-opacity:1;" d="M 10.871094 17.0625 C 10.753906 16.859375 10.042969 16.429688 9.824219 16.429688 L 9.609375 16.429688 L 9.839844 16.695312 C 9.964844 16.839844 10.046875 16.984375 10.015625 17.015625 C 9.910156 17.128906 8.3125 16.695312 8.3125 16.550781 C 8.3125 16.140625 7.171875 15.945312 6.984375 16.324219 C 6.820312 16.652344 6.945312 16.746094 7.554688 16.75 C 8.199219 16.753906 8.089844 16.898438 7.355469 17.015625 C 6.832031 17.101562 6.875 17.15625 6.703125 16.171875 C 6.617188 15.667969 6.484375 15.386719 6.039062 14.761719 C 5.734375 14.328125 5.449219 13.976562 5.398438 13.976562 C 5.351562 13.976562 5.242188 13.855469 5.152344 13.710938 C 4.996094 13.453125 5 13.421875 5.246094 13.042969 C 5.523438 12.609375 5.796875 11.511719 5.800781 10.832031 C 5.800781 10.550781 5.71875 10.273438 5.554688 10.011719 C 5.238281 9.503906 5.226562 9.238281 5.53125 9.339844 C 6.136719 9.542969 6.386719 9.304688 6.390625 8.523438 C 6.394531 8.089844 6.597656 7.796875 6.898438 7.796875 C 7.007812 7.796875 7.179688 7.75 7.285156 7.6875 C 7.460938 7.585938 7.476562 7.617188 7.476562 8.113281 C 7.476562 8.410156 7.511719 8.648438 7.554688 8.648438 C 7.601562 8.648438 7.71875 8.46875 7.820312 8.25 C 8 7.871094 8.007812 7.863281 8.046875 8.117188 C 8.113281 8.605469 8.234375 8.5625 8.566406 7.9375 C 8.859375 7.394531 8.902344 7.351562 8.929688 7.585938 C 8.996094 8.125 9.042969 8.160156 9.300781 7.859375 C 9.433594 7.703125 9.582031 7.597656 9.628906 7.628906 C 9.675781 7.660156 9.792969 7.589844 9.890625 7.476562 C 10.132812 7.1875 10.230469 7.210938 10.234375 7.558594 L 10.238281 7.851562 L 10.480469 7.53125 C 10.613281 7.359375 10.769531 7.082031 10.832031 6.921875 C 10.976562 6.542969 11.257812 6.542969 11.402344 6.921875 C 11.464844 7.082031 11.625 7.359375 11.757812 7.53125 L 11.996094 7.851562 L 12 7.558594 C 12.003906 7.398438 12.019531 7.265625 12.042969 7.265625 C 12.195312 7.265625 12.78125 7.609375 12.929688 7.785156 C 13.148438 8.050781 13.285156 7.988281 13.285156 7.625 C 13.285156 7.253906 13.4375 7.394531 13.738281 8.03125 C 13.992188 8.578125 14.121094 8.601562 14.191406 8.117188 C 14.226562 7.863281 14.238281 7.871094 14.414062 8.25 C 14.515625 8.46875 14.636719 8.648438 14.679688 8.648438 C 14.726562 8.648438 14.761719 8.40625 14.761719 8.113281 C 14.761719 7.816406 14.800781 7.597656 14.847656 7.628906 C 14.894531 7.660156 15.171875 8.074219 15.464844 8.546875 L 15.992188 9.40625 L 16.449219 9.339844 C 16.699219 9.304688 16.929688 9.316406 16.960938 9.367188 C 16.992188 9.421875 16.882812 9.675781 16.726562 9.9375 C 16.523438 10.261719 16.4375 10.539062 16.4375 10.835938 C 16.4375 11.507812 16.714844 12.609375 16.992188 13.042969 C 17.234375 13.421875 17.238281 13.453125 17.085938 13.710938 C 16.996094 13.855469 16.882812 13.976562 16.835938 13.976562 C 16.789062 13.976562 16.5 14.328125 16.195312 14.761719 C 15.753906 15.386719 15.621094 15.667969 15.535156 16.171875 C 15.363281 17.15625 15.40625 17.101562 14.882812 17.015625 C 14.144531 16.898438 14.039062 16.753906 14.679688 16.75 C 15.292969 16.746094 15.417969 16.652344 15.253906 16.324219 C 15.066406 15.945312 13.925781 16.140625 13.925781 16.550781 C 13.925781 16.695312 12.324219 17.128906 12.21875 17.015625 C 12.191406 16.984375 12.273438 16.839844 12.398438 16.695312 L 12.628906 16.429688 L 12.410156 16.429688 C 12.097656 16.429688 11.414062 16.832031 11.414062 17.015625 C 11.414062 17.199219 10.96875 17.238281 10.871094 17.0625 Z M 11.757812 15.15625 C 12.5 14.632812 13.480469 13.324219 13.480469 12.859375 C 13.480469 12.765625 13.566406 12.5625 13.671875 12.402344 C 13.78125 12.238281 13.886719 11.832031 13.925781 11.460938 C 13.992188 10.78125 13.898438 10.546875 13.675781 10.835938 C 13.5625 10.984375 13.1875 11.0625 13.1875 10.9375 C 13.1875 10.90625 13.257812 10.757812 13.347656 10.613281 C 13.535156 10.308594 13.457031 10.175781 13.066406 10.125 C 12.792969 10.085938 12.757812 10.132812 12.855469 10.410156 C 12.945312 10.660156 12.824219 10.722656 12.539062 10.585938 C 12.226562 10.429688 12.101562 10.503906 12.101562 10.835938 C 12.101562 11.195312 11.925781 11.265625 11.796875 10.960938 C 11.546875 10.363281 12.167969 9.773438 13.175781 9.644531 C 13.578125 9.59375 13.679688 9.539062 13.679688 9.382812 C 13.679688 9.257812 13.609375 9.183594 13.496094 9.183594 C 13.394531 9.183594 13.191406 9.082031 13.042969 8.957031 C 12.847656 8.789062 12.75 8.761719 12.667969 8.851562 C 12.457031 9.078125 12.253906 8.96875 11.6875 8.304688 L 11.117188 7.640625 L 10.550781 8.304688 C 9.980469 8.96875 9.78125 9.078125 9.570312 8.851562 C 9.488281 8.761719 9.390625 8.789062 9.191406 8.957031 C 9.046875 9.082031 8.839844 9.183594 8.734375 9.183594 C 8.609375 9.183594 8.554688 9.246094 8.578125 9.359375 C 8.597656 9.484375 8.792969 9.578125 9.214844 9.671875 C 9.988281 9.84375 10.195312 9.964844 10.390625 10.375 C 10.511719 10.632812 10.523438 10.761719 10.4375 10.960938 C 10.308594 11.265625 10.132812 11.195312 10.132812 10.835938 C 10.132812 10.503906 10.007812 10.429688 9.699219 10.585938 C 9.402344 10.730469 9.292969 10.65625 9.390625 10.386719 C 9.488281 10.109375 9.464844 10.085938 9.167969 10.125 C 8.820312 10.175781 8.730469 10.351562 8.90625 10.644531 C 8.988281 10.773438 9.050781 10.90625 9.050781 10.9375 C 9.050781 11.066406 8.671875 10.980469 8.550781 10.824219 C 8.433594 10.671875 8.414062 10.679688 8.34375 10.882812 C 8.207031 11.285156 8.421875 12.484375 8.683594 12.792969 C 8.816406 12.945312 8.976562 13.230469 9.046875 13.421875 C 9.117188 13.613281 9.3125 13.894531 9.480469 14.046875 C 9.652344 14.203125 9.867188 14.464844 9.960938 14.632812 C 10.34375 15.3125 11.1875 15.558594 11.757812 15.15625 Z M 10.109375 13.929688 C 9.851562 13.671875 9.640625 13.421875 9.640625 13.375 C 9.640625 13.296875 11.8125 13.296875 12.496094 13.371094 L 12.742188 13.402344 L 12.46875 13.546875 C 12.320312 13.628906 12.105469 13.855469 11.996094 14.050781 C 11.800781 14.390625 11.769531 14.402344 11.183594 14.398438 C 10.605469 14.394531 10.554688 14.371094 10.109375 13.929688 Z M 11.464844 13.871094 C 11.429688 13.8125 11.273438 13.765625 11.117188 13.765625 C 10.960938 13.765625 10.808594 13.8125 10.773438 13.871094 C 10.738281 13.9375 10.875 13.976562 11.117188 13.976562 C 11.363281 13.976562 11.5 13.9375 11.464844 13.871094 Z M 10.972656 13 C 10.625 12.792969 10.332031 12.453125 10.332031 12.261719 C 10.332031 11.949219 10.5 11.933594 10.761719 12.21875 C 10.898438 12.367188 11.058594 12.484375 11.117188 12.484375 C 11.175781 12.484375 11.335938 12.367188 11.472656 12.21875 C 11.734375 11.933594 11.90625 11.949219 11.90625 12.257812 C 11.90625 12.417969 11.335938 13.132812 11.210938 13.121094 C 11.1875 13.121094 11.078125 13.066406 10.972656 13 Z M 7.773438 14.808594 C 7.933594 14.683594 8.066406 14.515625 8.066406 14.445312 C 8.066406 14.273438 7.195312 13.636719 7.074219 13.714844 C 6.941406 13.804688 6.964844 14.765625 7.101562 14.914062 C 7.273438 15.101562 7.445312 15.074219 7.773438 14.808594 Z M 15.136719 14.914062 C 15.273438 14.765625 15.292969 13.886719 15.164062 13.667969 C 15.089844 13.546875 14.972656 13.605469 14.574219 13.96875 C 14.296875 14.21875 14.074219 14.457031 14.074219 14.492188 C 14.082031 14.601562 14.695312 15.023438 14.863281 15.03125 C 14.949219 15.039062 15.070312 14.984375 15.136719 14.914062 Z M 6.195312 14.015625 C 6.195312 13.902344 5.660156 13.019531 5.59375 13.019531 C 5.558594 13.019531 5.476562 13.089844 5.410156 13.175781 C 5.222656 13.417969 5.367188 13.835938 5.679688 13.960938 C 6.003906 14.089844 6.195312 14.109375 6.195312 14.015625 Z M 16.519531 13.96875 C 16.867188 13.835938 17.023438 13.433594 16.828125 13.175781 C 16.652344 12.945312 16.609375 12.972656 16.3125 13.484375 C 15.929688 14.136719 15.949219 14.183594 16.519531 13.96875 Z M 7.109375 12.265625 C 7.046875 12.015625 6.851562 11.898438 6.6875 12.007812 C 6.609375 12.058594 6.628906 12.144531 6.746094 12.285156 C 6.976562 12.558594 7.175781 12.546875 7.109375 12.265625 Z M 15.496094 12.273438 C 15.65625 12.085938 15.65625 12.058594 15.519531 12 C 15.304688 11.910156 15.15625 12.027344 15.15625 12.28125 C 15.15625 12.542969 15.273438 12.542969 15.496094 12.273438 Z M 7.042969 11.363281 C 7.125 11.007812 7.023438 10.351562 6.863281 10.1875 C 6.792969 10.117188 6.625 10.023438 6.492188 9.980469 C 6.246094 9.902344 6.246094 9.902344 6.429688 10.125 C 6.605469 10.335938 6.605469 10.355469 6.445312 10.421875 C 6.265625 10.496094 6.277344 10.757812 6.480469 11.339844 C 6.617188 11.726562 6.957031 11.738281 7.042969 11.363281 Z M 15.835938 11.0625 C 15.972656 10.585938 15.972656 10.539062 15.808594 10.441406 C 15.640625 10.339844 15.640625 10.328125 15.8125 10.117188 C 15.988281 9.90625 15.988281 9.902344 15.746094 9.980469 C 15.386719 10.09375 15.253906 10.269531 15.1875 10.703125 C 15.101562 11.289062 15.214844 11.65625 15.472656 11.613281 C 15.632812 11.589844 15.726562 11.449219 15.835938 11.0625 Z M 15.835938 11.0625 "/>
<path style=" stroke:none;fill-rule:nonzero;fill:rgb(19.607843%,13.72549%,29.411765%);fill-opacity:1;" d="M 11.117188 17.070312 C 10.984375 17.039062 10.683594 16.882812 10.457031 16.722656 C 10.226562 16.558594 9.941406 16.429688 9.824219 16.429688 L 9.609375 16.429688 L 9.839844 16.695312 C 10.109375 17.003906 10.121094 17.003906 9.101562 16.804688 C 8.667969 16.71875 8.300781 16.648438 8.28125 16.644531 C 8.265625 16.644531 8.277344 16.59375 8.308594 16.539062 C 8.398438 16.386719 7.832031 16.109375 7.4375 16.109375 C 7.210938 16.109375 7.058594 16.171875 6.996094 16.292969 C 6.914062 16.453125 6.890625 16.433594 6.832031 16.160156 C 6.738281 15.71875 6.363281 15.035156 5.898438 14.453125 C 5.683594 14.183594 5.507812 13.945312 5.507812 13.921875 C 5.507812 13.902344 5.640625 13.933594 5.808594 13.996094 C 5.972656 14.058594 6.132812 14.082031 6.164062 14.046875 C 6.226562 13.980469 5.691406 13.019531 5.59375 13.019531 C 5.433594 13.019531 5.292969 13.359375 5.351562 13.601562 C 5.425781 13.929688 5.355469 13.949219 5.207031 13.644531 C 5.113281 13.460938 5.128906 13.367188 5.289062 13.132812 C 5.574219 12.714844 5.792969 11.949219 5.859375 11.125 C 5.917969 10.445312 5.90625 10.386719 5.617188 9.960938 C 5.40625 9.648438 5.351562 9.488281 5.429688 9.433594 C 5.492188 9.394531 5.5625 9.417969 5.585938 9.492188 C 5.609375 9.570312 5.757812 9.753906 5.914062 9.90625 C 6.074219 10.058594 6.183594 10.234375 6.160156 10.300781 C 6.136719 10.367188 6.21875 10.824219 6.335938 11.320312 C 6.554688 12.210938 6.5625 12.222656 7.167969 12.726562 C 7.824219 13.265625 7.96875 13.328125 7.96875 13.070312 C 7.96875 12.917969 7.902344 12.839844 7.398438 12.410156 C 7.160156 12.210938 7.132812 12.011719 7.1875 10.96875 C 7.214844 10.390625 7.039062 10.097656 6.515625 9.859375 C 6.339844 9.777344 6.195312 9.703125 6.199219 9.6875 C 6.199219 9.675781 6.261719 9.472656 6.339844 9.238281 C 6.417969 9.003906 6.484375 8.628906 6.488281 8.40625 C 6.492188 7.992188 6.519531 7.964844 7.042969 7.867188 L 7.351562 7.808594 L 7.402344 8.644531 C 7.46875 9.710938 7.621094 10.0625 7.71875 9.386719 C 7.753906 9.128906 7.808594 8.828125 7.835938 8.722656 C 7.886719 8.535156 7.890625 8.535156 8.015625 8.722656 C 8.136719 8.898438 8.160156 8.886719 8.328125 8.558594 C 8.429688 8.359375 8.585938 8.097656 8.679688 7.972656 L 8.847656 7.746094 L 8.851562 8.03125 C 8.855469 8.386719 9.042969 8.527344 9.199219 8.292969 C 9.265625 8.195312 9.390625 8.117188 9.472656 8.117188 C 9.558594 8.117188 9.65625 8.070312 9.691406 8.011719 C 9.808594 7.808594 9.9375 7.90625 9.9375 8.195312 L 9.9375 8.484375 L 10.199219 8.203125 C 10.339844 8.050781 10.574219 7.691406 10.714844 7.40625 C 10.855469 7.125 11.039062 6.890625 11.117188 6.890625 C 11.199219 6.890625 11.375 7.117188 11.511719 7.386719 C 11.78125 7.925781 12.082031 8.332031 12.214844 8.332031 C 12.261719 8.332031 12.300781 8.203125 12.300781 8.042969 C 12.300781 7.820312 12.328125 7.785156 12.417969 7.882812 C 12.484375 7.953125 12.613281 8.011719 12.710938 8.011719 C 12.808594 8.011719 12.960938 8.132812 13.050781 8.285156 C 13.234375 8.585938 13.378906 8.476562 13.382812 8.039062 C 13.382812 7.671875 13.53125 7.75 13.726562 8.226562 C 13.960938 8.785156 14.125 8.933594 14.25 8.691406 C 14.335938 8.523438 14.347656 8.523438 14.398438 8.714844 C 14.425781 8.824219 14.480469 9.125 14.519531 9.378906 C 14.617188 10.078125 14.769531 9.777344 14.835938 8.75 L 14.890625 7.863281 L 15.179688 8.230469 C 15.335938 8.433594 15.550781 8.777344 15.660156 9 C 15.765625 9.222656 15.917969 9.433594 15.996094 9.464844 C 16.230469 9.5625 16.160156 9.691406 15.796875 9.820312 C 15.609375 9.886719 15.34375 10.089844 15.203125 10.273438 C 14.976562 10.558594 14.957031 10.65625 15.023438 11.035156 C 15.171875 11.886719 15.101562 12.179688 14.667969 12.570312 C 14.449219 12.769531 14.269531 12.996094 14.269531 13.082031 C 14.269531 13.359375 14.359375 13.308594 15.453125 12.394531 C 15.640625 12.238281 15.753906 11.972656 15.894531 11.351562 C 16 10.890625 16.078125 10.433594 16.066406 10.335938 C 16.054688 10.234375 16.15625 10.058594 16.289062 9.945312 C 16.421875 9.832031 16.535156 9.667969 16.535156 9.578125 C 16.535156 9.492188 16.597656 9.390625 16.679688 9.359375 C 16.953125 9.242188 16.933594 9.496094 16.625 9.953125 C 16.332031 10.386719 16.320312 10.441406 16.375 11.125 C 16.445312 11.949219 16.664062 12.714844 16.945312 13.132812 C 17.105469 13.367188 17.121094 13.460938 17.03125 13.644531 C 16.882812 13.949219 16.8125 13.929688 16.886719 13.601562 C 16.945312 13.359375 16.800781 13.019531 16.644531 13.019531 C 16.546875 13.019531 16.011719 13.980469 16.074219 14.046875 C 16.105469 14.082031 16.265625 14.058594 16.429688 13.996094 C 16.59375 13.933594 16.730469 13.902344 16.730469 13.921875 C 16.730469 13.945312 16.554688 14.183594 16.339844 14.453125 C 15.875 15.035156 15.5 15.71875 15.40625 16.160156 C 15.347656 16.433594 15.324219 16.453125 15.242188 16.292969 C 15.179688 16.171875 15.027344 16.109375 14.800781 16.109375 C 14.40625 16.109375 13.839844 16.386719 13.925781 16.539062 C 13.960938 16.59375 13.972656 16.644531 13.953125 16.644531 C 13.9375 16.648438 13.570312 16.71875 13.136719 16.804688 C 12.113281 17.003906 12.128906 17.003906 12.398438 16.695312 L 12.628906 16.429688 L 12.410156 16.429688 C 12.128906 16.429688 11.4375 16.808594 11.398438 16.988281 C 11.375 17.074219 11.273438 17.105469 11.117188 17.070312 Z M 11.964844 15.167969 C 12.613281 14.65625 13.160156 13.925781 13.574219 13.015625 C 13.921875 12.253906 13.980469 12.027344 14.035156 11.132812 C 14.09375 10.28125 14.082031 10.121094 13.964844 10.164062 C 13.84375 10.207031 13.664062 10.492188 13.546875 10.835938 C 13.523438 10.894531 13.476562 10.910156 13.4375 10.871094 C 13.402344 10.832031 13.425781 10.707031 13.492188 10.585938 C 13.667969 10.285156 13.457031 10.035156 13.027344 10.035156 C 12.699219 10.035156 12.5625 10.253906 12.792969 10.410156 C 12.847656 10.445312 12.867188 10.523438 12.835938 10.578125 C 12.804688 10.636719 12.652344 10.597656 12.484375 10.488281 C 12.195312 10.308594 12.183594 10.308594 12.046875 10.507812 C 11.894531 10.730469 11.867188 10.695312 11.96875 10.40625 C 12.066406 10.136719 12.972656 9.71875 13.457031 9.71875 C 13.769531 9.714844 13.875 9.675781 13.875 9.550781 C 13.875 9.253906 13.675781 8.96875 13.472656 8.96875 C 13.367188 8.96875 13.140625 8.863281 12.976562 8.730469 C 12.683594 8.496094 12.675781 8.496094 12.542969 8.691406 C 12.410156 8.886719 12.386719 8.875 12.03125 8.472656 C 11.828125 8.242188 11.539062 7.886719 11.390625 7.6875 L 11.117188 7.320312 L 10.796875 7.738281 C 9.984375 8.804688 9.964844 8.820312 9.742188 8.675781 C 9.527344 8.53125 9.285156 8.609375 9.0625 8.898438 C 9 8.984375 8.863281 9.03125 8.761719 9.003906 C 8.640625 8.96875 8.535156 9.03125 8.460938 9.179688 C 8.285156 9.539062 8.40625 9.714844 8.828125 9.71875 C 9.152344 9.71875 10.234375 10.15625 10.234375 10.289062 C 10.234375 10.316406 10.261719 10.425781 10.296875 10.53125 C 10.347656 10.703125 10.339844 10.703125 10.203125 10.515625 C 10.054688 10.308594 10.039062 10.308594 9.753906 10.488281 C 9.585938 10.597656 9.433594 10.636719 9.402344 10.578125 C 9.371094 10.523438 9.386719 10.445312 9.441406 10.410156 C 9.675781 10.253906 9.539062 10.035156 9.203125 10.035156 C 8.800781 10.035156 8.558594 10.363281 8.761719 10.632812 C 8.828125 10.714844 8.859375 10.8125 8.828125 10.84375 C 8.800781 10.875 8.679688 10.753906 8.5625 10.574219 C 8.445312 10.394531 8.308594 10.25 8.257812 10.25 C 8.011719 10.25 8.261719 12.40625 8.550781 12.800781 C 8.660156 12.949219 8.84375 13.285156 8.953125 13.550781 C 9.144531 13.996094 9.871094 14.847656 10.429688 15.277344 C 10.820312 15.582031 11.503906 15.53125 11.964844 15.167969 Z M 10.183594 13.808594 C 9.914062 13.539062 9.773438 13.347656 9.871094 13.382812 C 9.96875 13.417969 10.558594 13.445312 11.179688 13.445312 L 12.3125 13.445312 L 11.984375 13.871094 C 11.683594 14.261719 11.621094 14.292969 11.167969 14.292969 C 10.722656 14.292969 10.628906 14.246094 10.183594 13.808594 Z M 11.511719 13.925781 C 11.511719 13.808594 11.402344 13.765625 11.117188 13.765625 C 10.835938 13.765625 10.726562 13.808594 10.726562 13.925781 C 10.726562 14.039062 10.835938 14.085938 11.117188 14.085938 C 11.402344 14.085938 11.511719 14.039062 11.511719 13.925781 Z M 10.863281 12.761719 C 10.695312 12.679688 10.53125 12.539062 10.496094 12.445312 C 10.417969 12.226562 10.476562 12.230469 10.832031 12.457031 C 11.105469 12.628906 11.132812 12.628906 11.421875 12.445312 C 11.816406 12.195312 11.894531 12.292969 11.578125 12.640625 C 11.289062 12.953125 11.273438 12.953125 10.863281 12.761719 Z M 7.773438 14.808594 C 7.933594 14.683594 8.066406 14.515625 8.066406 14.445312 C 8.066406 14.273438 7.195312 13.636719 7.074219 13.714844 C 6.941406 13.804688 6.964844 14.765625 7.101562 14.914062 C 7.273438 15.101562 7.445312 15.074219 7.773438 14.808594 Z M 15.136719 14.914062 C 15.273438 14.765625 15.292969 13.886719 15.164062 13.667969 C 15.089844 13.546875 14.972656 13.605469 14.574219 13.96875 C 14.296875 14.21875 14.074219 14.457031 14.074219 14.492188 C 14.082031 14.601562 14.695312 15.023438 14.863281 15.03125 C 14.949219 15.039062 15.070312 14.984375 15.136719 14.914062 Z M 6.886719 16.828125 C 6.886719 16.730469 7.019531 16.707031 7.351562 16.738281 C 7.742188 16.773438 7.78125 16.796875 7.574219 16.859375 C 7.179688 16.988281 6.886719 16.972656 6.886719 16.828125 Z M 14.664062 16.859375 C 14.457031 16.796875 14.492188 16.773438 14.882812 16.738281 C 15.214844 16.707031 15.351562 16.730469 15.351562 16.828125 C 15.351562 16.972656 15.054688 16.988281 14.664062 16.859375 Z M 14.664062 16.859375 "/>
<path style=" stroke:none;fill-rule:nonzero;fill:rgb(10.980392%,10.980392%,15.686275%);fill-opacity:1;" d="M 8.367188 16.265625 C 7.914062 16.007812 7.5 15.726562 7.453125 15.636719 C 7.332031 15.398438 7.101562 15.429688 7.0625 15.6875 C 7.015625 16.027344 6.847656 15.953125 6.695312 15.523438 C 6.496094 14.960938 6.6875 14.871094 7.230469 15.269531 C 7.871094 15.734375 9.347656 15.839844 9.347656 15.421875 C 9.347656 15.339844 9.253906 15.238281 9.140625 15.199219 C 9.027344 15.160156 8.53125 14.699219 8.035156 14.175781 C 7.222656 13.3125 7.125 13.238281 7.011719 13.40625 C 6.941406 13.507812 6.886719 13.75 6.886719 13.945312 C 6.886719 14.140625 6.847656 14.296875 6.796875 14.296875 C 6.6875 14.296875 6.324219 13.203125 6.257812 12.667969 C 6.171875 11.992188 6.261719 11.957031 6.765625 12.46875 C 7.40625 13.125 8.078125 13.578125 8.203125 13.445312 C 8.269531 13.375 8.261719 13.296875 8.183594 13.210938 C 8.121094 13.140625 8.066406 12.976562 8.066406 12.851562 C 8.066406 12.578125 7.917969 12.421875 7.558594 12.324219 C 7.207031 12.230469 7.140625 11.804688 7.371094 11.097656 C 7.46875 10.792969 7.59375 10.511719 7.648438 10.476562 C 7.699219 10.4375 7.777344 10.132812 7.8125 9.796875 C 7.863281 9.363281 7.9375 9.152344 8.0625 9.078125 C 8.164062 9.019531 8.34375 8.753906 8.464844 8.484375 C 8.621094 8.128906 8.707031 8.03125 8.765625 8.132812 C 8.910156 8.375 8.871094 8.863281 8.710938 8.863281 C 8.527344 8.863281 8.300781 9.328125 8.167969 9.96875 C 8.015625 10.703125 8.203125 12.40625 8.496094 12.957031 C 8.625 13.195312 8.757812 13.523438 8.792969 13.683594 C 8.878906 14.0625 10.238281 15.324219 10.742188 15.488281 C 11.28125 15.660156 11.71875 15.480469 12.546875 14.742188 C 13.128906 14.226562 13.292969 14 13.605469 13.292969 C 13.917969 12.597656 13.996094 12.273438 14.089844 11.34375 C 14.210938 10.066406 14.152344 9.726562 13.667969 8.933594 C 13.414062 8.519531 13.375 8.382812 13.457031 8.191406 C 13.550781 7.96875 13.5625 7.976562 13.710938 8.359375 C 13.796875 8.578125 13.980469 8.871094 14.121094 9.015625 C 14.335938 9.230469 14.382812 9.378906 14.410156 9.941406 C 14.425781 10.328125 14.488281 10.628906 14.554688 10.652344 C 14.617188 10.675781 14.757812 10.882812 14.867188 11.113281 C 15.132812 11.683594 15.050781 12.164062 14.644531 12.378906 C 14.273438 12.578125 13.871094 13.445312 14.152344 13.445312 C 14.324219 13.445312 15.023438 12.902344 15.605469 12.316406 C 15.976562 11.941406 16.0625 12.019531 15.980469 12.667969 C 15.910156 13.203125 15.546875 14.296875 15.4375 14.296875 C 15.390625 14.296875 15.351562 14.113281 15.351562 13.882812 C 15.351562 13.144531 15.15625 13.140625 14.414062 13.867188 C 14.050781 14.21875 13.496094 14.6875 13.175781 14.898438 C 12.855469 15.113281 12.59375 15.328125 12.59375 15.378906 C 12.59375 15.582031 13.160156 15.703125 13.847656 15.648438 C 14.425781 15.601562 14.644531 15.53125 14.996094 15.277344 C 15.550781 14.871094 15.742188 14.960938 15.539062 15.527344 C 15.390625 15.960938 15.222656 16.03125 15.171875 15.6875 C 15.136719 15.4375 14.878906 15.394531 14.800781 15.625 C 14.769531 15.707031 14.34375 15.996094 13.851562 16.265625 C 12.996094 16.730469 12.714844 16.824219 13.035156 16.535156 C 13.117188 16.460938 13.1875 16.332031 13.1875 16.242188 C 13.1875 16.035156 12.441406 16.140625 11.820312 16.4375 C 11.269531 16.699219 10.683594 16.699219 10.292969 16.4375 C 9.898438 16.171875 9.050781 16.027344 9.050781 16.222656 C 9.050781 16.296875 9.125 16.445312 9.214844 16.550781 C 9.453125 16.835938 9.296875 16.785156 8.367188 16.265625 Z M 10.089844 13.671875 C 10.0625 13.617188 10.171875 13.554688 10.335938 13.527344 C 10.660156 13.476562 10.820312 13.59375 10.570312 13.699219 C 10.347656 13.792969 10.15625 13.78125 10.089844 13.671875 Z M 11.625 13.671875 C 11.542969 13.613281 11.527344 13.554688 11.589844 13.511719 C 11.714844 13.429688 12.003906 13.539062 12.003906 13.667969 C 12.003906 13.789062 11.800781 13.789062 11.625 13.667969 Z M 5.96875 11.246094 C 5.867188 11.136719 5.886719 10.589844 5.992188 10.519531 C 6.113281 10.4375 6.238281 11.097656 6.125 11.21875 C 6.074219 11.273438 6.003906 11.285156 5.96875 11.246094 Z M 16.089844 11.207031 C 16 11.050781 16.136719 10.449219 16.246094 10.519531 C 16.363281 10.597656 16.363281 11.175781 16.246094 11.257812 C 16.195312 11.289062 16.125 11.269531 16.089844 11.207031 Z M 8.421875 10.191406 C 8.097656 9.839844 8.285156 9.664062 8.882812 9.773438 C 9.269531 9.847656 9.28125 9.855469 9.050781 9.945312 C 8.914062 10 8.753906 10.117188 8.691406 10.203125 C 8.59375 10.34375 8.5625 10.34375 8.421875 10.191406 Z M 5.753906 10.035156 C 5.65625 9.917969 5.621094 9.824219 5.675781 9.824219 C 5.800781 9.824219 6.046875 10.125 5.980469 10.199219 C 5.953125 10.226562 5.851562 10.152344 5.753906 10.035156 Z M 6.855469 9.980469 C 6.703125 9.835938 6.507812 9.714844 6.425781 9.714844 C 6.308594 9.714844 6.289062 9.65625 6.34375 9.476562 C 6.382812 9.34375 6.460938 8.964844 6.519531 8.632812 C 6.621094 8.058594 6.640625 8.027344 6.953125 7.988281 C 7.132812 7.964844 7.277344 7.984375 7.277344 8.03125 C 7.277344 8.078125 7.1875 8.117188 7.078125 8.117188 C 6.960938 8.117188 6.84375 8.21875 6.792969 8.367188 C 6.65625 8.761719 6.558594 9.609375 6.652344 9.609375 C 6.699219 9.605469 6.847656 9.425781 6.980469 9.207031 L 7.222656 8.808594 L 7.3125 9.253906 C 7.402344 9.699219 7.339844 10.25 7.203125 10.246094 C 7.164062 10.242188 7.007812 10.125 6.855469 9.980469 Z M 13.308594 10.035156 L 12.992188 9.851562 L 13.355469 9.785156 C 13.757812 9.714844 13.933594 9.824219 13.84375 10.082031 C 13.769531 10.28125 13.722656 10.277344 13.308594 10.035156 Z M 14.898438 9.972656 C 14.863281 9.824219 14.875 9.5 14.925781 9.253906 L 15.015625 8.808594 L 15.257812 9.207031 C 15.515625 9.628906 15.648438 9.710938 15.648438 9.449219 C 15.648438 9.316406 15.679688 9.308594 15.84375 9.421875 C 16.09375 9.589844 16.097656 9.714844 15.851562 9.714844 C 15.746094 9.714844 15.53125 9.835938 15.371094 9.980469 C 15.007812 10.3125 14.976562 10.3125 14.898438 9.972656 Z M 16.238281 10.171875 C 16.238281 10.039062 16.519531 9.773438 16.585938 9.84375 C 16.613281 9.871094 16.542969 9.980469 16.433594 10.089844 C 16.328125 10.195312 16.238281 10.230469 16.238281 10.171875 Z M 16.632812 9.5625 C 16.632812 9.472656 16.675781 9.394531 16.730469 9.394531 C 16.785156 9.394531 16.828125 9.441406 16.828125 9.496094 C 16.828125 9.550781 16.785156 9.625 16.730469 9.664062 C 16.675781 9.699219 16.632812 9.652344 16.632812 9.5625 Z M 9.390625 8.378906 C 9.601562 8.207031 9.78125 8.171875 9.699219 8.316406 C 9.667969 8.371094 9.542969 8.4375 9.421875 8.472656 C 9.207031 8.53125 9.207031 8.527344 9.390625 8.378906 Z M 12.699219 8.445312 C 12.570312 8.40625 12.441406 8.316406 12.417969 8.238281 C 12.386719 8.132812 12.4375 8.117188 12.609375 8.171875 C 13.058594 8.320312 13.140625 8.566406 12.699219 8.445312 Z M 10.945312 7.164062 C 10.960938 7.074219 11.039062 7 11.117188 7 C 11.199219 7 11.277344 7.074219 11.292969 7.164062 C 11.3125 7.265625 11.25 7.324219 11.117188 7.324219 C 10.988281 7.324219 10.925781 7.265625 10.945312 7.164062 Z M 10.945312 7.164062 "/>
</g>
</svg>
