
<svg xmlns="http://www.w3.org/2000/svg" xmlns:xlink="http://www.w3.org/1999/xlink" width="22px" height="22px" viewBox="0 0 22 22" version="1.1">
<g id="surface1">
<path style=" stroke:none;fill-rule:nonzero;fill:rgb(86.27451%,7.843137%,23.529412%);fill-opacity:1;" d="M 19.734375 16.828125 C 27.644531 5.578125 13.035156 -5.820312 3.714844 3.347656 C -5.066406 11.984375 3.074219 25.402344 14.003906 21.207031 C 16.28125 20.332031 18.28125 18.894531 19.734375 16.828125 Z M 19.734375 16.828125 "/>
<path style=" stroke:none;fill-rule:nonzero;fill:rgb(100%,100%,100%);fill-opacity:1;" d="M 14.675781 5.167969 L 12.847656 13.761719 L 12.773438 14.125 L 13.125 14.078125 L 13.90625 13.949219 L 14.074219 13.9375 L 14.125 13.761719 L 14.398438 12.515625 L 14.707031 13.621094 L 14.769531 13.84375 L 14.980469 13.8125 L 15.792969 13.6875 L 16.085938 13.65625 L 15.320312 11.105469 L 17.421875 8.792969 L 16.703125 8.917969 L 15.980469 9.042969 L 15.90625 9.042969 L 15.84375 9.105469 L 14.953125 10.09375 L 15.964844 5.230469 Z M 8.488281 7 L 7.644531 7.136719 L 4.207031 15.707031 L 4.648438 15.613281 L 5.371094 15.488281 L 5.507812 15.457031 L 5.554688 15.332031 L 6.105469 13.894531 L 7.183594 13.738281 L 7.183594 14.863281 L 7.167969 15.160156 L 7.457031 15.113281 L 8.304688 14.972656 L 8.519531 14.941406 L 8.503906 14.722656 Z M 11.914062 9.207031 C 11.859375 9.207031 11.804688 9.210938 11.742188 9.214844 C 10.882812 9.246094 10.097656 9.777344 9.964844 10.402344 C 9.855469 10.902344 9.992188 11.246094 10.53125 11.859375 C 11.097656 12.464844 11.234375 12.730469 11.160156 13.089844 C 11.113281 13.324219 10.730469 13.621094 10.285156 13.6875 C 10.054688 13.714844 9.902344 13.714844 9.761719 13.6875 L 9.609375 13.640625 L 9.515625 13.765625 L 9.148438 14.21875 L 8.886719 14.527344 L 9.285156 14.621094 C 9.535156 14.683594 9.902344 14.683594 10.300781 14.609375 C 11.191406 14.464844 12.25 13.8125 12.4375 13 C 12.605469 12.246094 12.296875 11.777344 11.652344 11.121094 C 11.144531 10.605469 11.175781 10.480469 11.207031 10.386719 C 11.222656 10.277344 11.421875 10.121094 11.695312 10.105469 L 11.699219 10.105469 C 11.945312 10.105469 12.066406 10.121094 12.160156 10.152344 L 12.292969 10.183594 L 12.402344 10.074219 L 12.742188 9.714844 L 13.019531 9.417969 L 12.617188 9.308594 C 12.441406 9.253906 12.28125 9.199219 11.914062 9.207031 Z M 7.320312 10.0625 L 7.152344 12.59375 L 6.445312 12.691406 Z M 7.320312 10.0625 "/>
</g>
</svg>
