
<svg xmlns="http://www.w3.org/2000/svg" xmlns:xlink="http://www.w3.org/1999/xlink" width="22px" height="22px" viewBox="0 0 22 22" version="1.1">
<g id="surface1">
<path style=" stroke:none;fill-rule:nonzero;fill:rgb(58.039216%,0%,82.745098%);fill-opacity:1;" d="M 2.738281 5.378906 C 20.851562 -14.101562 32.261719 26.109375 8.21875 21.675781 C 1.875 19.488281 -3.078125 11.636719 2.738281 5.378906 Z M 2.738281 5.378906 "/>
<path style=" stroke:none;fill-rule:nonzero;fill:rgb(100%,100%,100%);fill-opacity:1;" d="M 5.230469 8.988281 L 14.914062 5.75 C 15.746094 5.46875 16.632812 5.878906 16.894531 6.664062 L 18.621094 11.832031 C 18.882812 12.617188 18.421875 13.476562 17.589844 13.753906 L 7.90625 16.992188 C 7.074219 17.269531 6.1875 16.863281 5.925781 16.078125 L 4.199219 10.910156 C 3.9375 10.125 4.398438 9.265625 5.230469 8.988281 Z M 5.230469 8.988281 "/>
<path style=" stroke:none;fill-rule:nonzero;fill:rgb(84.705882%,74.901961%,84.705882%);fill-opacity:1;" d="M 6.152344 10.113281 C 6.625 9.953125 7.128906 10.1875 7.28125 10.632812 C 7.429688 11.082031 7.167969 11.570312 6.691406 11.730469 C 6.21875 11.886719 5.710938 11.65625 5.5625 11.207031 C 5.414062 10.761719 5.675781 10.269531 6.152344 10.113281 Z M 6.152344 10.113281 "/>
<path style=" stroke:none;fill-rule:nonzero;fill:rgb(84.705882%,74.901961%,84.705882%);fill-opacity:1;" d="M 8.335938 9.382812 C 8.808594 9.222656 9.3125 9.457031 9.464844 9.902344 C 9.613281 10.351562 9.347656 10.839844 8.875 11 C 8.402344 11.160156 7.894531 10.925781 7.746094 10.476562 C 7.597656 10.03125 7.859375 9.539062 8.335938 9.382812 Z M 8.335938 9.382812 "/>
<path style=" stroke:none;fill-rule:nonzero;fill:rgb(84.705882%,74.901961%,84.705882%);fill-opacity:1;" d="M 10.515625 8.652344 C 10.992188 8.492188 11.496094 8.726562 11.644531 9.171875 C 11.796875 9.621094 11.53125 10.109375 11.058594 10.269531 C 10.582031 10.429688 10.078125 10.195312 9.929688 9.75 C 9.78125 9.300781 10.042969 8.8125 10.515625 8.652344 Z M 10.515625 8.652344 "/>
<path style=" stroke:none;fill-rule:nonzero;fill:rgb(84.705882%,74.901961%,84.705882%);fill-opacity:1;" d="M 12.699219 7.921875 C 13.175781 7.761719 13.679688 7.996094 13.828125 8.445312 C 13.980469 8.890625 13.714844 9.378906 13.242188 9.539062 C 12.765625 9.699219 12.261719 9.464844 12.113281 9.019531 C 11.960938 8.570312 12.226562 8.082031 12.699219 7.921875 Z M 12.699219 7.921875 "/>
<path style=" stroke:none;fill-rule:nonzero;fill:rgb(84.705882%,74.901961%,84.705882%);fill-opacity:1;" d="M 14.882812 7.191406 C 15.355469 7.03125 15.863281 7.265625 16.011719 7.714844 C 16.160156 8.160156 15.898438 8.652344 15.421875 8.808594 C 14.949219 8.96875 14.445312 8.734375 14.292969 8.289062 C 14.144531 7.839844 14.410156 7.351562 14.882812 7.191406 Z M 14.882812 7.191406 "/>
<path style=" stroke:none;fill-rule:nonzero;fill:rgb(84.705882%,74.901961%,84.705882%);fill-opacity:1;" d="M 6.820312 12.113281 C 7.292969 11.957031 7.800781 12.1875 7.949219 12.636719 C 8.097656 13.082031 7.835938 13.574219 7.363281 13.730469 C 6.886719 13.890625 6.382812 13.65625 6.230469 13.210938 C 6.082031 12.761719 6.347656 12.273438 6.820312 12.113281 Z M 6.820312 12.113281 "/>
<path style=" stroke:none;fill-rule:nonzero;fill:rgb(84.705882%,74.901961%,84.705882%);fill-opacity:1;" d="M 9.003906 11.382812 C 9.476562 11.226562 9.984375 11.457031 10.132812 11.90625 C 10.28125 12.351562 10.019531 12.84375 9.542969 13 C 9.070312 13.160156 8.566406 12.925781 8.414062 12.480469 C 8.265625 12.03125 8.53125 11.542969 9.003906 11.382812 Z M 9.003906 11.382812 "/>
<path style=" stroke:none;fill-rule:nonzero;fill:rgb(84.705882%,74.901961%,84.705882%);fill-opacity:1;" d="M 11.1875 10.652344 C 11.660156 10.496094 12.164062 10.726562 12.316406 11.175781 C 12.464844 11.621094 12.203125 12.113281 11.726562 12.269531 C 11.253906 12.429688 10.746094 12.195312 10.597656 11.75 C 10.449219 11.300781 10.710938 10.8125 11.1875 10.652344 Z M 11.1875 10.652344 "/>
<path style=" stroke:none;fill-rule:nonzero;fill:rgb(84.705882%,74.901961%,84.705882%);fill-opacity:1;" d="M 13.371094 9.921875 C 13.84375 9.765625 14.347656 9.996094 14.5 10.445312 C 14.648438 10.890625 14.386719 11.382812 13.910156 11.539062 C 13.4375 11.699219 12.929688 11.464844 12.78125 11.019531 C 12.632812 10.574219 12.894531 10.082031 13.371094 9.921875 Z M 13.371094 9.921875 "/>
<path style=" stroke:none;fill-rule:nonzero;fill:rgb(84.705882%,74.901961%,84.705882%);fill-opacity:1;" d="M 15.550781 9.191406 C 16.027344 9.035156 16.53125 9.269531 16.679688 9.714844 C 16.832031 10.160156 16.566406 10.652344 16.09375 10.808594 C 15.617188 10.96875 15.113281 10.734375 14.964844 10.289062 C 14.816406 9.84375 15.078125 9.351562 15.550781 9.191406 Z M 15.550781 9.191406 "/>
<path style=" stroke:none;fill-rule:nonzero;fill:rgb(84.705882%,74.901961%,84.705882%);fill-opacity:1;" d="M 7.601562 14.445312 C 8.074219 14.285156 8.578125 14.519531 8.730469 14.964844 C 8.878906 15.410156 8.613281 15.902344 8.140625 16.0625 C 7.667969 16.21875 7.160156 15.984375 7.011719 15.539062 C 6.863281 15.09375 7.125 14.601562 7.601562 14.445312 Z M 7.601562 14.445312 "/>
<path style=" stroke:none;fill-rule:nonzero;fill:rgb(84.705882%,74.901961%,84.705882%);fill-opacity:1;" d="M 9.808594 13.726562 L 14.15625 12.273438 C 14.628906 12.113281 15.128906 12.332031 15.273438 12.757812 L 15.289062 12.808594 C 15.433594 13.238281 15.164062 13.710938 14.691406 13.871094 L 10.34375 15.324219 C 9.871094 15.484375 9.371094 15.265625 9.226562 14.835938 L 9.210938 14.789062 C 9.066406 14.359375 9.335938 13.882812 9.808594 13.726562 Z M 9.808594 13.726562 "/>
<path style=" stroke:none;fill-rule:nonzero;fill:rgb(84.705882%,74.901961%,84.705882%);fill-opacity:1;" d="M 16.332031 11.523438 C 16.804688 11.363281 17.3125 11.597656 17.460938 12.042969 C 17.609375 12.492188 17.347656 12.980469 16.871094 13.140625 C 16.398438 13.296875 15.894531 13.066406 15.742188 12.617188 C 15.59375 12.171875 15.855469 11.679688 16.332031 11.523438 Z M 16.332031 11.523438 "/>
<path style="fill-rule:evenodd;fill:rgb(58.039216%,0%,82.745098%);fill-opacity:1;stroke-width:1.058867;stroke-linecap:butt;stroke-linejoin:miter;stroke:rgb(100%,27.058824%,0%);stroke-opacity:0.0117647;stroke-miterlimit:4;" d="M 131.584274 39.190896 C 139.313602 39.187356 145.589924 41.286551 145.572023 43.848121 L 145.609352 185.682791 C 145.591451 188.244361 139.320099 190.30126 131.590771 190.3048 C 123.816031 190.31695 117.539709 188.217754 117.55761 185.656184 L 117.565693 43.812905 C 117.538182 41.259944 123.809534 39.203045 131.584274 39.190896 Z M 131.584274 39.190896 " transform="matrix(0.0843946,0.0162113,-0.00855988,0.0855101,0,0)"/>
</g>
</svg>
