
<svg xmlns="http://www.w3.org/2000/svg" xmlns:xlink="http://www.w3.org/1999/xlink" width="22px" height="22px" viewBox="0 0 22 22" version="1.1">
<g id="surface1">
<path style=" stroke:none;fill-rule:nonzero;fill:rgb(18.431373%,30.980392%,30.980392%);fill-opacity:1;" d="M 3.851562 18.808594 C -13.492188 -4.082031 34.238281 -7.335938 18.921875 16.03125 C 15.429688 21.359375 8.445312 24.871094 3.851562 18.808594 Z M 3.851562 18.808594 "/>
<path style="fill-rule:nonzero;fill:rgb(100%,100%,100%);fill-opacity:1;stroke-width:0.383;stroke-linecap:butt;stroke-linejoin:miter;stroke:rgb(0%,0%,0%);stroke-opacity:1;stroke-miterlimit:4;" d="M 163.795961 177.132301 L 129.697756 161.122132 L 95.252617 145.955168 L 126.136391 124.410729 L 156.533683 102.147041 L 159.699018 139.685143 Z M 163.795961 177.132301 " transform="matrix(0.0698958,-0.0259957,0.0287584,0.077324,-1.577861,6.850476)"/>
<path style=" stroke:none;fill-rule:nonzero;fill:rgb(100%,98.039216%,98.039216%);fill-opacity:1;" d="M 10.574219 2.304688 C 10.558594 2.304688 10.546875 2.304688 10.535156 2.308594 C 10.398438 2.3125 10.269531 2.390625 10.199219 2.503906 L 8.253906 5.84375 L 6.304688 9.179688 C 6.234375 9.300781 6.234375 9.460938 6.308594 9.582031 C 6.378906 9.707031 6.519531 9.789062 6.664062 9.789062 L 8.84375 9.804688 L 8.871094 17.425781 C 8.871094 17.9375 9.203125 18.351562 9.613281 18.351562 L 11.601562 18.371094 C 12.011719 18.371094 12.34375 17.964844 12.339844 17.457031 L 12.316406 9.832031 L 14.496094 9.851562 C 14.640625 9.851562 14.78125 9.773438 14.851562 9.652344 C 14.921875 9.53125 14.921875 9.367188 14.851562 9.246094 L 12.878906 5.878906 L 10.914062 2.511719 C 10.84375 2.390625 10.710938 2.3125 10.574219 2.304688 Z M 10.574219 2.304688 "/>
<path style=" stroke:none;fill-rule:nonzero;fill:rgb(100%,98.039216%,98.039216%);fill-opacity:1;" d="M 10.574219 2.304688 C 10.558594 2.304688 10.546875 2.304688 10.535156 2.308594 C 10.398438 2.3125 10.269531 2.390625 10.199219 2.507812 L 8.253906 5.84375 L 6.304688 9.179688 C 6.234375 9.304688 6.234375 9.460938 6.308594 9.582031 C 6.378906 9.707031 6.519531 9.785156 6.664062 9.789062 L 8.84375 9.804688 L 8.871094 17.429688 C 8.871094 17.9375 9.203125 18.351562 9.613281 18.355469 L 10.632812 18.363281 L 10.578125 2.304688 C 10.578125 2.304688 10.574219 2.304688 10.574219 2.304688 Z M 10.574219 2.304688 "/>
</g>
</svg>
