
<svg xmlns="http://www.w3.org/2000/svg" xmlns:xlink="http://www.w3.org/1999/xlink" width="22px" height="22px" viewBox="0 0 22 22" version="1.1">
<g id="surface1">
<path style=" stroke:none;fill-rule:nonzero;fill:rgb(86.27451%,86.27451%,86.27451%);fill-opacity:1;" d="M 0.550781 13.511719 C 4.777344 33.753906 33.859375 12.023438 16.390625 1.734375 C 9.601562 -2.675781 -1.625 3.101562 0.550781 13.511719 Z M 0.550781 13.511719 "/>
<path style=" stroke:none;fill-rule:nonzero;fill:rgb(75.294118%,75.294118%,75.294118%);fill-opacity:1;" d="M 11.035156 15.597656 C 13.453125 15.597656 15.414062 13.578125 15.414062 11.089844 C 15.414062 8.601562 13.453125 6.585938 11.035156 6.585938 C 8.617188 6.585938 6.65625 8.601562 6.65625 11.089844 C 6.65625 13.578125 8.617188 15.597656 11.035156 15.597656 Z M 11.035156 15.597656 "/>
<path style=" stroke:none;fill-rule:nonzero;fill:rgb(75.294118%,75.294118%,75.294118%);fill-opacity:1;" d="M 4.167969 10.125 C 4.21875 10.003906 4.359375 9.875 4.496094 9.816406 C 4.566406 9.789062 4.835938 9.757812 5.273438 9.734375 C 5.640625 9.710938 5.96875 9.683594 6.003906 9.667969 C 6.050781 9.652344 6.097656 9.566406 6.167969 9.355469 C 6.226562 9.195312 6.324219 8.960938 6.390625 8.824219 C 6.460938 8.691406 6.511719 8.550781 6.511719 8.515625 C 6.511719 8.476562 6.335938 8.257812 6.054688 7.949219 C 5.800781 7.667969 5.566406 7.394531 5.542969 7.34375 C 5.480469 7.226562 5.472656 6.972656 5.519531 6.84375 C 5.5625 6.738281 6.644531 5.632812 6.777344 5.5625 C 6.910156 5.492188 7.15625 5.5 7.304688 5.578125 C 7.375 5.613281 7.648438 5.847656 7.921875 6.097656 C 8.210938 6.367188 8.433594 6.550781 8.472656 6.550781 C 8.507812 6.550781 8.640625 6.496094 8.777344 6.429688 C 8.910156 6.363281 9.148438 6.261719 9.304688 6.207031 C 9.460938 6.152344 9.601562 6.082031 9.617188 6.058594 C 9.628906 6.027344 9.660156 5.703125 9.679688 5.335938 C 9.703125 4.90625 9.734375 4.617188 9.761719 4.53125 C 9.820312 4.375 10.011719 4.191406 10.152344 4.164062 C 10.210938 4.152344 10.628906 4.148438 11.085938 4.15625 L 11.910156 4.164062 L 12.03125 4.261719 C 12.242188 4.429688 12.261719 4.507812 12.3125 5.316406 C 12.339844 5.773438 12.371094 6.050781 12.394531 6.074219 C 12.414062 6.09375 12.570312 6.164062 12.742188 6.226562 C 12.914062 6.289062 13.144531 6.386719 13.257812 6.445312 C 13.375 6.503906 13.492188 6.550781 13.523438 6.550781 C 13.554688 6.550781 13.789062 6.359375 14.042969 6.125 C 14.300781 5.894531 14.550781 5.671875 14.601562 5.628906 C 14.75 5.519531 14.929688 5.480469 15.105469 5.527344 C 15.242188 5.558594 15.3125 5.621094 15.824219 6.128906 C 16.136719 6.4375 16.421875 6.746094 16.453125 6.808594 C 16.53125 6.957031 16.53125 7.191406 16.457031 7.335938 C 16.425781 7.398438 16.199219 7.671875 15.953125 7.941406 C 15.707031 8.207031 15.492188 8.445312 15.480469 8.46875 C 15.46875 8.492188 15.519531 8.636719 15.601562 8.816406 C 15.683594 8.980469 15.785156 9.234375 15.832031 9.371094 C 15.894531 9.5625 15.933594 9.632812 15.988281 9.660156 C 16.027344 9.679688 16.363281 9.710938 16.730469 9.734375 C 17.4375 9.773438 17.550781 9.796875 17.703125 9.945312 C 17.871094 10.105469 17.882812 10.199219 17.875 11.109375 L 17.863281 11.9375 L 17.777344 12.070312 C 17.632812 12.289062 17.539062 12.316406 16.753906 12.371094 C 16.375 12.398438 16.03125 12.421875 15.996094 12.433594 C 15.945312 12.445312 15.910156 12.511719 15.832031 12.734375 C 15.777344 12.890625 15.671875 13.144531 15.59375 13.296875 C 15.519531 13.449219 15.457031 13.582031 15.457031 13.597656 C 15.457031 13.613281 15.667969 13.855469 15.925781 14.136719 C 16.183594 14.417969 16.417969 14.699219 16.453125 14.765625 C 16.53125 14.914062 16.53125 15.140625 16.453125 15.304688 C 16.414062 15.382812 16.175781 15.648438 15.835938 15.980469 C 15.261719 16.554688 15.195312 16.597656 14.9375 16.597656 C 14.753906 16.597656 14.632812 16.515625 14.09375 16.023438 C 13.800781 15.757812 13.550781 15.539062 13.535156 15.539062 C 13.519531 15.539062 13.363281 15.609375 13.1875 15.691406 C 13.007812 15.777344 12.761719 15.878906 12.632812 15.921875 C 12.480469 15.96875 12.398438 16.007812 12.378906 16.050781 C 12.367188 16.085938 12.332031 16.433594 12.3125 16.820312 C 12.261719 17.589844 12.230469 17.710938 12.050781 17.839844 C 11.878906 17.960938 11.75 17.976562 10.917969 17.964844 L 10.121094 17.957031 L 9.988281 17.863281 C 9.75 17.695312 9.738281 17.652344 9.683594 16.800781 C 9.65625 16.382812 9.625 16.035156 9.617188 16.027344 C 9.609375 16.015625 9.476562 15.964844 9.324219 15.910156 C 9.171875 15.855469 8.921875 15.75 8.769531 15.671875 C 8.617188 15.597656 8.476562 15.539062 8.453125 15.542969 C 8.429688 15.550781 8.191406 15.757812 7.921875 16.007812 C 7.652344 16.253906 7.367188 16.488281 7.292969 16.527344 C 7.132812 16.609375 6.960938 16.617188 6.800781 16.550781 C 6.660156 16.492188 5.632812 15.476562 5.546875 15.3125 C 5.476562 15.175781 5.46875 14.925781 5.53125 14.78125 C 5.558594 14.726562 5.785156 14.449219 6.042969 14.164062 C 6.300781 13.882812 6.511719 13.628906 6.511719 13.601562 C 6.511719 13.574219 6.449219 13.414062 6.371094 13.246094 C 6.292969 13.078125 6.195312 12.828125 6.148438 12.695312 C 6.089844 12.503906 6.054688 12.441406 6.003906 12.433594 C 5.96875 12.421875 5.628906 12.398438 5.246094 12.371094 C 4.410156 12.3125 4.320312 12.28125 4.171875 11.988281 C 4.128906 11.90625 4.125 11.765625 4.125 11.054688 C 4.125 10.425781 4.136719 10.195312 4.167969 10.125 Z M 7.882812 11.355469 C 7.960938 12.113281 8.257812 12.742188 8.792969 13.277344 C 9.199219 13.6875 9.660156 13.949219 10.234375 14.109375 C 10.59375 14.210938 11.394531 14.207031 11.757812 14.109375 C 12.867188 13.804688 13.6875 13.007812 14.015625 11.902344 C 14.09375 11.644531 14.101562 11.578125 14.105469 11.078125 C 14.105469 10.597656 14.097656 10.496094 14.035156 10.265625 C 13.71875 9.105469 12.789062 8.214844 11.636719 7.972656 C 10.601562 7.753906 9.542969 8.074219 8.785156 8.832031 C 8.386719 9.230469 8.097656 9.746094 7.953125 10.304688 C 7.910156 10.464844 7.878906 10.691406 7.855469 11.015625 C 7.851562 11.039062 7.863281 11.195312 7.882812 11.355469 Z M 9.183594 10.582031 C 9.398438 9.789062 10.070312 9.230469 10.878906 9.179688 C 11.445312 9.148438 11.921875 9.328125 12.320312 9.734375 C 13.050781 10.464844 13.054688 11.640625 12.335938 12.363281 C 11.746094 12.960938 10.902344 13.105469 10.164062 12.734375 C 9.535156 12.417969 9.160156 11.835938 9.132812 11.125 C 9.125 10.878906 9.136719 10.761719 9.183594 10.582031 Z M 9.96875 11.472656 C 10.046875 11.691406 10.289062 11.957031 10.511719 12.066406 C 10.671875 12.144531 10.878906 12.175781 11.046875 12.179688 C 11.175781 12.179688 11.320312 12.148438 11.507812 12.046875 C 11.882812 11.839844 12.074219 11.539062 12.09375 11.109375 C 12.113281 10.761719 12.039062 10.554688 11.816406 10.308594 C 11.527344 9.992188 11.128906 9.863281 10.734375 9.96875 C 10.394531 10.054688 10.160156 10.242188 10.003906 10.554688 C 9.855469 10.847656 9.84375 11.144531 9.96875 11.472656 Z M 9.96875 11.472656 "/>
<path style=" stroke:none;fill-rule:evenodd;fill:rgb(17.647059%,26.666667%,32.54902%);fill-opacity:1;" d="M 14.5625 13.257812 C 14.5625 13.480469 14.335938 13.664062 14.054688 13.664062 L 7.660156 13.664062 C 7.378906 13.664062 7.152344 13.480469 7.152344 13.257812 C 7.152344 13.035156 7.378906 12.851562 7.660156 12.851562 L 14.054688 12.851562 C 14.335938 12.851562 14.5625 13.035156 14.5625 13.257812 Z M 14.5625 13.257812 "/>
<path style=" stroke:none;fill-rule:nonzero;fill:rgb(90.196078%,90.588235%,90.980392%);fill-opacity:1;" d="M 12.523438 14.351562 C 13.101562 14.351562 13.570312 13.882812 13.570312 13.304688 C 13.570312 12.726562 13.101562 12.257812 12.523438 12.257812 C 11.949219 12.257812 11.484375 12.726562 11.484375 13.304688 C 11.484375 13.882812 11.949219 14.351562 12.523438 14.351562 Z M 12.523438 14.351562 "/>
<path style=" stroke:none;fill-rule:evenodd;fill:rgb(17.647059%,26.666667%,32.54902%);fill-opacity:1;" d="M 14.5625 11.078125 C 14.5625 11.300781 14.335938 11.484375 14.054688 11.484375 L 7.660156 11.484375 C 7.378906 11.484375 7.152344 11.300781 7.152344 11.078125 C 7.152344 10.855469 7.378906 10.675781 7.660156 10.675781 L 14.054688 10.675781 C 14.335938 10.675781 14.5625 10.855469 14.5625 11.078125 Z M 14.5625 11.078125 "/>
<path style=" stroke:none;fill-rule:nonzero;fill:rgb(90.196078%,90.588235%,90.980392%);fill-opacity:1;" d="M 10.25 12.109375 C 10.824219 12.109375 11.289062 11.640625 11.289062 11.0625 C 11.289062 10.484375 10.824219 10.015625 10.25 10.015625 C 9.671875 10.015625 9.207031 10.484375 9.207031 11.0625 C 9.207031 11.640625 9.671875 12.109375 10.25 12.109375 Z M 10.25 12.109375 "/>
<path style=" stroke:none;fill-rule:evenodd;fill:rgb(17.647059%,26.666667%,32.54902%);fill-opacity:1;" d="M 14.5625 8.894531 C 14.5625 9.117188 14.335938 9.300781 14.054688 9.300781 L 7.660156 9.300781 C 7.378906 9.300781 7.152344 9.117188 7.152344 8.894531 C 7.152344 8.671875 7.378906 8.488281 7.660156 8.488281 L 14.054688 8.488281 C 14.335938 8.488281 14.5625 8.671875 14.5625 8.894531 Z M 14.5625 8.894531 "/>
<path style=" stroke:none;fill-rule:nonzero;fill:rgb(90.196078%,90.588235%,90.980392%);fill-opacity:1;" d="M 13.183594 9.925781 C 13.757812 9.925781 14.222656 9.457031 14.222656 8.878906 C 14.222656 8.300781 13.757812 7.832031 13.183594 7.832031 C 12.605469 7.832031 12.140625 8.300781 12.140625 8.878906 C 12.140625 9.457031 12.605469 9.925781 13.183594 9.925781 Z M 13.183594 9.925781 "/>
<path style=" stroke:none;fill-rule:nonzero;fill:rgb(52.941176%,80.784314%,98.039216%);fill-opacity:1;" d="M 13.179688 9.679688 C 13.621094 9.679688 13.976562 9.320312 13.976562 8.875 C 13.976562 8.433594 13.621094 8.074219 13.179688 8.074219 C 12.738281 8.074219 12.378906 8.433594 12.378906 8.875 C 12.378906 9.320312 12.738281 9.679688 13.179688 9.679688 Z M 13.179688 9.679688 "/>
<path style=" stroke:none;fill-rule:nonzero;fill:rgb(52.941176%,80.784314%,98.039216%);fill-opacity:1;" d="M 10.246094 11.863281 C 10.683594 11.863281 11.042969 11.503906 11.042969 11.0625 C 11.042969 10.617188 10.683594 10.257812 10.246094 10.257812 C 9.804688 10.257812 9.445312 10.617188 9.445312 11.0625 C 9.445312 11.503906 9.804688 11.863281 10.246094 11.863281 Z M 10.246094 11.863281 "/>
<path style=" stroke:none;fill-rule:nonzero;fill:rgb(52.941176%,80.784314%,98.039216%);fill-opacity:1;" d="M 12.519531 14.097656 C 12.960938 14.097656 13.316406 13.742188 13.316406 13.296875 C 13.316406 12.855469 12.960938 12.496094 12.519531 12.496094 C 12.078125 12.496094 11.722656 12.855469 11.722656 13.296875 C 11.722656 13.742188 12.078125 14.097656 12.519531 14.097656 Z M 12.519531 14.097656 "/>
</g>
</svg>
