
<svg xmlns="http://www.w3.org/2000/svg" xmlns:xlink="http://www.w3.org/1999/xlink" width="22px" height="22px" viewBox="0 0 22 22" version="1.1">
<g id="surface1">
<path style=" stroke:none;fill-rule:nonzero;fill:rgb(100%,0%,0%);fill-opacity:1;" d="M 16.964844 4.722656 C 17.4375 5 17.917969 5.660156 17.855469 6.519531 C 17.878906 9.683594 17.878906 12.847656 17.832031 16.007812 C 17.84375 16.789062 17.382812 17.457031 16.910156 17.5625 C 13.128906 17.640625 9.34375 17.601562 5.5625 17.617188 C 5.027344 17.367188 4.570312 16.582031 4.617188 15.671875 C 4.574219 12.5 4.605469 9.324219 4.597656 6.152344 C 4.761719 5.46875 5.128906 4.832031 5.601562 4.707031 C 9.390625 4.71875 13.179688 4.691406 16.964844 4.722656 Z M 16.964844 4.722656 "/>
<path style=" stroke:none;fill-rule:nonzero;fill:rgb(52.156863%,0%,0%);fill-opacity:1;" d="M 12.351562 21.9375 C 13.878906 21.71875 14.78125 21.464844 15.824219 20.96875 C 17.945312 19.953125 19.558594 18.3125 20.46875 16.238281 C 21.050781 14.917969 21.628906 12.515625 21.820312 10.644531 C 21.914062 9.734375 21.867188 7.773438 21.738281 7.070312 C 21.238281 4.390625 19.859375 2.4375 17.667969 1.308594 C 16.261719 0.585938 14.8125 0.261719 12.988281 0.261719 C 10.734375 0.257812 8.613281 0.765625 6.484375 1.8125 C 3.242188 3.410156 1.117188 5.855469 0.460938 8.746094 C 0.269531 9.597656 0.265625 11.082031 0.457031 11.976562 C 0.964844 14.375 2.328125 16.628906 4.695312 18.992188 C 5.863281 20.15625 6.417969 20.597656 7.265625 21.03125 C 8.496094 21.65625 9.550781 21.90625 11.109375 21.941406 C 11.691406 21.957031 12.25 21.953125 12.351562 21.9375 Z M 9.578125 15.371094 C 9.085938 14.515625 8.691406 13.804688 8.703125 13.796875 C 8.777344 13.730469 14.625 10.355469 14.667969 10.355469 C 14.71875 10.355469 16.523438 13.457031 16.484375 13.484375 C 16.476562 13.492188 16.351562 13.566406 16.207031 13.640625 L 15.953125 13.785156 L 15.421875 13.402344 L 15.449219 13.664062 C 15.46875 13.8125 15.457031 13.976562 15.425781 14.03125 C 15.367188 14.136719 12.28125 15.953125 12.160156 15.953125 C 12.117188 15.953125 11.96875 15.800781 11.832031 15.617188 C 11.691406 15.433594 11.570312 15.292969 11.558594 15.304688 C 11.542969 15.316406 11.605469 15.480469 11.691406 15.671875 C 11.777344 15.859375 11.835938 16.054688 11.828125 16.105469 C 11.808594 16.191406 10.671875 16.910156 10.535156 16.921875 C 10.503906 16.925781 10.070312 16.226562 9.578125 15.371094 Z M 8.125 12.847656 C 7.785156 12.261719 7.757812 12.183594 7.757812 11.847656 C 7.757812 11.324219 7.863281 11.203125 8.851562 10.632812 C 9.3125 10.371094 9.699219 10.148438 9.710938 10.140625 C 9.71875 10.132812 9.238281 9.414062 8.640625 8.542969 C 8.042969 7.671875 7.507812 6.875 7.453125 6.765625 C 7.382812 6.628906 7.359375 6.472656 7.375 6.273438 C 7.460938 5.402344 8.585938 4.992188 9.160156 5.625 C 9.238281 5.707031 9.675781 6.578125 10.140625 7.5625 C 10.605469 8.546875 11.015625 9.34375 11.050781 9.335938 C 11.085938 9.328125 11.476562 9.109375 11.917969 8.851562 C 12.632812 8.433594 12.746094 8.386719 13.03125 8.382812 C 13.414062 8.382812 13.597656 8.503906 13.894531 8.945312 C 14.21875 9.425781 14.539062 10.066406 14.46875 10.09375 C 14.4375 10.109375 13.101562 10.882812 11.503906 11.816406 C 9.910156 12.75 8.578125 13.507812 8.550781 13.5 C 8.519531 13.492188 8.328125 13.199219 8.125 12.847656 Z M 8.125 12.847656 "/>
<path style=" stroke:none;fill-rule:nonzero;fill:rgb(54.509804%,0%,0%);fill-opacity:1;" d="M 11.242188 16.699219 C 11.582031 16.5 11.859375 16.3125 11.859375 16.28125 C 11.859375 16.253906 11.777344 16.046875 11.679688 15.820312 C 11.363281 15.109375 11.472656 15.078125 11.933594 15.742188 C 12.070312 15.9375 12.203125 16.09375 12.234375 16.09375 C 12.332031 16.09375 15.335938 14.328125 15.417969 14.222656 C 15.476562 14.148438 15.488281 14.015625 15.460938 13.761719 L 15.421875 13.402344 L 15.707031 13.652344 C 15.863281 13.792969 16.007812 13.90625 16.027344 13.90625 C 16.097656 13.90625 16.457031 13.664062 16.457031 13.617188 C 16.457031 13.59375 16.074219 12.914062 15.613281 12.113281 C 15.09375 11.214844 14.742188 10.660156 14.691406 10.671875 C 14.648438 10.683594 13.328125 11.433594 11.753906 12.34375 C 9.625 13.574219 8.902344 14.023438 8.917969 14.09375 C 8.941406 14.1875 10.503906 16.933594 10.582031 17.019531 C 10.605469 17.046875 10.902344 16.902344 11.242188 16.699219 Z M 11.242188 16.699219 "/>
<path style=" stroke:none;fill-rule:nonzero;fill:rgb(18.431373%,0%,0%);fill-opacity:1;" d="M 13.066406 21.742188 C 14.890625 21.390625 16.46875 20.6875 17.738281 19.671875 C 18.609375 18.96875 19.519531 17.898438 20.054688 16.941406 C 20.757812 15.671875 21.359375 13.59375 21.703125 11.234375 C 21.820312 10.4375 21.828125 10.160156 21.804688 8.8125 C 21.769531 7.1875 21.726562 6.882812 21.390625 5.820312 C 20.460938 2.90625 18.324219 1.074219 15.0625 0.40625 C 14.632812 0.320312 14.234375 0.300781 12.960938 0.300781 C 11.582031 0.300781 11.289062 0.316406 10.601562 0.441406 C 6.910156 1.109375 3.503906 3.164062 1.777344 5.773438 C -0.726562 9.554688 0.0703125 13.875 4.082031 18.234375 C 4.871094 19.089844 5.839844 19.992188 6.425781 20.417969 C 6.914062 20.765625 7.996094 21.304688 8.59375 21.488281 C 9.324219 21.714844 10.015625 21.804688 11.265625 21.832031 C 12.285156 21.855469 12.570312 21.839844 13.066406 21.742188 Z M 10.433594 16.769531 C 10.128906 16.421875 8.660156 13.78125 8.734375 13.710938 C 8.871094 13.574219 14.5625 10.304688 14.664062 10.304688 C 14.753906 10.304688 16.496094 13.261719 16.496094 13.421875 C 16.5 13.445312 16.375 13.535156 16.222656 13.625 L 15.953125 13.785156 L 15.746094 13.625 C 15.632812 13.539062 15.523438 13.46875 15.507812 13.46875 C 15.492188 13.46875 15.46875 13.597656 15.457031 13.75 L 15.441406 14.035156 L 14.351562 14.695312 C 13.75 15.054688 13.011719 15.480469 12.707031 15.640625 L 12.152344 15.933594 L 11.925781 15.71875 C 11.765625 15.566406 11.714844 15.539062 11.746094 15.628906 C 11.902344 16.070312 11.859375 16.136719 11.117188 16.597656 C 10.613281 16.90625 10.570312 16.917969 10.4375 16.769531 Z M 8.3125 13.148438 C 7.890625 12.484375 7.726562 12.113281 7.726562 11.808594 C 7.726562 11.269531 7.863281 11.125 8.980469 10.476562 L 9.65625 10.082031 L 8.511719 8.355469 C 7.464844 6.78125 7.367188 6.605469 7.367188 6.367188 C 7.367188 6.015625 7.484375 5.75 7.746094 5.515625 C 7.988281 5.304688 8.277344 5.222656 8.636719 5.273438 C 9.082031 5.332031 9.152344 5.433594 10.097656 7.34375 C 10.585938 8.332031 11.015625 9.152344 11.046875 9.175781 C 11.082031 9.195312 11.472656 9.015625 11.914062 8.769531 C 12.636719 8.371094 12.75 8.328125 13.050781 8.328125 C 13.289062 8.328125 13.429688 8.363281 13.542969 8.449219 C 13.832031 8.664062 14.546875 9.859375 14.484375 10.019531 C 14.453125 10.097656 14.128906 10.289062 10.757812 12.234375 C 9.582031 12.914062 8.59375 13.46875 8.5625 13.46875 C 8.535156 13.46875 8.421875 13.324219 8.3125 13.148438 Z M 8.3125 13.148438 "/>
<path style=" stroke:none;fill-rule:nonzero;fill:rgb(52.156863%,0%,0%);fill-opacity:1;" d="M 8.777344 6.980469 C 9.078125 6.816406 9.152344 6.480469 8.964844 6.160156 C 8.742188 5.777344 8.25 5.78125 7.992188 6.164062 C 7.8125 6.429688 7.847656 6.675781 8.101562 6.90625 C 8.304688 7.09375 8.523438 7.117188 8.777344 6.980469 Z M 8.777344 6.980469 "/>
</g>
</svg>
