
<svg xmlns="http://www.w3.org/2000/svg" xmlns:xlink="http://www.w3.org/1999/xlink" width="22px" height="22px" viewBox="0 0 22 22" version="1.1">
<defs>
<linearGradient id="linear0" gradientUnits="userSpaceOnUse" x1="0" y1="542.8" x2="0" y2="507.8" gradientTransform="matrix(0.286547,0,0,0.277988,-106.402675,-134.701121)">
<stop offset="0" style="stop-color:rgb(18.039216%,20.392157%,21.176471%);stop-opacity:1;"/>
<stop offset="1" style="stop-color:rgb(33.333333%,34.117647%,32.54902%);stop-opacity:1;"/>
</linearGradient>
</defs>
<g id="surface1">
<path style=" stroke:none;fill-rule:nonzero;fill:rgb(43.921569%,50.196078%,56.470588%);fill-opacity:1;" d="M 17.464844 2.148438 C 0.925781 -8.851562 -9.261719 26.214844 12.117188 21.574219 C 20.957031 19.59375 26.320312 7.191406 17.464844 2.148438 Z M 17.464844 2.148438 "/>
<path style=" stroke:none;fill-rule:nonzero;fill:url(#linear0);" d="M 4.816406 6.460938 L 16.527344 6.460938 C 16.773438 6.460938 16.972656 6.660156 16.972656 6.90625 L 16.972656 15.46875 C 16.972656 15.714844 16.773438 15.914062 16.527344 15.914062 L 4.816406 15.914062 C 4.570312 15.914062 4.367188 15.714844 4.367188 15.46875 L 4.367188 6.90625 C 4.367188 6.660156 4.570312 6.460938 4.816406 6.460938 Z M 4.816406 6.460938 "/>
<path style=" stroke:none;fill-rule:nonzero;fill:rgb(100%,100%,100%);fill-opacity:1;" d="M 16.507812 7.453125 C 16.507812 7.734375 16.28125 7.960938 16 7.960938 C 15.714844 7.960938 15.488281 7.734375 15.488281 7.453125 C 15.488281 7.175781 15.714844 6.945312 16 6.945312 C 16.28125 6.945312 16.507812 7.175781 16.507812 7.453125 Z M 16.507812 7.453125 "/>
<path style=" stroke:none;fill-rule:nonzero;fill:rgb(100%,100%,100%);fill-opacity:1;" d="M 15.253906 7.460938 C 15.253906 7.742188 15.027344 7.96875 14.742188 7.96875 C 14.460938 7.96875 14.234375 7.742188 14.234375 7.460938 C 14.234375 7.183594 14.460938 6.957031 14.742188 6.957031 C 15.027344 6.957031 15.253906 7.183594 15.253906 7.460938 Z M 15.253906 7.460938 "/>
<path style=" stroke:none;fill-rule:nonzero;fill:rgb(100%,100%,100%);fill-opacity:1;" d="M 14.023438 7.476562 C 14.023438 7.757812 13.792969 7.984375 13.511719 7.984375 C 13.230469 7.984375 13 7.757812 13 7.476562 C 13 7.195312 13.230469 6.96875 13.511719 6.96875 C 13.792969 6.96875 14.023438 7.195312 14.023438 7.476562 Z M 14.023438 7.476562 "/>
<path style=" stroke:none;fill-rule:nonzero;fill:rgb(93.72549%,94.117647%,94.509804%);fill-opacity:1;" d="M 8.355469 13.675781 C 8.355469 14.136719 7.980469 14.507812 7.515625 14.507812 C 7.050781 14.507812 6.679688 14.136719 6.679688 13.675781 C 6.679688 13.214844 7.050781 12.84375 7.515625 12.84375 C 7.980469 12.84375 8.355469 13.214844 8.355469 13.675781 Z M 8.355469 13.675781 "/>
<path style=" stroke:none;fill-rule:nonzero;fill:rgb(23.921569%,68.235294%,99.215686%);fill-opacity:1;" d="M 8.117188 13.675781 C 8.117188 14.003906 7.847656 14.269531 7.515625 14.269531 C 7.183594 14.269531 6.917969 14.003906 6.917969 13.675781 C 6.917969 13.347656 7.183594 13.082031 7.515625 13.082031 C 7.847656 13.082031 8.117188 13.347656 8.117188 13.675781 Z M 8.117188 13.675781 "/>
<path style=" stroke:none;fill-rule:nonzero;fill:rgb(93.72549%,94.117647%,94.509804%);fill-opacity:1;" d="M 8.355469 11.535156 C 8.355469 11.992188 7.980469 12.367188 7.515625 12.367188 C 7.050781 12.367188 6.679688 11.992188 6.679688 11.535156 C 6.679688 11.070312 7.050781 10.699219 7.515625 10.699219 C 7.980469 10.699219 8.355469 11.070312 8.355469 11.535156 Z M 8.355469 11.535156 "/>
<path style=" stroke:none;fill-rule:nonzero;fill:rgb(23.921569%,68.235294%,99.215686%);fill-opacity:1;" d="M 8.117188 11.535156 C 8.117188 11.859375 7.847656 12.128906 7.515625 12.128906 C 7.183594 12.128906 6.917969 11.859375 6.917969 11.535156 C 6.917969 11.203125 7.183594 10.9375 7.515625 10.9375 C 7.847656 10.9375 8.117188 11.203125 8.117188 11.535156 Z M 8.117188 11.535156 "/>
<path style=" stroke:none;fill-rule:nonzero;fill:rgb(85.490196%,26.666667%,32.54902%);fill-opacity:1;" d="M 8.59375 9.03125 L 9.074219 9.03125 L 9.074219 9.269531 L 8.59375 9.269531 Z M 8.59375 9.03125 "/>
<path style=" stroke:none;fill-rule:nonzero;fill:rgb(85.490196%,26.666667%,32.54902%);fill-opacity:1;" d="M 9.3125 9.03125 L 10.03125 9.03125 L 10.03125 9.269531 L 9.3125 9.269531 Z M 9.3125 9.03125 "/>
<path style=" stroke:none;fill-rule:nonzero;fill:rgb(89.803922%,99.215686%,100%);fill-opacity:1;" d="M 10.75 9.03125 L 11.472656 9.03125 L 11.472656 9.269531 L 10.75 9.269531 Z M 10.75 9.03125 "/>
<path style=" stroke:none;fill-rule:nonzero;fill:rgb(89.803922%,99.215686%,100%);fill-opacity:1;" d="M 11.949219 9.03125 L 13.386719 9.03125 L 13.386719 9.269531 L 11.949219 9.269531 Z M 11.949219 9.03125 "/>
<path style=" stroke:none;fill-rule:nonzero;fill:rgb(89.803922%,99.215686%,100%);fill-opacity:1;" d="M 13.628906 9.03125 L 14.585938 9.03125 L 14.585938 9.269531 L 13.628906 9.269531 Z M 13.628906 9.03125 "/>
<path style=" stroke:none;fill-rule:nonzero;fill:rgb(74.117647%,76.470588%,78.039216%);fill-opacity:1;" d="M 8.59375 9.507812 L 9.554688 9.507812 L 9.554688 9.746094 L 8.59375 9.746094 Z M 8.59375 9.507812 "/>
<path style=" stroke:none;fill-rule:nonzero;fill:rgb(74.117647%,76.470588%,78.039216%);fill-opacity:1;" d="M 9.792969 9.507812 L 10.273438 9.507812 L 10.273438 9.746094 L 9.792969 9.746094 Z M 9.792969 9.507812 "/>
<path style=" stroke:none;fill-rule:nonzero;fill:rgb(89.803922%,99.215686%,100%);fill-opacity:1;" d="M 10.75 9.507812 L 12.667969 9.507812 L 12.667969 9.746094 L 10.75 9.746094 Z M 10.75 9.507812 "/>
<path style=" stroke:none;fill-rule:nonzero;fill:rgb(23.921569%,68.235294%,99.215686%);fill-opacity:1;" d="M 8.59375 11.175781 L 9.074219 11.175781 L 9.074219 11.414062 L 8.59375 11.414062 Z M 8.59375 11.175781 "/>
<path style=" stroke:none;fill-rule:nonzero;fill:rgb(23.921569%,68.235294%,99.215686%);fill-opacity:1;" d="M 9.3125 11.175781 L 10.03125 11.175781 L 10.03125 11.414062 L 9.3125 11.414062 Z M 9.3125 11.175781 "/>
<path style=" stroke:none;fill-rule:nonzero;fill:rgb(89.803922%,99.215686%,100%);fill-opacity:1;" d="M 10.75 11.175781 L 11.710938 11.175781 L 11.710938 11.414062 L 10.75 11.414062 Z M 10.75 11.175781 "/>
<path style=" stroke:none;fill-rule:nonzero;fill:rgb(89.803922%,99.215686%,100%);fill-opacity:1;" d="M 12.1875 11.175781 L 13.148438 11.175781 L 13.148438 11.414062 L 12.1875 11.414062 Z M 12.1875 11.175781 "/>
<path style=" stroke:none;fill-rule:nonzero;fill:rgb(89.803922%,99.215686%,100%);fill-opacity:1;" d="M 13.386719 11.175781 L 14.585938 11.175781 L 14.585938 11.414062 L 13.386719 11.414062 Z M 13.386719 11.175781 "/>
<path style=" stroke:none;fill-rule:nonzero;fill:rgb(74.117647%,76.470588%,78.039216%);fill-opacity:1;" d="M 8.59375 11.652344 L 9.3125 11.652344 L 9.3125 11.890625 L 8.59375 11.890625 Z M 8.59375 11.652344 "/>
<path style=" stroke:none;fill-rule:nonzero;fill:rgb(89.803922%,99.215686%,100%);fill-opacity:1;" d="M 10.75 11.652344 L 11.472656 11.652344 L 11.472656 11.890625 L 10.75 11.890625 Z M 10.75 11.652344 "/>
<path style=" stroke:none;fill-rule:nonzero;fill:rgb(89.803922%,99.215686%,100%);fill-opacity:1;" d="M 11.710938 11.652344 L 11.949219 11.652344 L 11.949219 11.890625 L 11.710938 11.890625 Z M 11.710938 11.652344 "/>
<path style=" stroke:none;fill-rule:nonzero;fill:rgb(89.803922%,99.215686%,100%);fill-opacity:1;" d="M 12.1875 11.652344 L 13.386719 11.652344 L 13.386719 11.890625 L 12.1875 11.890625 Z M 12.1875 11.652344 "/>
<path style=" stroke:none;fill-rule:nonzero;fill:rgb(89.803922%,99.215686%,100%);fill-opacity:1;" d="M 13.386719 13.792969 L 12.910156 13.792969 L 12.910156 14.03125 L 13.386719 14.03125 Z M 13.386719 13.792969 "/>
<path style=" stroke:none;fill-rule:nonzero;fill:rgb(89.803922%,99.215686%,100%);fill-opacity:1;" d="M 12.667969 13.792969 L 10.75 13.792969 L 10.75 14.03125 L 12.667969 14.03125 Z M 12.667969 13.792969 "/>
<path style=" stroke:none;fill-rule:nonzero;fill:rgb(74.117647%,76.470588%,78.039216%);fill-opacity:1;" d="M 10.273438 13.792969 L 8.59375 13.792969 L 8.59375 14.03125 L 10.273438 14.03125 Z M 10.273438 13.792969 "/>
<path style=" stroke:none;fill-rule:nonzero;fill:rgb(89.803922%,99.215686%,100%);fill-opacity:1;" d="M 14.585938 13.320312 L 14.105469 13.320312 L 14.105469 13.554688 L 14.585938 13.554688 Z M 14.585938 13.320312 "/>
<path style=" stroke:none;fill-rule:nonzero;fill:rgb(89.803922%,99.215686%,100%);fill-opacity:1;" d="M 13.867188 13.320312 L 13.148438 13.320312 L 13.148438 13.554688 L 13.867188 13.554688 Z M 13.867188 13.320312 "/>
<path style=" stroke:none;fill-rule:nonzero;fill:rgb(89.803922%,99.215686%,100%);fill-opacity:1;" d="M 12.910156 13.320312 L 10.75 13.320312 L 10.75 13.554688 L 12.910156 13.554688 Z M 12.910156 13.320312 "/>
<path style=" stroke:none;fill-rule:nonzero;fill:rgb(23.921569%,68.235294%,99.215686%);fill-opacity:1;" d="M 9.792969 13.320312 L 8.59375 13.320312 L 8.59375 13.554688 L 9.792969 13.554688 Z M 9.792969 13.320312 "/>
<path style=" stroke:none;fill-rule:evenodd;fill:rgb(93.72549%,94.117647%,94.509804%);fill-opacity:1;" d="M 7.515625 8.535156 L 6.675781 8.886719 C 6.675781 8.886719 6.777344 9.339844 6.882812 9.601562 C 6.9375 9.734375 7.003906 9.867188 7.097656 9.988281 C 7.191406 10.105469 7.328125 10.222656 7.515625 10.222656 C 7.703125 10.222656 7.839844 10.105469 7.933594 9.988281 C 8.027344 9.867188 8.09375 9.734375 8.144531 9.601562 C 8.253906 9.339844 8.355469 8.886719 8.355469 8.886719 Z M 7.515625 8.535156 "/>
<path style=" stroke:none;fill-rule:evenodd;fill:rgb(85.490196%,26.666667%,32.54902%);fill-opacity:1;" d="M 6.917969 9.03125 L 7.515625 8.792969 L 8.117188 9.03125 C 8.117188 9.03125 7.894531 9.984375 7.515625 9.984375 C 7.140625 9.984375 6.917969 9.03125 6.917969 9.03125 Z M 6.917969 9.03125 "/>
</g>
</svg>
