
<svg xmlns="http://www.w3.org/2000/svg" xmlns:xlink="http://www.w3.org/1999/xlink" width="22px" height="22px" viewBox="0 0 22 22" version="1.1">
<defs>
<linearGradient id="linear0" gradientUnits="userSpaceOnUse" x1="27.865" y1="1023.07" x2="28.424" y2="1049.66" >
<stop offset="0" style="stop-color:rgb(100%,100%,100%);stop-opacity:0.4;"/>
<stop offset="1" style="stop-color:rgb(100%,100%,100%);stop-opacity:0;"/>
</linearGradient>
<linearGradient id="linear1" gradientUnits="userSpaceOnUse" x1="43.936" y1="1023.65" x2="43.922" y2="1047.65" >
<stop offset="0" style="stop-color:rgb(100%,100%,100%);stop-opacity:0.4;"/>
<stop offset="1" style="stop-color:rgb(100%,100%,100%);stop-opacity:0;"/>
</linearGradient>
<linearGradient id="linear2" gradientUnits="userSpaceOnUse" x1="36.12" y1="1007.36" x2="36.17" y2="1031.43" >
<stop offset="0" style="stop-color:rgb(100%,100%,100%);stop-opacity:0.4;"/>
<stop offset="1" style="stop-color:rgb(100%,100%,100%);stop-opacity:0;"/>
</linearGradient>
</defs>
<g id="surface1">
<path style=" stroke:none;fill-rule:nonzero;fill:rgb(52.941176%,80.784314%,98.039216%);fill-opacity:1;" d="M 0.1875 11.195312 C -1.734375 20.8125 11.441406 24.464844 18.597656 20.296875 C 24.296875 16.976562 22.667969 5.601562 14.972656 1.359375 C 7.277344 -2.882812 1.730469 3.472656 0.1875 11.195312 Z M 0.1875 11.195312 "/>
<path style=" stroke:none;fill-rule:nonzero;fill:rgb(0%,0%,0%);fill-opacity:0.101961;" d="M 10.679688 5.632812 C 8.730469 5.632812 7.152344 7.117188 7.152344 8.953125 C 7.152344 9.28125 7.207031 9.605469 7.308594 9.921875 C 5.910156 10.394531 4.984375 11.640625 4.980469 13.039062 C 4.980469 14.871094 6.558594 16.355469 8.507812 16.355469 C 9.296875 16.355469 10.0625 16.109375 10.683594 15.652344 C 11.300781 16.109375 12.066406 16.355469 12.851562 16.355469 C 14.800781 16.355469 16.378906 14.871094 16.378906 13.039062 C 16.378906 11.644531 15.449219 10.398438 14.054688 9.921875 C 14.15625 9.605469 14.207031 9.28125 14.210938 8.953125 C 14.210938 7.117188 12.628906 5.632812 10.679688 5.632812 Z M 10.679688 5.632812 "/>
<path style=" stroke:none;fill-rule:nonzero;fill:rgb(0%,87.45098%,100%);fill-opacity:1;" d="M 16.378906 12.78125 C 16.378906 14.617188 14.800781 16.101562 12.851562 16.101562 C 10.902344 16.101562 9.324219 14.617188 9.324219 12.78125 C 9.324219 10.949219 10.902344 9.464844 12.851562 9.464844 C 14.800781 9.464844 16.378906 10.949219 16.378906 12.78125 Z M 16.378906 12.78125 "/>
<path style=" stroke:none;fill-rule:nonzero;fill:rgb(95.294118%,30.588235%,45.098039%);fill-opacity:1;" d="M 12.039062 12.78125 C 12.039062 14.617188 10.457031 16.101562 8.507812 16.101562 C 6.558594 16.101562 4.980469 14.617188 4.980469 12.78125 C 4.980469 10.949219 6.558594 9.464844 8.507812 9.464844 C 10.457031 9.464844 12.039062 10.949219 12.039062 12.78125 Z M 12.039062 12.78125 "/>
<path style=" stroke:none;fill-rule:nonzero;fill:rgb(100%,83.529412%,2.352941%);fill-opacity:1;" d="M 14.210938 8.699219 C 14.210938 10.53125 12.628906 12.015625 10.679688 12.015625 C 8.730469 12.015625 7.152344 10.53125 7.152344 8.699219 C 7.152344 6.863281 8.730469 5.378906 10.679688 5.378906 C 12.628906 5.378906 14.210938 6.863281 14.210938 8.699219 Z M 14.210938 8.699219 "/>
<path style=" stroke:none;fill-rule:nonzero;fill:rgb(36.078431%,81.960784%,11.372549%);fill-opacity:1;" d="M 12.851562 9.464844 C 11.300781 9.464844 9.929688 10.417969 9.476562 11.816406 C 9.863281 11.945312 10.269531 12.015625 10.679688 12.015625 C 12.230469 12.015625 13.601562 11.0625 14.054688 9.667969 C 13.667969 9.535156 13.261719 9.464844 12.851562 9.464844 Z M 12.851562 9.464844 "/>
<path style=" stroke:none;fill-rule:nonzero;fill:rgb(81.568627%,14.901961%,1.568627%);fill-opacity:1;" d="M 8.507812 9.464844 C 8.101562 9.464844 7.691406 9.53125 7.308594 9.664062 C 7.761719 11.0625 9.128906 12.015625 10.679688 12.015625 C 11.089844 12.015625 11.496094 11.945312 11.882812 11.816406 C 11.429688 10.421875 10.058594 9.464844 8.507812 9.464844 Z M 8.507812 9.464844 "/>
<path style=" stroke:none;fill-rule:nonzero;fill:rgb(36.078431%,60.392157%,92.156863%);fill-opacity:1;" d="M 10.679688 10.167969 C 9.824219 10.796875 9.324219 11.761719 9.324219 12.78125 C 9.324219 13.804688 9.828125 14.765625 10.683594 15.394531 C 11.539062 14.765625 12.035156 13.804688 12.039062 12.78125 C 12.035156 11.761719 11.535156 10.796875 10.679688 10.167969 Z M 10.679688 10.167969 "/>
<path style=" stroke:none;fill-rule:nonzero;fill:rgb(21.176471%,21.176471%,21.176471%);fill-opacity:1;" d="M 10.679688 10.171875 C 10.667969 10.183594 10.652344 10.191406 10.640625 10.203125 C 10.585938 10.242188 10.535156 10.285156 10.484375 10.328125 C 10.445312 10.359375 10.40625 10.394531 10.371094 10.425781 C 10.328125 10.46875 10.285156 10.507812 10.246094 10.554688 C 10.203125 10.59375 10.167969 10.632812 10.132812 10.671875 C 10.09375 10.71875 10.054688 10.765625 10.019531 10.808594 C 9.984375 10.851562 9.953125 10.894531 9.921875 10.941406 C 9.886719 10.988281 9.859375 11.035156 9.828125 11.082031 C 9.796875 11.128906 9.765625 11.175781 9.738281 11.226562 C 9.710938 11.277344 9.6875 11.324219 9.660156 11.375 C 9.636719 11.425781 9.613281 11.472656 9.589844 11.523438 C 9.5625 11.589844 9.535156 11.660156 9.507812 11.730469 C 9.5 11.75 9.492188 11.773438 9.484375 11.796875 C 9.480469 11.800781 9.480469 11.808594 9.480469 11.8125 C 9.484375 11.816406 9.492188 11.816406 9.496094 11.820312 C 9.597656 11.851562 9.695312 11.882812 9.796875 11.90625 C 9.824219 11.914062 9.847656 11.917969 9.875 11.921875 C 9.960938 11.945312 10.042969 11.960938 10.128906 11.972656 C 10.171875 11.980469 10.214844 11.984375 10.257812 11.988281 C 10.332031 11.996094 10.40625 12.003906 10.484375 12.007812 C 10.546875 12.011719 10.613281 12.015625 10.679688 12.015625 C 11.066406 12.015625 11.449219 11.953125 11.8125 11.835938 C 11.835938 11.832031 11.859375 11.820312 11.882812 11.816406 C 11.785156 11.53125 11.652344 11.257812 11.480469 11.007812 C 11.460938 10.976562 11.441406 10.945312 11.421875 10.914062 C 11.394531 10.882812 11.367188 10.847656 11.34375 10.816406 C 11.296875 10.757812 11.253906 10.703125 11.207031 10.648438 C 11.203125 10.648438 11.203125 10.644531 11.203125 10.644531 C 11.046875 10.472656 10.871094 10.3125 10.679688 10.171875 Z M 10.679688 10.171875 "/>
<path style="fill:none;stroke-width:1;stroke-linecap:round;stroke-linejoin:round;stroke:rgb(0%,0%,0%);stroke-opacity:0.4;stroke-miterlimit:4;" d="M 31.99813 1022.916968 C 28.745703 1022.916968 25.493275 1024.263189 23.190672 1026.557884 C 20.902459 1028.867877 19.54968 1032.111046 19.54968 1035.354215 C 19.54968 1038.62798 20.902459 1041.855852 23.190672 1044.165845 C 25.493275 1046.475838 28.731311 1047.822059 31.99813 1047.822059 C 35.250558 1047.822059 38.488594 1046.475838 40.805589 1044.165845 C 43.108192 1041.855852 44.446581 1038.62798 44.446581 1035.354215 C 44.446581 1032.111046 43.108192 1028.867877 40.805589 1026.557884 C 38.488594 1024.263189 35.264949 1022.916968 31.99813 1022.916968 Z M 31.99813 1022.916968 " transform="matrix(0.271432,0,0,0.255344,4.16625,-251.590625)"/>
<path style="fill:none;stroke-width:1;stroke-linecap:round;stroke-linejoin:round;stroke:rgb(0%,0%,0%);stroke-opacity:0.4;stroke-miterlimit:4;" d="M 15.995036 1022.855776 C 12.728217 1022.855776 9.461398 1024.201997 7.144403 1026.51199 C 4.8418 1028.837281 3.48902 1032.08045 3.48902 1035.369513 C 3.48902 1038.643278 4.8418 1041.901745 7.144403 1044.211739 C 9.461398 1046.53703 12.728217 1047.883251 15.995036 1047.883251 C 19.276246 1047.883251 22.528673 1046.53703 24.845668 1044.211739 C 27.162663 1041.901745 28.515442 1038.643278 28.515442 1035.369513 C 28.515442 1032.08045 27.162663 1028.837281 24.845668 1026.51199 C 22.528673 1024.201997 19.276246 1022.855776 15.995036 1022.855776 Z M 15.995036 1022.855776 " transform="matrix(0.271432,0,0,0.255344,4.16625,-251.590625)"/>
<path style="fill:none;stroke-width:1;stroke-linecap:round;stroke-linejoin:round;stroke:rgb(0%,0%,0%);stroke-opacity:0.4;stroke-miterlimit:4;" d="M 23.996583 1006.854101 C 20.729764 1006.854101 17.462945 1008.200323 15.145951 1010.510316 C 12.828956 1012.835607 11.490567 1016.094074 11.490567 1019.367839 C 11.490567 1022.641604 12.828956 1025.900071 15.145951 1028.210064 C 17.462945 1030.535355 20.729764 1031.881577 23.996583 1031.881577 C 27.277793 1031.881577 30.530221 1030.535355 32.847215 1028.210064 C 35.16421 1025.900071 36.51699 1022.641604 36.51699 1019.367839 C 36.51699 1016.094074 35.16421 1012.835607 32.847215 1010.510316 C 30.530221 1008.200323 27.277793 1006.854101 23.996583 1006.854101 Z M 23.996583 1006.854101 " transform="matrix(0.271432,0,0,0.255344,4.16625,-251.590625)"/>
<path style="fill:none;stroke-width:1;stroke-linecap:round;stroke-linejoin:round;stroke:url(#linear0);stroke-miterlimit:4;" d="M 15.995036 1023.80425 C 12.972868 1023.80425 9.965093 1025.043385 7.820793 1027.185101 C 5.676493 1029.326816 4.438844 1032.340516 4.438844 1035.354215 C 4.438844 1038.398511 5.676493 1041.41221 7.820793 1043.538628 C 9.965093 1045.680343 12.972868 1046.934777 15.995036 1046.934777 C 19.031594 1046.934777 22.03937 1045.680343 24.183669 1043.538628 C 26.313578 1041.396913 27.565618 1038.398511 27.565618 1035.354215 C 27.565618 1032.340516 26.313578 1029.326816 24.183669 1027.185101 C 22.03937 1025.043385 19.031594 1023.80425 15.995036 1023.80425 Z M 15.995036 1023.80425 " transform="matrix(0.271432,0,0,0.255344,4.16625,-251.590625)"/>
<path style="fill:none;stroke-width:1;stroke-linecap:round;stroke-linejoin:round;stroke:url(#linear1);stroke-miterlimit:4;" d="M 31.99813 1023.941931 C 29.004746 1023.941931 26.040144 1025.181067 23.910235 1027.276888 C 21.80911 1029.403306 20.57146 1032.371112 20.57146 1035.369513 C 20.57146 1038.352617 21.80911 1041.335721 23.910235 1043.44684 C 26.040144 1045.55796 29.004746 1046.797095 31.99813 1046.797095 C 34.991515 1046.797095 37.956117 1045.55796 40.071634 1043.44684 C 42.201542 1041.335721 43.4248 1038.367915 43.4248 1035.369513 C 43.4248 1032.371112 42.201542 1029.403306 40.071634 1027.276888 C 37.970508 1025.181067 34.991515 1023.941931 31.99813 1023.941931 Z M 31.99813 1023.941931 " transform="matrix(0.271432,0,0,0.255344,4.16625,-251.590625)"/>
<path style="fill:none;stroke-width:1;stroke-linecap:round;stroke-linejoin:round;stroke:url(#linear2);stroke-miterlimit:4;" d="M 23.996583 1007.848469 C 20.974416 1007.848469 17.981031 1009.087605 15.851123 1011.214022 C 13.706823 1013.34044 12.469174 1016.338841 12.469174 1019.367839 C 12.469174 1022.381539 13.706823 1025.37994 15.851123 1027.521656 C 17.981031 1029.648073 20.974416 1030.887209 23.996583 1030.887209 C 27.01875 1030.887209 30.012135 1029.648073 32.142043 1027.521656 C 34.286343 1025.37994 35.523992 1022.381539 35.523992 1019.367839 C 35.523992 1016.338841 34.286343 1013.34044 32.142043 1011.214022 C 30.012135 1009.087605 27.01875 1007.848469 23.996583 1007.848469 Z M 23.996583 1007.848469 " transform="matrix(0.271432,0,0,0.255344,4.16625,-251.590625)"/>
</g>
</svg>
