
<svg xmlns="http://www.w3.org/2000/svg" xmlns:xlink="http://www.w3.org/1999/xlink" width="22px" height="22px" viewBox="0 0 22 22" version="1.1">
<g id="surface1">
<path style=" stroke:none;fill-rule:nonzero;fill:rgb(97.647059%,24.313725%,0%);fill-opacity:1;" d="M 20.226562 17.332031 C 27.34375 7.148438 11.316406 -5.628906 2.929688 2.671875 C -4.964844 10.488281 5.242188 25.09375 15.070312 21.296875 C 17.121094 20.503906 18.917969 19.203125 20.226562 17.332031 Z M 20.226562 17.332031 "/>
<path style=" stroke:none;fill-rule:nonzero;fill:rgb(100%,100%,100%);fill-opacity:1;" d="M 4.574219 11.523438 C 4.542969 11.523438 4.523438 11.542969 4.519531 11.574219 L 4.421875 12.3125 L 4.519531 13.035156 C 4.523438 13.066406 4.542969 13.085938 4.574219 13.085938 C 4.597656 13.085938 4.621094 13.066406 4.625 13.035156 L 4.738281 12.3125 L 4.625 11.574219 C 4.621094 11.542969 4.597656 11.523438 4.574219 11.523438 Z M 5.117188 11.121094 C 5.113281 11.085938 5.089844 11.066406 5.0625 11.066406 C 5.035156 11.066406 5.011719 11.089844 5.007812 11.121094 C 5.007812 11.121094 4.875 12.3125 4.875 12.3125 L 5.007812 13.476562 C 5.011719 13.507812 5.035156 13.53125 5.0625 13.53125 C 5.089844 13.53125 5.113281 13.507812 5.117188 13.476562 L 5.265625 12.3125 Z M 7.175781 10.019531 C 7.121094 10.019531 7.074219 10.0625 7.074219 10.117188 L 6.96875 12.3125 L 7.074219 13.730469 C 7.074219 13.785156 7.121094 13.828125 7.175781 13.828125 C 7.226562 13.828125 7.269531 13.785156 7.273438 13.726562 L 7.273438 13.730469 L 7.390625 12.3125 L 7.273438 10.117188 C 7.269531 10.0625 7.226562 10.019531 7.175781 10.019531 Z M 6.109375 10.785156 C 6.066406 10.785156 6.035156 10.816406 6.03125 10.859375 L 5.914062 12.3125 L 6.03125 13.71875 C 6.035156 13.761719 6.066406 13.792969 6.109375 13.792969 C 6.148438 13.792969 6.183594 13.761719 6.1875 13.71875 L 6.320312 12.3125 L 6.1875 10.859375 C 6.183594 10.816406 6.148438 10.785156 6.109375 10.785156 Z M 8.253906 13.828125 C 8.320312 13.828125 8.375 13.773438 8.378906 13.707031 L 8.480469 12.3125 L 8.378906 9.394531 C 8.375 9.324219 8.320312 9.273438 8.253906 9.273438 C 8.1875 9.273438 8.132812 9.324219 8.132812 9.394531 C 8.132812 9.394531 8.039062 12.3125 8.039062 12.3125 L 8.132812 13.707031 C 8.132812 13.773438 8.1875 13.828125 8.253906 13.828125 Z M 10.46875 13.835938 C 10.558594 13.835938 10.632812 13.757812 10.636719 13.667969 L 10.707031 12.3125 L 10.636719 8.941406 C 10.632812 8.851562 10.558594 8.773438 10.46875 8.773438 C 10.375 8.773438 10.300781 8.851562 10.300781 8.941406 L 10.234375 12.3125 C 10.234375 12.316406 10.300781 13.667969 10.300781 13.667969 C 10.300781 13.761719 10.375 13.835938 10.46875 13.835938 Z M 9.351562 13.832031 C 9.429688 13.832031 9.496094 13.765625 9.496094 13.683594 L 9.496094 13.6875 L 9.585938 12.3125 L 9.496094 9.375 C 9.496094 9.292969 9.429688 9.230469 9.351562 9.230469 C 9.273438 9.230469 9.207031 9.292969 9.207031 9.375 L 9.128906 12.3125 L 9.207031 13.6875 C 9.207031 13.765625 9.273438 13.832031 9.351562 13.832031 Z M 6.636719 13.816406 C 6.6875 13.816406 6.722656 13.777344 6.726562 13.726562 L 6.851562 12.3125 L 6.726562 10.964844 C 6.722656 10.914062 6.6875 10.875 6.636719 10.875 C 6.59375 10.875 6.550781 10.914062 6.550781 10.964844 L 6.441406 12.3125 L 6.550781 13.726562 C 6.550781 13.777344 6.59375 13.816406 6.636719 13.816406 Z M 5.585938 13.738281 C 5.617188 13.738281 5.648438 13.710938 5.648438 13.675781 L 5.789062 12.3125 L 5.648438 10.898438 C 5.648438 10.859375 5.617188 10.832031 5.585938 10.832031 C 5.546875 10.832031 5.519531 10.859375 5.519531 10.898438 C 5.519531 10.898438 5.390625 12.3125 5.390625 12.3125 L 5.519531 13.675781 C 5.519531 13.710938 5.546875 13.738281 5.585938 13.738281 Z M 9.90625 9.324219 C 9.820312 9.324219 9.753906 9.394531 9.75 9.480469 L 9.679688 12.3125 L 9.75 13.675781 C 9.753906 13.765625 9.820312 13.832031 9.90625 13.832031 C 9.992188 13.832031 10.0625 13.765625 10.066406 13.675781 L 10.144531 12.3125 L 10.066406 9.480469 C 10.0625 9.394531 9.992188 9.324219 9.90625 9.324219 Z M 7.710938 13.832031 C 7.773438 13.832031 7.820312 13.78125 7.824219 13.722656 L 7.933594 12.3125 L 7.824219 9.621094 C 7.820312 9.558594 7.773438 9.507812 7.710938 9.507812 C 7.652344 9.507812 7.601562 9.558594 7.601562 9.621094 C 7.601562 9.621094 7.503906 12.3125 7.503906 12.3125 L 7.601562 13.722656 C 7.601562 13.78125 7.652344 13.832031 7.710938 13.832031 Z M 8.9375 13.699219 L 9.03125 12.3125 L 8.9375 9.296875 C 8.933594 9.21875 8.875 9.164062 8.800781 9.164062 C 8.726562 9.164062 8.667969 9.21875 8.667969 9.296875 L 8.582031 12.3125 L 8.667969 13.699219 C 8.667969 13.773438 8.726562 13.832031 8.800781 13.832031 C 8.875 13.832031 8.933594 13.773438 8.9375 13.699219 Z M 16.058594 10.574219 C 15.835938 10.574219 15.621094 10.617188 15.429688 10.699219 C 15.296875 9.230469 14.066406 8.078125 12.5625 8.078125 C 12.191406 8.078125 11.832031 8.148438 11.515625 8.269531 C 11.394531 8.316406 11.359375 8.367188 11.359375 8.464844 L 11.359375 13.640625 C 11.359375 13.742188 11.4375 13.824219 11.535156 13.835938 C 11.539062 13.835938 16.03125 13.835938 16.058594 13.835938 C 16.960938 13.835938 17.691406 13.105469 17.691406 12.207031 C 17.691406 11.304688 16.960938 10.574219 16.058594 10.574219 Z M 11.023438 8.457031 C 10.929688 8.457031 10.847656 8.539062 10.847656 8.636719 L 10.773438 12.3125 L 10.847656 13.648438 C 10.847656 13.746094 10.929688 13.828125 11.023438 13.828125 C 11.125 13.828125 11.203125 13.746094 11.207031 13.648438 L 11.285156 12.3125 L 11.207031 8.636719 C 11.203125 8.539062 11.125 8.457031 11.023438 8.457031 Z M 11.023438 8.457031 "/>
</g>
</svg>
