
<svg xmlns="http://www.w3.org/2000/svg" xmlns:xlink="http://www.w3.org/1999/xlink" width="22px" height="22px" viewBox="0 0 22 22" version="1.1">
<defs>
<linearGradient id="linear0" gradientUnits="userSpaceOnUse" x1="0" y1="-1048.36" x2="0" y2="-1008.37" gradientTransform="matrix(0.336349,0,0,-0.264392,2.922734,-259.791641)">
<stop offset="0" style="stop-color:rgb(92.941176%,94.117647%,96.078431%);stop-opacity:1;"/>
<stop offset="1" style="stop-color:rgb(92.54902%,93.72549%,95.686275%);stop-opacity:1;"/>
</linearGradient>
<linearGradient id="linear1" gradientUnits="userSpaceOnUse" x1="0" y1="48" x2="0" y2="0.016" gradientTransform="matrix(-0.28029,0,0,0.176262,17.722093,7.868118)">
<stop offset="0" style="stop-color:rgb(17.254902%,46.666667%,80%);stop-opacity:1;"/>
<stop offset="1" style="stop-color:rgb(33.333333%,54.117647%,84.705882%);stop-opacity:0.996078;"/>
</linearGradient>
<linearGradient id="linear2" gradientUnits="userSpaceOnUse" x1="0" y1="48" x2="0" y2="0.016" gradientTransform="matrix(0.28029,0,0,0.176262,4.268131,7.868118)">
<stop offset="0" style="stop-color:rgb(17.254902%,46.666667%,80%);stop-opacity:1;"/>
<stop offset="1" style="stop-color:rgb(33.333333%,54.117647%,84.705882%);stop-opacity:0.996078;"/>
</linearGradient>
<linearGradient id="linear3" gradientUnits="userSpaceOnUse" x1="4" y1="0" x2="44" y2="0" gradientTransform="matrix(0.336349,0,0,0.264392,2.922734,-259.791641)">
<stop offset="0" style="stop-color:rgb(88.627451%,90.588235%,93.72549%);stop-opacity:1;"/>
<stop offset="1" style="stop-color:rgb(92.54902%,93.333333%,94.509804%);stop-opacity:1;"/>
</linearGradient>
<linearGradient id="linear4" gradientUnits="userSpaceOnUse" x1="4" y1="0" x2="44" y2="0" gradientTransform="matrix(0.336349,0,0,0.264392,2.922734,-259.791641)">
<stop offset="0" style="stop-color:rgb(88.627451%,90.588235%,93.72549%);stop-opacity:1;"/>
<stop offset="1" style="stop-color:rgb(92.54902%,93.333333%,94.509804%);stop-opacity:1;"/>
</linearGradient>
<linearGradient id="linear5" gradientUnits="userSpaceOnUse" x1="4" y1="0" x2="41.5" y2="0" gradientTransform="matrix(0.336349,0,0,0.264392,2.922734,-259.791641)">
<stop offset="0" style="stop-color:rgb(17.254902%,46.666667%,80%);stop-opacity:1;"/>
<stop offset="1" style="stop-color:rgb(33.333333%,54.117647%,84.705882%);stop-opacity:0.996078;"/>
</linearGradient>
</defs>
<g id="surface1">
<path style=" stroke:none;fill-rule:nonzero;fill:rgb(25.490196%,41.176471%,88.235294%);fill-opacity:1;" d="M 18.148438 3.195312 C 35.492188 26.085938 -12.238281 29.335938 3.078125 5.972656 C 6.570312 0.644531 13.554688 -2.871094 18.148438 3.195312 Z M 18.148438 3.195312 "/>
<path style=" stroke:none;fill-rule:nonzero;fill:url(#linear0);" d="M 4.8125 17.386719 L 17.175781 17.386719 C 17.476562 17.386719 17.722656 17.195312 17.722656 16.957031 L 17.722656 7.238281 C 17.722656 7.003906 17.476562 6.8125 17.175781 6.8125 L 4.8125 6.8125 C 4.511719 6.8125 4.269531 7.003906 4.269531 7.238281 L 4.269531 16.957031 C 4.269531 17.195312 4.511719 17.386719 4.8125 17.386719 Z M 4.8125 17.386719 "/>
<path style=" stroke:none;fill-rule:nonzero;fill:url(#linear1);" d="M 17.175781 7.867188 C 17.480469 7.867188 17.722656 8.019531 17.722656 8.210938 L 17.722656 15.984375 C 17.722656 16.175781 17.480469 16.328125 17.175781 16.328125 L 16.320312 16.328125 L 16.320312 7.867188 Z M 17.175781 7.867188 "/>
<path style=" stroke:none;fill-rule:nonzero;fill:url(#linear2);" d="M 4.8125 7.867188 C 4.511719 7.867188 4.269531 8.019531 4.269531 8.210938 L 4.269531 15.984375 C 4.269531 16.175781 4.511719 16.328125 4.8125 16.328125 L 5.671875 16.328125 L 5.671875 7.867188 Z M 4.8125 7.867188 "/>
<path style=" stroke:none;fill-rule:nonzero;fill:rgb(0%,0%,0%);fill-opacity:0.235294;" d="M 10.996094 12.011719 L 4.269531 15.976562 L 4.269531 16.871094 C 4.269531 17.105469 4.511719 17.296875 4.8125 17.296875 L 17.175781 17.296875 C 17.480469 17.296875 17.722656 17.105469 17.722656 16.871094 L 17.722656 15.976562 Z M 10.996094 12.011719 "/>
<path style=" stroke:none;fill-rule:nonzero;fill:url(#linear3);" d="M 10.996094 12.097656 L 4.269531 16.066406 L 4.269531 16.957031 C 4.269531 17.195312 4.511719 17.386719 4.8125 17.386719 L 17.175781 17.386719 C 17.480469 17.386719 17.722656 17.195312 17.722656 16.957031 L 17.722656 16.066406 Z M 10.996094 12.097656 "/>
<path style=" stroke:none;fill-rule:nonzero;fill:rgb(0%,0%,0%);fill-opacity:0.235294;" d="M 10.996094 13.066406 L 4.269531 9.101562 L 4.269531 7.328125 C 4.269531 7.089844 4.511719 6.898438 4.8125 6.898438 L 17.175781 6.898438 C 17.480469 6.898438 17.722656 7.089844 17.722656 7.328125 L 17.722656 9.101562 Z M 10.996094 13.066406 "/>
<path style=" stroke:none;fill-rule:nonzero;fill:url(#linear4);" d="M 10.996094 12.539062 L 4.269531 8.574219 L 4.269531 7.238281 C 4.269531 7.003906 4.511719 6.8125 4.8125 6.8125 L 17.175781 6.8125 C 17.480469 6.8125 17.722656 7.003906 17.722656 7.238281 L 17.722656 8.574219 Z M 10.996094 12.539062 "/>
<path style=" stroke:none;fill-rule:nonzero;fill:url(#linear5);" d="M 4.269531 7.914062 L 4.269531 9.015625 L 10.996094 12.980469 L 17.722656 9.015625 L 17.722656 7.914062 L 10.996094 11.878906 Z M 4.269531 7.914062 "/>
</g>
</svg>
