
<svg xmlns="http://www.w3.org/2000/svg" xmlns:xlink="http://www.w3.org/1999/xlink" width="22px" height="22px" viewBox="0 0 22 22" version="1.1">
<g id="surface1">
<path style=" stroke:none;fill-rule:nonzero;fill:rgb(96.078431%,96.078431%,86.27451%);fill-opacity:1;" d="M 13.613281 21.558594 C 34.054688 17.316406 12.109375 -11.84375 1.71875 5.671875 C -2.734375 12.480469 3.097656 23.742188 13.613281 21.558594 Z M 13.613281 21.558594 "/>
<path style=" stroke:none;fill-rule:nonzero;fill:rgb(74.117647%,71.764706%,41.960784%);fill-opacity:1;" d="M 7.539062 15.605469 C 6.523438 15.386719 5.191406 14.867188 4.515625 14.429688 C 3.765625 13.9375 2.476562 12.292969 2.476562 11.824219 C 2.476562 11.40625 3.808594 8.527344 4.476562 8.269531 C 4.75 8.164062 6.175781 7.46875 3.894531 9.632812 C 3.550781 9.960938 3.523438 10.320312 3.578125 10.390625 C 3.683594 10.527344 4.3125 10.164062 5.171875 9.476562 C 5.570312 9.152344 5.480469 9.316406 4.796875 10.164062 C 4.0625 11.074219 3.949219 11.292969 4.175781 11.359375 C 5.125 11.636719 7.316406 10.472656 8.570312 9.023438 C 9.746094 7.671875 9.609375 6.988281 8.410156 8.222656 C 7.257812 9.410156 6.84375 9.613281 7.707031 8.570312 C 8.648438 7.429688 7.816406 7.125 6.847656 7.59375 C 3.398438 9.253906 4.160156 8.6875 4.160156 8.609375 C 5.71875 6.921875 5.621094 7.375 5.988281 6.964844 C 6.890625 5.957031 10.554688 6.574219 10.554688 7.34375 C 10.554688 7.925781 8.746094 9.957031 7.605469 10.652344 C 7.015625 11.011719 6.53125 11.402344 6.523438 11.511719 C 6.519531 11.625 6.796875 11.917969 7.140625 12.164062 C 8.273438 12.976562 9.929688 15.203125 9.722656 15.632812 C 9.625 15.832031 8.519531 15.816406 7.539062 15.605469 Z M 8.671875 14.871094 C 8.777344 14.652344 7.171875 12.695312 6.554688 12.289062 C 6.292969 12.117188 5.894531 11.980469 5.664062 11.988281 C 5.046875 12 3.882812 12.425781 3.859375 12.648438 C 3.792969 13.289062 6.648438 14.75 8.488281 15.019531 C 8.546875 15.03125 8.628906 14.960938 8.675781 14.871094 Z M 10.179688 15.609375 C 10.078125 15.394531 10.164062 13.785156 10.355469 12.410156 C 10.398438 12.066406 10.523438 11.789062 10.628906 11.789062 C 10.886719 11.789062 11 12.410156 11 13.832031 L 11.003906 15.011719 L 11.683594 14.921875 C 12.132812 14.859375 12.507812 15.234375 12.226562 15.441406 C 11.734375 15.804688 10.304688 15.867188 10.179688 15.609375 Z M 15.964844 15.5625 C 15.59375 15.089844 15.933594 13.527344 16.703125 12.144531 C 17.144531 11.347656 17.71875 11.441406 17.960938 12.347656 C 18.191406 13.238281 18.390625 13.269531 18.777344 12.464844 C 18.960938 12.085938 19.226562 11.785156 19.378906 11.785156 C 19.613281 11.785156 19.671875 12.007812 19.761719 13.222656 C 19.835938 14.265625 19.835938 14.996094 19.699219 15.210938 C 19.421875 15.640625 19.167969 15.1875 19.082031 14.460938 C 18.96875 13.492188 18.691406 13.566406 18.25 14.679688 C 17.878906 15.617188 17.835938 15.664062 17.644531 15.324219 C 17.523438 15.117188 17.4375 14.496094 17.4375 13.855469 C 17.4375 12.105469 16.953125 12.523438 16.753906 14.4375 C 16.644531 15.492188 16.296875 15.984375 15.964844 15.5625 Z M 12.527344 15.464844 C 12.527344 15.175781 13.128906 13.660156 13.890625 12.527344 C 14.582031 11.503906 15.070312 11.328125 15.351562 12 C 15.5625 12.503906 15.535156 15.34375 15.09375 15.726562 C 14.769531 16.011719 14.71875 14.871094 14.71875 14.230469 C 14.714844 13.84375 14.808594 13.699219 14.699219 13.644531 C 14.402344 13.5 14.175781 13.734375 13.808594 14.179688 C 13.761719 14.238281 15.21875 13.914062 14.945312 14.816406 C 14.90625 14.945312 13.398438 14.605469 13.363281 14.84375 C 13.238281 15.703125 12.527344 15.941406 12.527344 15.464844 Z M 6.21875 9.984375 C 6.21875 9.929688 6.351562 9.796875 6.515625 9.683594 C 6.679688 9.570312 6.816406 9.523438 6.816406 9.574219 C 6.816406 9.628906 6.679688 9.761719 6.515625 9.875 C 6.351562 9.988281 6.21875 10.035156 6.21875 9.984375 Z M 6.21875 9.984375 "/>
<path style=" stroke:none;fill-rule:nonzero;fill:rgb(18.431373%,30.980392%,30.980392%);fill-opacity:1;" d="M 7.414062 15.203125 C 6.421875 14.988281 5.113281 14.472656 4.453125 14.039062 C 3.714844 13.550781 2.453125 11.921875 2.453125 11.460938 C 2.453125 11.042969 3.757812 8.191406 4.414062 7.9375 C 4.683594 7.832031 6.078125 7.144531 3.84375 9.289062 C 3.507812 9.613281 3.480469 9.96875 3.535156 10.039062 C 3.636719 10.171875 4.253906 9.8125 5.09375 9.132812 C 5.484375 8.8125 5.398438 8.976562 4.726562 9.816406 C 4.007812 10.714844 3.898438 10.929688 4.121094 10.996094 C 5.050781 11.273438 7.195312 10.121094 8.429688 8.683594 C 9.578125 7.34375 9.441406 6.667969 8.269531 7.890625 C 7.140625 9.066406 6.734375 9.269531 7.578125 8.234375 C 8.5 7.105469 7.6875 6.800781 6.734375 7.265625 C 3.359375 8.910156 4.101562 8.347656 4.101562 8.273438 C 5.632812 6.601562 5.535156 7.050781 5.894531 6.640625 C 6.777344 5.648438 10.371094 6.253906 10.371094 7.019531 C 10.371094 7.597656 8.597656 9.609375 7.480469 10.296875 C 6.902344 10.65625 6.425781 11.039062 6.421875 11.148438 C 6.417969 11.257812 6.6875 11.550781 7.023438 11.796875 C 8.136719 12.601562 9.757812 14.804688 9.554688 15.234375 C 9.460938 15.425781 8.378906 15.414062 7.414062 15.203125 Z M 8.527344 14.476562 C 8.628906 14.261719 7.054688 12.324219 6.453125 11.921875 C 6.195312 11.75 5.800781 11.613281 5.578125 11.621094 C 4.972656 11.628906 3.832031 12.054688 3.808594 12.273438 C 3.746094 12.910156 6.542969 14.355469 8.347656 14.625 C 8.402344 14.632812 8.484375 14.566406 8.527344 14.476562 Z M 10.003906 15.207031 C 9.902344 14.996094 9.988281 13.398438 10.171875 12.035156 C 10.21875 11.699219 10.339844 11.421875 10.441406 11.421875 C 10.695312 11.421875 10.804688 12.039062 10.808594 13.445312 L 10.808594 14.617188 L 11.476562 14.523438 C 11.914062 14.464844 12.285156 14.839844 12.007812 15.039062 C 11.527344 15.402344 10.125 15.460938 10.003906 15.207031 Z M 15.671875 15.164062 C 15.308594 14.695312 15.640625 13.144531 16.394531 11.773438 C 16.832031 10.984375 17.390625 11.078125 17.625 11.976562 C 17.851562 12.859375 18.046875 12.890625 18.429688 12.09375 C 18.609375 11.71875 18.871094 11.421875 19.019531 11.421875 C 19.246094 11.421875 19.304688 11.640625 19.390625 12.84375 C 19.464844 13.878906 19.464844 14.601562 19.332031 14.8125 C 19.058594 15.238281 18.808594 14.792969 18.726562 14.070312 C 18.617188 13.113281 18.34375 13.183594 17.910156 14.289062 C 17.546875 15.214844 17.507812 15.257812 17.316406 14.925781 C 17.199219 14.71875 17.113281 14.105469 17.113281 13.46875 C 17.113281 11.738281 16.636719 12.148438 16.445312 14.046875 C 16.335938 15.089844 15.996094 15.582031 15.671875 15.164062 Z M 12.304688 15.0625 C 12.304688 14.777344 12.890625 13.277344 13.640625 12.15625 C 14.316406 11.140625 14.796875 10.964844 15.070312 11.632812 C 15.277344 12.132812 15.253906 14.945312 14.820312 15.324219 C 14.5 15.605469 14.453125 14.476562 14.449219 13.839844 C 14.445312 13.457031 14.539062 13.3125 14.433594 13.261719 C 14.140625 13.117188 13.917969 13.347656 13.558594 13.792969 C 13.511719 13.851562 14.941406 13.53125 14.671875 14.421875 C 14.632812 14.546875 13.15625 14.214844 13.125 14.445312 C 13 15.300781 12.304688 15.535156 12.304688 15.0625 Z M 6.121094 9.636719 C 6.121094 9.582031 6.25 9.449219 6.414062 9.339844 C 6.574219 9.226562 6.707031 9.175781 6.707031 9.230469 C 6.707031 9.28125 6.574219 9.414062 6.414062 9.527344 C 6.25 9.640625 6.121094 9.6875 6.121094 9.636719 Z M 6.121094 9.636719 "/>
</g>
</svg>
