
<svg xmlns="http://www.w3.org/2000/svg" xmlns:xlink="http://www.w3.org/1999/xlink" width="22px" height="22px" viewBox="0 0 22 22" version="1.1">
<g id="surface1">
<path style=" stroke:none;fill-rule:nonzero;fill:rgb(69.019608%,76.862745%,87.058824%);fill-opacity:1;" d="M 21.808594 13.523438 C 23.683594 1.03125 12.230469 -4.148438 3.328125 4.394531 C -4.675781 12.503906 3.507812 25.75 14.277344 20.976562 C 16.71875 19.894531 21.375 16.414062 21.808594 13.523438 Z M 21.808594 13.523438 "/>
<path style=" stroke:none;fill-rule:nonzero;fill:rgb(100%,100%,100%);fill-opacity:1;" d="M 14.316406 9.683594 C 14.253906 10.441406 13.953125 11.125 13.5 11.65625 C 13.898438 11.867188 14.171875 12.304688 14.171875 12.804688 C 14.171875 13.515625 13.625 14.089844 12.949219 14.089844 C 12.703125 14.089844 12.472656 14.011719 12.28125 13.878906 C 12.058594 14.585938 11.628906 15.1875 11.0625 15.609375 C 11.597656 16.007812 12.246094 16.238281 12.949219 16.238281 C 14.753906 16.238281 16.21875 14.699219 16.21875 12.804688 C 16.21875 11.421875 15.441406 10.226562 14.316406 9.683594 Z M 14.316406 9.683594 "/>
<path style=" stroke:none;fill-rule:nonzero;fill:rgb(100%,100%,100%);fill-opacity:1;" d="M 11.0625 5.933594 C 9.257812 5.933594 7.796875 7.472656 7.796875 9.367188 C 7.796875 9.476562 7.800781 9.582031 7.808594 9.683594 C 8.226562 9.480469 8.6875 9.367188 9.175781 9.367188 C 9.40625 9.367188 9.628906 9.394531 9.84375 9.441406 C 9.839844 9.417969 9.839844 9.394531 9.839844 9.367188 C 9.839844 8.660156 10.386719 8.085938 11.0625 8.085938 C 11.738281 8.085938 12.285156 8.660156 12.285156 9.367188 C 12.285156 9.394531 12.285156 9.417969 12.28125 9.441406 C 12.5 9.394531 12.71875 9.367188 12.949219 9.367188 C 13.4375 9.367188 13.898438 9.480469 14.316406 9.683594 C 14.328125 9.582031 14.332031 9.476562 14.332031 9.367188 C 14.332031 7.472656 12.867188 5.933594 11.0625 5.933594 Z M 11.0625 5.933594 "/>
<path style=" stroke:none;fill-rule:nonzero;fill:rgb(100%,100%,100%);fill-opacity:1;" d="M 7.808594 9.683594 C 6.6875 10.226562 5.90625 11.421875 5.90625 12.804688 C 5.90625 14.699219 7.371094 16.238281 9.175781 16.238281 C 9.878906 16.238281 10.527344 16.007812 11.0625 15.609375 C 10.496094 15.1875 10.066406 14.585938 9.84375 13.878906 C 9.652344 14.011719 9.421875 14.089844 9.175781 14.089844 C 8.5 14.089844 7.953125 13.515625 7.953125 12.804688 C 7.953125 12.304688 8.226562 11.871094 8.625 11.65625 C 8.171875 11.125 7.875 10.441406 7.808594 9.683594 Z M 7.808594 9.683594 "/>
<path style=" stroke:none;fill-rule:nonzero;fill:rgb(82.745098%,95.686275%,65.098039%);fill-opacity:1;" d="M 14.003906 12.804688 C 14.003906 13.414062 13.53125 13.910156 12.949219 13.910156 C 12.367188 13.910156 11.898438 13.414062 11.898438 12.804688 C 11.898438 12.191406 12.367188 11.699219 12.949219 11.699219 C 13.53125 11.699219 14.003906 12.191406 14.003906 12.804688 Z M 14.003906 12.804688 "/>
<path style=" stroke:none;fill-rule:nonzero;fill:rgb(82.745098%,95.686275%,65.098039%);fill-opacity:1;" d="M 12.117188 9.367188 C 12.117188 9.980469 11.644531 10.476562 11.0625 10.476562 C 10.484375 10.476562 10.011719 9.980469 10.011719 9.367188 C 10.011719 8.757812 10.484375 8.265625 11.0625 8.265625 C 11.644531 8.265625 12.117188 8.757812 12.117188 9.367188 Z M 12.117188 9.367188 "/>
<path style=" stroke:none;fill-rule:nonzero;fill:rgb(82.745098%,95.686275%,65.098039%);fill-opacity:1;" d="M 10.226562 12.804688 C 10.226562 13.414062 9.757812 13.910156 9.175781 13.910156 C 8.59375 13.910156 8.125 13.414062 8.125 12.804688 C 8.125 12.191406 8.59375 11.699219 9.175781 11.699219 C 9.757812 11.699219 10.226562 12.191406 10.226562 12.804688 Z M 10.226562 12.804688 "/>
</g>
</svg>
