
<svg xmlns="http://www.w3.org/2000/svg" xmlns:xlink="http://www.w3.org/1999/xlink" width="22px" height="22px" viewBox="0 0 22 22" version="1.1">
<g id="surface1">
<path style=" stroke:none;fill-rule:nonzero;fill:rgb(100%,54.901961%,0%);fill-opacity:1;" d="M 11.207031 21.882812 C 8.9375 21.707031 6.285156 20.617188 4.433594 19.105469 C 2.183594 17.265625 0.539062 14.445312 0.09375 11.664062 C -0.00390625 11.058594 -0.03125 9.652344 0.0429688 9.027344 C 0.34375 6.433594 1.867188 3.855469 4.085938 2.171875 C 5.292969 1.261719 6.886719 0.535156 8.382812 0.214844 C 12.277344 -0.609375 16.335938 0.957031 19.121094 4.359375 C 20.792969 6.394531 21.65625 8.449219 21.867188 10.882812 C 22.117188 13.796875 20.96875 16.921875 18.875 19.023438 C 17.230469 20.675781 15.023438 21.726562 12.925781 21.855469 C 12.621094 21.875 12.25 21.898438 12.097656 21.910156 C 11.945312 21.921875 11.546875 21.910156 11.207031 21.882812 Z M 11.207031 21.882812 "/>
<path style=" stroke:none;fill-rule:nonzero;fill:rgb(100%,100%,100%);fill-opacity:1;" d="M 7.78125 17.777344 C 7.296875 17.617188 7.023438 17.230469 6.9375 16.566406 C 6.828125 15.738281 6.835938 6.292969 6.945312 5.566406 C 7.023438 5.066406 7.105469 4.878906 7.355469 4.640625 L 7.671875 4.34375 L 13.992188 4.289062 L 14.347656 4.511719 C 14.550781 4.644531 14.753906 4.882812 14.824219 5.078125 C 14.914062 5.320312 14.949219 6.953125 14.953125 11.074219 C 14.960938 17.523438 14.976562 17.386719 14.199219 17.722656 C 13.820312 17.882812 13.492188 17.902344 10.953125 17.898438 C 9.039062 17.898438 8.015625 17.855469 7.78125 17.777344 Z M 11.492188 17.113281 C 11.738281 16.839844 11.726562 16.300781 11.46875 16.058594 C 11.195312 15.800781 10.632812 15.800781 10.382812 16.0625 C 10.085938 16.375 10.132812 16.910156 10.484375 17.195312 C 10.824219 17.46875 11.199219 17.441406 11.492188 17.113281 Z M 14.445312 10.46875 L 14.445312 5.65625 L 7.359375 5.65625 L 7.359375 15.28125 L 14.445312 15.28125 Z M 14.445312 10.46875 "/>
<path style=" stroke:none;fill-rule:nonzero;fill:rgb(100%,100%,100%);fill-opacity:1;" d="M 8.058594 17.777344 C 7.574219 17.617188 7.304688 17.230469 7.21875 16.566406 C 7.109375 15.738281 7.113281 6.292969 7.226562 5.566406 C 7.304688 5.066406 7.382812 4.878906 7.636719 4.640625 L 7.949219 4.34375 L 14.269531 4.289062 L 14.625 4.511719 C 14.832031 4.644531 15.035156 4.882812 15.101562 5.078125 C 15.191406 5.320312 15.230469 6.953125 15.234375 11.074219 C 15.238281 17.523438 15.253906 17.386719 14.476562 17.722656 C 14.097656 17.882812 13.773438 17.902344 11.234375 17.898438 C 9.320312 17.898438 8.296875 17.855469 8.058594 17.777344 Z M 11.773438 17.113281 C 12.015625 16.839844 12.003906 16.300781 11.746094 16.058594 C 11.472656 15.800781 10.261719 15.800781 10.011719 16.0625 C 9.710938 16.375 8.828125 17.1875 10.113281 17.476562 C 10.449219 17.75 11.480469 17.441406 11.773438 17.113281 Z M 14.722656 10.46875 L 14.722656 5.65625 L 7.640625 5.65625 L 7.640625 15.28125 L 14.722656 15.28125 Z M 14.722656 10.46875 "/>
</g>
</svg>
