
<svg xmlns="http://www.w3.org/2000/svg" xmlns:xlink="http://www.w3.org/1999/xlink" width="22px" height="22px" viewBox="0 0 22 22" version="1.1">
<g id="surface1">
<path style=" stroke:none;fill-rule:nonzero;fill:rgb(100%,54.901961%,0%);fill-opacity:1;" d="M 10.691406 21.882812 C 12.960938 21.707031 15.617188 20.617188 17.46875 19.105469 C 19.71875 17.265625 21.363281 14.445312 21.808594 11.664062 C 21.902344 11.058594 21.933594 9.652344 21.859375 9.027344 C 21.558594 6.433594 20.035156 3.855469 17.8125 2.171875 C 16.609375 1.261719 15.011719 0.535156 13.515625 0.214844 C 9.625 -0.609375 5.5625 0.957031 2.777344 4.359375 C 1.109375 6.394531 0.246094 8.449219 0.0351562 10.882812 C -0.21875 13.796875 0.929688 16.921875 3.027344 19.023438 C 4.671875 20.675781 6.878906 21.726562 8.972656 21.855469 C 9.277344 21.875 9.648438 21.898438 9.800781 21.910156 C 9.953125 21.921875 10.355469 21.910156 10.691406 21.882812 Z M 10.691406 21.882812 "/>
<path style=" stroke:none;fill-rule:nonzero;fill:rgb(100%,100%,100%);fill-opacity:1;" d="M 15.75 5.171875 C 15.027344 5.21875 14.503906 5.914062 14.054688 6.496094 C 13.621094 7.152344 13.175781 7.863281 13.054688 8.699219 C 13.050781 8.945312 13.320312 9.066406 13.433594 9.261719 C 13.871094 9.71875 14.324219 10.421875 14.046875 11.136719 C 13.652344 12.046875 12.910156 12.648438 12.335938 13.394531 C 11.871094 13.9375 11.277344 14.675781 10.550781 14.363281 C 10.015625 14.125 9.699219 13.546875 9.28125 13.152344 C 8.699219 13.207031 8.1875 13.625 7.703125 13.96875 C 7.082031 14.496094 6.4375 15.140625 6.210938 16.027344 C 6.078125 16.734375 6.714844 17.113281 7.109375 17.484375 C 8.09375 18.3125 9.414062 18.421875 10.539062 17.949219 C 12.347656 17.199219 13.804688 15.640625 15.089844 14.027344 C 16.1875 12.574219 17.234375 10.871094 17.378906 8.878906 C 17.472656 7.480469 16.863281 6.09375 15.933594 5.230469 L 15.839844 5.191406 L 15.746094 5.171875 Z M 15.75 5.171875 "/>
</g>
</svg>
