
<svg xmlns="http://www.w3.org/2000/svg" xmlns:xlink="http://www.w3.org/1999/xlink" width="22px" height="22px" viewBox="0 0 22 22" version="1.1">
<g id="surface1">
<path style=" stroke:none;fill-rule:nonzero;fill:rgb(69.019608%,76.862745%,87.058824%);fill-opacity:1;" d="M 5.136719 19.707031 C 13.320312 26.964844 25.914062 15.515625 20.824219 5.933594 C 15.675781 -3.753906 -1.363281 -1.171875 0.0859375 10.726562 C 0.515625 14.265625 2.46875 17.339844 5.136719 19.707031 Z M 5.136719 19.707031 "/>
<path style=" stroke:none;fill-rule:nonzero;fill:rgb(100%,100%,100%);fill-opacity:0.8;" d="M 11.121094 3.738281 C 7.222656 3.738281 4.0625 6.824219 4.0625 10.632812 C 4.0625 14.4375 7.222656 17.523438 11.121094 17.523438 C 15.019531 17.523438 18.179688 14.4375 18.179688 10.632812 C 18.179688 6.824219 15.019531 3.738281 11.121094 3.738281 Z M 11.121094 17.003906 C 10.695312 17.003906 10.277344 16.964844 9.875 16.886719 C 11.566406 16.425781 13.578125 15.28125 14.535156 13.445312 C 14.535156 13.445312 16.496094 10.3125 13.179688 7.488281 C 13.179688 7.488281 14.03125 8.796875 14.058594 10.113281 C 14.058594 10.113281 14.261719 11.847656 12.691406 12.929688 C 10.375 14.523438 6.769531 13.804688 5.238281 13.390625 C 4.828125 12.554688 4.59375 11.621094 4.59375 10.632812 C 4.59375 9.152344 5.113281 7.789062 5.976562 6.707031 C 6.40625 8.722656 7.292969 10.410156 7.882812 11.03125 C 8.679688 11.863281 9.84375 12.75 11.34375 12.382812 C 12.839844 12.019531 13.144531 10.421875 13.144531 10.421875 C 13.472656 9.0625 13.003906 7.445312 12.976562 7.410156 C 12.953125 7.378906 12.726562 7.339844 12.726562 7.339844 C 12.960938 9.480469 12.382812 10.429688 12.382812 10.429688 C 11.546875 12.109375 10.3125 11.589844 10.3125 11.589844 C 8.941406 10.90625 9.007812 8.984375 9.007812 8.984375 C 8.964844 7.695312 9.46875 5.59375 10.441406 4.292969 C 10.664062 4.269531 10.890625 4.253906 11.121094 4.253906 C 11.992188 4.253906 12.828125 4.425781 13.585938 4.730469 C 12.78125 5.390625 11.53125 6.636719 11.53125 6.636719 C 9.511719 8.464844 9.902344 10.003906 9.902344 10.003906 C 10.226562 11.617188 11.226562 10.527344 11.226562 10.527344 C 12.28125 9.464844 12.203125 7.347656 12.203125 7.347656 C 11.773438 7.417969 11.507812 7.648438 11.507812 7.648438 C 11.453125 9.058594 10.601562 9.933594 10.601562 9.933594 C 10.269531 10.289062 10.035156 9.949219 10.035156 9.949219 C 9.863281 9.695312 10.210938 9.515625 10.210938 9.515625 C 10.699219 9.101562 10.84375 8.390625 10.835938 8.121094 C 10.828125 7.855469 10.976562 7.78125 10.976562 7.78125 C 11.664062 7.265625 12.351562 6.957031 12.351562 6.957031 C 13.273438 6.5 14.917969 6.421875 14.917969 6.421875 C 15.308594 6.433594 15.683594 6.421875 16 6.398438 C 17.023438 7.519531 17.644531 9.003906 17.644531 10.628906 C 17.644531 14.148438 14.722656 17 11.121094 17 Z M 11.121094 17.003906 "/>
</g>
</svg>
