
<svg xmlns="http://www.w3.org/2000/svg" xmlns:xlink="http://www.w3.org/1999/xlink" width="22px" height="22px" viewBox="0 0 22 22" version="1.1">
<g id="surface1">
<path style=" stroke:none;fill-rule:nonzero;fill:rgb(43.921569%,50.196078%,56.470588%);fill-opacity:1;" d="M 18.238281 18.246094 C 9.226562 29.410156 -7.039062 13.066406 3.351562 3.1875 C 12.292969 -6.710938 29.652344 8.742188 18.238281 18.246094 "/>
<path style=" stroke:none;fill-rule:nonzero;fill:rgb(100%,100%,100%);fill-opacity:1;" d="M 5.421875 8 C 5.507812 8.179688 6.863281 9.617188 8.4375 11.195312 C 11.261719 14.03125 11.296875 14.070312 11.371094 14.617188 C 11.550781 15.941406 12.375 16.851562 13.628906 17.113281 C 14.027344 17.195312 14.785156 17.089844 14.785156 16.953125 C 14.785156 16.902344 14.433594 16.492188 14 16.042969 C 13.570312 15.589844 13.214844 15.15625 13.214844 15.078125 C 13.214844 14.722656 14.144531 13.808594 14.503906 13.808594 C 14.609375 13.808594 15.105469 14.179688 15.609375 14.632812 C 16.46875 15.40625 16.527344 15.4375 16.59375 15.199219 C 16.859375 14.292969 16.5 13.167969 15.734375 12.519531 C 15.183594 12.046875 14.695312 11.855469 14.054688 11.855469 L 13.539062 11.855469 L 10.546875 8.910156 L 7.558594 5.964844 L 6.96875 5.910156 C 6.476562 5.863281 6.316406 5.898438 5.996094 6.109375 C 5.332031 6.550781 5.097656 7.316406 5.421875 8 Z M 6.039062 7.035156 C 6.289062 6.398438 7.183594 6.398438 7.457031 7.035156 C 7.597656 7.359375 7.597656 7.445312 7.453125 7.714844 C 7.089844 8.398438 6.015625 8.160156 5.9375 7.382812 C 5.933594 7.34375 5.980469 7.1875 6.039062 7.035156 Z M 6.039062 7.035156 "/>
<path style=" stroke:none;fill-rule:nonzero;fill:rgb(100%,100%,100%);fill-opacity:1;" d="M 5.515625 16.9375 L 5.769531 17.167969 L 6.773438 16.523438 C 7.605469 15.988281 7.808594 15.800781 7.949219 15.441406 C 8.039062 15.203125 8.480469 14.625 8.921875 14.152344 L 9.726562 13.296875 L 9.132812 12.722656 L 8.265625 13.554688 C 7.785156 14.015625 7.234375 14.441406 7.03125 14.507812 C 6.679688 14.617188 6.210938 15.175781 5.503906 16.316406 L 5.261719 16.707031 Z M 5.515625 16.9375 "/>
<path style=" stroke:none;fill-rule:nonzero;fill:rgb(100%,100%,100%);fill-opacity:1;" d="M 11.796875 9.34375 C 11.914062 9.4375 12.289062 9.128906 13.53125 7.917969 C 14.796875 6.679688 15.140625 6.402344 15.253906 6.507812 C 15.367188 6.617188 15.226562 6.8125 14.558594 7.484375 C 12.074219 9.976562 12.253906 9.757812 12.488281 10.011719 C 12.699219 10.234375 12.699219 10.234375 14.277344 8.710938 C 15.144531 7.871094 15.894531 7.1875 15.941406 7.1875 C 16.1875 7.1875 15.84375 7.617188 14.53125 8.96875 C 13.746094 9.777344 13.105469 10.511719 13.105469 10.59375 C 13.105469 10.679688 13.179688 10.773438 13.277344 10.808594 C 13.394531 10.851562 13.910156 10.414062 14.929688 9.398438 C 15.746094 8.585938 16.472656 7.820312 16.546875 7.691406 C 16.835938 7.195312 16.625 6.40625 16.105469 6.054688 C 15.96875 5.960938 15.632812 5.882812 15.359375 5.882812 C 14.867188 5.882812 14.835938 5.90625 13.253906 7.425781 C 12.371094 8.273438 11.644531 9.023438 11.644531 9.09375 C 11.644531 9.164062 11.714844 9.277344 11.796875 9.34375 Z M 11.796875 9.34375 "/>
</g>
</svg>
