
<svg xmlns="http://www.w3.org/2000/svg" xmlns:xlink="http://www.w3.org/1999/xlink" width="22px" height="22px" viewBox="0 0 22 22" version="1.1">
<g id="surface1">
<path style=" stroke:none;fill-rule:nonzero;fill:rgb(12.156863%,45.490196%,54.901961%);fill-opacity:1;" d="M 21.945312 10.035156 C 23.207031 23.324219 1.898438 26.902344 0.246094 13.257812 C -1.804688 0.710938 17.511719 -5.75 21.371094 6.714844 C 21.796875 7.769531 21.785156 8.921875 21.945312 10.035156 Z M 21.945312 10.035156 "/>
<path style=" stroke:none;fill-rule:nonzero;fill:rgb(0%,0%,0%);fill-opacity:0.101961;" d="M 9.519531 5.832031 C 9.195312 5.832031 9.195312 6.875 9.195312 7.363281 C 8.730469 7.746094 8.730469 8.417969 8.730469 8.945312 C 8.730469 9.871094 9.25 10.621094 9.890625 10.621094 C 10.585938 10.621094 11.046875 10.140625 11.046875 8.703125 C 11.046875 7.746094 10.585938 7.265625 9.660156 7.265625 C 9.660156 6.753906 9.65625 5.832031 9.519531 5.832031 Z M 13.503906 5.832031 C 13.363281 5.832031 13.363281 6.753906 13.363281 7.265625 C 12.4375 7.265625 11.972656 7.746094 11.972656 8.703125 C 11.972656 9.988281 12.4375 10.621094 13.132812 10.621094 C 13.773438 10.621094 14.289062 9.871094 14.289062 8.945312 C 14.289062 8.417969 14.289062 7.746094 13.828125 7.363281 C 13.828125 6.875 13.828125 5.832031 13.503906 5.832031 M 6.183594 9.664062 C 5.953125 9.664062 5.953125 10.769531 5.953125 11.339844 C 5.953125 12.054688 6.09375 12.570312 6.410156 12.988281 C 6.824219 13.535156 7.964844 13.6875 8.398438 13.203125 C 8.617188 12.960938 8.863281 12.511719 8.632812 12.226562 L 7.34375 10.621094 C 7.175781 10.414062 6.632812 10.394531 6.414062 10.554688 C 6.414062 10.140625 6.414062 9.664062 6.183594 9.664062 M 16.839844 9.664062 C 16.609375 9.664062 16.609375 10.140625 16.609375 10.554688 C 16.390625 10.394531 15.847656 10.410156 15.683594 10.621094 L 14.390625 12.226562 C 14.160156 12.511719 14.40625 12.960938 14.625 13.203125 C 15.058594 13.6875 16.199219 13.535156 16.613281 12.988281 C 16.929688 12.570312 17.070312 12.054688 17.070312 11.339844 C 17.070312 10.769531 17.070312 9.664062 16.839844 9.664062 M 11.511719 11.097656 C 10.121094 11.097656 9.945312 12.613281 9.425781 13.492188 C 9.019531 14.183594 7.804688 14.453125 7.804688 15.167969 C 7.804688 15.886719 8.035156 16.367188 8.964844 16.367188 C 9.660156 16.367188 9.660156 15.410156 11.511719 15.410156 C 13.363281 15.410156 13.363281 16.367188 14.058594 16.367188 C 14.984375 16.367188 15.21875 15.886719 15.21875 15.167969 C 15.21875 14.453125 14.003906 14.183594 13.597656 13.492188 C 13.078125 12.613281 12.902344 11.097656 11.511719 11.097656 "/>
<path style=" stroke:none;fill-rule:nonzero;fill:rgb(97.647059%,97.647059%,97.647059%);fill-opacity:1;" d="M 9.054688 5.351562 C 8.730469 5.351562 8.730469 6.394531 8.730469 6.882812 C 8.269531 7.265625 8.269531 7.9375 8.269531 8.464844 C 8.269531 9.390625 8.789062 10.140625 9.425781 10.140625 C 10.121094 10.140625 10.585938 9.664062 10.585938 8.226562 C 10.585938 7.265625 10.121094 6.789062 9.195312 6.789062 C 9.195312 6.273438 9.195312 5.351562 9.054688 5.351562 Z M 13.039062 5.351562 C 12.902344 5.351562 12.902344 6.273438 12.902344 6.789062 C 11.972656 6.789062 11.511719 7.265625 11.511719 8.226562 C 11.511719 9.511719 11.972656 10.140625 12.671875 10.140625 C 13.308594 10.140625 13.828125 9.390625 13.828125 8.464844 C 13.828125 7.9375 13.828125 7.265625 13.363281 6.882812 C 13.363281 6.394531 13.363281 5.351562 13.039062 5.351562 M 5.71875 9.183594 C 5.488281 9.183594 5.488281 10.289062 5.488281 10.859375 C 5.488281 11.578125 5.628906 12.09375 5.949219 12.511719 C 6.359375 13.054688 7.5 13.210938 7.9375 12.726562 C 8.152344 12.484375 8.398438 12.03125 8.167969 11.746094 L 6.878906 10.140625 C 6.710938 9.933594 6.167969 9.914062 5.953125 10.078125 C 5.953125 9.664062 5.953125 9.183594 5.71875 9.183594 M 16.375 9.183594 C 16.144531 9.183594 16.144531 9.664062 16.144531 10.078125 C 15.925781 9.914062 15.382812 9.933594 15.21875 10.140625 L 13.925781 11.746094 C 13.695312 12.03125 13.945312 12.484375 14.160156 12.726562 C 14.59375 13.210938 15.734375 13.054688 16.148438 12.511719 C 16.464844 12.09375 16.609375 11.578125 16.609375 10.859375 C 16.609375 10.289062 16.609375 9.183594 16.375 9.183594 M 11.046875 10.621094 C 9.660156 10.621094 9.480469 12.136719 8.964844 13.015625 C 8.554688 13.707031 7.34375 13.972656 7.34375 14.691406 C 7.34375 15.410156 7.574219 15.886719 8.5 15.886719 C 9.195312 15.886719 9.195312 14.929688 11.046875 14.929688 C 12.902344 14.929688 12.902344 15.886719 13.597656 15.886719 C 14.523438 15.886719 14.753906 15.410156 14.753906 14.691406 C 14.753906 13.972656 13.539062 13.707031 13.132812 13.015625 C 12.613281 12.136719 12.4375 10.621094 11.046875 10.621094 "/>
</g>
</svg>
