
<svg xmlns="http://www.w3.org/2000/svg" xmlns:xlink="http://www.w3.org/1999/xlink" width="22px" height="22px" viewBox="0 0 22 22" version="1.1">
<defs>
<clipPath id="clip1">
  <path d="M 4.125 4 L 18.332031 4 L 18.332031 17.875 L 4.125 17.875 Z M 4.125 4 "/>
</clipPath>
<clipPath id="clip2">
  <path d="M 18.644531 11 C 18.644531 15.117188 15.222656 18.457031 11 18.457031 C 6.777344 18.457031 3.355469 15.117188 3.355469 11 C 3.355469 6.878906 6.777344 3.542969 11 3.542969 C 15.222656 3.542969 18.644531 6.878906 18.644531 11 Z M 18.644531 11 "/>
</clipPath>
<clipPath id="clip3">
  <path d="M 16.546875 16.429688 C 13.46875 19.433594 8.476562 19.433594 5.394531 16.429688 C 2.316406 13.425781 2.316406 8.550781 5.394531 5.550781 C 8.476562 2.546875 13.46875 2.546875 16.546875 5.550781 C 19.625 8.550781 19.625 13.425781 16.546875 16.429688 Z M 16.546875 16.429688 "/>
</clipPath>
<clipPath id="clip4">
  <path d="M 4 4.125 L 18 4.125 L 18 17.875 L 4 17.875 Z M 4 4.125 "/>
</clipPath>
<clipPath id="clip5">
  <path d="M 18.644531 11 C 18.644531 15.117188 15.222656 18.457031 11 18.457031 C 6.777344 18.457031 3.355469 15.117188 3.355469 11 C 3.355469 6.878906 6.777344 3.542969 11 3.542969 C 15.222656 3.542969 18.644531 6.878906 18.644531 11 Z M 18.644531 11 "/>
</clipPath>
<clipPath id="clip6">
  <path d="M 16.546875 16.429688 C 13.46875 19.433594 8.476562 19.433594 5.394531 16.429688 C 2.316406 13.425781 2.316406 8.550781 5.394531 5.550781 C 8.476562 2.546875 13.46875 2.546875 16.546875 5.550781 C 19.625 8.550781 19.625 13.425781 16.546875 16.429688 Z M 16.546875 16.429688 "/>
</clipPath>
<clipPath id="clip7">
  <path d="M 10.542969 3.207031 L 11.457031 3.207031 L 11.457031 18.792969 L 10.542969 18.792969 Z M 10.542969 3.207031 "/>
</clipPath>
<clipPath id="clip8">
  <path d="M 18.644531 11 C 18.644531 15.117188 15.222656 18.457031 11 18.457031 C 6.777344 18.457031 3.355469 15.117188 3.355469 11 C 3.355469 6.878906 6.777344 3.542969 11 3.542969 C 15.222656 3.542969 18.644531 6.878906 18.644531 11 Z M 18.644531 11 "/>
</clipPath>
<clipPath id="clip9">
  <path d="M 18.886719 11 C 18.886719 15.25 15.355469 18.691406 11 18.691406 C 6.644531 18.691406 3.117188 15.25 3.117188 11 C 3.117188 6.75 6.644531 3.308594 11 3.308594 C 15.355469 3.308594 18.886719 6.75 18.886719 11 Z M 18.886719 11 "/>
</clipPath>
<clipPath id="clip10">
  <path d="M 3.207031 10.542969 L 18.792969 10.542969 L 18.792969 11.457031 L 3.207031 11.457031 Z M 3.207031 10.542969 "/>
</clipPath>
<clipPath id="clip11">
  <path d="M 18.644531 11 C 18.644531 15.117188 15.222656 18.457031 11 18.457031 C 6.777344 18.457031 3.355469 15.117188 3.355469 11 C 3.355469 6.878906 6.777344 3.542969 11 3.542969 C 15.222656 3.542969 18.644531 6.878906 18.644531 11 Z M 18.644531 11 "/>
</clipPath>
<clipPath id="clip12">
  <path d="M 18.886719 11 C 18.886719 15.25 15.355469 18.691406 11 18.691406 C 6.644531 18.691406 3.117188 15.25 3.117188 11 C 3.117188 6.75 6.644531 3.308594 11 3.308594 C 15.355469 3.308594 18.886719 6.75 18.886719 11 Z M 18.886719 11 "/>
</clipPath>
<clipPath id="clip13">
  <path d="M 9.167969 4 L 18 4 L 18 12.832031 L 9.167969 12.832031 Z M 9.167969 4 "/>
</clipPath>
<clipPath id="clip14">
  <path d="M 18.644531 11 C 18.644531 15.117188 15.222656 18.457031 11 18.457031 C 6.777344 18.457031 3.355469 15.117188 3.355469 11 C 3.355469 6.878906 6.777344 3.542969 11 3.542969 C 15.222656 3.542969 18.644531 6.878906 18.644531 11 Z M 18.644531 11 "/>
</clipPath>
<clipPath id="clip15">
  <path d="M 3.667969 4 L 12.832031 4 L 12.832031 12.832031 L 3.667969 12.832031 Z M 3.667969 4 "/>
</clipPath>
<clipPath id="clip16">
  <path d="M 18.644531 11 C 18.644531 15.117188 15.222656 18.457031 11 18.457031 C 6.777344 18.457031 3.355469 15.117188 3.355469 11 C 3.355469 6.878906 6.777344 3.542969 11 3.542969 C 15.222656 3.542969 18.644531 6.878906 18.644531 11 Z M 18.644531 11 "/>
</clipPath>
<clipPath id="clip17">
  <path d="M 9.167969 9.167969 L 18 9.167969 L 18 18 L 9.167969 18 Z M 9.167969 9.167969 "/>
</clipPath>
<clipPath id="clip18">
  <path d="M 18.644531 11 C 18.644531 15.117188 15.222656 18.457031 11 18.457031 C 6.777344 18.457031 3.355469 15.117188 3.355469 11 C 3.355469 6.878906 6.777344 3.542969 11 3.542969 C 15.222656 3.542969 18.644531 6.878906 18.644531 11 Z M 18.644531 11 "/>
</clipPath>
<clipPath id="clip19">
  <path d="M 3.667969 9.167969 L 12.832031 9.167969 L 12.832031 18 L 3.667969 18 Z M 3.667969 9.167969 "/>
</clipPath>
<clipPath id="clip20">
  <path d="M 18.644531 11 C 18.644531 15.117188 15.222656 18.457031 11 18.457031 C 6.777344 18.457031 3.355469 15.117188 3.355469 11 C 3.355469 6.878906 6.777344 3.542969 11 3.542969 C 15.222656 3.542969 18.644531 6.878906 18.644531 11 Z M 18.644531 11 "/>
</clipPath>
<clipPath id="clip21">
  <path d="M 9.167969 9.167969 L 18.332031 9.167969 L 18.332031 17.875 L 9.167969 17.875 Z M 9.167969 9.167969 "/>
</clipPath>
<clipPath id="clip22">
  <path d="M 18.644531 11 C 18.644531 15.117188 15.222656 18.457031 11 18.457031 C 6.777344 18.457031 3.355469 15.117188 3.355469 11 C 3.355469 6.878906 6.777344 3.542969 11 3.542969 C 15.222656 3.542969 18.644531 6.878906 18.644531 11 Z M 18.644531 11 "/>
</clipPath>
<clipPath id="clip23">
  <path d="M 9.167969 4 L 18.332031 4 L 18.332031 12.832031 L 9.167969 12.832031 Z M 9.167969 4 "/>
</clipPath>
<clipPath id="clip24">
  <path d="M 18.644531 11 C 18.644531 15.117188 15.222656 18.457031 11 18.457031 C 6.777344 18.457031 3.355469 15.117188 3.355469 11 C 3.355469 6.878906 6.777344 3.542969 11 3.542969 C 15.222656 3.542969 18.644531 6.878906 18.644531 11 Z M 18.644531 11 "/>
</clipPath>
<clipPath id="clip25">
  <path d="M 3.667969 9.167969 L 12.832031 9.167969 L 12.832031 17.875 L 3.667969 17.875 Z M 3.667969 9.167969 "/>
</clipPath>
<clipPath id="clip26">
  <path d="M 18.644531 11 C 18.644531 15.117188 15.222656 18.457031 11 18.457031 C 6.777344 18.457031 3.355469 15.117188 3.355469 11 C 3.355469 6.878906 6.777344 3.542969 11 3.542969 C 15.222656 3.542969 18.644531 6.878906 18.644531 11 Z M 18.644531 11 "/>
</clipPath>
<clipPath id="clip27">
  <path d="M 3.667969 4 L 12.832031 4 L 12.832031 12.832031 L 3.667969 12.832031 Z M 3.667969 4 "/>
</clipPath>
<clipPath id="clip28">
  <path d="M 18.644531 11 C 18.644531 15.117188 15.222656 18.457031 11 18.457031 C 6.777344 18.457031 3.355469 15.117188 3.355469 11 C 3.355469 6.878906 6.777344 3.542969 11 3.542969 C 15.222656 3.542969 18.644531 6.878906 18.644531 11 Z M 18.644531 11 "/>
</clipPath>
</defs>
<g id="surface1">
<path style=" stroke:none;fill-rule:nonzero;fill:rgb(100%,87.058824%,67.843137%);fill-opacity:1;" d="M 0.28125 13.515625 C 4.574219 34.136719 34.125 12.003906 16.375 1.523438 C 9.476562 -2.96875 -1.929688 2.914062 0.28125 13.515625 Z M 0.28125 13.515625 "/>
<g clip-path="url(#clip1)" clip-rule="nonzero">
<g clip-path="url(#clip2)" clip-rule="nonzero">
<g clip-path="url(#clip3)" clip-rule="nonzero">
<path style="fill:none;stroke-width:3.069269;stroke-linecap:butt;stroke-linejoin:miter;stroke:rgb(83.137255%,5.882353%,5.882353%);stroke-opacity:1;stroke-miterlimit:4;" d="M 128.027821 786.81065 L 128.00195 1056.806916 " transform="matrix(0.0435583,0.042496,-0.0435583,0.042496,45.660337,-33.732425)"/>
</g>
</g>
</g>
<g clip-path="url(#clip4)" clip-rule="nonzero">
<g clip-path="url(#clip5)" clip-rule="nonzero">
<g clip-path="url(#clip6)" clip-rule="nonzero">
<path style="fill:none;stroke-width:3.069269;stroke-linecap:butt;stroke-linejoin:miter;stroke:rgb(83.137255%,5.882353%,5.882353%);stroke-opacity:1;stroke-miterlimit:4;" d="M 262.999566 924.383073 L -6.997821 924.318145 " transform="matrix(0.0435583,0.042496,-0.0435583,0.042496,45.660337,-33.732425)"/>
</g>
</g>
</g>
<g clip-path="url(#clip7)" clip-rule="nonzero">
<g clip-path="url(#clip8)" clip-rule="nonzero">
<g clip-path="url(#clip9)" clip-rule="nonzero">
<path style="fill:none;stroke-width:3.069269;stroke-linecap:butt;stroke-linejoin:miter;stroke:rgb(83.137255%,5.882353%,5.882353%);stroke-opacity:1;stroke-miterlimit:4;" d="M 127.999821 786.760611 L 127.999821 1056.825068 " transform="matrix(0.0616009,0,0,0.0600985,3.115094,-44.552664)"/>
</g>
</g>
</g>
<g clip-path="url(#clip10)" clip-rule="nonzero">
<g clip-path="url(#clip11)" clip-rule="nonzero">
<g clip-path="url(#clip12)" clip-rule="nonzero">
<path style="fill:none;stroke-width:3.069269;stroke-linecap:butt;stroke-linejoin:miter;stroke:rgb(83.137255%,5.882353%,5.882353%);stroke-opacity:1;stroke-miterlimit:4;" d="M 263.004407 924.360239 L -7.004765 924.360239 " transform="matrix(0.0616009,0,0,0.0600985,3.115094,-44.552664)"/>
</g>
</g>
</g>
<g clip-path="url(#clip13)" clip-rule="nonzero">
<g clip-path="url(#clip14)" clip-rule="nonzero">
<path style="fill:none;stroke-width:5;stroke-linecap:butt;stroke-linejoin:miter;stroke:rgb(83.137255%,5.882353%,5.882353%);stroke-opacity:1;stroke-miterlimit:4;" d="M 217.697936 833.706736 C 217.697936 882.985007 177.797834 923.011031 128.478691 923.011031 " transform="matrix(0.0597195,0,0,0.0582629,3.284353,-42.86712)"/>
</g>
</g>
<g clip-path="url(#clip15)" clip-rule="nonzero">
<g clip-path="url(#clip16)" clip-rule="nonzero">
<path style="fill:none;stroke-width:5;stroke-linecap:butt;stroke-linejoin:miter;stroke:rgb(83.137255%,5.882353%,5.882353%);stroke-opacity:1;stroke-miterlimit:4;" d="M -38.343706 833.706736 C -38.343706 882.985007 -78.309218 923.011031 -127.562951 923.011031 " transform="matrix(-0.0597195,0,0,0.0582629,3.284353,-42.86712)"/>
</g>
</g>
<g clip-path="url(#clip17)" clip-rule="nonzero">
<g clip-path="url(#clip18)" clip-rule="nonzero">
<path style="fill:none;stroke-width:5;stroke-linecap:butt;stroke-linejoin:miter;stroke:rgb(83.137255%,5.882353%,5.882353%);stroke-opacity:1;stroke-miterlimit:4;" d="M 217.697936 833.746612 C 217.697936 883.024883 177.797834 922.983862 128.478691 922.983862 " transform="matrix(0.0597195,0,0,-0.0582629,3.284353,64.912412)"/>
</g>
</g>
<g clip-path="url(#clip19)" clip-rule="nonzero">
<g clip-path="url(#clip20)" clip-rule="nonzero">
<path style="fill:none;stroke-width:5;stroke-linecap:butt;stroke-linejoin:miter;stroke:rgb(83.137255%,5.882353%,5.882353%);stroke-opacity:1;stroke-miterlimit:4;" d="M -38.343706 833.746612 C -38.343706 883.024883 -78.309218 922.983862 -127.562951 922.983862 " transform="matrix(-0.0597195,0,0,-0.0582629,3.284353,64.912412)"/>
</g>
</g>
<g clip-path="url(#clip21)" clip-rule="nonzero">
<g clip-path="url(#clip22)" clip-rule="nonzero">
<path style="fill:none;stroke-width:5;stroke-linecap:butt;stroke-linejoin:miter;stroke:rgb(83.137255%,5.882353%,5.882353%);stroke-opacity:1;stroke-miterlimit:4;" d="M 217.737875 833.723512 C 217.737875 882.977245 177.778896 922.942757 128.500625 922.942757 " transform="matrix(0,0.0582629,-0.0597195,0,66.238735,3.528809)"/>
</g>
</g>
<g clip-path="url(#clip23)" clip-rule="nonzero">
<g clip-path="url(#clip24)" clip-rule="nonzero">
<path style="fill:none;stroke-width:5;stroke-linecap:butt;stroke-linejoin:miter;stroke:rgb(83.137255%,5.882353%,5.882353%);stroke-opacity:1;stroke-miterlimit:4;" d="M -38.324741 833.723512 C -38.324741 882.977245 -78.28372 922.942757 -127.561991 922.942757 " transform="matrix(0,-0.0582629,-0.0597195,0,66.238735,3.528809)"/>
</g>
</g>
<g clip-path="url(#clip25)" clip-rule="nonzero">
<g clip-path="url(#clip26)" clip-rule="nonzero">
<path style="fill:none;stroke-width:5;stroke-linecap:butt;stroke-linejoin:miter;stroke:rgb(83.137255%,5.882353%,5.882353%);stroke-opacity:1;stroke-miterlimit:4;" d="M 217.737875 833.69556 C 217.737875 883.014703 177.778896 922.980215 128.500625 922.980215 " transform="matrix(0,0.0582629,0.0597195,0,-44.26441,3.528809)"/>
</g>
</g>
<g clip-path="url(#clip27)" clip-rule="nonzero">
<g clip-path="url(#clip28)" clip-rule="nonzero">
<path style="fill:none;stroke-width:5;stroke-linecap:butt;stroke-linejoin:miter;stroke:rgb(83.137255%,5.882353%,5.882353%);stroke-opacity:1;stroke-miterlimit:4;" d="M -38.324741 833.69556 C -38.324741 883.014703 -78.28372 922.980215 -127.561991 922.980215 " transform="matrix(0,-0.0582629,0.0597195,0,-44.26441,3.528809)"/>
</g>
</g>
</g>
</svg>
