
<svg xmlns="http://www.w3.org/2000/svg" xmlns:xlink="http://www.w3.org/1999/xlink" width="22px" height="22px" viewBox="0 0 22 22" version="1.1">
<defs>
<linearGradient id="linear0" gradientUnits="userSpaceOnUse" x1="3.838577" y1="-16.952808" x2="124.45079" y2="-16.952808" gradientTransform="matrix(0.109305,0,0,0.112857,3.966343,12.614263)">
<stop offset="0" style="stop-color:rgb(24.313725%,48.235294%,79.607843%);stop-opacity:1;"/>
<stop offset="1" style="stop-color:rgb(41.960784%,55.686275%,86.666667%);stop-opacity:1;"/>
</linearGradient>
<radialGradient id="radial0" gradientUnits="userSpaceOnUse" cx="46.972088" cy="-33.92337" fx="46.972088" fy="-33.92337" r="60.306107" gradientTransform="matrix(0.127259,0,0,0.124891,3.123031,13.022485)">
<stop offset="0" style="stop-color:rgb(100%,100%,100%);stop-opacity:1;"/>
<stop offset="0.5" style="stop-color:rgb(96.470588%,96.470588%,96.470588%);stop-opacity:1;"/>
<stop offset="1" style="stop-color:rgb(88.235294%,88.235294%,88.235294%);stop-opacity:1;"/>
</radialGradient>
</defs>
<g id="surface1">
<path style=" stroke:none;fill-rule:nonzero;fill:rgb(39.215686%,58.431373%,92.941176%);fill-opacity:1;" d="M 0.191406 10.804688 C -1.730469 1.1875 11.441406 -2.464844 18.597656 1.703125 C 24.296875 5.023438 22.667969 16.398438 14.972656 20.640625 C 7.277344 24.882812 1.730469 18.523438 0.191406 10.804688 Z M 0.191406 10.804688 "/>
<path style=" stroke:none;fill-rule:evenodd;fill:url(#linear0);" d="M 17.570312 10.699219 C 17.570312 14.460938 14.617188 17.507812 10.976562 17.507812 C 7.335938 17.507812 4.386719 14.460938 4.386719 10.699219 C 4.386719 6.941406 7.335938 3.894531 10.976562 3.894531 C 14.617188 3.894531 17.570312 6.941406 17.570312 10.699219 Z M 17.570312 10.699219 "/>
<path style=" stroke:none;fill-rule:evenodd;fill:url(#radial0);" d="M 10.976562 4.179688 C 10.191406 4.179688 9.4375 4.332031 8.742188 4.605469 C 10.65625 4.640625 11.738281 4.84375 12.71875 5.398438 C 12.800781 5.445312 12.882812 5.492188 12.960938 5.542969 C 13.203125 5.695312 13.445312 5.875 13.691406 6.074219 C 14.761719 6.941406 14.859375 8 15.769531 8.808594 C 16.320312 9.300781 16.246094 9.257812 16.5 9.257812 C 16.78125 9.257812 16.925781 8.996094 16.992188 8.710938 C 16.179688 6.082031 13.792969 4.179688 10.976562 4.179688 Z M 8.445312 5.375 C 8.3125 5.375 8.175781 5.390625 8.046875 5.417969 C 8.003906 5.429688 7.957031 5.4375 7.914062 5.453125 C 6.703125 5.785156 5.667969 7.164062 5.328125 7.796875 C 5.308594 7.839844 5.285156 7.882812 5.261719 7.929688 C 5.082031 8.324219 4.9375 8.738281 4.835938 9.171875 C 4.933594 9.042969 5.027344 8.921875 5.121094 8.808594 C 5.777344 8.015625 6.378906 7.585938 7.238281 7.585938 C 8.777344 7.585938 8.972656 8.292969 11.792969 10.191406 C 13.179688 11.125 15.285156 12.414062 17.019531 12.605469 C 17.089844 12.363281 17.148438 12.117188 17.191406 11.863281 C 16.542969 11.816406 15.957031 11.558594 15.324219 11.128906 C 15.234375 11.0625 15.144531 11 15.050781 10.933594 C 14.308594 10.378906 13.484375 9.597656 12.414062 8.628906 C 11.597656 7.886719 9.542969 5.375 8.445312 5.375 Z M 6.238281 12.824219 C 5.753906 12.824219 5.390625 13.082031 5.347656 13.652344 C 6.03125 15.039062 7.179688 16.140625 8.582031 16.734375 C 8.5625 16.707031 8.546875 16.679688 8.527344 16.648438 C 8.394531 16.4375 8.269531 16.15625 8.269531 15.832031 C 8.269531 15.449219 8.507812 15.300781 8.773438 15.300781 C 9.128906 15.300781 10.304688 15.878906 12.269531 15.878906 C 13.257812 15.878906 14.484375 15.730469 15.382812 15.375 C 15.738281 15.015625 16.050781 14.617188 16.316406 14.179688 C 15.742188 14.421875 14.679688 14.769531 13.296875 14.769531 C 10.621094 14.769531 8.183594 13.59375 7.476562 13.214844 C 7.292969 13.113281 6.8125 12.824219 6.238281 12.824219 Z M 6.238281 12.824219 "/>
</g>
</svg>
