
<svg xmlns="http://www.w3.org/2000/svg" xmlns:xlink="http://www.w3.org/1999/xlink" width="22px" height="22px" viewBox="0 0 22 22" version="1.1">
<g id="surface1">
<path style=" stroke:none;fill-rule:nonzero;fill:rgb(0%,74.901961%,100%);fill-opacity:1;" d="M 19.707031 5.136719 C 26.964844 13.320312 15.515625 25.914062 5.933594 20.824219 C -3.753906 15.675781 -1.171875 -1.363281 10.726562 0.0859375 C 14.265625 0.515625 17.339844 2.46875 19.707031 5.136719 Z M 19.707031 5.136719 "/>
<path style=" stroke:none;fill-rule:nonzero;fill:rgb(100%,100%,100%);fill-opacity:1;" d="M 11.585938 7.539062 C 11.316406 7.539062 11.101562 7.75 11.101562 8.007812 L 11.101562 9.117188 C 10.695312 9.21875 10.308594 9.375 9.957031 9.578125 L 9.148438 8.792969 C 8.960938 8.609375 8.65625 8.609375 8.464844 8.792969 L 7.671875 9.5625 C 7.480469 9.75 7.480469 10.042969 7.671875 10.226562 L 8.480469 11.011719 C 8.273438 11.351562 8.109375 11.726562 8.007812 12.121094 L 6.863281 12.121094 C 6.59375 12.121094 6.378906 12.332031 6.378906 12.589844 L 6.378906 13.683594 C 6.378906 13.941406 6.59375 14.152344 6.863281 14.152344 L 8.007812 14.152344 C 8.109375 14.546875 8.273438 14.917969 8.480469 15.257812 L 7.671875 16.042969 C 7.480469 16.226562 7.480469 16.523438 7.671875 16.707031 L 8.464844 17.476562 C 8.65625 17.660156 8.960938 17.660156 9.148438 17.476562 L 9.957031 16.691406 C 10.308594 16.894531 10.695312 17.050781 11.101562 17.152344 L 11.101562 18.261719 C 11.101562 18.523438 11.316406 18.730469 11.585938 18.730469 L 12.710938 18.730469 C 12.976562 18.730469 13.191406 18.523438 13.191406 18.261719 L 13.191406 17.152344 C 13.601562 17.050781 13.984375 16.894531 14.335938 16.691406 L 15.144531 17.476562 C 15.335938 17.660156 15.640625 17.660156 15.828125 17.476562 L 16.625 16.707031 C 16.8125 16.523438 16.8125 16.226562 16.625 16.042969 L 15.8125 15.257812 C 16.023438 14.917969 16.183594 14.546875 16.285156 14.152344 L 17.433594 14.152344 C 17.699219 14.152344 17.917969 13.941406 17.917969 13.683594 L 17.917969 12.589844 C 17.917969 12.332031 17.699219 12.121094 17.433594 12.121094 L 16.285156 12.121094 C 16.183594 11.726562 16.023438 11.351562 15.8125 11.011719 L 16.625 10.226562 C 16.8125 10.042969 16.8125 9.75 16.625 9.5625 L 15.828125 8.792969 C 15.640625 8.609375 15.335938 8.609375 15.144531 8.792969 L 14.335938 9.578125 C 13.984375 9.375 13.601562 9.21875 13.191406 9.117188 L 13.191406 8.007812 C 13.191406 7.75 12.976562 7.539062 12.710938 7.539062 Z M 12.148438 11.222656 C 13.234375 11.222656 14.117188 12.078125 14.117188 13.136719 C 14.117188 14.191406 13.234375 15.046875 12.148438 15.046875 C 11.058594 15.046875 10.175781 14.191406 10.175781 13.136719 C 10.175781 12.078125 11.058594 11.222656 12.148438 11.222656 Z M 12.148438 11.222656 "/>
<path style="fill-rule:nonzero;fill:rgb(52.941176%,80.784314%,98.039216%);fill-opacity:1;stroke-width:17.6;stroke-linecap:butt;stroke-linejoin:miter;stroke:rgb(69.019608%,87.843137%,90.196078%);stroke-opacity:1;stroke-miterlimit:4;" d="M 163.559332 127.970627 C 163.559332 147.614732 147.653139 163.578949 128.019752 163.578949 C 108.386365 163.578949 92.427677 147.614732 92.427677 127.970627 C 92.427677 108.380639 108.386365 92.470538 128.019752 92.470538 C 147.653139 92.470538 163.559332 108.380639 163.559332 127.970627 Z M 163.559332 127.970627 " transform="matrix(0.0744109,0,0,0.0721829,2.622376,3.895519)"/>
<path style=" stroke:none;fill-rule:nonzero;fill:rgb(100%,100%,100%);fill-opacity:1;" d="M 9.335938 2.292969 C 9.195312 2.25 9.042969 2.328125 9 2.46875 L 8.8125 3.070312 C 8.578125 3.054688 8.34375 3.078125 8.121094 3.128906 L 7.820312 2.566406 C 7.75 2.4375 7.585938 2.386719 7.453125 2.453125 L 6.898438 2.738281 C 6.765625 2.808594 6.71875 2.96875 6.789062 3.097656 L 7.089844 3.660156 C 6.917969 3.808594 6.769531 3.984375 6.648438 4.183594 L 6.035156 3.992188 C 5.890625 3.945312 5.738281 4.023438 5.695312 4.164062 L 5.511719 4.757812 C 5.46875 4.898438 5.546875 5.046875 5.691406 5.089844 L 6.304688 5.28125 C 6.292969 5.515625 6.316406 5.742188 6.371094 5.960938 L 5.804688 6.253906 C 5.671875 6.320312 5.625 6.480469 5.691406 6.613281 L 5.988281 7.164062 C 6.058594 7.292969 6.222656 7.347656 6.355469 7.277344 L 6.921875 6.984375 C 7.074219 7.15625 7.253906 7.304688 7.453125 7.425781 L 7.265625 8.027344 C 7.222656 8.167969 7.304688 8.316406 7.449219 8.363281 L 8.050781 8.550781 C 8.195312 8.59375 8.34375 8.519531 8.386719 8.378906 L 8.574219 7.777344 C 8.808594 7.789062 9.042969 7.769531 9.265625 7.714844 L 9.566406 8.277344 C 9.636719 8.40625 9.800781 8.460938 9.933594 8.390625 L 10.488281 8.105469 C 10.621094 8.035156 10.671875 7.878906 10.601562 7.746094 L 10.300781 7.183594 C 10.46875 7.035156 10.617188 6.859375 10.742188 6.664062 L 11.351562 6.851562 C 11.496094 6.898438 11.648438 6.820312 11.691406 6.679688 L 11.875 6.089844 C 11.921875 5.949219 11.839844 5.800781 11.695312 5.753906 L 11.082031 5.5625 C 11.09375 5.332031 11.070312 5.101562 11.015625 4.882812 L 11.582031 4.59375 C 11.714844 4.523438 11.765625 4.363281 11.695312 4.230469 L 11.398438 3.683594 C 11.328125 3.550781 11.164062 3.5 11.03125 3.566406 L 10.464844 3.859375 C 10.3125 3.691406 10.132812 3.542969 9.933594 3.417969 L 10.117188 2.816406 C 10.164062 2.675781 10.082031 2.527344 9.941406 2.480469 Z M 9.015625 4.382812 C 9.601562 4.566406 9.925781 5.175781 9.75 5.75 C 9.570312 6.324219 8.957031 6.640625 8.371094 6.460938 C 7.789062 6.277344 7.457031 5.667969 7.636719 5.09375 C 7.816406 4.519531 8.433594 4.203125 9.015625 4.382812 Z M 9.015625 4.382812 "/>
<path style="fill-rule:nonzero;fill:rgb(52.941176%,80.784314%,98.039216%);fill-opacity:1;stroke-width:17.6;stroke-linecap:butt;stroke-linejoin:miter;stroke:rgb(69.019608%,87.843137%,90.196078%);stroke-opacity:1;stroke-miterlimit:4;" d="M 163.521132 128.006982 C 163.551893 147.656787 147.64139 163.578687 128.017317 163.51325 C 108.331713 163.567116 92.480712 147.63564 92.449951 127.985836 C 92.41919 108.336032 108.329693 92.414132 128.043121 92.451239 C 147.63937 92.425702 163.579726 108.328849 163.521132 128.006982 Z M 163.521132 128.006982 " transform="matrix(0.0398514,0.0124099,-0.0121888,0.0391429,5.153071,-1.176555)"/>
</g>
</svg>
