
<svg xmlns="http://www.w3.org/2000/svg" xmlns:xlink="http://www.w3.org/1999/xlink" width="22px" height="22px" viewBox="0 0 22 22" version="1.1">
<g id="surface1">
<path style=" stroke:none;fill-rule:nonzero;fill:rgb(85.882353%,5.490196%,5.490196%);fill-opacity:1;" d="M 3.171875 18.984375 C -7.910156 10.605469 13.125 -7.824219 19.359375 3.667969 C 27.703125 16.1875 14.613281 27.628906 3.171875 18.984375 Z M 3.171875 18.984375 "/>
<path style=" stroke:none;fill-rule:nonzero;fill:rgb(100%,100%,100%);fill-opacity:1;" d="M 14.910156 5.605469 C 15.277344 5.605469 15.5 5.652344 15.636719 5.8125 C 15.769531 5.96875 15.820312 6.238281 15.816406 6.664062 C 15.8125 7.070312 15.726562 7.363281 15.539062 7.617188 C 15.347656 7.871094 15.042969 8.082031 14.574219 8.304688 C 14.210938 8.476562 13.921875 8.65625 13.695312 8.832031 C 13.472656 9.007812 13.320312 9.175781 13.25 9.324219 C 13.183594 9.476562 13.1875 9.609375 13.289062 9.699219 C 13.386719 9.789062 13.578125 9.84375 13.863281 9.84375 C 14.183594 9.84375 14.382812 9.898438 14.503906 10.074219 C 14.625 10.25 14.660156 10.542969 14.660156 11 C 14.660156 11.265625 14.652344 11.46875 14.625 11.625 C 14.59375 11.785156 14.546875 11.898438 14.457031 11.976562 C 14.277344 12.132812 13.949219 12.15625 13.347656 12.15625 C 13.074219 12.15625 12.847656 12.164062 12.648438 12.203125 C 12.449219 12.246094 12.277344 12.308594 12.117188 12.410156 C 11.800781 12.609375 11.527344 12.960938 11.167969 13.539062 C 10.933594 13.921875 10.589844 14.347656 10.21875 14.734375 C 9.84375 15.117188 9.453125 15.457031 9.121094 15.660156 C 8.792969 15.859375 8.386719 16.046875 8.015625 16.175781 C 7.640625 16.308594 7.289062 16.394531 7.050781 16.394531 C 6.699219 16.394531 6.480469 16.335938 6.351562 16.164062 C 6.226562 15.992188 6.183594 15.707031 6.183594 15.238281 C 6.183594 14.800781 6.230469 14.515625 6.339844 14.335938 C 6.453125 14.15625 6.632812 14.082031 6.90625 14.082031 C 7.144531 14.082031 7.367188 14.03125 7.582031 13.914062 C 7.792969 13.796875 8 13.605469 8.230469 13.3125 C 8.691406 12.726562 9.230469 11.730469 10.035156 10.097656 C 10.390625 9.378906 10.765625 8.738281 11.15625 8.183594 C 11.546875 7.625 11.957031 7.15625 12.375 6.773438 C 12.785156 6.390625 13.210938 6.09375 13.636719 5.894531 C 14.0625 5.699219 14.488281 5.605469 14.910156 5.605469 Z M 14.910156 5.605469 "/>
</g>
</svg>
