
<svg xmlns="http://www.w3.org/2000/svg" xmlns:xlink="http://www.w3.org/1999/xlink" width="22px" height="22px" viewBox="0 0 22 22" version="1.1">
<g id="surface1">
<path style=" stroke:none;fill-rule:nonzero;fill:rgb(100%,54.901961%,0%);fill-opacity:1;" d="M 3.851562 18.808594 C -13.492188 -4.082031 34.238281 -7.335938 18.921875 16.03125 C 15.429688 21.359375 8.445312 24.871094 3.851562 18.808594 Z M 3.851562 18.808594 "/>
<path style=" stroke:none;fill-rule:nonzero;fill:rgb(0%,0%,0%);fill-opacity:0.0980392;" d="M 12.40625 5.242188 C 10.785156 5.242188 9.632812 6.195312 9.726562 7.707031 L 9.726562 8.554688 L 9.421875 8.554688 C 8.316406 8.554688 7.851562 8.753906 7.851562 9.339844 C 7.851562 9.925781 8.316406 10.214844 9.421875 10.214844 L 9.726562 10.214844 L 9.726562 13.042969 C 8.949219 13.402344 8.460938 14.144531 8.460938 14.953125 C 8.460938 16.128906 9.476562 17.082031 10.734375 17.082031 C 11.992188 17.082031 13.011719 16.128906 13.011719 14.953125 C 13.007812 14.144531 12.519531 13.40625 11.746094 13.046875 L 11.746094 10.214844 L 12.503906 10.214844 C 13.609375 10.214844 14.023438 9.925781 14.023438 9.339844 C 14.023438 8.753906 13.609375 8.558594 12.503906 8.558594 L 11.746094 8.558594 L 11.746094 7.863281 C 11.746094 7.097656 12.027344 6.898438 12.910156 6.898438 L 13.898438 6.898438 C 14.851562 6.898438 15.285156 6.621094 15.285156 6.070312 C 15.285156 5.519531 14.875 5.242188 13.921875 5.242188 Z M 12.40625 5.242188 "/>
<path style=" stroke:none;fill-rule:nonzero;fill:rgb(99.215686%,98.431373%,98.431373%);fill-opacity:1;" d="M 11.898438 4.769531 C 10.28125 4.769531 9.21875 5.714844 9.21875 7.234375 L 9.21875 8.082031 L 8.914062 8.082031 C 7.8125 8.082031 7.347656 8.28125 7.347656 8.867188 C 7.347656 9.453125 7.8125 9.742188 8.914062 9.742188 L 9.21875 9.742188 L 9.21875 12.570312 C 8.445312 12.929688 7.953125 13.667969 7.953125 14.480469 C 7.953125 15.65625 8.972656 16.609375 10.230469 16.609375 C 11.488281 16.609375 12.503906 15.65625 12.503906 14.480469 C 12.503906 13.667969 12.015625 12.933594 11.242188 12.570312 L 11.242188 9.742188 L 12 9.742188 C 13.105469 9.742188 13.515625 9.453125 13.515625 8.867188 C 13.515625 8.28125 13.105469 8.082031 12 8.082031 L 11.242188 8.082031 L 11.242188 7.386719 C 11.242188 6.625 11.523438 6.425781 12.40625 6.425781 L 13.394531 6.425781 C 14.351562 6.425781 14.78125 6.148438 14.78125 5.597656 C 14.78125 5.046875 14.375 4.769531 13.417969 4.769531 Z M 11.898438 4.769531 "/>
<path style=" stroke:none;fill-rule:nonzero;fill:rgb(100%,84.313725%,0%);fill-opacity:1;" d="M 10.988281 14.480469 C 10.988281 14.085938 10.648438 13.769531 10.230469 13.769531 C 9.8125 13.769531 9.472656 14.085938 9.472656 14.480469 C 9.472656 14.871094 9.8125 15.1875 10.230469 15.1875 C 10.648438 15.1875 10.988281 14.871094 10.988281 14.480469 Z M 10.988281 14.480469 "/>
</g>
</svg>
