
<svg xmlns="http://www.w3.org/2000/svg" xmlns:xlink="http://www.w3.org/1999/xlink" width="22px" height="22px" viewBox="0 0 22 22" version="1.1">
<g id="surface1">
<path style=" stroke:none;fill-rule:nonzero;fill:rgb(27.45098%,50.980392%,70.588235%);fill-opacity:1;" d="M 16.863281 19.707031 C 8.679688 26.964844 -3.914062 15.515625 1.175781 5.933594 C 6.324219 -3.753906 23.363281 -1.171875 21.914062 10.726562 C 21.484375 14.265625 19.53125 17.339844 16.863281 19.707031 Z M 16.863281 19.707031 "/>
<path style=" stroke:none;fill-rule:nonzero;fill:rgb(100%,100%,100%);fill-opacity:1;" d="M 5.839844 14.042969 L 6.414062 14.042969 L 6.414062 10.921875 L 8.640625 10.921875 L 8.640625 10.304688 L 6.414062 10.304688 L 6.414062 7.84375 L 8.71875 7.84375 L 8.71875 7.21875 L 5.839844 7.21875 Z M 5.839844 14.042969 "/>
<path style=" stroke:none;fill-rule:nonzero;fill:rgb(100%,100%,100%);fill-opacity:1;" d="M 10.335938 14.042969 L 10.902344 14.042969 L 10.902344 7.84375 L 12.199219 7.84375 L 12.199219 7.21875 L 9.042969 7.21875 L 9.042969 7.84375 L 10.335938 7.84375 Z M 10.335938 14.042969 "/>
<path style=" stroke:none;fill-rule:nonzero;fill:rgb(100%,100%,100%);fill-opacity:1;" d="M 12.835938 14.042969 L 13.410156 14.042969 L 13.410156 11.285156 L 14.5 11.285156 C 15.265625 11.285156 15.679688 11.164062 16.023438 10.855469 C 16.394531 10.535156 16.597656 9.976562 16.597656 9.289062 C 16.597656 8.507812 16.347656 7.882812 15.917969 7.585938 C 15.566406 7.324219 15.136719 7.21875 14.40625 7.21875 L 12.835938 7.21875 Z M 13.410156 10.664062 L 13.410156 7.84375 L 14.210938 7.84375 C 14.863281 7.84375 15.273438 7.90625 15.5 8.042969 C 15.835938 8.25 16.015625 8.679688 16.015625 9.289062 C 16.015625 9.820312 15.84375 10.242188 15.550781 10.433594 C 15.316406 10.597656 14.984375 10.664062 14.460938 10.664062 Z M 13.410156 10.664062 "/>
</g>
</svg>
