
<svg xmlns="http://www.w3.org/2000/svg" xmlns:xlink="http://www.w3.org/1999/xlink" width="22px" height="22px" viewBox="0 0 22 22" version="1.1">
<g id="surface1">
<path style=" stroke:none;fill-rule:nonzero;fill:rgb(41.176471%,41.176471%,47.058824%);fill-opacity:1;" d="M 0.308594 10.449219 C 13.566406 -19.375 37.390625 24.378906 7.859375 21.898438 C 3.410156 21.316406 -1.257812 16.722656 0.308594 10.449219 Z M 0.308594 10.449219 "/>
<path style=" stroke:none;fill-rule:nonzero;fill:rgb(100%,100%,100%);fill-opacity:1;" d="M 5.539062 18.335938 C 5.230469 18.222656 4.964844 17.992188 4.792969 17.691406 L 4.636719 17.425781 L 4.621094 11.894531 C 4.609375 6.605469 4.613281 6.351562 4.710938 6.125 C 4.863281 5.777344 5.074219 5.546875 5.398438 5.382812 L 5.6875 5.238281 L 16.480469 5.238281 L 16.769531 5.382812 C 17.085938 5.546875 17.300781 5.773438 17.453125 6.113281 C 17.550781 6.328125 17.554688 6.636719 17.554688 11.796875 C 17.554688 16.210938 17.539062 17.296875 17.480469 17.46875 C 17.371094 17.78125 17.144531 18.054688 16.847656 18.230469 L 16.585938 18.386719 L 11.167969 18.398438 C 6.738281 18.410156 5.710938 18.398438 5.539062 18.335938 Z M 16.640625 17.929688 C 16.761719 17.863281 16.9375 17.703125 17.03125 17.570312 L 17.195312 17.332031 L 17.195312 6.277344 L 17.046875 6.046875 C 16.957031 5.910156 16.800781 5.769531 16.65625 5.695312 C 16.414062 5.578125 16.398438 5.578125 11.082031 5.578125 C 5.769531 5.578125 5.753906 5.578125 5.511719 5.695312 C 5.367188 5.769531 5.210938 5.910156 5.121094 6.046875 L 4.96875 6.277344 L 4.957031 11.671875 C 4.945312 15.363281 4.960938 17.136719 5 17.292969 C 5.070312 17.5625 5.402344 17.914062 5.667969 18.003906 C 5.804688 18.046875 7.40625 18.0625 11.140625 18.054688 C 16.378906 18.046875 16.421875 18.046875 16.640625 17.929688 Z M 7.324219 17.28125 C 7.269531 17.25 7.105469 16.960938 6.949219 16.632812 L 6.671875 16.039062 L 5.289062 16.039062 L 5.25 15.855469 C 5.191406 15.589844 5.132812 12.726562 5.117188 9.441406 C 5.105469 6.96875 5.117188 6.574219 5.191406 6.386719 C 5.308594 6.101562 5.425781 5.976562 5.691406 5.851562 C 5.902344 5.753906 6.1875 5.75 11.082031 5.75 C 15.980469 5.75 16.265625 5.753906 16.472656 5.851562 C 16.738281 5.976562 16.855469 6.101562 16.976562 6.390625 C 17.050781 6.574219 17.0625 6.960938 17.046875 9.441406 C 17.03125 12.871094 16.980469 15.472656 16.921875 15.796875 L 16.878906 16.039062 L 14.703125 16.054688 L 12.527344 16.066406 L 12.238281 16.65625 C 12.078125 16.980469 11.917969 17.265625 11.878906 17.292969 C 11.769531 17.359375 10.125 17.351562 9.996094 17.28125 C 9.933594 17.246094 9.820312 17.074219 9.742188 16.898438 L 9.597656 16.578125 L 9.449219 16.90625 C 9.367188 17.085938 9.261719 17.257812 9.21875 17.289062 C 9.109375 17.355469 7.441406 17.351562 7.324219 17.28125 Z M 11.714844 16.871094 C 11.742188 16.832031 12.460938 15.210938 13.304688 13.269531 C 14.152344 11.324219 14.941406 9.515625 15.058594 9.253906 C 15.632812 7.957031 16.070312 6.953125 16.097656 6.859375 C 16.117188 6.800781 16.09375 6.730469 16.050781 6.703125 C 15.953125 6.640625 14.777344 6.636719 14.675781 6.703125 C 14.585938 6.757812 14.71875 6.464844 12.054688 12.589844 C 11.378906 14.148438 10.929688 15.160156 10.5625 15.964844 C 10.1875 16.785156 10.15625 16.925781 10.347656 16.953125 C 10.640625 16.996094 11.660156 16.933594 11.714844 16.871094 Z M 9.078125 16.816406 C 9.121094 16.746094 9.246094 16.46875 9.355469 16.199219 C 9.464844 15.929688 9.605469 15.621094 9.664062 15.519531 C 9.796875 15.289062 10.238281 14.28125 10.382812 13.878906 C 10.441406 13.714844 10.730469 13.03125 11.027344 12.363281 C 11.324219 11.695312 11.738281 10.753906 11.945312 10.269531 C 12.15625 9.789062 12.554688 8.871094 12.835938 8.234375 C 13.523438 6.667969 13.488281 6.769531 13.390625 6.707031 C 13.261719 6.625 12.027344 6.636719 11.960938 6.722656 C 11.929688 6.761719 11.484375 7.761719 10.972656 8.941406 C 9.847656 11.535156 9.617188 12.0625 9.292969 12.757812 C 9.15625 13.054688 9.003906 13.398438 8.957031 13.523438 C 8.835938 13.847656 8.3125 15.046875 8.121094 15.445312 C 7.78125 16.160156 7.554688 16.707031 7.554688 16.824219 C 7.554688 16.941406 7.578125 16.945312 8.277344 16.945312 C 8.964844 16.945312 9 16.9375 9.078125 16.816406 Z M 7.789062 15.78125 C 7.964844 15.378906 8.109375 14.988281 8.109375 14.910156 C 8.109375 14.789062 7.394531 12.992188 7.257812 12.773438 C 7.195312 12.671875 5.839844 12.671875 5.800781 12.777344 C 5.785156 12.816406 6.089844 13.597656 6.476562 14.515625 C 6.863281 15.429688 7.214844 16.265625 7.257812 16.367188 C 7.300781 16.472656 7.367188 16.546875 7.402344 16.535156 C 7.4375 16.523438 7.613281 16.183594 7.789062 15.78125 Z M 10.457031 15.78125 C 10.632812 15.378906 10.777344 14.980469 10.777344 14.894531 C 10.777344 14.695312 10.578125 14.285156 10.480469 14.285156 C 10.398438 14.285156 9.773438 15.71875 9.777344 15.90625 C 9.777344 16.085938 10 16.558594 10.070312 16.535156 C 10.105469 16.523438 10.28125 16.183594 10.457031 15.78125 Z M 8.949219 13.109375 C 9.09375 12.769531 9.0625 12.703125 8.75 12.703125 C 8.445312 12.703125 8.40625 12.769531 8.53125 13.074219 C 8.710938 13.511719 8.78125 13.515625 8.949219 13.109375 Z M 8.949219 13.109375 "/>
</g>
</svg>
