
<svg xmlns="http://www.w3.org/2000/svg" xmlns:xlink="http://www.w3.org/1999/xlink" width="22px" height="22px" viewBox="0 0 22 22" version="1.1">
<g id="surface1">
<path style=" stroke:none;fill-rule:nonzero;fill:rgb(100%,54.901961%,0%);fill-opacity:1;" d="M 3.777344 18.242188 C -7.382812 9.304688 8.957031 -6.832031 18.835938 3.476562 C 28.734375 12.347656 13.285156 29.566406 3.777344 18.242188 Z M 3.777344 18.242188 "/>
<path style="fill-rule:evenodd;fill:rgb(100%,100%,100%);fill-opacity:1;stroke-width:1;stroke-linecap:butt;stroke-linejoin:miter;stroke:rgb(41.176471%,41.176471%,41.176471%);stroke-opacity:1;stroke-miterlimit:4;" d="M 152.524146 176.970155 C 152.524146 190.744124 141.332226 201.957548 127.517199 201.957548 C 113.702173 201.957548 102.510253 190.744124 102.510253 176.970155 C 102.510253 163.152038 113.702173 151.938614 127.517199 151.938614 C 141.332226 151.938614 152.524146 163.152038 152.524146 176.970155 Z M 152.524146 176.970155 " transform="matrix(0.0893502,0,0,0.0884821,-2.909309,-1.947757)"/>
<path style="fill-rule:evenodd;fill:rgb(48.627451%,65.098039%,82.352941%);fill-opacity:1;stroke-width:1;stroke-linecap:butt;stroke-linejoin:miter;stroke:rgb(41.176471%,41.176471%,41.176471%);stroke-opacity:1;stroke-miterlimit:4;" d="M 152.552994 176.936544 C 152.552994 190.754661 141.361073 201.968084 127.546047 201.968084 C 113.731021 201.968084 102.5391 190.754661 102.5391 176.936544 C 102.5391 163.162574 113.731021 151.94915 127.546047 151.94915 C 141.361073 151.94915 152.552994 163.162574 152.552994 176.936544 Z M 152.552994 176.936544 " transform="matrix(0.0893502,0,0,0.0884821,-2.388449,-3.206501)"/>
<path style="fill-rule:evenodd;fill:rgb(100%,100%,100%);fill-opacity:1;stroke-width:1;stroke-linecap:butt;stroke-linejoin:miter;stroke:rgb(41.176471%,41.176471%,41.176471%);stroke-opacity:1;stroke-miterlimit:4;" d="M 152.54432 176.96142 C 152.54432 190.779537 141.3524 201.948814 127.537374 201.948814 C 113.722347 201.948814 102.530427 190.779537 102.530427 176.96142 C 102.530427 163.143304 113.722347 151.92988 127.537374 151.92988 C 141.3524 151.92988 152.54432 163.143304 152.54432 176.96142 Z M 152.54432 176.96142 " transform="matrix(0.0893502,0,0,0.0884821,4.29592,-3.814171)"/>
<path style="fill-rule:evenodd;fill:rgb(94.509804%,27.058824%,27.058824%);fill-opacity:1;stroke-width:1;stroke-linecap:butt;stroke-linejoin:miter;stroke:rgb(41.176471%,41.176471%,41.176471%);stroke-opacity:1;stroke-miterlimit:4;" d="M 152.521469 176.975982 C 152.521469 190.749951 141.329549 201.963375 127.514522 201.963375 C 113.699496 201.963375 102.507576 190.749951 102.551294 176.975982 C 102.507576 163.157865 113.699496 151.944441 127.514522 151.944441 C 141.329549 151.944441 152.521469 163.157865 152.521469 176.975982 Z M 152.521469 176.975982 " transform="matrix(0.0893502,0,0,0.0884821,1.77843,-3.553741)"/>
<path style="fill-rule:evenodd;fill:rgb(100%,100%,100%);fill-opacity:1;stroke-width:1;stroke-linecap:butt;stroke-linejoin:miter;stroke:rgb(41.176471%,41.176471%,41.176471%);stroke-opacity:1;stroke-miterlimit:4;" d="M 152.542338 176.965 C 152.542338 190.783117 141.350417 201.952393 127.535391 201.952393 C 113.720364 201.952393 102.528444 190.783117 102.528444 176.965 C 102.528444 163.146883 113.720364 151.933459 127.535391 151.933459 C 141.350417 151.933459 152.542338 163.146883 152.542338 176.965 Z M 152.542338 176.965 " transform="matrix(0.0893502,0,0,0.0884821,-0.739059,-1.513707)"/>
<path style="fill-rule:evenodd;fill:rgb(100%,100%,100%);fill-opacity:1;stroke-width:1;stroke-linecap:butt;stroke-linejoin:miter;stroke:rgb(41.176471%,41.176471%,41.176471%);stroke-opacity:1;stroke-miterlimit:4;" d="M 152.538571 176.968378 C 152.538571 190.786494 141.346651 201.955771 127.531624 201.955771 C 113.716598 201.955771 102.524678 190.786494 102.524678 176.968378 C 102.524678 163.150261 113.716598 151.936837 127.531624 151.936837 C 141.346651 151.936837 152.538571 163.150261 152.538571 176.968378 Z M 152.538571 176.968378 " transform="matrix(0.0893502,0,0,0.0884821,-2.648879,-7.373381)"/>
<path style="fill-rule:evenodd;fill:rgb(94.509804%,27.058824%,27.058824%);fill-opacity:1;stroke-width:1;stroke-linecap:butt;stroke-linejoin:miter;stroke:rgb(41.176471%,41.176471%,41.176471%);stroke-opacity:1;stroke-miterlimit:4;" d="M 152.550317 176.959189 C 152.550317 190.777306 141.358397 201.946582 127.543371 201.946582 C 113.728344 201.946582 102.536424 190.777306 102.536424 176.959189 C 102.536424 163.141072 113.728344 151.927648 127.543371 151.927648 C 141.358397 151.927648 152.550317 163.141072 152.550317 176.959189 Z M 152.550317 176.959189 " transform="matrix(0.0893502,0,0,0.0884821,2.29929,-8.458505)"/>
<path style="fill-rule:evenodd;fill:rgb(61.176471%,90.196078%,32.54902%);fill-opacity:1;stroke-width:1;stroke-linecap:butt;stroke-linejoin:miter;stroke:rgb(41.176471%,41.176471%,41.176471%);stroke-opacity:1;stroke-miterlimit:4;" d="M 152.545882 176.942825 C 152.545882 190.760942 141.353961 201.974366 127.538935 201.974366 C 113.723908 201.974366 102.531988 190.760942 102.531988 176.942825 C 102.531988 163.124708 113.723908 151.955432 127.538935 151.955432 C 141.353961 151.955432 152.545882 163.124708 152.545882 176.942825 Z M 152.545882 176.942825 " transform="matrix(0.0893502,0,0,0.0884821,1.561405,-5.593776)"/>
<path style="fill-rule:evenodd;fill:rgb(100%,100%,100%);fill-opacity:1;stroke-width:1;stroke-linecap:butt;stroke-linejoin:miter;stroke:rgb(41.176471%,41.176471%,41.176471%);stroke-opacity:1;stroke-miterlimit:4;" d="M 152.546997 176.953362 C 152.546997 190.771479 141.355077 201.984903 127.54005 201.984903 C 113.725024 201.984903 102.533104 190.771479 102.533104 176.953362 C 102.533104 163.135245 113.725024 151.965968 127.54005 151.965968 C 141.355077 151.965968 152.546997 163.135245 152.546997 176.953362 Z M 152.546997 176.953362 " transform="matrix(0.0893502,0,0,0.0884821,-0.391819,-6.852521)"/>
</g>
</svg>
