
<svg xmlns="http://www.w3.org/2000/svg" xmlns:xlink="http://www.w3.org/1999/xlink" width="22px" height="22px" viewBox="0 0 22 22" version="1.1">
<g id="surface1">
<path style=" stroke:none;fill-rule:nonzero;fill:rgb(82.352941%,70.588235%,54.901961%);fill-opacity:1;" d="M 8.503906 21.621094 C -11.9375 17.363281 10.007812 -11.925781 20.398438 5.667969 C 24.851562 12.503906 19.015625 23.808594 8.503906 21.621094 Z M 8.503906 21.621094 "/>
<path style=" stroke:none;fill-rule:nonzero;fill:rgb(100%,100%,100%);fill-opacity:0.968627;" d="M 10.171875 18.113281 C 8.773438 17.894531 6.9375 16.886719 6.074219 15.863281 C 5.074219 14.679688 4.582031 13.417969 4.515625 11.882812 C 4.460938 10.566406 4.640625 9.652344 5.179688 8.535156 C 5.511719 7.851562 5.746094 7.539062 6.46875 6.8125 C 7.421875 5.863281 8.078125 5.449219 9.171875 5.109375 C 11.441406 4.40625 14.035156 5.046875 15.660156 6.707031 C 16.308594 7.371094 16.816406 8.207031 17.226562 9.265625 C 17.488281 9.953125 17.535156 10.21875 17.578125 11.242188 C 17.632812 12.613281 17.5 13.300781 16.972656 14.390625 C 16.144531 16.105469 14.53125 17.46875 12.789062 17.925781 C 12.199219 18.082031 10.671875 18.191406 10.171875 18.113281 Z M 12.066406 15.886719 C 12.359375 15.890625 12.976562 15.90625 13.4375 15.925781 C 14.15625 15.957031 14.308594 15.9375 14.480469 15.773438 C 14.957031 15.339844 14.660156 14.734375 13.65625 14.082031 C 13.242188 13.8125 13.132812 13.6875 13.132812 13.488281 C 13.132812 13.246094 13.152344 13.234375 13.496094 13.296875 C 14.761719 13.527344 15.289062 13.488281 15.464844 13.160156 C 15.65625 12.792969 15.074219 12.054688 14.152344 11.492188 C 13.941406 11.363281 13.75 11.246094 13.730469 11.234375 C 13.714844 11.21875 13.800781 10.890625 13.925781 10.496094 C 14.132812 9.851562 14.203125 9.75 14.671875 9.398438 C 15.515625 8.765625 15.660156 8.015625 15.015625 7.585938 C 14.699219 7.375 13.945312 7.40625 13.402344 7.648438 C 12.957031 7.847656 12.914062 7.851562 12.222656 7.707031 C 11.492188 7.554688 10.933594 7.589844 10.296875 7.835938 C 10.085938 7.917969 9.941406 7.898438 9.566406 7.726562 C 8.5625 7.273438 7.582031 7.53125 7.519531 8.269531 C 7.476562 8.785156 7.722656 9.171875 8.351562 9.59375 C 8.828125 9.914062 8.933594 10.039062 9.066406 10.457031 C 9.25 11.035156 9.230469 11.078125 8.492188 11.503906 C 7.734375 11.945312 7.210938 12.496094 7.210938 12.859375 C 7.210938 13.289062 7.511719 13.453125 8.300781 13.453125 C 8.660156 13.453125 8.957031 13.488281 8.957031 13.535156 C 8.957031 13.601562 8.800781 13.855469 8.15625 14.824219 C 7.828125 15.316406 8 15.769531 8.574219 15.917969 C 8.757812 15.964844 9.5 15.976562 10.222656 15.941406 C 10.941406 15.90625 11.773438 15.882812 12.066406 15.886719 Z M 12.066406 15.886719 "/>
</g>
</svg>
