
<svg xmlns="http://www.w3.org/2000/svg" xmlns:xlink="http://www.w3.org/1999/xlink" width="22px" height="22px" viewBox="0 0 22 22" version="1.1">
<defs>
<linearGradient id="linear0" gradientUnits="userSpaceOnUse" x1="18.08" y1="4" x2="18.12" y2="44" gradientTransform="matrix(0,-0.279763,0.209706,0,6.222734,16.196259)">
<stop offset="0" style="stop-color:rgb(92.54902%,94.117647%,94.509804%);stop-opacity:1;"/>
<stop offset="1" style="stop-color:rgb(100%,100%,100%);stop-opacity:1;"/>
</linearGradient>
</defs>
<g id="surface1">
<path style=" stroke:none;fill-rule:nonzero;fill:rgb(37.254902%,61.960784%,62.745098%);fill-opacity:1;" d="M 8.617188 21.941406 C 7.324219 21.828125 5.910156 21.5 4.863281 21.074219 C 1.214844 19.585938 -0.484375 16.5625 0.179688 12.738281 C 0.535156 10.683594 1.554688 8.359375 3.179688 5.902344 C 5.113281 2.964844 8.105469 0.742188 10.875 0.179688 C 11.460938 0.0625 12.566406 0.0195312 13.15625 0.0898438 C 15.128906 0.339844 16.773438 1.410156 18.28125 3.421875 C 19.722656 5.347656 20.792969 7.308594 21.394531 9.132812 C 22.636719 12.882812 21.886719 16.226562 19.261719 18.648438 C 17.417969 20.347656 14.917969 21.433594 11.855469 21.867188 C 11.394531 21.929688 9.09375 21.984375 8.621094 21.945312 Z M 8.617188 21.941406 "/>
<path style=" stroke:none;fill-rule:evenodd;fill:url(#linear0);" d="M 7.0625 16.714844 L 15.449219 16.714844 C 15.449219 14.566406 15.449219 10.742188 15.449219 8.597656 L 13.144531 5.523438 L 7.0625 5.523438 L 7.0625 6.082031 C 7.0625 9.066406 7.0625 13.726562 7.0625 16.714844 Z M 7.0625 16.714844 "/>
<path style=" stroke:none;fill-rule:nonzero;fill:rgb(74.117647%,76.470588%,78.039216%);fill-opacity:1;" d="M 13.144531 8.601562 L 15.449219 8.601562 L 13.144531 5.523438 Z M 13.144531 8.601562 "/>
<path style=" stroke:none;fill-rule:nonzero;fill:rgb(49.803922%,54.901961%,55.294118%);fill-opacity:1;" d="M 12.207031 10.558594 L 13.929688 10.558594 L 13.929688 11.117188 L 12.207031 11.117188 Z M 12.207031 10.558594 "/>
<path style=" stroke:none;fill-rule:nonzero;fill:rgb(49.803922%,54.901961%,55.294118%);fill-opacity:1;" d="M 7.902344 8.878906 L 12.09375 8.878906 L 12.09375 9.71875 L 7.902344 9.71875 Z M 7.902344 8.878906 "/>
<path style=" stroke:none;fill-rule:nonzero;fill:rgb(49.803922%,54.901961%,55.294118%);fill-opacity:1;" d="M 7.691406 10.558594 L 11.882812 10.558594 L 11.882812 11.117188 L 7.691406 11.117188 Z M 7.691406 10.558594 "/>
<path style=" stroke:none;fill-rule:nonzero;fill:rgb(49.803922%,54.901961%,55.294118%);fill-opacity:1;" d="M 10.1875 11.675781 L 14.429688 11.675781 L 14.429688 12.238281 L 10.1875 12.238281 Z M 10.1875 11.675781 "/>
<path style=" stroke:none;fill-rule:nonzero;fill:rgb(49.803922%,54.901961%,55.294118%);fill-opacity:1;" d="M 7.691406 11.675781 L 9.699219 11.675781 L 9.699219 12.238281 L 7.691406 12.238281 "/>
<path style=" stroke:none;fill-rule:nonzero;fill:rgb(49.803922%,54.901961%,55.294118%);fill-opacity:1;" d="M 10.835938 12.796875 L 14.425781 12.796875 L 14.425781 13.355469 L 10.835938 13.355469 Z M 10.835938 12.796875 "/>
<path style=" stroke:none;fill-rule:nonzero;fill:rgb(49.803922%,54.901961%,55.294118%);fill-opacity:1;" d="M 7.691406 12.796875 L 10.527344 12.796875 L 10.527344 13.355469 L 7.691406 13.355469 "/>
<path style=" stroke:none;fill-rule:nonzero;fill:rgb(100%,100%,100%);fill-opacity:1;" d="M 7.0625 5.523438 C 10.285156 5.738281 11.066406 5.785156 13.144531 5.671875 L 13.144531 5.523438 L 7.0625 5.523438 "/>
</g>
</svg>
