
<svg xmlns="http://www.w3.org/2000/svg" xmlns:xlink="http://www.w3.org/1999/xlink" width="22px" height="22px" viewBox="0 0 22 22" version="1.1">
<defs>
<linearGradient id="linear0" gradientUnits="userSpaceOnUse" x1="0" y1="543.52" x2="0" y2="503.96" gradientTransform="matrix(0.349762,0,0,0.345254,-132.210547,-169.805625)">
<stop offset="0" style="stop-color:rgb(21.568627%,56.470588%,100%);stop-opacity:1;"/>
<stop offset="1" style="stop-color:rgb(66.27451%,87.45098%,100%);stop-opacity:1;"/>
</linearGradient>
</defs>
<g id="surface1">
<path style=" stroke:none;fill-rule:nonzero;fill:rgb(52.941176%,80.784314%,98.039216%);fill-opacity:1;" d="M 10.078125 21.945312 C 23.425781 23.214844 27.015625 1.816406 13.316406 0.152344 C 0.714844 -1.90625 -5.773438 17.488281 6.746094 21.371094 C 7.804688 21.796875 8.960938 21.789062 10.078125 21.945312 Z M 10.078125 21.945312 "/>
<path style=" stroke:none;fill-rule:nonzero;fill:rgb(0%,0%,0%);fill-opacity:0.235294;" d="M 13.878906 4.363281 L 9.6875 5.445312 L 10.597656 5.792969 C 10.210938 6.414062 9.90625 7.023438 9.667969 7.621094 L 3.671875 11.003906 L 10.574219 18.023438 L 17.714844 11.035156 L 12.523438 8.238281 L 13.289062 7.21875 L 14.648438 8.09375 Z M 9.421875 8.332031 C 8.703125 10.640625 8.917969 12.835938 9.15625 15.023438 L 4.820312 10.890625 Z M 12.3125 8.601562 L 14.113281 9.648438 L 16.464844 11.011719 L 10.664062 16.140625 C 10.660156 16.054688 10.65625 15.96875 10.65625 15.882812 C 10.632812 15.492188 10.617188 15.097656 10.617188 14.707031 C 10.617188 15.097656 10.632812 15.492188 10.65625 15.882812 C 11.273438 12.359375 13.335938 11.15625 13.335938 11.15625 L 14.148438 11.792969 L 14.113281 9.648438 L 13.597656 9.347656 L 11.617188 9.761719 C 11.582031 9.828125 11.550781 9.890625 11.519531 9.957031 C 11.734375 9.496094 11.996094 9.042969 12.3125 8.601562 Z M 11.515625 9.960938 L 11.898438 10.289062 C 11.898438 10.289062 11.550781 10.421875 11.144531 10.902344 C 11.082031 11.09375 11.023438 11.285156 10.976562 11.476562 C 11.109375 10.960938 11.285156 10.457031 11.515625 9.960938 Z M 10.960938 11.53125 C 10.914062 11.722656 10.871094 11.914062 10.832031 12.109375 C 10.808594 12.21875 10.796875 12.328125 10.777344 12.4375 C 10.796875 12.328125 10.808594 12.21875 10.832031 12.109375 C 10.871094 11.914062 10.914062 11.722656 10.960938 11.53125 Z M 10.703125 12.976562 C 10.691406 13.085938 10.679688 13.195312 10.667969 13.304688 C 10.679688 13.195312 10.691406 13.085938 10.703125 12.976562 Z M 10.625 14.011719 C 10.621094 14.15625 10.617188 14.308594 10.617188 14.457031 C 10.617188 14.308594 10.621094 14.15625 10.625 14.011719 Z M 10.625 14.011719 "/>
<path style=" stroke:none;fill-rule:nonzero;fill:url(#linear0);" d="M 13.878906 4.1875 L 9.6875 5.265625 L 10.601562 5.617188 C 10.210938 6.238281 9.90625 6.847656 9.667969 7.445312 L 3.671875 10.828125 L 10.574219 17.847656 L 17.714844 10.859375 L 12.523438 8.0625 L 13.289062 7.042969 L 14.648438 7.917969 Z M 9.421875 8.15625 C 8.703125 10.464844 8.917969 12.660156 9.15625 14.847656 L 4.820312 10.710938 Z M 12.3125 8.425781 L 14.113281 9.472656 L 16.464844 10.835938 L 10.664062 15.964844 C 10.660156 15.875 10.65625 15.792969 10.65625 15.707031 C 10.632812 15.3125 10.617188 14.921875 10.617188 14.53125 C 10.621094 14.921875 10.632812 15.3125 10.65625 15.707031 C 11.273438 12.183594 13.335938 10.980469 13.335938 10.980469 L 14.148438 11.617188 L 14.113281 9.472656 L 13.597656 9.171875 L 11.617188 9.585938 C 11.582031 9.648438 11.550781 9.714844 11.519531 9.78125 C 11.734375 9.320312 11.996094 8.867188 12.3125 8.425781 Z M 11.515625 9.785156 L 11.898438 10.113281 C 11.898438 10.113281 11.550781 10.25 11.144531 10.726562 C 11.082031 10.917969 11.023438 11.109375 10.976562 11.300781 C 11.109375 10.785156 11.285156 10.277344 11.515625 9.785156 Z M 10.960938 11.355469 C 10.914062 11.546875 10.871094 11.738281 10.832031 11.933594 C 10.808594 12.042969 10.796875 12.152344 10.777344 12.261719 C 10.796875 12.152344 10.808594 12.042969 10.832031 11.933594 C 10.871094 11.738281 10.914062 11.546875 10.960938 11.355469 Z M 10.703125 12.800781 C 10.691406 12.910156 10.679688 13.019531 10.667969 13.128906 C 10.679688 13.019531 10.691406 12.910156 10.703125 12.800781 Z M 10.625 13.835938 C 10.621094 13.984375 10.617188 14.132812 10.617188 14.28125 C 10.617188 14.132812 10.621094 13.984375 10.625 13.835938 Z M 10.625 13.835938 "/>
<path style=" stroke:none;fill-rule:nonzero;fill:rgb(100%,100%,100%);fill-opacity:0.537255;" d="M 12.3125 8.425781 L 16.464844 10.832031 L 10.667969 15.964844 C 10.488281 13.296875 10.675781 10.707031 12.316406 8.425781 Z M 12.3125 8.425781 "/>
<path style=" stroke:none;fill-rule:nonzero;fill:rgb(100%,100%,100%);fill-opacity:0.537255;" d="M 9.421875 8.15625 C 8.703125 10.464844 8.917969 12.65625 9.15625 14.847656 L 4.820312 10.714844 Z M 9.421875 8.15625 "/>
<path style=" stroke:none;fill-rule:nonzero;fill:rgb(17.254902%,36.078431%,58.431373%);fill-opacity:0.313725;" d="M 4.007812 10.636719 L 3.671875 10.828125 L 10.574219 17.847656 L 17.714844 10.855469 L 17.363281 10.667969 L 10.574219 17.3125 Z M 4.007812 10.636719 "/>
</g>
</svg>
