
<svg xmlns="http://www.w3.org/2000/svg" xmlns:xlink="http://www.w3.org/1999/xlink" width="22px" height="22px" viewBox="0 0 22 22" version="1.1">
<g id="surface1">
<path style=" stroke:none;fill-rule:nonzero;fill:rgb(86.27451%,7.843137%,23.529412%);fill-opacity:1;" d="M 20.109375 4.609375 C 15.9375 -2.964844 2.867188 -0.0273438 0.65625 6.207031 C -1.980469 13.640625 4.875 27.75 16.492188 19.484375 C 20.40625 16.597656 24.277344 12.183594 20.109375 4.609375 Z M 20.109375 4.609375 "/>
<path style=" stroke:none;fill-rule:nonzero;fill:rgb(18.431373%,30.980392%,30.980392%);fill-opacity:1;" d="M 9.238281 17.128906 C 8.300781 16.871094 7.5 16.40625 6.816406 15.722656 C 6 14.902344 5.53125 13.964844 5.332031 12.761719 C 5.308594 12.613281 5.238281 12.503906 5.046875 12.324219 C 4.722656 12.023438 4.417969 11.5625 4.308594 11.210938 C 4.261719 11.058594 4.203125 10.894531 4.175781 10.847656 C 4.113281 10.730469 4.113281 9.949219 4.171875 9.832031 C 4.199219 9.78125 4.261719 9.625 4.308594 9.480469 C 4.445312 9.089844 4.769531 8.601562 5.054688 8.359375 L 5.308594 8.144531 L 5.308594 7.289062 C 5.308594 6.503906 5.316406 6.4375 5.398438 6.4375 C 5.453125 6.4375 5.515625 6.457031 5.542969 6.484375 C 5.589844 6.53125 6.382812 6.699219 6.558594 6.699219 C 6.605469 6.699219 6.644531 6.660156 6.644531 6.617188 C 6.644531 6.503906 6.96875 6.160156 7.355469 5.871094 C 7.910156 5.457031 7.980469 5.429688 9.3125 5.09375 C 9.789062 4.976562 9.957031 4.960938 10.726562 4.960938 C 11.503906 4.960938 11.660156 4.976562 12.140625 5.097656 C 12.4375 5.175781 12.828125 5.273438 13.007812 5.320312 C 13.1875 5.367188 13.429688 5.453125 13.546875 5.511719 C 14.046875 5.765625 14.808594 6.4375 14.808594 6.617188 C 14.808594 6.660156 14.847656 6.699219 14.898438 6.695312 C 15.125 6.695312 15.867188 6.53125 15.972656 6.464844 C 16.035156 6.421875 16.101562 6.386719 16.117188 6.386719 C 16.132812 6.386719 16.144531 6.769531 16.144531 7.238281 L 16.144531 8.09375 L 16.453125 8.394531 C 16.828125 8.757812 17.039062 9.074219 17.179688 9.5 C 17.269531 9.773438 17.28125 9.917969 17.265625 10.457031 C 17.25 11.066406 17.238281 11.109375 17.058594 11.492188 C 16.914062 11.78125 16.761719 11.992188 16.476562 12.28125 C 16.179688 12.585938 16.09375 12.703125 16.09375 12.820312 C 16.09375 13.089844 15.882812 13.789062 15.660156 14.265625 C 14.996094 15.6875 13.679688 16.757812 12.128906 17.152344 C 11.777344 17.238281 11.558594 17.253906 10.679688 17.25 C 9.789062 17.246094 9.589844 17.230469 9.238281 17.128906 Z M 11.667969 16.238281 C 12.125 16.132812 12.289062 16.046875 12.910156 15.597656 C 13.816406 14.945312 14.207031 14.5 14.582031 13.703125 C 14.953125 12.914062 14.964844 12.789062 14.964844 10.121094 L 14.964844 7.738281 L 14.847656 7.738281 C 14.664062 7.738281 14.050781 8.058594 13.65625 8.359375 L 13.296875 8.636719 L 13.117188 8.523438 C 12.765625 8.304688 12.179688 8.042969 11.789062 7.933594 C 11.230469 7.777344 10.222656 7.777344 9.664062 7.933594 C 9.273438 8.042969 8.6875 8.300781 8.335938 8.523438 L 8.152344 8.640625 L 7.796875 8.363281 C 7.410156 8.058594 6.792969 7.738281 6.605469 7.738281 L 6.488281 7.738281 L 6.488281 10.121094 C 6.488281 12.339844 6.496094 12.535156 6.59375 12.917969 C 6.789062 13.695312 7.21875 14.460938 7.757812 14.972656 C 8.035156 15.234375 8.828125 15.835938 9.121094 16 C 9.726562 16.34375 10.800781 16.441406 11.667969 16.238281 Z M 9.980469 15.621094 C 9.738281 15.554688 9.417969 15.402344 9.417969 15.351562 C 9.417969 15.320312 9.570312 15.019531 9.585938 15.019531 C 9.589844 15.019531 9.722656 15.070312 9.878906 15.128906 C 10.296875 15.296875 11.234375 15.296875 11.59375 15.132812 C 11.730469 15.070312 11.851562 15.019531 11.859375 15.019531 C 11.882812 15.019531 12.035156 15.3125 12.035156 15.351562 C 12.035156 15.402344 11.707031 15.554688 11.445312 15.625 C 11.128906 15.710938 10.292969 15.707031 9.980469 15.621094 Z M 10.265625 14.445312 C 9.851562 14.238281 9.523438 14.007812 9.570312 13.964844 C 9.585938 13.949219 9.769531 13.96875 9.984375 14.007812 C 10.195312 14.046875 10.527344 14.078125 10.726562 14.082031 C 11.058594 14.082031 11.828125 13.964844 11.941406 13.898438 C 11.964844 13.882812 11.984375 13.894531 11.984375 13.921875 C 11.984375 14.03125 10.917969 14.65625 10.742188 14.652344 C 10.703125 14.652344 10.492188 14.558594 10.265625 14.445312 Z M 9.003906 13.253906 C 8.597656 13.230469 8.417969 13.195312 8.257812 13.109375 C 7.964844 12.953125 7.703125 12.640625 7.574219 12.292969 C 7.414062 11.863281 7.425781 11.835938 7.703125 11.976562 C 7.820312 12.03125 8.085938 12.054688 8.835938 12.058594 L 9.816406 12.066406 L 9.972656 12.226562 C 10.160156 12.421875 10.324219 12.777344 10.371094 13.085938 L 10.40625 13.300781 L 9.976562 13.292969 C 9.738281 13.289062 9.304688 13.269531 9.003906 13.253906 Z M 11.0625 13.183594 C 11.0625 12.992188 11.207031 12.613281 11.335938 12.472656 C 11.671875 12.09375 11.625 12.109375 12.617188 12.082031 C 13.265625 12.0625 13.578125 12.03125 13.714844 11.976562 C 13.816406 11.933594 13.914062 11.910156 13.925781 11.921875 C 13.984375 11.980469 13.820312 12.527344 13.6875 12.726562 C 13.367188 13.210938 13.078125 13.300781 11.878906 13.300781 L 11.0625 13.300781 Z M 8.328125 7.300781 C 8.390625 7.164062 8.398438 7.160156 9.339844 6.917969 C 9.839844 6.792969 9.996094 6.777344 10.726562 6.777344 C 11.453125 6.78125 11.617188 6.796875 12.113281 6.925781 C 12.421875 7.003906 12.734375 7.082031 12.800781 7.09375 C 12.992188 7.132812 13.105469 7.207031 13.140625 7.324219 C 13.183594 7.457031 13.371094 7.460938 13.371094 7.324219 C 13.371094 7.269531 13.445312 7.183594 13.550781 7.121094 C 13.648438 7.0625 13.730469 6.980469 13.730469 6.9375 C 13.730469 6.839844 13.125 6.429688 12.683594 6.230469 C 11.996094 5.910156 11.628906 5.839844 10.726562 5.839844 C 9.824219 5.839844 9.457031 5.910156 8.769531 6.230469 C 8.335938 6.425781 7.722656 6.839844 7.722656 6.933594 C 7.722656 6.972656 7.792969 7.042969 7.878906 7.089844 C 7.964844 7.132812 8.054688 7.226562 8.082031 7.296875 C 8.140625 7.460938 8.253906 7.460938 8.328125 7.300781 Z M 8.328125 7.300781 "/>
<path style=" stroke:none;fill-rule:nonzero;fill:rgb(41.176471%,41.176471%,41.176471%);fill-opacity:1;" d="M 9.820312 17.179688 C 9.765625 17.136719 9.671875 17.101562 9.613281 17.101562 C 9.21875 17.101562 8.03125 16.523438 7.445312 16.039062 C 6.449219 15.222656 5.863281 14.15625 5.667969 12.828125 C 5.644531 12.675781 5.5625 12.554688 5.289062 12.269531 C 4.941406 11.90625 4.59375 11.300781 4.59375 11.054688 C 4.59375 10.921875 4.492188 10.683594 4.4375 10.683594 C 4.414062 10.683594 4.394531 10.648438 4.394531 10.609375 C 4.394531 10.566406 4.417969 10.53125 4.445312 10.53125 C 4.472656 10.53125 4.492188 10.484375 4.492188 10.425781 C 4.492188 10.371094 4.472656 10.324219 4.445312 10.324219 C 4.363281 10.324219 4.386719 10.230469 4.492188 10.117188 C 4.550781 10.0625 4.597656 9.964844 4.597656 9.902344 C 4.597656 9.796875 4.601562 9.796875 4.648438 9.878906 C 4.679688 9.925781 4.6875 10.007812 4.671875 10.058594 C 4.636719 10.179688 4.855469 10.871094 5.050781 11.265625 C 5.152344 11.460938 5.355469 11.722656 5.578125 11.949219 C 5.9375 12.308594 5.945312 12.320312 5.945312 12.570312 C 5.945312 13.015625 6.308594 13.984375 6.707031 14.585938 C 7.253906 15.421875 8.035156 16.054688 8.984375 16.445312 C 9.5625 16.679688 9.960938 16.746094 10.816406 16.746094 C 11.882812 16.746094 12.324219 16.640625 13.179688 16.179688 C 14.039062 15.71875 14.679688 15.070312 15.148438 14.203125 C 15.425781 13.683594 15.6875 12.878906 15.6875 12.542969 C 15.6875 12.296875 15.695312 12.285156 15.953125 12.078125 C 16.097656 11.964844 16.285156 11.769531 16.371094 11.648438 C 16.625 11.277344 16.875 10.722656 16.90625 10.453125 C 16.960938 10.023438 16.992188 9.914062 17.058594 9.914062 C 17.160156 9.914062 17.1875 10.039062 17.183594 10.472656 C 17.183594 10.734375 17.160156 10.898438 17.109375 10.964844 C 17.070312 11.019531 17.039062 11.109375 17.039062 11.160156 C 17.039062 11.371094 16.714844 11.898438 16.355469 12.265625 C 16.070312 12.5625 15.984375 12.691406 15.964844 12.835938 C 15.832031 13.746094 15.550781 14.421875 14.996094 15.1875 C 14.359375 16.054688 13.226562 16.824219 12.238281 17.050781 C 12.089844 17.082031 11.902344 17.144531 11.824219 17.1875 C 11.617188 17.292969 9.957031 17.285156 9.820312 17.179688 Z M 10.289062 15.605469 C 9.832031 15.472656 9.734375 15.4375 9.6875 15.378906 C 9.597656 15.265625 9.71875 15.253906 9.996094 15.34375 C 10.363281 15.460938 11.371094 15.460938 11.683594 15.339844 C 11.800781 15.292969 11.921875 15.269531 11.945312 15.285156 C 12.140625 15.410156 11.351562 15.667969 10.800781 15.660156 C 10.617188 15.65625 10.386719 15.632812 10.289062 15.605469 Z M 10.382812 14.394531 C 10.011719 14.203125 10.003906 14.105469 10.371094 14.226562 C 10.464844 14.261719 10.679688 14.289062 10.839844 14.289062 C 11 14.289062 11.214844 14.261719 11.3125 14.226562 C 11.40625 14.195312 11.527344 14.175781 11.578125 14.1875 C 11.675781 14.207031 10.980469 14.585938 10.839844 14.585938 C 10.792969 14.585938 10.589844 14.5 10.382812 14.394531 Z M 9.464844 13.226562 C 8.554688 13.167969 8.449219 13.140625 8.179688 12.894531 C 8.007812 12.742188 7.773438 12.316406 7.800781 12.21875 C 7.8125 12.191406 7.953125 12.257812 8.117188 12.359375 C 8.757812 12.765625 8.820312 12.789062 9.316406 12.789062 C 9.671875 12.789062 9.8125 12.8125 9.96875 12.890625 C 10.078125 12.949219 10.195312 12.984375 10.230469 12.972656 C 10.308594 12.941406 10.429688 13.1875 10.363281 13.242188 C 10.335938 13.261719 9.933594 13.253906 9.46875 13.226562 Z M 11.214844 13.253906 C 11.171875 13.179688 11.316406 13.0625 11.589844 12.941406 C 11.796875 12.851562 12 12.816406 12.414062 12.792969 C 12.71875 12.777344 13 12.742188 13.039062 12.714844 C 13.082031 12.6875 13.265625 12.554688 13.453125 12.414062 C 13.640625 12.273438 13.804688 12.171875 13.816406 12.1875 C 13.875 12.246094 13.703125 12.65625 13.546875 12.847656 C 13.308594 13.132812 13.132812 13.210938 12.667969 13.230469 C 11.476562 13.285156 11.238281 13.289062 11.214844 13.253906 Z M 6.605469 12.957031 C 6.394531 12.382812 6.394531 12.359375 6.394531 10.074219 C 6.394531 8.65625 6.375 7.855469 6.34375 7.835938 C 6.242188 7.769531 6.292969 7.511719 6.425781 7.402344 C 6.683594 7.191406 7.125 7.3125 7.878906 7.800781 C 8.105469 7.945312 8.3125 8.066406 8.34375 8.066406 C 8.371094 8.066406 8.582031 7.972656 8.8125 7.863281 C 9.4375 7.558594 9.875 7.445312 10.566406 7.414062 C 11.472656 7.367188 12.054688 7.488281 12.875 7.890625 C 13.074219 7.988281 13.265625 8.066406 13.300781 8.066406 C 13.335938 8.066406 13.484375 7.980469 13.632812 7.882812 C 14.082031 7.570312 14.585938 7.332031 14.84375 7.304688 C 15.054688 7.285156 15.113281 7.300781 15.214844 7.398438 C 15.339844 7.519531 15.382812 7.773438 15.289062 7.835938 C 15.253906 7.855469 15.238281 8.652344 15.238281 10.058594 L 15.238281 12.25 L 15.105469 12.675781 C 15.035156 12.910156 14.96875 13.09375 14.960938 13.085938 C 14.953125 13.078125 14.96875 12.875 14.992188 12.632812 C 15.039062 12.132812 15.054688 7.960938 15.007812 7.839844 C 14.992188 7.792969 14.921875 7.757812 14.851562 7.757812 C 14.667969 7.757812 14.023438 8.09375 13.644531 8.386719 L 13.316406 8.644531 L 13.164062 8.550781 C 13.011719 8.460938 12.496094 8.191406 12.3125 8.109375 C 11.722656 7.84375 10.550781 7.777344 9.800781 7.96875 C 9.382812 8.074219 8.859375 8.300781 8.492188 8.53125 L 8.316406 8.644531 L 7.984375 8.386719 C 7.609375 8.09375 6.960938 7.757812 6.777344 7.757812 C 6.707031 7.757812 6.640625 7.792969 6.621094 7.839844 C 6.578125 7.960938 6.59375 12.191406 6.640625 12.660156 C 6.664062 12.886719 6.675781 13.078125 6.667969 13.085938 C 6.660156 13.09375 6.632812 13.035156 6.605469 12.957031 Z M 5.644531 7.5 C 5.644531 7.105469 5.664062 6.78125 5.683594 6.78125 C 5.8125 6.78125 5.84375 6.9375 5.84375 7.5625 C 5.84375 8.1875 5.839844 8.21875 5.742188 8.21875 C 5.648438 8.21875 5.644531 8.1875 5.644531 7.5 Z M 15.824219 8.1875 C 15.804688 8.167969 15.789062 7.886719 15.789062 7.566406 C 15.789062 7.117188 15.804688 6.957031 15.867188 6.855469 C 15.914062 6.789062 15.96875 6.730469 15.996094 6.730469 C 16.019531 6.730469 16.035156 7.046875 16.027344 7.460938 C 16.015625 8.074219 16 8.195312 15.933594 8.207031 C 15.894531 8.214844 15.839844 8.207031 15.824219 8.1875 Z M 7.519531 7.007812 C 7.398438 6.878906 7.535156 6.679688 7.953125 6.386719 C 9.070312 5.59375 10.304688 5.304688 11.617188 5.519531 C 12.117188 5.605469 12.628906 5.773438 13.039062 5.984375 C 13.398438 6.171875 14.027344 6.617188 14.117188 6.75 C 14.222656 6.910156 14.203125 7.03125 14.066406 7.066406 C 13.976562 7.089844 13.886719 7.050781 13.6875 6.886719 C 13.171875 6.46875 12.5625 6.164062 11.863281 5.980469 C 11.378906 5.851562 10.253906 5.851562 9.765625 5.980469 C 9.070312 6.164062 8.332031 6.535156 7.890625 6.921875 C 7.675781 7.109375 7.632812 7.121094 7.519531 7.007812 Z M 7.519531 7.007812 "/>
</g>
</svg>
