
<svg xmlns="http://www.w3.org/2000/svg" xmlns:xlink="http://www.w3.org/1999/xlink" width="22px" height="22px" viewBox="0 0 22 22" version="1.1">
<defs>
<linearGradient id="linear0" gradientUnits="userSpaceOnUse" x1="-37.555" y1="0" x2="-25.701" y2="0" gradientTransform="matrix(0.852473,0,0,0.835615,38.304062,-325.997891)">
<stop offset="0" style="stop-color:rgb(18.039216%,56.862745%,80%);stop-opacity:1;"/>
<stop offset="1" style="stop-color:rgb(43.137255%,72.54902%,100%);stop-opacity:1;"/>
</linearGradient>
<linearGradient id="linear1" gradientUnits="userSpaceOnUse" x1="-27.28" y1="407.16" x2="-27.338" y2="410.26" gradientTransform="matrix(0.852473,0,0,0.835615,38.304062,-325.997891)">
<stop offset="0" style="stop-color:rgb(18.039216%,56.862745%,80%);stop-opacity:1;"/>
<stop offset="1" style="stop-color:rgb(43.137255%,72.54902%,100%);stop-opacity:1;"/>
</linearGradient>
</defs>
<g id="surface1">
<path style=" stroke:none;fill-rule:nonzero;fill:rgb(48.235294%,40.784314%,93.333333%);fill-opacity:1;" d="M 1.8125 17.46875 C 6.019531 25.074219 19.203125 22.121094 21.433594 15.855469 C 24.089844 8.398438 17.171875 -5.773438 5.457031 2.527344 C 1.511719 5.425781 -2.394531 9.859375 1.8125 17.46875 Z M 1.8125 17.46875 "/>
<path style=" stroke:none;fill-rule:nonzero;fill:url(#linear0);" d="M 6.289062 7.386719 L 16.394531 7.386719 L 16.394531 14.226562 L 6.289062 14.226562 Z M 6.289062 7.386719 "/>
<path style=" stroke:none;fill-rule:nonzero;fill:url(#linear1);" d="M 13.75 16.824219 L 16.394531 14.226562 L 13.75 14.226562 Z M 13.75 16.824219 "/>
<path style=" stroke:none;fill-rule:nonzero;fill:rgb(100%,100%,100%);fill-opacity:1;" d="M 9.371094 10.644531 C 9.371094 10.867188 9.324219 11.039062 9.222656 11.160156 C 9.121094 11.261719 8.972656 11.308594 8.769531 11.308594 C 8.570312 11.308594 8.421875 11.257812 8.320312 11.160156 C 8.21875 11.039062 8.167969 10.867188 8.167969 10.644531 C 8.167969 10.425781 8.21875 10.265625 8.320312 10.167969 C 8.421875 10.070312 8.570312 10.019531 8.769531 10.019531 C 8.972656 10.019531 9.121094 10.070312 9.222656 10.167969 C 9.324219 10.265625 9.371094 10.425781 9.371094 10.644531 "/>
<path style=" stroke:none;fill-rule:nonzero;fill:rgb(100%,100%,100%);fill-opacity:1;" d="M 11.96875 10.644531 C 11.96875 10.867188 11.914062 11.039062 11.816406 11.160156 C 11.714844 11.261719 11.566406 11.308594 11.367188 11.308594 C 11.164062 11.308594 11.015625 11.257812 10.914062 11.160156 C 10.8125 11.039062 10.765625 10.867188 10.765625 10.644531 C 10.765625 10.425781 10.8125 10.265625 10.914062 10.167969 C 11.015625 10.070312 11.164062 10.019531 11.367188 10.019531 C 11.566406 10.019531 11.714844 10.070312 11.816406 10.167969 C 11.917969 10.265625 11.96875 10.425781 11.96875 10.644531 "/>
<path style=" stroke:none;fill-rule:nonzero;fill:rgb(100%,100%,100%);fill-opacity:1;" d="M 14.558594 10.644531 C 14.558594 10.867188 14.507812 11.039062 14.410156 11.160156 C 14.308594 11.261719 14.160156 11.308594 13.960938 11.308594 C 13.757812 11.308594 13.609375 11.257812 13.507812 11.160156 C 13.40625 11.039062 13.359375 10.867188 13.359375 10.644531 C 13.359375 10.425781 13.40625 10.265625 13.507812 10.167969 C 13.609375 10.070312 13.757812 10.019531 13.960938 10.019531 C 14.160156 10.019531 14.308594 10.070312 14.410156 10.167969 C 14.511719 10.265625 14.558594 10.425781 14.558594 10.644531 "/>
</g>
</svg>
