
<svg xmlns="http://www.w3.org/2000/svg" xmlns:xlink="http://www.w3.org/1999/xlink" width="22px" height="22px" viewBox="0 0 22 22" version="1.1">
<g id="surface1">
<path style=" stroke:none;fill-rule:nonzero;fill:rgb(100%,27.058824%,0%);fill-opacity:1;" d="M 14.527344 7.667969 C 14.527344 8.71875 13.683594 9.570312 12.644531 9.570312 C 11.601562 9.570312 10.757812 8.71875 10.757812 7.667969 C 10.757812 6.617188 11.601562 5.765625 12.644531 5.765625 C 13.683594 5.765625 14.527344 6.617188 14.527344 7.667969 Z M 14.527344 7.667969 "/>
<path style=" stroke:none;fill-rule:nonzero;fill:rgb(100%,27.058824%,0%);fill-opacity:1;" d="M 14.753906 14.347656 C 14.753906 15.398438 13.90625 16.246094 12.867188 16.246094 C 11.824219 16.246094 10.980469 15.394531 10.980469 14.347656 C 10.980469 13.296875 11.828125 12.445312 12.867188 12.445312 C 13.910156 12.445312 14.753906 13.296875 14.753906 14.347656 Z M 14.753906 14.347656 "/>
<path style=" stroke:none;fill-rule:nonzero;fill:rgb(100%,27.058824%,0%);fill-opacity:1;" d="M 7.523438 10.695312 C 7.523438 11.742188 6.679688 12.59375 5.636719 12.59375 C 4.597656 12.59375 3.753906 11.742188 3.753906 10.695312 C 3.753906 9.644531 4.597656 8.792969 5.636719 8.792969 C 6.679688 8.792969 7.523438 9.644531 7.523438 10.695312 Z M 7.523438 10.695312 "/>
<path style=" stroke:none;fill-rule:nonzero;fill:rgb(56.078431%,73.72549%,56.078431%);fill-opacity:1;" d="M 2.304688 4.566406 C -8.550781 20.90625 26.070312 30.96875 21.484375 9.847656 C 19.53125 1.117188 7.28125 -4.179688 2.304688 4.566406 Z M 2.304688 4.566406 "/>
<path style=" stroke:none;fill-rule:evenodd;fill:rgb(100%,100%,100%);fill-opacity:1;" d="M 12.027344 17.453125 C 11.859375 17.4375 11.71875 17.394531 11.71875 17.359375 C 11.71875 17.328125 11.535156 17.25 11.304688 17.195312 C 11.082031 17.136719 10.875 17.039062 10.851562 16.972656 C 10.828125 16.914062 10.765625 16.863281 10.710938 16.863281 C 10.582031 16.863281 9.929688 16.214844 9.929688 16.085938 C 9.929688 16.027344 9.875 15.964844 9.8125 15.941406 C 9.746094 15.914062 9.648438 15.738281 9.59375 15.542969 C 9.539062 15.351562 9.457031 15.148438 9.417969 15.09375 C 9.320312 14.964844 9.320312 13.683594 9.417969 13.617188 C 9.457031 13.589844 9.53125 13.421875 9.585938 13.238281 C 9.777344 12.585938 10.816406 11.574219 11.300781 11.574219 C 11.34375 11.574219 11.394531 11.539062 11.40625 11.496094 C 11.421875 11.453125 11.664062 11.382812 11.945312 11.335938 C 12.480469 11.25 13.445312 11.347656 13.496094 11.496094 C 13.511719 11.539062 13.578125 11.574219 13.644531 11.574219 C 14.03125 11.574219 14.949219 12.414062 15.261719 13.050781 C 15.679688 13.898438 15.671875 14.875 15.242188 15.722656 C 15.015625 16.171875 14.382812 16.863281 14.195312 16.863281 C 14.140625 16.863281 14.078125 16.914062 14.050781 16.980469 C 14.027344 17.042969 13.851562 17.140625 13.65625 17.191406 C 13.464844 17.242188 13.269531 17.3125 13.226562 17.347656 C 13.117188 17.429688 12.40625 17.492188 12.027344 17.453125 Z M 12.027344 17.453125 "/>
<path style=" stroke:none;fill-rule:evenodd;fill:rgb(100%,100%,100%);fill-opacity:1;" d="M 7.957031 14.8125 L 7.574219 14.40625 L 7.519531 13.589844 C 7.488281 13.136719 7.464844 12.21875 7.464844 11.542969 L 7.464844 10.3125 L 7.882812 9.917969 C 8.339844 9.492188 8.410156 9.210938 8.070312 9.160156 C 7.964844 9.148438 7.882812 9.101562 7.882812 9.058594 C 7.882812 9.015625 7.730469 8.980469 7.546875 8.980469 C 7.273438 8.980469 7.214844 9.007812 7.214844 9.140625 C 7.214844 9.441406 7.113281 9.5625 6.871094 9.5625 L 6.628906 9.5625 L 6.628906 10.269531 C 6.628906 10.890625 6.644531 10.980469 6.773438 10.980469 C 6.992188 10.980469 7.109375 11.082031 7.171875 11.320312 C 7.261719 11.679688 7.046875 11.8125 6.378906 11.8125 C 5.769531 11.8125 5.542969 11.699219 5.542969 11.394531 C 5.542969 11.214844 5.753906 10.976562 5.921875 10.976562 C 6.015625 10.976562 6.042969 10.828125 6.042969 10.269531 L 6.042969 9.5625 L 5.535156 9.5625 L 5.582031 6.9375 L 5.8125 6.910156 C 6.023438 6.886719 6.042969 6.855469 6.042969 6.515625 C 6.042969 6.3125 6.011719 6.144531 5.972656 6.144531 C 5.839844 6.144531 5.542969 5.800781 5.542969 5.648438 C 5.542969 5.347656 5.769531 5.230469 6.359375 5.230469 C 7 5.234375 7.09375 5.273438 7.171875 5.574219 C 7.214844 5.742188 7.179688 5.835938 7.035156 5.972656 C 6.933594 6.066406 6.796875 6.144531 6.738281 6.144531 C 6.660156 6.144531 6.628906 6.269531 6.628906 6.519531 C 6.628906 6.855469 6.648438 6.894531 6.820312 6.894531 C 7.078125 6.894531 7.214844 7.046875 7.214844 7.328125 C 7.214844 7.546875 7.238281 7.5625 7.539062 7.5625 C 7.820312 7.5625 7.875 7.535156 7.898438 7.375 C 7.914062 7.257812 7.992188 7.175781 8.101562 7.164062 C 8.222656 7.144531 8.296875 7.058594 8.332031 6.890625 L 8.378906 6.644531 L 9.042969 6.644531 C 9.777344 6.644531 9.804688 6.667969 9.804688 7.238281 L 9.804688 7.5625 L 10.179688 7.5625 C 10.480469 7.5625 10.570312 7.527344 10.648438 7.375 C 10.703125 7.273438 10.757812 7.175781 10.773438 7.15625 C 10.816406 7.109375 11.058594 7.375 11.058594 7.472656 C 11.058594 7.523438 11.199219 7.5625 11.375 7.5625 C 11.613281 7.5625 11.726562 7.511719 11.84375 7.355469 C 12.042969 7.089844 12.128906 7.089844 12.195312 7.355469 C 12.242188 7.539062 12.292969 7.5625 12.613281 7.5625 C 12.851562 7.5625 12.980469 7.527344 12.984375 7.457031 C 12.984375 7.402344 13.019531 7.300781 13.0625 7.234375 C 13.128906 7.128906 13.164062 7.132812 13.308594 7.265625 C 13.402344 7.347656 13.460938 7.453125 13.433594 7.492188 C 13.410156 7.53125 13.542969 7.5625 13.730469 7.5625 C 14.015625 7.5625 14.089844 7.527344 14.167969 7.355469 C 14.222656 7.238281 14.289062 7.148438 14.320312 7.148438 C 14.421875 7.148438 14.65625 7.449219 14.597656 7.507812 C 14.566406 7.539062 14.660156 7.5625 14.804688 7.5625 C 15.058594 7.5625 15.0625 7.554688 15.089844 7.125 L 15.113281 6.6875 L 15.773438 6.664062 C 16.25 6.644531 16.457031 6.667969 16.503906 6.746094 C 16.542969 6.808594 16.574219 7.46875 16.574219 8.222656 L 16.578125 9.585938 L 17.328125 10.296875 L 17.328125 14.476562 L 17.066406 14.707031 C 16.917969 14.832031 16.742188 15.003906 16.671875 15.082031 C 16.597656 15.164062 16.472656 15.230469 16.390625 15.230469 C 16.253906 15.230469 16.242188 15.074219 16.242188 12.855469 C 16.242188 11.0625 16.21875 10.464844 16.136719 10.402344 C 16.082031 10.355469 15.847656 10.148438 15.617188 9.941406 C 15.386719 9.734375 15.167969 9.5625 15.136719 9.5625 C 15.101562 9.5625 15.074219 9.429688 15.074219 9.269531 C 15.074219 8.980469 15.070312 8.980469 14.703125 8.980469 C 14.40625 8.980469 14.320312 9.011719 14.277344 9.148438 C 14.210938 9.363281 13.929688 9.363281 13.859375 9.148438 C 13.785156 8.90625 13.183594 8.90625 13.105469 9.148438 C 13.039062 9.359375 12.847656 9.359375 12.710938 9.148438 C 12.632812 9.023438 12.515625 8.980469 12.25 8.980469 C 11.949219 8.980469 11.894531 9.003906 11.894531 9.148438 C 11.894531 9.367188 11.589844 9.367188 11.519531 9.148438 C 11.445312 8.914062 10.894531 8.914062 10.722656 9.148438 C 10.570312 9.359375 10.417969 9.359375 10.347656 9.148438 C 10.3125 9.027344 10.222656 8.980469 10.050781 8.980469 C 9.835938 8.980469 9.804688 9.007812 9.804688 9.21875 C 9.804688 9.351562 9.726562 9.53125 9.617188 9.636719 C 9.238281 10.003906 8.675781 10.476562 8.613281 10.480469 C 8.578125 10.480469 8.550781 11.546875 8.550781 12.855469 C 8.550781 14.699219 8.527344 15.230469 8.445312 15.226562 C 8.386719 15.222656 8.167969 15.039062 7.957031 14.8125 Z M 9.472656 7.105469 C 9.472656 6.917969 9.4375 6.894531 9.132812 6.894531 C 8.945312 6.894531 8.746094 6.941406 8.683594 6.996094 C 8.511719 7.160156 8.714844 7.304688 9.113281 7.308594 C 9.4375 7.3125 9.472656 7.292969 9.472656 7.105469 Z M 9.472656 7.105469 "/>
</g>
</svg>
