
<svg xmlns="http://www.w3.org/2000/svg" xmlns:xlink="http://www.w3.org/1999/xlink" width="22px" height="22px" viewBox="0 0 22 22" version="1.1">
<g id="surface1">
<path style=" stroke:none;fill-rule:nonzero;fill:rgb(18.431373%,30.980392%,30.980392%);fill-opacity:1;" d="M 8.617188 21.941406 C 7.324219 21.828125 5.910156 21.5 4.863281 21.074219 C 1.214844 19.585938 -0.484375 16.5625 0.179688 12.738281 C 0.535156 10.683594 1.554688 8.359375 3.179688 5.902344 C 5.113281 2.964844 8.105469 0.742188 10.875 0.179688 C 11.460938 0.0625 12.566406 0.0195312 13.15625 0.0898438 C 15.128906 0.339844 16.773438 1.410156 18.28125 3.421875 C 19.722656 5.347656 20.792969 7.308594 21.394531 9.132812 C 22.636719 12.882812 21.886719 16.226562 19.261719 18.648438 C 17.417969 20.347656 14.917969 21.433594 11.855469 21.867188 C 11.394531 86.578125 9.09375 21.984375 8.621094 100.242188 "/>
<path style=" stroke:none;fill-rule:nonzero;fill:rgb(25.882353%,25.882353%,25.882353%);fill-opacity:1;" d="M 5.734375 6.09375 L 16.683594 6.09375 L 16.683594 17.355469 L 5.734375 17.355469 Z M 5.734375 6.09375 "/>
<path style=" stroke:none;fill-rule:nonzero;fill:rgb(25.882353%,25.882353%,25.882353%);fill-opacity:1;" d="M 6.902344 7.382812 L 15.53125 7.382812 L 15.53125 16.105469 L 6.902344 16.105469 Z M 6.902344 7.382812 "/>
<path style=" stroke:none;fill-rule:nonzero;fill:rgb(80%,80%,80%);fill-opacity:1;" d="M 5.824219 15.558594 L 6.902344 15.558594 L 6.902344 15.832031 L 5.824219 15.832031 Z M 5.824219 15.558594 "/>
<path style=" stroke:none;fill-rule:nonzero;fill:rgb(80%,80%,80%);fill-opacity:1;" d="M 5.824219 15.011719 L 6.902344 15.011719 L 6.902344 15.285156 L 5.824219 15.285156 Z M 5.824219 15.011719 "/>
<path style=" stroke:none;fill-rule:nonzero;fill:rgb(80%,80%,80%);fill-opacity:1;" d="M 5.824219 14.46875 L 6.902344 14.46875 L 6.902344 14.738281 L 5.824219 14.738281 Z M 5.824219 14.46875 "/>
<path style=" stroke:none;fill-rule:nonzero;fill:rgb(80%,80%,80%);fill-opacity:1;" d="M 5.824219 13.921875 L 6.902344 13.921875 L 6.902344 14.195312 L 5.824219 14.195312 Z M 5.824219 13.921875 "/>
<path style=" stroke:none;fill-rule:nonzero;fill:rgb(80%,80%,80%);fill-opacity:1;" d="M 5.824219 13.378906 L 6.902344 13.378906 L 6.902344 13.648438 L 5.824219 13.648438 Z M 5.824219 13.378906 "/>
<path style=" stroke:none;fill-rule:nonzero;fill:rgb(80%,80%,80%);fill-opacity:1;" d="M 5.824219 12.832031 L 6.902344 12.832031 L 6.902344 13.105469 L 5.824219 13.105469 Z M 5.824219 12.832031 "/>
<path style=" stroke:none;fill-rule:nonzero;fill:rgb(80%,80%,80%);fill-opacity:1;" d="M 5.824219 12.289062 L 6.902344 12.289062 L 6.902344 12.558594 L 5.824219 12.558594 Z M 5.824219 12.289062 "/>
<path style=" stroke:none;fill-rule:nonzero;fill:rgb(80%,80%,80%);fill-opacity:1;" d="M 5.824219 11.742188 L 6.902344 11.742188 L 6.902344 12.015625 L 5.824219 12.015625 Z M 5.824219 11.742188 "/>
<path style=" stroke:none;fill-rule:nonzero;fill:rgb(80%,80%,80%);fill-opacity:1;" d="M 5.824219 11.195312 L 6.902344 11.195312 L 6.902344 11.46875 L 5.824219 11.46875 Z M 5.824219 11.195312 "/>
<path style=" stroke:none;fill-rule:nonzero;fill:rgb(80%,80%,80%);fill-opacity:1;" d="M 5.824219 10.652344 L 6.902344 10.652344 L 6.902344 10.925781 L 5.824219 10.925781 Z M 5.824219 10.652344 "/>
<path style=" stroke:none;fill-rule:nonzero;fill:rgb(80%,80%,80%);fill-opacity:1;" d="M 5.824219 10.109375 L 6.902344 10.109375 L 6.902344 10.378906 L 5.824219 10.378906 Z M 5.824219 10.109375 "/>
<path style=" stroke:none;fill-rule:nonzero;fill:rgb(80%,80%,80%);fill-opacity:1;" d="M 5.824219 9.5625 L 6.902344 9.5625 L 6.902344 9.835938 L 5.824219 9.835938 Z M 5.824219 9.5625 "/>
<path style=" stroke:none;fill-rule:nonzero;fill:rgb(80%,80%,80%);fill-opacity:1;" d="M 5.824219 9.015625 L 6.902344 9.015625 L 6.902344 9.289062 L 5.824219 9.289062 Z M 5.824219 9.015625 "/>
<path style=" stroke:none;fill-rule:nonzero;fill:rgb(80%,80%,80%);fill-opacity:1;" d="M 5.824219 8.472656 L 6.902344 8.472656 L 6.902344 8.742188 L 5.824219 8.742188 Z M 5.824219 8.472656 "/>
<path style=" stroke:none;fill-rule:nonzero;fill:rgb(80%,80%,80%);fill-opacity:1;" d="M 5.824219 7.925781 L 6.902344 7.925781 L 6.902344 8.199219 L 5.824219 8.199219 Z M 5.824219 7.925781 "/>
<path style=" stroke:none;fill-rule:nonzero;fill:rgb(80%,80%,80%);fill-opacity:1;" d="M 5.824219 7.382812 L 6.902344 7.382812 L 6.902344 7.652344 L 5.824219 7.652344 Z M 5.824219 7.382812 "/>
<path style=" stroke:none;fill-rule:nonzero;fill:rgb(80%,80%,80%);fill-opacity:1;" d="M 7.441406 6.292969 L 7.441406 7.382812 L 7.171875 7.382812 L 7.171875 6.292969 Z M 7.441406 6.292969 "/>
<path style=" stroke:none;fill-rule:nonzero;fill:rgb(80%,80%,80%);fill-opacity:1;" d="M 7.980469 6.292969 L 7.980469 7.382812 L 7.710938 7.382812 L 7.710938 6.292969 Z M 7.980469 6.292969 "/>
<path style=" stroke:none;fill-rule:nonzero;fill:rgb(80%,80%,80%);fill-opacity:1;" d="M 8.519531 6.292969 L 8.519531 7.382812 L 8.25 7.382812 L 8.25 6.292969 Z M 8.519531 6.292969 "/>
<path style=" stroke:none;fill-rule:nonzero;fill:rgb(80%,80%,80%);fill-opacity:1;" d="M 9.058594 6.292969 L 9.058594 7.382812 L 8.789062 7.382812 L 8.789062 6.292969 Z M 9.058594 6.292969 "/>
<path style=" stroke:none;fill-rule:nonzero;fill:rgb(80%,80%,80%);fill-opacity:1;" d="M 9.597656 6.292969 L 9.597656 7.382812 L 9.328125 7.382812 L 9.328125 6.292969 Z M 9.597656 6.292969 "/>
<path style=" stroke:none;fill-rule:nonzero;fill:rgb(80%,80%,80%);fill-opacity:1;" d="M 10.140625 6.292969 L 10.140625 7.382812 L 9.867188 7.382812 L 9.867188 6.292969 Z M 10.140625 6.292969 "/>
<path style=" stroke:none;fill-rule:nonzero;fill:rgb(80%,80%,80%);fill-opacity:1;" d="M 10.679688 6.292969 L 10.679688 7.382812 L 10.40625 7.382812 L 10.40625 6.292969 Z M 10.679688 6.292969 "/>
<path style=" stroke:none;fill-rule:nonzero;fill:rgb(80%,80%,80%);fill-opacity:1;" d="M 11.214844 6.292969 L 11.214844 7.382812 L 10.949219 7.382812 L 10.949219 6.292969 Z M 11.214844 6.292969 "/>
<path style=" stroke:none;fill-rule:nonzero;fill:rgb(80%,80%,80%);fill-opacity:1;" d="M 11.753906 6.292969 L 11.753906 7.382812 L 11.488281 7.382812 L 11.488281 6.292969 Z M 11.753906 6.292969 "/>
<path style=" stroke:none;fill-rule:nonzero;fill:rgb(80%,80%,80%);fill-opacity:1;" d="M 12.292969 6.292969 L 12.292969 7.382812 L 12.027344 7.382812 L 12.027344 6.292969 Z M 12.292969 6.292969 "/>
<path style=" stroke:none;fill-rule:nonzero;fill:rgb(80%,80%,80%);fill-opacity:1;" d="M 12.835938 6.292969 L 12.835938 7.382812 L 12.566406 7.382812 L 12.566406 6.292969 Z M 12.835938 6.292969 "/>
<path style=" stroke:none;fill-rule:nonzero;fill:rgb(80%,80%,80%);fill-opacity:1;" d="M 13.375 6.292969 L 13.375 7.382812 L 13.105469 7.382812 L 13.105469 6.292969 Z M 13.375 6.292969 "/>
<path style=" stroke:none;fill-rule:nonzero;fill:rgb(80%,80%,80%);fill-opacity:1;" d="M 13.914062 6.292969 L 13.914062 7.382812 L 13.640625 7.382812 L 13.640625 6.292969 Z M 13.914062 6.292969 "/>
<path style=" stroke:none;fill-rule:nonzero;fill:rgb(80%,80%,80%);fill-opacity:1;" d="M 14.453125 6.292969 L 14.453125 7.382812 L 14.183594 7.382812 L 14.183594 6.292969 Z M 14.453125 6.292969 "/>
<path style=" stroke:none;fill-rule:nonzero;fill:rgb(80%,80%,80%);fill-opacity:1;" d="M 14.992188 6.292969 L 14.992188 7.382812 L 14.722656 7.382812 L 14.722656 6.292969 Z M 14.992188 6.292969 "/>
<path style=" stroke:none;fill-rule:nonzero;fill:rgb(80%,80%,80%);fill-opacity:1;" d="M 15.53125 6.292969 L 15.53125 7.382812 L 15.261719 7.382812 L 15.261719 6.292969 Z M 15.53125 6.292969 "/>
<path style=" stroke:none;fill-rule:nonzero;fill:rgb(80%,80%,80%);fill-opacity:1;" d="M 16.609375 7.925781 L 15.53125 7.925781 L 15.53125 7.652344 L 16.609375 7.652344 Z M 16.609375 7.925781 "/>
<path style=" stroke:none;fill-rule:nonzero;fill:rgb(80%,80%,80%);fill-opacity:1;" d="M 16.609375 8.472656 L 15.53125 8.472656 L 15.53125 8.199219 L 16.609375 8.199219 Z M 16.609375 8.472656 "/>
<path style=" stroke:none;fill-rule:nonzero;fill:rgb(80%,80%,80%);fill-opacity:1;" d="M 16.609375 9.015625 L 15.53125 9.015625 L 15.53125 8.742188 L 16.609375 8.742188 Z M 16.609375 9.015625 "/>
<path style=" stroke:none;fill-rule:nonzero;fill:rgb(80%,80%,80%);fill-opacity:1;" d="M 16.609375 9.5625 L 15.53125 9.5625 L 15.53125 9.289062 L 16.609375 9.289062 Z M 16.609375 9.5625 "/>
<path style=" stroke:none;fill-rule:nonzero;fill:rgb(80%,80%,80%);fill-opacity:1;" d="M 16.609375 10.109375 L 15.53125 10.109375 L 15.53125 9.835938 L 16.609375 9.835938 Z M 16.609375 10.109375 "/>
<path style=" stroke:none;fill-rule:nonzero;fill:rgb(80%,80%,80%);fill-opacity:1;" d="M 16.609375 10.652344 L 15.53125 10.652344 L 15.53125 10.378906 L 16.609375 10.378906 Z M 16.609375 10.652344 "/>
<path style=" stroke:none;fill-rule:nonzero;fill:rgb(80%,80%,80%);fill-opacity:1;" d="M 16.609375 11.195312 L 15.53125 11.195312 L 15.53125 10.925781 L 16.609375 10.925781 Z M 16.609375 11.195312 "/>
<path style=" stroke:none;fill-rule:nonzero;fill:rgb(80%,80%,80%);fill-opacity:1;" d="M 16.609375 11.742188 L 15.53125 11.742188 L 15.53125 11.472656 L 16.609375 11.472656 Z M 16.609375 11.742188 "/>
<path style=" stroke:none;fill-rule:nonzero;fill:rgb(80%,80%,80%);fill-opacity:1;" d="M 16.609375 12.289062 L 15.53125 12.289062 L 15.53125 12.015625 L 16.609375 12.015625 Z M 16.609375 12.289062 "/>
<path style=" stroke:none;fill-rule:nonzero;fill:rgb(80%,80%,80%);fill-opacity:1;" d="M 16.609375 12.832031 L 15.53125 12.832031 L 15.53125 12.5625 L 16.609375 12.5625 Z M 16.609375 12.832031 "/>
<path style=" stroke:none;fill-rule:nonzero;fill:rgb(80%,80%,80%);fill-opacity:1;" d="M 16.609375 13.378906 L 15.53125 13.378906 L 15.53125 13.105469 L 16.609375 13.105469 Z M 16.609375 13.378906 "/>
<path style=" stroke:none;fill-rule:nonzero;fill:rgb(80%,80%,80%);fill-opacity:1;" d="M 16.609375 13.921875 L 15.53125 13.921875 L 15.53125 13.648438 L 16.609375 13.648438 Z M 16.609375 13.921875 "/>
<path style=" stroke:none;fill-rule:nonzero;fill:rgb(80%,80%,80%);fill-opacity:1;" d="M 16.609375 14.46875 L 15.53125 14.46875 L 15.53125 14.195312 L 16.609375 14.195312 Z M 16.609375 14.46875 "/>
<path style=" stroke:none;fill-rule:nonzero;fill:rgb(80%,80%,80%);fill-opacity:1;" d="M 16.609375 15.011719 L 15.53125 15.011719 L 15.53125 14.738281 L 16.609375 14.738281 Z M 16.609375 15.011719 "/>
<path style=" stroke:none;fill-rule:nonzero;fill:rgb(80%,80%,80%);fill-opacity:1;" d="M 16.609375 15.558594 L 15.53125 15.558594 L 15.53125 15.285156 L 16.609375 15.285156 Z M 16.609375 15.558594 "/>
<path style=" stroke:none;fill-rule:nonzero;fill:rgb(80%,80%,80%);fill-opacity:1;" d="M 16.609375 16.101562 L 15.53125 16.101562 L 15.53125 15.832031 L 16.609375 15.832031 Z M 16.609375 16.101562 "/>
<path style=" stroke:none;fill-rule:nonzero;fill:rgb(80%,80%,80%);fill-opacity:1;" d="M 14.992188 17.195312 L 14.992188 16.105469 L 15.261719 16.105469 L 15.261719 17.195312 Z M 14.992188 17.195312 "/>
<path style=" stroke:none;fill-rule:nonzero;fill:rgb(80%,80%,80%);fill-opacity:1;" d="M 14.453125 17.195312 L 14.453125 16.105469 L 14.722656 16.105469 L 14.722656 17.195312 Z M 14.453125 17.195312 "/>
<path style=" stroke:none;fill-rule:nonzero;fill:rgb(80%,80%,80%);fill-opacity:1;" d="M 13.914062 17.195312 L 13.914062 16.105469 L 14.179688 16.105469 L 14.179688 17.195312 Z M 13.914062 17.195312 "/>
<path style=" stroke:none;fill-rule:nonzero;fill:rgb(80%,80%,80%);fill-opacity:1;" d="M 13.375 17.195312 L 13.375 16.105469 L 13.640625 16.105469 L 13.640625 17.195312 Z M 13.375 17.195312 "/>
<path style=" stroke:none;fill-rule:nonzero;fill:rgb(80%,80%,80%);fill-opacity:1;" d="M 12.835938 17.195312 L 12.835938 16.105469 L 13.105469 16.105469 L 13.105469 17.195312 Z M 12.835938 17.195312 "/>
<path style=" stroke:none;fill-rule:nonzero;fill:rgb(80%,80%,80%);fill-opacity:1;" d="M 12.292969 17.195312 L 12.292969 16.105469 L 12.566406 16.105469 L 12.566406 17.195312 Z M 12.292969 17.195312 "/>
<path style=" stroke:none;fill-rule:nonzero;fill:rgb(80%,80%,80%);fill-opacity:1;" d="M 11.753906 17.195312 L 11.753906 16.105469 L 12.027344 16.105469 L 12.027344 17.195312 Z M 11.753906 17.195312 "/>
<path style=" stroke:none;fill-rule:nonzero;fill:rgb(80%,80%,80%);fill-opacity:1;" d="M 11.214844 17.195312 L 11.214844 16.105469 L 11.488281 16.105469 L 11.488281 17.195312 Z M 11.214844 17.195312 "/>
<path style=" stroke:none;fill-rule:nonzero;fill:rgb(80%,80%,80%);fill-opacity:1;" d="M 10.679688 17.195312 L 10.679688 16.105469 L 10.945312 16.105469 L 10.945312 17.195312 Z M 10.679688 17.195312 "/>
<path style=" stroke:none;fill-rule:nonzero;fill:rgb(80%,80%,80%);fill-opacity:1;" d="M 10.140625 17.195312 L 10.140625 16.105469 L 10.40625 16.105469 L 10.40625 17.195312 Z M 10.140625 17.195312 "/>
<path style=" stroke:none;fill-rule:nonzero;fill:rgb(80%,80%,80%);fill-opacity:1;" d="M 9.597656 17.195312 L 9.597656 16.105469 L 9.867188 16.105469 L 9.867188 17.195312 Z M 9.597656 17.195312 "/>
<path style=" stroke:none;fill-rule:nonzero;fill:rgb(80%,80%,80%);fill-opacity:1;" d="M 9.058594 17.195312 L 9.058594 16.105469 L 9.328125 16.105469 L 9.328125 17.195312 Z M 9.058594 17.195312 "/>
<path style=" stroke:none;fill-rule:nonzero;fill:rgb(80%,80%,80%);fill-opacity:1;" d="M 8.519531 17.195312 L 8.519531 16.105469 L 8.789062 16.105469 L 8.789062 17.195312 Z M 8.519531 17.195312 "/>
<path style=" stroke:none;fill-rule:nonzero;fill:rgb(80%,80%,80%);fill-opacity:1;" d="M 7.980469 17.195312 L 7.980469 16.105469 L 8.25 16.105469 L 8.25 17.195312 Z M 7.980469 17.195312 "/>
<path style=" stroke:none;fill-rule:nonzero;fill:rgb(80%,80%,80%);fill-opacity:1;" d="M 7.441406 17.195312 L 7.441406 16.105469 L 7.710938 16.105469 L 7.710938 17.195312 Z M 7.441406 17.195312 "/>
<path style=" stroke:none;fill-rule:nonzero;fill:rgb(80%,80%,80%);fill-opacity:1;" d="M 6.902344 17.195312 L 6.902344 16.105469 L 7.171875 16.105469 L 7.171875 17.195312 Z M 6.902344 17.195312 "/>
<path style=" stroke:none;fill-rule:nonzero;fill:rgb(80%,80%,80%);fill-opacity:1;" d="M 7.226562 10.5 L 7.539062 10.5 L 7.539062 12.574219 L 8.679688 12.574219 L 8.679688 12.839844 L 7.226562 12.839844 Z M 7.226562 10.5 "/>
<path style=" stroke:none;fill-rule:nonzero;fill:rgb(80%,80%,80%);fill-opacity:1;" d="M 8.945312 11.085938 L 9.230469 11.085938 L 9.230469 12.839844 L 8.945312 12.839844 Z M 8.945312 10.40625 L 9.230469 10.40625 L 9.230469 10.769531 L 8.945312 10.769531 Z M 8.945312 10.40625 "/>
<path style=" stroke:none;fill-rule:nonzero;fill:rgb(80%,80%,80%);fill-opacity:1;" d="M 11.269531 11.78125 L 11.269531 12.839844 L 10.980469 12.839844 L 10.980469 11.789062 C 10.980469 11.625 10.949219 11.503906 10.882812 11.421875 C 10.820312 11.335938 10.71875 11.292969 10.589844 11.292969 C 10.433594 11.292969 10.3125 11.34375 10.222656 11.445312 C 10.132812 11.542969 10.085938 11.679688 10.085938 11.851562 L 10.085938 12.839844 L 9.800781 12.839844 L 9.800781 11.085938 L 10.085938 11.085938 L 10.085938 11.359375 C 10.160156 11.253906 10.238281 11.175781 10.332031 11.121094 C 10.425781 11.070312 10.53125 11.042969 10.652344 11.042969 C 10.855469 11.042969 11.011719 11.105469 11.109375 11.230469 C 11.214844 11.355469 11.269531 11.539062 11.269531 11.78125 Z M 11.269531 11.78125 "/>
<path style=" stroke:none;fill-rule:nonzero;fill:rgb(80%,80%,80%);fill-opacity:1;" d="M 11.75 12.144531 L 11.75 11.085938 L 12.035156 11.085938 L 12.035156 12.140625 C 12.035156 12.308594 12.066406 12.429688 12.128906 12.511719 C 12.195312 12.59375 12.296875 12.632812 12.429688 12.632812 C 12.582031 12.632812 12.703125 12.585938 12.796875 12.488281 C 12.886719 12.390625 12.933594 12.253906 12.933594 12.082031 L 12.933594 11.085938 L 13.21875 11.085938 L 13.21875 12.839844 L 12.933594 12.839844 L 12.933594 12.570312 C 12.859375 12.679688 12.777344 12.761719 12.6875 12.8125 C 12.597656 12.859375 12.488281 12.882812 12.367188 12.882812 C 12.164062 12.882812 12.011719 12.824219 11.90625 12.695312 C 11.800781 12.574219 11.75 12.390625 11.75 12.144531 Z M 12.472656 11.042969 Z M 12.472656 11.042969 "/>
<path style=" stroke:none;fill-rule:nonzero;fill:rgb(80%,80%,80%);fill-opacity:1;" d="M 15.210938 11.085938 L 14.574219 11.9375 L 15.238281 12.839844 L 14.902344 12.839844 L 14.394531 12.152344 L 13.878906 12.839844 L 13.542969 12.839844 L 14.222656 11.921875 L 13.601562 11.085938 L 13.9375 11.085938 L 14.402344 11.710938 L 14.867188 11.085938 Z M 15.210938 11.085938 "/>
</g>
</svg>
