
<svg xmlns="http://www.w3.org/2000/svg" xmlns:xlink="http://www.w3.org/1999/xlink" width="22px" height="22px" viewBox="0 0 22 22" version="1.1">
<g id="surface1">
<path style=" stroke:none;fill-rule:nonzero;fill:rgb(0%,50.196078%,0%);fill-opacity:1;" d="M 0.195312 10.976562 C -1.460938 -3.609375 22.199219 -3.410156 21.917969 11.234375 C 22.699219 24.859375 -1.09375 26.085938 0.195312 10.976562 Z M 0.195312 10.976562 "/>
<path style=" stroke:none;fill-rule:nonzero;fill:rgb(99.607843%,10.196078%,10.196078%);fill-opacity:1;" d="M 3.597656 13.859375 C 3.582031 13.722656 3.507812 13.636719 3.394531 13.617188 C 3.230469 13.589844 3.222656 13.550781 3.222656 12.648438 C 3.222656 11.890625 3.242188 11.707031 3.335938 11.707031 C 3.414062 11.707031 3.453125 11.847656 3.46875 12.203125 C 3.492188 12.664062 3.507812 12.703125 3.703125 12.730469 C 3.847656 12.75 3.917969 12.824219 3.933594 12.96875 C 3.949219 13.097656 4.023438 13.1875 4.128906 13.203125 C 4.246094 13.226562 4.304688 13.308594 4.320312 13.488281 C 4.347656 13.742188 4.347656 13.742188 5.003906 13.742188 C 5.664062 13.742188 5.664062 13.742188 5.6875 13.488281 C 5.703125 13.308594 5.761719 13.226562 5.882812 13.203125 C 5.988281 13.1875 6.058594 13.097656 6.074219 12.96875 C 6.09375 12.824219 6.164062 12.75 6.308594 12.730469 C 6.5 12.703125 6.515625 12.664062 6.539062 12.203125 L 6.5625 11.707031 L 12.121094 11.707031 L 12.148438 11.96875 C 12.171875 12.21875 12.1875 12.226562 12.636719 12.226562 C 13.085938 12.226562 13.105469 12.21875 13.125 11.96875 L 13.152344 11.707031 L 15.066406 11.707031 L 15.09375 11.96875 C 15.117188 12.222656 15.125 12.226562 15.710938 12.253906 C 16.261719 12.28125 16.308594 12.300781 16.332031 12.492188 C 16.355469 12.683594 16.40625 12.703125 16.953125 12.730469 C 17.5 12.753906 17.550781 12.773438 17.574219 12.964844 C 17.59375 13.140625 17.652344 13.179688 17.960938 13.203125 C 18.289062 13.230469 18.324219 13.257812 18.347656 13.488281 C 18.371094 13.738281 18.382812 13.742188 18.972656 13.769531 C 19.4375 13.792969 19.574219 13.828125 19.574219 13.9375 C 19.574219 14.054688 18.53125 14.074219 11.597656 14.074219 L 3.621094 14.074219 Z M 3.222656 10.152344 C 3.222656 9.296875 3.230469 9.257812 3.394531 9.230469 C 3.523438 9.207031 3.578125 9.125 3.59375 8.9375 L 3.621094 8.679688 L 11.402344 8.679688 C 19.0625 8.679688 19.1875 8.679688 19.1875 8.863281 C 19.1875 9.019531 19.121094 9.050781 18.777344 9.074219 C 18.425781 9.101562 18.367188 9.132812 18.347656 9.3125 C 18.328125 9.488281 18.265625 9.523438 17.960938 9.546875 C 17.652344 9.574219 17.59375 9.609375 17.574219 9.785156 C 17.550781 9.976562 17.5 9.996094 16.953125 10.023438 C 16.371094 10.050781 16.355469 10.054688 16.332031 10.308594 C 16.308594 10.558594 16.296875 10.566406 15.710938 10.59375 C 15.164062 10.617188 15.113281 10.632812 15.09375 10.832031 C 15.066406 11.039062 15.042969 11.042969 14.109375 11.042969 C 13.175781 11.042969 13.148438 11.039062 13.125 10.832031 C 13.105469 10.636719 13.0625 10.617188 12.636719 10.617188 C 12.214844 10.617188 12.171875 10.636719 12.148438 10.832031 L 12.121094 11.042969 L 6.5625 11.042969 L 6.539062 10.546875 C 6.515625 10.085938 6.5 10.050781 6.308594 10.019531 C 6.164062 10 6.09375 9.929688 6.074219 9.785156 C 6.058594 9.65625 5.988281 9.566406 5.882812 9.546875 C 5.777344 9.53125 5.703125 9.441406 5.6875 9.3125 C 5.664062 9.117188 5.625 9.105469 5.003906 9.105469 C 4.386719 9.105469 4.34375 9.117188 4.320312 9.3125 C 4.308594 9.441406 4.234375 9.53125 4.128906 9.546875 C 4.023438 9.566406 3.949219 9.65625 3.933594 9.785156 C 3.917969 9.929688 3.847656 10 3.703125 10.019531 C 3.507812 10.050781 3.492188 10.085938 3.46875 10.546875 C 3.453125 10.90625 3.414062 11.042969 3.335938 11.042969 C 3.242188 11.042969 3.222656 10.867188 3.222656 10.152344 Z M 3.222656 10.152344 "/>
<path style=" stroke:none;fill-rule:nonzero;fill:rgb(99.607843%,10.196078%,10.196078%);fill-opacity:1;" d="M 3.351562 13.859375 C 3.335938 13.722656 3.265625 13.636719 3.152344 13.617188 C 2.984375 13.589844 2.980469 13.550781 2.980469 12.648438 C 2.980469 11.890625 3 11.707031 3.089844 11.707031 C 3.171875 11.707031 3.210938 11.847656 3.226562 12.203125 C 3.246094 12.664062 3.265625 12.703125 3.457031 12.730469 C 3.605469 12.75 3.671875 12.824219 3.691406 12.96875 C 3.707031 13.097656 3.777344 13.1875 3.882812 13.203125 C 4.003906 13.226562 4.0625 13.308594 4.078125 13.488281 C 4.101562 13.742188 4.101562 13.742188 4.761719 13.742188 C 5.417969 13.742188 5.417969 13.742188 5.441406 13.488281 C 5.460938 13.308594 5.519531 13.226562 5.636719 13.203125 C 5.742188 13.1875 5.816406 13.097656 5.832031 12.96875 C 5.847656 12.824219 5.917969 12.75 6.0625 12.730469 C 6.253906 12.703125 6.273438 12.664062 6.292969 12.203125 L 6.316406 11.707031 L 11.878906 11.707031 L 11.902344 11.96875 C 11.925781 12.21875 11.945312 12.226562 12.394531 12.226562 C 12.84375 12.226562 12.859375 12.21875 12.882812 11.96875 L 12.90625 11.707031 L 14.824219 11.707031 L 14.847656 11.96875 C 14.871094 12.222656 14.882812 12.226562 15.46875 12.253906 C 16.015625 12.28125 16.066406 12.300781 16.089844 12.492188 C 16.109375 12.683594 16.160156 12.703125 16.707031 12.730469 C 17.253906 12.753906 17.304688 12.773438 17.328125 12.964844 C 17.347656 13.140625 17.40625 13.179688 17.714844 13.203125 C 18.046875 13.230469 18.082031 13.257812 18.101562 13.488281 C 18.128906 13.738281 18.140625 13.742188 18.726562 13.769531 C 19.191406 13.792969 19.328125 13.828125 19.328125 13.9375 C 19.328125 14.054688 18.289062 14.074219 11.351562 14.074219 L 3.375 14.074219 Z M 2.980469 10.152344 C 2.980469 9.296875 2.984375 9.257812 3.152344 9.230469 C 3.277344 9.207031 3.332031 9.125 3.351562 8.9375 L 3.375 8.679688 L 11.15625 8.679688 C 18.820312 8.679688 18.941406 8.679688 18.941406 8.863281 C 18.941406 9.019531 18.878906 9.050781 18.535156 9.074219 C 18.183594 9.101562 18.125 9.132812 18.101562 9.3125 C 18.082031 9.488281 18.023438 9.523438 17.714844 9.546875 C 17.40625 9.574219 17.347656 9.609375 17.328125 9.785156 C 17.304688 9.976562 17.253906 9.996094 16.707031 10.023438 C 16.125 10.050781 16.113281 10.054688 16.089844 10.308594 C 16.066406 10.558594 16.050781 10.566406 15.46875 10.59375 C 14.917969 10.617188 14.871094 10.632812 14.847656 10.832031 C 14.824219 11.039062 14.800781 11.042969 13.863281 11.042969 C 12.933594 11.042969 12.90625 11.039062 12.882812 10.832031 C 12.859375 10.636719 12.816406 10.617188 12.394531 10.617188 C 11.96875 10.617188 11.925781 10.636719 11.902344 10.832031 L 11.878906 11.042969 L 6.316406 11.042969 L 6.292969 10.546875 C 6.273438 10.085938 6.253906 10.050781 6.0625 10.019531 C 5.917969 10 5.847656 9.929688 5.832031 9.785156 C 5.816406 9.65625 5.742188 9.566406 5.636719 9.546875 C 5.53125 9.53125 5.457031 9.441406 5.441406 9.3125 C 5.421875 9.117188 5.378906 9.105469 4.761719 9.105469 C 4.144531 9.105469 4.101562 9.117188 4.078125 9.3125 C 4.0625 9.441406 3.988281 9.53125 3.882812 9.546875 C 3.777344 9.566406 3.707031 9.65625 3.691406 9.785156 C 3.671875 9.929688 3.605469 10 3.457031 10.019531 C 3.265625 10.050781 3.246094 10.085938 3.226562 10.546875 C 3.210938 10.90625 3.171875 11.042969 3.089844 11.042969 C 3 11.042969 2.980469 10.867188 2.980469 10.152344 Z M 2.980469 10.152344 "/>
</g>
</svg>
