
<svg xmlns="http://www.w3.org/2000/svg" xmlns:xlink="http://www.w3.org/1999/xlink" width="22px" height="22px" viewBox="0 0 22 22" version="1.1">
<g id="surface1">
<path style=" stroke:none;fill-rule:nonzero;fill:rgb(18.431373%,30.980392%,30.980392%);fill-opacity:1;" d="M 13.496094 0.371094 C 33.941406 4.628906 11.992188 33.914062 1.601562 16.320312 C -2.851562 9.488281 2.984375 -1.820312 13.496094 0.371094 Z M 13.496094 0.371094 "/>
<path style=" stroke:none;fill-rule:nonzero;fill:rgb(100%,100%,100%);fill-opacity:0.968627;" d="M 5.40625 6.207031 L 13.554688 4.496094 C 13.6875 4.46875 13.859375 4.765625 13.941406 5.15625 L 15.792969 14.195312 C 15.875 14.585938 15.835938 14.929688 15.703125 14.953125 L 7.554688 16.667969 C 7.421875 16.695312 7.25 16.402344 7.167969 16.007812 L 5.3125 6.96875 C 5.234375 6.578125 5.273438 6.238281 5.40625 6.207031 Z M 5.40625 6.207031 "/>
<path style=" stroke:none;fill-rule:nonzero;fill:rgb(82.745098%,83.137255%,83.137255%);fill-opacity:1;" d="M 7.34375 16.808594 C 7.316406 16.761719 7.175781 16.132812 7.03125 15.410156 C 6.847656 14.492188 6.71875 14.0625 6.601562 13.980469 C 6.464844 13.882812 6.421875 13.648438 6.371094 12.800781 C 6.328125 12.140625 6.105469 10.738281 5.773438 9.074219 C 5.351562 6.953125 5.269531 6.386719 5.367188 6.296875 C 5.492188 6.179688 13.125 4.597656 13.574219 4.597656 C 13.847656 4.597656 13.925781 4.769531 14.089844 5.71875 C 14.226562 6.53125 14.261719 6.507812 15.101562 5.148438 C 15.316406 4.800781 15.402344 4.742188 15.734375 4.71875 C 16.179688 4.683594 16.640625 4.976562 16.640625 5.296875 C 16.640625 5.40625 16.519531 5.675781 16.367188 5.898438 C 15.511719 7.152344 14.710938 8.535156 14.710938 8.75 C 14.710938 9.257812 14.855469 9.371094 15.53125 9.371094 C 16.519531 9.371094 16.539062 9.589844 15.746094 11.492188 C 15.445312 12.21875 15.421875 12.34375 15.507812 12.691406 C 15.585938 13.011719 15.65625 13.09375 15.886719 13.136719 C 16.039062 13.171875 16.207031 13.269531 16.253906 13.363281 C 16.386719 13.609375 16.265625 13.933594 16.027344 13.964844 C 15.839844 13.992188 15.824219 14.046875 15.851562 14.539062 C 15.875 14.90625 15.839844 15.113281 15.753906 15.179688 C 15.613281 15.289062 13.890625 15.679688 10.691406 16.328125 C 8.335938 16.800781 7.421875 16.933594 7.34375 16.808594 Z M 9.269531 16.230469 C 9.949219 16.09375 10.976562 15.871094 11.546875 15.734375 C 12.503906 15.507812 12.617188 15.457031 12.972656 15.082031 C 13.367188 14.667969 13.457031 14.433594 13.226562 14.433594 C 13.152344 14.433594 12.644531 14.585938 12.09375 14.769531 C 11.160156 15.078125 9.796875 15.40625 9.449219 15.40625 C 9.238281 15.40625 9.261719 15.0625 9.511719 14.546875 L 9.722656 14.109375 L 9.511719 13.964844 C 9.304688 13.828125 9.300781 13.785156 9.300781 11.355469 L 9.300781 8.882812 L 8.453125 8.882812 L 8.042969 9.679688 C 7.816406 10.117188 7.632812 10.605469 7.640625 10.761719 C 7.644531 10.914062 7.941406 11.652344 8.296875 12.398438 C 8.699219 13.230469 8.914062 13.792969 8.859375 13.84375 C 8.808594 13.894531 8.597656 13.949219 8.390625 13.964844 C 8.023438 13.996094 8.007812 13.984375 7.933594 13.640625 C 7.894531 13.445312 7.695312 12.960938 7.492188 12.570312 L 7.128906 11.855469 L 7.101562 12.765625 C 7.078125 13.441406 7.136719 14.003906 7.324219 14.957031 C 7.460938 15.660156 7.589844 16.289062 7.613281 16.355469 C 7.671875 16.527344 7.863281 16.511719 9.269531 16.230469 Z M 8.1875 15.207031 C 8.085938 15.042969 8.308594 14.855469 8.445312 14.992188 C 8.554688 15.101562 8.484375 15.3125 8.335938 15.3125 C 8.289062 15.3125 8.222656 15.261719 8.1875 15.207031 Z M 15.039062 14.765625 C 15.195312 14.703125 15.253906 14.382812 15.121094 14.308594 C 15.082031 14.285156 14.945312 14.390625 14.824219 14.546875 C 14.59375 14.828125 14.671875 14.910156 15.039062 14.765625 Z M 11.234375 14.082031 C 11.234375 14.0625 11.167969 14.046875 11.085938 14.046875 C 11.007812 14.046875 10.941406 14.089844 10.941406 14.136719 C 10.941406 14.191406 11.007812 14.207031 11.085938 14.179688 C 11.167969 14.148438 11.234375 14.105469 11.234375 14.082031 Z M 11.980469 13.308594 L 12.003906 12.828125 L 11.824219 13.160156 C 11.640625 13.5 11.65625 13.886719 11.847656 13.820312 C 11.90625 13.800781 11.96875 13.570312 11.980469 13.308594 Z M 13.066406 13.265625 C 13.066406 13.226562 13.003906 13.066406 12.921875 12.914062 L 12.78125 12.632812 L 12.777344 13.042969 C 12.777344 13.367188 12.808594 13.445312 12.921875 13.398438 C 13.003906 13.367188 13.066406 13.308594 13.066406 13.265625 Z M 10.621094 12.050781 C 10.929688 11.582031 10.941406 11.53125 10.941406 10.621094 C 10.941406 9.480469 10.976562 9.371094 11.339844 9.371094 C 11.609375 9.371094 11.621094 9.386719 11.621094 9.859375 C 11.621094 10.351562 11.726562 10.484375 11.871094 10.175781 C 11.914062 10.082031 11.972656 9.5 12.003906 8.882812 L 12.054688 7.765625 L 12.34375 7.765625 C 12.625 7.765625 12.632812 7.78125 12.679688 8.300781 L 12.730469 8.835938 L 13.273438 7.960938 C 13.570312 7.476562 13.839844 7.03125 13.875 6.96875 C 13.945312 6.84375 13.574219 5.085938 13.449219 4.949219 C 13.398438 4.898438 12.78125 4.988281 11.9375 5.175781 C 10.46875 5.496094 9.152344 5.84375 9.378906 5.859375 C 9.449219 5.863281 9.1875 6.121094 8.800781 6.433594 C 8.410156 6.746094 8.011719 7.097656 7.910156 7.214844 L 7.726562 7.421875 L 8.125 7.421875 C 8.347656 7.421875 8.527344 7.457031 8.527344 7.496094 C 8.527344 7.539062 8.246094 7.671875 7.902344 7.796875 C 7.234375 8.039062 7.195312 8.105469 7.363281 8.6875 C 7.429688 8.917969 7.449219 8.902344 7.796875 8.359375 L 8.164062 7.785156 L 9.546875 7.835938 C 10.351562 7.863281 10.972656 7.84375 11.023438 7.789062 C 11.074219 7.738281 11.214844 7.710938 11.34375 7.730469 C 11.542969 7.757812 11.574219 7.820312 11.601562 8.273438 C 11.632812 8.824219 11.648438 8.804688 11.039062 8.828125 C 10.851562 8.839844 10.539062 8.851562 10.34375 8.863281 L 9.988281 8.882812 L 9.996094 10.90625 C 10 12.015625 10.027344 12.964844 10.054688 13.019531 C 10.085938 13.066406 10.152344 12.980469 10.203125 12.824219 C 10.253906 12.664062 10.441406 12.316406 10.621094 12.050781 Z M 14.355469 12.707031 C 14.789062 12.011719 14.851562 11.699219 14.71875 10.9375 C 14.644531 10.515625 14.535156 10.214844 14.445312 10.164062 C 14.328125 10.097656 14.308594 9.96875 14.347656 9.625 C 14.375 9.378906 14.363281 9.175781 14.320312 9.175781 C 14.234375 9.175781 14.128906 9.421875 14.128906 9.632812 C 14.128906 9.714844 13.90625 10.175781 13.632812 10.65625 L 13.132812 11.523438 L 13.300781 11.882812 C 13.539062 12.382812 13.96875 13.0625 14.054688 13.066406 C 14.09375 13.070312 14.230469 12.90625 14.355469 12.707031 Z M 15.335938 10.640625 C 15.417969 10.484375 15.484375 10.308594 15.484375 10.25 C 15.484375 10.128906 15.128906 10.117188 15.054688 10.238281 C 15 10.324219 15.089844 10.929688 15.152344 10.929688 C 15.171875 10.929688 15.253906 10.800781 15.335938 10.640625 Z M 15.335938 10.640625 "/>
<path style=" stroke:none;fill-rule:nonzero;fill:rgb(60.784314%,63.921569%,67.058824%);fill-opacity:1;" d="M 13.703125 15.421875 C 13.75 15.375 14.097656 15.238281 14.46875 15.117188 C 15.328125 14.839844 15.429688 14.742188 15.34375 14.296875 C 15.28125 13.953125 15.273438 13.945312 14.8125 13.945312 C 14.515625 13.945312 14.328125 13.898438 14.296875 13.820312 C 14.210938 13.601562 14.382812 12.953125 14.695312 12.292969 C 14.863281 11.945312 15 11.613281 15 11.554688 C 15 11.492188 15.128906 11.210938 15.289062 10.921875 C 15.445312 10.632812 15.578125 10.339844 15.578125 10.277344 C 15.578125 10.203125 15.378906 10.148438 15.023438 10.128906 L 14.46875 10.101562 L 14.46875 9.417969 L 15.167969 9.390625 C 16.414062 9.339844 16.488281 9.535156 15.8125 11.101562 C 15.570312 11.664062 15.347656 12.265625 15.320312 12.4375 C 15.253906 12.828125 15.425781 13.167969 15.683594 13.167969 C 16.300781 13.167969 16.457031 13.679688 15.910156 13.90625 C 15.664062 14.011719 15.582031 14.097656 15.617188 14.21875 C 15.640625 14.308594 15.6875 14.527344 15.726562 14.699219 C 15.800781 15.082031 15.710938 15.128906 14.578125 15.355469 C 13.695312 15.53125 13.574219 15.539062 13.703125 15.421875 Z M 9.398438 15.15625 C 9.398438 15.070312 9.507812 14.777344 9.644531 14.507812 C 9.777344 14.238281 9.875 14.011719 9.859375 14.007812 C 9.433594 13.835938 9.449219 13.921875 9.421875 11.285156 L 9.394531 8.789062 L 8.925781 8.789062 C 8.664062 8.789062 8.414062 8.839844 8.359375 8.910156 C 8.152344 9.167969 7.464844 10.589844 7.464844 10.757812 C 7.464844 10.851562 7.769531 11.542969 8.140625 12.292969 C 8.515625 13.039062 8.820312 13.691406 8.820312 13.742188 C 8.820312 13.886719 8.527344 13.953125 8.335938 13.851562 C 8.238281 13.796875 7.941406 13.300781 7.679688 12.746094 C 7.414062 12.1875 7.152344 11.703125 7.089844 11.664062 C 7.015625 11.617188 6.984375 11.925781 6.984375 12.773438 C 6.984375 13.875 6.972656 13.945312 6.792969 13.945312 C 6.425781 13.945312 6.386719 13.65625 6.390625 10.824219 C 6.390625 9.328125 6.421875 8.0625 6.453125 8.007812 C 6.484375 7.953125 6.617188 7.910156 6.746094 7.910156 C 7.023438 7.910156 7.023438 7.917969 6.988281 9.128906 C 6.972656 9.609375 7 9.96875 7.042969 9.925781 C 7.089844 9.882812 7.363281 9.421875 7.65625 8.902344 L 8.191406 7.960938 L 9.34375 7.929688 C 9.976562 7.917969 10.613281 7.945312 10.761719 7.996094 C 10.964844 8.070312 11.039062 8.058594 11.078125 7.949219 C 11.109375 7.875 11.222656 7.8125 11.332031 7.8125 C 11.511719 7.8125 11.53125 7.863281 11.503906 8.273438 C 11.476562 8.675781 11.449219 8.734375 11.28125 8.707031 C 11.039062 8.671875 11 8.675781 10.414062 8.765625 L 9.929688 8.835938 L 9.929688 11.140625 C 9.929688 12.40625 9.957031 13.472656 9.992188 13.511719 C 10.128906 13.644531 10.441406 13.195312 10.390625 12.9375 C 10.355469 12.761719 10.4375 12.535156 10.667969 12.175781 C 10.972656 11.695312 10.996094 11.605469 11.039062 10.59375 C 11.085938 9.570312 11.097656 9.515625 11.304688 9.484375 C 11.507812 9.457031 11.523438 9.492188 11.523438 9.945312 C 11.523438 10.527344 11.644531 10.640625 11.882812 10.28125 C 12.011719 10.078125 12.066406 9.75 12.101562 8.9375 C 12.148438 7.914062 12.160156 7.859375 12.367188 7.832031 C 12.574219 7.800781 12.585938 7.832031 12.585938 8.390625 C 12.585938 8.714844 12.625 8.980469 12.671875 8.980469 C 12.777344 8.980469 13.984375 7.078125 14.078125 6.765625 C 14.113281 6.644531 14.179688 6.546875 14.222656 6.546875 C 14.265625 6.546875 14.441406 6.332031 14.609375 6.066406 C 14.777344 5.800781 14.945312 5.570312 14.980469 5.554688 C 15.019531 5.539062 15.136719 5.347656 15.242188 5.132812 C 15.472656 4.671875 15.765625 4.597656 16.230469 4.890625 C 16.640625 5.144531 16.648438 5.484375 16.253906 5.882812 C 16.09375 6.039062 15.964844 6.222656 15.964844 6.277344 C 15.964844 6.335938 15.6875 6.828125 15.351562 7.367188 C 15.011719 7.90625 14.679688 8.457031 14.609375 8.59375 C 14.542969 8.726562 14.386719 8.960938 14.261719 9.109375 C 14.136719 9.261719 14.035156 9.46875 14.035156 9.566406 C 14.035156 9.664062 13.816406 10.125 13.550781 10.589844 C 13.285156 11.050781 13.070312 11.503906 13.070312 11.59375 C 13.070312 11.683594 13.328125 12.21875 13.640625 12.78125 C 14.070312 13.546875 14.183594 13.835938 14.105469 13.929688 C 13.863281 14.222656 13.605469 14.007812 13.148438 13.121094 C 12.636719 12.132812 12.519531 12.152344 12.617188 13.214844 C 12.675781 13.875 12.570312 14.109375 12.261719 13.988281 C 12.136719 13.941406 12.101562 13.785156 12.101562 13.234375 C 12.101562 12.597656 12.089844 12.554688 11.945312 12.699219 C 11.859375 12.785156 11.710938 13.09375 11.613281 13.378906 C 11.457031 13.832031 11.40625 13.894531 11.199219 13.875 C 11.027344 13.855469 10.890625 13.941406 10.6875 14.199219 C 9.960938 15.128906 9.398438 15.546875 9.398438 15.15625 Z M 15.628906 5.769531 C 15.53125 5.660156 15.382812 5.574219 15.296875 5.578125 C 15.183594 5.578125 15.199219 5.625 15.375 5.769531 C 15.671875 6.019531 15.855469 6.019531 15.628906 5.769531 Z M 15.628906 5.769531 "/>
<path style=" stroke:none;fill-rule:nonzero;fill:rgb(43.529412%,53.333333%,63.529412%);fill-opacity:1;" d="M 9.496094 15.0625 C 9.496094 14.808594 9.78125 14.335938 9.933594 14.335938 C 10.207031 14.335938 10.203125 14.632812 9.925781 14.929688 C 9.621094 15.25 9.496094 15.289062 9.496094 15.0625 Z M 12.25 13.835938 C 12.226562 13.765625 12.191406 13.445312 12.179688 13.128906 C 12.160156 12.808594 12.105469 12.535156 12.054688 12.519531 C 11.929688 12.480469 11.535156 13.226562 11.5 13.558594 C 11.46875 13.875 11.101562 13.902344 11.058594 13.59375 C 11.042969 13.480469 10.878906 13.246094 10.695312 13.078125 C 10.496094 12.898438 10.386719 12.722656 10.425781 12.652344 C 10.460938 12.589844 10.628906 12.339844 10.789062 12.097656 C 11.066406 11.6875 11.089844 11.585938 11.136719 10.589844 C 11.175781 9.722656 11.214844 9.515625 11.328125 9.515625 C 11.441406 9.515625 11.480469 9.664062 11.503906 10.125 C 11.519531 10.460938 11.5625 10.734375 11.601562 10.734375 C 11.640625 10.734375 11.792969 10.550781 11.9375 10.324219 C 12.179688 9.949219 12.199219 9.839844 12.199219 8.917969 C 12.199219 8.292969 12.238281 7.898438 12.308594 7.855469 C 12.484375 7.746094 12.582031 8.019531 12.585938 8.613281 C 12.585938 9.023438 12.617188 9.15625 12.707031 9.125 C 12.828125 9.078125 13.695312 7.757812 14.082031 7.027344 C 14.34375 6.539062 14.910156 5.671875 14.96875 5.671875 C 15.121094 5.671875 15.871094 6.199219 15.871094 6.308594 C 15.871094 6.433594 14.4375 8.765625 14.164062 9.085938 C 14.09375 9.171875 14.035156 9.324219 14.035156 9.421875 C 14.035156 9.519531 13.789062 10.042969 13.484375 10.578125 L 12.9375 11.558594 L 13.507812 12.65625 C 13.90625 13.421875 14.046875 13.78125 13.976562 13.851562 C 13.78125 14.046875 13.585938 13.84375 13.207031 13.0625 C 12.65625 11.921875 12.585938 11.902344 12.585938 12.902344 C 12.585938 13.515625 12.546875 13.761719 12.441406 13.851562 C 12.328125 13.945312 12.289062 13.945312 12.25 13.835938 Z M 14.832031 13.878906 C 14.5 13.847656 14.410156 13.796875 14.367188 13.613281 C 14.308594 13.394531 14.714844 12.324219 15.40625 10.847656 C 15.566406 10.507812 15.660156 10.191406 15.613281 10.144531 C 15.570312 10.101562 15.292969 10.050781 15 10.035156 C 14.503906 10.007812 14.46875 9.988281 14.46875 9.761719 C 14.46875 9.519531 14.480469 9.515625 15.289062 9.515625 L 16.113281 9.515625 L 16.140625 9.828125 C 16.160156 10.03125 16.035156 10.460938 15.785156 11.046875 C 15.570312 11.542969 15.292969 12.222656 15.167969 12.546875 L 14.933594 13.148438 L 15.523438 13.230469 C 15.980469 13.296875 16.117188 13.355469 16.144531 13.496094 C 16.160156 13.597656 16.140625 13.714844 16.09375 13.757812 C 15.984375 13.867188 15.335938 13.929688 14.832031 13.878906 Z M 6.566406 13.777344 C 6.507812 13.679688 6.460938 11.3125 6.484375 9.539062 C 6.496094 8.320312 6.523438 8.089844 6.65625 8.039062 C 6.910156 7.941406 6.96875 8.1875 6.914062 9.132812 C 6.878906 9.699219 6.894531 10.046875 6.960938 10.085938 C 7.019531 10.121094 7.300781 9.703125 7.625 9.105469 L 8.191406 8.054688 L 9.453125 8.03125 C 10.8125 8 11.027344 8.070312 10.898438 8.484375 C 10.851562 8.636719 10.738281 8.683594 10.382812 8.707031 L 9.929688 8.738281 L 9.882812 11.269531 C 9.835938 13.578125 9.816406 13.800781 9.664062 13.832031 C 9.503906 13.863281 9.496094 13.695312 9.496094 11.429688 C 9.496094 10.09375 9.46875 8.929688 9.433594 8.84375 C 9.390625 8.730469 9.246094 8.691406 8.90625 8.691406 C 8.464844 8.691406 8.417969 8.714844 8.203125 9.058594 C 7.890625 9.558594 7.367188 10.605469 7.367188 10.738281 C 7.367188 10.796875 7.671875 11.484375 8.046875 12.265625 C 8.417969 13.046875 8.722656 13.726562 8.722656 13.773438 C 8.722656 13.824219 8.625 13.851562 8.503906 13.832031 C 8.335938 13.808594 8.15625 13.542969 7.679688 12.605469 C 7.339844 11.941406 7.027344 11.4375 6.972656 11.472656 C 6.917969 11.507812 6.878906 11.964844 6.886719 12.570312 C 6.894531 13.140625 6.894531 13.664062 6.890625 13.726562 C 6.886719 13.859375 6.636719 13.898438 6.566406 13.777344 Z M 11.152344 8.285156 C 11.175781 7.988281 11.226562 7.863281 11.328125 7.863281 C 11.558594 7.863281 11.53125 8.628906 11.300781 8.671875 C 11.148438 8.703125 11.128906 8.648438 11.152344 8.285156 Z M 15.628906 5.660156 C 15.414062 5.5 15.230469 5.332031 15.210938 5.285156 C 15.195312 5.242188 15.285156 5.089844 15.410156 4.941406 C 15.628906 4.683594 15.640625 4.683594 15.984375 4.824219 C 16.492188 5.039062 16.609375 5.308594 16.351562 5.671875 C 16.238281 5.832031 16.113281 5.960938 16.078125 5.957031 C 16.042969 5.953125 15.839844 5.820312 15.628906 5.660156 Z M 15.628906 5.660156 "/>
<path style=" stroke:none;fill-rule:nonzero;fill:rgb(29.411765%,42.352941%,55.294118%);fill-opacity:1;" d="M 9.597656 14.851562 C 9.738281 14.480469 9.875 14.339844 10.03125 14.402344 C 10.234375 14.480469 10.203125 14.664062 9.945312 14.90625 C 9.625 15.207031 9.472656 15.183594 9.597656 14.851562 Z M 6.625 13.6875 C 6.585938 13.589844 6.550781 12.304688 6.550781 10.832031 C 6.550781 8.359375 6.5625 8.15625 6.71875 8.125 C 6.871094 8.09375 6.886719 8.195312 6.886719 9.167969 C 6.886719 9.78125 6.925781 10.246094 6.980469 10.246094 C 7.027344 10.246094 7.3125 9.792969 7.605469 9.234375 C 7.90625 8.679688 8.199219 8.179688 8.265625 8.128906 C 8.332031 8.078125 8.910156 8.054688 9.617188 8.082031 C 10.820312 8.125 10.847656 8.132812 10.847656 8.351562 C 10.847656 8.601562 10.683594 8.6875 10.222656 8.6875 C 10.011719 8.6875 9.882812 8.742188 9.839844 8.851562 C 9.804688 8.9375 9.78125 10.070312 9.789062 11.359375 C 9.796875 13.40625 9.777344 13.707031 9.648438 13.734375 C 9.515625 13.761719 9.496094 13.464844 9.472656 11.253906 L 9.445312 8.738281 L 8.304688 8.738281 L 7.777344 9.734375 L 7.257812 10.734375 L 7.972656 12.21875 C 8.433594 13.164062 8.65625 13.726562 8.589844 13.773438 C 8.410156 13.886719 8.234375 13.644531 7.648438 12.464844 C 7.335938 11.835938 7.035156 11.320312 6.980469 11.320312 C 6.925781 11.320312 6.886719 11.792969 6.886719 12.527344 C 6.886719 13.671875 6.789062 14.109375 6.625 13.6875 Z M 12.265625 13.785156 C 12.226562 13.75 12.199219 13.421875 12.199219 13.054688 C 12.199219 12.578125 12.164062 12.390625 12.074219 12.390625 C 11.933594 12.390625 11.425781 13.339844 11.425781 13.601562 C 11.425781 13.828125 11.101562 13.757812 11.054688 13.519531 C 11.035156 13.417969 10.894531 13.226562 10.742188 13.097656 C 10.585938 12.964844 10.460938 12.808594 10.460938 12.746094 C 10.460938 12.683594 10.613281 12.40625 10.792969 12.128906 C 11.113281 11.648438 11.128906 11.585938 11.15625 10.628906 C 11.175781 9.9375 11.222656 9.617188 11.304688 9.589844 C 11.394531 9.5625 11.425781 9.710938 11.425781 10.136719 C 11.425781 10.460938 11.46875 10.75 11.519531 10.78125 C 11.570312 10.8125 11.746094 10.65625 11.90625 10.433594 C 12.1875 10.035156 12.199219 9.988281 12.199219 8.96875 C 12.199219 8.109375 12.226562 7.910156 12.339844 7.910156 C 12.445312 7.910156 12.484375 8.070312 12.507812 8.570312 C 12.527344 9 12.578125 9.226562 12.652344 9.226562 C 12.8125 9.226562 13.507812 8.273438 13.859375 7.570312 C 14.246094 6.800781 14.910156 5.769531 15.015625 5.769531 C 15.132812 5.769531 15.871094 6.246094 15.871094 6.320312 C 15.871094 6.382812 14.988281 7.789062 14.308594 8.808594 C 14.105469 9.117188 13.9375 9.441406 13.9375 9.527344 C 13.9375 9.617188 13.71875 10.074219 13.453125 10.539062 C 13.1875 11.007812 12.972656 11.46875 12.972656 11.566406 C 12.972656 11.660156 13.210938 12.195312 13.5 12.75 C 13.933594 13.570312 14.003906 13.773438 13.882812 13.816406 C 13.6875 13.894531 13.667969 13.867188 13.164062 12.902344 C 12.925781 12.4375 12.6875 12.058594 12.632812 12.054688 C 12.578125 12.054688 12.523438 12.425781 12.507812 12.949219 C 12.484375 13.78125 12.433594 13.957031 12.261719 13.785156 Z M 14.484375 13.785156 C 14.320312 13.621094 14.46875 13.09375 15.046875 11.78125 C 15.394531 11 15.675781 10.292969 15.675781 10.210938 C 15.675781 10.097656 15.542969 10.054688 15.121094 10.03125 C 14.601562 10.007812 14.566406 9.988281 14.566406 9.761719 C 14.566406 9.519531 14.570312 9.515625 15.289062 9.550781 C 15.6875 9.570312 16.054688 9.625 16.109375 9.675781 C 16.21875 9.78125 16.046875 10.289062 15.351562 11.949219 C 15.105469 12.535156 14.902344 13.066406 14.902344 13.128906 C 14.902344 13.191406 15.136719 13.261719 15.449219 13.296875 C 16.074219 13.363281 16.25 13.476562 16.066406 13.699219 C 15.976562 13.8125 15.753906 13.851562 15.246094 13.851562 C 14.863281 13.851562 14.519531 13.820312 14.484375 13.785156 Z M 11.175781 8.449219 C 11.109375 8.167969 11.179688 7.910156 11.324219 7.910156 C 11.453125 7.910156 11.457031 8.5625 11.332031 8.636719 C 11.28125 8.671875 11.210938 8.585938 11.175781 8.449219 Z M 15.652344 5.605469 C 15.261719 5.328125 15.238281 5.269531 15.390625 4.984375 C 15.511719 4.757812 15.777344 4.742188 16.164062 4.941406 C 16.476562 5.105469 16.535156 5.402344 16.3125 5.695312 C 16.144531 5.921875 16.074219 5.910156 15.648438 5.605469 Z M 15.652344 5.605469 "/>
<path style=" stroke:none;fill-rule:nonzero;fill:rgb(12.54902%,28.627451%,45.098039%);fill-opacity:1;" d="M 9.589844 14.976562 C 9.589844 14.855469 9.824219 14.4375 9.890625 14.4375 C 10.0625 14.4375 10.082031 14.65625 9.925781 14.832031 C 9.769531 15.003906 9.589844 15.082031 9.589844 14.976562 Z M 14.976562 13.773438 C 14.273438 13.726562 14.292969 13.605469 15.410156 11.097656 C 15.621094 10.625 15.769531 10.179688 15.738281 10.101562 C 15.703125 10.011719 15.496094 9.957031 15.125 9.9375 C 14.703125 9.914062 14.566406 9.871094 14.566406 9.761719 C 14.566406 9.644531 14.710938 9.617188 15.289062 9.617188 C 15.992188 9.617188 16.015625 9.625 16.042969 9.859375 C 16.058594 9.992188 15.898438 10.496094 15.691406 10.976562 C 15.003906 12.574219 14.785156 13.1875 14.867188 13.269531 C 14.914062 13.316406 15.191406 13.367188 15.480469 13.382812 C 15.878906 13.40625 16.019531 13.453125 16.042969 13.574219 C 16.078125 13.753906 15.722656 13.820312 14.976562 13.773438 Z M 6.667969 13.699219 C 6.558594 13.585938 6.578125 8.226562 6.691406 8.15625 C 6.746094 8.121094 6.792969 8.519531 6.8125 9.191406 C 6.832031 9.914062 6.875 10.292969 6.953125 10.316406 C 7.011719 10.339844 7.269531 9.96875 7.523438 9.5 C 7.777344 9.027344 8.0625 8.523438 8.164062 8.375 L 8.347656 8.105469 L 9.550781 8.105469 C 10.277344 8.105469 10.757812 8.144531 10.765625 8.203125 C 10.8125 8.515625 10.773438 8.546875 10.316406 8.59375 L 9.832031 8.640625 L 9.808594 11.121094 C 9.792969 12.578125 9.742188 13.640625 9.6875 13.695312 C 9.625 13.757812 9.589844 12.933594 9.589844 11.300781 C 9.589844 9.269531 9.566406 8.789062 9.453125 8.699219 C 9.375 8.632812 9.101562 8.59375 8.808594 8.613281 L 8.304688 8.640625 L 7.796875 9.566406 C 7.515625 10.078125 7.28125 10.589844 7.28125 10.710938 C 7.277344 10.832031 7.578125 11.542969 7.949219 12.292969 C 8.320312 13.039062 8.625 13.675781 8.625 13.703125 C 8.625 13.730469 8.570312 13.753906 8.5 13.753906 C 8.429688 13.753906 8.09375 13.195312 7.75 12.511719 C 7.371094 11.753906 7.070312 11.269531 6.980469 11.269531 C 6.863281 11.269531 6.832031 11.496094 6.789062 12.519531 C 6.765625 13.207031 6.707031 13.738281 6.667969 13.695312 Z M 11.199219 13.6875 C 11.164062 13.652344 11.136719 13.558594 11.136719 13.480469 C 11.136719 13.402344 10.984375 13.199219 10.796875 13.035156 L 10.453125 12.730469 L 10.84375 12.148438 C 11.234375 11.5625 11.234375 11.558594 11.234375 10.613281 C 11.234375 10.046875 11.273438 9.664062 11.328125 9.664062 C 11.386719 9.664062 11.425781 9.941406 11.425781 10.304688 C 11.425781 11.066406 11.523438 11.085938 11.980469 10.402344 C 12.28125 9.953125 12.296875 9.890625 12.308594 8.945312 C 12.324219 7.96875 12.324219 7.96875 12.390625 8.625 C 12.464844 9.359375 12.613281 9.5625 12.898438 9.300781 C 13.191406 9.03125 13.929688 7.84375 14.429688 6.832031 C 14.691406 6.300781 14.953125 5.867188 15.015625 5.867188 C 15.175781 5.867188 15.773438 6.257812 15.773438 6.367188 C 15.773438 6.464844 14.550781 8.421875 14.171875 8.933594 C 14.050781 9.09375 13.921875 9.355469 13.878906 9.511719 C 13.84375 9.667969 13.601562 10.164062 13.34375 10.613281 C 13.085938 11.0625 12.875 11.496094 12.875 11.574219 C 12.875 11.652344 13.113281 12.15625 13.40625 12.699219 C 13.699219 13.242188 13.9375 13.699219 13.9375 13.71875 C 13.9375 13.738281 13.882812 13.753906 13.816406 13.753906 C 13.75 13.753906 13.476562 13.351562 13.210938 12.859375 C 12.949219 12.367188 12.675781 11.949219 12.609375 11.925781 C 12.519531 11.898438 12.488281 12.105469 12.488281 12.765625 C 12.488281 13.25 12.445312 13.671875 12.390625 13.707031 C 12.332031 13.742188 12.296875 13.515625 12.296875 13.089844 C 12.296875 12.390625 12.140625 12.050781 11.9375 12.316406 C 11.742188 12.574219 11.425781 13.28125 11.425781 13.457031 C 11.425781 13.660156 11.300781 13.789062 11.199219 13.6875 Z M 11.234375 8.304688 C 11.234375 8.140625 11.277344 8.007812 11.328125 8.007812 C 11.382812 8.007812 11.425781 8.117188 11.425781 8.246094 C 11.425781 8.378906 11.382812 8.511719 11.328125 8.542969 C 11.273438 8.578125 11.234375 8.480469 11.234375 8.304688 Z M 15.695312 5.566406 C 15.308594 5.28125 15.292969 5.246094 15.417969 5.050781 C 15.601562 4.769531 15.761719 4.757812 16.136719 4.988281 C 16.492188 5.207031 16.523438 5.363281 16.28125 5.664062 L 16.113281 5.875 Z M 15.695312 5.566406 "/>
<path style=" stroke:none;fill-rule:nonzero;fill:rgb(3.921569%,20.392157%,36.862745%);fill-opacity:1;" d="M 9.6875 14.800781 C 9.6875 14.734375 9.730469 14.613281 9.78125 14.53125 C 9.851562 14.417969 9.898438 14.414062 9.988281 14.503906 C 10.078125 14.59375 10.078125 14.652344 9.980469 14.773438 C 9.832031 14.953125 9.6875 14.96875 9.6875 14.800781 Z M 14.925781 13.683594 C 14.535156 13.644531 14.519531 13.632812 14.578125 13.382812 C 14.652344 13.066406 14.710938 12.984375 14.710938 13.191406 C 14.710938 13.390625 14.910156 13.460938 15.492188 13.460938 C 15.75 13.460938 15.964844 13.503906 15.964844 13.558594 C 15.964844 13.613281 15.910156 13.65625 15.84375 13.65625 C 15.777344 13.660156 15.636719 13.671875 15.53125 13.691406 C 15.425781 13.707031 15.152344 13.707031 14.925781 13.683594 Z M 8.359375 13.535156 C 8.304688 13.46875 7.992188 12.875 7.671875 12.21875 C 7.117188 11.109375 6.882812 10.832031 6.757812 11.148438 C 6.730469 11.214844 6.703125 11.066406 6.703125 10.820312 C 6.695312 10.40625 6.710938 10.375 6.910156 10.414062 C 7.101562 10.445312 7.199219 10.3125 7.707031 9.351562 L 8.289062 8.25 L 9.515625 8.226562 C 10.570312 8.203125 10.75 8.21875 10.75 8.347656 C 10.75 8.457031 10.640625 8.496094 10.328125 8.496094 C 10.074219 8.496094 9.859375 8.550781 9.785156 8.636719 C 9.683594 8.765625 9.652344 8.765625 9.527344 8.636719 C 9.4375 8.546875 9.195312 8.496094 8.867188 8.496094 C 8.410156 8.496094 8.324219 8.527344 8.164062 8.765625 C 7.855469 9.207031 7.175781 10.585938 7.175781 10.765625 C 7.175781 10.855469 7.480469 11.542969 7.851562 12.292969 C 8.488281 13.574219 8.59375 13.824219 8.359375 13.535156 Z M 11.074219 13.21875 C 10.753906 13.054688 10.554688 12.867188 10.554688 12.726562 C 10.554688 12.65625 10.710938 12.394531 10.902344 12.140625 C 11.09375 11.890625 11.273438 11.539062 11.300781 11.355469 C 11.332031 11.175781 11.40625 11.027344 11.472656 11.027344 C 11.664062 11.027344 12.285156 10.15625 12.351562 9.792969 C 12.40625 9.507812 12.429688 9.484375 12.53125 9.625 C 12.632812 9.765625 12.679688 9.742188 12.945312 9.402344 C 13.402344 8.820312 14.222656 7.453125 14.574219 6.695312 C 14.746094 6.316406 14.917969 5.980469 14.953125 5.941406 C 15.039062 5.859375 15.769531 6.222656 15.769531 6.351562 C 15.769531 6.4375 14.820312 7.96875 14.214844 8.851562 C 14.066406 9.070312 13.898438 9.359375 13.851562 9.492188 C 13.800781 9.621094 13.535156 10.117188 13.265625 10.597656 C 12.976562 11.105469 12.78125 11.546875 12.804688 11.667969 C 12.835938 11.835938 12.800781 11.859375 12.617188 11.824219 C 12.4375 11.792969 12.390625 11.824219 12.390625 12 C 12.390625 12.152344 12.347656 12.199219 12.246094 12.160156 C 12.109375 12.105469 11.714844 12.4375 11.714844 12.609375 C 11.714844 12.65625 11.617188 12.835938 11.496094 13.007812 C 11.308594 13.285156 11.253906 13.3125 11.074219 13.21875 Z M 13.261719 12.78125 C 13.203125 12.671875 13.179688 12.585938 13.207031 12.585938 C 13.234375 12.585938 13.300781 12.671875 13.359375 12.78125 C 13.414062 12.886719 13.4375 12.976562 13.410156 12.976562 C 13.386719 12.976562 13.320312 12.886719 13.261719 12.78125 Z M 15.867188 10.113281 C 15.867188 9.925781 15.652344 9.859375 15.085938 9.859375 C 14.828125 9.859375 14.613281 9.816406 14.613281 9.761719 C 14.613281 9.707031 14.902344 9.664062 15.289062 9.664062 L 15.964844 9.664062 L 15.964844 9.957031 C 15.964844 10.117188 15.941406 10.25 15.917969 10.25 C 15.890625 10.25 15.867188 10.1875 15.867188 10.113281 Z M 15.703125 5.542969 C 15.355469 5.308594 15.316406 5.171875 15.53125 4.957031 C 15.699219 4.785156 15.96875 4.839844 16.242188 5.097656 C 16.414062 5.253906 16.425781 5.320312 16.332031 5.527344 C 16.199219 5.820312 16.109375 5.820312 15.703125 5.542969 Z M 15.703125 5.542969 "/>
<path style=" stroke:none;fill-rule:nonzero;fill:rgb(13.333333%,14.117647%,15.294118%);fill-opacity:1;" d="M 9.6875 14.800781 C 9.6875 14.734375 9.730469 14.613281 9.78125 14.53125 C 9.851562 14.417969 9.898438 14.414062 9.988281 14.503906 C 10.078125 14.59375 10.078125 14.652344 9.980469 14.773438 C 9.832031 14.953125 9.6875 14.96875 9.6875 14.800781 Z M 10.699219 12.96875 C 10.523438 12.773438 10.523438 12.761719 10.699219 12.433594 C 11.042969 11.789062 11.136719 11.808594 11.136719 12.523438 C 11.136719 13.226562 11.027344 13.335938 10.699219 12.96875 Z M 11.507812 11.980469 C 11.539062 11.195312 11.574219 11.042969 11.796875 10.75 C 12.050781 10.414062 12.050781 10.414062 12.117188 10.648438 C 12.148438 10.777344 12.183594 11.125 12.1875 11.425781 C 12.195312 11.851562 12.152344 12.023438 11.996094 12.203125 C 11.882812 12.332031 11.753906 12.539062 11.707031 12.65625 C 11.542969 13.089844 11.472656 12.863281 11.507812 11.980469 Z M 12.585938 10.453125 C 12.585938 9.902344 12.617188 9.8125 12.964844 9.367188 C 13.449219 8.75 14.25 7.414062 14.582031 6.679688 C 14.953125 5.84375 14.957031 5.839844 15.394531 6.066406 C 15.601562 6.171875 15.773438 6.300781 15.773438 6.351562 C 15.773438 6.402344 15.484375 6.894531 15.132812 7.445312 C 14.15625 8.972656 13.925781 9.304688 13.679688 9.546875 C 13.550781 9.671875 13.316406 10.007812 13.15625 10.292969 C 12.6875 11.132812 12.585938 11.160156 12.585938 10.453125 Z M 15.703125 5.542969 C 15.355469 5.304688 15.316406 5.171875 15.53125 4.957031 C 15.699219 4.785156 15.96875 4.835938 16.242188 5.097656 C 16.414062 5.253906 16.425781 5.320312 16.332031 5.523438 C 16.199219 5.816406 16.109375 5.820312 15.703125 5.542969 Z M 15.703125 5.542969 "/>
</g>
</svg>
