
<svg xmlns="http://www.w3.org/2000/svg" xmlns:xlink="http://www.w3.org/1999/xlink" width="22px" height="22px" viewBox="0 0 22 22" version="1.1">
<g id="surface1">
<path style=" stroke:none;fill-rule:nonzero;fill:rgb(100%,100%,100%);fill-opacity:1;" d="M 7.863281 10.664062 L 7.863281 14.953125 C 7.863281 17.523438 8.308594 17.523438 12.277344 17.523438 L 13.160156 17.523438 C 17.128906 17.523438 17.570312 17.523438 17.570312 14.953125 L 17.570312 10.664062 C 17.570312 8.09375 17.128906 8.09375 13.160156 8.09375 L 12.277344 8.09375 C 8.308594 8.09375 7.863281 8.09375 7.863281 10.664062 Z M 12.277344 8.949219 L 13.160156 8.949219 C 16.6875 8.949219 16.6875 8.949219 16.6875 10.664062 L 16.6875 13.664062 C 16.6875 15.382812 16.6875 15.382812 13.160156 15.382812 L 12.277344 15.382812 C 8.746094 15.382812 8.746094 15.382812 8.746094 13.664062 L 8.746094 10.664062 C 8.746094 8.949219 8.746094 8.949219 12.277344 8.949219 Z M 12.277344 8.949219 "/>
<path style=" stroke:none;fill-rule:nonzero;fill:rgb(100%,100%,100%);fill-opacity:1;" d="M 9.628906 13.746094 L 9.628906 12.082031 L 11.171875 10.523438 L 13.105469 12.472656 L 13.878906 11.691406 L 15.808594 13.640625 L 15.808594 13.746094 C 15.808594 14.523438 15.679688 14.523438 14.265625 14.523438 L 11.175781 14.523438 C 9.757812 14.523438 9.632812 14.523438 9.632812 13.746094 Z M 9.628906 13.746094 "/>
<path style=" stroke:none;fill-rule:nonzero;fill:rgb(100%,100%,100%);fill-opacity:1;" d="M 15.804688 10.664062 C 15.804688 11.136719 15.410156 11.523438 14.921875 11.523438 C 14.4375 11.523438 14.042969 11.136719 14.042969 10.664062 C 14.042969 10.191406 14.4375 9.808594 14.921875 9.808594 C 15.410156 9.808594 15.804688 10.191406 15.804688 10.664062 Z M 15.804688 10.664062 "/>
<path style=" stroke:none;fill-rule:nonzero;fill:rgb(100%,100%,100%);fill-opacity:1;" d="M 10.511719 6.378906 C 6.542969 6.378906 6.101562 6.378906 6.101562 8.949219 L 6.101562 13.238281 C 6.101562 14.632812 6.230469 15.273438 6.980469 15.5625 L 6.980469 8.949219 C 6.980469 7.398438 7.007812 7.253906 9.628906 7.238281 L 9.628906 7.234375 L 15.589844 7.234375 C 15.199219 6.378906 14.148438 6.378906 11.394531 6.378906 Z M 10.511719 6.378906 "/>
<path style=" stroke:none;fill-rule:nonzero;fill:rgb(100%,100%,100%);fill-opacity:1;" d="M 8.746094 4.664062 C 4.777344 4.664062 4.335938 4.664062 4.335938 7.234375 L 4.335938 11.523438 C 4.335938 12.917969 4.46875 13.554688 5.21875 13.851562 L 5.21875 7.234375 C 5.21875 5.683594 5.246094 5.539062 7.863281 5.523438 L 7.863281 5.519531 L 13.824219 5.519531 C 13.4375 4.664062 12.382812 4.664062 9.628906 4.664062 Z M 8.746094 4.664062 "/>
<path style=" stroke:none;fill-rule:nonzero;fill:rgb(69.019608%,76.862745%,87.058824%);fill-opacity:1;" d="M 16.828125 2.265625 C 5.578125 -5.644531 -5.824219 8.964844 3.34375 18.28125 C 11.984375 27.0625 25.402344 18.925781 21.207031 7.996094 C 20.332031 5.71875 18.894531 3.71875 16.828125 2.265625 Z M 16.828125 2.265625 "/>
<path style=" stroke:none;fill-rule:nonzero;fill:rgb(46.666667%,53.333333%,60%);fill-opacity:1;" d="M 5.25 10.375 L 16.226562 10.375 C 16.398438 10.375 16.535156 10.472656 16.535156 10.589844 L 16.535156 12.503906 C 16.535156 12.621094 16.398438 12.714844 16.226562 12.714844 L 5.25 12.714844 C 5.078125 12.714844 4.941406 12.621094 4.941406 12.503906 L 4.941406 10.589844 C 4.941406 10.472656 5.078125 10.375 5.25 10.375 Z M 5.25 10.375 "/>
<path style=" stroke:none;fill-rule:nonzero;fill:rgb(46.666667%,53.333333%,60%);fill-opacity:1;" d="M 9.085938 7.753906 L 12.554688 7.753906 C 12.976562 7.753906 13.320312 7.988281 13.320312 8.273438 L 13.320312 9.816406 C 13.320312 10.105469 12.976562 10.335938 12.554688 10.335938 L 9.085938 10.335938 C 8.664062 10.335938 8.320312 10.105469 8.320312 9.816406 L 8.320312 8.273438 C 8.320312 7.988281 8.664062 7.753906 9.085938 7.753906 Z M 9.085938 7.753906 "/>
<path style=" stroke:none;fill-rule:nonzero;fill:rgb(46.666667%,53.333333%,60%);fill-opacity:1;" d="M 6.179688 13.777344 L 15.679688 13.777344 C 16.015625 13.777344 16.285156 13.949219 16.285156 14.15625 C 16.285156 14.371094 16.015625 14.539062 15.679688 14.539062 L 6.179688 14.539062 C 5.84375 14.539062 5.574219 14.371094 5.574219 14.15625 C 5.574219 13.949219 5.84375 13.777344 6.179688 13.777344 Z M 6.179688 13.777344 "/>
<path style=" stroke:none;fill-rule:nonzero;fill:rgb(46.666667%,53.333333%,60%);fill-opacity:1;" d="M 7.527344 7.855469 L 9.816406 7.855469 C 10.097656 7.855469 10.320312 8.007812 10.320312 8.199219 L 10.320312 9.484375 C 10.320312 9.675781 10.097656 9.832031 9.816406 9.832031 L 7.527344 9.832031 C 7.25 9.832031 7.023438 9.675781 7.023438 9.484375 L 7.023438 8.199219 C 7.023438 8.007812 7.25 7.855469 7.527344 7.855469 Z M 7.527344 7.855469 "/>
<path style=" stroke:none;fill-rule:nonzero;fill:rgb(46.666667%,53.333333%,60%);fill-opacity:1;" d="M 8.316406 8.394531 L 16.84375 8.394531 C 17.144531 8.394531 17.382812 8.558594 17.382812 8.765625 L 17.382812 8.785156 C 17.382812 8.988281 17.144531 9.152344 16.84375 9.152344 L 8.316406 9.152344 C 8.015625 9.152344 7.773438 8.988281 7.773438 8.785156 L 7.773438 8.765625 C 7.773438 8.558594 8.015625 8.394531 8.316406 8.394531 Z M 8.316406 8.394531 "/>
<path style="fill-rule:evenodd;fill:rgb(46.666667%,53.333333%,60%);fill-opacity:1;stroke-width:1;stroke-linecap:butt;stroke-linejoin:miter;stroke:rgb(46.666667%,53.333333%,60%);stroke-opacity:1;stroke-miterlimit:4;" d="M 86.772371 164.883815 C 86.772371 167.879222 84.600146 170.293887 81.915033 170.293887 C 79.199751 170.293887 77.027526 167.879222 77.027526 164.883815 C 77.027526 161.888408 79.199751 159.443178 81.915033 159.443178 C 84.600146 159.443178 86.772371 161.888408 86.772371 164.883815 Z M 86.772371 164.883815 " transform="matrix(0.129475,0,0,0.1278,-4.613802,-7.443218)"/>
<path style="fill-rule:evenodd;fill:rgb(46.666667%,53.333333%,60%);fill-opacity:1;stroke-width:1;stroke-linecap:butt;stroke-linejoin:miter;stroke:rgb(46.666667%,53.333333%,60%);stroke-opacity:1;stroke-miterlimit:4;" d="M 86.773816 164.883815 C 86.773816 167.879222 84.60159 170.293887 81.886308 170.293887 C 79.201196 170.293887 77.02897 167.879222 77.02897 164.883815 C 77.02897 161.888408 79.201196 159.443178 81.886308 159.443178 C 84.60159 159.443178 86.773816 161.888408 86.773816 164.883815 Z M 86.773816 164.883815 " transform="matrix(0.129475,0,0,0.1278,5.382104,-7.443218)"/>
<path style="fill-rule:evenodd;fill:rgb(46.666667%,53.333333%,60%);fill-opacity:1;stroke-width:1;stroke-linecap:butt;stroke-linejoin:miter;stroke:rgb(46.666667%,53.333333%,60%);stroke-opacity:1;stroke-miterlimit:4;" d="M 86.777921 164.881789 C 86.777921 167.877196 84.605695 170.322426 81.890413 170.322426 C 79.205301 170.322426 77.002905 167.877196 77.002905 164.881789 C 77.002905 161.886382 79.205301 159.441152 81.890413 159.441152 C 84.605695 159.441152 86.777921 161.886382 86.777921 164.881789 Z M 86.777921 164.881789 " transform="matrix(0.129475,0,0,0.1278,3.483135,-7.544521)"/>
<path style="fill-rule:evenodd;fill:rgb(46.666667%,53.333333%,60%);fill-opacity:1;stroke-width:1;stroke-linecap:butt;stroke-linejoin:miter;stroke:rgb(46.666667%,53.333333%,60%);stroke-opacity:1;stroke-miterlimit:4;" d="M 86.771597 164.881789 C 86.771597 167.877196 84.599371 170.322426 81.914259 170.322426 C 79.198977 170.322426 77.026752 167.877196 77.026752 164.881789 C 77.026752 161.886382 79.198977 159.441152 81.914259 159.441152 C 84.599371 159.441152 86.771597 161.886382 86.771597 164.881789 Z M 86.771597 164.881789 " transform="matrix(0.129475,0,0,0.1278,1.483954,-7.544521)"/>
<path style="fill-rule:evenodd;fill:rgb(46.666667%,53.333333%,60%);fill-opacity:1;stroke-width:1;stroke-linecap:butt;stroke-linejoin:miter;stroke:rgb(46.666667%,53.333333%,60%);stroke-opacity:1;stroke-miterlimit:4;" d="M 86.765273 164.881789 C 86.765273 167.877196 84.593048 170.322426 81.907936 170.322426 C 79.192654 170.322426 77.020428 167.877196 77.020428 164.881789 C 77.020428 161.886382 79.192654 159.441152 81.907936 159.441152 C 84.593048 159.441152 86.765273 161.886382 86.765273 164.881789 Z M 86.765273 164.881789 " transform="matrix(0.129475,0,0,0.1278,-0.515227,-7.544521)"/>
<path style="fill-rule:evenodd;fill:rgb(46.666667%,53.333333%,60%);fill-opacity:1;stroke-width:1;stroke-linecap:butt;stroke-linejoin:miter;stroke:rgb(46.666667%,53.333333%,60%);stroke-opacity:1;stroke-miterlimit:4;" d="M 86.788529 164.883815 C 86.788529 167.879222 84.586133 170.293887 81.901021 170.293887 C 79.185739 170.293887 77.013513 167.879222 77.013513 164.883815 C 77.013513 161.888408 79.185739 159.443178 81.901021 159.443178 C 84.586133 159.443178 86.788529 161.888408 86.788529 164.883815 Z M 86.788529 164.883815 " transform="matrix(0.129475,0,0,0.1278,-2.514332,-7.443218)"/>
</g>
</svg>
