
<svg xmlns="http://www.w3.org/2000/svg" xmlns:xlink="http://www.w3.org/1999/xlink" width="22px" height="22px" viewBox="0 0 22 22" version="1.1">
<g id="surface1">
<path style=" stroke:none;fill-rule:nonzero;fill:rgb(41.176471%,41.176471%,41.176471%);fill-opacity:1;" d="M 0.40625 13.328125 C 2.105469 24.546875 19.035156 24.882812 21.59375 13.976562 C 24.226562 5.148438 14.691406 -2.070312 7.5625 0.820312 C 2.785156 2.191406 -1.074219 7.785156 0.40625 13.328125 Z M 0.40625 13.328125 "/>
<path style=" stroke:none;fill-rule:evenodd;fill:rgb(100%,100%,100%);fill-opacity:1;" d="M 6.53125 13.160156 C 6.53125 12.898438 6.558594 12.847656 6.691406 12.847656 C 6.777344 12.847656 6.847656 12.8125 6.847656 12.765625 C 6.847656 12.722656 6.886719 12.6875 6.933594 12.6875 C 7.1875 12.6875 7.246094 12.460938 7.246094 11.433594 C 7.246094 10.804688 7.214844 10.40625 7.164062 10.40625 C 7.121094 10.40625 7.085938 10.355469 7.085938 10.289062 C 7.085938 10.226562 7.03125 10.171875 6.96875 10.171875 C 6.902344 10.171875 6.847656 10.136719 6.847656 10.09375 C 6.847656 10.050781 6.777344 10.011719 6.691406 10.011719 C 6.5625 10.011719 6.53125 9.960938 6.53125 9.738281 C 6.53125 9.476562 6.546875 9.464844 6.808594 9.464844 C 7.007812 9.464844 7.085938 9.496094 7.085938 9.585938 C 7.085938 9.730469 7.269531 9.933594 7.398438 9.933594 C 7.445312 9.933594 7.480469 9.988281 7.480469 10.054688 C 7.480469 10.15625 7.703125 10.171875 8.984375 10.171875 L 10.488281 10.171875 L 10.488281 12.6875 L 8.984375 12.6875 C 7.703125 12.6875 7.480469 12.707031 7.480469 12.804688 C 7.480469 12.871094 7.445312 12.925781 7.398438 12.925781 C 7.273438 12.925781 7.085938 13.128906 7.085938 13.269531 C 7.085938 13.335938 7.175781 13.402344 7.304688 13.417969 C 7.425781 13.4375 7.300781 13.457031 7.027344 13.464844 L 6.53125 13.476562 Z M 10.09375 11.429688 L 10.09375 10.566406 L 7.640625 10.566406 L 7.640625 12.296875 L 10.09375 12.296875 Z M 7.402344 10.25 C 7.402344 10.207031 7.386719 10.171875 7.367188 10.171875 C 7.347656 10.171875 7.3125 10.207031 7.285156 10.25 C 7.257812 10.292969 7.273438 10.328125 7.320312 10.328125 C 7.367188 10.328125 7.402344 10.292969 7.402344 10.25 Z M 7.402344 10.25 "/>
<path style=" stroke:none;fill-rule:evenodd;fill:rgb(100%,100%,100%);fill-opacity:1;" d="M 13.242188 10.507812 C 13.472656 10.464844 13.46875 10.289062 13.226562 10.050781 C 13.035156 9.859375 13.011719 9.855469 11.644531 9.855469 L 10.253906 9.855469 L 10.253906 8.710938 C 10.253906 7.5625 10.203125 7.339844 9.941406 7.339844 C 9.894531 7.339844 9.859375 7.285156 9.859375 7.21875 C 9.859375 7.011719 9.628906 7.09375 9.597656 7.320312 C 9.578125 7.4375 9.558594 7.316406 9.550781 7.042969 L 9.539062 6.550781 L 10.035156 6.5625 C 10.308594 6.570312 10.433594 6.589844 10.3125 6.609375 C 10.085938 6.640625 10 6.867188 10.214844 6.867188 C 10.277344 6.867188 10.332031 6.90625 10.332031 6.953125 C 10.332031 7.214844 10.550781 7.261719 11.796875 7.261719 C 13.039062 7.261719 13.261719 7.214844 13.261719 6.953125 C 13.261719 6.90625 13.296875 6.867188 13.339844 6.867188 C 13.5 6.867188 13.414062 6.640625 13.242188 6.609375 C 13.144531 6.589844 13.285156 6.570312 13.558594 6.5625 L 14.050781 6.550781 L 14.042969 7.042969 C 14.035156 7.316406 14.015625 7.4375 13.996094 7.320312 C 13.972656 7.167969 13.917969 7.101562 13.8125 7.101562 C 13.726562 7.101562 13.65625 7.148438 13.65625 7.203125 C 13.65625 7.261719 13.585938 7.355469 13.5 7.417969 C 13.355469 7.519531 13.339844 7.621094 13.339844 8.539062 C 13.339844 9.507812 13.347656 9.558594 13.535156 9.742188 C 13.777344 9.984375 13.953125 9.988281 13.996094 9.757812 C 14.015625 9.660156 14.035156 9.800781 14.042969 10.074219 L 14.050781 10.566406 L 13.558594 10.554688 C 13.285156 10.546875 13.144531 10.527344 13.242188 10.507812 Z M 13.261719 9.699219 C 13.261719 9.65625 13.246094 9.621094 13.226562 9.621094 C 13.207031 9.621094 13.171875 9.65625 13.144531 9.699219 C 13.117188 9.742188 13.128906 9.777344 13.175781 9.777344 C 13.222656 9.777344 13.261719 9.742188 13.261719 9.699219 Z M 12.945312 8.558594 L 12.945312 7.652344 L 10.648438 7.652344 L 10.648438 9.464844 L 12.945312 9.464844 Z M 12.945312 8.558594 "/>
<path style=" stroke:none;fill-rule:evenodd;fill:rgb(100%,100%,100%);fill-opacity:1;" d="M 6.511719 13.449219 C 6.488281 13.441406 6.480469 13.316406 6.480469 12.957031 C 6.480469 12.546875 6.488281 12.480469 6.519531 12.480469 C 6.550781 12.480469 6.558594 12.515625 6.558594 12.660156 L 6.558594 12.847656 L 6.699219 12.835938 C 6.832031 12.828125 6.835938 12.828125 6.84375 12.746094 C 6.851562 12.667969 6.859375 12.660156 6.941406 12.660156 C 7.027344 12.660156 7.03125 12.65625 7.03125 12.570312 C 7.03125 12.484375 7.039062 12.480469 7.109375 12.480469 L 7.1875 12.480469 L 7.1875 10.398438 L 7.109375 10.378906 C 7.042969 10.367188 7.03125 10.355469 7.03125 10.277344 C 7.03125 10.195312 7.023438 10.1875 6.941406 10.1875 C 6.863281 10.1875 6.851562 10.179688 6.84375 10.117188 C 6.835938 10.050781 6.824219 10.046875 6.699219 10.039062 L 6.558594 10.03125 L 6.558594 10.203125 C 6.558594 10.335938 6.550781 10.371094 6.519531 10.371094 C 6.488281 10.371094 6.480469 10.300781 6.480469 9.890625 L 6.480469 9.410156 L 6.964844 9.410156 C 7.378906 9.410156 7.449219 9.414062 7.449219 9.449219 C 7.449219 9.476562 7.414062 9.488281 7.28125 9.488281 L 7.109375 9.488281 L 7.109375 9.589844 C 7.109375 9.730469 7.132812 9.773438 7.203125 9.773438 C 7.253906 9.773438 7.265625 9.789062 7.265625 9.835938 C 7.265625 9.882812 7.285156 9.90625 7.355469 9.933594 C 7.417969 9.953125 7.457031 9.992188 7.472656 10.039062 L 7.5 10.113281 L 10.484375 10.113281 L 10.484375 12.738281 L 8.988281 12.742188 L 7.492188 12.75 L 7.464844 12.835938 C 7.449219 12.898438 7.425781 12.921875 7.386719 12.921875 C 7.316406 12.921875 7.265625 12.96875 7.265625 13.03125 C 7.265625 13.058594 7.246094 13.078125 7.21875 13.078125 C 7.144531 13.078125 7.109375 13.128906 7.109375 13.25 L 7.109375 13.363281 L 7.28125 13.363281 C 7.414062 13.363281 7.449219 13.371094 7.449219 13.402344 C 7.449219 13.429688 7.417969 13.441406 7.324219 13.441406 C 7.257812 13.441406 7.054688 13.449219 6.875 13.453125 C 6.695312 13.460938 6.53125 13.460938 6.511719 13.449219 Z M 10.039062 11.425781 L 10.039062 10.554688 L 7.632812 10.554688 L 7.632812 12.296875 L 10.039062 12.296875 Z M 7.371094 10.242188 C 7.371094 10.207031 7.359375 10.195312 7.332031 10.207031 C 7.308594 10.214844 7.292969 10.238281 7.292969 10.257812 C 7.292969 10.277344 7.308594 10.292969 7.332031 10.292969 C 7.351562 10.292969 7.371094 10.269531 7.371094 10.242188 Z M 7.371094 10.242188 "/>
<path style=" stroke:none;fill-rule:evenodd;fill:rgb(100%,100%,100%);fill-opacity:1;" d="M 6.511719 13.449219 C 6.488281 13.441406 6.480469 13.316406 6.480469 12.957031 C 6.480469 12.546875 6.488281 12.480469 6.519531 12.480469 C 6.550781 12.480469 6.558594 12.515625 6.558594 12.660156 L 6.558594 12.84375 L 6.671875 12.84375 C 6.796875 12.84375 6.847656 12.808594 6.847656 12.722656 C 6.847656 12.675781 6.863281 12.660156 6.933594 12.65625 C 7.007812 12.648438 7.019531 12.636719 7.023438 12.5625 C 7.03125 12.488281 7.042969 12.480469 7.109375 12.480469 L 7.1875 12.480469 L 7.1875 10.398438 L 7.109375 10.378906 C 7.046875 10.367188 7.03125 10.351562 7.023438 10.285156 C 7.019531 10.214844 7.007812 10.203125 6.933594 10.195312 C 6.867188 10.1875 6.851562 10.175781 6.84375 10.117188 C 6.835938 10.050781 6.824219 10.046875 6.699219 10.039062 L 6.558594 10.03125 L 6.558594 10.203125 C 6.558594 10.335938 6.550781 10.371094 6.519531 10.371094 C 6.488281 10.371094 6.480469 10.300781 6.480469 9.890625 L 6.480469 9.410156 L 6.964844 9.410156 C 7.378906 9.410156 7.449219 9.414062 7.449219 9.449219 C 7.449219 9.476562 7.414062 9.488281 7.28125 9.488281 L 7.109375 9.488281 L 7.109375 9.601562 C 7.109375 9.71875 7.144531 9.773438 7.21875 9.773438 C 7.242188 9.773438 7.265625 9.796875 7.269531 9.832031 C 7.277344 9.867188 7.3125 9.90625 7.363281 9.929688 C 7.414062 9.949219 7.457031 10 7.472656 10.039062 L 7.5 10.113281 L 10.484375 10.113281 L 10.484375 12.738281 L 8.988281 12.742188 L 7.492188 12.75 L 7.46875 12.832031 C 7.453125 12.890625 7.421875 12.917969 7.363281 12.933594 C 7.304688 12.953125 7.277344 12.976562 7.269531 13.019531 C 7.265625 13.054688 7.242188 13.078125 7.21875 13.078125 C 7.144531 13.078125 7.109375 13.132812 7.109375 13.25 L 7.109375 13.363281 L 7.28125 13.363281 C 7.40625 13.363281 7.449219 13.371094 7.449219 13.398438 C 7.449219 13.425781 7.367188 13.4375 7.117188 13.449219 C 6.738281 13.46875 6.5625 13.46875 6.511719 13.449219 Z M 10.039062 11.425781 L 10.039062 10.554688 L 7.632812 10.554688 L 7.632812 12.296875 L 10.039062 12.296875 Z M 7.367188 10.242188 C 7.371094 10.222656 7.363281 10.214844 7.34375 10.222656 C 7.324219 10.226562 7.304688 10.25 7.296875 10.265625 C 7.289062 10.285156 7.300781 10.292969 7.320312 10.289062 C 7.339844 10.28125 7.359375 10.261719 7.367188 10.242188 Z M 7.367188 10.242188 "/>
<path style=" stroke:none;fill-rule:evenodd;fill:rgb(100%,100%,100%);fill-opacity:1;" d="M 14.601562 12.148438 C 14.835938 12.191406 14.828125 12.367188 14.585938 12.609375 C 14.394531 12.796875 14.371094 12.800781 13.003906 12.800781 L 11.613281 12.800781 L 11.613281 13.945312 C 11.613281 15.097656 11.5625 15.320312 11.300781 15.320312 C 11.257812 15.320312 11.21875 15.371094 11.21875 15.4375 C 11.21875 15.644531 10.992188 15.5625 10.957031 15.339844 C 10.9375 15.21875 10.917969 15.34375 10.914062 15.613281 L 10.902344 16.105469 L 11.394531 16.09375 C 11.667969 16.085938 11.792969 16.066406 11.671875 16.046875 C 11.449219 16.015625 11.363281 15.789062 11.574219 15.789062 C 11.640625 15.789062 11.691406 15.75 11.691406 15.707031 C 11.691406 15.445312 11.914062 15.398438 13.15625 15.398438 C 14.402344 15.398438 14.621094 15.445312 14.621094 15.707031 C 14.621094 15.75 14.65625 15.789062 14.699219 15.789062 C 14.863281 15.789062 14.773438 16.015625 14.601562 16.046875 C 14.503906 16.070312 14.648438 16.089844 14.917969 16.09375 L 15.414062 16.105469 L 15.402344 15.613281 C 15.394531 15.34375 15.375 15.21875 15.359375 15.339844 C 15.335938 15.488281 15.277344 15.554688 15.171875 15.554688 C 15.085938 15.554688 15.019531 15.507812 15.019531 15.453125 C 15.019531 15.398438 14.945312 15.300781 14.859375 15.238281 C 14.714844 15.136719 14.699219 15.035156 14.699219 14.117188 C 14.699219 13.148438 14.710938 13.101562 14.894531 12.914062 C 15.136719 12.675781 15.3125 12.667969 15.359375 12.898438 C 15.378906 12.996094 15.398438 12.855469 15.402344 12.585938 L 15.414062 12.09375 L 14.917969 12.101562 C 14.648438 12.109375 14.503906 12.128906 14.601562 12.148438 Z M 14.621094 12.957031 C 14.621094 13 14.605469 13.035156 14.585938 13.035156 C 14.566406 13.035156 14.53125 13 14.503906 12.957031 C 14.476562 12.914062 14.492188 12.878906 14.539062 12.878906 C 14.585938 12.878906 14.621094 12.914062 14.621094 12.957031 Z M 14.304688 14.097656 L 14.304688 15.003906 L 12.007812 15.003906 L 12.007812 13.191406 L 14.304688 13.191406 Z M 14.304688 14.097656 "/>
<path style=" stroke:none;fill-rule:evenodd;fill:rgb(100%,100%,100%);fill-opacity:1;" d="M 5.574219 5.078125 L 14.492188 5.078125 L 14.492188 5.488281 L 5.574219 5.488281 Z M 5.574219 5.078125 "/>
<path style=" stroke:none;fill-rule:evenodd;fill:rgb(100%,100%,100%);fill-opacity:1;" d="M 5.710938 5.066406 L 5.710938 13.925781 L 5.300781 13.925781 L 5.300781 5.066406 Z M 5.710938 5.066406 "/>
<path style=" stroke:none;fill-rule:evenodd;fill:rgb(100%,100%,100%);fill-opacity:1;" d="M 7.433594 17.328125 L 16.351562 17.328125 L 16.351562 17.738281 L 7.433594 17.738281 Z M 7.433594 17.328125 "/>
<path style=" stroke:none;fill-rule:evenodd;fill:rgb(100%,100%,100%);fill-opacity:1;" d="M 16.703125 8.863281 L 16.703125 17.726562 L 16.292969 17.726562 L 16.292969 8.863281 Z M 16.703125 8.863281 "/>
</g>
</svg>
