
<svg xmlns="http://www.w3.org/2000/svg" xmlns:xlink="http://www.w3.org/1999/xlink" width="22px" height="22px" viewBox="0 0 22 22" version="1.1">
<g id="surface1">
<path style=" stroke:none;fill-rule:nonzero;fill:rgb(69.019608%,76.862745%,87.058824%);fill-opacity:1;" d="M 19.851562 16.691406 C 27.722656 5.605469 13.1875 -5.628906 3.910156 3.402344 C -4.824219 11.914062 3.277344 25.136719 14.148438 21.003906 C 16.414062 20.140625 18.40625 18.726562 19.851562 16.691406 Z M 19.851562 16.691406 "/>
<path style=" stroke:none;fill-rule:nonzero;fill:rgb(90.196078%,90.196078%,98.039216%);fill-opacity:1;" d="M 4.488281 7.136719 L 9.574219 5.128906 C 9.976562 4.96875 10.480469 5.285156 10.695312 5.835938 L 13.441406 12.78125 C 13.660156 13.332031 13.507812 13.90625 13.105469 14.066406 L 8.023438 16.074219 C 7.621094 16.234375 7.117188 15.917969 6.898438 15.367188 L 4.15625 8.421875 C 3.9375 7.871094 4.085938 7.296875 4.488281 7.136719 Z M 4.488281 7.136719 "/>
<path style=" stroke:none;fill-rule:nonzero;fill:rgb(69.019608%,76.862745%,87.058824%);fill-opacity:1;" d="M 6.8125 11.601562 L 11.128906 9.839844 C 11.269531 9.78125 11.449219 9.886719 11.523438 10.078125 C 11.601562 10.265625 11.550781 10.464844 11.40625 10.523438 L 7.089844 12.285156 C 6.945312 12.339844 6.769531 12.234375 6.691406 12.046875 C 6.617188 11.859375 6.667969 11.660156 6.8125 11.601562 Z M 6.8125 11.601562 "/>
<path style=" stroke:none;fill-rule:nonzero;fill:rgb(69.019608%,76.862745%,87.058824%);fill-opacity:1;" d="M 6.058594 9.882812 L 10.375 8.121094 C 10.519531 8.0625 10.695312 8.167969 10.773438 8.359375 C 10.851562 8.546875 10.796875 8.746094 10.65625 8.804688 L 6.335938 10.566406 C 6.195312 10.621094 6.015625 10.515625 5.941406 10.328125 C 5.863281 10.140625 5.917969 9.941406 6.058594 9.882812 Z M 6.058594 9.882812 "/>
<path style=" stroke:none;fill-rule:nonzero;fill:rgb(69.019608%,76.862745%,87.058824%);fill-opacity:1;" d="M 5.414062 8.378906 L 9.734375 6.617188 C 9.875 6.558594 10.050781 6.664062 10.128906 6.851562 C 10.203125 7.042969 10.152344 7.242188 10.011719 7.300781 L 5.691406 9.0625 C 5.550781 9.117188 5.371094 9.011719 5.296875 8.824219 C 5.21875 8.636719 5.273438 8.4375 5.414062 8.378906 Z M 5.414062 8.378906 "/>
<path style=" stroke:none;fill-rule:nonzero;fill:rgb(100%,100%,100%);fill-opacity:1;" d="M 11.039062 3.742188 L 16.28125 4.511719 C 16.695312 4.570312 16.964844 5.078125 16.882812 5.644531 L 15.839844 12.785156 C 15.757812 13.351562 15.351562 13.761719 14.9375 13.703125 L 9.695312 12.933594 C 9.28125 12.875 9.007812 12.367188 9.089844 11.800781 L 10.136719 4.660156 C 10.21875 4.09375 10.621094 3.683594 11.039062 3.742188 Z M 11.039062 3.742188 "/>
<path style=" stroke:none;fill-rule:nonzero;fill:rgb(69.019608%,76.862745%,87.058824%);fill-opacity:1;" d="M 10.59375 8.589844 L 13.027344 8.898438 C 13.105469 8.910156 13.148438 9.082031 13.125 9.285156 C 13.097656 9.488281 13.011719 9.640625 12.933594 9.632812 L 10.5 9.320312 C 10.417969 9.308594 10.375 9.136719 10.398438 8.9375 C 10.425781 8.734375 10.511719 8.578125 10.59375 8.589844 Z M 10.59375 8.589844 "/>
<path style=" stroke:none;fill-rule:nonzero;fill:rgb(72.54902%,52.941176%,81.176471%);fill-opacity:1;" d="M 18.214844 14.359375 C 17.449219 19.613281 9.847656 19.769531 8.699219 14.664062 C 7.519531 10.527344 11.796875 7.148438 15 8.503906 C 17.144531 9.140625 18.878906 11.761719 18.214844 14.359375 Z M 18.214844 14.359375 "/>
<path style=" stroke:none;fill-rule:nonzero;fill:rgb(87.843137%,78.823529%,91.764706%);fill-opacity:1;" d="M 11.976562 13.296875 C 11.976562 14.128906 12.625 14.800781 13.429688 14.800781 C 14.230469 14.800781 14.878906 14.128906 14.878906 13.296875 C 14.878906 12.46875 14.230469 11.796875 13.429688 11.796875 C 12.625 11.796875 11.976562 12.46875 11.976562 13.296875 Z M 11.976562 13.296875 "/>
<path style="fill:none;stroke-width:10;stroke-linecap:round;stroke-linejoin:miter;stroke:rgb(87.843137%,78.823529%,91.764706%);stroke-opacity:1;stroke-miterlimit:4;" d="M 127.950711 924.311764 L 200.374494 882.646335 " transform="matrix(-0.0385103,0,0,0.0398449,18.357109,-23.532266)"/>
<path style="fill:none;stroke-width:10;stroke-linecap:round;stroke-linejoin:miter;stroke:rgb(100%,100%,100%);stroke-opacity:1;stroke-miterlimit:4;" d="M 127.950711 924.311764 L 48.527992 844.902358 " transform="matrix(-0.0385103,0,0,0.0398449,18.357109,-23.532266)"/>
<path style=" stroke:none;fill-rule:nonzero;fill:rgb(100%,100%,100%);fill-opacity:1;" d="M 12.640625 13.296875 C 12.640625 13.75 12.992188 14.113281 13.429688 14.113281 C 13.863281 14.113281 14.214844 13.75 14.214844 13.296875 C 14.214844 12.847656 13.863281 12.484375 13.429688 12.484375 C 12.992188 12.484375 12.640625 12.847656 12.640625 13.296875 Z M 12.640625 13.296875 "/>
<path style=" stroke:none;fill-rule:nonzero;fill:rgb(69.019608%,76.862745%,87.058824%);fill-opacity:1;" d="M 11.089844 5.339844 L 15.660156 5.914062 C 15.808594 5.933594 15.929688 6.113281 15.929688 6.316406 C 15.929688 6.519531 15.808594 6.667969 15.660156 6.652344 L 11.089844 6.074219 C 10.941406 6.054688 10.820312 5.875 10.820312 5.671875 C 10.820312 5.46875 10.941406 5.320312 11.089844 5.339844 Z M 11.089844 5.339844 "/>
<path style=" stroke:none;fill-rule:nonzero;fill:rgb(69.019608%,76.862745%,87.058824%);fill-opacity:1;" d="M 10.765625 6.949219 L 15.335938 7.523438 C 15.484375 7.542969 15.605469 7.722656 15.605469 7.929688 C 15.605469 8.132812 15.484375 8.28125 15.335938 8.261719 L 10.765625 7.6875 C 10.617188 7.667969 10.496094 7.488281 10.496094 7.28125 C 10.496094 7.078125 10.617188 6.929688 10.765625 6.949219 Z M 10.765625 6.949219 "/>
</g>
</svg>
