
<svg xmlns="http://www.w3.org/2000/svg" xmlns:xlink="http://www.w3.org/1999/xlink" width="22px" height="22px" viewBox="0 0 22 22" version="1.1">
<g id="surface1">
<path style=" stroke:none;fill-rule:nonzero;fill:rgb(94.509804%,27.843137%,56.078431%);fill-opacity:1;" d="M 1.675781 4.5 C -4.574219 13.285156 7.824219 26.132812 17.039062 20.734375 C 24.921875 16.78125 22.644531 4.832031 15.390625 1.453125 C 10.914062 -1.191406 4.289062 -0.320312 1.675781 4.5 Z M 1.675781 4.5 "/>
<path style=" stroke:none;fill-rule:nonzero;fill:rgb(100%,100%,100%);fill-opacity:0.392157;" d="M 7.613281 4.726562 C 6.890625 4.742188 6.273438 4.980469 5.832031 5.46875 C 5.011719 6.371094 4.964844 7.9375 5.558594 9.675781 C 5.828125 9.277344 6.160156 8.894531 6.546875 8.542969 C 6.007812 7.046875 5.960938 5.835938 6.53125 5.308594 C 7.242188 4.652344 8.734375 5.21875 10.363281 6.605469 C 10.519531 6.738281 10.675781 6.875 10.832031 7.023438 C 11.507812 7.652344 12.199219 8.414062 12.855469 9.277344 C 13.777344 10.484375 14.503906 11.722656 14.996094 12.847656 C 15.355469 12.222656 15.546875 11.515625 15.515625 10.777344 C 15.515625 10.761719 15.511719 10.746094 15.511719 10.734375 C 15.023438 9.839844 14.386719 8.9375 13.621094 8.09375 C 13.371094 7.824219 13.121094 7.566406 12.867188 7.324219 C 12.511719 6.992188 12.152344 6.683594 11.789062 6.410156 C 10.316406 5.300781 8.820312 4.703125 7.613281 4.726562 Z M 6.863281 9.335938 C 6.839844 9.375 6.816406 9.414062 6.796875 9.453125 C 6.472656 10.042969 6.300781 10.703125 6.320312 11.386719 C 6.320312 11.40625 6.320312 11.429688 6.320312 11.449219 C 6.324219 11.472656 6.324219 11.5 6.324219 11.527344 C 6.335938 11.507812 6.347656 11.484375 6.359375 11.464844 C 6.589844 11.03125 6.855469 10.59375 7.152344 10.160156 C 7.175781 10.128906 7.195312 10.097656 7.214844 10.070312 C 7.085938 9.820312 6.96875 9.578125 6.863281 9.335938 Z M 7.5 10.609375 C 7.203125 11.144531 6.96875 11.683594 6.804688 12.199219 C 7.207031 12.824219 7.679688 13.445312 8.21875 14.035156 C 8.515625 14.363281 8.820312 14.671875 9.132812 14.953125 C 9.449219 15.242188 9.769531 15.507812 10.089844 15.75 C 12.429688 17.503906 14.835938 17.953125 16.007812 16.664062 C 16.824219 15.757812 16.871094 14.191406 16.277344 12.449219 C 16.011719 12.851562 15.679688 13.234375 15.296875 13.59375 C 15.832031 15.085938 15.875 16.292969 15.304688 16.820312 C 14.597656 17.472656 13.117188 16.917969 11.496094 15.546875 C 11.367188 15.433594 11.234375 15.316406 11.097656 15.191406 C 11.097656 15.191406 11.09375 15.195312 11.09375 15.195312 L 11.054688 15.152344 C 10.363281 14.515625 9.65625 13.738281 8.980469 12.851562 C 8.410156 12.105469 7.914062 11.34375 7.5 10.609375 Z M 7.5 10.609375 "/>
<path style=" stroke:none;fill-rule:nonzero;fill:rgb(100%,100%,100%);fill-opacity:1;" d="M 14.46875 4.875 C 13.34375 4.890625 11.886719 5.523438 10.425781 6.660156 C 10.542969 6.761719 10.664062 6.867188 10.785156 6.976562 C 12.363281 5.921875 13.917969 5.695312 14.75 6.550781 C 15.675781 7.503906 15.449219 9.511719 14.332031 11.523438 C 14 12.125 13.582031 12.730469 13.09375 13.304688 C 12.449219 14.066406 11.75 14.691406 11.054688 15.152344 C 11.027344 15.167969 11.003906 15.183594 10.980469 15.199219 C 9.453125 16.199219 7.957031 16.417969 7.125 15.617188 C 7.109375 15.605469 7.097656 15.589844 7.085938 15.578125 C 6.953125 15.441406 6.84375 15.28125 6.753906 15.101562 C 6.207031 14.808594 5.746094 14.429688 5.410156 13.972656 C 5.285156 14.582031 5.257812 15.140625 5.34375 15.621094 L 5.347656 15.621094 C 5.421875 16.027344 5.582031 16.390625 5.832031 16.664062 C 6.9375 17.882812 9.464844 17.152344 11.90625 15.070312 C 12.382812 14.664062 12.855469 14.207031 13.3125 13.703125 C 13.800781 13.167969 14.238281 12.613281 14.621094 12.058594 C 14.949219 11.589844 15.265625 11.199219 15.511719 10.734375 C 16.660156 8.566406 16.90625 6.460938 16.007812 5.46875 C 15.632812 5.058594 15.101562 4.871094 14.46875 4.875 Z M 10.699219 7.03125 C 10.382812 7.058594 10.078125 7.109375 9.777344 7.191406 C 9.351562 7.5625 8.933594 7.976562 8.523438 8.429688 C 8.035156 8.960938 7.597656 9.515625 7.214844 10.070312 C 6.890625 10.535156 6.605469 11.003906 6.359375 11.464844 C 6.347656 11.484375 6.335938 11.507812 6.324219 11.53125 C 6.355469 11.976562 6.464844 12.398438 6.640625 12.789062 C 6.683594 12.597656 6.738281 12.398438 6.804688 12.199219 C 6.96875 11.683594 7.203125 11.148438 7.5 10.609375 C 7.835938 10.007812 8.25 9.402344 8.742188 8.828125 C 9.363281 8.09375 10.03125 7.492188 10.699219 7.03125 Z M 10.699219 7.03125 "/>
<path style=" stroke:none;fill-rule:nonzero;fill:rgb(100%,100%,100%);fill-opacity:0.588235;" d="M 12.167969 6.402344 C 12.042969 6.402344 11.914062 6.40625 11.789062 6.414062 C 12.152344 6.6875 12.511719 6.992188 12.867188 7.324219 C 14.363281 7.890625 15.425781 9.171875 15.511719 10.734375 C 15.511719 10.746094 15.515625 10.761719 15.515625 10.777344 C 15.546875 11.515625 15.355469 12.222656 14.996094 12.847656 C 14.257812 14.132812 12.804688 15.066406 11.097656 15.191406 C 11.234375 15.316406 11.367188 15.433594 11.5 15.546875 C 11.5 15.546875 11.503906 15.546875 11.503906 15.546875 C 13.003906 15.203125 14.320312 14.492188 15.292969 13.59375 C 15.679688 13.234375 16.007812 12.851562 16.277344 12.445312 C 16.851562 11.574219 17.128906 10.617188 17.003906 9.679688 C 16.734375 7.683594 14.714844 6.40625 12.167969 6.402344 Z M 10.363281 6.605469 C 10.34375 6.609375 10.324219 6.617188 10.300781 6.617188 C 8.820312 6.960938 7.515625 7.660156 6.546875 8.542969 C 6.160156 8.894531 5.828125 9.277344 5.558594 9.675781 C 4.960938 10.5625 4.675781 11.535156 4.804688 12.484375 C 4.878906 13.039062 5.089844 13.539062 5.410156 13.972656 C 5.746094 14.429688 6.207031 14.808594 6.757812 15.101562 C 7.667969 15.582031 8.824219 15.820312 10.089844 15.75 C 9.769531 15.507812 9.449219 15.242188 9.132812 14.953125 C 8.003906 14.574219 7.097656 13.792969 6.640625 12.789062 C 6.464844 12.398438 6.355469 11.976562 6.324219 11.53125 C 6.324219 11.5 6.324219 11.472656 6.320312 11.449219 C 6.320312 11.429688 6.320312 11.40625 6.320312 11.390625 C 6.296875 10.65625 6.496094 9.957031 6.863281 9.335938 C 7.460938 8.320312 8.511719 7.527344 9.777344 7.191406 C 10.078125 7.109375 10.382812 7.058594 10.699219 7.03125 C 10.714844 7.03125 10.730469 7.03125 10.742188 7.027344 C 10.773438 7.027344 10.804688 7.023438 10.832031 7.023438 C 10.816406 7.007812 10.800781 6.992188 10.785156 6.976562 C 10.664062 6.867188 10.542969 6.761719 10.425781 6.660156 C 10.40625 6.640625 10.382812 6.621094 10.363281 6.605469 Z M 10.363281 6.605469 "/>
<path style=" stroke:none;fill-rule:nonzero;fill:rgb(100%,100%,100%);fill-opacity:0.392157;" d="M 6.582031 9.910156 C 6.566406 9.949219 6.550781 9.988281 6.539062 10.027344 C 6.527344 10.058594 6.515625 10.089844 6.507812 10.121094 C 6.515625 10.089844 6.527344 10.058594 6.539062 10.027344 C 6.550781 9.988281 6.566406 9.949219 6.582031 9.910156 Z M 6.582031 9.910156 "/>
<path style=" stroke:none;fill-rule:nonzero;fill:rgb(100%,100%,100%);fill-opacity:0.392157;" d="M 6.398438 10.527344 C 6.390625 10.5625 6.382812 10.597656 6.378906 10.632812 C 6.371094 10.667969 6.363281 10.707031 6.359375 10.742188 C 6.363281 10.707031 6.371094 10.667969 6.378906 10.632812 C 6.382812 10.597656 6.390625 10.5625 6.398438 10.527344 Z M 6.398438 10.527344 "/>
<path style=" stroke:none;fill-rule:nonzero;fill:rgb(100%,100%,100%);fill-opacity:0.392157;" d="M 6.550781 11.117188 C 6.53125 11.15625 6.507812 11.195312 6.484375 11.238281 C 6.507812 11.195312 6.53125 11.15625 6.550781 11.117188 Z M 6.550781 11.117188 "/>
</g>
</svg>
