
<svg xmlns="http://www.w3.org/2000/svg" xmlns:xlink="http://www.w3.org/1999/xlink" width="22px" height="22px" viewBox="0 0 22 22" version="1.1">
<g id="surface1">
<path style=" stroke:none;fill-rule:nonzero;fill:rgb(100%,87.058824%,67.843137%);fill-opacity:1;" d="M 2.261719 17.476562 C -8.671875 0.96875 26.199219 -9.199219 21.582031 12.140625 C 19.617188 20.960938 7.277344 26.3125 2.261719 17.476562 Z M 2.261719 17.476562 "/>
<path style=" stroke:none;fill-rule:nonzero;fill:rgb(60%,60%,60.392157%);fill-opacity:1;" d="M 7.75 17.179688 C 7.832031 17.050781 8.023438 16.9375 8.1875 16.917969 C 8.34375 16.898438 8.519531 16.84375 8.570312 16.789062 C 8.722656 16.640625 8.632812 14.652344 8.457031 14.308594 C 8.339844 14.078125 8.3125 13.761719 8.339844 13.023438 C 8.375 12.101562 8.363281 12.042969 8.171875 12.015625 C 8.054688 11.996094 7.863281 12.09375 7.726562 12.246094 C 7.515625 12.472656 7.410156 12.503906 6.800781 12.503906 C 6.136719 12.503906 6.101562 12.492188 5.667969 12.082031 L 5.21875 11.660156 L 5.21875 10.9375 C 5.21875 10.265625 5.242188 10.191406 5.53125 9.882812 C 5.777344 9.625 5.832031 9.5 5.777344 9.292969 C 5.722656 9.054688 5.667969 9.027344 5.21875 9.027344 L 4.71875 9.027344 L 4.71875 8.679688 C 4.71875 8.402344 4.765625 8.324219 4.949219 8.273438 C 5.078125 8.242188 5.230469 8.109375 5.285156 7.984375 C 5.414062 7.695312 5.859375 7.671875 6.21875 7.929688 C 6.355469 8.027344 6.589844 8.109375 6.738281 8.109375 C 6.917969 8.109375 7.027344 8.175781 7.070312 8.308594 C 7.105469 8.417969 7.230469 8.539062 7.347656 8.578125 C 7.46875 8.617188 7.648438 8.757812 7.753906 8.890625 C 7.871094 9.046875 8.042969 9.132812 8.230469 9.132812 C 8.425781 9.132812 8.527344 9.183594 8.527344 9.285156 C 8.527344 9.371094 8.648438 9.496094 8.796875 9.566406 C 8.945312 9.636719 9.167969 9.796875 9.292969 9.921875 C 9.417969 10.050781 9.628906 10.152344 9.761719 10.152344 C 9.921875 10.152344 10.023438 10.226562 10.058594 10.355469 C 10.085938 10.46875 10.183594 10.5625 10.273438 10.5625 C 10.363281 10.5625 10.476562 10.679688 10.527344 10.816406 C 10.609375 11.03125 10.691406 11.074219 11.03125 11.074219 C 11.371094 11.074219 11.453125 11.113281 11.53125 11.328125 C 11.585938 11.46875 11.6875 11.582031 11.765625 11.582031 C 11.839844 11.582031 11.953125 11.699219 12.015625 11.839844 C 12.078125 11.980469 12.191406 12.09375 12.265625 12.09375 C 12.339844 12.09375 12.503906 12.210938 12.632812 12.351562 C 12.761719 12.492188 12.976562 12.605469 13.105469 12.605469 C 13.265625 12.605469 13.371094 12.691406 13.4375 12.867188 C 13.511719 13.0625 13.597656 13.125 13.761719 13.097656 C 14.0625 13.054688 14.03125 12.820312 13.675781 12.363281 C 13.472656 12.105469 13.304688 11.992188 13.121094 11.992188 C 12.921875 11.992188 12.664062 11.796875 12.105469 11.226562 C 11.492188 10.597656 11.300781 10.460938 11.042969 10.460938 C 10.871094 10.460938 10.730469 10.417969 10.730469 10.367188 C 10.730469 10.171875 9.9375 9.4375 9.726562 9.4375 C 9.605469 9.4375 9.394531 9.34375 9.253906 9.234375 C 9.113281 9.121094 8.941406 9.027344 8.875 9.027344 C 8.804688 9.027344 8.675781 8.914062 8.585938 8.773438 C 8.480469 8.609375 8.328125 8.519531 8.164062 8.519531 C 7.980469 8.519531 7.769531 8.367188 7.445312 8.007812 C 7.050781 7.570312 6.929688 7.496094 6.613281 7.496094 C 6.214844 7.496094 6.121094 7.382812 6.121094 6.894531 C 6.121094 6.707031 6.246094 6.492188 6.507812 6.230469 C 7 5.742188 7.261719 5.761719 7.304688 6.28125 C 7.324219 6.535156 7.433594 6.746094 7.664062 6.976562 C 7.96875 7.273438 8.042969 7.300781 8.535156 7.273438 L 9.078125 7.238281 L 9.132812 5.589844 L 9.632812 5.089844 C 9.90625 4.816406 10.128906 4.53125 10.128906 4.460938 C 10.128906 4.359375 10.390625 4.328125 11.175781 4.328125 C 12.125 4.328125 12.226562 4.347656 12.285156 4.53125 C 12.316406 4.640625 12.554688 4.917969 12.8125 5.148438 L 13.277344 5.5625 L 13.28125 6.402344 L 13.285156 7.238281 L 13.828125 7.273438 C 14.320312 7.300781 14.398438 7.273438 14.699219 6.976562 C 14.929688 6.746094 15.039062 6.539062 15.0625 6.28125 C 15.101562 5.761719 15.367188 5.742188 15.855469 6.230469 C 16.421875 6.792969 16.382812 7.003906 15.566406 7.832031 L 14.886719 8.519531 L 14.117188 8.519531 C 13.449219 8.519531 13.328125 8.546875 13.234375 8.722656 C 13.117188 8.953125 13.257812 9.332031 13.464844 9.34375 C 13.535156 9.34375 14.019531 9.34375 14.550781 9.335938 C 15.476562 9.324219 15.515625 9.335938 15.679688 9.585938 C 15.792969 9.765625 15.9375 9.847656 16.132812 9.847656 C 16.472656 9.847656 17.277344 10.660156 17.1875 10.910156 C 17.15625 10.992188 17.222656 11.152344 17.339844 11.269531 C 17.488281 11.421875 17.546875 11.613281 17.546875 11.9375 C 17.546875 12.355469 17.503906 12.433594 16.984375 12.933594 C 16.675781 13.230469 16.269531 13.585938 16.085938 13.71875 C 15.621094 14.058594 15.574219 14.285156 15.878906 14.695312 C 16.101562 14.992188 16.539062 15.230469 16.769531 15.179688 C 16.953125 15.140625 16.742188 15.554688 16.308594 16.109375 C 15.976562 16.535156 15.707031 16.597656 15.542969 16.285156 C 15.476562 16.160156 15.332031 16.082031 15.167969 16.082031 C 14.976562 16.082031 14.765625 15.9375 14.421875 15.5625 C 14.160156 15.277344 13.898438 15.074219 13.839844 15.109375 C 13.730469 15.179688 13.695312 16.46875 13.796875 16.738281 C 13.835938 16.839844 13.980469 16.902344 14.179688 16.902344 C 14.515625 16.902344 14.738281 17.054688 14.738281 17.277344 C 14.738281 17.480469 13.300781 17.464844 13.136719 17.257812 C 13.066406 17.171875 12.949219 17.105469 12.871094 17.105469 C 12.792969 17.105469 12.703125 17.171875 12.671875 17.257812 C 12.632812 17.363281 12.464844 17.410156 12.125 17.410156 L 11.632812 17.410156 L 11.613281 16.722656 C 11.605469 16.34375 11.605469 15.917969 11.617188 15.777344 C 11.648438 15.351562 11.542969 15.078125 11.328125 15.007812 C 10.917969 14.875 10.832031 15.105469 10.832031 16.300781 L 10.832031 17.410156 L 10.320312 17.410156 C 9.917969 17.410156 9.773438 17.363281 9.636719 17.191406 C 9.453125 16.960938 9.226562 17.003906 9.226562 17.265625 C 9.226562 17.382812 9.054688 17.410156 8.414062 17.410156 L 7.601562 17.410156 L 7.75 17.183594 Z M 10.046875 8.246094 C 10.242188 8.066406 10.292969 7.648438 10.132812 7.546875 C 10 7.46875 9.351562 8.132812 9.40625 8.292969 C 9.460938 8.46875 9.832031 8.445312 10.046875 8.246094 Z M 12.976562 8.253906 C 13.140625 8.09375 13.191406 7.691406 13.066406 7.5625 C 12.976562 7.472656 12.226562 8.21875 12.292969 8.332031 C 12.378906 8.472656 12.8125 8.425781 12.976562 8.253906 Z M 12.976562 8.253906 "/>
<path style=" stroke:none;fill-rule:nonzero;fill:rgb(25.490196%,58.039216%,92.941176%);fill-opacity:1;" d="M 7.722656 17.261719 C 7.722656 17.074219 8.03125 16.898438 8.363281 16.898438 C 8.5 16.898438 8.640625 16.851562 8.675781 16.796875 C 8.769531 16.640625 8.808594 14.445312 8.71875 14.445312 C 8.675781 14.445312 8.5625 14.371094 8.46875 14.273438 C 8.332031 14.132812 8.308594 13.933594 8.335938 13.074219 C 8.371094 12.101562 8.363281 12.042969 8.167969 12.015625 C 8.054688 11.996094 7.863281 12.09375 7.726562 12.246094 C 7.515625 12.472656 7.40625 12.503906 6.800781 12.503906 C 6.136719 12.503906 6.101562 12.492188 5.667969 12.082031 L 5.21875 11.660156 L 5.21875 10.929688 C 5.21875 10.492188 5.265625 10.144531 5.335938 10.074219 C 5.523438 9.882812 5.96875 9.925781 6.167969 10.152344 C 6.269531 10.265625 6.402344 10.355469 6.460938 10.355469 C 6.519531 10.351562 6.40625 10.203125 6.207031 10.023438 C 5.703125 9.5625 5.65625 9.195312 6.046875 8.703125 C 6.214844 8.488281 6.398438 8.3125 6.449219 8.3125 C 6.503906 8.3125 6.832031 8.617188 7.179688 8.992188 C 7.660156 9.5 7.796875 9.710938 7.734375 9.835938 C 7.6875 9.925781 7.671875 10.058594 7.695312 10.128906 C 7.71875 10.199219 7.6875 10.257812 7.625 10.257812 C 7.554688 10.257812 7.570312 10.320312 7.667969 10.417969 C 7.753906 10.507812 7.824219 10.632812 7.828125 10.699219 C 7.832031 10.765625 7.875 10.714844 7.925781 10.589844 C 7.996094 10.410156 8.097656 10.359375 8.382812 10.359375 C 8.675781 10.359375 8.734375 10.390625 8.683594 10.519531 C 8.652344 10.609375 8.625 10.699219 8.625 10.722656 C 8.625 10.746094 8.558594 10.765625 8.472656 10.765625 C 8.261719 10.765625 8.289062 10.863281 8.578125 11.140625 C 8.894531 11.433594 9.023438 11.449219 8.957031 11.175781 C 8.917969 11.035156 8.953125 10.972656 9.066406 10.972656 C 9.152344 10.972656 9.226562 11.019531 9.226562 11.074219 C 9.226562 11.128906 9.339844 11.277344 9.476562 11.398438 C 9.613281 11.523438 9.726562 11.679688 9.726562 11.75 C 9.726562 11.820312 9.820312 11.90625 9.925781 11.945312 C 10.039062 11.980469 10.175781 12.097656 10.230469 12.203125 C 10.289062 12.3125 10.441406 12.402344 10.570312 12.402344 C 10.71875 12.402344 11.027344 12.613281 11.394531 12.964844 C 11.765625 13.320312 12.070312 13.527344 12.21875 13.527344 C 12.375 13.527344 12.640625 13.726562 13.011719 14.117188 L 13.566406 14.703125 L 13.542969 15.707031 C 13.515625 16.804688 13.589844 17.003906 14.03125 17.003906 C 14.289062 17.003906 14.539062 17.164062 14.539062 17.328125 C 14.539062 17.375 14.253906 17.410156 13.910156 17.410156 C 13.355469 17.410156 13.273438 17.382812 13.183594 17.183594 C 13.128906 17.054688 12.996094 16.953125 12.882812 16.953125 C 12.773438 16.953125 12.640625 17.054688 12.585938 17.183594 C 12.503906 17.367188 12.40625 17.410156 12.054688 17.410156 L 11.628906 17.410156 L 11.691406 16.308594 C 11.75 15.347656 11.738281 15.183594 11.585938 15.03125 C 11.386719 14.824219 11.039062 14.804688 10.792969 14.984375 C 10.648438 15.09375 10.617188 15.304688 10.605469 16.265625 L 10.589844 17.410156 L 10.234375 17.410156 C 9.984375 17.410156 9.839844 17.347656 9.75 17.207031 C 9.683594 17.09375 9.558594 17.003906 9.476562 17.003906 C 9.394531 17.003906 9.238281 17.09375 9.125 17.207031 C 8.871094 17.46875 7.722656 17.511719 7.722656 17.261719 Z M 14.613281 13.8125 C 14.167969 13.34375 14.054688 13.167969 14.125 13.039062 C 14.25 12.816406 14.074219 12.453125 13.773438 12.3125 C 13.644531 12.253906 13.535156 12.15625 13.535156 12.097656 C 13.535156 12.039062 13.394531 11.992188 13.222656 11.992188 C 12.972656 11.992188 12.765625 11.847656 12.140625 11.226562 C 11.515625 10.613281 11.304688 10.460938 11.058594 10.460938 C 10.714844 10.460938 10.566406 10.234375 10.785156 10.046875 C 11.015625 9.855469 10.957031 9.777344 10.621094 9.828125 C 10.390625 9.859375 10.277344 9.820312 10.164062 9.65625 C 10.078125 9.53125 9.90625 9.4375 9.757812 9.4375 C 9.582031 9.4375 9.335938 9.265625 8.953125 8.875 C 8.632812 8.546875 8.320312 8.3125 8.195312 8.3125 C 8.074219 8.3125 7.773438 8.105469 7.511719 7.84375 C 7.226562 7.558594 6.914062 7.347656 6.707031 7.304688 C 6.253906 7.210938 6.199219 6.8125 6.570312 6.316406 C 6.917969 5.847656 7.222656 5.839844 7.222656 6.300781 C 7.222656 6.554688 7.316406 6.730469 7.605469 7.019531 C 7.976562 7.390625 8.019531 7.402344 8.585938 7.375 L 9.175781 7.34375 L 9.207031 6.464844 L 9.234375 5.589844 L 9.730469 5.089844 C 10.003906 4.816406 10.226562 4.53125 10.226562 4.460938 C 10.226562 4.359375 10.460938 4.328125 11.128906 4.328125 C 11.707031 4.328125 12.03125 4.367188 12.03125 4.4375 C 12.03125 4.496094 12.289062 4.816406 12.597656 5.152344 L 13.160156 5.753906 L 13.09375 6.464844 C 13.035156 7.074219 12.976562 7.226562 12.703125 7.523438 C 12.527344 7.714844 12.300781 7.902344 12.199219 7.941406 C 11.878906 8.054688 12.222656 8.460938 12.671875 8.5 C 12.960938 8.523438 13.046875 8.582031 13.097656 8.78125 C 13.128906 8.921875 13.105469 9.097656 13.035156 9.183594 C 12.882812 9.367188 12.828125 9.363281 14.238281 9.339844 C 15.359375 9.320312 15.398438 9.328125 15.636719 9.582031 C 15.773438 9.734375 15.984375 9.847656 16.140625 9.847656 C 16.496094 9.847656 17.144531 10.523438 17.144531 10.898438 C 17.144531 11.0625 17.226562 11.226562 17.34375 11.300781 C 17.5 11.398438 17.546875 11.539062 17.546875 11.902344 C 17.546875 12.339844 17.507812 12.410156 16.980469 12.917969 L 16.414062 13.464844 L 15.976562 12.976562 C 15.480469 12.417969 15.386719 12.484375 15.839844 13.066406 C 16.175781 13.496094 16.21875 13.707031 15.988281 13.796875 C 15.902344 13.832031 15.769531 13.988281 15.683594 14.152344 C 15.597656 14.320312 15.460938 14.4375 15.363281 14.429688 C 15.269531 14.421875 14.929688 14.144531 14.613281 13.8125 Z M 10.121094 8.269531 C 10.28125 8.078125 10.21875 7.59375 10.023438 7.46875 C 9.90625 7.394531 9.789062 7.449219 9.546875 7.695312 C 9.371094 7.875 9.226562 8.113281 9.226562 8.21875 C 9.226562 8.378906 9.300781 8.417969 9.617188 8.417969 C 9.832031 8.417969 10.054688 8.351562 10.125 8.269531 Z M 4.773438 8.738281 C 4.730469 8.664062 4.722656 8.578125 4.757812 8.546875 C 4.847656 8.453125 4.941406 8.589844 4.894531 8.738281 C 4.859375 8.839844 4.835938 8.839844 4.773438 8.738281 Z M 5.066406 8.621094 C 5.101562 8.566406 5.203125 8.519531 5.296875 8.519531 C 5.445312 8.523438 5.445312 8.535156 5.316406 8.621094 C 5.121094 8.75 4.988281 8.75 5.066406 8.621094 Z M 13.855469 8.339844 L 13.222656 8.304688 L 13.285156 7.445312 L 13.835938 7.414062 C 14.3125 7.386719 14.4375 7.332031 14.761719 7.011719 C 15.046875 6.726562 15.140625 6.554688 15.140625 6.300781 C 15.140625 6.035156 15.179688 5.964844 15.332031 5.964844 C 15.535156 5.964844 16.140625 6.664062 16.140625 6.898438 C 16.140625 7.101562 14.8125 8.421875 14.632812 8.398438 C 14.554688 8.386719 14.203125 8.359375 13.855469 8.339844 Z M 13.855469 8.339844 "/>
<path style=" stroke:none;fill-rule:nonzero;fill:rgb(84.313725%,71.372549%,17.254902%);fill-opacity:1;" d="M 7.722656 17.261719 C 7.722656 17.074219 8.03125 16.898438 8.371094 16.898438 C 8.679688 16.898438 8.851562 16.542969 8.761719 16.085938 C 8.726562 15.917969 8.734375 15.480469 8.769531 15.113281 L 8.839844 14.445312 L 9.390625 14.445312 C 9.863281 14.445312 9.921875 14.425781 9.800781 14.304688 C 9.699219 14.199219 9.664062 13.921875 9.679688 13.296875 C 9.6875 12.820312 9.726562 12.382812 9.765625 12.320312 C 9.800781 12.261719 9.628906 12.007812 9.378906 11.753906 C 8.921875 11.300781 8.796875 10.972656 9.074219 10.972656 C 9.160156 10.972656 9.226562 11.019531 9.226562 11.074219 C 9.226562 11.128906 9.339844 11.277344 9.476562 11.398438 C 9.613281 11.523438 9.726562 11.679688 9.726562 11.75 C 9.726562 11.820312 9.820312 11.90625 9.925781 11.945312 C 10.039062 11.980469 10.175781 12.097656 10.230469 12.203125 C 10.289062 12.3125 10.441406 12.402344 10.570312 12.402344 C 10.71875 12.402344 11.027344 12.613281 11.394531 12.964844 C 11.765625 13.320312 12.070312 13.527344 12.21875 13.527344 C 12.375 13.527344 12.640625 13.726562 13.011719 14.117188 L 13.566406 14.703125 L 13.542969 15.707031 C 13.515625 16.804688 13.589844 17.003906 14.03125 17.003906 C 14.289062 17.003906 14.539062 17.164062 14.539062 17.328125 C 14.539062 17.375 14.253906 17.410156 13.910156 17.410156 C 13.355469 17.410156 13.273438 17.382812 13.183594 17.183594 C 13.128906 17.054688 12.996094 16.953125 12.886719 16.953125 C 12.773438 16.953125 12.640625 17.054688 12.585938 17.183594 C 12.503906 17.367188 12.40625 17.410156 12.054688 17.410156 L 11.628906 17.410156 L 11.691406 16.308594 C 11.75 15.347656 11.738281 15.183594 11.585938 15.03125 C 11.386719 14.824219 11.039062 14.804688 10.792969 14.984375 C 10.648438 15.09375 10.617188 15.304688 10.605469 16.265625 L 10.589844 17.410156 L 10.234375 17.410156 C 9.984375 17.410156 9.839844 17.347656 9.75 17.207031 C 9.683594 17.09375 9.558594 17.003906 9.476562 17.003906 C 9.394531 17.003906 9.238281 17.09375 9.125 17.207031 C 8.871094 17.46875 7.722656 17.511719 7.722656 17.261719 Z M 10.855469 14.375 C 10.730469 14.351562 10.527344 14.351562 10.402344 14.375 C 10.28125 14.398438 10.382812 14.417969 10.628906 14.417969 C 10.878906 14.417969 10.976562 14.398438 10.855469 14.375 Z M 14.613281 13.8125 C 14.160156 13.339844 14.054688 13.171875 14.128906 13.039062 C 14.308594 12.707031 13.523438 11.722656 13.183594 11.855469 C 13.085938 11.894531 12.753906 11.636719 12.257812 11.144531 C 11.832031 10.71875 11.359375 10.34375 11.207031 10.304688 C 11.007812 10.253906 10.929688 10.167969 10.929688 10.007812 C 10.929688 9.8125 10.886719 9.789062 10.621094 9.828125 C 10.390625 9.859375 10.277344 9.820312 10.164062 9.65625 C 10.078125 9.53125 9.90625 9.4375 9.757812 9.4375 C 9.582031 9.4375 9.335938 9.265625 8.953125 8.875 C 8.632812 8.546875 8.320312 8.3125 8.195312 8.3125 C 8.074219 8.3125 7.773438 8.105469 7.511719 7.84375 C 7.226562 7.558594 6.914062 7.347656 6.707031 7.304688 C 6.253906 7.210938 6.199219 6.8125 6.570312 6.316406 C 6.917969 5.847656 7.222656 5.839844 7.222656 6.300781 C 7.222656 6.554688 7.316406 6.730469 7.605469 7.019531 C 7.976562 7.390625 8.019531 7.402344 8.585938 7.375 L 9.175781 7.34375 L 9.207031 6.464844 L 9.234375 5.589844 L 9.730469 5.089844 C 10.003906 4.816406 10.226562 4.53125 10.226562 4.460938 C 10.226562 4.359375 10.460938 4.328125 11.128906 4.328125 C 11.707031 4.328125 12.03125 4.367188 12.03125 4.4375 C 12.03125 4.496094 12.289062 4.816406 12.597656 5.152344 L 13.160156 5.753906 L 13.09375 6.464844 C 13.035156 7.074219 12.976562 7.226562 12.703125 7.523438 C 12.527344 7.714844 12.300781 7.902344 12.199219 7.941406 C 11.878906 8.058594 12.222656 8.460938 12.671875 8.5 C 12.960938 8.523438 13.046875 8.582031 13.097656 8.78125 C 13.128906 8.917969 13.105469 9.097656 13.039062 9.179688 C 12.9375 9.300781 12.976562 9.367188 13.253906 9.539062 C 13.453125 9.667969 13.664062 9.726562 13.789062 9.6875 C 13.898438 9.652344 14.28125 9.582031 14.636719 9.53125 C 15.265625 9.4375 15.296875 9.445312 15.511719 9.691406 C 15.648438 9.855469 15.835938 9.949219 16.015625 9.949219 C 16.417969 9.949219 17.019531 10.59375 17.0625 11.074219 C 17.085938 11.355469 17.144531 11.4375 17.320312 11.464844 C 17.511719 11.492188 17.546875 11.558594 17.546875 11.898438 C 17.546875 12.117188 17.496094 12.300781 17.4375 12.300781 C 17.378906 12.300781 17.164062 12.488281 16.960938 12.71875 C 16.378906 13.378906 16.308594 13.386719 15.964844 12.847656 C 15.769531 12.542969 15.640625 12.421875 15.59375 12.503906 C 15.550781 12.574219 15.609375 12.746094 15.730469 12.898438 C 16.15625 13.433594 16.207031 13.628906 15.972656 13.816406 C 15.859375 13.910156 15.710938 14.089844 15.648438 14.21875 C 15.472656 14.566406 15.246094 14.476562 14.613281 13.8125 Z M 16.191406 11.890625 C 16.191406 11.636719 16.144531 11.527344 16.015625 11.503906 C 15.871094 11.472656 15.839844 11.542969 15.839844 11.890625 C 15.839844 12.242188 15.871094 12.308594 16.015625 12.28125 C 16.144531 12.257812 16.191406 12.148438 16.191406 11.890625 Z M 15.742188 11.234375 C 15.742188 11.050781 15.585938 10.871094 15.429688 10.871094 C 15.210938 10.871094 15.1875 10.976562 15.359375 11.15625 C 15.472656 11.273438 15.742188 11.328125 15.742188 11.234375 Z M 15.136719 10.617188 C 15.320312 10.394531 15.167969 10.253906 14.738281 10.253906 C 14.320312 10.253906 14.203125 10.347656 14.296875 10.605469 C 14.375 10.8125 14.96875 10.824219 15.136719 10.617188 Z M 10.121094 8.269531 C 10.28125 8.078125 10.21875 7.59375 10.023438 7.46875 C 9.90625 7.394531 9.789062 7.449219 9.546875 7.695312 C 9.371094 7.875 9.226562 8.113281 9.226562 8.21875 C 9.226562 8.378906 9.300781 8.417969 9.617188 8.417969 C 9.832031 8.417969 10.054688 8.351562 10.125 8.269531 Z M 7.023438 12.199219 C 6.9375 12.144531 6.746094 12.097656 6.59375 12.097656 C 6.445312 12.097656 6.320312 12.0625 6.320312 12.019531 C 6.320312 11.976562 6.21875 11.894531 6.09375 11.839844 C 5.898438 11.75 5.867188 11.660156 5.863281 11.125 C 5.863281 10.785156 5.824219 10.453125 5.78125 10.382812 C 5.679688 10.210938 5.996094 10.089844 6.144531 10.242188 C 6.207031 10.308594 6.328125 10.355469 6.414062 10.355469 C 6.515625 10.351562 6.441406 10.234375 6.207031 10.023438 C 5.703125 9.5625 5.65625 9.195312 6.046875 8.703125 C 6.214844 8.488281 6.398438 8.3125 6.449219 8.3125 C 6.503906 8.3125 6.832031 8.617188 7.179688 8.992188 C 7.6875 9.535156 7.796875 9.707031 7.722656 9.847656 C 7.671875 9.945312 7.660156 10.054688 7.695312 10.089844 C 7.730469 10.125 7.675781 10.21875 7.574219 10.292969 C 7.4375 10.394531 7.410156 10.5 7.460938 10.707031 C 7.546875 11.054688 7.839844 11.027344 7.921875 10.664062 C 7.96875 10.457031 8.050781 10.402344 8.355469 10.375 C 8.558594 10.359375 8.722656 10.382812 8.722656 10.429688 C 8.722656 10.609375 8.558594 10.753906 8.292969 10.824219 C 8.101562 10.871094 8.03125 10.941406 8.066406 11.042969 C 8.25 11.527344 8.238281 11.671875 8.007812 11.796875 C 7.878906 11.867188 7.714844 12.007812 7.640625 12.113281 C 7.5 12.320312 7.253906 12.351562 7.023438 12.199219 Z M 4.773438 8.738281 C 4.730469 8.664062 4.722656 8.578125 4.757812 8.546875 C 4.847656 8.453125 4.941406 8.589844 4.894531 8.738281 C 4.859375 8.839844 4.835938 8.839844 4.773438 8.738281 Z M 5.066406 8.621094 C 5.101562 8.566406 5.203125 8.519531 5.296875 8.519531 C 5.445312 8.523438 5.449219 8.535156 5.316406 8.621094 C 5.121094 8.75 4.988281 8.75 5.066406 8.621094 Z M 13.855469 8.339844 L 13.222656 8.304688 L 13.285156 7.445312 L 13.835938 7.414062 C 14.316406 7.386719 14.4375 7.332031 14.761719 7.011719 C 15.046875 6.726562 15.140625 6.554688 15.140625 6.300781 C 15.140625 6.035156 15.179688 5.964844 15.332031 5.964844 C 15.535156 5.964844 16.140625 6.664062 16.140625 6.898438 C 16.140625 7.101562 14.8125 8.421875 14.632812 8.398438 C 14.554688 8.386719 14.203125 8.359375 13.855469 8.339844 Z M 13.855469 8.339844 "/>
<path style=" stroke:none;fill-rule:nonzero;fill:rgb(9.411765%,27.843137%,88.627451%);fill-opacity:1;" d="M 9.964844 16.972656 C 9.972656 16.757812 9.957031 16.558594 9.921875 16.539062 C 9.882812 16.515625 9.640625 16.476562 9.375 16.449219 C 9.109375 16.421875 8.855469 16.339844 8.8125 16.265625 C 8.710938 16.105469 8.703125 15.566406 8.789062 14.921875 L 8.851562 14.445312 L 9.398438 14.445312 C 9.867188 14.445312 9.921875 14.425781 9.800781 14.304688 C 9.699219 14.199219 9.667969 13.921875 9.679688 13.296875 C 9.6875 12.820312 9.730469 12.382812 9.765625 12.320312 C 9.800781 12.261719 9.628906 12.007812 9.378906 11.753906 C 8.921875 11.296875 8.796875 10.972656 9.078125 10.972656 C 9.160156 10.972656 9.226562 11.019531 9.226562 11.074219 C 9.226562 11.128906 9.339844 11.277344 9.476562 11.398438 C 9.613281 11.523438 9.726562 11.679688 9.726562 11.75 C 9.726562 11.820312 9.820312 11.90625 9.925781 11.945312 C 10.039062 11.976562 10.175781 12.09375 10.230469 12.203125 C 10.289062 12.3125 10.441406 12.402344 10.570312 12.402344 C 10.71875 12.402344 11.027344 12.613281 11.394531 12.964844 C 11.753906 13.3125 12.074219 13.527344 12.214844 13.527344 C 12.457031 13.527344 13.683594 14.699219 13.59375 14.84375 C 13.519531 14.960938 13.519531 16.71875 13.589844 16.960938 C 13.632812 17.109375 13.601562 17.199219 13.488281 17.242188 C 13.398438 17.277344 13.347656 17.269531 13.378906 17.21875 C 13.40625 17.171875 13.34375 17.054688 13.238281 16.953125 C 13.132812 16.859375 13.074219 16.714844 13.105469 16.632812 C 13.144531 16.523438 13.039062 16.492188 12.601562 16.492188 C 11.769531 16.492188 11.730469 16.460938 11.730469 15.769531 C 11.730469 15.128906 11.578125 14.855469 11.214844 14.855469 C 10.71875 14.855469 10.65625 14.984375 10.582031 16.234375 L 10.507812 17.414062 L 10.226562 17.390625 C 9.960938 17.371094 9.945312 17.339844 9.964844 16.972656 Z M 10.855469 14.375 C 10.730469 14.351562 10.527344 14.351562 10.402344 14.375 C 10.28125 14.398438 10.382812 14.417969 10.628906 14.417969 C 10.878906 14.417969 10.976562 14.398438 10.855469 14.375 Z M 13.953125 17.320312 C 13.851562 17.253906 13.875 17.21875 14.039062 17.175781 C 14.285156 17.109375 14.539062 17.183594 14.539062 17.320312 C 14.539062 17.433594 14.132812 17.4375 13.953125 17.320312 Z M 12.351562 16.894531 C 12.375 16.820312 12.457031 16.738281 12.527344 16.714844 C 12.601562 16.691406 12.640625 16.726562 12.613281 16.804688 C 12.589844 16.878906 12.511719 16.957031 12.4375 16.984375 C 12.363281 17.007812 12.328125 16.972656 12.351562 16.894531 Z M 15.988281 12.886719 C 15.75 12.5 15.675781 12.449219 15.292969 12.425781 C 14.929688 12.398438 14.839844 12.433594 14.699219 12.65625 C 14.480469 12.996094 14.277344 12.980469 14.09375 12.617188 C 13.894531 12.226562 13.367188 11.78125 13.183594 11.855469 C 13.085938 11.890625 12.753906 11.632812 12.257812 11.144531 C 11.832031 10.71875 11.359375 10.34375 11.207031 10.304688 C 10.769531 10.191406 10.828125 9.808594 11.304688 9.65625 C 11.515625 9.589844 11.816406 9.546875 11.984375 9.5625 C 12.273438 9.589844 12.285156 9.578125 12.257812 9.1875 C 12.246094 8.964844 12.285156 8.753906 12.347656 8.714844 C 12.554688 8.582031 12.8125 8.742188 12.871094 9.039062 C 12.941406 9.394531 13.488281 9.78125 13.789062 9.6875 C 13.898438 9.652344 14.28125 9.582031 14.636719 9.53125 C 15.265625 9.4375 15.296875 9.445312 15.511719 9.691406 C 15.648438 9.855469 15.835938 9.949219 16.015625 9.949219 C 16.417969 9.949219 17.019531 10.59375 17.0625 11.074219 C 17.085938 11.355469 17.144531 11.4375 17.320312 11.464844 C 17.511719 11.492188 17.546875 11.558594 17.546875 11.898438 C 17.546875 12.117188 17.496094 12.300781 17.4375 12.300781 C 17.378906 12.300781 17.164062 12.488281 16.960938 12.71875 C 16.386719 13.375 16.304688 13.386719 15.992188 12.886719 Z M 16.191406 11.890625 C 16.191406 11.632812 16.144531 11.527344 16.015625 11.5 C 15.871094 11.472656 15.839844 11.542969 15.839844 11.890625 C 15.839844 12.238281 15.871094 12.308594 16.015625 12.28125 C 16.144531 12.253906 16.191406 12.148438 16.191406 11.890625 Z M 15.742188 11.234375 C 15.742188 11.050781 15.585938 10.871094 15.429688 10.871094 C 15.210938 10.871094 15.1875 10.976562 15.359375 11.15625 C 15.472656 11.269531 15.742188 11.328125 15.742188 11.234375 Z M 15.136719 10.617188 C 15.320312 10.390625 15.167969 10.253906 14.738281 10.253906 C 14.320312 10.253906 14.203125 10.347656 14.296875 10.605469 C 14.375 10.8125 14.96875 10.820312 15.136719 10.617188 Z M 7.019531 12.199219 C 6.9375 12.140625 6.746094 12.097656 6.59375 12.097656 C 6.445312 12.09375 6.320312 12.058594 6.320312 12.015625 C 6.320312 11.972656 6.21875 11.894531 6.09375 11.835938 C 5.898438 11.75 5.867188 11.660156 5.863281 11.125 C 5.863281 10.785156 5.824219 10.453125 5.78125 10.382812 C 5.679688 10.210938 5.996094 10.089844 6.144531 10.242188 C 6.316406 10.414062 7 10.382812 7.328125 10.183594 C 7.652344 9.992188 7.859375 10.078125 7.574219 10.289062 C 7.4375 10.394531 7.410156 10.5 7.460938 10.707031 C 7.546875 11.054688 7.839844 11.027344 7.921875 10.664062 C 7.96875 10.457031 8.050781 10.402344 8.351562 10.375 C 8.558594 10.359375 8.722656 10.382812 8.722656 10.429688 C 8.71875 10.609375 8.558594 10.753906 8.292969 10.824219 C 8.101562 10.871094 8.03125 10.941406 8.066406 11.042969 C 8.25 11.527344 8.238281 11.671875 8.007812 11.796875 C 7.878906 11.867188 7.710938 12.007812 7.640625 12.113281 C 7.5 12.316406 7.253906 12.351562 7.023438 12.199219 Z M 8.695312 8.625 C 8.542969 8.453125 8.324219 8.3125 8.203125 8.3125 C 8.074219 8.3125 7.78125 8.117188 7.511719 7.84375 C 7.226562 7.554688 6.914062 7.347656 6.707031 7.304688 C 6.238281 7.207031 6.199219 6.769531 6.617188 6.28125 C 6.976562 5.855469 7.21875 5.90625 7.21875 6.40625 C 7.21875 6.917969 7.863281 7.496094 8.429688 7.496094 C 9.148438 7.496094 9.226562 7.398438 9.226562 6.476562 L 9.226562 5.671875 L 9.726562 5.1875 C 10.003906 4.917969 10.226562 4.617188 10.226562 4.515625 C 10.226562 4.347656 10.320312 4.328125 11.128906 4.328125 C 11.707031 4.328125 12.03125 4.367188 12.03125 4.4375 C 12.03125 4.496094 12.285156 4.816406 12.597656 5.152344 L 13.160156 5.753906 L 13.09375 6.464844 C 13.035156 7.074219 12.976562 7.226562 12.695312 7.539062 C 12.515625 7.742188 12.316406 7.90625 12.253906 7.90625 C 12.191406 7.90625 12.054688 8 11.945312 8.117188 C 11.722656 8.363281 11.535156 8.199219 11.746094 7.941406 C 11.957031 7.679688 11.632812 7.535156 10.683594 7.464844 C 9.835938 7.40625 9.832031 7.40625 9.523438 7.71875 C 9.261719 7.984375 9.21875 8.101562 9.246094 8.449219 C 9.285156 8.988281 9.070312 9.054688 8.695312 8.625 Z M 4.773438 8.734375 C 4.730469 8.664062 4.722656 8.578125 4.753906 8.546875 C 4.84375 8.453125 4.941406 8.589844 4.894531 8.738281 C 4.859375 8.839844 4.835938 8.839844 4.773438 8.734375 Z M 5.066406 8.621094 C 5.101562 8.5625 5.203125 8.519531 5.296875 8.519531 C 5.441406 8.519531 5.445312 8.535156 5.316406 8.621094 C 5.121094 8.75 4.988281 8.75 5.066406 8.621094 Z M 13.859375 8.339844 L 13.234375 8.304688 L 13.234375 7.496094 L 13.78125 7.496094 C 14.273438 7.496094 14.371094 7.457031 14.734375 7.117188 C 15.050781 6.820312 15.136719 6.664062 15.136719 6.398438 C 15.136719 5.886719 15.382812 5.863281 15.789062 6.335938 C 15.976562 6.550781 16.136719 6.800781 16.136719 6.886719 C 16.140625 7.09375 14.824219 8.421875 14.632812 8.398438 C 14.554688 8.386719 14.203125 8.359375 13.859375 8.339844 Z M 13.859375 8.339844 "/>
<path style=" stroke:none;fill-rule:nonzero;fill:rgb(87.45098%,16.470588%,11.764706%);fill-opacity:1;" d="M 9.964844 16.972656 C 9.972656 16.757812 9.957031 16.558594 9.921875 16.539062 C 9.882812 16.515625 9.640625 16.476562 9.375 16.449219 C 9.109375 16.421875 8.855469 16.339844 8.8125 16.265625 C 8.710938 16.105469 8.703125 15.566406 8.789062 14.921875 L 8.851562 14.453125 L 10.707031 14.421875 C 12.359375 14.398438 12.574219 14.375 12.675781 14.214844 C 12.8125 13.984375 12.621094 13.835938 12.179688 13.835938 C 11.949219 13.835938 11.761719 13.71875 11.429688 13.375 C 11.132812 13.0625 10.902344 12.914062 10.730469 12.914062 C 10.539062 12.914062 10.269531 12.699219 9.699219 12.097656 C 8.953125 11.3125 8.765625 10.972656 9.074219 10.972656 C 9.160156 10.972656 9.226562 11.019531 9.226562 11.074219 C 9.226562 11.132812 9.339844 11.277344 9.476562 11.402344 C 9.613281 11.523438 9.726562 11.679688 9.726562 11.75 C 9.726562 11.820312 9.820312 11.90625 9.925781 11.945312 C 10.039062 11.980469 10.175781 12.097656 10.230469 12.203125 C 10.289062 12.3125 10.441406 12.402344 10.570312 12.402344 C 10.71875 12.402344 11.027344 12.613281 11.394531 12.964844 C 11.753906 13.3125 12.070312 13.527344 12.214844 13.527344 C 12.457031 13.527344 13.683594 14.699219 13.59375 14.84375 C 13.519531 14.964844 13.515625 16.71875 13.589844 16.964844 C 13.632812 17.109375 13.601562 17.199219 13.488281 17.242188 C 13.398438 17.277344 13.347656 17.269531 13.378906 17.21875 C 13.40625 17.171875 13.34375 17.054688 13.238281 16.957031 C 13.132812 16.859375 13.074219 16.714844 13.101562 16.636719 C 13.144531 16.523438 13.039062 16.492188 12.601562 16.492188 C 11.769531 16.492188 11.730469 16.460938 11.730469 15.769531 C 11.730469 15.132812 11.578125 14.855469 11.214844 14.855469 C 10.71875 14.855469 10.65625 14.984375 10.582031 16.234375 L 10.507812 17.414062 L 10.226562 17.390625 C 9.960938 17.371094 9.945312 17.339844 9.964844 16.972656 Z M 13.953125 17.320312 C 13.851562 17.253906 13.875 17.21875 14.039062 17.175781 C 14.285156 17.109375 14.539062 17.183594 14.539062 17.320312 C 14.539062 17.433594 14.132812 17.4375 13.953125 17.320312 Z M 12.351562 16.894531 C 12.375 16.820312 12.457031 16.738281 12.527344 16.714844 C 12.601562 16.691406 12.640625 16.726562 12.613281 16.804688 C 12.589844 16.878906 12.511719 16.957031 12.4375 16.984375 C 12.363281 17.007812 12.328125 16.972656 12.351562 16.894531 Z M 14.128906 12.695312 C 13.957031 12.367188 13.894531 11.347656 14.027344 11.089844 C 14.117188 10.925781 14.238281 10.871094 14.523438 10.871094 C 14.824219 10.871094 14.972656 10.945312 15.269531 11.257812 C 15.578125 11.578125 15.640625 11.71875 15.640625 12.066406 L 15.640625 12.484375 L 15.257812 12.433594 C 14.929688 12.386719 14.851562 12.417969 14.703125 12.648438 C 14.496094 12.972656 14.285156 12.988281 14.128906 12.695312 Z M 6.621094 10.613281 L 6.382812 10.359375 L 6.710938 10.359375 C 6.894531 10.359375 7.171875 10.28125 7.328125 10.183594 C 7.488281 10.089844 7.640625 10.035156 7.671875 10.066406 C 7.742188 10.140625 7.089844 10.871094 6.957031 10.871094 C 6.902344 10.871094 6.75 10.753906 6.621094 10.613281 Z M 7.941406 10.65625 C 7.96875 10.453125 8.039062 10.402344 8.351562 10.375 C 8.554688 10.359375 8.722656 10.382812 8.722656 10.429688 C 8.722656 10.621094 8.542969 10.769531 8.234375 10.832031 C 7.929688 10.894531 7.90625 10.878906 7.941406 10.65625 Z M 11.558594 9.976562 C 11.214844 9.957031 10.929688 9.902344 10.929688 9.859375 C 10.929688 9.734375 11.644531 9.53125 11.984375 9.5625 C 12.273438 9.589844 12.285156 9.578125 12.257812 9.1875 C 12.21875 8.515625 12.703125 8.460938 12.90625 9.113281 C 13.015625 9.460938 13 9.511719 12.761719 9.769531 C 12.613281 9.925781 12.425781 10.042969 12.339844 10.03125 C 12.253906 10.019531 11.902344 9.996094 11.558594 9.976562 Z M 8.695312 8.625 C 8.546875 8.453125 8.324219 8.3125 8.203125 8.3125 C 8.074219 8.3125 7.785156 8.117188 7.511719 7.84375 C 7.226562 7.554688 6.914062 7.347656 6.707031 7.304688 C 6.242188 7.207031 6.203125 6.769531 6.617188 6.28125 C 6.976562 5.855469 7.222656 5.90625 7.222656 6.40625 C 7.222656 6.917969 7.863281 7.496094 8.433594 7.496094 C 9.152344 7.496094 9.226562 7.398438 9.226562 6.476562 L 9.226562 5.671875 L 9.730469 5.1875 C 10.003906 4.917969 10.226562 4.617188 10.226562 4.515625 C 10.226562 4.347656 10.324219 4.328125 11.128906 4.328125 C 11.707031 4.328125 12.03125 4.367188 12.03125 4.4375 C 12.03125 4.496094 12.289062 4.820312 12.597656 5.152344 L 13.164062 5.753906 L 13.09375 6.464844 C 13.035156 7.074219 12.976562 7.226562 12.695312 7.539062 C 12.515625 7.742188 12.316406 7.90625 12.253906 7.90625 C 12.191406 7.90625 12.054688 8 11.945312 8.117188 C 11.722656 8.363281 11.535156 8.199219 11.746094 7.941406 C 11.957031 7.679688 11.632812 7.535156 10.683594 7.464844 C 9.835938 7.40625 9.832031 7.40625 9.523438 7.71875 C 9.265625 7.984375 9.21875 8.101562 9.246094 8.453125 C 9.285156 8.988281 9.070312 9.054688 8.695312 8.625 Z M 4.773438 8.738281 C 4.730469 8.664062 4.722656 8.578125 4.757812 8.546875 C 4.847656 8.453125 4.941406 8.589844 4.894531 8.738281 C 4.859375 8.839844 4.835938 8.839844 4.773438 8.738281 Z M 5.066406 8.621094 C 5.101562 8.566406 5.203125 8.519531 5.296875 8.519531 C 5.445312 8.523438 5.445312 8.535156 5.316406 8.621094 C 5.121094 8.75 4.988281 8.75 5.066406 8.621094 Z M 13.859375 8.339844 L 13.234375 8.304688 L 13.234375 7.496094 L 13.785156 7.496094 C 14.277344 7.496094 14.371094 7.457031 14.734375 7.117188 C 15.050781 6.820312 15.140625 6.664062 15.140625 6.398438 C 15.140625 5.886719 15.382812 5.863281 15.789062 6.335938 C 15.980469 6.550781 16.136719 6.800781 16.136719 6.886719 C 16.144531 7.09375 14.824219 8.421875 14.636719 8.398438 C 14.554688 8.386719 14.207031 8.359375 13.859375 8.339844 Z M 13.859375 8.339844 "/>
<path style=" stroke:none;fill-rule:nonzero;fill:rgb(10.588235%,80.392157%,10.588235%);fill-opacity:1;" d="M 10.078125 16.585938 C 9.914062 16.535156 9.578125 16.472656 9.335938 16.445312 C 9.09375 16.421875 8.855469 16.339844 8.808594 16.265625 C 8.710938 16.105469 8.703125 15.566406 8.789062 14.921875 L 8.851562 14.453125 L 10.707031 14.421875 C 12.359375 14.398438 12.574219 14.375 12.675781 14.214844 C 12.8125 13.984375 12.621094 13.835938 12.179688 13.835938 C 11.949219 13.835938 11.761719 13.71875 11.429688 13.375 C 11.132812 13.0625 10.902344 12.914062 10.730469 12.914062 C 10.539062 12.914062 10.269531 12.703125 9.699219 12.097656 C 8.949219 11.3125 8.765625 10.972656 9.074219 10.972656 C 9.160156 10.972656 9.226562 11.019531 9.226562 11.074219 C 9.226562 11.132812 9.339844 11.277344 9.476562 11.402344 C 9.613281 11.523438 9.726562 11.679688 9.726562 11.75 C 9.726562 11.820312 9.820312 11.90625 9.925781 11.945312 C 10.039062 11.980469 10.175781 12.097656 10.230469 12.203125 C 10.289062 12.3125 10.441406 12.402344 10.570312 12.402344 C 10.71875 12.402344 11.027344 12.613281 11.394531 12.964844 C 11.753906 13.3125 12.070312 13.527344 12.214844 13.527344 C 12.363281 13.527344 12.648438 13.738281 13.015625 14.121094 L 13.585938 14.714844 L 13.535156 15.679688 C 13.492188 16.476562 13.460938 16.636719 13.335938 16.601562 C 13.253906 16.578125 12.957031 16.542969 12.683594 16.519531 C 11.71875 16.453125 11.730469 16.460938 11.730469 15.78125 C 11.730469 15.132812 11.578125 14.855469 11.214844 14.855469 C 10.785156 14.855469 10.628906 15.039062 10.628906 15.5625 C 10.628906 16.128906 10.535156 16.699219 10.441406 16.6875 C 10.40625 16.683594 10.242188 16.636719 10.078125 16.585938 Z M 14.128906 12.695312 C 13.957031 12.367188 13.894531 11.347656 14.03125 11.089844 C 14.117188 10.925781 14.238281 10.871094 14.523438 10.871094 C 14.824219 10.871094 14.972656 10.945312 15.269531 11.257812 C 15.578125 11.578125 15.640625 11.71875 15.640625 12.066406 L 15.640625 12.484375 L 15.257812 12.433594 C 14.929688 12.386719 14.851562 12.417969 14.703125 12.648438 C 14.496094 12.972656 14.285156 12.988281 14.128906 12.695312 Z M 6.621094 10.613281 L 6.382812 10.359375 L 6.714844 10.359375 C 6.894531 10.359375 7.171875 10.28125 7.328125 10.183594 C 7.488281 10.089844 7.640625 10.035156 7.671875 10.066406 C 7.742188 10.140625 7.089844 10.871094 6.957031 10.871094 C 6.902344 10.871094 6.75 10.753906 6.621094 10.613281 Z M 7.941406 10.65625 C 7.96875 10.453125 8.039062 10.402344 8.351562 10.375 C 8.554688 10.359375 8.722656 10.382812 8.722656 10.429688 C 8.722656 10.621094 8.542969 10.769531 8.234375 10.832031 C 7.929688 10.894531 7.90625 10.878906 7.941406 10.65625 Z M 11.558594 9.976562 C 10.683594 9.925781 10.769531 9.746094 11.664062 9.746094 C 12.320312 9.746094 12.425781 9.71875 12.636719 9.488281 C 12.792969 9.316406 12.90625 9.265625 12.972656 9.335938 C 13.101562 9.464844 12.5625 10.058594 12.339844 10.03125 C 12.253906 10.019531 11.902344 9.996094 11.558594 9.976562 Z M 8.78125 8.730469 C 8.570312 8.488281 8.652344 8.3125 8.976562 8.3125 C 9.125 8.3125 9.238281 8.390625 9.277344 8.515625 C 9.40625 8.933594 9.085938 9.070312 8.78125 8.730469 Z M 4.773438 8.738281 C 4.730469 8.664062 4.722656 8.578125 4.757812 8.546875 C 4.847656 8.453125 4.945312 8.589844 4.894531 8.738281 C 4.863281 8.839844 4.835938 8.839844 4.773438 8.738281 Z M 5.066406 8.621094 C 5.101562 8.566406 5.207031 8.519531 5.300781 8.519531 C 5.445312 8.523438 5.449219 8.535156 5.316406 8.621094 C 5.121094 8.75 4.988281 8.75 5.066406 8.621094 Z M 12.03125 7.738281 C 12.03125 7.460938 12.464844 7.183594 12.636719 7.355469 C 12.765625 7.484375 12.503906 7.863281 12.238281 7.933594 C 12.074219 7.976562 12.03125 7.9375 12.03125 7.738281 Z M 9.226562 7.648438 C 9.226562 7.445312 9.277344 7.394531 9.476562 7.394531 C 9.773438 7.394531 9.796875 7.503906 9.542969 7.734375 C 9.292969 7.96875 9.226562 7.949219 9.226562 7.648438 Z M 9.226562 7.648438 "/>
<path style=" stroke:none;fill-rule:nonzero;fill:rgb(29.019608%,28.235294%,29.411765%);fill-opacity:1;" d="M 10.128906 16.605469 L 9.878906 16.53125 L 10.128906 16.460938 C 10.484375 16.363281 10.527344 16.371094 10.527344 16.542969 C 10.527344 16.707031 10.507812 16.710938 10.128906 16.605469 Z M 13.238281 16.59375 C 13.113281 16.515625 13.117188 16.492188 13.269531 16.433594 C 13.476562 16.351562 13.613281 16.453125 13.476562 16.589844 C 13.421875 16.648438 13.324219 16.652344 13.238281 16.59375 Z M 13.246094 14.769531 C 13.027344 14.457031 13.019531 14.457031 12.253906 14.488281 C 11.667969 14.515625 11.613281 14.507812 12.023438 14.460938 C 12.882812 14.359375 13.011719 13.839844 12.179688 13.835938 C 11.949219 13.835938 11.761719 13.71875 11.429688 13.375 C 11.132812 13.0625 10.902344 12.914062 10.730469 12.914062 C 10.539062 12.914062 10.269531 12.703125 9.699219 12.097656 C 8.949219 11.3125 8.765625 10.972656 9.074219 10.972656 C 9.160156 10.972656 9.226562 11.019531 9.226562 11.074219 C 9.226562 11.132812 9.339844 11.277344 9.476562 11.402344 C 9.613281 11.523438 9.726562 11.679688 9.726562 11.75 C 9.726562 11.820312 9.820312 11.90625 9.925781 11.945312 C 10.039062 11.980469 10.175781 12.097656 10.230469 12.207031 C 10.289062 12.3125 10.441406 12.402344 10.570312 12.402344 C 10.71875 12.402344 11.027344 12.613281 11.394531 12.964844 C 11.753906 13.3125 12.070312 13.527344 12.214844 13.527344 C 12.542969 13.527344 13.671875 14.707031 13.550781 14.925781 C 13.480469 15.058594 13.429688 15.027344 13.246094 14.769531 Z M 14.128906 12.695312 C 13.957031 12.367188 13.894531 11.347656 14.027344 11.089844 C 14.117188 10.925781 14.238281 10.871094 14.523438 10.871094 C 14.824219 10.871094 14.972656 10.945312 15.269531 11.257812 C 15.578125 11.578125 15.640625 11.71875 15.640625 12.066406 L 15.640625 12.484375 L 15.257812 12.433594 C 14.929688 12.386719 14.851562 12.417969 14.703125 12.648438 C 14.496094 12.972656 14.285156 12.988281 14.128906 12.695312 Z M 6.621094 10.613281 L 6.382812 10.359375 L 6.710938 10.359375 C 6.894531 10.359375 7.171875 10.28125 7.328125 10.183594 C 7.488281 10.089844 7.640625 10.035156 7.671875 10.066406 C 7.742188 10.140625 7.089844 10.871094 6.957031 10.871094 C 6.902344 10.871094 6.75 10.753906 6.621094 10.613281 Z M 7.941406 10.65625 C 7.96875 10.453125 8.039062 10.402344 8.351562 10.375 C 8.554688 10.359375 8.722656 10.382812 8.722656 10.429688 C 8.722656 10.621094 8.542969 10.769531 8.234375 10.832031 C 7.929688 10.894531 7.90625 10.878906 7.941406 10.65625 Z M 11.558594 9.976562 C 10.683594 9.925781 10.769531 9.746094 11.664062 9.746094 C 12.320312 9.746094 12.425781 9.71875 12.636719 9.488281 C 12.792969 9.316406 12.90625 9.265625 12.972656 9.335938 C 13.101562 9.464844 12.5625 10.058594 12.339844 10.03125 C 12.253906 10.019531 11.902344 9.996094 11.558594 9.976562 Z M 8.78125 8.730469 C 8.570312 8.488281 8.652344 8.3125 8.976562 8.3125 C 9.125 8.3125 9.238281 8.390625 9.277344 8.515625 C 9.40625 8.933594 9.085938 9.070312 8.78125 8.730469 Z M 4.773438 8.738281 C 4.730469 8.664062 4.722656 8.578125 4.757812 8.546875 C 4.847656 8.453125 4.945312 8.589844 4.894531 8.738281 C 4.859375 8.839844 4.835938 8.839844 4.773438 8.738281 Z M 5.066406 8.621094 C 5.101562 8.566406 5.207031 8.519531 5.300781 8.519531 C 5.445312 8.523438 5.449219 8.535156 5.316406 8.621094 C 5.121094 8.75 4.988281 8.75 5.066406 8.621094 Z M 12.03125 7.738281 C 12.03125 7.460938 12.464844 7.183594 12.636719 7.355469 C 12.765625 7.484375 12.503906 7.863281 12.238281 7.933594 C 12.074219 7.976562 12.03125 7.9375 12.03125 7.738281 Z M 9.226562 7.648438 C 9.226562 7.445312 9.277344 7.394531 9.476562 7.394531 C 9.773438 7.394531 9.796875 7.503906 9.542969 7.734375 C 9.292969 7.96875 9.226562 7.949219 9.226562 7.648438 Z M 9.226562 7.648438 "/>
<path style=" stroke:none;fill-rule:nonzero;fill:rgb(66.27451%,66.27451%,66.27451%);fill-opacity:1;" d="M 13.605469 13.058594 C 13.566406 13.039062 13.5 12.953125 13.457031 12.871094 C 13.355469 12.679688 13.285156 12.625 13.125 12.597656 C 12.949219 12.566406 12.820312 12.492188 12.601562 12.296875 C 12.496094 12.207031 12.351562 12.109375 12.28125 12.078125 C 12.175781 12.039062 12.128906 11.996094 12.054688 11.871094 C 11.933594 11.667969 11.847656 11.574219 11.785156 11.574219 C 11.722656 11.574219 11.597656 11.4375 11.519531 11.28125 C 11.484375 11.207031 11.429688 11.132812 11.390625 11.113281 C 11.355469 11.09375 11.1875 11.066406 11.019531 11.054688 C 10.839844 11.042969 10.6875 11.015625 10.660156 10.992188 C 10.632812 10.972656 10.582031 10.890625 10.546875 10.8125 C 10.464844 10.65625 10.398438 10.585938 10.289062 10.550781 C 10.199219 10.527344 10.078125 10.421875 10.078125 10.367188 C 10.078125 10.273438 9.945312 10.171875 9.785156 10.140625 C 9.574219 10.101562 9.472656 10.050781 9.253906 9.867188 C 9.152344 9.785156 8.964844 9.652344 8.839844 9.574219 C 8.648438 9.453125 8.597656 9.40625 8.550781 9.300781 C 8.488281 9.160156 8.472656 9.148438 8.238281 9.117188 C 8.015625 9.085938 7.917969 9.035156 7.722656 8.839844 C 7.625 8.742188 7.46875 8.617188 7.367188 8.566406 C 7.261719 8.507812 7.167969 8.433594 7.128906 8.367188 C 6.984375 8.140625 6.964844 8.125 6.757812 8.097656 C 6.53125 8.066406 6.40625 8.023438 6.222656 7.914062 C 6.007812 7.789062 5.890625 7.75 5.726562 7.746094 L 5.574219 7.746094 L 5.84375 7.398438 L 6.117188 7.054688 L 6.132812 7.175781 C 6.164062 7.421875 6.3125 7.515625 6.660156 7.519531 C 6.894531 7.519531 7.03125 7.605469 7.414062 7.992188 C 7.808594 8.398438 7.921875 8.480469 8.140625 8.53125 C 8.367188 8.578125 8.429688 8.617188 8.613281 8.828125 C 8.714844 8.953125 8.800781 9.023438 8.855469 9.035156 C 8.90625 9.042969 9.066406 9.132812 9.214844 9.226562 C 9.378906 9.335938 9.542969 9.417969 9.636719 9.4375 C 9.835938 9.480469 9.90625 9.523438 10.1875 9.753906 C 10.433594 9.957031 10.605469 10.148438 10.6875 10.316406 C 10.753906 10.441406 10.761719 10.445312 11.023438 10.476562 C 11.324219 10.507812 11.433594 10.589844 12.097656 11.242188 C 12.675781 11.808594 12.875 11.960938 13.101562 12.003906 C 13.289062 12.039062 13.398438 12.09375 13.519531 12.222656 C 13.640625 12.339844 13.824219 12.59375 13.890625 12.726562 C 13.945312 12.839844 13.957031 12.996094 13.90625 13.027344 C 13.828125 13.078125 13.671875 13.09375 13.605469 13.058594 Z M 13.605469 13.058594 "/>
<path style=" stroke:none;fill-rule:nonzero;fill:rgb(100%,98.039216%,98.039216%);fill-opacity:1;" d="M 9.488281 8.359375 C 9.453125 8.328125 9.421875 8.285156 9.421875 8.261719 C 9.421875 8.152344 9.804688 7.710938 9.988281 7.609375 C 10.089844 7.554688 10.128906 7.585938 10.167969 7.757812 C 10.210938 7.9375 10.183594 8.066406 10.0625 8.195312 C 9.90625 8.367188 9.617188 8.449219 9.488281 8.359375 Z M 9.488281 8.359375 "/>
<path style=" stroke:none;fill-rule:nonzero;fill:rgb(100%,98.039216%,98.039216%);fill-opacity:1;" d="M 12.359375 8.359375 L 12.292969 8.308594 L 12.382812 8.175781 C 12.484375 8.027344 12.871094 7.648438 12.976562 7.601562 C 13.070312 7.554688 13.101562 7.605469 13.101562 7.820312 C 13.101562 8.050781 13.011719 8.230469 12.855469 8.3125 C 12.6875 8.398438 12.449219 8.421875 12.359375 8.359375 Z M 12.359375 8.359375 "/>
<path style="fill-rule:evenodd;fill:rgb(18.431373%,30.980392%,30.980392%);fill-opacity:1;stroke-width:1;stroke-linecap:butt;stroke-linejoin:miter;stroke:rgb(18.431373%,30.980392%,30.980392%);stroke-opacity:1;stroke-miterlimit:4;" d="M 145.674508 99.873051 C 145.674508 101.019539 144.856041 101.974946 143.881677 101.974946 C 142.907312 101.974946 142.088846 101.019539 142.088846 99.873051 C 142.088846 98.726562 142.907312 97.771155 143.881677 97.771155 C 144.856041 97.771155 145.674508 98.726562 145.674508 99.873051 Z M 145.674508 99.873051 " transform="matrix(0.100226,0,0,0.102214,-1.756563,-2.024859)"/>
<path style="fill-rule:evenodd;fill:rgb(18.431373%,30.980392%,30.980392%);fill-opacity:1;stroke-width:1;stroke-linecap:butt;stroke-linejoin:miter;stroke:rgb(18.431373%,30.980392%,30.980392%);stroke-opacity:1;stroke-miterlimit:4;" d="M 145.687291 99.858528 C 145.687291 101.043233 144.868825 101.960424 143.894461 101.960424 C 142.881122 101.960424 142.10163 101.043233 142.10163 99.858528 C 142.10163 98.71204 142.881122 97.756633 143.894461 97.756633 C 144.868825 97.756633 145.687291 98.71204 145.687291 99.858528 Z M 145.687291 99.858528 " transform="matrix(0.100226,0,0,0.102214,-4.628938,-2.085875)"/>
</g>
</svg>
