
<svg xmlns="http://www.w3.org/2000/svg" xmlns:xlink="http://www.w3.org/1999/xlink" width="22px" height="22px" viewBox="0 0 22 22" version="1.1">
<g id="surface1">
<path style=" stroke:none;fill-rule:nonzero;fill:rgb(100%,27.058824%,0%);fill-opacity:1;" d="M 14.332031 14.4375 C 13.28125 14.4375 12.429688 13.589844 12.429688 12.550781 C 12.429688 11.507812 13.28125 10.664062 14.332031 10.664062 C 15.382812 10.664062 16.234375 11.507812 16.234375 12.550781 C 16.234375 13.589844 15.382812 14.4375 14.332031 14.4375 Z M 14.332031 14.4375 "/>
<path style=" stroke:none;fill-rule:nonzero;fill:rgb(100%,27.058824%,0%);fill-opacity:1;" d="M 7.652344 14.660156 C 6.601562 14.660156 5.753906 13.8125 5.753906 12.773438 C 5.753906 11.730469 6.605469 10.890625 7.652344 10.890625 C 8.703125 10.890625 9.554688 11.730469 9.554688 12.773438 C 9.554688 13.816406 8.703125 14.660156 7.652344 14.660156 Z M 7.652344 14.660156 "/>
<path style=" stroke:none;fill-rule:nonzero;fill:rgb(100%,27.058824%,0%);fill-opacity:1;" d="M 11.304688 7.429688 C 10.257812 7.429688 9.40625 6.585938 9.40625 5.542969 C 9.40625 4.503906 10.257812 3.65625 11.304688 3.65625 C 12.355469 3.65625 13.207031 4.503906 13.207031 5.542969 C 13.207031 6.585938 12.355469 7.429688 11.304688 7.429688 Z M 11.304688 7.429688 "/>
<path style=" stroke:none;fill-rule:nonzero;fill:rgb(69.019608%,76.862745%,87.058824%);fill-opacity:1;" d="M 17.433594 2.210938 C 1.09375 -8.644531 -8.96875 25.976562 12.152344 21.394531 C 20.882812 19.441406 26.179688 7.191406 17.433594 2.210938 Z M 17.433594 2.210938 "/>
<path style=" stroke:none;fill-rule:evenodd;fill:rgb(27.45098%,50.980392%,70.588235%);fill-opacity:1;" d="M 7.945312 16.433594 C 8.195312 15.789062 8.136719 15.609375 7.539062 15.265625 C 6.785156 14.824219 6.03125 13.773438 5.992188 13.113281 C 5.984375 12.945312 6.039062 12.578125 6.117188 12.300781 L 6.257812 11.796875 L 7.101562 12.089844 L 7.941406 12.378906 L 7.953125 12.707031 C 7.984375 13.734375 8.230469 14.136719 9.042969 14.472656 C 9.320312 14.585938 9.695312 14.6875 9.875 14.695312 C 10.339844 14.714844 10.855469 14.433594 11.085938 14.039062 C 11.589844 13.183594 11.398438 12.757812 9.796875 11.191406 C 9.144531 10.558594 8.515625 9.882812 8.398438 9.699219 C 7.75 8.65625 8.261719 6.917969 9.421875 6.242188 C 9.953125 5.929688 10.5 5.816406 11.332031 5.84375 C 11.714844 5.851562 12.082031 5.851562 12.148438 5.839844 C 12.226562 5.824219 12.375 5.570312 12.546875 5.179688 L 12.824219 4.546875 L 13.070312 4.601562 C 13.207031 4.636719 13.398438 4.710938 13.496094 4.773438 C 13.664062 4.878906 13.660156 4.925781 13.476562 5.398438 C 13.199219 6.117188 13.238281 6.257812 13.894531 6.789062 C 14.828125 7.542969 15.191406 8.519531 14.921875 9.53125 L 14.792969 10.015625 L 13.875 9.695312 C 12.972656 9.386719 12.953125 9.375 13.019531 9.207031 C 13.125 8.917969 13.03125 8.339844 12.808594 7.96875 C 12.628906 7.660156 12.546875 7.597656 12.128906 7.453125 C 11.445312 7.21875 10.9375 7.269531 10.609375 7.605469 C 10.28125 7.949219 10.070312 8.484375 10.113281 8.878906 C 10.15625 9.28125 10.457031 9.664062 11.609375 10.753906 C 12.726562 11.816406 13.164062 12.402344 13.289062 13.007812 C 13.375 13.425781 13.359375 13.5 13.023438 14.359375 C 12.613281 15.40625 12.402344 15.640625 11.625 15.925781 C 11.085938 16.121094 10.753906 16.160156 9.992188 16.117188 C 9.25 16.074219 9.074219 16.179688 8.828125 16.804688 L 8.644531 17.28125 L 8.1875 17.125 L 7.734375 16.96875 L 7.945312 16.4375 Z M 7.945312 16.433594 "/>
</g>
</svg>
