
<svg xmlns="http://www.w3.org/2000/svg" xmlns:xlink="http://www.w3.org/1999/xlink" width="22px" height="22px" viewBox="0 0 22 22" version="1.1">
<g id="surface1">
<path style=" stroke:none;fill-rule:nonzero;fill:rgb(30.588235%,31.764706%,27.058824%);fill-opacity:1;" d="M 4.535156 19.851562 C 21.074219 30.851562 31.261719 -4.214844 9.882812 0.425781 C 1.042969 2.40625 -4.316406 14.8125 4.535156 19.851562 Z M 4.535156 19.851562 "/>
<path style=" stroke:none;fill-rule:nonzero;fill:rgb(50.196078%,70.196078%,26.27451%);fill-opacity:1;" d="M 11.042969 5.199219 L 5.820312 8.140625 L 5.820312 13.179688 L 7.996094 14.414062 C 8.816406 14.867188 9.738281 14.15625 9.738281 13.601562 L 9.738281 8.558594 L 8.867188 8.558594 L 8.867188 13.179688 C 8.867188 13.589844 8.5 13.78125 8.039062 13.535156 C 8.027344 13.527344 8.011719 13.53125 7.996094 13.523438 L 6.691406 12.761719 L 6.691406 8.558594 L 11.042969 6.039062 L 15.394531 8.558594 L 15.394531 12.761719 L 11.042969 15.28125 L 9.984375 14.664062 L 9.085938 15.019531 L 11.042969 16.121094 L 16.265625 13.179688 L 16.265625 8.140625 Z M 12.351562 8.558594 C 11.042969 8.558594 10.175781 8.980469 10.175781 9.820312 C 10.175781 10.660156 11.042969 11.082031 12.351562 11.082031 C 12.785156 11.082031 13.65625 11.082031 13.65625 11.5 C 13.65625 11.921875 13.21875 12.128906 12.351562 12.128906 C 11.480469 12.128906 11.042969 11.753906 11.042969 11.5 L 10.175781 11.5 C 10.175781 12.339844 11.042969 12.761719 12.351562 12.761719 C 13.65625 12.761719 14.523438 12.339844 14.523438 11.5 C 14.523438 10.660156 13.21875 10.242188 12.351562 10.242188 C 11.914062 10.242188 11.042969 10.242188 11.042969 9.820312 C 11.042969 9.398438 11.480469 9.191406 12.351562 9.191406 C 13.21875 9.191406 13.65625 9.582031 13.65625 9.820312 L 14.523438 9.820312 C 14.523438 8.980469 13.65625 8.558594 12.351562 8.558594 Z M 12.351562 8.558594 "/>
</g>
</svg>
