
<svg xmlns="http://www.w3.org/2000/svg" xmlns:xlink="http://www.w3.org/1999/xlink" width="22px" height="22px" viewBox="0 0 22 22" version="1.1">
<g id="surface1">
<path style=" stroke:none;fill-rule:nonzero;fill:rgb(67.843137%,84.705882%,90.196078%);fill-opacity:1;" d="M 2.894531 18.597656 C -9.582031 -0.441406 24.492188 -7.808594 21.78125 11.777344 C 20.671875 19.765625 7.667969 25.882812 2.894531 18.597656 Z M 2.894531 18.597656 "/>
<path style=" stroke:none;fill-rule:nonzero;fill:rgb(0.784314%,76.470588%,50.588235%);fill-opacity:1;" d="M 10.925781 17.363281 C 10.589844 17.335938 9.96875 17.179688 9.0625 16.90625 C 7.171875 16.339844 7.074219 16.324219 5.523438 16.285156 C 4.335938 16.253906 4.179688 16.238281 4.179688 16.152344 C 4.179688 16.09375 4.261719 15.835938 4.359375 15.578125 C 4.457031 15.316406 4.617188 14.777344 4.722656 14.382812 C 4.90625 13.664062 4.90625 13.648438 4.953125 11.578125 C 5.003906 9.335938 5.027344 9.113281 5.359375 8.175781 C 5.84375 6.792969 6.753906 5.621094 7.96875 4.808594 C 8.617188 4.375 9.179688 4.117188 9.972656 3.894531 C 10.480469 3.753906 10.648438 3.738281 11.578125 3.738281 C 12.503906 3.738281 12.671875 3.753906 13.179688 3.894531 C 14.414062 4.242188 15.402344 4.824219 16.253906 5.714844 C 17.449219 6.960938 18.101562 8.492188 18.183594 10.230469 C 18.355469 13.863281 15.742188 16.992188 12.222656 17.367188 C 11.890625 17.402344 11.578125 17.425781 11.523438 17.421875 C 11.472656 17.417969 11.203125 17.390625 10.925781 17.363281 Z M 10.316406 14.105469 C 10.351562 14.058594 10.394531 13.210938 10.417969 12.097656 C 10.453125 10.429688 10.476562 10.132812 10.566406 9.914062 C 10.902344 9.125 11.976562 9.0625 12.300781 9.816406 C 12.417969 10.097656 12.421875 10.140625 12.355469 12.003906 C 12.296875 13.664062 12.300781 13.917969 12.375 14.039062 C 12.464844 14.179688 12.484375 14.179688 13.558594 14.179688 L 14.652344 14.179688 L 14.742188 14.03125 C 14.828125 13.898438 14.835938 13.609375 14.816406 11.5625 C 14.796875 9.410156 14.785156 9.21875 14.671875 8.867188 C 14.414062 8.074219 13.996094 7.574219 13.300781 7.234375 C 12.921875 7.046875 12.875 7.039062 12.167969 7.039062 C 11.382812 7.042969 10.96875 7.144531 10.578125 7.433594 C 10.347656 7.601562 10.332031 7.597656 10.332031 7.34375 C 10.332031 6.835938 10.234375 6.8125 9.03125 7.007812 C 8.625 7.074219 8.273438 7.132812 8.25 7.132812 C 8.230469 7.132812 8.167969 7.175781 8.121094 7.226562 C 8.035156 7.3125 8.027344 7.710938 8.027344 10.679688 C 8.027344 13.207031 8.042969 14.050781 8.097656 14.109375 C 8.199219 14.214844 10.238281 14.210938 10.316406 14.105469 Z M 10.316406 14.105469 "/>
<path style=" stroke:none;fill-rule:evenodd;fill:rgb(100%,100%,100%);fill-opacity:0.964706;" d="M 8.152344 13.960938 C 8.113281 13.871094 8.082031 12.335938 8.082031 10.554688 C 8.082031 7.933594 8.109375 7.296875 8.207031 7.234375 C 8.394531 7.121094 9.957031 6.910156 10.128906 6.976562 C 10.207031 7.007812 10.273438 7.132812 10.273438 7.253906 C 10.273438 7.589844 10.355469 7.605469 10.820312 7.359375 C 11.183594 7.167969 11.378906 7.132812 12.074219 7.132812 C 12.554688 7.132812 13.015625 7.183594 13.195312 7.261719 C 13.664062 7.453125 14.175781 7.949219 14.453125 8.472656 L 14.703125 8.949219 L 14.703125 14.074219 L 13.632812 14.101562 C 12.769531 14.125 12.542969 14.101562 12.460938 13.988281 C 12.390625 13.898438 12.371094 13.210938 12.398438 11.847656 L 12.441406 9.84375 L 12.160156 9.5625 C 11.679688 9.082031 10.878906 9.226562 10.546875 9.851562 C 10.488281 9.957031 10.414062 10.902344 10.375 11.96875 C 10.339844 13.03125 10.277344 13.949219 10.238281 14.011719 C 10.191406 14.085938 9.855469 14.121094 9.195312 14.121094 C 8.351562 14.121094 8.207031 14.101562 8.152344 13.960938 Z M 8.152344 13.960938 "/>
</g>
</svg>
