
<svg xmlns="http://www.w3.org/2000/svg" xmlns:xlink="http://www.w3.org/1999/xlink" width="22px" height="22px" viewBox="0 0 22 22" version="1.1">
<g id="surface1">
<path style=" stroke:none;fill-rule:nonzero;fill:rgb(43.921569%,50.196078%,56.470588%);fill-opacity:1;" d="M 5.152344 19.707031 C 13.316406 26.964844 25.878906 15.515625 20.796875 5.933594 C 15.664062 -3.753906 -1.332031 -1.171875 0.113281 10.726562 C 0.542969 14.265625 2.488281 17.339844 5.152344 19.707031 Z M 5.152344 19.707031 "/>
<path style=" stroke:none;fill-rule:evenodd;fill:rgb(100%,100%,100%);fill-opacity:0.988235;" d="M 18.445312 12.539062 L 18.300781 12.402344 L 18.25 12.460938 C 18.226562 12.492188 18.191406 12.511719 18.175781 12.503906 C 18.164062 12.492188 18.121094 12.503906 18.089844 12.527344 C 18.035156 12.5625 18.015625 12.5625 17.972656 12.53125 C 17.917969 12.496094 17.816406 12.488281 17.78125 12.523438 C 17.769531 12.535156 17.734375 12.515625 17.703125 12.484375 C 17.667969 12.453125 17.621094 12.433594 17.601562 12.441406 C 17.578125 12.453125 17.554688 12.445312 17.542969 12.433594 C 17.53125 12.417969 17.511719 12.414062 17.496094 12.429688 C 17.449219 12.460938 17.257812 12.453125 17.1875 12.414062 C 17.15625 12.394531 17.117188 12.386719 17.101562 12.394531 C 17.085938 12.402344 17.046875 12.390625 17.011719 12.367188 C 16.957031 12.332031 16.941406 12.332031 16.898438 12.363281 C 16.851562 12.398438 16.835938 12.390625 16.730469 12.296875 C 16.664062 12.242188 16.597656 12.203125 16.582031 12.210938 C 16.5625 12.222656 16.53125 12.230469 16.503906 12.234375 C 16.476562 12.234375 16.441406 12.25 16.425781 12.265625 C 16.402344 12.289062 16.351562 12.257812 16.222656 12.136719 L 16.050781 11.976562 L 16.003906 12.035156 C 15.972656 12.074219 15.941406 12.085938 15.917969 12.070312 C 15.898438 12.058594 15.855469 12.046875 15.828125 12.039062 C 15.796875 12.035156 15.746094 12.03125 15.714844 12.023438 C 15.683594 12.019531 15.582031 11.945312 15.492188 11.863281 C 15.335938 11.714844 15.324219 11.710938 15.265625 11.75 C 15.207031 11.789062 15.191406 11.777344 14.890625 11.492188 L 14.574219 11.191406 L 14.683594 11.074219 L 14.632812 11.023438 C 14.589844 10.988281 14.585938 10.96875 14.605469 10.941406 C 14.625 10.917969 14.625 10.902344 14.605469 10.890625 C 14.582031 10.875 14.582031 10.863281 14.605469 10.835938 C 14.625 10.808594 14.625 10.796875 14.605469 10.785156 C 14.585938 10.773438 14.640625 10.695312 14.738281 10.59375 C 14.832031 10.488281 14.890625 10.402344 14.882812 10.386719 C 14.839844 10.320312 14.859375 10.226562 14.933594 10.136719 C 14.976562 10.085938 14.996094 10.042969 14.976562 10.042969 C 14.953125 10.042969 14.953125 10.035156 14.980469 10.003906 C 15.003906 9.972656 15.003906 9.953125 14.984375 9.925781 C 14.96875 9.90625 14.960938 9.882812 14.972656 9.875 C 14.980469 9.863281 14.96875 9.832031 14.945312 9.796875 C 14.921875 9.761719 14.910156 9.691406 14.914062 9.636719 C 14.921875 9.546875 14.90625 9.523438 14.789062 9.414062 C 14.660156 9.292969 14.65625 9.292969 14.589844 9.335938 C 14.523438 9.378906 14.519531 9.378906 14.449219 9.3125 C 14.375 9.25 14.367188 9.246094 13.972656 9.25 C 13.75 9.25 13.554688 9.261719 13.539062 9.273438 C 13.519531 9.285156 13.496094 9.28125 13.488281 9.265625 C 13.476562 9.246094 13.460938 9.246094 13.433594 9.265625 C 13.414062 9.28125 13.394531 9.285156 13.382812 9.269531 C 13.371094 9.25 13.113281 9.246094 13.074219 9.265625 C 13.039062 9.28125 12.976562 9.277344 12.945312 9.257812 C 12.925781 9.242188 12.898438 9.242188 12.875 9.261719 C 12.851562 9.28125 12.832031 9.28125 12.8125 9.265625 C 12.796875 9.246094 12.769531 9.253906 12.738281 9.289062 C 12.695312 9.339844 12.6875 9.339844 12.628906 9.300781 C 12.570312 9.261719 12.558594 9.261719 12.488281 9.308594 C 12.449219 9.335938 12.402344 9.359375 12.386719 9.359375 C 12.375 9.359375 12.347656 9.371094 12.328125 9.382812 C 12.308594 9.394531 12.277344 9.390625 12.253906 9.375 C 12.226562 9.351562 12.214844 9.351562 12.199219 9.371094 C 12.1875 9.394531 12.171875 9.394531 12.148438 9.375 C 12.128906 9.359375 12.105469 9.355469 12.09375 9.367188 C 12.082031 9.378906 12.023438 9.390625 11.964844 9.390625 C 11.761719 9.40625 11.710938 9.414062 11.6875 9.433594 C 11.675781 9.445312 11.652344 9.441406 11.632812 9.425781 C 11.609375 9.40625 11.59375 9.40625 11.582031 9.425781 C 11.570312 9.449219 11.554688 9.449219 11.527344 9.425781 C 11.503906 9.40625 11.488281 9.40625 11.472656 9.425781 C 11.460938 9.449219 11.449219 9.449219 11.421875 9.425781 C 11.394531 9.40625 11.382812 9.40625 11.367188 9.425781 C 11.355469 9.449219 11.339844 9.449219 11.3125 9.425781 C 11.289062 9.40625 11.273438 9.40625 11.257812 9.425781 C 11.246094 9.449219 11.230469 9.449219 11.203125 9.425781 C 11.175781 9.402344 11.15625 9.402344 11.128906 9.425781 C 11.101562 9.449219 11.085938 9.449219 11.070312 9.425781 C 11.058594 9.40625 11.042969 9.40625 11.023438 9.425781 C 11 9.445312 10.976562 9.441406 10.957031 9.421875 C 10.9375 9.402344 10.832031 9.390625 10.703125 9.390625 C 10.582031 9.386719 10.464844 9.375 10.449219 9.367188 C 10.433594 9.355469 10.410156 9.359375 10.398438 9.375 C 10.386719 9.394531 10.371094 9.394531 10.347656 9.371094 C 10.320312 9.351562 10.308594 9.351562 10.300781 9.378906 C 10.289062 9.40625 10.28125 9.40625 10.246094 9.378906 C 10.214844 9.351562 10.199219 9.351562 10.183594 9.375 C 10.171875 9.394531 10.148438 9.386719 10.109375 9.351562 C 10.011719 9.265625 9.984375 9.257812 9.929688 9.308594 C 9.878906 9.351562 9.875 9.351562 9.824219 9.304688 C 9.796875 9.28125 9.753906 9.265625 9.734375 9.273438 C 9.710938 9.28125 9.683594 9.277344 9.667969 9.261719 C 9.652344 9.246094 9.625 9.257812 9.597656 9.289062 C 9.550781 9.339844 9.542969 9.339844 9.480469 9.300781 C 9.402344 9.25 9.292969 9.230469 9.269531 9.269531 C 9.257812 9.285156 9.242188 9.285156 9.21875 9.265625 C 9.195312 9.242188 9.179688 9.242188 9.164062 9.265625 C 9.152344 9.285156 9.136719 9.285156 9.109375 9.265625 C 9.085938 9.242188 9.070312 9.242188 9.058594 9.265625 C 9.046875 9.285156 9.027344 9.285156 9 9.261719 C 8.976562 9.242188 8.871094 9.226562 8.742188 9.226562 C 8.617188 9.226562 8.507812 9.214844 8.488281 9.203125 C 8.472656 9.195312 8.449219 9.195312 8.441406 9.214844 C 8.425781 9.234375 8.410156 9.234375 8.386719 9.210938 C 8.363281 9.195312 8.34375 9.191406 8.335938 9.207031 C 8.3125 9.242188 8.21875 9.230469 8.136719 9.1875 C 8.089844 9.164062 8.066406 9.164062 8.015625 9.191406 C 7.933594 9.234375 7.859375 9.238281 7.796875 9.195312 C 7.757812 9.167969 7.734375 9.167969 7.691406 9.191406 C 7.625 9.230469 7.40625 9.238281 7.363281 9.207031 C 7.34375 9.191406 7.324219 9.195312 7.3125 9.210938 C 7.304688 9.222656 7.277344 9.230469 7.253906 9.21875 C 7.191406 9.195312 6.667969 9.738281 6.707031 9.789062 C 6.730469 9.816406 6.730469 9.828125 6.707031 9.84375 C 6.6875 9.855469 6.6875 9.871094 6.703125 9.890625 C 6.71875 9.910156 6.726562 9.992188 6.722656 10.070312 C 6.714844 10.214844 6.71875 10.222656 6.847656 10.355469 C 6.9375 10.445312 6.972656 10.5 6.949219 10.511719 C 6.929688 10.527344 6.929688 10.542969 6.949219 10.570312 C 6.972656 10.59375 6.972656 10.609375 6.949219 10.621094 C 6.929688 10.632812 6.929688 10.652344 6.949219 10.679688 C 6.96875 10.699219 6.972656 10.722656 6.964844 10.738281 C 6.957031 10.753906 7.007812 10.828125 7.082031 10.910156 L 7.214844 11.054688 L 6.808594 11.460938 C 6.4375 11.828125 6.394531 11.863281 6.34375 11.835938 C 6.238281 11.773438 6.167969 11.796875 6.007812 11.945312 C 5.921875 12.023438 5.835938 12.082031 5.820312 12.074219 C 5.804688 12.0625 5.777344 12.066406 5.757812 12.085938 C 5.730469 12.105469 5.714844 12.105469 5.699219 12.085938 C 5.6875 12.0625 5.671875 12.0625 5.648438 12.085938 C 5.621094 12.105469 5.605469 12.105469 5.59375 12.085938 C 5.582031 12.066406 5.546875 12.082031 5.488281 12.132812 C 5.414062 12.203125 5.390625 12.210938 5.25 12.207031 C 5.117188 12.203125 5.078125 12.210938 5.015625 12.265625 C 4.976562 12.296875 4.9375 12.316406 4.925781 12.308594 C 4.917969 12.300781 4.894531 12.308594 4.871094 12.324219 C 4.84375 12.347656 4.828125 12.347656 4.8125 12.328125 C 4.804688 12.3125 4.777344 12.304688 4.757812 12.3125 C 4.738281 12.320312 4.714844 12.3125 4.703125 12.296875 C 4.695312 12.28125 4.652344 12.304688 4.597656 12.355469 C 4.511719 12.441406 4.507812 12.441406 4.453125 12.394531 C 4.40625 12.351562 4.394531 12.351562 4.355469 12.382812 C 4.332031 12.402344 4.246094 12.417969 4.160156 12.421875 C 4.078125 12.421875 3.996094 12.433594 3.976562 12.441406 C 3.960938 12.453125 3.9375 12.453125 3.929688 12.4375 C 3.910156 12.40625 3.769531 12.414062 3.722656 12.453125 C 3.675781 12.488281 3.527344 12.480469 3.476562 12.4375 C 3.457031 12.421875 3.414062 12.417969 3.390625 12.425781 C 3.351562 12.4375 3.34375 12.433594 3.359375 12.398438 C 3.371094 12.371094 3.355469 12.332031 3.324219 12.292969 C 3.289062 12.253906 3.28125 12.226562 3.296875 12.207031 C 3.316406 12.183594 3.308594 12.160156 3.269531 12.125 C 3.230469 12.089844 3.222656 12.070312 3.246094 12.042969 C 3.261719 12.023438 3.265625 11.992188 3.253906 11.972656 C 3.242188 11.953125 3.230469 11.894531 3.226562 11.835938 C 3.226562 11.78125 3.210938 11.71875 3.191406 11.699219 C 3.167969 11.671875 3.171875 11.65625 3.203125 11.628906 C 3.242188 11.597656 3.242188 11.480469 3.207031 11.421875 C 3.199219 11.40625 3.203125 11.382812 3.21875 11.375 C 3.238281 11.363281 3.238281 11.34375 3.21875 11.320312 C 3.195312 11.292969 3.195312 11.28125 3.21875 11.265625 C 3.234375 11.257812 3.242188 11.230469 3.230469 11.207031 C 3.222656 11.183594 3.234375 11.136719 3.257812 11.105469 C 3.28125 11.0625 3.289062 11.035156 3.269531 11.023438 C 3.25 11.011719 3.25 10.996094 3.269531 10.972656 C 3.292969 10.945312 3.289062 10.929688 3.269531 10.917969 C 3.25 10.90625 3.265625 10.867188 3.324219 10.808594 C 3.378906 10.753906 3.398438 10.714844 3.378906 10.703125 C 3.355469 10.691406 3.355469 10.675781 3.378906 10.648438 C 3.394531 10.628906 3.394531 10.609375 3.382812 10.597656 C 3.320312 10.558594 3.367188 10.421875 3.476562 10.308594 C 3.578125 10.203125 3.585938 10.179688 3.582031 10.085938 C 3.574219 10.027344 3.585938 9.953125 3.609375 9.921875 C 3.628906 9.890625 3.636719 9.859375 3.628906 9.847656 C 3.601562 9.820312 3.699219 9.722656 3.738281 9.738281 C 3.757812 9.746094 3.8125 9.71875 3.855469 9.683594 C 3.902344 9.644531 3.953125 9.621094 3.96875 9.628906 C 3.984375 9.640625 4.019531 9.625 4.050781 9.601562 C 4.078125 9.578125 4.113281 9.5625 4.128906 9.574219 C 4.144531 9.582031 4.324219 9.425781 4.546875 9.210938 C 4.929688 8.832031 4.9375 8.828125 4.988281 8.875 C 5.039062 8.921875 5.046875 8.921875 5.09375 8.878906 C 5.125 8.851562 5.160156 8.839844 5.175781 8.847656 C 5.1875 8.855469 5.277344 8.792969 5.371094 8.707031 C 5.546875 8.546875 5.636719 8.519531 5.726562 8.59375 C 5.765625 8.625 5.792969 8.609375 5.929688 8.476562 C 6.019531 8.382812 6.097656 8.328125 6.117188 8.339844 C 6.132812 8.351562 6.167969 8.335938 6.199219 8.3125 C 6.246094 8.269531 6.253906 8.269531 6.316406 8.308594 C 6.382812 8.355469 6.386719 8.351562 6.519531 8.226562 C 6.628906 8.117188 6.660156 8.101562 6.695312 8.128906 C 6.757812 8.175781 6.90625 8.15625 6.980469 8.089844 C 7.019531 8.050781 7.046875 8.039062 7.070312 8.058594 C 7.09375 8.078125 7.117188 8.066406 7.152344 8.03125 C 7.195312 7.984375 7.203125 7.984375 7.261719 8.023438 C 7.324219 8.058594 7.332031 8.058594 7.378906 8.019531 C 7.414062 7.988281 7.433594 7.980469 7.445312 8.003906 C 7.460938 8.023438 7.496094 8.007812 7.558594 7.949219 C 7.644531 7.863281 7.648438 7.863281 7.699219 7.90625 C 7.746094 7.949219 7.757812 7.949219 7.816406 7.910156 C 7.851562 7.886719 7.886719 7.875 7.894531 7.882812 C 7.90625 7.894531 7.941406 7.882812 7.980469 7.855469 C 8.035156 7.820312 8.058594 7.820312 8.105469 7.84375 C 8.136719 7.859375 8.167969 7.867188 8.179688 7.859375 C 8.1875 7.851562 8.210938 7.855469 8.230469 7.875 C 8.261719 7.898438 8.289062 7.886719 8.359375 7.820312 C 8.417969 7.757812 8.453125 7.742188 8.464844 7.761719 C 8.480469 7.78125 8.496094 7.78125 8.519531 7.761719 C 8.546875 7.742188 8.5625 7.742188 8.574219 7.761719 C 8.589844 7.78125 8.601562 7.78125 8.628906 7.761719 C 8.652344 7.742188 8.667969 7.742188 8.679688 7.761719 C 8.691406 7.777344 8.722656 7.773438 8.765625 7.746094 C 8.800781 7.71875 8.839844 7.710938 8.847656 7.71875 C 8.855469 7.726562 8.878906 7.722656 8.898438 7.707031 C 8.917969 7.691406 8.949219 7.6875 8.96875 7.699219 C 9.03125 7.738281 9.109375 7.730469 9.167969 7.675781 C 9.207031 7.640625 9.234375 7.632812 9.246094 7.652344 C 9.257812 7.675781 9.273438 7.675781 9.296875 7.65625 C 9.324219 7.636719 9.34375 7.644531 9.378906 7.679688 C 9.433594 7.738281 9.535156 7.730469 9.617188 7.660156 C 9.65625 7.625 9.667969 7.625 9.714844 7.667969 C 9.769531 7.714844 9.835938 7.699219 9.90625 7.613281 C 9.933594 7.578125 9.945312 7.578125 10 7.628906 C 10.039062 7.667969 10.066406 7.675781 10.078125 7.65625 C 10.09375 7.632812 10.105469 7.632812 10.136719 7.65625 C 10.164062 7.683594 10.183594 7.679688 10.226562 7.644531 C 10.253906 7.617188 10.289062 7.605469 10.304688 7.613281 C 10.324219 7.625 10.351562 7.621094 10.371094 7.605469 C 10.398438 7.582031 10.417969 7.585938 10.453125 7.625 C 10.488281 7.667969 10.511719 7.671875 10.535156 7.652344 C 10.558594 7.632812 10.574219 7.632812 10.589844 7.65625 C 10.601562 7.675781 10.628906 7.667969 10.667969 7.628906 C 10.726562 7.574219 10.726562 7.574219 10.773438 7.625 C 10.828125 7.683594 10.917969 7.683594 11.011719 7.621094 C 11.074219 7.578125 11.082031 7.582031 11.152344 7.65625 L 11.230469 7.734375 L 11.289062 7.679688 C 11.328125 7.640625 11.355469 7.632812 11.367188 7.652344 C 11.382812 7.675781 11.394531 7.675781 11.425781 7.652344 C 11.453125 7.628906 11.472656 7.628906 11.5 7.652344 C 11.527344 7.675781 11.542969 7.675781 11.554688 7.652344 C 11.570312 7.632812 11.582031 7.632812 11.609375 7.652344 C 11.636719 7.675781 11.648438 7.675781 11.664062 7.652344 C 11.675781 7.632812 11.691406 7.632812 11.714844 7.652344 C 11.742188 7.675781 11.757812 7.675781 11.773438 7.652344 C 11.785156 7.632812 11.808594 7.644531 11.851562 7.679688 C 11.890625 7.71875 11.917969 7.730469 11.929688 7.710938 C 11.945312 7.6875 11.960938 7.6875 11.988281 7.710938 C 12.007812 7.726562 12.039062 7.730469 12.058594 7.71875 C 12.109375 7.6875 12.195312 7.683594 12.230469 7.710938 C 12.25 7.730469 12.269531 7.726562 12.28125 7.707031 C 12.292969 7.6875 12.308594 7.6875 12.332031 7.707031 C 12.359375 7.730469 12.375 7.730469 12.386719 7.710938 C 12.398438 7.691406 12.421875 7.691406 12.460938 7.71875 C 12.488281 7.742188 12.53125 7.753906 12.550781 7.742188 C 12.574219 7.734375 12.605469 7.742188 12.625 7.757812 C 12.644531 7.777344 12.667969 7.78125 12.675781 7.773438 C 12.6875 7.761719 12.734375 7.789062 12.785156 7.828125 C 12.875 7.894531 12.875 7.894531 12.925781 7.84375 C 12.960938 7.804688 12.980469 7.796875 13.007812 7.816406 C 13.03125 7.835938 13.046875 7.835938 13.058594 7.816406 C 13.074219 7.796875 13.097656 7.800781 13.136719 7.839844 C 13.191406 7.890625 13.273438 7.898438 13.335938 7.859375 C 13.355469 7.847656 13.386719 7.851562 13.40625 7.867188 C 13.433594 7.890625 13.449219 7.890625 13.460938 7.871094 C 13.472656 7.851562 13.511719 7.867188 13.5625 7.910156 C 13.605469 7.949219 13.660156 7.972656 13.679688 7.964844 C 13.699219 7.957031 13.722656 7.964844 13.730469 7.980469 C 13.742188 7.996094 13.761719 7.996094 13.789062 7.972656 C 13.8125 7.949219 13.835938 7.949219 13.859375 7.972656 C 13.878906 7.992188 13.902344 7.996094 13.914062 7.988281 C 13.921875 7.976562 13.96875 8.003906 14.023438 8.042969 C 14.082031 8.089844 14.121094 8.101562 14.132812 8.085938 C 14.148438 8.0625 14.160156 8.0625 14.1875 8.085938 C 14.214844 8.105469 14.226562 8.105469 14.242188 8.085938 C 14.253906 8.0625 14.269531 8.066406 14.300781 8.089844 C 14.335938 8.117188 14.347656 8.117188 14.355469 8.089844 C 14.359375 8.074219 14.378906 8.066406 14.398438 8.078125 C 14.414062 8.089844 14.453125 8.097656 14.480469 8.097656 C 14.515625 8.097656 14.53125 8.113281 14.527344 8.136719 C 14.523438 8.15625 14.542969 8.195312 14.566406 8.222656 C 14.605469 8.265625 14.617188 8.265625 14.664062 8.234375 C 14.695312 8.210938 14.734375 8.203125 14.75 8.207031 C 14.769531 8.214844 14.792969 8.207031 14.804688 8.191406 C 14.816406 8.175781 14.867188 8.207031 14.945312 8.273438 C 15.011719 8.332031 15.078125 8.375 15.089844 8.363281 C 15.101562 8.359375 15.144531 8.371094 15.179688 8.398438 C 15.242188 8.4375 15.253906 8.4375 15.296875 8.398438 C 15.339844 8.359375 15.351562 8.363281 15.433594 8.4375 C 15.503906 8.492188 15.535156 8.507812 15.5625 8.484375 C 15.582031 8.464844 15.597656 8.464844 15.597656 8.476562 C 15.601562 8.488281 15.605469 8.519531 15.605469 8.542969 C 15.609375 8.5625 15.628906 8.582031 15.65625 8.582031 C 15.679688 8.582031 15.722656 8.601562 15.75 8.628906 C 15.800781 8.675781 15.804688 8.671875 15.851562 8.621094 C 15.894531 8.574219 15.902344 8.574219 15.960938 8.609375 C 15.992188 8.632812 16.03125 8.648438 16.046875 8.640625 C 16.0625 8.636719 16.152344 8.703125 16.246094 8.785156 C 16.390625 8.914062 16.429688 8.9375 16.511719 8.929688 C 16.5625 8.925781 16.628906 8.9375 16.65625 8.953125 C 16.6875 8.96875 16.726562 8.980469 16.742188 8.980469 C 16.761719 8.984375 16.941406 9.140625 17.144531 9.328125 C 17.488281 9.652344 17.511719 9.667969 17.558594 9.625 C 17.625 9.566406 17.65625 9.589844 17.941406 9.878906 C 18.15625 10.09375 18.175781 10.125 18.152344 10.175781 C 18.109375 10.25 18.105469 10.25 18.265625 10.417969 C 18.414062 10.570312 18.429688 10.621094 18.367188 10.738281 C 18.332031 10.796875 18.339844 10.8125 18.441406 10.917969 C 18.515625 10.992188 18.542969 11.039062 18.523438 11.050781 C 18.503906 11.0625 18.503906 11.082031 18.519531 11.101562 C 18.53125 11.117188 18.542969 11.15625 18.542969 11.1875 C 18.542969 11.214844 18.53125 11.253906 18.519531 11.269531 C 18.503906 11.289062 18.503906 11.308594 18.523438 11.320312 C 18.539062 11.332031 18.546875 11.359375 18.539062 11.382812 C 18.527344 11.40625 18.550781 11.453125 18.59375 11.5 C 18.664062 11.570312 18.664062 11.578125 18.625 11.625 C 18.570312 11.679688 18.578125 11.796875 18.640625 11.867188 C 18.683594 11.910156 18.679688 11.921875 18.605469 11.992188 C 18.542969 12.050781 18.53125 12.074219 18.554688 12.105469 C 18.578125 12.132812 18.570312 12.15625 18.527344 12.203125 C 18.484375 12.246094 18.476562 12.273438 18.496094 12.289062 C 18.519531 12.300781 18.519531 12.316406 18.5 12.339844 C 18.476562 12.363281 18.5 12.398438 18.578125 12.472656 C 18.667969 12.5625 18.675781 12.582031 18.648438 12.625 C 18.632812 12.65625 18.613281 12.675781 18.605469 12.675781 C 18.597656 12.675781 18.523438 12.613281 18.445312 12.539062 Z M 18.445312 12.539062 "/>
</g>
</svg>
