
<svg xmlns="http://www.w3.org/2000/svg" xmlns:xlink="http://www.w3.org/1999/xlink" width="22px" height="22px" viewBox="0 0 22 22" version="1.1">
<g id="surface1">
<path style=" stroke:none;fill-rule:nonzero;fill:rgb(20.784314%,20.784314%,20.784314%);fill-opacity:1;" d="M 19.441406 18.183594 C 24.792969 9.953125 20.476562 2.457031 14.414062 0.679688 C 6.265625 -1.714844 -4.796875 4.574219 2.492188 17.53125 C 5.390625 22.679688 15.628906 24.042969 19.441406 18.183594 Z M 19.441406 18.183594 "/>
<path style=" stroke:none;fill-rule:nonzero;fill:rgb(0%,0%,0%);fill-opacity:0.0980392;" d="M 10.089844 5.664062 L 10.089844 6.988281 L 5.75 9.417969 L 6.894531 10.277344 L 6.894531 15.292969 L 8.269531 14.589844 L 12.832031 17.152344 L 12.832031 15.828125 L 17.171875 13.441406 L 16.03125 12.5625 L 16.03125 7.542969 L 14.660156 8.183594 Z M 11.402344 7.722656 L 14.660156 9.550781 L 14.660156 13.324219 L 11.527344 15.070312 L 8.265625 13.175781 L 8.261719 9.5 Z M 11.402344 7.722656 "/>
<path style=" stroke:none;fill-rule:nonzero;fill:rgb(91.372549%,26.27451%,27.45098%);fill-opacity:1;" d="M 14.203125 12.898438 L 14.203125 7.742188 L 15.574219 7.105469 L 15.574219 12.121094 Z M 14.203125 12.898438 "/>
<path style=" stroke:none;fill-rule:nonzero;fill:rgb(66.27451%,38.039216%,67.843137%);fill-opacity:1;" d="M 11.023438 14.652344 L 15.574219 12.117188 L 16.714844 13 L 12.375 15.382812 Z M 11.023438 14.652344 "/>
<path style=" stroke:none;fill-rule:nonzero;fill:rgb(40.392157%,79.215686%,37.647059%);fill-opacity:1;" d="M 7.804688 8.976562 L 7.8125 14.148438 L 6.4375 14.851562 L 6.4375 9.835938 Z M 7.804688 8.976562 "/>
<path style=" stroke:none;fill-rule:nonzero;fill:rgb(95.686275%,88.235294%,20.392157%);fill-opacity:1;" d="M 10.988281 7.257812 L 6.4375 9.835938 L 5.292969 8.976562 L 9.632812 6.546875 "/>
<path style=" stroke:none;fill-rule:nonzero;fill:rgb(94.509804%,61.960784%,27.058824%);fill-opacity:1;" d="M 14.203125 9.109375 L 9.632812 6.546875 L 9.632812 5.21875 L 14.203125 7.742188 Z M 14.203125 9.109375 "/>
<path style=" stroke:none;fill-rule:nonzero;fill:rgb(45.882353%,61.960784%,81.960784%);fill-opacity:1;" d="M 7.804688 12.734375 L 12.375 15.382812 L 12.375 16.710938 L 7.8125 14.148438 Z M 7.804688 12.734375 "/>
</g>
</svg>
