
<svg xmlns="http://www.w3.org/2000/svg" xmlns:xlink="http://www.w3.org/1999/xlink" width="22px" height="22px" viewBox="0 0 22 22" version="1.1">
<defs>
<linearGradient id="linear0" gradientUnits="userSpaceOnUse" x1="406.57" y1="517.8" x2="425.57" y2="536.8" gradientTransform="matrix(0.417154,0,0,0.364956,-160.027656,-180.598516)">
<stop offset="0" style="stop-color:rgb(16.078431%,17.254902%,18.431373%);stop-opacity:0.4;"/>
<stop offset="1" style="stop-color:rgb(0%,0%,0%);stop-opacity:0;"/>
</linearGradient>
<linearGradient id="linear1" gradientUnits="userSpaceOnUse" x1="0" y1="530.8" x2="0" y2="516.8" gradientTransform="matrix(0.417154,0,0,0.364956,-160.027656,-180.598516)">
<stop offset="0" style="stop-color:rgb(61.960784%,82.745098%,98.431373%);stop-opacity:1;"/>
<stop offset="1" style="stop-color:rgb(93.72549%,98.039216%,100%);stop-opacity:1;"/>
</linearGradient>
</defs>
<g id="surface1">
<path style=" stroke:none;fill-rule:nonzero;fill:rgb(52.941176%,80.784314%,98.039216%);fill-opacity:1;" d="M 2.148438 17.464844 C -8.851562 0.925781 26.214844 -9.261719 21.574219 12.117188 C 19.59375 20.957031 7.1875 26.320312 2.148438 17.464844 Z M 2.148438 17.464844 "/>
<path style=" stroke:none;fill-rule:nonzero;fill:rgb(11.372549%,60%,95.294118%);fill-opacity:1;" d="M 7.070312 7.648438 L 13.746094 7.648438 C 15.589844 7.648438 17.082031 8.953125 17.082031 10.566406 C 17.082031 12.179688 15.589844 13.484375 13.746094 13.484375 L 7.070312 13.484375 C 5.230469 13.484375 3.734375 12.179688 3.734375 10.566406 C 3.734375 8.953125 5.230469 7.648438 7.070312 7.648438 Z M 7.070312 7.648438 "/>
<path style=" stroke:none;fill-rule:evenodd;fill:url(#linear0);" d="M 11.660156 12.390625 L 17.917969 17.863281 L 18.753906 17.863281 L 18.753906 11.296875 L 15.414062 8.375 Z M 11.660156 12.390625 "/>
<path style=" stroke:none;fill-rule:nonzero;fill:url(#linear1);" d="M 13.789062 8.011719 C 15.402344 8.011719 16.707031 9.152344 16.707031 10.566406 C 16.707031 11.976562 15.402344 13.121094 13.789062 13.121094 C 12.175781 13.121094 10.867188 11.976562 10.867188 10.566406 C 10.867188 9.152344 12.175781 8.011719 13.789062 8.011719 Z M 13.789062 8.011719 "/>
<path style=" stroke:none;fill-rule:nonzero;fill:rgb(10.588235%,51.372549%,80.784314%);fill-opacity:0.117647;" d="M 15.230469 8.773438 C 15.605469 9.15625 15.832031 9.652344 15.832031 10.199219 C 15.832031 11.414062 14.714844 12.390625 13.328125 12.390625 C 12.792969 12.390625 12.296875 12.242188 11.886719 11.988281 C 12.347656 12.457031 13.027344 12.753906 13.789062 12.753906 C 15.175781 12.753906 16.289062 11.777344 16.289062 10.566406 C 16.289062 9.820312 15.871094 9.167969 15.230469 8.773438 Z M 15.230469 8.773438 "/>
</g>
</svg>
