
<svg xmlns="http://www.w3.org/2000/svg" xmlns:xlink="http://www.w3.org/1999/xlink" width="22px" height="22px" viewBox="0 0 22 22" version="1.1">
<g id="surface1">
<path style=" stroke:none;fill-rule:nonzero;fill:rgb(0%,50.196078%,0%);fill-opacity:1;" d="M 19.554688 4.03125 C 29.75 17.226562 4.363281 30.925781 0.648438 14.589844 C -3.15625 4.300781 12 -5.75 19.554688 4.03125 Z M 19.554688 4.03125 "/>
<path style="fill-rule:evenodd;fill:rgb(98.039216%,98.039216%,82.352941%);fill-opacity:1;stroke-width:0.857297;stroke-linecap:butt;stroke-linejoin:miter;stroke:rgb(98.039216%,98.039216%,82.352941%);stroke-opacity:1;stroke-miterlimit:4;" d="M 7.100168 192.02298 C 4.054152 189.375378 -2.18293 183.656559 -6.727781 179.314493 L -14.947191 171.318737 L -3.730113 159.987004 C 7.293566 148.867078 12.950455 143.730731 13.530648 144.313204 C 13.724046 144.47206 14.062492 148.072798 14.352589 152.30896 C 14.981132 160.887188 15.126181 161.046044 20.541322 158.822059 C 29.485974 155.062465 32.241894 146.166525 27.406947 136.582208 C 26.149861 134.093463 25.27957 131.869477 25.472968 131.657669 C 27.11685 130.016157 36.206551 137.058776 38.672374 141.87741 C 42.588681 149.608406 42.105187 159.457483 37.511987 167.294383 C 33.305583 174.337003 26.778404 179.102685 18.704042 180.956006 C 14.207541 182.015047 13.965793 182.491615 13.965793 190.540323 C 13.917444 193.505636 13.627347 196.100286 13.288901 196.312094 C 12.902105 196.523902 10.146185 194.617629 7.100168 192.02298 Z M 7.100168 192.02298 " transform="matrix(0.080792,0,0,0.0737696,14.375582,-1.18499)"/>
<path style="fill-rule:evenodd;fill:rgb(98.039216%,98.039216%,82.352941%);fill-opacity:1;stroke-width:0.857297;stroke-linecap:butt;stroke-linejoin:miter;stroke:rgb(98.039216%,98.039216%,82.352941%);stroke-opacity:1;stroke-miterlimit:4;" d="M 16.189869 76.53461 C 19.235886 79.182211 25.472968 84.848078 30.017818 89.243096 L 38.237229 97.238852 L 27.020151 108.570586 C 15.996471 119.690511 10.339583 124.826858 9.759389 124.244386 C 9.565991 124.08553 9.227545 120.484792 8.937448 116.24863 C 8.308905 107.670401 8.163857 107.511545 2.748716 109.73553 C -6.195937 113.495124 -8.951856 122.391065 -4.116909 131.975382 C -2.859823 134.464127 -1.989532 136.688112 -2.18293 136.89992 C -3.826812 138.541433 -12.916513 131.498813 -15.382336 126.680179 C -19.298644 118.949183 -18.815149 109.100106 -14.221949 101.263206 C -10.015545 94.220587 -3.488366 89.454904 4.585996 87.601583 C 9.082497 86.542543 9.324244 86.065974 9.324244 78.017266 C 9.372594 75.051953 9.66269 72.457304 10.001137 72.245495 C 10.387933 72.033687 13.143852 73.93996 16.189869 76.53461 Z M 16.189869 76.53461 " transform="matrix(0.080792,0,0,0.0737696,14.375582,-1.18499)"/>
<path style="fill-rule:evenodd;fill:rgb(98.039216%,98.039216%,82.352941%);fill-opacity:1;stroke-width:0.857297;stroke-linecap:butt;stroke-linejoin:miter;stroke:rgb(98.039216%,98.039216%,82.352941%);stroke-opacity:1;stroke-miterlimit:4;" d="M 100.27494 233.377425 C 90.54985 231.937961 84.547282 228.544938 76.450795 219.959563 C 66.679174 209.574857 63.51503 203.354315 62.212147 191.890011 C 60.769669 178.934833 63.282372 166.339522 69.28494 156.263273 C 72.681741 150.505416 81.290075 142.022859 87.153048 138.578427 C 94.318904 134.414263 100.507598 132.666342 109.674309 132.255066 C 118.841021 131.792381 124.238679 132.923389 132.567823 136.830506 C 138.430796 139.606616 145.736247 145.878567 150.3894 152.201927 C 153.972328 157.034414 158.765076 166.956435 158.253229 168.34449 C 157.787914 169.578316 145.922373 175.747448 135.592373 180.11725 C 126.193003 184.075777 115.676877 189.319539 110.977192 192.404105 C 105.998318 195.59149 103.532147 200.629615 103.485616 207.621298 C 103.439084 210.448817 103.811336 214.098887 104.276652 215.743989 C 105.43994 219.959563 109.022868 225.306144 112.187012 227.722387 C 115.118499 229.984402 118.561832 230.292859 128.612643 229.367489 L 133.312328 228.904804 L 129.589805 230.755544 C 123.214985 233.84011 110.698003 234.971118 100.27494 233.377425 Z M 81.057417 194.974577 C 82.406832 194.049207 84.733408 189.782224 84.733408 186.954705 C 84.733408 182.636313 81.429669 179.346109 78.172462 179.346109 C 76.078543 179.346109 73.426246 179.911613 72.123363 182.482084 C 70.494759 185.61806 70.634354 191.016051 72.402552 192.969609 C 73.938093 194.666121 78.777372 196.619679 81.057417 194.974577 Z M 91.713138 177.701007 C 93.90012 176.827047 96.31976 170.606505 95.203003 166.802207 C 94.551561 164.591601 92.178453 164.385963 90.87557 163.409184 C 87.385706 160.735893 82.96521 162.638042 82.174174 168.241671 C 81.801922 171.120599 81.988048 173.74248 83.290931 175.079126 C 84.919534 176.724228 89.433093 178.574967 91.713138 177.701007 Z M 105.765661 163.871869 C 107.161607 162.432405 110.00003 159.502067 109.906967 156.263273 C 109.813904 153.178706 106.882417 149.785684 104.83503 149.785684 C 103.532147 149.785684 98.227553 151.07092 97.436516 151.739242 C 95.761381 153.281525 95.016877 161.147169 96.64548 162.946499 C 98.227553 164.69442 104.090526 165.516971 105.765661 163.871869 Z M 105.765661 163.871869 " transform="matrix(0.0839485,0,0,0.0759831,-0.675738,0.900064)"/>
<path style="fill-rule:evenodd;fill:rgb(98.039216%,98.039216%,82.352941%);fill-opacity:1;stroke-width:0.857297;stroke-linecap:butt;stroke-linejoin:miter;stroke:rgb(98.039216%,98.039216%,82.352941%);stroke-opacity:1;stroke-miterlimit:4;" d="M 114.280931 210.397408 C 112.745391 209.369219 112.559264 208.700896 112.884985 205.924787 C 113.396832 201.246528 114.839309 199.498607 120.795346 196.362632 C 130.846157 191.06746 174.07395 175.59322 178.773635 175.59322 C 181.146743 175.59322 181.937779 176.004496 183.287193 177.906645 C 184.217824 179.191881 185.00886 181.453896 185.055391 182.944769 C 185.101923 185.155375 184.683139 185.926517 182.728815 187.263162 C 178.773635 189.936453 162.720256 196.876726 147.96976 202.274717 C 124.471337 210.860093 117.352012 212.556604 114.280931 210.397408 Z M 114.280931 210.397408 " transform="matrix(0.0839485,0,0,0.0759831,-0.675738,0.900064)"/>
<path style="fill-rule:evenodd;fill:rgb(98.039216%,98.039216%,82.352941%);fill-opacity:1;stroke-width:1.332867;stroke-linecap:butt;stroke-linejoin:miter;stroke:rgb(98.039216%,98.039216%,82.352941%);stroke-opacity:1;stroke-miterlimit:4;" d="M -98.011585 144.366156 C -102.749833 142.936451 -105.118957 138.117817 -103.03993 134.040511 C -101.154301 130.333869 -94.046928 126.203611 -86.697808 124.403242 L -81.379366 123.185345 L -80.557425 115.242541 C -80.12228 110.847523 -79.735484 103.646047 -79.735484 99.251029 C -79.735484 94.856011 -79.348689 88.766528 -78.913543 85.748262 L -78.091602 80.294204 L -68.953552 78.599739 C -63.925207 77.646602 -54.255312 76.26985 -47.486386 75.475569 C -36.269308 74.151768 -35.012222 74.20472 -33.465039 75.793281 C -32.159603 77.170034 -31.869506 83.471325 -32.207953 104.122616 L -32.594749 130.704533 L -37.0429 134.464127 C -44.537068 140.765418 -56.092592 141.87741 -62.571422 136.89992 C -66.826175 133.669846 -66.39103 129.539588 -61.314335 125.197522 C -57.446377 121.808592 -50.097258 119.213943 -44.537068 119.213943 C -42.50639 119.213943 -42.264643 117.83719 -42.264643 105.446416 C -42.264643 93.902874 -42.603089 91.625937 -44.34367 91.096417 C -45.455708 90.725753 -51.160946 91.255273 -57.059582 92.261362 L -67.744815 94.114682 L -68.663455 111.641803 C -69.14695 121.332024 -70.162289 131.075197 -70.887531 133.352134 C -73.788499 142.353979 -86.891206 147.702133 -98.011585 144.366156 Z M -98.011585 144.366156 " transform="matrix(0.080792,0,0,0.0737696,14.375582,-1.18499)"/>
</g>
</svg>
