
<svg xmlns="http://www.w3.org/2000/svg" xmlns:xlink="http://www.w3.org/1999/xlink" width="22px" height="22px" viewBox="0 0 22 22" version="1.1">
<g id="surface1">
<path style=" stroke:none;fill-rule:nonzero;fill:rgb(39.215686%,58.431373%,92.941176%);fill-opacity:1;" d="M 0.601562 13.363281 C 2.277344 24.597656 18.945312 24.933594 21.464844 14.011719 C 24.058594 5.171875 14.667969 -2.058594 7.648438 0.839844 C 2.945312 2.210938 -0.855469 7.8125 0.601562 13.363281 Z M 0.601562 13.363281 "/>
<path style=" stroke:none;fill-rule:nonzero;fill:rgb(0.392157%,31.372549%,67.843137%);fill-opacity:1;" d="M 5.984375 17.324219 C 5.824219 17.296875 5.554688 17.089844 5.285156 16.789062 L 4.847656 16.300781 L 4.847656 11.242188 C 4.847656 8.464844 4.882812 6.1875 4.921875 6.1875 C 4.964844 6.1875 5.046875 6.058594 5.105469 5.898438 C 5.164062 5.742188 5.359375 5.523438 5.539062 5.414062 C 5.851562 5.21875 5.992188 5.214844 10.960938 5.214844 C 15.601562 5.214844 16.082031 5.226562 16.335938 5.378906 C 16.492188 5.472656 16.617188 5.574219 16.617188 5.605469 C 16.617188 5.636719 16.714844 5.769531 16.835938 5.898438 L 17.050781 6.132812 L 17.078125 11.105469 C 17.105469 16.691406 17.136719 16.429688 16.382812 17.050781 L 16.023438 17.34375 L 11.132812 17.355469 C 8.445312 17.359375 6.128906 17.347656 5.984375 17.324219 Z M 13.882812 15.96875 C 13.925781 15.863281 13.75 15.636719 13.332031 15.242188 L 12.71875 14.667969 L 13.242188 14.300781 C 14.214844 13.613281 14.753906 12.601562 14.855469 11.28125 C 14.996094 9.40625 14.089844 7.753906 12.585938 7.144531 C 11.804688 6.832031 10.257812 6.832031 9.457031 7.148438 C 7.457031 7.945312 6.574219 10.632812 7.585938 12.867188 C 8.164062 14.136719 9.53125 14.957031 11.078125 14.957031 C 11.472656 14.957031 11.5625 15.007812 12.132812 15.539062 C 12.738281 16.109375 12.769531 16.125 13.289062 16.125 C 13.691406 16.125 13.839844 16.085938 13.882812 15.972656 Z M 10.117188 13.835938 C 9.613281 13.65625 9.058594 13.089844 8.789062 12.484375 C 8.601562 12.0625 8.566406 11.816406 8.566406 10.914062 C 8.566406 9.734375 8.742188 9.152344 9.265625 8.589844 C 10.121094 7.679688 11.667969 7.609375 12.597656 8.433594 C 13.269531 9.03125 13.476562 9.617188 13.476562 10.914062 C 13.476562 11.828125 13.445312 12.058594 13.253906 12.492188 C 12.980469 13.109375 12.335938 13.734375 11.828125 13.878906 C 11.320312 14.019531 10.570312 14.003906 10.117188 13.835938 Z M 10.117188 13.835938 "/>
<path style=" stroke:none;fill-rule:nonzero;fill:rgb(100%,100%,100%);fill-opacity:0.968627;" d="M 12.8125 15.992188 C 12.707031 15.933594 12.378906 15.679688 12.089844 15.425781 C 11.589844 15 11.507812 14.964844 10.800781 14.875 C 9.898438 14.761719 9.53125 14.640625 8.914062 14.261719 C 6.941406 13.054688 6.65625 9.75 8.371094 7.992188 C 8.949219 7.394531 9.4375 7.15625 10.332031 7.023438 C 12.371094 6.71875 13.972656 7.648438 14.585938 9.488281 C 14.761719 10.019531 14.785156 10.265625 14.75 11.128906 C 14.714844 11.976562 14.664062 12.242188 14.441406 12.738281 C 14.1875 13.296875 13.503906 14.070312 12.867188 14.503906 L 12.640625 14.664062 L 13.226562 15.242188 C 13.550781 15.558594 13.8125 15.855469 13.8125 15.902344 C 13.8125 16.097656 13.109375 16.160156 12.8125 15.992188 Z M 11.84375 13.902344 C 12.316406 13.773438 12.945312 13.1875 13.246094 12.605469 C 13.457031 12.1875 13.480469 12.03125 13.480469 10.949219 C 13.480469 9.898438 13.453125 9.699219 13.253906 9.25 C 12.359375 7.28125 9.378906 7.398438 8.722656 9.433594 C 8.484375 10.15625 8.503906 11.910156 8.75 12.457031 C 9.332031 13.738281 10.488281 14.277344 11.84375 13.902344 Z M 11.84375 13.902344 "/>
</g>
</svg>
