
<svg xmlns="http://www.w3.org/2000/svg" xmlns:xlink="http://www.w3.org/1999/xlink" width="22px" height="22px" viewBox="0 0 22 22" version="1.1">
<g id="surface1">
<path style=" stroke:none;fill-rule:nonzero;fill:rgb(100%,27.058824%,0%);fill-opacity:1;" d="M 7.761719 7.472656 C 8.808594 7.472656 9.664062 8.316406 9.664062 9.355469 C 9.664062 10.398438 8.808594 11.242188 7.761719 11.242188 C 6.710938 11.242188 5.859375 10.398438 5.859375 9.355469 C 5.859375 8.316406 6.710938 7.472656 7.761719 7.472656 Z M 7.761719 7.472656 "/>
<path style=" stroke:none;fill-rule:nonzero;fill:rgb(100%,27.058824%,0%);fill-opacity:1;" d="M 14.4375 7.246094 C 15.492188 7.246094 16.339844 8.09375 16.339844 9.132812 C 16.339844 10.175781 15.492188 11.019531 14.4375 11.019531 C 13.386719 11.019531 12.539062 10.175781 12.539062 9.132812 C 12.539062 8.089844 13.390625 7.246094 14.4375 7.246094 Z M 14.4375 7.246094 "/>
<path style=" stroke:none;fill-rule:nonzero;fill:rgb(100%,27.058824%,0%);fill-opacity:1;" d="M 10.785156 14.480469 C 11.835938 14.480469 12.6875 15.320312 12.6875 16.363281 C 12.6875 17.402344 11.835938 18.25 10.785156 18.25 C 9.734375 18.25 8.886719 17.402344 8.886719 16.363281 C 8.886719 15.320312 9.734375 14.480469 10.785156 14.480469 Z M 10.785156 14.480469 "/>
<path style=" stroke:none;fill-rule:nonzero;fill:rgb(85.490196%,64.705882%,12.54902%);fill-opacity:1;" d="M 4.660156 19.695312 C 21 30.550781 31.0625 -4.070312 9.941406 0.515625 C 1.210938 2.46875 -4.085938 14.71875 4.660156 19.695312 Z M 4.660156 19.695312 "/>
<path style=" stroke:none;fill-rule:evenodd;fill:rgb(100%,100%,100%);fill-opacity:1;" d="M 5.984375 15.84375 L 5.679688 15.554688 L 5.554688 6.25 L 6.226562 5.554688 L 16.480469 5.554688 L 17.082031 6.125 L 17.144531 10.71875 C 17.1875 14.035156 17.179688 15.367188 17.105469 15.519531 C 17.054688 15.636719 16.902344 15.8125 16.773438 15.90625 C 16.542969 16.078125 16.378906 16.085938 11.410156 16.109375 L 6.289062 16.132812 Z M 16.042969 15.109375 C 16.148438 15.070312 16.15625 14.4375 16.105469 10.859375 C 16.070312 8.550781 16.011719 6.625 15.976562 6.589844 C 15.941406 6.550781 13.828125 6.53125 11.289062 6.546875 L 6.667969 6.566406 L 6.691406 10.796875 C 6.703125 13.125 6.726562 15.066406 6.746094 15.113281 C 6.777344 15.203125 15.789062 15.199219 16.042969 15.109375 Z M 16.042969 15.109375 "/>
<path style=" stroke:none;fill-rule:evenodd;fill:rgb(100%,100%,100%);fill-opacity:1;" d="M 8.859375 14.621094 C 8.800781 14.546875 8.738281 13.808594 8.703125 12.785156 C 8.667969 11.84375 8.621094 11.042969 8.59375 11 C 8.570312 10.960938 8.214844 10.929688 7.804688 10.929688 C 6.863281 10.929688 6.769531 10.804688 7.335938 10.304688 C 7.550781 10.113281 7.828125 9.902344 7.957031 9.828125 C 8.085938 9.757812 8.277344 9.5625 8.382812 9.390625 C 8.488281 9.222656 8.878906 8.839844 9.25 8.542969 C 9.625 8.246094 10.21875 7.726562 10.570312 7.390625 C 11.148438 6.851562 11.230469 6.800781 11.347656 6.917969 C 11.421875 6.992188 11.515625 7.050781 11.554688 7.050781 C 11.59375 7.050781 12.015625 7.402344 12.496094 7.828125 C 12.972656 8.253906 13.523438 8.738281 13.714844 8.90625 C 13.910156 9.074219 14.238281 9.378906 14.441406 9.585938 C 14.648438 9.792969 14.84375 9.960938 14.882812 9.960938 C 14.917969 9.964844 15.125 10.125 15.339844 10.320312 C 15.835938 10.773438 15.753906 10.835938 14.671875 10.839844 C 14.226562 10.839844 13.800781 10.867188 13.722656 10.894531 C 13.601562 10.941406 13.585938 11.183594 13.585938 12.695312 C 13.585938 14.414062 13.582031 14.449219 13.386719 14.550781 C 13.257812 14.621094 12.464844 14.671875 11.074219 14.699219 C 9.335938 14.734375 8.9375 14.71875 8.859375 14.621094 Z M 11.765625 12.070312 C 12.328125 11.820312 12.613281 11.421875 12.613281 10.886719 C 12.613281 10.472656 12.351562 9.871094 12.164062 9.871094 C 12.121094 9.871094 11.925781 9.773438 11.734375 9.652344 C 11.351562 9.410156 10.84375 9.363281 10.6875 9.550781 C 10.632812 9.613281 10.4375 9.738281 10.25 9.820312 C 9.671875 10.082031 9.410156 10.980469 9.796875 11.371094 C 9.890625 11.46875 9.972656 11.578125 9.972656 11.621094 C 9.972656 11.703125 10.542969 12.109375 10.765625 12.191406 C 11.035156 12.285156 11.371094 12.246094 11.765625 12.070312 Z M 11.765625 12.070312 "/>
<path style=" stroke:none;fill-rule:evenodd;fill:rgb(100%,100%,100%);fill-opacity:1;" d="M 10.351562 11.105469 C 9.960938 10.679688 10.203125 10.492188 11.132812 10.492188 C 11.53125 10.488281 11.902344 10.492188 11.964844 10.496094 C 12.023438 10.503906 12.074219 10.613281 12.074219 10.75 C 12.074219 11.09375 11.9375 11.160156 11.308594 11.125 C 10.945312 11.078125 10.558594 11.320312 10.351562 11.105469 Z M 10.351562 11.105469 "/>
</g>
</svg>
