
<svg xmlns="http://www.w3.org/2000/svg" xmlns:xlink="http://www.w3.org/1999/xlink" width="22px" height="22px" viewBox="0 0 22 22" version="1.1">
<g id="surface1">
<path style=" stroke:none;fill-rule:nonzero;fill:rgb(69.019608%,76.862745%,87.058824%);fill-opacity:1;" d="M 2.542969 18.183594 C -2.808594 9.953125 1.507812 2.457031 7.566406 0.679688 C 15.714844 -1.714844 26.78125 4.574219 19.492188 17.53125 C 16.59375 22.679688 6.355469 24.042969 2.542969 18.183594 Z M 2.542969 18.183594 "/>
<path style=" stroke:none;fill-rule:nonzero;fill:rgb(81.960784%,81.960784%,81.568627%);fill-opacity:1;" d="M 8.082031 16.789062 C 7.566406 16.710938 6.597656 16.324219 6.261719 16.058594 C 5.867188 15.746094 5.707031 15.265625 5.859375 14.835938 C 5.976562 14.492188 5.863281 14.355469 5.449219 14.355469 C 5.320312 14.351562 5.019531 14.230469 4.78125 14.078125 L 4.347656 13.800781 L 4.339844 7.292969 L 4.78125 7.074219 C 5.207031 6.859375 5.3125 6.855469 8.484375 6.859375 C 10.28125 6.867188 11.769531 6.847656 11.796875 6.820312 C 11.824219 6.796875 11.867188 6.589844 11.898438 6.359375 C 11.992188 5.660156 12.15625 5.609375 14.316406 5.609375 C 15.335938 5.609375 16.292969 5.644531 16.441406 5.6875 C 16.597656 5.730469 16.789062 5.898438 16.890625 6.085938 C 17.050781 6.378906 17.070312 6.839844 17.097656 11.105469 C 17.121094 14.371094 17.09375 15.917969 17.015625 16.183594 C 16.835938 16.796875 16.546875 16.867188 14.367188 16.832031 L 12.539062 16.800781 L 12.242188 16.515625 L 11.949219 16.234375 L 11.214844 16.5 C 10.636719 16.707031 10.253906 16.773438 9.429688 16.800781 C 8.855469 16.820312 8.25 16.8125 8.082031 16.789062 Z M 12.867188 15.890625 C 12.976562 15.847656 13.023438 15.699219 13.023438 15.386719 C 13.023438 15.085938 13.074219 14.925781 13.175781 14.886719 C 13.394531 14.804688 13.355469 14.644531 13.015625 14.253906 C 12.726562 13.914062 12.707031 13.910156 12.570312 14.09375 C 12.464844 14.238281 12.441406 14.464844 12.484375 14.996094 C 12.566406 15.988281 12.570312 16.003906 12.867188 15.890625 Z M 10.46875 15.691406 C 11.304688 15.523438 11.628906 15.34375 11.628906 15.046875 C 11.628906 14.792969 11.371094 14.625 10.953125 14.613281 C 10.617188 14.601562 10.582031 14.628906 10.53125 14.902344 C 10.484375 15.160156 10.40625 15.226562 9.929688 15.382812 C 9.289062 15.597656 8.679688 15.546875 8.300781 15.246094 C 8.164062 15.140625 8.011719 15.050781 7.960938 15.050781 C 7.910156 15.050781 7.769531 14.933594 7.644531 14.789062 C 7.441406 14.558594 7.367188 14.539062 7 14.59375 C 6.773438 14.632812 6.496094 14.75 6.390625 14.855469 C 6.191406 15.050781 6.191406 15.054688 6.4375 15.296875 C 6.621094 15.476562 6.875 15.570312 7.382812 15.652344 C 7.765625 15.710938 8.097656 15.78125 8.121094 15.804688 C 8.226562 15.914062 9.726562 15.835938 10.46875 15.691406 Z M 9.554688 14.777344 C 9.652344 14.691406 9.730469 14.582031 9.730469 14.535156 C 9.730469 14.488281 9.347656 14.453125 8.882812 14.453125 C 8.414062 14.453125 8.035156 14.488281 8.035156 14.53125 C 8.035156 14.574219 8.105469 14.710938 8.195312 14.835938 C 8.339844 15.042969 8.40625 15.0625 8.867188 15 C 9.152344 14.960938 9.460938 14.859375 9.554688 14.777344 Z M 7.878906 13.480469 C 8.234375 13.425781 8.25 13.414062 8.039062 13.335938 C 7.914062 13.289062 7.273438 13.222656 6.617188 13.1875 C 5.671875 13.136719 5.410156 13.089844 5.34375 12.960938 C 5.207031 12.707031 5.167969 8.085938 5.300781 7.953125 C 5.382812 7.875 6.472656 7.839844 8.914062 7.832031 C 12.738281 7.824219 12.722656 7.820312 12.726562 8.394531 C 12.730469 9.117188 13.113281 9.121094 13.140625 8.402344 C 13.160156 7.859375 13.054688 7.582031 12.796875 7.5 C 12.679688 7.460938 10.90625 7.429688 8.859375 7.433594 C 6.054688 7.433594 5.097656 7.464844 4.988281 7.558594 C 4.863281 7.664062 4.839844 8.128906 4.839844 10.511719 C 4.839844 13.953125 4.714844 13.703125 6.386719 13.605469 C 6.992188 13.570312 7.660156 13.515625 7.878906 13.480469 Z M 14.210938 12.859375 C 14.664062 12.703125 14.78125 12.613281 14.929688 12.289062 C 15.101562 11.925781 15.101562 11.894531 14.941406 11.773438 C 14.835938 11.695312 14.558594 11.65625 14.222656 11.675781 L 13.671875 11.703125 L 13.644531 12.378906 C 13.628906 12.75 13.628906 13.050781 13.644531 13.050781 C 13.660156 13.046875 13.914062 12.964844 14.210938 12.859375 Z M 16.183594 10.578125 C 16.214844 10.453125 16.210938 10.230469 16.171875 10.078125 C 16.132812 9.929688 16.085938 9.671875 16.070312 9.507812 C 16.054688 9.339844 16.039062 9.148438 16.03125 9.082031 C 16.023438 8.988281 15.726562 8.957031 14.917969 8.957031 C 13.992188 8.957031 13.808594 8.984375 13.753906 9.121094 C 13.71875 9.210938 13.738281 9.355469 13.792969 9.445312 C 13.878906 9.582031 14.058594 9.601562 14.90625 9.570312 C 15.753906 9.539062 15.917969 9.558594 15.917969 9.683594 C 15.917969 9.992188 15.699219 10.042969 14.847656 9.929688 C 14.101562 9.832031 14.007812 9.835938 13.824219 10.003906 C 13.628906 10.183594 13.550781 10.648438 13.695312 10.792969 C 13.734375 10.835938 14.300781 10.851562 14.949219 10.835938 C 16.078125 10.804688 16.128906 10.796875 16.183594 10.578125 Z M 16.101562 8.074219 L 16.070312 7.808594 L 14.945312 7.78125 C 14.007812 7.757812 13.808594 7.777344 13.761719 7.90625 C 13.730469 7.988281 13.730469 8.125 13.761719 8.210938 C 13.808594 8.335938 14.023438 8.359375 14.976562 8.351562 L 16.132812 8.339844 Z M 15.152344 6.945312 C 15.578125 6.859375 15.75 6.859375 15.855469 6.949219 C 16.015625 7.082031 16.121094 6.910156 16.121094 6.507812 C 16.121094 6.160156 15.933594 6.105469 15.820312 6.414062 C 15.753906 6.589844 15.667969 6.660156 15.570312 6.621094 C 15.488281 6.589844 14.878906 6.558594 14.21875 6.546875 C 13.136719 6.53125 13.007812 6.511719 12.910156 6.335938 C 12.78125 6.085938 12.59375 6.242188 12.640625 6.558594 C 12.707031 6.996094 13.953125 7.1875 15.152344 6.945312 Z M 15.152344 6.945312 "/>
<path style=" stroke:none;fill-rule:nonzero;fill:rgb(70.588235%,77.647059%,86.666667%);fill-opacity:1;" d="M 7.347656 16.402344 C 6.613281 16.164062 6.136719 15.839844 6.136719 15.574219 C 6.136719 15.496094 6.171875 15.449219 6.210938 15.472656 C 7.472656 16.085938 9.304688 16.246094 10.65625 15.859375 C 11.566406 15.597656 11.914062 15.3125 11.921875 14.828125 L 11.925781 14.453125 L 11.503906 14.453125 C 11.054688 14.453125 10.417969 14.1875 10.351562 13.976562 C 10.289062 13.777344 10.8125 13.640625 11.519531 13.671875 L 12.175781 13.703125 L 12.191406 14.453125 C 12.199219 14.863281 12.246094 15.382812 12.292969 15.601562 L 12.378906 16 L 13.226562 16.027344 C 13.691406 16.042969 14.542969 16.019531 15.121094 15.976562 C 15.964844 15.914062 16.164062 15.867188 16.136719 15.75 C 16.089844 15.535156 16.09375 15.441406 16.21875 13.851562 C 16.28125 13.054688 16.328125 10.953125 16.324219 9.179688 C 16.320312 6.335938 16.335938 5.960938 16.472656 5.960938 C 16.558594 5.960938 16.695312 6.113281 16.773438 6.304688 C 16.894531 6.589844 16.917969 7.480469 16.917969 11.386719 C 16.917969 16.027344 16.914062 16.128906 16.710938 16.386719 L 16.503906 16.648438 L 12.660156 16.648438 L 12.382812 16.339844 C 12.074219 15.996094 12.078125 15.996094 10.976562 16.390625 C 10 16.746094 8.421875 16.75 7.347656 16.402344 Z M 15.46875 15.546875 C 15.402344 15.4375 15.585938 15.152344 15.722656 15.152344 C 15.867188 15.152344 15.925781 15.484375 15.796875 15.566406 C 15.625 15.675781 15.542969 15.671875 15.46875 15.546875 Z M 13.738281 14.457031 C 13.152344 14.152344 13.027344 14.015625 13.027344 13.6875 C 13.023438 13.445312 13.199219 13.351562 13.667969 13.351562 C 13.851562 13.351562 14.054688 13.285156 14.121094 13.203125 C 14.28125 13.011719 14.390625 13.015625 15.082031 13.226562 C 16.15625 13.558594 16.175781 14.195312 15.125 14.5625 C 14.433594 14.800781 14.382812 14.796875 13.738281 14.457031 Z M 14.570312 13.851562 C 14.570312 13.695312 14.507812 13.59375 14.398438 13.570312 C 14.199219 13.535156 14.070312 13.773438 14.160156 14.011719 C 14.257812 14.257812 14.570312 14.136719 14.570312 13.851562 Z M 6.269531 14.394531 C 6.167969 14.320312 5.929688 14.257812 5.734375 14.253906 C 5.382812 14.253906 4.9375 14.023438 4.9375 13.847656 C 4.9375 13.792969 5.410156 13.753906 6.023438 13.753906 C 6.882812 13.753906 7.136719 13.785156 7.238281 13.90625 C 7.34375 14.035156 7.339844 14.089844 7.222656 14.207031 C 6.976562 14.453125 6.476562 14.554688 6.269531 14.394531 Z M 4.339844 10.554688 C 4.339844 8.109375 4.367188 7.449219 4.464844 7.484375 C 4.621094 7.535156 4.589844 13.582031 4.4375 13.636719 C 4.375 13.65625 4.339844 12.5 4.339844 10.554688 Z M 8.664062 13.15625 C 6.300781 13.117188 5.515625 13.070312 5.417969 12.972656 C 5.320312 12.875 5.28125 12.257812 5.257812 10.515625 C 5.230469 8.476562 5.246094 8.164062 5.386719 8.023438 C 5.527344 7.882812 5.957031 7.863281 8.976562 7.863281 C 11.8125 7.863281 12.425781 7.886719 12.523438 8.003906 C 12.621094 8.121094 12.796875 10.921875 12.820312 12.671875 C 12.828125 13.054688 12.582031 13.257812 12.144531 13.230469 C 11.941406 13.21875 10.375 13.1875 8.664062 13.15625 Z M 15.019531 11.339844 C 14.785156 11.238281 14.78125 11.230469 14.972656 11.152344 C 15.082031 11.105469 15.320312 11.066406 15.503906 11.0625 C 15.765625 11.054688 15.828125 11.089844 15.800781 11.230469 C 15.761719 11.4375 15.378906 11.492188 15.019531 11.339844 Z M 12.082031 7.0625 C 12.007812 6.945312 12.125 6.171875 12.226562 6.109375 C 12.316406 6.054688 12.449219 6.941406 12.371094 7.070312 C 12.296875 7.183594 12.152344 7.183594 12.082031 7.0625 Z M 12.082031 7.0625 "/>
<path style=" stroke:none;fill-rule:nonzero;fill:rgb(59.607843%,69.019608%,83.137255%);fill-opacity:1;" d="M 7.347656 16.402344 C 6.613281 16.164062 6.136719 15.839844 6.136719 15.574219 C 6.136719 15.496094 6.171875 15.449219 6.210938 15.472656 C 7.472656 16.085938 9.304688 16.246094 10.65625 15.859375 C 11.566406 15.597656 11.914062 15.3125 11.921875 14.828125 L 11.925781 14.453125 L 11.503906 14.453125 C 11.054688 14.453125 10.417969 14.1875 10.351562 13.976562 C 10.289062 13.777344 10.8125 13.640625 11.519531 13.671875 L 12.175781 13.703125 L 12.191406 14.453125 C 12.199219 14.863281 12.246094 15.382812 12.292969 15.601562 L 12.378906 16 L 13.226562 16.027344 C 13.691406 16.042969 14.542969 16.019531 15.121094 15.976562 C 15.964844 15.914062 16.164062 15.867188 16.136719 15.75 C 16.089844 15.535156 16.09375 15.441406 16.21875 13.851562 C 16.28125 13.054688 16.328125 10.953125 16.324219 9.179688 C 16.320312 6.335938 16.335938 5.960938 16.472656 5.960938 C 16.558594 5.960938 16.695312 6.113281 16.773438 6.304688 C 16.894531 6.589844 16.917969 7.480469 16.917969 11.386719 C 16.917969 16.027344 16.914062 16.128906 16.710938 16.386719 L 16.503906 16.648438 L 12.660156 16.648438 L 12.382812 16.339844 C 12.074219 15.996094 12.078125 15.996094 10.976562 16.390625 C 10 16.746094 8.421875 16.75 7.347656 16.402344 Z M 15.46875 15.546875 C 15.402344 15.4375 15.585938 15.152344 15.722656 15.152344 C 15.867188 15.152344 15.925781 15.484375 15.796875 15.566406 C 15.625 15.675781 15.542969 15.671875 15.46875 15.546875 Z M 13.738281 14.457031 C 13.152344 14.152344 13.027344 14.015625 13.027344 13.6875 C 13.023438 13.445312 13.199219 13.351562 13.667969 13.351562 C 13.851562 13.351562 14.054688 13.285156 14.121094 13.203125 C 14.28125 13.011719 14.390625 13.015625 15.082031 13.226562 C 16.15625 13.558594 16.175781 14.195312 15.125 14.5625 C 14.433594 14.800781 14.382812 14.796875 13.738281 14.457031 Z M 14.570312 13.851562 C 14.570312 13.695312 14.507812 13.59375 14.398438 13.570312 C 14.199219 13.535156 14.070312 13.773438 14.160156 14.011719 C 14.257812 14.257812 14.570312 14.136719 14.570312 13.851562 Z M 6.269531 14.394531 C 6.167969 14.320312 5.929688 14.257812 5.734375 14.253906 C 5.382812 14.253906 4.9375 14.023438 4.9375 13.847656 C 4.9375 13.792969 5.410156 13.753906 6.023438 13.753906 C 6.882812 13.753906 7.136719 13.785156 7.238281 13.90625 C 7.34375 14.035156 7.339844 14.089844 7.222656 14.207031 C 6.976562 14.453125 6.476562 14.554688 6.269531 14.394531 Z M 4.339844 10.554688 C 4.339844 8.109375 4.367188 7.449219 4.464844 7.484375 C 4.621094 7.535156 4.589844 13.582031 4.4375 13.636719 C 4.375 13.65625 4.339844 12.5 4.339844 10.554688 Z M 10.730469 13.042969 C 10.152344 13 8.773438 12.96875 7.660156 12.980469 C 6.152344 12.992188 5.609375 12.964844 5.515625 12.871094 C 5.34375 12.699219 5.273438 8.28125 5.4375 8.117188 C 5.566406 7.988281 12.402344 7.941406 12.484375 8.070312 C 12.566406 8.203125 12.609375 9.117188 12.632812 11.046875 C 12.652344 12.726562 12.636719 12.898438 12.472656 13.019531 C 12.371094 13.09375 12.171875 13.144531 12.03125 13.136719 C 11.890625 13.128906 11.304688 13.085938 10.730469 13.042969 Z M 15.019531 11.339844 C 14.785156 11.238281 14.78125 11.230469 14.972656 11.152344 C 15.082031 11.105469 15.320312 11.066406 15.503906 11.0625 C 15.765625 11.054688 15.828125 11.089844 15.800781 11.230469 C 15.761719 11.4375 15.378906 11.492188 15.019531 11.339844 Z M 12.082031 7.0625 C 12.007812 6.945312 12.125 6.171875 12.226562 6.109375 C 12.316406 6.054688 12.449219 6.941406 12.371094 7.070312 C 12.296875 7.183594 12.152344 7.183594 12.082031 7.0625 Z M 12.082031 7.0625 "/>
<path style=" stroke:none;fill-rule:nonzero;fill:rgb(33.72549%,57.254902%,84.705882%);fill-opacity:1;" d="M 5.800781 12.871094 C 5.496094 12.8125 5.4375 12.390625 5.4375 10.3125 C 5.4375 8.6875 5.464844 8.257812 5.578125 8.164062 C 5.6875 8.074219 6.023438 8.078125 7 8.175781 C 8.617188 8.332031 9.148438 8.332031 10.859375 8.164062 C 11.746094 8.078125 12.273438 8.0625 12.335938 8.125 C 12.453125 8.242188 12.582031 11.964844 12.488281 12.472656 C 12.449219 12.671875 12.34375 12.863281 12.253906 12.898438 C 12.160156 12.933594 11.296875 12.914062 10.332031 12.851562 C 9.230469 12.777344 8.101562 12.769531 7.277344 12.820312 C 6.558594 12.867188 5.894531 12.886719 5.800781 12.871094 Z M 5.800781 12.871094 "/>
<path style=" stroke:none;fill-rule:nonzero;fill:rgb(19.215686%,44.313725%,78.039216%);fill-opacity:1;" d="M 11.277344 12.710938 C 10.894531 12.644531 10.167969 12.484375 9.667969 12.351562 L 8.757812 12.113281 L 7.773438 12.378906 C 6.453125 12.730469 5.789062 12.816406 5.679688 12.644531 C 5.636719 12.570312 5.585938 11.550781 5.570312 10.378906 C 5.535156 7.953125 5.53125 7.96875 6.296875 8.351562 C 6.640625 8.523438 6.730469 8.617188 6.6875 8.753906 C 6.613281 8.980469 7.09375 9.480469 7.671875 9.777344 C 8.207031 10.054688 9.285156 10.082031 9.9375 9.832031 C 10.484375 9.617188 11.183594 8.941406 11.09375 8.710938 C 11.050781 8.597656 11.113281 8.519531 11.304688 8.441406 C 11.453125 8.382812 11.675781 8.285156 11.796875 8.230469 C 12.21875 8.035156 12.289062 8.167969 12.359375 9.3125 C 12.503906 11.652344 12.414062 12.734375 12.078125 12.808594 C 12.023438 12.820312 11.664062 12.777344 11.277344 12.710938 Z M 11.277344 12.710938 "/>
</g>
</svg>
