
<svg xmlns="http://www.w3.org/2000/svg" xmlns:xlink="http://www.w3.org/1999/xlink" width="22px" height="22px" viewBox="0 0 22 22" version="1.1">
<g id="surface1">
<path style=" stroke:none;fill-rule:nonzero;fill:rgb(56.862745%,76.078431%,94.117647%);fill-opacity:1;" d="M 18.148438 3.191406 C 35.492188 26.082031 -12.238281 29.335938 3.078125 5.96875 C 6.570312 0.640625 13.554688 -2.871094 18.148438 3.191406 Z M 18.148438 3.191406 "/>
<path style=" stroke:none;fill-rule:evenodd;fill:rgb(0%,0%,0%);fill-opacity:0.101961;" d="M 11.414062 4.605469 L 11.191406 5.015625 C 9.640625 5.089844 8.425781 5.957031 8.382812 7.011719 L 8.378906 7.011719 C 8.140625 7.011719 7.945312 7.195312 7.945312 7.414062 C 7.945312 7.636719 8.140625 7.816406 8.378906 7.816406 L 8.378906 12.226562 C 8.378906 12.546875 7.226562 16.859375 6.671875 18.929688 C 8.015625 19.53125 9.488281 19.847656 10.980469 19.851562 C 12.765625 19.847656 14.519531 19.398438 16.054688 18.550781 C 15.769531 17.492188 15.378906 16.03125 15.054688 14.777344 C 15.644531 14.597656 16.179688 14.308594 16.179688 13.632812 L 16.179688 11.828125 C 15.804688 11.484375 15.320312 11.195312 14.769531 10.953125 L 14.769531 12.648438 L 14.480469 12.445312 C 14.460938 12.347656 14.445312 12.257812 14.445312 12.226562 L 14.445312 7.816406 C 14.6875 7.816406 14.878906 7.636719 14.878906 7.414062 C 14.878906 7.195312 14.6875 7.011719 14.445312 7.011719 C 14.402344 5.957031 13.1875 5.09375 11.632812 5.015625 Z M 13.375 5.863281 C 13.796875 6.210938 14.007812 6.617188 14.015625 7.011719 L 14.011719 7.011719 C 14.007812 6.617188 13.792969 6.210938 13.375 5.863281 Z M 13.375 5.863281 "/>
<path style=" stroke:none;fill-rule:nonzero;fill:rgb(97.647059%,90.196078%,28.627451%);fill-opacity:1;" d="M 10.980469 4.605469 C 12.625 4.609375 13.964844 5.496094 14.011719 6.613281 L 13.582031 6.613281 C 13.570312 5.800781 12.699219 4.980469 10.980469 4.605469 "/>
<path style=" stroke:none;fill-rule:evenodd;fill:rgb(54.509804%,56.470588%,57.647059%);fill-opacity:1;" d="M 10.546875 5.007812 L 10.980469 4.207031 L 11.414062 5.007812 Z M 10.546875 5.007812 "/>
<path style=" stroke:none;fill-rule:nonzero;fill:rgb(100%,35.686275%,33.333333%);fill-opacity:1;" d="M 7.945312 7.414062 L 8.378906 7.414062 L 8.378906 11.828125 L 7.945312 11.828125 Z M 7.945312 7.414062 "/>
<path style=" stroke:none;fill-rule:nonzero;fill:rgb(97.647059%,90.196078%,28.627451%);fill-opacity:1;" d="M 8.378906 7.414062 L 9.679688 7.414062 L 9.679688 11.828125 L 8.378906 11.828125 Z M 8.378906 7.414062 "/>
<path style=" stroke:none;fill-rule:nonzero;fill:rgb(100%,35.686275%,33.333333%);fill-opacity:1;" d="M 9.679688 7.414062 L 10.980469 7.414062 L 10.980469 11.828125 L 9.679688 11.828125 Z M 9.679688 7.414062 "/>
<path style=" stroke:none;fill-rule:nonzero;fill:rgb(97.647059%,90.196078%,28.627451%);fill-opacity:1;" d="M 10.980469 7.414062 L 12.28125 7.414062 L 12.28125 11.828125 L 10.980469 11.828125 Z M 10.980469 7.414062 "/>
<path style=" stroke:none;fill-rule:nonzero;fill:rgb(100%,35.686275%,33.333333%);fill-opacity:1;" d="M 12.28125 7.414062 L 13.578125 7.414062 L 13.578125 11.828125 L 12.28125 11.828125 Z M 12.28125 7.414062 "/>
<path style=" stroke:none;fill-rule:nonzero;fill:rgb(97.647059%,90.196078%,28.627451%);fill-opacity:1;" d="M 13.578125 7.414062 L 14.011719 7.414062 L 14.011719 11.828125 L 13.578125 11.828125 Z M 13.578125 7.414062 "/>
<path style=" stroke:none;fill-rule:evenodd;fill:rgb(20.784314%,20.784314%,20.784314%);fill-opacity:1;" d="M 6.210938 14.433594 C 6.210938 13.53125 7.179688 13.3125 7.941406 13.132812 L 8.394531 15.960938 Z M 6.210938 14.433594 "/>
<path style=" stroke:none;fill-rule:evenodd;fill:rgb(97.647059%,90.196078%,28.627451%);fill-opacity:1;" d="M 8.378906 11.828125 L 7.015625 19.09375 C 7.519531 19.292969 8.046875 19.457031 8.589844 19.582031 L 9.679688 11.828125 Z M 8.378906 11.828125 "/>
<path style=" stroke:none;fill-rule:evenodd;fill:rgb(20.784314%,20.784314%,20.784314%);fill-opacity:1;" d="M 15.746094 13.230469 C 15.75 14.136719 14.78125 14.351562 14.019531 14.53125 L 13.566406 11.703125 "/>
<path style=" stroke:none;fill-rule:nonzero;fill:rgb(97.647059%,90.196078%,28.627451%);fill-opacity:1;" d="M 8.378906 6.613281 L 8.378906 7.414062 L 9.679688 7.414062 L 9.679688 6.613281 Z M 10.980469 6.613281 L 10.980469 7.414062 L 12.28125 7.414062 L 12.28125 6.613281 Z M 13.578125 6.613281 L 13.578125 7.414062 L 14.011719 7.414062 L 14.011719 6.613281 Z M 13.578125 6.613281 "/>
<path style=" stroke:none;fill-rule:nonzero;fill:rgb(100%,35.686275%,33.333333%);fill-opacity:1;" d="M 8.378906 7.011719 C 8.378906 7.234375 8.1875 7.414062 7.945312 7.414062 C 7.707031 7.414062 7.511719 7.234375 7.511719 7.011719 C 7.511719 6.789062 7.707031 6.613281 7.945312 6.613281 C 8.1875 6.613281 8.378906 6.789062 8.378906 7.011719 Z M 8.378906 7.011719 "/>
<path style=" stroke:none;fill-rule:nonzero;fill:rgb(97.647059%,90.196078%,28.627451%);fill-opacity:1;" d="M 14.445312 7.011719 C 14.445312 7.234375 14.253906 7.414062 14.011719 7.414062 C 13.773438 7.414062 13.578125 7.234375 13.578125 7.011719 C 13.578125 6.789062 13.773438 6.613281 14.011719 6.613281 C 14.253906 6.613281 14.445312 6.789062 14.445312 7.011719 Z M 14.445312 7.011719 "/>
<path style=" stroke:none;fill-rule:nonzero;fill:rgb(20.784314%,20.784314%,20.784314%);fill-opacity:1;" d="M 12.496094 7.613281 C 12.136719 7.613281 11.847656 7.882812 11.847656 8.214844 L 11.847656 10.222656 L 13.148438 10.222656 L 13.148438 8.214844 C 13.148438 7.882812 12.855469 7.613281 12.496094 7.613281 Z M 12.496094 7.613281 "/>
<path style=" stroke:none;fill-rule:nonzero;fill:rgb(20.784314%,20.784314%,20.784314%);fill-opacity:1;" d="M 9.246094 7.816406 L 10.113281 7.816406 L 10.113281 9.820312 L 9.246094 9.820312 Z M 9.246094 7.816406 "/>
<path style=" stroke:none;fill-rule:nonzero;fill:rgb(20.784314%,20.784314%,20.784314%);fill-opacity:1;" d="M 7.945312 7.816406 L 8.8125 7.816406 L 8.8125 9.820312 L 7.945312 9.820312 Z M 7.945312 7.816406 "/>
<path style=" stroke:none;fill-rule:evenodd;fill:rgb(100%,35.686275%,33.333333%);fill-opacity:1;" d="M 7.945312 11.828125 C 7.945312 12.152344 6.726562 16.710938 6.1875 18.714844 C 6.457031 18.851562 6.734375 18.976562 7.015625 19.089844 L 8.378906 11.824219 L 7.945312 11.824219 Z M 7.945312 11.828125 "/>
<path style=" stroke:none;fill-rule:evenodd;fill:rgb(100%,35.686275%,33.333333%);fill-opacity:1;" d="M 9.679688 11.828125 L 8.589844 19.582031 C 9.355469 19.753906 10.15625 19.851562 10.980469 19.851562 L 10.980469 11.828125 Z M 9.679688 11.828125 "/>
<path style=" stroke:none;fill-rule:evenodd;fill:rgb(97.647059%,90.196078%,28.627451%);fill-opacity:1;" d="M 13.578125 11.828125 L 14.945312 19.09375 C 15.226562 18.976562 15.503906 18.855469 15.769531 18.714844 C 15.230469 16.710938 14.011719 12.15625 14.011719 11.828125 Z M 13.578125 11.828125 "/>
<path style=" stroke:none;fill-rule:evenodd;fill:rgb(100%,35.686275%,33.333333%);fill-opacity:1;" d="M 12.28125 11.828125 L 13.371094 19.582031 C 13.914062 19.457031 14.441406 19.292969 14.945312 19.089844 L 13.578125 11.824219 L 12.28125 11.824219 Z M 12.28125 11.828125 "/>
<path style=" stroke:none;fill-rule:evenodd;fill:rgb(97.647059%,90.196078%,28.627451%);fill-opacity:1;" d="M 10.980469 11.828125 L 10.980469 19.851562 C 11.804688 19.851562 12.605469 19.753906 13.371094 19.582031 L 12.28125 11.828125 Z M 10.980469 11.828125 "/>
<path style=" stroke:none;fill-rule:nonzero;fill:rgb(0%,0%,0%);fill-opacity:0.101961;" d="M 10.980469 10.222656 L 10.980469 12.226562 C 12.816406 12.226562 13.9375 12.578125 14.941406 13.03125 L 14.949219 13.03125 L 14.949219 13.035156 L 15.726562 13.421875 C 15.738281 13.363281 15.746094 13.296875 15.746094 13.230469 L 15.667969 13.175781 L 15.3125 12.96875 L 15.3125 11.21875 C 14.195312 10.59375 12.660156 10.222656 10.980469 10.222656 Z M 10.980469 10.222656 "/>
<path style=" stroke:none;fill-rule:evenodd;fill:rgb(54.509804%,56.470588%,57.647059%);fill-opacity:1;" d="M 15.746094 13.230469 L 15.746094 11.425781 C 14.652344 10.433594 12.714844 9.820312 10.546875 9.820312 L 10.546875 11.828125 C 13.148438 11.828125 14.324219 12.523438 15.746094 13.230469 Z M 15.746094 13.230469 "/>
<path style=" stroke:none;fill-rule:nonzero;fill:rgb(100%,35.686275%,33.333333%);fill-opacity:1;" d="M 7.945312 6.613281 L 8.378906 6.613281 L 8.378906 7.414062 L 7.945312 7.414062 Z M 7.945312 6.613281 "/>
<path style=" stroke:none;fill-rule:nonzero;fill:rgb(100%,35.686275%,33.333333%);fill-opacity:1;" d="M 9.679688 6.613281 L 10.980469 6.613281 L 10.980469 7.414062 L 9.679688 7.414062 Z M 9.679688 6.613281 "/>
<path style=" stroke:none;fill-rule:nonzero;fill:rgb(100%,35.686275%,33.333333%);fill-opacity:1;" d="M 12.28125 6.613281 L 13.578125 6.613281 L 13.578125 7.414062 L 12.28125 7.414062 Z M 12.28125 6.613281 "/>
<path style=" stroke:none;fill-rule:evenodd;fill:rgb(97.647059%,90.196078%,28.627451%);fill-opacity:1;" d="M 8.378906 6.613281 C 8.390625 5.800781 9.261719 4.980469 10.980469 4.605469 C 10.886719 4.746094 9.625 5.332031 9.679688 6.613281 Z M 8.378906 6.613281 "/>
<path style=" stroke:none;fill-rule:evenodd;fill:rgb(100%,35.686275%,33.333333%);fill-opacity:1;" d="M 13.578125 6.613281 C 13.570312 5.800781 12.695312 4.980469 10.980469 4.605469 C 11.070312 4.746094 12.335938 5.332031 12.28125 6.613281 Z M 13.578125 6.613281 "/>
<path style=" stroke:none;fill-rule:evenodd;fill:rgb(100%,35.686275%,33.333333%);fill-opacity:1;" d="M 10.980469 4.605469 C 10.886719 4.746094 9.625 5.332031 9.679688 6.613281 L 10.980469 6.613281 Z M 10.980469 4.605469 "/>
<path style=" stroke:none;fill-rule:evenodd;fill:rgb(97.647059%,90.196078%,28.627451%);fill-opacity:1;" d="M 10.980469 4.605469 C 11.070312 4.746094 12.335938 5.332031 12.28125 6.613281 L 10.980469 6.613281 Z M 10.980469 4.605469 "/>
<path style=" stroke:none;fill-rule:nonzero;fill:rgb(100%,35.686275%,33.333333%);fill-opacity:1;" d="M 10.980469 4.605469 C 9.339844 4.609375 7.996094 5.496094 7.949219 6.613281 L 8.378906 6.613281 C 8.394531 5.800781 9.261719 4.980469 10.980469 4.605469 Z M 10.980469 4.605469 "/>
<path style=" stroke:none;fill-rule:evenodd;fill:rgb(0%,0%,0%);fill-opacity:0.101961;" d="M 6.644531 14.835938 L 6.644531 16.640625 C 7.742188 17.632812 9.679688 18.246094 11.847656 18.246094 L 11.847656 16.242188 C 9.246094 16.242188 8.070312 15.542969 6.644531 14.835938 Z M 6.644531 14.835938 "/>
<path style=" stroke:none;fill-rule:evenodd;fill:rgb(54.509804%,56.470588%,57.647059%);fill-opacity:1;" d="M 6.210938 14.433594 L 6.210938 16.242188 C 7.308594 17.230469 9.246094 17.84375 11.414062 17.84375 L 11.414062 15.839844 C 8.8125 15.839844 7.636719 15.144531 6.210938 14.433594 Z M 6.210938 14.433594 "/>
</g>
</svg>
