
<svg xmlns="http://www.w3.org/2000/svg" xmlns:xlink="http://www.w3.org/1999/xlink" width="22px" height="22px" viewBox="0 0 22 22" version="1.1">
<defs>
<linearGradient id="linear0" gradientUnits="userSpaceOnUse" x1="0" y1="47" x2="0" y2="1" gradientTransform="matrix(0.289119,0,0,0.276181,4.375766,4.252187)">
<stop offset="0" style="stop-color:rgb(89.411765%,89.411765%,89.411765%);stop-opacity:1;"/>
<stop offset="1" style="stop-color:rgb(93.333333%,93.333333%,93.333333%);stop-opacity:1;"/>
</linearGradient>
</defs>
<g id="surface1">
<path style=" stroke:none;fill-rule:nonzero;fill:rgb(82.745098%,82.745098%,82.745098%);fill-opacity:1;" d="M 21.859375 10.167969 C 23.109375 23.511719 2.046875 27.105469 0.410156 13.402344 C -1.617188 0.800781 17.476562 -5.6875 21.292969 6.832031 C 21.710938 7.890625 21.703125 9.046875 21.859375 10.167969 Z M 21.859375 10.167969 "/>
<path style=" stroke:none;fill-rule:nonzero;fill:rgb(0%,0%,0%);fill-opacity:0.0509804;" d="M 14.875 5.632812 C 16.566406 6.753906 17.675781 8.625 17.675781 10.742188 C 17.675781 14.175781 14.761719 16.957031 11.171875 16.957031 C 8.953125 16.957031 6.996094 15.898438 5.820312 14.28125 C 6.121094 14.785156 6.488281 15.246094 6.914062 15.652344 C 8.09375 16.679688 9.664062 17.300781 11.386719 17.300781 C 15.058594 17.300781 18.035156 14.457031 18.035156 10.949219 C 18.035156 9.304688 17.382812 7.804688 16.308594 6.679688 C 15.886719 6.269531 15.402344 5.917969 14.875 5.632812 Z M 16.308594 6.679688 C 17.421875 7.8125 18.109375 9.339844 18.109375 11.019531 C 18.109375 14.527344 15.132812 17.371094 11.457031 17.371094 C 9.699219 17.371094 8.101562 16.71875 6.914062 15.652344 C 8.117188 16.796875 9.773438 17.507812 11.601562 17.507812 C 15.277344 17.507812 18.253906 14.664062 18.253906 11.15625 C 18.253906 9.40625 17.507812 7.824219 16.308594 6.679688 Z M 16.308594 6.679688 "/>
<path style=" stroke:none;fill-rule:nonzero;fill:rgb(0%,0%,0%);fill-opacity:0.101961;" d="M 16.308594 6.679688 C 17.382812 7.804688 18.035156 9.304688 18.035156 10.949219 C 18.035156 14.457031 15.058594 17.300781 11.386719 17.300781 C 9.664062 17.300781 8.097656 16.679688 6.914062 15.652344 C 8.101562 16.71875 9.699219 17.371094 11.457031 17.371094 C 15.132812 17.371094 18.109375 14.527344 18.109375 11.019531 C 18.109375 9.339844 17.425781 7.8125 16.308594 6.679688 Z M 16.308594 6.679688 "/>
<path style=" stroke:none;fill-rule:nonzero;fill:rgb(0%,0%,0%);fill-opacity:0.2;" d="M 13.410156 4.90625 C 15.902344 5.777344 17.675781 8.0625 17.675781 10.742188 C 17.675781 14.175781 14.761719 16.957031 11.171875 16.957031 C 8.363281 16.957031 5.972656 15.261719 5.0625 12.882812 C 6.074219 15.851562 9.1875 17.679688 12.414062 17.199219 C 15.640625 16.71875 18.023438 14.070312 18.039062 10.953125 C 18.035156 8.191406 16.164062 5.75 13.410156 4.910156 Z M 13.410156 4.90625 "/>
<path style=" stroke:none;fill-rule:nonzero;fill:url(#linear0);" d="M 11.316406 4.527344 L 11.316406 7.566406 L 12.472656 7.566406 L 13.917969 8.671875 L 13.917969 9.5 L 12.761719 9.5 L 12.761719 9.222656 L 12.179688 8.671875 L 11.316406 8.671875 L 11.316406 10.328125 L 12.761719 10.328125 L 13.917969 11.433594 L 13.917969 13.089844 L 12.472656 14.195312 L 11.316406 14.195312 L 11.316406 17.230469 C 14.988281 17.230469 17.964844 14.390625 17.964844 10.878906 C 17.964844 7.371094 14.988281 4.527344 11.316406 4.527344 Z M 11.316406 14.195312 L 11.316406 13.089844 L 10.738281 13.089844 L 10.160156 12.539062 L 10.160156 12.261719 L 8.710938 12.261719 L 8.710938 13.089844 L 10.160156 14.195312 Z M 11.316406 13.089844 L 12.179688 13.089844 L 12.761719 12.539062 L 12.761719 11.984375 L 12.179688 11.433594 L 11.316406 11.433594 Z M 11.316406 11.433594 L 11.316406 10.328125 L 10.738281 10.328125 L 9.867188 9.773438 L 9.867188 9.222656 L 10.738281 8.671875 L 11.316406 8.671875 L 11.316406 7.566406 L 10.160156 7.566406 L 8.710938 8.671875 L 8.710938 10.328125 L 10.160156 11.433594 Z M 11.316406 11.433594 "/>
<path style=" stroke:none;fill-rule:nonzero;fill:rgb(0%,0%,0%);fill-opacity:0.101961;" d="M 11.316406 4.527344 L 11.316406 7.566406 L 11.601562 7.566406 L 11.601562 4.535156 C 11.507812 4.53125 11.410156 4.527344 11.316406 4.527344 Z M 11.316406 7.566406 L 10.160156 7.566406 L 8.710938 8.671875 L 8.710938 10.328125 L 9 10.550781 L 9 8.945312 L 10.445312 7.84375 L 11.316406 7.84375 Z M 11.601562 8.671875 L 11.601562 8.945312 L 12.472656 8.945312 L 12.179688 8.671875 Z M 11.601562 8.945312 L 11.316406 8.945312 L 11.316406 10.328125 L 11.601562 10.328125 Z M 11.316406 10.328125 L 10.738281 10.328125 L 10.160156 9.957031 L 10.160156 10.050781 L 11.023438 10.605469 L 11.316406 10.605469 Z M 13.917969 8.722656 L 13.917969 9.5 L 13.050781 9.5 L 13.050781 9.773438 L 14.207031 9.773438 L 14.207031 8.945312 Z M 11.601562 11.433594 L 11.601562 11.710938 L 12.472656 11.710938 L 12.179688 11.433594 Z M 11.601562 11.710938 L 11.316406 11.710938 L 11.316406 13.089844 L 11.601562 13.089844 Z M 11.316406 13.089844 L 10.738281 13.089844 L 11.023438 13.367188 L 11.316406 13.367188 Z M 13.917969 11.433594 L 13.917969 13.089844 L 12.472656 14.195312 L 11.601562 14.195312 L 11.601562 14.472656 L 12.761719 14.472656 L 14.207031 13.367188 L 14.207031 11.710938 Z M 11.601562 14.472656 L 11.316406 14.472656 L 11.316406 17.230469 C 11.410156 17.230469 11.507812 17.230469 11.601562 17.222656 Z M 8.710938 12.261719 L 8.710938 13.089844 L 9 13.316406 L 9 12.539062 L 10.160156 12.539062 L 10.160156 12.261719 Z M 8.710938 12.261719 "/>
<path style=" stroke:none;fill-rule:nonzero;fill:rgb(29.019608%,29.019608%,29.019608%);fill-opacity:1;" d="M 11.316406 4.527344 C 7.640625 4.527344 4.664062 7.371094 4.664062 10.878906 C 4.664062 14.390625 7.640625 17.230469 11.316406 17.230469 L 11.316406 14.195312 L 10.160156 14.195312 L 8.710938 13.089844 L 8.710938 12.261719 L 10.160156 12.261719 L 10.160156 12.539062 L 10.738281 13.089844 L 11.316406 13.089844 L 11.316406 11.433594 L 10.160156 11.433594 L 8.710938 10.328125 L 8.710938 8.671875 L 10.160156 7.566406 L 11.316406 7.566406 Z M 11.316406 7.566406 L 11.316406 8.671875 L 12.179688 8.671875 L 12.761719 9.222656 L 12.761719 9.5 L 13.917969 9.5 L 13.917969 8.671875 L 12.472656 7.566406 Z M 11.316406 8.671875 L 10.738281 8.671875 L 9.867188 9.222656 L 9.867188 9.773438 L 10.738281 10.328125 L 11.316406 10.328125 Z M 11.316406 10.328125 L 11.316406 11.433594 L 12.179688 11.433594 L 12.761719 11.984375 L 12.761719 12.539062 L 12.179688 13.089844 L 11.316406 13.089844 L 11.316406 14.195312 L 12.472656 14.195312 L 13.917969 13.089844 L 13.917969 11.433594 L 12.761719 10.328125 Z M 11.316406 10.328125 "/>
<path style=" stroke:none;fill-rule:nonzero;fill:rgb(0%,0%,0%);fill-opacity:0.101961;" d="M 15.949219 6.332031 C 17.023438 7.460938 17.675781 8.960938 17.675781 10.605469 C 17.675781 14.113281 14.695312 16.957031 11.023438 16.957031 C 9.304688 16.957031 7.734375 16.332031 6.550781 15.308594 C 7.761719 16.492188 9.449219 17.230469 11.316406 17.230469 C 14.988281 17.230469 17.964844 14.390625 17.964844 10.878906 C 17.964844 9.09375 17.1875 7.484375 15.949219 6.332031 Z M 15.949219 6.332031 "/>
<path style=" stroke:none;fill-rule:nonzero;fill:rgb(29.019608%,29.019608%,29.019608%);fill-opacity:1;" d="M 11.316406 4.527344 C 7.640625 4.527344 4.664062 7.371094 4.664062 10.878906 C 4.664062 14.390625 7.640625 17.230469 11.316406 17.230469 L 11.316406 14.195312 L 10.160156 14.195312 L 8.710938 13.089844 L 8.710938 12.261719 L 10.160156 12.261719 L 10.160156 12.539062 L 10.738281 13.089844 L 11.316406 13.089844 L 11.316406 11.433594 L 10.160156 11.433594 L 8.710938 10.328125 L 8.710938 8.671875 L 10.160156 7.566406 L 11.316406 7.566406 Z M 11.316406 7.566406 L 11.316406 8.671875 L 12.179688 8.671875 L 12.761719 9.222656 L 12.761719 9.5 L 13.917969 9.5 L 13.917969 8.671875 L 12.472656 7.566406 Z M 11.316406 8.671875 L 10.738281 8.671875 L 9.867188 9.222656 L 9.867188 9.773438 L 10.738281 10.328125 L 11.316406 10.328125 Z M 11.316406 10.328125 L 11.316406 11.433594 L 12.179688 11.433594 L 12.761719 11.984375 L 12.761719 12.539062 L 12.179688 13.089844 L 11.316406 13.089844 L 11.316406 14.195312 L 12.472656 14.195312 L 13.917969 13.089844 L 13.917969 11.433594 L 12.761719 10.328125 Z M 11.316406 10.328125 "/>
</g>
</svg>
