
<svg xmlns="http://www.w3.org/2000/svg" xmlns:xlink="http://www.w3.org/1999/xlink" width="22px" height="22px" viewBox="0 0 22 22" version="1.1">
<g id="surface1">
<path style=" stroke:none;fill-rule:nonzero;fill:rgb(25.490196%,64.705882%,78.039216%);fill-opacity:1;" d="M 17.464844 2.148438 C 0.925781 -8.851562 -9.261719 26.214844 12.117188 21.574219 C 20.957031 19.59375 26.320312 7.191406 17.464844 2.148438 Z M 17.464844 2.148438 "/>
<path style=" stroke:none;fill-rule:nonzero;fill:rgb(0%,0%,0%);fill-opacity:0.2;" d="M 10.976562 4.957031 L 6.332031 9.621094 L 10.976562 14.285156 L 10.976562 9.621094 L 15.617188 9.621094 Z M 10.976562 14.285156 L 6.332031 14.285156 L 10.976562 18.949219 Z M 10.976562 14.285156 "/>
<path style=" stroke:none;fill-rule:nonzero;fill:rgb(100%,100%,100%);fill-opacity:1;" d="M 6.332031 13.894531 L 10.976562 13.894531 L 10.976562 18.558594 Z M 6.332031 13.894531 "/>
<path style=" stroke:none;fill-rule:nonzero;fill:rgb(69.019608%,100%,100%);fill-opacity:1;" d="M 6.332031 9.230469 L 10.976562 9.230469 L 10.976562 13.894531 Z M 6.332031 9.230469 "/>
<path style=" stroke:none;fill-rule:nonzero;fill:rgb(100%,100%,100%);fill-opacity:1;" d="M 10.976562 4.570312 L 10.976562 9.230469 L 6.332031 9.230469 Z M 10.976562 4.570312 "/>
<path style=" stroke:none;fill-rule:nonzero;fill:rgb(69.019608%,100%,100%);fill-opacity:1;" d="M 10.976562 4.570312 L 10.976562 9.230469 L 15.617188 9.230469 Z M 10.976562 4.570312 "/>
</g>
</svg>
