
<svg xmlns="http://www.w3.org/2000/svg" xmlns:xlink="http://www.w3.org/1999/xlink" width="22px" height="22px" viewBox="0 0 22 22" version="1.1">
<g id="surface1">
<path style=" stroke:none;fill-rule:nonzero;fill:rgb(28.235294%,23.921569%,54.509804%);fill-opacity:1;" d="M 19.179688 3.480469 C 31.652344 22.519531 -2.421875 29.886719 0.292969 10.300781 C 1.398438 2.3125 14.40625 -3.804688 19.179688 3.480469 Z M 19.179688 3.480469 "/>
<path style=" stroke:none;fill-rule:nonzero;fill:rgb(100%,100%,100%);fill-opacity:1;" d="M 8.820312 17.84375 L 8.558594 17.644531 L 7.324219 17.644531 C 5.757812 17.644531 5.835938 17.691406 5.835938 16.78125 C 5.835938 15.882812 5.78125 15.914062 7.398438 15.914062 L 8.628906 15.914062 L 8.765625 15.746094 C 8.949219 15.523438 9.015625 15.503906 9.628906 15.46875 L 10.15625 15.4375 L 10.15625 14.875 L 9.347656 14.847656 C 8.902344 14.828125 8.480469 14.785156 8.40625 14.75 C 8.335938 14.714844 8.242188 14.605469 8.207031 14.503906 C 8.15625 14.382812 8.136719 12.925781 8.136719 9.664062 C 8.136719 4.640625 8.128906 4.734375 8.453125 4.53125 C 8.582031 4.449219 8.894531 4.441406 11.195312 4.441406 C 13.074219 4.441406 13.835938 4.457031 13.953125 4.507812 C 14.304688 4.652344 14.292969 4.46875 14.292969 9.695312 L 14.292969 14.507812 L 14.140625 14.664062 C 13.992188 14.820312 13.988281 14.820312 13.070312 14.847656 L 12.148438 14.875 L 12.148438 15.4375 L 12.707031 15.464844 C 13.308594 15.492188 13.46875 15.546875 13.632812 15.769531 L 13.734375 15.914062 L 14.855469 15.914062 C 15.964844 15.914062 15.980469 15.914062 16.128906 16.046875 C 16.273438 16.179688 16.285156 16.222656 16.285156 16.796875 C 16.285156 17.667969 16.320312 17.644531 14.890625 17.644531 C 13.800781 17.644531 13.789062 17.648438 13.636719 17.785156 C 13.550781 17.859375 13.429688 17.949219 13.363281 17.980469 C 13.289062 18.015625 12.460938 18.039062 11.164062 18.039062 L 9.082031 18.039062 Z M 8.5625 17.105469 C 8.921875 17.074219 8.945312 17.0625 8.945312 16.925781 C 8.949219 16.84375 8.984375 16.734375 9.03125 16.679688 C 9.109375 16.589844 9.261719 16.582031 11.0625 16.597656 C 12.714844 16.609375 13.011719 16.625 13.054688 16.695312 C 13.082031 16.742188 13.140625 16.855469 13.1875 16.949219 L 13.269531 17.117188 L 14.507812 17.128906 C 15.1875 17.140625 15.769531 17.125 15.796875 17.097656 C 15.855469 17.046875 15.882812 16.371094 15.832031 16.324219 C 15.8125 16.308594 15.246094 16.292969 14.566406 16.285156 L 13.335938 16.277344 L 13.277344 16.09375 C 13.214844 15.898438 13.347656 15.957031 13.363281 16.121094 C 13.371094 16.207031 13.054688 16.113281 12.367188 16.140625 C 11.9375 16.15625 11.046875 16.164062 10.386719 16.152344 C 9.121094 16.128906 8.910156 16.0625 8.984375 16.273438 C 9.027344 16.398438 8.976562 16.417969 8.921875 16.296875 C 8.894531 16.222656 8.6875 16.304688 7.617188 16.304688 L 6.347656 16.304688 L 6.300781 16.457031 C 6.25 16.613281 6.257812 17.027344 6.3125 17.101562 C 6.347656 17.152344 8.035156 17.15625 8.5625 17.105469 Z M 11.492188 15.71875 C 11.546875 15.660156 11.546875 15.558594 11.496094 15.316406 C 11.410156 14.890625 11.644531 14.726562 11.523438 14.988281 C 11.488281 15.066406 11.28125 14.988281 11.160156 14.992188 C 11 14.996094 10.824219 15.070312 10.777344 15.035156 C 10.648438 14.9375 10.828125 15.214844 10.777344 15.503906 L 10.734375 15.738281 L 11.003906 15.757812 C 11.152344 15.769531 11.308594 15.785156 11.347656 15.789062 C 11.386719 15.796875 11.453125 15.765625 11.492188 15.71875 Z M 11.601562 14.378906 C 11.730469 14.332031 12.011719 14.285156 12.230469 14.269531 C 12.675781 14.238281 12.851562 14.5 12.769531 14.363281 C 12.726562 14.292969 12.742188 14.484375 12.824219 14.265625 C 12.890625 14.097656 12.941406 9.105469 12.941406 9.097656 C 12.941406 9.089844 13.5 14.472656 13.398438 14.453125 C 12.648438 13.636719 12.957031 12.285156 12.988281 11.703125 C 12.984375 11.539062 12.878906 11.007812 12.917969 10.398438 C 12.984375 9.398438 12.828125 9.132812 12.949219 9 C 13.019531 8.917969 13.417969 8.847656 13.4375 8.800781 C 13.457031 8.75 13.449219 8.285156 13.421875 7.761719 C 13.390625 7.242188 13.363281 6.441406 13.351562 5.976562 L 13.332031 4.863281 L 13.390625 4.796875 C 13.578125 4.59375 13.851562 4.863281 13.6875 4.804688 C 13.546875 4.757812 8.882812 4.757812 8.742188 4.808594 C 8.578125 4.863281 8.707031 4.609375 8.921875 4.679688 C 9.078125 4.726562 9.011719 5.089844 8.980469 5.195312 C 8.9375 5.351562 9.0625 5.390625 9.605469 5.390625 C 9.839844 5.390625 10.007812 5.417969 10.039062 5.460938 C 10.070312 5.5 10.097656 6.714844 10.097656 8.160156 L 10.097656 10.792969 L 9.648438 10.824219 C 9.230469 10.851562 9.015625 10.917969 9.164062 10.96875 C 9.371094 11.039062 9.398438 11.101562 9.417969 11.597656 C 9.453125 12.394531 9.453125 14.28125 9.558594 14.351562 C 10.285156 14.625 10.191406 14.167969 9.9375 14.605469 C 9.902344 14.65625 9.355469 14.300781 9.367188 14.3125 C 9.382812 14.324219 10.035156 14.257812 10.253906 14.289062 C 10.476562 14.324219 10.78125 14.371094 10.9375 14.394531 C 11.347656 14.464844 11.347656 14.464844 11.601562 14.378906 Z M 11.164062 13.890625 C 11.0625 13.835938 10.957031 13.847656 10.992188 13.28125 C 11.015625 12.9375 11.003906 10.933594 11.015625 8.851562 C 11.027344 6.769531 10.976562 4.984375 11 4.949219 C 11.085938 4.828125 11.363281 4.765625 11.457031 5.058594 C 11.542969 5.316406 11.554688 6.046875 11.558594 9.644531 C 11.558594 12.636719 11.539062 13.824219 11.488281 13.878906 C 11.40625 13.964844 11.316406 13.96875 11.164062 13.890625 Z M 11.957031 8.523438 C 11.894531 8.507812 11.707031 8.335938 11.703125 8.1875 C 11.699219 8.09375 11.695312 7.789062 11.789062 7.664062 C 11.902344 7.507812 12.125 7.539062 12.214844 7.539062 C 12.320312 7.539062 12.710938 7.78125 12.761719 7.988281 C 12.820312 8.210938 12.527344 8.410156 12.472656 8.46875 C 12.375 8.578125 12.070312 8.546875 11.957031 8.523438 Z M 9.960938 9.632812 C 9.988281 9.0625 9.988281 7.917969 9.960938 7.089844 L 9.910156 5.585938 L 9.59375 5.570312 C 9.421875 5.5625 9.199219 5.582031 9.101562 5.613281 L 8.925781 5.675781 L 8.96875 7.46875 C 9.003906 8.910156 8.960938 10.492188 9.03125 10.59375 C 9.085938 10.671875 8.796875 10.519531 9.128906 10.570312 L 9.273438 10.59375 L 9.53125 10.644531 C 9.667969 10.671875 9.8125 10.691406 9.847656 10.683594 C 9.882812 10.675781 9.929688 10.242188 9.960938 9.632812 Z M 9.960938 9.632812 "/>
</g>
</svg>
