
<svg xmlns="http://www.w3.org/2000/svg" xmlns:xlink="http://www.w3.org/1999/xlink" width="22px" height="22px" viewBox="0 0 22 22" version="1.1">
<g id="surface1">
<path style=" stroke:none;fill-rule:nonzero;fill:rgb(100%,54.901961%,0%);fill-opacity:1;" d="M 11.195312 21.808594 C 20.8125 23.730469 24.464844 10.558594 20.296875 3.402344 C 16.976562 -2.296875 5.601562 -0.667969 1.359375 7.027344 C -2.878906 14.722656 3.476562 20.269531 11.195312 21.808594 Z M 11.195312 21.808594 "/>
<path style=" stroke:none;fill-rule:nonzero;fill:rgb(100%,100%,100%);fill-opacity:1;" d="M 6.164062 16.554688 C 4.40625 16.261719 3.347656 15.007812 4.046875 14.054688 C 4.613281 13.292969 5.644531 12.902344 7.128906 12.894531 C 8.085938 12.890625 8.199219 12.910156 8.824219 13.191406 C 9.195312 13.355469 9.535156 13.488281 9.582031 13.488281 C 9.6875 13.488281 9.945312 12.546875 10.855469 8.875 C 11.234375 7.335938 11.550781 6.140625 11.550781 6.21875 C 11.554688 6.292969 11.34375 7.761719 11.085938 9.480469 C 10.242188 15.132812 10.226562 15.195312 9.625 15.726562 C 9.136719 16.15625 8.441406 16.4375 7.5625 16.5625 C 6.859375 16.667969 6.84375 16.667969 6.164062 16.554688 Z M 6.164062 16.554688 "/>
<path style=" stroke:none;fill-rule:nonzero;fill:rgb(100%,100%,100%);fill-opacity:1;" d="M 14.359375 9.414062 C 14.351562 8.777344 14.039062 8.117188 13.074219 6.683594 C 12.390625 5.671875 12.109375 5.324219 11.945312 5.300781 C 11.773438 5.277344 11.738281 5.230469 11.777344 5.070312 C 11.808594 4.957031 11.882812 4.644531 11.945312 4.378906 C 12.046875 3.914062 12.210938 3.710938 12.210938 4.039062 C 12.210938 4.253906 12.90625 5.699219 13.621094 6.964844 C 14.519531 8.550781 14.679688 9.074219 14.445312 9.621094 C 14.386719 9.765625 14.367188 9.71875 14.359375 9.414062 Z M 14.359375 9.414062 "/>
<path style=" stroke:none;fill-rule:nonzero;fill:rgb(100%,100%,100%);fill-opacity:1;" d="M 14.121094 17.875 C 13.542969 17.71875 13.148438 17.492188 12.660156 17.042969 C 12.082031 16.515625 11.703125 15.832031 11.542969 15.039062 C 11.257812 13.613281 12.128906 12.046875 13.585938 11.363281 C 14.035156 11.152344 14.246094 11.113281 14.914062 11.113281 C 15.578125 11.113281 15.789062 11.152344 16.234375 11.359375 C 16.976562 11.707031 17.558594 12.28125 17.917969 13.011719 C 18.199219 13.578125 18.222656 13.699219 18.21875 14.515625 C 18.214844 15.296875 18.179688 15.46875 17.945312 15.960938 C 17.359375 17.171875 16.324219 17.875 15.054688 17.929688 C 14.695312 17.941406 14.273438 17.917969 14.121094 17.875 Z M 14.085938 16.410156 L 14.910156 15.597656 L 15.738281 16.410156 C 16.195312 16.855469 16.609375 17.21875 16.660156 17.21875 C 16.757812 17.21875 17.523438 16.425781 17.523438 16.328125 C 17.523438 16.207031 17.09375 15.664062 16.558594 15.101562 L 16.007812 14.519531 L 16.527344 13.957031 C 16.8125 13.648438 17.160156 13.25 17.296875 13.070312 L 17.539062 12.75 L 17.339844 12.417969 C 17.136719 12.09375 16.816406 11.8125 16.652344 11.8125 C 16.605469 11.8125 16.191406 12.179688 15.730469 12.628906 L 14.898438 13.441406 L 14.460938 12.960938 C 14.222656 12.695312 13.851562 12.328125 13.632812 12.140625 C 13.164062 11.726562 12.988281 11.753906 12.589844 12.296875 C 12.25 12.761719 12.257812 12.78125 13.171875 13.796875 L 13.824219 14.523438 L 13.40625 14.960938 C 12.636719 15.765625 12.3125 16.203125 12.367188 16.367188 C 12.4375 16.558594 13.058594 17.21875 13.171875 17.21875 C 13.21875 17.21875 13.628906 16.855469 14.085938 16.410156 Z M 14.085938 16.410156 "/>
</g>
</svg>
