
<svg xmlns="http://www.w3.org/2000/svg" xmlns:xlink="http://www.w3.org/1999/xlink" width="22px" height="22px" viewBox="0 0 22 22" version="1.1">
<g id="surface1">
<path style=" stroke:none;fill-rule:nonzero;fill:rgb(82.352941%,70.588235%,54.901961%);fill-opacity:1;" d="M 3.851562 3.535156 C -13.492188 26.007812 34.238281 29.203125 18.921875 6.257812 C 15.429688 1.03125 8.445312 -2.417969 3.851562 3.535156 Z M 3.851562 3.535156 "/>
<path style=" stroke:none;fill-rule:nonzero;fill:rgb(0%,0%,0%);fill-opacity:0.101961;" d="M 11.46875 5.578125 L 9.828125 7.003906 L 9.828125 7.359375 L 10.238281 7.71875 L 10.238281 10.214844 L 9.828125 10.214844 L 9.828125 10.929688 L 9.417969 10.929688 L 9.417969 10.214844 L 8.597656 10.214844 L 8.597656 10.929688 L 8.1875 10.929688 L 8.1875 10.214844 L 7.367188 10.214844 L 7.367188 11.640625 L 7.777344 11.640625 L 7.777344 13.425781 L 7.367188 13.425781 L 7.367188 12.710938 L 6.960938 12.710938 L 6.960938 13.425781 L 6.550781 13.425781 L 6.550781 12.710938 L 6.140625 12.710938 L 6.140625 11.285156 L 6.550781 11.285156 L 6.550781 9.859375 L 5.320312 9.859375 L 5.320312 10.570312 L 4.5 10.570312 L 4.5 9.859375 L 3.269531 9.859375 L 3.269531 11.285156 L 3.679688 11.285156 L 3.679688 16.25 C 3.808594 16.414062 3.949219 16.574219 4.089844 16.734375 L 4.089844 16.746094 C 4.113281 16.769531 4.136719 16.792969 4.160156 16.816406 C 4.289062 16.953125 4.429688 17.089844 4.570312 17.222656 C 6.316406 18.671875 8.640625 19.484375 11.058594 19.488281 C 14.453125 19.484375 17.585938 17.894531 19.253906 15.324219 L 19.253906 11.285156 L 19.664062 11.285156 L 19.664062 9.859375 L 18.433594 9.859375 L 18.433594 10.570312 L 17.617188 10.570312 L 17.617188 9.859375 L 16.386719 9.859375 L 16.386719 11.285156 L 16.796875 11.285156 L 16.796875 12.710938 L 16.386719 12.710938 L 16.386719 13.425781 L 15.976562 13.425781 L 15.976562 12.710938 L 15.566406 12.710938 L 15.566406 13.425781 L 15.15625 13.425781 L 15.15625 11.640625 L 15.566406 11.640625 L 15.566406 10.214844 L 14.746094 10.214844 L 14.746094 10.925781 L 14.335938 10.925781 L 14.335938 10.214844 L 13.515625 10.214844 L 13.515625 10.925781 L 13.105469 10.925781 L 13.105469 10.214844 L 12.695312 10.214844 L 12.695312 7.714844 L 13.105469 7.359375 L 13.105469 7.003906 Z M 11.46875 5.578125 "/>
<path style=" stroke:none;fill-rule:nonzero;fill:rgb(29.411765%,25.098039%,29.019608%);fill-opacity:1;" d="M 7.367188 11.640625 L 14.746094 11.640625 L 14.746094 16.992188 L 7.367188 16.992188 Z M 7.367188 11.640625 "/>
<path style=" stroke:none;fill-rule:nonzero;fill:rgb(44.313725%,37.254902%,37.254902%);fill-opacity:1;" d="M 8.597656 15.5625 L 8.597656 19.195312 C 9.402344 19.386719 10.226562 19.484375 11.058594 19.488281 C 11.890625 19.484375 12.714844 19.390625 13.515625 19.203125 L 13.515625 15.5625 Z M 8.597656 15.5625 "/>
<path style=" stroke:none;fill-rule:evenodd;fill:rgb(26.27451%,21.568627%,24.705882%);fill-opacity:1;" d="M 8.1875 15.207031 L 8.597656 15.5625 L 13.515625 15.5625 L 13.925781 15.207031 Z M 8.1875 15.207031 "/>
<path style=" stroke:none;fill-rule:nonzero;fill:rgb(44.313725%,37.254902%,37.254902%);fill-opacity:1;" d="M 8.1875 13.78125 L 8.1875 15.207031 L 13.925781 15.207031 L 13.925781 13.78125 L 13.105469 13.78125 L 13.105469 14.496094 L 12.289062 14.496094 L 12.289062 13.78125 L 11.46875 13.78125 L 11.46875 14.496094 L 10.648438 14.496094 L 10.648438 13.78125 L 9.828125 13.78125 L 9.828125 14.496094 L 9.007812 14.496094 L 9.007812 13.78125 Z M 8.1875 13.78125 "/>
<path style=" stroke:none;fill-rule:nonzero;fill:rgb(30.588235%,25.882353%,28.627451%);fill-opacity:1;" d="M 5.730469 12.351562 L 5.730469 16.992188 L 7.367188 16.992188 L 7.367188 13.066406 L 6.960938 13.066406 L 6.960938 12.351562 L 6.550781 12.351562 L 6.550781 13.066406 L 6.140625 13.066406 L 6.140625 12.351562 Z M 5.730469 12.351562 "/>
<path style=" stroke:none;fill-rule:nonzero;fill:rgb(37.647059%,30.196078%,30.196078%);fill-opacity:1;" d="M 3.269531 11.285156 L 3.269531 15.894531 C 3.570312 16.285156 3.910156 16.652344 4.285156 16.992188 L 5.730469 16.992188 L 5.730469 11.285156 "/>
<path style=" stroke:none;fill-rule:nonzero;fill:rgb(30.588235%,25.882353%,28.627451%);fill-opacity:1;" d="M 15.15625 12.351562 L 15.15625 13.066406 L 14.746094 13.066406 L 14.746094 16.992188 L 16.386719 16.992188 L 16.386719 12.351562 L 15.976562 12.351562 L 15.976562 13.066406 L 15.566406 13.066406 L 15.566406 12.351562 Z M 15.15625 12.351562 "/>
<path style=" stroke:none;fill-rule:nonzero;fill:rgb(37.647059%,30.196078%,30.196078%);fill-opacity:1;" d="M 16.386719 11.285156 L 16.386719 16.992188 L 17.816406 16.992188 C 18.195312 16.65625 18.539062 16.292969 18.84375 15.90625 L 18.84375 11.285156 "/>
<path style=" stroke:none;fill-rule:nonzero;fill:rgb(37.647059%,30.196078%,30.196078%);fill-opacity:1;" d="M 2.859375 9.5 L 2.859375 10.929688 L 6.140625 10.929688 L 6.140625 9.5 L 4.910156 9.5 L 4.910156 10.214844 L 4.089844 10.214844 L 4.089844 9.5 Z M 2.859375 9.5 "/>
<path style=" stroke:none;fill-rule:nonzero;fill:rgb(37.647059%,30.196078%,30.196078%);fill-opacity:1;" d="M 15.976562 9.5 L 15.976562 10.929688 L 19.253906 10.929688 L 19.253906 9.5 L 18.027344 9.5 L 18.027344 10.214844 L 17.207031 10.214844 L 17.207031 9.5 Z M 15.976562 9.5 "/>
<path style=" stroke:none;fill-rule:nonzero;fill:rgb(53.333333%,43.137255%,40.784314%);fill-opacity:1;" d="M 9.828125 7.359375 L 12.289062 7.359375 L 12.289062 10.570312 L 9.828125 10.570312 Z M 9.828125 7.359375 "/>
<path style=" stroke:none;fill-rule:nonzero;fill:rgb(17.647059%,17.647059%,17.647059%);fill-opacity:1;" d="M 10.648438 8.074219 L 11.46875 8.074219 L 11.46875 9.144531 L 10.648438 9.144531 Z M 10.648438 8.074219 "/>
<path style=" stroke:none;fill-rule:evenodd;fill:rgb(40%,32.156863%,32.156863%);fill-opacity:1;" d="M 12.289062 7.359375 L 12.695312 7.003906 L 9.417969 7.003906 L 9.828125 7.359375 Z M 12.289062 7.359375 "/>
<path style=" stroke:none;fill-rule:nonzero;fill:rgb(28.235294%,21.176471%,21.960784%);fill-opacity:1;" d="M 9.417969 6.648438 L 12.695312 6.648438 L 12.695312 7.003906 L 9.417969 7.003906 Z M 9.417969 6.648438 "/>
<path style=" stroke:none;fill-rule:evenodd;fill:rgb(65.882353%,52.941176%,46.666667%);fill-opacity:1;" d="M 9.417969 6.648438 L 11.058594 5.21875 L 12.695312 6.648438 Z M 9.417969 6.648438 "/>
<path style=" stroke:none;fill-rule:nonzero;fill:rgb(17.647059%,17.647059%,17.647059%);fill-opacity:1;" d="M 17.207031 11.640625 L 18.027344 11.640625 L 18.027344 12.710938 L 17.207031 12.710938 Z M 17.207031 11.640625 "/>
<path style=" stroke:none;fill-rule:nonzero;fill:rgb(17.647059%,17.647059%,17.647059%);fill-opacity:1;" d="M 17.207031 13.78125 L 18.027344 13.78125 L 18.027344 14.851562 L 17.207031 14.851562 Z M 17.207031 13.78125 "/>
<path style=" stroke:none;fill-rule:nonzero;fill:rgb(17.647059%,17.647059%,17.647059%);fill-opacity:1;" d="M 4.089844 11.640625 L 4.910156 11.640625 L 4.910156 12.710938 L 4.089844 12.710938 Z M 4.089844 11.640625 "/>
<path style=" stroke:none;fill-rule:nonzero;fill:rgb(17.647059%,17.647059%,17.647059%);fill-opacity:1;" d="M 4.089844 13.78125 L 4.910156 13.78125 L 4.910156 14.851562 L 4.089844 14.851562 Z M 4.089844 13.78125 "/>
<path style=" stroke:none;fill-rule:nonzero;fill:rgb(17.647059%,17.647059%,17.647059%);fill-opacity:1;" d="M 8.1875 11.996094 L 9.007812 11.996094 L 9.007812 13.066406 L 8.1875 13.066406 Z M 8.1875 11.996094 "/>
<path style=" stroke:none;fill-rule:nonzero;fill:rgb(17.647059%,17.647059%,17.647059%);fill-opacity:1;" d="M 10.648438 11.996094 L 11.46875 11.996094 L 11.46875 13.066406 L 10.648438 13.066406 Z M 10.648438 11.996094 "/>
<path style=" stroke:none;fill-rule:nonzero;fill:rgb(17.647059%,17.647059%,17.647059%);fill-opacity:1;" d="M 13.105469 11.996094 L 13.925781 11.996094 L 13.925781 13.066406 L 13.105469 13.066406 Z M 13.105469 11.996094 "/>
<path style=" stroke:none;fill-rule:nonzero;fill:rgb(17.647059%,17.647059%,17.647059%);fill-opacity:1;" d="M 9.417969 15.921875 L 10.238281 15.921875 L 10.238281 16.992188 L 9.417969 16.992188 Z M 9.417969 15.921875 "/>
<path style=" stroke:none;fill-rule:nonzero;fill:rgb(17.647059%,17.647059%,17.647059%);fill-opacity:1;" d="M 11.878906 15.921875 L 12.695312 15.921875 L 12.695312 16.992188 L 11.878906 16.992188 Z M 11.878906 15.921875 "/>
<path style=" stroke:none;fill-rule:nonzero;fill:rgb(53.333333%,43.137255%,40.784314%);fill-opacity:1;" d="M 14.335938 16.277344 L 14.335938 16.992188 L 13.515625 16.992188 L 13.515625 19.203125 C 15.152344 18.816406 16.636719 18.050781 17.816406 16.992188 C 18.035156 16.796875 18.242188 16.589844 18.433594 16.375 L 18.433594 16.277344 L 17.617188 16.277344 L 17.617188 16.992188 L 16.796875 16.992188 L 16.796875 16.277344 L 15.976562 16.277344 L 15.976562 16.992188 L 15.15625 16.992188 L 15.15625 16.277344 Z M 14.335938 16.277344 "/>
<path style=" stroke:none;fill-rule:nonzero;fill:rgb(28.235294%,21.176471%,21.960784%);fill-opacity:1;" d="M 3.269531 10.929688 L 5.730469 10.929688 L 5.730469 11.285156 L 3.269531 11.285156 Z M 3.269531 10.929688 "/>
<path style=" stroke:none;fill-rule:nonzero;fill:rgb(28.235294%,21.176471%,21.960784%);fill-opacity:1;" d="M 16.386719 10.929688 L 18.84375 10.929688 L 18.84375 11.285156 L 16.386719 11.285156 Z M 16.386719 10.929688 "/>
<path style=" stroke:none;fill-rule:nonzero;fill:rgb(19.607843%,16.862745%,21.960784%);fill-opacity:1;" d="M 7.367188 11.285156 L 14.746094 11.285156 L 14.746094 11.640625 L 7.367188 11.640625 Z M 7.367188 11.285156 "/>
<path style=" stroke:none;fill-rule:nonzero;fill:rgb(53.333333%,43.137255%,40.784314%);fill-opacity:1;" d="M 3.679688 16.277344 L 3.679688 16.390625 C 3.871094 16.597656 4.074219 16.800781 4.285156 16.992188 C 5.46875 18.050781 6.960938 18.8125 8.597656 19.195312 L 8.597656 16.992188 L 7.777344 16.992188 L 7.777344 16.277344 L 6.960938 16.277344 L 6.960938 16.992188 L 6.140625 16.992188 L 6.140625 16.277344 L 5.320312 16.277344 L 5.320312 16.992188 L 4.5 16.992188 L 4.5 16.277344 Z M 3.679688 16.277344 "/>
<path style=" stroke:none;fill-rule:nonzero;fill:rgb(29.411765%,25.098039%,29.019608%);fill-opacity:1;" d="M 6.960938 9.859375 L 6.960938 11.285156 L 15.15625 11.285156 L 15.15625 9.859375 L 14.335938 9.859375 L 14.335938 10.570312 L 13.925781 10.570312 L 13.925781 9.859375 L 13.105469 9.859375 L 13.105469 10.570312 L 12.695312 10.570312 L 12.695312 9.859375 L 11.878906 9.859375 L 11.878906 10.570312 L 11.46875 10.570312 L 11.46875 9.859375 L 10.648438 9.859375 L 10.648438 10.570312 L 10.238281 10.570312 L 10.238281 9.859375 L 9.417969 9.859375 L 9.417969 10.570312 L 9.007812 10.570312 L 9.007812 9.859375 L 8.1875 9.859375 L 8.1875 10.570312 L 7.777344 10.570312 L 7.777344 9.859375 Z M 6.960938 9.859375 "/>
</g>
</svg>
