
<svg xmlns="http://www.w3.org/2000/svg" xmlns:xlink="http://www.w3.org/1999/xlink" width="22px" height="22px" viewBox="0 0 22 22" version="1.1">
<defs>
<clipPath id="clip1">
  <path d="M 7.792969 5.042969 L 14.667969 5.042969 L 14.667969 17.417969 L 7.792969 17.417969 Z M 7.792969 5.042969 "/>
</clipPath>
<clipPath id="clip2">
  <path d="M 24.539062 10.660156 C 24.539062 17.519531 18.433594 23.074219 10.90625 23.074219 C 3.382812 23.074219 -2.726562 17.519531 -2.726562 10.660156 C -2.726562 3.800781 3.382812 -1.753906 10.90625 -1.753906 C 18.433594 -1.753906 24.539062 3.800781 24.539062 10.660156 Z M 24.539062 10.660156 "/>
</clipPath>
<clipPath id="clip3">
  <path d="M 7.332031 4.582031 L 14 4.582031 L 14 16.957031 L 7.332031 16.957031 Z M 7.332031 4.582031 "/>
</clipPath>
<clipPath id="clip4">
  <path d="M 24.539062 10.660156 C 24.539062 17.519531 18.433594 23.074219 10.90625 23.074219 C 3.382812 23.074219 -2.726562 17.519531 -2.726562 10.660156 C -2.726562 3.800781 3.382812 -1.753906 10.90625 -1.753906 C 18.433594 -1.753906 24.539062 3.800781 24.539062 10.660156 Z M 24.539062 10.660156 "/>
</clipPath>
</defs>
<g id="surface1">
<path style=" stroke:none;fill-rule:nonzero;fill:rgb(38.431373%,38.431373%,38.823529%);fill-opacity:1;" d="M 0.0234375 11.214844 C 0.203125 8.945312 1.289062 6.292969 2.800781 4.441406 C 4.640625 2.191406 7.460938 0.542969 10.242188 0.101562 C 10.851562 0.00390625 12.253906 -0.0234375 12.878906 0.046875 C 15.472656 0.351562 18.050781 1.871094 19.734375 4.09375 C 20.648438 5.300781 21.371094 6.894531 21.691406 8.390625 C 22.515625 12.285156 20.949219 16.34375 17.550781 19.128906 C 15.511719 20.796875 13.457031 21.660156 11.023438 21.871094 C 8.109375 22.125 4.984375 20.976562 2.882812 18.882812 C 1.230469 17.234375 0.179688 15.027344 0.0507812 12.933594 C 0.03125 12.628906 0.0078125 12.257812 -0.00390625 12.105469 C -0.015625 11.953125 0 11.554688 0.0234375 11.214844 Z M 0.0234375 11.214844 "/>
<g clip-path="url(#clip1)" clip-rule="nonzero">
<g clip-path="url(#clip2)" clip-rule="nonzero">
<path style=" stroke:none;fill-rule:nonzero;fill:rgb(0%,0%,0%);fill-opacity:0.101961;" d="M 13.871094 5.261719 C 9.992188 5.261719 7.945312 7.964844 7.945312 10.121094 L 7.945312 17.140625 L 13.277344 17.140625 L 13.277344 10.664062 C 13.21875 10.109375 13.570312 10.152344 13.871094 10.125 L 14.464844 10.125 L 14.464844 5.265625 L 13.871094 5.265625 M 13.871094 5.804688 L 13.871094 7.421875 C 11.300781 7.371094 10.234375 8.921875 10.3125 10.660156 L 10.3125 16.597656 L 8.535156 16.597656 L 8.535156 10.117188 C 8.535156 8.835938 9.71875 5.800781 13.871094 5.800781 M 13.351562 7.960938 C 13.515625 7.953125 13.6875 7.953125 13.871094 7.960938 L 13.871094 9.582031 C 12.761719 9.554688 12.679688 10.085938 12.6875 10.660156 L 12.6875 16.59375 L 10.90625 16.59375 L 10.90625 10.660156 C 10.902344 9.816406 10.921875 8.074219 13.351562 7.960938 M 13.351562 7.960938 "/>
</g>
</g>
<g clip-path="url(#clip3)" clip-rule="nonzero">
<g clip-path="url(#clip4)" clip-rule="nonzero">
<path style=" stroke:none;fill-rule:nonzero;fill:rgb(81.176471%,58.039216%,9.803922%);fill-opacity:1;" d="M 13.277344 4.726562 C 9.398438 4.726562 7.351562 7.421875 7.351562 9.582031 L 7.351562 16.597656 L 12.6875 16.597656 L 12.6875 10.125 C 12.628906 9.566406 12.976562 9.613281 13.277344 9.582031 L 13.871094 9.582031 L 13.871094 4.726562 L 13.277344 4.726562 M 13.277344 5.261719 L 13.277344 6.882812 C 10.707031 6.832031 9.644531 8.382812 9.722656 10.121094 L 9.722656 16.058594 L 7.945312 16.058594 L 7.945312 9.582031 C 7.945312 8.296875 9.128906 5.261719 13.277344 5.261719 M 12.761719 7.421875 C 12.921875 7.414062 13.09375 7.414062 13.277344 7.421875 L 13.277344 9.042969 C 12.167969 9.015625 12.085938 9.546875 12.09375 10.117188 L 12.09375 16.054688 L 10.3125 16.054688 L 10.3125 10.117188 C 10.3125 9.277344 10.332031 7.535156 12.761719 7.421875 M 12.761719 7.421875 "/>
</g>
</g>
</g>
</svg>
