
<svg xmlns="http://www.w3.org/2000/svg" xmlns:xlink="http://www.w3.org/1999/xlink" width="22px" height="22px" viewBox="0 0 22 22" version="1.1">
<g id="surface1">
<path style=" stroke:none;fill-rule:nonzero;fill:rgb(63.529412%,65.490196%,68.235294%);fill-opacity:1;" d="M 4.511719 20.015625 C 11.085938 23.140625 17.203125 22.632812 20.046875 17.445312 C 24.046875 10.132812 22.179688 -2.183594 9.804688 0.539062 C 1.058594 2.523438 -4.25 14.960938 4.511719 20.015625 "/>
<path style="fill-rule:nonzero;fill:rgb(41.176471%,41.176471%,41.176471%);fill-opacity:1;stroke-width:0.957;stroke-linecap:butt;stroke-linejoin:miter;stroke:rgb(41.176471%,41.176471%,41.176471%);stroke-opacity:1;stroke-miterlimit:4;" d="M 53.454545 936.450909 L 92.409091 936.450909 C 97.590909 936.450909 101.818182 940.632727 101.818182 945.86 L 101.818182 981.814545 C 101.818182 987.041818 97.590909 991.269091 92.409091 991.269091 L 53.454545 991.269091 C 48.272727 991.269091 44.045455 987.041818 44.045455 981.814545 L 44.045455 945.86 C 44.045455 940.632727 48.272727 936.450909 53.454545 936.450909 Z M 53.454545 936.450909 " transform="matrix(0.0859375,0,0,0.0859375,0,-68.437187)"/>
<path style="fill-rule:nonzero;fill:rgb(41.176471%,41.176471%,41.176471%);fill-opacity:1;stroke-width:0.957;stroke-linecap:butt;stroke-linejoin:miter;stroke:rgb(41.176471%,41.176471%,41.176471%);stroke-opacity:1;stroke-miterlimit:4;" d="M 163.727273 935.36 L 202.681818 935.36 C 207.863636 935.36 212.090909 939.632727 212.090909 944.814545 L 212.090909 980.769091 C 212.090909 985.996364 207.863636 990.178182 202.681818 990.178182 L 163.727273 990.178182 C 158.5 990.178182 154.318182 985.996364 154.318182 980.769091 L 154.318182 944.814545 C 154.318182 939.632727 158.5 935.36 163.727273 935.36 Z M 163.727273 935.36 " transform="matrix(0.0859375,0,0,0.0859375,0,-68.437187)"/>
<path style="fill-rule:nonzero;fill:rgb(41.176471%,41.176471%,41.176471%);fill-opacity:1;stroke-width:0.957;stroke-linecap:butt;stroke-linejoin:miter;stroke:rgb(41.176471%,41.176471%,41.176471%);stroke-opacity:1;stroke-miterlimit:4;" d="M 107 837.36 L 146 837.36 C 151.181818 837.36 155.363636 841.587273 155.363636 846.814545 L 155.363636 882.769091 C 155.363636 887.950909 151.181818 892.178182 146 892.178182 L 107 892.178182 C 101.818182 892.178182 97.636364 887.950909 97.636364 882.769091 L 97.636364 846.814545 C 97.636364 841.587273 101.818182 837.36 107 837.36 Z M 107 837.36 " transform="matrix(0.0859375,0,0,0.0859375,0,-68.437187)"/>
<path style="fill-rule:nonzero;fill:rgb(41.176471%,41.176471%,41.176471%);fill-opacity:1;stroke-width:0.974;stroke-linecap:butt;stroke-linejoin:miter;stroke:rgb(41.176471%,41.176471%,41.176471%);stroke-opacity:1;stroke-miterlimit:4;" d="M 76.636364 902.723636 L 175.863636 902.723636 C 181.227273 902.723636 185.590909 904.632727 185.590909 906.905455 C 185.590909 909.269091 181.227273 911.132727 175.863636 911.132727 L 76.636364 911.132727 C 71.227273 911.132727 66.863636 909.269091 66.863636 906.905455 C 66.863636 904.632727 71.227273 902.723636 76.636364 902.723636 Z M 76.636364 902.723636 " transform="matrix(0.0859375,0,0,0.0859375,0,-68.437187)"/>
<path style="fill-rule:nonzero;fill:rgb(41.176471%,41.176471%,41.176471%);fill-opacity:1;stroke-width:0.448;stroke-linecap:butt;stroke-linejoin:miter;stroke:rgb(41.176471%,41.176471%,41.176471%);stroke-opacity:1;stroke-miterlimit:4;" d="M 905.769091 -186.772727 L 925.632727 -186.772727 C 926.723636 -186.772727 927.587273 -184.772727 927.587273 -182.318182 C 927.587273 -179.863636 926.723636 -177.863636 925.632727 -177.863636 L 905.769091 -177.863636 C 904.678182 -177.863636 903.86 -179.863636 903.86 -182.318182 C 903.86 -184.772727 904.678182 -186.772727 905.769091 -186.772727 Z M 905.769091 -186.772727 " transform="matrix(0,0.0859375,-0.0859375,0,0,-68.437187)"/>
<path style="fill-rule:nonzero;fill:rgb(41.176471%,41.176471%,41.176471%);fill-opacity:1;stroke-width:0.432;stroke-linecap:butt;stroke-linejoin:miter;stroke:rgb(41.176471%,41.176471%,41.176471%);stroke-opacity:1;stroke-miterlimit:4;" d="M 906.496364 -75.454545 L 924.905455 -75.454545 C 925.905455 -75.454545 926.723636 -73.454545 926.723636 -71 C 926.723636 -68.5 925.905455 -66.5 924.905455 -66.5 L 906.496364 -66.5 C 905.496364 -66.5 904.678182 -68.5 904.678182 -71 C 904.678182 -73.454545 905.496364 -75.454545 906.496364 -75.454545 Z M 906.496364 -75.454545 " transform="matrix(0,0.0859375,-0.0859375,0,0,-68.437187)"/>
<path style="fill-rule:nonzero;fill:rgb(41.176471%,41.176471%,41.176471%);fill-opacity:1;stroke-width:0.957;stroke-linecap:butt;stroke-linejoin:miter;stroke:rgb(41.176471%,41.176471%,41.176471%);stroke-opacity:1;stroke-miterlimit:4;" d="M 135.136364 907.632727 C 135.136364 902.314545 130.863636 898.041818 125.590909 898.041818 C 120.318182 898.041818 116.045455 902.314545 116.045455 907.632727 C 116.045455 912.905455 120.318182 917.178182 125.590909 917.178182 C 130.863636 917.178182 135.136364 912.905455 135.136364 907.632727 Z M 135.136364 907.632727 " transform="matrix(0.0859375,0,0,0.0859375,0,-68.437187)"/>
<path style="fill-rule:nonzero;fill:rgb(41.176471%,41.176471%,41.176471%);fill-opacity:1;stroke-width:0.957;stroke-linecap:butt;stroke-linejoin:miter;stroke:rgb(41.176471%,41.176471%,41.176471%);stroke-opacity:1;stroke-miterlimit:4;" d="M 192.318182 923.041818 C 192.318182 917.723636 188.045455 913.450909 182.727273 913.450909 C 177.5 913.450909 173.227273 917.723636 173.227273 923.041818 C 173.227273 928.314545 177.5 932.632727 182.727273 932.632727 C 188.045455 932.632727 192.318182 928.314545 192.318182 923.041818 Z M 192.318182 923.041818 " transform="matrix(0.0859375,0,0,0.0859375,0,-68.437187)"/>
<path style="fill-rule:nonzero;fill:rgb(41.176471%,41.176471%,41.176471%);fill-opacity:1;stroke-width:0.957;stroke-linecap:butt;stroke-linejoin:miter;stroke:rgb(41.176471%,41.176471%,41.176471%);stroke-opacity:1;stroke-miterlimit:4;" d="M 80.136364 923.450909 C 80.136364 918.132727 75.818182 913.86 70.545455 913.86 C 65.272727 913.86 61 918.132727 61 923.450909 C 61 928.769091 65.272727 933.041818 70.545455 933.041818 C 75.818182 933.041818 80.136364 928.769091 80.136364 923.450909 Z M 80.136364 923.450909 " transform="matrix(0.0859375,0,0,0.0859375,0,-68.437187)"/>
<path style="fill-rule:nonzero;fill:rgb(60.392157%,80.392157%,19.607843%);fill-opacity:1;stroke-width:1.638;stroke-linecap:butt;stroke-linejoin:miter;stroke:rgb(41.176471%,41.176471%,41.176471%);stroke-opacity:1;stroke-miterlimit:4;" d="M 141.636364 863.950909 C 141.636364 854.587273 134.545455 846.996364 125.818182 846.996364 C 117.045455 846.996364 110 854.587273 110 863.950909 C 110 873.314545 117.045455 880.905455 125.818182 880.905455 C 134.545455 880.905455 141.636364 873.314545 141.636364 863.950909 Z M 141.636364 863.950909 " transform="matrix(0.0859375,0,0,0.0859375,0,-68.437187)"/>
<path style="fill-rule:nonzero;fill:rgb(60.392157%,80.392157%,19.607843%);fill-opacity:1;stroke-width:1.638;stroke-linecap:butt;stroke-linejoin:miter;stroke:rgb(41.176471%,41.176471%,41.176471%);stroke-opacity:1;stroke-miterlimit:4;" d="M 87.454545 963.678182 C 87.454545 954.36 80.363636 946.723636 71.636364 946.723636 C 62.909091 946.723636 55.772727 954.36 55.772727 963.678182 C 55.772727 973.087273 62.909091 980.632727 71.636364 980.632727 C 80.363636 980.632727 87.454545 973.087273 87.454545 963.678182 Z M 87.454545 963.678182 " transform="matrix(0.0859375,0,0,0.0859375,0,-68.437187)"/>
<path style="fill-rule:nonzero;fill:rgb(100%,100%,0%);fill-opacity:1;stroke-width:1.638;stroke-linecap:butt;stroke-linejoin:miter;stroke:rgb(41.176471%,41.176471%,41.176471%);stroke-opacity:1;stroke-miterlimit:4;" d="M 198.818182 963.269091 C 198.818182 953.905455 191.727273 946.314545 183 946.314545 C 174.227273 946.314545 167.136364 953.905455 167.136364 963.269091 C 167.136364 972.632727 174.227273 980.223636 183 980.223636 C 191.727273 980.223636 198.818182 972.632727 198.818182 963.269091 Z M 198.818182 963.269091 " transform="matrix(0.0859375,0,0,0.0859375,0,-68.437187)"/>
</g>
</svg>
