
<svg xmlns="http://www.w3.org/2000/svg" xmlns:xlink="http://www.w3.org/1999/xlink" width="22px" height="22px" viewBox="0 0 22 22" version="1.1">
<g id="surface1">
<path style=" stroke:none;fill-rule:nonzero;fill:rgb(95.294118%,69.803922%,18.823529%);fill-opacity:1;" d="M 8.503906 21.621094 C -11.9375 17.363281 10.007812 -11.925781 20.398438 5.667969 C 24.851562 12.503906 19.015625 23.808594 8.503906 21.621094 Z M 8.503906 21.621094 "/>
<path style=" stroke:none;fill-rule:nonzero;fill:rgb(100%,100%,100%);fill-opacity:0.968627;" d="M 6.515625 16.53125 C 5.992188 16.347656 5.464844 15.910156 5.105469 15.347656 C 4.9375 15.089844 4.917969 14.96875 4.917969 14.324219 C 4.921875 13.761719 4.953125 13.535156 5.066406 13.339844 C 5.320312 12.882812 5.710938 12.5 6.144531 12.277344 C 6.550781 12.066406 6.597656 12.058594 7.566406 12.0625 L 8.566406 12.0625 L 8.566406 8.550781 L 9.84375 7.371094 L 11.117188 6.195312 L 13.574219 6.230469 L 16.027344 6.269531 L 16.027344 10.648438 C 16.027344 15.488281 16.058594 15.164062 15.511719 15.796875 C 15.363281 15.960938 15.0625 16.207031 14.832031 16.34375 C 14.429688 16.585938 14.398438 16.589844 13.59375 16.589844 C 12.644531 16.589844 12.371094 16.496094 11.796875 15.960938 C 11.234375 15.441406 11.125 15.167969 11.121094 14.324219 C 11.121094 13.75 11.148438 13.542969 11.265625 13.34375 C 11.5 12.945312 12.105469 12.386719 12.523438 12.191406 C 12.875 12.023438 12.976562 12.011719 13.796875 12.035156 L 14.691406 12.058594 L 14.691406 8.585938 L 9.925781 8.585938 L 9.882812 11.796875 L 9.839844 15.011719 L 9.617188 15.386719 C 9.371094 15.804688 8.875 16.25 8.425781 16.449219 C 8.046875 16.621094 6.914062 16.667969 6.515625 16.53125 Z M 7.90625 15.269531 C 8.683594 14.921875 8.699219 13.804688 7.929688 13.382812 C 6.960938 12.847656 5.824219 13.875 6.355469 14.800781 C 6.660156 15.332031 7.3125 15.53125 7.90625 15.269531 Z M 14.222656 15.175781 C 14.46875 15.011719 14.691406 14.609375 14.691406 14.324219 C 14.691406 14.007812 14.457031 13.621094 14.140625 13.425781 C 13.636719 13.109375 12.847656 13.308594 12.578125 13.816406 C 12.433594 14.09375 12.445312 14.578125 12.605469 14.863281 C 12.875 15.347656 13.710938 15.511719 14.222656 15.175781 Z M 14.222656 15.175781 "/>
</g>
</svg>
