
<svg xmlns="http://www.w3.org/2000/svg" xmlns:xlink="http://www.w3.org/1999/xlink" width="22px" height="22px" viewBox="0 0 22 22" version="1.1">
<g id="surface1">
<path style=" stroke:none;fill-rule:nonzero;fill:rgb(82.745098%,82.745098%,82.745098%);fill-opacity:1;" d="M 21.652344 8.570312 C 17.421875 -11.671875 -11.660156 10.058594 5.8125 20.34375 C 12.597656 24.753906 23.824219 18.980469 21.652344 8.570312 Z M 21.652344 8.570312 "/>
<path style=" stroke:none;fill-rule:nonzero;fill:rgb(100%,100%,100%);fill-opacity:0.988235;" d="M 6.285156 5.945312 L 17.230469 5.945312 C 17.257812 5.945312 17.28125 5.96875 17.28125 6 L 17.28125 17.132812 C 17.28125 17.160156 17.257812 17.183594 17.230469 17.183594 L 6.285156 17.183594 C 6.257812 17.183594 6.230469 17.160156 6.230469 17.132812 L 6.230469 6 C 6.230469 5.96875 6.257812 5.945312 6.285156 5.945312 Z M 6.285156 5.945312 "/>
<path style=" stroke:none;fill-rule:nonzero;fill:rgb(80%,84.705882%,89.019608%);fill-opacity:1;" d="M 6.386719 17.246094 C 6.269531 17.222656 6.082031 17.09375 5.972656 16.960938 C 5.78125 16.726562 5.777344 16.597656 5.777344 11.503906 C 5.777344 6.367188 5.78125 6.28125 5.980469 6.039062 L 6.179688 5.792969 L 17.199219 5.792969 L 17.371094 6.046875 C 17.53125 6.28125 17.542969 6.679688 17.542969 11.519531 L 17.542969 16.742188 L 17.003906 17.261719 L 11.804688 17.273438 C 8.941406 17.28125 6.503906 17.269531 6.386719 17.246094 Z M 12.734375 16.277344 C 12.703125 16.089844 12.636719 16.085938 9.582031 16.066406 C 7.046875 16.046875 6.449219 16.070312 6.410156 16.171875 C 6.378906 16.242188 6.382812 16.335938 6.414062 16.382812 C 6.445312 16.429688 7.828125 16.464844 9.617188 16.464844 C 12.726562 16.464844 12.761719 16.464844 12.730469 16.277344 Z M 9.84375 6.355469 C 9.84375 6.226562 6.585938 6.226562 6.503906 6.355469 C 6.464844 6.414062 7.035156 6.445312 8.144531 6.445312 C 9.214844 6.445312 9.84375 6.414062 9.84375 6.355469 Z M 9.84375 6.355469 "/>
<path style=" stroke:none;fill-rule:nonzero;fill:rgb(70.588235%,77.647059%,83.921569%);fill-opacity:1;" d="M 6.285156 17.058594 C 6.21875 17.035156 6.125 16.941406 6.078125 16.855469 C 6 16.714844 6.25 16.699219 9.394531 16.699219 L 12.800781 16.699219 L 12.832031 16.328125 C 12.847656 16.121094 12.835938 15.5625 12.796875 15.089844 L 12.734375 14.222656 L 11.363281 14.199219 L 9.992188 14.171875 L 9.964844 11.261719 C 9.949219 9.664062 9.976562 7.894531 10.023438 7.328125 C 10.074219 6.6875 10.070312 6.261719 10.011719 6.1875 C 9.898438 6.046875 6.589844 6.023438 6.359375 6.164062 C 6.234375 6.242188 6.214844 6.789062 6.214844 10.164062 C 6.214844 12.316406 6.171875 14.375 6.121094 14.734375 L 6.027344 15.390625 L 5.960938 14.921875 C 5.875 14.328125 5.855469 6.851562 5.9375 6.453125 C 6.058594 5.878906 5.914062 5.890625 11.691406 5.828125 C 17.644531 5.761719 17.273438 5.71875 17.402344 6.503906 C 17.53125 7.25 17.507812 16.453125 17.378906 16.691406 C 17.140625 17.125 17.246094 17.117188 11.6875 17.113281 C 8.785156 17.109375 6.355469 17.085938 6.285156 17.058594 Z M 6.285156 17.058594 "/>
<path style=" stroke:none;fill-rule:nonzero;fill:rgb(54.901961%,67.058824%,78.039216%);fill-opacity:1;" d="M 6.457031 16.933594 C 6.457031 16.875 7.585938 16.839844 9.65625 16.839844 L 12.851562 16.839844 L 12.800781 14.171875 L 11.441406 14.125 L 10.085938 14.078125 L 10.09375 10.660156 C 10.09375 8.367188 10.128906 7.183594 10.203125 7.0625 C 10.292969 6.90625 10.316406 6.933594 10.375 7.273438 L 10.441406 7.664062 L 13.632812 7.664062 C 17.257812 7.664062 16.9375 7.75 16.953125 6.785156 L 16.960938 6.210938 L 13.5 6.1875 C 10.511719 6.167969 10.039062 6.144531 10.039062 6.023438 C 10.039062 5.90625 10.507812 5.886719 13.558594 5.886719 C 16.71875 5.886719 17.097656 5.902344 17.214844 6.039062 C 17.324219 6.164062 17.355469 7.152344 17.375 11.394531 L 17.398438 16.59375 L 17.1875 16.8125 L 16.976562 17.027344 L 11.714844 17.027344 C 8.273438 17.027344 6.457031 16.996094 6.457031 16.933594 Z M 6.457031 16.933594 "/>
<path style=" stroke:none;fill-rule:nonzero;fill:rgb(60.392157%,67.058824%,72.156863%);fill-opacity:1;" d="M 6.457031 16.933594 C 6.457031 16.875 7.585938 16.839844 9.65625 16.839844 L 12.851562 16.839844 L 12.800781 14.171875 L 11.441406 14.125 L 10.085938 14.078125 L 10.09375 10.660156 C 10.09375 8.207031 10.128906 7.191406 10.210938 7.054688 C 10.300781 6.90625 10.320312 7.113281 10.304688 8.085938 C 10.289062 8.753906 10.320312 10.328125 10.371094 11.578125 L 10.457031 13.855469 L 13.925781 13.828125 L 17.398438 13.796875 L 17.398438 15.210938 C 17.398438 16.5625 17.386719 16.628906 17.171875 16.824219 L 16.949219 17.027344 L 11.703125 17.027344 C 8.269531 17.027344 6.457031 16.996094 6.457031 16.933594 Z M 17.074219 13.40625 C 16.992188 13.328125 17.007812 11.503906 17.101562 10.472656 C 17.160156 9.820312 17.175781 10.019531 17.1875 11.574219 C 17.195312 12.617188 17.1875 13.46875 17.171875 13.46875 C 17.152344 13.46875 17.109375 13.441406 17.074219 13.40625 Z M 17.34375 10.054688 C 17.34375 8.199219 17.359375 7.425781 17.375 8.335938 C 17.390625 9.25 17.390625 10.765625 17.375 11.710938 C 17.359375 12.652344 17.34375 11.90625 17.34375 10.054688 Z M 10.5 10.730469 C 10.449219 10.59375 10.71875 9.601562 11.011719 8.851562 C 11.222656 8.300781 11.441406 8.144531 11.769531 8.3125 C 11.984375 8.421875 12.710938 10.472656 12.617188 10.707031 C 12.585938 10.789062 12.441406 10.847656 12.265625 10.847656 C 12.039062 10.847656 11.949219 10.792969 11.878906 10.613281 C 11.808594 10.4375 11.714844 10.378906 11.503906 10.378906 C 11.285156 10.378906 11.210938 10.429688 11.160156 10.613281 C 11.113281 10.796875 11.039062 10.847656 10.820312 10.847656 C 10.664062 10.847656 10.519531 10.796875 10.5 10.730469 Z M 11.632812 9.734375 C 11.710938 9.613281 11.585938 9.339844 11.480469 9.402344 C 11.367188 9.472656 11.371094 9.820312 11.484375 9.820312 C 11.535156 9.820312 11.601562 9.78125 11.632812 9.734375 Z M 16.964844 6.132812 C 16.835938 6.042969 16.820312 5.988281 16.902344 5.9375 C 17.023438 5.867188 17.300781 6.035156 17.300781 6.179688 C 17.300781 6.296875 17.171875 6.277344 16.964844 6.132812 Z M 10.039062 6.027344 C 10.039062 5.929688 10.101562 5.882812 10.207031 5.902344 C 10.414062 5.941406 10.398438 6.105469 10.191406 6.148438 C 10.101562 6.167969 10.039062 6.117188 10.039062 6.027344 Z M 10.039062 6.027344 "/>
<path style=" stroke:none;fill-rule:nonzero;fill:rgb(46.666667%,58.823529%,68.235294%);fill-opacity:1;" d="M 12.945312 15.597656 C 12.945312 14.679688 12.90625 14.222656 12.828125 14.144531 C 12.75 14.066406 12.296875 14.03125 11.425781 14.03125 L 10.136719 14.03125 L 10.144531 11.855469 C 10.152344 10.65625 10.1875 9.570312 10.226562 9.445312 C 10.308594 9.167969 10.425781 11.117188 10.425781 12.746094 L 10.425781 13.851562 L 17.25 13.832031 L 17.277344 15.191406 C 17.316406 17.058594 17.484375 16.933594 14.929688 16.933594 L 12.945312 16.933594 Z M 17.074219 13.40625 C 16.992188 13.328125 17.007812 11.5 17.101562 10.472656 C 17.160156 9.820312 17.175781 10.019531 17.1875 11.574219 C 17.195312 12.617188 17.1875 13.46875 17.171875 13.46875 C 17.152344 13.46875 17.109375 13.441406 17.074219 13.40625 Z M 10.5 10.730469 C 10.449219 10.59375 10.71875 9.601562 11.011719 8.851562 C 11.222656 8.296875 11.441406 8.144531 11.769531 8.3125 C 11.984375 8.421875 12.710938 10.472656 12.621094 10.707031 C 12.585938 10.789062 12.441406 10.847656 12.265625 10.847656 C 12.039062 10.847656 11.949219 10.792969 11.878906 10.613281 C 11.808594 10.4375 11.714844 10.378906 11.503906 10.378906 C 11.285156 10.378906 11.210938 10.429688 11.160156 10.613281 C 11.113281 10.796875 11.039062 10.847656 10.820312 10.847656 C 10.667969 10.847656 10.519531 10.792969 10.5 10.730469 Z M 11.632812 9.734375 C 11.710938 9.609375 11.585938 9.339844 11.480469 9.402344 C 11.367188 9.472656 11.371094 9.820312 11.484375 9.820312 C 11.535156 9.820312 11.601562 9.777344 11.632812 9.734375 Z M 16.957031 6.121094 C 16.851562 6.046875 16.816406 5.984375 16.878906 5.980469 C 16.9375 5.980469 17.039062 6.042969 17.105469 6.121094 C 17.261719 6.296875 17.199219 6.296875 16.957031 6.121094 Z M 10.183594 5.976562 C 10.21875 5.925781 10.289062 5.90625 10.335938 5.933594 C 10.472656 6.015625 10.445312 6.074219 10.277344 6.074219 C 10.191406 6.074219 10.152344 6.03125 10.183594 5.976562 Z M 10.183594 5.976562 "/>
<path style=" stroke:none;fill-rule:nonzero;fill:rgb(30.588235%,74.117647%,17.254902%);fill-opacity:1;" d="M 13.039062 16.769531 C 13.039062 16.734375 13.011719 16.199219 12.980469 15.589844 C 12.953125 14.980469 12.953125 14.378906 12.984375 14.253906 L 13.042969 14.027344 L 15.148438 14.054688 L 17.25 14.078125 L 17.277344 15.285156 C 17.316406 16.953125 17.480469 16.839844 15.011719 16.839844 C 13.925781 16.839844 13.039062 16.808594 13.039062 16.769531 Z M 10.667969 10.660156 C 10.597656 10.550781 11.164062 8.714844 11.320312 8.53125 C 11.511719 8.304688 11.757812 8.402344 11.90625 8.765625 C 12.175781 9.421875 12.472656 10.492188 12.421875 10.621094 C 12.339844 10.828125 12.175781 10.78125 12.054688 10.519531 C 11.855469 10.09375 11.226562 10.097656 11.023438 10.523438 C 10.910156 10.765625 10.769531 10.820312 10.667969 10.660156 Z M 11.78125 9.683594 C 11.78125 9.390625 11.621094 8.976562 11.503906 8.976562 C 11.402344 8.976562 11.191406 9.726562 11.257812 9.835938 C 11.285156 9.878906 11.414062 9.910156 11.546875 9.910156 C 11.730469 9.910156 11.78125 9.863281 11.78125 9.683594 Z M 11.78125 9.683594 "/>
<path style=" stroke:none;fill-rule:nonzero;fill:rgb(25.490196%,34.901961%,30.980392%);fill-opacity:1;" d="M 13.394531 15.84375 C 13.359375 15.808594 13.332031 15.578125 13.332031 15.328125 C 13.332031 14.910156 13.347656 14.875 13.566406 14.875 C 13.847656 14.875 13.9375 14.992188 13.984375 15.410156 C 14.007812 15.671875 13.976562 15.734375 13.765625 15.8125 C 13.464844 15.921875 13.476562 15.921875 13.394531 15.84375 Z M 13.796875 15.617188 C 13.777344 15.5625 13.722656 15.515625 13.667969 15.515625 C 13.621094 15.515625 13.5625 15.5625 13.542969 15.617188 C 13.523438 15.671875 13.582031 15.71875 13.667969 15.71875 C 13.757812 15.71875 13.816406 15.671875 13.796875 15.617188 Z M 10.667969 10.660156 C 10.597656 10.550781 11.164062 8.714844 11.320312 8.53125 C 11.511719 8.304688 11.757812 8.402344 11.90625 8.765625 C 12.179688 9.421875 12.472656 10.492188 12.421875 10.621094 C 12.339844 10.828125 12.175781 10.78125 12.054688 10.519531 C 11.855469 10.09375 11.226562 10.097656 11.023438 10.523438 C 10.910156 10.765625 10.769531 10.820312 10.667969 10.65625 Z M 11.78125 9.683594 C 11.78125 9.390625 11.621094 8.976562 11.503906 8.976562 C 11.402344 8.976562 11.191406 9.726562 11.261719 9.835938 C 11.289062 9.878906 11.414062 9.910156 11.546875 9.910156 C 11.730469 9.910156 11.78125 9.863281 11.78125 9.683594 Z M 11.78125 9.683594 "/>
</g>
</svg>
