
<svg xmlns="http://www.w3.org/2000/svg" xmlns:xlink="http://www.w3.org/1999/xlink" width="22px" height="22px" viewBox="0 0 22 22" version="1.1">
<g id="surface1">
<path style=" stroke:none;fill-rule:nonzero;fill:rgb(57.647059%,43.921569%,85.882353%);fill-opacity:1;" d="M 0.195312 10.976562 C -1.460938 -3.609375 22.199219 -3.410156 21.917969 11.234375 C 22.699219 24.859375 -1.09375 26.085938 0.195312 10.976562 Z M 0.195312 10.976562 "/>
<path style=" stroke:none;fill-rule:nonzero;fill:rgb(100%,100%,100%);fill-opacity:1;" d="M 10.925781 18.140625 C 11.113281 18.140625 11.292969 18.085938 11.425781 17.996094 L 13.773438 16.421875 C 13.902344 16.335938 13.980469 16.214844 13.984375 16.09375 C 13.992188 15.894531 13.832031 15.71875 13.5625 15.640625 C 13.296875 15.5625 12.980469 15.605469 12.78125 15.746094 L 11.539062 16.582031 L 11.539062 13.0625 L 10.316406 13.0625 L 10.316406 16.582031 L 9.074219 15.746094 C 8.800781 15.5625 8.355469 15.5625 8.078125 15.746094 C 7.804688 15.933594 7.804688 16.238281 8.078125 16.421875 L 10.429688 17.996094 C 10.5625 18.085938 10.742188 18.140625 10.925781 18.140625 Z M 10.925781 18.140625 "/>
<path style=" stroke:none;fill-rule:nonzero;fill:rgb(100%,100%,100%);fill-opacity:1;" d="M 6.886719 5.554688 L 6.886719 6.109375 C 6.886719 6.171875 6.757812 6.226562 6.601562 6.226562 L 5.792969 6.226562 C 5.636719 6.226562 5.511719 6.171875 5.511719 6.109375 L 5.511719 5.648438 C 5.335938 5.714844 5.226562 5.808594 5.226562 5.910156 L 5.226562 14.507812 C 5.226562 14.613281 5.335938 14.707031 5.511719 14.773438 L 5.511719 14.308594 C 5.511719 14.246094 5.636719 14.195312 5.792969 14.195312 L 6.601562 14.195312 C 6.757812 14.195312 6.886719 14.246094 6.886719 14.308594 L 6.886719 14.867188 L 7.484375 14.867188 L 7.484375 14.367188 C 7.484375 14.179688 7.914062 14.023438 8.453125 14.023438 L 13.234375 14.023438 C 13.773438 14.023438 14.222656 14.179688 14.222656 14.367188 L 14.222656 14.867188 L 14.765625 14.867188 L 14.765625 14.308594 C 14.765625 14.246094 14.894531 14.195312 15.050781 14.195312 L 15.859375 14.195312 C 16.015625 14.195312 16.140625 14.246094 16.140625 14.308594 L 16.140625 14.773438 C 16.320312 14.707031 16.441406 14.613281 16.441406 14.507812 L 16.441406 5.910156 C 16.441406 5.804688 16.320312 5.714844 16.140625 5.648438 L 16.140625 6.109375 C 16.140625 6.171875 16.015625 6.226562 15.859375 6.226562 L 15.050781 6.226562 C 14.894531 6.226562 14.765625 6.171875 14.765625 6.109375 L 14.765625 5.554688 L 14.222656 5.554688 L 14.222656 6.058594 C 14.222656 6.246094 13.773438 6.398438 13.234375 6.398438 L 8.453125 6.398438 C 7.914062 6.398438 7.484375 6.25 7.484375 6.058594 L 7.484375 5.554688 Z M 5.792969 6.359375 L 6.601562 6.359375 C 6.757812 6.359375 6.886719 6.414062 6.886719 6.476562 L 6.886719 7.230469 C 6.886719 7.292969 6.757812 7.34375 6.601562 7.34375 L 5.792969 7.34375 C 5.636719 7.34375 5.511719 7.292969 5.511719 7.230469 L 5.511719 6.476562 C 5.511719 6.414062 5.636719 6.359375 5.792969 6.359375 Z M 15.050781 6.359375 L 15.859375 6.359375 C 16.015625 6.359375 16.144531 6.414062 16.144531 6.476562 L 16.144531 7.230469 C 16.144531 7.292969 16.015625 7.34375 15.859375 7.34375 L 15.050781 7.34375 C 14.894531 7.34375 14.765625 7.292969 14.765625 7.230469 L 14.765625 6.476562 C 14.765625 6.414062 14.894531 6.359375 15.050781 6.359375 Z M 5.792969 7.480469 L 6.601562 7.480469 C 6.757812 7.480469 6.886719 7.53125 6.886719 7.59375 L 6.886719 8.351562 C 6.886719 8.414062 6.757812 8.464844 6.601562 8.464844 L 5.792969 8.464844 C 5.636719 8.464844 5.511719 8.414062 5.511719 8.351562 L 5.511719 7.59375 C 5.511719 7.53125 5.636719 7.480469 5.792969 7.480469 Z M 8.457031 7.480469 L 13.234375 7.480469 C 13.773438 7.480469 14.222656 7.628906 14.222656 7.816406 L 14.222656 9.332031 C 14.222656 9.519531 13.773438 9.667969 13.234375 9.667969 L 8.457031 9.667969 C 7.914062 9.667969 7.484375 9.519531 7.484375 9.332031 L 7.484375 7.816406 C 7.484375 7.628906 7.914062 7.480469 8.457031 7.480469 Z M 15.050781 7.480469 L 15.859375 7.480469 C 16.015625 7.480469 16.144531 7.53125 16.144531 7.59375 L 16.144531 8.351562 C 16.144531 8.414062 16.015625 8.464844 15.859375 8.464844 L 15.050781 8.464844 C 14.894531 8.464844 14.765625 8.414062 14.765625 8.351562 L 14.765625 7.59375 C 14.765625 7.53125 14.894531 7.480469 15.050781 7.480469 Z M 5.792969 8.597656 L 6.601562 8.597656 C 6.757812 8.597656 6.886719 8.652344 6.886719 8.714844 L 6.886719 9.46875 C 6.886719 9.53125 6.757812 9.582031 6.601562 9.582031 L 5.792969 9.582031 C 5.636719 9.582031 5.511719 9.53125 5.511719 9.46875 L 5.511719 8.714844 C 5.511719 8.652344 5.636719 8.597656 5.792969 8.597656 Z M 15.050781 8.597656 L 15.859375 8.597656 C 16.015625 8.597656 16.144531 8.652344 16.144531 8.714844 L 16.144531 9.46875 C 16.144531 9.53125 16.015625 9.582031 15.859375 9.582031 L 15.050781 9.582031 C 14.894531 9.582031 14.765625 9.53125 14.765625 9.46875 L 14.765625 8.714844 C 14.765625 8.652344 14.894531 8.597656 15.050781 8.597656 Z M 5.792969 9.71875 L 6.601562 9.71875 C 6.757812 9.71875 6.886719 9.769531 6.886719 9.832031 L 6.886719 10.589844 C 6.886719 10.652344 6.757812 10.703125 6.601562 10.703125 L 5.792969 10.703125 C 5.636719 10.703125 5.511719 10.652344 5.511719 10.589844 L 5.511719 9.832031 C 5.511719 9.769531 5.636719 9.71875 5.792969 9.71875 Z M 15.050781 9.71875 L 15.859375 9.71875 C 16.015625 9.71875 16.144531 9.769531 16.144531 9.832031 L 16.144531 10.589844 C 16.144531 10.652344 16.015625 10.703125 15.859375 10.703125 L 15.050781 10.703125 C 14.894531 10.703125 14.765625 10.652344 14.765625 10.589844 L 14.765625 9.832031 C 14.765625 9.769531 14.894531 9.71875 15.050781 9.71875 Z M 8.457031 10.761719 L 13.234375 10.761719 C 13.773438 10.761719 14.222656 10.910156 14.222656 11.09375 L 14.222656 12.605469 C 14.222656 12.792969 13.773438 12.941406 13.234375 12.941406 L 8.457031 12.941406 C 7.914062 12.941406 7.484375 12.792969 7.484375 12.605469 L 7.484375 11.09375 C 7.484375 10.910156 7.914062 10.761719 8.457031 10.761719 Z M 5.792969 10.839844 L 6.601562 10.839844 C 6.757812 10.839844 6.886719 10.890625 6.886719 10.953125 L 6.886719 11.707031 C 6.886719 11.769531 6.757812 11.820312 6.601562 11.820312 L 5.792969 11.820312 C 5.636719 11.820312 5.511719 11.769531 5.511719 11.707031 L 5.511719 10.953125 C 5.511719 10.890625 5.636719 10.839844 5.792969 10.839844 Z M 15.050781 10.839844 L 15.859375 10.839844 C 16.015625 10.839844 16.144531 10.890625 16.144531 10.953125 L 16.144531 11.707031 C 16.144531 11.769531 16.015625 11.820312 15.859375 11.820312 L 15.050781 11.820312 C 14.894531 11.820312 14.765625 11.769531 14.765625 11.707031 L 14.765625 10.953125 C 14.765625 10.890625 14.894531 10.839844 15.050781 10.839844 Z M 5.792969 11.957031 L 6.601562 11.957031 C 6.757812 11.957031 6.886719 12.007812 6.886719 12.070312 L 6.886719 12.828125 C 6.886719 12.890625 6.757812 12.941406 6.601562 12.941406 L 5.792969 12.941406 C 5.636719 12.941406 5.511719 12.890625 5.511719 12.828125 L 5.511719 12.070312 C 5.511719 12.007812 5.636719 11.957031 5.792969 11.957031 Z M 15.050781 11.957031 L 15.859375 11.957031 C 16.015625 11.957031 16.144531 12.007812 16.144531 12.070312 L 16.144531 12.828125 C 16.144531 12.890625 16.015625 12.941406 15.859375 12.941406 L 15.050781 12.941406 C 14.894531 12.941406 14.765625 12.890625 14.765625 12.828125 L 14.765625 12.070312 C 14.765625 12.007812 14.894531 11.957031 15.050781 11.957031 Z M 5.792969 13.078125 L 6.601562 13.078125 C 6.757812 13.078125 6.886719 13.128906 6.886719 13.191406 L 6.886719 13.945312 C 6.886719 14.007812 6.757812 14.058594 6.601562 14.058594 L 5.792969 14.058594 C 5.636719 14.058594 5.511719 14.007812 5.511719 13.945312 L 5.511719 13.191406 C 5.511719 13.128906 5.636719 13.078125 5.792969 13.078125 Z M 15.050781 13.078125 L 15.859375 13.078125 C 16.015625 13.078125 16.144531 13.128906 16.144531 13.191406 L 16.144531 13.945312 C 16.144531 14.007812 16.015625 14.058594 15.859375 14.058594 L 15.050781 14.058594 C 14.894531 14.058594 14.765625 14.007812 14.765625 13.945312 L 14.765625 13.191406 C 14.765625 13.128906 14.894531 13.078125 15.050781 13.078125 Z M 15.050781 13.078125 "/>
<path style=" stroke:none;fill-rule:nonzero;fill:rgb(100%,100%,100%);fill-opacity:1;" d="M 6.886719 5.554688 L 6.886719 6.109375 C 6.886719 6.171875 6.757812 6.226562 6.601562 6.226562 L 5.792969 6.226562 C 5.636719 6.226562 5.511719 6.171875 5.511719 6.109375 L 5.511719 5.648438 C 5.335938 5.714844 5.226562 5.808594 5.226562 5.910156 L 5.226562 14.507812 C 5.226562 14.613281 5.335938 14.707031 5.511719 14.773438 L 5.511719 14.308594 C 5.511719 14.246094 5.636719 14.195312 5.792969 14.195312 L 6.601562 14.195312 C 6.757812 14.195312 6.886719 14.246094 6.886719 14.308594 L 6.886719 14.867188 L 7.484375 14.867188 L 7.484375 14.367188 C 7.484375 14.179688 7.914062 14.023438 8.453125 14.023438 L 13.234375 14.023438 C 13.773438 14.023438 14.222656 14.179688 14.222656 14.367188 L 14.222656 14.867188 L 14.765625 14.867188 L 14.765625 14.308594 C 14.765625 14.246094 14.894531 14.195312 15.050781 14.195312 L 15.859375 14.195312 C 16.015625 14.195312 16.140625 14.246094 16.140625 14.308594 L 16.140625 14.773438 C 16.320312 14.707031 16.441406 14.613281 16.441406 14.507812 L 16.441406 5.910156 C 16.441406 5.804688 16.320312 5.714844 16.140625 5.648438 L 16.140625 6.109375 C 16.140625 6.171875 16.015625 6.226562 15.859375 6.226562 L 15.050781 6.226562 C 14.894531 6.226562 14.765625 6.171875 14.765625 6.109375 L 14.765625 5.554688 L 14.222656 5.554688 L 14.222656 6.058594 C 14.222656 6.246094 13.773438 6.398438 13.234375 6.398438 L 8.453125 6.398438 C 7.914062 6.398438 7.484375 6.25 7.484375 6.058594 L 7.484375 5.554688 Z M 5.792969 6.359375 L 6.601562 6.359375 C 6.757812 6.359375 6.886719 6.414062 6.886719 6.476562 L 6.886719 7.230469 C 6.886719 7.292969 6.757812 7.34375 6.601562 7.34375 L 5.792969 7.34375 C 5.636719 7.34375 5.511719 7.292969 5.511719 7.230469 L 5.511719 6.476562 C 5.511719 6.414062 5.636719 6.359375 5.792969 6.359375 Z M 15.050781 6.359375 L 15.859375 6.359375 C 16.015625 6.359375 16.144531 6.414062 16.144531 6.476562 L 16.144531 7.230469 C 16.144531 7.292969 16.015625 7.34375 15.859375 7.34375 L 15.050781 7.34375 C 14.894531 7.34375 14.765625 7.292969 14.765625 7.230469 L 14.765625 6.476562 C 14.765625 6.414062 14.894531 6.359375 15.050781 6.359375 Z M 5.792969 7.480469 L 6.601562 7.480469 C 6.757812 7.480469 6.886719 7.53125 6.886719 7.59375 L 6.886719 8.351562 C 6.886719 8.414062 6.757812 8.464844 6.601562 8.464844 L 5.792969 8.464844 C 5.636719 8.464844 5.511719 8.414062 5.511719 8.351562 L 5.511719 7.59375 C 5.511719 7.53125 5.636719 7.480469 5.792969 7.480469 Z M 8.457031 7.480469 L 13.234375 7.480469 C 13.773438 7.480469 14.222656 7.628906 14.222656 7.816406 L 14.222656 9.332031 C 14.222656 9.519531 13.773438 9.667969 13.234375 9.667969 L 8.457031 9.667969 C 7.914062 9.667969 7.484375 9.519531 7.484375 9.332031 L 7.484375 7.816406 C 7.484375 7.628906 7.914062 7.480469 8.457031 7.480469 Z M 15.050781 7.480469 L 15.859375 7.480469 C 16.015625 7.480469 16.144531 7.53125 16.144531 7.59375 L 16.144531 8.351562 C 16.144531 8.414062 16.015625 8.464844 15.859375 8.464844 L 15.050781 8.464844 C 14.894531 8.464844 14.765625 8.414062 14.765625 8.351562 L 14.765625 7.59375 C 14.765625 7.53125 14.894531 7.480469 15.050781 7.480469 Z M 5.792969 8.597656 L 6.601562 8.597656 C 6.757812 8.597656 6.886719 8.652344 6.886719 8.714844 L 6.886719 9.46875 C 6.886719 9.53125 6.757812 9.582031 6.601562 9.582031 L 5.792969 9.582031 C 5.636719 9.582031 5.511719 9.53125 5.511719 9.46875 L 5.511719 8.714844 C 5.511719 8.652344 5.636719 8.597656 5.792969 8.597656 Z M 15.050781 8.597656 L 15.859375 8.597656 C 16.015625 8.597656 16.144531 8.652344 16.144531 8.714844 L 16.144531 9.46875 C 16.144531 9.53125 16.015625 9.582031 15.859375 9.582031 L 15.050781 9.582031 C 14.894531 9.582031 14.765625 9.53125 14.765625 9.46875 L 14.765625 8.714844 C 14.765625 8.652344 14.894531 8.597656 15.050781 8.597656 Z M 5.792969 9.71875 L 6.601562 9.71875 C 6.757812 9.71875 6.886719 9.769531 6.886719 9.832031 L 6.886719 10.589844 C 6.886719 10.652344 6.757812 10.703125 6.601562 10.703125 L 5.792969 10.703125 C 5.636719 10.703125 5.511719 10.652344 5.511719 10.589844 L 5.511719 9.832031 C 5.511719 9.769531 5.636719 9.71875 5.792969 9.71875 Z M 15.050781 9.71875 L 15.859375 9.71875 C 16.015625 9.71875 16.144531 9.769531 16.144531 9.832031 L 16.144531 10.589844 C 16.144531 10.652344 16.015625 10.703125 15.859375 10.703125 L 15.050781 10.703125 C 14.894531 10.703125 14.765625 10.652344 14.765625 10.589844 L 14.765625 9.832031 C 14.765625 9.769531 14.894531 9.71875 15.050781 9.71875 Z M 8.457031 10.761719 L 13.234375 10.761719 C 13.773438 10.761719 14.222656 10.910156 14.222656 11.09375 L 14.222656 12.605469 C 14.222656 12.792969 13.773438 12.941406 13.234375 12.941406 L 8.457031 12.941406 C 7.914062 12.941406 7.484375 12.792969 7.484375 12.605469 L 7.484375 11.09375 C 7.484375 10.910156 7.914062 10.761719 8.457031 10.761719 Z M 5.792969 10.839844 L 6.601562 10.839844 C 6.757812 10.839844 6.886719 10.890625 6.886719 10.953125 L 6.886719 11.707031 C 6.886719 11.769531 6.757812 11.820312 6.601562 11.820312 L 5.792969 11.820312 C 5.636719 11.820312 5.511719 11.769531 5.511719 11.707031 L 5.511719 10.953125 C 5.511719 10.890625 5.636719 10.839844 5.792969 10.839844 Z M 15.050781 10.839844 L 15.859375 10.839844 C 16.015625 10.839844 16.144531 10.890625 16.144531 10.953125 L 16.144531 11.707031 C 16.144531 11.769531 16.015625 11.820312 15.859375 11.820312 L 15.050781 11.820312 C 14.894531 11.820312 14.765625 11.769531 14.765625 11.707031 L 14.765625 10.953125 C 14.765625 10.890625 14.894531 10.839844 15.050781 10.839844 Z M 5.792969 11.957031 L 6.601562 11.957031 C 6.757812 11.957031 6.886719 12.007812 6.886719 12.070312 L 6.886719 12.828125 C 6.886719 12.890625 6.757812 12.941406 6.601562 12.941406 L 5.792969 12.941406 C 5.636719 12.941406 5.511719 12.890625 5.511719 12.828125 L 5.511719 12.070312 C 5.511719 12.007812 5.636719 11.957031 5.792969 11.957031 Z M 15.050781 11.957031 L 15.859375 11.957031 C 16.015625 11.957031 16.144531 12.007812 16.144531 12.070312 L 16.144531 12.828125 C 16.144531 12.890625 16.015625 12.941406 15.859375 12.941406 L 15.050781 12.941406 C 14.894531 12.941406 14.765625 12.890625 14.765625 12.828125 L 14.765625 12.070312 C 14.765625 12.007812 14.894531 11.957031 15.050781 11.957031 Z M 5.792969 13.078125 L 6.601562 13.078125 C 6.757812 13.078125 6.886719 13.128906 6.886719 13.191406 L 6.886719 13.945312 C 6.886719 14.007812 6.757812 14.058594 6.601562 14.058594 L 5.792969 14.058594 C 5.636719 14.058594 5.511719 14.007812 5.511719 13.945312 L 5.511719 13.191406 C 5.511719 13.128906 5.636719 13.078125 5.792969 13.078125 Z M 15.050781 13.078125 L 15.859375 13.078125 C 16.015625 13.078125 16.144531 13.128906 16.144531 13.191406 L 16.144531 13.945312 C 16.144531 14.007812 16.015625 14.058594 15.859375 14.058594 L 15.050781 14.058594 C 14.894531 14.058594 14.765625 14.007812 14.765625 13.945312 L 14.765625 13.191406 C 14.765625 13.128906 14.894531 13.078125 15.050781 13.078125 Z M 15.050781 13.078125 "/>
</g>
</svg>
