
<svg xmlns="http://www.w3.org/2000/svg" xmlns:xlink="http://www.w3.org/1999/xlink" width="22px" height="22px" viewBox="0 0 22 22" version="1.1">
<defs>
<clipPath id="clip1">
  <path d="M 4 5 L 16 5 L 16 18 L 4 18 Z M 4 5 "/>
</clipPath>
<clipPath id="clip2">
  <path d="M 18.921875 13.101562 C 18.921875 5.902344 14.492188 0.0742188 9.03125 0.0742188 C 3.574219 0.0742188 -0.855469 5.902344 -0.855469 13.101562 C -0.855469 20.296875 3.574219 26.128906 9.03125 26.128906 C 14.492188 26.128906 18.921875 20.296875 18.921875 13.101562 Z M 18.921875 13.101562 "/>
</clipPath>
<clipPath id="clip3">
  <path d="M 6 5 L 18 5 L 18 17 L 6 17 Z M 6 5 "/>
</clipPath>
<clipPath id="clip4">
  <path d="M 2.964844 12.546875 C 2.964844 5.675781 7.433594 0.109375 12.945312 0.109375 C 18.453125 0.109375 22.921875 5.675781 22.921875 12.546875 C 22.921875 19.414062 18.453125 24.980469 12.945312 24.980469 C 7.433594 24.980469 2.964844 19.414062 2.964844 12.546875 Z M 2.964844 12.546875 "/>
</clipPath>
</defs>
<g id="surface1">
<path style=" stroke:none;fill-rule:nonzero;fill:rgb(82.352941%,70.588235%,54.901961%);fill-opacity:1;" d="M 19.855469 4.535156 C 30.851562 21.074219 -4.214844 31.261719 0.425781 9.878906 C 2.402344 1.042969 14.8125 -4.316406 19.855469 4.535156 Z M 19.855469 4.535156 "/>
<g clip-path="url(#clip1)" clip-rule="nonzero">
<g clip-path="url(#clip2)" clip-rule="nonzero">
<path style=" stroke:none;fill-rule:nonzero;fill:rgb(97.647059%,97.647059%,97.647059%);fill-opacity:1;" d="M 4.097656 13.511719 C 4.285156 11.613281 5.730469 10.273438 7.324219 10.523438 C 7.820312 10.601562 8.273438 10.828125 8.65625 11.15625 C 8.660156 11.15625 8.664062 11.15625 8.664062 11.15625 L 14.644531 5.621094 L 15.796875 5.800781 L 15.660156 7.175781 L 15.230469 7.574219 L 14.460938 7.453125 L 14.371094 8.371094 L 13.941406 8.769531 L 13.847656 9.6875 L 13.417969 10.082031 L 12.648438 9.960938 L 12.21875 10.359375 L 12.128906 11.277344 L 11.359375 11.15625 L 9.679688 12.710938 C 9.679688 12.714844 9.675781 12.71875 9.679688 12.722656 C 9.851562 13.242188 9.921875 13.824219 9.863281 14.414062 C 9.671875 16.308594 8.230469 17.652344 6.636719 17.402344 L 6.625 17.402344 C 5.035156 17.144531 3.90625 15.40625 4.097656 13.511719 M 5.566406 14.4375 C 5.515625 14.941406 5.820312 15.40625 6.246094 15.476562 C 6.671875 15.542969 7.054688 15.183594 7.105469 14.679688 C 7.15625 14.171875 6.851562 13.707031 6.429688 13.640625 C 6.003906 13.574219 5.617188 13.933594 5.566406 14.4375 M 5.566406 14.4375 "/>
</g>
</g>
<path style=" stroke:none;fill-rule:nonzero;fill:rgb(82.352941%,70.588235%,54.901961%);fill-opacity:1;" d="M 5.96875 13.828125 C 5.714844 14.023438 5.625 14.222656 5.625 14.582031 C 5.625 14.949219 5.828125 15.257812 6.144531 15.375 C 6.601562 15.546875 7.050781 15.148438 7.050781 14.566406 C 7.050781 14.199219 6.902344 13.929688 6.621094 13.785156 C 6.335938 13.636719 6.214844 13.644531 5.96875 13.828125 Z M 5.96875 13.828125 "/>
<g clip-path="url(#clip3)" clip-rule="nonzero">
<g clip-path="url(#clip4)" clip-rule="nonzero">
<path style=" stroke:none;fill-rule:nonzero;fill:rgb(97.647059%,97.647059%,97.647059%);fill-opacity:1;" d="M 17.925781 12.9375 C 17.734375 11.128906 16.273438 9.847656 14.667969 10.085938 C 14.167969 10.160156 13.707031 10.378906 13.324219 10.6875 C 13.320312 10.691406 13.316406 10.6875 13.316406 10.691406 L 7.28125 5.40625 L 6.117188 5.578125 L 6.253906 6.890625 L 6.691406 7.269531 L 7.464844 7.15625 L 7.558594 8.03125 L 7.992188 8.410156 L 8.082031 9.285156 L 8.519531 9.664062 L 9.292969 9.546875 L 9.726562 9.929688 L 9.820312 10.804688 L 10.59375 10.691406 L 12.289062 12.175781 C 12.289062 12.175781 12.292969 12.183594 12.292969 12.183594 C 12.117188 12.683594 12.046875 13.234375 12.105469 13.800781 C 12.296875 15.609375 13.753906 16.890625 15.359375 16.652344 L 15.375 16.652344 C 16.976562 16.40625 18.117188 14.746094 17.925781 12.9375 M 16.441406 13.820312 C 16.492188 14.304688 16.183594 14.746094 15.757812 14.8125 C 15.328125 14.875 14.9375 14.535156 14.886719 14.050781 C 14.835938 13.570312 15.144531 13.125 15.570312 13.0625 C 16 12.996094 16.390625 13.339844 16.441406 13.820312 M 16.441406 13.820312 "/>
</g>
</g>
<path style=" stroke:none;fill-rule:nonzero;fill:rgb(82.352941%,70.588235%,54.901961%);fill-opacity:1;" d="M 16.035156 13.242188 C 16.289062 13.425781 16.382812 13.617188 16.382812 13.960938 C 16.382812 14.308594 16.175781 14.605469 15.859375 14.71875 C 15.394531 14.878906 14.945312 14.5 14.945312 13.945312 C 14.945312 13.59375 15.09375 13.339844 15.375 13.199219 C 15.667969 13.054688 15.789062 13.0625 16.035156 13.242188 Z M 16.035156 13.242188 "/>
</g>
</svg>
