
<svg xmlns="http://www.w3.org/2000/svg" xmlns:xlink="http://www.w3.org/1999/xlink" width="22px" height="22px" viewBox="0 0 22 22" version="1.1">
<defs>
<clipPath id="clip1">
  <path d="M 3 6 L 18.792969 6 L 18.792969 16 L 3 16 Z M 3 6 "/>
</clipPath>
<clipPath id="clip2">
  <path d="M 22 11.097656 C 22 18.773438 17.023438 24.984375 10.890625 24.984375 C 4.757812 24.984375 -0.21875 18.773438 -0.21875 11.097656 C -0.21875 3.425781 4.757812 -2.789062 10.890625 -2.789062 C 17.023438 -2.789062 22 3.425781 22 11.097656 Z M 22 11.097656 "/>
</clipPath>
<clipPath id="clip3">
  <path d="M 5.5 11 L 8 11 L 8 15 L 5.5 15 Z M 5.5 11 "/>
</clipPath>
<clipPath id="clip4">
  <path d="M 22 11.097656 C 22 18.773438 17.023438 24.984375 10.890625 24.984375 C 4.757812 24.984375 -0.21875 18.773438 -0.21875 11.097656 C -0.21875 3.425781 4.757812 -2.789062 10.890625 -2.789062 C 17.023438 -2.789062 22 3.425781 22 11.097656 Z M 22 11.097656 "/>
</clipPath>
<clipPath id="clip5">
  <path d="M 8.25 11 L 10.542969 11 L 10.542969 15 L 8.25 15 Z M 8.25 11 "/>
</clipPath>
<clipPath id="clip6">
  <path d="M 22 11.097656 C 22 18.773438 17.023438 24.984375 10.890625 24.984375 C 4.757812 24.984375 -0.21875 18.773438 -0.21875 11.097656 C -0.21875 3.425781 4.757812 -2.789062 10.890625 -2.789062 C 17.023438 -2.789062 22 3.425781 22 11.097656 Z M 22 11.097656 "/>
</clipPath>
<clipPath id="clip7">
  <path d="M 10.542969 11 L 13.75 11 L 13.75 15 L 10.542969 15 Z M 10.542969 11 "/>
</clipPath>
<clipPath id="clip8">
  <path d="M 22 11.097656 C 22 18.773438 17.023438 24.984375 10.890625 24.984375 C 4.757812 24.984375 -0.21875 18.773438 -0.21875 11.097656 C -0.21875 3.425781 4.757812 -2.789062 10.890625 -2.789062 C 17.023438 -2.789062 22 3.425781 22 11.097656 Z M 22 11.097656 "/>
</clipPath>
<clipPath id="clip9">
  <path d="M 13.75 11 L 16.5 11 L 16.5 15 L 13.75 15 Z M 13.75 11 "/>
</clipPath>
<clipPath id="clip10">
  <path d="M 22 11.097656 C 22 18.773438 17.023438 24.984375 10.890625 24.984375 C 4.757812 24.984375 -0.21875 18.773438 -0.21875 11.097656 C -0.21875 3.425781 4.757812 -2.789062 10.890625 -2.789062 C 17.023438 -2.789062 22 3.425781 22 11.097656 Z M 22 11.097656 "/>
</clipPath>
</defs>
<g id="surface1">
<path style=" stroke:none;fill-rule:nonzero;fill:rgb(27.45098%,50.980392%,70.588235%);fill-opacity:1;" d="M 2.265625 16.828125 C -5.644531 5.578125 8.964844 -5.824219 18.28125 3.34375 C 27.066406 11.984375 18.925781 25.402344 7.996094 21.207031 C 5.71875 20.332031 3.71875 18.894531 2.265625 16.828125 Z M 2.265625 16.828125 "/>
<g clip-path="url(#clip1)" clip-rule="nonzero">
<g clip-path="url(#clip2)" clip-rule="nonzero">
<path style=" stroke:none;fill-rule:nonzero;fill:rgb(0%,26.27451%,43.137255%);fill-opacity:1;" d="M 5.113281 6.445312 C 5.289062 6.550781 5.476562 6.8125 5.476562 6.8125 L 8.796875 7.609375 C 8.796875 7.609375 8.855469 7.488281 8.917969 7.382812 L 9.027344 7.1875 L 11.097656 7.1875 L 11.160156 6.835938 L 13.277344 6.835938 L 13.308594 7.03125 L 13.34375 7.234375 L 14.019531 7.242188 L 14.699219 7.257812 L 14.710938 8.226562 L 14.71875 9.195312 L 13.777344 9.195312 L 13.8125 9.386719 L 13.851562 9.574219 L 16.753906 9.574219 L 17.035156 11.195312 L 17.398438 11.21875 C 17.898438 11.300781 18.195312 11.515625 18.476562 12.011719 C 18.511719 12.070312 18.625 12.457031 18.625 12.738281 C 18.605469 13.152344 18.507812 13.488281 18.332031 13.828125 C 18.242188 14.007812 18.121094 14.207031 17.914062 14.378906 C 17.8125 14.464844 17.660156 14.617188 17.566406 14.722656 C 17.289062 15.039062 16.972656 15.300781 16.675781 15.578125 C 16.507812 15.734375 16.285156 15.835938 16.050781 15.902344 C 15.96875 15.921875 13.671875 15.941406 10.941406 15.933594 C 6.390625 15.925781 5.957031 15.917969 5.773438 15.847656 C 5.464844 15.726562 5.144531 15.496094 5.039062 15.371094 C 4.605469 14.925781 3.960938 14.277344 3.710938 14.074219 C 3.457031 13.878906 3.386719 13.660156 3.296875 13.460938 C 3.257812 13.375 3.214844 13.203125 3.203125 13.082031 C 3.167969 12.804688 3.152344 12.570312 3.1875 12.308594 C 3.21875 12.046875 3.378906 11.625 3.5 11.507812 C 3.769531 11.234375 4.140625 11.128906 4.824219 11.128906 L 5.234375 11.125 L 5.179688 10.78125 L 6.539062 9.636719 L 8.527344 9.507812 L 8.066406 8.789062 L 8.40625 8.210938 L 5.4375 7.261719 C 5.4375 7.261719 5.199219 7.367188 5.007812 7.34375 C 4.820312 7.324219 4.355469 7.121094 4.355469 7.121094 L 4.457031 6.273438 C 4.457031 6.273438 4.90625 6.359375 5.121094 6.445312 M 16.984375 14.6875 C 16.828125 14.6875 16.765625 14.703125 16.765625 14.75 C 16.765625 14.785156 16.726562 14.910156 16.679688 15.03125 C 16.628906 15.148438 16.59375 15.25 16.597656 15.246094 C 16.597656 15.246094 16.644531 15.203125 16.695312 15.152344 C 16.742188 15.101562 16.796875 15.0625 16.808594 15.0625 C 16.84375 15.0625 17.203125 14.734375 17.203125 14.703125 C 17.203125 14.695312 17.105469 14.683594 16.984375 14.683594 M 5.066406 14.6875 C 5.046875 14.6875 5.03125 14.6875 5.007812 14.6875 C 4.910156 14.6875 4.832031 14.695312 4.832031 14.703125 C 4.832031 14.714844 4.925781 14.816406 5.042969 14.929688 C 5.15625 15.046875 5.296875 15.167969 5.34375 15.203125 L 5.433594 15.261719 L 5.355469 15.160156 C 5.308594 15.105469 5.253906 14.976562 5.230469 14.875 C 5.191406 14.714844 5.183594 14.691406 5.066406 14.6875 M 12.863281 15.203125 C 12.855469 15.203125 12.847656 15.21875 12.839844 15.25 C 12.824219 15.289062 12.75 15.398438 12.671875 15.496094 L 12.523438 15.671875 L 13.242188 15.664062 L 13.152344 15.570312 C 12.960938 15.378906 12.910156 15.3125 12.882812 15.246094 C 12.871094 15.214844 12.867188 15.203125 12.859375 15.203125 M 11 15.203125 C 10.988281 15.203125 10.984375 15.21875 10.976562 15.25 C 10.941406 15.335938 10.824219 15.484375 10.703125 15.589844 C 10.613281 15.664062 10.621094 15.664062 10.976562 15.667969 L 11.339844 15.671875 L 11.191406 15.496094 C 11.109375 15.402344 11.03125 15.289062 11.019531 15.25 C 11.007812 15.21875 11.003906 15.210938 10.996094 15.210938 M 14.753906 15.210938 C 14.746094 15.210938 14.738281 15.222656 14.730469 15.25 C 14.710938 15.3125 14.660156 15.367188 14.460938 15.578125 L 14.371094 15.671875 L 14.734375 15.675781 L 15.097656 15.675781 L 14.949219 15.503906 C 14.867188 15.40625 14.789062 15.296875 14.78125 15.257812 C 14.769531 15.230469 14.761719 15.214844 14.753906 15.210938 M 7.234375 15.214844 C 7.226562 15.210938 7.21875 15.226562 7.214844 15.25 C 7.164062 15.371094 7.007812 15.585938 6.957031 15.585938 C 6.933594 15.585938 6.898438 15.605469 6.886719 15.632812 C 6.875 15.664062 7 15.675781 7.242188 15.675781 C 7.546875 15.675781 7.605469 15.664062 7.542969 15.621094 C 7.445312 15.542969 7.285156 15.34375 7.257812 15.257812 C 7.25 15.230469 7.242188 15.21875 7.234375 15.214844 M 9.074219 15.25 C 9.070312 15.25 9.066406 15.253906 9.066406 15.261719 C 9.054688 15.296875 8.980469 15.40625 8.90625 15.503906 L 8.761719 15.675781 L 9.464844 15.675781 L 9.273438 15.4375 C 9.167969 15.308594 9.101562 15.246094 9.074219 15.25 M 9.074219 15.25 "/>
</g>
</g>
<g clip-path="url(#clip3)" clip-rule="nonzero">
<g clip-path="url(#clip4)" clip-rule="nonzero">
<path style=" stroke:none;fill-rule:nonzero;fill:rgb(100%,100%,100%);fill-opacity:1;" d="M 7.992188 12.308594 C 7.992188 12.910156 7.867188 12.871094 7.507812 12.910156 L 6.542969 12.910156 L 6.542969 13.515625 L 7.992188 13.515625 L 7.992188 14.722656 L 5.578125 14.71875 L 5.578125 12.910156 C 5.578125 12.308594 5.816406 12.308594 6.058594 12.308594 L 6.6875 12.308594 C 6.871094 12.308594 6.964844 12.289062 6.964844 12.179688 L 6.964844 11.890625 C 6.964844 11.792969 6.871094 11.703125 6.6875 11.703125 L 5.578125 11.703125 L 5.585938 11.097656 C 6.21875 11.097656 6.90625 11.097656 7.507812 11.101562 C 7.992188 11.101562 7.992188 11.554688 7.992188 11.707031 L 7.992188 12.308594 "/>
</g>
</g>
<g clip-path="url(#clip5)" clip-rule="nonzero">
<g clip-path="url(#clip6)" clip-rule="nonzero">
<path style=" stroke:none;fill-rule:nonzero;fill:rgb(100%,100%,100%);fill-opacity:1;" d="M 10.40625 14.722656 L 9.441406 14.722656 L 9.441406 11.703125 L 8.476562 11.703125 L 8.476562 11.097656 L 10.40625 11.097656 L 10.40625 14.722656 "/>
</g>
</g>
<g clip-path="url(#clip7)" clip-rule="nonzero">
<g clip-path="url(#clip8)" clip-rule="nonzero">
<path style=" stroke:none;fill-rule:nonzero;fill:rgb(100%,100%,100%);fill-opacity:1;" d="M 13.292969 14.25 C 13.304688 14.71875 13.019531 14.71875 12.847656 14.714844 L 11.394531 14.714844 C 10.933594 14.714844 10.890625 14.558594 10.890625 14.25 L 10.890625 11.570312 C 10.890625 11.097656 11.234375 11.097656 11.394531 11.097656 L 12.824219 11.105469 C 13.304688 11.105469 13.304688 11.394531 13.292969 11.582031 L 13.292969 14.257812 M 12.335938 13.945312 L 12.335938 11.894531 C 12.335938 11.785156 12.285156 11.707031 12.097656 11.707031 C 11.914062 11.707031 11.859375 11.785156 11.859375 11.894531 L 11.859375 13.945312 C 11.859375 14.035156 11.914062 14.117188 12.097656 14.117188 C 12.285156 14.117188 12.335938 14.035156 12.335938 13.945312 "/>
</g>
</g>
<g clip-path="url(#clip9)" clip-rule="nonzero">
<g clip-path="url(#clip10)" clip-rule="nonzero">
<path style=" stroke:none;fill-rule:nonzero;fill:rgb(100%,100%,100%);fill-opacity:1;" d="M 16.203125 14.125 C 16.203125 14.253906 16.203125 14.726562 15.722656 14.726562 L 14.273438 14.726562 C 13.789062 14.726562 13.789062 14.355469 13.789062 14.125 L 13.789062 11.570312 C 13.789062 11.105469 14.085938 11.105469 14.273438 11.105469 L 15.722656 11.105469 C 15.8125 11.105469 16.203125 11.105469 16.203125 11.644531 M 15.238281 11.898438 C 15.238281 11.785156 15.1875 11.710938 14.996094 11.710938 C 14.816406 11.710938 14.757812 11.824219 14.757812 11.933594 L 14.757812 13.933594 C 14.757812 14.03125 14.816406 14.125 14.996094 14.125 C 15.1875 14.125 15.238281 14.058594 15.238281 13.960938 "/>
</g>
</g>
</g>
</svg>
