
<svg xmlns="http://www.w3.org/2000/svg" xmlns:xlink="http://www.w3.org/1999/xlink" width="22px" height="22px" viewBox="0 0 22 22" version="1.1">
<defs>
<linearGradient id="linear0" gradientUnits="userSpaceOnUse" x1="0" y1="644.51" x2="0" y2="614.51" gradientTransform="matrix(0.469833,0,0,0.415816,-245.153047,-252.519609)">
<stop offset="0" style="stop-color:rgb(72.54902%,90.588235%,100%);stop-opacity:1;"/>
<stop offset="1" style="stop-color:rgb(96.078431%,98.823529%,100%);stop-opacity:1;"/>
</linearGradient>
</defs>
<g id="surface1">
<path style=" stroke:none;fill-rule:nonzero;fill:rgb(0%,74.901961%,100%);fill-opacity:1;" d="M 4.542969 19.851562 C 21.082031 30.851562 31.269531 -4.214844 9.890625 0.425781 C 1.050781 2.40625 -4.308594 14.8125 4.542969 19.851562 Z M 4.542969 19.851562 "/>
<path style=" stroke:none;fill-rule:nonzero;fill:url(#linear0);" d="M 17.660156 13.898438 C 17.664062 13.035156 17.667969 11.710938 17.667969 10.957031 L 17.667969 9.59375 L 17.632812 9.59375 C 17.613281 9.59375 15.992188 9.578125 14.03125 9.5625 C 12.070312 9.539062 10.394531 9.523438 10.304688 9.523438 L 10.148438 9.523438 L 10.148438 11.84375 C 10.148438 13.121094 10.148438 14.164062 10.152344 14.164062 C 10.152344 14.164062 11.832031 14.460938 13.886719 14.820312 C 15.9375 15.179688 17.625 15.476562 17.636719 15.476562 C 17.652344 15.476562 17.65625 15.332031 17.660156 13.898438 Z M 9.503906 11.785156 C 9.507812 10.539062 9.511719 9.519531 9.511719 9.515625 C 9.507812 9.515625 5.046875 9.472656 4.902344 9.472656 L 4.8125 9.472656 L 4.8125 13.222656 L 4.839844 13.230469 C 4.859375 13.234375 9.464844 14.046875 9.492188 14.050781 C 9.496094 14.050781 9.5 13.03125 9.503906 11.785156 Z M 7.257812 8.992188 C 8.316406 8.980469 9.257812 8.972656 9.347656 8.972656 L 9.515625 8.972656 L 9.515625 4.433594 L 9.480469 4.4375 C 9.464844 4.441406 8.40625 4.625 7.132812 4.851562 L 4.8125 5.257812 L 4.8125 9.011719 L 5.070312 9.011719 C 5.210938 9.011719 6.195312 9.003906 7.257812 8.992188 Z M 14.050781 8.925781 C 16.035156 8.90625 17.660156 8.890625 17.664062 8.886719 C 17.667969 8.886719 17.667969 7.5625 17.664062 5.945312 L 17.664062 3.003906 L 14.246094 3.601562 C 12.371094 3.929688 10.679688 4.230469 10.492188 4.261719 L 10.152344 4.320312 L 10.144531 8.960938 L 10.292969 8.960938 C 10.375 8.960938 12.066406 8.945312 14.050781 8.925781 Z M 14.050781 8.925781 "/>
<path style=" stroke:none;fill-rule:nonzero;fill:rgb(82.352941%,94.117647%,100%);fill-opacity:1;" d="M 17.222656 16.84375 L 9.894531 16.746094 L 9.890625 15.710938 L 3.789062 16.925781 L 9.90625 18.296875 L 9.898438 17.265625 L 17.226562 17.359375 Z M 17.222656 16.84375 "/>
</g>
</svg>
