
<svg xmlns="http://www.w3.org/2000/svg" xmlns:xlink="http://www.w3.org/1999/xlink" width="22px" height="22px" viewBox="0 0 22 22" version="1.1">
<g id="surface1">
<path style=" stroke:none;fill-rule:nonzero;fill:rgb(25.490196%,41.176471%,88.235294%);fill-opacity:1;" d="M 19.734375 16.828125 C 27.644531 5.578125 13.035156 -5.820312 3.714844 3.347656 C -5.066406 11.984375 3.074219 25.402344 14.003906 21.207031 C 16.28125 20.332031 18.28125 18.894531 19.734375 16.828125 Z M 19.734375 16.828125 "/>
<path style="fill-rule:nonzero;fill:rgb(100%,27.058824%,0%);fill-opacity:1;stroke-width:1;stroke-linecap:butt;stroke-linejoin:miter;stroke:rgb(100%,27.058824%,0%);stroke-opacity:1;stroke-miterlimit:4;" d="M -36.040959 410.262549 L -32.416138 404.89073 L -36.148166 398.981106 L -33.750637 398.986241 L -30.779752 403.62746 L -35.223353 410.259414 Z M -36.040959 410.262549 " transform="matrix(0.636469,-0.336916,0.270955,0.599452,-79.286332,-242.251204)"/>
<path style="fill-rule:nonzero;fill:rgb(100%,27.058824%,0%);fill-opacity:1;stroke-width:1;stroke-linecap:butt;stroke-linejoin:miter;stroke:rgb(100%,27.058824%,0%);stroke-opacity:1;stroke-miterlimit:4;" d="M -28.943754 410.256926 L -31.898018 405.605499 L -27.415749 398.969212 L -26.619716 398.973502 L -30.255729 404.371612 L -26.551177 410.259277 L -28.945993 410.262184 Z M -28.943754 410.256926 " transform="matrix(0.636469,-0.336916,0.270955,0.599452,-79.286332,-242.251204)"/>
</g>
</svg>
