
<svg xmlns="http://www.w3.org/2000/svg" xmlns:xlink="http://www.w3.org/1999/xlink" width="22px" height="22px" viewBox="0 0 22 22" version="1.1">
<g id="surface1">
<path style=" stroke:none;fill-rule:nonzero;fill:rgb(67.843137%,84.705882%,90.196078%);fill-opacity:1;" d="M 19.644531 16.882812 C 27.496094 5.632812 12.996094 -5.769531 3.742188 3.398438 C -4.972656 12.035156 3.105469 25.457031 13.953125 21.261719 C 16.21875 20.386719 18.203125 18.949219 19.644531 16.882812 Z M 19.644531 16.882812 "/>
<path style="fill-rule:evenodd;fill:rgb(52.941176%,80.784314%,98.039216%);fill-opacity:1;stroke-width:1;stroke-linecap:butt;stroke-linejoin:miter;stroke:rgb(52.941176%,80.784314%,98.039216%);stroke-opacity:1;stroke-miterlimit:4;" d="M 216.339678 137.263914 C 216.506056 160.573376 205.358712 182.277805 187.057101 193.987253 C 168.788766 205.733179 146.261147 205.733179 127.959537 193.987253 C 109.691202 182.277805 98.510582 160.573376 98.710236 137.263914 C 98.510582 113.917974 109.691202 92.250023 127.959537 80.540575 C 146.261147 68.794649 168.788766 68.794649 187.057101 80.540575 C 205.358712 92.250023 216.506056 113.917974 216.339678 137.263914 Z M 216.339678 137.263914 " transform="matrix(0.117391,0,0,0.107085,-7.993906,-3.425469)"/>
<path style=" stroke:none;fill-rule:nonzero;fill:rgb(27.45098%,50.980392%,70.588235%);fill-opacity:1;" d="M 11.835938 13.859375 C 11.835938 13.835938 11.804688 13.816406 11.769531 13.816406 C 11.726562 13.816406 11.707031 13.773438 11.707031 13.652344 C 11.707031 13.53125 11.6875 13.484375 11.644531 13.484375 C 11.597656 13.484375 11.578125 13.441406 11.578125 13.320312 C 11.578125 13.230469 11.558594 13.152344 11.539062 13.152344 C 11.515625 13.152344 11.496094 13.105469 11.496094 13.050781 C 11.496094 12.984375 11.472656 12.945312 11.429688 12.945312 C 11.398438 12.945312 11.367188 12.917969 11.367188 12.882812 C 11.367188 12.847656 11.347656 12.824219 11.324219 12.824219 C 11.300781 12.824219 11.285156 12.632812 11.285156 12.34375 C 11.285156 11.949219 11.273438 11.867188 11.21875 11.867188 C 11.171875 11.867188 11.15625 11.804688 11.15625 11.535156 C 11.15625 11.269531 11.144531 11.203125 11.09375 11.203125 C 11.058594 11.203125 11.03125 11.167969 11.03125 11.121094 C 11.03125 11.074219 11.011719 11.039062 10.988281 11.039062 C 10.964844 11.039062 10.945312 10.914062 10.945312 10.746094 C 10.945312 10.515625 10.933594 10.457031 10.882812 10.457031 C 10.847656 10.457031 10.820312 10.4375 10.820312 10.417969 C 10.820312 10.394531 10.699219 10.375 10.542969 10.375 C 10.390625 10.375 10.269531 10.390625 10.269531 10.410156 C 10.269531 10.429688 10.222656 10.460938 10.164062 10.472656 C 10.105469 10.488281 10.054688 10.519531 10.054688 10.542969 C 10.054688 10.5625 9.910156 10.582031 9.71875 10.582031 C 9.386719 10.582031 9.378906 10.578125 9.378906 10.476562 C 9.378906 10.421875 9.359375 10.375 9.335938 10.375 C 9.3125 10.375 9.292969 10.347656 9.292969 10.3125 C 9.292969 10.277344 9.265625 10.25 9.230469 10.25 C 9.195312 10.25 9.167969 10.230469 9.167969 10.203125 C 9.167969 10.148438 9.058594 10.042969 9 10.042969 C 8.976562 10.042969 8.957031 10.011719 8.957031 9.980469 C 8.957031 9.945312 8.9375 9.917969 8.910156 9.917969 C 8.847656 9.917969 8.761719 9.824219 8.726562 9.722656 C 8.710938 9.671875 8.660156 9.621094 8.617188 9.605469 C 8.546875 9.582031 8.53125 9.539062 8.53125 9.335938 C 8.53125 9.195312 8.550781 9.085938 8.574219 9.085938 C 8.597656 9.085938 8.617188 9.058594 8.617188 9.023438 C 8.617188 8.992188 8.644531 8.964844 8.679688 8.964844 C 8.714844 8.964844 8.742188 8.945312 8.742188 8.921875 C 8.742188 8.898438 8.792969 8.878906 8.851562 8.878906 C 8.914062 8.878906 8.957031 8.855469 8.957031 8.816406 C 8.957031 8.785156 8.984375 8.757812 9.019531 8.757812 C 9.054688 8.757812 9.082031 8.726562 9.082031 8.695312 C 9.082031 8.660156 9.121094 8.632812 9.167969 8.632812 C 9.214844 8.632812 9.253906 8.613281 9.253906 8.589844 C 9.253906 8.566406 9.28125 8.550781 9.316406 8.550781 C 9.351562 8.550781 9.378906 8.519531 9.378906 8.484375 C 9.378906 8.445312 9.417969 8.421875 9.484375 8.421875 C 9.542969 8.421875 9.589844 8.40625 9.589844 8.382812 C 9.589844 8.359375 9.621094 8.339844 9.652344 8.339844 C 9.6875 8.339844 9.71875 8.3125 9.71875 8.277344 C 9.71875 8.246094 9.746094 8.214844 9.78125 8.214844 C 9.816406 8.214844 9.84375 8.1875 9.84375 8.15625 C 9.84375 8.117188 9.882812 8.09375 9.949219 8.09375 C 10.042969 8.09375 10.054688 8.074219 10.054688 7.945312 C 10.054688 7.863281 10.085938 7.769531 10.117188 7.734375 C 10.15625 7.699219 10.183594 7.597656 10.183594 7.507812 C 10.183594 7.347656 10.1875 7.347656 10.332031 7.347656 L 10.480469 7.347656 L 10.480469 7.117188 C 10.480469 6.992188 10.460938 6.890625 10.4375 6.890625 C 10.414062 6.890625 10.394531 6.84375 10.394531 6.785156 C 10.394531 6.726562 10.375 6.679688 10.351562 6.679688 C 10.289062 6.679688 10.183594 6.574219 10.183594 6.519531 C 10.183594 6.492188 10.203125 6.472656 10.226562 6.472656 C 10.25 6.472656 10.269531 6.429688 10.269531 6.375 C 10.269531 6.316406 10.289062 6.261719 10.320312 6.25 C 10.363281 6.230469 10.363281 6.21875 10.320312 6.203125 C 10.289062 6.1875 10.269531 6.148438 10.269531 6.117188 C 10.269531 6.085938 10.25 6.058594 10.226562 6.058594 C 10.148438 6.058594 10.183594 5.972656 10.3125 5.851562 C 10.382812 5.78125 10.476562 5.726562 10.523438 5.726562 C 10.570312 5.726562 10.605469 5.710938 10.605469 5.6875 C 10.605469 5.664062 10.65625 5.644531 10.710938 5.644531 C 10.777344 5.644531 10.816406 5.621094 10.816406 5.582031 C 10.816406 5.546875 10.847656 5.519531 10.882812 5.519531 C 10.914062 5.519531 10.945312 5.492188 10.945312 5.457031 C 10.945312 5.417969 10.984375 5.394531 11.050781 5.394531 C 11.109375 5.394531 11.15625 5.375 11.15625 5.355469 C 11.15625 5.328125 11.3125 5.3125 11.539062 5.3125 C 11.835938 5.3125 11.917969 5.300781 11.917969 5.253906 C 11.917969 5.21875 11.941406 5.183594 11.96875 5.171875 C 12.011719 5.152344 12.011719 5.140625 11.96875 5.121094 C 11.941406 5.109375 11.917969 5.070312 11.917969 5.039062 C 11.917969 4.996094 11.980469 4.980469 12.152344 4.980469 C 12.332031 4.980469 12.382812 4.964844 12.382812 4.917969 C 12.382812 4.871094 12.4375 4.855469 12.636719 4.855469 C 12.835938 4.855469 12.890625 4.871094 12.890625 4.917969 C 12.890625 4.960938 12.9375 4.980469 13.0625 4.980469 C 13.152344 4.980469 13.230469 5 13.230469 5.027344 C 13.230469 5.105469 13.347656 5.1875 13.460938 5.1875 C 13.527344 5.1875 13.570312 5.210938 13.570312 5.25 C 13.570312 5.289062 13.609375 5.3125 13.675781 5.3125 C 13.730469 5.3125 13.78125 5.332031 13.78125 5.355469 C 13.78125 5.375 13.828125 5.394531 13.886719 5.394531 C 13.953125 5.394531 13.992188 5.417969 13.992188 5.457031 C 13.992188 5.492188 14.019531 5.519531 14.054688 5.519531 C 14.089844 5.519531 14.117188 5.546875 14.117188 5.582031 C 14.117188 5.621094 14.15625 5.644531 14.222656 5.644531 C 14.285156 5.644531 14.328125 5.664062 14.328125 5.6875 C 14.328125 5.710938 14.378906 5.726562 14.4375 5.726562 C 14.5 5.726562 14.542969 5.75 14.542969 5.789062 C 14.542969 5.824219 14.570312 5.851562 14.605469 5.851562 C 14.644531 5.851562 14.667969 5.890625 14.667969 5.957031 C 14.667969 6.039062 14.691406 6.058594 14.777344 6.058594 C 14.839844 6.058594 14.882812 6.082031 14.882812 6.121094 C 14.882812 6.160156 14.921875 6.183594 14.984375 6.183594 C 15.046875 6.183594 15.097656 6.214844 15.113281 6.265625 C 15.125 6.308594 15.175781 6.359375 15.222656 6.371094 C 15.265625 6.386719 15.304688 6.414062 15.304688 6.4375 C 15.304688 6.457031 15.332031 6.472656 15.367188 6.472656 C 15.40625 6.472656 15.429688 6.511719 15.429688 6.582031 C 15.429688 6.691406 15.515625 6.808594 15.597656 6.808594 C 15.621094 6.808594 15.640625 6.832031 15.640625 6.867188 C 15.640625 6.902344 15.664062 6.929688 15.6875 6.929688 C 15.761719 6.929688 15.84375 7.035156 15.859375 7.140625 C 15.871094 7.207031 15.90625 7.246094 15.96875 7.253906 C 16.03125 7.261719 16.066406 7.296875 16.066406 7.347656 C 16.066406 7.394531 16.09375 7.441406 16.128906 7.453125 C 16.164062 7.46875 16.191406 7.523438 16.191406 7.578125 C 16.191406 7.640625 16.21875 7.675781 16.257812 7.675781 C 16.296875 7.675781 16.320312 7.714844 16.320312 7.78125 C 16.320312 7.839844 16.339844 7.882812 16.363281 7.882812 C 16.386719 7.882812 16.40625 7.914062 16.40625 7.949219 C 16.40625 7.980469 16.433594 8.011719 16.46875 8.011719 C 16.507812 8.011719 16.53125 8.050781 16.53125 8.113281 C 16.53125 8.167969 16.550781 8.21875 16.574219 8.21875 C 16.597656 8.21875 16.617188 8.28125 16.617188 8.363281 C 16.617188 8.457031 16.640625 8.519531 16.679688 8.535156 C 16.71875 8.550781 16.742188 8.613281 16.742188 8.71875 C 16.742188 8.832031 16.773438 8.90625 16.847656 8.980469 C 16.933594 9.066406 16.953125 9.125 16.953125 9.292969 C 16.953125 9.453125 16.972656 9.503906 17.015625 9.503906 C 17.070312 9.503906 17.082031 9.578125 17.082031 9.9375 C 17.082031 10.242188 17.097656 10.375 17.132812 10.390625 C 17.175781 10.410156 17.175781 10.421875 17.132812 10.441406 C 17.105469 10.453125 17.054688 10.492188 17.019531 10.523438 C 16.917969 10.625 16.871094 10.589844 16.871094 10.417969 C 16.871094 10.324219 16.851562 10.25 16.828125 10.25 C 16.804688 10.25 16.785156 10.222656 16.785156 10.1875 C 16.785156 10.144531 16.742188 10.125 16.660156 10.125 C 16.574219 10.125 16.53125 10.144531 16.53125 10.1875 C 16.53125 10.234375 16.484375 10.25 16.363281 10.25 C 16.210938 10.25 16.191406 10.261719 16.191406 10.355469 C 16.191406 10.417969 16.167969 10.457031 16.128906 10.457031 C 16.09375 10.457031 16.066406 10.476562 16.066406 10.503906 C 16.066406 10.546875 15.964844 10.664062 15.921875 10.664062 C 15.90625 10.664062 15.898438 10.597656 15.898438 10.519531 C 15.898438 10.441406 15.917969 10.375 15.941406 10.375 C 15.964844 10.375 15.980469 10.257812 15.980469 10.105469 L 15.980469 9.835938 L 15.75 9.835938 C 15.621094 9.835938 15.515625 9.855469 15.515625 9.878906 C 15.515625 9.898438 15.449219 9.917969 15.367188 9.917969 C 15.265625 9.917969 15.21875 9.9375 15.21875 9.980469 C 15.21875 10.015625 15.191406 10.042969 15.15625 10.042969 C 15.121094 10.042969 15.09375 10.0625 15.09375 10.085938 C 15.09375 10.105469 15.0625 10.125 15.03125 10.125 C 14.996094 10.125 14.964844 10.152344 14.964844 10.1875 C 14.964844 10.222656 14.929688 10.25 14.882812 10.25 C 14.820312 10.25 14.796875 10.222656 14.796875 10.144531 C 14.796875 10.082031 14.773438 10.042969 14.734375 10.042969 C 14.6875 10.042969 14.671875 9.996094 14.671875 9.878906 C 14.671875 9.726562 14.660156 9.710938 14.566406 9.710938 C 14.480469 9.710938 14.460938 9.6875 14.460938 9.605469 C 14.460938 9.542969 14.433594 9.503906 14.394531 9.503906 C 14.355469 9.503906 14.332031 9.464844 14.332031 9.398438 C 14.332031 9.34375 14.3125 9.296875 14.289062 9.296875 C 14.265625 9.296875 14.246094 9.269531 14.246094 9.234375 C 14.246094 9.199219 14.21875 9.171875 14.183594 9.171875 C 14.148438 9.171875 14.117188 9.152344 14.117188 9.128906 C 14.117188 9.070312 14.011719 8.964844 13.957031 8.964844 C 13.9375 8.964844 13.90625 8.917969 13.890625 8.859375 C 13.875 8.804688 13.84375 8.757812 13.820312 8.757812 C 13.800781 8.757812 13.78125 8.726562 13.78125 8.695312 C 13.78125 8.652344 13.734375 8.632812 13.632812 8.632812 C 13.503906 8.632812 13.484375 8.644531 13.484375 8.734375 C 13.484375 8.792969 13.503906 8.839844 13.527344 8.839844 C 13.550781 8.839844 13.570312 8.859375 13.570312 8.886719 C 13.570312 8.914062 13.617188 8.976562 13.675781 9.03125 C 13.734375 9.082031 13.78125 9.164062 13.78125 9.210938 C 13.78125 9.257812 13.800781 9.296875 13.824219 9.296875 C 13.847656 9.296875 13.867188 9.34375 13.867188 9.398438 C 13.867188 9.464844 13.890625 9.503906 13.929688 9.503906 C 13.96875 9.503906 13.992188 9.542969 13.992188 9.605469 C 13.992188 9.671875 14.015625 9.710938 14.054688 9.710938 C 14.09375 9.710938 14.121094 9.738281 14.121094 9.773438 C 14.121094 9.808594 14.136719 9.835938 14.160156 9.835938 C 14.183594 9.835938 14.203125 9.882812 14.203125 9.9375 C 14.203125 10.003906 14.226562 10.042969 14.265625 10.042969 C 14.3125 10.042969 14.332031 10.089844 14.332031 10.207031 C 14.332031 10.300781 14.351562 10.375 14.375 10.375 C 14.4375 10.375 14.542969 10.480469 14.542969 10.539062 C 14.542969 10.5625 14.636719 10.582031 14.777344 10.582031 C 14.902344 10.582031 15.007812 10.5625 15.007812 10.539062 C 15.007812 10.519531 15.039062 10.5 15.070312 10.5 C 15.105469 10.5 15.136719 10.472656 15.136719 10.4375 C 15.136719 10.402344 15.171875 10.375 15.21875 10.375 C 15.265625 10.375 15.304688 10.402344 15.304688 10.4375 C 15.304688 10.472656 15.332031 10.5 15.367188 10.5 C 15.402344 10.5 15.429688 10.535156 15.429688 10.582031 C 15.429688 10.628906 15.414062 10.664062 15.390625 10.664062 C 15.367188 10.664062 15.347656 10.648438 15.347656 10.625 C 15.347656 10.601562 15.289062 10.582031 15.21875 10.582031 C 15.148438 10.582031 15.09375 10.601562 15.09375 10.625 C 15.09375 10.648438 15.0625 10.664062 15.03125 10.664062 C 14.988281 10.664062 14.964844 10.707031 14.964844 10.789062 C 14.964844 10.886719 14.949219 10.914062 14.882812 10.914062 C 14.835938 10.914062 14.796875 10.933594 14.796875 10.957031 C 14.796875 10.976562 14.769531 10.996094 14.734375 10.996094 C 14.695312 10.996094 14.671875 11.035156 14.671875 11.101562 C 14.671875 11.164062 14.644531 11.203125 14.605469 11.203125 C 14.570312 11.203125 14.542969 11.234375 14.542969 11.265625 C 14.542969 11.304688 14.503906 11.328125 14.4375 11.328125 C 14.351562 11.328125 14.332031 11.347656 14.332031 11.433594 C 14.332031 11.496094 14.308594 11.539062 14.265625 11.539062 C 14.226562 11.539062 14.203125 11.574219 14.203125 11.640625 C 14.203125 11.695312 14.1875 11.746094 14.164062 11.746094 C 14.089844 11.746094 13.992188 11.875 13.992188 11.976562 C 13.992188 12.085938 13.90625 12.199219 13.828125 12.199219 C 13.800781 12.199219 13.78125 12.222656 13.78125 12.246094 C 13.78125 12.300781 13.671875 12.40625 13.617188 12.40625 C 13.589844 12.40625 13.570312 12.425781 13.570312 12.449219 C 13.570312 12.472656 13.523438 12.492188 13.46875 12.492188 C 13.335938 12.492188 13.230469 12.53125 13.230469 12.578125 C 13.230469 12.617188 13.195312 12.664062 13.074219 12.800781 C 13.042969 12.832031 13.019531 12.890625 13.019531 12.933594 C 13.015625 12.976562 12.960938 13.054688 12.890625 13.109375 C 12.800781 13.1875 12.765625 13.25 12.765625 13.347656 C 12.765625 13.425781 12.746094 13.488281 12.722656 13.488281 C 12.699219 13.488281 12.679688 13.535156 12.679688 13.589844 C 12.679688 13.65625 12.65625 13.695312 12.617188 13.695312 C 12.582031 13.695312 12.554688 13.722656 12.554688 13.753906 C 12.554688 13.804688 12.503906 13.816406 12.34375 13.816406 C 12.226562 13.816406 12.132812 13.835938 12.132812 13.859375 C 12.132812 13.882812 12.0625 13.898438 11.984375 13.898438 C 11.902344 13.898438 11.835938 13.882812 11.835938 13.859375 Z M 12.46875 8.382812 C 12.46875 8.359375 12.546875 8.339844 12.636719 8.339844 C 12.761719 8.339844 12.808594 8.324219 12.808594 8.277344 C 12.808594 8.246094 12.828125 8.21875 12.847656 8.21875 C 12.871094 8.21875 12.890625 8.234375 12.890625 8.257812 C 12.890625 8.28125 12.9375 8.300781 13 8.300781 C 13.054688 8.300781 13.105469 8.28125 13.105469 8.257812 C 13.105469 8.234375 13.132812 8.21875 13.167969 8.21875 C 13.207031 8.21875 13.230469 8.179688 13.230469 8.113281 C 13.230469 8.050781 13.253906 8.011719 13.292969 8.011719 C 13.328125 8.011719 13.359375 7.980469 13.359375 7.949219 C 13.359375 7.914062 13.375 7.882812 13.398438 7.882812 C 13.488281 7.882812 13.4375 7.800781 13.335938 7.777344 C 13.171875 7.738281 13.210938 7.675781 13.398438 7.675781 L 13.570312 7.675781 L 13.570312 7.476562 C 13.570312 7.246094 13.539062 7.222656 13.269531 7.222656 C 13.121094 7.222656 13.105469 7.234375 13.105469 7.324219 C 13.105469 7.417969 13.085938 7.429688 12.933594 7.429688 C 12.773438 7.429688 12.765625 7.433594 12.765625 7.554688 C 12.765625 7.667969 12.753906 7.675781 12.617188 7.675781 C 12.488281 7.675781 12.46875 7.691406 12.46875 7.78125 C 12.46875 7.875 12.453125 7.882812 12.300781 7.882812 C 12.148438 7.882812 12.128906 7.875 12.128906 7.78125 C 12.128906 7.699219 12.109375 7.675781 12.023438 7.675781 C 11.941406 7.675781 11.917969 7.699219 11.917969 7.78125 C 11.917969 7.84375 11.894531 7.882812 11.855469 7.882812 C 11.820312 7.882812 11.792969 7.90625 11.792969 7.929688 C 11.792969 7.949219 11.773438 7.96875 11.75 7.96875 C 11.726562 7.96875 11.707031 7.921875 11.707031 7.863281 C 11.707031 7.808594 11.6875 7.761719 11.664062 7.761719 C 11.601562 7.761719 11.496094 7.65625 11.496094 7.597656 C 11.496094 7.574219 11.417969 7.554688 11.324219 7.554688 C 11.203125 7.554688 11.15625 7.535156 11.15625 7.492188 C 11.15625 7.457031 11.128906 7.429688 11.097656 7.429688 C 11.0625 7.429688 11.007812 7.457031 10.972656 7.492188 C 10.9375 7.523438 10.859375 7.554688 10.800781 7.554688 C 10.742188 7.554688 10.691406 7.574219 10.691406 7.597656 C 10.691406 7.65625 10.585938 7.761719 10.527344 7.761719 C 10.5 7.761719 10.480469 7.789062 10.480469 7.824219 C 10.480469 7.859375 10.453125 7.882812 10.417969 7.882812 C 10.375 7.882812 10.355469 7.925781 10.355469 7.988281 L 10.355469 8.09375 L 11.578125 8.09375 L 11.578125 8.425781 L 12.023438 8.425781 C 12.292969 8.425781 12.46875 8.40625 12.46875 8.382812 Z M 12.46875 8.382812 "/>
<path style=" stroke:none;fill-rule:nonzero;fill:rgb(27.45098%,50.980392%,70.588235%);fill-opacity:1;" d="M 4.980469 8.132812 C 4.980469 7.96875 4.980469 7.96875 4.808594 7.96875 C 4.6875 7.96875 4.640625 7.984375 4.640625 8.03125 C 4.640625 8.0625 4.621094 8.09375 4.597656 8.09375 C 4.574219 8.09375 4.554688 8.046875 4.554688 7.988281 C 4.554688 7.925781 4.578125 7.882812 4.617188 7.882812 C 4.660156 7.882812 4.683594 7.84375 4.683594 7.78125 C 4.683594 7.722656 4.703125 7.675781 4.726562 7.675781 C 4.75 7.675781 4.769531 7.648438 4.769531 7.613281 C 4.769531 7.582031 4.796875 7.554688 4.832031 7.554688 C 4.867188 7.554688 4.894531 7.515625 4.894531 7.46875 C 4.894531 7.375 4.984375 7.261719 5.058594 7.261719 C 5.085938 7.261719 5.105469 7.234375 5.105469 7.199219 C 5.105469 7.167969 5.132812 7.136719 5.167969 7.136719 C 5.207031 7.136719 5.234375 7.097656 5.234375 7.035156 C 5.234375 6.976562 5.25 6.929688 5.273438 6.929688 C 5.296875 6.929688 5.316406 6.902344 5.316406 6.867188 C 5.316406 6.832031 5.347656 6.808594 5.378906 6.808594 C 5.414062 6.808594 5.445312 6.785156 5.445312 6.761719 C 5.445312 6.703125 5.550781 6.597656 5.609375 6.597656 C 5.636719 6.597656 5.65625 6.570312 5.65625 6.535156 C 5.65625 6.503906 5.675781 6.472656 5.699219 6.472656 C 5.777344 6.472656 5.867188 6.359375 5.867188 6.269531 C 5.867188 6.207031 5.894531 6.183594 5.972656 6.183594 C 6.039062 6.183594 6.078125 6.160156 6.078125 6.121094 C 6.078125 6.085938 6.105469 6.058594 6.144531 6.058594 C 6.175781 6.058594 6.207031 6.03125 6.207031 5.996094 C 6.207031 5.960938 6.246094 5.933594 6.296875 5.933594 C 6.34375 5.933594 6.449219 5.871094 6.527344 5.789062 C 6.601562 5.710938 6.703125 5.644531 6.746094 5.644531 C 6.824219 5.644531 6.96875 5.511719 6.96875 5.4375 C 6.96875 5.414062 7.015625 5.394531 7.074219 5.394531 C 7.132812 5.394531 7.179688 5.375 7.179688 5.355469 C 7.179688 5.332031 7.238281 5.3125 7.304688 5.3125 C 7.390625 5.3125 7.433594 5.292969 7.433594 5.25 C 7.433594 5.214844 7.472656 5.1875 7.519531 5.1875 C 7.582031 5.1875 7.601562 5.214844 7.601562 5.292969 C 7.601562 5.347656 7.585938 5.394531 7.5625 5.394531 C 7.539062 5.394531 7.519531 5.425781 7.519531 5.457031 C 7.519531 5.492188 7.546875 5.519531 7.582031 5.519531 C 7.617188 5.519531 7.644531 5.539062 7.644531 5.5625 C 7.644531 5.585938 7.691406 5.605469 7.75 5.605469 C 7.808594 5.605469 7.855469 5.585938 7.855469 5.5625 C 7.855469 5.539062 7.949219 5.519531 8.066406 5.519531 C 8.226562 5.519531 8.277344 5.503906 8.277344 5.457031 C 8.277344 5.425781 8.308594 5.394531 8.34375 5.394531 C 8.378906 5.394531 8.40625 5.375 8.40625 5.355469 C 8.40625 5.332031 8.425781 5.3125 8.449219 5.3125 C 8.472656 5.3125 8.492188 5.40625 8.492188 5.519531 C 8.492188 5.714844 8.503906 5.738281 8.679688 5.882812 C 8.722656 5.917969 8.921875 5.933594 9.335938 5.933594 C 9.835938 5.933594 9.929688 5.945312 9.929688 5.996094 C 9.929688 6.03125 9.902344 6.058594 9.867188 6.058594 C 9.832031 6.058594 9.800781 6.078125 9.800781 6.101562 C 9.800781 6.125 9.597656 6.144531 9.273438 6.144531 C 8.949219 6.144531 8.742188 6.125 8.742188 6.101562 C 8.742188 6.078125 8.714844 6.058594 8.679688 6.058594 C 8.644531 6.058594 8.617188 6.085938 8.617188 6.121094 C 8.617188 6.15625 8.597656 6.183594 8.574219 6.183594 C 8.550781 6.183594 8.53125 6.222656 8.53125 6.265625 C 8.53125 6.3125 8.503906 6.351562 8.46875 6.351562 C 8.433594 6.351562 8.40625 6.316406 8.40625 6.273438 C 8.40625 6.222656 8.367188 6.183594 8.300781 6.167969 C 8.242188 6.152344 8.195312 6.125 8.195312 6.101562 C 8.195312 6.078125 8.164062 6.058594 8.132812 6.058594 C 8.097656 6.058594 8.066406 6.078125 8.066406 6.101562 C 8.066406 6.125 8.039062 6.144531 8.003906 6.144531 C 7.957031 6.144531 7.941406 6.1875 7.941406 6.308594 C 7.941406 6.402344 7.921875 6.472656 7.898438 6.472656 C 7.875 6.472656 7.855469 6.503906 7.855469 6.535156 C 7.855469 6.570312 7.828125 6.597656 7.792969 6.597656 C 7.757812 6.597656 7.730469 6.617188 7.730469 6.640625 C 7.730469 6.664062 7.609375 6.679688 7.453125 6.679688 C 7.238281 6.679688 7.179688 6.695312 7.179688 6.746094 C 7.179688 6.785156 7.136719 6.808594 7.074219 6.808594 C 7.015625 6.808594 6.96875 6.824219 6.96875 6.847656 C 6.96875 6.871094 6.9375 6.890625 6.902344 6.890625 C 6.871094 6.890625 6.839844 6.917969 6.839844 6.953125 C 6.839844 6.988281 6.800781 7.015625 6.734375 7.015625 C 6.667969 7.015625 6.628906 7.039062 6.628906 7.074219 C 6.628906 7.113281 6.589844 7.136719 6.523438 7.136719 C 6.464844 7.136719 6.417969 7.15625 6.417969 7.179688 C 6.417969 7.203125 6.339844 7.21875 6.25 7.21875 C 6.125 7.21875 6.078125 7.238281 6.078125 7.28125 C 6.078125 7.316406 6.050781 7.347656 6.015625 7.347656 C 5.980469 7.347656 5.949219 7.363281 5.949219 7.386719 C 5.949219 7.410156 5.886719 7.429688 5.800781 7.429688 C 5.699219 7.429688 5.65625 7.449219 5.65625 7.492188 C 5.65625 7.523438 5.628906 7.554688 5.589844 7.554688 C 5.558594 7.554688 5.527344 7.582031 5.527344 7.617188 C 5.527344 7.648438 5.507812 7.675781 5.484375 7.675781 C 5.410156 7.675781 5.316406 7.789062 5.316406 7.882812 C 5.316406 7.929688 5.289062 7.96875 5.253906 7.96875 C 5.214844 7.96875 5.191406 8.007812 5.191406 8.074219 C 5.191406 8.183594 5.105469 8.300781 5.023438 8.300781 C 5 8.300781 4.980469 8.226562 4.980469 8.132812 Z M 4.980469 8.132812 "/>
<path style=" stroke:none;fill-rule:nonzero;fill:rgb(27.45098%,50.980392%,70.588235%);fill-opacity:1;" d="M 5.210938 15.101562 C 5.199219 15.058594 5.136719 15.007812 5.082031 14.996094 C 5.007812 14.976562 4.980469 14.941406 4.980469 14.871094 C 4.980469 14.816406 4.960938 14.773438 4.9375 14.773438 C 4.914062 14.773438 4.894531 14.726562 4.894531 14.667969 C 4.894531 14.605469 4.871094 14.566406 4.832031 14.566406 C 4.796875 14.566406 4.769531 14.546875 4.769531 14.523438 C 4.769531 14.480469 4.734375 14.433594 4.609375 14.296875 C 4.578125 14.265625 4.554688 14.191406 4.554688 14.132812 C 4.554688 14.066406 4.53125 14.027344 4.492188 14.027344 C 4.453125 14.027344 4.429688 13.984375 4.429688 13.921875 C 4.429688 13.863281 4.410156 13.816406 4.386719 13.816406 C 4.363281 13.816406 4.34375 13.789062 4.34375 13.753906 C 4.34375 13.722656 4.316406 13.691406 4.28125 13.691406 C 4.230469 13.691406 4.21875 13.640625 4.21875 13.488281 C 4.21875 13.371094 4.199219 13.277344 4.175781 13.277344 C 4.152344 13.277344 4.132812 13.191406 4.132812 13.082031 C 4.132812 12.886719 4.039062 12.742188 3.921875 12.742188 C 3.898438 12.742188 3.878906 12.621094 3.878906 12.46875 C 3.878906 12.316406 3.859375 12.199219 3.835938 12.199219 C 3.808594 12.199219 3.792969 11.867188 3.792969 11.285156 C 3.792969 10.707031 3.808594 10.375 3.835938 10.375 C 3.859375 10.375 3.878906 10.347656 3.878906 10.3125 C 3.878906 10.277344 3.898438 10.25 3.921875 10.25 C 4.019531 10.25 4.132812 10.101562 4.132812 9.96875 C 4.132812 9.898438 4.152344 9.835938 4.175781 9.835938 C 4.199219 9.835938 4.21875 9.863281 4.21875 9.898438 C 4.21875 9.941406 4.265625 9.960938 4.386719 9.960938 C 4.480469 9.960938 4.554688 9.976562 4.554688 10 C 4.554688 10.023438 4.621094 10.042969 4.703125 10.042969 C 4.808594 10.042969 4.851562 10.0625 4.851562 10.105469 C 4.851562 10.140625 4.878906 10.167969 4.917969 10.167969 C 4.949219 10.167969 4.980469 10.183594 4.980469 10.207031 C 4.980469 10.230469 5.074219 10.25 5.191406 10.25 C 5.347656 10.25 5.402344 10.265625 5.402344 10.3125 C 5.402344 10.355469 5.449219 10.375 5.570312 10.375 C 5.691406 10.375 5.738281 10.390625 5.738281 10.4375 C 5.738281 10.472656 5.769531 10.5 5.804688 10.5 C 5.839844 10.5 5.867188 10.519531 5.867188 10.539062 C 5.867188 10.5625 5.914062 10.582031 5.972656 10.582031 C 6.039062 10.582031 6.078125 10.605469 6.078125 10.644531 C 6.078125 10.691406 6.125 10.707031 6.25 10.707031 L 6.417969 10.707031 L 6.417969 10.914062 C 6.417969 11.109375 6.425781 11.121094 6.523438 11.121094 C 6.609375 11.121094 6.628906 11.140625 6.628906 11.226562 C 6.628906 11.308594 6.652344 11.328125 6.734375 11.328125 C 6.800781 11.328125 6.839844 11.351562 6.839844 11.390625 C 6.839844 11.429688 6.878906 11.453125 6.945312 11.453125 C 7.011719 11.453125 7.050781 11.476562 7.050781 11.515625 C 7.050781 11.550781 7.082031 11.578125 7.117188 11.578125 C 7.160156 11.578125 7.179688 11.621094 7.179688 11.722656 C 7.179688 11.851562 7.167969 11.867188 7.074219 11.867188 C 7.007812 11.867188 6.96875 11.890625 6.96875 11.929688 C 6.96875 11.964844 6.949219 11.992188 6.921875 11.992188 C 6.84375 11.992188 6.757812 12.109375 6.757812 12.21875 C 6.757812 12.277344 6.734375 12.324219 6.707031 12.324219 C 6.613281 12.324219 6.503906 12.503906 6.503906 12.664062 C 6.503906 12.75 6.484375 12.824219 6.460938 12.824219 C 6.4375 12.824219 6.417969 12.867188 6.417969 12.925781 C 6.417969 13.027344 6.40625 13.03125 6.144531 13.03125 C 5.960938 13.03125 5.851562 13.050781 5.808594 13.089844 C 5.777344 13.125 5.726562 13.152344 5.703125 13.152344 C 5.675781 13.152344 5.65625 13.199219 5.65625 13.257812 C 5.65625 13.320312 5.632812 13.363281 5.59375 13.363281 C 5.558594 13.363281 5.527344 13.390625 5.527344 13.425781 C 5.527344 13.457031 5.507812 13.488281 5.484375 13.488281 C 5.410156 13.488281 5.316406 13.601562 5.316406 13.691406 C 5.316406 13.742188 5.289062 13.8125 5.253906 13.84375 C 5.21875 13.878906 5.191406 13.953125 5.191406 14.007812 C 5.191406 14.0625 5.171875 14.109375 5.148438 14.109375 C 5.125 14.109375 5.105469 14.136719 5.105469 14.171875 C 5.105469 14.203125 5.078125 14.234375 5.042969 14.234375 C 4.996094 14.234375 4.980469 14.285156 4.980469 14.4375 C 4.980469 14.617188 4.988281 14.640625 5.085938 14.664062 C 5.160156 14.683594 5.191406 14.71875 5.191406 14.792969 C 5.191406 14.859375 5.214844 14.894531 5.253906 14.894531 C 5.300781 14.894531 5.316406 14.941406 5.316406 15.039062 C 5.316406 15.199219 5.253906 15.234375 5.210938 15.101562 Z M 5.210938 15.101562 "/>
<path style=" stroke:none;fill-rule:nonzero;fill:rgb(27.45098%,50.980392%,70.588235%);fill-opacity:1;" d="M 9.84375 17.59375 C 9.84375 17.546875 9.863281 17.511719 9.886719 17.511719 C 9.910156 17.511719 9.929688 17.53125 9.929688 17.554688 C 9.929688 17.574219 9.957031 17.59375 9.992188 17.59375 C 10.027344 17.59375 10.054688 17.613281 10.054688 17.636719 C 10.054688 17.660156 10.011719 17.675781 9.949219 17.675781 C 9.875 17.675781 9.84375 17.65625 9.84375 17.59375 Z M 9.84375 17.59375 "/>
<path style=" stroke:none;fill-rule:nonzero;fill:rgb(27.45098%,50.980392%,70.588235%);fill-opacity:1;" d="M 16.109375 14.066406 C 16.109375 14.042969 16.082031 14.027344 16.046875 14.027344 C 16.011719 14.027344 15.984375 14.007812 15.984375 13.980469 C 15.984375 13.894531 15.855469 13.816406 15.710938 13.816406 L 15.558594 13.816406 L 15.558594 12.609375 L 15.652344 12.636719 C 15.707031 12.65625 15.753906 12.683594 15.765625 12.703125 C 15.769531 12.722656 15.851562 12.742188 15.941406 12.742188 C 16.09375 12.742188 16.109375 12.730469 16.109375 12.636719 C 16.109375 12.550781 16.128906 12.53125 16.214844 12.53125 C 16.308594 12.53125 16.320312 12.550781 16.320312 12.671875 C 16.320312 12.761719 16.34375 12.824219 16.386719 12.839844 C 16.511719 12.886719 16.78125 12.863281 16.84375 12.800781 C 16.941406 12.707031 16.953125 12.722656 16.953125 12.949219 C 16.953125 13.0625 16.9375 13.152344 16.914062 13.152344 C 16.816406 13.152344 16.742188 13.296875 16.742188 13.488281 C 16.742188 13.640625 16.726562 13.695312 16.679688 13.695312 C 16.640625 13.695312 16.617188 13.730469 16.617188 13.796875 C 16.617188 13.855469 16.597656 13.898438 16.574219 13.898438 C 16.550781 13.898438 16.53125 13.929688 16.53125 13.964844 C 16.53125 13.996094 16.503906 14.027344 16.46875 14.027344 C 16.433594 14.027344 16.40625 14.042969 16.40625 14.066406 C 16.40625 14.089844 16.339844 14.109375 16.257812 14.109375 C 16.175781 14.109375 16.109375 14.089844 16.109375 14.066406 Z M 16.109375 14.066406 "/>
<path style=" stroke:none;fill-rule:nonzero;fill:rgb(27.45098%,50.980392%,70.588235%);fill-opacity:1;" d="M 17.96875 10.542969 C 17.96875 10.519531 17.988281 10.5 18.011719 10.5 C 18.035156 10.5 18.054688 10.519531 18.054688 10.542969 C 18.054688 10.5625 18.035156 10.582031 18.011719 10.582031 C 17.988281 10.582031 17.96875 10.5625 17.96875 10.542969 Z M 17.96875 10.542969 "/>
<path style=" stroke:none;fill-rule:nonzero;fill:rgb(27.45098%,50.980392%,70.588235%);fill-opacity:1;" d="M 10.390625 17.746094 C 10.390625 17.714844 10.351562 17.703125 10.226562 17.703125 C 10.082031 17.703125 10.058594 17.695312 10.058594 17.644531 C 10.058594 17.59375 10.078125 17.585938 10.226562 17.585938 C 10.351562 17.585938 10.390625 17.574219 10.390625 17.542969 C 10.390625 17.511719 10.417969 17.496094 10.472656 17.496094 C 10.601562 17.496094 10.6875 17.464844 10.6875 17.421875 C 10.6875 17.398438 10.714844 17.382812 10.75 17.382812 C 10.789062 17.382812 10.808594 17.402344 10.808594 17.4375 C 10.808594 17.476562 10.828125 17.496094 10.871094 17.496094 C 10.902344 17.496094 10.929688 17.515625 10.929688 17.542969 C 10.929688 17.566406 10.910156 17.585938 10.882812 17.585938 C 10.859375 17.585938 10.839844 17.613281 10.839844 17.644531 C 10.839844 17.691406 10.820312 17.703125 10.71875 17.703125 C 10.632812 17.703125 10.597656 17.714844 10.597656 17.746094 C 10.597656 17.777344 10.570312 17.789062 10.496094 17.789062 C 10.421875 17.789062 10.390625 17.777344 10.390625 17.746094 Z M 10.390625 17.746094 "/>
<path style=" stroke:none;fill-rule:nonzero;fill:rgb(27.45098%,50.980392%,70.588235%);fill-opacity:1;" d="M 8.953125 17.421875 L 8.953125 17.261719 L 9.117188 17.261719 C 9.261719 17.261719 9.28125 17.269531 9.28125 17.320312 C 9.28125 17.367188 9.304688 17.382812 9.390625 17.382812 C 9.460938 17.382812 9.492188 17.394531 9.492188 17.421875 C 9.492188 17.449219 9.519531 17.46875 9.5625 17.46875 C 9.699219 17.46875 9.820312 17.503906 9.820312 17.546875 C 9.820312 17.578125 9.734375 17.585938 9.390625 17.585938 L 8.953125 17.585938 Z M 8.953125 17.421875 "/>
<path style=" stroke:none;fill-rule:nonzero;fill:rgb(27.45098%,50.980392%,70.588235%);fill-opacity:1;" d="M 8.742188 17.542969 C 8.742188 17.515625 8.765625 17.496094 8.789062 17.496094 C 8.8125 17.496094 8.832031 17.515625 8.832031 17.542969 C 8.832031 17.566406 8.8125 17.585938 8.789062 17.585938 C 8.765625 17.585938 8.742188 17.566406 8.742188 17.542969 Z M 8.742188 17.542969 "/>
<path style=" stroke:none;fill-rule:nonzero;fill:rgb(27.45098%,50.980392%,70.588235%);fill-opacity:1;" d="M 8.390625 17.320312 C 8.390625 17.28125 8.398438 17.265625 8.40625 17.285156 C 8.414062 17.304688 8.414062 17.339844 8.40625 17.359375 C 8.398438 17.378906 8.390625 17.363281 8.390625 17.320312 Z M 8.390625 17.320312 "/>
<path style=" stroke:none;fill-rule:nonzero;fill:rgb(27.45098%,50.980392%,70.588235%);fill-opacity:1;" d="M 10.929688 17.59375 C 10.929688 17.496094 10.929688 17.492188 10.984375 17.492188 C 11.03125 17.492188 11.039062 17.5 11.039062 17.550781 C 11.039062 17.597656 11.042969 17.601562 11.09375 17.601562 C 11.140625 17.601562 11.148438 17.609375 11.148438 17.648438 C 11.148438 17.691406 11.144531 17.691406 11.039062 17.691406 L 10.929688 17.691406 Z M 10.929688 17.59375 "/>
<path style=" stroke:none;fill-rule:nonzero;fill:rgb(27.45098%,50.980392%,70.588235%);fill-opacity:1;" d="M 11.257812 17.648438 C 11.257812 17.609375 11.25 17.605469 11.171875 17.597656 L 11.085938 17.589844 L 11.171875 17.589844 C 11.253906 17.585938 11.257812 17.582031 11.257812 17.539062 C 11.257812 17.5 11.269531 17.492188 11.316406 17.492188 C 11.371094 17.492188 11.371094 17.496094 11.371094 17.59375 C 11.371094 17.691406 11.371094 17.691406 11.316406 17.691406 C 11.269531 17.691406 11.257812 17.683594 11.257812 17.648438 Z M 11.257812 17.648438 "/>
<path style=" stroke:none;fill-rule:nonzero;fill:rgb(27.45098%,50.980392%,70.588235%);fill-opacity:1;" d="M 11.371094 17.539062 C 11.371094 17.496094 11.371094 17.496094 11.535156 17.496094 C 11.699219 17.496094 11.703125 17.496094 11.703125 17.539062 C 11.703125 17.585938 11.699219 17.585938 11.535156 17.585938 C 11.371094 17.585938 11.371094 17.585938 11.371094 17.539062 Z M 11.371094 17.539062 "/>
<path style=" stroke:none;fill-rule:nonzero;fill:rgb(27.45098%,50.980392%,70.588235%);fill-opacity:1;" d="M 11.480469 17.648438 C 11.480469 17.605469 11.484375 17.601562 11.589844 17.601562 C 11.695312 17.601562 11.703125 17.605469 11.703125 17.648438 C 11.703125 17.691406 11.695312 17.691406 11.589844 17.691406 C 11.484375 17.691406 11.480469 17.691406 11.480469 17.648438 Z M 11.480469 17.648438 "/>
<path style=" stroke:none;fill-rule:nonzero;fill:rgb(27.45098%,50.980392%,70.588235%);fill-opacity:1;" d="M 9.613281 17.464844 C 9.539062 17.457031 9.492188 17.433594 9.492188 17.402344 C 9.492188 17.394531 9.542969 17.386719 9.601562 17.386719 C 9.710938 17.386719 9.710938 17.386719 9.710938 17.429688 C 9.710938 17.457031 9.707031 17.476562 9.699219 17.472656 C 9.691406 17.472656 9.652344 17.46875 9.613281 17.464844 Z M 9.613281 17.464844 "/>
<path style=" stroke:none;fill-rule:nonzero;fill:rgb(27.45098%,50.980392%,70.588235%);fill-opacity:1;" d="M 8.246094 17.265625 C 8.199219 17.257812 8.1875 17.25 8.1875 17.214844 C 8.1875 17.175781 8.195312 17.167969 8.242188 17.167969 C 8.292969 17.167969 8.296875 17.164062 8.296875 17.117188 C 8.296875 17.070312 8.304688 17.0625 8.34375 17.0625 C 8.386719 17.0625 8.390625 17.066406 8.390625 17.167969 C 8.390625 17.289062 8.398438 17.28125 8.246094 17.265625 Z M 8.246094 17.265625 "/>
<path style=" stroke:none;fill-rule:nonzero;fill:rgb(27.45098%,50.980392%,70.588235%);fill-opacity:1;" d="M 8.1875 17.324219 C 8.1875 17.289062 8.195312 17.277344 8.230469 17.277344 C 8.269531 17.277344 8.277344 17.289062 8.277344 17.324219 C 8.277344 17.359375 8.269531 17.367188 8.230469 17.367188 C 8.195312 17.367188 8.1875 17.359375 8.1875 17.324219 Z M 8.1875 17.324219 "/>
<path style=" stroke:none;fill-rule:nonzero;fill:rgb(27.45098%,50.980392%,70.588235%);fill-opacity:1;" d="M 8.515625 17.433594 C 8.515625 17.386719 8.523438 17.386719 8.628906 17.386719 C 8.734375 17.386719 8.738281 17.386719 8.738281 17.433594 C 8.738281 17.476562 8.734375 17.476562 8.628906 17.476562 C 8.523438 17.476562 8.515625 17.476562 8.515625 17.433594 Z M 8.515625 17.433594 "/>
<path style=" stroke:none;fill-rule:nonzero;fill:rgb(27.45098%,50.980392%,70.588235%);fill-opacity:1;" d="M 8.738281 17.433594 C 8.738281 17.390625 8.742188 17.386719 8.839844 17.386719 C 8.9375 17.386719 8.941406 17.390625 8.941406 17.433594 C 8.941406 17.472656 8.9375 17.476562 8.839844 17.476562 C 8.742188 17.476562 8.738281 17.472656 8.738281 17.433594 Z M 8.738281 17.433594 "/>
<path style=" stroke:none;fill-rule:nonzero;fill:rgb(27.45098%,50.980392%,70.588235%);fill-opacity:1;" d="M 8.847656 17.539062 C 8.847656 17.503906 8.859375 17.496094 8.894531 17.496094 C 8.933594 17.496094 8.941406 17.503906 8.941406 17.539062 C 8.941406 17.574219 8.933594 17.585938 8.894531 17.585938 C 8.855469 17.585938 8.847656 17.574219 8.847656 17.539062 Z M 8.847656 17.539062 "/>
<path style=" stroke:none;fill-rule:nonzero;fill:rgb(27.45098%,50.980392%,70.588235%);fill-opacity:1;" d="M 9.601562 17.648438 C 9.601562 17.609375 9.613281 17.601562 9.660156 17.601562 C 9.707031 17.601562 9.714844 17.609375 9.714844 17.648438 C 9.714844 17.683594 9.707031 17.691406 9.660156 17.691406 C 9.613281 17.691406 9.601562 17.683594 9.601562 17.648438 Z M 9.601562 17.648438 "/>
<path style=" stroke:none;fill-rule:nonzero;fill:rgb(27.45098%,50.980392%,70.588235%);fill-opacity:1;" d="M 9.957031 17.574219 C 9.945312 17.570312 9.933594 17.546875 9.933594 17.53125 C 9.933594 17.496094 9.949219 17.496094 10.101562 17.496094 C 10.265625 17.496094 10.269531 17.496094 10.261719 17.535156 C 10.257812 17.574219 10.246094 17.574219 10.117188 17.578125 C 10.042969 17.582031 9.96875 17.578125 9.957031 17.574219 Z M 9.957031 17.574219 "/>
<path style=" stroke:none;fill-rule:nonzero;fill:rgb(27.45098%,50.980392%,70.588235%);fill-opacity:1;" d="M 9.289062 5.085938 C 9.289062 4.976562 9.289062 4.976562 9.34375 4.976562 C 9.394531 4.976562 9.402344 4.96875 9.402344 4.921875 C 9.402344 4.875 9.40625 4.867188 9.457031 4.867188 C 9.503906 4.867188 9.511719 4.863281 9.511719 4.8125 C 9.511719 4.769531 9.519531 4.761719 9.558594 4.761719 C 9.597656 4.761719 9.601562 4.75 9.601562 4.703125 C 9.601562 4.652344 9.601562 4.652344 9.714844 4.652344 C 9.824219 4.652344 9.824219 4.652344 9.824219 4.597656 L 9.824219 4.542969 L 10.265625 4.542969 L 10.265625 4.597656 C 10.265625 4.644531 10.261719 4.652344 10.210938 4.652344 C 10.164062 4.652344 10.15625 4.65625 10.15625 4.703125 C 10.15625 4.761719 10.15625 4.761719 10.046875 4.761719 C 9.933594 4.761719 9.933594 4.761719 9.933594 4.8125 C 9.933594 4.863281 9.929688 4.867188 9.882812 4.867188 C 9.832031 4.867188 9.824219 4.875 9.824219 4.921875 C 9.824219 4.976562 9.824219 4.976562 9.714844 4.976562 C 9.605469 4.976562 9.605469 4.976562 9.605469 5.03125 C 9.605469 5.078125 9.597656 5.085938 9.550781 5.085938 C 9.5 5.085938 9.496094 5.089844 9.496094 5.136719 C 9.496094 5.191406 9.496094 5.191406 9.394531 5.191406 L 9.292969 5.191406 L 9.292969 5.085938 Z M 9.289062 5.085938 "/>
<path style=" stroke:none;fill-rule:nonzero;fill:rgb(27.45098%,50.980392%,70.588235%);fill-opacity:1;" d="M 10.15625 5.246094 C 10.15625 5.191406 10.15625 5.191406 10.265625 5.191406 C 10.375 5.191406 10.375 5.191406 10.375 5.246094 C 10.375 5.300781 10.375 5.300781 10.265625 5.300781 C 10.15625 5.300781 10.15625 5.300781 10.15625 5.246094 Z M 10.15625 5.246094 "/>
<path style=" stroke:none;fill-rule:nonzero;fill:rgb(27.45098%,50.980392%,70.588235%);fill-opacity:1;" d="M 11.148438 4.597656 C 11.148438 4.550781 11.15625 4.542969 11.203125 4.542969 C 11.253906 4.542969 11.257812 4.550781 11.257812 4.597656 C 11.257812 4.644531 11.253906 4.652344 11.203125 4.652344 C 11.15625 4.652344 11.148438 4.644531 11.148438 4.597656 Z M 11.148438 4.597656 "/>
<path style=" stroke:none;fill-rule:nonzero;fill:rgb(27.45098%,50.980392%,70.588235%);fill-opacity:1;" d="M 8.71875 5.058594 C 8.71875 5.046875 8.722656 4.996094 8.730469 4.953125 C 8.742188 4.878906 8.75 4.867188 8.789062 4.867188 C 8.828125 4.867188 8.828125 4.875 8.828125 4.976562 C 8.828125 5.082031 8.828125 5.082031 8.773438 5.082031 C 8.742188 5.082031 8.71875 5.074219 8.71875 5.058594 Z M 8.71875 5.058594 "/>
<path style=" stroke:none;fill-rule:nonzero;fill:rgb(27.45098%,50.980392%,70.588235%);fill-opacity:1;" d="M 8.613281 5.136719 C 8.613281 5.101562 8.617188 5.089844 8.621094 5.105469 C 8.628906 5.125 8.628906 5.152344 8.621094 5.167969 C 8.617188 5.1875 8.613281 5.171875 8.613281 5.136719 Z M 8.613281 5.136719 "/>
<path style=" stroke:none;fill-rule:nonzero;fill:rgb(27.45098%,50.980392%,70.588235%);fill-opacity:1;" d="M 8.40625 5.246094 C 8.40625 5.199219 8.414062 5.191406 8.453125 5.191406 C 8.492188 5.191406 8.5 5.199219 8.5 5.246094 C 8.5 5.292969 8.492188 5.300781 8.453125 5.300781 C 8.414062 5.300781 8.40625 5.292969 8.40625 5.246094 Z M 8.40625 5.246094 "/>
<path style=" stroke:none;fill-rule:nonzero;fill:rgb(27.45098%,50.980392%,70.588235%);fill-opacity:1;" d="M 8.515625 5.453125 C 8.515625 5.417969 8.527344 5.410156 8.5625 5.410156 C 8.601562 5.410156 8.609375 5.417969 8.609375 5.453125 C 8.609375 5.488281 8.601562 5.5 8.5625 5.5 C 8.527344 5.5 8.515625 5.488281 8.515625 5.453125 Z M 8.515625 5.453125 "/>
<path style=" stroke:none;fill-rule:nonzero;fill:rgb(27.45098%,50.980392%,70.588235%);fill-opacity:1;" d="M 7.855469 5.453125 L 7.855469 5.410156 L 8.066406 5.410156 C 8.226562 5.410156 8.277344 5.414062 8.277344 5.433594 C 8.277344 5.484375 8.234375 5.5 8.042969 5.5 L 7.855469 5.5 Z M 7.855469 5.453125 "/>
<path style=" stroke:none;fill-rule:nonzero;fill:rgb(27.45098%,50.980392%,70.588235%);fill-opacity:1;" d="M 7.652344 5.550781 C 7.632812 5.519531 7.640625 5.515625 7.742188 5.515625 C 7.804688 5.515625 7.855469 5.523438 7.855469 5.53125 C 7.855469 5.59375 7.6875 5.613281 7.652344 5.550781 Z M 7.652344 5.550781 "/>
<path style=" stroke:none;fill-rule:nonzero;fill:rgb(27.45098%,50.980392%,70.588235%);fill-opacity:1;" d="M 7.632812 5.246094 C 7.632812 5.199219 7.640625 5.191406 7.679688 5.191406 C 7.71875 5.191406 7.726562 5.199219 7.726562 5.246094 C 7.726562 5.292969 7.71875 5.300781 7.679688 5.300781 C 7.640625 5.300781 7.632812 5.292969 7.632812 5.246094 Z M 7.632812 5.246094 "/>
<path style=" stroke:none;fill-rule:nonzero;fill:rgb(27.45098%,50.980392%,70.588235%);fill-opacity:1;" d="M 8.628906 5.136719 C 8.628906 5.089844 8.636719 5.085938 8.675781 5.085938 C 8.714844 5.085938 8.722656 5.089844 8.722656 5.136719 C 8.722656 5.183594 8.714844 5.191406 8.675781 5.191406 C 8.636719 5.191406 8.628906 5.183594 8.628906 5.136719 Z M 8.628906 5.136719 "/>
<path style=" stroke:none;fill-rule:nonzero;fill:rgb(27.45098%,50.980392%,70.588235%);fill-opacity:1;" d="M 4.011719 9.609375 C 4.011719 9.503906 4.011719 9.503906 3.953125 9.503906 C 3.90625 9.503906 3.898438 9.496094 3.898438 9.449219 C 3.898438 9.402344 3.90625 9.394531 3.953125 9.394531 C 4.003906 9.394531 4.011719 9.390625 4.011719 9.339844 C 4.011719 9.292969 4.015625 9.285156 4.0625 9.285156 L 4.121094 9.285156 L 4.121094 8.851562 L 4.210938 8.851562 L 4.210938 9.394531 L 4.101562 9.394531 L 4.101562 9.558594 C 4.101562 9.71875 4.101562 9.71875 4.054688 9.71875 C 4.011719 9.71875 4.011719 9.714844 4.011719 9.609375 Z M 4.011719 9.609375 "/>
<path style=" stroke:none;fill-rule:nonzero;fill:rgb(27.45098%,50.980392%,70.588235%);fill-opacity:1;" d="M 4.210938 8.691406 C 4.210938 8.644531 4.21875 8.636719 4.265625 8.636719 C 4.316406 8.636719 4.320312 8.644531 4.320312 8.691406 C 4.320312 8.738281 4.316406 8.746094 4.265625 8.746094 C 4.21875 8.746094 4.210938 8.738281 4.210938 8.691406 Z M 4.210938 8.691406 "/>
<path style=" stroke:none;fill-rule:nonzero;fill:rgb(27.45098%,50.980392%,70.588235%);fill-opacity:1;" d="M 4.324219 8.476562 C 4.324219 8.425781 4.328125 8.421875 4.378906 8.421875 C 4.425781 8.421875 4.433594 8.425781 4.433594 8.476562 C 4.433594 8.523438 4.425781 8.53125 4.378906 8.53125 C 4.328125 8.53125 4.324219 8.523438 4.324219 8.476562 Z M 4.324219 8.476562 "/>
<path style=" stroke:none;fill-rule:nonzero;fill:rgb(27.45098%,50.980392%,70.588235%);fill-opacity:1;" d="M 4.324219 8.257812 C 4.324219 8.210938 4.328125 8.207031 4.378906 8.207031 C 4.425781 8.207031 4.433594 8.210938 4.433594 8.257812 C 4.433594 8.308594 4.425781 8.3125 4.378906 8.3125 C 4.328125 8.3125 4.324219 8.308594 4.324219 8.257812 Z M 4.324219 8.257812 "/>
<path style=" stroke:none;fill-rule:nonzero;fill:rgb(27.45098%,50.980392%,70.588235%);fill-opacity:1;" d="M 4.433594 8.148438 C 4.433594 8.101562 4.441406 8.097656 4.488281 8.097656 C 4.535156 8.097656 4.542969 8.101562 4.542969 8.148438 C 4.542969 8.199219 4.535156 8.203125 4.488281 8.203125 C 4.441406 8.203125 4.433594 8.199219 4.433594 8.148438 Z M 4.433594 8.148438 "/>
<path style=" stroke:none;fill-rule:nonzero;fill:rgb(27.45098%,50.980392%,70.588235%);fill-opacity:1;" d="M 4.210938 8.53125 C 4.210938 8.421875 4.210938 8.421875 4.265625 8.421875 C 4.320312 8.421875 4.320312 8.421875 4.320312 8.53125 C 4.320312 8.636719 4.320312 8.636719 4.265625 8.636719 C 4.210938 8.636719 4.210938 8.636719 4.210938 8.53125 Z M 4.210938 8.53125 "/>
<path style=" stroke:none;fill-rule:nonzero;fill:rgb(27.45098%,50.980392%,70.588235%);fill-opacity:1;" d="M 4.65625 8.691406 C 4.65625 8.644531 4.660156 8.636719 4.707031 8.636719 C 4.757812 8.636719 4.765625 8.644531 4.765625 8.691406 C 4.765625 8.738281 4.757812 8.746094 4.707031 8.746094 C 4.660156 8.746094 4.65625 8.738281 4.65625 8.691406 Z M 4.65625 8.691406 "/>
<path style=" stroke:none;fill-rule:nonzero;fill:rgb(27.45098%,50.980392%,70.588235%);fill-opacity:1;" d="M 4.765625 8.800781 C 4.765625 8.75 4.769531 8.746094 4.820312 8.746094 C 4.867188 8.746094 4.875 8.75 4.875 8.800781 C 4.875 8.847656 4.867188 8.851562 4.820312 8.851562 C 4.769531 8.851562 4.765625 8.847656 4.765625 8.800781 Z M 4.765625 8.800781 "/>
<path style=" stroke:none;fill-rule:nonzero;fill:rgb(27.45098%,50.980392%,70.588235%);fill-opacity:1;" d="M 4.875 8.910156 C 4.875 8.859375 4.878906 8.851562 4.929688 8.851562 C 4.980469 8.851562 4.984375 8.859375 4.984375 8.910156 C 4.984375 8.957031 4.980469 8.960938 4.929688 8.960938 C 4.878906 8.960938 4.875 8.957031 4.875 8.910156 Z M 4.875 8.910156 "/>
<path style=" stroke:none;fill-rule:nonzero;fill:rgb(27.45098%,50.980392%,70.588235%);fill-opacity:1;" d="M 4.984375 8.367188 C 4.984375 8.316406 4.992188 8.3125 5.039062 8.3125 C 5.089844 8.3125 5.09375 8.316406 5.09375 8.367188 C 5.09375 8.414062 5.089844 8.421875 5.039062 8.421875 C 4.992188 8.421875 4.984375 8.414062 4.984375 8.367188 Z M 4.984375 8.367188 "/>
<path style=" stroke:none;fill-rule:nonzero;fill:rgb(27.45098%,50.980392%,70.588235%);fill-opacity:1;" d="M 4.324219 8.367188 C 4.324219 8.316406 4.328125 8.3125 4.378906 8.3125 C 4.425781 8.3125 4.433594 8.316406 4.433594 8.367188 C 4.433594 8.414062 4.425781 8.421875 4.378906 8.421875 C 4.328125 8.421875 4.324219 8.414062 4.324219 8.367188 Z M 4.324219 8.367188 "/>
<path style=" stroke:none;fill-rule:nonzero;fill:rgb(27.45098%,50.980392%,70.588235%);fill-opacity:1;" d="M 4.011719 9.882812 C 4.011719 9.835938 4.015625 9.828125 4.054688 9.828125 C 4.09375 9.828125 4.101562 9.835938 4.101562 9.882812 C 4.101562 9.925781 4.09375 9.9375 4.054688 9.9375 C 4.015625 9.9375 4.011719 9.925781 4.011719 9.882812 Z M 4.011719 9.882812 "/>
<path style=" stroke:none;fill-rule:nonzero;fill:rgb(27.45098%,50.980392%,70.588235%);fill-opacity:1;" d="M 4.105469 9.773438 C 4.105469 9.738281 4.109375 9.726562 4.113281 9.742188 C 4.121094 9.757812 4.121094 9.789062 4.113281 9.804688 C 4.109375 9.824219 4.105469 9.808594 4.105469 9.773438 Z M 4.105469 9.773438 "/>
<path style=" stroke:none;fill-rule:nonzero;fill:rgb(27.45098%,50.980392%,70.588235%);fill-opacity:1;" d="M 4.011719 9.773438 C 4.011719 9.730469 4.015625 9.71875 4.054688 9.71875 C 4.09375 9.71875 4.101562 9.730469 4.101562 9.773438 C 4.101562 9.820312 4.09375 9.828125 4.054688 9.828125 C 4.015625 9.828125 4.011719 9.820312 4.011719 9.773438 Z M 4.011719 9.773438 "/>
<path style=" stroke:none;fill-rule:nonzero;fill:rgb(27.45098%,50.980392%,70.588235%);fill-opacity:1;" d="M 15.988281 11.542969 C 15.988281 11.433594 15.988281 11.433594 15.933594 11.433594 C 15.886719 11.433594 15.878906 11.425781 15.878906 11.386719 C 15.878906 11.351562 15.886719 11.34375 15.933594 11.34375 C 15.984375 11.34375 15.988281 11.339844 15.988281 11.289062 C 15.988281 11.242188 15.996094 11.234375 16.042969 11.234375 C 16.097656 11.234375 16.097656 11.234375 16.097656 11.34375 C 16.097656 11.453125 16.097656 11.453125 16.15625 11.453125 C 16.210938 11.453125 16.210938 11.453125 16.210938 11.550781 L 16.210938 11.648438 L 15.988281 11.648438 Z M 15.988281 11.542969 "/>
<path style=" stroke:none;fill-rule:nonzero;fill:rgb(27.45098%,50.980392%,70.588235%);fill-opacity:1;" d="M 16.207031 11.710938 C 16.207031 11.675781 16.21875 11.667969 16.265625 11.667969 C 16.308594 11.667969 16.320312 11.675781 16.320312 11.710938 C 16.320312 11.75 16.308594 11.757812 16.265625 11.757812 C 16.21875 11.757812 16.207031 11.75 16.207031 11.710938 Z M 16.207031 11.710938 "/>
<path style=" stroke:none;fill-rule:nonzero;fill:rgb(27.45098%,50.980392%,70.588235%);fill-opacity:1;" d="M 16.542969 11.441406 C 16.542969 11.34375 16.542969 11.34375 16.597656 11.34375 C 16.652344 11.34375 16.652344 11.34375 16.652344 11.441406 C 16.652344 11.539062 16.652344 11.542969 16.597656 11.542969 C 16.542969 11.542969 16.542969 11.539062 16.542969 11.441406 Z M 16.542969 11.441406 "/>
<path style=" stroke:none;fill-rule:nonzero;fill:rgb(27.45098%,50.980392%,70.588235%);fill-opacity:1;" d="M 16.761719 11.171875 C 16.761719 11.132812 16.769531 11.128906 16.816406 11.128906 C 16.863281 11.128906 16.871094 11.132812 16.871094 11.171875 C 16.871094 11.210938 16.863281 11.214844 16.816406 11.214844 C 16.769531 11.214844 16.761719 11.210938 16.761719 11.171875 Z M 16.761719 11.171875 "/>
<path style=" stroke:none;fill-rule:nonzero;fill:rgb(27.45098%,50.980392%,70.588235%);fill-opacity:1;" d="M 15.4375 10.957031 C 15.4375 10.917969 15.445312 10.910156 15.492188 10.910156 C 15.539062 10.910156 15.546875 10.917969 15.546875 10.957031 C 15.546875 10.992188 15.539062 11 15.492188 11 C 15.445312 11 15.4375 10.992188 15.4375 10.957031 Z M 15.4375 10.957031 "/>
<path style=" stroke:none;fill-rule:nonzero;fill:rgb(27.45098%,50.980392%,70.588235%);fill-opacity:1;" d="M 15.4375 10.097656 C 15.4375 10.050781 15.445312 10.042969 15.492188 10.042969 C 15.539062 10.042969 15.546875 10.050781 15.546875 10.097656 C 15.546875 10.144531 15.539062 10.152344 15.492188 10.152344 C 15.445312 10.152344 15.4375 10.144531 15.4375 10.097656 Z M 15.4375 10.097656 "/>
<path style=" stroke:none;fill-rule:nonzero;fill:rgb(27.45098%,50.980392%,70.588235%);fill-opacity:1;" d="M 14.667969 13.976562 C 14.667969 13.941406 14.671875 13.925781 14.675781 13.945312 C 14.679688 13.964844 14.679688 13.992188 14.675781 14.007812 C 14.671875 14.027344 14.667969 14.011719 14.667969 13.976562 Z M 14.667969 13.976562 "/>
<path style=" stroke:none;fill-rule:nonzero;fill:rgb(27.45098%,50.980392%,70.588235%);fill-opacity:1;" d="M 14.460938 14.410156 C 14.460938 14.363281 14.46875 14.355469 14.507812 14.355469 C 14.546875 14.355469 14.550781 14.363281 14.550781 14.410156 C 14.550781 14.457031 14.546875 14.464844 14.507812 14.464844 C 14.46875 14.464844 14.460938 14.457031 14.460938 14.410156 Z M 14.460938 14.410156 "/>
<path style=" stroke:none;fill-rule:nonzero;fill:rgb(27.45098%,50.980392%,70.588235%);fill-opacity:1;" d="M 13.136719 13.433594 C 13.136719 13.390625 13.144531 13.382812 13.183594 13.382812 C 13.222656 13.382812 13.230469 13.390625 13.230469 13.433594 C 13.230469 13.480469 13.222656 13.492188 13.183594 13.492188 C 13.144531 13.492188 13.136719 13.480469 13.136719 13.433594 Z M 13.136719 13.433594 "/>
<path style=" stroke:none;fill-rule:nonzero;fill:rgb(27.45098%,50.980392%,70.588235%);fill-opacity:1;" d="M 13.34375 13.230469 C 13.34375 13.199219 13.347656 13.1875 13.351562 13.207031 C 13.355469 13.222656 13.355469 13.25 13.351562 13.257812 C 13.34375 13.273438 13.34375 13.257812 13.34375 13.230469 Z M 13.34375 13.230469 "/>
<path style=" stroke:none;fill-rule:nonzero;fill:rgb(27.45098%,50.980392%,70.588235%);fill-opacity:1;" d="M 13.359375 13.121094 C 13.359375 13.085938 13.367188 13.074219 13.40625 13.074219 C 13.441406 13.074219 13.449219 13.085938 13.449219 13.121094 C 13.449219 13.15625 13.441406 13.167969 13.40625 13.167969 C 13.367188 13.167969 13.359375 13.15625 13.359375 13.121094 Z M 13.359375 13.121094 "/>
<path style=" stroke:none;fill-rule:nonzero;fill:rgb(27.45098%,50.980392%,70.588235%);fill-opacity:1;" d="M 13.46875 13.011719 C 13.46875 12.976562 13.476562 12.964844 13.515625 12.964844 C 13.550781 12.964844 13.558594 12.976562 13.558594 13.011719 C 13.558594 13.046875 13.550781 13.058594 13.515625 13.058594 C 13.476562 13.058594 13.46875 13.046875 13.46875 13.011719 Z M 13.46875 13.011719 "/>
<path style=" stroke:none;fill-rule:nonzero;fill:rgb(27.45098%,50.980392%,70.588235%);fill-opacity:1;" d="M 13.492188 12.953125 C 13.507812 12.949219 13.535156 12.949219 13.546875 12.953125 C 13.558594 12.960938 13.542969 12.964844 13.515625 12.964844 C 13.484375 12.960938 13.472656 12.957031 13.492188 12.953125 Z M 13.492188 12.953125 "/>
<path style=" stroke:none;fill-rule:nonzero;fill:rgb(27.45098%,50.980392%,70.588235%);fill-opacity:1;" d="M 13.46875 12.902344 C 13.46875 12.867188 13.476562 12.859375 13.515625 12.859375 C 13.550781 12.859375 13.558594 12.867188 13.558594 12.902344 C 13.558594 12.9375 13.550781 12.949219 13.515625 12.949219 C 13.476562 12.949219 13.46875 12.9375 13.46875 12.902344 Z M 13.46875 12.902344 "/>
<path style=" stroke:none;fill-rule:nonzero;fill:rgb(27.45098%,50.980392%,70.588235%);fill-opacity:1;" d="M 13.359375 13.011719 C 13.359375 12.976562 13.367188 12.964844 13.40625 12.964844 C 13.441406 12.964844 13.449219 12.976562 13.449219 13.011719 C 13.449219 13.046875 13.441406 13.058594 13.40625 13.058594 C 13.367188 13.058594 13.359375 13.046875 13.359375 13.011719 Z M 13.359375 13.011719 "/>
<path style=" stroke:none;fill-rule:nonzero;fill:rgb(27.45098%,50.980392%,70.588235%);fill-opacity:1;" d="M 13.34375 13.121094 C 13.34375 13.089844 13.347656 13.082031 13.351562 13.097656 C 13.355469 13.117188 13.355469 13.140625 13.351562 13.152344 C 13.34375 13.164062 13.34375 13.148438 13.34375 13.121094 Z M 13.34375 13.121094 "/>
<path style=" stroke:none;fill-rule:nonzero;fill:rgb(27.45098%,50.980392%,70.588235%);fill-opacity:1;" d="M 13.246094 13.230469 C 13.246094 13.191406 13.257812 13.183594 13.292969 13.183594 C 13.328125 13.183594 13.339844 13.191406 13.339844 13.230469 C 13.339844 13.265625 13.328125 13.273438 13.292969 13.273438 C 13.257812 13.273438 13.246094 13.265625 13.246094 13.230469 Z M 13.246094 13.230469 "/>
<path style=" stroke:none;fill-rule:nonzero;fill:rgb(27.45098%,50.980392%,70.588235%);fill-opacity:1;" d="M 16.652344 11.226562 L 16.652344 11.019531 L 16.761719 11.019531 L 16.761719 11.433594 L 16.652344 11.433594 Z M 16.652344 11.226562 "/>
<path style=" stroke:none;fill-rule:nonzero;fill:rgb(27.45098%,50.980392%,70.588235%);fill-opacity:1;" d="M 16.761719 11.0625 C 16.761719 11.027344 16.75 11.019531 16.699219 11.015625 L 16.640625 11.007812 L 16.699219 11.003906 C 16.753906 11 16.761719 10.996094 16.761719 10.957031 C 16.761719 10.917969 16.769531 10.910156 16.816406 10.910156 C 16.871094 10.910156 16.871094 10.914062 16.871094 11.007812 C 16.871094 11.109375 16.871094 11.109375 16.816406 11.109375 C 16.769531 11.109375 16.761719 11.101562 16.761719 11.0625 Z M 16.761719 11.0625 "/>
<path style=" stroke:none;fill-rule:nonzero;fill:rgb(27.45098%,50.980392%,70.588235%);fill-opacity:1;" d="M 17.203125 10.316406 C 17.203125 10.269531 17.210938 10.261719 17.257812 10.261719 C 17.308594 10.261719 17.316406 10.269531 17.316406 10.316406 C 17.316406 10.363281 17.308594 10.371094 17.257812 10.371094 C 17.210938 10.371094 17.203125 10.363281 17.203125 10.316406 Z M 17.203125 10.316406 "/>
<path style=" stroke:none;fill-rule:nonzero;fill:rgb(27.45098%,50.980392%,70.588235%);fill-opacity:1;" d="M 17.203125 10.738281 L 17.203125 10.585938 L 17.316406 10.585938 L 17.316406 10.890625 L 17.203125 10.890625 Z M 17.203125 10.738281 "/>
<path style=" stroke:none;fill-rule:nonzero;fill:rgb(27.45098%,50.980392%,70.588235%);fill-opacity:1;" d="M 17.09375 10.53125 C 17.09375 10.476562 17.09375 10.476562 17.203125 10.476562 C 17.3125 10.476562 17.3125 10.476562 17.3125 10.53125 C 17.3125 10.585938 17.3125 10.585938 17.203125 10.585938 C 17.09375 10.585938 17.09375 10.585938 17.09375 10.53125 Z M 17.09375 10.53125 "/>
</g>
</svg>
