
<svg xmlns="http://www.w3.org/2000/svg" xmlns:xlink="http://www.w3.org/1999/xlink" width="22px" height="22px" viewBox="0 0 22 22" version="1.1">
<g id="surface1">
<path style=" stroke:none;fill-rule:nonzero;fill:rgb(100%,84.313725%,0%);fill-opacity:1;" d="M 10.691406 21.882812 C 12.960938 21.707031 15.617188 20.617188 17.46875 19.105469 C 19.71875 17.265625 21.363281 14.445312 21.808594 11.664062 C 21.902344 11.058594 21.933594 9.652344 21.859375 9.027344 C 21.558594 6.433594 20.035156 3.855469 17.8125 2.171875 C 16.609375 1.261719 15.011719 0.535156 13.515625 0.214844 C 9.625 -0.609375 5.5625 0.957031 2.777344 4.359375 C 1.109375 6.394531 0.246094 8.449219 0.0351562 10.882812 C -0.21875 13.796875 0.929688 16.921875 3.027344 19.023438 C 4.671875 20.675781 6.878906 21.726562 8.972656 21.855469 C 9.277344 21.875 9.648438 21.898438 9.800781 21.910156 C 9.953125 21.921875 10.355469 21.910156 10.691406 21.882812 Z M 10.691406 21.882812 "/>
<path style=" stroke:none;fill-rule:nonzero;fill:rgb(0%,0%,0%);fill-opacity:1;" d="M 13.886719 5.96875 L 10.917969 10.277344 L 15.421875 16.425781 L 16.222656 16.425781 L 12.570312 11.425781 L 16.292969 5.96875 L 13.882812 5.96875 Z M 13.886719 5.96875 "/>
<path style=" stroke:none;fill-rule:nonzero;fill:rgb(0%,0%,0%);fill-opacity:1;" d="M 6.011719 16.414062 L 9.652344 11.4375 L 5.90625 5.96875 L 8.3125 5.972656 L 11.300781 10.273438 L 6.832031 16.417969 L 6.011719 16.417969 Z M 6.011719 16.414062 "/>
<path style=" stroke:none;fill-rule:nonzero;fill:rgb(0%,0%,0%);fill-opacity:1;" d="M 13.550781 16.394531 L 10.582031 12.085938 L 15.085938 5.9375 L 15.890625 5.9375 L 12.230469 10.9375 L 15.960938 16.394531 Z M 13.550781 16.394531 "/>
<path style=" stroke:none;fill-rule:nonzero;fill:rgb(0%,0%,0%);fill-opacity:1;" d="M 5.457031 5.96875 L 9.101562 10.945312 L 5.351562 16.417969 L 7.761719 16.414062 L 10.75 12.113281 L 6.28125 5.96875 Z M 5.457031 5.96875 "/>
<path style=" stroke:none;fill-rule:nonzero;fill:rgb(0%,0%,0%);fill-opacity:1;" d="M 10.453125 9.820312 L 7.160156 14.375 L 9.167969 14.445312 L 11.789062 10.867188 C 9.558594 8.042969 10.953125 10.675781 10.695312 9.574219 Z M 10.453125 9.820312 "/>
<path style=" stroke:none;fill-rule:nonzero;fill:rgb(0%,0%,0%);fill-opacity:1;" d="M 7.761719 5.96875 L 10.730469 10.277344 L 6.222656 16.425781 L 5.421875 16.425781 L 9.078125 11.425781 L 5.351562 5.96875 Z M 7.761719 5.96875 "/>
<path style=" stroke:none;fill-rule:nonzero;fill:rgb(0%,0%,0%);fill-opacity:1;" d="M 15.636719 16.414062 L 11.992188 11.4375 L 15.742188 5.96875 L 13.332031 5.972656 L 10.34375 10.273438 L 14.8125 16.417969 L 15.636719 16.417969 Z M 15.636719 16.414062 "/>
<path style=" stroke:none;fill-rule:nonzero;fill:rgb(0%,0%,0%);fill-opacity:1;" d="M 8.097656 16.394531 L 11.0625 12.085938 L 6.558594 5.9375 L 5.757812 5.9375 L 9.414062 10.9375 L 5.6875 16.394531 Z M 8.097656 16.394531 "/>
<path style=" stroke:none;fill-rule:nonzero;fill:rgb(0%,0%,0%);fill-opacity:1;" d="M 16.1875 5.96875 L 12.546875 10.945312 L 16.292969 16.417969 L 13.882812 16.414062 L 10.894531 12.113281 L 15.363281 5.96875 Z M 16.1875 5.96875 "/>
<path style=" stroke:none;fill-rule:nonzero;fill:rgb(0%,0%,0%);fill-opacity:1;" d="M 11.195312 9.820312 L 14.488281 14.375 L 12.480469 14.445312 L 9.859375 10.867188 C 12.089844 8.042969 10.691406 10.675781 10.953125 9.574219 Z M 11.195312 9.820312 "/>
</g>
</svg>
