
<svg xmlns="http://www.w3.org/2000/svg" xmlns:xlink="http://www.w3.org/1999/xlink" width="22px" height="22px" viewBox="0 0 22 22" version="1.1">
<g id="surface1">
<path style=" stroke:none;fill-rule:nonzero;fill:rgb(82.745098%,82.745098%,82.745098%);fill-opacity:1;" d="M 21.757812 10.183594 C 23.007812 23.414062 1.96875 26.972656 0.335938 13.390625 C -1.6875 0.898438 17.378906 -5.535156 21.191406 6.875 C 21.609375 7.925781 21.601562 9.074219 21.757812 10.183594 Z M 21.757812 10.183594 "/>
<path style="fill-rule:evenodd;fill:rgb(27.45098%,50.980392%,70.588235%);fill-opacity:1;stroke-width:1.023958;stroke-linecap:butt;stroke-linejoin:miter;stroke:rgb(27.45098%,50.980392%,70.588235%);stroke-opacity:1;stroke-miterlimit:4;" d="M 99.454545 51.545455 L 151.409091 51.545455 C 152.818182 51.545455 153.954545 52.681818 153.954545 54.045455 L 153.954545 167.272727 C 153.954545 168.636364 152.818182 169.772727 151.409091 169.772727 L 99.454545 169.772727 C 98.045455 169.772727 96.909091 168.636364 96.909091 167.272727 L 96.909091 54.045455 C 96.909091 52.681818 98.045455 51.545455 99.454545 51.545455 Z M 99.454545 51.545455 " transform="matrix(0.0859375,0,0,0.0859375,0,0)"/>
<path style="fill-rule:evenodd;fill:rgb(27.45098%,50.980392%,70.588235%);fill-opacity:1;stroke-width:0.396181;stroke-linecap:butt;stroke-linejoin:miter;stroke:rgb(27.45098%,50.980392%,70.588235%);stroke-opacity:1;stroke-miterlimit:4;" d="M 119.090909 107.954545 L 128.772727 107.954545 C 129.045455 107.954545 129.272727 108.136364 129.272727 108.409091 L 129.272727 202.272727 C 129.272727 202.545455 129.045455 202.772727 128.772727 202.772727 L 119.090909 202.772727 C 118.818182 202.772727 118.590909 202.545455 118.590909 202.272727 L 118.590909 108.409091 C 118.590909 108.136364 118.818182 107.954545 119.090909 107.954545 Z M 119.090909 107.954545 " transform="matrix(0.0859375,0,0,0.0859375,0,0)"/>
<path style="fill-rule:evenodd;fill:rgb(69.019608%,76.862745%,87.058824%);fill-opacity:1;stroke-width:0.567871;stroke-linecap:butt;stroke-linejoin:miter;stroke:rgb(27.45098%,50.980392%,70.588235%);stroke-opacity:1;stroke-miterlimit:4;" d="M 116.454545 51.318182 L 132.409091 51.318182 C 132.818182 51.318182 133.181818 51.681818 133.181818 52.090909 L 133.181818 169.227273 C 133.181818 169.636364 132.818182 170 132.409091 170 L 116.454545 170 C 116.045455 170 115.681818 169.636364 115.681818 169.227273 L 115.681818 52.090909 C 115.681818 51.681818 116.045455 51.318182 116.454545 51.318182 Z M 116.454545 51.318182 " transform="matrix(0.0859375,0,0,0.0859375,0,0)"/>
<path style="fill-rule:evenodd;fill:rgb(27.45098%,50.980392%,70.588235%);fill-opacity:1;stroke-width:0.500039;stroke-linecap:butt;stroke-linejoin:miter;stroke:rgb(27.45098%,50.980392%,70.588235%);stroke-opacity:1;stroke-miterlimit:4;" d="M 192.181818 -186.227273 L 204.045455 -186.227273 C 204.363636 -186.227273 204.636364 -185.954545 204.636364 -185.636364 L 204.636364 -63.227273 C 204.636364 -62.909091 204.363636 -62.636364 204.045455 -62.636364 L 192.181818 -62.636364 C 191.863636 -62.636364 191.636364 -62.909091 191.636364 -63.227273 L 191.636364 -185.636364 C 191.636364 -185.954545 191.863636 -186.227273 192.181818 -186.227273 Z M 192.181818 -186.227273 " transform="matrix(0,0.0859375,-0.0859375,0,0,0)"/>
<path style=" stroke:none;fill-rule:nonzero;fill:rgb(100%,100%,100%);fill-opacity:1;" d="M 14.035156 16.527344 C 13.976562 16.46875 13.910156 16.34375 13.890625 16.246094 C 13.796875 15.804688 13.75 15.742188 13.421875 15.59375 L 13.09375 15.445312 L 12.796875 15.675781 C 12.632812 15.804688 12.445312 15.90625 12.378906 15.90625 C 12.234375 15.90625 11.464844 15.222656 11.328125 14.96875 C 11.230469 14.792969 11.238281 14.773438 11.476562 14.492188 L 11.730469 14.203125 L 11.609375 13.902344 C 11.449219 13.503906 11.347656 13.417969 11.035156 13.417969 C 10.613281 13.417969 10.476562 13.222656 10.476562 12.625 C 10.476562 12.359375 10.496094 12.078125 10.515625 12.003906 C 10.566406 11.828125 10.792969 11.695312 11.128906 11.652344 C 11.382812 11.617188 11.410156 11.589844 11.570312 11.238281 L 11.738281 10.863281 L 11.488281 10.601562 C 11.347656 10.457031 11.234375 10.3125 11.234375 10.285156 C 11.234375 10.125 11.84375 9.480469 12.179688 9.28125 C 12.429688 9.132812 12.539062 9.164062 12.816406 9.445312 C 12.988281 9.621094 13.195312 9.667969 13.269531 9.550781 C 13.292969 9.515625 13.367188 9.484375 13.433594 9.484375 C 13.640625 9.484375 13.855469 9.238281 13.855469 9.003906 C 13.855469 8.863281 13.914062 8.738281 14.015625 8.644531 C 14.15625 8.519531 14.253906 8.503906 14.835938 8.503906 C 15.460938 8.503906 15.503906 8.511719 15.609375 8.664062 C 15.667969 8.753906 15.71875 8.914062 15.71875 9.023438 C 15.71875 9.238281 15.925781 9.484375 16.101562 9.484375 C 16.160156 9.484375 16.285156 9.535156 16.378906 9.59375 C 16.550781 9.699219 16.5625 9.695312 16.8125 9.460938 C 16.953125 9.332031 17.113281 9.222656 17.167969 9.222656 C 17.40625 9.222656 18.339844 10.066406 18.339844 10.28125 C 18.339844 10.3125 18.230469 10.449219 18.097656 10.589844 C 17.964844 10.730469 17.859375 10.871094 17.859375 10.90625 C 17.859375 10.941406 17.933594 11.121094 18.03125 11.308594 C 18.183594 11.605469 18.226562 11.648438 18.414062 11.648438 C 18.527344 11.648438 18.710938 11.691406 18.816406 11.742188 C 19.039062 11.851562 19.097656 12.046875 19.097656 12.664062 C 19.097656 13.1875 18.957031 13.382812 18.519531 13.445312 C 18.171875 13.496094 18.121094 13.539062 17.960938 13.925781 L 17.84375 14.203125 L 18.089844 14.464844 C 18.226562 14.609375 18.339844 14.773438 18.339844 14.824219 C 18.339844 14.96875 17.453125 15.835938 17.261719 15.882812 C 17.136719 15.914062 17.023438 15.863281 16.792969 15.6875 L 16.492188 15.449219 L 16.226562 15.554688 C 15.851562 15.699219 15.71875 15.832031 15.71875 16.054688 C 15.71875 16.253906 15.609375 16.5 15.484375 16.578125 C 15.441406 16.605469 15.125 16.625 14.777344 16.628906 C 14.292969 16.628906 14.117188 16.605469 14.035156 16.527344 Z M 16.328125 12.324219 C 16.371094 12.027344 14.164062 11.03125 14.089844 11.0625 C 13.8125 11.378906 13.578125 12.746094 13.695312 13.242188 C 14.292969 14.742188 16.179688 12.878906 16.328125 12.324219 Z M 16.328125 12.324219 "/>
<path style="fill-rule:evenodd;fill:rgb(27.45098%,50.980392%,70.588235%);fill-opacity:1;stroke-width:1.23878;stroke-linecap:butt;stroke-linejoin:miter;stroke:rgb(27.45098%,50.980392%,70.588235%);stroke-opacity:1;stroke-miterlimit:4;" d="M 111.778261 170.560858 C 105.945722 167.580544 102.887886 165.255899 100.169809 161.500703 C 87.655333 144.453307 92.864979 123.173866 111.834887 113.696467 C 124.575871 107.318595 139.242158 109.822059 149.548198 120.133945 C 155.66387 126.273392 158.32532 132.472445 158.381946 141.174962 C 158.495199 157.983933 144.621684 172.349046 126.727681 173.958416 C 120.215623 174.494872 119.196344 174.316054 111.778261 170.560858 Z M 132.39034 150.533148 C 136.184322 148.268109 140.20481 145.168583 141.337342 143.559213 C 143.432526 140.757718 143.432526 140.757718 141.054209 138.194648 C 139.751797 136.823704 134.315644 133.366539 128.936118 130.565044 C 115.005977 123.173866 113.193926 124.187172 112.004767 140.042443 C 111.381875 147.791259 111.608381 149.758266 113.137299 152.142518 C 116.874654 157.924327 120.781889 157.566689 132.39034 150.533148 Z M 132.39034 150.533148 " transform="matrix(0.0689826,0,0,0.0655342,6.16815,3.400555)"/>
</g>
</svg>
