
<svg xmlns="http://www.w3.org/2000/svg" xmlns:xlink="http://www.w3.org/1999/xlink" width="22px" height="22px" viewBox="0 0 22 22" version="1.1">
<g id="surface1">
<path style=" stroke:none;fill-rule:nonzero;fill:rgb(54.509804%,0%,0%);fill-opacity:1;" d="M 21.945312 10.039062 C 23.210938 23.324219 1.898438 26.902344 0.246094 13.257812 C -1.804688 0.710938 17.507812 -5.75 21.371094 6.714844 C 21.796875 7.769531 21.789062 8.921875 21.945312 10.039062 Z M 21.945312 10.039062 "/>
<path style="fill-rule:nonzero;fill:rgb(100%,27.058824%,0%);fill-opacity:1;stroke-width:1;stroke-linecap:butt;stroke-linejoin:miter;stroke:rgb(100%,0%,0%);stroke-opacity:1;stroke-miterlimit:4;" d="M 58.607492 881.929718 L 87.605216 1010.196945 L 193.369641 986.294832 L 164.326466 857.982929 Z M 113.875881 884.386945 C 116.466587 883.716792 119.284547 883.314701 122.057057 883.225347 C 144.600742 882.689225 163.917407 901.810915 165.190035 925.936412 C 165.235486 927.09801 165.099133 928.348962 165.099133 929.465883 L 138.01035 927.857517 C 138.055801 926.606565 137.873997 925.310937 137.601291 924.015308 C 135.828703 916.107506 128.465645 911.059022 121.148037 912.712066 C 113.83043 914.365109 109.376234 922.094204 111.148822 929.957329 C 112.739607 936.926917 118.648234 941.707339 125.056821 941.573309 L 126.647606 970.702613 C 104.149372 971.283412 84.832706 952.161721 83.560079 928.036224 C 82.469256 906.904076 95.513686 888.943983 113.875881 884.431622 Z M 124.375057 926.96398 L 165.462741 955.15507 L 168.68976 969.406984 L 155.463525 972.400333 Z M 87.78702 980.218781 L 100.967803 977.225432 L 104.194823 991.477346 L 91.014039 994.470695 Z M 87.78702 980.218781 " transform="matrix(0.0859442,0,0,-0.0874334,0.205211,92.711704)"/>
</g>
</svg>
