
<svg xmlns="http://www.w3.org/2000/svg" xmlns:xlink="http://www.w3.org/1999/xlink" width="22px" height="22px" viewBox="0 0 22 22" version="1.1">
<g id="surface1">
<path style=" stroke:none;fill-rule:nonzero;fill:rgb(57.647059%,43.921569%,85.882353%);fill-opacity:1;" d="M 19.695312 16.851562 C 27.566406 5.648438 13.023438 -5.707031 3.75 3.421875 C -4.992188 12.023438 3.113281 25.386719 13.988281 21.210938 C 16.257812 20.339844 18.246094 18.90625 19.695312 16.851562 Z M 19.695312 16.851562 "/>
<path style=" stroke:none;fill-rule:nonzero;fill:rgb(100%,100%,100%);fill-opacity:0.2;" d="M 11.046875 3.5 C 6.867188 3.5 3.5 6.929688 3.5 11.1875 C 3.5 11.25 3.5 11.316406 3.5 11.378906 C 3.601562 7.210938 6.929688 3.886719 11.046875 3.886719 C 15.164062 3.886719 18.492188 7.210938 18.589844 11.378906 C 18.59375 11.316406 18.589844 11.25 18.589844 11.1875 C 18.589844 6.929688 15.226562 3.5 11.046875 3.5 Z M 11.046875 3.5 "/>
<path style=" stroke:none;fill-rule:nonzero;fill:rgb(0%,0%,0%);fill-opacity:0.301961;" d="M 3.507812 10.996094 C 3.503906 11.058594 3.5 11.121094 3.5 11.1875 C 3.5 15.445312 6.867188 18.871094 11.046875 18.871094 C 15.226562 18.871094 18.589844 15.445312 18.589844 11.1875 C 18.589844 11.121094 18.585938 11.058594 18.585938 10.996094 C 18.488281 15.164062 15.164062 18.488281 11.046875 18.488281 C 6.929688 18.488281 3.605469 15.164062 3.507812 10.996094 Z M 3.507812 10.996094 "/>
<path style=" stroke:none;fill-rule:nonzero;fill:rgb(0%,0%,0%);fill-opacity:0.2;" d="M 11.058594 6.578125 C 12.089844 6.582031 13.136719 6.910156 13.953125 7.558594 C 14.527344 8.230469 13.433594 8.953125 12.941406 8.296875 C 11.457031 7.382812 9.363281 7.703125 8.246094 9.074219 C 7.652344 9.753906 7.316406 10.65625 7.320312 11.566406 L 8.300781 11.566406 L 6.730469 13.964844 L 5.164062 11.566406 L 6.144531 11.566406 C 6.113281 9.394531 7.644531 7.332031 9.703125 6.765625 C 10.144531 6.644531 10.597656 6.574219 11.058594 6.582031 Z M 15.363281 9.175781 L 16.933594 11.574219 L 15.953125 11.574219 C 15.980469 13.773438 14.410156 15.859375 12.3125 16.394531 C 10.902344 16.792969 9.304688 16.5 8.140625 15.582031 C 7.550781 14.894531 8.660156 14.179688 9.15625 14.84375 C 10.59375 15.730469 12.609375 15.449219 13.746094 14.179688 C 14.402344 13.492188 14.78125 12.535156 14.773438 11.574219 L 13.792969 11.574219 Z M 15.363281 9.175781 "/>
<path style=" stroke:none;fill-rule:nonzero;fill:rgb(100%,100%,100%);fill-opacity:1;" d="M 11.058594 6.191406 C 12.089844 6.191406 13.136719 6.519531 13.953125 7.171875 C 14.527344 7.84375 13.433594 8.566406 12.941406 7.90625 C 11.457031 6.992188 9.363281 7.316406 8.246094 8.683594 C 7.652344 9.363281 7.316406 10.269531 7.320312 11.175781 L 8.300781 11.175781 L 6.730469 13.578125 L 5.164062 11.175781 L 6.144531 11.175781 C 6.113281 9.007812 7.644531 6.941406 9.703125 6.378906 C 10.144531 6.257812 10.597656 6.1875 11.058594 6.191406 Z M 15.363281 8.789062 L 16.933594 11.1875 L 15.953125 11.1875 C 15.980469 13.382812 14.410156 15.46875 12.3125 16.003906 C 10.902344 16.40625 9.304688 16.113281 8.140625 15.191406 C 7.550781 14.507812 8.660156 13.792969 9.15625 14.457031 C 10.59375 15.34375 12.609375 15.0625 13.746094 13.792969 C 14.402344 13.105469 14.78125 12.148438 14.773438 11.1875 L 13.792969 11.1875 Z M 15.363281 8.789062 "/>
</g>
</svg>
