<svg xmlns="http://www.w3.org/2000/svg" viewBox="0 0 24 24"><path d="m 4.203125 3.480469 c -18.921875 24.972656 33.148437 28.519531 16.4375 3.027343 c -3.808594 -5.8125 -11.425781 -9.640624 -16.4375 -3.027343" style="fill:#00ced0"/><g style="fill:#fff;fill-rule:evenodd"><path d="m 8.679688 5 c -1.664063 0 -3 1.382812 -3 3.09375 c 0 0.1875 0.015624 0.449219 0.03125 0.671875 c -0.285157 0.132813 -0.304688 0.742187 -0.0625 1.375 c 0.09375 0.246094 0.21875 0.4375 0.351562 0.59375 c 0.03125 0.179687 0.023438 0.257813 0.0625 0.460937 c 0.109375 0.367188 0.550781 1.09375 0.960938 1.6875 c 0.039062 0.460938 0.078124 0.921876 0 1.445313 c -1.171876 1.070313 -4.195313 1.53125 -4.1875 2.640625 l -0.066407 0.421875 h 11.824219 l -0.0625 -0.421875 c -0.007812 -0.949219 -3.03125 -1.53125 -4.1875 -2.640625 c -0.046875 -0.425781 -0.054688 -0.851563 -0.03125 -1.265625 c 0.371094 -0.632812 0.867188 -1.457031 0.992188 -1.867188 c 0.042968 -0.210937 0.058593 -0.351562 0.09375 -0.53125 c 0.109374 -0.148437 0.203124 -0.3125 0.289062 -0.523437 c 0.226562 -0.601563 0.210938 -1.171875 -0.03125 -1.339844 c 0.011719 -0.238281 0.023438 -0.496093 0.03125 -0.707031 c 0 -1.710938 -1.335938 -3.09375 -3.007812 -3.09375"/><path d="m 15.554688 7.085938 c -1.304688 0 -2.351563 1.0625 -2.351563 2.382812 c 0 0.140625 0.007813 0.34375 0.023437 0.515625 c -0.226562 0.101563 -0.242187 0.578125 -0.050781 1.0625 c 0.074219 0.1875 0.171875 0.335937 0.277344 0.460937 c 0.023437 0.132813 0.015625 0.195313 0.046875 0.351563 c 0.089844 0.28125 0.433594 0.839844 0.75 1.300781 c 0.03125 0.355469 0.066406 0.707032 0 1.113282 c -0.914062 0.824218 -3.28125 1.179687 -3.277344 2.03125 l -0.050781 0.328124 h 9.265625 l -0.050781 -0.328124 c -0.003907 -0.726563 -2.371094 -1.179688 -3.277344 -2.03125 c -0.039063 -0.328126 -0.046875 -0.65625 -0.027344 -0.976563 c 0.289063 -0.484375 0.675781 -1.125 0.777344 -1.4375 c 0.03125 -0.164063 0.046875 -0.269531 0.074219 -0.40625 c 0.085937 -0.117187 0.160156 -0.246094 0.222656 -0.40625 c 0.179688 -0.460937 0.171875 -0.902344 -0.023438 -1.03125 c 0.011719 -0.1875 0.023438 -0.382813 0.023438 -0.546875 c 0 -1.320312 -1.046875 -2.382812 -2.351562 -2.382812"/></g></svg>