
<svg xmlns="http://www.w3.org/2000/svg" xmlns:xlink="http://www.w3.org/1999/xlink" width="24px" height="24px" viewBox="0 0 24 24" version="1.1">
<g id="surface1">
<path style=" stroke:none;fill-rule:nonzero;fill:rgb(45.098039%,72.941176%,14.509804%);fill-opacity:1;" d="M 4.121094 19.902344 C -8.054688 10.148438 9.773438 -7.453125 20.546875 3.792969 C 31.347656 13.46875 14.492188 32.253906 4.121094 19.902344 Z M 4.121094 19.902344 "/>
<path style=" stroke:none;fill-rule:nonzero;fill:rgb(100%,100%,100%);fill-opacity:1;" d="M 4.976562 9.679688 C 5.386719 9.738281 5.757812 9.371094 5.804688 8.863281 C 5.828125 8.617188 5.769531 8.375 5.644531 8.179688 C 5.523438 7.988281 5.34375 7.867188 5.144531 7.839844 C 4.734375 7.78125 4.363281 8.148438 4.316406 8.65625 C 4.292969 8.902344 4.347656 9.144531 4.472656 9.339844 C 4.597656 9.53125 4.777344 9.652344 4.976562 9.679688 M 4.902344 8.820312 C 4.722656 8.785156 4.589844 8.636719 4.605469 8.488281 C 4.625 8.339844 4.785156 8.242188 4.96875 8.277344 C 5.148438 8.308594 5.28125 8.457031 5.265625 8.609375 C 5.246094 8.757812 5.085938 8.851562 4.902344 8.820312 "/>
<path style=" stroke:none;fill-rule:evenodd;fill:rgb(100%,100%,100%);fill-opacity:1;" d="M 12.75 16.476562 L 12.722656 16.46875 L 12.726562 16.429688 C 12.734375 16.402344 12.753906 16.378906 12.824219 16.007812 C 12.882812 15.679688 13.035156 14.777344 12.71875 14.261719 C 12.59375 14.058594 12.394531 13.863281 12.226562 13.78125 C 11.542969 13.4375 10.605469 13.417969 9.6875 14.398438 C 9.210938 14.902344 8.980469 15.132812 8.867188 15.230469 L 8.828125 15.265625 L 8.78125 15.292969 C 8.746094 15.3125 7.339844 15.820312 7.339844 15.820312 L 7.3125 15.808594 L 7.316406 15.773438 C 7.328125 15.761719 8.3125 14.59375 8.292969 13.476562 C 8.28125 12.589844 7.714844 12.566406 6.929688 12.535156 C 6.671875 12.523438 6.382812 12.511719 6.082031 12.464844 C 5.253906 12.320312 4.382812 11.96875 3.867188 11.574219 C 3.535156 11.316406 3.324219 11.148438 3.199219 10.960938 C 3.15625 10.898438 3.140625 10.808594 3.121094 10.714844 L 3.109375 10.648438 C 3.097656 10.570312 3.082031 10.410156 3.078125 10.320312 C 3.074219 10.28125 3.078125 10.238281 3.101562 10.222656 L 3.175781 10.253906 C 3.394531 10.476562 3.957031 10.929688 4.523438 11.046875 C 5.21875 11.191406 6.738281 10.5625 6.898438 10.492188 L 6.914062 10.476562 C 6.960938 10.378906 7.246094 9.796875 7.308594 9.675781 C 6.191406 10.316406 5.292969 10.621094 4.640625 10.574219 C 3.914062 10.519531 3.410156 9.933594 3.195312 9.683594 C 3.152344 9.636719 3.121094 9.597656 3.109375 9.589844 L 3.097656 9.554688 C 3.171875 9.25 3.730469 7.808594 4.054688 7.5 C 4.148438 7.414062 4.222656 7.328125 4.359375 7.257812 C 5.476562 6.707031 7.964844 6.707031 8.082031 6.707031 L 8.101562 6.714844 L 8.105469 6.738281 C 8.105469 6.738281 8.039062 7.363281 8.035156 7.433594 C 8.296875 7.378906 10.191406 6.984375 11.894531 7.222656 C 13.34375 7.421875 15.316406 7.695312 17.84375 10.3125 L 17.917969 10.390625 C 19.101562 11.632812 19.855469 13.039062 20.152344 14.570312 C 20.246094 15.050781 20.324219 16.109375 20.011719 17.039062 C 19.875 17.445312 19.667969 17.835938 19.410156 18.175781 C 18.824219 18.945312 17.949219 19.367188 17.0625 19.300781 C 15.816406 19.214844 14.96875 18.359375 14.789062 17.023438 C 14.667969 16.097656 15.046875 14.84375 16 14.34375 C 16.777344 13.9375 17.527344 14.199219 17.925781 14.640625 C 18.273438 15.027344 18.433594 15.554688 18.363281 16.09375 C 18.242188 17.042969 17.515625 17.429688 17.039062 17.34375 C 16.898438 17.316406 16.761719 17.261719 16.613281 17.171875 C 16.558594 17.140625 16.507812 17.105469 16.457031 17.050781 L 16.441406 17.03125 L 16.429688 17.023438 L 16.433594 17.023438 C 16.335938 16.914062 16.285156 16.753906 16.304688 16.59375 C 16.3125 16.546875 16.324219 16.503906 16.335938 16.460938 C 16.421875 16.230469 16.632812 16.121094 16.828125 16.203125 L 16.855469 16.214844 L 16.890625 16.234375 L 16.9375 16.269531 C 17.046875 16.320312 17.128906 16.339844 17.144531 16.34375 C 17.203125 16.347656 17.488281 16.296875 17.535156 15.925781 L 17.535156 15.917969 C 17.550781 15.78125 17.515625 15.679688 17.5 15.621094 C 17.433594 15.441406 17.21875 15.234375 16.898438 15.210938 C 16.476562 15.179688 16.144531 15.390625 15.886719 15.847656 C 15.648438 16.277344 15.628906 16.855469 15.839844 17.316406 C 16.046875 17.777344 16.488281 18.035156 17.109375 18.066406 C 17.738281 18.09375 18.308594 17.75 18.683594 17.121094 C 19.050781 16.507812 19.160156 15.71875 18.972656 15.0625 C 18.519531 13.492188 17.339844 13.292969 16.675781 13.3125 C 15.695312 13.339844 14.710938 14.128906 14.175781 15.320312 C 14.089844 15.507812 14.039062 15.664062 13.992188 15.800781 L 13.925781 16.011719 L 12.765625 16.46875 L 12.75 16.476562 M 5.910156 7.964844 C 6.085938 8.238281 6.164062 8.578125 6.132812 8.925781 C 6.066406 9.636719 5.546875 10.152344 4.96875 10.074219 C 4.6875 10.035156 4.4375 9.863281 4.261719 9.59375 C 4.085938 9.320312 4.007812 8.980469 4.039062 8.636719 C 4.105469 7.921875 4.625 7.40625 5.203125 7.484375 C 5.484375 7.523438 5.734375 7.695312 5.910156 7.964844 "/>
<path style=" stroke:none;fill-rule:nonzero;fill:rgb(100%,100%,100%);fill-opacity:1;" d="M 6.71875 15.484375 L 6.730469 15.484375 C 6.746094 15.488281 6.757812 15.476562 6.761719 15.457031 L 6.789062 15.226562 L 6.820312 15.3125 C 6.824219 15.320312 6.832031 15.324219 6.839844 15.328125 L 6.84375 15.328125 C 6.851562 15.328125 6.859375 15.328125 6.867188 15.320312 L 6.917969 15.25 L 6.890625 15.480469 C 6.886719 15.5 6.898438 15.515625 6.914062 15.519531 L 6.925781 15.519531 C 6.9375 15.523438 6.953125 15.511719 6.953125 15.492188 L 6.988281 15.21875 L 7.113281 15.242188 L 7.082031 15.515625 C 7.078125 15.535156 7.089844 15.550781 7.105469 15.554688 L 7.117188 15.554688 C 7.128906 15.558594 7.144531 15.546875 7.144531 15.527344 L 7.179688 15.253906 L 7.273438 15.269531 C 7.285156 15.273438 7.300781 15.261719 7.300781 15.246094 L 7.304688 15.226562 C 7.304688 15.210938 7.296875 15.195312 7.28125 15.195312 L 6.953125 15.132812 C 6.9375 15.132812 6.929688 15.136719 6.925781 15.144531 L 6.847656 15.25 L 6.800781 15.121094 C 6.796875 15.113281 6.789062 15.105469 6.773438 15.101562 L 6.734375 15.09375 L 6.691406 15.449219 C 6.6875 15.464844 6.699219 15.484375 6.714844 15.484375 "/>
</g>
</svg>
