<svg xmlns="http://www.w3.org/2000/svg" viewBox="0 0 24 24"><path d="m 19.8125 20.351562 c 18.917969 -24.519531 -33.148438 -28.003906 -16.441406 -2.976562 c 3.808594 5.707031 11.425781 9.46875 16.441406 2.976562" style="fill:#86cefa"/><path d="m 12.53125 4.679688 c 3.890625 0 7.046875 3.050781 7.046875 6.8125 c 0 3.761718 -3.15625 6.8125 -7.046875 6.8125 c -3.894531 0 -7.046875 -3.050782 -7.046875 -6.8125 c 0 -3.761719 3.15625 -6.8125 7.046875 -6.8125 m 0 1.703124 c -2.921875 0 -5.289062 2.289063 -5.289062 5.109376 c 0 2.820312 2.367187 5.109374 5.289062 5.109374 c 2.917969 0 5.285156 -2.289062 5.285156 -5.109374 c 0 -2.820313 -2.367187 -5.109376 -5.285156 -5.109376 m 0.054688 0.851563 c 0.453124 0 0.828124 0.359375 0.828124 0.796875 v 3.515625 c 0 0.4375 -0.375 0.796875 -0.828124 0.796875 c -0.019532 0 -0.039063 0 -0.054688 0 h -3.085938 c -0.484374 0 -0.882812 -0.382812 -0.882812 -0.851562 c 0 -0.472657 0.394531 -0.851563 0.882812 -0.851563 h 2.203126 v -2.609375 c 0 -0.4375 0.371093 -0.796875 0.828124 -0.796875" style="fill:#fff"/></svg>