<svg xmlns="http://www.w3.org/2000/svg" viewBox="0 0 24 24"><g style="fill:#acd7e5"><path d="m 14.851562 23.515625 c 22.296876 -4.625 -1.640624 -36.4375 -12.976562 -17.328125 c -4.859375 7.425781 1.503906 19.710938 12.976562 17.328125"/><path d="m 27.500363 49.996264 c -12.435103 0 -22.495261 -10.068912 -22.495261 -22.497533 c 0 -12.428621 10.060158 -22.497533 22.495261 -22.497533 c 12.42176 0 22.508603 10.081267 22.508603 22.497533 c 0 12.428621 -10.086843 22.497533 -22.508603 22.497533" transform="matrix(0.29277 0 0 0.31618 3.897937 3.610125)" style="stroke:#666;stroke-width:3.5"/></g><g transform="matrix(0.29277 0 0 0.31618 3.897937 3.610125)" style="fill:none;stroke:#666;stroke-linecap:round;stroke-linejoin:round;stroke-width:3.5"><path d="m 29.60846 16.947993 c 4.86997 0.976005 8.539126 5.275369 8.539126 10.451902 c 0 5.880739 -4.763231 10.649574 -10.647223 10.649574 c -5.897334 0 -10.660566 -4.768835 -10.660566 -10.649574 c 0 -4.422909 2.695162 -8.228093 6.551111 -9.834177"/><path d="m 32.156855 23.37233 l -2.548395 -6.424337 l 6.737904 -1.445475"/></g></svg>