
<svg xmlns="http://www.w3.org/2000/svg" xmlns:xlink="http://www.w3.org/1999/xlink" width="24px" height="24px" viewBox="0 0 24 24" version="1.1">
<g id="surface1">
<path style=" stroke:none;fill-rule:nonzero;fill:rgb(43.921569%,50.196078%,56.470588%);fill-opacity:1;" d="M 4.121094 19.902344 C -8.054688 10.148438 9.773438 -7.453125 20.546875 3.792969 C 31.347656 13.46875 14.492188 32.253906 4.121094 19.902344 Z M 4.121094 19.902344 "/>
<path style=" stroke:none;fill-rule:nonzero;fill:rgb(12.941176%,12.941176%,12.941176%);fill-opacity:1;" d="M 17.066406 10.097656 C 16.605469 7.898438 14.546875 6.242188 12.074219 6.242188 C 10.113281 6.242188 8.414062 7.289062 7.5625 8.820312 C 5.523438 9.027344 3.929688 10.65625 3.929688 12.632812 C 3.929688 14.75 5.753906 16.46875 8.003906 16.46875 L 16.824219 16.46875 C 18.699219 16.46875 20.21875 15.035156 20.21875 13.273438 C 20.21875 11.585938 18.824219 10.21875 17.066406 10.097656 Z M 16.824219 15.1875 L 8.003906 15.1875 C 6.503906 15.1875 5.289062 14.046875 5.289062 12.632812 C 5.289062 11.21875 6.503906 10.078125 8.003906 10.078125 L 8.484375 10.078125 C 8.929688 8.601562 10.363281 7.519531 12.074219 7.519531 C 14.136719 7.519531 15.808594 9.09375 15.808594 11.035156 L 15.808594 11.355469 L 16.824219 11.355469 C 17.949219 11.355469 18.863281 12.214844 18.863281 13.273438 C 18.863281 14.328125 17.949219 15.1875 16.824219 15.1875 Z M 16.824219 15.1875 "/>
</g>
</svg>
