<svg xmlns="http://www.w3.org/2000/svg" viewBox="0 0 22 22"><path d="m 19.851562 17.464844 c 10.996094 -16.539063 -24.070312 -26.726563 -19.425781 -5.34375 c 1.976563 8.835937 14.382813 14.195312 19.425781 5.34375" style="fill:#c0c0c0"/><path d="m 16.082031 11.066406 c 0 -2.585937 -2.210937 -4.683594 -4.9375 -4.683594 c -2.730469 0 -4.941406 2.097657 -4.941406 4.683594 c 0 2.589844 2.210937 4.6875 4.941406 4.6875 c 2.726563 0 4.9375 -2.097656 4.9375 -4.6875" style="fill:#fff"/><path d="m 10.082031 18.417969 c -0.132812 -0.058594 -0.273437 -0.203125 -0.335937 -0.351563 c -0.03125 -0.074218 -0.0625 -0.367187 -0.09375 -0.832031 c -0.023438 -0.390625 -0.054688 -0.746094 -0.066406 -0.78125 c -0.019532 -0.050781 -0.113282 -0.101563 -0.34375 -0.179687 c -0.175782 -0.058594 -0.4375 -0.164063 -0.582032 -0.238282 c -0.148437 -0.070312 -0.300781 -0.128906 -0.339844 -0.128906 c -0.042968 0 -0.28125 0.191406 -0.625 0.496094 c -0.304687 0.269531 -0.601562 0.515625 -0.664062 0.546875 c -0.121094 0.0625 -0.402344 0.070312 -0.546875 0.019531 c -0.113281 -0.042969 -1.324219 -1.203125 -1.402344 -1.34375 c -0.074219 -0.140625 -0.066406 -0.40625 0.019531 -0.566406 c 0.039063 -0.074219 0.292969 -0.367188 0.566407 -0.65625 c 0.296875 -0.3125 0.5 -0.550782 0.5 -0.589844 c 0 -0.039062 -0.0625 -0.183594 -0.132813 -0.328125 c -0.074218 -0.140625 -0.183594 -0.394531 -0.246094 -0.566406 c -0.058593 -0.167969 -0.132812 -0.316407 -0.164062 -0.332031 c -0.03125 -0.015626 -0.386719 -0.046876 -0.792969 -0.066407 c -0.46875 -0.027343 -0.785156 -0.058593 -0.878906 -0.089843 c -0.171875 -0.0625 -0.375 -0.269532 -0.402344 -0.417969 c -0.011719 -0.0625 -0.015625 -0.507813 -0.011719 -0.996094 l 0.011719 -0.886719 l 0.105469 -0.128906 c 0.183594 -0.222656 0.273438 -0.246094 1.15625 -0.300781 c 0.5 -0.03125 0.804688 -0.0625 0.832031 -0.085938 c 0.019531 -0.023437 0.09375 -0.1875 0.164063 -0.371093 c 0.070312 -0.183594 0.179687 -0.433594 0.242187 -0.554688 c 0.066407 -0.125 0.117188 -0.253906 0.117188 -0.285156 c 0 -0.03125 -0.210938 -0.285156 -0.464844 -0.554688 c -0.257813 -0.273437 -0.5 -0.542968 -0.546875 -0.597656 c -0.121094 -0.15625 -0.160156 -0.351562 -0.113281 -0.542969 c 0.035156 -0.140625 0.101562 -0.21875 0.660156 -0.765625 c 0.339844 -0.335937 0.675781 -0.640625 0.746094 -0.675781 c 0.160156 -0.082031 0.417969 -0.082031 0.578125 0 c 0.070312 0.03125 0.367187 0.273437 0.660156 0.539063 c 0.296875 0.261718 0.558594 0.488281 0.582031 0.503906 c 0.027344 0.011718 0.183594 -0.039063 0.378907 -0.128906 c 0.183593 -0.085938 0.457031 -0.195313 0.609374 -0.246094 c 0.207032 -0.066406 0.289063 -0.109375 0.316407 -0.167969 c 0.019531 -0.046875 0.058593 -0.402344 0.082031 -0.796875 c 0.042969 -0.753906 0.070312 -0.875 0.230469 -1.035156 c 0.175781 -0.183594 0.28125 -0.199219 1.277343 -0.1875 l 0.910157 0.011718 l 0.140625 0.089844 c 0.246094 0.15625 0.273437 0.257813 0.332031 1.097656 c 0.027344 0.40625 0.058594 0.769532 0.066406 0.808594 c 0.011719 0.054688 0.089844 0.097656 0.332031 0.179688 c 0.171876 0.058594 0.449219 0.171875 0.613282 0.253906 c 0.167968 0.078125 0.316406 0.144531 0.332031 0.144531 c 0.015625 0 0.28125 -0.222656 0.589844 -0.5 c 0.308593 -0.273437 0.621093 -0.527343 0.6875 -0.566406 c 0.167969 -0.082031 0.414062 -0.082031 0.59375 0.003906 c 0.085937 0.039063 0.375 0.296875 0.742187 0.65625 c 0.625 0.617188 0.675782 0.6875 0.675782 0.964844 c 0 0.199219 -0.089844 0.328125 -0.628907 0.902344 c -0.292969 0.3125 -0.53125 0.582031 -0.53125 0.597656 c 0 0.015625 0.074219 0.183594 0.167969 0.375 c 0.09375 0.1875 0.207031 0.453125 0.25 0.589844 c 0.050781 0.167969 0.097656 0.253906 0.144531 0.273437 c 0.039063 0.015625 0.414063 0.046875 0.839844 0.074219 c 0.84375 0.050781 0.980469 0.085937 1.121094 0.277344 c 0.132812 0.183593 0.148437 0.320312 0.136719 1.210937 l -0.011719 0.855469 l -0.101563 0.140625 c -0.183594 0.253906 -0.230468 0.265625 -1.167968 0.328125 c -0.457032 0.027344 -0.835938 0.058594 -0.847657 0.070313 c -0.007812 0.007812 -0.066406 0.148437 -0.125 0.3125 c -0.058593 0.164062 -0.175781 0.429687 -0.261719 0.59375 c -0.082031 0.160156 -0.144531 0.3125 -0.140624 0.335937 c 0.007812 0.027344 0.234374 0.28125 0.507812 0.570313 c 0.273438 0.289062 0.53125 0.59375 0.574219 0.671874 c 0.089843 0.175782 0.097656 0.355469 0.023437 0.527344 c -0.066406 0.152344 -1.175781 1.25 -1.359375 1.34375 c -0.148437 0.074219 -0.425781 0.082032 -0.582031 0.015625 c -0.0625 -0.027343 -0.363281 -0.273437 -0.675781 -0.546875 c -0.308594 -0.277344 -0.589844 -0.503906 -0.617188 -0.503906 c -0.03125 0 -0.207031 0.070312 -0.390625 0.152344 c -0.183594 0.082031 -0.453125 0.191406 -0.601562 0.238281 c -0.207032 0.066406 -0.277344 0.101563 -0.289063 0.15625 c -0.007812 0.039063 -0.039062 0.402344 -0.066406 0.808594 c -0.0625 0.894531 -0.097656 0.992187 -0.417969 1.152343 c -0.09375 0.042969 -0.246094 0.050782 -1.027344 0.050782 c -0.6875 0 -0.941406 -0.011719 -1.019531 -0.046875 m 1.351563 -3.976563 c 0.828125 -0.082031 1.519531 -0.402344 2.105468 -0.976562 c 0.449219 -0.433594 0.738282 -0.925782 0.914063 -1.539063 c 0.109375 -0.386719 0.109375 -1.242187 -0.003906 -1.632812 c -0.332031 -1.191407 -1.207031 -2.0625 -2.414063 -2.417969 c -0.285156 -0.082031 -0.359375 -0.089844 -0.910156 -0.09375 c -0.523438 0 -0.632812 0.007812 -0.886719 0.074219 c -1.273437 0.339843 -2.246093 1.332031 -2.511719 2.566406 c -0.242187 1.109375 0.109376 2.238281 0.941407 3.054687 c 0.4375 0.425782 1 0.738282 1.613281 0.890626 c 0.175781 0.042968 0.425781 0.078124 0.777344 0.105468 c 0.027344 0 0.199218 -0.011718 0.375 -0.03125 m -0.847656 -1.390625 c -0.871094 -0.230469 -1.480469 -0.953125 -1.535157 -1.816406 c -0.039062 -0.605469 0.160157 -1.117187 0.601563 -1.542969 c 0.804687 -0.78125 2.089844 -0.789062 2.886718 -0.019531 c 0.652344 0.636719 0.808594 1.539063 0.402344 2.328125 c -0.34375 0.675781 -0.980468 1.074219 -1.761718 1.101562 c -0.265626 0.011719 -0.398438 0 -0.59375 -0.050781 m 0.976562 -0.839843 c 0.242188 -0.085938 0.527344 -0.347657 0.648438 -0.585938 c 0.085937 -0.167969 0.097656 -0.226562 0.097656 -0.519531 c 0 -0.316407 -0.007813 -0.34375 -0.117188 -0.542969 c -0.226562 -0.402344 -0.558594 -0.609375 -1.03125 -0.632812 c -0.378906 -0.015626 -0.601562 0.0625 -0.875 0.304687 c -0.347656 0.304687 -0.484375 0.734375 -0.375 1.15625 c 0.097656 0.363281 0.300782 0.613281 0.644532 0.78125 c 0.320312 0.15625 0.648437 0.171875 1.007812 0.039063" style="fill:#868f94"/></svg>