
<svg xmlns="http://www.w3.org/2000/svg" xmlns:xlink="http://www.w3.org/1999/xlink" width="32px" height="32px" viewBox="0 0 32 32" version="1.1">
<g id="surface1">
<path style=" stroke:none;fill-rule:nonzero;fill:rgb(99.215686%,96.078431%,90.196078%);fill-opacity:1;" d="M 28.105469 27.3125 C 46.410156 -0.859375 -3.582031 -11.761719 0.402344 17.21875 C 2.027344 29.039062 21.105469 38.089844 28.105469 27.3125 Z M 28.105469 27.3125 "/>
<path style=" stroke:none;fill-rule:evenodd;fill:rgb(25.490196%,41.176471%,88.235294%);fill-opacity:1;" d="M 12.585938 25.5625 L 16.957031 27.925781 L 21.621094 24.535156 L 16.925781 23.210938 Z M 12.585938 25.5625 "/>
<path style=" stroke:none;fill-rule:evenodd;fill:rgb(25.490196%,41.176471%,88.235294%);fill-opacity:1;" d="M 12.585938 18.691406 L 12.585938 25.5625 L 16.925781 23.210938 L 16.925781 17.339844 Z M 12.585938 18.691406 "/>
<path style=" stroke:none;fill-rule:evenodd;fill:rgb(25.490196%,41.176471%,88.235294%);fill-opacity:1;" d="M 16.925781 17.339844 L 21.621094 17.144531 L 21.621094 24.535156 L 16.925781 23.210938 Z M 16.925781 17.339844 "/>
<path style=" stroke:none;fill-rule:evenodd;fill:rgb(0%,0%,100%);fill-opacity:1;" d="M 12.597656 18.484375 L 17.007812 18.652344 L 21.710938 17.082031 L 16.976562 17.261719 Z M 12.597656 18.484375 "/>
<path style=" stroke:none;fill-rule:evenodd;fill:rgb(25.490196%,41.176471%,88.235294%);fill-opacity:1;" d="M 16.957031 18.878906 L 16.957031 27.925781 L 21.621094 24.535156 L 21.621094 17.144531 Z M 16.957031 18.878906 "/>
<path style=" stroke:none;fill-rule:evenodd;fill:rgb(25.490196%,41.176471%,88.235294%);fill-opacity:1;" d="M 12.585938 18.691406 L 16.957031 18.878906 L 16.957031 27.925781 L 12.585938 25.5625 Z M 12.585938 18.691406 "/>
<path style=" stroke:none;fill-rule:nonzero;fill:rgb(0%,74.901961%,100%);fill-opacity:1;" d="M 16.941406 23.769531 C 16.871094 21.355469 16.816406 19.117188 16.867188 19.003906 C 16.941406 18.847656 17.53125 18.945312 19.152344 18.875 C 20.332031 18.824219 21.910156 18.746094 22.652344 18.699219 L 24.003906 18.617188 L 23.957031 22.613281 L 23.914062 26.613281 L 20.949219 27.304688 C 19.320312 27.683594 17.78125 28.035156 17.527344 28.082031 L 17.070312 28.167969 Z M 16.941406 23.769531 "/>
<path style=" stroke:none;fill-rule:nonzero;fill:rgb(86.27451%,7.843137%,23.529412%);fill-opacity:1;" d="M 10.800781 23.730469 L 9.097656 22.875 L 9.171875 9.308594 L 11.738281 7.863281 C 13.152344 7.066406 14.355469 6.417969 14.414062 6.414062 C 14.472656 6.410156 14.519531 9.160156 14.519531 12.523438 L 14.519531 18.632812 L 13.582031 18.652344 C 11.683594 18.730469 14.734375 18.597656 12.714844 18.667969 L 12.714844 21.757812 C 12.714844 23.324219 12.667969 24.601562 12.609375 24.597656 C 12.550781 24.59375 11.738281 24.203125 10.800781 23.730469 Z M 10.800781 23.730469 "/>
<path style=" stroke:none;fill-rule:nonzero;fill:rgb(98.039216%,25.882353%,3.529412%);fill-opacity:1;" d="M 14.277344 12.515625 C 14.277344 9.136719 14.296875 6.371094 14.324219 6.371094 C 14.402344 6.371094 21.554688 7.769531 21.878906 7.851562 L 22.191406 7.925781 L 22.191406 18.707031 L 14.277344 18.660156 Z M 14.277344 12.515625 "/>
</g>
</svg>
