
<svg xmlns="http://www.w3.org/2000/svg" xmlns:xlink="http://www.w3.org/1999/xlink" width="32px" height="32px" viewBox="0 0 32 32" version="1.1">
<g id="surface1">
<path style=" stroke:none;fill-rule:nonzero;fill:rgb(20%,0%,20%);fill-opacity:1;" d="M 30.964844 11.601562 C 36.941406 28.277344 15.46875 36.386719 7.402344 29.597656 C -0.664062 22.808594 -3.421875 11.175781 5.714844 5.320312 C 14.851562 -0.535156 24.988281 -5.074219 30.964844 11.605469 Z M 30.964844 11.601562 "/>
<path style="fill-rule:evenodd;fill:rgb(60%,40%,100%);fill-opacity:1;stroke-width:0.910425;stroke-linecap:butt;stroke-linejoin:miter;stroke:rgb(54.117647%,16.862745%,88.627451%);stroke-opacity:1;stroke-miterlimit:4;" d="M 65.84375 176.78125 C 65.84375 176.09375 65.53125 175.53125 65.15625 175.53125 C 64.78125 175.53125 63.375 173.53125 62.03125 171.03125 C 60.71875 168.5625 59.25 166.53125 58.8125 166.53125 C 58.375 166.53125 57.28125 164.71875 56.375 162.46875 C 55.5 160.21875 54.46875 158.375 54.09375 158.375 C 53.71875 158.375 53.4375 158.03125 53.4375 157.625 C 53.4375 156.09375 48.34375 147.78125 47.40625 147.75 C 46.875 147.75 46.4375 147.375 46.4375 146.90625 C 46.4375 146.46875 45.53125 146.09375 44.46875 146.09375 C 41.46875 146.09375 30 141.875 28.40625 140.21875 C 26.625 138.3125 25.8125 138.34375 23.875 140.375 C 23.03125 141.28125 21.53125 142.125 20.59375 142.21875 C 18.875 142.40625 18.84375 142.21875 19.03125 135.53125 C 19.125 131.71875 19.46875 128.40625 19.8125 128.15625 C 20.125 127.90625 21.375 125.59375 22.59375 123 C 23.8125 120.40625 25.09375 118.28125 25.4375 118.28125 C 25.8125 118.28125 26.34375 117.1875 26.59375 115.875 C 26.875 114.53125 28.125 112.3125 29.34375 110.90625 C 30.59375 109.53125 31.8125 107.6875 32.0625 106.8125 C 32.34375 105.9375 32.875 105.21875 33.28125 105.21875 C 33.65625 105.21875 34 104.65625 34 103.96875 C 34 103.3125 34.3125 102.75 34.6875 102.75 C 35.0625 102.75 35.59375 101.875 35.84375 100.8125 C 36.09375 99.75 37.0625 98.65625 37.96875 98.40625 C 39.15625 98.09375 39.53125 97.46875 39.25 96.40625 C 38.96875 95.21875 39.84375 94.15625 42.78125 92.0625 C 44.9375 90.5 47.03125 89.375 47.46875 89.5 C 47.875 89.65625 48.46875 89.375 48.75 88.875 C 49.03125 88.40625 51.40625 87.78125 54.0625 87.5 C 59.25 86.96875 61.1875 87.8125 61.1875 90.59375 C 61.1875 91.4375 61.53125 92.125 61.96875 92.125 C 63 92.125 62.96875 95.1875 61.9375 95.53125 C 60.84375 95.9375 59.6875 101.375 59.65625 106.1875 C 59.65625 109.90625 59.71875 110.03125 62.15625 110.28125 C 64.5 110.5 64.75 110.8125 65.28125 114.21875 C 65.625 116.21875 65.875 118.625 65.875 119.53125 C 65.84375 123.6875 66.5625 124.84375 69.34375 124.84375 C 71.75 124.84375 78.875 123.3125 79.8125 122.59375 C 80 122.4375 80.1875 121.3125 80.1875 120.09375 L 80.25 117.875 L 88.28125 118.1875 C 100.0625 118.625 100.0625 118.625 100.0625 107.28125 C 100.0625 101.28125 99.71875 97.84375 99.125 97.1875 C 98.59375 96.65625 97.78125 94.5625 97.28125 92.53125 C 96.53125 89.3125 96.5625 88.8125 97.71875 88.4375 C 99.53125 87.84375 101.59375 88.78125 101.59375 90.15625 C 101.59375 90.78125 101.9375 91.3125 102.34375 91.3125 C 104.03125 91.3125 105.71875 100 105.90625 109.71875 C 106 115.09375 106.125 119.9375 106.1875 120.4375 C 106.3125 121.84375 114.59375 122.5625 117.625 121.40625 C 119.0625 120.875 120.25 120.125 120.25 119.75 C 120.25 118.6875 123.1875 119.03125 123.625 120.125 C 123.90625 120.875 124.1875 120.90625 124.65625 120.25 C 125.03125 119.75 126.09375 119.0625 127.0625 118.75 C 128 118.4375 128.9375 117.375 129.125 116.40625 C 129.3125 115.40625 130 111.71875 130.6875 108.1875 C 131.4375 104.34375 131.65625 101.375 131.25 100.8125 C 129.96875 99.09375 129.53125 95.5625 130.5625 95.125 C 131.34375 94.78125 131.34375 94.6875 130.5625 94.625 C 128.53125 94.5 129.6875 92.9375 131.8125 92.9375 C 133.96875 92.9375 134.0625 93.125 135.03125 99.15625 C 135.8125 103.875 135.84375 106.53125 135.1875 110.125 C 133.90625 117.5625 134.1875 118 140.71875 118.53125 C 144.59375 118.84375 146.78125 118.65625 147.875 117.90625 C 149.03125 117.125 151.65625 116.9375 157.4375 117.21875 C 166.84375 117.71875 169.21875 117.25 169.21875 115 C 169.21875 114.125 168.875 113.375 168.4375 113.375 C 168 113.375 167.65625 112.84375 167.65625 112.15625 C 167.65625 111.25 168.5625 110.9375 171.15625 110.9375 C 173.5625 110.9375 174.65625 111.28125 174.65625 112.03125 C 174.65625 112.625 175.34375 113.96875 176.21875 115.03125 C 177.0625 116.0625 177.75 117.9375 177.75 119.1875 C 177.75 123.125 179.6875 124.28125 185.28125 123.6875 C 188.25 123.375 190.1875 123.46875 190.1875 123.9375 C 190.1875 124.375 192.15625 124.96875 194.5625 125.28125 C 197.875 125.71875 199.09375 125.59375 199.59375 124.75 C 200.78125 122.75 200.4375 104.9375 199.125 101.65625 C 198.5 100.03125 197.96875 97.59375 197.96875 96.25 C 197.96875 94.15625 198.28125 93.75 199.875 93.75 C 200.90625 93.75 201.96875 94.125 202.25 94.5625 C 202.5 95.03125 203.9375 95.40625 205.40625 95.40625 C 207.03125 95.40625 208.0625 95.78125 208.0625 96.40625 C 208.0625 97 210.46875 98.0625 213.71875 98.90625 C 218.84375 100.21875 221.28125 101.8125 221.28125 103.8125 C 221.28125 104.5 219.90625 104.40625 210.59375 103.0625 C 208.15625 102.71875 207.28125 102.875 207.1875 103.6875 C 206.8125 107.8125 207.59375 123.6875 208.21875 124.125 C 208.65625 124.375 211.28125 124.84375 214.09375 125.125 C 216.9375 125.40625 219.4375 125.9375 219.65625 126.34375 C 219.90625 126.71875 221.34375 127.65625 222.84375 128.40625 C 224.34375 129.1875 226.1875 130.3125 226.96875 130.9375 C 228.34375 132.03125 228.34375 132.125 226.6875 133.875 C 225.3125 135.3125 224.84375 135.4375 224.3125 134.53125 C 223.8125 133.75 223.625 133.71875 223.625 134.4375 C 223.625 135.125 223.09375 135 222.0625 134.0625 C 220.125 132.3125 213.15625 129.875 209.90625 129.78125 C 208.03125 129.75 207.375 130.15625 207 131.59375 C 206.1875 134.84375 206.5 139.90625 207.6875 142.3125 C 208.3125 143.59375 208.84375 145.34375 208.84375 146.21875 C 208.84375 147.09375 209.375 148 210 148.25 C 210.65625 148.53125 211.1875 149.15625 211.1875 149.65625 C 211.21875 150.1875 211.90625 151.53125 212.71875 152.65625 C 213.5625 153.78125 214.25 155.28125 214.28125 156.03125 C 214.28125 156.75 215.34375 158.21875 216.625 159.28125 C 217.875 160.375 218.9375 161.59375 218.9375 162.0625 C 218.9375 163.09375 221.78125 165.71875 222.84375 165.71875 C 223.28125 165.71875 224.25 166.375 225 167.1875 C 225.75 168 227.59375 169.3125 229.09375 170.09375 C 234.53125 173.0625 235.40625 173.71875 234.59375 174.25 C 233.5 174.9375 228.28125 174.5625 227.78125 173.75 C 227.5625 173.375 226.71875 173.09375 225.875 173.09375 C 224.53125 173.09375 221.53125 171.71875 220.5 170.625 C 220.28125 170.40625 218.46875 169.375 216.4375 168.34375 C 213.90625 167.03125 212.375 165.5625 211.46875 163.59375 C 210.78125 162.03125 209.1875 159.75 207.9375 158.53125 C 206.5625 157.1875 205.21875 154.5625 204.46875 151.8125 C 203.78125 149.34375 202.6875 146.6875 202.03125 145.875 C 201.34375 145.09375 200.4375 141.96875 199.96875 138.9375 C 199.1875 133.90625 198.90625 133.375 196.78125 132.625 C 195.5 132.1875 194.1875 131.34375 193.84375 130.78125 C 193.5 130.21875 192.53125 129.75 191.71875 129.75 C 190.875 129.75 190.1875 129.1875 190.1875 128.5 C 190.1875 127.59375 189.21875 127.28125 186.09375 127.28125 C 182.375 127.28125 181.90625 127.5 181.03125 129.53125 C 178.875 134.625 177.8125 135.875 175.3125 136.28125 C 173.28125 136.625 172.6875 137.1875 172.15625 139.3125 C 171.4375 142.25 169.5625 143.21875 166.0625 142.40625 C 163.96875 141.90625 163.75 141.625 164.09375 139.28125 C 165 133.28125 165.40625 125.59375 164.9375 124.03125 C 164.6875 123.125 163.78125 122.375 163 122.375 C 161.53125 122.375 161.21875 123.03125 160.25 128.0625 C 159.65625 131.15625 156.0625 135.46875 154.125 135.46875 C 153.40625 135.46875 152.90625 136.15625 152.90625 137.15625 C 152.90625 138.59375 152.46875 138.8125 150.375 138.625 C 148.96875 138.5 147.5 138.1875 147.0625 137.875 C 144.53125 136.125 135.5 137.0625 134.75 139.125 C 134.59375 139.59375 134.84375 142.28125 135.28125 145.09375 C 136.21875 150.9375 135.625 152.21875 132.40625 151.375 C 130.75 150.9375 130.15625 150.09375 129.46875 147.21875 C 129 145.25 128.3125 143.65625 127.9375 143.65625 C 127.5625 143.65625 127.25 141.25 127.25 138.34375 L 127.25 133 L 123.75 133 C 121.15625 133 120.25 133.34375 120.25 134.25 C 120.25 134.90625 119.90625 135.46875 119.46875 135.46875 C 118.46875 135.46875 118.46875 137.6875 119.46875 138.0625 C 119.875 138.21875 120.4375 139.46875 120.6875 140.875 C 121.125 143.15625 120.96875 143.46875 119.0625 143.84375 C 117.90625 144.09375 116.0625 144 114.90625 143.6875 C 113.0625 143.125 112.90625 142.78125 113.125 139.46875 C 113.25 137.5 113.125 133.9375 112.875 131.59375 C 112.46875 128.125 112.09375 127.28125 110.90625 127.28125 C 110.125 127.28125 109.25 126.90625 109 126.46875 C 108.125 125.03125 107.21875 125.59375 106.375 128.09375 C 105.9375 129.46875 105.78125 130.5625 106 130.5625 C 106.25 130.5625 106.09375 131.03125 105.6875 131.59375 C 105.25 132.15625 104.65625 134.71875 104.375 137.3125 C 103.75 142.75 102.75 143.65625 97.40625 143.65625 C 92.46875 143.65625 92.3125 144.53125 94.34375 161.84375 L 94.8125 165.71875 L 92 165.71875 C 90 165.71875 89.15625 165.375 89.15625 164.5 C 89.15625 163.8125 88.90625 163.28125 88.5625 163.28125 C 87.875 163.28125 86.03125 152.4375 85.28125 144.0625 C 84.71875 137.4375 83.3125 133.84375 81.28125 133.84375 C 80.5 133.84375 79.84375 133.28125 79.84375 132.59375 C 79.84375 131.90625 78.96875 130.90625 77.875 130.40625 C 76.21875 129.59375 75.71875 129.71875 74.40625 131.21875 C 73.53125 132.15625 72.84375 133.5 72.84375 134.1875 C 72.84375 135.5625 69.5625 136.75 68.21875 135.90625 C 67.75 135.59375 66.34375 135.59375 65.09375 135.875 C 63.09375 136.34375 62.84375 136.71875 63.0625 139 C 63.375 142.25 65.03125 149.3125 65.9375 151.1875 C 66.3125 151.9375 66.84375 154.0625 67.09375 155.875 C 67.375 157.6875 67.875 159.1875 68.1875 159.1875 C 69.1875 159.1875 69.78125 162.46875 70.25 170.4375 L 70.6875 178 L 68.28125 178 C 66.65625 178 65.84375 177.59375 65.84375 176.78125 Z M 55.1875 136.34375 C 55.09375 133.90625 54.6875 131.6875 54.3125 131.4375 C 53.3125 130.78125 51.875 120.3125 51.875 113.78125 C 51.875 110.8125 52.28125 105.8125 52.78125 102.65625 C 53.8125 96.0625 53.28125 94.875 49.96875 96.1875 C 48.0625 96.96875 40.21875 104.6875 40.21875 105.8125 C 40.21875 106.0625 39.34375 107.09375 38.28125 108.15625 C 37.1875 109.1875 36.3125 110.46875 36.3125 110.96875 C 36.3125 112.15625 34 116.5625 32.28125 118.59375 C 29.375 122.0625 27.75 127.46875 29.3125 128.5 C 30.75 129.4375 34.78125 129.625 34.78125 128.78125 C 34.78125 128.3125 35.625 128.5 36.6875 129.25 C 37.75 129.96875 39.0625 130.5625 39.625 130.5625 C 40.6875 130.5625 42.71875 132 46.21875 135.25 C 47.3125 136.28125 48.5 137.09375 48.875 137.09375 C 49.25 137.09375 49.53125 137.53125 49.53125 138.03125 C 49.53125 139.46875 52.0625 141.1875 53.8125 140.96875 C 55.1875 140.8125 55.34375 140.25 55.1875 136.34375 Z M 38.65625 138.75 C 38.65625 138.28125 38.3125 137.90625 37.875 137.90625 C 37.46875 137.90625 37.09375 138.28125 37.09375 138.75 C 37.09375 139.1875 37.46875 139.5625 37.875 139.5625 C 38.3125 139.5625 38.65625 139.1875 38.65625 138.75 Z M 174.65625 129.75 C 174.65625 128.84375 175 128.09375 175.4375 128.09375 C 177.21875 128.09375 175.21875 120.34375 173.21875 119.53125 C 172.625 119.28125 172 119.1875 171.90625 119.28125 C 171.8125 119.40625 171.90625 122.1875 172.125 125.4375 C 172.40625 129.71875 172.84375 131.375 173.59375 131.375 C 174.1875 131.375 174.65625 130.65625 174.65625 129.75 Z M 174.65625 129.75 " transform="matrix(0.125,0,0,0.125,0,0)"/>
<path style="fill-rule:evenodd;fill:rgb(60%,40%,100%);fill-opacity:1;stroke-width:1.429126;stroke-linecap:butt;stroke-linejoin:miter;stroke:rgb(54.117647%,16.862745%,88.627451%);stroke-opacity:1;stroke-miterlimit:4;" d="M 162.40625 106.25 C 158.625 104.28125 157.75 103.125 157.75 100.125 C 157.75 98.09375 158.21875 96.15625 158.8125 95.78125 C 159.625 95.28125 165.5 96.78125 168.625 98.3125 C 168.84375 98.40625 169.5 100.25 170.09375 102.4375 C 171.6875 108.03125 168.6875 109.53125 162.40625 106.25 Z M 162.40625 106.25 " transform="matrix(0.125,0,0,0.125,0,0)"/>
</g>
</svg>
