
<svg xmlns="http://www.w3.org/2000/svg" xmlns:xlink="http://www.w3.org/1999/xlink" width="32px" height="32px" viewBox="0 0 32 32" version="1.1">
<g id="surface1">
<path style=" stroke:none;fill-rule:nonzero;fill:rgb(100%,100%,100%);fill-opacity:1;" d="M 26.207031 28.515625 C 7.011719 43.34375 -12.914062 6.414062 10.851562 1.015625 C 25.816406 -4.519531 40.429688 17.523438 26.207031 28.515625 Z M 26.207031 28.515625 "/>
<path style=" stroke:none;fill-rule:evenodd;fill:rgb(0%,0%,0%);fill-opacity:0.0509804;" d="M 18.503906 8.503906 L 8.390625 10.441406 L 8.390625 21.722656 L 18.503906 23.742188 Z M 18.503906 8.503906 "/>
<path style=" stroke:none;fill-rule:nonzero;fill:rgb(0%,0%,0%);fill-opacity:0.0509804;" d="M 18.914062 13.589844 L 24.359375 13.589844 L 24.359375 20.9375 L 18.914062 20.9375 Z M 18.914062 13.589844 "/>
<path style=" stroke:none;fill-rule:nonzero;fill:rgb(0%,0%,0%);fill-opacity:0.101961;" d="M 19.125 13.421875 L 24.183594 13.421875 L 24.183594 20.769531 L 19.125 20.769531 Z M 19.125 13.421875 "/>
<path style=" stroke:none;fill-rule:evenodd;fill:rgb(0%,0%,0%);fill-opacity:0.101961;" d="M 18.34375 8.324219 L 8.621094 10.261719 L 8.621094 21.542969 L 18.34375 23.5625 Z M 18.34375 8.324219 "/>
<path style=" stroke:none;fill-rule:evenodd;fill:rgb(0%,0%,0%);fill-opacity:0.14902;" d="M 18.34375 8.164062 L 8.621094 10.097656 L 8.621094 21.378906 L 18.34375 23.398438 Z M 18.34375 8.164062 "/>
<path style=" stroke:none;fill-rule:nonzero;fill:rgb(0%,0%,0%);fill-opacity:0.14902;" d="M 19.125 13.25 L 24.183594 13.25 L 24.183594 20.597656 L 19.125 20.597656 Z M 19.125 13.25 "/>
<path style=" stroke:none;fill-rule:evenodd;fill:rgb(0%,44.313725%,76.470588%);fill-opacity:1;" d="M 18.34375 7.980469 L 8.621094 9.914062 L 8.621094 21.199219 L 18.34375 23.214844 Z M 18.34375 7.980469 "/>
<path style=" stroke:none;fill-rule:nonzero;fill:rgb(0%,44.313725%,76.470588%);fill-opacity:1;" d="M 19.125 13.0625 L 24.183594 13.0625 L 24.183594 20.410156 L 19.125 20.410156 Z M 19.125 13.0625 "/>
<path style=" stroke:none;fill-rule:nonzero;fill:rgb(100%,100%,100%);fill-opacity:1;" d="M 13.292969 12.363281 C 11.574219 12.363281 10.179688 13.851562 10.179688 15.6875 C 10.179688 17.523438 11.574219 19.011719 13.292969 19.011719 C 15.011719 19.011719 16.402344 17.523438 16.402344 15.6875 C 16.402344 13.851562 15.011719 12.363281 13.292969 12.363281 Z M 13.292969 13.066406 C 14.582031 13.066406 15.625 14.238281 15.625 15.6875 C 15.625 17.136719 14.582031 18.3125 13.292969 18.3125 C 12.003906 18.3125 10.957031 17.136719 10.957031 15.6875 C 10.957031 14.238281 12.003906 13.066406 13.292969 13.066406 Z M 13.292969 13.066406 "/>
<path style=" stroke:none;fill-rule:evenodd;fill:rgb(100%,100%,100%);fill-opacity:1;" d="M 19.125 14.464844 L 20.683594 15.867188 L 24.183594 13.414062 L 24.183594 14.464844 L 20.695312 16.90625 L 19.140625 15.492188 Z M 19.125 14.464844 "/>
</g>
</svg>
