
<svg xmlns="http://www.w3.org/2000/svg" xmlns:xlink="http://www.w3.org/1999/xlink" width="32px" height="32px" viewBox="0 0 32 32" version="1.1">
<g id="surface1">
<path style=" stroke:none;fill-rule:nonzero;fill:rgb(41.960784%,55.686275%,13.72549%);fill-opacity:1;" d="M 27.894531 5.0625 C 46.042969 32.753906 -3.523438 43.472656 0.425781 14.980469 C 2.035156 3.363281 20.953125 -5.535156 27.894531 5.0625 Z M 27.894531 5.0625 "/>
<path style="fill:none;stroke-width:8.659;stroke-linecap:round;stroke-linejoin:round;stroke:rgb(94.901961%,94.901961%,94.901961%);stroke-opacity:1;stroke-miterlimit:4;" d="M 4.794388 3.115183 C 3.692847 3.115183 2.803652 4.012539 2.803652 5.117979 L 2.803652 55.070834 C 2.803652 56.176274 3.692847 57.07363 4.794388 57.07363 L 54.748607 57.07363 C 55.863419 57.07363 56.752615 56.176274 56.752615 55.070834 L 56.752615 5.117979 C 56.752615 4.012539 55.863419 3.115183 54.748607 3.115183 Z M 4.794388 3.115183 " transform="matrix(0.294332,0,0,0.300361,7.358389,7.404163)"/>
<path style="fill-rule:evenodd;fill:rgb(94.901961%,94.901961%,94.901961%);fill-opacity:1;stroke-width:3.33;stroke-linecap:round;stroke-linejoin:round;stroke:rgb(54.117647%,72.156863%,17.254902%);stroke-opacity:1;stroke-miterlimit:4;" d="M 4.794388 3.115183 C 3.692847 3.115183 2.803652 4.012539 2.803652 5.117979 L 2.803652 55.070834 C 2.803652 56.176274 3.692847 57.07363 4.794388 57.07363 L 54.748607 57.07363 C 55.863419 57.07363 56.752615 56.176274 56.752615 55.070834 L 56.752615 5.117979 C 56.752615 4.012539 55.863419 3.115183 54.748607 3.115183 Z M 4.794388 3.115183 " transform="matrix(0.294332,0,0,0.300361,7.358389,7.404163)"/>
<path style="fill:none;stroke-width:2.664;stroke-linecap:round;stroke-linejoin:round;stroke:rgb(54.117647%,72.156863%,17.254902%);stroke-opacity:1;stroke-miterlimit:4;" d="M 13.236579 12.791029 L 3.189995 12.791029 " transform="matrix(0.294332,0,0,0.300361,7.283739,7.404163)"/>
<path style="fill:none;stroke-width:2.664;stroke-linecap:round;stroke-linejoin:round;stroke:rgb(54.117647%,72.156863%,17.254902%);stroke-opacity:1;stroke-miterlimit:4;" d="M 13.236579 47.280738 L 2.924563 47.280738 " transform="matrix(0.294332,0,0,0.300361,7.283739,7.404163)"/>
<path style="fill:none;stroke-width:2.664;stroke-linecap:round;stroke-linejoin:round;stroke:rgb(54.117647%,72.156863%,17.254902%);stroke-opacity:1;stroke-miterlimit:4;" d="M 13.117135 47.397784 L 13.117135 56.64446 " transform="matrix(0.294332,0,0,0.300361,7.283739,7.404163)"/>
<path style="fill:none;stroke-width:2.664;stroke-linecap:round;stroke-linejoin:round;stroke:rgb(54.117647%,72.156863%,17.254902%);stroke-opacity:1;stroke-miterlimit:4;" d="M 47.596694 46.890583 L 47.596694 56.436377 " transform="matrix(0.294332,0,0,0.300361,7.283739,7.404163)"/>
<path style="fill:none;stroke-width:2.664;stroke-linecap:round;stroke-linejoin:round;stroke:rgb(54.117647%,72.156863%,17.254902%);stroke-opacity:1;stroke-miterlimit:4;" d="M 47.079102 47.280738 L 56.369207 47.280738 " transform="matrix(0.294332,0,0,0.300361,7.283739,7.404163)"/>
<path style="fill:none;stroke-width:1.998;stroke-linecap:round;stroke-linejoin:round;stroke:rgb(54.117647%,72.156863%,17.254902%);stroke-opacity:1;stroke-miterlimit:4;" d="M 47.716138 12.791029 C 47.676323 12.791029 47.623237 12.791029 47.596694 12.791029 " transform="matrix(0.294332,0,0,0.300361,7.283739,7.404163)"/>
<path style="fill:none;stroke-width:2.664;stroke-linecap:round;stroke-linejoin:round;stroke:rgb(54.117647%,72.156863%,17.254902%);stroke-opacity:1;stroke-miterlimit:4;" d="M 47.463978 12.791029 L 56.621367 12.791029 " transform="matrix(0.294332,0,0,0.300361,7.283739,7.404163)"/>
<path style="fill:none;stroke-width:2.664;stroke-linecap:round;stroke-linejoin:round;stroke:rgb(54.117647%,72.156863%,17.254902%);stroke-opacity:1;stroke-miterlimit:4;" d="M 47.596694 12.660977 L 47.596694 3.544353 " transform="matrix(0.294332,0,0,0.300361,7.283739,7.404163)"/>
<path style="fill:none;stroke-width:2.664;stroke-linecap:round;stroke-linejoin:round;stroke:rgb(54.117647%,72.156863%,17.254902%);stroke-opacity:1;stroke-miterlimit:4;" d="M 13.117135 12.791029 L 13.117135 3.375286 " transform="matrix(0.294332,0,0,0.300361,7.283739,7.404163)"/>
<path style="fill:none;stroke-width:1.998;stroke-linecap:butt;stroke-linejoin:miter;stroke:rgb(54.117647%,72.156863%,17.254902%);stroke-opacity:1;stroke-miterlimit:4;" d="M 4.065919 18.747396 L 57.762722 18.747396 " transform="matrix(0.294332,0,0,0.300361,7.283739,7.404163)"/>
<path style="fill:none;stroke-width:1.998;stroke-linecap:butt;stroke-linejoin:miter;stroke:rgb(54.117647%,72.156863%,17.254902%);stroke-opacity:1;stroke-miterlimit:4;" d="M 4.065919 24.39164 L 57.762722 24.39164 " transform="matrix(0.294332,0,0,0.300361,7.283739,7.404163)"/>
<path style="fill:none;stroke-width:1.998;stroke-linecap:butt;stroke-linejoin:miter;stroke:rgb(54.117647%,72.156863%,17.254902%);stroke-opacity:1;stroke-miterlimit:4;" d="M 4.065919 30.035883 L 57.762722 30.035883 " transform="matrix(0.294332,0,0,0.300361,7.283739,7.404163)"/>
<path style="fill:none;stroke-width:1.998;stroke-linecap:butt;stroke-linejoin:miter;stroke:rgb(54.117647%,72.156863%,17.254902%);stroke-opacity:1;stroke-miterlimit:4;" d="M 4.065919 35.680127 L 57.762722 35.680127 " transform="matrix(0.294332,0,0,0.300361,7.283739,7.404163)"/>
<path style="fill:none;stroke-width:1.998;stroke-linecap:butt;stroke-linejoin:miter;stroke:rgb(54.117647%,72.156863%,17.254902%);stroke-opacity:1;stroke-miterlimit:4;" d="M 4.065919 41.32437 L 57.762722 41.32437 " transform="matrix(0.294332,0,0,0.300361,7.283739,7.404163)"/>
<path style="fill:none;stroke-width:1.998;stroke-linecap:butt;stroke-linejoin:round;stroke:rgb(54.117647%,72.156863%,17.254902%);stroke-opacity:1;stroke-miterlimit:4;" d="M 19.062802 56.930573 L 19.062802 3.232229 " transform="matrix(0.294332,0,0,0.300361,7.283739,7.404163)"/>
<path style="fill:none;stroke-width:1.875;stroke-linecap:butt;stroke-linejoin:round;stroke:rgb(54.117647%,72.156863%,17.254902%);stroke-opacity:1;stroke-miterlimit:4;" d="M 25.002989 55.177225 L 25.002989 4.802133 " transform="matrix(0.31366,0,0,0.320099,6.71225,6.84175)"/>
<path style="fill:none;stroke-width:1.875;stroke-linecap:butt;stroke-linejoin:round;stroke:rgb(54.117647%,72.156863%,17.254902%);stroke-opacity:1;stroke-miterlimit:4;" d="M 30.295842 55.177225 L 30.295842 4.802133 " transform="matrix(0.31366,0,0,0.320099,6.71225,6.84175)"/>
<path style="fill:none;stroke-width:1.875;stroke-linecap:butt;stroke-linejoin:round;stroke:rgb(54.117647%,72.156863%,17.254902%);stroke-opacity:1;stroke-miterlimit:4;" d="M 35.601149 55.177225 L 35.601149 4.802133 " transform="matrix(0.31366,0,0,0.320099,6.71225,6.84175)"/>
<path style="fill:none;stroke-width:1.875;stroke-linecap:butt;stroke-linejoin:round;stroke:rgb(54.117647%,72.156863%,17.254902%);stroke-opacity:1;stroke-miterlimit:4;" d="M 40.881548 55.177225 L 40.881548 4.802133 " transform="matrix(0.31366,0,0,0.320099,6.71225,6.84175)"/>
<path style="fill-rule:evenodd;fill:rgb(94.901961%,94.901961%,94.901961%);fill-opacity:1;stroke-width:2.763;stroke-linecap:round;stroke-linejoin:round;stroke:rgb(54.117647%,72.156863%,17.254902%);stroke-opacity:1;stroke-miterlimit:4;" d="M 12.341038 12.408784 L 12.341038 48.17105 L 48.093101 48.17105 L 48.093101 12.408784 Z M 12.341038 12.408784 " transform="matrix(0.283856,0,0,0.289673,7.637547,7.6516)"/>
<path style="fill:none;stroke-width:6.875;stroke-linecap:round;stroke-linejoin:round;stroke:rgb(94.901961%,94.901961%,94.901961%);stroke-opacity:1;stroke-miterlimit:4;" d="M 39.43691 21.131905 C 38.241348 20.81462 37.045786 21.510206 36.721988 22.693924 L 35.065636 28.880981 C 34.629754 27.880313 33.583638 27.282353 32.500159 27.563028 L 24.243309 29.784023 C 23.060201 30.101308 22.337882 31.321634 22.649226 32.505351 L 24.878451 40.791371 C 25.189795 41.975088 26.410265 42.670674 27.593373 42.353389 L 35.875132 40.132394 C 37.070694 39.815109 37.793012 38.594782 37.469214 37.411065 L 36.49782 33.811101 L 44.343696 35.910063 C 45.539258 36.227348 46.747274 35.543965 47.058618 34.348045 L 49.27539 26.074229 C 49.599188 24.878309 48.876869 23.670185 47.681307 23.3529 Z M 39.43691 21.131905 " transform="matrix(0.31366,0,0,0.320099,6.71225,7.798205)"/>
<path style="fill-rule:evenodd;fill:rgb(94.901961%,94.901961%,94.901961%);fill-opacity:1;stroke-width:1.875;stroke-linecap:round;stroke-linejoin:round;stroke:rgb(54.117647%,72.156863%,17.254902%);stroke-opacity:1;stroke-miterlimit:4;" d="M 24.243309 29.784023 C 23.047747 30.101308 22.350336 31.309431 22.674134 32.493148 L 24.890905 40.779168 C 25.202249 41.962885 26.410265 42.670674 27.605827 42.353389 L 35.887585 40.132394 C 37.070694 39.815109 37.768105 38.594782 37.456761 37.411065 L 35.239989 29.125046 C 34.916191 27.941329 33.708175 27.245743 32.512613 27.563028 Z M 24.243309 29.784023 " transform="matrix(0.31366,0,0,0.320099,6.71225,7.798205)"/>
<path style="fill-rule:evenodd;fill:rgb(94.901961%,94.901961%,94.901961%);fill-opacity:1;stroke-width:1.875;stroke-linecap:butt;stroke-linejoin:round;stroke:rgb(54.117647%,72.156863%,17.254902%);stroke-opacity:1;stroke-miterlimit:4;" d="M 39.43691 21.107499 C 38.241348 20.790214 37.020878 21.4858 36.709534 22.68172 L 34.492763 30.955536 C 34.168965 32.151457 34.87883 33.35958 36.061938 33.676865 L 44.343696 35.89786 C 45.526805 36.215145 46.73482 35.519559 47.058618 34.323638 L 49.27539 26.049822 C 49.599188 24.853902 48.901777 23.645778 47.706215 23.328494 Z M 39.43691 21.107499 " transform="matrix(0.31366,0,0,0.320099,6.71225,7.798205)"/>
<path style="fill-rule:evenodd;fill:rgb(54.117647%,72.156863%,17.254902%);fill-opacity:1;stroke-width:1;stroke-linecap:round;stroke-linejoin:round;stroke:rgb(54.117647%,72.156863%,17.254902%);stroke-opacity:1;stroke-miterlimit:4;" d="M 31.067976 34.958208 C 31.067976 35.519559 30.61964 35.97108 30.046766 35.97108 C 29.4988 35.97108 29.038011 35.519559 29.038011 34.958208 C 29.038011 34.396858 29.4988 33.933134 30.046766 33.933134 C 30.61964 33.933134 31.067976 34.396858 31.067976 34.958208 Z M 31.067976 34.958208 " transform="matrix(0.31366,0,0,0.320099,6.71225,7.798205)"/>
<path style="fill-rule:evenodd;fill:rgb(54.117647%,72.156863%,17.254902%);fill-opacity:1;stroke-width:1.066;stroke-linecap:round;stroke-linejoin:round;stroke:rgb(54.117647%,72.156863%,17.254902%);stroke-opacity:1;stroke-miterlimit:4;" d="M 30.412591 35.377855 C 30.412591 35.976093 29.921542 36.457284 29.337593 36.457284 C 28.7271 36.457284 28.249324 35.976093 28.249324 35.377855 C 28.249324 34.779617 28.7271 34.298426 29.337593 34.298426 C 29.921542 34.298426 30.412591 34.779617 30.412591 35.377855 Z M 30.412591 35.377855 " transform="matrix(0.294332,0,0,0.300361,10.298601,6.889485)"/>
<path style="fill-rule:evenodd;fill:rgb(54.117647%,72.156863%,17.254902%);fill-opacity:1;stroke-width:1.066;stroke-linecap:round;stroke-linejoin:round;stroke:rgb(54.117647%,72.156863%,17.254902%);stroke-opacity:1;stroke-miterlimit:4;" d="M 30.415226 35.381292 C 30.415226 35.979529 29.924177 36.460721 29.326956 36.460721 C 28.729735 36.460721 28.251958 35.979529 28.251958 35.381292 C 28.251958 34.783054 28.729735 34.301863 29.326956 34.301863 C 29.924177 34.301863 30.415226 34.783054 30.415226 35.381292 Z M 30.415226 35.381292 " transform="matrix(0.294332,0,0,0.300361,12.133763,5.704859)"/>
</g>
</svg>
