
<svg xmlns="http://www.w3.org/2000/svg" xmlns:xlink="http://www.w3.org/1999/xlink" width="32px" height="32px" viewBox="0 0 32 32" version="1.1">
<defs>
<linearGradient id="linear0" gradientUnits="userSpaceOnUse" x1="-22.485035" y1="33.603104" x2="-22.485035" y2="23.582241" gradientTransform="matrix(0,1.045195,-1.390993,0,56.146522,38.996379)">
<stop offset="0" style="stop-color:rgb(12.156863%,49.411765%,81.176471%);stop-opacity:1;"/>
<stop offset="1" style="stop-color:rgb(18.431373%,75.294118%,90.196078%);stop-opacity:1;"/>
</linearGradient>
</defs>
<g id="surface1">
<path style=" stroke:none;fill-rule:nonzero;fill:rgb(52.941176%,80.784314%,98.039216%);fill-opacity:1;" d="M 6.597656 28.878906 C 30.652344 44.871094 45.472656 -6.132812 14.371094 0.621094 C 1.519531 3.496094 -6.277344 21.542969 6.597656 28.878906 Z M 6.597656 28.878906 "/>
<path style=" stroke:none;fill-rule:nonzero;fill:url(#linear0);" d="M 16.375 7.578125 L 9.414062 10.9375 L 9.433594 11.714844 L 9.433594 13.019531 L 9.414062 23.742188 C 9.414062 24.175781 9.878906 24.519531 10.457031 24.519531 L 22.277344 24.519531 C 22.851562 24.519531 23.316406 24.175781 23.316406 23.742188 L 23.332031 13.019531 L 23.332031 11.714844 L 23.316406 10.9375 Z M 16.375 8.636719 C 17.042969 8.636719 17.585938 9.113281 17.585938 9.699219 C 17.585938 10.28125 17.042969 10.753906 16.375 10.753906 C 15.707031 10.753906 15.164062 10.28125 15.164062 9.699219 C 15.164062 9.113281 15.707031 8.636719 16.375 8.636719 Z M 16.375 8.636719 "/>
<path style=" stroke:none;fill-rule:nonzero;fill:rgb(20.784314%,20.784314%,20.784314%);fill-opacity:1;" d="M 16.160156 5.09375 L 16.589844 5.09375 C 16.820312 5.09375 17.007812 5.253906 17.007812 5.457031 L 17.007812 8.507812 C 17.007812 8.707031 16.820312 8.871094 16.589844 8.871094 L 16.160156 8.871094 C 15.925781 8.871094 15.738281 8.707031 15.738281 8.507812 L 15.738281 5.457031 C 15.738281 5.253906 15.925781 5.09375 16.160156 5.09375 Z M 16.160156 5.09375 "/>
<path style=" stroke:none;fill-rule:nonzero;fill:rgb(100%,100%,100%);fill-opacity:0.0588235;" d="M 16.035156 5.09375 L 16.140625 5.09375 C 16.199219 5.09375 16.246094 5.136719 16.246094 5.183594 L 16.246094 8.511719 C 16.246094 8.566406 16.199219 8.605469 16.140625 8.605469 L 16.035156 8.605469 C 15.980469 8.605469 15.929688 8.566406 15.929688 8.511719 L 15.929688 5.183594 C 15.929688 5.136719 15.980469 5.09375 16.035156 5.09375 Z M 16.035156 5.09375 "/>
<path style=" stroke:none;fill-rule:nonzero;fill:rgb(100%,100%,100%);fill-opacity:0.0588235;" d="M 16.605469 5.09375 L 16.710938 5.09375 C 16.769531 5.09375 16.816406 5.136719 16.816406 5.183594 L 16.816406 8.511719 C 16.816406 8.566406 16.769531 8.605469 16.710938 8.605469 L 16.605469 8.605469 C 16.550781 8.605469 16.5 8.566406 16.5 8.511719 L 16.5 5.183594 C 16.5 5.136719 16.550781 5.09375 16.605469 5.09375 Z M 16.605469 5.09375 "/>
<path style=" stroke:none;fill-rule:nonzero;fill:rgb(20.784314%,20.784314%,20.784314%);fill-opacity:1;" d="M 15.425781 7.578125 L 17.324219 7.578125 C 17.5 7.578125 17.640625 7.703125 17.640625 7.855469 C 17.640625 8.011719 17.5 8.132812 17.324219 8.132812 L 15.425781 8.132812 C 15.25 8.132812 15.105469 8.011719 15.105469 7.855469 C 15.105469 7.703125 15.25 7.578125 15.425781 7.578125 Z M 15.425781 7.578125 "/>
<path style=" stroke:none;fill-rule:nonzero;fill:rgb(100%,100%,100%);fill-opacity:0.0588235;" d="M 17.449219 7.855469 C 17.449219 7.933594 17.378906 7.996094 17.285156 7.996094 L 15.464844 7.996094 C 15.371094 7.996094 15.296875 7.933594 15.296875 7.855469 C 15.296875 7.777344 15.371094 7.71875 15.464844 7.71875 L 17.285156 7.71875 C 17.378906 7.71875 17.449219 7.777344 17.449219 7.855469 Z M 17.449219 7.855469 "/>
<path style=" stroke:none;fill-rule:evenodd;fill:rgb(0%,0%,0%);fill-opacity:0.141176;" d="M 15.449219 14.878906 L 15.449219 18.042969 C 15.449219 18.332031 15.230469 18.65625 14.777344 18.859375 C 14.144531 19.144531 13.480469 19.003906 13.238281 18.675781 C 12.992188 18.347656 13.167969 17.832031 13.800781 17.546875 C 14.230469 17.355469 14.667969 17.355469 14.984375 17.476562 L 14.984375 13.339844 L 19.617188 12.53125 L 19.617188 17.636719 C 19.621094 17.925781 19.402344 18.25 18.945312 18.457031 C 18.3125 18.738281 17.648438 18.601562 17.40625 18.273438 C 17.160156 17.945312 17.339844 17.425781 17.972656 17.140625 C 18.398438 16.949219 18.839844 16.949219 19.152344 17.070312 L 19.152344 14.230469 Z M 15.449219 14.878906 "/>
<path style=" stroke:none;fill-rule:evenodd;fill:rgb(100%,100%,100%);fill-opacity:1;" d="M 15.449219 15.160156 L 15.449219 18.316406 C 15.449219 18.605469 15.230469 18.933594 14.777344 19.136719 C 14.144531 19.421875 13.480469 19.285156 13.238281 18.957031 C 12.992188 18.628906 13.167969 18.109375 13.800781 17.824219 C 14.230469 17.632812 14.667969 17.632812 14.984375 17.753906 L 14.984375 13.617188 L 19.617188 12.808594 L 19.617188 17.914062 C 19.621094 18.203125 19.402344 18.527344 18.945312 18.730469 C 18.3125 19.015625 17.648438 18.878906 17.40625 18.550781 C 17.160156 18.222656 17.339844 17.703125 17.972656 17.417969 C 18.398438 17.226562 18.839844 17.226562 19.152344 17.347656 L 19.152344 14.511719 Z M 15.449219 15.160156 "/>
</g>
</svg>
