
<svg xmlns="http://www.w3.org/2000/svg" xmlns:xlink="http://www.w3.org/1999/xlink" width="32px" height="32px" viewBox="0 0 32 32" version="1.1">
<g id="surface1">
<path style=" stroke:none;fill-rule:nonzero;fill:rgb(100%,0%,0%);fill-opacity:1;" d="M 26.398438 4.644531 C 51.625 37.941406 -17.800781 42.671875 4.480469 8.683594 C 9.558594 0.933594 19.714844 -4.175781 26.398438 4.644531 Z M 26.398438 4.644531 "/>
<path style=" stroke:none;fill-rule:nonzero;fill:rgb(100%,80%,0%);fill-opacity:1;" d="M 21.351562 6.472656 C 21.214844 6.472656 21.089844 6.484375 20.949219 6.511719 C 19.976562 6.710938 19.226562 7.492188 19.027344 8.496094 C 18.949219 8.890625 18.851562 9.199219 18.730469 9.441406 C 18.628906 9.648438 18.199219 10.09375 17.945312 10.253906 C 17.550781 10.496094 16.984375 10.632812 16.753906 10.542969 C 15.871094 10.332031 15.042969 10.457031 14.136719 10.503906 C 13.695312 10.507812 13.535156 10.402344 13.332031 10.039062 C 13.230469 9.855469 13.203125 9.746094 13.203125 9.421875 C 13.203125 8.949219 13.082031 8.617188 12.820312 8.363281 C 12.121094 7.6875 10.992188 8.242188 10.988281 9.25 C 10.917969 9.773438 11.195312 10.085938 11.613281 10.308594 C 11.976562 10.511719 12.171875 10.738281 12.253906 11.058594 C 12.3125 11.308594 12.300781 11.347656 12.214844 11.542969 C 12.167969 11.660156 12.085938 11.8125 12.035156 11.871094 C 11.558594 12.394531 11.082031 13.230469 10.917969 13.816406 C 10.769531 14.328125 10.691406 15.066406 10.714844 15.644531 C 10.738281 16.1875 10.722656 16.199219 10.566406 16.472656 C 10.21875 16.996094 9.460938 17.222656 9.121094 17.128906 C 8.828125 17.046875 8.371094 17.078125 8.277344 17.109375 C 7.949219 17.207031 7.65625 17.414062 7.417969 17.609375 C 6.886719 18.183594 6.789062 18.980469 7.164062 19.691406 C 7.386719 20.113281 7.71875 20.359375 8.261719 20.539062 C 8.644531 20.667969 9.136719 20.566406 9.5625 20.289062 C 9.792969 20.136719 9.816406 20.113281 10.113281 19.652344 C 10.476562 19.074219 10.839844 18.839844 11.429688 18.785156 C 11.847656 18.746094 12.136719 18.84375 12.472656 19.132812 C 12.753906 19.375 13.359375 19.726562 13.734375 19.863281 C 14.261719 20.058594 14.695312 20.128906 15.585938 20.152344 C 16.308594 20.171875 16.511719 20.199219 16.757812 20.289062 C 17.207031 20.457031 17.683594 20.785156 17.964844 21.117188 C 18.277344 21.484375 18.585938 22.125 18.660156 22.582031 C 18.839844 23.648438 19.195312 24.3125 19.941406 24.933594 C 20.238281 25.179688 20.496094 25.332031 20.855469 25.453125 C 21.109375 25.535156 21.292969 25.542969 21.9375 25.527344 C 22.804688 25.511719 23.019531 25.457031 23.511719 25.144531 C 23.839844 24.933594 24.410156 24.394531 24.519531 24.179688 C 24.976562 23.304688 25.066406 22.980469 25.066406 22.273438 C 25.066406 21.925781 25.046875 21.617188 24.996094 21.425781 C 24.636719 20.066406 23.710938 19.175781 22.378906 18.902344 C 21.914062 18.808594 21.757812 18.761719 21.460938 18.613281 C 20.769531 18.261719 20.136719 17.414062 19.960938 16.609375 C 19.925781 16.445312 19.890625 15.746094 19.886719 14.777344 C 19.878906 13.5 19.898438 13.183594 19.960938 13.003906 C 20.246094 12.175781 20.867188 11.613281 21.683594 11.464844 C 22.464844 11.324219 23.09375 10.878906 23.441406 10.210938 C 23.664062 9.78125 23.714844 9.628906 23.75 9.152344 C 23.859375 7.714844 22.683594 6.464844 21.351562 6.472656 Z M 21.351562 6.472656 "/>
<path style=" stroke:none;fill-rule:nonzero;fill:rgb(100%,100%,100%);fill-opacity:1;" d="M 15.199219 11.925781 C 16.082031 11.917969 16.78125 12.214844 17.433594 12.871094 C 17.765625 13.207031 17.867188 13.351562 18.054688 13.757812 C 18.175781 14.023438 18.277344 14.316406 18.292969 14.410156 C 18.308594 14.507812 18.347656 14.675781 18.367188 14.796875 C 18.441406 15.222656 18.351562 16.027344 18.183594 16.472656 C 17.824219 17.429688 17.027344 18.179688 16.078125 18.476562 C 15.574219 18.636719 14.769531 18.628906 14.265625 18.457031 C 13.910156 18.339844 13.40625 18.027344 13.128906 17.765625 C 12.066406 16.742188 11.746094 15.089844 12.378906 13.777344 C 12.929688 12.632812 14 11.9375 15.199219 11.925781 Z M 15.199219 11.925781 "/>
<path style=" stroke:none;fill-rule:nonzero;fill:rgb(0%,0%,0%);fill-opacity:0.498039;" d="M 15.160156 13.199219 C 14.636719 13.207031 14.148438 13.457031 13.753906 13.910156 C 13.410156 14.308594 13.296875 14.660156 13.292969 15.261719 C 13.292969 15.628906 13.316406 15.792969 13.40625 16.03125 C 13.542969 16.394531 13.921875 16.84375 14.265625 17.050781 C 14.6875 17.308594 15.214844 17.253906 15.527344 16.898438 C 15.660156 16.75 15.808594 16.386719 15.765625 16.320312 C 15.75 16.292969 15.566406 16.28125 15.363281 16.28125 C 15.164062 16.28125 14.925781 16.253906 14.851562 16.222656 C 14.527344 16.09375 14.25 15.636719 14.246094 15.261719 C 14.242188 14.542969 14.976562 14.039062 15.601562 14.316406 C 15.804688 14.402344 16.058594 14.671875 16.132812 14.875 C 16.164062 14.957031 16.1875 15.441406 16.1875 16.011719 L 16.1875 16.992188 L 16.296875 16.992188 C 16.476562 16.992188 16.800781 16.824219 16.9375 16.644531 C 17.152344 16.378906 17.183594 16.175781 17.160156 15.449219 C 17.128906 14.644531 17.023438 14.324219 16.664062 13.910156 C 16.371094 13.574219 16.101562 13.378906 15.710938 13.273438 C 15.527344 13.222656 15.339844 13.195312 15.160156 13.199219 Z M 15.160156 13.199219 "/>
</g>
</svg>
