
<svg xmlns="http://www.w3.org/2000/svg" xmlns:xlink="http://www.w3.org/1999/xlink" width="32px" height="32px" viewBox="0 0 32 32" version="1.1">
<g id="surface1">
<path style=" stroke:none;fill-rule:nonzero;fill:rgb(100%,100%,100%);fill-opacity:1;" d="M 16.019531 8.136719 C 15.445312 8.136719 14.980469 8.578125 14.980469 9.128906 L 14.980469 10.214844 C 12.613281 10.671875 10.839844 12.664062 10.839844 15.066406 L 10.839844 19.023438 C 9.691406 19.023438 8.769531 19.90625 8.769531 21.003906 L 8.769531 21.992188 L 14.980469 21.992188 L 14.980469 22.980469 C 14.980469 23.53125 15.445312 23.972656 16.019531 23.972656 C 16.589844 23.972656 17.054688 23.53125 17.054688 22.980469 L 17.054688 21.992188 L 23.269531 21.992188 L 23.269531 21.003906 C 23.269531 19.90625 22.34375 19.023438 21.195312 19.023438 L 21.195312 15.066406 C 21.195312 12.664062 19.421875 10.671875 17.054688 10.214844 L 17.054688 9.128906 C 17.054688 8.578125 16.589844 8.136719 16.019531 8.136719 Z M 16.019531 8.136719 "/>
<path style=" stroke:none;fill-rule:nonzero;fill:rgb(41.568627%,35.294118%,80.392157%);fill-opacity:1;" d="M 3.375 6.777344 C -12.328125 30.507812 37.746094 45.125 31.121094 14.449219 C 28.292969 1.769531 10.574219 -5.921875 3.375 6.777344 Z M 3.375 6.777344 "/>
<path style=" stroke:none;fill-rule:nonzero;fill:rgb(87.058824%,100%,100%);fill-opacity:1;" d="M 20.269531 16.910156 L 20.269531 9.738281 L 20.761719 9.738281 C 21.292969 9.742188 21.449219 9.847656 21.566406 10.273438 C 21.613281 10.441406 21.644531 11.839844 21.644531 13.972656 L 21.644531 17.402344 L 22.550781 17.402344 C 23.4375 17.402344 23.742188 17.484375 23.734375 17.726562 C 23.730469 17.894531 20.472656 23.996094 20.363281 24.046875 C 20.292969 24.078125 20.273438 22.605469 20.273438 16.910156 Z M 20.269531 16.910156 "/>
<path style=" stroke:none;fill-rule:nonzero;fill:rgb(87.058824%,100%,100%);fill-opacity:1;" d="M 19.96875 23.894531 C 19.695312 23.457031 16.734375 17.792969 16.734375 17.703125 C 16.734375 17.484375 17.058594 17.398438 17.917969 17.398438 L 18.824219 17.398438 L 18.863281 10.246094 L 19.039062 9.992188 C 19.191406 9.761719 19.269531 9.734375 19.707031 9.734375 L 20.199219 9.734375 L 20.199219 16.902344 C 20.199219 20.84375 20.171875 24.070312 20.136719 24.070312 C 20.105469 24.070312 20.027344 23.992188 19.96875 23.894531 Z M 19.96875 23.894531 "/>
<path style=" stroke:none;fill-rule:nonzero;fill:rgb(87.058824%,100%,100%);fill-opacity:1;" d="M 20.199219 16.902344 C 20.199219 12.941406 20.214844 9.722656 20.234375 9.75 C 20.285156 9.816406 20.285156 23.984375 20.238281 24.050781 C 20.214844 24.078125 20.199219 20.863281 20.199219 16.902344 Z M 20.199219 16.902344 "/>
<path style=" stroke:none;fill-rule:nonzero;fill:rgb(87.058824%,100%,100%);fill-opacity:1;" d="M 19.109375 22.253906 C 17.472656 19.167969 16.792969 17.792969 16.828125 17.660156 C 16.875 17.496094 17.367188 17.402344 18.175781 17.402344 L 18.804688 17.402344 L 18.855469 13.792969 C 18.914062 9.570312 18.859375 9.839844 19.683594 9.757812 L 20.199219 9.707031 L 20.21875 13.082031 L 20.238281 16.453125 L 20.269531 9.710938 L 20.757812 9.777344 C 21.550781 9.886719 21.539062 9.835938 21.597656 12.722656 C 21.621094 14.054688 21.644531 15.644531 21.644531 16.253906 L 21.644531 17.371094 L 22.550781 17.441406 C 23.492188 17.511719 23.664062 17.554688 23.664062 17.714844 C 23.664062 17.882812 21.816406 21.425781 20.816406 23.175781 L 20.34375 24.003906 L 20.335938 21.175781 C 20.332031 19.617188 20.304688 18.121094 20.273438 17.847656 C 20.238281 17.503906 20.214844 17.933594 20.207031 19.242188 C 20.195312 21.523438 20.121094 23.96875 20.0625 23.96875 C 20.039062 23.96875 19.609375 23.195312 19.109375 22.253906 Z M 19.109375 22.253906 "/>
<path style=" stroke:none;fill-rule:nonzero;fill:rgb(87.058824%,100%,100%);fill-opacity:1;" d="M 19 22.054688 C 17.359375 18.960938 16.789062 17.808594 16.828125 17.664062 C 16.882812 17.472656 17.21875 17.402344 18.066406 17.402344 L 18.804688 17.402344 L 18.847656 13.800781 C 18.894531 9.566406 18.84375 9.816406 19.691406 9.753906 L 20.199219 9.714844 L 20.21875 12.335938 L 20.238281 14.960938 L 20.253906 12.332031 L 20.273438 9.707031 L 20.761719 9.773438 C 21.542969 9.878906 21.539062 9.871094 21.597656 12.425781 C 21.621094 13.589844 21.644531 15.179688 21.644531 15.957031 L 21.644531 17.371094 L 22.535156 17.433594 C 23.457031 17.496094 23.667969 17.550781 23.667969 17.722656 C 23.667969 17.863281 23.035156 19.097656 21.613281 21.722656 L 20.378906 24.003906 L 20.339844 21.003906 C 20.316406 19.355469 20.277344 17.972656 20.25 17.933594 C 20.222656 17.894531 20.199219 18.734375 20.199219 19.796875 C 20.199219 21.917969 20.128906 23.972656 20.0625 23.972656 C 20.035156 23.972656 19.558594 23.105469 19 22.054688 Z M 19 22.054688 "/>
<path style=" stroke:none;fill-rule:nonzero;fill:rgb(87.058824%,100%,100%);fill-opacity:1;" d="M 19.074219 22.214844 C 17.535156 19.324219 16.808594 17.855469 16.824219 17.703125 C 16.851562 17.488281 17.117188 17.421875 18.007812 17.410156 L 18.808594 17.402344 L 18.871094 10.207031 L 19.070312 9.972656 C 19.234375 9.777344 19.347656 9.738281 19.730469 9.738281 L 20.195312 9.738281 L 20.21875 11.601562 L 20.238281 13.46875 L 20.269531 9.707031 L 20.761719 9.773438 C 21.527344 9.878906 21.539062 9.90625 21.597656 12.1875 C 21.621094 13.222656 21.644531 14.808594 21.644531 15.71875 L 21.644531 17.371094 L 22.527344 17.429688 C 23.453125 17.488281 23.667969 17.546875 23.664062 17.734375 C 23.664062 17.863281 22.550781 20.019531 21.246094 22.425781 L 20.378906 24.011719 L 20.332031 21.148438 C 20.308594 19.570312 20.265625 18.253906 20.242188 18.222656 C 20.21875 18.191406 20.199219 19.058594 20.199219 20.15625 C 20.199219 22.292969 20.136719 23.972656 20.058594 23.972656 C 20.027344 23.972656 19.589844 23.183594 19.074219 22.214844 Z M 19.074219 22.214844 "/>
<path style=" stroke:none;fill-rule:nonzero;fill:rgb(87.058824%,100%,100%);fill-opacity:1;" d="M 19.144531 22.351562 C 17.988281 20.199219 16.808594 17.855469 16.808594 17.710938 C 16.808594 17.496094 17.171875 17.402344 18 17.402344 L 18.820312 17.402344 L 18.84375 13.808594 L 18.863281 10.214844 L 19.066406 9.976562 C 19.234375 9.777344 19.347656 9.738281 19.730469 9.738281 L 20.195312 9.738281 L 20.21875 11.054688 L 20.238281 12.375 L 20.269531 9.707031 L 20.757812 9.769531 C 21.507812 9.863281 21.535156 9.9375 21.597656 11.886719 C 21.621094 12.757812 21.644531 14.347656 21.644531 15.417969 L 21.644531 17.371094 L 22.527344 17.429688 C 23.429688 17.488281 23.664062 17.546875 23.664062 17.714844 C 23.664062 17.769531 23.527344 18.089844 23.363281 18.425781 C 23.003906 19.15625 20.792969 23.292969 20.53125 23.722656 L 20.347656 24.019531 L 20.339844 22.378906 C 20.332031 21.472656 20.304688 20.285156 20.277344 19.738281 C 20.230469 18.832031 20.222656 18.90625 20.210938 20.597656 C 20.199219 22.578125 20.136719 23.972656 20.058594 23.972656 C 20.035156 23.972656 19.621094 23.242188 19.144531 22.351562 Z M 19.144531 22.351562 "/>
<path style=" stroke:none;fill-rule:nonzero;fill:rgb(87.058824%,100%,100%);fill-opacity:1;" d="M 19.160156 22.382812 C 18.222656 20.648438 17.007812 18.277344 16.871094 17.921875 C 16.714844 17.527344 16.863281 17.453125 17.894531 17.417969 L 18.828125 17.386719 L 18.828125 10.316406 L 19.039062 10.027344 C 19.230469 9.761719 19.296875 9.734375 19.722656 9.734375 L 20.195312 9.734375 L 20.21875 10.65625 L 20.242188 11.574219 L 20.257812 10.640625 L 20.269531 9.707031 L 20.757812 9.769531 C 21.488281 9.859375 21.535156 9.964844 21.597656 11.679688 C 21.621094 12.433594 21.644531 14.027344 21.644531 15.226562 L 21.644531 17.398438 L 22.238281 17.40625 C 22.886719 17.414062 23.5625 17.523438 23.640625 17.628906 C 23.667969 17.667969 23.652344 17.800781 23.601562 17.925781 C 23.476562 18.25 22.035156 21.011719 21.144531 22.621094 L 20.378906 24.015625 L 20.328125 21.925781 C 20.261719 19.210938 20.222656 18.933594 20.210938 21.042969 C 20.199219 22.824219 20.140625 23.96875 20.058594 23.96875 C 20.035156 23.96875 19.628906 23.253906 19.160156 22.382812 Z M 19.160156 22.382812 "/>
<path style=" stroke:none;fill-rule:nonzero;fill:rgb(87.058824%,100%,100%);fill-opacity:1;" d="M 20.21875 21.730469 C 20.21875 21.511719 20.234375 21.433594 20.25 21.558594 C 20.269531 21.683594 20.269531 21.863281 20.25 21.957031 C 20.230469 22.050781 20.214844 21.949219 20.21875 21.730469 Z M 20.21875 21.730469 "/>
<path style=" stroke:none;fill-rule:nonzero;fill:rgb(87.058824%,100%,100%);fill-opacity:1;" d="M 20.222656 22.726562 C 20.222656 22.398438 20.238281 22.277344 20.253906 22.453125 C 20.269531 22.632812 20.269531 22.902344 20.253906 23.050781 C 20.234375 23.199219 20.222656 23.054688 20.222656 22.726562 Z M 20.222656 22.726562 "/>
<path style=" stroke:none;fill-rule:nonzero;fill:rgb(87.058824%,100%,100%);fill-opacity:1;" d="M 19.140625 22.363281 C 18.175781 20.558594 16.996094 18.261719 16.863281 17.921875 C 16.707031 17.527344 16.855469 17.453125 17.886719 17.417969 L 18.820312 17.386719 L 18.820312 10.316406 L 19.03125 10.027344 C 19.222656 9.761719 19.289062 9.734375 19.714844 9.734375 L 20.183594 9.734375 L 20.238281 10.980469 L 20.25 10.355469 L 20.265625 9.734375 L 20.574219 9.734375 C 21.023438 9.738281 21.40625 9.910156 21.503906 10.160156 C 21.566406 10.316406 21.597656 11.449219 21.621094 13.890625 L 21.65625 17.402344 L 22.277344 17.410156 C 23.183594 17.421875 23.613281 17.515625 23.644531 17.710938 C 23.667969 17.878906 22.769531 19.640625 21.273438 22.378906 L 20.371094 24.019531 L 20.328125 22.097656 C 20.300781 21.042969 20.261719 20.152344 20.238281 20.117188 C 20.214844 20.082031 20.191406 20.726562 20.191406 21.550781 C 20.191406 23.070312 20.140625 23.96875 20.050781 23.96875 C 20.027344 23.96875 19.613281 23.246094 19.140625 22.363281 Z M 19.140625 22.363281 "/>
<path style=" stroke:none;fill-rule:nonzero;fill:rgb(87.058824%,100%,100%);fill-opacity:1;" d="M 19.828125 23.644531 C 17.871094 20.003906 16.800781 17.902344 16.800781 17.699219 C 16.800781 17.496094 17.175781 17.402344 17.996094 17.402344 L 18.820312 17.402344 L 18.820312 10.316406 L 19.03125 10.027344 C 19.222656 9.761719 19.289062 9.734375 19.714844 9.734375 L 20.183594 9.734375 L 20.210938 10.160156 L 20.238281 10.582031 L 20.253906 10.160156 L 20.265625 9.734375 L 20.570312 9.738281 C 21.019531 9.738281 21.40625 9.910156 21.503906 10.160156 C 21.566406 10.316406 21.601562 11.421875 21.621094 13.878906 L 21.652344 17.371094 L 22.589844 17.425781 C 23.136719 17.457031 23.558594 17.523438 23.605469 17.589844 C 23.667969 17.675781 23.65625 17.785156 23.5625 18.023438 C 23.410156 18.410156 20.992188 22.964844 20.609375 23.585938 L 20.34375 24.019531 L 20.332031 22.777344 C 20.324219 22.089844 20.296875 21.261719 20.269531 20.933594 C 20.222656 20.457031 20.210938 20.625 20.203125 21.78125 C 20.191406 23.246094 20.140625 23.972656 20.050781 23.972656 C 20.027344 23.972656 19.925781 23.824219 19.828125 23.644531 Z M 19.828125 23.644531 "/>
<path style=" stroke:none;fill-rule:nonzero;fill:rgb(87.058824%,100%,100%);fill-opacity:1;" d="M 19.535156 23.097656 C 18.144531 20.546875 16.800781 17.902344 16.800781 17.722656 C 16.800781 17.496094 17.148438 17.402344 17.996094 17.402344 L 18.820312 17.402344 L 18.820312 10.25 L 19.042969 9.992188 C 19.230469 9.777344 19.335938 9.738281 19.722656 9.738281 L 20.183594 9.738281 L 20.214844 10.058594 L 20.242188 10.382812 L 20.253906 10.058594 C 20.261719 9.746094 20.277344 9.738281 20.570312 9.738281 C 21.019531 9.738281 21.40625 9.910156 21.503906 10.164062 C 21.566406 10.316406 21.601562 11.402344 21.621094 13.894531 L 21.652344 17.402344 L 22.3125 17.410156 C 23.203125 17.417969 23.613281 17.511719 23.644531 17.707031 C 23.652344 17.792969 23.371094 18.429688 23.015625 19.121094 C 22.0625 20.972656 20.511719 23.832031 20.417969 23.914062 C 20.359375 23.964844 20.335938 23.683594 20.328125 22.957031 C 20.324219 22.390625 20.296875 21.660156 20.269531 21.332031 C 20.222656 20.835938 20.210938 20.957031 20.203125 22.042969 C 20.191406 23.347656 20.144531 23.972656 20.054688 23.972656 C 20.027344 23.972656 19.792969 23.578125 19.535156 23.097656 Z M 19.535156 23.097656 "/>
<path style=" stroke:none;fill-rule:nonzero;fill:rgb(87.058824%,100%,100%);fill-opacity:1;" d="M 19.417969 22.902344 C 18.496094 21.199219 16.933594 18.167969 16.851562 17.917969 C 16.71875 17.523438 16.867188 17.453125 17.886719 17.417969 L 18.820312 17.382812 L 18.820312 10.25 L 19.042969 9.992188 C 19.230469 9.773438 19.335938 9.734375 19.722656 9.734375 C 20.144531 9.734375 20.183594 9.753906 20.214844 9.957031 L 20.246094 10.183594 L 20.253906 9.957031 C 20.261719 9.761719 20.304688 9.734375 20.574219 9.734375 C 21.019531 9.738281 21.40625 9.910156 21.507812 10.160156 C 21.570312 10.320312 21.605469 11.375 21.625 13.878906 L 21.652344 17.371094 L 22.585938 17.417969 C 23.589844 17.46875 23.734375 17.539062 23.605469 17.917969 C 23.46875 18.335938 20.65625 23.628906 20.445312 23.871094 C 20.351562 23.980469 20.335938 23.882812 20.332031 23.113281 C 20.324219 22.625 20.296875 21.957031 20.269531 21.628906 C 20.222656 21.121094 20.214844 21.214844 20.203125 22.277344 C 20.191406 23.519531 20.152344 23.96875 20.050781 23.96875 C 20.023438 23.96875 19.738281 23.488281 19.417969 22.898438 Z M 19.417969 22.902344 "/>
<path style=" stroke:none;fill-rule:nonzero;fill:rgb(87.058824%,100%,100%);fill-opacity:1;" d="M 20.199219 23.578125 C 20.195312 23.265625 20.214844 23.167969 20.269531 23.238281 C 20.324219 23.3125 20.324219 23.453125 20.277344 23.683594 L 20.207031 24.019531 Z M 20.199219 23.578125 "/>
<path style=" stroke:none;fill-rule:nonzero;fill:rgb(87.058824%,100%,100%);fill-opacity:1;" d="M 19.417969 22.902344 C 18.464844 21.136719 16.929688 18.164062 16.847656 17.921875 C 16.71875 17.527344 16.867188 17.453125 17.886719 17.417969 L 18.820312 17.386719 L 18.820312 10.25 L 19.042969 9.992188 C 19.230469 9.777344 19.335938 9.734375 19.722656 9.734375 C 20.097656 9.734375 20.1875 9.769531 20.214844 9.910156 C 20.246094 10.074219 20.246094 10.074219 20.253906 9.910156 C 20.261719 9.769531 20.332031 9.734375 20.613281 9.734375 C 21.0625 9.734375 21.402344 9.898438 21.507812 10.167969 C 21.570312 10.316406 21.605469 11.433594 21.621094 13.890625 L 21.652344 17.402344 L 22.285156 17.402344 C 23.113281 17.402344 23.589844 17.496094 23.636719 17.671875 C 23.660156 17.746094 23.492188 18.191406 23.261719 18.652344 C 22.703125 19.789062 20.519531 23.824219 20.417969 23.910156 C 20.363281 23.960938 20.335938 23.769531 20.328125 23.253906 C 20.324219 22.855469 20.296875 22.257812 20.269531 21.929688 C 20.21875 21.390625 20.214844 21.4375 20.203125 22.425781 C 20.191406 23.53125 20.148438 23.972656 20.050781 23.972656 C 20.023438 23.972656 19.738281 23.488281 19.417969 22.902344 Z M 19.417969 22.902344 "/>
<path style=" stroke:none;fill-rule:nonzero;fill:rgb(87.058824%,100%,100%);fill-opacity:1;" d="M 19.230469 22.550781 C 18.125 20.496094 17.039062 18.394531 16.894531 18.023438 C 16.695312 17.519531 16.800781 17.457031 17.886719 17.417969 L 18.820312 17.386719 L 18.820312 10.25 L 19.042969 9.992188 C 19.230469 9.777344 19.335938 9.734375 19.722656 9.734375 C 20.019531 9.734375 20.191406 9.777344 20.214844 9.859375 C 20.246094 9.957031 20.253906 9.957031 20.257812 9.859375 C 20.265625 9.703125 20.875 9.691406 21.191406 9.847656 C 21.320312 9.90625 21.460938 10.050781 21.507812 10.167969 C 21.570312 10.316406 21.605469 11.441406 21.632812 13.867188 L 21.671875 17.351562 L 22.582031 17.410156 C 23.085938 17.445312 23.53125 17.503906 23.574219 17.542969 C 23.722656 17.664062 23.667969 17.851562 23.214844 18.753906 C 22.578125 20.019531 20.511719 23.832031 20.417969 23.914062 C 20.363281 23.960938 20.335938 23.789062 20.332031 23.355469 C 20.328125 23.007812 20.300781 22.503906 20.269531 22.230469 C 20.214844 21.777344 20.210938 21.8125 20.199219 22.628906 C 20.191406 23.554688 20.144531 23.972656 20.050781 23.972656 C 20.019531 23.972656 19.652344 23.332031 19.230469 22.550781 Z M 19.230469 22.550781 "/>
<path style=" stroke:none;fill-rule:nonzero;fill:rgb(87.058824%,100%,100%);fill-opacity:1;" d="M 20.769531 20.792969 C 20.800781 21.046875 20.8125 21.300781 20.824219 21.558594 C 20.832031 21.792969 20.839844 22.027344 20.828125 22.261719 C 20.8125 22.476562 20.785156 22.6875 20.746094 22.894531 C 20.726562 23.011719 20.734375 22.953125 20.71875 23.070312 C 20.71875 23.070312 19.761719 23.714844 19.761719 23.714844 C 19.777344 23.589844 19.769531 23.652344 19.785156 23.527344 C 19.824219 23.324219 19.871094 23.125 19.878906 22.910156 C 19.910156 22.683594 19.886719 22.453125 19.886719 22.222656 C 19.878906 21.980469 19.871094 21.734375 19.828125 21.496094 C 19.828125 21.496094 20.769531 20.792969 20.769531 20.792969 Z M 20.769531 20.792969 "/>
<path style=" stroke:none;fill-rule:nonzero;fill:rgb(87.058824%,100%,100%);fill-opacity:1;" d="M 20.363281 23.125 C 20.378906 23.207031 20.394531 23.289062 20.417969 23.371094 C 20.433594 23.429688 20.445312 23.492188 20.449219 23.558594 C 20.457031 23.621094 20.46875 23.683594 20.488281 23.738281 C 20.496094 23.753906 20.519531 23.828125 20.535156 23.832031 C 20.539062 23.832031 20.539062 23.824219 20.539062 23.824219 C 20.539062 23.824219 20.246094 24.097656 20.246094 24.097656 C 20.21875 24.066406 20.199219 24.019531 20.179688 23.976562 C 20.160156 23.914062 20.144531 23.847656 20.136719 23.78125 C 20.132812 23.722656 20.128906 23.660156 20.109375 23.605469 C 20.089844 23.523438 20.074219 23.4375 20.050781 23.355469 C 20.050781 23.355469 20.363281 23.125 20.363281 23.125 Z M 20.363281 23.125 "/>
<path style=" stroke:none;fill-rule:nonzero;fill:rgb(87.058824%,100%,100%);fill-opacity:1;" d="M 20.203125 10.277344 C 20.148438 10.230469 20.097656 10.175781 20.039062 10.136719 C 19.996094 10.125 19.953125 10.117188 19.910156 10.089844 C 19.875 10.058594 19.851562 10.011719 19.871094 9.953125 C 19.972656 9.871094 20.078125 9.785156 20.183594 9.703125 C 20.183594 9.703125 19.902344 10.003906 19.902344 10.003906 C 20 9.925781 20.097656 9.84375 20.195312 9.765625 C 20.160156 9.777344 20.179688 9.804688 20.203125 9.820312 C 20.246094 9.839844 20.292969 9.84375 20.332031 9.871094 C 20.386719 9.917969 20.4375 9.972656 20.496094 10.011719 C 20.496094 10.011719 20.203125 10.277344 20.203125 10.277344 Z M 20.203125 10.277344 "/>
<path style=" stroke:none;fill-rule:nonzero;fill:rgb(87.058824%,100%,100%);fill-opacity:1;" d="M 20.203125 10.097656 C 20.144531 10.070312 20.085938 10.058594 20.027344 10.03125 C 19.988281 10.011719 19.960938 10.023438 19.921875 10.046875 C 20.019531 9.972656 20.113281 9.894531 20.210938 9.820312 C 20.210938 9.820312 19.882812 9.996094 19.882812 9.996094 C 19.988281 9.914062 20.09375 9.832031 20.199219 9.746094 C 20.238281 9.734375 20.28125 9.738281 20.320312 9.761719 C 20.375 9.785156 20.433594 9.800781 20.488281 9.816406 C 20.488281 9.816406 20.203125 10.097656 20.203125 10.097656 Z M 20.203125 10.097656 "/>
<path style=" stroke:none;fill-rule:nonzero;fill:rgb(96.078431%,96.078431%,96.078431%);fill-opacity:1;" d="M 12.445312 7.472656 C 12.011719 8.121094 9.351562 13.355469 9.351562 13.558594 C 9.351562 13.738281 9.648438 13.855469 10.113281 13.855469 C 10.378906 13.855469 10.769531 13.882812 10.972656 13.917969 L 11.347656 13.980469 L 11.347656 21.054688 L 11.566406 21.347656 L 11.785156 21.644531 L 12.722656 21.640625 C 13.738281 21.636719 13.941406 21.558594 14.058594 21.132812 C 14.09375 20.996094 14.144531 19.332031 14.171875 17.429688 L 14.222656 13.980469 L 14.644531 13.917969 C 14.878906 13.878906 15.238281 13.847656 15.4375 13.84375 C 15.871094 13.832031 16.136719 13.738281 16.171875 13.585938 C 16.207031 13.433594 15.628906 12.253906 14.1875 9.515625 C 13.128906 7.511719 12.886719 7.117188 12.722656 7.117188 C 12.699219 7.117188 12.574219 7.277344 12.445312 7.472656 Z M 12.445312 7.472656 "/>
</g>
</svg>
