
<svg xmlns="http://www.w3.org/2000/svg" xmlns:xlink="http://www.w3.org/1999/xlink" width="32px" height="32px" viewBox="0 0 32 32" version="1.1">
<defs>
<linearGradient id="linear0" gradientUnits="userSpaceOnUse" x1="0" y1="12" x2="0" y2="32" gradientTransform="matrix(0.418534,0,0,0.45341,5.760524,2.384147)">
<stop offset="0" style="stop-color:rgb(58.431373%,34.901961%,71.372549%);stop-opacity:1;"/>
<stop offset="1" style="stop-color:rgb(55.686275%,26.666667%,67.843137%);stop-opacity:1;"/>
</linearGradient>
<linearGradient id="linear1" gradientUnits="userSpaceOnUse" x1="0" y1="519.8" x2="0" y2="543.8" gradientTransform="matrix(0.418534,0,0,0.418534,-155.195,-203.93625)">
<stop offset="0" style="stop-color:rgb(93.72549%,94.117647%,94.509804%);stop-opacity:1;"/>
<stop offset="1" style="stop-color:rgb(74.117647%,76.470588%,78.039216%);stop-opacity:1;"/>
</linearGradient>
<linearGradient id="linear2" gradientUnits="userSpaceOnUse" x1="408.57" y1="536.8" x2="413.57" y2="541.8" gradientTransform="matrix(0.418534,0,0,0.418534,-155.195,-203.93625)">
<stop offset="0" style="stop-color:rgb(16.078431%,17.254902%,18.431373%);stop-opacity:0.2;"/>
<stop offset="1" style="stop-color:rgb(0%,0%,0%);stop-opacity:0;"/>
</linearGradient>
<linearGradient id="linear3" gradientUnits="userSpaceOnUse" x1="394.57" y1="536.8" x2="399.57" y2="541.8" gradientTransform="matrix(0.418534,0,0,0.418534,-155.195,-203.93625)">
<stop offset="0" style="stop-color:rgb(16.078431%,17.254902%,18.431373%);stop-opacity:0.2;"/>
<stop offset="1" style="stop-color:rgb(0%,0%,0%);stop-opacity:0;"/>
</linearGradient>
<linearGradient id="linear4" gradientUnits="userSpaceOnUse" x1="396.57" y1="509.8" x2="419.57" y2="533.8" gradientTransform="matrix(0.418534,0,0,0.418534,-155.195,-203.93625)">
<stop offset="0" style="stop-color:rgb(16.078431%,17.254902%,18.431373%);stop-opacity:0.2;"/>
<stop offset="1" style="stop-color:rgb(0%,0%,0%);stop-opacity:0;"/>
</linearGradient>
</defs>
<g id="surface1">
<path style=" stroke:none;fill-rule:nonzero;fill:rgb(90.196078%,90.196078%,98.039216%);fill-opacity:1;" d="M 4.042969 27.183594 C -14.257812 -0.988281 35.730469 -11.886719 31.75 17.09375 C 30.125 28.910156 11.046875 37.960938 4.042969 27.183594 Z M 4.042969 27.183594 "/>
<path style=" stroke:none;fill-rule:nonzero;fill:url(#linear0);" d="M 9.109375 6.921875 L 22.503906 6.921875 L 22.503906 17.800781 L 9.109375 17.800781 Z M 9.109375 6.921875 "/>
<path style=" stroke:none;fill-rule:nonzero;fill:rgb(13.72549%,14.901961%,16.078431%);fill-opacity:0.2;" d="M 15.804688 19.476562 C 15.109375 19.476562 14.550781 20.035156 14.550781 20.730469 C 14.550781 21.425781 15.109375 21.988281 15.804688 21.988281 C 16.351562 21.988281 16.808594 21.636719 16.980469 21.152344 L 20.488281 21.152344 C 20.660156 21.636719 21.121094 21.988281 21.664062 21.988281 C 22.363281 21.988281 22.921875 21.425781 22.921875 20.730469 C 22.921875 20.035156 22.363281 19.476562 21.664062 19.476562 C 21.121094 19.476562 20.660156 19.828125 20.488281 20.316406 L 16.980469 20.316406 C 16.808594 19.828125 16.351562 19.476562 15.804688 19.476562 Z M 15.804688 19.476562 "/>
<path style=" stroke:none;fill-rule:nonzero;fill:url(#linear1);" d="M 7.433594 17.800781 L 7.433594 23.660156 L 24.175781 23.660156 L 24.175781 17.800781 Z M 7.433594 17.800781 "/>
<path style=" stroke:none;fill-rule:nonzero;fill:url(#linear2);" d="M 15.011719 21.707031 L 17.003906 23.660156 L 20.410156 23.660156 L 16.585938 19.714844 Z M 15.011719 21.707031 "/>
<path style=" stroke:none;fill-rule:nonzero;fill:rgb(30.196078%,30.196078%,30.196078%);fill-opacity:0.780392;" d="M 16.980469 21.152344 L 20.488281 21.152344 C 20.660156 21.636719 21.117188 21.988281 21.664062 21.988281 C 22.359375 21.988281 22.917969 21.425781 22.917969 20.730469 C 22.917969 20.035156 22.359375 19.476562 21.664062 19.476562 C 21.117188 19.476562 20.660156 19.828125 20.488281 20.316406 L 16.980469 20.316406 C 17.058594 20.730469 17.058594 20.730469 16.980469 21.152344 Z M 16.980469 21.152344 "/>
<path style=" stroke:none;fill-rule:nonzero;fill:url(#linear3);" d="M 9.109375 21.707031 L 11.042969 23.660156 L 16.644531 23.660156 L 14.605469 20.757812 L 11.621094 20.730469 L 10.683594 19.714844 Z M 9.109375 21.707031 "/>
<path style=" stroke:none;fill-rule:nonzero;fill:rgb(11.372549%,60%,95.294118%);fill-opacity:1;" d="M 9.945312 19.476562 C 9.25 19.476562 8.691406 20.035156 8.691406 20.730469 C 8.691406 21.425781 9.25 21.988281 9.945312 21.988281 C 10.492188 21.988281 10.949219 21.636719 11.121094 21.152344 L 14.628906 21.152344 C 14.800781 21.636719 15.261719 21.988281 15.804688 21.988281 C 16.503906 21.988281 17.0625 21.425781 17.0625 20.730469 C 17.0625 20.035156 16.503906 19.476562 15.804688 19.476562 C 15.261719 19.476562 14.800781 19.828125 14.628906 20.316406 L 11.121094 20.316406 C 10.949219 19.828125 10.492188 19.476562 9.945312 19.476562 Z M 9.945312 19.476562 "/>
<path style=" stroke:none;fill-rule:nonzero;fill:rgb(58.431373%,64.705882%,65.098039%);fill-opacity:1;" d="M 7.433594 23.246094 L 24.175781 23.246094 L 24.175781 23.660156 L 7.433594 23.660156 Z M 7.433594 23.246094 "/>
<path style=" stroke:none;fill-rule:nonzero;fill:rgb(93.72549%,94.117647%,94.509804%);fill-opacity:1;" d="M 7.433594 17.800781 L 24.175781 17.800781 L 24.175781 18.222656 L 7.433594 18.222656 Z M 7.433594 17.800781 "/>
<path style=" stroke:none;fill-rule:evenodd;fill:url(#linear4);" d="M 16.222656 11.105469 L 16.222656 11.527344 L 15.804688 15.292969 L 24.175781 23.246094 L 24.175781 17.386719 L 16.222656 9.433594 Z M 16.222656 11.105469 "/>
<path style=" stroke:none;fill-rule:nonzero;fill:rgb(98.823529%,98.823529%,98.823529%);fill-opacity:1;" d="M 15.386719 9.433594 L 15.386719 13.617188 L 13.503906 11.734375 L 12.875 12.363281 L 15.804688 15.292969 L 18.734375 12.363281 L 18.105469 11.734375 L 16.222656 13.617188 L 16.222656 9.433594 Z M 15.386719 9.433594 "/>
</g>
</svg>
