
<svg xmlns="http://www.w3.org/2000/svg" xmlns:xlink="http://www.w3.org/1999/xlink" width="32px" height="32px" viewBox="0 0 32 32" version="1.1">
<g id="surface1">
<path style=" stroke:none;fill-rule:nonzero;fill:rgb(69.019608%,76.862745%,87.058824%);fill-opacity:1;" d="M 12.371094 31.449219 C -17.363281 25.253906 14.558594 -17.347656 29.667969 8.246094 C 36.148438 18.1875 27.660156 34.632812 12.371094 31.449219 Z M 12.371094 31.449219 "/>
<path style=" stroke:none;fill-rule:nonzero;fill:rgb(100%,100%,100%);fill-opacity:1;" d="M 20.894531 7.710938 C 22.277344 7.710938 23.394531 8.996094 23.394531 10.585938 C 23.394531 12.175781 22.277344 13.464844 20.894531 13.464844 C 19.511719 13.464844 18.394531 12.175781 18.394531 10.585938 C 18.394531 8.996094 19.511719 7.710938 20.894531 7.710938 M 21.59375 14.304688 C 23.773438 14.304688 25.527344 16.324219 25.527344 18.828125 C 25.527344 21.335938 23.773438 23.359375 21.59375 23.359375 L 20.191406 23.359375 C 18.011719 23.359375 16.257812 21.335938 16.257812 18.828125 C 16.257812 16.324219 18.011719 14.304688 20.191406 14.304688 L 21.59375 14.304688 "/>
<path style=" stroke:none;fill-rule:nonzero;fill:rgb(100%,100%,100%);fill-opacity:1;" d="M 10.804688 10.574219 C 12.050781 10.574219 13.058594 11.699219 13.058594 13.089844 C 13.058594 14.480469 12.050781 15.609375 10.804688 15.609375 C 9.558594 15.609375 8.550781 14.480469 8.550781 13.089844 C 8.550781 11.699219 9.558594 10.574219 10.804688 10.574219 M 11.4375 16.34375 C 13.402344 16.34375 14.980469 18.109375 14.980469 20.304688 C 14.980469 22.5 13.402344 24.269531 11.4375 24.269531 L 10.171875 24.269531 C 8.207031 24.269531 6.625 22.5 6.625 20.304688 C 6.625 18.109375 8.207031 16.34375 10.171875 16.34375 L 11.4375 16.34375 "/>
</g>
</svg>
