
<svg xmlns="http://www.w3.org/2000/svg" xmlns:xlink="http://www.w3.org/1999/xlink" width="32px" height="32px" viewBox="0 0 32 32" version="1.1">
<g id="surface1">
<path style=" stroke:none;fill-rule:nonzero;fill:rgb(18.431373%,30.980392%,30.980392%);fill-opacity:1;" d="M 29.300781 24.246094 C 37.660156 10.890625 23.976562 -2.386719 10.5625 0.675781 C -3.886719 4.082031 -2.691406 25.15625 9.886719 30.359375 C 16.144531 33.980469 24.707031 30.839844 29.300781 24.246094 Z M 29.300781 24.246094 "/>
<path style=" stroke:none;fill-rule:nonzero;fill:rgb(100%,100%,100%);fill-opacity:1;" d="M 15.835938 29.617188 C 15.550781 29.539062 15.339844 29.308594 15.273438 28.996094 C 15.191406 28.597656 14.984375 28.605469 14.582031 29.011719 L 14.261719 29.335938 L 13.542969 29.246094 C 12.621094 29.132812 11.769531 28.910156 10.90625 28.566406 C 10.207031 28.285156 9.886719 28.175781 9.398438 28.050781 C 9.058594 27.957031 8.496094 27.605469 7.824219 27.050781 C 6.898438 26.296875 6.496094 25.75 6.488281 25.234375 C 6.488281 24.910156 6.316406 24.742188 6.003906 24.742188 C 5.753906 24.742188 5.707031 24.710938 5.410156 24.339844 C 4.796875 23.585938 4.421875 22.996094 3.917969 22.003906 C 3.300781 20.800781 3.195312 20.488281 2.964844 19.277344 C 2.738281 18.082031 2.738281 17.59375 2.960938 16.753906 C 3.105469 16.207031 3.128906 16.007812 3.089844 15.613281 C 3.035156 15.050781 3.144531 14.664062 3.488281 14.148438 C 3.675781 13.871094 3.707031 13.765625 3.707031 13.390625 C 3.714844 12.980469 3.699219 12.941406 3.457031 12.683594 C 3.316406 12.53125 3.199219 12.386719 3.199219 12.355469 C 3.199219 12.167969 3.738281 11.761719 3.878906 11.84375 C 4.003906 11.917969 4.183594 11.605469 4.1875 11.308594 C 4.191406 11.027344 4.175781 10.996094 3.988281 10.9375 C 3.871094 10.902344 3.773438 10.867188 3.761719 10.855469 C 3.714844 10.824219 4.050781 10.113281 4.464844 9.363281 C 4.957031 8.476562 5.214844 8.1875 5.519531 8.1875 C 5.621094 8.1875 5.878906 8.105469 6.082031 8.003906 C 6.496094 7.804688 6.480469 7.847656 6.378906 7.015625 C 6.339844 6.652344 6.347656 6.605469 6.449219 6.605469 C 6.511719 6.605469 6.65625 6.558594 6.769531 6.5 C 7.023438 6.375 7.171875 6.464844 7.171875 6.738281 C 7.171875 7.144531 7.730469 7.265625 8.027344 6.925781 C 8.304688 6.605469 8.382812 6.410156 8.433594 5.910156 C 8.472656 5.535156 8.527344 5.378906 8.726562 5.085938 C 9.09375 4.542969 9.214844 4.4375 9.777344 4.167969 C 10.726562 3.707031 11.207031 3.550781 11.554688 3.589844 C 11.726562 3.609375 11.929688 3.644531 12.007812 3.667969 C 12.113281 3.699219 12.246094 3.636719 12.523438 3.417969 C 13.253906 2.847656 13.886719 2.683594 14.214844 2.980469 L 14.367188 3.113281 L 14.230469 3.371094 C 14.152344 3.515625 14.09375 3.675781 14.09375 3.730469 C 14.09375 3.867188 14.328125 3.917969 14.734375 3.871094 C 15.214844 3.8125 15.394531 3.667969 15.472656 3.277344 C 15.550781 2.867188 15.613281 2.800781 16.03125 2.679688 C 16.496094 2.546875 16.777344 2.554688 17.386719 2.714844 C 17.667969 2.785156 18.136719 2.863281 18.425781 2.886719 C 18.949219 2.929688 18.957031 2.933594 18.957031 3.113281 C 18.957031 3.347656 19.050781 3.371094 19.472656 3.261719 C 19.9375 3.144531 20.300781 3.152344 20.699219 3.289062 C 20.972656 3.382812 21.199219 3.566406 21.894531 4.246094 C 22.386719 4.730469 23.023438 5.273438 23.390625 5.523438 C 24.085938 5.996094 24.539062 6.441406 24.695312 6.800781 C 24.75 6.929688 25.113281 7.34375 25.5 7.722656 C 26.28125 8.496094 26.445312 8.738281 26.414062 9.097656 C 26.394531 9.339844 26.390625 9.339844 26.101562 9.316406 C 25.8125 9.300781 25.808594 9.300781 25.8125 9.519531 C 25.8125 9.636719 25.855469 9.855469 25.910156 10 C 26.042969 10.347656 26.042969 11.117188 25.914062 11.523438 C 25.777344 11.949219 25.785156 12.050781 25.949219 12.210938 C 26.140625 12.394531 26.230469 12.378906 26.542969 12.082031 C 26.816406 11.824219 27.289062 11.632812 27.480469 11.703125 C 27.613281 11.75 27.878906 12.253906 28.035156 12.738281 C 28.128906 13.019531 28.160156 13.449219 28.1875 14.683594 C 28.226562 16.519531 28.214844 16.566406 27.757812 16.433594 C 27.609375 16.386719 27.378906 16.363281 27.25 16.375 L 27.011719 16.398438 L 27.023438 16.871094 C 27.039062 17.421875 27.128906 17.628906 27.589844 18.144531 C 28.082031 18.699219 28.160156 18.835938 28.105469 19.066406 C 28.050781 19.300781 27.761719 19.664062 27.628906 19.664062 C 27.515625 19.664062 26.910156 19.035156 26.441406 18.4375 C 25.917969 17.765625 25.707031 17.070312 25.566406 15.542969 C 25.367188 13.355469 24.921875 11.894531 23.992188 10.355469 C 22.574219 8.015625 21.777344 7.269531 19.542969 6.175781 C 17.675781 5.261719 16.597656 5.019531 14.882812 5.113281 C 13.359375 5.199219 11.433594 5.816406 10.121094 6.632812 C 8.980469 7.339844 7.253906 9.292969 6.457031 10.761719 C 5.535156 12.46875 5.039062 15.191406 5.378906 16.664062 C 5.578125 17.519531 5.785156 18.015625 5.941406 18.015625 C 6.027344 18.015625 6.074219 17.957031 6.089844 17.832031 C 6.136719 17.433594 6.429688 17.777344 6.628906 18.464844 C 6.847656 19.238281 6.96875 19.410156 7.5 19.722656 C 7.757812 19.871094 8.019531 19.996094 8.078125 19.996094 C 8.195312 19.996094 8.269531 19.863281 8.269531 19.660156 C 8.269531 19.578125 8.339844 19.503906 8.457031 19.464844 C 8.996094 19.277344 9.148438 19.050781 8.910156 18.796875 C 8.683594 18.554688 8.753906 18.191406 9.183594 17.398438 C 9.550781 16.714844 10.183594 15.875 10.488281 15.667969 C 10.566406 15.617188 10.757812 15.542969 10.90625 15.503906 C 11.207031 15.425781 11.421875 15.273438 11.421875 15.136719 C 11.421875 15.03125 11.324219 15.023438 11.144531 15.117188 C 11.070312 15.152344 11.011719 15.160156 11.011719 15.128906 C 11.011719 15.066406 11.402344 14.832031 11.59375 14.78125 C 11.675781 14.761719 11.738281 14.679688 11.75 14.574219 C 11.769531 14.414062 11.746094 14.398438 11.425781 14.355469 C 11.234375 14.332031 11.078125 14.277344 11.078125 14.238281 C 11.078125 14.195312 11.191406 14.050781 11.328125 13.917969 L 11.574219 13.671875 L 11.363281 13.339844 C 11.199219 13.082031 11.175781 13.003906 11.253906 13.003906 C 11.410156 13.003906 11.683594 13.292969 11.730469 13.507812 C 11.875 14.183594 12 14.285156 12.195312 13.894531 C 12.257812 13.769531 12.339844 13.660156 12.375 13.660156 C 12.496094 13.660156 12.652344 13.457031 12.652344 13.300781 C 12.652344 13.214844 12.726562 13.089844 12.816406 13.023438 C 12.902344 12.957031 13.007812 12.84375 13.046875 12.769531 C 13.144531 12.59375 13.175781 11.992188 13.105469 11.542969 C 13.070312 11.292969 13.078125 11.125 13.128906 11.03125 C 13.203125 10.898438 13.191406 10.894531 12.90625 10.894531 C 12.699219 10.894531 12.527344 10.839844 12.351562 10.726562 C 12.214844 10.636719 12.046875 10.5625 11.984375 10.5625 C 11.726562 10.5625 9.570312 12.332031 9.570312 12.542969 C 9.570312 12.714844 9.855469 12.871094 10.171875 12.871094 C 10.347656 12.871094 10.542969 12.902344 10.597656 12.941406 C 10.6875 12.996094 10.675781 13.027344 10.53125 13.144531 C 10.394531 13.253906 10.300781 13.273438 10.050781 13.246094 C 9.648438 13.199219 8.972656 12.949219 8.925781 12.824219 C 8.828125 12.582031 9.238281 12.007812 9.707031 11.730469 C 9.839844 11.652344 10.03125 11.511719 10.136719 11.410156 C 10.238281 11.3125 10.417969 11.214844 10.535156 11.1875 C 10.832031 11.125 11.285156 10.722656 11.285156 10.519531 C 11.285156 10.433594 11.238281 10.34375 11.183594 10.324219 C 11.128906 10.304688 10.707031 10.46875 10.242188 10.6875 C 9.777344 10.910156 9.183594 11.136719 8.917969 11.191406 C 8.65625 11.253906 8.132812 11.371094 7.761719 11.457031 C 7.089844 11.617188 6.90625 11.605469 6.984375 11.40625 C 7.003906 11.359375 7.183594 11.265625 7.386719 11.199219 C 7.589844 11.128906 7.941406 10.960938 8.167969 10.824219 C 8.394531 10.691406 8.792969 10.496094 9.058594 10.394531 C 9.882812 10.085938 10.175781 9.917969 10.351562 9.648438 C 10.585938 9.292969 10.734375 8.761719 10.734375 8.292969 C 10.734375 7.652344 10.863281 7.492188 11.574219 7.226562 C 11.902344 7.101562 12.519531 6.929688 12.953125 6.839844 C 13.804688 6.667969 13.882812 6.640625 14.417969 6.289062 C 14.617188 6.160156 14.796875 6.074219 14.820312 6.097656 C 14.886719 6.160156 14.792969 6.4375 14.636719 6.628906 C 14.425781 6.890625 14.164062 6.996094 13.292969 7.171875 C 12.15625 7.402344 11.707031 7.621094 11.414062 8.082031 C 11.285156 8.285156 11.242188 8.683594 11.335938 8.820312 C 11.441406 8.972656 11.714844 9.058594 11.976562 9.019531 C 12.300781 8.96875 12.339844 9.097656 12.058594 9.304688 C 11.960938 9.378906 11.894531 9.457031 11.917969 9.480469 C 11.96875 9.527344 12.789062 9.339844 12.871094 9.253906 C 12.976562 9.15625 12.875 9.042969 12.683594 9.042969 C 12.554688 9.042969 12.515625 9.011719 12.515625 8.894531 C 12.515625 8.4375 13.054688 7.59375 13.34375 7.59375 C 13.511719 7.59375 13.511719 7.746094 13.339844 8.386719 C 13.214844 8.847656 13.167969 9.175781 13.226562 9.175781 C 13.242188 9.175781 13.484375 9.105469 13.769531 9.015625 C 14.175781 8.886719 14.332031 8.867188 14.507812 8.914062 C 14.820312 9 15.050781 9.230469 15.050781 9.453125 C 15.050781 9.675781 15.050781 9.675781 14.691406 9.5 C 14.472656 9.390625 14.332031 9.367188 14.0625 9.394531 C 13.636719 9.433594 13.203125 9.625 13.203125 9.769531 C 13.203125 9.824219 13.386719 10.050781 13.617188 10.269531 C 13.847656 10.484375 14.09375 10.757812 14.171875 10.878906 L 14.308594 11.089844 L 14.164062 11.332031 C 14.019531 11.5625 14.019531 11.566406 14.152344 11.535156 C 14.324219 11.492188 14.417969 11.597656 14.710938 12.132812 C 14.960938 12.59375 15.425781 13.136719 15.566406 13.136719 C 15.617188 13.136719 15.75 13.058594 15.863281 12.96875 C 16.097656 12.777344 16.183594 12.761719 16.242188 12.90625 C 16.316406 13.085938 16.042969 13.265625 15.699219 13.265625 C 15.339844 13.265625 15.171875 13.199219 14.871094 12.921875 L 14.652344 12.722656 L 14.339844 13.003906 C 14.167969 13.152344 14.007812 13.339844 13.984375 13.421875 C 13.902344 13.667969 13.527344 14.070312 13.292969 14.167969 C 13.042969 14.265625 13.011719 14.355469 13.167969 14.519531 C 13.324219 14.683594 13.128906 14.902344 12.78125 14.957031 C 12.460938 15.003906 12.378906 15.128906 12.550781 15.3125 C 12.683594 15.449219 12.699219 15.433594 12.339844 15.542969 C 12.238281 15.574219 12.238281 15.589844 12.339844 15.738281 C 12.488281 15.957031 12.476562 16.074219 12.277344 16.488281 C 12.179688 16.683594 12.066406 17.050781 12.027344 17.300781 L 11.949219 17.753906 L 12.144531 17.957031 C 12.253906 18.066406 12.589844 18.277344 12.886719 18.421875 C 13.464844 18.703125 13.800781 18.742188 14.691406 18.636719 C 15.386719 18.550781 14.972656 18.949219 14.246094 19.066406 C 13.707031 19.152344 13.171875 19.078125 12.824219 18.871094 C 12.5625 18.714844 12.449219 18.707031 12.449219 18.832031 C 12.449219 18.984375 12.785156 19.328125 13.070312 19.46875 C 13.652344 19.753906 14.175781 19.589844 15.652344 18.660156 C 16.386719 18.199219 16.550781 18.121094 16.863281 18.09375 C 17.136719 18.074219 17.285156 18.097656 17.511719 18.207031 C 17.972656 18.433594 17.996094 18.398438 17.996094 17.503906 C 17.996094 16.644531 18.105469 15.980469 18.382812 15.175781 C 18.566406 14.644531 18.871094 14.152344 19.671875 13.101562 C 20.175781 12.4375 20.472656 11.839844 20.476562 11.480469 C 20.480469 11.082031 20.191406 10.710938 19.691406 10.46875 C 19.328125 10.292969 19.269531 10.285156 19.027344 10.355469 C 18.878906 10.398438 18.648438 10.53125 18.511719 10.652344 C 18.308594 10.839844 18.269531 10.917969 18.273438 11.164062 C 18.273438 11.324219 18.316406 11.59375 18.371094 11.765625 C 18.480469 12.113281 18.453125 12.277344 18.28125 12.277344 C 17.976562 12.273438 17.722656 11.84375 17.722656 11.332031 C 17.722656 10.660156 18.003906 10.28125 18.722656 10 C 19.175781 9.824219 19.230469 9.753906 19.054688 9.566406 C 18.863281 9.363281 18.996094 9.34375 19.3125 9.535156 C 19.472656 9.636719 19.777344 9.808594 19.984375 9.925781 C 20.699219 10.320312 21.039062 11.132812 20.882812 12.0625 C 20.785156 12.652344 20.617188 12.964844 20.039062 13.632812 C 19.355469 14.425781 19.027344 14.90625 18.980469 15.199219 C 18.945312 15.40625 18.957031 15.441406 19.066406 15.441406 C 19.136719 15.441406 19.410156 15.308594 19.667969 15.144531 C 19.929688 14.980469 20.207031 14.847656 20.285156 14.847656 C 20.460938 14.851562 20.679688 15.015625 20.84375 15.265625 C 20.957031 15.4375 20.957031 15.457031 20.847656 15.558594 C 20.742188 15.664062 20.71875 15.65625 20.496094 15.417969 C 20.292969 15.207031 20.222656 15.171875 20.066406 15.207031 C 19.796875 15.273438 19.46875 15.609375 19.296875 15.988281 C 19.027344 16.589844 19.050781 17.820312 19.332031 17.925781 C 19.386719 17.941406 19.566406 17.878906 19.738281 17.785156 C 20.015625 17.628906 20.15625 17.605469 21.144531 17.535156 C 21.746094 17.496094 22.269531 17.449219 22.300781 17.425781 C 22.332031 17.40625 22.339844 17.050781 22.308594 16.628906 C 22.269531 16.03125 22.214844 15.753906 22.050781 15.324219 C 21.601562 14.148438 21.617188 13.292969 22.09375 12.855469 C 22.507812 12.476562 22.710938 12.402344 22.886719 12.574219 C 23.035156 12.714844 22.957031 12.851562 22.683594 12.9375 C 22.167969 13.101562 22.027344 13.648438 22.339844 14.292969 C 22.691406 15.019531 23.128906 15.316406 23.800781 15.292969 C 24.066406 15.285156 24.25 15.308594 24.324219 15.367188 C 24.511719 15.519531 25.261719 16.710938 25.261719 16.863281 C 25.261719 16.941406 25.167969 17.167969 25.054688 17.371094 C 24.710938 17.980469 24.550781 17.925781 24.441406 17.171875 C 24.359375 16.628906 24.199219 16.191406 24.054688 16.140625 C 24 16.121094 23.730469 16.148438 23.460938 16.203125 C 22.667969 16.363281 22.40625 16.625 22.96875 16.695312 C 23.222656 16.726562 23.238281 16.738281 23.289062 17.027344 C 23.316406 17.1875 23.402344 17.460938 23.480469 17.632812 C 23.765625 18.277344 23.628906 19.203125 23.152344 19.863281 C 22.816406 20.332031 22.527344 20.425781 21.167969 20.527344 C 19.863281 20.628906 19.71875 20.691406 19.433594 21.292969 C 19.320312 21.535156 19.042969 21.949219 18.8125 22.214844 C 18.417969 22.675781 18.390625 22.824219 18.75 22.585938 C 18.886719 22.492188 19.105469 22.472656 20.183594 22.472656 C 21.410156 22.464844 21.472656 22.460938 21.839844 22.292969 C 22.074219 22.1875 22.316406 22.011719 22.453125 21.847656 C 22.714844 21.535156 22.792969 21.511719 22.792969 21.738281 C 22.792969 21.976562 22.359375 22.410156 21.90625 22.628906 C 21.699219 22.730469 21.230469 22.90625 20.863281 23.019531 C 20.496094 23.136719 20.171875 23.269531 20.136719 23.308594 C 20.097656 23.355469 20.03125 23.550781 19.980469 23.753906 C 19.816406 24.441406 19.691406 24.605469 18.957031 25.140625 C 18.785156 25.261719 18.449219 25.519531 18.214844 25.714844 C 17.972656 25.910156 17.742188 26.054688 17.699219 26.042969 C 17.566406 26 17.316406 25.597656 17.359375 25.492188 C 17.40625 25.371094 17.949219 25.105469 18.269531 25.039062 C 18.636719 24.96875 18.808594 24.832031 18.855469 24.582031 C 18.949219 24.105469 18.75 23.894531 17.96875 23.644531 C 17.183594 23.398438 17.066406 23.328125 16.863281 22.996094 L 16.6875 22.703125 L 16.136719 22.898438 C 15.835938 23.003906 15.492188 23.09375 15.371094 23.09375 C 15.253906 23.09375 15.019531 23.152344 14.855469 23.226562 C 14.300781 23.46875 13.738281 23.355469 13.292969 22.90625 C 13.136719 22.746094 12.972656 22.636719 12.933594 22.660156 C 12.894531 22.683594 12.824219 22.816406 12.785156 22.953125 C 12.710938 23.183594 12.726562 23.25 12.953125 23.734375 C 13.089844 24.027344 13.199219 24.292969 13.199219 24.328125 C 13.199219 24.582031 12.101562 25.21875 11.511719 25.308594 C 11.246094 25.347656 11.226562 25.339844 11.257812 25.222656 C 11.285156 25.121094 11.230469 25.054688 11.050781 24.949219 C 10.914062 24.875 10.800781 24.785156 10.800781 24.746094 C 10.800781 24.714844 10.742188 24.664062 10.667969 24.644531 C 10.386719 24.558594 10.542969 24.496094 11.144531 24.457031 C 11.835938 24.410156 11.988281 24.34375 12.140625 24.035156 C 12.238281 23.835938 12.238281 23.785156 12.101562 23.363281 C 11.96875 22.9375 11.964844 22.890625 12.066406 22.707031 C 12.292969 22.285156 12.144531 22.246094 11.789062 22.628906 C 11.488281 22.953125 11.351562 22.957031 10.910156 22.667969 C 9.988281 22.058594 9.496094 21.519531 9.027344 20.605469 C 8.691406 19.957031 8.574219 19.976562 8.691406 20.667969 C 8.777344 21.183594 8.730469 21.441406 8.542969 21.441406 C 8.390625 21.441406 7.308594 20.480469 7.105469 20.160156 C 7.027344 20.039062 6.890625 19.921875 6.800781 19.902344 C 6.6875 19.871094 6.605469 19.785156 6.550781 19.625 C 6.457031 19.351562 6.105469 18.9375 5.964844 18.9375 C 5.898438 18.9375 5.871094 19.019531 5.871094 19.199219 C 5.871094 19.394531 5.839844 19.464844 5.765625 19.464844 C 5.578125 19.464844 5.585938 19.628906 5.804688 20.226562 C 6.542969 22.242188 7.800781 23.753906 9.820312 25.035156 C 10.792969 25.65625 12.523438 26.394531 13.785156 26.722656 C 14.867188 27.003906 16.695312 26.941406 17.769531 26.582031 C 17.988281 26.511719 18.433594 26.390625 18.753906 26.316406 C 19.386719 26.175781 19.964844 25.941406 20.292969 25.703125 C 20.40625 25.621094 20.726562 25.441406 21.003906 25.308594 C 21.386719 25.121094 21.695312 24.886719 22.28125 24.339844 C 22.910156 23.753906 23.09375 23.621094 23.257812 23.621094 C 23.378906 23.621094 23.566406 23.539062 23.726562 23.414062 C 24.136719 23.097656 24.722656 22.839844 25.183594 22.769531 C 25.503906 22.71875 25.722656 22.628906 26.070312 22.402344 C 26.328125 22.238281 26.585938 22.101562 26.648438 22.101562 C 26.933594 22.101562 26.847656 22.597656 26.457031 23.222656 C 26.332031 23.425781 26.035156 23.972656 25.800781 24.441406 C 25.328125 25.378906 25.144531 25.589844 24.011719 26.511719 L 23.414062 26.996094 L 23.121094 26.890625 C 22.960938 26.832031 22.675781 26.753906 22.488281 26.714844 C 22.292969 26.675781 22.066406 26.574219 21.964844 26.480469 C 21.8125 26.339844 21.730469 26.320312 21.417969 26.335938 C 21.089844 26.355469 21.039062 26.378906 20.953125 26.546875 C 20.902344 26.652344 20.84375 26.980469 20.828125 27.273438 C 20.800781 27.71875 20.816406 27.863281 20.941406 28.128906 C 21.074219 28.433594 21.078125 28.460938 20.972656 28.574219 C 20.824219 28.734375 20.015625 29.027344 18.910156 29.332031 L 18.015625 29.574219 L 17.761719 29.300781 C 17.613281 29.144531 17.441406 29.027344 17.355469 29.027344 C 17.277344 29.027344 17.011719 29.160156 16.765625 29.316406 C 16.25 29.652344 16.121094 29.695312 15.835938 29.617188 Z M 18.003906 22.363281 C 18.160156 22.21875 18.40625 22.042969 18.550781 21.972656 C 18.941406 21.777344 19.25 21.3125 18.988281 21.3125 C 18.824219 21.3125 17.730469 21.871094 17.453125 22.09375 C 17.21875 22.28125 17.214844 22.285156 17.335938 22.457031 C 17.5 22.699219 17.667969 22.675781 18.003906 22.363281 Z M 13.378906 22.207031 C 13.464844 22 13.136719 21.621094 12.429688 21.097656 C 12.292969 21 12.109375 20.761719 12.011719 20.5625 C 11.839844 20.222656 11.683594 20.082031 11.550781 20.160156 C 11.417969 20.242188 11.503906 20.457031 11.886719 20.988281 C 12.226562 21.457031 12.332031 21.558594 12.585938 21.644531 C 12.839844 21.730469 12.894531 21.78125 12.980469 22.019531 C 13.050781 22.222656 13.113281 22.300781 13.210938 22.300781 C 13.285156 22.300781 13.359375 22.261719 13.378906 22.207031 Z M 15.050781 22.234375 C 15.050781 22.15625 14.859375 22.070312 14.800781 22.125 C 14.742188 22.183594 14.84375 22.300781 14.953125 22.300781 C 15.007812 22.300781 15.050781 22.269531 15.050781 22.234375 Z M 16.683594 21.066406 C 16.65625 20.925781 16.355469 20.863281 16.355469 21 C 16.355469 21.128906 16.417969 21.179688 16.574219 21.179688 C 16.664062 21.179688 16.699219 21.144531 16.683594 21.066406 Z M 17.449219 20.636719 C 17.449219 20.464844 17.492188 20.394531 17.65625 20.300781 C 17.886719 20.167969 17.894531 20.128906 17.777344 19.816406 C 17.675781 19.535156 17.605469 19.542969 17.480469 19.832031 C 17.339844 20.148438 17.207031 20.179688 16.964844 19.957031 C 16.855469 19.855469 16.746094 19.792969 16.71875 19.816406 C 16.636719 19.894531 16.824219 20.347656 17.042969 20.605469 C 17.308594 20.917969 17.449219 20.925781 17.449219 20.636719 Z M 14.199219 20.617188 C 14.421875 20.5625 14.777344 20.417969 14.980469 20.296875 C 15.191406 20.175781 15.480469 20.039062 15.632812 19.992188 C 15.78125 19.945312 15.996094 19.855469 16.113281 19.785156 C 16.226562 19.71875 16.433594 19.664062 16.574219 19.664062 C 16.753906 19.664062 16.847656 19.628906 16.898438 19.535156 C 16.988281 19.371094 16.988281 19.269531 16.894531 19.269531 C 16.855469 19.269531 16.714844 19.222656 16.59375 19.164062 C 16.378906 19.066406 16.347656 19.070312 16.101562 19.191406 C 15.957031 19.261719 15.660156 19.460938 15.449219 19.628906 C 15.175781 19.847656 14.8125 20.035156 14.253906 20.25 C 13.8125 20.421875 13.4375 20.597656 13.421875 20.640625 C 13.386719 20.75 13.703125 20.738281 14.199219 20.617188 Z M 16.410156 20.339844 C 16.425781 20.230469 16.394531 20.191406 16.296875 20.191406 C 16.15625 20.191406 16.050781 20.355469 16.121094 20.464844 C 16.191406 20.574219 16.386719 20.492188 16.410156 20.339844 Z M 18.769531 20.171875 C 18.839844 19.996094 18.730469 19.722656 18.472656 19.449219 C 18.300781 19.269531 18.207031 19.207031 18.207031 19.273438 C 18.203125 19.378906 18.433594 20.070312 18.511719 20.191406 C 18.574219 20.285156 18.730469 20.273438 18.769531 20.171875 Z M 20.132812 19.421875 C 20.253906 19.316406 20.308594 19.070312 20.210938 19.070312 C 20.183594 19.070312 20.09375 19.136719 20.003906 19.214844 C 19.730469 19.464844 19.855469 19.667969 20.132812 19.421875 Z M 17.683594 19.136719 C 18.03125 19.011719 17.640625 18.753906 17.25 18.851562 C 17.066406 18.898438 17.097656 19.011719 17.316406 19.121094 C 17.519531 19.214844 17.472656 19.214844 17.683594 19.136719 Z M 20.804688 18.949219 C 20.804688 18.855469 20.773438 18.730469 20.738281 18.675781 C 20.675781 18.585938 20.660156 18.585938 20.601562 18.675781 C 20.515625 18.800781 20.515625 18.917969 20.605469 19.074219 C 20.699219 19.246094 20.808594 19.175781 20.804688 18.949219 Z M 6.074219 18.644531 C 6.132812 18.574219 6.136719 18.515625 6.078125 18.414062 C 5.921875 18.132812 5.71875 18.324219 5.84375 18.636719 C 5.894531 18.765625 5.964844 18.769531 6.074219 18.644531 Z M 10.765625 18.496094 C 10.789062 18.433594 10.761719 18.34375 10.703125 18.285156 C 10.609375 18.195312 10.589844 18.195312 10.492188 18.285156 C 10.363281 18.410156 10.429688 18.609375 10.597656 18.609375 C 10.664062 18.609375 10.738281 18.558594 10.761719 18.496094 Z M 20.960938 18.144531 C 21.105469 18.105469 21.21875 18.046875 21.21875 18.011719 C 21.21875 17.84375 20.488281 17.863281 20.335938 18.039062 C 20.183594 18.21875 20.488281 18.269531 20.960938 18.144531 Z M 10.242188 16.933594 C 10.34375 16.886719 10.585938 16.808594 10.777344 16.765625 C 10.992188 16.71875 11.195312 16.621094 11.292969 16.519531 L 11.457031 16.347656 L 11.011719 16.394531 C 10.363281 16.457031 10.070312 16.546875 9.949219 16.714844 C 9.734375 17.007812 9.875 17.113281 10.242188 16.933594 Z M 13.542969 13.660156 C 13.542969 13.578125 13.5 13.53125 13.417969 13.53125 C 13.246094 13.53125 13.191406 13.601562 13.28125 13.707031 C 13.394531 13.835938 13.542969 13.8125 13.542969 13.660156 Z M 10.824219 9.863281 C 10.886719 9.800781 10.796875 9.636719 10.699219 9.636719 C 10.582031 9.636719 10.507812 9.75 10.566406 9.835938 C 10.613281 9.910156 10.757812 9.925781 10.824219 9.863281 Z M 13.035156 8.578125 C 13.09375 8.464844 13.128906 8.269531 13.117188 8.136719 L 13.09375 7.890625 L 12.941406 8.1875 C 12.699219 8.667969 12.785156 9.042969 13.035156 8.578125 Z M 12.972656 4.253906 C 13.035156 4.105469 12.910156 3.9375 12.730469 3.910156 C 12.574219 3.890625 12.105469 4.183594 12.105469 4.300781 C 12.105469 4.332031 12.292969 4.363281 12.519531 4.363281 C 12.839844 4.363281 12.941406 4.339844 12.972656 4.253906 Z M 12.972656 4.253906 "/>
</g>
</svg>
