
<svg xmlns="http://www.w3.org/2000/svg" xmlns:xlink="http://www.w3.org/1999/xlink" width="32px" height="32px" viewBox="0 0 32 32" version="1.1">
<defs>
<linearGradient id="linear0" gradientUnits="userSpaceOnUse" x1="239.87" y1="496.15" x2="291.58" y2="364.06" gradientTransform="matrix(0.0423875,0,0,0.036925,0.745375,-3.81575)">
<stop offset="0" style="stop-color:rgb(0%,53.333333%,66.666667%);stop-opacity:1;"/>
<stop offset="1" style="stop-color:rgb(0%,53.333333%,66.666667%);stop-opacity:0;"/>
</linearGradient>
<linearGradient id="linear1" gradientUnits="userSpaceOnUse" x1="225.64" y1="661.22" x2="612.77" y2="180" gradientTransform="matrix(0.0423875,0,0,0.036925,0.745375,-3.81575)">
<stop offset="0" style="stop-color:rgb(16.470588%,83.137255%,100%);stop-opacity:1;"/>
<stop offset="1" style="stop-color:rgb(16.470588%,83.137255%,100%);stop-opacity:0;"/>
</linearGradient>
<linearGradient id="linear2" gradientUnits="userSpaceOnUse" x1="168.91" y1="566.22" x2="167.43" y2="470.82" gradientTransform="matrix(0.0423875,0,0,0.036925,0.745375,-3.81575)">
<stop offset="0" style="stop-color:rgb(0%,53.333333%,66.666667%);stop-opacity:1;"/>
<stop offset="1" style="stop-color:rgb(0%,53.333333%,66.666667%);stop-opacity:0;"/>
</linearGradient>
<linearGradient id="linear3" gradientUnits="userSpaceOnUse" x1="293.53" y1="596.87" x2="381.41" y2="609.55" gradientTransform="matrix(0.0423875,0,0,0.036925,0.745375,-3.81575)">
<stop offset="0" style="stop-color:rgb(0%,66.666667%,83.137255%);stop-opacity:1;"/>
<stop offset="1" style="stop-color:rgb(0%,66.666667%,83.137255%);stop-opacity:0;"/>
</linearGradient>
<linearGradient id="linear4" gradientUnits="userSpaceOnUse" x1="393.76" y1="514.11" x2="573.57" y2="313.29" gradientTransform="matrix(0.0423875,0,0,0.036925,0.745375,-3.81575)">
<stop offset="0" style="stop-color:rgb(83.529412%,96.470588%,100%);stop-opacity:1;"/>
<stop offset="1" style="stop-color:rgb(83.529412%,96.470588%,100%);stop-opacity:0;"/>
</linearGradient>
<linearGradient id="linear5" gradientUnits="userSpaceOnUse" x1="153.56" y1="1228.21" x2="249.33" y2="1182.8" gradientTransform="matrix(0.0549202,0,0,0.0589238,-0.137514,-46.421661)">
<stop offset="0" style="stop-color:rgb(100%,80%,0%);stop-opacity:1;"/>
<stop offset="1" style="stop-color:rgb(100%,80%,0%);stop-opacity:0;"/>
</linearGradient>
</defs>
<g id="surface1">
<path style=" stroke:none;fill-rule:nonzero;fill:rgb(96.078431%,96.078431%,96.078431%);fill-opacity:1;" d="M 6.597656 28.878906 C 30.652344 44.871094 45.472656 -6.132812 14.371094 0.621094 C 1.519531 3.496094 -6.28125 21.542969 6.597656 28.878906 Z M 6.597656 28.878906 "/>
<path style=" stroke:none;fill-rule:nonzero;fill:rgb(50.196078%,89.803922%,100%);fill-opacity:1;" d="M 20.601562 18.816406 C 23.472656 19.972656 27.539062 20.980469 27.539062 20.980469 C 27.539062 20.980469 29.292969 21.503906 28.695312 21.539062 C 28.097656 21.578125 26.554688 21.316406 25.871094 21.207031 C 25.183594 21.09375 21.371094 20.199219 21.371094 20.199219 Z M 20.601562 18.816406 "/>
<path style=" stroke:none;fill-rule:nonzero;fill:rgb(0%,66.666667%,83.137255%);fill-opacity:1;" d="M 21.371094 20.183594 C 24.410156 20.863281 27.324219 21.652344 27.324219 21.652344 C 27.324219 21.652344 27.925781 22.027344 27.199219 21.914062 C 26.46875 21.800781 22.753906 21.164062 22.753906 21.164062 Z M 21.371094 20.183594 "/>
<path style=" stroke:none;fill-rule:nonzero;fill:rgb(0%,66.666667%,83.137255%);fill-opacity:1;" d="M 15.050781 4.808594 C 14.441406 4.808594 13.199219 5.695312 12.308594 7.238281 C 12.222656 7.355469 12.144531 7.480469 12.066406 7.636719 C 10.832031 10.128906 10.855469 11.800781 9.949219 12.382812 C 9.042969 12.964844 9.34375 14.125 9.769531 15.601562 L 13.703125 16.972656 L 16.425781 15.496094 L 16.851562 11.167969 C 16.851562 11.167969 16.308594 10.0625 16.125 9.640625 C 16.097656 9.574219 16.03125 9.417969 15.953125 9.226562 C 16.1875 8.925781 16.320312 8.617188 16.277344 8.332031 C 16.222656 8.097656 15.917969 8.050781 15.515625 8.152344 C 15.402344 7.878906 15.300781 7.621094 15.183594 7.339844 C 15.652344 6.910156 15.976562 6.433594 15.914062 6.011719 C 15.855469 5.785156 15.570312 5.734375 15.183594 5.828125 C 15.355469 5.570312 15.449219 5.308594 15.410156 5.066406 C 15.371094 4.894531 15.238281 4.808594 15.050781 4.808594 Z M 15.050781 4.808594 "/>
<path style=" stroke:none;fill-rule:nonzero;fill:url(#linear0);" d="M 15.050781 4.808594 C 14.441406 4.808594 13.199219 5.695312 12.308594 7.238281 C 12.222656 7.355469 12.144531 7.480469 12.066406 7.636719 C 10.832031 10.128906 10.855469 11.800781 9.949219 12.382812 C 9.042969 12.964844 9.34375 14.125 9.769531 15.601562 L 13.703125 16.972656 L 16.425781 15.496094 L 16.851562 11.167969 C 16.851562 11.167969 16.308594 10.0625 16.125 9.640625 C 16.097656 9.574219 16.03125 9.417969 15.953125 9.226562 C 16.1875 8.925781 16.320312 8.617188 16.277344 8.332031 C 16.222656 8.097656 15.917969 8.050781 15.515625 8.152344 C 15.402344 7.878906 15.300781 7.621094 15.183594 7.339844 C 15.652344 6.910156 15.976562 6.433594 15.914062 6.011719 C 15.855469 5.785156 15.570312 5.734375 15.183594 5.828125 C 15.355469 5.570312 15.449219 5.308594 15.410156 5.066406 C 15.371094 4.894531 15.238281 4.808594 15.050781 4.808594 Z M 15.050781 4.808594 "/>
<path style=" stroke:none;fill-rule:nonzero;fill:rgb(50.196078%,89.803922%,100%);fill-opacity:1;" d="M 12.160156 15.019531 C 12.96875 14.792969 13.511719 15.019531 13.847656 13.929688 C 14.183594 12.839844 13.914062 11.863281 13.914062 11.863281 L 13.730469 11.390625 C 13.730469 11.390625 13.644531 11.289062 13.914062 10.832031 C 14.183594 10.371094 19.183594 6.753906 19.925781 6.238281 C 20.667969 5.722656 21.886719 5.316406 21.886719 5.316406 C 22.980469 5.296875 23.6875 5.949219 23.101562 8.074219 C 23.183594 8.476562 22.695312 11.691406 22.222656 12.035156 C 21.75 12.378906 19.660156 14.351562 19.726562 14.984375 C 19.792969 15.613281 20.394531 18.171875 18.980469 17.652344 C 17.558594 17.136719 16.1875 16.722656 15.917969 16.777344 C 15.644531 16.835938 15.671875 17.546875 15.402344 17.546875 C 15.128906 17.546875 12.832031 17.261719 12.429688 16.6875 C 12.023438 16.113281 12.292969 15.078125 12.160156 15.019531 Z M 12.160156 15.019531 "/>
<path style=" stroke:none;fill-rule:nonzero;fill:rgb(50.196078%,89.803922%,100%);fill-opacity:1;" d="M 5.726562 15.480469 C 6.191406 15.757812 7.988281 17.804688 8.324219 18.507812 C 8.632812 19.144531 9.027344 19.804688 9.503906 20.261719 C 11.167969 21.863281 12.429688 22.53125 14.914062 22.546875 C 15.550781 22.550781 17.328125 22.269531 19.214844 21.839844 C 20.902344 21.449219 21.019531 22.050781 21.730469 22.105469 C 24.5625 22.324219 25.695312 22.449219 26.71875 22.222656 C 23.355469 20.542969 15.753906 15.507812 12.207031 14.988281 C 10.78125 14.875 9.511719 14.402344 9.027344 14.136719 C 8.773438 14 8.136719 13.714844 7.816406 13.28125 C 7.433594 12.765625 6.761719 12.371094 5.972656 12.582031 C 5.210938 12.792969 4.660156 13.066406 4.488281 13.550781 C 4.324219 13.988281 4.566406 14.242188 4.769531 14.578125 C 5.230469 15.339844 5.191406 15.167969 5.726562 15.480469 Z M 5.726562 15.480469 "/>
<path style=" stroke:none;fill-rule:nonzero;fill:url(#linear1);" d="M 5.726562 15.480469 C 6.191406 15.757812 7.863281 17.46875 8.203125 18.171875 C 8.511719 18.808594 9.027344 19.804688 9.503906 20.261719 C 11.167969 21.863281 12.429688 22.53125 14.914062 22.546875 C 15.550781 22.550781 17.328125 22.269531 19.214844 21.839844 C 20.902344 21.449219 21.019531 22.050781 21.730469 22.105469 C 24.5625 22.324219 25.695312 22.449219 26.71875 22.222656 C 23.355469 20.542969 15.753906 15.507812 12.207031 14.988281 C 10.78125 14.875 9.511719 14.402344 9.027344 14.136719 C 8.773438 14 8.136719 13.714844 7.816406 13.28125 C 7.433594 12.765625 6.761719 12.371094 5.972656 12.582031 C 5.210938 12.792969 4.660156 13.066406 4.488281 13.550781 C 4.324219 13.988281 4.566406 14.242188 4.769531 14.578125 C 5.230469 15.339844 5.191406 15.167969 5.726562 15.480469 Z M 5.726562 15.480469 "/>
<path style=" stroke:none;fill-rule:nonzero;fill:url(#linear2);" d="M 5.574219 15.417969 C 6.8125 16.480469 7.964844 17.890625 8.019531 17.964844 C 8.660156 18.816406 9.613281 14.796875 12.003906 14.964844 C 10.714844 14.792969 9.984375 14.5 9.113281 14.152344 C 8.84375 14.042969 8.480469 13.832031 7.917969 13.257812 C 7.464844 12.792969 6.855469 12.378906 6.046875 12.535156 C 5.308594 12.679688 4.636719 13.074219 4.464844 13.558594 C 4.300781 13.996094 4.472656 14.371094 4.738281 14.671875 C 5.214844 15.21875 4.988281 15.042969 5.574219 15.417969 Z M 5.574219 15.417969 "/>
<path style=" stroke:none;fill-rule:evenodd;fill:rgb(100%,100%,100%);fill-opacity:1;" d="M 5.988281 14.007812 C 6.097656 14.207031 6.394531 14.285156 6.652344 14.179688 C 6.910156 14.074219 7.035156 13.828125 6.925781 13.625 C 6.820312 13.425781 6.523438 13.347656 6.261719 13.453125 C 6.003906 13.558594 5.882812 13.804688 5.988281 14.007812 Z M 5.988281 14.007812 "/>
<path style=" stroke:none;fill-rule:evenodd;fill:rgb(0%,0%,0%);fill-opacity:1;" d="M 6.0625 14.027344 C 6.132812 14.152344 6.304688 14.210938 6.449219 14.152344 C 6.597656 14.09375 6.660156 13.941406 6.589844 13.808594 C 6.519531 13.683594 6.347656 13.625 6.199219 13.683594 C 6.054688 13.742188 5.992188 13.894531 6.0625 14.027344 Z M 6.0625 14.027344 "/>
<path style=" stroke:none;fill-rule:evenodd;fill:rgb(100%,100%,100%);fill-opacity:1;" d="M 6.203125 13.835938 C 6.253906 13.933594 6.402344 13.972656 6.527344 13.921875 C 6.65625 13.871094 6.714844 13.746094 6.664062 13.648438 C 6.609375 13.550781 6.464844 13.511719 6.339844 13.5625 C 6.210938 13.613281 6.152344 13.738281 6.203125 13.835938 Z M 6.203125 13.835938 "/>
<path style=" stroke:none;fill-rule:evenodd;fill:rgb(100%,100%,100%);fill-opacity:1;" d="M 4.675781 14.523438 C 4.769531 14.699219 4.941406 14.808594 5.058594 14.757812 C 5.175781 14.710938 5.191406 14.527344 5.097656 14.351562 C 5.003906 14.175781 4.832031 14.066406 4.714844 14.113281 C 4.597656 14.164062 4.578125 14.347656 4.675781 14.523438 Z M 4.675781 14.523438 "/>
<path style=" stroke:none;fill-rule:evenodd;fill:rgb(0%,0%,0%);fill-opacity:1;" d="M 4.84375 14.539062 C 4.894531 14.636719 4.996094 14.691406 5.066406 14.667969 C 5.132812 14.636719 5.144531 14.535156 5.09375 14.4375 C 5.042969 14.339844 4.941406 14.28125 4.875 14.308594 C 4.804688 14.339844 4.792969 14.441406 4.84375 14.539062 Z M 4.84375 14.539062 "/>
<path style=" stroke:none;fill-rule:evenodd;fill:rgb(100%,100%,100%);fill-opacity:1;" d="M 4.75 14.503906 C 4.789062 14.582031 4.867188 14.621094 4.925781 14.597656 C 4.980469 14.578125 4.992188 14.496094 4.953125 14.425781 C 4.910156 14.347656 4.835938 14.308594 4.777344 14.328125 C 4.722656 14.351562 4.710938 14.429688 4.75 14.503906 Z M 4.75 14.503906 "/>
<path style=" stroke:none;fill-rule:nonzero;fill:rgb(66.666667%,26.666667%,0%);fill-opacity:1;" d="M 5.546875 15.246094 C 5.796875 15.304688 6.46875 14.894531 6.371094 14.707031 C 6.363281 14.691406 6.382812 14.691406 6.371094 14.703125 C 6.332031 14.746094 6.261719 14.777344 6.207031 14.816406 C 6.082031 14.917969 5.84375 14.980469 5.742188 15.046875 C 5.675781 15.089844 5.558594 15.152344 5.550781 15.246094 Z M 5.546875 15.246094 "/>
<path style=" stroke:none;fill-rule:nonzero;fill:rgb(100%,100%,100%);fill-opacity:1;" d="M 5.136719 14.628906 C 5.050781 14.355469 5.613281 14.105469 5.816406 14.167969 C 5.847656 14.175781 5.996094 14.199219 5.960938 14.242188 C 5.894531 14.3125 5.585938 14.335938 5.464844 14.386719 C 5.3125 14.441406 5.207031 14.570312 5.132812 14.636719 "/>
<path style=" stroke:none;fill-rule:nonzero;fill:rgb(0%,40%,50.196078%);fill-opacity:1;" d="M 5.550781 15.246094 C 5.792969 15.246094 5.953125 15.160156 6.148438 15.023438 C 6.21875 14.980469 6.363281 14.855469 6.378906 14.753906 C 6.449219 14.886719 6.285156 15.207031 6.238281 15.332031 C 6.101562 15.53125 6.066406 15.722656 6.140625 15.917969 C 6.054688 15.953125 6.019531 15.910156 5.894531 15.800781 C 5.675781 15.480469 5.636719 15.460938 5.550781 15.246094 Z M 5.550781 15.246094 "/>
<path style=" stroke:none;fill-rule:nonzero;fill:rgb(0%,66.666667%,83.137255%);fill-opacity:1;" d="M 11.882812 14.925781 C 10.015625 14.84375 9.511719 16.167969 8.730469 17.457031 C 8.476562 17.734375 8.277344 17.902344 8.105469 18.050781 C 8.144531 18.089844 8.21875 18.277344 8.40625 18.621094 C 9.164062 18.585938 10.054688 16.945312 10.269531 16.308594 C 10.492188 15.644531 11.257812 15.210938 11.882812 14.925781 Z M 11.882812 14.925781 "/>
<path style=" stroke:none;fill-rule:nonzero;fill:rgb(100%,49.803922%,16.470588%);fill-opacity:1;" d="M 5.699219 14.25 C 5.265625 14.355469 5.207031 14.472656 5.054688 14.800781 C 5.042969 14.949219 5.082031 15.058594 5.128906 15.195312 C 5.207031 15.378906 5.269531 15.488281 5.40625 15.457031 C 5.617188 15.402344 5.449219 15.269531 5.667969 15.105469 C 5.832031 14.980469 5.933594 14.988281 6.144531 14.871094 C 6.351562 14.753906 6.410156 14.707031 6.398438 14.574219 C 6.402344 14.222656 6.019531 14.222656 5.699219 14.253906 Z M 5.699219 14.25 "/>
<path style=" stroke:none;fill-rule:nonzero;fill:rgb(66.666667%,26.666667%,0%);fill-opacity:1;" d="M 5.800781 14.472656 C 5.851562 14.449219 5.875 14.46875 5.894531 14.484375 C 5.996094 14.5625 5.742188 14.761719 5.722656 14.726562 C 5.710938 14.699219 5.804688 14.59375 5.8125 14.574219 C 5.816406 14.566406 5.652344 14.566406 5.800781 14.472656 Z M 5.800781 14.472656 "/>
<path style=" stroke:none;fill-rule:nonzero;fill:rgb(100%,80%,66.666667%);fill-opacity:1;" d="M 5.273438 14.5 C 5.167969 14.628906 5.132812 14.769531 5.160156 14.929688 C 5.1875 15.082031 5.289062 15.308594 5.289062 15.308594 C 5.292969 15.085938 5.285156 14.847656 5.4375 14.667969 C 5.585938 14.5 5.621094 14.382812 5.621094 14.382812 C 5.621094 14.382812 5.464844 14.363281 5.273438 14.5 Z M 5.273438 14.5 "/>
<path style=" stroke:none;fill-rule:nonzero;fill:rgb(16.470588%,83.137255%,100%);fill-opacity:1;" d="M 12.160156 15.019531 C 12.96875 14.792969 13.511719 15.019531 13.847656 13.929688 C 14.183594 12.839844 13.914062 11.863281 13.914062 11.863281 L 13.730469 11.390625 C 13.730469 11.390625 13.644531 11.289062 13.914062 10.832031 C 14.183594 10.371094 19.183594 6.753906 19.925781 6.238281 C 20.667969 5.722656 21.886719 5.316406 21.886719 5.316406 C 22.980469 5.296875 23.6875 5.949219 23.101562 8.074219 C 23.183594 8.476562 22.695312 11.691406 22.222656 12.035156 C 21.75 12.378906 19.660156 14.351562 19.726562 14.984375 C 19.792969 15.613281 20.394531 18.171875 18.980469 17.652344 C 17.558594 17.136719 16.1875 16.722656 15.917969 16.777344 C 15.644531 16.835938 15.671875 17.546875 15.402344 17.546875 C 15.128906 17.546875 12.832031 17.261719 12.429688 16.6875 C 12.023438 16.113281 12.292969 15.078125 12.160156 15.019531 Z M 12.160156 15.019531 "/>
<path style=" stroke:none;fill-rule:nonzero;fill:rgb(0%,53.333333%,66.666667%);fill-opacity:1;" d="M 15.375 16.460938 C 19.167969 17.796875 19.464844 18.0625 20.691406 18.097656 C 21.925781 18.136719 21.613281 17.964844 20.988281 17.558594 C 20.363281 17.148438 19.722656 16.855469 19.722656 16.855469 C 19.722656 16.855469 20.519531 17.082031 20.589844 16.816406 C 20.636719 16.65625 20.164062 16.195312 19.847656 16.023438 C 19.570312 15.875 20.632812 15.953125 20.589844 15.84375 C 20.542969 15.714844 19.089844 14.53125 19.089844 14.53125 C 19.089844 14.53125 19.285156 14.652344 19.121094 15.238281 C 18.949219 15.851562 18.589844 16.066406 18.023438 16.300781 C 17.472656 16.527344 15.511719 16.453125 15.378906 16.460938 Z M 15.375 16.460938 "/>
<path style=" stroke:none;fill-rule:nonzero;fill:rgb(33.333333%,86.666667%,100%);fill-opacity:1;" d="M 25.644531 3.503906 C 24.105469 3.492188 19.652344 6.152344 18.949219 6.933594 C 19.285156 6.949219 19.8125 6.855469 20.425781 6.683594 C 20.3125 6.75 20.21875 6.808594 20.15625 6.859375 C 20.390625 6.894531 20.753906 6.882812 21.183594 6.832031 C 20.65625 6.988281 20.242188 7.136719 20.050781 7.246094 C 20.257812 7.308594 20.578125 7.34375 20.964844 7.355469 C 20.628906 7.433594 20.363281 7.511719 20.214844 7.582031 C 20.511719 7.75 21.089844 7.882812 21.785156 7.964844 C 21.222656 8.007812 20.773438 8.066406 20.558594 8.136719 C 20.878906 8.347656 21.585938 8.550781 22.414062 8.699219 C 21.375 8.722656 20.453125 8.808594 20.109375 8.921875 C 20.445312 9.136719 21.183594 9.34375 22.050781 9.496094 C 20.894531 9.507812 19.820312 9.613281 19.445312 9.753906 C 19.894531 10.082031 21.070312 10.402344 22.296875 10.566406 C 20.878906 10.527344 19.398438 10.632812 18.941406 10.78125 C 19.160156 10.921875 19.550781 11.0625 20.035156 11.183594 C 19.371094 11.167969 18.824219 11.183594 18.574219 11.246094 C 18.867188 11.476562 19.535156 11.734375 20.332031 11.957031 C 19.394531 11.847656 18.578125 11.824219 18.246094 11.902344 C 18.59375 12.261719 19.496094 12.699219 20.511719 13.042969 C 19.230469 12.871094 17.953125 12.8125 17.519531 12.894531 C 17.898438 13.222656 18.933594 13.617188 20.0625 13.910156 C 18.722656 13.792969 17.355469 13.824219 16.902344 13.972656 C 17.28125 14.324219 18.285156 14.707031 19.386719 14.972656 C 18.136719 14.792969 16.910156 14.722656 16.488281 14.800781 C 17.359375 15.59375 21.8125 16.832031 22.660156 16.109375 C 22.582031 15.753906 21.777344 15.449219 20.765625 15.222656 C 21.839844 15.351562 22.792969 15.300781 23.128906 14.917969 C 23.074219 14.664062 22.75 14.460938 22.269531 14.300781 C 22.933594 14.351562 23.46875 14.300781 23.707031 14.101562 C 23.667969 13.925781 23.433594 13.761719 23.078125 13.621094 C 23.703125 13.667969 24.207031 13.605469 24.433594 13.371094 C 24.363281 12.996094 23.707031 12.675781 22.839844 12.425781 C 23.753906 12.515625 24.527344 12.472656 24.816406 12.207031 C 24.746094 11.957031 24.285156 11.757812 23.644531 11.597656 C 24.417969 11.582031 25.035156 11.46875 25.261719 11.214844 C 25.160156 10.957031 24.625 10.792969 23.902344 10.6875 C 24.785156 10.691406 25.515625 10.566406 25.765625 10.246094 C 25.683594 10.019531 25.347656 9.855469 24.867188 9.734375 C 25.613281 9.714844 26.210938 9.601562 26.433594 9.351562 C 26.359375 9.171875 26.074219 9.035156 25.660156 8.933594 C 26.242188 8.894531 26.691406 8.777344 26.878906 8.570312 C 26.746094 8.253906 25.964844 8.070312 24.984375 7.980469 C 25.753906 7.882812 26.359375 7.691406 26.550781 7.390625 C 26.402344 7.089844 25.738281 6.964844 24.886719 6.949219 C 25.644531 6.761719 26.222656 6.527344 26.375 6.25 C 26.144531 5.980469 25.214844 6.007812 24.136719 6.171875 C 25.207031 5.828125 26.089844 5.410156 26.222656 5.019531 C 25.957031 4.792969 25.097656 4.929688 24.101562 5.214844 C 25.144531 4.660156 25.941406 4.066406 26.023438 3.597656 C 25.933594 3.53125 25.804688 3.503906 25.644531 3.503906 Z M 25.644531 3.503906 "/>
<path style=" stroke:none;fill-rule:nonzero;fill:rgb(0%,66.666667%,83.137255%);fill-opacity:1;" d="M 12.753906 9.785156 C 13.292969 10.019531 16.277344 8.378906 16.097656 7.175781 C 15.902344 6.378906 12.933594 7.726562 12.753906 9.785156 Z M 12.753906 9.785156 "/>
<path style=" stroke:none;fill-rule:nonzero;fill:url(#linear3);" d="M 12.128906 17.449219 C 12.917969 17.941406 13.277344 18.277344 14.429688 18.277344 C 15.582031 18.277344 16.910156 17.910156 16.910156 17.910156 C 16.910156 17.910156 15.277344 18.839844 14.371094 18.671875 C 13.460938 18.507812 11.949219 17.449219 12.128906 17.449219 Z M 12.128906 17.449219 "/>
<path style=" stroke:none;fill-rule:nonzero;fill:url(#linear4);" d="M 25.644531 3.503906 C 24.105469 3.492188 19.652344 6.152344 18.949219 6.933594 C 19.285156 6.949219 19.8125 6.855469 20.425781 6.683594 C 20.3125 6.75 20.21875 6.808594 20.15625 6.859375 C 20.390625 6.894531 20.753906 6.882812 21.183594 6.832031 C 20.65625 6.988281 20.242188 7.136719 20.050781 7.246094 C 20.257812 7.308594 20.578125 7.34375 20.964844 7.355469 C 20.628906 7.433594 20.363281 7.511719 20.214844 7.582031 C 20.511719 7.75 21.089844 7.882812 21.785156 7.964844 C 21.222656 8.007812 20.773438 8.066406 20.558594 8.136719 C 20.878906 8.347656 21.585938 8.550781 22.414062 8.699219 C 21.375 8.722656 20.453125 8.808594 20.109375 8.921875 C 20.445312 9.136719 21.183594 9.34375 22.050781 9.496094 C 20.894531 9.507812 19.820312 9.613281 19.445312 9.753906 C 19.894531 10.082031 21.070312 10.402344 22.296875 10.566406 C 20.878906 10.527344 19.398438 10.632812 18.941406 10.78125 C 19.160156 10.921875 19.550781 11.0625 20.035156 11.183594 C 19.371094 11.167969 18.824219 11.183594 18.574219 11.246094 C 18.867188 11.476562 19.535156 11.734375 20.332031 11.957031 C 19.394531 11.847656 18.578125 11.824219 18.246094 11.902344 C 18.59375 12.261719 19.496094 12.699219 20.511719 13.042969 C 19.230469 12.871094 17.953125 12.8125 17.519531 12.894531 C 17.898438 13.222656 18.933594 13.617188 20.0625 13.910156 C 18.722656 13.792969 17.355469 13.824219 16.902344 13.972656 C 17.28125 14.324219 18.285156 14.707031 19.386719 14.972656 C 18.136719 14.792969 16.910156 14.722656 16.488281 14.800781 C 17.359375 15.59375 21.8125 16.832031 22.660156 16.109375 C 22.582031 15.753906 21.777344 15.449219 20.765625 15.222656 C 21.839844 15.351562 22.792969 15.300781 23.128906 14.917969 C 23.074219 14.664062 22.75 14.460938 22.269531 14.300781 C 22.933594 14.351562 23.46875 14.300781 23.707031 14.101562 C 23.667969 13.925781 23.433594 13.761719 23.078125 13.621094 C 23.703125 13.667969 24.207031 13.605469 24.433594 13.371094 C 24.363281 12.996094 23.707031 12.675781 22.839844 12.425781 C 23.753906 12.515625 24.527344 12.472656 24.816406 12.207031 C 24.746094 11.957031 24.285156 11.757812 23.644531 11.597656 C 24.417969 11.582031 25.035156 11.46875 25.261719 11.214844 C 25.160156 10.957031 24.625 10.792969 23.902344 10.6875 C 24.785156 10.691406 25.515625 10.566406 25.765625 10.246094 C 25.683594 10.019531 25.347656 9.855469 24.867188 9.734375 C 25.613281 9.714844 26.210938 9.601562 26.433594 9.351562 C 26.359375 9.171875 26.074219 9.035156 25.660156 8.933594 C 26.242188 8.894531 26.691406 8.777344 26.878906 8.570312 C 26.746094 8.253906 25.964844 8.070312 24.984375 7.980469 C 25.753906 7.882812 26.359375 7.691406 26.550781 7.390625 C 26.402344 7.089844 25.738281 6.964844 24.886719 6.949219 C 25.644531 6.761719 26.222656 6.527344 26.375 6.25 C 26.144531 5.980469 25.214844 6.007812 24.136719 6.171875 C 25.207031 5.828125 26.089844 5.410156 26.222656 5.019531 C 25.957031 4.792969 25.097656 4.929688 24.101562 5.214844 C 25.144531 4.660156 25.941406 4.066406 26.023438 3.597656 C 25.933594 3.53125 25.804688 3.503906 25.644531 3.503906 Z M 25.644531 3.503906 "/>
<path style=" stroke:none;fill-rule:nonzero;fill:rgb(100%,93.333333%,66.666667%);fill-opacity:1;" d="M 8.109375 22.003906 L 14.671875 21.84375 C 14.671875 21.84375 15.367188 21.8125 15.582031 22.882812 C 15.691406 24.101562 15.636719 25.808594 15.316406 27.550781 C 14.816406 27.46875 8.109375 26.285156 8.109375 26.285156 Z M 8.109375 22.003906 "/>
<path style=" stroke:none;fill-rule:nonzero;fill:rgb(83.137255%,66.666667%,0%);fill-opacity:1;" d="M 14.695312 22.425781 C 11.367188 24.984375 11.3125 24.984375 11.3125 24.984375 L 8.261719 22.066406 L 11.367188 25.519531 Z M 14.695312 22.425781 "/>
<path style=" stroke:none;fill-rule:nonzero;fill:url(#linear5);" d="M 8.253906 21.988281 L 14.8125 21.832031 C 14.8125 21.832031 15.507812 21.800781 15.726562 22.871094 C 15.835938 24.089844 15.777344 25.792969 15.457031 27.535156 C 14.957031 27.457031 8.253906 26.277344 8.253906 26.277344 Z M 8.253906 21.988281 "/>
<path style=" stroke:none;fill-rule:nonzero;fill:rgb(91.372549%,68.627451%,68.627451%);fill-opacity:1;" d="M 12.371094 21.730469 C 12.027344 21.652344 11.542969 21.785156 11.429688 21.988281 C 11.316406 22.195312 11.308594 22.839844 11.308594 22.839844 L 11.539062 22.683594 C 11.539062 22.683594 11.503906 22.457031 11.597656 22.261719 C 11.691406 22.070312 11.984375 21.839844 11.984375 21.839844 L 11.839844 22.324219 L 11.808594 22.972656 C 11.808594 22.972656 12.066406 23.140625 12.0625 22.980469 C 12.054688 22.644531 12.15625 22.027344 12.15625 22.027344 Z M 12.371094 21.730469 "/>
<path style=" stroke:none;fill-rule:nonzero;fill:rgb(91.372549%,68.627451%,68.627451%);fill-opacity:1;" d="M 12.285156 21.839844 C 12.15625 22.136719 12.15625 22.996094 12.15625 22.996094 C 12.15625 22.996094 12.441406 23.277344 12.457031 22.996094 C 12.46875 22.730469 12.5 22.027344 12.5 22.027344 C 12.5 22.027344 12.945312 21.808594 12.667969 21.691406 C 12.382812 21.566406 12.285156 21.839844 12.285156 21.839844 Z M 12.285156 21.839844 "/>
<path style=" stroke:none;fill-rule:nonzero;fill:rgb(91.372549%,68.627451%,68.627451%);fill-opacity:1;" d="M 10.585938 21.722656 C 10.347656 21.679688 9.84375 21.660156 9.730469 21.816406 C 9.617188 21.976562 9.519531 22.582031 9.519531 22.582031 L 9.753906 22.460938 C 9.753906 22.460938 9.71875 22.285156 9.816406 22.132812 C 9.90625 21.988281 10.164062 21.871094 10.164062 21.871094 L 10.054688 22.183594 L 10.019531 22.679688 C 10.019531 22.679688 10.277344 22.808594 10.277344 22.683594 C 10.269531 22.429688 10.371094 21.953125 10.371094 21.953125 Z M 10.585938 21.722656 "/>
<path style=" stroke:none;fill-rule:nonzero;fill:rgb(91.372549%,68.627451%,68.627451%);fill-opacity:1;" d="M 10.464844 21.777344 C 10.335938 22.007812 10.441406 22.59375 10.441406 22.59375 C 10.441406 22.59375 10.621094 22.886719 10.636719 22.667969 C 10.648438 22.464844 10.675781 22.058594 10.675781 22.058594 C 10.675781 22.058594 11.097656 21.945312 10.972656 21.785156 C 10.847656 21.628906 10.464844 21.777344 10.464844 21.777344 Z M 10.464844 21.777344 "/>
</g>
</svg>
