
<svg xmlns="http://www.w3.org/2000/svg" xmlns:xlink="http://www.w3.org/1999/xlink" width="32px" height="32px" viewBox="0 0 32 32" version="1.1">
<defs>
<linearGradient id="linear0" gradientUnits="userSpaceOnUse" x1="0" y1="-1046.4" x2="0" y2="-994.4" gradientTransform="matrix(0,0.348778,0.358313,0,381.727675,4.751306)">
<stop offset="0" style="stop-color:rgb(98.823529%,98.823529%,98.823529%);stop-opacity:1;"/>
<stop offset="1" style="stop-color:rgb(86.666667%,85.882353%,85.882353%);stop-opacity:1;"/>
</linearGradient>
<linearGradient id="linear1" gradientUnits="userSpaceOnUse" x1="0" y1="996.36" x2="0" y2="1028" gradientTransform="matrix(0,0.348778,-0.358313,0,381.727675,4.751306)">
<stop offset="0" style="stop-color:rgb(97.647059%,56.862745%,20%);stop-opacity:1;"/>
<stop offset="1" style="stop-color:rgb(89.411765%,44.705882%,4.705882%);stop-opacity:1;"/>
</linearGradient>
<linearGradient id="linear2" gradientUnits="userSpaceOnUse" x1="0" y1="28.25" x2="0" y2="59.125" gradientTransform="matrix(0,0.348778,-0.358313,0,27.585834,4.751306)">
<stop offset="0" style="stop-color:rgb(89.411765%,44.705882%,4.705882%);stop-opacity:1;"/>
<stop offset="1" style="stop-color:rgb(68.627451%,33.333333%,1.960784%);stop-opacity:1;"/>
</linearGradient>
<linearGradient id="linear3" gradientUnits="userSpaceOnUse" x1="0" y1="28.812" x2="0" y2="57" gradientTransform="matrix(0,0.348778,-0.358313,0,27.585834,4.751306)">
<stop offset="0" style="stop-color:rgb(89.411765%,44.705882%,4.705882%);stop-opacity:1;"/>
<stop offset="1" style="stop-color:rgb(68.627451%,33.333333%,1.960784%);stop-opacity:1;"/>
</linearGradient>
<linearGradient id="linear4" gradientUnits="userSpaceOnUse" x1="32" y1="0" x2="33" y2="0" gradientTransform="matrix(0.319546,0,0,0.295155,5.605769,6.467253)">
<stop offset="0" style="stop-color:rgb(0%,0%,0%);stop-opacity:0.0509804;"/>
<stop offset="1" style="stop-color:rgb(0%,0%,0%);stop-opacity:0;"/>
</linearGradient>
<linearGradient id="linear5" gradientUnits="userSpaceOnUse" x1="32" y1="0" x2="31" y2="0" gradientTransform="matrix(0.319546,0,0,0.295155,5.605769,6.467253)">
<stop offset="0" style="stop-color:rgb(96.078431%,95.686275%,95.686275%);stop-opacity:0.0509804;"/>
<stop offset="1" style="stop-color:rgb(96.078431%,95.686275%,95.686275%);stop-opacity:0;"/>
</linearGradient>
</defs>
<g id="surface1">
<path style=" stroke:none;fill-rule:nonzero;fill:rgb(90.196078%,45.882353%,6.27451%);fill-opacity:1;" d="M 30.964844 11.601562 C 36.941406 28.277344 15.46875 36.386719 7.402344 29.597656 C -0.664062 22.808594 -3.421875 11.175781 5.714844 5.320312 C 14.851562 -0.535156 24.988281 -5.074219 30.964844 11.605469 Z M 30.964844 11.601562 "/>
<path style=" stroke:none;fill-rule:nonzero;fill:url(#linear0);" d="M 16.105469 24.980469 C 21.25 24.980469 25.421875 20.921875 25.421875 15.914062 C 25.421875 10.902344 21.25 6.84375 16.105469 6.84375 C 10.960938 6.84375 6.789062 10.902344 6.789062 15.914062 C 6.789062 20.921875 10.960938 24.980469 16.105469 24.980469 Z M 16.105469 24.980469 "/>
<path style=" stroke:none;fill-rule:nonzero;fill:url(#linear1);" d="M 24.71875 15.914062 C 24.71875 11.289062 20.871094 7.542969 16.121094 7.542969 C 15.859375 7.542969 15.59375 7.558594 15.335938 7.582031 L 10.925781 17.316406 L 21.421875 22.5 C 23.515625 20.914062 24.734375 18.484375 24.734375 15.914062 Z M 24.71875 15.914062 "/>
<path style=" stroke:none;fill-rule:nonzero;fill:url(#linear2);" d="M 15.335938 7.582031 C 12.019531 7.882812 9.175781 10.019531 8.042969 13.070312 L 10.027344 17.308594 L 13.078125 16.617188 Z M 15.335938 7.582031 "/>
<path style=" stroke:none;fill-rule:nonzero;fill:url(#linear3);" d="M 21.421875 22.5 L 13.078125 16.617188 L 10.027344 17.65625 L 11.492188 22.964844 C 12.871094 23.824219 14.480469 24.28125 16.121094 24.28125 C 18.042969 24.28125 19.910156 23.652344 21.421875 22.5 Z M 21.421875 22.5 "/>
<path style=" stroke:none;fill-rule:nonzero;fill:rgb(68.627451%,33.333333%,1.960784%);fill-opacity:1;" d="M 13.078125 16.617188 L 8.042969 13.070312 C 7.699219 13.980469 7.523438 14.941406 7.519531 15.914062 C 7.523438 18.765625 9.019531 21.421875 11.492188 22.957031 Z M 13.078125 16.617188 "/>
<path style=" stroke:none;fill-rule:nonzero;fill:url(#linear4);" d="M 15.832031 7.648438 L 15.832031 24.175781 C 15.9375 24.175781 16.042969 24.171875 16.152344 24.167969 L 16.152344 7.664062 C 16.042969 7.65625 15.9375 7.652344 15.832031 7.648438 Z M 15.832031 7.648438 "/>
<path style=" stroke:none;fill-rule:nonzero;fill:url(#linear5);" d="M 15.832031 7.648438 C 15.726562 7.648438 15.617188 7.652344 15.511719 7.660156 L 15.511719 24.160156 C 15.617188 24.167969 15.726562 24.171875 15.832031 24.175781 Z M 15.832031 7.648438 "/>
<path style=" stroke:none;fill-rule:nonzero;fill:rgb(0%,0%,0%);fill-opacity:0.101961;" d="M 15.832031 7.648438 L 15.832031 24.175781 C 20.773438 24.175781 24.777344 20.476562 24.777344 15.914062 C 24.777344 11.347656 20.773438 7.648438 15.832031 7.648438 Z M 15.832031 7.648438 "/>
</g>
</svg>
