
<svg xmlns="http://www.w3.org/2000/svg" xmlns:xlink="http://www.w3.org/1999/xlink" width="32px" height="32px" viewBox="0 0 32 32" version="1.1">
<g id="surface1">
<path style=" stroke:none;fill-rule:nonzero;fill:rgb(12.54902%,69.803922%,66.666667%);fill-opacity:1;" d="M 26.277344 27.042969 C 31.691406 21.734375 33.5625 13.160156 29.089844 6.878906 C 28.1875 5.609375 26.449219 3.582031 25.246094 2.800781 C 21.621094 0.441406 17.09375 -0.429688 12.980469 0.4375 C 10.496094 0.960938 8.25 2.050781 6.660156 3.496094 C 1.089844 8.566406 -0.300781 17.566406 3.363281 24.761719 C 4.027344 26.066406 5.726562 28.183594 6.792969 29.03125 C 11.089844 32.464844 17.292969 32.96875 22.214844 30.285156 C 23.410156 29.628906 25.269531 28.039062 26.277344 27.042969 Z M 21.144531 21.417969 C 17.871094 22.5 13.863281 21.507812 10.472656 18.769531 C 10.023438 18.410156 9.417969 17.832031 9.128906 17.488281 C 8.535156 16.792969 8.441406 16.746094 6.949219 16.417969 C 5.589844 16.117188 5.496094 16.011719 6.34375 15.746094 C 6.707031 15.628906 7.050781 15.5 7.105469 15.457031 C 7.164062 15.410156 6.871094 15.292969 6.457031 15.191406 C 6.039062 15.089844 5.542969 14.875 5.347656 14.710938 L 4.996094 14.410156 L 5.933594 14.246094 C 6.445312 14.152344 6.921875 14.035156 6.992188 13.976562 C 7.0625 13.921875 7.171875 13.558594 7.230469 13.171875 C 7.46875 11.664062 8.894531 10.625 10.550781 10.75 C 11.59375 10.828125 12.933594 11.617188 13.839844 12.691406 L 14.230469 13.152344 L 14.644531 12.71875 C 15.230469 12.105469 15.792969 11.207031 16.128906 10.34375 C 16.410156 9.625 16.761719 7.367188 16.761719 6.292969 C 16.761719 5.984375 16.832031 5.765625 16.921875 5.777344 C 17.113281 5.796875 18.136719 6.625 18.496094 7.050781 C 18.988281 7.632812 19.332031 8.464844 19.457031 9.355469 C 19.519531 9.847656 19.636719 10.230469 19.707031 10.207031 C 19.777344 10.183594 19.964844 9.972656 20.121094 9.738281 C 20.277344 9.503906 20.441406 9.316406 20.480469 9.316406 C 20.667969 9.335938 21.359375 10.816406 21.480469 11.46875 C 21.597656 12.113281 21.558594 12.417969 21.199219 13.542969 C 21.089844 13.898438 21.324219 13.863281 21.832031 13.453125 C 22.335938 13.042969 22.394531 13.074219 22.582031 13.867188 C 22.765625 14.640625 22.535156 15.773438 22.058594 16.472656 C 21.582031 17.167969 21.675781 17.242188 22.863281 17.121094 C 23.785156 17.027344 24.800781 16.632812 25.886719 15.945312 C 26.601562 15.492188 26.660156 15.585938 26.277344 16.558594 C 25.460938 18.628906 23.253906 20.71875 21.144531 21.417969 Z M 21.144531 21.417969 "/>
</g>
</svg>
