
<svg xmlns="http://www.w3.org/2000/svg" xmlns:xlink="http://www.w3.org/1999/xlink" width="32px" height="32px" viewBox="0 0 32 32" version="1.1">
<g id="surface1">
<path style=" stroke:none;fill-rule:nonzero;fill:rgb(100%,54.901961%,0%);fill-opacity:1;" d="M 6.597656 28.878906 C 30.652344 44.871094 45.472656 -6.132812 14.371094 0.621094 C 1.519531 3.496094 -6.277344 21.542969 6.597656 28.878906 Z M 6.597656 28.878906 "/>
<path style=" stroke:none;fill-rule:nonzero;fill:rgb(100%,40%,0%);fill-opacity:1;" d="M 7.699219 9.039062 L 25.339844 9.039062 L 25.339844 23.75 L 7.699219 23.75 Z M 7.699219 9.039062 "/>
<path style=" stroke:none;fill-rule:nonzero;fill:rgb(21.568627%,20.784314%,22.745098%);fill-opacity:1;" d="M 7.699219 9.039062 L 25.339844 9.039062 L 25.339844 10.769531 L 7.699219 10.769531 Z M 7.699219 9.039062 "/>
<path style=" stroke:none;fill-rule:nonzero;fill:rgb(100%,100%,100%);fill-opacity:1;" d="M 21.011719 9.386719 L 21.972656 9.386719 L 21.972656 10.425781 L 21.011719 10.425781 Z M 21.011719 9.386719 "/>
<path style=" stroke:none;fill-rule:nonzero;fill:rgb(100%,100%,100%);fill-opacity:1;" d="M 22.777344 9.386719 L 23.734375 9.386719 L 23.734375 10.425781 L 22.777344 10.425781 Z M 22.777344 9.386719 "/>
<path style=" stroke:none;fill-rule:nonzero;fill:rgb(100%,100%,100%);fill-opacity:1;" d="M 19.253906 9.386719 L 20.210938 9.386719 L 20.210938 10.425781 L 19.253906 10.425781 Z M 19.253906 9.386719 "/>
<path style=" stroke:none;fill-rule:nonzero;fill:rgb(50.196078%,20%,0%);fill-opacity:1;" d="M 9.300781 12.503906 L 11.707031 12.503906 L 11.707031 14.230469 L 9.300781 14.230469 Z M 9.300781 12.503906 "/>
<path style=" stroke:none;fill-rule:nonzero;fill:rgb(50.196078%,20%,0%);fill-opacity:1;" d="M 9.300781 15.097656 L 11.707031 15.097656 L 11.707031 16.828125 L 9.300781 16.828125 Z M 9.300781 15.097656 "/>
<path style=" stroke:none;fill-rule:nonzero;fill:rgb(50.196078%,20%,0%);fill-opacity:1;" d="M 9.300781 17.691406 L 11.707031 17.691406 L 11.707031 19.425781 L 9.300781 19.425781 Z M 9.300781 17.691406 "/>
</g>
</svg>
