
<svg xmlns="http://www.w3.org/2000/svg" xmlns:xlink="http://www.w3.org/1999/xlink" width="32px" height="32px" viewBox="0 0 32 32" version="1.1">
<g id="surface1">
<path style=" stroke:none;fill-rule:nonzero;fill:rgb(50.196078%,50.196078%,50.196078%);fill-opacity:1;" d="M 28.277344 5.839844 C 36.0625 17.808594 29.78125 28.714844 20.96875 31.300781 C 9.113281 34.78125 -6.980469 25.636719 3.625 6.789062 C 7.839844 -0.699219 22.730469 -2.683594 28.277344 5.839844 Z M 28.277344 5.839844 "/>
<path style=" stroke:none;fill-rule:nonzero;fill:rgb(56.862745%,56.862745%,56.862745%);fill-opacity:1;" d="M 22.058594 23.367188 C 22.058594 23.300781 22.121094 23.09375 22.191406 22.902344 L 22.324219 22.558594 L 22.691406 22.949219 C 22.894531 23.167969 23.058594 23.378906 23.058594 23.414062 C 23.058594 23.453125 22.835938 23.484375 22.558594 23.484375 C 22.285156 23.484375 22.058594 23.433594 22.058594 23.367188 Z M 8.996094 19.894531 C 9.203125 19.785156 9.542969 19.65625 9.746094 19.613281 C 10.203125 19.519531 10.238281 19.222656 9.808594 19.105469 C 9.402344 18.996094 8.566406 18.480469 8.808594 18.492188 C 8.914062 18.496094 9.308594 18.652344 9.683594 18.839844 C 10.664062 19.320312 10.628906 19.597656 9.558594 19.882812 C 8.5625 20.148438 8.527344 20.152344 8.996094 19.894531 Z M 22.011719 19.519531 C 21.960938 19.46875 22.089844 19.285156 22.300781 19.113281 C 22.660156 18.816406 22.691406 18.71875 22.8125 17.546875 C 22.976562 15.929688 22.839844 15.238281 22.179688 14.351562 C 21.730469 13.753906 21.683594 13.617188 21.683594 12.941406 C 21.683594 12.230469 21.394531 11.027344 20.957031 9.921875 C 20.847656 9.644531 20.363281 9.011719 19.886719 8.515625 C 19.410156 8.015625 19.050781 7.578125 19.089844 7.539062 C 19.167969 7.460938 20.183594 8.503906 20.863281 9.363281 C 21.125 9.691406 21.308594 10.0625 21.308594 10.261719 C 21.308594 10.449219 21.417969 10.84375 21.554688 11.136719 C 21.707031 11.464844 21.832031 12.097656 21.878906 12.773438 C 21.949219 13.773438 21.996094 13.917969 22.347656 14.320312 C 23.125 15.207031 23.425781 16.996094 22.984375 18.105469 C 22.640625 18.960938 22.976562 19.222656 23.78125 18.734375 C 24.007812 18.597656 24.3125 18.484375 24.464844 18.484375 C 24.882812 18.484375 24.589844 18.671875 23.699219 18.972656 C 23.253906 19.125 22.777344 19.328125 22.636719 19.425781 C 22.355469 19.628906 22.148438 19.65625 22.011719 19.519531 Z M 16.058594 17.484375 C 16.058594 17.414062 16.113281 17.359375 16.175781 17.359375 C 16.242188 17.359375 16.332031 17.414062 16.371094 17.484375 C 16.414062 17.550781 16.363281 17.609375 16.253906 17.609375 C 16.148438 17.609375 16.058594 17.550781 16.058594 17.484375 Z M 14.683594 16.828125 C 14.195312 16.699219 13.996094 16.539062 13.886719 16.171875 C 13.75 15.695312 13.957031 15.59375 14.566406 15.832031 C 15.269531 16.105469 15.6875 16.339844 15.683594 16.457031 C 15.679688 16.503906 15.550781 16.636719 15.402344 16.746094 C 15.1875 16.894531 15.019531 16.917969 14.683594 16.828125 Z M 8.683594 13.546875 C 8.683594 13.441406 8.753906 13.355469 8.839844 13.355469 C 8.945312 13.355469 8.933594 13.316406 8.808594 13.234375 C 8.699219 13.164062 8.683594 13.113281 8.769531 13.113281 C 9.101562 13.105469 9.675781 12.460938 9.75 12.007812 C 9.792969 11.753906 9.949219 11.125 10.097656 10.609375 C 10.347656 9.761719 10.464844 9.570312 11.371094 8.589844 C 12.226562 7.667969 12.683594 7.300781 12.683594 7.542969 C 12.683594 7.578125 12.261719 8.019531 11.746094 8.527344 C 11.074219 9.191406 10.808594 9.535156 10.808594 9.761719 C 10.808594 9.9375 10.726562 10.148438 10.621094 10.234375 C 10.390625 10.425781 10.351562 12.722656 10.574219 12.949219 C 10.859375 13.234375 10.605469 13.464844 10.089844 13.394531 C 9.746094 13.351562 9.546875 13.386719 9.402344 13.535156 C 9.148438 13.785156 8.683594 13.796875 8.683594 13.546875 Z M 12.644531 12.882812 C 12.414062 12.628906 12.445312 12.109375 12.691406 12.109375 C 12.832031 12.109375 12.972656 12.632812 12.914062 12.925781 C 12.878906 13.113281 12.847656 13.109375 12.644531 12.882812 Z M 12.644531 12.882812 "/>
<path style=" stroke:none;fill-rule:nonzero;fill:rgb(50.980392%,48.235294%,51.372549%);fill-opacity:1;" d="M 21.765625 23.078125 C 21.867188 22.515625 22.207031 21.839844 22.464844 21.683594 C 22.761719 21.5 23.3125 21.839844 23.570312 22.363281 C 23.679688 22.582031 23.863281 22.816406 23.976562 22.878906 C 24.089844 22.941406 24.183594 23.105469 24.183594 23.238281 C 24.183594 23.441406 24.097656 23.484375 23.671875 23.484375 C 23.238281 23.484375 23.097656 23.410156 22.746094 23.015625 L 22.328125 22.546875 L 22.191406 22.898438 C 22.121094 23.089844 22.058594 23.300781 22.058594 23.367188 C 22.058594 23.433594 21.976562 23.484375 21.875 23.484375 C 21.738281 23.484375 21.707031 23.386719 21.765625 23.078125 Z M 9.410156 19.898438 C 9.503906 19.863281 9.609375 19.867188 9.652344 19.910156 C 9.691406 19.949219 9.621094 19.980469 9.488281 19.972656 C 9.339844 19.96875 9.3125 19.9375 9.410156 19.898438 Z M 10.386719 19.550781 C 10.429688 19.441406 10.386719 19.257812 10.292969 19.136719 C 10.136719 18.941406 10.144531 18.9375 10.339844 19.09375 C 10.582031 19.28125 10.628906 19.550781 10.4375 19.667969 C 10.363281 19.714844 10.34375 19.664062 10.386719 19.550781 Z M 21.871094 19.609375 C 21.765625 19.4375 21.875 19.289062 22.347656 18.976562 L 22.746094 18.710938 L 22.320312 19.078125 C 21.917969 19.425781 21.910156 19.457031 22.132812 19.589844 C 22.339844 19.707031 22.34375 19.726562 22.160156 19.730469 C 22.042969 19.730469 21.914062 19.675781 21.871094 19.609375 Z M 16.167969 17.941406 C 15.640625 17.511719 14.980469 17.082031 14.699219 16.988281 C 14.011719 16.761719 13.808594 16.503906 13.691406 15.714844 C 13.453125 14.074219 12.257812 12.484375 11.550781 12.863281 C 11.324219 12.988281 11.300781 13.078125 11.371094 13.597656 L 11.453125 14.191406 L 10.847656 14.207031 C 10.519531 14.214844 9.964844 14.308594 9.621094 14.414062 C 8.738281 14.683594 8.683594 14.671875 8.683594 14.171875 C 8.683594 13.8125 8.730469 13.734375 8.945312 13.734375 C 9.085938 13.734375 9.292969 13.644531 9.402344 13.535156 C 9.546875 13.386719 9.746094 13.351562 10.089844 13.394531 C 10.605469 13.464844 10.859375 13.234375 10.574219 12.949219 C 10.351562 12.722656 10.390625 10.425781 10.621094 10.234375 C 10.726562 10.148438 10.808594 9.9375 10.808594 9.765625 C 10.808594 9.542969 11.09375 9.175781 11.808594 8.460938 C 12.359375 7.914062 12.808594 7.503906 12.808594 7.546875 C 12.808594 7.589844 12.386719 8.035156 11.871094 8.535156 C 11.183594 9.203125 10.933594 9.53125 10.933594 9.769531 C 10.933594 9.945312 10.851562 10.175781 10.746094 10.277344 C 10.558594 10.46875 10.488281 11.121094 10.644531 11.277344 C 10.691406 11.324219 10.828125 11.269531 10.949219 11.160156 C 11.308594 10.832031 12.347656 11.03125 12.746094 11.503906 C 12.917969 11.710938 13.058594 12.003906 13.058594 12.160156 C 13.058594 12.316406 13.167969 12.753906 13.296875 13.136719 C 13.429688 13.515625 13.601562 14.136719 13.679688 14.515625 C 13.757812 14.894531 13.917969 15.292969 14.035156 15.394531 C 14.347656 15.667969 15.859375 16.246094 16.527344 16.339844 C 17.019531 16.410156 17.117188 16.472656 17.195312 16.761719 C 17.347656 17.328125 17.382812 18.644531 17.246094 18.691406 C 17.179688 18.710938 16.691406 18.375 16.167969 17.941406 Z M 16.371094 17.484375 C 16.332031 17.414062 16.242188 17.359375 16.175781 17.359375 C 16.113281 17.359375 16.058594 17.414062 16.058594 17.484375 C 16.058594 17.550781 16.148438 17.609375 16.253906 17.609375 C 16.363281 17.609375 16.414062 17.550781 16.371094 17.484375 Z M 15.683594 16.457031 C 15.6875 16.339844 15.269531 16.105469 14.566406 15.832031 C 13.957031 15.59375 13.75 15.695312 13.886719 16.171875 C 13.996094 16.539062 14.195312 16.699219 14.683594 16.828125 C 15.019531 16.917969 15.1875 16.894531 15.402344 16.746094 C 15.550781 16.636719 15.679688 16.503906 15.683594 16.457031 Z M 12.878906 12.410156 C 12.789062 12.042969 12.605469 12.019531 12.496094 12.367188 C 12.441406 12.535156 12.496094 12.714844 12.644531 12.882812 C 12.847656 13.109375 12.878906 13.113281 12.914062 12.925781 C 12.9375 12.808594 12.921875 12.578125 12.878906 12.410156 Z M 22.839844 16.421875 C 22.84375 16.144531 22.871094 16.050781 22.898438 16.203125 C 22.929688 16.359375 22.925781 16.582031 22.894531 16.703125 C 22.863281 16.824219 22.839844 16.695312 22.839844 16.421875 Z M 21.917969 14.140625 C 21.761719 13.941406 21.769531 13.9375 21.964844 14.09375 C 22.175781 14.253906 22.238281 14.359375 22.136719 14.359375 C 22.113281 14.359375 22.011719 14.261719 21.917969 14.140625 Z M 20.417969 9.140625 C 20.261719 8.941406 20.269531 8.9375 20.464844 9.09375 C 20.675781 9.253906 20.738281 9.359375 20.636719 9.359375 C 20.613281 9.359375 20.511719 9.261719 20.417969 9.140625 Z M 19.167969 7.890625 C 19.011719 7.691406 19.019531 7.6875 19.214844 7.84375 C 19.335938 7.9375 19.433594 8.035156 19.433594 8.0625 C 19.433594 8.164062 19.332031 8.097656 19.167969 7.890625 Z M 19.167969 7.890625 "/>
<path style=" stroke:none;fill-rule:nonzero;fill:rgb(42.745098%,42.745098%,43.137255%);fill-opacity:1;" d="M 14.402344 22.953125 C 14.320312 22.234375 14.699219 21.859375 15.503906 21.859375 L 16.058594 21.859375 L 16.058594 23.484375 L 14.460938 23.484375 Z M 21.519531 23.015625 C 21.695312 21.859375 22.792969 20.628906 23.492188 20.808594 C 24.007812 20.933594 24.121094 21.171875 23.9375 21.730469 C 23.847656 21.996094 23.808594 22.304688 23.851562 22.410156 C 23.9375 22.632812 24.253906 22.675781 24.371094 22.484375 C 24.546875 22.199219 24.683594 22.394531 24.683594 22.921875 C 24.683594 23.402344 24.648438 23.484375 24.433594 23.484375 C 24.269531 23.484375 24.183594 23.402344 24.183594 23.238281 C 24.183594 23.105469 24.074219 22.933594 23.9375 22.859375 C 23.800781 22.785156 23.652344 22.585938 23.609375 22.417969 C 23.527344 22.082031 22.957031 21.609375 22.644531 21.609375 C 22.378906 21.609375 21.96875 22.164062 21.871094 22.644531 C 21.738281 23.308594 21.675781 23.484375 21.558594 23.484375 C 21.5 23.484375 21.480469 23.273438 21.519531 23.015625 Z M 17.996094 19.898438 C 17.792969 19.789062 17.167969 19.234375 16.605469 18.667969 C 15.90625 17.957031 15.308594 17.488281 14.683594 17.152344 L 13.777344 16.671875 L 13.363281 15.433594 C 12.984375 14.308594 12.476562 13.484375 12.160156 13.484375 C 12.097656 13.484375 12.0625 13.8125 12.074219 14.214844 C 12.105469 15.167969 12.035156 15.261719 11.394531 15.167969 C 11.089844 15.121094 10.480469 15.175781 9.933594 15.285156 C 8.683594 15.550781 8.683594 15.550781 8.683594 15.070312 C 8.683594 14.664062 8.699219 14.652344 9.566406 14.425781 C 10.050781 14.300781 10.675781 14.199219 10.949219 14.199219 L 11.453125 14.199219 L 11.371094 13.601562 C 11.300781 13.078125 11.324219 12.988281 11.550781 12.863281 C 12.261719 12.484375 13.453125 14.074219 13.695312 15.722656 C 13.808594 16.488281 14.011719 16.730469 14.78125 17.027344 C 15.074219 17.140625 15.738281 17.582031 16.253906 18.003906 C 16.800781 18.453125 17.238281 18.726562 17.296875 18.660156 C 17.402344 18.542969 17.265625 16.714844 17.136719 16.503906 C 17.097656 16.441406 16.824219 16.363281 16.523438 16.332031 C 15.910156 16.261719 14.355469 15.675781 14.035156 15.394531 C 13.917969 15.292969 13.757812 14.894531 13.679688 14.515625 C 13.601562 14.136719 13.429688 13.515625 13.296875 13.136719 C 13.167969 12.753906 13.058594 12.316406 13.058594 12.160156 C 13.058594 12.003906 12.917969 11.710938 12.746094 11.503906 C 12.347656 11.03125 11.308594 10.832031 10.949219 11.160156 C 10.828125 11.269531 10.691406 11.324219 10.644531 11.277344 C 10.488281 11.121094 10.558594 10.46875 10.746094 10.277344 C 10.851562 10.175781 10.933594 9.949219 10.933594 9.769531 C 10.933594 9.539062 11.203125 9.191406 11.933594 8.46875 C 12.484375 7.925781 12.933594 7.542969 12.933594 7.609375 C 12.933594 7.675781 12.597656 8.070312 12.183594 8.484375 C 11.324219 9.347656 11.238281 9.667969 11.839844 9.785156 C 12.449219 9.902344 12.585938 10.035156 12.644531 10.558594 C 12.675781 10.824219 12.789062 11.140625 12.898438 11.261719 C 13.011719 11.386719 13.140625 11.722656 13.1875 12.015625 C 13.355469 13.011719 14.046875 15.152344 14.273438 15.363281 C 14.566406 15.636719 16.042969 16.117188 16.660156 16.140625 C 17.039062 16.15625 17.253906 16.070312 17.628906 15.761719 C 17.898438 15.539062 18.160156 15.359375 18.210938 15.359375 C 18.261719 15.359375 18.300781 15.570312 18.300781 15.828125 C 18.289062 16.789062 18.511719 19.808594 18.605469 19.957031 C 18.738281 20.167969 18.453125 20.144531 17.996094 19.898438 Z M 9.785156 19.898438 C 9.878906 19.863281 9.984375 19.867188 10.027344 19.910156 C 10.066406 19.949219 9.996094 19.980469 9.863281 19.972656 C 9.714844 19.96875 9.6875 19.9375 9.785156 19.898438 Z M 10.371094 19.691406 C 10.59375 19.519531 10.605469 19.464844 10.453125 19.210938 C 10.289062 18.933594 10.289062 18.929688 10.511719 19.144531 C 10.761719 19.378906 10.65625 19.730469 10.300781 19.832031 C 10.203125 19.863281 10.234375 19.800781 10.371094 19.691406 Z M 21.769531 19.777344 C 21.589844 19.597656 21.699219 19.238281 21.964844 19.09375 C 22.246094 18.949219 22.246094 18.949219 22.007812 19.21875 C 21.824219 19.425781 21.800781 19.523438 21.910156 19.636719 C 22.023438 19.746094 22.167969 19.722656 22.527344 19.542969 C 23.230469 19.183594 23.304688 19.183594 22.746094 19.539062 C 22.25 19.855469 21.925781 19.933594 21.769531 19.777344 Z M 22.464844 18.703125 C 22.550781 18.519531 22.644531 18.425781 22.667969 18.5 C 22.691406 18.574219 22.621094 18.722656 22.511719 18.835938 C 22.324219 19.027344 22.316406 19.015625 22.464844 18.703125 Z M 24.160156 18.898438 C 24.253906 18.863281 24.359375 18.867188 24.402344 18.910156 C 24.441406 18.949219 24.371094 18.980469 24.238281 18.972656 C 24.089844 18.96875 24.0625 18.9375 24.160156 18.898438 Z M 9.652344 18.785156 C 9.613281 18.746094 9.363281 18.632812 9.101562 18.539062 C 8.839844 18.445312 8.722656 18.367188 8.847656 18.363281 C 9.074219 18.359375 9.808594 18.691406 9.808594 18.800781 C 9.808594 18.878906 9.742188 18.875 9.652344 18.785156 Z M 22.726562 17.296875 C 22.726562 16.816406 22.75 16.632812 22.777344 16.894531 C 22.804688 17.152344 22.800781 17.546875 22.777344 17.769531 C 22.746094 17.988281 22.726562 17.777344 22.726562 17.296875 Z M 22.714844 15.859375 C 22.714844 15.617188 22.738281 15.519531 22.769531 15.640625 C 22.800781 15.761719 22.800781 15.957031 22.769531 16.078125 C 22.738281 16.199219 22.714844 16.097656 22.714844 15.859375 Z M 22.128906 14.515625 C 21.863281 14.167969 21.839844 14.113281 22.050781 14.292969 C 22.300781 14.511719 22.628906 14.984375 22.535156 14.984375 C 22.511719 14.984375 22.332031 14.773438 22.128906 14.515625 Z M 21.589844 12.671875 C 21.59375 12.394531 21.621094 12.300781 21.648438 12.453125 C 21.679688 12.609375 21.675781 12.832031 21.644531 12.953125 C 21.613281 13.074219 21.589844 12.945312 21.589844 12.671875 Z M 21.386719 11.792969 C 21.269531 11.476562 21.300781 11.394531 21.449219 11.648438 C 21.523438 11.777344 21.558594 11.902344 21.523438 11.933594 C 21.492188 11.96875 21.433594 11.902344 21.386719 11.792969 Z M 14.832031 11.097656 C 14.859375 11.027344 14.917969 10.96875 14.96875 10.972656 C 15.019531 10.980469 15.144531 10.984375 15.246094 10.984375 C 15.351562 10.984375 15.433594 11.039062 15.433594 11.109375 C 15.433594 11.175781 15.289062 11.234375 15.113281 11.234375 C 14.933594 11.234375 14.808594 11.175781 14.832031 11.097656 Z M 21.070312 10.535156 C 21.074219 10.390625 21.105469 10.359375 21.144531 10.460938 C 21.183594 10.550781 21.175781 10.660156 21.136719 10.699219 C 21.09375 10.742188 21.066406 10.667969 21.070312 10.535156 Z M 20.804688 9.972656 C 20.726562 9.832031 20.6875 9.691406 20.714844 9.660156 C 20.746094 9.628906 20.832031 9.746094 20.910156 9.921875 C 21.082031 10.300781 21 10.339844 20.804688 9.972656 Z M 20.417969 9.265625 C 20.261719 9.066406 20.269531 9.0625 20.464844 9.21875 C 20.585938 9.3125 20.683594 9.410156 20.683594 9.4375 C 20.683594 9.539062 20.582031 9.472656 20.417969 9.265625 Z M 19.804688 8.515625 L 19.371094 8.046875 L 19.839844 8.476562 C 20.097656 8.714844 20.308594 8.925781 20.308594 8.945312 C 20.308594 9.042969 20.203125 8.949219 19.804688 8.515625 Z M 19.804688 8.515625 "/>
<path style=" stroke:none;fill-rule:nonzero;fill:rgb(31.372549%,31.372549%,30.588235%);fill-opacity:1;" d="M 12.058594 23.367188 C 12.058594 23.304688 12.128906 22.964844 12.207031 22.613281 C 12.320312 22.128906 12.417969 21.964844 12.613281 21.933594 C 13.636719 21.75 16.132812 21.480469 16.761719 21.480469 C 17.628906 21.484375 17.691406 21.53125 18.144531 22.503906 C 18.597656 23.488281 18.605469 23.484375 17.246094 23.484375 L 16.058594 23.484375 L 16.058594 21.859375 L 15.515625 21.859375 C 15.160156 21.859375 14.859375 21.945312 14.652344 22.105469 C 14.378906 22.324219 14.347656 22.425781 14.402344 22.917969 L 14.46875 23.484375 L 13.261719 23.484375 C 12.601562 23.484375 12.058594 23.433594 12.058594 23.367188 Z M 21.320312 22.871094 C 21.371094 22.535156 21.503906 22.082031 21.613281 21.871094 C 22.105469 20.921875 23.277344 19.949219 24.171875 19.75 L 24.6875 19.636719 L 24.671875 20.984375 C 24.652344 22.253906 24.636719 22.34375 24.371094 22.488281 C 23.84375 22.765625 23.675781 22.429688 23.957031 21.65625 C 24.238281 20.875 23.503906 20.519531 22.703125 21.050781 C 22.203125 21.378906 21.558594 22.382812 21.558594 22.832031 C 21.558594 23.15625 21.4375 23.484375 21.316406 23.484375 C 21.265625 23.484375 21.265625 23.207031 21.320312 22.871094 Z M 18.183594 20.355469 C 17.636719 19.925781 16.535156 19.574219 15.496094 19.496094 C 14.605469 19.429688 14.496094 19.394531 14.496094 19.171875 C 14.496094 18.941406 14.570312 18.925781 15.402344 18.953125 C 15.902344 18.972656 16.308594 18.941406 16.308594 18.882812 C 16.308594 18.597656 14.964844 17.488281 14.175781 17.117188 C 13.777344 16.933594 13.539062 16.71875 13.394531 16.417969 C 13.117188 15.832031 12.851562 15.871094 12.566406 16.53125 C 12.285156 17.1875 12.148438 17.292969 11.804688 17.105469 C 11.609375 17.003906 11.265625 17.015625 10.40625 17.164062 C 8.585938 17.476562 8.683594 17.515625 8.683594 16.441406 L 8.683594 15.527344 L 9.820312 15.308594 C 10.488281 15.179688 11.152344 15.121094 11.433594 15.171875 C 12.027344 15.269531 12.105469 15.164062 12.074219 14.214844 C 12.0625 13.8125 12.097656 13.484375 12.160156 13.484375 C 12.476562 13.484375 12.984375 14.308594 13.363281 15.433594 L 13.777344 16.671875 L 14.683594 17.152344 C 15.308594 17.488281 15.90625 17.957031 16.605469 18.667969 C 17.539062 19.617188 18.207031 20.109375 18.5625 20.109375 C 18.636719 20.109375 18.660156 20.042969 18.605469 19.957031 C 18.511719 19.808594 18.289062 16.789062 18.300781 15.828125 C 18.300781 15.570312 18.261719 15.359375 18.210938 15.359375 C 18.160156 15.359375 17.898438 15.539062 17.628906 15.761719 C 17.253906 16.070312 17.039062 16.15625 16.660156 16.140625 C 16.042969 16.117188 14.566406 15.636719 14.273438 15.363281 C 14.046875 15.152344 13.355469 13.011719 13.1875 12.015625 C 13.140625 11.722656 13.011719 11.386719 12.898438 11.261719 C 12.789062 11.140625 12.675781 10.824219 12.644531 10.558594 C 12.585938 10.035156 12.449219 9.902344 11.839844 9.785156 C 11.238281 9.667969 11.324219 9.347656 12.183594 8.484375 C 12.597656 8.070312 12.933594 7.683594 12.933594 7.617188 C 12.933594 7.554688 13.097656 7.667969 13.300781 7.867188 C 13.597656 8.164062 13.773438 8.234375 14.234375 8.234375 C 14.660156 8.234375 14.832031 8.292969 14.925781 8.464844 C 14.996094 8.59375 15.460938 8.941406 15.960938 9.234375 C 17.558594 10.167969 18.292969 11.128906 17.527344 11.285156 C 15.234375 11.761719 14.183594 11.691406 14.183594 11.058594 C 14.183594 10.632812 13.914062 10.449219 13.511719 10.605469 C 13.136719 10.746094 13.101562 10.882812 13.378906 11.113281 C 13.519531 11.230469 13.550781 11.40625 13.492188 11.792969 C 13.433594 12.179688 13.515625 12.660156 13.8125 13.679688 C 14.03125 14.429688 14.257812 15.136719 14.316406 15.246094 C 14.421875 15.445312 15.566406 15.816406 16.464844 15.941406 C 16.902344 16.003906 16.988281 15.957031 17.824219 15.183594 C 18.835938 14.246094 19.066406 14.191406 19.804688 14.703125 C 20.386719 15.105469 20.417969 15.257812 20 15.753906 C 19.828125 15.957031 19.605469 16.417969 19.503906 16.773438 C 19.300781 17.480469 19.050781 19.691406 19.144531 19.9375 C 19.238281 20.171875 18.953125 20.609375 18.710938 20.605469 C 18.59375 20.605469 18.355469 20.492188 18.183594 20.355469 Z M 15.433594 11.109375 C 15.433594 11.039062 15.351562 10.984375 15.246094 10.984375 C 15.144531 10.984375 15.019531 10.980469 14.96875 10.972656 C 14.917969 10.96875 14.859375 11.027344 14.832031 11.097656 C 14.808594 11.175781 14.933594 11.234375 15.113281 11.234375 C 15.289062 11.234375 15.433594 11.175781 15.433594 11.109375 Z M 8.777344 20.152344 C 8.863281 20.117188 9.003906 20.117188 9.089844 20.152344 C 9.175781 20.183594 9.105469 20.214844 8.933594 20.214844 C 8.761719 20.214844 8.691406 20.183594 8.777344 20.152344 Z M 9.800781 19.980469 C 10.429688 19.847656 10.753906 19.59375 10.648438 19.316406 C 10.605469 19.214844 10.152344 18.914062 9.628906 18.652344 C 8.769531 18.222656 8.476562 17.984375 8.808594 17.984375 C 8.878906 17.984375 8.933594 18.03125 8.933594 18.089844 C 8.933594 18.144531 9.160156 18.261719 9.433594 18.34375 C 9.710938 18.425781 9.933594 18.542969 9.933594 18.605469 C 9.933594 18.667969 10.132812 18.789062 10.371094 18.875 C 11.289062 19.207031 10.953125 19.972656 9.855469 20.058594 L 9.246094 20.101562 Z M 21.765625 19.941406 C 21.582031 19.800781 21.515625 19.589844 21.542969 19.269531 C 21.554688 19.183594 21.742188 19.023438 21.964844 18.910156 C 22.191406 18.792969 22.398438 18.675781 22.429688 18.648438 C 22.464844 18.621094 22.523438 18.136719 22.566406 17.570312 L 22.644531 16.546875 L 22.667969 17.382812 C 22.691406 18.417969 22.554688 18.792969 22.066406 19.042969 C 21.652344 19.257812 21.550781 19.691406 21.886719 19.816406 C 21.996094 19.863281 22.425781 19.722656 22.855469 19.503906 C 23.277344 19.289062 23.804688 19.074219 24.027344 19.03125 C 24.253906 18.988281 24.433594 18.902344 24.433594 18.84375 C 24.433594 18.785156 24.492188 18.734375 24.558594 18.734375 C 24.761719 18.734375 24.703125 19.074219 24.488281 19.160156 C 24.378906 19.199219 24.152344 19.234375 23.980469 19.234375 C 23.8125 19.234375 23.492188 19.332031 23.273438 19.449219 C 22.25 19.996094 21.957031 20.089844 21.765625 19.941406 Z M 22.558594 15.722656 C 22.558594 15.371094 22.261719 14.808594 21.847656 14.378906 C 21.636719 14.164062 21.527344 13.707031 21.597656 13.339844 C 21.636719 13.128906 21.65625 13.171875 21.667969 13.488281 C 21.679688 13.789062 21.839844 14.136719 22.183594 14.59375 C 22.539062 15.066406 22.683594 15.382812 22.683594 15.683594 C 22.683594 15.917969 22.65625 16.109375 22.621094 16.109375 C 22.589844 16.109375 22.558594 15.933594 22.558594 15.722656 Z M 21.402344 12.421875 C 21.355469 12.144531 21.285156 11.753906 21.246094 11.546875 C 21.199219 11.292969 21.238281 11.347656 21.375 11.710938 C 21.484375 12.007812 21.558594 12.402344 21.535156 12.585938 C 21.5 12.871094 21.480469 12.84375 21.402344 12.421875 Z M 21.070312 10.910156 C 21.074219 10.765625 21.105469 10.734375 21.144531 10.835938 C 21.183594 10.925781 21.175781 11.035156 21.136719 11.074219 C 21.09375 11.117188 21.066406 11.042969 21.070312 10.910156 Z M 20.761719 10.1875 C 20.652344 9.953125 20.558594 9.691406 20.558594 9.613281 C 20.558594 9.53125 20.136719 9.054688 19.621094 8.550781 C 19.105469 8.046875 18.683594 7.597656 18.683594 7.558594 C 18.683594 7.519531 18.769531 7.484375 18.871094 7.484375 C 18.976562 7.484375 19.058594 7.558594 19.058594 7.644531 C 19.058594 7.734375 19.386719 8.144531 19.785156 8.550781 C 20.445312 9.230469 21.175781 10.410156 21.027344 10.558594 C 20.996094 10.589844 20.875 10.425781 20.761719 10.1875 Z M 20.761719 10.1875 "/>
<path style=" stroke:none;fill-rule:nonzero;fill:rgb(30.588235%,12.941176%,12.156863%);fill-opacity:1;" d="M 18.160156 11.203125 C 17.855469 10.957031 17.675781 10.292969 17.851562 10.0625 C 18.246094 9.546875 19.808594 9.398438 20.160156 9.84375 C 20.246094 9.957031 20.386719 10.046875 20.472656 10.046875 C 20.554688 10.046875 20.636719 10.160156 20.660156 10.296875 C 20.699219 10.59375 20.128906 10.984375 19.652344 10.984375 C 19.480469 10.984375 19.136719 11.066406 18.894531 11.171875 C 18.351562 11.394531 18.402344 11.394531 18.160156 11.203125 Z M 18.160156 11.203125 "/>
<path style=" stroke:none;fill-rule:nonzero;fill:rgb(18.039216%,18.039216%,17.254902%);fill-opacity:1;" d="M 8.683594 22.933594 C 8.683594 22.429688 8.71875 22.371094 9.027344 22.300781 C 9.21875 22.257812 9.707031 22 10.121094 21.730469 C 10.941406 21.183594 11.125 21.160156 12.613281 21.363281 C 13.367188 21.472656 13.855469 21.457031 15.027344 21.292969 C 15.835938 21.175781 16.835938 21.058594 17.246094 21.019531 C 17.660156 20.984375 18.042969 20.914062 18.101562 20.863281 C 18.273438 20.699219 17.574219 20.25 17.019531 20.167969 C 16.730469 20.128906 15.90625 20.054688 15.183594 20.007812 L 13.871094 19.921875 L 13.863281 19.359375 C 13.847656 18.28125 13.714844 18.222656 13.027344 18.984375 C 12.503906 19.566406 12.226562 19.605469 11.757812 19.167969 C 11.371094 18.8125 11.183594 18.855469 11.183594 19.308594 C 11.183594 19.8125 10.664062 20.234375 10.035156 20.234375 C 9.738281 20.238281 9.355469 20.273438 9.183594 20.316406 C 9.011719 20.359375 8.914062 20.347656 8.964844 20.292969 C 9.019531 20.238281 9.378906 20.148438 9.769531 20.097656 C 10.960938 19.933594 11.316406 19.214844 10.371094 18.875 C 10.132812 18.789062 9.933594 18.667969 9.933594 18.609375 C 9.933594 18.445312 9.128906 18.214844 8.859375 18.304688 C 8.660156 18.371094 8.652344 18.359375 8.808594 18.238281 C 8.953125 18.125 8.957031 18.074219 8.839844 18.027344 C 8.753906 17.992188 8.683594 17.835938 8.683594 17.683594 C 8.683594 17.425781 8.777344 17.390625 9.839844 17.234375 C 10.996094 17.066406 11.523438 17.039062 11.996094 17.125 C 12.191406 17.160156 12.3125 17.039062 12.53125 16.578125 C 12.867188 15.871094 13.113281 15.828125 13.394531 16.417969 C 13.539062 16.71875 13.777344 16.933594 14.175781 17.117188 C 14.964844 17.488281 16.308594 18.597656 16.308594 18.882812 C 16.308594 18.941406 15.902344 18.972656 15.402344 18.953125 C 14.570312 18.925781 14.496094 18.941406 14.496094 19.171875 C 14.496094 19.394531 14.605469 19.429688 15.496094 19.496094 C 16.582031 19.582031 17.363281 19.820312 18.089844 20.300781 C 18.347656 20.472656 18.636719 20.609375 18.738281 20.609375 C 18.957031 20.609375 19.230469 20.15625 19.144531 19.9375 C 19.050781 19.691406 19.300781 17.480469 19.503906 16.773438 C 19.605469 16.417969 19.828125 15.957031 20 15.753906 C 20.417969 15.257812 20.386719 15.105469 19.804688 14.703125 C 19.066406 14.191406 18.835938 14.246094 17.824219 15.183594 C 16.988281 15.957031 16.902344 16.003906 16.464844 15.941406 C 15.566406 15.816406 14.421875 15.445312 14.316406 15.246094 C 14.257812 15.136719 14.03125 14.429688 13.8125 13.679688 C 13.515625 12.660156 13.433594 12.179688 13.492188 11.792969 C 13.550781 11.40625 13.519531 11.230469 13.378906 11.113281 C 13.101562 10.882812 13.136719 10.746094 13.511719 10.605469 C 13.914062 10.449219 14.183594 10.632812 14.183594 11.058594 C 14.183594 11.605469 14.847656 11.730469 16.425781 11.476562 C 17.789062 11.261719 17.808594 11.253906 17.816406 10.949219 L 17.824219 10.671875 L 17.941406 10.953125 C 18 11.105469 18.121094 11.234375 18.207031 11.234375 C 18.316406 11.234375 18.320312 11.273438 18.230469 11.363281 C 18.03125 11.5625 16.007812 11.855469 14.839844 11.859375 C 14.007812 11.859375 13.785156 11.898438 13.726562 12.058594 C 13.636719 12.289062 13.832031 13.230469 14.222656 14.429688 L 14.496094 15.28125 L 15.308594 15.488281 C 15.757812 15.601562 16.277344 15.738281 16.464844 15.789062 C 16.769531 15.875 16.894531 15.796875 17.675781 15.011719 C 18.503906 14.175781 18.585938 14.128906 19.476562 13.929688 C 20.503906 13.699219 21.011719 13.761719 21.128906 14.121094 C 21.253906 14.527344 21.433594 14.382812 21.433594 13.871094 C 21.433594 13.25 20.96875 10.964844 20.808594 10.804688 C 20.738281 10.738281 20.683594 10.570312 20.683594 10.433594 C 20.683594 9.550781 21.34375 11.640625 21.5 13.011719 C 21.609375 13.96875 21.667969 14.199219 21.847656 14.378906 C 22.515625 15.070312 22.601562 15.347656 22.585938 16.714844 C 22.5625 18.445312 22.503906 18.675781 22.046875 18.863281 C 21.597656 19.050781 21.429688 19.332031 21.566406 19.683594 C 21.722656 20.109375 21.960938 20.105469 22.816406 19.675781 C 23.261719 19.457031 23.863281 19.242188 24.160156 19.203125 C 24.65625 19.136719 24.699219 19.152344 24.660156 19.394531 C 24.632812 19.589844 24.496094 19.6875 24.144531 19.761719 C 23.292969 19.933594 22.101562 20.933594 21.613281 21.878906 C 21.5 22.097656 21.371094 22.53125 21.328125 22.847656 L 21.246094 23.421875 L 19.839844 23.457031 C 18.6875 23.484375 18.433594 23.460938 18.433594 23.3125 C 18.433594 23.09375 17.910156 21.941406 17.691406 21.675781 C 17.476562 21.417969 16.4375 21.421875 14.433594 21.683594 C 13.574219 21.792969 12.753906 21.90625 12.609375 21.933594 C 12.398438 21.972656 12.3125 22.128906 12.183594 22.730469 L 12.027344 23.484375 L 8.683594 23.484375 Z M 21.558594 21.011719 C 21.558594 20.925781 21.699219 20.789062 21.871094 20.710938 C 22.296875 20.519531 22.265625 20.359375 21.808594 20.359375 C 21.527344 20.359375 21.394531 20.277344 21.285156 20.046875 C 21.148438 19.738281 20.769531 19.625 20.628906 19.847656 C 20.589844 19.910156 20.316406 20.082031 20.019531 20.222656 C 19.71875 20.367188 19.398438 20.632812 19.300781 20.8125 C 19.136719 21.117188 19.152344 21.15625 19.5 21.433594 C 20.082031 21.898438 20.707031 21.777344 20.863281 21.175781 C 20.96875 20.746094 21.296875 20.75 21.214844 21.183594 C 21.179688 21.359375 21.074219 21.535156 20.980469 21.570312 C 20.875 21.613281 20.8125 21.828125 20.8125 22.152344 L 20.816406 22.671875 L 21.183594 21.921875 C 21.386719 21.507812 21.554688 21.097656 21.558594 21.011719 Z M 22.433594 16.738281 C 22.433594 15.738281 22.390625 15.34375 22.269531 15.269531 C 22.175781 15.214844 22.066406 15.074219 22.023438 14.953125 C 21.9375 14.71875 21.558594 14.644531 21.558594 14.863281 C 21.558594 14.933594 21.4375 15.160156 21.285156 15.363281 L 21.011719 15.734375 L 21.414062 16.148438 C 21.722656 16.464844 21.847656 16.742188 21.949219 17.335938 C 22.042969 17.847656 22.144531 18.109375 22.261719 18.109375 C 22.398438 18.109375 22.433594 17.824219 22.433594 16.738281 Z M 17.371094 10.230469 C 17.167969 10.019531 16.566406 9.59375 16.027344 9.277344 C 15.492188 8.964844 14.996094 8.601562 14.925781 8.472656 C 14.832031 8.292969 14.664062 8.234375 14.261719 8.234375 C 13.734375 8.234375 13.058594 7.878906 13.058594 7.597656 C 13.058594 7.535156 14.015625 7.484375 15.324219 7.484375 L 17.585938 7.484375 L 17.832031 7.796875 C 18.140625 8.1875 18.386719 8.195312 18.480469 7.816406 C 18.550781 7.539062 18.597656 7.5625 19.347656 8.285156 C 20.300781 9.203125 20.503906 9.449219 20.625 9.859375 L 20.714844 10.171875 L 20.386719 9.820312 C 20.207031 9.628906 20.058594 9.425781 20.058594 9.367188 C 20.058594 9.191406 18.953125 8.234375 18.75 8.234375 C 18.460938 8.234375 18.515625 8.34375 19.058594 8.871094 C 19.574219 9.371094 19.714844 9.695312 19.359375 9.558594 C 19.101562 9.457031 18.042969 9.816406 17.847656 10.066406 C 17.769531 10.171875 17.730469 10.335938 17.769531 10.433594 C 17.871094 10.699219 17.769531 10.644531 17.371094 10.230469 Z M 17.371094 10.230469 "/>
<path style=" stroke:none;fill-rule:nonzero;fill:rgb(5.098039%,5.098039%,3.921569%);fill-opacity:1;" d="M 20.8125 22.152344 C 20.8125 21.828125 20.875 21.613281 20.980469 21.570312 C 21.074219 21.535156 21.179688 21.359375 21.214844 21.183594 C 21.296875 20.75 20.96875 20.746094 20.863281 21.175781 C 20.707031 21.777344 20.082031 21.898438 19.5 21.433594 C 19.152344 21.15625 19.136719 21.117188 19.300781 20.8125 C 19.398438 20.632812 19.71875 20.367188 20.019531 20.222656 C 20.316406 20.082031 20.589844 19.910156 20.628906 19.847656 C 20.769531 19.625 21.148438 19.738281 21.285156 20.046875 C 21.394531 20.277344 21.527344 20.359375 21.808594 20.359375 C 22.265625 20.359375 22.296875 20.519531 21.871094 20.710938 C 21.699219 20.789062 21.558594 20.925781 21.558594 21.011719 C 21.554688 21.097656 21.386719 21.507812 21.183594 21.921875 L 20.816406 22.671875 Z M 8.683594 21.316406 C 8.683594 20.289062 8.695312 20.25 8.964844 20.265625 C 10.027344 20.320312 10.582031 20.222656 10.878906 19.925781 C 11.046875 19.757812 11.183594 19.480469 11.183594 19.308594 C 11.183594 18.855469 11.371094 18.8125 11.757812 19.167969 C 12.226562 19.605469 12.503906 19.566406 13.027344 18.984375 C 13.714844 18.222656 13.847656 18.28125 13.863281 19.359375 L 13.871094 19.921875 L 15.183594 20.007812 C 15.90625 20.054688 16.730469 20.128906 17.019531 20.167969 C 17.574219 20.25 18.273438 20.699219 18.101562 20.863281 C 18.042969 20.914062 17.660156 20.984375 17.246094 21.019531 C 16.835938 21.058594 15.835938 21.175781 15.027344 21.292969 C 13.855469 21.457031 13.367188 21.472656 12.613281 21.363281 C 11.128906 21.160156 10.941406 21.183594 10.121094 21.722656 C 9.707031 21.992188 9.214844 22.253906 9.027344 22.300781 L 8.683594 22.386719 Z M 21.949219 17.335938 C 21.847656 16.742188 21.722656 16.464844 21.414062 16.148438 L 21.011719 15.734375 L 21.285156 15.363281 C 21.4375 15.160156 21.558594 14.933594 21.558594 14.863281 C 21.558594 14.644531 21.9375 14.71875 22.023438 14.953125 C 22.066406 15.074219 22.175781 15.214844 22.269531 15.269531 C 22.515625 15.417969 22.507812 18.109375 22.261719 18.109375 C 22.144531 18.109375 22.042969 17.847656 21.949219 17.335938 Z M 16.414062 15.796875 C 16.378906 15.761719 15.933594 15.628906 15.425781 15.507812 L 14.496094 15.277344 L 14.222656 14.425781 C 13.832031 13.230469 13.636719 12.289062 13.726562 12.058594 C 13.785156 11.898438 14.019531 11.855469 14.902344 11.851562 C 16.527344 11.839844 19.167969 11.308594 20.238281 10.777344 C 20.535156 10.628906 20.628906 10.625 20.765625 10.761719 C 20.957031 10.953125 21.433594 13.171875 21.433594 13.871094 C 21.433594 14.382812 21.253906 14.527344 21.128906 14.121094 C 21.011719 13.761719 20.503906 13.699219 19.476562 13.929688 C 18.589844 14.128906 18.503906 14.175781 17.6875 14.996094 C 16.914062 15.777344 16.59375 15.976562 16.414062 15.796875 Z M 20.199219 9.890625 C 20.121094 9.734375 19.949219 9.609375 19.828125 9.609375 C 19.703125 9.609375 19.523438 9.464844 19.429688 9.285156 C 19.332031 9.105469 19.097656 8.851562 18.910156 8.714844 C 18.523438 8.441406 18.457031 8.234375 18.75 8.234375 C 18.96875 8.234375 20.058594 9.199219 20.058594 9.394531 C 20.058594 9.460938 20.152344 9.585938 20.265625 9.667969 C 20.378906 9.75 20.441406 9.898438 20.410156 9.996094 C 20.367188 10.121094 20.308594 10.09375 20.199219 9.890625 Z M 17.894531 7.878906 C 17.589844 7.550781 17.632812 7.484375 18.136719 7.484375 C 18.496094 7.484375 18.570312 7.523438 18.511719 7.683594 C 18.46875 7.789062 18.433594 7.929688 18.433594 7.996094 C 18.433594 8.191406 18.109375 8.121094 17.894531 7.878906 Z M 17.894531 7.878906 "/>
</g>
</svg>
