
<svg xmlns="http://www.w3.org/2000/svg" xmlns:xlink="http://www.w3.org/1999/xlink" width="32px" height="32px" viewBox="0 0 32 32" version="1.1">
<g id="surface1">
<path style=" stroke:none;fill-rule:nonzero;fill:rgb(80%,98.823529%,7.843137%);fill-opacity:1;" d="M 5.1875 28.367188 C -9.171875 16.957031 9.222656 -6.589844 24.695312 1.753906 C 39.273438 9.613281 30.082031 33.523438 14.257812 31.925781 C 10.957031 31.589844 7.824219 30.460938 5.1875 28.367188 Z M 5.1875 28.367188 "/>
<path style=" stroke:none;fill-rule:nonzero;fill:rgb(65.882353%,90.196078%,0%);fill-opacity:1;" d="M 15.910156 4.570312 C 9.757812 4.570312 4.769531 9.671875 4.769531 15.964844 C 4.769531 22.253906 9.757812 27.355469 15.910156 27.355469 C 22.0625 27.355469 27.050781 22.253906 27.050781 15.964844 C 27.050781 9.671875 22.0625 4.570312 15.910156 4.570312 Z M 15.910156 4.570312 "/>
<path style=" stroke:none;fill-rule:nonzero;fill:rgb(0%,0%,0%);fill-opacity:0.101961;" d="M 13.972656 11.503906 L 13.972656 21.410156 L 21.238281 16.457031 M 16.394531 14.476562 C 17.570312 14.480469 18.332031 15.550781 18.332031 16.457031 C 18.332031 17.941406 16.878906 18.4375 16.394531 18.4375 L 16.394531 17.449219 C 18.019531 17.28125 17.488281 15.035156 15.910156 15.464844 L 15.910156 18.4375 L 14.941406 18.4375 L 14.941406 15.25 C 14.941406 14.980469 15.425781 14.476562 16.394531 14.476562 "/>
<path style=" stroke:none;fill-rule:evenodd;fill:rgb(100%,99.215686%,93.333333%);fill-opacity:1;" d="M 15.910156 8.535156 C 19.921875 8.535156 23.175781 11.859375 23.175781 15.964844 C 23.175781 20.066406 19.921875 23.394531 15.910156 23.394531 C 11.894531 23.394531 8.644531 20.066406 8.644531 15.964844 C 8.644531 11.859375 11.894531 8.535156 15.910156 8.535156 "/>
<path style=" stroke:none;fill-rule:nonzero;fill:rgb(72.156863%,97.254902%,0%);fill-opacity:1;" d="M 13.488281 11.011719 L 13.488281 20.917969 L 20.753906 15.964844 M 15.910156 13.980469 C 17.089844 13.988281 17.847656 15.058594 17.847656 15.964844 C 17.847656 17.449219 16.394531 17.941406 15.910156 17.941406 L 15.910156 16.953125 C 17.535156 16.785156 17.003906 14.539062 15.425781 14.972656 L 15.425781 17.941406 L 14.457031 17.941406 L 14.457031 14.753906 C 14.457031 14.484375 14.941406 13.980469 15.910156 13.980469 "/>
</g>
</svg>
