
<svg xmlns="http://www.w3.org/2000/svg" xmlns:xlink="http://www.w3.org/1999/xlink" width="32px" height="32px" viewBox="0 0 32 32" version="1.1">
<defs>
<clipPath id="clip1">
  <path d="M 10 7.332031 L 22 7.332031 L 22 22.667969 L 10 22.667969 Z M 10 7.332031 "/>
</clipPath>
<clipPath id="clip2">
  <path d="M 5.777344 2.902344 L 26.21875 2.902344 C 27.40625 2.902344 28.371094 3.910156 28.371094 5.152344 L 28.371094 26.515625 C 28.371094 27.757812 27.40625 28.761719 26.21875 28.761719 L 5.777344 28.761719 C 4.589844 28.761719 3.628906 27.757812 3.628906 26.515625 L 3.628906 5.152344 C 3.628906 3.910156 4.589844 2.902344 5.777344 2.902344 Z M 5.777344 2.902344 "/>
</clipPath>
</defs>
<g id="surface1">
<path style=" stroke:none;fill-rule:nonzero;fill:rgb(0%,74.901961%,100%);fill-opacity:1;" d="M 6.597656 28.878906 C 30.652344 44.871094 45.472656 -6.132812 14.371094 0.621094 C 1.519531 3.496094 -6.277344 21.542969 6.597656 28.878906 Z M 6.597656 28.878906 "/>
<g clip-path="url(#clip1)" clip-rule="nonzero">
<g clip-path="url(#clip2)" clip-rule="nonzero">
<path style=" stroke:none;fill-rule:nonzero;fill:rgb(97.647059%,97.647059%,97.647059%);fill-opacity:1;" d="M 15.910156 7.964844 C 14.308594 10.246094 8.871094 16.691406 11.183594 20.410156 C 12.980469 23.292969 19.074219 23.308594 20.847656 20.410156 C 23.152344 16.644531 17.273438 10.246094 15.910156 7.964844 M 15.910156 7.964844 "/>
</g>
</g>
</g>
</svg>
