
<svg xmlns="http://www.w3.org/2000/svg" xmlns:xlink="http://www.w3.org/1999/xlink" width="32px" height="32px" viewBox="0 0 32 32" version="1.1">
<defs>
<clipPath id="clip1">
  <path d="M 4.667969 5.332031 L 28.667969 5.332031 L 28.667969 23.332031 L 4.667969 23.332031 Z M 4.667969 5.332031 "/>
</clipPath>
<clipPath id="clip2">
  <path d="M 25.675781 28.441406 C 22.082031 33.082031 11.136719 33.082031 7.542969 28.441406 C 3.949219 23.804688 3.949219 9.683594 7.542969 5.046875 C 11.136719 0.410156 22.082031 0.410156 25.675781 5.046875 C 29.273438 9.683594 29.273438 23.804688 25.675781 28.441406 Z M 25.675781 28.441406 "/>
</clipPath>
<linearGradient id="linear0" gradientUnits="userSpaceOnUse" x1="28.388" y1="0" x2="488.29" y2="0" gradientTransform="matrix(1,0,0,1,0.000000000000014211,0)">
<stop offset="0" style="stop-color:rgb(100%,100%,100%);stop-opacity:1;"/>
<stop offset="1" style="stop-color:rgb(100%,100%,100%);stop-opacity:0;"/>
</linearGradient>
<clipPath id="clip3">
  <path d="M 4.667969 6 L 28.667969 6 L 28.667969 23.332031 L 4.667969 23.332031 Z M 4.667969 6 "/>
</clipPath>
<clipPath id="clip4">
  <path d="M 25.675781 28.441406 C 22.082031 33.082031 11.136719 33.082031 7.542969 28.441406 C 3.949219 23.804688 3.949219 9.683594 7.542969 5.046875 C 11.136719 0.410156 22.082031 0.410156 25.675781 5.046875 C 29.273438 9.683594 29.273438 23.804688 25.675781 28.441406 Z M 25.675781 28.441406 "/>
</clipPath>
<linearGradient id="linear1" gradientUnits="userSpaceOnUse" x1="28.388" y1="0" x2="488.29" y2="0" gradientTransform="matrix(1,0,0,1,0.000000000000014211,0)">
<stop offset="0" style="stop-color:rgb(100%,100%,100%);stop-opacity:1;"/>
<stop offset="1" style="stop-color:rgb(100%,100%,100%);stop-opacity:0;"/>
</linearGradient>
<clipPath id="clip5">
  <path d="M 4.667969 6.667969 L 28.667969 6.667969 L 28.667969 23.332031 L 4.667969 23.332031 Z M 4.667969 6.667969 "/>
</clipPath>
<clipPath id="clip6">
  <path d="M 25.675781 28.441406 C 22.082031 33.082031 11.136719 33.082031 7.542969 28.441406 C 3.949219 23.804688 3.949219 9.683594 7.542969 5.046875 C 11.136719 0.410156 22.082031 0.410156 25.675781 5.046875 C 29.273438 9.683594 29.273438 23.804688 25.675781 28.441406 Z M 25.675781 28.441406 "/>
</clipPath>
<linearGradient id="linear2" gradientUnits="userSpaceOnUse" x1="28.388" y1="0" x2="488.29" y2="0" gradientTransform="matrix(1,0,0,1,0.000000000000014211,0)">
<stop offset="0" style="stop-color:rgb(100%,100%,100%);stop-opacity:1;"/>
<stop offset="1" style="stop-color:rgb(100%,100%,100%);stop-opacity:0;"/>
</linearGradient>
<clipPath id="clip7">
  <path d="M 4.667969 7 L 28.667969 7 L 28.667969 23.332031 L 4.667969 23.332031 Z M 4.667969 7 "/>
</clipPath>
<clipPath id="clip8">
  <path d="M 25.675781 28.441406 C 22.082031 33.082031 11.136719 33.082031 7.542969 28.441406 C 3.949219 23.804688 3.949219 9.683594 7.542969 5.046875 C 11.136719 0.410156 22.082031 0.410156 25.675781 5.046875 C 29.273438 9.683594 29.273438 23.804688 25.675781 28.441406 Z M 25.675781 28.441406 "/>
</clipPath>
<linearGradient id="linear3" gradientUnits="userSpaceOnUse" x1="28.388" y1="0" x2="488.29" y2="0" gradientTransform="matrix(1,0,0,1,0.000000000000014211,0)">
<stop offset="0" style="stop-color:rgb(100%,100%,100%);stop-opacity:1;"/>
<stop offset="1" style="stop-color:rgb(100%,100%,100%);stop-opacity:0;"/>
</linearGradient>
<clipPath id="clip9">
  <path d="M 4.667969 7.332031 L 28.667969 7.332031 L 28.667969 24 L 4.667969 24 Z M 4.667969 7.332031 "/>
</clipPath>
<clipPath id="clip10">
  <path d="M 25.675781 28.441406 C 22.082031 33.082031 11.136719 33.082031 7.542969 28.441406 C 3.949219 23.804688 3.949219 9.683594 7.542969 5.046875 C 11.136719 0.410156 22.082031 0.410156 25.675781 5.046875 C 29.273438 9.683594 29.273438 23.804688 25.675781 28.441406 Z M 25.675781 28.441406 "/>
</clipPath>
<linearGradient id="linear4" gradientUnits="userSpaceOnUse" x1="28.388" y1="0" x2="488.29" y2="0" gradientTransform="matrix(1,0,0,1,0.000000000000014211,0)">
<stop offset="0" style="stop-color:rgb(100%,100%,100%);stop-opacity:1;"/>
<stop offset="1" style="stop-color:rgb(100%,100%,100%);stop-opacity:0;"/>
</linearGradient>
<linearGradient id="linear5" gradientUnits="userSpaceOnUse" x1="28.388" y1="0" x2="488.29" y2="0" gradientTransform="matrix(1,0,0,1,0.000000000000014211,0)">
<stop offset="0" style="stop-color:rgb(100%,100%,100%);stop-opacity:1;"/>
<stop offset="1" style="stop-color:rgb(100%,100%,100%);stop-opacity:0;"/>
</linearGradient>
<clipPath id="clip11">
  <path d="M 4.667969 8 L 28.667969 8 L 28.667969 24 L 4.667969 24 Z M 4.667969 8 "/>
</clipPath>
<clipPath id="clip12">
  <path d="M 25.675781 28.441406 C 22.082031 33.082031 11.136719 33.082031 7.542969 28.441406 C 3.949219 23.804688 3.949219 9.683594 7.542969 5.046875 C 11.136719 0.410156 22.082031 0.410156 25.675781 5.046875 C 29.273438 9.683594 29.273438 23.804688 25.675781 28.441406 Z M 25.675781 28.441406 "/>
</clipPath>
<linearGradient id="linear6" gradientUnits="userSpaceOnUse" x1="28.388" y1="0" x2="488.29" y2="0" gradientTransform="matrix(1,0,0,1,0.000000000000014211,0)">
<stop offset="0" style="stop-color:rgb(100%,100%,100%);stop-opacity:1;"/>
<stop offset="1" style="stop-color:rgb(100%,100%,100%);stop-opacity:0;"/>
</linearGradient>
<clipPath id="clip13">
  <path d="M 4.667969 8.667969 L 28.667969 8.667969 L 28.667969 24 L 4.667969 24 Z M 4.667969 8.667969 "/>
</clipPath>
<clipPath id="clip14">
  <path d="M 25.675781 28.441406 C 22.082031 33.082031 11.136719 33.082031 7.542969 28.441406 C 3.949219 23.804688 3.949219 9.683594 7.542969 5.046875 C 11.136719 0.410156 22.082031 0.410156 25.675781 5.046875 C 29.273438 9.683594 29.273438 23.804688 25.675781 28.441406 Z M 25.675781 28.441406 "/>
</clipPath>
<linearGradient id="linear7" gradientUnits="userSpaceOnUse" x1="28.388" y1="0" x2="488.29" y2="0" gradientTransform="matrix(1,0,0,1,0.000000000000014211,0)">
<stop offset="0" style="stop-color:rgb(100%,100%,100%);stop-opacity:1;"/>
<stop offset="1" style="stop-color:rgb(100%,100%,100%);stop-opacity:0;"/>
</linearGradient>
<clipPath id="clip15">
  <path d="M 4.667969 9 L 28.667969 9 L 28.667969 24 L 4.667969 24 Z M 4.667969 9 "/>
</clipPath>
<clipPath id="clip16">
  <path d="M 25.675781 28.441406 C 22.082031 33.082031 11.136719 33.082031 7.542969 28.441406 C 3.949219 23.804688 3.949219 9.683594 7.542969 5.046875 C 11.136719 0.410156 22.082031 0.410156 25.675781 5.046875 C 29.273438 9.683594 29.273438 23.804688 25.675781 28.441406 Z M 25.675781 28.441406 "/>
</clipPath>
<linearGradient id="linear8" gradientUnits="userSpaceOnUse" x1="28.388" y1="0" x2="488.29" y2="0" gradientTransform="matrix(1,0,0,1,0.000000000000014211,0)">
<stop offset="0" style="stop-color:rgb(100%,100%,100%);stop-opacity:1;"/>
<stop offset="1" style="stop-color:rgb(100%,100%,100%);stop-opacity:0;"/>
</linearGradient>
<clipPath id="clip17">
  <path d="M 4.667969 9.332031 L 28.667969 9.332031 L 28.667969 24 L 4.667969 24 Z M 4.667969 9.332031 "/>
</clipPath>
<clipPath id="clip18">
  <path d="M 25.675781 28.441406 C 22.082031 33.082031 11.136719 33.082031 7.542969 28.441406 C 3.949219 23.804688 3.949219 9.683594 7.542969 5.046875 C 11.136719 0.410156 22.082031 0.410156 25.675781 5.046875 C 29.273438 9.683594 29.273438 23.804688 25.675781 28.441406 Z M 25.675781 28.441406 "/>
</clipPath>
<linearGradient id="linear9" gradientUnits="userSpaceOnUse" x1="28.388" y1="0" x2="488.29" y2="0" gradientTransform="matrix(1,0,0,1,0.000000000000014211,0)">
<stop offset="0" style="stop-color:rgb(100%,100%,100%);stop-opacity:1;"/>
<stop offset="1" style="stop-color:rgb(100%,100%,100%);stop-opacity:0;"/>
</linearGradient>
<clipPath id="clip19">
  <path d="M 4.667969 10 L 28.667969 10 L 28.667969 24 L 4.667969 24 Z M 4.667969 10 "/>
</clipPath>
<clipPath id="clip20">
  <path d="M 25.675781 28.441406 C 22.082031 33.082031 11.136719 33.082031 7.542969 28.441406 C 3.949219 23.804688 3.949219 9.683594 7.542969 5.046875 C 11.136719 0.410156 22.082031 0.410156 25.675781 5.046875 C 29.273438 9.683594 29.273438 23.804688 25.675781 28.441406 Z M 25.675781 28.441406 "/>
</clipPath>
<linearGradient id="linear10" gradientUnits="userSpaceOnUse" x1="28.388" y1="0" x2="488.29" y2="0" gradientTransform="matrix(1,0,0,1,0.000000000000014211,0)">
<stop offset="0" style="stop-color:rgb(100%,100%,100%);stop-opacity:1;"/>
<stop offset="1" style="stop-color:rgb(100%,100%,100%);stop-opacity:0;"/>
</linearGradient>
<linearGradient id="linear11" gradientUnits="userSpaceOnUse" x1="28.388" y1="0" x2="488.29" y2="0" gradientTransform="matrix(1,0,0,1,0.000000000000014211,0)">
<stop offset="0" style="stop-color:rgb(100%,100%,100%);stop-opacity:1;"/>
<stop offset="1" style="stop-color:rgb(100%,100%,100%);stop-opacity:0;"/>
</linearGradient>
<clipPath id="clip21">
  <path d="M 4.667969 10.667969 L 28.667969 10.667969 L 28.667969 24 L 4.667969 24 Z M 4.667969 10.667969 "/>
</clipPath>
<clipPath id="clip22">
  <path d="M 25.675781 28.441406 C 22.082031 33.082031 11.136719 33.082031 7.542969 28.441406 C 3.949219 23.804688 3.949219 9.683594 7.542969 5.046875 C 11.136719 0.410156 22.082031 0.410156 25.675781 5.046875 C 29.273438 9.683594 29.273438 23.804688 25.675781 28.441406 Z M 25.675781 28.441406 "/>
</clipPath>
<linearGradient id="linear12" gradientUnits="userSpaceOnUse" x1="28.388" y1="0" x2="488.29" y2="0" gradientTransform="matrix(1,0,0,1,0.000000000000014211,0)">
<stop offset="0" style="stop-color:rgb(100%,100%,100%);stop-opacity:1;"/>
<stop offset="1" style="stop-color:rgb(100%,100%,100%);stop-opacity:0;"/>
</linearGradient>
<clipPath id="clip23">
  <path d="M 4.667969 11 L 28.667969 11 L 28.667969 24.667969 L 4.667969 24.667969 Z M 4.667969 11 "/>
</clipPath>
<clipPath id="clip24">
  <path d="M 25.675781 28.441406 C 22.082031 33.082031 11.136719 33.082031 7.542969 28.441406 C 3.949219 23.804688 3.949219 9.683594 7.542969 5.046875 C 11.136719 0.410156 22.082031 0.410156 25.675781 5.046875 C 29.273438 9.683594 29.273438 23.804688 25.675781 28.441406 Z M 25.675781 28.441406 "/>
</clipPath>
<linearGradient id="linear13" gradientUnits="userSpaceOnUse" x1="28.388" y1="0" x2="488.29" y2="0" gradientTransform="matrix(1,0,0,1,0.000000000000014211,0)">
<stop offset="0" style="stop-color:rgb(100%,100%,100%);stop-opacity:1;"/>
<stop offset="1" style="stop-color:rgb(100%,100%,100%);stop-opacity:0;"/>
</linearGradient>
<clipPath id="clip25">
  <path d="M 4.667969 11.332031 L 28.667969 11.332031 L 28.667969 24.667969 L 4.667969 24.667969 Z M 4.667969 11.332031 "/>
</clipPath>
<clipPath id="clip26">
  <path d="M 25.675781 28.441406 C 22.082031 33.082031 11.136719 33.082031 7.542969 28.441406 C 3.949219 23.804688 3.949219 9.683594 7.542969 5.046875 C 11.136719 0.410156 22.082031 0.410156 25.675781 5.046875 C 29.273438 9.683594 29.273438 23.804688 25.675781 28.441406 Z M 25.675781 28.441406 "/>
</clipPath>
<linearGradient id="linear14" gradientUnits="userSpaceOnUse" x1="28.388" y1="0" x2="488.29" y2="0" gradientTransform="matrix(1,0,0,1,0.000000000000014211,0)">
<stop offset="0" style="stop-color:rgb(100%,100%,100%);stop-opacity:1;"/>
<stop offset="1" style="stop-color:rgb(100%,100%,100%);stop-opacity:0;"/>
</linearGradient>
<clipPath id="clip27">
  <path d="M 4.667969 12 L 28.667969 12 L 28.667969 24.667969 L 4.667969 24.667969 Z M 4.667969 12 "/>
</clipPath>
<clipPath id="clip28">
  <path d="M 25.675781 28.441406 C 22.082031 33.082031 11.136719 33.082031 7.542969 28.441406 C 3.949219 23.804688 3.949219 9.683594 7.542969 5.046875 C 11.136719 0.410156 22.082031 0.410156 25.675781 5.046875 C 29.273438 9.683594 29.273438 23.804688 25.675781 28.441406 Z M 25.675781 28.441406 "/>
</clipPath>
<linearGradient id="linear15" gradientUnits="userSpaceOnUse" x1="28.388" y1="0" x2="488.29" y2="0" gradientTransform="matrix(1,0,0,1,0.000000000000014211,0)">
<stop offset="0" style="stop-color:rgb(100%,100%,100%);stop-opacity:1;"/>
<stop offset="1" style="stop-color:rgb(100%,100%,100%);stop-opacity:0;"/>
</linearGradient>
<linearGradient id="linear16" gradientUnits="userSpaceOnUse" x1="28.388" y1="0" x2="488.29" y2="0" gradientTransform="matrix(1,0,0,1,0.000000000000014211,0)">
<stop offset="0" style="stop-color:rgb(100%,100%,100%);stop-opacity:1;"/>
<stop offset="1" style="stop-color:rgb(100%,100%,100%);stop-opacity:0;"/>
</linearGradient>
<clipPath id="clip29">
  <path d="M 4.667969 12.667969 L 28.667969 12.667969 L 28.667969 24.667969 L 4.667969 24.667969 Z M 4.667969 12.667969 "/>
</clipPath>
<clipPath id="clip30">
  <path d="M 25.675781 28.441406 C 22.082031 33.082031 11.136719 33.082031 7.542969 28.441406 C 3.949219 23.804688 3.949219 9.683594 7.542969 5.046875 C 11.136719 0.410156 22.082031 0.410156 25.675781 5.046875 C 29.273438 9.683594 29.273438 23.804688 25.675781 28.441406 Z M 25.675781 28.441406 "/>
</clipPath>
<linearGradient id="linear17" gradientUnits="userSpaceOnUse" x1="28.388" y1="0" x2="488.29" y2="0" gradientTransform="matrix(1,0,0,1,0.000000000000014211,0)">
<stop offset="0" style="stop-color:rgb(100%,100%,100%);stop-opacity:1;"/>
<stop offset="1" style="stop-color:rgb(100%,100%,100%);stop-opacity:0;"/>
</linearGradient>
<clipPath id="clip31">
  <path d="M 4.667969 13.332031 L 28.667969 13.332031 L 28.667969 24.667969 L 4.667969 24.667969 Z M 4.667969 13.332031 "/>
</clipPath>
<clipPath id="clip32">
  <path d="M 25.675781 28.441406 C 22.082031 33.082031 11.136719 33.082031 7.542969 28.441406 C 3.949219 23.804688 3.949219 9.683594 7.542969 5.046875 C 11.136719 0.410156 22.082031 0.410156 25.675781 5.046875 C 29.273438 9.683594 29.273438 23.804688 25.675781 28.441406 Z M 25.675781 28.441406 "/>
</clipPath>
<linearGradient id="linear18" gradientUnits="userSpaceOnUse" x1="28.388" y1="0" x2="488.29" y2="0" gradientTransform="matrix(1,0,0,1,0.000000000000014211,0)">
<stop offset="0" style="stop-color:rgb(100%,100%,100%);stop-opacity:1;"/>
<stop offset="1" style="stop-color:rgb(100%,100%,100%);stop-opacity:0;"/>
</linearGradient>
<linearGradient id="linear19" gradientUnits="userSpaceOnUse" x1="28.388" y1="0" x2="488.29" y2="0" gradientTransform="matrix(1,0,0,1,0.000000000000014211,0)">
<stop offset="0" style="stop-color:rgb(100%,100%,100%);stop-opacity:1;"/>
<stop offset="1" style="stop-color:rgb(100%,100%,100%);stop-opacity:0;"/>
</linearGradient>
<clipPath id="clip33">
  <path d="M 4.667969 14 L 28.667969 14 L 28.667969 24.667969 L 4.667969 24.667969 Z M 4.667969 14 "/>
</clipPath>
<clipPath id="clip34">
  <path d="M 25.675781 28.441406 C 22.082031 33.082031 11.136719 33.082031 7.542969 28.441406 C 3.949219 23.804688 3.949219 9.683594 7.542969 5.046875 C 11.136719 0.410156 22.082031 0.410156 25.675781 5.046875 C 29.273438 9.683594 29.273438 23.804688 25.675781 28.441406 Z M 25.675781 28.441406 "/>
</clipPath>
<linearGradient id="linear20" gradientUnits="userSpaceOnUse" x1="28.388" y1="0" x2="488.29" y2="0" gradientTransform="matrix(1,0,0,1,0.000000000000014211,0)">
<stop offset="0" style="stop-color:rgb(100%,100%,100%);stop-opacity:1;"/>
<stop offset="1" style="stop-color:rgb(100%,100%,100%);stop-opacity:0;"/>
</linearGradient>
<linearGradient id="linear21" gradientUnits="userSpaceOnUse" x1="28.388" y1="0" x2="488.29" y2="0" gradientTransform="matrix(1,0,0,1,0.000000000000014211,0)">
<stop offset="0" style="stop-color:rgb(100%,100%,100%);stop-opacity:1;"/>
<stop offset="1" style="stop-color:rgb(100%,100%,100%);stop-opacity:0;"/>
</linearGradient>
<clipPath id="clip35">
  <path d="M 4.667969 14.667969 L 28.667969 14.667969 L 28.667969 25 L 4.667969 25 Z M 4.667969 14.667969 "/>
</clipPath>
<clipPath id="clip36">
  <path d="M 25.675781 28.441406 C 22.082031 33.082031 11.136719 33.082031 7.542969 28.441406 C 3.949219 23.804688 3.949219 9.683594 7.542969 5.046875 C 11.136719 0.410156 22.082031 0.410156 25.675781 5.046875 C 29.273438 9.683594 29.273438 23.804688 25.675781 28.441406 Z M 25.675781 28.441406 "/>
</clipPath>
<linearGradient id="linear22" gradientUnits="userSpaceOnUse" x1="28.388" y1="0" x2="488.29" y2="0" gradientTransform="matrix(1,0,0,1,0.000000000000014211,0)">
<stop offset="0" style="stop-color:rgb(100%,100%,100%);stop-opacity:1;"/>
<stop offset="1" style="stop-color:rgb(100%,100%,100%);stop-opacity:0;"/>
</linearGradient>
<clipPath id="clip37">
  <path d="M 4.667969 15 L 28.667969 15 L 28.667969 25 L 4.667969 25 Z M 4.667969 15 "/>
</clipPath>
<clipPath id="clip38">
  <path d="M 25.675781 28.441406 C 22.082031 33.082031 11.136719 33.082031 7.542969 28.441406 C 3.949219 23.804688 3.949219 9.683594 7.542969 5.046875 C 11.136719 0.410156 22.082031 0.410156 25.675781 5.046875 C 29.273438 9.683594 29.273438 23.804688 25.675781 28.441406 Z M 25.675781 28.441406 "/>
</clipPath>
<linearGradient id="linear23" gradientUnits="userSpaceOnUse" x1="28.388" y1="0" x2="488.29" y2="0" gradientTransform="matrix(1,0,0,1,0.000000000000014211,0)">
<stop offset="0" style="stop-color:rgb(100%,100%,100%);stop-opacity:1;"/>
<stop offset="1" style="stop-color:rgb(100%,100%,100%);stop-opacity:0;"/>
</linearGradient>
<linearGradient id="linear24" gradientUnits="userSpaceOnUse" x1="28.388" y1="0" x2="488.29" y2="0" gradientTransform="matrix(1,0,0,1,0.000000000000014211,0)">
<stop offset="0" style="stop-color:rgb(100%,100%,100%);stop-opacity:1;"/>
<stop offset="1" style="stop-color:rgb(100%,100%,100%);stop-opacity:0;"/>
</linearGradient>
<clipPath id="clip39">
  <path d="M 4.667969 15.332031 L 28.667969 15.332031 L 28.667969 25 L 4.667969 25 Z M 4.667969 15.332031 "/>
</clipPath>
<clipPath id="clip40">
  <path d="M 25.675781 28.441406 C 22.082031 33.082031 11.136719 33.082031 7.542969 28.441406 C 3.949219 23.804688 3.949219 9.683594 7.542969 5.046875 C 11.136719 0.410156 22.082031 0.410156 25.675781 5.046875 C 29.273438 9.683594 29.273438 23.804688 25.675781 28.441406 Z M 25.675781 28.441406 "/>
</clipPath>
<linearGradient id="linear25" gradientUnits="userSpaceOnUse" x1="28.388" y1="0" x2="488.29" y2="0" gradientTransform="matrix(1,0,0,1,0.000000000000014211,0)">
<stop offset="0" style="stop-color:rgb(100%,100%,100%);stop-opacity:1;"/>
<stop offset="1" style="stop-color:rgb(100%,100%,100%);stop-opacity:0;"/>
</linearGradient>
<clipPath id="clip41">
  <path d="M 4.667969 15.332031 L 28.667969 15.332031 L 28.667969 25.332031 L 4.667969 25.332031 Z M 4.667969 15.332031 "/>
</clipPath>
<clipPath id="clip42">
  <path d="M 25.675781 28.441406 C 22.082031 33.082031 11.136719 33.082031 7.542969 28.441406 C 3.949219 23.804688 3.949219 9.683594 7.542969 5.046875 C 11.136719 0.410156 22.082031 0.410156 25.675781 5.046875 C 29.273438 9.683594 29.273438 23.804688 25.675781 28.441406 Z M 25.675781 28.441406 "/>
</clipPath>
<linearGradient id="linear26" gradientUnits="userSpaceOnUse" x1="28.388" y1="0" x2="488.29" y2="0" gradientTransform="matrix(1,0,0,1,0.000000000000014211,0)">
<stop offset="0" style="stop-color:rgb(100%,100%,100%);stop-opacity:1;"/>
<stop offset="1" style="stop-color:rgb(100%,100%,100%);stop-opacity:0;"/>
</linearGradient>
<linearGradient id="linear27" gradientUnits="userSpaceOnUse" x1="28.388" y1="0" x2="488.29" y2="0" gradientTransform="matrix(1,0,0,1,0.000000000000014211,0)">
<stop offset="0" style="stop-color:rgb(100%,100%,100%);stop-opacity:1;"/>
<stop offset="1" style="stop-color:rgb(100%,100%,100%);stop-opacity:0;"/>
</linearGradient>
<clipPath id="clip43">
  <path d="M 4.667969 16 L 28.667969 16 L 28.667969 25.332031 L 4.667969 25.332031 Z M 4.667969 16 "/>
</clipPath>
<clipPath id="clip44">
  <path d="M 25.675781 28.441406 C 22.082031 33.082031 11.136719 33.082031 7.542969 28.441406 C 3.949219 23.804688 3.949219 9.683594 7.542969 5.046875 C 11.136719 0.410156 22.082031 0.410156 25.675781 5.046875 C 29.273438 9.683594 29.273438 23.804688 25.675781 28.441406 Z M 25.675781 28.441406 "/>
</clipPath>
<linearGradient id="linear28" gradientUnits="userSpaceOnUse" x1="28.388" y1="0" x2="488.29" y2="0" gradientTransform="matrix(1,0,0,1,0.000000000000014211,0)">
<stop offset="0" style="stop-color:rgb(100%,100%,100%);stop-opacity:1;"/>
<stop offset="1" style="stop-color:rgb(100%,100%,100%);stop-opacity:0;"/>
</linearGradient>
<linearGradient id="linear29" gradientUnits="userSpaceOnUse" x1="28.388" y1="0" x2="488.29" y2="0" gradientTransform="matrix(1,0,0,1,0.000000000000014211,0)">
<stop offset="0" style="stop-color:rgb(100%,100%,100%);stop-opacity:1;"/>
<stop offset="1" style="stop-color:rgb(100%,100%,100%);stop-opacity:0;"/>
</linearGradient>
<clipPath id="clip45">
  <path d="M 4.667969 16.667969 L 28.667969 16.667969 L 28.667969 25.332031 L 4.667969 25.332031 Z M 4.667969 16.667969 "/>
</clipPath>
<clipPath id="clip46">
  <path d="M 25.675781 28.441406 C 22.082031 33.082031 11.136719 33.082031 7.542969 28.441406 C 3.949219 23.804688 3.949219 9.683594 7.542969 5.046875 C 11.136719 0.410156 22.082031 0.410156 25.675781 5.046875 C 29.273438 9.683594 29.273438 23.804688 25.675781 28.441406 Z M 25.675781 28.441406 "/>
</clipPath>
<linearGradient id="linear30" gradientUnits="userSpaceOnUse" x1="28.388" y1="0" x2="488.29" y2="0" gradientTransform="matrix(1,0,0,1,0.000000000000014211,0)">
<stop offset="0" style="stop-color:rgb(100%,100%,100%);stop-opacity:1;"/>
<stop offset="1" style="stop-color:rgb(100%,100%,100%);stop-opacity:0;"/>
</linearGradient>
<clipPath id="clip47">
  <path d="M 4.667969 16.667969 L 28.667969 16.667969 L 28.667969 26 L 4.667969 26 Z M 4.667969 16.667969 "/>
</clipPath>
<clipPath id="clip48">
  <path d="M 25.675781 28.441406 C 22.082031 33.082031 11.136719 33.082031 7.542969 28.441406 C 3.949219 23.804688 3.949219 9.683594 7.542969 5.046875 C 11.136719 0.410156 22.082031 0.410156 25.675781 5.046875 C 29.273438 9.683594 29.273438 23.804688 25.675781 28.441406 Z M 25.675781 28.441406 "/>
</clipPath>
<linearGradient id="linear31" gradientUnits="userSpaceOnUse" x1="28.388" y1="0" x2="488.29" y2="0" gradientTransform="matrix(1,0,0,1,0.000000000000014211,0)">
<stop offset="0" style="stop-color:rgb(100%,100%,100%);stop-opacity:1;"/>
<stop offset="1" style="stop-color:rgb(100%,100%,100%);stop-opacity:0;"/>
</linearGradient>
<clipPath id="clip49">
  <path d="M 4.667969 17 L 28.667969 17 L 28.667969 26 L 4.667969 26 Z M 4.667969 17 "/>
</clipPath>
<clipPath id="clip50">
  <path d="M 25.675781 28.441406 C 22.082031 33.082031 11.136719 33.082031 7.542969 28.441406 C 3.949219 23.804688 3.949219 9.683594 7.542969 5.046875 C 11.136719 0.410156 22.082031 0.410156 25.675781 5.046875 C 29.273438 9.683594 29.273438 23.804688 25.675781 28.441406 Z M 25.675781 28.441406 "/>
</clipPath>
<linearGradient id="linear32" gradientUnits="userSpaceOnUse" x1="28.388" y1="0" x2="488.29" y2="0" gradientTransform="matrix(1,0,0,1,0.000000000000014211,0)">
<stop offset="0" style="stop-color:rgb(100%,100%,100%);stop-opacity:1;"/>
<stop offset="1" style="stop-color:rgb(100%,100%,100%);stop-opacity:0;"/>
</linearGradient>
<clipPath id="clip51">
  <path d="M 4.667969 17.332031 L 28.667969 17.332031 L 28.667969 26 L 4.667969 26 Z M 4.667969 17.332031 "/>
</clipPath>
<clipPath id="clip52">
  <path d="M 25.675781 28.441406 C 22.082031 33.082031 11.136719 33.082031 7.542969 28.441406 C 3.949219 23.804688 3.949219 9.683594 7.542969 5.046875 C 11.136719 0.410156 22.082031 0.410156 25.675781 5.046875 C 29.273438 9.683594 29.273438 23.804688 25.675781 28.441406 Z M 25.675781 28.441406 "/>
</clipPath>
<linearGradient id="linear33" gradientUnits="userSpaceOnUse" x1="28.388" y1="0" x2="488.29" y2="0" gradientTransform="matrix(1,0,0,1,0.000000000000014211,0)">
<stop offset="0" style="stop-color:rgb(100%,100%,100%);stop-opacity:1;"/>
<stop offset="1" style="stop-color:rgb(100%,100%,100%);stop-opacity:0;"/>
</linearGradient>
<linearGradient id="linear34" gradientUnits="userSpaceOnUse" x1="28.388" y1="0" x2="488.29" y2="0" gradientTransform="matrix(1,0,0,1,0.000000000000014211,0)">
<stop offset="0" style="stop-color:rgb(100%,100%,100%);stop-opacity:1;"/>
<stop offset="1" style="stop-color:rgb(100%,100%,100%);stop-opacity:0;"/>
</linearGradient>
<linearGradient id="linear35" gradientUnits="userSpaceOnUse" x1="28.388" y1="0" x2="488.29" y2="0" gradientTransform="matrix(1,0,0,1,0.000000000000014211,0)">
<stop offset="0" style="stop-color:rgb(100%,100%,100%);stop-opacity:1;"/>
<stop offset="1" style="stop-color:rgb(100%,100%,100%);stop-opacity:0;"/>
</linearGradient>
<clipPath id="clip53">
  <path d="M 4.667969 18 L 28.667969 18 L 28.667969 26 L 4.667969 26 Z M 4.667969 18 "/>
</clipPath>
<clipPath id="clip54">
  <path d="M 25.675781 28.441406 C 22.082031 33.082031 11.136719 33.082031 7.542969 28.441406 C 3.949219 23.804688 3.949219 9.683594 7.542969 5.046875 C 11.136719 0.410156 22.082031 0.410156 25.675781 5.046875 C 29.273438 9.683594 29.273438 23.804688 25.675781 28.441406 Z M 25.675781 28.441406 "/>
</clipPath>
<linearGradient id="linear36" gradientUnits="userSpaceOnUse" x1="28.388" y1="0" x2="488.29" y2="0" gradientTransform="matrix(1,0,0,1,0.000000000000014211,0)">
<stop offset="0" style="stop-color:rgb(100%,100%,100%);stop-opacity:1;"/>
<stop offset="1" style="stop-color:rgb(100%,100%,100%);stop-opacity:0;"/>
</linearGradient>
<linearGradient id="linear37" gradientUnits="userSpaceOnUse" x1="28.388" y1="0" x2="488.29" y2="0" gradientTransform="matrix(1,0,0,1,0.000000000000014211,0)">
<stop offset="0" style="stop-color:rgb(100%,100%,100%);stop-opacity:1;"/>
<stop offset="1" style="stop-color:rgb(100%,100%,100%);stop-opacity:0;"/>
</linearGradient>
<linearGradient id="linear38" gradientUnits="userSpaceOnUse" x1="28.388" y1="0" x2="488.29" y2="0" gradientTransform="matrix(1,0,0,1,0.000000000000014211,0)">
<stop offset="0" style="stop-color:rgb(100%,100%,100%);stop-opacity:1;"/>
<stop offset="1" style="stop-color:rgb(100%,100%,100%);stop-opacity:0;"/>
</linearGradient>
<clipPath id="clip55">
  <path d="M 4.667969 18.667969 L 28.667969 18.667969 L 28.667969 26 L 4.667969 26 Z M 4.667969 18.667969 "/>
</clipPath>
<clipPath id="clip56">
  <path d="M 25.675781 28.441406 C 22.082031 33.082031 11.136719 33.082031 7.542969 28.441406 C 3.949219 23.804688 3.949219 9.683594 7.542969 5.046875 C 11.136719 0.410156 22.082031 0.410156 25.675781 5.046875 C 29.273438 9.683594 29.273438 23.804688 25.675781 28.441406 Z M 25.675781 28.441406 "/>
</clipPath>
<linearGradient id="linear39" gradientUnits="userSpaceOnUse" x1="28.388" y1="0" x2="488.29" y2="0" gradientTransform="matrix(1,0,0,1,0.000000000000014211,0)">
<stop offset="0" style="stop-color:rgb(100%,100%,100%);stop-opacity:1;"/>
<stop offset="1" style="stop-color:rgb(100%,100%,100%);stop-opacity:0;"/>
</linearGradient>
<clipPath id="clip57">
  <path d="M 4.667969 19 L 28.667969 19 L 28.667969 26.667969 L 4.667969 26.667969 Z M 4.667969 19 "/>
</clipPath>
<clipPath id="clip58">
  <path d="M 25.675781 28.441406 C 22.082031 33.082031 11.136719 33.082031 7.542969 28.441406 C 3.949219 23.804688 3.949219 9.683594 7.542969 5.046875 C 11.136719 0.410156 22.082031 0.410156 25.675781 5.046875 C 29.273438 9.683594 29.273438 23.804688 25.675781 28.441406 Z M 25.675781 28.441406 "/>
</clipPath>
<linearGradient id="linear40" gradientUnits="userSpaceOnUse" x1="28.388" y1="0" x2="488.29" y2="0" gradientTransform="matrix(1,0,0,1,0.000000000000014211,0)">
<stop offset="0" style="stop-color:rgb(100%,100%,100%);stop-opacity:1;"/>
<stop offset="1" style="stop-color:rgb(100%,100%,100%);stop-opacity:0;"/>
</linearGradient>
<linearGradient id="linear41" gradientUnits="userSpaceOnUse" x1="28.388" y1="0" x2="488.29" y2="0" gradientTransform="matrix(1,0,0,1,0.000000000000014211,0)">
<stop offset="0" style="stop-color:rgb(100%,100%,100%);stop-opacity:1;"/>
<stop offset="1" style="stop-color:rgb(100%,100%,100%);stop-opacity:0;"/>
</linearGradient>
</defs>
<g id="surface1">
<path style=" stroke:none;fill-rule:nonzero;fill:rgb(100%,54.901961%,0%);fill-opacity:1;" d="M 14.738281 31.785156 C 34.0625 33.621094 39.265625 2.628906 19.417969 0.21875 C 1.171875 -2.761719 -8.226562 25.332031 9.90625 30.949219 C 11.4375 31.566406 13.113281 31.554688 14.734375 31.785156 Z M 14.738281 31.785156 "/>
<g clip-path="url(#clip1)" clip-rule="nonzero">
<g clip-path="url(#clip2)" clip-rule="nonzero">
<path style="fill:none;stroke-width:1;stroke-linecap:round;stroke-linejoin:round;stroke:url(#linear0);stroke-miterlimit:10;" d="M 28.888224 350.995276 C 28.888224 213.985257 216.944295 91.00781 137.9638 241.991194 C 103.132944 308.838347 56.080734 154.716877 153.011341 144.710527 C 327.394774 126.71094 421.040893 353.363643 230.922468 249.984432 C 206.556145 236.780787 278.891279 194.090975 272.322302 282.016593 C 265.21864 376.928893 302.799301 112.974412 396.521803 186.097737 C 428.832005 211.261635 458.621554 133.10553 487.800034 91.00781 " transform="matrix(0.05114,0,0,0.0659737,3.51875,-0.14475)"/>
</g>
</g>
<g clip-path="url(#clip3)" clip-rule="nonzero">
<g clip-path="url(#clip4)" clip-rule="nonzero">
<path style="fill:none;stroke-width:1;stroke-linecap:round;stroke-linejoin:round;stroke:url(#linear1);stroke-miterlimit:10;" d="M 28.888224 352.061041 C 28.888224 218.366735 211.52107 96.395845 136.894432 244.714816 C 104.889763 308.305464 58.066704 157.499708 152.934958 148.263078 C 323.804752 131.68451 411.569344 360.883208 231.762686 252.708054 C 210.604468 239.918873 282.099384 196.814597 274.613805 282.667894 C 266.517159 375.803918 302.799301 122.092624 396.598186 190.301588 C 429.290306 213.985257 459.309005 138.493565 487.723651 97.283982 " transform="matrix(0.05114,0,0,0.0659737,3.51875,-0.14475)"/>
</g>
</g>
<g clip-path="url(#clip5)" clip-rule="nonzero">
<g clip-path="url(#clip6)" clip-rule="nonzero">
<path style="fill:none;stroke-width:1;stroke-linecap:round;stroke-linejoin:round;stroke:url(#linear2);stroke-miterlimit:10;" d="M 28.888224 353.304434 C 28.888224 222.98505 205.945077 101.961507 135.901447 247.616065 C 106.79935 308.187046 60.205441 160.578585 152.934958 152.170883 C 320.291113 137.013335 401.10481 369.883001 232.679287 255.668512 C 214.423641 243.293796 285.307489 199.775056 276.905309 283.733659 C 267.815678 374.915781 302.875684 131.506883 396.750953 194.683067 C 430.054141 217.064133 460.149223 144.000017 487.800034 103.915409 " transform="matrix(0.05114,0,0,0.0659737,3.51875,-0.14475)"/>
</g>
</g>
<g clip-path="url(#clip7)" clip-rule="nonzero">
<g clip-path="url(#clip8)" clip-rule="nonzero">
<path style="fill:none;stroke-width:1;stroke-linecap:round;stroke-linejoin:round;stroke:url(#linear3);stroke-miterlimit:10;" d="M 28.888224 354.429408 C 28.888224 227.366529 200.139934 107.290332 134.755695 250.280478 C 108.479786 307.772582 62.191411 163.539044 152.782191 155.782642 C 316.777474 141.986906 388.654307 379.711724 233.519505 258.273716 C 218.013663 246.195045 288.439211 202.380259 279.120429 284.207332 C 268.885046 373.613179 303.181218 140.388258 396.750953 198.590872 C 430.665208 219.669337 460.683907 148.973588 487.723651 109.895535 " transform="matrix(0.05114,0,0,0.0659737,3.51875,-0.14475)"/>
</g>
</g>
<g clip-path="url(#clip9)" clip-rule="nonzero">
<g clip-path="url(#clip10)" clip-rule="nonzero">
<path style="fill:none;stroke-width:1;stroke-linecap:round;stroke-linejoin:round;stroke:url(#linear4);stroke-miterlimit:10;" d="M 28.888224 355.613591 C 28.888224 231.984844 194.105641 112.796785 133.839094 253.063309 C 110.312989 307.713373 64.406531 166.381084 152.782191 159.631238 C 313.340218 147.197313 399.882675 355.791219 234.359723 261.234174 C 224.506257 246.609509 291.647316 205.281508 281.411933 285.09547 C 270.183565 372.665832 303.715902 149.565679 396.980104 202.913142 C 431.734577 222.689005 461.524125 154.420831 487.723651 116.408544 " transform="matrix(0.05114,0,0,0.0659737,3.51875,-0.14475)"/>
<path style="fill:none;stroke-width:1;stroke-linecap:round;stroke-linejoin:round;stroke:url(#linear5);stroke-miterlimit:10;" d="M 28.888224 356.679356 C 28.888224 236.366323 187.765814 118.066401 132.693342 255.905349 C 111.993425 307.594954 66.392501 169.400751 152.705808 163.420625 C 309.826579 152.40772 394.612216 356.501729 235.276325 264.076214 C 229.012881 249.096294 294.779038 208.182758 283.703437 285.983607 C 271.482083 371.836904 304.479737 158.565473 397.056487 207.235411 C 432.651178 225.8863 462.135193 159.808866 487.723651 122.803135 " transform="matrix(0.05114,0,0,0.0659737,3.51875,-0.14475)"/>
</g>
</g>
<g clip-path="url(#clip11)" clip-rule="nonzero">
<g clip-path="url(#clip12)" clip-rule="nonzero">
<path style="fill:none;stroke-width:1;stroke-linecap:round;stroke-linejoin:round;stroke:url(#linear6);stroke-miterlimit:10;" d="M 28.888224 357.86354 C 28.888224 240.86622 181.349604 123.632063 131.700357 258.68818 C 113.673861 307.594954 68.454854 172.420419 152.705808 167.091594 C 306.31294 157.499708 389.418141 357.093821 236.192926 266.799836 C 233.519505 251.405452 297.987143 211.024798 285.99494 286.694117 C 272.704219 370.71193 315.784489 150.276189 397.285637 211.261635 C 436.699501 221.386403 462.899027 165.078482 487.800034 129.079307 " transform="matrix(0.05114,0,0,0.0659737,3.51875,-0.14475)"/>
</g>
</g>
<g clip-path="url(#clip13)" clip-rule="nonzero">
<g clip-path="url(#clip14)" clip-rule="nonzero">
<path style="fill:none;stroke-width:1;stroke-linecap:round;stroke-linejoin:round;stroke:url(#linear7);stroke-miterlimit:10;" d="M 28.888224 358.988514 C 28.888224 245.366117 174.398709 128.901679 130.630988 261.411802 C 115.277914 307.713373 70.593591 175.262459 152.629424 170.762562 C 302.799301 162.591697 383.994916 357.685912 236.956761 269.582667 C 237.873362 253.892237 301.118865 213.807629 288.210061 287.404627 C 273.773587 369.705374 317.923225 156.433943 397.285637 215.406277 C 437.921637 222.98505 463.510095 170.288889 487.723651 135.296269 " transform="matrix(0.05114,0,0,0.0659737,3.51875,-0.14475)"/>
</g>
</g>
<g clip-path="url(#clip15)" clip-rule="nonzero">
<g clip-path="url(#clip16)" clip-rule="nonzero">
<path style="fill:none;stroke-width:1;stroke-linecap:round;stroke-linejoin:round;stroke:url(#linear8);stroke-miterlimit:10;" d="M 28.888224 360.231907 C 28.888224 249.866014 190.515619 143.703972 129.56162 264.313051 C 125.284146 309.667275 72.732328 178.400545 152.629424 174.611158 C 299.285662 167.802104 378.800841 358.396422 237.873362 272.483917 C 242.379986 256.379022 304.32697 216.708878 290.501564 288.292765 C 275.148489 368.817236 320.061962 162.828534 397.514788 219.669337 C 439.296539 224.761325 464.273929 175.736133 487.723651 141.809278 " transform="matrix(0.05114,0,0,0.0659737,3.51875,-0.14475)"/>
</g>
</g>
<g clip-path="url(#clip17)" clip-rule="nonzero">
<g clip-path="url(#clip18)" clip-rule="nonzero">
<path style="fill:none;stroke-width:1;stroke-linecap:round;stroke-linejoin:round;stroke:url(#linear9);stroke-miterlimit:10;" d="M 28.888224 361.297672 C 28.888224 254.365911 187.154747 150.21698 128.492252 267.036673 C 128.033951 309.667275 74.794681 181.183376 152.476657 178.282127 C 295.772023 172.894092 373.530382 358.988514 238.789964 275.207538 C 246.88661 258.806598 307.382308 219.491709 292.869452 289.003275 C 276.370625 367.81068 322.353466 168.867869 397.667555 223.813979 C 440.747825 226.300764 465.114147 180.88733 487.800034 148.026241 " transform="matrix(0.05114,0,0,0.0659737,3.51875,-0.14475)"/>
</g>
</g>
<g clip-path="url(#clip19)" clip-rule="nonzero">
<g clip-path="url(#clip20)" clip-rule="nonzero">
<path style="fill:none;stroke-width:1;stroke-linecap:round;stroke-linejoin:round;stroke:url(#linear10);stroke-miterlimit:10;" d="M 28.888224 362.481855 C 28.888224 258.865807 183.946642 156.789198 127.499267 269.819504 C 130.783755 309.785694 76.857035 184.203044 152.476657 182.130723 C 292.411151 178.104499 368.336307 359.580606 239.706565 278.108788 C 251.393234 261.293383 310.51403 222.511377 295.160955 289.891413 C 277.59276 366.981752 324.64497 175.262459 397.896705 228.195457 C 441.96996 228.195457 465.801599 186.393783 487.876418 154.598459 " transform="matrix(0.05114,0,0,0.0659737,3.51875,-0.14475)"/>
<path style="fill:none;stroke-width:1;stroke-linecap:round;stroke-linejoin:round;stroke:url(#linear11);stroke-miterlimit:10;" d="M 28.888224 363.606829 C 28.888224 263.365704 180.585769 163.420625 126.353515 272.602335 C 133.609943 309.904112 78.995771 183.314906 152.400274 185.801692 C 288.821128 190.538425 362.989465 360.231907 240.4704 280.891619 C 255.823475 263.720959 313.492985 225.412626 297.376075 290.601923 C 278.662128 366.034405 326.707323 181.420213 397.896705 232.28089 C 443.192095 229.794105 466.412666 191.722609 487.723651 160.815422 " transform="matrix(0.05114,0,0,0.0659737,3.51875,-0.14475)"/>
</g>
</g>
<g clip-path="url(#clip21)" clip-rule="nonzero">
<g clip-path="url(#clip22)" clip-rule="nonzero">
<path style="fill:none;stroke-width:1;stroke-linecap:round;stroke-linejoin:round;stroke:url(#linear12);stroke-miterlimit:10;" d="M 28.888224 364.791013 C 28.888224 267.865601 177.301281 169.992843 125.436913 275.385166 C 136.436131 310.02253 81.210892 185.92011 152.400274 189.591078 C 285.307489 196.400133 357.79539 360.883208 241.539768 283.733659 C 260.406482 266.207745 316.70109 228.195457 299.820346 291.430851 C 280.037031 365.205477 328.922443 187.577967 398.202239 236.484741 C 444.719764 231.511171 467.329268 196.992225 487.876418 167.210012 " transform="matrix(0.05114,0,0,0.0659737,3.51875,-0.14475)"/>
</g>
</g>
<g clip-path="url(#clip23)" clip-rule="nonzero">
<g clip-path="url(#clip24)" clip-rule="nonzero">
<path style="fill:none;stroke-width:1;stroke-linecap:round;stroke-linejoin:round;stroke:url(#linear13);stroke-miterlimit:10;" d="M 28.888224 365.915987 C 28.888224 272.306289 174.016792 176.505852 124.291162 278.108788 C 139.109552 310.08174 83.273245 188.525313 152.32389 193.202838 C 281.5647 202.025004 352.448548 361.41609 242.303603 286.398072 C 264.760339 268.516902 319.680045 231.037497 302.035466 292.082152 C 280.953632 364.198921 330.984797 193.794929 398.202239 240.629383 C 445.9419 233.109818 467.940335 202.202632 487.800034 173.367766 " transform="matrix(0.05114,0,0,0.0659737,3.51875,-0.14475)"/>
</g>
</g>
<g clip-path="url(#clip25)" clip-rule="nonzero">
<g clip-path="url(#clip26)" clip-rule="nonzero">
<path style="fill:none;stroke-width:1;stroke-linecap:round;stroke-linejoin:round;stroke:url(#linear14);stroke-miterlimit:10;" d="M 28.888224 367.10017 C 28.888224 276.865395 170.65592 183.196488 123.298177 281.010037 C 141.93574 310.318576 85.564749 191.308144 152.32389 197.110643 C 278.051061 208.00513 347.17809 362.185809 243.220204 289.299321 C 269.41973 271.062896 322.659 233.997956 304.32697 292.970289 C 282.175768 363.488411 333.199917 200.130311 398.431389 244.892443 C 447.316802 234.886094 468.70417 207.590666 487.876418 179.880775 " transform="matrix(0.05114,0,0,0.0659737,3.51875,-0.14475)"/>
</g>
</g>
<g clip-path="url(#clip27)" clip-rule="nonzero">
<g clip-path="url(#clip28)" clip-rule="nonzero">
<path style="fill:none;stroke-width:1;stroke-linecap:round;stroke-linejoin:round;stroke:url(#linear15);stroke-miterlimit:10;" d="M 28.888224 368.165935 C 28.888224 281.306083 167.447815 189.709497 122.228808 283.733659 C 144.685545 310.318576 87.703486 193.972557 152.171123 200.781612 C 274.537422 213.689211 341.907631 362.83711 243.984039 292.082152 C 273.773587 273.490472 325.714338 237.017624 306.465707 293.680799 C 283.245136 362.600273 335.338654 206.169646 398.431389 249.037085 C 448.538937 236.366323 469.315238 212.919491 487.723651 186.097737 " transform="matrix(0.05114,0,0,0.0659737,3.51875,-0.14475)"/>
<path style="fill:none;stroke-width:1;stroke-linecap:round;stroke-linejoin:round;stroke:url(#linear16);stroke-miterlimit:10;" d="M 28.888224 369.29091 C 28.888224 285.80598 164.086943 196.222505 121.15944 286.398072 C 147.511732 310.318576 89.994989 196.57776 152.171123 204.393371 C 270.871016 219.314082 336.713556 363.310784 244.977024 294.805774 C 278.356595 275.918048 328.693293 239.800455 308.909978 294.39131 C 284.390888 361.712136 337.630157 212.386609 398.736923 253.063309 C 449.990223 238.02418 470.079072 218.129898 487.876418 192.433119 " transform="matrix(0.05114,0,0,0.0659737,3.51875,-0.14475)"/>
</g>
</g>
<g clip-path="url(#clip29)" clip-rule="nonzero">
<g clip-path="url(#clip30)" clip-rule="nonzero">
<path style="fill:none;stroke-width:1;stroke-linecap:round;stroke-linejoin:round;stroke:url(#linear17);stroke-miterlimit:10;" d="M 28.888224 370.534302 C 28.888224 290.305877 160.802454 202.913142 120.090071 289.299321 C 150.185154 310.614622 91.675425 205.222299 152.09474 208.301176 C 268.273978 214.222093 331.366714 364.021294 245.817242 297.707023 C 282.786835 278.404834 331.595864 242.760913 311.125098 295.338656 C 285.383873 361.060835 339.692511 218.72199 398.736923 257.385578 C 451.212358 239.800455 470.69014 223.517933 487.800034 198.827709 " transform="matrix(0.05114,0,0,0.0659737,3.51875,-0.14475)"/>
</g>
</g>
<g clip-path="url(#clip31)" clip-rule="nonzero">
<g clip-path="url(#clip32)" clip-rule="nonzero">
<path style="fill:none;stroke-width:1;stroke-linecap:round;stroke-linejoin:round;stroke:url(#linear18);stroke-miterlimit:10;" d="M 28.888224 371.600067 C 28.888224 294.687355 157.517965 209.366941 119.097086 292.022943 C 153.011341 310.614622 93.814162 208.064339 152.09474 211.912936 C 264.913106 219.314082 326.096255 364.494967 246.733843 300.430645 C 287.293459 280.713991 334.498436 245.602953 313.416601 295.989957 C 286.376858 360.231907 341.754864 224.761325 398.88969 261.471011 C 452.510877 241.399102 471.453974 228.669131 487.800034 205.103881 " transform="matrix(0.05114,0,0,0.0659737,3.51875,-0.14475)"/>
<path style="fill:none;stroke-width:1;stroke-linecap:round;stroke-linejoin:round;stroke:url(#linear19);stroke-miterlimit:10;" d="M 28.888224 372.784251 C 28.888224 299.305671 154.157093 215.998368 117.951335 294.805774 C 155.837529 310.73304 95.876515 211.202426 152.018356 215.702322 C 261.475851 224.524489 320.825797 365.205477 247.497678 303.272685 C 291.7237 283.319195 337.324624 248.68183 315.631722 296.818885 C 287.293459 359.521397 343.893601 231.096707 398.88969 265.79328 C 453.733012 243.234587 472.065042 234.116374 487.723651 211.498471 " transform="matrix(0.05114,0,0,0.0659737,3.51875,-0.14475)"/>
</g>
</g>
<g clip-path="url(#clip33)" clip-rule="nonzero">
<g clip-path="url(#clip34)" clip-rule="nonzero">
<path style="fill:none;stroke-width:1;stroke-linecap:round;stroke-linejoin:round;stroke:url(#linear20);stroke-miterlimit:10;" d="M 28.888224 373.909225 C 28.888224 303.687149 150.948988 222.629795 117.034733 297.588605 C 158.587334 310.79225 98.091636 214.222093 152.018356 219.491709 C 258.191362 229.794105 315.631722 365.915987 248.490663 306.114725 C 296.306707 285.687562 340.227195 251.58308 317.999609 297.588605 C 288.439211 358.692468 346.185105 237.31367 399.195224 269.997131 C 455.184298 244.892443 472.981644 239.504409 487.876418 217.893062 " transform="matrix(0.05114,0,0,0.0659737,3.51875,-0.14475)"/>
<path style="fill:none;stroke-width:1;stroke-linecap:round;stroke-linejoin:round;stroke:url(#linear21);stroke-miterlimit:10;" d="M 28.888224 375.093408 C 28.888224 308.305464 147.588116 229.202013 115.888981 300.430645 C 161.337138 310.910668 100.230373 217.30097 151.86559 223.221887 C 254.83049 235.004512 310.28488 366.508079 249.330881 308.897556 C 300.660564 288.233556 342.976999 254.484329 320.214729 298.417533 C 289.279429 357.981958 348.323841 243.471423 399.195224 274.200983 C 456.406433 246.491091 473.516328 244.774025 487.723651 224.169234 " transform="matrix(0.05114,0,0,0.0659737,3.51875,-0.14475)"/>
</g>
</g>
<g clip-path="url(#clip35)" clip-rule="nonzero">
<g clip-path="url(#clip36)" clip-rule="nonzero">
<path style="fill:none;stroke-width:1;stroke-linecap:round;stroke-linejoin:round;stroke:url(#linear22);stroke-miterlimit:10;" d="M 28.888224 376.218383 C 28.888224 312.686943 144.303627 235.715022 114.895996 303.213476 C 164.23971 311.088295 102.369109 220.379847 151.86559 227.011274 C 251.622385 240.274128 305.090805 367.218589 250.247482 311.798806 C 305.243572 290.720341 345.726804 257.503997 322.506233 299.305671 C 290.196031 357.389867 350.462578 249.866014 399.424374 278.523252 C 457.781336 248.326575 474.280162 250.221269 487.800034 230.682242 " transform="matrix(0.05114,0,0,0.0659737,3.51875,-0.14475)"/>
</g>
</g>
<g clip-path="url(#clip37)" clip-rule="nonzero">
<g clip-path="url(#clip38)" clip-rule="nonzero">
<path style="fill:none;stroke-width:1;stroke-linecap:round;stroke-linejoin:round;stroke:url(#linear23);stroke-miterlimit:10;" d="M 28.888224 377.402566 C 28.888224 317.305258 141.019139 242.28724 113.826628 305.996307 C 166.913131 311.206714 104.507846 223.399515 151.789206 230.682242 C 248.185129 245.602953 299.743963 367.81068 251.0877 314.522427 C 309.673812 293.088708 348.400225 260.286828 324.797737 299.897762 C 291.036249 356.501729 352.677698 255.905349 399.500758 282.490266 C 459.079854 249.806804 474.967613 255.313257 487.800034 236.780787 " transform="matrix(0.05114,0,0,0.0659737,3.51875,-0.14475)"/>
<path style="fill:none;stroke-width:1;stroke-linecap:round;stroke-linejoin:round;stroke:url(#linear24);stroke-miterlimit:10;" d="M 28.888224 378.468331 C 28.888224 321.686737 137.658267 248.918667 112.757259 308.719929 C 169.739319 311.206714 106.722966 226.537601 151.789206 234.41242 C 244.977024 250.81336 294.549888 368.402772 252.004302 317.305258 C 314.180436 295.516284 351.073646 263.188077 327.08924 300.667482 C 291.800083 355.791219 354.816435 262.181521 399.653525 286.694117 C 460.454757 251.52387 475.807831 260.582873 487.876418 243.234587 " transform="matrix(0.05114,0,0,0.0659737,3.51875,-0.14475)"/>
</g>
</g>
<g clip-path="url(#clip39)" clip-rule="nonzero">
<g clip-path="url(#clip40)" clip-rule="nonzero">
<path style="fill:none;stroke-width:1;stroke-linecap:round;stroke-linejoin:round;stroke:url(#linear25);stroke-miterlimit:10;" d="M 28.888224 379.711724 C 28.888224 326.186634 134.450161 255.490885 111.840658 311.561969 C 172.489123 311.384341 109.01447 229.734896 151.789206 238.201807 C 241.845302 256.201395 289.279429 368.994864 252.920903 320.206508 C 318.68706 298.003069 353.82345 266.207745 329.380744 301.614828 C 292.487534 355.080709 357.031556 268.516902 399.806292 291.016387 C 461.829659 253.300145 476.495283 266.089326 487.800034 249.629177 " transform="matrix(0.05114,0,0,0.0659737,3.51875,-0.14475)"/>
</g>
</g>
<g clip-path="url(#clip41)" clip-rule="nonzero">
<g clip-path="url(#clip42)" clip-rule="nonzero">
<path style="fill:none;stroke-width:1;stroke-linecap:round;stroke-linejoin:round;stroke:url(#linear26);stroke-miterlimit:10;" d="M 28.888224 380.836698 C 28.888224 330.686531 131.089289 262.003893 110.694906 314.285591 C 175.315311 311.50276 111.076823 232.695354 151.712823 241.931985 C 238.408047 261.471011 284.00897 369.586956 253.684738 322.93013 C 323.117301 300.430645 356.267721 268.990576 331.595864 302.325338 C 293.098602 354.31099 359.093909 274.615447 399.882675 295.10182 C 462.975411 254.898793 477.10635 271.299733 487.800034 255.905349 " transform="matrix(0.05114,0,0,0.0659737,3.51875,-0.14475)"/>
<path style="fill:none;stroke-width:1;stroke-linecap:round;stroke-linejoin:round;stroke:url(#linear27);stroke-miterlimit:10;" d="M 28.888224 382.020881 C 28.888224 335.186428 127.804801 268.69453 109.701921 317.127631 C 178.141499 311.561969 113.291944 235.892649 151.712823 245.721372 C 235.276325 266.918255 278.814895 370.297466 254.677723 325.77217 C 327.700308 302.91743 358.864759 271.891825 333.963751 303.095058 C 293.786053 353.482061 361.385413 280.891619 400.111825 299.305671 C 464.426696 256.497441 477.870185 276.628558 487.876418 262.181521 " transform="matrix(0.05114,0,0,0.0659737,3.51875,-0.14475)"/>
</g>
</g>
<g clip-path="url(#clip43)" clip-rule="nonzero">
<g clip-path="url(#clip44)" clip-rule="nonzero">
<path style="fill:none;stroke-width:1;stroke-linecap:round;stroke-linejoin:round;stroke:url(#linear28);stroke-miterlimit:10;" d="M 28.888224 383.086646 C 28.888224 339.686325 124.520312 275.207538 108.632553 319.910462 C 180.81492 311.680387 115.354297 239.089945 151.560056 249.39234 C 231.991836 272.306289 273.39167 370.889557 255.517941 328.61421 C 332.130548 305.404215 361.309029 274.733865 336.178872 303.864777 C 294.320737 352.593924 363.524149 287.108582 400.188209 303.62794 C 465.725215 258.273716 478.634019 282.016593 487.800034 268.69453 " transform="matrix(0.05114,0,0,0.0659737,3.51875,-0.14475)"/>
<path style="fill:none;stroke-width:1;stroke-linecap:round;stroke-linejoin:round;stroke:url(#linear29);stroke-miterlimit:10;" d="M 28.888224 384.211621 C 28.888224 344.127012 121.15944 281.720547 107.563184 322.574874 C 183.641108 311.680387 117.722184 242.168821 151.560056 253.063309 C 228.783731 277.812742 268.197595 371.481649 256.358159 331.337832 C 336.560789 307.713373 363.7533 277.398278 338.546759 304.575287 C 294.779038 351.587368 365.73927 293.207126 400.264592 307.713373 C 467.023734 259.931573 479.32147 287.167791 487.800034 274.911493 " transform="matrix(0.05114,0,0,0.0659737,3.51875,-0.14475)"/>
</g>
</g>
<g clip-path="url(#clip45)" clip-rule="nonzero">
<g clip-path="url(#clip46)" clip-rule="nonzero">
<path style="fill:none;stroke-width:1;stroke-linecap:round;stroke-linejoin:round;stroke:url(#linear30);stroke-miterlimit:10;" d="M 28.888224 385.395804 C 28.888224 348.626909 117.874951 288.411183 106.493816 325.416915 C 186.390912 311.917224 119.784538 245.484535 151.483672 256.793486 C 225.499242 283.319195 262.927136 372.073741 257.198377 334.061453 C 340.99103 310.08174 366.121187 280.06269 340.685496 305.404215 C 295.084572 350.69923 367.72524 299.483298 400.417359 311.917224 C 468.322253 261.589429 480.008922 292.615034 487.800034 281.306083 " transform="matrix(0.05114,0,0,0.0659737,3.51875,-0.14475)"/>
</g>
</g>
<g clip-path="url(#clip47)" clip-rule="nonzero">
<g clip-path="url(#clip48)" clip-rule="nonzero">
<path style="fill:none;stroke-width:1;stroke-linecap:round;stroke-linejoin:round;stroke:url(#linear31);stroke-miterlimit:10;" d="M 28.888224 386.520778 C 28.888224 353.126806 114.590462 294.864983 105.500831 328.199746 C 189.2171 312.035642 121.999658 248.800249 151.483672 260.582873 C 222.291137 289.003275 257.580294 372.665832 258.114978 337.021912 C 345.497654 312.686943 368.489074 282.904731 342.976999 306.233144 C 295.466489 349.574256 369.863976 305.700261 400.493743 316.061866 C 469.620771 263.306495 480.696373 297.884651 487.800034 287.582255 " transform="matrix(0.05114,0,0,0.0659737,3.51875,-0.14475)"/>
</g>
</g>
<g clip-path="url(#clip49)" clip-rule="nonzero">
<g clip-path="url(#clip50)" clip-rule="nonzero">
<path style="fill:none;stroke-width:1;stroke-linecap:round;stroke-linejoin:round;stroke:url(#linear32);stroke-miterlimit:10;" d="M 28.888224 387.704962 C 28.888224 357.626703 111.305974 301.49641 104.355079 330.982577 C 191.890521 312.094851 124.062011 252.23438 151.407289 264.431469 C 219.083032 294.687355 252.386219 373.376342 258.955197 339.804743 C 350.004277 315.114519 370.933345 285.628352 345.268503 307.002863 C 295.772023 348.390073 372.079097 311.917224 400.570126 320.324926 C 470.91929 265.023561 481.30744 303.213476 487.723651 294.036055 " transform="matrix(0.05114,0,0,0.0659737,3.51875,-0.14475)"/>
</g>
</g>
<g clip-path="url(#clip51)" clip-rule="nonzero">
<g clip-path="url(#clip52)" clip-rule="nonzero">
<path style="fill:none;stroke-width:1;stroke-linecap:round;stroke-linejoin:round;stroke:url(#linear33);stroke-miterlimit:10;" d="M 28.888224 388.770727 C 28.888224 362.1266 108.021485 308.127837 103.438478 333.706198 C 194.716709 312.094851 126.277131 255.431676 151.407289 267.98402 C 215.798543 300.430645 247.115761 373.909225 259.871798 342.469156 C 354.510901 317.482886 373.301232 288.115137 347.560007 307.713373 C 296.077557 347.087471 374.294217 318.074978 400.799276 324.410359 C 472.294192 266.50379 482.147658 308.364674 487.800034 300.193808 " transform="matrix(0.05114,0,0,0.0659737,3.51875,-0.14475)"/>
<path style="fill:none;stroke-width:1;stroke-linecap:round;stroke-linejoin:round;stroke:url(#linear34);stroke-miterlimit:10;" d="M 28.888224 390.014119 C 28.888224 366.626497 104.660613 314.700055 102.292726 336.607448 C 197.542897 312.272479 128.415868 258.984226 151.254522 271.891825 C 212.361288 306.46998 241.845302 374.678944 260.788399 345.429614 C 359.017525 319.969671 375.669119 290.720341 349.851511 308.60151 C 296.306707 345.784869 376.509337 324.410359 400.87566 328.732628 C 473.516328 268.339275 482.758726 313.930336 487.800034 306.706817 " transform="matrix(0.05114,0,0,0.0659737,3.51875,-0.14475)"/>
<path style="fill:none;stroke-width:1;stroke-linecap:round;stroke-linejoin:round;stroke:url(#linear35);stroke-miterlimit:10;" d="M 28.888224 391.139093 C 28.888224 371.126394 101.376124 321.213064 101.299741 339.27186 C 200.292701 312.390897 130.630988 262.299939 151.254522 275.503584 C 209.076799 312.390897 236.574844 375.211827 261.705001 348.094027 C 363.524149 322.397247 378.11339 293.088708 352.219398 309.193602 C 296.535857 344.008594 378.724457 330.390485 401.10481 332.699643 C 474.89123 269.819504 483.598944 319.022324 487.800034 312.805361 " transform="matrix(0.05114,0,0,0.0659737,3.51875,-0.14475)"/>
</g>
</g>
<g clip-path="url(#clip53)" clip-rule="nonzero">
<g clip-path="url(#clip54)" clip-rule="nonzero">
<path style="fill:none;stroke-width:1;stroke-linecap:round;stroke-linejoin:round;stroke:url(#linear36);stroke-miterlimit:10;" d="M 28.888224 392.323277 C 28.888224 375.626291 98.091636 327.9037 100.230373 342.113901 C 203.042506 312.509316 132.616958 265.79328 151.178138 279.292971 C 205.486776 318.60786 231.304385 375.863128 262.468836 350.995276 C 367.878006 324.884032 380.252127 295.693911 354.434518 310.08174 C 296.612241 342.409946 380.710427 336.785075 401.10481 337.021912 C 476.113365 271.595779 484.210012 324.410359 487.723651 319.31837 " transform="matrix(0.05114,0,0,0.0659737,3.51875,-0.14475)"/>
<path style="fill:none;stroke-width:1;stroke-linecap:round;stroke-linejoin:round;stroke:url(#linear37);stroke-miterlimit:10;" d="M 28.888224 393.389042 C 28.888224 380.00777 94.807147 334.416709 99.161004 344.896732 C 205.79231 312.627734 134.602928 269.40504 151.178138 283.082358 C 201.820371 325.00245 222.978588 370.593511 263.385437 353.837316 C 367.114172 310.910668 382.849164 298.003069 356.726022 310.910668 C 296.841391 340.515253 382.849164 343.002038 401.333961 341.284972 C 477.488268 273.431263 484.897463 329.798393 487.800034 325.712961 " transform="matrix(0.05114,0,0,0.0659737,3.51875,-0.14475)"/>
<path style="fill:none;stroke-width:1;stroke-linecap:round;stroke-linejoin:round;stroke:url(#linear38);stroke-miterlimit:10;" d="M 28.888224 394.573225 C 28.888224 384.626085 91.522658 340.988926 98.091636 347.679563 C 208.618498 312.686943 136.512515 272.898381 151.101755 286.812536 C 197.848431 331.397041 218.777498 372.488205 264.302039 356.560938 C 373.606766 318.311814 385.217051 300.430645 359.017525 311.680387 C 296.994158 338.502141 385.140668 349.337419 401.410344 345.488823 C 478.786786 275.08912 485.584914 335.127219 487.800034 332.107551 " transform="matrix(0.05114,0,0,0.0659737,3.51875,-0.14475)"/>
</g>
</g>
<g clip-path="url(#clip55)" clip-rule="nonzero">
<g clip-path="url(#clip56)" clip-rule="nonzero">
<path style="fill:none;stroke-width:1;stroke-linecap:round;stroke-linejoin:round;stroke:url(#linear39);stroke-miterlimit:10;" d="M 28.888224 395.6982 C 28.888224 389.007563 88.161786 347.561144 97.098651 350.403184 C 211.444686 312.805361 138.422101 276.391722 151.101755 290.483504 C 193.570957 337.91005 214.500024 374.619735 265.21864 359.402978 C 379.488292 325.06166 387.737705 302.680593 361.309029 312.390897 C 297.223309 336.192984 387.279405 355.376755 401.639495 349.574256 C 480.161689 276.628558 486.425132 340.396835 487.800034 338.324514 " transform="matrix(0.05114,0,0,0.0659737,3.51875,-0.14475)"/>
</g>
</g>
<g clip-path="url(#clip57)" clip-rule="nonzero">
<g clip-path="url(#clip58)" clip-rule="nonzero">
<path style="fill:none;stroke-width:1;stroke-linecap:round;stroke-linejoin:round;stroke:url(#linear40);stroke-miterlimit:10;" d="M 28.888224 396.882383 C 28.888224 393.625879 85.106448 355.613591 95.952899 353.304434 C 218.16643 327.666863 140.102537 280.003481 151.025372 294.272891 C 188.911566 344.482267 209.76425 376.810474 265.982475 362.185809 C 384.987901 331.337832 390.181976 304.930542 363.600533 313.219826 C 297.452459 333.883826 390.334743 362.718692 401.715878 353.837316 C 488.258335 286.220444 487.112583 345.666451 487.800034 344.719104 " transform="matrix(0.05114,0,0,0.0659737,3.51875,-0.14475)"/>
<path style="fill:none;stroke-width:1;stroke-linecap:round;stroke-linejoin:round;stroke:url(#linear41);stroke-miterlimit:10;" d="M 28.888224 398.007357 C 28.888224 398.007357 81.592809 360.70558 95.036297 355.968846 C 216.944295 312.982989 141.93574 283.378404 151.025372 298.003069 C 184.023025 350.995276 205.028476 379.001214 266.899076 364.96864 C 390.411126 337.081121 392.779013 307.062072 365.892037 313.989545 C 297.91076 331.397041 391.709645 367.929099 401.945028 357.981958 C 482.911493 280.003481 487.876418 350.995276 487.876418 350.995276 " transform="matrix(0.05114,0,0,0.0659737,3.51875,-0.14475)"/>
</g>
</g>
<path style=" stroke:none;fill-rule:nonzero;fill:rgb(100%,100%,100%);fill-opacity:1;" d="M 18.621094 24.707031 L 18.449219 22.519531 L 14.769531 22.519531 L 14.601562 24.707031 "/>
<path style=" stroke:none;fill-rule:nonzero;fill:rgb(100%,100%,100%);fill-opacity:1;" d="M 13.714844 24.648438 L 19.503906 24.648438 L 19.503906 24.9375 L 13.714844 24.9375 Z M 13.714844 24.648438 "/>
<path style=" stroke:none;fill-rule:nonzero;fill:rgb(100%,100%,100%);fill-opacity:1;" d="M 24.230469 8.558594 L 8.988281 8.558594 C 8.714844 8.558594 8.496094 8.839844 8.496094 9.199219 L 8.496094 21.882812 C 8.496094 22.238281 8.714844 22.523438 8.988281 22.523438 L 24.230469 22.523438 C 24.507812 22.523438 24.726562 22.238281 24.726562 21.882812 L 24.726562 9.199219 C 24.726562 8.839844 24.507812 8.558594 24.230469 8.558594 Z M 24.027344 21.171875 C 24.027344 21.222656 23.996094 21.261719 23.953125 21.261719 L 9.265625 21.261719 C 9.226562 21.261719 9.195312 21.222656 9.195312 21.171875 L 9.195312 9.894531 C 9.195312 9.84375 9.226562 9.804688 9.265625 9.804688 L 23.953125 9.804688 C 23.996094 9.804688 24.027344 9.84375 24.027344 9.894531 Z M 24.027344 21.171875 "/>
<path style=" stroke:none;fill-rule:nonzero;fill:rgb(100%,100%,100%);fill-opacity:0.4;" d="M 24.230469 22.519531 C 24.507812 22.519531 24.726562 22.234375 24.726562 21.878906 L 24.726562 9.199219 C 24.726562 8.839844 24.507812 8.558594 24.230469 8.558594 L 16.683594 8.558594 Z M 24.230469 22.519531 "/>
</g>
</svg>
