
<svg xmlns="http://www.w3.org/2000/svg" xmlns:xlink="http://www.w3.org/1999/xlink" width="32px" height="32px" viewBox="0 0 32 32" version="1.1">
<g id="surface1">
<path style=" stroke:none;fill-rule:nonzero;fill:rgb(23.529412%,67.45098%,4.313725%);fill-opacity:1;" d="M 3.296875 7.519531 C -8.207031 23.886719 13.039062 40.472656 26.597656 27.136719 C 39.367188 14.574219 27.527344 -4.949219 11.636719 1.152344 C 8.316406 2.425781 5.410156 4.519531 3.296875 7.519531 Z M 3.296875 7.519531 "/>
<path style=" stroke:none;fill-rule:nonzero;fill:rgb(0%,0%,0%);fill-opacity:0.101961;" d="M 16.722656 8.191406 C 14.027344 8.191406 11.542969 9.679688 10.195312 12.089844 L 24.269531 12.089844 L 24.269531 8.191406 M 9.417969 14.035156 C 9.257812 14.675781 9.171875 15.328125 9.171875 15.988281 L 9.171875 17.933594 L 24.027344 17.933594 C 24.183594 17.300781 24.269531 16.644531 24.269531 15.988281 L 24.269531 14.035156 Z M 9.171875 19.886719 L 9.171875 23.78125 L 16.722656 23.78125 C 19.414062 23.78125 21.902344 22.292969 23.246094 19.886719 Z M 9.171875 19.886719 "/>
<path style=" stroke:none;fill-rule:nonzero;fill:rgb(97.647059%,97.647059%,97.647059%);fill-opacity:1;" d="M 16.09375 7.539062 C 13.398438 7.539062 10.910156 9.027344 9.566406 11.4375 L 23.640625 11.4375 L 23.640625 7.539062 M 8.789062 13.386719 C 8.628906 14.023438 8.542969 14.679688 8.542969 15.335938 L 8.542969 17.285156 L 23.394531 17.285156 C 23.558594 16.648438 23.640625 15.996094 23.640625 15.335938 L 23.640625 13.386719 Z M 8.542969 19.234375 L 8.542969 23.132812 L 16.09375 23.132812 C 18.785156 23.132812 21.273438 21.644531 22.621094 19.234375 Z M 8.542969 19.234375 "/>
</g>
</svg>
