
<svg xmlns="http://www.w3.org/2000/svg" xmlns:xlink="http://www.w3.org/1999/xlink" width="32px" height="32px" viewBox="0 0 32 32" version="1.1">
<g id="surface1">
<path style=" stroke:none;fill-rule:nonzero;fill:rgb(44.313725%,71.372549%,7.45098%);fill-opacity:1;" d="M 6.597656 28.878906 C 30.652344 44.871094 45.472656 -6.132812 14.371094 0.621094 C 1.519531 3.496094 -6.28125 21.542969 6.597656 28.878906 Z M 6.597656 28.878906 "/>
<path style=" stroke:none;fill-rule:nonzero;fill:rgb(100%,80%,25.882353%);fill-opacity:1;" d="M 11.046875 27.402344 C 10.316406 27.402344 9.710938 28.191406 9.59375 29.234375 C 10.480469 29.722656 11.429688 30.117188 12.425781 30.402344 C 12.488281 30.15625 12.527344 29.886719 12.527344 29.605469 C 12.527344 28.386719 11.863281 27.402344 11.046875 27.402344 Z M 12.527344 29.605469 C 12.527344 29.925781 12.582031 30.222656 12.683594 30.472656 C 13.261719 30.628906 13.855469 30.746094 14.464844 30.824219 C 14.675781 30.515625 14.804688 30.082031 14.804688 29.605469 C 14.804688 28.664062 14.292969 27.902344 13.667969 27.902344 C 13.035156 27.902344 12.523438 28.664062 12.523438 29.605469 Z M 21.90625 27.402344 C 21.089844 27.402344 20.429688 28.386719 20.429688 29.605469 C 20.429688 29.847656 20.457031 30.082031 20.503906 30.300781 C 21.503906 29.984375 22.449219 29.558594 23.335938 29.042969 C 23.167969 28.097656 22.589844 27.402344 21.90625 27.402344 Z M 20.429688 29.605469 C 20.429688 28.664062 19.917969 27.902344 19.289062 27.902344 C 18.660156 27.902344 18.152344 28.664062 18.152344 29.605469 C 18.152344 30.058594 18.269531 30.472656 18.460938 30.777344 C 19.09375 30.679688 19.710938 30.539062 20.3125 30.359375 C 20.386719 30.128906 20.429688 29.878906 20.429688 29.605469 Z M 8.433594 27.902344 C 8.230469 27.902344 8.042969 27.980469 7.875 28.121094 C 8.402344 28.519531 8.957031 28.882812 9.542969 29.207031 C 9.417969 28.457031 8.96875 27.902344 8.433594 27.902344 Z M 24.519531 27.902344 C 24.042969 27.902344 23.636719 28.339844 23.46875 28.960938 C 23.960938 28.667969 24.433594 28.339844 24.878906 27.988281 C 24.765625 27.933594 24.644531 27.902344 24.519531 27.902344 Z M 24.519531 27.902344 "/>
<path style=" stroke:none;fill-rule:nonzero;fill:rgb(100%,100%,100%);fill-opacity:0.25098;" d="M 7.394531 9.152344 C 7.394531 9.152344 7.039062 14.199219 7.445312 16.535156 C 7.839844 18.800781 9.464844 20.847656 11.953125 20.847656 C 14.175781 20.847656 16.058594 19.25 16.476562 17.210938 C 16.894531 19.25 18.78125 20.847656 21.003906 20.847656 C 23.492188 20.847656 25.117188 18.800781 25.511719 16.535156 C 25.917969 14.199219 25.558594 9.152344 25.558594 9.152344 C 25.558594 9.152344 20.910156 10.308594 19.105469 11.742188 C 17.996094 12.597656 16.804688 13.773438 16.476562 15.441406 C 16.152344 13.773438 14.957031 12.597656 13.851562 11.742188 C 12.042969 10.308594 7.394531 9.152344 7.394531 9.152344 Z M 7.394531 9.152344 "/>
<path style=" stroke:none;fill-rule:nonzero;fill:rgb(100%,80%,25.882353%);fill-opacity:1;" d="M 16.441406 16.015625 C 16.441406 17.53125 15.214844 18.765625 13.699219 18.835938 L 16.441406 20.402344 L 19.269531 18.855469 C 17.574219 18.746094 16.425781 17.425781 16.441406 16.015625 Z M 14.082031 19.1875 L 16.441406 21.785156 L 18.800781 19.1875 L 16.441406 20.449219 Z M 14.082031 19.1875 "/>
<path style=" stroke:none;fill-rule:nonzero;fill:rgb(100%,100%,100%);fill-opacity:1;" d="M 13.910156 16.636719 C 13.910156 17.867188 12.925781 18.867188 11.714844 18.867188 C 10.503906 18.867188 9.519531 17.867188 9.519531 16.636719 C 9.519531 15.402344 10.503906 14.402344 11.714844 14.402344 C 12.925781 14.402344 13.910156 15.402344 13.910156 16.636719 Z M 13.910156 16.636719 "/>
<path style=" stroke:none;fill-rule:nonzero;fill:rgb(0%,0%,0%);fill-opacity:1;" d="M 12.921875 16.632812 C 12.921875 17.3125 12.382812 17.863281 11.714844 17.863281 C 11.050781 17.863281 10.507812 17.3125 10.507812 16.632812 C 10.507812 15.957031 11.050781 15.40625 11.714844 15.40625 C 12.382812 15.40625 12.921875 15.957031 12.921875 16.632812 Z M 12.921875 16.632812 "/>
<path style=" stroke:none;fill-rule:nonzero;fill:rgb(100%,100%,100%);fill-opacity:1;" d="M 23.324219 16.636719 C 23.324219 17.867188 22.339844 18.871094 21.128906 18.871094 C 19.914062 18.871094 18.933594 17.867188 18.933594 16.636719 C 18.933594 15.402344 19.914062 14.402344 21.128906 14.402344 C 22.339844 14.402344 23.324219 15.402344 23.324219 16.636719 Z M 23.324219 16.636719 "/>
<path style=" stroke:none;fill-rule:nonzero;fill:rgb(0%,0%,0%);fill-opacity:1;" d="M 22.332031 16.632812 C 22.332031 17.3125 21.792969 17.863281 21.128906 17.863281 C 20.460938 17.863281 19.917969 17.3125 19.917969 16.632812 C 19.917969 15.957031 20.460938 15.40625 21.128906 15.40625 C 21.792969 15.40625 22.332031 15.957031 22.332031 16.632812 Z M 22.332031 16.632812 "/>
</g>
</svg>
