
<svg xmlns="http://www.w3.org/2000/svg" xmlns:xlink="http://www.w3.org/1999/xlink" width="32px" height="32px" viewBox="0 0 32 32" version="1.1">
<g id="surface1">
<path style=" stroke:none;fill-rule:nonzero;fill:rgb(28.235294%,23.921569%,54.509804%);fill-opacity:1;" d="M 28.664062 7.472656 C 39.222656 19.378906 22.566406 37.695312 8.628906 30.289062 C -5.460938 22.800781 -1.707031 -1.980469 15.601562 0.125 C 20.75 0.753906 25.21875 3.589844 28.664062 7.472656 "/>
<path style="fill-rule:evenodd;fill:rgb(100%,100%,100%);fill-opacity:1;stroke-width:1.061461;stroke-linecap:butt;stroke-linejoin:miter;stroke:rgb(100%,100%,100%);stroke-opacity:1;stroke-miterlimit:4;" d="M 37.65625 934.485 L 37.65625 904.1725 L 83.03125 904.1725 L 83.03125 865.9225 L 91.28125 865.9225 C 97.9375 865.9225 99.625 866.20375 100.0625 867.39125 C 100.375 868.20375 100.625 884.985 100.625 904.70375 L 100.625 940.5475 L 111.75 940.5475 L 111.75 904.1725 L 119.59375 904.1725 C 126 904.1725 127.46875 904.4225 127.46875 905.57875 C 127.46875 906.32875 127.90625 906.95375 128.40625 906.95375 C 129 906.95375 129.34375 913.1725 129.34375 923.76625 L 129.34375 940.5475 L 140.4375 940.5475 L 140.4375 904.1725 L 179.34375 904.1725 C 213.28125 904.1725 218.21875 904.32875 218.21875 905.57875 C 218.21875 906.32875 218.65625 906.95375 219.15625 906.95375 C 219.75 906.95375 220.0625 917.0475 220.0625 935.32875 C 220.0625 967.36 220.75 964.7975 212.125 964.7975 L 207.125 964.7975 L 207.125 926.5475 L 187.65625 926.5475 L 187.65625 944.5475 C 187.65625 957.32875 187.34375 962.89125 186.5625 963.70375 C 185.9375 964.2975 183.03125 964.7975 180.0625 964.7975 L 174.71875 964.7975 L 174.71875 926.5475 L 157.15625 926.5475 L 156.90625 945.45375 L 156.65625 964.32875 L 37.65625 964.82875 Z M 83.03125 935.89125 L 83.03125 926.5475 L 54.3125 926.5475 L 54.3125 945.20375 L 83.03125 945.20375 Z M 83.03125 935.89125 " transform="matrix(0.125,0,0,0.125,0,-99.545)"/>
</g>
</svg>
