
<svg xmlns="http://www.w3.org/2000/svg" xmlns:xlink="http://www.w3.org/1999/xlink" width="32px" height="32px" viewBox="0 0 32 32" version="1.1">
<g id="surface1">
<path style=" stroke:none;fill-rule:nonzero;fill:rgb(97.254902%,97.254902%,100%);fill-opacity:1;" d="M 3.175781 25.402344 C -12.46875 -8.855469 37.386719 -4.617188 31.433594 17.628906 C 28.558594 30.480469 10.511719 38.277344 3.175781 25.402344 Z M 3.175781 25.402344 "/>
<path style=" stroke:none;fill-rule:nonzero;fill:rgb(89.803922%,19.607843%,21.960784%);fill-opacity:1;" d="M 7.929688 12.082031 C 6.324219 12.082031 4.988281 13.027344 4.988281 15.878906 C 4.988281 18.140625 5.886719 19.5625 7.972656 19.5625 C 10.425781 19.5625 10.582031 17.320312 10.582031 17.320312 L 9.394531 17.320312 C 9.394531 17.320312 9.136719 18.527344 7.898438 18.527344 C 6.886719 18.527344 6.160156 17.582031 6.160156 16.253906 L 10.707031 16.253906 L 10.707031 15.417969 C 10.707031 14.105469 10.105469 12.082031 7.929688 12.082031 Z M 7.886719 13.144531 C 8.847656 13.144531 9.503906 13.964844 9.503906 15.191406 L 6.191406 15.191406 C 6.191406 13.886719 7.042969 13.144531 7.886719 13.144531 Z M 7.886719 13.144531 "/>
<path style=" stroke:none;fill-rule:nonzero;fill:rgb(0%,39.215686%,82.352941%);fill-opacity:1;" d="M 10.707031 9.320312 L 10.707031 18.128906 C 10.707031 18.628906 10.683594 19.332031 10.683594 19.332031 L 11.816406 19.332031 C 11.816406 19.332031 11.855469 18.828125 11.855469 18.367188 C 11.855469 18.367188 12.417969 19.585938 13.941406 19.585938 C 15.542969 19.585938 16.636719 18.039062 16.636719 15.824219 C 16.636719 13.761719 15.632812 12.105469 13.941406 12.105469 C 12.359375 12.105469 11.867188 13.292969 11.867188 13.292969 L 11.867188 9.320312 Z M 13.652344 13.191406 C 14.738281 13.191406 15.433594 14.316406 15.433594 15.824219 C 15.433594 17.4375 14.632812 18.496094 13.660156 18.496094 C 12.496094 18.496094 11.867188 17.234375 11.867188 15.839844 C 11.867188 14.535156 12.429688 13.191406 13.652344 13.191406 Z M 13.652344 13.191406 "/>
<path style=" stroke:none;fill-rule:nonzero;fill:rgb(96.078431%,68.627451%,0.784314%);fill-opacity:1;" d="M 19.453125 12.082031 C 17.039062 12.082031 16.882812 13.917969 16.882812 14.210938 L 18.085938 14.210938 C 18.085938 14.210938 18.148438 13.140625 19.371094 13.140625 C 20.164062 13.140625 20.78125 13.644531 20.78125 14.613281 L 20.78125 14.960938 L 19.371094 14.960938 C 17.5 14.960938 16.511719 15.71875 16.511719 17.261719 C 16.511719 18.777344 17.425781 19.605469 18.660156 19.605469 C 20.34375 19.605469 20.886719 18.3125 20.886719 18.3125 C 20.886719 18.828125 20.914062 19.332031 20.914062 19.332031 L 21.980469 19.332031 C 21.980469 19.332031 21.941406 18.707031 21.941406 18.304688 L 21.941406 14.835938 C 21.941406 12.558594 20.621094 12.082031 19.453125 12.082031 Z M 20.78125 15.996094 L 20.78125 16.457031 C 20.78125 17.058594 20.511719 18.550781 18.941406 18.550781 C 18.082031 18.550781 17.714844 17.953125 17.714844 17.261719 C 17.714844 16.003906 18.957031 15.996094 20.78125 15.996094 Z M 20.78125 15.996094 "/>
<path style=" stroke:none;fill-rule:nonzero;fill:rgb(52.54902%,72.156863%,9.019608%);fill-opacity:1;" d="M 21.292969 12.371094 L 22.644531 12.371094 L 24.585938 17.769531 L 26.523438 12.371094 L 27.746094 12.371094 L 24.222656 21.980469 L 22.933594 21.980469 L 23.953125 19.300781 Z M 21.292969 12.371094 "/>
</g>
</svg>
