
<svg xmlns="http://www.w3.org/2000/svg" xmlns:xlink="http://www.w3.org/1999/xlink" width="32px" height="32px" viewBox="0 0 32 32" version="1.1">
<g id="surface1">
<path style=" stroke:none;fill-rule:nonzero;fill:rgb(46.666667%,53.333333%,60%);fill-opacity:1;" d="M 29.246094 6.703125 C 23.179688 -4.316406 4.167969 -0.0390625 0.953125 9.03125 C -2.878906 19.839844 7.09375 40.363281 23.988281 28.339844 C 29.679688 24.140625 35.316406 17.722656 29.246094 6.703125 Z M 29.246094 6.703125 "/>
<path style=" stroke:none;fill-rule:nonzero;fill:rgb(18.431373%,30.980392%,30.980392%);fill-opacity:1;" d="M 15.816406 6.335938 C 10.417969 6.335938 6.042969 10.621094 6.042969 15.902344 C 6.042969 21.183594 10.417969 25.464844 15.816406 25.464844 C 21.210938 25.464844 25.582031 21.183594 25.582031 15.902344 C 25.582031 10.621094 21.210938 6.335938 15.816406 6.335938 Z M 15.816406 6.335938 "/>
<path style=" stroke:none;fill-rule:nonzero;fill:rgb(99.607843%,57.647059%,8.627451%);fill-opacity:1;" d="M 24.925781 17.335938 C 24.925781 19.78125 22.902344 21.761719 20.40625 21.761719 C 17.910156 21.761719 15.886719 19.78125 15.886719 17.335938 C 15.886719 14.894531 17.910156 12.914062 20.40625 12.914062 C 22.902344 12.914062 24.925781 14.894531 24.925781 17.335938 Z M 24.925781 17.335938 "/>
<path style=" stroke:none;fill-rule:nonzero;fill:rgb(45.490196%,56.470588%,76.470588%);fill-opacity:1;" d="M 12.519531 13.972656 C 9.859375 13.972656 7.730469 15.058594 6.066406 16.511719 C 6.386719 21.601562 10.652344 25.570312 15.816406 25.570312 C 19.589844 25.566406 23.027344 23.410156 24.636719 20.035156 C 19.753906 15.585938 15.746094 13.972656 12.519531 13.972656 Z M 12.519531 13.972656 "/>
</g>
</svg>
