
<svg xmlns="http://www.w3.org/2000/svg" xmlns:xlink="http://www.w3.org/1999/xlink" width="32px" height="32px" viewBox="0 0 32 32" version="1.1">
<g id="surface1">
<path style=" stroke:none;fill-rule:nonzero;fill:rgb(93.333333%,90.980392%,66.666667%);fill-opacity:1;" d="M 29.402344 25.308594 C 39.816406 10.425781 16.371094 -8.214844 4.121094 3.898438 C -7.433594 15.324219 7.503906 36.636719 21.867188 31.097656 C 24.871094 29.9375 27.503906 28.027344 29.402344 25.308594 Z M 29.402344 25.308594 "/>
<path style=" stroke:none;fill-rule:nonzero;fill:rgb(66.666667%,61.568627%,41.176471%);fill-opacity:1;" d="M 11.457031 16.933594 C 11.089844 16.707031 11.761719 16.1875 12.636719 16.027344 C 13.058594 15.949219 13.453125 15.914062 13.507812 15.949219 C 13.730469 16.082031 13.597656 16.664062 13.308594 16.839844 C 12.953125 17.050781 11.746094 17.113281 11.457031 16.933594 Z M 14.285156 15.730469 C 14.285156 15.53125 14.445312 15.417969 14.925781 15.273438 C 15.277344 15.167969 15.746094 14.988281 15.96875 14.882812 C 16.191406 14.777344 17.023438 14.429688 17.820312 14.113281 C 19.125 13.589844 19.304688 13.550781 19.640625 13.707031 L 20.011719 13.875 L 19.269531 14.546875 C 18.613281 15.140625 17.875 15.589844 17.550781 15.589844 C 17.488281 15.589844 17.441406 15.425781 17.445312 15.222656 C 17.449219 14.917969 17.386719 14.847656 17.078125 14.808594 C 16.875 14.785156 16.367188 14.921875 15.949219 15.113281 C 15.535156 15.300781 15.113281 15.457031 15.007812 15.457031 C 14.90625 15.457031 14.699219 15.574219 14.554688 15.722656 C 14.285156 15.988281 14.285156 15.988281 14.285156 15.730469 Z M 15.167969 14.550781 C 15.128906 14.507812 15.09375 14.433594 15.09375 14.382812 C 15.09375 14.253906 15.734375 13.980469 16.042969 13.980469 C 16.324219 13.980469 16.394531 14.175781 16.167969 14.320312 C 15.914062 14.472656 15.25 14.628906 15.167969 14.550781 Z M 15.167969 14.550781 "/>
<path style=" stroke:none;fill-rule:nonzero;fill:rgb(59.607843%,27.843137%,15.686275%);fill-opacity:1;" d="M 10.933594 17.082031 C 10.503906 16.808594 11.597656 15.769531 12.464844 15.628906 C 12.808594 15.574219 12.992188 15.460938 13.070312 15.253906 C 13.191406 14.941406 14.175781 14.277344 15.058594 13.910156 C 15.65625 13.660156 17.25 13.308594 17.761719 13.316406 C 18.109375 13.320312 18.113281 13.328125 17.863281 13.515625 C 17.667969 13.664062 17.652344 13.714844 17.800781 13.714844 C 17.914062 13.714844 18.0625 13.660156 18.132812 13.597656 C 18.324219 13.425781 20.191406 13.011719 20.347656 13.109375 C 20.523438 13.214844 20.519531 13.527344 20.339844 13.859375 C 20.199219 14.121094 20.199219 14.121094 19.851562 13.851562 C 19.660156 13.699219 19.425781 13.578125 19.324219 13.578125 C 19.121094 13.578125 16.273438 14.699219 15.746094 14.992188 C 15.550781 15.097656 15.300781 15.1875 15.191406 15.1875 C 15.085938 15.1875 14.730469 15.328125 14.402344 15.503906 C 14.078125 15.675781 13.386719 15.894531 12.867188 15.988281 C 11.878906 16.167969 11.316406 16.519531 11.316406 16.953125 C 11.316406 17.222656 11.214844 17.253906 10.933594 17.082031 Z M 16.167969 14.320312 C 16.394531 14.175781 16.324219 13.980469 16.042969 13.980469 C 15.734375 13.980469 15.09375 14.253906 15.09375 14.382812 C 15.09375 14.636719 15.707031 14.601562 16.167969 14.320312 Z M 12.164062 17.101562 C 12.367188 17.070312 12.671875 17.074219 12.835938 17.105469 C 13.003906 17.136719 12.835938 17.160156 12.464844 17.160156 C 12.09375 17.160156 11.957031 17.132812 12.164062 17.101562 Z M 18.867188 14.992188 C 19.050781 14.792969 19.386719 14.535156 19.605469 14.421875 C 20.105469 14.167969 20.058594 14.21875 19.203125 14.855469 C 18.671875 15.253906 18.601562 15.28125 18.867188 14.992188 Z M 18.867188 14.992188 "/>
<path style=" stroke:none;fill-rule:nonzero;fill:rgb(34.509804%,13.333333%,5.490196%);fill-opacity:1;" d="M 17.898438 24.078125 C 17.996094 24.039062 18.113281 24.042969 18.15625 24.089844 C 18.199219 24.132812 18.121094 24.164062 17.980469 24.160156 C 17.824219 24.152344 17.789062 24.121094 17.898438 24.078125 Z M 17.285156 23.136719 C 17.488281 23.105469 17.792969 23.105469 17.957031 23.136719 C 18.125 23.167969 17.957031 23.191406 17.585938 23.191406 C 17.214844 23.191406 17.082031 23.167969 17.285156 23.136719 Z M 20.214844 23.179688 C 20.214844 23.152344 20.320312 23.046875 20.449219 22.945312 C 20.664062 22.777344 20.667969 22.785156 20.5 22.996094 C 20.324219 23.21875 20.214844 23.292969 20.214844 23.179688 Z M 16.371094 22.613281 C 16.074219 22.222656 15.496094 20.957031 15.496094 20.691406 C 15.496094 20.503906 15.875 21.207031 15.957031 21.542969 C 16.007812 21.753906 16.230469 22.191406 16.457031 22.511719 C 16.941406 23.21875 16.886719 23.285156 16.371094 22.613281 Z M 18.472656 23.046875 C 18.503906 23.019531 18.683594 22.925781 18.867188 22.839844 C 19.183594 22.691406 19.1875 22.691406 18.941406 22.886719 C 18.726562 23.058594 18.289062 23.207031 18.472656 23.046875 Z M 19.488281 22.40625 C 19.628906 22.210938 19.769531 22.074219 19.800781 22.109375 C 19.835938 22.140625 19.722656 22.300781 19.546875 22.464844 L 19.230469 22.761719 Z M 19.695312 21.621094 C 19.695312 21.4375 19.726562 21.363281 19.765625 21.457031 C 19.800781 21.546875 19.800781 21.699219 19.765625 21.789062 C 19.726562 21.882812 19.695312 21.808594 19.695312 21.621094 Z M 20.640625 21.355469 C 20.640625 21.167969 20.667969 21.09375 20.707031 21.1875 C 20.746094 21.277344 20.746094 21.429688 20.707031 21.519531 C 20.667969 21.613281 20.640625 21.539062 20.640625 21.355469 Z M 14.429688 20.875 C 14.433594 20.71875 14.46875 20.683594 14.511719 20.792969 C 14.550781 20.890625 14.542969 21.003906 14.5 21.050781 C 14.457031 21.09375 14.425781 21.015625 14.429688 20.875 Z M 15.378906 20.199219 C 15.371094 19.972656 15.152344 19.324219 14.890625 18.769531 C 14.628906 18.207031 14.417969 17.597656 14.417969 17.402344 C 14.417969 16.953125 14.082031 16.832031 13.605469 17.113281 C 13.324219 17.277344 12.894531 17.332031 11.878906 17.332031 C 10.632812 17.332031 10.507812 17.308594 10.316406 17.035156 C 10.199219 16.871094 10.105469 16.511719 10.105469 16.238281 C 10.105469 15.839844 10.167969 15.722656 10.410156 15.652344 C 10.742188 15.550781 11.316406 15.074219 11.316406 14.894531 C 11.316406 14.757812 10.644531 14.746094 10.640625 14.886719 C 10.636719 14.941406 10.511719 15.136719 10.355469 15.316406 C 10.089844 15.644531 10.074219 15.644531 9.890625 15.394531 C 9.558594 14.941406 9.652344 13.882812 10.089844 13.1875 C 10.300781 12.851562 10.519531 12.398438 10.566406 12.183594 C 10.675781 11.738281 11.101562 11.3125 12.578125 10.191406 L 13.636719 9.394531 L 15.136719 9.394531 C 16.734375 9.394531 18.074219 9.648438 17.535156 9.847656 C 17.105469 10.003906 17.128906 11.144531 17.574219 11.660156 C 18.207031 12.390625 19.542969 12.003906 19.542969 11.089844 C 19.542969 10.847656 19.363281 10.6875 18.730469 10.347656 C 18.285156 10.113281 17.941406 9.898438 17.96875 9.871094 C 17.996094 9.839844 18.367188 10.019531 18.792969 10.257812 C 19.386719 10.59375 19.652344 10.855469 19.9375 11.367188 C 20.140625 11.738281 20.4375 12.246094 20.597656 12.507812 C 20.925781 13.035156 20.957031 13.378906 20.714844 13.804688 C 20.546875 14.105469 18.808594 15.402344 18.066406 15.785156 C 17.617188 16.019531 17.527344 16.394531 17.863281 16.667969 C 17.976562 16.761719 18.199219 17.027344 18.351562 17.253906 C 18.53125 17.519531 18.433594 17.453125 18.078125 17.066406 C 17.425781 16.355469 17.414062 16.035156 18.027344 15.660156 C 19.792969 14.574219 20.769531 13.542969 20.390625 13.164062 C 20.238281 13.011719 18.394531 13.367188 18.132812 13.597656 C 18.0625 13.660156 17.914062 13.714844 17.800781 13.714844 C 17.652344 13.714844 17.667969 13.664062 17.863281 13.515625 C 18.113281 13.328125 18.109375 13.320312 17.761719 13.316406 C 17.25 13.308594 15.65625 13.660156 15.058594 13.910156 C 14.175781 14.277344 13.191406 14.941406 13.070312 15.253906 C 12.992188 15.460938 12.808594 15.574219 12.464844 15.628906 C 11.917969 15.71875 11.136719 16.246094 10.902344 16.683594 C 10.683594 17.089844 10.933594 17.195312 12.152344 17.195312 C 13.070312 17.199219 13.230469 17.160156 13.601562 16.851562 L 14.019531 16.503906 L 14.28125 16.816406 C 14.425781 16.988281 14.546875 17.265625 14.550781 17.429688 C 14.550781 17.59375 14.699219 18.058594 14.882812 18.46875 C 15.136719 19.035156 15.28125 19.207031 15.503906 19.207031 C 15.730469 19.207031 15.773438 19.261719 15.695312 19.441406 C 15.640625 19.574219 15.550781 19.890625 15.496094 20.148438 L 15.394531 20.617188 Z M 11.890625 18.175781 C 12.167969 18.144531 12.625 18.144531 12.902344 18.175781 C 13.179688 18.203125 12.953125 18.226562 12.394531 18.226562 C 11.839844 18.226562 11.613281 18.203125 11.890625 18.175781 Z M 8.65625 14.851562 C 8.660156 14.558594 8.6875 14.453125 8.71875 14.621094 C 8.75 14.785156 8.75 15.027344 8.714844 15.15625 C 8.683594 15.285156 8.65625 15.148438 8.65625 14.851562 Z M 8.632812 13.902344 C 8.640625 13.746094 8.671875 13.714844 8.714844 13.824219 C 8.753906 13.917969 8.75 14.035156 8.707031 14.078125 C 8.660156 14.121094 8.628906 14.042969 8.632812 13.902344 Z M 11.050781 10.042969 C 11.050781 10.015625 11.15625 9.910156 11.285156 9.808594 C 11.5 9.640625 11.503906 9.644531 11.335938 9.859375 C 11.160156 10.082031 11.050781 10.152344 11.050781 10.042969 Z M 13.71875 8.394531 C 13.816406 8.355469 13.933594 8.359375 13.980469 8.402344 C 14.023438 8.449219 13.941406 8.480469 13.800781 8.472656 C 13.644531 8.46875 13.613281 8.4375 13.71875 8.394531 Z M 16.414062 8.394531 C 16.511719 8.355469 16.628906 8.359375 16.675781 8.402344 C 16.71875 8.449219 16.636719 8.480469 16.496094 8.472656 C 16.339844 8.46875 16.308594 8.4375 16.414062 8.394531 Z M 14.664062 8.261719 C 14.761719 8.222656 14.878906 8.226562 14.921875 8.269531 C 14.964844 8.316406 14.886719 8.347656 14.746094 8.339844 C 14.589844 8.332031 14.554688 8.300781 14.664062 8.261719 Z M 14.664062 8.261719 "/>
<path style=" stroke:none;fill-rule:nonzero;fill:rgb(7.058824%,5.490196%,4.705882%);fill-opacity:1;" d="M 16.363281 24.121094 C 16.136719 24.023438 15.695312 23.671875 15.375 23.34375 C 14.808594 22.761719 14.695312 22.5 14.402344 21.121094 C 14.117188 19.796875 13.546875 18.460938 13.21875 18.355469 C 13.082031 18.316406 12.269531 18.292969 11.417969 18.316406 C 10.320312 18.339844 9.808594 18.300781 9.660156 18.179688 C 9.550781 18.085938 9.265625 17.628906 9.035156 17.160156 C 8.652344 16.390625 8.613281 16.183594 8.59375 14.949219 C 8.578125 13.691406 8.601562 13.550781 8.929688 13.058594 C 9.125 12.761719 9.285156 12.460938 9.285156 12.382812 C 9.285156 11.914062 10.011719 10.910156 10.785156 10.304688 C 12.738281 8.785156 12.917969 8.683594 14.046875 8.53125 C 15.714844 8.300781 17.402344 8.636719 19.230469 9.554688 C 20.128906 10.003906 20.339844 10.265625 21.234375 11.988281 C 21.667969 12.816406 21.714844 13.003906 21.644531 13.597656 C 21.550781 14.371094 21.167969 14.976562 20.582031 15.277344 C 20.011719 15.570312 18.855469 16.410156 18.855469 16.527344 C 18.855469 16.582031 19.035156 16.863281 19.253906 17.152344 C 19.722656 17.761719 20.011719 18.558594 20.191406 19.691406 C 20.261719 20.132812 20.390625 20.933594 20.480469 21.472656 C 20.597656 22.1875 20.601562 22.542969 20.496094 22.773438 C 20.273438 23.257812 18.988281 24.007812 18.101562 24.171875 C 17.113281 24.355469 16.859375 24.347656 16.363281 24.121094 Z M 19.042969 22.878906 C 19.660156 22.449219 19.785156 22.035156 19.53125 21.324219 C 19.445312 21.089844 19.328125 20.429688 19.269531 19.859375 C 19.175781 18.964844 19.082031 18.707031 18.597656 17.964844 C 18.289062 17.492188 17.917969 17 17.769531 16.871094 C 17.386719 16.527344 17.445312 16.175781 17.921875 15.933594 C 18.664062 15.550781 20.402344 14.25 20.566406 13.949219 C 20.808594 13.523438 20.777344 13.179688 20.449219 12.652344 C 20.292969 12.394531 19.996094 11.878906 19.792969 11.511719 C 19.511719 11.007812 19.238281 10.738281 18.675781 10.421875 C 17.425781 9.714844 16.703125 9.539062 15.011719 9.539062 L 13.488281 9.539062 L 12.433594 10.339844 C 10.957031 11.457031 10.527344 11.878906 10.421875 12.332031 C 10.371094 12.542969 10.15625 12.996094 9.941406 13.332031 C 9.503906 14.027344 9.410156 15.085938 9.746094 15.539062 C 9.929688 15.789062 9.941406 15.785156 10.210938 15.464844 C 10.363281 15.28125 10.492188 15.085938 10.496094 15.03125 C 10.5 14.894531 11.171875 14.902344 11.171875 15.042969 C 11.171875 15.214844 10.597656 15.695312 10.261719 15.796875 C 10.019531 15.871094 9.957031 15.984375 9.957031 16.386719 C 9.957031 16.660156 10.054688 17.015625 10.167969 17.179688 C 10.363281 17.453125 10.488281 17.480469 11.730469 17.480469 C 12.746094 17.480469 13.179688 17.421875 13.460938 17.257812 C 13.9375 16.976562 14.273438 17.097656 14.273438 17.550781 C 14.273438 17.742188 14.484375 18.355469 14.746094 18.914062 C 15.003906 19.472656 15.214844 20.0625 15.214844 20.222656 C 15.214844 21.011719 16.238281 23.066406 16.742188 23.300781 C 16.832031 23.339844 17.257812 23.347656 17.695312 23.316406 C 18.296875 23.277344 18.628906 23.167969 19.042969 22.878906 Z M 19.042969 22.878906 "/>
</g>
</svg>
