
<svg xmlns="http://www.w3.org/2000/svg" xmlns:xlink="http://www.w3.org/1999/xlink" width="32px" height="32px" viewBox="0 0 32 32" version="1.1">
<g id="surface1">
<path style=" stroke:none;fill-rule:nonzero;fill:rgb(72.156863%,52.54902%,4.313725%);fill-opacity:1;" d="M 6.042969 28.527344 C 24.972656 43.355469 44.628906 6.429688 21.1875 1.027344 C 6.425781 -4.503906 -7.988281 17.539062 6.042969 28.527344 Z M 6.042969 28.527344 "/>
<path style=" stroke:none;fill-rule:nonzero;fill:rgb(100%,84.313725%,0%);fill-opacity:1;" d="M 4.488281 16.75 L 4.484375 12.066406 L 6.996094 12.175781 C 9.324219 12.273438 9.503906 12.3125 9.503906 12.71875 C 9.503906 13.101562 9.324219 13.167969 8.007812 13.261719 C 7.1875 13.324219 6.394531 13.449219 6.246094 13.550781 C 6.101562 13.644531 5.980469 14.058594 5.980469 14.460938 C 5.980469 15.347656 6.195312 15.511719 7.582031 15.65625 C 8.472656 15.75 8.652344 15.84375 8.652344 16.207031 C 8.652344 16.570312 8.472656 16.660156 7.535156 16.753906 C 6.921875 16.816406 6.324219 16.964844 6.207031 17.082031 C 6.09375 17.199219 5.972656 18.128906 5.9375 19.148438 C 5.875 20.960938 5.863281 21 5.339844 21 C 5.046875 21 4.738281 21.097656 4.648438 21.21875 C 4.5625 21.339844 4.488281 19.328125 4.488281 16.75 Z M 16.160156 20.964844 C 16.082031 20.882812 16.015625 18.867188 16.015625 16.480469 L 16.015625 12.144531 L 16.605469 12.214844 L 17.191406 12.28125 L 17.253906 14.625 C 17.285156 15.914062 17.402344 16.96875 17.507812 16.96875 C 17.613281 16.96875 17.835938 16.769531 18 16.53125 L 18.300781 16.097656 L 18.683594 16.53125 C 18.898438 16.769531 19.152344 16.96875 19.246094 16.96875 C 19.339844 16.96875 19.445312 15.914062 19.480469 14.625 L 19.539062 12.28125 L 20.714844 12.144531 L 20.714844 16.503906 C 20.714844 19.203125 20.632812 20.917969 20.5 21.003906 C 20.066406 21.273438 19.484375 20.863281 19.109375 20.015625 C 18.605469 18.871094 18.140625 18.902344 17.558594 20.128906 C 17.121094 21.046875 16.566406 21.378906 16.160156 20.964844 Z M 21.722656 20.972656 C 21.636719 20.886719 21.566406 18.871094 21.566406 16.496094 L 21.566406 12.171875 L 22.167969 12.171875 C 22.664062 12.171875 22.84375 12.339844 23.230469 13.152344 C 23.488281 13.691406 23.824219 14.136719 23.980469 14.136719 C 24.132812 14.136719 24.472656 13.691406 24.726562 13.152344 C 25.128906 12.3125 25.285156 12.171875 25.839844 12.171875 L 26.488281 12.171875 L 26.375 21 L 25.839844 21 C 25.308594 21 25.304688 20.992188 25.246094 18.714844 C 25.175781 16.199219 24.972656 15.6875 24.359375 16.511719 L 23.96875 17.039062 L 23.714844 16.554688 C 23.207031 15.585938 22.957031 16.179688 22.847656 18.621094 C 22.753906 20.808594 22.707031 21.003906 22.308594 21.066406 C 22.066406 21.097656 21.804688 21.058594 21.71875 20.972656 Z M 11.425781 18.277344 C 10.277344 15.9375 10.25 15.84375 10.25 14.027344 L 10.25 12.175781 L 11.53125 12.175781 L 11.53125 14.144531 C 11.53125 15.699219 11.625 16.296875 11.972656 16.988281 C 12.210938 17.472656 12.523438 17.828125 12.664062 17.78125 C 12.804688 17.734375 13.136719 17.3125 13.394531 16.839844 C 13.789062 16.136719 13.875 15.648438 13.878906 14.082031 L 13.878906 12.175781 L 15.160156 12.175781 L 15.160156 13.957031 C 15.160156 15.675781 15.121094 15.828125 13.980469 18.207031 C 13.332031 19.5625 12.757812 20.671875 12.703125 20.671875 C 12.648438 20.671875 12.074219 19.597656 11.425781 18.277344 Z M 11.425781 18.277344 "/>
</g>
</svg>
