
<svg xmlns="http://www.w3.org/2000/svg" xmlns:xlink="http://www.w3.org/1999/xlink" width="32px" height="32px" viewBox="0 0 32 32" version="1.1">
<g id="surface1">
<path style=" stroke:none;fill-rule:nonzero;fill:rgb(0%,0%,0%);fill-opacity:1;" d="M 3.910156 6.585938 C -17.289062 41.828125 52.066406 37.898438 26.371094 7.113281 C 20.511719 0.0976562 9.523438 -2.746094 3.910156 6.585938 Z M 3.910156 6.585938 "/>
<path style="fill-rule:evenodd;fill:rgb(100%,100%,100%);fill-opacity:1;stroke-width:1.092823;stroke-linecap:butt;stroke-linejoin:miter;stroke:rgb(100%,100%,100%);stroke-opacity:1;stroke-miterlimit:4;" d="M 70.96875 161.75 C 70.96875 160.34375 72.6875 156.28125 74.8125 152.71875 C 76.90625 149.1875 78.625 145.65625 78.625 144.90625 C 78.625 144.15625 79.90625 141.90625 81.5 139.9375 C 83.09375 137.9375 84.375 135.75 84.375 135.09375 C 84.375 133.09375 91.28125 127.96875 93.96875 127.96875 C 96.78125 127.96875 100.5 131.5 103.0625 136.5625 C 103.96875 138.40625 105 140.125 105.3125 140.40625 C 106.28125 141.1875 108.1875 144.46875 110.34375 149.03125 C 111.46875 151.375 112.75 154.0625 113.1875 154.96875 C 113.65625 155.875 114.40625 158.34375 114.875 160.46875 C 115.625 163.84375 115.53125 164.3125 114.0625 164.3125 C 113.125 164.3125 110.78125 163.6875 108.875 162.875 C 106 161.6875 105.4375 160.9375 105.4375 158.5625 C 105.4375 157 104.5625 154.875 103.5 153.8125 C 102.46875 152.75 101.59375 151.28125 101.59375 150.53125 C 101.59375 145.53125 98.8125 144.875 95.75 149.15625 L 93.625 152.15625 L 91.0625 149 C 88.3125 145.625 85.3125 145.53125 85.3125 148.8125 C 85.3125 149.78125 84.28125 152 83 153.71875 C 81.6875 155.46875 80.375 158.15625 80.03125 159.65625 C 79.375 162.75 77.125 164.3125 73.4375 164.3125 C 71.40625 164.3125 70.96875 163.875 70.96875 161.75 Z M 94.75 142.4375 C 96.6875 141.1875 95.65625 138.0625 93.21875 137.71875 C 90.625 137.34375 89.375 139.78125 91.09375 141.84375 C 92.4375 143.46875 92.96875 143.5625 94.75 142.4375 Z M 94.75 142.4375 " transform="matrix(0.125,0,0,0.125,0,0)"/>
<path style="fill-rule:evenodd;fill:rgb(100%,100%,100%);fill-opacity:1;stroke-width:1.092823;stroke-linecap:butt;stroke-linejoin:miter;stroke:rgb(100%,100%,100%);stroke-opacity:1;stroke-miterlimit:4;" d="M 120.65625 162.8125 C 119.65625 161.59375 119.34375 157.75 119.3125 147.21875 C 119.3125 139.53125 119.625 132.09375 120 130.6875 C 120.9375 127.4375 126.0625 126.25 130.125 128.34375 C 133.125 129.90625 138.90625 136.03125 138.90625 137.625 C 138.90625 138.1875 140 140.03125 141.3125 141.75 C 142.625 143.46875 143.6875 145.625 143.6875 146.5 C 143.6875 147.40625 144.3125 148.34375 145.0625 148.65625 C 146.84375 149.3125 150.40625 147.40625 150.40625 145.75 C 150.40625 145.0625 151.59375 142.9375 153.03125 141.03125 C 154.46875 139.15625 156.90625 135.59375 158.40625 133.1875 C 161.5 128.25 164.65625 126.59375 169.28125 127.46875 C 173.4375 128.25 173.8125 129.90625 173.8125 148.53125 L 173.84375 163.84375 L 171.4375 164.09375 C 166.65625 164.59375 166.28125 163.5625 166.5 150.4375 C 166.71875 138.375 166.6875 138.34375 164.53125 138.65625 C 162.96875 138.875 161.5625 140.59375 159.375 144.96875 C 157.71875 148.28125 155.71875 151.71875 154.90625 152.625 C 154.125 153.53125 152.78125 155.90625 151.96875 157.875 C 150.65625 161.0625 150.125 161.46875 147.125 161.46875 C 144.15625 161.46875 143.46875 160.96875 141.5625 157.53125 C 140.375 155.375 138.21875 151.59375 136.8125 149.15625 C 135.375 146.71875 133.53125 143.3125 132.71875 141.59375 C 131.78125 139.65625 130.53125 138.5 129.375 138.5 C 127.625 138.5 127.46875 139.3125 127.21875 151.15625 L 126.96875 163.84375 L 124.46875 164.125 C 123.03125 164.3125 121.4375 163.75 120.65625 162.8125 Z M 120.65625 162.8125 " transform="matrix(0.125,0,0,0.125,0,0)"/>
<path style="fill-rule:evenodd;fill:rgb(100%,100%,100%);fill-opacity:1;stroke-width:1.092823;stroke-linecap:butt;stroke-linejoin:miter;stroke:rgb(100%,100%,100%);stroke-opacity:1;stroke-miterlimit:4;" d="M 178.15625 148.375 C 178.15625 139.3125 178.5625 130.8125 179.09375 129.46875 C 179.90625 127.25 180.25 127.125 182.4375 128.125 C 185.78125 129.65625 186.75 133.96875 186.75 147.28125 C 186.75 154.15625 187.15625 158.71875 187.78125 159.09375 C 189 159.84375 191.34375 157.84375 196.53125 151.625 C 199.53125 148.0625 200.21875 146.5625 199.75 144.6875 C 199.4375 143.375 198.5625 142.3125 197.84375 142.3125 C 195.34375 142.3125 189.59375 132.53125 189.90625 129.34375 C 190.40625 124.40625 196.15625 128.03125 203.9375 135.40625 C 207.875 139.125 207.1875 140.71875 210.40625 142.53125 C 211.3125 143.0625 214.03125 140.125 217.5625 136.6875 C 223.6875 130.71875 230.28125 127.1875 232.40625 128.5 C 234.65625 129.90625 232.40625 134.96875 226.96875 140.3125 C 223.78125 143.4375 221.21875 146.59375 221.21875 147.3125 C 221.21875 148.0625 222.875 149.90625 224.9375 151.4375 C 229.40625 154.8125 232.6875 159.375 232.6875 162.21875 C 232.6875 163.90625 231.40625 165.40625 229.1875 165.40625 C 227.15625 165.40625 224.03125 163.8125 220.6875 160.5625 C 215.09375 155.15625 211.9375 150.9375 209.75 150.9375 C 208.875 150.9375 206.5625 154.8125 202.5 158.21875 L 194.6875 164.8125 L 178.15625 164.8125 Z M 178.15625 148.375 " transform="matrix(0.125,0,0,0.125,0,0)"/>
<path style="fill-rule:evenodd;fill:rgb(100%,100%,100%);fill-opacity:1;stroke-width:1.092823;stroke-linecap:butt;stroke-linejoin:miter;stroke:rgb(100%,100%,100%);stroke-opacity:1;stroke-miterlimit:4;" d="M 39.875 166.59375 C 35.09375 165.875 26.9375 162.28125 25.96875 160.4375 C 25.46875 159.5 25.03125 157.875 25.03125 156.84375 C 25.03125 155.84375 24.40625 154.46875 23.59375 153.8125 C 21.65625 152.1875 21.59375 141.09375 23.53125 139.5 C 24.3125 138.875 25.1875 137.125 25.5 135.65625 C 25.90625 133.875 27.53125 132 30.125 130.25 C 33.90625 127.75 34.75 127.59375 45.125 127.53125 C 55.46875 127.5 56.40625 127.65625 60.625 130.125 C 66.46875 133.5625 67.53125 136.75 66.9375 149 C 66.46875 159 64.8125 163.34375 60.84375 165.15625 C 58.40625 166.25 44.1875 167.25 39.875 166.59375 Z M 57.625 157.59375 C 58.65625 157.03125 59.5 155.59375 59.5 154.34375 C 59.5 151.65625 57.46875 150.96875 49.6875 150.9375 C 44.5 150.9375 44.1875 150.8125 44.1875 148.59375 C 44.1875 145.53125 47.5 143.28125 51.96875 143.28125 C 53.90625 143.28125 56.1875 143 57.03125 142.6875 C 59.34375 141.8125 58.8125 139.5 56.09375 138.46875 C 52.5 137.09375 34.3125 137.28125 32.875 138.6875 C 32.1875 139.375 31.75 142.84375 31.75 147.71875 C 31.75 158.125 32.34375 158.59375 45.875 158.59375 C 51.34375 158.59375 56.625 158.125 57.625 157.59375 Z M 57.625 157.59375 " transform="matrix(0.125,0,0,0.125,0,0)"/>
<path style="fill-rule:evenodd;fill:rgb(0%,0%,0%);fill-opacity:1;stroke-width:0.820333;stroke-linecap:butt;stroke-linejoin:miter;stroke:rgb(0%,0%,0%);stroke-opacity:1;stroke-miterlimit:4;" d="M 55.125 139.09375 L 66.96875 139.09375 C 67.96875 139.09375 68.78125 139.90625 68.78125 140.90625 L 68.78125 141.125 C 68.78125 142.125 67.96875 142.9375 66.96875 142.9375 L 55.125 142.9375 C 54.125 142.9375 53.3125 142.125 53.3125 141.125 L 53.3125 140.90625 C 53.3125 139.90625 54.125 139.09375 55.125 139.09375 Z M 55.125 139.09375 " transform="matrix(0.125,0,0,0.125,0,0)"/>
</g>
</svg>
