
<svg xmlns="http://www.w3.org/2000/svg" xmlns:xlink="http://www.w3.org/1999/xlink" width="32px" height="32px" viewBox="0 0 32 32" version="1.1">
<g id="surface1">
<path style=" stroke:none;fill-rule:nonzero;fill:rgb(46.27451%,63.921569%,82.745098%);fill-opacity:1;" d="M 0.546875 12.363281 C 6.738281 -17.371094 49.339844 14.550781 23.746094 29.660156 C 13.808594 36.140625 -2.636719 27.65625 0.546875 12.363281 Z M 0.546875 12.363281 "/>
<path style=" stroke:none;fill-rule:nonzero;fill:rgb(100%,100%,100%);fill-opacity:0.968627;" d="M 12.582031 23.195312 C 11.234375 22.910156 10.902344 22.621094 10.902344 21.734375 C 10.902344 20.785156 11.230469 20.636719 12.449219 21.042969 C 12.898438 21.191406 13.988281 21.316406 14.878906 21.316406 C 16.449219 21.316406 16.507812 21.296875 17.214844 20.582031 C 17.875 19.910156 17.9375 19.746094 17.9375 18.601562 C 17.9375 17.402344 17.902344 17.324219 17.097656 16.632812 L 16.253906 15.910156 L 14.011719 16.023438 L 11.761719 16.136719 L 11.628906 15.253906 C 11.46875 14.214844 11.578125 9.660156 11.769531 9.476562 C 11.839844 9.40625 13.496094 9.292969 15.449219 9.222656 L 18.996094 9.097656 L 19.261719 9.667969 C 19.40625 9.980469 19.46875 10.410156 19.398438 10.625 C 19.285156 10.972656 19.035156 11.015625 17.136719 11.035156 C 13.992188 11.066406 13.960938 11.082031 13.886719 12.59375 L 13.824219 13.84375 L 15.484375 13.941406 C 17.5625 14.058594 18.8125 14.699219 19.628906 16.0625 C 20.09375 16.839844 20.175781 17.222656 20.175781 18.609375 C 20.175781 20.386719 19.941406 21.046875 18.957031 22.007812 C 17.964844 22.980469 17.25 23.226562 15.207031 23.292969 C 14.167969 23.324219 12.988281 23.28125 12.582031 23.195312 Z M 12.582031 23.195312 "/>
</g>
</svg>
