
<svg xmlns="http://www.w3.org/2000/svg" xmlns:xlink="http://www.w3.org/1999/xlink" width="32px" height="32px" viewBox="0 0 32 32" version="1.1">
<g id="surface1">
<path style=" stroke:none;fill-rule:nonzero;fill:rgb(18.431373%,30.980392%,30.980392%);fill-opacity:1;" d="M 30.972656 11.726562 C 36.894531 28.191406 15.609375 36.199219 7.609375 29.496094 C -0.386719 22.792969 -3.121094 11.304688 5.9375 5.523438 C 14.996094 -0.253906 25.050781 -4.738281 30.972656 11.730469 Z M 30.972656 11.726562 "/>
<path style=" stroke:none;fill-rule:evenodd;fill:rgb(100%,100%,100%);fill-opacity:1;" d="M 13.894531 25.554688 C 13.785156 25.558594 13.675781 25.574219 13.5625 25.613281 C 12.699219 25.917969 12.597656 27.339844 13.410156 27.738281 C 13.855469 27.949219 13.910156 27.949219 14.410156 27.6875 C 15.457031 27.144531 14.914062 25.53125 13.894531 25.554688 Z M 13.894531 25.554688 "/>
<path style=" stroke:none;fill-rule:evenodd;fill:rgb(100%,100%,100%);fill-opacity:1;" d="M 13.457031 27.734375 C 12.679688 27.289062 12.542969 26.34375 13.179688 25.839844 C 13.699219 25.433594 14.203125 25.449219 14.648438 25.898438 C 15.230469 26.484375 15.121094 27.324219 14.410156 27.695312 C 13.910156 27.953125 13.839844 27.957031 13.457031 27.734375 Z M 13.457031 27.734375 "/>
<path style=" stroke:none;fill-rule:evenodd;fill:rgb(100%,100%,100%);fill-opacity:1;" d="M 16.566406 27.730469 C 16.046875 27.429688 15.902344 27.203125 15.902344 26.6875 C 15.902344 25.628906 17.019531 25.152344 17.761719 25.898438 C 18.25 26.386719 18.226562 26.941406 17.691406 27.480469 C 17.222656 27.949219 17.019531 27.996094 16.566406 27.730469 Z M 16.566406 27.730469 "/>
<path style=" stroke:none;fill-rule:evenodd;fill:rgb(100%,100%,100%);fill-opacity:1;" d="M 16.496094 24.527344 C 16.121094 24.382812 15.910156 23.996094 15.90625 23.433594 C 15.898438 22.757812 16.320312 22.347656 17.019531 22.347656 C 17.714844 22.347656 18.042969 22.707031 18.042969 23.464844 C 18.042969 24.363281 17.328125 24.855469 16.496094 24.527344 Z M 16.496094 24.527344 "/>
<path style=" stroke:none;fill-rule:evenodd;fill:rgb(100%,100%,100%);fill-opacity:1;" d="M 16.566406 21.332031 C 16.039062 21.027344 15.902344 20.800781 15.902344 20.25 C 15.902344 19.308594 16.730469 18.816406 17.507812 19.289062 C 18.320312 19.785156 18.308594 20.722656 17.480469 21.226562 C 16.9375 21.558594 16.953125 21.558594 16.566406 21.332031 Z M 16.566406 21.332031 "/>
<path style=" stroke:none;fill-rule:evenodd;fill:rgb(100%,100%,100%);fill-opacity:1;" d="M 16.292969 17.933594 C 15.996094 17.699219 15.902344 17.496094 15.90625 17.078125 C 15.910156 16.363281 16.191406 16.015625 16.839844 15.910156 C 17.269531 15.839844 17.429688 15.894531 17.742188 16.207031 C 18.175781 16.644531 18.222656 17.027344 17.90625 17.636719 C 17.554688 18.316406 16.925781 18.433594 16.292969 17.933594 Z M 16.292969 17.933594 "/>
<path style=" stroke:none;fill-rule:evenodd;fill:rgb(100%,100%,100%);fill-opacity:1;" d="M 16.496094 14.855469 C 16.117188 14.707031 15.910156 14.320312 15.90625 13.75 C 15.898438 12.925781 16.683594 12.382812 17.449219 12.675781 C 17.742188 12.792969 18.125 13.496094 18.125 13.925781 C 18.125 14.605469 17.199219 15.132812 16.496094 14.855469 Z M 16.496094 14.855469 "/>
<path style=" stroke:none;fill-rule:evenodd;fill:rgb(100%,100%,100%);fill-opacity:1;" d="M 13.152344 14.601562 C 12.949219 14.402344 12.785156 14.0625 12.785156 13.851562 C 12.785156 13.417969 13.199219 12.699219 13.386719 12.8125 C 13.453125 12.855469 13.550781 12.820312 13.601562 12.738281 C 13.765625 12.472656 14.269531 12.574219 14.644531 12.949219 C 15.121094 13.425781 15.121094 14.058594 14.648438 14.574219 C 14.191406 15.070312 13.628906 15.082031 13.152344 14.601562 Z M 13.152344 14.601562 "/>
<path style=" stroke:none;fill-rule:evenodd;fill:rgb(100%,100%,100%);fill-opacity:1;" d="M 10.214844 11.53125 C 9.699219 11.125 9.660156 10.160156 10.144531 9.738281 C 10.679688 9.269531 11.503906 9.429688 11.832031 10.066406 C 12.140625 10.671875 12.101562 10.917969 11.613281 11.40625 C 11.101562 11.917969 10.746094 11.953125 10.214844 11.53125 Z M 10.214844 11.53125 "/>
<path style=" stroke:none;fill-rule:evenodd;fill:rgb(100%,100%,100%);fill-opacity:1;" d="M 13.152344 8.203125 C 12.9375 7.988281 12.785156 7.664062 12.785156 7.417969 C 12.785156 6.953125 13.179688 6.285156 13.378906 6.410156 C 13.449219 6.453125 13.550781 6.421875 13.601562 6.339844 C 13.765625 6.074219 14.269531 6.175781 14.644531 6.550781 C 15.121094 7.027344 15.121094 7.660156 14.648438 8.175781 C 14.191406 8.667969 13.628906 8.679688 13.152344 8.203125 Z M 13.152344 8.203125 "/>
<path style=" stroke:none;fill-rule:evenodd;fill:rgb(100%,100%,100%);fill-opacity:1;" d="M 16.203125 8.242188 C 15.796875 7.804688 15.796875 6.921875 16.203125 6.550781 C 16.589844 6.203125 17.449219 6.191406 17.789062 6.53125 C 18.183594 6.925781 18.128906 7.933594 17.695312 8.285156 C 17.230469 8.664062 16.574219 8.644531 16.203125 8.242188 Z M 16.203125 8.242188 "/>
<path style=" stroke:none;fill-rule:evenodd;fill:rgb(100%,100%,100%);fill-opacity:1;" d="M 19.34375 8.335938 C 19.082031 8.152344 19.011719 7.960938 19.011719 7.386719 C 19.011719 6.902344 19.089844 6.605469 19.257812 6.464844 C 19.394531 6.355469 19.511719 6.28125 19.519531 6.308594 C 19.527344 6.332031 19.652344 6.308594 19.800781 6.253906 C 20.195312 6.097656 20.746094 6.40625 21.015625 6.933594 C 21.214844 7.324219 21.222656 7.464844 21.066406 7.824219 C 20.753906 8.527344 19.949219 8.765625 19.34375 8.335938 Z M 19.34375 8.335938 "/>
<path style=" stroke:none;fill-rule:evenodd;fill:rgb(100%,100%,100%);fill-opacity:1;" d="M 22.644531 11.660156 C 21.964844 11.261719 21.808594 10.714844 22.167969 9.945312 C 22.351562 9.550781 23.140625 9.355469 23.589844 9.597656 C 24.355469 10.011719 24.371094 11.222656 23.609375 11.617188 C 23.097656 11.882812 23.035156 11.886719 22.644531 11.660156 Z M 22.644531 11.660156 "/>
<path style=" stroke:none;fill-rule:evenodd;fill:rgb(100%,100%,100%);fill-opacity:1;" d="M 20.199219 14.644531 C 20.199219 14.550781 20.152344 14.511719 20.101562 14.566406 C 19.886719 14.785156 19.605469 14.300781 19.609375 13.722656 C 19.609375 13.117188 19.777344 12.671875 20.007812 12.644531 C 20.074219 12.640625 20.246094 12.582031 20.394531 12.515625 C 20.777344 12.347656 21.332031 12.644531 21.605469 13.175781 C 21.816406 13.582031 21.816406 13.667969 21.609375 14.066406 C 21.484375 14.3125 21.253906 14.582031 21.097656 14.664062 C 20.714844 14.871094 20.199219 14.859375 20.199219 14.644531 Z M 20.199219 14.644531 "/>
</g>
</svg>
