
<svg xmlns="http://www.w3.org/2000/svg" xmlns:xlink="http://www.w3.org/1999/xlink" width="32px" height="32px" viewBox="0 0 32 32" version="1.1">
<g id="surface1">
<path style=" stroke:none;fill-rule:nonzero;fill:rgb(18.431373%,30.980392%,30.980392%);fill-opacity:1;" d="M 27.894531 5.0625 C 46.042969 32.753906 -3.523438 43.472656 0.425781 14.980469 C 2.035156 3.363281 20.953125 -5.535156 27.894531 5.0625 Z M 27.894531 5.0625 "/>
<path style=" stroke:none;fill-rule:evenodd;fill:rgb(100%,100%,100%);fill-opacity:1;" d="M 17.691406 25.753906 C 17.578125 25.730469 17.429688 25.660156 17.363281 25.605469 C 17.261719 25.507812 17.25 25.457031 17.28125 25.152344 C 17.328125 24.703125 17.257812 24.515625 17.046875 24.515625 C 16.957031 24.515625 16.839844 24.550781 16.777344 24.597656 C 16.71875 24.644531 16.652344 24.683594 16.628906 24.683594 C 16.558594 24.683594 16.582031 24.382812 16.699219 23.816406 C 16.898438 22.839844 16.910156 22.875 15.996094 21.3125 C 15.082031 19.757812 15.003906 19.65625 13.746094 18.503906 C 13.320312 18.109375 12.800781 17.5625 12.214844 16.902344 C 11.777344 16.402344 11.347656 16.050781 11.183594 16.054688 C 11.089844 16.058594 11 16.191406 10.746094 16.714844 C 10.566406 17.074219 10.167969 17.847656 9.863281 18.433594 C 9.550781 19.019531 9.222656 19.699219 9.125 19.945312 C 8.894531 20.542969 8.703125 20.910156 8.160156 21.820312 C 7.582031 22.792969 7.503906 22.953125 7.503906 23.195312 C 7.503906 23.4375 7.621094 23.5625 8.019531 23.761719 C 8.621094 24.066406 8.699219 24.261719 8.363281 24.628906 C 7.917969 25.121094 7.5625 25.15625 6.285156 24.824219 L 5.429688 24.601562 L 5.152344 23.757812 L 5.144531 23.132812 C 5.199219 22.714844 5.335938 22.445312 5.539062 21.902344 C 5.785156 21.570312 5.816406 21.644531 6.382812 20.648438 C 6.636719 20.199219 6.992188 19.597656 7.167969 19.300781 C 7.667969 18.488281 7.710938 18.324219 8.09375 15.804688 C 8.363281 14.035156 8.550781 13.445312 9.113281 12.636719 C 9.511719 12.0625 9.894531 11.652344 10.613281 11.019531 C 11.910156 9.878906 12.378906 9.660156 15.941406 8.515625 C 18.6875 7.632812 18.996094 7.605469 22.328125 7.898438 C 24.230469 8.066406 24.605469 8.261719 25.117188 9.359375 C 25.324219 9.796875 25.332031 10.003906 25.164062 10.53125 C 25.070312 10.832031 25.035156 11.105469 25.015625 11.730469 C 24.988281 12.65625 24.917969 12.847656 24.539062 13.09375 C 24.105469 13.375 23.59375 13.34375 22.933594 12.996094 C 22.488281 12.761719 22.394531 12.753906 22.195312 12.957031 C 22.007812 13.144531 21.941406 13.414062 21.824219 14.449219 C 21.671875 15.820312 21.738281 16.382812 22.144531 17.214844 C 22.429688 17.789062 23.769531 19.816406 24.261719 20.425781 C 25.480469 21.910156 25.644531 22.304688 25.707031 23.929688 C 25.734375 24.621094 25.726562 24.730469 25.644531 24.8125 C 25.441406 25.011719 24.957031 24.875 24.800781 24.574219 C 24.746094 24.476562 24.714844 24.261719 24.714844 24.042969 C 24.714844 23.113281 24.027344 22.035156 23.042969 21.433594 C 22.011719 20.800781 21.453125 20.402344 20.992188 19.980469 C 20.460938 19.492188 20.214844 19.332031 20.082031 19.382812 C 19.875 19.460938 19.054688 21.625 19.050781 22.089844 C 19.050781 22.332031 19.050781 22.332031 19.261719 22.328125 C 19.378906 22.328125 19.707031 22.238281 19.992188 22.132812 C 20.277344 22.027344 20.574219 21.9375 20.648438 21.9375 C 20.824219 21.9375 21.117188 22.191406 21.28125 22.488281 C 21.398438 22.691406 21.402344 22.71875 21.320312 22.800781 C 21.269531 22.847656 21.148438 22.890625 21.046875 22.890625 C 20.796875 22.890625 20.28125 23.160156 19.808594 23.535156 C 19.128906 24.082031 19.109375 24.117188 19.191406 24.9375 C 19.230469 25.347656 19.222656 25.398438 19.113281 25.535156 C 19.046875 25.621094 18.898438 25.714844 18.785156 25.746094 C 18.550781 25.808594 18.011719 25.8125 17.691406 25.753906 Z M 18.023438 20.050781 C 18.082031 19.902344 18.125 19.511719 18.160156 18.746094 C 18.214844 17.511719 18.28125 17.078125 18.605469 15.769531 C 18.726562 15.265625 18.820312 14.847656 18.816406 14.84375 C 18.789062 14.820312 17.078125 14.980469 16.613281 15.050781 C 16.097656 15.125 15.613281 15.316406 15.527344 15.480469 C 15.363281 15.785156 15.496094 16.238281 16.085938 17.367188 C 16.296875 17.769531 16.535156 18.300781 16.617188 18.542969 C 16.792969 19.078125 17.140625 19.683594 17.457031 20.015625 C 17.75 20.320312 17.90625 20.332031 18.023438 20.050781 Z M 18.023438 20.050781 "/>
</g>
</svg>
