
<svg xmlns="http://www.w3.org/2000/svg" xmlns:xlink="http://www.w3.org/1999/xlink" width="32px" height="32px" viewBox="0 0 32 32" version="1.1">
<g id="surface1">
<path style=" stroke:none;fill-rule:nonzero;fill:rgb(100%,64.705882%,0%);fill-opacity:1;" d="M 26.449219 5.699219 C 42.550781 18.691406 18.980469 42.152344 4.734375 27.167969 C -9.542969 14.269531 12.738281 -10.761719 26.449219 5.699219 Z M 26.449219 5.699219 "/>
<path style="fill-rule:nonzero;fill:rgb(50.196078%,0%,0%);fill-opacity:1;stroke-width:3;stroke-linecap:butt;stroke-linejoin:miter;stroke:rgb(0%,0%,0%);stroke-opacity:1;stroke-miterlimit:4;" d="M 364.266623 737.471182 L 547.112367 737.471182 L 547.112367 797.47254 L 364.266623 797.47254 Z M 364.266623 737.471182 " transform="matrix(0.04371,0,0,0.0467437,2.839625,-18.28075)"/>
<path style=" stroke:none;fill-rule:evenodd;fill:rgb(100%,50.196078%,0%);fill-opacity:1;" d="M 24.011719 17.886719 C 24.011719 15.855469 23.238281 11.160156 20.988281 11.371094 C 19.707031 11.492188 19.175781 12.597656 17.941406 12.597656 C 16.703125 12.597656 14.628906 10.800781 12.949219 10.757812 C 9.109375 10.664062 6.722656 13.167969 7.097656 17.886719 C 6.769531 22.605469 9.152344 25.109375 12.996094 25.015625 C 14.671875 24.972656 16.746094 23.175781 17.984375 23.175781 C 19.222656 23.175781 19.753906 24.28125 21.03125 24.402344 C 23.285156 24.613281 24.011719 19.917969 24.011719 17.886719 Z M 24.011719 17.886719 "/>
<path style=" stroke:none;fill-rule:nonzero;fill:rgb(75.294118%,34.509804%,0%);fill-opacity:1;" d="M 19.824219 17.621094 C 19.824219 18.914062 18.847656 19.957031 17.636719 19.957031 C 16.433594 19.957031 15.453125 18.914062 15.453125 17.621094 C 15.453125 16.332031 16.433594 15.285156 17.636719 15.285156 C 18.847656 15.285156 19.824219 16.332031 19.824219 17.621094 Z M 19.824219 17.621094 "/>
<path style=" stroke:none;fill-rule:nonzero;fill:rgb(0%,0%,0%);fill-opacity:1;" d="M 19.511719 17.621094 C 19.511719 18.730469 18.675781 19.625 17.636719 19.625 C 16.605469 19.625 15.765625 18.730469 15.765625 17.621094 C 15.765625 16.515625 16.605469 15.621094 17.636719 15.621094 C 18.675781 15.621094 19.511719 16.515625 19.511719 17.621094 Z M 19.511719 17.621094 "/>
<path style=" stroke:none;fill-rule:nonzero;fill:rgb(50.196078%,0%,0%);fill-opacity:1;" d="M 11.28125 15.886719 L 11.84375 15.886719 L 11.84375 19.359375 L 11.28125 19.359375 Z M 11.28125 15.886719 "/>
<path style=" stroke:none;fill-rule:nonzero;fill:rgb(25.098039%,0%,0%);fill-opacity:1;" d="M 11.769531 15.285156 L 13.019531 15.285156 L 13.019531 20.027344 L 11.769531 20.027344 Z M 11.769531 15.285156 "/>
<path style=" stroke:none;fill-rule:evenodd;fill:rgb(75.294118%,34.509804%,0%);fill-opacity:1;" d="M 12.769531 10.753906 C 9.035156 10.742188 6.730469 13.238281 7.097656 17.886719 C 6.769531 22.605469 9.152344 25.109375 12.996094 25.015625 C 14.675781 24.972656 16.746094 23.171875 17.984375 23.171875 C 19.222656 23.171875 19.753906 24.28125 21.03125 24.402344 C 23.285156 24.613281 24.011719 19.917969 24.011719 17.886719 C 24.011719 15.855469 23.242188 11.160156 20.988281 11.371094 C 19.707031 11.492188 19.175781 12.597656 17.941406 12.597656 C 16.707031 12.597656 14.628906 10.800781 12.949219 10.757812 C 12.890625 10.757812 12.832031 10.753906 12.769531 10.753906 Z M 13.140625 11.433594 C 13.195312 11.433594 13.25 11.433594 13.304688 11.4375 C 14.855469 11.472656 16.769531 13.105469 17.910156 13.105469 C 19.050781 13.105469 19.542969 12.101562 20.726562 11.992188 C 22.808594 11.800781 23.519531 16.050781 23.519531 17.886719 C 23.519531 19.722656 22.847656 23.976562 20.765625 23.785156 C 19.585938 23.675781 19.09375 22.671875 17.953125 22.671875 C 16.8125 22.671875 14.894531 24.300781 13.347656 24.339844 C 9.800781 24.425781 7.597656 22.160156 7.902344 17.886719 C 7.5625 13.683594 9.691406 11.421875 13.140625 11.433594 Z M 13.140625 11.433594 "/>
<path style="fill:none;stroke-width:3;stroke-linecap:butt;stroke-linejoin:miter;stroke:rgb(0%,0%,0%);stroke-opacity:1;stroke-miterlimit:4;" d="M 484.376438 773.739412 C 484.376438 730.284389 466.681688 629.836433 415.206053 634.34907 C 385.893539 636.939658 373.73957 660.589218 345.499464 660.589218 C 317.169992 660.589218 269.715891 622.148236 231.287899 621.228995 C 143.439724 619.223379 88.836229 672.790051 97.415502 773.739412 C 89.908638 874.688773 144.422766 928.255445 232.360308 926.249829 C 270.698932 925.330588 318.153033 886.889606 346.482506 886.889606 C 374.811979 886.889606 386.965948 910.539167 416.189095 913.129755 C 467.754097 917.642392 484.376438 817.194435 484.376438 773.739412 Z M 484.376438 773.739412 " transform="matrix(0.04371,0,0,0.0467437,2.839625,-18.28075)"/>
<path style="fill:none;stroke-width:5;stroke-linecap:butt;stroke-linejoin:miter;stroke:rgb(100%,86.27451%,65.882353%);stroke-opacity:1;stroke-miterlimit:4;" d="M 217.167847 748.919909 L 547.112367 748.919909 " transform="matrix(0.04371,0,0,0.0467437,2.839625,-18.28075)"/>
<path style="fill:none;stroke-width:5;stroke-linecap:butt;stroke-linejoin:miter;stroke:rgb(100%,86.27451%,65.882353%);stroke-opacity:1;stroke-miterlimit:4;" d="M 217.167847 766.886889 L 547.112367 766.886889 " transform="matrix(0.04371,0,0,0.0467437,2.839625,-18.28075)"/>
<path style="fill:none;stroke-width:5;stroke-linecap:butt;stroke-linejoin:miter;stroke:rgb(100%,86.27451%,65.882353%);stroke-opacity:1;stroke-miterlimit:4;" d="M 217.167847 784.937437 L 547.112367 784.937437 " transform="matrix(0.04371,0,0,0.0467437,2.839625,-18.28075)"/>
<path style=" stroke:none;fill-rule:nonzero;fill:rgb(0%,0%,0%);fill-opacity:1;" d="M 6.898438 8.675781 L 17.199219 8.675781 L 17.199219 15.683594 L 6.898438 15.683594 Z M 6.898438 8.675781 "/>
<path style=" stroke:none;fill-rule:nonzero;fill:rgb(0%,75.294118%,75.294118%);fill-opacity:1;" d="M 6.898438 11.878906 L 17.199219 11.878906 L 17.199219 12.480469 L 6.898438 12.480469 Z M 6.898438 11.878906 "/>
<path style="fill:none;stroke-width:7.8;stroke-linecap:butt;stroke-linejoin:round;stroke:rgb(0%,100%,0%);stroke-opacity:1;stroke-miterlimit:4;" d="M 120.025459 649.558328 C 120.025459 649.558328 125.476872 597.245165 137.094637 596.660194 C 148.623034 596.075223 147.72936 708.724013 165.692212 709.559686 C 182.225185 710.228225 193.84295 599.585051 208.588574 599.501484 C 224.764078 599.501484 233.790187 703.960674 250.055058 705.214184 C 266.141194 706.467694 277.848326 604.097688 288.572417 603.763419 C 299.385875 603.512717 301.441325 650.895405 301.441325 650.895405 " transform="matrix(0.04371,0,0,0.0467437,2.839625,-18.28075)"/>
<path style="fill-rule:nonzero;fill:rgb(100%,100%,100%);fill-opacity:1;stroke-width:6;stroke-linecap:butt;stroke-linejoin:round;stroke:rgb(0%,0%,0%);stroke-opacity:1;stroke-miterlimit:4;" d="M 428.074962 586.38141 C 393.579137 586.38141 358.993945 595.908088 328.519654 614.877877 L 380.442126 698.027392 C 409.844008 679.642574 446.305916 679.642574 475.707798 698.027392 L 527.63027 614.877877 C 497.155979 595.908088 462.570787 586.38141 428.074962 586.38141 Z M 428.074962 586.38141 " transform="matrix(0.04371,0,0,0.0467437,2.839625,-18.28075)"/>
<path style="fill:none;stroke-width:14.427;stroke-linecap:butt;stroke-linejoin:round;stroke:rgb(0%,100%,0%);stroke-opacity:1;stroke-miterlimit:4;" d="M 668.906092 566.316931 C 691.233954 553.468544 718.758118 553.468544 741.08598 566.316931 " transform="matrix(0.0481111,0,0,0.045908,-12.439643,-15.139103)"/>
<path style="fill:none;stroke-width:14.427;stroke-linecap:butt;stroke-linejoin:round;stroke:rgb(100%,0%,4.313725%);stroke-opacity:1;stroke-miterlimit:4;" d="M 653.966722 577.803899 C 658.432295 573.294201 663.466213 569.465211 668.906092 566.316931 " transform="matrix(0.0481111,0,0,0.045908,-12.439643,-15.139103)"/>
<path style="fill:none;stroke-width:14.427;stroke-linecap:butt;stroke-linejoin:round;stroke:rgb(100%,0%,1.176471%);stroke-opacity:1;stroke-miterlimit:4;" d="M 741.08598 566.316931 C 746.52586 569.465211 751.559778 573.294201 756.02535 577.803899 " transform="matrix(0.0481111,0,0,0.045908,-12.439643,-15.139103)"/>
<path style="fill:none;stroke-width:7;stroke-linecap:butt;stroke-linejoin:miter;stroke:rgb(34.509804%,34.509804%,34.509804%);stroke-opacity:1;stroke-miterlimit:4;" d="M 427.181288 670.95157 L 454.259616 619.474081 " transform="matrix(0.04371,0,0,0.0467437,2.839625,-18.28075)"/>
</g>
</svg>
