
<svg xmlns="http://www.w3.org/2000/svg" xmlns:xlink="http://www.w3.org/1999/xlink" width="32px" height="32px" viewBox="0 0 32 32" version="1.1">
<defs>
<linearGradient id="linear0" gradientUnits="userSpaceOnUse" x1="9.367" y1="0" x2="38.638" y2="0" gradientTransform="matrix(0.543157,0,0,0.48096,2.839335,-479.180469)">
<stop offset="0" style="stop-color:rgb(75.686275%,78.431373%,83.529412%);stop-opacity:1;"/>
<stop offset="1" style="stop-color:rgb(95.686275%,96.078431%,96.862745%);stop-opacity:1;"/>
</linearGradient>
<linearGradient id="linear1" gradientUnits="userSpaceOnUse" x1="0" y1="1022.1" x2="0" y2="1028.42" gradientTransform="matrix(0.41037,0,0,0.363411,6.0275,-356.66)">
<stop offset="0" style="stop-color:rgb(37.647059%,72.156863%,100%);stop-opacity:1;"/>
<stop offset="1" style="stop-color:rgb(41.176471%,91.372549%,100%);stop-opacity:1;"/>
</linearGradient>
</defs>
<g id="surface1">
<path style=" stroke:none;fill-rule:nonzero;fill:rgb(67.843137%,84.705882%,90.196078%);fill-opacity:1;" d="M 0.46875 19.324219 C 2.945312 35.808594 27.621094 36.304688 31.347656 20.28125 C 35.183594 7.308594 21.289062 -3.296875 10.894531 0.953125 C 3.933594 2.960938 -1.691406 11.179688 0.46875 19.324219 Z M 0.46875 19.324219 "/>
<path style=" stroke:none;fill-rule:nonzero;fill:url(#linear0);" d="M 8.359375 9.828125 C 7.996094 9.828125 7.714844 10.078125 7.714844 10.402344 L 7.714844 20.847656 C 7.714844 21.167969 8.011719 21.507812 8.359375 21.417969 L 11.871094 21.417969 L 11.871094 24.285156 L 15.722656 21.417969 L 23.394531 21.417969 C 23.753906 21.417969 24.035156 21.167969 24.035156 20.847656 L 24.035156 10.402344 C 24.035156 10.078125 23.753906 9.828125 23.394531 9.828125 Z M 8.359375 9.828125 "/>
<path style=" stroke:none;fill-rule:nonzero;fill:url(#linear1);" d="M 10.855469 14.800781 C 10.152344 14.800781 9.589844 15.316406 9.589844 15.9375 C 9.589844 16.558594 10.152344 17.058594 10.855469 17.058594 C 11.558594 17.058594 12.121094 16.558594 12.121094 15.9375 C 12.121094 15.316406 11.558594 14.800781 10.855469 14.800781 Z M 15.878906 14.800781 C 15.175781 14.800781 14.589844 15.316406 14.589844 15.9375 C 14.589844 16.558594 15.175781 17.058594 15.878906 17.058594 C 16.578125 17.058594 17.144531 16.558594 17.144531 15.9375 C 17.144531 15.316406 16.578125 14.800781 15.878906 14.800781 Z M 20.894531 14.800781 C 20.195312 14.800781 19.613281 15.316406 19.613281 15.9375 C 19.613281 16.558594 20.195312 17.058594 20.894531 17.058594 C 21.597656 17.058594 22.164062 16.558594 22.164062 15.9375 C 22.164062 15.316406 21.597656 14.800781 20.894531 14.800781 Z M 20.894531 14.800781 "/>
<path style=" stroke:none;fill-rule:nonzero;fill:rgb(7.843137%,18.823529%,27.843137%);fill-opacity:0.313725;" d="M 7.714844 20.488281 L 7.714844 20.847656 C 7.714844 21.171875 8.011719 21.511719 8.359375 21.421875 L 11.871094 21.421875 L 11.871094 21.058594 L 8.359375 21.058594 C 8.011719 21.148438 7.714844 20.808594 7.714844 20.488281 Z M 24.039062 20.488281 C 24.039062 20.808594 23.753906 21.058594 23.394531 21.058594 L 15.722656 21.058594 L 11.871094 23.925781 L 11.871094 24.285156 L 15.722656 21.421875 L 23.394531 21.421875 C 23.753906 21.421875 24.039062 21.171875 24.039062 20.847656 Z M 24.039062 20.488281 "/>
</g>
</svg>
