
<svg xmlns="http://www.w3.org/2000/svg" xmlns:xlink="http://www.w3.org/1999/xlink" width="32px" height="32px" viewBox="0 0 32 32" version="1.1">
<g id="surface1">
<path style=" stroke:none;fill-rule:nonzero;fill:rgb(43.921569%,50.196078%,56.470588%);fill-opacity:1;" d="M 29.246094 6.703125 C 23.179688 -4.316406 4.167969 -0.0390625 0.953125 9.03125 C -2.878906 19.839844 7.09375 40.359375 23.988281 28.339844 C 29.679688 24.140625 35.316406 17.71875 29.246094 6.703125 Z M 29.246094 6.703125 "/>
<path style=" stroke:none;fill-rule:evenodd;fill:rgb(100%,100%,100%);fill-opacity:1;" d="M 16.449219 13.863281 C 16.449219 14.023438 16.332031 14.179688 16.101562 14.339844 C 15.867188 14.5 15.574219 14.621094 15.226562 14.703125 C 14.875 14.785156 14.429688 14.855469 13.894531 14.914062 C 13.382812 14.976562 12.9375 15.003906 12.566406 15.003906 C 12.167969 15.003906 11.726562 14.976562 11.234375 14.921875 C 10.746094 14.867188 10.324219 14.800781 9.972656 14.71875 C 9.789062 14.679688 9.613281 14.628906 9.449219 14.5625 C 9.308594 14.492188 9.179688 14.417969 9.0625 14.339844 C 8.949219 14.257812 8.855469 14.175781 8.785156 14.09375 C 8.714844 14.011719 8.679688 13.933594 8.679688 13.863281 L 8.679688 10.207031 C 8.679688 10.046875 8.796875 9.890625 9.03125 9.730469 C 9.261719 9.570312 9.566406 9.453125 9.941406 9.371094 C 10.3125 9.28125 10.746094 9.210938 11.234375 9.15625 C 11.726562 9.101562 12.167969 9.074219 12.566406 9.074219 C 12.9375 9.074219 13.382812 9.101562 13.894531 9.15625 C 14.410156 9.210938 14.828125 9.277344 15.15625 9.359375 C 15.316406 9.398438 15.480469 9.453125 15.644531 9.515625 C 15.808594 9.582031 15.949219 9.65625 16.066406 9.738281 C 16.183594 9.816406 16.273438 9.894531 16.34375 9.976562 C 16.414062 10.058594 16.449219 10.136719 16.449219 10.207031 L 16.449219 13.863281 M 14.523438 10.855469 C 14.523438 10.707031 14.453125 10.5625 14.316406 10.421875 C 14.175781 10.277344 14 10.183594 13.789062 10.140625 C 13.601562 10.097656 13.394531 10.0625 13.160156 10.035156 C 12.925781 10 12.726562 9.984375 12.566406 9.984375 C 12.214844 9.984375 11.792969 10.039062 11.304688 10.140625 C 11.140625 10.183594 10.988281 10.277344 10.847656 10.421875 C 10.710938 10.5625 10.640625 10.707031 10.640625 10.855469 L 10.640625 13.222656 C 10.640625 13.386719 10.699219 13.535156 10.816406 13.667969 C 10.953125 13.792969 11.117188 13.878906 11.304688 13.929688 C 11.769531 14.039062 12.191406 14.09375 12.566406 14.09375 C 12.9375 14.09375 13.359375 14.039062 13.824219 13.929688 C 14.011719 13.886719 14.175781 13.796875 14.316406 13.65625 C 14.453125 13.515625 14.523438 13.371094 14.523438 13.222656 L 14.523438 10.855469 "/>
<path style=" stroke:none;fill-rule:evenodd;fill:rgb(100%,100%,100%);fill-opacity:1;" d="M 22.328125 12.742188 C 22.328125 12.890625 22.214844 13.015625 21.988281 13.125 C 21.308594 13.429688 19.746094 13.476562 19.546875 12.742188 L 19.546875 9.257812 C 19.101562 9.1875 18.613281 9.105469 18.226562 8.902344 C 18.027344 8.820312 18.125 8.089844 18.125 7.960938 C 18.125 7.839844 18.328125 7.734375 18.730469 7.652344 C 19.136719 7.566406 19.628906 7.523438 20.207031 7.523438 C 20.8125 7.523438 21.320312 7.574219 21.722656 7.675781 C 22.125 7.777344 22.328125 7.902344 22.328125 8.050781 L 22.328125 12.742188 "/>
<path style=" stroke:none;fill-rule:evenodd;fill:rgb(100%,100%,100%);fill-opacity:1;" d="M 12.726562 22.210938 C 12.726562 22.351562 12.609375 22.472656 12.375 22.574219 C 11.679688 22.863281 10.078125 22.910156 9.871094 22.210938 L 9.871094 18.898438 C 9.414062 18.832031 8.914062 18.753906 8.519531 18.5625 C 8.3125 18.480469 8.414062 17.789062 8.414062 17.667969 C 8.414062 17.550781 8.621094 17.453125 9.035156 17.371094 C 9.449219 17.289062 9.957031 17.25 10.550781 17.25 C 11.171875 17.25 11.691406 17.296875 12.105469 17.394531 C 12.519531 17.488281 12.726562 17.609375 12.726562 17.75 L 12.726562 22.210938 "/>
<path style=" stroke:none;fill-rule:evenodd;fill:rgb(100%,100%,100%);fill-opacity:1;" d="M 22.914062 20.578125 C 22.914062 20.738281 22.804688 20.902344 22.582031 21.0625 C 22.359375 21.222656 22.082031 21.34375 21.75 21.425781 C 21.414062 21.507812 20.992188 21.582031 20.480469 21.640625 C 19.992188 21.703125 19.570312 21.734375 19.214844 21.734375 C 18.835938 21.734375 18.414062 21.707031 17.949219 21.652344 C 17.480469 21.59375 17.082031 21.527344 16.75 21.441406 C 16.570312 21.40625 16.40625 21.351562 16.25 21.285156 C 16.117188 21.214844 15.992188 21.136719 15.882812 21.0625 C 15.769531 20.976562 15.683594 20.894531 15.617188 20.8125 C 15.546875 20.730469 15.515625 20.652344 15.515625 20.578125 L 15.515625 16.882812 C 15.515625 16.722656 15.625 16.5625 15.847656 16.402344 C 16.070312 16.242188 16.359375 16.121094 16.714844 16.035156 C 17.070312 15.949219 17.480469 15.875 17.949219 15.820312 C 18.414062 15.765625 18.835938 15.738281 19.214844 15.738281 C 19.570312 15.738281 19.992188 15.765625 20.480469 15.820312 C 20.972656 15.875 21.371094 15.945312 21.683594 16.027344 C 21.839844 16.066406 21.992188 16.121094 22.148438 16.1875 C 22.304688 16.253906 22.4375 16.328125 22.550781 16.410156 C 22.660156 16.488281 22.75 16.570312 22.816406 16.652344 C 22.882812 16.734375 22.914062 16.8125 22.914062 16.882812 L 22.914062 20.578125 M 21.082031 17.539062 C 21.082031 17.390625 21.015625 17.242188 20.882812 17.101562 C 20.75 16.957031 20.582031 16.863281 20.382812 16.816406 C 20.203125 16.773438 20.003906 16.738281 19.78125 16.710938 C 19.558594 16.675781 19.371094 16.660156 19.214844 16.660156 C 18.882812 16.660156 18.480469 16.710938 18.015625 16.816406 C 17.859375 16.863281 17.714844 16.957031 17.582031 17.101562 C 17.449219 17.242188 17.382812 17.390625 17.382812 17.539062 L 17.382812 19.933594 C 17.382812 20.097656 17.4375 20.246094 17.550781 20.378906 C 17.683594 20.507812 17.835938 20.597656 18.015625 20.644531 C 18.460938 20.757812 18.859375 20.8125 19.214844 20.8125 C 19.570312 20.8125 19.972656 20.757812 20.414062 20.644531 C 20.59375 20.601562 20.75 20.511719 20.882812 20.371094 C 21.015625 20.226562 21.082031 20.082031 21.082031 19.933594 L 21.082031 17.539062 "/>
</g>
</svg>
