
<svg xmlns="http://www.w3.org/2000/svg" xmlns:xlink="http://www.w3.org/1999/xlink" width="32px" height="32px" viewBox="0 0 32 32" version="1.1">
<defs>
<radialGradient id="radial0" gradientUnits="userSpaceOnUse" cx="15.816" cy="32.19" fx="15.816" fy="32.19" r="4.816" gradientTransform="matrix(0.596203,0,0,0.609797,1.258852,1.333839)">
<stop offset="0" style="stop-color:rgb(29.803922%,68.235294%,76.862745%);stop-opacity:1;"/>
<stop offset="1" style="stop-color:rgb(25.098039%,66.27451%,75.294118%);stop-opacity:1;"/>
</radialGradient>
<radialGradient id="radial1" gradientUnits="userSpaceOnUse" cx="21.854" cy="26.15" fx="21.854" fy="26.15" r="6.854" gradientTransform="matrix(0.596203,0,0,0.609871,1.258852,1.330423)">
<stop offset="0" style="stop-color:rgb(29.803922%,68.235294%,76.862745%);stop-opacity:1;"/>
<stop offset="1" style="stop-color:rgb(25.098039%,66.27451%,75.294118%);stop-opacity:1;"/>
</radialGradient>
<radialGradient id="radial2" gradientUnits="userSpaceOnUse" cx="29" cy="19" fx="29" fy="19" r="8" gradientTransform="matrix(0.596203,0,0,0.610045,1.258852,1.325878)">
<stop offset="0" style="stop-color:rgb(29.803922%,68.235294%,76.862745%);stop-opacity:1;"/>
<stop offset="1" style="stop-color:rgb(25.098039%,66.27451%,75.294118%);stop-opacity:1;"/>
</radialGradient>
</defs>
<g id="surface1">
<path style=" stroke:none;fill-rule:nonzero;fill:rgb(67.843137%,84.705882%,90.196078%);fill-opacity:1;" d="M 28.703125 24.480469 C 40.210938 8.113281 18.960938 -8.46875 5.40625 4.867188 C -7.367188 17.429688 4.472656 36.949219 20.367188 30.847656 C 23.683594 29.574219 26.589844 27.484375 28.703125 24.480469 Z M 28.703125 24.480469 "/>
<path style=" stroke:none;fill-rule:nonzero;fill:rgb(0%,0%,0%);fill-opacity:0.101961;" d="M 19.144531 8.644531 C 16.511719 8.644531 14.375 10.832031 14.375 13.527344 C 14.375 16.222656 16.511719 18.40625 19.144531 18.40625 C 21.777344 18.40625 23.914062 16.222656 23.914062 13.527344 C 23.914062 10.832031 21.777344 8.644531 19.144531 8.644531 Z M 13.785156 13.707031 C 12.015625 14.242188 10.800781 15.90625 10.796875 17.796875 C 10.796875 20.15625 12.667969 22.066406 14.972656 22.066406 C 16.816406 22.066406 18.445312 20.824219 18.972656 19.011719 C 16.148438 18.917969 13.882812 16.597656 13.785156 13.707031 Z M 10.273438 18.636719 C 9.152344 19.101562 8.414062 20.21875 8.414062 21.457031 C 8.414062 23.144531 9.746094 24.507812 11.394531 24.507812 C 12.609375 24.507812 13.699219 23.753906 14.15625 22.597656 C 12.175781 22.246094 10.621094 20.660156 10.273438 18.632812 Z M 10.273438 18.636719 "/>
<path style=" stroke:none;fill-rule:nonzero;fill:url(#radial0);" d="M 9.675781 18.023438 C 8.554688 18.488281 7.816406 19.605469 7.816406 20.847656 C 7.816406 22.53125 9.152344 23.898438 10.796875 23.898438 C 12.011719 23.894531 13.105469 23.144531 13.558594 21.988281 C 11.578125 21.636719 10.023438 20.050781 9.675781 18.023438 Z M 9.675781 18.023438 "/>
<path style=" stroke:none;fill-rule:nonzero;fill:url(#radial1);" d="M 13.191406 13.097656 C 11.417969 13.632812 10.203125 15.296875 10.203125 17.1875 C 10.203125 19.542969 12.070312 21.457031 14.375 21.457031 C 16.222656 21.457031 17.851562 20.210938 18.375 18.398438 C 15.550781 18.304688 13.285156 15.984375 13.191406 13.097656 Z M 13.191406 13.097656 "/>
<path style=" stroke:none;fill-rule:nonzero;fill:url(#radial2);" d="M 23.316406 12.917969 C 23.316406 15.613281 21.183594 17.796875 18.550781 17.796875 C 15.914062 17.796875 13.777344 15.613281 13.777344 12.917969 C 13.777344 10.222656 15.914062 8.035156 18.550781 8.035156 C 21.183594 8.035156 23.316406 10.222656 23.316406 12.917969 Z M 23.316406 12.917969 "/>
</g>
</svg>
