
<svg xmlns="http://www.w3.org/2000/svg" xmlns:xlink="http://www.w3.org/1999/xlink" width="32px" height="32px" viewBox="0 0 32 32" version="1.1">
<g id="surface1">
<path style=" stroke:none;fill-rule:nonzero;fill:rgb(100%,54.901961%,0%);fill-opacity:1;" d="M 3.394531 25.269531 C -12.382812 1.648438 37.925781 -12.902344 31.265625 17.632812 C 28.425781 30.253906 10.628906 37.910156 3.394531 25.269531 Z M 3.394531 25.269531 "/>
<path style="fill:none;stroke-width:4.153;stroke-linecap:round;stroke-linejoin:round;stroke:rgb(100%,100%,100%);stroke-opacity:1;stroke-miterlimit:4;" d="M 37.278262 29.99948 L 24.048941 29.99948 " transform="matrix(0.791329,0,0,0.852691,-7.307976,-9.720922)"/>
<path style="fill-rule:nonzero;fill:rgb(100%,54.901961%,0%);fill-opacity:1;stroke-width:8.963;stroke-linecap:round;stroke-linejoin:round;stroke:rgb(100%,100%,100%);stroke-opacity:1;stroke-miterlimit:4;" d="M 46.170545 35.792374 L 46.170545 24.205626 L 51.955072 29.999 Z M 46.170545 35.792374 " transform="matrix(0.366684,0,0,0.395117,5.41375,4.00625)"/>
<path style="fill:none;stroke-width:4.768;stroke-linecap:round;stroke-linejoin:round;stroke:rgb(100%,54.901961%,0%);stroke-opacity:1;stroke-miterlimit:4;" d="M 46.905595 29.672752 L 28.870226 29.672752 " transform="matrix(0.366684,0,0,0.395117,5.41375,4.00625)"/>
<path style="fill-rule:nonzero;fill:rgb(100%,54.901961%,0%);fill-opacity:1;stroke-width:0.936;stroke-linecap:round;stroke-linejoin:round;stroke:rgb(100%,100%,100%);stroke-opacity:1;stroke-miterlimit:4;" d="M 26.426534 29.5077 L 26.425332 22.821475 C 26.426399 22.484893 26.516792 22.226777 26.697105 22.049194 C 26.876231 21.867481 27.108196 21.776624 27.397452 21.776624 C 27.691158 21.776624 27.925858 21.865416 28.100957 22.040934 C 28.281101 22.218518 28.371531 22.478698 28.372246 22.821475 L 28.371176 25.222982 L 31.043883 22.270141 C 31.219887 22.069843 31.373814 21.939753 31.5067 21.87574 C 31.638992 21.809663 31.78969 21.776624 31.958794 21.776624 C 32.187973 21.776624 32.407249 21.873675 32.613208 22.063648 C 32.825247 22.251556 32.928865 22.472503 32.930736 22.726489 C 32.93023 22.972215 32.800381 23.232395 32.542818 23.504965 L 30.227981 25.861044 L 32.760775 28.632172 C 32.952498 28.834534 33.087395 29.001793 33.170512 29.136013 C 33.256296 29.264039 33.298476 29.410648 33.298682 29.573777 C 33.29983 29.879386 33.201271 30.116852 33.005825 30.288241 C 32.810973 30.461695 32.568325 30.546357 32.279069 30.546357 C 32.158917 30.546357 32.043355 30.523642 31.934608 30.478214 C 31.826898 30.428656 31.721705 30.364643 31.616652 30.277916 C 31.51323 30.189125 31.415294 30.096203 31.33071 30.003282 C 31.244342 29.904165 31.160352 29.813309 31.078586 29.722452 L 28.370648 26.65191 L 28.370629 29.505635 C 28.370751 29.846347 28.280952 30.106528 28.100638 30.284111 C 27.924775 30.461695 27.691621 30.548422 27.397915 30.548422 C 27.113109 30.548422 26.87841 30.45963 26.695447 30.279981 C 26.515152 30.094138 26.423685 29.838088 26.42594 29.505635 " transform="matrix(1.755583,0,-0.505085,1.891716,-23.759609,-33.636594)"/>
<path style=" stroke:none;fill-rule:nonzero;fill:rgb(100%,54.901961%,0%);fill-opacity:1;" d="M 7.730469 22.183594 L 11.105469 9.535156 C 11.277344 8.898438 11.566406 8.410156 11.972656 8.074219 C 12.378906 7.730469 12.832031 7.558594 13.339844 7.558594 C 13.855469 7.558594 14.222656 7.726562 14.441406 8.058594 C 14.667969 8.394531 14.695312 8.886719 14.523438 9.535156 L 13.308594 14.078125 L 19.492188 8.492188 C 19.902344 8.113281 20.238281 7.867188 20.503906 7.746094 C 20.769531 7.621094 21.050781 7.558594 21.347656 7.558594 C 21.75 7.558594 22.085938 7.742188 22.351562 8.101562 C 22.628906 8.457031 22.699219 8.875 22.574219 9.355469 C 22.449219 9.820312 22.089844 10.3125 21.5 10.828125 L 16.246094 15.285156 L 19.292969 20.527344 C 19.527344 20.910156 19.679688 21.226562 19.757812 21.480469 C 19.84375 21.722656 19.84375 22 19.761719 22.308594 C 19.609375 22.886719 19.316406 23.335938 18.886719 23.660156 C 18.457031 23.988281 17.988281 24.148438 17.480469 24.148438 C 17.269531 24.148438 17.078125 24.105469 16.910156 24.019531 C 16.746094 23.925781 16.59375 23.804688 16.453125 23.640625 C 16.316406 23.472656 16.191406 23.296875 16.089844 23.121094 C 15.988281 22.933594 15.886719 22.761719 15.789062 22.589844 L 12.585938 16.78125 L 11.144531 22.179688 C 10.972656 22.824219 10.683594 23.316406 10.277344 23.652344 C 9.878906 23.988281 9.425781 24.152344 8.910156 24.152344 C 8.410156 24.152344 8.042969 23.984375 7.8125 23.644531 C 7.589844 23.292969 7.558594 22.808594 7.730469 22.179688 "/>
<path style="fill-rule:evenodd;fill:rgb(100%,54.901961%,0%);fill-opacity:1;stroke-width:2.077;stroke-linecap:round;stroke-linejoin:round;stroke:rgb(100%,54.901961%,0%);stroke-opacity:1;stroke-miterlimit:4;" d="M 80.798998 27.189788 L 80.798998 21.820758 L 83.484353 24.505273 Z M 80.798998 27.189788 " transform="matrix(0.791329,0,0,0.852691,-41.598773,-5.039965)"/>
</g>
</svg>
