
<svg xmlns="http://www.w3.org/2000/svg" xmlns:xlink="http://www.w3.org/1999/xlink" width="32px" height="32px" viewBox="0 0 32 32" version="1.1">
<g id="surface1">
<path style=" stroke:none;fill-rule:nonzero;fill:rgb(60.392157%,80%,19.607843%);fill-opacity:1;" d="M 17.007812 31.914062 C 16.902344 31.898438 16.550781 31.855469 16.21875 31.820312 C 13.933594 31.558594 11.234375 30.667969 8.941406 29.421875 C 4.6875 27.101562 1.496094 23.449219 0.460938 19.703125 C 0.136719 18.542969 0.0898438 18.167969 0.0898438 16.734375 C 0.0898438 15.207031 0.175781 14.621094 0.597656 13.34375 C 2.128906 8.667969 6.824219 4.386719 14.1875 0.957031 C 15.304688 0.441406 15.804688 0.296875 17.132812 0.128906 C 17.964844 0.0195312 19.65625 0.0351562 20.535156 0.160156 C 24.894531 0.765625 28.683594 3.582031 30.652344 7.679688 C 31.683594 9.824219 31.941406 11.246094 31.9375 14.894531 C 31.9375 19.136719 31.246094 22.464844 29.785156 25.257812 C 27.886719 28.886719 24.734375 31.148438 20.667969 31.800781 C 20.070312 31.894531 17.464844 31.976562 17.007812 31.914062 Z M 19.4375 23.792969 C 20.035156 23.484375 20.085938 23.230469 20.058594 20.65625 C 20.039062 18.738281 20.035156 18.722656 19.882812 18.453125 C 19.796875 18.300781 19.628906 18.121094 19.503906 18.042969 C 19.285156 17.902344 19.246094 17.902344 16.21875 17.882812 C 12.941406 17.863281 12.648438 17.882812 12.347656 18.160156 C 11.980469 18.503906 11.980469 18.488281 12.003906 20.980469 L 12.019531 23.269531 L 12.171875 23.480469 C 12.253906 23.597656 12.441406 23.746094 12.582031 23.8125 C 12.824219 23.921875 13.058594 23.929688 16 23.933594 C 19.152344 23.933594 19.160156 23.933594 19.4375 23.792969 Z M 11.238281 19.496094 C 11.261719 18.472656 11.273438 18.386719 11.421875 18.09375 C 11.527344 17.894531 11.695312 17.699219 11.894531 17.558594 L 12.207031 17.335938 L 19.785156 17.335938 L 20.050781 17.511719 C 20.375 17.71875 20.609375 18.058594 20.695312 18.441406 C 20.730469 18.597656 20.761719 19.148438 20.761719 19.664062 L 20.761719 20.605469 L 21.503906 20.570312 C 22.050781 20.546875 22.339844 20.503906 22.605469 20.402344 C 23.285156 20.144531 23.847656 19.585938 24.121094 18.890625 C 24.257812 18.550781 24.265625 18.441406 24.285156 16.308594 C 24.300781 14.988281 24.285156 13.914062 24.246094 13.671875 C 24.082031 12.628906 23.394531 11.824219 22.410156 11.535156 C 22.15625 11.457031 21.800781 11.433594 21.046875 11.433594 L 20.027344 11.433594 L 19.988281 11.898438 C 19.972656 12.152344 19.910156 12.449219 19.855469 12.550781 C 19.722656 12.8125 19.410156 13.058594 19.167969 13.105469 C 19.058594 13.125 17.550781 13.132812 15.828125 13.121094 C 12.761719 13.105469 12.6875 13.101562 12.511719 12.972656 C 12.15625 12.707031 12.050781 12.46875 12.050781 11.925781 L 12.050781 11.433594 L 10.988281 11.433594 C 10.230469 11.433594 9.839844 11.457031 9.609375 11.527344 C 8.613281 11.820312 7.902344 12.636719 7.753906 13.65625 C 7.675781 14.199219 7.683594 17.871094 7.761719 18.375 C 7.929688 19.441406 8.757812 20.316406 9.789062 20.519531 C 9.941406 20.546875 10.324219 20.574219 10.640625 20.578125 L 11.21875 20.585938 Z M 18.933594 12.640625 C 19.050781 12.578125 19.207031 12.449219 19.277344 12.351562 C 19.398438 12.191406 19.40625 12.078125 19.425781 10.257812 C 19.441406 8.394531 19.441406 8.324219 19.308594 8.09375 C 19.03125 7.597656 19.121094 7.613281 15.996094 7.613281 C 12.871094 7.613281 12.964844 7.597656 12.683594 8.09375 C 12.554688 8.324219 12.550781 8.394531 12.570312 10.246094 C 12.589844 12.105469 12.589844 12.164062 12.730469 12.355469 C 13.015625 12.757812 13 12.753906 15.996094 12.753906 C 18.519531 12.757812 18.730469 12.75 18.933594 12.640625 Z M 18.933594 12.640625 "/>
<path style=" stroke:none;fill-rule:evenodd;fill:rgb(60.392157%,80%,19.607843%);fill-opacity:1;" d="M 9.617188 4.226562 L 26.707031 4.226562 C 27.988281 4.226562 29.023438 5.269531 29.023438 6.5625 L 29.023438 23.816406 C 29.023438 25.105469 27.988281 26.152344 26.707031 26.152344 L 9.617188 26.152344 C 8.339844 26.152344 7.300781 25.105469 7.300781 23.816406 L 7.300781 6.5625 C 7.300781 5.269531 8.339844 4.226562 9.617188 4.226562 Z M 9.617188 4.226562 "/>
<path style=" stroke:none;fill-rule:nonzero;fill:rgb(0%,0%,0%);fill-opacity:0.301961;" d="M 15.398438 6.949219 C 14.574219 6.933594 13.859375 7.761719 14.035156 8.589844 C 14.152344 9.859375 14.960938 10.886719 15.59375 11.933594 C 15.664062 12.324219 15.460938 12.699219 15.445312 13.089844 C 15.035156 15.355469 14.40625 17.613281 13.441406 19.699219 C 12.246094 20.253906 10.890625 20.800781 10.191406 22 C 9.746094 22.832031 10.371094 23.953125 11.292969 24.039062 C 12.140625 24.160156 12.773438 23.421875 13.238281 22.804688 C 13.722656 22.140625 14.042969 21.351562 14.449219 20.636719 C 16.894531 19.644531 19.464844 18.949219 22.09375 18.683594 C 23.152344 19.453125 24.277344 20.355469 25.640625 20.410156 C 26.433594 20.402344 27.074219 19.625 26.988281 18.835938 C 26.933594 18.121094 26.304688 17.617188 25.652344 17.480469 C 24.597656 17.160156 23.464844 17.335938 22.394531 17.34375 C 20.328125 15.679688 18.421875 13.761719 16.921875 11.570312 C 17.035156 10.238281 17.257812 8.761719 16.570312 7.550781 C 16.308594 7.167969 15.863281 6.90625 15.398438 6.949219 M 15.4375 8.160156 C 15.671875 8.203125 15.6875 8.550781 15.753906 8.738281 C 15.8125 9.121094 15.808594 9.511719 15.800781 9.894531 C 15.527344 9.371094 15.164062 8.824219 15.230469 8.207031 C 15.300781 8.207031 15.367188 8.167969 15.4375 8.160156 M 16.71875 13.355469 C 17.949219 14.902344 19.316406 16.324219 20.808594 17.613281 C 18.839844 17.917969 16.886719 18.421875 15.015625 19.105469 C 15.734375 17.214844 16.28125 15.257812 16.640625 13.261719 C 16.667969 13.292969 16.691406 13.324219 16.71875 13.355469 M 24.394531 18.550781 C 24.871094 18.597656 25.421875 18.566406 25.804688 18.898438 C 25.839844 19.199219 25.476562 19.242188 25.285156 19.136719 C 24.878906 18.996094 24.480469 18.828125 24.136719 18.566406 C 24.222656 18.5625 24.308594 18.550781 24.394531 18.550781 M 12.472656 21.699219 C 12.246094 22.125 11.914062 22.527344 11.570312 22.828125 C 11.457031 23.015625 11.140625 22.667969 11.285156 22.523438 C 11.585938 22.050781 12.105469 21.800781 12.566406 21.519531 C 12.535156 21.578125 12.503906 21.636719 12.472656 21.699219 "/>
<path style=" stroke:none;fill-rule:nonzero;fill:rgb(100%,100%,100%);fill-opacity:1;" d="M 15.109375 6.65625 C 14.285156 6.640625 13.570312 7.472656 13.746094 8.300781 C 13.863281 9.566406 14.671875 10.59375 15.300781 11.640625 C 15.375 12.027344 15.171875 12.410156 15.15625 12.792969 C 14.746094 15.066406 14.117188 17.324219 13.152344 19.40625 C 11.957031 19.960938 10.601562 20.511719 9.902344 21.707031 C 9.457031 22.539062 10.082031 23.660156 11 23.746094 C 11.851562 23.863281 12.484375 23.128906 12.949219 22.511719 C 13.433594 21.847656 13.753906 21.058594 14.160156 20.347656 C 16.605469 19.351562 19.175781 18.65625 21.800781 18.394531 C 22.863281 19.160156 23.988281 20.066406 25.351562 20.121094 C 26.144531 20.109375 26.785156 19.332031 26.699219 18.542969 C 26.644531 17.828125 26.015625 17.324219 25.363281 17.191406 C 24.308594 16.871094 23.175781 17.042969 22.105469 17.050781 C 20.039062 15.386719 18.132812 13.472656 16.632812 11.277344 C 16.742188 9.945312 16.964844 8.472656 16.277344 7.257812 C 16.019531 6.878906 15.574219 6.613281 15.109375 6.65625 M 15.148438 7.867188 C 15.378906 7.910156 15.394531 8.261719 15.460938 8.449219 C 15.523438 8.828125 15.515625 9.21875 15.511719 9.601562 C 15.234375 9.082031 14.875 8.535156 14.941406 7.914062 C 15.011719 7.910156 15.078125 7.875 15.148438 7.867188 M 16.429688 13.066406 C 17.660156 14.609375 19.027344 16.03125 20.519531 17.320312 C 18.550781 17.621094 16.597656 18.128906 14.726562 18.816406 C 15.445312 16.921875 15.988281 14.964844 16.351562 12.96875 C 16.378906 13 16.402344 13.03125 16.429688 13.066406 M 24.105469 18.253906 C 24.582031 18.300781 25.132812 18.277344 25.511719 18.605469 C 25.550781 18.90625 25.1875 18.949219 24.996094 18.839844 C 24.589844 18.707031 24.191406 18.535156 23.847656 18.273438 C 23.933594 18.269531 24.019531 18.257812 24.105469 18.253906 M 12.183594 21.40625 C 11.957031 21.832031 11.625 22.234375 11.28125 22.535156 C 11.167969 22.722656 10.851562 22.378906 10.996094 22.230469 C 11.292969 21.757812 11.816406 21.507812 12.277344 21.226562 C 12.246094 21.285156 12.214844 21.347656 12.183594 21.40625 "/>
</g>
</svg>
