
<svg xmlns="http://www.w3.org/2000/svg" xmlns:xlink="http://www.w3.org/1999/xlink" width="32px" height="32px" viewBox="0 0 32 32" version="1.1">
<g id="surface1">
<path style=" stroke:none;fill-rule:nonzero;fill:rgb(60.392157%,80.392157%,19.607843%);fill-opacity:1;" d="M 0.273438 15.71875 C -2.519531 1.726562 16.644531 -3.585938 27.050781 2.476562 C 35.339844 7.308594 32.972656 23.855469 21.777344 30.023438 C 10.585938 36.191406 2.515625 26.949219 0.273438 15.71875 Z M 0.273438 15.71875 "/>
<path style=" stroke:none;fill-rule:nonzero;fill:rgb(100%,99.215686%,93.333333%);fill-opacity:1;" d="M 11.191406 6.425781 C 10.359375 6.425781 9.6875 7.097656 9.6875 7.933594 L 9.6875 21.71875 C 9.6875 22.554688 10.359375 23.222656 11.191406 23.222656 L 21.441406 23.222656 C 22.277344 23.222656 22.945312 22.554688 22.945312 21.71875 L 22.945312 12.605469 C 22.925781 12.582031 22.914062 12.550781 22.890625 12.523438 L 16.789062 6.421875 L 11.191406 6.421875 Z M 11.191406 6.425781 "/>
<path style=" stroke:none;fill-rule:nonzero;fill:rgb(41.960784%,55.686275%,13.72549%);fill-opacity:1;" d="M 22.945312 12.605469 C 22.894531 12.496094 22.824219 12.390625 22.734375 12.300781 L 16.789062 6.425781 L 16.789062 11.59375 C 16.789062 12.152344 17.246094 12.605469 17.808594 12.605469 Z M 22.945312 12.605469 "/>
<path style="fill:none;stroke-width:6;stroke-linecap:butt;stroke-linejoin:miter;stroke:rgb(60.392157%,80.392157%,19.607843%);stroke-opacity:1;stroke-miterlimit:4;" d="M 85.345747 975.5825 L 170.970747 975.5825 " transform="matrix(0.125,0,0,0.125,0.296625,-100.3775)"/>
<path style="fill:none;stroke-width:6;stroke-linecap:butt;stroke-linejoin:miter;stroke:rgb(60.392157%,80.392157%,19.607843%);stroke-opacity:1;stroke-miterlimit:4;" d="M 85.345747 962.2075 L 170.970747 962.2075 " transform="matrix(0.125,0,0,0.125,0.296625,-100.3775)"/>
<path style="fill:none;stroke-width:6;stroke-linecap:butt;stroke-linejoin:miter;stroke:rgb(60.392157%,80.392157%,19.607843%);stroke-opacity:1;stroke-miterlimit:4;" d="M 85.345747 948.80125 L 170.970747 948.80125 " transform="matrix(0.125,0,0,0.125,0.296625,-100.3775)"/>
<path style="fill:none;stroke-width:6;stroke-linecap:butt;stroke-linejoin:miter;stroke:rgb(60.392157%,80.392157%,19.607843%);stroke-opacity:1;stroke-miterlimit:4;" d="M 85.345747 935.42625 L 170.970747 935.42625 " transform="matrix(0.125,0,0,0.125,0.296625,-100.3775)"/>
<path style="fill:none;stroke-width:6;stroke-linecap:butt;stroke-linejoin:miter;stroke:rgb(60.392157%,80.392157%,19.607843%);stroke-opacity:1;stroke-miterlimit:4;" d="M 85.345747 922.05125 L 170.970747 922.05125 " transform="matrix(0.125,0,0,0.125,0.296625,-100.3775)"/>
</g>
</svg>
