
<svg xmlns="http://www.w3.org/2000/svg" xmlns:xlink="http://www.w3.org/1999/xlink" width="32px" height="32px" viewBox="0 0 32 32" version="1.1">
<g id="surface1">
<path style=" stroke:none;fill-rule:nonzero;fill:rgb(39.215686%,58.431373%,92.941176%);fill-opacity:1;" d="M 13.222656 31.847656 C 8.484375 31.140625 5.054688 28.6875 2.980469 24.523438 C 0.757812 20.066406 0.382812 15.875 1.894531 12.324219 C 2.726562 10.367188 4.160156 8.390625 5.980469 6.683594 C 8.566406 4.261719 11.75 2.304688 14.53125 1.421875 C 16.585938 0.773438 19.921875 0.714844 21.652344 1.296875 C 23.363281 1.871094 24.824219 2.824219 26.507812 4.460938 C 29.003906 6.882812 30.535156 9.667969 31.609375 13.746094 L 32 15.21875 L 31.9375 18.34375 C 31.871094 21.765625 31.8125 22.125 31.09375 23.703125 C 29.09375 28.097656 24.183594 31.09375 17.753906 31.84375 C 15.964844 32.054688 14.609375 32.054688 13.222656 31.847656 Z M 13.222656 31.847656 "/>
<path style="fill-rule:evenodd;fill:rgb(100%,100%,100%);fill-opacity:1;stroke-width:1.23878;stroke-linecap:butt;stroke-linejoin:miter;stroke:rgb(100%,100%,100%);stroke-opacity:1;stroke-miterlimit:4;" d="M 22.35575 1021.93125 L 20.29325 1017.30625 L 48.98075 1017.025 L 77.637 1016.74375 L 78.16825 1014.30625 C 78.4495 1012.99375 79.23075 1008.9625 79.887 1005.4 C 81.91825 994.36875 87.387 978.775 93.16825 967.49375 C 110.98075 932.775 137.41825 913.7125 173.9495 909.3375 C 190.41825 907.36875 191.91825 909.15 185.16825 922.7125 C 178.1995 936.80625 176.0745 946.4 176.012 963.61875 C 175.9495 981.74375 178.8245 997.775 184.762 1012.7125 L 186.387 1016.775 L 216.10575 1016.775 C 235.79325 1016.775 245.8245 1017.15 245.8245 1017.9 C 245.8245 1018.525 245.10575 1020.7125 244.23075 1022.775 L 242.66825 1026.55625 L 180.79325 1026.55625 L 179.16825 1024.0875 C 173.637 1015.65 168.79325 993.11875 168.04325 972.30625 C 167.35575 953.025 168.98075 941.55625 174.262 927.9 C 176.012 923.43125 177.29325 919.7125 177.16825 919.5875 C 176.6995 919.11875 160.54325 922.36875 155.79325 923.86875 C 125.4495 933.4 104.04325 957.49375 92.54325 995.11875 C 90.4495 1001.9625 88.137 1010.9625 87.387 1015.15 C 85.1995 1027.65 88.4495 1026.55625 54.262 1026.55625 L 24.41825 1026.55625 Z M 22.35575 1021.93125 " transform="matrix(0.125,0,0,0.125,-0.0015,-103.6125)"/>
</g>
</svg>
