
<svg xmlns="http://www.w3.org/2000/svg" xmlns:xlink="http://www.w3.org/1999/xlink" width="32px" height="32px" viewBox="0 0 32 32" version="1.1">
<g id="surface1">
<path style=" stroke:none;fill-rule:nonzero;fill:rgb(20%,33.333333%,48.235294%);fill-opacity:1;" d="M 6.769531 28.777344 C 30.386719 44.550781 44.9375 -5.757812 14.402344 0.902344 C 1.785156 3.742188 -5.875 21.542969 6.769531 28.777344 Z M 6.769531 28.777344 "/>
<path style=" stroke:none;fill-rule:nonzero;fill:rgb(0%,0%,0%);fill-opacity:0.0509804;" d="M 21.464844 7.664062 C 24.089844 9.546875 25.800781 12.6875 25.800781 16.246094 C 25.800781 22.007812 21.292969 26.679688 15.730469 26.679688 C 12.296875 26.679688 9.265625 24.902344 7.449219 22.1875 C 7.910156 23.03125 8.480469 23.808594 9.140625 24.492188 C 10.96875 26.214844 13.398438 27.261719 16.066406 27.261719 C 21.753906 27.261719 26.363281 22.484375 26.363281 16.589844 C 26.363281 13.832031 25.351562 11.3125 23.691406 9.417969 C 23.035156 8.730469 22.28125 8.144531 21.464844 7.664062 Z M 23.691406 9.417969 C 25.417969 11.324219 26.472656 13.886719 26.472656 16.707031 C 26.472656 22.597656 21.863281 27.375 16.175781 27.375 C 13.457031 27.375 10.980469 26.277344 9.140625 24.492188 C 11.003906 26.414062 13.566406 27.605469 16.402344 27.605469 C 22.089844 27.605469 26.699219 22.832031 26.699219 16.941406 C 26.699219 14 25.546875 11.347656 23.691406 9.417969 Z M 23.691406 9.417969 "/>
<path style=" stroke:none;fill-rule:nonzero;fill:rgb(0%,0%,0%);fill-opacity:0.101961;" d="M 23.691406 9.417969 C 25.351562 11.3125 26.363281 13.832031 26.363281 16.589844 C 26.363281 22.484375 21.753906 27.261719 16.066406 27.261719 C 13.402344 27.261719 10.96875 26.214844 9.140625 24.492188 C 10.980469 26.277344 13.457031 27.375 16.175781 27.375 C 21.863281 27.375 26.472656 22.597656 26.472656 16.707031 C 26.472656 13.886719 25.417969 11.324219 23.691406 9.417969 Z M 23.691406 9.417969 "/>
<path style=" stroke:none;fill-rule:nonzero;fill:rgb(0%,0%,0%);fill-opacity:0.2;" d="M 19.199219 6.445312 C 23.058594 7.910156 25.804688 11.738281 25.804688 16.246094 C 25.804688 22.011719 21.292969 26.683594 15.730469 26.683594 C 11.386719 26.683594 7.683594 23.835938 6.277344 19.839844 C 7.835938 24.824219 12.660156 27.894531 17.65625 27.085938 C 22.652344 26.277344 26.34375 21.832031 26.363281 16.59375 C 26.359375 11.957031 23.464844 7.859375 19.203125 6.449219 Z M 19.199219 6.445312 "/>
<path style=" stroke:none;fill-rule:nonzero;fill:rgb(29.803922%,49.411765%,74.117647%);fill-opacity:1;" d="M 15.953125 5.808594 C 21.640625 5.808594 26.253906 10.582031 26.253906 16.476562 C 26.253906 22.367188 21.640625 27.144531 15.953125 27.144531 C 10.269531 27.144531 5.65625 22.367188 5.65625 16.476562 C 5.65625 10.582031 10.269531 5.808594 15.953125 5.808594 Z M 15.953125 5.808594 "/>
<path style=" stroke:none;fill-rule:nonzero;fill:rgb(0%,0%,0%);fill-opacity:0.101961;" d="M 13.714844 10.910156 L 13.714844 13.691406 L 9.6875 13.691406 L 9.6875 23.894531 L 13.714844 23.894531 L 13.714844 25.289062 L 19.089844 25.289062 L 19.089844 24.363281 C 23.644531 22.382812 19.089844 24.363281 23.566406 22.96875 L 23.566406 15.546875 L 19.089844 15.546875 L 19.089844 10.910156 Z M 13.714844 10.910156 "/>
<path style=" stroke:none;fill-rule:nonzero;fill:rgb(6.27451%,21.960784%,6.27451%);fill-opacity:1;" d="M 7.449219 20.652344 C 7.132812 20.652344 6.828125 20.699219 6.539062 20.78125 C 7.421875 22.847656 8.917969 24.566406 10.792969 25.695312 C 10.945312 25.28125 11.027344 24.832031 11.027344 24.363281 C 11.027344 22.3125 9.425781 20.652344 7.449219 20.652344 Z M 7.449219 20.652344 "/>
<path style=" stroke:none;fill-rule:nonzero;fill:rgb(75.686275%,90.196078%,100%);fill-opacity:1;" d="M 9.6875 13.691406 L 14.164062 13.691406 L 14.164062 23.433594 L 9.6875 23.433594 Z M 9.6875 13.691406 "/>
<path style=" stroke:none;fill-rule:nonzero;fill:rgb(28.627451%,28.627451%,28.627451%);fill-opacity:1;" d="M 9.238281 13.230469 L 9.238281 23.433594 L 9.6875 23.433594 L 9.6875 22.042969 L 11.476562 22.042969 L 11.476562 22.96875 L 11.925781 22.96875 L 11.925781 22.042969 L 14.164062 22.042969 L 14.164062 21.578125 L 11.925781 21.578125 L 11.925781 20.652344 L 14.164062 20.652344 L 14.164062 20.1875 L 11.925781 20.1875 L 11.925781 19.257812 L 14.164062 19.257812 L 14.164062 18.792969 L 11.925781 18.792969 L 11.925781 17.867188 L 14.164062 17.867188 L 14.164062 17.402344 L 11.925781 17.402344 L 11.925781 16.476562 L 14.164062 16.476562 L 14.164062 16.011719 L 11.925781 16.011719 L 11.925781 15.082031 L 14.164062 15.082031 L 14.164062 14.621094 L 11.925781 14.621094 L 11.925781 13.691406 L 14.164062 13.691406 L 14.164062 13.230469 Z M 9.6875 13.691406 L 11.476562 13.691406 L 11.476562 14.621094 L 9.6875 14.621094 Z M 9.6875 15.082031 L 11.476562 15.082031 L 11.476562 16.011719 L 9.6875 16.011719 Z M 9.6875 16.476562 L 11.476562 16.476562 L 11.476562 17.402344 L 9.6875 17.402344 Z M 9.6875 17.867188 L 11.476562 17.867188 L 11.476562 18.792969 L 9.6875 18.792969 Z M 9.6875 19.257812 L 11.476562 19.257812 L 11.476562 20.1875 L 9.6875 20.1875 Z M 9.6875 20.652344 L 11.476562 20.652344 L 11.476562 21.578125 L 9.6875 21.578125 Z M 9.6875 20.652344 "/>
<path style=" stroke:none;fill-rule:nonzero;fill:rgb(22.352941%,41.176471%,16.078431%);fill-opacity:1;" d="M 11.476562 22.503906 C 10.308594 22.503906 9.261719 23.027344 8.527344 23.855469 C 10.300781 25.769531 12.753906 27.003906 15.492188 27.128906 C 15.507812 26.980469 15.507812 26.832031 15.507812 26.679688 C 15.507812 24.371094 13.703125 22.503906 11.476562 22.503906 Z M 11.476562 22.503906 "/>
<path style=" stroke:none;fill-rule:nonzero;fill:rgb(85.882353%,87.45098%,88.235294%);fill-opacity:1;" d="M 17.296875 15.082031 L 23.117188 15.082031 L 23.117188 23.894531 L 17.296875 23.894531 Z M 17.296875 15.082031 "/>
<path style=" stroke:none;fill-rule:nonzero;fill:rgb(76.862745%,79.607843%,80.392157%);fill-opacity:1;" d="M 17.746094 23.433594 L 23.117188 23.433594 L 23.117188 23.894531 L 17.746094 23.894531 Z M 17.746094 23.433594 "/>
<path style=" stroke:none;fill-rule:nonzero;fill:rgb(76.862745%,79.607843%,80.392157%);fill-opacity:1;" d="M 17.746094 15.082031 L 23.117188 15.082031 L 23.117188 15.546875 L 17.746094 15.546875 Z M 17.746094 15.082031 "/>
<path style=" stroke:none;fill-rule:nonzero;fill:rgb(76.862745%,79.607843%,80.392157%);fill-opacity:1;" d="M 17.746094 16.011719 L 23.117188 16.011719 L 23.117188 16.476562 L 17.746094 16.476562 Z M 17.746094 16.011719 "/>
<path style=" stroke:none;fill-rule:nonzero;fill:rgb(76.862745%,79.607843%,80.392157%);fill-opacity:1;" d="M 17.746094 16.941406 L 23.117188 16.941406 L 23.117188 17.402344 L 17.746094 17.402344 Z M 17.746094 16.941406 "/>
<path style=" stroke:none;fill-rule:nonzero;fill:rgb(76.862745%,79.607843%,80.392157%);fill-opacity:1;" d="M 17.746094 17.867188 L 23.117188 17.867188 L 23.117188 18.332031 L 17.746094 18.332031 Z M 17.746094 17.867188 "/>
<path style=" stroke:none;fill-rule:nonzero;fill:rgb(76.862745%,79.607843%,80.392157%);fill-opacity:1;" d="M 17.746094 18.792969 L 23.117188 18.792969 L 23.117188 19.257812 L 17.746094 19.257812 Z M 17.746094 18.792969 "/>
<path style=" stroke:none;fill-rule:nonzero;fill:rgb(76.862745%,79.607843%,80.392157%);fill-opacity:1;" d="M 17.746094 22.503906 L 23.117188 22.503906 L 23.117188 22.96875 L 17.746094 22.96875 Z M 17.746094 22.503906 "/>
<path style=" stroke:none;fill-rule:nonzero;fill:rgb(76.862745%,79.607843%,80.392157%);fill-opacity:1;" d="M 17.746094 21.578125 L 23.117188 21.578125 L 23.117188 22.042969 L 17.746094 22.042969 Z M 17.746094 21.578125 "/>
<path style=" stroke:none;fill-rule:nonzero;fill:rgb(76.862745%,79.607843%,80.392157%);fill-opacity:1;" d="M 17.746094 20.652344 L 23.117188 20.652344 L 23.117188 21.113281 L 17.746094 21.113281 Z M 17.746094 20.652344 "/>
<path style=" stroke:none;fill-rule:nonzero;fill:rgb(76.862745%,79.607843%,80.392157%);fill-opacity:1;" d="M 17.746094 19.722656 L 23.117188 19.722656 L 23.117188 20.1875 L 17.746094 20.1875 Z M 17.746094 19.722656 "/>
<path style=" stroke:none;fill-rule:nonzero;fill:rgb(61.568627%,61.960784%,62.745098%);fill-opacity:1;" d="M 13.269531 10.445312 L 18.640625 10.445312 L 18.640625 24.824219 L 13.269531 24.824219 Z M 13.269531 10.445312 "/>
<path style=" stroke:none;fill-rule:nonzero;fill:rgb(81.568627%,83.529412%,84.705882%);fill-opacity:1;" d="M 13.714844 10.910156 L 13.714844 24.363281 L 18.191406 24.363281 L 18.191406 10.910156 L 16.402344 10.910156 L 16.402344 23.894531 L 15.507812 23.894531 L 15.507812 10.910156 Z M 13.714844 10.910156 "/>
<path style=" stroke:none;fill-rule:nonzero;fill:rgb(54.901961%,54.117647%,54.901961%);fill-opacity:1;" d="M 16.847656 23.894531 L 17.746094 23.894531 L 17.746094 22.96875 L 16.847656 22.96875 Z M 16.847656 23.894531 "/>
<path style=" stroke:none;fill-rule:nonzero;fill:rgb(54.901961%,54.117647%,54.901961%);fill-opacity:1;" d="M 14.164062 22.503906 L 15.058594 22.503906 L 15.058594 21.578125 L 14.164062 21.578125 Z M 14.164062 22.503906 "/>
<path style=" stroke:none;fill-rule:nonzero;fill:rgb(20%,33.333333%,20%);fill-opacity:1;" d="M 14.613281 22.042969 C 12.878906 22.042969 11.476562 23.496094 11.476562 25.289062 C 11.476562 25.578125 11.519531 25.863281 11.589844 26.128906 C 12.917969 26.773438 14.394531 27.144531 15.953125 27.144531 C 16.390625 27.144531 16.816406 27.113281 17.242188 27.058594 C 17.5625 26.546875 17.746094 25.941406 17.746094 25.289062 C 17.746094 23.496094 16.339844 22.042969 14.613281 22.042969 Z M 14.613281 22.042969 "/>
<path style=" stroke:none;fill-rule:nonzero;fill:rgb(3.137255%,17.254902%,6.27451%);fill-opacity:1;" d="M 24.910156 20.652344 C 23.671875 20.652344 22.667969 21.6875 22.667969 22.96875 C 22.667969 23.433594 22.808594 23.855469 23.035156 24.214844 C 24.035156 23.230469 24.84375 22.039062 25.398438 20.707031 C 25.238281 20.671875 25.078125 20.652344 24.910156 20.652344 Z M 24.910156 20.652344 "/>
<path style=" stroke:none;fill-rule:nonzero;fill:rgb(22.352941%,41.176471%,16.078431%);fill-opacity:1;" d="M 17.746094 23.449219 C 16.507812 23.449219 15.507812 24.484375 15.507812 25.765625 C 15.507812 26.28125 15.675781 26.761719 15.953125 27.144531 C 17.355469 27.144531 18.683594 26.839844 19.902344 26.316406 C 19.945312 26.140625 19.984375 25.960938 19.984375 25.765625 C 19.984375 24.484375 18.980469 23.449219 17.746094 23.449219 Z M 17.746094 23.449219 "/>
<path style=" stroke:none;fill-rule:nonzero;fill:rgb(54.901961%,54.117647%,54.901961%);fill-opacity:1;" d="M 14.164062 12.765625 L 15.058594 12.765625 L 15.058594 11.839844 L 14.164062 11.839844 Z M 14.164062 12.765625 "/>
<path style=" stroke:none;fill-rule:nonzero;fill:rgb(54.901961%,54.117647%,54.901961%);fill-opacity:1;" d="M 16.847656 12.765625 L 17.746094 12.765625 L 17.746094 11.839844 L 16.847656 11.839844 Z M 16.847656 12.765625 "/>
<path style=" stroke:none;fill-rule:nonzero;fill:rgb(54.901961%,54.117647%,54.901961%);fill-opacity:1;" d="M 14.164062 14.15625 L 15.058594 14.15625 L 15.058594 13.230469 L 14.164062 13.230469 Z M 14.164062 14.15625 "/>
<path style=" stroke:none;fill-rule:nonzero;fill:rgb(54.901961%,54.117647%,54.901961%);fill-opacity:1;" d="M 16.847656 14.15625 L 17.746094 14.15625 L 17.746094 13.230469 L 16.847656 13.230469 Z M 16.847656 14.15625 "/>
<path style=" stroke:none;fill-rule:nonzero;fill:rgb(54.901961%,54.117647%,54.901961%);fill-opacity:1;" d="M 14.164062 15.546875 L 15.058594 15.546875 L 15.058594 14.621094 L 14.164062 14.621094 Z M 14.164062 15.546875 "/>
<path style=" stroke:none;fill-rule:nonzero;fill:rgb(54.901961%,54.117647%,54.901961%);fill-opacity:1;" d="M 16.847656 15.546875 L 17.746094 15.546875 L 17.746094 14.621094 L 16.847656 14.621094 Z M 16.847656 15.546875 "/>
<path style=" stroke:none;fill-rule:nonzero;fill:rgb(54.901961%,54.117647%,54.901961%);fill-opacity:1;" d="M 14.164062 16.941406 L 15.058594 16.941406 L 15.058594 16.011719 L 14.164062 16.011719 Z M 14.164062 16.941406 "/>
<path style=" stroke:none;fill-rule:nonzero;fill:rgb(54.901961%,54.117647%,54.901961%);fill-opacity:1;" d="M 16.847656 16.941406 L 17.746094 16.941406 L 17.746094 16.011719 L 16.847656 16.011719 Z M 16.847656 16.941406 "/>
<path style=" stroke:none;fill-rule:nonzero;fill:rgb(54.901961%,54.117647%,54.901961%);fill-opacity:1;" d="M 14.164062 18.332031 L 15.058594 18.332031 L 15.058594 17.402344 L 14.164062 17.402344 Z M 14.164062 18.332031 "/>
<path style=" stroke:none;fill-rule:nonzero;fill:rgb(54.901961%,54.117647%,54.901961%);fill-opacity:1;" d="M 16.847656 18.332031 L 17.746094 18.332031 L 17.746094 17.402344 L 16.847656 17.402344 Z M 16.847656 18.332031 "/>
<path style=" stroke:none;fill-rule:nonzero;fill:rgb(54.901961%,54.117647%,54.901961%);fill-opacity:1;" d="M 14.164062 19.722656 L 15.058594 19.722656 L 15.058594 18.792969 L 14.164062 18.792969 Z M 14.164062 19.722656 "/>
<path style=" stroke:none;fill-rule:nonzero;fill:rgb(54.901961%,54.117647%,54.901961%);fill-opacity:1;" d="M 16.847656 19.722656 L 17.746094 19.722656 L 17.746094 18.792969 L 16.847656 18.792969 Z M 16.847656 19.722656 "/>
<path style=" stroke:none;fill-rule:nonzero;fill:rgb(54.901961%,54.117647%,54.901961%);fill-opacity:1;" d="M 14.164062 21.113281 L 15.058594 21.113281 L 15.058594 20.1875 L 14.164062 20.1875 Z M 14.164062 21.113281 "/>
<path style=" stroke:none;fill-rule:nonzero;fill:rgb(54.901961%,54.117647%,54.901961%);fill-opacity:1;" d="M 16.847656 21.113281 L 17.746094 21.113281 L 17.746094 20.1875 L 16.847656 20.1875 Z M 16.847656 21.113281 "/>
<path style=" stroke:none;fill-rule:nonzero;fill:rgb(54.901961%,54.117647%,54.901961%);fill-opacity:1;" d="M 16.847656 22.503906 L 17.746094 22.503906 L 17.746094 21.578125 L 16.847656 21.578125 Z M 16.847656 22.503906 "/>
<path style=" stroke:none;fill-rule:nonzero;fill:rgb(76.862745%,79.607843%,80.392157%);fill-opacity:1;" d="M 22.667969 15.546875 L 23.117188 15.546875 L 23.117188 22.96875 L 22.667969 22.96875 Z M 22.667969 15.546875 "/>
<path style=" stroke:none;fill-rule:nonzero;fill:rgb(76.862745%,79.607843%,80.392157%);fill-opacity:1;" d="M 20.433594 15.082031 L 20.878906 15.082031 L 20.878906 23.578125 L 20.433594 23.578125 Z M 20.433594 15.082031 "/>
<path style=" stroke:none;fill-rule:nonzero;fill:rgb(20%,33.333333%,20%);fill-opacity:1;" d="M 22.222656 22.042969 C 19.75 22.042969 17.746094 24.117188 17.746094 26.679688 C 17.746094 26.78125 17.753906 26.882812 17.757812 26.984375 C 20.488281 26.484375 22.84375 24.863281 24.378906 22.605469 C 23.738281 22.246094 23 22.042969 22.222656 22.042969 Z M 22.222656 22.042969 "/>
<path style=" stroke:none;fill-rule:nonzero;fill:rgb(0%,0%,0%);fill-opacity:0.101961;" d="M 23.128906 8.835938 C 24.792969 10.730469 25.804688 13.25 25.804688 16.011719 C 25.804688 21.902344 21.191406 26.679688 15.503906 26.679688 C 12.839844 26.679688 10.410156 25.632812 8.582031 23.910156 C 10.449219 25.902344 13.0625 27.144531 15.953125 27.144531 C 21.640625 27.144531 26.25 22.367188 26.25 16.476562 C 26.25 13.480469 25.050781 10.773438 23.128906 8.835938 Z M 23.128906 8.835938 "/>
</g>
</svg>
