
<svg xmlns="http://www.w3.org/2000/svg" xmlns:xlink="http://www.w3.org/1999/xlink" width="32px" height="32px" viewBox="0 0 32 32" version="1.1">
<defs>
<linearGradient id="linear0" gradientUnits="userSpaceOnUse" x1="35.2" y1="34.423" x2="44.919" y2="72.25" >
<stop offset="0" style="stop-color:rgb(19.215686%,72.941176%,100%);stop-opacity:1;"/>
<stop offset="1" style="stop-color:rgb(33.333333%,54.117647%,85.490196%);stop-opacity:1;"/>
</linearGradient>
<linearGradient id="linear1" gradientUnits="userSpaceOnUse" x1="52.47" y1="58.54" x2="66.56" y2="31.25" >
<stop offset="0" style="stop-color:rgb(100%,78.823529%,24.705882%);stop-opacity:1;"/>
<stop offset="1" style="stop-color:rgb(94.509804%,89.019608%,42.352941%);stop-opacity:1;"/>
</linearGradient>
</defs>
<g id="surface1">
<path style=" stroke:none;fill-rule:nonzero;fill:rgb(32.941176%,43.137255%,74.509804%);fill-opacity:1;" d="M 28.800781 24.363281 C 40.199219 8.148438 19.144531 -8.285156 5.714844 4.929688 C -6.9375 17.378906 4.792969 36.722656 20.539062 30.675781 C 23.824219 29.410156 26.707031 27.339844 28.800781 24.363281 Z M 28.800781 24.363281 "/>
<path style=" stroke:none;fill-rule:evenodd;fill:rgb(0%,0%,0%);fill-opacity:0.294118;" d="M 21.546875 21.492188 C 21.546875 23.199219 18.269531 24.582031 14.230469 24.582031 C 10.191406 24.582031 6.914062 23.199219 6.914062 21.492188 C 6.914062 19.789062 10.191406 18.40625 14.230469 18.40625 C 18.269531 18.40625 21.546875 19.789062 21.546875 21.492188 Z M 21.546875 21.492188 "/>
<path style="fill-rule:evenodd;fill:url(#linear0);stroke-width:4.5;stroke-linecap:round;stroke-linejoin:miter;stroke:rgb(15.686275%,23.921569%,32.54902%);stroke-opacity:1;stroke-miterlimit:20;" d="M 8.044927 69.411711 C 10.744253 84.391578 64.789444 85.122738 70.031612 71.569525 C 67.312726 62.349773 44.544502 13.201543 42.549349 10.116404 C 38.578602 15.359357 10.939856 62.528105 8.044927 69.393877 Z M 8.044927 69.411711 " transform="matrix(0.199703,0,0,0.219044,6.373875,5.02625)"/>
<path style=" stroke:none;fill-rule:evenodd;fill:rgb(100%,78.823529%,24.705882%);fill-opacity:1;" d="M 12.820312 17.296875 L 12.3125 16.835938 L 11.695312 17.089844 L 11.9375 16.421875 L 11.527344 15.855469 L 12.183594 15.902344 L 12.542969 15.300781 L 12.707031 15.996094 L 13.34375 16.1875 L 12.789062 16.574219 Z M 12.820312 17.296875 "/>
<path style=" stroke:none;fill-rule:evenodd;fill:rgb(100%,78.823529%,24.705882%);fill-opacity:1;" d="M 15.769531 18.261719 L 15.191406 17.925781 L 14.632812 18.308594 L 14.746094 17.597656 L 14.238281 17.136719 L 14.894531 17.035156 L 15.136719 16.363281 L 15.425781 17.011719 L 16.082031 17.058594 L 15.609375 17.5625 Z M 15.769531 18.261719 "/>
<path style=" stroke:none;fill-rule:evenodd;fill:rgb(100%,78.823529%,24.705882%);fill-opacity:1;" d="M 15.558594 14.660156 L 14.984375 14.304688 L 14.417969 14.671875 L 14.550781 13.964844 L 14.058594 13.488281 L 14.710938 13.40625 L 14.972656 12.746094 L 15.242188 13.402344 L 15.898438 13.46875 L 15.414062 13.957031 Z M 15.558594 14.660156 "/>
<path style=" stroke:none;fill-rule:evenodd;fill:rgb(100%,78.823529%,24.705882%);fill-opacity:1;" d="M 18.402344 20.566406 L 17.804688 20.269531 L 17.269531 20.691406 L 17.34375 19.972656 L 16.8125 19.546875 L 17.457031 19.402344 L 17.660156 18.714844 L 17.988281 19.34375 L 18.644531 19.347656 L 18.199219 19.878906 Z M 18.402344 20.566406 "/>
<path style=" stroke:none;fill-rule:evenodd;fill:rgb(100%,78.823529%,24.705882%);fill-opacity:1;" d="M 18.222656 15.847656 L 17.582031 15.667969 L 17.125 16.183594 L 17.082031 15.464844 L 16.496094 15.144531 L 17.105469 14.878906 L 17.203125 14.167969 L 17.621094 14.722656 L 18.269531 14.601562 L 17.914062 15.210938 Z M 18.222656 15.847656 "/>
<path style=" stroke:none;fill-rule:evenodd;fill:rgb(100%,78.823529%,24.705882%);fill-opacity:1;" d="M 10.242188 19.707031 L 9.824219 19.152344 L 9.175781 19.277344 L 9.527344 18.667969 L 9.21875 18.027344 L 9.855469 18.207031 L 10.316406 17.691406 L 10.355469 18.410156 L 10.949219 18.730469 L 10.335938 18.996094 Z M 10.242188 19.707031 "/>
<path style=" stroke:none;fill-rule:evenodd;fill:rgb(100%,78.823529%,24.705882%);fill-opacity:1;" d="M 12.769531 13.9375 L 12.261719 13.480469 L 11.644531 13.730469 L 11.886719 13.0625 L 11.476562 12.496094 L 12.132812 12.542969 L 12.496094 11.941406 L 12.660156 12.636719 L 13.292969 12.832031 L 12.738281 13.214844 Z M 12.769531 13.9375 "/>
<path style=" stroke:none;fill-rule:evenodd;fill:rgb(100%,78.823529%,24.705882%);fill-opacity:1;" d="M 15.167969 11.644531 L 14.660156 11.183594 L 14.042969 11.4375 L 14.285156 10.765625 L 13.875 10.203125 L 14.53125 10.246094 L 14.894531 9.644531 L 15.058594 10.34375 L 15.691406 10.535156 L 15.136719 10.921875 Z M 15.167969 11.644531 "/>
<path style=" stroke:none;fill-rule:evenodd;fill:rgb(100%,78.823529%,24.705882%);fill-opacity:1;" d="M 13.441406 20.707031 L 12.886719 20.320312 L 12.304688 20.660156 L 12.464844 19.960938 L 11.992188 19.457031 L 12.648438 19.410156 L 12.9375 18.761719 L 13.183594 19.433594 L 13.832031 19.53125 L 13.328125 19.996094 Z M 13.441406 20.707031 "/>
<path style=" stroke:none;fill-rule:evenodd;fill:rgb(15.686275%,23.921569%,32.54902%);fill-opacity:1;" d="M 14.90625 6.386719 L 14.519531 6.941406 C 14.277344 7.292969 13.796875 8.132812 13.15625 9.292969 C 12.519531 10.449219 11.738281 11.890625 10.960938 13.347656 C 10.183594 14.808594 9.410156 16.28125 8.792969 17.484375 C 8.183594 18.6875 7.738281 19.589844 7.566406 20.035156 L 7.515625 20.167969 L 7.542969 20.316406 C 7.722656 21.417969 8.671875 22.113281 9.84375 22.570312 C 11.015625 23.027344 12.484375 23.261719 13.96875 23.300781 C 15.453125 23.34375 16.953125 23.183594 18.179688 22.816406 C 19.40625 22.449219 20.417969 21.886719 20.777344 20.878906 L 20.832031 20.722656 L 20.789062 20.566406 C 20.636719 19.996094 20.25 18.957031 19.738281 17.648438 C 19.230469 16.339844 18.597656 14.777344 17.96875 13.261719 C 17.339844 11.746094 16.71875 10.269531 16.226562 9.132812 C 15.980469 8.566406 15.769531 8.082031 15.601562 7.714844 C 15.4375 7.347656 15.339844 7.132812 15.246094 6.976562 Z M 14.832031 8.222656 C 14.988281 8.574219 15.183594 9.019531 15.417969 9.558594 C 15.90625 10.691406 16.527344 12.160156 17.152344 13.671875 C 17.777344 15.183594 18.410156 16.738281 18.917969 18.039062 C 19.390625 19.25 19.714844 20.160156 19.859375 20.644531 C 19.621094 21.089844 18.957031 21.558594 17.945312 21.863281 C 16.835938 22.199219 15.40625 22.355469 13.996094 22.316406 C 12.582031 22.277344 11.1875 22.042969 10.152344 21.640625 C 9.191406 21.265625 8.625 20.761719 8.472656 20.261719 C 8.621094 19.902344 9.011719 19.082031 9.582031 17.964844 C 10.191406 16.769531 10.960938 15.304688 11.734375 13.847656 C 12.511719 12.394531 13.289062 10.949219 13.925781 9.796875 C 14.371094 8.996094 14.585938 8.632812 14.832031 8.222656 Z M 14.832031 8.222656 "/>
<path style="fill-rule:evenodd;fill:url(#linear1);stroke-width:3;stroke-linecap:round;stroke-linejoin:miter;stroke:rgb(34.901961%,22.745098%,15.686275%);stroke-opacity:1;stroke-miterlimit:20;" d="M 42.099461 68.038556 L 68.15382 20.869808 L 71.459516 23.205954 L 51.312376 72.603849 C 48.339206 73.977003 41.825617 71.587358 42.099461 68.038556 Z M 42.099461 68.038556 " transform="matrix(0.199703,0,0,0.219044,6.373875,5.02625)"/>
<path style="fill-rule:evenodd;fill:rgb(100%,78.823529%,24.705882%);fill-opacity:1;stroke-width:1.4;stroke-linecap:round;stroke-linejoin:miter;stroke:rgb(34.901961%,22.745098%,15.686275%);stroke-opacity:1;stroke-miterlimit:20;" d="M 72.070982 24.829162 L 69.519572 21.207503 L 65.108098 21.622997 L 67.766465 18.086117 L 66.004639 14.024343 L 70.195999 15.450217 L 73.516844 12.523066 L 73.448354 16.94307 L 77.264237 19.196381 L 73.034333 20.50072 Z M 72.070982 24.829162 " transform="matrix(0.428196,0.00435897,-0.00397009,0.469347,-9.488495,-0.123907)"/>
</g>
</svg>
