
<svg xmlns="http://www.w3.org/2000/svg" xmlns:xlink="http://www.w3.org/1999/xlink" width="32px" height="32px" viewBox="0 0 32 32" version="1.1">
<g id="surface1">
<path style=" stroke:none;fill-rule:nonzero;fill:rgb(93.333333%,90.980392%,66.666667%);fill-opacity:1;" d="M 19.800781 31.355469 C 49.535156 25.191406 17.613281 -17.230469 2.5 8.253906 C -3.980469 18.152344 4.503906 34.527344 19.800781 31.355469 Z M 19.800781 31.355469 "/>
<path style=" stroke:none;fill-rule:nonzero;fill:rgb(72.156863%,52.54902%,4.313725%);fill-opacity:1;" d="M 12.628906 25.738281 C 10.894531 25.171875 10.113281 24.660156 8.625 23.121094 C 7.324219 21.777344 7.058594 21.332031 6.246094 19.175781 C 5.46875 16.472656 5.359375 16.160156 6.285156 12.960938 C 7.023438 11.074219 7.179688 10.765625 7.753906 10.042969 C 8.511719 9.09375 8.929688 8.671875 9.863281 7.902344 C 10.570312 7.3125 10.875 7.152344 12.722656 6.402344 C 16.128906 5.714844 16.714844 5.75 19.917969 6.769531 C 20.535156 6.925781 22.039062 7.941406 22.792969 8.707031 C 23.933594 9.863281 24.785156 11.308594 25.09375 12.167969 C 26.074219 16.222656 26.023438 16.539062 25.386719 19.300781 C 24.730469 21.027344 24.472656 21.511719 23.824219 22.285156 C 23.441406 22.746094 23.128906 23.167969 23.128906 23.230469 C 23.128906 23.292969 22.851562 23.542969 22.511719 23.789062 C 22.175781 24.035156 21.605469 24.453125 21.246094 24.722656 C 20.882812 24.992188 19.96875 25.417969 19.210938 25.675781 C 15.992188 26.707031 15.878906 26.492188 12.628906 25.738281 Z M 18.761719 23.390625 C 19.960938 22.929688 20.273438 22.714844 21.289062 21.667969 C 22.265625 20.660156 22.542969 20.238281 23.035156 19.019531 C 23.550781 17.742188 23.621094 17.394531 23.621094 16.136719 C 23.621094 14.867188 23.550781 14.535156 23.007812 13.183594 C 22.476562 11.859375 22.246094 11.507812 21.21875 10.476562 C 20.199219 9.449219 19.847656 9.210938 18.59375 8.710938 C 17.378906 8.226562 16.9375 8.128906 15.839844 8.128906 C 14.667969 8.121094 14.363281 8.191406 12.996094 8.789062 C 10.949219 9.683594 9.613281 10.996094 8.753906 12.960938 C 8.015625 14.644531 7.832031 16.722656 8.300781 18.011719 C 9.007812 19.957031 9.519531 20.824219 10.535156 21.839844 C 11.570312 22.871094 12.808594 23.523438 14.441406 23.90625 C 15.535156 24.160156 17.308594 23.949219 18.761719 23.390625 Z M 12.238281 20.996094 C 11.980469 20.800781 11.949219 20.625 12.039062 19.785156 C 12.097656 19.246094 12.324219 18.238281 12.546875 17.550781 C 12.769531 16.863281 13.136719 15.511719 13.359375 14.546875 C 13.828125 12.546875 14.550781 10.230469 14.800781 9.925781 C 15.046875 9.621094 15.996094 9.480469 16.382812 9.691406 C 16.941406 9.996094 16.953125 10.464844 16.429688 12.085938 C 15.910156 13.703125 15.144531 16.714844 14.996094 17.726562 C 14.855469 18.675781 15.105469 18.773438 17.753906 18.828125 C 20.195312 18.878906 20.507812 18.972656 20.507812 19.667969 C 20.507812 20.292969 20.207031 20.726562 19.597656 20.988281 C 18.816406 21.316406 12.683594 21.328125 12.238281 20.996094 Z M 18.578125 13.117188 C 18.042969 12.738281 18.082031 11.839844 18.644531 11.386719 C 19.191406 10.949219 19.289062 10.953125 19.777344 11.449219 C 20.496094 12.179688 20.132812 13.378906 19.199219 13.378906 C 19.058594 13.378906 18.777344 13.261719 18.578125 13.117188 Z M 18.578125 13.117188 "/>
</g>
</svg>
