
<svg xmlns="http://www.w3.org/2000/svg" xmlns:xlink="http://www.w3.org/1999/xlink" width="32px" height="32px" viewBox="0 0 32 32" version="1.1">
<g id="surface1">
<path style=" stroke:none;fill-rule:nonzero;fill:rgb(82.352941%,70.588235%,54.901961%);fill-opacity:1;" d="M 5.605469 27.226562 C -19.621094 -5.085938 49.800781 -9.675781 27.523438 23.308594 C 22.441406 30.824219 12.285156 35.785156 5.605469 27.226562 Z M 5.605469 27.226562 "/>
<path style=" stroke:none;fill-rule:nonzero;fill:rgb(97.254902%,97.254902%,100%);fill-opacity:1;" d="M 4.953125 17.277344 C 3.53125 15.746094 4.214844 14.152344 6.902344 12.746094 C 7.421875 12.472656 8.054688 12.191406 8.308594 12.121094 L 8.769531 11.984375 L 8.585938 12.300781 C 8.480469 12.480469 8.191406 12.722656 7.894531 12.871094 C 7.21875 13.207031 6.445312 13.816406 6.074219 14.308594 C 5.660156 14.855469 5.605469 15.488281 5.933594 16.089844 C 6.164062 16.527344 6.296875 16.636719 7.246094 17.171875 C 8.875 18.089844 10.949219 18.515625 13.964844 18.550781 C 19.210938 18.617188 24.246094 17.117188 25.449219 15.128906 C 25.832031 14.488281 25.824219 14.027344 25.425781 13.339844 C 25.164062 12.894531 25.046875 12.804688 24.085938 12.308594 C 23.175781 11.839844 23.027344 11.730469 22.988281 11.5 C 22.945312 11.253906 22.988281 11.246094 23.628906 11.433594 C 24.003906 11.542969 24.828125 11.933594 25.460938 12.296875 C 26.503906 12.898438 26.640625 13.011719 26.929688 13.492188 C 27.574219 14.570312 27.191406 15.640625 25.796875 16.683594 C 22.25 19.339844 13.886719 20.394531 8.292969 18.898438 C 6.941406 18.535156 5.457031 17.816406 4.953125 17.277344 Z M 13.816406 20.46875 C 14.753906 20.472656 16.339844 20.394531 17.332031 20.285156 C 19.128906 20.09375 19.132812 20.09375 18.691406 20.375 C 16.90625 21.523438 14.144531 21.648438 12.449219 20.65625 C 12.140625 20.476562 12.285156 20.457031 13.816406 20.46875 Z M 9.316406 16.535156 C 8.871094 14.21875 9.394531 12.046875 10.808594 10.304688 C 12.464844 8.269531 15.132812 7.25 17.542969 7.734375 C 20.902344 8.40625 23.019531 12.183594 22.089844 15.828125 L 21.910156 16.527344 L 21.199219 16.734375 C 18.179688 17.621094 13.886719 17.914062 10.980469 17.433594 C 9.398438 17.167969 9.441406 17.191406 9.316406 16.535156 Z M 9.316406 16.535156 "/>
</g>
</svg>
