
<svg xmlns="http://www.w3.org/2000/svg" xmlns:xlink="http://www.w3.org/1999/xlink" width="32px" height="32px" viewBox="0 0 32 32" version="1.1">
<g id="surface1">
<path style=" stroke:none;fill-rule:nonzero;fill:rgb(41.960784%,55.686275%,13.72549%);fill-opacity:1;" d="M 2.597656 25.308594 C -7.8125 10.425781 15.628906 -8.214844 27.878906 3.898438 C 39.433594 15.324219 24.496094 36.636719 10.136719 31.097656 C 7.128906 29.9375 4.5 28.027344 2.597656 25.308594 Z M 2.597656 25.308594 "/>
<path style=" stroke:none;fill-rule:evenodd;fill:rgb(0%,39.215686%,0%);fill-opacity:1;" d="M 19.167969 8.636719 L 19.167969 25.179688 L 20.792969 25.179688 L 20.792969 8.636719 Z M 19.167969 8.636719 "/>
<path style=" stroke:none;fill-rule:evenodd;fill:rgb(0%,39.215686%,0%);fill-opacity:1;" d="M 8.660156 20.191406 L 8.660156 21.691406 L 22.933594 21.691406 L 22.933594 20.191406 Z M 8.660156 20.191406 "/>
<path style=" stroke:none;fill-rule:evenodd;fill:rgb(0%,39.215686%,0%);fill-opacity:1;" d="M 12.59375 8.308594 C 11.355469 8.308594 10.199219 8.824219 9.332031 9.574219 C 8.460938 10.324219 7.84375 11.339844 7.84375 12.457031 C 7.84375 14.421875 9.136719 15.328125 10.132812 15.328125 L 10.132812 13.824219 C 10.144531 13.824219 9.46875 13.886719 9.46875 12.457031 C 9.46875 11.875 9.832031 11.191406 10.441406 10.671875 C 11.046875 10.148438 11.863281 9.8125 12.59375 9.8125 C 13.386719 9.8125 14.152344 10.0625 14.722656 10.597656 C 15.296875 11.132812 15.71875 11.972656 15.71875 13.304688 C 15.71875 14.597656 15.148438 16.394531 14.03125 17.789062 C 12.917969 19.183594 11.332031 20.191406 9.148438 20.191406 L 9.148438 21.691406 C 11.886719 21.691406 13.996094 20.363281 15.339844 18.683594 C 16.683594 17.003906 17.347656 14.980469 17.347656 13.304688 C 17.347656 11.667969 16.785156 10.386719 15.878906 9.542969 C 14.972656 8.699219 13.769531 8.3125 12.59375 8.3125 Z M 12.59375 8.308594 "/>
<path style=" stroke:none;fill-rule:evenodd;fill:rgb(100%,100%,100%);fill-opacity:1;" d="M 18.628906 8.09375 L 18.628906 24.636719 L 20.253906 24.636719 L 20.253906 8.09375 Z M 18.628906 8.09375 "/>
<path style=" stroke:none;fill-rule:evenodd;fill:rgb(100%,100%,100%);fill-opacity:1;" d="M 8.117188 19.644531 L 8.117188 21.148438 L 22.394531 21.148438 L 22.394531 19.644531 Z M 8.117188 19.644531 "/>
<path style=" stroke:none;fill-rule:evenodd;fill:rgb(100%,100%,100%);fill-opacity:1;" d="M 12.050781 7.769531 C 10.816406 7.769531 9.660156 8.28125 8.789062 9.03125 C 7.917969 9.78125 7.300781 10.796875 7.300781 11.914062 C 7.300781 13.878906 8.589844 14.785156 9.589844 14.785156 L 9.589844 13.285156 C 9.605469 13.285156 8.925781 13.339844 8.925781 11.914062 C 8.925781 11.332031 9.292969 10.652344 9.898438 10.128906 C 10.503906 9.605469 11.320312 9.269531 12.050781 9.269531 C 12.847656 9.269531 13.609375 9.519531 14.179688 10.054688 C 14.753906 10.589844 15.175781 11.429688 15.175781 12.761719 C 15.175781 14.054688 14.605469 15.851562 13.488281 17.246094 C 12.371094 18.644531 10.789062 19.644531 8.605469 19.644531 L 8.605469 21.148438 C 11.34375 21.148438 13.453125 19.820312 14.796875 18.140625 C 16.144531 16.460938 16.800781 14.4375 16.800781 12.761719 C 16.800781 11.121094 16.242188 9.84375 15.335938 9 C 14.433594 8.152344 13.226562 7.769531 12.050781 7.769531 Z M 12.050781 7.769531 "/>
</g>
</svg>
