
<svg xmlns="http://www.w3.org/2000/svg" xmlns:xlink="http://www.w3.org/1999/xlink" width="32px" height="32px" viewBox="0 0 32 32" version="1.1">
<g id="surface1">
<path style=" stroke:none;fill-rule:nonzero;fill:rgb(94.509804%,77.647059%,54.901961%);fill-opacity:1;" d="M 5.828125 4.824219 C -19.183594 37.980469 49.652344 42.691406 27.5625 8.847656 C 22.523438 1.128906 12.453125 -3.957031 5.828125 4.824219 Z M 5.828125 4.824219 "/>
<path style="fill-rule:nonzero;fill:rgb(79.215686%,5.882353%,3.529412%);fill-opacity:1;stroke-width:1;stroke-linecap:butt;stroke-linejoin:miter;stroke:rgb(79.215686%,5.882353%,3.529412%);stroke-opacity:1;stroke-miterlimit:4;" d="M 81.153863 141.522616 C 81.153863 139.787299 79.914536 137.698492 77.501111 135.416872 C 74.239725 132.331864 73.848358 131.496342 74.011428 127.318727 C 74.174497 122.916165 73.913586 122.434132 69.739012 119.124176 C 66.771151 116.778285 65.140458 114.625207 64.716478 112.472129 C 64.031587 108.937224 58.552458 103.538461 54.638795 102.542261 C 48.866142 101.096164 52.975488 100.132099 64.944775 100.132099 C 73.587447 100.132099 78.153388 99.746473 78.968734 98.943086 C 79.718853 98.171834 80.501586 98.075427 81.121249 98.686002 C 81.708299 99.296576 86.306853 99.392983 92.862239 98.975221 C 101.080931 98.461053 190.116768 98.461053 198.139778 98.975221 C 215.131599 100.099963 226.97043 99.071628 231.145004 96.147298 C 232.514786 95.183233 234.634687 94.090626 235.808786 93.737136 C 238.776647 92.805206 243.146904 88.241966 243.146904 86.056752 C 243.146904 83.228829 245.332033 79.147621 246.799657 79.147621 C 247.549775 79.147621 248.169439 78.697724 248.169439 78.151421 C 248.169439 76.608917 248.136825 76.608917 241.092231 80.208092 C 238.385281 81.557783 236.167538 79.822466 236.167538 76.416104 C 236.167538 74.455839 235.743558 74.005942 234.275934 74.391568 C 233.232291 74.680787 231.764667 74.52011 231.014549 74.070213 C 230.166588 73.52391 228.959875 73.909535 227.655321 75.098549 C 226.54645 76.094749 223.872113 77.926472 221.719598 79.147621 C 218.001618 81.204293 217.67548 81.236428 216.501381 79.597518 C 215.783876 78.633453 215.066371 77.412304 214.903302 76.898136 C 214.740232 76.351833 212.816015 77.090949 210.696114 78.537047 C 206.130174 81.622054 204.597322 81.429241 204.858233 77.765795 C 205.053916 74.648652 203.553679 74.391568 200.683659 77.123085 C 199.542174 78.183556 197.487501 79.211892 196.117719 79.37257 C 193.899976 79.629653 193.671679 79.308299 193.93259 76.255427 C 194.063045 74.391568 193.50861 71.820728 192.693263 70.535309 C 191.845303 69.249889 191.160412 67.482437 191.160412 66.614778 C 191.160412 65.74712 190.703818 65.297223 190.116768 65.650713 C 189.562333 66.004204 189.236194 67.03254 189.36665 67.964469 C 189.529719 68.896398 189.007897 69.635515 188.159937 69.635515 C 186.105264 69.635515 185.713897 65.74712 187.605501 64.172481 C 189.236194 62.82279 189.725402 60.155544 188.323006 60.155544 C 186.07265 60.155544 183.170016 64.975868 183.170016 68.767856 C 183.170016 75.548446 176.745086 79.693924 167.48275 78.922673 C 164.286591 78.633453 160.438156 78.794131 158.905305 79.211892 C 155.937443 80.047415 154.371978 78.826266 155.937443 76.833865 C 156.459265 76.191156 157.17677 74.391568 157.535522 72.849064 C 157.926889 71.30656 159.198829 69.699786 160.438156 69.217753 C 161.644869 68.735721 164.156136 65.843526 166.015126 62.790654 L 169.34174 57.231214 L 167.254453 54.274748 C 164.319205 50.12927 164.61273 48.651037 169.146057 44.505558 C 171.363799 42.545293 173.157561 40.295808 173.157561 39.588827 C 173.157561 38.849711 173.875066 37.821375 174.75564 37.339343 C 176.125423 36.568091 176.158036 36.150329 175.016551 34.286471 C 174.038136 32.743967 172.668353 32.133393 170.026631 32.133393 C 165.558532 32.133393 163.76477 34.061522 164.61273 37.949917 C 165.069324 40.006589 164.61273 41.934718 163.145106 44.409152 C 161.807938 46.690772 161.449186 48.20114 162.101463 48.618901 C 163.732156 49.615102 163.34079 53.117871 161.481799 53.824851 C 160.405542 54.242613 159.03576 53.535632 157.470295 51.736044 L 155.122097 49.004527 L 157.372453 45.855249 C 158.807463 43.830713 159.622809 41.227738 159.622809 38.560492 C 159.655423 31.779902 164.61273 28.148591 173.711997 28.148591 C 178.571462 28.148591 179.158511 28.37354 181.017501 31.394276 C 182.093759 33.161728 184.409343 35.957516 186.07265 37.564291 C 189.692788 41.034925 189.855857 42.35248 187.148907 46.144468 C 186.040036 47.686972 185.420373 49.679373 185.746511 50.547031 C 186.594472 52.732245 187.801184 52.539432 188.453462 50.12927 C 189.236194 47.044262 191.747461 47.751243 194.095659 51.76818 C 196.346016 55.560168 197.520115 55.592304 197.617956 51.864586 C 197.683184 48.136869 199.574788 48.908121 201.042411 53.278548 C 202.444807 57.520433 201.857758 59.89846 197.911481 65.361494 C 196.900451 66.839727 197.06352 67.482437 198.922511 69.346295 L 201.140253 71.59578 L 201.140253 68.767856 C 201.140253 67.096811 202.444807 64.301023 204.23857 62.051538 C 206.749837 58.837989 207.239045 57.424027 206.978134 53.921258 C 206.684609 50.193541 206.912906 49.615102 208.80451 49.325882 C 210.533045 49.100934 211.283163 49.904321 212.685559 53.567767 L 214.414094 58.098872 L 211.283163 61.633777 C 207.663025 65.74712 207.434728 67.193217 209.978609 69.474837 C 212.228965 71.531509 213.305223 70.631715 212.52249 67.450301 C 212.065896 65.650713 212.718173 64.011803 215.033757 61.151744 C 217.773321 57.745382 218.034232 56.941994 217.023203 54.756781 C 215.620807 51.671773 216.501381 49.133069 218.94742 49.133069 C 220.056292 49.133069 221.426074 50.514895 222.469717 52.667974 C 224.654846 57.263349 224.622232 57.681111 221.654371 61.53737 C 220.284589 63.369093 219.143104 65.74712 219.143104 66.839727 C 219.143104 69.02494 222.698014 74.134484 224.230866 74.134484 C 225.470192 74.134484 225.404965 69.410566 224.165638 68.639314 C 222.567559 67.67525 222.991539 64.4617 225.11144 60.958931 C 226.579064 58.516634 226.937816 56.717046 226.481222 53.439225 C 225.731103 48.008327 227.427024 47.815514 231.601598 52.796516 C 234.015024 55.720846 234.308548 56.620639 233.330133 58.002466 C 232.677855 58.90226 231.829895 60.316221 231.438529 61.151744 C 231.079776 61.955132 230.166588 63.240551 229.449083 63.947532 C 227.361796 66.10061 227.851004 69.153482 230.26443 69.153482 C 231.992964 69.153482 232.286489 68.67145 231.895123 66.614778 C 231.634212 65.232952 231.96035 63.754719 232.612628 63.369093 C 234.895598 61.955132 237.145954 57.648975 237.178568 54.660374 C 237.178568 50.932657 238.026528 49.615102 240.929162 48.683172 C 242.722924 48.136869 243.962251 48.747443 246.669201 51.47896 C 251.952646 56.749181 251.104686 59.737782 242.983835 64.076074 C 238.939716 66.261288 238.744033 68.735721 242.396786 71.467238 C 245.658172 73.909535 247.027954 73.041877 248.038983 67.996604 C 248.43035 66.068475 249.637062 64.204616 250.843775 63.626177 C 251.98526 63.047738 253.648567 61.955132 254.561755 61.216015 C 256.29029 59.802053 256.322904 59.89846 256.649042 65.136545 C 256.779498 67.064675 257.203478 69.66765 257.627458 70.888799 C 258.279735 72.784793 257.464389 74.070213 252.670151 78.665589 C 248.85433 82.329035 247.158409 84.674926 247.549775 85.735397 C 248.560805 88.338373 246.310449 91.06989 239.820291 95.279639 C 236.428449 97.464853 232.058192 100.935486 230.10136 102.960023 C 226.12247 107.04123 218.882193 109.483528 207.141203 110.672541 C 190.116768 112.439993 185.289917 113.050568 180.658749 114.078904 C 177.919185 114.689478 172.961878 115.46073 169.667878 115.749949 C 157.470295 116.842556 138.684712 119.67048 134.183999 121.052306 C 132.259781 121.630745 129.911583 121.887829 128.965781 121.566474 C 125.99792 120.634544 105.744713 126.451069 98.928416 130.178786 C 97.950001 130.72509 96.319308 131.142851 95.275664 131.142851 C 94.036338 131.142851 92.373031 132.781761 90.742338 135.577549 C 88.491981 139.433809 83.534675 144.125591 81.740912 144.125591 C 81.414774 144.125591 81.153863 142.968713 81.153863 141.522616 Z M 251.169914 75.130684 C 251.169914 74.584381 250.941617 74.134484 250.71332 74.134484 C 250.485023 74.134484 249.995815 74.584381 249.669676 75.130684 C 249.310924 75.676988 249.506607 76.126885 250.093656 76.126885 C 250.680706 76.126885 251.169914 75.676988 251.169914 75.130684 Z M 176.582017 74.52011 C 178.375779 73.845264 178.63669 70.888799 177.103838 68.060875 C 176.255878 66.454101 176.61463 65.393629 179.093284 62.372893 C 182.713422 58.034601 182.77865 57.295485 180.169541 52.153806 C 178.245323 48.426088 178.245323 48.136869 179.90863 45.244674 C 181.571937 42.35248 181.571937 42.127531 179.90863 40.456486 C 178.245323 38.78544 178.147482 38.817575 178.147482 40.874247 C 178.147482 42.095396 177.364749 43.509358 176.35372 44.023526 C 175.375304 44.537693 173.972908 46.112333 173.255403 47.462023 C 172.113918 49.615102 172.146532 50.289947 173.548928 52.282348 C 175.929739 55.720846 175.505759 58.966531 172.146532 62.790654 C 170.515839 64.686649 169.146057 66.968269 169.17867 67.932333 C 169.17867 71.30656 170.385383 74.038077 172.016076 74.455839 C 174.625185 75.16282 174.91871 75.16282 176.582017 74.52011 Z M 244.614528 55.495897 C 243.27736 53.374954 241.581439 53.728445 241.940192 56.042201 C 242.103261 57.038401 241.548825 58.420227 240.700865 59.095072 C 239.852905 59.802053 239.168013 61.119609 239.168013 61.987267 C 239.168013 63.144145 240.081202 62.662112 242.396786 60.348357 C 244.940667 57.809653 245.397261 56.781317 244.614528 55.495897 Z M 39.734261 80.272363 C 39.440736 79.822466 39.864716 78.569182 40.647449 77.540846 C 42.571667 75.002142 42.506439 72.913335 40.419152 69.31416 C 38.788459 66.454101 38.788459 66.10061 40.419152 62.694248 C 42.865192 57.552569 42.571667 56.588504 39.538578 59.834189 C 35.983667 63.658313 34.90741 66.775456 36.244578 69.31416 C 38.560162 73.652452 34.711727 78.665589 28.547707 79.340434 C 25.742915 79.629653 25.710301 79.597518 25.677687 73.8774 C 25.677687 70.728122 25.905984 68.125146 26.232123 68.125146 C 26.525648 68.125146 28.058499 69.474837 29.623964 71.113747 C 33.178875 74.841465 33.244103 74.070213 32.46137 68.767856 C 31.939549 65.265087 33.244103 62.597841 35.396618 60.284086 C 38.070954 57.391891 38.853687 55.238813 36.994697 52.250212 C 36.375033 51.254012 36.17935 49.550831 36.570717 48.522495 C 37.255608 46.755043 37.679588 26.798901 38.592776 28.405675 C 39.375509 29.819637 39.571192 34.639961 41.104043 33.675896 C 42.571667 32.743967 41.821548 43.155867 43.060875 44.152068 C 43.908835 44.891184 46.159191 50.964792 46.159191 51.639638 C 46.159191 52.314483 46.876696 53.503496 47.757271 54.242613 C 48.637845 54.981729 49.77933 56.492097 50.301152 57.61684 C 50.920815 58.998666 51.018656 58.002466 50.659904 54.499697 C 50.170696 49.936457 50.431607 48.972392 52.845033 46.112333 C 55.030161 43.509358 55.584597 41.838312 55.617211 37.564291 C 55.649825 34.672097 55.910735 32.101257 56.171646 31.908444 C 60.835428 28.309269 66.608081 26.670359 64.162042 29.626824 C 63.444537 30.462347 63.183626 32.326206 63.509765 33.868709 C 65.368755 42.802377 65.401369 42.609564 62.727032 45.469623 C 59.726557 48.715308 59.596102 49.904321 61.78123 54.499697 C 63.346695 57.777517 63.346695 58.066737 61.292022 60.958931 C 58.748141 64.525971 58.617686 66.38983 60.770201 69.66765 C 63.053171 73.138284 65.140458 72.849064 65.140458 69.02494 C 65.140458 67.064675 66.314557 64.4617 68.336616 61.922996 C 70.065151 59.705647 71.761071 56.267149 72.08721 54.306884 C 72.837329 49.807915 76.620536 47.333482 79.197031 49.679373 C 81.056021 51.350418 83.143308 51.607502 83.143308 50.12927 C 83.143308 47.751243 85.817645 49.518695 87.415724 52.989329 C 89.503011 57.552569 89.568239 58.773718 87.839704 59.834189 C 87.122199 60.284086 85.785031 61.730183 84.904457 63.047738 C 83.436833 65.168681 83.404219 65.74712 84.741387 68.285824 C 86.893902 72.463438 89.796536 71.917135 88.165843 67.643114 C 87.448338 65.811391 87.872318 64.686649 90.285744 61.987267 C 92.829625 59.159343 93.220991 57.97033 92.96008 54.178342 C 92.699169 50.547031 92.992694 49.615102 94.427704 49.325882 C 95.40612 49.133069 97.036813 50.000728 98.047842 51.254012 L 99.874218 53.535632 L 101.048317 51.318283 C 102.613783 48.393953 104.733684 48.586766 107.668931 51.896722 C 110.799861 55.431626 110.767248 58.645176 107.603703 62.82279 C 104.929367 66.293423 104.961981 68.896398 107.701545 71.178018 C 108.940871 72.206354 109.169168 71.756457 109.169168 68.253688 C 109.169168 65.425765 109.85406 63.336958 111.419525 61.53737 C 113.050218 59.673511 113.669881 57.681111 113.669881 54.306884 C 113.669881 48.458224 115.789782 47.751243 118.888099 52.603703 C 121.790732 57.102672 121.758118 57.713246 118.170594 61.794454 C 114.680911 65.779255 114.550455 66.38983 116.898653 68.767856 C 118.56196 70.438902 118.659802 70.374631 118.953326 67.353895 C 119.14901 65.490036 120.486178 62.983467 122.149485 61.280286 C 123.747564 59.705647 125.345643 57.102672 125.704395 55.528033 C 126.943722 49.872186 127.237247 49.358018 129.389761 48.779579 C 130.694316 48.458224 132.292395 48.875985 133.368652 49.84005 C 134.999345 51.318283 135.29287 51.318283 137.021405 49.743644 C 138.815167 48.136869 139.01085 48.233275 141.032909 52.12167 C 143.707246 57.263349 143.674632 57.584704 140.641543 61.53737 C 137.836751 65.265087 137.608454 66.839727 139.5979 69.474837 C 140.576315 70.728122 141.685187 71.113747 143.087583 70.663851 C 144.522592 70.213954 145.370553 70.503173 145.794533 71.692186 C 146.512038 73.52391 141.326434 79.147621 138.913009 79.147621 C 138.16289 79.147621 136.988791 79.693924 136.3039 80.36877 C 134.673207 82.00768 133.172969 79.790331 133.923088 76.898136 C 134.44491 74.970007 134.379682 74.937871 131.803187 76.641053 C 130.335563 77.572982 129.161464 78.022879 129.161464 77.572982 C 129.161464 77.15522 128.052593 77.830066 126.715425 79.08335 C 124.008475 81.622054 122.084257 81.172157 122.86699 78.151421 C 123.551881 75.548446 122.540851 75.644852 117.648772 78.665589 C 112.789307 81.65419 111.158614 81.782732 111.158614 79.147621 C 111.158614 76.608917 110.147584 76.641053 105.744713 79.211892 C 101.244001 81.879138 99.841605 81.01148 100.656951 76.126885 C 101.080931 73.588181 100.787406 71.370831 99.776377 69.378431 C 98.439209 66.807591 98.439209 66.132746 99.743763 63.658313 C 101.733208 59.802053 100.722179 59.287885 97.460793 62.53357 C 94.949526 65.072274 94.851684 65.4579 96.058397 68.446501 C 98.53705 74.455839 98.53705 76.608917 95.993169 77.862201 C 91.459843 80.111686 89.144259 80.36877 89.144259 78.697724 C 89.144259 77.830066 88.720278 77.15522 88.165843 77.15522 C 87.611407 77.15522 87.154813 77.476575 87.154813 77.894337 C 87.154813 79.115486 81.316932 81.36497 80.110219 80.625854 C 79.52317 80.240228 79.262259 79.308299 79.555784 78.537047 C 79.914536 77.637253 79.392714 77.15522 78.120774 77.15522 C 77.044517 77.15522 76.163942 77.476575 76.163942 77.926472 C 76.163942 79.019079 70.065151 81.204293 68.923666 80.497312 C 68.401844 80.175957 68.271388 78.858402 68.597527 77.540846 C 69.315032 74.648652 68.79321 74.552245 65.303527 76.994543 C 60.183151 80.561583 53.040716 80.400905 56.073805 76.769594 C 56.856537 75.773394 56.367329 74.263026 54.084359 70.824528 L 51.018656 66.197017 L 53.595151 62.82279 C 56.269488 59.287885 56.856537 56.68491 55.160617 55.624439 C 54.606181 55.303084 54.149587 55.720846 54.149587 56.556368 C 54.149587 57.391891 52.714577 60.123408 50.953429 62.629977 C 48.474775 66.132746 48.018181 67.418166 48.963983 68.350095 C 50.855587 70.246089 50.366379 73.8774 47.92034 76.191156 C 44.822023 79.08335 40.386538 81.332835 39.734261 80.272363 Z M 76.65315 68.125146 C 76.294398 66.486236 76.490081 65.040139 77.174972 64.622378 C 77.794635 64.236752 79.131804 62.565706 80.142833 60.89466 C 81.610457 58.484498 81.773526 57.391891 80.925566 55.495897 C 79.653625 52.76438 77.142358 52.346619 77.142358 54.885323 C 77.142358 55.849388 75.80519 58.677311 74.141883 61.151744 C 70.586972 66.518372 70.554358 66.871862 73.293923 69.796192 C 75.968259 72.624116 77.468497 71.852864 76.65315 68.125146 Z M 130.955227 67.932333 C 130.922613 64.622378 131.444435 63.272687 133.531722 61.505235 C 136.336514 59.062937 136.890949 56.267149 134.966732 54.339019 C 132.944672 52.314483 131.15091 52.989329 131.15091 55.752981 C 131.15091 57.166943 129.813742 60.059137 128.150435 62.147944 C 124.628138 66.582643 124.628138 66.550507 126.911108 69.66765 C 129.585445 73.363232 131.053068 72.720522 130.955227 67.932333 Z M 104.146634 58.131008 C 104.146634 57.584704 103.69004 57.134807 103.168218 57.134807 C 102.613783 57.134807 102.157189 57.584704 102.157189 58.131008 C 102.157189 58.677311 102.613783 59.127208 103.168218 59.127208 C 103.69004 59.127208 104.146634 58.677311 104.146634 58.131008 Z M 53.138557 50.12927 C 53.138557 49.582966 52.681963 49.133069 52.094914 49.133069 C 51.507864 49.133069 51.312181 49.582966 51.63832 50.12927 C 51.997072 50.675573 52.48628 51.12547 52.714577 51.12547 C 52.942874 51.12547 53.138557 50.675573 53.138557 50.12927 Z M 117.648772 40.488621 C 115.822396 36.086058 115.789782 35.154129 117.485703 35.154129 C 119.605604 35.154129 123.29097 39.653098 122.606079 41.420551 C 121.399366 44.569829 119.181623 44.184203 117.648772 40.488621 Z M 211.381005 42.898783 C 210.826569 42.191802 210.076451 40.167266 209.685084 38.399814 C 208.869738 34.57569 210.369975 34.125793 213.892272 37.082259 C 216.403539 39.171066 216.762292 41.131331 214.96853 42.930919 C 213.435678 44.473422 212.652945 44.441287 211.381005 42.898783 Z M 211.381005 42.898783 " transform="matrix(0.119773,0,0,0.121556,-1.079392,9.238537)"/>
</g>
</svg>
