
<svg xmlns="http://www.w3.org/2000/svg" xmlns:xlink="http://www.w3.org/1999/xlink" width="32px" height="32px" viewBox="0 0 32 32" version="1.1">
<g id="surface1">
<path style=" stroke:none;fill-rule:nonzero;fill:rgb(66.27451%,66.27451%,66.27451%);fill-opacity:1;" d="M 16.089844 0.265625 C 37.308594 -2.136719 37.011719 32.273438 15.710938 31.867188 C -4.097656 33 -5.886719 -1.609375 16.089844 0.265625 Z M 16.089844 0.265625 "/>
<path style=" stroke:none;fill-rule:nonzero;fill:rgb(0%,0%,0%);fill-opacity:1;" d="M 14.277344 28.054688 C 14.277344 28.019531 14.175781 27.945312 14.050781 27.886719 C 13.925781 27.832031 13.707031 27.691406 13.570312 27.578125 L 13.320312 27.375 L 13.277344 25.160156 L 13.238281 22.945312 L 12.234375 22.417969 C 11.066406 21.804688 10.613281 21.550781 9.699219 21.007812 C 8.941406 20.558594 8.84375 20.382812 9.015625 19.808594 C 9.074219 19.621094 9.167969 19.257812 9.226562 19.003906 C 9.285156 18.746094 9.394531 18.347656 9.464844 18.117188 C 9.707031 17.359375 9.941406 16.433594 9.941406 16.246094 C 9.941406 16.148438 10.015625 15.902344 10.105469 15.699219 C 10.230469 15.425781 10.269531 15.144531 10.273438 14.589844 L 10.273438 13.851562 L 9.855469 13.589844 C 9.289062 13.238281 9.238281 13.117188 9.441406 12.644531 C 9.621094 12.238281 9.898438 11.96875 10.324219 11.789062 C 10.582031 11.679688 10.683594 11.519531 11.074219 10.5625 C 11.519531 9.472656 14.597656 6.996094 15.84375 6.722656 C 15.992188 6.691406 16.113281 6.628906 16.113281 6.589844 C 16.113281 6.460938 19.507812 6.488281 19.558594 6.617188 C 19.582031 6.675781 19.96875 7.222656 20.421875 7.828125 C 20.875 8.433594 21.378906 9.152344 21.535156 9.417969 C 22.199219 10.511719 22.453125 10.878906 22.835938 11.308594 C 23.261719 11.785156 23.332031 12 23.425781 13.113281 C 23.46875 13.566406 23.441406 13.648438 23.007812 14.539062 C 22.753906 15.058594 22.5625 15.511719 22.582031 15.546875 C 22.683594 15.714844 22.871094 17 22.871094 17.527344 C 22.871094 18.253906 22.628906 19.179688 22.269531 19.828125 C 21.964844 20.371094 20.695312 21.753906 20.421875 21.835938 C 20.324219 21.867188 20.09375 21.957031 19.910156 22.039062 C 19.597656 22.175781 19.363281 22.265625 18.804688 22.457031 C 18.46875 22.574219 17.363281 22.871094 17.074219 22.925781 C 16.683594 22.996094 16.082031 23.175781 15.960938 23.253906 C 15.871094 23.3125 15.863281 23.707031 15.910156 25.324219 L 15.972656 27.316406 L 15.730469 27.613281 C 15.597656 27.777344 15.433594 27.953125 15.363281 28.011719 C 15.230469 28.121094 14.277344 28.160156 14.277344 28.054688 Z M 15.074219 27.339844 C 15.320312 27.042969 15.316406 27.277344 15.144531 24.292969 C 15.070312 22.976562 15.195312 22.632812 15.746094 22.632812 C 15.90625 22.632812 16.183594 22.558594 16.363281 22.464844 C 16.542969 22.371094 16.855469 22.292969 17.050781 22.292969 C 17.25 22.292969 17.546875 22.21875 17.722656 22.125 C 17.894531 22.035156 18.152344 21.957031 18.304688 21.957031 C 18.453125 21.957031 18.6875 21.878906 18.824219 21.789062 C 18.964844 21.695312 19.144531 21.621094 19.230469 21.621094 C 19.675781 21.617188 20.640625 20.875 21.183594 20.113281 C 21.972656 19.011719 21.972656 19.015625 21.941406 16.824219 C 21.914062 14.941406 21.917969 14.902344 22.101562 14.664062 C 22.203125 14.53125 22.289062 14.371094 22.289062 14.308594 C 22.289062 14.246094 22.363281 14.070312 22.457031 13.917969 C 22.589844 13.699219 22.621094 13.496094 22.621094 12.90625 L 22.621094 12.171875 L 22.246094 11.742188 C 22.035156 11.503906 21.761719 11.15625 21.636719 10.96875 C 21.175781 10.277344 20.703125 9.503906 20.621094 9.308594 C 20.574219 9.199219 20.355469 8.898438 20.132812 8.636719 C 19.914062 8.371094 19.667969 8.050781 19.585938 7.917969 C 19.503906 7.785156 19.304688 7.527344 19.144531 7.347656 C 18.910156 7.082031 18.789062 7.019531 18.558594 7.019531 C 18.285156 7.019531 18.273438 7.027344 18.324219 7.261719 C 18.355469 7.402344 18.339844 7.53125 18.289062 7.5625 C 18.113281 7.671875 18.207031 7.769531 18.511719 7.792969 C 18.800781 7.816406 18.824219 7.839844 18.824219 8.074219 L 18.824219 8.324219 L 18.246094 8.351562 C 17.808594 8.371094 17.589844 8.335938 17.332031 8.210938 C 16.441406 7.78125 16.472656 7.785156 15.800781 8.023438 L 15.191406 8.242188 L 14.882812 7.832031 L 14.539062 8.105469 C 14.347656 8.257812 14.195312 8.417969 14.195312 8.457031 C 14.195312 8.5 14.363281 8.511719 14.574219 8.480469 C 14.871094 8.441406 14.984375 8.460938 15.113281 8.582031 C 15.367188 8.808594 15.324219 9.160156 15.007812 9.460938 C 14.859375 9.601562 14.707031 9.71875 14.671875 9.71875 C 14.636719 9.71875 14.496094 9.800781 14.363281 9.898438 C 13.980469 10.1875 13.394531 9.902344 13.285156 9.371094 L 13.234375 9.105469 L 12.566406 9.796875 C 12.199219 10.175781 11.882812 10.570312 11.859375 10.671875 C 11.835938 10.773438 11.75 10.960938 11.664062 11.085938 C 11.46875 11.378906 11.542969 11.488281 11.917969 11.488281 C 12.089844 11.488281 12.375 11.582031 12.582031 11.707031 C 13.058594 11.988281 13.058594 12.207031 12.59375 12.542969 C 12.382812 12.691406 12.292969 12.804688 12.355469 12.824219 C 12.417969 12.847656 12.699219 12.628906 12.976562 12.339844 C 13.5625 11.738281 13.667969 11.660156 13.917969 11.660156 C 14.097656 11.660156 14.195312 11.804688 14.195312 12.082031 C 14.195312 12.292969 13.050781 13.339844 12.554688 13.589844 C 12.332031 13.699219 12.019531 13.855469 11.859375 13.9375 C 11.699219 14.015625 11.464844 14.105469 11.339844 14.136719 C 11.089844 14.199219 10.972656 14.476562 11.058594 14.816406 C 11.085938 14.925781 11.050781 15.152344 10.984375 15.320312 C 10.914062 15.484375 10.855469 15.746094 10.855469 15.898438 C 10.855469 16.050781 10.78125 16.339844 10.691406 16.542969 C 10.597656 16.746094 10.527344 17.050781 10.527344 17.222656 C 10.527344 17.390625 10.464844 17.613281 10.394531 17.714844 C 10.324219 17.816406 10.246094 18.101562 10.21875 18.347656 C 10.191406 18.589844 10.105469 18.90625 10.023438 19.042969 C 9.945312 19.183594 9.855469 19.492188 9.832031 19.730469 C 9.777344 20.214844 9.832031 20.289062 10.484375 20.699219 C 10.667969 20.8125 10.890625 20.953125 10.984375 21.011719 C 11.074219 21.066406 11.300781 21.191406 11.484375 21.28125 C 11.667969 21.371094 11.875 21.480469 11.941406 21.519531 C 12.011719 21.558594 12.144531 21.636719 12.234375 21.691406 C 12.328125 21.742188 12.707031 21.9375 13.078125 22.121094 C 14.054688 22.605469 14.046875 22.582031 14.019531 25.015625 L 14 26.96875 L 14.371094 27.289062 C 14.574219 27.464844 14.761719 27.613281 14.792969 27.613281 C 14.824219 27.613281 14.949219 27.488281 15.074219 27.339844 Z M 20.269531 14.253906 C 20.148438 14.148438 19.953125 14 19.839844 13.917969 C 19.722656 13.839844 19.605469 13.652344 19.578125 13.496094 C 19.546875 13.347656 19.464844 13.097656 19.398438 12.941406 C 19.257812 12.628906 19.308594 12.214844 19.515625 11.976562 C 19.621094 11.851562 19.792969 11.828125 20.550781 11.828125 L 21.457031 11.828125 L 21.832031 12.175781 C 22.183594 12.507812 22.207031 12.550781 22.207031 12.984375 C 22.207031 13.46875 22.097656 13.769531 21.929688 13.769531 C 21.875 13.769531 21.613281 13.921875 21.347656 14.105469 C 20.800781 14.488281 20.589844 14.519531 20.269531 14.253906 Z M 21.121094 13.347656 C 21.316406 13.152344 21.335938 12.855469 21.171875 12.628906 C 21.089844 12.515625 20.949219 12.472656 20.652344 12.464844 L 20.246094 12.460938 L 20.25 12.820312 C 20.261719 13.4375 20.742188 13.730469 21.121094 13.347656 Z M 18.414062 9.921875 C 18.25 9.753906 18.246094 9.527344 18.410156 9.210938 C 18.574219 8.886719 18.769531 8.789062 19.257812 8.792969 C 19.832031 8.792969 19.910156 8.867188 19.910156 9.421875 C 19.910156 9.75 19.871094 9.917969 19.785156 9.972656 C 19.570312 10.109375 18.5625 10.074219 18.414062 9.921875 Z M 10.914062 13.1875 C 10.9375 13.101562 11.160156 12.851562 11.410156 12.636719 C 11.65625 12.417969 11.859375 12.207031 11.859375 12.160156 C 11.859375 12.117188 11.660156 12.082031 11.414062 12.082031 C 11.074219 12.082031 10.933594 12.121094 10.816406 12.25 C 10.734375 12.34375 10.601562 12.417969 10.519531 12.417969 C 10.121094 12.417969 10.097656 12.957031 10.480469 13.1875 C 10.808594 13.378906 10.863281 13.378906 10.914062 13.1875 Z M 17.496094 7.363281 C 17.472656 7.324219 17.375 7.269531 17.277344 7.246094 C 17.136719 7.207031 17.121094 7.222656 17.203125 7.320312 C 17.308594 7.449219 17.574219 7.488281 17.496094 7.363281 Z M 16.988281 7.101562 C 16.960938 7.054688 16.855469 7.019531 16.753906 7.019531 C 16.605469 7.019531 16.597656 7.035156 16.699219 7.101562 C 16.863281 7.207031 17.058594 7.207031 16.988281 7.101562 Z M 16.988281 7.101562 "/>
<path style=" stroke:none;fill-rule:evenodd;fill:rgb(100%,100%,100%);fill-opacity:1;" d="M 14.378906 27.179688 C 14.128906 26.910156 14.105469 26.761719 14.097656 25.082031 C 14.089844 22.566406 14.09375 22.574219 12.472656 21.71875 C 10.761719 20.816406 9.988281 20.316406 9.910156 20.074219 C 9.875 19.964844 10.011719 19.316406 10.210938 18.632812 C 10.691406 16.988281 11.101562 15.195312 11.101562 14.726562 C 11.101562 14.382812 11.179688 14.3125 12.011719 13.917969 C 13.207031 13.347656 14.261719 12.40625 14.207031 11.957031 C 14.15625 11.515625 13.84375 11.488281 13.371094 11.886719 C 13.117188 12.101562 12.980469 12.15625 12.980469 12.042969 C 12.980469 11.832031 12.34375 11.441406 11.996094 11.441406 C 11.855469 11.441406 11.714844 11.394531 11.675781 11.335938 C 11.582031 11.183594 12.238281 10.207031 12.761719 9.707031 C 13.1875 9.308594 13.207031 9.300781 13.289062 9.550781 C 13.488281 10.175781 14.285156 10.183594 14.960938 9.566406 C 15.578125 9.003906 15.441406 8.4375 14.6875 8.4375 C 14.324219 8.4375 14.324219 8.433594 14.546875 8.183594 C 14.746094 7.964844 14.796875 7.957031 14.980469 8.121094 C 15.160156 8.285156 15.257812 8.28125 15.824219 8.101562 C 16.441406 7.902344 16.488281 7.90625 17.09375 8.167969 C 17.4375 8.316406 17.980469 8.4375 18.292969 8.4375 C 18.816406 8.4375 18.863281 8.410156 18.863281 8.132812 C 18.863281 7.9375 18.773438 7.800781 18.613281 7.75 C 18.457031 7.699219 18.363281 7.558594 18.363281 7.363281 C 18.363281 7.035156 18.5625 6.980469 18.871094 7.222656 C 19.160156 7.445312 20.488281 9.246094 21.113281 10.253906 C 21.410156 10.734375 21.878906 11.394531 22.148438 11.722656 C 22.628906 12.300781 22.636719 12.324219 22.550781 13.035156 C 22.503906 13.433594 22.332031 14.023438 22.167969 14.347656 C 21.894531 14.894531 21.871094 15.089844 21.871094 16.847656 C 21.871094 18.519531 21.839844 18.816406 21.609375 19.289062 C 21.183594 20.171875 20.308594 21.039062 19.449219 21.4375 C 18.722656 21.773438 18.269531 21.914062 16.332031 22.410156 C 15.078125 22.730469 15.171875 22.527344 15.171875 24.929688 C 15.167969 26.542969 15.128906 27.105469 15 27.261719 C 14.773438 27.535156 14.703125 27.523438 14.378906 27.179688 Z M 21.484375 14.113281 C 22.191406 13.699219 22.242188 13.632812 22.246094 13 C 22.246094 12.601562 22.167969 12.417969 21.886719 12.148438 C 21.550781 11.824219 21.480469 11.808594 20.480469 11.84375 C 19.492188 11.878906 19.425781 11.898438 19.324219 12.191406 C 19.0625 12.941406 19.933594 14.449219 20.625 14.449219 C 20.78125 14.449219 21.167969 14.296875 21.484375 14.113281 Z M 19.917969 9.867188 C 20.160156 9.230469 19.84375 8.6875 19.226562 8.6875 C 18.769531 8.6875 18.238281 9.179688 18.238281 9.601562 C 18.238281 10.023438 18.316406 10.066406 19.121094 10.066406 C 19.660156 10.066406 19.859375 10.015625 19.917969 9.867188 Z M 19.917969 9.867188 "/>
<path style=" stroke:none;fill-rule:evenodd;fill:rgb(100%,100%,100%);fill-opacity:1;" d="M 20.519531 13.292969 C 20.433594 13.214844 20.367188 13.015625 20.367188 12.855469 C 20.367188 12.640625 20.4375 12.570312 20.65625 12.570312 C 20.933594 12.570312 21.246094 12.777344 21.246094 12.960938 C 21.246094 13.078125 20.878906 13.445312 20.761719 13.445312 C 20.707031 13.445312 20.601562 13.378906 20.519531 13.292969 Z M 20.519531 13.292969 "/>
<path style=" stroke:none;fill-rule:evenodd;fill:rgb(100%,100%,100%);fill-opacity:1;" d="M 10.417969 12.949219 C 10.207031 12.714844 10.214844 12.699219 10.621094 12.449219 C 11.039062 12.195312 11.605469 12.105469 11.605469 12.292969 C 11.605469 12.40625 10.816406 13.195312 10.707031 13.195312 C 10.671875 13.195312 10.542969 13.085938 10.417969 12.949219 Z M 10.417969 12.949219 "/>
</g>
</svg>
