
<svg xmlns="http://www.w3.org/2000/svg" xmlns:xlink="http://www.w3.org/1999/xlink" width="32px" height="32px" viewBox="0 0 32 32" version="1.1">
<g id="surface1">
<path style=" stroke:none;fill-rule:nonzero;fill:rgb(10.196078%,56.470588%,95.294118%);fill-opacity:1;" d="M 29.007812 25.632812 C 38.390625 13.992188 23.890625 -2.679688 10.472656 0.363281 C -3.972656 3.75 -2.78125 24.695312 9.796875 29.867188 C 16.058594 33.46875 25.640625 32.796875 29.007812 25.628906 Z M 29.007812 25.632812 "/>
<path style=" stroke:none;fill-rule:nonzero;fill:rgb(100%,100%,100%);fill-opacity:1;" d="M 21.492188 24.792969 C 20.539062 24.570312 19.535156 24.171875 18.011719 23.414062 L 17.0625 22.941406 L 16.242188 22.988281 C 11.65625 23.246094 7.179688 21.101562 5.683594 17.925781 C 5.144531 16.785156 5.039062 15.324219 5.410156 14.105469 C 6.355469 10.972656 10.09375 8.632812 14.628906 8.324219 C 20.769531 7.910156 26.070312 11.285156 26.070312 15.609375 C 26.070312 17.605469 25.261719 19.0625 23.28125 20.652344 L 22.28125 21.453125 L 22.339844 21.964844 C 22.390625 22.421875 22.492188 22.726562 22.957031 23.777344 C 23.054688 23.988281 23.0625 24.109375 22.992188 24.285156 C 22.789062 24.796875 22.265625 24.976562 21.492188 24.792969 Z M 11.488281 18.605469 C 11.675781 18.5 12.101562 18.226562 12.433594 17.996094 C 12.769531 17.765625 13.085938 17.578125 13.144531 17.578125 C 13.203125 17.578125 13.558594 17.789062 13.9375 18.042969 C 14.316406 18.300781 14.679688 18.511719 14.742188 18.511719 C 14.894531 18.511719 15.105469 18.242188 15.171875 17.960938 C 15.21875 17.757812 15.183594 17.714844 14.722656 17.417969 C 14.449219 17.238281 14.152344 17.023438 14.0625 16.941406 C 13.902344 16.792969 13.90625 16.785156 14.273438 16.378906 C 14.742188 15.859375 15.277344 14.976562 15.351562 14.605469 C 15.398438 14.347656 15.472656 14.257812 15.84375 14.003906 C 15.996094 13.898438 16.023438 13.476562 15.886719 13.265625 C 15.808594 13.140625 15.699219 13.128906 14.777344 13.128906 L 13.753906 13.128906 L 13.628906 12.875 C 13.503906 12.625 13.492188 12.617188 13.058594 12.640625 C 12.621094 12.660156 12.546875 12.707031 12.4375 13.003906 C 12.394531 13.113281 12.265625 13.128906 11.378906 13.128906 C 10.703125 13.128906 10.332031 13.15625 10.261719 13.214844 C 10.113281 13.339844 10.136719 13.886719 10.296875 14.019531 C 10.410156 14.117188 10.71875 14.132812 12.347656 14.132812 L 14.265625 14.132812 L 14.265625 14.339844 C 14.265625 14.582031 13.664062 15.625 13.417969 15.8125 C 13.324219 15.882812 13.21875 15.925781 13.179688 15.902344 C 13.136719 15.882812 12.960938 15.613281 12.78125 15.304688 C 12.605469 14.996094 12.429688 14.695312 12.390625 14.636719 C 12.292969 14.476562 11.398438 14.445312 11.328125 14.597656 C 11.261719 14.742188 11.699219 15.6875 12.082031 16.230469 C 12.25 16.464844 12.382812 16.679688 12.382812 16.707031 C 12.382812 16.78125 11.632812 17.371094 11.1875 17.648438 C 10.976562 17.777344 10.734375 17.949219 10.652344 18.023438 C 10.515625 18.15625 10.515625 18.175781 10.671875 18.4375 C 10.820312 18.675781 10.929688 18.769531 11.101562 18.792969 C 11.128906 18.792969 11.300781 18.710938 11.488281 18.605469 Z M 17.019531 18.386719 C 17.089844 18.316406 17.214844 18.050781 17.296875 17.792969 C 17.382812 17.535156 17.488281 17.285156 17.535156 17.238281 C 17.59375 17.175781 17.882812 17.148438 18.414062 17.148438 C 18.945312 17.148438 19.234375 17.175781 19.292969 17.238281 C 19.339844 17.285156 19.460938 17.558594 19.5625 17.84375 C 19.769531 18.433594 19.875 18.511719 20.488281 18.511719 C 21.320312 18.511719 21.324219 18.625 20.339844 15.957031 C 19.863281 14.660156 19.414062 13.523438 19.347656 13.433594 C 19.234375 13.285156 19.15625 13.273438 18.476562 13.273438 C 18.066406 13.273438 17.683594 13.296875 17.628906 13.328125 C 17.488281 13.402344 17.460938 13.464844 16.527344 16.039062 C 15.742188 18.195312 15.707031 18.324219 15.855469 18.414062 C 16.089844 18.558594 16.863281 18.539062 17.019531 18.386719 Z M 17.773438 16.164062 C 17.773438 15.902344 18.316406 14.34375 18.398438 14.367188 C 18.507812 14.398438 19.070312 16.070312 19.015625 16.195312 C 18.988281 16.257812 18.777344 16.285156 18.375 16.285156 C 17.867188 16.285156 17.773438 16.265625 17.773438 16.164062 Z M 17.773438 16.164062 "/>
</g>
</svg>
