
<svg xmlns="http://www.w3.org/2000/svg" xmlns:xlink="http://www.w3.org/1999/xlink" width="32px" height="32px" viewBox="0 0 32 32" version="1.1">
<defs>
<linearGradient id="linear0" gradientUnits="userSpaceOnUse" x1="0" y1="46.999998" x2="0" y2="0.999998" gradientTransform="matrix(0.420196,0,0,0.423106,6.120451,5.974559)">
<stop offset="0" style="stop-color:rgb(22.352941%,38.823529%,45.882353%);stop-opacity:1;"/>
<stop offset="1" style="stop-color:rgb(25.098039%,43.137255%,50.980392%);stop-opacity:1;"/>
</linearGradient>
</defs>
<g id="surface1">
<path style=" stroke:none;fill-rule:nonzero;fill:rgb(29.411765%,64.705882%,50.196078%);fill-opacity:1;" d="M 3.296875 24.480469 C -8.207031 8.113281 13.039062 -8.46875 26.597656 4.867188 C 39.367188 17.429688 27.527344 36.949219 11.636719 30.847656 C 8.316406 29.574219 5.410156 27.484375 3.296875 24.480469 Z M 3.296875 24.480469 "/>
<path style=" stroke:none;fill-rule:nonzero;fill:rgb(0%,0%,0%);fill-opacity:0.0509804;" d="M 21.378906 8.089844 C 23.839844 9.808594 25.449219 12.671875 25.449219 15.917969 C 25.449219 21.175781 21.214844 25.4375 15.996094 25.4375 C 12.769531 25.4375 9.925781 23.816406 8.222656 21.339844 C 8.65625 22.109375 9.191406 22.816406 9.808594 23.441406 C 11.527344 25.011719 13.808594 25.964844 16.308594 25.964844 C 21.644531 25.964844 25.972656 21.609375 25.972656 16.234375 C 25.972656 13.714844 25.027344 11.417969 23.464844 9.691406 C 22.847656 9.066406 22.144531 8.527344 21.378906 8.089844 Z M 23.464844 9.691406 C 25.085938 11.429688 26.078125 13.769531 26.078125 16.339844 C 26.078125 21.714844 21.753906 26.074219 16.414062 26.074219 C 13.859375 26.074219 11.535156 25.074219 9.808594 23.441406 C 11.558594 25.195312 13.960938 26.285156 16.625 26.285156 C 21.964844 26.285156 26.289062 21.925781 26.289062 16.550781 C 26.289062 13.871094 25.207031 11.449219 23.464844 9.691406 Z M 23.464844 9.691406 "/>
<path style=" stroke:none;fill-rule:nonzero;fill:rgb(0%,0%,0%);fill-opacity:0.101961;" d="M 23.464844 9.691406 C 25.027344 11.417969 25.972656 13.714844 25.972656 16.234375 C 25.972656 21.609375 21.648438 25.964844 16.308594 25.964844 C 13.808594 25.964844 11.527344 25.011719 9.808594 23.441406 C 11.539062 25.070312 13.859375 26.074219 16.414062 26.074219 C 21.753906 26.074219 26.078125 21.714844 26.078125 16.339844 C 26.078125 13.769531 25.085938 11.429688 23.464844 9.691406 Z M 23.464844 9.691406 "/>
<path style=" stroke:none;fill-rule:nonzero;fill:rgb(0%,0%,0%);fill-opacity:0.2;" d="M 19.253906 6.980469 C 22.871094 8.316406 25.449219 11.808594 25.449219 15.917969 C 25.449219 21.175781 21.21875 25.441406 15.996094 25.441406 C 11.917969 25.441406 8.441406 22.84375 7.121094 19.199219 C 8.585938 23.746094 13.113281 26.542969 17.800781 25.808594 C 22.492188 25.070312 25.957031 21.015625 25.976562 16.238281 C 25.972656 12.007812 23.253906 8.269531 19.253906 6.980469 Z M 19.253906 6.980469 "/>
<path style=" stroke:none;fill-rule:nonzero;fill:url(#linear0);" d="M 16.207031 6.398438 C 15.253906 6.398438 14.332031 6.539062 13.460938 6.800781 C 14.105469 7.246094 12.933594 7.652344 12.113281 7.3125 C 8.824219 8.863281 6.542969 12.226562 6.542969 16.128906 C 6.542969 19.304688 8.050781 22.125 10.386719 23.902344 C 12.84375 25.015625 19.566406 25.015625 22.863281 23.183594 C 23.855469 22.230469 24.648438 21.066406 25.167969 19.769531 C 25.167969 19.765625 25.167969 19.765625 25.167969 19.765625 C 25.269531 19.089844 25.449219 18.246094 25.6875 18.011719 C 25.804688 17.402344 25.871094 16.773438 25.871094 16.128906 C 25.871094 16.082031 25.867188 16.03125 25.867188 15.980469 C 25.867188 15.980469 25.867188 15.980469 25.863281 15.980469 C 25.449219 15.707031 25.632812 15.480469 25.800781 14.988281 C 25.722656 14.320312 25.578125 13.675781 25.375 13.054688 C 24.605469 12.742188 22.089844 9.785156 20.710938 7.519531 C 19.363281 6.804688 17.832031 6.398438 16.203125 6.398438 Z M 16.207031 6.398438 "/>
<path style=" stroke:none;fill-rule:nonzero;fill:rgb(0%,0%,0%);fill-opacity:0.0980392;" d="M 13.261719 7.203125 L 12.910156 7.308594 L 12.503906 7.339844 L 12.253906 7.519531 L 11.925781 7.507812 L 11.953125 7.71875 L 12.425781 7.707031 L 12.597656 8.167969 L 12.660156 8.421875 L 12.398438 8.570312 L 12.292969 8.765625 L 12.371094 9.214844 L 12.6875 9.269531 L 12.988281 8.976562 L 13.253906 8.699219 L 13.660156 8.59375 L 14.171875 8.34375 L 14.472656 7.972656 L 14.90625 7.441406 L 15.210938 7.363281 L 15.199219 7.246094 L 14.722656 7.246094 L 13.265625 7.207031 Z M 17.453125 7.40625 C 17.429688 7.417969 16.808594 7.417969 16.808594 7.417969 L 16.652344 7.457031 L 16.863281 7.710938 L 17.085938 7.5 L 17.230469 7.59375 L 17.441406 7.488281 C 17.441406 7.488281 17.476562 7.398438 17.453125 7.410156 Z M 19.972656 7.601562 L 19.816406 7.605469 L 19.621094 7.628906 L 19.449219 7.738281 L 19.253906 7.886719 L 19.132812 8.097656 L 19.316406 8.28125 L 19.472656 8.292969 L 19.542969 8.1875 L 19.382812 8.054688 L 19.472656 7.972656 L 19.488281 7.910156 L 19.683594 7.777344 C 19.683594 7.777344 19.941406 7.78125 19.957031 7.777344 C 19.980469 7.773438 20.039062 7.699219 20.039062 7.699219 Z M 21.277344 7.847656 L 21.167969 7.921875 L 20.90625 8.082031 L 20.683594 8.265625 L 20.707031 8.347656 L 20.589844 8.359375 L 18.875 8.648438 L 18.882812 8.644531 L 18.371094 8.917969 L 18.238281 8.824219 L 18.175781 8.71875 L 18.203125 8.613281 L 18.492188 8.628906 L 18.625 8.574219 L 18.363281 8.441406 L 17.996094 8.308594 L 17.625 8.242188 L 17.230469 8.324219 L 16.824219 8.652344 L 16.640625 8.839844 L 16.367188 9.144531 L 16.257812 9.15625 L 16.222656 9.300781 L 16.269531 9.445312 C 16.269531 9.445312 16.328125 9.511719 16.335938 9.511719 C 16.347656 9.511719 16.441406 9.460938 16.441406 9.460938 C 16.441406 9.460938 16.453125 9.410156 16.507812 9.394531 C 16.5625 9.378906 16.613281 9.367188 16.613281 9.367188 L 16.691406 9.527344 L 16.785156 9.660156 L 16.828125 9.761719 C 16.828125 9.761719 16.980469 9.667969 16.984375 9.660156 C 16.988281 9.644531 16.996094 9.484375 16.996094 9.484375 L 17.113281 9.40625 C 17.113281 9.40625 17.144531 9.347656 17.140625 9.339844 C 17.136719 9.332031 17.058594 9.246094 17.058594 9.246094 L 16.996094 9.21875 L 17.023438 9.085938 C 17.023438 9.085938 17.074219 9.066406 17.074219 9.046875 C 17.074219 9.027344 17.15625 8.964844 17.15625 8.964844 L 17.25 8.847656 L 17.316406 8.769531 L 17.40625 8.703125 L 17.511719 8.785156 L 17.511719 8.835938 L 17.417969 8.941406 L 17.390625 9.050781 L 17.390625 9.191406 L 17.472656 9.261719 L 17.617188 9.246094 L 17.746094 9.222656 L 17.863281 9.285156 L 17.839844 9.378906 C 17.839844 9.378906 17.753906 9.457031 17.730469 9.472656 C 17.707031 9.484375 17.558594 9.445312 17.523438 9.457031 C 17.484375 9.472656 17.390625 9.589844 17.390625 9.589844 C 17.390625 9.589844 17.378906 9.699219 17.390625 9.722656 C 17.394531 9.734375 17.386719 9.753906 17.382812 9.777344 L 17.371094 9.785156 L 17.214844 9.902344 L 17.199219 9.902344 L 17.09375 9.863281 C 17.09375 9.863281 17.03125 9.867188 17.003906 9.894531 C 16.976562 9.914062 16.949219 9.933594 16.871094 9.941406 C 16.789062 9.953125 16.632812 9.941406 16.621094 9.941406 L 16.527344 9.941406 L 16.542969 9.847656 L 16.605469 9.742188 L 16.488281 9.648438 C 16.488281 9.648438 16.410156 9.746094 16.410156 9.765625 C 16.402344 9.789062 16.460938 9.886719 16.460938 9.886719 C 16.460938 9.886719 16.433594 9.960938 16.421875 9.980469 C 16.410156 9.996094 16.289062 10.03125 16.289062 10.03125 L 16.105469 9.9375 C 16.105469 9.9375 16.03125 9.921875 16.042969 9.964844 C 16.050781 10.007812 16.136719 10.046875 16.136719 10.082031 C 16.136719 10.117188 16.082031 10.199219 16.082031 10.199219 L 16.019531 10.277344 L 15.910156 10.386719 L 15.769531 10.425781 C 15.769531 10.425781 15.664062 10.457031 15.636719 10.464844 C 15.605469 10.472656 15.527344 10.492188 15.527344 10.492188 L 15.421875 10.503906 L 15.359375 10.601562 L 15.476562 10.683594 L 15.554688 10.8125 C 15.554688 10.8125 15.605469 10.90625 15.621094 10.90625 C 15.632812 10.90625 15.660156 11 15.660156 11 L 15.582031 11.105469 L 15.539062 11.105469 L 15.261719 11.160156 L 15.214844 11.039062 L 15.027344 11.222656 L 14.949219 11.527344 L 14.949219 11.78125 L 15.265625 11.953125 L 15.515625 11.859375 L 15.765625 11.410156 L 15.988281 11.136719 L 16.394531 11.066406 L 16.488281 10.988281 L 16.949219 11.53125 L 17 11.714844 L 17.132812 11.652344 L 17.089844 11.492188 L 17.171875 11.492188 L 17.121094 11.382812 L 16.671875 10.960938 L 16.714844 10.878906 L 16.855469 10.867188 L 17.171875 11.183594 L 17.332031 11.371094 L 17.332031 11.664062 L 17.410156 11.714844 L 17.566406 11.875 L 17.683594 11.835938 L 17.621094 11.597656 L 17.660156 11.449219 L 17.738281 11.355469 L 17.988281 11.449219 L 17.976562 11.238281 L 18.082031 11.039062 L 18.144531 10.746094 L 18.382812 10.789062 L 18.421875 10.921875 L 18.515625 10.988281 L 18.621094 10.894531 L 18.554688 10.746094 L 18.832031 10.746094 L 18.738281 10.90625 L 18.921875 11.066406 L 19.082031 11.144531 L 19.171875 11.332031 L 18.960938 11.382812 L 18.660156 11.316406 L 18.394531 11.316406 L 18.148438 11.449219 L 18.09375 11.527344 L 17.910156 11.570312 L 17.992188 11.769531 L 18.136719 11.941406 L 18.394531 11.847656 L 18.464844 11.964844 L 18.582031 11.871094 L 18.738281 11.898438 L 18.75 12.070312 L 18.699219 12.402344 L 18.554688 12.386719 L 18.382812 12.359375 L 18.304688 12.558594 L 17.726562 12.449219 L 17.621094 12.316406 L 17.488281 12.4375 L 17.347656 12.636719 L 16.976562 12.425781 L 16.609375 12.199219 L 16.609375 11.800781 L 16.371094 11.816406 L 16.359375 11.949219 L 15.78125 11.921875 L 15.597656 12.089844 L 15.246094 12.105469 L 15.003906 12.316406 L 14.863281 12.726562 L 14.496094 13.019531 L 14.230469 13.375 L 14.226562 13.617188 L 12.734375 12.320312 L 11.582031 13.550781 L 14.175781 15.707031 L 12.550781 17.058594 L 12.582031 16.820312 L 12.347656 16.675781 L 12.152344 16.4375 L 11.796875 16.464844 L 11.230469 16.132812 L 11.113281 15.855469 C 11.113281 15.855469 10.914062 15.511719 10.875 15.511719 C 10.835938 15.511719 10.597656 15.527344 10.597656 15.527344 L 10.378906 15.300781 L 10.230469 15.027344 L 9.667969 14.90625 L 9.484375 14.8125 L 9.117188 14.8125 L 9.117188 14.816406 L 8.773438 15.003906 L 8.734375 15.382812 L 8.65625 15.808594 L 8.417969 16.125 L 8.429688 16.597656 L 8.628906 17.089844 L 8.839844 17.683594 L 9.390625 18.238281 L 9.417969 18.554688 L 9.457031 19.984375 L 9.652344 20.792969 C 9.652344 20.792969 9.773438 21.257812 9.746094 21.296875 C 9.714844 21.332031 9.902344 21.675781 9.902344 21.675781 L 10.269531 22.257812 L 10.785156 22.484375 L 10.574219 22.230469 L 10.464844 21.941406 L 10.574219 21.636719 L 10.296875 21.488281 C 10.296875 21.488281 10.480469 21.371094 10.507812 21.332031 C 10.535156 21.292969 10.46875 21.132812 10.46875 21.132812 L 10.390625 20.933594 L 10.597656 20.660156 L 10.925781 20.578125 L 10.980469 20.324219 L 10.785156 20.230469 L 10.863281 20.019531 L 11.175781 19.980469 L 11.453125 19.304688 L 11.652344 18.84375 L 12.054688 18.644531 C 12.054688 18.644531 12.089844 18.542969 12.121094 18.433594 L 12.734375 19.089844 L 16.558594 15.761719 L 16.558594 15.914062 L 16.503906 16.097656 L 16.457031 16.246094 L 16.582031 16.484375 L 16.757812 16.683594 L 16.835938 17.183594 L 16.847656 17.511719 L 16.730469 17.792969 L 16.71875 18.054688 L 16.808594 18.542969 L 16.886719 18.625 L 17.007812 19.085938 L 17.007812 19.089844 L 16.625 19.089844 L 16.625 20.78125 L 21.667969 20.78125 L 21.667969 19.089844 L 18.488281 19.089844 L 18.492188 19.074219 L 18.769531 18.800781 L 18.777344 18.480469 L 18.925781 18.160156 L 19.269531 17.832031 L 19.269531 17.464844 L 19.1875 17.121094 L 19.136719 16.644531 L 19.386719 16.246094 L 19.835938 15.691406 L 20.003906 15.519531 L 20.066406 15.292969 L 20.171875 15.097656 L 20.199219 14.800781 L 19.949219 14.800781 L 19.832031 14.921875 L 19.597656 14.855469 L 19.449219 14.617188 L 19.332031 14.378906 L 19.058594 14.167969 L 18.992188 13.824219 L 18.875 13.621094 L 18.746094 13.371094 L 18.574219 13.066406 L 18.535156 12.871094 L 18.714844 12.839844 L 18.824219 13.066406 L 19.035156 13.464844 L 19.191406 13.753906 L 19.363281 14.074219 L 19.546875 14.378906 L 19.796875 14.632812 L 20.019531 14.421875 L 20.273438 14.355469 L 20.457031 14.128906 L 20.707031 13.984375 L 20.847656 13.730469 L 20.863281 13.519531 L 20.746094 13.386719 L 20.589844 13.203125 L 20.480469 13.269531 L 20.417969 13.375 L 20.246094 13.292969 L 20.191406 13.164062 L 20.078125 12.988281 L 19.894531 12.816406 L 19.894531 12.472656 L 20.011719 12.699219 L 20.15625 12.925781 L 20.40625 13.070312 L 20.578125 13.03125 L 20.683594 13.148438 L 21.433594 13.136719 L 21.417969 13.148438 L 21.65625 13.363281 L 21.824219 13.597656 L 21.878906 13.714844 L 21.996094 13.714844 L 22.035156 13.585938 L 22.074219 13.785156 L 22.136719 14.140625 L 22.285156 14.484375 L 22.363281 14.777344 L 22.480469 15.050781 L 22.574219 15.167969 L 22.703125 15.089844 L 22.742188 14.957031 L 22.792969 14.628906 L 22.78125 14.339844 L 22.886719 14.203125 C 22.886719 14.203125 22.996094 14.050781 23.019531 14.042969 C 23.039062 14.039062 23.28125 13.769531 23.28125 13.769531 L 23.398438 13.621094 L 23.53125 13.542969 L 23.691406 13.449219 L 23.753906 13.449219 L 23.78125 13.597656 L 23.847656 13.769531 L 24.058594 14.042969 L 24.058594 14.148438 L 24.09375 14.269531 L 24.238281 14.203125 L 24.226562 14.042969 L 24.359375 14.070312 L 24.386719 14.214844 L 24.371094 14.441406 L 24.414062 14.597656 L 24.527344 14.628906 L 24.566406 14.496094 L 24.714844 14.585938 L 24.738281 14.722656 L 24.871094 14.917969 L 25.003906 15.066406 L 25.097656 15.144531 L 25.316406 14.949219 L 25.410156 14.761719 L 25.371094 14.550781 L 25.332031 14.269531 L 25.082031 14.035156 L 25.042969 13.792969 L 25.152344 13.625 C 25.152344 13.625 25.214844 13.488281 25.28125 13.558594 C 25.34375 13.628906 25.375 13.636719 25.347656 13.71875 C 25.316406 13.796875 25.269531 13.972656 25.269531 13.972656 L 25.425781 14.035156 L 25.488281 13.8125 L 25.425781 13.652344 L 25.542969 13.605469 C 24.898438 11.179688 23.347656 9.132812 21.28125 7.847656 M 18.886719 8.640625 L 18.886719 8.644531 L 20.605469 8.347656 L 20.589844 8.285156 L 20.460938 8.097656 L 20.183594 8.070312 C 20.183594 8.070312 20.25 8.351562 20.25 8.386719 C 20.25 8.425781 20.066406 8.398438 20.066406 8.398438 L 19.753906 8.414062 C 19.753906 8.414062 19.296875 8.519531 19.238281 8.519531 C 19.183594 8.519531 18.917969 8.628906 18.898438 8.636719 Z M 10.835938 8.035156 C 10.761719 8.085938 10.691406 8.136719 10.621094 8.191406 L 10.683594 8.332031 L 10.921875 8.308594 L 11.027344 8.503906 L 10.816406 8.730469 L 10.582031 8.753906 L 10.789062 8.851562 L 11.011719 9.046875 L 11.234375 9.097656 L 11.316406 8.796875 L 11.328125 8.609375 L 11.589844 8.652344 C 11.589844 8.652344 11.507812 8.785156 11.546875 8.785156 C 11.589844 8.785156 11.746094 8.613281 11.746094 8.613281 L 11.300781 8.144531 C 11.300781 8.144531 11.113281 8 11.0625 8.042969 C 11.007812 8.078125 10.863281 8.066406 10.863281 8.066406 Z M 10.550781 8.371094 L 10.367188 8.582031 L 10.246094 8.46875 C 10.070312 8.609375 9.898438 8.753906 9.730469 8.902344 C 9.886719 8.945312 10.070312 9.019531 10.105469 8.996094 C 10.160156 8.957031 10.367188 8.625 10.367188 8.625 Z M 14.371094 8.679688 L 14.316406 8.851562 C 14.507812 9 14.582031 8.996094 14.582031 8.996094 L 14.800781 8.945312 L 14.949219 8.800781 L 14.855469 8.679688 Z M 10.644531 9.007812 C 10.644531 9.007812 10.464844 9.113281 10.289062 9.179688 C 10.113281 9.246094 10.15625 9.378906 10.15625 9.378906 L 10.144531 9.734375 L 9.855469 9.972656 L 9.667969 10.25 C 9.667969 10.25 9.554688 10.167969 9.554688 10.117188 C 9.554688 10.066406 9.527344 9.917969 9.527344 9.917969 L 9.222656 9.679688 C 9.222656 9.679688 9.144531 9.621094 9.074219 9.558594 C 8.199219 10.523438 7.515625 11.664062 7.082031 12.921875 L 7.308594 12.761719 L 7.542969 12.683594 L 7.886719 12.683594 L 8.355469 12.578125 L 8.527344 12.800781 L 8.503906 13.066406 L 8.699219 13.238281 L 8.726562 13.050781 C 8.726562 13.050781 8.714844 12.746094 8.6875 12.667969 C 8.660156 12.589844 8.925781 12.402344 8.925781 12.402344 L 9.132812 12.144531 L 9.382812 11.835938 L 9.503906 11.597656 L 9.898438 11.386719 L 10.160156 11.097656 C 10.160156 11.097656 10.550781 11.035156 10.628906 10.988281 C 10.710938 10.949219 10.660156 10.804688 10.578125 10.671875 C 10.496094 10.539062 10.617188 10.40625 10.617188 10.40625 L 10.917969 10.222656 L 11.179688 10.277344 L 11.207031 10.59375 C 11.207031 10.59375 11.457031 10.832031 11.535156 10.792969 C 11.613281 10.753906 11.652344 10.621094 11.652344 10.621094 L 11.519531 10.277344 L 11.597656 9.933594 L 11.246094 9.980469 L 11.246094 9.402344 L 11.140625 9.507812 L 10.863281 9.519531 L 10.824219 9.230469 Z M 15.535156 9.433594 L 15.433594 9.527344 C 15.40625 9.65625 15.371094 9.789062 15.371094 9.789062 L 15.566406 9.882812 L 15.59375 10 L 15.488281 10.109375 L 15.394531 10.269531 L 15.460938 10.332031 L 15.699219 10.292969 L 15.90625 10.199219 L 15.792969 10.042969 L 15.753906 9.765625 L 15.605469 9.605469 Z M 15.214844 9.933594 L 15.097656 10.132812 L 15.253906 10.199219 L 15.316406 10.082031 Z M 8.722656 10.398438 L 8.726562 10.402344 L 9.003906 10.519531 L 9.183594 10.753906 L 9.300781 10.941406 C 9.300781 10.941406 9.199219 11.296875 9.167969 11.363281 C 9.144531 11.429688 9.0625 11.230469 9.0625 11.230469 L 9 10.886719 L 8.777344 10.980469 L 8.605469 11.390625 L 8.644531 11.046875 L 8.699219 10.808594 L 8.421875 10.703125 L 8.660156 10.476562 Z M 19.808594 10.714844 C 19.867188 10.699219 19.96875 10.78125 19.96875 10.78125 L 19.863281 10.875 L 19.902344 11.007812 L 20.019531 11.324219 L 20.136719 11.523438 L 20.292969 11.777344 L 20.121094 11.855469 L 19.898438 11.710938 L 19.808594 11.433594 C 19.808594 11.433594 19.683594 11.261719 19.621094 11.234375 C 19.566406 11.207031 19.519531 11.113281 19.519531 11.113281 L 19.570312 10.890625 C 19.570312 10.890625 19.75 10.738281 19.808594 10.71875 Z M 16.488281 11.21875 L 16.332031 11.523438 L 16.449219 11.644531 L 16.554688 11.550781 L 16.566406 11.417969 Z M 15.960938 11.535156 L 15.960938 11.617188 L 16.027344 11.605469 Z M 16.867188 11.734375 L 16.789062 11.761719 L 16.917969 11.988281 L 17.035156 11.894531 Z M 7.011719 13.125 C 6.898438 13.480469 6.804688 13.839844 6.730469 14.207031 L 6.917969 14.3125 L 7.125 14.285156 L 7.425781 14.429688 L 7.886719 14.683594 L 7.953125 14.988281 L 8.320312 15.347656 L 8.53125 15.1875 L 8.699219 15.320312 L 8.675781 15.011719 L 8.347656 15.09375 L 8.242188 14.710938 L 8.203125 14.535156 L 7.910156 14.273438 L 7.910156 14.089844 L 8.136719 13.847656 L 7.988281 13.679688 L 7.753906 13.71875 L 7.398438 14.074219 L 7.109375 14.035156 C 7.109375 14.035156 6.980469 13.8125 6.953125 13.761719 C 6.925781 13.707031 7.03125 13.519531 7.03125 13.519531 Z M 8.410156 13.503906 L 8.410156 13.507812 L 8.277344 13.574219 L 8.5 13.691406 L 8.753906 13.742188 L 8.898438 13.941406 L 9.066406 13.835938 L 9.042969 13.71875 L 8.753906 13.503906 Z M 24.429688 15.023438 C 24.476562 15.078125 24.769531 15.964844 24.808594 15.964844 C 24.847656 15.964844 25.074219 15.988281 25.074219 15.988281 L 24.953125 15.632812 Z M 22.917969 15.050781 L 22.789062 15.222656 L 22.855469 15.476562 L 22.996094 15.316406 L 22.972656 15.117188 Z M 24.390625 15.539062 L 24.207031 15.566406 L 25.046875 16.835938 L 25.269531 17.089844 L 25.820312 17.113281 L 25.824219 17.113281 C 25.824219 17.074219 25.828125 17.027344 25.832031 16.984375 L 25.792969 16.957031 L 25.269531 16.808594 L 25.136719 16.324219 L 24.847656 16.082031 L 24.386719 15.542969 Z M 25.855469 15.613281 L 25.703125 15.699219 C 25.703125 15.738281 25.402344 15.988281 25.402344 15.988281 L 25.480469 16.253906 L 25.648438 16.449219 L 25.769531 16.746094 L 25.855469 16.6875 C 25.863281 16.503906 25.871094 16.316406 25.871094 16.128906 C 25.871094 15.957031 25.867188 15.785156 25.855469 15.613281 M 19.976562 17.601562 L 19.976562 17.789062 C 19.96875 17.816406 19.808594 17.949219 19.808594 17.949219 L 19.609375 18.039062 L 19.464844 18.160156 L 19.570312 18.304688 L 19.636719 18.371094 L 19.464844 18.515625 L 19.464844 18.753906 L 19.53125 19.003906 L 19.675781 19.042969 L 19.847656 18.78125 L 19.953125 18.609375 L 19.925781 18.394531 L 20.082031 18.144531 L 20.136719 18.027344 L 20.136719 17.789062 L 20.097656 17.605469 Z M 11.371094 21.609375 L 11.375 21.609375 Z M 11.371094 21.609375 L 11.28125 21.671875 L 11.242188 21.683594 L 11.453125 21.792969 Z M 11.015625 21.6875 L 11.019531 21.6875 Z M 11.019531 21.6875 L 10.925781 21.898438 L 11.109375 21.859375 Z M 11.648438 23.433594 L 11.449219 23.738281 L 11.082031 23.910156 L 12.136719 24.332031 C 12.136719 24.332031 11.859375 23.773438 11.859375 23.695312 C 11.859375 23.621094 11.652344 23.433594 11.652344 23.433594 Z M 11.648438 23.433594 "/>
<path style=" stroke:none;fill-rule:nonzero;fill:rgb(29.411765%,64.705882%,50.196078%);fill-opacity:1;" d="M 13.460938 6.800781 C 12.964844 6.945312 12.488281 7.128906 12.027344 7.351562 L 12.175781 7.746094 L 12.242188 8 L 11.980469 8.144531 L 11.875 8.34375 L 11.953125 8.792969 L 12.269531 8.847656 L 12.570312 8.554688 L 12.832031 8.277344 L 13.238281 8.171875 L 13.753906 7.917969 L 14.054688 7.550781 L 14.488281 7.019531 L 14.789062 6.941406 L 14.777344 6.824219 L 14.304688 6.824219 Z M 17.03125 6.984375 C 17.011719 6.992188 16.386719 6.996094 16.386719 6.996094 L 16.230469 7.035156 L 16.441406 7.289062 L 16.664062 7.074219 L 16.808594 7.167969 L 17.019531 7.0625 C 17.019531 7.0625 17.058594 6.972656 17.03125 6.984375 Z M 19.554688 7.179688 L 19.394531 7.179688 L 19.199219 7.207031 L 19.027344 7.3125 L 18.832031 7.460938 L 18.714844 7.671875 L 18.898438 7.859375 L 19.054688 7.871094 L 19.121094 7.761719 L 18.964844 7.628906 L 19.054688 7.550781 L 19.066406 7.488281 L 19.265625 7.355469 C 19.265625 7.355469 19.519531 7.359375 19.539062 7.355469 C 19.558594 7.347656 19.621094 7.273438 19.621094 7.273438 Z M 20.710938 7.519531 L 20.484375 7.65625 L 20.261719 7.839844 L 20.289062 7.921875 L 20.171875 7.933594 L 20.171875 7.9375 L 18.457031 8.222656 L 18.464844 8.21875 L 17.949219 8.496094 L 17.820312 8.402344 L 17.753906 8.296875 L 17.78125 8.1875 L 18.074219 8.203125 L 18.203125 8.152344 L 17.941406 8.019531 L 17.574219 7.886719 L 17.207031 7.816406 L 16.8125 7.898438 L 16.402344 8.230469 L 16.222656 8.414062 L 15.949219 8.71875 L 15.839844 8.730469 L 15.800781 8.878906 L 15.851562 9.023438 C 15.851562 9.023438 15.910156 9.089844 15.917969 9.089844 C 15.925781 9.089844 16.023438 9.035156 16.023438 9.035156 C 16.023438 9.035156 16.035156 8.988281 16.089844 8.972656 C 16.144531 8.953125 16.191406 8.941406 16.191406 8.941406 L 16.273438 9.101562 L 16.367188 9.234375 L 16.40625 9.339844 C 16.40625 9.339844 16.558594 9.246094 16.566406 9.234375 C 16.570312 9.222656 16.578125 9.0625 16.578125 9.0625 L 16.691406 8.980469 C 16.691406 8.980469 16.722656 8.925781 16.722656 8.917969 C 16.714844 8.90625 16.640625 8.824219 16.640625 8.824219 L 16.578125 8.796875 L 16.605469 8.664062 C 16.605469 8.664062 16.652344 8.640625 16.652344 8.621094 C 16.652344 8.605469 16.734375 8.542969 16.734375 8.542969 L 16.828125 8.425781 L 16.894531 8.347656 L 16.988281 8.28125 L 17.089844 8.363281 L 17.089844 8.414062 L 17 8.519531 L 16.972656 8.625 L 16.972656 8.769531 L 17.050781 8.835938 L 17.195312 8.824219 L 17.328125 8.796875 L 17.445312 8.863281 L 17.417969 8.957031 C 17.417969 8.957031 17.335938 9.035156 17.308594 9.050781 C 17.285156 9.0625 17.136719 9.019531 17.101562 9.035156 C 17.0625 9.050781 16.96875 9.167969 16.96875 9.167969 C 16.96875 9.167969 16.957031 9.273438 16.96875 9.300781 C 16.972656 9.308594 16.96875 9.332031 16.964844 9.355469 L 16.949219 9.363281 L 16.792969 9.480469 L 16.78125 9.480469 L 16.675781 9.441406 C 16.675781 9.441406 16.609375 9.445312 16.582031 9.46875 C 16.554688 9.492188 16.53125 9.511719 16.449219 9.519531 C 16.371094 9.527344 16.214844 9.519531 16.199219 9.519531 L 16.105469 9.519531 L 16.121094 9.425781 L 16.1875 9.316406 L 16.066406 9.222656 C 16.066406 9.222656 15.988281 9.324219 15.988281 9.34375 C 15.984375 9.367188 16.042969 9.460938 16.042969 9.460938 C 16.042969 9.460938 16.011719 9.539062 16 9.554688 C 15.988281 9.570312 15.867188 9.605469 15.867188 9.605469 L 15.683594 9.511719 C 15.683594 9.511719 15.609375 9.496094 15.621094 9.542969 C 15.628906 9.582031 15.714844 9.625 15.714844 9.660156 C 15.714844 9.695312 15.660156 9.777344 15.660156 9.777344 L 15.597656 9.855469 L 15.492188 9.964844 L 15.347656 10.003906 C 15.347656 10.003906 15.246094 10.03125 15.214844 10.042969 C 15.1875 10.050781 15.109375 10.070312 15.109375 10.070312 L 15.003906 10.082031 L 14.9375 10.175781 L 15.054688 10.257812 L 15.132812 10.386719 C 15.132812 10.386719 15.1875 10.484375 15.199219 10.484375 C 15.214844 10.484375 15.238281 10.574219 15.238281 10.574219 L 15.160156 10.683594 L 15.121094 10.683594 L 14.84375 10.734375 L 14.792969 10.613281 L 14.605469 10.800781 L 14.527344 11.105469 L 14.527344 11.359375 L 14.84375 11.53125 L 15.097656 11.4375 L 15.34375 10.988281 L 15.566406 10.710938 L 15.976562 10.644531 L 16.066406 10.566406 L 16.527344 11.105469 L 16.582031 11.292969 L 16.714844 11.226562 L 16.671875 11.066406 L 16.753906 11.066406 L 16.699219 10.960938 L 16.253906 10.535156 L 16.292969 10.457031 L 16.4375 10.445312 L 16.753906 10.761719 L 16.910156 10.949219 L 16.910156 11.238281 L 16.992188 11.292969 L 17.148438 11.449219 L 17.265625 11.410156 L 17.199219 11.171875 L 17.238281 11.027344 L 17.320312 10.933594 L 17.503906 11 L 17.566406 11.027344 L 17.558594 10.816406 L 17.660156 10.617188 L 17.726562 10.324219 L 17.964844 10.367188 L 18.003906 10.496094 L 18.09375 10.566406 L 18.199219 10.472656 L 18.136719 10.324219 L 18.410156 10.324219 L 18.316406 10.484375 L 18.503906 10.644531 L 18.660156 10.722656 L 18.753906 10.910156 L 18.542969 10.957031 L 18.238281 10.894531 L 17.976562 10.894531 L 17.726562 11.027344 L 17.675781 11.105469 L 17.492188 11.144531 L 17.570312 11.34375 L 17.714844 11.515625 L 17.976562 11.425781 L 18.042969 11.542969 L 18.160156 11.449219 L 18.316406 11.472656 L 18.332031 11.648438 L 18.277344 11.976562 L 18.132812 11.964844 L 17.964844 11.9375 L 17.882812 12.136719 L 17.308594 12.027344 L 17.199219 11.894531 L 17.070312 12.011719 L 16.925781 12.210938 L 16.558594 12 L 16.191406 11.777344 L 16.191406 11.378906 L 15.949219 11.394531 L 15.9375 11.527344 L 15.363281 11.496094 L 15.179688 11.667969 L 14.824219 11.683594 L 14.585938 11.894531 L 14.441406 12.300781 L 14.074219 12.597656 L 13.8125 12.953125 L 13.800781 13.640625 L 15.703125 15.015625 L 15.769531 15.148438 L 15.988281 15.160156 L 16.136719 15.265625 L 16.136719 15.492188 L 16.082031 15.675781 L 16.035156 15.824219 L 16.160156 16.0625 L 16.335938 16.261719 L 16.414062 16.761719 L 16.425781 17.089844 L 16.308594 17.371094 L 16.296875 17.632812 L 16.386719 18.121094 L 16.464844 18.203125 L 16.585938 18.664062 L 16.597656 18.863281 L 18.042969 18.90625 L 18.070312 18.652344 L 18.347656 18.378906 L 18.355469 18.058594 L 18.503906 17.738281 L 18.847656 17.410156 L 18.847656 17.042969 L 18.765625 16.699219 L 18.714844 16.222656 L 18.964844 15.824219 L 19.414062 15.269531 L 19.582031 15.097656 L 19.644531 14.871094 L 19.75 14.675781 L 19.777344 14.378906 L 19.527344 14.378906 L 19.410156 14.5 L 19.175781 14.433594 L 19.027344 14.195312 L 18.910156 13.957031 L 18.636719 13.746094 L 18.570312 13.402344 L 18.453125 13.199219 L 18.324219 12.949219 L 18.152344 12.644531 L 18.113281 12.449219 L 18.292969 12.421875 L 18.402344 12.644531 L 18.613281 13.042969 L 18.769531 13.332031 L 18.941406 13.652344 L 19.125 13.957031 L 19.375 14.210938 L 19.597656 14 L 19.851562 13.933594 L 20.035156 13.707031 L 20.285156 13.5625 L 20.425781 13.3125 L 20.441406 13.097656 L 20.324219 12.964844 L 20.167969 12.78125 L 20.058594 12.847656 L 19.996094 12.953125 L 19.824219 12.875 L 19.769531 12.742188 L 19.65625 12.566406 L 19.472656 12.394531 L 19.472656 12.050781 L 19.589844 12.277344 L 19.734375 12.503906 L 19.984375 12.648438 L 20.15625 12.609375 L 20.261719 12.726562 L 21.011719 12.714844 L 20.996094 12.726562 L 21.234375 12.941406 L 21.402344 13.175781 L 21.457031 13.292969 L 21.574219 13.292969 L 21.613281 13.164062 L 21.652344 13.363281 L 21.714844 13.71875 L 21.863281 14.0625 L 21.941406 14.355469 L 22.058594 14.628906 L 22.152344 14.746094 L 22.28125 14.667969 L 22.320312 14.535156 L 22.371094 14.207031 L 22.359375 13.917969 L 22.464844 13.78125 C 22.464844 13.78125 22.574219 13.628906 22.597656 13.621094 C 22.617188 13.617188 22.859375 13.347656 22.859375 13.347656 L 22.976562 13.199219 L 23.109375 13.121094 L 23.269531 13.027344 L 23.332031 13.027344 L 23.359375 13.175781 L 23.425781 13.347656 L 23.636719 13.621094 L 23.636719 13.726562 L 23.671875 13.847656 L 23.816406 13.78125 L 23.804688 13.621094 L 23.9375 13.648438 L 23.964844 13.792969 L 23.949219 14.019531 L 23.992188 14.175781 L 24.105469 14.207031 L 24.144531 14.074219 L 24.292969 14.164062 L 24.316406 14.300781 L 24.449219 14.496094 L 24.582031 14.644531 L 24.675781 14.722656 L 24.894531 14.527344 L 24.988281 14.339844 L 24.949219 14.128906 L 24.910156 13.847656 L 24.660156 13.613281 L 24.621094 13.371094 L 24.730469 13.203125 C 24.730469 13.203125 24.792969 13.066406 24.859375 13.136719 C 24.921875 13.207031 24.953125 13.214844 24.925781 13.296875 C 24.894531 13.375 24.847656 13.550781 24.847656 13.550781 L 25.003906 13.613281 L 25.066406 13.390625 L 25.003906 13.230469 L 25.160156 13.164062 L 25.378906 13.054688 C 24.585938 10.660156 22.898438 8.683594 20.714844 7.519531 Z M 18.460938 8.21875 L 18.460938 8.222656 L 20.179688 7.925781 L 20.167969 7.863281 L 20.035156 7.675781 L 19.761719 7.652344 C 19.761719 7.652344 19.824219 7.933594 19.824219 7.964844 C 19.824219 8.003906 19.644531 7.980469 19.644531 7.980469 L 19.328125 7.992188 C 19.328125 7.992188 18.871094 8.097656 18.8125 8.097656 C 18.757812 8.097656 18.492188 8.207031 18.472656 8.214844 Z M 11.042969 7.902344 C 10.796875 8.058594 10.554688 8.230469 10.320312 8.410156 L 10.363281 8.429688 L 10.589844 8.625 L 10.808594 8.675781 L 10.890625 8.375 L 10.902344 8.1875 L 11.167969 8.230469 C 11.167969 8.230469 11.085938 8.363281 11.125 8.363281 C 11.167969 8.363281 11.324219 8.191406 11.324219 8.191406 Z M 13.949219 8.257812 L 13.894531 8.429688 C 14.082031 8.578125 14.15625 8.574219 14.15625 8.574219 L 14.378906 8.523438 L 14.527344 8.378906 L 14.433594 8.257812 Z M 10.21875 8.585938 C 10.21875 8.585938 10.082031 8.664062 9.933594 8.726562 C 9.863281 8.785156 9.800781 8.839844 9.734375 8.902344 C 9.730469 8.925781 9.734375 8.957031 9.734375 8.957031 L 9.722656 9.3125 L 9.433594 9.550781 L 9.246094 9.828125 C 9.246094 9.828125 9.132812 9.75 9.132812 9.695312 C 9.132812 9.652344 9.113281 9.554688 9.105469 9.523438 C 8.929688 9.714844 8.761719 9.917969 8.601562 10.121094 L 8.761719 10.332031 L 8.878906 10.519531 C 8.878906 10.519531 8.777344 10.875 8.746094 10.941406 C 8.71875 11.007812 8.636719 10.808594 8.636719 10.808594 L 8.574219 10.464844 L 8.355469 10.558594 L 8.183594 10.96875 L 8.21875 10.644531 C 7.875 11.152344 7.578125 11.691406 7.332031 12.261719 L 7.464844 12.261719 L 7.933594 12.15625 L 8.105469 12.378906 L 8.078125 12.644531 L 8.277344 12.816406 L 8.304688 12.628906 C 8.304688 12.628906 8.292969 12.324219 8.261719 12.246094 C 8.238281 12.167969 8.5 11.984375 8.5 11.984375 L 8.710938 11.722656 L 8.960938 11.417969 L 9.078125 11.175781 L 9.472656 10.96875 L 9.734375 10.675781 C 9.734375 10.675781 10.128906 10.613281 10.207031 10.566406 C 10.289062 10.53125 10.234375 10.386719 10.15625 10.25 C 10.074219 10.117188 10.195312 9.988281 10.195312 9.988281 L 10.496094 9.800781 L 10.757812 9.855469 L 10.785156 10.171875 C 10.785156 10.171875 11.03125 10.410156 11.113281 10.371094 C 11.191406 10.332031 11.230469 10.199219 11.230469 10.199219 L 11.097656 9.855469 L 11.175781 9.511719 L 10.824219 9.5625 L 10.824219 8.980469 L 10.714844 9.089844 L 10.441406 9.101562 L 10.402344 8.808594 Z M 15.113281 9.011719 L 15.011719 9.105469 C 14.980469 9.234375 14.945312 9.367188 14.945312 9.367188 L 15.144531 9.464844 L 15.171875 9.582031 L 15.0625 9.6875 L 14.972656 9.847656 L 15.035156 9.910156 L 15.273438 9.871094 L 15.484375 9.777344 L 15.367188 9.621094 L 15.328125 9.34375 L 15.183594 9.183594 Z M 14.792969 9.511719 L 14.671875 9.714844 L 14.832031 9.777344 L 14.894531 9.660156 Z M 19.386719 10.296875 C 19.441406 10.277344 19.542969 10.363281 19.542969 10.363281 L 19.4375 10.453125 L 19.480469 10.585938 L 19.597656 10.902344 L 19.710938 11.101562 L 19.871094 11.355469 L 19.699219 11.433594 L 19.476562 11.289062 L 19.382812 11.011719 C 19.382812 11.011719 19.257812 10.839844 19.199219 10.8125 C 19.144531 10.785156 19.09375 10.695312 19.09375 10.695312 L 19.144531 10.46875 C 19.144531 10.46875 19.324219 10.316406 19.382812 10.296875 Z M 16.066406 10.800781 L 15.910156 11.101562 L 16.023438 11.222656 L 16.128906 11.128906 L 16.144531 10.996094 L 16.066406 10.796875 Z M 15.539062 11.113281 L 15.539062 11.195312 L 15.605469 11.183594 L 15.539062 11.117188 Z M 16.441406 11.316406 L 16.363281 11.339844 L 16.496094 11.566406 L 16.613281 11.472656 L 16.441406 11.3125 Z M 7.984375 13.085938 L 7.855469 13.152344 L 8.074219 13.269531 L 8.328125 13.324219 L 8.472656 13.519531 L 8.644531 13.414062 L 8.613281 13.296875 L 8.324219 13.085938 Z M 7.566406 13.257812 L 7.328125 13.296875 L 6.972656 13.652344 L 6.859375 13.636719 C 6.835938 13.726562 6.8125 13.816406 6.792969 13.910156 L 7.003906 14.007812 L 7.464844 14.261719 L 7.527344 14.566406 L 7.894531 14.925781 L 8.105469 14.765625 L 8.277344 14.898438 L 8.25 14.589844 L 7.921875 14.671875 L 7.816406 14.289062 L 7.777344 14.117188 L 7.488281 13.855469 L 7.488281 13.667969 L 7.710938 13.429688 L 7.566406 13.261719 Z M 8.691406 14.394531 L 8.351562 14.582031 L 8.3125 14.964844 L 8.230469 15.386719 L 7.996094 15.703125 L 8.007812 16.175781 L 8.207031 16.667969 L 8.417969 17.261719 L 8.96875 17.816406 L 8.996094 18.136719 L 9.03125 19.566406 L 9.230469 20.371094 C 9.230469 20.371094 9.351562 20.839844 9.320312 20.875 C 9.292969 20.910156 9.480469 21.257812 9.480469 21.257812 L 9.847656 21.839844 L 10.359375 22.0625 L 10.152344 21.808594 L 10.042969 21.519531 L 10.152344 21.214844 L 9.875 21.066406 C 9.875 21.066406 10.058594 20.949219 10.085938 20.910156 C 10.113281 20.871094 10.042969 20.710938 10.042969 20.710938 L 9.964844 20.511719 L 10.175781 20.238281 L 10.503906 20.15625 L 10.554688 19.902344 L 10.359375 19.808594 L 10.441406 19.597656 L 10.753906 19.5625 L 11.03125 18.886719 L 11.226562 18.421875 L 11.632812 18.222656 C 11.632812 18.222656 11.761719 17.832031 11.761719 17.773438 C 11.761719 17.71875 11.804688 17.125 11.804688 17.125 L 12.121094 16.691406 L 12.160156 16.398438 L 11.921875 16.253906 L 11.726562 16.015625 L 11.371094 16.042969 L 10.804688 15.710938 L 10.691406 15.433594 C 10.691406 15.433594 10.492188 15.089844 10.453125 15.089844 C 10.414062 15.089844 10.175781 15.105469 10.175781 15.105469 L 9.957031 14.878906 L 9.808594 14.605469 L 9.246094 14.484375 L 9.0625 14.390625 L 8.695312 14.390625 Z M 24.003906 14.601562 C 24.050781 14.65625 24.347656 15.542969 24.386719 15.542969 C 24.421875 15.542969 24.644531 15.570312 24.644531 15.570312 L 24.527344 15.210938 Z M 22.496094 14.628906 L 22.363281 14.800781 L 22.425781 15.054688 L 22.574219 14.894531 L 22.546875 14.695312 Z M 25.796875 14.988281 L 25.277344 15.277344 C 25.277344 15.316406 24.972656 15.570312 24.972656 15.570312 L 25.054688 15.832031 L 25.222656 16.03125 L 25.339844 16.324219 L 25.863281 15.980469 C 25.855469 15.644531 25.835938 15.316406 25.796875 14.988281 Z M 23.964844 15.121094 L 23.78125 15.144531 L 24.621094 16.417969 L 24.84375 16.667969 L 25.394531 16.691406 L 25.738281 16.800781 L 25.371094 16.539062 L 24.84375 16.390625 L 24.714844 15.902344 L 24.421875 15.664062 Z M 19.550781 17.179688 L 19.550781 17.367188 C 19.542969 17.394531 19.382812 17.527344 19.382812 17.527344 L 19.183594 17.621094 L 19.039062 17.738281 L 19.144531 17.882812 L 19.210938 17.949219 L 19.039062 18.09375 L 19.039062 18.332031 L 19.105469 18.582031 L 19.25 18.625 L 19.421875 18.359375 L 19.527344 18.1875 L 19.5 17.976562 L 19.65625 17.722656 L 19.710938 17.605469 L 19.710938 17.367188 L 19.671875 17.183594 Z M 25.683594 18.011719 C 25.636719 18.023438 25.605469 18.035156 25.605469 18.042969 C 25.597656 18.082031 25.367188 18.203125 25.367188 18.203125 C 25.320312 18.203125 25.167969 18.480469 25.167969 18.480469 L 25.144531 19.351562 L 25.089844 19.667969 L 25.167969 19.769531 C 25.390625 19.207031 25.566406 18.617188 25.683594 18.011719 Z M 10.949219 21.1875 L 10.949219 21.191406 Z M 10.949219 21.191406 L 10.855469 21.253906 L 10.816406 21.265625 L 11.027344 21.371094 Z M 10.589844 21.265625 L 10.589844 21.269531 Z M 10.589844 21.269531 L 10.5 21.476562 L 10.683594 21.4375 Z M 11.222656 23.011719 L 11.027344 23.316406 L 10.660156 23.488281 L 10.867188 23.753906 L 10.550781 23.910156 L 10.382812 23.902344 C 12.003906 25.132812 14.015625 25.863281 16.199219 25.863281 C 18.78125 25.863281 21.121094 24.839844 22.855469 23.183594 L 21.753906 23.226562 L 20.464844 23.488281 C 20.464844 23.488281 19.84375 23.824219 19.769531 23.808594 C 19.695312 23.789062 20.03125 23.371094 20.03125 23.371094 L 19.425781 23.410156 L 19.046875 23.09375 L 18.667969 23.355469 C 18.667969 23.355469 18.15625 23.394531 18.027344 23.394531 C 17.894531 23.394531 17.722656 23.636719 17.722656 23.636719 L 16.683594 23.597656 L 14.898438 23.675781 L 14.425781 24.085938 L 14.3125 24.097656 L 12.957031 24.003906 L 12.023438 24.097656 L 11.699219 23.9375 L 11.710938 23.910156 C 11.710938 23.910156 11.433594 23.355469 11.433594 23.277344 C 11.433594 23.203125 11.222656 23.011719 11.222656 23.011719 Z M 11.222656 23.011719 "/>
<path style=" stroke:none;fill-rule:nonzero;fill:rgb(0%,0%,0%);fill-opacity:0.0980392;" d="M 16.136719 15.28125 L 16.136719 15.492188 L 16.082031 15.675781 L 16.035156 15.824219 L 16.164062 16.0625 L 16.1875 16.089844 L 16.625 15.707031 "/>
<path style=" stroke:none;fill-rule:nonzero;fill:rgb(0%,0%,0%);fill-opacity:0.101961;" d="M 22.941406 9.160156 C 24.5 10.886719 25.449219 13.1875 25.449219 15.707031 C 25.449219 21.082031 21.121094 25.4375 15.785156 25.4375 C 13.285156 25.4375 11 24.480469 9.285156 22.910156 C 11.039062 24.726562 13.488281 25.859375 16.207031 25.859375 C 21.542969 25.859375 25.871094 21.503906 25.871094 16.128906 C 25.871094 13.394531 24.746094 10.929688 22.941406 9.160156 Z M 22.941406 9.160156 "/>
<path style=" stroke:none;fill-rule:nonzero;fill:rgb(94.117647%,94.117647%,94.117647%);fill-opacity:1;" d="M 21.246094 20.359375 L 21.246094 18.667969 L 16.203125 18.667969 L 16.203125 20.359375 "/>
<path style=" stroke:none;fill-rule:nonzero;fill:rgb(94.117647%,94.117647%,94.117647%);fill-opacity:1;" d="M 12.316406 18.667969 L 11.164062 17.4375 L 13.753906 15.285156 L 11.164062 13.128906 L 12.316406 11.898438 L 16.207031 15.285156 M 12.316406 18.667969 "/>
</g>
</svg>
