
<svg xmlns="http://www.w3.org/2000/svg" xmlns:xlink="http://www.w3.org/1999/xlink" width="32px" height="32px" viewBox="0 0 32 32" version="1.1">
<g id="surface1">
<path style=" stroke:none;fill-rule:nonzero;fill:rgb(3.921569%,30.588235%,57.647059%);fill-opacity:1;" d="M 28.277344 5.839844 C 36.0625 17.808594 29.78125 28.714844 20.96875 31.300781 C 9.113281 34.78125 -6.980469 25.636719 3.625 6.789062 C 7.839844 -0.699219 22.730469 -2.683594 28.277344 5.839844 Z M 28.277344 5.839844 "/>
<path style=" stroke:none;fill-rule:nonzero;fill:rgb(0%,0%,0%);fill-opacity:0.101961;" d="M 10.136719 9.242188 L 23.480469 9.242188 C 24.585938 9.242188 25.484375 10.027344 25.484375 10.996094 L 25.484375 22.675781 C 25.484375 23.644531 24.585938 24.425781 23.480469 24.425781 L 10.136719 24.425781 C 9.03125 24.425781 8.132812 23.644531 8.132812 22.675781 L 8.132812 10.996094 C 8.132812 10.027344 9.03125 9.242188 10.136719 9.242188 Z M 10.136719 9.242188 "/>
<path style=" stroke:none;fill-rule:nonzero;fill:rgb(42.745098%,57.254902%,85.882353%);fill-opacity:1;" d="M 9.46875 8.660156 L 22.816406 8.660156 C 23.917969 8.660156 24.816406 9.441406 24.816406 10.410156 L 24.816406 22.089844 C 24.816406 23.058594 23.917969 23.84375 22.816406 23.84375 L 9.46875 23.84375 C 8.363281 23.84375 7.464844 23.058594 7.464844 22.089844 L 7.464844 10.410156 C 7.464844 9.441406 8.363281 8.660156 9.46875 8.660156 Z M 9.46875 8.660156 "/>
<path style=" stroke:none;fill-rule:nonzero;fill:rgb(0%,0%,0%);fill-opacity:0.101961;" d="M 11.136719 10.996094 L 22.480469 10.996094 C 23.035156 10.996094 23.480469 11.359375 23.480469 11.8125 L 23.480469 21.855469 C 23.480469 22.308594 23.035156 22.675781 22.480469 22.675781 L 11.136719 22.675781 C 10.582031 22.675781 10.136719 22.308594 10.136719 21.855469 L 10.136719 11.8125 C 10.136719 11.359375 10.582031 10.996094 11.136719 10.996094 Z M 11.136719 10.996094 "/>
<path style=" stroke:none;fill-rule:nonzero;fill:rgb(16.470588%,16.470588%,16.470588%);fill-opacity:1;" d="M 10.46875 10.410156 L 21.8125 10.410156 C 22.367188 10.410156 22.816406 10.777344 22.816406 11.226562 L 22.816406 21.273438 C 22.816406 21.722656 22.367188 22.089844 21.8125 22.089844 L 10.46875 22.089844 C 9.917969 22.089844 9.46875 21.722656 9.46875 21.273438 L 9.46875 11.226562 C 9.46875 10.777344 9.917969 10.410156 10.46875 10.410156 Z M 10.46875 10.410156 "/>
<path style=" stroke:none;fill-rule:nonzero;fill:rgb(0%,0%,0%);fill-opacity:0.101961;" d="M 11.472656 12.160156 L 16.140625 16.832031 L 11.472656 21.507812 C 15.027344 21.507812 18.589844 21.507812 22.144531 21.507812 L 22.144531 18.585938 L 20.144531 18.585938 L 20.144531 19.753906 L 15.808594 19.753906 L 18.808594 16.832031 L 15.808594 13.914062 L 20.144531 13.914062 L 20.144531 15.082031 L 22.144531 15.082031 C 22.144531 14.109375 22.144531 13.136719 22.144531 12.160156 C 18.589844 12.160156 15.027344 12.160156 11.472656 12.160156 Z M 11.472656 12.160156 "/>
<path style=" stroke:none;fill-rule:nonzero;fill:rgb(97.647059%,97.647059%,97.647059%);fill-opacity:1;" d="M 10.800781 11.578125 L 15.472656 16.25 L 10.800781 20.921875 C 14.363281 20.921875 17.921875 20.921875 21.480469 20.921875 L 21.480469 18.003906 L 19.476562 18.003906 L 19.476562 19.167969 L 15.140625 19.167969 L 18.144531 16.25 L 15.140625 13.332031 L 19.476562 13.332031 L 19.476562 14.496094 L 21.480469 14.496094 C 21.480469 13.523438 21.480469 12.550781 21.480469 11.578125 C 17.921875 11.578125 14.363281 11.578125 10.800781 11.578125 Z M 10.800781 11.578125 "/>
</g>
</svg>
