
<svg xmlns="http://www.w3.org/2000/svg" xmlns:xlink="http://www.w3.org/1999/xlink" width="32px" height="32px" viewBox="0 0 32 32" version="1.1">
<g id="surface1">
<path style=" stroke:none;fill-rule:nonzero;fill:rgb(0%,74.901961%,100%);fill-opacity:1;" d="M 15.714844 0.277344 C 1.726562 -2.519531 -3.585938 16.644531 2.476562 27.050781 C 7.308594 35.339844 23.855469 32.972656 30.023438 21.777344 C 36.191406 10.585938 26.945312 2.519531 15.714844 0.277344 Z M 15.714844 0.277344 "/>
<path style=" stroke:none;fill-rule:nonzero;fill:rgb(100%,100%,100%);fill-opacity:1;" d="M 8.09375 10.527344 C 5.148438 14.371094 4.773438 19.761719 7.976562 23.007812 C 11.394531 26.464844 16.808594 26.414062 20.707031 23.246094 C 25.546875 19.378906 26.046875 13.074219 22.648438 9.402344 C 17.964844 4.488281 10.90625 7.378906 8.722656 9.785156 C 8.503906 10.027344 8.289062 10.273438 8.09375 10.527344 Z M 9.894531 11.367188 C 10.058594 11.148438 10.238281 10.941406 10.421875 10.734375 C 12.285156 8.683594 18.300781 6.210938 22.296875 10.398438 C 25.191406 13.53125 24.777344 18.90625 20.652344 22.207031 C 17.328125 24.90625 12.707031 24.953125 9.792969 22.003906 C 7.0625 19.238281 7.382812 14.644531 9.894531 11.367188 Z M 9.894531 11.367188 "/>
<path style=" stroke:none;fill-rule:nonzero;fill:rgb(100%,100%,100%);fill-opacity:1;" d="M 4.96875 15.113281 L 8.699219 15.113281 C 9.09375 15.113281 9.410156 15.460938 9.410156 15.890625 L 9.410156 19.585938 C 9.410156 20.015625 9.09375 20.363281 8.699219 20.363281 L 4.96875 20.363281 C 4.578125 20.363281 4.261719 20.015625 4.261719 19.585938 L 4.261719 15.890625 C 4.261719 15.460938 4.578125 15.113281 4.96875 15.113281 Z M 4.96875 15.113281 "/>
<path style=" stroke:none;fill-rule:nonzero;fill:rgb(100%,100%,100%);fill-opacity:1;" d="M 5.183594 15.410156 L 8.488281 15.410156 C 8.835938 15.410156 9.113281 15.722656 9.113281 16.101562 L 9.113281 19.371094 C 9.113281 19.753906 8.835938 20.066406 8.488281 20.066406 L 5.183594 20.066406 C 4.835938 20.066406 4.554688 19.753906 4.554688 19.371094 L 4.554688 16.101562 C 4.554688 15.722656 4.835938 15.410156 5.183594 15.410156 Z M 5.183594 15.410156 "/>
<path style=" stroke:none;fill-rule:nonzero;fill:rgb(100%,100%,100%);fill-opacity:1;" d="M 19.96875 20.308594 L 22.445312 20.308594 C 22.707031 20.308594 22.917969 20.542969 22.917969 20.828125 L 22.917969 23.277344 C 22.917969 23.566406 22.707031 23.796875 22.445312 23.796875 L 19.96875 23.796875 C 19.707031 23.796875 19.496094 23.566406 19.496094 23.277344 L 19.496094 20.828125 C 19.496094 20.542969 19.707031 20.308594 19.96875 20.308594 Z M 19.96875 20.308594 "/>
<path style=" stroke:none;fill-rule:nonzero;fill:rgb(100%,100%,100%);fill-opacity:1;" d="M 20.113281 20.511719 L 22.304688 20.511719 C 22.535156 20.511719 22.722656 20.714844 22.722656 20.96875 L 22.722656 23.136719 C 22.722656 23.390625 22.535156 23.597656 22.304688 23.597656 L 20.113281 23.597656 C 19.878906 23.597656 19.695312 23.390625 19.695312 23.136719 L 19.695312 20.96875 C 19.695312 20.714844 19.878906 20.511719 20.113281 20.511719 Z M 20.113281 20.511719 "/>
<path style=" stroke:none;fill-rule:nonzero;fill:rgb(100%,100%,100%);fill-opacity:1;" d="M 22.125 9.523438 L 24.03125 9.523438 C 24.230469 9.523438 24.394531 9.699219 24.394531 9.921875 L 24.394531 11.808594 C 24.394531 12.027344 24.230469 12.207031 24.03125 12.207031 L 22.125 12.207031 C 21.925781 12.207031 21.761719 12.027344 21.761719 11.808594 L 21.761719 9.921875 C 21.761719 9.699219 21.925781 9.523438 22.125 9.523438 Z M 22.125 9.523438 "/>
<path style=" stroke:none;fill-rule:nonzero;fill:rgb(100%,100%,100%);fill-opacity:1;" d="M 22.234375 9.675781 L 23.921875 9.675781 C 24.097656 9.675781 24.242188 9.832031 24.242188 10.027344 L 24.242188 11.699219 C 24.242188 11.894531 24.097656 12.050781 23.921875 12.050781 L 22.234375 12.050781 C 22.058594 12.050781 21.914062 11.894531 21.914062 11.699219 L 21.914062 10.027344 C 21.914062 9.832031 22.058594 9.675781 22.234375 9.675781 Z M 22.234375 9.675781 "/>
</g>
</svg>
