
<svg xmlns="http://www.w3.org/2000/svg" xmlns:xlink="http://www.w3.org/1999/xlink" width="32px" height="32px" viewBox="0 0 32 32" version="1.1">
<g id="surface1">
<path style=" stroke:none;fill-rule:nonzero;fill:rgb(60.392157%,80.392157%,19.607843%);fill-opacity:1;" d="M 5.1875 28.367188 C -9.171875 16.953125 9.222656 -6.589844 24.695312 1.753906 C 39.269531 9.613281 30.082031 33.523438 14.257812 31.925781 C 10.957031 31.589844 7.824219 30.460938 5.1875 28.367188 Z M 5.1875 28.367188 "/>
<path style=" stroke:none;fill-rule:evenodd;fill:rgb(100%,100%,100%);fill-opacity:1;" d="M 14.175781 14.144531 L 14.175781 14.191406 L 12.023438 13.902344 L 13.363281 15.566406 L 12.039062 16.839844 L 14.988281 16.84375 L 15.261719 18.742188 L 16.761719 17.878906 L 19.085938 19.214844 L 18.027344 17.070312 L 17.003906 16.75 L 15.152344 15.398438 Z M 14.175781 14.144531 "/>
<path style=" stroke:none;fill-rule:nonzero;fill:rgb(100%,100%,0%);fill-opacity:1;" d="M 19.769531 17.203125 C 19.769531 17.203125 23.085938 18.203125 23.675781 17.914062 C 24.261719 17.621094 24.617188 17.464844 24.433594 17.011719 C 24.253906 16.558594 23.710938 16.058594 23.339844 16.152344 C 22.847656 16.285156 22.183594 15.601562 22.347656 15.316406 C 22.609375 14.847656 23.214844 14.710938 23.871094 14.675781 C 24.53125 14.640625 25.835938 15.230469 25.722656 16.550781 C 25.613281 17.871094 24.671875 19.082031 23.675781 19.277344 C 22.726562 19.464844 21.515625 19.636719 20.574219 19.144531 C 20.042969 18.871094 20.019531 18.628906 20.019531 18.628906 "/>
<path style=" stroke:none;fill-rule:nonzero;fill:rgb(100%,100%,0%);fill-opacity:1;" d="M 7.730469 15.203125 C 7.730469 15.203125 8.558594 15.191406 8.941406 16.113281 C 9.417969 17.253906 9.332031 17.636719 8.871094 18.292969 C 8.417969 18.949219 8.855469 20.332031 9.265625 20.464844 C 9.675781 20.597656 11.050781 19.019531 11.050781 19.019531 C 11.050781 19.019531 11.871094 17.878906 11.460938 16.699219 C 11.050781 15.519531 9.558594 13.082031 9.558594 13.082031 C 9.558594 13.082031 9.21875 8.21875 12.652344 6.628906 C 12.652344 6.628906 16.996094 4.136719 20.789062 8.160156 C 20.789062 8.160156 22.566406 10.027344 22.152344 12.839844 C 22.152344 12.839844 20.332031 16.21875 20.242188 16.65625 C 20.152344 17.09375 19.785156 18.1875 20.105469 18.496094 C 20.425781 18.800781 20.832031 19.394531 21.058594 19.527344 C 21.289062 19.65625 22.34375 20.773438 22.984375 21.210938 C 23.625 21.648438 26.480469 21.476562 26.320312 22.050781 C 25.964844 23.355469 22.722656 23.128906 21.527344 22.105469 C 21.089844 21.730469 19.082031 19.621094 18.761719 19.972656 C 18.441406 20.320312 17.671875 21.492188 19.503906 22.183594 C 20.714844 22.640625 21.332031 24.527344 19.871094 25.238281 C 18.84375 25.734375 18.316406 23.253906 17.675781 21.851562 C 17.035156 20.449219 16.371094 20.40625 16.371094 20.40625 C 16.371094 20.40625 15.945312 20.816406 15.671875 21.738281 C 15.394531 22.65625 15.488281 23.617188 14.804688 24.054688 C 14.117188 24.492188 12.871094 25.105469 11.667969 25.105469 C 9.710938 25.101562 9.355469 24.792969 9.652344 23.769531 C 9.652344 23.769531 11.902344 23.488281 12.398438 23.21875 C 12.925781 23.027344 13.855469 22.597656 13.910156 21.761719 C 13.953125 20.953125 13.382812 20.246094 13.015625 20.417969 C 12.652344 20.597656 12.464844 21.078125 11.828125 21.515625 C 11.1875 21.953125 10.417969 22.78125 9.722656 22.855469 C 8.464844 22.980469 8.136719 22.792969 7.722656 21.996094 C 7.332031 21.238281 7.128906 20.8125 7.070312 20.027344 C 7.011719 19.175781 7.238281 17.933594 7.105469 17.136719 C 6.941406 16.144531 6.878906 15.382812 7.730469 15.203125 Z M 7.730469 15.203125 "/>
<path style=" stroke:none;fill-rule:evenodd;fill:rgb(32.156863%,32.156863%,32.156863%);fill-opacity:1;" d="M 18.058594 10.53125 C 18.058594 11.964844 16.964844 13.121094 15.613281 13.121094 C 14.261719 13.121094 13.167969 11.964844 13.167969 10.53125 C 13.167969 9.101562 14.261719 7.941406 15.613281 7.941406 C 16.964844 7.941406 18.058594 9.101562 18.058594 10.53125 Z M 18.058594 10.53125 "/>
<path style=" stroke:none;fill-rule:evenodd;fill:rgb(32.156863%,32.156863%,32.156863%);fill-opacity:1;" d="M 20.789062 10.746094 C 20.789062 11.566406 20.136719 12.230469 19.335938 12.230469 C 18.535156 12.230469 17.882812 11.566406 17.882812 10.746094 C 17.882812 9.925781 18.535156 9.261719 19.335938 9.261719 C 20.136719 9.261719 20.789062 9.925781 20.789062 10.746094 Z M 20.789062 10.746094 "/>
</g>
</svg>
