
<svg xmlns="http://www.w3.org/2000/svg" xmlns:xlink="http://www.w3.org/1999/xlink" width="32px" height="32px" viewBox="0 0 32 32" version="1.1">
<g id="surface1">
<path style=" stroke:none;fill-rule:nonzero;fill:rgb(18.431373%,30.980392%,30.980392%);fill-opacity:0.796078;" d="M 3.664062 6.039062 C -11.03125 24.910156 25.570312 44.496094 30.921875 21.136719 C 36.410156 6.425781 14.558594 -7.941406 3.664062 6.039062 Z M 3.664062 6.039062 "/>
<path style=" stroke:none;fill-rule:evenodd;fill:rgb(0%,0%,0%);fill-opacity:0.14902;" d="M 13.195312 7.605469 C 12.804688 7.605469 12.433594 7.777344 12.160156 8.078125 C 12.089844 8.152344 12.027344 8.238281 11.976562 8.332031 C 10.644531 7.742188 9.644531 7.691406 9.167969 8.207031 C 8.859375 8.542969 8.761719 9.101562 8.882812 9.84375 C 9.003906 10.589844 9.347656 11.511719 9.878906 12.550781 C 9.433594 10.761719 8.765625 7.535156 11.78125 8.847656 C 11.761719 8.949219 11.75 9.054688 11.75 9.160156 C 11.75 10.019531 12.398438 10.714844 13.195312 10.714844 C 13.5625 10.714844 13.917969 10.558594 14.183594 10.289062 C 15.683594 11.378906 17.375 12.902344 18.9375 14.582031 C 24.625 20.839844 25.902344 27.269531 18.394531 22.609375 C 19.894531 23.808594 21.316406 24.691406 22.449219 25.128906 C 23.585938 25.5625 24.433594 25.546875 24.863281 25.085938 C 25.167969 24.757812 25.269531 24.214844 25.15625 23.488281 C 25.042969 22.761719 24.722656 21.859375 24.207031 20.847656 C 23.183594 18.824219 21.394531 16.359375 19.339844 14.152344 C 17.769531 12.460938 16.058594 10.933594 14.5 9.824219 C 14.589844 9.613281 14.640625 9.386719 14.640625 9.160156 C 14.640625 8.300781 13.996094 7.605469 13.195312 7.605469 Z M 13.195312 8.214844 C 13.679688 8.214844 14.074219 8.636719 14.074219 9.160156 C 14.074219 9.273438 14.054688 9.382812 14.019531 9.488281 C 14.019531 9.488281 14.015625 9.488281 14.015625 9.488281 C 14.011719 9.503906 14.003906 9.519531 14 9.535156 C 13.996094 9.542969 13.988281 9.554688 13.988281 9.566406 C 13.980469 9.578125 13.972656 9.59375 13.964844 9.609375 C 13.960938 9.617188 13.957031 9.628906 13.949219 9.636719 C 13.941406 9.652344 13.933594 9.667969 13.925781 9.683594 C 13.925781 9.683594 13.921875 9.683594 13.921875 9.683594 C 13.902344 9.714844 13.878906 9.746094 13.855469 9.777344 C 13.847656 9.785156 13.839844 9.792969 13.835938 9.796875 C 13.828125 9.808594 13.816406 9.820312 13.804688 9.832031 C 13.796875 9.839844 13.785156 9.851562 13.777344 9.859375 C 13.769531 9.867188 13.761719 9.875 13.75 9.882812 C 13.730469 9.898438 13.714844 9.914062 13.695312 9.929688 C 13.691406 9.933594 13.691406 9.933594 13.6875 9.9375 C 13.542969 10.042969 13.371094 10.097656 13.195312 10.097656 C 12.710938 10.097656 12.316406 9.675781 12.316406 9.15625 C 12.316406 9.140625 12.316406 9.121094 12.320312 9.105469 C 12.320312 9.089844 12.324219 9.078125 12.324219 9.066406 C 12.324219 9.050781 12.328125 9.035156 12.332031 9.019531 C 12.332031 9.003906 12.332031 8.988281 12.335938 8.976562 C 12.339844 8.964844 12.339844 8.957031 12.34375 8.941406 C 12.355469 8.886719 12.371094 8.832031 12.394531 8.78125 C 12.394531 8.769531 12.402344 8.761719 12.402344 8.753906 C 12.410156 8.738281 12.417969 8.722656 12.425781 8.707031 C 12.429688 8.699219 12.433594 8.691406 12.441406 8.683594 C 12.449219 8.667969 12.457031 8.652344 12.464844 8.636719 C 12.476562 8.617188 12.488281 8.597656 12.503906 8.582031 C 12.523438 8.550781 12.542969 8.527344 12.566406 8.5 C 12.730469 8.316406 12.957031 8.214844 13.195312 8.214844 Z M 12.039062 15.230469 L 13.816406 22.46875 L 15.226562 19.246094 L 18.410156 18.257812 Z M 12.039062 15.230469 "/>
<path style=" stroke:none;fill-rule:evenodd;fill:rgb(0%,0%,0%);fill-opacity:0.14902;" d="M 13.195312 7.605469 C 12.804688 7.605469 12.433594 7.777344 12.160156 8.078125 C 12.089844 8.152344 12.027344 8.238281 11.976562 8.332031 C 11.972656 8.332031 11.972656 8.332031 11.96875 8.332031 C 11.878906 8.488281 11.808594 8.660156 11.773438 8.847656 C 11.777344 8.847656 11.777344 8.847656 11.78125 8.847656 C 11.761719 8.949219 11.75 9.054688 11.75 9.160156 C 11.75 10.019531 12.398438 10.714844 13.195312 10.714844 C 13.5625 10.714844 13.917969 10.558594 14.183594 10.289062 C 14.1875 10.289062 14.191406 10.289062 14.191406 10.296875 C 14.320312 10.167969 14.429688 10.007812 14.503906 9.832031 C 14.503906 9.832031 14.503906 9.832031 14.5 9.824219 C 14.589844 9.617188 14.640625 9.390625 14.640625 9.160156 C 14.640625 8.300781 13.996094 7.605469 13.195312 7.605469 Z M 13.195312 8.214844 C 13.679688 8.214844 14.074219 8.636719 14.074219 9.160156 C 14.074219 9.273438 14.054688 9.382812 14.019531 9.488281 C 14.019531 9.488281 14.015625 9.488281 14.015625 9.488281 C 14.011719 9.503906 14.003906 9.519531 14 9.535156 C 13.996094 9.542969 13.988281 9.554688 13.988281 9.566406 C 13.980469 9.578125 13.972656 9.59375 13.964844 9.609375 C 13.960938 9.617188 13.957031 9.628906 13.949219 9.636719 C 13.941406 9.652344 13.933594 9.667969 13.925781 9.683594 C 13.925781 9.683594 13.921875 9.683594 13.921875 9.683594 C 13.902344 9.714844 13.878906 9.746094 13.855469 9.777344 C 13.847656 9.785156 13.839844 9.792969 13.835938 9.796875 C 13.828125 9.808594 13.816406 9.820312 13.804688 9.832031 C 13.796875 9.839844 13.785156 9.851562 13.777344 9.859375 C 13.769531 9.867188 13.761719 9.875 13.75 9.882812 C 13.730469 9.898438 13.714844 9.914062 13.695312 9.929688 C 13.691406 9.933594 13.691406 9.933594 13.6875 9.9375 C 13.542969 10.042969 13.371094 10.097656 13.195312 10.097656 C 12.710938 10.097656 12.316406 9.675781 12.316406 9.15625 C 12.316406 9.140625 12.316406 9.121094 12.320312 9.105469 C 12.320312 9.089844 12.324219 9.078125 12.324219 9.066406 C 12.324219 9.050781 12.328125 9.035156 12.332031 9.019531 C 12.332031 9.003906 12.332031 8.988281 12.335938 8.976562 C 12.339844 8.964844 12.339844 8.957031 12.34375 8.941406 C 12.355469 8.886719 12.371094 8.832031 12.394531 8.78125 C 12.394531 8.769531 12.402344 8.761719 12.402344 8.753906 C 12.410156 8.738281 12.417969 8.722656 12.425781 8.707031 C 12.429688 8.699219 12.433594 8.691406 12.441406 8.683594 C 12.449219 8.667969 12.457031 8.652344 12.464844 8.636719 C 12.476562 8.617188 12.488281 8.597656 12.503906 8.582031 C 12.523438 8.550781 12.542969 8.527344 12.566406 8.5 C 12.730469 8.316406 12.957031 8.214844 13.195312 8.214844 Z M 13.195312 8.214844 "/>
<path style=" stroke:none;fill-rule:evenodd;fill:rgb(97.647059%,97.647059%,97.647059%);fill-opacity:1;" d="M 13.195312 6.832031 C 12.804688 6.832031 12.433594 7 12.160156 7.300781 C 12.089844 7.378906 12.027344 7.460938 11.976562 7.550781 C 10.644531 6.964844 9.644531 6.917969 9.167969 7.433594 C 8.859375 7.765625 8.761719 8.324219 8.882812 9.066406 C 9.003906 9.808594 9.347656 10.738281 9.878906 11.769531 C 9.433594 9.980469 8.765625 6.753906 11.78125 8.070312 C 11.761719 8.171875 11.75 8.277344 11.75 8.382812 C 11.75 9.238281 12.398438 9.933594 13.195312 9.933594 C 13.5625 9.933594 13.917969 9.785156 14.183594 9.511719 C 15.683594 10.601562 17.375 12.128906 18.9375 13.804688 C 24.625 20.0625 25.902344 26.496094 18.394531 21.832031 C 19.894531 23.035156 21.316406 23.917969 22.449219 24.351562 C 23.585938 24.785156 24.433594 24.769531 24.863281 24.308594 C 25.167969 23.980469 25.269531 23.433594 25.15625 22.710938 C 25.042969 21.988281 24.722656 21.082031 24.207031 20.074219 C 23.183594 18.046875 21.394531 15.582031 19.339844 13.371094 C 17.769531 11.683594 16.058594 10.160156 14.5 9.046875 C 14.589844 8.839844 14.640625 8.613281 14.640625 8.382812 C 14.640625 7.527344 13.996094 6.832031 13.195312 6.832031 Z M 13.195312 7.441406 C 13.679688 7.441406 14.074219 7.863281 14.074219 8.382812 C 14.074219 8.496094 14.054688 8.605469 14.019531 8.710938 C 14.019531 8.714844 14.015625 8.710938 14.015625 8.710938 C 14.011719 8.726562 14.003906 8.742188 14 8.753906 C 13.996094 8.765625 13.988281 8.777344 13.988281 8.785156 C 13.980469 8.800781 13.972656 8.816406 13.964844 8.832031 C 13.960938 8.839844 13.957031 8.847656 13.949219 8.859375 C 13.941406 8.875 13.933594 8.890625 13.925781 8.902344 C 13.925781 8.90625 13.921875 8.902344 13.921875 8.902344 C 13.902344 8.9375 13.878906 8.972656 13.855469 9 C 13.847656 9.007812 13.839844 9.011719 13.835938 9.019531 C 13.828125 9.03125 13.816406 9.042969 13.804688 9.054688 C 13.796875 9.066406 13.785156 9.074219 13.777344 9.082031 C 13.769531 9.089844 13.761719 9.097656 13.75 9.105469 C 13.730469 9.121094 13.714844 9.136719 13.695312 9.152344 C 13.691406 9.152344 13.691406 9.15625 13.6875 9.160156 C 13.542969 9.265625 13.371094 9.324219 13.195312 9.324219 C 12.710938 9.324219 12.316406 8.902344 12.316406 8.378906 C 12.316406 8.363281 12.316406 8.34375 12.320312 8.328125 C 12.320312 8.316406 12.324219 8.300781 12.324219 8.289062 C 12.324219 8.273438 12.328125 8.257812 12.332031 8.242188 C 12.332031 8.226562 12.332031 8.214844 12.335938 8.199219 C 12.339844 8.1875 12.339844 8.175781 12.34375 8.167969 C 12.355469 8.109375 12.371094 8.058594 12.394531 8.003906 C 12.394531 7.996094 12.402344 7.984375 12.402344 7.976562 C 12.410156 7.960938 12.417969 7.945312 12.425781 7.929688 C 12.429688 7.921875 12.433594 7.910156 12.441406 7.902344 C 12.449219 7.890625 12.457031 7.875 12.464844 7.863281 C 12.476562 7.839844 12.488281 7.820312 12.503906 7.800781 C 12.523438 7.777344 12.542969 7.746094 12.566406 7.722656 C 12.730469 7.542969 12.957031 7.4375 13.195312 7.4375 Z M 12.039062 14.449219 L 13.816406 21.691406 L 15.226562 18.46875 L 18.410156 17.480469 Z M 12.039062 14.449219 "/>
<path style=" stroke:none;fill-rule:evenodd;fill:rgb(20.784314%,79.607843%,76.862745%);fill-opacity:1;" d="M 13.195312 6.832031 C 12.804688 6.832031 12.433594 7 12.160156 7.300781 C 12.089844 7.378906 12.027344 7.460938 11.976562 7.550781 C 11.972656 7.550781 11.972656 7.550781 11.96875 7.550781 C 11.878906 7.707031 11.808594 7.882812 11.773438 8.070312 C 11.777344 8.070312 11.777344 8.070312 11.78125 8.070312 C 11.761719 8.171875 11.75 8.277344 11.75 8.382812 C 11.75 9.238281 12.398438 9.933594 13.195312 9.933594 C 13.5625 9.933594 13.917969 9.785156 14.183594 9.511719 C 14.1875 9.511719 14.191406 9.511719 14.191406 9.519531 C 14.320312 9.386719 14.429688 9.230469 14.503906 9.054688 C 14.503906 9.054688 14.503906 9.054688 14.5 9.046875 C 14.589844 8.839844 14.640625 8.613281 14.640625 8.382812 C 14.640625 7.527344 13.996094 6.832031 13.195312 6.832031 Z M 13.195312 7.441406 C 13.679688 7.441406 14.074219 7.863281 14.074219 8.382812 C 14.074219 8.496094 14.054688 8.605469 14.019531 8.710938 C 14.019531 8.714844 14.015625 8.710938 14.015625 8.710938 C 14.011719 8.726562 14.003906 8.742188 14 8.753906 C 13.996094 8.765625 13.988281 8.777344 13.988281 8.785156 C 13.980469 8.800781 13.972656 8.816406 13.964844 8.832031 C 13.960938 8.839844 13.957031 8.847656 13.949219 8.859375 C 13.941406 8.875 13.933594 8.890625 13.925781 8.902344 C 13.925781 8.90625 13.921875 8.902344 13.921875 8.902344 C 13.902344 8.9375 13.878906 8.972656 13.855469 9 C 13.847656 9.007812 13.839844 9.011719 13.835938 9.019531 C 13.828125 9.03125 13.816406 9.042969 13.804688 9.054688 C 13.796875 9.066406 13.785156 9.074219 13.777344 9.082031 C 13.769531 9.089844 13.761719 9.097656 13.75 9.105469 C 13.730469 9.121094 13.714844 9.136719 13.695312 9.152344 C 13.691406 9.152344 13.691406 9.15625 13.6875 9.160156 C 13.542969 9.265625 13.371094 9.324219 13.195312 9.324219 C 12.710938 9.324219 12.316406 8.902344 12.316406 8.378906 C 12.316406 8.363281 12.316406 8.34375 12.320312 8.328125 C 12.320312 8.316406 12.324219 8.300781 12.324219 8.289062 C 12.324219 8.273438 12.328125 8.257812 12.332031 8.242188 C 12.332031 8.226562 12.332031 8.214844 12.335938 8.199219 C 12.339844 8.1875 12.339844 8.175781 12.34375 8.167969 C 12.355469 8.109375 12.371094 8.058594 12.394531 8.003906 C 12.394531 7.996094 12.402344 7.984375 12.402344 7.976562 C 12.410156 7.960938 12.417969 7.945312 12.425781 7.929688 C 12.429688 7.921875 12.433594 7.910156 12.441406 7.902344 C 12.449219 7.890625 12.457031 7.875 12.464844 7.863281 C 12.476562 7.839844 12.488281 7.820312 12.503906 7.800781 C 12.523438 7.777344 12.542969 7.746094 12.566406 7.722656 C 12.730469 7.542969 12.957031 7.4375 13.195312 7.4375 Z M 13.195312 7.441406 "/>
</g>
</svg>
