
<svg xmlns="http://www.w3.org/2000/svg" xmlns:xlink="http://www.w3.org/1999/xlink" width="32px" height="32px" viewBox="0 0 32 32" version="1.1">
<g id="surface1">
<path style=" stroke:none;fill-rule:nonzero;fill:rgb(60.392157%,80.392157%,19.607843%);fill-opacity:1;" d="M 26.441406 4.847656 C 51.457031 38.003906 -17.382812 42.714844 4.707031 8.867188 C 9.746094 1.152344 19.816406 -3.9375 26.441406 4.847656 Z M 26.441406 4.847656 "/>
<path style=" stroke:none;fill-rule:nonzero;fill:rgb(100%,100%,100%);fill-opacity:1;" d="M 12.96875 26.472656 C 12.558594 26.324219 12.347656 26.132812 12.355469 25.917969 C 12.414062 24.648438 12.429688 24.601562 12.746094 24.730469 C 12.917969 24.800781 13.433594 24.90625 13.890625 24.964844 C 14.597656 25.050781 14.824219 25.191406 15.378906 25.894531 L 16.035156 26.71875 L 14.816406 26.707031 C 14.144531 26.703125 13.316406 26.597656 12.96875 26.472656 Z M 17.183594 25.796875 C 14.421875 24.453125 14.5 20.511719 17.316406 19.277344 C 18.285156 18.847656 19.246094 18.910156 20.234375 19.464844 C 20.78125 19.769531 21.136719 19.875 21.210938 19.75 C 21.277344 19.644531 21.550781 16.941406 21.824219 13.75 C 22.097656 10.558594 22.359375 7.800781 22.410156 7.617188 C 22.539062 7.136719 22.792969 7.210938 23.339844 7.894531 C 23.601562 8.230469 24.472656 9.292969 25.269531 10.25 C 26.703125 11.976562 26.992188 12.550781 27.238281 14.199219 C 27.394531 15.246094 26.917969 16.917969 26.214844 17.757812 C 25.613281 18.480469 25.324219 18.566406 24.984375 18.132812 C 24.800781 17.898438 24.851562 17.707031 25.277344 17.046875 C 25.730469 16.339844 25.792969 16.082031 25.792969 14.824219 C 25.792969 13.632812 25.710938 13.234375 25.285156 12.371094 C 24.464844 10.699219 23.691406 9.519531 23.527344 9.691406 C 23.441406 9.777344 23.25 11.121094 23.097656 12.671875 C 22.449219 19.347656 22.097656 22.527344 21.921875 23.324219 C 21.410156 25.589844 19.171875 26.761719 17.183594 25.792969 Z M 12.511719 23.308594 C 11.523438 23.007812 9.214844 19.605469 8.574219 17.503906 C 8.203125 16.289062 8.273438 14.542969 8.722656 13.820312 C 9.03125 13.328125 9.035156 13.324219 9.699219 13.636719 C 12.53125 14.960938 17.035156 14.984375 19.910156 13.6875 C 20.59375 13.378906 20.699219 13.371094 20.945312 13.628906 C 21.097656 13.789062 21.214844 14.019531 21.214844 14.140625 C 21.195312 14.816406 20.707031 18.457031 20.621094 18.542969 C 20.566406 18.605469 20.261719 18.558594 19.945312 18.441406 C 18.496094 17.910156 16.714844 18.421875 15.472656 19.730469 C 14.628906 20.617188 14.222656 21.65625 14.222656 22.933594 C 14.222656 23.464844 14.175781 23.511719 13.640625 23.496094 C 13.320312 23.484375 12.8125 23.402344 12.511719 23.308594 Z M 13.808594 12.921875 C 12.300781 12.753906 10.097656 12.074219 10.097656 11.769531 C 10.097656 11.644531 10.234375 11.175781 10.398438 10.722656 C 10.679688 9.949219 10.734375 9.902344 11.25 10.003906 C 14.019531 10.53125 15.675781 10.535156 18.527344 10.011719 C 19.152344 9.898438 19.160156 9.90625 19.484375 10.878906 C 19.675781 11.441406 19.746094 11.929688 19.65625 12.027344 C 19.445312 12.246094 16.851562 12.902344 15.839844 12.988281 C 15.394531 13.027344 14.480469 12.996094 13.808594 12.921875 Z M 12.964844 9.351562 C 10.832031 9.019531 10.371094 8.394531 11.894531 7.882812 C 12.984375 7.519531 16.898438 7.519531 17.988281 7.882812 C 20.589844 8.753906 16.613281 9.917969 12.964844 9.351562 Z M 12.964844 9.351562 "/>
</g>
</svg>
