
<svg xmlns="http://www.w3.org/2000/svg" xmlns:xlink="http://www.w3.org/1999/xlink" width="32px" height="32px" viewBox="0 0 32 32" version="1.1">
<g id="surface1">
<path style=" stroke:none;fill-rule:nonzero;fill:rgb(100%,54.901961%,0%);fill-opacity:1;" d="M 5.828125 4.824219 C -19.183594 37.980469 49.652344 42.691406 27.5625 8.847656 C 22.523438 1.128906 12.453125 -3.957031 5.828125 4.824219 Z M 5.828125 4.824219 "/>
<path style="fill-rule:evenodd;fill:rgb(100%,100%,100%);fill-opacity:1;stroke-width:1;stroke-linecap:butt;stroke-linejoin:miter;stroke:rgb(100%,100%,100%);stroke-opacity:1;stroke-miterlimit:4;" d="M 181.24929 169.020827 C 181.24929 181.530022 164.879654 191.824946 144.068426 192.428838 C 123.257198 193.03273 105.323227 183.715537 103.311941 171.292612 C 101.300654 158.84093 115.93835 147.625789 136.554036 145.84287 C 157.169722 144.031193 176.528354 152.25563 180.522993 164.534771 " transform="matrix(0.139836,0,0,0.135838,-2.825622,-2.873442)"/>
<path style=" stroke:none;fill-rule:nonzero;fill:rgb(61.176471%,60.392157%,58.823529%);fill-opacity:1;" d="M 15.324219 24.964844 C 15.203125 24.824219 15.03125 24.789062 14.707031 24.851562 C 14.332031 24.917969 14.195312 24.875 13.894531 24.589844 C 13.671875 24.378906 13.445312 24.273438 13.320312 24.320312 C 13.1875 24.371094 13.058594 24.300781 12.964844 24.132812 C 12.777344 23.785156 12.601562 23.789062 12.308594 24.148438 C 12.101562 24.398438 12.042969 24.414062 11.851562 24.257812 C 11.699219 24.132812 11.660156 23.96875 11.71875 23.710938 C 11.835938 23.175781 11.464844 23.222656 11.089844 23.792969 C 10.925781 24.042969 10.722656 24.273438 10.636719 24.308594 C 10.472656 24.371094 9.546875 23.535156 9.546875 23.324219 C 9.546875 23.257812 9.679688 23.144531 9.839844 23.070312 C 10.128906 22.941406 10.136719 22.882812 10.136719 21.058594 C 10.136719 20.023438 10.085938 19.179688 10.027344 19.179688 C 9.964844 19.179688 9.808594 19.308594 9.679688 19.464844 C 9.476562 19.714844 9.414062 19.730469 9.230469 19.582031 C 8.917969 19.324219 8.96875 18.75 9.339844 18.40625 C 9.863281 17.917969 9.71875 16.914062 9.144531 17.058594 C 8.894531 17.125 8.496094 16.90625 8.496094 16.707031 C 8.496094 16.652344 8.992188 16.128906 9.597656 15.542969 L 10.699219 14.472656 L 10.632812 13.734375 C 10.574219 13.070312 10.601562 12.96875 10.898438 12.695312 C 11.199219 12.417969 11.222656 12.320312 11.15625 11.675781 L 11.082031 10.960938 L 12.117188 9.933594 C 12.847656 9.203125 13.21875 8.921875 13.378906 8.972656 C 13.519531 9.019531 13.667969 8.945312 13.773438 8.777344 C 13.925781 8.539062 14.074219 8.511719 15.257812 8.511719 C 16.449219 8.511719 16.589844 8.539062 16.746094 8.78125 C 16.851562 8.953125 16.996094 9.023438 17.128906 8.972656 C 17.257812 8.925781 17.476562 9.027344 17.699219 9.238281 C 17.910156 9.433594 18.128906 9.539062 18.21875 9.484375 C 18.4375 9.351562 20.992188 11.886719 20.90625 12.15625 C 20.863281 12.289062 21.480469 12.988281 22.746094 14.230469 C 23.792969 15.257812 24.652344 16.144531 24.652344 16.191406 C 24.652344 16.410156 24.257812 16.582031 23.941406 16.503906 C 23.519531 16.398438 23.457031 16.753906 23.863281 16.964844 C 24.082031 17.082031 24.125 17.238281 24.125 17.9375 C 24.125 18.816406 23.886719 19.265625 23.5 19.117188 C 23.058594 18.949219 22.996094 19.25 23.03125 21.347656 C 23.0625 23.296875 23.050781 23.414062 22.78125 23.699219 C 22.625 23.863281 22.492188 24.152344 22.488281 24.335938 C 22.484375 24.523438 22.386719 24.738281 22.265625 24.8125 C 21.957031 25.007812 21.589844 24.6875 21.667969 24.292969 C 21.738281 23.925781 21.46875 23.679688 21.117188 23.792969 C 20.886719 23.863281 20.863281 23.953125 20.933594 24.519531 L 21.007812 25.160156 L 20.527344 25.160156 C 20.082031 25.160156 20.046875 25.132812 20.082031 24.820312 C 20.105469 24.609375 20.03125 24.425781 19.894531 24.335938 C 19.710938 24.222656 19.59375 24.265625 19.277344 24.5625 C 18.949219 24.875 18.816406 24.921875 18.4375 24.851562 C 18.117188 24.789062 17.941406 24.824219 17.824219 24.964844 C 17.585938 25.246094 15.558594 25.246094 15.324219 24.964844 Z M 16.320312 24.105469 C 16.453125 23.886719 16.113281 23.734375 15.488281 23.734375 C 14.796875 23.730469 14.765625 23.921875 15.421875 24.09375 C 16.097656 24.273438 16.214844 24.273438 16.320312 24.105469 Z M 14.578125 23.550781 C 14.621094 23.351562 14.191406 23.164062 13.929688 23.265625 C 13.691406 23.355469 13.691406 23.363281 13.941406 23.546875 C 14.214844 23.746094 14.53125 23.746094 14.578125 23.550781 Z M 19.765625 23.03125 C 20.105469 22.796875 20.402344 22.507812 20.425781 22.386719 C 20.460938 22.199219 20.328125 22.167969 19.503906 22.160156 C 18.976562 22.15625 18.246094 22.101562 17.886719 22.035156 C 17.523438 21.96875 16.726562 21.851562 16.113281 21.773438 C 15.5 21.695312 14.761719 21.527344 14.472656 21.398438 C 14.183594 21.273438 13.660156 21.128906 13.3125 21.085938 L 12.683594 21 L 12.960938 21.390625 C 13.179688 21.695312 13.339844 21.78125 13.695312 21.78125 C 14.0625 21.78125 14.171875 21.84375 14.28125 22.121094 C 14.386719 22.394531 14.464844 22.441406 14.703125 22.367188 C 15.316406 22.175781 15.519531 22.222656 15.566406 22.558594 C 15.625 22.953125 15.796875 23.074219 16.285156 23.078125 C 16.488281 23.078125 16.765625 23.140625 16.902344 23.210938 C 17.242188 23.390625 18.480469 23.585938 18.847656 23.519531 C 19.011719 23.488281 19.425781 23.269531 19.765625 23.03125 Z M 13.355469 22.894531 C 13.355469 22.863281 13.296875 22.800781 13.222656 22.753906 C 13.152344 22.710938 13.089844 22.738281 13.089844 22.8125 C 13.089844 22.886719 13.152344 22.949219 13.222656 22.949219 C 13.296875 22.949219 13.355469 22.925781 13.355469 22.894531 Z M 21.792969 20.941406 C 22.152344 20.496094 22.261719 20.039062 22.039062 19.902344 C 21.972656 19.863281 21.847656 19.917969 21.761719 20.023438 C 21.640625 20.167969 21.316406 20.21875 20.539062 20.21875 C 19.644531 20.21875 19.433594 20.175781 19.183594 19.945312 L 18.890625 19.671875 L 18.65625 19.945312 C 18.523438 20.09375 18.328125 20.21875 18.21875 20.21875 C 18.109375 20.21875 17.847656 20.308594 17.640625 20.414062 C 17.144531 20.671875 16.640625 20.65625 15.464844 20.347656 C 14.039062 19.96875 13.570312 19.796875 13.390625 19.582031 C 13.171875 19.328125 13.039062 19.480469 13.140625 19.871094 C 13.203125 20.113281 13.339844 20.210938 13.714844 20.277344 C 13.984375 20.328125 14.46875 20.484375 14.785156 20.621094 C 15.234375 20.816406 15.902344 20.902344 17.742188 21.007812 C 19.691406 21.117188 20.785156 21.226562 21.367188 21.371094 C 21.402344 21.382812 21.59375 21.1875 21.792969 20.941406 Z M 21.792969 20.941406 "/>
<path style=" stroke:none;fill-rule:nonzero;fill:rgb(37.647059%,36.078431%,33.333333%);fill-opacity:1;" d="M 15.085938 24.753906 C 14.941406 24.527344 14.824219 24.492188 14.40625 24.546875 C 13.992188 24.601562 13.851562 24.558594 13.605469 24.296875 C 13.441406 24.125 13.203125 24 13.078125 24.019531 C 12.957031 24.039062 12.707031 23.917969 12.53125 23.753906 L 12.203125 23.453125 L 12 23.738281 C 11.710938 24.148438 11.367188 23.988281 11.46875 23.492188 C 11.597656 22.855469 11.269531 22.835938 10.734375 23.449219 C 10.476562 23.746094 10.203125 23.992188 10.125 23.992188 C 9.945312 23.992188 9.417969 23.429688 9.417969 23.238281 C 9.417969 23.15625 9.535156 23.027344 9.679688 22.949219 C 9.925781 22.820312 9.941406 22.679688 9.941406 20.871094 C 9.941406 18.8125 9.847656 18.488281 9.394531 19.042969 C 9.125 19.375 8.761719 19.320312 8.761719 18.945312 C 8.761719 18.8125 8.910156 18.566406 9.089844 18.398438 C 9.339844 18.164062 9.417969 17.960938 9.417969 17.546875 C 9.417969 16.929688 9.210938 16.683594 8.789062 16.792969 C 8.597656 16.839844 8.472656 16.796875 8.421875 16.660156 C 8.363281 16.511719 8.660156 16.152344 9.414062 15.449219 L 10.488281 14.449219 L 10.445312 13.703125 C 10.410156 13.058594 10.445312 12.90625 10.714844 12.625 C 10.984375 12.339844 11.019531 12.203125 10.96875 11.582031 L 10.90625 10.867188 L 11.871094 9.921875 C 12.484375 9.316406 12.9375 8.972656 13.128906 8.96875 C 13.304688 8.96875 13.476562 8.851562 13.554688 8.675781 C 13.675781 8.402344 13.765625 8.382812 14.886719 8.382812 C 16.058594 8.382812 16.089844 8.390625 16.171875 8.707031 C 16.234375 8.957031 16.335938 9.03125 16.625 9.03125 C 16.828125 9.03125 17.101562 9.148438 17.234375 9.292969 C 17.363281 9.433594 17.59375 9.550781 17.75 9.550781 C 18.121094 9.550781 20.398438 11.8125 20.347656 12.132812 C 20.324219 12.289062 20.941406 12.976562 22.164062 14.160156 C 24.023438 15.964844 24.300781 16.394531 23.492188 16.234375 C 22.964844 16.132812 22.847656 16.386719 23.226562 16.816406 C 23.523438 17.144531 23.574219 17.511719 23.484375 18.625 C 23.476562 18.714844 23.300781 18.789062 23.09375 18.789062 C 22.453125 18.789062 22.402344 18.976562 22.429688 21.1875 C 22.453125 22.863281 22.421875 23.253906 22.253906 23.441406 C 22.140625 23.5625 22.03125 23.839844 22.003906 24.054688 C 21.972656 24.34375 21.894531 24.445312 21.699219 24.445312 C 21.496094 24.445312 21.425781 24.34375 21.394531 24.015625 C 21.347656 23.535156 21.140625 23.402344 20.640625 23.527344 C 20.3125 23.605469 20.304688 23.636719 20.390625 24.320312 C 20.480469 25.023438 20.476562 25.03125 20.136719 25.03125 C 19.839844 25.03125 19.792969 24.980469 19.816406 24.671875 C 19.832031 24.472656 19.800781 24.238281 19.746094 24.148438 C 19.585938 23.890625 19.074219 23.96875 18.757812 24.300781 C 18.511719 24.5625 18.375 24.597656 17.875 24.542969 C 17.351562 24.484375 17.273438 24.507812 17.210938 24.753906 C 17.144531 25.003906 17.046875 25.03125 16.199219 25.03125 C 15.382812 25.03125 15.238281 24.996094 15.085938 24.753906 Z M 17.050781 24.113281 C 17.179688 23.921875 17.445312 23.816406 17.984375 23.746094 C 18.398438 23.691406 18.847656 23.546875 18.980469 23.425781 C 19.113281 23.308594 19.28125 23.210938 19.351562 23.210938 C 19.421875 23.210938 19.707031 22.976562 19.988281 22.691406 C 20.480469 22.195312 20.488281 22.167969 20.265625 21.921875 C 20.039062 21.675781 20.050781 21.667969 20.640625 21.578125 C 21.394531 21.464844 21.855469 20.9375 21.980469 20.042969 C 22.058594 19.46875 22.046875 19.4375 21.75 19.441406 C 21.578125 19.445312 21.320312 19.53125 21.179688 19.636719 C 21.015625 19.761719 20.613281 19.828125 20.035156 19.828125 C 19.230469 19.828125 19.121094 19.796875 18.929688 19.503906 C 18.652344 19.085938 18.546875 19.09375 18.011719 19.558594 C 17.515625 19.992188 16.710938 20.164062 15.738281 20.050781 C 14.957031 19.957031 13.515625 19.472656 13.121094 19.164062 C 12.621094 18.785156 12.082031 19.21875 12.246094 19.867188 C 12.296875 20.0625 12.25 20.234375 12.117188 20.339844 C 11.816406 20.589844 11.867188 20.847656 12.316406 21.355469 C 12.582031 21.65625 12.6875 21.878906 12.628906 22.019531 C 12.578125 22.136719 12.507812 22.355469 12.476562 22.503906 C 12.332031 23.160156 14.714844 24.355469 16.199219 24.371094 C 16.738281 24.378906 16.910156 24.328125 17.050781 24.113281 Z M 14.34375 23.082031 C 14.125 22.9375 13.789062 22.820312 13.59375 22.820312 C 13.375 22.820312 13.183594 22.722656 13.101562 22.570312 C 12.734375 21.890625 13.207031 21.65625 13.703125 22.265625 C 13.964844 22.59375 14.023438 22.613281 14.390625 22.476562 C 14.824219 22.3125 14.933594 22.359375 14.933594 22.699219 C 14.933594 22.835938 15.125 23 15.425781 23.125 L 15.917969 23.328125 L 15.328125 23.332031 C 14.949219 23.335938 14.59375 23.246094 14.34375 23.082031 Z M 14.902344 21.300781 C 14.773438 21.265625 14.671875 21.1875 14.671875 21.121094 C 14.671875 20.976562 15.179688 20.964844 15.917969 21.089844 C 16.398438 21.167969 16.414062 21.1875 16.117188 21.269531 C 15.746094 21.375 15.242188 21.386719 14.902344 21.300781 Z M 13.128906 20.777344 C 12.699219 20.695312 12.765625 20.480469 13.214844 20.480469 C 13.703125 20.480469 14.035156 20.601562 13.941406 20.753906 C 13.867188 20.871094 13.65625 20.878906 13.128906 20.777344 Z M 15.359375 18.398438 C 15.660156 18.113281 16.015625 17.84375 16.148438 17.800781 C 16.585938 17.664062 16.316406 17.417969 15.777344 17.464844 C 14.886719 17.539062 14.042969 18.308594 14.339844 18.78125 C 14.5 19.035156 14.8125 18.917969 15.359375 18.398438 Z M 20.121094 18.429688 C 20.191406 18.269531 20.300781 18.136719 20.359375 18.136719 C 20.554688 18.136719 21.5 17.316406 21.5 17.148438 C 21.5 16.652344 20.367188 16.871094 19.992188 17.441406 C 19.875 17.617188 19.640625 17.820312 19.46875 17.898438 C 19.148438 18.042969 19.003906 18.335938 19.105469 18.632812 C 19.203125 18.917969 19.972656 18.765625 20.121094 18.429688 Z M 18.285156 17.097656 C 18.328125 17.023438 18.300781 16.964844 18.226562 16.964844 C 18.148438 16.964844 18.085938 17.023438 18.085938 17.097656 C 18.085938 17.167969 18.113281 17.226562 18.144531 17.226562 C 18.175781 17.226562 18.238281 17.167969 18.285156 17.097656 Z M 18.285156 17.097656 "/>
<path style=" stroke:none;fill-rule:nonzero;fill:rgb(0%,56.470588%,0%);fill-opacity:1;" d="M 15.328125 24.710938 C 15.328125 24.425781 14.828125 24.21875 14.355469 24.304688 C 14.011719 24.371094 13.878906 24.324219 13.640625 24.050781 C 13.453125 23.835938 13.265625 23.742188 13.113281 23.789062 C 12.964844 23.835938 12.773438 23.738281 12.574219 23.511719 L 12.269531 23.164062 L 12.035156 23.449219 C 11.710938 23.84375 11.46875 23.816406 11.574219 23.394531 C 11.664062 23.039062 11.476562 22.691406 11.191406 22.691406 C 11.101562 22.691406 10.867188 22.925781 10.664062 23.210938 C 10.464844 23.496094 10.230469 23.730469 10.140625 23.730469 C 9.949219 23.730469 9.546875 23.3125 9.546875 23.109375 C 9.546875 22.953125 9.972656 22.785156 10.425781 22.761719 C 10.980469 22.734375 11.515625 21.953125 11.136719 21.722656 C 11.070312 21.679688 10.976562 21.414062 10.929688 21.128906 C 10.878906 20.84375 10.792969 20.609375 10.742188 20.609375 C 10.589844 20.609375 10.339844 21.226562 10.328125 21.621094 C 10.324219 21.816406 10.265625 22.089844 10.207031 22.234375 C 10.136719 22.398438 10.089844 21.804688 10.082031 20.65625 C 10.074219 19.132812 10.039062 18.789062 9.863281 18.644531 C 9.679688 18.496094 9.617188 18.511719 9.414062 18.757812 C 9.285156 18.917969 9.113281 19.046875 9.035156 19.046875 C 8.773438 19.046875 8.886719 18.578125 9.21875 18.265625 C 9.460938 18.042969 9.546875 17.828125 9.546875 17.457031 C 9.546875 16.691406 9.351562 16.410156 8.882812 16.511719 C 8.261719 16.648438 8.414062 16.375 9.558594 15.308594 L 10.621094 14.316406 L 10.578125 13.566406 C 10.539062 12.917969 10.574219 12.78125 10.847656 12.53125 C 11.125 12.273438 11.148438 12.160156 11.089844 11.5 L 11.019531 10.753906 L 11.96875 9.824219 C 12.652344 9.148438 12.976562 8.914062 13.136719 8.976562 C 13.417969 9.082031 13.753906 8.820312 13.753906 8.496094 C 13.753906 8.277344 13.863281 8.25 14.867188 8.25 C 15.890625 8.25 15.984375 8.273438 15.984375 8.507812 C 15.984375 8.792969 16.394531 9.066406 16.671875 8.960938 C 16.769531 8.925781 16.984375 9.046875 17.144531 9.230469 C 17.332031 9.441406 17.523438 9.539062 17.667969 9.496094 C 17.972656 9.398438 20.367188 11.753906 20.253906 12.039062 C 20.203125 12.171875 20.777344 12.816406 22.023438 14.019531 C 23.035156 15.003906 23.867188 15.871094 23.867188 15.945312 C 23.867188 16.03125 23.730469 16.050781 23.523438 16 C 23.195312 15.917969 22.816406 16.09375 22.816406 16.328125 C 22.816406 16.386719 22.945312 16.558594 23.109375 16.707031 C 23.617188 17.175781 23.480469 18.917969 22.953125 18.597656 C 22.777344 18.488281 22.289062 18.753906 22.289062 18.957031 C 22.289062 19.066406 22.125 19.105469 21.777344 19.070312 C 21.386719 19.035156 21.199219 19.089844 20.988281 19.296875 C 20.570312 19.710938 19.492188 19.679688 19.082031 19.242188 C 18.914062 19.0625 18.6875 18.917969 18.574219 18.917969 C 18.242188 18.917969 17.957031 19.0625 17.957031 19.234375 C 17.957031 19.324219 17.820312 19.449219 17.660156 19.515625 C 17.253906 19.679688 14.507812 19.542969 14.445312 19.355469 C 14.375 19.136719 14.96875 19.035156 15.773438 19.128906 C 16.164062 19.171875 16.75 19.171875 17.070312 19.125 C 17.765625 19.019531 17.972656 18.703125 17.863281 17.894531 L 17.789062 17.355469 L 18.875 17.355469 L 18.875 18.023438 C 18.875 18.878906 19.074219 19.039062 20.140625 19.042969 C 20.738281 19.046875 20.96875 18.996094 21.023438 18.851562 C 21.066406 18.746094 21.246094 18.65625 21.425781 18.65625 C 21.875 18.65625 21.960938 18.453125 21.914062 17.550781 C 21.847656 16.390625 21.746094 16.269531 20.953125 16.371094 C 20.589844 16.417969 20.199219 16.507812 20.078125 16.566406 C 19.199219 17.003906 19.148438 17.015625 18.898438 16.792969 C 18.515625 16.449219 17.847656 16.511719 17.667969 16.902344 C 17.5 17.269531 17.152344 17.324219 16.898438 17.023438 C 16.683594 16.769531 15.476562 16.890625 14.824219 17.234375 C 14.1875 17.570312 13.726562 18.242188 13.824219 18.6875 C 13.894531 19.003906 13.867188 19.046875 13.582031 19.046875 C 13.402344 19.046875 13.183594 18.960938 13.09375 18.851562 C 12.882812 18.597656 12.582031 18.605469 12.285156 18.871094 C 12.054688 19.078125 12.042969 19.066406 12.042969 18.628906 C 12.042969 17.917969 11.707031 17.246094 11.300781 17.144531 C 10.8125 17.023438 10.546875 17.238281 10.449219 17.824219 C 10.386719 18.21875 10.4375 18.460938 10.679688 18.917969 C 10.851562 19.238281 10.992188 19.6875 10.992188 19.917969 C 10.992188 20.488281 11.203125 20.566406 11.449219 20.09375 C 11.5625 19.875 11.703125 19.699219 11.761719 19.699219 C 11.996094 19.699219 12.019531 19.871094 11.832031 20.160156 C 11.601562 20.503906 11.632812 21.1875 11.878906 21.210938 C 11.96875 21.21875 12.097656 21.234375 12.167969 21.242188 C 12.359375 21.269531 12.476562 21.773438 12.328125 21.949219 C 12.257812 22.035156 12.230469 22.261719 12.265625 22.449219 C 12.382812 23.046875 13.96875 24.121094 14.738281 24.121094 C 14.957031 24.121094 15.273438 24.214844 15.4375 24.328125 C 15.640625 24.46875 15.941406 24.519531 16.386719 24.492188 C 16.933594 24.453125 17.035156 24.480469 17.035156 24.671875 C 17.035156 24.867188 16.90625 24.902344 16.183594 24.902344 C 15.519531 24.902344 15.328125 24.859375 15.328125 24.710938 Z M 19.925781 24.472656 C 19.925781 23.695312 19.265625 23.464844 18.714844 24.050781 C 18.457031 24.328125 18.335938 24.363281 17.898438 24.292969 L 17.386719 24.210938 L 17.683594 23.96875 C 17.851562 23.839844 18.140625 23.730469 18.332031 23.726562 C 18.910156 23.722656 20.550781 22.515625 20.625 22.039062 C 20.675781 21.707031 20.929688 21.523438 21.335938 21.519531 C 21.5 21.519531 21.632812 21.441406 21.632812 21.351562 C 21.632812 21.257812 21.707031 21.109375 21.796875 21.019531 C 21.886719 20.929688 22.027344 20.582031 22.109375 20.246094 L 22.257812 19.632812 L 22.273438 20.402344 C 22.28125 20.824219 22.25 21.132812 22.203125 21.085938 C 22.097656 20.984375 21.773438 21.386719 21.769531 21.632812 C 21.765625 21.742188 21.859375 21.785156 22.011719 21.746094 C 22.226562 21.691406 22.269531 21.773438 22.328125 22.347656 C 22.382812 22.882812 22.34375 23.066406 22.144531 23.285156 C 22.007812 23.429688 21.894531 23.710938 21.894531 23.902344 C 21.894531 24.464844 21.523438 24.339844 21.476562 23.761719 C 21.445312 23.363281 21.378906 23.265625 21.128906 23.230469 C 20.957031 23.207031 20.671875 23.226562 20.492188 23.269531 C 20.175781 23.347656 20.167969 23.375 20.253906 24.125 C 20.332031 24.785156 20.3125 24.902344 20.136719 24.902344 C 19.984375 24.902344 19.925781 24.777344 19.925781 24.472656 Z M 13.246094 22.398438 C 13.042969 22.195312 13.054688 22.039062 13.277344 22.039062 C 13.488281 22.039062 13.664062 22.386719 13.503906 22.484375 C 13.445312 22.519531 13.332031 22.480469 13.246094 22.398438 Z M 13.246094 22.398438 "/>
<path style="fill-rule:nonzero;fill:rgb(9.803922%,10.196078%,5.098039%);fill-opacity:1;stroke-width:1;stroke-linecap:butt;stroke-linejoin:miter;stroke:rgb(9.803922%,10.196078%,5.098039%);stroke-opacity:1;stroke-miterlimit:4;" d="M 111.557262 203.044004 C 111.557262 200.851827 107.750685 199.260247 104.122542 199.920903 C 101.505521 200.43141 100.524138 200.071052 98.710066 197.968965 C 97.252861 196.317325 95.825395 195.596609 94.695318 195.956967 C 93.535501 196.317325 92.108035 195.566579 90.591352 193.82485 L 88.241981 191.152196 L 86.487387 193.344372 C 84.01906 196.377384 82.17525 196.167175 82.978199 192.923955 C 83.662194 190.191241 82.204989 187.518587 80.063789 187.518587 C 79.379795 187.518587 77.565724 189.320377 76.049041 191.512553 C 74.532358 193.70473 72.718286 195.506519 72.064031 195.506519 C 70.606826 195.506519 67.543722 192.293329 67.543722 190.731778 C 67.543722 189.530585 70.785259 188.239303 74.234969 188.059124 C 78.45789 187.848916 82.502377 181.842952 79.647445 180.071192 C 79.141884 179.740864 78.428151 177.698837 78.041546 175.50666 C 77.684679 173.314483 77.030424 171.512694 76.614079 171.512694 C 75.484002 171.512694 73.550975 176.257405 73.491497 179.290417 C 73.432019 180.791908 73.015675 182.893995 72.539853 184.005099 C 72.004553 185.266351 71.647687 180.701819 71.617948 171.873052 C 71.55847 160.161422 71.261081 157.518798 69.922832 156.407695 C 68.554843 155.266561 68.049283 155.386681 66.5326 157.278559 C 65.521478 158.509782 64.242706 159.500766 63.647929 159.500766 C 61.655424 159.500766 62.517851 155.897188 65.045656 153.494802 C 67.603199 151.122446 68.257455 146.798152 66.889466 141.663053 C 66.354166 139.621026 65.848606 139.410817 62.904457 139.981383 C 58.592319 140.792189 58.324669 138.509922 62.398896 135.59703 L 65.253828 133.585032 L 64.837484 135.837268 C 64.212967 139.110519 68.019544 140.52192 80.539611 141.663053 C 91.751169 142.714097 120.954747 141.873262 123.660985 140.431831 C 125.11819 139.681085 148.522687 136.467895 164.789854 134.816255 C 168.86408 134.395837 170.559196 133.795241 170.559196 132.774227 C 170.559196 131.993451 166.990531 127.879366 162.648655 123.675192 C 158.306778 119.440987 153.935163 114.666246 152.95378 113.014606 C 151.972397 111.362966 156.760357 115.416991 163.600299 121.993522 C 170.440241 128.600082 176.209583 134.606046 176.388016 135.356791 C 176.655666 136.377805 175.971672 136.527954 173.503345 135.987417 C 171.272929 135.50694 170.053635 135.687119 169.429119 136.648073 C 168.180086 138.660071 168.32878 139.230638 170.767368 141.512904 C 174.663161 145.116483 173.592562 158.509782 169.607552 156.047337 C 168.269303 155.206502 164.551943 157.24853 164.551943 158.81008 C 164.551943 159.650915 163.273171 159.951213 160.65615 159.680945 C 157.682262 159.410677 156.225057 159.831094 154.648896 161.422674 C 151.466836 164.605835 143.258906 164.365597 140.136324 161.002257 C 138.857552 159.620885 137.132697 158.509782 136.270269 158.509782 C 133.712726 158.509782 131.541788 159.620885 131.541788 160.942197 C 131.541788 161.632883 130.530666 162.593837 129.311372 163.104344 C 126.18879 164.365597 105.312097 163.314553 104.836275 161.873122 C 104.271236 160.191452 108.791546 159.410677 114.917755 160.131392 C 117.921382 160.46172 122.382213 160.46172 124.820801 160.101362 C 130.114322 159.290557 131.660743 156.858142 130.828055 150.641969 L 130.292755 146.497854 L 138.560163 146.497854 L 138.560163 151.632953 C 138.560163 158.209484 140.076846 159.440706 148.19556 159.470736 C 152.745608 159.500766 154.470463 159.110378 154.916546 157.999275 C 155.213935 157.18847 156.611662 156.497784 157.949912 156.497784 C 161.369883 156.497784 162.053877 154.936233 161.667272 147.999345 C 161.19145 139.080489 160.418239 138.149564 154.351508 138.93034 C 151.615531 139.290698 148.611904 139.981383 147.719738 140.431831 C 140.998751 143.79517 140.612146 143.88526 138.738596 142.17356 C 135.824186 139.530936 130.738838 140.011413 129.37085 143.014395 C 128.092078 145.837198 125.415579 146.257616 123.512291 143.94532 C 121.876652 141.993381 112.6576 142.924306 107.720946 145.56693 C 102.84377 148.149494 99.334583 153.314623 100.107793 156.738023 C 100.643093 159.170438 100.405182 159.500766 98.263983 159.500766 C 96.895995 159.500766 95.230617 158.84011 94.546623 157.999275 C 92.910985 156.047337 90.65083 156.107396 88.390675 158.149424 C 86.636081 159.741005 86.546865 159.650915 86.546865 156.287575 C 86.546865 150.822148 83.989321 145.657019 80.896478 144.876244 C 77.179118 143.94532 75.156874 145.59696 74.413402 150.101433 C 73.907842 153.134444 74.294447 154.996293 76.167996 158.509782 C 77.476507 160.972227 78.547107 164.425656 78.547107 166.197416 C 78.547107 170.581769 80.153006 171.182366 82.026555 167.548758 C 82.888983 165.867088 83.959582 164.515746 84.405666 164.515746 C 86.160259 164.515746 86.368432 165.837058 84.911227 168.059265 C 83.186372 170.701889 83.424283 175.957107 85.297832 176.137286 C 85.981826 176.197346 86.963209 176.317465 87.46877 176.377525 C 88.925975 176.587733 89.818141 180.46158 88.717803 181.812922 C 88.182503 182.473578 87.944592 184.215307 88.241981 185.656739 C 89.104408 190.251301 101.208132 198.509501 107.066691 198.509501 C 108.732068 198.509501 111.140917 199.230217 112.38995 200.101082 C 113.936372 201.182155 116.226265 201.572543 119.586759 201.362334 C 123.779941 201.062036 124.553151 201.272245 124.553151 202.743706 C 124.553151 204.245197 123.571768 204.515465 118.040337 204.515465 C 113.014467 204.515465 111.557262 204.185137 111.557262 203.044004 Z M 146.559921 201.212185 C 146.559921 195.236251 141.534051 193.464492 137.340869 197.968965 C 135.378103 200.101082 134.456198 200.37135 131.125444 199.830813 L 127.22965 199.200187 L 129.489805 197.338338 C 130.738838 196.347354 132.969254 195.506519 134.39672 195.47649 C 138.827813 195.44646 151.318142 186.167246 151.853442 182.503608 C 152.269786 179.951073 154.173074 178.539672 157.295657 178.509642 C 158.544689 178.509642 159.555811 177.909045 159.555811 177.218359 C 159.555811 176.497644 160.12085 175.356511 160.804844 174.665825 C 161.488838 173.975139 162.559438 171.302485 163.183954 168.719921 L 164.314032 164.005239 L 164.432987 169.921113 C 164.492465 173.164334 164.254554 175.53669 163.897688 175.176332 C 163.094738 174.395556 160.626411 177.488628 160.566933 179.380506 C 160.566933 180.221341 161.250927 180.551669 162.440482 180.251371 C 164.046382 179.830954 164.403248 180.46158 164.819593 184.875963 C 165.235937 188.990049 164.968287 190.40145 163.451604 192.08312 C 162.410744 193.194223 161.548316 195.35637 161.548316 196.827832 C 161.548316 201.152125 158.723123 200.191171 158.366256 195.746758 C 158.098606 192.683716 157.622784 191.932971 155.689757 191.662703 C 154.410985 191.482524 152.210308 191.632673 150.84232 191.963001 C 148.433471 192.563597 148.373993 192.773806 149.057987 198.539531 C 149.652765 203.614571 149.50407 204.515465 148.136082 204.515465 C 147.006005 204.515465 146.559921 203.554511 146.559921 201.212185 Z M 95.706439 185.266351 C 94.130279 183.7048 94.249234 182.503608 95.94435 182.503608 C 97.520511 182.503608 98.858761 185.176262 97.669205 185.927007 C 97.223122 186.197275 96.360695 185.896977 95.706439 185.266351 Z M 69.506488 129.170648 C 71.380037 127.158651 73.104892 125.50701 73.313064 125.50701 C 74.20523 125.50701 70.487871 129.861334 68.37641 131.242706 C 66.829988 132.29375 67.216594 131.573034 69.506488 129.170648 Z M 75.335308 117.909466 C 75.037919 113.9155 75.335308 111.543144 76.227474 110.55216 C 77.327813 109.320938 77.535985 110.041654 77.535985 115.056633 C 77.506246 123.344864 75.870608 125.476981 75.335308 117.909466 Z M 146.024622 103.795451 C 145.0135 102.26393 140.879796 97.699398 136.77583 93.675402 C 132.701604 89.651406 129.668238 86.047828 129.995366 85.7175 C 130.352233 85.387172 134.991498 89.441197 140.314757 94.786505 C 147.214177 101.663334 149.682504 104.786435 148.909293 105.537181 C 148.165821 106.287926 147.333132 105.807449 146.024622 103.795451 Z M 79.052668 98.510203 C 78.45789 96.588294 79.52849 95.056774 85.803393 88.750512 C 91.959341 82.624428 93.624718 81.453265 95.052184 82.234041 C 96.628345 83.134935 96.568867 83.285084 94.427668 83.825621 C 91.334824 84.636426 81.550733 94.095819 81.520994 96.287996 C 81.520994 97.24895 81.134389 98.630322 80.628828 99.381068 C 79.974573 100.462141 79.617706 100.281962 79.052668 98.510203 Z M 122.560647 82.44425 C 122.560647 81.873683 123.00673 81.663474 123.54203 81.993802 C 124.107068 82.35416 124.553151 82.834637 124.553151 83.074876 C 124.553151 83.315114 124.107068 83.495293 123.54203 83.495293 C 123.00673 83.495293 122.560647 83.044846 122.560647 82.44425 Z M 99.542755 78.96079 C 99.542755 76.558405 99.691449 76.498345 108.048074 76.498345 C 115.482794 76.498345 116.553393 76.738584 116.553393 78.270105 C 116.553393 79.741566 115.750443 79.951775 111.021962 79.651476 C 107.988596 79.471297 104.18202 79.801625 102.546381 80.372192 C 99.750927 81.333146 99.542755 81.243057 99.542755 78.96079 Z M 99.542755 78.96079 " transform="matrix(0.131352,0,0,0.130079,0.936616,-1.700831)"/>
</g>
</svg>
