
<svg xmlns="http://www.w3.org/2000/svg" xmlns:xlink="http://www.w3.org/1999/xlink" width="32px" height="32px" viewBox="0 0 32 32" version="1.1">
<g id="surface1">
<path style=" stroke:none;fill-rule:nonzero;fill:rgb(27.45098%,50.980392%,70.588235%);fill-opacity:1;" d="M 28.730469 24.4375 C 40.140625 8.285156 19.070312 -8.085938 5.628906 5.078125 C -7.035156 17.480469 4.707031 36.746094 20.464844 30.722656 C 23.753906 29.46875 26.636719 27.402344 28.730469 24.4375 Z M 28.730469 24.4375 "/>
<path style=" stroke:none;fill-rule:nonzero;fill:rgb(100%,100%,100%);fill-opacity:1;" d="M 14.375 25.464844 L 14.375 26.871094 L 12.746094 26.871094 C 12.449219 26.871094 12.210938 27.097656 12.210938 27.386719 C 12.210938 27.667969 12.449219 27.898438 12.746094 27.898438 L 18.699219 27.898438 C 18.996094 27.898438 19.234375 27.667969 19.234375 27.386719 C 19.234375 27.097656 18.996094 26.871094 18.699219 26.871094 L 17.070312 26.871094 L 17.070312 25.464844 Z M 14.375 25.464844 "/>
<path style=" stroke:none;fill-rule:nonzero;fill:rgb(100%,100%,100%);fill-opacity:1;" d="M 8.804688 17.203125 C 8.554688 17.203125 8.351562 17.398438 8.351562 17.640625 L 8.351562 25.558594 C 8.351562 25.800781 8.554688 25.996094 8.804688 25.996094 L 22.640625 25.996094 C 22.890625 25.996094 23.09375 25.800781 23.09375 25.558594 L 23.09375 17.640625 C 23.09375 17.398438 22.890625 17.203125 22.640625 17.203125 Z M 9.691406 18.355469 L 21.753906 18.355469 L 21.753906 24.839844 L 9.691406 24.839844 Z M 9.691406 18.355469 "/>
<path style=" stroke:none;fill-rule:nonzero;fill:rgb(67.843137%,84.705882%,90.196078%);fill-opacity:1;" d="M 14.375 13.226562 L 14.375 14.5625 L 12.746094 14.5625 C 12.449219 14.5625 12.210938 14.777344 12.210938 15.050781 C 12.210938 15.320312 12.449219 15.539062 12.746094 15.539062 L 18.699219 15.539062 C 18.996094 15.539062 19.234375 15.320312 19.234375 15.050781 C 19.234375 14.777344 18.996094 14.5625 18.699219 14.5625 L 17.070312 14.5625 L 17.070312 13.226562 Z M 14.375 13.226562 "/>
<path style=" stroke:none;fill-rule:nonzero;fill:rgb(67.843137%,84.705882%,90.196078%);fill-opacity:1;" d="M 8.804688 5.386719 C 8.554688 5.386719 8.351562 5.570312 8.351562 5.800781 L 8.351562 13.316406 C 8.351562 13.546875 8.554688 13.730469 8.804688 13.730469 L 22.640625 13.730469 C 22.890625 13.730469 23.09375 13.546875 23.09375 13.316406 L 23.09375 5.800781 C 23.09375 5.570312 22.890625 5.386719 22.640625 5.386719 Z M 9.691406 6.480469 L 21.753906 6.480469 L 21.753906 12.632812 L 9.691406 12.632812 Z M 9.691406 6.480469 "/>
</g>
</svg>
