
<svg xmlns="http://www.w3.org/2000/svg" xmlns:xlink="http://www.w3.org/1999/xlink" width="32px" height="32px" viewBox="0 0 32 32" version="1.1">
<g id="surface1">
<path style=" stroke:none;fill-rule:nonzero;fill:rgb(60.392157%,80.392157%,19.607843%);fill-opacity:1;" d="M 7.472656 28.679688 C 19.378906 39.191406 37.695312 22.609375 30.289062 8.730469 C 22.800781 -5.300781 -1.980469 -1.5625 0.125 15.671875 C 0.753906 20.800781 3.589844 25.25 7.472656 28.679688 Z M 7.472656 28.679688 "/>
<path style=" stroke:none;fill-rule:nonzero;fill:rgb(100%,100%,100%);fill-opacity:1;" d="M 16.136719 5.621094 C 10.621094 5.621094 6.140625 10.183594 6.140625 15.796875 C 6.140625 21.410156 10.621094 25.96875 16.136719 25.96875 C 21.652344 25.96875 26.132812 21.410156 26.132812 15.796875 C 26.132812 10.183594 21.652344 5.621094 16.136719 5.621094 Z M 16.136719 6.589844 C 21.136719 6.589844 25.179688 10.707031 25.179688 15.796875 C 25.179688 18.054688 24.382812 20.121094 23.058594 21.722656 C 22.773438 21.046875 22.382812 20.4375 21.886719 19.90625 C 21.417969 19.40625 20.859375 18.988281 20.214844 18.648438 C 19.941406 18.894531 19.644531 19.109375 19.332031 19.296875 C 20.09375 19.628906 20.707031 20.050781 21.191406 20.574219 C 21.707031 21.125 22.085938 21.761719 22.339844 22.496094 C 20.722656 24.050781 18.539062 25 16.136719 25 C 13.722656 25 11.535156 24.042969 9.917969 22.480469 C 10.183594 21.75 10.5625 21.117188 11.054688 20.570312 C 11.582031 20.007812 12.257812 19.554688 13.109375 19.214844 C 13.941406 18.878906 14.949219 18.703125 16.128906 18.703125 C 16.132812 18.703125 16.136719 18.703125 16.136719 18.703125 C 16.824219 18.703125 17.472656 18.582031 18.070312 18.332031 L 18.078125 18.324219 C 18.667969 18.066406 19.1875 17.691406 19.613281 17.214844 C 20.050781 16.742188 20.386719 16.175781 20.621094 15.527344 C 20.859375 14.878906 20.972656 14.15625 20.972656 13.375 L 20.972656 13.371094 C 20.972656 12.605469 20.859375 11.886719 20.621094 11.238281 C 20.386719 10.582031 20.050781 10.007812 19.613281 9.53125 C 19.1875 9.054688 18.667969 8.6875 18.074219 8.4375 C 17.476562 8.175781 16.824219 8.042969 16.136719 8.042969 C 15.449219 8.042969 14.800781 8.175781 14.199219 8.4375 C 13.605469 8.6875 13.082031 9.054688 12.644531 9.527344 L 12.640625 9.535156 C 12.214844 10.011719 11.882812 10.582031 11.652344 11.238281 C 11.414062 11.890625 11.300781 12.605469 11.300781 13.375 C 11.300781 14.15625 11.414062 14.878906 11.652344 15.53125 C 11.886719 16.175781 12.214844 16.738281 12.640625 17.214844 L 12.644531 17.21875 C 12.9375 17.535156 13.269531 17.808594 13.632812 18.027344 C 13.332031 18.109375 13.035156 18.199219 12.761719 18.3125 C 11.800781 18.699219 10.996094 19.226562 10.363281 19.90625 L 10.363281 19.910156 L 10.359375 19.914062 C 9.878906 20.441406 9.496094 21.042969 9.203125 21.707031 C 7.886719 20.109375 7.09375 18.050781 7.09375 15.796875 C 7.09375 10.707031 11.136719 6.59375 16.136719 6.59375 Z M 16.136719 9.011719 C 16.710938 9.011719 17.226562 9.121094 17.699219 9.328125 L 17.703125 9.332031 L 17.707031 9.332031 C 18.183594 9.53125 18.578125 9.8125 18.914062 10.183594 L 18.917969 10.1875 L 18.917969 10.191406 C 19.261719 10.566406 19.535156 11.019531 19.730469 11.566406 L 19.730469 11.574219 C 19.921875 12.105469 20.019531 12.699219 20.019531 13.375 C 20.019531 14.058594 19.921875 14.664062 19.730469 15.191406 C 19.535156 15.730469 19.265625 16.179688 18.917969 16.554688 L 18.917969 16.558594 L 18.914062 16.5625 C 18.578125 16.9375 18.179688 17.222656 17.703125 17.433594 C 17.230469 17.632812 16.710938 17.734375 16.136719 17.734375 C 15.5625 17.734375 15.046875 17.632812 14.574219 17.433594 C 14.097656 17.222656 13.691406 16.933594 13.339844 16.558594 C 13.003906 16.183594 12.738281 15.730469 12.542969 15.191406 C 12.355469 14.664062 12.253906 14.058594 12.253906 13.375 C 12.253906 12.699219 12.351562 12.105469 12.542969 11.574219 L 12.546875 11.570312 L 12.546875 11.566406 C 12.742188 11.019531 13.007812 10.566406 13.339844 10.191406 C 13.691406 9.816406 14.09375 9.53125 14.566406 9.332031 L 14.570312 9.332031 L 14.574219 9.328125 C 15.050781 9.121094 15.566406 9.011719 16.136719 9.011719 Z M 16.136719 9.011719 "/>
</g>
</svg>
