
<svg xmlns="http://www.w3.org/2000/svg" xmlns:xlink="http://www.w3.org/1999/xlink" width="32px" height="32px" viewBox="0 0 32 32" version="1.1">
<g id="surface1">
<path style=" stroke:none;fill-rule:nonzero;fill:rgb(57.647059%,43.921569%,85.882353%);fill-opacity:1;" d="M 3.984375 24.226562 C 30.328125 52.566406 46.925781 -5.921875 11.953125 0.527344 C 2.726562 3.710938 -4.476562 15.128906 3.984375 24.226562 Z M 3.984375 24.226562 "/>
<path style="fill-rule:evenodd;fill:rgb(100%,100%,100%);fill-opacity:1;stroke-width:1.056341;stroke-linecap:butt;stroke-linejoin:miter;stroke:rgb(54.117647%,16.862745%,88.627451%);stroke-opacity:1;stroke-miterlimit:4;" d="M 65.21875 145.6875 C 58.03125 142.5 53.53125 139.71875 48.28125 135.28125 L 43.34375 131.09375 L 47.3125 107.46875 L 51.25 83.8125 L 56.25 82.15625 C 72.6875 76.625 97.78125 73.96875 119.5625 75.40625 C 129.28125 76.0625 157.1875 81.21875 165.625 83.90625 C 182.9375 89.40625 204.0625 99.8125 215.65625 108.53125 L 221.59375 113 L 218.125 136.6875 L 214.65625 160.40625 L 210 162.4375 C 199.65625 166.9375 186.71875 168.03125 173.3125 165.53125 C 159.125 162.875 153.34375 159.9375 137.28125 147.25 C 131.5 142.6875 126.3125 141.96875 119.25 144.8125 C 108.6875 149 103.125 150.46875 95.9375 150.875 C 89.03125 151.28125 70.875 148.25 65.21875 145.6875 Z M 103.90625 124.9375 C 106.28125 124.71875 111.4375 123.625 115.40625 122.5 C 121.09375 120.875 122.625 120.03125 122.875 118.4375 C 123.3125 115.8125 121.4375 113.625 115.6875 109.90625 C 106.53125 104.03125 93.5 100.03125 83.78125 100.15625 C 78.6875 100.21875 67.21875 102.4375 63.96875 104.03125 C 57.125 107.34375 61.09375 112.375 76.34375 119.78125 C 83.65625 123.34375 95.78125 125.59375 103.90625 124.9375 Z M 187.71875 138.8125 C 194.3125 138.28125 203.25 135.59375 205 133.625 C 206.78125 131.625 205.59375 129.375 201.03125 126 C 186.65625 115.4375 166.53125 111.78125 150.53125 116.84375 C 140.9375 119.90625 140.84375 122.4375 150 128.9375 C 160.34375 136.28125 174.15625 139.875 187.71875 138.8125 Z M 187.71875 138.8125 " transform="matrix(0.125,0,0,0.125,0,0)"/>
</g>
</svg>
