
<svg xmlns="http://www.w3.org/2000/svg" xmlns:xlink="http://www.w3.org/1999/xlink" width="32px" height="32px" viewBox="0 0 32 32" version="1.1">
<defs>
<linearGradient id="linear0" gradientUnits="userSpaceOnUse" x1="4" y1="0" x2="44" y2="0" gradientTransform="matrix(0.346657,0,0,0.401163,7.015,6.38375)">
<stop offset="0" style="stop-color:rgb(10.196078%,10.196078%,10.196078%);stop-opacity:1;"/>
<stop offset="1" style="stop-color:rgb(22.352941%,22.352941%,22.352941%);stop-opacity:1;"/>
</linearGradient>
<linearGradient id="linear1" gradientUnits="userSpaceOnUse" x1="6" y1="0" x2="90" y2="0" gradientTransform="matrix(0.165075,0,0,0.158443,7.411229,7.037645)">
<stop offset="0" style="stop-color:rgb(92.54902%,92.54902%,92.54902%);stop-opacity:1;"/>
<stop offset="1" style="stop-color:rgb(100%,100%,100%);stop-opacity:1;"/>
</linearGradient>
</defs>
<g id="surface1">
<path style=" stroke:none;fill-rule:nonzero;fill:rgb(46.666667%,53.333333%,60%);fill-opacity:1;" d="M 24.230469 2.332031 C 52.394531 26.511719 -5.519531 49.757812 0.433594 12.367188 C 1.738281 4.167969 16.636719 -4.183594 24.230469 2.332031 Z M 24.230469 2.332031 "/>
<path style=" stroke:none;fill-rule:nonzero;fill:url(#linear0);" d="M 8.402344 7.988281 L 22.269531 7.988281 L 22.269531 24.035156 L 8.402344 24.035156 Z M 8.402344 7.988281 "/>
<path style=" stroke:none;fill-rule:nonzero;fill:url(#linear1);" d="M 8.402344 7.988281 L 22.269531 7.988281 L 22.269531 21.296875 L 8.402344 21.296875 Z M 8.402344 7.988281 "/>
<path style=" stroke:none;fill-rule:nonzero;fill:rgb(0%,0%,0%);fill-opacity:0.501961;" d="M 8.402344 24.035156 C 15.335938 23.632812 15.335938 23.632812 22.269531 24.035156 Z M 8.402344 24.035156 "/>
<path style=" stroke:none;fill-rule:nonzero;fill:rgb(100%,100%,100%);fill-opacity:0.74902;" d="M 8.402344 7.988281 C 15.335938 8.390625 15.335938 8.390625 22.269531 7.988281 Z M 8.402344 7.988281 "/>
</g>
</svg>
