
<svg xmlns="http://www.w3.org/2000/svg" xmlns:xlink="http://www.w3.org/1999/xlink" width="32px" height="32px" viewBox="0 0 32 32" version="1.1">
<g id="surface1">
<path style=" stroke:none;fill-rule:nonzero;fill:rgb(50.196078%,50.196078%,50.196078%);fill-opacity:1;" d="M 4.042969 27.183594 C -14.257812 -0.988281 35.730469 -11.886719 31.75 17.09375 C 30.125 28.910156 11.046875 37.960938 4.042969 27.183594 Z M 4.042969 27.183594 "/>
<path style=" stroke:none;fill-rule:nonzero;fill:rgb(18.431373%,30.980392%,30.980392%);fill-opacity:1;" d="M 7.511719 25.339844 C 7.347656 25.269531 6.976562 24.957031 6.6875 24.652344 L 6.164062 24.09375 L 6.164062 7.316406 L 7.441406 6.011719 L 23.882812 6.011719 L 25.160156 7.316406 L 25.160156 24.105469 L 23.882812 25.410156 L 15.847656 25.441406 C 11.425781 25.457031 7.675781 25.410156 7.511719 25.339844 Z M 10.585938 22.496094 L 11.425781 21.644531 L 12.085938 22.089844 C 13.519531 23.058594 13.734375 23.097656 18.011719 23.160156 L 21.933594 23.222656 L 22.183594 22.6875 C 22.660156 21.667969 22.652344 21.667969 18.84375 21.664062 C 15.042969 21.660156 13.660156 21.515625 12.667969 21.015625 L 11.996094 20.675781 L 11.847656 14.105469 L 9.003906 14.105469 L 8.960938 14.675781 C 8.910156 15.292969 9 15.351562 10.128906 15.441406 L 10.652344 15.480469 L 10.695312 17.847656 C 10.71875 19.152344 10.703125 20.359375 10.660156 20.535156 C 10.617188 20.710938 10.210938 21.105469 9.757812 21.417969 C 9.300781 21.722656 8.933594 22.015625 8.933594 22.066406 C 8.933594 22.21875 9.578125 23.347656 9.664062 23.347656 C 9.707031 23.347656 10.125 22.964844 10.585938 22.496094 Z M 18.203125 18.917969 L 18.277344 16.550781 L 19.847656 16.472656 L 21.417969 16.398438 L 21.503906 11.894531 L 20.039062 11.890625 C 19.234375 11.890625 18.488281 11.832031 18.378906 11.761719 C 18.261719 11.683594 18.199219 11.425781 18.230469 11.113281 L 18.277344 10.597656 L 22.019531 10.441406 L 22.0625 9.871094 L 22.109375 9.296875 L 20.34375 9.292969 C 19.371094 9.292969 18.496094 9.242188 18.402344 9.179688 C 18.308594 9.117188 18.207031 8.824219 18.175781 8.535156 C 18.132812 8.035156 18.09375 8 17.605469 8 C 17.109375 8 17.078125 8.027344 17.035156 8.574219 C 16.980469 9.261719 16.917969 9.285156 14.761719 9.335938 L 13.191406 9.375 L 13.191406 10.441406 L 16.933594 10.597656 L 16.980469 11.113281 C 17.011719 11.425781 16.949219 11.683594 16.832031 11.761719 C 16.722656 11.832031 15.976562 11.890625 15.171875 11.890625 L 13.707031 11.894531 L 13.792969 16.398438 L 14.726562 16.445312 C 15.386719 16.476562 15.660156 16.550781 15.660156 16.695312 C 15.660156 16.941406 13.824219 18.722656 13.332031 18.949219 C 13.144531 19.039062 12.957031 19.195312 12.917969 19.296875 C 12.824219 19.539062 13.394531 20.445312 13.640625 20.445312 C 14.074219 20.445312 16.097656 18.425781 16.574219 17.515625 C 16.902344 16.890625 17.007812 17.300781 17.007812 19.199219 C 17.007812 20.277344 17.054688 21.207031 17.113281 21.269531 C 17.171875 21.328125 17.425781 21.355469 17.675781 21.332031 L 18.128906 21.285156 Z M 14.824219 14.890625 C 14.78125 14.777344 14.765625 14.347656 14.792969 13.9375 L 14.839844 13.191406 L 16.933594 13.191406 L 16.976562 14.144531 L 17.019531 15.101562 L 15.960938 15.101562 C 15.199219 15.101562 14.878906 15.042969 14.824219 14.890625 Z M 18.265625 14.898438 C 18.222656 14.777344 18.207031 14.347656 18.230469 13.9375 L 18.277344 13.191406 L 19.285156 13.148438 C 20.234375 13.105469 20.292969 13.121094 20.378906 13.464844 C 20.425781 13.667969 20.445312 14.101562 20.417969 14.429688 L 20.371094 15.027344 L 19.359375 15.070312 C 18.59375 15.105469 18.328125 15.0625 18.269531 14.898438 Z M 22.003906 19.886719 C 22.210938 19.59375 22.246094 19.417969 22.136719 19.238281 C 21.941406 18.914062 20.335938 17.582031 19.78125 17.285156 C 19.363281 17.058594 19.328125 17.066406 19.066406 17.398438 C 18.914062 17.589844 18.808594 17.835938 18.832031 17.945312 C 18.882812 18.167969 21.339844 20.261719 21.566406 20.277344 C 21.652344 20.277344 21.847656 20.105469 22.003906 19.886719 Z M 11.679688 11.058594 C 11.8125 10.855469 11.921875 10.59375 11.921875 10.480469 C 11.921875 10.152344 10.191406 8.5 9.910156 8.558594 C 9.769531 8.589844 9.546875 8.800781 9.410156 9.03125 L 9.160156 9.449219 L 10.125 10.441406 C 10.65625 10.988281 11.167969 11.4375 11.261719 11.4375 C 11.359375 11.4375 11.546875 11.269531 11.679688 11.058594 Z M 11.679688 11.058594 "/>
</g>
</svg>
