
<svg xmlns="http://www.w3.org/2000/svg" xmlns:xlink="http://www.w3.org/1999/xlink" width="32px" height="32px" viewBox="0 0 32 32" version="1.1">
<g id="surface1">
<path style=" stroke:none;fill-rule:nonzero;fill:rgb(35.686275%,35.686275%,35.686275%);fill-opacity:1;" d="M 7.769531 2.332031 C -20.394531 26.511719 37.519531 49.757812 31.566406 12.367188 C 30.261719 4.167969 15.359375 -4.179688 7.769531 2.332031 Z M 7.769531 2.332031 "/>
<path style="fill-rule:nonzero;fill:rgb(24.313725%,98.823529%,24.313725%);fill-opacity:1;stroke-width:1.085;stroke-linecap:butt;stroke-linejoin:miter;stroke:rgb(24.313725%,98.823529%,24.313725%);stroke-opacity:1;stroke-miterlimit:4;" d="M 147.556573 216.135188 C 147.390761 215.341012 147.306765 213.330831 146.879255 201.995264 C 146.670457 196.719323 146.36734 196.103834 142.963617 194.08954 C 136.245515 190.129604 136.610537 184.704347 143.771569 181.615587 C 150.223574 178.82365 152.361723 176.837696 150.855762 175.013728 C 149.202295 173.054553 147.630726 173.13674 127.151217 176.331671 C 116.230611 178.039931 107.782163 178.849617 105.213133 178.39488 C 93.041351 176.354427 87.600418 160.860411 95.094922 149.55672 C 96.663734 147.187931 98.91603 142.108899 100.08037 138.303461 C 101.277988 134.468941 103.92332 129.134466 106.01618 126.425087 C 109.623598 121.687797 109.756995 121.101677 109.75617 112.26916 C 109.754482 104.84602 109.468723 103.041509 108.152884 103.046939 C 105.271771 103.041017 102.925936 108.113755 103.677663 112.768488 C 104.557728 118.308838 102.657005 119.559068 99.28771 115.636523 C 94.844487 110.451531 97.010318 100.605922 103.435914 96.809943 C 107.187301 94.588002 107.062211 91.792036 103.177343 91.34273 C 97.770967 90.69709 95.837912 93.824392 91.235753 110.553256 C 85.052277 133.095355 79.94832 140.989317 71.679135 140.996723 C 67.70044 141.010915 61.876346 136.797922 59.3162 132.021515 C 57.646814 128.9024 56.308763 127.841429 53.367675 127.330339 C 48.506037 126.502105 44.898742 124.254869 41.128596 119.772899 C 39.475128 117.813724 37.160595 115.904034 35.965568 115.510422 C 34.799622 115.150088 33.846216 113.958392 33.826101 112.860812 C 33.823344 110.574209 36.602157 107.910982 37.507601 109.350016 C 37.846093 109.905244 41.800848 111.643405 46.327326 113.263429 L 54.526132 116.16412 L 57.337934 113.941604 C 60.711257 111.287055 62.912713 111.153287 66.143755 113.406529 C 68.177959 114.827547 68.56174 116.1062 68.537596 121.585713 C 68.544919 126.597531 68.936804 128.221258 70.341698 128.754273 C 73.060044 129.78283 74.469051 126.996119 78.256715 113.062645 C 83.64038 93.097679 84.850009 90.015667 88.877159 85.557183 C 97.405733 76.108352 110.887349 77.767121 118.043654 89.179566 C 119.626083 91.729057 123.547932 96.283874 126.761903 99.256346 C 129.944695 102.22672 133.704352 106.864587 135.089214 109.557389 C 136.775096 112.896859 140.200743 116.447347 145.918712 120.841124 C 150.504299 124.375693 154.558311 126.966193 154.928559 126.583934 C 155.296709 126.232854 155.27717 124.195689 154.856491 122.068892 C 154.28049 118.992021 153.295904 117.798228 149.875398 116.033371 C 145.029308 113.577503 144.547793 112.354915 147.764642 110.629463 C 154.165064 107.20764 164.319099 118.289325 162.266551 126.451233 C 161.535106 129.408816 163.268003 130.652957 166.096012 129.120588 C 171.423451 126.284309 169.556415 120.051138 160.001087 108.915773 C 151.636015 99.175963 146.852777 92.527339 144.932719 88.013243 C 140.073505 76.442144 148.378392 65.662789 160.131965 68.332841 C 162.971122 68.962356 164.268367 68.767751 165.25649 67.581402 C 167.370041 65.030019 173.724311 62.294148 182.254574 60.268456 C 186.645473 59.248412 190.387605 58.560567 190.562096 58.760232 C 190.767766 58.961994 191.101776 60.049374 191.30687 61.190721 C 191.553346 62.648061 190.496571 63.923752 187.726725 65.522676 C 174.794581 72.921262 174.728026 72.979426 175.361904 76.592644 C 176.138804 80.873221 173.176246 84.87088 169.197552 84.885072 C 167.632276 84.873719 164.168004 83.293842 161.479315 81.358978 C 156.49049 77.765958 154.235067 77.770812 154.247449 81.310894 C 154.234286 82.437557 159.420474 89.614425 165.733036 97.274249 C 172.078876 104.90499 178.214274 113.335913 179.416254 115.953769 C 182.258251 122.127254 181.518785 127.99713 177.310276 133.289072 C 172.829253 138.907208 168.053134 140.997561 159.686214 141.061033 C 155.801058 141.081519 149.741143 141.770023 146.240057 142.59937 C 142.545599 143.509668 137.666603 143.870456 134.559128 143.504775 C 130.021586 142.980234 127.859414 143.461175 119.440419 147.091713 C 109.701102 151.259832 109.636645 151.286816 111.982358 153.198605 C 115.069801 155.724072 117.926028 155.634358 122.372047 152.864058 C 127.893145 149.477035 130.42536 152.340995 126.038452 157.02584 C 122.49397 160.827741 117.331971 161.670621 109.856015 159.664225 C 106.287427 158.703745 103.02825 158.265216 102.626822 158.645377 C 102.256575 159.027636 102.243124 160.624091 102.610123 162.152181 C 103.873023 167.123194 107.535438 167.620176 123.341621 164.987795 C 141.93357 161.916432 152.959151 161.906557 156.823699 164.985442 C 160.274808 167.691982 162.928493 172.474683 162.940875 176.014764 C 162.940012 177.424142 161.524424 180.774184 159.77454 183.50664 C 157.109093 187.743534 156.729878 189.190096 157.242657 193.672149 C 157.676869 197.459858 157.123823 201.024538 155.341032 206.57365 C 153.962342 210.771836 152.685582 214.851598 152.510515 215.591518 C 152.1313 217.03808 147.871701 217.503185 147.556573 216.135188 Z M 115.990377 139.248636 C 122.767341 135.351015 123.917201 128.036675 117.515832 129.610508 C 114.075007 130.475229 110.14407 133.969242 108.05664 137.99446 C 104.893266 144.045778 107.032074 144.377607 115.990377 139.248636 Z M 147.748154 134.150263 C 147.731288 131.142333 139.099504 125.83213 134.212404 125.847845 C 131.019494 125.820944 129.492063 128.505725 131.132655 131.12177 C 133.311118 134.588345 147.731742 137.187275 147.748154 134.150263 Z M 126.604118 119.291032 C 128.318257 113.831263 122.948157 101.474091 119.712427 103.48016 C 117.946911 104.582883 118.149499 113.20973 120.007198 117.71963 C 121.815124 122.038256 125.454463 122.878213 126.604118 119.291032 Z M 126.604118 119.291032 " transform="matrix(0.124717,-0.00839125,0.00839125,0.124717,-0.447,1.255)"/>
</g>
</svg>
