
<svg xmlns="http://www.w3.org/2000/svg" xmlns:xlink="http://www.w3.org/1999/xlink" width="32px" height="32px" viewBox="0 0 32 32" version="1.1">
<g id="surface1">
<path style=" stroke:none;fill-rule:nonzero;fill:rgb(56.862745%,76.078431%,94.117647%);fill-opacity:1;" d="M 26.394531 4.640625 C 51.625 37.9375 -17.800781 42.667969 4.476562 8.679688 C 9.558594 0.933594 19.714844 -4.175781 26.394531 4.640625 Z M 26.394531 4.640625 "/>
<path style=" stroke:none;fill-rule:evenodd;fill:rgb(0%,0%,0%);fill-opacity:0.101961;" d="M 16.601562 6.699219 L 16.277344 7.292969 C 14.023438 7.40625 12.257812 8.664062 12.191406 10.199219 L 12.1875 10.199219 C 11.839844 10.199219 11.558594 10.464844 11.558594 10.785156 C 11.558594 11.105469 11.839844 11.367188 12.1875 11.367188 L 12.1875 17.785156 C 12.1875 18.246094 10.511719 24.523438 9.707031 27.535156 C 11.660156 28.410156 13.800781 28.867188 15.972656 28.871094 C 18.566406 28.867188 21.117188 28.214844 23.351562 26.984375 C 22.9375 25.445312 22.371094 23.320312 21.898438 21.496094 C 22.753906 21.234375 23.535156 20.808594 23.535156 19.828125 L 23.535156 17.203125 C 22.988281 16.707031 22.285156 16.28125 21.484375 15.929688 L 21.484375 18.394531 L 21.066406 18.101562 C 21.035156 17.960938 21.011719 17.832031 21.011719 17.785156 L 21.011719 11.371094 C 21.363281 11.371094 21.644531 11.105469 21.644531 10.785156 C 21.644531 10.464844 21.363281 10.199219 21.011719 10.199219 C 20.949219 8.664062 19.183594 7.410156 16.921875 7.292969 Z M 19.453125 8.527344 C 20.066406 9.035156 20.378906 9.621094 20.386719 10.199219 L 20.382812 10.199219 C 20.375 9.621094 20.066406 9.035156 19.453125 8.527344 Z M 19.453125 8.527344 "/>
<path style=" stroke:none;fill-rule:nonzero;fill:rgb(97.647059%,90.196078%,28.627451%);fill-opacity:1;" d="M 15.972656 6.699219 C 18.363281 6.703125 20.316406 7.996094 20.382812 9.617188 L 19.757812 9.617188 C 19.738281 8.441406 18.472656 7.242188 15.972656 6.699219 "/>
<path style=" stroke:none;fill-rule:evenodd;fill:rgb(54.509804%,56.470588%,57.647059%);fill-opacity:1;" d="M 15.339844 7.285156 L 15.972656 6.117188 L 16.601562 7.285156 Z M 15.339844 7.285156 "/>
<path style=" stroke:none;fill-rule:nonzero;fill:rgb(100%,35.686275%,33.333333%);fill-opacity:1;" d="M 11.558594 10.785156 L 12.1875 10.785156 L 12.1875 17.203125 L 11.558594 17.203125 Z M 11.558594 10.785156 "/>
<path style=" stroke:none;fill-rule:nonzero;fill:rgb(97.647059%,90.196078%,28.627451%);fill-opacity:1;" d="M 12.1875 10.785156 L 14.082031 10.785156 L 14.082031 17.203125 L 12.1875 17.203125 Z M 12.1875 10.785156 "/>
<path style=" stroke:none;fill-rule:nonzero;fill:rgb(100%,35.686275%,33.333333%);fill-opacity:1;" d="M 14.082031 10.785156 L 15.972656 10.785156 L 15.972656 17.203125 L 14.082031 17.203125 Z M 14.082031 10.785156 "/>
<path style=" stroke:none;fill-rule:nonzero;fill:rgb(97.647059%,90.196078%,28.627451%);fill-opacity:1;" d="M 15.972656 10.785156 L 17.863281 10.785156 L 17.863281 17.203125 L 15.972656 17.203125 Z M 15.972656 10.785156 "/>
<path style=" stroke:none;fill-rule:nonzero;fill:rgb(100%,35.686275%,33.333333%);fill-opacity:1;" d="M 17.863281 10.785156 L 19.753906 10.785156 L 19.753906 17.203125 L 17.863281 17.203125 Z M 17.863281 10.785156 "/>
<path style=" stroke:none;fill-rule:nonzero;fill:rgb(97.647059%,90.196078%,28.627451%);fill-opacity:1;" d="M 19.753906 10.785156 L 20.382812 10.785156 L 20.382812 17.203125 L 19.753906 17.203125 Z M 19.753906 10.785156 "/>
<path style=" stroke:none;fill-rule:evenodd;fill:rgb(20.784314%,20.784314%,20.784314%);fill-opacity:1;" d="M 9.035156 20.996094 C 9.035156 19.679688 10.441406 19.363281 11.550781 19.101562 L 12.207031 23.214844 Z M 9.035156 20.996094 "/>
<path style=" stroke:none;fill-rule:evenodd;fill:rgb(97.647059%,90.196078%,28.627451%);fill-opacity:1;" d="M 12.1875 17.203125 L 10.207031 27.769531 C 10.9375 28.066406 11.703125 28.300781 12.492188 28.484375 L 14.082031 17.207031 L 12.191406 17.207031 Z M 12.1875 17.203125 "/>
<path style=" stroke:none;fill-rule:evenodd;fill:rgb(20.784314%,20.784314%,20.784314%);fill-opacity:1;" d="M 22.902344 19.246094 C 22.90625 20.558594 21.5 20.878906 20.390625 21.136719 L 19.730469 17.023438 "/>
<path style=" stroke:none;fill-rule:nonzero;fill:rgb(97.647059%,90.196078%,28.627451%);fill-opacity:1;" d="M 12.1875 9.617188 L 12.1875 10.785156 L 14.082031 10.785156 L 14.082031 9.617188 Z M 15.972656 9.617188 L 15.972656 10.785156 L 17.863281 10.785156 L 17.863281 9.617188 Z M 19.753906 9.617188 L 19.753906 10.785156 L 20.382812 10.785156 L 20.382812 9.617188 Z M 19.753906 9.617188 "/>
<path style=" stroke:none;fill-rule:nonzero;fill:rgb(100%,35.686275%,33.333333%);fill-opacity:1;" d="M 12.1875 10.199219 C 12.1875 10.523438 11.90625 10.785156 11.558594 10.785156 C 11.210938 10.785156 10.925781 10.523438 10.925781 10.199219 C 10.925781 9.878906 11.210938 9.617188 11.558594 9.617188 C 11.90625 9.617188 12.1875 9.878906 12.1875 10.199219 Z M 12.1875 10.199219 "/>
<path style=" stroke:none;fill-rule:nonzero;fill:rgb(97.647059%,90.196078%,28.627451%);fill-opacity:1;" d="M 21.011719 10.199219 C 21.011719 10.523438 20.730469 10.785156 20.382812 10.785156 C 20.035156 10.785156 19.753906 10.523438 19.753906 10.199219 C 19.753906 9.878906 20.035156 9.617188 20.382812 9.617188 C 20.730469 9.617188 21.011719 9.878906 21.011719 10.199219 Z M 21.011719 10.199219 "/>
<path style=" stroke:none;fill-rule:nonzero;fill:rgb(20.784314%,20.784314%,20.784314%);fill-opacity:1;" d="M 18.175781 11.074219 C 17.652344 11.074219 17.230469 11.46875 17.230469 11.949219 L 17.230469 14.871094 L 19.121094 14.871094 L 19.121094 11.949219 C 19.121094 11.46875 18.699219 11.074219 18.175781 11.074219 Z M 18.175781 11.074219 "/>
<path style=" stroke:none;fill-rule:nonzero;fill:rgb(20.784314%,20.784314%,20.784314%);fill-opacity:1;" d="M 13.449219 11.367188 L 14.710938 11.367188 L 14.710938 14.285156 L 13.449219 14.285156 Z M 13.449219 11.367188 "/>
<path style=" stroke:none;fill-rule:nonzero;fill:rgb(20.784314%,20.784314%,20.784314%);fill-opacity:1;" d="M 11.558594 11.367188 L 12.820312 11.367188 L 12.820312 14.285156 L 11.558594 14.285156 Z M 11.558594 11.367188 "/>
<path style=" stroke:none;fill-rule:evenodd;fill:rgb(100%,35.686275%,33.333333%);fill-opacity:1;" d="M 11.558594 17.203125 C 11.558594 17.675781 9.785156 24.304688 9.003906 27.222656 C 9.394531 27.417969 9.792969 27.601562 10.203125 27.765625 L 12.1875 17.199219 L 11.558594 17.199219 Z M 11.558594 17.203125 "/>
<path style=" stroke:none;fill-rule:evenodd;fill:rgb(100%,35.686275%,33.333333%);fill-opacity:1;" d="M 14.082031 17.203125 L 12.492188 28.480469 C 13.605469 28.734375 14.769531 28.871094 15.972656 28.871094 L 15.972656 17.203125 Z M 14.082031 17.203125 "/>
<path style=" stroke:none;fill-rule:evenodd;fill:rgb(97.647059%,90.196078%,28.627451%);fill-opacity:1;" d="M 19.753906 17.203125 L 21.738281 27.769531 C 22.148438 27.605469 22.550781 27.425781 22.9375 27.222656 C 22.152344 24.308594 20.382812 17.679688 20.382812 17.207031 L 19.753906 17.207031 Z M 19.753906 17.203125 "/>
<path style=" stroke:none;fill-rule:evenodd;fill:rgb(100%,35.686275%,33.333333%);fill-opacity:1;" d="M 17.863281 17.203125 L 19.449219 28.480469 C 20.238281 28.300781 21.003906 28.0625 21.738281 27.769531 L 19.753906 17.199219 L 17.863281 17.199219 Z M 17.863281 17.203125 "/>
<path style=" stroke:none;fill-rule:evenodd;fill:rgb(97.647059%,90.196078%,28.627451%);fill-opacity:1;" d="M 15.972656 17.203125 L 15.972656 28.871094 C 17.167969 28.871094 18.335938 28.734375 19.449219 28.480469 L 17.863281 17.203125 Z M 15.972656 17.203125 "/>
<path style=" stroke:none;fill-rule:nonzero;fill:rgb(0%,0%,0%);fill-opacity:0.101961;" d="M 15.972656 14.871094 L 15.972656 17.785156 C 18.640625 17.785156 20.273438 18.292969 21.734375 18.953125 L 21.746094 18.953125 L 21.746094 18.957031 L 22.878906 19.523438 C 22.894531 19.433594 22.902344 19.34375 22.902344 19.246094 L 22.789062 19.164062 L 22.273438 18.863281 L 22.273438 16.320312 C 20.648438 15.40625 18.414062 14.871094 15.972656 14.871094 Z M 15.972656 14.871094 "/>
<path style=" stroke:none;fill-rule:evenodd;fill:rgb(54.509804%,56.470588%,57.647059%);fill-opacity:1;" d="M 22.902344 19.246094 L 22.902344 16.621094 C 21.308594 15.175781 18.492188 14.285156 15.339844 14.285156 L 15.339844 17.203125 C 19.121094 17.203125 20.832031 18.214844 22.902344 19.246094 Z M 22.902344 19.246094 "/>
<path style=" stroke:none;fill-rule:nonzero;fill:rgb(100%,35.686275%,33.333333%);fill-opacity:1;" d="M 11.558594 9.617188 L 12.1875 9.617188 L 12.1875 10.785156 L 11.558594 10.785156 Z M 11.558594 9.617188 "/>
<path style=" stroke:none;fill-rule:nonzero;fill:rgb(100%,35.686275%,33.333333%);fill-opacity:1;" d="M 14.082031 9.617188 L 15.972656 9.617188 L 15.972656 10.785156 L 14.082031 10.785156 Z M 14.082031 9.617188 "/>
<path style=" stroke:none;fill-rule:nonzero;fill:rgb(100%,35.686275%,33.333333%);fill-opacity:1;" d="M 17.863281 9.617188 L 19.753906 9.617188 L 19.753906 10.785156 L 17.863281 10.785156 Z M 17.863281 9.617188 "/>
<path style=" stroke:none;fill-rule:evenodd;fill:rgb(97.647059%,90.196078%,28.627451%);fill-opacity:1;" d="M 12.1875 9.617188 C 12.207031 8.441406 13.472656 7.242188 15.972656 6.699219 C 15.835938 6.902344 13.996094 7.753906 14.082031 9.617188 Z M 12.1875 9.617188 "/>
<path style=" stroke:none;fill-rule:evenodd;fill:rgb(100%,35.686275%,33.333333%);fill-opacity:1;" d="M 19.753906 9.617188 C 19.738281 8.441406 18.46875 7.242188 15.972656 6.699219 C 16.105469 6.902344 17.945312 7.753906 17.863281 9.617188 Z M 19.753906 9.617188 "/>
<path style=" stroke:none;fill-rule:evenodd;fill:rgb(100%,35.686275%,33.333333%);fill-opacity:1;" d="M 15.972656 6.699219 C 15.835938 6.902344 13.996094 7.753906 14.082031 9.617188 L 15.972656 9.617188 Z M 15.972656 6.699219 "/>
<path style=" stroke:none;fill-rule:evenodd;fill:rgb(97.647059%,90.196078%,28.627451%);fill-opacity:1;" d="M 15.972656 6.699219 C 16.105469 6.902344 17.945312 7.753906 17.863281 9.617188 L 15.972656 9.617188 Z M 15.972656 6.699219 "/>
<path style=" stroke:none;fill-rule:nonzero;fill:rgb(100%,35.686275%,33.333333%);fill-opacity:1;" d="M 15.972656 6.699219 C 13.582031 6.703125 11.628906 7.996094 11.566406 9.617188 L 12.1875 9.617188 C 12.207031 8.441406 13.472656 7.242188 15.972656 6.699219 Z M 15.972656 6.699219 "/>
<path style=" stroke:none;fill-rule:evenodd;fill:rgb(0%,0%,0%);fill-opacity:0.101961;" d="M 9.667969 21.578125 L 9.667969 24.207031 C 11.261719 25.648438 14.082031 26.539062 17.230469 26.539062 L 17.230469 23.621094 C 13.449219 23.621094 11.738281 22.609375 9.667969 21.578125 Z M 9.667969 21.578125 "/>
<path style=" stroke:none;fill-rule:evenodd;fill:rgb(54.509804%,56.470588%,57.647059%);fill-opacity:1;" d="M 9.035156 20.996094 L 9.035156 23.621094 C 10.628906 25.066406 13.449219 25.957031 16.601562 25.957031 L 16.601562 23.039062 C 12.820312 23.039062 11.109375 22.027344 9.035156 20.996094 Z M 9.035156 20.996094 "/>
</g>
</svg>
