
<svg xmlns="http://www.w3.org/2000/svg" xmlns:xlink="http://www.w3.org/1999/xlink" width="32px" height="32px" viewBox="0 0 32 32" version="1.1">
<g id="surface1">
<path style=" stroke:none;fill-rule:nonzero;fill:rgb(64.705882%,16.470588%,16.470588%);fill-opacity:1;" d="M 16.28125 0.277344 C 30.269531 -2.519531 35.582031 16.644531 29.519531 27.050781 C 24.691406 35.339844 8.144531 32.972656 1.972656 21.777344 C -4.191406 10.585938 5.050781 2.519531 16.28125 0.277344 Z M 16.28125 0.277344 "/>
<path style=" stroke:none;fill-rule:evenodd;fill:rgb(100%,27.058824%,0%);fill-opacity:1;" d="M 10.933594 23.25 L 10.316406 23.191406 L 10.230469 22.152344 C 10.105469 20.625 10.132812 8.488281 10.265625 7.847656 C 10.324219 7.546875 10.417969 7.261719 10.472656 7.210938 C 10.628906 7.0625 19.246094 7.027344 21.003906 7.167969 C 22.894531 7.324219 23.957031 7.699219 24.792969 8.519531 C 25.660156 9.363281 25.894531 9.992188 25.894531 11.445312 C 25.894531 13.363281 25.722656 13.777344 24.394531 15.058594 C 23.78125 15.644531 23.277344 16.183594 23.277344 16.253906 C 23.277344 16.324219 23.703125 17 24.222656 17.753906 C 25.316406 19.347656 26.90625 22.289062 26.941406 22.792969 L 26.964844 23.140625 L 25.761719 23.238281 C 25.097656 23.292969 23.777344 23.324219 22.824219 23.304688 L 21.097656 23.269531 L 19.703125 20.980469 C 17.839844 17.925781 17.550781 17.539062 16.882812 17.203125 C 16 16.757812 15.984375 16.804688 15.90625 20.089844 C 15.863281 21.824219 15.785156 22.992188 15.699219 23.074219 C 15.550781 23.214844 11.992188 23.347656 10.933594 23.25 Z M 18.289062 13.269531 C 18.753906 13.191406 19.324219 13.003906 19.5625 12.855469 C 19.941406 12.613281 19.996094 12.503906 19.996094 12.023438 C 19.996094 11.582031 19.925781 11.425781 19.660156 11.234375 C 19.257812 10.949219 18.066406 10.746094 16.800781 10.746094 L 15.878906 10.746094 L 15.925781 12.019531 C 15.960938 12.980469 16.023438 13.328125 16.175781 13.421875 C 16.378906 13.546875 16.769531 13.519531 18.289062 13.269531 Z M 18.289062 13.269531 "/>
<path style=" stroke:none;fill-rule:nonzero;fill:rgb(64.705882%,16.470588%,16.470588%);fill-opacity:1;" d="M 7.285156 27.308594 C 6.519531 27.164062 5.914062 26.699219 5.632812 26.046875 C 5.296875 25.257812 5.519531 6.277344 5.871094 5.605469 C 6.480469 4.457031 6.027344 4.5 17.324219 4.5 C 28.621094 4.5 28.167969 4.457031 28.777344 5.605469 C 28.925781 5.894531 29.046875 9.21875 29.136719 15.742188 C 29.28125 26.230469 29.277344 26.304688 28.21875 26.996094 C 27.722656 27.324219 26.949219 27.351562 17.730469 27.378906 C 12.257812 27.390625 7.558594 27.363281 7.285156 27.308594 Z M 14.785156 23.523438 C 14.785156 23.40625 13.898438 23.328125 12.550781 23.328125 C 11.324219 23.328125 10.316406 23.394531 10.316406 23.472656 C 10.316406 23.554688 11.324219 23.644531 12.550781 23.667969 C 13.933594 23.699219 14.785156 23.644531 14.785156 23.523438 Z M 14.742188 22.347656 C 14.683594 21.863281 14.660156 21.855469 12.5 21.792969 C 10.660156 21.738281 10.296875 21.777344 10.191406 22.039062 C 9.882812 22.824219 10.199219 22.9375 12.554688 22.886719 L 14.800781 22.835938 L 14.746094 22.347656 Z M 25.550781 22.761719 C 25.550781 22.320312 24.816406 22.144531 22.535156 22.035156 C 20.160156 21.921875 20.066406 21.933594 20.066406 22.3125 C 20.066406 22.527344 20.179688 22.75 20.320312 22.804688 C 20.769531 22.980469 25.550781 22.941406 25.550781 22.761719 Z M 24.738281 21.351562 C 24.738281 21.238281 24.644531 20.972656 24.527344 20.761719 C 24.335938 20.417969 24.078125 20.386719 21.683594 20.386719 C 19.582031 20.386719 19.050781 20.441406 19.050781 20.652344 C 19.050781 21.308594 19.769531 21.46875 22.960938 21.527344 C 24.105469 21.550781 24.738281 21.488281 24.738281 21.351562 Z M 14.859375 21.066406 C 15.15625 20.320312 14.820312 20.1875 12.628906 20.1875 C 11.472656 20.1875 10.453125 20.183594 10.367188 20.183594 C 10.285156 20.179688 10.1875 20.394531 10.152344 20.65625 C 10.078125 21.230469 10.222656 21.269531 12.886719 21.324219 C 14.367188 21.351562 14.769531 21.300781 14.859375 21.066406 Z M 23.925781 19.613281 C 23.925781 19.511719 23.78125 19.292969 23.605469 19.121094 C 23.347656 18.875 22.789062 18.816406 20.796875 18.816406 C 19.425781 18.816406 18.246094 18.875 18.167969 18.945312 C 18.097656 19.019531 18.183594 19.238281 18.371094 19.4375 C 18.664062 19.75 19.042969 19.796875 21.316406 19.796875 C 22.785156 19.796875 23.925781 19.714844 23.925781 19.613281 Z M 14.746094 19.175781 C 14.6875 18.78125 14.554688 18.753906 12.507812 18.695312 C 10.332031 18.632812 9.960938 18.730469 10.191406 19.316406 C 10.28125 19.539062 10.777344 19.597656 12.558594 19.597656 C 14.75 19.597656 14.8125 19.589844 14.75 19.175781 Z M 14.945312 17.589844 C 15.207031 16.917969 15.636719 16.90625 16.785156 17.542969 C 17.597656 17.988281 17.875 18.027344 20.136719 18.023438 L 22.605469 18.019531 L 22.042969 17.542969 C 21.355469 16.957031 21.332031 16.503906 21.980469 16.347656 C 22.492188 16.222656 23.316406 15.496094 22.988281 15.457031 C 22.890625 15.441406 20.292969 15.449219 17.222656 15.472656 C 14.148438 15.496094 11.414062 15.429688 11.136719 15.328125 C 10.652344 15.152344 10.65625 15.144531 11.339844 15.023438 C 11.726562 14.957031 14.683594 14.902344 17.902344 14.902344 C 21.980469 14.902344 23.851562 14.832031 24.042969 14.679688 C 24.730469 14.128906 24.980469 11.390625 24.414062 10.613281 C 24.152344 10.25 23.972656 10.191406 23.421875 10.292969 C 23.023438 10.363281 22.695312 10.328125 22.613281 10.199219 C 22.527344 10.058594 22.730469 9.984375 23.199219 9.984375 C 23.667969 9.984375 23.921875 9.894531 23.921875 9.722656 C 23.921875 9.058594 22.238281 8.359375 21.285156 8.628906 C 21.003906 8.707031 19.953125 8.769531 18.949219 8.765625 C 17.457031 8.761719 17.269531 8.734375 17.933594 8.601562 C 18.378906 8.511719 19.175781 8.433594 19.707031 8.425781 C 20.238281 8.421875 20.675781 8.324219 20.675781 8.214844 C 20.675781 8.085938 18.890625 8.035156 15.449219 8.070312 L 10.226562 8.121094 L 10.132812 18.011719 L 11.394531 18.070312 C 14.457031 18.214844 14.714844 18.175781 14.941406 17.589844 Z M 16.105469 14.550781 C 15.066406 14.445312 14.785156 14.207031 14.785156 13.425781 C 14.785156 12.835938 14.726562 12.785156 13.820312 12.597656 L 12.855469 12.394531 L 14.808594 12.339844 L 14.746094 11.507812 C 14.691406 10.761719 14.617188 10.660156 14.074219 10.535156 C 13.738281 10.457031 14.542969 10.429688 15.863281 10.476562 C 17.4375 10.53125 18.390625 10.484375 18.628906 10.339844 C 18.847656 10.210938 19.152344 10.183594 19.378906 10.277344 C 19.714844 10.417969 19.691406 10.453125 19.195312 10.554688 L 18.628906 10.671875 L 19.632812 11.441406 C 20.511719 12.109375 20.601562 12.242188 20.34375 12.488281 C 20.183594 12.644531 20.101562 12.929688 20.164062 13.117188 C 20.226562 13.308594 20.152344 13.5625 19.996094 13.6875 C 19.679688 13.941406 17.429688 14.699219 17.121094 14.65625 C 17.007812 14.640625 16.550781 14.59375 16.105469 14.550781 Z M 21.628906 12.410156 C 21.351562 12.144531 21.75 11.949219 22.566406 11.949219 C 23.625 11.953125 24.175781 12.230469 23.484375 12.410156 C 22.863281 12.566406 21.792969 12.570312 21.628906 12.410156 Z M 10.925781 10.589844 L 10.417969 10.449219 L 10.996094 10.339844 C 11.660156 10.210938 12.347656 10.34375 12.347656 10.597656 C 12.347656 10.796875 11.660156 10.792969 10.925781 10.589844 Z M 12.449219 9.003906 C 12.371094 8.886719 12.664062 8.8125 13.199219 8.824219 C 13.875 8.832031 13.980469 8.875 13.667969 9.003906 C 13.105469 9.238281 12.597656 9.238281 12.449219 9.003906 Z M 11.089844 8.769531 C 11.277344 8.585938 11.386719 8.585938 11.578125 8.769531 C 11.765625 8.953125 11.714844 9.003906 11.332031 9.003906 C 10.953125 9.003906 10.902344 8.953125 11.089844 8.769531 Z M 14.582031 8.929688 C 14.582031 8.753906 15.332031 8.683594 15.703125 8.824219 C 16.007812 8.941406 15.925781 8.980469 15.34375 8.988281 C 14.925781 8.996094 14.582031 8.972656 14.582031 8.929688 Z M 14.582031 8.929688 "/>
</g>
</svg>
