
<svg xmlns="http://www.w3.org/2000/svg" xmlns:xlink="http://www.w3.org/1999/xlink" width="32px" height="32px" viewBox="0 0 32 32" version="1.1">
<g id="surface1">
<path style=" stroke:none;fill-rule:nonzero;fill:rgb(100%,54.901961%,0%);fill-opacity:1;" d="M 6.609375 28.878906 C 30.667969 44.871094 45.484375 -6.132812 14.386719 0.621094 C 1.53125 3.496094 -6.269531 21.542969 6.609375 28.878906 Z M 6.609375 28.878906 "/>
<path style=" stroke:none;fill-rule:nonzero;fill:rgb(100%,98.039216%,98.039216%);fill-opacity:0.117647;" d="M 15.9375 14.039062 L 15.605469 14.027344 L 14.664062 14.574219 L 14.050781 13.878906 L 8.472656 14.539062 L 8.175781 16.851562 L 8.441406 16.851562 L 8.636719 17.410156 L 8.910156 17.410156 C 8.910156 17.410156 9.058594 18.035156 9.222656 18.59375 C 8.527344 18.949219 8.484375 19.242188 8.566406 19.964844 C 8.882812 21.332031 10.414062 22.746094 11.449219 23.074219 C 11.621094 23.140625 13.902344 23.109375 16.960938 23.105469 C 22.058594 23.097656 22.332031 23.113281 22.597656 23.019531 C 23.910156 22.792969 24.734375 21.59375 24.949219 20.710938 C 24.988281 20.4375 25.035156 20.207031 25 19.949219 C 24.964844 19.695312 24.773438 19.402344 24.636719 19.285156 C 24.230469 18.933594 23.910156 18.808594 22.871094 18.808594 C 22.445312 18.472656 21.191406 17.5625 21.191406 17.5625 L 15.898438 17.230469 L 16.179688 16.542969 L 15.457031 15.671875 L 16.1875 15.042969 L 16.3125 14.722656 L 21.238281 11.054688 L 21.652344 11.011719 L 22.601562 10.230469 L 22.105469 9.582031 L 21.078125 10.246094 L 20.933594 10.652344 Z M 10.644531 21.9375 C 10.691406 22.121094 10.753906 22.25 10.839844 22.425781 C 10.605469 22.253906 10.386719 22.082031 10.160156 21.894531 M 23.769531 21.984375 C 23.574219 22.214844 23.332031 22.386719 22.964844 22.605469 C 23.175781 22.351562 23.199219 22.1875 23.226562 21.984375 M 14.917969 22.382812 C 15.023438 22.570312 15.019531 22.699219 15.1875 22.84375 C 14.917969 22.839844 14.648438 22.839844 14.378906 22.839844 C 14.550781 22.714844 14.699219 22.558594 14.808594 22.382812 M 17.007812 22.390625 C 17.128906 22.589844 17.160156 22.71875 17.3125 22.832031 C 17.113281 22.835938 16.847656 22.839844 16.511719 22.84375 C 16.660156 22.71875 16.796875 22.566406 16.894531 22.390625 M 12.800781 22.394531 C 13.023438 22.699219 12.988281 22.726562 13.113281 22.84375 C 12.84375 22.847656 12.574219 22.847656 12.300781 22.847656 C 12.574219 22.613281 12.589844 22.546875 12.6875 22.394531 M 21.199219 22.398438 C 21.289062 22.605469 21.328125 22.6875 21.5 22.847656 C 21.226562 22.855469 21.035156 22.851562 20.761719 22.847656 C 20.941406 22.683594 21.027344 22.542969 21.109375 22.398438 M 18.621094 22.847656 C 18.769531 22.714844 18.863281 22.589844 18.96875 22.386719 C 18.992188 22.390625 19.058594 22.386719 19.058594 22.386719 C 19.183594 22.660156 19.3125 22.773438 19.394531 22.847656 "/>
<path style=" stroke:none;fill-rule:nonzero;fill:rgb(100%,98.039216%,98.039216%);fill-opacity:1;" d="M 15.480469 13.503906 L 15.144531 13.488281 L 14.191406 14.039062 L 13.464844 13.210938 L 7.828125 13.871094 L 7.527344 16.183594 L 7.796875 16.183594 L 7.988281 16.742188 L 8.269531 16.742188 C 8.269531 16.742188 8.417969 17.367188 8.582031 17.925781 C 7.882812 18.28125 7.839844 18.570312 7.917969 19.292969 C 8.238281 20.664062 9.78125 22.078125 10.824219 22.402344 C 10.996094 22.472656 13.292969 22.441406 16.378906 22.433594 C 21.519531 22.429688 21.714844 22.441406 21.984375 22.347656 C 23.304688 22.121094 24.109375 20.722656 24.328125 19.839844 C 24.367188 19.566406 24.378906 19.332031 24.34375 19.078125 C 24.308594 18.820312 24.113281 18.53125 23.980469 18.410156 C 23.570312 18.0625 23.386719 18.039062 22.339844 18.039062 C 21.976562 17.6875 20.777344 16.792969 20.777344 16.792969 L 15.308594 16.496094 L 15.570312 15.871094 L 14.996094 15.136719 L 15.734375 14.507812 L 15.855469 14.183594 L 20.824219 10.519531 L 21.238281 10.472656 L 22.191406 9.691406 L 21.699219 9.042969 L 20.660156 9.707031 L 20.515625 10.113281 Z M 10.019531 21.269531 C 10.066406 21.453125 10.128906 21.582031 10.214844 21.753906 C 9.980469 21.585938 9.757812 21.414062 9.527344 21.222656 M 23.175781 21.316406 C 22.984375 21.542969 22.738281 21.71875 22.367188 21.933594 C 22.582031 21.683594 22.605469 21.519531 22.632812 21.316406 M 14.328125 21.714844 C 14.433594 21.902344 14.425781 22.03125 14.597656 22.175781 C 14.324219 22.171875 14.054688 22.171875 13.78125 22.167969 C 13.953125 22.046875 14.105469 21.886719 14.214844 21.714844 M 16.433594 21.722656 C 16.554688 21.917969 16.585938 22.050781 16.738281 22.164062 C 16.539062 22.167969 16.273438 22.171875 15.933594 22.175781 C 16.085938 22.050781 16.21875 21.894531 16.320312 21.722656 M 12.191406 21.722656 C 12.417969 22.027344 12.378906 22.058594 12.507812 22.175781 C 12.234375 22.175781 11.960938 22.175781 11.6875 22.179688 C 11.964844 21.941406 11.976562 21.878906 12.074219 21.722656 M 20.65625 21.730469 C 20.746094 21.9375 20.785156 22.019531 20.957031 22.179688 C 20.683594 22.1875 20.488281 22.183594 20.214844 22.179688 C 20.402344 22.015625 20.480469 21.871094 20.566406 21.730469 M 18.058594 22.179688 C 18.207031 22.046875 18.304688 21.917969 18.410156 21.71875 C 18.433594 21.722656 18.496094 21.71875 18.496094 21.71875 C 18.625 21.992188 18.753906 22.105469 18.839844 22.179688 "/>
</g>
</svg>
