
<svg xmlns="http://www.w3.org/2000/svg" xmlns:xlink="http://www.w3.org/1999/xlink" width="32px" height="32px" viewBox="0 0 32 32" version="1.1">
<defs>
<linearGradient id="linear0" gradientUnits="userSpaceOnUse" x1="10" y1="17.500256" x2="40" y2="17.500256" gradientTransform="matrix(0.572577,0,0,0.552999,0.544477,2.772228)">
<stop offset="0" style="stop-color:rgb(10.196078%,10.196078%,10.196078%);stop-opacity:0.8;"/>
<stop offset="1" style="stop-color:rgb(10.196078%,10.196078%,10.196078%);stop-opacity:0.643137;"/>
</linearGradient>
<linearGradient id="linear1" gradientUnits="userSpaceOnUse" x1="10" y1="30.499745" x2="40" y2="30.499745" gradientTransform="matrix(0.572577,0,0,0.552999,0.544477,2.772228)">
<stop offset="0" style="stop-color:rgb(10.196078%,10.196078%,10.196078%);stop-opacity:0.8;"/>
<stop offset="1" style="stop-color:rgb(10.196078%,10.196078%,10.196078%);stop-opacity:0.643137;"/>
</linearGradient>
</defs>
<g id="surface1">
<path style=" stroke:none;fill-rule:nonzero;fill:rgb(92.156863%,92.156863%,34.509804%);fill-opacity:1;" d="M 27.359375 5.605469 C -5.941406 -19.621094 -10.667969 49.800781 23.320312 27.523438 C 31.070312 22.441406 36.175781 12.285156 27.359375 5.605469 Z M 27.359375 5.605469 "/>
<path style=" stroke:none;fill-rule:nonzero;fill:url(#linear0);" d="M 6.269531 16.597656 C 6.269531 8.300781 11.996094 8.300781 23.449219 8.300781 L 23.449219 11.066406 C 13.714844 11.066406 9.707031 11.066406 9.046875 16.597656 Z M 6.269531 16.597656 "/>
<path style=" stroke:none;fill-rule:nonzero;fill:url(#linear1);" d="M 23.449219 15.492188 C 23.449219 23.785156 17.722656 23.785156 6.269531 23.785156 L 6.269531 21.019531 C 16.003906 21.019531 20.011719 21.019531 20.671875 15.492188 Z M 23.449219 15.492188 "/>
</g>
</svg>
