
<svg xmlns="http://www.w3.org/2000/svg" xmlns:xlink="http://www.w3.org/1999/xlink" width="32px" height="32px" viewBox="0 0 32 32" version="1.1">
<g id="surface1">
<path style=" stroke:none;fill-rule:nonzero;fill:rgb(27.45098%,50.980392%,70.588235%);fill-opacity:1;" d="M 15.714844 0.527344 C 1.726562 -2.246094 -3.585938 16.765625 2.476562 27.089844 C 7.308594 35.316406 23.855469 32.964844 30.023438 21.859375 C 36.191406 10.753906 26.945312 2.75 15.714844 0.527344 Z M 15.714844 0.527344 "/>
<path style="fill-rule:nonzero;fill:rgb(52.941176%,80.784314%,98.039216%);fill-opacity:1;stroke-width:0.976;stroke-linecap:butt;stroke-linejoin:miter;stroke:rgb(46.666667%,53.333333%,60%);stroke-opacity:1;stroke-miterlimit:4;" d="M 4.556567 -43.512254 L 43.514269 -43.512254 L 43.514269 -4.555955 L 4.556567 -4.555955 Z M 4.556567 -43.512254 " transform="matrix(0.468657,0,0,-0.462959,3.5325,5.18375)"/>
<path style=" stroke:none;fill-rule:nonzero;fill:rgb(46.666667%,53.333333%,60%);fill-opacity:1;" d="M 8.957031 12.683594 L 8.957031 8.515625 L 8.730469 8.898438 L 8.730469 12.683594 L 8.957031 12.683594 "/>
<path style=" stroke:none;fill-rule:nonzero;fill:rgb(46.666667%,53.333333%,60%);fill-opacity:1;" d="M 13.871094 9.730469 C 13.914062 9.171875 14.382812 8.785156 14.898438 8.785156 C 15.472656 8.785156 15.945312 9.261719 15.945312 9.808594 C 15.945312 10.054688 15.855469 10.292969 15.683594 10.488281 L 13.738281 12.660156 L 13.738281 12.726562 L 16.175781 12.726562 L 16.175781 12.503906 L 14.175781 12.503906 L 15.847656 10.636719 C 16.070312 10.402344 16.167969 10.105469 16.167969 9.8125 C 16.167969 9.144531 15.597656 8.5625 14.902344 8.5625 C 14.296875 8.5625 13.71875 9.027344 13.644531 9.671875 L 13.871094 9.734375 "/>
<path style=" stroke:none;fill-rule:nonzero;fill:rgb(46.666667%,53.333333%,60%);fill-opacity:1;" d="M 8.714844 23.675781 C 8.53125 23.550781 8.390625 23.371094 8.316406 23.152344 L 8.113281 23.25 C 8.292969 23.742188 8.773438 24.082031 9.300781 24.082031 C 10.0625 24.082031 10.679688 23.472656 10.679688 22.722656 C 10.679688 21.972656 10.0625 21.359375 9.300781 21.359375 C 9.03125 21.359375 8.777344 21.441406 8.535156 21.613281 L 8.542969 20.136719 L 10.394531 20.136719 L 10.394531 19.917969 L 8.3125 19.917969 L 8.3125 22.066406 L 8.402344 22.082031 C 8.554688 21.816406 8.9375 21.597656 9.300781 21.582031 C 9.9375 21.582031 10.457031 22.09375 10.457031 22.722656 C 10.457031 23.347656 9.9375 23.859375 9.300781 23.859375 C 9.097656 23.859375 8.890625 23.785156 8.714844 23.675781 "/>
<path style=" stroke:none;fill-rule:nonzero;fill:rgb(43.921569%,50.196078%,56.470588%);fill-opacity:1;" d="M 19.710938 16.214844 C 19.542969 16.449219 19.457031 16.703125 19.453125 16.96875 C 19.4375 17.664062 19.996094 18.34375 20.789062 18.363281 C 21.484375 18.378906 22.191406 17.835938 22.207031 17.035156 C 22.222656 16.347656 21.644531 15.65625 20.863281 15.640625 C 20.683594 15.636719 20.511719 15.671875 20.332031 15.738281 L 21.441406 14.214844 L 21.160156 14.207031 L 19.710938 16.214844 M 19.886719 16.339844 C 20.136719 16.011719 20.5 15.859375 20.859375 15.867188 C 21.523438 15.882812 21.988281 16.453125 21.976562 17.03125 C 21.960938 17.699219 21.382812 18.160156 20.804688 18.144531 C 20.144531 18.128906 19.664062 17.558594 19.675781 16.972656 C 19.683594 16.753906 19.746094 16.53125 19.886719 16.339844 "/>
<path style=" stroke:none;fill-rule:nonzero;fill:rgb(43.921569%,50.196078%,56.470588%);fill-opacity:1;" d="M 11.996094 7.074219 L 11.996094 13.597656 L 5.398438 13.597656 L 5.398438 13.761719 L 11.996094 13.761719 L 11.996094 18.878906 L 5.398438 18.878906 L 5.398438 19.042969 L 11.996094 19.042969 L 11.996094 25.558594 L 12.164062 25.558594 L 12.164062 19.042969 L 17.339844 19.042969 L 17.339844 25.558594 L 17.511719 25.558594 L 17.511719 19.042969 L 24.109375 19.042969 L 24.109375 18.878906 L 17.511719 18.878906 L 17.511719 13.761719 L 24.109375 13.761719 L 24.109375 13.597656 L 17.511719 13.597656 L 17.511719 7.074219 L 17.339844 7.074219 L 17.339844 13.597656 L 12.164062 13.597656 L 12.164062 7.074219 Z M 12.164062 13.761719 L 17.339844 13.761719 L 17.339844 18.875 L 12.164062 18.875 Z M 12.164062 13.761719 "/>
</g>
</svg>
