
<svg xmlns="http://www.w3.org/2000/svg" xmlns:xlink="http://www.w3.org/1999/xlink" width="32px" height="32px" viewBox="0 0 32 32" version="1.1">
<g id="surface1">
<path style=" stroke:none;fill-rule:nonzero;fill:rgb(86.27451%,90.196078%,67.058824%);fill-opacity:1;" d="M 30.964844 11.601562 C 36.941406 28.277344 15.46875 36.386719 7.402344 29.597656 C -0.667969 22.808594 -3.421875 11.175781 5.714844 5.320312 C 14.851562 -0.535156 24.988281 -5.074219 30.964844 11.605469 Z M 30.964844 11.601562 "/>
<path style=" stroke:none;fill-rule:nonzero;fill:rgb(0%,0%,0%);fill-opacity:0.101961;" d="M 19.203125 8.910156 C 16.253906 8.910156 13.785156 10.628906 13.785156 12.917969 C 13.785156 16.355469 18.390625 17.304688 18.390625 19.789062 C 18.390625 21.214844 17.035156 22.652344 14.871094 22.652344 C 13.074219 22.652344 11.621094 21.503906 11.621094 20.074219 C 11.621094 19.304688 12.058594 18.617188 12.738281 18.144531 C 12.191406 17.519531 11.4375 16.789062 10.433594 17.3125 C 9.40625 17.847656 8.910156 18.90625 8.910156 19.902344 C 8.910156 22.054688 11.578125 23.796875 14.871094 23.796875 C 16.765625 23.796875 18.660156 23.222656 20.082031 22.222656 C 21.503906 21.222656 22.453125 19.789062 22.453125 18.074219 C 22.453125 14.636719 17.578125 13.492188 17.578125 11.488281 C 17.578125 10.628906 18.527344 10.054688 19.746094 10.054688 C 20.960938 10.054688 21.910156 10.707031 21.910156 11.488281 C 21.910156 11.957031 21.527344 12.449219 20.953125 12.671875 C 22.105469 13.589844 23.535156 12.917969 23.535156 11.429688 C 23.535156 9.855469 21.246094 8.910156 19.203125 8.910156 "/>
<path style=" stroke:none;fill-rule:nonzero;fill:rgb(38.823529%,41.960784%,23.921569%);fill-opacity:1;" d="M 18.660156 8.339844 C 15.710938 8.339844 13.246094 10.054688 13.246094 12.347656 C 13.246094 15.78125 17.847656 16.730469 17.847656 19.214844 C 17.847656 20.640625 16.496094 22.082031 14.328125 22.082031 C 12.53125 22.082031 11.078125 20.929688 11.078125 19.503906 C 11.078125 18.730469 11.515625 18.042969 12.195312 17.574219 C 11.648438 16.945312 10.894531 16.214844 9.894531 16.738281 C 8.863281 17.277344 8.371094 18.332031 8.371094 19.332031 C 8.371094 21.480469 11.035156 23.222656 14.328125 23.222656 C 16.222656 23.222656 18.121094 22.652344 19.542969 21.652344 C 20.964844 20.648438 21.910156 19.214844 21.910156 17.5 C 21.910156 14.0625 17.035156 12.917969 17.035156 10.914062 C 17.035156 10.054688 17.984375 9.480469 19.203125 9.480469 C 20.417969 9.480469 21.371094 10.136719 21.371094 10.914062 C 21.371094 11.382812 20.984375 11.875 20.410156 12.097656 C 21.566406 13.019531 22.996094 12.347656 22.996094 10.855469 C 22.996094 9.285156 20.707031 8.339844 18.660156 8.339844 "/>
</g>
</svg>
