
<svg xmlns="http://www.w3.org/2000/svg" xmlns:xlink="http://www.w3.org/1999/xlink" width="32px" height="32px" viewBox="0 0 32 32" version="1.1">
<g id="surface1">
<path style=" stroke:none;fill-rule:nonzero;fill:rgb(67.843137%,84.705882%,90.196078%);fill-opacity:1;" d="M 20.398438 30.964844 C 3.722656 36.9375 -4.386719 15.46875 2.402344 7.398438 C 9.191406 -0.667969 20.824219 -3.421875 26.679688 5.714844 C 32.535156 14.851562 37.074219 24.988281 20.398438 30.964844 Z M 20.398438 30.964844 "/>
<path style=" stroke:none;fill-rule:nonzero;fill:rgb(0%,68.627451%,94.117647%);fill-opacity:1;" d="M 7.480469 16.753906 C 7.855469 21.410156 11.949219 24.863281 16.613281 24.488281 C 17.132812 24.445312 17.636719 24.363281 18.121094 24.226562 C 18.871094 24.5625 19.71875 24.71875 20.59375 24.648438 C 23.355469 24.429688 25.414062 22.019531 25.191406 19.269531 C 25.121094 18.402344 24.828125 17.59375 24.375 16.910156 C 24.421875 16.414062 24.4375 15.902344 24.394531 15.382812 C 24.015625 10.730469 19.925781 7.277344 15.261719 7.648438 C 14.742188 7.691406 14.238281 7.773438 13.753906 7.910156 C 12.988281 7.578125 12.140625 7.421875 11.265625 7.488281 C 8.507812 7.710938 6.449219 10.121094 6.671875 12.867188 C 6.742188 13.738281 7.03125 14.546875 7.484375 15.230469 C 7.441406 15.726562 7.4375 16.234375 7.480469 16.753906 "/>
<path style=" stroke:none;fill-rule:nonzero;fill:rgb(100%,100%,100%);fill-opacity:1;" d="M 16.402344 21.402344 C 13.40625 21.640625 11.949219 20.277344 11.859375 19.167969 C 11.8125 18.609375 12.203125 18.167969 12.78125 18.121094 C 14.0625 18.019531 13.886719 19.882812 16.28125 19.691406 C 17.503906 19.589844 18.128906 18.878906 18.070312 18.191406 C 18.039062 17.785156 17.804688 17.335938 16.972656 17.207031 L 14.257812 16.761719 C 12.058594 16.402344 11.585938 15.269531 11.496094 14.175781 C 11.3125 11.917969 13.386719 10.890625 15.386719 10.730469 C 17.230469 10.582031 19.496094 11.429688 19.605469 12.777344 C 19.652344 13.367188 19.171875 13.742188 18.59375 13.789062 C 17.496094 13.875 17.585938 12.347656 15.375 12.523438 C 14.277344 12.609375 13.710938 13.148438 13.765625 13.867188 C 13.824219 14.566406 14.703125 14.734375 15.476562 14.84375 L 17.484375 15.121094 C 19.691406 15.421875 20.34375 16.640625 20.4375 17.832031 C 20.5625 19.699219 19.25 21.171875 16.402344 21.402344 "/>
<path style=" stroke:none;fill-rule:nonzero;fill:rgb(100%,100%,100%);fill-opacity:1;" d="M 21.492188 19.570312 C 20.6875 19.546875 19.863281 22.296875 20.773438 22.230469 C 21.375 22.1875 22.039062 21.175781 22.222656 20.726562 C 22.027344 19.894531 21.761719 19.578125 21.492188 19.570312 Z M 21.484375 19.132812 C 22.265625 19.070312 22.609375 19.785156 22.683594 19.949219 L 23.058594 19.179688 L 23.925781 19.109375 L 23.019531 20.835938 C 23.019531 20.835938 23.40625 22.375 24.25 22.039062 C 24.25 22.039062 23.882812 22.417969 23.585938 22.441406 C 22.890625 22.496094 22.648438 21.648438 22.546875 21.480469 C 22.371094 21.84375 21.730469 22.589844 21.15625 22.636719 L 20.898438 22.65625 C 20.117188 22.71875 19.726562 22.230469 19.667969 21.503906 C 19.621094 20.9375 20.183594 19.238281 21.484375 19.132812 "/>
</g>
</svg>
