
<svg xmlns="http://www.w3.org/2000/svg" xmlns:xlink="http://www.w3.org/1999/xlink" width="32px" height="32px" viewBox="0 0 32 32" version="1.1">
<g id="surface1">
<path style=" stroke:none;fill-rule:nonzero;fill:rgb(18.431373%,30.980392%,30.980392%);fill-opacity:1;" d="M 3.601562 26.257812 C -4.179688 14.285156 2.097656 3.382812 10.910156 0.796875 C 22.765625 -2.683594 38.859375 6.460938 28.253906 25.308594 C 24.039062 32.796875 9.148438 34.78125 3.605469 26.257812 Z M 3.601562 26.257812 "/>
<path style="fill-rule:evenodd;fill:rgb(100%,100%,0%);fill-opacity:1;stroke-width:1.455968;stroke-linecap:butt;stroke-linejoin:miter;stroke:rgb(100%,100%,0%);stroke-opacity:1;stroke-miterlimit:4;" d="M 74.5625 181.46875 C 74.5625 179.0625 73.90625 178.46875 71.1875 178.46875 C 68.3125 178.46875 67.78125 177.90625 67.78125 174.875 C 67.78125 171.8125 67.28125 171.25 64.40625 171.25 L 61.03125 171.25 L 61.03125 65.71875 L 67.78125 65.71875 C 74.125 65.71875 74.5625 65.9375 74.5625 68.71875 C 74.5625 71.125 75.25 71.71875 77.96875 71.71875 C 80.8125 71.71875 81.34375 72.28125 81.34375 75.3125 L 81.34375 78.9375 L 146.40625 78.9375 L 146.40625 75.3125 C 146.40625 72.28125 146.9375 71.71875 149.78125 71.71875 C 152.5 71.71875 153.1875 71.125 153.1875 68.71875 C 153.1875 65.9375 153.625 65.71875 159.96875 65.71875 L 166.75 65.71875 L 166.75 147.28125 L 163.34375 147.28125 C 160.625 147.28125 159.96875 147.875 159.96875 150.28125 C 159.96875 152.6875 159.28125 153.28125 156.5625 153.28125 C 153.875 153.28125 153.1875 153.875 153.1875 156.28125 C 153.1875 158.8125 152.5625 159.28125 149.125 159.28125 C 145.6875 159.28125 145.0625 159.75 145.0625 162.28125 C 145.0625 164.65625 144.375 165.28125 141.65625 165.28125 C 138.96875 165.28125 138.28125 165.875 138.28125 168.28125 C 138.28125 170.65625 137.59375 171.25 134.875 171.25 C 132.03125 171.25 131.5 171.8125 131.5 174.875 C 131.5 177.90625 130.96875 178.46875 128.125 178.46875 C 125.25 178.46875 124.71875 177.90625 124.71875 174.875 C 124.71875 171.3125 124.65625 171.25 117.28125 171.25 C 109.875 171.25 109.8125 171.3125 109.8125 174.875 C 109.8125 177.90625 110.34375 178.46875 113.1875 178.46875 C 115.90625 178.46875 116.59375 179.0625 116.59375 181.46875 L 116.59375 184.46875 L 74.5625 184.46875 Z M 131.5 156.875 C 131.5 153.6875 131.9375 153.28125 135.5625 153.28125 C 139 153.28125 139.625 152.8125 139.625 150.28125 C 139.625 147.875 140.3125 147.28125 143.03125 147.28125 C 145.71875 147.28125 146.40625 146.6875 146.40625 144.28125 C 146.40625 141.875 147.09375 141.28125 149.78125 141.28125 L 153.1875 141.28125 L 153.1875 108.90625 L 149.78125 108.90625 C 147.09375 108.90625 146.40625 108.3125 146.40625 105.90625 C 146.40625 103.5 145.71875 102.90625 143.03125 102.90625 C 140.3125 102.90625 139.625 102.3125 139.625 99.90625 C 139.625 97.375 139 96.90625 135.5625 96.90625 C 131.9375 96.90625 131.5 96.5 131.5 93.3125 L 131.5 89.71875 L 96.25 89.71875 L 96.25 93.3125 C 96.25 96.5 95.8125 96.90625 92.1875 96.90625 C 88.75 96.90625 88.125 97.375 88.125 99.90625 C 88.125 102.3125 87.4375 102.90625 84.75 102.90625 C 82.03125 102.90625 81.34375 103.5 81.34375 105.90625 C 81.34375 108.3125 80.65625 108.90625 77.96875 108.90625 L 74.5625 108.90625 L 74.5625 141.28125 L 77.96875 141.28125 C 80.65625 141.28125 81.34375 141.875 81.34375 144.28125 C 81.34375 146.6875 82.03125 147.28125 84.75 147.28125 C 87.4375 147.28125 88.125 147.875 88.125 150.28125 C 88.125 152.8125 88.75 153.28125 92.1875 153.28125 C 95.8125 153.28125 96.25 153.6875 96.25 156.875 L 96.25 160.46875 L 131.5 160.46875 Z M 131.5 156.875 " transform="matrix(0.125,0,0,0.125,0,0)"/>
<path style="fill-rule:evenodd;fill:rgb(0%,100%,100%);fill-opacity:1;stroke-width:1.566259;stroke-linecap:butt;stroke-linejoin:miter;stroke:rgb(0%,100%,100%);stroke-opacity:1;stroke-miterlimit:4;" d="M 131.4375 179.40625 C 131.4375 173.03125 131.53125 172.875 135.75 172.875 C 139.40625 172.875 140.0625 172.375 140.0625 169.59375 C 140.0625 167 140.78125 166.34375 143.6875 166.34375 C 146.5625 166.34375 147.28125 165.6875 147.28125 163.09375 C 147.28125 160.46875 148 159.8125 150.875 159.8125 C 153.9375 159.8125 154.46875 159.21875 154.46875 155.90625 C 154.46875 152.59375 155.03125 151.96875 158.09375 151.96875 C 160.96875 151.96875 161.6875 151.34375 161.6875 148.71875 C 161.6875 146.09375 162.40625 145.46875 165.28125 145.46875 C 168.15625 145.46875 168.875 144.8125 168.875 142.1875 C 168.875 139.4375 169.5625 138.9375 173.21875 138.9375 C 176.875 138.9375 177.53125 138.40625 177.53125 135.65625 C 177.53125 133.0625 178.25 132.40625 181.125 132.40625 C 184.1875 132.40625 184.75 131.78125 184.75 128.46875 C 184.75 125.1875 185.28125 124.5625 188.34375 124.5625 C 191.21875 124.5625 191.9375 123.90625 191.9375 121.3125 C 191.9375 118.6875 192.65625 118.03125 195.53125 118.03125 C 198.4375 118.03125 199.15625 117.375 199.15625 114.78125 C 199.15625 112 199.8125 111.5 203.46875 111.5 C 207.125 111.5 207.78125 111 207.78125 108.25 C 207.78125 105.625 208.5 104.96875 211.375 104.96875 C 214.4375 104.96875 215 104.375 215 101.0625 C 215 97.21875 215.15625 97.15625 222.1875 97.15625 L 229.40625 97.15625 L 229.40625 103.65625 C 229.40625 109.75 229.15625 110.1875 225.78125 110.1875 C 222.75 110.1875 222.1875 110.8125 222.1875 114.125 C 222.1875 117.59375 221.71875 118.03125 217.875 118.03125 C 214.21875 118.03125 213.5625 118.53125 213.5625 121.3125 C 213.5625 123.90625 212.84375 124.5625 209.9375 124.5625 C 207.0625 124.5625 206.34375 125.21875 206.34375 127.8125 C 206.34375 130.4375 205.625 131.09375 202.75 131.09375 C 199.875 131.09375 199.15625 131.75 199.15625 134.34375 C 199.15625 136.96875 198.4375 137.625 195.53125 137.625 C 192.5 137.625 191.9375 138.21875 191.9375 141.53125 C 191.9375 145.03125 191.46875 145.46875 187.625 145.46875 C 183.96875 145.46875 183.28125 145.96875 183.28125 148.71875 C 183.28125 151.34375 182.5625 151.96875 179.6875 151.96875 C 176.8125 151.96875 176.09375 152.625 176.09375 155.25 C 176.09375 157.84375 175.375 158.5 172.5 158.5 C 169.59375 158.5 168.875 159.15625 168.875 161.78125 C 168.875 164.375 168.15625 165.03125 165.28125 165.03125 C 162.40625 165.03125 161.6875 165.6875 161.6875 168.3125 C 161.6875 170.90625 160.96875 171.5625 158.09375 171.5625 C 155.03125 171.5625 154.46875 172.1875 154.46875 175.5 C 154.46875 178.96875 154 179.40625 150.15625 179.40625 C 146.5 179.40625 145.84375 179.90625 145.84375 182.65625 C 145.84375 185.71875 145.34375 185.9375 138.625 185.9375 L 131.4375 185.9375 Z M 131.4375 179.40625 " transform="matrix(0.125,0,0,0.125,0,0)"/>
<path style="fill-rule:evenodd;fill:rgb(0%,0%,0%);fill-opacity:1;stroke-width:1.988266;stroke-linecap:butt;stroke-linejoin:miter;stroke:rgb(0%,0%,0%);stroke-opacity:1;stroke-miterlimit:4;" d="M 104.125 205.5625 C 104.125 197.65625 104.40625 197.09375 108.59375 197.09375 C 112.8125 197.09375 113.0625 196.59375 113.0625 187.78125 C 113.0625 178.96875 112.8125 178.46875 108.59375 178.46875 C 105 178.46875 104.125 177.625 104.125 174.25 C 104.125 170.28125 104.71875 170 113.0625 170 C 121.4375 170 122.03125 170.28125 122.03125 174.25 C 122.03125 177.625 122.90625 178.46875 126.5 178.46875 C 130.09375 178.46875 130.96875 179.3125 130.96875 182.6875 C 130.96875 186.09375 131.875 186.9375 135.4375 186.9375 C 139.21875 186.9375 139.9375 187.71875 139.9375 192 C 139.9375 196.3125 140.625 197.09375 144.40625 197.09375 C 148.59375 197.09375 148.875 197.65625 148.875 205.5625 C 148.875 212.875 148.40625 214.03125 145.3125 214.03125 C 142.5 214.03125 141.71875 212.875 141.71875 208.9375 C 141.71875 203.90625 141.625 203.875 131.875 203.875 C 122.125 203.875 122.03125 203.90625 122.03125 208.9375 C 122.03125 213.90625 121.8125 214.03125 113.0625 214.03125 L 104.125 214.03125 Z M 104.125 205.5625 " transform="matrix(0.125,0,0,0.125,0,0)"/>
<path style="fill-rule:evenodd;fill:rgb(100%,0%,0%);fill-opacity:1;stroke-width:0.87338;stroke-linecap:butt;stroke-linejoin:miter;stroke:rgb(100%,0%,0%);stroke-opacity:1;stroke-miterlimit:4;" d="M 97.4375 156.9375 C 97.4375 153.78125 96.40625 152.84375 92.25 152.1875 C 89.625 151.75 89.03125 151.34375 89 150.03125 C 89 147.625 88.125 146.6875 85.65625 146.375 C 83.625 146.15625 83.03125 145.53125 81.375 141.90625 C 81.0625 141.28125 79.75 140.65625 78.4375 140.53125 L 76.03125 140.28125 L 76.03125 109.90625 L 78.4375 109.65625 C 79.75 109.53125 81.0625 108.90625 81.375 108.28125 C 83.03125 104.65625 83.625 104.03125 85.65625 103.8125 C 88.125 103.5 89 102.5625 89 100.15625 C 89.03125 98.84375 89.625 98.4375 92.25 98 C 96.40625 97.34375 97.4375 96.40625 97.4375 93.25 L 97.4375 90.6875 L 130.3125 90.6875 L 130.3125 93.25 C 130.3125 96.40625 131.34375 97.34375 135.53125 98 C 138.125 98.4375 138.75 98.84375 138.75 100.15625 C 138.75 102.5625 139.625 103.5 142.09375 103.8125 C 143.3125 103.9375 144.59375 104.65625 144.96875 105.40625 L 146.28125 108.0625 C 146.625 108.84375 147.96875 109.53125 149.3125 109.65625 L 151.75 109.90625 L 151.75 140.28125 L 149.3125 140.53125 C 147.96875 140.65625 146.625 141.34375 146.28125 142.125 L 144.96875 144.78125 C 144.59375 145.53125 143.3125 146.25 142.09375 146.375 C 139.625 146.6875 138.75 147.625 138.75 150.03125 C 138.75 151.34375 138.125 151.75 135.53125 152.1875 C 131.34375 152.84375 130.3125 153.78125 130.3125 156.9375 L 130.3125 159.5 L 97.4375 159.5 Z M 97.4375 156.9375 " transform="matrix(0.125,0,0,0.125,0,0)"/>
</g>
</svg>
