
<svg xmlns="http://www.w3.org/2000/svg" xmlns:xlink="http://www.w3.org/1999/xlink" width="32px" height="32px" viewBox="0 0 32 32" version="1.1">
<defs>
<clipPath id="clip1">
  <path d="M 12.667969 7.332031 L 15 7.332031 L 15 9.332031 L 12.667969 9.332031 Z M 12.667969 7.332031 "/>
</clipPath>
<clipPath id="clip2">
  <path d="M 32.652344 16.613281 C 32.652344 25.90625 25.050781 33.433594 15.691406 33.433594 C 6.332031 33.433594 -1.265625 25.90625 -1.265625 16.613281 C -1.265625 7.316406 6.332031 -0.210938 15.691406 -0.210938 C 25.050781 -0.210938 32.652344 7.316406 32.652344 16.613281 Z M 32.652344 16.613281 "/>
</clipPath>
<clipPath id="clip3">
  <path d="M 11 7 L 24.667969 7 L 24.667969 18 L 11 18 Z M 11 7 "/>
</clipPath>
<clipPath id="clip4">
  <path d="M 32.652344 16.613281 C 32.652344 25.90625 25.050781 33.433594 15.691406 33.433594 C 6.332031 33.433594 -1.265625 25.90625 -1.265625 16.613281 C -1.265625 7.316406 6.332031 -0.210938 15.691406 -0.210938 C 25.050781 -0.210938 32.652344 7.316406 32.652344 16.613281 Z M 32.652344 16.613281 "/>
</clipPath>
<clipPath id="clip5">
  <path d="M 10 11.332031 L 25.332031 11.332031 L 25.332031 26.667969 L 10 26.667969 Z M 10 11.332031 "/>
</clipPath>
<clipPath id="clip6">
  <path d="M 32.652344 16.613281 C 32.652344 25.90625 25.050781 33.433594 15.691406 33.433594 C 6.332031 33.433594 -1.265625 25.90625 -1.265625 16.613281 C -1.265625 7.316406 6.332031 -0.210938 15.691406 -0.210938 C 25.050781 -0.210938 32.652344 7.316406 32.652344 16.613281 Z M 32.652344 16.613281 "/>
</clipPath>
<clipPath id="clip7">
  <path d="M 6 11.332031 L 21 11.332031 L 21 16 L 6 16 Z M 6 11.332031 "/>
</clipPath>
<clipPath id="clip8">
  <path d="M 32.652344 16.613281 C 32.652344 25.90625 25.050781 33.433594 15.691406 33.433594 C 6.332031 33.433594 -1.265625 25.90625 -1.265625 16.613281 C -1.265625 7.316406 6.332031 -0.210938 15.691406 -0.210938 C 25.050781 -0.210938 32.652344 7.316406 32.652344 16.613281 Z M 32.652344 16.613281 "/>
</clipPath>
<clipPath id="clip9">
  <path d="M 6 13.332031 L 20 13.332031 L 20 23.332031 L 6 23.332031 Z M 6 13.332031 "/>
</clipPath>
<clipPath id="clip10">
  <path d="M 32.652344 16.613281 C 32.652344 25.90625 25.050781 33.433594 15.691406 33.433594 C 6.332031 33.433594 -1.265625 25.90625 -1.265625 16.613281 C -1.265625 7.316406 6.332031 -0.210938 15.691406 -0.210938 C 25.050781 -0.210938 32.652344 7.316406 32.652344 16.613281 Z M 32.652344 16.613281 "/>
</clipPath>
<clipPath id="clip11">
  <path d="M 14 15 L 22 15 L 22 22.667969 L 14 22.667969 Z M 14 15 "/>
</clipPath>
<clipPath id="clip12">
  <path d="M 32.652344 16.613281 C 32.652344 25.90625 25.050781 33.433594 15.691406 33.433594 C 6.332031 33.433594 -1.265625 25.90625 -1.265625 16.613281 C -1.265625 7.316406 6.332031 -0.210938 15.691406 -0.210938 C 25.050781 -0.210938 32.652344 7.316406 32.652344 16.613281 Z M 32.652344 16.613281 "/>
</clipPath>
</defs>
<g id="surface1">
<path style=" stroke:none;fill-rule:nonzero;fill:rgb(60.392157%,80.392157%,19.607843%);fill-opacity:1;" d="M 28.878906 6.597656 C 44.871094 30.65625 -6.132812 45.472656 0.621094 14.371094 C 3.496094 1.519531 21.542969 -6.28125 28.878906 6.597656 Z M 28.878906 6.597656 "/>
<g clip-path="url(#clip1)" clip-rule="nonzero">
<g clip-path="url(#clip2)" clip-rule="nonzero">
<path style=" stroke:none;fill-rule:nonzero;fill:rgb(97.647059%,97.647059%,97.647059%);fill-opacity:1;" d="M 14.855469 8.394531 C 14.859375 8.722656 14.65625 9.03125 14.320312 9.195312 C 13.988281 9.359375 13.574219 9.359375 13.238281 9.195312 C 12.902344 9.03125 12.699219 8.722656 12.703125 8.394531 C 12.699219 8.066406 12.902344 7.761719 13.238281 7.597656 C 13.574219 7.433594 13.988281 7.433594 14.320312 7.597656 C 14.65625 7.761719 14.859375 8.066406 14.855469 8.394531 M 14.855469 8.394531 "/>
</g>
</g>
<g clip-path="url(#clip3)" clip-rule="nonzero">
<g clip-path="url(#clip4)" clip-rule="nonzero">
<path style=" stroke:none;fill-rule:nonzero;fill:rgb(23.529412%,61.568627%,9.019608%);fill-opacity:1;" d="M 23.464844 17.035156 C 24.085938 16.65625 24.539062 15.828125 24.539062 15.074219 C 24.539062 14.394531 24.195312 13.285156 23.582031 12 C 22.9375 10.644531 21.109375 8.773438 19.746094 8.070312 C 18.082031 7.214844 17.292969 7.0625 14.757812 7.113281 C 12.808594 7.160156 12.511719 7.195312 12.179688 7.449219 C 11.726562 7.800781 11.214844 8.835938 11.273438 9.277344 C 11.34375 9.773438 12.191406 10.019531 13.464844 9.910156 C 14.691406 9.800781 14.871094 9.9375 14.292969 10.546875 C 14.011719 10.847656 13.710938 10.992188 13.222656 11.058594 C 12.855469 11.113281 12.460938 11.167969 12.347656 11.1875 C 12.207031 11.207031 12.25 11.285156 12.484375 11.429688 C 12.714844 11.566406 13.449219 11.660156 14.8125 11.714844 C 16.574219 11.78125 16.886719 11.832031 17.550781 12.160156 C 18.359375 12.558594 19.359375 13.519531 19.703125 14.222656 C 19.820312 14.457031 20.03125 15.011719 20.175781 15.453125 C 20.597656 16.738281 21.308594 17.351562 22.378906 17.347656 C 22.726562 17.34375 23.175781 17.21875 23.464844 17.039062 M 13.195312 8.941406 C 12.792969 8.511719 13.183594 7.527344 13.761719 7.527344 C 14.410156 7.527344 14.777344 8.410156 14.324219 8.886719 C 14.066406 9.15625 13.429688 9.183594 13.195312 8.941406 M 13.195312 8.941406 "/>
</g>
</g>
<g clip-path="url(#clip5)" clip-rule="nonzero">
<g clip-path="url(#clip6)" clip-rule="nonzero">
<path style=" stroke:none;fill-rule:nonzero;fill:rgb(86.27451%,61.568627%,0%);fill-opacity:1;" d="M 25.277344 18.808594 C 25.300781 21.433594 23.902344 23.875 21.613281 25.199219 C 19.316406 26.519531 16.488281 26.519531 14.199219 25.199219 C 11.910156 23.875 10.515625 21.433594 10.535156 18.808594 C 10.511719 16.179688 11.910156 13.738281 14.199219 12.417969 C 16.492188 11.097656 19.320312 11.097656 21.613281 12.417969 C 23.902344 13.738281 25.304688 16.179688 25.277344 18.808594 M 25.277344 18.808594 "/>
</g>
</g>
<g clip-path="url(#clip7)" clip-rule="nonzero">
<g clip-path="url(#clip8)" clip-rule="nonzero">
<path style=" stroke:none;fill-rule:nonzero;fill:rgb(86.27451%,61.568627%,0%);fill-opacity:1;" d="M 8.472656 11.492188 L 18.484375 11.492188 C 19.789062 11.492188 20.851562 12.429688 20.851562 13.582031 L 20.851562 13.792969 C 20.851562 14.949219 19.789062 15.878906 18.484375 15.878906 L 8.472656 15.878906 C 7.167969 15.878906 6.105469 14.949219 6.105469 13.792969 L 6.105469 13.582031 C 6.105469 12.429688 7.167969 11.492188 8.472656 11.492188 M 8.472656 11.492188 "/>
</g>
</g>
<g clip-path="url(#clip9)" clip-rule="nonzero">
<g clip-path="url(#clip10)" clip-rule="nonzero">
<path style=" stroke:none;fill-rule:nonzero;fill:rgb(86.27451%,61.568627%,0%);fill-opacity:1;" d="M 7.359375 18.988281 L 15.964844 14.03125 C 17.089844 13.378906 18.460938 13.679688 19.027344 14.691406 L 19.128906 14.875 C 19.699219 15.890625 19.25 17.238281 18.125 17.886719 L 9.523438 22.847656 C 8.402344 23.496094 7.027344 23.199219 6.457031 22.183594 L 6.355469 22 C 5.785156 20.988281 6.238281 19.636719 7.359375 18.988281 M 7.359375 18.988281 "/>
</g>
</g>
<g clip-path="url(#clip11)" clip-rule="nonzero">
<g clip-path="url(#clip12)" clip-rule="nonzero">
<path style=" stroke:none;fill-rule:nonzero;fill:rgb(0%,43.921569%,72.54902%);fill-opacity:1;" d="M 21.589844 18.808594 C 21.601562 20.121094 20.902344 21.339844 19.753906 22 C 18.613281 22.664062 17.195312 22.664062 16.054688 22 C 14.910156 21.339844 14.207031 20.121094 14.222656 18.808594 C 14.207031 17.492188 14.910156 16.273438 16.054688 15.613281 C 17.199219 14.949219 18.613281 14.949219 19.753906 15.613281 C 20.902344 16.273438 21.601562 17.492188 21.589844 18.808594 M 21.589844 18.808594 "/>
</g>
</g>
</g>
</svg>
