
<svg xmlns="http://www.w3.org/2000/svg" xmlns:xlink="http://www.w3.org/1999/xlink" width="32px" height="32px" viewBox="0 0 32 32" version="1.1">
<g id="surface1">
<path style=" stroke:none;fill-rule:nonzero;fill:rgb(17.254902%,24.313725%,31.372549%);fill-opacity:1;" d="M 1.652344 22.667969 C 10.394531 40.402344 36.332031 30.523438 31.378906 12.535156 C 26.710938 -4.410156 3.019531 -3.929688 0.253906 12.5 C -0.320312 15.929688 0.0507812 19.414062 1.652344 22.667969 Z M 1.652344 22.667969 "/>
<path style=" stroke:none;fill-rule:nonzero;fill:rgb(17.254902%,24.313725%,31.372549%);fill-opacity:1;" d="M 16.101562 2.511719 C 23.722656 2.511719 29.898438 8.660156 29.898438 16.246094 C 29.898438 23.828125 23.722656 29.972656 16.101562 29.972656 C 8.480469 29.972656 2.300781 23.828125 2.300781 16.246094 C 2.300781 8.660156 8.480469 2.511719 16.101562 2.511719 Z M 16.101562 2.511719 "/>
<path style=" stroke:none;fill-rule:nonzero;fill:rgb(90.588235%,29.803922%,23.529412%);fill-opacity:1;" d="M 2.324219 14.339844 L 3.21875 11.023438 L 29.875 18.128906 L 28.980469 21.445312 Z M 2.324219 14.339844 "/>
<path style=" stroke:none;fill-rule:nonzero;fill:rgb(90.196078%,49.411765%,13.333333%);fill-opacity:1;" d="M 2.328125 18.136719 L 3.222656 21.457031 L 29.878906 14.347656 L 28.984375 11.03125 Z M 2.328125 18.136719 "/>
<path style=" stroke:none;fill-rule:nonzero;fill:rgb(95.294118%,61.176471%,7.058824%);fill-opacity:1;" d="M 24.636719 5.324219 L 15.578125 14.34375 L 19.425781 15.371094 L 27.066406 7.761719 Z M 24.636719 5.324219 "/>
<path style=" stroke:none;fill-rule:nonzero;fill:rgb(94.509804%,76.862745%,5.882353%);fill-opacity:1;" d="M 18.007812 2.535156 L 14.0625 17.1875 C 14.714844 17.027344 15.394531 16.925781 16.101562 16.925781 C 16.636719 16.925781 17.15625 16.980469 17.664062 17.074219 L 21.339844 3.421875 Z M 18.007812 2.535156 "/>
<path style=" stroke:none;fill-rule:nonzero;fill:rgb(90.196078%,49.411765%,13.333333%);fill-opacity:1;" d="M 14.183594 2.535156 L 10.851562 3.425781 L 14.527344 17.078125 C 15.035156 16.980469 15.550781 16.929688 16.089844 16.929688 C 16.796875 16.929688 17.476562 17.027344 18.128906 17.191406 L 14.183594 2.539062 Z M 14.183594 2.535156 "/>
<path style=" stroke:none;fill-rule:nonzero;fill:rgb(95.294118%,61.176471%,7.058824%);fill-opacity:1;" d="M 7.566406 5.324219 L 5.128906 7.753906 L 14.511719 17.089844 C 15.027344 16.988281 15.558594 16.933594 16.105469 16.933594 C 17.722656 16.933594 19.226562 17.398438 20.5 18.191406 Z M 7.566406 5.324219 "/>
<path style=" stroke:none;fill-rule:nonzero;fill:rgb(75.294118%,22.352941%,16.862745%);fill-opacity:1;" d="M 14.386719 17.601562 L 17.835938 17.601562 L 17.835938 29.957031 L 14.386719 29.957031 Z M 14.386719 17.601562 "/>
<path style=" stroke:none;fill-rule:nonzero;fill:rgb(90.196078%,49.411765%,13.333333%);fill-opacity:1;" d="M 2.324219 14.339844 L 3.21875 11.023438 L 29.875 18.128906 L 28.980469 21.445312 Z M 2.324219 14.339844 "/>
</g>
</svg>
