
<svg xmlns="http://www.w3.org/2000/svg" xmlns:xlink="http://www.w3.org/1999/xlink" width="32px" height="32px" viewBox="0 0 32 32" version="1.1">
<g id="surface1">
<path style=" stroke:none;fill-rule:nonzero;fill:rgb(100%,100%,87.843137%);fill-opacity:1;" d="M 24.234375 3.976562 C 52.574219 30.320312 -5.914062 46.917969 0.535156 11.945312 C 3.71875 2.714844 15.136719 -4.484375 24.234375 3.976562 Z M 24.234375 3.976562 "/>
<path style=" stroke:none;fill-rule:nonzero;fill:rgb(100%,27.058824%,0%);fill-opacity:1;" d="M 20.707031 23.882812 C 20.011719 23.136719 19.605469 22.574219 19.46875 22.167969 C 19.285156 21.632812 18.402344 20.621094 18.121094 20.628906 C 18.066406 20.628906 17.660156 20.8125 17.222656 21.035156 C 14.742188 22.308594 12.429688 22.3125 10.140625 21.054688 C 9.183594 20.527344 7.859375 19.109375 7.324219 18.03125 C 7.066406 17.523438 6.8125 17.082031 6.757812 17.058594 C 6.703125 17.035156 6.65625 16.167969 6.65625 15.128906 C 6.65625 13.320312 6.667969 13.242188 6.949219 13.113281 C 7.109375 13.042969 7.296875 12.804688 7.367188 12.585938 C 7.914062 10.917969 9.984375 9.050781 12.007812 8.40625 C 12.28125 8.316406 12.503906 8.191406 12.503906 8.121094 C 12.503906 8.054688 13.105469 8 13.84375 8 C 14.699219 8 15.148438 8.046875 15.097656 8.132812 C 15.050781 8.207031 15.109375 8.265625 15.222656 8.265625 C 15.335938 8.265625 15.988281 8.53125 16.667969 8.855469 C 18.265625 9.617188 19.214844 10.542969 19.984375 12.09375 C 20.507812 13.152344 20.53125 13.257812 20.585938 14.714844 C 20.636719 16.054688 20.609375 16.335938 20.34375 17.070312 C 20.175781 17.527344 19.925781 18.09375 19.785156 18.328125 C 19.371094 19.03125 19.433594 19.453125 20.050781 20.050781 C 20.351562 20.339844 20.824219 20.648438 21.101562 20.734375 C 21.421875 20.832031 21.988281 21.253906 22.640625 21.878906 L 23.667969 22.863281 L 23.667969 25.011719 L 22.707031 25.003906 L 21.742188 24.996094 Z M 14.839844 21.015625 C 16.074219 20.792969 17.441406 20.054688 18.261719 19.164062 C 18.96875 18.402344 19.511719 17.488281 19.355469 17.332031 C 19.308594 17.285156 19.007812 17.390625 18.683594 17.570312 L 18.097656 17.890625 L 17.777344 17.589844 C 17.605469 17.425781 17.226562 17.257812 16.941406 17.210938 C 16.050781 17.074219 15.246094 16.367188 14.730469 15.277344 C 14.566406 14.929688 14.375 14.664062 14.300781 14.6875 C 14.164062 14.730469 14.003906 15.367188 13.644531 17.292969 C 13.429688 18.441406 13.175781 18.898438 12.753906 18.898438 C 12.449219 18.898438 12.308594 18.628906 12.109375 17.660156 C 12.023438 17.234375 11.867188 16.855469 11.765625 16.816406 C 11.664062 16.777344 11.359375 16.929688 11.082031 17.15625 C 10.53125 17.613281 10.300781 17.65625 9.910156 17.390625 C 9.765625 17.289062 9.273438 17.171875 8.816406 17.125 C 8.019531 17.042969 7.988281 17.054688 7.992188 17.339844 C 7.996094 17.714844 8.484375 18.515625 9.121094 19.183594 C 10.609375 20.753906 12.652344 21.410156 14.839844 21.015625 Z M 19.886719 16.050781 C 20.015625 15.203125 19.886719 14.902344 19.4375 14.992188 C 19.148438 15.050781 18.964844 14.964844 18.554688 14.589844 L 18.035156 14.113281 L 16.730469 14.113281 C 15.238281 14.113281 15.203125 14.148438 15.777344 15.121094 C 16.171875 15.800781 16.449219 15.984375 17.289062 16.125 C 18.625 16.351562 19.097656 16.460938 19.347656 16.601562 C 19.707031 16.804688 19.785156 16.722656 19.886719 16.050781 Z M 11.066406 15.972656 C 11.683594 15.523438 12.042969 15.476562 12.484375 15.789062 C 12.652344 15.90625 12.8125 15.976562 12.839844 15.949219 C 12.921875 15.867188 13.214844 13.980469 13.15625 13.921875 C 13.125 13.890625 12.851562 13.933594 12.550781 14.015625 C 11.78125 14.21875 11.410156 13.960938 11.152344 13.027344 C 11.042969 12.636719 10.898438 12.320312 10.832031 12.320312 C 10.765625 12.320312 10.671875 12.617188 10.621094 12.984375 C 10.570312 13.347656 10.46875 14.121094 10.390625 14.695312 C 10.3125 15.273438 10.183594 15.824219 10.101562 15.921875 C 9.929688 16.128906 10.050781 16.371094 10.320312 16.371094 C 10.425781 16.371094 10.761719 16.191406 11.066406 15.972656 Z M 9.222656 15.542969 C 9.175781 15.308594 9.039062 14.785156 8.917969 14.382812 C 8.71875 13.710938 8.667969 13.648438 8.316406 13.648438 C 7.808594 13.648438 7.59375 14.074219 7.589844 15.089844 L 7.589844 15.863281 L 8.113281 15.777344 C 8.410156 15.726562 8.742188 15.746094 8.875 15.828125 C 9.257812 16.046875 9.316406 16 9.222656 15.542969 Z M 19.550781 13.570312 C 19.550781 13.488281 19.304688 12.949219 19.003906 12.371094 C 18.34375 11.105469 17.347656 10.132812 16.09375 9.539062 C 15.296875 9.164062 15.117188 9.128906 13.835938 9.128906 C 13.066406 9.128906 12.28125 9.175781 12.089844 9.226562 C 11.746094 9.324219 11.738281 9.34375 11.808594 10.226562 C 11.84375 10.71875 11.949219 11.511719 12.035156 11.988281 C 12.171875 12.722656 12.230469 12.84375 12.449219 12.804688 C 12.589844 12.78125 12.925781 12.730469 13.199219 12.691406 C 13.46875 12.65625 13.761719 12.539062 13.84375 12.4375 C 14.082031 12.15625 14.585938 12.21875 14.855469 12.5625 C 15.15625 12.945312 15.707031 13.066406 16.492188 12.917969 C 18.179688 12.597656 18.191406 12.597656 18.714844 13.179688 C 19.179688 13.695312 19.550781 13.871094 19.550781 13.570312 Z M 9.863281 11.890625 C 10.3125 10.164062 10.082031 9.945312 9.09375 11.15625 L 8.523438 11.855469 L 8.945312 12.453125 C 9.222656 12.84375 9.414062 13.007812 9.496094 12.921875 C 9.570312 12.847656 9.734375 12.386719 9.863281 11.890625 Z M 9.863281 11.890625 "/>
<path style=" stroke:none;fill-rule:nonzero;fill:rgb(60.392157%,80.392157%,19.607843%);fill-opacity:1;" d="M 20.707031 23.882812 C 20.011719 23.136719 19.605469 22.574219 19.46875 22.167969 C 19.285156 21.632812 18.402344 20.621094 18.121094 20.628906 C 18.066406 20.628906 17.660156 20.8125 17.222656 21.035156 C 14.742188 22.308594 12.429688 22.3125 10.140625 21.054688 C 9.183594 20.527344 7.859375 19.109375 7.324219 18.03125 C 7.066406 17.523438 6.8125 17.082031 6.757812 17.058594 C 6.703125 17.035156 6.65625 16.167969 6.65625 15.128906 C 6.65625 13.320312 6.667969 13.242188 6.949219 13.113281 C 7.109375 13.042969 7.296875 12.804688 7.367188 12.585938 C 7.914062 10.917969 9.984375 9.050781 12.007812 8.40625 C 12.28125 8.316406 12.503906 8.191406 12.503906 8.121094 C 12.503906 8.054688 13.105469 8 13.84375 8 C 14.699219 8 15.148438 8.046875 15.097656 8.132812 C 15.050781 8.207031 15.109375 8.265625 15.222656 8.265625 C 15.335938 8.265625 15.988281 8.53125 16.667969 8.855469 C 18.265625 9.617188 19.214844 10.542969 19.984375 12.09375 C 20.507812 13.152344 20.53125 13.257812 20.585938 14.714844 C 20.636719 16.054688 20.609375 16.335938 20.34375 17.070312 C 20.175781 17.527344 19.925781 18.09375 19.785156 18.328125 C 19.371094 19.03125 19.433594 19.453125 20.050781 20.050781 C 20.351562 20.339844 20.824219 20.648438 21.101562 20.734375 C 21.421875 20.832031 21.988281 21.253906 22.640625 21.878906 L 23.667969 22.863281 L 23.667969 25.011719 L 22.707031 25.003906 L 21.742188 24.996094 Z M 14.839844 21.015625 C 16.074219 20.792969 17.441406 20.054688 18.261719 19.164062 C 18.96875 18.402344 19.511719 17.488281 19.355469 17.332031 C 19.308594 17.285156 19.007812 17.390625 18.683594 17.570312 L 18.097656 17.890625 L 17.777344 17.589844 C 17.605469 17.425781 17.226562 17.257812 16.941406 17.210938 C 16.050781 17.074219 15.246094 16.367188 14.730469 15.277344 C 14.566406 14.929688 14.375 14.664062 14.300781 14.6875 C 14.164062 14.730469 14.003906 15.367188 13.644531 17.292969 C 13.429688 18.441406 13.175781 18.898438 12.753906 18.898438 C 12.449219 18.898438 12.308594 18.628906 12.109375 17.660156 C 12.023438 17.234375 11.867188 16.855469 11.765625 16.816406 C 11.664062 16.777344 11.359375 16.929688 11.082031 17.15625 C 10.53125 17.613281 10.300781 17.65625 9.910156 17.390625 C 9.765625 17.289062 9.273438 17.171875 8.816406 17.125 C 8.019531 17.042969 7.988281 17.054688 7.992188 17.339844 C 7.996094 17.714844 8.484375 18.515625 9.121094 19.183594 C 10.609375 20.753906 12.652344 21.410156 14.839844 21.015625 Z M 19.859375 15.351562 C 19.84375 14.726562 19.769531 14.148438 19.691406 14.070312 C 19.613281 13.992188 19.550781 13.8125 19.550781 13.675781 C 19.550781 13.535156 19.304688 12.949219 19.003906 12.371094 C 18.34375 11.105469 17.347656 10.132812 16.09375 9.539062 C 15.296875 9.164062 15.117188 9.128906 13.835938 9.128906 C 12.996094 9.128906 12.214844 9.203125 11.878906 9.316406 C 11.378906 9.480469 11.335938 9.527344 11.464844 9.765625 C 11.636719 10.09375 11.390625 11.035156 11.101562 11.144531 C 10.789062 11.265625 10.511719 10.925781 10.511719 10.421875 C 10.511719 9.976562 10.5 9.964844 10.269531 10.171875 C 10.136719 10.292969 9.96875 10.390625 9.894531 10.390625 C 9.722656 10.390625 9.167969 10.988281 8.734375 11.632812 L 8.394531 12.144531 L 8.6875 12.542969 C 8.976562 12.933594 8.980469 12.941406 8.726562 13.128906 C 8.582031 13.230469 8.324219 13.316406 8.152344 13.316406 C 7.980469 13.316406 7.871094 13.371094 7.910156 13.433594 C 7.953125 13.5 7.894531 13.726562 7.789062 13.933594 C 7.679688 14.144531 7.589844 14.660156 7.589844 15.089844 L 7.589844 15.871094 L 8.046875 15.785156 C 8.492188 15.703125 9.753906 16.003906 10.039062 16.257812 C 10.253906 16.453125 10.496094 16.386719 11.066406 15.972656 C 11.671875 15.53125 12.058594 15.476562 12.445312 15.769531 C 12.589844 15.878906 12.742188 15.96875 12.792969 15.96875 C 12.839844 15.972656 12.949219 15.539062 13.035156 15.011719 C 13.121094 14.480469 13.21875 13.941406 13.253906 13.8125 C 13.335938 13.53125 13.054688 13.511719 12.402344 13.746094 C 12 13.890625 11.929688 13.882812 11.761719 13.652344 C 11.660156 13.511719 11.574219 13.257812 11.574219 13.085938 L 11.574219 12.777344 L 11.960938 13.0625 C 12.324219 13.332031 12.367188 13.335938 12.65625 13.132812 C 12.824219 13.015625 13.074219 12.917969 13.214844 12.917969 C 13.351562 12.917969 13.582031 12.769531 13.726562 12.585938 C 14.125 12.078125 14.566406 12.148438 15 12.789062 L 15.363281 13.328125 L 16.226562 13.25 C 16.703125 13.207031 17.328125 13.109375 17.617188 13.03125 C 18.132812 12.894531 18.152344 12.902344 18.613281 13.425781 C 18.871094 13.714844 19.222656 14.027344 19.390625 14.109375 C 19.640625 14.234375 19.667969 14.300781 19.542969 14.453125 C 19.296875 14.75 18.960938 14.679688 18.582031 14.253906 C 18.316406 13.960938 18.109375 13.859375 17.726562 13.851562 C 17.449219 13.84375 17.074219 13.828125 16.890625 13.816406 C 16.707031 13.804688 16.304688 13.808594 15.992188 13.820312 C 15.484375 13.84375 15.429688 13.878906 15.429688 14.1875 C 15.429688 14.625 16.035156 15.667969 16.40625 15.871094 C 16.5625 15.957031 16.960938 16.070312 17.289062 16.125 C 18.632812 16.351562 19.097656 16.460938 19.351562 16.605469 C 19.777344 16.847656 19.882812 16.582031 19.859375 15.351562 Z M 9.523438 15.421875 C 9.355469 14.917969 9.183594 14.144531 9.183594 13.878906 C 9.183594 13.667969 9.261719 13.582031 9.449219 13.582031 C 9.636719 13.582031 9.78125 13.421875 9.9375 13.03125 C 10.140625 12.523438 10.167969 12.503906 10.265625 12.769531 C 10.324219 12.929688 10.316406 13.3125 10.246094 13.621094 C 10.175781 13.929688 10.070312 14.472656 10.015625 14.832031 C 9.917969 15.460938 9.644531 15.789062 9.523438 15.421875 Z M 9.523438 15.421875 "/>
<path style=" stroke:none;fill-rule:nonzero;fill:rgb(65.882353%,65.490196%,65.882353%);fill-opacity:1;" d="M 20.707031 23.882812 C 20.011719 23.136719 19.605469 22.574219 19.46875 22.167969 C 19.285156 21.632812 18.402344 20.621094 18.121094 20.628906 C 18.066406 20.628906 17.660156 20.8125 17.222656 21.035156 C 14.742188 22.308594 12.429688 22.3125 10.140625 21.054688 C 9.183594 20.527344 7.859375 19.109375 7.324219 18.03125 C 7.066406 17.523438 6.921875 17.359375 6.867188 17.332031 C 6.8125 17.308594 6.601562 16.113281 6.601562 15.074219 C 6.601562 13.265625 7.054688 12.636719 7.332031 12.511719 C 7.492188 12.4375 7.1875 12.53125 7.257812 12.3125 C 7.804688 10.644531 10.203125 8.886719 12.226562 8.238281 C 12.5 8.152344 12.503906 8.191406 12.503906 8.121094 C 12.503906 8.054688 13.105469 7.945312 13.84375 7.945312 C 14.699219 7.945312 15.148438 8.046875 15.097656 8.132812 C 15.050781 8.207031 15.875 8.59375 15.992188 8.59375 C 16.105469 8.59375 15.988281 8.53125 16.667969 8.855469 C 18.265625 9.617188 19.214844 10.542969 19.984375 12.09375 C 20.507812 13.152344 20.53125 13.257812 20.585938 14.714844 C 20.636719 16.054688 20.609375 16.335938 20.34375 17.070312 C 20.175781 17.527344 19.925781 18.09375 19.785156 18.328125 C 19.371094 19.03125 19.433594 19.453125 20.050781 20.050781 C 20.351562 20.339844 20.824219 20.648438 21.101562 20.734375 C 21.421875 20.832031 21.988281 21.253906 22.640625 21.878906 L 23.667969 22.863281 L 23.667969 25.011719 L 22.707031 25.003906 L 21.742188 24.996094 Z M 14.839844 21.015625 C 17.203125 20.589844 19.171875 18.757812 19.808594 16.394531 C 19.964844 15.8125 19.863281 14.160156 19.664062 14.035156 C 19.601562 13.996094 19.550781 13.828125 19.550781 13.664062 C 19.550781 13.496094 19.296875 12.894531 18.988281 12.328125 C 18.308594 11.082031 17.308594 10.117188 16.09375 9.539062 C 15.296875 9.164062 15.0625 9.128906 13.78125 9.128906 C 12.941406 9.128906 11.832031 9.476562 11.496094 9.589844 C 10.996094 9.753906 11.335938 9.527344 11.464844 9.765625 C 11.636719 10.09375 11.390625 11.035156 11.101562 11.144531 C 10.789062 11.265625 10.511719 10.925781 10.511719 10.421875 C 10.511719 9.976562 11.597656 9.414062 11.367188 9.625 C 11.234375 9.746094 9.96875 10.390625 9.894531 10.390625 C 9.722656 10.390625 9.167969 10.988281 8.734375 11.632812 L 8.394531 12.144531 L 8.6875 12.542969 C 8.976562 12.933594 8.980469 12.941406 8.726562 13.128906 C 8.582031 13.230469 8.324219 13.316406 8.152344 13.316406 C 7.980469 13.316406 7.871094 13.371094 7.910156 13.433594 C 7.953125 13.5 7.894531 13.726562 7.789062 13.933594 C 7.34375 14.785156 7.6875 17.164062 8.421875 18.3125 C 9.777344 20.425781 12.273438 21.476562 14.839844 21.015625 Z M 12.578125 18.332031 C 12.546875 18.242188 12.429688 17.828125 12.3125 17.410156 C 12.078125 16.558594 11.761719 16.339844 11.269531 16.691406 C 11.109375 16.808594 10.84375 17 10.679688 17.117188 C 10.414062 17.308594 10.347656 17.3125 10.082031 17.140625 C 9.914062 17.03125 9.460938 16.914062 9.074219 16.875 C 8.675781 16.835938 8.269531 16.714844 8.148438 16.589844 C 7.945312 16.386719 7.945312 16.355469 8.160156 16.144531 C 8.40625 15.894531 8.308594 15.867188 9.714844 16.570312 C 10.117188 16.769531 10.53125 16.664062 11.226562 16.191406 C 11.898438 15.734375 12.097656 15.746094 12.527344 16.269531 L 12.882812 16.699219 L 13.011719 16.371094 C 13.238281 15.800781 13.46875 14.261719 13.382812 13.914062 C 13.289062 13.542969 13.070312 13.503906 12.402344 13.746094 C 12 13.890625 11.929688 13.882812 11.761719 13.652344 C 11.660156 13.511719 11.574219 13.257812 11.574219 13.085938 L 11.574219 12.777344 L 11.960938 13.0625 C 12.324219 13.332031 12.367188 13.335938 12.65625 13.132812 C 12.824219 13.015625 13.097656 12.917969 13.265625 12.917969 C 13.433594 12.917969 13.570312 12.871094 13.570312 12.8125 C 13.570312 12.757812 13.753906 12.640625 13.980469 12.554688 C 14.351562 12.414062 14.421875 12.433594 14.691406 12.726562 C 14.859375 12.902344 15.0625 13.050781 15.144531 13.050781 C 15.226562 13.050781 15.296875 13.117188 15.296875 13.203125 C 15.296875 13.375 16.726562 13.269531 17.617188 13.03125 C 18.132812 12.894531 18.152344 12.902344 18.613281 13.425781 C 18.871094 13.714844 19.222656 14.027344 19.390625 14.109375 C 19.640625 14.234375 19.667969 14.300781 19.542969 14.453125 C 19.296875 14.75 18.960938 14.679688 18.582031 14.253906 C 18.316406 13.960938 18.109375 13.859375 17.726562 13.851562 C 17.449219 13.84375 17.074219 13.828125 16.890625 13.816406 C 16.707031 13.804688 16.304688 13.808594 15.996094 13.820312 C 15.511719 13.84375 15.421875 13.894531 15.347656 14.191406 C 15.289062 14.421875 15.363281 14.753906 15.566406 15.1875 C 15.933594 15.96875 16.585938 16.417969 17.316406 16.390625 C 17.585938 16.382812 17.84375 16.433594 17.886719 16.507812 C 17.933594 16.578125 18.175781 16.636719 18.425781 16.636719 C 18.792969 16.636719 18.882812 16.691406 18.882812 16.902344 C 18.882812 17.046875 18.734375 17.261719 18.546875 17.386719 C 18.226562 17.59375 18.195312 17.589844 17.910156 17.320312 C 17.742188 17.167969 17.328125 16.988281 16.988281 16.921875 C 16.644531 16.859375 16.214844 16.707031 16.027344 16.585938 C 15.597656 16.304688 14.953125 15.417969 14.769531 14.855469 C 14.660156 14.527344 14.554688 14.429688 14.332031 14.445312 C 13.964844 14.472656 13.800781 14.90625 13.492188 16.703125 C 13.363281 17.4375 13.207031 18.136719 13.144531 18.265625 C 13.007812 18.535156 12.65625 18.578125 12.578125 18.332031 Z M 9.449219 16.105469 C 9.207031 15.949219 9.414062 15.949219 9.78125 16.105469 C 9.957031 16.183594 9.980469 16.222656 9.847656 16.226562 C 9.738281 16.230469 9.558594 16.175781 9.449219 16.105469 Z M 9.523438 15.421875 C 9.355469 14.917969 9.183594 14.144531 9.183594 13.878906 C 9.183594 13.667969 9.261719 13.582031 9.449219 13.582031 C 9.636719 13.582031 9.78125 13.421875 9.9375 13.03125 C 10.140625 12.523438 10.167969 12.503906 10.265625 12.769531 C 10.324219 12.929688 10.316406 13.3125 10.246094 13.621094 C 10.175781 13.929688 10.070312 14.472656 10.015625 14.832031 C 9.917969 15.460938 9.644531 15.789062 9.523438 15.421875 Z M 9.523438 15.421875 "/>
<path style="fill-rule:nonzero;fill:rgb(60.392157%,80.392157%,19.607843%);fill-opacity:1;stroke-width:1;stroke-linecap:butt;stroke-linejoin:miter;stroke:rgb(60.392157%,80.392157%,19.607843%);stroke-opacity:1;stroke-miterlimit:4;" d="M 164.307549 189.741374 C 163.837268 188.506886 162.455817 186.59637 161.22133 185.508845 C 157.047586 181.746597 149.082202 171.077098 148.229818 168.020271 C 147.377434 165.110408 148.905847 161.994796 151.169074 161.994796 C 151.609963 161.994796 153.255946 169.019618 156.812446 172.576118 C 164.954185 180.600287 170.127276 185.126742 172.566858 182.481411 L 176.916957 177.807994 L 177.034527 184.891601 L 177.18149 192.004601 L 171.185408 192.004601 C 165.865354 192.004601 165.071755 191.740068 164.307549 189.741374 Z M 93.765403 141.743322 C 93.530263 141.067293 92.648486 137.951682 91.766709 134.806678 C 90.003155 128.3991 87.622358 126.753116 83.918895 129.398447 C 82.7138 130.280223 80.715106 131.720459 79.480619 132.602236 C 77.481925 134.042471 76.982251 134.071864 74.983557 132.778591 C 73.719677 131.955599 70.31014 131.073823 67.400276 130.779897 C 66.195181 130.662327 64.990086 130.456579 63.902562 130.162653 C 62.285971 129.751157 60.992698 129.192699 60.434239 128.63424 C 58.905826 127.105827 58.905826 126.870686 60.522417 125.283488 C 62.109615 123.666897 61.786297 123.284794 68.517194 126.635546 C 69.545933 127.164612 70.780421 127.752463 72.220656 128.487277 C 75.24809 129.986298 78.363701 129.192699 83.595577 125.636199 C 88.651098 122.226662 90.591007 122.314839 93.26573 126.077087 C 96.704659 130.868075 97.410081 129.339661 100.114196 111.263237 C 100.878403 106.090146 100.819618 106.001968 98.380035 106.001968 C 96.998585 106.001968 94.323862 106.560427 92.442738 107.236456 C 89.415304 108.323981 88.886238 108.265195 87.622358 106.531034 C 86.858151 105.472902 86.211515 103.562386 86.211515 102.269113 L 86.211515 99.947101 L 89.121379 102.092758 C 91.854887 104.120844 92.178205 104.150237 94.353254 102.621824 C 95.617134 101.740047 97.909754 101.005233 99.438167 101.005233 C 100.966581 101.005233 103.14163 100.094064 104.229155 98.977146 C 106.668737 96.566956 109.049535 97.419341 111.253977 101.534299 C 112.66482 104.209022 112.78239 104.238415 120.189315 103.621171 C 124.333666 103.26846 129.506757 102.504254 131.681806 101.88701 C 135.561624 100.799485 135.679195 100.85827 139.176909 104.796873 C 141.116818 107.001315 143.762149 109.35272 145.026029 109.969964 C 146.907153 110.910526 147.112901 111.410199 146.172339 112.556509 C 144.320607 114.790344 141.792847 114.261278 138.941769 111.057489 C 136.943075 108.853047 135.385269 108.08884 132.504798 108.030055 C 130.417926 107.97127 127.59624 107.8537 126.21479 107.765522 C 124.83334 107.677344 121.570766 107.706737 118.954828 107.794915 C 114.398981 108.000662 114.222625 108.118233 114.222625 111.028096 C 114.222625 119.228621 122.334972 127.664286 129.712505 127.164612 C 131.564236 127.047042 133.357182 127.399752 133.709893 127.987604 C 134.062604 128.546062 135.884943 128.986951 137.766066 128.986951 C 140.528967 128.986951 141.204996 129.398447 141.204996 130.985645 C 141.204996 132.07317 140.088079 133.68976 138.677236 134.630322 C 136.267046 136.188128 136.031905 136.158736 133.886248 134.130649 C 132.622368 132.984339 129.506757 131.632281 126.949604 131.132608 C 119.043005 129.66298 113.81113 124.725029 110.25463 115.348803 C 109.255283 112.732865 107.991403 110.440245 107.432944 110.234497 C 106.257241 109.852394 102.230461 117.758993 102.171676 120.551286 C 102.142283 123.431757 98.615176 140.538227 97.792184 141.860892 C 96.851622 143.389305 94.265077 143.301128 93.765403 141.743322 Z M 70.780421 119.845864 C 69.516541 116.054224 68.223268 110.234497 68.223268 108.235803 C 68.223268 106.648605 68.811119 106.001968 70.221962 106.001968 C 71.632805 106.001968 72.72033 104.796873 73.896032 101.857617 C 75.424445 98.036584 75.630193 97.889622 76.365007 99.888316 C 76.805896 101.093411 76.747111 103.973882 76.218044 106.295894 C 75.688978 108.617906 74.895379 112.703472 74.483883 115.407588 C 73.749069 120.13979 71.69159 122.608765 70.780421 119.845864 Z M 57.877087 103.327245 C 56.642599 102.092758 57.201058 99.329857 59.052789 97.654481 C 61.580549 95.361861 62.903214 95.567609 64.901909 98.624436 C 66.518499 101.122803 66.518499 101.299159 64.725553 102.621824 C 62.726859 104.062059 59.023396 104.473555 57.877087 103.327245 Z M 80.244825 78.549317 C 78.540057 76.844548 79.127908 79.578056 80.920854 78.108428 C 85.12399 74.610714 83.713147 75.25735 81.155995 81.371002 C 79.568796 85.221428 82.36109 80.665581 80.244825 78.549317 Z M 80.244825 78.549317 " transform="matrix(0.132899,0,0,0.132899,0.116771,-0.505553)"/>
<path style="fill-rule:nonzero;fill:rgb(100%,27.058824%,0%);fill-opacity:1;stroke-width:1;stroke-linecap:butt;stroke-linejoin:miter;stroke:rgb(100%,27.058824%,0%);stroke-opacity:1;stroke-miterlimit:4;" d="M 164.307549 189.741374 C 163.837268 188.506886 162.455817 186.59637 161.22133 185.508845 C 157.047586 181.746597 149.082202 171.077098 148.229818 168.020271 C 147.377434 165.110408 148.905847 161.994796 151.169074 161.994796 C 151.609963 161.994796 154.901929 164.90466 158.458429 168.431767 C 166.600168 176.485329 170.685734 179.042482 174.242234 178.33706 L 176.916957 177.807994 L 177.034527 184.891601 L 177.18149 192.004601 L 171.185408 192.004601 C 165.865354 192.004601 165.071755 191.740068 164.307549 189.741374 Z M 93.853581 137.863504 C 92.736664 132.30831 93.030589 131.250178 95.705312 131.250178 C 97.762791 131.250178 98.20368 131.749851 98.20368 133.866116 C 98.174287 140.80276 94.999891 143.712624 93.853581 137.863504 Z M 132.446013 131.338356 L 130.182786 128.898773 L 133.945034 129.516017 C 140.176256 130.574149 140.617145 130.809289 139.206302 132.514058 C 137.472141 134.60093 135.091343 134.189434 132.446013 131.338356 Z M 61.668727 127.899426 C 60.522417 126.047695 62.903214 124.519282 64.666768 125.959517 C 65.519152 126.664938 66.224574 127.634893 66.224574 128.134566 C 66.224574 129.369054 62.462326 129.222091 61.668727 127.899426 Z M 88.827453 127.48793 C 87.769321 126.723724 86.534833 126.312228 86.064552 126.576761 C 85.594271 126.870686 85.212168 126.841294 85.212168 126.517976 C 85.212168 126.194657 86.240908 125.548021 87.475395 125.07774 C 89.94437 124.137178 92.207597 125.371666 92.207597 127.634893 C 92.207597 129.369054 91.237643 129.339661 88.827453 127.48793 Z M 119.219361 126.488583 C 117.632162 124.578067 119.248753 124.548674 121.776513 126.459191 C 123.393104 127.693678 123.451889 127.928819 122.099832 127.958211 C 121.188662 127.987604 119.89539 127.311575 119.219361 126.488583 Z M 113.546596 119.757687 C 112.517857 117.96474 110.989444 115.143055 110.137059 113.497071 C 108.608646 110.557815 107.315374 110.116927 104.052799 111.468985 C 102.788919 111.968658 102.259853 111.410199 101.730787 109.058795 C 100.966581 105.590472 98.409428 105.061406 92.442738 107.236456 C 89.415304 108.323981 88.886238 108.265195 87.622358 106.531034 C 86.858151 105.472902 86.211515 103.562386 86.211515 102.269113 L 86.211515 99.947101 L 89.121379 102.092758 C 91.854887 104.120844 92.178205 104.150237 94.353254 102.621824 C 95.617134 101.740047 97.939147 101.005233 99.46756 101.005233 C 101.025366 101.005233 103.464948 100.241026 104.875791 99.300464 C 107.403551 97.654481 107.491729 97.683874 110.195845 100.97584 L 112.929353 104.326592 L 120.306885 103.621171 C 124.392451 103.239068 129.506757 102.474861 131.681806 101.88701 C 135.561624 100.828878 135.708587 100.887663 139.176909 104.826266 C 141.116818 107.001315 143.762149 109.35272 145.026029 109.969964 C 146.907153 110.910526 147.112901 111.410199 146.172339 112.556509 C 144.320607 114.790344 141.792847 114.261278 138.941769 111.057489 C 136.88429 108.764869 135.385269 108.08884 132.005125 107.97127 C 125.215443 107.706737 114.898654 108.08884 114.016877 108.617906 C 112.723605 109.411505 113.105708 115.378195 114.545944 117.523852 C 116.485853 120.37493 117.308844 122.990868 116.280105 122.990868 C 115.780431 122.990868 114.545944 121.550633 113.546596 119.757687 Z M 70.780421 119.845864 C 69.516541 116.054224 68.223268 110.234497 68.223268 108.235803 C 68.223268 106.648605 68.811119 106.001968 70.221962 106.001968 C 71.632805 106.001968 72.72033 104.796873 73.896032 101.857617 C 75.424445 98.036584 75.630193 97.889622 76.365007 99.888316 C 76.805896 101.093411 76.747111 103.973882 76.218044 106.295894 C 75.688978 108.617906 74.895379 112.703472 74.483883 115.407588 C 73.749069 120.13979 71.69159 122.608765 70.780421 119.845864 Z M 57.348021 106.883745 C 56.613207 106.148931 57.494983 101.328551 58.49433 98.653828 C 59.229144 96.655134 59.905173 96.743312 60.66938 96.008498 C 63.226533 93.715878 62.903214 95.567609 64.901909 98.624436 C 66.518499 101.122803 66.518499 101.299159 64.725553 102.621824 C 62.726859 104.062059 58.464938 108.000662 57.348021 106.883745 Z M 77.364354 83.075771 C 75.659586 81.400395 82.037771 91.09994 83.801325 89.630312 C 85.800019 87.984329 86.740581 78.372961 85.917589 76.197912 C 84.977028 73.758329 79.627581 77.755718 78.275524 80.959507 C 76.658933 84.809932 79.451226 85.192035 77.364354 83.075771 Z M 77.364354 83.075771 " transform="matrix(0.132899,0,0,0.132899,0.116771,-0.505553)"/>
<path style="fill-rule:nonzero;fill:rgb(60.392157%,80.392157%,19.607843%);fill-opacity:1;stroke-width:1;stroke-linecap:butt;stroke-linejoin:miter;stroke:rgb(60.392157%,80.392157%,19.607843%);stroke-opacity:1;stroke-miterlimit:4;" d="M 164.307549 189.741374 C 163.837268 188.506886 162.455817 186.59637 161.22133 185.508845 C 157.047586 181.746597 149.082202 171.077098 148.229818 168.020271 C 147.377434 165.110408 148.905847 161.994796 151.169074 161.994796 C 151.609963 161.994796 154.901929 164.90466 158.458429 168.431767 C 166.600168 176.485329 170.685734 179.042482 174.242234 178.33706 L 176.916957 177.807994 L 177.034527 184.891601 L 177.18149 192.004601 L 171.185408 192.004601 C 165.865354 192.004601 165.071755 191.740068 164.307549 189.741374 Z M 93.853581 137.863504 C 92.736664 132.30831 93.030589 131.250178 95.705312 131.250178 C 97.762791 131.250178 98.20368 131.749851 98.20368 133.866116 C 98.174287 140.80276 94.999891 143.712624 93.853581 137.863504 Z M 132.446013 131.338356 L 130.182786 128.898773 L 133.945034 129.516017 C 140.176256 130.574149 140.617145 130.809289 139.206302 132.514058 C 137.472141 134.60093 135.091343 134.189434 132.446013 131.338356 Z M 61.668727 127.899426 C 60.522417 126.047695 62.903214 124.519282 64.666768 125.959517 C 65.519152 126.664938 66.224574 127.634893 66.224574 128.134566 C 66.224574 129.369054 62.462326 129.222091 61.668727 127.899426 Z M 88.827453 127.48793 C 87.769321 126.723724 86.534833 126.312228 86.064552 126.576761 C 85.594271 126.870686 85.212168 126.841294 85.212168 126.517976 C 85.212168 126.194657 86.240908 125.548021 87.475395 125.07774 C 89.94437 124.137178 92.207597 125.371666 92.207597 127.634893 C 92.207597 129.369054 91.237643 129.339661 88.827453 127.48793 Z M 119.219361 126.488583 C 117.632162 124.578067 119.248753 124.548674 121.776513 126.459191 C 123.393104 127.693678 123.451889 127.928819 122.099832 127.958211 C 121.188662 127.987604 119.89539 127.311575 119.219361 126.488583 Z M 113.399634 119.757687 C 112.341501 117.96474 111.165799 115.525158 110.783696 114.349456 C 109.754956 110.881133 107.697477 109.676038 105.199109 110.998704 C 102.494994 112.438939 102.171676 112.115621 101.525039 107.148278 C 101.054758 103.797526 101.378076 102.739394 103.553126 100.564345 C 104.963969 99.153502 106.551167 98.007192 107.050841 98.007192 C 107.550514 98.007192 109.255283 99.682568 110.813088 101.710654 C 113.135101 104.767481 113.605382 106.266501 113.429026 110.38146 C 113.311456 113.144361 113.781737 116.230579 114.545944 117.406282 C 116.485853 120.492501 117.279452 122.990868 116.280105 122.990868 C 115.780431 122.990868 114.487158 121.550633 113.399634 119.757687 Z M 113.399634 119.757687 " transform="matrix(0.132899,0,0,0.132899,0.116771,-0.505553)"/>
<path style=" stroke:none;fill-rule:nonzero;fill:rgb(29.803922%,29.803922%,29.803922%);fill-opacity:1;" d="M 22.074219 24.875 C 22.074219 24.800781 21.515625 24.488281 21.234375 24.175781 C 19.945312 22.757812 18.386719 20.21875 18.386719 19.75 C 18.386719 18.992188 21.046875 20.5 22.152344 21.585938 C 23.144531 22.558594 23.0625 22.851562 23.203125 22.625 C 23.25 22.550781 23.363281 23.152344 23.457031 23.152344 C 23.578125 23.152344 24.144531 23.675781 23.921875 24.300781 L 23.664062 25.011719 L 22.921875 25.285156 C 22.5 25.441406 22.074219 24.953125 22.074219 24.875 Z M 14.234375 13.714844 C 14.234375 13.640625 14.351562 13.582031 14.5 13.582031 C 14.644531 13.582031 14.765625 13.640625 14.765625 13.714844 C 14.765625 13.789062 14.6875 13.496094 14.539062 13.496094 C 14.394531 13.496094 14.234375 13.789062 14.234375 13.714844 Z M 13.570312 13.316406 C 13.570312 13.242188 13.628906 13.183594 13.703125 13.183594 C 13.773438 13.183594 13.628906 13.261719 13.628906 13.335938 C 13.628906 13.410156 13.773438 13.449219 13.703125 13.449219 C 13.628906 13.449219 13.570312 13.390625 13.570312 13.316406 Z M 13.570312 13.316406 "/>
</g>
</svg>
