
<svg xmlns="http://www.w3.org/2000/svg" xmlns:xlink="http://www.w3.org/1999/xlink" width="32px" height="32px" viewBox="0 0 32 32" version="1.1">
<defs>
<clipPath id="clip1">
  <path d="M 10 7.332031 L 22 7.332031 L 22 24.667969 L 10 24.667969 Z M 10 7.332031 "/>
</clipPath>
<clipPath id="clip2">
  <path d="M 31.800781 15.3125 C 31.800781 24.304688 24.414062 31.589844 15.3125 31.589844 C 6.207031 31.589844 -1.175781 24.304688 -1.175781 15.3125 C -1.175781 6.320312 6.207031 -0.964844 15.3125 -0.964844 C 24.414062 -0.964844 31.800781 6.320312 31.800781 15.3125 Z M 31.800781 15.3125 "/>
</clipPath>
<clipPath id="clip3">
  <path d="M 9.332031 6.667969 L 21.332031 6.667969 L 21.332031 24 L 9.332031 24 Z M 9.332031 6.667969 "/>
</clipPath>
<clipPath id="clip4">
  <path d="M 31.800781 15.3125 C 31.800781 24.304688 24.414062 31.589844 15.3125 31.589844 C 6.207031 31.589844 -1.175781 24.304688 -1.175781 15.3125 C -1.175781 6.320312 6.207031 -0.964844 15.3125 -0.964844 C 24.414062 -0.964844 31.800781 6.320312 31.800781 15.3125 Z M 31.800781 15.3125 "/>
</clipPath>
</defs>
<g id="surface1">
<path style=" stroke:none;fill-rule:nonzero;fill:rgb(37.254902%,73.72549%,99.215686%);fill-opacity:1;" d="M 0.277344 15.71875 C -2.519531 1.726562 16.644531 -3.585938 27.050781 2.476562 C 35.339844 7.308594 32.972656 23.855469 21.777344 30.023438 C 10.585938 36.191406 2.519531 26.949219 0.277344 15.71875 Z M 0.277344 15.71875 "/>
<g clip-path="url(#clip1)" clip-rule="nonzero">
<g clip-path="url(#clip2)" clip-rule="nonzero">
<path style=" stroke:none;fill-rule:nonzero;fill:rgb(0%,0%,0%);fill-opacity:0.101961;" d="M 15.503906 7.527344 C 13.683594 7.550781 11.902344 8.675781 11.164062 10.335938 C 10.480469 11.699219 10.519531 13.417969 10.675781 14.742188 C 10.835938 16.066406 11.152344 17.132812 12.050781 17.941406 C 12.980469 18.910156 14.363281 19.34375 15.679688 19.386719 C 16.78125 19.285156 18.121094 18.988281 18.605469 17.882812 C 18.542969 18.730469 18.804688 19.640625 18.464844 20.449219 C 17.667969 21.890625 15.503906 22.285156 14.199219 21.339844 C 13.621094 20.941406 13.5 20.171875 13.378906 19.5625 L 10.550781 19.5625 C 10.425781 21.535156 11.800781 23.441406 13.648438 24.09375 C 15.746094 24.84375 18.292969 24.605469 20.074219 23.222656 C 21.15625 22.386719 21.792969 21.042969 21.777344 19.699219 L 21.777344 7.886719 C 20.753906 7.867188 19.730469 7.886719 18.714844 7.886719 C 18.714844 8.363281 18.714844 8.855469 18.734375 9.328125 C 18.230469 8.261719 17.042969 7.570312 15.871094 7.527344 C 15.75 7.527344 15.628906 7.527344 15.511719 7.527344 M 16.265625 10.175781 C 17.148438 10.175781 18.027344 10.671875 18.367188 11.503906 C 18.847656 12.730469 18.929688 14.128906 18.46875 15.378906 C 18.066406 16.207031 17.265625 16.996094 16.261719 16.894531 C 14.984375 16.996094 14.0625 15.769531 13.839844 14.644531 C 13.660156 13.597656 13.683594 12.453125 14.140625 11.464844 C 14.519531 10.613281 15.363281 10.199219 16.261719 10.179688 M 16.269531 10.175781 "/>
</g>
</g>
<g clip-path="url(#clip3)" clip-rule="nonzero">
<g clip-path="url(#clip4)" clip-rule="nonzero">
<path style=" stroke:none;fill-rule:nonzero;fill:rgb(100%,100%,100%);fill-opacity:1;" d="M 14.785156 6.820312 C 12.964844 6.84375 11.1875 7.96875 10.449219 9.628906 C 9.765625 10.992188 9.804688 12.707031 9.960938 14.035156 C 10.117188 15.355469 10.433594 16.425781 11.332031 17.234375 C 12.261719 18.203125 13.644531 18.636719 14.964844 18.675781 C 16.0625 18.582031 17.40625 18.28125 17.886719 17.175781 C 17.828125 18.023438 18.089844 18.933594 17.75 19.746094 C 16.949219 21.183594 14.785156 21.578125 13.484375 20.632812 C 12.902344 20.234375 12.78125 19.464844 12.660156 18.855469 L 9.835938 18.855469 C 9.710938 20.828125 11.085938 22.734375 12.929688 23.386719 C 15.03125 24.136719 17.574219 23.898438 19.355469 22.515625 C 20.441406 21.683594 21.074219 20.335938 21.058594 18.992188 L 21.058594 7.179688 C 20.039062 7.160156 19.011719 7.179688 17.996094 7.179688 C 17.996094 7.652344 17.996094 8.144531 18.015625 8.621094 C 17.515625 7.550781 16.328125 6.863281 15.152344 6.824219 C 15.035156 6.824219 14.910156 6.824219 14.792969 6.824219 M 15.550781 9.46875 C 16.433594 9.46875 17.308594 9.964844 17.652344 10.792969 C 18.132812 12.019531 18.214844 13.421875 17.75 14.667969 C 17.347656 15.5 16.550781 16.289062 15.546875 16.191406 C 14.269531 16.289062 13.347656 15.066406 13.125 13.941406 C 12.941406 12.886719 12.964844 11.746094 13.425781 10.757812 C 13.804688 9.90625 14.644531 9.492188 15.542969 9.472656 M 15.550781 9.46875 "/>
</g>
</g>
</g>
</svg>
