
<svg xmlns="http://www.w3.org/2000/svg" xmlns:xlink="http://www.w3.org/1999/xlink" width="32px" height="32px" viewBox="0 0 32 32" version="1.1">
<g id="surface1">
<path style=" stroke:none;fill-rule:nonzero;fill:rgb(19.607843%,80.392157%,19.607843%);fill-opacity:1;" d="M 28.277344 26.449219 C 36.0625 14.476562 29.78125 3.574219 20.96875 0.988281 C 9.113281 -2.496094 -6.980469 6.652344 3.625 25.5 C 7.839844 32.988281 22.730469 34.972656 28.277344 26.449219 Z M 28.277344 26.449219 "/>
<path style=" stroke:none;fill-rule:evenodd;fill:rgb(100%,100%,100%);fill-opacity:1;" d="M 15.570312 24.570312 C 15.570312 24.488281 15.808594 23.269531 16.320312 20.753906 C 16.460938 20.066406 16.628906 19.128906 16.695312 18.667969 C 16.828125 17.773438 16.777344 17.558594 16.25 16.796875 C 16.128906 16.625 15.890625 16.203125 15.714844 15.859375 C 15.253906 14.941406 15.121094 15.019531 15.039062 16.273438 C 14.925781 17.902344 14.703125 18.496094 13.855469 19.40625 C 13.335938 19.960938 12.609375 20.363281 11.679688 20.601562 C 11.007812 20.777344 10.265625 20.640625 9.328125 20.167969 C 8.523438 19.761719 7.953125 19.128906 7.464844 18.097656 L 7.09375 17.316406 L 7.058594 13.644531 L 7.027344 9.972656 L 8.941406 9.972656 L 8.941406 13.332031 C 8.941406 17.046875 8.921875 16.917969 9.652344 17.808594 C 10.269531 18.5625 11.660156 18.609375 12.40625 17.902344 C 13.152344 17.199219 13.207031 16.867188 13.207031 13.179688 L 13.207031 9.972656 L 15.152344 9.972656 L 15.351562 10.625 C 15.828125 12.175781 16.757812 14.347656 17.011719 14.503906 C 17.066406 14.539062 17.113281 14.660156 17.113281 14.769531 C 17.113281 14.898438 17.183594 14.972656 17.304688 14.972656 C 17.453125 14.972656 17.550781 14.804688 17.730469 14.246094 C 17.960938 13.515625 18.136719 13.214844 18.714844 12.566406 C 19.082031 12.152344 19.230469 12.050781 19.988281 11.664062 C 20.488281 11.414062 20.675781 11.378906 21.53125 11.378906 C 22.476562 11.378906 22.535156 11.394531 23.265625 11.796875 C 24.09375 12.253906 24.300781 12.429688 24.789062 13.113281 C 25.46875 14.058594 25.589844 14.472656 25.589844 15.910156 C 25.589844 17.160156 25.582031 17.238281 25.261719 17.917969 C 24.753906 19.011719 24.097656 19.71875 23.179688 20.160156 C 22.472656 20.503906 22.324219 20.535156 21.480469 20.539062 C 20.710938 20.542969 20.425781 20.492188 19.753906 20.242188 C 19.316406 20.074219 18.933594 19.902344 18.902344 19.851562 C 18.808594 19.699219 18.472656 19.753906 18.410156 19.925781 C 18.375 20.019531 18.347656 20.253906 18.347656 20.445312 C 18.347656 20.640625 18.234375 21.304688 18.097656 21.921875 C 17.964844 22.539062 17.796875 23.324219 17.730469 23.667969 C 17.527344 24.746094 17.628906 24.660156 16.542969 24.660156 C 16.007812 24.660156 15.570312 24.621094 15.570312 24.570312 Z M 23 17.675781 C 23.589844 17.035156 23.792969 16.574219 23.792969 15.910156 C 23.792969 15.152344 23.300781 14.144531 22.816406 13.914062 C 22.703125 13.863281 22.496094 13.75 22.355469 13.667969 C 21.925781 13.417969 21.074219 13.472656 20.542969 13.789062 C 19.941406 14.144531 19.628906 14.636719 19.386719 15.597656 C 19.003906 17.136719 19.003906 17.199219 19.414062 17.578125 C 19.613281 17.761719 19.90625 17.980469 20.0625 18.066406 C 20.457031 18.273438 21.378906 18.378906 21.996094 18.285156 C 22.4375 18.222656 22.574219 18.136719 23 17.675781 Z M 23 17.675781 "/>
</g>
</svg>
