
<svg xmlns="http://www.w3.org/2000/svg" xmlns:xlink="http://www.w3.org/1999/xlink" width="32px" height="32px" viewBox="0 0 32 32" version="1.1">
<g id="surface1">
<path style=" stroke:none;fill-rule:nonzero;fill:rgb(39.215686%,81.176471%,11.764706%);fill-opacity:1;" d="M 14.664062 31.921875 C 34.074219 33.765625 39.296875 2.640625 19.367188 0.222656 C 1.039062 -2.773438 -8.398438 25.441406 9.8125 31.082031 C 11.351562 31.703125 13.035156 31.691406 14.664062 31.921875 Z M 14.664062 31.921875 "/>
<path style=" stroke:none;fill-rule:nonzero;fill:rgb(89.803922%,100%,83.529412%);fill-opacity:1;" d="M 15.792969 7.277344 C 10.894531 7.277344 6.921875 11.261719 6.921875 16.179688 C 6.921875 21.097656 10.894531 25.085938 15.792969 25.085938 C 20.695312 25.085938 24.667969 21.097656 24.667969 16.179688 C 24.667969 11.261719 20.695312 7.277344 15.792969 7.277344 Z M 15.792969 8.894531 C 19.804688 8.894531 23.054688 12.15625 23.054688 16.179688 C 23.054688 20.203125 19.804688 23.464844 15.792969 23.464844 C 11.785156 23.464844 8.535156 20.203125 8.535156 16.179688 C 8.535156 12.15625 11.785156 8.894531 15.792969 8.894531 Z M 15.792969 8.894531 "/>
<path style=" stroke:none;fill-rule:nonzero;fill:rgb(89.803922%,100%,83.529412%);fill-opacity:1;" d="M 15.199219 12.132812 L 15.199219 15.09375 L 12.425781 13.402344 L 11.761719 14.429688 L 14.671875 16.179688 L 11.761719 17.871094 L 12.425781 18.898438 L 15.199219 17.269531 L 15.199219 20.230469 L 16.457031 20.230469 L 16.457031 17.269531 L 19.101562 18.898438 L 19.828125 17.871094 L 16.984375 16.179688 L 19.828125 14.429688 L 19.101562 13.402344 L 16.457031 15.035156 L 16.457031 12.132812 Z M 15.199219 12.132812 "/>
</g>
</svg>
