
<svg xmlns="http://www.w3.org/2000/svg" xmlns:xlink="http://www.w3.org/1999/xlink" width="32px" height="32px" viewBox="0 0 32 32" version="1.1">
<g id="surface1">
<path style=" stroke:none;fill-rule:nonzero;fill:rgb(100%,27.058824%,0%);fill-opacity:1;" d="M 21.132812 20.710938 C 21.132812 19.183594 19.902344 17.945312 18.390625 17.945312 C 16.875 17.945312 15.648438 19.183594 15.648438 20.710938 C 15.648438 22.238281 16.875 23.476562 18.390625 23.476562 C 19.902344 23.476562 21.132812 22.238281 21.132812 20.710938 Z M 21.132812 20.710938 "/>
<path style=" stroke:none;fill-rule:nonzero;fill:rgb(100%,27.058824%,0%);fill-opacity:1;" d="M 21.457031 10.996094 C 21.457031 9.46875 20.230469 8.230469 18.714844 8.230469 C 17.199219 8.230469 15.972656 9.46875 15.972656 10.996094 C 15.972656 12.523438 17.203125 13.761719 18.714844 13.761719 C 20.230469 13.761719 21.457031 12.523438 21.457031 10.996094 Z M 21.457031 10.996094 "/>
<path style=" stroke:none;fill-rule:nonzero;fill:rgb(100%,27.058824%,0%);fill-opacity:1;" d="M 10.941406 16.308594 C 10.941406 14.78125 9.714844 13.542969 8.199219 13.542969 C 6.683594 13.542969 5.457031 14.785156 5.457031 16.308594 C 5.457031 17.839844 6.683594 19.074219 8.199219 19.074219 C 9.714844 19.074219 10.941406 17.839844 10.941406 16.308594 Z M 10.941406 16.308594 "/>
<path style=" stroke:none;fill-rule:nonzero;fill:rgb(59.607843%,0.392157%,0.392157%);fill-opacity:1;" d="M 3.355469 25.222656 C -12.4375 1.457031 37.917969 -13.183594 31.253906 17.539062 C 28.410156 30.238281 10.59375 37.941406 3.355469 25.222656 Z M 3.355469 25.222656 "/>
<path style=" stroke:none;fill-rule:evenodd;fill:rgb(100%,100%,100%);fill-opacity:1;" d="M 7.472656 18.136719 C 5.875 14.359375 5.304688 12.859375 5.382812 12.652344 C 5.5 12.34375 7.253906 12.355469 7.535156 12.667969 C 7.644531 12.792969 8.015625 13.582031 8.359375 14.421875 C 8.707031 15.261719 9.074219 16.117188 9.179688 16.316406 L 9.371094 16.683594 L 9.65625 16.125 C 9.8125 15.816406 10.191406 14.96875 10.5 14.238281 C 11.234375 12.480469 11.269531 12.449219 12.324219 12.449219 C 12.910156 12.449219 13.222656 12.503906 13.328125 12.628906 C 13.449219 12.777344 13.195312 13.523438 12.058594 16.371094 L 10.636719 19.933594 L 10.230469 19.933594 C 10.003906 19.933594 9.480469 19.96875 9.058594 20.011719 L 8.300781 20.09375 Z M 7.472656 18.136719 "/>
<path style=" stroke:none;fill-rule:evenodd;fill:rgb(100%,100%,100%);fill-opacity:1;" d="M 12.859375 19.964844 C 12.558594 19.929688 12.449219 19.855469 12.449219 19.683594 C 12.449219 19.464844 13.300781 17.277344 14.621094 14.113281 C 15.300781 12.472656 15.332031 12.449219 16.449219 12.449219 C 17.144531 12.449219 17.429688 12.503906 17.621094 12.667969 C 17.761719 12.792969 18.199219 13.738281 18.597656 14.769531 C 19.03125 15.886719 19.382812 16.628906 19.46875 16.597656 C 19.550781 16.574219 19.9375 15.769531 20.328125 14.820312 C 21.359375 12.316406 21.253906 12.429688 22.507812 12.472656 L 23.542969 12.511719 L 23.832031 13.027344 C 24.355469 13.980469 26.664062 19.605469 26.597656 19.777344 C 26.550781 19.902344 26.253906 19.933594 25.433594 19.90625 L 24.335938 19.871094 L 23.449219 17.800781 C 22.964844 16.667969 22.511719 15.753906 22.449219 15.773438 C 22.386719 15.792969 21.980469 16.695312 21.546875 17.777344 C 20.636719 20.035156 20.582031 20.09375 19.316406 20.027344 C 18.316406 19.972656 18.269531 19.914062 17.390625 17.777344 C 17.03125 16.902344 16.660156 16.109375 16.5625 16.007812 C 16.367188 15.804688 16.425781 15.691406 15.300781 18.390625 C 14.96875 19.179688 14.636719 19.847656 14.558594 19.871094 C 14.269531 19.957031 13.261719 20.011719 12.859375 19.964844 Z M 12.859375 19.964844 "/>
</g>
</svg>
