
<svg xmlns="http://www.w3.org/2000/svg" xmlns:xlink="http://www.w3.org/1999/xlink" width="32px" height="32px" viewBox="0 0 32 32" version="1.1">
<g id="surface1">
<path style=" stroke:none;fill-rule:nonzero;fill:rgb(52.941176%,80.784314%,92.156863%);fill-opacity:1;" d="M 26.394531 5.011719 C 51.625 37.855469 -17.800781 42.523438 4.476562 8.996094 C 9.558594 1.355469 19.714844 -3.683594 26.394531 5.011719 Z M 26.394531 5.011719 "/>
<path style=" stroke:none;fill-rule:nonzero;fill:rgb(0%,0%,0%);fill-opacity:0.101961;" d="M 20.457031 18.246094 L 20.457031 19.652344 L 23.300781 19.652344 C 23.300781 19.652344 23.300781 20.757812 23.300781 18.246094 "/>
<path style=" stroke:none;fill-rule:nonzero;fill:rgb(0%,0%,0%);fill-opacity:0.0980392;" d="M 11.925781 8.40625 C 8.371094 9.8125 7.660156 13.324219 11.925781 15.433594 C 11.214844 14.730469 9.792969 12.621094 11.925781 11.917969 C 11.925781 15.902344 11.925781 23.871094 11.925781 23.871094 L 9.792969 25.976562 L 15.480469 25.976562 L 17.613281 23.871094 L 17.613281 25.976562 L 21.167969 25.976562 L 24.007812 23.167969 L 24.007812 13.324219 L 20.457031 9.8125 C 16.902344 11.605469 16.902344 14.730469 20.457031 16.839844 C 19.746094 16.136719 18.324219 14.027344 20.457031 13.324219 L 20.457031 21.058594 L 19.746094 21.761719 L 19.746094 17.542969 L 16.191406 17.542969 L 16.191406 20.355469 L 15.480469 21.058594 L 15.480469 11.917969 Z M 11.925781 8.40625 "/>
<path style=" stroke:none;fill-rule:nonzero;fill:rgb(68.627451%,1.960784%,1.960784%);fill-opacity:1;" d="M 15.480469 19.652344 L 14.769531 20.355469 L 14.769531 19.652344 L 11.214844 19.652344 L 11.214844 23.167969 L 9.082031 25.273438 L 14.769531 25.273438 L 16.902344 23.167969 L 16.902344 25.273438 L 20.457031 25.273438 L 23.300781 22.464844 L 23.300781 19.652344 L 19.746094 19.652344 L 19.746094 20.355469 L 19.035156 21.058594 L 19.035156 19.652344 "/>
<path style=" stroke:none;fill-rule:nonzero;fill:rgb(10.196078%,10.196078%,10.196078%);fill-opacity:1;" d="M 11.214844 18.246094 L 11.214844 19.652344 L 14.769531 19.652344 L 14.769531 18.246094 "/>
<path style=" stroke:none;fill-rule:nonzero;fill:rgb(10.196078%,10.196078%,10.196078%);fill-opacity:1;" d="M 15.480469 18.246094 L 15.480469 19.652344 L 19.035156 19.652344 L 19.035156 18.246094 "/>
<path style=" stroke:none;fill-rule:nonzero;fill:rgb(10.196078%,10.196078%,10.196078%);fill-opacity:1;" d="M 19.746094 18.246094 L 19.746094 19.652344 L 23.300781 19.652344 L 23.300781 18.246094 "/>
<path style=" stroke:none;fill-rule:nonzero;fill:rgb(92.54902%,92.54902%,92.54902%);fill-opacity:1;" d="M 15.480469 16.839844 L 15.480469 18.246094 L 19.035156 18.246094 L 19.035156 16.839844 "/>
<path style=" stroke:none;fill-rule:nonzero;fill:rgb(92.54902%,92.54902%,92.54902%);fill-opacity:1;" d="M 11.214844 7.703125 C 7.660156 9.109375 6.949219 12.621094 11.214844 14.730469 C 10.503906 14.027344 9.082031 11.917969 11.214844 11.21875 L 11.214844 18.246094 L 14.769531 18.246094 L 14.769531 11.21875 "/>
<path style=" stroke:none;fill-rule:nonzero;fill:rgb(92.54902%,92.54902%,92.54902%);fill-opacity:1;" d="M 19.746094 9.109375 C 16.191406 10.90625 16.191406 14.027344 19.746094 16.136719 C 19.035156 15.433594 17.613281 13.324219 19.746094 12.621094 L 19.746094 18.246094 L 23.300781 18.246094 L 23.300781 12.621094 "/>
</g>
</svg>
