
<svg xmlns="http://www.w3.org/2000/svg" xmlns:xlink="http://www.w3.org/1999/xlink" width="32px" height="32px" viewBox="0 0 32 32" version="1.1">
<g id="surface1">
<path style=" stroke:none;fill-rule:nonzero;fill:rgb(18.431373%,30.980392%,30.980392%);fill-opacity:1;" d="M 6.609375 28.878906 C 30.667969 44.871094 45.484375 -6.132812 14.386719 0.621094 C 1.53125 3.496094 -6.269531 21.542969 6.609375 28.878906 Z M 6.609375 28.878906 "/>
<path style=" stroke:none;fill-rule:evenodd;fill:rgb(100%,100%,100%);fill-opacity:1;" d="M 24.992188 12.246094 C 26.933594 14.246094 26.933594 17.484375 24.992188 19.484375 L 19.578125 25.066406 C 17.640625 27.066406 14.496094 27.066406 12.558594 25.066406 L 7.144531 19.484375 C 5.203125 17.484375 5.203125 14.246094 7.144531 12.246094 L 12.558594 6.664062 C 14.496094 4.664062 17.636719 4.664062 19.578125 6.664062 Z M 24.992188 12.246094 "/>
<path style=" stroke:none;fill-rule:nonzero;fill:rgb(0%,0%,0%);fill-opacity:1;" d="M 25.464844 12.050781 L 25.144531 11.722656 L 24.621094 11.179688 L 19.765625 6.175781 C 18.746094 5.121094 17.40625 4.597656 16.066406 4.597656 C 14.730469 4.597656 13.390625 5.121094 12.371094 6.175781 L 6.667969 12.050781 C 5.648438 13.105469 5.136719 14.484375 5.136719 15.863281 C 5.136719 17.246094 5.648438 18.621094 6.667969 19.675781 L 11.183594 24.332031 L 12.371094 25.554688 C 12.777344 25.976562 13.238281 26.308594 13.730469 26.566406 C 14.464844 26.941406 15.265625 27.132812 16.066406 27.132812 C 17.40625 27.132812 18.746094 26.605469 19.765625 25.554688 L 25.464844 19.675781 C 26.488281 18.621094 26.996094 17.246094 26.996094 15.863281 C 26.996094 14.484375 26.488281 13.105469 25.464844 12.050781 Z M 7.511719 18.808594 C 6.75 18.019531 6.332031 16.976562 6.332031 15.863281 C 6.332031 14.753906 6.753906 13.707031 7.511719 12.921875 L 13.214844 7.042969 C 13.976562 6.257812 14.988281 5.824219 16.066406 5.824219 C 17.144531 5.824219 18.160156 6.257812 18.921875 7.042969 L 23.371094 11.632812 C 21.808594 11.941406 20.144531 11.355469 18.714844 10.234375 C 16.261719 8.308594 13.574219 8.753906 11.226562 11.722656 L 15.878906 20.042969 C 15.230469 19.746094 14.484375 19.652344 13.730469 19.816406 C 12.367188 20.121094 11.363281 21.199219 11.082031 22.488281 Z M 24.621094 18.808594 L 18.921875 24.683594 C 18.273438 25.351562 17.445312 25.761719 16.550781 25.871094 C 17.550781 25.074219 18.078125 23.761719 17.800781 22.433594 C 17.785156 22.355469 17.761719 22.285156 17.742188 22.210938 L 17.746094 22.210938 L 17.734375 22.183594 C 17.679688 21.996094 17.609375 21.816406 17.527344 21.644531 L 14.484375 13.722656 C 15.058594 12.871094 16.605469 12.0625 18.894531 12.539062 C 21.117188 13 22.753906 13.042969 24.113281 12.394531 L 24.621094 12.921875 C 25.386719 13.707031 25.804688 14.753906 25.804688 15.863281 C 25.804688 16.976562 25.386719 18.019531 24.621094 18.808594 Z M 24.621094 18.808594 "/>
</g>
</svg>
