
<svg xmlns="http://www.w3.org/2000/svg" xmlns:xlink="http://www.w3.org/1999/xlink" width="32px" height="32px" viewBox="0 0 32 32" version="1.1">
<g id="surface1">
<path style=" stroke:none;fill-rule:nonzero;fill:rgb(100%,54.901961%,0%);fill-opacity:1;" d="M 31.976562 15.964844 C 32.230469 -3.449219 0.914062 -6.105469 0.132812 13.871094 C -1.347656 32.304688 27.421875 39.378906 31.539062 20.847656 C 32.027344 19.269531 31.878906 17.597656 31.976562 15.964844 Z M 31.976562 15.964844 "/>
<path style=" stroke:none;fill-rule:nonzero;fill:rgb(100%,87.058824%,67.843137%);fill-opacity:1;" d="M 16.644531 9.878906 C 15.417969 9.878906 14.425781 10.902344 14.425781 12.160156 C 14.425781 13.421875 15.417969 14.445312 16.644531 14.445312 C 17.871094 14.445312 18.863281 13.421875 18.863281 12.160156 C 18.863281 10.902344 17.871094 9.878906 16.644531 9.878906 Z M 16.023438 15.113281 C 14.089844 15.113281 12.53125 16.714844 12.53125 18.703125 C 12.53125 20.691406 14.089844 22.296875 16.023438 22.296875 L 17.265625 22.296875 C 19.199219 22.296875 20.753906 20.695312 20.753906 18.703125 C 20.753906 16.714844 19.199219 15.113281 17.265625 15.113281 Z M 16.023438 15.113281 "/>
<path style=" stroke:none;fill-rule:nonzero;fill:rgb(100%,27.058824%,0%);fill-opacity:1;" d="M 21.871094 8.304688 C 20.328125 8.304688 19.074219 9.59375 19.074219 11.183594 C 19.074219 12.773438 20.328125 14.0625 21.871094 14.0625 C 23.417969 14.0625 24.667969 12.773438 24.667969 11.183594 C 24.667969 9.59375 23.417969 8.304688 21.871094 8.304688 Z M 21.085938 14.902344 C 18.648438 14.902344 16.6875 16.921875 16.6875 19.433594 C 16.6875 21.941406 18.648438 23.964844 21.085938 23.964844 L 22.65625 23.964844 C 25.09375 23.964844 27.0625 21.941406 27.0625 19.433594 C 27.0625 16.921875 25.09375 14.902344 22.65625 14.902344 Z M 21.085938 14.902344 "/>
<path style="fill-rule:evenodd;fill:rgb(100%,100%,100%);fill-opacity:1;stroke-width:1.142;stroke-linecap:butt;stroke-linejoin:miter;stroke:rgb(100%,100%,100%);stroke-opacity:1;stroke-miterlimit:4;" d="M 39.625 101.96875 L 90.53125 101.96875 C 92.0625 101.96875 93.28125 103.1875 93.28125 104.71875 L 93.28125 115.5 C 93.28125 117 92.0625 118.25 90.53125 118.25 L 39.625 118.25 C 38.125 118.25 36.875 117 36.875 115.5 L 36.875 104.71875 C 36.875 103.1875 38.125 101.96875 39.625 101.96875 Z M 39.625 101.96875 " transform="matrix(0.125,0,0,0.125,0,0)"/>
<path style="fill-rule:evenodd;fill:rgb(100%,100%,100%);fill-opacity:1;stroke-width:1.142;stroke-linecap:butt;stroke-linejoin:miter;stroke:rgb(100%,100%,100%);stroke-opacity:1;stroke-miterlimit:4;" d="M 84.65625 -73.21875 L 135.5625 -73.21875 C 137.0625 -73.21875 138.3125 -72 138.3125 -70.46875 L 138.3125 -59.6875 C 138.3125 -58.1875 137.0625 -56.9375 135.5625 -56.9375 L 84.65625 -56.9375 C 83.125 -56.9375 81.90625 -58.1875 81.90625 -59.6875 L 81.90625 -70.46875 C 81.90625 -72 83.125 -73.21875 84.65625 -73.21875 Z M 84.65625 -73.21875 " transform="matrix(0,0.125,-0.125,0,0,0)"/>
</g>
</svg>
