
<svg xmlns="http://www.w3.org/2000/svg" xmlns:xlink="http://www.w3.org/1999/xlink" width="32px" height="32px" viewBox="0 0 32 32" version="1.1">
<g id="surface1">
<path style=" stroke:none;fill-rule:nonzero;fill:rgb(74.117647%,0%,74.117647%);fill-opacity:1;" d="M 31.789062 16.074219 C 34.191406 37.292969 -0.21875 36.996094 0.191406 15.695312 C -0.945312 -4.117188 33.664062 -5.902344 31.789062 16.074219 Z M 31.789062 16.074219 "/>
<path style=" stroke:none;fill-rule:nonzero;fill:rgb(100%,100%,100%);fill-opacity:1;" d="M 14.144531 25.15625 C 10.832031 24.566406 8.042969 22.339844 6.832031 19.332031 C 5.957031 17.152344 5.941406 14.277344 6.796875 12.097656 C 8.027344 8.953125 10.976562 6.660156 14.4375 6.152344 C 15.214844 6.035156 16.746094 6.035156 17.519531 6.152344 C 20.980469 6.660156 23.929688 8.953125 25.160156 12.097656 C 26.019531 14.277344 26.003906 17.152344 25.128906 19.332031 C 24.074219 21.949219 21.644531 24.132812 18.910156 24.910156 C 17.597656 25.285156 15.46875 25.394531 14.144531 25.15625 Z M 16.996094 19.425781 C 18.472656 18.996094 19.644531 17.699219 19.941406 16.167969 C 20.03125 15.695312 20.027344 15.542969 19.898438 15.027344 C 19.691406 14.199219 19.34375 13.570312 18.78125 13.007812 C 18 12.234375 16.929688 11.753906 15.980469 11.753906 C 15.027344 11.753906 13.957031 12.234375 13.175781 13.007812 C 12.613281 13.570312 12.265625 14.199219 12.058594 15.027344 C 11.933594 15.542969 11.925781 15.695312 12.019531 16.167969 C 12.308594 17.667969 13.410156 18.917969 14.867188 19.394531 C 15.578125 19.628906 16.261719 19.636719 16.996094 19.425781 Z M 15.058594 19.089844 C 14.140625 18.914062 13.203125 18.179688 12.753906 17.285156 C 12.488281 16.761719 12.480469 16.714844 12.480469 15.671875 C 12.480469 14.628906 12.488281 14.582031 12.753906 14.0625 C 13.261719 13.050781 14.207031 12.382812 15.351562 12.222656 C 17.042969 11.984375 18.511719 12.683594 19.207031 14.0625 C 19.46875 14.582031 19.476562 14.628906 19.476562 15.671875 C 19.476562 16.714844 19.46875 16.761719 19.207031 17.285156 C 18.472656 18.738281 16.867188 19.4375 15.058594 19.089844 Z M 16.535156 17.066406 C 16.9375 16.878906 17.300781 16.488281 17.464844 16.066406 C 17.664062 15.558594 17.523438 15.136719 16.988281 14.625 C 16.546875 14.207031 16.195312 14.089844 15.679688 14.183594 C 15.261719 14.261719 14.597656 14.902344 14.457031 15.363281 C 14.371094 15.65625 14.375 15.761719 14.496094 16.066406 C 14.839844 16.960938 15.777344 17.417969 16.535156 17.066406 Z M 16.535156 17.066406 "/>
</g>
</svg>
