<svg xmlns="http://www.w3.org/2000/svg" viewBox="0 0 48 48" xmlns:xlink="http://www.w3.org/1999/xlink"><defs><linearGradient id="3" gradientUnits="userSpaceOnUse" x1="27.27" y1="21.971" x2="37.31" y2="49.14" gradientTransform="matrix(1 0 0 1.28 0.113 -12.822)"><stop style="stop-color:#fbaf3d"/><stop offset="1" style="stop-color:#d27f03"/></linearGradient><linearGradient id="4" gradientUnits="userSpaceOnUse" x1="17.03" y1="13.11" x2="33.02" y2="81.7" gradientTransform="matrix(0.95238 0 0 0.9375 1.19 1.57)"><stop style="stop-color:#fff;stop-opacity:0.470588"/><stop offset="1" style="stop-color:#fff;stop-opacity:0"/></linearGradient><linearGradient id="0" gradientUnits="userSpaceOnUse" x1="19.977" y1="40.594" x2="19.947" y2="47.5" gradientTransform="matrix(0.540591 0 0 1.010269 11.337654 -8.555114)"><stop style="stop-color:#000;stop-opacity:0"/><stop offset="0.518" style="stop-color:#000;stop-opacity:0.4"/><stop offset="1" style="stop-color:#000;stop-opacity:0"/></linearGradient><radialGradient id="2" gradientUnits="userSpaceOnUse" cx="3.354" cy="47.826" r="3.668" gradientTransform="matrix(0 -0.921912 1.268212 0.00327904 -46.881397 38.898664)" xlink:href="#1"/><radialGradient id="1" gradientUnits="userSpaceOnUse" cx="3.755" cy="47.814" r="3.668" gradientTransform="matrix(-0.00755779 -0.971259 -1.268072 0.00263247 95.505527 39.481349)"><stop style="stop-color:#000;stop-opacity:0.4"/><stop offset="1" style="stop-color:#000;stop-opacity:0"/></radialGradient></defs><path d="m 7.753906 41.800781 c 41.542969 27.21875 57.617188 -47.128906 14.882813 -41.207031 c -17.433594 2.414062 -30.777344 30.792969 -14.882813 41.207031" style="fill:#fdd69b"/><path d="m 13.773438 32.347656 h 21.070312 v 7.144532 h -21.070312" style="fill:url(#0)"/><path d="m 39.496094 32.429688 h -4.652344 v 7.0625 h 4.652344" style="fill:url(#1)"/><path d="m 9.121094 32.429688 h 4.652344 v 7.0625 h -4.652344" style="fill:url(#2)"/><g style="stroke:#ce5b00"><path d="m 4.598966 12.497499 h 38.998304 c 0.831717 0 1.503252 0.674954 1.503252 1.502152 v 29.0027 c 0 0.827198 -0.671535 1.497077 -1.503252 1.497077 h -38.998304 c -0.831718 0 -1.503252 -0.669879 -1.503252 -1.497077 v -29.0027 c 0 -0.827198 0.671534 -1.502152 1.503252 -1.502152" transform="matrix(0.634042 0 0 0.769729 9.091875 2.544375)" style="fill:url(#3)"/><path d="m 6.749109 17.262772 h 34.500869 c 0.277239 0 0.499031 0.223293 0.499031 0.497334 v 8.00302 c 0 0.274041 -0.221792 0.497334 -0.499031 0.497334 h -34.500869 c -0.277239 0 -0.49903 -0.223293 -0.49903 -0.497334 v -8.00302 c 0 -0.274041 0.221791 -0.497334 0.49903 -0.497334" transform="matrix(0.634042 0 0 0.769729 9.091875 2.544375)" style="fill:#fdd69b"/></g><path d="m 13.367188 16.210938 h 21.882812 v 1.539062 c 0 0 -4.105469 -0.699219 -21.246094 -0.769531 c 0 0 0 5.398437 0 5.398437 c 0 0 -0.636718 0 -0.636718 0 c 0 0 0 -6.167968 0 -6.167968" style="fill-opacity:0.368627"/><path d="m 6.250079 29.498207 h 5.501656 v 12.001991 h -5.501656" transform="matrix(0.634042 0 0 0.769729 9.091875 2.544375)" style="fill:#fdd69b;stroke:#ce5b00"/><path d="m 13.367188 25.632812 h 2.859374 v 0.769532 h -2.222656 v 7.699218 h -0.636718 v -8.476562" style="fill-opacity:0.368627"/><path d="m 4.598966 13.502317 h 38.998304 c 0.277239 0 0.49903 0.223293 0.49903 0.497334 v 29.0027 c 0 0.274041 -0.221791 0.497334 -0.49903 0.497334 h -38.998304 c -0.277239 0 -0.499031 -0.223293 -0.499031 -0.497334 v -29.0027 c 0 -0.274041 0.221792 -0.497334 0.499031 -0.497334" transform="matrix(0.634042 0 0 0.769729 9.091875 2.544375)" style="fill:none;stroke:url(#4)"/><path d="m 36.247352 29.498207 h 5.501657 v 12.001991 h -5.501657" transform="matrix(0.634042 0 0 0.769729 9.091875 2.544375)" style="fill:#fdd69b;stroke:#ce5b00"/><path d="m 32.390625 25.632812 h 2.859375 v 0.769532 h -2.226562 v 7.699218 h -0.632813 v -8.476562" style="fill-opacity:0.368627"/><g style="stroke-width:1.768"><path d="m 29.701225 60.731313 c 0 2.927456 -2.381023 5.304202 -5.301588 5.304202 c -2.932295 0 -5.313318 -2.376746 -5.313318 -5.304202 c 0 -2.937117 2.381023 -5.304202 5.313318 -5.304202 c 2.920565 0 5.301588 2.367085 5.301588 5.304202" transform="matrix(0.333037 0 0 0.404308 19.354487 5.316938)" style="fill:#950a0a;stroke:#c00"/><path d="m 29.70297 60.731313 c 0 2.927456 -2.381023 5.304202 -5.313317 5.304202 c -2.920565 0 -5.301588 -2.376746 -5.301588 -5.304202 c 0 -2.937117 2.381023 -5.304202 5.301588 -5.304202 c 2.932294 0 5.313317 2.367085 5.313317 5.304202" transform="matrix(0.333037 0 0 0.404308 13.014062 5.316938)" style="fill:#284e77;stroke:#3464a3"/></g></svg>