<svg xmlns="http://www.w3.org/2000/svg" viewBox="0 0 48 48"><path d="m 9.894531 43.316406 c 36.085938 23.992188 58.3125 -52.515625 11.664063 -42.386718 c -19.28125 4.316406 -30.980469 31.386718 -11.664063 42.386718" style="fill:#ff8c00"/><g style="fill:#fff"><path d="m 16.078125 11.1875 c -1.628906 0.019531 -2.820313 -0.039062 -3.792969 0.53125 c -0.488281 0.285156 -0.871094 0.769531 -1.085937 1.375 c -0.210938 0.605469 -0.289063 1.320312 -0.289063 2.230469 v 19.296875 c 0 0.90625 0.078125 1.621094 0.289063 2.226562 c 0.214843 0.605469 0.597656 1.089844 1.085937 1.375 c 0.972656 0.574219 2.164063 0.511719 3.792969 0.53125 h 15.535156 c 1.625 -0.019531 2.816407 0.042969 3.792969 -0.53125 c 0.484375 -0.285156 0.871094 -0.769531 1.082031 -1.375 c 0.214844 -0.601562 0.292969 -1.320312 0.292969 -2.226562 v -9.648438 h -1.292969 v 9.648438 c 0 0.816406 -0.082031 1.382812 -0.210937 1.742187 c -0.125 0.359375 -0.261719 0.515625 -0.496094 0.652344 c -0.472656 0.28125 -1.546875 0.339844 -3.175781 0.359375 h -15.519531 c -1.628907 -0.019531 -2.703126 -0.078125 -3.175782 -0.359375 c -0.238281 -0.136719 -0.371094 -0.292969 -0.5 -0.652344 c -0.125 -0.359375 -0.207031 -0.925781 -0.207031 -1.742187 v -15.164063 c 0 -0.816406 0.082031 -1.382812 0.207031 -1.742187 c 0.128906 -0.359375 0.261719 -0.515625 0.5 -0.652344 c 0.476563 -0.28125 1.546875 -0.339844 3.183594 -0.363281 h 15.511719 c 1.628906 0.023437 2.703125 0.082031 3.175781 0.363281 c 0.238281 0.136719 0.371094 0.292969 0.5 0.652344 c 0.125 0.355468 0.207031 0.925781 0.207031 1.742187 v 5.515625 h 1.292969 v -9.648437 c 0 -0.90625 -0.078125 -1.625 -0.289062 -2.230469 c -0.214844 -0.605469 -0.601563 -1.089844 -1.085938 -1.375 c -0.972656 -0.570312 -2.164062 -0.511719 -3.792969 -0.53125 h -0.007812 v 2.757812 h -1.9375 v -2.757812 h -11.644531 v 2.757812 h -1.9375 v -2.757812"/><path d="m 18.023438 8.429688 l -1.9375 0.347656 v 2.410156 h 1.9375 m 13.582031 -2.757812 l -1.9375 0.347656 v 2.410156 h 1.9375"/><path d="m 31.546875 21.316406 l -8.789063 8.203125 l -5.0625 -4.628906 l -0.933593 1.125 l 5.996093 6.722656 l 9.464844 -10.613281 l -0.671875 -0.808594"/></g></svg>