
<svg xmlns="http://www.w3.org/2000/svg" xmlns:xlink="http://www.w3.org/1999/xlink" width="48px" height="48px" viewBox="0 0 48 48" version="1.1">
<g id="surface1">
<path style=" stroke:none;fill-rule:nonzero;fill:rgb(100%,54.901961%,0%);fill-opacity:1;" d="M 22.105469 47.675781 C 51.09375 50.433594 58.898438 3.941406 29.128906 0.328125 C 1.757812 -4.144531 -12.339844 38 14.859375 46.425781 C 17.15625 47.351562 19.671875 47.332031 22.101562 47.675781 Z M 22.105469 47.675781 "/>
<path style=" stroke:none;fill-rule:nonzero;fill:rgb(100%,100%,100%);fill-opacity:1;" d="M 7.246094 26.558594 L 12.046875 26.558594 L 12.046875 36.199219 L 21.648438 36.199219 L 21.648438 31.375 L 16.847656 31.375 L 16.847656 16.917969 L 21.648438 16.917969 L 21.648438 12.09375 L 12.046875 12.09375 L 12.046875 21.734375 L 7.246094 21.734375 Z M 26.464844 16.902344 L 31.265625 16.902344 L 31.265625 31.363281 L 26.460938 31.363281 L 26.460938 36.183594 L 36.066406 36.183594 L 36.066406 26.542969 L 40.863281 26.542969 L 40.863281 21.714844 L 36.066406 21.714844 L 36.066406 12.074219 L 26.460938 12.074219 Z M 26.464844 16.902344 "/>
</g>
</svg>
