<svg xmlns="http://www.w3.org/2000/svg" viewBox="0 0 48 48"><path d="m 37.992188 43.109375 c -35.429688 23.664063 -57.253907 -51.800781 -11.453126 -41.8125 c 18.929688 4.257813 30.417969 30.957031 11.453126 41.8125" style="fill:#ff8c00"/><g style="stroke-linecap:round;stroke-linejoin:round"><path d="m 7.702791 4.685919 h 9.304288 c 1.312143 0 2.368674 0.990367 2.368674 2.222084 v 46.1894 c 0 1.223395 -1.056531 2.213762 -2.368674 2.213762 h -9.304288 c -1.312143 0 -2.368674 -0.990367 -2.368674 -2.213762 v -46.1894 c 0 -1.231717 1.056531 -2.222084 2.368674 -2.222084" transform="matrix(0.458458 0 0 0.469365 12.613125 10.0545)" style="fill:none;stroke:#fff;stroke-width:8.125"/><path d="m 5.785791 3.136008 h 9.304288 c 1.312143 0 2.368673 1.056065 2.368673 2.360615 v 49.26231 c 0 1.313425 -1.05653 2.36949 -2.368673 2.36949 h -9.304288 c -1.312143 0 -2.368674 -1.056065 -2.368674 -2.36949 v -49.26231 c 0 -1.30455 1.056531 -2.360615 2.368674 -2.360615" transform="matrix(0.458458 0 0 0.440166 13.491989 10.873542)" style="fill:#fff;stroke:#ff8c00;fill-rule:evenodd;stroke-width:3.227"/></g><path d="m 29.488281 22.105469 h 8.449219 c 0.746094 0 1.324219 0.210937 1.734375 0.636719 c 0.417969 0.414062 0.628906 0.957031 0.628906 1.628906 c 0 0.695312 -0.210937 1.253906 -0.628906 1.679687 c -0.421875 0.425781 -1 0.636719 -1.734375 0.636719 h -8.449219 c -0.734375 0 -1.316406 -0.207031 -1.75 -0.621094 c -0.417969 -0.425781 -0.628906 -0.988281 -0.628906 -1.695312 c 0 -0.683594 0.210937 -1.230469 0.628906 -1.644532 c 0.421875 -0.414062 1.003907 -0.621093 1.75 -0.621093" style="fill:#fff"/><g transform="matrix(0.458458 0 0 0.469365 12.613125 10.0545)" style="stroke-dasharray:1.875 1.875;fill:none;stroke:#ff8c00;stroke-linecap:round;stroke-linejoin:round;stroke-width:1.875"><path d="m 5.853862 21.663644 h 12.218268"/><path d="m 5.853862 38.33344 h 12.218268"/></g></svg>