<svg xmlns="http://www.w3.org/2000/svg" viewBox="0 0 48 48"><path d="m 42.417969 39.671875 c 11.675781 -17.957031 2.253906 -34.3125 -10.964844 -38.191406 c -17.78125 -5.222657 -41.921875 8.496093 -26.015625 36.769531 c 6.324219 11.234375 28.660156 14.207031 36.976562 1.421875" style="fill:#ff8c00"/><g transform="matrix(1.356574 0 0 1.339701 -1409.35602 -1145.3325)" style="stroke:#fff"><g style="fill:none"><path d="m 1055.50862 861.858938 v 22.993704" style="stroke-linecap:square"/><path d="m 1044.508944 861.858938 c 3.000435 3.498915 18.967243 1.597838 17.492941 7.499341 c -0.999185 3.997511 -16.991909 1.000107 -17.492941 8.496532 c -0.365696 5.487466 16.991909 2.498809 22.9899 6.499235" style="stroke-miterlimit:0;stroke-linecap:round;stroke-linejoin:round"/></g><g style="fill:#fff;fill-rule:evenodd"><path d="m 1053.000579 862.360449 h 4.998806 v 5.000533 h -4.998806"/><path d="m 1053.000579 870.358386 h 4.998806 v 5.000533 h -4.998806"/><path d="m 1053.000579 879.359345 h 4.998806 v 5.000533 h -4.998806"/></g></g><g style="fill:#fff"><path d="m 25.898438 12.652344 h 13.566406 v 1.339844 h -13.566406"/><path d="m 25.898438 23.367188 h 13.566406 v 1.339843 h -13.566406"/><path d="m 25.898438 35.425781 h 13.566406 v 1.339844 h -13.566406"/><g style="fill-rule:evenodd"><path d="m 33.996094 27.390625 l 2.078125 -2.679687 l 1.992187 2.679687 h -1.316406 v 5.359375 h 1.359375 l -2.035156 2.679688 l -2.035157 -2.679688 h 1.355469 v -5.359375"/><path d="m 33.996094 16.671875 l 2.078125 -2.679687 l 1.992187 2.679687 h -1.316406 v 4.019531 h 1.359375 l -2.035156 2.679688 l -2.035157 -2.679688 h 1.355469 v -4.019531"/></g></g></svg>