<svg xmlns="http://www.w3.org/2000/svg" viewBox="0 0 48 48"><path d="m 5.214844 37.589844 c -23.789063 -35.785156 49.027344 -56.304688 42.027344 -11.566406 c -4.277344 19.117187 -31.117188 30.71875 -42.027344 11.566406" style="fill:#b0c3de"/><path d="m 24.34375 10.421875 c 7.082031 0.011719 13.609375 4.925781 17.101562 12.863281 c -0.363281 0.738282 -0.878906 1.335938 -1.480468 1.75 c -3.082032 -7.433594 -9.085938 -12.074218 -15.621094 -12.074218 c 4.347656 0 7.875 4.542968 7.875 10.148437 c 0 5.605469 -3.527344 10.148437 -7.875 10.148437 c -4.351562 0 -7.878906 -4.542968 -7.878906 -10.148437 c 0.003906 -5.265625 3.128906 -9.652344 7.199218 -10.105469 c -6.285156 0.3125 -11.96875 4.894532 -14.9375 12.039063 c -0.609374 -0.417969 -1.128906 -1.019531 -1.496093 -1.769531 c 3.496093 -7.9375 10.03125 -12.84375 17.113281 -12.851563 m 0 5.074219 c -3.261719 0 -5.90625 3.40625 -5.90625 7.613281 c 0 4.203125 2.644531 7.609375 5.90625 7.609375 c 3.261719 0 5.90625 -3.40625 5.90625 -7.609375 c 0 -4.207031 -2.644531 -7.613281 -5.90625 -7.613281 m 0 2.535156 c 2.179688 0 3.9375 2.265625 3.9375 5.074219 c 0 2.8125 -1.757812 5.074219 -3.9375 5.074219 c -2.183594 0 -3.9375 -2.261719 -3.9375 -5.074219 c 0 -0.519531 0.074219 -1.007813 0.1875 -1.480469 c 0.3125 0.871094 0.984375 1.480469 1.78125 1.480469 c 1.089844 0 1.96875 -1.128907 1.96875 -2.535157 c 0 -1.027343 -0.472656 -1.894531 -1.152344 -2.285156 c 0.367188 -0.152344 0.746094 -0.253906 1.152344 -0.253906" style="fill:#fff"/></svg>