<svg xmlns="http://www.w3.org/2000/svg" viewBox="0 0 48 48"><g style="fill:#ff8c00"><path d="m 43.316406 9.894531 c 23.992188 36.089844 -52.515625 58.3125 -42.386718 11.664063 c 4.316406 -19.277344 31.386718 -30.980469 42.386718 -11.664063"/><path d="m 23.59375 37.863281 c -0.027344 0 -0.050781 0 -0.078125 -0.003906 c -0.269531 -0.007813 -0.53125 -0.132813 -0.671875 -0.320313 l -3.910156 -5.371093 l -3.917969 -5.375 c -0.140625 -0.195313 -0.140625 -0.453125 0.003906 -0.648438 c 0.144531 -0.195312 0.421875 -0.324219 0.707031 -0.324219 h 4.359376 v -12.21875 c 0 -0.816406 0.664062 -1.472656 1.480468 -1.472656 h 3.980469 c 0.816406 0 1.480469 0.65625 1.480469 1.472656 v 12.21875 h 4.359375 c 0.285156 0 0.566406 0.128907 0.707031 0.324219 c 0.144531 0.195313 0.144531 0.453125 0.003906 0.648438 l -3.917968 5.375 l -3.910157 5.371093 c -0.136719 0.1875 -0.402343 0.316407 -0.675781 0.324219"/><path d="m 23.59375 37.863281 c -0.027344 0 -0.054688 -0.003906 -0.078125 -0.003906 c -0.273437 -0.011719 -0.535156 -0.136719 -0.671875 -0.324219 l -3.914062 -5.371094 l -3.917969 -5.375 c -0.140625 -0.195312 -0.136719 -0.449218 0.007812 -0.644531 c 0.140625 -0.195312 0.421875 -0.324219 0.707031 -0.324219 h 4.359376 v -12.21875 c 0 -0.816406 0.660156 -1.472656 1.480468 -1.472656 h 2.035156 v 25.738282 c -0.003906 0 -0.007812 0 -0.011718 0"/></g><g style="fill:#fff"><path d="m 20.257812 13.035156 v 3.300782 h 9.261719 c 0.660157 0 1.542969 1.015624 1.542969 1.652343 v 1.652344 h -7.714844 c -1.421875 0 -2.679687 0.636719 -3.472656 1.601563 c -0.792969 0.964843 -1.167969 2.164062 -1.160156 3.355468 c 0.011718 1.191406 0.417968 2.398438 1.207031 3.355469 c 0.789063 0.957031 2.019531 1.597656 3.425781 1.597656 h 9.257813 c 0 0 1.542969 -0.078125 1.542969 -1.730469 v -9.832031 c 0 -2.699219 -2.035157 -4.953125 -4.628907 -4.953125 m -6.171875 9.910156 h 7.714844 v 3.304688 h -7.714844 c -0.617187 0 -0.875 -0.183594 -1.109375 -0.464844 c -0.238281 -0.28125 -0.433593 -0.726562 -0.4375 -1.1875 c 0 -0.460937 0.164063 -0.914062 0.386719 -1.1875 c 0.226562 -0.273437 0.507812 -0.464844 1.160156 -0.464844"/><path d="m 11 32.855469 l 6.171875 -4.953125 v 9.910156"/><path d="m 14.085938 31.183594 v 3.304687 h 19.96875 v -3.304687"/></g></svg>