<svg xmlns="http://www.w3.org/2000/svg" viewBox="0 0 48 48"><path d="m 39.808594 8.210938 c 24.355468 19.660156 -11.300782 55.148437 -32.851563 32.476562 c -21.597656 -19.511719 12.113281 -57.378906 32.851563 -32.476562" style="fill:#e0e340"/><path d="m 24.804688 27.570312 c -0.625 4.019532 -4.546876 0.457032 -2.835938 -2.507812 c 1.351562 -3.398438 6.8125 -7.074219 3.667969 -10.902344 c -3.355469 -2.941406 -4.558594 4.269532 -7.339844 2 c -2.140625 -2.796875 1.566406 -5.207031 3.96875 -5.882812 c 3.542969 -1.203125 8.09375 0.902344 8.484375 4.875 c 0.628906 3.710937 -1.582031 7.125 -4.203125 9.519531 c -0.726563 0.863281 -1.386719 1.816406 -1.742187 2.898437" style="fill:#fff"/><path d="m 26.453125 34.171875 c 1.246094 4.734375 -7.65625 5.042969 -5.921875 -0.0625 c 0.84375 -2.828125 5.601562 -3.375 5.921875 0.0625" style="fill:#f1f2a8"/></svg>