<svg xmlns="http://www.w3.org/2000/svg" viewBox="0 0 48 48"><path d="m 41.765625 7.507812 c 27.21875 41.542969 -47.128906 57.617188 -41.207031 14.882813 c 2.414062 -17.429687 30.792968 -30.777344 41.207031 -14.882813" style="fill:#db123b"/><path d="m 55.077469 55.079767 h -50.383307 v -50.148958 h 50.620804" transform="matrix(0.460532 0 0 0.448196 10.572563 11.629875)" style="fill:#fff;stroke:#fff;stroke-linecap:round;stroke-linejoin:round;stroke-width:8.125"/><path d="m 13.753906 13.625 h 21.378906 c 0.503907 0 0.914063 0.398438 0.914063 0.890625 v 20.804687 c 0 0.488282 -0.410156 0.886719 -0.914063 0.886719 h -21.378906 c -0.503906 0 -0.914062 -0.398437 -0.914062 -0.886719 v -20.804687 c 0 -0.492187 0.410156 -0.890625 0.914062 -0.890625" style="fill:#fdfdfd;fill-rule:evenodd"/><g style="stroke-linejoin:round"><g style="fill:none"><g style="stroke:#db123b"><path d="m 3.560258 16.230344 h 53.700119 m -54.199613 11.197249 h 53.691037 m -37.661828 -23.158647 v 11.955235 m 15.520633 0 v 11.197249 m 12.006013 0 v 11.19725" transform="matrix(0.430123 0 0 0.633875 11.527245 11.481522)" style="stroke-width:2.196"/><path d="m 56.751801 57.459788 h -53.954406 v -53.69435 h 54.199612" transform="matrix(0.430123 0 0 0.418602 11.527245 12.263624)" style="stroke-linecap:round;stroke-width:3.346"/></g><g style="stroke-linecap:round"><g transform="matrix(0.460532 0 0 0.448196 10.572563 11.629875)" style="stroke:#fdfdfd;stroke-width:8.125"><path d="m 5.203085 53.589417 c 5.750822 -1.350901 7.464193 -5.412322 11.230218 -10.153551"/><path d="m 54.797562 6.412443 c -5.750822 1.350902 -6.751703 4.218299 -10.517727 8.968244"/><path d="m 26.976477 35.583205 l 5.886534 -6.954965"/><path d="m 22.591263 31.870404 l 5.895016 -6.954965"/><path d="m 29.817959 37.021261 c 0.491959 0.418344 0.568297 1.150446 0.161159 1.638513 l -5.250381 6.188002 c -2.553094 3.006846 -7.07402 3.381612 -10.085144 0.827972 c -3.011123 -2.55364 -3.375851 -7.068267 -0.83124 -10.075112 l 5.250382 -6.196717 c 0.41562 -0.479353 1.145075 -0.531645 1.645515 -0.104586"/><path d="m 33.041134 23.930588 l -5.895017 6.946249"/><path d="m 37.426348 27.643389 l -5.895017 6.946249"/><path d="m 30.199651 22.483816 c -0.50044 -0.418344 -0.568296 -1.150446 -0.161159 -1.629798 l 5.250382 -6.196717 c 2.553094 -3.006846 7.07402 -3.381612 10.076661 -0.827972 c 3.011124 2.55364 3.384334 7.068267 0.83124 10.083828 l -5.250381 6.188001 c -0.407138 0.479353 -1.136594 0.531646 -1.637034 0.113302"/></g><g style="stroke-dasharray:4.19916 4.19916;stroke:#db123b;stroke-width:4.199"><path d="m 4.143659 56.061655 c 7.727655 -1.81527 10.029995 -7.272791 15.090583 -13.655514" transform="matrix(0.342722 0 0 0.333542 11.548627 16.949521)"/><path d="m 5.892822 17.355242 c -7.727655 1.81527 -9.083984 5.668327 -14.133175 12.05105" transform="matrix(0.342722 0 0 0.333542 33.788994 8.715204)"/></g></g></g><g style="fill:#fdfdfd;stroke:#db123b;fill-rule:evenodd;stroke-linecap:round"><g transform="matrix(0.469802 0 0 0.457218 18.149294 13.63838)"><path d="m 10.316686 30.488181 l 5.778698 -6.817727" style="stroke-width:2.677"/><path d="m 6.018 26.840099 l 5.778698 -6.809184" style="stroke-width:2.451"/><path d="m 13.102102 31.897861 c 0.482251 0.410089 0.557083 1.127744 0.157978 1.606181 l -5.146782 6.065898 c -2.502717 2.947513 -6.934438 3.314885 -9.877832 0.811634 c -2.951709 -2.503251 -3.317554 -6.928793 -0.814838 -9.876306 l 5.146783 -6.074441 c 0.399104 -0.469894 1.114166 -0.521155 1.604732 -0.102522" style="stroke-width:3.063"/></g><g transform="matrix(-0.469802 0 0 -0.457218 30.636623 36.293112)"><path d="m 10.318305 30.483584 l 5.778698 -6.809184" style="stroke-width:2.677"/><path d="m 6.019619 26.844045 l 5.778698 -6.817727" style="stroke-width:2.451"/><path d="m 13.103721 31.893264 c 0.482251 0.418633 0.557083 1.136288 0.149664 1.606182 l -5.138468 6.074441 c -2.502717 2.947513 -6.934437 3.314884 -9.886146 0.811634 c -2.943394 -2.503251 -3.30924 -6.928793 -0.806523 -9.88485 l 5.138467 -6.065898 c 0.407419 -0.478437 1.122481 -0.521154 1.613047 -0.111065 l 8.929959 7.5781" style="stroke-width:3.063"/></g></g></g></svg>