<svg xmlns="http://www.w3.org/2000/svg" viewBox="0 0 48 48"><path d="m 0.15625 18.800781 c 0.25 -2.824219 0.964844 -5.910156 1.898438 -8.191406 c 3.25 -7.960937 9.847656 -11.671875 18.1875 -10.222656 c 4.480468 0.777343 9.550781 3 14.917968 6.539062 c 6.398438 4.226563 11.25 10.753907 12.480469 16.800781 c 0.261719 1.277344 0.351563 3.6875 0.191406 4.972657 c -0.542969 4.304687 -2.871093 7.890625 -7.265625 11.183593 c -4.203125 3.144532 -8.476562 5.476563 -12.457031 6.792969 c -8.179687 2.703125 -15.476563 1.066407 -20.757813 -4.660156 c -3.714843 -4.023437 -6.082031 -9.472656 -7.023437 -16.160156 c -0.144531 -1 -0.265625 -6.023438 -0.171875 -7.054688" style="fill:#ff8c00"/><path d="m 11.578125 10.285156 l 4.203125 23.207032 l 7.519531 -4.445313 l 5.425781 5.234375 l 4.996094 -3.507812 l -5.070312 -4.890626 l 6.1875 -3.65625" style="fill:#fff;fill-rule:evenodd"/></svg>