<svg xmlns="http://www.w3.org/2000/svg" viewBox="0 0 48 48"><path d="m 43.054688 36.71875 c 17.261718 -24.546875 -14.613282 -49.421875 -34.945313 -29.417969 c -19.160156 18.84375 -1.398437 48.125 22.441406 38.972657 c 4.972657 -1.910157 9.335938 -5.046876 12.503907 -9.554688" style="fill:#ff8c00"/><g style="fill:#fff"><g style="fill-opacity:0.94902;fill-rule:evenodd"><path d="m 18.015625 8.441406 h 8.34375 c 0.496094 0 0.894531 0.644532 0.894531 1.445313 v 0.800781 c 0 0.796875 -0.398437 1.445312 -0.894531 1.445312 h -8.34375 c -0.492187 0 -0.890625 -0.648437 -0.890625 -1.445312 v -0.800781 c 0 -0.800781 0.398438 -1.445313 0.890625 -1.445313"/><path d="m 18.015625 12.132812 h 8.34375 c 0.496094 0 0.894531 0.644532 0.894531 1.441407 v 0.804687 c 0 0.796875 -0.398437 1.441406 -0.894531 1.441406 h -8.34375 c -0.492187 0 -0.890625 -0.644531 -0.890625 -1.441406 v -0.804687 c 0 -0.796875 0.398438 -1.441407 0.890625 -1.441407"/><path d="m 18.015625 15.820312 h 8.34375 c 0.496094 0 0.894531 0.648438 0.894531 1.445313 v 0.800781 c 0 0.800782 -0.398437 1.445313 -0.894531 1.445313 h -8.34375 c -0.492187 0 -0.890625 -0.644531 -0.890625 -1.445313 v -0.800781 c 0 -0.796875 0.398438 -1.445313 0.890625 -1.445313"/></g><g transform="matrix(0.316022 0 0 0.241761 -10.60321 8.85049)" style="stroke:#fff;stroke-linecap:round;stroke-linejoin:round;stroke-width:1.121"><path d="m 93.019406 121.169425 c 4.746505 -17.256196 10.667276 -31.200106 18.874774 -44.433087 l -5.562311 0.953291 c 3.559879 -8.369577 9.208714 -15.608131 16.958867 -21.699503 c 0.642756 10.631625 -0.803445 20.132227 -4.499291 28.841112 l -2.694631 -5.816695 c -4.017224 15.511187 -11.124621 32.234185 -18.874773 44.433087" style="stroke-opacity:0.92549;fill-opacity:0.784314"/><path d="m 92.512618 120.797802 c 4.746505 -17.256195 10.667275 -31.200105 18.874774 -44.433086 l -5.562311 0.953291 c 3.547518 -8.369578 9.208714 -15.608131 16.958867 -21.699504 c 0.642756 10.631626 -0.815806 20.132228 -4.511652 28.841113 l -2.68227 -5.816695 c -4.017224 15.511187 -11.124621 32.234185 -18.887134 44.433087"/></g><g style="fill-opacity:0.94902;fill-rule:evenodd"><path d="m 7.390625 22.152344 h 9.648437 c 0.492188 0 0.890626 0.648437 0.890626 1.445312 v 1.277344 c 0 0.796875 -0.398438 1.445312 -0.890626 1.445312 h -9.648437 c -0.496094 0 -0.894531 -0.648437 -0.894531 -1.445312 v -1.277344 c 0 -0.796875 0.398437 -1.445312 0.894531 -1.445312"/><path d="m 7.390625 26.320312 h 9.648437 c 0.492188 0 0.890626 0.644532 0.890626 1.445313 v 1.277344 c 0 0.796875 -0.398438 1.441406 -0.890626 1.441406 h -9.648437 c -0.496094 0 -0.894531 -0.644531 -0.894531 -1.441406 v -1.277344 c 0 -0.800781 0.398437 -1.445313 0.894531 -1.445313"/><path d="m 7.390625 30.484375 h 9.648437 c 0.492188 0 0.890626 0.648437 0.890626 1.445313 v 1.277343 c 0 0.796875 -0.398438 1.445313 -0.890626 1.445313 h -9.648437 c -0.496094 0 -0.894531 -0.648438 -0.894531 -1.445313 v -1.277343 c 0 -0.796876 0.398437 -1.445313 0.894531 -1.445313"/></g><path d="m 35.726562 27.085938 c -0.5 3.695312 -3.636718 0.417968 -2.269531 -2.308594 c 1.082031 -3.125 5.449219 -6.507813 2.933594 -10.027344 c -2.683594 -2.707031 -3.644531 3.925781 -5.867187 1.835938 c -1.714844 -2.570313 1.25 -4.785157 3.171874 -5.40625 c 2.835938 -1.109376 6.476563 0.828124 6.785157 4.484374 c 0.503906 3.410157 -1.265625 6.550782 -3.359375 8.753907 c -0.582032 0.796875 -1.109375 1.667969 -1.394532 2.667969"/><path d="m 37.046875 33.15625 c 0.996094 4.355469 -6.125 4.636719 -4.738281 -0.058594 c 0.675781 -2.597656 4.480468 -3.105468 4.738281 0.058594"/></g></svg>