<svg xmlns="http://www.w3.org/2000/svg" viewBox="0 0 48 48"><path d="m 47.585938 24.421875 c 4.191406 20.988281 -24.554688 28.957031 -40.164063 19.863281 c -12.4375 -7.246094 -8.878906 -32.066406 7.90625 -41.320312 c 16.789063 -9.253906 28.894531 4.613281 32.257813 21.457031" style="fill:#ff8c00"/><g style="stroke-linejoin:round"><path d="m 20.591728 4.691009 c -2.135545 0 -3.869354 1.703825 -3.869354 3.844166 v 2.182585 c 0 0.204177 0.091624 0.373152 0.119816 0.563248 h -3.749538 c -1.55056 0 -2.812153 1.351795 -2.812153 2.999294 v 38.061468 c 0 1.654541 1.254545 2.971132 2.812153 2.971132 h 33.816319 c 1.550561 0 2.812154 -1.316591 2.812154 -2.971132 v -38.061468 c 0 -1.647499 -1.261593 -2.999294 -2.812154 -2.999294 h -3.749537 c 0.028192 -0.190096 0.119816 -0.359071 0.119816 -0.563248 v -2.182585 c 0 -2.140341 -1.733809 -3.844166 -3.869354 -3.844166" transform="matrix(0.554235 0 0 0.554818 7.3725 7.15125)" style="fill:none;stroke:#fff;stroke-width:8.125"/><g style="fill:#fff;stroke:#ff8c00;fill-rule:evenodd"><path d="m 7.515618 4.576363 c -1.372741 0 -2.478388 1.103394 -2.478388 2.47534 v 31.566423 c 0 1.366107 1.105647 2.47534 2.478388 2.47534 h 29.777925 c 1.372741 0 2.478387 -1.109233 2.478387 -2.47534 v -31.566423 c 0 -1.371946 -1.105646 -2.47534 -2.478387 -2.47534" transform="matrix(0.628874 0 0 0.6691 9.910342 10.348112)" style="stroke-width:2.671"/><path d="m 13.593061 21.525077 l 8.71838 30.450582 l 24.090074 -6.899785 l -8.71838 -30.450582" transform="matrix(0.554235 0 0 0.554818 7.3725 7.15125)" style="stroke-width:2.5"/><path d="m 19.984939 3.676415 c -2.207259 0 -3.984721 1.782871 -3.984721 3.987811 v 2.248601 c 0 2.212216 1.777462 3.987811 3.984721 3.987811 h 19.479237 c 2.207259 0 3.984721 -1.775595 3.984721 -3.987811 v -2.248601 c 0 -2.212217 -1.777462 -3.987811 -3.984721 -3.987811" transform="matrix(0.536228 0 0 0.536792 8.06086 7.77653)" style="stroke-linecap:round;stroke-width:3.23"/></g></g></svg>