
<svg xmlns="http://www.w3.org/2000/svg" xmlns:xlink="http://www.w3.org/1999/xlink" width="48px" height="48px" viewBox="0 0 48 48" version="1.1">
<g id="surface1">
<path style=" stroke:none;fill-rule:nonzero;fill:rgb(100%,54.901961%,0%);fill-opacity:1;" d="M 47.585938 24.421875 C 51.777344 45.410156 23.03125 53.378906 7.421875 44.285156 C -5.015625 37.039062 -1.457031 12.21875 15.328125 2.964844 C 32.117188 -6.289062 44.222656 7.578125 47.585938 24.421875 Z M 47.585938 24.421875 "/>
<path style="fill:none;stroke-width:8.125;stroke-linecap:round;stroke-linejoin:round;stroke:rgb(100%,100%,100%);stroke-opacity:1;stroke-miterlimit:4;" d="M 6.679671 4.68954 C 5.581366 4.68954 4.689987 5.580846 4.689987 6.694978 L 4.689987 53.305483 C 4.689987 54.419615 5.581366 55.31092 6.679671 55.31092 L 53.317851 55.31092 C 54.424115 55.31092 55.315493 54.419615 55.315493 53.305483 L 55.315493 6.694978 C 55.315493 5.588804 54.424115 4.68954 53.317851 4.68954 Z M 6.679671 4.68954 " transform="matrix(0.490813,0,0,0.490853,9.162937,10.71375)"/>
<path style="fill-rule:evenodd;fill:rgb(100%,54.901961%,0%);fill-opacity:1;stroke-width:3.125;stroke-linecap:round;stroke-linejoin:round;stroke:rgb(100%,54.901961%,0%);stroke-opacity:1;stroke-miterlimit:4;" d="M 6.679671 4.68954 C 5.581366 4.68954 4.689987 5.580846 4.689987 6.694978 L 4.689987 53.305483 C 4.689987 54.419615 5.581366 55.31092 6.679671 55.31092 L 53.317851 55.31092 C 54.424115 55.31092 55.315493 54.419615 55.315493 53.305483 L 55.315493 6.694978 C 55.315493 5.588804 54.424115 4.68954 53.317851 4.68954 Z M 6.679671 4.68954 " transform="matrix(0.490813,0,0,0.490853,9.162937,10.71375)"/>
<path style="fill-rule:evenodd;fill:rgb(100%,100%,100%);fill-opacity:1;stroke-width:3.125;stroke-linecap:round;stroke-linejoin:round;stroke:rgb(100%,54.901961%,0%);stroke-opacity:1;stroke-miterlimit:4;" d="M 4.689987 38.694439 L 4.689987 53.305483 C 4.689987 54.411657 5.573407 55.31092 6.679671 55.31092 L 53.317851 55.31092 C 54.424115 55.31092 55.315493 54.419615 55.315493 53.305483 L 55.315493 38.694439 C 55.315493 31.898234 4.689987 31.87436 4.689987 38.694439 Z M 4.689987 38.694439 " transform="matrix(0.490813,0,0,0.490853,9.162937,10.71375)"/>
<path style="fill:none;stroke-width:2.5;stroke-linecap:round;stroke-linejoin:round;stroke:rgb(100%,54.901961%,0%);stroke-opacity:1;stroke-miterlimit:4;" d="M 40.981813 55.287046 L 41.912985 55.048304 L 51.861402 55.040346 L 48.66995 54.324118 L 46.791689 52.995118 L 47.635315 52.637004 M 39.788003 34.516444 L 36.198614 37.118738 L 39.668622 39.776738 L 36.007605 42.609816 L 34.885423 42.005002 L 36.198614 41.344481 L 32.728606 40.739666 L 28.327427 44.360595 L 29.919173 44.543631 L 30.484243 45.872631 L 32.07599 44.479967 L 31.797435 43.397667 L 32.824111 42.124373 L 33.667737 42.124373 L 32.545556 43.517038 L 33.389181 44.241224 L 33.293677 45.745302 L 27.857861 46.716188 L 24.387853 48.100895 L 25.04047 49.915339 L 21.665966 49.676596 L 21.108855 50.997638 L 20.44828 51.849153 L 21.570462 52.270932 L 22.135532 52.509674 L 24.109298 52.573339 L 25.510035 50.878267 L 26.258156 50.878267 L 26.823226 50.337117 L 29.354103 49.795967 L 31.884981 51.968525 L 32.824111 51.36371 L 30.484243 49.549267 L 31.415415 49.549267 L 34.980928 52.629046 L 36.015563 50.878267 L 37.416301 50.758896 L 37.790361 48.70571 L 42.478055 49.310524 L 42.390509 50.03471 L 37.04224 51.300046 L 37.702815 52.326639 L 41.451379 51.841195 L 41.355874 54.077417 L 38.729492 54.682232 L 34.789918 54.260453 L 34.137302 54.984639 L 29.728164 54.196789 L 29.640618 52.812082 L 19.978715 53.536267 L 19.50915 54.865268 " transform="matrix(0.490813,0,0,0.490853,9.162937,10.71375)"/>
<path style="fill:none;stroke-width:2.5;stroke-linecap:round;stroke-linejoin:round;stroke:rgb(100%,54.901961%,0%);stroke-opacity:1;stroke-miterlimit:4;" d="M 5.836045 44.83808 L 10.889841 42.792852 L 11.542457 42.792852 L 12.855648 42.737146 L 16.604212 39.052552 L 6.178271 39.124175 " transform="matrix(0.490813,0,0,0.490853,9.162937,10.71375)"/>
<path style="fill:none;stroke-width:2.5;stroke-linecap:round;stroke-linejoin:round;stroke:rgb(100%,54.901961%,0%);stroke-opacity:1;stroke-miterlimit:4;" d="M 16.787263 41.646888 L 20.631331 40.620295 L 24.101339 40.325846 L 27.849903 37.787217 L 23.536269 37.421145 L 20.631331 39.474331 Z M 16.787263 41.646888 " transform="matrix(0.490813,0,0,0.490853,9.162937,10.71375)"/>
<path style="fill:none;stroke-width:2.5;stroke-linecap:round;stroke-linejoin:round;stroke:rgb(100%,54.901961%,0%);stroke-opacity:1;stroke-miterlimit:4;" d="M 24.013793 47.257338 L 26.449165 46.83556 L 25.231479 45.387188 L 25.884095 45.029074 L 25.135974 44.543631 Z M 24.013793 47.257338 " transform="matrix(0.490813,0,0,0.490853,9.162937,10.71375)"/>
<path style="fill:none;stroke-width:2.5;stroke-linecap:round;stroke-linejoin:round;stroke:rgb(100%,54.901961%,0%);stroke-opacity:1;stroke-miterlimit:4;" d="M 23.631774 46.541111 L 23.918288 45.570224 L 22.318583 46.238703 Z M 23.631774 46.541111 " transform="matrix(0.490813,0,0,0.490853,9.162937,10.71375)"/>
</g>
</svg>
