<svg xmlns="http://www.w3.org/2000/svg" viewBox="0 0 48 48"><path d="m 18.804688 47.875 c -2.824219 -0.25 -5.910157 -0.964844 -8.191407 -1.894531 c -7.960937 -3.25 -11.667969 -9.847657 -10.222656 -18.1875 c 0.777344 -4.480469 3.003906 -9.554688 6.542969 -14.917969 c 4.222656 -6.402344 10.75 -11.253906 16.796875 -12.484375 c 1.277343 -0.257813 3.6875 -0.3515625 4.976562 -0.191406 c 4.304688 0.542969 7.890625 2.875 11.179688 7.269531 c 3.148437 4.199219 5.480469 8.476562 6.792969 12.453125 c 2.707031 8.183594 1.070312 15.480469 -4.65625 20.761719 c -4.023438 3.710937 -9.476563 6.078125 -16.160157 7.023437 c -1.003906 0.140625 -6.023437 0.261719 -7.054687 0.171875" style="fill:#ff8c00"/><g style="fill-rule:evenodd"><path d="m 24.902344 12.765625 c -5.792969 0 -10.144532 3.75 -10.488282 11.800781 c -1.246093 13.191406 4.125 15.5 3.117188 3.574219 c -0.171875 -8.46875 3.226562 -11.515625 7.1875 -11.515625 c 3.960938 0 7.445312 1.777344 7.273438 14.367188 c -0.335938 8.546874 4.175781 6.59375 3.359374 -5.6875 c 0 -7.097657 -4.65625 -12.539063 -10.449218 -12.539063" style="fill:#fff"/><g style="fill:#dcdcdc"><path d="m 14.234375 30.664062 h 3.453125 v 6.121094 h -3.453125"/><path d="m 31.855469 30.664062 h 3.449219 v 6.121094 h -3.449219"/></g></g></svg>