<svg xmlns="http://www.w3.org/2000/svg" viewBox="0 0 48 48"><path d="m 1.554688 17.402344 c -8.964844 25.015625 23.246093 37.179687 35.347656 26.996094 c 12.097656 -10.183594 16.230468 -27.636719 2.527344 -36.417969 c -13.707032 -8.78125 -28.914063 -15.589844 -37.875 9.425781" style="fill:#ff8c00"/><path d="m 11.515625 11.917969 v 9.285156 h 9.132813 v -9.285156 m 4.566406 0 v 1.546875 h 9.132812 v 21.667968 h -9.132812 v 1.550782 h 10.65625 v -24.765625 m -20.050782 14.96875 l -3.230468 3.28125 l -1.074219 1.09375 l 4.304687 4.378906 l 1.074219 -1.09375 l -2.46875 -2.511719 h 7.089844 v -1.546875 h -7.089844 l 2.46875 -2.507812" style="fill-opacity:0.501961"/><g transform="scale(0.1875)" style="fill:#fff;stroke:#fff;fill-rule:evenodd;stroke-width:5.938"><path d="m 62 88.520833 v -23.875 h 47.729167 v 47.729167 h -47.729167"/><path d="m 76.5625 181.5 c -4.145833 -4.3125 -8.979167 -9.416667 -10.729167 -11.354167 l -3.166666 -3.541666 l 11.041666 -11.208334 l 11.020834 -11.208333 l 2.416666 2.5625 l 2.395834 2.5625 l -6.1875 6.229167 c -3.395834 3.4375 -6.166667 6.604166 -6.166667 7.041666 c 0 0.4375 8.291667 0.770834 18.4375 0.770834 h 18.4375 v 6.520833 h -18.4375 c -10.145833 0 -18.4375 0.3125 -18.4375 0.6875 c 0 0.375 2.666667 3.729167 5.916667 7.4375 l 5.916666 6.75 l -2.4375 2.3125 l -2.458333 2.291667 l -7.5625 -7.833334"/><path d="m 134.666667 191.5625 v -3.25 h 48.8125 v -117.166667 h -48.8125 v -6.5 h 56.395833 v 130.166667 h -56.395833"/></g></svg>