<svg xmlns="http://www.w3.org/2000/svg" viewBox="0 0 48 48"><path d="m 1.554688 30.59375 c -8.964844 -25.015625 23.242187 -37.175781 35.34375 -26.992188 c 12.101562 10.179688 16.234374 27.632813 2.527343 36.414063 c -13.703125 8.78125 -28.910156 15.59375 -37.875 -9.425781" style="fill:#ffa400"/><g style="fill:#fff"><path d="m 11.140625 12.128906 v 24.355469 h 13.46875 v -1.523437 h -12.121094 v -0.890626 l 0.625 -0.707031 l 8.441407 -9.539062 l 1.957031 2.210937 l 1.09375 1.238282 h 0.003906 l 1.101563 -1.238282 l 1.957031 -2.210937 l 1.773437 2.003906 h 1.902344 l -2.722656 -3.082031 l 7.746094 -8.757813 l 0.296874 -0.339843 h 0.066407 v 9.136718 h 1.347656 v -10.65625 m -25.589844 1.523438 h 0.066407 l 0.300781 0.335937 l 7.746093 8.761719 l -8.113281 9.167969 m 1.96875 -18.265625 h 20.304688 l -10.152344 11.472656"/><path d="m 35.382812 24.304688 l -1.339843 1.515624 l -0.003907 -0.007812 l -6.734374 7.609375 l 0.007812 0.011719 l -0.003906 1.527344 h -0.003906 v 1.523437 h 2.691406 l 0.015625 -0.015625 c 0.003906 0 0.007812 0.003906 0.011719 0.003906 l -0.007813 -0.011718 l 1.328125 -1.5 l 5.386719 -6.082032 l -0.949219 -1.078125 l -6.71875 7.589844 l -0.800781 -0.902344 l 6.722656 -7.59375 l 0.796875 0.90625 l 0.949219 1.070313 l 1.347656 -1.523438"/></g></svg>