<svg xmlns="http://www.w3.org/2000/svg" viewBox="0 0 48 48"><path d="m 47.390625 29.492188 c -9.371094 44.984374 -73.847656 -3.304688 -35.117187 -26.171876 c 15.046874 -9.800781 39.9375 3.039063 35.117187 26.171876" style="fill:#ff8c00"/><g style="fill:#fff"><path d="m 11.75 10.90625 v 14.84375 h 1.328125 v -13.195312 h 0.066406 l 0.292969 0.367187 l 7.628906 9.492187 l -2.683594 3.335938 h 1.875 l 1.746094 -2.171875 l 1.929688 2.394531 l 1.082031 1.34375 h 0.003906 l 1.078125 -1.34375 l 1.929688 -2.394531 l 1.746094 2.171875 h 1.875 l -2.683594 -3.335938 l 7.628906 -9.492187 l 0.296875 -0.367187 h 0.0625 v 13.195312 h 1.328125 v -14.84375 m -23.261719 1.648438 h 19.996094 l -10 12.433593 m 5.304687 4.0625 v 1.648438 h 7.960938 v -1.648438 m -7.960938 3.296875 v 1.648438 h 7.960938 v -1.648438 m -17.246094 3.300782 v 1.648437 h 7.960938 v -1.648437 m 1.324218 0 v 1.648437 h 7.960938 v -1.648437" style="fill-rule:evenodd"/><path d="m 18.292969 36.691406 c 0.976562 -3.082031 -0.464844 -3.476562 -2.792969 -2.898437 v 2.316406 l -3.726562 -3.789063 l 3.726562 -3.738281 v 2.316407 c 1.398438 0 2.503906 -0.296876 3.492188 1.078124 c 0.992187 1.375 0.464843 2.6875 -0.699219 4.714844"/></g></svg>