<svg xmlns="http://www.w3.org/2000/svg" viewBox="0 0 48 48"><g style="fill:#ff8c00"><path d="m 4.683594 38.105469 c -23.992188 -36.085938 52.515625 -58.3125 42.386718 -11.664063 c -4.316406 19.28125 -31.386718 30.980469 -42.386718 11.664063"/><path d="m 24.40625 10.136719 c 0.023438 0 0.050781 0.003906 0.078125 0.007812 c 0.269531 0.007813 0.53125 0.132813 0.667969 0.316407 l 3.914062 5.375 l 3.917969 5.371093 c 0.140625 0.199219 0.140625 0.453125 -0.003906 0.652344 c -0.144531 0.195313 -0.425781 0.320313 -0.710938 0.320313 h -4.359375 v 12.21875 c 0 0.816406 -0.660156 1.476562 -1.476562 1.476562 h -3.980469 c -0.820313 0 -1.480469 -0.660156 -1.480469 -1.476562 v -12.21875 h -4.359375 c -0.285156 0 -0.566406 -0.125 -0.710937 -0.320313 c -0.140625 -0.199219 -0.144532 -0.453125 -0.003906 -0.652344 l 3.917968 -5.371093 l 3.914063 -5.375 c 0.136719 -0.1875 0.402343 -0.3125 0.675781 -0.324219"/><path d="m 24.40625 10.136719 c 0.027344 0 0.054688 0.003906 0.078125 0.007812 c 0.273437 0.007813 0.535156 0.136719 0.671875 0.320313 l 3.914062 5.371094 l 3.914063 5.375 c 0.144531 0.199218 0.140625 0.453124 -0.003906 0.648437 c -0.144531 0.195313 -0.421875 0.320313 -0.707031 0.320313 h -4.359376 v 12.222656 c 0 0.816406 -0.664062 1.472656 -1.480468 1.472656 h -2.035156 v -25.738281 c 0.003906 0 0.003906 0 0.007812 0"/></g><g style="fill:#fff"><path d="m 24.609375 12.015625 c -4.558594 0 -8.257813 3.914063 -8.257813 8.734375 c 0 4.824219 3.699219 8.734375 8.257813 8.734375 c 4.5625 0 8.261719 -3.910156 8.261719 -8.734375 c 0 -4.820312 -3.699219 -8.734375 -8.261719 -8.734375 m 0 5.242187 c 1.828125 0 3.304687 1.5625 3.304687 3.492188 c 0 1.933594 -1.476562 3.496094 -3.304687 3.496094 c -1.824219 0 -3.300781 -1.5625 -3.300781 -3.496094 c 0 -1.929688 1.476562 -3.492188 3.300781 -3.492188"/><path d="m 16.351562 20.75 c 0 6.988281 6.605469 12.230469 8.257813 17.46875 c 1.652344 -5.238281 8.261719 -10.480469 8.261719 -17.46875 h -4.957032 c 0 1.933594 -1.476562 3.496094 -3.304687 3.496094 c -1.824219 0 -3.300781 -1.5625 -3.300781 -3.496094"/></g></svg>