<svg xmlns="http://www.w3.org/2000/svg" viewBox="0 0 48 48"><path d="m 46.648438 30.832031 c 8.960937 -25.015625 -23.246094 -37.175781 -35.347657 -26.992187 c -12.097656 10.179687 -16.234375 27.632812 -2.527343 36.414062 c 13.703124 8.78125 28.914062 15.59375 37.875 -9.425781" style="fill:#ab63d1"/><path d="m 32.298139 875.677381 l 0.423251 -0.008698 c 13.124504 -0.002119 23.773696 11.492232 23.770055 25.645472 l -0.003953 53.739592 c 0.009277 14.170601 -10.635505 25.643205 -23.7744 25.643483 l -0.423251 0.008698 c -13.124504 0.002119 -23.773697 -11.492232 -23.770056 -25.645472 l 0.003953 -53.739591 c -0.009277 -14.170602 10.635505 -25.643206 23.774401 -25.643484" transform="matrix(-0.268169 -0.0318063 -0.0254607 0.248665 56.960625 -207.164438)" style="fill:none;stroke:#d5b1e8;stroke-width:16.604"/><path d="m 32.074219 20.527344 c 2.199219 0 3.96875 1.632812 3.96875 3.660156 v 10.414062 c 0 2.027344 -1.769531 3.660157 -3.96875 3.660157 h -14.921875 c -2.203125 0 -3.972656 -1.632813 -3.972656 -3.660157 v -10.414062 c 0 -2.027344 1.769531 -3.660156 3.972656 -3.660156 m 7.460937 5.765625 c -1.28125 0 -2.316406 0.960937 -2.316406 2.140625 c 0 0.820312 0.503906 1.539062 1.242187 1.898437 v 2.152344 h 2.152344 v -2.152344 c 0.738282 -0.359375 1.234375 -1.078125 1.234375 -1.898437 c 0 -1.179688 -1.035156 -2.140625 -2.3125 -2.140625" style="fill:#fff"/><path d="m 12.175781 18.644531 l 2.433594 -1.867187 l 6.652344 -0.046875 l 0.035156 3.703125 l -6.652344 0.046875 m -0.15625 -1.558594 c 0.203125 0.148437 0.570313 0.148437 0.773438 -0.007813 c 0.199219 -0.152343 0.195312 -0.429687 -0.007813 -0.582031 c -0.203125 -0.148437 -0.570312 -0.148437 -0.769531 0.007813 c -0.199219 0.152344 -0.199219 0.429687 0.003906 0.582031" style="fill:#ab63d1;fill-rule:evenodd"/></svg>