<svg xmlns="http://www.w3.org/2000/svg" viewBox="0 0 48 48"><path d="m 36.355469 5.960938 c 42.507812 39.515624 -45.226563 64.414062 -35.550781 11.953124 c 4.773437 -13.839843 21.902343 -24.640624 35.550781 -11.953124" style="fill:#ff8c00"/><g style="stroke-linejoin:round"><g transform="matrix(0.37277 0 0 0.409516 10.777758 10.402625)"><path d="m 6.674 5.121595 c -1.100293 0 -1.991006 0.887099 -1.991006 1.993588 v 46.377156 c 0 1.116028 0.890713 2.003127 1.991006 2.003127 h 46.746737 c 1.110772 0 2.001486 -0.887099 2.001486 -2.003127 v -46.377156 c 0 -1.106489 -0.890714 -1.993588 -2.001486 -1.993588" style="fill:none;stroke:#fff;stroke-width:11.533"/><g style="stroke:#ff8c00;stroke-width:4.436"><path d="m 6.674 5.121595 c -1.100293 0 -1.991006 0.887099 -1.991006 1.993588 v 46.377156 c 0 1.116028 0.890713 2.003127 1.991006 2.003127 h 46.746737 c 1.110772 0 2.001486 -0.887099 2.001486 -2.003127 v -46.377156 c 0 -1.106489 -0.890714 -1.993588 -2.001486 -1.993588" style="fill:#fff;fill-rule:evenodd"/><g style="fill:none;stroke-linecap:round"><path d="m 12.479356 15.375697 h 35.146504"/><path d="m 12.479356 25.448563 h 35.146504"/><path d="m 12.479356 35.530968 h 35.146504"/><path d="m 12.479356 45.603835 h 19.669049"/></g></g></g><g transform="matrix(0.385985 0 0 0.420984 15.707165 15.856084)" style="stroke-linecap:round"><path d="m 19.450701 40.343005 c 4.867822 4.435294 8.015208 8.425202 13.227117 17.676221 c 11.334637 -28.606713 26.848922 -35.946289 24.885601 -37.217492 c -3.987364 -2.67231 -23.347329 19.71757 -25.695218 22.677525 c -2.813419 -1.493896 -12.4175 -6.708613 -12.4175 -3.136254" style="fill:none;stroke:#fff;stroke-width:9.76"/><path d="m 19.450701 40.343005 c 4.867822 4.435294 8.015208 8.425202 13.227117 17.676221 c 11.334637 -28.606713 26.848922 -35.946289 24.885601 -37.217492 c -3.987364 -2.67231 -23.347329 19.71757 -25.695218 22.677525 c -2.813419 -1.493896 -12.4175 -6.708613 -12.4175 -3.136254" style="fill:#ff8c00;stroke:#ff8c00;fill-rule:evenodd;stroke-width:3.253"/></g></g></svg>