<svg xmlns="http://www.w3.org/2000/svg" viewBox="0 0 48 48"><path d="m 1.554688 30.59375 c -8.964844 -25.011719 23.246093 -37.175781 35.347656 -26.992188 c 12.097656 10.183594 16.230468 27.636719 2.527344 36.414063 c -13.707032 8.78125 -28.914063 15.59375 -37.875 -9.421875" style="fill:#ff8c00"/><path d="m 8.402344 28.855469 v -12.140625 c 0 -0.546875 0.132812 -0.980469 0.398437 -1.300782 c 0.269531 -0.324218 0.585938 -0.488281 0.949219 -0.488281 h 3.238281 c 0.605469 0 1.152344 0.113281 1.632813 0.339844 c 0.480468 0.226563 0.898437 0.5625 1.25 1.003906 c 0.351562 0.433594 0.621094 0.949219 0.804687 1.542969 c 0.183594 0.597656 0.277344 1.257812 0.277344 1.984375 c 0 0.574219 -0.066406 1.109375 -0.195313 1.609375 c -0.125 0.488281 -0.308593 0.925781 -0.550781 1.308594 c -0.238281 0.378906 -0.53125 0.695312 -0.871093 0.949218 c -0.339844 0.257813 -0.722657 0.4375 -1.144532 0.542969 l 2.339844 3.359375 c 0.378906 0.539063 0.566406 1.050782 0.566406 1.535156 c 0 0.347657 -0.117187 0.710938 -0.355468 1.085938 c -0.234376 0.375 -0.574219 0.566406 -1.023438 0.566406 c -0.3125 0 -0.5625 -0.070312 -0.738281 -0.203125 c -0.175781 -0.136719 -0.355469 -0.359375 -0.546875 -0.671875 l -3.304688 -5.542968 h -0.03125 v 4.519531 c 0 0.617187 -0.125 1.089843 -0.375 1.417969 c -0.242187 0.320312 -0.566406 0.480468 -0.972656 0.480468 c -0.394531 0 -0.722656 -0.164062 -0.976562 -0.492187 c -0.246094 -0.332031 -0.371094 -0.800781 -0.371094 -1.40625 m 2.695312 -10.625 v 3.464843 h 1.777344 c 0.429688 0 0.765625 -0.164062 1.007812 -0.488281 c 0.25 -0.335937 0.375 -0.761719 0.375 -1.28125 c 0 -0.511719 -0.132812 -0.917969 -0.390624 -1.226562 c -0.261719 -0.3125 -0.589844 -0.46875 -0.992188 -0.46875 h -1.777344 m 13.425782 3.101562 h 2.90625 c 0.953124 0 1.429687 0.726563 1.429687 2.175781 c 0 1.042969 -0.128906 2.023438 -0.382813 2.945313 c -0.25 0.914063 -0.609374 1.710937 -1.078124 2.386719 c -0.464844 0.667968 -1.035157 1.191406 -1.707032 1.578125 c -0.664062 0.375 -1.402344 0.5625 -2.214844 0.5625 c -1.210937 0 -2.253906 -0.359375 -3.136718 -1.085938 c -0.875 -0.730469 -1.546875 -1.71875 -2.003906 -2.960937 c -0.457032 -1.253906 -0.683594 -2.636719 -0.683594 -4.15625 c 0 -1.183594 0.144531 -2.273438 0.429687 -3.273438 c 0.285157 -1.003906 0.695313 -1.871094 1.21875 -2.601562 c 0.53125 -0.738282 1.152344 -1.308594 1.867188 -1.703125 c 0.714843 -0.40625 1.484375 -0.609375 2.308593 -0.609375 c 0.75 0 1.480469 0.140625 2.191407 0.417968 c 0.714843 0.269532 1.289062 0.664063 1.730469 1.179688 c 0.441406 0.519531 0.664062 1.128906 0.664062 1.824219 c 0 0.453125 -0.109375 0.820312 -0.332031 1.097656 c -0.222657 0.277344 -0.515625 0.414063 -0.875 0.414063 c -0.257813 0 -0.609375 -0.191407 -1.066407 -0.574219 c -0.449218 -0.382813 -0.796874 -0.65625 -1.046874 -0.820313 c -0.25 -0.164062 -0.632813 -0.246094 -1.152344 -0.246094 c -0.457032 0 -0.871094 0.125 -1.25 0.375 c -0.378906 0.246094 -0.707032 0.597657 -0.976563 1.054688 c -0.269531 0.453125 -0.476562 0.976562 -0.617187 1.566406 c -0.136719 0.582032 -0.203125 1.214844 -0.203125 1.898438 c 0 0.859375 0.109375 1.660156 0.324219 2.40625 c 0.21875 0.746094 0.554687 1.351562 1.007812 1.8125 c 0.453125 0.460937 1.007812 0.691406 1.664062 0.691406 c 0.460938 0 0.875 -0.125 1.242188 -0.382812 c 0.375 -0.257813 0.671875 -0.613282 0.894531 -1.078126 c 0.222657 -0.460937 0.351563 -0.992187 0.390625 -1.597656 h -1.542968 c -0.417969 0 -0.75 -0.148437 -0.992188 -0.445312 c -0.238281 -0.300782 -0.355469 -0.699219 -0.355469 -1.195313 c 0 -0.53125 0.117188 -0.941406 0.347657 -1.226562 c 0.238281 -0.285157 0.570312 -0.425781 1 -0.425781 m 8.144531 -3.238282 v 2.972656 h 1.226562 c 0.390625 0 0.695313 -0.125 0.910157 -0.371093 c 0.214843 -0.257813 0.324218 -0.625 0.324218 -1.109375 c 0 -0.476563 -0.105468 -0.84375 -0.324218 -1.097656 c -0.210938 -0.265626 -0.515626 -0.394532 -0.910157 -0.394532 h -1.226562 m -2.695313 10.742188 v -12.117188 c 0 -0.546875 0.132813 -0.980468 0.398438 -1.300781 c 0.269531 -0.328125 0.585937 -0.492187 0.949218 -0.492187 h 3.175782 c 0.5 0 0.957031 0.101562 1.371094 0.300781 c 0.421874 0.191406 0.777343 0.46875 1.066406 0.832031 c 0.285156 0.359375 0.503906 0.800781 0.65625 1.320312 c 0.15625 0.511719 0.234375 1.066407 0.234375 1.664063 c 0 0.703125 -0.140625 1.296875 -0.421875 1.789063 c -0.28125 0.492187 -0.613282 0.886718 -0.996094 1.191406 c 0.71875 0.179687 1.292969 0.621094 1.726562 1.324218 c 0.433594 0.703126 0.652344 1.550782 0.652344 2.546876 c 0 0.875 -0.148437 1.667968 -0.441406 2.375 c -0.289062 0.710937 -0.746094 1.285156 -1.363281 1.71875 c -0.617188 0.425781 -1.390625 0.640624 -2.320313 0.640624 h -3.339844 c -0.363281 0 -0.679687 -0.160156 -0.949218 -0.480468 c -0.265625 -0.328125 -0.398438 -0.765625 -0.398438 -1.3125 m 2.695313 -4.601563 v 3.226563 h 1.699219 c 0.484374 0 0.878906 -0.132813 1.175781 -0.394532 c 0.296875 -0.261718 0.449219 -0.671874 0.449219 -1.226562 c 0 -0.558594 -0.160157 -0.96875 -0.480469 -1.222656 c -0.3125 -0.257813 -0.695313 -0.386719 -1.144531 -0.386719 h -1.699219" style="fill:#fff"/></svg>