<svg xmlns="http://www.w3.org/2000/svg" viewBox="0 0 48 48"><path d="m 43.257812 36.765625 c 17.257813 -24.445313 -14.613281 -49.214844 -34.949218 -29.296875 c -19.15625 18.765625 -1.394532 47.925781 22.441406 38.808594 c 4.976562 -1.898438 9.339844 -5.023438 12.507812 -9.511719" style="fill:#ff8c00"/><path d="m 17.984908 34.447266 c -1.873187 9.038221 5.321553 15.250582 16.398898 11.020287 c 5.96014 -2.582349 6.649813 -3.244926 9.348905 -3.697969 c 2.928983 -0.685229 3.737859 -5.804622 7.288399 -6.127416 c 3.542026 -0.322793 6.258147 -1.738555 2.443658 -4.479469 c -3.584599 -2.740914 -1.447463 -6.591785 -2.767208 -8.098155 c -4.521192 -2.418121 -4.427532 -9.508254 -18.042194 -9.887678 c -14.304335 0.079283 -11.562671 17.187344 -16.773536 15.6923 c -5.440756 -1.438414 -13.89564 -11.450679 -10.353614 -1.613968 c 3.55054 9.83671 -4.657424 16.445484 2.596918 12.413396 c 7.254341 -4.026426 9.178615 -5.453513 9.868288 -5.226991" transform="matrix(0.458777 0 0 0.689779 5.327063 5.340562)" style="fill:none;stroke:#fff;stroke-linecap:round;stroke-linejoin:round;stroke-width:8.125"/><g style="fill-rule:evenodd"><g style="fill:#fff"><path d="m 13.578125 29.101562 c -0.859375 6.234376 2.273437 9.851563 7.523437 7.601563 c 2.734376 -1.78125 3.050782 -2.238281 4.289063 -2.550781 c 1.34375 -0.472656 1.714844 -4.003906 3.34375 -4.226563 c 1.625 -0.222656 2.871094 -1.199219 1.121094 -3.089843 c -1.644531 -1.890626 -0.664063 -4.546876 -1.269531 -5.585938 c -2.074219 -1.667969 -2.03125 -6.558594 -8.277344 -6.820312 c -6.5625 0.054687 -5.304688 11.855468 -7.695313 10.824218 c -2.5 -0.992187 -6.378906 -7.898437 -4.75 -1.113281 c 1.625 6.785156 -2.140625 11.347656 1.191407 8.566406 c 3.328124 -2.78125 4.210937 -3.765625 4.523437 -3.605469"/><path d="m 36.471539 41.967218 c -5.229488 3.274727 -5.51563 5.053185 -3.088358 4.862871 c 6.729266 0 6.640463 0.183752 6.640463 0.183752" transform="matrix(0.395892 0 0 0.595231 12.740897 1.773717)" style="stroke:#fff;stroke-width:0.806"/></g><path d="m -12.853387 35.772144 c 0.148004 0.570945 0.246674 1.050013 0.522948 1.817835 c 1.766186 4.875995 1.036031 8.977607 0.276275 11.81264 c 9.284808 -5.663505 9.66962 -5.460065 -0.799223 -13.630475" transform="matrix(0.395892 0 0 0.595231 12.740897 1.773717)" style="fill:#ff8c00;stroke:#fff;stroke-width:0.806"/><path d="m 20.304688 14.433594 c -6.023438 0.1875 -5.363282 9.464844 -7.335938 11.167968 c 2.582031 -0.527343 1.972656 -3.695312 5.710938 -6.960937 c 2.90625 -2.519531 5.460937 -2.457031 6.53125 -2.28125 c -1.019532 -1.027344 -2.488282 -1.824219 -4.902344 -1.925781" style="fill:#fff"/></g><g style="stroke:#ff8c00"><g style="fill:none"><g transform="matrix(0.44772 0 0 0.673155 5.658758 6.309012)" style="stroke-width:1.921"><path d="m 44.368533 30.180253 c 1.090595 2.52426 3.577152 3.475936 5.208682 4.729362" style="stroke-linecap:round;stroke-linejoin:round"/><path d="m 55.632199 32.536229 c -6.02881 0.232116 -10.853602 -1.404301 -10.853602 -1.404301"/></g><path d="m 2.124656 45.911328 c -2.180598 10.473875 6.156982 17.673023 18.993895 12.770777 c 6.906871 -2.992536 7.706095 -3.760357 10.833921 -4.285364 c 3.394234 -0.794072 4.331595 -6.726642 8.446117 -7.100709 c 4.104654 -0.374067 7.252214 -2.008149 2.831817 -5.191 c -4.15399 -3.176288 -1.677383 -7.638841 -3.206762 -9.384487 c -5.239355 -2.80222 -5.130818 -11.018568 -20.908085 -11.458261 c -16.576491 0.091876 -13.39933 19.917425 -19.437909 18.178342 c -6.304986 -1.666895 -16.112743 -13.262971 -11.998222 -1.870335 c 4.114522 11.399198 -5.397226 19.06429 3.009423 14.391734 c 8.406649 -4.672556 10.636581 -6.319763 11.435805 -6.05726" transform="matrix(0.395892 0 0 0.595231 12.740897 1.773717)" style="stroke-linecap:round;stroke-linejoin:round;stroke-width:3.621"/></g><path d="m 67.056147 35.189807 c 0 -1.966548 -1.60186 -3.562315 -3.563608 -3.562315 c -1.968805 0 -3.563607 1.595767 -3.563607 3.562315 c 0 1.966548 1.594802 3.562315 3.563607 3.562315 c 1.961748 0 3.563608 -1.595767 3.563608 -3.562315" transform="matrix(0.553556 0 0 0.83228 -8.193551 -6.358085)" style="fill:#ff8c00;fill-rule:evenodd;stroke-linejoin:round;stroke-width:0.518"/></g><g style="fill:#fff;fill-rule:evenodd"><path d="m 28.117188 23.15625 c 0 -0.714844 -0.386719 -1.292969 -0.863282 -1.292969 c -0.472656 0 -0.859375 0.578125 -0.859375 1.292969 c 0 0.714844 0.386719 1.292969 0.859375 1.292969 c 0.476563 0 0.863282 -0.578125 0.863282 -1.292969"/><path d="m 40.191406 13.625 c -6.023437 0.1875 -5.363281 9.464844 -7.335937 11.167969 c 2.582031 -0.53125 1.972656 -3.695313 5.710937 -6.960938 c 2.90625 -2.519531 5.460938 -2.457031 6.53125 -2.28125 c -1.019531 -1.03125 -2.488281 -1.824219 -4.90625 -1.925781"/></g></svg>