<svg xmlns="http://www.w3.org/2000/svg" viewBox="0 0 48 48"><path d="m 11.28125 4.945312 c 24.550781 -17.257812 49.425781 14.617188 29.421875 34.949219 c -18.847656 19.15625 -48.128906 1.398438 -38.972656 -22.441406 c 1.90625 -4.972656 5.042969 -9.339844 9.550781 -12.507813" style="fill:#ff8c00"/><path d="m 10.296875 13.425781 v 20.179688 h 1.699219 v -20.179688 m 1.699218 0 v 14.125 h 1.703126 v -14.125 m 1.699218 0 v 20.179688 h 1.699219 v -20.179688 m 1.699219 0 v 20.179688 h 3.402344 v -20.179688 m 1.699218 0 v 20.179688 h 1.699219 v -6.054688 h 1.703125 v -14.125 m 1.699219 0 v 10.089844 h 1.699219 v -10.089844 m 1.703124 0 v 14.125 h 3.398438 v -14.125 m -5.101562 16.144531 v 4.035157 h -3.398438 v 2.019531 h 3.398438 v 4.035156 h 1.703124 v -4.035156 h 3.398438 v -2.019531 h -3.398438 v -4.035157" style="fill:#fff"/></svg>