<svg xmlns="http://www.w3.org/2000/svg" viewBox="0 0 48 48"><path d="m 4.683594 38.105469 c -23.992188 -36.085938 52.515625 -58.3125 42.386718 -11.664063 c -4.316406 19.28125 -31.386718 30.980469 -42.386718 11.664063" style="fill:#9370db"/><g style="fill:#fff"><path d="m 12.707031 12.503906 v 23.402344 h 22.992188 v -23.402344 m -21.078125 1.949219 h 19.164062 v 19.503906 h -19.164062 m 1.917968 -17.554687 v 3.902344 h 3.832032 v -3.902344 m 1.914062 0 v 3.902344 h 3.835938 v -3.902344 m 1.914062 0 v 3.902344 h 3.832032 v -3.902344 m -15.328126 5.851562 v 3.902344 h 3.832032 v -3.902344 m 1.914062 0 v 3.902344 h 3.835938 v -3.902344 m 1.914062 0 v 3.902344 h 3.832032 v -3.902344 m -15.328126 5.851563 v 3.898437 h 3.832032 v -3.898437 m 1.914062 0 v 3.898437 h 3.835938 v -3.898437"/><path d="m 31.722656 31.988281 h -3.65625 c -0.039062 0 -0.074218 -0.042969 -0.074218 -0.09375 v -3.867187 c 0 -0.050782 0.035156 -0.09375 0.074218 -0.09375 h 3.65625 c 0.039063 0 0.070313 0.042968 0.070313 0.09375 v 3.867187 c 0 0.050781 -0.03125 0.09375 -0.070313 0.09375"/></g></svg>