
<svg xmlns="http://www.w3.org/2000/svg" xmlns:xlink="http://www.w3.org/1999/xlink" width="48px" height="48px" viewBox="0 0 48 48" version="1.1">
<g id="surface1">
<path style=" stroke:none;fill-rule:nonzero;fill:rgb(0%,74.901961%,100%);fill-opacity:1;" d="M 36.355469 5.960938 C 78.863281 45.476562 -8.871094 70.375 0.804688 17.914062 C 5.578125 4.074219 22.707031 -6.726562 36.355469 5.960938 Z M 36.355469 5.960938 "/>
<path style="fill:none;stroke-width:0.979;stroke-linecap:round;stroke-linejoin:round;stroke:rgb(100%,100%,100%);stroke-opacity:1;stroke-miterlimit:4;" d="M 2.502319 3.492069 C 2.49668 8.503308 2.49386 13.503546 2.49104 18.512035 C 7.916152 18.48453 12.061119 18.457026 17.486231 18.437774 C 17.438296 14.449685 17.517248 8.888365 17.511608 4.506969 L 10.558216 4.506969 L 9.419055 3.492069 L 2.502319 3.494819 Z M 2.502319 3.492069 " transform="matrix(1.38534,0,0,1.420245,8.150625,10.106813)"/>
<path style=" stroke:none;fill-rule:nonzero;fill:rgb(100%,100%,100%);fill-opacity:1;" d="M 15.078125 18.628906 C 14.308594 18.628906 13.691406 19.261719 13.691406 20.046875 L 13.691406 35.671875 C 13.691406 36.457031 14.308594 37.089844 15.078125 37.089844 L 34.472656 37.089844 C 35.238281 37.089844 35.859375 36.457031 35.859375 35.671875 L 35.859375 20.046875 C 35.859375 19.261719 35.238281 18.628906 34.472656 18.628906 Z M 25.46875 21.46875 C 25.886719 21.46875 27.25 25.109375 27.589844 25.375 C 27.929688 25.640625 31.570312 25.917969 31.703125 26.351562 C 31.832031 26.78125 28.714844 29.027344 28.585938 29.460938 C 28.453125 29.890625 29.964844 33.984375 29.625 34.253906 C 29.28125 34.519531 25.886719 31.855469 25.46875 31.855469 C 25.046875 31.855469 21.652344 34.519531 21.3125 34.253906 C 20.96875 33.984375 22.480469 29.890625 22.351562 29.460938 C 22.21875 29.027344 19.101562 26.785156 19.234375 26.351562 C 19.363281 25.921875 23.003906 25.644531 23.347656 25.375 C 23.6875 25.109375 25.046875 21.46875 25.46875 21.46875 Z M 25.46875 21.46875 "/>
</g>
</svg>
