
<svg xmlns="http://www.w3.org/2000/svg" xmlns:xlink="http://www.w3.org/1999/xlink" width="48px" height="48px" viewBox="0 0 48 48" version="1.1">
<g id="surface1">
<path style=" stroke:none;fill-rule:nonzero;fill:rgb(0%,74.901961%,100%);fill-opacity:1;" d="M 46.449219 30.59375 C 55.410156 5.582031 23.203125 -6.582031 11.101562 3.601562 C -1 13.785156 -5.132812 31.238281 8.574219 40.015625 C 22.277344 48.796875 37.484375 55.609375 46.449219 30.59375 Z M 46.449219 30.59375 "/>
<path style=" stroke:none;fill-rule:nonzero;fill:rgb(100%,100%,100%);fill-opacity:1;" d="M 24.710938 9.90625 C 17.320312 9.90625 11.328125 15.898438 11.328125 23.289062 C 11.328125 30.679688 17.320312 36.671875 24.710938 36.671875 C 32.101562 36.671875 38.09375 30.679688 38.09375 23.289062 C 38.09375 15.898438 32.101562 9.90625 24.710938 9.90625 Z M 24.710938 12.878906 C 30.460938 12.878906 35.121094 17.539062 35.121094 23.289062 C 35.121094 29.035156 30.460938 33.695312 24.710938 33.695312 C 18.964844 33.695312 14.304688 29.035156 14.304688 23.289062 C 14.304688 17.539062 18.964844 12.878906 24.710938 12.878906 Z M 24.710938 12.878906 "/>
<path style=" stroke:none;fill-rule:nonzero;fill:rgb(100%,100%,100%);fill-opacity:1;" d="M 24.710938 15.855469 C 23.890625 15.855469 23.226562 16.519531 23.226562 17.339844 C 23.226562 18.160156 23.890625 18.828125 24.710938 18.828125 C 25.53125 18.828125 26.199219 18.160156 26.199219 17.339844 C 26.199219 16.519531 25.53125 15.855469 24.710938 15.855469 Z M 21.738281 20.316406 L 21.738281 21.800781 L 23.226562 21.800781 L 23.226562 27.75 L 21.738281 27.75 L 21.738281 29.234375 L 27.6875 29.234375 L 27.6875 27.75 L 26.199219 27.75 L 26.199219 20.316406 Z M 21.738281 20.316406 "/>
</g>
</svg>
