
<svg xmlns="http://www.w3.org/2000/svg" xmlns:xlink="http://www.w3.org/1999/xlink" width="32px" height="32px" viewBox="0 0 32 32" version="1.1">
<g id="surface1">
<path style=" stroke:none;fill-rule:nonzero;fill:rgb(100%,40%,0%);fill-opacity:1;" d="M 7.519531 3.296875 C 23.886719 -8.207031 40.472656 13.039062 27.136719 26.597656 C 14.570312 39.367188 -4.949219 27.527344 1.152344 11.636719 C 2.425781 8.320312 4.515625 5.410156 7.519531 3.296875 Z M 7.519531 3.296875 "/>
<path style=" stroke:none;fill-rule:nonzero;fill:rgb(100%,100%,100%);fill-opacity:1;" d="M 8.273438 11.597656 L 6.484375 11.597656 L 6.484375 23.777344 C 6.484375 24.738281 7.285156 25.515625 8.273438 25.515625 L 20.808594 25.515625 L 20.808594 23.777344 L 8.273438 23.777344 Z M 8.273438 11.597656 "/>
<path style=" stroke:none;fill-rule:nonzero;fill:rgb(100%,100%,100%);fill-opacity:1;" d="M 11.855469 8.117188 C 10.867188 8.117188 10.066406 8.894531 10.066406 9.855469 L 10.066406 20.296875 C 10.066406 21.257812 10.867188 22.035156 11.855469 22.035156 L 22.601562 22.035156 C 23.589844 22.035156 24.390625 21.257812 24.390625 20.296875 L 24.390625 9.855469 C 24.390625 8.894531 23.589844 8.117188 22.601562 8.117188 Z M 20.109375 10.726562 C 20.273438 10.714844 20.445312 10.75 20.597656 10.835938 C 21.007812 11.066406 21.148438 11.578125 20.914062 11.976562 C 20.675781 12.375 20.148438 12.511719 19.738281 12.28125 C 19.328125 12.050781 19.1875 11.542969 19.425781 11.140625 C 19.574219 10.894531 19.835938 10.746094 20.109375 10.726562 Z M 17.984375 11.617188 C 18.328125 11.617188 18.664062 11.660156 18.980469 11.746094 C 19.035156 12.082031 19.242188 12.390625 19.566406 12.574219 C 19.890625 12.757812 20.269531 12.773438 20.597656 12.65625 C 21.230469 13.261719 21.644531 14.085938 21.703125 15.007812 L 20.480469 15.023438 C 20.367188 13.777344 19.292969 12.800781 17.984375 12.800781 C 17.605469 12.800781 17.25 12.882812 16.925781 13.027344 L 16.332031 11.992188 C 16.828125 11.75 17.390625 11.617188 17.984375 11.617188 Z M 15.914062 12.226562 L 16.542969 13.246094 C 15.898438 13.6875 15.476562 14.414062 15.476562 15.238281 C 15.476562 16.066406 15.898438 16.792969 16.542969 17.234375 L 15.914062 18.253906 C 15.164062 17.765625 14.601562 17.023438 14.371094 16.148438 C 14.640625 15.933594 14.816406 15.605469 14.816406 15.238281 C 14.816406 14.875 14.640625 14.546875 14.371094 14.332031 C 14.601562 13.457031 15.164062 12.710938 15.914062 12.226562 Z M 13.609375 14.40625 C 14.082031 14.40625 14.46875 14.777344 14.46875 15.238281 C 14.46875 15.699219 14.082031 16.074219 13.609375 16.074219 C 13.136719 16.074219 12.75 15.699219 12.75 15.238281 C 12.75 14.777344 13.136719 14.40625 13.609375 14.40625 Z M 20.480469 15.457031 L 21.703125 15.472656 C 21.644531 16.390625 21.230469 17.21875 20.597656 17.824219 C 20.269531 17.703125 19.890625 17.722656 19.566406 17.90625 C 19.238281 18.089844 19.035156 18.398438 18.980469 18.730469 C 18.664062 18.816406 18.328125 18.863281 17.984375 18.863281 C 17.390625 18.863281 16.828125 18.730469 16.328125 18.488281 L 16.925781 17.449219 C 17.25 17.59375 17.605469 17.675781 17.984375 17.675781 C 19.292969 17.675781 20.367188 16.699219 20.480469 15.457031 Z M 20.226562 18.085938 C 20.503906 18.105469 20.765625 18.253906 20.914062 18.503906 C 21.148438 18.902344 21.007812 19.410156 20.597656 19.640625 C 20.1875 19.871094 19.664062 19.734375 19.425781 19.335938 C 19.1875 18.9375 19.328125 18.429688 19.738281 18.199219 C 19.894531 18.109375 20.0625 18.078125 20.226562 18.085938 Z M 20.226562 18.085938 "/>
</g>
</svg>
