
<svg xmlns="http://www.w3.org/2000/svg" xmlns:xlink="http://www.w3.org/1999/xlink" width="32px" height="32px" viewBox="0 0 32 32" version="1.1">
<g id="surface1">
<path style=" stroke:none;fill-rule:nonzero;fill:rgb(100%,27.058824%,0%);fill-opacity:1;" d="M 7.519531 3.296875 C 23.886719 -8.207031 40.472656 13.042969 27.136719 26.597656 C 14.570312 39.367188 -4.949219 27.527344 1.152344 11.636719 C 2.425781 8.320312 4.515625 5.410156 7.519531 3.296875 Z M 7.519531 3.296875 "/>
<path style=" stroke:none;fill-rule:nonzero;fill:rgb(100%,100%,100%);fill-opacity:1;" d="M 19.484375 10.84375 L 15.335938 17.53125 L 17.570312 18.644531 Z M 6.722656 14.558594 L 3.535156 17.53125 L 7.683594 16.785156 L 10.234375 26.445312 L 11.828125 25.332031 L 21.398438 26.445312 L 18.207031 19.386719 L 16.613281 19.015625 L 11.191406 22.730469 L 8.636719 15.300781 Z M 13.105469 17.53125 L 10.550781 19.386719 L 11.507812 21.988281 L 15.972656 19.015625 L 14.378906 17.53125 Z M 13.105469 17.53125 "/>
</g>
</svg>
