<svg xmlns="http://www.w3.org/2000/svg" viewBox="0 0 16 16"><path d="m 13.222656 13.722656 c 12.507813 -16.578125 -21.914062 -18.933594 -10.867187 -2.011718 c 2.519531 3.859374 7.554687 6.402343 10.867187 2.011718" style="fill:#ff8c00"/><g style="stroke:#fff;stroke-linecap:round;stroke-linejoin:round;stroke-width:5"><g transform="matrix(0.19323 0 0 -0.176788 2.20375 12.63375)" style="fill-rule:evenodd"><path d="m 5.616687 21.305533 c 0 -0.375627 0.303234 -0.684966 0.687329 -0.684966 h 16.051144 c 0.384095 0 0.687328 0.309339 0.687328 0.684966 v 16.063555 c 0 0.375626 -0.303233 0.684965 -0.687328 0.684965 h -16.051144 c -0.36388 0 -0.687329 -0.309339 -0.687329 -0.684965" style="fill:#ffe4c3"/><path d="m 32.624657 13.660429 c 0 -0.552391 0.444742 -0.994305 1.010777 -0.994305 h 19.730374 c 0.566035 0 1.010777 0.441914 1.010777 0.994305 v 23.465606 c 0 0.552392 -0.464958 0.994305 -1.010777 0.994305 h -19.730374 c -0.566035 0 -1.010777 -0.441913 -1.010777 -0.994305" style="fill:#fff"/></g><path d="m 4.491733 48.890656 h 48.759897" transform="matrix(0.19323 0 0 -0.176788 2.421125 12.826875)" style="fill:none"/></g></svg>