<svg xmlns="http://www.w3.org/2000/svg" viewBox="0 0 16 16"><path d="m 2.914062 2.414062 c -12.507812 16.578126 21.910157 18.933594 10.867188 2.007813 c -2.519531 -3.855469 -7.554688 -6.402344 -10.867188 -2.007813" style="fill:#ff8c00"/><g style="stroke-linecap:round;stroke-linejoin:round"><g transform="matrix(0.196754 0.126132 -0.113596 0.218467 5.707746 -1.626171)"><path d="m 34.691658 30.005076 c -0.001854 2.57583 -2.101383 4.682011 -4.687458 4.673144 c -2.593223 0.013139 -4.680731 -2.089486 -4.686619 -4.678726 c -0.005888 -2.58924 2.101383 -4.68201 4.679716 -4.686553 c 2.586075 0.008868 4.688473 2.102895 4.694361 4.692135" style="fill:none;stroke:#fff;stroke-width:6.416"/><path d="m 34.691658 30.005076 c -0.001854 2.57583 -2.101383 4.682011 -4.687458 4.673144 c -2.593223 0.013139 -4.680731 -2.089486 -4.686619 -4.678726 c -0.005888 -2.58924 2.101383 -4.68201 4.679716 -4.686553 c 2.586075 0.008868 4.688473 2.102895 4.694361 4.692135" style="fill:#ff8c00;stroke:#ff8c00;stroke-width:2.468"/></g><g transform="matrix(0.196754 0.126132 -0.113596 0.218467 2.232111 -4.241801)"><path d="m 34.685035 30.00177 c 0.005889 2.58924 -2.101383 4.68201 -4.679716 4.686553 c -2.600965 -0.000271 -4.688473 -2.102895 -4.694361 -4.692136 c 0.001854 -2.575829 2.101383 -4.68201 4.687458 -4.673143 c 2.593223 -0.013139 4.680731 2.089485 4.686619 4.678726" style="fill:none;stroke:#fff;stroke-width:6.416"/><path d="m 34.685035 30.00177 c 0.005889 2.58924 -2.101383 4.68201 -4.679716 4.686553 c -2.600965 -0.000271 -4.688473 -2.102895 -4.694361 -4.692136 c 0.001854 -2.575829 2.101383 -4.68201 4.687458 -4.673143 c 2.593223 -0.013139 4.680731 2.089485 4.686619 4.678726" style="fill:#fff;stroke:#ff8c00;stroke-width:2.468"/></g><g transform="matrix(0.196754 0.126132 -0.113596 0.218467 9.184637 0.988861)"><path d="m 34.686936 29.999789 c 0.005889 2.58924 -2.101383 4.682011 -4.679716 4.686553 c -2.600965 -0.00027 -4.688473 -2.102895 -4.694361 -4.692135 c 0.001854 -2.57583 2.101383 -4.682011 4.687458 -4.673143 c 2.578333 -0.004543 4.680731 2.089485 4.686619 4.678725" style="fill:none;stroke:#fff;stroke-width:6.416"/><path d="m 34.686936 29.999789 c 0.005889 2.58924 -2.101383 4.682011 -4.679716 4.686553 c -2.600965 -0.00027 -4.688473 -2.102895 -4.694361 -4.692135 c 0.001854 -2.57583 2.101383 -4.682011 4.687458 -4.673143 c 2.578333 -0.004543 4.680731 2.089485 4.686619 4.678725" style="fill:#fff;stroke:#ff8c00;stroke-width:2.468"/></g></g></svg>