<svg xmlns="http://www.w3.org/2000/svg" viewBox="0 0 16 16"><path d="m 9.742188 15.957031 c 0.945312 -0.082031 1.972656 -0.320312 2.730468 -0.632812 c 2.65625 -1.082031 3.890625 -3.28125 3.410156 -6.0625 c -0.261718 -1.492188 -1 -3.183594 -2.179687 -4.972657 c -1.410156 -2.132812 -3.585937 -3.75 -5.601563 -4.160156 c -0.425781 -0.0859372 -1.230468 -0.1171872 -1.65625 -0.0624998 c -1.4375 0.1796878 -2.632812 0.9570318 -3.726562 2.4218748 c -1.050781 1.402344 -1.828125 2.824219 -2.265625 4.152344 c -0.902344 2.726563 -0.3554688 5.160156 1.550781 6.917969 c 1.34375 1.238281 3.160156 2.027344 5.386719 2.34375 c 0.335937 0.046875 2.007813 0.085937 2.351563 0.054687" style="fill:#ff8c00"/><g style="fill:#fff;stroke:#fff"><path d="m 41.13767 23.904943 c 0 8.246776 -7.188957 14.930438 -16.081321 14.930438 c -8.863492 0 -16.052449 -6.683662 -16.052449 -14.930438 c 0 -8.219826 7.188957 -14.903488 16.052449 -14.903488 c 8.892364 0 16.081321 6.683662 16.081321 14.903488" transform="matrix(0.135299 0 0 0.144943 2.781784 3.011708)" style="fill-rule:evenodd;stroke-width:0.789"/><path d="m 380.155395 526.551324 c 0 0 1.825382 4.697448 5.368771 4.932832 l -0.493927 -2.691566 l 0.859004 3.162334 l -3.296426 1.095048" transform="matrix(0.363794 0 0 0.38169 -132.93875 -191.104375)" style="stroke-width:0.168"/><path d="m 28.25926 26.927522 l 2.31768 4.0187 l 2.326594 4.0187 h -9.288547 l 2.326594 -4.0187" transform="matrix(0.438208 0 0 0.459765 -1.969362 -3.602979)" style="fill-rule:evenodd;stroke-width:0.789"/></g></svg>