<svg xmlns="http://www.w3.org/2000/svg" viewBox="0 0 16 16"><path d="m 12.664062 14.371094 c -11.808593 7.886718 -19.085937 -17.269532 -3.816406 -13.9375 c 6.308594 1.417968 10.136719 10.316406 3.816406 13.9375" style="fill:#ff8c00"/><g style="stroke-linecap:round;stroke-linejoin:round"><path d="m 7.711312 4.694241 h 9.304287 c 1.303623 0 2.351633 0.973723 2.351633 2.222085 v 46.189399 c 0 1.223395 -1.04801 2.197118 -2.351633 2.197118 h -9.304287 c -1.329184 0 -2.377195 -0.973723 -2.377195 -2.197118 v -46.189399 c 0 -1.248362 1.048011 -2.222085 2.377195 -2.222085" transform="matrix(0.152819 0 0 0.156455 4.204375 3.3515)" style="fill:none;stroke:#fff;stroke-width:8.125"/><path d="m 5.794312 3.144883 h 9.304287 c 1.303623 0 2.351633 1.038315 2.351633 2.342866 v 49.280058 c 0 1.304551 -1.04801 2.36949 -2.351633 2.36949 h -9.304287 c -1.329184 0 -2.377195 -1.064939 -2.377195 -2.36949 v -49.280058 c 0 -1.304551 1.048011 -2.342866 2.377195 -2.342866" transform="matrix(0.152819 0 0 0.146722 4.49733 3.624514)" style="fill:#fff;stroke:#ff8c00;fill-rule:evenodd;stroke-width:3.227"/></g><path d="m 9.828125 7.367188 h 2.816406 c 0.25 0 0.441407 0.070312 0.578125 0.214843 c 0.140625 0.136719 0.210938 0.316407 0.210938 0.542969 c 0 0.230469 -0.070313 0.417969 -0.210938 0.558594 c -0.140625 0.140625 -0.332031 0.210937 -0.578125 0.210937 h -2.816406 c -0.242187 0 -0.4375 -0.066406 -0.582031 -0.207031 c -0.140625 -0.140625 -0.210938 -0.328125 -0.210938 -0.5625 c 0 -0.230469 0.070313 -0.410156 0.210938 -0.550781 c 0.140625 -0.136719 0.335937 -0.207031 0.582031 -0.207031" style="fill:#fff"/><g transform="matrix(0.152819 0 0 0.156455 4.204375 3.3515)" style="stroke-dasharray:1.875 1.875;fill:none;stroke:#ff8c00;stroke-linecap:round;stroke-linejoin:round;stroke-width:1.875"><path d="m 5.845342 21.671966 h 12.218267"/><path d="m 5.845342 38.325117 h 12.218267"/></g></svg>