<svg xmlns="http://www.w3.org/2000/svg" viewBox="0 0 16 16" xmlns:xlink="http://www.w3.org/1999/xlink"><defs><path id="0" d="m 6.65625 7.445312 v 0.507813 h 3.253906 v -1.015625 h -3.253906"/></defs><g style="fill:#fff"><path d="m 3.503906 4.03125 c -0.011718 0 -0.023437 0 -0.03125 0 c -0.167968 0.007812 -0.296875 0.140625 -0.304687 0.304688 c -0.003907 0.164062 0.117187 0.304687 0.28125 0.324218 c 0 0 2.339843 0.324219 3.996093 1.371094 c 0.828126 0.523438 1.464844 1.203125 1.621094 2.089844 c 0.144532 0.804687 -0.097656 1.832031 -1.054687 3.15625 h -0.714844 v 1.886718 h 1.90625 v -1.050781 c 1.496094 -0.246093 2.390625 -0.910156 2.875 -1.601562 c 0.613281 -0.867188 0.613281 -1.753907 0.613281 -1.753907 c 0 -0.175781 -0.140625 -0.316406 -0.316406 -0.316406 c -0.175781 0 -0.320312 0.140625 -0.320312 0.316406 c 0 0 0 0.6875 -0.496094 1.390626 c -0.375 0.53125 -1.128906 1.011718 -2.355469 1.234374 v -0.105468 h -0.523437 c 0.8125 -1.246094 1.175781 -2.351563 1.011718 -3.265625 c -0.199218 -1.117188 -0.988281 -1.9375 -1.90625 -2.511719 c -1.832031 -1.160156 -4.25 -1.464844 -4.25 -1.464844 c -0.011718 -0.003906 -0.023437 -0.003906 -0.03125 -0.003906" style="fill-opacity:0.501961"/><path d="m 7.3125 12.230469 v -0.914063 h 0.367188 c 0.363281 0 0.367187 -0.003906 0.582031 -0.335937 c 1.167969 -1.824219 1.15625 -3.195313 -0.046875 -4.351563 c -0.945313 -0.90625 -2.386719 -1.535156 -4.511719 -1.957031 c -0.464844 -0.09375 -0.589844 -0.242187 -0.398437 -0.480469 l 0.125 -0.15625 l 0.738281 0.15625 c 1.996093 0.414063 3.671875 1.203125 4.578125 2.152344 c 1.183594 1.234375 1.238281 2.59375 0.179687 4.4375 c -0.140625 0.246094 -0.257812 0.460938 -0.257812 0.480469 c 0 0.082031 0.726562 0.113281 1.011719 0.042969 c 0.507812 -0.121094 1.238281 -0.492188 1.582031 -0.796876 c 0.371093 -0.332031 0.707031 -0.960937 0.789062 -1.488281 c 0.066407 -0.414062 0.199219 -0.585937 0.40625 -0.519531 c 0.207031 0.066406 0.238281 0.300781 0.113281 0.792969 c -0.171874 0.683593 -0.425781 1.136719 -0.914062 1.617187 c -0.523438 0.523438 -1.203125 0.886719 -1.992188 1.066406 l -0.519531 0.117188 v 1.050781 h -1.832031"/></g><path d="m 13.152344 13.722656 c 12.507812 -16.578125 -21.910156 -18.933594 -10.863282 -2.011718 c 2.515626 3.859374 7.550782 6.402343 10.863282 2.011718" style="fill:#ff8c00"/><g style="fill:#faefe5"><g style="fill-opacity:0.501961"><path d="m 5.5 10.128906 h 3.324219 v -1.082031 h -3.324219"/><path d="m 6.609375 7.964844 h 3.324219 v -1.082032 h -3.324219"/><path d="m 7.71875 5.800781 h 3.324219 v -1.082031 h -3.324219"/><path d="m 3.890625 11.636719 l -0.03125 -0.253907 l 0.195313 -0.164062 l 0.0625 -0.007812 h 0.554687 l 0.230469 0.121093 l 0.027344 0.25 l -0.195313 0.164063 l -0.0625 0.007812 h -0.554687 m 1.433593 -0.117187 l -0.027343 -0.253907 l 0.195312 -0.164062 l 0.058594 -0.007812 h 0.554687 l 0.230469 0.121093 l 0.027344 0.25 l -0.195313 0.164063 l -0.0625 0.007812 h -0.554687 m 1.4375 -0.117187 l -0.03125 -0.253907 l 0.195312 -0.164062 l 0.0625 -0.007812 h 0.554688 l 0.226562 0.121093 l 0.03125 0.25 l -0.195312 0.164063 l -0.0625 0.007812 h -0.554688 m 1.433594 -0.117187 l -0.03125 -0.253907 l 0.199219 -0.164062 l 0.058593 -0.007812 h 0.554688 l 0.230469 0.121093 l 0.027343 0.25 l -0.195312 0.164063 l -0.0625 0.007812 h -0.554688 m 1.433594 -0.117187 l -0.027344 -0.253907 l 0.195313 -0.164062 l 0.0625 -0.007812 h 0.554687 l 0.226563 0.121093 l 0.03125 0.25 l -0.195313 0.164063 l -0.0625 0.007812 h -0.554687 m 1.386719 -0.8125 l 0.121094 -0.222656 l 0.257812 -0.027344 l 0.167969 0.191406 l 0.003906 0.058594 l -0.273437 0.542969 m -8.582032 -1.023437 l -0.007812 -0.058594 v -0.542969 l 0.121094 -0.222656 l 0.257812 -0.027344 l 0.167969 0.191406 l 0.007812 0.058594 v 0.542969 l -0.121093 0.222656 l -0.257813 0.027344 m 8.140625 -0.734375 l -0.003906 -0.058594 v -0.539063 l 0.121094 -0.226562 l 0.257812 -0.027344 l 0.167969 0.191406 l 0.003906 0.0625 v 0.539063 l -0.121094 0.222656 l -0.253906 0.03125 m -8.480469 -1.277343 l -0.007812 -0.058594 v -0.542969 l 0.121094 -0.222656 l 0.257812 -0.027344 l 0.167969 0.191406 l 0.007812 0.058594 v 0.542969 l -0.121093 0.222656 l -0.257813 0.027344 m 8.140625 -0.730469 l -0.003906 -0.0625 v -0.539063 l 0.121094 -0.226562 l 0.257812 -0.027344 l 0.167969 0.191406 l 0.003906 0.0625 v 0.539063 l -0.121094 0.226563 l -0.253906 0.027343 m -8.480469 -1.273437 l -0.007812 -0.0625 v -0.539063 l 0.121094 -0.226562 l 0.257812 -0.027344 l 0.167969 0.191406 l 0.007812 0.0625 v 0.539063 l -0.121093 0.226562 l -0.257813 0.027344 m 8.140625 -0.734375 l -0.003906 -0.058594 v -0.542969 l 0.121094 -0.222656 l 0.257812 -0.027344 l 0.167969 0.191407 l 0.003906 0.058593 v 0.542969 l -0.121094 0.222657 l -0.253906 0.027343 m -8.480469 -1.273437 l -0.007812 -0.0625 v -0.539063 l 0.121094 -0.222656 l 0.257812 -0.03125 l 0.167969 0.195313 l 0.007812 0.058593 v 0.539063 l -0.121093 0.226562 l -0.257813 0.027344 m 8.140625 -0.734375 l -0.003906 -0.058594 v -0.542969 l 0.121094 -0.222656 l 0.257812 -0.027344 l 0.167969 0.191407 l 0.003906 0.058593 v 0.542969 l -0.121094 0.222657 l -0.253906 0.027343 m -8.480469 -1.273437 l -0.007812 -0.058594 l 0.277344 -0.542969 l 0.277343 0.542969 l -0.121093 0.222656 l -0.257813 0.027344 m 0.980469 -0.640625 l -0.027344 -0.25 l 0.195312 -0.167969 l 0.0625 -0.003906 h 0.550782 l 0.230468 0.117188 l 0.027344 0.253906 l -0.195312 0.164062 l -0.0625 0.003906 h -0.550782 m 1.433594 -0.117187 l -0.03125 -0.25 l 0.195313 -0.167969 l 0.0625 -0.003906 h 0.554687 l 0.230469 0.117188 l 0.027344 0.253906 l -0.195313 0.164062 l -0.0625 0.003906 h -0.554687 m 1.433593 -0.117187 l -0.027343 -0.25 l 0.195312 -0.167969 l 0.0625 -0.003906 h 0.550781 l 0.230469 0.117188 l 0.027344 0.253906 l -0.195313 0.164062 l -0.0625 0.003906 h -0.550781 m 1.433594 -0.117187 l -0.03125 -0.25 l 0.195313 -0.167969 l 0.0625 -0.003906 h 0.554687 l 0.230469 0.117188 l 0.027344 0.253906 l -0.195313 0.164062 l -0.0625 0.003906 h -0.554687 m 1.433593 -0.117187 l -0.027343 -0.25 l 0.195312 -0.167969 l 0.0625 -0.003906 l 0.550781 0.269531 l -0.550781 0.269531"/></g><path d="m 7.742188 5.273438 v 0.507812 h 3.253906 v -1.015625 h -3.253906"/><use xlink:href="#0"/><path d="m 5.503906 9.613281 v 0.507813 h 3.320313 v -1.015625 h -3.320313"/><path d="m 7.261719 11.382812 c -0.203125 0.246094 0.46875 0.488282 0.824219 0.296876 c 0.15625 -0.085938 0.171874 -0.304688 0.023437 -0.363282 c -0.222656 -0.085937 -0.757813 -0.042968 -0.847656 0.066406"/><path d="m 8.9375 11.320312 c -0.089844 0.089844 -0.039062 0.289063 0.09375 0.363282 c 0.195312 0.105468 0.679688 0.054687 0.765625 -0.078125 c 0.140625 -0.226563 0.007813 -0.332031 -0.414063 -0.332031 c -0.21875 0 -0.417968 0.023437 -0.445312 0.046874"/><path d="m 10.582031 11.382812 c -0.203125 0.246094 0.46875 0.488282 0.824219 0.296876 c 0.160156 -0.085938 0.171875 -0.304688 0.023438 -0.363282 c -0.222657 -0.085937 -0.753907 -0.042968 -0.847657 0.066406"/><path d="m 12.238281 10.835938 c -0.039062 0.109374 0.097657 0.507812 0.175781 0.507812 c 0.027344 0 0.097657 -0.105469 0.15625 -0.230469 c 0.082032 -0.167969 0.089844 -0.25 0.035157 -0.304687 c -0.109375 -0.109375 -0.320313 -0.09375 -0.367188 0.027344"/><path d="m 12.214844 9.277344 c -0.140625 0.371094 -0.035156 0.777344 0.203125 0.777344 c 0.171875 0 0.273437 -0.195313 0.273437 -0.523438 c 0 -0.425781 -0.34375 -0.605469 -0.476562 -0.253906"/><path d="m 12.226562 7.652344 c -0.160156 0.347656 -0.054687 0.773437 0.191407 0.773437 c 0.171875 0 0.273437 -0.195312 0.273437 -0.523437 c 0 -0.421875 -0.308594 -0.589844 -0.464844 -0.25"/><path d="m 12.226562 6.023438 c -0.160156 0.347656 -0.054687 0.777343 0.191407 0.777343 c 0.171875 0 0.273437 -0.195312 0.273437 -0.523437 c 0 -0.425782 -0.308594 -0.59375 -0.464844 -0.253906"/><path d="m 12.226562 4.394531 c -0.160156 0.351563 -0.054687 0.777344 0.191407 0.777344 c 0.160156 0 0.273437 -0.191406 0.273437 -0.472656 c 0 -0.449219 -0.308594 -0.648438 -0.464844 -0.304688"/><path d="m 11.757812 3.183594 c -0.105468 0.042968 -0.109374 0.242187 -0.011718 0.339844 c 0.054687 0.054687 0.148437 0.042968 0.34375 -0.03125 l 0.273437 -0.105469 l -0.226562 -0.121094 c -0.246094 -0.132813 -0.253907 -0.132813 -0.378907 -0.082031"/><path d="m 10.058594 3.21875 c -0.210938 0.214844 0.007812 0.394531 0.476562 0.394531 c 0.164063 0 0.332032 -0.035156 0.378906 -0.082031 c 0.113282 -0.113281 0.101563 -0.300781 -0.027343 -0.351562 c -0.183594 -0.070313 -0.742188 -0.042969 -0.828125 0.039062"/><path d="m 8.4375 3.183594 c -0.109375 0.042968 -0.109375 0.242187 -0.003906 0.347656 c 0.105468 0.105469 0.679687 0.105469 0.785156 0 c 0.113281 -0.113281 0.101562 -0.300781 -0.027344 -0.351562 c -0.125 -0.046876 -0.632812 -0.046876 -0.753906 0.003906"/><path d="m 6.738281 3.21875 c -0.210937 0.214844 0.007813 0.394531 0.476563 0.394531 c 0.164062 0 0.332031 -0.035156 0.378906 -0.082031 c 0.113281 -0.113281 0.097656 -0.300781 -0.027344 -0.351562 c -0.1875 -0.070313 -0.742187 -0.042969 -0.828125 0.039062"/><path d="m 3.980469 3.675781 c -0.054688 0.109375 -0.085938 0.246094 -0.0625 0.304688 c 0.054687 0.140625 0.339843 0.140625 0.390625 0 c 0.039062 -0.09375 -0.121094 -0.503907 -0.195313 -0.503907 c -0.015625 0 -0.074219 0.089844 -0.132812 0.199219"/><path d="M 5.074219 3.183594 C 4.988281 3.269531 5.03125 3.53125 5.136719 3.574219 C 5.320312 3.644531 5.8125 3.617188 5.898438 3.53125 C 6.011719 3.417969 6 3.230469 5.871094 3.179688 C 5.726562 3.125 5.132812 3.128906 5.074219 3.183594 Z M 5.074219 3.183594 "/><path d="m 3.957031 4.847656 c -0.085937 0.085938 -0.109375 0.574219 -0.039062 0.761719 c 0.054687 0.136719 0.339843 0.136719 0.390625 0 c 0.023437 -0.058594 0.042968 -0.238281 0.042968 -0.394531 c 0 -0.28125 -0.089843 -0.449219 -0.238281 -0.449219 c -0.039062 0 -0.109375 0.039063 -0.15625 0.082031"/><path d="m 3.917969 6.5 c -0.054688 0.140625 -0.054688 0.597656 0 0.734375 c 0.054687 0.140625 0.339843 0.140625 0.390625 0 c 0.074218 -0.183594 0.046875 -0.675781 -0.039063 -0.757813 c -0.113281 -0.117187 -0.304687 -0.101562 -0.351562 0.023438"/><path d="m 3.917969 8.128906 c -0.070313 0.183594 -0.046875 0.675782 0.039062 0.757813 c 0.117188 0.117187 0.304688 0.101562 0.351563 -0.023438 c 0.074218 -0.1875 0.046875 -0.675781 -0.039063 -0.761719 c -0.113281 -0.113281 -0.304687 -0.101562 -0.351562 0.027344"/><path d="m 3.917969 9.753906 c -0.070313 0.1875 -0.046875 0.675782 0.039062 0.761719 c 0.117188 0.113281 0.304688 0.101563 0.351563 -0.027344 c 0.074218 -0.183593 0.046875 -0.675781 -0.039063 -0.757812 c -0.113281 -0.117188 -0.304687 -0.101563 -0.351562 0.023437"/><path d="m 3.9375 11.382812 c -0.203125 0.246094 0.46875 0.488282 0.824219 0.296876 c 0.160156 -0.085938 0.171875 -0.304688 0.023437 -0.363282 c -0.222656 -0.085937 -0.753906 -0.042968 -0.847656 0.066406"/><path d="m 5.617188 11.320312 c -0.09375 0.089844 -0.042969 0.289063 0.09375 0.363282 c 0.195312 0.105468 0.679687 0.054687 0.761718 -0.078125 c 0.140625 -0.226563 0.011719 -0.332031 -0.414062 -0.332031 c -0.21875 0 -0.417969 0.023437 -0.441406 0.046874"/><path d="m 5.503906 9.613281 v 0.507813 h 3.320313 v -1.015625 h -3.320313"/><use xlink:href="#0"/></g><g style="fill:#fff"><path d="m 7.742188 5.273438 v 0.507812 h 3.253906 v -1.015625 h -3.253906"/><use xlink:href="#0"/><path d="m 5.503906 9.613281 v 0.507813 h 3.320313 v -1.015625 h -3.320313"/><path d="m 7.507812 11.332031 c -0.4375 0.097657 -0.179687 0.371094 0.320313 0.335938 c 0.238281 -0.015625 0.289063 -0.046875 0.308594 -0.171875 c 0.011719 -0.09375 -0.015625 -0.152344 -0.070313 -0.15625 c -0.046875 0 -0.148437 -0.011719 -0.222656 -0.027344 c -0.074219 -0.011719 -0.226562 -0.003906 -0.335938 0.019531"/><path d="m 9.179688 11.328125 c -0.1875 0.019531 -0.222657 0.046875 -0.207032 0.171875 c 0.019532 0.113281 0.078125 0.152344 0.253906 0.167969 c 0.339844 0.035156 0.546876 -0.035157 0.546876 -0.183594 c 0 -0.140625 -0.203126 -0.191406 -0.597657 -0.15625"/><path d="m 10.832031 11.332031 c -0.441406 0.097657 -0.183593 0.371094 0.320313 0.335938 c 0.234375 -0.015625 0.289062 -0.046875 0.304687 -0.171875 c 0.015625 -0.09375 -0.011719 -0.152344 -0.066406 -0.15625 c -0.050781 0 -0.152344 -0.011719 -0.226563 -0.027344 c -0.074218 -0.011719 -0.222656 -0.003906 -0.332031 0.019531"/><path d="m 12.285156 10.949219 c 0 0.234375 0.09375 0.355469 0.183594 0.242187 c 0.144531 -0.171875 0.128906 -0.355468 -0.03125 -0.378906 c -0.121094 -0.015625 -0.152344 0.011719 -0.152344 0.136719"/><path d="m 12.285156 9.234375 c -0.078125 0.148437 -0.09375 0.480469 -0.027344 0.644531 c 0.042969 0.121094 0.265626 0.144532 0.332032 0.039063 c 0.074218 -0.121094 0.050781 -0.609375 -0.035156 -0.710938 c -0.113282 -0.136719 -0.183594 -0.128906 -0.269532 0.027344"/><path d="m 12.328125 7.578125 c -0.113281 0.113281 -0.148437 0.46875 -0.070313 0.675781 c 0.042969 0.117188 0.265626 0.144532 0.332032 0.039063 c 0.082031 -0.136719 0.046875 -0.625 -0.050782 -0.722657 c -0.089843 -0.089843 -0.113281 -0.089843 -0.210937 0.007813"/><path d="m 12.328125 5.953125 c -0.113281 0.109375 -0.148437 0.46875 -0.070313 0.671875 c 0.042969 0.121094 0.265626 0.144531 0.332032 0.039062 c 0.082031 -0.132812 0.046875 -0.625 -0.050782 -0.722656 c -0.089843 -0.089844 -0.113281 -0.085937 -0.210937 0.011719"/><path d="m 12.257812 4.398438 c -0.0625 0.15625 -0.050781 0.523437 0.019532 0.628906 c 0.03125 0.050781 0.113281 0.082031 0.183594 0.066406 c 0.136718 -0.027344 0.203124 -0.351562 0.132812 -0.640625 c -0.046875 -0.183594 -0.273438 -0.222656 -0.335938 -0.054687"/><path d="m 10.066406 3.316406 c -0.058594 0.160156 0.105469 0.234375 0.488282 0.214844 c 0.292968 -0.015625 0.339843 -0.039062 0.359374 -0.171875 c 0.019532 -0.144531 0 -0.152344 -0.390624 -0.152344 c -0.316407 0 -0.421876 0.027344 -0.457032 0.109375"/><path d="m 8.429688 3.359375 c 0.019531 0.136719 0.0625 0.152344 0.394531 0.152344 c 0.335937 0 0.375 -0.015625 0.394531 -0.152344 c 0.023438 -0.144531 0 -0.152344 -0.394531 -0.152344 c -0.390625 0 -0.414063 0.007813 -0.394531 0.152344"/><path d="m 6.746094 3.316406 c -0.0625 0.160156 0.105468 0.234375 0.488281 0.214844 c 0.292969 -0.015625 0.339844 -0.039062 0.359375 -0.171875 c 0.019531 -0.144531 -0.003906 -0.152344 -0.390625 -0.152344 c -0.320313 0 -0.425781 0.027344 -0.457031 0.109375"/><path d="m 5.097656 3.378906 c 0 0.167969 0.011719 0.171875 0.390625 0.152344 c 0.34375 -0.015625 0.390625 -0.035156 0.410157 -0.171875 c 0.019531 -0.144531 0 -0.152344 -0.390626 -0.152344 c -0.394531 0 -0.410156 0.007813 -0.410156 0.171875"/><path d="m 4.015625 3.707031 c -0.105469 0.273438 -0.089844 0.3125 0.105469 0.3125 c 0.160156 0 0.171875 -0.019531 0.132812 -0.183593 c -0.074218 -0.289063 -0.160156 -0.335938 -0.238281 -0.125"/><path d="m 3.992188 4.875 c -0.027344 0.027344 -0.046876 0.210938 -0.046876 0.410156 c 0 0.335938 0.011719 0.363282 0.160157 0.363282 c 0.132812 0 0.167969 -0.042969 0.1875 -0.226563 c 0.015625 -0.125 0.011719 -0.296875 -0.011719 -0.390625 c -0.039062 -0.160156 -0.195312 -0.246094 -0.289062 -0.15625"/><path d="m 3.945312 6.863281 c 0 0.394531 0.007813 0.410157 0.171876 0.410157 c 0.167968 0 0.171874 -0.011719 0.152343 -0.386719 c -0.015625 -0.347657 -0.039062 -0.394531 -0.171875 -0.414063 c -0.144531 -0.019531 -0.152344 0.003906 -0.152344 0.390625"/><path d="m 3.957031 8.472656 c 0.019531 0.355469 0.039063 0.398438 0.175781 0.417969 c 0.152344 0.019531 0.15625 0.003906 0.136719 -0.375 c -0.019531 -0.351563 -0.035156 -0.394531 -0.175781 -0.414063 c -0.148438 -0.023437 -0.15625 -0.007812 -0.136719 0.371094"/><path d="m 3.957031 10.101562 c 0.019531 0.351563 0.039063 0.394532 0.175781 0.414063 c 0.152344 0.023437 0.15625 0.007813 0.136719 -0.371094 c -0.019531 -0.355469 -0.035156 -0.398437 -0.175781 -0.417969 c -0.148438 -0.019531 -0.15625 -0.003906 -0.136719 0.375"/><path d="m 4.1875 11.332031 c -0.441406 0.097657 -0.179688 0.371094 0.320312 0.335938 c 0.234376 -0.015625 0.289063 -0.046875 0.304688 -0.171875 c 0.015625 -0.09375 -0.011719 -0.152344 -0.066406 -0.15625 c -0.050782 0 -0.152344 -0.011719 -0.226563 -0.027344 c -0.074219 -0.011719 -0.222656 -0.003906 -0.332031 0.019531"/><path d="m 5.855469 11.328125 c -0.1875 0.019531 -0.21875 0.046875 -0.203125 0.171875 c 0.015625 0.113281 0.074218 0.152344 0.25 0.167969 c 0.339844 0.035156 0.550781 -0.035157 0.550781 -0.183594 c 0 -0.140625 -0.207031 -0.191406 -0.597656 -0.15625"/><path d="m 12.316406 4.394531 c -0.019531 0.054688 -0.046875 0.148438 -0.066406 0.207031 c -0.058594 0.183594 0.039062 0.4375 0.167969 0.4375 c 0.226562 0 0.25 -0.621093 0.027343 -0.707031 c -0.054687 -0.019531 -0.113281 0.007813 -0.128906 0.0625"/><use xlink:href="#0"/></g></svg>