<svg xmlns="http://www.w3.org/2000/svg" viewBox="0 0 16 16"><path d="m 0.0507812 6.265625 c 0.0859378 -0.941406 0.3242188 -1.96875 0.6328128 -2.730469 c 1.085937 -2.652344 3.285156 -3.890625 6.0625 -3.40625 c 1.496094 0.257813 3.183594 1 4.972656 2.179688 c 2.132812 1.410156 3.75 3.585937 4.160156 5.601562 c 0.089844 0.425782 0.117188 1.226563 0.066406 1.65625 c -0.183593 1.433594 -0.957031 2.628906 -2.421874 3.726563 c -1.402344 1.050781 -2.828126 1.828125 -4.152344 2.265625 c -2.726563 0.902344 -5.160156 0.355468 -6.921875 -1.554688 c -1.238281 -1.339844 -2.027344 -3.15625 -2.339844 -5.386718 c -0.046875 -0.332032 -0.0898438 -2.007813 -0.0585938 -2.351563" style="fill:#ffd600"/><path d="m 6.699219 3.710938 c -1.953125 0 -3.523438 1.460937 -3.523438 3.28125 c 0 1.816406 1.570313 3.277343 3.523438 3.277343 c 1.949219 0 3.523437 -1.460937 3.523437 -3.277343 c 0 -1.820313 -1.574218 -3.28125 -3.523437 -3.28125 m 0 1.191406 c 1.242187 0 2.242187 0.929687 2.242187 2.089844 c 0 1.15625 -1 2.085937 -2.242187 2.085937 c -1.242188 0 -2.242188 -0.929687 -2.242188 -2.085937 c 0 -1.160157 1 -2.089844 2.242188 -2.089844 m 2.902343 4.054687 l -0.902343 0.84375 l 2.613281 2.4375 l 0.90625 -0.84375" style="fill:#fff;fill-rule:evenodd"/></svg>