<svg xmlns="http://www.w3.org/2000/svg" viewBox="0 0 16 16"><path d="m 3.433594 14.371094 c 11.808594 7.886718 19.082031 -17.269532 3.816406 -13.9375 c -6.3125 1.417968 -10.140625 10.316406 -3.816406 13.9375" style="fill:#ff8c00"/><g style="stroke-linejoin:round"><path d="m 26.022541 10.788096 c -3.036147 0.41415 10.262679 10.432636 6.247939 20.115859 l -0.250921 0.8283 c -0.125461 -3.293479 -0.677488 -6.744729 -2.609581 -8.598544 c -0.301106 9.407122 -2.534305 9.762108 -2.735042 9.78183 c -0.401474 -0.709972 -0.82804 -1.104401 -1.229514 -1.912979 c -1.580804 -3.096265 -1.229514 -6.981387 -1.53062 -8.223837 c -0.602211 -4.00345 -3.864187 1.893258 -5.419899 8.440773 c -1.957185 -1.597436 -4.1402 -6.05448 -7.101071 -10.531244 c -3.512897 -5.324786 -3.738727 3.845679 -3.31216 7.257486 c 0.225829 2.977936 2.358659 9.032415 2.358659 9.032415 c 0 0 0 0.019722 -2.96087 -1.479107 c -2.985963 -1.479107 -3.412529 -0.650807 -3.412529 -0.118329 l 7.427269 9.150744 c -1.480436 1.3805 -4.566767 -0.315543 -4.566767 1.064957 c 0 1.360779 4.993333 8.302722 16.234605 9.131022 v 0.019722 c 0.025092 -0.078886 17.112829 2.051029 22.833833 -1.360779 c 2.735042 -0.986071 6.448676 -5.916429 7.126164 -7.356093 c 0.978593 -1.991865 1.555712 -3.470972 -2.283384 -2.346851 c -3.31216 0.907186 3.161608 -1.636878 4.667136 -7.218043 c 1.505527 -5.561443 -0.978593 0.059164 -4.215477 0.13805 c 2.333567 -7.434979 -1.731357 -15.44188 -2.634673 -15.284109 c -0.250922 0.098608 -1.154238 4.299272 -2.057555 7.98718 c -1.907001 -3.155429 -9.760836 -15.599652 -18.166698 -18.104273 c -1.204422 -0.374707 -1.982278 -0.473315 -2.408844 -0.41415" transform="matrix(0.155676 0 0 0.198071 3.5075 1.371)" style="fill:none;stroke:#fff;stroke-width:8.327"/><g transform="matrix(0.148316 0 0 0.188706 3.71 1.673437)" style="fill:#fff;stroke:#ff8c00;fill-rule:evenodd;stroke-width:3.362"><path d="m 32.506534 30.834949 c 4.819724 -11.633486 -14.090449 -23.701675 -4.029605 -20.679453 c 10.060844 3.022222 19.91099 20.348251 19.91099 20.348251 l -3.134137 16.994825 l -16.882202 -2.235616"/><g style="stroke-linecap:round"><path d="m 23.446507 55.882134 c -12.194164 -0.662405 -17.540634 -8.15586 -17.540634 -9.604871 c 0 -1.469711 3.239487 0.331203 4.793387 -1.117808 l -7.822175 -9.625571 c 0 -0.558904 0.447734 -1.449011 3.581872 0.103501 c 3.134137 1.573211 3.134137 1.573211 3.134137 1.573211 c -2.23867 -6.375647 -2.475705 -9.50137 -0.447734 -3.581126 c -0.237036 -13.185998 3.450185 -7.596957 3.68722 5.589041 c 6.268275 11.405784 8.612293 11.861188 2.344019 0.455403 c 2.581054 0 2.923439 -10.287976 4.688037 4.471233 c 2.370356 17.657231 2.370356 17.657231 2.370356 17.657231 l -8.401595 15.545815"/><path d="m 46.913031 54.412423 c -5.978564 3.581127 -23.966932 1.34551 -23.993269 1.428311 l 1.237852 -3.374125 l -3.213149 -3.394825 l 0.210698 -4.823136 l 4.793387 2.173516 c -3.081463 -5.775342 -8.664968 -7.079452 -8.74398 -8.010959 c -0.447734 -8.383562 5.688854 -21.817961 6.531648 -16.104719 c 0.316047 1.30411 -0.026338 5.36134 1.606574 8.611264 c 5.583505 11.074582 12.404863 12.502892 14.933242 11.902588 c 5.557168 0.310502 8.74398 -21.776561 9.42875 -22.045663 c 0.948142 -0.165602 5.214783 8.259361 2.765415 16.042618 c 3.39751 -0.0828 6.004902 -6.003044 4.424664 -0.165601 c -1.580237 5.858143 -8.375257 8.549163 -4.898735 7.596956 c 4.029605 -1.179908 3.423847 0.351903 2.396693 2.463318 c -0.711107 1.490412 -4.582688 6.68615 -7.453453 7.700457"/></g></g></g></svg>