<svg xmlns="http://www.w3.org/2000/svg" viewBox="0 0 16 16"><path d="m 14.351562 12.238281 c 5.753907 -8.179687 -4.871093 -16.472656 -11.648437 -9.804687 c -6.386719 6.28125 -0.464844 16.042968 7.480469 12.992187 c 1.65625 -0.636719 3.113281 -1.683593 4.167968 -3.1875" style="fill:#ff8c00"/><g transform="matrix(0.153579 0 0 0.164689 3.325 3.126875)" style="stroke-linecap:round;stroke-linejoin:round"><path d="m 8.03229 12.844259 h 43.925791 c 1.348041 0 2.4163 1.138508 2.4163 2.537923 v 29.221686 c 0 1.399415 -1.068259 2.537922 -2.4163 2.537922 h -43.925791 c -1.322606 0 -2.4163 -1.138507 -2.4163 -2.537922 v -29.221686 c 0 -1.399415 1.093694 -2.537923 2.4163 -2.537923" style="fill:none;stroke:#fff;stroke-width:7.824"/><path d="m 8.03229 12.844259 h 43.925791 c 1.348041 0 2.4163 1.138508 2.4163 2.537923 v 29.221686 c 0 1.399415 -1.068259 2.537922 -2.4163 2.537922 h -43.925791 c -1.322606 0 -2.4163 -1.138507 -2.4163 -2.537922 v -29.221686 c 0 -1.399415 1.093694 -2.537923 2.4163 -2.537923" style="fill:#fff;stroke:#ff8c00;stroke-width:3.01"/></g></svg>