<svg xmlns="http://www.w3.org/2000/svg" viewBox="0 0 16 16"><path d="m 12.238281 1.648438 c -8.183593 -5.753907 -16.472656 4.871093 -9.804687 11.648437 c 6.28125 6.386719 16.042968 0.46875 12.988281 -7.480469 c -0.632813 -1.65625 -1.679687 -3.113281 -3.183594 -4.167968" style="fill:#ff8c00"/><g style="fill:#fff"><path d="m 4.070312 5.671875 h 7.113282 v -0.746094 h -7.113282"/><path d="m 4.070312 10.507812 h 7.113282 v -0.742187 h -7.113282"/><path d="m 4.070312 8.089844 h 7.113282 v -0.742188 h -7.113282"/><path d="m 7.832031 13.710938 c 0.128907 -0.058594 1.164063 -1.023438 2.304688 -2.144532 c 2.042969 -2.011718 2.070312 -2.035156 2.460937 -2.089844 c 0.957032 -0.125 1.613282 -0.710937 1.800782 -1.605468 c 0.058593 -0.28125 -0.015626 -0.824219 -0.117188 -0.824219 c -0.035156 0 -0.328125 0.253906 -0.65625 0.558594 c -0.324219 0.308593 -0.636719 0.558593 -0.691406 0.558593 c -0.257813 0 -0.917969 -0.660156 -0.917969 -0.917968 c 0 -0.074219 0.269531 -0.425782 0.59375 -0.785156 c 0.558594 -0.609376 0.582031 -0.652344 0.410156 -0.703126 c -0.652343 -0.1875 -1.464843 0.070313 -1.933593 0.613282 c -0.339844 0.394531 -0.476563 0.742187 -0.476563 1.199218 v 0.363282 l -4.242187 4.257812 l -0.042969 0.421875 c -0.03125 0.347657 -0.007813 0.464844 0.144531 0.691407 c 0.320312 0.472656 0.871094 0.636718 1.363281 0.40625 m -0.695312 -0.4375 c -0.457031 -0.175782 -0.457031 -0.816407 0 -1.007813 c 0.234375 -0.101563 0.296875 -0.101563 0.492187 0.003906 c 0.488282 0.257813 0.316406 1.023438 -0.242187 1.074219 c -0.027344 0.003906 -0.140625 -0.027344 -0.25 -0.070312"/></g></svg>