<svg xmlns="http://www.w3.org/2000/svg" viewBox="0 0 16 16"><path d="m 14.269531 12.246094 c 5.703125 -8.109375 -4.824219 -16.324219 -11.539062 -9.714844 c -6.328125 6.222656 -0.464844 15.894531 7.410156 12.871094 c 1.644531 -0.632813 3.085937 -1.667969 4.128906 -3.15625" style="fill:#9acd31"/><g style="fill:none"><g style="stroke:#fff;stroke-width:0.246"><g transform="matrix(0.317734 0 0 0.32008 18.797211 3.089806)"><path d="m -46.239126 0.354034 v 31.254361"/><path d="m -40.239611 0.354034 v 31.254361"/><path d="m -34.240096 0.354034 v 31.254361"/><path d="m -28.24058 0.354034 v 31.254361"/><path d="m -22.241065 0.354034 v 31.254361"/><path d="m -49.878177 27.788553 h 31.251574"/><path d="m -49.878177 21.784201 l 31.251574 0.012204"/><path d="m -49.878177 15.792053 h 31.251574"/><path d="m -49.878177 9.787701 h 31.251574"/><path d="m -49.878177 3.783349 l 31.251574 0.012204"/></g><g transform="matrix(0.317734 0 0 0.32008 18.751942 3.021756)"><path d="m -46.244179 0.346963 v 31.254361"/><path d="m -40.244664 0.346963 v 31.254361"/><path d="m -34.245148 0.346963 v 31.254361"/><path d="m -28.245633 0.346963 v 31.254361"/><path d="m -22.246118 0.346963 v 31.254361"/><path d="m -49.870935 27.781482 l 31.23928 0.012204"/><path d="m -49.870935 21.789334 h 31.23928"/><path d="m -49.870935 15.784982 h 31.23928"/><path d="m -49.870935 9.792834 h 31.23928"/><path d="m -49.870935 3.788482 h 31.23928"/></g></g><path d="m -20.246054 33.73206 c -0.748985 0.02675 -1.484595 0.0535 -2.23358 0.066875 c -0.25412 0 -0.494865 0.013375 -0.748985 0 c -1.431096 -0.0535 -2.848817 -0.628622 -3.918795 -1.578242 c -1.337473 -0.361123 -2.795318 -0.187249 -4.025794 0.454748 c -1.110102 0.588497 -2.006209 1.551491 -2.501074 2.701735 c -0.508239 1.150244 -0.615237 2.460987 -0.294244 3.678105 c 0.093623 0.374498 0.227371 0.748996 0.468116 1.056619 c 0.307618 0.401248 0.762359 0.668747 1.243849 0.842621 c 0.468116 0.173874 0.976356 0.280873 1.457846 0.427997 c 0.494865 0.147125 0.976355 0.347748 1.350847 0.695497 c 0.200621 0.160499 0.361118 0.361123 0.468116 0.601871 c 0.106998 0.227374 0.160497 0.481498 0.147122 0.735621 c -0.026749 0.374498 -0.213996 0.708871 -0.454741 1.00312 c -0.22737 0.280873 -0.508239 0.534997 -0.762359 0.802495 c -0.815859 0.855996 -1.404347 1.966115 -1.538094 3.143108 c -0.147122 1.176994 0.187246 2.420862 0.976355 3.316982 c 0.829233 0.936245 2.086458 1.404368 3.330308 1.551492 c 1.243849 0.147124 2.487699 0 3.744924 -0.107 c 1.845712 -0.160499 3.718174 -0.227373 5.537137 -0.641996 c 0.802484 -0.173874 1.578218 -0.414623 2.300454 -0.775746 c 0.73561 -0.361123 1.404346 -0.84262 1.92596 -1.471242 c 0.521615 -0.615247 0.882733 -1.390992 0.962981 -2.193488 c 0.093623 -0.815871 -0.120373 -1.658491 -0.615238 -2.300487 c -0.561738 -0.722246 -1.417721 -1.136869 -2.046333 -1.805616 c -0.374492 -0.387872 -0.655362 -0.86937 -1.029854 -1.270618 c -0.294244 -0.320998 -0.655362 -0.588496 -0.936231 -0.92287 c -0.147122 -0.160499 -0.267495 -0.347748 -0.361118 -0.548372 c -0.080248 -0.200624 -0.133747 -0.414622 -0.106998 -0.628621 c 0.013375 -0.200624 0.093623 -0.387873 0.187247 -0.548372 c 0.106997 -0.160499 0.240745 -0.294249 0.387867 -0.414623 c 0.294244 -0.254124 0.655361 -0.401248 1.016479 -0.548372 c 0.909482 -0.361123 1.832338 -0.695496 2.701695 -1.123494 c 0.668737 -0.334373 1.310724 -0.722246 1.872462 -1.203743 c 0.414617 -0.361123 0.815859 -0.775746 1.029854 -1.270618 c 0.133748 -0.334374 0.200621 -0.695497 0.187247 -1.05662" transform="matrix(0.292062 0 0 0.292058 14.213884 -3.730613)" style="stroke:#001be7;stroke-width:0.874"/><g transform="matrix(0.10837 0 0 0.133441 19.546058 7.119323)" style="stroke:#f00;stroke-width:3"><path d="m -85.09613 -12.925501 l 14.778697 11.328743"/><path d="m -70.605798 -13.01332 l -14.778697 11.328742"/></g></g></svg>