<svg xmlns="http://www.w3.org/2000/svg" viewBox="0 0 16 16" xmlns:xlink="http://www.w3.org/1999/xlink"><path d="m 14.351562 12.238281 c 5.753907 -8.179687 -4.871093 -16.472656 -11.648437 -9.804687 c -6.386719 6.28125 -0.464844 16.042968 7.480469 12.992187 c 1.65625 -0.636719 3.113281 -1.683593 4.167968 -3.1875" style="fill:#dc133c"/><path d="m 4.714844 12.101562 v -0.503906 h 6.910156 v 0.503906 m -6.910156 -1.511718 v -0.507813 h 6.910156 v 0.507813 m -6.910156 -1.515625 v -0.503907 h 6.910156 v 0.503907 m -3.886719 -1.511719 v -0.503906 h 3.886719 v 0.503906" style="fill:#fff"/><path d="m 4.039062 4.8125 h 2.496094 c 0.507813 0 0.921875 0.257812 0.921875 0.578125 c 0 0.316406 -0.414062 0.574219 -0.921875 0.574219 h -2.496094 c -0.507812 0 -0.921874 -0.257813 -0.921874 -0.574219 c 0 -0.320313 0.414062 -0.578125 0.921874 -0.578125" id="0" style="fill:#fff;fill-rule:evenodd"/><use xlink:href="#0"/></svg>