<svg xmlns="http://www.w3.org/2000/svg" viewBox="0 0 16 16"><path d="m 7.859375 15.863281 c -6.996094 1.394531 -9.652344 -8.183593 -6.621094 -13.386719 c 2.414063 -4.148437 10.6875 -2.960937 13.773438 2.632813 c 3.082031 5.597656 -1.539063 9.632813 -7.152344 10.753906" style="fill:#ff8c00"/><path d="m 58.8125 61.4375 v 17.0625 h -8.25 v 25.5625 h 8.25 v 51.125 h -8.25 v 25.5625 h 8.25 v 17.0625 h 16.5 v -8.5 h -8.25 v -119.375 h 107.3125 v 17.0625 h 8.25 v -25.5625 m -49.5 34.0625 c -27.375 0 -49.5625 7.6875 -49.5625 17.0625 v 68.1875 c 0 9.4375 22.1875 17.0625 49.5625 17.0625 c 27.375 0 49.5 -7.625 49.5 -17.0625 v -68.1875 c 0 -9.375 -22.125 -17.0625 -49.5 -17.0625 m 0 8.5625 c 22.8125 0 41.25 3.8125 41.25 8.5 c 0 4.75 -18.4375 8.5625 -41.25 8.5625 c -22.8125 0 -41.25 -3.8125 -41.25 -8.5625 c 0 -4.6875 18.4375 -8.5 41.25 -8.5 m -41.25 17.875 c 9.125 4.8125 24.625 7.6875 41.25 7.6875 c 16.625 0 32.125 -2.875 41.25 -7.625 v 24.6875 c 0 4.6875 -18.4375 8.5 -41.25 8.5 c -22.8125 0 -41.25 -3.8125 -41.25 -8.5 m 0 9.375 c 9.125 4.8125 24.625 7.6875 41.25 7.6875 c 16.625 0 32.125 -2.875 41.25 -7.6875 v 24.6875 c 0 4.75 -18.4375 8.5625 -41.25 8.5625 c -22.8125 0 -41.25 -3.8125 -41.25 -8.5625" transform="scale(0.0625)" style="fill:#fff;stroke:#fff"/></svg>