<svg xmlns="http://www.w3.org/2000/svg" viewBox="0 0 16 16"><path d="m 7.617188 0.277344 c -21.503907 9.640625 10.046874 26.96875 8.257812 5.488281 c -0.417969 -3.234375 -3.734375 -6.628906 -8.257812 -5.488281" style="fill:#ff8c00"/><path d="m 6.367188 4.03125 c -0.097657 0.003906 -0.191407 0.039062 -0.261719 0.097656 l -1.546875 1.332032 c -0.148438 0.125 -0.15625 0.332031 -0.023438 0.472656 l 1.53125 1.582031 c 0.105469 0.109375 0.28125 0.148437 0.4375 0.097656 c 0.152344 -0.050781 0.253906 -0.179687 0.253906 -0.324219 v -0.6875 c 0.035157 -0.003906 0.054688 -0.007812 0.09375 -0.011718 c 0.242188 -0.015625 0.582032 -0.011719 0.960938 0.074218 c 0.761719 0.175782 1.707031 0.648438 2.453125 2.054688 c 0.078125 0.152344 0.273437 0.234375 0.460937 0.1875 c 0.183594 -0.046875 0.304688 -0.203125 0.285157 -0.375 c -0.292969 -2.066406 -1.484375 -3.019531 -2.59375 -3.367188 c -0.699219 -0.214843 -1.25 -0.207031 -1.644531 -0.175781 v -0.613281 c 0 -0.09375 -0.042969 -0.183594 -0.117188 -0.25 c -0.078125 -0.066406 -0.183594 -0.097656 -0.289062 -0.09375 m 5.46875 4.757812 c -0.121094 0.019532 -0.203126 0.109376 -0.203126 0.214844 l 0.003907 0.898438 h -6.964844 c -0.136719 0 -0.246094 0.097656 -0.246094 0.214844 v 0.726562 c 0 0.117188 0.109375 0.214844 0.246094 0.214844 h 6.964844 l 0.007812 0.902344 c 0 0.089843 0.0625 0.167968 0.15625 0.199218 c 0.09375 0.03125 0.203125 0.007813 0.269531 -0.058594 l 1.523438 -1.496093 c 0.085938 -0.085938 0.085938 -0.214844 0 -0.296875 l -1.539062 -1.453125 c -0.054688 -0.054688 -0.136719 -0.078125 -0.21875 -0.066407" style="fill:#fffafa;fill-rule:evenodd"/></svg>