<svg xmlns="http://www.w3.org/2000/svg" viewBox="0 0 16 16"><path d="m 6.304688 15.871094 c -0.082032 -0.015625 -0.429688 -0.066406 -0.773438 -0.121094 c -0.800781 -0.121094 -1.828125 -0.425781 -2.457031 -0.730469 c -1.050781 -0.507812 -2 -1.40625 -2.453125 -2.316406 c -0.410156 -0.824219 -0.5234378 -1.320313 -0.5234378 -2.308594 c 0 -1.195312 0.2148438 -2.09375 0.8320318 -3.496093 c 0.730468 -1.664063 1.703124 -3.132813 2.804687 -4.234376 c 1.585937 -1.585937 3.074219 -2.386718 4.761719 -2.5625 c 1.382812 -0.1445308 2.570312 0.214844 3.671875 1.105469 c 1.164062 0.9375 2.890625 3.609375 3.480469 5.386719 c 0.3125 0.933594 0.355468 0.964844 0.355468 2.210938 c 0 1.070312 -0.007812 1.46875 -0.152344 1.925781 c -0.324218 1.019531 -0.871093 1.902343 -1.621093 2.617187 c -1.46875 1.398438 -3.664063 2.308594 -6.050781 2.5 c -0.699219 0.058594 -1.578126 0.066406 -1.875 0.023438" style="fill:#9acd31"/><path d="m 8.238281 3.808594 c -2.644531 0 -4.789062 2.101562 -4.789062 4.691406 c 0 2.589844 2.144531 4.6875 4.789062 4.6875 c 2.648438 0 4.792969 -2.097656 4.792969 -4.6875 c 0 -2.589844 -2.144531 -4.691406 -4.792969 -4.691406 m -2.050781 2.683594 c 0.378906 0 0.683594 0.300781 0.683594 0.671874 c 0 0.367188 -0.304688 0.667969 -0.683594 0.667969 c -0.378906 0 -0.683594 -0.300781 -0.683594 -0.667969 c 0 -0.371093 0.304688 -0.671874 0.683594 -0.671874 m 4.105469 0 c 0.378906 0 0.683593 0.300781 0.683593 0.671874 c 0 0.367188 -0.304687 0.667969 -0.683593 0.667969 c -0.378907 0 -0.683594 -0.300781 -0.683594 -0.667969 c 0 -0.371093 0.304687 -0.671874 0.683594 -0.671874 m -3.988281 3.234374 c 0.511718 0.5 1.207031 0.785157 1.9375 0.785157 c 0.722656 0 1.421874 -0.28125 1.933593 -0.785157 l 0.484375 0.472657 c -0.640625 0.628906 -1.511718 0.980469 -2.417968 0.984375 c -0.90625 -0.003906 -1.777344 -0.355469 -2.417969 -0.984375 l 0.484375 -0.472657" style="fill:#fff"/></svg>