<svg xmlns="http://www.w3.org/2000/svg" viewBox="0 0 16 16"><path d="m 3.308594 14.410156 c 11.972656 7.921875 19.351562 -17.347656 3.871094 -14.003906 c -6.398438 1.425781 -10.28125 10.367188 -3.871094 14.003906" style="fill:#ff8c00"/><path d="m 171.927656 981.492776 c -7.785418 -7.884236 -15.633622 -15.137734 -17.39162 -16.083842 c -2.574211 -1.324552 -10.296844 -1.702995 -39.429377 -1.702995 h -36.227311 l -6.404134 -6.055093 c -3.515996 -3.342916 -6.90642 -7.758088 -7.534276 -9.839527 c -0.753428 -2.27066 -1.130141 -17.786836 -0.941785 -38.979663 l 0.251143 -35.258303 l 3.264853 -4.352099 c 1.820783 -2.333733 5.148422 -5.739723 7.345919 -7.442718 l 4.01828 -3.090621 l 72.956906 0.252296 l 17.140477 17.156097 v 72.66112 l 16.575408 16.651506 c 10.861914 10.911783 16.575407 17.534541 16.512621 19.111388 c -0.125571 3.090621 -9.857344 11.3533 -13.37334 11.3533 c -1.757998 0 -7.220348 -4.667468 -16.763764 -14.380846 m -23.544612 -34.501417 c 4.708922 -2.58603 5.211207 -5.865872 5.211207 -36.456708 v -29.20321 l -6.906419 -6.938128 h -29.006962 c -15.947551 0 -30.388247 0.504591 -32.020673 1.13533 c -1.632427 0.567665 -3.515996 2.207586 -4.269423 3.595212 c -0.816213 1.576847 -1.506855 13.119369 -1.883569 30.401614 c -0.565071 31.221575 0.062785 35.19523 6.404134 37.844333 c 4.583352 1.955291 58.767353 1.639921 62.471705 -0.378443" transform="matrix(0.0622157 0 0 0.0619313 0.0260625 -49.21875)" style="fill:#fff;stroke:#fff;stroke-width:1.179"/></svg>