<svg xmlns="http://www.w3.org/2000/svg" viewBox="0 0 16 16"><path d="m 6.324219 16.027344 c -0.9375 -0.085938 -1.960938 -0.324219 -2.71875 -0.632813 c -2.640625 -1.085937 -3.871094 -3.285156 -3.390625 -6.0625 c 0.257812 -1.496093 0.996094 -3.183593 2.167968 -4.972656 c 1.402344 -2.132813 3.566407 -3.753906 5.574219 -4.164063 c 0.425781 -0.085937 1.222657 -0.117187 1.652344 -0.0625 c 1.429687 0.183594 2.617187 0.957032 3.710937 2.421876 c 1.042969 1.402343 1.816407 2.828124 2.253907 4.152343 c 0.894531 2.726563 0.351562 5.160157 -1.546875 6.921875 c -1.335938 1.234375 -3.144532 2.027344 -5.363282 2.339844 c -0.332031 0.046875 -1.996093 0.085938 -2.339843 0.058594" style="fill:#ff8c00"/><g style="fill:#fffafa"><path d="m 6.675781 4.5625 c -0.34375 0 -0.617187 0.226562 -0.617187 0.507812 v 1.015626 h 4.332031 c 0.339844 0 0.617187 0.226562 0.617187 0.507812 v 3.558594 h 1.238282 c 0.339844 0 0.617187 -0.226563 0.617187 -0.507813 v -4.574219 c 0 -0.28125 -0.277343 -0.507812 -0.617187 -0.507812 h -5.570313"/><path d="m 3.027344 7.101562 h 6.679687 c 0.035157 0 0.0625 0.027344 0.0625 0.0625 v 5.46875 c 0 0.035157 -0.027343 0.0625 -0.0625 0.0625 h -6.679687 c -0.035156 0 -0.0625 -0.027343 -0.0625 -0.0625 v -5.46875 c 0 -0.035156 0.027344 -0.0625 0.0625 -0.0625"/></g></svg>