<svg xmlns="http://www.w3.org/2000/svg" viewBox="0 0 16 16"><g style="fill:#fff"><path d="m 10.421875 10.566406 c -0.761719 0 -1.382813 -0.613281 -1.382813 -1.371094 c 0 -0.757812 0.621094 -1.371093 1.382813 -1.371093 c 0.765625 0 1.382813 0.613281 1.382813 1.371093 c 0 0.757813 -0.617188 1.371094 -1.382813 1.371094"/><path d="m 5.566406 10.730469 c -0.765625 0 -1.382812 -0.613281 -1.382812 -1.371094 c 0 -0.757813 0.621094 -1.371094 1.382812 -1.371094 c 0.765625 0 1.382813 0.613281 1.382813 1.371094 c 0 0.757813 -0.621094 1.371094 -1.382813 1.371094"/><path d="m 8.222656 5.472656 c -0.761718 0 -1.382812 -0.617187 -1.382812 -1.371094 c 0 -0.757812 0.621094 -1.371093 1.382812 -1.371093 c 0.765625 0 1.382813 0.613281 1.382813 1.371093 c 0 0.753907 -0.617188 1.371094 -1.382813 1.371094"/></g><path d="m 12.679688 1.675781 c -11.882813 -7.894531 -19.203126 17.285157 -3.839844 13.949219 c 6.347656 -1.417969 10.199218 -10.328125 3.839844 -13.949219" style="fill:#ff8c00"/><g style="stroke:#fff"><g style="stroke-linejoin:round;stroke-width:4.637"><path d="m 34.363998 43.335759 c -0.009828 -4.004892 -4.678755 -7.256963 -10.452891 -7.270665 c -5.752941 0.01094 -10.421663 3.250857 -10.430926 7.271404 c 0.009828 4.004892 4.677704 7.236814 10.431697 7.246022 c 5.773085 -0.006446 10.441806 -3.246362 10.45212 -7.246761" transform="matrix(0.196212 -0.043762 -0.0102352 0.196157 2.001714 2.874333)" style="fill:#fff;fill-rule:evenodd"/><path d="m 32.296992 42.687649 v -35.110017" transform="matrix(0.201719 0 0 0.188581 1.785875 1.867875)" style="fill:none;stroke-linecap:round"/></g><path d="m 51.656478 47.015306 c 0 -2.66938 -2.159593 -4.825418 -4.831089 -4.825418 c -2.671496 0 -4.831089 2.156038 -4.831089 4.825418 c 0 2.66938 2.159593 4.842529 4.831089 4.842529 c 2.671496 0 4.831089 -2.173149 4.831089 -4.842529" transform="matrix(0.244187 0 0 0.228283 -0.664604 -0.142967)" style="fill:#fff;fill-rule:evenodd"/></g></svg>