<svg xmlns="http://www.w3.org/2000/svg" viewBox="0 0 16 16"><g style="fill:#ff8c00"><path d="m 8.136719 3.378906 c 0.007812 0 0.015625 0 0.023437 0.003906 c 0.089844 0 0.179688 0.042969 0.222656 0.105469 l 1.304688 1.789063 l 1.308594 1.792968 c 0.046875 0.066407 0.046875 0.148438 -0.003906 0.214844 c -0.046876 0.066406 -0.140626 0.109375 -0.234376 0.109375 h -1.453124 v 4.070313 c 0 0.273437 -0.222657 0.492187 -0.492188 0.492187 h -1.328125 c -0.273437 0 -0.492187 -0.21875 -0.492187 -0.492187 v -4.070313 h -1.453126 c -0.097656 0 -0.191406 -0.042969 -0.238281 -0.109375 c -0.046875 -0.066406 -0.046875 -0.148437 0 -0.214844 l 1.304688 -1.792968 l 1.304687 -1.789063 c 0.046875 -0.0625 0.132813 -0.105469 0.226563 -0.109375"/><path d="m 8.136719 3.378906 c 0.007812 0 0.015625 0 0.023437 0.003906 c 0.09375 0 0.179688 0.042969 0.226563 0.105469 l 1.304687 1.789063 l 1.304688 1.792968 c 0.046875 0.066407 0.046875 0.152344 -0.003906 0.214844 c -0.046876 0.066406 -0.140626 0.109375 -0.234376 0.109375 h -1.453124 v 4.074219 c 0 0.269531 -0.222657 0.488281 -0.492188 0.488281 h -0.679688 v -8.578125 c 0 0 0 0 0.003907 0"/><path d="m 12.613281 1.679688 c -12.027343 -7.996094 -19.03125 15.339843 -3.886719 14.132812 c 6.425782 -1.441406 10.328126 -10.464844 3.886719 -14.132812"/><path d="m 8.183594 3.296875 c 0.007812 0 0.015625 0 0.027344 0 c 0.089843 0.003906 0.175781 0.046875 0.222656 0.105469 l 1.304687 1.792968 l 1.304688 1.789063 c 0.046875 0.066406 0.046875 0.152344 0 0.21875 c -0.050781 0.066406 -0.140625 0.105469 -0.238281 0.105469 h -1.453126 v 4.074218 c 0 0.273438 -0.21875 0.492188 -0.492187 0.492188 h -1.328125 c -0.273438 0 -0.492188 -0.21875 -0.492188 -0.492188 v -4.074218 h -1.453124 c -0.09375 0 -0.1875 -0.039063 -0.238282 -0.105469 c -0.046875 -0.066406 -0.046875 -0.152344 0 -0.21875 l 1.304688 -1.789063 l 1.304687 -1.792968 c 0.046875 -0.0625 0.136719 -0.101563 0.226563 -0.105469"/><path d="m 8.183594 3.296875 c 0.007812 0 0.019531 0 0.027344 0 c 0.089843 0.003906 0.175781 0.046875 0.222656 0.109375 l 1.304687 1.789062 l 1.304688 1.792969 c 0.046875 0.066407 0.046875 0.148438 0 0.214844 c -0.050781 0.066406 -0.140625 0.105469 -0.238281 0.105469 h -1.453126 v 4.074218 c 0 0.273438 -0.21875 0.492188 -0.492187 0.492188 h -0.679687 v -8.578125 c 0.003906 0 0.003906 0 0.003906 0"/></g><g transform="matrix(0.583671 0 0 0.541346 3.277 3.891)"><path d="m 7.998187 0.504414 c -4.135996 0 -7.495657 3.355354 -7.495657 7.497232 c 0 4.134662 3.359661 7.497231 7.495657 7.497231 c 4.135996 0 7.502349 -3.362569 7.502349 -7.497231 c 0 -4.141878 -3.366353 -7.497232 -7.502349 -7.497232" style="fill:#fff;stroke:#fff;stroke-linecap:round;stroke-linejoin:round"/><path d="m 7.502938 15.498877 c -2.523091 0.028863 -4.865484 -1.392652 -6.130376 -3.72336 c -1.271585 -2.330708 -1.271585 -5.217034 0 -7.547742 c 1.264892 -2.337924 3.607285 -3.75944 6.130376 -3.723361" style="fill:#c0c0c0;stroke:#c0c0c0"/></g></svg>