<svg xmlns="http://www.w3.org/2000/svg" viewBox="0 0 16 16"><path d="m 3.761719 1.648438 c 8.183593 -5.753907 16.472656 4.871093 9.804687 11.648437 c -6.28125 6.386719 -16.042968 0.46875 -12.988281 -7.480469 c 0.632813 -1.65625 1.679687 -3.113281 3.183594 -4.167968" style="fill:#b0c3de"/><g style="fill-rule:evenodd"><path d="m 12.675781 8.195312 c 0 2.449219 -2.066406 4.429688 -4.617187 4.429688 c -2.550782 0 -4.621094 -1.984375 -4.621094 -4.429688 c 0 -2.445312 2.070312 -4.429687 4.621094 -4.429687 c 2.550781 0 4.617187 1.984375 4.617187 4.429687" style="fill:#fff"/><g style="fill:#b0c3de"><path d="m 6.886719 7.09375 c 0 0.300781 -0.265625 0.542969 -0.59375 0.542969 c -0.332031 0 -0.597657 -0.242188 -0.597657 -0.542969 c 0 -0.296875 0.265626 -0.539062 0.597657 -0.539062 c 0.328125 0 0.59375 0.242187 0.59375 0.539062"/><path d="m 10.246094 7.09375 c 0 0.300781 -0.265625 0.542969 -0.59375 0.542969 c -0.328125 0 -0.597656 -0.242188 -0.597656 -0.542969 c 0 -0.296875 0.269531 -0.539062 0.597656 -0.539062 c 0.328125 0 0.59375 0.242187 0.59375 0.539062"/></g></g></svg>