<svg xmlns="http://www.w3.org/2000/svg" viewBox="0 0 16 16"><path d="m 2.898438 2.421875 c -12.507813 16.578125 21.910156 18.933594 10.863281 2.011719 c -2.515625 -3.859375 -7.550781 -6.402344 -10.863281 -2.011719" style="fill:#ff8c00"/><path d="m 8.027344 11.398438 c -2.222656 -0.289063 -4.054688 -0.53125 -4.070313 -0.539063 c -0.011719 -0.007813 0.15625 -0.605469 0.382813 -1.328125 l 0.40625 -1.308594 l -0.101563 -1.234375 c -0.054687 -0.679687 -0.101562 -1.25 -0.105469 -1.273437 c -0.003906 -0.019532 0.566407 -0.046875 1.269532 -0.0625 l 1.277344 -0.027344 l 1.113281 -0.71875 c 0.613281 -0.394531 1.125 -0.710938 1.136719 -0.707031 c 0.035156 0.019531 2.746093 7.621093 2.738281 7.675781 c -0.003907 0.023438 -1.824219 -0.191406 -4.046875 -0.476562" style="fill:#fff;fill-rule:evenodd"/></svg>