<svg xmlns="http://www.w3.org/2000/svg" viewBox="0 0 16 16"><path d="m 13.246094 12.980469 c -6.472656 8.515625 -18.375 -2.914063 -10.8125 -10.371094 c 6.460937 -7.523437 19.164062 3.238281 10.8125 10.371094" style="fill:#ff8c00"/><g style="fill:#fff"><path d="m 4.691406 13.582031 c 0 -4.945312 0 -2.203125 0 -4.945312 c 0 -2.738281 1.335938 -4.238281 4.679688 -4.238281 h 4.011718 v -0.707032 h -4.679687 c -3.34375 0 -4.679687 2.207032 -4.679687 4.945313 v 4.945312"/><path d="m 7.367188 13.582031 c 0 -4.945312 0 0.621094 0 -2.117187 c 0 -4.242188 0 -4.242188 3.339843 -4.242188 h 2.675781 v -0.703125 h -3.34375 c -4.011718 0 -3.34375 1.410157 -3.34375 4.945313 v 2.117187"/><path d="m 3.355469 9.34375 h 2.003906 v 2.121094 h -2.003906"/><path d="m 6.027344 9.34375 h 2.007812 v 2.121094 h -2.007812"/><path d="m 10.039062 2.984375 h 2.003907 v 2.121094 h -2.003907"/><path d="m 10.039062 5.8125 h 2.003907 v 2.117188 h -2.003907"/></g></svg>