
<svg xmlns="http://www.w3.org/2000/svg" xmlns:xlink="http://www.w3.org/1999/xlink" width="16px" height="16px" viewBox="0 0 16 16" version="1.1">
<g id="surface1">
<path style=" stroke:none;fill-rule:nonzero;fill:rgb(100%,54.901961%,0%);fill-opacity:1;" d="M 3.917969 1.988281 C -10.25 15.160156 18.992188 23.457031 15.765625 5.972656 C 14.175781 1.359375 8.46875 -2.242188 3.917969 1.988281 Z M 3.917969 1.988281 "/>
<path style="fill:none;stroke-width:7.134;stroke-linecap:round;stroke-linejoin:round;stroke:rgb(100%,100%,100%);stroke-opacity:1;stroke-miterlimit:4;" d="M 11.758293 54.38791 L 11.758293 5.626392 L 39.431374 5.626392 L 48.252169 14.433279 L 48.252169 54.38791 Z M 11.758293 54.38791 " transform="matrix(0.180681,0,0,0.199152,3.121594,1.95762)"/>
<path style="fill-rule:nonzero;fill:rgb(100%,100%,100%);fill-opacity:1;stroke-width:2.378;stroke-linecap:round;stroke-linejoin:round;stroke:rgb(100%,54.901961%,0%);stroke-opacity:1;stroke-miterlimit:4;" d="M 11.758293 54.38791 L 11.758293 5.626392 L 39.431374 5.626392 L 48.252169 14.433279 L 48.252169 54.38791 Z M 11.758293 54.38791 " transform="matrix(0.180681,0,0,0.199152,3.121594,1.95762)"/>
<path style="fill-rule:nonzero;fill:rgb(100%,54.901961%,0%);fill-opacity:1;stroke-width:2.378;stroke-linecap:round;stroke-linejoin:round;stroke:rgb(100%,54.901961%,0%);stroke-opacity:1;stroke-miterlimit:4;" d="M 39.431374 14.433279 L 39.431374 5.626392 L 48.252169 14.433279 Z M 39.431374 14.433279 " transform="matrix(0.180681,0,0,0.199152,3.121594,1.95762)"/>
<path style="fill-rule:evenodd;fill:rgb(100%,100%,100%);fill-opacity:1;stroke-width:5.265;stroke-linecap:round;stroke-linejoin:round;stroke:rgb(100%,54.901961%,0%);stroke-opacity:1;stroke-miterlimit:4;" d="M 74.681804 5.595512 C 73.820208 5.595512 73.150078 6.290345 73.150078 7.115459 L 73.150078 23.444035 C 73.150078 24.26915 73.820208 24.963983 74.681804 24.963983 L 90.956383 24.963983 C 91.817978 24.963983 92.488108 24.26915 92.488108 23.444035 L 92.488108 7.115459 C 92.488108 6.290345 91.817978 5.595512 90.956383 5.595512 Z M 74.681804 5.595512 " transform="matrix(0.0816073,0,0,0.0899497,0.585105,6.227154)"/>
<path style="fill:none;stroke-width:3.949;stroke-linecap:round;stroke-linejoin:round;stroke:rgb(100%,54.901961%,0%);stroke-opacity:1;stroke-dasharray:3.94893,3.94893;stroke-miterlimit:4;" d="M 82.436162 26.17994 L 82.436162 45.200995 L 103.545248 45.200995 " transform="matrix(0.0816073,0,0,0.0899497,0.585105,6.227154)"/>
<path style="fill-rule:evenodd;fill:rgb(100%,100%,100%);fill-opacity:1;stroke-width:5.265;stroke-linecap:round;stroke-linejoin:round;stroke:rgb(100%,54.901961%,0%);stroke-opacity:1;stroke-miterlimit:4;" d="M 104.071779 34.995635 C 103.210183 34.995635 102.492187 35.690468 102.492187 36.515582 L 102.492187 52.800731 C 102.492187 53.669272 103.210183 54.364105 104.071779 54.364105 L 120.346358 54.364105 C 121.207953 54.364105 121.878083 53.669272 121.878083 52.800731 L 121.878083 36.515582 C 121.878083 35.690468 121.207953 34.995635 120.346358 34.995635 Z M 104.071779 34.995635 " transform="matrix(0.0816073,0,0,0.0899497,0.585105,6.227154)"/>
</g>
</svg>
