<svg xmlns="http://www.w3.org/2000/svg" viewBox="0 0 16 16"><path d="m 1.847656 2.921875 c -3.890625 5.984375 -0.75 11.4375 3.65625 12.730469 c 5.925782 1.738281 13.972656 -2.835938 8.671875 -12.257813 c -2.109375 -3.746093 -9.554687 -4.738281 -12.324219 -0.472656" style="fill:#ff8c00"/><g style="stroke-linecap:round;stroke-linejoin:round"><g transform="matrix(0.176019 0 0 0.182166 2.821231 2.534925)"><path d="m 11.756674 54.381613 v -48.762187 h 27.673733 l 8.810323 8.813219 v 39.948968" style="fill:none;stroke:#fff;stroke-width:7.134"/><g style="stroke:#ff8c00;stroke-width:2.378"><path d="m 11.756674 54.381613 v -48.762187 h 27.673733 l 8.810323 8.813219 v 39.948968" style="fill:#fff"/><path d="m 39.430407 14.432645 v -8.813219 l 8.810323 8.813219" style="fill:#ff8c00"/></g></g><g style="fill:none;stroke:#ff8c00"><g transform="matrix(0.167437 0 0 0.173285 3.07875 2.801437)" style="stroke-width:2.5"><path d="m 17.050222 10.92925 h 8.67862"/><path d="m 37.160358 47.312593 h 5.785747"/></g><g transform="matrix(0.0662667 0 0 0.173285 4.803859 2.801437)" style="stroke-width:3.974"><path d="m 17.048316 22.065168 h 28.884243"/><path d="m 17.048316 27.137195 h 20.808445"/><path d="m 17.048316 32.18668 h 33.482143"/><path d="m 17.048316 42.330735 h 17.802125"/><path d="m 17.048316 37.258708 h 30.947403"/></g><g transform="matrix(0.167437 0 0 0.173285 3.07875 2.801437)" style="stroke-width:2.5"><path d="m 37.160358 42.330735 h 5.785747"/><path d="m 37.160358 37.326335 h 5.785747"/><path d="m 37.160358 32.321934 h 5.785747"/><path d="m 37.160358 27.317534 h 5.785747"/><path d="m 37.160358 22.313134 h 5.785747"/></g></g></g></svg>