<svg xmlns="http://www.w3.org/2000/svg" viewBox="0 0 16 16"><path d="m 6.167969 15.796875 c -14.992188 -3.125 1.101562 -24.617187 8.726562 -11.707031 c 3.265625 5.015625 -1.015625 13.3125 -8.726562 11.707031" style="fill:#ff8c00"/><g style="fill:#fff"><path d="m 11.570312 8.304688 c 0 2.609374 -1.988281 4.722656 -4.445312 4.722656 c -2.457031 0 -4.449219 -2.113282 -4.449219 -4.722656 c 0 -2.605469 1.992188 -4.71875 4.449219 -4.71875 c 2.457031 0 4.445312 2.113281 4.445312 4.71875" style="fill-opacity:0.596078"/><path d="m 5.839844 3.792969 c -1.539063 0.496093 -2.722656 1.859375 -3.046875 3.550781 l 0.128906 0.421875 l 0.054687 -0.210937 l 0.105469 -0.207032 h 0.085938 l 0.027343 -0.066406 l 0.023438 -0.097656 l 0.007812 -0.304688 c 0 0 0.046876 -0.121094 0.082032 -0.152344 c 0 0 0 -0.003906 0 -0.003906 c 0.03125 -0.035156 0.039062 -0.125 0.039062 -0.125 l 0.046875 -0.179687 l 0.136719 -0.136719 l 0.082031 0.015625 l 0.113281 -0.042969 l 0.160157 -0.058594 l 0.097656 0.121094 l 0.046875 0.007813 l 0.046875 -0.078125 l 0.105469 0.078125 l 0.070312 0.085937 l 0.027344 -0.085937 l 0.0625 -0.078125 l 0.03125 -0.109375 l 0.023438 -0.078125 l 0.089843 0.015625 l 0.054688 0.1875 l -0.070313 0.191406 l -0.054687 0.160156 l 0.136719 0.222657 l 0.070312 -0.265626 l -0.03125 -0.160156 l 0.257812 -0.179687 l -0.039062 -0.113281 c 0 0 0.117188 -0.023438 0.15625 -0.03125 c 0.003906 -0.003907 0.003906 -0.003907 0.007812 -0.003907 c 0 0 0.003907 0 0.003907 0 c 0.003906 -0.003906 0.003906 -0.003906 0.007812 -0.003906 c 0.03125 -0.027344 0.058594 -0.097656 0.070313 -0.164063 c 0.015625 -0.078124 -0.046875 -0.171874 -0.046875 -0.171874 c 0 0 0.128906 -0.265626 0.113281 -0.335938 c 0 0 0 -0.003906 0 -0.003906 c -0.003906 -0.007813 -0.007812 -0.011719 -0.007812 -0.015625 c 0 0 -0.003907 0 -0.003907 0 c 0 0 0 -0.003907 0 -0.003907 c 0 0 -0.003906 -0.003906 -0.003906 -0.003906 c 0 0 -0.003906 0 -0.003906 0 c 0 0 -0.003907 0 -0.003907 0 c 0 0 0 0 -0.003906 0 c 0 0 -0.003906 0 -0.003906 0 c 0 0 -0.003906 0 -0.003906 0 c -0.019532 0.003906 -0.050782 0.039063 -0.085938 0.046875 c -0.054687 0.019531 -0.203125 0.09375 -0.234375 0.105469 c -0.03125 0.007812 -0.207031 0.03125 -0.207031 0.03125 c 0 0 0.03125 -0.074219 0.054688 -0.109375 c 0.023437 -0.035156 0.082031 -0.050781 0.113281 -0.078125 c 0.03125 -0.023438 0.089843 -0.101562 0.089843 -0.101562 l 0.101563 -0.222657 c 0 0 0.144531 -0.117187 0.203125 -0.171875 c 0.054688 -0.050781 0.167969 0.035156 0.167969 0.035156 l 0.105469 0.078126 c 0 0 -0.007813 0.15625 -0.035157 0.199218 c 0 0 -0.003906 0.003906 -0.003906 0.003906 c -0.003906 0 -0.003906 0.003907 -0.003906 0.003907 c 0 0 0 0 -0.003907 0 c 0 0 0 0.003906 0 0.003906 c -0.035156 0.035156 -0.097656 0.214844 -0.097656 0.214844 c 0 0 0.183594 -0.09375 0.207032 -0.144531 c 0.023437 -0.050782 0.1875 -0.144532 0.1875 -0.144532 l 0.144531 -0.027344 l 0.078125 0.0625 c 0 0 0.074218 0.007813 0.105468 -0.011718 c 0.03125 -0.015625 0.210938 -0.074219 0.257813 -0.074219 c 0.007813 0 0.019531 0 0.035156 0.007813 l 0.203125 -0.054688 l -0.003906 -0.140625 l -0.164062 0.023437 l -0.078126 0.007813 c 0 0 -0.167968 0.019531 -0.21875 -0.007813 c -0.046874 -0.023437 -0.070312 -0.035156 -0.152343 -0.035156 c -0.058594 0 -0.078125 0.011719 -0.085938 0.015625 c 0 0 0 0.003907 0 0.003907 l -0.195312 -0.027344 l 0.054687 -0.09375 c 0 0 0.179688 -0.007813 0.210938 -0.015625 c 0.03125 -0.007813 0.226562 -0.015625 0.257812 -0.027344 c 0.03125 -0.007813 0.074219 -0.058594 0.078125 -0.066406 l -0.144531 -0.019531 l -0.085938 -0.039063 l 0.054688 -0.128906 l 0.226562 -0.128907 l 0.136719 -0.078124 c 0 0 0.191407 -0.058594 0.238281 -0.074219 c 0.050782 -0.019531 0.1875 0.007812 0.1875 0.007812 c 0 0 0.328126 0.042969 0.410157 0.035157 c 0.082031 -0.007813 0.121093 -0.171876 0.121093 -0.171876 l -0.066406 -0.144531 l -0.167968 -0.101562 c 0 0 -0.160157 -0.035157 -0.226563 -0.019531 c -0.0625 0.019531 -0.3125 0.070312 -0.3125 0.070312 l -0.289063 0.066406 l -0.242187 -0.007812 l -0.121094 0.007812 m 2.09375 0.027344 l -0.203125 0.007812 l -0.0625 0.058594 l -0.042968 0.015625 l 0.089843 0.148438 l 0.136719 -0.007813 l 0.136719 0.050782 l 0.089843 0.101562 l 0.070313 0.074219 l 0.046875 0.085937 l 0.035156 0.121094 l 0.070313 0.007812 l 0.089843 0.007813 l 0.054688 0.09375 c 0 0.003906 0 0.003906 0 0.003906 c -0.003906 0.003907 -0.007812 0.003907 -0.011719 0.011719 c -0.011719 0.011719 -0.027343 0.035156 -0.027343 0.0625 c 0 0.050781 0.03125 0.128906 0.03125 0.128906 l -0.070313 0.085938 l 0.03125 0.101562 l 0.03125 0.042969 l -0.070313 0.015625 c -0.007812 0.007812 -0.050781 0.046875 -0.058593 0.113281 c -0.003907 0.058594 -0.007813 0.066407 -0.007813 0.066407 l 0.042969 0.085937 l 0.0625 0.050781 l 0.023437 0.023438 l 0.074219 0.027344 l 0.0625 0.042968 c 0 0 -0.089843 0.050782 -0.121093 0.058594 c -0.03125 0.007812 -0.144532 0.011719 -0.144532 0.011719 l 0.121094 0.160156 l 0.144531 0.078125 v 0.085938 l -0.152343 -0.050782 l -0.105469 0.058594 l -0.023438 0.050781 c 0 0 0 0.109375 -0.019531 0.148438 c 0 0 0 0.003906 0 0.003906 c 0 0 -0.003906 0.003906 -0.003906 0.003906 c -0.003906 0 -0.003906 0.003907 -0.003906 0.003907 c 0 0 -0.003907 0 -0.003907 0 c -0.035156 0.011718 -0.121093 0.09375 -0.121093 0.09375 l -0.0625 0.179687 l -0.042969 0.027344 l -0.023438 0.09375 l -0.03125 0.058593 l -0.054687 0.027344 l -0.050782 -0.09375 l -0.046874 -0.050781 c 0 0 0 -0.003906 0 -0.003906 c -0.003907 -0.003907 -0.007813 -0.007813 -0.015626 -0.015625 c -0.007812 -0.003906 -0.015624 -0.007813 -0.027343 -0.007813 c -0.03125 0 -0.109375 -0.015625 -0.109375 -0.015625 l -0.042969 -0.050781 l 0.027344 -0.171875 c 0 0 -0.046875 -0.054688 -0.085938 -0.0625 c 0 0 -0.003906 0 -0.003906 0 c -0.003906 0 -0.003906 0.003906 -0.007813 0.003906 c -0.039062 0.007813 -0.203124 0.082032 -0.203124 0.082032 l -0.175782 0.179687 c 0 0.003906 -0.023437 0.039063 -0.039062 0.113281 c -0.015625 0.074219 -0.113282 0.179688 -0.113282 0.179688 l -0.136718 0.082031 l -0.046875 0.121094 v 0.179687 l 0.015625 0.066406 l 0.09375 0.042969 l 0.082031 -0.117187 l 0.039063 0.023437 v 0.113281 l 0.050781 0.085938 l 0.039062 0.066406 l 0.105469 -0.027344 l 0.078125 -0.050781 l -0.0625 -0.109375 l 0.015625 -0.195312 l 0.007812 -0.136719 l 0.097657 -0.113281 l 0.03125 -0.128906 l 0.054687 -0.050782 l 0.042969 0.070313 l -0.042969 0.058593 l -0.0625 0.128907 l -0.015625 0.066406 l 0.015625 0.035156 l 0.039063 0.078125 l 0.089843 0.023438 v 0.042968 l 0.0625 0.019532 l -0.023437 0.074218 l -0.023437 0.0625 l -0.082032 -0.019531 l -0.054687 0.085938 l 0.007812 0.109375 l 0.007813 0.070312 l -0.078125 0.007813 l -0.121094 -0.007813 l -0.113281 0.007813 l -0.089844 -0.085938 l -0.046875 -0.082031 l -0.042969 -0.070312 l -0.03125 0.09375 l 0.019532 0.09375 v 0.070312 l -0.105469 0.03125 h -0.066407 l -0.0625 0.136719 l -0.074218 0.027343 l -0.09375 0.128907 l -0.089844 0.042969 l -0.089844 0.007812 l -0.136718 -0.042969 l -0.03125 0.066407 l 0.160156 0.0625 l -0.023438 0.109374 v 0.109376 l -0.007812 0.101562 l -0.015625 0.070312 l -0.113281 -0.101562 l -0.128907 -0.050781 l -0.121093 -0.027344 l -0.015626 0.035156 l -0.03125 0.152344 l -0.015624 0.0625 l -0.066407 0.058594 v 0.050781 l 0.042969 0.058594 l -0.027344 0.050781 v 0.035156 l 0.105469 0.027344 l 0.039063 0.058594 l 0.152343 0.042969 h 0.050781 l 0.070313 -0.058594 l 0.058594 -0.042969 l 0.039062 -0.0625 v -0.058594 l 0.050781 -0.078125 l 0.078126 -0.03125 l 0.078124 -0.019531 l 0.011719 -0.128906 l 0.0625 -0.015625 l 0.082031 0.050781 l 0.09375 -0.035156 l 0.097657 -0.023438 l 0.046875 0.085938 l 0.082031 0.09375 l 0.113281 0.074219 c 0.003906 0 0.046875 0.003906 0.074219 0.03125 c 0.003906 0 0.003906 0.003906 0.007813 0.003906 c 0.003906 0.007812 0.007812 0.015625 0.011718 0.027344 c 0.023438 0.054687 0.027344 0.097656 0.027344 0.101562 l -0.015625 0.09375 h -0.195313 l 0.089844 0.078125 l 0.03125 0.050781 l 0.007813 0.078125 l 0.042969 -0.09375 l 0.011718 -0.078125 l 0.074219 -0.035156 l 0.023437 -0.078125 l 0.007813 -0.066406 l 0.066406 0.007812 l -0.023437 -0.078125 l -0.121094 -0.082031 l -0.105469 -0.128906 l -0.113281 -0.128907 l 0.066406 -0.050781 l 0.070313 0.023438 c 0 0 0.035156 0.070312 0.066406 0.113281 c 0.03125 0.042969 0.128906 0.109375 0.128906 0.109375 l 0.070313 0.035156 l 0.007812 0.09375 l 0.050782 0.050781 l 0.070312 0.0625 c 0 0 0 0.066407 0 0.101563 c 0 0.03125 0.007812 0.058594 0.023438 0.09375 c 0.015624 0.03125 0.058593 0.046875 0.066406 0.050781 c 0 0 0.042968 0.015625 0.066406 0.003906 c 0 0 0 0 0.003906 0 c 0 0 0.003906 -0.003906 0.003906 -0.003906 c 0 0 0 -0.003906 0 -0.003906 c 0.003907 0 0.003907 0 0.003907 0 c 0 -0.003906 0 -0.003906 0 -0.003906 c 0.007812 -0.035156 0.023437 -0.070313 0.007812 -0.128906 c -0.015625 -0.058594 -0.015625 -0.195313 -0.015625 -0.195313 l 0.074219 -0.054687 l 0.101563 0.011718 l 0.066406 -0.136718 l -0.03125 -0.085938 l 0.023437 -0.164062 l 0.03125 -0.082032 l 0.105469 -0.105468 l 0.128906 0.027343 l 0.105469 -0.050781 c 0 0 0.070313 -0.007812 0.101563 0.011719 c 0 0.003906 0 0.003906 0.003906 0.003906 c 0 0.003906 0.003906 0.003906 0.003906 0.007813 c 0.019531 0.035156 0.042969 0.085937 0.042969 0.085937 c 0 0 0.046875 0.019531 0.078125 0.035156 c 0.035156 0.015625 0.089844 0.058594 0.089844 0.058594 l 0.015624 0.128906 l -0.105468 0.042969 l -0.167969 0.027344 c 0 0 -0.074219 -0.011719 -0.113281 -0.011719 c -0.039063 0 -0.128906 0.042969 -0.128906 0.042969 l -0.03125 0.0625 l -0.066407 0.058594 l -0.078125 0.023437 l -0.066406 0.027344 l -0.023438 0.085937 l 0.066407 0.128906 l 0.046875 0.074219 l 0.089844 0.042969 l 0.167968 -0.015625 l 0.054688 -0.035156 l 0.082031 -0.015625 l 0.023437 -0.011719 l 0.050782 0.0625 v 0.128906 l -0.050782 0.074219 l -0.023437 0.101562 l -0.121094 0.027344 h -0.097656 l -0.144531 0.035156 l -0.167969 -0.007812 l -0.183594 -0.027344 c 0 0 -0.070312 -0.019531 -0.105469 -0.003906 c 0 0 -0.003906 0 -0.003906 0 c 0 0 0 0.003906 0 0.003906 c -0.003906 0 -0.003906 0.003906 -0.003906 0.003906 c -0.003906 0 -0.003906 0 -0.003906 0 v 0.003907 c 0 0 -0.003906 0.003906 -0.003906 0.003906 c 0 0 0 0 0 0.003906 c -0.007813 0.054688 -0.03125 0.128907 -0.03125 0.128907 l -0.136719 0.015624 l -0.21875 -0.101562 l -0.175781 -0.085938 l -0.066407 -0.03125 l 0.007813 -0.171874 l -0.023438 -0.121094 h -0.199218 l -0.226563 -0.023438 l -0.183594 0.007813 l -0.097656 0.042969 l -0.183594 -0.035157 l -0.082031 -0.050781 l -0.039062 0.101562 c 0 0 -0.089844 0.007813 -0.128907 0.042969 c -0.039062 0.035157 -0.21875 0.171875 -0.21875 0.171875 l 0.007813 0.109375 l -0.230469 0.011719 l -0.058594 0.144531 l -0.230469 0.152344 l 0.039063 0.144531 l -0.03125 0.1875 l -0.058594 0.101563 l -0.039062 0.199219 v 0.125 l 0.136719 0.179687 l 0.066406 0.136719 l 0.015625 0.042968 l 0.28125 0.300782 l 0.113281 0.035156 l 0.109375 0.007812 l 0.144531 0.015626 l 0.113282 0.058593 h 0.183593 l 0.285157 -0.007812 l 0.117187 0.164062 l 0.144531 0.007813 l 0.121094 0.042968 l -0.007812 0.179688 l -0.054688 0.125 l 0.097656 0.078125 l 0.109375 0.128906 l 0.074219 0.101563 l 0.0625 0.121094 l 0.042969 0.09375 l -0.105469 0.101562 l -0.039062 0.144531 l 0.03125 0.050781 l 0.089843 0.058594 l 0.085938 0.054688 l 0.023437 0.109375 l 0.058594 0.078125 l 0.09375 0.015625 l 0.082031 0.058593 l 0.054688 0.050782 l 0.132812 -0.007813 l 0.199219 -0.066406 h 0.136719 l 0.070312 0.023437 l 0.105469 -0.101562 l 0.160156 -0.023438 l 0.121094 -0.136718 l 0.152344 -0.078125 l 0.050781 -0.136719 l 0.09375 -0.058594 l 0.089844 -0.128906 l 0.21875 -0.058594 l 0.015625 -0.15625 l 0.007812 -0.167968 l -0.023437 -0.222657 l 0.183593 -0.332031 l 0.152344 -0.136719 l 0.074219 -0.171875 l 0.191406 -0.164062 l 0.113281 -0.152344 l 0.023438 -0.230469 l -0.03125 -0.144531 c 0 0 -0.1875 0.132812 -0.222656 0.175781 c 0 0 -0.003906 0 -0.003906 0 c 0 0 0 0.003907 0 0.003907 c 0 0 0 0 0 0.003906 c -0.03125 0.035156 -0.167969 0.125 -0.167969 0.125 l -0.136719 -0.085938 l -0.28125 -0.238281 l -0.160156 -0.214844 l -0.113282 -0.171875 c 0 0 -0.03125 -0.015625 -0.066406 -0.050781 c 0 0 0 -0.003906 0 -0.003906 c -0.03125 -0.035157 -0.058594 -0.183594 -0.089844 -0.21875 c 0 -0.003907 0 -0.003907 0 -0.003907 l -0.003906 -0.003906 c -0.03125 -0.015625 -0.128906 -0.109375 -0.128906 -0.109375 l 0.0625 -0.085937 l 0.097656 0.035156 l 0.089844 0.144531 l 0.085938 0.109375 l 0.03125 0.09375 l 0.140624 0.007813 l 0.03125 0.121093 l 0.085938 0.066407 l 0.058594 0.078125 c 0 0 0.058594 0.035156 0.070312 0.066406 c 0 0 0 0.003906 0 0.003906 c 0.011719 0.03125 0.066406 0.125 0.066406 0.125 l 0.015626 0.15625 l 0.199218 -0.019531 l 0.082032 -0.136719 l 0.160156 -0.136718 l 0.167968 -0.195313 l 0.136719 -0.222656 l 0.058594 -0.167969 l 0.0625 -0.222656 l -0.0625 -0.085938 l -0.121094 0.007813 l -0.074219 -0.058594 l -0.070312 0.109375 l -0.058594 0.105469 l -0.144531 -0.011719 l -0.144531 -0.144531 l -0.039063 -0.101563 l -0.007812 -0.109375 l 0.21875 0.03125 l 0.023437 0.0625 l 0.175782 0.015625 l 0.0625 -0.09375 l 0.1875 -0.007812 c 0 0 0.128906 -0.042969 0.152343 -0.074219 c 0 -0.003906 0 -0.003906 0 -0.003906 c 0.015625 -0.035157 0.097657 -0.160157 0.097657 -0.160157 l 0.101562 -0.027343 l 0.105469 0.085937 l 0.082031 -0.035156 l -0.007812 0.101562 l 0.078124 -0.03125 l 0.015626 -0.148437 l 0.082031 0.199219 l 0.097656 0.152344 l 0.09375 0.136718 c 0 0 0.007813 0.101563 0.074219 0.128906 c 0.058594 0.023438 0.09375 0.054688 0.097656 0.058594 l 0.03125 -0.152344 c 0 -0.007812 0.015625 -0.03125 0.027344 -0.042968 c 0 0 0 -0.003906 0.003906 -0.003906 c 0 0 0.003906 0 0.003906 0 c 0 0 0.003906 0 0.003906 0 c 0 0 0.003907 0 0.003907 0 c 0 0 0 0.003906 0 0.003906 c 0 0 0.003906 0.003906 0.003906 0.003906 c 0 0 0 0.003906 0 0.003906 c 0.015625 0.035156 0.011719 0.105469 0.007813 0.125 l 0.042968 -0.082031 l 0.03125 -0.121094 l -0.082031 -0.023437 l -0.046875 -0.078125 l -0.035156 -0.152344 l -0.003906 -0.199219 l 0.039062 -0.246094 l 0.023438 -0.289062 l 0.03125 -0.195312 l 0.074218 0.152343 l 0.09375 0.144531 l 0.011719 0.015626 l 0.015625 -0.144532 l 0.03125 -0.109375 l 0.007812 -0.109375 l 0.046876 -0.042968 l 0.03125 -0.058594 c -0.09375 -0.921875 -0.4375 -1.765625 -0.960938 -2.449219 l -0.050781 0.074219 l -0.078125 -0.164063 l -0.121094 -0.085937 l -0.089844 -0.007813 l -0.015625 -0.136719 l -0.113281 -0.109374 l -0.152344 -0.070313 l -0.039062 -0.03125 l -0.128906 -0.042969 l -0.136719 -0.042968 l -0.128907 -0.042969 l -0.136718 -0.113281 l -0.304688 -0.082032 l -0.058594 -0.070312 l -0.113281 -0.101563 l -0.121093 -0.050781 l -0.101563 -0.09375 l -0.167969 -0.09375 l -0.164062 -0.035156 l -0.175782 -0.042969 m -1.664062 1.371094 l -0.265625 0.007812 c 0 0 -0.007813 0.003907 -0.007813 0.003907 c 0 0 -0.21875 0.171874 -0.296874 0.203124 c -0.082032 0.035157 -0.164063 0.164063 -0.164063 0.164063 c 0 0 -0.160156 0.007813 -0.191406 0.015625 c 0 0 0 0.003906 0 0.003906 c -0.003907 0 -0.003907 0 -0.003907 0 c -0.003906 0.003906 -0.003906 0.003906 -0.007812 0.003906 c 0 0 0 0.003907 0 0.003907 c -0.035156 0.035156 -0.089844 0.167969 -0.132812 0.199219 c -0.003907 0 -0.003907 0.003906 -0.007813 0.003906 c -0.003906 0 -0.003906 0 -0.003906 0 c 0 0.003906 -0.003907 0.003906 -0.003907 0.003906 c -0.042968 0.039062 -0.046874 0.242188 -0.046874 0.242188 l 0.078124 0.144531 l 0.023438 -0.109375 l 0.179688 -0.101563 l 0.191406 -0.0625 c 0 0 0.28125 -0.015625 0.3125 -0.015625 c 0.035156 0.003906 0.1875 0.058594 0.1875 0.058594 l 0.238281 -0.21875 c 0 0 -0.078125 -0.078125 -0.046875 -0.128906 c 0.03125 -0.050782 0.160156 -0.152344 0.160156 -0.152344 l 0.039063 -0.011719 l 0.007812 -0.023437 m -0.246093 1.492187 l -0.105469 0.007813 l -0.039063 0.164062 l 0.015625 0.09375 l -0.121093 -0.007812 l -0.128907 0.074218 v 0.113282 l 0.046875 0.078125 l 0.113282 0.007812 c 0 0 0.015624 -0.070312 0.046874 -0.105469 c 0.035157 -0.03125 0.105469 -0.050781 0.105469 -0.050781 l 0.042969 0.042969 l -0.058594 0.035156 l -0.078125 0.078125 l -0.019531 0.109375 l -0.007812 0.035156 l 0.089843 0.007813 l 0.054688 -0.007813 l 0.144531 0.015626 v -0.101563 l 0.058594 -0.023437 l -0.039063 -0.078126 v -0.144531 l -0.074219 -0.050781 l 0.015626 -0.121094 l 0.039062 -0.058594 m -1.648438 0.910157 l -0.078124 0.011719 l 0.070312 0.085937 m 2.011719 0.238281 l -0.105469 0.152344 l 0.007812 0.164062 l 0.050782 0.058594 l 0.054687 -0.042968 l -0.007812 -0.15625 m 2.71875 3.082031 l -0.113281 0.085937 l -0.160157 0.070313 l -0.066406 0.050781 l -0.078125 0.171875 l -0.066406 0.101563 l 0.097656 0.101562 l 0.160156 -0.066406 l 0.113282 -0.242188 l 0.097656 -0.1875" style="fill-rule:evenodd"/><path d="m 8.015625 10.980469 v 0.808593 h 4.886719 v -0.808593"/><path d="m 12.453125 11.789062 h 0.707031 v -7.160156 h -0.707031"/><path d="m 9.433594 8.371094 v 0.808594 h 3.449218 v -0.808594"/></g></svg>