<svg xmlns="http://www.w3.org/2000/svg" viewBox="0 0 16 16"><path d="m 3.761719 1.648438 c 8.183593 -5.753907 16.472656 4.871093 9.804687 11.648437 c -6.28125 6.386719 -16.042968 0.46875 -12.988281 -7.480469 c 0.632813 -1.65625 1.679687 -3.113281 3.183594 -4.167968" style="fill:#ff8c00"/><path d="M 7.867188 3.242188 C 7.503906 3.242188 7.15625 3.292969 6.820312 3.375 C 6.660156 3.414062 6.507812 3.464844 6.359375 3.519531 C 6.296875 3.542969 6.238281 3.5625 6.179688 3.589844 C 6.175781 3.589844 6.175781 3.589844 6.175781 3.589844 C 5.828125 3.734375 5.507812 3.929688 5.210938 4.15625 C 5.195312 4.167969 5.175781 4.183594 5.15625 4.199219 C 5.023438 4.304688 4.890625 4.417969 4.769531 4.542969 C 4.761719 4.550781 4.753906 4.554688 4.75 4.5625 C 4.484375 4.828125 4.25 5.132812 4.054688 5.460938 C 4.046875 5.476562 4.035156 5.488281 4.027344 5.503906 C 3.9375 5.664062 3.851562 5.828125 3.777344 5.996094 C 3.773438 6.003906 3.773438 6.007812 3.769531 6.011719 C 3.613281 6.375 3.496094 6.765625 3.425781 7.171875 C 3.382812 7.445312 3.355469 7.722656 3.355469 8.003906 C 3.355469 10.03125 4.542969 11.75 6.226562 12.441406 C 6.226562 12.441406 6.226562 12.445312 6.230469 12.445312 C 6.234375 12.445312 6.238281 12.445312 6.242188 12.449219 C 6.425781 12.523438 6.621094 12.585938 6.816406 12.636719 C 6.820312 12.636719 6.820312 12.636719 6.824219 12.640625 C 7.160156 12.722656 7.507812 12.769531 7.867188 12.769531 C 8.257812 12.769531 8.632812 12.710938 8.992188 12.613281 L 8.992188 11.996094 C 8.636719 12.109375 8.257812 12.175781 7.867188 12.175781 C 7.386719 12.175781 6.933594 12.082031 6.507812 11.917969 C 6.519531 11.910156 6.53125 11.90625 6.53125 11.894531 C 6.535156 11.871094 6.527344 11.859375 6.523438 11.820312 C 6.535156 11.785156 6.574219 11.777344 6.582031 11.738281 C 6.566406 11.710938 6.527344 11.730469 6.503906 11.714844 C 6.480469 11.703125 6.472656 11.667969 6.476562 11.640625 C 6.515625 11.621094 6.589844 11.679688 6.617188 11.625 C 6.632812 11.597656 6.601562 11.527344 6.621094 11.5 C 6.636719 11.484375 6.707031 11.480469 6.734375 11.476562 C 6.773438 11.46875 6.820312 11.460938 6.84375 11.445312 C 6.867188 11.429688 6.90625 11.378906 6.902344 11.332031 C 6.898438 11.308594 6.882812 11.296875 6.867188 11.277344 C 6.851562 11.261719 6.847656 11.238281 6.835938 11.222656 C 6.820312 11.195312 6.792969 11.199219 6.785156 11.160156 C 6.839844 11.148438 6.921875 11.207031 7 11.183594 C 7.035156 11.171875 7.085938 11.085938 7.105469 11.050781 C 7.109375 11.039062 7.109375 11.023438 7.117188 11.007812 C 7.121094 10.992188 7.136719 10.980469 7.140625 10.972656 C 7.144531 10.949219 7.140625 10.933594 7.144531 10.917969 C 7.160156 10.878906 7.195312 10.867188 7.21875 10.835938 C 7.234375 10.8125 7.242188 10.789062 7.257812 10.765625 C 7.277344 10.742188 7.292969 10.71875 7.304688 10.699219 C 7.316406 10.625 7.277344 10.574219 7.292969 10.511719 C 7.3125 10.4375 7.402344 10.394531 7.46875 10.363281 C 7.492188 10.351562 7.515625 10.335938 7.535156 10.328125 C 7.578125 10.3125 7.636719 10.320312 7.675781 10.304688 C 7.746094 10.277344 7.753906 10.195312 7.789062 10.128906 C 7.808594 10.097656 7.828125 10.0625 7.832031 10.042969 C 7.832031 10.019531 7.824219 10 7.828125 9.976562 C 7.832031 9.953125 7.851562 9.933594 7.859375 9.90625 C 7.867188 9.871094 7.871094 9.820312 7.871094 9.78125 C 7.871094 9.75 7.855469 9.722656 7.855469 9.695312 C 7.847656 9.59375 7.890625 9.582031 7.925781 9.523438 C 7.941406 9.496094 7.949219 9.464844 7.964844 9.445312 C 8.023438 9.347656 8.128906 9.304688 8.121094 9.160156 C 8.117188 9.109375 8.089844 9.003906 8.058594 8.988281 C 8.039062 8.980469 7.996094 8.988281 7.96875 8.976562 C 7.878906 8.941406 7.824219 8.824219 7.734375 8.816406 C 7.714844 8.816406 7.695312 8.824219 7.671875 8.824219 C 7.636719 8.824219 7.582031 8.796875 7.542969 8.792969 C 7.515625 8.789062 7.480469 8.800781 7.464844 8.792969 C 7.441406 8.78125 7.441406 8.734375 7.421875 8.722656 C 7.40625 8.710938 7.378906 8.707031 7.355469 8.699219 C 7.316406 8.683594 7.285156 8.664062 7.242188 8.660156 C 7.230469 8.660156 7.214844 8.667969 7.199219 8.664062 C 7.175781 8.660156 7.15625 8.632812 7.132812 8.617188 C 7.109375 8.601562 7.082031 8.589844 7.070312 8.566406 C 7.09375 8.480469 7.027344 8.457031 7.011719 8.40625 C 7.003906 8.382812 7.007812 8.355469 7 8.335938 C 6.992188 8.304688 6.960938 8.289062 6.933594 8.265625 C 6.878906 8.21875 6.828125 8.179688 6.75 8.167969 C 6.71875 8.164062 6.683594 8.179688 6.644531 8.175781 C 6.597656 8.171875 6.542969 8.132812 6.511719 8.09375 C 6.480469 8.054688 6.464844 8.019531 6.4375 8.003906 C 6.410156 7.984375 6.375 7.984375 6.355469 7.964844 C 6.347656 7.957031 6.347656 7.945312 6.339844 7.925781 C 6.328125 7.898438 6.304688 7.882812 6.324219 7.847656 C 6.292969 7.832031 6.292969 7.875 6.257812 7.871094 C 6.230469 7.828125 6.207031 7.804688 6.140625 7.820312 C 6.109375 7.824219 6.09375 7.863281 6.054688 7.867188 C 6.027344 7.867188 6.003906 7.832031 5.964844 7.828125 C 5.9375 7.820312 5.902344 7.835938 5.882812 7.832031 C 5.851562 7.824219 5.839844 7.796875 5.8125 7.773438 C 5.789062 7.761719 5.75 7.734375 5.734375 7.734375 C 5.699219 7.734375 5.671875 7.820312 5.617188 7.789062 C 5.59375 7.757812 5.660156 7.738281 5.628906 7.707031 C 5.605469 7.683594 5.589844 7.71875 5.570312 7.730469 C 5.550781 7.746094 5.53125 7.761719 5.507812 7.769531 C 5.453125 7.792969 5.421875 7.78125 5.382812 7.804688 C 5.34375 7.824219 5.34375 7.859375 5.320312 7.898438 C 5.304688 7.933594 5.265625 7.980469 5.238281 7.984375 C 5.207031 7.984375 5.179688 7.933594 5.148438 7.921875 C 5.0625 7.882812 5.023438 7.957031 4.949219 7.957031 C 4.882812 7.957031 4.789062 7.84375 4.792969 7.777344 C 4.792969 7.738281 4.8125 7.675781 4.816406 7.628906 C 4.820312 7.589844 4.847656 7.566406 4.847656 7.527344 C 4.847656 7.480469 4.789062 7.441406 4.757812 7.4375 C 4.6875 7.421875 4.589844 7.464844 4.507812 7.433594 C 4.496094 7.40625 4.527344 7.386719 4.535156 7.363281 C 4.542969 7.347656 4.539062 7.328125 4.542969 7.308594 C 4.554688 7.285156 4.578125 7.265625 4.589844 7.238281 C 4.597656 7.21875 4.597656 7.1875 4.609375 7.164062 C 4.617188 7.132812 4.636719 7.117188 4.636719 7.097656 C 4.640625 7.070312 4.632812 7.039062 4.609375 7.019531 C 4.546875 7.023438 4.507812 7.027344 4.472656 7.042969 C 4.390625 7.082031 4.40625 7.199219 4.324219 7.226562 C 4.296875 7.234375 4.257812 7.238281 4.226562 7.242188 C 4.199219 7.25 4.167969 7.261719 4.140625 7.261719 C 4.109375 7.261719 4.050781 7.226562 4.03125 7.207031 C 4.023438 7.199219 4.015625 7.175781 4.003906 7.148438 C 4.050781 6.925781 4.113281 6.707031 4.191406 6.496094 C 4.242188 6.464844 4.289062 6.417969 4.351562 6.414062 C 4.382812 6.414062 4.429688 6.425781 4.460938 6.429688 C 4.488281 6.4375 4.511719 6.457031 4.535156 6.457031 C 4.605469 6.464844 4.621094 6.40625 4.679688 6.375 C 4.738281 6.382812 4.777344 6.363281 4.828125 6.371094 C 4.867188 6.375 4.890625 6.417969 4.917969 6.417969 C 4.945312 6.421875 4.964844 6.394531 4.988281 6.398438 C 5.011719 6.402344 5.046875 6.453125 5.050781 6.480469 C 5.054688 6.519531 5.027344 6.550781 5.035156 6.589844 C 5.070312 6.628906 5.136719 6.636719 5.1875 6.65625 C 5.222656 6.628906 5.191406 6.574219 5.1875 6.535156 C 5.1875 6.515625 5.191406 6.5 5.1875 6.480469 C 5.183594 6.453125 5.171875 6.425781 5.171875 6.402344 C 5.171875 6.289062 5.257812 6.238281 5.332031 6.191406 C 5.363281 6.171875 5.386719 6.140625 5.414062 6.125 C 5.449219 6.105469 5.480469 6.097656 5.511719 6.082031 C 5.566406 6.046875 5.617188 6.019531 5.664062 5.980469 C 5.683594 5.929688 5.664062 5.863281 5.664062 5.8125 C 5.6875 5.796875 5.703125 5.816406 5.726562 5.8125 C 5.761719 5.804688 5.761719 5.753906 5.78125 5.734375 C 5.792969 5.722656 5.824219 5.714844 5.839844 5.703125 C 5.875 5.671875 5.882812 5.632812 5.914062 5.617188 C 5.925781 5.613281 5.949219 5.617188 5.964844 5.609375 C 5.988281 5.601562 6.019531 5.574219 6.058594 5.5625 C 6.082031 5.554688 6.136719 5.550781 6.144531 5.542969 C 6.15625 5.53125 6.144531 5.5 6.148438 5.480469 C 6.164062 5.390625 6.292969 5.371094 6.371094 5.339844 C 6.421875 5.320312 6.476562 5.28125 6.535156 5.292969 C 6.523438 5.335938 6.46875 5.320312 6.476562 5.371094 C 6.492188 5.445312 6.582031 5.351562 6.605469 5.339844 C 6.652344 5.320312 6.730469 5.308594 6.789062 5.285156 C 6.84375 5.265625 6.9375 5.234375 6.886719 5.167969 C 6.847656 5.167969 6.828125 5.21875 6.789062 5.238281 C 6.765625 5.242188 6.769531 5.214844 6.75 5.210938 C 6.730469 5.210938 6.71875 5.234375 6.695312 5.226562 C 6.675781 5.226562 6.648438 5.191406 6.644531 5.164062 C 6.636719 5.097656 6.695312 5.070312 6.722656 5.023438 C 6.707031 4.960938 6.628906 5.011719 6.578125 4.988281 C 6.585938 4.949219 6.621094 4.925781 6.660156 4.917969 C 6.691406 4.914062 6.765625 4.917969 6.785156 4.933594 C 6.796875 4.945312 6.785156 4.96875 6.800781 4.988281 C 6.820312 5.003906 6.84375 5.003906 6.871094 4.996094 C 6.878906 4.953125 6.8125 4.964844 6.820312 4.933594 C 6.871094 4.898438 6.953125 4.929688 7.015625 4.917969 C 7.054688 4.914062 7.089844 4.886719 7.121094 4.867188 C 7.152344 4.847656 7.191406 4.816406 7.222656 4.847656 C 7.234375 4.878906 7.195312 4.890625 7.179688 4.90625 C 7.121094 4.960938 7.0625 5.023438 7.015625 5.085938 C 7.046875 5.113281 7.09375 5.101562 7.140625 5.105469 C 7.160156 5.109375 7.183594 5.113281 7.199219 5.117188 C 7.222656 5.121094 7.246094 5.121094 7.265625 5.125 C 7.296875 5.132812 7.304688 5.167969 7.335938 5.167969 C 7.386719 5.167969 7.386719 5.109375 7.359375 5.074219 C 7.367188 5.035156 7.382812 5.015625 7.371094 4.988281 C 7.347656 4.941406 7.261719 4.988281 7.257812 4.925781 C 7.253906 4.886719 7.289062 4.890625 7.300781 4.859375 C 7.296875 4.78125 7.363281 4.777344 7.355469 4.707031 C 7.351562 4.679688 7.328125 4.679688 7.308594 4.652344 C 7.300781 4.640625 7.296875 4.609375 7.285156 4.601562 C 7.242188 4.566406 7.164062 4.570312 7.160156 4.503906 C 7.15625 4.464844 7.167969 4.433594 7.164062 4.390625 C 7.160156 4.351562 7.132812 4.238281 7.101562 4.230469 C 7.058594 4.222656 7.011719 4.296875 6.964844 4.320312 C 6.9375 4.335938 6.898438 4.351562 6.871094 4.34375 C 6.851562 4.34375 6.816406 4.3125 6.8125 4.277344 C 6.808594 4.238281 6.839844 4.234375 6.847656 4.191406 C 6.839844 4.164062 6.8125 4.171875 6.789062 4.152344 C 6.761719 4.128906 6.742188 4.082031 6.703125 4.078125 C 6.683594 4.074219 6.660156 4.089844 6.644531 4.09375 C 6.609375 4.09375 6.582031 4.085938 6.554688 4.078125 C 6.644531 4.042969 6.738281 4.011719 6.832031 3.984375 C 6.847656 4.003906 6.855469 4.042969 6.878906 4.054688 C 6.890625 4.066406 6.914062 4.0625 6.933594 4.066406 C 6.988281 4.085938 7.035156 4.117188 7.09375 4.105469 C 7.117188 4.066406 7.050781 4.054688 7.078125 4.023438 C 7.117188 4.027344 7.144531 4.046875 7.175781 4.058594 C 7.21875 4.027344 7.246094 4.023438 7.246094 3.96875 C 7.246094 3.9375 7.21875 3.921875 7.203125 3.898438 C 7.238281 3.894531 7.273438 3.886719 7.304688 3.882812 C 7.3125 3.890625 7.320312 3.90625 7.328125 3.90625 C 7.351562 3.910156 7.414062 3.875 7.425781 3.871094 C 7.429688 3.867188 7.433594 3.863281 7.4375 3.863281 C 7.578125 3.84375 7.722656 3.835938 7.871094 3.835938 C 8.542969 3.835938 9.175781 4.011719 9.730469 4.324219 C 9.710938 4.332031 9.695312 4.335938 9.671875 4.34375 C 9.644531 4.355469 9.597656 4.402344 9.589844 4.417969 C 9.578125 4.449219 9.59375 4.476562 9.589844 4.523438 C 9.609375 4.53125 9.625 4.574219 9.660156 4.597656 C 9.675781 4.605469 9.691406 4.601562 9.703125 4.609375 C 9.726562 4.621094 9.742188 4.648438 9.738281 4.671875 C 9.734375 4.707031 9.691406 4.695312 9.671875 4.71875 C 9.675781 4.765625 9.640625 4.773438 9.628906 4.804688 C 9.636719 4.824219 9.664062 4.820312 9.667969 4.84375 C 9.664062 4.867188 9.621094 4.871094 9.628906 4.898438 C 9.671875 4.933594 9.710938 4.894531 9.75 4.886719 C 9.835938 4.875 9.921875 4.898438 9.972656 4.855469 C 9.964844 4.8125 10.015625 4.800781 10.011719 4.761719 C 10.007812 4.734375 9.960938 4.726562 9.941406 4.707031 C 9.933594 4.699219 9.929688 4.671875 9.917969 4.652344 C 9.902344 4.628906 9.875 4.613281 9.855469 4.589844 C 9.835938 4.558594 9.789062 4.515625 9.789062 4.492188 C 9.789062 4.464844 9.820312 4.457031 9.824219 4.417969 C 9.820312 4.386719 9.757812 4.40625 9.753906 4.371094 C 9.753906 4.359375 9.761719 4.351562 9.765625 4.34375 C 9.9375 4.445312 10.101562 4.5625 10.257812 4.6875 C 10.253906 4.6875 10.253906 4.6875 10.25 4.6875 C 10.214844 4.691406 10.199219 4.742188 10.167969 4.78125 C 10.148438 4.808594 10.105469 4.839844 10.074219 4.851562 C 10.058594 4.859375 10.039062 4.859375 10.023438 4.867188 C 10.003906 4.882812 9.996094 4.917969 9.972656 4.9375 C 9.957031 4.949219 9.890625 4.984375 9.871094 4.984375 C 9.851562 4.984375 9.828125 4.960938 9.816406 4.96875 C 9.792969 4.976562 9.792969 5.023438 9.769531 5.03125 C 9.71875 5.050781 9.636719 4.984375 9.617188 5.0625 C 9.640625 5.109375 9.695312 5.097656 9.730469 5.121094 C 9.753906 5.136719 9.804688 5.207031 9.808594 5.234375 C 9.816406 5.257812 9.808594 5.34375 9.800781 5.371094 C 9.777344 5.433594 9.722656 5.414062 9.652344 5.410156 C 9.632812 5.410156 9.613281 5.414062 9.597656 5.414062 C 9.480469 5.40625 9.363281 5.359375 9.308594 5.449219 C 9.3125 5.515625 9.328125 5.5625 9.3125 5.621094 C 9.304688 5.664062 9.265625 5.703125 9.269531 5.738281 C 9.269531 5.757812 9.289062 5.777344 9.292969 5.804688 C 9.296875 5.816406 9.289062 5.847656 9.292969 5.859375 C 9.3125 5.898438 9.367188 5.867188 9.398438 5.871094 C 9.433594 5.878906 9.472656 5.925781 9.472656 5.96875 C 9.472656 5.996094 9.445312 6.039062 9.429688 6.066406 C 9.398438 6.117188 9.351562 6.121094 9.304688 6.148438 C 9.265625 6.171875 9.25 6.210938 9.226562 6.253906 C 9.203125 6.296875 9.1875 6.324219 9.199219 6.386719 C 9.164062 6.457031 9.113281 6.503906 9.042969 6.535156 C 9.023438 6.546875 8.992188 6.550781 8.972656 6.5625 C 8.960938 6.574219 8.949219 6.605469 8.929688 6.632812 C 8.902344 6.664062 8.875 6.675781 8.863281 6.699219 C 8.851562 6.71875 8.847656 6.753906 8.835938 6.777344 C 8.820312 6.8125 8.785156 6.828125 8.765625 6.863281 C 8.753906 6.878906 8.75 6.910156 8.738281 6.929688 C 8.714844 6.976562 8.671875 7.007812 8.675781 7.050781 C 8.679688 7.089844 8.722656 7.09375 8.726562 7.128906 C 8.730469 7.148438 8.714844 7.160156 8.714844 7.179688 C 8.714844 7.210938 8.734375 7.230469 8.738281 7.253906 C 8.742188 7.3125 8.71875 7.335938 8.707031 7.378906 C 8.703125 7.398438 8.703125 7.417969 8.699219 7.433594 C 8.691406 7.464844 8.652344 7.492188 8.652344 7.527344 C 8.648438 7.550781 8.675781 7.570312 8.675781 7.605469 C 8.679688 7.628906 8.664062 7.65625 8.667969 7.675781 C 8.675781 7.722656 8.75 7.769531 8.78125 7.804688 C 8.824219 7.847656 8.882812 7.882812 8.898438 7.929688 C 8.914062 7.972656 8.914062 8.023438 8.945312 8.054688 C 8.964844 8.078125 9.003906 8.089844 9.03125 8.113281 C 9.058594 8.136719 9.085938 8.15625 9.113281 8.175781 C 9.160156 8.214844 9.230469 8.292969 9.300781 8.285156 C 9.339844 8.28125 9.378906 8.25 9.421875 8.242188 C 9.46875 8.234375 9.523438 8.230469 9.570312 8.234375 C 9.605469 8.238281 9.640625 8.257812 9.675781 8.257812 C 9.710938 8.253906 9.757812 8.226562 9.800781 8.207031 C 9.875 8.171875 9.984375 8.125 10.09375 8.140625 C 10.175781 8.15625 10.171875 8.253906 10.230469 8.292969 C 10.296875 8.296875 10.347656 8.265625 10.402344 8.28125 C 10.441406 8.292969 10.488281 8.355469 10.492188 8.386719 C 10.496094 8.421875 10.472656 8.476562 10.46875 8.496094 C 10.457031 8.542969 10.457031 8.597656 10.449219 8.625 C 10.445312 8.648438 10.425781 8.664062 10.425781 8.6875 C 10.429688 8.707031 10.453125 8.757812 10.472656 8.785156 C 10.496094 8.820312 10.539062 8.84375 10.566406 8.882812 C 10.621094 8.949219 10.644531 9.027344 10.683594 9.117188 C 10.695312 9.140625 10.703125 9.167969 10.710938 9.195312 L 12.226562 9.195312 C 12.257812 9.066406 12.292969 8.9375 12.3125 8.804688 C 12.320312 8.757812 12.328125 8.710938 12.332031 8.664062 C 12.363281 8.449219 12.382812 8.230469 12.382812 8.003906 C 12.382812 7.824219 12.371094 7.648438 12.351562 7.472656 C 12.332031 7.300781 12.304688 7.128906 12.269531 6.957031 C 12.242188 6.828125 12.210938 6.699219 12.175781 6.574219 C 12.167969 6.554688 12.160156 6.53125 12.152344 6.507812 C 12.128906 6.4375 12.105469 6.371094 12.082031 6.300781 C 12.046875 6.210938 12.015625 6.125 11.980469 6.042969 C 11.976562 6.039062 11.976562 6.035156 11.976562 6.03125 C 11.972656 6.03125 11.972656 6.027344 11.972656 6.023438 C 11.957031 5.992188 11.941406 5.960938 11.929688 5.929688 C 11.875 5.808594 11.816406 5.695312 11.753906 5.582031 C 11.75 5.578125 11.75 5.578125 11.75 5.574219 C 11.71875 5.515625 11.683594 5.457031 11.648438 5.402344 C 11.5625 5.261719 11.46875 5.121094 11.367188 4.992188 C 11.265625 4.859375 11.15625 4.734375 11.042969 4.613281 C 10.992188 4.558594 10.9375 4.507812 10.882812 4.457031 C 10.878906 4.457031 10.878906 4.457031 10.878906 4.457031 C 10.71875 4.304688 10.550781 4.164062 10.371094 4.039062 C 9.65625 3.535156 8.796875 3.238281 7.871094 3.238281 Z M 6.445312 4.117188 C 6.433594 4.144531 6.421875 4.171875 6.394531 4.179688 C 6.402344 4.21875 6.351562 4.242188 6.347656 4.273438 C 6.34375 4.292969 6.351562 4.320312 6.351562 4.335938 C 6.363281 4.527344 6.214844 4.617188 6.039062 4.613281 C 6.003906 4.648438 6.015625 4.710938 5.996094 4.757812 C 5.980469 4.800781 5.925781 4.84375 5.886719 4.839844 C 5.859375 4.835938 5.828125 4.792969 5.828125 4.765625 C 5.828125 4.734375 5.875 4.714844 5.84375 4.675781 C 5.847656 4.648438 5.90625 4.632812 5.898438 4.59375 C 5.890625 4.546875 5.832031 4.570312 5.78125 4.5625 C 5.753906 4.558594 5.71875 4.542969 5.6875 4.527344 C 5.925781 4.363281 6.179688 4.226562 6.445312 4.117188 Z M 9.496094 4.566406 C 9.480469 4.570312 9.464844 4.574219 9.453125 4.582031 C 9.425781 4.597656 9.414062 4.628906 9.390625 4.636719 C 9.363281 4.648438 9.339844 4.636719 9.335938 4.667969 C 9.332031 4.691406 9.355469 4.703125 9.355469 4.726562 C 9.34375 4.757812 9.3125 4.765625 9.304688 4.800781 C 9.34375 4.863281 9.4375 4.804688 9.484375 4.792969 C 9.503906 4.785156 9.535156 4.785156 9.546875 4.769531 C 9.558594 4.746094 9.546875 4.710938 9.558594 4.679688 C 9.570312 4.644531 9.597656 4.640625 9.59375 4.613281 C 9.59375 4.582031 9.542969 4.5625 9.496094 4.566406 Z M 5.355469 5.03125 C 5.390625 5.039062 5.480469 5.144531 5.40625 5.175781 C 5.398438 5.179688 5.296875 5.191406 5.277344 5.1875 C 5.253906 5.183594 5.238281 5.144531 5.210938 5.140625 C 5.160156 5.132812 5.089844 5.207031 5.054688 5.144531 C 5.0625 5.109375 5.097656 5.109375 5.140625 5.097656 C 5.210938 5.078125 5.296875 5.011719 5.355469 5.03125 Z M 5.5 5.222656 C 5.519531 5.222656 5.539062 5.242188 5.5625 5.246094 C 5.582031 5.246094 5.597656 5.234375 5.609375 5.234375 C 5.640625 5.246094 5.652344 5.296875 5.625 5.320312 C 5.597656 5.324219 5.589844 5.308594 5.570312 5.3125 C 5.519531 5.320312 5.5 5.425781 5.460938 5.425781 C 5.425781 5.421875 5.40625 5.328125 5.445312 5.300781 C 5.445312 5.277344 5.425781 5.273438 5.429688 5.25 C 5.441406 5.234375 5.46875 5.21875 5.5 5.222656 Z M 5.332031 5.234375 C 5.339844 5.234375 5.351562 5.234375 5.355469 5.242188 C 5.347656 5.28125 5.316406 5.28125 5.285156 5.300781 C 5.230469 5.335938 5.203125 5.386719 5.183594 5.460938 C 5.179688 5.480469 5.128906 5.535156 5.101562 5.53125 C 5.042969 5.519531 5.117188 5.402344 5.132812 5.382812 C 5.148438 5.363281 5.167969 5.347656 5.183594 5.324219 C 5.203125 5.304688 5.214844 5.273438 5.230469 5.261719 C 5.246094 5.246094 5.300781 5.230469 5.332031 5.234375 Z M 10.691406 5.257812 C 10.71875 5.265625 10.714844 5.289062 10.738281 5.304688 C 10.75 5.316406 10.773438 5.3125 10.789062 5.324219 C 10.808594 5.335938 10.820312 5.371094 10.839844 5.390625 C 10.871094 5.417969 10.929688 5.441406 10.972656 5.460938 C 10.980469 5.46875 10.992188 5.472656 11.003906 5.476562 C 11.03125 5.519531 11.0625 5.554688 11.089844 5.597656 C 11.085938 5.601562 11.085938 5.609375 11.085938 5.613281 C 11.089844 5.636719 11.105469 5.660156 11.117188 5.675781 C 11.144531 5.71875 11.1875 5.757812 11.21875 5.808594 C 11.21875 5.859375 11.238281 5.886719 11.269531 5.898438 C 11.332031 6.007812 11.386719 6.121094 11.4375 6.234375 C 11.421875 6.234375 11.40625 6.234375 11.386719 6.230469 C 11.351562 6.160156 11.164062 6.15625 11.148438 6.257812 C 11.140625 6.300781 11.167969 6.363281 11.105469 6.371094 C 11.066406 6.378906 11.023438 6.328125 10.96875 6.316406 C 10.949219 6.308594 10.917969 6.316406 10.898438 6.308594 C 10.859375 6.292969 10.863281 6.25 10.828125 6.226562 C 10.808594 6.210938 10.753906 6.1875 10.722656 6.183594 C 10.703125 6.183594 10.683594 6.191406 10.660156 6.1875 C 10.636719 6.183594 10.597656 6.167969 10.578125 6.152344 C 10.558594 6.140625 10.515625 6.121094 10.511719 6.101562 C 10.503906 6.070312 10.5625 6.039062 10.5625 6.011719 C 10.566406 5.996094 10.542969 5.984375 10.539062 5.953125 C 10.535156 5.9375 10.542969 5.917969 10.539062 5.90625 C 10.535156 5.886719 10.503906 5.863281 10.472656 5.863281 C 10.445312 5.863281 10.421875 5.886719 10.398438 5.886719 C 10.363281 5.886719 10.308594 5.867188 10.269531 5.871094 C 10.246094 5.871094 10.222656 5.886719 10.199219 5.890625 C 10.132812 5.894531 10.078125 5.886719 10.027344 5.890625 C 9.992188 5.890625 9.925781 5.90625 9.894531 5.921875 C 9.875 5.929688 9.863281 5.949219 9.839844 5.960938 C 9.828125 5.96875 9.816406 5.96875 9.804688 5.972656 C 9.78125 5.984375 9.757812 6.007812 9.738281 6.011719 C 9.710938 6.019531 9.664062 6.007812 9.609375 6.007812 C 9.574219 6.011719 9.507812 6.011719 9.507812 5.960938 C 9.507812 5.886719 9.628906 5.914062 9.695312 5.902344 C 9.71875 5.898438 9.730469 5.871094 9.761719 5.855469 C 9.773438 5.84375 9.792969 5.84375 9.804688 5.835938 C 9.828125 5.816406 9.863281 5.777344 9.867188 5.757812 C 9.871094 5.742188 9.855469 5.714844 9.859375 5.703125 C 9.863281 5.6875 9.878906 5.667969 9.902344 5.648438 C 9.933594 5.613281 9.964844 5.570312 10.003906 5.546875 C 10.03125 5.535156 10.070312 5.535156 10.082031 5.511719 C 10.085938 5.484375 10.078125 5.472656 10.078125 5.449219 C 10.09375 5.433594 10.105469 5.417969 10.117188 5.417969 C 10.160156 5.40625 10.199219 5.445312 10.246094 5.445312 C 10.265625 5.445312 10.285156 5.429688 10.308594 5.414062 C 10.324219 5.398438 10.34375 5.390625 10.363281 5.378906 C 10.382812 5.371094 10.402344 5.347656 10.429688 5.34375 C 10.488281 5.339844 10.511719 5.410156 10.539062 5.449219 C 10.558594 5.480469 10.625 5.53125 10.660156 5.554688 C 10.679688 5.566406 10.710938 5.570312 10.730469 5.578125 C 10.78125 5.601562 10.878906 5.679688 10.878906 5.730469 C 10.882812 5.753906 10.859375 5.773438 10.859375 5.796875 C 10.898438 5.804688 10.9375 5.761719 10.9375 5.722656 C 10.941406 5.699219 10.917969 5.683594 10.921875 5.660156 C 10.9375 5.621094 10.988281 5.660156 11.011719 5.644531 C 11.007812 5.597656 10.949219 5.59375 10.914062 5.570312 C 10.894531 5.558594 10.882812 5.53125 10.859375 5.523438 C 10.832031 5.511719 10.800781 5.515625 10.777344 5.496094 C 10.757812 5.480469 10.746094 5.441406 10.726562 5.414062 C 10.695312 5.375 10.628906 5.367188 10.648438 5.28125 C 10.65625 5.269531 10.675781 5.25 10.691406 5.253906 Z M 5.777344 5.375 C 5.796875 5.378906 5.8125 5.378906 5.820312 5.386719 C 5.808594 5.441406 5.699219 5.425781 5.660156 5.410156 C 5.664062 5.390625 5.691406 5.382812 5.71875 5.378906 C 5.734375 5.378906 5.757812 5.375 5.777344 5.375 Z M 10.4375 5.472656 C 10.414062 5.480469 10.402344 5.535156 10.4375 5.542969 C 10.457031 5.53125 10.46875 5.515625 10.464844 5.484375 C 10.453125 5.472656 10.445312 5.46875 10.4375 5.472656 Z M 5.53125 5.472656 C 5.542969 5.472656 5.558594 5.472656 5.570312 5.480469 C 5.535156 5.507812 5.5 5.527344 5.4375 5.546875 C 5.410156 5.554688 5.363281 5.570312 5.355469 5.535156 C 5.351562 5.492188 5.398438 5.503906 5.425781 5.5 C 5.457031 5.496094 5.492188 5.472656 5.53125 5.472656 Z M 10.429688 5.585938 C 10.417969 5.585938 10.402344 5.597656 10.390625 5.609375 C 10.390625 5.65625 10.394531 5.683594 10.386719 5.722656 C 10.410156 5.773438 10.464844 5.726562 10.476562 5.695312 C 10.492188 5.613281 10.464844 5.574219 10.429688 5.585938 Z M 10.75 5.804688 C 10.714844 5.800781 10.683594 5.804688 10.664062 5.820312 C 10.691406 5.867188 10.75 5.882812 10.8125 5.898438 C 10.835938 5.878906 10.835938 5.839844 10.847656 5.808594 C 10.820312 5.808594 10.785156 5.804688 10.75 5.804688 Z M 4.070312 7.417969 C 4.164062 7.414062 4.203125 7.542969 4.277344 7.582031 C 4.296875 7.589844 4.320312 7.59375 4.34375 7.597656 C 4.363281 7.601562 4.378906 7.609375 4.398438 7.617188 C 4.4375 7.632812 4.484375 7.628906 4.519531 7.644531 C 4.566406 7.667969 4.601562 7.761719 4.640625 7.789062 C 4.644531 7.8125 4.636719 7.847656 4.644531 7.867188 C 4.664062 7.894531 4.691406 7.890625 4.722656 7.90625 C 4.761719 7.929688 4.773438 7.984375 4.8125 8.003906 C 4.824219 8.007812 4.855469 8.007812 4.875 8.015625 C 4.925781 8.03125 4.941406 8.09375 4.984375 8.078125 C 5.011719 8.070312 5.007812 8.039062 5.011719 8.011719 C 5.03125 7.992188 5.054688 7.957031 5.082031 7.957031 C 5.128906 7.957031 5.132812 8.007812 5.148438 8.054688 C 5.160156 8.082031 5.183594 8.105469 5.191406 8.132812 C 5.203125 8.183594 5.195312 8.332031 5.1875 8.359375 C 5.175781 8.398438 5.128906 8.414062 5.101562 8.453125 C 5.085938 8.472656 5.082031 8.5 5.070312 8.511719 C 5.050781 8.535156 5.023438 8.542969 5.011719 8.5625 C 5.003906 8.578125 4.996094 8.601562 4.988281 8.621094 C 4.964844 8.671875 4.933594 8.707031 4.953125 8.765625 C 4.960938 8.792969 5 8.808594 5 8.835938 C 5 8.871094 4.929688 8.902344 4.925781 8.941406 C 4.921875 8.96875 4.945312 9.019531 4.953125 9.058594 C 4.960938 9.085938 5.007812 9.101562 5.027344 9.121094 C 5.050781 9.152344 5.074219 9.195312 5.097656 9.234375 C 5.144531 9.3125 5.183594 9.40625 5.230469 9.480469 C 5.253906 9.523438 5.289062 9.554688 5.304688 9.597656 C 5.3125 9.617188 5.3125 9.640625 5.320312 9.660156 C 5.347656 9.726562 5.464844 9.792969 5.527344 9.824219 C 5.554688 9.839844 5.585938 9.84375 5.613281 9.859375 C 5.652344 9.882812 5.730469 9.945312 5.75 9.984375 C 5.769531 10.015625 5.78125 10.097656 5.789062 10.148438 C 5.800781 10.21875 5.789062 10.273438 5.792969 10.347656 C 5.792969 10.390625 5.808594 10.429688 5.808594 10.472656 C 5.808594 10.488281 5.800781 10.496094 5.800781 10.511719 C 5.796875 10.5625 5.8125 10.617188 5.808594 10.667969 C 5.804688 10.695312 5.796875 10.71875 5.800781 10.738281 C 5.800781 10.765625 5.8125 10.785156 5.816406 10.804688 C 5.816406 10.828125 5.808594 10.859375 5.808594 10.878906 C 5.816406 10.929688 5.851562 10.96875 5.859375 11.011719 C 5.867188 11.050781 5.871094 11.125 5.867188 11.167969 C 5.863281 11.191406 5.851562 11.214844 5.847656 11.238281 C 5.847656 11.257812 5.851562 11.28125 5.847656 11.300781 C 5.847656 11.328125 5.828125 11.347656 5.832031 11.375 C 5.835938 11.429688 5.890625 11.472656 5.898438 11.527344 C 5.902344 11.542969 5.894531 11.566406 5.894531 11.582031 C 5.894531 11.597656 5.902344 11.613281 5.90625 11.628906 C 4.714844 10.910156 3.917969 9.5625 3.917969 8.007812 C 3.917969 7.820312 3.933594 7.640625 3.953125 7.460938 C 3.988281 7.460938 4.027344 7.417969 4.066406 7.417969 Z M 5.601562 7.867188 C 5.636719 7.851562 5.648438 7.925781 5.617188 7.929688 C 5.589844 7.933594 5.574219 7.882812 5.601562 7.867188 Z M 9.558594 9.792969 L 9.558594 12.175781 L 10.6875 12.175781 L 10.6875 12.773438 L 12.378906 12.773438 L 12.378906 11.582031 L 10.125 11.582031 L 10.125 10.984375 L 12.378906 10.984375 L 12.378906 9.792969 L 10.6875 9.792969 L 10.6875 10.390625 L 10.125 10.390625 L 10.125 9.792969 Z M 9.558594 9.792969 " style="fill:#fff"/></svg>