<svg xmlns="http://www.w3.org/2000/svg" viewBox="0 0 16 16" xmlns:xlink="http://www.w3.org/1999/xlink"><defs><linearGradient id="5" gradientUnits="userSpaceOnUse" x1="15.932" y1="4.54" x2="15.807" y2="13.253" gradientTransform="matrix(0 -0.012722 0.0756323 0 4.876449 6.649853)" xlink:href="#0"/><linearGradient id="4" gradientUnits="userSpaceOnUse" x1="15.932" y1="4.54" x2="15.807" y2="13.253" gradientTransform="matrix(0 -0.012722 0.0756323 0 4.876449 6.399723)" xlink:href="#0"/><linearGradient id="6" gradientUnits="userSpaceOnUse" x1="15.932" y1="4.54" x2="15.807" y2="13.253" gradientTransform="matrix(0 -0.012722 0.0756323 0 4.876449 6.899983)" xlink:href="#0"/><linearGradient id="3" gradientUnits="userSpaceOnUse" x1="15.932" y1="4.54" x2="15.807" y2="13.253" gradientTransform="matrix(0 -0.012722 0.0756323 0 4.876449 6.149593)" xlink:href="#0"/><linearGradient id="1" gradientUnits="userSpaceOnUse" x1="15.932" y1="4.54" x2="15.807" y2="13.253" gradientTransform="matrix(0 -0.012722 0.0756323 0 4.876449 5.649947)" xlink:href="#0"/><linearGradient id="0" gradientUnits="userSpaceOnUse" x1="15.932" y1="4.54" x2="15.807" y2="13.253" gradientTransform="matrix(0 -0.012722 0.0756323 0 4.876449 5.399817)"><stop style="stop-color:#ffefef"/><stop offset="1" style="stop-color:#ffefef;stop-opacity:0"/></linearGradient><linearGradient id="2" gradientUnits="userSpaceOnUse" x1="15.932" y1="4.54" x2="15.807" y2="13.253" gradientTransform="matrix(0 -0.012722 0.0756323 0 4.876449 5.900077)" xlink:href="#0"/></defs><path d="m 15.773438 8.402344 c -9.640626 21.6875 -26.96875 -10.132813 -5.488282 -8.3281252 c 3.234375 0.4218752 6.628906 3.7656252 5.488282 8.3281252" style="fill:#d1b38c"/><path d="m 3.960938 2.992188 h 7.992187 v 8.828124 h -7.992187" style="fill:#9f2c2c;fill-opacity:0.937255"/><path d="m 4.375 3.285156 h 7.128906 v 8.046875 h -7.128906" style="fill:#deaa86;fill-opacity:0.827451"/><path d="m 3.980469 11.820312 v -8.828124 h 1.515625 v 8.828124" style="fill:#9f2c2c"/><path d="m 3.78125 4.046875 v -0.34375 h 0.953125 v 0.34375" style="fill:#999"/><path d="m 3.808594 4.039062 v -0.335937 h 0.898437 v 0.335937" style="fill:url(#0)"/><path d="m 3.78125 5.222656 v -0.34375 h 0.953125 v 0.34375" style="fill:#999"/><path d="m 3.808594 5.214844 v -0.335938 h 0.898437 v 0.335938" style="fill:url(#1)"/><path d="m 3.78125 6.402344 v -0.34375 h 0.953125 v 0.34375" style="fill:#999"/><path d="m 3.808594 6.390625 v -0.335937 h 0.898437 v 0.335937" style="fill:url(#2)"/><path d="m 3.78125 7.578125 v -0.34375 h 0.953125 v 0.34375" style="fill:#999"/><path d="m 3.808594 7.566406 v -0.332031 h 0.898437 v 0.332031" style="fill:url(#3)"/><path d="m 3.78125 8.753906 v -0.34375 h 0.953125 v 0.34375" style="fill:#999"/><path d="m 3.808594 8.746094 v -0.335938 h 0.898437 v 0.335938" style="fill:url(#4)"/><path d="m 3.78125 9.929688 v -0.34375 h 0.953125 v 0.34375" style="fill:#999"/><path d="m 3.808594 9.921875 v -0.335937 h 0.898437 v 0.335937" style="fill:url(#5)"/><path d="m 3.78125 11.109375 v -0.34375 h 0.953125 v 0.34375" style="fill:#999"/><path d="m 3.808594 11.097656 v -0.332031 h 0.898437 v 0.332031" style="fill:url(#6)"/></svg>