<svg xmlns="http://www.w3.org/2000/svg" viewBox="0 0 16 16"><path d="m 0.1875 9.832031 c 3.125 14.867188 24.617188 -1.09375 11.707031 -8.652343 c -5.015625 -3.238282 -13.3125 1.003906 -11.707031 8.652343" style="fill:#ff8c00"/><g style="fill:#fff"><path d="m 10.453125 4.042969 v 0.8125 h -1.160156 v -0.8125 m -1.160157 0 v 0.8125 h -3.488281 v -0.8125"/><path d="m 10.453125 5.671875 v 0.816406 h -1.160156 v -0.816406 m -1.160157 0 v 0.816406 h -3.488281 v -0.816406"/><path d="m 10.453125 7.304688 v 0.8125 h -1.160156 v -0.8125 m -1.160157 0 v 0.8125 h -3.488281 v -0.8125"/><path d="m 4.582031 7.292969 v 0.816406 h 1.160157 v -0.816406 m 1.164062 0 v 0.816406 h 3.484375 v -0.816406"/><path d="m 4.582031 8.925781 v 0.8125 h 1.160157 v -0.8125 m 1.164062 0 v 0.8125 h 3.484375 v -0.8125"/><path d="m 4.582031 10.554688 v 0.816406 h 1.160157 v -0.816406 m 1.164062 0 v 0.816406 h 3.484375 v -0.816406"/></g></svg>