<svg xmlns="http://www.w3.org/2000/svg" viewBox="0 0 16 16"><path d="m 6.167969 15.796875 c -14.992188 -3.125 1.101562 -24.617187 8.726562 -11.707031 c 3.265625 5.015625 -1.015625 13.3125 -8.726562 11.707031" style="fill:#ff8c00"/><g style="fill:#fff"><path d="m 12.339844 5.117188 v 2.777343 c 0 0.015625 -0.015625 0.023438 -0.03125 0.023438 h -2.070313 c -0.015625 0 -0.03125 -0.007813 -0.03125 -0.023438 v -2.777343 c 0 -0.011719 0.015625 -0.023438 0.03125 -0.023438 h 2.070313 c 0.015625 0 0.03125 0.011719 0.03125 0.023438"/><path d="m 9.140625 5.117188 v 2.777343 c 0 0.015625 -0.011719 0.023438 -0.03125 0.023438 h -2.066406 c -0.019531 0 -0.03125 -0.007813 -0.03125 -0.023438 v -2.777343 c 0 -0.011719 0.011719 -0.023438 0.03125 -0.023438 h 2.066406 c 0.019531 0 0.03125 0.011719 0.03125 0.023438"/><path d="m 5.945312 5.117188 v 2.777343 c 0 0.015625 -0.015624 0.023438 -0.03125 0.023438 h -2.070312 c -0.015625 0 -0.03125 -0.007813 -0.03125 -0.023438 v -2.777343 c 0 -0.011719 0.015625 -0.023438 0.03125 -0.023438 h 2.070312 c 0.015626 0 0.03125 0.011719 0.03125 0.023438"/><path d="m 12.339844 9.199219 v 2.78125 c 0 0.011719 -0.015625 0.023437 -0.03125 0.023437 h -2.070313 c -0.015625 0 -0.03125 -0.011718 -0.03125 -0.023437 v -2.78125 c 0 -0.011719 0.015625 -0.023438 0.03125 -0.023438 h 2.070313 c 0.015625 0 0.03125 0.011719 0.03125 0.023438"/><path d="m 9.140625 9.199219 v 2.78125 c 0 0.011719 -0.011719 0.023437 -0.03125 0.023437 h -2.066406 c -0.019531 0 -0.03125 -0.011718 -0.03125 -0.023437 v -2.78125 c 0 -0.011719 0.011719 -0.023438 0.03125 -0.023438 h 2.066406 c 0.019531 0 0.03125 0.011719 0.03125 0.023438"/><path d="m 5.945312 9.199219 v 2.78125 c 0 0.011719 -0.015624 0.023437 -0.03125 0.023437 h -2.070312 c -0.015625 0 -0.03125 -0.011718 -0.03125 -0.023437 v -2.78125 c 0 -0.011719 0.015625 -0.023438 0.03125 -0.023438 h 2.070312 c 0.015626 0 0.03125 0.011719 0.03125 0.023438"/></g></svg>