<?xml version="1.0" encoding="UTF-8" standalone="no"?>
<svg
   xmlns:dc="http://purl.org/dc/elements/1.1/"
   xmlns:cc="http://creativecommons.org/ns#"
   xmlns:rdf="http://www.w3.org/1999/02/22-rdf-syntax-ns#"
   xmlns:svg="http://www.w3.org/2000/svg"
   xmlns="http://www.w3.org/2000/svg"
   xmlns:sodipodi="http://sodipodi.sourceforge.net/DTD/sodipodi-0.dtd"
   xmlns:inkscape="http://www.inkscape.org/namespaces/inkscape"
   viewBox="0 0 48 48"
   id="svg2"
   version="1.1"
   inkscape:version="0.91 r13725"
   sodipodi:docname="steam_icon_224540.svg">
  <metadata
     id="metadata55">
    <rdf:RDF>
      <cc:Work
         rdf:about="">
        <dc:format>image/svg+xml</dc:format>
        <dc:type
           rdf:resource="http://purl.org/dc/dcmitype/StillImage" />
      </cc:Work>
    </rdf:RDF>
  </metadata>
  <sodipodi:namedview
     pagecolor="#ffffff"
     bordercolor="#666666"
     borderopacity="1"
     objecttolerance="10"
     gridtolerance="10"
     guidetolerance="10"
     inkscape:pageopacity="0"
     inkscape:pageshadow="2"
     inkscape:window-width="640"
     inkscape:window-height="480"
     id="namedview53"
     showgrid="false"
     inkscape:zoom="4.9166667"
     inkscape:cx="-5.5932203"
     inkscape:cy="24"
     inkscape:current-layer="svg2" />
  <defs
     id="defs4">
    <linearGradient
       id="linearGradient4355"
       x1="1"
       x2="47"
       gradientUnits="userSpaceOnUse">
      <stop
         style="stop-color:#dbe6be;stop-opacity:1"
         id="stop7" />
      <stop
         offset="1"
         style="stop-color:#e3eccc;stop-opacity:1"
         id="stop9" />
    </linearGradient>
  </defs>
  <g
     id="g11">
    <path
       d="m 36.31 5 c 5.859 4.062 9.688 10.831 9.688 18.5 c 0 12.426 -10.07 22.5 -22.5 22.5 c -7.669 0 -14.438 -3.828 -18.5 -9.688 c 1.037 1.822 2.306 3.499 3.781 4.969 c 4.085 3.712 9.514 5.969 15.469 5.969 c 12.703 0 23 -10.298 23 -23 c 0 -5.954 -2.256 -11.384 -5.969 -15.469 c -1.469 -1.475 -3.147 -2.744 -4.969 -3.781 z m 4.969 3.781 c 3.854 4.113 6.219 9.637 6.219 15.719 c 0 12.703 -10.297 23 -23 23 c -6.081 0 -11.606 -2.364 -15.719 -6.219 c 4.16 4.144 9.883 6.719 16.219 6.719 c 12.703 0 23 -10.298 23 -23 c 0 -6.335 -2.575 -12.06 -6.719 -16.219 z"
       style="opacity:0.05"
       id="path13" />
    <path
       d="m 41.28 8.781 c 3.712 4.085 5.969 9.514 5.969 15.469 c 0 12.703 -10.297 23 -23 23 c -5.954 0 -11.384 -2.256 -15.469 -5.969 c 4.113 3.854 9.637 6.219 15.719 6.219 c 12.703 0 23 -10.298 23 -23 c 0 -6.081 -2.364 -11.606 -6.219 -15.719 z"
       style="opacity:0.1"
       id="path15" />
    <path
       d="m 31.25 2.375 c 8.615 3.154 14.75 11.417 14.75 21.13 c 0 12.426 -10.07 22.5 -22.5 22.5 c -9.708 0 -17.971 -6.135 -21.12 -14.75 a 23 23 0 0 0 44.875 -7 a 23 23 0 0 0 -16 -21.875 z"
       style="opacity:0.2"
       id="path17" />
  </g>
  <g
     transform="matrix(0,-1,1,0,0,48)"
     style="fill:#ececec;fill-opacity:1"
     id="g19">
    <path
       d="M 24,1 C 36.703,1 47,11.297 47,24 47,36.703 36.703,47 24,47 11.297,47 1,36.703 1,24 1,11.297 11.297,1 24,1 Z"
       id="path21"
       style="fill:#ececec;fill-opacity:1" />
  </g>
  <path
     d="m 13 13 0 2 -2 0 0 10 2 0 0 9 2 0 0 1 1 0 0 2 9 0 9 0 0 -2 1 0 0 -1 2 0 0 -9 2 0 0 -10 -2 0 0 -2 -12 0 -12 0 z"
     style="fill:#000;opacity:0.1;fill-opacity:1;stroke:none;fill-rule:nonzero"
     id="path23" />
  <g
     id="g25">
    <path
       d="m 40.03 7.531 c 3.712 4.084 5.969 9.514 5.969 15.469 0 12.703 -10.297 23 -23 23 c -5.954 0 -11.384 -2.256 -15.469 -5.969 4.178 4.291 10.01 6.969 16.469 6.969 c 12.703 0 23 -10.298 23 -23 0 -6.462 -2.677 -12.291 -6.969 -16.469 z"
       style="opacity:0.1"
       id="path27" />
  </g>
  <path
     d="m 12 12 l 0 2 l -2 0 l 0 10 l 14 0 l 14 0 l 0 -10 l -2 0 l 0 -2 l -12 0 l -12 0 z"
     style="fill:#789911;opacity:1;fill-opacity:1;stroke:none;fill-rule:nonzero"
     id="path29" />
  <path
     d="m 12 14 l 0 10 l 12 0 l 12 0 l 0 -10 l -12 0 l -12 0 z"
     style="fill:#9ac011;opacity:1;fill-opacity:1;stroke:none;fill-rule:nonzero"
     id="path31" />
  <path
     d="m 14 24 l 0 10 l 10 0 l 10 0 l 0 -10 l -10 0 l -10 0 z"
     style="fill:#ecc593;opacity:1;fill-opacity:1;stroke:none;fill-rule:nonzero"
     id="path33" />
  <path
     d="m 15 34 l 0 2 l 9 0 l 9 0 l 0 -2 l -9 0 l -9 0 z"
     style="fill:#cbaf75;opacity:1;fill-opacity:1;stroke:none;fill-rule:nonzero"
     id="path35" />
  <rect
     width="2"
     height="9"
     x="12"
     y="24"
     style="fill:#cbaf75;opacity:1;fill-opacity:1;stroke:none;fill-rule:nonzero"
     id="rect37" />
  <rect
     width="4"
     height="4"
     x="16"
     y="24"
     style="fill:#353535;opacity:1;fill-opacity:1;stroke:none;fill-rule:nonzero"
     id="rect39" />
  <path
     d="m 22 24 l 0 3 l 2 0 l 2 0 l 0 -3 l -2 0 l -2 0 z"
     style="fill:#e3a258;opacity:1;fill-opacity:1;stroke:none;fill-rule:nonzero"
     id="path41" />
  <path
     d="m 21 30 0 2 4 0 0 -2 z"
     style="fill:#717169;opacity:1;fill-opacity:1;stroke:none;fill-rule:nonzero"
     id="path43" />
  <rect
     y="24"
     x="-36"
     height="9"
     width="2"
     transform="scale(-1,1)"
     style="fill:#cbaf75;opacity:1;fill-opacity:1;stroke:none;fill-rule:nonzero"
     id="rect45" />
  <rect
     y="24"
     x="-32"
     height="4"
     width="4"
     transform="scale(-1,1)"
     style="fill:#353535;opacity:1;fill-opacity:1;stroke:none;fill-rule:nonzero"
     id="rect47" />
  <path
     d="m 26 29 l -1 1 l 0 2 l 2 0 l 1 -1 l -2 0 l 0 -2 z"
     style="fill:#554025;opacity:1;fill-opacity:1;stroke:none;fill-rule:nonzero"
     id="path49" />
  <rect
     width="2"
     height="2"
     x="26"
     y="29"
     style="fill:#e6dc35;opacity:1;fill-opacity:1;stroke:none;fill-rule:nonzero"
     id="rect51" />
</svg>
