<?xml version="1.0" encoding="UTF-8" standalone="no"?>
<svg
   xmlns:dc="http://purl.org/dc/elements/1.1/"
   xmlns:cc="http://creativecommons.org/ns#"
   xmlns:rdf="http://www.w3.org/1999/02/22-rdf-syntax-ns#"
   xmlns:svg="http://www.w3.org/2000/svg"
   xmlns="http://www.w3.org/2000/svg"
   xmlns:sodipodi="http://sodipodi.sourceforge.net/DTD/sodipodi-0.dtd"
   xmlns:inkscape="http://www.inkscape.org/namespaces/inkscape"
   viewBox="0 0 48 48"
   id="svg2"
   version="1.1"
   inkscape:version="0.91 r13725"
   sodipodi:docname="drumkv1.svg">
  <metadata
     id="metadata63">
    <rdf:RDF>
      <cc:Work
         rdf:about="">
        <dc:format>image/svg+xml</dc:format>
        <dc:type
           rdf:resource="http://purl.org/dc/dcmitype/StillImage" />
      </cc:Work>
    </rdf:RDF>
  </metadata>
  <sodipodi:namedview
     pagecolor="#ffffff"
     bordercolor="#666666"
     borderopacity="1"
     objecttolerance="10"
     gridtolerance="10"
     guidetolerance="10"
     inkscape:pageopacity="0"
     inkscape:pageshadow="2"
     inkscape:window-width="1863"
     inkscape:window-height="1021"
     id="namedview61"
     showgrid="false"
     inkscape:zoom="4.9166667"
     inkscape:cx="-13.016949"
     inkscape:cy="24"
     inkscape:window-x="57"
     inkscape:window-y="31"
     inkscape:window-maximized="1"
     inkscape:current-layer="g29" />
  <defs
     id="defs4">
    <linearGradient
       id="linearGradient4249"
       y1="47"
       x2="0"
       y2="1"
       gradientUnits="userSpaceOnUse">
      <stop
         style="stop-color:#b95f94;stop-opacity:1"
         id="stop7" />
      <stop
         offset="1"
         style="stop-color:#bf6d9d;stop-opacity:1"
         id="stop9" />
    </linearGradient>
  </defs>
  <g
     id="g11">
    <path
       d="m 36.31 5 c 5.859 4.062 9.688 10.831 9.688 18.5 c 0 12.426 -10.07 22.5 -22.5 22.5 c -7.669 0 -14.438 -3.828 -18.5 -9.688 c 1.037 1.822 2.306 3.499 3.781 4.969 c 4.085 3.712 9.514 5.969 15.469 5.969 c 12.703 0 23 -10.298 23 -23 c 0 -5.954 -2.256 -11.384 -5.969 -15.469 c -1.469 -1.475 -3.147 -2.744 -4.969 -3.781 z m 4.969 3.781 c 3.854 4.113 6.219 9.637 6.219 15.719 c 0 12.703 -10.297 23 -23 23 c -6.081 0 -11.606 -2.364 -15.719 -6.219 c 4.16 4.144 9.883 6.719 16.219 6.719 c 12.703 0 23 -10.298 23 -23 c 0 -6.335 -2.575 -12.06 -6.719 -16.219 z"
       style="opacity:0.05"
       id="path13" />
    <path
       d="m 41.28 8.781 c 3.712 4.085 5.969 9.514 5.969 15.469 c 0 12.703 -10.297 23 -23 23 c -5.954 0 -11.384 -2.256 -15.469 -5.969 c 4.113 3.854 9.637 6.219 15.719 6.219 c 12.703 0 23 -10.298 23 -23 c 0 -6.081 -2.364 -11.606 -6.219 -15.719 z"
       style="opacity:0.1"
       id="path15" />
    <path
       d="m 31.25 2.375 c 8.615 3.154 14.75 11.417 14.75 21.13 c 0 12.426 -10.07 22.5 -22.5 22.5 c -9.708 0 -17.971 -6.135 -21.12 -14.75 a 23 23 0 0 0 44.875 -7 a 23 23 0 0 0 -16 -21.875 z"
       style="opacity:0.2"
       id="path17" />
  </g>
  <g
     id="g19"
     style="fill:#e6e6e6;fill-opacity:1">
    <path
       d="m 24 1 c 12.703 0 23 10.297 23 23 c 0 12.703 -10.297 23 -23 23 -12.703 0 -23 -10.297 -23 -23 0 -12.703 10.297 -23 23 -23 z"
       style="fill:#e6e6e6;fill-opacity:1"
       id="path21" />
  </g>
  <g
     id="g23">
    <path
       d="m 40.03 7.531 c 3.712 4.084 5.969 9.514 5.969 15.469 0 12.703 -10.297 23 -23 23 c -5.954 0 -11.384 -2.256 -15.469 -5.969 4.178 4.291 10.01 6.969 16.469 6.969 c 12.703 0 23 -10.298 23 -23 0 -6.462 -2.677 -12.291 -6.969 -16.469 z"
       style="opacity:0.1"
       id="path25" />
  </g>
  <path
     d="M 25 12 A 13 13 0 0 0 20.428 12.836 A 1 1 0 0 0 20.412 12.795 A 1 1 0 0 0 19.08 12.313 A 1 1 0 0 0 18.6 13.641 A 1 1 0 0 0 18.623 13.689 A 13 13 0 0 0 13.682 18.621 A 1 1 0 0 0 13.641 18.6 A 1 1 0 0 0 12.313 19.08 A 1 1 0 0 0 12.795 20.412 A 1 1 0 0 0 12.846 20.434 A 13 13 0 0 0 12 25 A 13 13 0 0 0 12.836 29.572 A 1 1 0 0 0 12.795 29.588 A 1 1 0 0 0 12.313 30.916 A 1 1 0 0 0 13.641 31.4 A 1 1 0 0 0 13.689 31.377 A 13 13 0 0 0 14.967 33.22 L 12.15 36.04 C 11.95 36.24 11.95 36.563 12.15 36.764 L 13.236 37.85 C 13.437 38.05 13.76 38.05 13.961 37.85 L 16.775 35.04 A 13 13 0 0 0 18.621 36.32 A 1 1 0 0 0 18.6 36.36 A 1 1 0 0 0 19.08 37.688 A 1 1 0 0 0 20.412 37.21 A 1 1 0 0 0 20.434 37.15 A 13 13 0 0 0 25 38 A 13 13 0 0 0 29.572 37.16 A 1 1 0 0 0 29.588 37.21 A 1 1 0 0 0 30.916 37.688 A 1 1 0 0 0 31.4 36.36 A 1 1 0 0 0 31.377 36.31 A 13 13 0 0 0 36.32 31.379 A 1 1 0 0 0 36.36 31.4 A 1 1 0 0 0 37.688 30.916 A 1 1 0 0 0 37.21 29.588 A 1 1 0 0 0 37.15 29.566 A 13 13 0 0 0 38 25 A 13 13 0 0 0 37.16 20.428 A 1 1 0 0 0 37.21 20.412 A 1 1 0 0 0 37.688 19.08 A 1 1 0 0 0 36.36 18.6 A 1 1 0 0 0 36.31 18.623 A 13 13 0 0 0 31.379 13.682 A 1 1 0 0 0 31.4 13.641 A 1 1 0 0 0 30.916 12.313 A 1 1 0 0 0 29.588 12.795 A 1 1 0 0 0 29.566 12.846 A 13 13 0 0 0 25 12 z"
     style="fill:#000;opacity:0.1;fill-opacity:1"
     id="path27" />
  <g
     id="g29"
     transform="translate(0.20338983,0.20338983)">
    <circle
       r="13"
       cy="24"
       cx="24"
       style="fill:#800080;fill-opacity:1"
       id="circle31" />
    <circle
       r="11"
       cy="24"
       cx="24"
       style="fill:#d8d6cc;fill-opacity:1"
       id="circle33" />
    <circle
       transform="matrix(0.90630779,-0.42261826,0.42261826,0.90630779,0,0)"
       r="1"
       cy="31.893999"
       cx="-1.391"
       style="fill:#afafaf;fill-opacity:1"
       id="circle35" />
    <circle
       transform="matrix(0.90630779,0.42261826,-0.42261826,0.90630779,0,0)"
       cx="18.893999"
       cy="11.609"
       r="1"
       style="fill:#afafaf;fill-opacity:1"
       id="circle37" />
    <circle
       r="1"
       cy="-11.609"
       cx="18.893999"
       transform="matrix(0.42261826,0.90630779,-0.90630779,0.42261826,0,0)"
       style="fill:#afafaf;fill-opacity:1"
       id="circle39" />
    <circle
       transform="matrix(-0.42261826,0.90630779,-0.90630779,-0.42261826,0,0)"
       cx="-1.391"
       cy="-31.893999"
       r="1"
       style="fill:#afafaf;fill-opacity:1"
       id="circle41" />
    <circle
       r="1"
       cy="-31.893999"
       cx="-24.608999"
       transform="matrix(-0.90630779,0.42261826,-0.42261826,-0.90630779,0,0)"
       style="fill:#afafaf;fill-opacity:1"
       id="circle43" />
    <circle
       transform="matrix(-0.90630779,-0.42261826,0.42261826,-0.90630779,0,0)"
       cx="-44.894001"
       cy="-11.609"
       r="1"
       style="fill:#afafaf;fill-opacity:1"
       id="circle45" />
    <circle
       r="1"
       cy="11.609"
       cx="-44.894001"
       transform="matrix(-0.42261826,-0.90630779,0.90630779,-0.42261826,0,0)"
       style="fill:#afafaf;fill-opacity:1"
       id="circle47" />
    <circle
       transform="matrix(0.42261826,-0.90630779,0.90630779,0.42261826,0,0)"
       cx="-24.608999"
       cy="31.893999"
       r="1"
       style="fill:#afafaf;fill-opacity:1"
       id="circle49" />
    <path
       d="m 25.22,22 a 2.816,2.816 0 0 0 -2.03,0.824 2.816,2.816 0 0 0 -0.583,3.119 l -4.9,4.901 C 17.538,30.8 17.352,30.838 17.219,30.971 l -2.307,2.309 a 13,13 0 0 0 2.01,1.609 l 2.108,-2.108 c 0.13,-0.133 0.17,-0.319 0.13,-0.491 l 4.89,-4.895 a 2.816,2.816 0 0 0 3.13,-0.588 2.816,2.816 0 0 0 0,-3.983 A 2.816,2.816 0 0 0 25.22,22 Z"
       style="opacity:0.1;fill:#000000;fill-opacity:1;fill-rule:evenodd;stroke:none"
       id="path51"
       inkscape:connector-curvature="0" />
    <g
       transform="translate(22.000001,0)"
       id="g53">
      <rect
         transform="matrix(0.96544758,0.96544758,-0.7240857,0.7240857,6.4681465,4.5674192)"
         rx="0.5"
         y="18"
         x="7"
         height="12"
         width="1.5"
         style="fill:#90724c;fill-opacity:1;fill-rule:evenodd;stroke:none"
         id="rect55" />
      <circle
         cx="18.385"
         cy="15.296"
         r="2.816"
         transform="matrix(0.70710678,0.70710678,-0.70710678,0.70710678,0,0)"
         style="fill:#505050;fill-opacity:1;stroke:none"
         id="circle57" />
      <rect
         width="2.5599999"
         height="8.1920004"
         x="17.1"
         y="24.768"
         rx="0.51200002"
         transform="matrix(0.70710678,0.70710678,-0.70710678,0.70710678,0,0)"
         style="fill:#505050;fill-opacity:1;stroke:none"
         id="rect59" />
    </g>
  </g>
</svg>
