<?xml version="1.0" encoding="UTF-8" standalone="no"?>
<svg
   xmlns:dc="http://purl.org/dc/elements/1.1/"
   xmlns:cc="http://creativecommons.org/ns#"
   xmlns:rdf="http://www.w3.org/1999/02/22-rdf-syntax-ns#"
   xmlns:svg="http://www.w3.org/2000/svg"
   xmlns="http://www.w3.org/2000/svg"
   xmlns:sodipodi="http://sodipodi.sourceforge.net/DTD/sodipodi-0.dtd"
   xmlns:inkscape="http://www.inkscape.org/namespaces/inkscape"
   viewBox="0 0 48 48"
   id="svg2"
   version="1.1"
   inkscape:version="0.91 r13725"
   sodipodi:docname="geda-gattrib.svg">
  <metadata
     id="metadata75">
    <rdf:RDF>
      <cc:Work
         rdf:about="">
        <dc:format>image/svg+xml</dc:format>
        <dc:type
           rdf:resource="http://purl.org/dc/dcmitype/StillImage" />
      </cc:Work>
    </rdf:RDF>
  </metadata>
  <sodipodi:namedview
     pagecolor="#ffffff"
     bordercolor="#666666"
     borderopacity="1"
     objecttolerance="10"
     gridtolerance="10"
     guidetolerance="10"
     inkscape:pageopacity="0"
     inkscape:pageshadow="2"
     inkscape:window-width="640"
     inkscape:window-height="480"
     id="namedview73"
     showgrid="false"
     inkscape:zoom="4.9166667"
     inkscape:cx="24"
     inkscape:cy="24"
     inkscape:current-layer="svg2" />
  <defs
     id="defs4">
    <linearGradient
       id="linearGradient3764"
       x1="1"
       x2="47"
       gradientUnits="userSpaceOnUse"
       gradientTransform="matrix(0,-1,1,0,-1.5e-6,47.999998)">
      <stop
         style="stop-color:#d1bdaf;stop-opacity:1"
         id="stop7" />
      <stop
         offset="1"
         style="stop-color:#d8c8bc;stop-opacity:1"
         id="stop9" />
    </linearGradient>
  </defs>
  <g
     id="g11">
    <path
       d="m 36.31 5 c 5.859 4.062 9.688 10.831 9.688 18.5 c 0 12.426 -10.07 22.5 -22.5 22.5 c -7.669 0 -14.438 -3.828 -18.5 -9.688 c 1.037 1.822 2.306 3.499 3.781 4.969 c 4.085 3.712 9.514 5.969 15.469 5.969 c 12.703 0 23 -10.298 23 -23 c 0 -5.954 -2.256 -11.384 -5.969 -15.469 c -1.469 -1.475 -3.147 -2.744 -4.969 -3.781 z m 4.969 3.781 c 3.854 4.113 6.219 9.637 6.219 15.719 c 0 12.703 -10.297 23 -23 23 c -6.081 0 -11.606 -2.364 -15.719 -6.219 c 4.16 4.144 9.883 6.719 16.219 6.719 c 12.703 0 23 -10.298 23 -23 c 0 -6.335 -2.575 -12.06 -6.719 -16.219 z"
       style="opacity:0.05"
       id="path13" />
    <path
       d="m 41.28 8.781 c 3.712 4.085 5.969 9.514 5.969 15.469 c 0 12.703 -10.297 23 -23 23 c -5.954 0 -11.384 -2.256 -15.469 -5.969 c 4.113 3.854 9.637 6.219 15.719 6.219 c 12.703 0 23 -10.298 23 -23 c 0 -6.081 -2.364 -11.606 -6.219 -15.719 z"
       style="opacity:0.1"
       id="path15" />
    <path
       d="m 31.25 2.375 c 8.615 3.154 14.75 11.417 14.75 21.13 c 0 12.426 -10.07 22.5 -22.5 22.5 c -9.708 0 -17.971 -6.135 -21.12 -14.75 a 23 23 0 0 0 44.875 -7 a 23 23 0 0 0 -16 -21.875 z"
       style="opacity:0.2"
       id="path17" />
  </g>
  <g
     id="g19"
     style="fill:#ececec;fill-opacity:1">
    <path
       d="m 24 1 c 12.703 0 23 10.297 23 23 c 0 12.703 -10.297 23 -23 23 -12.703 0 -23 -10.297 -23 -23 0 -12.703 10.297 -23 23 -23 z"
       style="fill:#ececec;fill-opacity:1"
       id="path21" />
  </g>
  <g
     id="g23">
    <path
       d="m 40.03 7.531 c 3.712 4.084 5.969 9.514 5.969 15.469 0 12.703 -10.297 23 -23 23 c -5.954 0 -11.384 -2.256 -15.469 -5.969 4.178 4.291 10.01 6.969 16.469 6.969 c 12.703 0 23 -10.298 23 -23 0 -6.462 -2.677 -12.291 -6.969 -16.469 z"
       style="opacity:0.1"
       id="path25" />
  </g>
  <g
     id="g27">
    <rect
       width="24"
       height="20"
       x="13"
       y="12"
       rx="1"
       style="fill:#000;fill-opacity:0.098;stroke:none;fill-rule:evenodd"
       id="rect29" />
    <path
       d="m 34.437 37.997 c 0 0 0.563 -0.243 0.563 -1.496 0 -1.209 -0.633 -1.499 -0.633 -1.499 l -15.363 0 l -4 1.496 4 1.501"
       style="fill:#000;fill-opacity:0.118;stroke:none;fill-rule:nonzero"
       id="path31" />
  </g>
  <g
     id="g33">
    <g
       transform="translate(0,-1)"
       id="g35">
      <rect
         width="24"
         height="20"
         x="12"
         y="12"
         rx="1"
         style="fill:#f9f9f9;fill-opacity:1;stroke:none;fill-rule:evenodd"
         id="rect37" />
      <g
         transform="translate(0,-2)"
         id="g39">
        <path
           d="m 14 16 0 16 20 0 0 -16 z m 1 1 18 0 0 14 -18 0 z"
           style="fill:#8c8c8c;fill-opacity:1;stroke:none;fill-rule:evenodd"
           id="path41" />
        <path
           d="m 19 20 9 0 0 2 -9 0 z"
           style="fill:#87deaa;opacity:1;fill-opacity:1;stroke:none;fill-rule:nonzero"
           id="path43" />
        <path
           d="m 24 16.8 0 14.4 -1 0 0 -14.4 z"
           style="fill:#8c8c8c;fill-opacity:1;stroke:none;fill-rule:evenodd"
           id="path45" />
        <path
           d="m 29 16.8 0 14.4 l -1 0 0 -14.4"
           style="fill:#8c8c8c;fill-opacity:1;stroke:none;fill-rule:evenodd"
           id="path47" />
        <path
           d="m 24 23 4 0 0 2 -4 0 z"
           style="fill:#87deaa;opacity:1;fill-opacity:1;stroke:none;fill-rule:nonzero"
           id="path49" />
        <path
           d="m 29 26 4 0 0 2 -4 0 z"
           style="fill:#87deaa;opacity:1;fill-opacity:1;stroke:none;fill-rule:nonzero"
           id="path51" />
        <path
           d="m 19 16.8 0 14.4 -1 0 0 -14.4 z"
           style="fill:#8c8c8c;fill-opacity:1;stroke:none;fill-rule:evenodd"
           id="path53" />
        <path
           d="m 15 17 3 0 0 11 -3 0 z"
           style="fill:#87deaa;opacity:1;fill-opacity:1;stroke:none;fill-rule:nonzero"
           id="path55" />
        <path
           d="m 14.8 19 18.4 0 0 1 -18.4 0 z"
           style="fill:#8c8c8c;fill-opacity:1;stroke:none;fill-rule:evenodd"
           id="path57" />
        <path
           d="m 14.8 22 18.4 0 0 1 -18.4 0 z"
           style="fill:#8c8c8c;fill-opacity:1;stroke:none;fill-rule:evenodd"
           id="path59" />
        <path
           d="m 14.8 25 18.4 0 0 1 -18.4 0 z"
           style="fill:#8c8c8c;fill-opacity:1;stroke:none;fill-rule:evenodd"
           id="path61" />
        <path
           d="m 14.8 28 18.4 0 0 1 -18.4 0 z"
           style="fill:#8c8c8c;fill-opacity:1;stroke:none;fill-rule:evenodd"
           id="path63" />
      </g>
    </g>
    <g
       id="g65">
      <path
         d="m 33.437 36.997 c 0 0 0.563 -0.243 0.563 -1.496 0 -1.209 -0.633 -1.499 -0.633 -1.499 l -15.363 0 l -4 1.496 4 1.501"
         style="fill:#356193;fill-opacity:1;stroke:none;fill-rule:nonzero"
         id="path67" />
      <path
         d="m 18 34 -4 1.499 4 1.499"
         style="fill:#e1cb91;fill-opacity:1;stroke:none;fill-rule:nonzero"
         id="path69" />
      <path
         d="m 16 34.752 -2 0.745 2 0.754"
         style="fill:#373737;fill-opacity:1;stroke:none;fill-rule:nonzero"
         id="path71" />
    </g>
  </g>
</svg>
