<?xml version="1.0" encoding="UTF-8" standalone="no"?>
<svg
   xmlns:dc="http://purl.org/dc/elements/1.1/"
   xmlns:cc="http://creativecommons.org/ns#"
   xmlns:rdf="http://www.w3.org/1999/02/22-rdf-syntax-ns#"
   xmlns:svg="http://www.w3.org/2000/svg"
   xmlns="http://www.w3.org/2000/svg"
   xmlns:sodipodi="http://sodipodi.sourceforge.net/DTD/sodipodi-0.dtd"
   xmlns:inkscape="http://www.inkscape.org/namespaces/inkscape"
   viewBox="0 0 48 48"
   version="1.1"
   id="svg49"
   sodipodi:docname="gnome-music.svg"
   inkscape:version="0.92.0 r">
  <metadata
     id="metadata53">
    <rdf:RDF>
      <cc:Work
         rdf:about="">
        <dc:format>image/svg+xml</dc:format>
        <dc:type
           rdf:resource="http://purl.org/dc/dcmitype/StillImage" />
      </cc:Work>
    </rdf:RDF>
  </metadata>
  <sodipodi:namedview
     pagecolor="#ffffff"
     bordercolor="#666666"
     borderopacity="1"
     objecttolerance="10"
     gridtolerance="10"
     guidetolerance="10"
     inkscape:pageopacity="0"
     inkscape:pageshadow="2"
     inkscape:window-width="800"
     inkscape:window-height="480"
     id="namedview51"
     showgrid="false"
     inkscape:zoom="4.9166667"
     inkscape:cx="24"
     inkscape:cy="24"
     inkscape:window-x="65"
     inkscape:window-y="25"
     inkscape:window-maximized="0"
     inkscape:current-layer="svg49" />
  <defs
     id="defs7">
    <linearGradient
       id="linearGradient3764"
       x1="1"
       x2="47"
       gradientUnits="userSpaceOnUse"
       gradientTransform="matrix(0,-1,1,0,-1.5e-6,47.999998)">
      <stop
         style="stop-color:#de4f48;stop-opacity:1"
         id="stop2" />
      <stop
         offset="1"
         style="stop-color:#e16059;stop-opacity:1"
         id="stop4" />
    </linearGradient>
  </defs>
  <g
     id="g15">
    <path
       d="m 36.31 5 c 5.859 4.062 9.688 10.831 9.688 18.5 c 0 12.426 -10.07 22.5 -22.5 22.5 c -7.669 0 -14.438 -3.828 -18.5 -9.688 c 1.037 1.822 2.306 3.499 3.781 4.969 c 4.085 3.712 9.514 5.969 15.469 5.969 c 12.703 0 23 -10.298 23 -23 c 0 -5.954 -2.256 -11.384 -5.969 -15.469 c -1.469 -1.475 -3.147 -2.744 -4.969 -3.781 z m 4.969 3.781 c 3.854 4.113 6.219 9.637 6.219 15.719 c 0 12.703 -10.297 23 -23 23 c -6.081 0 -11.606 -2.364 -15.719 -6.219 c 4.16 4.144 9.883 6.719 16.219 6.719 c 12.703 0 23 -10.298 23 -23 c 0 -6.335 -2.575 -12.06 -6.719 -16.219 z"
       style="opacity:0.05"
       id="path9" />
    <path
       d="m 41.28 8.781 c 3.712 4.085 5.969 9.514 5.969 15.469 c 0 12.703 -10.297 23 -23 23 c -5.954 0 -11.384 -2.256 -15.469 -5.969 c 4.113 3.854 9.637 6.219 15.719 6.219 c 12.703 0 23 -10.298 23 -23 c 0 -6.081 -2.364 -11.606 -6.219 -15.719 z"
       style="opacity:0.1"
       id="path11" />
    <path
       d="m 31.25 2.375 c 8.615 3.154 14.75 11.417 14.75 21.13 c 0 12.426 -10.07 22.5 -22.5 22.5 c -9.708 0 -17.971 -6.135 -21.12 -14.75 a 23 23 0 0 0 44.875 -7 a 23 23 0 0 0 -16 -21.875 z"
       style="opacity:0.2"
       id="path13" />
  </g>
  <g
     id="g19"
     style="fill:#ececec;fill-opacity:1">
    <path
       d="m 24 1 c 12.703 0 23 10.297 23 23 c 0 12.703 -10.297 23 -23 23 -12.703 0 -23 -10.297 -23 -23 0 -12.703 10.297 -23 23 -23 z"
       style="fill:#ececec;fill-opacity:1"
       id="path17" />
  </g>
  <g
     id="g31">
    <g
       id="g29">
      <g
         transform="translate(1,1)"
         id="g27">
        <g
           style="opacity:0.1"
           id="g25">
          <!-- color: #e16059 -->
          <g
             id="g23">
            <path
               d="M 28.891,11.01 C 24.3,10.891 21.032,11.563 17,14.17 l 0,14.971 c -0.322,-0.083 -0.652,-0.143 -1,-0.143 -2.211,0 -4,1.789 -4,4 0,2.211 1.789,4 4,4 2.207,0 4,-1.789 4,-4 0,-0.029 -0.007,-0.055 -0.008,-0.084 0.003,0 0.005,0 0.008,-0.002 l 0,-12.973 c 3.77,-2.699 6.711,-3.348 11,-2.332 l 0,9.533 c -0.322,-0.084 -0.652,-0.143 -1,-0.143 -2.211,0 -4,1.793 -4,4 0,2.211 1.789,4 4,4 2.168,0 3.927,-1.73 3.988,-3.887 0.004,0 0.007,0.003 0.012,0.004 l 0,-0.117 0,-19.648 c -1.901,-0.173 -3.579,-0.3 -5.109,-0.34 z"
               id="path21" />
          </g>
        </g>
      </g>
    </g>
  </g>
  <g
     transform="translate(-1,0)"
     id="g43"
     style="fill:#ff0086;fill-opacity:1">
    <g
       id="g41"
       style="fill:#ff0086;fill-opacity:1">
      <!-- color: #e16059 -->
      <g
         id="g39"
         style="fill:#ff0086;fill-opacity:1">
        <path
           d="m 21 19.941 c 3.77 -2.699 6.711 -3.348 11 -2.332 l 0 10.06 c -0.203 0.398 -1.066 2.348 3 3.449 l 0 -19.766 c -7.605 -0.691 -11.625 -0.656 -17 2.82 l 0 15.824 c 1.359 -2.051 -5.586 4.84 3 2.918 m 0 -12.973"
           style="fill:#ff0086;fill-opacity:1;stroke:none;fill-rule:nonzero"
           id="path33" />
        <path
           d="m 21 33 c 0 2.211 -1.793 4 -4 4 -2.211 0 -4 -1.789 -4 -4 0 -2.211 1.789 -4 4 -4 2.207 0 4 1.789 4 4 m 0 0"
           style="fill:#ff0086;fill-opacity:1;stroke:none;fill-rule:nonzero"
           id="path35" />
        <path
           d="m 35 31 c 0 2.211 -1.793 4 -4 4 -2.211 0 -4 -1.789 -4 -4 0 -2.207 1.789 -4 4 -4 2.207 0 4 1.793 4 4 m 0 0"
           style="fill:#ff0086;fill-opacity:1;stroke:none;fill-rule:nonzero"
           id="path37" />
      </g>
    </g>
  </g>
  <g
     id="g47">
    <path
       d="m 40.03 7.531 c 3.712 4.084 5.969 9.514 5.969 15.469 0 12.703 -10.297 23 -23 23 c -5.954 0 -11.384 -2.256 -15.469 -5.969 4.178 4.291 10.01 6.969 16.469 6.969 c 12.703 0 23 -10.298 23 -23 0 -6.462 -2.677 -12.291 -6.969 -16.469 z"
       style="opacity:0.1"
       id="path45" />
  </g>
</svg>
