<?xml version="1.0" encoding="UTF-8" standalone="no"?>
<svg
   xmlns:dc="http://purl.org/dc/elements/1.1/"
   xmlns:cc="http://creativecommons.org/ns#"
   xmlns:rdf="http://www.w3.org/1999/02/22-rdf-syntax-ns#"
   xmlns:svg="http://www.w3.org/2000/svg"
   xmlns="http://www.w3.org/2000/svg"
   xmlns:sodipodi="http://sodipodi.sourceforge.net/DTD/sodipodi-0.dtd"
   xmlns:inkscape="http://www.inkscape.org/namespaces/inkscape"
   viewBox="0 0 48 48"
   id="svg2"
   version="1.1"
   inkscape:version="0.91 r13725"
   sodipodi:docname="jskat.svg">
  <metadata
     id="metadata57">
    <rdf:RDF>
      <cc:Work
         rdf:about="">
        <dc:format>image/svg+xml</dc:format>
        <dc:type
           rdf:resource="http://purl.org/dc/dcmitype/StillImage" />
      </cc:Work>
    </rdf:RDF>
  </metadata>
  <sodipodi:namedview
     pagecolor="#ffffff"
     bordercolor="#666666"
     borderopacity="1"
     objecttolerance="10"
     gridtolerance="10"
     guidetolerance="10"
     inkscape:pageopacity="0"
     inkscape:pageshadow="2"
     inkscape:window-width="640"
     inkscape:window-height="480"
     id="namedview55"
     showgrid="false"
     inkscape:zoom="4.9166667"
     inkscape:cx="24"
     inkscape:cy="24"
     inkscape:current-layer="svg2" />
  <defs
     id="defs4">
    <linearGradient
       id="linearGradient3764"
       x1="1"
       x2="47"
       gradientUnits="userSpaceOnUse"
       gradientTransform="matrix(0,-1,1,0,-1.5e-6,47.999998)">
      <stop
         style="stop-color:#b39169;stop-opacity:1"
         id="stop7" />
      <stop
         offset="1"
         style="stop-color:#ba9b76;stop-opacity:1"
         id="stop9" />
    </linearGradient>
  </defs>
  <g
     id="g11">
    <path
       d="m 36.31 5 c 5.859 4.062 9.688 10.831 9.688 18.5 c 0 12.426 -10.07 22.5 -22.5 22.5 c -7.669 0 -14.438 -3.828 -18.5 -9.688 c 1.037 1.822 2.306 3.499 3.781 4.969 c 4.085 3.712 9.514 5.969 15.469 5.969 c 12.703 0 23 -10.298 23 -23 c 0 -5.954 -2.256 -11.384 -5.969 -15.469 c -1.469 -1.475 -3.147 -2.744 -4.969 -3.781 z m 4.969 3.781 c 3.854 4.113 6.219 9.637 6.219 15.719 c 0 12.703 -10.297 23 -23 23 c -6.081 0 -11.606 -2.364 -15.719 -6.219 c 4.16 4.144 9.883 6.719 16.219 6.719 c 12.703 0 23 -10.298 23 -23 c 0 -6.335 -2.575 -12.06 -6.719 -16.219 z"
       style="opacity:0.05"
       id="path13" />
    <path
       d="m 41.28 8.781 c 3.712 4.085 5.969 9.514 5.969 15.469 c 0 12.703 -10.297 23 -23 23 c -5.954 0 -11.384 -2.256 -15.469 -5.969 c 4.113 3.854 9.637 6.219 15.719 6.219 c 12.703 0 23 -10.298 23 -23 c 0 -6.081 -2.364 -11.606 -6.219 -15.719 z"
       style="opacity:0.1"
       id="path15" />
    <path
       d="m 31.25 2.375 c 8.615 3.154 14.75 11.417 14.75 21.13 c 0 12.426 -10.07 22.5 -22.5 22.5 c -9.708 0 -17.971 -6.135 -21.12 -14.75 a 23 23 0 0 0 44.875 -7 a 23 23 0 0 0 -16 -21.875 z"
       style="opacity:0.2"
       id="path17" />
  </g>
  <g
     id="g19"
     style="fill:#ececec;fill-opacity:1">
    <path
       d="m 24 1 c 12.703 0 23 10.297 23 23 c 0 12.703 -10.297 23 -23 23 -12.703 0 -23 -10.297 -23 -23 0 -12.703 10.297 -23 23 -23 z"
       style="fill:#ececec;fill-opacity:1"
       id="path21" />
  </g>
  <g
     id="g23">
    <g
       id="g25">
      <g
         transform="translate(1,1)"
         id="g27">
        <g
           style="opacity:0.1"
           id="g29">
          <!-- color: #d95555 -->
          <g
             id="g31">
            <path
               d="m 26.732 14.01 c -0.33 0.047 -0.618 0.288 -0.709 0.631 l -1.18 4.572 l -0.66 -3.891 c -0.082 -0.469 -0.527 -0.789 -0.988 -0.703 l -10.484 1.918 c -0.461 0.086 -0.777 0.547 -0.699 1.012 l 3.01 17.738 c 0.082 0.469 0.527 0.785 0.992 0.703 l 9.947 -1.822 l 6.473 1.801 c 0.453 0.125 0.926 -0.152 1.047 -0.613 l 4.488 -17.395 c 0.117 -0.465 -0.156 -0.945 -0.609 -1.07 l -10.289 -2.859 c -0.113 -0.031 -0.228 -0.037 -0.338 -0.021 z"
               transform="translate(-1,-1)"
               id="path33" />
          </g>
        </g>
      </g>
    </g>
  </g>
  <g
     id="g35">
    <path
       d="m 40.03 7.531 c 3.712 4.084 5.969 9.514 5.969 15.469 0 12.703 -10.297 23 -23 23 c -5.954 0 -11.384 -2.256 -15.469 -5.969 4.178 4.291 10.01 6.969 16.469 6.969 c 12.703 0 23 -10.298 23 -23 0 -6.462 -2.677 -12.291 -6.969 -16.469 z"
       style="opacity:0.1"
       id="path37" />
  </g>
  <g
     id="g39">
    <g
       transform="translate(-1.651935e-4,0)"
       id="g41">
      <g
         id="g43">
        <!-- color: #d95555 -->
        <g
           id="g45">
          <path
             d="m 26.07,13.03 c -0.453,-0.125 -0.926,0.152 -1.047,0.609 l -4.488,17.395 c -0.117,0.457 0.156,0.945 0.609,1.07 l 10.289,2.863 c 0.453,0.125 0.926,-0.152 1.047,-0.613 l 4.488,-17.395 c 0.117,-0.465 -0.156,-0.945 -0.609,-1.07 M 26.07,13.026"
             style="fill:#dcdcdc;fill-opacity:1;stroke:none;fill-rule:nonzero"
             id="path47" />
          <path
             d="M 29.742,20.18 26,23.227 l 1.77,4.582 3.742,-3.043 m -1.77,-4.586"
             style="fill:#db6565;fill-opacity:1;stroke:none;fill-rule:nonzero"
             id="path49" />
          <path
             d="m 11.711,15.535 c -0.461,0.086 -0.777,0.547 -0.699,1.012 l 3.01,17.738 c 0.082,0.469 0.527,0.785 0.992,0.703 l 10.488,-1.922 c 0.461,-0.082 0.77,-0.543 0.691,-1.012 L 23.183,14.32 c -0.082,-0.469 -0.527,-0.789 -0.988,-0.703 m -10.492,1.918"
             style="fill:#f6f6f6;fill-opacity:1;stroke:none;fill-rule:nonzero"
             id="path51" />
        </g>
      </g>
    </g>
    <path
       d="m 16.903 22.06 c -0.83 0.161 -1.375 0.95 -1.216 1.763 0.479 2.454 3.818 3.845 3.818 3.845 0 0 2.574 -2.536 2.095 -4.99 -0.159 -0.813 -0.96 -1.342 -1.791 -1.181 -0.684 0.132 -1.193 0.7 -1.24 1.382 -0.299 -0.614 -0.984 -0.951 -1.667 -0.819 z"
       style="fill:#d74949;opacity:1;fill-opacity:1;stroke:none"
       id="path53" />
  </g>
</svg>
