<svg xmlns="http://www.w3.org/2000/svg" viewBox="0 0 24 24"><path d="m 11.664062 23.871094 c 2.476563 -0.191406 5.371094 -1.378906 7.390626 -3.027344 c 2.457031 -2.007812 4.25 -5.085938 4.734374 -8.117188 c 0.105469 -0.664062 0.136719 -2.195312 0.054688 -2.878906 c -0.328125 -2.832031 -1.988281 -5.644531 -4.414062 -7.476562 c -1.3125 -0.996094 -3.054688 -1.785156 -4.683594 -2.136719 c -4.246094 -0.898437 -8.675782 0.808594 -11.714844 4.519531 c -1.820312 2.222656 -2.765625 4.464844 -2.9921875 7.117188 c -0.2773435 3.179687 0.9765625 6.589844 3.2617185 8.882812 c 1.792969 1.800782 4.203125 2.949219 6.488281 3.089844 c 0.332032 0.019531 0.738282 0.046875 0.90625 0.058594 c 0.164063 0.011718 0.601563 -0.003906 0.96875 -0.03125" style="fill:#ff8c00"/><g style="fill:#fff"><path d="m 11.4375 5.308594 l -3.257812 3.382812 h -2.59375 c 0 0 -0.734376 1.296875 -0.734376 3.460938 c 0 2.164062 0.734376 3.457031 0.734376 3.457031 h 2.59375 l 3.257812 3.382813 m -0.65625 -12.03125 v 10.382812 l -2.328125 -2.417969 h -2.4375 c -0.164063 -0.359375 -0.507813 -1.191406 -0.507813 -2.773437 c 0 -1.582032 0.34375 -2.417969 0.507813 -2.777344 h 2.4375"/><path d="m 15.0625 6.492188 v 5.03125 l -1.992188 -2.070313 l -0.484374 0.507813 l 2.109374 2.191406 l -2.109374 2.191406 l 0.484374 0.507812 l 1.992188 -2.070312 v 5.03125 l 0.585938 -0.59375 l 2.203124 -2.292969 l 0.234376 -0.253906 l -0.234376 -0.25 l -2.109374 -2.195313 v -0.148437 l 2.109374 -2.195313 l 0.234376 -0.25 l -0.234376 -0.257812 l -2.203124 -2.292969 l -0.585938 -0.59375 m 0.679688 1.707031 l 0.175781 0.183594 l 1.207031 1.253906 l -1.382812 1.429688 m 0 2.175781 l 0.175781 0.183594 l 1.207031 1.25 l -1.382812 1.4375"/><path d="m 11.746094 5.308594 l -3.257813 3.382812 h -2.597656 c 0 0 -0.734375 1.296875 -0.734375 3.460938 c 0 2.164062 0.734375 3.457031 0.734375 3.457031 h 2.597656 l 3.257813 3.382813 m -0.660156 -12.03125 v 10.382812 l -2.324219 -2.417969 h -2.441407 c -0.164062 -0.359375 -0.503906 -1.191406 -0.503906 -2.773437 c 0 -1.582032 0.339844 -2.417969 0.503906 -2.777344 h 2.441407"/><path d="m 15.367188 6.492188 v 5.03125 l -1.992188 -2.070313 l -0.484375 0.507813 l 2.109375 2.191406 l -2.109375 2.191406 l 0.484375 0.507812 l 1.992188 -2.070312 v 5.03125 l 0.585937 -0.59375 l 2.203125 -2.292969 l 0.234375 -0.253906 l -0.234375 -0.25 l -2.109375 -2.195313 v -0.148437 l 2.109375 -2.195313 l 0.234375 -0.25 l -0.234375 -0.257812 l -2.203125 -2.292969 l -0.585937 -0.59375 m 0.679687 1.707031 l 0.175781 0.183594 l 1.207032 1.253906 l -1.382813 1.429688 m 0 2.175781 l 0.175781 0.183594 l 1.207032 1.25 l -1.382813 1.4375"/></g></svg>