<svg xmlns="http://www.w3.org/2000/svg" viewBox="0 0 22 22"><defs><linearGradient id="0" gradientUnits="userSpaceOnUse" y1="644.51" x2="0" y2="614.51" gradientTransform="matrix(0.319932 0 0 0.279097 -166.481562 -161.431016)"><stop style="stop-color:#b9e6ff"/><stop offset="1" style="stop-color:#f4fbff"/></linearGradient></defs><path d="m 18.148438 3.191406 c 17.34375 22.890625 -30.386719 26.144532 -15.070313 2.777344 c 3.492187 -5.328125 10.476563 -8.839844 15.070313 -2.777344" style="fill:#9370db"/><path d="m 12.539062 7.429688 l 0.023438 0.019531 l 0.054688 -0.019531 m 0.621093 0.667968 l 3.839844 3.6875 v -3.6875" style="fill-opacity:0.196078"/><path d="m 12.539062 3.566406 l 4.539063 4.359375 h -3.839844 c -0.339843 0 -0.699219 -0.347656 -0.699219 -0.671875" style="fill:#fff;fill-opacity:0.392157"/><path d="m 12.484375 17.390625 c 0 -0.582031 0.003906 -1.46875 0.003906 -1.972656 v -0.917969 h -0.027343 c -0.011719 0 -1.117188 -0.007812 -2.453126 -0.023438 c -1.332031 -0.011718 -2.472656 -0.023437 -2.535156 -0.023437 h -0.105468 v 1.554687 c 0 0.859376 0 1.558594 0 1.558594 c 0 0 1.144531 0.199219 2.542968 0.441406 c 1.398438 0.242188 2.546875 0.441407 2.554688 0.441407 c 0.011718 0 0.011718 -0.097657 0.019531 -1.058594 m -5.554687 -1.417969 c 0 -0.839844 0.003906 -1.523437 0.003906 -1.523437 c -0.003906 0 -3.042969 -0.03125 -3.140625 -0.03125 h -0.058594 v 2.519531 l 0.015625 0.003906 c 0.015625 0.003906 3.148438 0.546875 3.167969 0.546875 c 0.003906 0.003907 0.007812 -0.679687 0.011719 -1.515625 m -1.535157 -1.875 c 0.726563 -0.007812 1.367188 -0.011718 1.425781 -0.015625 h 0.113282 v -3.042969 l -0.019532 0.003907 c -0.015624 0 -0.734374 0.125 -1.601562 0.273437 l -1.578125 0.273438 v 2.523437 h 0.175781 c 0.09375 0 0.765625 -0.007812 1.484375 -0.015625 m 4.628907 -0.046875 c 1.351562 -0.011719 2.460937 -0.023437 2.460937 -0.023437 c 0 0 0 -0.890625 0 -1.976563 v -1.972656 l -2.324219 0.402344 c -1.28125 0.21875 -2.429687 0.417969 -2.558594 0.441406 l -0.234374 0.039063 v 3.117187 h 0.097656 c 0.054687 0 1.207031 -0.011719 2.558594 -0.027344" style="fill:url(#0)"/></svg>