<svg xmlns="http://www.w3.org/2000/svg" viewBox="0 0 22 22"><g style="fill:#dcdcdc"><path d="m 0.28125 13.515625 c 4.292969 20.621094 33.84375 -1.511719 16.09375 -11.992187 c -6.898438 -4.492188 -18.304688 1.390624 -16.09375 11.992187"/><path d="m 4.492188 2.652344 c -0.386719 0 -0.753907 0.335937 -0.753907 0.695312 v 14.582032 c 0 0.335937 0.386719 0.695312 0.753907 0.695312 h 12.132812 c 0.371094 0 0.757812 -0.359375 0.757812 -0.695312 v -10.761719 l -4.925781 -4.515625"/></g><path d="m 12.457031 6.472656 l 0.023438 0.019532 l 0.058593 -0.019532 m 0.675782 0.695313 l 4.167968 3.816406 v -3.816406" style="fill-opacity:0.196078"/><path d="m 12.457031 2.652344 l 4.925781 4.515625 h -4.167968 c -0.367188 0 -0.757813 -0.359375 -0.757813 -0.695313 v -3.820312" style="fill:#fff;fill-opacity:0.392157"/><path d="m 10.304688 7.203125 c -0.757813 0.222656 -0.09375 1.261719 -1.179688 1.765625 c -1.242188 0.582031 -1.863281 -0.882812 -2.609375 0.164062 c -0.746094 1.042969 1.03125 0.878907 0.980469 2.109376 c -0.050782 1.230468 -1.808594 0.96875 -1.148438 2.054687 c 0.660156 1.082031 1.390625 -0.339844 2.585938 0.308594 c 1.191406 0.652343 0.050781 1.851562 1.457031 1.894531 c 1.40625 0.039062 0.363281 -1.222656 1.605469 -1.800781 c 1.242187 -0.582031 1.863281 0.882812 2.609375 -0.164063 c 0.742187 -1.042968 -1.03125 -0.878906 -0.984375 -2.109375 c 0.050781 -1.230469 1.808594 -0.96875 1.152344 -2.054687 c -0.660157 -1.085938 -1.394532 0.339844 -2.585938 -0.308594 c -1.191406 -0.652344 -0.050781 -1.851562 -1.460938 -1.894531 c -0.175781 -0.003907 -0.3125 0.003906 -0.421874 0.035156 m 0.015624 3.132813 c 0.625 -0.117188 1.242188 0.234374 1.375 0.789062 c 0.132813 0.550781 -0.265624 1.09375 -0.894531 1.207031 c -0.625 0.121094 -1.242187 -0.234375 -1.375 -0.785156 c -0.136719 -0.550781 0.265625 -1.09375 0.894531 -1.210937" style="fill:#878787"/></svg>