<svg xmlns="http://www.w3.org/2000/svg" viewBox="0 0 22 22"><g style="fill:#d14626"><path d="m 19.734375 16.828125 c 7.910156 -11.25 -6.699219 -22.648437 -16.019531 -13.480469 c -8.78125 8.636719 -0.640625 22.054688 10.289062 17.859375 c 2.277344 -0.875 4.277344 -2.3125 5.730469 -4.378906"/><path d="m 4.519531 3.191406 c -0.375 0 -0.730469 0.332032 -0.730469 0.6875 v 14.46875 c 0 0.335938 0.378907 0.6875 0.730469 0.6875 h 11.703125 c 0.355469 0 0.730469 -0.351562 0.730469 -0.6875 v -10.675781 l -4.753906 -4.480469"/></g><path d="m 12.199219 6.980469 l 0.023437 0.023437 l 0.058594 -0.023437 m 0.648438 0.691406 l 4.023437 3.785156 v -3.785156" style="fill-opacity:0.196078"/><g style="fill:#fff"><path d="m 12.199219 3.191406 l 4.753906 4.480469 h -4.023437 c -0.355469 0 -0.730469 -0.355469 -0.730469 -0.691406 v -3.789063" style="fill-opacity:0.392157"/><path d="m 5.984375 8.359375 h 2.558594 v 1.722656 h -2.558594"/><path d="m 5.984375 11.113281 h 2.558594 v 1.722657 h -2.558594"/><path d="m 12.398438 8.359375 v 2.167969 h 2.363281 c 0 -1.199219 -1.058594 -2.167969 -2.363281 -2.167969"/><path d="m 12.054688 8.667969 c -1.304688 0 -2.363282 0.972656 -2.363282 2.171875 c 0 1.195312 1.058594 2.167968 2.363282 2.167968 c 1.304687 0 2.363281 -0.96875 2.363281 -2.167968 h -2.363281"/></g><path d="m 3.789062 14.902344 v 3.445312 c 0 0.335938 0.378907 0.6875 0.730469 0.6875 h 11.703125 c 0.355469 0 0.730469 -0.351562 0.730469 -0.6875 v -3.445312" style="fill-opacity:0.196078"/><g style="fill:#fff"><path d="m 7.347656 16.96875 c 0 0.128906 0.003906 0.25 0.015625 0.363281 c 0.011719 0.109375 0.035157 0.207031 0.070313 0.289063 c 0.039062 0.082031 0.085937 0.148437 0.152344 0.195312 c 0.0625 0.050782 0.148437 0.074219 0.257812 0.074219 c 0.105469 0 0.1875 -0.023437 0.253906 -0.074219 c 0.066406 -0.046875 0.117188 -0.113281 0.152344 -0.195312 c 0.035156 -0.085938 0.058594 -0.183594 0.070312 -0.292969 c 0.011719 -0.113281 0.019532 -0.230469 0.019532 -0.359375 c 0 -0.128906 -0.007813 -0.25 -0.019532 -0.359375 c -0.011718 -0.113281 -0.035156 -0.210937 -0.070312 -0.292969 c -0.035156 -0.082031 -0.085938 -0.148437 -0.148438 -0.199218 c -0.066406 -0.046876 -0.152343 -0.070313 -0.257812 -0.070313 c -0.109375 0 -0.195312 0.023437 -0.257812 0.070313 c -0.066407 0.050781 -0.113282 0.117187 -0.152344 0.203124 c -0.035156 0.082032 -0.058594 0.179688 -0.070313 0.289063 c -0.011719 0.109375 -0.015625 0.230469 -0.015625 0.359375 m -0.632812 0 c 0 -0.457031 0.097656 -0.796875 0.296875 -1.027344 c 0.199219 -0.234375 0.476562 -0.351562 0.832031 -0.351562 c 0.367188 0 0.648438 0.117187 0.839844 0.351562 c 0.191406 0.230469 0.289062 0.574219 0.289062 1.027344 c 0 0.453125 -0.097656 0.800781 -0.292968 1.03125 c -0.195313 0.230469 -0.472657 0.347656 -0.832032 0.347656 c -0.367187 0 -0.648437 -0.117187 -0.84375 -0.347656 c -0.191406 -0.230469 -0.289062 -0.578125 -0.289062 -1.03125"/><path d="m 10.003906 17.863281 c 0.019532 0.003907 0.035156 0.003907 0.054688 0.003907 c 0.019531 0 0.039062 0 0.058594 0 c 0.140624 0 0.257812 -0.019532 0.351562 -0.066407 c 0.101562 -0.046875 0.175781 -0.109375 0.234375 -0.1875 c 0.0625 -0.082031 0.101563 -0.171875 0.125 -0.28125 c 0.027344 -0.113281 0.042969 -0.230469 0.042969 -0.363281 c 0 -0.113281 -0.011719 -0.226562 -0.03125 -0.332031 c -0.019532 -0.109375 -0.054688 -0.203125 -0.105469 -0.285157 c -0.050781 -0.085937 -0.121094 -0.148437 -0.207031 -0.195312 c -0.089844 -0.054688 -0.203125 -0.078125 -0.339844 -0.078125 c -0.027344 0 -0.058594 0 -0.089844 0.003906 c -0.035156 0 -0.066406 0.003907 -0.09375 0.007813 v 1.773437 m 1.496094 -0.894531 c 0 0.242188 -0.035156 0.453125 -0.109375 0.625 c -0.070313 0.171875 -0.171875 0.3125 -0.300781 0.421875 c -0.125 0.105469 -0.28125 0.183594 -0.457032 0.238281 c -0.175781 0.046875 -0.371093 0.074219 -0.582031 0.074219 c -0.113281 0 -0.222656 -0.007813 -0.332031 -0.019531 c -0.101562 -0.007813 -0.214844 -0.023438 -0.335938 -0.046875 v -2.578125 c 0.140626 -0.023438 0.273438 -0.042969 0.398438 -0.050782 c 0.125 -0.007812 0.242188 -0.011718 0.347656 -0.011718 c 0.207032 0 0.394532 0.023437 0.5625 0.078125 c 0.171875 0.050781 0.316406 0.132812 0.4375 0.242187 c 0.117188 0.105469 0.207032 0.246094 0.273438 0.417969 c 0.066406 0.167969 0.097656 0.371094 0.097656 0.609375"/><path d="m 12.773438 15.621094 c 0.398437 0 0.707031 0.070312 0.925781 0.210937 c 0.21875 0.136719 0.328125 0.359375 0.328125 0.671875 c 0 0.320313 -0.109375 0.546875 -0.332032 0.6875 c -0.222656 0.140625 -0.53125 0.210938 -0.9375 0.210938 h -0.222656 v 0.890625 h -0.621094 v -2.605469 c 0.058594 -0.011719 0.125 -0.023438 0.203126 -0.03125 c 0.074218 -0.007812 0.152343 -0.015625 0.230468 -0.015625 c 0.078125 -0.003906 0.15625 -0.011719 0.226563 -0.011719 c 0.078125 -0.003906 0.140625 -0.007812 0.199219 -0.007812 m 0.070312 0.457031 c -0.039062 0 -0.089844 0.003906 -0.15625 0.007813 c -0.066406 0 -0.117188 0 -0.152344 0.007812 v 0.851562 h 0.253906 c 0.199219 0 0.347657 -0.03125 0.449219 -0.097656 c 0.101563 -0.066406 0.152344 -0.183594 0.152344 -0.347656 c 0 -0.152344 -0.050781 -0.257812 -0.152344 -0.320312 c -0.097656 -0.066407 -0.230469 -0.101563 -0.394531 -0.101563"/></g></svg>