
<svg xmlns="http://www.w3.org/2000/svg" xmlns:xlink="http://www.w3.org/1999/xlink" width="22px" height="22px" viewBox="0 0 22 22" version="1.1">
<g id="surface1">
<path style=" stroke:none;fill-rule:nonzero;fill:rgb(68.627451%,93.333333%,93.333333%);fill-opacity:1;" d="M 0.28125 13.519531 C 4.574219 34.136719 34.125 12 16.375 1.523438 C 9.476562 -2.96875 -1.929688 2.914062 0.28125 13.519531 Z M 0.28125 13.519531 "/>
<path style=" stroke:none;fill-rule:nonzero;fill:rgb(0%,0%,0%);fill-opacity:0.196078;" d="M 13.46875 6.179688 L 13.492188 6.199219 L 13.546875 6.179688 Z M 14.199219 6.875 L 18.203125 10.695312 L 18.203125 6.875 Z M 14.199219 6.875 "/>
<path style=" stroke:none;fill-rule:nonzero;fill:rgb(100%,100%,100%);fill-opacity:0.392157;" d="M 13.46875 2.355469 L 18.203125 6.875 L 14.199219 6.875 C 13.84375 6.875 13.46875 6.515625 13.46875 6.179688 L 13.46875 2.355469 "/>
<path style="fill-rule:evenodd;fill:rgb(96.470588%,82.352941%,63.529412%);fill-opacity:1;stroke-width:3;stroke-linecap:round;stroke-linejoin:miter;stroke:rgb(0%,0%,0%);stroke-opacity:1;stroke-miterlimit:4;" d="M 10.631945 300.39996 C 11.409767 316.141164 27.160673 308.85792 34.355531 303.92411 C 40.967023 299.460187 42.911579 303.21928 43.689401 294.05649 C 44.078313 287.947964 44.661679 281.839437 44.272768 275.73091 C 34.161076 274.791137 23.077105 277.375514 14.521057 283.48404 C 10.243033 286.538304 2.270353 296.640867 10.631945 300.39996 " transform="matrix(0.0200881,0,0,0.0166263,5.692674,7.720289)"/>
<path style="fill-rule:evenodd;fill:rgb(77.647059%,69.411765%,59.607843%);fill-opacity:1;stroke-width:3;stroke-linecap:round;stroke-linejoin:miter;stroke:rgb(0%,0%,0%);stroke-opacity:1;stroke-miterlimit:4;" d="M 10.631945 300.39996 C 12.965412 299.69513 15.29888 298.9903 16.854525 296.87581 " transform="matrix(0.0200881,0,0,0.0166263,5.692674,7.720289)"/>
<path style="fill-rule:evenodd;fill:rgb(41.568627%,84.313725%,89.803922%);fill-opacity:1;stroke-width:3;stroke-linecap:round;stroke-linejoin:miter;stroke:rgb(0%,0%,0%);stroke-opacity:1;stroke-miterlimit:4;" d="M 46.995147 112.91518 C -13.286098 95.99926 31.633152 19.17279 80.052604 50.655197 Z M 46.995147 112.91518 " transform="matrix(0.0200881,0,0,0.0166263,5.692674,7.720289)"/>
<path style="fill-rule:evenodd;fill:rgb(41.568627%,84.313725%,89.803922%);fill-opacity:1;stroke-width:3;stroke-linecap:round;stroke-linejoin:miter;stroke:rgb(0%,0%,0%);stroke-opacity:1;stroke-miterlimit:4;" d="M 314.955002 45.016557 C 362.59663 11.41966 405.76578 87.071414 350.345926 106.101824 Z M 314.955002 45.016557 " transform="matrix(0.0200881,0,0,0.0166263,5.692674,7.720289)"/>
<path style="fill-rule:evenodd;fill:rgb(96.470588%,82.352941%,63.529412%);fill-opacity:1;stroke-width:3;stroke-linecap:round;stroke-linejoin:miter;stroke:rgb(0%,0%,0%);stroke-opacity:1;stroke-miterlimit:4;" d="M 325.066694 494.228211 C 337.317399 501.746397 359.48534 524.535901 341.206511 535.578237 C 323.705505 551.554384 313.982724 517.957487 298.620729 513.258621 C 305.23222 504.330774 313.593812 496.107757 325.066694 494.228211 Z M 325.066694 494.228211 " transform="matrix(0.0200881,0,0,0.0166263,5.692674,7.720289)"/>
<path style="fill:none;stroke-width:3;stroke-linecap:round;stroke-linejoin:miter;stroke:rgb(0%,0%,0%);stroke-opacity:1;stroke-miterlimit:4;" d="M 341.206511 535.578237 C 338.484133 530.174541 337.70631 523.831071 333.233831 519.602091 " transform="matrix(0.0200881,0,0,0.0166263,5.692674,7.720289)"/>
<path style="fill-rule:evenodd;fill:rgb(96.470588%,82.352941%,63.529412%);fill-opacity:1;stroke-width:3;stroke-linecap:round;stroke-linejoin:miter;stroke:rgb(0%,0%,0%);stroke-opacity:1;stroke-miterlimit:4;" d="M 108.637581 520.071977 C 94.44232 522.186467 86.275184 535.108351 74.41339 541.451821 C 63.32942 548.265177 59.051396 539.337331 58.079118 537.692727 C 56.329017 536.752954 56.329017 538.397557 53.801094 535.578237 C 43.30049 519.367147 64.496153 507.385037 75.580124 499.162021 C 90.942119 496.107757 100.470445 509.499527 108.637581 520.071977 Z M 108.637581 520.071977 " transform="matrix(0.0200881,0,0,0.0166263,5.692674,7.720289)"/>
<path style="fill:none;stroke-width:3;stroke-linecap:round;stroke-linejoin:miter;stroke:rgb(0%,0%,0%);stroke-opacity:1;stroke-miterlimit:4;" d="M 58.079118 537.692727 C 58.468029 531.349257 63.523875 527.120277 65.857343 521.951524 " transform="matrix(0.0200881,0,0,0.0166263,5.692674,7.720289)"/>
<path style=" stroke:none;fill-rule:evenodd;fill:rgb(0%,0%,0%);fill-opacity:1;" d="M 6.6875 9.246094 C 6.527344 9.175781 6.410156 9.078125 6.507812 8.925781 C 6.597656 8.785156 6.765625 8.800781 6.925781 8.871094 Z M 6.6875 9.246094 "/>
<path style=" stroke:none;fill-rule:evenodd;fill:rgb(0%,0%,0%);fill-opacity:1;" d="M 12.476562 9.113281 C 12.636719 9.042969 12.753906 8.945312 12.65625 8.792969 C 12.566406 8.652344 12.398438 8.667969 12.238281 8.738281 Z M 12.476562 9.113281 "/>
<path style="fill-rule:evenodd;fill:rgb(96.470588%,82.352941%,63.529412%);fill-opacity:1;stroke-width:3;stroke-linecap:round;stroke-linejoin:miter;stroke:rgb(0%,0%,0%);stroke-opacity:1;stroke-miterlimit:4;" d="M 392.542797 298.520414 C 391.764975 314.261617 376.014069 306.978374 368.81921 302.044564 C 362.013264 297.345697 360.068707 301.339734 359.48534 291.942 C 359.096429 286.068417 358.513062 279.95989 358.707518 273.851364 C 369.013666 272.91159 380.097637 275.261024 388.459229 281.36955 C 392.737253 284.658757 400.904389 294.526377 392.542797 298.520414 " transform="matrix(0.0200881,0,0,0.0166263,5.692674,7.720289)"/>
<path style="fill-rule:evenodd;fill:rgb(77.647059%,69.411765%,59.607843%);fill-opacity:1;stroke-width:3;stroke-linecap:round;stroke-linejoin:miter;stroke:rgb(0%,0%,0%);stroke-opacity:1;stroke-miterlimit:4;" d="M 392.542797 298.520414 C 390.209329 297.58064 387.681406 297.110754 386.125761 294.996264 " transform="matrix(0.0200881,0,0,0.0166263,5.692674,7.720289)"/>
<path style="fill-rule:evenodd;fill:rgb(41.568627%,84.313725%,89.803922%);fill-opacity:1;stroke-width:3;stroke-linecap:round;stroke-linejoin:miter;stroke:rgb(0%,0%,0%);stroke-opacity:1;stroke-miterlimit:4;" d="M 195.559246 13.064264 C 255.840491 13.064264 312.427079 21.757167 341.984334 79.78817 C 368.430299 144.867474 359.096429 214.880587 362.985542 283.48404 C 366.485743 342.454817 374.263968 410.588384 346.845725 465.330181 C 318.066292 522.891297 246.11771 537.457784 186.808743 535.343294 C 140.333848 533.463747 84.136172 518.427374 57.690207 475.902631 C 26.966217 425.859701 41.550389 351.852551 43.883857 296.17098 C 46.41178 230.386847 25.993939 164.36777 47.578514 100.22824 C 69.940911 33.26939 130.416611 18.233017 195.559246 13.064264 " transform="matrix(0.0200881,0,0,0.0166263,5.692674,7.720289)"/>
<path style="fill-rule:evenodd;fill:rgb(100%,100%,100%);fill-opacity:1;stroke-width:2.9081;stroke-linecap:round;stroke-linejoin:miter;stroke:rgb(0%,0%,0%);stroke-opacity:1;stroke-miterlimit:4;" d="M 206.254306 94.119714 C 216.949365 157.084527 320.010848 140.40355 305.23222 76.96885 C 292.009238 19.87762 202.559649 35.853767 206.254306 94.119714 " transform="matrix(0.0200881,0,0,0.0166263,5.692674,7.720289)"/>
<path style="fill-rule:evenodd;fill:rgb(100%,100%,100%);fill-opacity:1;stroke-width:2.8214;stroke-linecap:round;stroke-linejoin:miter;stroke:rgb(0%,0%,0%);stroke-opacity:1;stroke-miterlimit:4;" d="M 83.163894 104.45722 C 97.164699 159.199017 185.058643 145.102417 181.752897 90.125677 C 177.669329 24.341544 69.746455 37.028484 83.163894 104.45722 " transform="matrix(0.0200881,0,0,0.0166263,5.692674,7.720289)"/>
<path style="fill-rule:evenodd;fill:rgb(100%,100%,100%);fill-opacity:1;stroke-width:3;stroke-linecap:round;stroke-linejoin:miter;stroke:rgb(0%,0%,0%);stroke-opacity:1;stroke-miterlimit:4;" d="M 218.50501 169.771467 C 218.699466 177.994484 220.449567 187.157274 218.893922 195.850177 C 216.75491 199.844214 212.671342 200.3141 209.17114 201.72376 C 204.30975 201.01893 200.226181 197.964667 198.281625 193.2658 C 196.920436 183.39818 198.670536 173.765504 199.059448 163.66294 Z M 218.50501 169.771467 " transform="matrix(0.0200881,0,0,0.0166263,5.692674,7.720289)"/>
<path style=" stroke:none;fill-rule:evenodd;fill:rgb(0%,0%,0%);fill-opacity:1;" d="M 8.148438 9.304688 C 8.148438 9.160156 8.011719 9.039062 7.847656 9.039062 C 7.683594 9.039062 7.550781 9.160156 7.550781 9.304688 C 7.550781 9.453125 7.683594 9.574219 7.847656 9.574219 C 8.011719 9.574219 8.148438 9.453125 8.148438 9.304688 Z M 8.148438 9.304688 "/>
<path style=" stroke:none;fill-rule:evenodd;fill:rgb(100%,100%,100%);fill-opacity:1;" d="M 8.054688 9.367188 C 8.054688 9.328125 8.023438 9.300781 7.984375 9.300781 C 7.945312 9.300781 7.914062 9.328125 7.914062 9.367188 C 7.914062 9.402344 7.945312 9.433594 7.984375 9.433594 C 8.023438 9.433594 8.054688 9.402344 8.054688 9.367188 Z M 8.054688 9.367188 "/>
<path style=" stroke:none;fill-rule:evenodd;fill:rgb(0%,0%,0%);fill-opacity:1;" d="M 10.636719 9.238281 C 10.636719 9.09375 10.507812 8.972656 10.34375 8.972656 C 10.183594 8.972656 10.050781 9.09375 10.050781 9.238281 C 10.050781 9.386719 10.183594 9.507812 10.34375 9.507812 C 10.507812 9.507812 10.636719 9.386719 10.636719 9.238281 Z M 10.636719 9.238281 "/>
<path style=" stroke:none;fill-rule:evenodd;fill:rgb(100%,100%,100%);fill-opacity:1;" d="M 10.546875 9.300781 C 10.546875 9.261719 10.515625 9.230469 10.476562 9.230469 C 10.441406 9.230469 10.410156 9.261719 10.410156 9.300781 C 10.410156 9.335938 10.441406 9.367188 10.476562 9.367188 C 10.515625 9.367188 10.546875 9.335938 10.546875 9.300781 Z M 10.546875 9.300781 "/>
<path style="fill-rule:evenodd;fill:rgb(100%,100%,100%);fill-opacity:1;stroke-width:3;stroke-linecap:round;stroke-linejoin:miter;stroke:rgb(0%,0%,0%);stroke-opacity:1;stroke-miterlimit:4;" d="M 176.308139 168.831694 C 169.696648 184.572897 179.808341 215.82036 197.309347 192.795914 C 196.142613 182.928294 197.892714 173.295617 198.08717 163.193054 Z M 176.308139 168.831694 " transform="matrix(0.0200881,0,0,0.0166263,5.692674,7.720289)"/>
<path style="fill-rule:evenodd;fill:rgb(96.470588%,82.352941%,63.529412%);fill-opacity:1;stroke-width:3;stroke-linecap:round;stroke-linejoin:miter;stroke:rgb(13.72549%,12.156863%,12.54902%);stroke-opacity:1;stroke-miterlimit:4;" d="M 178.447151 138.758947 C 166.390902 139.69872 156.473665 154.030264 162.696245 165.307544 C 171.057837 180.343917 189.531122 164.132827 201.19846 165.542487 C 214.421442 165.77743 225.310957 179.639087 236.006017 168.126864 C 247.86781 155.20498 230.950171 142.752984 217.532732 137.114344 Z M 178.447151 138.758947 " transform="matrix(0.0200881,0,0,0.0166263,5.692674,7.720289)"/>
<path style=" stroke:none;fill-rule:evenodd;fill:rgb(0%,0%,0%);fill-opacity:1;" d="M 9.246094 10.015625 C 9.230469 9.667969 10.027344 9.625 10.125 9.914062 C 10.21875 10.207031 9.285156 10.273438 9.246094 10.015625 Z M 9.246094 10.015625 "/>
</g>
</svg>
