<svg xmlns="http://www.w3.org/2000/svg" viewBox="0 0 22 22"><path d="m 18.148438 3.191406 c 17.34375 22.890625 -30.386719 26.144532 -15.070313 2.777344 c 3.492187 -5.328125 10.476563 -8.839844 15.070313 -2.777344" style="fill:#9370db"/><path d="m 12.539062 7.238281 l 0.023438 0.023438 l 0.054688 -0.023438 m 0.621093 0.671875 l 3.839844 3.691406 v -3.691406" style="fill-opacity:0.196078"/><g style="fill:#fff"><path d="m 12.539062 3.566406 l 4.539063 4.359375 h -3.839844 c -0.339843 0 -0.699219 -0.347656 -0.699219 -0.671875" style="fill-opacity:0.392157"/><path d="m 9.691406 8.734375 c -2.019531 0 -3.660156 0.621094 -3.660156 1.386719 v 1.109375 c 0 0.765625 1.640625 1.386719 3.660156 1.386719 c 2.023438 0 3.664063 -0.621094 3.664063 -1.386719 v -1.109375 c 0 -0.765625 -1.640625 -1.386719 -3.664063 -1.386719"/><path d="m 9.679688 13.171875 c -1.640626 0 -3.019532 -0.40625 -3.488282 -0.96875 c -0.109375 0.128906 -0.160156 0.269531 -0.160156 0.414063 v 1.109374 c 0 0.769532 1.640625 1.390626 3.660156 1.390626 c 2.023438 0 3.664063 -0.621094 3.664063 -1.390626 v -1.109374 c 0 -0.144532 -0.066407 -0.285157 -0.175781 -0.414063 c -0.464844 0.5625 -1.859376 0.96875 -3.5 0.96875"/><path d="m 9.679688 15.671875 c -1.640626 0 -3.019532 -0.40625 -3.488282 -0.972656 c -0.109375 0.132812 -0.160156 0.273437 -0.160156 0.417969 v 1.109374 c 0 0.769532 1.640625 1.390626 3.660156 1.390626 c 2.023438 0 3.664063 -0.621094 3.664063 -1.390626 v -1.109374 c 0 -0.144532 -0.066407 -0.285157 -0.175781 -0.417969 c -0.464844 0.566406 -1.859376 0.972656 -3.5 0.972656"/></g></svg>