<svg xmlns="http://www.w3.org/2000/svg" viewBox="0 0 22 22"><defs><clipPath id="3"><path d="m 9.59375 19.605469 c 3.539062 0.847656 7.171875 -1.324219 8.109375 -4.847657 c 0.945313 -3.523437 -1.160156 -7.070312 -4.699219 -7.921874 c -3.539062 -0.847657 -7.167968 1.324218 -8.109375 4.847656 c -0.941406 3.523437 1.160157 7.070312 4.699219 7.921875"/></clipPath><clipPath id="2"><path d="m 9.167969 9.625 h 5.039062 v 9.167969 h -5.039062"/></clipPath><clipPath id="0"><path d="m 5.5 8 h 5.957031 v 12 h -5.957031"/></clipPath><clipPath id="1"><path d="m 4.054688 19.921875 c 4.878906 2.167969 10.707031 0.539063 13.015624 -3.628906 c 2.3125 -4.167969 0.238282 -9.304688 -4.640624 -11.472657 c -4.878907 -2.167968 -10.703126 -0.539062 -13.015626 3.628907 c -2.3125 4.167969 -0.238281 9.304687 4.640626 11.472656"/></clipPath></defs><path d="m 3.886719 18.8125 c -17.34375 -22.621094 30.386719 -25.835938 15.070312 -2.742188 c -3.492187 5.261719 -10.472656 8.734376 -15.070312 2.742188" style="fill:#dcdcdc"/><path d="m 13.167969 6.980469 l 0.023437 0.023437 l 0.054688 -0.023437 m 0.632812 0.679687 l 3.925782 3.730469 v -3.730469" style="fill-opacity:0.196078"/><path d="m 13.167969 3.253906 l 4.636719 4.40625 h -3.925782 c -0.34375 0 -0.710937 -0.347656 -0.710937 -0.679687" style="fill:#fff;fill-opacity:0.392157"/><g style="clip-path:url(#0)"><g style="clip-path:url(#1)"><path d="m 10.054688 8.480469 c 1.203124 0.714843 1.5 2.21875 0.65625 3.359375 c -0.261719 0.359375 -0.609376 0.636718 -0.992188 0.832031 c -0.003906 0 0 0.003906 -0.003906 0.003906 l 1.222656 6.234375 l -0.613281 0.828125 l -0.875 -0.519531 l -0.085938 -0.449219 l 0.40625 -0.550781 l -0.582031 -0.347656 l -0.089844 -0.449219 l -0.582031 -0.34375 l -0.085937 -0.449219 l 0.40625 -0.550781 l -0.085938 -0.445313 l -0.585938 -0.347656 l 0.410157 -0.550781 l -0.34375 -1.75 c 0 0 -0.003907 -0.003906 -0.003907 -0.003906 c -0.429687 -0.027344 -0.851562 -0.148438 -1.226562 -0.371094 c -1.203125 -0.714844 -1.503906 -2.222656 -0.660156 -3.363281 l 0.007812 -0.007813 c 0.847656 -1.136719 2.503906 -1.472656 3.707032 -0.757812 m -1.25 0.84375 c -0.320313 -0.191407 -0.765626 -0.097657 -0.992188 0.203125 c -0.226562 0.304687 -0.144531 0.707031 0.175781 0.898437 c 0.320313 0.1875 0.765625 0.101563 0.992188 -0.207031 c 0.222656 -0.300781 0.144531 -0.703125 -0.175781 -0.894531" style="fill:#878787"/></g></g><g style="clip-path:url(#2)"><g style="clip-path:url(#3)"><path d="m 11.949219 9.988281 c 0.898437 0.34375 1.308593 1.433594 0.910156 2.433594 c -0.121094 0.3125 -0.3125 0.578125 -0.539063 0.785156 c 0 0.003907 0 0.003907 0 0.003907 l 1.691407 4.515624 l -0.289063 0.722657 l -0.652344 -0.25 l -0.121093 -0.324219 l 0.191406 -0.484375 l -0.433594 -0.164063 l -0.125 -0.324218 l -0.433593 -0.167969 l -0.121094 -0.324219 l 0.191406 -0.484375 l -0.121094 -0.324219 l -0.433594 -0.167968 l 0.191407 -0.480469 l -0.476563 -1.265625 c 0 0 -0.003906 -0.003906 -0.003906 -0.003906 c -0.289062 0.050781 -0.585938 0.023437 -0.863281 -0.082032 c -0.902344 -0.34375 -1.3125 -1.4375 -0.914063 -2.433593 l 0.003906 -0.007813 c 0.398438 -0.996094 1.449219 -1.519531 2.347657 -1.171875 m -0.710938 0.839844 c -0.238281 -0.09375 -0.519531 0.046875 -0.625 0.3125 c -0.105469 0.265625 0.003907 0.558594 0.242188 0.652344 c 0.242187 0.089843 0.523437 -0.050781 0.628906 -0.316407 c 0.105469 -0.265624 -0.003906 -0.558593 -0.246094 -0.648437" style="fill:#878787"/></g></g></svg>