<svg xmlns="http://www.w3.org/2000/svg" viewBox="0 0 22 22"><path d="m 18.148438 3.191406 c 17.34375 22.890625 -30.386719 26.144532 -15.070313 2.777344 c 3.492187 -5.328125 10.476563 -8.839844 15.070313 -2.777344" style="fill:#b0dfe5"/><path d="m 12.328125 7.035156 l 0.019531 0.023438 l 0.054688 -0.023438 m 0.632812 0.703125 l 3.890625 3.855469 v -3.855469" style="fill-opacity:0.196078"/><g style="fill:#fff"><path d="m 12.417969 3.089844 l 4.601562 4.554687 h -3.894531 c -0.34375 0 -0.707031 -0.359375 -0.707031 -0.699219 v -3.855468" style="fill-opacity:0.392157"/><path d="m 8.90625 14.367188 c 0 0.421874 0.085938 0.753906 0.257812 0.996093 c 0.175782 0.242188 0.410157 0.363281 0.699219 0.363281 c 0.296875 0 0.53125 -0.121093 0.703125 -0.363281 c 0.171875 -0.246093 0.257813 -0.582031 0.257813 -0.996093 c 0 -0.414063 -0.089844 -0.746094 -0.265625 -0.988282 c -0.171875 -0.242187 -0.40625 -0.363281 -0.699219 -0.363281 c -0.289063 0 -0.519531 0.121094 -0.695313 0.363281 c -0.171874 0.242188 -0.257812 0.574219 -0.257812 0.988282 m 2.019531 1.546874 c -0.097656 0.242188 -0.253906 0.4375 -0.472656 0.574219 c -0.222656 0.132813 -0.476563 0.199219 -0.765625 0.199219 c -0.566406 0 -1.023438 -0.210938 -1.375 -0.636719 c -0.355469 -0.429687 -0.53125 -0.988281 -0.53125 -1.675781 c 0 -0.6875 0.175781 -1.242188 0.53125 -1.667969 c 0.351562 -0.429687 0.808594 -0.644531 1.375 -0.644531 c 0.289062 0 0.542969 0.070312 0.765625 0.207031 c 0.21875 0.132813 0.375 0.320313 0.472656 0.566407 v -0.675782 h 1.03125 v 3.566406 c 0.402344 -0.0625 0.722657 -0.269531 0.957031 -0.613281 c 0.234376 -0.34375 0.351563 -0.785156 0.351563 -1.324219 c 0 -0.34375 -0.046875 -0.667968 -0.140625 -0.96875 c -0.097656 -0.300781 -0.242188 -0.574218 -0.4375 -0.824218 c -0.3125 -0.417969 -0.699219 -0.738282 -1.167969 -0.964844 c -0.46875 -0.230469 -0.972656 -0.34375 -1.519531 -0.34375 c -0.382812 0 -0.746094 0.054688 -1.09375 0.15625 c -0.351562 0.105469 -0.671875 0.261719 -0.960938 0.464844 c -0.488281 0.335937 -0.867187 0.769531 -1.136718 1.304687 c -0.273438 0.535157 -0.410156 1.113281 -0.410156 1.734375 c 0 0.511719 0.089843 0.992188 0.265624 1.4375 c 0.175782 0.445313 0.429688 0.839844 0.757813 1.183594 c 0.332031 0.335938 0.707031 0.59375 1.132813 0.773438 c 0.425781 0.175781 0.875 0.261718 1.359374 0.261718 c 0.417969 0 0.828126 -0.082031 1.238282 -0.242187 c 0.417968 -0.164063 0.769531 -0.378907 1.0625 -0.652344 l 0.527344 0.832031 c -0.410157 0.332032 -0.859376 0.589844 -1.34375 0.765625 c -0.484376 0.175781 -0.972657 0.265625 -1.46875 0.265625 c -0.613282 0 -1.1875 -0.113281 -1.726563 -0.335937 c -0.535156 -0.226563 -1.011719 -0.550781 -1.433594 -0.980469 c -0.417969 -0.429688 -0.738281 -0.925781 -0.957031 -1.492188 c -0.222656 -0.5625 -0.332031 -1.167968 -0.332031 -1.816406 c 0 -0.625 0.109375 -1.222656 0.332031 -1.785156 c 0.222656 -0.566406 0.542969 -1.066406 0.957031 -1.496094 c 0.417969 -0.425781 0.898438 -0.753906 1.449219 -0.988281 c 0.546875 -0.234375 1.117188 -0.351563 1.710938 -0.351563 c 0.734374 0 1.398437 0.148438 1.996093 0.445313 c 0.601563 0.289063 1.105469 0.714844 1.511719 1.265625 c 0.246094 0.335938 0.425781 0.703125 0.550781 1.097656 c 0.128907 0.390625 0.195313 0.800782 0.195313 1.230469 c 0 0.929687 -0.269532 1.65625 -0.800782 2.171875 c -0.535156 0.515625 -1.289062 0.773438 -2.265624 0.773438 h -0.191407"/></g></svg>