
<svg xmlns="http://www.w3.org/2000/svg" xmlns:xlink="http://www.w3.org/1999/xlink" width="22px" height="22px" viewBox="0 0 22 22" version="1.1">
<defs>
<radialGradient id="radial0" gradientUnits="userSpaceOnUse" cx="24" cy="38" fx="24" fy="38" r="24" gradientTransform="matrix(-0.232323,0,0,0.105045,15.457097,10.89785)">
<stop offset="0" style="stop-color:rgb(0%,0%,0%);stop-opacity:0.301961;"/>
<stop offset="0.438356" style="stop-color:rgb(0%,0%,0%);stop-opacity:0.0828912;"/>
<stop offset="1" style="stop-color:rgb(0%,0%,0%);stop-opacity:0;"/>
</radialGradient>
<radialGradient id="radial1" gradientUnits="userSpaceOnUse" cx="27.552082" cy="6" fx="27.552082" fy="6" r="20" gradientTransform="matrix(0.23896,0,0,0.126054,3.708214,8.70634)">
<stop offset="0" style="stop-color:rgb(98.431373%,83.921569%,83.921569%);stop-opacity:1;"/>
<stop offset="1" style="stop-color:rgb(94.901961%,77.647059%,78.039216%);stop-opacity:1;"/>
</radialGradient>
<linearGradient id="linear0" gradientUnits="userSpaceOnUse" x1="16.500126" y1="19.918748" x2="10.4995" y2="45.418748" gradientTransform="matrix(0.199134,0,0,0.210091,5.102149,7.326307)">
<stop offset="0" style="stop-color:rgb(97.254902%,82.352941%,85.098039%);stop-opacity:1;"/>
<stop offset="1" style="stop-color:rgb(95.294118%,69.411765%,70.196078%);stop-opacity:1;"/>
</linearGradient>
<linearGradient id="linear1" gradientUnits="userSpaceOnUse" x1="42.606602" y1="43.254533" x2="32" y2="20.668748" gradientTransform="matrix(0.199134,0,0,0.210091,5.102149,7.326307)">
<stop offset="0" style="stop-color:rgb(87.45098%,45.882353%,45.882353%);stop-opacity:1;"/>
<stop offset="1" style="stop-color:rgb(89.411765%,62.745098%,62.745098%);stop-opacity:1;"/>
</linearGradient>
<linearGradient id="linear2" gradientUnits="userSpaceOnUse" x1="42.606602" y1="42.254533" x2="32" y2="19.668748" gradientTransform="matrix(0.199134,0,0,0.210091,5.102149,7.536398)">
<stop offset="0" style="stop-color:rgb(87.45098%,45.882353%,45.882353%);stop-opacity:1;"/>
<stop offset="1" style="stop-color:rgb(89.411765%,62.745098%,62.745098%);stop-opacity:1;"/>
</linearGradient>
<linearGradient id="linear3" gradientUnits="userSpaceOnUse" x1="40" y1="36.668748" x2="9" y2="3.668748" gradientTransform="matrix(0.199134,0,0,0.210091,5.102149,7.326307)">
<stop offset="0" style="stop-color:rgb(67.843137%,18.431373%,18.039216%);stop-opacity:0.909804;"/>
<stop offset="1" style="stop-color:rgb(75.686275%,25.882353%,25.098039%);stop-opacity:0.909804;"/>
</linearGradient>
<radialGradient id="radial2" gradientUnits="userSpaceOnUse" cx="23.276966" cy="13.919409" fx="23.276966" fy="13.919409" r="19.4375" gradientTransform="matrix(0.199134,0,0,0.243192,5.102149,7.558339)">
<stop offset="0" style="stop-color:rgb(100%,77.254902%,76.862745%);stop-opacity:1;"/>
<stop offset="0.339228" style="stop-color:rgb(91.372549%,45.882353%,45.490196%);stop-opacity:1;"/>
<stop offset="1" style="stop-color:rgb(78.431373%,30.980392%,30.588235%);stop-opacity:1;"/>
</radialGradient>
<linearGradient id="linear4" gradientUnits="userSpaceOnUse" x1="8.5" y1="0" x2="24.5" y2="0" gradientTransform="matrix(0.199134,0,0,0.210091,5.102149,7.419154)">
<stop offset="0" style="stop-color:rgb(78.431373%,30.980392%,30.588235%);stop-opacity:1;"/>
<stop offset="0.5" style="stop-color:rgb(57.647059%,23.137255%,23.137255%);stop-opacity:1;"/>
<stop offset="1" style="stop-color:rgb(78.431373%,30.980392%,30.588235%);stop-opacity:1;"/>
</linearGradient>
<linearGradient id="linear5" gradientUnits="userSpaceOnUse" x1="8.5" y1="0" x2="23.5" y2="0" gradientTransform="matrix(0.199134,0,0,0.210091,5.102149,7.419154)">
<stop offset="0" style="stop-color:rgb(78.431373%,30.980392%,30.588235%);stop-opacity:1;"/>
<stop offset="0.5" style="stop-color:rgb(100%,53.333333%,52.54902%);stop-opacity:1;"/>
<stop offset="1" style="stop-color:rgb(78.431373%,30.980392%,30.588235%);stop-opacity:1;"/>
</linearGradient>
<linearGradient id="linear6" gradientUnits="userSpaceOnUse" x1="38.865144" y1="0" x2="25.397821" y2="0" gradientTransform="matrix(0.199134,0,0,0.210091,5.102149,7.419154)">
<stop offset="0" style="stop-color:rgb(78.431373%,30.980392%,30.588235%);stop-opacity:1;"/>
<stop offset="0.5" style="stop-color:rgb(100%,53.333333%,52.54902%);stop-opacity:1;"/>
<stop offset="1" style="stop-color:rgb(78.431373%,30.980392%,30.588235%);stop-opacity:1;"/>
</linearGradient>
<linearGradient id="linear7" gradientUnits="userSpaceOnUse" x1="38.865144" y1="0" x2="24.5" y2="0" gradientTransform="matrix(0.199134,0,0,0.210091,5.102149,7.419154)">
<stop offset="0" style="stop-color:rgb(78.431373%,30.980392%,30.588235%);stop-opacity:1;"/>
<stop offset="0.5" style="stop-color:rgb(57.647059%,23.137255%,23.137255%);stop-opacity:1;"/>
<stop offset="1" style="stop-color:rgb(78.431373%,30.980392%,30.588235%);stop-opacity:1;"/>
</linearGradient>
<filter id="alpha" filterUnits="objectBoundingBox" x="0%" y="0%" width="100%" height="100%">
  <feColorMatrix type="matrix" in="SourceGraphic" values="0 0 0 0 1 0 0 0 0 1 0 0 0 0 1 0 0 0 1 0"/>
</filter>
<mask id="mask0">
  <g filter="url(#alpha)">
<rect x="0" y="0" width="22" height="22" style="fill:rgb(0%,0%,0%);fill-opacity:0.811765;stroke:none;"/>
  </g>
</mask>
<clipPath id="clip1">
  <rect width="22" height="22"/>
</clipPath>
<g id="surface6" clip-path="url(#clip1)">
<path style="fill-rule:nonzero;fill:rgb(97.254902%,82.352941%,85.098039%);fill-opacity:1;stroke-width:2;stroke-linecap:butt;stroke-linejoin:round;stroke:rgb(71.764706%,18.431373%,17.254902%);stroke-opacity:1;stroke-miterlimit:4;" d="M 25.007744 11.503518 C 25.007744 11.782415 24.556571 12.005533 24.007316 12.005533 C 23.438446 12.005533 23.006889 11.782415 23.006889 11.503518 C 23.006889 11.22462 23.438446 11.001503 24.007316 11.001503 C 24.556571 11.001503 25.007744 11.22462 25.007744 11.503518 Z M 25.007744 11.503518 " transform="matrix(0.199134,0,0,0.210091,5.102149,7.419154)"/>
</g>
</defs>
<g id="surface1">
<path style=" stroke:none;fill-rule:nonzero;fill:rgb(100%,94.117647%,96.078431%);fill-opacity:1;" d="M 0.28125 13.519531 C 4.574219 34.136719 34.125 12 16.375 1.523438 C 9.476562 -2.96875 -1.929688 2.914062 0.28125 13.519531 Z M 0.28125 13.519531 "/>
<path style=" stroke:none;fill-rule:nonzero;fill:rgb(0%,0%,0%);fill-opacity:0.196078;" d="M 13.46875 6.179688 L 13.492188 6.199219 L 13.546875 6.179688 Z M 14.199219 6.875 L 18.203125 10.695312 L 18.203125 6.875 Z M 14.199219 6.875 "/>
<path style=" stroke:none;fill-rule:nonzero;fill:rgb(100%,100%,100%);fill-opacity:0.392157;" d="M 13.46875 2.355469 L 18.203125 6.875 L 14.199219 6.875 C 13.84375 6.875 13.46875 6.515625 13.46875 6.179688 L 13.46875 2.355469 "/>
<path style=" stroke:none;fill-rule:nonzero;fill:url(#radial0);" d="M 4.304688 14.890625 C 4.304688 16.28125 6.800781 17.410156 9.882812 17.410156 C 12.960938 17.410156 15.457031 16.28125 15.457031 14.890625 C 15.457031 13.496094 12.960938 12.367188 9.882812 12.367188 C 6.800781 12.367188 4.304688 13.496094 4.304688 14.890625 Z M 4.304688 14.890625 "/>
<path style=" stroke:none;fill-rule:nonzero;fill:url(#radial1);" d="M 9.980469 12.929688 L 5.800781 11.25 L 5.800781 10.40625 L 9.980469 8.621094 L 13.964844 10.40625 L 13.964844 11.25 Z M 9.980469 12.929688 "/>
<path style=" stroke:none;fill-rule:nonzero;fill:url(#linear0);" d="M 5.800781 10.40625 L 5.800781 11.660156 L 6 11.789062 L 6 15.03125 L 9.980469 16.816406 L 9.980469 12.089844 Z M 5.800781 10.40625 "/>
<path style=" stroke:none;fill-rule:nonzero;fill:url(#linear1);" d="M 13.964844 10.40625 L 13.964844 11.257812 L 13.765625 11.53125 L 13.765625 15.03125 L 9.980469 16.816406 L 9.980469 12.089844 Z M 13.964844 10.40625 "/>
<path style=" stroke:none;fill-rule:nonzero;fill:rgb(100%,100%,100%);fill-opacity:0.301961;" d="M 9.980469 8.726562 L 5.898438 10.476562 L 6.144531 10.574219 L 9.980469 8.933594 L 13.59375 10.554688 L 13.839844 10.457031 Z M 9.980469 8.726562 "/>
<path style=" stroke:none;fill-rule:nonzero;fill:rgb(100%,100%,100%);fill-opacity:0.101961;" d="M 13.667969 10.566406 L 13.867188 10.472656 L 13.867188 14.949219 L 13.667969 15.042969 Z M 13.667969 10.566406 "/>
<path style=" stroke:none;fill-rule:nonzero;fill:rgb(97.254902%,82.352941%,85.098039%);fill-opacity:1;" d="M 5.800781 10.40625 L 5.800781 11.601562 L 9.980469 13.28125 L 9.980469 12.085938 Z M 5.800781 10.40625 "/>
<path style=" stroke:none;fill-rule:nonzero;fill:url(#linear2);" d="M 13.964844 10.40625 L 9.980469 12.085938 L 9.980469 13.28125 L 13.964844 11.601562 Z M 13.964844 10.40625 "/>
<path style=" stroke:none;fill-rule:nonzero;fill:url(#linear3);" d="M 9.980469 8.511719 L 9.945312 8.523438 L 5.761719 10.308594 L 5.699219 10.335938 L 5.699219 11.667969 L 5.898438 11.949219 L 5.898438 15.101562 L 5.960938 15.128906 L 9.945312 16.914062 L 9.980469 16.925781 L 10.019531 16.914062 L 13.800781 15.128906 L 13.863281 15.101562 L 13.863281 11.738281 L 14.0625 11.457031 L 14.0625 10.335938 L 14 10.308594 L 10.019531 8.523438 Z M 9.980469 8.734375 L 13.863281 10.5 L 13.863281 11.457031 L 13.664062 11.738281 L 13.664062 14.957031 L 9.992188 16.660156 L 6.097656 14.957031 L 6.097656 11.949219 L 5.898438 11.667969 L 5.917969 10.484375 Z M 9.980469 8.734375 "/>
<path style=" stroke:none;fill-rule:nonzero;fill:url(#radial2);" d="M 9.898438 12.160156 L 5.890625 10.476562 L 9.976562 11.996094 L 13.835938 10.480469 L 10.097656 12.1875 L 10.085938 16.613281 L 9.988281 16.671875 L 9.890625 16.621094 Z M 9.898438 12.160156 "/>
<path style=" stroke:none;fill-rule:nonzero;fill:rgb(78.431373%,30.980392%,30.588235%);fill-opacity:1;" d="M 11.25 9.332031 L 7.308594 11.003906 L 8.089844 11.316406 L 12.03125 9.648438 Z M 11.25 9.332031 "/>
<path style=" stroke:none;fill-rule:nonzero;fill:rgb(87.45098%,36.078431%,35.686275%);fill-opacity:1;" d="M 8.410156 9.308594 L 12.46875 11.109375 L 11.6875 11.421875 L 7.628906 9.625 Z M 8.410156 9.308594 "/>
<path style=" stroke:none;fill-rule:nonzero;fill:rgb(100%,100%,100%);fill-opacity:0.101961;" d="M 13.667969 14.738281 L 13.667969 14.949219 L 10.082031 16.609375 L 10.082031 16.398438 Z M 13.667969 14.738281 "/>
<path style=" stroke:none;fill-rule:nonzero;fill:rgb(71.372549%,16.862745%,16.862745%);fill-opacity:0.8;" d="M 12.265625 15.617188 L 11.5 15.984375 L 11.480469 12.800781 L 11.679688 12.542969 L 11.671875 11.4375 L 12.464844 11.117188 L 12.464844 12.328125 L 12.265625 12.53125 Z M 12.265625 15.617188 "/>
<path style=" stroke:none;fill-rule:nonzero;fill:rgb(100%,100%,100%);fill-opacity:0.101961;" d="M 9.882812 12.175781 L 9.683594 12.082031 L 9.683594 16.558594 L 9.882812 16.652344 Z M 9.882812 12.175781 "/>
<path style=" stroke:none;fill-rule:nonzero;fill:rgb(100%,100%,100%);fill-opacity:0.101961;" d="M 6.097656 10.5625 L 5.898438 10.46875 L 5.898438 14.949219 L 6.097656 15.042969 Z M 6.097656 10.5625 "/>
<path style=" stroke:none;fill-rule:nonzero;fill:rgb(100%,100%,100%);fill-opacity:0.101961;" d="M 6.097656 14.816406 L 6.097656 15.027344 L 9.683594 16.539062 L 9.683594 16.328125 Z M 6.097656 14.816406 "/>
<path style=" stroke:none;fill-rule:nonzero;fill:rgb(71.372549%,16.862745%,16.862745%);fill-opacity:0.8;" d="M 7.492188 15.601562 L 8.257812 15.894531 L 8.277344 12.710938 L 8.078125 12.453125 L 8.085938 11.347656 L 7.292969 11.027344 L 7.292969 12.238281 L 7.492188 12.445312 Z M 7.492188 15.601562 "/>
<path style=" stroke:none;fill-rule:nonzero;fill:url(#linear4);" d="M 6.59375 9.101562 L 6.59375 9.941406 C 6.59375 9.941406 6.894531 10.570312 8.386719 10.570312 C 9.882812 10.570312 9.980469 9.941406 9.980469 9.941406 L 9.980469 9.519531 C 9.980469 9.519531 9.882812 9.730469 8.386719 9.730469 C 6.894531 9.730469 6.59375 9.101562 6.59375 9.101562 Z M 6.59375 9.101562 "/>
<path style=" stroke:none;fill-rule:nonzero;fill:url(#linear5);" d="M 6.59375 9.941406 L 6.59375 9.101562 C 6.59375 9.101562 6.695312 8.050781 8.1875 8.050781 C 9.683594 8.050781 9.980469 9.519531 9.980469 9.519531 L 9.980469 9.941406 C 9.980469 9.941406 9.78125 9.101562 8.289062 9.101562 C 6.792969 9.101562 6.59375 9.941406 6.59375 9.941406 Z M 6.59375 9.941406 "/>
<path style=" stroke:none;fill-rule:nonzero;fill:url(#linear6);" d="M 12.96875 9.921875 L 12.96875 9.167969 C 12.96875 9.167969 12.929688 8.226562 11.589844 8.226562 C 10.25 8.226562 9.980469 9.546875 9.980469 9.546875 L 9.980469 9.921875 C 9.980469 9.921875 10.160156 9.035156 11.5 9.035156 C 12.839844 9.035156 12.96875 9.921875 12.96875 9.921875 Z M 12.96875 9.921875 "/>
<path style=" stroke:none;fill-rule:nonzero;fill:url(#linear7);" d="M 12.96875 9.261719 L 12.96875 9.828125 C 12.96875 9.828125 12.753906 10.582031 11.410156 10.582031 C 10.070312 10.582031 9.980469 10.015625 9.980469 10.015625 L 9.980469 9.640625 C 9.980469 9.640625 10.070312 9.976562 11.410156 9.976562 C 12.753906 9.976562 12.96875 9.261719 12.96875 9.261719 Z M 12.96875 9.261719 "/>
<path style="fill:none;stroke-width:1;stroke-linecap:butt;stroke-linejoin:round;stroke:rgb(71.764706%,18.431373%,17.254902%);stroke-opacity:0.811765;stroke-miterlimit:4;" d="M 7.490454 8.008005 L 7.490454 12.005533 C 7.490454 12.005533 9.000904 14.99903 16.494302 14.99903 C 24.007316 14.99903 24.497722 12.005533 24.497722 12.005533 L 24.497722 9.997472 C 24.497722 9.997472 24.007316 11.001503 16.494302 11.001503 C 9.000904 11.001503 7.490454 8.008005 7.490454 8.008005 Z M 7.490454 8.008005 " transform="matrix(0.199134,0,0,0.210091,5.102149,7.419154)"/>
<path style="fill:none;stroke-width:1;stroke-linecap:butt;stroke-linejoin:round;stroke:rgb(71.764706%,18.431373%,17.254902%);stroke-opacity:0.811765;stroke-miterlimit:4;" d="M 7.490454 12.005533 L 7.490454 8.008005 C 7.490454 8.008005 8.000476 3.006447 15.493874 3.006447 C 23.006889 3.006447 24.497722 9.997472 24.497722 9.997472 L 24.497722 12.005533 C 24.497722 12.005533 23.497294 8.008005 16.003896 8.008005 C 8.490882 8.008005 7.490454 12.005533 7.490454 12.005533 Z M 7.490454 12.005533 " transform="matrix(0.199134,0,0,0.210091,5.102149,7.419154)"/>
<path style="fill:none;stroke-width:1;stroke-linecap:butt;stroke-linejoin:round;stroke:rgb(71.764706%,18.431373%,17.254902%);stroke-opacity:0.811765;stroke-miterlimit:4;" d="M 39.504135 11.912567 L 39.504135 8.324089 C 39.504135 8.324089 39.307972 3.843139 32.579607 3.843139 C 25.851241 3.843139 24.497722 10.127624 24.497722 10.127624 L 24.497722 11.912567 C 24.497722 11.912567 25.400068 7.691922 32.128434 7.691922 C 38.856799 7.691922 39.504135 11.912567 39.504135 11.912567 Z M 39.504135 11.912567 " transform="matrix(0.199134,0,0,0.210091,5.102149,7.419154)"/>
<path style="fill:none;stroke-width:1;stroke-linecap:butt;stroke-linejoin:round;stroke:rgb(71.764706%,18.431373%,17.254902%);stroke-opacity:0.811765;stroke-miterlimit:4;" d="M 39.504135 8.770324 L 39.504135 11.466331 C 39.504135 11.466331 38.425242 15.05481 31.677261 15.05481 C 24.948895 15.05481 24.497722 12.358803 24.497722 12.358803 L 24.497722 10.57386 C 24.497722 10.57386 24.948895 12.172871 31.677261 12.172871 C 38.425242 12.172871 39.504135 8.770324 39.504135 8.770324 Z M 39.504135 8.770324 " transform="matrix(0.199134,0,0,0.210091,5.102149,7.419154)"/>
<use xlink:href="#surface6" mask="url(#mask0)"/>
<path style=" stroke:none;fill-rule:nonzero;fill:rgb(97.254902%,82.352941%,85.098039%);fill-opacity:0.2;" d="M 10.082031 9.730469 C 10.082031 9.847656 9.992188 9.941406 9.882812 9.941406 C 9.769531 9.941406 9.683594 9.847656 9.683594 9.730469 C 9.683594 9.613281 9.769531 9.519531 9.882812 9.519531 C 9.992188 9.519531 10.082031 9.613281 10.082031 9.730469 Z M 10.082031 9.730469 "/>
<path style=" stroke:none;fill-rule:nonzero;fill:rgb(66.666667%,0%,0%);fill-opacity:0.501961;" d="M 5.800781 11.691406 L 5.960938 11.929688 L 9.980469 13.582031 L 13.765625 11.988281 L 13.765625 11.777344 L 9.980469 13.371094 Z M 5.800781 11.691406 "/>
</g>
</svg>
