<svg xmlns="http://www.w3.org/2000/svg" viewBox="0 0 22 22"><g style="fill:#a33639"><path d="m 1.8125 17.46875 c 4.207031 7.605469 17.390625 4.652344 19.621094 -1.613281 c 2.65625 -7.457031 -4.261719 -21.628907 -15.976563 -13.328125 c -3.945312 2.898437 -7.851562 7.332031 -3.644531 14.941406"/><path d="m 5.445312 2.644531 c -0.332031 0 -0.648437 0.371094 -0.648437 0.765625 v 16.066406 c 0 0.371094 0.335937 0.761719 0.648437 0.761719 h 10.398438 c 0.3125 0 0.648438 -0.390625 0.648438 -0.761719 v -11.859374 l -4.222657 -4.972657"/></g><path d="m 12.269531 6.851562 l 0.019531 0.023438 l 0.050782 -0.023438 m 0.578125 0.765626 l 3.574219 4.207031 v -4.207031" style="fill-opacity:0.196078"/><g style="fill:#fff"><path d="m 12.269531 2.644531 l 4.222657 4.972657 h -3.574219 c -0.316407 0 -0.648438 -0.394532 -0.648438 -0.765626 v -4.207031" style="fill-opacity:0.392157"/><path d="m 10.644531 8.382812 c -1.433593 0 -2.597656 0.425782 -2.597656 0.957032 v 0.765625 c 0 0.527343 1.164063 0.957031 2.597656 0.957031 c 1.433594 0 2.597657 -0.429688 2.597657 -0.957031 v -0.765625 c 0 -0.53125 -1.164063 -0.957032 -2.597657 -0.957032"/><path d="m 10.636719 11.441406 c -1.164063 0 -2.144531 -0.28125 -2.476563 -0.667968 c -0.078125 0.089843 -0.113281 0.1875 -0.113281 0.289062 v 0.761719 c 0 0.527343 1.160156 0.957031 2.597656 0.957031 c 1.433594 0 2.597657 -0.429688 2.597657 -0.957031 v -0.761719 c 0 -0.101562 -0.046876 -0.199219 -0.121094 -0.289062 c -0.332032 0.386718 -1.320313 0.667968 -2.484375 0.667968"/><path d="m 10.636719 13.164062 c -1.164063 0 -2.144531 -0.28125 -2.476563 -0.667968 c -0.078125 0.089844 -0.113281 0.183594 -0.113281 0.285156 v 0.765625 c 0 0.527344 1.160156 0.957031 2.597656 0.957031 c 1.433594 0 2.597657 -0.429687 2.597657 -0.957031 v -0.765625 c 0 -0.101562 -0.046876 -0.195312 -0.121094 -0.285156 c -0.332032 0.386718 -1.320313 0.667968 -2.484375 0.667968"/></g><path d="m 4.796875 15.648438 v 3.828124 c 0 0.371094 0.335937 0.761719 0.648437 0.761719 h 10.398438 c 0.3125 0 0.648438 -0.390625 0.648438 -0.761719 v -3.828124" style="fill-opacity:0.196078"/><g style="fill:#fff"><path d="m 8.273438 18.484375 c 0.09375 0 0.171874 -0.007813 0.234374 -0.023437 c 0.0625 -0.015626 0.113282 -0.039063 0.148438 -0.070313 c 0.039062 -0.027344 0.0625 -0.0625 0.074219 -0.097656 c 0.015625 -0.035157 0.023437 -0.074219 0.023437 -0.113281 c 0 -0.046876 -0.015625 -0.089844 -0.050781 -0.128907 c -0.035156 -0.039062 -0.074219 -0.070312 -0.128906 -0.097656 c -0.050781 -0.03125 -0.109375 -0.058594 -0.175781 -0.082031 c -0.0625 -0.023438 -0.125 -0.046875 -0.191407 -0.066406 c -0.085937 -0.027344 -0.171875 -0.058594 -0.261719 -0.089844 c -0.09375 -0.03125 -0.175781 -0.074219 -0.253906 -0.125 c -0.074218 -0.050782 -0.132812 -0.113282 -0.183594 -0.1875 c -0.046874 -0.074219 -0.074218 -0.171875 -0.074218 -0.28125 c 0 -0.222656 0.085937 -0.394532 0.257812 -0.519532 c 0.171875 -0.125 0.410156 -0.1875 0.714844 -0.1875 c 0.171875 0 0.324219 0.019532 0.453125 0.050782 c 0.128906 0.035156 0.242187 0.070312 0.328125 0.109375 l -0.164062 0.363281 c -0.074219 -0.035156 -0.160157 -0.066406 -0.257813 -0.09375 c -0.089844 -0.023438 -0.195313 -0.035156 -0.320313 -0.035156 c -0.296874 0 -0.445312 0.089844 -0.445312 0.269531 c 0 0.046875 0.015625 0.085937 0.042969 0.121094 c 0.03125 0.035156 0.070312 0.066406 0.117187 0.09375 c 0.046875 0.023437 0.101563 0.046875 0.160156 0.066406 c 0.058594 0.023437 0.121094 0.042969 0.175782 0.058594 c 0.089844 0.027343 0.183594 0.058593 0.277344 0.09375 c 0.097656 0.035156 0.1875 0.082031 0.265624 0.136719 c 0.082032 0.058593 0.148438 0.128906 0.199219 0.214843 c 0.054688 0.082031 0.078125 0.191407 0.078125 0.320313 c 0 0.222656 -0.085937 0.394531 -0.261718 0.515625 c -0.167969 0.121093 -0.429688 0.179687 -0.78125 0.179687 c -0.234376 0 -0.421876 -0.023437 -0.5625 -0.0625 c -0.140626 -0.042968 -0.246094 -0.082031 -0.316407 -0.117187 l 0.167969 -0.382813 c 0.082031 0.042969 0.175781 0.078125 0.289062 0.117188 c 0.117188 0.035156 0.257813 0.050781 0.421876 0.050781"/><path d="m 9.625 17.65625 c 0 -0.40625 0.085938 -0.710938 0.269531 -0.917969 c 0.179688 -0.207031 0.429688 -0.3125 0.75 -0.3125 c 0.332031 0 0.585938 0.105469 0.757813 0.3125 c 0.175781 0.207031 0.261718 0.511719 0.261718 0.917969 c 0 0.355469 -0.070312 0.636719 -0.207031 0.84375 c -0.136719 0.203125 -0.335937 0.324219 -0.59375 0.367188 c 0.03125 0.0625 0.113281 0.117187 0.242188 0.15625 c 0.128906 0.042968 0.308593 0.082031 0.535156 0.117187 l -0.121094 0.332031 c -0.355469 -0.039062 -0.625 -0.109375 -0.808593 -0.203125 c -0.179688 -0.09375 -0.285157 -0.230469 -0.320313 -0.40625 c -0.246094 -0.054687 -0.4375 -0.179687 -0.570313 -0.378906 c -0.132812 -0.203125 -0.195312 -0.480469 -0.195312 -0.828125 m 0.570312 0 c 0 0.113281 0.003907 0.222656 0.011719 0.320312 c 0.015625 0.097657 0.035157 0.1875 0.066407 0.265626 c 0.035156 0.070312 0.078124 0.128906 0.136718 0.171874 c 0.058594 0.042969 0.136719 0.066407 0.234375 0.066407 c 0.09375 0 0.167969 -0.023438 0.226563 -0.066407 c 0.0625 -0.042968 0.105468 -0.101562 0.136718 -0.171874 c 0.035157 -0.078126 0.054688 -0.167969 0.066407 -0.265626 c 0.011719 -0.097656 0.015625 -0.207031 0.015625 -0.320312 c 0 -0.113281 -0.003906 -0.21875 -0.015625 -0.320312 c -0.011719 -0.101563 -0.03125 -0.1875 -0.066407 -0.261719 c -0.03125 -0.074219 -0.074218 -0.132813 -0.132812 -0.175781 c -0.054688 -0.042969 -0.132812 -0.066407 -0.230469 -0.066407 c -0.097656 0 -0.175781 0.023438 -0.234375 0.066407 c -0.058594 0.042968 -0.101562 0.101562 -0.136718 0.179687 c -0.03125 0.074219 -0.050782 0.160156 -0.066407 0.257813 c -0.007812 0.101562 -0.011719 0.207031 -0.011719 0.320312"/><path d="m 13.890625 18.828125 h -1.777344 v -2.359375 h 0.566407 v 1.96875 h 1.210937 v 0.390625"/></g></svg>