<svg xmlns="http://www.w3.org/2000/svg" viewBox="0 0 22 22"><g style="fill:#fff"><path d="m 7.957031 10.757812 v 4.289063 c 0 2.570313 0.441407 2.570313 4.414063 2.570313 h 0.882812 c 3.96875 0 4.410156 0 4.410156 -2.570313 v -4.289063 c 0 -2.570312 -0.441406 -2.570312 -4.410156 -2.570312 h -0.882812 c -3.972656 0 -4.414063 0 -4.414063 2.570312 m 4.414063 -1.714843 h 0.882812 c 3.527344 0 3.527344 0 3.527344 1.714843 v 3 c 0 1.714844 0 1.714844 -3.527344 1.714844 h -0.882812 c -3.53125 0 -3.53125 0 -3.53125 -1.714844 v -3 c 0 -1.714843 0 -1.714843 3.53125 -1.714843"/><path d="m 9.722656 13.835938 v -1.660157 l 1.542969 -1.558593 l 1.933594 1.949218 l 0.769531 -0.78125 l 1.929688 1.949219 v 0.101563 c 0 0.78125 -0.128907 0.78125 -1.542969 0.78125 h -3.085938 c -1.414062 0 -1.542969 0 -1.542969 -0.78125"/><path d="m 15.898438 10.757812 c 0 0.476563 -0.394532 0.859376 -0.882813 0.859376 c -0.488281 0 -0.878906 -0.382813 -0.878906 -0.859376 c 0 -0.472656 0.390625 -0.855468 0.878906 -0.855468 c 0.488281 0 0.882813 0.382812 0.882813 0.855468"/><path d="m 10.605469 6.472656 c -3.96875 0 -4.410157 0 -4.410157 2.570313 v 4.289062 c 0 1.394531 0.128907 2.03125 0.878907 2.324219 v -6.613281 c 0 -1.550781 0.027343 -1.695313 2.648437 -1.710938 v -0.003906 h 5.960938 c -0.386719 -0.855469 -1.441406 -0.855469 -4.195313 -0.855469"/><path d="m 8.839844 4.757812 c -3.96875 0 -4.410156 0 -4.410156 2.570313 v 4.289063 c 0 1.394531 0.128906 2.03125 0.882812 2.328124 v -6.617187 c 0 -1.550781 0.027344 -1.695313 2.644531 -1.710937 v -0.003907 h 5.960938 c -0.386719 -0.855469 -1.441407 -0.855469 -4.195313 -0.855469"/></g><path d="m 18.085938 3.316406 c 17.195312 22.796875 -30.128907 26.035156 -14.941407 2.765625 c 3.464844 -5.304687 10.386719 -8.804687 14.941407 -2.765625" style="fill:#b954d2"/><path d="m 12.632812 5.746094 l 0.023438 0.023437 l 0.0625 -0.023437 m 0.691406 0.71875 l 4.277344 3.945312 v -3.945312" style="fill-opacity:0.196078"/><g style="fill:#fff"><path d="m 12.632812 1.800781 l 5.054688 4.664063 h -4.277344 c -0.378906 0 -0.777344 -0.367188 -0.777344 -0.71875 v -3.945313" style="fill-opacity:0.392157"/><path d="m 9.925781 8.679688 c -2.640625 0 -4.78125 2.230468 -4.78125 4.976562 c 0 2.746094 2.140625 4.976562 4.78125 4.976562 c 2.644531 0 4.785157 -2.230468 4.785157 -4.976562 c 0 -2.746094 -2.140626 -4.976562 -4.785157 -4.976562 m 0 3.621093 c 0.722657 0 1.304688 0.609375 1.304688 1.355469 c 0 0.75 -0.582031 1.359375 -1.304688 1.359375 c -0.71875 0 -1.300781 -0.609375 -1.300781 -1.359375 c 0 -0.746094 0.582031 -1.355469 1.300781 -1.355469"/></g></svg>