
<svg xmlns="http://www.w3.org/2000/svg" xmlns:xlink="http://www.w3.org/1999/xlink" width="24px" height="24px" viewBox="0 0 24 24" version="1.1">
<g id="surface1">
<path style=" stroke:none;fill-rule:nonzero;fill:rgb(87.058824%,72.156863%,52.941176%);fill-opacity:1;" d="M 21.9375 5.027344 C 17.382812 -3.234375 3.125 -0.03125 0.714844 6.773438 C -2.160156 14.878906 5.320312 30.273438 17.992188 21.253906 C 22.257812 18.105469 26.484375 13.289062 21.9375 5.027344 Z M 21.9375 5.027344 "/>
<path style=" stroke:none;fill-rule:nonzero;fill:rgb(57.647059%,51.764706%,43.529412%);fill-opacity:1;" d="M 5.5 12 L 5.5 6 L 17.5 6 L 17.5 18 L 5.5 18 Z M 11.84375 17.015625 C 11.867188 16.953125 11.023438 16.929688 9.398438 16.953125 C 6.988281 16.984375 6.914062 16.976562 6.726562 16.785156 C 6.5625 16.621094 6.519531 16.609375 6.476562 16.734375 C 6.445312 16.8125 6.445312 16.9375 6.476562 17.015625 C 6.523438 17.140625 6.882812 17.15625 9.171875 17.132812 C 10.828125 17.117188 11.828125 17.074219 11.84375 17.015625 Z M 16.636719 15.488281 C 16.621094 14.578125 16.574219 14.019531 16.515625 14 C 16.445312 13.976562 16.429688 14.347656 16.453125 15.140625 C 16.480469 15.929688 16.457031 16.402344 16.378906 16.585938 C 16.25 16.898438 16.3125 17.078125 16.523438 17 C 16.640625 16.953125 16.65625 16.710938 16.636719 15.488281 Z M 15.21875 16.53125 C 15.09375 16.304688 15.070312 16.296875 15.070312 16.457031 C 15.066406 16.5625 15.117188 16.699219 15.175781 16.761719 C 15.351562 16.9375 15.375 16.820312 15.21875 16.53125 Z M 6.773438 14.179688 C 6.710938 14.117188 6.53125 14.25 6.53125 14.359375 C 6.53125 14.421875 6.585938 14.414062 6.675781 14.34375 C 6.753906 14.277344 6.796875 14.203125 6.773438 14.179688 Z M 11.6875 14.15625 C 11.6875 14.105469 11.625 14.0625 11.546875 14.0625 C 11.46875 14.0625 11.40625 14.105469 11.40625 14.15625 C 11.40625 14.207031 11.46875 14.25 11.546875 14.25 C 11.625 14.25 11.6875 14.207031 11.6875 14.15625 Z M 6.640625 11.992188 C 6.5625 11.792969 6.542969 11.785156 6.484375 11.929688 C 6.445312 12.023438 6.472656 12.160156 6.542969 12.246094 C 6.699219 12.433594 6.753906 12.289062 6.640625 11.992188 Z M 9.117188 12.007812 C 9.023438 11.855469 8.875 11.976562 8.875 12.210938 C 8.875 12.398438 8.890625 12.402344 9.03125 12.265625 C 9.109375 12.179688 9.152344 12.0625 9.117188 12.007812 Z M 13.75 11.023438 C 13.75 11 13.710938 10.953125 13.65625 10.921875 C 13.609375 10.890625 13.5625 10.90625 13.5625 10.960938 C 13.5625 11.015625 13.609375 11.0625 13.65625 11.0625 C 13.710938 11.0625 13.75 11.042969 13.75 11.023438 Z M 9.15625 10.414062 C 9.15625 10.3125 9.117188 10.203125 9.0625 10.171875 C 9.011719 10.140625 8.96875 10.21875 8.96875 10.351562 C 8.96875 10.484375 9.015625 10.59375 9.0625 10.59375 C 9.117188 10.59375 9.15625 10.511719 9.15625 10.414062 Z M 9.15625 8.578125 C 9.15625 8.5 9.117188 8.4375 9.0625 8.4375 C 9.015625 8.4375 8.96875 8.5 8.96875 8.578125 C 8.96875 8.65625 9.015625 8.71875 9.0625 8.71875 C 9.117188 8.71875 9.15625 8.65625 9.15625 8.578125 Z M 6.714844 7.757812 C 6.71875 7.71875 6.683594 7.6875 6.636719 7.6875 C 6.519531 7.6875 6.425781 7.964844 6.5 8.085938 C 6.558594 8.179688 6.695312 7.96875 6.714844 7.757812 Z M 9.101562 7.84375 C 9.070312 7.757812 9 7.6875 8.953125 7.6875 C 8.898438 7.6875 8.882812 7.753906 8.914062 7.835938 C 8.945312 7.917969 8.96875 8.03125 8.96875 8.089844 C 8.96875 8.160156 9 8.164062 9.070312 8.097656 C 9.121094 8.042969 9.136719 7.929688 9.101562 7.84375 Z M 15.320312 7.171875 C 16.109375 7.171875 16.75 7.148438 16.75 7.121094 C 16.75 6.898438 16.433594 6.84375 15.15625 6.84375 C 13.78125 6.84375 13.5625 6.890625 13.5625 7.203125 C 13.5625 7.296875 13.609375 7.308594 13.726562 7.25 C 13.820312 7.210938 14.535156 7.171875 15.320312 7.171875 Z M 15.320312 7.171875 "/>
<path style=" stroke:none;fill-rule:nonzero;fill:rgb(69.411765%,54.509804%,17.254902%);fill-opacity:1;" d="M 5.5 12 L 5.5 6 L 17.5 6 L 17.5 18 L 5.5 18 Z M 11.96875 17.113281 C 12.03125 17.039062 12.054688 16.890625 12.019531 16.789062 C 11.960938 16.601562 11.960938 16.601562 11.664062 16.785156 C 11.386719 16.953125 11.179688 16.96875 9.199219 16.96875 C 7.523438 16.96875 7 16.9375 6.863281 16.84375 C 6.710938 16.726562 6.691406 16.59375 6.710938 15.601562 C 6.726562 14.976562 6.777344 14.433594 6.835938 14.367188 C 6.914062 14.269531 7.433594 14.25 9.242188 14.273438 C 10.511719 14.289062 11.644531 14.339844 11.757812 14.382812 C 11.996094 14.46875 12.058594 14.28125 11.859375 14.082031 C 11.695312 13.921875 6.617188 13.921875 6.460938 14.082031 C 6.335938 14.203125 6.289062 17.070312 6.40625 17.1875 C 6.445312 17.222656 7.679688 17.25 9.164062 17.25 C 11.398438 17.25 11.875 17.226562 11.96875 17.113281 Z M 16.664062 17.097656 C 16.71875 17.039062 16.746094 16.421875 16.730469 15.472656 C 16.710938 14.144531 16.683594 13.929688 16.542969 13.839844 C 16.269531 13.667969 16.144531 13.890625 16.320312 14.234375 C 16.429688 14.4375 16.46875 14.785156 16.46875 15.445312 C 16.46875 16.5625 16.367188 16.78125 15.8125 16.78125 C 15.617188 16.78125 15.414062 16.726562 15.375 16.664062 C 15.335938 16.601562 15.277344 16.273438 15.25 15.9375 C 15.21875 15.476562 15.171875 15.328125 15.0625 15.328125 C 14.953125 15.328125 14.917969 15.476562 14.898438 16.007812 C 14.863281 16.800781 14.960938 17.03125 15.367188 17.132812 C 15.765625 17.242188 16.542969 17.21875 16.664062 17.097656 Z M 12.0625 16.40625 C 12.0625 16.355469 11.980469 16.226562 11.875 16.125 C 11.675781 15.921875 11.628906 16.023438 11.789062 16.320312 C 11.890625 16.507812 12.0625 16.5625 12.0625 16.40625 Z M 13.445312 15.691406 C 13.71875 15.519531 13.71875 15.375 13.445312 15.375 C 13.171875 15.375 12.8125 15.625 12.8125 15.808594 C 12.8125 15.96875 13.085938 15.917969 13.445312 15.691406 Z M 15.53125 13.941406 C 15.53125 13.804688 15.25 13.757812 15.109375 13.875 C 14.964844 14 14.921875 14.359375 15.039062 14.476562 C 15.109375 14.542969 15.53125 14.085938 15.53125 13.941406 Z M 9.078125 12.5 C 9.277344 12.320312 9.320312 11.71875 9.132812 11.71875 C 9.070312 11.71875 8.945312 11.84375 8.859375 12 C 8.699219 12.28125 8.695312 12.28125 7.8125 12.28125 C 7.203125 12.28125 6.898438 12.242188 6.828125 12.15625 C 6.6875 11.988281 6.664062 8.058594 6.804688 7.796875 C 6.9375 7.546875 6.9375 7.53125 6.757812 7.460938 C 6.375 7.316406 6.34375 7.507812 6.34375 9.988281 C 6.34375 12.023438 6.367188 12.382812 6.492188 12.507812 C 6.710938 12.730469 8.835938 12.722656 9.078125 12.5 Z M 16.867188 11.285156 C 16.9375 11.140625 16.9375 10.996094 16.875 10.859375 C 16.789062 10.660156 16.78125 10.664062 16.523438 11 L 16.261719 11.34375 L 13.867188 11.34375 L 13.78125 11 C 13.671875 10.539062 13.46875 10.476562 13.46875 10.902344 C 13.46875 11.421875 13.621094 11.476562 15.101562 11.53125 C 16.652344 11.585938 16.734375 11.574219 16.867188 11.285156 Z M 9.25 10.269531 C 9.25 9.839844 9.214844 9.664062 9.117188 9.625 C 8.933594 9.554688 8.8125 10.484375 8.96875 10.773438 C 9.140625 11.101562 9.25 10.90625 9.25 10.269531 Z M 13.703125 9.140625 C 13.703125 8.636719 13.667969 8.394531 13.585938 8.367188 C 13.5 8.335938 13.46875 8.53125 13.46875 9.140625 C 13.46875 9.75 13.5 9.945312 13.585938 9.914062 C 13.667969 9.886719 13.703125 9.644531 13.703125 9.140625 Z M 9.25 8.308594 C 9.25 7.835938 9.210938 7.582031 9.125 7.507812 C 8.945312 7.359375 8.664062 7.484375 8.742188 7.675781 C 8.886719 8.03125 8.960938 8.375 8.914062 8.457031 C 8.820312 8.601562 8.96875 9 9.113281 9 C 9.222656 9 9.25 8.859375 9.25 8.308594 Z M 13.773438 7.429688 L 13.894531 7.171875 L 15.039062 7.148438 C 15.9375 7.125 16.25 7.148438 16.472656 7.265625 C 16.902344 7.488281 17.125 7.230469 16.792969 6.898438 C 16.671875 6.773438 16.386719 6.75 15.171875 6.75 C 14.148438 6.75 13.664062 6.785156 13.585938 6.863281 C 13.453125 6.996094 13.429688 7.6875 13.558594 7.6875 C 13.609375 7.6875 13.703125 7.570312 13.773438 7.429688 Z M 13.773438 7.429688 "/>
<path style=" stroke:none;fill-rule:nonzero;fill:rgb(54.117647%,44.705882%,34.117647%);fill-opacity:1;" d="M 5.5 12 L 5.5 6 L 17.5 6 L 17.5 18 L 5.5 18 Z M 11.96875 17.113281 C 12.03125 17.039062 12.054688 16.890625 12.019531 16.789062 C 11.960938 16.601562 11.960938 16.601562 11.664062 16.785156 C 11.386719 16.953125 11.179688 16.96875 9.199219 16.96875 C 7.523438 16.96875 7 16.9375 6.863281 16.84375 C 6.710938 16.726562 6.691406 16.59375 6.710938 15.601562 C 6.726562 14.976562 6.777344 14.433594 6.835938 14.367188 C 6.914062 14.269531 7.433594 14.25 9.242188 14.273438 C 10.511719 14.289062 11.644531 14.339844 11.757812 14.382812 C 11.996094 14.46875 12.058594 14.28125 11.859375 14.082031 C 11.695312 13.921875 6.617188 13.921875 6.460938 14.082031 C 6.335938 14.203125 6.289062 17.070312 6.40625 17.1875 C 6.445312 17.222656 7.679688 17.25 9.164062 17.25 C 11.398438 17.25 11.875 17.226562 11.96875 17.113281 Z M 16.664062 17.097656 C 16.71875 17.039062 16.746094 16.421875 16.730469 15.472656 C 16.710938 14.144531 16.683594 13.929688 16.542969 13.839844 C 16.269531 13.667969 16.144531 13.890625 16.320312 14.234375 C 16.429688 14.4375 16.46875 14.785156 16.46875 15.445312 C 16.46875 16.566406 16.367188 16.78125 15.8125 16.78125 C 15.335938 16.78125 15.28125 16.667969 15.226562 15.574219 C 15.195312 14.976562 15.140625 14.671875 15.054688 14.613281 C 14.898438 14.515625 14.40625 14.601562 14.253906 14.75 C 14.085938 14.921875 14.273438 15.277344 14.59375 15.390625 C 14.871094 15.484375 14.875 15.5 14.875 16.117188 C 14.875 16.820312 14.984375 17.03125 15.386719 17.140625 C 15.761719 17.242188 16.546875 17.214844 16.664062 17.097656 Z M 12.0625 16.414062 C 12.0625 16.371094 12.210938 16.304688 12.390625 16.273438 C 12.570312 16.238281 12.75 16.15625 12.789062 16.089844 C 12.828125 16.023438 13.027344 15.890625 13.230469 15.789062 C 13.4375 15.691406 13.617188 15.554688 13.636719 15.492188 C 13.691406 15.320312 13.273438 15.34375 13.011719 15.527344 C 12.867188 15.628906 12.773438 15.648438 12.734375 15.582031 C 12.699219 15.527344 12.554688 15.453125 12.410156 15.417969 C 12.207031 15.367188 12.09375 15.398438 11.917969 15.566406 C 11.671875 15.796875 11.632812 16.03125 11.789062 16.320312 C 11.882812 16.503906 12.0625 16.566406 12.0625 16.414062 Z M 15.53125 13.941406 C 15.53125 13.804688 15.25 13.757812 15.109375 13.875 C 14.964844 14 14.921875 14.359375 15.039062 14.476562 C 15.109375 14.542969 15.53125 14.085938 15.53125 13.941406 Z M 9.078125 12.5 C 9.179688 12.410156 9.25 12.21875 9.25 12.03125 C 9.25 11.859375 9.28125 11.726562 9.320312 11.738281 C 9.359375 11.75 9.523438 11.730469 9.6875 11.695312 C 10.210938 11.585938 10.210938 11.007812 9.6875 10.898438 C 9.523438 10.863281 9.359375 10.84375 9.320312 10.855469 C 9.28125 10.867188 9.25 10.625 9.25 10.320312 L 9.25 9.769531 L 9.601562 9.6875 C 9.910156 9.613281 9.953125 9.570312 9.953125 9.328125 C 9.953125 9.085938 9.910156 9.042969 9.601562 8.96875 L 9.25 8.886719 L 9.25 8.25 C 9.25 7.585938 9.132812 7.351562 8.84375 7.460938 C 8.664062 7.53125 8.65625 7.546875 8.789062 7.796875 C 8.875 7.949219 8.929688 8.320312 8.972656 9.046875 C 8.976562 9.097656 8.976562 9.519531 8.96875 9.984375 C 8.953125 11.363281 8.960938 11.515625 9.070312 11.585938 C 9.132812 11.617188 9.140625 11.671875 9.09375 11.707031 C 9.050781 11.738281 8.9375 11.882812 8.851562 12.023438 C 8.6875 12.273438 8.664062 12.28125 7.808594 12.28125 C 7.203125 12.28125 6.898438 12.242188 6.828125 12.15625 C 6.6875 11.988281 6.664062 8.058594 6.804688 7.796875 C 6.9375 7.546875 6.9375 7.53125 6.757812 7.460938 C 6.375 7.316406 6.34375 7.507812 6.34375 9.988281 C 6.34375 12.023438 6.367188 12.382812 6.492188 12.507812 C 6.710938 12.730469 8.835938 12.722656 9.078125 12.5 Z M 16.867188 11.285156 C 16.9375 11.140625 16.9375 10.996094 16.875 10.859375 C 16.789062 10.660156 16.78125 10.664062 16.523438 11 L 16.261719 11.34375 L 13.859375 11.34375 L 13.792969 11.039062 C 13.671875 10.492188 13.714844 7.421875 13.84375 7.265625 C 14.015625 7.0625 16.082031 7.0625 16.476562 7.269531 C 16.902344 7.488281 17.125 7.226562 16.792969 6.898438 C 16.671875 6.773438 16.386719 6.75 15.171875 6.75 C 13.558594 6.75 13.46875 6.777344 13.46875 7.273438 C 13.46875 7.546875 13.4375 7.578125 13.042969 7.679688 C 12.65625 7.777344 12.617188 7.8125 12.644531 8.039062 C 12.671875 8.257812 12.734375 8.308594 13.070312 8.382812 L 13.46875 8.464844 L 13.46875 9.824219 L 13.117188 9.90625 C 12.835938 9.976562 12.761719 10.039062 12.738281 10.242188 C 12.710938 10.460938 12.757812 10.5 13.089844 10.601562 C 13.414062 10.699219 13.46875 10.757812 13.46875 10.972656 C 13.46875 11.414062 13.664062 11.480469 15.101562 11.53125 C 16.652344 11.585938 16.734375 11.574219 16.867188 11.285156 Z M 16.867188 11.285156 "/>
<path style=" stroke:none;fill-rule:nonzero;fill:rgb(52.156863%,38.039216%,20.784314%);fill-opacity:1;" d="M 5.5 12 L 5.5 6 L 17.5 6 L 17.5 18 L 5.5 18 Z M 12.042969 17.289062 C 12.179688 17.195312 12.25 17.046875 12.25 16.863281 C 12.25 16.453125 12.398438 16.242188 12.742188 16.167969 C 13.1875 16.070312 13.667969 15.804688 13.96875 15.488281 C 14.203125 15.242188 14.261719 15.226562 14.460938 15.316406 C 14.664062 15.410156 14.6875 15.480469 14.6875 15.992188 C 14.6875 16.664062 14.828125 17.125 15.070312 17.25 C 15.289062 17.367188 16.566406 17.367188 16.75 17.25 C 16.867188 17.179688 16.898438 16.867188 16.921875 15.605469 C 16.960938 13.585938 16.964844 13.59375 15.875 13.59375 C 14.96875 13.59375 14.726562 13.742188 14.804688 14.246094 C 14.84375 14.515625 14.820312 14.539062 14.460938 14.625 C 14.25 14.679688 13.976562 14.78125 13.84375 14.855469 C 12.984375 15.351562 12.679688 15.476562 12.476562 15.429688 C 12.277344 15.375 12.25 15.320312 12.25 14.898438 C 12.25 14.390625 12.070312 13.929688 11.828125 13.839844 C 11.742188 13.804688 10.523438 13.78125 9.121094 13.78125 C 7.066406 13.78125 6.53125 13.804688 6.386719 13.914062 C 6.222656 14.035156 6.203125 14.191406 6.171875 15.546875 C 6.132812 17.617188 5.839844 17.4375 9.183594 17.4375 C 11.429688 17.4375 11.867188 17.414062 12.042969 17.289062 Z M 6.835938 16.761719 C 6.679688 16.609375 6.679688 14.609375 6.835938 14.457031 C 6.992188 14.296875 11.417969 14.296875 11.578125 14.457031 C 11.714844 14.59375 11.71875 15.117188 11.589844 15.585938 C 11.515625 15.851562 11.523438 16.027344 11.609375 16.261719 C 11.824219 16.863281 11.777344 16.875 9.210938 16.875 C 7.574219 16.875 6.914062 16.84375 6.835938 16.761719 Z M 15.460938 16.574219 C 15.390625 16.507812 15.34375 16.195312 15.34375 15.820312 C 15.34375 15.464844 15.308594 15.101562 15.261719 15.015625 C 15.203125 14.914062 15.226562 14.75 15.332031 14.53125 C 15.457031 14.265625 15.546875 14.195312 15.796875 14.171875 C 16.320312 14.125 16.375 14.242188 16.375 15.414062 C 16.375 16.105469 16.335938 16.5 16.265625 16.574219 C 16.117188 16.71875 15.601562 16.71875 15.460938 16.574219 Z M 9.199219 12.664062 C 9.289062 12.5625 9.382812 12.3125 9.414062 12.101562 C 9.453125 11.808594 9.507812 11.71875 9.640625 11.71875 C 9.734375 11.71875 9.890625 11.632812 9.976562 11.53125 C 10.078125 11.414062 10.253906 11.34375 10.453125 11.34375 C 10.625 11.34375 10.960938 11.265625 11.203125 11.164062 C 11.445312 11.0625 11.765625 10.957031 11.910156 10.925781 C 12.054688 10.890625 12.296875 10.78125 12.4375 10.671875 C 12.832031 10.382812 13.203125 10.53125 13.304688 11.015625 C 13.449219 11.703125 13.496094 11.71875 15.210938 11.71875 L 16.738281 11.71875 L 16.933594 11.472656 C 17.117188 11.238281 17.125 11.109375 17.125 9.09375 C 17.125 6.398438 17.292969 6.617188 15.21875 6.578125 C 13.492188 6.546875 13.414062 6.574219 13.304688 7.203125 C 13.242188 7.570312 13.203125 7.625 12.859375 7.742188 C 12.65625 7.8125 12.40625 7.875 12.3125 7.875 C 12.21875 7.875 12.03125 7.960938 11.902344 8.0625 C 11.773438 8.164062 11.609375 8.25 11.546875 8.25 C 11.398438 8.25 10.503906 8.695312 10.210938 8.917969 C 10.0625 9.03125 9.921875 9.054688 9.742188 9.007812 C 9.5 8.945312 9.484375 8.90625 9.4375 8.230469 C 9.359375 7.195312 9.386719 7.210938 7.765625 7.242188 C 6.414062 7.265625 6.398438 7.265625 6.277344 7.5 C 6.1875 7.679688 6.164062 8.3125 6.179688 10.09375 C 6.210938 13.0625 6.085938 12.84375 7.796875 12.84375 C 8.898438 12.84375 9.054688 12.824219 9.199219 12.664062 Z M 6.820312 12.007812 C 6.695312 11.773438 6.6875 8.347656 6.8125 8.023438 C 6.902344 7.789062 6.921875 7.78125 7.796875 7.78125 C 8.667969 7.78125 8.695312 7.789062 8.78125 8.015625 C 8.832031 8.148438 8.867188 8.621094 8.855469 9.070312 C 8.84375 9.523438 8.855469 10.3125 8.875 10.828125 C 8.925781 12.164062 8.90625 12.1875 7.796875 12.1875 C 7.023438 12.1875 6.902344 12.164062 6.820312 12.007812 Z M 13.953125 11.164062 C 13.851562 11.101562 13.828125 10.695312 13.824219 9.257812 C 13.824219 8.25 13.851562 7.378906 13.886719 7.320312 C 13.953125 7.210938 16.148438 7.171875 16.414062 7.273438 C 16.542969 7.324219 16.5625 7.570312 16.5625 9.015625 C 16.5625 10.652344 16.515625 11 16.246094 11.179688 C 16.101562 11.273438 14.109375 11.265625 13.953125 11.164062 Z M 9.648438 10.90625 C 9.445312 10.863281 9.433594 10.820312 9.460938 10.28125 C 9.484375 9.789062 9.515625 9.703125 9.671875 9.671875 C 9.777344 9.65625 9.914062 9.574219 9.976562 9.492188 C 10.039062 9.40625 10.121094 9.367188 10.15625 9.40625 C 10.1875 9.4375 10.351562 9.390625 10.507812 9.292969 C 10.667969 9.195312 10.933594 9.09375 11.101562 9.0625 C 11.265625 9.03125 11.675781 8.839844 12.011719 8.632812 C 12.570312 8.296875 12.65625 8.273438 12.957031 8.355469 L 13.289062 8.449219 L 13.265625 9.171875 C 13.238281 9.84375 13.222656 9.890625 13.019531 9.921875 C 12.898438 9.9375 12.78125 10.003906 12.757812 10.070312 C 12.730469 10.140625 12.601562 10.171875 12.4375 10.144531 C 12.265625 10.117188 12.046875 10.179688 11.84375 10.304688 C 11.671875 10.410156 11.417969 10.5 11.28125 10.5 C 11.148438 10.5 10.878906 10.582031 10.6875 10.679688 C 10.273438 10.894531 9.945312 10.960938 9.648438 10.90625 Z M 9.648438 10.90625 "/>
<path style=" stroke:none;fill-rule:nonzero;fill:rgb(38.823529%,35.686275%,32.941176%);fill-opacity:1;" d="M 5.5 12 L 5.5 6 L 17.5 6 L 17.5 18 L 5.5 18 Z M 12.195312 17.441406 C 12.390625 17.367188 12.433594 17.28125 12.457031 16.90625 C 12.484375 16.492188 12.507812 16.453125 12.78125 16.398438 C 13.101562 16.335938 13.675781 16.015625 14.007812 15.722656 C 14.351562 15.414062 14.5 15.570312 14.5 16.21875 C 14.5 16.882812 14.6875 17.3125 15.027344 17.441406 C 15.15625 17.492188 15.59375 17.53125 16 17.53125 C 17.0625 17.53125 17.03125 17.585938 17.03125 15.5625 C 17.03125 14.640625 16.992188 13.78125 16.945312 13.65625 C 16.875 13.46875 16.773438 13.414062 16.375 13.359375 C 16.109375 13.320312 15.664062 13.320312 15.382812 13.355469 C 14.949219 13.410156 14.855469 13.460938 14.734375 13.6875 C 14.65625 13.835938 14.59375 14.066406 14.59375 14.199219 C 14.59375 14.390625 14.546875 14.4375 14.367188 14.4375 C 14.101562 14.4375 13.65625 14.617188 13.65625 14.730469 C 13.65625 14.773438 13.4375 14.910156 13.171875 15.039062 C 12.585938 15.320312 12.472656 15.257812 12.460938 14.675781 C 12.453125 14.078125 12.171875 13.714844 11.664062 13.640625 C 11.445312 13.609375 10.15625 13.59375 8.796875 13.609375 C 6.484375 13.640625 6.320312 13.652344 6.195312 13.820312 C 5.992188 14.101562 6.007812 17.179688 6.210938 17.382812 C 6.339844 17.511719 6.738281 17.53125 9.15625 17.53125 C 10.707031 17.53125 12.0625 17.492188 12.195312 17.441406 Z M 6.835938 16.761719 C 6.679688 16.609375 6.679688 14.609375 6.835938 14.457031 C 6.992188 14.296875 11.417969 14.296875 11.578125 14.457031 C 11.714844 14.59375 11.71875 15.117188 11.589844 15.585938 C 11.515625 15.851562 11.523438 16.027344 11.609375 16.261719 C 11.824219 16.863281 11.777344 16.875 9.210938 16.875 C 7.574219 16.875 6.914062 16.84375 6.835938 16.761719 Z M 15.460938 16.574219 C 15.304688 16.421875 15.304688 14.421875 15.460938 14.269531 C 15.519531 14.207031 15.703125 14.15625 15.859375 14.15625 C 16.023438 14.15625 16.203125 14.207031 16.265625 14.269531 C 16.421875 14.421875 16.421875 16.421875 16.265625 16.574219 C 16.117188 16.71875 15.601562 16.71875 15.460938 16.574219 Z M 9.351562 12.875 C 9.414062 12.8125 9.484375 12.570312 9.507812 12.335938 C 9.550781 11.964844 9.59375 11.894531 9.804688 11.84375 C 9.9375 11.8125 10.113281 11.734375 10.191406 11.664062 C 10.269531 11.597656 10.542969 11.515625 10.800781 11.484375 C 11.054688 11.449219 11.351562 11.367188 11.457031 11.300781 C 11.5625 11.234375 11.792969 11.148438 11.972656 11.109375 C 12.152344 11.070312 12.359375 10.984375 12.4375 10.917969 C 12.515625 10.851562 12.703125 10.78125 12.859375 10.765625 C 13.125 10.734375 13.140625 10.75 13.203125 11.195312 C 13.242188 11.445312 13.320312 11.695312 13.375 11.757812 C 13.492188 11.871094 16.210938 11.960938 16.726562 11.859375 C 17.28125 11.757812 17.320312 11.59375 17.320312 9.410156 C 17.320312 8.335938 17.320312 7.296875 17.320312 7.101562 C 17.3125 6.792969 17.273438 6.734375 16.945312 6.5625 C 16.617188 6.398438 16.390625 6.375 15.027344 6.375 C 13.535156 6.375 13.476562 6.382812 13.335938 6.585938 C 13.257812 6.695312 13.1875 6.929688 13.1875 7.101562 C 13.1875 7.273438 13.136719 7.429688 13.070312 7.445312 C 12.113281 7.726562 11.871094 7.816406 11.777344 7.929688 C 11.71875 8 11.597656 8.0625 11.515625 8.0625 C 11.429688 8.0625 11 8.242188 10.554688 8.46875 C 10.117188 8.6875 9.703125 8.851562 9.640625 8.835938 C 9.570312 8.8125 9.53125 8.546875 9.53125 8.070312 C 9.53125 6.96875 9.5625 6.984375 7.796875 6.984375 C 6.453125 6.984375 6.320312 7 6.195312 7.164062 C 6.089844 7.3125 6.0625 7.84375 6.0625 9.902344 C 6.0625 11.304688 6.101562 12.5625 6.152344 12.6875 C 6.203125 12.816406 6.320312 12.945312 6.410156 12.96875 C 6.757812 13.0625 9.242188 12.984375 9.351562 12.875 Z M 6.820312 12.007812 C 6.695312 11.773438 6.6875 8.347656 6.8125 8.023438 C 6.902344 7.789062 6.921875 7.78125 7.789062 7.78125 C 8.398438 7.78125 8.703125 7.820312 8.75 7.898438 C 8.859375 8.0625 8.867188 11.820312 8.765625 12.023438 C 8.695312 12.164062 8.546875 12.1875 7.796875 12.1875 C 7.023438 12.1875 6.902344 12.164062 6.820312 12.007812 Z M 13.960938 11.171875 C 13.867188 11.113281 13.847656 10.648438 13.867188 9.179688 L 13.890625 7.265625 L 15.015625 7.238281 C 16.726562 7.195312 16.5625 7.015625 16.5625 9.007812 C 16.5625 10.652344 16.515625 11 16.246094 11.179688 C 16.105469 11.273438 14.109375 11.265625 13.960938 11.171875 Z M 9.59375 10.714844 C 9.558594 10.679688 9.53125 10.492188 9.53125 10.292969 C 9.53125 10.03125 9.578125 9.917969 9.695312 9.882812 C 9.789062 9.859375 10.117188 9.710938 10.421875 9.5625 C 10.734375 9.414062 11.113281 9.261719 11.265625 9.226562 C 11.421875 9.191406 11.609375 9.109375 11.6875 9.039062 C 11.765625 8.976562 11.949219 8.890625 12.09375 8.855469 C 12.242188 8.820312 12.382812 8.730469 12.410156 8.660156 C 12.4375 8.582031 12.601562 8.53125 12.824219 8.53125 L 13.1875 8.53125 L 13.1875 9.097656 C 13.1875 9.46875 13.148438 9.671875 13.070312 9.695312 C 12.054688 9.992188 11.78125 10.085938 11.503906 10.234375 C 11.324219 10.328125 11.078125 10.40625 10.960938 10.40625 C 10.839844 10.40625 10.628906 10.460938 10.492188 10.53125 C 10.179688 10.6875 9.671875 10.792969 9.59375 10.714844 Z M 9.59375 10.714844 "/>
<path style=" stroke:none;fill-rule:nonzero;fill:rgb(49.411765%,34.901961%,17.647059%);fill-opacity:1;" d="M 5.5 12 L 5.5 6 L 17.5 6 L 17.5 18 L 5.5 18 Z M 12.195312 17.441406 C 12.390625 17.367188 12.433594 17.28125 12.457031 16.90625 C 12.484375 16.492188 12.507812 16.453125 12.78125 16.398438 C 13.101562 16.335938 13.675781 16.015625 14.007812 15.722656 C 14.351562 15.414062 14.5 15.570312 14.5 16.21875 C 14.5 16.882812 14.6875 17.3125 15.027344 17.441406 C 15.15625 17.492188 15.59375 17.53125 16 17.53125 C 17.0625 17.53125 17.03125 17.585938 17.03125 15.5625 C 17.03125 14.640625 16.992188 13.78125 16.945312 13.65625 C 16.875 13.46875 16.773438 13.414062 16.375 13.359375 C 16.109375 13.320312 15.664062 13.320312 15.382812 13.355469 C 14.949219 13.410156 14.855469 13.460938 14.734375 13.6875 C 14.65625 13.835938 14.59375 14.066406 14.59375 14.199219 C 14.59375 14.390625 14.546875 14.4375 14.367188 14.4375 C 14.101562 14.4375 13.65625 14.617188 13.65625 14.730469 C 13.65625 14.773438 13.4375 14.910156 13.171875 15.039062 C 12.585938 15.320312 12.472656 15.257812 12.460938 14.675781 C 12.453125 14.078125 12.171875 13.714844 11.664062 13.640625 C 11.445312 13.609375 10.15625 13.59375 8.796875 13.609375 C 6.484375 13.640625 6.320312 13.652344 6.195312 13.820312 C 5.992188 14.101562 6.007812 17.179688 6.210938 17.382812 C 6.339844 17.511719 6.738281 17.53125 9.15625 17.53125 C 10.707031 17.53125 12.0625 17.492188 12.195312 17.441406 Z M 7.164062 16.71875 C 7.023438 16.679688 7 16.546875 7 15.613281 C 7 14.730469 7.027344 14.539062 7.148438 14.492188 C 7.445312 14.382812 11.296875 14.429688 11.371094 14.546875 C 11.40625 14.609375 11.4375 15.101562 11.433594 15.640625 C 11.429688 16.351562 11.390625 16.640625 11.300781 16.695312 C 11.171875 16.78125 7.46875 16.796875 7.164062 16.71875 Z M 15.554688 16.386719 C 15.398438 16.234375 15.398438 14.609375 15.554688 14.457031 C 15.726562 14.28125 16.078125 14.320312 16.1875 14.523438 C 16.242188 14.625 16.28125 15.03125 16.28125 15.421875 C 16.28125 15.8125 16.242188 16.21875 16.1875 16.320312 C 16.078125 16.523438 15.726562 16.5625 15.554688 16.386719 Z M 9.351562 12.875 C 9.414062 12.8125 9.484375 12.570312 9.507812 12.335938 C 9.550781 11.964844 9.59375 11.894531 9.804688 11.84375 C 9.9375 11.8125 10.113281 11.734375 10.191406 11.664062 C 10.269531 11.597656 10.542969 11.515625 10.800781 11.484375 C 11.054688 11.449219 11.351562 11.367188 11.457031 11.300781 C 11.5625 11.234375 11.792969 11.148438 11.972656 11.109375 C 12.152344 11.070312 12.359375 10.984375 12.4375 10.917969 C 12.515625 10.851562 12.703125 10.78125 12.859375 10.765625 C 13.125 10.734375 13.140625 10.75 13.203125 11.195312 C 13.242188 11.445312 13.320312 11.695312 13.375 11.757812 C 13.492188 11.871094 16.210938 11.960938 16.726562 11.859375 C 17.28125 11.757812 17.320312 11.59375 17.320312 9.410156 C 17.320312 8.335938 17.320312 7.296875 17.320312 7.101562 C 17.3125 6.792969 17.273438 6.734375 16.945312 6.5625 C 16.617188 6.398438 16.390625 6.375 15.027344 6.375 C 13.535156 6.375 13.476562 6.382812 13.335938 6.585938 C 13.257812 6.695312 13.1875 6.929688 13.1875 7.101562 C 13.1875 7.273438 13.136719 7.429688 13.070312 7.445312 C 12.113281 7.726562 11.871094 7.816406 11.777344 7.929688 C 11.71875 8 11.597656 8.0625 11.515625 8.0625 C 11.429688 8.0625 11 8.242188 10.554688 8.46875 C 10.117188 8.6875 9.703125 8.851562 9.640625 8.835938 C 9.570312 8.8125 9.53125 8.546875 9.53125 8.070312 C 9.53125 6.96875 9.5625 6.984375 7.796875 6.984375 C 6.453125 6.984375 6.320312 7 6.195312 7.164062 C 6.089844 7.3125 6.0625 7.84375 6.0625 9.902344 C 6.0625 11.304688 6.101562 12.5625 6.152344 12.6875 C 6.203125 12.816406 6.320312 12.945312 6.410156 12.96875 C 6.757812 13.0625 9.242188 12.984375 9.351562 12.875 Z M 7 9.984375 L 7 8.0625 L 8.59375 8.0625 L 8.59375 11.90625 L 7 11.90625 Z M 14.0625 10.890625 C 13.914062 10.742188 13.921875 10.835938 13.921875 8.964844 C 13.921875 7.820312 13.953125 7.457031 14.046875 7.394531 C 14.117188 7.351562 14.640625 7.320312 15.203125 7.335938 L 16.234375 7.359375 L 16.261719 9.085938 C 16.273438 10.039062 16.25 10.851562 16.203125 10.898438 C 16.0625 11.039062 14.207031 11.035156 14.0625 10.890625 Z M 9.59375 10.714844 C 9.558594 10.679688 9.53125 10.492188 9.53125 10.292969 C 9.53125 10.03125 9.578125 9.917969 9.695312 9.882812 C 9.789062 9.859375 10.117188 9.710938 10.421875 9.5625 C 10.734375 9.414062 11.113281 9.261719 11.265625 9.226562 C 11.421875 9.191406 11.609375 9.109375 11.6875 9.039062 C 11.765625 8.976562 11.949219 8.890625 12.09375 8.855469 C 12.242188 8.820312 12.382812 8.730469 12.410156 8.660156 C 12.4375 8.582031 12.601562 8.53125 12.824219 8.53125 L 13.1875 8.53125 L 13.1875 9.097656 C 13.1875 9.46875 13.148438 9.671875 13.070312 9.695312 C 12.054688 9.992188 11.78125 10.085938 11.503906 10.234375 C 11.324219 10.328125 11.078125 10.40625 10.960938 10.40625 C 10.839844 10.40625 10.628906 10.460938 10.492188 10.53125 C 10.179688 10.6875 9.671875 10.792969 9.59375 10.714844 Z M 9.59375 10.714844 "/>
<path style=" stroke:none;fill-rule:nonzero;fill:rgb(29.019608%,26.27451%,23.921569%);fill-opacity:1;" d="M 7.164062 16.71875 C 7.023438 16.679688 7 16.546875 7 15.613281 C 7 14.730469 7.027344 14.539062 7.148438 14.492188 C 7.445312 14.382812 11.296875 14.429688 11.371094 14.546875 C 11.40625 14.609375 11.4375 15.101562 11.433594 15.640625 C 11.429688 16.351562 11.390625 16.640625 11.300781 16.695312 C 11.171875 16.78125 7.46875 16.796875 7.164062 16.71875 Z M 15.554688 16.386719 C 15.398438 16.234375 15.398438 14.609375 15.554688 14.457031 C 15.726562 14.28125 16.078125 14.320312 16.1875 14.523438 C 16.242188 14.625 16.28125 15.03125 16.28125 15.421875 C 16.28125 15.8125 16.242188 16.21875 16.1875 16.320312 C 16.078125 16.523438 15.726562 16.5625 15.554688 16.386719 Z M 7 9.984375 L 7 8.0625 L 8.59375 8.0625 L 8.59375 11.90625 L 7 11.90625 Z M 14.0625 10.890625 C 13.96875 10.796875 13.9375 10.355469 13.9375 9.085938 C 13.9375 7.121094 13.808594 7.289062 15.296875 7.332031 L 16.234375 7.359375 L 16.261719 9.085938 C 16.273438 10.039062 16.25 10.851562 16.203125 10.898438 C 16.0625 11.039062 14.207031 11.035156 14.0625 10.890625 Z M 14.0625 10.890625 "/>
</g>
</svg>
