
<svg xmlns="http://www.w3.org/2000/svg" xmlns:xlink="http://www.w3.org/1999/xlink" width="24px" height="24px" viewBox="0 0 24 24" version="1.1">
<g id="surface1">
<path style=" stroke:none;fill-rule:nonzero;fill:rgb(37.254902%,61.960784%,62.745098%);fill-opacity:1;" d="M 2.667969 4.398438 C -8.457031 18.792969 19.242188 33.734375 23.292969 15.914062 C 27.441406 4.691406 10.90625 -6.269531 2.667969 4.398438 Z M 2.667969 4.398438 "/>
<path style="fill-rule:evenodd;fill:rgb(37.254902%,87.45098%,88.235294%);fill-opacity:1;stroke-width:12.519356;stroke-linecap:butt;stroke-linejoin:miter;stroke:rgb(100%,100%,100%);stroke-opacity:1;stroke-miterlimit:4;" d="M 43.817352 120.294178 L 407.828681 120.365294 L 407.895157 398.708149 L 43.883827 398.637032 Z M 43.817352 120.294178 " transform="matrix(0.0306256,-0.00531803,0.00519928,0.031325,3.282624,4.460895)"/>
<path style=" stroke:none;fill-rule:nonzero;fill:rgb(28.235294%,28.235294%,29.803922%);fill-opacity:1;" d="M 9.066406 16.09375 C 9.054688 14.933594 9.046875 13.550781 9.054688 13.019531 L 9.0625 12.050781 L 12.234375 12.039062 C 13.976562 12.035156 16.144531 12.039062 17.054688 12.050781 L 18.710938 12.074219 L 18.710938 18.199219 L 9.085938 18.199219 Z M 9.066406 16.09375 "/>
<path style="fill-rule:evenodd;fill:rgb(28.235294%,28.235294%,29.803922%);fill-opacity:1;stroke-width:14.837054;stroke-linecap:round;stroke-linejoin:miter;stroke:rgb(100%,100%,100%);stroke-opacity:1;stroke-miterlimit:4;" d="M 439.496074 365.887805 C 439.496074 383.437581 423.177764 397.737399 403.054666 397.737399 C 382.931568 397.737399 366.613257 383.437581 366.613257 365.887805 C 366.613257 348.265807 382.931568 334.038211 403.054666 334.038211 C 423.177764 334.038211 439.496074 348.265807 439.496074 365.887805 Z M 439.496074 365.887805 " transform="matrix(0.0462,0,0,0.0540872,-2.828164,-4.594544)"/>
</g>
</svg>
