
<svg xmlns="http://www.w3.org/2000/svg" xmlns:xlink="http://www.w3.org/1999/xlink" width="24px" height="24px" viewBox="0 0 24 24" version="1.1">
<g id="surface1">
<path style=" stroke:none;fill-rule:nonzero;fill:rgb(69.019608%,76.862745%,87.058824%);fill-opacity:1;" d="M 0.160156 12.945312 C -1.21875 -1.546875 22.027344 -5.449219 23.832031 9.433594 C 26.070312 23.121094 5 30.167969 0.785156 16.570312 C 0.324219 15.421875 0.332031 14.164062 0.160156 12.945312 Z M 0.160156 12.945312 "/>
<path style=" stroke:none;fill-rule:evenodd;fill:rgb(0%,0%,0%);fill-opacity:0.0509804;" d="M 15.300781 4.761719 C 11.585938 4.730469 12.148438 7.558594 12.148438 7.558594 C 12.148438 7.558594 13.375 8.191406 14.753906 7.578125 C 15.695312 7.136719 15.796875 6.34375 17.167969 4.964844 C 16.449219 4.828125 15.832031 4.765625 15.300781 4.761719 Z M 11.710938 6.03125 L 10.636719 6.042969 C 10.636719 6.042969 11.375 6.789062 11.6875 8.6875 C 11.871094 7.730469 11.777344 6.203125 11.710938 6.03125 Z M 14.226562 8.207031 C 13.929688 8.214844 13.636719 8.269531 13.355469 8.375 C 11.867188 8.933594 11.21875 8.878906 10.363281 8.589844 C 9.511719 8.300781 6.535156 7.855469 5.738281 11.242188 C 5.035156 14.242188 6.367188 16.191406 6.953125 16.984375 C 7.367188 17.546875 8.726562 19.433594 11.636719 18.859375 C 13.03125 18.585938 13.476562 19.542969 15.109375 18.664062 C 16.746094 17.785156 18.3125 15.746094 18.507812 12.859375 C 18.679688 10.335938 16.324219 8.152344 14.226562 8.207031 Z M 14.226562 8.207031 "/>
<path style=" stroke:none;fill-rule:evenodd;fill:rgb(0%,0%,0%);fill-opacity:0.101961;" d="M 15.300781 4.601562 C 11.585938 4.574219 12.148438 7.402344 12.148438 7.402344 C 12.148438 7.402344 13.375 8.03125 14.753906 7.421875 C 15.695312 6.976562 15.796875 6.183594 17.167969 4.808594 C 16.449219 4.671875 15.832031 4.609375 15.300781 4.601562 Z M 11.710938 5.875 L 10.636719 5.886719 C 10.636719 5.886719 11.375 6.628906 11.6875 8.53125 C 11.871094 7.570312 11.777344 6.046875 11.710938 5.875 Z M 14.226562 8.050781 C 13.929688 8.058594 13.636719 8.109375 13.355469 8.214844 C 11.867188 8.773438 11.21875 8.722656 10.363281 8.433594 C 9.511719 8.144531 6.535156 7.699219 5.738281 11.082031 C 5.035156 14.082031 6.367188 16.03125 6.953125 16.828125 C 7.367188 17.390625 8.726562 19.273438 11.636719 18.703125 C 13.03125 18.429688 13.476562 19.386719 15.109375 18.507812 C 16.746094 17.625 18.3125 15.585938 18.507812 12.703125 C 18.679688 10.179688 16.324219 7.992188 14.226562 8.050781 Z M 14.226562 8.050781 "/>
<path style=" stroke:none;fill-rule:evenodd;fill:rgb(0%,0%,0%);fill-opacity:0.14902;" d="M 15.300781 4.460938 C 11.585938 4.433594 12.148438 7.257812 12.148438 7.257812 C 12.148438 7.257812 13.375 7.890625 14.753906 7.28125 C 15.695312 6.835938 15.796875 6.042969 17.167969 4.667969 C 16.449219 4.53125 15.832031 4.464844 15.300781 4.460938 Z M 11.710938 5.730469 L 10.636719 5.742188 C 10.636719 5.742188 11.375 6.488281 11.6875 8.390625 C 11.871094 7.429688 11.777344 5.90625 11.710938 5.730469 Z M 14.226562 7.90625 C 13.929688 7.914062 13.636719 7.96875 13.355469 8.074219 C 11.867188 8.632812 11.21875 8.578125 10.363281 8.289062 C 9.511719 8 6.535156 7.558594 5.738281 10.941406 C 5.035156 13.941406 6.367188 15.890625 6.953125 16.6875 C 7.367188 17.25 8.726562 19.132812 11.636719 18.5625 C 13.03125 18.289062 13.476562 19.246094 15.109375 18.363281 C 16.746094 17.484375 18.3125 15.445312 18.507812 12.5625 C 18.679688 10.039062 16.324219 7.851562 14.226562 7.90625 Z M 14.226562 7.90625 "/>
<path style=" stroke:none;fill-rule:evenodd;fill:rgb(10.588235%,50.196078%,94.901961%);fill-opacity:1;" d="M 10.367188 8.15625 C 11.21875 8.445312 11.867188 8.5 13.355469 7.941406 C 15.597656 7.101562 18.703125 9.546875 18.507812 12.429688 C 18.3125 15.3125 16.746094 17.351562 15.109375 18.234375 C 13.476562 19.113281 13.03125 18.15625 11.636719 18.429688 C 8.726562 19 7.367188 17.117188 6.953125 16.554688 C 6.367188 15.757812 5.035156 13.808594 5.738281 10.808594 C 6.535156 7.425781 9.511719 7.867188 10.367188 8.15625 Z M 10.367188 8.15625 "/>
<path style=" stroke:none;fill-rule:evenodd;fill:rgb(10.588235%,50.196078%,94.901961%);fill-opacity:1;" d="M 10.636719 5.609375 L 11.710938 5.601562 C 11.777344 5.773438 11.871094 7.296875 11.6875 8.257812 C 11.375 6.355469 10.636719 5.613281 10.636719 5.613281 Z M 10.636719 5.609375 "/>
<path style=" stroke:none;fill-rule:evenodd;fill:rgb(10.588235%,50.196078%,94.901961%);fill-opacity:1;" d="M 12.148438 7.128906 C 12.148438 7.128906 11.414062 3.433594 17.167969 4.535156 C 15.796875 5.910156 15.699219 6.703125 14.753906 7.148438 C 13.375 7.757812 12.148438 7.128906 12.148438 7.128906 Z M 12.148438 7.128906 "/>
<path style=" stroke:none;fill-rule:nonzero;fill:rgb(100%,100%,100%);fill-opacity:1;" d="M 11.699219 9.023438 L 12.0625 9.023438 L 12.0625 10.023438 L 11.699219 10.023438 Z M 11.699219 9.023438 "/>
<path style=" stroke:none;fill-rule:nonzero;fill:rgb(100%,100%,100%);fill-opacity:1;" d="M 11.707031 16.984375 L 12.070312 16.984375 L 12.070312 17.972656 L 11.707031 17.972656 Z M 11.707031 16.984375 "/>
<path style=" stroke:none;fill-rule:nonzero;fill:rgb(100%,100%,100%);fill-opacity:1;" d="M 16.75 13.328125 L 16.75 13.660156 L 15.664062 13.660156 L 15.664062 13.328125 Z M 16.75 13.328125 "/>
<path style=" stroke:none;fill-rule:nonzero;fill:rgb(100%,100%,100%);fill-opacity:1;" d="M 8.097656 13.335938 L 8.097656 13.667969 L 7.019531 13.667969 L 7.019531 13.335938 Z M 8.097656 13.335938 "/>
<path style=" stroke:none;fill-rule:nonzero;fill:rgb(100%,100%,100%);fill-opacity:1;" d="M 14.15625 9.539062 L 14.46875 9.707031 L 13.925781 10.570312 L 13.613281 10.402344 Z M 14.15625 9.539062 "/>
<path style=" stroke:none;fill-rule:nonzero;fill:rgb(100%,100%,100%);fill-opacity:1;" d="M 9.839844 16.433594 L 10.148438 16.601562 L 9.613281 17.460938 L 9.300781 17.292969 Z M 9.839844 16.433594 "/>
<path style=" stroke:none;fill-rule:nonzero;fill:rgb(100%,100%,100%);fill-opacity:1;" d="M 16.003906 11.117188 L 16.183594 11.402344 L 15.246094 11.902344 L 15.066406 11.613281 Z M 16.003906 11.117188 "/>
<path style=" stroke:none;fill-rule:nonzero;fill:rgb(100%,100%,100%);fill-opacity:1;" d="M 8.515625 15.101562 L 8.695312 15.386719 L 7.761719 15.882812 L 7.582031 15.597656 Z M 8.515625 15.101562 "/>
<path style=" stroke:none;fill-rule:nonzero;fill:rgb(100%,100%,100%);fill-opacity:1;" d="M 16.1875 15.589844 L 16.007812 15.878906 L 15.070312 15.378906 L 15.25 15.089844 Z M 16.1875 15.589844 "/>
<path style=" stroke:none;fill-rule:nonzero;fill:rgb(100%,100%,100%);fill-opacity:1;" d="M 8.691406 11.617188 L 8.511719 11.902344 L 7.578125 11.410156 L 7.757812 11.121094 Z M 8.691406 11.617188 "/>
<path style=" stroke:none;fill-rule:nonzero;fill:rgb(100%,100%,100%);fill-opacity:1;" d="M 14.476562 17.289062 L 14.164062 17.457031 L 13.621094 16.589844 L 13.933594 16.425781 Z M 14.476562 17.289062 "/>
<path style=" stroke:none;fill-rule:nonzero;fill:rgb(100%,100%,100%);fill-opacity:1;" d="M 10.144531 10.402344 L 9.832031 10.566406 L 9.292969 9.707031 L 9.605469 9.542969 Z M 10.144531 10.402344 "/>
<path style=" stroke:none;fill-rule:nonzero;fill:rgb(100%,100%,100%);fill-opacity:1;" d="M 12.261719 13.503906 C 12.261719 13.6875 12.101562 13.835938 11.902344 13.835938 C 11.703125 13.835938 11.539062 13.6875 11.539062 13.503906 C 11.539062 13.320312 11.703125 13.171875 11.902344 13.171875 C 12.101562 13.171875 12.261719 13.320312 12.261719 13.503906 Z M 12.261719 13.503906 "/>
<path style="fill:none;stroke-width:0.25;stroke-linecap:round;stroke-linejoin:round;stroke:rgb(100%,100%,100%);stroke-opacity:1;stroke-miterlimit:4;" d="M 696.466271 753.31627 C 696.745859 753.307013 696.971338 753.532588 696.971875 753.813589 L 696.975958 764.505881 C 696.976495 764.786882 696.746889 765.018386 696.459556 765.01876 C 696.180393 765.01201 695.954914 764.786435 695.954376 764.505434 L 695.95804 753.822024 C 695.957502 753.541023 696.187108 753.30952 696.466271 753.31627 Z M 696.466271 753.31627 " transform="matrix(0.271588,0.217843,-0.23684,0.249805,3.774737,-329.171963)"/>
<path style="fill:none;stroke-width:0.25;stroke-linecap:round;stroke-linejoin:round;stroke:rgb(100%,100%,100%);stroke-opacity:1;stroke-miterlimit:4;" d="M 771.213208 -697.458352 C 771.494201 -697.456138 771.7164 -697.232515 771.715875 -696.96109 L 771.715407 -688.945521 C 771.714881 -688.674096 771.496067 -688.458495 771.222118 -688.45247 C 770.941125 -688.454684 770.718926 -688.678307 770.719452 -688.949732 L 770.726964 -696.957062 C 770.720445 -697.236726 770.93926 -697.452327 771.213208 -697.458352 Z M 771.213208 -697.458352 " transform="matrix(-0.234169,0.251926,-0.273895,-0.215386,3.774737,-329.171963)"/>
<path style=" stroke:none;fill-rule:nonzero;fill:rgb(100%,100%,100%);fill-opacity:1;" d="M 11.855469 13.417969 L 11.933594 13.542969 L 8.175781 15.546875 L 8.097656 15.421875 Z M 11.855469 13.417969 "/>
<path style="fill-rule:nonzero;fill:rgb(100%,100%,100%);fill-opacity:1;stroke-width:0.0530431;stroke-linecap:round;stroke-linejoin:round;stroke:rgb(100%,100%,100%);stroke-opacity:1;stroke-miterlimit:4;" d="M 696.434785 758.722929 C 696.785781 758.729585 696.981549 758.871609 696.985479 759.024555 L 696.979039 764.69084 C 696.982969 764.843786 696.586883 765.032822 696.443216 765.033009 C 696.291804 765.024314 695.91969 764.910976 695.923506 764.766913 L 695.9222 759.091745 C 695.926016 758.947682 696.139706 758.714421 696.434785 758.722929 Z M 696.434785 758.722929 " transform="matrix(0.271588,0.217843,-0.23684,0.249805,3.774737,-329.171963)"/>
<path style="fill-rule:nonzero;fill:rgb(100%,100%,100%);fill-opacity:1;stroke-width:0.0443144;stroke-linecap:round;stroke-linejoin:round;stroke:rgb(100%,100%,100%);stroke-opacity:1;stroke-miterlimit:4;" d="M 25.90425 1036.784773 C 25.698288 1037.008696 25.514006 1037.044052 25.416445 1036.961554 L 21.817529 1033.873781 C 21.730808 1033.791283 21.828369 1033.449507 21.90425 1033.355224 C 21.990971 1033.260941 22.261974 1033.08416 22.348695 1033.166658 L 25.94761 1036.25443 C 26.045171 1036.336928 26.066852 1036.596207 25.90425 1036.784773 Z M 25.90425 1036.784773 " transform="matrix(0.360352,0,0,0.331448,3.774737,-329.171963)"/>
<path style=" stroke:none;fill-rule:evenodd;fill:rgb(100%,100%,100%);fill-opacity:1;" d="M 12.546875 9.066406 L 12.429688 9.054688 L 12.382812 9.390625 L 12.5 9.402344 Z M 12.546875 9.066406 "/>
<path style=" stroke:none;fill-rule:evenodd;fill:rgb(100%,100%,100%);fill-opacity:1;" d="M 11.367188 17.609375 L 11.25 17.597656 L 11.207031 17.929688 L 11.324219 17.945312 Z M 11.367188 17.609375 "/>
<path style=" stroke:none;fill-rule:evenodd;fill:rgb(100%,100%,100%);fill-opacity:1;" d="M 12.972656 9.140625 L 12.859375 9.117188 L 12.78125 9.445312 L 12.894531 9.46875 Z M 12.972656 9.140625 "/>
<path style=" stroke:none;fill-rule:evenodd;fill:rgb(100%,100%,100%);fill-opacity:1;" d="M 10.972656 17.550781 L 10.855469 17.527344 L 10.777344 17.859375 L 10.894531 17.882812 Z M 10.972656 17.550781 "/>
<path style=" stroke:none;fill-rule:evenodd;fill:rgb(100%,100%,100%);fill-opacity:1;" d="M 13.378906 9.242188 L 13.265625 9.210938 L 13.15625 9.535156 L 13.269531 9.566406 Z M 13.378906 9.242188 "/>
<path style=" stroke:none;fill-rule:evenodd;fill:rgb(100%,100%,100%);fill-opacity:1;" d="M 10.59375 17.464844 L 10.480469 17.433594 L 10.375 17.753906 L 10.484375 17.785156 Z M 10.59375 17.464844 "/>
<path style=" stroke:none;fill-rule:evenodd;fill:rgb(100%,100%,100%);fill-opacity:1;" d="M 13.773438 9.378906 L 13.664062 9.339844 L 13.527344 9.652344 L 13.636719 9.691406 Z M 13.773438 9.378906 "/>
<path style=" stroke:none;fill-rule:evenodd;fill:rgb(100%,100%,100%);fill-opacity:1;" d="M 10.226562 17.347656 L 10.117188 17.304688 L 9.976562 17.617188 L 10.085938 17.660156 Z M 10.226562 17.347656 "/>
<path style=" stroke:none;fill-rule:evenodd;fill:rgb(100%,100%,100%);fill-opacity:1;" d="M 14.875 9.976562 L 14.78125 9.910156 L 14.558594 10.179688 L 14.652344 10.246094 Z M 14.875 9.976562 "/>
<path style=" stroke:none;fill-rule:evenodd;fill:rgb(100%,100%,100%);fill-opacity:1;" d="M 9.191406 16.820312 L 9.097656 16.753906 L 8.875 17.019531 L 8.96875 17.085938 Z M 9.191406 16.820312 "/>
<path style=" stroke:none;fill-rule:evenodd;fill:rgb(100%,100%,100%);fill-opacity:1;" d="M 15.207031 10.238281 L 15.117188 10.164062 L 14.871094 10.414062 L 14.957031 10.484375 Z M 15.207031 10.238281 "/>
<path style=" stroke:none;fill-rule:evenodd;fill:rgb(100%,100%,100%);fill-opacity:1;" d="M 8.882812 16.585938 L 8.796875 16.511719 L 8.546875 16.761719 L 8.632812 16.835938 Z M 8.882812 16.585938 "/>
<path style=" stroke:none;fill-rule:evenodd;fill:rgb(100%,100%,100%);fill-opacity:1;" d="M 15.5 10.515625 L 15.417969 10.433594 L 15.148438 10.664062 L 15.230469 10.742188 Z M 15.5 10.515625 "/>
<path style=" stroke:none;fill-rule:evenodd;fill:rgb(100%,100%,100%);fill-opacity:1;" d="M 8.601562 16.335938 L 8.523438 16.257812 L 8.253906 16.484375 L 8.332031 16.5625 Z M 8.601562 16.335938 "/>
<path style=" stroke:none;fill-rule:evenodd;fill:rgb(100%,100%,100%);fill-opacity:1;" d="M 15.765625 10.8125 L 15.695312 10.726562 L 15.40625 10.933594 L 15.476562 11.019531 Z M 15.765625 10.8125 "/>
<path style=" stroke:none;fill-rule:evenodd;fill:rgb(100%,100%,100%);fill-opacity:1;" d="M 8.347656 16.066406 L 8.277344 15.980469 L 7.984375 16.183594 L 8.058594 16.269531 Z M 8.347656 16.066406 "/>
<path style=" stroke:none;fill-rule:evenodd;fill:rgb(100%,100%,100%);fill-opacity:1;" d="M 16.402344 11.863281 L 16.359375 11.761719 L 16.019531 11.890625 L 16.0625 11.992188 Z M 16.402344 11.863281 "/>
<path style=" stroke:none;fill-rule:evenodd;fill:rgb(100%,100%,100%);fill-opacity:1;" d="M 7.734375 15.109375 L 7.6875 15.007812 L 7.347656 15.136719 L 7.394531 15.234375 Z M 7.734375 15.109375 "/>
<path style=" stroke:none;fill-rule:evenodd;fill:rgb(100%,100%,100%);fill-opacity:1;" d="M 16.542969 12.242188 L 16.507812 12.136719 L 16.160156 12.234375 L 16.195312 12.339844 Z M 16.542969 12.242188 "/>
<path style=" stroke:none;fill-rule:evenodd;fill:rgb(100%,100%,100%);fill-opacity:1;" d="M 7.59375 14.761719 L 7.558594 14.660156 L 7.207031 14.757812 L 7.242188 14.863281 Z M 7.59375 14.761719 "/>
<path style=" stroke:none;fill-rule:evenodd;fill:rgb(100%,100%,100%);fill-opacity:1;" d="M 16.644531 12.617188 L 16.621094 12.511719 L 16.261719 12.582031 L 16.285156 12.6875 Z M 16.644531 12.617188 "/>
<path style=" stroke:none;fill-rule:evenodd;fill:rgb(100%,100%,100%);fill-opacity:1;" d="M 7.492188 14.417969 L 7.464844 14.3125 L 7.109375 14.382812 L 7.132812 14.488281 Z M 7.492188 14.417969 "/>
<path style=" stroke:none;fill-rule:evenodd;fill:rgb(100%,100%,100%);fill-opacity:1;" d="M 16.710938 13 L 16.695312 12.890625 L 16.332031 12.933594 L 16.347656 13.042969 Z M 16.710938 13 "/>
<path style=" stroke:none;fill-rule:evenodd;fill:rgb(100%,100%,100%);fill-opacity:1;" d="M 7.421875 14.0625 L 7.40625 13.957031 L 7.042969 14 L 7.058594 14.105469 Z M 7.421875 14.0625 "/>
<path style=" stroke:none;fill-rule:evenodd;fill:rgb(100%,100%,100%);fill-opacity:1;" d="M 16.695312 14.121094 L 16.707031 14.011719 L 16.34375 13.96875 L 16.328125 14.078125 Z M 16.695312 14.121094 "/>
<path style=" stroke:none;fill-rule:evenodd;fill:rgb(100%,100%,100%);fill-opacity:1;" d="M 7.40625 13.027344 L 7.421875 12.921875 L 7.058594 12.878906 L 7.042969 12.984375 Z M 7.40625 13.027344 "/>
<path style=" stroke:none;fill-rule:evenodd;fill:rgb(100%,100%,100%);fill-opacity:1;" d="M 16.613281 14.511719 L 16.640625 14.40625 L 16.28125 14.335938 L 16.257812 14.441406 Z M 16.613281 14.511719 "/>
<path style=" stroke:none;fill-rule:evenodd;fill:rgb(100%,100%,100%);fill-opacity:1;" d="M 7.472656 12.664062 L 7.496094 12.558594 L 7.136719 12.484375 L 7.113281 12.59375 Z M 7.472656 12.664062 "/>
<path style=" stroke:none;fill-rule:evenodd;fill:rgb(100%,100%,100%);fill-opacity:1;" d="M 16.5 14.886719 L 16.535156 14.78125 L 16.1875 14.683594 L 16.152344 14.785156 Z M 16.5 14.886719 "/>
<path style=" stroke:none;fill-rule:evenodd;fill:rgb(100%,100%,100%);fill-opacity:1;" d="M 7.566406 12.316406 L 7.601562 12.214844 L 7.25 12.113281 L 7.214844 12.214844 Z M 7.566406 12.316406 "/>
<path style=" stroke:none;fill-rule:evenodd;fill:rgb(100%,100%,100%);fill-opacity:1;" d="M 16.351562 15.25 L 16.398438 15.148438 L 16.058594 15.019531 L 16.015625 15.121094 Z M 16.351562 15.25 "/>
<path style=" stroke:none;fill-rule:evenodd;fill:rgb(100%,100%,100%);fill-opacity:1;" d="M 7.695312 11.976562 L 7.738281 11.878906 L 7.398438 11.75 L 7.355469 11.851562 Z M 7.695312 11.976562 "/>
<path style=" stroke:none;fill-rule:evenodd;fill:rgb(100%,100%,100%);fill-opacity:1;" d="M 15.703125 16.257812 L 15.777344 16.171875 L 15.484375 15.96875 L 15.414062 16.054688 Z M 15.703125 16.257812 "/>
<path style=" stroke:none;fill-rule:evenodd;fill:rgb(100%,100%,100%);fill-opacity:1;" d="M 8.269531 11.03125 L 8.339844 10.945312 L 8.046875 10.738281 L 7.976562 10.824219 Z M 8.269531 11.03125 "/>
<path style=" stroke:none;fill-rule:evenodd;fill:rgb(100%,100%,100%);fill-opacity:1;" d="M 15.421875 16.5625 L 15.5 16.480469 L 15.230469 16.253906 L 15.152344 16.335938 Z M 15.421875 16.5625 "/>
<path style=" stroke:none;fill-rule:evenodd;fill:rgb(100%,100%,100%);fill-opacity:1;" d="M 8.523438 10.742188 L 8.601562 10.664062 L 8.332031 10.4375 L 8.25 10.515625 Z M 8.523438 10.742188 "/>
<path style=" stroke:none;fill-rule:evenodd;fill:rgb(100%,100%,100%);fill-opacity:1;" d="M 15.121094 16.832031 L 15.207031 16.757812 L 14.960938 16.511719 L 14.871094 16.585938 Z M 15.121094 16.832031 "/>
<path style=" stroke:none;fill-rule:evenodd;fill:rgb(100%,100%,100%);fill-opacity:1;" d="M 8.792969 10.488281 L 8.878906 10.414062 L 8.632812 10.164062 L 8.546875 10.238281 Z M 8.792969 10.488281 "/>
<path style=" stroke:none;fill-rule:evenodd;fill:rgb(100%,100%,100%);fill-opacity:1;" d="M 14.792969 17.078125 L 14.886719 17.011719 L 14.664062 16.746094 L 14.570312 16.8125 Z M 14.792969 17.078125 "/>
<path style=" stroke:none;fill-rule:evenodd;fill:rgb(100%,100%,100%);fill-opacity:1;" d="M 9.089844 10.253906 L 9.183594 10.1875 L 8.957031 9.917969 L 8.863281 9.984375 Z M 9.089844 10.253906 "/>
<path style=" stroke:none;fill-rule:evenodd;fill:rgb(100%,100%,100%);fill-opacity:1;" d="M 13.722656 17.640625 L 13.832031 17.597656 L 13.6875 17.285156 L 13.578125 17.328125 Z M 13.722656 17.640625 "/>
<path style=" stroke:none;fill-rule:evenodd;fill:rgb(100%,100%,100%);fill-opacity:1;" d="M 10.066406 9.710938 L 10.175781 9.671875 L 10.03125 9.359375 L 9.921875 9.402344 Z M 10.066406 9.710938 "/>
<path style=" stroke:none;fill-rule:evenodd;fill:rgb(100%,100%,100%);fill-opacity:1;" d="M 13.3125 17.773438 L 13.425781 17.742188 L 13.3125 17.417969 L 13.199219 17.453125 Z M 13.3125 17.773438 "/>
<path style=" stroke:none;fill-rule:evenodd;fill:rgb(100%,100%,100%);fill-opacity:1;" d="M 10.441406 9.578125 L 10.550781 9.546875 L 10.4375 9.226562 L 10.328125 9.257812 Z M 10.441406 9.578125 "/>
<path style=" stroke:none;fill-rule:evenodd;fill:rgb(100%,100%,100%);fill-opacity:1;" d="M 12.90625 17.871094 L 13.019531 17.847656 L 12.9375 17.519531 L 12.824219 17.542969 Z M 12.90625 17.871094 "/>
<path style=" stroke:none;fill-rule:evenodd;fill:rgb(100%,100%,100%);fill-opacity:1;" d="M 10.8125 9.480469 L 10.929688 9.457031 L 10.847656 9.125 L 10.730469 9.152344 Z M 10.8125 9.480469 "/>
<path style=" stroke:none;fill-rule:evenodd;fill:rgb(100%,100%,100%);fill-opacity:1;" d="M 12.492188 17.9375 L 12.609375 17.921875 L 12.558594 17.589844 L 12.441406 17.605469 Z M 12.492188 17.9375 "/>
<path style=" stroke:none;fill-rule:evenodd;fill:rgb(100%,100%,100%);fill-opacity:1;" d="M 11.195312 9.410156 L 11.3125 9.394531 L 11.261719 9.0625 L 11.144531 9.074219 Z M 11.195312 9.410156 "/>
</g>
</svg>
