
<svg xmlns="http://www.w3.org/2000/svg" xmlns:xlink="http://www.w3.org/1999/xlink" width="24px" height="24px" viewBox="0 0 24 24" version="1.1">
<g id="surface1">
<path style=" stroke:none;fill-rule:nonzero;fill:rgb(93.72549%,30.196078%,23.137255%);fill-opacity:1;" d="M 19.65625 21.386719 C 5.257812 32.507812 -9.683594 4.808594 8.136719 0.761719 C 19.359375 -3.390625 30.324219 13.144531 19.65625 21.386719 Z M 19.65625 21.386719 "/>
<path style=" stroke:none;fill-rule:nonzero;fill:rgb(100%,100%,100%);fill-opacity:1;" d="M 12.238281 14.6875 C 13.714844 14.6875 14.910156 13.519531 14.910156 12.074219 C 14.910156 10.628906 13.714844 9.460938 12.238281 9.460938 C 10.765625 9.460938 9.570312 10.628906 9.570312 12.074219 C 9.570312 13.519531 10.765625 14.6875 12.238281 14.6875 Z M 12.238281 13.605469 C 11.375 13.605469 10.675781 12.921875 10.675781 12.074219 C 10.675781 11.226562 11.375 10.542969 12.238281 10.542969 C 13.105469 10.542969 13.804688 11.226562 13.804688 12.074219 C 13.804688 12.921875 13.105469 13.605469 12.238281 13.605469 Z M 12.238281 13.605469 "/>
<path style=" stroke:none;fill-rule:nonzero;fill:rgb(100%,100%,100%);fill-opacity:1;" d="M 6.363281 7.363281 C 6.363281 6.789062 6.84375 6.324219 7.4375 6.324219 L 12.773438 6.324219 L 8.992188 7.941406 C 8.71875 8.058594 8.386719 8.363281 8.246094 8.617188 L 6.363281 12.074219 Z M 6.363281 7.363281 "/>
<path style=" stroke:none;fill-rule:nonzero;fill:rgb(100%,100%,100%);fill-opacity:1;" d="M 12.25 17.820312 C 15.484375 17.820312 18.109375 15.25 18.109375 12.082031 C 18.109375 8.914062 15.484375 6.347656 12.25 6.347656 C 9.011719 6.347656 6.390625 8.914062 6.390625 12.082031 C 6.390625 15.25 9.011719 17.820312 12.25 17.820312 Z M 12.25 16.773438 C 9.601562 16.773438 7.457031 14.671875 7.457031 12.082031 C 7.457031 9.492188 9.601562 7.394531 12.25 7.394531 C 14.894531 7.394531 17.039062 9.492188 17.039062 12.082031 C 17.039062 14.671875 14.894531 16.773438 12.25 16.773438 Z M 12.25 16.773438 "/>
</g>
</svg>
