
<svg xmlns="http://www.w3.org/2000/svg" xmlns:xlink="http://www.w3.org/1999/xlink" width="24px" height="24px" viewBox="0 0 24 24" version="1.1">
<g id="surface1">
<path style=" stroke:none;fill-rule:nonzero;fill:rgb(86.27451%,86.27451%,86.27451%);fill-opacity:1;" d="M 4.34375 21.375 C 18.742188 32.542969 33.6875 4.726562 15.863281 0.660156 C 4.640625 -3.507812 -6.320312 13.097656 4.34375 21.375 Z M 4.34375 21.375 "/>
<path style=" stroke:none;fill-rule:nonzero;fill:rgb(64.313725%,63.137255%,63.137255%);fill-opacity:1;" d="M 9.609375 20.800781 C 8.78125 20.652344 7.679688 20.066406 7.515625 19.6875 C 7.4375 19.507812 7.429688 19.253906 7.492188 19.078125 C 7.605469 18.742188 8.3125 18.226562 8.648438 18.226562 C 9.109375 18.226562 9.054688 17.109375 8.578125 16.84375 C 8.199219 16.632812 8.121094 16.464844 8.117188 15.882812 C 8.117188 15.460938 8.027344 15.289062 7.605469 14.882812 C 7.171875 14.46875 7.09375 14.304688 7.09375 13.859375 C 7.09375 13.445312 6.980469 13.175781 6.582031 12.640625 C 5.992188 11.851562 5.976562 11.734375 6.335938 11.246094 L 6.601562 10.886719 L 6.335938 10.304688 C 6.1875 9.980469 6.070312 9.65625 6.070312 9.578125 C 6.070312 9.5 6.28125 9.148438 6.546875 8.792969 C 6.914062 8.289062 7.011719 8.042969 6.984375 7.6875 C 6.9375 7.117188 7.285156 6.46875 7.742188 6.265625 C 7.953125 6.171875 8.328125 6.152344 8.695312 6.210938 L 9.296875 6.304688 L 9.203125 5.601562 C 9.097656 4.769531 9.332031 4.367188 9.929688 4.367188 C 10.125 4.367188 10.289062 4.304688 10.289062 4.234375 C 10.289062 3.921875 10.644531 4.152344 11.125 4.78125 C 11.40625 5.148438 11.714844 5.453125 11.8125 5.453125 C 11.90625 5.453125 12.210938 5.242188 12.484375 4.980469 C 13.15625 4.335938 13.65625 4.328125 14.011719 4.96875 C 14.15625 5.226562 14.410156 5.53125 14.582031 5.652344 C 14.769531 5.78125 14.898438 6 14.898438 6.191406 C 14.898438 6.546875 15.109375 6.679688 15.679688 6.679688 C 15.914062 6.679688 16.179688 6.808594 16.375 7.011719 C 16.636719 7.289062 16.6875 7.476562 16.6875 8.15625 C 16.6875 8.605469 16.75 9.011719 16.820312 9.0625 C 17.078125 9.230469 17.1875 9.769531 17.058594 10.265625 C 16.960938 10.636719 16.976562 10.839844 17.128906 11.148438 C 17.363281 11.628906 17.382812 12.132812 17.179688 12.347656 C 17.074219 12.460938 17.074219 12.660156 17.183594 13.125 C 17.300781 13.621094 17.296875 13.832031 17.148438 14.203125 C 17.050781 14.453125 16.90625 14.703125 16.828125 14.753906 C 16.75 14.804688 16.6875 15.070312 16.6875 15.351562 C 16.6875 15.628906 16.597656 15.992188 16.484375 16.160156 C 16.367188 16.339844 16.320312 16.578125 16.371094 16.746094 C 16.429688 16.945312 16.34375 17.179688 16.0625 17.550781 C 15.585938 18.175781 15.570312 18.398438 15.957031 18.726562 C 16.390625 19.09375 16.453125 19.257812 16.28125 19.640625 C 16.09375 20.09375 15.054688 20.636719 14.058594 20.8125 C 13.164062 20.964844 10.5 20.960938 9.609375 20.800781 Z M 9.609375 20.800781 "/>
<path style=" stroke:none;fill-rule:nonzero;fill:rgb(40%,37.647059%,37.647059%);fill-opacity:1;" d="M 10.132812 20.21875 C 9.492188 20.023438 9.011719 19.660156 9.011719 19.367188 C 9.011719 19.273438 9.136719 19.101562 9.289062 18.984375 C 9.53125 18.804688 9.546875 18.734375 9.417969 18.429688 C 9.335938 18.234375 9.265625 17.902344 9.265625 17.6875 C 9.265625 17.109375 9.148438 16.878906 8.742188 16.65625 C 8.421875 16.480469 8.375 16.375 8.375 15.867188 C 8.375 15.347656 8.3125 15.234375 7.859375 14.84375 C 7.40625 14.460938 7.351562 14.34375 7.351562 13.828125 C 7.351562 13.398438 7.273438 13.171875 7.0625 12.960938 C 6.902344 12.800781 6.664062 12.453125 6.53125 12.1875 C 6.304688 11.738281 6.300781 11.6875 6.5 11.457031 C 6.765625 11.144531 6.765625 10.847656 6.503906 10.125 L 6.300781 9.554688 L 6.824219 8.851562 C 7.214844 8.328125 7.328125 8.070312 7.273438 7.835938 C 7.199219 7.523438 7.511719 6.703125 7.78125 6.503906 C 7.859375 6.445312 8.25 6.4375 8.648438 6.484375 C 9.28125 6.554688 9.390625 6.53125 9.507812 6.300781 C 9.601562 6.109375 9.597656 5.910156 9.492188 5.605469 C 9.277344 5.007812 9.476562 4.71875 10.125 4.667969 C 10.585938 4.632812 10.695312 4.6875 11.132812 5.175781 C 11.402344 5.476562 11.703125 5.726562 11.804688 5.726562 C 11.90625 5.726562 12.226562 5.523438 12.515625 5.273438 C 12.804688 5.027344 13.109375 4.78125 13.199219 4.726562 C 13.414062 4.59375 13.875 4.871094 13.875 5.132812 C 13.875 5.25 14.050781 5.523438 14.269531 5.742188 C 14.53125 6 14.640625 6.210938 14.585938 6.355469 C 14.460938 6.710938 14.757812 6.949219 15.328125 6.949219 C 15.625 6.949219 15.992188 7.046875 16.148438 7.164062 C 16.390625 7.34375 16.429688 7.5 16.429688 8.257812 C 16.429688 9.011719 16.476562 9.1875 16.710938 9.390625 C 16.976562 9.617188 16.984375 9.664062 16.820312 10.195312 C 16.664062 10.695312 16.671875 10.800781 16.882812 11.21875 C 17.089844 11.628906 17.097656 11.746094 16.953125 12.21875 C 16.828125 12.617188 16.820312 12.820312 16.929688 13.035156 C 17.15625 13.492188 17.09375 14.015625 16.742188 14.453125 C 16.507812 14.753906 16.4375 14.964844 16.488281 15.222656 C 16.535156 15.453125 16.46875 15.71875 16.304688 15.984375 C 16.164062 16.210938 16.046875 16.609375 16.046875 16.878906 C 16.046875 17.21875 15.953125 17.460938 15.726562 17.683594 C 15.550781 17.859375 15.40625 18.15625 15.40625 18.34375 C 15.40625 18.867188 14.9375 19.480469 14.210938 19.914062 C 13.617188 20.265625 13.410156 20.308594 12.144531 20.351562 C 11.21875 20.382812 10.53125 20.335938 10.132812 20.21875 Z M 10.132812 20.21875 "/>
<path style=" stroke:none;fill-rule:nonzero;fill:rgb(59.607843%,7.45098%,27.45098%);fill-opacity:1;" d="M 10.628906 19.710938 C 10.429688 19.546875 10.289062 19.292969 10.289062 19.101562 C 10.289062 18.773438 9.960938 18.3125 9.65625 18.203125 C 9.570312 18.171875 9.46875 17.851562 9.429688 17.492188 C 9.367188 16.925781 9.296875 16.796875 8.929688 16.566406 C 8.550781 16.328125 8.5 16.230469 8.5 15.71875 C 8.5 15.210938 8.4375 15.09375 7.988281 14.710938 C 7.535156 14.320312 7.476562 14.207031 7.476562 13.6875 C 7.476562 13.265625 7.402344 13.03125 7.207031 12.84375 C 7.0625 12.703125 6.851562 12.414062 6.75 12.203125 C 6.585938 11.859375 6.585938 11.789062 6.765625 11.578125 C 7.023438 11.273438 7.015625 10.898438 6.75 10.1875 C 6.539062 9.632812 6.539062 9.617188 6.8125 9.421875 C 6.96875 9.3125 7.09375 9.117188 7.09375 8.976562 C 7.09375 8.84375 7.148438 8.695312 7.21875 8.648438 C 7.289062 8.601562 7.351562 8.316406 7.351562 8.015625 C 7.351562 7.398438 7.671875 6.71875 8.015625 6.601562 C 8.140625 6.558594 8.4375 6.597656 8.671875 6.6875 C 9.046875 6.832031 9.148438 6.820312 9.4375 6.59375 C 9.878906 6.25 9.921875 6.101562 9.703125 5.648438 C 9.4375 5.109375 9.554688 4.910156 10.152344 4.910156 C 10.59375 4.910156 10.71875 4.984375 11.074219 5.453125 C 11.621094 6.175781 11.992188 6.175781 12.65625 5.453125 C 13.207031 4.859375 13.554688 4.765625 13.679688 5.183594 C 13.726562 5.335938 13.90625 5.640625 14.082031 5.859375 C 14.289062 6.117188 14.375 6.359375 14.328125 6.519531 C 14.210938 6.90625 14.570312 7.132812 15.265625 7.101562 C 16.144531 7.070312 16.363281 7.359375 16.242188 8.394531 C 16.15625 9.105469 16.175781 9.1875 16.445312 9.40625 C 16.71875 9.625 16.734375 9.683594 16.585938 10.109375 C 16.375 10.730469 16.386719 10.835938 16.710938 11.304688 C 16.992188 11.710938 16.992188 11.714844 16.753906 12.1875 C 16.523438 12.648438 16.519531 12.6875 16.734375 13.070312 C 17.007812 13.558594 16.914062 14.21875 16.546875 14.425781 C 16.367188 14.53125 16.304688 14.710938 16.304688 15.15625 C 16.304688 15.515625 16.226562 15.8125 16.109375 15.914062 C 15.996094 16.015625 15.921875 16.3125 15.921875 16.65625 C 15.921875 17.121094 15.847656 17.296875 15.535156 17.59375 C 15.320312 17.796875 15.152344 18.09375 15.152344 18.269531 C 15.152344 18.660156 14.707031 19.117188 14.125 19.328125 C 13.882812 19.417969 13.542969 19.601562 13.375 19.742188 C 12.914062 20.121094 11.09375 20.101562 10.628906 19.710938 Z M 10.628906 19.710938 "/>
<path style=" stroke:none;fill-rule:nonzero;fill:rgb(54.117647%,2.745098%,22.352941%);fill-opacity:1;" d="M 10.628906 19.710938 C 10.429688 19.546875 10.289062 19.292969 10.289062 19.101562 C 10.289062 18.757812 9.890625 18.226562 9.632812 18.226562 C 9.539062 18.226562 9.515625 18.0625 9.5625 17.765625 C 9.648438 17.199219 9.265625 16.460938 8.886719 16.460938 C 8.523438 16.460938 8.523438 15.785156 8.890625 15.683594 C 9.109375 15.621094 9.03125 15.519531 8.394531 15.03125 C 7.695312 14.488281 7.632812 14.398438 7.574219 13.8125 C 7.53125 13.414062 7.390625 13.042969 7.203125 12.8125 C 6.789062 12.320312 6.546875 11.832031 6.65625 11.726562 C 6.703125 11.675781 6.769531 11.710938 6.800781 11.804688 C 6.835938 11.898438 7.027344 11.976562 7.234375 11.976562 C 7.6875 11.976562 7.742188 11.628906 7.3125 11.421875 C 7.121094 11.328125 6.96875 11.082031 6.878906 10.710938 C 6.800781 10.398438 6.695312 10.003906 6.644531 9.835938 C 6.550781 9.523438 6.550781 9.523438 6.984375 9.753906 C 7.882812 10.234375 7.859375 10.230469 7.859375 9.953125 C 7.859375 9.808594 7.679688 9.527344 7.453125 9.328125 C 7.054688 8.96875 7.054688 8.960938 7.265625 8.582031 C 7.382812 8.371094 7.476562 8.078125 7.476562 7.929688 C 7.476562 7.582031 7.816406 6.722656 8 6.601562 C 8.078125 6.550781 8.375 6.585938 8.652344 6.6875 C 9.203125 6.878906 9.4375 6.800781 9.734375 6.328125 C 9.875 6.101562 9.867188 5.992188 9.707031 5.664062 C 9.4375 5.109375 9.554688 4.914062 10.152344 4.914062 C 10.59375 4.914062 10.71875 4.984375 11.074219 5.453125 C 11.621094 6.179688 11.992188 6.179688 12.65625 5.453125 C 13.207031 4.859375 13.554688 4.765625 13.679688 5.183594 C 13.726562 5.335938 13.902344 5.632812 14.074219 5.851562 C 14.25 6.070312 14.371094 6.382812 14.351562 6.554688 C 14.3125 6.953125 14.882812 7.28125 15.574219 7.253906 C 16.242188 7.226562 16.394531 7.585938 16.1875 8.710938 C 16.015625 9.632812 16.0625 9.808594 16.429688 9.707031 C 16.703125 9.632812 16.804688 9.980469 16.558594 10.140625 C 16.339844 10.289062 16.421875 10.882812 16.714844 11.304688 C 16.996094 11.710938 16.996094 11.714844 16.753906 12.191406 C 16.523438 12.648438 16.523438 12.6875 16.734375 13.074219 C 17.007812 13.558594 16.914062 14.21875 16.546875 14.429688 C 16.367188 14.53125 16.304688 14.714844 16.304688 15.15625 C 16.304688 15.492188 16.226562 15.8125 16.128906 15.902344 C 16.03125 15.984375 15.914062 16.351562 15.871094 16.710938 C 15.8125 17.164062 15.695312 17.453125 15.46875 17.65625 C 15.296875 17.820312 15.152344 18.09375 15.152344 18.269531 C 15.152344 18.664062 14.710938 19.117188 14.125 19.332031 C 13.882812 19.421875 13.546875 19.605469 13.375 19.742188 C 12.914062 20.125 11.097656 20.101562 10.628906 19.710938 Z M 11.441406 19.117188 C 11.441406 19.085938 11.382812 19.019531 11.3125 18.972656 C 11.242188 18.929688 11.1875 18.953125 11.1875 19.03125 C 11.1875 19.109375 11.242188 19.179688 11.3125 19.179688 C 11.382812 19.179688 11.441406 19.148438 11.441406 19.117188 Z M 12.550781 17.894531 C 12.507812 17.777344 12.414062 17.679688 12.335938 17.679688 C 12.117188 17.679688 12.03125 18.109375 12.222656 18.234375 C 12.449219 18.382812 12.648438 18.171875 12.550781 17.894531 Z M 11.378906 17.539062 C 11.378906 17.152344 11.003906 17.015625 10.882812 17.351562 C 10.789062 17.613281 11.023438 17.988281 11.238281 17.914062 C 11.3125 17.886719 11.378906 17.71875 11.378906 17.539062 Z M 14 17.214844 C 14 16.976562 13.789062 16.820312 13.625 16.929688 C 13.453125 17.042969 13.605469 17.410156 13.820312 17.410156 C 13.921875 17.410156 14 17.320312 14 17.214844 Z M 12.59375 16.195312 C 12.59375 15.921875 12.296875 15.601562 12.164062 15.734375 C 12.03125 15.875 12.070312 16.253906 12.230469 16.429688 C 12.417969 16.625 12.59375 16.515625 12.59375 16.195312 Z M 11.058594 15.984375 C 11.058594 15.875 10.972656 15.78125 10.867188 15.78125 C 10.761719 15.78125 10.671875 15.875 10.671875 15.984375 C 10.671875 16.09375 10.761719 16.1875 10.867188 16.1875 C 10.972656 16.1875 11.058594 16.09375 11.058594 15.984375 Z M 14.351562 15.609375 C 14.273438 15.351562 13.742188 15.3125 13.742188 15.566406 C 13.742188 15.703125 13.859375 15.78125 14.074219 15.78125 C 14.28125 15.78125 14.382812 15.71875 14.351562 15.609375 Z M 15.664062 15.382812 C 15.664062 15.21875 15.414062 15.046875 15.320312 15.148438 C 15.230469 15.242188 15.390625 15.507812 15.542969 15.507812 C 15.609375 15.507812 15.664062 15.453125 15.664062 15.382812 Z M 10.519531 14.339844 C 10.542969 14.171875 10.414062 13.960938 10.164062 13.765625 C 9.515625 13.253906 9.257812 13.742188 9.84375 14.371094 C 10.207031 14.75 10.460938 14.742188 10.519531 14.339844 Z M 12.742188 14.367188 C 12.816406 14.417969 12.929688 14.375 12.988281 14.269531 C 13.148438 14 13.132812 13.878906 12.921875 13.878906 C 12.816406 13.878906 12.679688 13.78125 12.617188 13.664062 C 12.550781 13.53125 12.382812 13.464844 12.195312 13.492188 C 11.773438 13.554688 11.753906 14.195312 12.171875 14.261719 C 12.367188 14.289062 12.429688 14.375 12.382812 14.53125 C 12.328125 14.730469 12.335938 14.730469 12.460938 14.523438 C 12.542969 14.390625 12.671875 14.320312 12.742188 14.367188 Z M 8.625 13.945312 C 8.625 13.730469 8.179688 13.664062 8.0625 13.859375 C 7.96875 14.023438 8.117188 14.148438 8.394531 14.148438 C 8.523438 14.148438 8.628906 14.058594 8.628906 13.945312 Z M 14.710938 14.007812 C 14.753906 13.929688 14.722656 13.683594 14.636719 13.460938 C 14.523438 13.179688 14.390625 13.0625 14.175781 13.0625 C 13.8125 13.0625 13.796875 13.179688 14.09375 13.730469 C 14.324219 14.15625 14.558594 14.265625 14.710938 14.007812 Z M 16.386719 13.394531 C 16.488281 13.117188 16.285156 12.90625 16.058594 13.054688 C 15.867188 13.183594 15.953125 13.609375 16.171875 13.609375 C 16.25 13.609375 16.34375 13.511719 16.386719 13.394531 Z M 11.140625 12.214844 C 11.09375 12.046875 11.0625 11.742188 11.0625 11.535156 C 11.058594 11.117188 10.960938 11.078125 10.613281 11.347656 C 10.382812 11.523438 10.382812 11.554688 10.59375 12.023438 C 10.84375 12.578125 11.265625 12.726562 11.140625 12.214844 Z M 9.492188 11.878906 C 9.539062 11.726562 8.84375 11.296875 8.542969 11.296875 C 8.449219 11.296875 8.371094 11.417969 8.371094 11.5625 C 8.371094 11.75 8.5 11.875 8.789062 11.960938 C 9.265625 12.105469 9.421875 12.085938 9.492188 11.878906 Z M 13.328125 11.890625 C 13.710938 11.78125 13.6875 11.582031 13.234375 11.109375 C 12.917969 10.78125 12.820312 10.742188 12.660156 10.886719 C 12.429688 11.089844 12.421875 11.164062 12.589844 11.628906 C 12.71875 11.988281 12.835938 12.03125 13.328125 11.890625 Z M 15.175781 11.59375 C 15.25 11.0625 15.171875 10.890625 14.867188 10.890625 C 14.664062 10.890625 14.625 10.953125 14.6875 11.195312 C 14.726562 11.363281 14.765625 11.609375 14.765625 11.738281 C 14.769531 12.132812 15.117188 12.007812 15.175781 11.59375 Z M 9.4375 9.835938 C 9.617188 9.132812 9.640625 8.859375 9.515625 8.78125 C 9.316406 8.648438 9.011719 8.980469 9.011719 9.332031 C 9.011719 9.976562 9.3125 10.332031 9.4375 9.835938 Z M 11.007812 9.835938 C 11.085938 9.78125 11.179688 9.539062 11.226562 9.300781 C 11.289062 8.941406 11.257812 8.851562 11.039062 8.777344 C 10.660156 8.648438 10.5 8.890625 10.601562 9.453125 C 10.6875 9.945312 10.757812 10.015625 11.007812 9.835938 Z M 13.617188 9.527344 C 13.617188 9.449219 13.539062 9.351562 13.4375 9.3125 C 13.339844 9.273438 13.226562 9.125 13.195312 8.976562 C 13.097656 8.585938 12.71875 8.648438 12.71875 9.054688 C 12.71875 9.328125 12.785156 9.398438 13.039062 9.398438 C 13.21875 9.398438 13.359375 9.457031 13.359375 9.53125 C 13.359375 9.605469 13.417969 9.667969 13.488281 9.667969 C 13.558594 9.667969 13.617188 9.601562 13.617188 9.527344 Z M 14.960938 9.132812 C 14.914062 8.976562 14.792969 8.851562 14.6875 8.851562 C 14.570312 8.851562 14.53125 8.917969 14.585938 9.023438 C 14.890625 9.578125 15.117188 9.648438 14.960938 9.132812 Z M 8.375 7.601562 C 8.375 7.285156 8.335938 7.210938 8.234375 7.316406 C 8.15625 7.398438 8.128906 7.59375 8.175781 7.75 C 8.296875 8.160156 8.375 8.101562 8.375 7.601562 Z M 12.1875 7.40625 C 12.128906 7.078125 11.71875 7 11.613281 7.296875 C 11.558594 7.445312 11.617188 7.601562 11.765625 7.71875 C 12.042969 7.929688 12.257812 7.777344 12.1875 7.40625 Z M 14.128906 7.5 C 14.128906 7.226562 13.796875 7.023438 13.679688 7.226562 C 13.578125 7.402344 13.859375 7.925781 14.007812 7.828125 C 14.074219 7.785156 14.128906 7.636719 14.128906 7.5 Z M 10.265625 7.601562 C 10.492188 7.359375 10.453125 7.257812 10.078125 7.160156 C 9.695312 7.058594 9.453125 7.242188 9.566406 7.554688 C 9.65625 7.804688 10.046875 7.832031 10.265625 7.601562 Z M 10.265625 7.601562 "/>
<path style=" stroke:none;fill-rule:nonzero;fill:rgb(43.137255%,2.745098%,18.039216%);fill-opacity:1;" d="M 10.628906 19.710938 C 10.429688 19.546875 10.289062 19.292969 10.289062 19.101562 C 10.289062 18.769531 9.890625 18.226562 9.652344 18.226562 C 9.582031 18.226562 9.523438 18.101562 9.523438 17.953125 C 9.523438 17.757812 9.609375 17.679688 9.84375 17.679688 C 10.101562 17.679688 10.164062 17.617188 10.164062 17.339844 C 10.164062 17.046875 10.121094 17.007812 9.84375 17.082031 C 9.585938 17.148438 9.5 17.101562 9.375 16.800781 C 9.238281 16.484375 9.25 16.414062 9.433594 16.304688 C 9.554688 16.234375 9.652344 16.085938 9.652344 15.976562 C 9.652344 15.671875 9.234375 15.234375 8.9375 15.234375 C 8.578125 15.234375 7.605469 14.480469 7.605469 14.203125 C 7.605469 14.023438 7.640625 14.015625 7.789062 14.140625 C 7.890625 14.234375 8.132812 14.285156 8.332031 14.261719 C 8.621094 14.226562 8.695312 14.148438 8.695312 13.878906 C 8.695312 13.5625 8.65625 13.539062 8.148438 13.582031 C 7.679688 13.617188 7.589844 13.582031 7.492188 13.304688 C 7.429688 13.125 7.285156 12.90625 7.171875 12.804688 C 6.933594 12.59375 6.554688 11.824219 6.640625 11.730469 C 6.675781 11.695312 6.742188 11.765625 6.785156 11.890625 C 6.828125 12.011719 6.929688 12.109375 7.003906 12.109375 C 7.078125 12.109375 7.273438 12.242188 7.429688 12.398438 C 7.765625 12.734375 8.117188 12.65625 8.117188 12.246094 C 8.117188 11.898438 7.570312 11.296875 7.257812 11.296875 C 7.03125 11.296875 6.984375 11.1875 6.65625 9.804688 C 6.578125 9.480469 6.582031 9.476562 6.71875 9.753906 C 6.90625 10.132812 7.820312 10.578125 8 10.382812 C 8.078125 10.308594 8.117188 10.039062 8.09375 9.789062 C 8.058594 9.390625 7.996094 9.320312 7.570312 9.214844 C 7.007812 9.074219 6.984375 8.929688 7.414062 8.375 C 7.71875 7.988281 7.742188 7.980469 7.914062 8.21875 C 8.015625 8.355469 8.203125 8.445312 8.328125 8.421875 C 8.511719 8.382812 8.574219 8.226562 8.601562 7.726562 C 8.640625 7.09375 8.636719 7.085938 8.257812 7.085938 C 7.804688 7.085938 7.664062 6.910156 7.929688 6.671875 C 8.085938 6.53125 8.226562 6.535156 8.644531 6.683594 C 9.203125 6.878906 9.4375 6.804688 9.734375 6.328125 C 9.875 6.101562 9.867188 5.992188 9.707031 5.664062 C 9.4375 5.109375 9.554688 4.914062 10.15625 4.914062 C 10.59375 4.914062 10.71875 4.984375 11.074219 5.453125 C 11.621094 6.179688 11.992188 6.179688 12.65625 5.453125 C 13.207031 4.859375 13.554688 4.765625 13.679688 5.183594 C 13.726562 5.335938 13.902344 5.632812 14.074219 5.851562 C 14.25 6.070312 14.371094 6.382812 14.351562 6.5625 C 14.328125 6.808594 14.414062 6.925781 14.742188 7.078125 C 15.007812 7.203125 15.1875 7.398438 15.230469 7.621094 C 15.359375 8.253906 15.40625 8.328125 15.632812 8.28125 C 15.789062 8.25 15.855469 8.105469 15.855469 7.804688 C 15.855469 7.25 15.988281 7.125 16.179688 7.496094 C 16.34375 7.824219 16.25 8.867188 16.015625 9.257812 C 15.9375 9.390625 15.921875 9.65625 15.976562 9.882812 L 16.070312 10.277344 L 16.316406 9.953125 C 16.601562 9.578125 16.820312 9.679688 16.585938 10.078125 C 16.359375 10.46875 16.398438 10.851562 16.714844 11.304688 C 16.996094 11.710938 16.996094 11.714844 16.753906 12.191406 C 16.523438 12.648438 16.523438 12.6875 16.734375 13.074219 C 17.007812 13.558594 16.914062 14.21875 16.546875 14.429688 C 16.367188 14.53125 16.304688 14.714844 16.304688 15.15625 C 16.304688 15.492188 16.226562 15.8125 16.128906 15.902344 C 16.03125 15.984375 15.914062 16.351562 15.871094 16.710938 C 15.8125 17.164062 15.695312 17.453125 15.46875 17.65625 C 15.296875 17.820312 15.152344 18.09375 15.152344 18.269531 C 15.152344 18.664062 14.710938 19.117188 14.125 19.332031 C 13.882812 19.421875 13.546875 19.605469 13.375 19.742188 C 12.914062 20.121094 11.09375 20.101562 10.628906 19.710938 Z M 11.695312 19.125 C 11.695312 18.929688 11.257812 18.738281 11.132812 18.875 C 10.945312 19.070312 11.085938 19.3125 11.378906 19.3125 C 11.5625 19.3125 11.695312 19.234375 11.695312 19.125 Z M 13.105469 19.0625 C 13.105469 18.886719 12.953125 18.769531 12.828125 18.851562 C 12.695312 18.9375 12.8125 19.175781 12.984375 19.175781 C 13.050781 19.175781 13.105469 19.125 13.105469 19.0625 Z M 14.59375 18.5625 C 14.636719 18.445312 14.640625 18.316406 14.601562 18.277344 C 14.492188 18.15625 13.984375 18.5 14.070312 18.640625 C 14.1875 18.84375 14.511719 18.789062 14.59375 18.558594 Z M 12.765625 18.15625 C 12.851562 17.921875 12.542969 17.648438 12.257812 17.703125 C 11.953125 17.765625 11.90625 18.015625 12.144531 18.273438 C 12.363281 18.503906 12.664062 18.449219 12.765625 18.15625 Z M 11.492188 17.742188 C 11.601562 17.4375 11.4375 17.140625 11.167969 17.140625 C 10.855469 17.140625 10.742188 17.445312 10.921875 17.804688 C 11.070312 18.097656 11.375 18.0625 11.492188 17.742188 Z M 14.128906 17.269531 C 14.128906 16.949219 13.789062 16.765625 13.59375 16.976562 C 13.390625 17.1875 13.566406 17.546875 13.867188 17.546875 C 14.046875 17.546875 14.128906 17.457031 14.128906 17.269531 Z M 15.476562 17.125 C 15.601562 16.921875 15.335938 16.679688 15.101562 16.773438 C 14.984375 16.820312 14.929688 16.945312 14.976562 17.066406 C 15.0625 17.304688 15.351562 17.34375 15.476562 17.125 Z M 12.835938 16.617188 L 13.097656 16.226562 L 12.792969 15.921875 C 12.203125 15.335938 11.679688 15.929688 12.140625 16.671875 C 12.402344 17.097656 12.519531 17.085938 12.835938 16.617188 Z M 11.1875 15.96875 C 11.1875 15.710938 11.117188 15.644531 10.867188 15.644531 C 10.523438 15.644531 10.421875 16 10.691406 16.285156 C 10.90625 16.515625 11.1875 16.335938 11.1875 15.96875 Z M 14.4375 15.96875 C 14.742188 15.84375 14.683594 15.382812 14.351562 15.25 C 13.992188 15.105469 13.617188 15.296875 13.617188 15.625 C 13.617188 16.039062 13.9375 16.171875 14.4375 15.96875 Z M 15.855469 15.382812 C 15.855469 15.09375 15.445312 14.867188 15.265625 15.0625 C 15.148438 15.1875 15.148438 15.273438 15.28125 15.4375 C 15.476562 15.691406 15.855469 15.65625 15.855469 15.382812 Z M 13.0625 14.785156 C 13.203125 14.632812 13.320312 13.890625 13.226562 13.734375 C 13.164062 13.617188 12.867188 13.546875 12.445312 13.546875 C 11.828125 13.539062 11.761719 13.566406 11.648438 13.910156 C 11.542969 14.222656 11.570312 14.335938 11.835938 14.632812 C 12.085938 14.921875 12.226562 14.976562 12.578125 14.914062 C 12.8125 14.875 13.03125 14.8125 13.0625 14.785156 Z M 10.859375 14.375 C 10.976562 14.023438 10.945312 13.953125 10.546875 13.597656 C 10.015625 13.132812 9.890625 13.117188 9.601562 13.453125 C 9.445312 13.636719 9.410156 13.820312 9.472656 14.101562 C 9.609375 14.699219 9.773438 14.847656 10.28125 14.804688 C 10.648438 14.769531 10.757812 14.6875 10.859375 14.375 Z M 15.015625 13.929688 C 15.335938 13.492188 15.355469 13.199219 15.0625 13.199219 C 14.945312 13.199219 14.65625 13.125 14.425781 13.035156 C 13.804688 12.796875 13.648438 13.015625 13.945312 13.730469 C 14.226562 14.398438 14.613281 14.46875 15.015625 13.929688 Z M 16.410156 13.476562 C 16.464844 13.085938 16.234375 12.808594 16.03125 13.023438 C 15.847656 13.21875 16 13.914062 16.210938 13.84375 C 16.296875 13.8125 16.386719 13.648438 16.410156 13.476562 Z M 11.625 12.703125 C 11.667969 12.582031 11.617188 12.339844 11.507812 12.164062 C 11.402344 11.992188 11.3125 11.667969 11.3125 11.445312 C 11.3125 10.898438 11.101562 10.796875 10.730469 11.171875 C 10.398438 11.5 10.34375 11.882812 10.539062 12.429688 C 10.710938 12.910156 11.480469 13.101562 11.625 12.703125 Z M 13.40625 12.238281 C 13.824219 11.890625 13.855469 11.308594 13.476562 10.945312 C 12.933594 10.421875 12.921875 10.21875 13.417969 10 C 13.667969 9.890625 13.875 9.722656 13.875 9.632812 C 13.871094 9.398438 13.132812 8.578125 12.921875 8.578125 C 12.824219 8.578125 12.613281 8.808594 12.445312 9.085938 C 12.039062 9.785156 12.035156 9.804688 12.242188 9.804688 C 12.34375 9.804688 12.523438 9.917969 12.644531 10.058594 C 12.851562 10.304688 12.84375 10.339844 12.472656 10.789062 C 11.960938 11.410156 11.96875 11.824219 12.5 12.203125 C 13.015625 12.578125 13 12.578125 13.40625 12.238281 Z M 9.675781 12.039062 C 9.867188 11.59375 9.703125 11.421875 9.015625 11.335938 C 8.492188 11.269531 8.117188 11.445312 8.117188 11.757812 C 8.117188 11.90625 8.992188 12.328125 9.367188 12.367188 C 9.457031 12.375 9.59375 12.226562 9.679688 12.039062 Z M 15.253906 12.085938 C 15.53125 11.789062 15.441406 11.054688 15.09375 10.8125 C 14.632812 10.492188 14.472656 10.671875 14.578125 11.414062 C 14.625 11.761719 14.691406 12.089844 14.726562 12.148438 C 14.8125 12.296875 15.082031 12.265625 15.253906 12.085938 Z M 9.671875 9.585938 C 9.78125 8.5 9.648438 8.3125 9.140625 8.851562 C 8.832031 9.179688 8.8125 9.765625 9.085938 10.1875 C 9.398438 10.65625 9.578125 10.472656 9.671875 9.585938 Z M 11.023438 10.066406 C 11.3125 9.960938 11.4375 9.8125 11.492188 9.507812 C 11.621094 8.824219 11.589844 8.742188 11.164062 8.640625 C 10.644531 8.523438 10.421875 8.816406 10.421875 9.625 C 10.421875 10.257812 10.445312 10.28125 11.023438 10.066406 Z M 15.25 9.78125 C 15.359375 9.664062 15.34375 9.523438 15.191406 9.203125 C 14.941406 8.6875 14.761719 8.554688 14.554688 8.734375 C 14.453125 8.824219 14.4375 8.96875 14.507812 9.164062 C 14.570312 9.328125 14.648438 9.570312 14.6875 9.699219 C 14.769531 9.972656 15.03125 10.007812 15.25 9.78125 Z M 12.390625 8.09375 C 12.6875 7.78125 12.636719 7.394531 12.261719 7.132812 C 11.632812 6.695312 11.179688 7.382812 11.710938 7.980469 C 12.050781 8.367188 12.125 8.378906 12.390625 8.09375 Z M 14.183594 7.910156 C 14.476562 7.566406 14.394531 7.164062 14.015625 7.109375 C 13.601562 7.046875 13.472656 7.226562 13.570312 7.738281 C 13.660156 8.234375 13.859375 8.289062 14.183594 7.910156 Z M 10.492188 7.757812 C 10.789062 7.40625 10.632812 7.078125 10.097656 6.929688 C 9.46875 6.75 9.171875 7.273438 9.609375 7.789062 C 9.886719 8.113281 10.195312 8.101562 10.492188 7.757812 Z M 8.628906 16.265625 C 8.628906 16.15625 8.679688 16.035156 8.742188 15.992188 C 8.882812 15.898438 9.171875 16.25 9.054688 16.371094 C 8.902344 16.53125 8.628906 16.460938 8.628906 16.265625 Z M 8.628906 16.265625 "/>
<path style=" stroke:none;fill-rule:nonzero;fill:rgb(33.333333%,2.352941%,14.117647%);fill-opacity:1;" d="M 10.628906 19.710938 C 10.425781 19.539062 10.289062 19.296875 10.289062 19.09375 C 10.289062 18.90625 10.148438 18.617188 9.96875 18.441406 C 9.585938 18.0625 9.5625 17.90625 9.90625 18.023438 C 10.105469 18.089844 10.195312 18.023438 10.296875 17.730469 C 10.492188 17.1875 10.351562 16.707031 10 16.738281 C 9.53125 16.777344 9.507812 16.75 9.71875 16.320312 C 9.90625 15.929688 9.90625 15.882812 9.625 15.511719 C 9.445312 15.273438 9.203125 15.113281 9.011719 15.109375 C 8.625 15.09375 8.09375 14.820312 8.023438 14.601562 C 7.992188 14.503906 8.140625 14.421875 8.398438 14.398438 C 8.789062 14.359375 8.820312 14.316406 8.820312 13.878906 L 8.820312 13.402344 L 8.21875 13.445312 C 7.703125 13.476562 7.597656 13.4375 7.46875 13.171875 C 7.382812 13 7.234375 12.8125 7.140625 12.75 C 6.941406 12.625 6.90625 12.25 7.089844 12.25 C 7.15625 12.25 7.273438 12.371094 7.351562 12.519531 C 7.425781 12.671875 7.589844 12.789062 7.71875 12.789062 C 7.84375 12.789062 8.054688 12.671875 8.179688 12.519531 C 8.472656 12.179688 8.65625 12.179688 8.949219 12.519531 C 9.289062 12.917969 9.488281 12.855469 9.769531 12.265625 C 9.992188 11.808594 10 11.710938 9.84375 11.472656 C 9.632812 11.148438 8.558594 10.941406 8.296875 11.171875 C 8.195312 11.257812 7.90625 11.28125 7.546875 11.222656 C 7.011719 11.136719 6.964844 11.101562 6.964844 10.738281 C 6.964844 10.289062 7.046875 10.257812 7.445312 10.554688 C 7.671875 10.722656 7.785156 10.734375 8.003906 10.609375 C 8.25 10.46875 8.273438 10.375 8.210938 9.644531 C 8.144531 8.886719 8.160156 8.824219 8.445312 8.6875 C 8.722656 8.554688 8.757812 8.449219 8.757812 7.742188 C 8.757812 7.039062 8.785156 6.949219 9.011719 6.949219 C 9.195312 6.949219 9.265625 7.039062 9.265625 7.269531 C 9.265625 7.660156 9.808594 8.308594 10.132812 8.308594 C 10.265625 8.308594 10.5 8.125 10.65625 7.898438 C 11.007812 7.390625 10.875 7.039062 10.234375 6.816406 C 9.835938 6.679688 9.789062 6.609375 9.804688 6.199219 C 9.8125 5.945312 9.75 5.648438 9.65625 5.53125 C 9.382812 5.179688 9.59375 4.914062 10.15625 4.914062 C 10.59375 4.914062 10.71875 4.984375 11.074219 5.453125 C 11.621094 6.179688 11.992188 6.179688 12.65625 5.453125 C 13.207031 4.859375 13.554688 4.765625 13.679688 5.183594 C 13.726562 5.335938 13.898438 5.625 14.0625 5.835938 C 14.46875 6.351562 14.4375 6.949219 14 6.953125 C 13.4375 6.953125 13.332031 7.117188 13.429688 7.8125 C 13.496094 8.28125 13.578125 8.445312 13.734375 8.445312 C 14.011719 8.445312 14.640625 7.757812 14.640625 7.453125 C 14.640625 7.328125 14.695312 7.21875 14.765625 7.21875 C 14.835938 7.21875 14.898438 7.304688 14.898438 7.40625 C 14.898438 7.507812 14.984375 7.78125 15.097656 8.015625 C 15.3125 8.46875 15.734375 8.589844 16.023438 8.28125 C 16.289062 8 16.207031 8.78125 15.933594 9.140625 C 15.730469 9.40625 15.664062 9.429688 15.492188 9.277344 C 15.382812 9.179688 15.257812 8.988281 15.21875 8.851562 C 15.121094 8.53125 14.8125 8.410156 14.515625 8.578125 C 14.246094 8.734375 14.238281 9.53125 14.5 10.046875 C 14.617188 10.289062 14.605469 10.414062 14.429688 10.695312 C 14.253906 10.984375 14.242188 11.101562 14.359375 11.308594 C 14.445312 11.449219 14.511719 11.695312 14.511719 11.847656 C 14.511719 12.003906 14.570312 12.25 14.644531 12.394531 C 14.773438 12.652344 14.785156 12.648438 15.148438 12.363281 C 15.355469 12.203125 15.554688 11.992188 15.585938 11.890625 C 15.691406 11.601562 15.386719 10.84375 15.054688 10.566406 C 14.734375 10.296875 14.78125 10.164062 15.238281 10.015625 C 15.445312 9.949219 15.535156 9.992188 15.59375 10.195312 C 15.640625 10.34375 15.804688 10.484375 15.957031 10.507812 C 16.351562 10.566406 16.398438 11.101562 16.046875 11.5 C 15.773438 11.8125 15.773438 11.820312 16.015625 11.960938 C 16.320312 12.132812 16.429688 12.039062 16.429688 11.617188 C 16.429688 11.398438 16.484375 11.328125 16.625 11.382812 C 17.050781 11.554688 16.695312 12.527344 16.054688 12.941406 C 15.726562 13.152344 15.679688 13.246094 15.78125 13.449219 C 15.851562 13.585938 15.875 13.828125 15.835938 13.992188 C 15.78125 14.21875 15.820312 14.285156 16.011719 14.285156 C 16.273438 14.285156 16.558594 13.789062 16.558594 13.328125 C 16.558594 13.179688 16.617188 13.0625 16.6875 13.0625 C 16.757812 13.0625 16.8125 13.335938 16.8125 13.664062 C 16.8125 14.148438 16.765625 14.285156 16.558594 14.351562 C 16.417969 14.398438 16.304688 14.511719 16.300781 14.601562 C 16.300781 14.6875 16.25 14.84375 16.1875 14.953125 C 16.09375 15.109375 16.007812 15.085938 15.710938 14.835938 L 15.347656 14.539062 L 15.070312 14.90625 C 14.828125 15.226562 14.75 15.257812 14.429688 15.136719 C 13.976562 14.96875 13.539062 15.128906 13.429688 15.5 C 13.328125 15.839844 13.070312 15.859375 12.78125 15.550781 C 12.550781 15.304688 12.539062 15.328125 13.148438 14.898438 C 13.253906 14.820312 13.378906 14.503906 13.425781 14.1875 C 13.507812 13.632812 13.5 13.613281 13.054688 13.414062 C 12.539062 13.1875 11.710938 13.265625 11.503906 13.566406 C 11.394531 13.726562 11.304688 13.722656 10.914062 13.546875 C 10.65625 13.4375 10.414062 13.25 10.375 13.132812 C 10.277344 12.863281 9.914062 12.867188 9.539062 13.148438 C 9.273438 13.34375 9.25 13.445312 9.316406 13.984375 C 9.359375 14.320312 9.460938 14.679688 9.539062 14.78125 C 9.734375 15.03125 10.730469 15.015625 10.929688 14.761719 C 11.148438 14.480469 11.289062 14.503906 11.773438 14.898438 C 12.1875 15.234375 12.195312 15.25 11.992188 15.617188 C 11.726562 16.105469 11.859375 16.9375 12.226562 17.148438 C 12.449219 17.273438 12.558594 17.234375 12.894531 16.914062 C 13.117188 16.703125 13.367188 16.4375 13.460938 16.328125 C 13.585938 16.175781 13.652344 16.171875 13.773438 16.300781 C 13.898438 16.433594 13.875 16.484375 13.648438 16.546875 C 13.421875 16.609375 13.359375 16.726562 13.359375 17.082031 C 13.359375 17.609375 13.65625 17.847656 14.097656 17.671875 C 14.433594 17.535156 14.46875 17.1875 14.1875 16.761719 C 14.078125 16.59375 14.042969 16.460938 14.109375 16.460938 C 14.179688 16.460938 14.414062 16.269531 14.632812 16.039062 C 15.003906 15.644531 15.0625 15.625 15.414062 15.78125 C 15.710938 15.914062 15.835938 15.914062 15.976562 15.785156 C 16.109375 15.671875 16.09375 15.773438 15.921875 16.15625 C 15.710938 16.617188 15.632812 16.679688 15.3125 16.628906 C 15.085938 16.59375 14.882812 16.648438 14.78125 16.78125 C 14.648438 16.957031 14.671875 17.046875 14.941406 17.335938 C 15.207031 17.617188 15.25 17.765625 15.195312 18.15625 C 15.109375 18.699219 14.898438 18.804688 14.898438 18.300781 C 14.898438 17.804688 14.691406 17.765625 14.195312 18.167969 C 13.835938 18.453125 13.773438 18.570312 13.890625 18.71875 C 13.96875 18.820312 14.203125 18.90625 14.40625 18.90625 C 14.890625 18.90625 14.769531 19.109375 14.160156 19.320312 C 13.898438 19.414062 13.546875 19.601562 13.375 19.742188 C 12.914062 20.121094 11.101562 20.101562 10.628906 19.710938 Z M 11.820312 19.25 C 11.90625 19.140625 11.945312 18.996094 11.902344 18.929688 C 11.78125 18.714844 11.199219 18.664062 10.96875 18.84375 C 10.78125 18.984375 10.773438 19.046875 10.921875 19.230469 C 11.132812 19.5 11.617188 19.515625 11.820312 19.25 Z M 13.320312 19.089844 C 13.367188 18.957031 13.3125 18.796875 13.1875 18.703125 C 13.070312 18.609375 12.976562 18.40625 12.976562 18.242188 C 12.976562 17.941406 12.5625 17.410156 12.328125 17.410156 C 12.253906 17.410156 12.085938 17.46875 11.960938 17.542969 C 11.765625 17.652344 11.710938 17.617188 11.648438 17.355469 C 11.546875 16.929688 11.207031 16.804688 10.914062 17.089844 C 10.609375 17.378906 10.613281 17.570312 10.917969 17.972656 C 11.148438 18.277344 11.171875 18.28125 11.40625 18.054688 C 11.703125 17.773438 11.828125 17.757812 11.828125 18 C 11.828125 18.101562 11.96875 18.363281 12.148438 18.578125 C 12.328125 18.796875 12.53125 19.050781 12.601562 19.144531 C 12.789062 19.386719 13.226562 19.351562 13.320312 19.089844 Z M 11.289062 16.109375 C 11.34375 15.511719 11.039062 15.265625 10.609375 15.5625 C 10.234375 15.828125 10.210938 16.007812 10.507812 16.351562 C 10.835938 16.742188 11.242188 16.617188 11.289062 16.109375 Z M 15.015625 14.289062 C 15.21875 14.175781 15.535156 13.507812 15.535156 13.203125 C 15.535156 13.023438 14.882812 12.789062 14.386719 12.789062 C 14.105469 12.789062 13.804688 12.882812 13.6875 13.007812 C 13.503906 13.203125 13.507812 13.257812 13.710938 13.652344 C 13.832031 13.890625 13.984375 14.15625 14.046875 14.25 C 14.179688 14.453125 14.691406 14.476562 15.015625 14.289062 Z M 11.777344 12.789062 C 11.996094 12.207031 12.132812 12.144531 12.523438 12.457031 C 12.65625 12.566406 12.867188 12.65625 12.984375 12.65625 C 13.359375 12.65625 13.859375 12.121094 13.945312 11.621094 C 14.015625 11.226562 13.984375 11.109375 13.757812 10.941406 C 13.390625 10.667969 13.417969 10.347656 13.835938 9.996094 C 14.164062 9.71875 14.171875 9.6875 13.976562 9.378906 C 13.5625 8.726562 13.222656 8.445312 12.84375 8.445312 C 12.5625 8.445312 12.464844 8.507812 12.464844 8.6875 C 12.464844 9.308594 11.855469 9.445312 11.742188 8.851562 C 11.671875 8.46875 11.632812 8.445312 11.058594 8.445312 C 10.480469 8.445312 10.445312 8.464844 10.371094 8.867188 C 10.214844 9.695312 10.273438 10.445312 10.507812 10.539062 C 10.636719 10.59375 10.765625 10.546875 10.832031 10.421875 C 10.964844 10.167969 11.398438 10.140625 11.476562 10.382812 C 11.515625 10.492188 11.617188 10.4375 11.78125 10.226562 C 12 9.949219 12.074219 9.925781 12.3125 10.0625 C 12.683594 10.273438 12.671875 10.335938 12.136719 10.957031 C 11.769531 11.382812 11.65625 11.449219 11.5625 11.289062 C 11.5 11.179688 11.445312 11.015625 11.445312 10.921875 C 11.4375 10.609375 10.851562 10.75 10.492188 11.148438 C 10.191406 11.484375 10.148438 11.613281 10.226562 12 C 10.351562 12.617188 10.523438 12.929688 10.726562 12.929688 C 10.820312 12.929688 10.96875 13.019531 11.058594 13.132812 C 11.328125 13.472656 11.5625 13.359375 11.777344 12.789062 Z M 9.75 10.445312 C 9.882812 10.273438 9.925781 9.304688 9.824219 8.734375 C 9.777344 8.46875 9.714844 8.429688 9.421875 8.507812 C 8.960938 8.625 8.757812 8.9375 8.757812 9.527344 C 8.757812 10.359375 9.375 10.9375 9.75 10.445312 Z M 12.65625 8.042969 C 12.925781 7.484375 12.90625 7.390625 12.433594 7.085938 C 11.875 6.722656 11.609375 6.742188 11.398438 7.171875 C 11.242188 7.496094 11.25 7.578125 11.492188 7.984375 C 11.851562 8.585938 12.375 8.617188 12.65625 8.042969 Z M 15.46875 17.410156 C 15.515625 17.335938 15.578125 17.273438 15.605469 17.273438 C 15.636719 17.273438 15.664062 17.335938 15.664062 17.410156 C 15.664062 17.484375 15.601562 17.546875 15.527344 17.546875 C 15.453125 17.546875 15.429688 17.484375 15.46875 17.410156 Z M 7.316406 9.03125 C 7.015625 8.945312 7.035156 8.773438 7.371094 8.523438 C 7.667969 8.304688 7.988281 8.4375 7.988281 8.785156 C 7.988281 8.921875 7.65625 9.175781 7.5625 9.109375 C 7.550781 9.101562 7.4375 9.0625 7.316406 9.03125 Z M 8.21875 6.71875 C 8.3125 6.679688 8.421875 6.6875 8.464844 6.730469 C 8.507812 6.777344 8.429688 6.808594 8.296875 6.804688 C 8.148438 6.796875 8.117188 6.765625 8.21875 6.71875 Z M 8.21875 6.71875 "/>
<path style=" stroke:none;fill-rule:nonzero;fill:rgb(16.862745%,10.588235%,9.411765%);fill-opacity:1;" d="M 10.628906 19.710938 C 10.445312 19.554688 10.289062 19.296875 10.289062 19.132812 C 10.289062 18.96875 10.234375 18.75 10.171875 18.640625 C 10.085938 18.5 10.128906 18.386719 10.3125 18.25 C 10.640625 18.003906 10.820312 18.234375 10.71875 18.773438 C 10.59375 19.421875 11.476562 19.976562 11.933594 19.535156 C 12.109375 19.367188 12.3125 19.335938 12.820312 19.402344 C 13.363281 19.46875 13.5 19.445312 13.5625 19.265625 C 13.617188 19.117188 13.796875 19.039062 14.085938 19.039062 C 14.585938 19.039062 14.5625 19.234375 14.042969 19.375 C 13.855469 19.421875 13.558594 19.585938 13.382812 19.726562 C 12.914062 20.121094 11.105469 20.109375 10.628906 19.710938 Z M 13.675781 14.6875 C 13.554688 14.476562 13.71875 14.34375 13.886719 14.515625 C 13.976562 14.617188 13.980469 14.691406 13.890625 14.75 C 13.820312 14.796875 13.726562 14.765625 13.675781 14.6875 Z M 8.859375 14.601562 C 8.953125 14.5625 9.0625 14.566406 9.105469 14.609375 C 9.148438 14.65625 9.070312 14.6875 8.9375 14.683594 C 8.789062 14.675781 8.757812 14.644531 8.859375 14.601562 Z M 7.539062 13.195312 C 7.4375 13.023438 7.796875 12.871094 7.996094 13 C 8.101562 13.070312 8.09375 13.128906 7.96875 13.214844 C 7.742188 13.367188 7.636719 13.363281 7.539062 13.195312 Z M 12.082031 12.929688 C 12.082031 12.851562 12.140625 12.789062 12.210938 12.789062 C 12.28125 12.789062 12.335938 12.851562 12.335938 12.929688 C 12.335938 13 12.28125 13.0625 12.210938 13.0625 C 12.140625 13.0625 12.082031 13 12.082031 12.929688 Z M 8.371094 12.789062 C 8.371094 12.71875 8.460938 12.65625 8.570312 12.65625 C 8.679688 12.65625 8.734375 12.71875 8.691406 12.789062 C 8.648438 12.867188 8.558594 12.929688 8.492188 12.929688 C 8.425781 12.929688 8.371094 12.867188 8.371094 12.789062 Z M 15.46875 12.65625 C 15.269531 12.3125 15.785156 12.117188 16.171875 12.386719 C 16.34375 12.507812 16.34375 12.535156 16.171875 12.65625 C 15.925781 12.828125 15.570312 12.828125 15.46875 12.65625 Z M 13.742188 12.539062 C 13.742188 12.46875 13.835938 12.335938 13.945312 12.242188 C 14.109375 12.09375 14.164062 12.09375 14.257812 12.25 C 14.316406 12.351562 14.335938 12.488281 14.304688 12.546875 C 14.21875 12.695312 13.742188 12.6875 13.742188 12.539062 Z M 15.691406 11 C 15.773438 10.75 16.046875 10.707031 16.046875 10.945312 C 16.046875 11.0625 15.953125 11.160156 15.84375 11.160156 C 15.734375 11.160156 15.664062 11.085938 15.691406 11 Z M 6.964844 10.8125 C 6.964844 10.570312 7.242188 10.609375 7.320312 10.863281 C 7.347656 10.953125 7.28125 11.023438 7.167969 11.023438 C 7.054688 11.023438 6.964844 10.929688 6.964844 10.8125 Z M 13.898438 10.457031 C 13.980469 10.203125 14.257812 10.164062 14.257812 10.402344 C 14.257812 10.523438 14.164062 10.617188 14.054688 10.617188 C 13.941406 10.617188 13.875 10.546875 13.898438 10.457031 Z M 9.140625 8.171875 C 9.140625 8.097656 9.195312 8.039062 9.265625 8.039062 C 9.335938 8.039062 9.394531 8.097656 9.394531 8.171875 C 9.394531 8.246094 9.335938 8.308594 9.265625 8.308594 C 9.195312 8.308594 9.140625 8.246094 9.140625 8.171875 Z M 12.921875 8.195312 C 12.882812 8.117188 12.90625 8.015625 12.984375 7.964844 C 13.179688 7.835938 13.304688 8.011719 13.140625 8.1875 C 13.050781 8.28125 12.976562 8.289062 12.921875 8.195312 Z M 10.578125 6.824219 C 10.023438 6.492188 9.769531 6.257812 9.835938 6.140625 C 9.867188 6.089844 9.804688 5.871094 9.703125 5.65625 C 9.4375 5.109375 9.554688 4.914062 10.152344 4.914062 C 10.59375 4.914062 10.71875 4.984375 11.070312 5.453125 C 11.617188 6.179688 11.992188 6.179688 12.65625 5.453125 C 13.25 4.808594 13.53125 4.773438 13.742188 5.308594 C 13.824219 5.527344 14.003906 5.8125 14.140625 5.941406 C 14.640625 6.421875 14.3125 6.878906 13.367188 7.015625 C 12.882812 7.085938 12.664062 7.054688 12.441406 6.890625 C 12.078125 6.621094 11.648438 6.617188 11.441406 6.882812 C 11.242188 7.140625 11.09375 7.128906 10.578125 6.824219 Z M 10.578125 6.824219 "/>
</g>
</svg>
