
<svg xmlns="http://www.w3.org/2000/svg" xmlns:xlink="http://www.w3.org/1999/xlink" width="24px" height="24px" viewBox="0 0 24 24" version="1.1">
<defs>
<clipPath id="clip1">
  <path d="M 6.5 6 L 18 6 L 18 18 L 6.5 18 Z M 6.5 6 "/>
</clipPath>
<clipPath id="clip2">
  <path d="M 4.054688 1.835938 L 20.582031 1.835938 C 21.542969 1.835938 22.320312 2.648438 22.320312 3.65625 L 22.320312 20.953125 C 22.320312 21.957031 21.542969 22.773438 20.582031 22.773438 L 4.054688 22.773438 C 3.09375 22.773438 2.3125 21.957031 2.3125 20.953125 L 2.3125 3.65625 C 2.3125 2.648438 3.09375 1.835938 4.054688 1.835938 Z M 4.054688 1.835938 "/>
</clipPath>
</defs>
<g id="surface1">
<path style=" stroke:none;fill-rule:nonzero;fill:rgb(11.764706%,56.470588%,100%);fill-opacity:1;" d="M 4.945312 21.65625 C 22.992188 33.65625 34.101562 -4.601562 10.78125 0.464844 C 1.140625 2.625 -4.710938 16.15625 4.945312 21.65625 Z M 4.945312 21.65625 "/>
<g clip-path="url(#clip1)" clip-rule="nonzero">
<g clip-path="url(#clip2)" clip-rule="nonzero">
<path style=" stroke:none;fill-rule:nonzero;fill:rgb(100%,100%,94.117647%);fill-opacity:1;" d="M 12.847656 6.40625 C 12.625 6.375 12.34375 6.335938 11.988281 6.292969 C 10.664062 6.125 10.664062 6.125 10.347656 6.164062 C 9.695312 6.257812 8.976562 6.621094 8.5 7.0625 C 7.976562 7.550781 7.558594 8.128906 7.453125 8.878906 C 7.40625 9.234375 7.109375 11.382812 6.921875 12.730469 C 6.589844 15.648438 8.09375 16.707031 9.410156 16.960938 C 9.695312 17 13.289062 17.5 13.71875 17.558594 C 15.386719 17.648438 16.9375 16.226562 17.136719 15.070312 L 17.359375 13.460938 C 17.550781 12.125 17.617188 11.664062 17.492188 11.460938 C 17.367188 11.25 17.265625 11.148438 16.808594 11.085938 C 16.363281 11.023438 16.203125 11.023438 16.070312 10.882812 C 15.90625 10.714844 15.875 10.578125 15.902344 10.15625 C 16.007812 8.648438 15.289062 7.328125 14.023438 6.710938 C 13.710938 6.5625 13.523438 6.5 12.847656 6.398438 M 10.792969 8.882812 L 12.6875 9.148438 C 13.070312 9.199219 13.335938 9.5625 13.28125 9.960938 C 13.226562 10.363281 12.882812 10.550781 12.5 10.5 L 10.605469 10.234375 C 10.226562 10.183594 9.945312 9.910156 10.003906 9.507812 C 10.058594 9.109375 10.410156 8.828125 10.792969 8.882812 M 10.234375 12.941406 L 14.023438 13.46875 C 14.40625 13.519531 14.683594 13.796875 14.625 14.191406 C 14.570312 14.59375 14.21875 14.875 13.835938 14.820312 L 10.046875 14.296875 C 9.664062 14.242188 9.398438 13.878906 9.453125 13.476562 C 9.507812 13.078125 9.847656 12.890625 10.234375 12.941406 "/>
</g>
</g>
</g>
</svg>
