
<svg xmlns="http://www.w3.org/2000/svg" xmlns:xlink="http://www.w3.org/1999/xlink" width="24px" height="24px" viewBox="0 0 24 24" version="1.1">
<g id="surface1">
<path style=" stroke:none;fill-rule:nonzero;fill:rgb(72.941176%,72.941176%,96.862745%);fill-opacity:1;" d="M 22.054688 18.984375 C 29.859375 7.820312 12.28125 -6.164062 3.09375 2.921875 C -5.574219 11.492188 5.628906 27.476562 16.398438 23.320312 C 18.652344 22.453125 20.625 21.023438 22.054688 18.984375 Z M 22.054688 18.984375 "/>
<path style=" stroke:none;fill-rule:nonzero;fill:rgb(71.372549%,34.901961%,74.509804%);fill-opacity:1;" d="M 7.925781 18.257812 C 7.925781 18.234375 7.804688 18.199219 7.660156 18.1875 C 7.414062 18.164062 7.382812 18.144531 7.09375 17.8125 C 6.722656 17.398438 6.777344 17.453125 6.398438 17.0625 C 6.117188 16.777344 6.085938 16.722656 6.085938 16.53125 C 6.085938 16.195312 6.054688 16.144531 5.835938 16.144531 L 5.640625 16.144531 L 5.640625 14.742188 L 5.765625 14.742188 C 5.929688 14.742188 6.085938 14.648438 6.085938 14.558594 C 6.085938 14.40625 6.3125 14.253906 6.527344 14.253906 C 6.796875 14.253906 6.894531 14.3125 7.023438 14.554688 C 7.117188 14.726562 7.148438 14.742188 7.28125 14.710938 C 7.484375 14.664062 7.617188 14.722656 7.703125 14.90625 C 7.742188 14.992188 7.804688 15.0625 7.832031 15.0625 C 7.863281 15.0625 7.976562 14.96875 8.078125 14.847656 C 8.234375 14.671875 8.273438 14.585938 8.289062 14.378906 C 8.3125 14.128906 8.359375 14.054688 8.601562 13.898438 C 8.679688 13.847656 8.632812 13.78125 8.21875 13.34375 C 7.789062 12.890625 7.324219 12.382812 7.09375 12.117188 C 7.039062 12.0625 6.960938 11.984375 6.910156 11.953125 C 6.847656 11.914062 6.8125 11.8125 6.796875 11.617188 C 6.773438 11.34375 6.777344 11.328125 6.96875 11.132812 C 7.074219 11.023438 7.203125 10.863281 7.246094 10.78125 C 7.363281 10.578125 7.5 10.59375 7.726562 10.851562 C 7.890625 11.03125 7.953125 11.070312 8.085938 11.054688 C 8.363281 11.023438 8.34375 10.988281 7.625 10.246094 C 7.5 10.117188 7.351562 9.96875 7.289062 9.917969 C 7.203125 9.84375 7.179688 9.765625 7.179688 9.550781 C 7.179688 9.289062 7.171875 9.273438 7.003906 9.195312 C 6.839844 9.125 6.828125 9.101562 6.84375 8.917969 C 6.851562 8.773438 6.890625 8.703125 6.96875 8.65625 C 7.03125 8.625 7.132812 8.515625 7.195312 8.414062 C 7.359375 8.144531 7.554688 8.132812 7.75 8.382812 L 7.898438 8.570312 L 8.40625 8.589844 C 9.054688 8.609375 9.128906 8.554688 8.816406 8.273438 C 8.695312 8.164062 8.445312 7.90625 8.257812 7.703125 C 7.945312 7.363281 7.925781 7.320312 7.925781 7.101562 C 7.925781 6.90625 7.90625 6.851562 7.828125 6.824219 C 7.667969 6.769531 7.578125 6.640625 7.578125 6.46875 C 7.578125 6.34375 7.617188 6.28125 7.75 6.195312 C 7.84375 6.132812 7.953125 6.023438 7.984375 5.941406 C 8.03125 5.835938 8.09375 5.792969 8.210938 5.78125 C 8.347656 5.765625 8.386719 5.789062 8.460938 5.929688 C 8.507812 6.019531 8.574219 6.105469 8.609375 6.117188 C 8.640625 6.132812 9.148438 6.148438 9.738281 6.152344 L 10.804688 6.15625 L 11.429688 5.476562 C 11.945312 4.914062 12.046875 4.773438 12.046875 4.636719 L 12.046875 4.476562 L 12.984375 4.476562 L 13 4.671875 C 13.015625 4.816406 13.054688 4.894531 13.140625 4.957031 C 13.210938 5.003906 13.367188 5.15625 13.492188 5.304688 C 13.613281 5.445312 13.835938 5.695312 13.984375 5.855469 L 14.257812 6.148438 L 15.035156 6.148438 L 15.328125 6.484375 C 15.664062 6.875 15.660156 6.875 16.023438 7.25 C 16.171875 7.40625 16.335938 7.59375 16.382812 7.679688 C 16.433594 7.757812 16.492188 7.824219 16.515625 7.824219 C 16.539062 7.824219 16.6875 7.960938 16.851562 8.132812 L 17.136719 8.4375 L 17.128906 8.859375 C 17.121094 9.226562 17.132812 9.300781 17.21875 9.378906 C 17.535156 9.679688 17.515625 9.632812 17.507812 10.105469 C 17.5 10.484375 17.507812 10.554688 17.585938 10.601562 C 17.640625 10.632812 17.734375 10.714844 17.796875 10.78125 C 17.90625 10.894531 17.910156 10.929688 17.910156 11.765625 L 17.910156 12.636719 L 17.773438 12.769531 C 17.699219 12.84375 17.585938 12.957031 17.523438 13.023438 C 16.722656 13.871094 16.75 13.839844 16.84375 13.898438 C 17.109375 14.070312 17.140625 14.128906 17.136719 14.417969 C 17.132812 14.683594 17.117188 14.714844 16.917969 14.898438 C 16.726562 15.078125 16.707031 15.117188 16.738281 15.257812 C 16.757812 15.34375 16.855469 15.492188 16.957031 15.585938 C 17.140625 15.753906 17.140625 15.757812 17.128906 16.152344 C 17.113281 16.710938 17.125 16.738281 17.40625 16.738281 C 17.6875 16.742188 17.671875 16.726562 18.050781 17.1875 C 18.347656 17.546875 18.359375 17.570312 18.359375 17.855469 C 18.359375 18.039062 18.332031 18.179688 18.289062 18.226562 C 18.226562 18.292969 17.460938 18.304688 13.070312 18.304688 C 10.15625 18.304688 7.925781 18.285156 7.925781 18.257812 Z M 15.640625 17.898438 C 15.867188 17.78125 16.125 17.570312 16.21875 17.421875 C 16.261719 17.351562 16.335938 17.230469 16.386719 17.15625 C 16.46875 17.03125 16.472656 16.949219 16.441406 16.449219 L 16.40625 15.882812 L 16.09375 15.539062 C 15.917969 15.351562 15.75 15.117188 15.71875 15.023438 L 15.667969 14.847656 L 14.539062 14.835938 C 12.949219 14.820312 13.125 14.78125 12.71875 15.222656 C 12.527344 15.429688 12.320312 15.648438 12.257812 15.710938 C 12.164062 15.804688 12.148438 15.859375 12.171875 16 C 12.195312 16.09375 12.222656 16.1875 12.242188 16.210938 C 12.257812 16.234375 12.539062 16.289062 12.867188 16.335938 C 13.523438 16.429688 13.5 16.421875 13.769531 16.6875 C 14.246094 17.167969 14.433594 17.429688 14.433594 17.625 C 14.433594 17.90625 14.5625 17.980469 15.066406 17.980469 C 15.328125 17.980469 15.539062 17.953125 15.640625 17.898438 Z M 13.375 17.835938 C 13.523438 17.824219 13.636719 17.796875 13.632812 17.773438 C 13.632812 17.753906 13.507812 17.671875 13.351562 17.59375 C 13.132812 17.484375 12.960938 17.441406 12.609375 17.417969 C 12.359375 17.402344 12.117188 17.402344 12.078125 17.421875 C 11.984375 17.457031 11.972656 17.6875 12.054688 17.742188 C 12.210938 17.851562 12.84375 17.894531 13.375 17.835938 Z M 17.203125 17.773438 C 17.21875 17.726562 17.1875 17.707031 17.085938 17.71875 C 17.011719 17.730469 16.9375 17.769531 16.929688 17.808594 C 16.914062 17.859375 16.945312 17.875 17.046875 17.863281 C 17.121094 17.851562 17.195312 17.8125 17.203125 17.773438 Z M 8.398438 16.25 C 8.398438 15.984375 8.226562 15.960938 8.085938 16.207031 C 7.957031 16.425781 7.984375 16.476562 8.214844 16.457031 C 8.386719 16.441406 8.398438 16.429688 8.398438 16.25 Z M 7.5 15.789062 C 7.578125 15.757812 7.613281 15.445312 7.546875 15.375 C 7.449219 15.265625 7.273438 15.621094 7.351562 15.765625 C 7.390625 15.828125 7.398438 15.828125 7.5 15.789062 Z M 10.414062 14.195312 C 10.554688 14.113281 10.539062 13.882812 10.382812 13.84375 C 10.070312 13.757812 9.882812 13.988281 10.125 14.171875 C 10.25 14.265625 10.285156 14.273438 10.414062 14.195312 Z M 14.953125 14.039062 C 15.070312 13.988281 15.078125 13.960938 15.078125 13.613281 C 15.078125 13.203125 15.054688 13.175781 14.691406 13.171875 C 14.550781 13.171875 14.515625 13.144531 14.453125 12.984375 C 14.382812 12.796875 14.378906 12.796875 14.078125 12.796875 C 13.773438 12.796875 13.769531 12.792969 13.507812 12.507812 L 13.242188 12.21875 L 13.242188 9.25 L 13.507812 8.960938 L 13.777344 8.675781 L 14.101562 8.675781 C 14.378906 8.675781 14.4375 8.660156 14.460938 8.574219 C 14.5 8.4375 14.445312 8.273438 14.355469 8.234375 C 14.3125 8.21875 13.929688 8.21875 13.503906 8.238281 L 12.726562 8.273438 L 12.445312 8.589844 L 12.15625 8.90625 L 12.121094 9.429688 C 12.101562 9.71875 12.101562 10.171875 12.117188 10.433594 C 12.164062 11.136719 12.023438 11.3125 11.726562 10.929688 C 11.585938 10.757812 11.546875 10.738281 11.222656 10.707031 L 10.867188 10.671875 L 10.386719 11.1875 C 9.96875 11.632812 9.902344 11.726562 9.875 11.917969 C 9.839844 12.21875 10.011719 12.414062 10.308594 12.414062 C 10.5625 12.414062 10.613281 12.304688 10.464844 12.089844 C 10.335938 11.898438 10.328125 11.757812 10.445312 11.648438 C 10.585938 11.515625 11.085938 11.226562 11.171875 11.226562 C 11.210938 11.226562 11.398438 11.386719 11.582031 11.578125 C 11.765625 11.773438 11.933594 11.929688 11.957031 11.929688 C 12.042969 11.929688 12.148438 12.265625 12.148438 12.546875 C 12.148438 12.789062 12.164062 12.839844 12.222656 12.8125 C 12.265625 12.796875 12.375 12.847656 12.472656 12.929688 C 12.640625 13.066406 12.679688 13.074219 13.5 13.113281 C 14.484375 13.160156 14.484375 13.160156 14.484375 13.664062 C 14.484375 13.90625 14.503906 13.992188 14.570312 14.03125 C 14.679688 14.101562 14.789062 14.105469 14.953125 14.039062 Z M 16.03125 13.058594 C 16.210938 13.015625 16.335938 12.929688 16.574219 12.679688 C 16.828125 12.410156 16.902344 12.359375 17.003906 12.386719 C 17.210938 12.445312 17.265625 12.34375 17.1875 12.039062 C 17.15625 11.890625 17.136719 11.71875 17.148438 11.660156 C 17.171875 11.570312 17.152344 11.554688 17.023438 11.554688 C 16.859375 11.554688 16.71875 11.429688 16.71875 11.289062 C 16.71875 11.242188 16.707031 10.859375 16.695312 10.445312 C 16.671875 9.75 16.65625 9.671875 16.519531 9.34375 C 16.34375 8.933594 15.828125 8.359375 15.554688 8.257812 C 15.289062 8.164062 15.109375 8.273438 15.085938 8.546875 C 15.070312 8.746094 15.078125 8.753906 15.1875 8.71875 C 15.25 8.695312 15.40625 8.664062 15.539062 8.648438 C 15.761719 8.625 15.777344 8.632812 15.871094 8.804688 C 15.925781 8.90625 16.046875 9.054688 16.148438 9.136719 L 16.320312 9.289062 L 16.320312 12.171875 L 16.03125 12.484375 C 15.75 12.789062 15.734375 12.796875 15.46875 12.796875 C 15.210938 12.796875 15.1875 12.804688 15.164062 12.929688 C 15.15625 13 15.164062 13.082031 15.191406 13.109375 C 15.246094 13.171875 15.691406 13.144531 16.03125 13.058594 Z M 8.460938 12.5625 C 8.472656 12.507812 8.414062 12.398438 8.328125 12.3125 C 8.242188 12.226562 8.171875 12.132812 8.171875 12.101562 C 8.171875 12.039062 8.292969 11.984375 8.445312 11.984375 C 8.710938 11.984375 8.796875 11.871094 8.617188 11.765625 C 8.539062 11.71875 8.445312 11.71875 8.257812 11.765625 C 8.117188 11.800781 7.949219 11.839844 7.890625 11.851562 C 7.726562 11.890625 7.75 12.007812 7.949219 12.207031 C 8.046875 12.304688 8.125 12.421875 8.125 12.46875 C 8.125 12.679688 8.429688 12.765625 8.460938 12.5625 Z M 9.027344 10.382812 C 9.148438 10.265625 9.140625 10.101562 9.015625 9.953125 C 8.867188 9.78125 8.929688 9.714844 9.25 9.714844 L 9.523438 9.714844 L 9.507812 9.484375 L 9.492188 9.257812 L 8.703125 9.265625 C 8.265625 9.269531 7.894531 9.296875 7.867188 9.320312 C 7.6875 9.523438 8.503906 10.460938 8.867188 10.46875 C 8.90625 10.46875 8.976562 10.429688 9.027344 10.382812 Z M 10.234375 8.109375 C 10.304688 8.027344 10.359375 7.945312 10.359375 7.921875 C 10.359375 7.902344 10.191406 7.796875 9.984375 7.691406 C 9.625 7.5 9.464844 7.320312 9.464844 7.101562 C 9.464844 7.046875 9.382812 6.996094 9.253906 6.960938 C 9.140625 6.925781 8.96875 6.875 8.882812 6.84375 C 8.695312 6.78125 8.523438 6.859375 8.523438 7 C 8.523438 7.082031 8.757812 7.359375 9.289062 7.921875 C 9.613281 8.261719 10.03125 8.34375 10.234375 8.109375 Z M 13.53125 6.386719 C 13.542969 6.175781 13.523438 6.144531 13.179688 5.757812 C 12.984375 5.53125 12.78125 5.296875 12.734375 5.238281 C 12.667969 5.152344 12.621094 5.136719 12.53125 5.171875 C 12.367188 5.234375 12.371094 5.398438 12.542969 5.632812 C 12.625 5.75 12.71875 5.9375 12.75 6.0625 C 12.78125 6.183594 12.835938 6.367188 12.875 6.460938 C 12.945312 6.640625 12.945312 6.640625 13.226562 6.625 L 13.515625 6.609375 Z M 13.53125 6.386719 "/>
<path style=" stroke:none;fill-rule:nonzero;fill:rgb(22.745098%,69.019608%,87.843137%);fill-opacity:1;" d="M 7.960938 18.195312 C 7.898438 18.117188 7.8125 18.089844 7.660156 18.089844 C 7.460938 18.089844 7.421875 18.0625 7.171875 17.785156 C 6.84375 17.40625 6.765625 17.320312 6.414062 16.960938 C 6.152344 16.6875 6.136719 16.65625 6.136719 16.40625 C 6.136719 16.117188 6.0625 16.035156 5.792969 16.035156 L 5.640625 16.035156 L 5.640625 14.792969 L 5.839844 14.792969 C 6.015625 14.792969 6.054688 14.773438 6.148438 14.601562 C 6.34375 14.242188 6.679688 14.234375 6.9375 14.585938 C 7.078125 14.777344 7.109375 14.792969 7.335938 14.792969 C 7.570312 14.792969 7.585938 14.804688 7.65625 14.984375 C 7.695312 15.085938 7.765625 15.171875 7.808594 15.171875 C 7.851562 15.171875 7.992188 15.046875 8.117188 14.898438 C 8.304688 14.671875 8.351562 14.574219 8.375 14.371094 C 8.390625 14.171875 8.421875 14.109375 8.519531 14.054688 C 8.703125 13.953125 8.773438 13.828125 8.71875 13.703125 C 8.6875 13.648438 8.640625 13.605469 8.601562 13.605469 C 8.570312 13.605469 8.472656 13.523438 8.390625 13.429688 C 8.308594 13.332031 8.199219 13.210938 8.148438 13.164062 C 8.09375 13.117188 8 13.015625 7.9375 12.949219 C 7.878906 12.878906 7.792969 12.78125 7.75 12.734375 C 7.703125 12.683594 7.609375 12.585938 7.542969 12.507812 C 7.476562 12.433594 7.394531 12.34375 7.359375 12.3125 C 6.882812 11.796875 6.882812 11.792969 6.882812 11.539062 C 6.882812 11.320312 6.902344 11.273438 7.03125 11.171875 C 7.113281 11.109375 7.214844 10.984375 7.257812 10.898438 C 7.359375 10.6875 7.507812 10.695312 7.703125 10.929688 C 7.835938 11.085938 7.898438 11.117188 8.066406 11.117188 C 8.375 11.117188 8.414062 10.984375 8.183594 10.734375 C 8.082031 10.625 7.96875 10.503906 7.933594 10.460938 C 7.796875 10.3125 7.445312 9.953125 7.335938 9.863281 C 7.25 9.789062 7.230469 9.710938 7.230469 9.5 C 7.230469 9.25 7.21875 9.21875 7.09375 9.171875 C 6.84375 9.066406 6.804688 8.84375 7.023438 8.71875 C 7.101562 8.671875 7.214844 8.554688 7.273438 8.445312 C 7.40625 8.195312 7.546875 8.195312 7.683594 8.445312 C 7.8125 8.679688 7.871094 8.695312 8.523438 8.679688 C 9.023438 8.664062 9.042969 8.65625 9.058594 8.539062 C 9.070312 8.445312 9.015625 8.355469 8.835938 8.1875 C 8.703125 8.0625 8.457031 7.804688 8.285156 7.621094 C 8 7.308594 7.976562 7.265625 7.976562 7.046875 C 7.976562 6.832031 7.957031 6.796875 7.800781 6.695312 C 7.578125 6.554688 7.574219 6.398438 7.78125 6.261719 C 7.867188 6.203125 7.976562 6.085938 8.03125 5.992188 C 8.15625 5.765625 8.296875 5.773438 8.429688 6.015625 L 8.53125 6.203125 L 9.484375 6.203125 C 10.007812 6.203125 10.515625 6.21875 10.617188 6.238281 C 10.789062 6.265625 10.820312 6.25 11.027344 6.023438 C 11.148438 5.882812 11.273438 5.773438 11.300781 5.773438 C 11.328125 5.773438 11.351562 5.734375 11.351562 5.695312 C 11.351562 5.648438 11.429688 5.554688 11.515625 5.476562 C 11.609375 5.402344 11.710938 5.28125 11.746094 5.210938 C 11.78125 5.140625 11.882812 5.046875 11.976562 4.996094 C 12.128906 4.917969 12.148438 4.882812 12.148438 4.691406 L 12.148438 4.476562 L 12.945312 4.476562 L 12.945312 4.714844 C 12.945312 4.910156 12.960938 4.960938 13.046875 4.992188 C 13.1875 5.039062 13.667969 5.5625 13.710938 5.710938 C 13.726562 5.773438 13.765625 5.828125 13.789062 5.828125 C 13.8125 5.828125 13.933594 5.921875 14.054688 6.039062 L 14.28125 6.25 L 14.628906 6.21875 C 14.960938 6.1875 14.980469 6.195312 15.089844 6.335938 C 15.152344 6.414062 15.320312 6.609375 15.460938 6.761719 C 15.609375 6.914062 15.859375 7.1875 16.019531 7.367188 C 16.179688 7.542969 16.367188 7.746094 16.429688 7.8125 C 16.492188 7.882812 16.566406 7.964844 16.59375 7.992188 C 16.742188 8.15625 16.890625 8.308594 16.972656 8.382812 C 17.046875 8.457031 17.066406 8.546875 17.066406 8.898438 C 17.066406 9.320312 17.070312 9.328125 17.25 9.515625 C 17.429688 9.710938 17.429688 9.710938 17.421875 10.132812 L 17.410156 10.554688 L 17.617188 10.742188 L 17.820312 10.929688 L 17.816406 11.757812 L 17.816406 12.585938 L 17.242188 13.195312 C 16.625 13.851562 16.625 13.851562 16.929688 14.054688 C 17.046875 14.136719 17.066406 14.179688 17.066406 14.414062 C 17.066406 14.667969 17.054688 14.691406 16.867188 14.828125 C 16.6875 14.957031 16.667969 14.992188 16.667969 15.203125 C 16.667969 15.332031 16.695312 15.460938 16.730469 15.492188 C 16.765625 15.523438 16.855469 15.601562 16.929688 15.664062 C 17.058594 15.765625 17.066406 15.796875 17.066406 16.21875 C 17.066406 16.710938 17.101562 16.789062 17.335938 16.792969 C 17.578125 16.796875 17.695312 16.84375 17.757812 16.976562 C 17.792969 17.042969 17.886719 17.140625 17.96875 17.195312 C 18.046875 17.246094 18.136719 17.347656 18.164062 17.421875 C 18.1875 17.492188 18.242188 17.566406 18.28125 17.582031 C 18.414062 17.636719 18.378906 18.007812 18.234375 18.167969 L 18.105469 18.304688 L 13.078125 18.304688 C 8.109375 18.304688 8.046875 18.304688 7.960938 18.195312 Z M 15.992188 17.875 C 16.226562 17.757812 16.242188 17.757812 16.382812 17.84375 C 16.570312 17.960938 16.976562 18 17.53125 17.945312 L 17.96875 17.898438 L 17.671875 17.671875 C 17.328125 17.410156 17.21875 17.394531 16.820312 17.546875 C 16.347656 17.726562 16.289062 17.6875 16.472656 17.3125 C 16.566406 17.125 16.570312 17.050781 16.539062 16.464844 L 16.507812 15.824219 L 16.3125 15.636719 C 16.210938 15.53125 16.125 15.429688 16.125 15.398438 C 16.125 15.375 16.070312 15.320312 16 15.28125 C 15.933594 15.242188 15.867188 15.140625 15.847656 15.0625 C 15.828125 14.96875 15.777344 14.898438 15.710938 14.882812 C 15.648438 14.867188 15.03125 14.847656 14.335938 14.84375 L 13.078125 14.832031 L 12.726562 15.21875 C 12.53125 15.429688 12.320312 15.648438 12.257812 15.710938 C 12.164062 15.800781 12.15625 15.855469 12.179688 16.054688 C 12.195312 16.195312 12.1875 16.335938 12.152344 16.40625 C 12.09375 16.519531 12.101562 16.523438 12.40625 16.53125 C 12.578125 16.53125 12.882812 16.542969 13.085938 16.554688 L 13.460938 16.570312 L 13.722656 16.855469 C 13.867188 17.011719 13.984375 17.171875 13.984375 17.207031 C 13.984375 17.242188 14.046875 17.304688 14.125 17.34375 C 14.226562 17.398438 14.265625 17.460938 14.273438 17.601562 C 14.308594 17.980469 14.4375 18.039062 15.179688 18.015625 C 15.640625 18 15.796875 17.972656 15.992188 17.875 Z M 13.851562 17.90625 C 13.953125 17.859375 14.035156 17.804688 14.035156 17.773438 C 14.035156 17.65625 13.796875 17.359375 13.6875 17.34375 C 13.621094 17.328125 13.476562 17.253906 13.367188 17.171875 C 13.164062 17.023438 12.742188 16.898438 12.421875 16.898438 C 12.171875 16.898438 11.90625 17.007812 11.730469 17.171875 C 11.566406 17.328125 11.4375 17.363281 11.21875 17.296875 C 11.140625 17.277344 11.105469 17.226562 11.105469 17.140625 C 11.105469 17.007812 11.101562 17.007812 10.882812 17.1875 C 10.640625 17.375 10.582031 17.511719 10.625 17.78125 L 10.65625 17.953125 L 12.164062 17.972656 C 13.433594 17.988281 13.699219 17.976562 13.851562 17.90625 Z M 8.414062 16.34375 C 8.460938 16.0625 8.296875 15.820312 8.054688 15.820312 C 7.867188 15.820312 7.742188 15.695312 7.683594 15.460938 C 7.65625 15.347656 7.609375 15.304688 7.515625 15.289062 C 7.335938 15.265625 7.257812 15.4375 7.296875 15.757812 C 7.34375 16.09375 7.4375 16.234375 7.65625 16.277344 C 7.761719 16.296875 7.890625 16.351562 7.945312 16.390625 C 8.089844 16.503906 8.390625 16.46875 8.414062 16.34375 Z M 10.335938 15.828125 C 10.804688 15.375 11.109375 14.996094 11.074219 14.90625 C 11.054688 14.859375 11.03125 14.605469 11.03125 14.34375 L 11.019531 13.867188 L 10.816406 13.640625 C 10.703125 13.515625 10.578125 13.375 10.53125 13.320312 C 10.488281 13.269531 10.414062 13.226562 10.367188 13.226562 C 10.3125 13.226562 10.320312 13.25 10.40625 13.296875 C 10.703125 13.460938 10.53125 13.585938 9.980469 13.617188 L 9.640625 13.632812 L 9.644531 13.359375 L 9.652344 13.085938 L 9.328125 13.023438 C 9.117188 12.984375 8.964844 12.921875 8.882812 12.835938 C 8.742188 12.699219 8.554688 12.273438 8.597656 12.195312 C 8.640625 12.125 8.789062 12.132812 8.859375 12.210938 C 8.910156 12.265625 8.929688 12.265625 8.96875 12.199219 C 9.050781 12.0625 9.023438 11.828125 8.914062 11.707031 C 8.820312 11.601562 8.765625 11.59375 8.378906 11.617188 C 7.960938 11.640625 7.679688 11.578125 7.601562 11.445312 C 7.535156 11.328125 7.429688 11.390625 7.429688 11.550781 C 7.429688 11.71875 7.679688 12.128906 7.902344 12.320312 C 7.96875 12.375 8.050781 12.484375 8.085938 12.5625 C 8.117188 12.640625 8.21875 12.730469 8.300781 12.765625 C 8.53125 12.851562 8.703125 13.023438 8.820312 13.289062 C 8.921875 13.507812 8.957031 13.539062 9.234375 13.636719 C 9.507812 13.730469 9.539062 13.757812 9.578125 13.921875 C 9.664062 14.296875 9.949219 14.664062 10.214844 14.742188 C 10.445312 14.808594 10.539062 14.769531 10.636719 14.570312 C 10.738281 14.359375 10.875 14.382812 10.898438 14.617188 C 10.910156 14.757812 10.875 14.835938 10.6875 15.046875 C 10.484375 15.277344 10.4375 15.304688 10.25 15.296875 C 10.132812 15.296875 9.941406 15.277344 9.828125 15.253906 C 9.601562 15.210938 9.585938 15.226562 9.664062 15.390625 C 9.703125 15.460938 9.769531 15.496094 9.886719 15.496094 C 10.085938 15.496094 10.1875 15.640625 10.140625 15.851562 C 10.109375 15.976562 10.101562 15.984375 9.75 15.945312 C 9.554688 15.929688 9.34375 15.890625 9.289062 15.859375 C 9.195312 15.808594 9.195312 15.8125 9.28125 15.90625 C 9.371094 16.007812 9.84375 16.097656 10.039062 16.046875 C 10.09375 16.03125 10.226562 15.9375 10.335938 15.828125 Z M 10.691406 13.859375 C 10.734375 13.625 10.742188 13.617188 10.867188 13.757812 C 10.988281 13.886719 10.945312 13.988281 10.757812 14.019531 C 10.671875 14.03125 10.664062 14.015625 10.691406 13.859375 Z M 8.921875 15.210938 C 8.898438 14.949219 8.894531 14.945312 8.878906 15.136719 C 8.867188 15.320312 8.890625 15.496094 8.929688 15.496094 C 8.9375 15.496094 8.933594 15.367188 8.921875 15.210938 Z M 9.515625 15.140625 C 9.515625 15.054688 9.402344 14.902344 9.339844 14.902344 C 9.25 14.902344 9.242188 15.015625 9.328125 15.109375 C 9.386719 15.171875 9.515625 15.195312 9.515625 15.140625 Z M 15.066406 13.945312 C 15.101562 13.898438 15.128906 13.742188 15.128906 13.609375 C 15.132812 13.234375 15.15625 13.214844 15.683594 13.171875 L 16.148438 13.132812 L 16.515625 12.742188 C 16.816406 12.421875 16.898438 12.359375 16.996094 12.382812 C 17.0625 12.40625 17.160156 12.386719 17.214844 12.351562 C 17.296875 12.296875 17.3125 12.226562 17.3125 11.949219 C 17.3125 11.589844 17.285156 11.554688 17.015625 11.554688 C 16.859375 11.554688 16.71875 11.429688 16.714844 11.289062 C 16.710938 11.242188 16.710938 11.078125 16.71875 10.925781 C 16.722656 10.773438 16.699219 10.347656 16.667969 9.980469 C 16.605469 9.234375 16.652344 9.332031 16.039062 8.65625 C 15.683594 8.265625 15.453125 8.15625 15.242188 8.265625 C 15.085938 8.347656 15.054688 8.453125 15.101562 8.734375 C 15.132812 8.90625 15.140625 8.917969 15.191406 8.820312 C 15.269531 8.664062 15.328125 8.636719 15.5625 8.632812 C 15.75 8.632812 15.789062 8.65625 15.875 8.8125 C 15.929688 8.90625 16.046875 9.054688 16.148438 9.136719 L 16.320312 9.289062 L 16.320312 12.171875 L 16.03125 12.484375 C 15.765625 12.769531 15.726562 12.796875 15.519531 12.796875 C 15.398438 12.796875 15.273438 12.765625 15.242188 12.734375 C 15.203125 12.695312 15.183594 12.734375 15.171875 12.875 C 15.15625 12.984375 15.167969 13.085938 15.191406 13.101562 C 15.210938 13.117188 15.207031 13.164062 15.175781 13.203125 C 15.140625 13.246094 15.09375 13.265625 15.070312 13.246094 C 15.039062 13.226562 14.90625 13.199219 14.765625 13.179688 C 14.515625 13.148438 14.507812 13.140625 14.425781 12.902344 C 14.375 12.769531 14.335938 12.6875 14.335938 12.726562 C 14.335938 12.773438 14.242188 12.796875 14.054688 12.796875 C 13.78125 12.796875 13.765625 12.789062 13.507812 12.507812 L 13.242188 12.21875 L 13.242188 9.25 L 13.507812 8.960938 L 13.777344 8.675781 L 14.101562 8.675781 C 14.378906 8.675781 14.4375 8.660156 14.460938 8.574219 C 14.5 8.4375 14.445312 8.273438 14.355469 8.234375 C 14.3125 8.21875 13.929688 8.21875 13.503906 8.238281 L 12.726562 8.273438 L 12.445312 8.589844 L 12.15625 8.90625 L 12.121094 9.429688 C 12.101562 9.71875 12.101562 10.171875 12.117188 10.433594 C 12.164062 11.136719 12.023438 11.3125 11.726562 10.929688 C 11.585938 10.757812 11.546875 10.738281 11.222656 10.707031 L 10.867188 10.671875 L 10.386719 11.1875 C 9.96875 11.632812 9.902344 11.726562 9.875 11.917969 C 9.855469 12.105469 9.867188 12.15625 9.980469 12.28125 C 10.257812 12.582031 10.929688 12.351562 10.898438 11.96875 C 10.882812 11.835938 10.902344 11.792969 10.972656 11.777344 C 11.109375 11.75 11.1875 11.851562 11.105469 11.957031 C 11.046875 12.03125 11.078125 12.078125 11.308594 12.3125 C 11.453125 12.460938 11.640625 12.609375 11.710938 12.640625 C 11.789062 12.671875 11.851562 12.726562 11.851562 12.757812 C 11.851562 12.929688 11.929688 12.964844 12.109375 12.871094 C 12.28125 12.78125 12.292969 12.78125 12.441406 12.898438 C 12.523438 12.964844 12.59375 13.039062 12.59375 13.0625 C 12.59375 13.125 13.023438 13.171875 13.75 13.179688 C 14.09375 13.1875 14.367188 13.210938 14.355469 13.230469 C 14.34375 13.253906 14.355469 13.289062 14.382812 13.304688 C 14.410156 13.328125 14.433594 13.460938 14.433594 13.609375 C 14.433594 13.960938 14.5625 14.117188 14.824219 14.070312 C 14.921875 14.054688 15.03125 14 15.066406 13.945312 Z M 9.066406 10.851562 C 9.09375 10.796875 9.117188 10.605469 9.117188 10.429688 C 9.117188 10.09375 9.15625 10.007812 9.378906 9.859375 C 9.492188 9.78125 9.515625 9.730469 9.515625 9.523438 C 9.515625 9.160156 9.449219 9.136719 8.523438 9.171875 L 7.75 9.203125 L 7.734375 9.460938 C 7.71875 9.703125 7.734375 9.726562 7.964844 9.976562 C 8.097656 10.117188 8.273438 10.277344 8.351562 10.332031 C 8.429688 10.386719 8.59375 10.550781 8.710938 10.695312 C 8.949219 10.984375 8.992188 11.007812 9.066406 10.851562 Z M 7.617188 8.945312 C 7.632812 8.816406 7.617188 8.796875 7.503906 8.796875 C 7.367188 8.796875 7.296875 8.90625 7.347656 9.042969 C 7.398438 9.1875 7.601562 9.117188 7.617188 8.945312 Z M 10.011719 8.257812 C 10.054688 8.257812 10.203125 8.140625 10.347656 8 C 10.570312 7.78125 10.609375 7.703125 10.621094 7.527344 C 10.632812 7.320312 10.632812 7.316406 10.414062 7.273438 C 10.160156 7.226562 10.109375 7.1875 10.210938 7.117188 C 10.332031 7.039062 10.484375 7.0625 10.585938 7.175781 C 10.695312 7.3125 10.71875 7.3125 10.902344 7.144531 C 11.148438 6.921875 11.101562 6.886719 10.621094 6.921875 C 10.246094 6.945312 10.164062 6.9375 10.03125 6.84375 C 9.890625 6.75 9.792969 6.742188 9.183594 6.757812 L 8.496094 6.773438 L 8.480469 7.007812 C 8.46875 7.226562 8.484375 7.265625 8.65625 7.453125 C 8.757812 7.5625 8.875 7.695312 8.917969 7.742188 C 9.132812 7.992188 9.691406 8.320312 9.835938 8.285156 C 9.890625 8.269531 9.96875 8.257812 10.011719 8.257812 Z M 11.933594 6.703125 C 11.984375 6.59375 12.078125 6.46875 12.148438 6.429688 C 12.265625 6.359375 12.289062 6.367188 12.46875 6.492188 C 12.632812 6.617188 12.710938 6.632812 13.066406 6.632812 C 13.40625 6.632812 13.488281 6.617188 13.558594 6.53125 C 13.679688 6.390625 13.617188 6.078125 13.449219 5.929688 C 13.378906 5.871094 13.28125 5.75 13.234375 5.664062 C 13.1875 5.578125 13.101562 5.496094 13.046875 5.476562 C 12.992188 5.457031 12.90625 5.359375 12.851562 5.257812 C 12.765625 5.109375 12.71875 5.070312 12.59375 5.070312 C 12.386719 5.070312 12.265625 5.148438 12.171875 5.339844 C 12.132812 5.429688 12.0625 5.5 12.023438 5.5 C 11.984375 5.5 11.875 5.632812 11.777344 5.789062 C 11.628906 6.03125 11.601562 6.125 11.609375 6.339844 C 11.617188 6.601562 11.59375 6.648438 11.320312 6.835938 C 11.242188 6.890625 11.28125 6.898438 11.535156 6.902344 C 11.839844 6.90625 11.84375 6.90625 11.933594 6.703125 Z M 8.363281 6.484375 C 8.34375 6.316406 8.144531 6.242188 8.09375 6.390625 C 8.046875 6.527344 8.113281 6.632812 8.25 6.632812 C 8.359375 6.632812 8.375 6.617188 8.363281 6.484375 Z M 8.363281 6.484375 "/>
<path style=" stroke:none;fill-rule:nonzero;fill:rgb(85.882353%,64.705882%,28.235294%);fill-opacity:1;" d="M 7.960938 18.195312 C 7.898438 18.117188 7.8125 18.089844 7.660156 18.089844 C 7.460938 18.089844 7.421875 18.0625 7.171875 17.785156 C 6.84375 17.40625 6.765625 17.320312 6.414062 16.960938 C 6.152344 16.6875 6.136719 16.65625 6.136719 16.40625 C 6.136719 16.117188 6.0625 16.035156 5.792969 16.035156 L 5.640625 16.035156 L 5.640625 14.792969 L 5.839844 14.792969 C 6.015625 14.792969 6.054688 14.773438 6.148438 14.601562 C 6.34375 14.242188 6.679688 14.234375 6.9375 14.585938 C 7.078125 14.777344 7.109375 14.792969 7.335938 14.792969 C 7.570312 14.792969 7.585938 14.804688 7.65625 14.984375 C 7.695312 15.085938 7.765625 15.171875 7.808594 15.171875 C 7.851562 15.171875 7.992188 15.046875 8.117188 14.898438 C 8.304688 14.671875 8.351562 14.574219 8.375 14.371094 C 8.390625 14.171875 8.421875 14.109375 8.519531 14.054688 C 8.703125 13.953125 8.773438 13.828125 8.71875 13.703125 C 8.6875 13.648438 8.640625 13.605469 8.601562 13.605469 C 8.570312 13.605469 8.472656 13.523438 8.390625 13.429688 C 8.308594 13.332031 8.199219 13.210938 8.148438 13.164062 C 8.09375 13.117188 8 13.015625 7.9375 12.949219 C 7.878906 12.878906 7.792969 12.78125 7.75 12.734375 C 7.703125 12.683594 7.609375 12.585938 7.542969 12.507812 C 7.476562 12.433594 7.394531 12.34375 7.359375 12.3125 C 6.882812 11.796875 6.882812 11.792969 6.882812 11.539062 C 6.882812 11.320312 6.902344 11.273438 7.03125 11.171875 C 7.113281 11.109375 7.214844 10.984375 7.257812 10.898438 C 7.359375 10.6875 7.507812 10.695312 7.703125 10.929688 C 7.835938 11.085938 7.898438 11.117188 8.066406 11.117188 C 8.375 11.117188 8.414062 10.984375 8.183594 10.734375 C 8.082031 10.625 7.96875 10.503906 7.933594 10.460938 C 7.796875 10.3125 7.445312 9.953125 7.335938 9.863281 C 7.25 9.789062 7.230469 9.710938 7.230469 9.5 C 7.230469 9.25 7.21875 9.21875 7.09375 9.171875 C 6.84375 9.066406 6.804688 8.84375 7.023438 8.71875 C 7.101562 8.671875 7.214844 8.554688 7.273438 8.445312 C 7.40625 8.195312 7.546875 8.195312 7.683594 8.445312 C 7.8125 8.679688 7.871094 8.695312 8.523438 8.679688 C 9.023438 8.664062 9.042969 8.65625 9.058594 8.539062 C 9.070312 8.445312 9.015625 8.355469 8.835938 8.1875 C 8.703125 8.0625 8.457031 7.804688 8.285156 7.621094 C 8 7.308594 7.976562 7.265625 7.976562 7.046875 C 7.976562 6.832031 7.957031 6.796875 7.800781 6.695312 C 7.578125 6.554688 7.574219 6.398438 7.78125 6.261719 C 7.867188 6.203125 7.976562 6.085938 8.03125 5.992188 C 8.15625 5.765625 8.296875 5.773438 8.429688 6.015625 L 8.53125 6.203125 L 9.484375 6.203125 C 10.007812 6.203125 10.515625 6.21875 10.617188 6.238281 C 10.789062 6.265625 10.820312 6.25 11.027344 6.023438 C 11.148438 5.882812 11.273438 5.773438 11.300781 5.773438 C 11.328125 5.773438 11.351562 5.734375 11.351562 5.695312 C 11.351562 5.648438 11.429688 5.554688 11.515625 5.476562 C 11.609375 5.402344 11.710938 5.28125 11.746094 5.210938 C 11.78125 5.140625 11.882812 5.046875 11.976562 4.996094 C 12.128906 4.917969 12.148438 4.882812 12.148438 4.691406 L 12.148438 4.476562 L 12.945312 4.476562 L 12.945312 4.714844 C 12.945312 4.910156 12.960938 4.960938 13.046875 4.992188 C 13.1875 5.039062 13.667969 5.5625 13.710938 5.710938 C 13.726562 5.773438 13.765625 5.828125 13.789062 5.828125 C 13.8125 5.828125 13.933594 5.921875 14.054688 6.039062 L 14.28125 6.25 L 14.628906 6.21875 C 14.960938 6.1875 14.980469 6.195312 15.089844 6.335938 C 15.152344 6.414062 15.320312 6.609375 15.460938 6.761719 C 15.609375 6.914062 15.859375 7.1875 16.019531 7.367188 C 16.179688 7.542969 16.367188 7.746094 16.429688 7.8125 C 16.492188 7.882812 16.566406 7.964844 16.59375 7.992188 C 16.742188 8.15625 16.890625 8.308594 16.972656 8.382812 C 17.046875 8.457031 17.066406 8.546875 17.066406 8.898438 C 17.066406 9.320312 17.070312 9.328125 17.25 9.515625 C 17.429688 9.710938 17.429688 9.710938 17.421875 10.132812 L 17.410156 10.554688 L 17.617188 10.742188 L 17.820312 10.929688 L 17.816406 11.757812 L 17.816406 12.585938 L 17.242188 13.195312 C 16.625 13.851562 16.625 13.851562 16.929688 14.054688 C 17.046875 14.136719 17.066406 14.179688 17.066406 14.414062 C 17.066406 14.667969 17.054688 14.691406 16.867188 14.828125 C 16.6875 14.957031 16.667969 14.992188 16.667969 15.203125 C 16.667969 15.332031 16.695312 15.460938 16.730469 15.492188 C 16.765625 15.523438 16.855469 15.601562 16.929688 15.664062 C 17.058594 15.765625 17.066406 15.796875 17.066406 16.21875 C 17.066406 16.710938 17.101562 16.789062 17.335938 16.792969 C 17.578125 16.796875 17.695312 16.84375 17.757812 16.976562 C 17.792969 17.042969 17.886719 17.140625 17.96875 17.195312 C 18.046875 17.246094 18.136719 17.347656 18.164062 17.421875 C 18.1875 17.492188 18.242188 17.566406 18.28125 17.582031 C 18.414062 17.636719 18.378906 18.007812 18.234375 18.167969 L 18.105469 18.304688 L 13.078125 18.304688 C 8.109375 18.304688 8.046875 18.304688 7.960938 18.195312 Z M 15.992188 17.875 C 16.226562 17.757812 16.242188 17.757812 16.382812 17.84375 C 16.570312 17.960938 16.976562 18 17.53125 17.945312 L 17.96875 17.898438 L 17.671875 17.671875 C 17.328125 17.410156 17.21875 17.394531 16.820312 17.546875 C 16.347656 17.726562 16.289062 17.6875 16.472656 17.3125 C 16.566406 17.125 16.570312 17.050781 16.539062 16.464844 L 16.507812 15.824219 L 16.3125 15.636719 C 16.210938 15.53125 16.125 15.429688 16.125 15.398438 C 16.125 15.375 16.070312 15.320312 16 15.28125 C 15.9375 15.242188 15.867188 15.148438 15.851562 15.070312 C 15.832031 14.996094 15.765625 14.882812 15.703125 14.820312 C 15.601562 14.714844 15.523438 14.699219 15.078125 14.691406 C 14.492188 14.679688 14.335938 14.648438 14.335938 14.546875 C 14.335938 14.441406 14.59375 14.304688 14.796875 14.304688 C 14.890625 14.304688 15.050781 14.34375 15.152344 14.390625 C 15.304688 14.460938 15.378906 14.464844 15.601562 14.410156 C 15.796875 14.363281 15.921875 14.359375 16.078125 14.40625 C 16.304688 14.46875 16.371094 14.453125 16.371094 14.335938 C 16.371094 14.289062 16.273438 14.25 16.0625 14.230469 C 15.132812 14.125 15.128906 14.125 15.128906 13.667969 C 15.132812 13.5 15.148438 13.328125 15.171875 13.285156 C 15.203125 13.234375 15.371094 13.195312 15.6875 13.171875 C 15.949219 13.148438 16.183594 13.117188 16.210938 13.097656 C 16.242188 13.078125 16.390625 13.050781 16.546875 13.035156 C 16.882812 13 16.917969 12.984375 16.917969 12.84375 C 16.917969 12.78125 16.96875 12.71875 17.042969 12.6875 C 17.117188 12.65625 17.203125 12.554688 17.242188 12.445312 C 17.320312 12.234375 17.34375 11.605469 17.265625 11.605469 C 17.242188 11.605469 17.214844 11.492188 17.203125 11.351562 C 17.195312 11.140625 17.167969 11.082031 17.078125 11.039062 C 16.945312 10.976562 16.890625 10.789062 16.84375 10.226562 C 16.820312 10.019531 16.765625 9.757812 16.710938 9.648438 C 16.664062 9.539062 16.617188 9.421875 16.617188 9.382812 C 16.617188 9.347656 16.585938 9.277344 16.542969 9.226562 C 16.5 9.175781 16.453125 9.039062 16.4375 8.925781 C 16.40625 8.703125 16.296875 8.527344 16.195312 8.527344 C 16.15625 8.527344 16.066406 8.445312 15.992188 8.34375 C 15.90625 8.234375 15.742188 8.109375 15.582031 8.042969 C 15.433594 7.980469 15.273438 7.871094 15.222656 7.804688 C 15.109375 7.648438 14.992188 7.59375 14.335938 7.417969 C 13.898438 7.300781 13.738281 7.28125 13.375 7.304688 C 13.132812 7.320312 12.914062 7.351562 12.890625 7.367188 C 12.867188 7.382812 12.632812 7.414062 12.375 7.4375 C 12.042969 7.46875 11.867188 7.515625 11.769531 7.585938 C 11.695312 7.640625 11.550781 7.742188 11.445312 7.804688 C 11.1875 7.960938 11.046875 8.085938 10.570312 8.578125 C 10.335938 8.824219 10.160156 9.046875 10.160156 9.109375 C 10.160156 9.261719 9.980469 9.804688 9.875 9.976562 C 9.820312 10.054688 9.761719 10.167969 9.742188 10.226562 C 9.679688 10.402344 9.613281 10.992188 9.582031 11.632812 L 9.554688 12.226562 L 9.734375 12.515625 C 9.832031 12.675781 9.914062 12.820312 9.914062 12.835938 C 9.914062 12.953125 10.101562 13.0625 10.296875 13.0625 C 10.53125 13.0625 10.90625 13.242188 10.90625 13.355469 C 10.90625 13.394531 11.007812 13.523438 11.128906 13.648438 C 11.304688 13.820312 11.351562 13.90625 11.351562 14.035156 C 11.351562 14.203125 11.402344 14.273438 11.726562 14.550781 C 11.851562 14.65625 11.867188 14.695312 11.820312 14.777344 C 11.78125 14.851562 11.679688 14.882812 11.429688 14.902344 C 11.113281 14.929688 11.089844 14.921875 11.050781 14.804688 C 11.027344 14.738281 11.011719 14.5 11.019531 14.28125 L 11.03125 13.875 L 10.820312 13.648438 C 10.707031 13.519531 10.578125 13.375 10.53125 13.320312 C 10.488281 13.269531 10.414062 13.226562 10.367188 13.226562 C 10.3125 13.226562 10.320312 13.25 10.40625 13.296875 C 10.703125 13.460938 10.53125 13.585938 9.980469 13.617188 L 9.640625 13.632812 L 9.644531 13.359375 L 9.652344 13.085938 L 9.328125 13.023438 C 9.117188 12.984375 8.964844 12.921875 8.882812 12.835938 C 8.742188 12.699219 8.554688 12.273438 8.597656 12.195312 C 8.640625 12.125 8.789062 12.132812 8.859375 12.210938 C 8.910156 12.265625 8.929688 12.265625 8.96875 12.199219 C 9.050781 12.0625 9.023438 11.828125 8.914062 11.707031 C 8.820312 11.601562 8.765625 11.59375 8.378906 11.617188 C 7.960938 11.640625 7.679688 11.578125 7.601562 11.445312 C 7.535156 11.328125 7.429688 11.390625 7.429688 11.550781 C 7.429688 11.71875 7.679688 12.128906 7.902344 12.320312 C 7.96875 12.375 8.050781 12.484375 8.085938 12.5625 C 8.117188 12.640625 8.21875 12.730469 8.300781 12.765625 C 8.53125 12.851562 8.703125 13.023438 8.820312 13.289062 C 8.921875 13.507812 8.957031 13.539062 9.234375 13.636719 C 9.507812 13.730469 9.539062 13.757812 9.578125 13.921875 C 9.664062 14.296875 9.949219 14.664062 10.214844 14.742188 C 10.445312 14.808594 10.539062 14.769531 10.636719 14.570312 C 10.738281 14.359375 10.875 14.382812 10.898438 14.617188 C 10.910156 14.757812 10.875 14.835938 10.6875 15.046875 C 10.484375 15.277344 10.4375 15.304688 10.25 15.296875 C 10.132812 15.296875 9.941406 15.277344 9.828125 15.253906 C 9.601562 15.210938 9.585938 15.226562 9.664062 15.390625 C 9.703125 15.460938 9.769531 15.496094 9.886719 15.496094 C 10.085938 15.496094 10.1875 15.640625 10.140625 15.851562 C 10.109375 15.976562 10.101562 15.984375 9.75 15.945312 C 9.554688 15.929688 9.34375 15.890625 9.289062 15.863281 C 9.210938 15.820312 9.210938 15.835938 9.308594 15.925781 C 9.390625 16.003906 9.5 16.039062 9.679688 16.039062 L 9.9375 16.046875 L 9.738281 16.101562 C 9.628906 16.128906 9.414062 16.136719 9.265625 16.117188 C 9.117188 16.101562 8.9375 16.085938 8.867188 16.082031 C 8.601562 16.078125 8.429688 16.03125 8.320312 15.929688 C 8.257812 15.867188 8.136719 15.820312 8.046875 15.820312 C 7.867188 15.820312 7.742188 15.695312 7.683594 15.460938 C 7.65625 15.347656 7.609375 15.304688 7.511719 15.289062 C 7.335938 15.265625 7.253906 15.453125 7.300781 15.78125 C 7.34375 16.101562 7.429688 16.210938 7.679688 16.28125 C 7.953125 16.351562 7.976562 16.441406 7.75 16.523438 C 7.460938 16.625 7.546875 16.734375 8.101562 16.984375 C 8.375 17.105469 8.707031 17.277344 8.84375 17.367188 C 9.203125 17.597656 9.328125 17.640625 9.898438 17.710938 C 10.253906 17.75 10.4375 17.753906 10.503906 17.714844 C 10.585938 17.664062 10.601562 17.679688 10.632812 17.804688 L 10.660156 17.953125 L 12.164062 17.972656 C 13.433594 17.988281 13.699219 17.976562 13.851562 17.90625 C 13.953125 17.859375 14.035156 17.804688 14.035156 17.773438 C 14.035156 17.65625 13.796875 17.359375 13.6875 17.34375 C 13.621094 17.328125 13.476562 17.253906 13.367188 17.171875 C 13.164062 17.023438 12.742188 16.898438 12.421875 16.898438 C 12.171875 16.898438 11.90625 17.007812 11.730469 17.171875 C 11.566406 17.328125 11.4375 17.363281 11.21875 17.296875 C 11.140625 17.273438 11.105469 17.226562 11.105469 17.132812 C 11.105469 17.046875 11.085938 17.015625 11.042969 17.039062 C 10.988281 17.070312 11.074219 16.96875 11.453125 16.550781 C 11.617188 16.367188 11.9375 16.089844 11.984375 16.089844 C 12.011719 16.089844 12.070312 16.136719 12.117188 16.195312 C 12.1875 16.273438 12.195312 16.320312 12.148438 16.410156 C 12.097656 16.515625 12.109375 16.523438 12.40625 16.53125 C 12.578125 16.53125 12.882812 16.542969 13.085938 16.554688 L 13.460938 16.570312 L 13.722656 16.855469 C 13.867188 17.011719 13.984375 17.171875 13.984375 17.207031 C 13.984375 17.242188 14.046875 17.304688 14.125 17.34375 C 14.226562 17.398438 14.265625 17.460938 14.273438 17.601562 C 14.308594 17.980469 14.4375 18.039062 15.179688 18.015625 C 15.640625 18 15.796875 17.972656 15.992188 17.875 Z M 10.257812 15.90625 C 10.398438 15.742188 10.429688 15.726562 10.363281 15.867188 C 10.335938 15.921875 10.273438 15.984375 10.226562 16.007812 C 10.160156 16.03125 10.167969 16.007812 10.257812 15.90625 Z M 12.742188 14.09375 C 12.316406 14.066406 12.257812 14.046875 12.085938 13.902344 C 11.984375 13.8125 11.792969 13.714844 11.664062 13.6875 C 11.484375 13.644531 11.414062 13.597656 11.363281 13.484375 C 11.328125 13.398438 11.238281 13.300781 11.164062 13.257812 C 10.960938 13.140625 10.625 12.730469 10.59375 12.566406 C 10.578125 12.445312 10.601562 12.390625 10.742188 12.277344 C 10.882812 12.164062 10.90625 12.105469 10.898438 11.96875 C 10.882812 11.835938 10.902344 11.792969 10.972656 11.777344 C 11.109375 11.75 11.1875 11.851562 11.105469 11.957031 C 11.046875 12.03125 11.078125 12.078125 11.308594 12.3125 C 11.453125 12.460938 11.636719 12.609375 11.710938 12.640625 C 11.785156 12.671875 11.851562 12.75 11.871094 12.828125 C 11.898438 12.933594 11.925781 12.953125 12.003906 12.929688 C 12.058594 12.90625 12.132812 12.917969 12.164062 12.945312 C 12.289062 13.0625 13 13.171875 13.601562 13.171875 C 14.375 13.171875 14.433594 13.203125 14.433594 13.65625 C 14.433594 14.117188 14.394531 14.148438 13.746094 14.132812 C 13.453125 14.132812 13.003906 14.109375 12.742188 14.09375 Z M 10.691406 13.859375 C 10.734375 13.625 10.742188 13.617188 10.867188 13.757812 C 10.988281 13.886719 10.945312 13.988281 10.757812 14.019531 C 10.671875 14.03125 10.664062 14.015625 10.691406 13.859375 Z M 14.734375 12.90625 C 14.589844 12.738281 14.335938 12.628906 14.335938 12.734375 C 14.335938 12.773438 14.226562 12.796875 14.054688 12.796875 C 13.78125 12.796875 13.765625 12.789062 13.507812 12.507812 L 13.242188 12.21875 L 13.242188 9.25 L 13.507812 8.96875 C 13.761719 8.695312 13.785156 8.679688 14.050781 8.671875 C 14.203125 8.671875 14.34375 8.679688 14.359375 8.703125 C 14.449219 8.796875 14.480469 9.273438 14.484375 10.523438 C 14.484375 11.902344 14.507812 12.128906 14.664062 12.1875 C 14.859375 12.257812 15.027344 11.328125 15.066406 9.960938 C 15.101562 8.757812 15.144531 8.636719 15.5625 8.632812 C 15.75 8.632812 15.789062 8.65625 15.875 8.8125 C 15.929688 8.90625 16.046875 9.054688 16.148438 9.136719 L 16.320312 9.289062 L 16.320312 12.171875 L 16.03125 12.484375 C 15.765625 12.769531 15.726562 12.796875 15.519531 12.796875 C 15.398438 12.796875 15.273438 12.769531 15.242188 12.738281 C 15.210938 12.695312 15.167969 12.734375 15.109375 12.875 C 15.007812 13.105469 14.914062 13.117188 14.734375 12.90625 Z M 6.734375 15.488281 C 6.734375 15.367188 6.609375 15.230469 6.496094 15.226562 C 6.417969 15.226562 6.414062 15.453125 6.492188 15.539062 C 6.59375 15.648438 6.734375 15.617188 6.734375 15.488281 Z M 8.921875 15.210938 C 8.898438 14.949219 8.894531 14.945312 8.878906 15.136719 C 8.867188 15.320312 8.890625 15.496094 8.929688 15.496094 C 8.9375 15.496094 8.933594 15.367188 8.921875 15.210938 Z M 9.515625 15.140625 C 9.515625 15.054688 9.402344 14.902344 9.339844 14.902344 C 9.25 14.902344 9.242188 15.015625 9.328125 15.109375 C 9.386719 15.171875 9.515625 15.195312 9.515625 15.140625 Z M 9.058594 10.863281 C 9.085938 10.8125 9.117188 10.597656 9.132812 10.390625 C 9.15625 10.121094 9.1875 9.996094 9.246094 9.960938 C 9.453125 9.824219 9.601562 9.652344 9.625 9.53125 C 9.65625 9.363281 9.625 9.316406 9.4375 9.21875 C 9.324219 9.164062 9.125 9.148438 8.523438 9.171875 L 7.75 9.203125 L 7.734375 9.460938 C 7.71875 9.703125 7.734375 9.726562 7.964844 9.976562 C 8.097656 10.117188 8.273438 10.277344 8.351562 10.332031 C 8.429688 10.386719 8.59375 10.550781 8.710938 10.695312 C 8.945312 10.984375 8.992188 11.003906 9.058594 10.863281 Z M 7.617188 8.945312 C 7.632812 8.816406 7.617188 8.796875 7.503906 8.796875 C 7.367188 8.796875 7.296875 8.90625 7.347656 9.042969 C 7.398438 9.1875 7.601562 9.117188 7.617188 8.945312 Z M 10.28125 8.335938 C 10.324219 8.289062 10.359375 8.1875 10.359375 8.117188 C 10.359375 8.039062 10.414062 7.929688 10.484375 7.859375 C 10.570312 7.777344 10.613281 7.679688 10.621094 7.53125 C 10.632812 7.320312 10.632812 7.316406 10.414062 7.273438 C 10.160156 7.226562 10.109375 7.1875 10.210938 7.117188 C 10.332031 7.039062 10.484375 7.0625 10.585938 7.175781 C 10.695312 7.3125 10.71875 7.3125 10.902344 7.144531 C 11.148438 6.921875 11.101562 6.886719 10.621094 6.921875 C 10.246094 6.945312 10.164062 6.9375 10.03125 6.84375 C 9.890625 6.75 9.792969 6.742188 9.183594 6.757812 L 8.496094 6.773438 L 8.484375 7.023438 C 8.46875 7.257812 8.480469 7.285156 8.640625 7.417969 C 8.734375 7.5 8.828125 7.609375 8.84375 7.667969 C 8.863281 7.726562 8.960938 7.820312 9.058594 7.878906 C 9.160156 7.9375 9.300781 8.039062 9.375 8.101562 C 9.445312 8.164062 9.648438 8.257812 9.820312 8.3125 C 10.226562 8.433594 10.191406 8.429688 10.28125 8.335938 Z M 11.933594 6.703125 C 11.984375 6.59375 12.078125 6.46875 12.148438 6.429688 C 12.265625 6.359375 12.289062 6.367188 12.46875 6.492188 C 12.570312 6.570312 12.714844 6.632812 12.78125 6.632812 C 12.851562 6.632812 13.03125 6.675781 13.175781 6.726562 C 13.421875 6.8125 13.445312 6.8125 13.523438 6.726562 C 13.578125 6.667969 13.609375 6.546875 13.609375 6.359375 C 13.609375 6.117188 13.585938 6.0625 13.460938 5.9375 C 13.378906 5.859375 13.273438 5.734375 13.226562 5.65625 C 13.179688 5.574219 13.101562 5.492188 13.046875 5.476562 C 12.992188 5.457031 12.90625 5.359375 12.851562 5.257812 C 12.765625 5.109375 12.71875 5.070312 12.59375 5.070312 C 12.386719 5.070312 12.265625 5.148438 12.171875 5.339844 C 12.132812 5.429688 12.0625 5.5 12.023438 5.5 C 11.984375 5.5 11.875 5.632812 11.777344 5.789062 C 11.628906 6.03125 11.601562 6.125 11.609375 6.339844 C 11.617188 6.601562 11.59375 6.648438 11.320312 6.835938 C 11.242188 6.890625 11.28125 6.898438 11.535156 6.902344 C 11.839844 6.90625 11.84375 6.90625 11.933594 6.703125 Z M 8.363281 6.484375 C 8.34375 6.316406 8.144531 6.242188 8.09375 6.390625 C 8.046875 6.527344 8.113281 6.632812 8.25 6.632812 C 8.359375 6.632812 8.375 6.617188 8.363281 6.484375 Z M 8.363281 6.484375 "/>
<path style=" stroke:none;fill-rule:nonzero;fill:rgb(18.431373%,35.294118%,81.176471%);fill-opacity:1;" d="M 7.960938 18.195312 C 7.898438 18.117188 7.8125 18.089844 7.660156 18.089844 C 7.460938 18.089844 7.421875 18.0625 7.171875 17.785156 C 6.84375 17.40625 6.765625 17.320312 6.414062 16.960938 C 6.152344 16.6875 6.136719 16.65625 6.136719 16.40625 C 6.136719 16.117188 6.0625 16.035156 5.792969 16.035156 L 5.640625 16.035156 L 5.640625 14.792969 L 5.839844 14.792969 C 6.015625 14.792969 6.054688 14.773438 6.148438 14.601562 C 6.34375 14.242188 6.679688 14.234375 6.9375 14.585938 C 7.078125 14.777344 7.109375 14.792969 7.335938 14.792969 C 7.570312 14.792969 7.585938 14.804688 7.65625 14.984375 C 7.695312 15.085938 7.765625 15.171875 7.808594 15.171875 C 7.851562 15.171875 7.992188 15.046875 8.117188 14.898438 C 8.304688 14.671875 8.351562 14.574219 8.375 14.371094 C 8.390625 14.171875 8.421875 14.109375 8.519531 14.054688 C 8.703125 13.953125 8.773438 13.828125 8.71875 13.703125 C 8.6875 13.648438 8.640625 13.605469 8.601562 13.605469 C 8.570312 13.605469 8.472656 13.523438 8.390625 13.429688 C 8.308594 13.332031 8.199219 13.210938 8.148438 13.164062 C 8.09375 13.117188 8 13.015625 7.9375 12.949219 C 7.878906 12.878906 7.792969 12.78125 7.75 12.734375 C 7.703125 12.683594 7.609375 12.585938 7.542969 12.507812 C 7.476562 12.433594 7.394531 12.34375 7.359375 12.3125 C 6.882812 11.796875 6.882812 11.792969 6.882812 11.539062 C 6.882812 11.320312 6.902344 11.273438 7.03125 11.171875 C 7.113281 11.109375 7.214844 10.984375 7.257812 10.898438 C 7.359375 10.6875 7.507812 10.695312 7.703125 10.929688 C 7.835938 11.085938 7.898438 11.117188 8.066406 11.117188 C 8.375 11.117188 8.414062 10.984375 8.183594 10.734375 C 8.082031 10.625 7.96875 10.503906 7.933594 10.460938 C 7.796875 10.3125 7.445312 9.953125 7.335938 9.863281 C 7.25 9.789062 7.230469 9.710938 7.230469 9.5 C 7.230469 9.25 7.21875 9.21875 7.09375 9.171875 C 6.84375 9.066406 6.804688 8.84375 7.023438 8.71875 C 7.101562 8.671875 7.214844 8.554688 7.273438 8.445312 C 7.40625 8.195312 7.546875 8.195312 7.683594 8.445312 C 7.8125 8.679688 7.871094 8.695312 8.523438 8.679688 C 9.023438 8.664062 9.042969 8.65625 9.058594 8.539062 C 9.070312 8.445312 9.015625 8.355469 8.835938 8.1875 C 8.703125 8.0625 8.457031 7.804688 8.285156 7.621094 C 8 7.308594 7.976562 7.265625 7.976562 7.046875 C 7.976562 6.832031 7.957031 6.796875 7.800781 6.695312 C 7.578125 6.554688 7.574219 6.398438 7.78125 6.261719 C 7.867188 6.203125 7.976562 6.085938 8.03125 5.992188 C 8.15625 5.765625 8.296875 5.773438 8.429688 6.015625 L 8.53125 6.203125 L 9.484375 6.203125 C 10.007812 6.203125 10.515625 6.21875 10.617188 6.238281 C 10.789062 6.265625 10.820312 6.25 11.027344 6.023438 C 11.148438 5.882812 11.273438 5.773438 11.300781 5.773438 C 11.328125 5.773438 11.351562 5.734375 11.351562 5.695312 C 11.351562 5.648438 11.429688 5.554688 11.515625 5.476562 C 11.609375 5.402344 11.710938 5.28125 11.746094 5.210938 C 11.78125 5.140625 11.882812 5.046875 11.976562 4.996094 C 12.128906 4.917969 12.148438 4.882812 12.148438 4.691406 L 12.148438 4.476562 L 12.945312 4.476562 L 12.945312 4.714844 C 12.945312 4.910156 12.960938 4.960938 13.046875 4.992188 C 13.1875 5.039062 13.667969 5.5625 13.710938 5.710938 C 13.726562 5.773438 13.765625 5.828125 13.789062 5.828125 C 13.8125 5.828125 13.933594 5.921875 14.054688 6.039062 L 14.28125 6.25 L 14.628906 6.21875 C 14.960938 6.1875 14.980469 6.195312 15.089844 6.335938 C 15.152344 6.414062 15.320312 6.609375 15.460938 6.761719 C 15.609375 6.914062 15.859375 7.1875 16.019531 7.367188 C 16.179688 7.542969 16.367188 7.746094 16.429688 7.8125 C 16.492188 7.882812 16.566406 7.964844 16.59375 7.992188 C 16.742188 8.15625 16.890625 8.308594 16.972656 8.382812 C 17.046875 8.457031 17.066406 8.546875 17.066406 8.898438 C 17.066406 9.320312 17.070312 9.328125 17.25 9.515625 C 17.429688 9.710938 17.429688 9.710938 17.421875 10.132812 L 17.410156 10.554688 L 17.617188 10.742188 L 17.820312 10.929688 L 17.816406 11.757812 L 17.816406 12.585938 L 17.242188 13.195312 C 16.625 13.851562 16.625 13.851562 16.929688 14.054688 C 17.046875 14.136719 17.066406 14.179688 17.066406 14.414062 C 17.066406 14.667969 17.054688 14.691406 16.867188 14.828125 C 16.6875 14.957031 16.667969 14.992188 16.667969 15.203125 C 16.667969 15.332031 16.695312 15.460938 16.730469 15.492188 C 16.765625 15.523438 16.855469 15.601562 16.929688 15.664062 C 17.058594 15.765625 17.066406 15.796875 17.066406 16.21875 C 17.066406 16.710938 17.101562 16.789062 17.335938 16.792969 C 17.578125 16.796875 17.695312 16.84375 17.757812 16.976562 C 17.792969 17.042969 17.886719 17.140625 17.96875 17.195312 C 18.046875 17.246094 18.136719 17.347656 18.164062 17.421875 C 18.1875 17.492188 18.242188 17.566406 18.28125 17.582031 C 18.414062 17.636719 18.378906 18.007812 18.234375 18.167969 L 18.105469 18.304688 L 13.078125 18.304688 C 8.109375 18.304688 8.046875 18.304688 7.960938 18.195312 Z M 15.992188 17.875 C 16.226562 17.757812 16.242188 17.757812 16.382812 17.84375 C 16.570312 17.960938 16.976562 18 17.53125 17.945312 L 17.96875 17.898438 L 17.671875 17.671875 C 17.328125 17.410156 17.21875 17.394531 16.820312 17.546875 C 16.347656 17.726562 16.289062 17.6875 16.472656 17.3125 C 16.566406 17.125 16.570312 17.050781 16.539062 16.464844 L 16.507812 15.824219 L 16.3125 15.636719 C 16.210938 15.53125 16.125 15.429688 16.125 15.398438 C 16.125 15.375 16.070312 15.320312 16 15.28125 C 15.9375 15.242188 15.867188 15.148438 15.851562 15.070312 C 15.832031 14.996094 15.765625 14.882812 15.703125 14.820312 C 15.601562 14.714844 15.523438 14.699219 15.078125 14.691406 C 14.492188 14.679688 14.335938 14.648438 14.335938 14.546875 C 14.335938 14.441406 14.59375 14.304688 14.796875 14.304688 C 14.890625 14.304688 15.050781 14.34375 15.152344 14.390625 C 15.304688 14.460938 15.378906 14.464844 15.601562 14.410156 C 15.796875 14.363281 15.921875 14.359375 16.078125 14.40625 C 16.304688 14.46875 16.371094 14.453125 16.371094 14.335938 C 16.371094 14.289062 16.273438 14.25 16.0625 14.230469 C 15.132812 14.125 15.128906 14.125 15.128906 13.667969 C 15.132812 13.5 15.148438 13.328125 15.171875 13.285156 C 15.203125 13.234375 15.371094 13.195312 15.6875 13.171875 C 15.949219 13.148438 16.183594 13.117188 16.210938 13.097656 C 16.242188 13.078125 16.390625 13.050781 16.546875 13.035156 C 16.882812 13 16.917969 12.984375 16.917969 12.84375 C 16.917969 12.78125 16.96875 12.71875 17.042969 12.6875 C 17.117188 12.65625 17.203125 12.554688 17.242188 12.445312 C 17.320312 12.234375 17.34375 11.605469 17.265625 11.605469 C 17.242188 11.605469 17.214844 11.492188 17.203125 11.351562 C 17.195312 11.140625 17.167969 11.082031 17.078125 11.039062 C 16.945312 10.976562 16.890625 10.789062 16.84375 10.226562 C 16.820312 10.019531 16.765625 9.757812 16.710938 9.648438 C 16.664062 9.539062 16.617188 9.421875 16.617188 9.382812 C 16.617188 9.347656 16.585938 9.277344 16.542969 9.226562 C 16.5 9.175781 16.453125 9.039062 16.4375 8.925781 C 16.40625 8.703125 16.296875 8.527344 16.195312 8.527344 C 16.15625 8.527344 16.066406 8.445312 15.992188 8.34375 C 15.90625 8.234375 15.742188 8.109375 15.582031 8.042969 C 15.433594 7.980469 15.273438 7.871094 15.222656 7.804688 C 15.109375 7.648438 14.992188 7.59375 14.335938 7.417969 C 13.898438 7.300781 13.738281 7.28125 13.375 7.304688 C 13.132812 7.320312 12.914062 7.351562 12.890625 7.367188 C 12.867188 7.382812 12.632812 7.414062 12.375 7.4375 C 12.042969 7.46875 11.867188 7.515625 11.769531 7.585938 C 11.695312 7.640625 11.550781 7.742188 11.445312 7.804688 C 11.1875 7.960938 11.046875 8.085938 10.570312 8.578125 C 10.335938 8.824219 10.160156 9.046875 10.160156 9.109375 C 10.160156 9.261719 9.980469 9.804688 9.875 9.976562 C 9.820312 10.054688 9.761719 10.167969 9.742188 10.226562 C 9.679688 10.402344 9.613281 10.992188 9.582031 11.632812 L 9.554688 12.226562 L 9.734375 12.515625 C 9.832031 12.675781 9.914062 12.820312 9.914062 12.835938 C 9.914062 12.953125 10.101562 13.0625 10.296875 13.0625 C 10.53125 13.0625 10.90625 13.242188 10.90625 13.355469 C 10.90625 13.394531 11.007812 13.523438 11.128906 13.648438 C 11.304688 13.820312 11.351562 13.90625 11.351562 14.035156 C 11.351562 14.203125 11.402344 14.273438 11.726562 14.550781 C 11.851562 14.65625 11.867188 14.695312 11.820312 14.777344 C 11.78125 14.851562 11.679688 14.882812 11.429688 14.902344 C 11.113281 14.929688 11.089844 14.921875 11.050781 14.804688 C 11.027344 14.738281 11.011719 14.5 11.019531 14.28125 L 11.03125 13.875 L 10.820312 13.648438 C 10.707031 13.519531 10.578125 13.375 10.53125 13.320312 C 10.488281 13.269531 10.414062 13.226562 10.367188 13.226562 C 10.3125 13.226562 10.320312 13.25 10.40625 13.296875 C 10.703125 13.460938 10.53125 13.585938 9.980469 13.617188 L 9.640625 13.632812 L 9.644531 13.359375 L 9.652344 13.085938 L 9.328125 13.023438 C 9.117188 12.984375 8.964844 12.921875 8.882812 12.835938 C 8.742188 12.699219 8.554688 12.273438 8.597656 12.195312 C 8.640625 12.125 8.789062 12.132812 8.859375 12.210938 C 8.910156 12.265625 8.929688 12.265625 8.96875 12.199219 C 9.050781 12.0625 9.023438 11.828125 8.914062 11.707031 C 8.820312 11.601562 8.765625 11.59375 8.378906 11.617188 C 7.960938 11.640625 7.679688 11.578125 7.601562 11.445312 C 7.535156 11.328125 7.429688 11.390625 7.429688 11.550781 C 7.429688 11.71875 7.679688 12.128906 7.902344 12.320312 C 7.96875 12.375 8.050781 12.484375 8.085938 12.5625 C 8.117188 12.640625 8.21875 12.730469 8.300781 12.765625 C 8.53125 12.851562 8.703125 13.023438 8.820312 13.289062 C 8.921875 13.507812 8.957031 13.539062 9.234375 13.636719 C 9.507812 13.730469 9.539062 13.757812 9.578125 13.921875 C 9.664062 14.296875 9.949219 14.664062 10.214844 14.742188 C 10.445312 14.808594 10.539062 14.769531 10.636719 14.570312 C 10.738281 14.359375 10.875 14.382812 10.898438 14.617188 C 10.910156 14.757812 10.875 14.835938 10.6875 15.046875 C 10.484375 15.277344 10.4375 15.304688 10.25 15.296875 C 10.132812 15.296875 9.941406 15.277344 9.828125 15.253906 C 9.601562 15.210938 9.585938 15.226562 9.664062 15.390625 C 9.703125 15.460938 9.769531 15.496094 9.886719 15.496094 C 10.085938 15.496094 10.1875 15.640625 10.140625 15.851562 C 10.109375 15.976562 10.101562 15.984375 9.75 15.945312 C 9.554688 15.929688 9.34375 15.890625 9.289062 15.863281 C 9.210938 15.820312 9.210938 15.835938 9.308594 15.925781 C 9.390625 16.003906 9.5 16.039062 9.679688 16.039062 L 9.9375 16.046875 L 9.738281 16.101562 C 9.628906 16.128906 9.414062 16.136719 9.265625 16.117188 C 9.117188 16.101562 8.9375 16.085938 8.867188 16.082031 C 8.601562 16.078125 8.429688 16.03125 8.320312 15.929688 C 8.257812 15.867188 8.136719 15.820312 8.046875 15.820312 C 7.867188 15.820312 7.742188 15.695312 7.683594 15.460938 C 7.65625 15.347656 7.609375 15.304688 7.511719 15.289062 C 7.335938 15.265625 7.253906 15.453125 7.300781 15.78125 C 7.34375 16.101562 7.429688 16.210938 7.679688 16.28125 C 7.953125 16.351562 7.976562 16.441406 7.75 16.523438 C 7.460938 16.625 7.546875 16.734375 8.101562 16.984375 C 8.375 17.105469 8.707031 17.277344 8.84375 17.367188 C 9.203125 17.597656 9.328125 17.640625 9.898438 17.710938 C 10.253906 17.75 10.4375 17.753906 10.503906 17.714844 C 10.585938 17.664062 10.601562 17.679688 10.632812 17.804688 L 10.660156 17.953125 L 12.164062 17.972656 C 13.433594 17.988281 13.699219 17.976562 13.851562 17.90625 C 13.953125 17.859375 14.035156 17.804688 14.035156 17.773438 C 14.035156 17.65625 13.796875 17.359375 13.6875 17.34375 C 13.621094 17.328125 13.476562 17.253906 13.367188 17.171875 C 13.164062 17.023438 12.742188 16.898438 12.421875 16.898438 C 12.171875 16.898438 11.90625 17.007812 11.730469 17.171875 C 11.566406 17.328125 11.4375 17.363281 11.21875 17.296875 C 11.140625 17.273438 11.105469 17.226562 11.105469 17.132812 C 11.105469 17.046875 11.085938 17.015625 11.042969 17.039062 C 10.988281 17.070312 11.074219 16.96875 11.453125 16.550781 C 11.617188 16.367188 11.9375 16.089844 11.984375 16.089844 C 12.011719 16.089844 12.070312 16.136719 12.117188 16.195312 C 12.1875 16.273438 12.195312 16.320312 12.148438 16.410156 C 12.097656 16.515625 12.109375 16.523438 12.40625 16.53125 C 12.578125 16.53125 12.882812 16.542969 13.085938 16.554688 L 13.460938 16.570312 L 13.722656 16.855469 C 13.867188 17.011719 13.984375 17.171875 13.984375 17.207031 C 13.984375 17.242188 14.046875 17.304688 14.125 17.34375 C 14.226562 17.398438 14.265625 17.460938 14.273438 17.601562 C 14.308594 17.980469 14.4375 18.039062 15.179688 18.015625 C 15.640625 18 15.796875 17.972656 15.992188 17.875 Z M 10.257812 15.90625 C 10.398438 15.742188 10.429688 15.726562 10.363281 15.867188 C 10.335938 15.921875 10.273438 15.984375 10.226562 16.007812 C 10.160156 16.03125 10.167969 16.007812 10.257812 15.90625 Z M 12.742188 14.09375 C 12.316406 14.066406 12.257812 14.046875 12.085938 13.902344 C 11.984375 13.8125 11.792969 13.714844 11.664062 13.6875 C 11.484375 13.644531 11.414062 13.597656 11.363281 13.484375 C 11.328125 13.398438 11.238281 13.300781 11.164062 13.257812 C 10.960938 13.140625 10.625 12.730469 10.59375 12.566406 C 10.578125 12.445312 10.601562 12.390625 10.742188 12.277344 C 10.882812 12.164062 10.90625 12.105469 10.898438 11.96875 C 10.882812 11.835938 10.902344 11.792969 10.972656 11.777344 C 11.109375 11.75 11.1875 11.851562 11.105469 11.957031 C 11.046875 12.03125 11.078125 12.078125 11.308594 12.3125 C 11.453125 12.460938 11.636719 12.609375 11.710938 12.640625 C 11.785156 12.671875 11.851562 12.75 11.871094 12.828125 C 11.898438 12.933594 11.925781 12.953125 12.003906 12.929688 C 12.058594 12.90625 12.132812 12.917969 12.164062 12.945312 C 12.289062 13.0625 13 13.171875 13.601562 13.171875 C 14.375 13.171875 14.433594 13.203125 14.433594 13.65625 C 14.433594 14.117188 14.394531 14.148438 13.746094 14.132812 C 13.453125 14.132812 13.003906 14.109375 12.742188 14.09375 Z M 10.765625 13.972656 C 10.699219 13.898438 10.6875 13.65625 10.75 13.65625 C 10.773438 13.65625 10.832031 13.710938 10.882812 13.769531 C 10.960938 13.867188 10.964844 13.890625 10.898438 13.960938 C 10.84375 14.019531 10.8125 14.023438 10.765625 13.972656 Z M 14.726562 12.898438 C 14.648438 12.804688 14.515625 12.722656 14.421875 12.703125 C 14.335938 12.6875 14.113281 12.601562 13.9375 12.507812 C 13.628906 12.34375 13.609375 12.320312 13.492188 12.011719 C 13.390625 11.734375 13.375 11.597656 13.375 11.039062 C 13.375 10.679688 13.414062 10.152344 13.460938 9.851562 C 13.535156 9.367188 13.5625 9.292969 13.707031 9.140625 C 13.867188 8.976562 14.351562 8.796875 14.421875 8.875 C 14.445312 8.898438 14.46875 9.617188 14.484375 10.476562 C 14.507812 11.867188 14.515625 12.046875 14.59375 12.128906 C 14.671875 12.214844 14.6875 12.214844 14.757812 12.140625 C 14.921875 11.964844 15.078125 10.738281 15.078125 9.691406 C 15.078125 8.898438 15.109375 8.816406 15.359375 8.882812 C 15.59375 8.945312 15.851562 9.109375 15.9375 9.246094 C 16.132812 9.570312 16.253906 11.375 16.117188 11.882812 C 16.03125 12.175781 15.8125 12.4375 15.578125 12.523438 C 15.46875 12.5625 15.351562 12.628906 15.320312 12.667969 C 15.289062 12.707031 15.25 12.726562 15.226562 12.710938 C 15.207031 12.699219 15.152344 12.773438 15.109375 12.875 C 15.007812 13.109375 14.914062 13.113281 14.726562 12.898438 Z M 6.734375 15.488281 C 6.734375 15.367188 6.609375 15.230469 6.496094 15.226562 C 6.417969 15.226562 6.414062 15.453125 6.492188 15.539062 C 6.59375 15.648438 6.734375 15.617188 6.734375 15.488281 Z M 8.921875 15.210938 C 8.898438 14.949219 8.894531 14.945312 8.878906 15.136719 C 8.867188 15.320312 8.890625 15.496094 8.929688 15.496094 C 8.9375 15.496094 8.933594 15.367188 8.921875 15.210938 Z M 9.515625 15.140625 C 9.515625 15.054688 9.402344 14.902344 9.339844 14.902344 C 9.25 14.902344 9.242188 15.015625 9.328125 15.109375 C 9.386719 15.171875 9.515625 15.195312 9.515625 15.140625 Z M 9.058594 10.863281 C 9.085938 10.8125 9.117188 10.597656 9.132812 10.390625 C 9.15625 10.121094 9.1875 9.996094 9.246094 9.960938 C 9.453125 9.824219 9.601562 9.652344 9.625 9.53125 C 9.65625 9.363281 9.625 9.316406 9.4375 9.21875 C 9.324219 9.164062 9.125 9.148438 8.523438 9.171875 L 7.75 9.203125 L 7.734375 9.460938 C 7.71875 9.703125 7.734375 9.726562 7.964844 9.976562 C 8.097656 10.117188 8.273438 10.277344 8.351562 10.332031 C 8.429688 10.386719 8.59375 10.550781 8.710938 10.695312 C 8.945312 10.984375 8.992188 11.003906 9.058594 10.863281 Z M 7.617188 8.945312 C 7.632812 8.816406 7.617188 8.796875 7.503906 8.796875 C 7.367188 8.796875 7.296875 8.90625 7.347656 9.042969 C 7.398438 9.1875 7.601562 9.117188 7.617188 8.945312 Z M 10.28125 8.335938 C 10.324219 8.289062 10.359375 8.1875 10.359375 8.117188 C 10.359375 8.039062 10.414062 7.929688 10.484375 7.859375 C 10.570312 7.777344 10.613281 7.679688 10.621094 7.53125 C 10.632812 7.320312 10.632812 7.316406 10.414062 7.273438 C 10.160156 7.226562 10.109375 7.1875 10.210938 7.117188 C 10.332031 7.039062 10.484375 7.0625 10.585938 7.175781 C 10.695312 7.3125 10.71875 7.3125 10.902344 7.144531 C 11.148438 6.921875 11.101562 6.886719 10.621094 6.921875 C 10.246094 6.945312 10.164062 6.9375 10.03125 6.84375 C 9.890625 6.75 9.792969 6.742188 9.183594 6.757812 L 8.496094 6.773438 L 8.484375 7.023438 C 8.46875 7.257812 8.480469 7.285156 8.640625 7.417969 C 8.734375 7.5 8.828125 7.609375 8.84375 7.667969 C 8.863281 7.726562 8.960938 7.820312 9.058594 7.878906 C 9.160156 7.9375 9.300781 8.039062 9.375 8.101562 C 9.445312 8.164062 9.648438 8.257812 9.820312 8.3125 C 10.226562 8.433594 10.191406 8.429688 10.28125 8.335938 Z M 11.933594 6.703125 C 11.984375 6.59375 12.078125 6.46875 12.148438 6.429688 C 12.265625 6.359375 12.289062 6.367188 12.46875 6.492188 C 12.570312 6.570312 12.714844 6.632812 12.78125 6.632812 C 12.851562 6.632812 13.03125 6.675781 13.175781 6.726562 C 13.421875 6.8125 13.445312 6.8125 13.523438 6.726562 C 13.578125 6.667969 13.609375 6.546875 13.609375 6.359375 C 13.609375 6.117188 13.585938 6.0625 13.460938 5.9375 C 13.378906 5.859375 13.273438 5.734375 13.226562 5.65625 C 13.179688 5.574219 13.101562 5.492188 13.046875 5.476562 C 12.992188 5.457031 12.90625 5.359375 12.851562 5.257812 C 12.765625 5.109375 12.71875 5.070312 12.59375 5.070312 C 12.386719 5.070312 12.265625 5.148438 12.171875 5.339844 C 12.132812 5.429688 12.0625 5.5 12.023438 5.5 C 11.984375 5.5 11.875 5.632812 11.777344 5.789062 C 11.628906 6.03125 11.601562 6.125 11.609375 6.339844 C 11.617188 6.601562 11.59375 6.648438 11.320312 6.835938 C 11.242188 6.890625 11.28125 6.898438 11.535156 6.902344 C 11.839844 6.90625 11.84375 6.90625 11.933594 6.703125 Z M 8.363281 6.484375 C 8.34375 6.316406 8.144531 6.242188 8.09375 6.390625 C 8.046875 6.527344 8.113281 6.632812 8.25 6.632812 C 8.359375 6.632812 8.375 6.617188 8.363281 6.484375 Z M 8.363281 6.484375 "/>
<path style=" stroke:none;fill-rule:nonzero;fill:rgb(65.882353%,24.313725%,35.686275%);fill-opacity:1;" d="M 8.023438 18.230469 C 8.023438 18.140625 7.875 18.089844 7.617188 18.089844 C 7.507812 18.089844 7.40625 18.054688 7.367188 18 C 7.332031 17.953125 7.242188 17.851562 7.164062 17.773438 C 7.085938 17.695312 6.992188 17.597656 6.960938 17.554688 C 6.890625 17.460938 6.710938 17.265625 6.625 17.191406 C 6.589844 17.15625 6.511719 17.074219 6.453125 17 C 6.398438 16.929688 6.300781 16.832031 6.242188 16.78125 C 6.164062 16.710938 6.136719 16.625 6.136719 16.445312 C 6.136719 16.078125 6.109375 16.035156 5.859375 16.035156 L 5.640625 16.035156 L 5.640625 14.78125 L 5.859375 14.804688 C 6.101562 14.835938 6.1875 14.78125 6.1875 14.601562 C 6.1875 14.429688 6.320312 14.335938 6.542969 14.34375 C 6.757812 14.347656 6.917969 14.472656 6.941406 14.648438 C 6.953125 14.742188 6.992188 14.769531 7.15625 14.78125 C 7.492188 14.804688 7.570312 14.84375 7.652344 15.007812 C 7.75 15.210938 7.847656 15.214844 8.023438 15.011719 C 8.097656 14.925781 8.21875 14.835938 8.289062 14.820312 C 8.410156 14.785156 8.414062 14.773438 8.386719 14.507812 C 8.359375 14.242188 8.359375 14.234375 8.570312 14.039062 C 8.757812 13.859375 8.777344 13.828125 8.726562 13.722656 C 8.695312 13.65625 8.644531 13.605469 8.617188 13.605469 C 8.554688 13.605469 7.3125 12.257812 7.234375 12.105469 C 7.203125 12.039062 7.148438 11.984375 7.109375 11.984375 C 6.980469 11.984375 6.882812 11.789062 6.882812 11.53125 C 6.882812 11.300781 6.898438 11.269531 7.054688 11.171875 C 7.144531 11.109375 7.242188 10.988281 7.273438 10.898438 C 7.34375 10.671875 7.523438 10.6875 7.695312 10.929688 C 7.8125 11.09375 7.859375 11.117188 8.050781 11.117188 C 8.21875 11.117188 8.28125 11.09375 8.320312 11.015625 C 8.359375 10.933594 8.355469 10.890625 8.292969 10.835938 C 8.195312 10.753906 8.019531 10.5625 7.945312 10.460938 C 7.914062 10.421875 7.742188 10.242188 7.5625 10.0625 C 7.242188 9.746094 7.230469 9.71875 7.230469 9.480469 C 7.230469 9.261719 7.210938 9.222656 7.085938 9.148438 C 6.867188 9.027344 6.859375 8.917969 7.046875 8.722656 C 7.140625 8.632812 7.242188 8.5 7.273438 8.429688 C 7.34375 8.289062 7.542969 8.269531 7.636719 8.394531 C 7.867188 8.695312 7.84375 8.6875 8.441406 8.6875 C 9.027344 8.6875 9.089844 8.664062 9.125 8.445312 C 9.136719 8.367188 9.109375 8.332031 9.035156 8.320312 C 8.976562 8.3125 8.722656 8.085938 8.476562 7.8125 C 8.058594 7.359375 8.023438 7.304688 8.023438 7.109375 C 8.023438 6.933594 7.992188 6.867188 7.851562 6.726562 C 7.632812 6.515625 7.621094 6.34375 7.824219 6.230469 C 7.90625 6.1875 8 6.09375 8.03125 6.027344 C 8.148438 5.789062 8.304688 5.792969 8.4375 6.039062 C 8.515625 6.179688 8.546875 6.195312 8.929688 6.222656 C 9.15625 6.242188 9.6875 6.246094 10.109375 6.234375 C 10.84375 6.21875 10.882812 6.210938 10.976562 6.085938 C 11.035156 6.015625 11.140625 5.914062 11.21875 5.863281 C 11.296875 5.808594 11.375 5.726562 11.390625 5.671875 C 11.429688 5.558594 11.828125 5.125 12.011719 5 C 12.125 4.921875 12.148438 4.867188 12.148438 4.6875 L 12.148438 4.476562 L 12.523438 4.476562 C 12.882812 4.476562 12.890625 4.476562 12.890625 4.605469 C 12.890625 4.828125 12.976562 4.992188 13.125 5.066406 C 13.203125 5.101562 13.367188 5.265625 13.492188 5.425781 C 13.746094 5.761719 13.785156 5.804688 14.074219 6.0625 C 14.28125 6.25 14.292969 6.25 14.632812 6.21875 C 14.960938 6.1875 14.980469 6.195312 15.089844 6.335938 C 15.152344 6.414062 15.320312 6.609375 15.460938 6.761719 C 15.609375 6.914062 15.859375 7.1875 16.019531 7.367188 C 16.179688 7.542969 16.367188 7.746094 16.429688 7.8125 C 16.492188 7.882812 16.566406 7.964844 16.59375 7.992188 C 16.742188 8.15625 16.890625 8.308594 16.972656 8.382812 C 17.050781 8.460938 17.066406 8.546875 17.066406 8.960938 C 17.066406 9.417969 17.070312 9.453125 17.179688 9.492188 C 17.390625 9.578125 17.425781 9.6875 17.433594 10.214844 C 17.4375 10.679688 17.445312 10.714844 17.546875 10.730469 C 17.789062 10.765625 17.820312 10.886719 17.816406 11.769531 C 17.816406 12.652344 17.785156 12.765625 17.546875 12.804688 C 17.476562 12.8125 17.433594 12.867188 17.421875 12.941406 C 17.40625 13.070312 17.195312 13.28125 17.085938 13.28125 C 17.046875 13.28125 17.015625 13.320312 17.015625 13.367188 C 17.015625 13.414062 16.9375 13.53125 16.835938 13.625 C 16.738281 13.71875 16.640625 13.84375 16.617188 13.90625 C 16.578125 14.015625 16.546875 14.023438 15.960938 14.011719 C 15.207031 13.996094 15.128906 13.960938 15.128906 13.59375 C 15.128906 13.203125 15.195312 13.175781 16.148438 13.160156 C 16.796875 13.148438 16.9375 13.132812 16.960938 13.0625 C 16.972656 13.019531 17.0625 12.90625 17.160156 12.804688 L 17.335938 12.628906 L 17.359375 10.9375 L 17.175781 10.757812 C 17 10.578125 16.996094 10.574219 16.984375 10.109375 C 16.976562 9.621094 16.949219 9.5625 16.683594 9.398438 C 16.632812 9.367188 16.609375 9.226562 16.601562 8.929688 L 16.59375 8.5 L 15.792969 7.625 L 14.992188 6.757812 L 14.410156 6.734375 C 13.75 6.710938 13.679688 6.671875 13.613281 6.257812 C 13.59375 6.117188 13.53125 6 13.453125 5.929688 C 13.382812 5.871094 13.28125 5.75 13.234375 5.664062 C 13.1875 5.578125 13.101562 5.496094 13.046875 5.476562 C 12.992188 5.457031 12.90625 5.359375 12.851562 5.257812 C 12.765625 5.109375 12.71875 5.070312 12.59375 5.070312 C 12.386719 5.070312 12.265625 5.148438 12.171875 5.339844 C 12.132812 5.429688 12.0625 5.5 12.023438 5.5 C 11.984375 5.5 11.914062 5.570312 11.867188 5.648438 C 11.820312 5.730469 11.71875 5.859375 11.640625 5.933594 C 11.53125 6.03125 11.492188 6.128906 11.476562 6.308594 C 11.4375 6.722656 11.476562 6.710938 9.898438 6.742188 L 8.496094 6.773438 L 8.484375 7.023438 C 8.46875 7.253906 8.480469 7.289062 8.625 7.402344 C 8.710938 7.46875 8.8125 7.59375 8.847656 7.671875 C 8.886719 7.75 8.957031 7.828125 9.007812 7.847656 C 9.054688 7.867188 9.140625 7.960938 9.203125 8.070312 C 9.300781 8.226562 9.34375 8.257812 9.507812 8.257812 C 9.765625 8.257812 9.9375 8.453125 9.9375 8.742188 C 9.9375 9.109375 9.90625 9.117188 8.765625 9.164062 L 7.75 9.203125 L 7.734375 9.460938 C 7.71875 9.710938 7.726562 9.726562 8.003906 10.015625 C 8.15625 10.175781 8.300781 10.308594 8.320312 10.308594 C 8.335938 10.308594 8.390625 10.394531 8.4375 10.5 C 8.484375 10.601562 8.542969 10.6875 8.570312 10.6875 C 8.664062 10.6875 9.167969 11.265625 9.167969 11.375 C 9.167969 11.570312 9.046875 11.609375 8.460938 11.625 L 7.898438 11.640625 L 7.71875 11.429688 C 7.476562 11.140625 7.359375 11.167969 7.335938 11.507812 C 7.328125 11.699219 7.34375 11.78125 7.414062 11.847656 C 7.71875 12.132812 8.066406 12.507812 8.078125 12.5625 C 8.101562 12.632812 8.71875 13.226562 8.773438 13.226562 C 8.789062 13.226562 8.835938 13.296875 8.867188 13.378906 C 8.910156 13.5 8.984375 13.550781 9.226562 13.632812 C 9.507812 13.730469 9.539062 13.757812 9.578125 13.921875 C 9.664062 14.296875 9.949219 14.664062 10.214844 14.742188 C 10.445312 14.808594 10.539062 14.769531 10.636719 14.570312 C 10.738281 14.359375 10.875 14.382812 10.898438 14.617188 C 10.910156 14.757812 10.875 14.835938 10.6875 15.046875 C 10.484375 15.277344 10.4375 15.304688 10.25 15.296875 C 10.132812 15.296875 9.941406 15.277344 9.828125 15.253906 C 9.601562 15.210938 9.585938 15.226562 9.664062 15.390625 C 9.703125 15.460938 9.769531 15.496094 9.886719 15.496094 C 10.085938 15.496094 10.1875 15.640625 10.136719 15.859375 C 10.109375 15.984375 10.085938 15.992188 9.921875 15.960938 C 9.820312 15.945312 9.65625 15.929688 9.554688 15.929688 C 9.398438 15.929688 9.328125 15.882812 9.144531 15.683594 C 8.949219 15.46875 8.917969 15.40625 8.917969 15.210938 C 8.914062 14.898438 8.871094 14.835938 8.640625 14.859375 L 8.445312 14.875 L 8.421875 15.191406 C 8.398438 15.4375 8.367188 15.53125 8.28125 15.609375 C 8.066406 15.796875 7.746094 15.726562 7.6875 15.476562 C 7.628906 15.234375 7.457031 15.21875 7.285156 15.445312 C 7.09375 15.695312 6.980469 15.648438 6.882812 15.28125 C 6.808594 15 6.792969 14.984375 6.585938 14.914062 C 6.25 14.8125 6.1875 14.855469 6.1875 15.1875 C 6.1875 15.59375 6.265625 15.851562 6.433594 15.980469 C 6.542969 16.066406 6.589844 16.164062 6.632812 16.390625 C 6.679688 16.625 6.71875 16.703125 6.824219 16.761719 C 6.898438 16.804688 6.992188 16.898438 7.023438 16.96875 C 7.0625 17.046875 7.144531 17.132812 7.210938 17.164062 C 7.273438 17.195312 7.328125 17.242188 7.328125 17.265625 C 7.328125 17.375 7.539062 17.546875 7.675781 17.546875 C 7.882812 17.546875 8.039062 17.640625 8.132812 17.8125 C 8.210938 17.960938 8.21875 17.964844 8.820312 18 C 9.773438 18.054688 10.648438 18.042969 10.6875 17.976562 C 10.710938 17.929688 11.132812 17.925781 12.191406 17.953125 C 13.46875 17.988281 13.6875 17.984375 13.851562 17.90625 C 13.953125 17.863281 14.035156 17.804688 14.035156 17.773438 C 14.035156 17.65625 13.796875 17.359375 13.6875 17.34375 C 13.621094 17.328125 13.476562 17.253906 13.367188 17.171875 C 13.164062 17.023438 12.742188 16.898438 12.421875 16.898438 C 12.171875 16.898438 11.90625 17.007812 11.730469 17.171875 C 11.640625 17.261719 11.507812 17.332031 11.445312 17.332031 C 11.023438 17.328125 10.992188 17.128906 11.359375 16.738281 C 11.585938 16.492188 11.628906 16.46875 11.792969 16.492188 C 11.890625 16.507812 12.308594 16.53125 12.71875 16.546875 L 13.460938 16.574219 L 13.722656 16.859375 C 13.867188 17.011719 13.984375 17.171875 13.984375 17.207031 C 13.984375 17.242188 14.046875 17.304688 14.125 17.34375 C 14.226562 17.398438 14.265625 17.460938 14.273438 17.609375 C 14.300781 17.957031 14.40625 18.007812 15.097656 18.007812 C 15.621094 18.007812 15.734375 17.992188 15.976562 17.878906 C 16.242188 17.757812 16.261719 17.757812 16.386719 17.84375 C 16.554688 17.960938 16.972656 18 17.53125 17.945312 L 17.96875 17.898438 L 17.671875 17.671875 C 17.328125 17.410156 17.21875 17.394531 16.820312 17.546875 C 16.347656 17.726562 16.289062 17.6875 16.472656 17.3125 C 16.566406 17.125 16.570312 17.050781 16.539062 16.464844 L 16.507812 15.824219 L 16.3125 15.636719 C 16.210938 15.53125 16.125 15.429688 16.125 15.398438 C 16.125 15.375 16.070312 15.320312 16 15.28125 C 15.6875 15.097656 15.871094 14.792969 16.296875 14.792969 C 16.601562 14.792969 16.617188 14.765625 16.617188 14.328125 L 16.617188 14.039062 L 16.78125 14.039062 C 17.007812 14.039062 17.066406 14.121094 17.066406 14.421875 C 17.066406 14.625 17.042969 14.695312 16.960938 14.757812 C 16.90625 14.804688 16.828125 14.828125 16.796875 14.8125 C 16.679688 14.765625 16.632812 14.921875 16.664062 15.199219 C 16.691406 15.410156 16.738281 15.507812 16.882812 15.664062 C 17.058594 15.855469 17.0625 15.867188 17.0625 16.273438 C 17.058594 16.753906 17.105469 16.84375 17.351562 16.84375 C 17.585938 16.84375 17.679688 16.910156 18.042969 17.324219 C 18.40625 17.738281 18.453125 17.929688 18.234375 18.167969 L 18.105469 18.304688 L 13.0625 18.304688 C 8.804688 18.304688 8.023438 18.292969 8.023438 18.230469 Z M 9.515625 15.140625 C 9.515625 15.054688 9.402344 14.902344 9.339844 14.902344 C 9.25 14.902344 9.242188 15.015625 9.328125 15.109375 C 9.386719 15.171875 9.515625 15.195312 9.515625 15.140625 Z M 7.617188 8.945312 C 7.632812 8.816406 7.617188 8.796875 7.503906 8.796875 C 7.367188 8.796875 7.296875 8.90625 7.347656 9.042969 C 7.398438 9.1875 7.601562 9.117188 7.617188 8.945312 Z M 8.363281 6.484375 C 8.34375 6.316406 8.144531 6.242188 8.09375 6.390625 C 8.046875 6.527344 8.113281 6.632812 8.25 6.632812 C 8.359375 6.632812 8.375 6.617188 8.363281 6.484375 Z M 10.765625 13.972656 C 10.699219 13.898438 10.6875 13.65625 10.75 13.65625 C 10.773438 13.65625 10.832031 13.710938 10.882812 13.769531 C 10.960938 13.867188 10.964844 13.890625 10.898438 13.960938 C 10.84375 14.019531 10.8125 14.023438 10.765625 13.972656 Z M 12.125 13.804688 C 11.96875 13.609375 11.933594 13.59375 11.773438 13.621094 C 11.601562 13.652344 11.578125 13.636719 11.140625 13.136719 C 10.890625 12.851562 10.679688 12.585938 10.679688 12.539062 C 10.679688 12.492188 10.738281 12.410156 10.804688 12.351562 C 11 12.199219 11.210938 12.296875 11.574219 12.703125 C 11.742188 12.890625 11.921875 13.074219 11.976562 13.101562 C 12.03125 13.136719 12.515625 13.164062 13.140625 13.164062 C 14.398438 13.171875 14.433594 13.1875 14.433594 13.59375 C 14.433594 13.976562 14.398438 13.992188 13.261719 14.003906 L 12.300781 14.015625 Z M 9.632812 13.585938 C 9.617188 13.542969 9.613281 13.4375 9.625 13.351562 C 9.640625 13.199219 9.640625 13.199219 9.960938 13.21875 C 10.296875 13.238281 10.511719 13.3125 10.546875 13.429688 C 10.574219 13.519531 10.398438 13.582031 10 13.628906 C 9.726562 13.660156 9.65625 13.652344 9.632812 13.585938 Z M 15.191406 12.652344 C 15.171875 12.597656 15.15625 11.726562 15.15625 10.714844 L 15.15625 8.875 L 15.320312 8.890625 C 15.539062 8.910156 15.839844 9.085938 15.9375 9.246094 C 16.132812 9.570312 16.253906 11.375 16.117188 11.882812 C 16.035156 12.167969 15.820312 12.429688 15.59375 12.515625 C 15.488281 12.558594 15.363281 12.628906 15.316406 12.671875 C 15.238281 12.746094 15.226562 12.742188 15.191406 12.652344 Z M 13.9375 12.507812 C 13.632812 12.34375 13.609375 12.320312 13.492188 12.011719 C 13.390625 11.734375 13.375 11.597656 13.375 11.039062 C 13.375 10.152344 13.5 9.359375 13.679688 9.160156 C 13.792969 9.027344 14.1875 8.851562 14.367188 8.851562 C 14.421875 8.851562 14.4375 9.164062 14.429688 10.566406 C 14.429688 12.34375 14.410156 12.6875 14.3125 12.683594 C 14.285156 12.679688 14.113281 12.601562 13.9375 12.507812 Z M 13.9375 12.507812 "/>
<path style=" stroke:none;fill-rule:nonzero;fill:rgb(14.117647%,12.54902%,19.215686%);fill-opacity:1;" d="M 7.988281 18.164062 C 7.90625 18.070312 7.828125 18.035156 7.675781 18.035156 C 7.484375 18.035156 7.445312 18 6.828125 17.335938 C 6.195312 16.652344 6.1875 16.640625 6.1875 16.398438 C 6.1875 16.117188 6.121094 16.039062 5.839844 15.996094 L 5.640625 15.96875 L 5.640625 14.851562 L 5.875 14.835938 C 6.054688 14.824219 6.121094 14.796875 6.164062 14.703125 C 6.269531 14.46875 6.34375 14.414062 6.566406 14.414062 C 6.765625 14.414062 6.796875 14.433594 6.886719 14.601562 C 7 14.804688 7.070312 14.84375 7.3125 14.835938 C 7.625 14.828125 7.75 15.117188 7.480469 15.21875 C 7.398438 15.25 7.300781 15.34375 7.253906 15.441406 C 7.125 15.710938 6.976562 15.648438 6.882812 15.28125 C 6.808594 15 6.792969 14.984375 6.585938 14.914062 C 6.25 14.8125 6.1875 14.855469 6.1875 15.1875 C 6.1875 15.59375 6.265625 15.851562 6.433594 15.980469 C 6.542969 16.066406 6.589844 16.164062 6.632812 16.390625 C 6.679688 16.625 6.71875 16.703125 6.824219 16.761719 C 6.898438 16.804688 6.992188 16.898438 7.023438 16.96875 C 7.0625 17.046875 7.144531 17.132812 7.210938 17.164062 C 7.273438 17.195312 7.328125 17.242188 7.328125 17.265625 C 7.328125 17.375 7.539062 17.546875 7.675781 17.546875 C 7.882812 17.546875 8.039062 17.640625 8.132812 17.816406 L 8.210938 17.96875 L 9.050781 18.015625 C 9.6875 18.046875 14.484375 18.0625 16.070312 18.039062 C 16.195312 18.039062 16.699219 18.054688 17.1875 18.078125 C 17.984375 18.109375 18.085938 18.125 18.101562 18.210938 C 18.117188 18.300781 17.851562 18.304688 13.109375 18.296875 L 8.101562 18.292969 Z M 18.171875 18.023438 C 18.140625 17.984375 18.109375 17.90625 18.101562 17.847656 C 18.09375 17.789062 18.027344 17.710938 17.960938 17.671875 C 17.890625 17.636719 17.789062 17.539062 17.726562 17.460938 C 17.628906 17.328125 17.585938 17.3125 17.15625 17.28125 L 16.695312 17.25 L 16.660156 17.035156 C 16.640625 16.914062 16.625 16.585938 16.621094 16.296875 L 16.617188 15.773438 L 16.457031 15.648438 C 16.367188 15.585938 16.277344 15.492188 16.25 15.449219 C 16.226562 15.40625 16.144531 15.296875 16.066406 15.210938 C 15.8125 14.917969 15.886719 14.792969 16.320312 14.792969 C 16.597656 14.792969 16.617188 14.757812 16.617188 14.328125 C 16.617188 14.070312 16.632812 14.039062 16.722656 14.039062 C 16.929688 14.039062 17.015625 14.132812 17.015625 14.375 C 17.015625 14.648438 16.988281 14.699219 16.792969 14.796875 C 16.664062 14.867188 16.640625 14.910156 16.628906 15.113281 C 16.605469 15.464844 16.648438 15.585938 16.820312 15.648438 C 17.007812 15.71875 17.058594 15.875 17.03125 16.265625 C 16.996094 16.683594 17.089844 16.84375 17.363281 16.84375 C 17.53125 16.84375 17.59375 16.882812 17.828125 17.132812 C 17.976562 17.285156 18.125 17.46875 18.15625 17.535156 C 18.1875 17.601562 18.246094 17.65625 18.285156 17.65625 C 18.335938 17.65625 18.359375 17.71875 18.359375 17.875 C 18.359375 18.09375 18.273438 18.160156 18.171875 18.023438 Z M 7.808594 15.613281 C 7.679688 15.460938 7.707031 15.292969 7.875 15.199219 C 7.957031 15.152344 8.0625 15.054688 8.105469 14.980469 C 8.148438 14.90625 8.238281 14.832031 8.304688 14.8125 C 8.414062 14.785156 8.421875 14.753906 8.421875 14.460938 C 8.421875 14.148438 8.425781 14.140625 8.589844 14.0625 C 8.699219 14.015625 8.765625 13.941406 8.78125 13.855469 C 8.808594 13.695312 8.742188 13.550781 8.640625 13.550781 C 8.597656 13.550781 8.351562 13.3125 8.09375 13.023438 C 7.832031 12.734375 7.605469 12.480469 7.585938 12.460938 C 7.570312 12.4375 7.414062 12.277344 7.242188 12.101562 C 6.949219 11.796875 6.929688 11.761719 6.929688 11.527344 C 6.929688 11.316406 6.949219 11.273438 7.054688 11.21875 C 7.125 11.183594 7.222656 11.078125 7.277344 10.976562 C 7.398438 10.75 7.507812 10.75 7.671875 10.960938 C 7.84375 11.179688 8.199219 11.242188 8.335938 11.078125 C 8.445312 10.949219 8.414062 10.84375 8.226562 10.726562 C 8.144531 10.671875 8.066406 10.582031 8.046875 10.523438 C 8.03125 10.464844 7.953125 10.378906 7.867188 10.335938 C 7.789062 10.289062 7.695312 10.191406 7.664062 10.117188 C 7.636719 10.046875 7.539062 9.9375 7.445312 9.878906 C 7.289062 9.78125 7.28125 9.757812 7.28125 9.46875 L 7.28125 9.167969 L 7.464844 9.1875 L 7.652344 9.203125 L 7.664062 9.511719 C 7.679688 9.765625 7.703125 9.832031 7.789062 9.882812 C 7.851562 9.914062 7.984375 10.03125 8.085938 10.140625 C 8.183594 10.25 8.3125 10.382812 8.367188 10.445312 C 8.425781 10.503906 8.5 10.585938 8.53125 10.621094 C 8.570312 10.65625 8.726562 10.820312 8.882812 10.980469 C 9.15625 11.261719 9.222656 11.414062 9.117188 11.53125 C 9.085938 11.5625 8.839844 11.578125 8.507812 11.570312 C 8.203125 11.5625 7.921875 11.554688 7.890625 11.554688 C 7.851562 11.554688 7.765625 11.476562 7.691406 11.386719 C 7.492188 11.140625 7.359375 11.1875 7.335938 11.507812 C 7.328125 11.734375 7.34375 11.777344 7.5 11.953125 C 7.597656 12.054688 7.675781 12.164062 7.675781 12.195312 C 7.675781 12.226562 7.742188 12.289062 7.820312 12.339844 C 7.898438 12.390625 8 12.515625 8.042969 12.613281 C 8.085938 12.714844 8.160156 12.796875 8.210938 12.796875 C 8.339844 12.800781 8.765625 13.242188 8.8125 13.414062 C 8.835938 13.523438 8.898438 13.582031 9.039062 13.632812 C 9.261719 13.71875 9.320312 13.796875 9.304688 13.984375 C 9.292969 14.09375 9.257812 14.121094 9.132812 14.132812 C 8.953125 14.152344 8.929688 14.203125 8.90625 14.601562 C 8.894531 14.820312 8.890625 14.820312 8.671875 14.847656 L 8.445312 14.875 L 8.421875 15.191406 C 8.398438 15.4375 8.367188 15.53125 8.28125 15.609375 C 8.132812 15.738281 7.914062 15.742188 7.808594 15.613281 Z M 12.125 13.804688 C 11.96875 13.609375 11.933594 13.59375 11.773438 13.621094 C 11.601562 13.652344 11.578125 13.636719 11.140625 13.136719 C 10.890625 12.851562 10.679688 12.585938 10.679688 12.539062 C 10.679688 12.492188 10.738281 12.410156 10.804688 12.351562 C 11 12.199219 11.210938 12.296875 11.574219 12.703125 C 11.742188 12.890625 11.929688 13.078125 11.992188 13.113281 C 12.0625 13.15625 12.484375 13.191406 13.171875 13.210938 C 14 13.234375 14.257812 13.261719 14.3125 13.320312 C 14.40625 13.421875 14.40625 13.84375 14.3125 13.925781 C 14.261719 13.96875 13.9375 13.992188 13.269531 14.003906 L 12.300781 14.015625 Z M 15.273438 13.9375 C 15.203125 13.890625 15.179688 13.804688 15.179688 13.640625 C 15.179688 13.261719 15.179688 13.261719 16.101562 13.199219 C 16.753906 13.15625 16.941406 13.125 16.960938 13.0625 C 16.972656 13.019531 17.066406 12.898438 17.171875 12.796875 C 17.34375 12.617188 17.355469 12.582031 17.367188 12.253906 C 17.375 12.0625 17.378906 11.6875 17.375 11.421875 C 17.367188 10.945312 17.367188 10.945312 17.179688 10.761719 C 16.996094 10.578125 16.996094 10.578125 16.984375 10.109375 C 16.976562 9.648438 16.972656 9.636719 16.8125 9.492188 C 16.65625 9.355469 16.644531 9.320312 16.617188 8.921875 L 16.585938 8.5 L 15.789062 7.625 L 14.992188 6.757812 L 14.421875 6.734375 C 14.054688 6.722656 13.824219 6.691406 13.773438 6.648438 C 13.734375 6.609375 13.683594 6.445312 13.664062 6.289062 C 13.636719 6.039062 13.605469 5.972656 13.464844 5.855469 C 13.375 5.78125 13.285156 5.671875 13.269531 5.625 C 13.253906 5.570312 13.175781 5.488281 13.097656 5.4375 C 13.015625 5.390625 12.921875 5.28125 12.882812 5.195312 C 12.828125 5.070312 12.78125 5.039062 12.625 5.023438 C 12.328125 5 12.210938 5.046875 12.15625 5.230469 C 12.125 5.324219 12.046875 5.414062 11.976562 5.445312 C 11.90625 5.476562 11.820312 5.566406 11.789062 5.648438 C 11.757812 5.730469 11.679688 5.859375 11.617188 5.9375 C 11.539062 6.027344 11.488281 6.167969 11.476562 6.3125 C 11.4375 6.726562 11.46875 6.71875 9.996094 6.703125 C 9.28125 6.695312 8.644531 6.675781 8.585938 6.664062 C 8.492188 6.640625 8.46875 6.59375 8.46875 6.445312 L 8.46875 6.25 L 10.875 6.273438 L 11.003906 6.117188 C 11.074219 6.03125 11.195312 5.917969 11.265625 5.867188 C 11.34375 5.8125 11.402344 5.742188 11.402344 5.714844 C 11.402344 5.625 11.925781 5.078125 12.066406 5.015625 C 12.179688 4.96875 12.195312 4.933594 12.195312 4.71875 L 12.195312 4.476562 L 12.890625 4.476562 L 12.890625 4.742188 C 12.890625 4.988281 12.90625 5.015625 13.023438 5.046875 C 13.171875 5.089844 13.585938 5.523438 13.671875 5.734375 C 13.710938 5.8125 13.757812 5.878906 13.78125 5.878906 C 13.808594 5.878906 13.9375 5.976562 14.0625 6.09375 C 14.289062 6.3125 14.296875 6.3125 14.601562 6.28125 L 14.914062 6.242188 L 15.96875 7.382812 L 17.015625 8.523438 L 17.015625 8.933594 C 17.015625 9.320312 17.023438 9.355469 17.171875 9.511719 C 17.375 9.734375 17.40625 9.84375 17.375 10.234375 C 17.351562 10.585938 17.335938 10.550781 17.664062 10.863281 C 17.75 10.945312 17.761719 11.03125 17.769531 11.617188 C 17.78125 12.53125 17.773438 12.59375 17.648438 12.695312 C 17.585938 12.75 17.507812 12.824219 17.46875 12.867188 C 17.285156 13.078125 17.152344 13.222656 16.914062 13.460938 C 16.773438 13.605469 16.640625 13.789062 16.625 13.867188 L 16.585938 14.007812 L 15.976562 14.007812 C 15.554688 14.007812 15.335938 13.988281 15.273438 13.9375 Z M 14.257812 12.519531 C 14.203125 12.492188 14.0625 12.445312 13.945312 12.414062 C 13.757812 12.363281 13.71875 12.328125 13.625 12.101562 C 13.492188 11.777344 13.453125 10.835938 13.539062 10.070312 C 13.609375 9.386719 13.664062 9.207031 13.800781 9.132812 C 13.898438 9.078125 14.292969 8.960938 14.398438 8.960938 C 14.445312 8.960938 14.4375 12.351562 14.390625 12.476562 C 14.367188 12.539062 14.332031 12.550781 14.257812 12.519531 Z M 15.164062 12.484375 C 15.148438 12.460938 15.140625 11.671875 15.144531 10.742188 L 15.15625 9.039062 L 15.382812 9.042969 C 15.683594 9.046875 15.859375 9.171875 15.914062 9.429688 C 16.152344 10.507812 16.117188 11.933594 15.84375 12.257812 C 15.796875 12.316406 15.667969 12.390625 15.554688 12.421875 C 15.445312 12.453125 15.3125 12.488281 15.269531 12.5 C 15.226562 12.515625 15.175781 12.507812 15.164062 12.484375 Z M 6.992188 9.054688 C 6.890625 8.949219 6.921875 8.855469 7.085938 8.742188 C 7.175781 8.6875 7.273438 8.566406 7.3125 8.476562 C 7.382812 8.292969 7.476562 8.265625 7.601562 8.394531 C 7.71875 8.53125 7.699219 8.6875 7.554688 8.6875 C 7.34375 8.6875 7.28125 8.742188 7.28125 8.9375 C 7.28125 9.09375 7.261719 9.121094 7.164062 9.121094 C 7.101562 9.121094 7.023438 9.09375 6.992188 9.054688 Z M 7.757812 9.085938 C 7.742188 9.0625 7.726562 8.984375 7.726562 8.898438 C 7.726562 8.757812 7.742188 8.75 7.984375 8.71875 C 8.132812 8.703125 8.425781 8.695312 8.640625 8.703125 C 9.03125 8.714844 9.039062 8.710938 9.117188 8.5625 C 9.1875 8.414062 9.1875 8.40625 9.09375 8.34375 C 9.039062 8.3125 8.929688 8.210938 8.84375 8.121094 C 8.761719 8.03125 8.632812 7.914062 8.558594 7.863281 C 8.484375 7.8125 8.421875 7.734375 8.421875 7.6875 C 8.421875 7.648438 8.359375 7.570312 8.285156 7.515625 C 8.070312 7.375 8.023438 7.28125 8.023438 7.003906 C 8.023438 6.742188 8.023438 6.742188 8.195312 6.742188 C 8.386719 6.742188 8.421875 6.804688 8.421875 7.148438 C 8.421875 7.34375 8.445312 7.398438 8.53125 7.453125 C 8.59375 7.484375 8.734375 7.609375 8.84375 7.722656 C 8.953125 7.835938 9.109375 8.003906 9.195312 8.09375 C 9.289062 8.195312 9.417969 8.265625 9.550781 8.289062 C 9.8125 8.335938 9.9375 8.476562 9.9375 8.742188 C 9.9375 9.109375 9.929688 9.109375 8.800781 9.117188 C 8.25 9.117188 7.78125 9.105469 7.757812 9.085938 Z M 7.753906 6.605469 C 7.710938 6.558594 7.675781 6.5 7.675781 6.472656 C 7.675781 6.398438 7.828125 6.257812 7.902344 6.257812 C 7.941406 6.257812 8.007812 6.171875 8.046875 6.070312 C 8.128906 5.851562 8.289062 5.8125 8.371094 5.984375 C 8.46875 6.179688 8.433594 6.25 8.234375 6.265625 C 8.058594 6.28125 8.046875 6.296875 8.03125 6.484375 C 8.023438 6.640625 8 6.6875 7.925781 6.6875 C 7.875 6.6875 7.796875 6.652344 7.753906 6.605469 Z M 7.753906 6.605469 "/>
</g>
</svg>
