
<svg xmlns="http://www.w3.org/2000/svg" xmlns:xlink="http://www.w3.org/1999/xlink" width="24px" height="24px" viewBox="0 0 24 24" version="1.1">
<g id="surface1">
<path style=" stroke:none;fill-rule:nonzero;fill:rgb(19.607843%,80.392157%,19.607843%);fill-opacity:1;" d="M 4.945312 21.65625 C 22.992188 33.65625 34.101562 -4.601562 10.78125 0.464844 C 1.140625 2.625 -4.710938 16.15625 4.945312 21.65625 Z M 4.945312 21.65625 "/>
<path style=" stroke:none;fill-rule:nonzero;fill:rgb(18.039216%,80%,44.313725%);fill-opacity:1;" d="M 6.859375 6.679688 L 17.535156 6.679688 L 17.535156 17.03125 L 6.859375 17.03125 Z M 6.859375 6.679688 "/>
<path style=" stroke:none;fill-rule:nonzero;fill:rgb(92.54902%,94.117647%,94.509804%);fill-opacity:1;" d="M 7.664062 10.042969 L 14.601562 10.042969 L 14.601562 16.257812 L 7.664062 16.257812 Z M 7.664062 10.042969 "/>
<path style=" stroke:none;fill-rule:nonzero;fill:rgb(92.54902%,94.117647%,94.509804%);fill-opacity:1;" d="M 15.398438 10.042969 L 16.734375 10.042969 L 16.734375 16.257812 L 15.398438 16.257812 Z M 15.398438 10.042969 "/>
<path style=" stroke:none;fill-rule:nonzero;fill:rgb(92.54902%,94.117647%,94.509804%);fill-opacity:1;" d="M 7.664062 7.453125 L 14.601562 7.453125 L 14.601562 9.265625 L 7.664062 9.265625 Z M 7.664062 7.453125 "/>
<path style=" stroke:none;fill-rule:nonzero;fill:rgb(92.54902%,94.117647%,94.509804%);fill-opacity:1;" d="M 15.398438 7.453125 L 16.734375 7.453125 L 16.734375 9.265625 L 15.398438 9.265625 Z M 15.398438 7.453125 "/>
</g>
</svg>
