
<svg xmlns="http://www.w3.org/2000/svg" xmlns:xlink="http://www.w3.org/1999/xlink" width="24px" height="24px" viewBox="0 0 24 24" version="1.1">
<g id="surface1">
<path style=" stroke:none;fill-rule:nonzero;fill:rgb(100%,100%,94.117647%);fill-opacity:1;" d="M 19.65625 21.386719 C 5.257812 32.507812 -9.683594 4.808594 8.136719 0.761719 C 19.359375 -3.390625 30.324219 13.144531 19.65625 21.386719 Z M 19.65625 21.386719 "/>
<path style=" stroke:none;fill-rule:nonzero;fill:rgb(87.843137%,86.666667%,20%);fill-opacity:1;" d="M 13.207031 17.363281 C 12.488281 16.882812 11.742188 16.609375 10.320312 16.3125 C 9.101562 16.058594 7.523438 15.640625 7.101562 15.460938 C 6.910156 15.378906 6.515625 15.3125 6.226562 15.3125 C 5.050781 15.3125 4.570312 14.8125 4.457031 13.460938 C 4.402344 12.789062 4.445312 12.5625 4.820312 11.640625 C 5.058594 11.0625 5.351562 10.300781 5.46875 9.949219 C 5.632812 9.460938 5.832031 9.195312 6.28125 8.84375 C 6.609375 8.59375 7.019531 8.125 7.191406 7.808594 C 7.601562 7.054688 8.140625 6.578125 8.785156 6.394531 C 9.070312 6.3125 9.417969 6.167969 9.5625 6.070312 C 10.03125 5.746094 10.84375 5.574219 11.226562 5.71875 C 11.453125 5.804688 11.726562 5.808594 11.984375 5.730469 C 12.246094 5.648438 12.644531 5.65625 13.128906 5.753906 C 13.539062 5.835938 14.292969 5.984375 14.800781 6.082031 C 15.429688 6.207031 16.144531 6.488281 17.023438 6.960938 C 18.648438 7.835938 19.855469 9.042969 20.480469 10.421875 C 20.863281 11.269531 20.882812 11.375 20.832031 12.484375 C 20.796875 13.226562 20.699219 13.808594 20.566406 14.082031 C 20.152344 14.933594 18.972656 15.488281 17.148438 15.6875 L 16.347656 15.777344 L 16.304688 16.375 C 16.257812 17.097656 16.160156 17.238281 15.449219 17.574219 C 14.640625 17.960938 14.003906 17.898438 13.207031 17.363281 Z M 13.207031 17.363281 "/>
<path style=" stroke:none;fill-rule:nonzero;fill:rgb(83.529412%,60%,18.823529%);fill-opacity:1;" d="M 13.257812 17.367188 C 12.4375 16.863281 11.554688 16.550781 10.421875 16.359375 C 10.011719 16.292969 9.480469 16.15625 9.242188 16.058594 C 9.003906 15.960938 8.542969 15.835938 8.21875 15.785156 C 7.890625 15.734375 7.433594 15.609375 7.203125 15.503906 C 6.96875 15.398438 6.535156 15.3125 6.238281 15.3125 C 5.046875 15.3125 4.570312 14.816406 4.457031 13.460938 C 4.402344 12.789062 4.445312 12.558594 4.820312 11.640625 C 5.054688 11.0625 5.351562 10.292969 5.484375 9.929688 C 5.664062 9.445312 5.867188 9.167969 6.25 8.886719 C 6.539062 8.679688 6.960938 8.195312 7.191406 7.808594 C 7.691406 6.96875 8.121094 6.582031 8.773438 6.394531 C 9.042969 6.316406 9.480469 6.128906 9.746094 5.980469 C 10.011719 5.832031 10.4375 5.714844 10.691406 5.714844 C 11.21875 5.722656 11.996094 5.714844 12.453125 5.703125 C 12.753906 5.695312 13.703125 5.855469 14.988281 6.132812 C 15.328125 6.203125 16.242188 6.601562 17.023438 7.015625 C 18.191406 7.636719 18.59375 7.929688 19.265625 8.664062 C 19.777344 9.222656 20.230469 9.882812 20.484375 10.4375 C 20.863281 11.269531 20.882812 11.375 20.832031 12.484375 C 20.796875 13.226562 20.699219 13.808594 20.566406 14.082031 C 20.144531 14.945312 18.945312 15.5 17.085938 15.691406 L 16.222656 15.777344 L 16.261719 16.167969 C 16.332031 16.882812 16.1875 17.15625 15.542969 17.503906 C 14.714844 17.960938 14.167969 17.925781 13.257812 17.367188 Z M 17.3125 14.144531 C 17.351562 13.945312 17.417969 13.621094 17.464844 13.417969 C 17.523438 13.167969 17.496094 13.035156 17.378906 12.992188 C 16.460938 12.640625 16.484375 12.660156 16.699219 12.40625 C 16.8125 12.273438 16.902344 12.007812 16.902344 11.8125 C 16.902344 11.394531 16.480469 10.890625 16.183594 10.949219 C 15.914062 11.007812 15.640625 11.628906 15.640625 12.199219 C 15.640625 12.449219 15.59375 12.6875 15.53125 12.726562 C 15.472656 12.765625 15.160156 12.703125 14.835938 12.582031 C 14.144531 12.332031 13.503906 12.417969 13.285156 12.792969 C 13.203125 12.933594 13.070312 13.050781 12.988281 13.050781 C 12.753906 13.050781 12.664062 13.3125 12.828125 13.523438 C 13.042969 13.800781 13.320312 13.761719 13.320312 13.449219 C 13.320312 13.304688 13.378906 13.183594 13.449219 13.183594 C 13.671875 13.183594 14.234375 13.542969 14.488281 13.847656 C 14.691406 14.085938 14.820312 14.121094 15.230469 14.058594 C 15.636719 13.996094 15.84375 14.050781 16.347656 14.367188 C 17.019531 14.789062 17.199219 14.746094 17.3125 14.144531 Z M 8.003906 14.546875 C 8.003906 14.492188 7.921875 14.207031 7.824219 13.917969 C 7.726562 13.625 7.640625 12.933594 7.632812 12.386719 C 7.617188 11.078125 7.292969 9.941406 6.925781 9.882812 C 6.722656 9.851562 6.636719 9.929688 6.574219 10.199219 C 6.449219 10.734375 6.636719 13.175781 6.835938 13.589844 C 7.109375 14.160156 8.011719 14.898438 8.003906 14.546875 Z M 11.835938 11.53125 C 11.835938 11.496094 11.78125 11.433594 11.710938 11.390625 C 11.644531 11.34375 11.589844 11.371094 11.589844 11.449219 C 11.589844 11.527344 11.644531 11.589844 11.710938 11.589844 C 11.78125 11.589844 11.835938 11.5625 11.835938 11.53125 Z M 13.003906 10.609375 C 13.199219 10.457031 13.222656 10.316406 13.15625 9.648438 C 13.015625 8.203125 12.578125 7.390625 12.578125 8.570312 C 12.578125 8.972656 12.484375 9.277344 12.269531 9.59375 C 11.910156 10.117188 11.886719 10.296875 12.152344 10.582031 C 12.390625 10.839844 12.703125 10.847656 13.003906 10.609375 Z M 16.832031 9.714844 L 17.273438 9.433594 L 17.027344 9.066406 C 16.800781 8.722656 15.851562 8.132812 15.527344 8.132812 C 15.320312 8.132812 15.46875 8.910156 15.789062 9.496094 C 16.101562 10.070312 16.230469 10.097656 16.832031 9.714844 Z M 16.832031 9.714844 "/>
<path style=" stroke:none;fill-rule:nonzero;fill:rgb(65.098039%,58.431373%,18.039216%);fill-opacity:1;" d="M 13.859375 17.714844 C 13.71875 17.648438 13.570312 17.507812 13.53125 17.398438 C 13.492188 17.292969 13.277344 17.097656 13.050781 16.972656 C 12.636719 16.738281 12.296875 16.65625 10.601562 16.382812 C 10.089844 16.300781 9.480469 16.152344 9.242188 16.054688 C 9.003906 15.957031 8.542969 15.835938 8.21875 15.785156 C 7.890625 15.734375 7.433594 15.609375 7.203125 15.503906 C 6.96875 15.398438 6.535156 15.3125 6.238281 15.3125 C 5.046875 15.3125 4.570312 14.816406 4.457031 13.460938 C 4.402344 12.789062 4.445312 12.558594 4.820312 11.640625 C 5.054688 11.0625 5.351562 10.296875 5.484375 9.9375 C 5.65625 9.460938 5.871094 9.171875 6.277344 8.863281 C 6.582031 8.632812 6.957031 8.238281 7.105469 7.988281 C 7.671875 7.042969 7.796875 6.914062 8.355469 6.644531 C 8.671875 6.492188 9.210938 6.234375 9.550781 6.066406 C 10.371094 5.664062 10.859375 5.566406 11.25 5.726562 C 11.457031 5.808594 11.71875 5.8125 11.980469 5.730469 C 12.738281 5.496094 15.382812 6.199219 17.148438 7.101562 C 18.667969 7.882812 19.65625 8.851562 20.359375 10.261719 C 20.765625 11.070312 20.789062 11.199219 20.792969 12.386719 C 20.792969 13.867188 20.617188 14.335938 19.871094 14.84375 C 19.21875 15.285156 17.699219 15.710938 16.769531 15.710938 C 16.015625 15.710938 16.011719 15.707031 15.410156 15.011719 C 15.078125 14.628906 14.804688 14.277344 14.804688 14.230469 C 14.800781 14.183594 15 14.105469 15.242188 14.054688 C 15.597656 13.984375 15.808594 14.042969 16.332031 14.363281 C 16.691406 14.578125 17.042969 14.71875 17.113281 14.667969 C 17.183594 14.621094 17.371094 14.25 17.53125 13.851562 C 17.6875 13.449219 17.863281 13.097656 17.914062 13.074219 C 17.96875 13.050781 18.015625 12.945312 18.015625 12.839844 C 18.015625 12.582031 17.335938 10.980469 17.179688 10.878906 C 17.113281 10.835938 16.816406 10.84375 16.519531 10.898438 C 15.90625 11.011719 15.640625 11.402344 15.640625 12.199219 C 15.640625 12.449219 15.59375 12.6875 15.53125 12.726562 C 15.472656 12.765625 15.160156 12.703125 14.835938 12.582031 C 14.144531 12.332031 13.503906 12.417969 13.285156 12.792969 C 13.097656 13.117188 12.875 13.117188 12.292969 12.800781 C 12.042969 12.660156 11.808594 12.59375 11.777344 12.648438 C 11.746094 12.703125 11.882812 12.980469 12.082031 13.265625 C 12.496094 13.851562 12.53125 13.984375 12.277344 13.984375 C 11.765625 13.984375 12.078125 14.292969 13.117188 14.828125 C 13.757812 15.15625 14.316406 15.488281 14.363281 15.566406 C 14.40625 15.644531 14.390625 15.8125 14.328125 15.9375 C 14.257812 16.070312 14.253906 16.289062 14.316406 16.464844 C 14.398438 16.703125 14.363281 16.808594 14.152344 16.972656 C 13.882812 17.171875 13.882812 17.175781 14.25 17.171875 C 14.886719 17.164062 15.554688 16.941406 15.863281 16.628906 L 16.160156 16.332031 L 16.160156 16.683594 C 16.160156 17.367188 14.613281 18.0625 13.859375 17.714844 Z M 10.363281 14.832031 L 10.640625 14.351562 L 10.0625 13.78125 C 9.222656 12.949219 9.300781 12.476562 10.183594 13.0625 C 10.667969 13.382812 10.695312 13.304688 10.355469 12.585938 C 10.21875 12.300781 10.105469 11.914062 10.105469 11.734375 C 10.105469 11.414062 10.121094 11.417969 10.523438 11.894531 C 10.753906 12.164062 11.0625 12.386719 11.203125 12.386719 C 11.527344 12.386719 11.527344 12.425781 11.15625 11.570312 C 10.808594 10.757812 10.726562 9.6875 11.027344 9.808594 C 11.128906 9.851562 11.238281 9.984375 11.273438 10.105469 C 11.339844 10.332031 12.175781 10.789062 12.523438 10.789062 C 12.949219 10.789062 13.195312 10.523438 13.195312 10.0625 C 13.195312 8.875 12.703125 7.597656 12.246094 7.597656 C 12.097656 7.597656 12.074219 7.683594 12.140625 7.964844 C 12.335938 8.800781 12.292969 8.984375 11.90625 9.019531 C 11.703125 9.035156 11.386719 9.171875 11.199219 9.320312 C 11.011719 9.472656 10.804688 9.59375 10.742188 9.59375 C 10.679688 9.59375 10.449219 9.890625 10.234375 10.25 C 9.921875 10.773438 9.777344 10.90625 9.511719 10.898438 C 9.328125 10.898438 9.023438 10.960938 8.832031 11.042969 C 8.640625 11.125 8.410156 11.191406 8.320312 11.191406 C 8.125 11.191406 7.902344 10.625 7.855469 9.992188 C 7.816406 9.488281 7.691406 9.429688 7.109375 9.632812 C 6.558594 9.828125 6.480469 10.144531 6.570312 11.761719 C 6.65625 13.257812 6.789062 13.710938 7.285156 14.203125 C 7.5625 14.476562 9.457031 15.277344 9.878906 15.300781 C 9.992188 15.308594 10.210938 15.097656 10.363281 14.832031 Z M 11.835938 11.53125 C 11.835938 11.496094 11.78125 11.433594 11.710938 11.390625 C 11.644531 11.34375 11.589844 11.371094 11.589844 11.449219 C 11.589844 11.527344 11.644531 11.589844 11.710938 11.589844 C 11.78125 11.589844 11.835938 11.5625 11.835938 11.53125 Z M 18.425781 10.359375 C 18.609375 10.210938 18.488281 10.050781 17.324219 8.929688 C 15.910156 7.566406 15.585938 7.324219 15.328125 7.429688 C 14.851562 7.625 15.878906 10.121094 16.441406 10.128906 C 16.59375 10.132812 16.855469 10.222656 17.023438 10.324219 C 17.410156 10.5625 18.144531 10.578125 18.425781 10.359375 Z M 10.105469 7.335938 C 10.316406 7.191406 10.1875 7.011719 9.78125 6.878906 C 9.496094 6.785156 9.0625 7.125 9.1875 7.34375 C 9.277344 7.503906 9.867188 7.496094 10.105469 7.335938 Z M 10.105469 7.335938 "/>
<path style=" stroke:none;fill-rule:nonzero;fill:rgb(81.960784%,40%,18.823529%);fill-opacity:1;" d="M 13.875 17.441406 C 13.785156 17.28125 13.90625 17.28125 14.246094 17.441406 C 14.484375 17.550781 14.484375 17.554688 14.222656 17.5625 C 14.074219 17.570312 13.917969 17.511719 13.875 17.441406 Z M 14.679688 17.441406 C 14.921875 17.269531 15.207031 17.269531 15.109375 17.441406 C 15.066406 17.511719 14.914062 17.574219 14.761719 17.570312 C 14.542969 17.570312 14.527344 17.546875 14.679688 17.441406 Z M 12.945312 16.929688 C 12.375 16.601562 11.292969 16.269531 10.574219 16.203125 C 9.847656 16.128906 8.824219 15.597656 8.765625 15.261719 C 8.71875 14.996094 8.6875 14.996094 9.8125 15.273438 C 10.011719 15.320312 10.140625 15.21875 10.359375 14.835938 L 10.648438 14.335938 L 10.128906 13.855469 C 9.363281 13.144531 9.496094 12.847656 10.398438 13.253906 C 10.609375 13.347656 10.621094 13.308594 10.542969 12.808594 L 10.457031 12.257812 L 10.960938 12.335938 C 11.285156 12.382812 11.464844 12.359375 11.464844 12.265625 C 11.464844 12.1875 11.550781 12.121094 11.652344 12.121094 C 11.785156 12.121094 11.824219 12.21875 11.785156 12.449219 C 11.753906 12.644531 11.824219 12.902344 11.96875 13.101562 C 12.234375 13.464844 12.277344 13.855469 12.070312 14.074219 C 11.972656 14.183594 12.253906 14.386719 13.109375 14.824219 C 13.753906 15.15625 14.316406 15.488281 14.363281 15.566406 C 14.40625 15.644531 14.390625 15.8125 14.328125 15.9375 C 14.257812 16.070312 14.253906 16.289062 14.316406 16.464844 C 14.398438 16.703125 14.363281 16.808594 14.152344 16.972656 C 13.796875 17.238281 13.46875 17.226562 12.945312 16.929688 Z M 7.203125 15.496094 C 6.929688 15.386719 6.359375 15.265625 5.929688 15.21875 C 5.300781 15.15625 5.109375 15.078125 4.914062 14.808594 C 4.328125 14.011719 4.304688 12.679688 4.855469 11.667969 C 5.027344 11.351562 5.25 10.789062 5.355469 10.417969 C 5.570312 9.632812 6.070312 8.929688 6.410156 8.929688 C 6.699219 8.929688 6.703125 9.019531 6.449219 9.949219 C 6.292969 10.535156 6.28125 10.796875 6.386719 11.261719 C 6.460938 11.578125 6.523438 12.066406 6.527344 12.347656 C 6.53125 13.125 6.925781 13.894531 7.75 14.726562 C 8.164062 15.144531 8.5 15.535156 8.5 15.597656 C 8.5 15.773438 7.753906 15.714844 7.203125 15.496094 Z M 16.332031 15.582031 C 15.925781 15.40625 15.105469 14.265625 15.265625 14.097656 C 15.421875 13.925781 15.761719 14.03125 16.304688 14.425781 C 16.53125 14.589844 16.902344 14.804688 17.125 14.90625 C 17.488281 15.0625 17.558594 15.058594 17.738281 14.867188 C 17.929688 14.664062 17.929688 14.648438 17.730469 14.648438 C 17.457031 14.648438 17.464844 14.503906 17.78125 13.5625 L 18.046875 12.785156 L 17.78125 12.101562 C 17.351562 10.984375 17.414062 10.738281 18.199219 10.457031 C 18.402344 10.386719 18.570312 10.234375 18.570312 10.125 C 18.570312 9.875 16.652344 7.96875 15.9375 7.507812 C 15.488281 7.21875 15.355469 7.1875 15.101562 7.3125 C 14.9375 7.394531 14.800781 7.546875 14.800781 7.648438 C 14.800781 7.753906 15.03125 8.355469 15.3125 8.988281 L 15.828125 10.140625 L 15.671875 11.097656 C 15.589844 11.625 15.511719 12.144531 15.5 12.253906 C 15.480469 12.410156 15.277344 12.453125 14.550781 12.457031 C 14.035156 12.460938 13.453125 12.546875 13.234375 12.648438 C 12.867188 12.824219 12.8125 12.8125 12.347656 12.464844 C 11.886719 12.125 11.851562 12.050781 11.875 11.53125 C 11.898438 10.96875 11.902344 10.964844 12.386719 10.945312 C 13.132812 10.914062 13.261719 10.691406 13.238281 9.460938 C 13.210938 8.128906 12.824219 7.269531 11.980469 6.679688 C 11.429688 6.296875 11.40625 6.292969 11.066406 6.507812 C 10.757812 6.703125 10.699219 6.707031 10.597656 6.535156 C 10.503906 6.371094 10.441406 6.363281 10.234375 6.5 C 10.097656 6.59375 9.894531 6.667969 9.78125 6.667969 C 9.53125 6.667969 9.097656 7.1875 9.195312 7.363281 C 9.238281 7.433594 9.445312 7.460938 9.65625 7.425781 C 9.871094 7.386719 10.238281 7.324219 10.476562 7.28125 C 10.714844 7.242188 11.035156 7.132812 11.191406 7.046875 C 11.558594 6.835938 11.714844 7.007812 11.917969 7.832031 C 12.148438 8.773438 12.128906 8.867188 11.621094 9.109375 C 10.808594 9.5 10.582031 9.6875 10.21875 10.277344 C 9.953125 10.710938 9.777344 10.863281 9.519531 10.878906 C 9.332031 10.890625 9.023438 10.964844 8.832031 11.046875 C 8.640625 11.125 8.410156 11.191406 8.320312 11.191406 C 8.101562 11.191406 7.894531 10.589844 7.855469 9.832031 C 7.828125 9.339844 7.761719 9.171875 7.542969 9.042969 C 7.179688 8.835938 7.171875 8.128906 7.523438 7.511719 C 7.789062 7.046875 8.550781 6.535156 8.972656 6.535156 C 9.101562 6.535156 9.339844 6.425781 9.503906 6.292969 C 9.953125 5.917969 10.144531 5.875 11.644531 5.800781 C 13.195312 5.71875 13.632812 5.828125 13.8125 6.332031 C 13.921875 6.648438 13.984375 6.667969 14.8125 6.667969 C 15.59375 6.667969 15.835938 6.738281 16.980469 7.289062 C 18.359375 7.957031 19.25 8.65625 19.25 9.074219 C 19.25 9.21875 19.5 9.589844 19.808594 9.898438 C 20.347656 10.4375 20.375 10.503906 20.554688 11.65625 C 20.851562 13.601562 20.582031 14.445312 19.539062 14.847656 C 18.703125 15.164062 18.511719 15.246094 17.980469 15.492188 C 17.476562 15.726562 16.753906 15.765625 16.332031 15.582031 Z M 10.914062 10.351562 C 10.859375 10.222656 10.851562 10.078125 10.894531 10.03125 C 11.019531 9.894531 11.121094 10.085938 11.0625 10.347656 C 11.011719 10.582031 11.003906 10.582031 10.914062 10.351562 Z M 10.914062 10.351562 "/>
<path style=" stroke:none;fill-rule:nonzero;fill:rgb(38.431373%,67.45098%,22.745098%);fill-opacity:1;" d="M 13.875 17.441406 C 13.785156 17.28125 13.90625 17.28125 14.246094 17.441406 C 14.484375 17.550781 14.484375 17.554688 14.222656 17.5625 C 14.074219 17.570312 13.917969 17.511719 13.875 17.441406 Z M 14.679688 17.441406 C 14.921875 17.269531 15.207031 17.269531 15.109375 17.441406 C 15.066406 17.511719 14.914062 17.574219 14.761719 17.570312 C 14.542969 17.570312 14.527344 17.546875 14.679688 17.441406 Z M 11.589844 16.375 C 11.488281 16.304688 11.152344 16.246094 10.847656 16.242188 C 9.929688 16.230469 8.464844 15.441406 8.761719 15.117188 C 8.800781 15.078125 9.222656 15.21875 9.703125 15.429688 C 10.179688 15.644531 10.882812 15.914062 11.257812 16.03125 C 11.636719 16.148438 11.980469 16.304688 12.023438 16.378906 C 12.117188 16.546875 11.832031 16.546875 11.589844 16.375 Z M 7.203125 15.496094 C 6.929688 15.386719 6.359375 15.265625 5.929688 15.21875 C 5.300781 15.15625 5.109375 15.078125 4.914062 14.808594 C 4.328125 14.011719 4.304688 12.679688 4.855469 11.667969 C 5.027344 11.351562 5.25 10.789062 5.355469 10.417969 C 5.570312 9.632812 6.070312 8.929688 6.410156 8.929688 C 6.699219 8.929688 6.703125 9.019531 6.449219 9.949219 C 6.292969 10.535156 6.28125 10.796875 6.386719 11.261719 C 6.460938 11.578125 6.523438 12.066406 6.527344 12.347656 C 6.53125 13.125 6.925781 13.894531 7.75 14.726562 C 8.164062 15.144531 8.5 15.535156 8.5 15.597656 C 8.5 15.773438 7.753906 15.714844 7.203125 15.496094 Z M 16.332031 15.582031 C 15.925781 15.40625 15.105469 14.265625 15.265625 14.097656 C 15.421875 13.925781 15.761719 14.03125 16.304688 14.425781 C 16.53125 14.589844 16.902344 14.804688 17.125 14.90625 C 17.488281 15.0625 17.558594 15.058594 17.738281 14.867188 C 17.929688 14.664062 17.929688 14.648438 17.730469 14.648438 C 17.464844 14.648438 17.464844 14.476562 17.726562 13.738281 C 17.914062 13.214844 17.953125 13.179688 18.089844 13.386719 C 18.183594 13.519531 18.21875 13.78125 18.175781 14.015625 C 18.101562 14.40625 18.105469 14.410156 18.519531 14.3125 C 19.058594 14.1875 19.375 14.042969 19.679688 13.78125 C 19.886719 13.605469 19.921875 13.4375 19.894531 12.761719 C 19.84375 11.480469 19.375 10.6875 17.75 9.113281 C 16.042969 7.464844 15.519531 7.109375 15.101562 7.3125 C 14.9375 7.394531 14.800781 7.546875 14.800781 7.648438 C 14.800781 7.753906 15.03125 8.355469 15.3125 8.988281 L 15.828125 10.140625 L 15.671875 11.097656 C 15.589844 11.625 15.511719 12.144531 15.5 12.253906 C 15.480469 12.410156 15.277344 12.453125 14.550781 12.457031 C 14.035156 12.460938 13.453125 12.546875 13.234375 12.648438 C 12.867188 12.824219 12.8125 12.8125 12.347656 12.464844 C 11.886719 12.125 11.851562 12.050781 11.875 11.53125 C 11.898438 10.96875 11.902344 10.964844 12.386719 10.945312 C 13.132812 10.914062 13.261719 10.691406 13.238281 9.460938 C 13.210938 8.128906 12.824219 7.269531 11.980469 6.679688 C 11.429688 6.296875 11.40625 6.292969 11.066406 6.507812 C 10.761719 6.699219 10.699219 6.707031 10.605469 6.539062 C 10.515625 6.386719 10.433594 6.378906 10.207031 6.5 C 10.050781 6.585938 9.742188 6.691406 9.527344 6.734375 C 9.070312 6.832031 8.5 7.269531 8.5 7.527344 C 8.5 7.976562 9.34375 7.96875 10.226562 7.515625 C 11.476562 6.875 11.445312 6.886719 11.621094 7.039062 C 11.777344 7.179688 12.164062 8.753906 12.066406 8.859375 C 12.039062 8.886719 11.746094 8.816406 11.414062 8.699219 C 10.910156 8.519531 10.726562 8.511719 10.304688 8.648438 C 10.027344 8.738281 9.367188 8.90625 8.839844 9.023438 C 8.03125 9.207031 7.835938 9.214844 7.574219 9.0625 C 6.921875 8.683594 7.339844 7.304688 8.261719 6.796875 C 8.523438 6.652344 8.84375 6.535156 8.972656 6.535156 C 9.101562 6.535156 9.339844 6.425781 9.503906 6.292969 C 9.953125 5.917969 10.144531 5.875 11.644531 5.800781 C 13.195312 5.71875 13.632812 5.828125 13.8125 6.332031 C 13.921875 6.648438 13.984375 6.667969 14.8125 6.667969 C 15.59375 6.667969 15.835938 6.738281 16.980469 7.289062 C 18.359375 7.957031 19.25 8.65625 19.25 9.074219 C 19.25 9.21875 19.5 9.589844 19.808594 9.898438 C 20.347656 10.4375 20.375 10.503906 20.554688 11.65625 C 20.851562 13.601562 20.582031 14.445312 19.539062 14.847656 C 18.703125 15.164062 18.511719 15.246094 17.980469 15.492188 C 17.476562 15.726562 16.753906 15.765625 16.332031 15.582031 Z M 12.699219 15.046875 C 12.464844 14.90625 12.179688 14.789062 12.066406 14.785156 C 11.957031 14.78125 11.800781 14.695312 11.71875 14.589844 C 11.636719 14.484375 11.292969 14.296875 10.957031 14.175781 C 10.351562 13.960938 9.613281 13.40625 9.613281 13.171875 C 9.613281 12.953125 10.039062 13.046875 10.539062 13.378906 C 11.222656 13.832031 11.308594 13.796875 10.859375 13.246094 C 10.527344 12.839844 10.34375 12.253906 10.542969 12.253906 C 10.667969 12.253906 12.207031 13.628906 12.207031 13.742188 C 12.207031 13.800781 12.003906 13.851562 11.757812 13.851562 C 11.371094 13.851562 11.332031 13.875 11.46875 14.054688 C 11.648438 14.285156 12.816406 14.910156 13.082031 14.917969 C 13.179688 14.921875 13.363281 15.011719 13.496094 15.117188 C 13.730469 15.304688 13.726562 15.3125 13.433594 15.308594 C 13.269531 15.304688 12.9375 15.1875 12.699219 15.046875 Z M 19.03125 13.152344 C 18.964844 13.058594 18.792969 12.738281 18.652344 12.4375 C 18.492188 12.09375 18.257812 11.832031 18.019531 11.722656 C 17.621094 11.546875 17.390625 11.007812 17.613281 10.769531 C 17.882812 10.476562 18.976562 11.414062 19.242188 12.164062 C 19.503906 12.914062 19.359375 13.59375 19.03125 13.152344 Z M 11.527344 12.253906 C 11.484375 12.179688 11.539062 12.121094 11.644531 12.121094 C 11.75 12.121094 11.835938 12.179688 11.835938 12.253906 C 11.835938 12.328125 11.785156 12.386719 11.71875 12.386719 C 11.65625 12.386719 11.570312 12.328125 11.527344 12.253906 Z M 10.914062 10.351562 C 10.859375 10.222656 10.851562 10.078125 10.894531 10.03125 C 11.019531 9.894531 11.121094 10.085938 11.0625 10.347656 C 11.011719 10.582031 11.003906 10.582031 10.914062 10.351562 Z M 10.914062 10.351562 "/>
<path style=" stroke:none;fill-rule:nonzero;fill:rgb(63.529412%,40%,16.862745%);fill-opacity:1;" d="M 13.875 17.441406 C 13.785156 17.28125 13.90625 17.28125 14.246094 17.441406 C 14.484375 17.550781 14.484375 17.554688 14.222656 17.5625 C 14.074219 17.570312 13.917969 17.511719 13.875 17.441406 Z M 14.679688 17.441406 C 14.921875 17.269531 15.207031 17.269531 15.109375 17.441406 C 15.066406 17.511719 14.914062 17.574219 14.761719 17.570312 C 14.542969 17.570312 14.527344 17.546875 14.679688 17.441406 Z M 11.589844 16.375 C 11.488281 16.304688 11.152344 16.246094 10.847656 16.242188 C 9.929688 16.230469 8.464844 15.441406 8.761719 15.117188 C 8.800781 15.078125 9.222656 15.21875 9.703125 15.429688 C 10.179688 15.644531 10.882812 15.914062 11.257812 16.03125 C 11.636719 16.148438 11.980469 16.304688 12.023438 16.378906 C 12.117188 16.546875 11.832031 16.546875 11.589844 16.375 Z M 17.148438 15.511719 C 17.148438 15.472656 17.328125 15.265625 17.550781 15.046875 C 17.859375 14.746094 17.902344 14.65625 17.734375 14.652344 C 17.464844 14.648438 17.464844 14.480469 17.726562 13.738281 C 17.914062 13.214844 17.953125 13.179688 18.089844 13.386719 C 18.183594 13.519531 18.21875 13.78125 18.175781 14.015625 C 18.101562 14.40625 18.105469 14.410156 18.519531 14.3125 C 19.058594 14.1875 19.375 14.042969 19.679688 13.78125 C 19.886719 13.605469 19.921875 13.4375 19.894531 12.761719 C 19.84375 11.480469 19.375 10.6875 17.75 9.113281 C 16.042969 7.464844 15.519531 7.109375 15.101562 7.3125 C 14.929688 7.398438 14.800781 7.574219 14.800781 7.730469 C 14.800781 8.039062 14.800781 8.042969 14.359375 7.863281 L 14.027344 7.726562 L 14.109375 8.40625 C 14.1875 9.015625 14.167969 9.089844 13.941406 9.15625 C 13.804688 9.195312 13.6875 9.292969 13.683594 9.375 C 13.675781 9.570312 13.351562 8.652344 13.132812 7.816406 C 12.9375 7.070312 12.941406 7.074219 12.601562 7.003906 C 12.457031 6.976562 12.136719 6.800781 11.882812 6.617188 C 11.4375 6.292969 11.414062 6.289062 11.070312 6.507812 C 10.761719 6.699219 10.699219 6.707031 10.605469 6.539062 C 10.515625 6.386719 10.433594 6.378906 10.207031 6.5 C 10.050781 6.585938 9.742188 6.691406 9.527344 6.734375 C 9.070312 6.832031 8.5 7.269531 8.5 7.527344 C 8.5 7.976562 9.34375 7.96875 10.226562 7.515625 C 11.476562 6.875 11.445312 6.886719 11.621094 7.039062 C 11.777344 7.179688 12.164062 8.753906 12.066406 8.859375 C 12.039062 8.886719 11.746094 8.816406 11.414062 8.699219 C 10.910156 8.519531 10.726562 8.511719 10.304688 8.648438 C 10.027344 8.738281 9.367188 8.90625 8.839844 9.023438 C 8.03125 9.207031 7.835938 9.214844 7.574219 9.0625 C 6.921875 8.683594 7.339844 7.304688 8.261719 6.796875 C 8.523438 6.652344 8.839844 6.535156 8.960938 6.535156 C 9.085938 6.535156 9.316406 6.4375 9.472656 6.320312 C 9.914062 5.988281 10.867188 5.757812 11.222656 5.898438 C 11.421875 5.976562 11.710938 5.964844 12.058594 5.859375 C 12.457031 5.738281 12.664062 5.738281 12.898438 5.851562 C 13.066406 5.933594 13.316406 6.003906 13.453125 6.003906 C 13.597656 6.003906 13.742188 6.136719 13.8125 6.335938 C 13.921875 6.648438 13.984375 6.667969 14.8125 6.667969 C 15.59375 6.667969 15.835938 6.738281 16.980469 7.289062 C 18.359375 7.957031 19.25 8.65625 19.25 9.074219 C 19.25 9.21875 19.503906 9.589844 19.8125 9.898438 C 20.359375 10.449219 20.378906 10.492188 20.5625 11.742188 C 20.773438 13.1875 20.671875 13.925781 20.195312 14.441406 C 19.820312 14.84375 17.148438 15.78125 17.148438 15.511719 Z M 12.699219 15.046875 C 12.464844 14.90625 12.179688 14.789062 12.066406 14.785156 C 11.957031 14.78125 11.800781 14.695312 11.71875 14.589844 C 11.636719 14.484375 11.292969 14.296875 10.957031 14.175781 C 10.351562 13.960938 9.613281 13.40625 9.613281 13.171875 C 9.613281 12.953125 10.039062 13.046875 10.539062 13.378906 C 11.222656 13.832031 11.308594 13.796875 10.859375 13.246094 C 10.527344 12.839844 10.34375 12.253906 10.542969 12.253906 C 10.667969 12.253906 12.207031 13.628906 12.207031 13.742188 C 12.207031 13.800781 12.003906 13.851562 11.757812 13.851562 C 11.371094 13.851562 11.332031 13.875 11.46875 14.054688 C 11.648438 14.285156 12.816406 14.910156 13.082031 14.917969 C 13.179688 14.921875 13.363281 15.011719 13.496094 15.117188 C 13.730469 15.304688 13.726562 15.3125 13.433594 15.308594 C 13.269531 15.304688 12.9375 15.1875 12.699219 15.046875 Z M 5.191406 15.089844 C 4.964844 14.992188 4.671875 14.320312 4.671875 13.890625 L 4.671875 13.523438 L 5.0625 14.039062 C 5.28125 14.320312 5.738281 14.691406 6.082031 14.859375 L 6.707031 15.164062 L 6.03125 15.160156 C 5.65625 15.160156 5.277344 15.128906 5.191406 15.089844 Z M 19.03125 13.152344 C 18.964844 13.058594 18.792969 12.738281 18.652344 12.4375 C 18.492188 12.09375 18.257812 11.832031 18.019531 11.722656 C 17.621094 11.546875 17.390625 11.007812 17.613281 10.769531 C 17.882812 10.476562 18.976562 11.414062 19.242188 12.164062 C 19.503906 12.914062 19.359375 13.59375 19.03125 13.152344 Z M 11.527344 12.253906 C 11.484375 12.179688 11.539062 12.121094 11.644531 12.121094 C 11.75 12.121094 11.835938 12.179688 11.835938 12.253906 C 11.835938 12.328125 11.785156 12.386719 11.71875 12.386719 C 11.65625 12.386719 11.570312 12.328125 11.527344 12.253906 Z M 5.042969 11.859375 C 5.042969 11.578125 5.46875 10.789062 5.621094 10.789062 C 5.8125 10.789062 5.835938 11.367188 5.65625 11.730469 C 5.523438 11.992188 5.042969 12.09375 5.042969 11.859375 Z M 11.898438 11.058594 C 11.855469 10.984375 11.878906 10.921875 11.945312 10.921875 C 12.011719 10.921875 12.101562 10.984375 12.144531 11.058594 C 12.1875 11.128906 12.164062 11.191406 12.097656 11.191406 C 12.03125 11.191406 11.941406 11.128906 11.898438 11.058594 Z M 15.46875 10.507812 C 15.28125 10.246094 14.886719 8.726562 14.949219 8.519531 C 14.976562 8.421875 15.183594 8.757812 15.402344 9.265625 C 15.683594 9.914062 15.773438 10.257812 15.699219 10.4375 C 15.613281 10.640625 15.570312 10.652344 15.46875 10.507812 Z M 10.914062 10.351562 C 10.859375 10.222656 10.851562 10.078125 10.894531 10.03125 C 11.019531 9.894531 11.121094 10.085938 11.0625 10.347656 C 11.011719 10.582031 11.003906 10.582031 10.914062 10.351562 Z M 10.914062 10.351562 "/>
<path style=" stroke:none;fill-rule:nonzero;fill:rgb(41.568627%,39.607843%,21.568627%);fill-opacity:1;" d="M 10.082031 16.019531 C 10.171875 15.980469 10.277344 15.984375 10.320312 16.03125 C 10.359375 16.074219 10.289062 16.105469 10.15625 16.101562 C 10.015625 16.09375 9.984375 16.0625 10.082031 16.019531 Z M 9.296875 15.78125 C 8.988281 15.53125 9.207031 15.527344 9.613281 15.777344 C 9.808594 15.898438 9.851562 15.96875 9.730469 15.972656 C 9.621094 15.976562 9.429688 15.890625 9.296875 15.78125 Z M 17.148438 15.480469 C 17.152344 15.246094 18.058594 14.742188 18.804688 14.558594 C 19.246094 14.453125 19.757812 14.234375 19.941406 14.082031 C 20.269531 13.800781 20.273438 13.800781 20.191406 12.476562 C 20.113281 11.195312 20.09375 11.132812 19.664062 10.605469 C 19.417969 10.304688 18.660156 9.550781 17.976562 8.929688 C 17.296875 8.308594 16.65625 7.660156 16.554688 7.492188 C 16.371094 7.191406 16.375 7.1875 16.726562 7.273438 C 17.890625 7.5625 19.25 8.566406 19.25 9.140625 C 19.25 9.316406 19.347656 9.550781 19.464844 9.65625 C 20.347656 10.457031 20.355469 10.472656 20.335938 11.242188 C 20.324219 11.738281 20.394531 12.128906 20.550781 12.441406 C 20.773438 12.886719 20.773438 12.929688 20.5625 13.644531 C 20.304688 14.527344 20.160156 14.644531 18.660156 15.175781 C 17.507812 15.585938 17.148438 15.65625 17.148438 15.480469 Z M 5.191406 15.089844 C 4.964844 14.992188 4.671875 14.320312 4.671875 13.890625 L 4.671875 13.523438 L 5.0625 14.039062 C 5.28125 14.320312 5.738281 14.691406 6.082031 14.859375 L 6.707031 15.164062 L 6.03125 15.160156 C 5.65625 15.160156 5.277344 15.128906 5.191406 15.089844 Z M 5.042969 11.859375 C 5.042969 11.578125 5.46875 10.789062 5.621094 10.789062 C 5.8125 10.789062 5.835938 11.367188 5.65625 11.730469 C 5.523438 11.992188 5.042969 12.09375 5.042969 11.859375 Z M 11.898438 11.058594 C 11.855469 10.984375 11.878906 10.921875 11.945312 10.921875 C 12.011719 10.921875 12.101562 10.984375 12.144531 11.058594 C 12.1875 11.128906 12.164062 11.191406 12.097656 11.191406 C 12.03125 11.191406 11.941406 11.128906 11.898438 11.058594 Z M 15.46875 10.507812 C 15.28125 10.246094 14.886719 8.726562 14.949219 8.519531 C 14.976562 8.421875 15.183594 8.757812 15.402344 9.265625 C 15.683594 9.914062 15.773438 10.257812 15.699219 10.4375 C 15.613281 10.640625 15.570312 10.652344 15.46875 10.507812 Z M 13.464844 8.953125 C 13.378906 8.683594 13.230469 8.171875 13.136719 7.816406 C 12.933594 7.066406 12.941406 7.078125 12.574219 7 C 12.417969 6.96875 12.164062 6.8125 12.011719 6.660156 C 11.710938 6.355469 11.597656 6.339844 10.316406 6.445312 C 9.703125 6.496094 9.488281 6.472656 9.523438 6.359375 C 9.585938 6.152344 10.445312 5.847656 10.910156 5.871094 C 11.113281 5.882812 11.476562 5.882812 11.710938 5.871094 C 13.152344 5.808594 13.667969 5.925781 13.816406 6.347656 C 13.882812 6.535156 14.066406 6.695312 14.273438 6.742188 C 14.460938 6.789062 14.671875 6.839844 14.738281 6.855469 C 14.839844 6.882812 14.847656 7.855469 14.746094 7.96875 C 14.726562 7.988281 14.558594 7.941406 14.371094 7.867188 L 14.027344 7.726562 L 14.109375 8.394531 C 14.179688 8.96875 14.160156 9.078125 13.972656 9.152344 C 13.851562 9.203125 13.722656 9.289062 13.6875 9.34375 C 13.652344 9.398438 13.550781 9.226562 13.464844 8.953125 Z M 7.265625 8.164062 C 7.265625 7.773438 8.222656 6.667969 8.5625 6.667969 C 8.738281 6.667969 8.714844 6.722656 8.457031 6.945312 C 8.238281 7.125 8.128906 7.347656 8.128906 7.601562 C 8.128906 8.039062 8.402344 8.183594 9.175781 8.152344 C 9.5625 8.136719 9.628906 8.164062 9.507812 8.296875 C 9.414062 8.398438 8.953125 8.46875 8.308594 8.480469 C 7.269531 8.5 7.265625 8.496094 7.265625 8.164062 Z M 10.839844 7.921875 C 10.695312 7.734375 10.71875 7.714844 11.03125 7.753906 C 11.226562 7.777344 11.40625 7.875 11.433594 7.964844 C 11.507812 8.207031 11.03125 8.171875 10.839844 7.921875 Z M 10.839844 7.921875 "/>
</g>
</svg>
