
<svg xmlns="http://www.w3.org/2000/svg" xmlns:xlink="http://www.w3.org/1999/xlink" width="24px" height="24px" viewBox="0 0 24 24" version="1.1">
<g id="surface1">
<path style=" stroke:none;fill-rule:nonzero;fill:rgb(69.019608%,76.862745%,87.058824%);fill-opacity:1;" d="M 7.953125 0.894531 C 39.320312 -6.125 16.460938 43.929688 1.835938 14.78125 C -0.6875 9.570312 0.390625 1.824219 7.953125 0.894531 Z M 7.953125 0.894531 "/>
<path style=" stroke:none;fill-rule:nonzero;fill:rgb(0%,0%,0%);fill-opacity:0.101961;" d="M 12.703125 4.960938 C 10.078125 4.867188 7.882812 7.15625 7.804688 10.082031 C 7.765625 11.484375 8.226562 12.769531 8.992188 13.746094 L 10.101562 19.683594 C 10.683594 19.835938 11.28125 19.9375 11.90625 19.957031 C 12.96875 20 14 19.828125 14.957031 19.492188 L 16.078125 13.84375 C 16.816406 12.945312 17.285156 11.757812 17.320312 10.4375 C 17.398438 7.511719 15.332031 5.0625 12.703125 4.960938 Z M 12.703125 4.960938 "/>
<path style=" stroke:none;fill-rule:nonzero;fill:rgb(58.431373%,37.647059%,22.745098%);fill-opacity:1;" d="M 16.84375 9.890625 C 16.765625 12.53125 14.59375 14.601562 11.988281 14.511719 C 9.386719 14.421875 7.335938 12.210938 7.414062 9.570312 C 7.492188 6.929688 9.664062 4.859375 12.269531 4.945312 C 14.875 5.039062 16.921875 7.25 16.84375 9.890625 Z M 16.84375 9.890625 "/>
<path style=" stroke:none;fill-rule:nonzero;fill:rgb(93.72549%,74.901961%,30.980392%);fill-opacity:1;" d="M 8.082031 11.984375 L 9.6875 19.460938 C 10.367188 19.640625 11.078125 19.742188 11.8125 19.765625 C 12.6875 19.796875 13.539062 19.699219 14.351562 19.5 L 16.015625 12.242188 L 8.082031 11.988281 Z M 8.082031 11.984375 "/>
</g>
</svg>
