
<svg xmlns="http://www.w3.org/2000/svg" xmlns:xlink="http://www.w3.org/1999/xlink" width="24px" height="24px" viewBox="0 0 24 24" version="1.1">
<defs>
<linearGradient id="linear0" gradientUnits="userSpaceOnUse" x1="45.28" y1="0" x2="77.28" y2="0" gradientTransform="matrix(0.318839,0,0,0.1508,-7.985639,6.894415)">
<stop offset="0" style="stop-color:rgb(74.509804%,98.039216%,87.058824%);stop-opacity:1;"/>
<stop offset="1" style="stop-color:rgb(96.470588%,99.607843%,98.039216%);stop-opacity:1;"/>
</linearGradient>
</defs>
<g id="surface1">
<path style=" stroke:none;fill-rule:nonzero;fill:rgb(19.607843%,80.392157%,19.607843%);fill-opacity:1;" d="M 20.519531 19.800781 C -4.453125 38.71875 -8 -13.351562 17.492188 3.359375 C 23.304688 7.171875 27.132812 14.789062 20.519531 19.800781 "/>
<path style=" stroke:none;fill-rule:evenodd;fill:url(#linear0);" d="M 6.644531 8.195312 L 6.644531 16.320312 L 16.464844 16.320312 L 16.464844 8.195312 L 6.644531 8.195312 M 7.921875 9.25 L 9.832031 9.25 L 9.832031 10.410156 L 7.921875 10.410156 L 7.921875 9.25 M 10.46875 9.25 L 15.1875 9.25 L 15.1875 10.410156 L 10.46875 10.410156 L 10.46875 9.25 M 7.921875 10.9375 L 9.832031 10.9375 L 9.832031 11.992188 L 7.921875 11.992188 L 7.921875 10.9375 M 10.46875 10.9375 L 15.1875 10.9375 L 15.1875 11.992188 L 10.46875 11.992188 L 10.46875 10.9375 M 7.921875 12.523438 L 9.832031 12.523438 L 9.832031 15.265625 L 7.921875 15.265625 L 7.921875 12.523438 M 10.46875 12.523438 L 15.1875 12.523438 L 15.1875 15.265625 L 10.46875 15.265625 L 10.46875 12.523438 "/>
</g>
</svg>
