
<svg xmlns="http://www.w3.org/2000/svg" xmlns:xlink="http://www.w3.org/1999/xlink" width="24px" height="24px" viewBox="0 0 24 24" version="1.1">
<g id="surface1">
<path style=" stroke:none;fill-rule:nonzero;fill:rgb(84.705882%,74.901961%,84.705882%);fill-opacity:1;" d="M 21.9375 5.027344 C 17.382812 -3.234375 3.125 -0.03125 0.714844 6.773438 C -2.160156 14.878906 5.320312 30.273438 17.992188 21.253906 C 22.257812 18.105469 26.484375 13.289062 21.9375 5.027344 Z M 21.9375 5.027344 "/>
<path style="fill-rule:nonzero;fill:rgb(89.019608%,84.705882%,95.686275%);fill-opacity:1;stroke-width:1;stroke-linecap:round;stroke-linejoin:round;stroke:rgb(84.705882%,74.901961%,84.705882%);stroke-opacity:1;stroke-miterlimit:4;" d="M 45.221959 24.252494 C 45.221959 35.543571 36.068799 44.699833 24.784944 44.699833 C 13.475873 44.699833 4.322713 35.543571 4.322713 24.252494 C 4.322713 12.949076 13.475873 3.805155 24.784944 3.805155 C 36.068799 3.805155 45.221959 12.949076 45.221959 24.252494 Z M 45.221959 24.252494 " transform="matrix(0.309831,0,0,0.316553,3.88725,4.135313)"/>
<path style="fill:none;stroke-width:2.242;stroke-linecap:round;stroke-linejoin:round;stroke:rgb(84.705882%,74.901961%,84.705882%);stroke-opacity:1;stroke-miterlimit:4;" d="M 40.922748 14.800073 C 36.724397 16.959568 30.723151 18.181226 24.457144 18.144206 C 18.17853 18.094846 12.240323 16.823829 8.155441 14.602633 " transform="matrix(0.309831,0,0,0.316553,3.88725,4.135313)"/>
<path style="fill:none;stroke-width:2.242;stroke-linecap:round;stroke-linejoin:round;stroke:rgb(84.705882%,74.901961%,84.705882%);stroke-opacity:1;stroke-miterlimit:4;" d="M 5.68434 23.623155 L 24.381498 23.623155 " transform="matrix(0.309831,0,0,0.316553,3.88725,4.135313)"/>
<path style="fill:none;stroke-width:2.242;stroke-linecap:round;stroke-linejoin:round;stroke:rgb(84.705882%,74.901961%,84.705882%);stroke-opacity:1;stroke-miterlimit:4;" d="M 41.641384 32.495597 C 37.329565 30.348441 31.126596 29.126784 24.633652 29.139124 C 18.128099 29.151464 11.962954 30.385461 7.688958 32.569637 " transform="matrix(0.309831,0,0,0.316553,3.88725,4.135313)"/>
<path style="fill:none;stroke-width:2.242;stroke-linecap:round;stroke-linejoin:round;stroke:rgb(84.705882%,74.901961%,84.705882%);stroke-opacity:1;stroke-miterlimit:4;" d="M 34.833248 8.679445 C 32.084778 10.579801 28.403342 11.604019 24.608436 11.529979 C 20.800923 11.455939 17.20774 10.283642 14.610563 8.284566 " transform="matrix(0.309831,0,0,0.316553,3.88725,4.135313)"/>
<path style="fill:none;stroke-width:2.242;stroke-linecap:round;stroke-linejoin:round;stroke:rgb(84.705882%,74.901961%,84.705882%);stroke-opacity:1;stroke-miterlimit:4;" d="M 35.854468 39.282583 C 32.929492 37.024368 28.68071 35.741011 24.242814 35.778031 C 19.79231 35.80271 15.581352 37.147768 12.732021 39.443003 " transform="matrix(0.309831,0,0,0.316553,3.88725,4.135313)"/>
<path style="fill-rule:evenodd;fill:rgb(100%,54.901961%,0%);fill-opacity:1;stroke-width:0.953;stroke-linecap:round;stroke-linejoin:round;stroke:rgb(84.705882%,74.901961%,84.705882%);stroke-opacity:1;stroke-miterlimit:4;" d="M 39.598943 8.987944 C 38.842484 8.987944 38.149062 9.456863 37.859086 10.172582 L 32.059563 24.388233 L 28.756356 15.848971 C 28.478988 15.108572 27.785567 14.627313 27.003892 14.614973 C 26.222217 14.614973 25.516188 15.083892 25.226212 15.811951 L 16.77908 36.715869 C 16.501711 37.332867 16.602573 38.073266 17.018625 38.616225 C 17.434678 39.171524 18.128099 39.430663 18.808913 39.331943 C 19.489727 39.245564 20.057071 38.776644 20.309225 38.134966 L 26.940853 21.722799 L 30.231452 30.249722 C 30.508821 30.96544 31.202242 31.446699 31.996525 31.459039 C 32.765592 31.459039 33.471621 30.99012 33.774205 30.274402 L 38.91813 17.662947 L 41.780068 33.445775 C 41.88093 34.124474 42.360021 34.692113 43.003011 34.926572 C 43.65861 35.173372 44.377246 35.037632 44.89416 34.593393 C 45.423682 34.136814 45.663227 33.433435 45.524543 32.767077 L 41.490092 10.555121 C 41.326193 9.641963 40.53191 8.975604 39.598943 8.987944 Z M 39.598943 8.987944 " transform="matrix(0.309831,0,0,0.316553,3.88725,4.135313)"/>
<path style="fill-rule:nonzero;fill:rgb(40.392157%,11.764706%,34.901961%);fill-opacity:1;stroke-width:1;stroke-linecap:round;stroke-linejoin:round;stroke:rgb(84.705882%,74.901961%,84.705882%);stroke-opacity:1;stroke-miterlimit:4;" d="M 25.07492 3.916215 C 17.245563 3.657075 9.580106 8.420305 6.32733 15.540471 C 2.961085 22.500217 4.12099 31.323299 9.176661 37.184788 C 14.093648 43.157336 22.603819 45.79809 30.042338 43.650935 C 32.702554 42.873516 35.072794 41.799938 37.153057 39.924262 C 38.086024 38.764304 37.19088 36.543109 35.186263 37.592007 C 33.307721 38.591545 31.996525 39.628103 29.928869 40.306801 C 23.045087 42.577357 14.913146 39.973622 10.803049 34.013414 C 6.516445 28.188946 6.629914 19.625003 11.06781 13.911594 C 15.354414 8.062446 23.486355 5.828911 30.344921 8.124146 C 32.223463 8.765825 33.295114 9.308784 35.211478 10.135562 C 36.560497 10.740221 37.644756 8.432645 36.38399 7.655227 C 33.105999 5.310632 29.109371 3.990254 25.07492 3.916215 Z M 25.07492 3.916215 " transform="matrix(0.309831,0,0,0.316553,3.88725,4.135313)"/>
<path style="fill:none;stroke-width:1.774;stroke-linecap:round;stroke-linejoin:round;stroke:rgb(84.705882%,74.901961%,84.705882%);stroke-opacity:1;stroke-miterlimit:4;" d="M 37.316957 7.223328 C 33.862458 4.829373 29.664108 3.471975 25.415327 3.397936 C 17.169917 3.126456 9.101015 7.988406 5.68434 15.244312 C 2.141587 22.327458 3.36453 31.310959 8.672355 37.271167 C 13.841495 43.354775 22.818149 46.04489 30.634898 43.848374 C 33.446406 43.070956 36.220091 41.812278 38.401216 39.899582 " transform="matrix(0.309831,0,0,0.316553,3.88725,4.135313)"/>
</g>
</svg>
