
<svg xmlns="http://www.w3.org/2000/svg" xmlns:xlink="http://www.w3.org/1999/xlink" width="24px" height="24px" viewBox="0 0 24 24" version="1.1">
<g id="surface1">
<path style=" stroke:none;fill-rule:nonzero;fill:rgb(86.27451%,86.27451%,86.27451%);fill-opacity:1;" d="M 20.921875 3.796875 C 34.53125 24.566406 -2.640625 32.605469 0.320312 11.234375 C 1.523438 2.523438 15.714844 -4.148438 20.921875 3.796875 Z M 20.921875 3.796875 "/>
<path style="fill-rule:evenodd;fill:rgb(100%,100%,100%);fill-opacity:1;stroke-width:1;stroke-linecap:butt;stroke-linejoin:miter;stroke:rgb(100%,100%,100%);stroke-opacity:1;stroke-miterlimit:4;" d="M 152.50188 117.276106 C 152.50188 129.309324 141.888795 139.126902 128.77625 139.126902 C 115.625253 139.126902 105.012167 129.309324 105.012167 117.276106 C 105.012167 105.166487 115.625253 95.387109 128.77625 95.387109 C 141.888795 95.387109 152.50188 105.166487 152.50188 117.276106 Z M 152.50188 117.276106 " transform="matrix(0.101584,0,0,0.102256,-1.901984,-1.773435)"/>
<path style=" stroke:none;fill-rule:nonzero;fill:rgb(81.568627%,60.392157%,59.215686%);fill-opacity:1;" d="M 16.914062 17.804688 C 16.773438 17.714844 16.503906 17.683594 16.3125 17.734375 C 16.101562 17.796875 15.777344 17.71875 15.453125 17.527344 C 15.164062 17.359375 14.648438 17.097656 14.304688 16.9375 C 13.960938 16.78125 13.40625 16.390625 13.070312 16.070312 C 12.394531 15.417969 11.773438 15.019531 11.4375 15.019531 C 11.3125 15.019531 11.109375 14.824219 10.988281 14.585938 L 10.765625 14.148438 L 9.070312 14.207031 C 7.84375 14.25 7.15625 14.199219 6.558594 14.023438 C 5.546875 13.722656 4.757812 13.296875 4.679688 13.007812 C 4.601562 12.734375 7.035156 10.109375 8.085938 9.335938 C 8.628906 8.929688 8.851562 8.671875 8.851562 8.421875 C 8.851562 7.546875 9.671875 7.074219 10.15625 7.667969 C 10.503906 8.097656 10.445312 8.203125 9.648438 8.640625 L 8.917969 9.046875 L 8.882812 9.890625 C 8.835938 10.925781 9.1875 11.660156 9.898438 11.992188 C 10.535156 12.289062 10.851562 12.273438 11.484375 11.914062 C 12.324219 11.4375 12.671875 10.226562 12.332031 8.953125 C 12.296875 8.8125 12.421875 8.695312 12.695312 8.628906 C 12.921875 8.570312 13.351562 8.34375 13.640625 8.121094 C 14.367188 7.566406 14.925781 7.453125 15.351562 7.765625 C 15.75 8.054688 15.796875 8.554688 15.476562 9.074219 C 15.351562 9.269531 15.273438 9.445312 15.296875 9.46875 C 15.328125 9.492188 15.570312 9.671875 15.835938 9.875 C 16.628906 10.460938 17.515625 11.46875 17.820312 12.117188 C 18.371094 13.3125 18.261719 15.148438 17.5625 16.390625 C 17.382812 16.707031 17.390625 16.785156 17.648438 17.148438 C 17.804688 17.371094 17.9375 17.648438 17.9375 17.765625 C 17.9375 18.023438 17.28125 18.046875 16.914062 17.804688 Z M 10.738281 10.714844 C 10.613281 10.574219 10.546875 10.359375 10.585938 10.234375 C 10.632812 10.109375 10.664062 9.980469 10.664062 9.945312 C 10.664062 9.914062 10.789062 9.8125 10.945312 9.71875 C 11.324219 9.492188 11.785156 9.78125 11.785156 10.242188 C 11.785156 10.929688 11.175781 11.203125 10.738281 10.714844 Z M 10.738281 10.714844 "/>
<path style=" stroke:none;fill-rule:nonzero;fill:rgb(69.411765%,63.529412%,59.215686%);fill-opacity:1;" d="M 16.992188 17.742188 C 16.804688 17.59375 16.554688 17.539062 16.332031 17.601562 C 16.070312 17.675781 15.847656 17.59375 15.484375 17.289062 C 15.21875 17.0625 15 16.78125 15 16.664062 C 15 16.320312 14.59375 16.03125 14.40625 16.242188 C 14.046875 16.640625 13.554688 16.429688 12.789062 15.546875 C 12.105469 14.765625 11.996094 14.691406 11.703125 14.839844 C 11.414062 14.984375 11.335938 14.945312 11.070312 14.523438 L 10.761719 14.046875 L 9.609375 14.148438 C 8.734375 14.226562 8.425781 14.203125 8.335938 14.054688 C 8.273438 13.941406 8.21875 13.308594 8.214844 12.644531 C 8.210938 11.46875 8.195312 11.421875 7.699219 10.851562 C 7.292969 10.386719 7.21875 10.210938 7.328125 9.992188 C 7.402344 9.84375 7.527344 9.71875 7.605469 9.71875 C 7.960938 9.71875 8.859375 8.703125 8.992188 8.144531 C 9.164062 7.445312 9.546875 7.246094 10.042969 7.609375 C 10.488281 7.929688 10.476562 8.125 10 8.351562 C 9.148438 8.761719 8.882812 9.070312 8.789062 9.777344 C 8.476562 12.09375 11.324219 13.171875 12.285156 11.097656 C 12.503906 10.625 12.554688 10.039062 12.453125 9.101562 C 12.421875 8.796875 12.488281 8.699219 12.765625 8.632812 C 12.953125 8.589844 13.40625 8.355469 13.769531 8.113281 C 14.25 7.792969 14.570312 7.6875 14.957031 7.726562 C 15.449219 7.769531 15.492188 7.8125 15.53125 8.296875 C 15.558594 8.589844 15.511719 8.898438 15.429688 8.992188 C 15.15625 9.296875 15.273438 9.507812 16.0625 10.117188 C 16.914062 10.769531 17.800781 11.976562 18.054688 12.820312 C 18.25 13.476562 18.265625 14.65625 18.074219 14.785156 C 18 14.835938 17.9375 14.984375 17.9375 15.113281 C 17.9375 15.242188 17.808594 15.636719 17.65625 15.992188 C 17.316406 16.773438 17.3125 16.867188 17.601562 17.21875 C 17.847656 17.523438 17.773438 17.980469 17.480469 17.980469 C 17.382812 17.980469 17.160156 17.875 16.992188 17.742188 Z M 5.84375 13.308594 C 5.554688 12.945312 5.648438 12.757812 6.207031 12.601562 C 6.625 12.488281 7.070312 12.871094 7 13.285156 C 6.9375 13.679688 6.164062 13.695312 5.84375 13.308594 Z M 4.75 13.035156 C 4.699219 12.945312 4.753906 12.785156 4.867188 12.679688 C 5.15625 12.414062 5.253906 12.5625 5.023438 12.914062 C 4.910156 13.085938 4.804688 13.132812 4.75 13.035156 Z M 10.746094 10.671875 C 10.554688 10.4375 10.539062 10.300781 10.652344 10.058594 C 10.9375 9.472656 11.59375 9.515625 11.730469 10.132812 C 11.898438 10.867188 11.210938 11.242188 10.746094 10.671875 Z M 10.746094 10.671875 "/>
<path style=" stroke:none;fill-rule:nonzero;fill:rgb(59.607843%,41.960784%,35.686275%);fill-opacity:1;" d="M 17.152344 17.589844 C 17.007812 17.46875 16.632812 17.359375 16.328125 17.359375 C 15.714844 17.34375 15.328125 17.09375 15.078125 16.546875 C 14.9375 16.234375 14.824219 16.195312 14.253906 16.234375 C 13.617188 16.28125 13.5625 16.25 12.851562 15.4375 C 12.222656 14.71875 12.054688 14.609375 11.695312 14.664062 C 11.355469 14.71875 11.25 14.664062 11.117188 14.328125 C 11.023438 14.109375 10.871094 13.921875 10.773438 13.917969 C 10.675781 13.914062 10.085938 13.914062 9.460938 13.929688 C 8.230469 13.949219 7.984375 13.78125 8.304688 13.121094 C 8.554688 12.59375 8.328125 11.492188 7.832031 10.867188 L 7.394531 10.3125 L 7.875 9.875 C 8.140625 9.632812 8.402344 9.46875 8.460938 9.507812 C 8.523438 9.550781 8.570312 9.84375 8.570312 10.15625 C 8.570312 11.359375 9.527344 12.367188 10.664062 12.367188 C 11.898438 12.367188 12.660156 11.4375 12.6875 9.890625 C 12.699219 9.148438 12.742188 9.039062 13.046875 8.910156 C 13.234375 8.832031 13.53125 8.625 13.695312 8.445312 C 13.875 8.261719 14.273438 8.09375 14.640625 8.046875 C 15.414062 7.949219 15.570312 8.210938 15.1875 8.953125 L 14.929688 9.445312 L 15.335938 9.78125 C 16.636719 10.839844 16.914062 11.117188 17.351562 11.796875 C 18.199219 13.109375 18.210938 14.03125 17.40625 15.921875 L 17.054688 16.75 L 17.351562 17.203125 C 17.6875 17.703125 17.5625 17.9375 17.152344 17.589844 Z M 6.070312 13.320312 C 5.769531 13.109375 5.992188 12.648438 6.367188 12.710938 C 6.769531 12.773438 6.90625 13.460938 6.515625 13.460938 C 6.375 13.457031 6.171875 13.394531 6.070312 13.320312 Z M 10.945312 10.578125 C 10.71875 10.273438 10.867188 9.875 11.203125 9.875 C 11.5625 9.875 11.6875 10.273438 11.417969 10.574219 C 11.15625 10.867188 11.160156 10.867188 10.945312 10.578125 Z M 9.128906 8.25 C 9.128906 8.128906 9.226562 7.921875 9.347656 7.785156 C 9.523438 7.589844 9.625 7.578125 9.863281 7.71875 L 10.160156 7.894531 L 9.835938 8.183594 C 9.453125 8.53125 9.128906 8.5625 9.128906 8.25 Z M 9.128906 8.25 "/>
<path style=" stroke:none;fill-rule:nonzero;fill:rgb(58.039216%,42.745098%,16.862745%);fill-opacity:1;" d="M 15.664062 17.191406 C 15.527344 17.101562 15.328125 16.789062 15.21875 16.496094 C 15.023438 15.984375 14.488281 15.648438 14.1875 15.855469 C 13.9375 16.027344 13.046875 15.621094 12.773438 15.210938 C 12.257812 14.445312 12.195312 14.398438 11.800781 14.398438 C 11.578125 14.398438 11.292969 14.253906 11.144531 14.070312 C 10.898438 13.773438 10.785156 13.753906 9.671875 13.851562 C 8.304688 13.972656 8.179688 13.898438 8.4375 13.09375 C 8.675781 12.371094 8.5 11.535156 7.972656 10.867188 L 7.53125 10.304688 L 7.9375 9.945312 C 8.4375 9.5 8.570312 9.578125 8.570312 10.328125 C 8.570312 11.445312 9.59375 12.523438 10.644531 12.523438 C 11.324219 12.523438 12.183594 11.929688 12.5 11.25 C 12.65625 10.90625 12.765625 10.34375 12.765625 9.878906 C 12.765625 9.265625 12.820312 9.0625 13.007812 8.988281 C 13.140625 8.929688 13.441406 8.730469 13.671875 8.539062 C 14.234375 8.070312 15.070312 7.894531 15.183594 8.222656 C 15.238281 8.378906 15.085938 8.625 14.75 8.9375 C 14.40625 9.257812 14.3125 9.410156 14.46875 9.410156 C 15.039062 9.410156 16.851562 11.046875 17.492188 12.136719 C 17.792969 12.648438 17.859375 12.9375 17.855469 13.773438 C 17.851562 14.617188 17.765625 14.988281 17.335938 15.992188 C 17.054688 16.65625 16.742188 17.203125 16.640625 17.203125 C 16.546875 17.203125 16.34375 17.238281 16.1875 17.28125 C 16.03125 17.320312 15.796875 17.28125 15.664062 17.191406 Z M 11.039062 10.554688 C 10.84375 10.335938 10.953125 10.03125 11.234375 10.03125 C 11.429688 10.03125 11.507812 10.117188 11.480469 10.292969 C 11.429688 10.578125 11.191406 10.722656 11.039062 10.554688 Z M 9.265625 8.078125 C 9.265625 7.765625 9.664062 7.605469 9.871094 7.835938 C 9.996094 7.976562 9.984375 8.054688 9.828125 8.167969 C 9.515625 8.386719 9.265625 8.351562 9.265625 8.078125 Z M 9.265625 8.078125 "/>
<path style=" stroke:none;fill-rule:nonzero;fill:rgb(43.137255%,26.666667%,3.921569%);fill-opacity:1;" d="M 13.019531 15.367188 C 12.824219 15.132812 12.625 14.820312 12.578125 14.667969 C 12.515625 14.46875 12.339844 14.398438 11.945312 14.398438 C 11.53125 14.398438 11.347656 14.308594 11.1875 14.046875 C 10.992188 13.71875 10.898438 13.695312 9.703125 13.746094 C 8.335938 13.800781 8.203125 13.710938 8.601562 13 C 8.832031 12.585938 8.53125 11.34375 8.070312 10.804688 C 7.648438 10.3125 7.648438 10.183594 8.085938 9.828125 L 8.429688 9.550781 L 8.429688 10.121094 C 8.429688 11.453125 9.476562 12.523438 10.78125 12.523438 C 11.414062 12.523438 11.554688 12.460938 12.042969 11.941406 C 12.632812 11.3125 12.988281 10.28125 12.839844 9.617188 C 12.726562 9.109375 13.09375 8.976562 13.660156 9.3125 C 13.90625 9.460938 14.210938 9.53125 14.351562 9.476562 C 14.5 9.410156 14.710938 9.484375 14.902344 9.671875 C 15.070312 9.835938 15.390625 10.070312 15.617188 10.195312 C 16.214844 10.53125 17.171875 11.617188 17.503906 12.34375 C 17.769531 12.925781 17.914062 14.242188 17.710938 14.242188 C 17.664062 14.242188 17.429688 14.058594 17.195312 13.835938 C 16.84375 13.507812 16.664062 13.445312 16.265625 13.519531 C 15.464844 13.664062 14.945312 14.234375 14.585938 15.367188 C 14.46875 15.734375 14.367188 15.796875 13.910156 15.796875 C 13.503906 15.796875 13.289062 15.695312 13.019531 15.367188 Z M 11.039062 10.554688 C 10.84375 10.335938 10.953125 10.03125 11.234375 10.03125 C 11.429688 10.03125 11.507812 10.117188 11.480469 10.292969 C 11.429688 10.578125 11.191406 10.722656 11.039062 10.554688 Z M 9.4375 7.996094 C 9.460938 7.902344 9.546875 7.828125 9.617188 7.828125 C 9.691406 7.828125 9.773438 7.902344 9.800781 7.996094 C 9.828125 8.085938 9.746094 8.164062 9.617188 8.164062 C 9.492188 8.164062 9.40625 8.085938 9.4375 7.996094 Z M 9.4375 7.996094 "/>
</g>
</svg>
