
<svg xmlns="http://www.w3.org/2000/svg" xmlns:xlink="http://www.w3.org/1999/xlink" width="24px" height="24px" viewBox="0 0 24 24" version="1.1">
<g id="surface1">
<path style=" stroke:none;fill-rule:nonzero;fill:rgb(46.666667%,53.333333%,60%);fill-opacity:1;" d="M 0.777344 8.703125 C -3.703125 21.210938 12.398438 27.289062 18.453125 22.199219 C 24.5 17.109375 26.160156 6.957031 19.308594 2.566406 C 18.117188 1.804688 19.953125 2.796875 18.730469 2.171875 C 12.925781 -0.796875 4.480469 -1.632812 0.777344 8.703125 Z M 0.777344 8.703125 "/>
<path style=" stroke:none;fill-rule:evenodd;fill:rgb(100%,100%,100%);fill-opacity:1;" d="M 6.210938 12.121094 L 6.210938 6.53125 L 17.394531 6.53125 L 17.394531 17.714844 L 6.210938 17.714844 Z M 11.699219 16.867188 L 11.699219 16.328125 L 11.015625 16.203125 C 10.035156 16.023438 9.597656 15.796875 8.882812 15.113281 C 7.640625 13.921875 7.210938 12.046875 7.84375 10.609375 C 7.953125 10.367188 8.039062 10.101562 8.039062 10.019531 C 8.039062 9.820312 9.515625 8.359375 9.714844 8.359375 C 9.804688 8.359375 10.054688 8.269531 10.265625 8.164062 C 10.476562 8.054688 10.890625 7.929688 11.175781 7.894531 L 11.699219 7.824219 L 11.699219 6.734375 L 6.414062 6.734375 L 6.414062 17.410156 L 11.699219 17.410156 Z M 11.699219 16.867188 "/>
</g>
</svg>
