
<svg xmlns="http://www.w3.org/2000/svg" xmlns:xlink="http://www.w3.org/1999/xlink" width="24px" height="24px" viewBox="0 0 24 24" version="1.1">
<defs>
<clipPath id="clip1">
  <path d="M 8 11.5 L 16.5 11.5 L 16.5 22 L 8 22 Z M 8 11.5 "/>
</clipPath>
<clipPath id="clip2">
  <path d="M 19.910156 16.84375 C 19.890625 21.46875 16.445312 25.199219 12.21875 25.175781 C 7.988281 25.15625 4.578125 21.386719 4.59375 16.757812 C 4.617188 12.132812 8.0625 8.402344 12.289062 8.421875 C 16.515625 8.445312 19.929688 12.214844 19.910156 16.84375 Z M 19.910156 16.84375 "/>
</clipPath>
<clipPath id="clip3">
  <path d="M 8 16 L 16.5 16 L 16.5 22 L 8 22 Z M 8 16 "/>
</clipPath>
<clipPath id="clip4">
  <path d="M 19.910156 16.84375 C 19.890625 21.46875 16.445312 25.199219 12.21875 25.175781 C 7.988281 25.15625 4.578125 21.386719 4.59375 16.757812 C 4.617188 12.132812 8.0625 8.402344 12.289062 8.421875 C 16.515625 8.445312 19.929688 12.214844 19.910156 16.84375 Z M 19.910156 16.84375 "/>
</clipPath>
<clipPath id="clip5">
  <path d="M 12.5 20.5 L 13.5 20.5 L 13.5 21.5 L 12.5 21.5 Z M 12.5 20.5 "/>
</clipPath>
<clipPath id="clip6">
  <path d="M 19.910156 16.84375 C 19.890625 21.46875 16.445312 25.199219 12.21875 25.175781 C 7.988281 25.15625 4.578125 21.386719 4.59375 16.757812 C 4.617188 12.132812 8.0625 8.402344 12.289062 8.421875 C 16.515625 8.445312 19.929688 12.214844 19.910156 16.84375 Z M 19.910156 16.84375 "/>
</clipPath>
<clipPath id="clip7">
  <path d="M 12 19.5 L 13 19.5 L 13 20.5 L 12 20.5 Z M 12 19.5 "/>
</clipPath>
<clipPath id="clip8">
  <path d="M 19.910156 16.84375 C 19.890625 21.46875 16.445312 25.199219 12.21875 25.175781 C 7.988281 25.15625 4.578125 21.386719 4.59375 16.757812 C 4.617188 12.132812 8.0625 8.402344 12.289062 8.421875 C 16.515625 8.445312 19.929688 12.214844 19.910156 16.84375 Z M 19.910156 16.84375 "/>
</clipPath>
<clipPath id="clip9">
  <path d="M 12.5 18.5 L 13.5 18.5 L 13.5 19.5 L 12.5 19.5 Z M 12.5 18.5 "/>
</clipPath>
<clipPath id="clip10">
  <path d="M 19.910156 16.84375 C 19.890625 21.46875 16.445312 25.199219 12.21875 25.175781 C 7.988281 25.15625 4.578125 21.386719 4.59375 16.757812 C 4.617188 12.132812 8.0625 8.402344 12.289062 8.421875 C 16.515625 8.445312 19.929688 12.214844 19.910156 16.84375 Z M 19.910156 16.84375 "/>
</clipPath>
<clipPath id="clip11">
  <path d="M 12 15.5 L 13.5 15.5 L 13.5 17 L 12 17 Z M 12 15.5 "/>
</clipPath>
<clipPath id="clip12">
  <path d="M 19.910156 16.84375 C 19.890625 21.46875 16.445312 25.199219 12.21875 25.175781 C 7.988281 25.15625 4.578125 21.386719 4.59375 16.757812 C 4.617188 12.132812 8.0625 8.402344 12.289062 8.421875 C 16.515625 8.445312 19.929688 12.214844 19.910156 16.84375 Z M 19.910156 16.84375 "/>
</clipPath>
<clipPath id="clip13">
  <path d="M 11.5 17 L 12.5 17 L 12.5 18.5 L 11.5 18.5 Z M 11.5 17 "/>
</clipPath>
<clipPath id="clip14">
  <path d="M 19.910156 16.84375 C 19.890625 21.46875 16.445312 25.199219 12.21875 25.175781 C 7.988281 25.15625 4.578125 21.386719 4.59375 16.757812 C 4.617188 12.132812 8.0625 8.402344 12.289062 8.421875 C 16.515625 8.445312 19.929688 12.214844 19.910156 16.84375 Z M 19.910156 16.84375 "/>
</clipPath>
</defs>
<g id="surface1">
<path style=" stroke:none;fill-rule:nonzero;fill:rgb(46.666667%,53.333333%,60%);fill-opacity:1;" d="M 0.40625 11.695312 C -1.65625 1.46875 12.476562 -2.414062 20.148438 2.015625 C 26.257812 5.546875 25.023438 18.046875 16.773438 22.554688 C 8.523438 27.0625 2.058594 19.902344 0.40625 11.695312 Z M 0.40625 11.695312 "/>
<path style=" stroke:none;fill-rule:nonzero;fill:rgb(67.843137%,84.705882%,90.196078%);fill-opacity:1;" d="M 10.992188 10.128906 C 10.558594 9.804688 10.25 9.855469 9.789062 9.929688 L 8.828125 10.085938 C 8.554688 11.523438 7.46875 12.695312 6.039062 12.929688 C 4.8125 13.128906 3.648438 12.582031 2.953125 11.605469 L 2.507812 8.164062 C 2.933594 7.003906 3.910156 6.109375 5.136719 5.90625 C 6.5625 5.671875 7.898438 6.453125 8.527344 7.742188 L 9.484375 7.585938 C 9.949219 7.511719 10.257812 7.460938 10.59375 7.007812 L 10.992188 10.132812 "/>
<g clip-path="url(#clip1)" clip-rule="nonzero">
<g clip-path="url(#clip2)" clip-rule="nonzero">
<path style=" stroke:none;fill-rule:nonzero;fill:rgb(78.431373%,58.431373%,89.411765%);fill-opacity:1;" d="M 10.5 11.695312 C 10.941406 12.183594 10.9375 12.570312 10.933594 13.15625 L 10.929688 14.375 C 9.375 14.9375 8.257812 16.460938 8.25 18.265625 C 8.242188 19.820312 9.058594 21.175781 10.273438 21.894531 L 14.1875 21.914062 C 15.40625 21.210938 16.234375 19.859375 16.242188 18.3125 C 16.25 16.507812 15.140625 14.96875 13.59375 14.390625 L 13.601562 13.171875 C 13.601562 12.589844 13.601562 12.199219 14.046875 11.710938 L 10.5 11.695312 "/>
</g>
</g>
<g clip-path="url(#clip3)" clip-rule="nonzero">
<g clip-path="url(#clip4)" clip-rule="nonzero">
<path style=" stroke:none;fill-rule:nonzero;fill:rgb(100%,54.901961%,0%);fill-opacity:1;" d="M 8.675781 16.417969 C 8.40625 16.96875 8.253906 17.59375 8.25 18.257812 C 8.242188 19.808594 9.0625 21.171875 10.273438 21.890625 L 14.1875 21.910156 C 15.40625 21.203125 16.234375 19.851562 16.242188 18.300781 C 16.242188 17.640625 16.097656 17.011719 15.835938 16.453125 "/>
</g>
</g>
<g clip-path="url(#clip5)" clip-rule="nonzero">
<g clip-path="url(#clip6)" clip-rule="nonzero">
<path style=" stroke:none;fill-rule:nonzero;fill:rgb(97.647059%,97.647059%,97.647059%);fill-opacity:1;" d="M 13.234375 20.992188 C 13.234375 21.09375 13.15625 21.175781 13.066406 21.175781 C 12.976562 21.171875 12.898438 21.09375 12.898438 20.992188 C 12.898438 20.890625 12.976562 20.8125 13.070312 20.8125 C 13.160156 20.8125 13.234375 20.890625 13.234375 20.992188 "/>
</g>
</g>
<g clip-path="url(#clip7)" clip-rule="nonzero">
<g clip-path="url(#clip8)" clip-rule="nonzero">
<path style=" stroke:none;fill-rule:nonzero;fill:rgb(97.647059%,97.647059%,97.647059%);fill-opacity:1;" d="M 12.738281 20.171875 C 12.734375 20.320312 12.625 20.445312 12.484375 20.445312 C 12.351562 20.445312 12.238281 20.320312 12.238281 20.171875 C 12.238281 20.015625 12.351562 19.898438 12.488281 19.898438 C 12.625 19.898438 12.738281 20.023438 12.738281 20.171875 "/>
</g>
</g>
<g clip-path="url(#clip9)" clip-rule="nonzero">
<g clip-path="url(#clip10)" clip-rule="nonzero">
<path style=" stroke:none;fill-rule:nonzero;fill:rgb(97.647059%,97.647059%,97.647059%);fill-opacity:1;" d="M 13.242188 18.992188 C 13.242188 19.191406 13.09375 19.351562 12.90625 19.351562 C 12.726562 19.351562 12.578125 19.1875 12.578125 18.988281 C 12.578125 18.785156 12.726562 18.625 12.910156 18.625 C 13.09375 18.625 13.242188 18.789062 13.242188 18.992188 "/>
</g>
</g>
<g clip-path="url(#clip11)" clip-rule="nonzero">
<g clip-path="url(#clip12)" clip-rule="nonzero">
<path style=" stroke:none;fill-rule:nonzero;fill:rgb(97.647059%,97.647059%,97.647059%);fill-opacity:1;" d="M 13.253906 16.257812 C 13.253906 16.5625 13.027344 16.804688 12.75 16.804688 C 12.476562 16.800781 12.253906 16.554688 12.257812 16.253906 C 12.257812 15.953125 12.484375 15.710938 12.757812 15.710938 C 13.03125 15.710938 13.257812 15.960938 13.253906 16.257812 "/>
</g>
</g>
<g clip-path="url(#clip13)" clip-rule="nonzero">
<g clip-path="url(#clip14)" clip-rule="nonzero">
<path style=" stroke:none;fill-rule:nonzero;fill:rgb(97.647059%,97.647059%,97.647059%);fill-opacity:1;" d="M 12.414062 17.804688 C 12.414062 18.054688 12.226562 18.257812 11.996094 18.257812 C 11.765625 18.253906 11.582031 18.046875 11.582031 17.796875 C 11.585938 17.546875 11.773438 17.34375 12 17.34375 C 12.230469 17.34375 12.414062 17.554688 12.414062 17.804688 "/>
</g>
</g>
<path style=" stroke:none;fill-rule:nonzero;fill:rgb(90.196078%,90.196078%,98.039216%);fill-opacity:1;" d="M 18.945312 4.582031 L 19.113281 4.804688 C 19.421875 5.210938 19.339844 5.796875 18.929688 6.101562 L 14.640625 9.328125 C 14.234375 9.632812 13.648438 9.554688 13.34375 9.140625 L 13.175781 8.921875 C 12.867188 8.507812 12.949219 7.929688 13.359375 7.617188 L 17.644531 4.398438 C 18.054688 4.085938 18.640625 4.171875 18.945312 4.582031 Z M 18.945312 4.582031 "/>
<path style=" stroke:none;fill-rule:nonzero;fill:rgb(90.196078%,90.196078%,98.039216%);fill-opacity:1;" d="M 13.96875 10.742188 L 11.75 7.953125 L 15.273438 7.421875 Z M 13.96875 10.742188 "/>
</g>
</svg>
