
<svg xmlns="http://www.w3.org/2000/svg" xmlns:xlink="http://www.w3.org/1999/xlink" width="24px" height="24px" viewBox="0 0 24 24" version="1.1">
<g id="surface1">
<path style=" stroke:none;fill-rule:nonzero;fill:rgb(57.647059%,43.921569%,85.882353%);fill-opacity:1;" d="M 21.617188 5.101562 C 35.011719 33.421875 -15.398438 26.753906 5.34375 4.875 C 10.070312 -0.109375 18.070312 -2.398438 21.617188 5.101562 Z M 21.617188 5.101562 "/>
<path style=" stroke:none;fill-rule:evenodd;fill:rgb(100%,100%,100%);fill-opacity:1;" d="M 15.820312 7.121094 L 18.039062 9.367188 C 18.140625 9.46875 18.136719 9.632812 18.035156 9.734375 L 9.863281 17.789062 C 9.757812 17.890625 9.597656 17.890625 9.496094 17.789062 L 7.28125 15.539062 C 7.179688 15.4375 7.179688 15.273438 7.28125 15.171875 L 15.457031 7.117188 C 15.558594 7.015625 15.722656 7.019531 15.820312 7.121094 Z M 15.820312 7.121094 "/>
<path style=" stroke:none;fill-rule:evenodd;fill:rgb(100%,100%,100%);fill-opacity:1;" d="M 17.882812 15.398438 L 15.636719 17.617188 C 15.535156 17.71875 15.371094 17.714844 15.273438 17.613281 L 7.21875 9.4375 C 7.117188 9.335938 7.117188 9.171875 7.21875 9.074219 L 9.46875 6.859375 C 9.570312 6.757812 9.734375 6.757812 9.832031 6.859375 L 17.886719 15.035156 C 17.988281 15.136719 17.984375 15.300781 17.882812 15.398438 Z M 17.882812 15.398438 "/>
</g>
</svg>
