
<svg xmlns="http://www.w3.org/2000/svg" xmlns:xlink="http://www.w3.org/1999/xlink" width="24px" height="24px" viewBox="0 0 24 24" version="1.1">
<g id="surface1">
<path style=" stroke:none;fill-rule:nonzero;fill:rgb(100%,54.901961%,0%);fill-opacity:1;" d="M 18.359375 2.472656 C 6.085938 -6.15625 -6.351562 9.78125 3.648438 19.945312 C 13.070312 29.523438 27.710938 20.648438 23.132812 8.726562 C 22.179688 6.242188 20.613281 4.054688 18.359375 2.472656 Z M 18.359375 2.472656 "/>
<path style=" stroke:none;fill-rule:nonzero;fill:rgb(100%,100%,100%);fill-opacity:1;" d="M 11.796875 4.226562 C 11.796875 4.226562 11.796875 4.226562 11.820312 4.242188 C 11.890625 4.203125 11.957031 4.1875 12.0625 4.15625 C 12.078125 4.140625 12.09375 4.140625 12.117188 4.140625 C 12.199219 4.070312 12.265625 4.039062 12.359375 4.039062 C 12.375 4.039062 12.398438 4.039062 12.398438 4.054688 C 12.425781 4.054688 12.425781 4.054688 12.425781 4.070312 L 12.425781 4.097656 C 12.398438 4.113281 12.398438 4.113281 12.398438 4.113281 C 12.386719 4.125 12.359375 4.125 12.359375 4.125 L 12.359375 4.140625 C 12.332031 4.40625 12.304688 4.664062 12.265625 4.929688 C 12.238281 5.175781 12.226562 5.4375 12.199219 5.6875 C 12.199219 5.816406 12.199219 5.917969 12.171875 6.019531 C 12.117188 6.296875 12.09375 6.546875 12.078125 6.820312 C 12.050781 7.070312 12.050781 7.34375 12.078125 7.621094 C 12.09375 7.867188 12.09375 8.148438 12.09375 8.390625 C 12.09375 8.523438 12.09375 8.640625 12.09375 8.789062 C 12.09375 9.046875 12.0625 9.3125 12.023438 9.570312 C 12 9.820312 11.945312 10.097656 11.90625 10.359375 C 11.890625 10.417969 11.863281 10.476562 11.820312 10.519531 C 11.820312 10.53125 11.796875 10.53125 11.796875 10.546875 C 11.78125 10.53125 11.78125 10.53125 11.769531 10.53125 C 11.769531 10.53125 11.757812 10.53125 11.742188 10.519531 C 11.664062 10.417969 11.570312 10.375 11.445312 10.328125 C 11.394531 10.316406 11.328125 10.289062 11.289062 10.242188 C 11.257812 10.226562 11.234375 10.199219 11.234375 10.199219 C 11.234375 10.183594 11.234375 10.183594 11.21875 10.183594 L 11.21875 10.171875 C 11.234375 10.125 11.234375 10.097656 11.246094 10.082031 C 11.328125 9.804688 11.394531 9.570312 11.445312 9.3125 C 11.5 9.046875 11.554688 8.789062 11.582031 8.523438 C 11.59375 8.277344 11.609375 8 11.59375 7.738281 C 11.59375 7.476562 11.59375 7.199219 11.59375 6.953125 C 11.59375 6.6875 11.59375 6.414062 11.609375 6.148438 C 11.621094 5.890625 11.632812 5.613281 11.664062 5.367188 C 11.6875 5.101562 11.726562 4.84375 11.726562 4.5625 C 11.726562 4.507812 11.703125 4.433594 11.6875 4.375 C 11.6875 4.304688 11.726562 4.257812 11.769531 4.226562 C 11.78125 4.226562 11.78125 4.226562 11.796875 4.226562 Z M 11.835938 4.476562 L 11.820312 4.492188 C 11.835938 4.578125 11.835938 4.695312 11.820312 4.796875 C 11.820312 5.058594 11.820312 5.304688 11.796875 5.570312 C 11.769531 5.816406 11.757812 6.09375 11.742188 6.339844 C 11.726562 6.617188 11.726562 6.894531 11.726562 7.140625 C 11.726562 7.417969 11.726562 7.679688 11.726562 7.941406 C 11.726562 8.203125 11.726562 8.46875 11.6875 8.726562 C 11.664062 8.992188 11.621094 9.25 11.554688 9.515625 C 11.527344 9.601562 11.5 9.71875 11.488281 9.804688 C 11.460938 9.921875 11.421875 10.023438 11.339844 10.125 L 11.351562 10.125 C 11.351562 10.125 11.351562 10.125 11.351562 10.140625 C 11.351562 10.15625 11.351562 10.15625 11.351562 10.171875 C 11.476562 10.199219 11.59375 10.257812 11.6875 10.328125 C 11.703125 10.34375 11.726562 10.375 11.757812 10.390625 C 11.757812 10.375 11.757812 10.328125 11.769531 10.316406 C 11.769531 10.226562 11.796875 10.140625 11.820312 10.054688 C 11.863281 9.804688 11.90625 9.53125 11.929688 9.28125 C 11.945312 9.078125 11.957031 8.890625 11.957031 8.699219 C 11.96875 8.523438 12 8.367188 11.96875 8.203125 C 11.957031 7.929688 11.957031 7.664062 11.945312 7.40625 C 11.929688 7.140625 11.945312 6.878906 11.96875 6.601562 C 12.011719 6.339844 12.039062 6.09375 12.09375 5.816406 C 12.09375 5.757812 12.105469 5.6875 12.117188 5.597656 C 12.15625 5.351562 12.1875 5.085938 12.199219 4.828125 C 12.210938 4.625 12.238281 4.417969 12.265625 4.214844 C 12.238281 4.242188 12.210938 4.257812 12.171875 4.242188 C 12.15625 4.257812 12.15625 4.257812 12.15625 4.257812 C 12.117188 4.273438 12.09375 4.273438 12.0625 4.289062 C 12.050781 4.304688 12.039062 4.332031 12.039062 4.34375 C 12 4.390625 11.945312 4.417969 11.863281 4.433594 C 11.863281 4.460938 11.851562 4.476562 11.835938 4.476562 Z M 11.835938 4.476562 "/>
<path style=" stroke:none;fill-rule:nonzero;fill:rgb(100%,100%,100%);fill-opacity:1;" d="M 11.820312 4.492188 L 11.835938 4.476562 C 11.851562 4.476562 11.863281 4.460938 11.863281 4.433594 C 11.945312 4.417969 12 4.390625 12.039062 4.34375 C 12.039062 4.332031 12.050781 4.304688 12.0625 4.289062 C 12.09375 4.273438 12.117188 4.273438 12.15625 4.257812 C 12.15625 4.257812 12.15625 4.257812 12.171875 4.242188 C 12.210938 4.257812 12.238281 4.242188 12.265625 4.214844 C 12.238281 4.417969 12.210938 4.625 12.199219 4.828125 C 12.1875 5.085938 12.15625 5.351562 12.117188 5.597656 C 12.105469 5.6875 12.09375 5.757812 12.09375 5.816406 C 12.039062 6.09375 12.011719 6.339844 11.96875 6.601562 C 11.945312 6.878906 11.929688 7.140625 11.945312 7.40625 C 11.957031 7.664062 11.957031 7.929688 11.96875 8.203125 C 12 8.367188 11.96875 8.523438 11.957031 8.699219 C 11.957031 8.890625 11.945312 9.078125 11.929688 9.28125 C 11.90625 9.53125 11.863281 9.804688 11.820312 10.054688 C 11.796875 10.140625 11.769531 10.226562 11.769531 10.316406 C 11.757812 10.328125 11.757812 10.375 11.757812 10.390625 C 11.726562 10.375 11.703125 10.34375 11.6875 10.328125 C 11.59375 10.257812 11.476562 10.199219 11.351562 10.171875 C 11.351562 10.15625 11.351562 10.15625 11.351562 10.140625 C 11.351562 10.125 11.351562 10.125 11.351562 10.125 L 11.339844 10.125 C 11.421875 10.023438 11.460938 9.921875 11.488281 9.804688 C 11.5 9.71875 11.527344 9.601562 11.554688 9.515625 C 11.621094 9.25 11.664062 8.992188 11.6875 8.726562 C 11.726562 8.46875 11.726562 8.203125 11.726562 7.941406 C 11.726562 7.679688 11.726562 7.417969 11.726562 7.140625 C 11.726562 6.894531 11.726562 6.617188 11.742188 6.339844 C 11.757812 6.09375 11.769531 5.816406 11.796875 5.570312 C 11.820312 5.304688 11.820312 5.058594 11.820312 4.796875 C 11.835938 4.695312 11.835938 4.578125 11.820312 4.492188 Z M 11.820312 4.492188 "/>
<path style=" stroke:none;fill-rule:nonzero;fill:rgb(100%,100%,100%);fill-opacity:1;" d="M 10.296875 6.558594 C 10.308594 6.546875 10.320312 6.546875 10.359375 6.515625 C 10.414062 6.484375 10.523438 6.457031 10.695312 6.398438 C 10.871094 6.339844 11.21875 6.355469 11.726562 6.445312 C 11.757812 6.53125 11.757812 6.632812 11.703125 6.75 C 11.648438 6.734375 11.570312 6.703125 11.5 6.703125 C 11.433594 6.6875 11.394531 6.6875 11.351562 6.6875 C 11.328125 6.6875 11.289062 6.6875 11.257812 6.6875 C 11.21875 6.6875 11.152344 6.6875 11.070312 6.6875 C 10.992188 6.6875 10.898438 6.71875 10.832031 6.789062 C 10.832031 6.804688 10.859375 6.820312 10.898438 6.851562 C 10.964844 6.894531 11.058594 6.9375 11.195312 6.980469 C 11.328125 7.023438 11.476562 7.054688 11.632812 7.070312 C 11.820312 7.097656 12.039062 7.097656 12.304688 7.097656 C 12.585938 7.097656 12.734375 7.097656 12.761719 7.054688 C 12.789062 7.039062 12.773438 6.996094 12.707031 6.980469 C 12.65625 6.953125 12.492188 6.894531 12.226562 6.820312 C 12.09375 6.777344 12.023438 6.765625 12 6.777344 C 11.96875 6.71875 11.957031 6.648438 11.984375 6.558594 C 12.011719 6.484375 12 6.457031 11.984375 6.445312 C 12.359375 6.515625 12.574219 6.558594 12.625 6.585938 C 12.65625 6.601562 12.707031 6.617188 12.800781 6.660156 C 12.882812 6.675781 12.960938 6.703125 13.042969 6.734375 C 13.136719 6.765625 13.203125 6.820312 13.273438 6.894531 C 13.324219 6.953125 13.351562 6.996094 13.351562 7.039062 C 13.367188 7.097656 13.335938 7.125 13.335938 7.1875 C 13.335938 7.214844 13.296875 7.273438 13.242188 7.328125 C 13.203125 7.375 13.136719 7.40625 13.042969 7.417969 C 12.65625 7.492188 12.199219 7.492188 11.703125 7.429688 C 11.21875 7.390625 10.859375 7.289062 10.632812 7.1875 L 10.484375 7.097656 C 10.359375 7.039062 10.308594 6.980469 10.296875 6.96875 C 10.253906 6.894531 10.214844 6.835938 10.214844 6.804688 C 10.203125 6.75 10.214844 6.703125 10.226562 6.660156 C 10.265625 6.601562 10.28125 6.574219 10.296875 6.558594 Z M 10.390625 6.617188 C 10.351562 6.648438 10.351562 6.660156 10.320312 6.6875 C 10.320312 6.75 10.335938 6.804688 10.351562 6.820312 C 10.375 6.878906 10.414062 6.894531 10.453125 6.921875 C 10.5625 6.996094 10.65625 7.039062 10.765625 7.085938 L 10.953125 7.140625 C 11.007812 7.171875 11.085938 7.199219 11.164062 7.226562 C 11.246094 7.257812 11.328125 7.273438 11.433594 7.289062 L 11.742188 7.328125 C 11.863281 7.34375 11.957031 7.34375 12 7.34375 C 12.039062 7.34375 12.0625 7.34375 12.0625 7.34375 C 12.359375 7.34375 12.5625 7.34375 12.667969 7.328125 L 12.8125 7.328125 C 12.9375 7.328125 12.960938 7.328125 12.84375 7.328125 L 12.921875 7.328125 C 13.042969 7.316406 13.136719 7.273438 13.21875 7.199219 C 13.285156 7.140625 13.296875 7.070312 13.230469 6.980469 C 13.1875 6.921875 13.125 6.878906 13.042969 6.835938 C 12.921875 6.777344 12.773438 6.734375 12.613281 6.6875 L 12.0625 6.546875 L 12.0625 6.6875 L 12.519531 6.804688 C 12.734375 6.867188 12.855469 6.921875 12.894531 6.980469 C 12.960938 7.039062 12.960938 7.097656 12.894531 7.125 C 12.855469 7.171875 12.761719 7.1875 12.625 7.1875 C 12.574219 7.1875 12.4375 7.1875 12.28125 7.1875 L 11.796875 7.1875 C 11.726562 7.171875 11.632812 7.171875 11.527344 7.140625 L 11.085938 7.039062 L 10.789062 6.921875 C 10.75 6.90625 10.695312 6.894531 10.695312 6.835938 C 10.640625 6.765625 10.683594 6.703125 10.804688 6.660156 C 10.925781 6.601562 11.046875 6.601562 11.164062 6.601562 L 11.664062 6.632812 L 11.648438 6.515625 L 11.367188 6.484375 C 10.976562 6.429688 10.671875 6.457031 10.445312 6.585938 Z M 10.390625 6.617188 "/>
<path style=" stroke:none;fill-rule:nonzero;fill:rgb(100%,100%,100%);fill-opacity:1;" d="M 10.320312 6.6875 C 10.351562 6.660156 10.351562 6.648438 10.390625 6.617188 L 10.445312 6.585938 C 10.671875 6.457031 10.976562 6.429688 11.367188 6.484375 L 11.648438 6.515625 L 11.664062 6.632812 L 11.164062 6.601562 C 11.046875 6.601562 10.925781 6.601562 10.804688 6.660156 C 10.683594 6.703125 10.640625 6.765625 10.695312 6.835938 C 10.695312 6.894531 10.75 6.90625 10.789062 6.921875 L 11.085938 7.039062 L 11.527344 7.140625 C 11.632812 7.171875 11.726562 7.171875 11.796875 7.1875 L 12.28125 7.1875 C 12.4375 7.1875 12.574219 7.1875 12.625 7.1875 C 12.761719 7.1875 12.855469 7.171875 12.894531 7.125 C 12.960938 7.097656 12.960938 7.039062 12.894531 6.980469 C 12.855469 6.921875 12.734375 6.867188 12.519531 6.804688 L 12.0625 6.6875 L 12.0625 6.546875 L 12.613281 6.6875 C 12.773438 6.734375 12.921875 6.777344 13.042969 6.835938 C 13.125 6.878906 13.1875 6.921875 13.230469 6.980469 C 13.296875 7.070312 13.285156 7.140625 13.21875 7.199219 C 13.136719 7.273438 13.042969 7.316406 12.921875 7.328125 L 12.84375 7.328125 C 12.960938 7.328125 12.9375 7.328125 12.8125 7.328125 L 12.667969 7.328125 C 12.5625 7.34375 12.359375 7.34375 12.0625 7.34375 C 12.0625 7.34375 12.039062 7.34375 12 7.34375 C 11.957031 7.34375 11.863281 7.34375 11.742188 7.328125 L 11.433594 7.289062 C 11.328125 7.273438 11.246094 7.257812 11.164062 7.226562 C 11.085938 7.199219 11.007812 7.171875 10.953125 7.140625 L 10.765625 7.085938 C 10.65625 7.039062 10.5625 6.996094 10.453125 6.921875 C 10.414062 6.894531 10.375 6.878906 10.351562 6.820312 C 10.335938 6.804688 10.320312 6.75 10.320312 6.6875 Z M 10.320312 6.6875 "/>
<path style=" stroke:none;fill-rule:nonzero;fill:rgb(100%,100%,100%);fill-opacity:1;" d="M 10.078125 5.890625 C 10.09375 5.875 10.121094 5.859375 10.160156 5.828125 C 10.214844 5.804688 10.351562 5.757812 10.546875 5.699219 C 10.738281 5.640625 11.125 5.65625 11.726562 5.742188 C 11.757812 5.84375 11.757812 5.960938 11.703125 6.109375 C 11.632812 6.078125 11.554688 6.046875 11.476562 6.046875 C 11.394531 6.035156 11.328125 6.035156 11.289062 6.035156 C 11.257812 6.035156 11.234375 6.035156 11.195312 6.035156 C 11.152344 6.035156 11.085938 6.035156 10.976562 6.035156 C 10.871094 6.019531 10.777344 6.0625 10.695312 6.148438 C 10.695312 6.164062 10.726562 6.179688 10.789062 6.238281 C 10.859375 6.265625 10.964844 6.3125 11.113281 6.367188 C 11.257812 6.414062 11.433594 6.457031 11.632812 6.46875 C 11.820312 6.484375 12.09375 6.515625 12.398438 6.5 C 12.707031 6.484375 12.894531 6.484375 12.921875 6.457031 C 12.949219 6.429688 12.9375 6.398438 12.867188 6.367188 C 12.800781 6.328125 12.601562 6.265625 12.304688 6.179688 C 12.15625 6.148438 12.0625 6.109375 12.039062 6.136719 C 12 6.0625 12 5.976562 12.039062 5.890625 C 12.039062 5.804688 12.039062 5.742188 12.023438 5.726562 C 12.46875 5.828125 12.707031 5.890625 12.734375 5.917969 C 12.800781 5.933594 12.867188 5.960938 12.960938 5.976562 C 13.042969 6.019531 13.148438 6.046875 13.242188 6.09375 C 13.335938 6.125 13.417969 6.179688 13.5 6.253906 C 13.566406 6.328125 13.59375 6.398438 13.59375 6.445312 C 13.59375 6.484375 13.578125 6.546875 13.578125 6.585938 C 13.566406 6.632812 13.539062 6.6875 13.472656 6.75 C 13.429688 6.820312 13.335938 6.851562 13.242188 6.878906 C 12.800781 6.96875 12.28125 6.96875 11.703125 6.894531 C 11.140625 6.835938 10.726562 6.734375 10.484375 6.585938 L 10.308594 6.5 C 10.160156 6.429688 10.09375 6.367188 10.078125 6.339844 C 10.027344 6.253906 10 6.210938 9.984375 6.164062 C 9.972656 6.109375 9.984375 6.046875 10.027344 5.992188 C 10.054688 5.933594 10.066406 5.890625 10.078125 5.890625 Z M 10.1875 5.960938 C 10.160156 5.976562 10.132812 6.007812 10.121094 6.019531 C 10.121094 6.109375 10.132812 6.164062 10.148438 6.179688 C 10.1875 6.238281 10.214844 6.28125 10.28125 6.3125 C 10.390625 6.382812 10.507812 6.445312 10.617188 6.484375 L 10.832031 6.546875 C 10.898438 6.585938 10.976562 6.617188 11.101562 6.660156 C 11.179688 6.6875 11.273438 6.703125 11.394531 6.71875 L 11.742188 6.765625 C 11.90625 6.777344 12 6.777344 12.039062 6.789062 C 12.09375 6.789062 12.105469 6.804688 12.117188 6.804688 C 12.4375 6.789062 12.667969 6.777344 12.800781 6.777344 L 12.976562 6.765625 C 13.125 6.777344 13.136719 6.765625 13.015625 6.765625 L 13.09375 6.765625 C 13.242188 6.75 13.367188 6.703125 13.429688 6.632812 C 13.511719 6.546875 13.511719 6.457031 13.445312 6.355469 C 13.40625 6.296875 13.335938 6.253906 13.242188 6.195312 C 13.109375 6.136719 12.9375 6.078125 12.75 6.035156 L 12.105469 5.875 L 12.105469 6.019531 L 12.625 6.164062 C 12.867188 6.238281 13.03125 6.3125 13.070312 6.367188 C 13.136719 6.445312 13.136719 6.484375 13.070312 6.53125 C 13.03125 6.574219 12.90625 6.601562 12.761719 6.601562 C 12.695312 6.601562 12.5625 6.585938 12.359375 6.601562 L 11.820312 6.585938 C 11.726562 6.585938 11.621094 6.574219 11.5 6.558594 L 10.992188 6.445312 L 10.65625 6.3125 C 10.589844 6.296875 10.5625 6.253906 10.539062 6.195312 C 10.484375 6.109375 10.523438 6.046875 10.65625 5.992188 C 10.804688 5.945312 10.953125 5.917969 11.101562 5.945312 L 11.664062 5.960938 L 11.632812 5.816406 L 11.3125 5.804688 C 10.859375 5.726562 10.523438 5.773438 10.253906 5.917969 Z M 10.1875 5.960938 "/>
<path style=" stroke:none;fill-rule:nonzero;fill:rgb(100%,100%,100%);fill-opacity:1;" d="M 10.121094 6.019531 C 10.132812 6.007812 10.160156 5.976562 10.1875 5.960938 L 10.253906 5.917969 C 10.523438 5.773438 10.859375 5.726562 11.3125 5.804688 L 11.632812 5.816406 L 11.664062 5.960938 L 11.101562 5.945312 C 10.953125 5.917969 10.804688 5.945312 10.65625 5.992188 C 10.523438 6.046875 10.484375 6.109375 10.539062 6.195312 C 10.5625 6.253906 10.589844 6.296875 10.65625 6.3125 L 10.992188 6.445312 L 11.5 6.558594 C 11.621094 6.574219 11.726562 6.585938 11.820312 6.585938 L 12.359375 6.601562 C 12.5625 6.585938 12.695312 6.601562 12.761719 6.601562 C 12.90625 6.601562 13.03125 6.574219 13.070312 6.53125 C 13.136719 6.484375 13.136719 6.445312 13.070312 6.367188 C 13.03125 6.3125 12.867188 6.238281 12.625 6.164062 L 12.105469 6.019531 L 12.105469 5.875 L 12.75 6.035156 C 12.9375 6.078125 13.109375 6.136719 13.242188 6.195312 C 13.335938 6.253906 13.40625 6.296875 13.445312 6.355469 C 13.511719 6.457031 13.511719 6.546875 13.429688 6.632812 C 13.367188 6.703125 13.242188 6.75 13.09375 6.765625 L 13.015625 6.765625 C 13.136719 6.765625 13.125 6.777344 12.976562 6.765625 L 12.800781 6.777344 C 12.667969 6.777344 12.4375 6.789062 12.117188 6.804688 C 12.105469 6.804688 12.09375 6.789062 12.039062 6.789062 C 12 6.777344 11.90625 6.777344 11.742188 6.765625 L 11.394531 6.71875 C 11.273438 6.703125 11.179688 6.6875 11.101562 6.660156 C 10.976562 6.617188 10.898438 6.585938 10.832031 6.546875 L 10.617188 6.484375 C 10.507812 6.445312 10.390625 6.382812 10.28125 6.3125 C 10.214844 6.28125 10.1875 6.238281 10.148438 6.179688 C 10.132812 6.164062 10.121094 6.109375 10.121094 6.019531 Z M 10.121094 6.019531 "/>
<path style=" stroke:none;fill-rule:nonzero;fill:rgb(100%,100%,100%);fill-opacity:1;" d="M 10.804688 4.203125 C 10.726562 3.867188 10.84375 3.574219 11.125 3.3125 C 11.421875 3.0625 11.6875 2.945312 11.929688 2.960938 C 12.1875 2.992188 12.425781 3.0625 12.640625 3.136719 C 12.867188 3.242188 13.042969 3.429688 13.179688 3.765625 C 13.3125 4.085938 13.257812 4.40625 13.015625 4.695312 C 12.773438 5 12.46875 5.132812 12.09375 5.085938 C 11.703125 5.058594 11.488281 5.03125 11.40625 5.03125 C 11.339844 5.015625 11.234375 4.957031 11.101562 4.855469 C 10.976562 4.726562 10.882812 4.507812 10.804688 4.203125 Z M 11.851562 3.136719 C 11.78125 3.164062 11.703125 3.164062 11.632812 3.195312 L 11.445312 3.265625 C 11.058594 3.5 10.882812 3.792969 10.898438 4.15625 C 10.898438 4.1875 10.925781 4.257812 10.964844 4.359375 C 10.992188 4.476562 11.019531 4.535156 11.046875 4.5625 C 11.195312 4.753906 11.351562 4.867188 11.527344 4.929688 C 11.820312 4.957031 12.023438 4.984375 12.15625 4.957031 C 12.34375 4.957031 12.519531 4.929688 12.667969 4.84375 C 12.773438 4.765625 12.894531 4.625 13.03125 4.417969 C 13.070312 4.359375 13.109375 4.289062 13.109375 4.226562 C 13.136719 4.15625 13.136719 4.085938 13.109375 4.011719 C 13.09375 3.921875 13.070312 3.851562 13.03125 3.777344 L 12.921875 3.574219 C 12.882812 3.53125 12.84375 3.472656 12.773438 3.429688 C 12.734375 3.371094 12.679688 3.328125 12.625 3.28125 L 12.4375 3.195312 L 12.25 3.136719 C 12.0625 3.109375 11.929688 3.109375 11.851562 3.136719 Z M 11.851562 3.136719 "/>
<path style=" stroke:none;fill-rule:nonzero;fill:rgb(100%,100%,100%);fill-opacity:1;" d="M 11.632812 3.195312 C 11.703125 3.164062 11.78125 3.164062 11.851562 3.136719 C 11.929688 3.109375 12.0625 3.109375 12.25 3.136719 L 12.4375 3.195312 L 12.625 3.28125 C 12.679688 3.328125 12.734375 3.371094 12.773438 3.429688 C 12.84375 3.472656 12.882812 3.53125 12.921875 3.574219 L 13.03125 3.777344 C 13.070312 3.851562 13.09375 3.921875 13.109375 4.011719 C 13.136719 4.085938 13.136719 4.15625 13.109375 4.226562 C 13.109375 4.289062 13.070312 4.359375 13.03125 4.417969 C 12.894531 4.625 12.773438 4.765625 12.667969 4.84375 C 12.519531 4.929688 12.34375 4.957031 12.15625 4.957031 C 12.023438 4.984375 11.820312 4.957031 11.527344 4.929688 C 11.351562 4.867188 11.195312 4.753906 11.046875 4.5625 C 11.019531 4.535156 10.992188 4.476562 10.964844 4.359375 C 10.925781 4.257812 10.898438 4.1875 10.898438 4.15625 C 10.882812 3.792969 11.058594 3.5 11.445312 3.265625 Z M 11.632812 3.195312 "/>
<path style=" stroke:none;fill-rule:nonzero;fill:rgb(100%,100%,100%);fill-opacity:1;" d="M 9.746094 8.523438 C 9.960938 8.4375 10.214844 8.378906 10.484375 8.351562 C 10.640625 8.320312 10.898438 8.304688 11.273438 8.289062 C 11.421875 8.277344 11.570312 8.289062 11.726562 8.304688 C 12.492188 8.421875 13.164062 8.710938 13.78125 9.164062 C 13.792969 9.210938 13.835938 9.222656 13.859375 9.25 C 14.453125 9.75 14.945312 10.34375 15.347656 11.03125 C 15.617188 11.4375 15.828125 11.917969 16.019531 12.382812 C 16.21875 12.863281 16.539062 13.242188 16.929688 13.546875 L 18.765625 14.945312 C 18.632812 15.71875 18.429688 16.488281 18.148438 17.230469 C 17.894531 17.898438 17.5625 18.484375 17.171875 18.921875 C 17.09375 19.039062 16.96875 19.140625 16.863281 19.226562 C 16.515625 19.488281 16.101562 19.617188 15.617188 19.648438 L 15.578125 19.648438 C 15.226562 19.617188 14.890625 19.515625 14.554688 19.359375 C 13.929688 19.066406 13.273438 18.789062 12.613281 18.539062 C 12.375 18.453125 12.15625 18.367188 11.90625 18.28125 C 11.300781 18.0625 10.683594 17.886719 10.054688 17.742188 C 9.597656 17.65625 9.179688 17.464844 8.820312 17.15625 C 8.085938 16.53125 7.53125 15.761719 7.144531 14.828125 C 6.945312 14.261719 6.835938 13.695312 6.863281 13.125 L 6.863281 12.964844 L 6.824219 12.863281 C 6.917969 11.902344 7.199219 11.058594 7.679688 10.273438 C 7.882812 9.96875 8.097656 9.703125 8.335938 9.5 C 8.605469 9.238281 8.898438 9.019531 9.222656 8.789062 C 9.371094 8.6875 9.546875 8.597656 9.746094 8.523438 Z M 10.546875 8.65625 C 10.253906 8.710938 9.972656 8.789062 9.691406 8.917969 C 9.546875 8.960938 9.421875 9.046875 9.289062 9.148438 C 9.035156 9.339844 8.78125 9.558594 8.554688 9.789062 C 8.484375 9.863281 8.417969 9.921875 8.335938 9.980469 C 8.085938 10.183594 7.898438 10.417969 7.75 10.710938 C 7.75 10.75 7.707031 10.78125 7.679688 10.8125 L 7.210938 11.960938 L 7.078125 12.804688 L 7.132812 12.921875 L 7.132812 13.839844 L 7.304688 14.390625 C 7.375 14.785156 7.65625 15.351562 8.179688 16.125 L 8.070312 15.992188 L 8.273438 16.242188 L 8.179688 16.125 C 8.859375 16.9375 9.476562 17.40625 10.027344 17.507812 C 11.382812 17.742188 12.398438 18.03125 13.085938 18.367188 C 13.378906 18.511719 13.671875 18.628906 13.914062 18.757812 C 14.234375 18.890625 14.503906 18.992188 14.71875 19.078125 C 15.308594 19.296875 15.804688 19.371094 16.207031 19.296875 C 16.300781 19.269531 16.421875 19.226562 16.515625 19.167969 C 16.808594 18.992188 17.09375 18.6875 17.359375 18.234375 C 17.734375 17.609375 17.988281 17.042969 18.125 16.53125 C 18.257812 16.054688 18.367188 15.570312 18.417969 15.132812 C 17.761719 14.683594 17.144531 14.171875 16.539062 13.632812 C 16.351562 13.476562 16.195312 13.300781 16.058594 13.082031 C 15.777344 12.660156 15.535156 12.222656 15.347656 11.757812 C 15.078125 11.058594 14.679688 10.460938 14.195312 9.953125 C 13.804688 9.53125 13.351562 9.238281 12.867188 9.019531 C 12.679688 8.945312 12.480469 8.890625 12.28125 8.828125 C 11.71875 8.640625 11.152344 8.582031 10.589844 8.65625 C 10.589844 8.65625 10.5625 8.65625 10.546875 8.65625 Z M 10.546875 8.65625 "/>
<path style=" stroke:none;fill-rule:nonzero;fill:rgb(100%,100%,100%);fill-opacity:1;" d="M 9.691406 8.917969 C 9.972656 8.789062 10.253906 8.710938 10.546875 8.65625 C 10.5625 8.65625 10.589844 8.65625 10.589844 8.65625 C 11.152344 8.582031 11.71875 8.640625 12.28125 8.828125 C 12.480469 8.890625 12.679688 8.945312 12.867188 9.019531 C 13.351562 9.238281 13.804688 9.53125 14.195312 9.953125 C 14.679688 10.460938 15.078125 11.058594 15.347656 11.757812 C 15.535156 12.222656 15.777344 12.660156 16.058594 13.082031 C 16.195312 13.300781 16.351562 13.476562 16.539062 13.632812 C 17.144531 14.171875 17.761719 14.683594 18.417969 15.132812 C 18.367188 15.570312 18.257812 16.054688 18.125 16.53125 C 17.988281 17.042969 17.734375 17.609375 17.359375 18.234375 C 17.09375 18.6875 16.808594 18.992188 16.515625 19.167969 C 16.421875 19.226562 16.300781 19.269531 16.207031 19.296875 C 15.804688 19.371094 15.308594 19.296875 14.71875 19.078125 C 14.503906 18.992188 14.234375 18.890625 13.914062 18.757812 C 13.671875 18.628906 13.378906 18.511719 13.085938 18.367188 C 12.398438 18.03125 11.382812 17.742188 10.027344 17.507812 C 9.476562 17.40625 8.859375 16.9375 8.179688 16.125 C 7.65625 15.351562 7.375 14.785156 7.304688 14.390625 L 7.132812 13.839844 L 7.132812 12.921875 L 7.078125 12.804688 L 7.210938 11.960938 L 7.679688 10.8125 C 7.707031 10.78125 7.75 10.75 7.75 10.710938 C 7.898438 10.417969 8.085938 10.183594 8.335938 9.980469 C 8.417969 9.921875 8.484375 9.863281 8.554688 9.789062 C 8.78125 9.558594 9.035156 9.339844 9.289062 9.148438 C 9.421875 9.046875 9.546875 8.960938 9.691406 8.917969 Z M 9.691406 8.917969 "/>
<path style=" stroke:none;fill-rule:nonzero;fill:rgb(100%,100%,100%);fill-opacity:1;" d="M 8.179688 16.125 L 8.273438 16.242188 L 8.070312 15.992188 Z M 8.179688 16.125 "/>
<path style=" stroke:none;fill-rule:nonzero;fill:rgb(100%,87.058824%,67.843137%);fill-opacity:1;" d="M 9.085938 8.074219 C 9.703125 8.40625 10.132812 8.917969 10.390625 9.617188 C 10.496094 9.921875 10.617188 10.226562 10.726562 10.53125 L 10.738281 10.53125 C 10.789062 10.648438 10.84375 10.75 10.925781 10.851562 C 10.925781 10.851562 10.925781 10.882812 10.9375 10.882812 C 10.992188 10.984375 11.019531 11.101562 11.03125 11.21875 C 11.058594 11.46875 11.046875 11.699219 10.964844 11.917969 C 10.953125 12.003906 10.914062 12.078125 10.882812 12.164062 C 10.832031 12.351562 10.726562 12.53125 10.617188 12.703125 C 10.601562 12.703125 10.601562 12.703125 10.601562 12.71875 C 10.484375 12.890625 10.359375 13.070312 10.226562 13.226562 C 10.226562 13.242188 10.214844 13.242188 10.214844 13.257812 C 10.160156 13.3125 10.132812 13.375 10.09375 13.429688 C 10.09375 13.445312 10.09375 13.445312 10.09375 13.445312 C 10.078125 13.460938 10.078125 13.476562 10.066406 13.503906 C 9.945312 13.722656 9.785156 13.867188 9.585938 13.941406 C 9.570312 13.941406 9.570312 13.941406 9.558594 13.953125 C 9.234375 14.03125 8.914062 14.117188 8.59375 14.21875 C 8.324219 14.320312 8.070312 14.4375 7.789062 14.539062 C 7.105469 14.785156 6.394531 14.8125 5.671875 14.609375 C 5.445312 14.554688 5.214844 14.480469 5 14.378906 C 4.652344 14.144531 4.421875 13.941406 4.316406 13.734375 C 4.25 13.59375 4.171875 13.429688 4.085938 13.242188 C 4.007812 13.070312 4.007812 12.660156 4.101562 12.003906 C 4.183594 11.363281 4.398438 10.851562 4.734375 10.507812 L 7.078125 7.765625 C 7.144531 7.753906 7.210938 7.710938 7.265625 7.695312 C 7.292969 7.679688 7.332031 7.679688 7.34375 7.664062 C 7.359375 7.664062 7.359375 7.664062 7.359375 7.664062 L 7.375 7.664062 C 7.65625 7.578125 7.9375 7.609375 8.230469 7.710938 C 8.429688 7.78125 8.617188 7.855469 8.820312 7.945312 C 8.914062 8 9.007812 8.03125 9.085938 8.074219 Z M 9.960938 9.3125 C 9.828125 9.078125 9.652344 8.875 9.453125 8.714844 C 9.128906 8.46875 8.792969 8.265625 8.429688 8.117188 C 8.390625 8.101562 8.367188 8.085938 8.324219 8.074219 C 8.070312 7.984375 7.8125 7.914062 7.574219 7.867188 L 7.28125 7.914062 C 7.238281 7.96875 7.199219 8.015625 7.171875 8.074219 C 6.703125 8.726562 6.207031 9.3125 5.65625 9.878906 C 5.539062 10.007812 5.335938 10.242188 5.039062 10.53125 C 4.746094 10.851562 4.53125 11.304688 4.371094 11.875 C 4.195312 12.453125 4.265625 13.007812 4.53125 13.5625 C 5.054688 14.160156 5.507812 14.453125 5.925781 14.453125 C 6.328125 14.453125 6.6875 14.4375 7.011719 14.390625 C 7.238281 14.335938 7.46875 14.273438 7.679688 14.203125 C 8.378906 14 9.085938 13.796875 9.773438 13.5625 C 10.296875 12.9375 10.617188 12.441406 10.726562 12.09375 C 10.832031 11.742188 10.859375 11.492188 10.820312 11.363281 C 10.765625 11.234375 10.738281 11.101562 10.726562 10.96875 C 10.507812 10.402344 10.253906 9.867188 9.960938 9.3125 Z M 9.960938 9.3125 "/>
<path style=" stroke:none;fill-rule:nonzero;fill:rgb(100%,87.058824%,67.843137%);fill-opacity:1;" d="M 9.453125 8.710938 C 9.652344 8.875 9.828125 9.078125 9.960938 9.3125 C 10.253906 9.863281 10.507812 10.402344 10.726562 10.96875 C 10.738281 11.101562 10.765625 11.234375 10.820312 11.363281 C 10.859375 11.492188 10.832031 11.742188 10.726562 12.09375 C 10.617188 12.441406 10.296875 12.9375 9.773438 13.5625 C 9.085938 13.796875 8.378906 14 7.679688 14.203125 C 7.46875 14.273438 7.238281 14.335938 7.011719 14.390625 C 6.6875 14.4375 6.328125 14.453125 5.925781 14.453125 C 5.507812 14.453125 5.054688 14.160156 4.53125 13.5625 C 4.265625 13.007812 4.195312 12.453125 4.371094 11.875 C 4.53125 11.304688 4.746094 10.851562 5.039062 10.53125 C 5.335938 10.242188 5.539062 10.007812 5.65625 9.878906 C 6.207031 9.3125 6.703125 8.726562 7.171875 8.070312 C 7.199219 8.015625 7.238281 7.96875 7.28125 7.914062 L 7.574219 7.867188 C 7.8125 7.914062 8.070312 7.984375 8.324219 8.070312 C 8.367188 8.085938 8.390625 8.101562 8.429688 8.117188 C 8.792969 8.261719 9.128906 8.46875 9.453125 8.710938 Z M 9.453125 8.710938 "/>
<path style=" stroke:none;fill-rule:nonzero;fill:rgb(100%,89.411765%,76.862745%);fill-opacity:1;" d="M 15.882812 12.5 C 15.898438 12.53125 15.898438 12.558594 15.925781 12.585938 C 16.019531 12.789062 16.140625 12.953125 16.289062 13.082031 C 16.289062 13.09375 16.273438 13.109375 16.257812 13.109375 C 16.21875 13.140625 16.207031 13.15625 16.164062 13.183594 C 16.164062 13.183594 16.164062 13.199219 16.164062 13.210938 C 16.164062 13.210938 16.164062 13.226562 16.164062 13.242188 C 16.101562 13.300781 16.019531 13.359375 15.9375 13.390625 C 15.84375 13.429688 15.765625 13.476562 15.695312 13.546875 C 15.507812 13.734375 15.308594 13.914062 15.132812 14.117188 C 15.078125 14.171875 15.039062 14.21875 14.984375 14.261719 C 14.785156 14.363281 14.585938 14.4375 14.34375 14.464844 C 14.25 14.480469 14.140625 14.492188 14.046875 14.492188 C 13.617188 14.539062 13.335938 14.351562 13.164062 13.96875 C 12.960938 13.5625 12.828125 13.140625 12.761719 12.671875 C 12.734375 12.53125 12.71875 12.382812 12.71875 12.238281 C 12.71875 11.828125 12.882812 11.507812 13.203125 11.289062 C 13.273438 11.203125 13.335938 11.171875 13.429688 11.148438 C 13.632812 11.101562 13.835938 11 14.035156 10.898438 C 14.234375 10.765625 14.453125 10.695312 14.664062 10.664062 C 14.664062 10.664062 14.664062 10.664062 14.664062 10.648438 C 14.664062 10.636719 14.664062 10.636719 14.679688 10.621094 C 14.746094 10.609375 14.785156 10.59375 14.851562 10.59375 C 14.878906 10.609375 14.921875 10.621094 14.960938 10.636719 L 14.960938 10.648438 C 15 10.636719 15.039062 10.636719 15.078125 10.648438 L 15.078125 10.664062 C 15.09375 10.664062 15.109375 10.679688 15.121094 10.679688 C 15.121094 10.679688 15.132812 10.679688 15.148438 10.695312 C 15.148438 10.695312 15.160156 10.710938 15.171875 10.722656 C 15.171875 10.738281 15.171875 10.738281 15.1875 10.75 C 15.203125 10.765625 15.214844 10.78125 15.214844 10.8125 C 15.253906 10.914062 15.296875 10.984375 15.347656 11.070312 C 15.359375 11.117188 15.390625 11.148438 15.402344 11.203125 C 15.402344 11.203125 15.402344 11.203125 15.390625 11.21875 C 15.390625 11.21875 15.375 11.234375 15.359375 11.25 C 15.359375 11.25 15.347656 11.25 15.335938 11.261719 C 15.335938 11.261719 15.308594 11.261719 15.308594 11.25 C 15.296875 11.25 15.28125 11.21875 15.28125 11.203125 C 15.226562 11.117188 15.171875 11.03125 15.121094 10.929688 C 15.121094 10.914062 15.109375 10.898438 15.109375 10.898438 C 15.121094 10.929688 15.132812 10.96875 15.148438 11 C 15.265625 11.171875 15.359375 11.351562 15.441406 11.523438 C 15.441406 11.539062 15.441406 11.539062 15.441406 11.554688 L 15.441406 11.570312 C 15.46875 11.582031 15.484375 11.609375 15.484375 11.625 C 15.496094 11.625 15.496094 11.640625 15.496094 11.640625 C 15.523438 11.699219 15.546875 11.773438 15.5625 11.84375 C 15.632812 12.078125 15.75 12.296875 15.882812 12.5 Z M 15.964844 13.09375 C 15.964844 13.070312 15.976562 13.023438 16.007812 12.992188 C 16.019531 12.992188 16.007812 12.992188 16.007812 12.980469 C 15.964844 12.9375 15.9375 12.878906 15.914062 12.820312 C 15.828125 12.671875 15.75 12.53125 15.65625 12.414062 C 15.640625 12.367188 15.617188 12.339844 15.601562 12.296875 C 15.578125 12.28125 15.5625 12.238281 15.546875 12.210938 C 15.5625 12.148438 15.546875 12.121094 15.535156 12.078125 C 15.496094 12.019531 15.46875 11.960938 15.453125 11.902344 C 15.441406 11.890625 15.441406 11.875 15.429688 11.859375 C 15.429688 11.859375 15.429688 11.84375 15.414062 11.84375 C 15.414062 11.789062 15.390625 11.710938 15.347656 11.65625 C 15.214844 11.378906 15.066406 11.101562 14.921875 10.8125 C 14.839844 10.8125 14.746094 10.828125 14.652344 10.828125 C 14.609375 10.839844 14.546875 10.851562 14.503906 10.867188 C 14.453125 10.914062 14.382812 10.96875 14.316406 10.984375 C 13.929688 11.132812 13.554688 11.320312 13.1875 11.507812 C 13.1875 11.523438 13.1875 11.523438 13.1875 11.539062 C 13.1875 11.539062 13.1875 11.554688 13.179688 11.554688 C 13.164062 11.582031 13.136719 11.625 13.09375 11.640625 C 13.070312 11.671875 13.054688 11.699219 13.03125 11.710938 C 13.03125 11.726562 13 11.757812 13 11.773438 C 12.992188 11.789062 12.992188 11.789062 12.992188 11.789062 C 12.992188 11.800781 12.992188 11.800781 12.992188 11.8125 C 12.976562 11.828125 12.976562 11.828125 12.976562 11.84375 C 12.867188 12.0625 12.84375 12.296875 12.894531 12.558594 C 12.9375 12.75 12.976562 12.9375 13.042969 13.109375 C 13.070312 13.285156 13.109375 13.445312 13.164062 13.59375 C 13.21875 13.695312 13.273438 13.796875 13.335938 13.882812 C 13.335938 13.898438 13.335938 13.914062 13.335938 13.914062 C 13.335938 13.925781 13.335938 13.941406 13.335938 13.941406 C 13.335938 13.953125 13.335938 13.953125 13.335938 13.96875 C 13.40625 14.058594 13.484375 14.117188 13.578125 14.171875 C 13.898438 14.320312 14.234375 14.335938 14.585938 14.246094 C 14.640625 14.21875 14.703125 14.1875 14.757812 14.160156 C 15.066406 13.953125 15.335938 13.679688 15.5625 13.359375 C 15.65625 13.300781 15.75 13.226562 15.828125 13.15625 C 15.882812 13.140625 15.925781 13.109375 15.953125 13.109375 C 15.953125 13.09375 15.953125 13.09375 15.964844 13.09375 Z M 15.964844 13.09375 "/>
<path style=" stroke:none;fill-rule:nonzero;fill:rgb(100%,89.411765%,76.862745%);fill-opacity:1;" d="M 16.007812 12.992188 C 15.976562 13.023438 15.964844 13.066406 15.964844 13.09375 C 15.953125 13.09375 15.953125 13.09375 15.953125 13.109375 C 15.925781 13.109375 15.882812 13.140625 15.828125 13.15625 C 15.75 13.226562 15.65625 13.300781 15.5625 13.359375 C 15.335938 13.679688 15.066406 13.953125 14.757812 14.160156 C 14.703125 14.1875 14.640625 14.21875 14.585938 14.246094 C 14.234375 14.335938 13.898438 14.320312 13.578125 14.171875 C 13.484375 14.117188 13.40625 14.054688 13.335938 13.96875 C 13.335938 13.953125 13.335938 13.953125 13.335938 13.941406 C 13.335938 13.941406 13.335938 13.925781 13.335938 13.914062 C 13.335938 13.914062 13.335938 13.898438 13.335938 13.882812 C 13.273438 13.796875 13.21875 13.695312 13.164062 13.59375 C 13.109375 13.445312 13.070312 13.285156 13.042969 13.109375 C 12.976562 12.9375 12.9375 12.746094 12.894531 12.558594 C 12.84375 12.296875 12.867188 12.0625 12.976562 11.84375 C 12.976562 11.828125 12.976562 11.828125 12.992188 11.8125 C 12.992188 11.800781 12.992188 11.800781 12.992188 11.785156 C 12.992188 11.785156 12.992188 11.785156 13 11.773438 C 13 11.757812 13.03125 11.726562 13.03125 11.710938 C 13.054688 11.699219 13.070312 11.671875 13.09375 11.640625 C 13.136719 11.625 13.164062 11.582031 13.179688 11.554688 C 13.1875 11.554688 13.1875 11.539062 13.1875 11.539062 C 13.1875 11.523438 13.1875 11.523438 13.1875 11.507812 C 13.554688 11.320312 13.929688 11.132812 14.316406 10.984375 C 14.382812 10.96875 14.453125 10.914062 14.503906 10.867188 C 14.546875 10.851562 14.609375 10.839844 14.652344 10.824219 C 14.746094 10.824219 14.839844 10.8125 14.921875 10.8125 C 15.066406 11.101562 15.214844 11.378906 15.347656 11.65625 C 15.390625 11.710938 15.414062 11.785156 15.414062 11.84375 C 15.429688 11.84375 15.429688 11.859375 15.429688 11.859375 C 15.441406 11.875 15.441406 11.890625 15.453125 11.902344 C 15.46875 11.960938 15.496094 12.019531 15.535156 12.078125 C 15.546875 12.121094 15.5625 12.148438 15.546875 12.210938 C 15.5625 12.238281 15.578125 12.28125 15.601562 12.296875 C 15.617188 12.339844 15.640625 12.367188 15.65625 12.414062 C 15.75 12.53125 15.828125 12.671875 15.914062 12.820312 C 15.9375 12.878906 15.964844 12.9375 16.007812 12.980469 C 16.007812 12.992188 16.019531 12.992188 16.007812 12.992188 Z M 16.007812 12.992188 "/>
</g>
</svg>
