
<svg xmlns="http://www.w3.org/2000/svg" xmlns:xlink="http://www.w3.org/1999/xlink" width="24px" height="24px" viewBox="0 0 24 24" version="1.1">
<g id="surface1">
<path style=" stroke:none;fill-rule:nonzero;fill:rgb(37.254902%,50.980392%,62.745098%);fill-opacity:1;" d="M 4.269531 20.484375 C -14.492188 -4.382812 37.136719 -7.917969 20.570312 17.46875 C 16.789062 23.253906 9.238281 27.070312 4.269531 20.484375 Z M 4.269531 20.484375 "/>
<path style=" stroke:none;fill-rule:nonzero;fill:rgb(94.117647%,97.254902%,100%);fill-opacity:1;" d="M 10.882812 16.621094 C 10.453125 16.625 9.34375 16.703125 8.664062 16.664062 C 7.453125 16.59375 7.429688 16.589844 7.335938 16.347656 C 7.289062 16.210938 7.273438 15.988281 7.3125 15.851562 C 7.398438 15.53125 7.867188 15.128906 8.15625 15.128906 C 8.421875 15.128906 8.882812 14.738281 8.882812 14.515625 C 8.882812 14.390625 8.679688 14.371094 7.46875 14.371094 L 6.050781 14.371094 L 5.757812 14.09375 L 5.460938 13.820312 L 5.460938 10.210938 C 5.460938 6.703125 5.46875 6.59375 5.671875 6.324219 C 6.109375 5.746094 5.945312 5.757812 11.902344 5.789062 L 17.335938 5.8125 L 17.664062 6.125 L 17.992188 6.429688 L 18.023438 9.953125 C 18.039062 11.890625 18.027344 13.609375 17.992188 13.78125 C 17.898438 14.277344 17.574219 14.371094 15.984375 14.371094 C 14.734375 14.371094 14.621094 14.386719 14.621094 14.546875 C 14.621094 14.757812 15.027344 15.128906 15.261719 15.128906 C 15.523438 15.128906 16.011719 15.390625 16.128906 15.59375 C 16.1875 15.695312 16.234375 15.945312 16.234375 16.15625 C 16.234375 16.597656 16.226562 16.601562 15.074219 16.6875 C 14.632812 16.726562 13.695312 16.671875 13.167969 16.617188 C 11.453125 16.421875 12.109375 16.605469 10.882812 16.621094 Z M 15.628906 15.984375 C 15.628906 15.9375 15.585938 15.867188 15.53125 15.835938 C 15.398438 15.761719 8.109375 15.761719 7.976562 15.835938 C 7.628906 16.039062 8.171875 16.074219 11.753906 16.074219 C 14.109375 16.074219 15.628906 16.039062 15.628906 15.984375 Z M 14.210938 15.175781 C 14.085938 15.054688 13.925781 15.050781 13.160156 15.132812 C 11.890625 15.273438 11.898438 15.300781 13.210938 15.3125 C 14.234375 15.316406 14.347656 15.300781 14.210938 15.175781 Z M 17.59375 13.496094 C 17.625 13.273438 17.640625 11.640625 17.625 9.867188 C 17.59375 6.847656 17.578125 6.625 17.398438 6.4375 C 17.210938 6.242188 17.171875 6.242188 11.796875 6.242188 C 6.796875 6.242188 6.375 6.25 6.179688 6.40625 C 5.96875 6.570312 5.96875 6.632812 5.960938 10.140625 C 5.953125 12.101562 5.980469 13.75 6.015625 13.804688 C 6.054688 13.867188 8.046875 13.898438 11.804688 13.898438 L 17.53125 13.898438 Z M 16.988281 13.332031 C 17.023438 13.28125 17.070312 13.234375 17.09375 13.234375 C 17.117188 13.234375 17.140625 13.28125 17.140625 13.332031 C 17.140625 13.382812 17.09375 13.425781 17.03125 13.425781 C 16.976562 13.425781 16.953125 13.382812 16.988281 13.332031 Z M 6.539062 13.078125 C 6.5 13.046875 6.46875 11.640625 6.46875 9.960938 C 6.46875 7.058594 6.476562 6.90625 6.660156 6.8125 C 6.867188 6.710938 16.59375 6.667969 16.878906 6.769531 C 17.019531 6.820312 17.039062 7.195312 17.039062 9.984375 L 17.039062 13.140625 L 11.820312 13.140625 C 8.953125 13.140625 6.574219 13.113281 6.539062 13.078125 Z M 6.539062 13.078125 "/>
<path style=" stroke:none;fill-rule:nonzero;fill:rgb(58.431373%,67.45098%,77.647059%);fill-opacity:1;" d="M 8.03125 16.648438 C 7.441406 16.578125 7.34375 16.398438 7.632812 15.894531 C 7.769531 15.652344 7.914062 15.550781 8.230469 15.476562 C 8.734375 15.351562 9.039062 14.945312 8.953125 14.523438 C 8.90625 14.304688 8.933594 14.242188 9.117188 14.195312 C 9.410156 14.121094 13.90625 14.121094 14.300781 14.195312 C 14.582031 14.25 14.601562 14.273438 14.515625 14.496094 C 14.363281 14.871094 14.671875 15.289062 15.203125 15.4375 C 15.734375 15.589844 16.039062 15.914062 16.007812 16.296875 C 15.988281 16.507812 15.914062 16.601562 15.730469 16.648438 C 15.425781 16.726562 8.738281 16.726562 8.03125 16.648438 Z M 15.8125 16.191406 C 15.847656 15.945312 15.5 15.675781 15.140625 15.675781 C 14.976562 15.675781 14.726562 15.515625 14.414062 15.207031 L 13.9375 14.738281 L 11.738281 14.875 L 9.539062 15.015625 L 9.035156 15.328125 C 8.757812 15.503906 8.363281 15.675781 8.15625 15.710938 C 7.875 15.765625 7.765625 15.835938 7.71875 16.011719 C 7.6875 16.140625 7.6875 16.289062 7.726562 16.34375 C 7.769531 16.414062 9.035156 16.4375 11.785156 16.421875 L 15.78125 16.398438 Z M 6.664062 13.035156 C 6.511719 12.890625 6.539062 7.046875 6.695312 6.953125 C 6.875 6.839844 16.546875 6.820312 16.761719 6.933594 C 16.921875 7.015625 16.9375 7.261719 16.9375 9.992188 C 16.9375 12.289062 16.90625 12.984375 16.808594 13.0625 C 16.640625 13.195312 6.804688 13.167969 6.664062 13.035156 Z M 12.304688 12.164062 C 12.304688 11.59375 12.25 11.507812 12.117188 11.855469 C 12.0625 11.976562 11.933594 12.078125 11.8125 12.089844 C 11.695312 12.097656 11.484375 12.195312 11.335938 12.300781 C 11.042969 12.523438 11.101562 12.570312 11.753906 12.625 C 11.976562 12.644531 12.1875 12.667969 12.234375 12.679688 C 12.273438 12.6875 12.304688 12.453125 12.304688 12.164062 Z M 12.441406 7.375 C 12.386719 7.289062 10.179688 7.28125 9.949219 7.363281 C 9.835938 7.40625 9.789062 7.550781 9.789062 7.882812 C 9.789062 8.40625 9.960938 8.609375 10.332031 8.519531 C 10.46875 8.488281 10.734375 8.523438 10.933594 8.605469 C 11.132812 8.683594 11.472656 8.75 11.6875 8.75 C 12.035156 8.75 12.09375 8.78125 12.160156 9.015625 C 12.21875 9.21875 12.265625 9.078125 12.359375 8.363281 C 12.429688 7.859375 12.46875 7.417969 12.441406 7.375 Z M 13.210938 7.5 C 13.210938 7.445312 13.144531 7.402344 13.0625 7.402344 C 12.976562 7.402344 12.914062 7.445312 12.914062 7.5 C 12.914062 7.550781 12.976562 7.59375 13.0625 7.59375 C 13.144531 7.59375 13.210938 7.550781 13.210938 7.5 Z M 13.210938 7.5 "/>
<path style=" stroke:none;fill-rule:nonzero;fill:rgb(40.784314%,54.509804%,70.980392%);fill-opacity:1;" d="M 9.292969 14.617188 L 9.292969 14.328125 L 9.921875 14.335938 C 10.265625 14.335938 10.734375 14.375 10.953125 14.421875 C 11.351562 14.5 11.351562 14.5 10.75 14.523438 C 10.421875 14.539062 10.074219 14.546875 9.984375 14.539062 C 9.894531 14.53125 9.742188 14.613281 9.640625 14.71875 C 9.390625 14.984375 9.292969 14.953125 9.292969 14.617188 Z M 14.382812 14.535156 C 14.339844 14.46875 14.332031 14.386719 14.367188 14.355469 C 14.453125 14.269531 14.554688 14.398438 14.507812 14.535156 C 14.46875 14.632812 14.445312 14.632812 14.382812 14.535156 Z M 6.921875 12.957031 C 6.894531 12.890625 6.882812 11.515625 6.898438 9.902344 L 6.929688 6.96875 L 8.476562 6.945312 C 10.023438 6.914062 10.382812 6.976562 10.125 7.222656 C 10.046875 7.296875 9.558594 7.328125 8.667969 7.3125 L 7.324219 7.296875 L 7.328125 8.601562 L 7.328125 9.90625 L 7.648438 9.90625 C 7.90625 9.90625 8.085938 9.792969 8.53125 9.367188 C 8.84375 9.070312 9.167969 8.691406 9.257812 8.523438 C 9.351562 8.359375 9.445312 8.269531 9.460938 8.328125 C 9.511719 8.460938 9.070312 9.429688 8.792969 9.804688 C 8.527344 10.15625 8.523438 11.109375 8.78125 12.117188 C 8.90625 12.609375 8.933594 12.875 8.867188 12.960938 C 8.726562 13.125 6.992188 13.125 6.921875 12.957031 Z M 12.710938 13.054688 C 12.703125 13.039062 12.695312 12.359375 12.6875 11.539062 C 12.675781 9.90625 12.789062 8.363281 12.917969 8.363281 C 12.960938 8.363281 13.03125 8.65625 13.066406 9.015625 C 13.101562 9.371094 13.152344 9.722656 13.175781 9.796875 C 13.265625 10.050781 13.503906 9.710938 13.765625 8.960938 C 14.109375 7.992188 14.164062 7.90625 14.367188 8.070312 C 14.453125 8.140625 14.578125 8.375 14.644531 8.59375 C 14.710938 8.8125 14.796875 9.027344 14.839844 9.074219 C 14.972656 9.222656 15.414062 9.046875 15.484375 8.820312 C 15.625 8.335938 15.765625 8.078125 15.882812 8.078125 C 16.007812 8.078125 16.238281 8.472656 16.238281 8.695312 C 16.238281 8.835938 16.507812 8.972656 16.578125 8.867188 C 16.601562 8.828125 16.636719 8.472656 16.65625 8.078125 L 16.691406 7.351562 L 14.695312 7.328125 C 12.867188 7.304688 12.703125 7.289062 12.734375 7.132812 C 12.765625 6.984375 12.960938 6.96875 14.882812 6.96875 L 16.992188 6.96875 L 17.046875 13.078125 L 14.882812 13.078125 C 13.6875 13.078125 12.710938 13.070312 12.710938 13.054688 Z M 13.421875 12.5 C 13.421875 12.449219 13.398438 12.40625 13.375 12.40625 C 13.351562 12.40625 13.304688 12.449219 13.269531 12.5 C 13.234375 12.554688 13.253906 12.597656 13.3125 12.597656 C 13.371094 12.597656 13.421875 12.554688 13.421875 12.5 Z M 8.390625 8.921875 C 8.390625 8.851562 8.433594 8.734375 8.488281 8.652344 C 8.566406 8.535156 8.585938 8.546875 8.585938 8.71875 C 8.585938 8.835938 8.542969 8.957031 8.488281 8.992188 C 8.429688 9.023438 8.386719 8.992188 8.390625 8.921875 Z M 8.390625 8.921875 "/>
</g>
</svg>
