<svg xmlns="http://www.w3.org/2000/svg" viewBox="0 0 24 24"><path d="m 4.203125 20.519531 c -18.921875 -24.972656 33.148437 -28.519531 16.4375 -3.03125 c -3.808594 5.8125 -11.425781 9.644531 -16.4375 3.03125" style="fill:#b0c3de"/><path d="m 8.3125 5.269531 c -1.199219 0.035157 -1.421875 0.488281 -1.457031 0.613281 c -0.003907 0.003907 -0.007813 0.007813 -0.011719 0.011719 c 0 0.007813 0 0.019531 0 0.019531 c -0.03125 0.078126 -0.054688 0.238282 -0.054688 0.238282 c 0 0 0.019532 0.027344 0.042969 0.0625 c 0.003907 0.003906 0.007813 0.003906 0.011719 0.007812 c 0.019531 0.027344 0.039062 0.054688 0.066406 0.074219 c 0.003906 0 0 0.007813 0 0.007813 v 0.011718 l -0.144531 1.546875 c -0.082031 0.054688 -0.113281 0.105469 -0.113281 0.105469 c -0.085938 0.140625 -0.070313 0.246094 -0.070313 0.246094 c 0 0 0.035157 0.023437 0.046875 0.039062 v 0.011719 l -0.023437 0.152344 c 0 0.003906 0 0.007812 0 0.011719 c 0 0.003906 0 0.019531 0 0.019531 c 0 0.003906 0 0.011719 0 0.011719 c 0 0.003906 0 0.007812 0 0.019531 c 0 0.003906 0 0.003906 0 0.011719 c 0.007812 0.042968 0.03125 0.128906 0.101562 0.226562 c -0.144531 -0.03125 -0.285156 -0.0625 -0.417969 -0.082031 c -0.695312 -0.121094 -1.175781 -0.132813 -1.21875 0 c -0.066406 0.195312 0.886719 0.628906 2.15625 1.003906 c 0 0 0 0.011719 0 0.011719 l -0.042968 0.101562 c -1.417969 0.050782 -1.894532 0.25 -2.054688 0.378906 v 0.144532 c -0.046875 0.03125 -0.074218 0.050781 -0.101562 0.101562 v 0.101563 c 0 0 0.007812 0.019531 0.007812 0.023437 c -0.003906 0.019532 -0.007812 0.039063 -0.007812 0.039063 c 0 0 0.050781 0.070312 0.15625 0.09375 v 4.09375 c -0.152344 0.121093 -0.15625 0.101562 -0.15625 0.101562 v 0.144531 l 0.101562 0.039063 v 0.09375 c 0.101563 0.035156 0.335938 0.082031 0.800782 0.125 l -0.578126 0.910156 v 0.308594 h -0.03125 l -0.023437 0.390625 c 0.144531 0.03125 0.285156 0.039062 0.429687 0 l -0.023437 -0.390625 h -0.035156 v -0.234375 l 0.609375 -0.957031 c 0.347656 0.023437 0.78125 0.039062 1.355468 0.042969 c 0.078126 0.128906 0.167969 0.25 0.261719 0.371093 l -0.65625 1.445313 v 0.007812 l -0.136719 0.042969 v 0.011719 l -0.144531 0.335937 h 1.003907 l -0.089844 -0.347656 l -0.078125 -0.042969 l 0.449219 -0.992187 l 0.304687 0.285156 l 0.035156 -0.03125 c 0.765625 0.628906 1.765625 1.03125 2.867188 1.078125 v 0.042969 h 0.464843 v -0.042969 c 1.03125 -0.046875 1.976563 -0.410156 2.71875 -0.972656 v 0.140625 h -0.054687 l -0.046875 0.269531 c 0.273438 0.019531 0.550781 0.023438 0.824219 0 l -0.054688 -0.269531 h -0.058593 v -0.164063 l 0.023437 -0.007812 l 0.304687 0.664062 h -0.011718 l -0.066406 0.042969 l -0.101563 0.347656 h 1.015625 l -0.148438 -0.335937 v -0.011719 l -0.132812 -0.039063 v -0.011718 l -0.179688 -0.390625 h 0.347657 l -0.011719 0.113281 c 0.144531 0.03125 0.285156 0.039062 0.429688 0 l -0.011719 -0.113281 h 0.417969 v -0.214844 h -0.226563 v -0.175781 h 0.136719 v -0.089844 h -0.371094 v -0.105469 l -0.113281 -0.183593 v -0.121094 l 1.128906 0.632812 v 0.164063 h -0.058594 l -0.042969 0.269531 c 0.273438 0.019531 0.550782 0.023438 0.824219 0 l -0.058593 -0.269531 h -0.042969 v -0.203125 h -0.011719 l -0.9375 -0.535156 l -0.574219 -0.328126 v -0.449218 h -0.070312 v -2.136719 c 0.0625 -0.003906 0.148437 -0.011719 0.191406 -0.019531 c 0.117187 -0.015625 0.1875 -0.027344 0.238281 -0.039063 v -0.074219 l 0.101563 -0.03125 v -0.113281 c 0 0 -0.003907 0.015625 -0.15625 -0.082031 v -1.128906 c 0.113281 -0.011719 0.15625 -0.070313 0.15625 -0.070313 c 0 0 -0.003907 -0.011719 -0.011719 -0.03125 c 0.003906 -0.003906 0.011719 -0.019531 0.011719 -0.019531 v -0.082031 c -0.03125 -0.039063 -0.058594 -0.046875 -0.101563 -0.070313 v -0.113281 c -0.023437 -0.015625 -0.050781 -0.027344 -0.089844 -0.042969 c -0.039062 -0.015625 -0.078124 -0.035156 -0.136718 -0.050781 c -0.054688 -0.015625 -0.128906 -0.035156 -0.203125 -0.050781 v -0.75 c 0.011719 0.003906 0.023437 0 0.035156 0 v -0.441406 c 1.035156 -0.019532 1.851563 -0.144532 1.851563 -0.308594 c 0 -0.03125 -0.050782 -0.058594 -0.113282 -0.089844 c 0.0625 -0.03125 0.113282 -0.058594 0.113282 -0.09375 c 0 -0.160156 -0.816407 -0.285156 -1.851563 -0.308594 v -0.226562 l -0.171875 -0.027344 h -0.019531 v -0.308594 l -0.058594 -0.011718 h -0.054687 l -0.058594 0.011718 v 0.308594 h -0.011719 l -0.179687 0.027344 v 0.226562 c -0.285157 0.007813 -0.542969 0.011719 -0.777344 0.03125 c 0.109375 -0.035156 0.214844 -0.070312 0.292968 -0.113281 c 0.421876 -0.226563 0.40625 -0.492187 0.40625 -0.492187 c 0 0 -0.011718 -0.023438 -0.011718 -0.03125 l -0.011719 -0.144532 c 0.011719 -0.015625 0.023437 -0.039062 0.023437 -0.039062 c 0 0 0.046876 -0.085938 -0.042968 -0.234375 c 0 0 -0.035156 -0.046875 -0.113282 -0.105469 l -0.023437 -0.246094 l -0.089844 -1.167968 v -0.011719 c 0.015625 -0.003907 0.03125 -0.019531 0.042969 -0.03125 c 0.003906 -0.003907 0 -0.007813 0 -0.007813 c 0.003906 -0.003906 0.007812 -0.007812 0.011719 -0.011718 c 0.003906 -0.003907 0.007812 -0.003907 0.011719 -0.011719 c 0 0 0 -0.003907 0 -0.007813 c 0.023437 -0.039062 0.042968 -0.074218 0.042968 -0.074218 c 0 0 -0.011718 -0.171876 -0.042968 -0.234376 c -0.003907 -0.007812 -0.007813 -0.015624 -0.011719 -0.019531 c -0.023438 -0.105469 -0.214844 -0.667969 -1.839844 -0.554687 c -1.523437 0.105468 -1.695313 0.625 -1.714844 0.777344 c -0.007812 0.015624 -0.019531 0.039062 -0.023437 0.054687 c -0.023438 0.0625 0 0.234375 0 0.234375 c 0 0 0.023437 0.03125 0.054687 0.0625 c 0.019531 0.027344 0.046875 0.058594 0.078125 0.070312 l 0.058594 0.699219 h -0.328125 l -0.089844 -0.09375 h -0.011719 l -0.214843 -0.195312 h -0.382813 l -0.316406 0.289062 h -0.382812 l 0.066406 -0.738281 c 0.027344 -0.007812 0.050781 -0.023438 0.066406 -0.042969 c 0.015625 -0.007812 0.023438 -0.019531 0.035156 -0.03125 c 0.003906 -0.003906 0.007813 -0.003906 0.011719 -0.007812 c 0.027344 -0.03125 0.042969 -0.0625 0.042969 -0.0625 c 0 0 0.027344 -0.1875 0 -0.257813 c 0 -0.003906 -0.007813 -0.011718 -0.007813 -0.019531 c -0.015625 -0.152344 -0.195312 -0.773437 -2 -0.914063 c -0.257812 -0.019531 -0.476562 -0.027343 -0.675781 -0.019531 m 2.796875 2.441407 h 0.046875 l 0.316406 0.277343 v 1.046875 h -0.023437 v 0.070313 c -0.703125 0.03125 -1.355469 0.199219 -1.941407 0.484375 c -0.011718 -0.007813 -0.019531 -0.015625 -0.035156 -0.019532 c -0.136718 -0.0625 -0.300781 -0.132812 -0.472656 -0.195312 c 0.441406 0.011719 0.765625 -0.023438 1.015625 -0.082031 c 0.0625 -0.015625 0.128906 -0.035157 0.179687 -0.054688 c 0.40625 -0.132812 0.511719 -0.332031 0.542969 -0.417969 c 0.003907 -0.007812 0.011719 -0.007812 0.011719 -0.011718 c 0.003906 -0.011719 0 -0.015625 0 -0.019532 c 0 0 0 -0.007812 0 -0.011718 c 0 0 0 -0.007813 0 -0.03125 l 0.023438 -0.214844 v 0.0625 c 0.011718 -0.015625 0.03125 -0.039062 0.03125 -0.039062 c 0 0 0.0625 -0.089844 -0.011719 -0.269532 c 0 0 -0.023438 -0.050781 -0.101563 -0.121094 l 0.011719 -0.074218 l 0.023437 -0.234375 l 0.375 0.03125 m 1.070313 -0.175781 h 0.363281 v 0.019531 l 0.019532 0.359375 c -0.058594 0.058594 -0.078126 0.105468 -0.078126 0.105468 c -0.050781 0.136719 -0.011718 0.234376 -0.011718 0.234376 c 0 0 0.023437 0.023437 0.035156 0.042968 l 0.011719 0.171875 c 0 0 0 0.011719 0 0.011719 c 0 0 0.011719 0.042969 0.042969 0.101562 c 0.019531 0.03125 0.046874 0.058594 0.082031 0.09375 c 0 0 -0.003907 0.007813 0 0.007813 c 0.175781 0.1875 0.621093 0.417969 1.726562 0.339844 c 0.027344 -0.003907 0.050781 -0.007813 0.078125 -0.011719 c -0.039062 0.019531 -0.074218 0.042969 -0.089844 0.0625 c -0.007812 0.011719 -0.011718 0.019531 -0.011718 0.03125 c 0 0.035156 0.046875 0.0625 0.113281 0.09375 c -0.0625 0.027344 -0.113281 0.058594 -0.113281 0.089844 c 0 0.160156 0.808594 0.289062 1.839844 0.308594 v 0.441406 c 0.011718 0 0.023437 0 0.035156 0 v 0.675781 c -0.054688 -0.003906 -0.097656 -0.011719 -0.15625 -0.019531 c -0.183594 -0.015625 -0.414063 -0.027344 -0.65625 -0.039063 c -0.097656 -0.125 -0.203125 -0.238281 -0.316406 -0.351562 l 0.054687 -0.050781 l -0.324219 -0.308594 l -0.058594 0.050781 c -0.761718 -0.621094 -1.753906 -1.015625 -2.84375 -1.066406 v -0.070313 h -0.058593 v -1.046875 m 4.359375 6.003907 v 1.128906 h -0.066406 v 0.214844 l -0.214844 -0.339844 v -0.082032 c 0.136718 -0.292968 0.21875 -0.597656 0.28125 -0.921874 m -0.476563 1.273437 l 0.214844 0.335937 l 0.035156 0.0625 l -0.417969 0.234376 l -0.101562 -0.222657 c 0.101562 -0.132812 0.1875 -0.269531 0.273438 -0.410156 m 0.425781 0.6875 l 0.171875 0.265625 v 0.03125 h -0.453125 v 0.089844 h 0.125 v 0.175781 h -0.160157 l -0.132812 -0.308594 m -0.597656 -0.070312 l 0.007812 0.019531 l -0.054687 0.019531" style="fill:#2f4e4e"/></svg>