
<svg xmlns="http://www.w3.org/2000/svg" xmlns:xlink="http://www.w3.org/1999/xlink" width="24px" height="24px" viewBox="0 0 24 24" version="1.1">
<defs>
<linearGradient id="linear0" gradientUnits="userSpaceOnUse" x1="36.581" y1="41.33" x2="35.603" y2="11.272" gradientTransform="matrix(0.411743,0,0,0.414818,-0.526406,2.420625)">
<stop offset="0" style="stop-color:rgb(95.294118%,95.294118%,95.294118%);stop-opacity:1;"/>
<stop offset="1" style="stop-color:rgb(100%,100%,100%);stop-opacity:1;"/>
</linearGradient>
<linearGradient id="linear1" gradientUnits="userSpaceOnUse" x1="36.581" y1="41.33" x2="35.603" y2="11.272" gradientTransform="matrix(0.248646,-0.103802,0.0899665,0.215505,-0.940406,5.44875)">
<stop offset="0" style="stop-color:rgb(95.294118%,95.294118%,95.294118%);stop-opacity:1;"/>
<stop offset="1" style="stop-color:rgb(100%,100%,100%);stop-opacity:1;"/>
</linearGradient>
</defs>
<g id="surface1">
<path style=" stroke:none;fill-rule:nonzero;fill:rgb(60.392157%,80.392157%,19.607843%);fill-opacity:1;" d="M 20.195312 3.007812 C 31.445312 12.757812 14.632812 30.929688 3.773438 20.835938 C -7.105469 12.308594 8.589844 -7.058594 20.195312 3.007812 "/>
<path style=" stroke:none;fill-rule:evenodd;fill:url(#linear0);" d="M 16.375 8.210938 C 17.03125 8.929688 18.429688 10.453125 19.164062 11.25 L 18.199219 12.230469 L 15.4375 9.140625 Z M 9.691406 16.085938 L 11.363281 17.992188 L 12.9375 17.589844 L 17.570312 12.871094 L 14.796875 9.773438 L 10.105469 14.414062 L 9.691406 16.089844 Z M 20.132812 11.53125 C 20.210938 11.476562 20.289062 11.40625 20.355469 11.328125 C 20.519531 11.125 20.707031 10.8125 20.617188 10.421875 C 20.390625 9.359375 18.90625 7.070312 17.164062 6.953125 C 16.398438 6.902344 16.039062 7.199219 15.917969 7.378906 L 15.902344 7.40625 L 15.890625 7.414062 L 9.378906 13.851562 L 9.257812 14.070312 L 8.007812 19.109375 C 7.960938 19.601562 8.144531 19.765625 8.5625 19.664062 C 10.132812 19.257812 11.707031 18.851562 13.28125 18.445312 L 13.492188 18.324219 L 20.109375 11.585938 Z M 20.132812 11.53125 "/>
<path style=" stroke:none;fill-rule:evenodd;fill:url(#linear1);" d="M 10.523438 4.195312 C 11.078125 4.40625 12.25 4.84375 12.867188 5.070312 L 12.496094 5.824219 L 10.15625 4.917969 Z M 8.195312 9.972656 L 9.617188 10.539062 L 10.476562 9.933594 L 12.253906 6.316406 L 9.90625 5.40625 L 8.082031 9 Z M 13.511719 4.972656 C 13.546875 4.921875 13.578125 4.867188 13.601562 4.8125 C 13.65625 4.664062 13.703125 4.457031 13.5625 4.273438 C 13.195312 3.78125 11.804688 2.960938 10.726562 3.34375 C 10.253906 3.507812 10.101562 3.753906 10.066406 3.878906 L 10.0625 3.898438 L 10.054688 3.902344 L 7.523438 8.890625 L 7.492188 9.03125 L 7.835938 11.96875 C 7.914062 12.234375 8.058594 12.273438 8.289062 12.113281 C 9.148438 11.507812 10.011719 10.898438 10.875 10.292969 L 10.976562 10.175781 L 13.507812 5.007812 L 13.515625 4.972656 Z M 13.511719 4.972656 "/>
</g>
</svg>
