
<svg xmlns="http://www.w3.org/2000/svg" xmlns:xlink="http://www.w3.org/1999/xlink" width="24px" height="24px" viewBox="0 0 24 24" version="1.1">
<g id="surface1">
<path style=" stroke:none;fill-rule:nonzero;fill:rgb(18.431373%,30.980392%,30.980392%);fill-opacity:1;" d="M 4.957031 21.65625 C 23 33.65625 34.113281 -4.601562 10.789062 0.464844 C 1.148438 2.625 -4.703125 16.15625 4.957031 21.65625 Z M 4.957031 21.65625 "/>
<path style=" stroke:none;fill-rule:nonzero;fill:rgb(0%,0%,0%);fill-opacity:0.0980392;" d="M 11.632812 6.054688 L 11.632812 7.121094 C 10.90625 7.257812 10.210938 7.546875 9.597656 7.976562 L 8.851562 7.21875 L 7.492188 8.601562 L 8.238281 9.359375 C 7.816406 9.976562 7.53125 10.679688 7.390625 11.421875 L 6.339844 11.421875 L 6.339844 13.375 L 7.394531 13.375 C 7.53125 14.113281 7.8125 14.816406 8.234375 15.4375 L 7.492188 16.191406 L 8.851562 17.570312 L 9.601562 16.8125 C 10.210938 17.242188 10.90625 17.53125 11.632812 17.671875 L 11.632812 18.738281 L 13.5625 18.738281 L 13.5625 17.671875 C 14.289062 17.53125 14.984375 17.242188 15.597656 16.816406 L 16.34375 17.570312 L 17.703125 16.191406 L 16.953125 15.433594 C 17.375 14.8125 17.664062 14.109375 17.800781 13.371094 L 18.855469 13.371094 L 18.855469 11.421875 L 17.800781 11.421875 C 17.664062 10.679688 17.378906 9.976562 16.960938 9.355469 L 17.703125 8.601562 L 16.34375 7.21875 L 15.59375 7.976562 C 14.984375 7.550781 14.289062 7.257812 13.5625 7.121094 L 13.5625 6.054688 Z M 12.597656 8.492188 C 14.726562 8.492188 16.445312 10.242188 16.445312 12.398438 C 16.445312 14.554688 14.726562 16.300781 12.597656 16.300781 C 10.46875 16.300781 8.746094 14.554688 8.746094 12.398438 C 8.746094 10.242188 10.46875 8.492188 12.597656 8.492188 Z M 12.597656 8.492188 "/>
<path style=" stroke:none;fill-rule:nonzero;fill:rgb(76.862745%,38.431373%,19.215686%);fill-opacity:1;" d="M 11.152344 5.5625 L 11.152344 6.632812 C 10.421875 6.769531 9.726562 7.0625 9.117188 7.484375 L 8.371094 6.734375 L 7.007812 8.113281 L 7.757812 8.867188 C 7.335938 9.492188 7.046875 10.195312 6.914062 10.929688 L 5.859375 10.929688 L 5.859375 12.882812 L 6.914062 12.882812 C 7.046875 13.625 7.335938 14.328125 7.753906 14.949219 L 7.007812 15.703125 L 8.371094 17.085938 L 9.117188 16.328125 C 9.730469 16.753906 10.421875 17.046875 11.152344 17.183594 L 11.152344 18.25 L 13.078125 18.25 L 13.078125 17.179688 C 13.808594 17.046875 14.503906 16.757812 15.117188 16.328125 L 15.859375 17.085938 L 17.222656 15.703125 L 16.476562 14.945312 C 16.898438 14.328125 17.183594 13.625 17.320312 12.882812 L 18.375 12.882812 L 18.375 10.929688 L 17.320312 10.929688 C 17.183594 10.191406 16.898438 9.488281 16.476562 8.867188 L 17.222656 8.113281 L 15.859375 6.734375 L 15.113281 7.492188 C 14.5 7.0625 13.808594 6.773438 13.078125 6.632812 L 13.078125 5.5625 Z M 12.117188 8.003906 C 14.242188 8.003906 15.96875 9.75 15.96875 11.90625 C 15.96875 14.0625 14.242188 15.8125 12.117188 15.8125 C 9.988281 15.8125 8.265625 14.0625 8.265625 11.90625 C 8.265625 9.75 9.988281 8.003906 12.117188 8.003906 Z M 12.117188 8.003906 "/>
</g>
</svg>
