
<svg xmlns="http://www.w3.org/2000/svg" xmlns:xlink="http://www.w3.org/1999/xlink" width="24px" height="24px" viewBox="0 0 24 24" version="1.1">
<g id="surface1">
<path style=" stroke:none;fill-rule:nonzero;fill:rgb(100%,54.901961%,0%);fill-opacity:1;" d="M 11.984375 23.828125 C -3.929688 25.632812 -3.707031 -0.175781 12.269531 0.128906 C 27.128906 -0.71875 28.46875 25.234375 11.984375 23.828125 Z M 11.984375 23.828125 "/>
<path style="fill-rule:nonzero;fill:rgb(100%,100%,100%);fill-opacity:1;stroke-width:1.082139;stroke-linecap:butt;stroke-linejoin:miter;stroke:rgb(100%,100%,100%);stroke-opacity:1;stroke-miterlimit:4;" d="M 58.208333 64.75 L 58.208333 198.875 L 199.958333 198.875 L 199.958333 64.75 Z M 67.083333 73.083333 L 191.125 73.083333 L 191.125 190.5 L 67.083333 190.5 Z M 75.958333 81.5 L 75.958333 89.875 L 115.125 89.875 C 114.5 95.25 112.333333 112.833333 107.458333 128.791667 C 101.333333 120.708333 94.291667 112.166667 83.833333 99.833333 L 76.875 105.083333 C 89.458333 119.916667 97.166667 129.25 103.958333 138.541667 C 92.5 166.583333 75 177.583333 75 177.583333 L 79.958333 184.583333 C 79.958333 184.583333 97.416667 173.125 109.75 146.916667 C 113.625 152.666667 117.625 158.833333 122.375 166.833333 L 130.083333 162.75 C 123.875 152.375 118.958333 144.791667 113.791667 137.5 C 121.75 115.625 124.625 86.083333 124.625 86.083333 L 125.083333 81.5 Z M 129.083333 81.5 L 129.083333 89.875 L 134.333333 89.875 C 135.208333 94.833333 139.208333 116.166667 145.916667 132.583333 C 148.25 138.333333 150.791667 143.833333 153.75 149.25 C 142.375 166.375 126.583333 175.625 126.583333 175.625 L 131.166667 182.833333 C 131.166667 182.833333 146.333333 174 158.666667 157.333333 C 164.5 165.916667 172.125 174.375 183.5 183.041667 L 189.083333 176.5 C 176.791667 167.125 169.375 158.5 163.875 149.416667 C 165 147.5 166.125 145.666667 167.125 143.625 C 174.875 127.333333 182.25 103.666667 182.25 85.666667 L 182.25 81.5 Z M 143.333333 89.875 L 172.708333 89.875 C 171.75 105.375 165.75 126.083333 159.041667 140.166667 C 159 140.208333 159 140.25 158.958333 140.291667 C 157.291667 136.833333 155.75 133.291667 154.166667 129.541667 C 148.375 115.291667 144.583333 96.25 143.333333 89.875 Z M 143.333333 89.875 " transform="matrix(0.09375,0,0,0.09375,0,0)"/>
</g>
</svg>
