
<svg xmlns="http://www.w3.org/2000/svg" xmlns:xlink="http://www.w3.org/1999/xlink" width="24px" height="24px" viewBox="0 0 24 24" version="1.1">
<g id="surface1">
<path style=" stroke:none;fill-rule:nonzero;fill:rgb(41.176471%,41.176471%,41.176471%);fill-opacity:0.996078;" d="M 22.898438 17.675781 C 18.171875 29.015625 -0.117188 23.957031 0.00390625 11.605469 C -0.179688 0.382812 14.359375 -3.875 20.734375 4.117188 C 23.921875 7.578125 25.039062 13.304688 22.898438 17.675781 Z M 22.898438 17.675781 "/>
<path style=" stroke:none;fill-rule:nonzero;fill:rgb(100%,100%,100%);fill-opacity:1;" d="M 8.289062 8.46875 L 8.289062 8.75 L 8.578125 8.75 L 8.289062 8.46875 M 9.148438 8.75 L 8.289062 7.894531 L 8.289062 8.195312 L 8.84375 8.75 L 9.148438 8.75 M 11.820312 11.003906 L 9.46875 13.359375 L 9.46875 13.777344 L 11.820312 11.421875 L 11.820312 11.578125 L 9.46875 13.929688 L 9.46875 14.347656 L 11.820312 11.996094 L 11.820312 12.148438 L 9.46875 14.5 L 9.46875 14.921875 L 11.820312 12.566406 L 11.820312 12.71875 L 9.46875 15.070312 L 9.46875 15.492188 L 11.820312 13.140625 L 11.820312 13.273438 L 9.46875 15.625 L 9.46875 15.8125 L 8.289062 15.8125 L 8.289062 18.164062 L 12.996094 18.164062 L 12.996094 15.8125 L 11.820312 15.8125 L 11.820312 15.558594 L 11.570312 15.8125 L 11.417969 15.8125 L 11.820312 15.40625 L 11.820312 14.984375 L 10.996094 15.8125 L 10.84375 15.8125 L 11.820312 14.835938 L 11.820312 14.414062 L 10.425781 15.8125 L 10.273438 15.8125 L 11.820312 14.265625 L 11.820312 13.84375 L 9.851562 15.8125 L 9.703125 15.8125 L 11.820312 13.695312 L 11.820312 13.457031 L 14.171875 13.457031 L 14.171875 11.105469 L 11.820312 11.105469 L 11.820312 11.003906 M 9.46875 12.632812 L 11.820312 10.28125 L 11.820312 9.859375 L 9.46875 12.214844 L 9.46875 12.632812 M 16.523438 9.929688 L 16.523438 9.710938 L 16.304688 9.929688 L 16.523438 9.929688 M 16.15625 9.929688 L 16.523438 9.558594 L 16.523438 9.140625 L 15.734375 9.929688 L 16.15625 9.929688 M 11.820312 9.304688 L 9.46875 11.660156 L 9.46875 12.078125 L 11.820312 9.726562 L 11.820312 9.304688 M 9.46875 13.203125 L 11.820312 10.851562 L 11.820312 10.433594 L 9.46875 12.785156 L 9.46875 13.203125 M 16.523438 6.75 L 16.523438 6.398438 L 13.886719 6.398438 L 14.171875 6.6875 L 14.171875 6.804688 L 14.222656 6.734375 L 14.304688 6.820312 L 14.171875 6.953125 L 13.617188 6.398438 L 13.316406 6.398438 L 14.171875 7.257812 L 14.171875 7.375 L 14.222656 7.304688 L 14.304688 7.390625 L 14.171875 7.507812 L 14.171875 7.523438 L 13.046875 6.398438 L 12.742188 6.398438 L 14.171875 7.828125 L 14.171875 7.929688 L 14.222656 7.878906 L 14.304688 7.945312 L 14.171875 8.078125 L 12.492188 6.398438 L 12.1875 6.398438 L 14.171875 8.382812 L 14.171875 8.5 L 14.222656 8.449219 L 14.304688 8.515625 L 14.171875 8.652344 L 11.921875 6.398438 L 9.335938 6.398438 L 9.46875 6.535156 L 9.46875 6.789062 L 9.082031 6.398438 L 8.78125 6.398438 L 9.46875 7.105469 L 9.46875 7.359375 L 8.507812 6.398438 L 8.289062 6.398438 L 8.289062 6.484375 L 9.46875 7.660156 L 9.46875 7.929688 L 8.289062 6.75 L 8.289062 7.054688 L 9.46875 8.234375 L 9.46875 8.5 L 8.289062 7.324219 L 8.289062 7.625 L 9.417969 8.75 L 9.515625 8.75 L 9.46875 8.804688 L 9.46875 9.222656 L 9.972656 8.734375 L 9.988281 8.75 L 10.089844 8.75 L 9.46875 9.375 L 9.46875 9.796875 L 10.527344 8.734375 L 10.5625 8.75 L 10.660156 8.75 L 9.46875 9.945312 L 9.46875 10.367188 L 11.097656 8.734375 L 11.132812 8.75 L 11.234375 8.75 L 9.46875 10.515625 L 9.46875 10.9375 L 11.671875 8.734375 L 11.6875 8.75 L 11.804688 8.75 L 9.46875 11.085938 L 9.46875 11.507812 L 11.820312 9.15625 L 11.820312 8.75 L 11.988281 8.75 L 11.820312 8.585938 L 11.820312 8.316406 L 12.257812 8.75 L 12.5625 8.75 L 11.820312 8.015625 L 11.820312 7.742188 L 12.828125 8.75 L 13.132812 8.75 L 11.820312 7.441406 L 11.820312 7.171875 L 13.398438 8.75 L 13.703125 8.75 L 11.820312 6.871094 L 11.820312 6.601562 L 13.96875 8.75 L 14.171875 8.75 L 14.171875 9.070312 L 14.507812 8.734375 L 14.542969 8.75 L 14.640625 8.75 L 14.171875 9.222656 L 14.171875 9.640625 L 15.078125 8.734375 L 15.097656 8.75 L 15.214844 8.75 L 14.171875 9.796875 L 14.171875 9.929688 L 14.460938 9.929688 L 15.652344 8.734375 L 15.667969 8.75 L 15.785156 8.75 L 14.609375 9.929688 L 15.03125 9.929688 L 16.222656 8.734375 L 16.242188 8.75 L 16.339844 8.75 L 15.164062 9.929688 L 15.585938 9.929688 L 16.523438 8.988281 L 16.523438 8.570312 L 16.441406 8.652344 L 16.375 8.585938 L 16.507812 8.449219 L 16.523438 8.46875 L 16.523438 8.015625 L 16.441406 8.078125 L 16.375 8.015625 L 16.507812 7.878906 L 16.523438 7.894531 L 16.523438 7.441406 L 16.441406 7.507812 L 16.375 7.441406 L 16.507812 7.304688 L 16.523438 7.324219 L 16.523438 6.871094 L 16.441406 6.953125 L 16.375 6.871094 L 16.507812 6.734375 L 16.523438 6.75 M 9.617188 8.652344 L 9.554688 8.585938 L 9.6875 8.449219 L 9.753906 8.515625 L 9.617188 8.652344 M 9.617188 8.078125 L 9.554688 8.015625 L 9.6875 7.878906 L 9.753906 7.945312 L 9.617188 8.078125 M 9.617188 7.507812 L 9.554688 7.441406 L 9.6875 7.304688 L 9.753906 7.390625 L 9.617188 7.507812 M 9.617188 6.953125 L 9.554688 6.871094 L 9.6875 6.734375 L 9.753906 6.820312 L 9.617188 6.953125 M 9.90625 8.367188 L 9.835938 8.296875 L 9.972656 8.164062 L 10.039062 8.234375 L 9.90625 8.367188 M 9.90625 7.796875 L 9.835938 7.726562 L 9.972656 7.59375 L 10.039062 7.660156 L 9.90625 7.796875 M 9.90625 7.242188 L 9.835938 7.15625 L 9.972656 7.023438 L 10.039062 7.105469 L 9.90625 7.242188 M 9.90625 6.667969 L 9.835938 6.585938 L 9.972656 6.453125 L 10.039062 6.535156 L 9.90625 6.667969 M 10.1875 8.652344 L 10.125 8.585938 L 10.257812 8.449219 L 10.324219 8.515625 L 10.1875 8.652344 M 10.1875 8.078125 L 10.125 8.015625 L 10.257812 7.878906 L 10.324219 7.945312 L 10.1875 8.078125 M 10.1875 7.507812 L 10.125 7.441406 L 10.257812 7.304688 L 10.324219 7.390625 L 10.1875 7.507812 M 10.1875 6.953125 L 10.125 6.871094 L 10.257812 6.734375 L 10.324219 6.820312 L 10.1875 6.953125 M 10.476562 8.367188 L 10.40625 8.296875 L 10.527344 8.164062 L 10.609375 8.234375 L 10.476562 8.367188 M 10.476562 7.796875 L 10.40625 7.726562 L 10.527344 7.59375 L 10.609375 7.660156 L 10.476562 7.796875 M 10.476562 7.242188 L 10.40625 7.15625 L 10.527344 7.023438 L 10.609375 7.105469 L 10.476562 7.242188 M 10.476562 6.667969 L 10.40625 6.585938 L 10.527344 6.453125 L 10.609375 6.535156 L 10.476562 6.667969 M 10.761719 8.652344 L 10.679688 8.585938 L 10.8125 8.449219 L 10.898438 8.515625 L 10.761719 8.652344 M 10.761719 8.078125 L 10.679688 8.015625 L 10.8125 7.878906 L 10.898438 7.945312 L 10.761719 8.078125 M 10.761719 7.507812 L 10.679688 7.441406 L 10.8125 7.304688 L 10.898438 7.390625 L 10.761719 7.507812 M 10.761719 6.953125 L 10.679688 6.871094 L 10.8125 6.734375 L 10.898438 6.820312 L 10.761719 6.953125 M 11.046875 8.367188 L 10.960938 8.296875 L 11.097656 8.164062 L 11.179688 8.234375 L 11.046875 8.367188 M 11.046875 7.796875 L 10.960938 7.726562 L 11.097656 7.59375 L 11.179688 7.660156 L 11.046875 7.796875 M 11.046875 7.242188 L 10.960938 7.15625 L 11.097656 7.023438 L 11.179688 7.105469 L 11.046875 7.242188 M 11.046875 6.667969 L 10.960938 6.585938 L 11.097656 6.453125 L 11.179688 6.535156 L 11.046875 6.667969 M 11.335938 8.652344 L 11.25 8.585938 L 11.382812 8.449219 L 11.46875 8.515625 L 11.335938 8.652344 M 11.335938 8.078125 L 11.25 8.015625 L 11.382812 7.878906 L 11.46875 7.945312 L 11.335938 8.078125 M 11.335938 7.507812 L 11.25 7.441406 L 11.382812 7.304688 L 11.46875 7.390625 L 11.335938 7.507812 M 11.335938 6.953125 L 11.25 6.871094 L 11.382812 6.734375 L 11.46875 6.820312 L 11.335938 6.953125 M 11.617188 8.367188 L 11.535156 8.296875 L 11.671875 8.164062 L 11.753906 8.234375 L 11.617188 8.367188 M 11.617188 7.796875 L 11.535156 7.726562 L 11.671875 7.59375 L 11.753906 7.660156 L 11.617188 7.796875 M 11.617188 7.242188 L 11.535156 7.15625 L 11.671875 7.023438 L 11.753906 7.105469 L 11.617188 7.242188 M 11.617188 6.667969 L 11.535156 6.585938 L 11.671875 6.453125 L 11.753906 6.535156 L 11.617188 6.667969 M 14.460938 8.367188 L 14.375 8.296875 L 14.507812 8.164062 L 14.59375 8.234375 L 14.460938 8.367188 M 14.460938 7.796875 L 14.375 7.726562 L 14.507812 7.59375 L 14.59375 7.660156 L 14.460938 7.796875 M 14.460938 7.242188 L 14.375 7.15625 L 14.507812 7.023438 L 14.59375 7.105469 L 14.460938 7.242188 M 14.460938 6.667969 L 14.375 6.585938 L 14.507812 6.453125 L 14.59375 6.535156 L 14.460938 6.667969 M 14.742188 8.652344 L 14.660156 8.585938 L 14.796875 8.449219 L 14.878906 8.515625 L 14.742188 8.652344 M 14.742188 8.078125 L 14.660156 8.015625 L 14.796875 7.878906 L 14.878906 7.945312 L 14.742188 8.078125 M 14.742188 7.507812 L 14.660156 7.441406 L 14.796875 7.304688 L 14.878906 7.390625 L 14.742188 7.507812 M 14.742188 6.953125 L 14.660156 6.871094 L 14.796875 6.734375 L 14.878906 6.820312 L 14.742188 6.953125 M 15.03125 8.367188 L 14.945312 8.296875 L 15.078125 8.164062 L 15.164062 8.234375 L 15.03125 8.367188 M 15.03125 7.796875 L 14.945312 7.726562 L 15.078125 7.59375 L 15.164062 7.660156 L 15.03125 7.796875 M 15.03125 7.242188 L 14.945312 7.15625 L 15.078125 7.023438 L 15.164062 7.105469 L 15.03125 7.242188 M 15.03125 6.667969 L 14.945312 6.585938 L 15.078125 6.453125 L 15.164062 6.535156 L 15.03125 6.667969 M 15.316406 8.652344 L 15.234375 8.585938 L 15.367188 8.449219 L 15.449219 8.515625 L 15.316406 8.652344 M 15.316406 8.078125 L 15.234375 8.015625 L 15.367188 7.878906 L 15.449219 7.945312 L 15.316406 8.078125 M 15.316406 7.507812 L 15.234375 7.441406 L 15.367188 7.304688 L 15.449219 7.390625 L 15.316406 7.507812 M 15.316406 6.953125 L 15.234375 6.871094 L 15.367188 6.734375 L 15.449219 6.820312 L 15.316406 6.953125 M 15.601562 8.367188 L 15.515625 8.296875 L 15.652344 8.164062 L 15.71875 8.234375 L 15.601562 8.367188 M 15.601562 7.796875 L 15.515625 7.726562 L 15.652344 7.59375 L 15.71875 7.660156 L 15.601562 7.796875 M 15.601562 7.242188 L 15.515625 7.15625 L 15.652344 7.023438 L 15.71875 7.105469 L 15.601562 7.242188 M 15.601562 6.667969 L 15.515625 6.585938 L 15.652344 6.453125 L 15.71875 6.535156 L 15.601562 6.667969 M 15.867188 8.652344 L 15.804688 8.585938 L 15.9375 8.449219 L 16.003906 8.515625 L 15.867188 8.652344 M 15.867188 8.078125 L 15.804688 8.015625 L 15.9375 7.878906 L 16.003906 7.945312 L 15.867188 8.078125 M 15.867188 7.507812 L 15.804688 7.441406 L 15.9375 7.304688 L 16.003906 7.390625 L 15.867188 7.507812 M 15.867188 6.953125 L 15.804688 6.871094 L 15.9375 6.734375 L 16.003906 6.820312 L 15.867188 6.953125 M 16.15625 8.367188 L 16.085938 8.296875 L 16.222656 8.164062 L 16.289062 8.234375 L 16.15625 8.367188 M 16.15625 7.796875 L 16.085938 7.726562 L 16.222656 7.59375 L 16.289062 7.660156 L 16.15625 7.796875 M 16.15625 7.242188 L 16.085938 7.15625 L 16.222656 7.023438 L 16.289062 7.105469 L 16.15625 7.242188 M 16.15625 6.667969 L 16.085938 6.585938 L 16.222656 6.453125 L 16.289062 6.535156 L 16.15625 6.667969 "/>
</g>
</svg>
