
<svg xmlns="http://www.w3.org/2000/svg" xmlns:xlink="http://www.w3.org/1999/xlink" width="24px" height="24px" viewBox="0 0 24 24" version="1.1">
<defs>
<linearGradient id="linear0" gradientUnits="userSpaceOnUse" x1="43.24" y1="17.376" x2="45.32" y2="22.251" gradientTransform="matrix(0.385478,-0.0940275,0.103289,0.350915,-5.230089,8.992803)">
<stop offset="0" style="stop-color:rgb(100%,81.960784%,81.960784%);stop-opacity:1;"/>
<stop offset="0.5" style="stop-color:rgb(100%,11.372549%,11.372549%);stop-opacity:1;"/>
<stop offset="1" style="stop-color:rgb(43.529412%,0%,0%);stop-opacity:1;"/>
</linearGradient>
<linearGradient id="linear1" gradientUnits="userSpaceOnUse" x1="40.33" y1="19.813" x2="42.02" y2="22.625" gradientTransform="matrix(0.385478,-0.0940275,0.103289,0.350915,-5.230089,8.992803)">
<stop offset="0" style="stop-color:rgb(75.686275%,75.686275%,75.686275%);stop-opacity:1;"/>
<stop offset="1" style="stop-color:rgb(67.45098%,67.45098%,67.45098%);stop-opacity:1;"/>
</linearGradient>
<radialGradient id="radial0" gradientUnits="userSpaceOnUse" cx="29.05" cy="27.641" fx="29.05" fy="27.641" r="3.241" gradientTransform="matrix(1.12697,-0.274897,0.209647,0.712259,-31.840179,4.996238)">
<stop offset="0" style="stop-color:rgb(90.588235%,88.627451%,72.156863%);stop-opacity:1;"/>
<stop offset="1" style="stop-color:rgb(90.588235%,88.627451%,72.156863%);stop-opacity:0;"/>
</radialGradient>
<linearGradient id="linear2" gradientUnits="userSpaceOnUse" x1="19.893" y1="31.17" x2="19.689" y2="30.828" gradientTransform="matrix(0.385478,-0.0940275,0.103289,0.350915,-5.230089,8.992803)">
<stop offset="0" style="stop-color:rgb(0%,0%,0%);stop-opacity:1;"/>
<stop offset="1" style="stop-color:rgb(78.823529%,78.823529%,78.823529%);stop-opacity:1;"/>
</linearGradient>
<radialGradient id="radial1" gradientUnits="userSpaceOnUse" cx="76.22" cy="48.15" fx="76.22" fy="48.15" r="12.01" gradientTransform="matrix(0.56151,0,0,0.60596,-24.841,-13.428)">
<stop offset="0" style="stop-color:rgb(100%,100%,100%);stop-opacity:1;"/>
<stop offset="0.538" style="stop-color:rgb(100%,100%,100%);stop-opacity:0.607843;"/>
<stop offset="1" style="stop-color:rgb(100%,100%,100%);stop-opacity:1;"/>
</radialGradient>
<radialGradient id="radial2" gradientUnits="userSpaceOnUse" cx="59.9" cy="44.37" fx="59.9" fy="44.37" r="8.274" gradientTransform="matrix(0.56151,0,0,1.04222,-24.841,-32.435)">
<stop offset="0" style="stop-color:rgb(100%,100%,100%);stop-opacity:1;"/>
<stop offset="0.538" style="stop-color:rgb(100%,100%,100%);stop-opacity:0.607843;"/>
<stop offset="1" style="stop-color:rgb(100%,100%,100%);stop-opacity:1;"/>
</radialGradient>
<linearGradient id="linear3" gradientUnits="userSpaceOnUse" x1="194.98" y1="0" x2="234.84" y2="0" gradientTransform="matrix(0.99588,0.000000000000000056,-0.000000000000000056,1.23187,17.553,-46.752)">
<stop offset="0" style="stop-color:rgb(0%,0%,0%);stop-opacity:0.278431;"/>
<stop offset="1" style="stop-color:rgb(0%,0%,7.843137%);stop-opacity:0;"/>
</linearGradient>
<linearGradient id="linear4" gradientUnits="userSpaceOnUse" x1="194.98" y1="0" x2="234.84" y2="0" gradientTransform="matrix(0.99588,0.000000000000000056,-0.000000000000000056,1.23187,17.553,-105.86)">
<stop offset="0" style="stop-color:rgb(0%,0%,0%);stop-opacity:0.262745;"/>
<stop offset="1" style="stop-color:rgb(0%,0%,0%);stop-opacity:0.0588235;"/>
</linearGradient>
<linearGradient id="linear5" gradientUnits="userSpaceOnUse" x1="213.4" y1="0" x2="250.26" y2="0" gradientTransform="matrix(1,0.000000000000000056,0,1,-0.000000000000028422,0)">
<stop offset="0" style="stop-color:rgb(100%,0%,7.843137%);stop-opacity:1;"/>
<stop offset="1" style="stop-color:rgb(100%,0%,7.843137%);stop-opacity:0;"/>
</linearGradient>
<linearGradient id="linear6" gradientUnits="userSpaceOnUse" x1="211.9" y1="0" x2="251.76" y2="0" gradientTransform="matrix(1,0.000000000000000056,0,1,-0.000000000000028422,0)">
<stop offset="0" style="stop-color:rgb(100%,0%,0%);stop-opacity:1;"/>
<stop offset="1" style="stop-color:rgb(100%,0%,0%);stop-opacity:0;"/>
</linearGradient>
<radialGradient id="radial3" gradientUnits="userSpaceOnUse" cx="20.525" cy="40.44" fx="20.525" fy="40.44" r="19.563" gradientTransform="matrix(0.282174,0,0,0.0347078,5.475047,17.756334)">
<stop offset="0" style="stop-color:rgb(0%,0%,0%);stop-opacity:0.2;"/>
<stop offset="1" style="stop-color:rgb(0%,0%,0%);stop-opacity:0;"/>
</radialGradient>
</defs>
<g id="surface1">
<path style=" stroke:none;fill-rule:nonzero;fill:rgb(69.019608%,87.843137%,90.196078%);fill-opacity:1;" d="M 17.140625 0.09375 C -17.375 -2.3125 8.496094 44.113281 23.15625 13.542969 C 25.179688 8.832031 23.703125 1.804688 17.140625 0.09375 Z M 17.140625 0.09375 "/>
<path style="fill-rule:evenodd;fill:rgb(79.607843%,56.470588%,13.333333%);fill-opacity:1;stroke-width:1;stroke-linecap:butt;stroke-linejoin:miter;stroke:rgb(36.078431%,25.490196%,4.705882%);stroke-opacity:1;stroke-miterlimit:4;" d="M 17.341969 32.507493 L 22.967211 26.86827 L 43.058569 17.123864 C 46.313063 15.869764 48.242712 20.505516 45.368583 22.117562 L 25.34348 31.501246 Z M 17.341969 32.507493 " transform="matrix(0.385477,-0.0940275,0.103289,0.350915,-5.230089,8.992802)"/>
<path style=" stroke:none;fill-rule:nonzero;fill:url(#linear0);" d="M 11.609375 12.40625 C 11.609375 12.40625 12.175781 12.304688 12.523438 12.691406 C 12.875 13.085938 12.796875 13.625 12.796875 13.625 L 14.476562 12.28125 C 14.476562 12.28125 14.945312 11.835938 14.4375 11.222656 C 13.9375 10.617188 13.28125 11.070312 13.28125 11.070312 Z M 11.609375 12.40625 "/>
<path style=" stroke:none;fill-rule:nonzero;fill:url(#linear1);" d="M 11.609375 12.40625 C 11.609375 12.40625 12.175781 12.304688 12.523438 12.691406 C 12.875 13.085938 12.796875 13.625 12.796875 13.625 L 13.460938 13.085938 C 13.460938 13.085938 13.644531 12.542969 13.269531 12.117188 C 12.882812 11.6875 12.28125 11.867188 12.28125 11.867188 Z M 11.609375 12.40625 "/>
<path style=" stroke:none;fill-rule:nonzero;fill:url(#radial0);" d="M 5.289062 18.382812 L 6.554688 16.378906 C 7.21875 16.523438 7.65625 16.921875 7.664062 17.507812 Z M 5.289062 18.382812 "/>
<path style=" stroke:none;fill-rule:nonzero;fill:url(#linear2);" d="M 5.660156 17.761719 L 5.195312 18.472656 L 6.070312 18.140625 C 6.078125 17.867188 5.886719 17.789062 5.660156 17.761719 Z M 5.660156 17.761719 "/>
<path style=" stroke:none;fill-rule:nonzero;fill:rgb(100%,100%,100%);fill-opacity:0.364706;" d="M 6.554688 16.367188 L 7.285156 16.65625 L 12.460938 12.644531 C 12.203125 12.382812 11.867188 12.382812 11.609375 12.414062 Z M 6.554688 16.367188 "/>
<path style=" stroke:none;fill-rule:nonzero;fill:rgb(0%,0%,0%);fill-opacity:0.364706;" d="M 7.671875 17.53125 L 7.664062 17.25 L 12.796875 13.3125 C 12.796875 13.3125 12.820312 13.539062 12.792969 13.59375 L 7.667969 17.527344 Z M 7.671875 17.53125 "/>
<path style=" stroke:none;fill-rule:nonzero;fill:rgb(89.019608%,89.019608%,89.019608%);fill-opacity:1;" d="M 20.078125 12.398438 C 20.078125 13.59375 19.023438 14.566406 17.726562 14.566406 C 16.425781 14.566406 15.371094 13.59375 15.371094 12.398438 C 15.371094 11.203125 16.425781 10.230469 17.726562 10.230469 C 19.015625 10.230469 20.0625 11.183594 20.078125 12.367188 "/>
<path style=" stroke:none;fill-rule:nonzero;fill:rgb(4.313725%,7.45098%,68.627451%);fill-opacity:0.823529;" d="M 18.503906 12.320312 C 18.503906 12.746094 18.117188 13.09375 17.636719 13.09375 C 17.15625 13.09375 16.773438 12.746094 16.773438 12.320312 C 16.773438 11.898438 17.15625 11.550781 17.636719 11.550781 C 18.109375 11.550781 18.496094 11.890625 18.503906 12.3125 "/>
<path style="fill:none;stroke-width:3.76;stroke-linecap:round;stroke-linejoin:miter;stroke:url(#radial1);stroke-miterlimit:4;" d="M 22.37551 10.269549 C 22.37551 10.269549 25.528495 22.777392 13.17843 21.074392 " transform="matrix(0.37291,0,0,0.339475,3.0075,3.9825)"/>
<path style=" stroke:none;fill-rule:nonzero;fill:rgb(36.078431%,36.078431%,36.078431%);fill-opacity:1;" d="M 12.351562 6.90625 C 12 7.390625 11.269531 7.5625 10.722656 7.285156 C 10.179688 7.007812 10.015625 6.394531 10.367188 5.910156 C 10.71875 5.425781 11.445312 5.257812 11.992188 5.53125 C 12.535156 5.804688 12.695312 6.410156 12.359375 6.894531 "/>
<path style="fill:none;stroke-width:3.76;stroke-linecap:round;stroke-linejoin:miter;stroke:url(#radial2);stroke-miterlimit:4;" d="M 10.297796 6.978617 C 10.297796 6.978617 0.147488 15.827312 11.471 20.625629 " transform="matrix(0.37291,0,0,0.339475,3.0075,3.9825)"/>
<path style=" stroke:none;fill-rule:nonzero;fill:rgb(4.313725%,7.45098%,68.627451%);fill-opacity:0.823529;" d="M 8.640625 6.046875 C 8.289062 6.53125 7.5625 6.699219 7.015625 6.421875 C 6.46875 6.148438 6.3125 5.535156 6.664062 5.050781 C 7.015625 4.566406 7.742188 4.398438 8.289062 4.671875 C 8.828125 4.945312 8.992188 5.550781 8.648438 6.03125 "/>
<path style="fill-rule:nonzero;fill:rgb(100%,100%,100%);fill-opacity:1;stroke-width:0.768;stroke-linecap:butt;stroke-linejoin:miter;stroke:rgb(100%,100%,100%);stroke-opacity:1;stroke-miterlimit:4;" d="M 2.665402 -48.451924 L 4.340985 -48.452988 C 7.167932 -48.44644 9.447761 -45.297119 9.438971 -41.404258 L 9.44276 -23.610036 C 9.445031 -19.720348 7.153078 -16.567546 4.34008 -16.567197 L 2.664497 -16.566133 C -0.148501 -16.565784 -2.42833 -19.715105 -2.433489 -23.614863 L -2.437278 -41.409085 C -2.439549 -45.298774 -0.147596 -48.451575 2.665402 -48.451924 Z M 2.665402 -48.451924 " transform="matrix(-0.102804,0.326319,-0.35846,-0.0935865,3.0075,3.9825)"/>
<path style="fill-rule:nonzero;fill:url(#linear3);stroke-width:2.307;stroke-linecap:butt;stroke-linejoin:miter;stroke:url(#linear4);stroke-miterlimit:4;" d="M 229.052871 19.542331 L 234.08837 19.539191 C 242.542056 19.538242 249.435265 29.023492 249.441963 40.712911 L 249.428204 94.228477 C 249.426223 105.887635 242.57153 115.352923 234.084604 115.363404 L 229.049104 115.366545 C 220.562178 115.377026 213.744128 105.902971 213.70419 94.223085 L 213.717949 40.707519 C 213.71993 29.048361 220.599185 19.54328 229.052871 19.542331 Z M 229.052871 19.542331 " transform="matrix(-0.0342071,0.108585,-0.119279,-0.03114,30.256056,-14.868512)"/>
<path style="fill-rule:nonzero;fill:url(#linear5);stroke-width:2;stroke-linecap:butt;stroke-linejoin:miter;stroke:url(#linear6);stroke-miterlimit:4;" d="M 229.291441 19.997895 L 234.360181 19.985222 C 242.880347 19.965208 249.761631 27.652692 249.751988 37.152623 L 249.738079 68.464512 C 232.581075 63.330932 227.518222 63.865899 213.872425 68.466991 L 213.886334 37.155103 C 213.895977 27.655171 220.762596 19.987649 229.291441 19.997895 Z M 229.291441 19.997895 " transform="matrix(-0.0342071,0.108585,-0.119279,-0.03114,30.256056,-14.868512)"/>
<path style=" stroke:none;fill-rule:nonzero;fill:url(#radial3);" d="M 17.644531 19.160156 C 17.617188 19.53125 15.15625 19.835938 12.125 19.835938 C 9.09375 19.835938 6.628906 19.53125 6.601562 19.160156 C 6.585938 18.914062 7.636719 18.6875 9.351562 18.566406 C 11.066406 18.445312 13.183594 18.445312 14.898438 18.566406 C 16.609375 18.6875 17.660156 18.914062 17.644531 19.160156 Z M 17.644531 19.160156 "/>
<path style=" stroke:none;fill-rule:nonzero;fill:rgb(31.764706%,31.764706%,31.764706%);fill-opacity:1;" d="M 9.671875 6.054688 L 10.398438 6.28125 L 10.328125 6.476562 L 9.875 6.335938 L 9.804688 6.523438 L 10.226562 6.65625 L 10.148438 6.867188 L 9.726562 6.734375 L 9.5625 7.164062 L 9.289062 7.078125 Z M 9.671875 6.054688 "/>
<path style=" stroke:none;fill-rule:nonzero;fill:rgb(31.764706%,31.764706%,31.764706%);fill-opacity:1;" d="M 10.980469 6.988281 C 10.960938 6.972656 10.9375 6.960938 10.917969 6.949219 C 10.898438 6.933594 10.878906 6.921875 10.863281 6.917969 C 10.796875 6.898438 10.734375 6.902344 10.683594 6.933594 C 10.636719 6.960938 10.601562 7.011719 10.574219 7.089844 L 10.441406 7.441406 L 10.183594 7.363281 L 10.472656 6.597656 L 10.730469 6.675781 L 10.683594 6.792969 C 10.726562 6.757812 10.773438 6.734375 10.824219 6.722656 C 10.882812 6.710938 10.9375 6.714844 10.996094 6.730469 C 11 6.734375 11.007812 6.742188 11.019531 6.746094 C 11.03125 6.75 11.046875 6.757812 11.066406 6.761719 Z M 10.980469 6.988281 "/>
<path style=" stroke:none;fill-rule:nonzero;fill:rgb(31.764706%,31.764706%,31.764706%);fill-opacity:1;" d="M 11.828125 7.4375 L 11.796875 7.515625 L 11.203125 7.335938 C 11.191406 7.390625 11.195312 7.4375 11.21875 7.476562 C 11.242188 7.511719 11.289062 7.539062 11.359375 7.5625 C 11.410156 7.578125 11.464844 7.585938 11.523438 7.59375 C 11.585938 7.59375 11.652344 7.59375 11.726562 7.585938 L 11.65625 7.773438 C 11.585938 7.773438 11.519531 7.765625 11.453125 7.765625 C 11.390625 7.757812 11.328125 7.742188 11.273438 7.726562 C 11.132812 7.679688 11.035156 7.617188 10.984375 7.523438 C 10.929688 7.421875 10.929688 7.308594 10.976562 7.179688 C 11.023438 7.054688 11.097656 6.96875 11.203125 6.921875 C 11.304688 6.875 11.425781 6.871094 11.5625 6.914062 C 11.6875 6.949219 11.773438 7.015625 11.820312 7.117188 C 11.867188 7.210938 11.867188 7.316406 11.828125 7.4375 Z M 11.585938 7.28125 C 11.605469 7.234375 11.609375 7.191406 11.59375 7.15625 C 11.578125 7.113281 11.546875 7.085938 11.5 7.078125 C 11.453125 7.0625 11.40625 7.0625 11.367188 7.085938 C 11.324219 7.101562 11.289062 7.132812 11.265625 7.179688 Z M 11.585938 7.28125 "/>
<path style=" stroke:none;fill-rule:nonzero;fill:rgb(31.764706%,31.764706%,31.764706%);fill-opacity:1;" d="M 12.796875 7.738281 L 12.765625 7.816406 L 12.171875 7.636719 C 12.164062 7.695312 12.167969 7.742188 12.1875 7.777344 C 12.214844 7.8125 12.261719 7.84375 12.328125 7.863281 C 12.382812 7.878906 12.4375 7.890625 12.492188 7.894531 C 12.554688 7.898438 12.625 7.898438 12.695312 7.886719 L 12.625 8.074219 C 12.558594 8.074219 12.492188 8.070312 12.421875 8.066406 C 12.359375 8.0625 12.300781 8.046875 12.242188 8.027344 C 12.101562 7.984375 12.007812 7.917969 11.953125 7.824219 C 11.902344 7.726562 11.898438 7.609375 11.945312 7.480469 C 11.992188 7.355469 12.070312 7.269531 12.171875 7.222656 C 12.277344 7.175781 12.398438 7.171875 12.53125 7.214844 C 12.65625 7.25 12.742188 7.320312 12.789062 7.417969 C 12.835938 7.511719 12.839844 7.617188 12.796875 7.738281 Z M 12.554688 7.582031 C 12.578125 7.535156 12.578125 7.492188 12.5625 7.457031 C 12.546875 7.414062 12.515625 7.390625 12.46875 7.378906 C 12.421875 7.363281 12.378906 7.367188 12.335938 7.386719 C 12.296875 7.402344 12.261719 7.433594 12.234375 7.480469 Z M 12.554688 7.582031 "/>
<path style=" stroke:none;fill-rule:nonzero;fill:rgb(31.764706%,31.764706%,31.764706%);fill-opacity:1;" d="M 13.234375 7.164062 L 13.578125 7.273438 L 13.609375 7.890625 L 14.054688 7.421875 L 14.390625 7.53125 L 14.007812 8.554688 L 13.757812 8.46875 L 14.039062 7.71875 L 13.585938 8.203125 L 13.414062 8.148438 L 13.390625 7.515625 L 13.109375 8.265625 L 12.851562 8.1875 Z M 13.234375 7.164062 "/>
<path style=" stroke:none;fill-rule:nonzero;fill:rgb(31.764706%,31.764706%,31.764706%);fill-opacity:1;" d="M 15.195312 8.484375 L 15.164062 8.5625 L 14.570312 8.382812 C 14.558594 8.445312 14.5625 8.492188 14.585938 8.523438 C 14.609375 8.5625 14.65625 8.59375 14.726562 8.609375 C 14.777344 8.625 14.832031 8.636719 14.890625 8.640625 C 14.953125 8.648438 15.019531 8.644531 15.09375 8.632812 L 15.023438 8.820312 C 14.953125 8.820312 14.886719 8.820312 14.820312 8.8125 C 14.757812 8.808594 14.695312 8.796875 14.640625 8.773438 C 14.5 8.734375 14.402344 8.664062 14.351562 8.570312 C 14.296875 8.476562 14.296875 8.359375 14.34375 8.226562 C 14.390625 8.101562 14.464844 8.015625 14.570312 7.96875 C 14.671875 7.921875 14.792969 7.921875 14.929688 7.960938 C 15.054688 8 15.140625 8.070312 15.1875 8.164062 C 15.234375 8.257812 15.234375 8.367188 15.195312 8.484375 Z M 14.953125 8.328125 C 14.972656 8.28125 14.976562 8.242188 14.960938 8.203125 C 14.945312 8.164062 14.914062 8.140625 14.867188 8.125 C 14.820312 8.109375 14.773438 8.117188 14.734375 8.132812 C 14.691406 8.148438 14.65625 8.179688 14.632812 8.226562 Z M 14.953125 8.328125 "/>
<path style=" stroke:none;fill-rule:nonzero;fill:rgb(31.764706%,31.764706%,31.764706%);fill-opacity:1;" d="M 16.019531 8.445312 L 16.167969 8.03125 L 16.417969 8.109375 L 16.019531 9.179688 L 15.769531 9.101562 L 15.808594 8.992188 C 15.757812 9.023438 15.703125 9.042969 15.652344 9.054688 C 15.605469 9.0625 15.554688 9.0625 15.503906 9.046875 C 15.40625 9.015625 15.339844 8.953125 15.308594 8.859375 C 15.277344 8.765625 15.28125 8.660156 15.324219 8.539062 C 15.371094 8.421875 15.4375 8.332031 15.527344 8.273438 C 15.617188 8.21875 15.710938 8.203125 15.808594 8.234375 C 15.859375 8.25 15.902344 8.277344 15.933594 8.3125 C 15.96875 8.34375 16 8.390625 16.019531 8.445312 Z M 15.660156 8.882812 C 15.71875 8.902344 15.765625 8.898438 15.808594 8.875 C 15.851562 8.84375 15.882812 8.792969 15.910156 8.71875 C 15.941406 8.648438 15.949219 8.585938 15.933594 8.539062 C 15.917969 8.492188 15.882812 8.460938 15.824219 8.4375 C 15.777344 8.421875 15.730469 8.429688 15.683594 8.460938 C 15.640625 8.492188 15.605469 8.546875 15.574219 8.617188 C 15.546875 8.691406 15.542969 8.75 15.558594 8.796875 C 15.578125 8.839844 15.613281 8.867188 15.660156 8.882812 Z M 15.660156 8.882812 "/>
<path style=" stroke:none;fill-rule:nonzero;fill:rgb(31.764706%,31.764706%,31.764706%);fill-opacity:1;" d="M 16.65625 8.234375 L 17.382812 8.460938 L 17.3125 8.65625 L 16.859375 8.515625 L 16.789062 8.703125 L 17.210938 8.835938 L 17.132812 9.046875 L 16.710938 8.914062 L 16.546875 9.34375 L 16.273438 9.257812 Z M 16.65625 8.234375 "/>
<path style=" stroke:none;fill-rule:nonzero;fill:rgb(31.764706%,31.764706%,31.764706%);fill-opacity:1;" d="M 17.800781 9.046875 C 17.75 9.03125 17.699219 9.03125 17.652344 9.0625 C 17.605469 9.09375 17.566406 9.148438 17.535156 9.226562 C 17.507812 9.304688 17.503906 9.359375 17.519531 9.40625 C 17.535156 9.453125 17.570312 9.492188 17.621094 9.507812 C 17.679688 9.523438 17.726562 9.515625 17.769531 9.484375 C 17.816406 9.453125 17.851562 9.40625 17.878906 9.328125 C 17.910156 9.25 17.917969 9.1875 17.902344 9.140625 C 17.890625 9.09375 17.859375 9.0625 17.800781 9.046875 Z M 17.863281 8.875 C 18 8.921875 18.089844 8.992188 18.136719 9.085938 C 18.183594 9.179688 18.183594 9.289062 18.136719 9.414062 C 18.089844 9.539062 18.015625 9.625 17.910156 9.671875 C 17.8125 9.726562 17.695312 9.730469 17.558594 9.6875 C 17.421875 9.648438 17.328125 9.578125 17.277344 9.476562 C 17.230469 9.382812 17.230469 9.265625 17.277344 9.140625 C 17.324219 9.015625 17.398438 8.929688 17.503906 8.882812 C 17.609375 8.835938 17.726562 8.835938 17.863281 8.875 Z M 17.863281 8.875 "/>
<path style=" stroke:none;fill-rule:nonzero;fill:rgb(31.764706%,31.764706%,31.764706%);fill-opacity:1;" d="M 18.972656 9.480469 C 18.953125 9.464844 18.929688 9.453125 18.910156 9.441406 C 18.890625 9.425781 18.871094 9.414062 18.855469 9.410156 C 18.789062 9.390625 18.726562 9.394531 18.675781 9.425781 C 18.628906 9.453125 18.59375 9.503906 18.566406 9.582031 L 18.433594 9.933594 L 18.175781 9.855469 L 18.464844 9.089844 L 18.722656 9.167969 L 18.675781 9.285156 C 18.71875 9.25 18.765625 9.226562 18.816406 9.214844 C 18.875 9.203125 18.929688 9.207031 18.988281 9.222656 C 18.992188 9.226562 19 9.234375 19.011719 9.238281 C 19.023438 9.242188 19.039062 9.25 19.058594 9.253906 Z M 18.972656 9.480469 "/>
<path style=" stroke:none;fill-rule:nonzero;fill:rgb(31.764706%,31.764706%,31.764706%);fill-opacity:1;" d="M 19.851562 9.65625 C 19.898438 9.625 19.953125 9.601562 20.007812 9.59375 C 20.054688 9.578125 20.109375 9.578125 20.164062 9.59375 C 20.25 9.617188 20.304688 9.667969 20.335938 9.742188 C 20.367188 9.808594 20.359375 9.894531 20.320312 10 L 20.148438 10.46875 L 19.890625 10.390625 L 20.039062 9.984375 C 20.039062 9.976562 20.046875 9.972656 20.046875 9.96875 C 20.046875 9.960938 20.054688 9.953125 20.054688 9.945312 C 20.070312 9.886719 20.078125 9.84375 20.078125 9.820312 C 20.070312 9.789062 20.046875 9.765625 20.015625 9.757812 C 19.96875 9.742188 19.921875 9.75 19.882812 9.78125 C 19.835938 9.8125 19.804688 9.859375 19.78125 9.929688 L 19.640625 10.3125 L 19.390625 10.234375 L 19.539062 9.828125 C 19.570312 9.742188 19.578125 9.6875 19.578125 9.664062 C 19.570312 9.632812 19.546875 9.609375 19.515625 9.601562 C 19.460938 9.585938 19.414062 9.59375 19.375 9.625 C 19.335938 9.65625 19.304688 9.703125 19.28125 9.773438 L 19.140625 10.15625 L 18.882812 10.078125 L 19.171875 9.3125 L 19.429688 9.390625 L 19.390625 9.5 C 19.429688 9.460938 19.476562 9.4375 19.523438 9.429688 C 19.570312 9.417969 19.625 9.421875 19.671875 9.4375 C 19.71875 9.453125 19.765625 9.480469 19.796875 9.523438 C 19.828125 9.558594 19.84375 9.601562 19.851562 9.65625 Z M 19.851562 9.65625 "/>
<path style=" stroke:none;fill-rule:nonzero;fill:rgb(31.764706%,31.764706%,31.764706%);fill-opacity:1;" d="M 21.273438 9.980469 L 21.203125 10.175781 C 21.148438 10.132812 21.101562 10.101562 21.054688 10.074219 C 21.011719 10.046875 20.96875 10.027344 20.921875 10.011719 C 20.878906 10 20.84375 10 20.8125 10.003906 C 20.785156 10.007812 20.765625 10.023438 20.757812 10.050781 C 20.75 10.066406 20.757812 10.082031 20.773438 10.097656 C 20.789062 10.113281 20.8125 10.132812 20.851562 10.152344 L 20.898438 10.167969 C 21.015625 10.226562 21.09375 10.28125 21.125 10.332031 C 21.15625 10.378906 21.15625 10.441406 21.125 10.519531 C 21.09375 10.601562 21.039062 10.65625 20.960938 10.675781 C 20.882812 10.703125 20.78125 10.695312 20.664062 10.660156 C 20.609375 10.640625 20.558594 10.617188 20.507812 10.589844 C 20.453125 10.5625 20.402344 10.535156 20.351562 10.503906 L 20.421875 10.324219 C 20.460938 10.359375 20.507812 10.390625 20.554688 10.417969 C 20.605469 10.445312 20.660156 10.464844 20.71875 10.480469 C 20.757812 10.496094 20.796875 10.503906 20.828125 10.503906 C 20.859375 10.5 20.878906 10.484375 20.890625 10.457031 C 20.894531 10.429688 20.890625 10.410156 20.875 10.394531 C 20.863281 10.378906 20.832031 10.359375 20.78125 10.339844 L 20.742188 10.324219 C 20.636719 10.273438 20.570312 10.222656 20.539062 10.175781 C 20.511719 10.125 20.511719 10.058594 20.539062 9.980469 C 20.570312 9.902344 20.621094 9.851562 20.695312 9.832031 C 20.765625 9.804688 20.859375 9.8125 20.96875 9.847656 C 21.019531 9.863281 21.070312 9.882812 21.117188 9.910156 C 21.164062 9.929688 21.214844 9.953125 21.273438 9.980469 Z M 21.273438 9.980469 "/>
<path style=" stroke:none;fill-rule:nonzero;fill:rgb(56.470588%,56.470588%,56.470588%);fill-opacity:1;" d="M 9.757812 6.03125 L 10.484375 6.257812 L 10.40625 6.460938 L 9.953125 6.320312 L 9.875 6.507812 L 10.296875 6.640625 L 10.21875 6.84375 L 9.796875 6.710938 L 9.625 7.140625 L 9.351562 7.054688 Z M 9.757812 6.03125 "/>
<path style=" stroke:none;fill-rule:nonzero;fill:rgb(56.470588%,56.470588%,56.470588%);fill-opacity:1;" d="M 11.039062 6.957031 C 11.023438 6.941406 11 6.929688 10.976562 6.917969 C 10.953125 6.902344 10.9375 6.890625 10.921875 6.886719 C 10.851562 6.867188 10.796875 6.871094 10.75 6.902344 C 10.703125 6.929688 10.664062 6.980469 10.632812 7.058594 L 10.492188 7.410156 L 10.234375 7.332031 L 10.539062 6.566406 L 10.796875 6.644531 L 10.742188 6.769531 C 10.789062 6.734375 10.835938 6.710938 10.890625 6.699219 C 10.945312 6.683594 11 6.683594 11.0625 6.699219 C 11.0625 6.699219 11.070312 6.703125 11.078125 6.714844 C 11.085938 6.71875 11.101562 6.726562 11.125 6.730469 Z M 11.039062 6.957031 "/>
<path style=" stroke:none;fill-rule:nonzero;fill:rgb(56.470588%,56.470588%,56.470588%);fill-opacity:1;" d="M 11.875 7.40625 L 11.84375 7.476562 L 11.25 7.289062 C 11.234375 7.351562 11.234375 7.40625 11.257812 7.4375 C 11.28125 7.476562 11.328125 7.507812 11.398438 7.523438 C 11.449219 7.539062 11.507812 7.550781 11.570312 7.554688 C 11.632812 7.5625 11.699219 7.554688 11.773438 7.539062 L 11.695312 7.726562 C 11.625 7.734375 11.558594 7.734375 11.492188 7.726562 C 11.429688 7.722656 11.367188 7.710938 11.3125 7.6875 C 11.171875 7.648438 11.074219 7.578125 11.023438 7.484375 C 10.976562 7.390625 10.976562 7.273438 11.023438 7.148438 C 11.074219 7.023438 11.152344 6.929688 11.257812 6.882812 C 11.359375 6.835938 11.480469 6.835938 11.617188 6.875 C 11.742188 6.914062 11.828125 6.984375 11.875 7.078125 C 11.921875 7.171875 11.921875 7.28125 11.875 7.40625 Z M 11.640625 7.234375 C 11.65625 7.1875 11.65625 7.148438 11.640625 7.117188 C 11.625 7.085938 11.59375 7.0625 11.546875 7.046875 C 11.5 7.03125 11.453125 7.03125 11.414062 7.046875 C 11.371094 7.0625 11.339844 7.09375 11.320312 7.140625 Z M 11.640625 7.234375 "/>
<path style=" stroke:none;fill-rule:nonzero;fill:rgb(56.470588%,56.470588%,56.470588%);fill-opacity:1;" d="M 12.835938 7.703125 L 12.804688 7.773438 L 12.210938 7.585938 C 12.195312 7.648438 12.195312 7.703125 12.21875 7.734375 C 12.242188 7.773438 12.289062 7.804688 12.359375 7.820312 C 12.40625 7.835938 12.46875 7.847656 12.53125 7.851562 C 12.59375 7.859375 12.65625 7.851562 12.734375 7.835938 L 12.65625 8.023438 C 12.585938 8.03125 12.515625 8.03125 12.453125 8.023438 C 12.390625 8.019531 12.328125 8.007812 12.273438 7.984375 C 12.132812 7.945312 12.03125 7.875 11.984375 7.78125 C 11.9375 7.6875 11.9375 7.570312 11.984375 7.445312 C 12.03125 7.320312 12.109375 7.226562 12.21875 7.179688 C 12.320312 7.132812 12.4375 7.132812 12.578125 7.171875 C 12.703125 7.210938 12.789062 7.28125 12.835938 7.375 C 12.882812 7.46875 12.882812 7.578125 12.835938 7.703125 Z M 12.601562 7.53125 C 12.617188 7.484375 12.617188 7.445312 12.601562 7.414062 C 12.585938 7.382812 12.554688 7.359375 12.507812 7.34375 C 12.460938 7.328125 12.414062 7.328125 12.375 7.34375 C 12.328125 7.359375 12.296875 7.390625 12.28125 7.4375 Z M 12.601562 7.53125 "/>
<path style=" stroke:none;fill-rule:nonzero;fill:rgb(56.470588%,56.470588%,56.470588%);fill-opacity:1;" d="M 13.269531 7.117188 L 13.613281 7.226562 L 13.628906 7.84375 L 14.089844 7.375 L 14.425781 7.476562 L 14.019531 8.5 L 13.769531 8.421875 L 14.066406 7.679688 L 13.605469 8.15625 L 13.433594 8.101562 L 13.417969 7.476562 L 13.121094 8.21875 L 12.863281 8.140625 Z M 13.269531 7.117188 "/>
<path style=" stroke:none;fill-rule:nonzero;fill:rgb(56.470588%,56.470588%,56.470588%);fill-opacity:1;" d="M 15.199219 8.4375 L 15.167969 8.507812 L 14.574219 8.320312 C 14.558594 8.382812 14.5625 8.433594 14.582031 8.46875 C 14.609375 8.507812 14.65625 8.535156 14.722656 8.554688 C 14.773438 8.570312 14.832031 8.578125 14.894531 8.585938 C 14.957031 8.589844 15.023438 8.585938 15.097656 8.570312 L 15.019531 8.757812 C 14.953125 8.761719 14.882812 8.761719 14.816406 8.757812 C 14.753906 8.75 14.695312 8.738281 14.636719 8.71875 C 14.496094 8.675781 14.398438 8.609375 14.347656 8.515625 C 14.300781 8.417969 14.300781 8.304688 14.347656 8.179688 C 14.398438 8.050781 14.476562 7.960938 14.582031 7.914062 C 14.6875 7.867188 14.804688 7.867188 14.941406 7.90625 C 15.066406 7.945312 15.152344 8.011719 15.199219 8.109375 C 15.246094 8.203125 15.246094 8.3125 15.199219 8.4375 Z M 14.964844 8.265625 C 14.980469 8.21875 14.980469 8.179688 14.964844 8.148438 C 14.949219 8.113281 14.917969 8.089844 14.871094 8.078125 C 14.824219 8.0625 14.78125 8.0625 14.738281 8.078125 C 14.695312 8.09375 14.664062 8.125 14.644531 8.171875 Z M 14.964844 8.265625 "/>
<path style=" stroke:none;fill-rule:nonzero;fill:rgb(56.470588%,56.470588%,56.470588%);fill-opacity:1;" d="M 16.007812 8.382812 L 16.171875 7.976562 L 16.421875 8.054688 L 16 9.117188 L 15.75 9.039062 L 15.796875 8.929688 C 15.742188 8.960938 15.6875 8.980469 15.632812 8.992188 C 15.585938 9 15.539062 9 15.484375 8.984375 C 15.386719 8.953125 15.320312 8.890625 15.289062 8.796875 C 15.257812 8.703125 15.265625 8.601562 15.3125 8.484375 C 15.359375 8.359375 15.429688 8.269531 15.515625 8.210938 C 15.609375 8.15625 15.707031 8.140625 15.804688 8.171875 C 15.859375 8.1875 15.898438 8.214844 15.929688 8.25 C 15.960938 8.289062 15.988281 8.332031 16.007812 8.382812 Z M 15.640625 8.820312 C 15.699219 8.835938 15.75 8.832031 15.789062 8.804688 C 15.835938 8.78125 15.875 8.734375 15.898438 8.664062 C 15.929688 8.59375 15.9375 8.53125 15.921875 8.484375 C 15.914062 8.433594 15.878906 8.398438 15.820312 8.382812 C 15.773438 8.367188 15.726562 8.375 15.679688 8.40625 C 15.632812 8.4375 15.59375 8.492188 15.5625 8.5625 C 15.539062 8.632812 15.53125 8.6875 15.546875 8.734375 C 15.5625 8.777344 15.59375 8.804688 15.640625 8.820312 Z M 15.640625 8.820312 "/>
<path style=" stroke:none;fill-rule:nonzero;fill:rgb(56.470588%,56.470588%,56.470588%);fill-opacity:1;" d="M 16.644531 8.164062 L 17.371094 8.390625 L 17.292969 8.59375 L 16.839844 8.453125 L 16.761719 8.640625 L 17.183594 8.773438 L 17.105469 8.976562 L 16.683594 8.84375 L 16.511719 9.273438 L 16.238281 9.1875 Z M 16.644531 8.164062 "/>
<path style=" stroke:none;fill-rule:nonzero;fill:rgb(56.470588%,56.470588%,56.470588%);fill-opacity:1;" d="M 17.765625 8.984375 C 17.710938 8.960938 17.664062 8.96875 17.617188 9 C 17.570312 9.03125 17.53125 9.085938 17.5 9.164062 C 17.46875 9.230469 17.46875 9.289062 17.484375 9.335938 C 17.5 9.382812 17.53125 9.414062 17.585938 9.4375 C 17.640625 9.453125 17.6875 9.445312 17.734375 9.414062 C 17.78125 9.382812 17.8125 9.332031 17.84375 9.265625 C 17.875 9.1875 17.882812 9.125 17.867188 9.078125 C 17.851562 9.03125 17.820312 9 17.765625 8.984375 Z M 17.835938 8.804688 C 17.96875 8.84375 18.0625 8.914062 18.109375 9.015625 C 18.15625 9.109375 18.148438 9.21875 18.101562 9.351562 C 18.054688 9.46875 17.976562 9.554688 17.875 9.601562 C 17.765625 9.648438 17.648438 9.65625 17.515625 9.617188 C 17.375 9.570312 17.289062 9.5 17.242188 9.40625 C 17.195312 9.304688 17.195312 9.195312 17.242188 9.078125 C 17.289062 8.945312 17.367188 8.859375 17.476562 8.8125 C 17.578125 8.765625 17.695312 8.761719 17.835938 8.804688 Z M 17.835938 8.804688 "/>
<path style=" stroke:none;fill-rule:nonzero;fill:rgb(56.470588%,56.470588%,56.470588%);fill-opacity:1;" d="M 18.921875 9.398438 C 18.90625 9.382812 18.882812 9.375 18.859375 9.359375 C 18.835938 9.34375 18.820312 9.335938 18.804688 9.328125 C 18.734375 9.3125 18.679688 9.3125 18.632812 9.34375 C 18.585938 9.375 18.546875 9.421875 18.515625 9.5 L 18.375 9.851562 L 18.117188 9.773438 L 18.421875 9.007812 L 18.679688 9.085938 L 18.625 9.210938 C 18.671875 9.179688 18.71875 9.15625 18.773438 9.140625 C 18.828125 9.125 18.886719 9.125 18.945312 9.140625 C 18.949219 9.140625 18.953125 9.148438 18.960938 9.15625 C 18.96875 9.164062 18.984375 9.171875 19.007812 9.171875 Z M 18.921875 9.398438 "/>
<path style=" stroke:none;fill-rule:nonzero;fill:rgb(56.470588%,56.470588%,56.470588%);fill-opacity:1;" d="M 19.789062 9.570312 C 19.847656 9.546875 19.902344 9.523438 19.953125 9.507812 C 20.007812 9.492188 20.058594 9.492188 20.109375 9.507812 C 20.203125 9.535156 20.261719 9.585938 20.28125 9.65625 C 20.308594 9.730469 20.304688 9.816406 20.265625 9.914062 L 20.078125 10.382812 L 19.820312 10.304688 L 19.976562 9.90625 C 19.984375 9.902344 19.984375 9.898438 19.984375 9.890625 C 19.992188 9.882812 19.992188 9.871094 19.992188 9.859375 C 20.019531 9.808594 20.03125 9.769531 20.023438 9.742188 C 20.019531 9.710938 19.996094 9.691406 19.953125 9.679688 C 19.90625 9.664062 19.863281 9.671875 19.820312 9.703125 C 19.78125 9.730469 19.746094 9.78125 19.71875 9.851562 L 19.570312 10.226562 L 19.320312 10.148438 L 19.476562 9.75 C 19.515625 9.667969 19.53125 9.613281 19.523438 9.585938 C 19.519531 9.554688 19.496094 9.535156 19.453125 9.523438 C 19.402344 9.507812 19.355469 9.515625 19.3125 9.546875 C 19.277344 9.574219 19.246094 9.625 19.21875 9.695312 L 19.070312 10.070312 L 18.8125 9.992188 L 19.117188 9.226562 L 19.375 9.304688 L 19.328125 9.414062 C 19.371094 9.382812 19.417969 9.363281 19.46875 9.351562 C 19.523438 9.335938 19.570312 9.335938 19.617188 9.351562 C 19.671875 9.367188 19.710938 9.398438 19.742188 9.4375 C 19.773438 9.480469 19.789062 9.523438 19.789062 9.570312 Z M 19.789062 9.570312 "/>
<path style=" stroke:none;fill-rule:nonzero;fill:rgb(56.470588%,56.470588%,56.470588%);fill-opacity:1;" d="M 21.203125 9.890625 L 21.125 10.078125 C 21.078125 10.039062 21.03125 10.007812 20.984375 9.984375 C 20.9375 9.960938 20.890625 9.9375 20.84375 9.921875 C 20.796875 9.914062 20.765625 9.914062 20.734375 9.914062 C 20.703125 9.914062 20.6875 9.929688 20.6875 9.953125 C 20.671875 9.976562 20.679688 9.992188 20.695312 10.007812 C 20.710938 10.023438 20.734375 10.039062 20.773438 10.054688 L 20.820312 10.070312 C 20.9375 10.132812 21.007812 10.1875 21.039062 10.234375 C 21.070312 10.28125 21.070312 10.34375 21.039062 10.421875 C 21.007812 10.507812 20.953125 10.558594 20.875 10.578125 C 20.796875 10.605469 20.695312 10.601562 20.578125 10.5625 C 20.523438 10.542969 20.46875 10.519531 20.421875 10.492188 C 20.367188 10.46875 20.3125 10.4375 20.265625 10.40625 L 20.34375 10.226562 C 20.382812 10.273438 20.429688 10.304688 20.476562 10.328125 C 20.523438 10.351562 20.570312 10.367188 20.632812 10.382812 C 20.671875 10.398438 20.710938 10.40625 20.742188 10.40625 C 20.773438 10.40625 20.789062 10.390625 20.804688 10.359375 C 20.8125 10.335938 20.8125 10.320312 20.796875 10.304688 C 20.78125 10.289062 20.75 10.273438 20.703125 10.242188 L 20.664062 10.226562 C 20.554688 10.179688 20.492188 10.125 20.460938 10.078125 C 20.429688 10.03125 20.4375 9.960938 20.46875 9.882812 C 20.5 9.804688 20.546875 9.757812 20.625 9.734375 C 20.695312 9.710938 20.789062 9.71875 20.898438 9.75 C 20.945312 9.765625 21 9.789062 21.046875 9.804688 C 21.09375 9.828125 21.140625 9.859375 21.203125 9.890625 Z M 21.203125 9.890625 "/>
</g>
</svg>
