
<svg xmlns="http://www.w3.org/2000/svg" xmlns:xlink="http://www.w3.org/1999/xlink" width="24px" height="24px" viewBox="0 0 24 24" version="1.1">
<g id="surface1">
<path style=" stroke:none;fill-rule:nonzero;fill:rgb(60.392157%,80.392157%,19.607843%);fill-opacity:1;" d="M 14.722656 23.585938 C 37.023438 18.941406 13.085938 -13.007812 1.75 6.183594 C -3.109375 13.640625 3.253906 25.976562 14.722656 23.585938 Z M 14.722656 23.585938 "/>
<path style=" stroke:none;fill-rule:nonzero;fill:rgb(100%,100%,100%);fill-opacity:0.968627;" d="M 7.1875 16.117188 C 6.820312 16.007812 6.78125 15.566406 6.8125 12 C 6.847656 8.433594 6.855469 8.386719 7.453125 8.390625 C 8.125 8.390625 8.097656 8.269531 8.171875 11.484375 C 8.210938 13.082031 8.246094 14.515625 8.25 14.660156 L 8.257812 14.929688 L 9.160156 14.9375 C 10.601562 14.945312 11.78125 15.074219 11.875 15.230469 C 12.015625 15.453125 11.980469 15.871094 11.804688 16.015625 C 11.679688 16.117188 11.15625 16.15625 9.539062 16.167969 C 8.375 16.179688 7.320312 16.15625 7.1875 16.117188 Z M 7.1875 16.117188 "/>
<path style=" stroke:none;fill-rule:nonzero;fill:rgb(100%,100%,100%);fill-opacity:0.968627;" d="M 13.757812 16.101562 C 13.445312 15.972656 13.277344 15.671875 12.78125 14.375 C 11.828125 11.867188 11.46875 10.941406 11.140625 10.144531 C 10.765625 9.234375 10.6875 8.546875 10.953125 8.445312 C 11.148438 8.371094 11.515625 8.371094 11.71875 8.449219 C 11.933594 8.53125 12.554688 9.796875 12.894531 10.828125 C 13.042969 11.285156 13.226562 11.765625 13.296875 11.902344 C 13.367188 12.039062 13.5625 12.519531 13.734375 12.976562 C 14.28125 14.445312 14.195312 14.546875 15.632812 10.710938 C 16.402344 8.65625 16.585938 8.390625 17.207031 8.390625 C 17.5625 8.390625 17.652344 8.429688 17.742188 8.617188 C 17.828125 8.816406 17.734375 9.140625 17.09375 10.792969 C 16.679688 11.859375 16.152344 13.25 15.921875 13.882812 C 15.492188 15.046875 15.125 15.769531 14.859375 15.992188 C 14.664062 16.15625 14.023438 16.21875 13.757812 16.101562 Z M 13.757812 16.101562 "/>
</g>
</svg>
