
<svg xmlns="http://www.w3.org/2000/svg" xmlns:xlink="http://www.w3.org/1999/xlink" width="24px" height="24px" viewBox="0 0 24 24" version="1.1">
<g id="surface1">
<path style=" stroke:none;fill-rule:nonzero;fill:rgb(86.27451%,86.27451%,86.27451%);fill-opacity:1;" d="M 19.796875 3.65625 C 38.71875 28.414062 -13.351562 31.933594 3.359375 6.65625 C 7.167969 0.894531 14.785156 -2.90625 19.796875 3.65625 Z M 19.796875 3.65625 "/>
<path style=" stroke:none;fill-rule:nonzero;fill:rgb(63.529412%,63.529412%,63.137255%);fill-opacity:1;" d="M 4.210938 20.320312 C 4.042969 20.203125 3.90625 19.992188 3.90625 19.855469 C 3.90625 19.71875 3.84375 19.566406 3.773438 19.519531 C 3.695312 19.472656 3.632812 19.3125 3.632812 19.164062 C 3.632812 19.019531 3.574219 18.898438 3.5 18.898438 C 3.425781 18.898438 3.367188 18.679688 3.367188 18.414062 C 3.367188 18.148438 3.425781 17.933594 3.5 17.933594 C 3.574219 17.933594 3.632812 17.78125 3.632812 17.597656 C 3.632812 17.414062 3.695312 17.222656 3.773438 17.175781 C 3.84375 17.128906 3.90625 16.976562 3.90625 16.835938 C 3.90625 16.425781 4.476562 16.15625 5.460938 16.113281 C 6.328125 16.074219 6.394531 16.046875 6.773438 15.570312 C 7.03125 15.246094 7.179688 14.898438 7.1875 14.59375 C 7.199219 14.121094 6.851562 13.195312 6.601562 13.039062 C 6.433594 12.929688 6.429688 12.046875 6.597656 11.941406 C 6.757812 11.84375 7.148438 11.054688 7.148438 10.835938 C 7.148438 10.394531 7.632812 10.210938 8.816406 10.210938 C 10.03125 10.210938 10.65625 10.429688 10.65625 10.851562 C 10.65625 11.039062 10.71875 11.1875 11.039062 11.832031 C 11.226562 12.199219 11.242188 12.742188 11.078125 13.078125 C 10.546875 14.140625 10.484375 14.640625 10.796875 15.28125 C 11.1875 16.074219 11.308594 16.140625 12.351562 16.140625 C 13.429688 16.140625 13.679688 16.320312 14.105469 17.382812 C 14.148438 17.496094 14.242188 17.695312 14.3125 17.828125 C 14.507812 18.203125 14.445312 18.789062 14.160156 19.242188 C 14.015625 19.46875 13.859375 19.75 13.8125 19.867188 C 13.546875 20.476562 13.351562 20.554688 12.070312 20.554688 C 10.683594 20.554688 10.5625 20.476562 10.03125 19.3125 C 9.796875 18.785156 9.527344 18.625 8.890625 18.625 C 8.3125 18.625 8.203125 18.675781 7.832031 19.140625 C 7.601562 19.421875 7.414062 19.75 7.414062 19.875 C 7.414062 20 7.304688 20.203125 7.171875 20.328125 C 6.828125 20.640625 4.65625 20.640625 4.210938 20.320312 Z M 13.796875 14.53125 C 13.628906 14.414062 13.492188 14.226562 13.492188 14.125 C 13.492188 14.015625 13.421875 13.792969 13.335938 13.625 C 12.992188 12.949219 12.953125 12.824219 12.953125 12.488281 C 12.953125 12.296875 13.007812 12.03125 13.070312 11.898438 C 13.601562 10.835938 13.664062 10.335938 13.351562 9.695312 C 12.960938 8.902344 12.84375 8.835938 11.800781 8.835938 C 10.71875 8.835938 10.46875 8.65625 10.046875 7.59375 C 10 7.480469 9.90625 7.28125 9.835938 7.148438 C 9.566406 6.628906 9.664062 6.269531 10.445312 4.90625 L 10.765625 4.351562 L 13.382812 4.351562 L 13.710938 4.90625 C 13.886719 5.210938 14.070312 5.550781 14.121094 5.664062 C 14.371094 6.242188 14.601562 6.351562 15.585938 6.351562 C 16.355469 6.351562 16.601562 6.40625 16.78125 6.605469 C 16.902344 6.742188 17.003906 6.929688 17.003906 7.019531 C 17.003906 7.207031 17.25 7.6875 17.53125 8.039062 C 17.679688 8.226562 17.929688 8.28125 18.648438 8.28125 C 19.882812 8.28125 20.210938 8.5 20.328125 9.398438 C 20.375 9.773438 20.46875 10.074219 20.53125 10.074219 C 20.597656 10.074219 20.648438 10.292969 20.648438 10.554688 C 20.648438 10.820312 20.597656 11.039062 20.53125 11.039062 C 20.46875 11.039062 20.382812 11.289062 20.34375 11.59375 C 20.304688 11.902344 20.132812 12.296875 19.953125 12.484375 C 19.675781 12.785156 19.523438 12.828125 18.679688 12.828125 C 17.929688 12.832031 17.679688 12.882812 17.53125 13.074219 C 17.242188 13.445312 17.003906 13.914062 17.003906 14.117188 C 17.003906 14.21875 16.890625 14.40625 16.757812 14.53125 C 16.414062 14.851562 14.242188 14.847656 13.796875 14.53125 Z M 13.796875 14.53125 "/>
<path style=" stroke:none;fill-rule:nonzero;fill:rgb(97.254902%,62.745098%,0%);fill-opacity:1;" d="M 4.414062 20.269531 C 4.289062 20.195312 4.0625 19.855469 3.917969 19.515625 C 3.769531 19.179688 3.585938 18.898438 3.507812 18.898438 C 3.300781 18.898438 3.332031 17.976562 3.539062 17.894531 C 3.640625 17.859375 3.800781 17.566406 3.90625 17.25 C 4.160156 16.460938 4.460938 16.28125 5.546875 16.28125 C 6.382812 16.28125 6.472656 16.25 6.785156 15.871094 C 7.359375 15.171875 7.484375 14.570312 7.210938 13.820312 C 7.078125 13.46875 6.890625 13.078125 6.789062 12.960938 C 6.554688 12.683594 6.554688 12.296875 6.789062 12.015625 C 6.890625 11.898438 7.078125 11.523438 7.203125 11.179688 C 7.335938 10.839844 7.511719 10.515625 7.597656 10.460938 C 7.683594 10.402344 8.25 10.355469 8.851562 10.355469 C 10.167969 10.351562 10.34375 10.46875 10.796875 11.640625 C 11.132812 12.515625 11.109375 12.699219 10.515625 13.976562 L 10.273438 14.5 L 10.703125 15.359375 L 11.132812 16.210938 L 12.007812 16.25 C 13.242188 16.296875 13.445312 16.367188 13.621094 16.796875 C 13.703125 17.007812 13.890625 17.394531 14.03125 17.660156 C 14.378906 18.308594 14.367188 18.632812 13.964844 19.234375 C 13.78125 19.511719 13.628906 19.796875 13.628906 19.859375 C 13.628906 19.929688 13.53125 20.078125 13.414062 20.203125 C 13.113281 20.507812 11.039062 20.507812 10.734375 20.203125 C 10.617188 20.082031 10.523438 19.929688 10.523438 19.863281 C 10.523438 19.796875 10.335938 19.460938 10.109375 19.113281 C 9.695312 18.492188 9.6875 18.484375 8.914062 18.484375 C 8.03125 18.484375 7.726562 18.710938 7.339844 19.660156 C 7.21875 19.960938 7.046875 20.257812 6.960938 20.3125 C 6.734375 20.460938 4.683594 20.429688 4.414062 20.273438 Z M 13.929688 14.382812 C 13.78125 14.25 13.523438 13.78125 13.351562 13.335938 C 13.015625 12.460938 13.039062 12.28125 13.632812 11 L 13.878906 10.476562 L 13.449219 9.625 L 13.019531 8.765625 L 12.140625 8.734375 C 10.90625 8.679688 10.703125 8.613281 10.53125 8.179688 C 10.445312 7.972656 10.257812 7.585938 10.117188 7.320312 C 9.78125 6.6875 9.785156 6.386719 10.140625 5.804688 C 10.304688 5.539062 10.53125 5.132812 10.648438 4.90625 C 10.859375 4.492188 10.859375 4.492188 12.074219 4.492188 C 13.289062 4.492188 13.289062 4.492188 13.496094 4.90625 C 13.609375 5.132812 13.871094 5.585938 14.070312 5.90625 L 14.441406 6.492188 L 15.417969 6.492188 C 15.953125 6.496094 16.464844 6.542969 16.550781 6.597656 C 16.640625 6.65625 16.8125 6.976562 16.9375 7.320312 C 17.289062 8.25 17.546875 8.421875 18.609375 8.421875 C 19.707031 8.421875 20.015625 8.613281 20.257812 9.453125 C 20.355469 9.796875 20.484375 10.078125 20.542969 10.078125 C 20.601562 10.078125 20.648438 10.292969 20.648438 10.558594 C 20.648438 10.824219 20.59375 11.039062 20.53125 11.039062 C 20.464844 11.039062 20.375 11.21875 20.335938 11.4375 C 20.292969 11.652344 20.097656 12.023438 19.898438 12.265625 C 19.566406 12.671875 19.492188 12.695312 18.625 12.695312 C 17.546875 12.695312 17.289062 12.867188 16.9375 13.796875 C 16.8125 14.140625 16.640625 14.464844 16.550781 14.523438 C 16.464844 14.578125 15.898438 14.625 15.296875 14.625 C 14.4375 14.625 14.140625 14.574219 13.929688 14.382812 Z M 13.929688 14.382812 "/>
<path style=" stroke:none;fill-rule:nonzero;fill:rgb(40.784314%,40.392157%,40%);fill-opacity:1;" d="M 4.414062 20.269531 C 4.289062 20.195312 4.0625 19.855469 3.917969 19.515625 C 3.769531 19.179688 3.585938 18.898438 3.507812 18.898438 C 3.300781 18.898438 3.332031 17.976562 3.539062 17.894531 C 3.640625 17.859375 3.800781 17.566406 3.90625 17.25 C 4.160156 16.460938 4.460938 16.28125 5.546875 16.28125 C 6.382812 16.28125 6.472656 16.25 6.785156 15.871094 C 7.359375 15.171875 7.484375 14.570312 7.210938 13.820312 C 7.078125 13.46875 6.890625 13.078125 6.789062 12.960938 C 6.554688 12.683594 6.554688 12.296875 6.789062 12.015625 C 6.890625 11.898438 7.078125 11.523438 7.203125 11.179688 C 7.335938 10.839844 7.511719 10.515625 7.597656 10.460938 C 7.683594 10.402344 8.25 10.355469 8.851562 10.355469 C 10.167969 10.351562 10.34375 10.46875 10.796875 11.640625 C 11.132812 12.515625 11.109375 12.699219 10.515625 13.976562 L 10.273438 14.5 L 10.703125 15.359375 L 11.132812 16.210938 L 12.007812 16.25 C 13.242188 16.296875 13.445312 16.367188 13.621094 16.796875 C 13.703125 17.007812 13.890625 17.394531 14.03125 17.660156 C 14.378906 18.308594 14.367188 18.632812 13.964844 19.234375 C 13.78125 19.511719 13.628906 19.796875 13.628906 19.859375 C 13.628906 19.929688 13.53125 20.078125 13.414062 20.203125 C 13.113281 20.507812 11.039062 20.507812 10.734375 20.203125 C 10.617188 20.082031 10.523438 19.929688 10.523438 19.863281 C 10.523438 19.796875 10.335938 19.460938 10.109375 19.113281 C 9.695312 18.492188 9.6875 18.484375 8.914062 18.484375 C 8.03125 18.484375 7.726562 18.710938 7.339844 19.660156 C 7.21875 19.960938 7.046875 20.257812 6.960938 20.3125 C 6.734375 20.460938 4.683594 20.429688 4.414062 20.273438 Z M 6.625 19.761719 C 7.359375 18.851562 7.359375 17.84375 6.625 16.9375 C 6.480469 16.757812 6.226562 16.695312 5.664062 16.695312 C 4.898438 16.695312 4.578125 16.851562 4.578125 17.226562 C 4.578125 17.339844 4.476562 17.546875 4.355469 17.6875 C 4.230469 17.824219 4.128906 18.125 4.128906 18.351562 C 4.128906 18.574219 4.230469 18.875 4.355469 19.011719 C 4.476562 19.152344 4.578125 19.359375 4.578125 19.46875 C 4.578125 19.84375 4.898438 20.003906 5.664062 20.003906 C 6.226562 20.003906 6.480469 19.9375 6.625 19.761719 Z M 13.09375 19.726562 C 13.695312 18.476562 13.695312 18.214844 13.089844 16.96875 C 12.945312 16.671875 11.203125 16.671875 11.058594 16.96875 C 10.683594 17.742188 10.605469 18.003906 10.617188 18.4375 C 10.625 18.710938 10.695312 18.996094 10.78125 19.078125 C 10.859375 19.164062 10.925781 19.328125 10.925781 19.453125 C 10.925781 19.882812 11.234375 20.015625 12.125 19.976562 C 12.730469 19.945312 13.023438 19.871094 13.09375 19.726562 Z M 9.867188 17.765625 C 9.929688 17.632812 10.042969 17.414062 10.117188 17.28125 C 10.550781 16.507812 10.546875 16.320312 10.09375 15.523438 C 10.007812 15.371094 9.898438 15.15625 9.84375 15.039062 C 9.726562 14.773438 8.289062 14.675781 8.007812 14.914062 C 7.71875 15.164062 7.371094 15.984375 7.371094 16.433594 C 7.371094 16.851562 7.601562 17.417969 7.945312 17.835938 C 8.21875 18.179688 9.695312 18.125 9.867188 17.761719 Z M 9.734375 13.984375 C 9.871094 13.859375 9.984375 13.667969 9.984375 13.558594 C 9.984375 13.449219 10.101562 13.203125 10.25 13.007812 C 10.589844 12.570312 10.589844 12.40625 10.25 11.96875 C 10.101562 11.777344 9.984375 11.539062 9.984375 11.445312 C 9.984375 10.757812 8.523438 10.484375 8 11.078125 C 7.746094 11.367188 7.28125 12.28125 7.28125 12.492188 C 7.28125 12.699219 7.746094 13.609375 8 13.902344 C 8.339844 14.289062 9.351562 14.335938 9.734375 13.984375 Z M 13.929688 14.382812 C 13.78125 14.25 13.523438 13.78125 13.351562 13.335938 C 13.015625 12.460938 13.039062 12.28125 13.632812 11 L 13.878906 10.476562 L 13.449219 9.625 L 13.019531 8.765625 L 12.140625 8.734375 C 10.90625 8.679688 10.703125 8.613281 10.53125 8.179688 C 10.445312 7.972656 10.257812 7.585938 10.117188 7.320312 C 9.78125 6.6875 9.785156 6.386719 10.140625 5.804688 C 10.304688 5.539062 10.53125 5.132812 10.648438 4.90625 C 10.859375 4.492188 10.859375 4.492188 12.074219 4.492188 C 13.289062 4.492188 13.289062 4.492188 13.496094 4.90625 C 13.609375 5.132812 13.867188 5.585938 14.070312 5.90625 L 14.4375 6.492188 L 15.417969 6.492188 C 15.953125 6.496094 16.464844 6.542969 16.550781 6.597656 C 16.636719 6.65625 16.8125 6.976562 16.9375 7.320312 C 17.289062 8.25 17.546875 8.421875 18.609375 8.421875 C 19.707031 8.421875 20.015625 8.613281 20.257812 9.453125 C 20.355469 9.796875 20.484375 10.078125 20.542969 10.078125 C 20.601562 10.078125 20.648438 10.292969 20.648438 10.558594 C 20.648438 10.824219 20.59375 11.039062 20.53125 11.039062 C 20.464844 11.039062 20.375 11.21875 20.335938 11.4375 C 20.292969 11.652344 20.097656 12.023438 19.898438 12.265625 C 19.5625 12.671875 19.492188 12.695312 18.625 12.695312 C 17.546875 12.695312 17.289062 12.867188 16.9375 13.796875 C 16.8125 14.140625 16.636719 14.464844 16.550781 14.523438 C 16.464844 14.578125 15.898438 14.625 15.296875 14.625 C 14.4375 14.625 14.140625 14.574219 13.929688 14.382812 Z M 13.929688 14.382812 "/>
<path style=" stroke:none;fill-rule:nonzero;fill:rgb(64.705882%,41.568627%,0%);fill-opacity:1;" d="M 4.480469 20.1875 C 4.390625 20.148438 4.195312 19.84375 4.046875 19.507812 C 3.898438 19.164062 3.695312 18.898438 3.578125 18.898438 C 3.257812 18.898438 3.289062 17.988281 3.609375 17.902344 C 3.746094 17.867188 3.929688 17.589844 4.039062 17.257812 C 4.273438 16.53125 4.480469 16.417969 5.570312 16.417969 C 6.394531 16.417969 6.464844 16.390625 6.847656 15.945312 C 7.484375 15.203125 7.628906 14.597656 7.34375 13.820312 C 7.214844 13.46875 7.023438 13.078125 6.925781 12.960938 C 6.691406 12.6875 6.6875 12.296875 6.921875 12.015625 C 7.019531 11.898438 7.179688 11.582031 7.28125 11.316406 C 7.382812 11.050781 7.519531 10.757812 7.589844 10.664062 C 7.765625 10.429688 9.855469 10.429688 10.140625 10.664062 C 10.25 10.757812 10.484375 11.195312 10.65625 11.640625 C 10.996094 12.515625 10.976562 12.695312 10.382812 13.96875 C 10.140625 14.484375 10.140625 14.492188 10.515625 15.285156 C 10.726562 15.726562 10.984375 16.15625 11.085938 16.242188 C 11.191406 16.332031 11.726562 16.421875 12.273438 16.445312 C 13.359375 16.492188 13.398438 16.523438 13.960938 17.78125 C 14.234375 18.398438 14.222656 18.601562 13.867188 19.175781 C 13.703125 19.441406 13.507812 19.78125 13.425781 19.933594 C 13.296875 20.179688 13.144531 20.210938 12.085938 20.210938 C 11.039062 20.210938 10.867188 20.175781 10.738281 19.9375 C 10.65625 19.792969 10.402344 19.390625 10.171875 19.046875 C 9.769531 18.433594 9.738281 18.414062 8.976562 18.375 C 8.054688 18.328125 7.710938 18.566406 7.230469 19.589844 L 6.9375 20.210938 L 5.796875 20.234375 C 5.164062 20.25 4.570312 20.230469 4.480469 20.1875 Z M 6.625 19.761719 C 7.359375 18.851562 7.359375 17.84375 6.625 16.9375 C 6.480469 16.757812 6.226562 16.695312 5.664062 16.695312 C 4.898438 16.695312 4.578125 16.851562 4.578125 17.226562 C 4.578125 17.339844 4.476562 17.546875 4.355469 17.683594 C 4.230469 17.824219 4.128906 18.125 4.128906 18.347656 C 4.128906 18.574219 4.230469 18.875 4.355469 19.011719 C 4.476562 19.152344 4.578125 19.359375 4.578125 19.46875 C 4.578125 19.84375 4.898438 20 5.664062 20 C 6.226562 20 6.480469 19.9375 6.625 19.761719 Z M 13.09375 19.726562 C 13.695312 18.476562 13.695312 18.214844 13.09375 16.96875 C 12.945312 16.671875 11.203125 16.671875 11.058594 16.96875 C 10.6875 17.742188 10.605469 18.003906 10.617188 18.4375 C 10.625 18.710938 10.695312 18.996094 10.78125 19.078125 C 10.859375 19.164062 10.929688 19.328125 10.929688 19.453125 C 10.929688 19.882812 11.234375 20.015625 12.125 19.976562 C 12.734375 19.945312 13.023438 19.871094 13.09375 19.726562 Z M 9.867188 17.761719 C 9.929688 17.628906 10.042969 17.414062 10.117188 17.28125 C 10.550781 16.507812 10.546875 16.320312 10.09375 15.523438 C 10.007812 15.371094 9.898438 15.15625 9.84375 15.039062 C 9.726562 14.773438 8.289062 14.675781 8.007812 14.914062 C 7.71875 15.164062 7.371094 15.984375 7.371094 16.433594 C 7.371094 16.851562 7.601562 17.417969 7.945312 17.835938 C 8.222656 18.179688 9.695312 18.125 9.867188 17.761719 Z M 9.734375 13.984375 C 9.871094 13.859375 9.984375 13.664062 9.984375 13.558594 C 9.984375 13.449219 10.101562 13.203125 10.25 13.007812 C 10.589844 12.570312 10.589844 12.40625 10.25 11.96875 C 10.101562 11.773438 9.984375 11.539062 9.984375 11.445312 C 9.984375 10.753906 8.523438 10.484375 8 11.078125 C 7.746094 11.367188 7.28125 12.28125 7.28125 12.488281 C 7.28125 12.699219 7.746094 13.609375 8 13.902344 C 8.339844 14.289062 9.351562 14.335938 9.734375 13.984375 Z M 14.011719 14.316406 C 13.898438 14.21875 13.664062 13.78125 13.492188 13.335938 C 13.15625 12.460938 13.175781 12.28125 13.765625 11.007812 C 14.007812 10.492188 14.007812 10.484375 13.632812 9.691406 C 13.421875 9.253906 13.167969 8.820312 13.0625 8.734375 C 12.960938 8.644531 12.421875 8.554688 11.875 8.53125 C 10.789062 8.484375 10.75 8.457031 10.1875 7.199219 C 9.910156 6.574219 9.929688 6.335938 10.289062 5.789062 C 10.453125 5.53125 10.664062 5.148438 10.757812 4.941406 C 10.917969 4.570312 10.945312 4.5625 12.078125 4.5625 L 13.234375 4.5625 L 13.429688 5.007812 C 13.539062 5.257812 13.796875 5.703125 14.003906 6.007812 C 14.382812 6.558594 14.382812 6.5625 15.382812 6.601562 C 15.933594 6.625 16.453125 6.703125 16.539062 6.773438 C 16.621094 6.84375 16.773438 7.15625 16.871094 7.464844 C 17.140625 8.304688 17.542969 8.558594 18.585938 8.558594 C 19.667969 8.558594 19.878906 8.671875 20.109375 9.390625 C 20.210938 9.707031 20.375 10 20.472656 10.035156 C 20.675781 10.117188 20.71875 11.039062 20.515625 11.039062 C 20.445312 11.039062 20.289062 11.273438 20.171875 11.554688 C 19.808594 12.441406 19.632812 12.554688 18.621094 12.554688 C 17.554688 12.554688 17.167969 12.789062 16.882812 13.609375 C 16.589844 14.453125 16.535156 14.484375 15.324219 14.484375 C 14.640625 14.484375 14.140625 14.421875 14.011719 14.3125 Z M 16.207031 13.96875 C 16.390625 13.761719 16.648438 13.347656 16.78125 13.050781 C 17.011719 12.53125 17.011719 12.484375 16.785156 11.945312 C 16.375 10.976562 15.96875 10.625 15.234375 10.625 C 14.703125 10.625 14.546875 10.6875 14.3125 10.992188 C 14.15625 11.191406 14.03125 11.410156 14.03125 11.476562 C 14.03125 11.546875 13.898438 11.789062 13.742188 12.007812 C 13.492188 12.351562 13.46875 12.460938 13.609375 12.726562 C 13.703125 12.898438 13.871094 13.226562 13.992188 13.453125 C 14.382812 14.210938 14.574219 14.351562 15.242188 14.351562 C 15.757812 14.351562 15.933594 14.28125 16.207031 13.96875 Z M 19.292969 12.148438 C 19.429688 12.070312 19.609375 11.839844 19.695312 11.632812 C 19.777344 11.421875 19.9375 11.09375 20.042969 10.90625 C 20.28125 10.484375 20.207031 10.214844 19.640625 9.394531 C 19.242188 8.8125 19.160156 8.765625 18.5625 8.726562 C 17.796875 8.671875 17.386719 8.976562 16.984375 9.894531 C 16.742188 10.4375 16.742188 10.507812 16.949219 11.066406 C 17.273438 11.933594 17.695312 12.28125 18.4375 12.28125 C 18.773438 12.28125 19.15625 12.21875 19.292969 12.148438 Z M 16.234375 10.039062 C 16.417969 9.871094 16.664062 9.46875 16.78125 9.148438 C 16.984375 8.609375 16.984375 8.515625 16.78125 7.976562 C 16.460938 7.101562 16.039062 6.765625 15.273438 6.769531 C 14.515625 6.773438 14.328125 6.878906 14.015625 7.480469 C 13.53125 8.417969 13.492188 8.546875 13.640625 8.867188 C 13.972656 9.613281 14.265625 10.105469 14.445312 10.21875 C 14.554688 10.289062 14.925781 10.347656 15.273438 10.351562 C 15.746094 10.351562 15.992188 10.273438 16.234375 10.039062 Z M 12.984375 8.25 C 13.109375 8.15625 13.332031 7.75 13.484375 7.351562 L 13.757812 6.628906 L 13.484375 5.90625 C 13.132812 4.992188 12.929688 4.835938 12.074219 4.835938 C 11.21875 4.835938 11.015625 4.992188 10.664062 5.90625 L 10.390625 6.628906 L 10.664062 7.351562 C 11.015625 8.265625 11.21875 8.421875 12.074219 8.421875 C 12.453125 8.421875 12.867188 8.34375 12.984375 8.25 Z M 12.984375 8.25 "/>
<path style=" stroke:none;fill-rule:nonzero;fill:rgb(41.568627%,28.627451%,5.882353%);fill-opacity:1;" d="M 4.480469 20.1875 C 4.390625 20.148438 4.195312 19.84375 4.046875 19.507812 C 3.898438 19.164062 3.695312 18.898438 3.578125 18.898438 C 3.257812 18.898438 3.289062 17.988281 3.609375 17.902344 C 3.746094 17.867188 3.929688 17.589844 4.039062 17.257812 C 4.273438 16.53125 4.480469 16.417969 5.570312 16.417969 C 6.394531 16.417969 6.464844 16.390625 6.847656 15.945312 C 7.484375 15.203125 7.628906 14.597656 7.34375 13.820312 C 7.214844 13.46875 7.023438 13.078125 6.925781 12.960938 C 6.691406 12.6875 6.6875 12.296875 6.921875 12.015625 C 7.019531 11.898438 7.179688 11.582031 7.28125 11.316406 C 7.382812 11.050781 7.519531 10.757812 7.589844 10.664062 C 7.765625 10.429688 9.855469 10.429688 10.140625 10.664062 C 10.25 10.757812 10.484375 11.195312 10.65625 11.640625 C 10.996094 12.515625 10.976562 12.695312 10.382812 13.96875 C 10.140625 14.484375 10.140625 14.492188 10.515625 15.285156 C 10.726562 15.726562 10.984375 16.15625 11.085938 16.242188 C 11.191406 16.332031 11.726562 16.421875 12.273438 16.445312 C 13.359375 16.492188 13.398438 16.523438 13.960938 17.78125 C 14.234375 18.398438 14.222656 18.601562 13.867188 19.175781 C 13.703125 19.441406 13.507812 19.78125 13.425781 19.933594 C 13.296875 20.179688 13.144531 20.210938 12.085938 20.210938 C 11.039062 20.210938 10.867188 20.175781 10.738281 19.9375 C 10.65625 19.792969 10.402344 19.390625 10.171875 19.046875 C 9.769531 18.433594 9.738281 18.414062 8.976562 18.375 C 8.054688 18.328125 7.710938 18.566406 7.230469 19.589844 L 6.9375 20.210938 L 5.796875 20.234375 C 5.164062 20.25 4.570312 20.230469 4.480469 20.1875 Z M 6.710938 19.898438 C 6.859375 19.765625 7.085938 19.363281 7.21875 19.003906 C 7.441406 18.382812 7.441406 18.316406 7.21875 17.695312 C 6.882812 16.765625 6.601562 16.554688 5.664062 16.554688 C 4.769531 16.554688 4.5625 16.726562 4.039062 17.921875 C 3.867188 18.316406 3.976562 18.949219 4.25 19.183594 C 4.359375 19.273438 4.445312 19.414062 4.445312 19.492188 C 4.445312 19.570312 4.546875 19.75 4.671875 19.890625 C 4.976562 20.234375 6.328125 20.242188 6.710938 19.898438 Z M 13.109375 19.898438 C 13.222656 19.765625 13.394531 19.441406 13.492188 19.175781 C 13.59375 18.910156 13.730469 18.617188 13.804688 18.523438 C 13.882812 18.414062 13.882812 18.285156 13.804688 18.175781 C 13.730469 18.082031 13.59375 17.789062 13.492188 17.523438 C 13.179688 16.679688 13 16.554688 12.074219 16.554688 C 11.148438 16.554688 10.96875 16.679688 10.65625 17.523438 C 10.558594 17.789062 10.421875 18.082031 10.347656 18.175781 C 10.265625 18.285156 10.265625 18.414062 10.347656 18.523438 C 10.421875 18.617188 10.558594 18.910156 10.65625 19.175781 C 10.96875 20.019531 11.148438 20.140625 12.074219 20.140625 C 12.703125 20.140625 12.960938 20.082031 13.109375 19.898438 Z M 9.867188 17.984375 C 10.007812 17.859375 10.117188 17.679688 10.117188 17.585938 C 10.117188 17.492188 10.203125 17.34375 10.3125 17.25 C 10.585938 17.019531 10.695312 16.382812 10.523438 15.992188 C 10 14.796875 9.792969 14.625 8.898438 14.625 C 7.960938 14.625 7.679688 14.835938 7.34375 15.765625 C 7.121094 16.386719 7.121094 16.453125 7.34375 17.070312 C 7.476562 17.433594 7.703125 17.835938 7.851562 17.96875 C 8.21875 18.296875 9.523438 18.304688 9.871094 17.984375 Z M 9.992188 13.867188 C 10.105469 13.640625 10.328125 13.242188 10.488281 12.984375 C 10.75 12.554688 10.757812 12.480469 10.578125 12.15625 C 10.46875 11.960938 10.242188 11.550781 10.078125 11.25 C 9.785156 10.710938 9.757812 10.695312 8.960938 10.65625 C 8.019531 10.609375 7.851562 10.734375 7.355469 11.828125 L 7.054688 12.488281 L 7.351562 13.148438 C 7.847656 14.242188 8.019531 14.367188 8.960938 14.320312 C 9.71875 14.285156 9.796875 14.25 9.992188 13.867188 Z M 14.011719 14.316406 C 13.898438 14.21875 13.664062 13.78125 13.492188 13.335938 C 13.15625 12.460938 13.175781 12.28125 13.765625 11.007812 C 14.007812 10.492188 14.007812 10.484375 13.632812 9.691406 C 13.421875 9.253906 13.167969 8.820312 13.0625 8.734375 C 12.960938 8.644531 12.425781 8.554688 11.875 8.53125 C 10.789062 8.484375 10.75 8.457031 10.1875 7.199219 C 9.914062 6.574219 9.929688 6.335938 10.289062 5.789062 C 10.453125 5.53125 10.664062 5.148438 10.757812 4.941406 C 10.917969 4.570312 10.945312 4.5625 12.078125 4.5625 L 13.234375 4.5625 L 13.429688 5.007812 C 13.539062 5.257812 13.796875 5.703125 14.003906 6.007812 C 14.382812 6.558594 14.382812 6.5625 15.382812 6.601562 C 15.933594 6.625 16.453125 6.703125 16.539062 6.773438 C 16.621094 6.84375 16.773438 7.15625 16.871094 7.464844 C 17.140625 8.304688 17.542969 8.558594 18.585938 8.558594 C 19.667969 8.558594 19.878906 8.671875 20.109375 9.390625 C 20.210938 9.707031 20.375 10 20.472656 10.035156 C 20.679688 10.117188 20.71875 11.039062 20.515625 11.039062 C 20.445312 11.039062 20.289062 11.273438 20.171875 11.554688 C 19.8125 12.441406 19.632812 12.554688 18.621094 12.554688 C 17.554688 12.554688 17.167969 12.789062 16.882812 13.609375 C 16.589844 14.453125 16.535156 14.484375 15.324219 14.484375 C 14.640625 14.484375 14.140625 14.421875 14.011719 14.3125 Z M 16.207031 13.96875 C 16.390625 13.761719 16.648438 13.347656 16.78125 13.050781 C 17.011719 12.53125 17.011719 12.484375 16.785156 11.945312 C 16.375 10.976562 15.96875 10.625 15.234375 10.625 C 14.703125 10.625 14.546875 10.6875 14.3125 10.992188 C 14.15625 11.191406 14.03125 11.410156 14.03125 11.476562 C 14.03125 11.546875 13.898438 11.789062 13.742188 12.007812 C 13.492188 12.351562 13.46875 12.460938 13.609375 12.726562 C 13.703125 12.898438 13.875 13.226562 13.992188 13.453125 C 14.382812 14.210938 14.574219 14.351562 15.242188 14.351562 C 15.757812 14.351562 15.933594 14.28125 16.207031 13.96875 Z M 19.292969 12.148438 C 19.429688 12.070312 19.609375 11.839844 19.695312 11.632812 C 19.78125 11.421875 19.9375 11.09375 20.042969 10.90625 C 20.28125 10.484375 20.207031 10.214844 19.640625 9.394531 C 19.242188 8.8125 19.160156 8.765625 18.5625 8.726562 C 17.796875 8.671875 17.390625 8.976562 16.984375 9.894531 C 16.742188 10.4375 16.742188 10.507812 16.949219 11.066406 C 17.273438 11.933594 17.699219 12.28125 18.4375 12.28125 C 18.773438 12.28125 19.15625 12.21875 19.292969 12.148438 Z M 16.238281 10.039062 C 16.417969 9.871094 16.664062 9.46875 16.78125 9.148438 C 16.984375 8.609375 16.984375 8.515625 16.78125 7.976562 C 16.460938 7.101562 16.039062 6.765625 15.273438 6.769531 C 14.515625 6.773438 14.328125 6.878906 14.015625 7.480469 C 13.53125 8.417969 13.492188 8.546875 13.640625 8.867188 C 13.972656 9.613281 14.265625 10.105469 14.445312 10.21875 C 14.554688 10.289062 14.925781 10.347656 15.273438 10.351562 C 15.746094 10.351562 15.992188 10.273438 16.238281 10.039062 Z M 12.984375 8.25 C 13.109375 8.15625 13.332031 7.75 13.484375 7.351562 L 13.757812 6.628906 L 13.484375 5.90625 C 13.136719 4.992188 12.929688 4.835938 12.074219 4.835938 C 11.21875 4.835938 11.015625 4.992188 10.664062 5.90625 L 10.390625 6.628906 L 10.664062 7.351562 C 11.015625 8.265625 11.21875 8.421875 12.074219 8.421875 C 12.453125 8.421875 12.867188 8.34375 12.984375 8.25 Z M 12.984375 8.25 "/>
<path style=" stroke:none;fill-rule:nonzero;fill:rgb(30.588235%,21.568627%,5.098039%);fill-opacity:1;" d="M 4.480469 20.1875 C 4.390625 20.148438 4.195312 19.84375 4.046875 19.507812 C 3.898438 19.164062 3.695312 18.898438 3.578125 18.898438 C 3.425781 18.898438 3.367188 18.761719 3.367188 18.417969 C 3.367188 18.046875 3.421875 17.933594 3.609375 17.933594 C 3.796875 17.933594 3.855469 18.050781 3.867188 18.429688 C 3.875 18.726562 3.992188 19.046875 4.164062 19.230469 C 4.320312 19.398438 4.445312 19.59375 4.445312 19.65625 C 4.445312 19.71875 4.546875 19.886719 4.671875 20.023438 C 4.886719 20.273438 4.820312 20.328125 4.480469 20.1875 Z M 6.738281 20.007812 C 6.921875 19.867188 7.101562 19.773438 7.128906 19.804688 C 7.234375 19.910156 6.84375 20.28125 6.625 20.273438 C 6.460938 20.273438 6.488281 20.203125 6.738281 20.007812 Z M 10.789062 20.070312 C 10.53125 19.75 10.714844 19.6875 10.992188 20 C 11.128906 20.15625 11.175781 20.28125 11.101562 20.28125 C 11.023438 20.28125 10.882812 20.183594 10.789062 20.070312 Z M 13.15625 20 C 13.289062 19.851562 13.429688 19.757812 13.46875 19.789062 C 13.554688 19.882812 13.21875 20.28125 13.050781 20.28125 C 12.972656 20.28125 13.023438 20.15625 13.15625 20 Z M 7.148438 19.363281 C 7.148438 19.289062 7.214844 19.160156 7.296875 19.074219 C 7.382812 18.988281 7.453125 18.671875 7.453125 18.367188 C 7.453125 17.820312 7.453125 17.816406 7.773438 18.03125 C 7.945312 18.148438 8.085938 18.28125 8.085938 18.328125 C 8.078125 18.480469 7.148438 19.503906 7.148438 19.363281 Z M 10.070312 18.882812 C 9.738281 18.367188 9.722656 18.289062 9.910156 18.078125 C 10.023438 17.949219 10.117188 17.78125 10.117188 17.703125 C 10.117188 17.625 10.238281 17.453125 10.386719 17.3125 C 10.71875 17.007812 10.742188 17.226562 10.4375 17.878906 C 10.238281 18.3125 10.238281 18.382812 10.4375 18.816406 C 10.6875 19.351562 10.703125 19.453125 10.546875 19.453125 C 10.484375 19.453125 10.269531 19.195312 10.070312 18.882812 Z M 13.492188 19.367188 C 13.492188 19.324219 13.589844 19.074219 13.710938 18.816406 C 13.914062 18.382812 13.914062 18.3125 13.699219 17.855469 C 13.476562 17.375 13.488281 17.140625 13.730469 17.292969 C 13.796875 17.335938 13.929688 17.625 14.03125 17.929688 C 14.191406 18.421875 14.1875 18.554688 13.992188 18.972656 C 13.796875 19.382812 13.492188 19.625 13.492188 19.367188 Z M 3.90625 17.628906 C 3.90625 17.359375 4.339844 16.574219 4.527344 16.5 C 4.835938 16.378906 4.902344 16.476562 4.648438 16.691406 C 4.539062 16.789062 4.445312 16.941406 4.445312 17.03125 C 4.445312 17.125 4.324219 17.3125 4.175781 17.453125 C 4.027344 17.589844 3.90625 17.667969 3.90625 17.628906 Z M 7.242188 17.578125 C 7.191406 17.519531 7.148438 17.382812 7.148438 17.265625 C 7.148438 17.109375 7.1875 17.09375 7.296875 17.203125 C 7.378906 17.289062 7.421875 17.429688 7.394531 17.515625 C 7.367188 17.605469 7.296875 17.632812 7.242188 17.578125 Z M 6.753906 16.707031 L 6.429688 16.453125 L 6.886719 15.894531 C 7.140625 15.585938 7.371094 15.359375 7.398438 15.390625 C 7.429688 15.421875 7.375 15.539062 7.28125 15.65625 C 7.1875 15.773438 7.109375 16.117188 7.109375 16.421875 C 7.109375 16.722656 7.101562 16.96875 7.09375 16.96875 C 7.085938 16.964844 6.929688 16.847656 6.753906 16.707031 Z M 10.695312 16.421875 C 10.695312 16.03125 10.601562 15.757812 10.40625 15.539062 C 10.246094 15.367188 10.117188 15.175781 10.117188 15.109375 C 10.117188 15.046875 10.023438 14.890625 9.914062 14.765625 C 9.734375 14.5625 9.742188 14.480469 9.976562 14.015625 C 10.121094 13.726562 10.324219 13.390625 10.429688 13.265625 C 10.53125 13.140625 10.65625 12.921875 10.707031 12.78125 C 10.757812 12.632812 10.828125 12.546875 10.867188 12.585938 C 10.929688 12.65625 10.519531 13.765625 10.257812 14.234375 C 10.121094 14.476562 10.605469 15.6875 11.03125 16.179688 C 11.230469 16.40625 11.226562 16.449219 10.96875 16.710938 L 10.695312 16.992188 Z M 13.15625 16.695312 C 13.019531 16.542969 12.972656 16.417969 13.046875 16.417969 C 13.21875 16.417969 13.554688 16.8125 13.464844 16.90625 C 13.429688 16.941406 13.289062 16.84375 13.15625 16.695312 Z M 7.484375 14.761719 C 7.585938 14.441406 7.242188 13.335938 6.925781 12.960938 C 6.691406 12.683594 6.6875 12.296875 6.921875 12.015625 C 7.019531 11.898438 7.179688 11.582031 7.28125 11.316406 C 7.515625 10.6875 7.671875 10.488281 7.929688 10.488281 C 8.085938 10.488281 8.046875 10.589844 7.78125 10.875 C 7.578125 11.085938 7.414062 11.328125 7.414062 11.414062 C 7.414062 11.492188 7.328125 11.738281 7.214844 11.953125 C 6.960938 12.445312 6.960938 12.53125 7.214844 13.023438 C 7.328125 13.238281 7.414062 13.492188 7.414062 13.582031 C 7.414062 13.671875 7.570312 13.898438 7.753906 14.074219 C 8.175781 14.476562 8.171875 14.539062 7.742188 14.828125 C 7.398438 15.054688 7.390625 15.054688 7.484375 14.761719 Z M 14.011719 14.316406 C 13.898438 14.21875 13.664062 13.78125 13.492188 13.335938 C 13.15625 12.460938 13.175781 12.28125 13.765625 11.007812 C 14.007812 10.492188 14.007812 10.484375 13.632812 9.691406 C 13.421875 9.253906 13.167969 8.820312 13.0625 8.734375 C 12.960938 8.644531 12.425781 8.554688 11.875 8.53125 C 10.789062 8.484375 10.75 8.453125 10.1875 7.199219 C 9.910156 6.574219 9.929688 6.335938 10.289062 5.789062 C 10.453125 5.53125 10.664062 5.148438 10.757812 4.9375 C 10.917969 4.570312 10.945312 4.5625 12.078125 4.5625 L 13.234375 4.5625 L 13.429688 5.007812 C 13.539062 5.257812 13.796875 5.703125 14.003906 6.007812 C 14.382812 6.558594 14.382812 6.5625 15.382812 6.601562 C 15.933594 6.625 16.453125 6.703125 16.539062 6.773438 C 16.621094 6.84375 16.773438 7.15625 16.871094 7.464844 C 17.140625 8.304688 17.542969 8.558594 18.585938 8.558594 C 19.667969 8.558594 19.878906 8.671875 20.109375 9.390625 C 20.210938 9.707031 20.375 10 20.472656 10.035156 C 20.675781 10.117188 20.71875 11.039062 20.515625 11.039062 C 20.445312 11.039062 20.289062 11.269531 20.171875 11.554688 C 19.808594 12.441406 19.632812 12.554688 18.621094 12.554688 C 17.554688 12.554688 17.167969 12.789062 16.882812 13.609375 C 16.589844 14.453125 16.535156 14.484375 15.324219 14.484375 C 14.640625 14.484375 14.140625 14.421875 14.011719 14.3125 Z M 16.207031 13.96875 C 16.390625 13.761719 16.648438 13.347656 16.78125 13.046875 C 17.011719 12.53125 17.011719 12.484375 16.785156 11.945312 C 16.375 10.972656 15.96875 10.625 15.234375 10.625 C 14.703125 10.625 14.546875 10.6875 14.3125 10.992188 C 14.15625 11.191406 14.03125 11.410156 14.03125 11.476562 C 14.03125 11.546875 13.898438 11.785156 13.742188 12.007812 C 13.492188 12.351562 13.46875 12.460938 13.609375 12.726562 C 13.703125 12.898438 13.875 13.226562 13.992188 13.453125 C 14.382812 14.210938 14.574219 14.351562 15.242188 14.351562 C 15.757812 14.351562 15.933594 14.28125 16.207031 13.96875 Z M 19.292969 12.148438 C 19.429688 12.070312 19.609375 11.839844 19.695312 11.632812 C 19.78125 11.421875 19.9375 11.09375 20.042969 10.902344 C 20.28125 10.484375 20.207031 10.214844 19.640625 9.394531 C 19.242188 8.8125 19.160156 8.765625 18.5625 8.726562 C 17.796875 8.671875 17.386719 8.976562 16.984375 9.894531 C 16.742188 10.4375 16.742188 10.507812 16.949219 11.066406 C 17.273438 11.933594 17.699219 12.28125 18.4375 12.28125 C 18.773438 12.28125 19.15625 12.21875 19.292969 12.148438 Z M 16.234375 10.039062 C 16.417969 9.871094 16.664062 9.46875 16.78125 9.144531 C 16.984375 8.609375 16.984375 8.511719 16.78125 7.972656 C 16.460938 7.101562 16.039062 6.765625 15.273438 6.769531 C 14.515625 6.773438 14.328125 6.878906 14.015625 7.480469 C 13.53125 8.417969 13.492188 8.546875 13.640625 8.867188 C 13.972656 9.613281 14.265625 10.105469 14.445312 10.21875 C 14.554688 10.289062 14.925781 10.347656 15.273438 10.351562 C 15.746094 10.351562 15.992188 10.273438 16.234375 10.039062 Z M 12.984375 8.25 C 13.109375 8.15625 13.332031 7.75 13.484375 7.351562 L 13.757812 6.628906 L 13.484375 5.90625 C 13.136719 4.992188 12.929688 4.835938 12.074219 4.835938 C 11.21875 4.835938 11.015625 4.992188 10.664062 5.90625 L 10.390625 6.628906 L 10.664062 7.351562 C 11.015625 8.265625 11.21875 8.421875 12.074219 8.421875 C 12.453125 8.421875 12.867188 8.34375 12.984375 8.25 Z M 10.707031 12.199219 C 10.65625 12.054688 10.53125 11.835938 10.429688 11.710938 C 10.160156 11.390625 9.722656 10.492188 9.835938 10.492188 C 10.070312 10.492188 10.367188 10.890625 10.636719 11.578125 C 10.796875 11.992188 10.898438 12.355469 10.867188 12.390625 C 10.828125 12.429688 10.757812 12.34375 10.707031 12.199219 Z M 10.707031 12.199219 "/>
<path style=" stroke:none;fill-rule:nonzero;fill:rgb(16.078431%,15.294118%,13.333333%);fill-opacity:1;" d="M 6.671875 20.140625 C 6.71875 20.0625 6.820312 20 6.890625 20 C 6.96875 20 6.992188 20.0625 6.945312 20.140625 C 6.898438 20.21875 6.796875 20.28125 6.726562 20.28125 C 6.648438 20.28125 6.625 20.21875 6.671875 20.140625 Z M 4.175781 19.796875 C 4.097656 19.585938 4.0625 19.382812 4.101562 19.34375 C 4.140625 19.304688 4.234375 19.445312 4.3125 19.65625 C 4.390625 19.867188 4.421875 20.070312 4.386719 20.109375 C 4.351562 20.148438 4.253906 20.007812 4.175781 19.796875 Z M 10.132812 18.960938 C 9.78125 18.351562 9.765625 18.125 10.097656 18.46875 C 10.324219 18.695312 10.609375 19.453125 10.46875 19.453125 C 10.4375 19.453125 10.289062 19.230469 10.132812 18.960938 Z M 13.710938 19.070312 C 13.796875 18.71875 14.03125 18.4375 14.140625 18.546875 C 14.203125 18.609375 13.78125 19.453125 13.6875 19.453125 C 13.652344 19.453125 13.664062 19.28125 13.710938 19.070312 Z M 3.367188 18.414062 C 3.367188 18.078125 3.429688 17.933594 3.570312 17.933594 C 3.679688 17.933594 3.773438 18.054688 3.773438 18.199219 C 3.773438 18.34375 3.808594 18.5625 3.851562 18.679688 C 3.914062 18.835938 3.855469 18.898438 3.648438 18.898438 C 3.414062 18.898438 3.367188 18.816406 3.367188 18.414062 Z M 7.5 18.53125 C 7.617188 18.027344 7.65625 17.988281 7.855469 18.1875 C 8.035156 18.375 7.867188 18.765625 7.570312 18.871094 C 7.453125 18.910156 7.429688 18.8125 7.5 18.53125 Z M 10.214844 17.796875 C 10.253906 17.640625 10.335938 17.484375 10.390625 17.449219 C 10.453125 17.414062 10.46875 17.507812 10.429688 17.660156 C 10.390625 17.8125 10.308594 17.96875 10.25 18.007812 C 10.191406 18.042969 10.175781 17.945312 10.214844 17.796875 Z M 13.765625 17.726562 C 13.6875 17.515625 13.652344 17.3125 13.6875 17.273438 C 13.726562 17.238281 13.820312 17.378906 13.898438 17.589844 C 13.976562 17.800781 14.011719 18.003906 13.976562 18.039062 C 13.9375 18.078125 13.84375 17.9375 13.765625 17.726562 Z M 4.109375 17.109375 C 4.164062 16.917969 4.265625 16.703125 4.34375 16.625 C 4.429688 16.53125 4.445312 16.601562 4.378906 16.832031 C 4.328125 17.023438 4.21875 17.238281 4.148438 17.3125 C 4.054688 17.40625 4.046875 17.335938 4.109375 17.109375 Z M 6.652344 16.476562 C 6.578125 16.273438 6.9375 15.742188 7.0625 15.875 C 7.167969 15.980469 6.984375 16.695312 6.859375 16.695312 C 6.789062 16.695312 6.695312 16.59375 6.652344 16.476562 Z M 10.820312 16.265625 C 10.71875 16.109375 10.664062 15.953125 10.695312 15.917969 C 10.789062 15.820312 11.09375 16.257812 11.042969 16.414062 C 11.015625 16.492188 10.914062 16.429688 10.820312 16.265625 Z M 10.25 15.09375 C 10.167969 14.878906 10.03125 14.65625 9.953125 14.605469 C 9.847656 14.539062 9.871094 14.40625 10.027344 14.160156 C 10.152344 13.96875 10.253906 13.71875 10.253906 13.609375 C 10.253906 13.503906 10.34375 13.378906 10.453125 13.335938 C 10.71875 13.234375 10.710938 13.289062 10.398438 13.945312 C 10.164062 14.445312 10.15625 14.527344 10.34375 14.914062 C 10.460938 15.140625 10.515625 15.367188 10.476562 15.414062 C 10.429688 15.453125 10.328125 15.3125 10.25 15.09375 Z M 7.515625 14.390625 C 7.476562 14.179688 7.460938 13.984375 7.480469 13.964844 C 7.566406 13.875 7.96875 14.390625 7.921875 14.53125 C 7.820312 14.839844 7.585938 14.757812 7.515625 14.390625 Z M 14.015625 14.3125 C 13.898438 14.21875 13.664062 13.78125 13.492188 13.335938 C 13.15625 12.460938 13.179688 12.28125 13.769531 11.007812 C 14.007812 10.492188 14.007812 10.484375 13.632812 9.691406 C 13.421875 9.253906 13.171875 8.820312 13.0625 8.734375 C 12.960938 8.644531 12.425781 8.554688 11.878906 8.53125 C 10.789062 8.484375 10.75 8.453125 10.191406 7.199219 C 9.914062 6.574219 9.929688 6.335938 10.289062 5.789062 C 10.457031 5.53125 10.667969 5.148438 10.757812 4.9375 C 10.921875 4.570312 10.945312 4.5625 12.078125 4.5625 L 13.238281 4.5625 L 13.429688 5.007812 C 13.539062 5.257812 13.796875 5.703125 14.007812 6.007812 C 14.382812 6.558594 14.386719 6.5625 15.382812 6.601562 C 15.9375 6.625 16.453125 6.703125 16.539062 6.773438 C 16.621094 6.84375 16.773438 7.15625 16.875 7.460938 C 17.144531 8.304688 17.546875 8.558594 18.585938 8.558594 C 19.671875 8.558594 19.882812 8.671875 20.113281 9.390625 C 20.214844 9.707031 20.378906 10 20.476562 10.035156 C 20.679688 10.117188 20.71875 11.039062 20.515625 11.039062 C 20.445312 11.039062 20.289062 11.269531 20.175781 11.550781 C 19.8125 12.441406 19.632812 12.554688 18.625 12.554688 C 17.554688 12.554688 17.171875 12.789062 16.886719 13.609375 C 16.59375 14.453125 16.539062 14.484375 15.328125 14.484375 C 14.640625 14.484375 14.140625 14.421875 14.015625 14.3125 Z M 16.210938 13.96875 C 16.394531 13.761719 16.652344 13.347656 16.785156 13.046875 C 17.015625 12.53125 17.015625 12.484375 16.789062 11.945312 C 16.375 10.972656 15.96875 10.625 15.234375 10.625 C 14.703125 10.625 14.546875 10.6875 14.3125 10.992188 C 14.160156 11.191406 14.035156 11.410156 14.035156 11.476562 C 14.035156 11.546875 13.902344 11.785156 13.742188 12.007812 C 13.492188 12.351562 13.472656 12.460938 13.613281 12.726562 C 13.703125 12.898438 13.875 13.226562 13.992188 13.453125 C 14.382812 14.210938 14.578125 14.351562 15.246094 14.351562 C 15.757812 14.351562 15.9375 14.28125 16.210938 13.96875 Z M 19.296875 12.148438 C 19.429688 12.070312 19.609375 11.839844 19.695312 11.628906 C 19.78125 11.421875 19.9375 11.09375 20.046875 10.902344 C 20.28125 10.484375 20.210938 10.214844 19.644531 9.394531 C 19.246094 8.8125 19.164062 8.765625 18.5625 8.722656 C 17.796875 8.671875 17.390625 8.976562 16.984375 9.894531 C 16.742188 10.4375 16.742188 10.507812 16.953125 11.066406 C 17.273438 11.933594 17.699219 12.28125 18.4375 12.28125 C 18.773438 12.28125 19.160156 12.21875 19.296875 12.148438 Z M 16.238281 10.039062 C 16.421875 9.871094 16.664062 9.46875 16.785156 9.144531 C 16.984375 8.605469 16.984375 8.511719 16.785156 7.972656 C 16.460938 7.101562 16.039062 6.765625 15.273438 6.769531 C 14.515625 6.773438 14.328125 6.878906 14.015625 7.480469 C 13.53125 8.417969 13.496094 8.546875 13.640625 8.867188 C 13.976562 9.613281 14.265625 10.105469 14.445312 10.21875 C 14.554688 10.289062 14.929688 10.347656 15.273438 10.351562 C 15.75 10.351562 15.992188 10.273438 16.238281 10.039062 Z M 12.988281 8.25 C 13.109375 8.15625 13.335938 7.75 13.484375 7.351562 L 13.757812 6.628906 L 13.484375 5.90625 C 13.136719 4.992188 12.933594 4.835938 12.078125 4.835938 C 11.21875 4.835938 11.015625 4.992188 10.667969 5.90625 L 10.390625 6.628906 L 10.667969 7.351562 C 11.015625 8.265625 11.21875 8.421875 12.078125 8.421875 C 12.457031 8.421875 12.867188 8.34375 12.988281 8.25 Z M 7.238281 13.570312 C 7.1875 13.515625 7.148438 13.414062 7.148438 13.335938 C 7.148438 13.25 7.210938 13.257812 7.308594 13.355469 C 7.398438 13.445312 7.4375 13.550781 7.398438 13.589844 C 7.359375 13.628906 7.289062 13.617188 7.238281 13.570312 Z M 6.832031 12.878906 C 6.707031 12.75 6.71875 12.171875 6.851562 12.09375 C 6.910156 12.054688 6.960938 12.234375 6.960938 12.5 C 6.960938 13.015625 6.960938 13.007812 6.832031 12.878906 Z M 7.148438 11.609375 C 7.148438 11.53125 7.210938 11.429688 7.28125 11.382812 C 7.359375 11.335938 7.417969 11.363281 7.417969 11.4375 C 7.417969 11.515625 7.359375 11.617188 7.28125 11.664062 C 7.210938 11.710938 7.148438 11.683594 7.148438 11.609375 Z M 10.421875 11.632812 C 10.328125 11.597656 10.253906 11.453125 10.253906 11.3125 C 10.253906 11.171875 10.195312 11.019531 10.117188 10.972656 C 9.945312 10.863281 9.945312 10.625 10.117188 10.625 C 10.234375 10.625 10.710938 11.59375 10.625 11.664062 C 10.609375 11.679688 10.515625 11.664062 10.421875 11.632812 Z M 7.417969 10.925781 C 7.417969 10.867188 7.492188 10.746094 7.578125 10.65625 C 7.800781 10.429688 7.964844 10.445312 7.875 10.6875 C 7.796875 10.898438 7.417969 11.097656 7.417969 10.925781 Z M 7.417969 10.925781 "/>
</g>
</svg>
