
<svg xmlns="http://www.w3.org/2000/svg" xmlns:xlink="http://www.w3.org/1999/xlink" width="24px" height="24px" viewBox="0 0 24 24" version="1.1">
<g id="surface1">
<path style=" stroke:none;fill-rule:nonzero;fill:rgb(69.019608%,87.843137%,90.196078%);fill-opacity:1;" d="M 2.773438 19.835938 C -3.0625 10.859375 1.644531 2.679688 8.253906 0.738281 C 17.144531 -1.871094 29.21875 4.988281 21.261719 19.125 C 18.101562 24.742188 6.933594 26.230469 2.773438 19.835938 Z M 2.773438 19.835938 "/>
<path style=" stroke:none;fill-rule:nonzero;fill:rgb(39.215686%,58.431373%,92.941176%);fill-opacity:1;" d="M 8.910156 19.242188 C 8.613281 18.914062 8.722656 18.464844 9.128906 18.320312 C 9.390625 18.230469 9.488281 17.941406 9.753906 16.457031 L 9.9375 15.425781 L 9.480469 14.453125 C 9.226562 13.917969 8.824219 13.109375 8.589844 12.65625 L 8.15625 11.828125 L 7.324219 11.824219 C 6.066406 11.8125 5.597656 11.441406 5.597656 10.460938 C 5.597656 9.96875 5.753906 9.691406 6.078125 9.601562 C 6.410156 9.507812 6.644531 9.699219 6.644531 10.058594 C 6.644531 10.382812 6.953125 10.710938 7.257812 10.710938 C 7.664062 10.710938 7.507812 10.292969 6.746094 9.34375 C 6.503906 9.042969 6.289062 8.609375 6.1875 8.207031 C 5.96875 7.363281 5.96875 7.378906 6.300781 6.933594 C 7.035156 5.953125 8.488281 5.828125 9.226562 6.683594 C 9.605469 7.121094 9.75 7.097656 9.808594 6.585938 L 9.84375 6.292969 L 14.328125 6.269531 C 18.472656 6.25 18.8125 6.261719 18.828125 6.445312 C 18.863281 6.875 18.796875 7.105469 18.597656 7.261719 C 18.484375 7.351562 18.390625 7.496094 18.390625 7.582031 C 18.390625 7.667969 18.179688 8.15625 17.917969 8.664062 C 17.660156 9.175781 17.449219 9.6875 17.449219 9.804688 C 17.445312 10.09375 17.636719 10.480469 17.933594 10.792969 C 18.214844 11.089844 18.253906 11.441406 18.027344 11.652344 C 17.875 11.789062 17.320312 11.769531 16.710938 11.601562 C 16.460938 11.53125 16.359375 11.707031 14.515625 15.367188 C 13.453125 17.476562 12.515625 19.265625 12.4375 19.339844 C 12.214844 19.546875 11.992188 19.328125 11.523438 18.433594 C 11.292969 17.992188 11.054688 17.628906 10.996094 17.617188 C 10.789062 17.585938 10.824219 18.230469 11.042969 18.480469 C 11.300781 18.769531 11.316406 18.996094 11.09375 19.242188 C 10.96875 19.382812 10.707031 19.429688 10 19.429688 C 9.296875 19.429688 9.03125 19.382812 8.910156 19.242188 Z M 14.179688 15.339844 C 15.113281 13.511719 15.875 11.960938 15.875 11.894531 C 15.875 11.8125 15.277344 11.769531 14.152344 11.769531 C 12.457031 11.769531 12.425781 11.765625 12.109375 11.46875 C 11.917969 11.285156 11.699219 10.890625 11.5625 10.46875 C 11.4375 10.082031 11.300781 9.769531 11.257812 9.769531 C 11.035156 9.769531 10.976562 10.652344 11.195312 10.746094 C 11.386719 10.832031 11.46875 11.375 11.324219 11.589844 C 11.234375 11.722656 10.941406 11.769531 10.121094 11.78125 C 9.035156 11.800781 8.953125 11.773438 8.8125 11.359375 C 8.785156 11.289062 8.714844 11.300781 8.625 11.394531 C 8.507812 11.519531 8.539062 11.664062 8.824219 12.277344 C 9.007812 12.679688 9.253906 13.179688 9.371094 13.390625 L 9.578125 13.773438 L 10.78125 13.773438 C 11.902344 13.773438 11.984375 13.789062 12.050781 14.019531 C 12.15625 14.394531 12.019531 14.835938 11.796875 14.835938 C 11.496094 14.835938 11.382812 15.070312 11.242188 16 C 11.109375 16.84375 11.113281 16.859375 11.414062 17.464844 C 12.078125 18.800781 12.214844 19 12.355469 18.824219 C 12.425781 18.734375 13.246094 17.167969 14.179688 15.339844 Z M 16.289062 11.042969 C 16.292969 10.765625 15.898438 9.769531 15.785156 9.769531 C 15.730469 9.769531 15.65625 9.953125 15.621094 10.175781 C 15.566406 10.496094 15.597656 10.636719 15.765625 10.824219 C 15.882812 10.957031 15.980469 11.207031 15.980469 11.382812 C 15.980469 11.683594 15.984375 11.6875 16.132812 11.46875 C 16.21875 11.34375 16.289062 11.152344 16.289062 11.042969 Z M 14.277344 11.066406 C 14.246094 10.941406 14.535156 10.160156 14.617188 9.75 C 14.699219 9.339844 14.65625 8.300781 14.742188 7.785156 C 14.828125 7.265625 14.839844 7.289062 14.921875 7.113281 C 15.09375 6.722656 15.488281 6.554688 15 6.644531 C 14.714844 6.695312 15.410156 6.332031 15.449219 6.484375 C 15.5 6.710938 14.558594 10.386719 14.410156 10.703125 C 14.277344 10.984375 14.367188 11.0625 14.800781 11.0625 C 15.109375 11.0625 14.320312 11.257812 14.277344 11.066406 Z M 17.09375 11.09375 C 17.09375 11.050781 17.066406 11.183594 16.988281 11.082031 C 16.90625 10.980469 16.582031 10.609375 16.335938 9.976562 C 16.09375 9.347656 15.890625 8.960938 15.847656 8.960938 C 15.691406 8.960938 15.878906 8.785156 15.964844 8.890625 C 16.015625 8.953125 16.1875 9.390625 16.351562 9.867188 C 16.515625 10.339844 16.742188 10.804688 16.859375 10.894531 C 17.078125 11.066406 17.09375 11.238281 17.09375 11.09375 Z M 12.476562 10.28125 L 12.589844 10.683594 L 12.476562 10.835938 C 12.339844 11.023438 12.289062 10.570312 12.421875 10.71875 C 12.75 11.089844 12.882812 11.664062 12.585938 11.023438 Z M 9.460938 10.554688 C 9.5625 10.417969 10.105469 7.863281 10.105469 7.53125 C 10.105469 7.464844 9.96875 7.410156 9.800781 7.410156 C 9.578125 7.410156 9.472656 7.480469 9.421875 7.660156 C 9.34375 7.933594 8.734375 8.269531 8.496094 8.167969 C 8.410156 8.128906 8.289062 7.941406 8.230469 7.746094 C 8.136719 7.453125 8.070312 7.402344 7.828125 7.433594 C 7.382812 7.492188 7.46875 7.808594 8.054688 8.253906 C 8.785156 8.8125 8.984375 9.164062 9.039062 10.003906 C 9.082031 10.714844 9.214844 10.886719 9.460938 10.554688 Z M 14.066406 10.5625 C 14.207031 10.371094 14.734375 7.652344 14.660156 7.515625 C 14.628906 7.457031 14.378906 7.410156 14.101562 7.410156 C 13.644531 7.410156 13.550781 7.464844 13 8.03125 L 12.398438 8.648438 L 12.722656 9.523438 C 12.898438 10 13.097656 10.464844 13.160156 10.550781 C 13.308594 10.75 13.925781 10.757812 14.066406 10.5625 Z M 17.652344 8.519531 C 17.835938 8.160156 17.96875 7.816406 17.949219 7.761719 C 17.933594 7.703125 17.71875 7.84375 17.472656 8.074219 C 17.054688 8.464844 16.902344 8.882812 17.097656 9.101562 C 17.238281 9.257812 17.328125 9.164062 17.652344 8.519531 Z M 15.933594 8.179688 C 17.070312 6.753906 15.25 9.523438 15.890625 8.144531 C 16.003906 7.894531 15.667969 8.300781 15.898438 8.128906 C 16.03125 8.03125 15.757812 8.199219 15.78125 8.121094 Z M 11.890625 7.703125 C 11.964844 7.605469 13.449219 6.460938 13.414062 6.421875 C 13.359375 6.359375 13.902344 6.328125 13.371094 6.464844 C 13.234375 6.5 11.730469 6.46875 11.652344 6.542969 C 11.453125 6.726562 11.574219 7.636719 11.574219 7.703125 C 11.574219 7.933594 11.722656 7.933594 11.890625 7.703125 Z M 18.179688 6.558594 C 18.179688 6.507812 16.492188 6.515625 16.261719 6.515625 C 15.851562 6.515625 15.546875 8.347656 15.835938 8.074219 L 17 6.980469 L 17.695312 6.417969 C 17.925781 6.234375 18.175781 6.605469 18.179688 6.558594 Z M 13.253906 6.691406 C 13.253906 6.632812 13.613281 6.359375 13.527344 6.359375 C 13.4375 6.359375 13.414062 6.359375 13.414062 6.457031 C 13.414062 6.5625 13.304688 6.480469 13.398438 6.4375 C 13.488281 6.402344 13.253906 6.75 13.253906 6.691406 Z M 5.976562 17.59375 C 5.941406 17.492188 5.914062 17.277344 5.914062 17.121094 C 5.914062 16.664062 6.234375 16.582031 7.585938 16.6875 C 8.761719 16.777344 8.792969 16.785156 8.886719 17.089844 C 9.089844 17.730469 8.988281 17.78125 7.445312 17.78125 C 6.261719 17.78125 6.03125 17.75 5.976562 17.59375 Z M 6.019531 16.257812 C 5.875 15.953125 5.882812 15.621094 6.039062 15.445312 C 6.175781 15.289062 8.5 15.246094 8.703125 15.394531 C 8.871094 15.519531 8.976562 15.976562 8.902344 16.25 C 8.839844 16.46875 8.742188 16.484375 7.480469 16.484375 C 6.253906 16.484375 6.121094 16.464844 6.019531 16.257812 Z M 6.019531 16.257812 "/>
</g>
</svg>
