
<svg xmlns="http://www.w3.org/2000/svg" xmlns:xlink="http://www.w3.org/1999/xlink" width="24px" height="24px" viewBox="0 0 24 24" version="1.1">
<g id="surface1">
<path style=" stroke:none;fill-rule:nonzero;fill:rgb(43.921569%,50.196078%,56.470588%);fill-opacity:1;" d="M 4.945312 21.65625 C 22.992188 33.65625 34.101562 -4.601562 10.78125 0.464844 C 1.140625 2.625 -4.710938 16.15625 4.945312 21.65625 Z M 4.945312 21.65625 "/>
<path style=" stroke:none;fill-rule:nonzero;fill:rgb(90.196078%,90.196078%,90.196078%);fill-opacity:1;" d="M 12.101562 5.367188 C 10.578125 5.367188 9.351562 6.5 9.351562 7.910156 C 9.351562 9.320312 10.578125 10.453125 12.101562 10.453125 C 13.628906 10.453125 14.859375 9.320312 14.859375 7.910156 C 14.859375 6.5 13.628906 5.367188 12.101562 5.367188 Z M 12.101562 5.875 C 13.203125 5.875 14.304688 6.894531 14.304688 7.910156 C 14.304688 8.929688 13.203125 9.945312 12.101562 9.945312 C 11 9.945312 9.898438 8.929688 9.898438 7.910156 C 9.898438 6.894531 11 5.875 12.101562 5.875 Z M 12.101562 5.875 "/>
<path style=" stroke:none;fill-rule:nonzero;fill:rgb(90.196078%,90.196078%,90.196078%);fill-opacity:1;" d="M 12.101562 11.46875 C 9.359375 11.46875 7.148438 13.507812 7.148438 16.042969 L 7.148438 17.058594 L 17.0625 17.058594 L 17.0625 16.042969 C 17.0625 13.507812 14.851562 11.46875 12.101562 11.46875 Z M 12.101562 11.976562 C 14.238281 11.976562 16.507812 14.070312 16.507812 16.042969 C 16.507812 16.21875 16.507812 16.550781 16.507812 16.550781 L 7.695312 16.550781 C 7.695312 16.550781 7.695312 16.21875 7.695312 16.042969 C 7.695312 14.070312 9.96875 11.976562 12.101562 11.976562 Z M 12.101562 11.976562 "/>
</g>
</svg>
