
<svg xmlns="http://www.w3.org/2000/svg" xmlns:xlink="http://www.w3.org/1999/xlink" width="24px" height="24px" viewBox="0 0 24 24" version="1.1">
<g id="surface1">
<path style=" stroke:none;fill-rule:nonzero;fill:rgb(80.392157%,52.156863%,24.705882%);fill-opacity:1;" d="M 5.695312 2.65625 C 17.867188 -5.902344 30.195312 9.898438 20.28125 19.980469 C 10.9375 29.476562 -3.578125 20.671875 0.960938 8.855469 C 1.90625 6.390625 3.460938 4.226562 5.695312 2.65625 "/>
<path style=" stroke:none;fill-rule:nonzero;fill:rgb(100%,100%,100%);fill-opacity:1;" d="M 9.679688 19.101562 C 7.570312 18.664062 5.488281 17.257812 4.664062 15.707031 C 3.578125 13.65625 3.585938 10.796875 4.683594 8.726562 C 5.160156 7.828125 6.601562 6.453125 7.597656 5.945312 C 10.039062 4.695312 14.152344 4.695312 16.546875 5.945312 C 18.132812 6.769531 19.355469 8.160156 19.867188 9.726562 C 21.015625 13.253906 19.5 16.984375 16.335938 18.417969 C 15.75 18.6875 14.8125 18.996094 14.257812 19.109375 C 13 19.363281 10.929688 19.359375 9.679688 19.101562 Z M 14.207031 16.679688 C 16.40625 16.015625 17.59375 14.394531 17.570312 12.09375 C 17.546875 10.398438 16.835938 9.039062 15.542969 8.21875 C 14.570312 7.601562 13.625 7.371094 12.070312 7.371094 C 8.414062 7.371094 6.304688 9.304688 6.515625 12.460938 C 6.660156 14.609375 8.132812 16.335938 10.21875 16.804688 C 11.261719 17.039062 13.21875 16.976562 14.207031 16.679688 Z M 10.484375 14.835938 C 10.386719 14.421875 10.328125 12.304688 10.371094 10.835938 C 10.414062 9.476562 10.601562 9.085938 11.148438 9.21875 C 11.554688 9.320312 14.671875 11.875 14.742188 12.164062 C 14.765625 12.269531 14.71875 12.476562 14.640625 12.621094 C 14.4375 12.976562 11.164062 15.148438 10.828125 15.148438 C 10.664062 15.148438 10.527344 15.023438 10.484375 14.835938 Z M 10.484375 14.835938 "/>
</g>
</svg>
