
<svg xmlns="http://www.w3.org/2000/svg" xmlns:xlink="http://www.w3.org/1999/xlink" width="24px" height="24px" viewBox="0 0 24 24" version="1.1">
<g id="surface1">
<path style=" stroke:none;fill-rule:nonzero;fill:rgb(57.647059%,43.921569%,85.882353%);fill-opacity:1;" d="M 5.875 2.980469 C -15.378906 22.738281 28.488281 35.1875 23.652344 8.957031 C 21.265625 2.039062 12.699219 -3.363281 5.875 2.980469 Z M 5.875 2.980469 "/>
<path style="fill-rule:nonzero;fill:rgb(100%,100%,100%);fill-opacity:1;stroke-width:1.10371;stroke-linecap:butt;stroke-linejoin:miter;stroke:rgb(100%,100%,100%);stroke-opacity:1;stroke-miterlimit:4;" d="M 560.799175 609.477834 L 565.900267 624.52926 L 564.623799 624.76671 L 559.527488 609.715284 Z M 560.799175 609.477834 " transform="matrix(-0.817074,0,0,0.806091,471.960458,-485.931044)"/>
<path style="fill-rule:nonzero;fill:rgb(100%,100%,100%);fill-opacity:1;stroke-width:1;stroke-linecap:butt;stroke-linejoin:miter;stroke:rgb(100%,100%,100%);stroke-opacity:1;stroke-miterlimit:4;" d="M 558.537867 613.65017 L 559.283668 614.357675 L 555.621591 618.651159 L 559.283668 622.939798 L 558.537867 623.652148 L 554.565039 619.004911 L 554.282973 618.651159 L 554.565039 618.297407 Z M 558.537867 613.65017 " transform="matrix(-0.817074,0,0,0.806091,471.960458,-485.931044)"/>
<path style="fill-rule:evenodd;fill:rgb(100%,100%,100%);fill-opacity:1;stroke-width:1.142;stroke-linecap:butt;stroke-linejoin:miter;stroke:rgb(100%,100%,100%);stroke-opacity:1;stroke-miterlimit:4;" d="M 144.491475 223.881594 L 130.424881 202.369333 L 104.835961 205.004168 L 126.359898 190.929479 L 123.727895 165.31488 L 137.823734 186.860494 L 163.383409 184.225659 L 141.859472 198.300347 Z M 144.491475 223.881594 " transform="matrix(-0.133572,0,0,0.117121,27.901609,-5.51414)"/>
<path style="fill-rule:nonzero;fill:rgb(100%,100%,100%);fill-opacity:1;stroke-width:9.176;stroke-linecap:butt;stroke-linejoin:miter;stroke:rgb(100%,100%,100%);stroke-opacity:1;stroke-miterlimit:4;" d="M 78.267353 894.899098 L 84.927863 901.615563 L 125.02685 868.592942 L 143.739711 883.963315 L 143.739711 871.778958 L 128.334451 859.07795 L 125.02685 856.580802 L 121.71925 859.07795 C 107.220181 870.960927 92.766422 883.016121 78.267353 894.899098 Z M 78.267353 894.899098 " transform="matrix(0,0.0862124,0.0907285,0,-72.181158,2.150819)"/>
</g>
</svg>
