
<svg xmlns="http://www.w3.org/2000/svg" xmlns:xlink="http://www.w3.org/1999/xlink" width="24px" height="24px" viewBox="0 0 24 24" version="1.1">
<defs>
<linearGradient id="linear0" gradientUnits="userSpaceOnUse" x1="23.459" y1="3.03" x2="22.446" y2="46.12" gradientTransform="matrix(0.301026,0,0,0.269618,4.83,5.371875)">
<stop offset="0" style="stop-color:rgb(92.941176%,92.941176%,92.941176%);stop-opacity:1;"/>
<stop offset="1" style="stop-color:rgb(81.960784%,81.176471%,81.176471%);stop-opacity:1;"/>
</linearGradient>
<linearGradient id="linear1" gradientUnits="userSpaceOnUse" x1="0" y1="43.34" x2="0" y2="9.692" gradientTransform="matrix(0.301026,0,0,0.269618,4.83,5.371875)">
<stop offset="0" style="stop-color:rgb(49.803922%,49.803922%,49.803922%);stop-opacity:1;"/>
<stop offset="1" style="stop-color:rgb(60%,60%,60%);stop-opacity:1;"/>
</linearGradient>
<linearGradient id="linear2" gradientUnits="userSpaceOnUse" x1="22.73" y1="11.139" x2="23.297" y2="41.715" gradientTransform="matrix(0.301026,0,0,0.269618,4.83,5.371875)">
<stop offset="0" style="stop-color:rgb(100%,100%,100%);stop-opacity:1;"/>
<stop offset="1" style="stop-color:rgb(87.058824%,87.058824%,87.058824%);stop-opacity:1;"/>
</linearGradient>
<linearGradient id="linear3" gradientUnits="userSpaceOnUse" x1="9.332" y1="7.656" x2="9.292" y2="5.29" gradientTransform="matrix(0.301026,0,0,0.269618,4.83,5.371875)">
<stop offset="0" style="stop-color:rgb(49.803922%,49.803922%,49.803922%);stop-opacity:1;"/>
<stop offset="1" style="stop-color:rgb(60%,60%,60%);stop-opacity:1;"/>
</linearGradient>
<linearGradient id="linear4" gradientUnits="userSpaceOnUse" x1="9.589" y1="7.591" x2="9.548" y2="5.226" gradientTransform="matrix(0.301026,0,0,0.269618,4.83,5.371875)">
<stop offset="0" style="stop-color:rgb(49.803922%,49.803922%,49.803922%);stop-opacity:1;"/>
<stop offset="1" style="stop-color:rgb(60%,60%,60%);stop-opacity:1;"/>
</linearGradient>
<linearGradient id="linear5" gradientUnits="userSpaceOnUse" x1="0" y1="47.27" x2="0" y2="17.01" gradientTransform="matrix(0.301026,0,0,0.269618,4.83,5.371875)">
<stop offset="0" style="stop-color:rgb(49.803922%,49.803922%,49.803922%);stop-opacity:1;"/>
<stop offset="1" style="stop-color:rgb(60%,60%,60%);stop-opacity:1;"/>
</linearGradient>
<linearGradient id="linear6" gradientUnits="userSpaceOnUse" x1="31.877" y1="42.12" x2="32.528" y2="22.16" gradientTransform="matrix(0.301026,0,0,0.269618,4.83,5.371875)">
<stop offset="0" style="stop-color:rgb(21.960784%,21.960784%,21.960784%);stop-opacity:1;"/>
<stop offset="1" style="stop-color:rgb(20%,20%,20%);stop-opacity:1;"/>
</linearGradient>
<linearGradient id="linear7" gradientUnits="userSpaceOnUse" x1="33.751" y1="21.493" x2="34.31" y2="32.666" gradientTransform="matrix(0.301026,0,0,0.269618,4.83,5.371875)">
<stop offset="0" style="stop-color:rgb(100%,100%,100%);stop-opacity:0.321569;"/>
<stop offset="1" style="stop-color:rgb(60%,60%,60%);stop-opacity:0.321569;"/>
</linearGradient>
<linearGradient id="linear8" gradientUnits="userSpaceOnUse" x1="0" y1="34.818" x2="0" y2="39.742" gradientTransform="matrix(0.301026,0,0,0.269618,4.83,5.371875)">
<stop offset="0" style="stop-color:rgb(90.196078%,47.058824%,23.529412%);stop-opacity:1;"/>
<stop offset="1" style="stop-color:rgb(83.137255%,43.137255%,21.568627%);stop-opacity:1;"/>
</linearGradient>
<linearGradient id="linear9" gradientUnits="userSpaceOnUse" x1="0" y1="12.28" x2="0" y2="14.906" gradientTransform="matrix(0.301026,0,0,0.269618,4.83,5.371875)">
<stop offset="0" style="stop-color:rgb(83.921569%,83.921569%,83.921569%);stop-opacity:1;"/>
<stop offset="1" style="stop-color:rgb(80%,80%,80%);stop-opacity:1;"/>
</linearGradient>
<linearGradient id="linear10" gradientUnits="userSpaceOnUse" x1="0" y1="11.914" x2="0" y2="14.774" gradientTransform="matrix(0.301026,0,0,0.269618,4.83,5.371875)">
<stop offset="0" style="stop-color:rgb(83.921569%,83.921569%,83.921569%);stop-opacity:1;"/>
<stop offset="1" style="stop-color:rgb(80%,80%,80%);stop-opacity:1;"/>
</linearGradient>
</defs>
<g id="surface1">
<path style=" stroke:none;fill-rule:nonzero;fill:rgb(86.27451%,86.27451%,86.27451%);fill-opacity:1;" d="M 19.898438 19.90625 C 10.066406 32.082031 -7.679688 14.253906 3.65625 3.476562 C 13.414062 -7.320312 32.34375 9.535156 19.898438 19.90625 Z M 19.898438 19.90625 "/>
<path style=" stroke:none;fill-rule:evenodd;fill:rgb(64.313725%,64.705882%,65.490196%);fill-opacity:0.439216;" d="M 13.21875 7.25 C 13.320312 7.152344 13.375 7.003906 13.53125 6.984375 L 13.644531 7.203125 L 13.171875 7.726562 Z M 13.21875 7.25 "/>
<path style=" stroke:none;fill-rule:evenodd;fill:url(#linear0);" d="M 5.78125 6.328125 L 17.742188 6.328125 C 18.125 6.328125 18.441406 6.609375 18.441406 6.953125 L 18.394531 17.039062 C 18.394531 17.382812 18.078125 17.667969 17.695312 17.667969 C 13.085938 17.667969 13.597656 17.667969 5.738281 17.667969 C 5.351562 17.667969 5.039062 17.386719 5.039062 17.039062 L 5.085938 6.953125 C 5.085938 6.609375 5.398438 6.328125 5.78125 6.328125 Z M 5.78125 6.328125 "/>
<path style=" stroke:none;fill-rule:evenodd;fill:rgb(81.568627%,94.901961%,50.196078%);fill-opacity:1;" d="M 13.828125 6.476562 L 15.046875 6.476562 L 15.046875 7.5625 L 13.828125 7.5625 "/>
<path style=" stroke:none;fill-rule:evenodd;fill:rgb(92.941176%,66.666667%,8.627451%);fill-opacity:1;" d="M 15.320312 6.476562 L 16.539062 6.476562 L 16.539062 7.5625 L 15.320312 7.5625 "/>
<path style=" stroke:none;fill-rule:evenodd;fill:rgb(87.843137%,47.058824%,6.27451%);fill-opacity:1;" d="M 16.867188 6.476562 L 18.085938 6.476562 L 18.085938 7.5625 L 16.867188 7.5625 "/>
<path style=" stroke:none;fill-rule:nonzero;fill:url(#linear1);" d="M 6.003906 8.5625 L 6.039062 16.5 C 6.039062 16.539062 6.082031 16.578125 6.132812 16.617188 C 6.21875 16.671875 6.320312 16.710938 6.40625 16.710938 L 17.195312 16.65625 C 17.292969 16.652344 17.359375 16.628906 17.398438 16.589844 C 17.453125 16.539062 17.476562 16.460938 17.480469 16.367188 L 17.46875 8.5625 C 17.46875 8.476562 17.449219 8.421875 17.414062 8.390625 C 17.367188 8.351562 17.28125 8.332031 17.171875 8.332031 L 6.328125 8.34375 C 6.21875 8.34375 6.128906 8.367188 6.070312 8.40625 L 6.074219 8.40625 C 6.03125 8.4375 6.007812 8.492188 6.007812 8.5625 Z M 5.4375 16.519531 L 5.40625 8.5625 L 5.402344 8.5625 C 5.402344 8.3125 5.511719 8.121094 5.691406 7.992188 L 5.695312 7.992188 C 5.859375 7.867188 6.082031 7.804688 6.328125 7.804688 L 17.171875 7.796875 C 17.441406 7.796875 17.660156 7.867188 17.820312 7.992188 L 17.820312 7.996094 C 17.984375 8.132812 18.070312 8.320312 18.070312 8.5625 L 18.078125 16.375 L 18.078125 16.386719 C 18.070312 16.609375 17.992188 16.8125 17.835938 16.960938 C 17.6875 17.101562 17.484375 17.1875 17.210938 17.191406 L 17.203125 17.191406 L 6.40625 17.246094 C 6.195312 17.246094 5.953125 17.171875 5.769531 17.042969 C 5.589844 16.921875 5.457031 16.746094 5.4375 16.539062 Z M 17.195312 16.65625 L 17.203125 16.65625 "/>
<path style=" stroke:none;fill-rule:evenodd;fill:url(#linear2);" d="M 5.710938 8.554688 L 5.738281 16.519531 C 5.761719 16.785156 6.136719 16.976562 6.40625 16.976562 L 17.226562 16.882812 C 17.613281 16.875 17.789062 16.640625 17.804688 16.335938 L 17.800781 8.511719 C 17.800781 8.1875 17.585938 8.015625 17.203125 8.015625 L 6.335938 8.066406 C 5.980469 8.070312 5.710938 8.152344 5.710938 8.554688 Z M 5.710938 8.554688 "/>
<path style=" stroke:none;fill-rule:nonzero;fill:rgb(78.823529%,78.823529%,78.823529%);fill-opacity:1;" d="M 14.835938 12.082031 L 16.644531 12.082031 L 16.644531 12.351562 L 14.835938 12.351562 "/>
<path style=" stroke:none;fill-rule:nonzero;fill:rgb(78.823529%,78.823529%,78.823529%);fill-opacity:1;" d="M 12.546875 12.082031 L 14.472656 12.082031 L 14.472656 12.351562 L 12.546875 12.351562 "/>
<path style=" stroke:none;fill-rule:nonzero;fill:rgb(78.823529%,78.823529%,78.823529%);fill-opacity:1;" d="M 14.4375 12.625 L 16.644531 12.625 L 16.644531 12.894531 L 14.4375 12.894531 "/>
<path style=" stroke:none;fill-rule:nonzero;fill:rgb(74.901961%,74.901961%,74.901961%);fill-opacity:1;" d="M 15.050781 14.804688 L 17.289062 14.804688 L 17.289062 15.078125 L 15.050781 15.078125 "/>
<path style=" stroke:none;fill-rule:nonzero;fill:rgb(74.901961%,74.901961%,74.901961%);fill-opacity:1;" d="M 15.515625 14.804688 L 15.148438 14.804688 L 15.148438 15.078125 L 15.515625 15.078125 "/>
<path style=" stroke:none;fill-rule:nonzero;fill:rgb(74.901961%,74.901961%,74.901961%);fill-opacity:1;" d="M 10.230469 14.804688 L 15.148438 14.804688 L 15.148438 15.078125 L 10.230469 15.078125 "/>
<path style=" stroke:none;fill-rule:nonzero;fill:rgb(74.901961%,74.901961%,74.901961%);fill-opacity:1;" d="M 14.796875 15.367188 L 17.289062 15.375 L 17.289062 15.648438 L 14.796875 15.640625 "/>
<path style=" stroke:none;fill-rule:nonzero;fill:rgb(74.901961%,74.901961%,74.901961%);fill-opacity:1;" d="M 11.730469 15.351562 L 14.519531 15.367188 L 14.519531 15.640625 L 11.730469 15.625 "/>
<path style=" stroke:none;fill-rule:nonzero;fill:rgb(74.901961%,74.901961%,74.901961%);fill-opacity:1;" d="M 10.230469 15.351562 L 11.390625 15.351562 L 11.390625 15.625 L 10.230469 15.625 "/>
<path style=" stroke:none;fill-rule:nonzero;fill:rgb(78.823529%,78.823529%,78.823529%);fill-opacity:1;" d="M 10.230469 12.082031 L 12.277344 12.082031 L 12.277344 12.351562 L 10.230469 12.351562 "/>
<path style=" stroke:none;fill-rule:nonzero;fill:rgb(78.823529%,78.823529%,78.823529%);fill-opacity:1;" d="M 10.230469 11.554688 L 13.242188 11.554688 L 13.242188 11.820312 L 10.230469 11.820312 "/>
<path style=" stroke:none;fill-rule:nonzero;fill:rgb(78.823529%,78.823529%,78.823529%);fill-opacity:1;" d="M 10.230469 12.625 L 14.167969 12.625 L 14.167969 12.894531 L 10.230469 12.894531 "/>
<path style=" stroke:none;fill-rule:nonzero;fill:rgb(74.901961%,74.901961%,74.901961%);fill-opacity:1;" d="M 10.230469 14.265625 L 12.304688 14.265625 L 12.304688 14.539062 L 10.230469 14.539062 "/>
<path style=" stroke:none;fill-rule:nonzero;fill:rgb(79.607843%,79.607843%,79.607843%);fill-opacity:0.780392;" d="M 14.105469 10.230469 L 16.3125 10.230469 L 16.3125 10.5 L 14.105469 10.5 "/>
<path style=" stroke:none;fill-rule:nonzero;fill:rgb(79.607843%,79.607843%,79.607843%);fill-opacity:0.780392;" d="M 14.105469 9.6875 L 16.3125 9.6875 L 16.3125 9.953125 L 14.105469 9.953125 "/>
<path style=" stroke:none;fill-rule:nonzero;fill:rgb(79.607843%,79.607843%,79.607843%);fill-opacity:0.780392;" d="M 12.664062 9.6875 L 13.835938 9.6875 L 13.835938 9.953125 L 12.664062 9.953125 "/>
<path style=" stroke:none;fill-rule:nonzero;fill:rgb(79.607843%,79.607843%,79.607843%);fill-opacity:0.780392;" d="M 9.976562 9.6875 L 12.300781 9.6875 L 12.300781 9.953125 L 9.976562 9.953125 "/>
<path style=" stroke:none;fill-rule:nonzero;fill:rgb(79.607843%,79.607843%,79.607843%);fill-opacity:0.780392;" d="M 9.976562 9.15625 L 12.910156 9.15625 L 12.910156 9.429688 L 9.976562 9.429688 "/>
<path style=" stroke:none;fill-rule:nonzero;fill:rgb(79.607843%,79.607843%,79.607843%);fill-opacity:0.780392;" d="M 9.976562 10.230469 L 13.835938 10.230469 L 13.835938 10.5 L 9.976562 10.5 "/>
<path style=" stroke:none;fill-rule:nonzero;fill:rgb(80%,80%,80%);fill-opacity:1;" d="M 17.910156 8.308594 L 5.734375 8.308594 C 5.84375 8.089844 6.039062 8.03125 6.277344 8.03125 L 17.421875 8.046875 C 17.640625 8.046875 17.808594 8.140625 17.90625 8.308594 Z M 17.910156 8.308594 "/>
<path style=" stroke:none;fill-rule:evenodd;fill:rgb(74.901961%,74.901961%,74.901961%);fill-opacity:1;" d="M 5.851562 16.769531 C 5.992188 16.898438 6.210938 16.980469 6.386719 16.980469 L 17.140625 16.945312 C 17.351562 16.941406 17.503906 16.867188 17.597656 16.75 L 17.390625 16.527344 C 17.378906 16.5625 17.359375 16.59375 17.335938 16.613281 C 17.296875 16.652344 17.226562 16.675781 17.132812 16.679688 L 6.386719 16.710938 L 6.382812 16.710938 C 6.304688 16.710938 6.203125 16.675781 6.117188 16.617188 C 6.09375 16.601562 6.078125 16.585938 6.0625 16.570312 L 5.851562 16.765625 Z M 17.132812 16.679688 L 17.140625 16.679688 "/>
<path style=" stroke:none;fill-rule:evenodd;fill:rgb(100%,100%,100%);fill-opacity:1;" d="M 5.890625 17.03125 C 6.03125 17.160156 6.25 17.242188 6.421875 17.242188 L 17.175781 17.210938 C 17.390625 17.203125 17.539062 17.128906 17.632812 17.011719 L 17.429688 16.789062 C 17.414062 16.820312 17.398438 16.851562 17.371094 16.875 C 17.332031 16.914062 17.265625 16.9375 17.167969 16.9375 L 6.421875 16.972656 C 6.34375 16.972656 6.234375 16.9375 6.152344 16.882812 C 6.132812 16.867188 6.109375 16.851562 6.097656 16.835938 Z M 17.167969 16.9375 L 17.175781 16.9375 "/>
<path style=" stroke:none;fill-rule:evenodd;fill:rgb(50.588235%,63.921569%,21.960784%);fill-opacity:0.501961;" d="M 13.828125 6.476562 L 15.042969 6.476562 L 15.042969 7.5625 L 13.828125 7.5625 Z M 14.742188 6.742188 L 14.125 6.742188 L 14.125 7.289062 L 14.742188 7.289062 Z M 14.742188 6.742188 "/>
<path style=" stroke:none;fill-rule:evenodd;fill:rgb(82.352941%,44.705882%,8.627451%);fill-opacity:0.501961;" d="M 15.320312 6.476562 L 16.539062 6.476562 L 16.539062 7.5625 L 15.320312 7.5625 Z M 16.234375 6.742188 L 15.617188 6.742188 L 15.617188 7.289062 L 16.234375 7.289062 Z M 16.234375 6.742188 "/>
<path style=" stroke:none;fill-rule:evenodd;fill:rgb(56.862745%,27.843137%,2.352941%);fill-opacity:0.270588;" d="M 16.867188 6.476562 L 18.085938 6.476562 L 18.085938 7.5625 L 16.867188 7.5625 Z M 17.78125 6.742188 L 17.164062 6.742188 L 17.164062 7.289062 L 17.78125 7.289062 Z M 17.78125 6.742188 "/>
<path style=" stroke:none;fill-rule:evenodd;fill:rgb(100%,60%,60%);fill-opacity:1;" d="M 16.847656 6.75 L 16.867188 6.75 L 16.867188 6.976562 L 16.847656 6.976562 Z M 17.164062 6.75 L 17.78125 6.75 L 17.78125 6.976562 L 17.164062 6.976562 Z M 17.164062 6.75 "/>
<path style=" stroke:none;fill-rule:evenodd;fill:rgb(100%,100%,100%);fill-opacity:1;" d="M 13.863281 7.5625 L 15.046875 7.5625 L 15.046875 7.78125 L 13.863281 7.78125 Z M 13.863281 7.5625 "/>
<path style=" stroke:none;fill-rule:evenodd;fill:rgb(100%,100%,100%);fill-opacity:1;" d="M 15.34375 7.5625 L 16.527344 7.5625 L 16.527344 7.78125 L 15.34375 7.78125 Z M 15.34375 7.5625 "/>
<path style=" stroke:none;fill-rule:evenodd;fill:rgb(100%,100%,100%);fill-opacity:1;" d="M 16.867188 7.5625 L 18.046875 7.5625 L 18.046875 7.78125 L 16.867188 7.78125 Z M 16.867188 7.5625 "/>
<path style=" stroke:none;fill-rule:nonzero;fill:url(#linear3);" d="M 5.789062 7.011719 L 5.789062 7.070312 L 5.929688 7.359375 L 6.070312 7.070312 L 6.070312 7.011719 C 6.070312 7 6.078125 6.984375 6.085938 6.976562 C 6.09375 6.96875 6.105469 6.964844 6.121094 6.964844 C 6.132812 6.964844 6.148438 6.96875 6.15625 6.976562 C 6.164062 6.984375 6.167969 7 6.167969 7.011719 L 6.167969 7.078125 C 6.167969 7.078125 6.167969 7.085938 6.164062 7.085938 C 6.164062 7.09375 6.164062 7.097656 6.164062 7.101562 L 6.007812 7.414062 C 6 7.429688 5.996094 7.4375 5.988281 7.441406 C 5.980469 7.445312 5.96875 7.449219 5.960938 7.449219 L 5.902344 7.449219 C 5.890625 7.449219 5.882812 7.445312 5.875 7.441406 C 5.867188 7.4375 5.859375 7.429688 5.851562 7.414062 L 5.703125 7.101562 C 5.695312 7.09375 5.695312 7.09375 5.695312 7.085938 C 5.695312 7.085938 5.695312 7.078125 5.695312 7.078125 L 5.695312 7.011719 C 5.695312 7 5.695312 6.984375 5.707031 6.976562 C 5.71875 6.96875 5.726562 6.964844 5.742188 6.964844 C 5.757812 6.964844 5.765625 6.96875 5.777344 6.976562 C 5.785156 6.984375 5.789062 7 5.789062 7.011719 Z M 9.152344 6.785156 L 9.476562 6.785156 C 9.503906 6.785156 9.523438 6.792969 9.546875 6.808594 C 9.5625 6.828125 9.570312 6.84375 9.570312 6.871094 L 9.570312 7.074219 C 9.570312 7.097656 9.5625 7.117188 9.546875 7.132812 C 9.523438 7.152344 9.503906 7.160156 9.476562 7.160156 L 9.195312 7.160156 L 9.195312 7.363281 L 9.519531 7.363281 C 9.535156 7.363281 9.546875 7.367188 9.558594 7.375 C 9.570312 7.382812 9.570312 7.394531 9.570312 7.40625 C 9.570312 7.421875 9.570312 7.429688 9.554688 7.4375 C 9.546875 7.445312 9.535156 7.449219 9.519531 7.449219 L 9.097656 7.449219 L 9.097656 7.160156 C 9.097656 7.136719 9.109375 7.117188 9.125 7.101562 C 9.144531 7.082031 9.167969 7.074219 9.195312 7.074219 L 9.476562 7.074219 L 9.476562 6.871094 L 9.152344 6.871094 C 9.136719 6.871094 9.125 6.867188 9.113281 6.859375 C 9.101562 6.851562 9.097656 6.839844 9.097656 6.828125 C 9.097656 6.8125 9.101562 6.804688 9.113281 6.796875 C 9.125 6.789062 9.136719 6.785156 9.152344 6.785156 Z M 8.484375 6.871094 L 8.484375 7.363281 L 8.765625 7.363281 L 8.765625 6.871094 Z M 8.496094 6.785156 L 8.757812 6.785156 C 8.789062 6.785156 8.820312 6.792969 8.835938 6.808594 C 8.855469 6.824219 8.863281 6.851562 8.863281 6.878906 L 8.863281 7.351562 C 8.863281 7.382812 8.855469 7.40625 8.835938 7.425781 C 8.820312 7.441406 8.789062 7.449219 8.757812 7.449219 L 8.496094 7.449219 C 8.460938 7.449219 8.4375 7.441406 8.417969 7.425781 C 8.398438 7.40625 8.390625 7.382812 8.390625 7.351562 L 8.390625 6.878906 C 8.390625 6.847656 8.398438 6.824219 8.417969 6.808594 C 8.4375 6.792969 8.460938 6.785156 8.496094 6.785156 Z M 8.046875 7.28125 L 8.140625 7.28125 C 8.15625 7.28125 8.167969 7.285156 8.175781 7.292969 C 8.1875 7.304688 8.1875 7.3125 8.1875 7.328125 L 8.1875 7.390625 C 8.1875 7.40625 8.1875 7.417969 8.175781 7.425781 C 8.167969 7.4375 8.15625 7.4375 8.140625 7.4375 L 8.046875 7.4375 C 8.03125 7.4375 8.023438 7.4375 8.011719 7.425781 C 8.003906 7.414062 8 7.40625 8 7.390625 L 8 7.328125 C 8 7.3125 8.003906 7.300781 8.011719 7.292969 C 8.023438 7.285156 8.03125 7.28125 8.046875 7.28125 Z M 7.480469 6.871094 L 7.480469 7.363281 L 7.761719 7.363281 L 7.761719 6.871094 Z M 7.492188 6.785156 L 7.75 6.785156 C 7.785156 6.785156 7.8125 6.792969 7.828125 6.808594 C 7.847656 6.824219 7.859375 6.851562 7.859375 6.878906 L 7.859375 7.351562 C 7.859375 7.382812 7.847656 7.40625 7.828125 7.425781 C 7.8125 7.441406 7.785156 7.449219 7.75 7.449219 L 7.492188 7.449219 C 7.453125 7.449219 7.429688 7.441406 7.410156 7.425781 C 7.390625 7.40625 7.382812 7.382812 7.382812 7.351562 L 7.382812 6.878906 C 7.382812 6.847656 7.390625 6.824219 7.410156 6.808594 C 7.429688 6.792969 7.453125 6.785156 7.492188 6.785156 Z M 7.117188 7.28125 L 7.210938 7.28125 C 7.226562 7.28125 7.234375 7.285156 7.246094 7.292969 C 7.253906 7.304688 7.257812 7.3125 7.257812 7.328125 L 7.257812 7.390625 C 7.257812 7.40625 7.253906 7.417969 7.246094 7.425781 C 7.234375 7.4375 7.226562 7.4375 7.210938 7.4375 L 7.117188 7.4375 C 7.101562 7.4375 7.089844 7.4375 7.082031 7.425781 C 7.070312 7.414062 7.070312 7.40625 7.070312 7.390625 L 7.070312 7.328125 C 7.070312 7.3125 7.070312 7.300781 7.082031 7.292969 C 7.089844 7.285156 7.101562 7.28125 7.117188 7.28125 Z M 6.457031 6.785156 L 6.78125 6.785156 C 6.804688 6.785156 6.828125 6.792969 6.851562 6.808594 C 6.867188 6.828125 6.875 6.84375 6.875 6.871094 L 6.875 7.074219 C 6.875 7.097656 6.867188 7.117188 6.851562 7.132812 C 6.828125 7.152344 6.804688 7.160156 6.78125 7.160156 L 6.5 7.160156 L 6.5 7.363281 L 6.820312 7.363281 C 6.839844 7.363281 6.851562 7.367188 6.859375 7.375 C 6.871094 7.382812 6.875 7.394531 6.875 7.40625 C 6.875 7.421875 6.871094 7.429688 6.859375 7.4375 C 6.851562 7.445312 6.835938 7.449219 6.820312 7.449219 L 6.402344 7.449219 L 6.402344 7.160156 C 6.402344 7.136719 6.414062 7.117188 6.429688 7.101562 C 6.449219 7.082031 6.46875 7.074219 6.5 7.074219 L 6.78125 7.074219 L 6.78125 6.871094 L 6.457031 6.871094 C 6.4375 6.871094 6.425781 6.867188 6.417969 6.859375 C 6.40625 6.851562 6.402344 6.839844 6.402344 6.828125 C 6.402344 6.8125 6.40625 6.804688 6.417969 6.796875 C 6.429688 6.789062 6.441406 6.785156 6.457031 6.785156 Z M 6.457031 6.785156 "/>
<path style=" stroke:none;fill-rule:nonzero;fill:url(#linear4);" d="M 5.867188 6.992188 L 5.867188 7.050781 L 6.007812 7.339844 L 6.148438 7.050781 L 6.148438 6.992188 C 6.148438 6.980469 6.15625 6.96875 6.164062 6.960938 C 6.171875 6.953125 6.183594 6.945312 6.195312 6.945312 C 6.210938 6.945312 6.222656 6.953125 6.234375 6.960938 C 6.242188 6.96875 6.246094 6.980469 6.246094 6.992188 L 6.246094 7.058594 C 6.246094 7.0625 6.246094 7.066406 6.242188 7.070312 C 6.242188 7.078125 6.242188 7.078125 6.238281 7.085938 L 6.085938 7.394531 C 6.078125 7.410156 6.070312 7.421875 6.0625 7.421875 C 6.058594 7.429688 6.046875 7.429688 6.039062 7.429688 L 5.976562 7.429688 C 5.96875 7.429688 5.957031 7.429688 5.953125 7.421875 C 5.945312 7.421875 5.9375 7.410156 5.929688 7.394531 L 5.777344 7.085938 C 5.773438 7.078125 5.773438 7.074219 5.773438 7.070312 C 5.773438 7.070312 5.773438 7.0625 5.773438 7.058594 L 5.773438 6.992188 C 5.773438 6.980469 5.773438 6.96875 5.785156 6.960938 C 5.792969 6.953125 5.804688 6.945312 5.820312 6.945312 C 5.835938 6.945312 5.84375 6.953125 5.851562 6.960938 C 5.863281 6.96875 5.867188 6.980469 5.867188 6.992188 Z M 9.226562 6.765625 L 9.554688 6.765625 C 9.578125 6.765625 9.601562 6.773438 9.621094 6.789062 C 9.640625 6.808594 9.648438 6.828125 9.648438 6.851562 L 9.648438 7.054688 C 9.648438 7.078125 9.640625 7.101562 9.621094 7.117188 C 9.601562 7.132812 9.578125 7.140625 9.554688 7.140625 L 9.273438 7.140625 L 9.273438 7.34375 L 9.59375 7.34375 C 9.613281 7.34375 9.625 7.351562 9.632812 7.359375 C 9.644531 7.367188 9.648438 7.375 9.648438 7.390625 C 9.648438 7.402344 9.644531 7.414062 9.632812 7.421875 C 9.625 7.429688 9.609375 7.433594 9.59375 7.433594 L 9.175781 7.433594 L 9.175781 7.140625 C 9.175781 7.117188 9.1875 7.101562 9.203125 7.082031 C 9.222656 7.0625 9.242188 7.054688 9.273438 7.054688 L 9.554688 7.054688 L 9.554688 6.851562 L 9.226562 6.851562 C 9.210938 6.851562 9.199219 6.851562 9.1875 6.84375 C 9.179688 6.835938 9.175781 6.824219 9.175781 6.8125 C 9.175781 6.796875 9.179688 6.789062 9.191406 6.78125 C 9.203125 6.773438 9.214844 6.765625 9.230469 6.765625 Z M 8.5625 6.851562 L 8.5625 7.34375 L 8.84375 7.34375 L 8.84375 6.851562 Z M 8.574219 6.765625 L 8.835938 6.765625 C 8.867188 6.765625 8.894531 6.773438 8.914062 6.789062 C 8.929688 6.808594 8.941406 6.832031 8.941406 6.863281 L 8.941406 7.335938 C 8.941406 7.367188 8.929688 7.390625 8.914062 7.40625 C 8.894531 7.421875 8.867188 7.429688 8.835938 7.429688 L 8.574219 7.429688 C 8.539062 7.429688 8.515625 7.421875 8.492188 7.40625 C 8.476562 7.390625 8.46875 7.367188 8.46875 7.335938 L 8.46875 6.863281 C 8.46875 6.832031 8.476562 6.808594 8.492188 6.789062 C 8.515625 6.773438 8.539062 6.765625 8.574219 6.765625 Z M 8.125 7.265625 L 8.21875 7.265625 C 8.234375 7.265625 8.242188 7.265625 8.253906 7.273438 C 8.265625 7.285156 8.265625 7.296875 8.265625 7.3125 L 8.265625 7.375 C 8.265625 7.390625 8.265625 7.398438 8.253906 7.40625 C 8.242188 7.417969 8.234375 7.421875 8.21875 7.421875 L 8.125 7.421875 C 8.109375 7.421875 8.101562 7.417969 8.089844 7.40625 C 8.082031 7.398438 8.078125 7.390625 8.078125 7.375 L 8.078125 7.3125 C 8.078125 7.296875 8.082031 7.28125 8.089844 7.273438 C 8.101562 7.265625 8.109375 7.265625 8.125 7.265625 Z M 7.554688 6.851562 L 7.554688 7.34375 L 7.839844 7.34375 L 7.839844 6.851562 Z M 7.566406 6.765625 L 7.828125 6.765625 C 7.863281 6.765625 7.890625 6.773438 7.90625 6.789062 C 7.925781 6.808594 7.9375 6.832031 7.9375 6.863281 L 7.9375 7.335938 C 7.9375 7.367188 7.925781 7.390625 7.90625 7.40625 C 7.890625 7.421875 7.863281 7.429688 7.828125 7.429688 L 7.566406 7.429688 C 7.53125 7.429688 7.507812 7.421875 7.488281 7.40625 C 7.46875 7.390625 7.460938 7.367188 7.460938 7.335938 L 7.460938 6.863281 C 7.460938 6.832031 7.46875 6.808594 7.488281 6.789062 C 7.507812 6.773438 7.53125 6.765625 7.566406 6.765625 Z M 7.195312 7.265625 L 7.289062 7.265625 C 7.304688 7.265625 7.3125 7.265625 7.320312 7.273438 C 7.332031 7.285156 7.335938 7.296875 7.335938 7.3125 L 7.335938 7.375 C 7.335938 7.390625 7.332031 7.398438 7.324219 7.40625 C 7.3125 7.417969 7.304688 7.421875 7.289062 7.421875 L 7.195312 7.421875 C 7.179688 7.421875 7.167969 7.417969 7.160156 7.40625 C 7.148438 7.398438 7.148438 7.390625 7.148438 7.375 L 7.148438 7.3125 C 7.148438 7.296875 7.148438 7.28125 7.160156 7.273438 C 7.167969 7.265625 7.179688 7.265625 7.195312 7.265625 Z M 6.53125 6.765625 L 6.859375 6.765625 C 6.882812 6.765625 6.90625 6.773438 6.925781 6.789062 C 6.945312 6.808594 6.953125 6.828125 6.953125 6.851562 L 6.953125 7.054688 C 6.953125 7.078125 6.945312 7.101562 6.925781 7.117188 C 6.90625 7.132812 6.882812 7.140625 6.859375 7.140625 L 6.578125 7.140625 L 6.578125 7.34375 L 6.898438 7.34375 C 6.914062 7.34375 6.929688 7.351562 6.9375 7.359375 C 6.949219 7.367188 6.953125 7.375 6.953125 7.390625 C 6.953125 7.402344 6.949219 7.414062 6.9375 7.421875 C 6.929688 7.429688 6.914062 7.433594 6.898438 7.433594 L 6.476562 7.433594 L 6.476562 7.140625 C 6.476562 7.117188 6.488281 7.101562 6.507812 7.082031 C 6.523438 7.0625 6.546875 7.054688 6.578125 7.054688 L 6.859375 7.054688 L 6.859375 6.851562 L 6.53125 6.851562 C 6.515625 6.851562 6.503906 6.851562 6.492188 6.84375 C 6.484375 6.835938 6.480469 6.824219 6.480469 6.8125 C 6.480469 6.796875 6.484375 6.789062 6.492188 6.78125 C 6.507812 6.773438 6.515625 6.765625 6.53125 6.765625 Z M 6.53125 6.765625 "/>
<path style=" stroke:none;fill-rule:nonzero;fill:rgb(100%,100%,100%);fill-opacity:1;" d="M 6.261719 7.460938 L 6.265625 7.46875 C 6.273438 7.492188 6.292969 7.515625 6.3125 7.535156 C 6.335938 7.550781 6.359375 7.5625 6.382812 7.570312 C 6.40625 7.578125 6.429688 7.582031 6.453125 7.582031 L 6.78125 7.582031 C 6.8125 7.582031 6.84375 7.578125 6.875 7.5625 C 6.90625 7.554688 6.929688 7.539062 6.953125 7.515625 C 6.972656 7.5 6.988281 7.484375 7 7.460938 Z M 7.257812 7.460938 C 7.269531 7.484375 7.285156 7.5 7.300781 7.515625 L 7.304688 7.515625 C 7.351562 7.5625 7.414062 7.582031 7.492188 7.582031 L 7.75 7.582031 C 7.785156 7.582031 7.816406 7.578125 7.84375 7.570312 C 7.882812 7.554688 7.914062 7.539062 7.9375 7.515625 C 7.953125 7.5 7.96875 7.484375 7.984375 7.460938 Z M 8.265625 7.460938 C 8.277344 7.484375 8.289062 7.5 8.308594 7.515625 C 8.335938 7.539062 8.363281 7.554688 8.398438 7.570312 C 8.429688 7.578125 8.460938 7.582031 8.496094 7.582031 L 8.757812 7.582031 C 8.789062 7.582031 8.820312 7.578125 8.851562 7.570312 C 8.886719 7.554688 8.917969 7.539062 8.945312 7.515625 C 8.953125 7.507812 8.960938 7.5 8.96875 7.488281 C 8.980469 7.507812 8.992188 7.523438 9.015625 7.535156 C 9.03125 7.550781 9.054688 7.5625 9.078125 7.570312 C 9.101562 7.578125 9.125 7.582031 9.148438 7.582031 L 9.476562 7.582031 C 9.507812 7.582031 9.539062 7.578125 9.570312 7.5625 C 9.601562 7.554688 9.625 7.539062 9.648438 7.515625 L 9.652344 7.515625 C 9.671875 7.5 9.6875 7.484375 9.695312 7.460938 Z M 8.265625 7.460938 "/>
<path style=" stroke:none;fill-rule:nonzero;fill:rgb(80%,80%,80%);fill-opacity:1;" d="M 6.492188 8.90625 L 8.734375 8.90625 L 8.734375 11.085938 L 6.339844 11.085938 L 6.339844 8.90625 Z M 8.433594 9.175781 L 6.640625 9.175781 L 6.640625 10.8125 L 8.433594 10.8125 Z M 8.433594 9.175781 "/>
<path style=" stroke:none;fill-rule:nonzero;fill:rgb(74.901961%,74.901961%,74.901961%);fill-opacity:1;" d="M 6.492188 11.578125 L 8.734375 11.578125 L 8.734375 13.753906 L 6.339844 13.753906 L 6.339844 11.578125 Z M 8.433594 11.84375 L 6.640625 11.84375 L 6.640625 13.484375 L 8.433594 13.484375 Z M 8.433594 11.84375 "/>
<path style=" stroke:none;fill-rule:nonzero;fill:rgb(69.411765%,69.411765%,69.411765%);fill-opacity:1;" d="M 6.492188 14.257812 L 8.734375 14.257812 L 8.734375 16.4375 L 6.339844 16.4375 L 6.339844 14.257812 Z M 8.433594 14.527344 L 6.640625 14.527344 L 6.640625 16.164062 L 8.433594 16.164062 Z M 8.433594 14.527344 "/>
<path style=" stroke:none;fill-rule:evenodd;fill:rgb(100%,80%,0%);fill-opacity:1;" d="M 15.296875 6.75 L 15.3125 6.75 L 15.3125 6.976562 L 15.296875 6.976562 Z M 15.617188 6.75 L 16.234375 6.75 L 16.234375 6.976562 L 15.617188 6.976562 Z M 15.617188 6.75 "/>
<path style=" stroke:none;fill-rule:evenodd;fill:rgb(90.196078%,100%,67.843137%);fill-opacity:1;" d="M 13.800781 6.75 L 13.820312 6.75 L 13.820312 6.976562 L 13.800781 6.976562 Z M 14.117188 6.75 L 14.734375 6.75 L 14.734375 6.976562 L 14.117188 6.976562 Z M 14.117188 6.75 "/>
<path style=" stroke:none;fill-rule:evenodd;fill:rgb(60.392157%,80%,26.27451%);fill-opacity:1;" d="M 6.617188 11.894531 C 6.507812 11.992188 6.398438 12.09375 6.285156 12.195312 C 6.269531 12.203125 6.273438 12.21875 6.285156 12.230469 C 6.636719 12.585938 6.988281 12.9375 7.339844 13.289062 C 7.351562 13.296875 7.359375 13.296875 7.367188 13.289062 C 7.882812 12.578125 8.355469 11.824219 8.871094 11.113281 C 8.882812 11.066406 8.921875 11.011719 8.859375 11.039062 L 7.273438 12.476562 C 7.257812 12.484375 7.257812 12.484375 7.238281 12.472656 C 7.039062 12.28125 6.84375 12.085938 6.648438 11.898438 C 6.640625 11.890625 6.632812 11.886719 6.617188 11.890625 Z M 6.617188 11.894531 "/>
<path style=" stroke:none;fill-rule:nonzero;fill:url(#linear5);" d="M 14.539062 9.875 C 15.859375 9.875 17.050781 10.339844 17.914062 11.09375 C 18.773438 11.847656 19.308594 12.890625 19.308594 14.039062 C 19.308594 15.1875 18.773438 16.226562 17.914062 16.984375 C 17.050781 17.734375 15.859375 18.203125 14.539062 18.203125 C 13.226562 18.203125 12.035156 17.734375 11.171875 16.980469 L 11.171875 16.984375 C 10.308594 16.226562 9.773438 15.1875 9.773438 14.039062 C 9.773438 12.886719 10.308594 11.847656 11.171875 11.09375 C 12.035156 10.339844 13.226562 9.875 14.539062 9.875 Z M 17.484375 11.46875 C 16.730469 10.8125 15.6875 10.40625 14.539062 10.40625 C 13.390625 10.40625 12.351562 10.8125 11.601562 11.46875 C 10.847656 12.125 10.382812 13.03125 10.382812 14.039062 C 10.382812 15.039062 10.847656 15.949219 11.601562 16.605469 L 11.601562 16.609375 C 12.351562 17.265625 13.390625 17.671875 14.539062 17.671875 C 15.6875 17.671875 16.730469 17.265625 17.484375 16.605469 C 18.234375 15.949219 18.703125 15.039062 18.703125 14.039062 C 18.703125 13.03125 18.234375 12.125 17.484375 11.46875 Z M 17.484375 11.46875 "/>
<path style=" stroke:none;fill-rule:evenodd;fill:rgb(69.803922%,69.803922%,69.803922%);fill-opacity:1;" d="M 14.523438 10.078125 C 16.964844 10.078125 18.945312 11.851562 18.945312 14.039062 C 18.945312 16.226562 16.964844 18 14.523438 18 C 12.078125 18 10.101562 16.226562 10.101562 14.039062 C 10.101562 11.851562 12.078125 10.078125 14.523438 10.078125 Z M 14.523438 10.078125 "/>
<path style=" stroke:none;fill-rule:evenodd;fill:url(#linear6);" d="M 14.523438 10.605469 C 16.640625 10.605469 18.355469 12.140625 18.355469 14.039062 C 18.355469 15.933594 16.640625 17.46875 14.523438 17.46875 C 12.40625 17.46875 10.691406 15.933594 10.691406 14.039062 C 10.691406 12.140625 12.40625 10.605469 14.523438 10.605469 Z M 14.523438 10.605469 "/>
<path style=" stroke:none;fill-rule:evenodd;fill:rgb(60%,100%,100%);fill-opacity:0.00392157;" d="M 15.785156 15.0625 C 17.039062 15.03125 18.039062 14.609375 18.011719 14.121094 C 17.988281 13.632812 16.949219 13.257812 15.695312 13.289062 C 14.4375 13.320312 13.441406 13.742188 13.46875 14.226562 C 13.492188 14.71875 14.53125 15.089844 15.785156 15.0625 Z M 15.785156 15.0625 "/>
<path style=" stroke:none;fill-rule:evenodd;fill:rgb(60%,100%,100%);fill-opacity:0.00784314;" d="M 15.769531 14.996094 C 16.96875 14.972656 17.960938 14.570312 17.9375 14.117188 C 17.914062 13.664062 16.882812 13.335938 15.6875 13.359375 C 14.488281 13.382812 13.535156 13.769531 13.5625 14.21875 C 13.585938 14.671875 14.570312 15.019531 15.769531 14.996094 Z M 15.769531 14.996094 "/>
<path style=" stroke:none;fill-rule:evenodd;fill:rgb(60%,100%,100%);fill-opacity:0.00784314;" d="M 15.75 14.929688 C 16.890625 14.914062 17.882812 14.523438 17.867188 14.109375 C 17.84375 13.695312 16.8125 13.414062 15.675781 13.433594 C 14.535156 13.449219 13.628906 13.796875 13.648438 14.210938 C 13.671875 14.625 14.613281 14.945312 15.75 14.929688 Z M 15.75 14.929688 "/>
<path style=" stroke:none;fill-rule:evenodd;fill:rgb(60%,100%,100%);fill-opacity:0.0117647;" d="M 15.734375 14.867188 C 16.8125 14.859375 17.808594 14.484375 17.789062 14.109375 C 17.769531 13.730469 16.742188 13.496094 15.664062 13.503906 C 14.582031 13.515625 13.71875 13.828125 13.742188 14.203125 C 13.757812 14.578125 14.652344 14.875 15.734375 14.867188 Z M 15.734375 14.867188 "/>
<path style=" stroke:none;fill-rule:evenodd;fill:rgb(60%,100%,100%);fill-opacity:0.0156863;" d="M 15.71875 14.804688 C 16.742188 14.804688 17.734375 14.441406 17.714844 14.101562 C 17.695312 13.765625 16.675781 13.574219 15.65625 13.578125 C 14.632812 13.578125 13.8125 13.855469 13.832031 14.195312 C 13.851562 14.53125 14.695312 14.804688 15.71875 14.804688 Z M 15.71875 14.804688 "/>
<path style=" stroke:none;fill-rule:evenodd;fill:rgb(60%,100%,100%);fill-opacity:0.0156863;" d="M 15.699219 14.742188 C 16.664062 14.746094 17.65625 14.398438 17.640625 14.101562 C 17.625 13.796875 16.609375 13.65625 15.640625 13.648438 C 14.675781 13.644531 13.90625 13.882812 13.921875 14.1875 C 13.9375 14.484375 14.734375 14.734375 15.699219 14.742188 Z M 15.699219 14.742188 "/>
<path style=" stroke:none;fill-rule:evenodd;fill:rgb(60%,100%,100%);fill-opacity:0.0196078;" d="M 15.679688 14.675781 C 16.585938 14.6875 17.578125 14.359375 17.5625 14.09375 C 17.546875 13.828125 16.539062 13.734375 15.632812 13.71875 C 14.71875 13.710938 14 13.914062 14.011719 14.179688 C 14.027344 14.441406 14.773438 14.664062 15.679688 14.675781 Z M 15.679688 14.675781 "/>
<path style=" stroke:none;fill-rule:evenodd;fill:rgb(60%,100%,100%);fill-opacity:0.0196078;" d="M 15.664062 14.609375 C 16.515625 14.632812 17.5 14.316406 17.492188 14.089844 C 17.476562 13.863281 16.46875 13.8125 15.617188 13.789062 C 14.769531 13.773438 14.09375 13.941406 14.101562 14.167969 C 14.117188 14.394531 14.8125 14.59375 15.664062 14.609375 Z M 15.664062 14.609375 "/>
<path style=" stroke:none;fill-rule:evenodd;fill:rgb(60%,100%,100%);fill-opacity:0.0235294;" d="M 15.648438 14.546875 C 16.4375 14.578125 17.421875 14.273438 17.414062 14.085938 C 17.402344 13.898438 16.398438 13.890625 15.609375 13.867188 C 14.816406 13.839844 14.183594 13.972656 14.195312 14.164062 C 14.203125 14.351562 14.855469 14.523438 15.648438 14.546875 Z M 15.648438 14.546875 "/>
<path style=" stroke:none;fill-rule:evenodd;fill:rgb(60%,100%,100%);fill-opacity:0.027451;" d="M 15.632812 14.484375 C 16.363281 14.515625 17.351562 14.234375 17.339844 14.082031 C 17.328125 13.929688 16.328125 13.96875 15.597656 13.9375 C 14.863281 13.90625 14.277344 14 14.285156 14.152344 C 14.296875 14.304688 14.898438 14.453125 15.632812 14.484375 Z M 15.632812 14.484375 "/>
<path style=" stroke:none;fill-rule:evenodd;fill:rgb(60%,100%,100%);fill-opacity:0.027451;" d="M 15.613281 14.421875 C 16.289062 14.460938 17.273438 14.191406 17.265625 14.078125 C 17.257812 13.964844 16.261719 14.046875 15.585938 14.007812 C 14.910156 13.96875 14.371094 14.03125 14.375 14.144531 C 14.382812 14.257812 14.9375 14.382812 15.613281 14.421875 Z M 15.613281 14.421875 "/>
<path style=" stroke:none;fill-rule:evenodd;fill:rgb(60%,100%,100%);fill-opacity:0.0313725;" d="M 15.59375 14.359375 C 16.210938 14.40625 17.195312 14.148438 17.1875 14.074219 C 17.183594 14 16.195312 14.128906 15.578125 14.082031 C 14.960938 14.035156 14.460938 14.058594 14.46875 14.136719 C 14.472656 14.210938 14.976562 14.3125 15.59375 14.359375 Z M 15.59375 14.359375 "/>
<path style=" stroke:none;fill-rule:evenodd;fill:rgb(60%,100%,100%);fill-opacity:0.0352941;" d="M 15.578125 14.292969 C 16.140625 14.34375 17.117188 14.109375 17.117188 14.070312 C 17.109375 14.03125 16.125 14.203125 15.5625 14.152344 C 15.007812 14.101562 14.554688 14.085938 14.558594 14.125 C 14.5625 14.164062 15.019531 14.242188 15.578125 14.292969 Z M 15.578125 14.292969 "/>
<path style=" stroke:none;fill-rule:evenodd;fill:rgb(60%,100%,100%);fill-opacity:0.0352941;" d="M 15.5625 14.226562 C 16.0625 14.289062 17.042969 14.066406 17.039062 14.0625 C 17.039062 14.0625 16.054688 14.285156 15.554688 14.226562 C 15.054688 14.164062 14.648438 14.117188 14.648438 14.117188 C 14.652344 14.117188 15.0625 14.171875 15.5625 14.226562 Z M 15.5625 14.226562 "/>
<path style=" stroke:none;fill-rule:evenodd;fill:rgb(60%,100%,100%);fill-opacity:0.0392157;" d="M 15.546875 14.164062 C 15.988281 14.234375 16.964844 14.023438 16.964844 14.0625 C 16.964844 14.09375 15.984375 14.363281 15.542969 14.296875 C 15.101562 14.226562 14.742188 14.144531 14.742188 14.109375 C 14.742188 14.070312 15.101562 14.097656 15.546875 14.164062 Z M 15.546875 14.164062 "/>
<path style=" stroke:none;fill-rule:evenodd;fill:rgb(60%,100%,100%);fill-opacity:0.0392157;" d="M 15.527344 14.101562 C 15.914062 14.175781 16.890625 13.984375 16.890625 14.054688 C 16.890625 14.128906 15.917969 14.445312 15.53125 14.367188 C 15.148438 14.296875 14.832031 14.175781 14.828125 14.101562 C 14.828125 14.027344 15.140625 14.027344 15.527344 14.101562 Z M 15.527344 14.101562 "/>
<path style=" stroke:none;fill-rule:evenodd;fill:rgb(60%,100%,100%);fill-opacity:0.0431373;" d="M 15.507812 14.039062 C 15.835938 14.117188 16.8125 13.9375 16.8125 14.050781 C 16.820312 14.164062 15.851562 14.523438 15.523438 14.4375 C 15.195312 14.359375 14.925781 14.203125 14.921875 14.09375 C 14.921875 13.980469 15.179688 13.957031 15.507812 14.039062 Z M 15.507812 14.039062 "/>
<path style=" stroke:none;fill-rule:evenodd;fill:rgb(60%,100%,100%);fill-opacity:0.0470588;" d="M 15.492188 13.976562 C 15.761719 14.0625 16.734375 13.898438 16.742188 14.046875 C 16.742188 14.195312 15.78125 14.601562 15.507812 14.515625 C 15.242188 14.425781 15.015625 14.234375 15.015625 14.085938 C 15.007812 13.9375 15.222656 13.886719 15.492188 13.976562 Z M 15.492188 13.976562 "/>
<path style=" stroke:none;fill-rule:evenodd;fill:rgb(60%,100%,100%);fill-opacity:0.00392157;" d="M 14.78125 12.789062 C 14.125 11.828125 13.21875 11.265625 12.757812 11.53125 C 12.296875 11.792969 12.460938 12.785156 13.117188 13.742188 C 13.773438 14.703125 14.675781 15.265625 15.136719 15.003906 C 15.597656 14.742188 15.4375 13.75 14.78125 12.789062 Z M 14.78125 12.789062 "/>
<path style=" stroke:none;fill-rule:evenodd;fill:rgb(60%,100%,100%);fill-opacity:0.00784314;" d="M 14.730469 12.835938 C 14.109375 11.914062 13.21875 11.347656 12.796875 11.589844 C 12.367188 11.835938 12.570312 12.796875 13.191406 13.71875 C 13.8125 14.632812 14.660156 15.179688 15.085938 14.9375 C 15.507812 14.695312 15.351562 13.75 14.730469 12.835938 Z M 14.730469 12.835938 "/>
<path style=" stroke:none;fill-rule:evenodd;fill:rgb(60%,100%,100%);fill-opacity:0.00784314;" d="M 14.679688 12.878906 C 14.09375 12.003906 13.21875 11.429688 12.828125 11.648438 C 12.4375 11.875 12.679688 12.8125 13.265625 13.6875 C 13.851562 14.5625 14.640625 15.09375 15.03125 14.871094 C 15.421875 14.648438 15.261719 13.757812 14.679688 12.878906 Z M 14.679688 12.878906 "/>
<path style=" stroke:none;fill-rule:evenodd;fill:rgb(60%,100%,100%);fill-opacity:0.0117647;" d="M 14.625 12.921875 C 14.074219 12.089844 13.214844 11.507812 12.859375 11.710938 C 12.507812 11.914062 12.789062 12.828125 13.339844 13.660156 C 13.890625 14.492188 14.625 15.007812 14.976562 14.804688 C 15.328125 14.601562 15.171875 13.757812 14.625 12.921875 Z M 14.625 12.921875 "/>
<path style=" stroke:none;fill-rule:evenodd;fill:rgb(60%,100%,100%);fill-opacity:0.0156863;" d="M 14.570312 12.96875 C 14.054688 12.179688 13.210938 11.585938 12.894531 11.773438 C 12.578125 11.953125 12.902344 12.84375 13.414062 13.632812 C 13.929688 14.425781 14.605469 14.921875 14.921875 14.738281 C 15.242188 14.554688 15.085938 13.765625 14.570312 12.96875 Z M 14.570312 12.96875 "/>
<path style=" stroke:none;fill-rule:evenodd;fill:rgb(60%,100%,100%);fill-opacity:0.0156863;" d="M 14.515625 13.015625 C 14.039062 12.265625 13.210938 11.667969 12.929688 11.832031 C 12.640625 11.992188 13.015625 12.855469 13.492188 13.605469 C 13.96875 14.359375 14.585938 14.835938 14.867188 14.671875 C 15.152344 14.507812 14.992188 13.765625 14.515625 13.015625 Z M 14.515625 13.015625 "/>
<path style=" stroke:none;fill-rule:evenodd;fill:rgb(60%,100%,100%);fill-opacity:0.0196078;" d="M 14.460938 13.0625 C 14.023438 12.351562 13.207031 11.75 12.960938 11.890625 C 12.710938 12.035156 13.125 12.867188 13.5625 13.578125 C 14.007812 14.289062 14.566406 14.75 14.8125 14.605469 C 15.0625 14.460938 14.90625 13.773438 14.460938 13.0625 Z M 14.460938 13.0625 "/>
<path style=" stroke:none;fill-rule:evenodd;fill:rgb(60%,100%,100%);fill-opacity:0.0196078;" d="M 14.410156 13.105469 C 14.003906 12.4375 13.207031 11.828125 12.992188 11.953125 C 12.78125 12.074219 13.234375 12.882812 13.640625 13.550781 C 14.046875 14.21875 14.550781 14.664062 14.761719 14.539062 C 14.976562 14.414062 14.820312 13.773438 14.410156 13.105469 Z M 14.410156 13.105469 "/>
<path style=" stroke:none;fill-rule:evenodd;fill:rgb(60%,100%,100%);fill-opacity:0.0235294;" d="M 14.359375 13.148438 C 13.988281 12.523438 13.203125 11.910156 13.027344 12.011719 C 12.851562 12.117188 13.34375 12.898438 13.71875 13.523438 C 14.085938 14.148438 14.53125 14.574219 14.710938 14.472656 C 14.886719 14.367188 14.726562 13.777344 14.359375 13.148438 Z M 14.359375 13.148438 "/>
<path style=" stroke:none;fill-rule:evenodd;fill:rgb(60%,100%,100%);fill-opacity:0.027451;" d="M 14.304688 13.195312 C 13.96875 12.609375 13.203125 11.992188 13.0625 12.070312 C 12.917969 12.15625 13.457031 12.910156 13.789062 13.496094 C 14.125 14.082031 14.515625 14.488281 14.65625 14.40625 C 14.796875 14.324219 14.640625 13.78125 14.304688 13.195312 Z M 14.304688 13.195312 "/>
<path style=" stroke:none;fill-rule:evenodd;fill:rgb(60%,100%,100%);fill-opacity:0.027451;" d="M 14.25 13.242188 C 13.953125 12.699219 13.203125 12.070312 13.09375 12.132812 C 12.988281 12.195312 13.570312 12.925781 13.867188 13.46875 C 14.164062 14.015625 14.496094 14.402344 14.601562 14.339844 C 14.710938 14.277344 14.554688 13.785156 14.25 13.242188 Z M 14.25 13.242188 "/>
<path style=" stroke:none;fill-rule:evenodd;fill:rgb(60%,100%,100%);fill-opacity:0.0313725;" d="M 14.195312 13.289062 C 13.933594 12.785156 13.195312 12.148438 13.125 12.195312 C 13.054688 12.234375 13.679688 12.9375 13.941406 13.441406 C 14.203125 13.945312 14.476562 14.316406 14.546875 14.273438 C 14.617188 14.230469 14.460938 13.789062 14.195312 13.289062 Z M 14.195312 13.289062 "/>
<path style=" stroke:none;fill-rule:evenodd;fill:rgb(60%,100%,100%);fill-opacity:0.0352941;" d="M 14.144531 13.332031 C 13.917969 12.871094 13.195312 12.230469 13.160156 12.253906 C 13.125 12.273438 13.789062 12.953125 14.015625 13.414062 C 14.242188 13.875 14.460938 14.230469 14.492188 14.207031 C 14.53125 14.1875 14.375 13.792969 14.144531 13.332031 Z M 14.144531 13.332031 "/>
<path style=" stroke:none;fill-rule:evenodd;fill:rgb(60%,100%,100%);fill-opacity:0.0352941;" d="M 14.09375 13.375 C 13.898438 12.960938 13.195312 12.3125 13.195312 12.3125 C 13.195312 12.316406 13.898438 12.96875 14.09375 13.386719 C 14.285156 13.804688 14.441406 14.140625 14.441406 14.140625 C 14.441406 14.140625 14.285156 13.796875 14.09375 13.375 Z M 14.09375 13.375 "/>
<path style=" stroke:none;fill-rule:evenodd;fill:rgb(60%,100%,100%);fill-opacity:0.0392157;" d="M 14.039062 13.421875 C 13.882812 13.046875 13.191406 12.390625 13.226562 12.375 C 13.261719 12.355469 14.007812 12.980469 14.167969 13.359375 C 14.324219 13.734375 14.421875 14.054688 14.386719 14.074219 C 14.351562 14.09375 14.195312 13.800781 14.039062 13.421875 Z M 14.039062 13.421875 "/>
<path style=" stroke:none;fill-rule:evenodd;fill:rgb(60%,100%,100%);fill-opacity:0.0392157;" d="M 13.984375 13.46875 C 13.863281 13.132812 13.1875 12.472656 13.257812 12.433594 C 13.328125 12.398438 14.121094 12.996094 14.242188 13.332031 C 14.363281 13.667969 14.40625 13.96875 14.335938 14.007812 C 14.261719 14.046875 14.109375 13.804688 13.984375 13.46875 Z M 13.984375 13.46875 "/>
<path style=" stroke:none;fill-rule:evenodd;fill:rgb(60%,100%,100%);fill-opacity:0.0431373;" d="M 13.933594 13.511719 C 13.847656 13.21875 13.1875 12.550781 13.292969 12.492188 C 13.398438 12.4375 14.234375 13.007812 14.316406 13.300781 C 14.402344 13.59375 14.386719 13.882812 14.28125 13.9375 C 14.171875 14 14.015625 13.804688 13.933594 13.511719 Z M 13.933594 13.511719 "/>
<path style=" stroke:none;fill-rule:evenodd;fill:rgb(60%,100%,100%);fill-opacity:0.0470588;" d="M 13.878906 13.558594 C 13.828125 13.304688 13.1875 12.632812 13.328125 12.554688 C 13.46875 12.476562 14.34375 13.023438 14.390625 13.273438 C 14.441406 13.53125 14.367188 13.796875 14.226562 13.875 C 14.085938 13.953125 13.929688 13.8125 13.878906 13.558594 Z M 13.878906 13.558594 "/>
<path style=" stroke:none;fill-rule:evenodd;fill:rgb(100%,100%,100%);fill-opacity:1;" d="M 14.523438 10.078125 C 16.9375 10.078125 18.898438 11.8125 18.945312 13.964844 C 18.691406 11.992188 16.820312 10.460938 14.550781 10.460938 C 12.109375 10.460938 10.128906 12.234375 10.128906 14.421875 L 10.132812 14.492188 C 10.109375 14.34375 10.101562 14.191406 10.101562 14.039062 C 10.101562 11.851562 12.078125 10.078125 14.523438 10.078125 Z M 14.523438 10.078125 "/>
<path style=" stroke:none;fill-rule:evenodd;fill:rgb(100%,100%,100%);fill-opacity:1;" d="M 14.476562 17.804688 C 17.398438 17.726562 18.574219 16.175781 18.613281 14.023438 C 18.382812 15.992188 16.679688 17.496094 14.5 17.496094 C 12.320312 17.496094 10.453125 15.75 10.453125 13.566406 L 10.453125 13.492188 C 10.4375 13.640625 10.523438 12.695312 10.425781 13.949219 C 10.332031 15.203125 11.550781 17.886719 14.476562 17.804688 Z M 14.476562 17.804688 "/>
<path style=" stroke:none;fill-rule:evenodd;fill:url(#linear7);" d="M 14.484375 11.007812 C 16.242188 11.007812 17.6875 12.207031 17.859375 13.742188 C 17.0625 14.0625 16.019531 14.257812 14.875 14.257812 C 13.34375 14.257812 11.988281 13.910156 11.171875 13.375 C 11.515625 12.023438 12.867188 11.007812 14.484375 11.007812 Z M 14.484375 11.007812 "/>
<path style=" stroke:none;fill-rule:evenodd;fill:rgb(73.333333%,90.196078%,100%);fill-opacity:1;" d="M 12.898438 12.25 L 13.203125 12.046875 L 15.007812 14.273438 L 14.703125 14.46875 Z M 12.898438 12.25 "/>
<path style=" stroke:none;fill-rule:evenodd;fill:rgb(73.333333%,90.196078%,100%);fill-opacity:1;" d="M 16.875 13.9375 L 16.890625 14.226562 L 13.929688 14.222656 L 13.914062 13.933594 "/>
<path style=" stroke:none;fill-rule:evenodd;fill:url(#linear8);" d="M 14.453125 14.277344 L 14.765625 14.277344 L 14.765625 16.566406 L 14.453125 16.566406 Z M 14.453125 14.277344 "/>
<path style=" stroke:none;fill-rule:evenodd;fill:url(#linear9);" d="M 13.558594 8.582031 L 15.992188 8.582031 L 15.992188 9.492188 L 13.558594 9.492188 Z M 13.558594 8.582031 "/>
<path style=" stroke:none;fill-rule:evenodd;fill:url(#linear10);" d="M 13.179688 8.460938 L 16.085938 8.449219 L 16.085938 9.480469 L 13.179688 9.492188 "/>
<path style=" stroke:none;fill-rule:evenodd;fill:rgb(100%,100%,100%);fill-opacity:1;" d="M 14.144531 8.59375 L 15.0625 8.59375 L 15.0625 9.335938 L 14.144531 9.335938 Z M 14.144531 8.59375 "/>
<path style=" stroke:none;fill-rule:evenodd;fill:rgb(60%,60%,60%);fill-opacity:1;" d="M 15.050781 8.644531 L 15.417969 8.644531 L 15.417969 9.386719 L 15.050781 9.386719 Z M 15.050781 8.644531 "/>
<path style=" stroke:none;fill-rule:evenodd;fill:rgb(60%,60%,60%);fill-opacity:0.439216;" d="M 14.167969 8.65625 L 13.878906 8.65625 L 13.878906 9.398438 L 14.167969 9.398438 "/>
<path style=" stroke:none;fill-rule:nonzero;fill:rgb(49.803922%,49.803922%,49.803922%);fill-opacity:1;" d="M 13.398438 8.582031 L 15.972656 8.582031 L 15.972656 9.625 L 13.25 9.625 L 13.25 8.582031 Z M 15.671875 8.851562 L 13.546875 8.851562 L 13.546875 9.355469 L 15.671875 9.355469 Z M 15.671875 8.851562 "/>
<path style=" stroke:none;fill-rule:evenodd;fill:rgb(40%,40%,40%);fill-opacity:1;" d="M 13.851562 9.570312 L 15.195312 9.570312 L 15.195312 9.875 L 13.851562 9.875 Z M 13.851562 9.570312 "/>
<path style=" stroke:none;fill-rule:evenodd;fill:rgb(73.333333%,90.196078%,100%);fill-opacity:1;" d="M 14.46875 16.859375 L 14.789062 16.859375 L 14.789062 17.15625 L 14.46875 17.15625 Z M 14.46875 16.859375 "/>
<path style=" stroke:none;fill-rule:evenodd;fill:rgb(73.333333%,90.196078%,100%);fill-opacity:1;" d="M 11.148438 13.929688 L 11.46875 13.929688 L 11.46875 14.226562 L 11.148438 14.226562 Z M 11.148438 13.929688 "/>
<path style=" stroke:none;fill-rule:evenodd;fill:rgb(73.333333%,90.196078%,100%);fill-opacity:1;" d="M 14.453125 10.992188 L 14.777344 10.992188 L 14.777344 11.285156 L 14.453125 11.285156 Z M 14.453125 10.992188 "/>
<path style=" stroke:none;fill-rule:evenodd;fill:rgb(73.333333%,90.196078%,100%);fill-opacity:1;" d="M 17.460938 13.929688 L 17.785156 13.929688 L 17.785156 14.226562 L 17.460938 14.226562 Z M 17.460938 13.929688 "/>
<path style=" stroke:none;fill-rule:evenodd;fill:rgb(73.333333%,90.196078%,100%);fill-opacity:1;" d="M 12.054688 16.109375 L 12.375 16.109375 L 12.375 16.402344 L 12.054688 16.402344 Z M 12.054688 16.109375 "/>
<path style=" stroke:none;fill-rule:evenodd;fill:rgb(73.333333%,90.196078%,100%);fill-opacity:1;" d="M 16.53125 16.109375 L 16.851562 16.109375 L 16.851562 16.402344 L 16.53125 16.402344 Z M 16.53125 16.109375 "/>
<path style=" stroke:none;fill-rule:evenodd;fill:rgb(73.333333%,90.196078%,100%);fill-opacity:1;" d="M 12.054688 11.828125 L 12.375 11.828125 L 12.375 12.121094 L 12.054688 12.121094 Z M 12.054688 11.828125 "/>
<path style=" stroke:none;fill-rule:evenodd;fill:rgb(73.333333%,90.196078%,100%);fill-opacity:1;" d="M 16.53125 11.828125 L 16.851562 11.828125 L 16.851562 12.121094 L 16.53125 12.121094 Z M 16.53125 11.828125 "/>
<path style=" stroke:none;fill-rule:evenodd;fill:rgb(60.392157%,80%,26.27451%);fill-opacity:1;" d="M 6.617188 14.65625 C 6.507812 14.757812 6.398438 14.859375 6.285156 14.957031 C 6.269531 14.96875 6.273438 14.980469 6.285156 14.992188 C 6.636719 15.347656 6.988281 15.703125 7.339844 16.054688 C 7.351562 16.0625 7.359375 16.0625 7.367188 16.054688 C 7.882812 15.34375 8.355469 14.585938 8.871094 13.875 C 8.882812 13.828125 8.921875 13.773438 8.859375 13.804688 L 7.273438 15.242188 C 7.257812 15.25 7.257812 15.25 7.238281 15.238281 C 7.039062 15.046875 6.84375 14.851562 6.648438 14.660156 C 6.640625 14.652344 6.632812 14.648438 6.617188 14.65625 Z M 6.617188 14.65625 "/>
</g>
</svg>
