
<svg xmlns="http://www.w3.org/2000/svg" xmlns:xlink="http://www.w3.org/1999/xlink" width="24px" height="24px" viewBox="0 0 24 24" version="1.1">
<g id="surface1">
<path style=" stroke:none;fill-rule:nonzero;fill:rgb(100%,54.901961%,0%);fill-opacity:1;" d="M 20.585938 4.371094 C -4.28125 -14.390625 -7.816406 37.238281 17.570312 20.671875 C 23.355469 16.894531 27.171875 9.339844 20.585938 4.371094 Z M 20.585938 4.371094 "/>
<path style=" stroke:none;fill-rule:nonzero;fill:rgb(95.686275%,64.313725%,37.647059%);fill-opacity:1;" d="M 10.195312 19.464844 C 8.773438 19.183594 7.710938 18.632812 6.550781 17.566406 C 5.886719 16.960938 5.132812 15.921875 4.8125 15.171875 C 4.421875 14.269531 4.34375 13.816406 4.34375 12.410156 C 4.34375 11.265625 4.367188 11.03125 4.511719 10.53125 C 5.21875 8.128906 7.234375 6.195312 9.710938 5.539062 C 10.5625 5.316406 12.101562 5.261719 12.957031 5.425781 C 14.523438 5.730469 15.523438 6.246094 16.714844 7.355469 C 17.457031 8.050781 17.882812 8.601562 18.277344 9.371094 C 18.75 10.289062 18.863281 10.800781 18.902344 12.222656 C 18.949219 13.851562 18.792969 14.589844 18.164062 15.714844 C 17.785156 16.390625 17.546875 16.703125 16.914062 17.34375 C 15.753906 18.519531 14.546875 19.164062 12.957031 19.464844 C 12.277344 19.59375 10.859375 19.59375 10.195312 19.464844 Z M 12.90625 17.5 C 14.679688 17.136719 16.273438 15.621094 16.8125 13.792969 C 17.011719 13.117188 16.988281 11.625 16.765625 10.957031 C 16.210938 9.273438 14.855469 7.96875 13.128906 7.453125 C 12.789062 7.351562 12.449219 7.324219 11.539062 7.328125 C 10.441406 7.335938 10.351562 7.34375 9.773438 7.554688 C 8.96875 7.851562 8.414062 8.230469 7.679688 8.988281 C 6.671875 10.023438 6.289062 11.023438 6.296875 12.59375 C 6.304688 13.742188 6.675781 14.75 7.433594 15.664062 C 8.25 16.648438 9.320312 17.328125 10.382812 17.535156 C 10.886719 17.632812 12.363281 17.613281 12.90625 17.5 Z M 8.890625 15.886719 C 8.390625 15.757812 8.074219 15.269531 8.15625 14.753906 C 8.199219 14.480469 8.316406 14.335938 9.203125 13.460938 C 9.75 12.917969 10.195312 12.445312 10.195312 12.410156 C 10.195312 12.375 9.746094 11.902344 9.195312 11.359375 C 8.574219 10.75 8.175781 10.296875 8.140625 10.167969 C 8.066406 9.871094 8.222656 9.433594 8.488281 9.21875 C 8.664062 9.074219 8.796875 9.03125 9.078125 9.03125 C 9.539062 9.03125 9.75 9.191406 11.410156 10.824219 C 12.628906 12.027344 12.65625 12.0625 12.65625 12.363281 C 12.65625 12.535156 12.609375 12.761719 12.550781 12.867188 C 12.410156 13.132812 9.574219 15.863281 9.441406 15.863281 C 9.386719 15.867188 9.269531 15.878906 9.1875 15.894531 C 9.105469 15.910156 8.972656 15.90625 8.890625 15.886719 Z M 13.738281 15.800781 C 13.410156 15.601562 12.300781 14.464844 12.210938 14.234375 C 11.921875 13.492188 12.574219 12.8125 13.371094 13.019531 C 13.601562 13.082031 13.84375 13.269531 14.433594 13.851562 L 15.195312 14.605469 L 15.195312 14.988281 C 15.195312 15.335938 15.167969 15.398438 14.902344 15.65625 C 14.65625 15.894531 14.566406 15.9375 14.289062 15.9375 C 14.101562 15.9375 13.867188 15.878906 13.738281 15.800781 Z M 12.765625 11.871094 C 12.425781 11.722656 12.242188 11.496094 12.171875 11.121094 C 12.101562 10.753906 12.234375 10.554688 13.097656 9.730469 L 13.847656 9.011719 L 14.273438 9.046875 C 14.660156 9.078125 14.726562 9.109375 14.953125 9.363281 C 15.1875 9.625 15.203125 9.679688 15.175781 10.035156 C 15.144531 10.410156 15.125 10.441406 14.480469 11.074219 C 13.574219 11.96875 13.289062 12.101562 12.765625 11.871094 Z M 12.765625 11.871094 "/>
<path style=" stroke:none;fill-rule:nonzero;fill:rgb(100%,100%,100%);fill-opacity:1;" d="M 10.488281 19.160156 C 8.621094 18.945312 7.050781 18.160156 5.804688 16.820312 C 4.5625 15.480469 3.984375 13.996094 3.980469 12.128906 C 3.976562 9.796875 5.214844 7.59375 7.261719 6.289062 C 8.011719 5.8125 8.558594 5.578125 9.464844 5.34375 C 10.421875 5.097656 12 5.097656 12.96875 5.34375 C 13.765625 5.546875 14.863281 6.050781 15.464844 6.492188 C 16.050781 6.921875 17.089844 8.003906 17.394531 8.5 C 18.128906 9.703125 18.375 10.652344 18.375 12.277344 C 18.375 13.226562 18.351562 13.480469 18.195312 14.023438 C 17.683594 15.847656 16.429688 17.390625 14.710938 18.320312 C 13.5 18.976562 11.804688 19.3125 10.488281 19.160156 Z M 12.5 17.351562 C 14.472656 16.867188 16.054688 15.339844 16.511719 13.480469 C 17.039062 11.339844 16.269531 9.253906 14.460938 7.917969 C 13.574219 7.261719 12.734375 6.972656 11.511719 6.90625 C 9.792969 6.808594 8.375 7.363281 7.203125 8.59375 C 6.609375 9.214844 6.277344 9.734375 6.011719 10.457031 C 5.839844 10.914062 5.808594 11.132812 5.785156 12.007812 C 5.765625 12.789062 5.785156 13.136719 5.878906 13.496094 C 6.253906 14.925781 7.460938 16.332031 8.871094 16.988281 C 9.96875 17.5 11.34375 17.636719 12.5 17.351562 Z M 8.335938 15.429688 C 8 15.285156 7.859375 15.050781 7.859375 14.632812 L 7.859375 14.273438 L 8.902344 13.246094 C 9.476562 12.679688 9.949219 12.191406 9.949219 12.15625 C 9.949219 12.121094 9.476562 11.628906 8.902344 11.0625 C 7.902344 10.070312 7.859375 10.015625 7.859375 9.730469 C 7.859375 9.566406 7.894531 9.355469 7.941406 9.257812 C 8.113281 8.890625 8.695312 8.734375 9.113281 8.949219 C 9.222656 9.003906 9.941406 9.667969 10.710938 10.425781 L 12.109375 11.796875 L 12.109375 12.125 C 12.109375 12.550781 12.070312 12.597656 10.386719 14.207031 C 8.890625 15.632812 8.859375 15.652344 8.335938 15.429688 Z M 12.695312 14.820312 C 12.003906 14.164062 11.945312 14.085938 11.910156 13.78125 C 11.855469 13.316406 12.023438 13.019531 12.402344 12.910156 C 12.933594 12.753906 13.132812 12.847656 13.925781 13.632812 C 14.644531 14.347656 14.644531 14.351562 14.644531 14.714844 C 14.644531 15.019531 14.609375 15.121094 14.429688 15.308594 C 14.242188 15.503906 14.164062 15.53125 13.828125 15.53125 L 13.441406 15.53125 Z M 12.371094 11.472656 C 11.914062 11.269531 11.75 10.761719 11.996094 10.304688 C 12.144531 10.023438 13.347656 8.925781 13.570312 8.871094 C 14.136719 8.734375 14.644531 9.125 14.644531 9.695312 C 14.644531 10.015625 14.621094 10.050781 13.957031 10.714844 C 13.359375 11.3125 12.949219 11.609375 12.726562 11.605469 C 12.695312 11.605469 12.535156 11.542969 12.371094 11.472656 Z M 12.371094 11.472656 "/>
</g>
</svg>
