
<svg xmlns="http://www.w3.org/2000/svg" xmlns:xlink="http://www.w3.org/1999/xlink" width="24px" height="24px" viewBox="0 0 24 24" version="1.1">
<g id="surface1">
<path style=" stroke:none;fill-rule:nonzero;fill:rgb(100%,54.901961%,0%);fill-opacity:1;" d="M 9.277344 23.585938 C -13.023438 18.941406 10.917969 -13.007812 22.25 6.183594 C 27.109375 13.640625 20.746094 25.976562 9.277344 23.585938 Z M 9.277344 23.585938 "/>
<path style=" stroke:none;fill-rule:nonzero;fill:rgb(100%,97.254902%,86.27451%);fill-opacity:0.968627;" d="M 10.453125 19.492188 C 7.152344 18.558594 4.917969 15.664062 4.890625 12.285156 C 4.859375 8.683594 7.320312 5.570312 10.789062 4.820312 C 11.898438 4.585938 12.59375 4.585938 13.71875 4.828125 C 15.914062 5.296875 17.804688 6.796875 18.765625 8.828125 C 19.40625 10.183594 19.546875 10.796875 19.550781 12.21875 C 19.554688 14.335938 18.890625 15.9375 17.390625 17.453125 C 16.347656 18.5 15.285156 19.144531 14.039062 19.484375 C 13.195312 19.710938 11.25 19.71875 10.449219 19.492188 Z M 15.964844 15.953125 C 15.964844 14.175781 15.9375 13.917969 15.742188 13.804688 C 15.421875 13.625 15.101562 13.847656 15 14.320312 L 14.914062 14.726562 L 14.539062 14.367188 L 14.171875 14 L 14.171875 8.292969 L 13.3125 7.441406 C 12.839844 6.976562 12.371094 6.59375 12.273438 6.59375 C 12.171875 6.59375 11.691406 6.953125 11.203125 7.390625 L 10.320312 8.1875 L 10.320312 13.96875 L 9.972656 14.34375 L 9.621094 14.71875 L 9.480469 14.285156 C 9.363281 13.929688 9.273438 13.851562 8.964844 13.851562 C 8.609375 13.851562 8.585938 13.886719 8.507812 14.574219 C 8.460938 14.96875 8.453125 15.867188 8.492188 16.5625 C 8.546875 17.578125 8.601562 17.84375 8.769531 17.890625 C 8.882812 17.921875 10.546875 17.953125 12.46875 17.960938 L 15.964844 17.976562 Z M 15.964844 15.953125 "/>
</g>
</svg>
