
<svg xmlns="http://www.w3.org/2000/svg" xmlns:xlink="http://www.w3.org/1999/xlink" width="24px" height="24px" viewBox="0 0 24 24" version="1.1">
<defs>
<linearGradient id="linear0" gradientUnits="userSpaceOnUse" x1="3" y1="0" x2="45" y2="0" gradientTransform="matrix(0.323559,0,0,0.330817,3.836156,-326.91)">
<stop offset="0" style="stop-color:rgb(0%,60.392157%,75.294118%);stop-opacity:1;"/>
<stop offset="1" style="stop-color:rgb(16.470588%,83.137255%,100%);stop-opacity:1;"/>
</linearGradient>
<linearGradient id="linear1" gradientUnits="userSpaceOnUse" x1="12" y1="0" x2="36" y2="0" gradientTransform="matrix(0.323559,0,0,0.330817,3.836156,-326.91)">
<stop offset="0" style="stop-color:rgb(72.54902%,94.509804%,100%);stop-opacity:1;"/>
<stop offset="1" style="stop-color:rgb(96.078431%,99.215686%,100%);stop-opacity:1;"/>
</linearGradient>
</defs>
<g id="surface1">
<path style=" stroke:none;fill-rule:nonzero;fill:rgb(100%,84.313725%,0%);fill-opacity:1;" d="M 0.339844 13.0625 C 3.042969 35.324219 36.855469 17.828125 18.871094 3.117188 C 11.390625 -2.921875 -1.757812 1.777344 0.339844 13.0625 Z M 0.339844 13.0625 "/>
<path style=" stroke:none;fill-rule:nonzero;fill:url(#linear0);" d="M 5.777344 6.351562 C 5.351562 6.351562 5 6.699219 5 7.132812 L 5 16.757812 C 5 17.1875 5.351562 17.554688 5.777344 17.546875 L 10.203125 17.546875 L 11.601562 20.085938 L 13 17.546875 L 17.425781 17.546875 C 17.851562 17.546875 18.203125 17.1875 18.203125 16.757812 L 18.203125 7.132812 C 18.203125 6.699219 17.851562 6.351562 17.425781 6.351562 Z M 5.777344 6.351562 "/>
<path style=" stroke:none;fill-rule:nonzero;fill:url(#linear1);" d="M 11.601562 8.261719 C 9.585938 8.261719 7.953125 9.929688 7.953125 11.992188 C 7.953125 14.054688 9.585938 15.726562 11.601562 15.726562 C 13.617188 15.726562 15.25 14.054688 15.25 11.992188 C 15.25 9.933594 13.617188 8.261719 11.601562 8.261719 Z M 10.234375 13.859375 L 10.234375 10.125 L 13.882812 11.992188 Z M 10.234375 13.859375 "/>
</g>
</svg>
