
<svg xmlns="http://www.w3.org/2000/svg" xmlns:xlink="http://www.w3.org/1999/xlink" width="24px" height="24px" viewBox="0 0 24 24" version="1.1">
<defs>
<linearGradient id="linear0" gradientUnits="userSpaceOnUse" x1="0" y1="47" x2="0" y2="1" gradientTransform="matrix(0.291222,0,0,0.295243,5.082187,5.11875)">
<stop offset="0" style="stop-color:rgb(82.745098%,30.588235%,18.431373%);stop-opacity:1;"/>
<stop offset="1" style="stop-color:rgb(83.921569%,36.078431%,25.098039%);stop-opacity:1;"/>
</linearGradient>
</defs>
<g id="surface1">
<path style=" stroke:none;fill-rule:nonzero;fill:rgb(82.745098%,82.745098%,82.745098%);fill-opacity:1;" d="M 11.09375 0.34375 C 25.648438 -1.019531 29.570312 21.957031 14.617188 23.742188 C 0.875 25.953125 -6.203125 5.125 7.453125 0.960938 C 8.609375 0.503906 9.871094 0.511719 11.09375 0.34375 Z M 11.09375 0.34375 "/>
<path style=" stroke:none;fill-rule:nonzero;fill:rgb(0%,0%,0%);fill-opacity:0.0509804;" d="M 15.65625 6.59375 C 17.363281 7.796875 18.476562 9.792969 18.476562 12.054688 C 18.476562 15.726562 15.546875 18.699219 11.925781 18.699219 C 9.691406 18.699219 7.71875 17.570312 6.539062 15.839844 C 6.839844 16.375 7.210938 16.875 7.640625 17.304688 C 8.828125 18.402344 10.410156 19.070312 12.144531 19.070312 C 15.84375 19.070312 18.84375 16.03125 18.84375 12.28125 C 18.84375 10.523438 18.1875 8.917969 17.101562 7.710938 C 16.675781 7.273438 16.1875 6.898438 15.65625 6.59375 Z M 17.101562 7.710938 C 18.226562 8.925781 18.914062 10.554688 18.914062 12.351562 C 18.914062 16.101562 15.914062 19.140625 12.21875 19.140625 C 10.445312 19.140625 8.835938 18.445312 7.640625 17.304688 C 8.851562 18.53125 10.515625 19.289062 12.359375 19.289062 C 16.0625 19.289062 19.0625 16.25 19.0625 12.5 C 19.0625 10.628906 18.3125 8.9375 17.101562 7.710938 Z M 17.101562 7.710938 "/>
<path style=" stroke:none;fill-rule:nonzero;fill:rgb(0%,0%,0%);fill-opacity:0.101961;" d="M 17.101562 7.710938 C 18.1875 8.917969 18.84375 10.519531 18.84375 12.28125 C 18.84375 16.03125 15.84375 19.070312 12.144531 19.070312 C 10.410156 19.070312 8.828125 18.402344 7.640625 17.304688 C 8.835938 18.445312 10.445312 19.140625 12.21875 19.140625 C 15.914062 19.140625 18.914062 16.101562 18.914062 12.351562 C 18.914062 10.554688 18.226562 8.925781 17.101562 7.710938 Z M 17.101562 7.710938 "/>
<path style=" stroke:none;fill-rule:nonzero;fill:rgb(0%,0%,0%);fill-opacity:0.2;" d="M 14.183594 5.820312 C 16.691406 6.75 18.476562 9.191406 18.476562 12.058594 C 18.476562 15.726562 15.546875 18.703125 11.925781 18.703125 C 9.101562 18.703125 6.691406 16.890625 5.773438 14.34375 C 6.789062 17.515625 9.929688 19.472656 13.179688 18.960938 C 16.429688 18.445312 18.828125 15.617188 18.84375 12.28125 C 18.839844 9.328125 16.957031 6.71875 14.183594 5.820312 Z M 14.183594 5.820312 "/>
<path style=" stroke:none;fill-rule:nonzero;fill:url(#linear0);" d="M 12.070312 5.414062 C 8.375 5.414062 5.375 8.453125 5.375 12.203125 L 12.070312 12.203125 Z M 12.070312 12.203125 L 12.070312 18.996094 C 15.773438 18.996094 18.769531 15.953125 18.769531 12.203125 Z M 12.070312 12.203125 "/>
<path style=" stroke:none;fill-rule:nonzero;fill:rgb(0%,0%,0%);fill-opacity:0.101961;" d="M 18.359375 9.867188 C 18.398438 9.972656 18.4375 10.078125 18.46875 10.183594 C 18.4375 10.078125 18.398438 9.972656 18.359375 9.867188 Z M 12.363281 12.203125 L 12.363281 12.5 L 18.757812 12.5 C 18.765625 12.398438 18.769531 12.304688 18.769531 12.203125 Z M 12.363281 12.203125 "/>
<path style=" stroke:none;fill-rule:nonzero;fill:rgb(0%,0%,0%);fill-opacity:0.101961;" d="M 12.070312 12.5 L 12.070312 18.996094 C 12.167969 18.996094 12.265625 18.992188 12.363281 18.984375 L 12.363281 12.5 "/>
<path style=" stroke:none;fill-rule:nonzero;fill:rgb(17.647059%,17.647059%,17.647059%);fill-opacity:1;" d="M 12.070312 5.414062 L 12.070312 12.203125 L 18.769531 12.203125 C 18.769531 8.453125 15.773438 5.414062 12.070312 5.414062 Z M 12.070312 5.414062 "/>
<path style=" stroke:none;fill-rule:nonzero;fill:rgb(17.647059%,17.647059%,17.647059%);fill-opacity:1;" d="M 5.375 12.203125 C 5.375 15.953125 8.375 18.996094 12.070312 18.996094 L 12.070312 12.203125 L 5.375 12.203125 "/>
<path style=" stroke:none;fill-rule:nonzero;fill:rgb(0%,0%,0%);fill-opacity:0.101961;" d="M 16.742188 7.34375 C 17.820312 8.546875 18.476562 10.148438 18.476562 11.910156 C 18.476562 15.660156 15.476562 18.699219 11.78125 18.699219 C 10.046875 18.699219 8.464844 18.03125 7.273438 16.9375 C 8.492188 18.203125 10.1875 18.996094 12.070312 18.996094 C 15.773438 18.996094 18.769531 15.953125 18.769531 12.203125 C 18.769531 10.296875 17.992188 8.578125 16.742188 7.34375 Z M 16.742188 7.34375 "/>
</g>
</svg>
