
<svg xmlns="http://www.w3.org/2000/svg" xmlns:xlink="http://www.w3.org/1999/xlink" width="24px" height="24px" viewBox="0 0 24 24" version="1.1">
<g id="surface1">
<path style=" stroke:none;fill-rule:nonzero;fill:rgb(18.431373%,30.980392%,30.980392%);fill-opacity:1;" d="M 19.867188 19.46875 C 10.15625 32.242188 -7.695312 15.101562 3.648438 3.914062 C 13.34375 -7.367188 32.394531 8.773438 19.867188 19.46875 Z M 19.867188 19.46875 "/>
<path style=" stroke:none;fill-rule:nonzero;fill:rgb(100%,100%,100%);fill-opacity:1;" d="M 7.1875 6.128906 C 6.902344 6.128906 6.6875 6.15625 6.546875 6.226562 C 6.40625 6.289062 6.320312 6.398438 6.273438 6.53125 C 6.230469 6.664062 6.210938 6.945312 6.210938 7.375 L 6.210938 9.96875 C 6.210938 10.398438 6.230469 10.679688 6.273438 10.8125 C 6.320312 10.945312 6.414062 11.039062 6.546875 11.109375 C 6.6875 11.179688 6.898438 11.21875 7.1875 11.21875 L 7.507812 11.21875 L 7.507812 10.554688 C 7.363281 10.554688 7.269531 10.539062 7.226562 10.515625 C 7.1875 10.5 7.15625 10.46875 7.140625 10.410156 C 7.125 10.351562 7.125 10.203125 7.125 9.972656 L 7.125 7.375 C 7.125 7.125 7.132812 6.964844 7.152344 6.914062 C 7.171875 6.859375 7.195312 6.832031 7.234375 6.820312 C 7.28125 6.804688 7.375 6.792969 7.507812 6.792969 L 7.507812 6.128906 Z M 8.246094 6.128906 L 7.710938 11.21875 L 8.792969 11.21875 L 8.859375 10.304688 L 9.234375 10.304688 L 9.289062 11.21875 L 10.367188 11.21875 L 9.765625 6.128906 L 8.242188 6.128906 Z M 13.273438 6.128906 L 13.273438 11.21875 L 14.492188 11.21875 C 14.914062 11.21875 15.195312 11.183594 15.328125 11.125 C 15.46875 11.0625 15.5625 10.945312 15.625 10.777344 C 15.6875 10.613281 15.71875 10.359375 15.71875 10.019531 L 15.71875 9.546875 C 15.71875 9.214844 15.679688 8.96875 15.59375 8.8125 C 15.507812 8.648438 15.335938 8.535156 15.09375 8.46875 C 15.3125 8.40625 15.464844 8.3125 15.539062 8.195312 C 15.613281 8.078125 15.640625 7.875 15.640625 7.578125 C 15.640625 7.140625 15.59375 6.828125 15.492188 6.632812 C 15.386719 6.429688 15.25 6.292969 15.078125 6.226562 C 14.90625 6.164062 14.652344 6.132812 14.320312 6.132812 L 13.273438 6.132812 Z M 15.980469 6.128906 L 15.980469 6.792969 C 16.117188 6.792969 16.203125 6.804688 16.246094 6.816406 C 16.289062 6.832031 16.320312 6.859375 16.339844 6.914062 C 16.359375 6.964844 16.367188 7.125 16.367188 7.375 L 16.367188 9.96875 C 16.367188 10.203125 16.367188 10.351562 16.351562 10.410156 C 16.335938 10.46875 16.304688 10.5 16.265625 10.515625 C 16.226562 10.535156 16.128906 10.554688 15.980469 10.554688 L 15.980469 11.21875 L 16.304688 11.21875 C 16.59375 11.21875 16.804688 11.179688 16.945312 11.109375 C 17.082031 11.039062 17.171875 10.945312 17.21875 10.8125 C 17.257812 10.679688 17.28125 10.398438 17.28125 9.96875 L 17.28125 7.375 C 17.28125 6.945312 17.257812 6.664062 17.21875 6.53125 C 17.171875 6.398438 17.085938 6.289062 16.945312 6.226562 C 16.800781 6.15625 16.585938 6.128906 16.304688 6.128906 Z M 14.320312 6.992188 C 14.429688 7 14.5 7.015625 14.539062 7.03125 C 14.578125 7.046875 14.609375 7.085938 14.632812 7.148438 C 14.65625 7.210938 14.671875 7.320312 14.671875 7.484375 C 14.671875 7.78125 14.648438 7.960938 14.625 8.027344 C 14.59375 8.089844 14.539062 8.125 14.433594 8.125 C 14.410156 8.125 14.367188 8.132812 14.320312 8.132812 Z M 11.398438 7.160156 L 11.398438 8.289062 L 10.492188 8.289062 L 10.492188 9.058594 L 11.398438 9.058594 L 11.398438 10.1875 L 12 10.1875 L 12 9.058594 L 12.90625 9.058594 L 12.90625 8.289062 L 12 8.289062 L 12 7.160156 Z M 9.046875 7.265625 C 9.101562 8.113281 9.15625 8.828125 9.210938 9.402344 L 8.851562 9.402344 C 8.875 8.953125 8.941406 8.242188 9.046875 7.265625 Z M 14.320312 8.914062 C 14.476562 8.921875 14.578125 8.953125 14.613281 9 C 14.648438 9.046875 14.671875 9.171875 14.671875 9.390625 L 14.671875 9.863281 C 14.671875 10.070312 14.644531 10.203125 14.601562 10.253906 C 14.5625 10.304688 14.46875 10.332031 14.320312 10.335938 Z M 5.414062 12.546875 L 5.414062 13.460938 L 18.074219 13.460938 L 18.074219 12.546875 Z M 11.367188 15.15625 L 11.367188 15.554688 L 12 15.554688 L 12 15.15625 Z M 10.5 15.664062 C 10.367188 15.664062 10.242188 15.683594 10.140625 15.734375 C 10.039062 15.789062 9.976562 15.867188 9.933594 15.960938 C 9.890625 16.054688 9.867188 16.210938 9.867188 16.410156 C 9.867188 16.554688 9.886719 16.675781 9.925781 16.78125 C 9.964844 16.882812 10.078125 16.996094 10.257812 17.125 C 10.46875 17.273438 10.589844 17.351562 10.613281 17.382812 C 10.632812 17.414062 10.640625 17.488281 10.640625 17.609375 C 10.640625 17.695312 10.632812 17.757812 10.613281 17.789062 C 10.59375 17.8125 10.570312 17.820312 10.53125 17.820312 C 10.488281 17.820312 10.457031 17.804688 10.445312 17.765625 C 10.429688 17.722656 10.421875 17.636719 10.421875 17.5 L 10.421875 17.347656 L 9.886719 17.347656 L 9.886719 17.46875 C 9.886719 17.679688 9.902344 17.835938 9.945312 17.9375 C 9.984375 18.042969 10.0625 18.117188 10.171875 18.179688 C 10.28125 18.238281 10.421875 18.273438 10.578125 18.273438 C 10.714844 18.273438 10.835938 18.242188 10.933594 18.1875 C 11.03125 18.132812 11.101562 18.054688 11.140625 17.953125 C 11.183594 17.847656 11.207031 17.683594 11.207031 17.476562 C 11.207031 17.296875 11.179688 17.160156 11.121094 17.0625 C 11.066406 16.96875 10.949219 16.863281 10.773438 16.757812 C 10.640625 16.671875 10.554688 16.609375 10.507812 16.566406 C 10.46875 16.523438 10.445312 16.484375 10.433594 16.445312 C 10.425781 16.410156 10.421875 16.359375 10.421875 16.28125 C 10.421875 16.226562 10.425781 16.179688 10.445312 16.148438 C 10.460938 16.121094 10.484375 16.113281 10.515625 16.113281 C 10.5625 16.113281 10.59375 16.128906 10.601562 16.164062 C 10.613281 16.191406 10.625 16.257812 10.625 16.375 L 10.625 16.515625 L 11.160156 16.515625 L 11.160156 16.363281 C 11.160156 16.234375 11.152344 16.148438 11.140625 16.089844 C 11.132812 16.03125 11.109375 15.960938 11.054688 15.890625 C 11.007812 15.820312 10.933594 15.765625 10.839844 15.722656 C 10.746094 15.679688 10.632812 15.664062 10.5 15.664062 Z M 13.207031 15.664062 C 13.125 15.664062 13.054688 15.6875 12.992188 15.734375 C 12.929688 15.78125 12.867188 15.84375 12.820312 15.9375 L 12.839844 15.710938 L 12.21875 15.710938 L 12.21875 18.226562 L 12.820312 18.226562 L 12.820312 16.53125 C 12.820312 16.339844 12.828125 16.21875 12.839844 16.171875 C 12.851562 16.128906 12.882812 16.117188 12.921875 16.117188 C 12.96875 16.117188 12.992188 16.125 13 16.164062 C 13.007812 16.203125 13.007812 16.308594 13.007812 16.484375 L 13.007812 18.226562 L 13.625 18.226562 L 13.625 16.460938 C 13.625 16.238281 13.613281 16.089844 13.59375 15.996094 C 13.578125 15.898438 13.53125 15.820312 13.460938 15.757812 C 13.398438 15.695312 13.3125 15.664062 13.207031 15.664062 Z M 11.367188 15.710938 L 11.367188 18.226562 L 12 18.226562 L 12 15.710938 Z M 11.367188 15.710938 "/>
</g>
</svg>
