
<svg xmlns="http://www.w3.org/2000/svg" xmlns:xlink="http://www.w3.org/1999/xlink" width="24px" height="24px" viewBox="0 0 24 24" version="1.1">
<g id="surface1">
<path style=" stroke:none;fill-rule:nonzero;fill:rgb(61.960784%,61.960784%,61.960784%);fill-opacity:1;" d="M 21.527344 18.359375 C 30.15625 6.085938 14.21875 -6.351562 4.054688 3.648438 C -5.523438 13.070312 3.355469 27.710938 15.273438 23.136719 C 17.761719 22.179688 19.945312 20.613281 21.527344 18.359375 Z M 21.527344 18.359375 "/>
<path style=" stroke:none;fill-rule:nonzero;fill:rgb(75.294118%,75.294118%,75.294118%);fill-opacity:1;" d="M 6.382812 6.59375 L 17.617188 6.59375 L 17.617188 17.828125 L 6.382812 17.828125 Z M 6.382812 6.59375 "/>
<path style=" stroke:none;fill-rule:nonzero;fill:rgb(100%,100%,100%);fill-opacity:1;" d="M 8.0625 7.144531 L 15.9375 7.144531 C 16.5625 7.144531 17.066406 7.648438 17.066406 8.273438 L 17.066406 16.148438 C 17.066406 16.773438 16.5625 17.277344 15.9375 17.277344 L 8.0625 17.277344 C 7.4375 17.277344 6.933594 16.773438 6.933594 16.148438 L 6.933594 8.273438 C 6.933594 7.648438 7.4375 7.144531 8.0625 7.144531 Z M 8.0625 7.144531 "/>
<path style=" stroke:none;fill-rule:nonzero;fill:rgb(86.27451%,86.27451%,86.27451%);fill-opacity:1;" d="M 8.617188 9.167969 L 15.382812 9.167969 C 15.601562 9.167969 15.78125 9.347656 15.78125 9.570312 C 15.78125 9.789062 15.601562 9.96875 15.382812 9.96875 L 8.617188 9.96875 C 8.398438 9.96875 8.21875 9.789062 8.21875 9.570312 C 8.21875 9.347656 8.398438 9.167969 8.617188 9.167969 Z M 8.617188 9.167969 "/>
<path style=" stroke:none;fill-rule:nonzero;fill:rgb(71.764706%,76.078431%,89.019608%);fill-opacity:1;" d="M 8.617188 10.96875 L 15.382812 10.96875 C 15.601562 10.96875 15.78125 11.148438 15.78125 11.367188 C 15.78125 11.589844 15.601562 11.769531 15.382812 11.769531 L 8.617188 11.769531 C 8.398438 11.769531 8.21875 11.589844 8.21875 11.367188 C 8.21875 11.148438 8.398438 10.96875 8.617188 10.96875 Z M 8.617188 10.96875 "/>
<path style=" stroke:none;fill-rule:nonzero;fill:rgb(82.745098%,82.745098%,82.745098%);fill-opacity:1;" d="M 8.617188 10.96875 L 15.382812 10.96875 C 15.601562 10.96875 15.78125 11.148438 15.78125 11.367188 C 15.78125 11.589844 15.601562 11.769531 15.382812 11.769531 L 8.617188 11.769531 C 8.398438 11.769531 8.21875 11.589844 8.21875 11.367188 C 8.21875 11.148438 8.398438 10.96875 8.617188 10.96875 Z M 8.617188 10.96875 "/>
<path style=" stroke:none;fill-rule:nonzero;fill:rgb(61.960784%,61.960784%,61.960784%);fill-opacity:1;" d="M 8.167969 7.40625 C 7.511719 7.75 7.0625 8.433594 7.0625 9.21875 C 7.0625 10.355469 8 11.273438 9.160156 11.273438 C 10.320312 11.273438 11.257812 10.355469 11.257812 9.21875 C 11.257812 8.433594 10.808594 7.75 10.152344 7.40625 Z M 10.988281 7.40625 C 11.453125 7.867188 11.742188 8.5 11.742188 9.203125 C 11.742188 10.609375 10.578125 11.75 9.140625 11.75 C 8.289062 11.75 7.53125 11.34375 7.054688 10.722656 L 7.054688 11.601562 L 7.082031 11.585938 L 7.132812 11.523438 L 7.378906 11.710938 L 7.335938 11.773438 L 7.261719 11.96875 L 7.21875 12.273438 L 7.398438 12.371094 L 7.640625 12.1875 L 7.777344 12.023438 L 7.8125 11.957031 L 8.101562 12.074219 L 8.070312 12.148438 L 8.054688 12.351562 L 8.097656 12.65625 L 8.292969 12.710938 L 8.484375 12.464844 L 8.570312 12.277344 L 8.585938 12.203125 L 8.898438 12.242188 L 8.890625 12.3125 L 8.921875 12.523438 L 9.042969 12.804688 L 9.246094 12.804688 L 9.367188 12.523438 L 9.402344 12.3125 L 9.394531 12.242188 L 9.703125 12.203125 L 9.71875 12.277344 L 9.804688 12.464844 L 9.996094 12.710938 L 10.191406 12.65625 L 10.234375 12.351562 L 10.210938 12.148438 L 10.1875 12.074219 L 10.476562 11.957031 L 10.511719 12.023438 L 10.640625 12.1875 L 10.890625 12.371094 L 11.066406 12.273438 L 11.027344 11.96875 L 10.953125 11.773438 L 10.910156 11.710938 L 11.15625 11.523438 L 11.207031 11.585938 L 11.378906 11.703125 L 11.671875 11.820312 L 11.8125 11.679688 L 11.691406 11.394531 L 11.570312 11.226562 L 11.507812 11.179688 L 11.703125 10.9375 L 11.765625 10.976562 L 11.964844 11.050781 L 12.273438 11.085938 L 12.375 10.917969 L 12.1875 10.671875 L 12.023438 10.539062 L 11.949219 10.515625 L 12.070312 10.226562 L 12.148438 10.25 L 12.355469 10.273438 L 12.664062 10.230469 L 12.714844 10.039062 L 12.46875 9.851562 L 12.277344 9.765625 L 12.199219 9.75 L 12.242188 9.445312 L 12.320312 9.453125 L 12.523438 9.417969 L 12.8125 9.304688 L 12.8125 9.101562 L 12.523438 8.984375 L 12.320312 8.949219 L 12.242188 8.957031 L 12.199219 8.648438 L 12.277344 8.636719 L 12.46875 8.554688 L 12.714844 8.363281 L 12.664062 8.171875 L 12.355469 8.132812 L 12.148438 8.148438 L 12.070312 8.179688 L 11.949219 7.890625 L 12.023438 7.859375 L 12.1875 7.726562 L 12.375 7.488281 L 12.328125 7.40625 L 11.820312 7.40625 L 11.765625 7.425781 L 11.703125 7.46875 L 11.648438 7.40625 L 10.984375 7.40625 Z M 9.160156 7.695312 C 10.015625 7.695312 10.710938 8.375 10.710938 9.21875 C 10.710938 10.058594 10.015625 10.742188 9.160156 10.742188 C 8.304688 10.742188 7.609375 10.058594 7.609375 9.21875 C 7.609375 8.375 8.304688 7.695312 9.160156 7.695312 Z M 14.117188 10.847656 L 13.984375 11.160156 L 13.945312 11.382812 L 13.953125 11.46875 L 13.609375 11.515625 L 13.59375 11.433594 L 13.5 11.226562 L 13.28125 10.953125 L 13.070312 11.011719 L 13.023438 11.34375 L 13.046875 11.578125 L 13.074219 11.652344 L 12.753906 11.785156 L 12.71875 11.710938 L 12.570312 11.53125 L 12.292969 11.324219 L 12.101562 11.4375 L 12.148438 11.773438 L 12.226562 11.984375 L 12.273438 12.054688 L 12 12.265625 L 11.945312 12.203125 L 11.757812 12.0625 L 11.4375 11.9375 L 11.273438 12.09375 L 11.40625 12.40625 L 11.542969 12.59375 L 11.609375 12.648438 L 11.398438 12.921875 L 11.328125 12.871094 L 11.109375 12.789062 L 10.765625 12.746094 L 10.65625 12.9375 L 10.863281 13.203125 L 11.046875 13.351562 L 11.117188 13.386719 L 10.988281 13.703125 L 10.90625 13.671875 L 10.675781 13.652344 L 10.335938 13.695312 L 10.273438 13.910156 L 10.546875 14.117188 L 10.757812 14.210938 L 10.84375 14.226562 L 10.796875 14.566406 L 10.714844 14.558594 L 10.484375 14.59375 L 10.164062 14.726562 L 10.164062 14.945312 L 10.484375 15.078125 L 10.714844 15.113281 L 10.796875 15.109375 L 10.84375 15.445312 L 10.757812 15.460938 L 10.546875 15.554688 L 10.273438 15.765625 L 10.335938 15.976562 L 10.675781 16.023438 L 10.90625 15.996094 L 10.988281 15.96875 L 11.117188 16.28125 L 11.046875 16.320312 L 10.863281 16.464844 L 10.65625 16.734375 L 10.679688 16.78125 L 11.359375 16.78125 L 11.398438 16.753906 L 11.417969 16.78125 L 12.125 16.78125 C 11.976562 16.628906 11.847656 16.460938 11.738281 16.273438 L 12.976562 15.71875 C 13.242188 16.078125 13.664062 16.320312 14.140625 16.34375 L 14.203125 16.78125 L 14.796875 16.78125 L 14.726562 16.269531 C 15.15625 16.125 15.5 15.800781 15.664062 15.386719 L 16.609375 15.558594 L 16.609375 14.96875 L 15.773438 14.820312 C 15.765625 14.34375 15.539062 13.925781 15.1875 13.652344 L 15.8125 12.460938 C 16.125 12.664062 16.398438 12.929688 16.609375 13.230469 L 16.609375 12.132812 L 16.515625 12.203125 L 16.460938 12.265625 L 16.1875 12.058594 L 16.234375 11.984375 L 16.316406 11.773438 L 16.359375 11.4375 L 16.164062 11.328125 L 15.890625 11.53125 L 15.742188 11.710938 L 15.703125 11.789062 L 15.382812 11.65625 L 15.414062 11.578125 L 15.4375 11.347656 L 15.390625 11.011719 L 15.175781 10.957031 L 14.960938 11.226562 L 14.867188 11.433594 L 14.851562 11.515625 L 14.507812 11.472656 L 14.515625 11.382812 L 14.476562 11.164062 L 14.34375 10.847656 Z M 14.230469 12 C 14.601562 12 14.960938 12.070312 15.289062 12.195312 L 14.664062 13.382812 C 14.523438 13.34375 14.382812 13.324219 14.230469 13.324219 C 13.929688 13.324219 13.652344 13.40625 13.414062 13.550781 L 12.488281 12.570312 C 12.972656 12.210938 13.578125 12 14.230469 12 Z M 8.6875 12.703125 L 8.574219 12.9375 L 8.566406 13.015625 L 8.585938 13.15625 L 8.332031 13.222656 L 8.28125 13.089844 L 8.234375 13.023438 L 8.023438 12.875 L 7.898438 12.945312 L 7.921875 13.199219 L 7.960938 13.273438 L 8.046875 13.382812 L 7.863281 13.5625 L 7.75 13.476562 L 7.675781 13.441406 L 7.414062 13.417969 L 7.34375 13.539062 L 7.5 13.742188 L 7.5625 13.789062 L 7.695312 13.84375 L 7.628906 14.09375 L 7.484375 14.070312 L 7.398438 14.078125 L 7.164062 14.179688 L 7.164062 14.320312 L 7.398438 14.425781 L 7.484375 14.433594 L 7.628906 14.414062 L 7.695312 14.664062 L 7.5625 14.714844 L 7.492188 14.761719 L 7.339844 14.96875 L 7.40625 15.089844 L 7.667969 15.0625 L 7.746094 15.03125 L 7.859375 14.945312 L 8.046875 15.125 L 7.953125 15.234375 L 7.914062 15.3125 L 7.890625 15.5625 L 8.011719 15.632812 L 8.226562 15.484375 L 8.273438 15.421875 L 8.328125 15.289062 L 8.582031 15.351562 L 8.5625 15.492188 L 8.566406 15.578125 L 8.671875 15.8125 L 8.8125 15.8125 L 8.921875 15.578125 L 8.929688 15.5 L 8.90625 15.351562 L 9.164062 15.289062 L 9.214844 15.421875 L 9.265625 15.492188 L 9.476562 15.636719 L 9.59375 15.570312 L 9.570312 15.316406 L 9.539062 15.242188 L 9.449219 15.132812 L 9.632812 14.949219 L 9.75 15.039062 L 9.820312 15.070312 L 10.082031 15.09375 L 10.152344 14.976562 L 10 14.773438 L 9.933594 14.722656 L 9.796875 14.671875 L 9.867188 14.421875 L 10.011719 14.445312 L 10.09375 14.4375 L 10.328125 14.332031 L 10.328125 14.195312 L 10.09375 14.085938 L 10.011719 14.078125 L 9.867188 14.097656 L 9.800781 13.851562 L 9.9375 13.796875 L 10.003906 13.75 L 10.15625 13.542969 L 10.085938 13.425781 L 9.828125 13.449219 L 9.75 13.484375 L 9.636719 13.570312 L 9.453125 13.386719 L 9.546875 13.28125 L 9.578125 13.203125 L 9.605469 12.953125 L 9.484375 12.882812 L 9.273438 13.027344 L 9.21875 13.09375 L 9.167969 13.226562 L 8.914062 13.160156 L 8.9375 13.015625 L 8.929688 12.9375 L 8.824219 12.703125 Z M 12.054688 12.964844 L 12.984375 13.945312 C 12.796875 14.195312 12.6875 14.5 12.6875 14.835938 C 12.6875 14.957031 12.703125 15.078125 12.734375 15.195312 L 11.492188 15.75 C 11.390625 15.460938 11.335938 15.15625 11.335938 14.835938 C 11.335938 14.117188 11.609375 13.460938 12.054688 12.960938 Z M 8.746094 13.898438 C 8.953125 13.898438 9.117188 14.0625 9.117188 14.265625 C 9.117188 14.46875 8.953125 14.632812 8.746094 14.632812 C 8.539062 14.632812 8.371094 14.46875 8.371094 14.265625 C 8.371094 14.0625 8.539062 13.898438 8.746094 13.898438 Z M 14.230469 14.265625 C 14.546875 14.265625 14.804688 14.515625 14.804688 14.828125 C 14.804688 15.140625 14.546875 15.390625 14.230469 15.390625 C 13.914062 15.390625 13.65625 15.140625 13.65625 14.828125 C 13.65625 14.515625 13.914062 14.265625 14.230469 14.265625 Z M 14.230469 14.265625 "/>
</g>
</svg>
