
<svg xmlns="http://www.w3.org/2000/svg" xmlns:xlink="http://www.w3.org/1999/xlink" width="24px" height="24px" viewBox="0 0 24 24" version="1.1">
<g id="surface1">
<path style=" stroke:none;fill-rule:nonzero;fill:rgb(100%,100%,100%);fill-opacity:1;" d="M 8.679688 11.734375 L 8.679688 16.414062 C 8.679688 19.21875 9.164062 19.21875 13.492188 19.21875 L 14.457031 19.21875 C 18.789062 19.21875 19.269531 19.21875 19.269531 16.414062 L 19.269531 11.734375 C 19.269531 8.929688 18.789062 8.929688 14.457031 8.929688 L 13.492188 8.929688 C 9.164062 8.929688 8.679688 8.929688 8.679688 11.734375 Z M 13.492188 9.867188 L 14.457031 9.867188 C 18.304688 9.867188 18.304688 9.867188 18.304688 11.734375 L 18.304688 15.007812 C 18.304688 16.882812 18.304688 16.882812 14.457031 16.882812 L 13.492188 16.882812 C 9.644531 16.882812 9.644531 16.882812 9.644531 15.007812 L 9.644531 11.734375 C 9.644531 9.867188 9.644531 9.867188 13.492188 9.867188 Z M 13.492188 9.867188 "/>
<path style=" stroke:none;fill-rule:nonzero;fill:rgb(100%,100%,100%);fill-opacity:1;" d="M 10.609375 15.09375 L 10.609375 13.28125 L 12.289062 11.582031 L 14.398438 13.707031 L 15.242188 12.859375 L 17.34375 14.984375 L 17.34375 15.09375 C 17.34375 15.945312 17.203125 15.945312 15.664062 15.945312 L 12.292969 15.945312 C 10.75 15.945312 10.609375 15.945312 10.609375 15.09375 Z M 10.609375 15.09375 "/>
<path style=" stroke:none;fill-rule:nonzero;fill:rgb(100%,100%,100%);fill-opacity:1;" d="M 17.34375 11.734375 C 17.34375 12.253906 16.914062 12.671875 16.382812 12.671875 C 15.851562 12.671875 15.421875 12.253906 15.421875 11.734375 C 15.421875 11.21875 15.851562 10.800781 16.382812 10.800781 C 16.914062 10.800781 17.34375 11.21875 17.34375 11.734375 Z M 17.34375 11.734375 "/>
<path style=" stroke:none;fill-rule:nonzero;fill:rgb(100%,100%,100%);fill-opacity:1;" d="M 11.570312 7.0625 C 7.238281 7.0625 6.757812 7.0625 6.757812 9.867188 L 6.757812 14.542969 C 6.757812 16.0625 6.898438 16.761719 7.71875 17.078125 L 7.71875 9.867188 C 7.71875 8.171875 7.75 8.015625 10.609375 8 L 10.609375 7.996094 L 17.109375 7.996094 C 16.6875 7.0625 15.535156 7.0625 12.53125 7.0625 Z M 11.570312 7.0625 "/>
<path style=" stroke:none;fill-rule:nonzero;fill:rgb(100%,100%,100%);fill-opacity:1;" d="M 9.644531 5.1875 C 5.3125 5.1875 4.832031 5.1875 4.832031 7.996094 L 4.832031 12.671875 C 4.832031 14.195312 4.976562 14.890625 5.796875 15.210938 L 5.796875 7.996094 C 5.796875 6.300781 5.824219 6.144531 8.679688 6.128906 L 8.679688 6.125 L 15.183594 6.125 C 14.757812 5.1875 13.609375 5.1875 10.609375 5.1875 Z M 9.644531 5.1875 "/>
<path style=" stroke:none;fill-rule:nonzero;fill:rgb(90.196078%,90.196078%,98.039216%);fill-opacity:1;" d="M 19.730469 3.617188 C 38.492188 28.484375 -13.136719 32.019531 3.429688 6.632812 C 7.210938 0.847656 14.761719 -2.96875 19.730469 3.617188 Z M 19.730469 3.617188 "/>
<path style=" stroke:none;fill-rule:nonzero;fill:rgb(100%,100%,100%);fill-opacity:1;" d="M 17.796875 12.066406 L 6.21875 12.066406 L 6.21875 17.5625 C 6.21875 18.023438 6.578125 18.390625 7.019531 18.390625 L 16.992188 18.390625 C 17.4375 18.390625 17.792969 18.023438 17.792969 17.5625 L 17.792969 12.066406 Z M 17.796875 12.066406 "/>
<path style=" stroke:none;fill-rule:nonzero;fill:rgb(100%,100%,100%);fill-opacity:1;" d="M 6.390625 9.535156 C 5.960938 9.65625 5.710938 10.105469 5.828125 10.546875 L 6.21875 12.066406 L 17.398438 8.960938 L 17.007812 7.445312 C 16.890625 7 16.453125 6.742188 16.027344 6.859375 Z M 6.390625 9.535156 "/>
<path style=" stroke:none;fill-rule:nonzero;fill:rgb(69.019608%,76.862745%,87.058824%);fill-opacity:1;" d="M 6.390625 9.535156 C 6.238281 9.578125 6.109375 9.660156 6.011719 9.769531 L 5.859375 10.667969 L 6.21875 12.066406 L 6.296875 12.046875 L 6.746094 9.4375 Z M 7.3125 9.28125 L 6.867188 11.886719 L 7.578125 11.6875 L 8.027344 9.082031 Z M 8.59375 8.921875 L 8.148438 11.53125 L 8.859375 11.335938 L 9.304688 8.726562 Z M 9.875 8.570312 L 9.421875 11.175781 L 10.136719 10.976562 L 10.585938 8.371094 Z M 11.15625 8.210938 L 10.703125 10.820312 L 11.414062 10.625 L 11.867188 8.015625 Z M 12.429688 7.859375 L 11.984375 10.464844 L 12.695312 10.265625 L 13.148438 7.660156 Z M 13.710938 7.5 L 13.265625 10.109375 L 13.976562 9.914062 L 14.421875 7.304688 Z M 14.992188 7.148438 L 14.542969 9.753906 L 15.257812 9.554688 L 15.703125 6.949219 Z M 16.265625 6.828125 L 15.824219 9.398438 L 16.535156 9.203125 L 16.882812 7.171875 C 16.742188 6.96875 16.511719 6.839844 16.265625 6.828125 Z M 17.226562 8.308594 L 17.101562 9.046875 L 17.398438 8.960938 Z M 17.226562 8.308594 "/>
</g>
</svg>
