
<svg xmlns="http://www.w3.org/2000/svg" xmlns:xlink="http://www.w3.org/1999/xlink" width="24px" height="24px" viewBox="0 0 24 24" version="1.1">
<defs>
<clipPath id="clip1">
  <path d="M 3.5 4 L 20 4 L 20 20.5 L 3.5 20.5 Z M 3.5 4 "/>
</clipPath>
<clipPath id="clip2">
  <path d="M 19.949219 12.132812 C 19.949219 16.566406 16.285156 20.15625 11.773438 20.15625 C 7.257812 20.15625 3.59375 16.566406 3.59375 12.132812 C 3.59375 7.695312 7.257812 4.101562 11.773438 4.101562 C 16.285156 4.101562 19.949219 7.695312 19.949219 12.132812 Z M 19.949219 12.132812 "/>
</clipPath>
<clipPath id="clip3">
  <path d="M 8 8 L 13.5 8 L 13.5 17.5 L 8 17.5 Z M 8 8 "/>
</clipPath>
<clipPath id="clip4">
  <path d="M 19.949219 12.132812 C 19.949219 16.566406 16.285156 20.15625 11.773438 20.15625 C 7.257812 20.15625 3.59375 16.566406 3.59375 12.132812 C 3.59375 7.695312 7.257812 4.101562 11.773438 4.101562 C 16.285156 4.101562 19.949219 7.695312 19.949219 12.132812 Z M 19.949219 12.132812 "/>
</clipPath>
</defs>
<g id="surface1">
<path style=" stroke:none;fill-rule:nonzero;fill:rgb(27.058824%,27.058824%,27.058824%);fill-opacity:1;" d="M 20.109375 2.726562 C 30.882812 11.28125 17.085938 28.945312 5.480469 22.6875 C -5.453125 16.792969 1.441406 -1.140625 13.308594 0.0585938 C 15.78125 0.308594 18.132812 1.15625 20.109375 2.726562 Z M 20.109375 2.726562 "/>
<g clip-path="url(#clip1)" clip-rule="nonzero">
<g clip-path="url(#clip2)" clip-rule="nonzero">
<path style=" stroke:none;fill-rule:nonzero;fill:rgb(0%,0%,0%);fill-opacity:0.101961;" d="M 5.894531 4.101562 C 5.015625 4.734375 4.234375 5.5 3.59375 6.359375 L 3.59375 18.566406 C 5.34375 19.644531 7.375 20.34375 9.40625 20.3125 C 11.554688 20.28125 13.679688 19.4375 15.394531 17.335938 C 17.148438 15.1875 15.90625 12.179688 14.371094 11.3125 C 13.664062 10.992188 13.09375 11.226562 12.699219 11.59375 C 12.625 11.074219 12.554688 10.554688 12.484375 10.039062 C 12.484375 10.039062 13.90625 10.039062 14.617188 10.382812 C 15.765625 10.945312 16.394531 12.132812 16.394531 12.132812 L 16.394531 9.6875 C 16.394531 9.6875 15.328125 8.988281 13.90625 8.640625 C 13.625 8.570312 13.367188 8.519531 13.117188 8.476562 C 13.140625 8.472656 13.164062 8.46875 13.1875 8.464844 C 16.367188 8.125 18.828125 11.226562 19.085938 14.148438 C 19.296875 16.59375 18.234375 19.03125 16.53125 20.859375 L 18.363281 20.859375 C 19.242188 20.226562 20.023438 19.460938 20.664062 18.601562 L 20.664062 6.390625 C 18.914062 5.3125 16.882812 4.617188 14.851562 4.648438 C 12.703125 4.679688 10.578125 5.523438 8.863281 7.625 C 7.117188 9.765625 8.335938 12.75 9.859375 13.632812 C 8.902344 13.875 8.21875 14.515625 8.21875 15.273438 C 8.21875 15.511719 8.285156 15.742188 8.414062 15.949219 C 6.59375 14.960938 5.351562 12.84375 5.171875 10.8125 C 4.957031 8.363281 6.023438 5.929688 7.726562 4.101562 Z M 11.5625 9.023438 L 12.21875 12.242188 C 12.179688 12.328125 12.148438 12.40625 12.125 12.484375 C 12.164062 12.464844 12.210938 12.445312 12.257812 12.429688 L 12.605469 14.148438 C 12.269531 13.875 11.8125 13.671875 11.296875 13.578125 C 11.75 13.296875 12.039062 12.8125 12.132812 12.484375 C 11.6875 12.679688 10.503906 12.921875 10.242188 12.066406 C 10.054688 10.726562 10.605469 9.644531 11.5625 9.023438 Z M 13.148438 12.257812 C 13.53125 12.257812 13.898438 12.390625 14.027344 12.820312 C 14.179688 13.929688 13.828125 14.878906 13.164062 15.539062 C 13.179688 15.453125 13.195312 15.367188 13.195312 15.273438 C 13.070312 14.289062 12.933594 13.289062 12.796875 12.289062 C 12.910156 12.265625 13.03125 12.253906 13.148438 12.257812 Z M 13.148438 12.257812 "/>
<path style=" stroke:none;fill-rule:evenodd;fill:rgb(83.921569%,28.627451%,21.176471%);fill-opacity:1;" d="M 5.539062 3.75 C 4.65625 4.382812 3.882812 5.148438 3.238281 6.011719 L 3.238281 18.21875 C 4.992188 19.296875 7.019531 19.992188 9.046875 19.960938 C 11.195312 19.929688 13.324219 19.085938 15.039062 16.984375 C 16.789062 14.835938 15.550781 11.828125 14.015625 10.960938 C 12.773438 10.398438 11.933594 11.53125 11.773438 12.132812 C 12.21875 11.929688 13.40625 11.617188 13.671875 12.46875 C 13.945312 14.453125 12.601562 15.945312 10.71875 16.144531 C 7.53125 16.484375 5.070312 13.382812 4.816406 10.460938 C 4.601562 8.015625 5.664062 5.578125 7.371094 3.753906 M 14.5 4.296875 C 12.351562 4.328125 10.222656 5.175781 8.507812 7.277344 C 6.757812 9.425781 7.996094 12.429688 9.53125 13.296875 C 10.769531 13.863281 11.613281 12.726562 11.773438 12.132812 C 11.328125 12.332031 10.148438 12.570312 9.886719 11.71875 C 9.609375 9.734375 10.945312 8.320312 12.828125 8.117188 C 16.015625 7.773438 18.476562 10.875 18.730469 13.796875 C 18.945312 16.246094 17.878906 18.679688 16.171875 20.507812 L 18.007812 20.507812 C 18.886719 19.878906 19.664062 19.109375 20.308594 18.25 L 20.308594 6.042969 C 18.554688 4.964844 16.523438 4.265625 14.496094 4.296875 "/>
</g>
</g>
<g clip-path="url(#clip3)" clip-rule="nonzero">
<g clip-path="url(#clip4)" clip-rule="nonzero">
<path style=" stroke:none;fill-rule:nonzero;fill:rgb(0%,0%,0%);fill-opacity:0.0980392;" d="M 11.414062 8.289062 L 11.464844 8.523438 C 11.613281 8.445312 11.769531 8.378906 11.933594 8.320312 C 11.625 8.296875 11.414062 8.289062 11.414062 8.289062 Z M 12.617188 11.023438 C 12.398438 11.160156 12.21875 11.347656 12.078125 11.539062 L 12.167969 11.992188 C 12.34375 11.945312 12.546875 11.914062 12.742188 11.90625 C 12.703125 11.613281 12.660156 11.320312 12.617188 11.023438 Z M 13.132812 14.804688 C 12.601562 15.546875 11.738281 16.035156 10.71875 16.144531 C 9.84375 16.238281 9.035156 16.070312 8.304688 15.722656 C 8.585938 16.46875 9.554688 17.015625 10.703125 17.015625 C 12.078125 17.015625 13.195312 16.234375 13.195312 15.273438 C 13.175781 15.117188 13.152344 14.960938 13.132812 14.804688 Z M 13.132812 14.804688 "/>
</g>
</g>
<path style=" stroke:none;fill-rule:nonzero;fill:rgb(52.941176%,80.784314%,98.039216%);fill-opacity:1;" d="M 11.0625 7.941406 L 12.25 13.796875 C 11.792969 13.421875 11.113281 13.179688 10.351562 13.179688 C 8.976562 13.179688 7.859375 13.960938 7.859375 14.921875 C 7.859375 15.886719 8.976562 16.667969 10.351562 16.667969 C 11.726562 16.667969 12.835938 15.886719 12.835938 14.921875 C 12.621094 13.203125 12.367188 11.425781 12.125 9.6875 C 12.125 9.6875 13.546875 9.6875 14.257812 10.035156 C 15.40625 10.601562 16.039062 11.78125 16.039062 11.78125 L 16.039062 9.335938 C 16.039062 9.335938 14.972656 8.640625 13.546875 8.289062 C 12.125 7.941406 11.0625 7.941406 11.0625 7.941406 Z M 11.0625 7.941406 "/>
</g>
</svg>
