
<svg xmlns="http://www.w3.org/2000/svg" xmlns:xlink="http://www.w3.org/1999/xlink" width="24px" height="24px" viewBox="0 0 24 24" version="1.1">
<g id="surface1">
<path style=" stroke:none;fill-rule:nonzero;fill:rgb(41.960784%,55.686275%,13.72549%);fill-opacity:1;" d="M 0.0898438 7.0625 C -2.3125 41.171875 44.113281 15.605469 13.542969 1.117188 C 8.832031 -0.882812 1.804688 0.578125 0.0898438 7.0625 Z M 0.0898438 7.0625 "/>
<path style=" stroke:none;fill-rule:evenodd;fill:rgb(100%,99.215686%,93.333333%);fill-opacity:1;" d="M 16.339844 16.851562 C 15.777344 16.734375 15.46875 16.5625 15.234375 16.253906 C 15.050781 16 15.039062 15.84375 15.007812 13.625 L 14.972656 11.265625 L 14.046875 11.265625 L 14.046875 10.601562 L 14.992188 10.601562 L 14.992188 8.710938 L 16.882812 8.710938 L 16.882812 10.601562 L 18.683594 10.601562 L 18.683594 11.265625 L 16.875 11.265625 L 16.902344 13.6875 C 16.9375 16.429688 16.921875 16.378906 17.703125 16.378906 C 18.023438 16.378906 18.140625 16.328125 18.296875 16.128906 C 18.40625 15.992188 18.492188 15.78125 18.492188 15.65625 C 18.492188 15.460938 18.539062 15.429688 18.835938 15.429688 C 19.171875 15.429688 19.179688 15.4375 19.121094 15.742188 C 19.039062 16.15625 18.78125 16.488281 18.390625 16.683594 C 18 16.878906 16.898438 16.96875 16.339844 16.851562 Z M 16.339844 16.851562 "/>
<path style=" stroke:none;fill-rule:evenodd;fill:rgb(100%,99.215686%,93.333333%);fill-opacity:1;" d="M 10.769531 18.476562 C 9.78125 18.347656 9.1875 17.960938 8.640625 17.097656 C 8.429688 16.765625 8.230469 16.492188 8.195312 16.492188 C 7.847656 16.480469 6.769531 16.269531 6.265625 16.117188 C 5.148438 15.769531 4.164062 14.8125 3.785156 13.699219 C 3.367188 12.480469 3.535156 10.398438 4.125 9.460938 C 4.96875 8.132812 6.328125 7.476562 8.234375 7.476562 C 10.535156 7.476562 12.078125 8.492188 12.726562 10.429688 C 12.90625 10.960938 12.929688 11.203125 12.894531 12.132812 C 12.84375 13.613281 12.574219 14.289062 11.691406 15.171875 C 11.0625 15.796875 10.640625 16.019531 9.53125 16.304688 C 9.308594 16.359375 9.125 16.4375 9.125 16.480469 C 9.125 16.523438 9.347656 16.675781 9.617188 16.820312 C 9.96875 17.015625 10.28125 17.101562 10.75 17.132812 L 11.398438 17.179688 L 11.398438 17.875 C 11.398438 18.261719 11.390625 18.570312 11.375 18.5625 C 11.363281 18.554688 11.089844 18.515625 10.769531 18.476562 Z M 9.289062 15.679688 C 9.648438 15.40625 10.03125 14.835938 10.234375 14.265625 C 10.375 13.875 10.40625 13.484375 10.402344 11.945312 C 10.398438 10.234375 10.382812 10.058594 10.175781 9.539062 C 9.875 8.773438 9.210938 8.109375 8.664062 8.015625 C 7.730469 7.859375 6.847656 8.273438 6.40625 9.070312 C 5.988281 9.828125 5.882812 10.511719 5.929688 12.269531 C 5.960938 13.648438 6 13.964844 6.171875 14.40625 C 6.421875 15.039062 6.878906 15.617188 7.273438 15.796875 C 7.726562 16 8.949219 15.929688 9.289062 15.679688 Z M 9.289062 15.679688 "/>
</g>
</svg>
