
<svg xmlns="http://www.w3.org/2000/svg" xmlns:xlink="http://www.w3.org/1999/xlink" width="24px" height="24px" viewBox="0 0 24 24" version="1.1">
<g id="surface1">
<path style=" stroke:none;fill-rule:nonzero;fill:rgb(52.941176%,80.784314%,98.039216%);fill-opacity:1;" d="M 18.179688 21.058594 C 39.429688 1.300781 -4.4375 -11.148438 0.402344 15.082031 C 2.789062 22.003906 11.351562 27.40625 18.179688 21.058594 Z M 18.179688 21.058594 "/>
<path style=" stroke:none;fill-rule:evenodd;fill:rgb(100%,100%,100%);fill-opacity:1;" d="M 7.046875 18.097656 C 7.023438 18.007812 6.898438 17.257812 6.765625 16.429688 C 6.550781 15.097656 6.515625 14.921875 6.445312 14.859375 C 6.28125 14.726562 6.027344 14.789062 5.726562 15.03125 C 5.648438 15.09375 5.5625 15.132812 5.53125 15.125 C 5.472656 15.101562 4.96875 14.335938 4.839844 14.078125 C 4.796875 13.984375 4.765625 13.898438 4.78125 13.886719 C 4.796875 13.875 5.109375 13.855469 5.484375 13.847656 C 5.882812 13.84375 6.183594 13.820312 6.210938 13.796875 C 6.285156 13.734375 6.265625 13.59375 6.171875 13.507812 C 6.125 13.460938 5.9375 13.375 5.761719 13.3125 C 4.894531 13.015625 4.320312 12.523438 3.988281 11.792969 C 3.539062 10.804688 3.648438 9.6875 4.292969 8.824219 C 4.597656 8.414062 5.191406 8.03125 5.773438 7.863281 C 6.65625 7.613281 7.472656 7.796875 8.328125 8.4375 C 8.671875 8.695312 8.773438 8.734375 8.90625 8.65625 C 9.035156 8.585938 9.109375 8.425781 9.300781 7.796875 C 9.390625 7.507812 9.5 7.1875 9.542969 7.085938 C 9.773438 6.554688 10.34375 5.921875 10.867188 5.617188 C 12.554688 4.640625 14.71875 5.3125 15.59375 7.085938 C 15.835938 7.574219 15.875 7.78125 15.875 8.585938 C 15.878906 9.414062 15.867188 9.46875 15.507812 10.265625 C 15.375 10.558594 15.265625 10.820312 15.265625 10.851562 C 15.265625 10.882812 15.351562 10.914062 15.527344 10.945312 C 15.671875 10.972656 15.8125 11.015625 15.84375 11.046875 C 15.894531 11.101562 15.972656 11.332031 15.976562 11.429688 C 15.976562 11.515625 16.125 11.5625 16.304688 11.539062 C 16.789062 11.46875 17.289062 11.34375 17.488281 11.25 C 17.609375 11.1875 17.9375 10.957031 18.21875 10.730469 C 18.5 10.503906 18.777344 10.289062 18.84375 10.25 L 18.960938 10.1875 L 18.996094 10.308594 C 19.171875 10.867188 19.71875 14.566406 19.625 14.566406 C 19.617188 14.566406 19.304688 14.445312 18.9375 14.304688 C 17.886719 13.886719 17.921875 13.894531 17.277344 13.976562 C 16.976562 14.015625 16.679688 14.03125 16.613281 14.019531 C 16.390625 13.976562 16.382812 14.132812 16.554688 15.367188 C 16.683594 16.253906 16.707031 16.59375 16.640625 16.648438 C 16.527344 16.742188 16.046875 16.835938 13.003906 17.324219 C 9.976562 17.8125 7.15625 18.257812 7.109375 18.257812 C 7.101562 18.257812 7.070312 18.1875 7.046875 18.101562 Z M 8.375 17.710938 C 9.660156 17.53125 15.269531 16.632812 15.742188 16.53125 C 15.890625 16.5 16.070312 16.445312 16.148438 16.414062 L 16.28125 16.355469 L 16.257812 16.023438 C 16.195312 15.222656 15.660156 11.65625 15.585938 11.535156 C 15.46875 11.359375 15.429688 11.359375 12.875 11.765625 C 8.851562 12.40625 6.839844 12.765625 6.769531 12.867188 C 6.699219 12.964844 6.820312 13.9375 7.175781 16.183594 C 7.398438 17.582031 7.425781 17.707031 7.523438 17.765625 C 7.609375 17.816406 7.628906 17.8125 8.375 17.710938 Z M 16.40625 13.1875 C 16.378906 12.886719 16.28125 12.523438 16.210938 12.46875 C 16.140625 12.40625 16.144531 12.460938 16.234375 12.914062 C 16.328125 13.382812 16.34375 13.421875 16.390625 13.421875 C 16.421875 13.421875 16.425781 13.34375 16.40625 13.1875 Z M 6.730469 11.894531 C 7.183594 11.8125 7.570312 11.484375 7.804688 10.984375 C 7.996094 10.570312 7.96875 10.125 7.726562 9.703125 C 7.601562 9.476562 7.296875 9.207031 7.050781 9.085938 C 6.863281 9 6.789062 8.984375 6.460938 8.984375 C 6 8.984375 5.835938 9.058594 5.46875 9.421875 C 5.140625 9.757812 5.023438 10 5.023438 10.359375 C 5.023438 11 5.351562 11.558594 5.867188 11.789062 C 6.171875 11.929688 6.394531 11.953125 6.730469 11.894531 Z M 9.929688 11.839844 C 10.109375 11.808594 10.367188 11.75 10.5 11.703125 L 10.75 11.625 L 10.570312 11.429688 C 10.039062 10.84375 9.679688 10.679688 9.421875 10.90625 C 9.257812 11.046875 9.0625 11.640625 9.117188 11.820312 C 9.136719 11.890625 9.171875 11.898438 9.371094 11.898438 C 9.5 11.898438 9.75 11.875 9.929688 11.839844 Z M 12.953125 10.277344 C 13.140625 10.234375 13.289062 10.164062 13.496094 10.023438 C 13.976562 9.695312 14.242188 9.234375 14.28125 8.664062 C 14.34375 7.785156 13.820312 7.019531 13.011719 6.808594 C 12.734375 6.734375 12.242188 6.730469 11.976562 6.792969 C 11.695312 6.859375 11.511719 6.960938 11.296875 7.164062 C 10.546875 7.882812 10.523438 9.054688 11.242188 9.789062 C 11.367188 9.914062 11.546875 10.0625 11.640625 10.117188 C 11.996094 10.332031 12.46875 10.390625 12.953125 10.277344 Z M 12.953125 10.277344 "/>
<path style=" stroke:none;fill-rule:evenodd;fill:rgb(100%,100%,100%);fill-opacity:1;" d="M 9.695312 16.773438 C 9.628906 16.6875 9.625 16.671875 9.671875 16.625 C 9.742188 16.554688 9.90625 16.59375 9.90625 16.6875 C 9.90625 16.882812 9.8125 16.921875 9.695312 16.773438 Z M 9.695312 16.773438 "/>
<path style=" stroke:none;fill-rule:evenodd;fill:rgb(100%,100%,100%);fill-opacity:1;" d="M 10.320312 16.664062 C 10.261719 16.609375 10.265625 16.601562 10.335938 16.539062 C 10.445312 16.453125 10.507812 16.457031 10.554688 16.546875 C 10.632812 16.695312 10.445312 16.789062 10.320312 16.664062 Z M 10.320312 16.664062 "/>
<path style=" stroke:none;fill-rule:evenodd;fill:rgb(100%,100%,100%);fill-opacity:1;" d="M 10.972656 16.59375 C 10.917969 16.539062 10.953125 16.4375 11.039062 16.417969 C 11.160156 16.386719 11.234375 16.421875 11.234375 16.507812 C 11.234375 16.597656 11.042969 16.664062 10.972656 16.59375 Z M 10.972656 16.59375 "/>
<path style=" stroke:none;fill-rule:evenodd;fill:rgb(100%,100%,100%);fill-opacity:1;" d="M 11.675781 16.507812 C 11.53125 16.453125 11.597656 16.257812 11.765625 16.257812 C 11.859375 16.257812 11.914062 16.410156 11.847656 16.492188 C 11.796875 16.554688 11.789062 16.554688 11.675781 16.507812 Z M 11.675781 16.507812 "/>
<path style=" stroke:none;fill-rule:evenodd;fill:rgb(100%,100%,100%);fill-opacity:1;" d="M 12.28125 16.386719 C 12.25 16.351562 12.242188 16.292969 12.257812 16.238281 C 12.273438 16.164062 12.296875 16.148438 12.375 16.15625 C 12.425781 16.164062 12.484375 16.195312 12.507812 16.234375 C 12.589844 16.363281 12.378906 16.507812 12.28125 16.386719 Z M 12.28125 16.386719 "/>
</g>
</svg>
