
<svg xmlns="http://www.w3.org/2000/svg" xmlns:xlink="http://www.w3.org/1999/xlink" width="24px" height="24px" viewBox="0 0 24 24" version="1.1">
<g id="surface1">
<path style=" stroke:none;fill-rule:nonzero;fill:rgb(82.352941%,70.588235%,54.901961%);fill-opacity:1;" d="M 0.398438 9.289062 C 5.085938 -13.203125 37.324219 10.945312 17.957031 22.375 C 10.433594 27.273438 -2.011719 20.859375 0.398438 9.289062 Z M 0.398438 9.289062 "/>
<path style=" stroke:none;fill-rule:nonzero;fill:rgb(82.352941%,70.588235%,54.901961%);fill-opacity:0.196078;" d="M 8.796875 5.472656 L 8.773438 5.492188 L 8.703125 5.472656 Z M 7.929688 6.164062 L 3.128906 9.960938 L 3.128906 6.164062 Z M 7.929688 6.164062 "/>
<path style=" stroke:none;fill-rule:nonzero;fill:rgb(82.352941%,70.588235%,54.901961%);fill-opacity:0.392157;" d="M 8.796875 1.675781 L 3.128906 6.164062 L 7.929688 6.164062 C 8.351562 6.164062 8.796875 5.804688 8.796875 5.472656 L 8.796875 1.675781 "/>
<path style=" stroke:none;fill-rule:nonzero;fill:rgb(82.352941%,70.588235%,54.901961%);fill-opacity:1;" d="M 15.898438 6.976562 C 15.820312 6.976562 15.757812 7.40625 15.757812 7.9375 L 15.757812 16.4375 C 15.757812 16.96875 15.820312 17.398438 15.898438 17.398438 C 15.976562 17.398438 16.039062 16.96875 16.039062 16.4375 L 16.039062 7.9375 C 16.039062 7.40625 15.976562 6.976562 15.898438 6.976562 Z M 15.898438 6.976562 "/>
<path style=" stroke:none;fill-rule:nonzero;fill:rgb(82.352941%,70.588235%,54.901961%);fill-opacity:1;" d="M 5.890625 17.25 L 5.890625 17.253906 C 5.890625 17.328125 6.234375 17.386719 6.652344 17.386719 L 15.296875 17.386719 C 15.714844 17.386719 16.054688 17.328125 16.054688 17.253906 L 16.054688 17.25 C 16.054688 17.179688 15.714844 17.117188 15.296875 17.117188 L 6.652344 17.117188 C 6.234375 17.117188 5.890625 17.179688 5.890625 17.25 Z M 5.890625 17.25 "/>
<path style=" stroke:none;fill-rule:evenodd;fill:rgb(100%,100%,100%);fill-opacity:1;" d="M 6.054688 6.527344 L 6.054688 7.15625 L 5.410156 7.15625 L 5.410156 7.222656 L 6.054688 7.222656 L 6.054688 9.144531 L 5.410156 9.144531 L 5.410156 9.210938 L 6.054688 9.210938 L 6.054688 11.132812 L 5.410156 11.132812 L 5.410156 11.195312 L 6.054688 11.195312 L 6.054688 13.117188 L 5.410156 13.117188 L 5.410156 13.1875 L 6.054688 13.1875 L 6.054688 15.109375 L 5.410156 15.109375 L 5.410156 15.171875 L 6.054688 15.171875 L 6.054688 17.09375 L 5.410156 17.09375 L 5.410156 17.164062 L 6.054688 17.164062 L 6.054688 19.085938 L 5.410156 19.085938 L 5.410156 19.148438 L 6.054688 19.148438 L 6.054688 19.78125 L 6.125 19.78125 L 6.125 19.148438 L 8.09375 19.148438 L 8.09375 19.78125 L 8.15625 19.78125 L 8.15625 19.148438 L 10.125 19.148438 L 10.125 19.78125 L 10.195312 19.78125 L 10.195312 19.148438 L 12.164062 19.148438 L 12.164062 19.78125 L 12.230469 19.78125 L 12.230469 19.148438 L 14.199219 19.148438 L 14.199219 19.78125 L 14.265625 19.78125 L 14.265625 19.148438 L 16.234375 19.148438 L 16.234375 19.78125 L 16.304688 19.78125 L 16.304688 19.148438 L 18.269531 19.148438 L 18.269531 19.78125 L 18.335938 19.78125 L 18.335938 19.148438 L 18.984375 19.148438 L 18.984375 19.085938 L 18.335938 19.085938 L 18.335938 17.164062 L 18.984375 17.164062 L 18.984375 17.09375 L 18.335938 17.09375 L 18.335938 15.171875 L 18.984375 15.171875 L 18.984375 15.109375 L 18.335938 15.109375 L 18.335938 13.1875 L 18.984375 13.1875 L 18.984375 13.117188 L 18.335938 13.117188 L 18.335938 11.195312 L 18.984375 11.195312 L 18.984375 11.132812 L 18.335938 11.132812 L 18.335938 9.210938 L 18.984375 9.210938 L 18.984375 9.144531 L 18.335938 9.144531 L 18.335938 7.222656 L 18.984375 7.222656 L 18.984375 7.15625 L 18.335938 7.15625 L 18.335938 6.527344 L 18.269531 6.527344 L 18.269531 7.15625 L 16.304688 7.15625 L 16.304688 6.527344 L 16.234375 6.527344 L 16.234375 7.15625 L 14.265625 7.15625 L 14.265625 6.527344 L 14.199219 6.527344 L 14.199219 7.15625 L 12.230469 7.15625 L 12.230469 6.527344 L 12.164062 6.527344 L 12.164062 7.15625 L 10.195312 7.15625 L 10.195312 6.527344 L 10.125 6.527344 L 10.125 7.15625 L 8.15625 7.15625 L 8.15625 6.527344 L 8.09375 6.527344 L 8.09375 7.15625 L 6.125 7.15625 L 6.125 6.527344 Z M 6.125 7.222656 L 8.09375 7.222656 L 8.09375 9.144531 L 6.125 9.144531 Z M 8.15625 7.222656 L 10.125 7.222656 L 10.125 9.144531 L 8.15625 9.144531 Z M 10.195312 7.222656 L 12.164062 7.222656 L 12.164062 9.144531 L 10.195312 9.144531 Z M 12.230469 7.222656 L 14.199219 7.222656 L 14.199219 9.144531 L 12.230469 9.144531 Z M 14.265625 7.222656 L 16.234375 7.222656 L 16.234375 9.144531 L 14.265625 9.144531 Z M 16.304688 7.222656 L 18.273438 7.222656 L 18.273438 9.144531 L 16.304688 9.144531 Z M 6.125 9.210938 L 8.09375 9.210938 L 8.09375 11.132812 L 6.125 11.132812 Z M 8.15625 9.210938 L 10.125 9.210938 L 10.125 11.132812 L 8.15625 11.132812 Z M 10.195312 9.210938 L 12.164062 9.210938 L 12.164062 11.132812 L 10.195312 11.132812 Z M 12.230469 9.210938 L 14.199219 9.210938 L 14.199219 11.132812 L 12.230469 11.132812 Z M 14.265625 9.210938 L 16.234375 9.210938 L 16.234375 11.132812 L 14.265625 11.132812 Z M 16.304688 9.210938 L 18.273438 9.210938 L 18.273438 11.132812 L 16.304688 11.132812 Z M 6.125 11.195312 L 8.09375 11.195312 L 8.09375 13.117188 L 6.125 13.117188 Z M 8.15625 11.195312 L 10.125 11.195312 L 10.125 13.117188 L 8.15625 13.117188 Z M 10.195312 11.195312 L 12.164062 11.195312 L 12.164062 13.117188 L 10.195312 13.117188 Z M 12.230469 11.195312 L 14.199219 11.195312 L 14.199219 13.117188 L 12.230469 13.117188 Z M 14.265625 11.195312 L 16.234375 11.195312 L 16.234375 13.117188 L 14.265625 13.117188 Z M 16.304688 11.195312 L 18.273438 11.195312 L 18.273438 13.117188 L 16.304688 13.117188 Z M 6.125 13.1875 L 8.09375 13.1875 L 8.09375 15.109375 L 6.125 15.109375 Z M 8.15625 13.1875 L 10.125 13.1875 L 10.125 15.109375 L 8.15625 15.109375 Z M 10.195312 13.1875 L 12.164062 13.1875 L 12.164062 15.109375 L 10.195312 15.109375 Z M 12.230469 13.1875 L 14.199219 13.1875 L 14.199219 15.109375 L 12.230469 15.109375 Z M 14.265625 13.1875 L 16.234375 13.1875 L 16.234375 15.109375 L 14.265625 15.109375 Z M 16.304688 13.1875 L 18.273438 13.1875 L 18.273438 15.109375 L 16.304688 15.109375 Z M 6.125 15.171875 L 8.09375 15.171875 L 8.09375 17.09375 L 6.125 17.09375 Z M 8.15625 15.171875 L 10.125 15.171875 L 10.125 17.09375 L 8.15625 17.09375 Z M 10.195312 15.171875 L 12.164062 15.171875 L 12.164062 17.09375 L 10.195312 17.09375 Z M 12.230469 15.171875 L 14.199219 15.171875 L 14.199219 17.09375 L 12.230469 17.09375 Z M 14.265625 15.171875 L 16.234375 15.171875 L 16.234375 17.09375 L 14.265625 17.09375 Z M 16.304688 15.171875 L 18.273438 15.171875 L 18.273438 17.09375 L 16.304688 17.09375 Z M 6.125 17.160156 L 8.09375 17.160156 L 8.09375 19.082031 L 6.125 19.082031 Z M 8.15625 17.160156 L 10.125 17.160156 L 10.125 19.082031 L 8.15625 19.082031 Z M 10.195312 17.160156 L 12.164062 17.160156 L 12.164062 19.082031 L 10.195312 19.082031 Z M 12.230469 17.160156 L 14.199219 17.160156 L 14.199219 19.082031 L 12.230469 19.082031 Z M 14.265625 17.160156 L 16.234375 17.160156 L 16.234375 19.082031 L 14.265625 19.082031 Z M 16.304688 17.160156 L 18.273438 17.160156 L 18.273438 19.082031 L 16.304688 19.082031 Z M 16.304688 17.160156 "/>
<path style="fill:none;stroke-width:3.998;stroke-linecap:butt;stroke-linejoin:miter;stroke:rgb(100%,100%,100%);stroke-opacity:1;stroke-miterlimit:4;" d="M 65.193 910.363333 L 88.568 950.488333 L 99.193 933.78 L 122.943 975.905 L 133.568 958.155 L 156.318 997.946667 L 166.651333 982.613333 " transform="matrix(0.09375,0,0,0.09375,0.0287813,-74.5575)"/>
</g>
</svg>
