
<svg xmlns="http://www.w3.org/2000/svg" xmlns:xlink="http://www.w3.org/1999/xlink" width="24px" height="24px" viewBox="0 0 24 24" version="1.1">
<defs>
<clipPath id="clip1">
  <path d="M 5.5 4 L 20 4 L 20 19 L 5.5 19 Z M 5.5 4 "/>
</clipPath>
<clipPath id="clip2">
  <path d="M 27.609375 11.46875 C 27.609375 18.394531 20.898438 24.007812 12.632812 24.007812 C 4.363281 24.007812 -2.34375 18.394531 -2.34375 11.46875 C -2.34375 4.539062 4.363281 -1.070312 12.632812 -1.070312 C 20.898438 -1.070312 27.609375 4.539062 27.609375 11.46875 Z M 27.609375 11.46875 "/>
</clipPath>
</defs>
<g id="surface1">
<path style=" stroke:none;fill-rule:nonzero;fill:rgb(69.019608%,76.862745%,87.058824%);fill-opacity:1;" d="M 12.265625 23.742188 C 22.664062 25.828125 26.617188 11.515625 22.109375 3.746094 C 18.515625 -2.445312 6.210938 -0.675781 1.625 7.679688 C -2.960938 16.039062 3.914062 22.066406 12.265625 23.742188 Z M 12.265625 23.742188 "/>
<g clip-path="url(#clip1)" clip-rule="nonzero">
<g clip-path="url(#clip2)" clip-rule="nonzero">
<path style=" stroke:none;fill-rule:nonzero;fill:rgb(100%,100%,100%);fill-opacity:1;" d="M 9.398438 8.9375 C 9.429688 9.699219 8.464844 9.734375 8.664062 8.851562 C 8.890625 7.835938 8.082031 7.382812 7.3125 7.015625 C 8.878906 8.734375 7 8.742188 6.277344 10.949219 C 6.03125 11.699219 5.828125 12.472656 6.179688 13.136719 C 6.28125 13.328125 6.550781 13.554688 6.523438 13.78125 C 6.5 14.019531 6.351562 14.203125 6.226562 14.414062 C 6.039062 14.730469 5.6875 15.019531 5.53125 15.304688 C 5.445312 15.460938 5.65625 15.578125 5.816406 15.65625 C 6.054688 15.769531 6.382812 15.804688 6.523438 16.015625 C 6.617188 16.164062 6.59375 16.320312 6.507812 16.460938 C 6.429688 16.597656 6.375 16.796875 6.53125 16.886719 C 6.652344 16.953125 6.804688 16.984375 6.882812 17.101562 C 6.960938 17.210938 6.925781 17.339844 7.046875 17.425781 C 7.25 17.566406 7.585938 17.554688 7.742188 17.851562 C 7.8125 17.984375 7.859375 18.140625 7.953125 18.273438 C 8.101562 18.476562 8.507812 18.539062 8.785156 18.519531 C 9.085938 18.492188 9.304688 18.414062 9.59375 18.34375 C 10.339844 18.148438 11.046875 17.894531 11.710938 17.542969 C 12.269531 17.242188 12.609375 17.070312 13.117188 16.824219 C 13.484375 16.648438 14.007812 16.707031 14.414062 16.621094 C 14.917969 16.511719 15.523438 16.34375 15.882812 16.046875 C 16.257812 15.734375 16.414062 15.488281 16.523438 14.914062 C 16.363281 15.101562 15.945312 15.53125 15.523438 15.648438 C 15.070312 15.773438 14.90625 15.707031 14.765625 15.546875 C 14.648438 15.414062 14.617188 15.234375 14.625 15.070312 C 14.894531 14.320312 16.070312 14.632812 16.851562 14.375 C 18.289062 13.902344 18.617188 12.832031 18.710938 11.992188 C 18.757812 11.535156 18.828125 11.226562 19.75 10.304688 C 18.597656 10.71875 18.117188 11.097656 17.851562 11.585938 C 17.601562 12.046875 16.8125 12.578125 16.339844 12.132812 C 15.742188 11.558594 17.085938 10.792969 18.0625 10.585938 C 18.847656 10.421875 19.570312 9.765625 19.734375 9.132812 C 20.128906 6.9375 18.894531 5.960938 19.835938 4.34375 C 17.039062 6.171875 19.410156 7.167969 17.625 8.671875 C 16.609375 9.523438 15.539062 9.070312 15.9375 8.34375 C 16.195312 7.871094 16.820312 8.15625 17.03125 7.070312 C 16.449219 7.773438 14.578125 7.296875 14.050781 8.441406 C 13.109375 10.4375 11.820312 8.519531 13.945312 7.5625 C 14.84375 7.15625 17 7.289062 17.519531 4.414062 C 16.472656 6.117188 13.894531 5.84375 11.828125 6.582031 C 10.753906 6.960938 9.34375 7.84375 9.394531 8.9375 "/>
</g>
</g>
</g>
</svg>
