
<svg xmlns="http://www.w3.org/2000/svg" xmlns:xlink="http://www.w3.org/1999/xlink" width="24px" height="24px" viewBox="0 0 24 24" version="1.1">
<g id="surface1">
<path style=" stroke:none;fill-rule:nonzero;fill:rgb(50.196078%,50.196078%,0%);fill-opacity:1;" d="M 21.207031 4.378906 C 27.046875 13.359375 22.335938 21.535156 15.726562 23.476562 C 6.835938 26.085938 -5.234375 19.226562 2.71875 5.089844 C 5.878906 -0.527344 17.046875 -2.011719 21.207031 4.378906 Z M 21.207031 4.378906 "/>
<path style="fill-rule:nonzero;fill:rgb(100%,100%,100%);fill-opacity:1;stroke-width:1.04389;stroke-linecap:butt;stroke-linejoin:miter;stroke:rgb(100%,100%,100%);stroke-opacity:1;stroke-miterlimit:4;" d="M 36.520555 101.192017 C 34.187221 100.733683 34.103888 99.77535 34.437221 97.233683 C 34.603888 95.77535 35.645555 93.27535 36.687221 91.692017 C 38.270555 88.02535 40.145555 86.108683 42.978888 82.858683 L 42.978888 61.233683 C 41.645555 60.65035 40.145555 59.942017 39.353888 58.90035 C 34.687221 53.817017 12.270555 47.067017 12.895555 40.15035 C 15.020555 33.483683 37.812221 27.317017 37.895555 24.90035 C 37.895555 23.15035 41.187221 15.483683 42.228888 14.858683 C 43.103888 14.317017 43.228888 11.358683 42.520555 7.858683 C 41.520555 3.567017 34.603888 0.692017 34.187221 -1.59965 C 33.853888 -12.09965 33.645555 -12.016317 35.728888 -13.057983 C 38.062221 -14.182983 37.853888 -15.22465 39.520555 -17.807983 C 52.728888 -19.72465 52.020555 -18.266317 67.895555 -18.557983 C 69.728888 -19.141317 69.645555 -27.141317 70.187221 -29.34965 C 70.978888 -32.47465 79.937221 -31.34965 81.145555 -31.307983 C 88.312221 -31.22465 85.062221 -25.057983 85.520555 -21.891317 C 85.853888 -19.641317 86.978888 -18.141317 92.437221 -18.09965 C 97.812221 -18.016317 97.062221 -18.432983 97.062221 -21.72465 C 97.062221 -23.59965 98.603888 -30.557983 99.353888 -30.84965 C 101.020555 -31.47465 107.020555 -32.182983 110.103888 -30.307983 C 111.520555 -29.432983 111.520555 -26.47465 112.312221 -24.557983 C 113.770555 -21.057983 109.395555 -19.057983 122.603888 -18.391317 C 127.978888 -18.307983 139.562221 -13.266317 140.937221 -8.057983 C 142.853888 -7.432983 144.562221 -1.307983 145.395555 7.817017 C 146.270555 17.90035 146.312221 18.942017 145.687221 20.858683 C 145.228888 22.15035 146.020555 23.317017 149.937221 27.317017 C 154.270555 32.15035 160.728888 34.40035 165.937221 36.77535 C 167.437221 37.52535 167.978888 38.40035 168.353888 40.817017 C 168.603888 42.483683 168.645555 44.15035 168.437221 44.483683 C 155.978888 54.15035 141.062221 56.65035 136.395555 64.983683 C 135.853888 68.483683 138.687221 77.192017 141.228888 77.233683 C 143.353888 77.233683 150.728888 84.192017 153.645555 88.90035 C 155.270555 91.52535 155.562221 92.77535 155.353888 96.27535 L 155.145555 100.483683 L 151.145555 101.02535 C 134.187221 102.108683 117.728888 101.90035 101.020555 100.858683 C 100.145555 100.858683 99.228888 100.317017 98.978888 99.692017 C 98.728888 99.067017 98.520555 94.02535 98.520555 88.52535 C 98.520555 79.192017 98.437221 78.52535 97.062221 78.192017 C 96.020555 74.733683 92.728888 69.65035 88.603888 69.108683 C 88.187221 69.108683 87.062221 69.942017 86.103888 70.942017 C 84.187221 72.983683 84.020555 74.483683 83.687221 91.608683 L 83.520555 101.983683 C 67.228888 100.90035 51.687221 103.608683 36.520555 101.192017 Z M 101.228888 16.942017 C 102.478888 2.15035 68.728888 5.358683 78.103888 31.983683 C 78.062221 37.817017 89.853888 35.192017 96.228888 35.192017 C 104.520555 39.317017 104.103888 17.442017 101.228888 16.942017 Z M 101.228888 16.942017 " transform="matrix(0.09375,0,0,0.09375,3.388698,8.306217)"/>
</g>
</svg>
