
<svg xmlns="http://www.w3.org/2000/svg" xmlns:xlink="http://www.w3.org/1999/xlink" width="24px" height="24px" viewBox="0 0 24 24" version="1.1">
<defs>
<clipPath id="clip1">
  <path d="M 5 3.5 L 19.5 3.5 L 19.5 17 L 5 17 Z M 5 3.5 "/>
</clipPath>
<clipPath id="clip2">
  <path d="M 25.90625 10.40625 C 25.90625 17.289062 19.695312 22.871094 12.046875 22.871094 C 4.394531 22.871094 -1.8125 17.289062 -1.8125 10.40625 C -1.8125 3.515625 4.394531 -2.0625 12.046875 -2.0625 C 19.695312 -2.0625 25.90625 3.515625 25.90625 10.40625 Z M 25.90625 10.40625 "/>
</clipPath>
<clipPath id="clip3">
  <path d="M 5 8.5 L 19 8.5 L 19 12.5 L 5 12.5 Z M 5 8.5 "/>
</clipPath>
<clipPath id="clip4">
  <path d="M 25.90625 10.40625 C 25.90625 17.289062 19.695312 22.871094 12.046875 22.871094 C 4.394531 22.871094 -1.8125 17.289062 -1.8125 10.40625 C -1.8125 3.515625 4.394531 -2.0625 12.046875 -2.0625 C 19.695312 -2.0625 25.90625 3.515625 25.90625 10.40625 Z M 25.90625 10.40625 "/>
</clipPath>
<clipPath id="clip5">
  <path d="M 10.5 9 L 13.5 9 L 13.5 11.5 L 10.5 11.5 Z M 10.5 9 "/>
</clipPath>
<clipPath id="clip6">
  <path d="M 25.90625 10.40625 C 25.90625 17.289062 19.695312 22.871094 12.046875 22.871094 C 4.394531 22.871094 -1.8125 17.289062 -1.8125 10.40625 C -1.8125 3.515625 4.394531 -2.0625 12.046875 -2.0625 C 19.695312 -2.0625 25.90625 3.515625 25.90625 10.40625 Z M 25.90625 10.40625 "/>
</clipPath>
<clipPath id="clip7">
  <path d="M 6.5 9 L 9.5 9 L 9.5 11.5 L 6.5 11.5 Z M 6.5 9 "/>
</clipPath>
<clipPath id="clip8">
  <path d="M 25.90625 10.40625 C 25.90625 17.289062 19.695312 22.871094 12.046875 22.871094 C 4.394531 22.871094 -1.8125 17.289062 -1.8125 10.40625 C -1.8125 3.515625 4.394531 -2.0625 12.046875 -2.0625 C 19.695312 -2.0625 25.90625 3.515625 25.90625 10.40625 Z M 25.90625 10.40625 "/>
</clipPath>
<clipPath id="clip9">
  <path d="M 15 9 L 17.5 9 L 17.5 11.5 L 15 11.5 Z M 15 9 "/>
</clipPath>
<clipPath id="clip10">
  <path d="M 25.90625 10.40625 C 25.90625 17.289062 19.695312 22.871094 12.046875 22.871094 C 4.394531 22.871094 -1.8125 17.289062 -1.8125 10.40625 C -1.8125 3.515625 4.394531 -2.0625 12.046875 -2.0625 C 19.695312 -2.0625 25.90625 3.515625 25.90625 10.40625 Z M 25.90625 10.40625 "/>
</clipPath>
</defs>
<g id="surface1">
<path style=" stroke:none;fill-rule:nonzero;fill:rgb(0%,74.901961%,100%);fill-opacity:1;" d="M 3.21875 18.6875 C 3.992188 19.851562 5.023438 21.015625 5.964844 21.789062 C 9.25 24.484375 13.027344 24.597656 16.375 22.101562 C 18.171875 20.757812 19.890625 18.65625 21.4375 15.929688 C 23.28125 12.671875 23.90625 8.769531 23.042969 5.890625 C 22.859375 5.28125 22.339844 4.222656 21.96875 3.703125 C 20.726562 1.972656 18.867188 0.953125 16.160156 0.523438 C 13.570312 0.117188 11.140625 0.0703125 9.078125 0.402344 C 4.835938 1.078125 2 3.421875 1 7.078125 C 0.296875 9.640625 0.515625 12.523438 1.65625 15.613281 C 1.828125 16.078125 2.9375 18.265625 3.21875 18.6875 Z M 3.21875 18.6875 "/>
<g clip-path="url(#clip1)" clip-rule="nonzero">
<g clip-path="url(#clip2)" clip-rule="nonzero">
<path style=" stroke:none;fill-rule:nonzero;fill:rgb(100%,100%,100%);fill-opacity:1;" d="M 12.046875 3.898438 C 8.679688 3.898438 5.867188 5.976562 5.058594 8.777344 L 19.03125 8.777344 C 18.226562 5.976562 15.414062 3.898438 12.046875 3.898438 M 5.054688 12.03125 C 5.859375 14.828125 8.675781 16.90625 12.039062 16.90625 C 15.414062 16.90625 18.226562 14.828125 19.03125 12.03125 L 5.054688 12.03125 M 5.0625 12.03125 "/>
</g>
</g>
<g clip-path="url(#clip3)" clip-rule="nonzero">
<g clip-path="url(#clip4)" clip-rule="nonzero">
<path style=" stroke:none;fill-rule:nonzero;fill:rgb(75.294118%,75.294118%,75.294118%);fill-opacity:1;" d="M 5.417969 8.777344 L 18.671875 8.777344 L 18.671875 12.03125 L 5.417969 12.03125 M 5.417969 8.777344 "/>
</g>
</g>
<g clip-path="url(#clip5)" clip-rule="nonzero">
<g clip-path="url(#clip6)" clip-rule="nonzero">
<path style=" stroke:none;fill-rule:nonzero;fill:rgb(100%,100%,100%);fill-opacity:1;" d="M 13.25 10.40625 C 13.25 11 12.710938 11.488281 12.046875 11.488281 C 11.382812 11.488281 10.839844 11 10.839844 10.40625 C 10.839844 9.804688 11.382812 9.320312 12.046875 9.320312 C 12.710938 9.320312 13.25 9.804688 13.25 10.40625 M 13.25 10.40625 "/>
</g>
</g>
<g clip-path="url(#clip7)" clip-rule="nonzero">
<g clip-path="url(#clip8)" clip-rule="nonzero">
<path style=" stroke:none;fill-rule:nonzero;fill:rgb(100%,100%,100%);fill-opacity:1;" d="M 9.03125 10.40625 C 9.03125 11 8.492188 11.488281 7.828125 11.488281 C 7.164062 11.488281 6.625 11 6.625 10.40625 C 6.625 9.804688 7.164062 9.320312 7.828125 9.320312 C 8.492188 9.320312 9.03125 9.804688 9.03125 10.40625 M 9.03125 10.40625 "/>
</g>
</g>
<g clip-path="url(#clip9)" clip-rule="nonzero">
<g clip-path="url(#clip10)" clip-rule="nonzero">
<path style=" stroke:none;fill-rule:nonzero;fill:rgb(100%,100%,100%);fill-opacity:1;" d="M 17.46875 10.40625 C 17.46875 11 16.929688 11.488281 16.265625 11.488281 C 15.597656 11.488281 15.058594 11 15.058594 10.40625 C 15.058594 9.804688 15.597656 9.320312 16.265625 9.320312 C 16.929688 9.320312 17.46875 9.804688 17.46875 10.40625 M 17.46875 10.40625 "/>
</g>
</g>
</g>
</svg>
