
<svg xmlns="http://www.w3.org/2000/svg" xmlns:xlink="http://www.w3.org/1999/xlink" width="24px" height="24px" viewBox="0 0 24 24" version="1.1">
<g id="surface1">
<path style=" stroke:none;fill-rule:nonzero;fill:rgb(18.431373%,30.980392%,30.980392%);fill-opacity:1;" d="M 9.277344 23.585938 C -13.023438 18.941406 10.917969 -13.007812 22.25 6.183594 C 27.109375 13.640625 20.746094 25.976562 9.277344 23.585938 Z M 9.277344 23.585938 "/>
<path style="fill-rule:nonzero;fill:rgb(100%,27.058824%,0%);fill-opacity:1;stroke-width:1.293;stroke-linecap:butt;stroke-linejoin:miter;stroke:rgb(86.27451%,7.843137%,23.529412%);stroke-opacity:1;stroke-miterlimit:4;" d="M 109.945937 208.184359 C 109.442192 207.349364 108.705949 204.884138 108.240954 202.697244 C 107.427213 198.323455 107.155966 198.124647 96.228579 193.711097 C 90.687387 191.484441 85.998686 188.064934 78.597513 180.74878 C 68.135121 170.410735 64.143913 164.048862 64.143913 157.647226 C 64.143913 152.239634 60.152704 148.581557 54.146517 148.581557 C 45.040362 148.581557 46.474097 142.418492 55.73525 141.663019 C 61.005196 141.305164 61.005196 141.265402 62.671428 133.989009 C 64.608908 125.63905 65.42265 119.635032 74.722553 109.177702 C 78.403765 105.042485 83.014967 102.974876 83.014967 102.219403 C 83.014967 101.503692 84.293703 100.50965 85.843687 99.992747 C 87.432421 99.436084 89.951145 97.9649 91.501128 96.692526 C 93.051112 95.459913 96.809823 93.988729 99.871041 93.511589 C 106.225975 92.477784 107.775959 91.046363 108.395953 85.439962 C 108.977197 79.714276 112.309662 80.270939 113.743397 86.434004 C 114.479639 89.654703 115.835875 91.642788 117.540858 92.199452 C 121.609565 93.432065 130.715721 98.203471 131.490712 99.436084 C 132.69195 101.503692 130.134477 101.861548 124.787032 100.350603 C 120.330829 99.078228 118.897093 99.197513 115.835875 101.106075 C 113.4334 102.61702 110.178434 104.485821 108.318453 102.577259 C 105.295985 99.396322 99.173549 100.350603 92.741115 103.730348 C 81.77498 109.456034 76.00129 114.22744 74.761302 120.430266 C 74.412556 122.418352 73.288818 125.678812 72.281328 127.746421 C 70.033852 132.358779 69.840104 140.470168 72.010081 141.305164 C 72.862572 141.623257 77.435025 142.37873 82.084976 142.895632 C 86.773678 143.492058 90.687387 144.525862 90.726136 145.281335 C 90.803636 145.997046 86.386182 147.507991 80.922488 148.581557 C 69.568856 150.887736 69.103861 151.603447 72.358827 162.259585 C 75.420046 172.040965 78.016269 174.307383 83.402463 177.806413 C 89.059904 181.504252 96.926072 187.229938 98.398557 186.275657 C 99.01855 185.87804 101.149778 186.275657 103.126007 187.150415 C 106.148476 188.462551 107.272214 188.343266 109.63594 186.633513 C 112.270912 184.645427 112.658408 184.724951 115.293381 187.349224 C 117.502108 189.536118 119.090841 189.973496 122.268308 189.337309 C 130.056977 187.786602 131.180716 187.786602 131.76196 189.456594 C 132.033207 190.371114 131.258215 191.484441 129.979478 191.92182 C 127.84825 192.677293 121.493316 195.540136 116.959614 197.766792 C 115.952124 198.323455 114.944635 199.8344 114.750887 201.22606 C 113.510899 209.695304 112.077164 211.842437 109.945937 208.184359 Z M 170.434057 180.549971 C 166.249101 178.760694 163.342881 174.347145 162.645388 168.700982 C 161.676649 161.146257 162.52914 159.555789 167.179091 160.231738 C 170.511557 160.788402 171.092801 161.384827 171.092801 164.764573 C 171.092801 174.347145 178.028978 180.271639 184.267664 175.977375 C 188.41387 173.114532 189.150113 169.376931 188.41387 154.148196 C 187.755127 141.384687 187.755127 141.344926 183.182675 137.209708 C 180.702701 134.903529 178.610222 132.478064 178.610222 131.802115 C 178.610222 131.20569 180.625201 128.979034 183.027677 126.951187 L 187.445131 123.213586 L 187.406381 110.966979 C 187.367631 98.084185 185.817647 92.438023 181.981437 91.642788 C 178.493974 90.966839 173.766523 95.022534 172.604035 99.714415 C 171.635295 103.690586 171.13155 104.048442 166.597847 104.048442 L 161.637899 104.048442 L 161.289153 97.328713 C 160.979156 92.119929 161.482901 89.81375 163.536629 87.070192 C 169.581566 78.87928 188.220123 78.87928 195.931292 86.990668 C 199.03126 90.251129 199.07001 90.688507 198.411267 105.16177 C 198.06252 113.31292 197.365027 121.026692 196.861283 122.259305 C 196.396287 123.53168 194.071312 125.718574 191.707586 127.229519 C 186.011395 130.768311 186.050145 134.625197 191.785085 137.527801 C 197.946271 140.629215 199.108759 144.724671 198.06252 159.436503 C 196.900032 175.062855 196.008792 177.48832 190.622598 179.874022 C 185.933896 181.981393 174.580264 182.339248 170.434057 180.549971 Z M 99.444796 178.601647 C 97.546066 176.176183 96.887322 109.456034 98.747303 107.626996 C 100.723532 105.718434 114.208392 107.865566 116.688366 110.489839 C 118.354599 112.239354 120.447077 115.738384 120.447077 123.094301 C 120.447077 131.046643 118.393349 132.716635 116.029623 135.85781 L 113.200903 139.635172 L 115.913375 144.207769 C 118.23835 148.223701 118.587097 150.847974 118.587097 164.048862 C 118.587097 172.398821 118.199601 179.675214 117.695856 180.192116 C 117.192111 180.709018 115.990874 179.993307 114.983384 178.601647 C 113.782147 176.812371 113.200903 172.200012 113.200903 163.691006 C 113.200903 149.655123 111.883416 144.605386 108.240954 144.605386 C 104.210996 144.605386 103.126007 148.780365 103.126007 164.366955 C 103.126007 178.879979 102.273516 182.180201 99.444796 178.601647 Z M 111.418421 134.625197 C 114.130893 130.251409 113.317152 117.567423 110.178434 114.267201 C 108.124706 112.159831 107.853458 112.199592 105.567232 115.181721 C 102.506014 119.11813 102.234767 130.649026 105.102237 135.022814 C 107.620961 138.800176 108.899697 138.720653 111.418421 134.625197 Z M 133.311944 177.806413 C 131.296965 175.699043 130.831969 173.392864 130.831969 165.8779 C 130.831969 158.482222 131.219465 156.533899 132.69195 156.533899 C 134.164435 156.533899 134.59068 158.283414 134.59068 163.969338 C 134.59068 172.955485 136.179414 176.534039 140.248121 176.534039 C 144.27808 176.534039 145.905563 172.995246 145.905563 164.24767 C 145.905563 157.766512 145.324319 156.374852 139.008134 147.229659 C 129.746981 133.909486 127.499504 124.645007 130.948218 114.187678 C 132.575701 109.177702 135.365672 107.388425 141.410609 107.388425 C 148.463036 107.388425 151.136758 111.126026 150.710513 120.390505 C 150.400516 126.076429 149.858021 127.984991 148.424286 127.984991 C 147.06805 127.984991 146.409307 126.235476 146.13806 122.020735 C 145.518067 113.153873 142.146852 110.211507 137.845646 114.784103 C 134.59068 118.20361 135.288173 127.428327 139.201882 133.432345 C 151.795501 152.716774 150.94301 150.450357 150.94301 163.372913 C 150.94301 177.48832 149.160529 180.51021 140.868115 180.51021 C 137.53565 180.51021 134.978176 179.59569 133.311944 177.846175 Z M 133.311944 177.806413 " transform="matrix(0.100807,0,0,0.0982415,-0.895875,-1.6125)"/>
</g>
</svg>
