
<svg xmlns="http://www.w3.org/2000/svg" xmlns:xlink="http://www.w3.org/1999/xlink" width="24px" height="24px" viewBox="0 0 24 24" version="1.1">
<g id="surface1">
<path style=" stroke:none;fill-rule:nonzero;fill:rgb(63.921569%,72.54902%,70.588235%);fill-opacity:1;" d="M 4.203125 3.945312 C -14.71875 28.351562 37.351562 31.820312 20.640625 6.90625 C 16.832031 1.226562 9.214844 -2.515625 4.203125 3.945312 Z M 4.203125 3.945312 "/>
<path style=" stroke:none;fill-rule:evenodd;fill:rgb(0%,0%,0%);fill-opacity:0.101961;" d="M 11.625 6.378906 C 10.949219 6.390625 10.273438 6.445312 9.664062 6.71875 C 8.875 7.070312 8.21875 7.726562 7.6875 8.421875 C 7.382812 8.820312 7.210938 9.308594 7.03125 9.78125 C 6.742188 10.550781 6.445312 11.339844 6.375 12.164062 C 6.273438 13.296875 6.546875 14.675781 6.703125 15.5625 C 6.757812 15.875 6.046875 16.242188 6.046875 16.242188 C 6.046875 16.242188 7.132812 16.617188 7.6875 16.582031 C 8.078125 16.558594 8.585938 16.398438 9.074219 16.21875 L 9.074219 17.289062 L 9.578125 18.332031 L 9.074219 19.898438 L 10.085938 19.898438 L 10.589844 18.332031 L 10.085938 17.289062 L 10.085938 15.820312 C 10.378906 15.6875 10.585938 15.59375 10.617188 15.578125 C 11.625 15.445312 13.257812 15.21875 14.632812 14.894531 L 14.632812 16.242188 L 14.125 17.289062 L 14.632812 18.851562 L 15.640625 18.851562 L 15.136719 17.289062 L 15.640625 16.242188 L 15.640625 14.601562 C 16.976562 14.132812 19.152344 13.121094 19.167969 13.113281 C 19.507812 13.113281 19.851562 13.113281 20.1875 13.109375 C 20.1875 13.109375 19.128906 12.589844 18.730469 12.164062 C 18.507812 11.921875 18.375 11.601562 18.253906 11.289062 C 18.066406 10.804688 18.113281 10.242188 17.886719 9.78125 C 17.5 8.992188 16.890625 8.316406 16.242188 7.742188 C 15.757812 7.3125 15.199219 6.941406 14.597656 6.71875 C 13.867188 6.453125 13.070312 6.386719 12.296875 6.378906 C 12.070312 6.375 11.851562 6.375 11.625 6.378906 Z M 11.625 6.378906 "/>
<path style=" stroke:none;fill-rule:evenodd;fill:rgb(38.039216%,36.470588%,29.411765%);fill-opacity:1;" d="M 15.140625 13.632812 L 15.140625 15.722656 L 14.632812 16.765625 L 15.140625 18.335938 L 14.128906 18.335938 L 13.625 16.765625 L 14.128906 15.722656 L 14.128906 13.632812 Z M 15.140625 13.632812 "/>
<path style=" stroke:none;fill-rule:evenodd;fill:rgb(19.215686%,21.176471%,18.039216%);fill-opacity:1;" d="M 9.078125 15.203125 C 9.078125 15.203125 13.015625 14.726562 14.703125 14.226562 C 15.933594 13.867188 18.664062 12.59375 18.664062 12.59375 C 15.632812 11.027344 16.65625 11.023438 14.128906 9.976562 "/>
<path style=" stroke:none;fill-rule:evenodd;fill:rgb(42.352941%,40.392157%,32.54902%);fill-opacity:1;" d="M 8.570312 14.679688 L 8.570312 16.765625 L 9.078125 17.8125 L 8.570312 19.378906 L 9.585938 19.378906 L 10.085938 17.8125 L 9.585938 16.765625 L 9.585938 14.679688 Z M 8.570312 14.679688 "/>
<path style=" stroke:none;fill-rule:evenodd;fill:rgb(36.470588%,42.352941%,32.54902%);fill-opacity:1;" d="M 5.539062 15.722656 C 5.539062 15.722656 6.253906 15.359375 6.199219 15.042969 C 6.046875 14.15625 5.773438 12.777344 5.871094 11.640625 C 5.941406 10.820312 6.238281 10.03125 6.53125 9.261719 C 6.707031 8.789062 6.882812 8.296875 7.1875 7.898438 C 7.71875 7.207031 8.375 6.554688 9.160156 6.199219 C 9.96875 5.835938 10.90625 5.851562 11.789062 5.859375 C 12.566406 5.867188 13.363281 5.929688 14.09375 6.199219 C 14.695312 6.421875 15.253906 6.789062 15.738281 7.21875 C 16.390625 7.796875 16.992188 8.46875 17.382812 9.257812 C 17.609375 9.722656 17.5625 10.289062 17.75 10.765625 C 17.867188 11.078125 18.007812 11.398438 18.226562 11.640625 C 18.625 12.070312 19.6875 12.585938 19.6875 12.585938 C 18.675781 12.601562 17.585938 12.570312 16.726562 12.664062 C 15.507812 12.792969 14.261719 12.914062 13.109375 13.34375 C 12.046875 13.734375 10.148438 15.042969 10.148438 15.042969 C 10.148438 15.042969 8.226562 15.996094 7.1875 16.0625 C 6.628906 16.097656 5.539062 15.722656 5.539062 15.722656 "/>
<path style=" stroke:none;fill-rule:evenodd;fill:rgb(29.019608%,33.72549%,25.882353%);fill-opacity:1;" d="M 10.125 5.9375 C 9.789062 5.992188 9.464844 6.0625 9.160156 6.203125 C 8.375 6.554688 7.71875 7.207031 7.1875 7.898438 C 6.882812 8.296875 6.707031 8.789062 6.53125 9.261719 C 6.238281 10.03125 5.941406 10.820312 5.871094 11.640625 C 5.773438 12.777344 6.046875 14.15625 6.199219 15.042969 C 6.253906 15.359375 5.539062 15.726562 5.539062 15.726562 C 5.539062 15.726562 6.625 16.101562 7.1875 16.0625 C 8.226562 15.996094 10.148438 15.042969 10.148438 15.042969 C 10.148438 15.042969 11.167969 14.34375 12.125 13.8125 C 12.125 13.8125 8.570312 15.203125 8.066406 12.066406 C 7.054688 8.414062 10.121094 5.941406 10.121094 5.941406 "/>
</g>
</svg>
