
<svg xmlns="http://www.w3.org/2000/svg" xmlns:xlink="http://www.w3.org/1999/xlink" width="24px" height="24px" viewBox="0 0 24 24" version="1.1">
<defs>
<clipPath id="clip1">
  <path d="M 6.5 6 L 20 6 L 20 18.5 L 6.5 18.5 Z M 6.5 6 "/>
</clipPath>
<clipPath id="clip2">
  <path d="M 3.664062 0.00390625 L 22.523438 0.00390625 C 23.621094 0.00390625 24.507812 0.984375 24.507812 2.195312 L 24.507812 23.03125 C 24.507812 24.242188 23.621094 25.226562 22.523438 25.226562 L 3.664062 25.226562 C 2.570312 25.226562 1.679688 24.242188 1.679688 23.03125 L 1.679688 2.195312 C 1.679688 0.984375 2.570312 0.00390625 3.664062 0.00390625 Z M 3.664062 0.00390625 "/>
</clipPath>
<clipPath id="clip3">
  <path d="M 9 8.5 L 15.5 8.5 L 15.5 15.5 L 9 15.5 Z M 9 8.5 "/>
</clipPath>
<clipPath id="clip4">
  <path d="M 3.664062 0.00390625 L 22.523438 0.00390625 C 23.621094 0.00390625 24.507812 0.984375 24.507812 2.195312 L 24.507812 23.03125 C 24.507812 24.242188 23.621094 25.226562 22.523438 25.226562 L 3.664062 25.226562 C 2.570312 25.226562 1.679688 24.242188 1.679688 23.03125 L 1.679688 2.195312 C 1.679688 0.984375 2.570312 0.00390625 3.664062 0.00390625 Z M 3.664062 0.00390625 "/>
</clipPath>
</defs>
<g id="surface1">
<path style=" stroke:none;fill-rule:nonzero;fill:rgb(34.117647%,34.117647%,34.117647%);fill-opacity:1;" d="M 4.957031 21.65625 C 23 33.65625 34.113281 -4.601562 10.789062 0.464844 C 1.148438 2.625 -4.703125 16.15625 4.957031 21.65625 Z M 4.957031 21.65625 "/>
<g clip-path="url(#clip1)" clip-rule="nonzero">
<g clip-path="url(#clip2)" clip-rule="nonzero">
<path style=" stroke:none;fill-rule:nonzero;fill:rgb(92.54902%,63.921569%,3.921569%);fill-opacity:1;" d="M 11.777344 6.117188 C 12.820312 6.03125 14 6.078125 15.203125 6.078125 C 16.28125 6.078125 17.703125 5.90625 18.453125 6.230469 C 19.117188 6.515625 19.644531 7.136719 19.535156 8.210938 C 19.476562 8.75 19.144531 9.320312 18.976562 9.773438 C 18.414062 11.265625 17.765625 12.96875 17.226562 14.382812 C 16.402344 16.566406 14.527344 18.289062 11.710938 18.082031 C 10.179688 17.96875 8.96875 17.148438 8.144531 16.214844 C 7.28125 15.234375 6.640625 13.890625 6.640625 12.101562 C 6.640625 10.375 7.300781 8.976562 8.144531 7.984375 C 8.96875 7.015625 10.167969 6.25 11.78125 6.117188 M 18.207031 7.5625 C 18.304688 6.492188 16.757812 6.394531 16.773438 7.527344 L 17.296875 7.527344 C 17.21875 7.03125 17.65625 7.042969 17.71875 7.375 C 17.851562 8.078125 16.527344 8.65625 16.742188 9.507812 C 17.242188 9.507812 17.75 9.5 18.207031 9.546875 C 18.261719 9.460938 18.261719 9.175781 18.207031 9.085938 L 17.296875 9.085938 C 17.554688 8.664062 18.148438 8.210938 18.207031 7.566406 M 8.945312 8.671875 C 8.296875 9.402344 7.789062 10.289062 7.691406 11.570312 C 7.511719 13.976562 8.648438 15.503906 9.859375 16.296875 C 11.109375 17.109375 12.859375 17.234375 14.257812 16.40625 C 15.539062 15.648438 16.328125 14.429688 16.5625 12.898438 C 16.851562 11.03125 16.058594 9.320312 15.203125 8.480469 C 14.421875 7.71875 13.265625 7.070312 11.601562 7.261719 C 10.414062 7.398438 9.554688 7.992188 8.945312 8.671875 "/>
</g>
</g>
<g clip-path="url(#clip3)" clip-rule="nonzero">
<g clip-path="url(#clip4)" clip-rule="nonzero">
<path style=" stroke:none;fill-rule:nonzero;fill:rgb(92.54902%,63.921569%,3.921569%);fill-opacity:1;" d="M 10.664062 8.515625 L 12.269531 8.515625 C 12.835938 10.3125 13.519531 11.976562 14.078125 13.773438 C 14.382812 13.695312 14.652344 13.585938 14.917969 13.46875 C 15.085938 13.742188 15.109375 14.171875 15.265625 14.460938 C 14.710938 14.757812 14.035156 14.929688 13.375 15.109375 C 13.050781 14.015625 12.640625 13.015625 12.289062 11.945312 C 11.65625 12.867188 11.140625 13.898438 10.539062 14.84375 L 9.351562 14.84375 C 9.339844 14.664062 9.464844 14.46875 9.5625 14.304688 C 10.25 13.0625 11.039062 11.664062 11.71875 10.382812 C 11.660156 10.070312 11.523438 9.84375 11.441406 9.546875 L 10.640625 9.546875 M 10.640625 8.515625 "/>
</g>
</g>
</g>
</svg>
