
<svg xmlns="http://www.w3.org/2000/svg" xmlns:xlink="http://www.w3.org/1999/xlink" width="24px" height="24px" viewBox="0 0 24 24" version="1.1">
<g id="surface1">
<path style=" stroke:none;fill-rule:nonzero;fill:rgb(100%,100%,100%);fill-opacity:1;" d="M 8.679688 11.734375 L 8.679688 16.414062 C 8.679688 19.21875 9.164062 19.21875 13.492188 19.21875 L 14.457031 19.21875 C 18.789062 19.21875 19.269531 19.21875 19.269531 16.414062 L 19.269531 11.734375 C 19.269531 8.929688 18.789062 8.929688 14.457031 8.929688 L 13.492188 8.929688 C 9.164062 8.929688 8.679688 8.929688 8.679688 11.734375 Z M 13.492188 9.867188 L 14.457031 9.867188 C 18.304688 9.867188 18.304688 9.867188 18.304688 11.734375 L 18.304688 15.007812 C 18.304688 16.882812 18.304688 16.882812 14.457031 16.882812 L 13.492188 16.882812 C 9.644531 16.882812 9.644531 16.882812 9.644531 15.007812 L 9.644531 11.734375 C 9.644531 9.867188 9.644531 9.867188 13.492188 9.867188 Z M 13.492188 9.867188 "/>
<path style=" stroke:none;fill-rule:nonzero;fill:rgb(100%,100%,100%);fill-opacity:1;" d="M 10.609375 15.09375 L 10.609375 13.28125 L 12.289062 11.582031 L 14.398438 13.707031 L 15.242188 12.859375 L 17.34375 14.984375 L 17.34375 15.09375 C 17.34375 15.945312 17.203125 15.945312 15.664062 15.945312 L 12.292969 15.945312 C 10.75 15.945312 10.609375 15.945312 10.609375 15.09375 Z M 10.609375 15.09375 "/>
<path style=" stroke:none;fill-rule:nonzero;fill:rgb(100%,100%,100%);fill-opacity:1;" d="M 17.34375 11.734375 C 17.34375 12.253906 16.914062 12.671875 16.382812 12.671875 C 15.851562 12.671875 15.421875 12.253906 15.421875 11.734375 C 15.421875 11.21875 15.851562 10.800781 16.382812 10.800781 C 16.914062 10.800781 17.34375 11.21875 17.34375 11.734375 Z M 17.34375 11.734375 "/>
<path style=" stroke:none;fill-rule:nonzero;fill:rgb(100%,100%,100%);fill-opacity:1;" d="M 11.570312 7.0625 C 7.238281 7.0625 6.757812 7.0625 6.757812 9.867188 L 6.757812 14.542969 C 6.757812 16.0625 6.898438 16.761719 7.71875 17.078125 L 7.71875 9.867188 C 7.71875 8.171875 7.75 8.015625 10.609375 8 L 10.609375 7.996094 L 17.109375 7.996094 C 16.6875 7.0625 15.535156 7.0625 12.53125 7.0625 Z M 11.570312 7.0625 "/>
<path style=" stroke:none;fill-rule:nonzero;fill:rgb(100%,100%,100%);fill-opacity:1;" d="M 9.644531 5.1875 C 5.3125 5.1875 4.832031 5.1875 4.832031 7.996094 L 4.832031 12.671875 C 4.832031 14.195312 4.976562 14.890625 5.796875 15.210938 L 5.796875 7.996094 C 5.796875 6.300781 5.824219 6.144531 8.679688 6.128906 L 8.679688 6.125 L 15.183594 6.125 C 14.757812 5.1875 13.609375 5.1875 10.609375 5.1875 Z M 9.644531 5.1875 "/>
<path style=" stroke:none;fill-rule:nonzero;fill:rgb(27.45098%,50.980392%,70.588235%);fill-opacity:1;" d="M 4.269531 20.585938 C -14.492188 -4.28125 37.136719 -7.816406 20.570312 17.570312 C 16.789062 23.355469 9.238281 27.171875 4.269531 20.585938 Z M 4.269531 20.585938 "/>
<path style=" stroke:none;fill-rule:nonzero;fill:rgb(100%,100%,100%);fill-opacity:1;" d="M 10.28125 18.585938 C 8.179688 18.109375 6.101562 16.605469 5.375 15.027344 C 4.078125 12.214844 4.617188 7.445312 6.476562 5.289062 C 7.117188 4.546875 7.316406 4.585938 7.320312 5.449219 C 7.320312 6.5 7.421875 6.738281 7.84375 6.738281 C 8.0625 6.738281 8.335938 6.601562 8.527344 6.394531 C 9.339844 5.53125 11.453125 4.738281 11.453125 5.292969 C 11.453125 5.359375 11.257812 5.671875 11.011719 5.984375 C 10.480469 6.679688 10.195312 7.324219 10.300781 7.59375 C 10.355469 7.742188 10.578125 7.796875 11.082031 7.796875 C 11.9375 7.800781 12.054688 7.871094 12.164062 8.4375 C 12.238281 8.804688 12.195312 8.933594 11.882812 9.230469 C 11.675781 9.421875 11.3125 9.6875 11.066406 9.816406 C 10.664062 10.03125 10.632812 10.09375 10.707031 10.492188 C 10.867188 11.320312 10.511719 11.601562 9.875 11.15625 C 9.511719 10.90625 9.390625 10.976562 9.515625 11.367188 C 9.621094 11.691406 10.328125 12.164062 10.707031 12.164062 C 10.847656 12.164062 11.238281 12 11.574219 11.804688 C 12.316406 11.375 13.4375 11.296875 13.800781 11.65625 C 14.109375 11.960938 13.945312 12.523438 13.484375 12.726562 C 13.285156 12.8125 12.835938 13.105469 12.484375 13.375 C 12.070312 13.699219 11.644531 13.898438 11.25 13.953125 C 10.921875 14.003906 10.652344 14.085938 10.652344 14.140625 C 10.652344 14.320312 11.679688 14.542969 12.488281 14.542969 C 13.558594 14.542969 14.535156 14.046875 15.210938 13.160156 C 16.101562 11.992188 16.109375 11.0625 15.25 9.367188 C 15.078125 9.03125 14.972656 8.71875 15.015625 8.671875 C 15.234375 8.460938 15.679688 8.640625 16.144531 9.125 L 16.65625 9.660156 L 16.65625 9.28125 C 16.65625 8.417969 16.015625 6.820312 15.304688 5.925781 C 14.921875 5.4375 14.804688 5.019531 15.0625 5.019531 C 15.734375 5.019531 17.449219 6.476562 18.238281 7.71875 C 19.113281 9.09375 19.378906 9.9375 19.363281 11.304688 C 19.328125 14.566406 17.359375 17.332031 14.3125 18.386719 C 13.277344 18.746094 11.40625 18.835938 10.28125 18.585938 Z M 10.28125 18.585938 "/>
</g>
</svg>
