
<svg xmlns="http://www.w3.org/2000/svg" xmlns:xlink="http://www.w3.org/1999/xlink" width="24px" height="24px" viewBox="0 0 24 24" version="1.1">
<g id="surface1">
<path style=" stroke:none;fill-rule:nonzero;fill:rgb(0%,74.901961%,100%);fill-opacity:1;" d="M 3.480469 19.796875 C 28.453125 38.71875 32 -13.351562 6.507812 3.359375 C 0.699219 7.167969 -3.132812 14.785156 3.480469 19.796875 Z M 3.480469 19.796875 "/>
<path style=" stroke:none;fill-rule:evenodd;fill:rgb(0%,0%,0%);fill-opacity:0.0980392;" d="M 13.140625 5.835938 C 9.453125 5.835938 6.460938 8.816406 6.460938 12.476562 C 6.460938 12.617188 6.46875 12.757812 6.476562 12.894531 C 6.09375 13.109375 5.835938 13.519531 5.835938 13.988281 C 5.835938 14.675781 6.386719 15.230469 7.078125 15.25 C 8.132812 17.53125 10.449219 19.121094 13.140625 19.121094 C 14.332031 19.121094 15.453125 18.8125 16.421875 18.265625 C 16.617188 18.390625 16.859375 18.46875 17.117188 18.46875 C 17.8125 18.46875 18.394531 17.910156 18.394531 17.210938 C 18.394531 17.039062 18.347656 16.863281 18.28125 16.710938 C 18.28125 16.710938 18.285156 16.703125 18.28125 16.699219 C 19.234375 15.546875 19.8125 14.078125 19.8125 12.476562 C 19.8125 11.867188 19.71875 11.273438 19.5625 10.707031 C 19.828125 10.476562 19.992188 10.132812 19.992188 9.753906 C 19.992188 9.054688 19.429688 8.492188 18.726562 8.492188 C 18.644531 8.492188 18.554688 8.507812 18.476562 8.523438 C 17.257812 6.898438 15.324219 5.835938 13.136719 5.835938 Z M 13.140625 6.722656 C 15.023438 6.722656 16.632812 7.65625 17.671875 9.046875 C 17.535156 9.25 17.453125 9.492188 17.453125 9.753906 C 17.453125 9.882812 17.484375 10.007812 17.523438 10.125 L 15.058594 12.242188 C 14.867188 12.128906 14.644531 12.0625 14.40625 12.0625 C 13.820312 12.0625 13.339844 12.453125 13.195312 12.992188 L 8.226562 13.390625 C 8.054688 13.066406 7.75 12.820312 7.378906 12.742188 C 7.375 12.652344 7.351562 12.566406 7.351562 12.476562 C 7.351562 9.296875 9.9375 6.71875 13.140625 6.71875 Z M 18.082031 10.832031 C 18.269531 10.945312 18.484375 11.007812 18.722656 11.015625 C 18.851562 11.484375 18.929688 11.96875 18.929688 12.480469 C 18.929688 13.84375 18.445312 15.078125 17.652344 16.0625 C 17.492188 15.992188 17.308594 15.953125 17.125 15.953125 C 17.015625 15.953125 16.917969 15.957031 16.816406 15.980469 L 15.46875 14.03125 C 15.46875 14.027344 15.464844 14.023438 15.46875 14.015625 C 15.601562 13.816406 15.675781 13.578125 15.675781 13.324219 C 15.675781 13.1875 15.660156 13.046875 15.621094 12.921875 L 18.082031 10.835938 Z M 13.28125 13.875 C 13.492188 14.292969 13.914062 14.585938 14.414062 14.585938 C 14.523438 14.585938 14.640625 14.570312 14.746094 14.539062 L 16.078125 16.507812 C 15.945312 16.710938 15.859375 16.953125 15.859375 17.210938 C 15.859375 17.296875 15.871094 17.371094 15.886719 17.449219 C 15.078125 17.921875 14.15625 18.234375 13.144531 18.234375 C 10.832031 18.234375 8.867188 16.878906 7.941406 14.929688 C 8.136719 14.757812 8.28125 14.539062 8.34375 14.28125 L 13.289062 13.875 Z M 13.28125 13.875 "/>
<path style=" stroke:none;fill-rule:evenodd;fill:rgb(97.647059%,97.647059%,97.647059%);fill-opacity:1;" d="M 12.671875 5.378906 C 8.992188 5.378906 5.996094 8.359375 5.996094 12.023438 C 5.996094 12.160156 6 12.296875 6.007812 12.4375 C 5.628906 12.65625 5.371094 13.0625 5.371094 13.53125 C 5.371094 14.21875 5.921875 14.773438 6.609375 14.789062 C 7.664062 17.074219 9.984375 18.664062 12.671875 18.664062 C 13.867188 18.664062 14.984375 18.351562 15.953125 17.804688 C 16.152344 17.9375 16.390625 18.015625 16.648438 18.015625 C 17.347656 18.015625 17.929688 17.453125 17.929688 16.753906 C 17.929688 16.578125 17.882812 16.40625 17.816406 16.257812 C 17.8125 16.25 17.820312 16.246094 17.816406 16.242188 C 18.769531 15.09375 19.347656 13.625 19.347656 12.023438 C 19.347656 11.40625 19.25 10.8125 19.097656 10.25 C 19.359375 10.019531 19.527344 9.671875 19.527344 9.296875 C 19.527344 8.601562 18.960938 8.039062 18.261719 8.039062 C 18.179688 8.039062 18.089844 8.046875 18.011719 8.0625 C 16.792969 6.441406 14.859375 5.378906 12.671875 5.378906 Z M 12.671875 6.265625 C 14.554688 6.265625 16.164062 7.195312 17.207031 8.589844 C 17.070312 8.789062 16.984375 9.035156 16.984375 9.296875 C 16.984375 9.421875 17.015625 9.554688 17.054688 9.671875 L 14.59375 11.785156 C 14.402344 11.671875 14.179688 11.605469 13.9375 11.605469 C 13.351562 11.605469 12.875 11.992188 12.726562 12.53125 L 7.757812 12.933594 C 7.585938 12.609375 7.28125 12.359375 6.914062 12.28125 C 6.90625 12.195312 6.882812 12.109375 6.882812 12.019531 C 6.882812 8.835938 9.472656 6.261719 12.671875 6.261719 Z M 17.617188 10.375 C 17.804688 10.484375 18.019531 10.554688 18.257812 10.554688 C 18.382812 11.023438 18.464844 11.515625 18.464844 12.023438 C 18.464844 13.382812 17.976562 14.625 17.1875 15.605469 C 17.023438 15.535156 16.84375 15.496094 16.65625 15.496094 C 16.546875 15.496094 16.453125 15.5 16.351562 15.523438 L 15 13.570312 C 15 13.570312 15 13.5625 15 13.558594 C 15.132812 13.359375 15.210938 13.125 15.210938 12.867188 C 15.210938 12.726562 15.195312 12.589844 15.15625 12.464844 Z M 12.816406 13.421875 C 13.023438 13.835938 13.445312 14.125 13.945312 14.125 C 14.054688 14.125 14.171875 14.109375 14.28125 14.085938 L 15.613281 16.046875 C 15.476562 16.25 15.390625 16.492188 15.390625 16.757812 C 15.390625 16.835938 15.40625 16.914062 15.421875 16.992188 C 14.609375 17.46875 13.691406 17.78125 12.679688 17.78125 C 10.367188 17.78125 8.398438 16.421875 7.476562 14.472656 C 7.671875 14.304688 7.816406 14.078125 7.878906 13.820312 L 12.820312 13.421875 Z M 12.816406 13.421875 "/>
</g>
</svg>
