
<svg xmlns="http://www.w3.org/2000/svg" xmlns:xlink="http://www.w3.org/1999/xlink" width="24px" height="24px" viewBox="0 0 24 24" version="1.1">
<g id="surface1">
<path style=" stroke:none;fill-rule:nonzero;fill:rgb(100%,54.901961%,0%);fill-opacity:1;" d="M 21.9375 5.027344 C 17.386719 -3.234375 3.125 -0.0273438 0.714844 6.773438 C -2.160156 14.878906 5.320312 30.269531 17.992188 21.253906 C 22.261719 18.105469 26.484375 13.289062 21.933594 5.027344 Z M 21.9375 5.027344 "/>
<path style=" stroke:none;fill-rule:nonzero;fill:rgb(86.27451%,86.27451%,86.27451%);fill-opacity:1;" d="M 15.875 17.34375 C 15.574219 17.210938 14.691406 16.40625 13.148438 14.847656 C 12.570312 14.265625 12.007812 13.742188 11.898438 13.6875 L 11.703125 13.59375 L 10.105469 15.132812 L 8.511719 16.671875 L 7.628906 17.007812 C 7.144531 17.195312 6.707031 17.328125 6.652344 17.308594 C 6.53125 17.265625 6.527344 17.144531 6.644531 16.984375 C 6.695312 16.917969 6.832031 16.648438 6.949219 16.386719 C 7.066406 16.125 7.21875 15.800781 7.28125 15.660156 C 7.363281 15.496094 7.945312 14.898438 8.96875 13.925781 C 9.832031 13.113281 10.535156 12.398438 10.535156 12.335938 C 10.535156 12.199219 9.773438 11.367188 9.496094 11.203125 C 9.292969 11.082031 9.265625 11.082031 8.886719 11.175781 C 8.027344 11.386719 7.347656 11.261719 6.714844 10.773438 C 6.007812 10.230469 5.539062 9.105469 5.691406 8.324219 C 5.8125 7.691406 5.867188 7.703125 6.617188 8.523438 C 7.179688 9.132812 7.242188 9.183594 7.519531 9.222656 C 7.679688 9.246094 7.917969 9.25 8.042969 9.226562 C 8.480469 9.148438 8.800781 8.5 8.707031 7.882812 C 8.667969 7.652344 8.585938 7.539062 8.070312 7.0625 C 7.355469 6.394531 7.332031 6.28125 7.882812 6.203125 C 8.457031 6.117188 9.015625 6.191406 9.460938 6.402344 C 9.933594 6.632812 10.488281 7.1875 10.730469 7.671875 C 10.890625 8 10.898438 8.074219 10.886719 8.898438 L 10.875 9.777344 L 11.351562 10.214844 C 11.976562 10.785156 12.085938 10.855469 12.238281 10.777344 C 12.304688 10.742188 13.230469 9.875 14.292969 8.851562 C 15.492188 7.695312 16.292969 6.96875 16.398438 6.945312 C 16.65625 6.882812 16.878906 6.957031 17.167969 7.207031 C 17.453125 7.449219 17.601562 7.78125 17.53125 8 C 17.503906 8.078125 16.59375 8.980469 15.503906 10.007812 C 14.230469 11.203125 13.519531 11.917969 13.519531 12 C 13.519531 12.082031 13.917969 12.488281 14.664062 13.164062 C 16.398438 14.738281 17.207031 15.523438 17.335938 15.757812 C 17.640625 16.316406 17.398438 17.023438 16.8125 17.300781 C 16.417969 17.488281 16.234375 17.496094 15.875 17.34375 Z M 15.875 17.34375 "/>
<path style=" stroke:none;fill-rule:nonzero;fill:rgb(100%,100%,100%);fill-opacity:1;" d="M 15.316406 17.34375 C 15.015625 17.210938 14.132812 16.40625 12.59375 14.847656 C 12.011719 14.265625 11.449219 13.742188 11.339844 13.6875 L 11.144531 13.59375 L 9.550781 15.132812 L 7.953125 16.671875 L 7.074219 17.007812 C 6.585938 17.195312 6.148438 17.328125 6.09375 17.308594 C 5.972656 17.265625 5.96875 17.144531 6.089844 16.984375 C 6.136719 16.917969 6.273438 16.648438 6.390625 16.386719 C 6.507812 16.125 6.660156 15.800781 6.726562 15.660156 C 6.804688 15.496094 7.386719 14.898438 8.410156 13.925781 C 9.273438 13.113281 9.976562 12.398438 9.976562 12.335938 C 9.976562 12.199219 9.214844 11.367188 8.9375 11.203125 C 8.734375 11.082031 8.707031 11.082031 8.332031 11.175781 C 7.46875 11.386719 6.789062 11.261719 6.15625 10.773438 C 5.453125 10.230469 4.980469 9.105469 5.132812 8.324219 C 5.253906 7.691406 5.308594 7.703125 6.058594 8.523438 C 6.621094 9.132812 6.683594 9.183594 6.960938 9.222656 C 7.125 9.246094 7.359375 9.25 7.484375 9.226562 C 7.925781 9.148438 8.246094 8.5 8.148438 7.882812 C 8.113281 7.652344 8.027344 7.539062 7.511719 7.0625 C 6.800781 6.394531 6.773438 6.28125 7.324219 6.203125 C 7.898438 6.117188 8.457031 6.191406 8.902344 6.402344 C 9.375 6.632812 9.929688 7.1875 10.171875 7.671875 C 10.332031 8 10.339844 8.074219 10.332031 8.898438 L 10.316406 9.777344 L 10.792969 10.214844 C 11.417969 10.785156 11.527344 10.855469 11.679688 10.777344 C 11.746094 10.742188 12.671875 9.875 13.734375 8.851562 C 14.933594 7.695312 15.734375 6.96875 15.839844 6.945312 C 16.097656 6.882812 16.320312 6.957031 16.609375 7.207031 C 16.894531 7.449219 17.046875 7.78125 16.972656 8 C 16.945312 8.078125 16.035156 8.980469 14.945312 10.007812 C 13.671875 11.203125 12.960938 11.917969 12.960938 12 C 12.960938 12.082031 13.363281 12.488281 14.105469 13.164062 C 15.839844 14.738281 16.652344 15.523438 16.777344 15.757812 C 17.082031 16.316406 16.839844 17.023438 16.253906 17.300781 C 15.859375 17.488281 15.675781 17.496094 15.316406 17.34375 Z M 15.316406 17.34375 "/>
</g>
</svg>
