
<svg xmlns="http://www.w3.org/2000/svg" xmlns:xlink="http://www.w3.org/1999/xlink" width="24px" height="24px" viewBox="0 0 24 24" version="1.1">
<g id="surface1">
<path style=" stroke:none;fill-rule:nonzero;fill:rgb(100%,58.431373%,0.392157%);fill-opacity:1;" d="M 23.664062 12.601562 C 9.203125 45.136719 -16.789062 -2.59375 15.429688 0.113281 C 20.28125 0.746094 25.375 5.757812 23.664062 12.601562 Z M 23.664062 12.601562 "/>
<path style=" stroke:none;fill-rule:nonzero;fill:rgb(100%,23.529412%,19.215686%);fill-opacity:1;" d="M 6.921875 6.324219 C 4.910156 8.351562 4.910156 14.527344 6.921875 16.554688 C 8.9375 18.585938 15.0625 18.585938 17.078125 16.554688 C 19.089844 14.527344 19.089844 8.351562 17.078125 6.324219 C 16.070312 5.3125 14.035156 4.804688 12 4.804688 C 9.964844 4.804688 7.929688 5.3125 6.921875 6.324219 "/>
<path style=" stroke:none;fill-rule:nonzero;fill:rgb(100%,58.431373%,0.392157%);fill-opacity:1;" d="M 7.878906 7.289062 C 6.246094 8.9375 6.246094 13.945312 7.878906 15.59375 C 9.515625 17.238281 14.484375 17.238281 16.117188 15.59375 C 17.753906 13.945312 17.753906 8.9375 16.117188 7.289062 C 15.304688 6.464844 13.652344 6.054688 12 6.054688 C 10.347656 6.054688 8.695312 6.464844 7.878906 7.289062 "/>
<path style=" stroke:none;fill-rule:nonzero;fill:rgb(100%,80%,0.784314%);fill-opacity:1;" d="M 8.835938 8.25 C 7.582031 9.515625 7.582031 13.367188 8.835938 14.628906 C 10.089844 15.890625 13.90625 15.890625 15.164062 14.628906 C 16.417969 13.367188 16.417969 9.515625 15.164062 8.25 C 14.539062 7.621094 13.265625 7.304688 12 7.304688 C 10.734375 7.304688 9.460938 7.621094 8.835938 8.25 "/>
<path style=" stroke:none;fill-rule:nonzero;fill:rgb(100%,83.137255%,41.176471%);fill-opacity:1;" d="M 14.207031 13.664062 C 13.332031 14.546875 10.667969 14.546875 9.792969 13.664062 C 8.917969 12.78125 8.917969 10.097656 9.792969 9.21875 C 10.667969 8.335938 13.332031 8.335938 14.207031 9.21875 C 15.082031 10.097656 15.082031 12.78125 14.207031 13.664062 "/>
<path style=" stroke:none;fill-rule:nonzero;fill:rgb(100%,100%,100%);fill-opacity:1;" d="M 14.460938 9.5 C 14.359375 9.398438 14.195312 9.398438 14.09375 9.5 L 12.25 11.359375 C 12.148438 11.460938 11.984375 11.460938 11.882812 11.359375 L 10.742188 10.207031 C 10.640625 10.105469 10.476562 10.105469 10.375 10.207031 L 9.734375 10.851562 C 9.636719 10.953125 9.636719 11.117188 9.734375 11.21875 L 10.882812 12.371094 L 11.242188 12.738281 L 11.882812 13.382812 C 11.984375 13.484375 12.148438 13.484375 12.25 13.382812 L 12.890625 12.738281 C 12.988281 12.636719 13.152344 12.46875 13.25 12.371094 L 15.101562 10.507812 C 15.199219 10.40625 15.199219 10.242188 15.101562 10.140625 Z M 14.460938 9.5 "/>
</g>
</svg>
