
<svg xmlns="http://www.w3.org/2000/svg" xmlns:xlink="http://www.w3.org/1999/xlink" width="24px" height="24px" viewBox="0 0 24 24" version="1.1">
<defs>
<linearGradient id="linear0" gradientUnits="userSpaceOnUse" x1="50.644" y1="5.368" x2="35.752" y2="68.04" gradientTransform="matrix(0.149344,0,0,0.164609,4.496709,4.033868)">
<stop offset="0" style="stop-color:rgb(49.803922%,65.882353%,89.019608%);stop-opacity:0.741176;"/>
<stop offset="1" style="stop-color:rgb(100%,100%,100%);stop-opacity:0;"/>
</linearGradient>
<linearGradient id="linear1" gradientUnits="userSpaceOnUse" x1="66.33" y1="23.21" x2="63.47" y2="20.963" gradientTransform="matrix(0.0983815,0.0551845,-0.0508195,0.107467,13.173559,6.676198)">
<stop offset="0" style="stop-color:rgb(46.666667%,0%,0%);stop-opacity:1;"/>
<stop offset="1" style="stop-color:rgb(100%,100%,100%);stop-opacity:0;"/>
</linearGradient>
<linearGradient id="linear2" gradientUnits="userSpaceOnUse" x1="56.33" y1="43.38" x2="51.655" y2="39.763" gradientTransform="matrix(0.0893865,0.050139,-0.055934,0.118282,13.173559,6.676198)">
<stop offset="0" style="stop-color:rgb(70.980392%,46.666667%,17.647059%);stop-opacity:1;"/>
<stop offset="1" style="stop-color:rgb(100%,100%,100%);stop-opacity:0;"/>
</linearGradient>
</defs>
<g id="surface1">
<path style=" stroke:none;fill-rule:nonzero;fill:rgb(31.764706%,65.882353%,17.254902%);fill-opacity:1;" d="M 4.945312 21.65625 C 22.992188 33.65625 34.101562 -4.601562 10.78125 0.464844 C 1.140625 2.625 -4.710938 16.15625 4.945312 21.65625 Z M 4.945312 21.65625 "/>
<path style=" stroke:none;fill-rule:evenodd;fill:rgb(0%,0%,0%);fill-opacity:0.301961;" d="M 5.992188 17.777344 C 5.5625 17.5625 4.976562 16.875 5.289062 15.9375 C 5.445312 14.90625 8.242188 5.828125 8.867188 5.398438 C 9.253906 5.011719 9.816406 4.863281 10.613281 5.097656 C 11.273438 5.269531 17.21875 6.984375 17.570312 7.328125 C 17.917969 7.667969 18.191406 7.945312 17.917969 8.695312 C 17.726562 9.082031 15.414062 17.734375 15.375 18.289062 C 15.21875 18.890625 14.773438 19.617188 14.03125 19.578125 C 13.292969 19.53125 6.53125 17.90625 5.988281 17.777344 Z M 5.992188 17.777344 "/>
<path style=" stroke:none;fill-rule:evenodd;fill:rgb(23.921569%,30.588235%,40.392157%);fill-opacity:1;" d="M 5.539062 16.984375 C 5.109375 16.765625 4.527344 16.082031 4.835938 15.140625 C 4.992188 14.109375 7.792969 5.03125 8.414062 4.601562 C 8.804688 4.21875 9.367188 4.070312 10.164062 4.304688 C 10.820312 4.476562 16.769531 6.1875 17.117188 6.53125 C 17.46875 6.875 17.738281 7.152344 17.46875 7.898438 C 17.273438 8.289062 14.960938 16.9375 14.921875 17.496094 C 14.765625 18.09375 14.320312 18.824219 13.578125 18.78125 C 12.84375 18.738281 6.078125 17.109375 5.539062 16.984375 Z M 5.539062 16.984375 "/>
<path style=" stroke:none;fill-rule:evenodd;fill:rgb(100%,100%,100%);fill-opacity:1;" d="M 6.433594 16.253906 C 5.984375 16.125 5.34375 15.996094 5.578125 15.226562 C 6.007812 13.34375 8.179688 6.101562 9.113281 5.203125 C 9.328125 4.988281 10.046875 4.902344 11.40625 5.375 C 12.960938 5.890625 16.109375 7.046875 16.421875 7.214844 C 16.734375 7.386719 16.847656 7.386719 16.617188 8.15625 C 16.265625 8.929688 14.710938 15.523438 14.320312 16.640625 C 14.050781 17.429688 13.992188 17.796875 13.523438 17.796875 "/>
<path style=" stroke:none;fill-rule:evenodd;fill:url(#linear0);" d="M 8.789062 6.296875 C 8.789062 6.296875 9.257812 5.265625 10.421875 5.578125 C 11.589844 5.882812 16.164062 7.222656 16.117188 7.632812 C 16.070312 8.046875 15.230469 10.460938 15.183594 10.671875 C 15.136719 10.875 10.84375 10.773438 9.210938 11.851562 C 7.578125 12.933594 6.367188 13.859375 6.367188 13.859375 C 6.367188 13.859375 8.042969 8.097656 8.789062 6.296875 Z M 8.789062 6.296875 "/>
<path style="fill:none;stroke-width:1.868;stroke-linecap:round;stroke-linejoin:miter;stroke:rgb(30.980392%,30.980392%,30.980392%);stroke-opacity:1;stroke-miterlimit:4;" d="M 30.861244 10.813466 C 28.693469 10.813466 27.642426 9.094458 27.642426 6.515946 C 27.642426 3.937433 29.399638 1.84145 31.567414 1.84145 C 33.73519 1.84145 34.441359 2.61048 34.441359 5.173913 " transform="matrix(0.237859,0,0,0.259052,4.577344,3.878437)"/>
<path style="fill:none;stroke-width:0.406;stroke-linecap:round;stroke-linejoin:miter;stroke:rgb(76.078431%,76.078431%,76.078431%);stroke-opacity:1;stroke-miterlimit:4;" d="M 30.861244 10.617439 C 28.693469 10.617439 27.461778 9.094458 27.461778 6.515946 C 27.461778 3.937433 29.21899 1.283526 31.386766 1.283526 C 33.570964 1.283526 34.441359 2.595401 34.441359 5.173913 " transform="matrix(0.237859,0,0,0.259052,4.577344,3.878437)"/>
<path style="fill:none;stroke-width:1.868;stroke-linecap:round;stroke-linejoin:miter;stroke:rgb(30.980392%,30.980392%,30.980392%);stroke-opacity:1;stroke-miterlimit:4;" d="M 38.021474 12.14042 C 35.853698 12.14042 34.802655 10.421412 34.802655 7.857978 C 34.802655 5.279466 36.57629 3.183482 38.744066 3.183482 C 40.895419 3.183482 41.585166 3.952512 41.585166 6.515946 " transform="matrix(0.237859,0,0,0.259052,4.577344,3.878437)"/>
<path style="fill:none;stroke-width:0.406;stroke-linecap:round;stroke-linejoin:miter;stroke:rgb(76.078431%,76.078431%,76.078431%);stroke-opacity:1;stroke-miterlimit:4;" d="M 38.021474 11.944392 C 35.853698 11.944392 34.622007 10.421412 34.622007 7.857978 C 34.622007 5.279466 36.395642 2.61048 38.563418 2.61048 C 40.714771 2.61048 41.585166 3.937433 41.585166 6.515946 " transform="matrix(0.237859,0,0,0.259052,4.577344,3.878437)"/>
<path style=" stroke:none;fill-rule:nonzero;fill:rgb(0%,0%,0%);fill-opacity:1;" d="M 9.929688 8.234375 C 10.066406 8.507812 10.28125 8.71875 10.492188 8.90625 C 10.792969 9.1875 11.148438 9.351562 11.511719 9.476562 C 11.765625 9.550781 12.007812 9.679688 12.25 9.804688 C 12.5625 9.976562 12.890625 10.058594 13.226562 10.117188 C 13.46875 10.15625 13.710938 10.171875 13.949219 10.226562 C 14.199219 10.296875 14.445312 10.375 14.695312 10.445312 C 14.765625 10.46875 14.84375 10.476562 14.914062 10.488281 L 14.304688 11.007812 C 14.234375 10.992188 14.164062 10.96875 14.09375 10.953125 C 13.835938 10.875 13.585938 10.800781 13.328125 10.753906 C 13.097656 10.710938 12.867188 10.664062 12.636719 10.621094 C 12.300781 10.546875 11.972656 10.445312 11.65625 10.289062 C 11.40625 10.179688 11.15625 10.078125 10.902344 9.976562 C 10.546875 9.832031 10.230469 9.59375 9.921875 9.34375 C 9.722656 9.179688 9.453125 8.886719 9.257812 8.828125 Z M 9.929688 8.234375 "/>
<path style=" stroke:none;fill-rule:nonzero;fill:rgb(0%,0%,0%);fill-opacity:1;" d="M 12.9375 7.480469 C 12.832031 7.75 12.71875 8.03125 12.625 8.304688 C 12.507812 8.609375 12.421875 8.921875 12.292969 9.210938 C 12.160156 9.480469 12.0625 9.769531 11.960938 10.050781 C 11.816406 10.40625 11.675781 10.765625 11.507812 11.101562 C 11.386719 11.328125 11.25 11.546875 11.132812 11.78125 C 11.015625 12.0625 10.878906 12.324219 10.71875 12.574219 C 10.546875 12.828125 10.375 13.078125 10.195312 13.328125 C 10.109375 13.445312 10.03125 13.570312 9.945312 13.695312 L 9.285156 14.039062 C 9.363281 13.914062 9.4375 13.792969 9.523438 13.671875 C 9.691406 13.421875 9.875 13.179688 10.046875 12.921875 C 10.203125 12.6875 10.34375 12.433594 10.445312 12.148438 C 10.5625 11.90625 10.695312 11.679688 10.835938 11.457031 C 11.015625 11.132812 11.175781 10.789062 11.296875 10.421875 C 11.394531 10.140625 11.484375 9.859375 11.601562 9.589844 C 11.742188 9.289062 11.867188 8.976562 11.984375 8.664062 C 12.0625 8.4375 12.164062 8.148438 12.199219 7.9375 L 12.9375 7.476562 Z M 12.9375 7.480469 "/>
<path style=" stroke:none;fill-rule:nonzero;fill:rgb(0%,0%,0%);fill-opacity:1;" d="M 11.78125 9.832031 C 11.484375 10.277344 10.898438 10.570312 10.515625 10.835938 C 10.222656 11.046875 9.898438 11.167969 9.570312 11.246094 C 9.328125 11.273438 9.089844 11.332031 8.851562 11.382812 C 8.578125 11.453125 8.296875 11.484375 8.015625 11.523438 C 7.726562 11.550781 7.4375 11.589844 7.144531 11.601562 C 7 11.605469 6.851562 11.582031 6.707031 11.558594 L 7.335938 11.019531 C 7.476562 11.046875 7.617188 11.0625 7.757812 11.0625 C 8.042969 11.070312 8.324219 11.039062 8.601562 10.992188 C 8.882812 10.953125 9.164062 10.921875 9.4375 10.851562 C 9.679688 10.789062 9.921875 10.734375 10.167969 10.699219 C 10.476562 10.640625 10.773438 10.507812 11.046875 10.320312 C 9.992188 11.058594 10.835938 10.515625 11.03125 10.257812 Z M 11.78125 9.832031 "/>
<path style=" stroke:none;fill-rule:nonzero;fill:rgb(0%,0%,0%);fill-opacity:1;" d="M 11.90625 9.894531 C 11.953125 10.195312 12.085938 10.46875 12.210938 10.726562 C 12.359375 11.0625 12.546875 11.367188 12.742188 11.664062 C 12.910156 11.945312 13.078125 12.226562 13.242188 12.507812 C 13.417969 12.851562 13.632812 13.160156 13.882812 13.429688 C 14.09375 13.65625 14.34375 13.804688 14.601562 13.9375 C 14.617188 13.945312 14.632812 13.953125 14.652344 13.960938 L 14.03125 14.460938 C 14.015625 14.453125 14 14.445312 13.984375 14.4375 C 13.726562 14.289062 13.476562 14.132812 13.273438 13.882812 C 13.03125 13.601562 12.8125 13.289062 12.617188 12.953125 C 12.449219 12.671875 12.285156 12.390625 12.101562 12.125 C 11.910156 11.820312 11.769531 11.480469 11.609375 11.148438 C 11.476562 10.898438 11.367188 10.617188 11.195312 10.398438 Z M 11.90625 9.894531 "/>
<path style=" stroke:none;fill-rule:nonzero;fill:rgb(0%,0%,0%);fill-opacity:1;" d="M 9.757812 11.941406 C 9.96875 12.054688 10.195312 12.140625 10.414062 12.234375 C 10.75 12.367188 11.078125 12.53125 11.382812 12.742188 C 11.5625 12.871094 11.730469 13.019531 11.898438 13.171875 L 11.277344 13.648438 C 11.101562 13.507812 10.933594 13.363281 10.757812 13.230469 C 10.472656 13.007812 10.179688 12.8125 9.851562 12.695312 C 9.609375 12.601562 9.34375 12.503906 9.085938 12.53125 Z M 9.757812 11.941406 "/>
<path style=" stroke:none;fill-rule:evenodd;fill:rgb(0%,0%,0%);fill-opacity:0.282353;" d="M 10.117188 16.578125 C 11.078125 16.796875 12.464844 17.273438 13.65625 17.167969 C 15.8125 17.035156 17.734375 15.324219 19.578125 14.164062 C 20.335938 12.78125 19.371094 11.371094 18.734375 11.410156 C 16.648438 12.507812 14.851562 13.964844 12.835938 14.535156 C 11.867188 15.4375 10.070312 16.636719 10.117188 16.578125 Z M 10.117188 16.578125 "/>
<path style=" stroke:none;fill-rule:evenodd;fill:rgb(0%,0%,0%);fill-opacity:1;" d="M 9.898438 16.054688 C 10.855469 16.273438 12.148438 16.335938 13.335938 16.226562 C 15.492188 16.09375 17.507812 14.351562 19.347656 13.195312 C 20.109375 11.804688 19.148438 10.84375 18.511719 10.882812 C 16.425781 11.980469 14.628906 13.4375 12.609375 14.007812 C 11.644531 14.910156 9.84375 16.109375 9.898438 16.054688 Z M 9.898438 16.054688 "/>
<path style=" stroke:none;fill-rule:evenodd;fill:rgb(74.509804%,42.745098%,42.745098%);fill-opacity:1;" d="M 19.15625 12.890625 C 18.859375 13.0625 18.5625 13.234375 18.265625 13.410156 C 18.320312 12.703125 18.195312 12.265625 17.554688 11.820312 C 17.910156 11.648438 18.265625 11.480469 18.617188 11.3125 C 19.191406 11.546875 19.367188 12.296875 19.15625 12.890625 Z M 19.15625 12.890625 "/>
<path style=" stroke:none;fill-rule:evenodd;fill:rgb(100%,73.72549%,14.117647%);fill-opacity:1;" d="M 17.46875 11.945312 C 18.015625 12.203125 18.179688 12.839844 18.144531 13.453125 C 16.625 14.460938 15.253906 15.523438 13.3125 15.898438 C 13.3125 15.898438 13.484375 14.609375 12.914062 14.460938 C 13.914062 14.027344 16.4375 12.609375 17.46875 11.945312 Z M 17.46875 11.945312 "/>
<path style=" stroke:none;fill-rule:evenodd;fill:rgb(91.372549%,85.882353%,72.54902%);fill-opacity:1;" d="M 12.828125 14.5 C 13.300781 14.726562 13.402344 15.546875 13.125 15.851562 C 12.851562 15.90625 12.457031 15.894531 12.183594 15.945312 C 12.289062 15.632812 12.226562 15.300781 11.828125 15.125 C 12.148438 14.898438 12.507812 14.722656 12.828125 14.5 Z M 12.828125 14.5 "/>
<path style=" stroke:none;fill-rule:evenodd;fill:rgb(34.509804%,43.529412%,57.647059%);fill-opacity:1;" d="M 11.890625 15.101562 C 12.28125 15.210938 12.246094 15.671875 12.214844 15.9375 L 10.605469 15.859375 Z M 11.890625 15.101562 "/>
<path style=" stroke:none;fill-rule:evenodd;fill:url(#linear1);" d="M 19.15625 12.890625 C 18.859375 13.0625 18.5625 13.234375 18.265625 13.410156 C 18.320312 12.703125 18.195312 12.265625 17.554688 11.820312 C 17.910156 11.648438 18.265625 11.480469 18.617188 11.3125 C 19.191406 11.546875 19.367188 12.296875 19.15625 12.890625 Z M 19.15625 12.890625 "/>
<path style=" stroke:none;fill-rule:evenodd;fill:rgb(100%,100%,100%);fill-opacity:1;" d="M 18.710938 11.445312 L 17.828125 11.890625 L 18.0625 12.160156 L 18.917969 11.761719 Z M 18.710938 11.445312 "/>
<path style=" stroke:none;fill-rule:evenodd;fill:url(#linear2);" d="M 17.46875 11.945312 C 18.015625 12.203125 18.179688 12.839844 18.144531 13.453125 C 16.625 14.460938 15.253906 15.523438 13.3125 15.898438 C 13.3125 15.898438 13.484375 14.609375 12.914062 14.460938 C 13.914062 14.027344 16.4375 12.609375 17.46875 11.945312 Z M 17.46875 11.945312 "/>
<path style=" stroke:none;fill-rule:evenodd;fill:rgb(100%,100%,100%);fill-opacity:1;" d="M 13.210938 14.371094 C 13.296875 14.523438 13.375 14.671875 13.460938 14.820312 C 14.910156 14.152344 15.882812 13.1875 17.6875 12.574219 C 17.609375 12.429688 17.53125 12.28125 17.457031 12.132812 C 16.089844 13.105469 14.640625 13.976562 13.210938 14.371094 Z M 13.210938 14.371094 "/>
<path style=" stroke:none;fill-rule:evenodd;fill:rgb(61.176471%,47.058824%,31.372549%);fill-opacity:1;" d="M 13.140625 15.847656 C 13.273438 15.625 13.304688 15.429688 13.28125 15.175781 C 12.960938 15.457031 12.601562 15.59375 12.242188 15.5 C 12.140625 15.523438 12.261719 15.78125 12.21875 15.925781 C 12.460938 15.90625 13.109375 15.914062 13.140625 15.847656 Z M 13.140625 15.847656 "/>
</g>
</svg>
