
<svg xmlns="http://www.w3.org/2000/svg" xmlns:xlink="http://www.w3.org/1999/xlink" width="24px" height="24px" viewBox="0 0 24 24" version="1.1">
<g id="surface1">
<path style=" stroke:none;fill-rule:nonzero;fill:rgb(66.27451%,66.27451%,66.27451%);fill-opacity:1;" d="M 0.210938 11.976562 C -1.589844 -3.9375 24.21875 -3.71875 23.910156 12.257812 C 24.761719 27.117188 -1.195312 28.457031 0.210938 11.976562 Z M 0.210938 11.976562 "/>
<path style=" stroke:none;fill-rule:nonzero;fill:rgb(18.039216%,18.039216%,18.039216%);fill-opacity:1;" d="M 10.726562 19.417969 C 10.363281 19.3125 9.902344 19.179688 9.703125 19.121094 L 9.339844 19.019531 L 9.390625 18.617188 C 9.417969 18.398438 9.699219 17.253906 10.023438 16.074219 C 10.777344 13.300781 10.796875 13.164062 10.484375 12.742188 C 10.230469 12.402344 6.875 11.140625 6.21875 11.140625 C 6.039062 11.140625 5.84375 11.269531 5.449219 11.65625 C 4.917969 12.167969 4.914062 12.171875 4.433594 12.160156 C 3.746094 12.144531 3.457031 12.066406 3.421875 11.886719 C 3.40625 11.800781 3.472656 11.464844 3.570312 11.132812 C 3.707031 10.664062 3.789062 10.515625 3.949219 10.453125 C 4.0625 10.410156 4.152344 10.328125 4.152344 10.277344 C 4.152344 10.226562 4.003906 9.960938 3.824219 9.695312 C 3.511719 9.230469 3.5 9.191406 3.582031 8.867188 C 3.699219 8.425781 4.285156 7.253906 4.480469 7.070312 C 4.625 6.933594 4.648438 6.945312 4.902344 7.273438 C 5.050781 7.46875 5.210938 7.625 5.257812 7.625 C 5.304688 7.625 5.464844 7.503906 5.613281 7.355469 L 5.878906 7.085938 L 6.519531 7.191406 C 6.871094 7.25 7.210938 7.316406 7.269531 7.339844 C 7.425781 7.402344 7.40625 7.644531 7.167969 8.613281 C 6.980469 9.386719 6.972656 9.476562 7.089844 9.566406 C 7.261719 9.695312 8.246094 9.96875 9.675781 10.289062 C 10.296875 10.425781 11.058594 10.617188 11.359375 10.710938 C 11.660156 10.804688 11.925781 10.882812 11.949219 10.882812 C 12 10.882812 13.027344 9.558594 13.910156 8.351562 C 14.289062 7.835938 14.765625 7.203125 14.972656 6.953125 L 15.339844 6.492188 L 15.722656 6.550781 C 15.929688 6.585938 16.386719 6.703125 16.734375 6.816406 L 17.363281 7.023438 L 17.300781 7.304688 C 17.265625 7.457031 17.101562 7.949219 16.929688 8.394531 C 16.019531 10.820312 15.609375 12.425781 15.902344 12.425781 C 15.96875 12.425781 16.355469 12.542969 16.761719 12.679688 C 17.574219 12.957031 17.835938 13.183594 17.929688 13.695312 C 17.96875 13.914062 18.054688 14.019531 18.300781 14.148438 C 18.503906 14.253906 18.621094 14.378906 18.621094 14.480469 C 18.621094 14.6875 18.472656 14.742188 18.0625 14.683594 C 17.800781 14.648438 17.679688 14.679688 17.464844 14.839844 C 17.214844 15.035156 17.148438 15.042969 16.09375 15.019531 L 14.984375 14.992188 L 14.84375 15.300781 C 14.75 15.507812 14.726562 15.648438 14.78125 15.722656 C 15.183594 16.289062 15.1875 16.304688 15.046875 16.410156 C 14.917969 16.511719 14.382812 16.476562 13.785156 16.335938 C 13.539062 16.277344 13.535156 16.28125 12.644531 17.816406 C 11.847656 19.191406 11.535156 19.65625 11.421875 19.621094 C 11.402344 19.617188 11.089844 19.523438 10.726562 19.417969 Z M 14.402344 15.433594 C 14.503906 15.238281 14.515625 14.914062 14.421875 14.914062 C 14.382812 14.914062 14.269531 15.035156 14.164062 15.183594 C 14.007812 15.398438 13.996094 15.464844 14.085938 15.523438 C 14.253906 15.632812 14.308594 15.617188 14.402344 15.433594 Z M 14.402344 15.433594 "/>
</g>
</svg>
