
<svg xmlns="http://www.w3.org/2000/svg" xmlns:xlink="http://www.w3.org/1999/xlink" width="24px" height="24px" viewBox="0 0 24 24" version="1.1">
<g id="surface1">
<path style=" stroke:none;fill-rule:nonzero;fill:rgb(100%,98.039216%,80.392157%);fill-opacity:1;" d="M 5.078125 21.582031 C 22.789062 33.414062 33.703125 -4.320312 10.800781 0.679688 C 1.335938 2.804688 -4.40625 16.15625 5.078125 21.582031 Z M 5.078125 21.582031 "/>
<path style=" stroke:none;fill-rule:nonzero;fill:rgb(94.117647%,89.803922%,61.176471%);fill-opacity:1;" d="M 9.140625 19.582031 C 9.066406 19.507812 9.007812 19.195312 9.007812 18.890625 C 9.007812 18.207031 8.796875 18.078125 8.410156 18.527344 C 8.1875 18.78125 8.101562 18.820312 7.945312 18.714844 C 7.84375 18.644531 7.734375 18.433594 7.703125 18.25 C 7.664062 17.996094 7.578125 17.898438 7.375 17.867188 C 7.226562 17.847656 6.945312 17.664062 6.75 17.46875 C 6.441406 17.144531 6.398438 17.03125 6.398438 16.476562 C 6.398438 16.03125 6.445312 15.835938 6.5625 15.785156 C 6.773438 15.699219 6.773438 15.460938 6.5625 15.273438 C 6.464844 15.1875 6.398438 14.929688 6.398438 14.636719 C 6.398438 14.207031 6.34375 14.09375 5.964844 13.75 C 5.664062 13.484375 5.53125 13.265625 5.527344 13.058594 C 5.527344 12.851562 5.359375 12.578125 5 12.203125 C 4.710938 11.902344 4.441406 11.6875 4.402344 11.726562 C 4.367188 11.765625 4.335938 11.601562 4.335938 11.351562 C 4.335938 11.105469 4.367188 10.9375 4.402344 10.976562 C 4.4375 11.015625 4.695312 10.820312 4.972656 10.53125 L 5.472656 10.015625 L 5.066406 9.566406 C 4.726562 9.191406 4.660156 9.039062 4.660156 8.625 C 4.660156 8.289062 4.605469 8.101562 4.496094 8.058594 C 4.21875 7.945312 4.296875 7.335938 4.632812 7.019531 C 5 6.671875 5.117188 6.664062 5.367188 6.960938 C 5.503906 7.125 5.703125 7.195312 6.023438 7.195312 C 6.96875 7.195312 6.953125 7.914062 6.007812 8.015625 L 5.476562 8.074219 L 5.476562 8.542969 C 5.476562 8.996094 5.488281 9.015625 5.859375 9.046875 C 6.140625 9.070312 6.304688 9.015625 6.449219 8.84375 C 6.558594 8.710938 6.765625 8.601562 6.90625 8.601562 C 7.273438 8.601562 7.328125 8.328125 7.042969 7.914062 C 6.839844 7.617188 6.820312 7.527344 6.9375 7.375 C 7.117188 7.140625 7.796875 7.140625 7.882812 7.375 C 7.960938 7.601562 8.203125 7.601562 8.285156 7.375 C 8.382812 7.09375 9.082031 7.140625 9.230469 7.441406 L 9.351562 7.6875 L 9.59375 7.441406 C 9.726562 7.304688 9.898438 7.195312 9.976562 7.195312 C 10.054688 7.195312 10.238281 7.09375 10.390625 6.960938 C 10.542969 6.835938 10.773438 6.726562 10.898438 6.726562 C 11.023438 6.726562 11.1875 6.625 11.265625 6.492188 C 11.367188 6.3125 11.515625 6.257812 11.914062 6.257812 C 12.328125 6.257812 12.460938 6.210938 12.578125 6.011719 C 12.707031 5.789062 12.792969 5.765625 13.414062 5.820312 C 14.054688 5.875 14.121094 5.859375 14.277344 5.601562 C 14.472656 5.28125 15.09375 5.210938 15.304688 5.492188 C 15.429688 5.65625 15.421875 6.832031 15.277344 8.453125 C 15.25 8.792969 15.257812 9.070312 15.296875 9.066406 C 15.335938 9.0625 15.484375 8.957031 15.625 8.828125 C 15.867188 8.613281 15.875 8.582031 15.707031 8.382812 C 15.460938 8.089844 15.476562 8 15.886719 7.570312 C 16.195312 7.25 16.324219 7.195312 16.789062 7.195312 C 17.261719 7.195312 17.378906 7.25 17.679688 7.585938 C 17.972656 7.90625 18.03125 8.058594 18.03125 8.519531 C 18.03125 8.820312 18.078125 9.070312 18.136719 9.070312 C 18.292969 9.070312 18.273438 9.695312 18.109375 9.882812 C 18 10.007812 18 10.046875 18.109375 10.089844 C 18.273438 10.15625 18.296875 11.132812 18.136719 11.234375 C 18.078125 11.277344 18.03125 11.859375 18.03125 12.582031 C 18.03125 13.742188 18.007812 13.871094 17.800781 14.03125 C 17.585938 14.191406 17.570312 14.296875 17.585938 15.8125 C 17.601562 17.269531 17.625 17.441406 17.816406 17.585938 C 18.113281 17.8125 18.082031 17.984375 17.671875 18.414062 L 17.3125 18.789062 L 15.160156 18.789062 C 13.171875 18.789062 12.988281 18.804688 12.734375 19.023438 C 12.507812 19.210938 12.289062 19.257812 11.570312 19.257812 C 10.808594 19.257812 10.671875 19.289062 10.554688 19.492188 C 10.445312 19.675781 10.300781 19.722656 9.84375 19.722656 C 9.527344 19.722656 9.210938 19.660156 9.136719 19.585938 Z M 7.375 16.738281 C 7.375 16.640625 7.328125 16.5625 7.269531 16.5625 C 7.210938 16.5625 7.160156 16.640625 7.160156 16.738281 C 7.160156 16.835938 7.210938 16.914062 7.269531 16.914062 C 7.328125 16.914062 7.375 16.835938 7.375 16.738281 Z M 14.882812 9.507812 C 14.820312 9.3125 14.765625 9.023438 14.765625 8.867188 C 14.765625 8.714844 14.726562 8.617188 14.675781 8.648438 C 14.585938 8.707031 14.664062 9.546875 14.84375 10.476562 L 14.925781 10.882812 L 14.960938 10.375 C 14.984375 10.09375 14.945312 9.703125 14.882812 9.507812 Z M 17.023438 8.992188 C 16.921875 8.960938 16.726562 8.960938 16.589844 8.984375 C 16.453125 9.015625 16.539062 9.039062 16.78125 9.039062 C 17.015625 9.039062 17.128906 9.019531 17.023438 8.992188 Z M 13.746094 8.1875 C 13.785156 8.023438 13.785156 7.855469 13.75 7.8125 C 13.664062 7.726562 13.363281 8.132812 13.359375 8.335938 C 13.351562 8.613281 13.679688 8.484375 13.746094 8.1875 Z M 16.96875 8.054688 C 16.898438 8.023438 16.75 8.023438 16.644531 8.054688 C 16.539062 8.082031 16.601562 8.109375 16.78125 8.109375 C 16.960938 8.113281 17.046875 8.085938 16.96875 8.054688 Z M 11.921875 7.320312 C 11.949219 7.234375 11.90625 7.1875 11.828125 7.21875 C 11.75 7.246094 11.664062 7.339844 11.636719 7.421875 C 11.609375 7.511719 11.648438 7.554688 11.730469 7.523438 C 11.8125 7.5 11.894531 7.40625 11.921875 7.320312 Z M 14.3125 6.757812 C 14.351562 6.46875 14.21875 6.429688 13.882812 6.617188 C 13.707031 6.71875 13.691406 6.777344 13.800781 6.917969 C 13.984375 7.15625 14.273438 7.070312 14.3125 6.757812 Z M 13.410156 6.84375 C 13.496094 6.695312 13.132812 6.695312 12.921875 6.84375 C 12.792969 6.933594 12.820312 6.960938 13.050781 6.960938 C 13.210938 6.960938 13.375 6.910156 13.410156 6.84375 Z M 13.410156 6.84375 "/>
<path style=" stroke:none;fill-rule:nonzero;fill:rgb(97.254902%,87.45098%,36.470588%);fill-opacity:1;" d="M 9.246094 19.464844 C 9.175781 19.390625 9.117188 19.109375 9.117188 18.84375 C 9.117188 18.101562 8.660156 17.808594 8.335938 18.339844 C 8.132812 18.671875 7.8125 18.550781 7.8125 18.148438 C 7.8125 17.90625 7.757812 17.851562 7.539062 17.851562 C 7.367188 17.851562 7.109375 17.679688 6.835938 17.382812 C 6.328125 16.835938 6.242188 16.238281 6.617188 15.890625 C 6.878906 15.648438 6.898438 15.328125 6.65625 15.226562 C 6.515625 15.167969 6.496094 15.054688 6.554688 14.675781 C 6.617188 14.21875 6.601562 14.179688 6.132812 13.730469 C 5.808594 13.425781 5.640625 13.167969 5.640625 12.988281 C 5.640625 12.699219 4.726562 11.652344 4.46875 11.648438 C 4.394531 11.648438 4.335938 11.515625 4.335938 11.351562 C 4.335938 11.191406 4.394531 11.058594 4.46875 11.054688 C 4.546875 11.054688 4.835938 10.820312 5.121094 10.539062 L 5.640625 10.027344 L 5.140625 9.472656 C 4.714844 9.003906 4.648438 8.867188 4.703125 8.582031 C 4.75 8.335938 4.703125 8.179688 4.546875 8.015625 C 4.257812 7.699219 4.28125 7.472656 4.632812 7.136719 C 5 6.789062 5.046875 6.785156 5.390625 7.078125 C 5.566406 7.226562 5.753906 7.289062 5.914062 7.242188 C 6.210938 7.164062 6.617188 7.375 6.617188 7.605469 C 6.617188 7.84375 6.210938 8.046875 5.90625 7.96875 C 5.539062 7.867188 5.304688 8.164062 5.386719 8.632812 C 5.421875 8.84375 5.507812 9.046875 5.574219 9.097656 C 5.800781 9.261719 6.257812 9.1875 6.453125 8.953125 C 6.5625 8.824219 6.789062 8.71875 6.953125 8.71875 C 7.375 8.71875 7.460938 8.359375 7.140625 7.890625 C 6.890625 7.535156 6.890625 7.523438 7.101562 7.359375 C 7.382812 7.140625 7.523438 7.152344 7.757812 7.429688 C 8.007812 7.726562 8.148438 7.726562 8.382812 7.429688 C 8.636719 7.117188 8.859375 7.132812 9.179688 7.507812 C 9.429688 7.800781 9.453125 7.804688 9.648438 7.617188 C 9.96875 7.304688 10.65625 6.960938 10.960938 6.960938 C 11.144531 6.960938 11.273438 6.875 11.347656 6.699219 C 11.441406 6.46875 11.523438 6.4375 12 6.464844 C 12.472656 6.492188 12.554688 6.460938 12.648438 6.230469 C 12.742188 6.003906 12.835938 5.96875 13.289062 5.984375 C 14.253906 6.023438 14.160156 6.375 13.140625 6.546875 C 12.867188 6.59375 12.453125 6.726562 12.214844 6.84375 C 11.976562 6.957031 11.695312 7.082031 11.589844 7.117188 C 11.328125 7.214844 11.351562 7.394531 11.671875 7.710938 C 11.820312 7.859375 11.945312 8.085938 11.945312 8.203125 C 11.949219 8.949219 12.300781 9.21875 12.421875 8.570312 C 12.476562 8.265625 12.445312 8.148438 12.265625 7.992188 C 12.109375 7.851562 12.054688 7.710938 12.105469 7.550781 C 12.1875 7.273438 12.507812 7.164062 13.09375 7.21875 C 13.578125 7.257812 13.710938 7.539062 13.414062 7.898438 C 13.195312 8.152344 13.234375 8.640625 13.46875 8.691406 C 13.703125 8.738281 14 8.140625 13.929688 7.753906 C 13.882812 7.488281 13.929688 7.398438 14.210938 7.226562 C 14.496094 7.054688 14.550781 6.949219 14.550781 6.582031 C 14.550781 6.339844 14.5 6.140625 14.445312 6.140625 C 14.289062 6.140625 14.304688 5.75 14.464844 5.578125 C 14.640625 5.390625 15.039062 5.402344 15.1875 5.59375 C 15.351562 5.8125 15.3125 7.648438 15.136719 8.03125 C 15.058594 8.199219 14.898438 8.367188 14.78125 8.398438 C 14.65625 8.433594 14.527344 8.601562 14.484375 8.792969 C 14.441406 8.976562 14.242188 9.375 14.046875 9.679688 C 13.84375 9.988281 13.679688 10.304688 13.679688 10.386719 C 13.679688 10.46875 13.585938 10.734375 13.464844 10.972656 C 13.34375 11.210938 13.25 11.464844 13.25 11.53125 C 13.25 11.601562 13.148438 11.890625 13.03125 12.171875 C 12.804688 12.703125 12.832031 13.046875 13.101562 13.046875 C 13.1875 13.046875 13.28125 12.96875 13.316406 12.875 C 13.398438 12.640625 13.738281 12.648438 14.125 12.898438 C 14.4375 13.09375 14.449219 13.09375 14.613281 12.835938 C 14.820312 12.523438 14.9375 12.578125 15.023438 13.042969 C 15.125 13.582031 15.617188 14.359375 15.835938 14.3125 C 16.078125 14.265625 16.125 13.847656 15.929688 13.375 C 15.703125 12.8125 15.3125 10.996094 15.234375 10.164062 C 15.175781 9.449219 15.179688 9.4375 15.570312 9.050781 C 15.996094 8.632812 16.058594 8.429688 15.804688 8.324219 C 15.539062 8.214844 15.613281 7.964844 16.03125 7.570312 C 16.59375 7.03125 17.03125 7.054688 17.589844 7.65625 C 17.960938 8.0625 18.007812 8.171875 17.960938 8.515625 C 17.917969 8.789062 17.953125 8.96875 18.070312 9.097656 C 18.300781 9.34375 18.296875 9.648438 18.054688 9.84375 C 17.875 10 17.875 10.011719 18.054688 10.164062 C 18.3125 10.378906 18.300781 10.960938 18.035156 11.203125 C 17.839844 11.382812 17.828125 11.5 17.886719 12.5625 C 17.953125 13.722656 17.953125 13.726562 17.664062 13.925781 L 17.375 14.128906 L 17.375 15.785156 C 17.375 17.3125 17.394531 17.453125 17.59375 17.585938 C 17.890625 17.785156 17.867188 17.980469 17.503906 18.359375 L 17.195312 18.671875 L 15.125 18.65625 C 13.140625 18.632812 13.035156 18.644531 12.648438 18.898438 C 12.296875 19.140625 12.160156 19.160156 11.453125 19.09375 C 10.695312 19.027344 10.65625 19.039062 10.484375 19.3125 C 10.34375 19.546875 10.21875 19.601562 9.84375 19.601562 C 9.585938 19.601562 9.320312 19.539062 9.25 19.460938 Z M 7.46875 16.640625 C 7.492188 16.421875 7.453125 16.328125 7.335938 16.328125 C 7.15625 16.328125 7 16.726562 7.109375 16.917969 C 7.226562 17.125 7.429688 16.96875 7.46875 16.640625 Z M 12.738281 10.78125 C 13.023438 10.289062 13.046875 10.164062 12.976562 9.59375 C 12.917969 9.066406 12.867188 8.953125 12.695312 8.953125 C 12.523438 8.953125 12.484375 9.039062 12.484375 9.40625 C 12.484375 9.65625 12.414062 10.085938 12.320312 10.359375 C 12.125 10.960938 12.109375 11.449219 12.289062 11.382812 C 12.363281 11.359375 12.5625 11.085938 12.738281 10.78125 Z M 11.023438 10.128906 C 10.984375 10.066406 10.882812 10.046875 10.796875 10.082031 C 10.570312 10.175781 10.601562 10.242188 10.859375 10.242188 C 10.984375 10.242188 11.054688 10.1875 11.023438 10.128906 Z M 17.242188 9.039062 C 17.195312 8.878906 16.6875 8.78125 16.4375 8.882812 C 16.148438 9.003906 16.398438 9.1875 16.851562 9.1875 C 17.148438 9.1875 17.273438 9.140625 17.242188 9.039062 Z M 9.390625 8.835938 C 9.476562 8.539062 9.375 8.367188 9.125 8.367188 C 9.015625 8.367188 8.867188 8.289062 8.789062 8.191406 C 8.71875 8.09375 8.582031 8.015625 8.492188 8.015625 C 8.390625 8.015625 8.359375 8.082031 8.398438 8.191406 C 8.4375 8.289062 8.492188 8.449219 8.53125 8.550781 C 8.578125 8.671875 8.527344 8.753906 8.367188 8.796875 C 7.9375 8.921875 8.136719 9.070312 8.726562 9.070312 C 9.222656 9.070312 9.328125 9.03125 9.386719 8.835938 Z M 11.160156 8.4375 C 11.128906 8.101562 11.09375 8.070312 10.664062 8.039062 C 10.175781 8 10.164062 8.015625 10.269531 8.578125 C 10.320312 8.859375 10.402344 8.949219 10.625 8.976562 C 11.023438 9.03125 11.195312 8.859375 11.160156 8.4375 Z M 17.210938 8.074219 C 17.210938 7.9375 16.671875 7.851562 16.4375 7.945312 C 16.347656 7.984375 16.308594 8.070312 16.347656 8.140625 C 16.4375 8.292969 17.210938 8.234375 17.210938 8.074219 Z M 17.210938 8.074219 "/>
<path style=" stroke:none;fill-rule:nonzero;fill:rgb(83.529412%,66.666667%,35.686275%);fill-opacity:1;" d="M 9.246094 19.464844 C 9.175781 19.390625 9.117188 19.109375 9.117188 18.84375 C 9.117188 18.101562 8.660156 17.808594 8.335938 18.339844 C 8.132812 18.671875 7.8125 18.550781 7.8125 18.148438 C 7.8125 17.90625 7.757812 17.851562 7.539062 17.851562 C 7.367188 17.851562 7.109375 17.679688 6.835938 17.382812 C 6.328125 16.835938 6.242188 16.238281 6.617188 15.890625 C 6.878906 15.648438 6.898438 15.328125 6.65625 15.226562 C 6.515625 15.167969 6.496094 15.054688 6.554688 14.675781 C 6.617188 14.21875 6.601562 14.179688 6.132812 13.730469 C 5.808594 13.425781 5.640625 13.167969 5.640625 12.988281 C 5.640625 12.699219 4.726562 11.652344 4.46875 11.648438 C 4.394531 11.648438 4.335938 11.515625 4.335938 11.351562 C 4.335938 11.191406 4.394531 11.058594 4.46875 11.054688 C 4.546875 11.054688 4.835938 10.820312 5.121094 10.539062 L 5.640625 10.027344 L 5.140625 9.472656 C 4.714844 9.003906 4.648438 8.867188 4.703125 8.582031 C 4.75 8.335938 4.703125 8.179688 4.546875 8.015625 C 4.257812 7.699219 4.28125 7.472656 4.632812 7.136719 C 5 6.789062 5.046875 6.785156 5.390625 7.078125 C 5.566406 7.226562 5.753906 7.289062 5.914062 7.242188 C 6.210938 7.164062 6.617188 7.375 6.617188 7.605469 C 6.617188 7.84375 6.210938 8.046875 5.90625 7.96875 C 5.539062 7.867188 5.304688 8.164062 5.386719 8.632812 C 5.421875 8.84375 5.507812 9.046875 5.574219 9.097656 C 5.800781 9.261719 6.257812 9.1875 6.453125 8.953125 C 6.5625 8.824219 6.789062 8.71875 6.953125 8.71875 C 7.375 8.71875 7.460938 8.359375 7.140625 7.890625 C 6.890625 7.535156 6.890625 7.523438 7.101562 7.359375 C 7.382812 7.140625 7.523438 7.152344 7.757812 7.429688 C 8.007812 7.726562 8.148438 7.726562 8.382812 7.429688 C 8.636719 7.117188 8.859375 7.132812 9.179688 7.507812 C 9.429688 7.800781 9.453125 7.804688 9.648438 7.617188 C 9.96875 7.304688 10.65625 6.960938 10.960938 6.960938 C 11.144531 6.960938 11.273438 6.875 11.347656 6.699219 C 11.441406 6.46875 11.523438 6.4375 12 6.464844 C 12.472656 6.492188 12.554688 6.460938 12.648438 6.230469 C 12.742188 6.003906 12.835938 5.96875 13.289062 5.984375 C 14.253906 6.023438 14.160156 6.375 13.140625 6.546875 C 12.867188 6.59375 12.453125 6.726562 12.214844 6.84375 C 11.976562 6.957031 11.695312 7.082031 11.589844 7.117188 C 11.328125 7.214844 11.351562 7.394531 11.671875 7.710938 C 11.890625 7.933594 11.945312 8.09375 11.945312 8.585938 C 11.945312 9.117188 11.898438 9.230469 11.589844 9.535156 C 11.296875 9.820312 11.140625 9.882812 10.6875 9.882812 C 10.207031 9.890625 10.09375 9.839844 9.789062 9.5 C 9.601562 9.289062 9.445312 9.007812 9.445312 8.867188 C 9.445312 8.445312 9.320312 8.25 9.054688 8.25 C 8.917969 8.25 8.773438 8.195312 8.734375 8.132812 C 8.699219 8.070312 8.597656 8.015625 8.507812 8.015625 C 8.398438 8.015625 8.371094 8.09375 8.414062 8.292969 C 8.460938 8.484375 8.429688 8.59375 8.3125 8.640625 C 8.042969 8.75 8.101562 9.070312 8.390625 9.070312 C 8.8125 9.070312 9.097656 9.625 8.78125 9.835938 C 8.640625 9.929688 7.203125 9.917969 6.921875 9.820312 C 6.804688 9.78125 6.554688 9.949219 6.21875 10.296875 C 5.652344 10.882812 5.679688 11.054688 6.351562 11.058594 C 6.953125 11.0625 8.710938 11.523438 10.175781 12.066406 C 10.96875 12.359375 11.699219 12.566406 11.804688 12.53125 C 11.914062 12.492188 12.234375 11.9375 12.523438 11.296875 C 13.011719 10.226562 13.046875 10.082031 12.976562 9.570312 C 12.929688 9.230469 12.820312 8.957031 12.695312 8.859375 C 12.578125 8.773438 12.484375 8.59375 12.484375 8.453125 C 12.484375 8.320312 12.386719 8.09375 12.265625 7.953125 C 11.847656 7.476562 12.226562 7.140625 13.09375 7.21875 C 13.578125 7.257812 13.710938 7.539062 13.410156 7.898438 C 13.195312 8.152344 13.230469 8.640625 13.46875 8.691406 C 13.703125 8.742188 14 8.140625 13.929688 7.753906 C 13.882812 7.488281 13.929688 7.398438 14.210938 7.226562 C 14.496094 7.054688 14.550781 6.949219 14.550781 6.582031 C 14.550781 6.339844 14.5 6.140625 14.445312 6.140625 C 14.289062 6.140625 14.304688 5.75 14.464844 5.578125 C 14.640625 5.390625 15.039062 5.402344 15.1875 5.59375 C 15.351562 5.8125 15.3125 7.648438 15.136719 8.03125 C 15.058594 8.199219 14.894531 8.367188 14.773438 8.398438 C 14.632812 8.4375 14.523438 8.59375 14.484375 8.828125 C 14.445312 9.035156 14.203125 9.429688 13.9375 9.722656 C 13.679688 10.011719 13.464844 10.304688 13.464844 10.375 C 13.464844 10.441406 13.398438 10.636719 13.3125 10.804688 C 13.226562 10.976562 12.9375 11.671875 12.664062 12.347656 C 12.390625 13.023438 12.097656 13.59375 12.007812 13.613281 C 11.917969 13.632812 11.707031 13.542969 11.539062 13.410156 C 11.25 13.179688 9.757812 12.703125 9.289062 12.695312 C 9.164062 12.691406 8.867188 12.609375 8.625 12.507812 C 8.273438 12.363281 6.242188 11.890625 5.9375 11.882812 C 5.796875 11.875 5.851562 12.429688 6.003906 12.570312 C 6.085938 12.640625 6.289062 12.9375 6.460938 13.226562 C 6.78125 13.769531 7.035156 13.882812 7.269531 13.578125 C 7.34375 13.480469 7.59375 13.34375 7.820312 13.265625 C 8.171875 13.15625 8.28125 13.164062 8.519531 13.332031 C 8.671875 13.441406 8.84375 13.65625 8.902344 13.816406 C 8.957031 13.976562 9.0625 14.109375 9.140625 14.109375 C 9.21875 14.117188 9.648438 14.117188 10.09375 14.117188 C 11.179688 14.117188 11.890625 14.316406 11.890625 14.632812 C 11.890625 14.78125 11.804688 14.875 11.644531 14.902344 C 11.359375 14.945312 11.359375 14.9375 11.523438 15.320312 C 11.707031 15.753906 11.910156 15.78125 12.039062 15.382812 C 12.125 15.109375 12.210938 15.039062 12.453125 15.042969 C 12.621094 15.046875 12.882812 15.121094 13.03125 15.210938 C 13.207031 15.316406 13.34375 15.332031 13.429688 15.257812 C 13.496094 15.195312 13.789062 15.101562 14.078125 15.046875 C 14.367188 14.988281 14.921875 14.8125 15.3125 14.65625 C 16.105469 14.328125 16.21875 14.089844 15.929688 13.375 C 15.703125 12.8125 15.308594 11 15.234375 10.164062 C 15.171875 9.449219 15.179688 9.4375 15.570312 9.050781 C 15.992188 8.632812 16.058594 8.429688 15.800781 8.324219 C 15.539062 8.214844 15.609375 7.96875 16.03125 7.570312 C 16.59375 7.03125 17.03125 7.054688 17.585938 7.65625 C 17.960938 8.0625 18.007812 8.171875 17.957031 8.515625 C 17.914062 8.789062 17.953125 8.96875 18.070312 9.101562 C 18.300781 9.34375 18.292969 9.648438 18.054688 9.84375 C 17.875 10 17.875 10.015625 18.054688 10.164062 C 18.3125 10.378906 18.296875 10.960938 18.03125 11.203125 C 17.835938 11.386719 17.824219 11.5 17.886719 12.539062 L 17.953125 13.671875 L 17.65625 13.929688 L 17.355469 14.1875 L 17.371094 15.804688 C 17.382812 17.269531 17.40625 17.441406 17.601562 17.585938 C 17.890625 17.804688 17.867188 17.984375 17.503906 18.359375 L 17.195312 18.675781 L 15.125 18.65625 C 13.140625 18.636719 13.035156 18.648438 12.648438 18.902344 C 12.292969 19.140625 12.160156 19.164062 11.453125 19.097656 C 10.695312 19.027344 10.652344 19.039062 10.484375 19.3125 C 10.34375 19.546875 10.21875 19.605469 9.84375 19.605469 C 9.585938 19.605469 9.320312 19.542969 9.25 19.464844 Z M 11.945312 18.203125 C 11.945312 18.136719 11.84375 18.085938 11.71875 18.085938 C 11.59375 18.085938 11.523438 18.136719 11.5625 18.203125 C 11.601562 18.265625 11.699219 18.320312 11.785156 18.320312 C 11.875 18.320312 11.945312 18.265625 11.945312 18.203125 Z M 15.359375 17.8125 C 15.507812 17.695312 15.546875 17.558594 15.5 17.320312 C 15.367188 16.574219 15.71875 16.449219 16 17.140625 C 16.1875 17.59375 16.5 17.824219 16.726562 17.675781 C 16.84375 17.59375 16.882812 15.015625 16.765625 14.890625 C 16.679688 14.796875 16.15625 15.078125 15.976562 15.3125 C 15.90625 15.40625 15.679688 15.515625 15.46875 15.5625 L 15.09375 15.636719 L 15.09375 16.367188 C 15.09375 17.046875 15.070312 17.125 14.765625 17.363281 C 14.328125 17.714844 14.34375 17.96875 14.804688 17.96875 C 15 17.96875 15.25 17.898438 15.359375 17.8125 Z M 9.335938 17.140625 C 9.335938 16.898438 9.171875 16.835938 9.058594 17.039062 C 8.960938 17.210938 9.09375 17.53125 9.226562 17.441406 C 9.285156 17.398438 9.335938 17.265625 9.335938 17.140625 Z M 7.464844 16.890625 C 7.648438 16.691406 7.628906 16.210938 7.4375 16.210938 C 7.238281 16.210938 7.015625 16.640625 7.09375 16.863281 C 7.164062 17.070312 7.289062 17.078125 7.464844 16.890625 Z M 8.464844 16.738281 C 8.464844 16.71875 8.390625 16.671875 8.300781 16.636719 C 8.203125 16.59375 8.140625 16.636719 8.140625 16.738281 C 8.140625 16.839844 8.203125 16.878906 8.300781 16.835938 C 8.390625 16.800781 8.464844 16.757812 8.464844 16.738281 Z M 14.117188 16.742188 C 14.117188 16.507812 13.953125 16.425781 13.632812 16.515625 C 13.210938 16.625 13.28125 16.914062 13.734375 16.914062 C 13.992188 16.914062 14.117188 16.859375 14.117188 16.742188 Z M 8.21875 14.96875 C 8.589844 14.859375 8.539062 14.539062 8.164062 14.621094 C 7.828125 14.695312 7.664062 14.609375 7.5625 14.308594 C 7.445312 13.96875 7.265625 14.078125 7.265625 14.492188 C 7.265625 14.710938 7.300781 14.921875 7.34375 14.960938 C 7.429688 15.058594 7.890625 15.0625 8.21875 14.96875 Z M 17.054688 13.6875 C 17.183594 13.320312 17.195312 12.347656 17.066406 12.347656 C 16.945312 12.347656 16.664062 12.703125 16.574219 12.980469 C 16.492188 13.234375 16.6875 13.984375 16.84375 13.984375 C 16.898438 13.984375 16.992188 13.851562 17.054688 13.6875 Z M 17.15625 10.75 C 17.15625 10.558594 16.382812 10.53125 16.0625 10.710938 C 15.796875 10.867188 15.800781 11.023438 16.085938 11.527344 L 16.316406 11.9375 L 16.734375 11.421875 C 16.96875 11.140625 17.15625 10.84375 17.15625 10.75 Z M 17.242188 9.039062 C 17.191406 8.878906 16.6875 8.78125 16.4375 8.882812 C 16.148438 9.003906 16.398438 9.1875 16.847656 9.1875 C 17.148438 9.1875 17.273438 9.140625 17.242188 9.039062 Z M 11.125 8.542969 C 11.125 8.078125 11.125 8.074219 10.664062 8.039062 L 10.203125 8.003906 L 10.203125 8.460938 C 10.203125 9.023438 10.261719 9.089844 10.742188 9.046875 C 11.109375 9.011719 11.125 8.992188 11.125 8.542969 Z M 17.210938 8.074219 C 17.210938 7.9375 16.671875 7.851562 16.4375 7.949219 C 16.347656 7.984375 16.304688 8.070312 16.34375 8.140625 C 16.4375 8.292969 17.210938 8.234375 17.210938 8.074219 Z M 11.34375 10.59375 C 11.796875 10.089844 11.976562 10 11.867188 10.328125 C 11.753906 10.675781 11.371094 11.0625 11.140625 11.0625 C 10.953125 11.0625 10.984375 10.992188 11.34375 10.59375 Z M 11.34375 10.59375 "/>
<path style=" stroke:none;fill-rule:nonzero;fill:rgb(88.627451%,64.705882%,15.686275%);fill-opacity:1;" d="M 9.429688 19.359375 C 9.34375 19.308594 9.300781 19.089844 9.316406 18.835938 C 9.363281 18.078125 8.734375 17.683594 8.300781 18.203125 C 8.078125 18.46875 7.976562 18.414062 7.976562 18.046875 C 7.976562 17.84375 7.902344 17.78125 7.609375 17.753906 C 7.078125 17.699219 6.507812 17.050781 6.507812 16.507812 C 6.507812 16.234375 6.585938 16.023438 6.726562 15.890625 C 6.980469 15.65625 7.007812 15.328125 6.789062 15.089844 C 6.679688 14.976562 6.648438 14.789062 6.695312 14.507812 C 6.75 14.132812 6.710938 14.054688 6.304688 13.679688 C 5.941406 13.34375 5.855469 13.1875 5.855469 12.867188 C 5.855469 12.617188 5.804688 12.464844 5.714844 12.464844 C 5.640625 12.464844 5.382812 12.253906 5.148438 11.996094 C 4.914062 11.738281 4.636719 11.527344 4.53125 11.527344 C 4.421875 11.527344 4.335938 11.449219 4.335938 11.351562 C 4.335938 11.257812 4.421875 11.175781 4.523438 11.171875 C 4.699219 11.171875 5.75 10.203125 5.75 10.039062 C 5.75 10 5.527344 9.746094 5.257812 9.472656 C 4.828125 9.039062 4.769531 8.914062 4.769531 8.484375 C 4.769531 8.09375 4.726562 7.984375 4.554688 7.933594 C 4.277344 7.855469 4.257812 7.367188 4.523438 7.273438 C 4.628906 7.234375 4.796875 7.140625 4.898438 7.058594 C 5.046875 6.9375 5.117188 6.949219 5.28125 7.105469 C 5.390625 7.210938 5.695312 7.3125 5.964844 7.335938 C 6.367188 7.367188 6.453125 7.414062 6.453125 7.605469 C 6.453125 7.800781 6.363281 7.851562 5.910156 7.898438 L 5.367188 7.957031 L 5.300781 9.1875 L 5.890625 9.1875 C 6.320312 9.1875 6.5 9.136719 6.546875 9.011719 C 6.585938 8.902344 6.75 8.835938 6.984375 8.835938 C 7.292969 8.835938 7.367188 8.785156 7.425781 8.527344 C 7.476562 8.296875 7.4375 8.148438 7.261719 7.945312 C 7.007812 7.65625 7.039062 7.3125 7.328125 7.3125 C 7.421875 7.3125 7.664062 7.460938 7.875 7.632812 C 8.277344 7.984375 8.375 8.460938 8.09375 8.710938 C 7.855469 8.921875 8.011719 9.1875 8.371094 9.1875 C 8.761719 9.1875 8.914062 9.503906 8.632812 9.726562 C 8.445312 9.867188 8.070312 9.867188 7.140625 9.710938 C 6.910156 9.671875 6.734375 9.785156 6.273438 10.25 C 5.648438 10.882812 5.664062 11.054688 6.351562 11.058594 C 7.136719 11.0625 9.171875 11.640625 10.710938 12.296875 C 11.605469 12.679688 11.875 12.664062 12.160156 12.230469 C 12.613281 11.546875 12.71875 11.867188 12.390625 12.933594 C 12.164062 13.679688 11.910156 13.8125 11.566406 13.378906 C 11.390625 13.148438 11.132812 13.054688 10.257812 12.882812 C 9.660156 12.769531 8.949219 12.601562 8.679688 12.503906 C 8.265625 12.359375 6.1875 11.886719 5.9375 11.882812 C 5.796875 11.875 5.851562 12.429688 6.003906 12.570312 C 6.085938 12.640625 6.289062 12.9375 6.460938 13.226562 C 6.78125 13.769531 7.035156 13.882812 7.265625 13.578125 C 7.34375 13.480469 7.589844 13.34375 7.820312 13.265625 C 8.171875 13.15625 8.28125 13.164062 8.515625 13.332031 C 8.671875 13.441406 8.84375 13.660156 8.898438 13.816406 C 8.957031 13.976562 9.0625 14.109375 9.140625 14.109375 C 9.21875 14.117188 9.648438 14.117188 10.09375 14.117188 C 11.179688 14.117188 11.890625 14.320312 11.890625 14.632812 C 11.890625 14.78125 11.804688 14.875 11.640625 14.902344 C 11.359375 14.945312 11.359375 14.9375 11.523438 15.320312 C 11.703125 15.753906 11.90625 15.78125 12.039062 15.382812 C 12.175781 14.957031 12.5625 14.921875 13.03125 15.292969 C 13.289062 15.5 13.375 15.519531 13.507812 15.398438 C 13.601562 15.320312 13.84375 15.234375 14.046875 15.214844 C 14.253906 15.195312 14.539062 15.097656 14.675781 15 C 14.816406 14.902344 15.21875 14.742188 15.570312 14.648438 C 15.925781 14.546875 16.257812 14.398438 16.304688 14.3125 C 16.421875 14.125 16.320312 13.585938 16.074219 13.050781 C 15.96875 12.824219 15.851562 12.296875 15.804688 11.882812 C 15.765625 11.460938 15.6875 11.0625 15.632812 11 C 15.582031 10.929688 15.484375 10.617188 15.421875 10.296875 C 15.320312 9.808594 15.328125 9.667969 15.492188 9.335938 C 15.742188 8.84375 16.039062 8.734375 16.25 9.058594 C 16.421875 9.320312 16.96875 9.390625 17.261719 9.195312 C 17.394531 9.101562 17.394531 9.058594 17.265625 8.890625 C 17.148438 8.742188 17.015625 8.714844 16.648438 8.773438 C 16.265625 8.835938 16.179688 8.816406 16.179688 8.667969 C 16.179688 8.570312 16.085938 8.421875 15.960938 8.339844 C 15.675781 8.148438 15.6875 8.0625 16.0625 7.65625 C 16.523438 7.160156 17.046875 7.179688 17.539062 7.71875 C 17.84375 8.039062 17.910156 8.203125 17.898438 8.554688 C 17.890625 8.835938 17.945312 9.035156 18.0625 9.128906 C 18.328125 9.335938 18.300781 9.773438 18.03125 9.773438 C 17.734375 9.773438 17.734375 10.242188 18.03125 10.324219 C 18.304688 10.398438 18.324219 10.917969 18.054688 11.023438 C 17.734375 11.15625 17.695312 11.3125 17.71875 12.515625 C 17.742188 13.59375 17.726562 13.6875 17.507812 13.84375 C 17.28125 14.007812 17.265625 14.09375 17.265625 15.765625 C 17.265625 17.398438 17.28125 17.53125 17.492188 17.714844 L 17.71875 17.914062 L 17.4375 18.195312 C 17.164062 18.472656 17.125 18.476562 15.476562 18.445312 C 13.875 18.417969 13.625 18.449219 12.648438 18.808594 C 12.46875 18.875 11.925781 18.921875 11.445312 18.90625 C 10.617188 18.890625 10.554688 18.90625 10.382812 19.179688 C 10.203125 19.476562 9.734375 19.566406 9.425781 19.359375 Z M 11.945312 18.203125 C 11.945312 18.136719 11.84375 18.085938 11.71875 18.085938 C 11.59375 18.085938 11.523438 18.136719 11.5625 18.203125 C 11.601562 18.265625 11.699219 18.320312 11.785156 18.320312 C 11.875 18.320312 11.945312 18.265625 11.945312 18.203125 Z M 15.359375 17.8125 C 15.507812 17.695312 15.546875 17.558594 15.5 17.320312 C 15.367188 16.574219 15.71875 16.449219 16 17.140625 C 16.1875 17.589844 16.5 17.820312 16.726562 17.675781 C 16.84375 17.59375 16.882812 15.015625 16.765625 14.890625 C 16.679688 14.796875 16.15625 15.078125 15.976562 15.3125 C 15.90625 15.40625 15.679688 15.515625 15.46875 15.5625 L 15.09375 15.636719 L 15.09375 16.3125 C 15.09375 16.921875 15.066406 17.007812 14.8125 17.152344 C 14.5 17.335938 14.289062 17.679688 14.390625 17.851562 C 14.484375 18.019531 15.128906 17.992188 15.359375 17.8125 Z M 9.335938 17.140625 C 9.335938 16.898438 9.171875 16.835938 9.058594 17.035156 C 8.960938 17.207031 9.09375 17.53125 9.226562 17.441406 C 9.285156 17.398438 9.335938 17.265625 9.335938 17.140625 Z M 7.421875 17.078125 C 7.640625 16.984375 7.65625 16.261719 7.445312 16.171875 C 7.21875 16.078125 7.050781 16.328125 7.050781 16.757812 C 7.050781 17.152344 7.113281 17.203125 7.421875 17.078125 Z M 14.226562 16.9375 C 14.226562 16.648438 13.929688 16.429688 13.648438 16.507812 C 13.292969 16.601562 13.261719 16.875 13.601562 16.945312 C 14.03125 17.039062 14.226562 17.03125 14.226562 16.9375 Z M 8.460938 16.738281 C 8.460938 16.71875 8.390625 16.671875 8.300781 16.636719 C 8.203125 16.59375 8.136719 16.636719 8.136719 16.738281 C 8.136719 16.839844 8.203125 16.878906 8.300781 16.835938 C 8.390625 16.800781 8.460938 16.757812 8.460938 16.738281 Z M 8.21875 14.96875 C 8.589844 14.859375 8.539062 14.539062 8.164062 14.621094 C 7.828125 14.695312 7.664062 14.609375 7.5625 14.308594 C 7.445312 13.96875 7.265625 14.078125 7.265625 14.492188 C 7.265625 14.710938 7.300781 14.921875 7.339844 14.960938 C 7.429688 15.058594 7.890625 15.0625 8.21875 14.96875 Z M 17.054688 13.6875 C 17.179688 13.320312 17.195312 12.347656 17.066406 12.347656 C 16.945312 12.347656 16.664062 12.703125 16.574219 12.980469 C 16.488281 13.234375 16.6875 13.984375 16.84375 13.984375 C 16.898438 13.984375 16.992188 13.851562 17.054688 13.6875 Z M 17.15625 10.75 C 17.15625 10.558594 16.382812 10.53125 16.0625 10.710938 C 15.796875 10.867188 15.796875 11.023438 16.085938 11.527344 L 16.316406 11.9375 L 16.734375 11.421875 C 16.96875 11.140625 17.15625 10.84375 17.15625 10.75 Z M 17.273438 8.183594 C 17.390625 8.03125 17.390625 7.980469 17.257812 7.890625 C 16.929688 7.667969 16.179688 7.796875 16.179688 8.078125 C 16.179688 8.394531 17.046875 8.476562 17.273438 8.183594 Z M 11.34375 10.59375 C 11.800781 10.085938 11.976562 10 11.867188 10.328125 C 11.753906 10.675781 11.371094 11.0625 11.140625 11.0625 C 10.953125 11.0625 10.984375 10.992188 11.34375 10.59375 Z M 13.195312 9.742188 C 13.101562 9.601562 13.027344 9.34375 13.027344 9.167969 C 13.027344 8.953125 12.957031 8.828125 12.8125 8.777344 C 12.679688 8.734375 12.59375 8.601562 12.59375 8.445312 C 12.59375 8.304688 12.515625 8.066406 12.421875 7.921875 C 12.152344 7.507812 12.296875 7.3125 12.867188 7.3125 C 13.429688 7.3125 13.601562 7.539062 13.304688 7.890625 C 13.027344 8.226562 13.121094 8.769531 13.460938 8.8125 C 13.820312 8.851562 14.140625 8.289062 14.046875 7.78125 C 13.988281 7.480469 14.023438 7.421875 14.289062 7.3125 C 14.460938 7.242188 14.636719 7.121094 14.679688 7.042969 C 14.804688 6.832031 14.78125 6.207031 14.644531 6.058594 C 14.484375 5.886719 14.601562 5.558594 14.820312 5.558594 C 15.109375 5.558594 15.257812 6.09375 15.125 6.640625 C 15.039062 6.988281 15.039062 7.175781 15.125 7.324219 C 15.289062 7.605469 15.074219 8.09375 14.714844 8.273438 C 14.546875 8.355469 14.441406 8.5 14.441406 8.660156 C 14.441406 8.972656 13.929688 9.710938 13.601562 9.875 C 13.402344 9.976562 13.332031 9.953125 13.195312 9.742188 Z M 9.867188 9.414062 C 9.503906 9 9.386719 8.214844 9.625 7.820312 C 9.976562 7.242188 11.289062 6.890625 11.289062 7.375 C 11.289062 7.46875 11.414062 7.664062 11.5625 7.804688 C 11.972656 8.1875 11.945312 8.929688 11.5 9.414062 C 11.214844 9.71875 11.085938 9.769531 10.65625 9.757812 C 10.25 9.75 10.09375 9.679688 9.867188 9.414062 Z M 11.234375 8.542969 L 11.234375 7.957031 L 10.148438 7.957031 L 10.113281 8.40625 C 10.058594 9.117188 10.128906 9.203125 10.71875 9.164062 L 11.234375 9.128906 Z M 8.648438 7.980469 C 8.242188 7.804688 8.28125 7.390625 8.707031 7.335938 C 8.945312 7.304688 9.03125 7.359375 9.117188 7.609375 C 9.222656 7.910156 9.179688 8.148438 9.027344 8.121094 C 8.984375 8.113281 8.816406 8.050781 8.648438 7.980469 Z M 11.507812 6.734375 C 11.507812 6.675781 11.550781 6.59375 11.605469 6.558594 C 11.746094 6.46875 12.0625 6.617188 11.988281 6.742188 C 11.90625 6.882812 11.507812 6.875 11.507812 6.734375 Z M 12.8125 6.265625 C 12.8125 6.207031 12.855469 6.125 12.910156 6.09375 C 13.050781 6 13.367188 6.148438 13.292969 6.273438 C 13.210938 6.414062 12.8125 6.40625 12.8125 6.265625 Z M 12.8125 6.265625 "/>
<path style=" stroke:none;fill-rule:nonzero;fill:rgb(65.490196%,43.921569%,9.019608%);fill-opacity:1;" d="M 9.335938 18.835938 C 9.335938 18.132812 9.03125 17.820312 8.449219 17.917969 C 8.21875 17.957031 8.023438 17.929688 7.980469 17.859375 C 7.941406 17.789062 7.765625 17.734375 7.585938 17.734375 C 7.105469 17.734375 6.507812 17.054688 6.507812 16.507812 C 6.507812 16.234375 6.585938 16.023438 6.726562 15.890625 C 6.984375 15.65625 7.007812 15.328125 6.785156 15.085938 C 6.695312 14.992188 6.65625 14.839844 6.6875 14.742188 C 6.78125 14.484375 6.910156 14.539062 6.988281 14.867188 C 7.054688 15.140625 7.09375 15.15625 7.804688 15.15625 C 8.652344 15.15625 8.898438 15.3125 8.898438 15.851562 C 8.898438 16.398438 8.375 16.617188 8.203125 16.140625 C 8.117188 15.898438 7.449219 15.929688 7.230469 16.191406 C 7.132812 16.308594 7.050781 16.578125 7.050781 16.789062 C 7.050781 17.132812 7.078125 17.164062 7.296875 17.09375 C 7.585938 16.992188 7.734375 16.984375 8.28125 17.007812 C 8.640625 17.027344 8.71875 17.082031 8.828125 17.386719 C 8.992188 17.867188 9.375 17.828125 9.421875 17.324219 C 9.445312 17.132812 9.558594 16.859375 9.679688 16.71875 L 9.898438 16.464844 L 9.671875 16.335938 C 9.355469 16.152344 9.382812 16.003906 9.816406 15.546875 C 10.125 15.226562 10.273438 15.15625 10.664062 15.15625 C 11.070312 15.15625 11.195312 15.222656 11.539062 15.601562 C 11.863281 15.960938 11.941406 16.132812 11.941406 16.5 C 11.941406 16.765625 12.019531 17.046875 12.125 17.171875 C 12.269531 17.34375 12.285156 17.445312 12.195312 17.59375 C 12.101562 17.757812 11.867188 17.796875 10.816406 17.824219 L 9.550781 17.859375 L 9.554688 18.292969 C 9.554688 18.835938 9.640625 18.984375 9.976562 19.039062 C 10.476562 19.117188 10.367188 19.371094 9.832031 19.371094 L 9.335938 19.371094 Z M 11.121094 16.101562 C 11.207031 15.953125 10.992188 15.898438 10.59375 15.960938 C 10.265625 16.015625 10.261719 16.019531 10.53125 16.101562 C 10.921875 16.226562 11.054688 16.226562 11.121094 16.101562 Z M 11.75 18.75 C 11.855469 18.660156 12.085938 18.390625 12.265625 18.148438 C 12.566406 17.738281 12.582031 17.671875 12.523438 16.933594 C 12.484375 16.503906 12.390625 16.070312 12.308594 15.96875 C 11.882812 15.4375 12.417969 14.929688 12.984375 15.328125 C 13.242188 15.511719 13.289062 15.511719 13.640625 15.335938 C 14.09375 15.101562 14.34375 15.175781 14.710938 15.640625 C 14.90625 15.890625 14.984375 16.132812 14.984375 16.46875 C 14.984375 16.863281 14.914062 17.015625 14.554688 17.40625 C 14.191406 17.796875 14.0625 17.867188 13.789062 17.824219 C 13.386719 17.761719 13.246094 17.941406 13.523438 18.160156 C 13.890625 18.449219 13.3125 18.726562 12.054688 18.859375 C 11.617188 18.90625 11.585938 18.894531 11.75 18.75 Z M 14.203125 16.53125 C 14.164062 15.914062 13.964844 15.851562 13.492188 16.320312 C 13.019531 16.78125 13.109375 17.03125 13.753906 17.03125 L 14.238281 17.03125 Z M 15.9375 18.464844 C 15.351562 18.445312 14.875 18.382812 14.875 18.328125 C 14.875 18.273438 15.378906 18.1875 15.992188 18.140625 C 16.601562 18.09375 17.195312 18.007812 17.304688 17.945312 C 17.632812 17.757812 17.640625 17.933594 17.320312 18.253906 C 17.15625 18.417969 17.015625 18.539062 17.007812 18.527344 C 17 18.515625 16.519531 18.484375 15.9375 18.464844 Z M 15.183594 15.078125 C 15.261719 15.042969 15.355469 15.046875 15.390625 15.085938 C 15.429688 15.125 15.363281 15.152344 15.25 15.148438 C 15.121094 15.140625 15.09375 15.117188 15.183594 15.078125 Z M 17.375 13.53125 C 17.375 13.132812 17.511719 12.582031 17.609375 12.582031 C 17.660156 12.582031 17.703125 12.84375 17.703125 13.167969 C 17.703125 13.609375 17.664062 13.75 17.539062 13.75 C 17.453125 13.75 17.375 13.65625 17.375 13.53125 Z M 5.855469 13.109375 C 5.855469 13.011719 5.898438 12.933594 5.953125 12.933594 C 6.007812 12.933594 6.078125 13.011719 6.113281 13.109375 C 6.148438 13.214844 6.113281 13.285156 6.015625 13.285156 C 5.929688 13.285156 5.855469 13.203125 5.855469 13.109375 Z M 16.039062 12.855469 C 15.902344 12.710938 15.960938 12.347656 16.121094 12.347656 C 16.328125 12.347656 16.414062 12.515625 16.335938 12.746094 C 16.265625 12.945312 16.15625 12.984375 16.039062 12.855469 Z M 4.878906 11.703125 C 4.804688 11.609375 4.648438 11.527344 4.539062 11.527344 C 4.425781 11.527344 4.335938 11.449219 4.335938 11.351562 C 4.335938 11.257812 4.414062 11.179688 4.515625 11.179688 C 4.609375 11.179688 4.90625 10.984375 5.171875 10.753906 C 5.433594 10.523438 5.675781 10.359375 5.710938 10.394531 C 5.742188 10.429688 5.664062 10.527344 5.539062 10.609375 C 5.359375 10.734375 5.3125 10.882812 5.3125 11.320312 C 5.3125 11.90625 5.148438 12.054688 4.875 11.703125 Z M 17.269531 11.542969 C 17.269531 11.484375 17.394531 11.195312 17.546875 10.898438 C 17.867188 10.289062 18.246094 10.148438 18.246094 10.636719 C 18.246094 10.835938 18.171875 10.9375 17.976562 10.992188 C 17.8125 11.035156 17.679688 11.175781 17.640625 11.355469 C 17.578125 11.625 17.269531 11.78125 17.269531 11.542969 Z M 15.488281 10.292969 C 15.203125 9.488281 15.851562 8.4375 16.25 9.058594 C 16.421875 9.320312 16.96875 9.390625 17.261719 9.195312 C 17.394531 9.101562 17.394531 9.058594 17.265625 8.890625 C 17.148438 8.742188 17.015625 8.714844 16.648438 8.773438 C 16.265625 8.835938 16.179688 8.816406 16.179688 8.667969 C 16.179688 8.570312 16.085938 8.421875 15.960938 8.339844 C 15.675781 8.148438 15.6875 8.0625 16.0625 7.65625 C 16.523438 7.160156 17.046875 7.179688 17.539062 7.71875 C 17.84375 8.039062 17.914062 8.203125 17.898438 8.554688 C 17.890625 8.835938 17.945312 9.035156 18.0625 9.128906 C 18.320312 9.328125 18.304688 9.773438 18.039062 9.773438 C 17.929688 9.773438 17.804688 9.851562 17.773438 9.945312 C 17.726562 10.082031 17.515625 10.125 16.886719 10.125 C 16.328125 10.125 15.984375 10.179688 15.8125 10.304688 C 15.578125 10.46875 15.546875 10.464844 15.488281 10.292969 Z M 17.273438 8.183594 C 17.390625 8.03125 17.390625 7.980469 17.261719 7.890625 C 16.933594 7.667969 16.179688 7.796875 16.179688 8.078125 C 16.179688 8.390625 17.046875 8.476562 17.273438 8.183594 Z M 5.335938 9.550781 C 4.828125 9.039062 4.769531 8.929688 4.769531 8.484375 C 4.769531 8.09375 4.726562 7.984375 4.554688 7.933594 C 4.277344 7.855469 4.257812 7.367188 4.523438 7.273438 C 4.628906 7.234375 4.796875 7.140625 4.898438 7.058594 C 5.046875 6.941406 5.117188 6.949219 5.28125 7.105469 C 5.390625 7.210938 5.695312 7.3125 5.964844 7.335938 C 6.367188 7.367188 6.453125 7.414062 6.453125 7.609375 C 6.453125 7.804688 6.363281 7.851562 5.910156 7.898438 L 5.367188 7.957031 L 5.300781 9.1875 L 5.890625 9.1875 C 6.320312 9.1875 6.5 9.140625 6.546875 9.011719 C 6.585938 8.902344 6.75 8.835938 6.984375 8.835938 C 7.292969 8.835938 7.367188 8.785156 7.425781 8.527344 C 7.476562 8.300781 7.4375 8.148438 7.261719 7.949219 C 7.007812 7.65625 7.039062 7.3125 7.328125 7.3125 C 7.601562 7.3125 8.25 7.933594 8.242188 8.191406 C 8.242188 8.320312 8.171875 8.523438 8.085938 8.640625 C 7.875 8.945312 8 9.1875 8.371094 9.1875 C 8.757812 9.1875 8.914062 9.503906 8.640625 9.71875 C 8.441406 9.875 7.25 9.828125 6.945312 9.648438 C 6.839844 9.585938 6.703125 9.632812 6.5625 9.765625 C 6.125 10.195312 5.9375 10.164062 5.335938 9.550781 Z M 13.140625 9.664062 C 13.078125 9.539062 13.03125 9.304688 13.03125 9.144531 C 13.03125 8.953125 12.953125 8.828125 12.8125 8.777344 C 12.679688 8.734375 12.59375 8.601562 12.59375 8.445312 C 12.59375 8.300781 12.515625 8.066406 12.421875 7.921875 C 12.15625 7.507812 12.296875 7.3125 12.867188 7.3125 C 13.433594 7.3125 13.601562 7.539062 13.304688 7.890625 C 13.199219 8.023438 13.136719 8.25 13.15625 8.445312 C 13.1875 8.703125 13.257812 8.785156 13.472656 8.8125 C 13.804688 8.851562 14.054688 8.421875 14.058594 7.796875 C 14.0625 7.453125 14.113281 7.382812 14.476562 7.226562 C 14.851562 7.0625 14.910156 7.0625 15.0625 7.226562 C 15.304688 7.492188 15.15625 7.988281 14.765625 8.226562 C 14.5625 8.351562 14.445312 8.523438 14.445312 8.679688 C 14.445312 8.90625 14.019531 9.578125 13.738281 9.796875 C 13.539062 9.957031 13.257812 9.890625 13.140625 9.664062 Z M 9.867188 9.414062 C 9.507812 9 9.390625 8.214844 9.625 7.820312 C 9.976562 7.242188 11.289062 6.890625 11.289062 7.375 C 11.289062 7.46875 11.414062 7.664062 11.5625 7.804688 C 11.976562 8.1875 11.945312 8.929688 11.5 9.414062 C 11.21875 9.71875 11.089844 9.769531 10.65625 9.757812 C 10.25 9.746094 10.09375 9.679688 9.867188 9.414062 Z M 11.234375 8.542969 L 11.234375 7.957031 L 10.148438 7.957031 L 10.117188 8.40625 C 10.0625 9.117188 10.132812 9.203125 10.71875 9.164062 L 11.234375 9.128906 Z M 8.648438 7.96875 C 8.242188 7.808594 8.28125 7.390625 8.710938 7.335938 C 8.945312 7.304688 9.03125 7.359375 9.117188 7.605469 C 9.179688 7.773438 9.226562 7.929688 9.226562 7.953125 C 9.226562 8.066406 8.914062 8.078125 8.648438 7.96875 Z M 11.535156 6.699219 C 11.5625 6.617188 11.648438 6.554688 11.726562 6.554688 C 11.804688 6.554688 11.890625 6.617188 11.914062 6.699219 C 11.945312 6.789062 11.867188 6.84375 11.726562 6.84375 C 11.585938 6.84375 11.507812 6.789062 11.535156 6.699219 Z M 14.867188 6.703125 C 14.859375 6.621094 14.859375 6.507812 14.867188 6.453125 C 14.878906 6.398438 14.804688 6.21875 14.710938 6.058594 C 14.511719 5.734375 14.632812 5.476562 14.925781 5.597656 C 15.117188 5.679688 15.171875 6.664062 14.984375 6.789062 C 14.929688 6.828125 14.875 6.789062 14.867188 6.703125 Z M 12.8125 6.273438 C 12.8125 6.140625 13.09375 6.015625 13.179688 6.109375 C 13.210938 6.148438 13.214844 6.21875 13.183594 6.273438 C 13.109375 6.410156 12.8125 6.40625 12.8125 6.273438 Z M 12.8125 6.273438 "/>
<path style=" stroke:none;fill-rule:nonzero;fill:rgb(40.392157%,32.156863%,12.156863%);fill-opacity:1;" d="M 12.210938 18.65625 C 12.171875 18.59375 12.265625 18.34375 12.414062 18.105469 C 12.664062 17.71875 12.6875 17.59375 12.632812 16.914062 C 12.597656 16.492188 12.5 16.03125 12.410156 15.878906 C 12.09375 15.335938 12.453125 15.101562 13.035156 15.472656 C 13.328125 15.65625 13.359375 15.65625 13.546875 15.472656 C 13.851562 15.175781 14.140625 15.230469 14.53125 15.660156 C 15.023438 16.210938 15.015625 16.773438 14.5 17.328125 C 14.203125 17.648438 14.039062 17.734375 13.703125 17.734375 C 13.164062 17.734375 13.085938 17.828125 13.359375 18.144531 C 13.535156 18.34375 13.550781 18.421875 13.441406 18.515625 C 13.234375 18.695312 12.289062 18.804688 12.210938 18.65625 Z M 14.28125 16.503906 C 14.28125 15.976562 14.253906 15.914062 14.023438 15.878906 C 13.542969 15.804688 12.90625 16.742188 13.214844 17.074219 C 13.257812 17.121094 13.515625 17.140625 13.789062 17.125 L 14.28125 17.085938 Z M 7.71875 17.761719 C 7.359375 17.726562 7.160156 17.625 6.875 17.320312 C 6.414062 16.820312 6.375 16.28125 6.78125 15.8125 C 6.929688 15.640625 7.050781 15.445312 7.050781 15.382812 C 7.050781 15.21875 8.503906 15.25 8.660156 15.414062 C 8.84375 15.613281 8.820312 16.085938 8.625 16.171875 C 8.53125 16.207031 8.367188 16.15625 8.261719 16.046875 C 8.015625 15.804688 7.445312 15.804688 7.222656 16.042969 C 7.125 16.148438 7.050781 16.421875 7.050781 16.671875 L 7.050781 17.121094 L 7.753906 17.125 C 8.140625 17.125 8.507812 17.164062 8.570312 17.203125 C 8.710938 17.296875 8.71875 17.734375 8.582031 17.734375 C 8.527344 17.734375 8.414062 17.75 8.335938 17.769531 C 8.257812 17.789062 7.980469 17.789062 7.71875 17.761719 Z M 9.679688 17.59375 C 9.480469 17.375 9.527344 16.9375 9.769531 16.796875 C 10.046875 16.632812 10.046875 16.421875 9.757812 16.226562 C 9.527344 16.078125 9.53125 16.070312 9.886719 15.671875 C 10.390625 15.109375 10.929688 15.113281 11.457031 15.679688 C 11.75 15.996094 11.835938 16.179688 11.835938 16.519531 C 11.835938 16.757812 11.914062 17.046875 12.007812 17.164062 C 12.109375 17.277344 12.15625 17.453125 12.125 17.554688 C 12.070312 17.695312 11.84375 17.734375 10.9375 17.734375 C 10.207031 17.734375 9.765625 17.683594 9.679688 17.59375 Z M 11.125 16.96875 C 11.125 16.90625 10.921875 16.835938 10.664062 16.820312 C 10.296875 16.789062 10.203125 16.820312 10.203125 16.96875 C 10.203125 17.121094 10.296875 17.152344 10.664062 17.125 C 10.921875 17.105469 11.125 17.035156 11.125 16.96875 Z M 11.160156 16.1875 C 11.398438 15.929688 11.296875 15.859375 10.695312 15.859375 C 10.246094 15.859375 10.09375 15.902344 10.09375 16.027344 C 10.09375 16.128906 10.234375 16.214844 10.445312 16.242188 C 10.640625 16.269531 10.851562 16.296875 10.914062 16.308594 C 10.976562 16.320312 11.085938 16.265625 11.160156 16.1875 Z M 5.210938 9.429688 C 4.832031 9.035156 4.769531 8.898438 4.769531 8.484375 C 4.769531 8.09375 4.726562 7.980469 4.550781 7.929688 C 4.277344 7.855469 4.257812 7.367188 4.523438 7.273438 C 4.628906 7.234375 4.796875 7.136719 4.898438 7.058594 C 5.046875 6.9375 5.117188 6.949219 5.28125 7.105469 C 5.386719 7.210938 5.695312 7.3125 5.964844 7.335938 C 6.367188 7.367188 6.453125 7.414062 6.453125 7.605469 C 6.453125 7.800781 6.363281 7.851562 5.910156 7.898438 L 5.367188 7.957031 L 5.335938 8.570312 L 5.300781 9.1875 L 5.890625 9.1875 C 6.335938 9.1875 6.5 9.140625 6.550781 9 C 6.601562 8.851562 6.703125 8.828125 6.984375 8.882812 C 7.328125 8.953125 7.351562 8.933594 7.417969 8.582031 C 7.472656 8.292969 7.4375 8.148438 7.257812 7.941406 C 7.007812 7.65625 7.042969 7.3125 7.328125 7.3125 C 7.574219 7.3125 8.246094 7.921875 8.246094 8.148438 C 8.246094 8.25 8.171875 8.40625 8.078125 8.488281 C 7.804688 8.734375 7.929688 9.117188 8.300781 9.1875 C 8.535156 9.230469 8.625 9.3125 8.625 9.480469 C 8.625 9.6875 8.542969 9.71875 7.910156 9.746094 C 7.367188 9.773438 7.160156 9.734375 7.054688 9.601562 C 6.867188 9.359375 6.703125 9.375 6.476562 9.65625 C 6.175781 10.035156 5.71875 9.953125 5.210938 9.429688 Z M 15.648438 9.726562 C 15.46875 9.496094 15.613281 8.976562 15.875 8.886719 C 16.023438 8.835938 16.140625 8.890625 16.25 9.058594 C 16.421875 9.320312 16.96875 9.390625 17.261719 9.195312 C 17.394531 9.101562 17.394531 9.058594 17.265625 8.890625 C 17.148438 8.742188 17.015625 8.714844 16.648438 8.773438 C 16.269531 8.835938 16.179688 8.8125 16.179688 8.667969 C 16.179688 8.570312 16.085938 8.421875 15.964844 8.339844 C 15.675781 8.148438 15.6875 8.0625 16.0625 7.65625 C 16.523438 7.160156 17.046875 7.179688 17.539062 7.714844 C 17.84375 8.039062 17.914062 8.203125 17.898438 8.550781 C 17.890625 8.835938 17.945312 9.035156 18.066406 9.125 C 18.164062 9.207031 18.246094 9.375 18.246094 9.507812 C 18.246094 9.789062 17.835938 9.882812 16.601562 9.886719 C 16.023438 9.890625 15.734375 9.839844 15.648438 9.726562 Z M 17.273438 8.179688 C 17.390625 8.03125 17.390625 7.976562 17.261719 7.890625 C 16.933594 7.667969 16.179688 7.796875 16.179688 8.078125 C 16.179688 8.390625 17.046875 8.476562 17.273438 8.179688 Z M 9.90625 9.359375 C 9.617188 9.03125 9.550781 8.867188 9.550781 8.4375 C 9.550781 8 9.605469 7.871094 9.886719 7.617188 C 10.070312 7.449219 10.339844 7.28125 10.484375 7.242188 C 10.84375 7.144531 11.289062 7.28125 11.289062 7.488281 C 11.289062 7.582031 11.414062 7.746094 11.5625 7.851562 C 12.257812 8.34375 11.585938 9.78125 10.671875 9.765625 C 10.351562 9.757812 10.179688 9.667969 9.90625 9.359375 Z M 11.289062 8.539062 L 11.289062 7.886719 L 10.148438 7.957031 L 10.085938 9.1875 L 11.289062 9.1875 Z M 13.140625 9.546875 C 13.078125 9.421875 13.03125 9.210938 13.03125 9.082031 C 13.03125 8.953125 12.929688 8.789062 12.8125 8.71875 C 12.695312 8.648438 12.59375 8.480469 12.59375 8.34375 C 12.59375 8.203125 12.515625 8 12.421875 7.882812 C 12.128906 7.539062 12.304688 7.3125 12.867188 7.3125 C 13.429688 7.3125 13.605469 7.539062 13.3125 7.882812 C 13.027344 8.226562 13.089844 8.6875 13.453125 8.886719 C 13.78125 9.070312 13.898438 9.03125 13.898438 8.738281 C 13.898438 8.640625 13.980469 8.464844 14.078125 8.34375 C 14.234375 8.160156 14.242188 8.09375 14.117188 7.835938 C 14.027344 7.65625 14.007812 7.503906 14.070312 7.445312 C 14.195312 7.320312 14.882812 7.210938 15.070312 7.28125 C 15.320312 7.375 15.207031 7.753906 14.824219 8.117188 C 14.617188 8.3125 14.445312 8.574219 14.445312 8.691406 C 14.445312 8.996094 13.75 9.773438 13.480469 9.773438 C 13.359375 9.773438 13.203125 9.671875 13.140625 9.546875 Z M 8.59375 7.929688 C 8.410156 7.894531 8.351562 7.8125 8.375 7.625 C 8.402344 7.429688 8.484375 7.375 8.734375 7.375 C 9.007812 7.375 9.0625 7.417969 9.0625 7.65625 C 9.0625 7.960938 8.980469 8.007812 8.59375 7.929688 Z M 8.59375 7.929688 "/>
<path style=" stroke:none;fill-rule:nonzero;fill:rgb(14.117647%,11.764706%,7.058824%);fill-opacity:1;" d="M 12.328125 18.5625 C 12.300781 18.515625 12.390625 18.296875 12.539062 18.089844 C 12.773438 17.746094 12.789062 17.628906 12.734375 16.875 C 12.703125 16.390625 12.609375 15.953125 12.515625 15.835938 C 12.359375 15.644531 12.40625 15.390625 12.59375 15.390625 C 12.648438 15.390625 12.867188 15.515625 13.078125 15.671875 L 13.460938 15.953125 L 13.242188 16.246094 C 12.8125 16.839844 13.027344 17.265625 13.765625 17.265625 C 14.40625 17.265625 14.328125 17.542969 13.675781 17.59375 C 13.117188 17.640625 12.976562 17.804688 13.195312 18.164062 C 13.351562 18.421875 13.25 18.640625 13.039062 18.5 C 12.984375 18.460938 12.8125 18.484375 12.664062 18.546875 C 12.507812 18.609375 12.359375 18.617188 12.328125 18.5625 Z M 7.8125 17.640625 C 7.21875 17.59375 7.023438 17.429688 7.386719 17.289062 C 7.75 17.148438 8.574219 17.25 8.574219 17.4375 C 8.574219 17.640625 8.40625 17.683594 7.8125 17.640625 Z M 9.796875 17.539062 C 9.632812 17.46875 9.617188 17.074219 9.773438 16.96875 C 9.839844 16.925781 9.980469 16.976562 10.089844 17.085938 C 10.226562 17.21875 10.4375 17.265625 10.765625 17.242188 C 11.152344 17.210938 11.234375 17.164062 11.234375 16.96875 C 11.234375 16.773438 11.152344 16.734375 10.710938 16.703125 C 10.050781 16.65625 10.070312 16.386719 10.738281 16.386719 C 11.050781 16.386719 11.242188 16.320312 11.335938 16.179688 C 11.574219 15.835938 11.726562 15.945312 11.726562 16.464844 C 11.726562 16.75 11.796875 17.039062 11.898438 17.160156 C 11.992188 17.273438 12.039062 17.421875 12 17.492188 C 11.929688 17.617188 10.066406 17.65625 9.796875 17.539062 Z M 6.664062 16.875 C 6.554688 16.574219 6.664062 16.039062 6.835938 16.003906 C 6.96875 15.976562 6.992188 16.066406 6.960938 16.441406 C 6.917969 16.945312 6.765625 17.164062 6.664062 16.875 Z M 14.441406 16.460938 C 14.441406 15.972656 14.472656 15.878906 14.609375 15.9375 C 14.816406 16.023438 14.789062 16.929688 14.578125 17 C 14.484375 17.039062 14.441406 16.878906 14.441406 16.460938 Z M 8.234375 15.90625 C 8.125 15.761719 7.972656 15.734375 7.585938 15.78125 C 7.121094 15.839844 7.078125 15.828125 7.132812 15.617188 C 7.179688 15.429688 7.28125 15.390625 7.804688 15.390625 C 8.445312 15.390625 8.679688 15.523438 8.679688 15.882812 C 8.679688 16.144531 8.429688 16.15625 8.234375 15.90625 Z M 9.769531 15.976562 C 9.769531 15.914062 9.820312 15.859375 9.875 15.859375 C 9.9375 15.859375 9.984375 15.914062 9.984375 15.976562 C 9.984375 16.039062 9.9375 16.09375 9.875 16.09375 C 9.820312 16.09375 9.769531 16.039062 9.769531 15.976562 Z M 10.203125 15.574219 C 10.203125 15.4375 10.320312 15.390625 10.703125 15.390625 C 11.34375 15.390625 11.304688 15.667969 10.65625 15.71875 C 10.304688 15.75 10.203125 15.714844 10.203125 15.574219 Z M 13.710938 15.59375 C 13.734375 15.515625 13.867188 15.449219 14.007812 15.449219 C 14.148438 15.449219 14.28125 15.515625 14.304688 15.59375 C 14.335938 15.695312 14.234375 15.742188 14.007812 15.742188 C 13.78125 15.742188 13.679688 15.695312 13.710938 15.59375 Z M 5.59375 9.617188 C 5.445312 9.5 5.421875 9.433594 5.523438 9.367188 C 5.71875 9.238281 6.421875 9.410156 6.371094 9.574219 C 6.308594 9.78125 5.835938 9.808594 5.59375 9.621094 Z M 15.882812 9.695312 C 15.738281 9.632812 15.695312 9.164062 15.820312 9.03125 C 15.859375 8.984375 16 9.0625 16.132812 9.195312 C 16.3125 9.375 16.484375 9.429688 16.835938 9.398438 C 17.773438 9.328125 17.632812 8.621094 16.679688 8.585938 L 16.234375 8.570312 L 16.765625 8.492188 C 17.082031 8.445312 17.351562 8.328125 17.4375 8.203125 C 17.625 7.929688 17.847656 8.085938 17.765625 8.429688 C 17.683594 8.789062 17.867188 9.304688 18.078125 9.304688 C 18.171875 9.304688 18.246094 9.375 18.246094 9.464844 C 18.246094 9.710938 16.34375 9.894531 15.882812 9.695312 Z M 7.210938 9.539062 C 7.171875 9.464844 7.015625 9.355469 6.859375 9.292969 C 6.65625 9.210938 6.613281 9.144531 6.703125 9.046875 C 6.792969 8.953125 6.867188 8.953125 6.992188 9.066406 C 7.214844 9.265625 7.445312 9.0625 7.546875 8.578125 C 7.601562 8.3125 7.558594 8.140625 7.382812 7.882812 C 7.179688 7.585938 7.171875 7.539062 7.324219 7.472656 C 7.433594 7.429688 7.617188 7.523438 7.820312 7.730469 C 8.179688 8.101562 8.210938 8.273438 7.96875 8.492188 C 7.875 8.574219 7.816406 8.773438 7.835938 8.945312 C 7.859375 9.171875 7.941406 9.257812 8.1875 9.304688 C 8.363281 9.335938 8.5 9.414062 8.484375 9.480469 C 8.460938 9.648438 7.304688 9.695312 7.210938 9.539062 Z M 10.28125 9.585938 C 10.101562 9.390625 10.234375 9.304688 10.703125 9.304688 C 11.050781 9.304688 11.1875 9.347656 11.15625 9.453125 C 11.105469 9.609375 10.40625 9.71875 10.28125 9.585938 Z M 13.210938 9.398438 C 13.121094 9.039062 13.28125 8.898438 13.5625 9.089844 C 13.847656 9.28125 13.8125 9.585938 13.503906 9.632812 C 13.34375 9.65625 13.257812 9.589844 13.210938 9.398438 Z M 4.9375 8.945312 C 4.90625 8.851562 4.871094 8.566406 4.851562 8.308594 C 4.828125 7.925781 4.78125 7.835938 4.578125 7.804688 C 4.28125 7.757812 4.25 7.429688 4.539062 7.429688 C 4.648438 7.429688 4.804688 7.351562 4.878906 7.25 C 5 7.09375 5.039062 7.09375 5.191406 7.242188 C 5.289062 7.335938 5.574219 7.429688 5.828125 7.453125 C 6.453125 7.5 6.421875 7.710938 5.773438 7.78125 L 5.257812 7.84375 L 5.222656 8.367188 C 5.1875 8.921875 5.03125 9.234375 4.9375 8.945312 Z M 9.703125 8.90625 C 9.605469 8.632812 9.703125 7.980469 9.851562 7.929688 C 9.945312 7.894531 9.984375 8.050781 9.984375 8.476562 C 9.984375 9.039062 9.832031 9.269531 9.703125 8.90625 Z M 11.417969 8.585938 C 11.4375 8.304688 11.5 8.085938 11.5625 8.105469 C 11.726562 8.148438 11.695312 8.984375 11.527344 9.042969 C 11.421875 9.082031 11.390625 8.964844 11.417969 8.585938 Z M 14.007812 8.777344 C 14.007812 8.578125 14.054688 8.484375 14.140625 8.515625 C 14.21875 8.539062 14.277344 8.660156 14.277344 8.777344 C 14.277344 8.898438 14.21875 9.015625 14.140625 9.039062 C 14.054688 9.070312 14.007812 8.976562 14.007812 8.777344 Z M 12.75 8.40625 C 12.710938 8.289062 12.648438 8.085938 12.601562 7.960938 C 12.453125 7.554688 12.476562 7.492188 12.78125 7.46875 C 13.296875 7.433594 13.390625 7.507812 13.195312 7.808594 C 13.105469 7.953125 13.03125 8.15625 13.03125 8.269531 C 13.03125 8.558594 12.820312 8.65625 12.75 8.40625 Z M 14.25 7.851562 C 14.097656 7.496094 14.164062 7.429688 14.679688 7.429688 C 15.140625 7.429688 15.222656 7.621094 14.894531 7.9375 C 14.617188 8.210938 14.386719 8.179688 14.25 7.851562 Z M 8.515625 7.664062 C 8.4375 7.523438 8.734375 7.382812 8.890625 7.484375 C 8.953125 7.527344 9.007812 7.609375 9.007812 7.671875 C 9.007812 7.820312 8.601562 7.8125 8.515625 7.664062 Z M 10.121094 7.636719 C 10.1875 7.421875 10.9375 7.242188 11.085938 7.398438 C 11.292969 7.625 11.078125 7.78125 10.570312 7.78125 C 10.222656 7.78125 10.089844 7.738281 10.121094 7.636719 Z M 16.34375 7.546875 C 16.382812 7.484375 16.578125 7.429688 16.78125 7.429688 C 16.980469 7.429688 17.175781 7.484375 17.210938 7.546875 C 17.253906 7.617188 17.085938 7.664062 16.78125 7.664062 C 16.46875 7.664062 16.304688 7.617188 16.34375 7.546875 Z M 16.34375 7.546875 "/>
</g>
</svg>
