
<svg xmlns="http://www.w3.org/2000/svg" xmlns:xlink="http://www.w3.org/1999/xlink" width="24px" height="24px" viewBox="0 0 24 24" version="1.1">
<g id="surface1">
<path style=" stroke:none;fill-rule:nonzero;fill:rgb(100%,49.803922%,31.372549%);fill-opacity:1;" d="M 21.527344 18.359375 C 30.15625 6.085938 14.21875 -6.351562 4.054688 3.648438 C -5.523438 13.070312 3.355469 27.710938 15.273438 23.136719 C 17.761719 22.179688 19.945312 20.613281 21.527344 18.359375 Z M 21.527344 18.359375 "/>
<path style=" stroke:none;fill-rule:nonzero;fill:rgb(100%,100%,100%);fill-opacity:1;" d="M 12.601562 13.59375 L 12.601562 15.046875 L 11.1875 15.046875 C 10.929688 15.046875 10.726562 15.289062 10.726562 15.582031 C 10.726562 15.878906 10.929688 16.117188 11.1875 16.117188 L 16.351562 16.117188 C 16.609375 16.117188 16.8125 15.878906 16.8125 15.582031 C 16.8125 15.289062 16.609375 15.046875 16.351562 15.046875 L 14.9375 15.046875 L 14.9375 13.59375 Z M 12.601562 13.59375 "/>
<path style=" stroke:none;fill-rule:nonzero;fill:rgb(100%,100%,100%);fill-opacity:1;" d="M 7.773438 5.039062 C 7.554688 5.039062 7.382812 5.242188 7.382812 5.492188 L 7.382812 13.691406 C 7.382812 13.941406 7.554688 14.140625 7.773438 14.140625 L 19.765625 14.140625 C 19.984375 14.140625 20.160156 13.941406 20.160156 13.691406 L 20.160156 5.492188 C 20.160156 5.242188 19.984375 5.039062 19.765625 5.039062 Z M 8.539062 6.234375 L 19 6.234375 L 19 12.945312 L 8.539062 12.945312 Z M 8.539062 6.234375 "/>
<path style=" stroke:none;fill-rule:nonzero;fill:rgb(100%,100%,100%);fill-opacity:1;" d="M 7.734375 17.699219 L 7.734375 18.859375 L 6.671875 18.859375 C 6.480469 18.859375 6.328125 19.046875 6.328125 19.28125 C 6.328125 19.515625 6.480469 19.707031 6.671875 19.707031 L 10.550781 19.707031 C 10.742188 19.707031 10.898438 19.515625 10.898438 19.28125 C 10.898438 19.046875 10.742188 18.859375 10.550781 18.859375 L 9.488281 18.859375 L 9.488281 17.699219 Z M 7.734375 17.699219 "/>
<path style=" stroke:none;fill-rule:nonzero;fill:rgb(100%,100%,100%);fill-opacity:1;" d="M 4.109375 10.898438 C 3.945312 10.898438 3.8125 11.0625 3.8125 11.257812 L 3.8125 17.78125 C 3.8125 17.976562 3.945312 18.136719 4.109375 18.136719 L 13.113281 18.136719 C 13.277344 18.136719 13.410156 17.976562 13.410156 17.78125 L 13.410156 11.257812 C 13.410156 11.0625 13.277344 10.898438 13.113281 10.898438 Z M 4.6875 11.851562 L 12.539062 11.851562 L 12.539062 17.1875 L 4.6875 17.1875 Z M 4.6875 11.851562 "/>
</g>
</svg>
