
<svg xmlns="http://www.w3.org/2000/svg" xmlns:xlink="http://www.w3.org/1999/xlink" width="24px" height="24px" viewBox="0 0 24 24" version="1.1">
<defs>
<clipPath id="clip1">
  <path d="M 7.5 6.5 L 15.5 6.5 L 15.5 19.5 L 7.5 19.5 Z M 7.5 6.5 "/>
</clipPath>
<clipPath id="clip2">
  <path d="M 2.898438 2.21875 L 20.191406 2.21875 C 21.195312 2.21875 22.011719 3.09375 22.011719 4.171875 L 22.011719 22.761719 C 22.011719 23.84375 21.195312 24.71875 20.191406 24.71875 L 2.898438 24.71875 C 1.890625 24.71875 1.078125 23.84375 1.078125 22.761719 L 1.078125 4.171875 C 1.078125 3.09375 1.890625 2.21875 2.898438 2.21875 Z M 2.898438 2.21875 "/>
</clipPath>
</defs>
<g id="surface1">
<path style=" stroke:none;fill-rule:nonzero;fill:rgb(41.176471%,47.058824%,59.215686%);fill-opacity:1;" d="M 0.773438 15.296875 C -3.703125 2.789062 12.398438 -3.289062 18.449219 1.800781 C 24.5 6.890625 26.566406 15.617188 19.710938 20.007812 C 12.859375 24.398438 5.257812 27.804688 0.773438 15.296875 Z M 0.773438 15.296875 "/>
<path style=" stroke:none;fill-rule:nonzero;fill:rgb(0%,0%,0%);fill-opacity:0.0196078;" d="M 13.46875 16.546875 L 13.46875 16.570312 C 13.46875 16.78125 13.636719 16.945312 13.84375 16.945312 L 17.40625 16.945312 C 17.617188 16.945312 17.78125 16.78125 17.78125 16.570312 L 17.78125 16.546875 C 17.78125 16.757812 17.617188 16.921875 17.40625 16.921875 L 13.84375 16.921875 C 13.636719 16.921875 13.46875 16.757812 13.46875 16.546875 Z M 13.46875 16.59375 L 13.46875 16.640625 C 13.46875 16.851562 13.636719 17.015625 13.84375 17.015625 L 17.40625 17.015625 C 17.617188 17.015625 17.78125 16.851562 17.78125 16.640625 L 17.78125 16.59375 C 17.78125 16.804688 17.617188 16.96875 17.40625 16.96875 L 13.84375 16.96875 C 13.636719 16.96875 13.46875 16.804688 13.46875 16.59375 Z M 13.46875 16.59375 "/>
<path style=" stroke:none;fill-rule:nonzero;fill:rgb(0%,0%,0%);fill-opacity:0.0509804;" d="M 13.46875 16.570312 L 13.46875 16.59375 C 13.46875 16.804688 13.636719 16.96875 13.84375 16.96875 L 17.40625 16.96875 C 17.617188 16.96875 17.78125 16.804688 17.78125 16.59375 L 17.78125 16.570312 C 17.78125 16.78125 17.617188 16.945312 17.40625 16.945312 L 13.84375 16.945312 C 13.636719 16.945312 13.46875 16.78125 13.46875 16.570312 Z M 13.46875 16.570312 "/>
<path style=" stroke:none;fill-rule:nonzero;fill:rgb(0%,0%,0%);fill-opacity:0.101961;" d="M 13.46875 16.546875 L 13.46875 16.570312 C 13.46875 16.78125 13.636719 16.945312 13.84375 16.945312 L 17.40625 16.945312 C 17.617188 16.945312 17.78125 16.78125 17.78125 16.570312 L 17.78125 16.546875 C 17.78125 16.757812 17.617188 16.921875 17.40625 16.921875 L 13.84375 16.921875 C 13.636719 16.921875 13.46875 16.757812 13.46875 16.546875 Z M 13.46875 16.546875 "/>
<g clip-path="url(#clip1)" clip-rule="nonzero">
<g clip-path="url(#clip2)" clip-rule="nonzero">
<path style=" stroke:none;fill-rule:nonzero;fill:rgb(100%,100%,100%);fill-opacity:1;" d="M 7.90625 9.554688 C 9.328125 9.453125 10.726562 9.214844 10.632812 6.621094 L 12 6.621094 L 12 9.554688 L 15.1875 9.554688 L 15.1875 12 L 12 12 L 12 15.644531 C 12.390625 18.015625 14.382812 17.171875 15.1875 16.335938 L 15.1875 18.351562 C 14.5625 18.882812 13.007812 19.28125 12 19.335938 C 10.265625 19.136719 8.902344 18.328125 8.8125 15.421875 L 8.8125 12 L 7.90625 12 M 7.90625 9.554688 "/>
</g>
</g>
</g>
</svg>
