
<svg xmlns="http://www.w3.org/2000/svg" xmlns:xlink="http://www.w3.org/1999/xlink" width="24px" height="24px" viewBox="0 0 24 24" version="1.1">
<g id="surface1">
<path style=" stroke:none;fill-rule:nonzero;fill:rgb(100%,100%,100%);fill-opacity:1;" d="M 9.210938 18.53125 C 8.742188 18.492188 8.144531 18.371094 7.617188 18.203125 C 6.988281 18.003906 6.09375 17.546875 5.90625 17.320312 L 5.824219 17.226562 L 6.320312 17.191406 C 6.59375 17.171875 6.882812 17.144531 6.96875 17.132812 C 7.894531 16.980469 8.597656 16.65625 9.210938 16.085938 C 9.457031 15.859375 9.5 15.75 9.351562 15.722656 C 9.304688 15.710938 9.179688 15.6875 9.078125 15.667969 C 8.398438 15.535156 7.6875 15.011719 7.328125 14.382812 C 7.199219 14.148438 7.027344 13.734375 7.054688 13.707031 C 7.0625 13.695312 7.148438 13.703125 7.25 13.726562 C 7.46875 13.773438 7.757812 13.75 7.976562 13.664062 C 8.210938 13.574219 8.195312 13.507812 7.921875 13.371094 C 6.90625 12.875 6.375 12.007812 6.253906 10.664062 C 6.242188 10.554688 6.242188 10.46875 6.253906 10.46875 C 6.265625 10.46875 6.417969 10.53125 6.597656 10.609375 C 6.84375 10.710938 6.96875 10.75 7.109375 10.75 C 7.375 10.757812 7.375 10.707031 7.109375 10.359375 C 6.359375 9.386719 6.136719 8.335938 6.417969 7.125 C 6.453125 6.960938 6.507812 6.761719 6.539062 6.679688 L 6.59375 6.53125 L 6.921875 6.9375 C 7.714844 7.914062 8.421875 8.566406 9.210938 9.046875 C 10.019531 9.535156 10.820312 9.796875 11.535156 9.8125 L 11.871094 9.816406 L 11.867188 9.714844 C 11.859375 9.660156 11.851562 9.46875 11.84375 9.292969 C 11.796875 8.488281 12.035156 7.585938 12.476562 6.917969 C 12.71875 6.539062 13.261719 6.148438 13.75 5.988281 C 14.28125 5.816406 14.992188 5.886719 15.453125 6.15625 C 15.707031 6.308594 15.855469 6.4375 16.09375 6.71875 L 16.289062 6.953125 L 16.484375 6.878906 C 16.960938 6.703125 17.375 6.484375 17.671875 6.25 L 17.777344 6.167969 L 17.761719 6.292969 C 17.75 6.363281 17.695312 6.546875 17.632812 6.703125 C 17.519531 6.988281 17.421875 7.132812 17.035156 7.582031 C 16.953125 7.679688 16.882812 7.78125 16.890625 7.796875 C 16.921875 7.914062 17.351562 7.820312 17.820312 7.601562 C 17.992188 7.523438 18.136719 7.460938 18.140625 7.46875 C 18.164062 7.492188 17.898438 7.921875 17.699219 8.1875 C 17.585938 8.335938 17.359375 8.601562 17.203125 8.78125 L 16.910156 9.101562 L 16.90625 9.492188 C 16.90625 11.804688 16.117188 14.175781 14.773438 15.898438 C 13.890625 17.035156 12.886719 17.792969 11.707031 18.21875 C 10.992188 18.472656 10.019531 18.59375 9.210938 18.53125 Z M 9.210938 18.53125 "/>
<path style=" stroke:none;fill-rule:nonzero;fill:rgb(100%,100%,100%);fill-opacity:1;" d="M 9.09375 18.519531 C 9.054688 18.511719 8.882812 18.5 8.742188 18.484375 C 8.164062 18.402344 7.367188 18.148438 6.828125 17.890625 C 6.617188 17.789062 6.335938 17.648438 6.128906 17.507812 C 5.851562 17.320312 5.703125 17.160156 5.933594 17.257812 C 6.347656 17.4375 7.257812 17.703125 7.796875 17.800781 C 8.304688 17.890625 9.367188 17.882812 9.871094 17.785156 C 11.445312 17.480469 12.671875 16.703125 13.792969 15.308594 C 14.382812 14.574219 14.804688 13.851562 15.175781 12.945312 C 15.632812 11.835938 15.867188 10.789062 15.960938 9.492188 C 16.054688 8.1875 15.765625 6.835938 15.253906 6.164062 C 15.210938 6.101562 15.144531 6.046875 15.15625 6.03125 C 15.179688 5.996094 15.554688 6.1875 15.757812 6.359375 C 15.859375 6.445312 16.015625 6.609375 16.105469 6.71875 C 16.207031 6.847656 16.289062 6.921875 16.328125 6.921875 C 16.507812 6.921875 17.378906 6.496094 17.6875 6.238281 L 17.773438 6.167969 L 17.765625 6.257812 C 17.710938 6.734375 17.515625 7.023438 17.171875 7.421875 C 17.015625 7.601562 16.882812 7.773438 16.890625 7.796875 C 16.921875 7.859375 16.964844 7.859375 17.179688 7.820312 C 17.375 7.789062 17.757812 7.640625 18.003906 7.507812 C 18.0625 7.476562 18.140625 7.460938 18.148438 7.46875 C 18.152344 7.476562 18.09375 7.585938 18.023438 7.703125 C 17.863281 7.980469 17.523438 8.484375 17.171875 8.808594 L 16.90625 9.101562 L 16.90625 9.53125 C 16.886719 11.390625 16.382812 13.347656 15.433594 14.929688 C 14.273438 16.867188 12.6875 18.113281 10.8125 18.449219 C 10.542969 18.496094 9.28125 18.550781 9.09375 18.519531 Z M 9.09375 18.519531 "/>
<path style=" stroke:none;fill-rule:nonzero;fill:rgb(0%,74.901961%,100%);fill-opacity:1;" d="M 11.578125 23.875 C 5.828125 23.25 0.53125 18.976562 0.0546875 13.082031 C -0.046875 11.890625 -0.0273438 9.851562 0.289062 8.8125 C 1.238281 5.671875 3.441406 3 6.257812 1.574219 C 7.957031 0.710938 9.796875 0.300781 11.429688 0.417969 C 17.15625 0.828125 22.378906 5.578125 23.773438 11.644531 C 24.027344 12.742188 24.078125 14.820312 23.875 15.835938 C 23.0625 19.9375 19.703125 23.179688 15.523438 23.898438 C 14.507812 24.070312 12.648438 23.992188 11.574219 23.875 Z M 11.796875 18.058594 C 14.234375 17.15625 16.078125 14.660156 16.703125 11.40625 C 16.789062 10.976562 16.859375 10.34375 16.859375 10 C 16.859375 9.300781 16.890625 9.226562 17.601562 8.320312 C 18.242188 7.5 18.25 7.390625 17.621094 7.632812 C 17.355469 7.734375 17.09375 7.820312 17.039062 7.820312 C 16.984375 7.820312 17.09375 7.609375 17.285156 7.351562 C 17.476562 7.09375 17.664062 6.726562 17.695312 6.539062 L 17.75 6.191406 L 17.125 6.53125 C 16.78125 6.722656 16.445312 6.875 16.378906 6.875 C 16.3125 6.875 16.070312 6.710938 15.84375 6.507812 C 14.96875 5.710938 13.628906 5.761719 12.726562 6.621094 C 12.15625 7.164062 11.765625 8.273438 11.765625 9.34375 L 11.765625 9.8125 L 11.3125 9.746094 C 10.671875 9.65625 9.902344 9.382812 9.28125 9.023438 C 8.769531 8.722656 7.457031 7.53125 6.929688 6.886719 C 6.78125 6.703125 6.632812 6.601562 6.585938 6.648438 C 6.484375 6.753906 6.296875 7.738281 6.296875 8.164062 C 6.296875 8.75 6.5 9.410156 6.867188 10.003906 C 7.070312 10.332031 7.191406 10.617188 7.140625 10.632812 C 7.085938 10.65625 6.875 10.617188 6.664062 10.546875 C 6.460938 10.484375 6.273438 10.445312 6.253906 10.46875 C 6.148438 10.570312 6.476562 11.78125 6.726562 12.234375 C 6.972656 12.679688 7.148438 12.84375 7.90625 13.351562 C 8.144531 13.507812 7.992188 13.601562 7.496094 13.59375 C 7 13.585938 6.984375 13.632812 7.261719 14.199219 C 7.535156 14.75 8.222656 15.324219 8.84375 15.515625 C 9.460938 15.707031 9.445312 15.796875 8.695312 16.289062 C 8.113281 16.671875 7.328125 16.914062 6.359375 17.015625 C 5.722656 17.082031 5.734375 17.164062 6.433594 17.570312 C 7.921875 18.425781 10.230469 18.636719 11.796875 18.058594 Z M 11.796875 18.058594 "/>
</g>
</svg>
