
<svg xmlns="http://www.w3.org/2000/svg" xmlns:xlink="http://www.w3.org/1999/xlink" width="24px" height="24px" viewBox="0 0 24 24" version="1.1">
<g id="surface1">
<path style=" stroke:none;fill-rule:nonzero;fill:rgb(83.921569%,30.588235%,30.196078%);fill-opacity:1;" d="M 14.722656 23.585938 C 37.023438 18.941406 13.085938 -13.007812 1.75 6.183594 C -3.109375 13.640625 3.253906 25.976562 14.722656 23.585938 Z M 14.722656 23.585938 "/>
<path style=" stroke:none;fill-rule:nonzero;fill:rgb(100%,100%,100%);fill-opacity:0.968627;" d="M 12.007812 18.613281 C 10.867188 18.03125 9.242188 15.914062 8.347656 13.835938 C 6.988281 10.671875 7.132812 10.921875 6.382812 10.460938 C 6 10.222656 5.484375 9.8125 5.242188 9.546875 C 4.875 9.148438 4.796875 8.953125 4.796875 8.445312 C 4.796875 6.898438 6.273438 5.996094 7.65625 6.699219 C 8.695312 7.226562 9.210938 8.9375 8.609375 9.882812 C 8.230469 10.480469 8.265625 10.859375 8.828125 12.3125 C 9.976562 15.273438 11.554688 17.5625 12.453125 17.5625 C 13.078125 17.5625 13.796875 16.789062 14.253906 15.601562 C 14.945312 13.820312 15.390625 13.382812 16.503906 13.382812 C 17.613281 13.382812 18.65625 14.03125 19.5 15.242188 C 20.023438 15.996094 20.25 16.910156 19.910156 16.910156 C 19.835938 16.910156 19.398438 16.46875 18.941406 15.933594 C 18.101562 14.949219 17.109375 14.304688 16.75 14.5 C 16.234375 14.78125 15.914062 15.242188 15.46875 16.351562 C 14.898438 17.765625 14.5 18.285156 13.71875 18.625 C 13.027344 18.925781 12.617188 18.921875 12.007812 18.613281 Z M 12.007812 18.613281 "/>
</g>
</svg>
