
<svg xmlns="http://www.w3.org/2000/svg" xmlns:xlink="http://www.w3.org/1999/xlink" width="24px" height="24px" viewBox="0 0 24 24" version="1.1">
<g id="surface1">
<path style=" stroke:none;fill-rule:nonzero;fill:rgb(28.235294%,23.921569%,54.509804%);fill-opacity:1;" d="M 23.09375 12.671875 C 9.054688 44.929688 -15.964844 -2.394531 15.300781 0.289062 C 20.007812 0.917969 25.648438 6.90625 23.09375 12.671875 Z M 23.09375 12.671875 "/>
<path style=" stroke:none;fill-rule:nonzero;fill:rgb(100%,100%,100%);fill-opacity:1;" d="M 7.496094 8.179688 C 6.433594 8.179688 5.578125 9.023438 5.578125 10.070312 L 5.578125 12.964844 C 5.578125 14.007812 6.433594 14.851562 7.496094 14.851562 L 8.164062 14.851562 L 8.164062 13.523438 C 8.164062 12.921875 8.664062 12.429688 9.273438 12.429688 L 14.164062 12.429688 C 14.773438 12.429688 15.273438 12.921875 15.273438 13.523438 L 15.273438 14.851562 L 15.945312 14.851562 C 17.003906 14.851562 17.859375 14.007812 17.859375 12.964844 L 17.859375 10.070312 C 17.859375 9.023438 17.003906 8.179688 15.945312 8.179688 L 14.699219 8.179688 L 14.699219 8.660156 C 14.699219 9.09375 14.34375 9.441406 13.90625 9.441406 L 9.53125 9.441406 C 9.09375 9.441406 8.738281 9.09375 8.738281 8.660156 L 8.738281 8.179688 Z M 7.496094 8.179688 "/>
<path style=" stroke:none;fill-rule:nonzero;fill:rgb(100%,100%,100%);fill-opacity:1;" d="M 9.53125 12.996094 L 13.90625 12.996094 C 14.34375 12.996094 14.703125 13.351562 14.703125 13.789062 L 14.703125 16.648438 C 14.703125 17.085938 14.34375 17.445312 13.90625 17.445312 L 9.53125 17.445312 C 9.09375 17.445312 8.734375 17.085938 8.734375 16.648438 L 8.734375 13.789062 C 8.734375 13.351562 9.09375 12.996094 9.53125 12.996094 Z M 9.53125 12.996094 "/>
<path style=" stroke:none;fill-rule:nonzero;fill:rgb(69.019608%,76.862745%,87.058824%);fill-opacity:1;" d="M 9.851562 4.9375 L 13.582031 4.9375 C 13.957031 4.9375 14.257812 5.238281 14.257812 5.609375 L 14.257812 8.050781 C 14.257812 8.421875 13.957031 8.726562 13.582031 8.726562 L 9.851562 8.726562 C 9.480469 8.726562 9.179688 8.421875 9.179688 8.050781 L 9.179688 5.609375 C 9.179688 5.238281 9.480469 4.9375 9.851562 4.9375 Z M 9.851562 4.9375 "/>
</g>
</svg>
