
<svg xmlns="http://www.w3.org/2000/svg" xmlns:xlink="http://www.w3.org/1999/xlink" width="24px" height="24px" viewBox="0 0 24 24" version="1.1">
<g id="surface1">
<path style=" stroke:none;fill-rule:nonzero;fill:rgb(19.607843%,80.392157%,19.607843%);fill-opacity:1;" d="M 18.875 21.175781 C 1.15625 32.96875 -9.855469 -4.050781 13.046875 0.929688 C 23.390625 1.195312 28.359375 15.769531 18.875 21.175781 Z M 18.875 21.175781 "/>
<path style=" stroke:none;fill-rule:nonzero;fill:rgb(100%,100%,100%);fill-opacity:1;" d="M 8.074219 7.355469 C 8.074219 7.355469 8.554688 7.082031 10.46875 7.058594 C 11.078125 7.050781 12.46875 7.101562 13.84375 7.164062 C 15.917969 7.523438 16.164062 7.65625 16.164062 7.65625 C 16.234375 7.648438 17.1875 9.960938 17.210938 10.035156 L 17.464844 9.6875 L 17.476562 8.945312 L 18.15625 8.890625 L 18.90625 8.902344 L 19.070312 9.195312 L 18.894531 9.703125 L 18.359375 9.867188 L 17.667969 10.039062 L 17.519531 10.257812 L 18.125 10.679688 L 18.414062 11.179688 L 18.484375 15.195312 L 18.351562 15.59375 C 18.328125 15.664062 17.652344 15.613281 17.578125 15.617188 L 16 15.546875 L 15.644531 15.382812 L 11.757812 15.445312 L 8.289062 15.078125 L 7.96875 15.242188 L 6.050781 15.1875 L 5.453125 15.125 C 5.382812 15.117188 5.257812 14.578125 5.28125 14.503906 L 5.449219 11.988281 L 5.609375 10.671875 L 6.125 10.066406 C 6.191406 9.996094 6.675781 9.890625 6.542969 9.765625 C 6.394531 9.625 5.109375 9.140625 5.109375 9.140625 C 5.179688 9 4.945312 8.335938 5.34375 8.429688 C 5.519531 8.46875 6.21875 8.296875 6.546875 8.574219 C 6.707031 8.710938 6.636719 9.054688 6.671875 9.265625 C 6.710938 9.492188 6.851562 9.582031 6.859375 9.585938 C 6.933594 9.585938 8.003906 7.363281 8.074219 7.355469 Z M 8.074219 7.355469 "/>
<path style=" stroke:none;fill-rule:nonzero;fill:rgb(78.823529%,100%,100%);fill-opacity:1;" d="M 15.089844 12.304688 C 15.078125 12.757812 15.835938 12.9375 16.613281 12.960938 C 17.386719 12.988281 17.832031 11.855469 17.84375 11.398438 C 17.855469 10.945312 17.390625 11.28125 16.648438 11.539062 C 15.929688 11.78125 15.101562 11.851562 15.089844 12.304688 Z M 15.089844 12.304688 "/>
<path style=" stroke:none;fill-rule:nonzero;fill:rgb(78.823529%,100%,100%);fill-opacity:1;" d="M 8.796875 12.132812 C 8.789062 12.589844 8.015625 12.710938 7.242188 12.679688 C 6.46875 12.65625 6.085938 11.492188 6.097656 11.039062 C 6.109375 10.582031 6.554688 10.953125 7.28125 11.257812 C 7.988281 11.554688 8.8125 11.679688 8.796875 12.132812 Z M 8.796875 12.132812 "/>
<path style=" stroke:none;fill-rule:nonzero;fill:rgb(100%,18.823529%,0%);fill-opacity:1;" d="M 7.328125 14.09375 C 7.335938 13.796875 7.117188 13.546875 6.84375 13.535156 C 6.570312 13.523438 6.34375 13.757812 6.335938 14.0625 C 6.328125 14.359375 6.542969 14.609375 6.816406 14.621094 C 7.089844 14.632812 7.320312 14.394531 7.328125 14.09375 Z M 7.328125 14.09375 "/>
<path style=" stroke:none;fill-rule:nonzero;fill:rgb(100%,18.823529%,0%);fill-opacity:1;" d="M 17.492188 14.453125 C 17.5 14.152344 17.289062 13.902344 17.015625 13.890625 C 16.742188 13.882812 16.511719 14.117188 16.503906 14.417969 C 16.496094 14.71875 16.710938 14.96875 16.984375 14.976562 C 17.257812 14.988281 17.484375 14.753906 17.492188 14.453125 Z M 17.492188 14.453125 "/>
<path style=" stroke:none;fill-rule:nonzero;fill:rgb(6.666667%,6.666667%,6.666667%);fill-opacity:1;" d="M 18.164062 15.554688 L 16.507812 15.539062 L 15.523438 15.398438 C 15.453125 15.386719 15.515625 15.527344 15.511719 15.609375 L 15.492188 16.28125 C 15.492188 16.359375 15.546875 16.425781 15.617188 16.429688 L 18.140625 16.515625 C 18.210938 16.519531 18.273438 16.457031 18.273438 16.378906 L 18.289062 15.703125 C 18.292969 15.625 18.238281 15.5625 18.164062 15.558594 Z M 18.164062 15.554688 "/>
<path style=" stroke:none;fill-rule:nonzero;fill:rgb(6.666667%,6.666667%,6.666667%);fill-opacity:1;" d="M 5.6875 15.117188 L 7.34375 15.21875 L 8.335938 15.144531 C 8.40625 15.140625 8.335938 15.273438 8.335938 15.355469 L 8.316406 16.03125 C 8.3125 16.109375 8.257812 16.171875 8.183594 16.164062 L 5.664062 16.078125 C 5.59375 16.074219 5.535156 16.007812 5.539062 15.929688 L 5.554688 15.257812 C 5.554688 15.179688 5.617188 15.117188 5.6875 15.117188 Z M 5.6875 15.117188 "/>
<path style=" stroke:none;fill-rule:nonzero;fill:rgb(6.666667%,6.666667%,6.666667%);fill-opacity:1;" d="M 8.4375 13.289062 L 15.359375 13.53125 C 15.433594 13.53125 15.488281 13.601562 15.484375 13.679688 L 15.460938 14.699219 C 15.457031 14.78125 15.398438 14.839844 15.328125 14.835938 L 11.789062 14.96875 L 8.40625 14.59375 C 8.335938 14.585938 8.28125 14.523438 8.28125 14.445312 L 8.304688 13.425781 C 8.3125 13.34375 8.367188 13.285156 8.4375 13.289062 Z M 8.4375 13.289062 "/>
<path style=" stroke:none;fill-rule:nonzero;fill:rgb(41.568627%,41.568627%,41.568627%);fill-opacity:1;" d="M 9.296875 11.992188 L 11.847656 12.242188 L 14.574219 12.15625 C 14.648438 12.15625 14.765625 12.375 14.804688 12.445312 L 14.992188 12.8125 C 15.027344 12.882812 15.144531 12.960938 15.070312 12.957031 L 8.945312 12.742188 C 8.871094 12.738281 8.773438 12.65625 8.820312 12.59375 L 9.117188 12.195312 C 9.164062 12.132812 9.226562 11.988281 9.296875 11.992188 Z M 9.296875 11.992188 "/>
<path style=" stroke:none;fill-rule:nonzero;fill:rgb(0%,0%,0%);fill-opacity:1;" d="M 8.363281 7.652344 C 8.363281 7.652344 9.710938 7.300781 11.933594 7.398438 C 14.15625 7.492188 15.71875 7.859375 15.71875 7.859375 C 15.789062 7.867188 16.015625 8.085938 16.046875 8.160156 L 16.75 9.789062 C 16.78125 9.859375 16.851562 10.023438 16.851562 10.023438 L 7.347656 9.78125 C 7.273438 9.777344 7.160156 9.667969 7.195312 9.601562 L 8.03125 8.023438 C 8.066406 7.953125 8.289062 7.648438 8.363281 7.652344 Z M 8.363281 7.652344 "/>
</g>
</svg>
