
<svg xmlns="http://www.w3.org/2000/svg" xmlns:xlink="http://www.w3.org/1999/xlink" width="24px" height="24px" viewBox="0 0 24 24" version="1.1">
<g id="surface1">
<path style=" stroke:none;fill-rule:nonzero;fill:rgb(100%,27.058824%,0%);fill-opacity:1;" d="M 15.851562 15.53125 C 15.851562 14.386719 14.929688 13.460938 13.792969 13.460938 C 12.65625 13.460938 11.734375 14.390625 11.734375 15.53125 C 11.734375 16.679688 12.65625 17.609375 13.792969 17.609375 C 14.929688 17.609375 15.851562 16.679688 15.851562 15.53125 Z M 15.851562 15.53125 "/>
<path style=" stroke:none;fill-rule:nonzero;fill:rgb(100%,27.058824%,0%);fill-opacity:1;" d="M 16.09375 8.25 C 16.09375 7.101562 15.171875 6.171875 14.039062 6.171875 C 12.898438 6.171875 11.980469 7.101562 11.980469 8.25 C 11.980469 9.390625 12.902344 10.320312 14.039062 10.320312 C 15.171875 10.320312 16.09375 9.390625 16.09375 8.25 Z M 16.09375 8.25 "/>
<path style=" stroke:none;fill-rule:nonzero;fill:rgb(100%,27.058824%,0%);fill-opacity:1;" d="M 8.207031 12.234375 C 8.207031 11.085938 7.285156 10.15625 6.148438 10.15625 C 5.015625 10.15625 4.09375 11.085938 4.09375 12.234375 C 4.09375 13.378906 5.015625 14.304688 6.148438 14.304688 C 7.285156 14.304688 8.207031 13.378906 8.207031 12.234375 Z M 8.207031 12.234375 "/>
<path style=" stroke:none;fill-rule:nonzero;fill:rgb(59.607843%,0.392157%,0.392157%);fill-opacity:1;" d="M 2.515625 18.914062 C -9.328125 1.09375 28.4375 -9.886719 23.4375 13.15625 C 21.308594 22.679688 7.945312 28.453125 2.515625 18.914062 Z M 2.515625 18.914062 "/>
<path style=" stroke:none;fill-rule:evenodd;fill:rgb(100%,100%,100%);fill-opacity:1;" d="M 5.601562 13.601562 C 4.40625 10.769531 3.976562 9.644531 4.039062 9.492188 C 4.125 9.257812 5.4375 9.265625 5.648438 9.5 C 5.734375 9.59375 6.011719 10.1875 6.269531 10.816406 C 6.53125 11.445312 6.804688 12.085938 6.882812 12.238281 L 7.03125 12.515625 L 7.242188 12.09375 C 7.359375 11.863281 7.644531 11.226562 7.875 10.679688 C 8.425781 9.359375 8.453125 9.335938 9.242188 9.335938 C 9.679688 9.335938 9.917969 9.378906 9.996094 9.472656 C 10.085938 9.582031 9.898438 10.140625 9.046875 12.28125 L 7.976562 14.949219 L 7.671875 14.949219 C 7.503906 14.949219 7.109375 14.976562 6.796875 15.007812 L 6.226562 15.070312 Z M 5.601562 13.601562 "/>
<path style=" stroke:none;fill-rule:evenodd;fill:rgb(100%,100%,100%);fill-opacity:1;" d="M 9.644531 14.976562 C 9.421875 14.945312 9.335938 14.890625 9.335938 14.761719 C 9.335938 14.601562 9.976562 12.957031 10.964844 10.585938 C 11.476562 9.355469 11.5 9.335938 12.335938 9.335938 C 12.859375 9.335938 13.070312 9.375 13.214844 9.5 C 13.320312 9.59375 13.648438 10.304688 13.949219 11.078125 C 14.273438 11.914062 14.539062 12.46875 14.601562 12.449219 C 14.664062 12.429688 14.953125 11.828125 15.246094 11.117188 C 16.019531 9.234375 15.9375 9.320312 16.882812 9.355469 L 17.65625 9.382812 L 17.875 9.773438 C 18.265625 10.484375 20 14.703125 19.949219 14.832031 C 19.914062 14.925781 19.6875 14.953125 19.078125 14.929688 L 18.25 14.902344 L 17.585938 13.351562 C 17.222656 12.5 16.882812 11.8125 16.835938 11.828125 C 16.789062 11.84375 16.484375 12.523438 16.160156 13.332031 C 15.476562 15.027344 15.4375 15.070312 14.488281 15.019531 C 13.738281 14.976562 13.703125 14.9375 13.042969 13.332031 C 12.773438 12.679688 12.496094 12.082031 12.421875 12.007812 C 12.273438 11.851562 12.320312 11.769531 11.476562 13.792969 C 11.226562 14.382812 10.976562 14.882812 10.917969 14.902344 C 10.703125 14.96875 9.945312 15.007812 9.644531 14.976562 Z M 9.644531 14.976562 "/>
</g>
</svg>
