
<svg xmlns="http://www.w3.org/2000/svg" xmlns:xlink="http://www.w3.org/1999/xlink" width="24px" height="24px" viewBox="0 0 24 24" version="1.1">
<defs>
<filter id="alpha" filterUnits="objectBoundingBox" x="0%" y="0%" width="100%" height="100%">
  <feColorMatrix type="matrix" in="SourceGraphic" values="0 0 0 0 1 0 0 0 0 1 0 0 0 0 1 0 0 0 1 0"/>
</filter>
<mask id="mask0">
  <g filter="url(#alpha)">
<rect x="0" y="0" width="24" height="24" style="fill:rgb(0%,0%,0%);fill-opacity:0.54902;stroke:none;"/>
  </g>
</mask>
<clipPath id="clip1">
  <rect width="24" height="24"/>
</clipPath>
<g id="surface6" clip-path="url(#clip1)">
<path style="fill-rule:evenodd;fill:rgb(100%,100%,100%);fill-opacity:1;stroke-width:1.100796;stroke-linecap:butt;stroke-linejoin:miter;stroke:rgb(100%,100%,100%);stroke-opacity:1;stroke-miterlimit:4;" d="M 120.208333 990.36 C 112.416667 988.735 102.125 984.693333 97.208333 981.36 C 94.458333 979.526667 93.125 979.651667 85.041667 982.693333 C 78.833333 985.026667 56.791667 981.443333 56.791667 978.068333 C 56.791667 977.776667 59.25 975.11 62.25 972.151667 C 65.375 969.11 68.75 964.61 70.083333 961.693333 L 72.458333 956.568333 L 70.458333 951.901667 C 63.25 935.318333 63.833333 914.651667 72.041667 896.235 C 75.875 887.651667 85.708333 876.526667 95.833333 869.276667 C 100.375 866.026667 111.916667 861.276667 119.25 859.651667 C 127.458333 857.818333 142.041667 858.068333 150.25 860.151667 C 173 865.985 190.875 882.651667 198.583333 905.235 C 202.125 915.61 202.125 934.318333 198.583333 944.86 C 196.541667 950.943333 191.625 960.86 189.583333 963.068333 C 188.708333 964.026667 186.958333 966.193333 185.791667 967.901667 C 183.166667 971.526667 169.833333 982.36 166.291667 983.693333 C 164.916667 984.193333 161.625 985.61 158.958333 986.86 C 152.958333 989.61 140.166667 992.193333 133.208333 992.068333 C 130.333333 992.026667 124.458333 991.235 120.208333 990.36 Z M 152.166667 979.735 C 170.708333 973.36 185.458333 957.901667 189.833333 940.318333 C 191.833333 932.276667 191.833333 917.901667 189.875 910.401667 C 184.916667 891.401667 170.458333 876.443333 151.291667 870.485 C 137.583333 866.235 116.458333 868.235 106.041667 874.735 C 104 876.026667 102 877.068333 101.583333 877.068333 C 101.166667 877.068333 98.333333 879.276667 95.208333 881.985 C 88.583333 887.776667 83.125 895.485 80.041667 903.443333 C 78.833333 906.61 77.333333 910.235 76.75 911.485 C 76.125 912.776667 75.666667 918.693333 75.666667 924.943333 C 75.708333 934.526667 76.083333 937.026667 78.291667 943.068333 C 81.916667 953.026667 86.291667 959.776667 93.625 966.651667 C 101.958333 974.443333 110.5 978.776667 124.083333 982.026667 C 128.666667 983.11 146.5 981.651667 152.166667 979.735 Z M 152.166667 979.735 " transform="matrix(0.09375,0,0,0.09375,0,-74.65875)"/>
</g>
</defs>
<g id="surface1">
<path style=" stroke:none;fill-rule:nonzero;fill:rgb(30.196078%,62.352941%,98.431373%);fill-opacity:1;" d="M 2.339844 18.992188 C -9.65625 1.101562 28.601562 -9.914062 23.535156 13.210938 C 21.378906 22.769531 7.84375 28.570312 2.339844 18.992188 Z M 2.339844 18.992188 "/>
<use xlink:href="#surface6" mask="url(#mask0)"/>
<path style="fill-rule:evenodd;fill:rgb(100%,100%,100%);fill-opacity:1;stroke-width:1.100557;stroke-linecap:butt;stroke-linejoin:miter;stroke:rgb(100%,100%,100%);stroke-opacity:1;stroke-miterlimit:4;" d="M 114.375 985.235 C 106.5 983.61 96.166667 979.651667 91.208333 976.318333 C 88.416667 974.485 87.083333 974.651667 78.958333 977.651667 C 72.666667 979.985 50.458333 976.401667 50.458333 973.068333 C 50.458333 972.735 52.958333 970.11 55.958333 967.193333 C 59.125 964.151667 62.5 959.693333 63.875 956.818333 L 66.25 951.735 L 64.208333 947.11 C 56.958333 930.651667 57.583333 910.151667 65.833333 891.86 C 69.708333 883.36 79.583333 872.318333 89.833333 865.11 C 94.375 861.86 106 857.151667 113.375 855.526667 C 121.625 853.735 136.333333 853.943333 144.583333 856.068333 C 167.541667 861.86 185.5 878.36 193.291667 900.776667 C 196.875 911.068333 196.875 929.651667 193.291667 940.068333 C 191.25 946.11 186.291667 955.943333 184.25 958.151667 C 183.333333 959.11 181.625 961.276667 180.416667 962.943333 C 177.791667 966.568333 164.333333 977.318333 160.791667 978.61 C 159.375 979.11 156.083333 980.526667 153.375 981.735 C 147.333333 984.485 134.458333 987.068333 127.416667 986.943333 C 124.541667 986.901667 118.666667 986.151667 114.375 985.235 Z M 146.541667 974.693333 C 165.208333 968.401667 180.083333 953.068333 184.5 935.568333 C 186.5 927.61 186.5 913.36 184.541667 905.901667 C 179.541667 887.026667 164.958333 872.193333 145.666667 866.318333 C 131.833333 862.068333 110.583333 864.026667 100.083333 870.526667 C 98.041667 871.776667 96 872.818333 95.583333 872.818333 C 95.166667 872.818333 92.291667 875.026667 89.208333 877.693333 C 82.5 883.443333 77 891.11 73.916667 898.985 C 72.666667 902.11 71.166667 905.735 70.583333 906.985 C 69.958333 908.276667 69.5 914.11 69.5 920.318333 C 69.541667 929.818333 69.875 932.318333 72.125 938.318333 C 75.791667 948.235 80.208333 954.901667 87.583333 961.735 C 95.958333 969.443333 104.583333 973.735 118.25 976.985 C 122.875 978.068333 140.833333 976.61 146.541667 974.693333 Z M 146.541667 974.693333 " transform="matrix(0.09375,0,0,0.09375,0,-74.65875)"/>
</g>
</svg>
