
<svg xmlns="http://www.w3.org/2000/svg" xmlns:xlink="http://www.w3.org/1999/xlink" width="24px" height="24px" viewBox="0 0 24 24" version="1.1">
<g id="surface1">
<path style=" stroke:none;fill-rule:nonzero;fill:rgb(56.078431%,73.72549%,56.078431%);fill-opacity:1;" d="M 2.339844 19.054688 C -9.65625 1.007812 28.601562 -10.101562 23.535156 13.21875 C 21.375 22.859375 7.84375 28.710938 2.339844 19.054688 Z M 2.339844 19.054688 "/>
<path style=" stroke:none;fill-rule:nonzero;fill:rgb(97.647059%,97.647059%,97.254902%);fill-opacity:1;" d="M 5.140625 11.898438 L 5.140625 5.753906 L 18.960938 5.753906 L 18.960938 18.042969 L 5.140625 18.042969 Z M 5.140625 11.898438 "/>
<path style=" stroke:none;fill-rule:nonzero;fill:rgb(34.901961%,52.941176%,62.352941%);fill-opacity:1;" d="M 10.453125 15.933594 L 10.453125 13.820312 L 9.414062 12.894531 L 8.246094 11.859375 L 8.445312 11.679688 L 9.640625 12.742188 L 10.714844 13.703125 L 10.726562 15.871094 L 10.734375 18.042969 L 10.453125 18.042969 L 10.453125 15.929688 Z M 11.773438 15.332031 L 11.773438 12.621094 C 6.59375 7.914062 6.578125 7.992188 12.027344 12.46875 C 12.039062 12.46875 12.050781 10.960938 12.050781 9.113281 L 12.050781 5.753906 L 18.960938 5.753906 L 18.960938 18.042969 L 11.773438 18.042969 Z M 11.773438 15.332031 "/>
<path style=" stroke:none;fill-rule:nonzero;fill:rgb(82.352941%,29.803922%,36.470588%);fill-opacity:1;" d="M 11.773438 15.332031 L 11.773438 12.621094 L 10.070312 11.109375 L 8.246094 9.484375 L 8.445312 9.304688 L 10.289062 10.945312 C 11.230469 11.78125 12.015625 12.472656 12.027344 12.472656 C 12.039062 12.472656 12.050781 10.960938 12.050781 9.113281 L 12.050781 5.753906 L 18.960938 5.753906 L 18.960938 18.042969 L 14.199219 18.042969 L 14.199219 14.773438 L 14.289062 14.546875 C 14.335938 14.421875 14.40625 14.265625 14.4375 14.203125 C 14.519531 14.066406 15.734375 12.992188 15.921875 12.898438 C 16.148438 12.78125 16.4375 12.699219 16.78125 12.648438 C 17.179688 12.59375 17.195312 12.589844 17.21875 12.53125 C 17.226562 12.507812 17.292969 12.34375 17.367188 12.171875 L 17.492188 11.859375 L 17.5 11.40625 L 17.5 10.957031 L 17.359375 10.601562 C 17.285156 10.40625 17.203125 10.238281 17.171875 10.222656 C 17.132812 10.203125 17.019531 10.210938 16.777344 10.242188 C 16.429688 10.292969 16.078125 10.40625 15.835938 10.539062 C 15.773438 10.578125 15.132812 11.136719 14.414062 11.78125 L 13.101562 12.949219 L 12.992188 13.1875 C 12.933594 13.320312 12.867188 13.496094 12.851562 13.585938 C 12.828125 13.695312 12.820312 14.402344 12.824219 15.890625 L 12.835938 18.042969 L 11.773438 18.042969 Z M 11.773438 15.332031 "/>
<path style=" stroke:none;fill-rule:nonzero;fill:rgb(44.313725%,80.392157%,23.529412%);fill-opacity:1;" d="M 9.101562 16.519531 L 9.101562 14.996094 L 8.734375 14.671875 L 8.25 14.234375 L 8.449219 14.054688 L 8.976562 14.53125 L 9.382812 14.890625 L 9.382812 18.042969 L 9.101562 18.042969 Z M 14.199219 16.40625 L 14.199219 14.773438 L 14.289062 14.546875 C 14.335938 14.417969 14.40625 14.265625 14.4375 14.203125 C 14.519531 14.066406 15.734375 12.992188 15.921875 12.898438 C 16.148438 12.78125 16.4375 12.695312 16.78125 12.648438 C 17.179688 12.59375 17.195312 12.589844 17.21875 12.53125 C 17.226562 12.507812 17.292969 12.34375 17.367188 12.171875 L 17.492188 11.859375 L 17.5 11.40625 L 17.5 10.953125 L 17.382812 10.640625 C 17.316406 10.46875 17.242188 10.300781 17.21875 10.265625 C 17.1875 10.222656 17.1875 10.191406 17.210938 10.15625 C 17.226562 10.132812 17.289062 9.980469 17.351562 9.820312 C 17.453125 9.554688 17.460938 9.507812 17.476562 9.113281 C 17.492188 8.734375 17.484375 8.664062 17.421875 8.457031 C 17.335938 8.148438 17.15625 7.800781 16.914062 7.46875 C 16.628906 7.078125 15.980469 6.472656 15.460938 6.117188 C 15.230469 5.957031 15.03125 5.8125 15.019531 5.789062 C 15 5.757812 15.296875 5.753906 16.976562 5.753906 L 18.960938 5.753906 L 18.960938 18.042969 L 17.902344 18.042969 C 17.085938 18.042969 16.84375 18.035156 16.828125 18.007812 C 16.820312 17.980469 16.8125 17.980469 16.8125 18.007812 C 16.8125 18.035156 16.527344 18.042969 15.503906 18.042969 L 14.199219 18.042969 Z M 14.199219 16.40625 "/>
<path style=" stroke:none;fill-rule:nonzero;fill:rgb(13.72549%,86.27451%,48.235294%);fill-opacity:1;" d="M 5.140625 11.898438 L 5.140625 5.753906 L 5.390625 5.753906 L 5.390625 18.042969 L 5.140625 18.042969 Z M 16.863281 16.878906 L 16.875 15.714844 L 17.117188 15.207031 C 17.445312 14.515625 17.515625 14.292969 17.539062 13.859375 C 17.554688 13.5625 17.546875 13.484375 17.484375 13.257812 C 17.445312 13.117188 17.367188 12.910156 17.3125 12.792969 L 17.207031 12.585938 L 17.5 11.882812 L 17.5 10.902344 L 17.367188 10.566406 L 17.238281 10.234375 L 17.382812 9.84375 C 17.515625 9.480469 17.523438 9.429688 17.539062 9.101562 C 17.550781 8.78125 17.546875 8.71875 17.46875 8.457031 C 17.308594 7.890625 16.953125 7.367188 16.328125 6.773438 C 15.984375 6.449219 15.46875 6.054688 15.058594 5.804688 C 14.984375 5.757812 15.09375 5.757812 16.96875 5.757812 L 18.960938 5.753906 L 18.960938 18.042969 L 16.855469 18.042969 Z M 16.863281 16.878906 "/>
<path style=" stroke:none;fill-rule:nonzero;fill:rgb(44.313725%,80.392157%,23.529412%);fill-opacity:1;" d="M 8.679688 13.773438 C 8.679688 14.15625 8.335938 14.460938 7.910156 14.460938 C 7.484375 14.460938 7.140625 14.15625 7.140625 13.773438 C 7.140625 13.398438 7.484375 13.089844 7.910156 13.089844 C 8.335938 13.089844 8.679688 13.398438 8.679688 13.773438 Z M 8.679688 13.773438 "/>
<path style=" stroke:none;fill-rule:nonzero;fill:rgb(34.901961%,52.941176%,62.352941%);fill-opacity:1;" d="M 8.679688 11.390625 C 8.679688 11.773438 8.335938 12.078125 7.910156 12.078125 C 7.484375 12.078125 7.140625 11.773438 7.140625 11.390625 C 7.140625 11.015625 7.484375 10.707031 7.910156 10.707031 C 8.335938 10.707031 8.679688 11.015625 8.679688 11.390625 Z M 8.679688 11.390625 "/>
<path style=" stroke:none;fill-rule:nonzero;fill:rgb(82.352941%,29.803922%,36.470588%);fill-opacity:1;" d="M 8.691406 9.023438 C 8.691406 9.398438 8.34375 9.707031 7.921875 9.707031 C 7.492188 9.707031 7.148438 9.398438 7.148438 9.023438 C 7.148438 8.644531 7.492188 8.335938 7.921875 8.335938 C 8.34375 8.335938 8.691406 8.644531 8.691406 9.023438 Z M 8.691406 9.023438 "/>
</g>
</svg>
