
<svg xmlns="http://www.w3.org/2000/svg" xmlns:xlink="http://www.w3.org/1999/xlink" width="24px" height="24px" viewBox="0 0 24 24" version="1.1">
<g id="surface1">
<path style=" stroke:none;fill-rule:nonzero;fill:rgb(18.431373%,30.980392%,30.980392%);fill-opacity:1;" d="M 23.226562 8.703125 C 27.703125 21.210938 11.601562 27.289062 5.550781 22.199219 C -0.5 17.109375 -2.566406 8.382812 4.289062 3.992188 C 11.140625 -0.398438 18.742188 -3.804688 23.226562 8.703125 Z M 23.226562 8.703125 "/>
<path style=" stroke:none;fill-rule:evenodd;fill:rgb(100%,100%,100%);fill-opacity:1;" d="M 9.042969 18.953125 C 9.042969 18.1875 9.058594 18.132812 9.25 18.132812 C 9.367188 18.132812 9.488281 18.054688 9.523438 17.960938 C 9.5625 17.867188 9.65625 17.730469 9.734375 17.65625 C 9.828125 17.566406 9.855469 17.414062 9.8125 17.195312 C 9.765625 16.953125 9.789062 16.859375 9.90625 16.8125 C 9.992188 16.78125 10.0625 16.71875 10.0625 16.679688 C 10.0625 16.527344 10.546875 16.101562 10.714844 16.101562 C 10.804688 16.101562 10.882812 16.027344 10.882812 15.933594 C 10.882812 15.839844 10.976562 15.703125 11.097656 15.636719 C 11.273438 15.53125 11.304688 15.445312 11.257812 15.179688 C 11.226562 14.996094 11.242188 14.847656 11.296875 14.847656 C 11.351562 14.847656 11.390625 14.78125 11.390625 14.703125 C 11.390625 14.625 11.320312 14.558594 11.238281 14.558594 C 11.15625 14.558594 11.085938 14.601562 11.085938 14.65625 C 11.085938 14.710938 10.882812 14.75 10.632812 14.75 C 10.382812 14.75 10.148438 14.796875 10.117188 14.847656 C 10.078125 14.902344 9.960938 14.945312 9.851562 14.945312 C 9.734375 14.945312 9.65625 15.011719 9.652344 15.113281 C 9.652344 15.207031 9.515625 15.410156 9.347656 15.5625 C 9.179688 15.71875 9.042969 15.90625 9.042969 15.976562 C 9.042969 16.195312 8.675781 16.117188 8.53125 15.859375 C 8.457031 15.726562 8.359375 15.621094 8.3125 15.621094 C 8.265625 15.621094 8.226562 15.492188 8.226562 15.328125 C 8.226562 15.171875 8.273438 15.039062 8.328125 15.039062 C 8.382812 15.039062 8.429688 14.976562 8.429688 14.898438 C 8.429688 14.816406 8.46875 14.75 8.515625 14.75 C 8.625 14.75 8.9375 14.46875 9.234375 14.09375 C 9.445312 13.832031 9.546875 13.789062 9.925781 13.789062 C 10.253906 13.789062 10.371094 13.824219 10.371094 13.929688 C 10.371094 14.09375 10.53125 14.125 10.625 13.980469 C 10.660156 13.925781 10.78125 13.882812 10.890625 13.882812 C 11 13.882812 11.117188 13.820312 11.148438 13.738281 C 11.214844 13.578125 10.804688 13.117188 10.601562 13.113281 C 10.445312 13.109375 10.453125 13.246094 10.472656 10.960938 L 10.492188 9.050781 L 10.75 8.804688 C 10.898438 8.664062 11.15625 8.480469 11.328125 8.390625 C 11.597656 8.25 11.664062 8.140625 11.742188 7.699219 C 11.789062 7.410156 11.875 7.148438 11.921875 7.117188 C 11.972656 7.085938 12 6.90625 11.988281 6.710938 C 11.96875 6.398438 11.753906 6.101562 12.363281 5.742188 L 13.117188 5.292969 L 13.839844 5.292969 C 14.449219 5.292969 14.675781 5.117188 14.828125 5.289062 C 14.921875 5.398438 15.015625 5.253906 15.085938 5.324219 C 15.15625 5.390625 15.171875 6.0625 15.171875 6.191406 C 15.171875 6.375 15.371094 6.523438 15.136719 6.570312 C 14.890625 6.617188 14.546875 6.609375 14.46875 6.90625 C 14.414062 7.109375 14.367188 7.484375 14.367188 7.746094 C 14.363281 8.007812 14.3125 8.25 14.257812 8.28125 C 14.125 8.359375 14.042969 9.859375 14.164062 10.03125 C 14.242188 10.144531 14.273438 10.140625 14.382812 10.011719 C 14.53125 9.828125 15.523438 9.691406 16.085938 9.78125 C 16.40625 9.832031 16.484375 9.890625 16.53125 10.101562 C 16.5625 10.242188 16.445312 10.710938 16.390625 10.734375 C 16.328125 10.75 15.617188 10.6875 15.414062 11.085938 L 15.171875 11.566406 L 14.460938 11.566406 C 13.835938 11.566406 13.746094 11.542969 13.6875 11.367188 C 13.578125 11.34375 13.632812 11.59375 13.554688 11.679688 C 13.375 11.855469 13.40625 12.121094 13.640625 12.339844 C 13.75 12.445312 13.84375 12.621094 13.84375 12.726562 C 13.84375 12.835938 13.898438 12.921875 13.96875 12.910156 C 14.296875 12.871094 14.351562 12.929688 14.351562 13.304688 C 14.351562 13.515625 14.308594 13.6875 14.25 13.6875 C 14.195312 13.6875 14.148438 13.820312 14.148438 13.980469 C 14.148438 14.140625 14.195312 14.269531 14.253906 14.269531 C 14.3125 14.269531 14.402344 14.375 14.453125 14.507812 C 14.515625 14.65625 14.632812 14.75 14.757812 14.75 C 14.9375 14.75 14.96875 14.8125 14.96875 15.191406 C 14.96875 15.527344 14.90625 15.683594 14.714844 15.867188 C 14.523438 16.046875 14.359375 16.101562 14 16.101562 C 13.746094 16.101562 13.539062 16.0625 13.539062 16.007812 C 13.539062 15.851562 13.15625 15.894531 13.09375 16.054688 C 13.058594 16.132812 12.914062 16.199219 12.773438 16.199219 C 12.585938 16.199219 12.515625 16.25 12.515625 16.382812 C 12.515625 16.585938 11.445312 17.648438 11.242188 17.648438 C 11.167969 17.648438 11.03125 17.757812 10.9375 17.894531 C 10.789062 18.105469 10.785156 18.179688 10.898438 18.425781 C 10.972656 18.582031 11.09375 18.710938 11.164062 18.710938 C 11.234375 18.710938 11.324219 18.773438 11.359375 18.859375 C 11.390625 18.9375 11.5625 19.078125 11.734375 19.160156 C 12.078125 19.328125 12.203125 19.457031 12.207031 19.648438 C 12.210938 19.804688 11.679688 19.808594 11.515625 19.65625 C 11.421875 19.5625 11.367188 19.5625 11.269531 19.65625 C 11.1875 19.730469 10.777344 19.773438 10.09375 19.773438 L 9.042969 19.773438 Z M 12.265625 16.09375 C 6.894531 21.441406 9.578125 18.765625 12.265625 16.09375 Z M 12.265625 16.09375 "/>
</g>
</svg>
