
<svg xmlns="http://www.w3.org/2000/svg" xmlns:xlink="http://www.w3.org/1999/xlink" width="24px" height="24px" viewBox="0 0 24 24" version="1.1">
<g id="surface1">
<path style=" stroke:none;fill-rule:nonzero;fill:rgb(6.27451%,59.607843%,92.54902%);fill-opacity:1;" d="M 20.921875 3.796875 C 34.53125 24.566406 -2.640625 32.605469 0.320312 11.234375 C 1.523438 2.523438 15.714844 -4.148438 20.921875 3.796875 Z M 20.921875 3.796875 "/>
<path style=" stroke:none;fill-rule:nonzero;fill:rgb(94.117647%,100%,100%);fill-opacity:1;" d="M 7.871094 17.9375 C 7.542969 17.359375 7.304688 16.84375 7.335938 16.789062 C 7.414062 16.660156 17.027344 16.660156 17.105469 16.789062 C 17.140625 16.84375 16.898438 17.359375 16.570312 17.9375 L 15.976562 18.980469 L 8.460938 18.980469 L 7.867188 17.9375 Z M 10.875 14.304688 C 11.1875 14.039062 18.289062 10.0625 18.453125 10.0625 C 18.519531 10.0625 18.851562 10.554688 19.183594 11.148438 L 19.792969 12.238281 L 19.160156 13.351562 L 18.53125 14.460938 L 14.578125 14.488281 C 10.789062 14.515625 10.640625 14.507812 10.875 14.304688 Z M 5.257812 13.3125 L 4.648438 12.226562 L 5.914062 10.003906 L 9.859375 9.972656 C 13.324219 9.945312 13.789062 9.960938 13.632812 10.117188 C 13.421875 10.328125 6.15625 14.402344 5.988281 14.402344 C 5.921875 14.402344 5.59375 13.914062 5.257812 13.3125 Z M 7.335938 7.671875 C 7.304688 7.617188 7.546875 7.105469 7.871094 6.53125 L 8.464844 5.484375 L 15.976562 5.484375 L 16.570312 6.53125 C 16.898438 7.105469 17.140625 7.617188 17.105469 7.671875 C 17.027344 7.804688 7.414062 7.804688 7.335938 7.671875 Z M 7.335938 7.671875 "/>
</g>
</svg>
