<?xml version="1.0" encoding="UTF-8" standalone="no"?>
<svg
   xmlns:dc="http://purl.org/dc/elements/1.1/"
   xmlns:cc="http://creativecommons.org/ns#"
   xmlns:rdf="http://www.w3.org/1999/02/22-rdf-syntax-ns#"
   xmlns:svg="http://www.w3.org/2000/svg"
   xmlns="http://www.w3.org/2000/svg"
   xmlns:sodipodi="http://sodipodi.sourceforge.net/DTD/sodipodi-0.dtd"
   xmlns:inkscape="http://www.inkscape.org/namespaces/inkscape"
   viewBox="0 0 64 64"
   id="svg2"
   version="1.1"
   inkscape:version="0.91 r13725"
   sodipodi:docname="default-network.svg">
  <metadata
     id="metadata31">
    <rdf:RDF>
      <cc:Work
         rdf:about="">
        <dc:format>image/svg+xml</dc:format>
        <dc:type
           rdf:resource="http://purl.org/dc/dcmitype/StillImage" />
        <dc:title></dc:title>
      </cc:Work>
    </rdf:RDF>
  </metadata>
  <sodipodi:namedview
     pagecolor="#ffffff"
     bordercolor="#666666"
     borderopacity="1"
     objecttolerance="10"
     gridtolerance="10"
     guidetolerance="10"
     inkscape:pageopacity="0"
     inkscape:pageshadow="2"
     inkscape:window-width="640"
     inkscape:window-height="480"
     id="namedview29"
     showgrid="false"
     inkscape:zoom="3.6875"
     inkscape:cx="32"
     inkscape:cy="8.5955431"
     inkscape:current-layer="g11" />
  <defs
     id="defs4">
    <radialGradient
       id="radialGradient3964"
       cx="32.5"
       cy="56.5"
       r="33.5"
       gradientTransform="matrix(1,0,0,0.10447761,0,50.597015)"
       gradientUnits="userSpaceOnUse">
      <stop
         style="stop-color:#000;stop-opacity:1"
         id="stop7" />
      <stop
         offset="1"
         style="stop-color:#000;stop-opacity:0"
         id="stop9" />
    </radialGradient>
  </defs>
  <g
     transform="translate(0,-988.3622)"
     id="g11">
    <path
       inkscape:connector-curvature="0"
       d="m 0.88035565,999.53873 0,44.47067 62.31964435,0 0,-22.2355 -2.967595,-19.0585 -23.740824,0 -2.967603,-6.3532 -29.6760266,0 c -1.4837994,0 -2.96759575,1.58827 -2.96759575,3.17653 z"
       style="fill:#ececec;fill-opacity:1;stroke:none"
       id="path8315" />
    <rect
       width="31.159826"
       height="12.705863"
       x="5.3317623"
       y="1004.3031"
       style="fill:#2ca7f8;fill-opacity:0.96534651;stroke:none"
       id="rect8317" />
    <path
       inkscape:connector-curvature="0"
       d="m 3.8479514,996.36569 c -1.4837994,0 -2.96759575,1.58819 -2.96759575,3.17652 l 0,1.58819 c 0,-1.58819 1.48379635,-3.17652 2.96759575,-3.17652 l 28.1922346,0 2.9676,6.35342 25.224619,0 2.967595,19.0586 0,-1.5883 -2.967595,-19.0587 -23.740824,0 -2.967603,-6.35321 z"
       style="opacity:0.80400002;fill:#808080;fill-opacity:1;stroke:none"
       id="path8319" />
    <path
       inkscape:connector-curvature="0"
       d="m 63.2,1005.892 0,44.4702 -62.31964435,0 0,-41.2942 29.67602735,0 2.967595,-6.3526 26.708427,0 c 1.483799,0 2.967595,1.5882 2.967595,3.1766 z"
       style="fill:#f2f2f2;fill-opacity:1;stroke:none"
       id="path8321" />
    <path
       inkscape:connector-curvature="0"
       d="m 0.88035565,1048.7738 0,1.5884 62.31964435,0 0,-1.5884 z"
       style="opacity:0.80100002;fill:#4d4d4d;fill-opacity:1;stroke:none"
       id="path8323" />
    <path
       inkscape:connector-curvature="0"
       d="m 33.523978,1002.7189 -2.967595,6.3528 -29.67602735,0 0,1.5876 31.15983035,0 2.9676,-6.352 25.224619,0 c 1.483799,0 2.967595,1.5875 2.967595,3.1759 l 0,-1.5884 c 0,-1.5875 -1.483796,-3.1759 -2.967595,-3.1759 z"
       style="opacity:0.80400002;fill:#808080;fill-opacity:1;stroke:none"
       id="path8325" />
    <rect
       style="opacity:0.80100002;fill:#2ca7f8;fill-opacity:0.55445545"
       id="rect8352"
       width="0.25712097"
       height="48.805187"
       x="0.80000001"
       y="999.89703" />
    <rect
       style="opacity:0.80100002;fill:#2ca7f8;fill-opacity:0.55445545"
       id="rect8352-6"
       width="0.25712097"
       height="42.750404"
       x="-63.151833"
       y="1006.3198"
       transform="scale(-1,1)" />
    <rect
       style="opacity:0.80100002;fill:#2ca7f8;fill-opacity:1"
       id="rect8377"
       width="0.34282762"
       height="0.27521735"
       x="12.541864"
       y="1006.1359" />
    <g
       transform="translate(-0.81355935,3.4937401)"
       style="opacity:1;fill:#999999"
       id="g27" />
    <path
       inkscape:connector-curvature="0"
       d="m 29.415255,1019.4808 c -5.118001,0 -10.500001,5.382 -10.500001,12 0,6.618 5.382,12 10.500001,12 8.118,0 13.5,-5.382 13.5,-12 0,-6.618 -5.382,-12 -12,-12 z m 2.475,1.688 c 1.119,0.104 2.202,0.359 3.188,0.788 -0.076,0.095 -0.134,0.178 -0.187,0.337 -0.303,0.909 -0.755,0.476 -0.225,1.612 0.53,1.136 0.973,1.43 1.125,0.9 0.152,-0.53 -0.381,-1.278 0.225,-0.975 0.606,0.303 1.055,-0.082 0.6,0.601 -0.455,0.682 -0.445,1.051 -0.975,0.9 -0.53,-0.152 -0.52,0.899 -1.05,1.05 -0.53,0.152 -0.712,-0.229 -0.712,0.15 0,0.379 0.301,0.031 0.225,0.638 -0.023,0.186 -0.016,0.219 -0.038,0.3 -0.498,-0.143 -0.72,-0.221 -1.087,-0.077 -0.379,0.152 -0.825,1.125 -0.825,1.125 0.473,0.473 0.693,0.814 0.862,0.975 -0.106,0.053 -0.233,0.075 -0.337,0.15 -0.758,0.531 -1.348,0.63 -1.575,1.387 -0.227,0.758 -0.15,0.064 -0.15,0.975 0,0.909 -0.23,0.292 0.225,1.125 0.455,0.833 1.57,1.233 2.1,1.687 0.53,0.454 1.077,-0.989 2.138,0.375 1.061,1.363 1.129,0.817 0.75,1.575 -0.379,0.758 -0.748,1.01 -0.9,1.312 -0.152,0.303 0.295,1.348 0.825,1.575 0.011,0 0.026,0 0.038,0 -0.028,0.065 -0.047,0.123 -0.075,0.188 -0.687,0.312 -1.529,0.742 -1.688,0.787 -0.375,0.108 -1.698,0.332 -2.662,0.6 -0.121,0.034 -0.215,0.034 -0.263,0.039 0.12,-0.13 1.068,-0.626 1.537,-0.9 0.643,-0.376 -0.038,-0.338 -0.038,-0.338 0,0 -1.023,-0.114 -3.112,-0.114 -1.045,0 -1.497,0.047 -1.725001,0.114 -0.114,0.034 -0.17,0.068 -0.225,0.112 -0.055,0.047 -0.094,0.096 -0.187,0.15 -0.375,0.214 0.22,0.439 -0.262,0.6 -0.362,0.12 -0.404,0 -0.712,-0.226 0.22,-0.219 0.524,-0.483 0.9,-0.938 0.682001,-0.825 0.898001,-0.675 1.125001,-1.425 0.227,-0.75 -1.912001,-0.525 -1.912001,-0.975 0,-0.45 -0.368,-0.75 -1.05,-1.05 -0.682,-0.3 -0.217,-0.45 -0.975,-0.675 -0.758,-0.224 -1.61,1.125 -1.837,0.675 -0.227,-0.45 0.712,-0.45 0.712,-0.975 0,-0.512 -1.081,0.387 -1.275,-0.263 -0.005,-0.024 -0.034,-0.024 -0.038,-0.039 -0.019,-0.095 -0.007,-0.15 0,-0.224 0.048,-0.539 0.672,-0.75 0.938,-1.275 0.303,-0.599 0.146,0.45 0.525,0.975 0.379,0.525 0.227,-0.675 0,-1.35 -0.227,-0.675 0.145,-0.675 0.675,-1.575 0.53,-0.9 0.525,-1.425 0.525,-2.1 0,-0.675 0.367,-0.749 1.125,-1.425 0.347,-0.309 0.62,-0.579 0.825,-0.825 0.05,-0.024 0.1,-0.024 0.15,-0.039 0.804,-0.322 1.141001,-0.804 1.837001,-2.25 0.696,-1.446 -0.273,-0.096 -0.488,-0.15 -0.214,-0.053 -0.525001,-0.434 -1.275001,-0.862 -0.155,-0.088 -0.293,-0.13 -0.412,-0.149 l 1.388001,-2.288 c 0.444,-0.12 0.922,-0.202 1.387,-0.263 0.17,0.97 0.075,1.875 0.075,1.875 0,0 -0.262,0.311 -0.262,0.525 0,0.214 1.436,-1.768 1.65,-1.875 0.214,-0.108 0.755,0.568 0.862,-0.45 0.006,-0.059 -0.007,-0.06 0,-0.112 z m 2.025,4.05 c -0.077,-0.024 -0.168,0 -0.262,0.039 0,0.265 -0.103,0.458 -0.15,0.562 -0.028,-0.048 -0.113,-0.112 -0.113,-0.112 -0.114,0.21 -0.359,0.394 -0.113,0.337 0.246,-0.055 0.433,0.096 0.263,-0.112 -0.033,-0.039 -0.017,-0.023 -0.038,-0.039 0.032,0.024 0.092,0.039 0.225,0.039 0.149,0 0.229,0 0.337,0 -0.183,0.135 -0.382,0.193 -0.113,0.263 0.36,0.095 0.525,0.114 0.525,0.039 0,-0.075 -0.112,-0.337 -0.112,-0.337 0.07,-0.029 0.136,-0.064 0.075,-0.188 -0.114,-0.226 -0.294,-0.452 -0.525,-0.487 z m 5.738,0.637 c 0.187,0.291 0.367,0.59 0.525,0.9 -0.104,0.605 -0.369,1.013 0.075,1.013 0.124,0 0.235,-0.027 0.337,-0.039 0.014,0.036 0.024,0.077 0.038,0.112 -0.758,0 -1.121,0.226 -1.5,0.15 -0.379,-0.077 -1.432,-0.144 -0.75,-0.825 0.399,-0.399 0.896,-1.032 1.275,-1.313 z m -4.725,1.388 c 0.07,0.023 0.131,0.095 0.187,0.224 0.227,0.531 0.603,0.974 0.3,1.05 -0.303,0.075 -0.45,0.15 -0.45,0.15 0,0 1.049,0.682 1.125,-0.075 0.076,-0.758 -0.3,-1.201 -0.3,-1.201 0,0 0.523,0.522 0.675,0.825 0.152,0.303 0.146,0 0.525,0.375 0.379,0.378 0.295,-1.506 0.825,-0.975 0.53,0.53 0.864,0.521 0.712,0.9 -0.152,0.379 0.975,-0.458 0.975,0.3 0,0.73 0.466,1.027 -0.45,1.388 -0.347,-0.024 -0.621,-0.082 -0.675,-0.188 -0.152,-0.303 -1.012,-0.075 -1.012,-0.075 -2.266,-0.566 -3.25,-0.746 -3.9,-0.637 0.012,-0.024 0.024,-0.024 0.038,-0.039 0.331,-0.597 0.955,-1.426 0.75,-1.725 0.289,-0.166 0.515,-0.349 0.675,-0.3 z m 6.375,3.787 c 0.007,0.152 0,0.296 0,0.45 0,0.427 -0.026,0.862 -0.075,1.275 -0.682,-0.606 -1.65,-0.6 -1.65,-0.6 0,0 0.592,-0.672 1.425,-0.975 0.104,-0.039 0.216,-0.089 0.3,-0.15 z"
       style="color:#000000;opacity:1;fill:#999999;fill-opacity:1"
       id="path27" />
  </g>
</svg>
