/* XPM */
static char * close_prelight_xpm[] = {
"24 24 44 1",
" 	c None",
".	c #21252B",
"+	c #353B48",
"@	c #2F343F",
"#	c #3D333E",
"$	c #822D3A",
"%	c #B22A37",
"&	c #CA2736",
"*	c #CA2837",
"=	c #802E3A",
"-	c #3C333E",
";	c #62303C",
">	c #CA2836",
",	c #D52735",
"'	c #C82836",
")	c #60313C",
"!	c #62303D",
"~	c #D22735",
"{	c #3E333F",
"]	c #CD2533",
"^	c #C72432",
"/	c #C62432",
"(	c #CE2634",
"_	c #C92836",
":	c #822E3A",
"<	c #A11D2B",
"[	c #C32432",
"}	c #C22331",
"|	c #802E3B",
"1	c #B42A37",
"2	c #B12B36",
"3	c #CD2836",
"4	c #B12B38",
"5	c #832E3A",
"6	c #C82432",
"7	c #7F2E3A",
"8	c #CD2634",
"9	c #3B333F",
"0	c #63303C",
"a	c #60303C",
"b	c #61303C",
"c	c #3D333F",
"d	c #CB2836",
"e	c #812D3A",
"........................",
"++++++++++++++++++++++++",
"@@@@@@@@@@@@@@@@@@@@@@@@",
"@@@@@@@@@@@@@@@@@@@@@@@@",
"@@@@@@@@@@@@@@@@@@@@@@@@",
"@@@@@@@@#$%&*%=-@@@@@@@@",
"@@@@@@@;>,,,,,,')@@@@@@@",
"@@@@@@!~,,,,,,,,~)@@@@@@",
"@@@@@{&,]^,,,,/(,_-@@@@@",
"@@@@@:,,/<[,,}<^,,|@@@@@",
"@@@@@1,,,}<[}<[,,,2@@@@@",
"@@@@@3,,,,}<<[,,,,_@@@@@",
"@@@@@3,,,,}<<[,,,,_@@@@@",
"@@@@@1,,,}<[}<[,,,4@@@@@",
"@@@@@5,,/<[,,}<6,,7@@@@@",
"@@@@@#_,8^,,,,^(,'9@@@@@",
"@@@@@@0~,,,,,,,,~a@@@@@@",
"@@@@@@@0*,,,,,,_b@@@@@@@",
"@@@@@@@@c:1dd%e-@@@@@@@@",
"@@@@@@@@@@@@@@@@@@@@@@@@",
"@@@@@@@@@@@@@@@@@@@@@@@@",
"@@@@@@@@@@@@@@@@@@@@@@@@",
"@@@@@@@@@@@@@@@@@@@@@@@@",
"@@@@@@@@@@@@@@@@@@@@@@@@"};
