<svg xmlns="http://www.w3.org/2000/svg" viewBox="0 0 24 24"><path d="m 19.90625 4.105469 c 12.175781 9.832031 -5.652344 27.574219 -16.429688 16.238281 c -10.796874 -9.757812 6.054688 -28.6875 16.429688 -16.238281" style="fill:#ff8c00"/><g style="fill:#fff"><path d="m 10.296875 5.335938 c -1.421875 0 -2.578125 1.195312 -2.578125 2.671874 v 4.460938 c 0 1.476562 1.15625 2.671875 2.578125 2.671875 c 1.425781 0 2.578125 -1.195313 2.578125 -2.671875 v -4.460938 c 0 -1.476562 -1.152344 -2.671874 -2.578125 -2.671874"/><path d="m 5.140625 12.460938 c 0 2.65625 1.855469 4.84375 4.296875 5.265624 v 0.972657 h -0.859375 v 0.890625 h 3.441406 v -0.890625 h -0.863281 v -0.972657 c 2.445312 -0.421874 4.304688 -2.609374 4.304688 -5.265624 h -1.722657 c 0 1.96875 -1.535156 3.566406 -3.4375 3.566406 c -1.898437 0 -3.4375 -1.597656 -3.4375 -3.566406"/><path d="m 20.617188 12.460938 c 0 0.984374 -0.773438 1.78125 -1.722657 1.78125 c -0.949219 0 -1.714843 -0.796876 -1.714843 -1.78125 c 0 -0.984376 0.765624 -1.78125 1.714843 -1.78125 c 0.949219 0 1.722657 0.800781 1.722657 1.78125"/></g></svg>