<svg xmlns="http://www.w3.org/2000/svg" viewBox="0 0 24 24"><path d="m 4.945312 21.65625 c 18.046876 12 29.15625 -26.257812 5.835938 -21.191406 c -9.640625 2.160156 -15.492188 15.691406 -5.835938 21.191406" style="fill:#b0c3de"/><path d="m 7.414062 18.328125 c 0 0.625 0.492188 1.132813 1.101563 1.132813 h 7.476563 c 0.609374 0 1.101562 -0.503907 1.101562 -1.132813 v -10.433594 c 0 -0.628906 -0.492188 -1.136719 -1.101562 -1.136719 h -1.539063 v -1.359374 c 0 -0.25 -0.195313 -0.453126 -0.4375 -0.453126 h -3.519531 c -0.246094 0 -0.441406 0.203126 -0.441406 0.453126 v 1.359374 h -1.539063 c -0.609375 0 -1.101563 0.507813 -1.101563 1.136719 m 1.761719 9.074219 v -7.710938 c 0 -0.382812 0.292969 -0.683593 0.660157 -0.683593 h 4.835937 c 0.367187 0 0.664063 0.304687 0.664063 0.683593 v 7.710938 c 0 0.375 -0.296876 0.679688 -0.664063 0.679688 h -4.835937 c -0.367188 0 -0.660157 -0.304688 -0.660157 -0.679688" style="fill:#fff;fill-opacity:0.45098"/></svg>