<svg xmlns="http://www.w3.org/2000/svg" viewBox="0 0 24 24"><path d="m 22.25 5.828125 c -18.132812 -21.125 -35.570312 22.3125 -7.523438 17.847656 c 6.148438 -0.980469 12.410157 -12.152343 7.523438 -17.847656" style="fill:#ff8c00"/><path d="m 7.359375 5.507812 c -1.367187 0 -2.484375 1.101563 -2.484375 2.445313 v 8.816406 c 0 1.347657 1.117188 2.449219 2.484375 2.449219 h 8.9375 c 1.367187 0 2.484375 -1.101562 2.484375 -2.449219 v -8.816406 c 0 -1.34375 -1.117188 -2.445313 -2.484375 -2.445313 m -8.9375 0.976563 h 8.9375 c 0.835937 0 1.492187 0.648437 1.492187 1.46875 v 8.8125 c 0 0.828125 -0.65625 1.472656 -1.492187 1.472656 h -8.9375 c -0.835937 0 -1.492187 -0.644531 -1.492187 -1.472656 v -8.8125 c 0 -0.820313 0.65625 -1.46875 1.492187 -1.46875 m -1.492187 6.734375 l 5.21875 4.40625 l 6.703124 -8.75 l -1.988281 -1.777344 l -5.183593 6.457032 l -3.039063 -2.601563" style="fill:#fff"/></svg>