
<svg xmlns="http://www.w3.org/2000/svg" xmlns:xlink="http://www.w3.org/1999/xlink" width="24px" height="24px" viewBox="0 0 24 24" version="1.1">
<g id="surface1">
<path style=" stroke:none;fill-rule:nonzero;fill:rgb(100%,84.313725%,0%);fill-opacity:1;" d="M 22.054688 18.980469 C 29.859375 7.816406 12.277344 -6.160156 3.089844 2.925781 C -5.574219 11.492188 5.628906 27.480469 16.398438 23.320312 C 18.652344 22.453125 20.625 21.019531 22.054688 18.980469 Z M 22.054688 18.980469 "/>
<path style=" stroke:none;fill-rule:nonzero;fill:rgb(100%,100%,100%);fill-opacity:1;" d="M 11.335938 4.4375 C 8.589844 4.4375 6.207031 5.914062 4.945312 8.105469 C 6.015625 7.503906 7.253906 7.160156 8.578125 7.160156 C 9.0625 7.160156 9.53125 7.207031 9.988281 7.292969 C 9.992188 7.289062 9.992188 7.285156 9.996094 7.28125 C 10.09375 7.023438 10.210938 6.773438 10.335938 6.53125 C 10.347656 6.511719 10.359375 6.488281 10.375 6.464844 C 10.492188 6.25 10.621094 6.039062 10.757812 5.839844 C 10.785156 5.796875 10.808594 5.757812 10.839844 5.714844 C 10.976562 5.519531 11.128906 5.332031 11.285156 5.152344 C 11.3125 5.121094 11.335938 5.089844 11.359375 5.058594 C 11.550781 4.851562 11.746094 4.652344 11.957031 4.464844 C 11.753906 4.449219 11.546875 4.4375 11.335938 4.4375 Z M 14.304688 5.050781 C 14.039062 5.1875 13.789062 5.351562 13.550781 5.527344 C 13.492188 5.570312 13.4375 5.617188 13.378906 5.664062 C 13.183594 5.824219 12.996094 5.992188 12.824219 6.175781 C 12.792969 6.207031 12.765625 6.234375 12.738281 6.261719 C 12.320312 6.734375 11.976562 7.273438 11.738281 7.867188 C 13.46875 8.675781 14.808594 10.136719 15.472656 11.925781 C 15.71875 11.804688 15.984375 11.714844 16.273438 11.699219 C 16.351562 11.695312 16.429688 11.695312 16.503906 11.699219 C 17.28125 11.738281 17.964844 12.203125 18.324219 12.871094 L 18.511719 13.21875 C 18.621094 12.726562 18.691406 12.21875 18.691406 11.695312 C 18.691406 8.71875 16.890625 6.171875 14.304688 5.050781 Z M 8.578125 8.972656 C 6.667969 8.972656 4.988281 9.921875 4 11.371094 C 3.996094 11.480469 3.984375 11.585938 3.984375 11.695312 C 3.984375 15.714844 7.261719 18.953125 11.335938 18.953125 C 11.445312 18.953125 11.554688 18.941406 11.664062 18.9375 C 11.933594 18.757812 12.179688 18.550781 12.410156 18.328125 C 12.203125 17.734375 12.210938 17.054688 12.539062 16.445312 L 12.8125 15.9375 C 12.792969 15.925781 12.773438 15.914062 12.753906 15.902344 C 12.492188 15.726562 12.242188 15.542969 12.003906 15.335938 C 12 15.332031 11.996094 15.332031 11.996094 15.328125 C 11.753906 15.121094 11.53125 14.894531 11.320312 14.65625 C 11.289062 14.625 11.261719 14.59375 11.234375 14.558594 C 11.042969 14.335938 10.859375 14.101562 10.695312 13.851562 C 10.683594 13.835938 10.671875 13.816406 10.660156 13.800781 C 10.492188 13.542969 10.347656 13.273438 10.214844 12.996094 C 10.1875 12.945312 10.164062 12.890625 10.140625 12.835938 C 10.019531 12.570312 9.910156 12.296875 9.820312 12.011719 C 9.816406 11.992188 9.808594 11.972656 9.800781 11.957031 C 9.714844 11.664062 9.652344 11.359375 9.601562 11.054688 C 9.589844 10.980469 9.578125 10.910156 9.570312 10.835938 C 9.527344 10.523438 9.5 10.207031 9.5 9.878906 C 9.5 9.601562 9.515625 9.332031 9.546875 9.0625 C 9.230469 9.007812 8.910156 8.972656 8.578125 8.972656 Z M 11.351562 9.710938 C 11.347656 9.769531 11.335938 9.824219 11.335938 9.878906 C 11.335938 10.105469 11.355469 10.328125 11.382812 10.542969 C 11.390625 10.613281 11.402344 10.675781 11.414062 10.742188 C 11.4375 10.902344 11.46875 11.058594 11.507812 11.214844 C 11.527344 11.277344 11.542969 11.34375 11.558594 11.40625 C 11.621094 11.613281 11.691406 11.8125 11.773438 12.007812 C 11.863281 12.214844 11.964844 12.414062 12.078125 12.605469 C 12.09375 12.632812 12.109375 12.65625 12.125 12.683594 C 12.230469 12.855469 12.347656 13.023438 12.472656 13.183594 C 12.484375 13.199219 12.496094 13.21875 12.507812 13.234375 C 12.789062 13.589844 13.113281 13.90625 13.476562 14.183594 C 13.492188 14.195312 13.503906 14.207031 13.519531 14.214844 C 13.570312 14.253906 13.628906 14.285156 13.679688 14.320312 L 14.042969 13.652344 C 13.800781 11.964844 12.78125 10.53125 11.351562 9.710938 Z M 16.324219 12.605469 C 15.886719 12.628906 15.492188 12.890625 15.273438 13.296875 L 14.3125 15.082031 L 13.351562 16.871094 C 13.121094 17.300781 13.121094 17.828125 13.351562 18.257812 C 13.582031 18.6875 14.007812 18.953125 14.46875 18.953125 L 18.316406 18.953125 C 18.777344 18.953125 19.207031 18.6875 19.4375 18.257812 C 19.667969 17.828125 19.667969 17.300781 19.4375 16.871094 L 18.476562 15.082031 L 17.515625 13.296875 C 17.292969 12.886719 16.894531 12.625 16.453125 12.605469 C 16.410156 12.601562 16.367188 12.601562 16.324219 12.605469 Z M 15.933594 13.507812 L 16.851562 13.507812 L 16.851562 16.230469 L 15.933594 16.230469 Z M 15.933594 17.140625 L 16.851562 17.140625 L 16.851562 18.046875 L 15.933594 18.046875 Z M 15.933594 17.140625 "/>
</g>
</svg>
