<svg xmlns="http://www.w3.org/2000/svg" viewBox="0 0 24 24"><g style="fill:#b0c3de"><path d="m 10.636719 14.699219 v 1.257812 h -1.382813 c -0.253906 0 -0.453125 0.207031 -0.453125 0.457031 c 0 0.257813 0.199219 0.460938 0.453125 0.460938 h 5.050782 c 0.25 0 0.453124 -0.203125 0.453124 -0.460938 c 0 -0.25 -0.203124 -0.457031 -0.453124 -0.457031 h -1.382813 v -1.257812"/><path d="m 5.914062 7.3125 c -0.214843 0 -0.386718 0.175781 -0.386718 0.390625 v 7.082031 c 0 0.214844 0.171875 0.386719 0.386718 0.386719 h 11.734376 c 0.210937 0 0.382812 -0.171875 0.382812 -0.386719 v -7.082031 c 0 -0.214844 -0.171875 -0.390625 -0.382812 -0.390625 m -10.984376 1.03125 h 10.234376 v 5.796875 h -10.234376"/><path d="m 9.570312 24.023438 c -4.242187 -0.523438 -7.679687 -3.546876 -8.976562 -7.90625 c -0.386719 -1.296876 -0.546875 -3.097657 -0.398438 -4.472657 c 0.210938 -1.980469 0.96875 -4.019531 2.132813 -5.730469 c 0.734375 -1.082031 2.042969 -2.488281 3.039063 -3.265624 c 1.699218 -1.328126 3.472656 -2.105469 5.53125 -2.421876 c 0.71875 -0.109374 2.179687 -0.109374 2.960937 0 c 1.925781 0.265626 3.828125 1.078126 5.460937 2.316407 c 0.570313 0.433593 1.75 1.632812 2.171876 2.214843 c 1.1875 1.617188 1.851562 3.257813 2.117187 5.253907 c 0.070313 0.511719 0.070313 1.933593 0 2.484375 c -0.179687 1.464844 -0.578125 2.742187 -1.300781 4.167968 c -0.863282 1.703126 -2.089844 3.273438 -3.402344 4.351563 c -1.84375 1.507813 -4.210938 2.574219 -6.515625 2.941406 c -0.585937 0.09375 -2.273437 0.132813 -2.820313 0.066407 m 5.09375 -7.167969 c 0.265626 -0.140625 0.304688 -0.589844 0.066407 -0.78125 c -0.113281 -0.089844 -0.183594 -0.097657 -0.882813 -0.097657 h -0.761718 v -0.753906 l 2.445312 -0.011718 l 2.453125 -0.015626 l 0.085937 -0.109374 c 0.085938 -0.109376 0.089844 -0.242188 0.089844 -3.796876 c 0 -2.027343 -0.011718 -3.71875 -0.027344 -3.761718 c -0.085937 -0.222656 0.09375 -0.214844 -6.257812 -0.214844 h -5.964844 l -0.136718 0.140625 l -0.132813 0.132813 v 3.648437 c 0 2.574219 0.015625 3.683594 0.046875 3.765625 c 0.03125 0.0625 0.105469 0.140625 0.167969 0.167969 c 0.078125 0.035156 0.851562 0.050781 2.507812 0.050781 h 2.394531 v 0.757812 h -0.769531 c -0.859375 0 -0.953125 0.027344 -1.042969 0.308594 c -0.070312 0.207032 -0.023437 0.378906 0.148438 0.519532 l 0.136719 0.117187 h 2.652343 c 2.226563 0 2.671876 -0.007813 2.78125 -0.066406"/><path d="m 4.390625 5.265625 h 15.164063 c 0.242187 0 0.4375 0.195313 0.4375 0.445313 v 12.226562 c 0 0.242188 -0.195313 0.445312 -0.4375 0.445312 h -15.164063 c -0.242187 0 -0.4375 -0.203124 -0.4375 -0.445312 v -12.226562 c 0 -0.25 0.195313 -0.445313 0.4375 -0.445313"/></g><path d="m 16.972656 6.234375 h -10.691406 c -0.679688 0 -1.234375 0.65625 -1.234375 1.460937 v 6.328126 c 0 0.804687 0.554687 1.460937 1.234375 1.460937 h 10.691406 c 0.679688 0 1.234375 -0.65625 1.234375 -1.460937 v -6.328126 c 0 -0.804687 -0.554687 -1.460937 -1.234375 -1.460937 m 0.410156 7.789063 c 0 0.269531 -0.183593 0.488281 -0.410156 0.488281 h -10.691406 c -0.226562 0 -0.414062 -0.21875 -0.414062 -0.488281 v -6.328126 c 0 -0.269531 0.1875 -0.488281 0.414062 -0.488281 h 10.691406 c 0.226563 0 0.410156 0.21875 0.410156 0.488281 v 6.328126 m 0.207032 2.4375 h -4.316406 c 0 0.265624 -0.1875 0.484374 -0.414063 0.484374 h -2.46875 c -0.226563 0 -0.40625 -0.21875 -0.40625 -0.484374 h -4.320313 c -0.339843 0 -0.617187 0.328124 -0.617187 0.726562 c 0 0.40625 0.277344 0.734375 0.617187 0.734375 h 11.925782 c 0.339844 0 0.617187 -0.328125 0.617187 -0.734375 c 0 -0.398438 -0.277343 -0.726562 -0.617187 -0.726562" style="fill:#fff"/></svg>