<svg xmlns="http://www.w3.org/2000/svg" viewBox="0 0 24 24"><path d="m 4.945312 21.65625 c 18.046876 12 29.15625 -26.257812 5.835938 -21.191406 c -9.640625 2.160156 -15.492188 15.691406 -5.835938 21.191406" style="fill:#ff8c00"/><path d="m 6.3125 6.757812 c -0.476562 0 -0.859375 0.410157 -0.859375 0.917969 v 9.15625 c 0 0.507813 0.382813 0.917969 0.859375 0.917969 h 11.988281 c 0.472657 0 0.855469 -0.410156 0.855469 -0.917969 v -9.15625 c 0 -0.507812 -0.382812 -0.917969 -0.855469 -0.917969 m -10.707031 1.835938 h 3.429688 c 0.234374 0 0.425781 0.203125 0.425781 0.453125 v 6.414063 c 0 0.25 -0.191407 0.457031 -0.425781 0.457031 h -3.429688 c -0.234375 0 -0.429688 -0.207031 -0.429688 -0.457031 v -1.375 h 2.570313 v -0.914063 h -1.710937 v -1.835937 h 1.710937 v -0.914063 h -2.570313 v -1.375 c 0 -0.25 0.195313 -0.453125 0.429688 -0.453125 m 5.140625 0 h 4.28125 c 0.238281 0 0.429687 0.203125 0.429687 0.453125 v 1.375 h -3.429687 v 3.664063 h 1.714844 v -0.914063 h -0.855469 v -1.835937 h 2.570312 v 4.125 c 0 0.25 -0.191406 0.453124 -0.429687 0.453124 h -4.28125 c -0.238281 0 -0.429687 -0.203124 -0.429687 -0.453124 v -6.414063 c 0 -0.25 0.191406 -0.457031 0.429687 -0.457031" style="fill:#fff"/></svg>