<svg xmlns="http://www.w3.org/2000/svg" viewBox="0 0 24 24"><path d="m 5.695312 2.472656 c 12.171876 -8.628906 24.5 7.308594 14.585938 17.472656 c -9.34375 9.578126 -23.859375 0.703126 -19.320312 -11.21875 c 0.945312 -2.484374 2.5 -4.671874 4.734374 -6.253906" style="fill:#778799"/><g style="fill:#fff"><path d="m 12.046875 4.226562 c -0.632813 0 -1.140625 0.476563 -1.140625 1.070313 c 0 0.015625 0 0.023437 0 0.035156 c -1.96875 0.480469 -3.421875 2.117188 -3.421875 4.265625 c 0 2.160156 0 6.445313 -2.03125 6.445313 c -0.136719 0 -0.25 0.121093 -0.25 0.269531 v 0.804688 h 1 l 9.980469 -9.398438 c -0.566406 -1.195312 -1.652344 -2.058594 -2.996094 -2.386719 c 0 -0.011719 0 -0.019531 0 -0.035156 c 0 -0.59375 -0.507812 -1.070313 -1.140625 -1.070313 m 4.5625 5.371094 l -7.984375 7.519532 h 10.265625 v -0.804688 c 0 -0.148438 -0.113281 -0.269531 -0.25 -0.269531 c -2.039063 0 -2.03125 -4.292969 -2.03125 -6.445313 m -6.523437 8.59375 c 0.394531 0.644532 1.117187 1.074219 1.960937 1.074219 c 0.84375 0 1.566406 -0.429687 1.960937 -1.074219"/><path d="m 17.148438 4.664062 l -12.550782 11.820313 l 1.214844 1.140625 l 12.546875 -11.820312"/></g></svg>