<svg xmlns="http://www.w3.org/2000/svg" viewBox="0 0 24 24"><path d="m 2.773438 19.835938 c -5.835938 -8.976563 -1.125 -17.15625 5.484374 -19.09375 c 8.890626 -2.613282 20.960938 4.246093 13.007813 18.382812 c -3.164063 5.617188 -14.332031 7.101562 -18.492187 0.710938" style="fill:#ff8c00"/><path d="m 11.847656 5.460938 c -1.652344 0 -3.175781 0.5625 -4.371094 1.507812 l -1.410156 -1.390625 l -1.09375 1.078125 l 1.410156 1.390625 c -0.960937 1.179687 -1.53125 2.679687 -1.53125 4.308594 c 0 3.808593 3.132813 6.894531 6.996094 6.894531 c 3.863282 0 6.996094 -3.085938 6.996094 -6.894531 c 0 -1.628907 -0.570312 -3.128907 -1.53125 -4.308594 l 1.410156 -1.390625 l -1.09375 -1.078125 l -1.410156 1.390625 c -1.195312 -0.945312 -2.71875 -1.507812 -4.371094 -1.507812 m 0 1.53125 c 3.003906 0 5.441406 2.402343 5.441406 5.363281 c 0 2.964843 -2.4375 5.363281 -5.441406 5.363281 c -3.003906 0 -5.441406 -2.398438 -5.441406 -5.363281 c 0 -2.960938 2.4375 -5.363281 5.441406 -5.363281 m 0 0.765624 v 4.597657 l 4.636719 -0.480469 c -0.25 -2.339844 -2.25 -4.117188 -4.636719 -4.117188" style="fill:#fff"/></svg>