<svg xmlns="http://www.w3.org/2000/svg" viewBox="0 0 24 24"><path d="m 19.886719 19.878906 c -9.789063 12.175782 -27.457031 -5.652344 -16.167969 -16.425781 c 9.710938 -10.796875 28.5625 6.054687 16.167969 16.425781" style="fill:#b0c3de"/><g style="fill:#fff"><path d="m 18.324219 12.992188 l -2.652344 6.382812 c -0.058594 0.140625 -0.15625 0.132812 -0.21875 -0.011719 l -2.632813 -6.363281 c -0.097656 -0.230469 -0.03125 -0.585938 0.109376 -0.585938 l 1.515624 -0.003906 v -5.820312 c 0 -0.355469 0.144532 -0.652344 0.296876 -0.652344 h 1.679687 c 0.15625 0 0.257813 0.296875 0.257813 0.652344 v 5.816406 l 1.53125 0.003906 c 0.140624 0 0.210937 0.355469 0.113281 0.582032"/><path d="m 11.101562 12.320312 l -2.648437 -6.382812 c -0.0625 -0.140625 -0.160156 -0.132812 -0.222656 0.011719 l -2.628907 6.363281 c -0.101562 0.230469 -0.03125 0.585938 0.109376 0.585938 l 1.515624 0.003906 v 5.820312 c 0 0.355469 0.140626 0.652344 0.296876 0.652344 h 1.679687 c 0.152344 0 0.257813 -0.296875 0.257813 -0.652344 v -5.816406 l 1.53125 -0.003906 c 0.140624 0 0.210937 -0.355469 0.109374 -0.582032"/></g></svg>