
<svg xmlns="http://www.w3.org/2000/svg" xmlns:xlink="http://www.w3.org/1999/xlink" width="24px" height="24px" viewBox="0 0 24 24" version="1.1">
<g id="surface1">
<path style=" stroke:none;fill-rule:nonzero;fill:rgb(57.647059%,43.921569%,85.882353%);fill-opacity:1;" d="M 19.886719 19.878906 C 10.097656 32.058594 -7.570312 14.230469 3.714844 3.453125 C 13.429688 -7.34375 32.285156 9.507812 19.886719 19.878906 Z M 19.886719 19.878906 "/>
<path style=" stroke:none;fill-rule:nonzero;fill:rgb(100%,100%,100%);fill-opacity:1;" d="M 8.707031 10.449219 L 6.464844 16.984375 C 6.414062 17.128906 6.496094 17.1875 6.636719 17.121094 L 12.824219 14.101562 C 13.050781 13.996094 13.238281 13.679688 13.132812 13.585938 L 11.996094 12.582031 L 15.855469 8.222656 C 16.089844 7.957031 16.179688 7.640625 16.0625 7.539062 L 14.808594 6.425781 C 14.691406 6.324219 14.417969 6.472656 14.179688 6.742188 L 10.324219 11.097656 L 9.179688 10.085938 C 9.074219 9.996094 8.785156 10.210938 8.707031 10.449219 Z M 8.707031 10.449219 "/>
</g>
</svg>
