<svg xmlns="http://www.w3.org/2000/svg" viewBox="0 0 24 24"><path d="m 0.304688 9.253906 c 4.6875 -22.492187 36.921874 1.652344 17.558593 13.085938 c -7.523437 4.902344 -19.96875 -1.519532 -17.558593 -13.085938" style="fill:#2f4e4e"/><g style="fill:#fff"><path d="m 5.28125 7.085938 h 2.8125 c 0.257812 0 0.46875 0.164062 0.46875 0.363281 v 9.445312 c 0 0.199219 -0.210938 0.363281 -0.46875 0.363281 h -2.8125 c -0.261719 0 -0.46875 -0.164062 -0.46875 -0.363281 v -9.445312 c 0 -0.199219 0.207031 -0.363281 0.46875 -0.363281"/><path d="m 9.921875 7.085938 c -0.234375 0 -0.421875 0.277343 -0.421875 0.625 v 8.925781 c 0 0.34375 0.1875 0.621093 0.421875 0.621093 h 4.273437 c 3.109376 0 5.632813 -2.277343 5.632813 -5.085937 c 0 -2.808594 -2.523437 -5.085937 -5.632813 -5.085937"/></g></svg>