<svg xmlns="http://www.w3.org/2000/svg" viewBox="0 0 24 24"><path d="m 4.371094 20.585938 c -18.761719 -24.867188 32.867187 -28.402344 16.300781 -3.015626 c -3.78125 5.785157 -11.332031 9.601563 -16.300781 3.015626" style="fill:#ff8c00"/><path d="m 11.78125 4.945312 c -2.203125 0 -3.992188 1.921876 -4.0625 4.292969 c -1.3125 0.503907 -2.257812 1.804688 -2.257812 3.359375 c 0 1.695313 1.113281 3.066406 2.570312 3.457032 c -0.054688 0.488281 -0.097656 0.976562 -0.285156 1.476562 c -0.105469 0.277344 -0.058594 0.597656 0.125 0.828125 c 0.183594 0.230469 0.464844 0.328125 0.738281 0.257813 c 1.570313 -0.410157 2.8125 -1.277344 3.820313 -2.394532 h 2.695312 c 2.046875 0 3.71875 -1.8125 3.71875 -4.027344 c 0 -1.398437 -0.6875 -2.59375 -1.703125 -3.292968 c -0.171875 0.046875 -0.351563 0.070312 -0.527344 0.070312 c -1.230469 0 -2.230469 -1.082031 -2.230469 -2.417968 c 0 -0.160157 0.015626 -0.320313 0.046876 -0.480469 c -0.710938 -0.695313 -1.625 -1.128907 -2.648438 -1.128907 m 1.117188 7.25 h 2.226562 c 0.414062 0 0.742188 0.359376 0.742188 0.804688 c 0 0.445312 -0.328126 0.804688 -0.742188 0.804688 h -2.226562 c -0.414063 0 -0.746094 -0.359376 -0.746094 -0.804688 c 0 -0.445312 0.332031 -0.804688 0.746094 -0.804688" style="fill:#fff"/><path d="m 18.101562 6.554688 c 0 0.890624 -0.667968 1.613281 -1.488281 1.613281 c -0.820312 0 -1.488281 -0.722657 -1.488281 -1.613281 c 0 -0.890626 0.667969 -1.609376 1.488281 -1.609376 c 0.820313 0 1.488281 0.71875 1.488281 1.609376" style="fill:#ff4500"/></svg>