<svg xmlns="http://www.w3.org/2000/svg" viewBox="0 0 24 24"><g style="fill:#efefef"><path d="m 16.917969 14.992188 h -6.558594 l -1.636719 2.988281 h 6.558594" style="fill-opacity:0.901961"/><path d="m 16.917969 14.992188 l -3.277344 -5.980469 h -3.28125 l 3.28125 5.980469"/><path d="m 12 12 l -1.640625 -2.988281 l -3.277344 5.980469 l 1.640625 2.988281" style="fill-opacity:0.94902"/></g><path d="m 0.40625 14.644531 c 4.640625 22.492188 36.609375 -1.652343 17.40625 -13.085937 c -7.460938 -4.902344 -19.796875 1.519531 -17.40625 13.085937" style="fill:#9acd31"/><path d="m 14.523438 6.933594 l 0.03125 0.019531 l 0.070312 -0.019531 m 0.816406 0.683594 l 5.050782 3.765624 v -3.765624" style="fill-opacity:0.196078"/><g style="fill:#fff"><path d="m 14.523438 3.164062 l 5.96875 4.453126 h -5.050782 c -0.445312 0 -0.917968 -0.351563 -0.917968 -0.683594" style="fill-opacity:0.392157"/><path d="m 7.664062 12.226562 l -1.234374 1.132813 v 1.875 l 4.125 3.757813 l 4.121093 -3.765626 l -0.003906 -1.878906 l -1.234375 -1.128906 m -4.539062 0.382812 l 0.003906 0.75 l 0.003906 1.882813 l 1.648438 3.382813 l -2.0625 -3.382813 v -1.878906 l 0.410156 -0.753907"/></g></svg>