<svg xmlns="http://www.w3.org/2000/svg" viewBox="0 0 24 24" xmlns:xlink="http://www.w3.org/1999/xlink"><defs><linearGradient id="0" gradientUnits="userSpaceOnUse" x1="-17" x2="144" gradientTransform="matrix(0.00030646 0 0 0.0053503 12.296314 27.541653)"><stop style="stop-color:#000;stop-opacity:0"/><stop offset="0.493" style="stop-color:#000;stop-opacity:0.501961"/><stop offset="1" style="stop-color:#000;stop-opacity:0"/></linearGradient><linearGradient id="1" gradientUnits="userSpaceOnUse" x1="-17" x2="144" gradientTransform="matrix(0 0.00024542 -0.00411187 0 2.470783 10.366134)" xlink:href="#0"/></defs><path d="m 18.382812 2.632812 c -8.859374 -7.855468 -22.488281 4.539063 -16.976562 14.90625 c 5.570312 10.484376 24.011719 7.691407 22.445312 -5.1875 c -0.46875 -3.832031 -2.578124 -7.15625 -5.46875 -9.71875" style="fill:#778799"/><path d="m 12.289062 21.148438 h 0.050782 v 0.007812 h -0.050782" style="fill:url(#0)"/><path d="m 7.382812 10.359375 v 0.042969 h -0.003906 v -0.042969" style="fill:url(#1)"/><g style="fill:#fff"><path d="m 7.199219 12.21875 h 0.9375 v 2.773438 l 3.109375 -2.773438 h 1.203125 l -3.429688 3.0625 l 3.679688 3.5 h -1.234375 l -3.328125 -3.15625 v 3.15625 h -0.9375"/><path d="m 15.335938 16.3125 h 0.53125 l 0.617187 2.304688 c 0.023437 0.101562 0.050781 0.203124 0.078125 0.296874 c 0.023438 0.101563 0.046875 0.203126 0.070312 0.296876 c 0.019532 0.09375 0.039063 0.1875 0.054688 0.265624 c 0.019531 0.085938 0.035156 0.164063 0.046875 0.226563 c 0.003906 -0.0625 0.011719 -0.140625 0.023437 -0.21875 c 0.007813 -0.078125 0.023438 -0.164063 0.039063 -0.257813 c 0.015625 -0.085937 0.03125 -0.179687 0.046875 -0.273437 c 0.015625 -0.09375 0.03125 -0.179687 0.054688 -0.265625 l 0.539062 -2.375 h 0.53125 l -0.984375 3.929688 h -0.5 l -0.6875 -2.515626 c -0.027344 -0.09375 -0.054687 -0.1875 -0.078125 -0.28125 c -0.023438 -0.09375 -0.039062 -0.1875 -0.054688 -0.273437 c -0.023437 -0.09375 -0.042968 -0.195313 -0.0625 -0.289063 c -0.023437 0.09375 -0.042968 0.1875 -0.0625 0.28125 c -0.015624 0.09375 -0.039062 0.1875 -0.0625 0.28125 c -0.023437 0.101563 -0.046874 0.203126 -0.070312 0.296876 l -0.648438 2.5 h -0.5 l -1.039062 -3.929688 h 0.53125 l 0.59375 2.390625 c 0.019531 0.085937 0.039062 0.171875 0.054688 0.257813 c 0.019531 0.09375 0.039062 0.179687 0.054687 0.265624 c 0.015625 0.09375 0.027344 0.179688 0.039063 0.257813 c 0.015624 0.078125 0.027343 0.15625 0.039062 0.21875 c 0.003906 -0.0625 0.015625 -0.140625 0.03125 -0.234375 c 0.015625 -0.085938 0.03125 -0.179688 0.046875 -0.273438 c 0.015625 -0.09375 0.03125 -0.195312 0.054687 -0.296874 c 0.019532 -0.09375 0.042969 -0.1875 0.070313 -0.28125"/><path d="m 15.351562 14.417969 c 0.265626 0 0.484376 0.210937 0.484376 0.472656 c 0 0.257813 -0.21875 0.46875 -0.484376 0.46875 c -0.265624 0 -0.484374 -0.210937 -0.484374 -0.46875 c 0 -0.261719 0.21875 -0.472656 0.484374 -0.472656 m 0.09375 -3.769531 c 0.855469 0 1.546876 0.539062 1.546876 1.320312 c 0 0.28125 -0.195313 0.75 -0.578126 0.941406 c -0.390624 0.1875 -0.582031 0.441406 -0.582031 0.753906 v 0.375 h -0.964843 v -0.28125 c 0 -0.640624 0.578124 -1.039062 0.773437 -1.226562 c 0.382813 -0.375 0.382813 -0.429688 0.382813 -0.5625 c 0 -0.3125 -0.257813 -0.570312 -0.578126 -0.570312 c -0.320312 0 -0.578124 0.257812 -0.578124 0.570312 v 0.28125 h -0.96875 v -0.1875 c 0 -0.78125 0.695312 -1.414062 1.546874 -1.414062"/></g><path d="m 15.570312 6.539062 l 0.023438 0.023438 l 0.0625 -0.023438 m 0.710938 0.757813 l 4.371093 4.171875 v -4.171875" style="fill-opacity:0.196078"/><path d="m 15.46875 2.371094 l 5.167969 4.925781 h -4.371094 c -0.386719 0 -0.796875 -0.386719 -0.796875 -0.757813" style="fill:#fff;fill-opacity:0.392157"/></svg>