<svg xmlns="http://www.w3.org/2000/svg" viewBox="0 0 24 24"><defs><clipPath id="0"><path d="m 10.5 9.5 h 3.5 v 11 h -3.5"/></clipPath><clipPath id="1"><path d="m 19.121094 5.804688 h -18.132813 c -1.050781 0 -1.910156 0.746093 -1.910156 1.671874 v 15.898438 c 0 0.929688 0.859375 1.675781 1.910156 1.675781 h 18.132813 c 1.050781 0 1.910156 -0.746093 1.910156 -1.675781 v -15.898438 c 0 -0.925781 -0.859375 -1.671874 -1.910156 -1.671874"/></clipPath><clipPath id="2"><path d="m 6 9.5 h 4 v 11 h -4"/></clipPath></defs><path d="m 0.304688 14.746094 c 4.6875 22.492187 36.921874 -1.652344 17.558593 -13.085938 c -7.523437 -4.902344 -19.96875 1.519532 -17.558593 13.085938" style="fill:#ffa400"/><path d="m 13.984375 7.351562 l 0.027344 0.023438 l 0.0625 -0.023438 m 0.707031 0.757813 l 4.375 4.167969 v -4.167969" style="fill-opacity:0.196078"/><path d="m 13.984375 3.179688 l 5.171875 4.929687 h -4.375 c -0.382812 0 -0.796875 -0.390625 -0.796875 -0.757813" style="fill:#fff;fill-opacity:0.392157"/><g style="clip-path:url(#0)"><g style="clip-path:url(#1)"><path d="m 13.871094 12.5 c 0 1.25 -0.476563 2.089844 -0.957032 2.089844 v 5.441406 h -1.433593 v -5.441406 c -0.472657 0 -0.949219 -0.839844 -0.949219 -2.089844 c 0 -1.257812 0.476562 -2.515625 1.609375 -2.515625 c 1.253906 0 1.730469 1.257813 1.730469 2.515625" style="fill:#fff;fill-rule:evenodd"/></g></g><g style="clip-path:url(#2)"><g style="clip-path:url(#1)"><path d="m 9.335938 9.984375 c 0.046874 0 0.097656 0.015625 0.136718 0.039063 c 0.003906 0.007812 -0.003906 0.011718 0 0.015624 c 0.035156 0.058594 0.074219 0.121094 0.105469 0.183594 v 3.53125 c 0 0.417969 -0.476563 0.835938 -0.953125 0.835938 v 5.441406 h -1.433594 v -5.441406 c -0.476562 0 -0.953125 -0.417969 -0.953125 -0.835938 c 0 0 0.019531 -2.605468 0 -3.558594 c 0 -0.097656 0.128907 -0.207031 0.238281 -0.210937 c 0.101563 0.007813 0.238282 0.101563 0.238282 0.210937 v 3.140626 h 0.476562 v -3.140626 c 0 -0.097656 0.128906 -0.207031 0.238282 -0.210937 c 0.109374 0 0.238281 0.113281 0.238281 0.210937 v 3.140626 h 0.480469 v -3.140626 c 0 -0.097656 0.125 -0.207031 0.234374 -0.210937 c 0.109376 0 0.242188 0.113281 0.242188 0.210937 v 3.140626 h 0.476562 v -3.140626 c 0 -0.097656 0.128907 -0.207031 0.234376 -0.210937" style="fill:#fff;fill-rule:evenodd"/></g></g></svg>