<svg xmlns="http://www.w3.org/2000/svg" viewBox="0 0 24 24"><path d="m 23.695312 9.253906 c -4.6875 -22.492187 -36.921874 1.652344 -17.558593 13.085938 c 7.523437 4.902344 19.96875 -1.519532 17.558593 -13.085938" style="fill:#b0c3de"/><path d="m 15.296875 5.4375 l 0.023437 0.023438 l 0.070313 -0.023438 m 0.777344 0.6875 l 4.796875 3.796875 v -3.796875" style="fill-opacity:0.196078"/><path d="m 15.296875 1.640625 l 5.667969 4.484375 h -4.796875 c -0.425781 0 -0.871094 -0.351562 -0.871094 -0.6875 v -3.796875" style="fill:#fff;fill-opacity:0.392157"/><g style="fill:#191970"><path d="m 8.195312 8.78125 c 0.078126 0 0.144532 0.429688 0.144532 0.960938 v 6.664062 c 0 0.53125 -0.066406 0.960938 -0.144532 0.960938 c -0.078124 0 -0.140624 -0.429688 -0.140624 -0.960938 v -6.664062 c 0 -0.53125 0.0625 -0.960938 0.140624 -0.960938"/><path d="m 18.203125 17.21875 c 0 0.074219 -0.339844 0.132812 -0.757813 0.132812 h -8.648437 c -0.417969 0 -0.757813 -0.058593 -0.757813 -0.132812 c 0 -0.074219 0.339844 -0.132812 0.757813 -0.132812 h 8.648437 c 0.417969 0 0.757813 0.058593 0.757813 0.132812"/></g><path d="m 5.960938 6.492188 v 0.628906 h -0.644532 v 0.066406 h 0.644532 v 1.921875 h -0.644532 v 0.066406 h 0.644532 v 1.921875 h -0.644532 v 0.066406 h 0.644532 v 1.921876 h -0.644532 v 0.0625 h 0.644532 v 1.921874 h -0.644532 v 0.070313 h 0.644532 v 1.921875 h -0.644532 v 0.0625 h 0.644532 v 1.921875 h -0.644532 v 0.070313 h 0.644532 v 0.625 h 0.066406 v -0.625 h 1.96875 v 0.625 h 0.066406 v -0.625 h 1.96875 v 0.625 h 0.070312 v -0.625 h 1.96875 v 0.625 h 0.0625 v -0.625 h 1.96875 v 0.625 h 0.070313 v -0.625 h 1.96875 v 0.625 h 0.066406 v -0.625 h 1.96875 v 0.625 h 0.066407 v -0.625 h 0.644531 v -0.070313 h -0.644531 v -1.921875 h 0.644531 v -0.0625 h -0.644531 v -1.921875 h 0.644531 v -0.070313 h -0.644531 v -1.921874 h 0.644531 v -0.0625 h -0.644531 v -1.921876 h 0.644531 v -0.066406 h -0.644531 v -1.921875 h 0.644531 v -0.066406 h -0.644531 v -1.921875 h 0.644531 v -0.066406 h -0.644531 v -0.628906 h -0.066407 v 0.628906 h -1.96875 v -0.628906 h -0.066406 v 0.628906 h -1.96875 v -0.628906 h -0.070313 v 0.628906 h -1.96875 v -0.628906 h -0.0625 v 0.628906 h -1.96875 v -0.628906 h -0.070312 v 0.628906 h -1.96875 v -0.628906 h -0.066406 v 0.628906 h -1.96875 v -0.628906 m 0 0.695312 h 1.96875 v 1.921875 h -1.96875 m 2.035156 -1.921875 h 1.96875 v 1.921875 h -1.96875 m 2.039062 -1.921875 h 1.96875 v 1.921875 h -1.96875 m 2.035157 -1.921875 h 1.964843 v 1.921875 h -1.964843 m 2.035156 -1.921875 h 1.96875 v 1.921875 h -1.96875 m 2.035156 -1.921875 h 1.96875 v 1.921875 h -1.96875 m -10.179687 0.066406 h 1.96875 v 1.921875 h -1.96875 m 2.035156 -1.921875 h 1.96875 v 1.921875 h -1.96875 m 2.039062 -1.921875 h 1.96875 v 1.921875 h -1.96875 m 2.035157 -1.921875 h 1.964843 v 1.921875 h -1.964843 m 2.035156 -1.921875 h 1.96875 v 1.921875 h -1.96875 m 2.035156 -1.921875 h 1.96875 v 1.921875 h -1.96875 m -10.179687 0.066406 h 1.96875 v 1.921876 h -1.96875 m 2.035156 -1.921876 h 1.96875 v 1.921876 h -1.96875 m 2.039062 -1.921876 h 1.96875 v 1.921876 h -1.96875 m 2.035157 -1.921876 h 1.964843 v 1.921876 h -1.964843 m 2.035156 -1.921876 h 1.96875 v 1.921876 h -1.96875 m 2.035156 -1.921876 h 1.96875 v 1.921876 h -1.96875 m -10.179687 0.0625 h 1.96875 v 1.921874 h -1.96875 m 2.035156 -1.921874 h 1.96875 v 1.921874 h -1.96875 m 2.039062 -1.921874 h 1.96875 v 1.921874 h -1.96875 m 2.035157 -1.921874 h 1.964843 v 1.921874 h -1.964843 m 2.035156 -1.921874 h 1.96875 v 1.921874 h -1.96875 m 2.035156 -1.921874 h 1.96875 v 1.921874 h -1.96875 m -10.179687 0.070313 h 1.96875 v 1.921875 h -1.96875 m 2.035156 -1.921875 h 1.96875 v 1.921875 h -1.96875 m 2.039062 -1.921875 h 1.96875 v 1.921875 h -1.96875 m 2.035157 -1.921875 h 1.964843 v 1.921875 h -1.964843 m 2.035156 -1.921875 h 1.96875 v 1.921875 h -1.96875 m 2.035156 -1.921875 h 1.96875 v 1.921875 h -1.96875 m -10.179687 0.0625 h 1.96875 v 1.921875 h -1.96875 m 2.035156 -1.921875 h 1.96875 v 1.921875 h -1.96875 m 2.039062 -1.921875 h 1.96875 v 1.921875 h -1.96875 m 2.035157 -1.921875 h 1.964843 v 1.921875 h -1.964843 m 2.035156 -1.921875 h 1.96875 v 1.921875 h -1.96875 m 2.035156 -1.921875 h 1.96875 v 1.921875 h -1.96875" style="fill:#fff;fill-rule:evenodd"/><path d="m 15.488281 10.046875 c 0.039063 0.039063 0.019531 0.125 -0.042969 0.1875 l -6.945312 6.828125 c -0.066406 0.0625 -0.148438 0.085938 -0.191406 0.042969 c -0.039063 -0.039063 -0.019532 -0.121094 0.046875 -0.183594 l 6.945312 -6.832031 c 0.066407 -0.066406 0.148438 -0.082032 0.1875 -0.042969" style="fill:#ff4500"/></svg>