<svg xmlns="http://www.w3.org/2000/svg" viewBox="0 0 24 24"><defs><clipPath id="0"><path d="m 7 9.5 h 9 v 6 h -9"/></clipPath><clipPath id="1"><path d="m 3.96875 5.0625 h 14.078125 c 0.820313 0 1.484375 0.761719 1.484375 1.703125 v 16.171875 c 0 0.9375 -0.664062 1.703125 -1.484375 1.703125 h -14.078125 c -0.820312 0 -1.484375 -0.765625 -1.484375 -1.703125 v -16.171875 c 0 -0.941406 0.664063 -1.703125 1.484375 -1.703125"/></clipPath><clipPath id="2"><path d="m 6 13.5 h 9 v 6 h -9"/></clipPath></defs><path d="m 23.695312 9.253906 c -4.6875 -22.492187 -36.921874 1.652344 -17.558593 13.085938 c 7.523437 4.902344 19.96875 -1.519532 17.558593 -13.085938" style="fill:#c0c0c0"/><path d="m 14.179688 8.488281 l 0.023437 0.019531 l 0.070313 -0.019531 m 0.773437 0.691407 l 4.796875 3.796874 v -3.796874" style="fill-opacity:0.196078"/><path d="m 14.179688 4.691406 l 5.664062 4.488282 h -4.796875 c -0.421875 0 -0.867187 -0.359376 -0.867187 -0.691407 v -3.796875" style="fill:#fff;fill-opacity:0.392157"/><g style="clip-path:url(#0)"><g style="clip-path:url(#1)"><path d="m 14.921875 12.558594 c -0.679687 -1.714844 -2.195313 -2.816406 -3.90625 -2.816406 c -1.746094 0 -3.34375 1.203124 -3.976563 2.996093 l 1.328126 0.566407 c 0.417968 -1.195313 1.484374 -2 2.648437 -2 c 1.125 0 2.117187 0.71875 2.582031 1.835937 l -0.964844 0.421875 l 2.46875 1.570312 l 0.726563 -2.96875" style="fill:#fff"/></g></g><g style="clip-path:url(#2)"><g style="clip-path:url(#1)"><path d="m 11.015625 17.546875 c -1.117187 0 -2.132813 -0.734375 -2.585937 -1.84375 l 0.953124 -0.40625 l -2.445312 -1.53125 l -0.75 2.890625 l 0.914062 -0.390625 c 0.664063 1.703125 2.21875 2.84375 3.914063 2.84375 c 1.753906 0 3.304687 -1.15625 3.953125 -2.945313 l -1.3125 -0.578124 c -0.4375 1.195312 -1.46875 1.964843 -2.640625 1.964843" style="fill:#fff"/></g></g></svg>