
<svg xmlns="http://www.w3.org/2000/svg" xmlns:xlink="http://www.w3.org/1999/xlink" width="24px" height="24px" viewBox="0 0 24 24" version="1.1">
<g id="surface1">
<path style=" stroke:none;fill-rule:nonzero;fill:rgb(69.019608%,76.862745%,87.058824%);fill-opacity:1;" d="M 23.695312 9.253906 C 19.007812 -13.238281 -13.230469 10.90625 6.136719 22.339844 C 13.660156 27.242188 26.105469 20.820312 23.695312 9.253906 Z M 23.695312 9.253906 "/>
<path style=" stroke:none;fill-rule:nonzero;fill:rgb(0%,0%,0%);fill-opacity:0.196078;" d="M 14.898438 6.332031 L 14.921875 6.355469 L 14.984375 6.332031 Z M 15.691406 7.089844 L 20.0625 11.261719 L 20.0625 7.089844 Z M 15.691406 7.089844 "/>
<path style=" stroke:none;fill-rule:nonzero;fill:rgb(100%,100%,100%);fill-opacity:0.392157;" d="M 14.898438 2.164062 L 20.0625 7.089844 L 15.691406 7.089844 C 15.304688 7.089844 14.898438 6.699219 14.898438 6.332031 L 14.898438 2.164062 "/>
<path style=" stroke:none;fill-rule:nonzero;fill:rgb(23.921569%,26.27451%,29.019608%);fill-opacity:1;" d="M 15.363281 8.066406 C 12.9375 8.066406 12.484375 11.277344 13.847656 11.277344 C 15.210938 11.277344 17.789062 8.066406 15.363281 8.066406 Z M 15.363281 8.066406 "/>
<path style=" stroke:none;fill-rule:nonzero;fill:rgb(23.921569%,26.27451%,29.019608%);fill-opacity:1;" d="M 11.335938 10.878906 C 12.0625 10.921875 12.859375 8.300781 11.496094 8.464844 C 10.128906 8.632812 10.609375 10.839844 11.335938 10.878906 Z M 11.335938 10.878906 "/>
<path style=" stroke:none;fill-rule:nonzero;fill:rgb(23.921569%,26.27451%,29.019608%);fill-opacity:1;" d="M 8.007812 12.507812 C 8.523438 12.296875 8.074219 10.226562 7.195312 10.792969 C 6.316406 11.355469 7.492188 12.71875 8.007812 12.507812 Z M 8.007812 12.507812 "/>
<path style=" stroke:none;fill-rule:nonzero;fill:rgb(23.921569%,26.27451%,29.019608%);fill-opacity:1;" d="M 9.464844 11.425781 C 10.078125 11.308594 10.113281 8.960938 9.015625 9.382812 C 7.917969 9.804688 8.847656 11.542969 9.464844 11.425781 Z M 9.464844 11.425781 "/>
<path style=" stroke:none;fill-rule:nonzero;fill:rgb(23.921569%,26.27451%,29.019608%);fill-opacity:1;" d="M 12.675781 16.675781 C 12.785156 17.453125 12.0625 17.835938 11.359375 17.335938 C 9.109375 15.746094 15.078125 14.949219 14.683594 12.777344 C 14.355469 10.972656 8.40625 11.527344 7.730469 14.351562 C 7.269531 16.261719 9.617188 18.910156 12.066406 18.910156 C 13.269531 18.910156 14.660156 17.898438 14.917969 16.617188 C 15.117188 15.640625 12.582031 16.03125 12.675781 16.675781 Z M 12.675781 16.675781 "/>
</g>
</svg>
