<svg xmlns="http://www.w3.org/2000/svg" viewBox="0 0 24 24"><g style="fill:#efefef"><path d="m 16.917969 14.992188 h -6.558594 l -1.636719 2.988281 h 6.558594" style="fill-opacity:0.901961"/><path d="m 16.917969 14.992188 l -3.277344 -5.980469 h -3.28125 l 3.28125 5.980469"/><path d="m 12 12 l -1.640625 -2.988281 l -3.277344 5.980469 l 1.640625 2.988281" style="fill-opacity:0.94902"/></g><path d="m 19.730469 3.378906 c 18.761719 24.972656 -32.867188 28.519532 -16.300781 3.027344 c 3.78125 -5.8125 11.332031 -9.640625 16.300781 -3.027344" style="fill:#38a34e"/><path d="m 14.4375 7.953125 l 0.023438 0.023437 l 0.0625 -0.023437 m 0.699218 0.753906 l 4.324219 4.136719 v -4.136719" style="fill-opacity:0.196078"/><g style="fill:#fff"><path d="m 14.4375 3.820312 l 5.109375 4.886719 h -4.324219 c -0.382812 0 -0.785156 -0.386719 -0.785156 -0.753906" style="fill-opacity:0.392157"/><path d="m 7.410156 9.273438 c -0.613281 0 -1.535156 1.25 -1.050781 1.699218 l 2.519531 2.339844 c 0.097656 -0.195312 0.214844 -0.398438 0.386719 -0.59375 c 0.1875 -0.207031 0.363281 -0.34375 0.53125 -0.457031 l -1.902344 -2.613281 c -0.199219 -0.222657 -0.230469 -0.375 -0.484375 -0.375 m 4.640625 2.976562 c -0.132812 0 -0.269531 0.003906 -0.402343 0.007812 c -0.546876 0 -1.125 0.101563 -1.632813 0.296876 c -0.367187 0.304687 -0.617187 0.644531 -0.859375 1.050781 c -0.484375 1.382812 0.09375 3.714843 2.203125 4.253906 c 2.390625 0.609375 2.519531 -0.046875 3.542969 0.679687 c 1.027344 0.726563 0.453125 1.828126 0.941406 1.523438 c 0.25 -0.15625 1.046875 -1.3125 0.75 -3.203125 c -0.320312 -2.027344 -1.15625 -3.109375 -1.992188 -3.84375 c -0.652343 -0.570313 -1.617187 -0.765625 -2.550781 -0.765625"/></g></svg>