/* XPM */
static char * hide_prelight_xpm[] = {
"24 24 52 1",
" 	c None",
".	c #21252B",
"+	c #353B48",
"@	c #2F343F",
"#	c #403F3B",
"$	c #896D27",
"%	c #C39420",
"&	c #E0A920",
"*	c #896C27",
"=	c #3F3E3B",
"-	c #6B592F",
";	c #DDA720",
">	c #F6C031",
",	c #FAC536",
"'	c #DDA620",
")	c #6A582F",
"!	c #6A592F",
"~	c #EAB324",
"{	c #69582F",
"]	c #DCA520",
"^	c #3F3E3A",
"/	c #886B27",
"(	c #C29421",
"_	c #C29321",
":	c #E0A91F",
"<	c #DBA32B",
"[	c #C08522",
"}	c #DCA42B",
"|	c #DFA81F",
"1	c #E0A81F",
"2	c #DCA52C",
"3	c #C28723",
"4	c #DDA52C",
"5	c #DEA71F",
"6	c #C29221",
"7	c #C19221",
"8	c #886B28",
"9	c #866B27",
"0	c #3F3D3A",
"a	c #DBA420",
"b	c #3E3D3A",
"c	c #67572F",
"d	c #EAB123",
"e	c #68572F",
"f	c #DBA520",
"g	c #D9A41F",
"h	c #67562F",
"i	c #3E3D3B",
"j	c #866A27",
"k	c #C09120",
"l	c #BF9120",
"m	c #856A27",
"........................",
"++++++++++++++++++++++++",
"@@@@@@@@@@@@@@@@@@@@@@@@",
"@@@@@@@@@@@@@@@@@@@@@@@@",
"@@@@@@@@@@@@@@@@@@@@@@@@",
"@@@@@@@@#$%&&%*=@@@@@@@@",
"@@@@@@@-;>,,,,>')@@@@@@@",
"@@@@@@!~,,,,,,,,~{@@@@@@",
"@@@@@=',,,,,,,,,,]^@@@@@",
"@@@@@*>,,,,,,,,,,>/@@@@@",
"@@@@@(,,,,,,,,,,,,_@@@@@",
"@@@@@:,<[[[[[[[[},|@@@@@",
"@@@@@1,2333333334,5@@@@@",
"@@@@@6,,,,,,,,,,,,7@@@@@",
"@@@@@8>,,,,,,,,,,>9@@@@@",
"@@@@@0a,,,,,,,,,,ab@@@@@",
"@@@@@@cd,,,,,,,,dc@@@@@@",
"@@@@@@@ef>,,,,>gh@@@@@@@",
"@@@@@@@@ijk''lmi@@@@@@@@",
"@@@@@@@@@@@@@@@@@@@@@@@@",
"@@@@@@@@@@@@@@@@@@@@@@@@",
"@@@@@@@@@@@@@@@@@@@@@@@@",
"@@@@@@@@@@@@@@@@@@@@@@@@",
"@@@@@@@@@@@@@@@@@@@@@@@@"};
