<svg xmlns="http://www.w3.org/2000/svg" viewBox="0 0 256 256"><defs><clipPath><path d="m 148 97 h 77.63 v 24 h -77.62"/></clipPath><clipPath><path d="m 171 132 h 54.625 v 24 h -54.625"/></clipPath><clipPath><path d="m 74 56.824 h 129 v 139.69 h -129"/></clipPath><clipPath><path d="m 27.707 56.824 h 82.29 v 139.69 h -82.29"/></clipPath></defs><g transform="translate(0 -796.36)"><path d="m 60.17 822.74 c 130.93 -92.05 263.6 77.948 156.91 186.39 -100.51 102.17 -256.68 7.449 -207.86 -119.69 10.185 -26.526 26.914 -49.802 50.948 -66.7 z" style="fill:#000000;color:#000"/><path d="m 132.84 948.97 c -0.173 -16.18 14.173 -23.934 14.814 -24.319 -8.06 -10.979 -20.618 -12.483 -25.09 -12.657 -10.686 -1.01 -20.852 5.856 -26.28 5.856 -5.41 0 -13.779 -5.707 -22.641 -5.557 -11.648 0.161 -22.388 6.304 -28.385 16.01 -12.1 19.546 -3.099 48.5 8.696 64.35 5.764 7.76 12.636 16.475 21.66 16.16 8.69 -0.322 11.976 -5.234 22.481 -5.234 10.505 0 13.459 5.234 22.654 5.073 9.351 -0.161 15.275 -7.908 20.999 -15.691 6.619 -9 9.344 -17.717 9.505 -18.16 -0.208 -0.089 -18.234 -6.516 -18.415 -25.837 z m -17.279 -47.47 c 4.789 -5.408 8.02 -12.912 7.14 -20.397 -6.899 0.261 -15.261 4.277 -20.21 9.673 -4.441 4.787 -8.329 12.427 -7.287 19.763 7.701 0.56 15.563 -3.643 20.357 -9.04 z" style="fill:#fff"/></g></svg>