<svg xmlns="http://www.w3.org/2000/svg" viewBox="0 0 256 256"><g transform="translate(0 -796.36)"><path d="m 211.17 833.49 c 201.82 266.38 -353.59 304.22 -175.35 32.31 40.634 -61.991 121.89 -102.86 175.35 -32.31 z" style="fill:#add8e6;color:#000"/><path d="m 110.83 865.75 c -19.432 -5.717 -41.44 6.787 -47.33 26.989 -5.131 13.955 -5.763 30.31 2.254 43.29 12.596 22.68 29.22 42.517 44.13 63.51 13.05 -4.795 25.907 -12.497 38.914 -18.338 15.387 -8.476 33.682 -13.99 44.852 -28.765 8.931 -12.731 11.6 -29.986 5.276 -44.577 -8.888 -21.03 -33.769 -30.638 -54.43 -25.09 -7.141 3.184 -10.571 -6.077 -16.389 -8.838 -5.246 -3.74 -11.09 -6.616 -17.272 -8.183 z" style="fill:#fff"/></g></svg>