<svg xmlns="http://www.w3.org/2000/svg" viewBox="0 0 256 256"><path d="m 193.89 224.63 c 226.71 -210.75 -241.2 -343.53 -189.6 -63.746 25.452 73.816 116.81 131.42 189.6 63.746 z" style="fill:#00BFFF;color:#000"/><g transform="matrix(8.23164 0 0 8.23164 32.03 33.11)" style="fill:#fff"><path d="m 11 2 c -4.971 0 -9 4.03 -9 9 0 4.971 4.03 9 9 9 4.971 0 9 -4.03 9 -9 0 -4.971 -4.03 -9 -9 -9 z m 0 2 c 3.866 0 7 3.135 7 7 0 3.867 -3.134 7 -7 7 c -3.866 0 -7 -3.133 -7 -7 0 -3.865 3.134 -7 7 -7 z"/><path d="m 15.143,12.804 v -6.38 c 0,-0.275 -0.205,-0.462 -0.457,-0.417 L 10.092,6.842 C 9.84,6.887 9.635,7.149 9.635,7.425 v 5.135 l 0.008,0.013 c -0.492,-0.15 -1.108,-0.065 -1.671,0.289 -0.938,0.588 -1.369,1.69 -0.963,2.456 0.406,0.766 1.497,0.909 2.434,0.318 0.666,-0.418 1.068,-1.092 1.106,-1.722 L 10.56,13.93 V 8.576 c 0,-0.274 0.157,-0.538 0.409,-0.582 L 13.76,7.491 c 0.252,-0.045 0.457,0.143 0.457,0.418 v 3.649 l 0.01,0.014 c -0.492,-0.15 -1.109,-0.065 -1.672,0.289 -0.938,0.588 -1.369,1.689 -0.963,2.455 0.406,0.766 1.496,0.91 2.434,0.318 0.665,-0.418 1.068,-1.091 1.106,-1.721 l 0.011,0.016 v -0.125 z"/></g></svg>