<svg xmlns="http://www.w3.org/2000/svg" viewBox="0 0 256 256"><defs><clipPath><path d="M 0,64 H64 V128 H0 z"/></clipPath></defs><g style="color:#000"><path d="m -1360.14 1641.33 c 46.11 -98.28 -119.59 -146.07 -181.85 -106.06 -62.25 40.01 -83.52 108.58 -13.01 143.08 70.51 34.501 148.75 61.26 194.86 -37.03 z" transform="matrix(0 1.03665 -1.35742 0 2320.8 1657.7)" style="fill:#ff8c00"/></g><g transform="matrix(8.86441 0 0 8.59307 28.322 41.07)"><path d="m 4,3 v 6 1 3.461 1.414 0.125 1 1 H 3 v 1 h 1 v 1 H 5 V 18 H 18.293 19 V 17.293 17 H 18.707 17.293 5 V 15.432 15.424 15 13.875 L 8.998,9.877 11.121,12 11.127,11.996 11.131,12 19,4.125 V 3 h -0.289 c 0.0072,-0.012362 -7.584,7.5898 -7.584,7.5898 L 9,8.4646 8.998,8.4666 8.9961,8.4646 5,12.4608 v -0.03711 -1 -0.424 -1 -1 -3 -0.0078 -0.9922 -2 H 4 z" style="opacity:0.5"/><path d="M 19,4.125 11.131,12 11.127,11.996 11.121,12 8.998,9.877 5,13.875 V 17 H 19 V 4.125 z" style="opacity:0.2;color:#4d4d4d;fill-rule:evenodd"/></g><path d="m 64.16 199.16 c 0 -4.339 0 -4.339 -4.339 -4.339 -4.236 0 -4.339 -0.09 -4.339 -3.797 0 -3.706 0.103 -3.797 4.339 -3.797 h 4.339 v -59.661 v -59.661 h 3.797 h 3.797 v 40.23 c 0 23.886 0.403 40.08 0.993 39.864 0.546 -0.199 8.765 -7.774 18.264 -16.834 l 17.271 -16.473 l 8.558 8.608 c 4.707 4.735 9.128 8.608 9.825 8.608 0.697 0 16.01 -14.278 34.02 -31.729 18.01 -17.451 33.442 -31.887 34.28 -32.08 1.114 -0.255 1.532 0.783 1.532 3.804 0 3.991 -0.95 5.075 -24.14 27.541 -13.275 12.862 -28.901 27.933 -34.725 33.489 l -10.589 10.1 l -9.596 -8.77 l -9.596 -8.77 l -18.05 17.401 l -18.05 17.401 v 13.466 v 13.466 h 62.37 h 62.37 v 3.797 v 3.797 h -62.37 h -62.37 v 4.339 c 0 4.236 -0.09 4.339 -3.797 4.339 -3.706 0 -3.797 -0.103 -3.797 -4.339 z" style="fill:#fff;stroke:#fff;fill-rule:evenodd;stroke-width:5.938"/></svg>