<svg xmlns="http://www.w3.org/2000/svg" viewBox="0 0 256 256"><defs><clipPath><path transform="matrix(15.33333 0 0 11.5 415 -125.5)" d="m -24 13 c 0 1.105 -0.672 2 -1.5 2 -0.828 0 -1.5 -0.895 -1.5 -2 0 -1.105 0.672 -2 1.5 -2 0.828 0 1.5 0.895 1.5 2 z"/></clipPath></defs><g transform="translate(-0.004 0.55)"><path d="m 291.82 921.19 c 200.11 265.25 -350.59 302.94 -173.86 32.17 40.29 -61.728 120.86 -102.43 173.86 -32.17 z" transform="translate(-80.27 -883.14)" style="fill:#ff8c00;color:#000"/><path d="m 63.12 202.45 v -9.28 l 3.911 -0.305 l 3.911 -0.305 l 20.646 -61.935 c 11.356 -34.06 21.716 -65.16 23.02 -69.1 l 2.377 -7.167 l 8.758 0.285 l 8.758 0.285 l 24.26 69.06 l 24.26 69.06 h 4.048 h 4.048 v 9.339 v 9.339 h -64 h -64 v -9.28 z m 94.7 -10.136 c 0.025 -0.406 -2.032 -7.269 -4.571 -15.252 l -4.617 -14.515 l -23.04 0.26 l -23.04 0.26 l -4.074 12.289 c -2.24 6.759 -4.373 13.505 -4.739 14.992 l -0.666 2.704 h 32.354 c 17.795 0 32.375 -0.332 32.4 -0.737 z m -16.18 -49.647 c 0.009 -2.05 -15.372 -48.91 -16.05 -48.893 -0.592 0.015 -16.325 47.805 -16.257 49.38 0.017 0.406 7.292 0.737 16.17 0.737 12.188 0 16.14 -0.301 16.14 -1.229 z" style="fill:#fff"/></g></svg>