<svg xmlns="http://www.w3.org/2000/svg" viewBox="0 0 256 256"><path d="m 22.01 203.47 c 48.541 88.14 200.63 53.931 226.36 -18.64 30.66 -86.45 -49.14 -250.63 -184.3 -154.45 -45.527 33.585 -90.6 84.949 -42.05 173.09 z" style="fill:#ff8c00;color:#000"/><g transform="matrix(9.17175 0 0 10.0395 56.01 50.799)" style="enable-background:new"><path d="M 5,1 C 4.446,1 4,1.446 4,2 V 5 H 2 C 1.446,5 1,5.446 1,6 v 8 c 0,0.554 0.446,1 1,1 h 7 v -3 -1 h 6 V 6 C 15,5.446 14.554,5 14,5 H 12 V 2 C 12,1.446 11.554,1 11,1 H 5 z m 1,2 h 4 V 5 H 6 V 3 z m 4,9 v 2 h 6 v -2 h -6 z" style="opacity:0.5"/></g><g style="fill:#fff;stroke:#fff;fill-rule:evenodd;stroke-width:5.938"><path d="m 68.55 197.8 l -2.663 -2.663 v -43.823 v -43.823 l 2.66 -2.87 c 2.534 -2.734 3.172 -2.87 13.485 -2.87 h 10.825 l 0.346 -17.272 c 0.331 -16.554 0.455 -17.388 2.976 -20.07 l 2.63 -2.796 l 30.455 0.035 c 32.789 0.037 33.12 0.091 35.29 5.819 0.62 1.631 1.127 10.01 1.127 18.623 v 15.658 h 10.897 c 10.123 0 11.09 0.189 13.559 2.663 l 2.663 2.663 v 26.626 v 26.626 h -27.12 h -27.12 v 20.07 v 20.07 h -33.676 h -33.676 l -2.663 -2.663 z m 79.78 -106.9 v -10.847 h -18.983 h -18.983 v 10.847 v 10.847 h 18.983 h 18.983 v -10.847 z"/><path d="m 148.33 181.48 v -9.22 h 27.12 h 27.12 v 9.22 v 9.22 h -27.12 h -27.12 v -9.22 z"/></g></svg>