<svg xmlns="http://www.w3.org/2000/svg" viewBox="0 0 256 256"><defs><clipPath><path d="m 171 132 h 54.625 v 24 h -54.625"/></clipPath><clipPath><path d="m 148 97 h 77.63 v 24 h -77.62"/></clipPath><clipPath><path d="m 27.707 56.824 h 82.29 v 139.69 h -82.29"/></clipPath><clipPath><path d="m 74 56.824 h 129 v 139.69 h -129"/></clipPath></defs><g transform="translate(0 -796.36)"><path d="m 60.17 822.74 c 130.93 -92.05 263.6 77.948 156.91 186.39 -100.51 102.17 -256.68 7.449 -207.86 -119.69 10.185 -26.526 26.914 -49.802 50.948 -66.7 z" style="fill:#dcdcdc;color:#000"/><path d="m 126.37 864.89 c -28.78 37.31 -52.31 58.748 -52.763 78.77 0 11.939 5.69 23.801 15.458 32.24 9.767 8.442 23.492 13.36 37.3 13.36 13.813 0 27.537 -4.918 37.3 -13.36 9.767 -8.442 15.458 -20.304 15.458 -32.24 -0.377 -20.931 -23.983 -41.458 -52.763 -78.77 z m -38.34 61.709 a 47.966 41.458 0 0 0 -0.029 0.478 47.966 41.458 0 0 0 47.966 41.458 47.966 41.458 0 0 0 29.18 -8.591 43.17 37.31 0 0 1 -38.776 21.03 43.17 37.31 0 0 1 -43.17 -37.31 43.17 37.31 0 0 1 4.825 -17.06 z" style="fill:#fff"/></g></svg>