<svg xmlns="http://www.w3.org/2000/svg" xmlns:xlink="http://www.w3.org/1999/xlink" viewBox="0 0 256 256"><defs><path id="0" d="m 6.326 4.674 c -1.312 0 -2.367 1.38 -2.367 3.094 v 46 c 0 1.714 1.056 3.094 2.367 3.094 h 47.45 c 1.312 0 2.367 -1.38 2.367 -3.094 v -46 c 0 -1.714 -1.056 -3.094 -2.367 -3.094 h -47.45 z"/><clipPath><path d="m -24 13 c 0 1.105 -0.672 2 -1.5 2 -0.828 0 -1.5 -0.895 -1.5 -2 0 -1.105 0.672 -2 1.5 -2 0.828 0 1.5 0.895 1.5 2 z" transform="matrix(15.33333 0 0 11.5 415 -125.5)"/></clipPath></defs><path transform="translate(0.508 2.624)" d="m 222.65 37.868 c 145.18 221.56 -251.35 307.3 -219.76 79.37 12.881 -92.96 164.23 -164.13 219.76 -79.37 z" style="fill:#ff8c00;color:#000"/><g transform="matrix(2.38519 0 0 2.45675 56.865 58.38)"><use xlink:href="#0" style="fill:none;stroke:#fff;stroke-linecap:round;stroke-linejoin:round;stroke-width:8.375"/><g style="fill:#fff;fill-rule:evenodd"><use xlink:href="#0"/><path d="m 6.28 4.482 c -1.286 0 -2.321 1.035 -2.321 2.321 v 4.079 c 0 1.286 1.035 2.321 2.321 2.321 h 47.542 c 1.286 0 2.321 -1.035 2.321 -2.321 v -4.079 c 0 -1.286 -1.035 -2.321 -2.321 -2.321 h -47.542 z" style="stroke-linecap:round;stroke-linejoin:round;stroke-width:3.125"/></g><g style="fill:none;stroke:#ff8c00;stroke-linecap:round;stroke-linejoin:round"><path d="m 53.03 7.614 l -2.706 2.706 m -0.063 -2.769 l 2.769 2.769" style="stroke-width:1.933"/><g style="stroke-width:3.221"><use xlink:href="#0"/><path d="m 3.959 10.882 c 0 1.286 1.035 2.321 2.321 2.321 h 47.546 c 1.286 0 2.321 -1.035 2.321 -2.321"/></g></g></g></svg>