<svg xmlns="http://www.w3.org/2000/svg" viewBox="0 0 256 256"><defs><clipPath><path d="m -24 13 c 0 1.105 -0.672 2 -1.5 2 -0.828 0 -1.5 -0.895 -1.5 -2 0 -1.105 0.672 -2 1.5 -2 0.828 0 1.5 0.895 1.5 2 z" transform="matrix(15.33333 0 0 11.5 415 -125.5)"/></clipPath></defs><path transform="translate(-80.27 -882.59)" d="m 291.82 921.19 c 200.11 265.25 -350.59 302.94 -173.86 32.17 40.29 -61.728 120.86 -102.43 173.86 -32.17 z" style="fill:#ff8c00;color:#000"/><g transform="matrix(2.49434 0 0 2.8134 56.42 52.28)"><path d="m 46.753 55.31 v -50.625 h -33.506 v 50.625" style="fill:none;stroke:#fff;stroke-linecap:round;stroke-linejoin:round;stroke-width:10.384"/><path d="m 46.858 4.687 v 49.892 h -33.471 v -49.892 h 33.471 z" style="fill:#fff;fill-rule:evenodd;stroke-width:2.685"/><g style="fill:none;stroke:#ff8c00;stroke-linecap:round;stroke-linejoin:round"><g style="stroke-width:5.192"><path d="m 46.753 55.31 v -50.625 h -33.506 v 50.625"/><path d="m 45.45 30.77 h -17.612"/></g><g style="stroke-width:3.245"><path d="m 45.45 11.81 h -10.649"/><path d="m 45.45 17.513 h -10.649"/><path d="m 45.45 23.22 h -10.649"/><path d="m 45.45 38.32 h -10.649"/><path d="m 45.45 44.03 h -10.649"/><path d="m 45.45 49.73 h -10.649"/></g></g></g></svg>