<svg xmlns="http://www.w3.org/2000/svg" viewBox="0 0 256 256"><defs><clipPath><path transform="matrix(15.33333 0 0 11.5 415 -125.5)" d="m -24 13 c 0 1.105 -0.672 2 -1.5 2 -0.828 0 -1.5 -0.895 -1.5 -2 0 -1.105 0.672 -2 1.5 -2 0.828 0 1.5 0.895 1.5 2 z"/></clipPath></defs><g transform="translate(-0.004 0.55)"><path d="m 291.82 921.19 c 200.11 265.25 -350.59 302.94 -173.86 32.17 40.29 -61.728 120.86 -102.43 173.86 -32.17 z" transform="matrix(1 0 0 -1 -80.27 1140.21)" style="fill:#ff8c00;color:#000"/><path d="m 101.8 166.53 v -22.429 h -25.309 h -25.309 v -45.37 v -45.37 h 50.08 h 50.08 v 22.939 v 22.939 h 25.309 h 25.309 v 44.858 v 44.858 h -50.08 h -50.08 v -22.429 z" style="fill:#fff"/></g></svg>