<svg xmlns="http://www.w3.org/2000/svg" viewBox="0 0 256 256"><defs><clipPath><path transform="matrix(15.33333 0 0 11.5 415 -125.5)" d="m -24 13 c 0 1.105 -0.672 2 -1.5 2 -0.828 0 -1.5 -0.895 -1.5 -2 0 -1.105 0.672 -2 1.5 -2 0.828 0 1.5 0.895 1.5 2 z"/></clipPath></defs><path d="m 27.14 54.43 c -126.21 188.96 276.27 305.35 222.99 61.07 -22.706 -100.95 -165.11 -162.22 -222.99 -61.07 z" style="fill:#ff8c00;color:#000"/><g transform="matrix(2.7574 0 0 2.54066 55.32 54.49)" style="stroke-linecap:round;stroke-linejoin:round"><path d="m 8.5 8.375 c -0.511 0 -0.938 0.427 -0.938 0.938 l -0.031 40.688 c 0 0.857 0.705 1.563 1.563 1.563 h 0.25 c 0.061 0.007 0.092 0.063 0.156 0.063 h 36.16 c 0.857 0 1.668 -0.669 1.813 -1.469 l 4.969 -27.375 c 0.145 -0.8 -0.424 -1.438 -1.281 -1.438 h -4.344 v -7.219 c 0 -0.857 -0.705 -1.563 -1.563 -1.563 h -14.281 v -3.25 c 0 -0.511 -0.427 -0.938 -0.938 -0.938 h -21.531 z" style="fill:#ff8c00;stroke:#ff8c00;stroke-width:8.125"/><g style="fill:#ffdead;stroke:#fff;fill-rule:evenodd"><path transform="matrix(0.97022 0 0 0.97022 0.519 0.151)" d="m 8.232 8.487 c -0.526 0 -0.969 0.443 -0.969 0.969 l -0.031 41.938 c 0 0.884 0.71 1.594 1.594 1.594 h 37.28 c 0.884 0 1.594 -0.71 1.594 -1.594 v -37 c 0 -0.884 -0.71 -1.594 -1.594 -1.594 h -14.719 v -3.344 c 0 -0.526 -0.442 -0.969 -0.969 -0.969 h -22.19 z" style="stroke-width:3.221"/><path d="m 26.628 23.398 c -0.884 0 -1.595 0.712 -1.595 1.595 v 30.26 c 0 0.884 0.712 1.595 1.595 1.595 h 37.29 c 0.884 0 1.595 -0.712 1.595 -1.595 v -30.26 c 0 -0.884 -0.712 -1.595 -1.595 -1.595 h -37.29 z" transform="matrix(0.97022 0 -0.16398 0.9053 -7.02 0.151)" style="stroke-width:3.334"/></g></g></svg>