<svg xmlns="http://www.w3.org/2000/svg" viewBox="0 0 256 256"><g transform="translate(0 -796.36)"><g transform="matrix(-1 0 0 1 256 0)" style="fill:#ff8c00;color:#000"><path d="m 231.03 999.59 c 127.95 -192.46 -280.09 -311 -226.07 -62.2 23.02 102.82 167.39 165.22 226.07 62.2 z"/><path d="m 125.84 850.43 c -0.138 0.002 -0.277 0.011 -0.414 0.024 -1.45 0.051 -2.843 0.714 -3.579 1.704 l -20.866 28.658 l -20.891 28.658 c -0.755 1.048 -0.749 2.415 0.016 3.459 0.765 1.044 2.259 1.726 3.783 1.728 h 23.25 v 65.16 c 0 4.36 3.529 7.865 7.889 7.865 h 21.232 c 4.36 0 7.889 -3.504 7.889 -7.865 v -65.16 h 23.25 c 1.524 -0.001 3.02 -0.683 3.783 -1.728 0.765 -1.044 0.771 -2.41 0.016 -3.459 l -20.891 -28.658 l -20.866 -28.658 c -0.733 -1 -2.14 -1.679 -3.604 -1.729 z"/><path d="m 125.83 850.43 c -0.138 0.002 -0.279 0.014 -0.417 0.028 -1.45 0.051 -2.847 0.732 -3.584 1.722 l -20.864 28.642 l -20.891 28.67 c -0.755 1.048 -0.737 2.401 0.028 3.445 0.765 1.044 2.254 1.721 3.778 1.722 h 23.25 v 65.17 c 0 4.36 3.53 7.862 7.89 7.862 h 10.862 v -137.27 c -0.018 -0.001 -0.037 0.001 -0.055 0 z"/></g><path transform="matrix(8.33696 0 0 8.94837 40.902 828.38)" d="m 3.631 3 c -0.185 0.148 -0.427 0.302 -0.631 0.406 l 0.086 0.389 c 0.166 -0.06 0.317 -0.164 0.502 -0.301 v 3.506 h 0.412 v -4 h -0.369 z m 4.369 1 v 1 h 11 v -1 h -11 z m -3.863 5 c -0.154 0 -0.324 0.022 -0.51 0.066 -0.186 0.044 -0.388 0.107 -0.602 0.193 v 0.537 c 0.211 -0.118 0.41 -0.204 0.594 -0.262 0.186 -0.058 0.361 -0.088 0.527 -0.088 c 0.235 0 0.427 0.066 0.572 0.197 0.147 0.132 0.221 0.301 0.221 0.509 0 0.128 -0.035 0.26 -0.104 0.393 c -0.067 0.131 -0.183 0.293 -0.353 0.484 -0.09 0.102 -0.309 0.329 -0.658 0.682 -0.347 0.351 -0.622 0.631 -0.824 0.84 v 0.447 h 2.494 v -0.447 h -1.855 c 0.428 -0.437 0.761 -0.776 0.996 -1.018 0.235 -0.244 0.374 -0.393 0.418 -0.443 0.16 -0.197 0.269 -0.366 0.328 -0.51 0.061 -0.146 0.094 -0.3 0.094 -0.461 c 0 -0.34 -0.121 -0.613 -0.363 -0.816 -0.242 -0.204 -0.568 -0.305 -0.975 -0.305 z m 3.863 1 v 1 h 11 v -1 h -11 z m -3.889 5 c -0.534 0 -0.878 0.117 -1.111 0.297 l 0.148 0.375 c 0.206 -0.164 0.507 -0.276 0.861 -0.276 0.455 0 0.709 0.191 0.709 0.62 0 0.608 -0.56 0.677 -1.152 0.677 v 0.381 c 0.72 0 1.291 0.112 1.291 0.805 0 0.471 -0.344 0.73 -0.851 0.73 -0.392 0 -0.662 -0.127 -0.857 -0.281 l -0.148 0.375 c 0.143 0.138 0.507 0.297 1.01 0.297 c 0.751 0 1.303 -0.429 1.303 -1.117 0 -0.545 -0.303 -0.894 -0.773 -1 0.418 -0.127 0.678 -0.429 0.678 -0.926 c 0 -0.619 -0.534 -0.957 -1.106 -0.957 z m 3.889 1 v 1 h 11 v -1 h -11 z" style="fill:#fff"/></g></svg>