<svg xmlns="http://www.w3.org/2000/svg" viewBox="0 0 256 256"><defs><clipPath><path d="M 0,64 H64 V128 H0 z"/></clipPath></defs><g style="color:#000"><path d="m -1360.14 1641.33 c 46.11 -98.28 -119.59 -146.07 -181.85 -106.06 -62.25 40.01 -83.52 108.58 -13.01 143.08 70.51 34.501 148.75 61.26 194.86 -37.03 z" transform="matrix(1.03665 0 0 -1.35742 1657.71 2320.79)" style="fill:#ff8c00"/></g><path d="m 473.71 532.79 v 1 v 1 v 0.313 l -8.688 8.688 h -0.313 h -1 h -1 v 3 h 3 v -2.313 l 8.688 -8.688 h 2.313 v -3 h -3 z" transform="matrix(8.90315 0 0 8.74818 -4057.19 -4595.27)" style="opacity:0.5"/><path d="m 63.08 174.75 v -12.475 h 10.244 h 10.244 l 38.3 -37.695 l 38.3 -37.695 l 0.309 -10.576 l 0.309 -10.576 h 12.979 h 12.979 v 13.02 v 13.02 h -10.406 h -10.406 l -38.41 37.607 l -38.41 37.607 v 10.122 v 10.122 h -13.02 h -13.02 v -12.475 z" style="fill:#fff;stroke:#fff;fill-rule:evenodd;stroke-width:5.938"/></svg>