<svg xmlns="http://www.w3.org/2000/svg" viewBox="0 0 256 256"><defs><clipPath><path d="m 27.707 56.824 h 82.29 v 139.69 h -82.29"/></clipPath><clipPath><path d="m 74 56.824 h 129 v 139.69 h -129"/></clipPath><clipPath><path d="m 171 132 h 54.625 v 24 h -54.625"/></clipPath><clipPath><path d="m 148 97 h 77.63 v 24 h -77.62"/></clipPath></defs><g transform="translate(0 -796.36)"><path d="m 195.83 822.74 c -130.93 -92.05 -263.6 77.948 -156.91 186.39 100.51 102.17 256.68 7.449 207.86 -119.69 -10.185 -26.526 -26.914 -49.802 -50.948 -66.7 z" style="fill:#0040e5;color:#000"/><g transform="matrix(-4.80788 0 0 5.21573 215.54 661.94)" style="stroke:#000;stroke-linecap:round;stroke-linejoin:round;stroke-width:0.476"><path d="m 8.233 62.25 h 5.715 l 0.026 -12.525 l -5.741 3.893 v 8.631 z" style="fill:#ff0"/><path d="m 1.827 62.26 h 6.31 v -8.581 l -6.31 2.035 v 0.032 v 6.514 z" style="fill:#0f0"/><path d="m 19.595 62.27 h 5.472 l 0.038 -20.416 l -5.521 1.947 l 0.011 18.47 z" style="fill:#ff0"/><g style="fill:#f00"><path d="m 14 62.27 h 5.502 l 0.04 -18.405 l -5.552 5.848 l 0.011 12.556 z"/><path d="m 25.09 62.26 h 5.463 l 0.012 -23.552 l -5.486 3.129 l 0.011 20.423 z"/></g></g></g></svg>