<svg xmlns="http://www.w3.org/2000/svg" viewBox="0 0 256 256"><path d="m 3.604 121.58 c 154.26 -347.01 431.5 162.11 87.84 133.24 -51.745 -6.753 -106.08 -60.23 -87.84 -133.24 z" style="fill:#ff8c00;color:#000"/><g transform="matrix(3.68819 0 0 3.17851 17.548 24.578)" style="stroke-linecap:round;stroke-linejoin:round"><g style="fill:none;stroke:#fff"><path d="m 24.971 38.05 c -6.445 -2.481 -10.185 -9.225 -8.878 -16.01 1.307 -6.781 7.285 -11.651 14.191 -11.56 c 6.905 0.091 12.753 5.118 13.88 11.931 1.127 6.813 -2.79 13.455 -9.298 15.765" style="stroke-width:6.875"/><path d="m 21.835 55.31 h 17.278 l -8.531 -31.838 l -8.747 31.838 z" style="stroke-width:8.125"/><ellipse rx="4.589" ry="4.589" transform="matrix(0.96017 0 0 0.96017 0.237 0.813)" cy="25.18" cx="31.401" style="stroke-width:6.509"/></g><g style="stroke:#ff8c00;fill-rule:evenodd"><g style="fill:#fff"><path d="m 57.04 28.42 c 0 10.07 -7.213 18.685 -17.12 20.458 c -9.908 1.774 -19.663 -3.807 -23.16 -13.248 -3.492 -9.44 0.282 -20.03 8.96 -25.13 8.677 -5.101 19.763 -3.251 26.313 4.391" transform="matrix(-0.24653 0.64028 -0.64028 -0.24653 57.23 8.528)" style="stroke-dasharray:2.73286 2.73286;stroke-width:2.733"/><path d="m -36.709 54.42 h 17.995 l -8.885 -33.16 l -9.11 33.16 z" transform="matrix(0.96017 0 0 0.96017 57.08 3.059)" style="stroke-width:3.255"/></g><ellipse rx="4.589" ry="4.589" transform="matrix(0.96017 0 0 0.96017 0.237 0.813)" cy="25.18" cx="31.401" style="fill:#ff8c00;stroke-width:1.302"/></g></g></svg>