<svg xmlns="http://www.w3.org/2000/svg" viewBox="0 0 256 256"><g transform="matrix(0 0.99152 -0.99163 0 1046.65 1.244)" style="fill:#dc143c;color:#000"><path d="m 203.08 1027.54 c -192.48 127.94 -302.85 -263.69 -62.21 -226.05 c 102.83 23.02 165.24 167.37 62.21 226.05 z" style="fill:#ff8c00"/><g transform="matrix(0 -8.98088 8.4549 0 -5098.37 5981.13)" style="fill:#fff;stroke:#fff"><path d="m 559.22 609.42 v 8 h 9 v 3 l 3 -3 v -8 h -12 z m 1 1 h 10 v 6 h -10 v -6 z"/><path d="m 553.35 614.39 v 8 l 3 3 v -3 h 9 v -4 h -1 v 3 h -10 v -6 h 4 v -1 h -5 z"/><path d="m 567.52 623.39 v 2 h -2 v 1 h 2 v 2 h 1 v -2 h 2 v -1 h -2 v -2 h -1 z"/></g></g></svg>