<svg xmlns="http://www.w3.org/2000/svg" viewBox="0 0 256 256"><path d="m 253.79 130.26 c 22.351 111.92 -130.95 154.42 -214.2 105.92 -66.33 -38.644 -47.37 -171.02 42.17 -220.37 89.54 -49.35 154.09 24.617 172.03 114.45 z" style="fill:#ff8c00;color:#000"/><g transform="matrix(2.61767 0 0 2.61788 48.869 57.14)" style="stroke-linecap:round;stroke-linejoin:round"><path d="m 6.683 4.688 c -1.105 0 -1.995 0.896 -1.995 2.01 v 46.605 c 0 1.113 0.89 2.01 1.995 2.01 h 46.635 c 1.105 0 1.995 -0.896 1.995 -2.01 v -46.605 c 0 -1.113 -0.89 -2.01 -1.995 -2.01 h -46.635 z" style="fill:none;stroke:#fff;stroke-width:8.125"/><g style="stroke:#ff8c00"><g style="fill-rule:evenodd;stroke-width:3.125"><path d="m 6.683 4.688 c -1.105 0 -1.995 0.896 -1.995 2.01 v 46.605 c 0 1.113 0.89 2.01 1.995 2.01 h 46.635 c 1.105 0 1.995 -0.896 1.995 -2.01 v -46.605 c 0 -1.113 -0.89 -2.01 -1.995 -2.01 h -46.635 z" style="fill:#ff8c00"/><path d="m 4.687 38.697 v 14.605 c 0 1.113 0.89 2.01 1.995 2.01 h 46.635 c 1.105 0 1.995 -0.896 1.995 -2.01 v -14.605 c 0 -6.797 -50.625 -6.823 -50.625 0 z" style="fill:#fff"/></g><g style="fill:none;stroke-width:2.5"><path d="m 40.978 55.29 l 0.938 -0.241 l 9.946 -0.012 l -3.196 -0.712 l -1.875 -1.328 l 0.844 -0.362 m -7.849 -18.12 l -3.588 2.604 l 3.469 2.656 l -3.656 2.837 l -1.125 -0.604 l 1.313 -0.664 l -3.469 -0.604 l -4.406 3.622 l 1.594 0.181 l 0.563 1.328 l 1.594 -1.388 l -0.281 -1.087 l 1.031 -1.268 h 0.844 l -1.125 1.388 l 0.844 0.724 l -0.094 1.509 l -5.438 0.966 l -3.469 1.388 l 0.656 1.811 l -3.375 -0.241 l -0.563 1.328 l -0.656 0.845 l 1.125 0.423 l 0.563 0.241 l 1.969 0.06 l 1.406 -1.69 h 0.75 l 0.563 -0.543 l 2.531 -0.543 l 2.531 2.173 l 0.938 -0.604 l -2.344 -1.811 h 0.938 l 3.563 3.078 l 1.031 -1.751 l 1.406 -0.121 l 0.375 -2.052 l 4.688 0.604 l -0.094 0.724 l -5.344 1.268 l 0.656 1.026 l 3.75 -0.483 l -0.094 2.233 l -2.625 0.604 l -3.938 -0.423 l -0.656 0.724 l -4.406 -0.785 l -0.094 -1.388 l -9.656 0.724 l -0.469 1.328"/><path d="m 5.836 44.838 l 5.05 -2.042 h 0.656 l 1.313 -0.06 l 3.75 -3.682 l -10.424 0.068"/><path d="m 16.79 41.65 l 3.844 -1.026 l 3.469 -0.302 l 3.75 -2.535 l -4.313 -0.362 l -2.906 2.052 l -3.844 2.173 z"/><path d="m 24.01 47.26 l 2.438 -0.423 l -1.219 -1.449 l 0.656 -0.362 l -0.75 -0.483 l -1.125 2.716 z"/><path d="m 23.634 46.539 l 0.281 -0.966 l -1.594 0.664 l 1.313 0.302 z"/></g></g></g></svg>