<svg xmlns="http://www.w3.org/2000/svg" viewBox="0 0 256 256"><defs><clipPath><path d="m 148 97 h 77.63 v 24 h -77.62 Z"/></clipPath><clipPath><path d="m 171 132 h 54.625 v 24 h -54.625 Z"/></clipPath><clipPath><path d="m 74 56.824 h 129 v 139.69 h -129 Z"/></clipPath><clipPath><path d="m 27.707 56.824 h 82.29 v 139.69 h -82.29 Z"/></clipPath></defs><g transform="translate(0 -796.36)"><path d="m 195.83 822.74 c -130.93 -92.05 -263.6 77.948 -156.91 186.39 c 100.51 102.17 256.68 7.449 207.86 -119.69 -10.185 -26.526 -26.914 -49.802 -50.948 -66.7 z" style="fill:#ff8c00;color:#000"/><path d="m 139.56 994.14 c 35.698 0 81.62 -22.981 81.62 -51.53 0 -28.546 -45.922 -51.53 -81.62 -51.53 -35.698 0 -81.62 22.981 -81.62 51.53 0 28.546 45.922 51.53 81.62 51.53 z m 32.22 -13.741 c -8.33 0 -15.04 -5.362 -15.04 -12.02 0 -6.661 6.706 -12.02 15.04 -12.02 8.33 0 15.04 5.362 15.04 12.02 0 6.661 -6.706 12.02 -15.04 12.02 z m -32.22 -15.458 c -15.469 0 -27.923 -9.959 -27.923 -22.329 0 -12.37 12.454 -22.329 27.923 -22.329 15.469 0 27.923 9.959 27.923 22.329 0 12.37 -12.453 22.329 -27.923 22.329 z" transform="translate(-8.53 -18.25)" style="fill:#fff"/></g></svg>