<svg xmlns="http://www.w3.org/2000/svg" viewBox="0 0 256 256"><defs><clipPath><path d="m -24 13 c 0 1.105 -0.672 2 -1.5 2 -0.828 0 -1.5 -0.895 -1.5 -2 0 -1.105 0.672 -2 1.5 -2 0.828 0 1.5 0.895 1.5 2 z" transform="matrix(15.33333 0 0 11.5 415 -125.5)"/></clipPath></defs><path d="m 38.604 211.55 c 265.25 200.11 302.94 -350.59 32.17 -173.86 -61.728 40.29 -102.43 120.86 -32.17 173.86 z" style="fill:#ff8c00;color:#000"/><g transform="matrix(-2.57956 0 0 3.60719 210.07 18.679)" style="stroke-linecap:round;stroke-linejoin:round"><g style="fill:none;stroke:#fff;stroke-width:10.774"><path d="m 55.19 31.21 h -51.1"/><path d="m 43.688 21.412 l 12.919 9.797 l -12.919 9.797 v -19.594 z"/></g><g style="stroke:#ff8c00;stroke-width:5.387"><path d="m 55.19 31.21 h -51.1" style="fill:none"/><path d="m 43.688 21.412 l 12.919 9.797 l -12.919 9.797 v -19.594 z" style="fill:#ff8c00;fill-rule:evenodd"/></g></g></svg>