<svg xmlns="http://www.w3.org/2000/svg" viewBox="0 0 256 256"><path d="m 121.57 799.97 c -347.01 154.26 162.11 431.5 133.24 87.84 -6.753 -51.745 -60.23 -106.08 -133.24 -87.84 z" transform="translate(0 -796.36)" style="fill:#ff8c00;color:#000"/><path d="m 94.96863,202.78159 c 0.467102,-2.16079 1.336556,-5.2418 1.932119,-6.84668 1.752352,-4.72212 1.337936,-13.7283 -0.862747,-18.74934 -2.884195,-6.58053 -7.714527,-8.95115 -20.38677,-10.00537 -11.137773,-0.92657 -11.762437,-1.26564 -22.745015,-12.34564 -8.196799,-8.26951 -13.630052,-13.07766 -16.09931,-14.24703 -2.283714,-1.08151 -4.216417,-6.3657 -4.577832,-12.51621 -0.265945,-4.5258 0.795945,-5.54974 5.755494,-5.54974 7.240765,0 11.314819,-3.52889 16.755738,-14.51362 0.776114,-1.5669 3.366773,-4.51453 5.757018,-6.55029 4.307136,-3.668364 4.342066,-3.749477 3.915787,-9.092266 -0.390536,-4.894811 -0.232114,-5.442535 1.721585,-5.952193 1.183435,-0.308717 4.938737,0.32795 8.345116,1.414837 7.515491,2.397988 9.455809,1.868347 16.101731,-4.395204 2.636796,-2.485091 5.092169,-4.520313 5.456385,-4.522723 0.364217,-0.002 1.300678,-0.667983 2.081012,-1.479057 1.782825,-1.853034 16.625919,-9.678324 18.391369,-9.695947 0.72099,-0.007 4.16536,-0.984531 7.65417,-2.171863 5.41816,-1.843923 8.6917,-2.161702 22.44548,-2.178884 13.88665,-0.0173 16.97498,0.279693 22.44548,2.158771 3.4888,1.198394 6.91829,2.184775 7.62107,2.191976 1.858,0.019 17.75207,8.273589 17.75207,9.219514 0,0.440047 0.86394,1.085086 1.91985,1.43342 2.48606,0.820115 15.31575,14.066807 16.09474,16.617858 1.03204,3.379688 8.51095,3.91526 10.51527,0.753015 0.39433,-0.622155 0.7237,-2.793378 0.73191,-4.82494 0.0124,-3.06796 -0.38525,-3.798142 -2.34724,-4.309961 -3.17221,-0.827526 -5.11807,0.07861 -5.9024,2.748682 -0.37118,1.263594 -0.85797,1.69254 -1.13534,1.000393 -0.69993,-1.746637 1.28387,-5.142808 3.41466,-5.845726 7.90898,-2.60907 11.1493,11.026201 3.73656,15.723478 -1.71528,1.08694 -3.52968,2.12045 -4.03199,2.2967 -0.50231,0.17624 0.10712,3.61896 1.35432,7.6505 2.00803,6.49088 2.20537,8.63196 1.72382,18.70211 -0.64481,13.4844 -3.24455,22.56647 -9.03869,31.57627 -2.12352,3.30205 -4.3001,6.68931 -4.83684,7.52724 -0.53673,0.83795 -1.59721,2.3278 -2.35662,3.31077 -2.53456,3.28076 -5.85959,12.52793 -5.89925,16.40625 -0.0225,2.20594 -1.27133,6.29578 -2.94222,9.63605 -4.73953,9.47477 -4.56368,9.35356 -13.57056,9.35356 l -7.96334,0 1.89486,-3.8605 c 1.7226,-3.50955 2.38944,-9.39829 2.1283,-18.79471 l -0.08,-2.87594 -6.09932,0.4303 c -3.35462,0.23667 -9.78967,1.04128 -14.30011,1.78804 -6.7281,1.11394 -10.4473,1.12941 -20.71057,0.0861 -6.88038,-0.6994 -13.40774,-0.97542 -14.50523,-0.61337 -2.10528,0.69451 -4.12638,4.78653 -5.2267,10.58225 -0.36323,1.91319 -2.01886,5.67887 -3.67919,8.36816 l -3.01878,4.88964 -8.0896,0 -8.089606,0 0.849277,-3.92871 0,0 z M 64.302213,122.70456 c 1.505312,-1.56459 -0.865523,-4.30852 -2.370835,-5.87311 -2.737369,-2.84518 -9.982779,0.11976 -9.982779,4.16865 0,2.71885 4.146507,6.20725 6.762341,6.20725 1.127153,0 2.576351,-0.54774 3.220438,-1.21719 z" style="fill:#fff;stroke:#fff;fill-rule:evenodd;stroke-width:1.13619924"/></svg>