<svg xmlns="http://www.w3.org/2000/svg" viewBox="0 0 256 256"><defs><clipPath><path d="m -24 13 c 0 1.105 -0.672 2 -1.5 2 -0.828 0 -1.5 -0.895 -1.5 -2 0 -1.105 0.672 -2 1.5 -2 0.828 0 1.5 0.895 1.5 2 z" transform="matrix(15.33333 0 0 11.5 415 -125.5)"/></clipPath></defs><path d="m 33.675 216.42 c -145.18 -221.56 251.35 -307.3 219.76 -79.37 c -12.881 92.96 -164.23 164.13 -219.76 79.37 z" style="fill:#ff8c00;color:#000"/><path d="m 29.46 3.949 l -9.647 8.927 l 7.401 -0.029 v 14.02 h -13.995 l 0.029 -7.401 l -8.927 9.647 l 8.841 9.964 l 0.029 -7.401 h 14.02 v 13.995 l -7.401 -0.029 l 9.647 8.927 l 9.964 -8.841 l -7.401 -0.029 v -14.02 h 14.02 l 0.029 7.401 l 8.87 -9.964 l -8.927 -9.647 l 0.029 7.401 h -14.02 v -14.02 l 7.401 -0.029 l -9.964 -8.87 z" transform="matrix(2.95613 0 0 2.93961 37.15 40.35)" style="fill:#fff;stroke:#fff;fill-rule:evenodd;stroke-linecap:round;stroke-linejoin:round;stroke-width:3.125"/></svg>