<svg xmlns="http://www.w3.org/2000/svg" viewBox="0 0 256 256"><g transform="translate(0 -796.36)" style="color:#000"><path d="m 98.7 1049.11 c -239.91 -49.981 17.642 -393.86 139.59 -187.29 c 52.27 80.25 -16.2 213 -139.59 187.29 z" style="fill:#ff8c00"/><g transform="matrix(1.04793 0 0 1.05082 61.818 859.24)" style="fill:#fff"><path transform="matrix(1 0 0 0.41667 -0.013 74.6)" d="m 127.82 115.71 c 0 6.982 -28.614 12.642 -63.912 12.642 c -35.3 0 -63.912 -5.66 -63.912 -12.642 c 0 -6.982 28.614 -12.642 63.912 -12.642 35.3 0 63.912 5.66 63.912 12.642 z" style="opacity:0.381"/><g style="fill-rule:evenodd"><path d="m 47.829 88.65 c 6.299 -10.464 7.884 -16.884 18.896 -31.393 11.01 -14.509 31.513 -37.06 47.18 -55.662 c 0.998 -1.185 3.312 -1.394 5.01 -0.105 1.763 1.338 2.028 3.707 1.247 4.854 c -13.698 20.1 -29.909 45.902 -40.921 60.41 -11.01 14.509 -16.769 17.762 -25.15 26.644 -2.086 -1.583 -4.171 -3.166 -6.257 -4.749 z" style="stroke:#fff;stroke-width:1.232"/><path d="m 45.851 101.87 c -1.912 5.05 -1.733 10.367 -5.736 15.14 -5.653 6.735 -21.392 9.416 -28.641 3.646 8.882 -1.29 13.04 -8.01 19.278 -13.782 4.03 -3.735 8.476 -5.991 10.448 -8.581 1.55 1.194 3.101 2.387 4.651 3.581 z"/><path d="m 44.45 101.98 c -1.174 3.733 -3.239 10.323 -5.785 13.81 -3.595 4.926 -16.622 7.988 -21.775 4.948 6.521 -1.376 10.882 -8.25 14.748 -12.598 1.366 -1.537 8.554 -6.735 9.804 -8.633 1.032 0.921 1.975 1.552 3.01 2.473 z"/><path d="m 115.34 0.701 c -0.576 0.155 -1.063 0.496 -1.406 0.904 -9.528 11.315 -29.97 34.565 -39.501 46.755 2.427 -0.554 5.763 -1.447 8.764 -4.01 5.691 -4.854 28.16 -35.532 31.676 -39.42 2.208 -2.442 3.893 -0.273 5.681 -0.287 -0.042 -1.092 -0.522 -2.337 -1.623 -3.173 -1.114 -0.846 -2.492 -1.069 -3.591 -0.772 z" style="opacity:0.87"/></g><path d="m -53.26 22.06 v -2.795 v 2.795 z" style="fill-opacity:0.757"/><path d="m 105.87 10.07 c -1.062 0.823 -2.254 2.034 -2.727 3.157 l 7.01 5.358 l 2.488 -3.296 l -6.772 -5.219 z m 6.04 4.65 l -2.488 3.296 l 2.458 1.896 c 0.928 -0.691 1.699 -2.167 2.242 -3.476 l -2.212 -1.716 z"/><path d="m 96.69 37.565 c -0.109 0.145 -0.165 0.279 -0.168 0.401 -0.004 0.123 0.046 0.223 0.148 0.301 0.102 0.078 0.21 0.098 0.326 0.062 0.116 -0.037 0.228 -0.128 0.337 -0.272 0.109 -0.146 0.166 -0.28 0.169 -0.403 0.004 -0.123 -0.045 -0.223 -0.147 -0.301 -0.102 -0.078 -0.211 -0.099 -0.327 -0.062 -0.116 0.037 -0.229 0.128 -0.338 0.273 m -0.181 -0.139 c 0.222 -0.296 0.44 -0.494 0.655 -0.594 0.215 -0.1 0.401 -0.089 0.557 0.031 0.156 0.12 0.216 0.298 0.179 0.534 -0.037 0.236 -0.166 0.502 -0.388 0.798 -0.221 0.295 -0.44 0.493 -0.655 0.594 -0.215 0.1 -0.4 0.089 -0.557 -0.03 -0.157 -0.12 -0.217 -0.298 -0.18 -0.534 0.037 -0.237 0.167 -0.503 0.388 -0.798 m 2.173 -1.867 l 0.973 -0.261 l -0.371 0.495 l -0.653 0.177 l 0.011 0.68 l -0.373 0.497 l -0.015 -1.017 l -0.934 0.251 l 0.372 -0.496 l 0.614 -0.165 l -0.01 -0.641 l 0.374 -0.498 l 0.013 0.977 m 0.026 -1.029 l 0.389 -0.519 l 0.659 -0.155 l -0.03 -0.684 l 0.39 -0.521 l 0.034 1.131 l 0.408 0.312 l -0.356 0.475 l -0.408 -0.312 l -1.086 0.273 m 3.698 -3.052 c -0.059 0.142 -0.128 0.282 -0.208 0.421 -0.081 0.139 -0.172 0.276 -0.273 0.412 -0.23 0.307 -0.457 0.515 -0.681 0.626 -0.225 0.11 -0.414 0.106 -0.568 -0.012 -0.156 -0.12 -0.21 -0.305 -0.163 -0.556 0.047 -0.251 0.19 -0.535 0.428 -0.853 0.092 -0.123 0.186 -0.235 0.282 -0.338 0.097 -0.103 0.194 -0.196 0.292 -0.277 l 0.2 0.153 c -0.108 0.079 -0.207 0.164 -0.299 0.255 -0.091 0.09 -0.175 0.185 -0.251 0.287 -0.142 0.189 -0.223 0.357 -0.245 0.502 -0.021 0.144 0.02 0.256 0.123 0.335 0.102 0.078 0.218 0.09 0.348 0.034 0.13 -0.056 0.263 -0.175 0.399 -0.357 0.037 -0.049 0.07 -0.096 0.098 -0.14 0.029 -0.045 0.052 -0.088 0.07 -0.127 l -0.188 -0.144 l -0.217 0.29 l -0.167 -0.128 l 0.555 -0.74 l 0.465 0.357 m -0.583 -1.103 l 0.961 -1.282 l 0.189 0.144 l -0.605 0.807 l 0.18 0.138 l 0.569 -0.759 l 0.189 0.144 l -0.569 0.759 l 0.222 0.17 l 0.625 -0.834 l 0.189 0.144 l -0.981 1.309 l -0.968 -0.741 m 1.295 -1.727 l 0.398 -0.53 l 1.166 -0.161 l -0.664 -0.508 l 0.338 -0.45 l 0.968 0.741 l -0.398 0.53 l -1.166 0.161 l 0.664 0.508 l -0.338 0.45 l -0.968 -0.741 m 2.242 -2.991 l 0.398 -0.53 l 1.166 -0.161 l -0.664 -0.508 l 0.338 -0.45 l 0.968 0.741 l -0.398 0.53 l -1.166 0.161 l 0.664 0.508 l -0.338 0.45 l -0.968 -0.741 m 1.927 -2.607 c 0.131 -0.175 0.259 -0.295 0.383 -0.359 0.124 -0.065 0.228 -0.066 0.31 -0.003 0.082 0.063 0.109 0.163 0.081 0.301 -0.028 0.138 -0.108 0.294 -0.24 0.47 -0.132 0.176 -0.26 0.297 -0.384 0.362 -0.123 0.065 -0.226 0.066 -0.308 0.003 -0.082 -0.063 -0.109 -0.163 -0.081 -0.301 0.028 -0.139 0.109 -0.296 0.241 -0.472 m 0.233 0.978 l 0.761 -1.015 l 0.13 0.099 l -0.761 1.015 l -0.13 -0.099 m -0.123 -0.894 c -0.052 0.069 -0.078 0.133 -0.079 0.192 -0.001 0.058 0.024 0.106 0.074 0.144 0.05 0.038 0.102 0.049 0.157 0.033 0.055 -0.017 0.109 -0.061 0.16 -0.13 0.051 -0.068 0.077 -0.131 0.078 -0.189 0.002 -0.058 -0.023 -0.107 -0.073 -0.145 -0.05 -0.038 -0.103 -0.049 -0.159 -0.032 -0.055 0.016 -0.108 0.058 -0.159 0.127 m 2.425 -2.493 c 0.11 -0.111 0.21 -0.183 0.3 -0.215 0.09 -0.033 0.167 -0.025 0.232 0.024 0.096 0.073 0.117 0.199 0.062 0.378 -0.055 0.178 -0.183 0.401 -0.384 0.669 -0.071 0.095 -0.146 0.186 -0.226 0.276 -0.079 0.089 -0.161 0.173 -0.246 0.254 l -0.193 -0.147 c 0.09 -0.071 0.174 -0.145 0.251 -0.223 0.078 -0.079 0.148 -0.161 0.212 -0.246 0.094 -0.126 0.155 -0.231 0.182 -0.315 0.028 -0.085 0.02 -0.144 -0.023 -0.177 -0.044 -0.034 -0.103 -0.025 -0.177 0.027 -0.074 0.051 -0.161 0.143 -0.262 0.277 l -0.142 0.19 l -0.161 -0.123 l 0.15 -0.2 c 0.089 -0.119 0.146 -0.216 0.171 -0.289 0.024 -0.074 0.016 -0.126 -0.024 -0.157 -0.037 -0.028 -0.087 -0.022 -0.15 0.019 -0.063 0.041 -0.133 0.114 -0.211 0.217 -0.057 0.076 -0.111 0.157 -0.16 0.242 -0.049 0.085 -0.094 0.173 -0.135 0.264 l -0.183 -0.14 c 0.056 -0.104 0.116 -0.205 0.178 -0.303 0.062 -0.097 0.127 -0.191 0.193 -0.279 0.179 -0.239 0.334 -0.402 0.465 -0.489 0.13 -0.088 0.237 -0.1 0.32 -0.036 0.057 0.043 0.082 0.107 0.076 0.192 -0.007 0.084 -0.044 0.187 -0.113 0.31"/><path d="m 45.851 101.87 c -1.912 5.05 -1.733 10.367 -5.736 15.14 -5.653 6.735 -14.04 -4.416 -8.01 -10.407 4.03 -4.01 7.123 -5.72 9.09 -8.31 1.55 1.194 3.101 2.387 4.651 3.581 z" style="fill-rule:evenodd"/><g transform="matrix(0.99991 -0.01352 0.01352 0.99991 -0.453 -0.687)"><path d="m 38.35 98.88 c 0.751 -1.45 1.896 -3.192 3.03 -4.145 l 6.412 5.188 l -3.199 3.951 l -6.24 -4.993 z m 5.56 4.449 l 3.199 -3.951 l 2.267 1.812 c -0.626 1.255 -2.096 2.664 -3.416 3.766 l -2.05 -1.627 z"/><path d="m 41.36 94.95 c 0.747 -1.454 1.889 -3.198 3.02 -4.148 l 6.524 5.278 l -3.2 3.951 l -6.349 -5.081 z m 5.657 4.528 l 3.2 -3.951 l 2.306 1.843 c -0.622 1.258 -2.096 2.664 -3.42 3.762 l -2.086 -1.655 z"/><path d="m 44.35 90.91 c 0.738 -1.461 1.874 -3.21 3.02 -4.153 l 6.748 5.459 l -3.2 3.95 l -6.566 -5.256 z m 5.85 4.684 l 3.2 -3.95 l 2.385 1.907 c -0.614 1.265 -2.095 2.665 -3.428 3.756 l -2.157 -1.713 z"/><path d="m 47.39 86.95 c 0.734 -1.464 1.867 -3.215 3.01 -4.156 l 6.86 5.55 l -3.201 3.95 l -6.674 -5.344 z m 5.947 4.762 l 3.2 -3.95 l 2.424 1.939 c -0.61 1.268 -2.095 2.665 -3.433 3.752 l -2.192 -1.742 z"/><path d="m 50.42 82.78 c -1.111 0.911 -2.222 2.602 -2.956 4.04 l -0.094 -0.063 c -1.108 0.914 -2.218 2.606 -2.956 4.04 l -0.034 0.003 c -1.089 0.911 -2.172 2.583 -2.918 3.998 l -0.094 -0.063 c -1.132 0.953 -2.252 2.697 -3 4.147 l 6.246 5 l 1.353 1.09 c 1.319 -1.102 2.806 -2.538 3.433 -3.794 l -0.153 -0.129 c 1.291 -1.082 2.681 -2.456 3.284 -3.675 l -0.123 -0.096 c 1.322 -1.086 2.782 -2.467 3.39 -3.719 l -0.183 -0.162 c 1.316 -1.077 2.755 -2.439 3.352 -3.681 l -1.689 -1.381 l -6.854 -5.551 z"/></g></g></g></svg>