<svg xmlns="http://www.w3.org/2000/svg" viewBox="0 0 256 256"><g transform="matrix(-0.99153 0 0 1 255.99 0.544)"><path d="m 130.25 253.81 c 111.92 22.256 154.42 -130.4 105.92 -213.29 -38.644 -66.05 -171.02 -47.17 -220.37 41.992 -49.35 89.16 24.617 153.44 114.45 171.3 z" style="fill:#ff8c00;color:#000"/><g transform="matrix(2.53951 0 0 3.0024 58.989 37.641)" style="fill:#fff;stroke:#fff"><path d="m 10.839 44.487 l 21.03 -16.251 l -21.03 -16.251 v 32.502 z" transform="translate(-5.214 1.764)" style="fill-rule:evenodd;stroke-linecap:round;stroke-linejoin:round;stroke-width:5"/><path d="m 62.01 9.486 v 25.337 c 0 1.771 -0.501 3.273 -1.503 4.508 -0.979 1.235 -2.342 1.852 -4.089 1.852 -1.724 0 -3.087 -0.617 -4.089 -1.852 -1 -1.258 -1.503 -2.761 -1.503 -4.508 v -25.337 c 0 -1.794 0.501 -3.297 1.503 -4.508 c 1 -1.235 2.365 -1.852 4.089 -1.852 c 1.142 0 2.132 0.28 2.971 0.839 0.862 0.559 1.514 1.328 1.957 2.307 0.443 0.955 0.664 2.027 0.664 3.215 m -11.812 41.1 c 0 -1.118 0.28 -2.155 0.839 -3.11 0.582 -0.979 1.351 -1.759 2.307 -2.342 0.955 -0.582 1.98 -0.874 3.075 -0.874 1.095 0 2.12 0.291 3.075 0.874 0.955 0.582 1.712 1.363 2.272 2.342 0.582 0.955 0.874 1.992 0.874 3.11 0 1.142 -0.291 2.202 -0.874 3.18 -0.559 0.955 -1.328 1.712 -2.307 2.272 -0.955 0.559 -1.969 0.839 -3.04 0.839 -1.072 0 -2.097 -0.28 -3.075 -0.839 -0.955 -0.559 -1.724 -1.316 -2.307 -2.272 -0.559 -0.979 -0.839 -2.039 -0.839 -3.18" transform="matrix(0.7877 0 0 0.83401 1.051 4.642)"/></g></g></svg>