<svg xmlns="http://www.w3.org/2000/svg" viewBox="0 0 256 256"><path d="m 193.89 31.801 c 226.71 210.75 -241.2 343.53 -189.6 63.746 25.452 -73.816 116.81 -131.42 189.6 -63.746 z" style="fill:#ff8c00;color:#000"/><g transform="matrix(2.70519 0 0 3.10939 49.556 39.585)" style="stroke-linejoin:round"><g style="stroke:#fff"><path d="m 6.498 7.629 c 19.09 7.159 27.442 -3.102 35.793 -0.954 c 8.352 2.148 -6.204 12.17 -2.625 16.465 3.579 4.295 3.341 4.534 3.341 4.534" style="fill:none;stroke-linecap:round;stroke-width:8.125"/><path d="m 46.29 19.852 l -40.643 11.08 c -0.976 0.266 -1.508 1.273 -1.172 2.227 l 6.886 19.486 c 0.336 0.954 1.368 1.497 2.344 1.231 l 40.672 -11.08 c 0.976 -0.266 1.479 -1.273 1.143 -2.227 l -6.857 -19.486 c -0.336 -0.954 -1.397 -1.497 -2.374 -1.231 z m -2.813 4.483 c 2.239 0 4.073 1.805 4.073 4.04 0 2.239 -1.834 4.073 -4.073 4.073 -2.239 0 -4.04 -1.834 -4.04 -4.073 0 -2.239 1.805 -4.04 4.04 -4.04 z" style="fill:#fff;fill-rule:evenodd;stroke-width:7.5"/><path d="m 43.31 27.733 c 9.07 -11.215 -1.253 -11.991 -1.253 -11.991" style="fill:none;stroke-linecap:round;stroke-width:8.125"/></g><g style="stroke:#ff8c00"><path d="m 6.498 7.629 c 19.09 7.159 27.442 -3.102 35.793 -0.954 c 8.352 2.148 -6.204 12.17 -2.625 16.465 3.579 4.295 3.341 4.534 3.341 4.534" style="stroke-dasharray:3.125 3.125;fill:none;stroke-linecap:round;stroke-width:3.125"/><path d="m 46.29 19.852 l -40.643 11.08 c -0.976 0.266 -1.508 1.273 -1.172 2.227 l 6.886 19.486 c 0.336 0.954 1.368 1.497 2.344 1.231 l 40.672 -11.08 c 0.976 -0.266 1.479 -1.273 1.143 -2.227 l -6.857 -19.486 c -0.336 -0.954 -1.397 -1.497 -2.374 -1.231 z m -2.813 4.483 c 2.239 0 4.073 1.805 4.073 4.04 0 2.239 -1.834 4.073 -4.073 4.073 -2.239 0 -4.04 -1.834 -4.04 -4.073 0 -2.239 1.805 -4.04 4.04 -4.04 z" style="fill:#fff;fill-rule:evenodd;stroke-width:2.5"/><g style="fill:none;stroke-linecap:round"><path d="m 43.31 27.733 c 9.07 -11.215 -1.253 -11.991 -1.253 -11.991" style="stroke-dasharray:3.125 3.125;stroke-width:3.125"/><g style="stroke-width:5"><path d="m 15.14 37.02 l 15.782 -3.905"/><path d="m 21.898 43.26 l 15.782 -3.905"/></g></g></g></g></svg>