<svg xmlns="http://www.w3.org/2000/svg" viewBox="0 0 256 256" xmlns:xlink="http://www.w3.org/1999/xlink"><defs><path id="0" d="m 8.04 12.848 h 43.919 c 1.339 0 2.417 1.135 2.417 2.545 v 29.21 c 0 1.41 -1.078 2.545 -2.417 2.545 h -43.919 c -1.339 0 -2.417 -1.135 -2.417 -2.545 v -29.21 c 0 -1.41 1.078 -2.545 2.417 -2.545 z" style="display:block;color:#000;stroke-linecap:round;stroke-linejoin:round"/></defs><path d="m 253.26 126.28 c 22.256 -111.92 -130.4 -154.42 -213.29 -105.92 c -66.05 38.644 -47.17 171.02 41.992 220.37 89.16 49.35 153.44 -24.617 171.3 -114.45 z" style="fill:#ff8c00;color:#000"/><g transform="matrix(2.77121 0 0 3.58629 39.07 13.02)"><g transform="matrix(0.5513 0 0 0.5513 25.335 21.818)"><use xlink:href="#0" style="fill:none;stroke:#fff;stroke-width:14.738"/><use xlink:href="#0" style="fill:#fff;stroke:#ff8c00;stroke-width:5.668"/></g><g transform="matrix(0.5513 0 0 0.5513 13.461 13.461)"><use xlink:href="#0" style="fill:none;stroke:#fff;stroke-width:14.738"/><use xlink:href="#0" style="fill:#fff;stroke:#ff8c00;stroke-width:5.668"/></g><g transform="matrix(0.5513 0 0 0.5513 1.587 5.104)"><use xlink:href="#0" style="fill:none;stroke:#fff;stroke-width:14.738"/><use xlink:href="#0" style="fill:#fff;stroke:#ff8c00;stroke-width:5.668"/></g></g></svg>