<svg xmlns="http://www.w3.org/2000/svg" viewBox="0 0 256 256"><path d="m 22.01 53.62 c 48.541 -88.14 200.63 -53.931 226.36 18.64 30.66 86.45 -49.14 250.63 -184.3 154.45 -45.527 -33.585 -90.6 -84.949 -42.05 -173.09 z" style="fill:#ff8c00;color:#000"/><g transform="matrix(8.72319 0 0 8.81923 59.17 50.604)" style="enable-background:new"><path d="m 567,509 c -2.25,0 -2,2 -2,2 v 12 h 8 v -2 h -6 v -0.84375 -1.6562 -4.5 h 4 v -2 h -4 v -1 h 10 v 4 h -6 v 2 h 2 4 2 v -6 c 0,-2 -2,-2 -2,-2 h -10 z m 2,9 v 2 h 4 v -2 h -4 z m 4.9922,0 v 6 h 5 v -6 h -5 z m 1,2 h 1 v 1 h -1 v -1 z m 2,0 h 1 v 1 h -1 v -1 z m -2,2 h 1 v 1 h -1 v -1 z m 2,0 h 1 v 1 h -1 v -1 z" transform="translate(-564 -508)" style="opacity:0.5;color:#000"/></g><g style="fill:#fff;stroke:#fff;fill-rule:evenodd;stroke-width:5.535"><path d="m 68.27 127.38 c 0 -58.826 0.044 -59.35 5.288 -63.695 4.425 -3.666 10.864 -4.088 57.96 -3.794 50.983 0.318 50.656 0.272 55.29 7.721 2.22 3.571 2.3 4.578 2.601 32.753 l 0.31 29.07 h -34.435 h -34.435 v -8.07 v -8.07 l 26.04 -0.27 l 26.04 -0.27 l 0.276 -17.947 l 0.276 -17.947 h -44.512 h -44.512 v 4.55 v 4.55 h 17.694 h 17.694 v 8.594 v 8.594 h -17.694 h -17.694 v 31.344 v 31.344 h 26.289 h 26.289 v 8.089 v 8.089 h -34.378 h -34.378 v -54.632 z"/><path d="m 103.66 147.63 v -8.089 h 16.683 h 16.683 v 8.089 v 8.089 h -16.683 h -16.683 v -8.089 z"/><path d="m 147.14 165.32 v -25.783 h 21.233 h 21.233 v 25.783 v 25.783 h -21.233 h -21.233 v -25.783 z m 17.189 13.144 v -4.55 h -5.056 h -5.056 v 4.55 v 4.55 h 5.056 h 5.056 v -4.55 z m 17.189 0 v -4.55 h -4.55 h -4.55 v 4.55 v 4.55 h 4.55 h 4.55 v -4.55 z m -17.189 -17.694 v -5.056 h -5.056 h -5.056 v 5.056 v 5.056 h 5.056 h 5.056 v -5.056 z m 17.189 0 v -5.056 h -4.55 h -4.55 v 5.056 v 5.056 h 4.55 h 4.55 v -5.056 z"/></g></svg>