<svg xmlns="http://www.w3.org/2000/svg" xmlns:xlink="http://www.w3.org/1999/xlink" viewBox="0 0 256 256"><defs><path d="m 245.46 129.52 l -97.89 -96.9 c -5.556 -5.502 -16.222 -11.873 -23.7 -14.16 l -39.518 -12.08 c -7.479 -2.286 -18.1 0.391 -23.599 5.948 l -13.441 13.578 c -5.5 5.559 -14.502 14.653 -20 20.21 l -13.44 13.579 c -5.5 5.558 -8.07 16.206 -5.706 23.658 l 12.483 39.39 c 2.363 7.456 8.843 18.06 14.399 23.556 l 97.89 96.9 c 5.558 5.502 14.605 5.455 20.1 -0.101 l 36.26 -36.63 c 5.504 -5.559 14.503 -14.651 20 -20.21 l 36.26 -36.629 c 5.502 -5.56 5.455 -14.606 -0.101 -20.11 z m -178.09 -50.74 c -7.198 0 -13.03 -5.835 -13.03 -13.03 0 -7.197 5.835 -13.03 13.03 -13.03 7.197 0 13.03 5.835 13.03 13.03 -0.001 7.198 -5.836 13.03 -13.03 13.03 z" id="0"/><use id="1" xlink:href="#0"/><clipPath id="2"><use xlink:href="#0"/></clipPath><clipPath style="clip-path:url(#2)"><use xlink:href="#1"/></clipPath><clipPath style="clip-path:url(#2)"><use xlink:href="#1"/></clipPath></defs><g transform="translate(-0.25 -795.03)" style="color:#000"><path d="m 3.248 952.33 c 49.981 237.88 393.86 -17.493 187.29 -138.41 -80.25 -51.828 -213 16.06 -187.29 138.41 z" style="fill:#ff8c00;color:#000"/><g transform="matrix(-9.29553 0 0 6.52113 2621.55 77.17)" style="fill:#fff;enable-background:new;color:#ddd"><path id="3" d="m 264 120 v 2 h 2 v -2 z m 4 0 v 2 h 6 v -2 z"/><path id="4" d="m 264 124 v 2 h 2 v -2 z m 4 0 v 2 h 6 v -2 z"/><path id="5" d="m 264 128 v 2 h 2 v -2 z m 4 0 v 2 h 6 v -2 z"/></g><g transform="matrix(9.29553 0 0 6.52113 -2380.47 129.21)" style="fill:#fff;enable-background:new;color:#ddd"><use xlink:href="#3" width="1" height="1"/><use xlink:href="#4" width="1" height="1"/><use xlink:href="#5" width="1" height="1"/></g></g></svg>