<svg xmlns="http://www.w3.org/2000/svg" viewBox="0 0 16 16"><path d="m 11.457031 0.238281 c -21.617187 -1.589843 -5.414062 29.105469 3.769531 8.894531 c 1.265626 -3.113281 0.339844 -7.757812 -3.769531 -8.894531" style="fill:#b0dfe5"/><path d="m 5.90625 6.933594 h 4.335938 v 6.792968 h -4.335938" style="fill:#213655;fill-rule:evenodd"/><g transform="matrix(0.029745 0 0 0.0261619 0.453375 1.594375)" style="fill:none;stroke-linecap:square"><g style="stroke-miterlimit:2.01"><path d="m 303.220079 290.087051 c 0 -26.726638 -20.749286 -48.376709 -46.357581 -48.376709 c -25.608296 0 -46.357581 21.650071 -46.357581 48.376709 c 0 26.726638 20.749285 48.376709 46.357581 48.376709 c 25.608295 0 46.357581 -21.650071 46.357581 -48.376709" style="stroke:#fff;stroke-width:30.29"/><path d="m 336.839175 151.078669 c -20.092663 -23.4418 -49.509372 -36.879775 -80.501975 -36.581153 c -30.86128 0.149311 -60.146664 14.035218 -79.976677 37.626329" style="stroke:#d41919;stroke-width:30.47"/></g><path d="M 387.924441 106.434731 C 354.830644 67.912537 306.371869 45.963846 255.549252 46.262467 C 204.726635 46.561089 156.661834 69.256335 124.093335 108.226461 " style="stroke-miterlimit:2;stroke:#d41919;stroke-width:30.47"/></g></svg>