
<svg xmlns="http://www.w3.org/2000/svg" xmlns:xlink="http://www.w3.org/1999/xlink" width="24px" height="24px" viewBox="0 0 24 24" version="1.1">
<g id="surface1">
<path style=" stroke:none;fill-rule:nonzero;fill:rgb(11.764706%,56.470588%,100%);fill-opacity:1;" d="M 5.640625 2.734375 C 17.914062 -5.796875 30.351562 9.953125 20.351562 19.996094 C 10.929688 29.460938 -3.710938 20.6875 0.867188 8.910156 C 1.820312 6.453125 3.386719 4.296875 5.640625 2.734375 Z M 5.640625 2.734375 "/>
<path style=" stroke:none;fill-rule:evenodd;fill:rgb(100%,100%,100%);fill-opacity:1;" d="M 7.457031 15.421875 C 7.457031 15.421875 6.953125 15.679688 7.816406 15.769531 C 8.859375 15.875 9.394531 15.859375 10.546875 15.664062 C 10.546875 15.664062 10.851562 15.835938 11.273438 15.984375 C 8.691406 16.96875 5.429688 15.925781 7.457031 15.421875 "/>
<path style=" stroke:none;fill-rule:evenodd;fill:rgb(100%,100%,100%);fill-opacity:1;" d="M 7.140625 14.132812 C 7.140625 14.132812 6.578125 14.503906 7.4375 14.585938 C 8.554688 14.6875 9.4375 14.695312 10.964844 14.433594 C 10.964844 14.433594 11.175781 14.625 11.507812 14.726562 C 8.382812 15.542969 4.90625 14.792969 7.140625 14.132812 "/>
<path style=" stroke:none;fill-rule:evenodd;fill:rgb(100%,100%,100%);fill-opacity:1;" d="M 9.804688 11.945312 C 10.4375 12.601562 9.632812 13.1875 9.632812 13.1875 C 9.632812 13.1875 11.25 12.445312 10.507812 11.511719 C 9.8125 10.640625 9.28125 10.210938 12.160156 8.722656 C 12.160156 8.722656 7.644531 9.730469 9.800781 11.945312 "/>
<path style=" stroke:none;fill-rule:evenodd;fill:rgb(100%,100%,100%);fill-opacity:1;" d="M 13.21875 16.375 C 13.21875 16.375 13.589844 16.648438 12.804688 16.859375 C 11.3125 17.261719 6.601562 17.382812 5.292969 16.875 C 4.824219 16.691406 5.703125 16.4375 5.984375 16.382812 C 6.273438 16.328125 6.4375 16.339844 6.4375 16.339844 C 5.914062 16.011719 3.054688 16.984375 4.984375 17.265625 C 10.25 18.027344 14.582031 16.921875 13.21875 16.375 "/>
<path style=" stroke:none;fill-rule:evenodd;fill:rgb(100%,100%,100%);fill-opacity:1;" d="M 7.699219 12.796875 C 7.699219 12.796875 5.304688 13.304688 6.851562 13.488281 C 7.507812 13.566406 8.808594 13.546875 10.023438 13.460938 C 11.015625 13.382812 12.007812 13.226562 12.007812 13.226562 C 12.007812 13.226562 11.660156 13.359375 11.40625 13.515625 C 8.972656 14.085938 4.273438 13.820312 5.625 13.234375 C 6.769531 12.742188 7.703125 12.796875 7.703125 12.796875 "/>
<path style=" stroke:none;fill-rule:evenodd;fill:rgb(100%,100%,100%);fill-opacity:1;" d="M 12 14.941406 C 14.476562 13.792969 13.328125 12.691406 12.53125 12.839844 C 12.335938 12.875 12.25 12.90625 12.25 12.90625 C 12.25 12.90625 12.320312 12.804688 12.460938 12.761719 C 14.039062 12.265625 15.253906 14.226562 11.949219 15 C 11.949219 15 11.988281 14.96875 12 14.941406 "/>
<path style=" stroke:none;fill-rule:evenodd;fill:rgb(100%,100%,100%);fill-opacity:1;" d="M 10.507812 6.320312 C 10.507812 6.320312 11.878906 7.542969 9.210938 9.421875 C 7.066406 10.929688 8.71875 11.792969 9.207031 12.773438 C 7.957031 11.769531 7.039062 10.882812 7.65625 10.0625 C 8.558594 8.851562 11.0625 8.265625 10.507812 6.320312 "/>
<path style=" stroke:none;fill-rule:evenodd;fill:rgb(100%,100%,100%);fill-opacity:1;" d="M 7.945312 18.050781 C 10.320312 18.1875 13.964844 17.976562 14.054688 16.972656 C 14.054688 16.972656 13.886719 17.351562 12.089844 17.65625 C 10.0625 17.992188 7.5625 17.953125 6.078125 17.734375 C 6.078125 17.734375 6.382812 17.960938 7.945312 18.050781 "/>
<path style="fill-rule:evenodd;fill:rgb(100%,100%,100%);fill-opacity:1;stroke-width:1;stroke-linecap:butt;stroke-linejoin:miter;stroke:rgb(100%,100%,100%);stroke-opacity:1;stroke-miterlimit:4;" d="M 546.048324 274.535235 C 546.048324 274.535235 538.407071 278.917267 551.4979 280.444339 C 567.372751 282.236989 575.428646 281.971411 592.902829 278.718084 C 592.902829 278.718084 597.463887 281.573044 603.861215 284.096033 C 564.766432 300.893824 515.246374 283.100116 546.048324 274.535235 " transform="matrix(0.0659455,0,0,0.058834,-28.443023,-0.620756)"/>
<path style="fill-rule:evenodd;fill:rgb(100%,100%,100%);fill-opacity:1;stroke-width:1;stroke-linecap:butt;stroke-linejoin:miter;stroke:rgb(100%,100%,100%);stroke-opacity:1;stroke-miterlimit:4;" d="M 541.250328 252.625072 C 541.250328 252.625072 532.720557 258.932543 545.811386 260.260432 C 562.693224 262.053082 576.080225 262.18587 599.240922 257.737443 C 599.240922 257.737443 602.439586 260.990771 607.474521 262.717026 C 560.086905 276.593462 507.368183 263.845731 541.250328 252.625072 " transform="matrix(0.0659455,0,0,0.058834,-28.443023,-0.620756)"/>
<path style="fill-rule:evenodd;fill:rgb(100%,100%,100%);fill-opacity:1;stroke-width:1;stroke-linecap:butt;stroke-linejoin:miter;stroke:rgb(100%,100%,100%);stroke-opacity:1;stroke-miterlimit:4;" d="M 581.589036 215.510585 C 591.244262 226.598455 579.101186 236.55762 579.101186 236.55762 C 579.101186 236.55762 603.565042 223.876283 592.310484 208.074409 C 581.766739 193.334845 573.770079 186.031457 617.366685 160.668784 C 617.366685 160.668784 548.891581 177.798548 581.589036 215.510585 " transform="matrix(0.0659455,0,0,0.058834,-28.443023,-0.620756)"/>
<path style="fill-rule:evenodd;fill:rgb(100%,100%,100%);fill-opacity:1;stroke-width:1;stroke-linecap:butt;stroke-linejoin:miter;stroke:rgb(100%,100%,100%);stroke-opacity:1;stroke-miterlimit:4;" d="M 633.41924 290.735476 C 633.41924 290.735476 639.046519 295.316692 627.140381 298.968386 C 604.572029 305.807012 533.075964 307.865239 513.2324 299.233963 C 506.124258 296.113425 519.452025 291.797787 523.71691 290.934659 C 528.04103 289.938743 530.588114 290.137926 530.588114 290.137926 C 522.650689 284.560794 479.291021 301.159402 508.552873 305.873407 C 588.401005 318.820321 654.092087 300.030697 633.41924 290.735476 " transform="matrix(0.0659455,0,0,0.058834,-28.443023,-0.620756)"/>
<path style="fill-rule:evenodd;fill:rgb(100%,100%,100%);fill-opacity:1;stroke-width:1;stroke-linecap:butt;stroke-linejoin:miter;stroke:rgb(100%,100%,100%);stroke-opacity:1;stroke-miterlimit:4;" d="M 549.720864 229.918177 C 549.720864 229.918177 513.410104 238.549453 536.866973 241.669991 C 546.759138 243.064274 566.543468 242.732302 584.965403 241.20523 C 600.010971 239.943736 615.056539 237.221564 615.056539 237.221564 C 615.056539 237.221564 609.784667 239.478975 605.934423 242.134752 C 569.031318 251.828339 497.712956 247.247123 518.267334 237.354353 C 535.623049 228.92226 549.720864 229.918177 549.720864 229.918177 " transform="matrix(0.0659455,0,0,0.058834,-28.443023,-0.620756)"/>
<path style="fill-rule:evenodd;fill:rgb(100%,100%,100%);fill-opacity:1;stroke-width:1;stroke-linecap:butt;stroke-linejoin:miter;stroke:rgb(100%,100%,100%);stroke-opacity:1;stroke-miterlimit:4;" d="M 614.93807 266.36872 C 652.433521 246.915151 635.137041 228.125527 622.993965 230.648515 C 620.032239 231.246065 618.669845 231.843615 618.669845 231.843615 C 618.669845 231.843615 619.795301 230.11736 621.868509 229.387021 C 645.858489 220.888534 664.280425 254.152144 614.168021 267.364636 C 614.168021 267.364636 614.760367 266.833481 614.93807 266.36872 " transform="matrix(0.0659455,0,0,0.058834,-28.443023,-0.620756)"/>
<path style="fill-rule:evenodd;fill:rgb(100%,100%,100%);fill-opacity:1;stroke-width:1;stroke-linecap:butt;stroke-linejoin:miter;stroke:rgb(100%,100%,100%);stroke-opacity:1;stroke-miterlimit:4;" d="M 592.310484 119.836209 C 592.310484 119.836209 613.1018 140.617666 572.585389 172.619782 C 540.124872 198.248033 565.181074 212.854808 572.585389 229.51981 C 553.630342 212.456441 539.71023 197.384905 549.01005 183.37568 C 562.752458 162.793406 600.662551 152.834241 592.310484 119.836209 " transform="matrix(0.0659455,0,0,0.058834,-28.443023,-0.620756)"/>
<path style="fill-rule:evenodd;fill:rgb(100%,100%,100%);fill-opacity:1;stroke-width:1;stroke-linecap:butt;stroke-linejoin:miter;stroke:rgb(100%,100%,100%);stroke-opacity:1;stroke-miterlimit:4;" d="M 553.393404 319.218687 C 589.407992 321.476098 644.733033 317.957193 646.036193 300.893824 C 646.036193 300.893824 643.548343 307.334084 616.300464 312.446455 C 585.498514 318.222771 547.647656 317.625221 525.138539 313.907133 C 525.138539 313.907133 529.758831 317.691615 553.452639 319.218687 " transform="matrix(0.0659455,0,0,0.058834,-28.443023,-0.620756)"/>
</g>
</svg>
