
<svg xmlns="http://www.w3.org/2000/svg" xmlns:xlink="http://www.w3.org/1999/xlink" width="24px" height="24px" viewBox="0 0 24 24" version="1.1">
<g id="surface1">
<path style=" stroke:none;fill-rule:nonzero;fill:rgb(57.647059%,43.921569%,85.882353%);fill-opacity:1;" d="M 5.875 2.980469 C -15.375 22.738281 28.488281 35.1875 23.648438 8.957031 C 21.265625 2.039062 12.703125 -3.363281 5.875 2.980469 Z M 5.875 2.980469 "/>
<path style=" stroke:none;fill-rule:nonzero;fill:rgb(100%,100%,100%);fill-opacity:1;" d="M 14.40625 6.691406 C 13.152344 6.691406 12.054688 7.503906 11.453125 8.71875 L 11.453125 16.085938 L 18.179688 16.085938 L 18.179688 16.054688 C 19.179688 15.910156 19.960938 14.890625 19.960938 13.640625 C 19.960938 12.292969 19.054688 11.195312 17.941406 11.195312 C 17.90625 11.195312 17.875 11.226562 17.835938 11.226562 C 17.84375 11.109375 17.859375 10.996094 17.859375 10.875 C 17.859375 8.578125 16.304688 6.691406 14.40625 6.691406 Z M 9.75 8.78125 L 9.75 16.085938 L 10.601562 16.085938 L 10.601562 8.914062 C 10.359375 8.824219 10.101562 8.78125 9.832031 8.78125 C 9.804688 8.78125 9.78125 8.78125 9.75 8.78125 Z M 8.902344 8.976562 C 8.578125 9.117188 8.304688 9.320312 8.050781 9.585938 L 8.050781 16.085938 L 8.902344 16.085938 Z M 6.667969 11.195312 C 6.554688 11.195312 6.457031 11.242188 6.351562 11.257812 L 6.351562 16.054688 C 6.4375 16.070312 6.523438 16.085938 6.617188 16.085938 C 6.632812 16.089844 6.648438 16.085938 6.667969 16.085938 L 7.199219 16.085938 L 7.199219 11.328125 C 7.023438 11.265625 6.859375 11.195312 6.667969 11.195312 Z M 5.5 11.648438 C 4.984375 12.09375 4.648438 12.824219 4.648438 13.640625 C 4.648438 14.453125 4.992188 15.160156 5.5 15.605469 Z M 5.5 11.648438 "/>
</g>
</svg>
