
<svg xmlns="http://www.w3.org/2000/svg" xmlns:xlink="http://www.w3.org/1999/xlink" width="24px" height="24px" viewBox="0 0 24 24" version="1.1">
<g id="surface1">
<path style=" stroke:none;fill-rule:nonzero;fill:rgb(100%,100%,100%);fill-opacity:1;" d="M 2.355469 18.972656 C -9.640625 1.09375 28.613281 -9.917969 23.546875 13.195312 C 21.390625 22.746094 7.855469 28.546875 2.355469 18.972656 Z M 2.355469 18.972656 "/>
<path style=" stroke:none;fill-rule:evenodd;fill:rgb(75.294118%,75.294118%,75.294118%);fill-opacity:1;" d="M 6.375 16.632812 L 19.328125 16.632812 L 19.328125 17.785156 L 6.375 17.785156 Z M 6.375 16.632812 "/>
<path style=" stroke:none;fill-rule:evenodd;fill:rgb(75.294118%,75.294118%,75.294118%);fill-opacity:1;" d="M 13.734375 12.890625 L 13.734375 17.765625 L 12.039062 17.765625 L 12.039062 12.890625 Z M 13.734375 12.890625 "/>
<path style=" stroke:none;fill-rule:evenodd;fill:rgb(75.294118%,75.294118%,75.294118%);fill-opacity:1;" d="M 12.875 6.132812 L 19.066406 6.132812 L 19.066406 8.863281 L 12.875 8.863281 Z M 12.875 6.132812 "/>
<path style=" stroke:none;fill-rule:evenodd;fill:rgb(75.294118%,75.294118%,75.294118%);fill-opacity:1;" d="M 12.875 9.203125 L 19.066406 9.203125 L 19.066406 11.9375 L 12.875 11.9375 Z M 12.875 9.203125 "/>
<path style=" stroke:none;fill-rule:evenodd;fill:rgb(75.294118%,75.294118%,75.294118%);fill-opacity:1;" d="M 12.875 12.277344 L 19.066406 12.277344 L 19.066406 15.007812 L 12.875 15.007812 Z M 12.875 12.277344 "/>
<path style=" stroke:none;fill-rule:evenodd;fill:rgb(75.294118%,75.294118%,75.294118%);fill-opacity:1;" d="M 6.714844 6.132812 L 12.898438 6.132812 L 12.898438 8.863281 L 6.714844 8.863281 Z M 6.714844 6.132812 "/>
<path style=" stroke:none;fill-rule:evenodd;fill:rgb(75.294118%,75.294118%,75.294118%);fill-opacity:1;" d="M 6.714844 9.203125 L 12.898438 9.203125 L 12.898438 11.9375 L 6.714844 11.9375 Z M 6.714844 9.203125 "/>
<path style=" stroke:none;fill-rule:evenodd;fill:rgb(75.294118%,75.294118%,75.294118%);fill-opacity:1;" d="M 6.714844 12.277344 L 12.898438 12.277344 L 12.898438 15.007812 L 6.714844 15.007812 Z M 6.714844 12.277344 "/>
<path style=" stroke:none;fill-rule:evenodd;fill:rgb(75.294118%,75.294118%,75.294118%);fill-opacity:0.87451;" d="M 7.140625 6.539062 L 8.125 6.539062 L 8.125 8.175781 L 7.140625 8.175781 Z M 7.140625 6.539062 "/>
<path style=" stroke:none;fill-rule:evenodd;fill:rgb(75.294118%,75.294118%,75.294118%);fill-opacity:0.87451;" d="M 7.140625 9.613281 L 8.125 9.613281 L 8.125 11.25 L 7.140625 11.25 Z M 7.140625 9.613281 "/>
<path style=" stroke:none;fill-rule:evenodd;fill:rgb(75.294118%,75.294118%,75.294118%);fill-opacity:0.87451;" d="M 7.167969 12.6875 L 8.15625 12.6875 L 8.15625 14.324219 L 7.167969 14.324219 Z M 7.167969 12.6875 "/>
<path style=" stroke:none;fill-rule:nonzero;fill:rgb(41.176471%,41.176471%,41.176471%);fill-opacity:1;" d="M 7.726562 9.414062 C 7.34375 9.414062 7.015625 9.632812 6.871094 9.9375 C 6.578125 9.742188 6.171875 9.703125 5.835938 9.882812 C 5.507812 10.0625 5.328125 10.40625 5.363281 10.738281 C 5.007812 10.710938 4.636719 10.871094 4.445312 11.179688 C 4.253906 11.492188 4.292969 11.875 4.507812 12.148438 C 4.175781 12.28125 3.945312 12.585938 3.945312 12.945312 C 3.945312 13.304688 4.175781 13.609375 4.507812 13.746094 C 4.292969 14.015625 4.253906 14.398438 4.445312 14.710938 C 4.636719 15.019531 5.007812 15.183594 5.363281 15.152344 C 5.328125 15.484375 5.503906 15.828125 5.835938 16.007812 C 5.984375 16.085938 6.148438 16.117188 6.308594 16.117188 L 6.308594 19.882812 L 7.726562 18.558594 L 9.148438 19.882812 L 9.148438 16.117188 C 9.308594 16.117188 9.46875 16.085938 9.617188 16.007812 C 9.949219 15.828125 10.125 15.484375 10.09375 15.152344 C 10.449219 15.183594 10.820312 15.019531 11.007812 14.710938 C 11.203125 14.398438 11.164062 14.015625 10.949219 13.746094 C 11.28125 13.609375 11.511719 13.304688 11.511719 12.945312 C 11.511719 12.585938 11.28125 12.28125 10.949219 12.144531 C 11.164062 11.871094 11.203125 11.492188 11.007812 11.179688 C 10.820312 10.871094 10.449219 10.707031 10.09375 10.738281 C 10.125 10.40625 9.953125 10.0625 9.617188 9.882812 C 9.289062 9.703125 8.878906 9.742188 8.585938 9.9375 C 8.4375 9.632812 8.113281 9.414062 7.726562 9.414062 M 7.726562 10.726562 C 9.035156 10.726562 10.09375 11.710938 10.09375 12.929688 C 10.09375 14.148438 9.035156 15.136719 7.726562 15.136719 C 6.421875 15.136719 5.367188 14.148438 5.367188 12.929688 C 5.367188 11.710938 6.421875 10.726562 7.726562 10.726562 Z M 7.726562 11.164062 C 6.6875 11.164062 5.835938 11.953125 5.835938 12.929688 C 5.835938 13.90625 6.6875 14.695312 7.726562 14.695312 C 8.773438 14.695312 9.621094 13.90625 9.621094 12.929688 C 9.621094 11.953125 8.773438 11.164062 7.726562 11.164062 Z M 7.726562 11.164062 "/>
</g>
</svg>
