
<svg xmlns="http://www.w3.org/2000/svg" xmlns:xlink="http://www.w3.org/1999/xlink" width="24px" height="24px" viewBox="0 0 24 24" version="1.1">
<g id="surface1">
<path style=" stroke:none;fill-rule:nonzero;fill:rgb(85.098039%,75.294118%,19.607843%);fill-opacity:1;" d="M 21.359375 4.484375 C 29.554688 14.875 17.15625 30.601562 5.042969 21.027344 C -6.429688 11.960938 3.457031 -4.054688 16.894531 0.945312 C 18.742188 1.632812 20.160156 2.96875 21.359375 4.484375 Z M 21.359375 4.484375 "/>
<path style=" stroke:none;fill-rule:nonzero;fill:rgb(93.333333%,90.980392%,66.666667%);fill-opacity:1;" d="M 7.242188 6.347656 L 12.382812 6.347656 L 13.066406 7.34375 L 17.804688 7.34375 C 18.4375 7.34375 18.949219 7.855469 18.949219 8.492188 L 18.949219 13.519531 C 18.949219 14.15625 18.4375 14.667969 17.804688 14.667969 L 7.242188 14.667969 C 6.609375 14.667969 6.09375 14.15625 6.09375 13.519531 L 6.09375 7.492188 C 6.09375 6.859375 6.609375 6.347656 7.242188 6.347656 Z M 7.242188 6.347656 "/>
<path style=" stroke:none;fill-rule:nonzero;fill:rgb(100%,100%,100%);fill-opacity:1;" d="M 7.242188 8.085938 L 17.804688 8.085938 C 18.4375 8.085938 18.949219 8.601562 18.949219 9.234375 L 18.949219 14.882812 C 18.949219 15.515625 18.4375 16.03125 17.804688 16.03125 L 7.242188 16.03125 C 6.609375 16.03125 6.09375 15.515625 6.09375 14.882812 L 6.09375 9.234375 C 6.09375 8.601562 6.609375 8.085938 7.242188 8.085938 Z M 7.242188 8.085938 "/>
<path style=" stroke:none;fill-rule:nonzero;fill:rgb(85.098039%,75.294118%,19.607843%);fill-opacity:1;" d="M 11.433594 23.875 C 7.90625 23.390625 4.195312 20.960938 1.960938 17.679688 C 1.492188 16.984375 0.789062 15.546875 0.5625 14.808594 C 0.164062 13.523438 0.0859375 12.988281 0.0859375 11.4375 C 0.0898438 10.210938 0.109375 9.894531 0.234375 9.324219 C 0.5625 7.828125 1.15625 6.425781 2.003906 5.15625 C 2.699219 4.117188 4.097656 2.71875 5.140625 2.03125 C 8.488281 -0.195312 12.609375 -0.609375 16.691406 0.871094 C 18.375 1.484375 19.832031 2.597656 21.203125 4.320312 C 23.15625 6.78125 24.046875 9.394531 23.9375 12.371094 C 23.882812 13.90625 23.625 15.132812 23.0625 16.535156 C 21.066406 21.511719 16.265625 24.539062 11.433594 23.875 Z M 18.445312 15.851562 C 18.984375 15.492188 18.96875 15.609375 18.96875 11.671875 L 18.96875 8.183594 L 18.8125 7.914062 C 18.445312 7.304688 18.378906 7.289062 15.515625 7.28125 L 13.066406 7.277344 L 12.359375 6.265625 L 6.90625 6.304688 L 6.617188 6.492188 C 6.0625 6.863281 6.078125 6.703125 6.078125 11.191406 C 6.078125 15.46875 6.070312 15.375 6.445312 15.726562 C 6.804688 16.0625 6.71875 16.0625 12.644531 16.046875 L 18.171875 16.03125 Z M 18.445312 15.851562 "/>
</g>
</svg>
