<svg xmlns="http://www.w3.org/2000/svg" viewBox="0 0 24 24"><path d="m 4.949219 21.660156 c 18.042969 11.992188 29.15625 -26.257812 5.828125 -21.195312 c -9.636719 2.15625 -15.488282 15.691406 -5.828125 21.195312" style="fill:#754f7a"/><path d="m 12.230469 4.308594 c -2.21875 0 -4.003907 1.621094 -4.003907 3.636718 v 2.605469 h -0.914062 v 8.242188 h 10.3125 v -8.242188 h -0.847656 v -2.605469 c 0 -2.015624 -1.785156 -3.636718 -4.003906 -3.636718 m -0.398438 1.589844 h 0.328125 c 1.347656 0 2.433594 1.21875 2.433594 2.726562 l 0.003906 1.925781 h -5.195313 l -0.003906 -1.925781 c -0.003906 -1.507812 1.085938 -2.726562 2.433594 -2.726562 m 0.222656 6.777343 c 0.632813 0.019531 1.136719 0.492188 1.136719 1.066407 c 0 0.382812 -0.226563 0.734374 -0.589844 0.925781 l 0.320313 1.183593 c -0.234375 0.085938 -0.488282 0.132813 -0.75 0.132813 h -0.332032 c -0.261718 0 -0.515624 -0.046875 -0.753906 -0.132813 l 0.320313 -1.191406 c -0.355469 -0.191406 -0.574219 -0.539062 -0.574219 -0.917968 c 0 -0.5625 0.484375 -1.03125 1.105469 -1.066407" style="fill:#fff;fill-rule:evenodd"/></svg>