
<svg xmlns="http://www.w3.org/2000/svg" xmlns:xlink="http://www.w3.org/1999/xlink" width="22px" height="22px" viewBox="0 0 22 22" version="1.1">
<g id="surface1">
<path style=" stroke:none;fill-rule:nonzero;fill:rgb(100%,40%,0%);fill-opacity:1;" d="M 5.171875 2.265625 C 16.421875 -5.644531 27.824219 8.964844 18.65625 18.285156 C 10.019531 27.066406 -3.402344 18.925781 0.792969 8 C 1.667969 5.71875 3.105469 3.71875 5.171875 2.265625 Z M 5.171875 2.265625 "/>
<path style=" stroke:none;fill-rule:nonzero;fill:rgb(100%,100%,100%);fill-opacity:0.6;" d="M 21.0625 14.597656 L 19.988281 14.597656 L 19.988281 13.125 L 21.0625 13.125 Z M 21.0625 14.597656 "/>
<path style=" stroke:none;fill-rule:nonzero;fill:rgb(100%,100%,100%);fill-opacity:0.6;" d="M 18.558594 14.597656 L 17.125 14.597656 L 17.125 13.125 L 18.558594 13.125 Z M 18.558594 14.597656 "/>
<path style=" stroke:none;fill-rule:nonzero;fill:rgb(100%,100%,100%);fill-opacity:0.6;" d="M 15.695312 14.597656 L 14.265625 14.597656 L 14.265625 13.125 L 15.695312 13.125 Z M 15.695312 14.597656 "/>
<path style=" stroke:none;fill-rule:nonzero;fill:rgb(100%,100%,100%);fill-opacity:0.6;" d="M 12.832031 14.597656 L 11.402344 14.597656 L 11.402344 13.125 L 12.832031 13.125 Z M 12.832031 14.597656 "/>
<path style=" stroke:none;fill-rule:nonzero;fill:rgb(100%,100%,100%);fill-opacity:0.6;" d="M 9.96875 14.597656 L 8.539062 14.597656 L 8.539062 13.125 L 9.96875 13.125 Z M 9.96875 14.597656 "/>
<path style=" stroke:none;fill-rule:nonzero;fill:rgb(100%,100%,100%);fill-opacity:0.6;" d="M 7.109375 14.597656 L 5.675781 14.597656 L 5.675781 13.125 L 7.109375 13.125 Z M 7.109375 14.597656 "/>
<path style=" stroke:none;fill-rule:nonzero;fill:rgb(100%,100%,100%);fill-opacity:0.6;" d="M 4.246094 14.597656 L 2.8125 14.597656 L 2.8125 13.125 L 4.246094 13.125 Z M 4.246094 14.597656 "/>
<path style=" stroke:none;fill-rule:nonzero;fill:rgb(100%,100%,100%);fill-opacity:0.6;" d="M 1.382812 14.597656 L 0.308594 14.597656 L 0.308594 13.125 L 1.382812 13.125 Z M 1.382812 14.597656 "/>
<path style=" stroke:none;fill-rule:nonzero;fill:rgb(100%,100%,100%);fill-opacity:0.6;" d="M 19.988281 16.074219 L 18.558594 16.074219 L 18.558594 14.597656 L 19.988281 14.597656 Z M 19.988281 16.074219 "/>
<path style=" stroke:none;fill-rule:nonzero;fill:rgb(100%,100%,100%);fill-opacity:0.6;" d="M 17.125 16.074219 L 15.695312 16.074219 L 15.695312 14.597656 L 17.125 14.597656 Z M 17.125 16.074219 "/>
<path style=" stroke:none;fill-rule:nonzero;fill:rgb(100%,100%,100%);fill-opacity:0.6;" d="M 14.265625 16.074219 L 12.832031 16.074219 L 12.832031 14.597656 L 14.265625 14.597656 Z M 14.265625 16.074219 "/>
<path style=" stroke:none;fill-rule:nonzero;fill:rgb(100%,100%,100%);fill-opacity:0.6;" d="M 11.402344 16.074219 L 9.96875 16.074219 L 9.96875 14.597656 L 11.402344 14.597656 Z M 11.402344 16.074219 "/>
<path style=" stroke:none;fill-rule:nonzero;fill:rgb(100%,100%,100%);fill-opacity:0.6;" d="M 8.539062 16.074219 L 7.109375 16.074219 L 7.109375 14.597656 L 8.539062 14.597656 Z M 8.539062 16.074219 "/>
<path style=" stroke:none;fill-rule:nonzero;fill:rgb(100%,100%,100%);fill-opacity:0.6;" d="M 5.675781 16.074219 L 4.246094 16.074219 L 4.246094 14.597656 L 5.675781 14.597656 Z M 5.675781 16.074219 "/>
<path style=" stroke:none;fill-rule:nonzero;fill:rgb(100%,100%,100%);fill-opacity:0.6;" d="M 2.8125 16.074219 L 1.382812 16.074219 L 1.382812 14.597656 L 2.8125 14.597656 Z M 2.8125 16.074219 "/>
<path style=" stroke:none;fill-rule:nonzero;fill:rgb(100%,100%,100%);fill-opacity:0.6;" d="M 18.558594 17.546875 L 17.125 17.546875 L 17.125 16.074219 L 18.558594 16.074219 Z M 18.558594 17.546875 "/>
<path style=" stroke:none;fill-rule:nonzero;fill:rgb(100%,100%,100%);fill-opacity:0.6;" d="M 15.695312 17.546875 L 14.265625 17.546875 L 14.265625 16.074219 L 15.695312 16.074219 Z M 15.695312 17.546875 "/>
<path style=" stroke:none;fill-rule:nonzero;fill:rgb(100%,100%,100%);fill-opacity:0.6;" d="M 12.832031 17.546875 L 11.402344 17.546875 L 11.402344 16.074219 L 12.832031 16.074219 Z M 12.832031 17.546875 "/>
<path style=" stroke:none;fill-rule:nonzero;fill:rgb(100%,100%,100%);fill-opacity:0.6;" d="M 9.96875 17.546875 L 8.539062 17.546875 L 8.539062 16.074219 L 9.96875 16.074219 Z M 9.96875 17.546875 "/>
<path style=" stroke:none;fill-rule:nonzero;fill:rgb(100%,100%,100%);fill-opacity:0.6;" d="M 7.109375 17.546875 L 5.675781 17.546875 L 5.675781 16.074219 L 7.109375 16.074219 Z M 7.109375 17.546875 "/>
<path style=" stroke:none;fill-rule:nonzero;fill:rgb(100%,100%,100%);fill-opacity:0.6;" d="M 4.246094 17.546875 L 2.8125 17.546875 L 2.8125 16.074219 L 4.246094 16.074219 Z M 4.246094 17.546875 "/>
<path style=" stroke:none;fill-rule:nonzero;fill:rgb(100%,98.039216%,98.039216%);fill-opacity:1;" d="M 9.699219 7.242188 C 8.363281 6.652344 6.5625 7.195312 6.078125 8.285156 L 5.589844 9.390625 L 12.203125 12.3125 L 12.691406 11.207031 C 13.179688 10.105469 12.371094 8.421875 11.023438 7.828125 Z M 9.210938 8.347656 L 10.535156 8.933594 C 11.300781 9.273438 11.570312 10.164062 11.367188 10.625 L 10.878906 11.730469 L 6.914062 9.976562 L 7.402344 8.871094 C 7.5625 8.503906 8.417969 8 9.210938 8.347656 Z M 9.210938 8.347656 "/>
<path style=" stroke:none;fill-rule:nonzero;fill:rgb(100%,98.039216%,98.039216%);fill-opacity:1;" d="M 4.566406 12.539062 L 4.566406 13.898438 L 6.191406 13.898438 L 6.191406 14.203125 L 4.566406 14.203125 L 4.566406 15.109375 L 6.191406 15.109375 L 6.191406 15.410156 L 4.566406 15.410156 L 4.566406 16.316406 L 6.191406 16.316406 L 6.191406 16.621094 L 4.566406 16.621094 L 4.566406 17.074219 C 4.566406 17.574219 5.050781 17.980469 5.648438 17.980469 L 12.15625 17.980469 C 12.757812 17.980469 13.242188 17.574219 13.242188 17.074219 L 13.242188 16.621094 L 11.613281 16.621094 L 11.613281 16.316406 L 13.242188 16.316406 L 13.242188 15.410156 L 11.613281 15.410156 L 11.613281 15.109375 L 13.242188 15.109375 L 13.242188 14.203125 L 11.613281 14.203125 L 11.613281 13.898438 L 13.242188 13.898438 L 13.242188 12.539062 Z M 4.566406 12.539062 "/>
</g>
</svg>
