
<svg xmlns="http://www.w3.org/2000/svg" xmlns:xlink="http://www.w3.org/1999/xlink" width="22px" height="22px" viewBox="0 0 22 22" version="1.1">
<g id="surface1">
<path style=" stroke:none;fill-rule:nonzero;fill:rgb(100%,40%,0%);fill-opacity:1;" d="M 5.171875 2.265625 C 16.421875 -5.644531 27.824219 8.964844 18.65625 18.285156 C 10.015625 27.066406 -3.402344 18.925781 0.792969 8 C 1.667969 5.71875 3.105469 3.71875 5.171875 2.265625 Z M 5.171875 2.265625 "/>
<path style=" stroke:none;fill-rule:nonzero;fill:rgb(100%,100%,100%);fill-opacity:1;" d="M 8.265625 6.738281 C 7.925781 6.75 7.597656 7.003906 7.46875 7.363281 L 4.367188 15.964844 C 4.15625 16.460938 4.382812 17.128906 4.832031 17.339844 C 5.277344 17.550781 5.855469 17.253906 6.015625 16.734375 L 6.535156 15.222656 L 10.117188 15.222656 L 10.585938 16.554688 C 10.746094 17.078125 11.328125 17.375 11.777344 17.160156 C 12.226562 16.945312 12.449219 16.265625 12.230469 15.769531 L 9.117188 7.359375 C 8.976562 6.984375 8.625 6.726562 8.265625 6.738281 M 13.558594 9.800781 C 13.3125 9.808594 13.070312 9.996094 12.976562 10.253906 L 12.027344 12.902344 C 13.144531 15.964844 12.027344 12.917969 13.140625 15.949219 L 14.898438 15.949219 L 15.242188 16.914062 C 15.355469 17.296875 15.777344 17.511719 16.101562 17.355469 C 16.429688 17.199219 16.585938 16.707031 16.425781 16.347656 L 14.175781 10.253906 C 14.074219 9.984375 13.820312 9.792969 13.558594 9.800781 M 8.304688 10.0625 L 9.355469 13.050781 L 7.277344 13.050781 Z M 13.585938 12.207031 L 14.347656 14.378906 L 12.84375 14.378906 Z M 13.585938 12.207031 "/>
</g>
</svg>
