
<svg xmlns="http://www.w3.org/2000/svg" xmlns:xlink="http://www.w3.org/1999/xlink" width="22px" height="22px" viewBox="0 0 22 22" version="1.1">
<g id="surface1">
<path style=" stroke:none;fill-rule:nonzero;fill:rgb(46.666667%,53.333333%,60%);fill-opacity:1;" d="M 5.171875 2.265625 C 16.421875 -5.644531 27.824219 8.964844 18.65625 18.285156 C 10.015625 27.066406 -3.402344 18.925781 0.792969 8 C 1.667969 5.71875 3.105469 3.71875 5.171875 2.265625 Z M 5.171875 2.265625 "/>
<path style=" stroke:none;fill-rule:nonzero;fill:rgb(100%,100%,100%);fill-opacity:1;" d="M 11.023438 4.59375 C 7.292969 4.59375 4.265625 7.578125 4.265625 11.257812 C 4.265625 14.9375 7.292969 17.921875 11.023438 17.921875 C 14.753906 17.921875 17.78125 14.9375 17.78125 11.257812 C 17.78125 7.578125 14.753906 4.59375 11.023438 4.59375 Z M 11.023438 6.261719 C 13.820312 6.261719 16.09375 8.496094 16.09375 11.257812 C 16.09375 14.019531 13.820312 16.257812 11.023438 16.257812 C 8.222656 16.257812 5.953125 14.019531 5.953125 11.257812 C 5.953125 8.496094 8.222656 6.261719 11.023438 6.261719 Z M 11.023438 6.261719 "/>
<path style=" stroke:none;fill-rule:nonzero;fill:rgb(100%,100%,100%);fill-opacity:1;" d="M 10.179688 7.925781 L 10.179688 11.257812 L 7.644531 11.257812 L 11.023438 14.589844 L 14.402344 11.257812 L 11.867188 11.257812 L 11.867188 7.925781 Z M 10.179688 7.925781 "/>
</g>
</svg>
