
<svg xmlns="http://www.w3.org/2000/svg" xmlns:xlink="http://www.w3.org/1999/xlink" width="22px" height="22px" viewBox="0 0 22 22" version="1.1">
<g id="surface1">
<path style=" stroke:none;fill-rule:nonzero;fill:rgb(100%,54.901961%,0%);fill-opacity:1;" d="M 5.105469 2.429688 C 16.21875 -5.417969 27.476562 9.070312 18.421875 18.316406 C 9.894531 27.023438 -3.359375 18.949219 0.78125 8.113281 C 1.648438 5.851562 3.066406 3.867188 5.105469 2.429688 Z M 5.105469 2.429688 "/>
<path style=" stroke:none;fill-rule:evenodd;fill:rgb(100%,100%,100%);fill-opacity:1;" d="M 6.738281 14.347656 C 6.738281 14.347656 6.28125 14.578125 7.0625 14.65625 C 8.007812 14.753906 8.488281 14.738281 9.53125 14.566406 C 9.53125 14.566406 9.804688 14.71875 10.183594 14.847656 C 7.851562 15.726562 4.90625 14.796875 6.738281 14.347656 "/>
<path style=" stroke:none;fill-rule:evenodd;fill:rgb(100%,100%,100%);fill-opacity:1;" d="M 6.453125 13.195312 C 6.453125 13.195312 5.941406 13.53125 6.722656 13.601562 C 7.730469 13.691406 8.527344 13.699219 9.90625 13.464844 C 9.90625 13.464844 10.097656 13.636719 10.398438 13.726562 C 7.578125 14.457031 4.433594 13.785156 6.453125 13.195312 "/>
<path style=" stroke:none;fill-rule:evenodd;fill:rgb(100%,100%,100%);fill-opacity:1;" d="M 8.855469 11.246094 C 9.429688 11.832031 8.703125 12.355469 8.703125 12.355469 C 8.703125 12.355469 10.164062 11.691406 9.496094 10.859375 C 8.867188 10.085938 8.386719 9.699219 10.988281 8.371094 C 10.988281 8.371094 6.90625 9.269531 8.855469 11.246094 "/>
<path style=" stroke:none;fill-rule:evenodd;fill:rgb(100%,100%,100%);fill-opacity:1;" d="M 11.941406 15.195312 C 11.941406 15.195312 12.277344 15.441406 11.570312 15.628906 C 10.226562 15.988281 5.964844 16.097656 4.785156 15.644531 C 4.359375 15.480469 5.15625 15.253906 5.40625 15.207031 C 5.667969 15.15625 5.816406 15.167969 5.816406 15.167969 C 5.34375 14.871094 2.761719 15.742188 4.503906 15.992188 C 9.261719 16.671875 13.175781 15.683594 11.941406 15.195312 "/>
<path style=" stroke:none;fill-rule:evenodd;fill:rgb(100%,100%,100%);fill-opacity:1;" d="M 6.957031 12.007812 C 6.957031 12.007812 4.789062 12.460938 6.191406 12.625 C 6.78125 12.691406 7.957031 12.675781 9.054688 12.59375 C 9.949219 12.527344 10.851562 12.386719 10.851562 12.386719 C 10.851562 12.386719 10.535156 12.507812 10.308594 12.644531 C 8.105469 13.152344 3.859375 12.917969 5.082031 12.398438 C 6.117188 11.957031 6.957031 12.007812 6.957031 12.007812 "/>
<path style=" stroke:none;fill-rule:evenodd;fill:rgb(100%,100%,100%);fill-opacity:1;" d="M 10.84375 13.917969 C 13.078125 12.894531 12.042969 11.910156 11.320312 12.042969 C 11.144531 12.074219 11.066406 12.105469 11.066406 12.105469 C 11.066406 12.105469 11.132812 12.011719 11.257812 11.972656 C 12.683594 11.535156 13.78125 13.277344 10.796875 13.96875 C 10.796875 13.96875 10.832031 13.945312 10.84375 13.917969 "/>
<path style=" stroke:none;fill-rule:evenodd;fill:rgb(100%,100%,100%);fill-opacity:1;" d="M 9.496094 6.226562 C 9.496094 6.226562 10.734375 7.320312 8.320312 8.996094 C 6.386719 10.34375 7.878906 11.109375 8.320312 11.988281 C 7.191406 11.089844 6.359375 10.300781 6.917969 9.5625 C 7.734375 8.484375 9.992188 7.960938 9.496094 6.230469 "/>
<path style=" stroke:none;fill-rule:evenodd;fill:rgb(100%,100%,100%);fill-opacity:1;" d="M 7.175781 16.691406 C 9.324219 16.8125 12.617188 16.625 12.695312 15.730469 C 12.695312 15.730469 12.546875 16.070312 10.921875 16.339844 C 9.089844 16.640625 6.832031 16.609375 5.492188 16.414062 C 5.492188 16.414062 5.765625 16.613281 7.175781 16.691406 "/>
<path style="fill-rule:evenodd;fill:rgb(100%,100%,100%);fill-opacity:1;stroke-width:1;stroke-linecap:butt;stroke-linejoin:miter;stroke:rgb(100%,100%,100%);stroke-opacity:1;stroke-miterlimit:4;" d="M 546.038628 274.466671 C 546.038628 274.466671 538.36835 278.932144 551.479936 280.495059 C 567.344954 282.281249 575.474137 281.98355 592.912546 278.70887 C 592.912546 278.70887 597.501601 281.611428 603.926278 284.067438 C 564.722637 300.887386 515.29196 283.099919 546.038628 274.466671 " transform="matrix(0.0595847,0,0,0.052486,-25.699615,0.0357371)"/>
<path style="fill-rule:evenodd;fill:rgb(100%,100%,100%);fill-opacity:1;stroke-width:1;stroke-linecap:butt;stroke-linejoin:miter;stroke:rgb(100%,100%,100%);stroke-opacity:1;stroke-miterlimit:4;" d="M 541.252899 252.585853 C 541.252899 252.585853 532.664811 258.91194 545.776396 260.326007 C 562.690341 262.037771 576.064159 262.18662 599.206107 257.721147 C 599.206107 257.721147 602.418446 260.995828 607.466406 262.782017 C 560.133582 276.624983 507.35945 263.82396 541.252899 252.585853 " transform="matrix(0.0595847,0,0,0.052486,-25.699615,0.0357371)"/>
<path style="fill-rule:evenodd;fill:rgb(100%,100%,100%);fill-opacity:1;stroke-width:1;stroke-linecap:butt;stroke-linejoin:miter;stroke:rgb(100%,100%,100%);stroke-opacity:1;stroke-miterlimit:4;" d="M 581.636583 215.448003 C 591.273598 226.537261 579.079823 236.584575 579.079823 236.584575 C 579.079823 236.584575 603.598488 223.932402 592.322525 208.079973 C 581.767698 193.343912 573.704073 185.975882 617.365653 160.671535 C 617.365653 160.671535 548.857619 177.789181 581.571025 215.448003 " transform="matrix(0.0595847,0,0,0.052486,-25.699615,0.0357371)"/>
<path style="fill-rule:evenodd;fill:rgb(100%,100%,100%);fill-opacity:1;stroke-width:1;stroke-linecap:butt;stroke-linejoin:miter;stroke:rgb(100%,100%,100%);stroke-opacity:1;stroke-miterlimit:4;" d="M 633.361787 290.691223 C 633.361787 290.691223 638.999769 295.379969 627.133784 298.952348 C 604.581857 305.799406 533.058158 307.883294 513.259664 299.250046 C 506.11385 296.124215 519.487667 291.807591 523.683374 290.914496 C 528.075756 289.946977 530.566957 290.170251 530.566957 290.170251 C 522.634448 284.58841 479.300657 301.11066 508.539493 305.873831 C 588.389049 318.823702 654.078093 300.068716 633.361787 290.691223 " transform="matrix(0.0595847,0,0,0.052486,-25.699615,0.0357371)"/>
<path style="fill-rule:evenodd;fill:rgb(100%,100%,100%);fill-opacity:1;stroke-width:1;stroke-linecap:butt;stroke-linejoin:miter;stroke:rgb(100%,100%,100%);stroke-opacity:1;stroke-miterlimit:4;" d="M 549.709872 229.886366 C 549.709872 229.886366 513.39078 238.519614 536.860518 241.645445 C 546.759765 242.985087 566.492701 242.687388 584.914479 241.198897 C 599.992802 239.93368 615.071126 237.179972 615.071126 237.179972 C 615.071126 237.179972 609.760933 239.487133 605.958574 242.091992 C 569.04946 251.841608 497.722435 247.30171 518.242066 237.328821 C 535.614917 228.918847 549.709872 229.886366 549.709872 229.886366 " transform="matrix(0.0595847,0,0,0.052486,-25.699615,0.0357371)"/>
<path style="fill-rule:evenodd;fill:rgb(100%,100%,100%);fill-opacity:1;stroke-width:1;stroke-linecap:butt;stroke-linejoin:miter;stroke:rgb(100%,100%,100%);stroke-opacity:1;stroke-miterlimit:4;" d="M 614.94001 266.354395 C 652.439144 246.855163 635.066294 228.174601 623.003635 230.630611 C 619.98797 231.300432 618.676812 231.821404 618.676812 231.821404 C 618.676812 231.821404 619.791296 230.10964 621.88915 229.365394 C 645.883352 220.880995 664.239571 254.148769 614.153315 267.396339 C 614.153315 267.396339 614.743336 266.875367 614.94001 266.354395 " transform="matrix(0.0595847,0,0,0.052486,-25.699615,0.0357371)"/>
<path style="fill-rule:evenodd;fill:rgb(100%,100%,100%);fill-opacity:1;stroke-width:1;stroke-linecap:butt;stroke-linejoin:miter;stroke:rgb(100%,100%,100%);stroke-opacity:1;stroke-miterlimit:4;" d="M 592.322525 119.812457 C 592.322525 119.812457 613.104388 140.651331 572.589588 172.579463 C 540.138414 198.255932 565.181543 212.843144 572.589588 229.588668 C 553.643347 212.471021 539.745067 197.437262 549.054292 183.445447 C 562.755899 162.829847 600.713939 152.856957 592.322525 119.812457 " transform="matrix(0.0595847,0,0,0.052486,-25.699615,0.0357371)"/>
<path style="fill-rule:evenodd;fill:rgb(100%,100%,100%);fill-opacity:1;stroke-width:1;stroke-linecap:butt;stroke-linejoin:miter;stroke:rgb(100%,100%,100%);stroke-opacity:1;stroke-miterlimit:4;" d="M 553.381116 319.195825 C 589.437976 321.502986 644.768867 317.930608 646.080025 300.887386 C 646.080025 300.887386 643.523266 307.362322 616.251168 312.497616 C 585.570058 318.228306 547.612018 317.558485 525.125649 313.911682 C 525.125649 313.911682 529.780262 317.707334 553.446674 319.195825 " transform="matrix(0.0595847,0,0,0.052486,-25.699615,0.0357371)"/>
</g>
</svg>
