<svg xmlns="http://www.w3.org/2000/svg" viewBox="0 0 32 32"><path d="m 30.964844 20.394531 c 5.976562 -16.671875 -15.496094 -24.78125 -23.5625 -17.992187 c -8.070313 6.789062 -10.824219 18.421875 -1.6875 24.273437 c 9.136718 5.855469 19.273437 10.398438 25.25 -6.28125" style="fill:#ff8c00"/><path d="m 116.78125 204.5625 c -23.125 -4.65625 -46.59375 -22.65625 -57.9375 -44.46875 c -7.5625 -14.4375 -9.3125 -21.4375 -9.3125 -36.875 c 0 -12 0.34375 -14.625 3.125 -23.0625 c 9 -27.59375 32.75 -50.1875 60.1875 -57.34375 c 10.1875 -2.65625 24.96875 -2.875 35.09375 -0.53125 c 40.21875 9.375 70.875 52.25 64.90625 90.6875 c -2.9375 19.0625 -10.6875 33.75 -25.5 48.3125 c -16.625 16.34375 -35.625 24.5 -56.375 24.25 c -5.4375 -0.0625 -11.8125 -0.5 -14.1875 -0.96875 m 26.6875 -22.78125 c 7.9375 -1.5 19.96875 -7.40625 26 -12.75 l 4.9375 -4.40625 l -0.84375 -7.84375 c -0.65625 -6 -0.46875 -8.53125 0.75 -10.875 c 2 -3.875 2 -6.5 -0.03125 -9.1875 c -0.875 -1.15625 -1.59375 -3.5625 -1.625 -5.375 c -0.03125 -4.5625 -3.9375 -6.125 -13.0625 -5.25 l -7.0625 0.65625 l -4.03125 -4.15625 c -3.84375 -3.96875 -4.03125 -4.46875 -3.59375 -10 c 0.5 -5.71875 1.125 -7.09375 5.5 -11.78125 c 1.1875 -1.28125 3.09375 -3.53125 4.21875 -4.96875 c 1.40625 -1.78125 2.84375 -2.5 4.46875 -2.15625 c 1.34375 0.25 2.78125 -0.09375 3.1875 -0.71875 c 0.375 -0.65625 2.875 -1.1875 5.5625 -1.1875 c 4.0625 0 4.8125 0.3125 4.8125 2.15625 c 0 1.1875 0.65625 2.15625 1.5 2.15625 c 0.8125 0 2.875 0.75 4.59375 1.625 c 2.78125 1.46875 3.25 1.46875 4.40625 -0.09375 c 1.625 -2.1875 -0.65625 -6.15625 -6.4375 -11.15625 c -3.40625 -3 -4.5625 -3.4375 -7.5 -2.8125 c -1.875 0.4375 -4.5625 2.125 -5.96875 3.78125 c -4.28125 5.09375 -9.59375 5 -8.875 -0.125 c 0.3125 -2.21875 0.875 -2.53125 3.90625 -2.25 c 3.96875 0.40625 5.75 -1.96875 3.5 -4.6875 c -1.0625 -1.3125 -1.03125 -1.625 0.25 -1.625 c 0.875 0 2.46875 -0.96875 3.5625 -2.15625 c 2.15625 -2.375 1.09375 -2.75 -3.1875 -1.125 c -2.625 1 -2.75 0.875 -2.15625 -1.53125 c 0.5625 -2.21875 0.03125 -2.96875 -3.5 -4.75 c -10.15625 -5.15625 -27.0625 -7.28125 -38.28125 -4.78125 c -4.5 1.03125 -6.25 4.125 -1.84375 3.25 c 2.21875 -0.40625 2.84375 -0.09375 2.84375 1.375 c 0 1 0.75 2.5 1.6875 3.25 c 2.4375 2.03125 1.34375 2.6875 -6.78125 3.96875 c -3.09375 0.5 -3.40625 0.875 -2.90625 3.4375 c 0.53125 2.59375 0.25 2.875 -2.90625 2.96875 c -1.96875 0.09375 -3.90625 0.90625 -4.46875 1.9375 c -0.5625 0.9375 -1.5625 1.78125 -2.3125 1.8125 c -1.71875 0.03125 -6.15625 3.8125 -6.15625 5.21875 c 0 0.59375 -1.46875 1.96875 -3.25 3.03125 c -1.78125 1.0625 -3.6875 3.15625 -4.25 4.65625 c -0.6875 1.875 -1.03125 2.15625 -1.09375 0.875 c -0.0625 -1.34375 -1 -1.90625 -3.0625 -1.90625 c -6.46875 0.0625 -7.8125 1.0625 -9.625 7.25 c -1.875 6.5625 -1.4375 8.125 1.5625 5.40625 c 2.78125 -2.53125 3.59375 -2.25 2.78125 0.96875 c -0.5625 2.25 -0.25 2.90625 1.59375 3.375 c 1.625 0.4375 2.3125 1.46875 2.3125 3.375 c 0 2.78125 0 2.78125 -2.4375 0.6875 c -2.5 -2.125 -6.84375 -4.78125 -7.84375 -4.78125 c -0.3125 0 -0.5625 3.53125 -0.5625 7.90625 c 0 16.25 6.71875 32.3125 18.3125 43.71875 c 3.84375 3.84375 7.6875 6.9375 8.46875 6.9375 c 1.1875 0 1.34375 -2 0.78125 -10.03125 c -0.71875 -10.125 -1.625 -12.75 -4.375 -12.75 c -2.125 0 -9 -11.09375 -8.8125 -14.21875 c 0.0625 -1.40625 0.78125 -3.53125 1.5625 -4.71875 c 0.78125 -1.1875 1.40625 -3.4375 1.40625 -5 c 0 -4.40625 3.46875 -6.875 8.40625 -5.96875 c 2.25 0.40625 5.21875 0.90625 6.59375 1.09375 c 1.34375 0.1875 3.5625 1.3125 4.875 2.5 c 1.3125 1.1875 3.65625 2.46875 5.25 2.84375 c 1.75 0.40625 3.09375 1.65625 3.46875 3.15625 c 0.46875 1.84375 2.40625 3.125 7.875 5.15625 c 8.96875 3.3125 10.34375 5.125 7.125 9.21875 c -1.28125 1.625 -2.34375 4.5 -2.375 6.375 c -0.03125 4.28125 -0.9375 5.6875 -4.65625 7.0625 c -1.625 0.625 -3.25 2 -3.59375 3.0625 c -1.65625 5.0625 -4.3125 8.96875 -6.15625 8.96875 c -1.5 0 -1.8125 0.53125 -1.3125 2.15625 c 0.375 1.21875 0.25 2.1875 -0.3125 2.1875 c -0.53125 0 -2.03125 0.90625 -3.3125 2.03125 l -2.3125 2.03125 l 4.59375 1.6875 c 2.53125 0.9375 5.59375 1.90625 6.78125 2.1875 c 4.15625 0.9375 17.625 0.75 23.4375 -0.375 m -53.1875 -97.75 c 0.96875 -1.8125 1.4375 -2 2.125 -0.84375 c 0.5625 0.90625 0.40625 1.78125 -0.375 2.28125 c -0.875 0.5625 -0.6875 0.84375 0.59375 0.875 c 1.03125 0 1.90625 -0.75 1.90625 -1.6875 c 0 -1.25 0.625 -1.5 2.375 -0.9375 c 2.21875 0.6875 2.25 0.625 0.625 -1.03125 c -0.96875 -0.96875 -2.28125 -1.78125 -2.9375 -1.78125 c -0.625 0 -1.15625 -0.46875 -1.15625 -1.0625 c 0 -2.25 -2.84375 -0.96875 -4.65625 2.0625 c -2.125 3.59375 -2.25 4.4375 -0.8125 4.4375 c 0.59375 0 1.625 -1.03125 2.3125 -2.3125 m 11.84375 -9.625 c 0 -0.625 1.21875 -1.59375 2.71875 -2.15625 c 1.5 -0.59375 2.6875 -1.53125 2.6875 -2.15625 c 0 -1.46875 -0.34375 -1.40625 -4.8125 0.71875 c -3.875 1.84375 -5.21875 4.6875 -2.21875 4.6875 c 0.90625 0 1.625 -0.5 1.625 -1.125" transform="scale(0.125)" style="fill:#fff;stroke:#fff;fill-rule:evenodd;stroke-width:5.938"/></svg>