<svg xmlns="http://www.w3.org/2000/svg" viewBox="0 0 32 32"><path d="m 6.925781 28.789062 c 23.859375 15.859376 37.539063 -32.683593 7.710938 -28.019531 c -12.742188 2.851563 -20.476563 20.746094 -7.710938 28.019531" style="fill:#ff8c00"/><g style="fill:#fff;stroke:#fff"><path d="m 547.568602 745.932076 v 3.998285 h 1.003092 v -3.000639 h 2.998528 v -0.997646" transform="matrix(1.090379 0 0 1.014107 -589.037591 -747.755473)"/><path d="m 6.000549 5.998748 v 9.999564 h 9.998676 v -9.999564 m -8.999167 1.001497 h 7.999658 v 8.000422 h -7.999658" transform="matrix(1.090379 0 0 1.014107 4.750099 5.654911)"/><g transform="matrix(1.090379 0 0 1.014107 -589.037591 -747.755473)"><path d="m 562.571991 757.930783 v 3.00064 h -3.002111 v 0.997645 h 3.998037 v -3.998285"/><path d="m 563.567917 745.932076 v 3.998285 h -0.995926 v -3.000639 h -3.002111 v -0.997646"/><path d="m 548.571694 757.930783 v 3.00064 h 2.998528 v 0.997645 h -4.00162 v -3.998285"/><g style="fill-rule:evenodd"><path d="m 549.119812 755.977864 l -1.5942 -2.049218 l 1.5942 -2.049217" style="stroke-width:0.904"/><path d="m 562.131347 756.000975 l 1.49389 -2.064625 l -1.49389 -2.064625" style="stroke-width:0.878"/><g style="stroke-width:0.897"><path d="m 553.519086 747.44973 l 2.049174 -1.571581 l 2.049173 1.571581"/><path d="m 553.519086 760.419119 l 2.049174 1.575432 l 2.049173 -1.575432"/></g></g></g></g></svg>