<svg xmlns="http://www.w3.org/2000/svg" viewBox="0 0 32 32"><path d="m 6.597656 28.878906 c 24.054688 15.992188 38.875 -35.011718 7.773438 -28.257812 c -12.851563 2.875 -20.652344 20.921875 -7.773438 28.257812" style="fill:#ff8c00"/><g style="fill:#fff"><path d="m 10.128906 9.457031 c -2.1875 0 -3.277344 0 -3.277344 2.570313 v 8.558594 c 0 2.566406 1.089844 2.566406 3.277344 2.566406 h 9.179688 c 2.1875 0 3.28125 0 3.28125 -2.566406 v -8.558594 c 0 -2.570313 -1.09375 -2.570313 -3.28125 -2.570313 m 0.328125 1.992188 c 0.546875 0 0.984375 0.441406 0.984375 0.992187 c 0 0.546875 -0.4375 0.992188 -0.984375 0.992188 c -0.539063 0 -0.980469 -0.441406 -0.980469 -0.992188 c 0 -0.546875 0.4375 -0.992187 0.980469 -0.992187 m -9.097657 3.976562 h 3.773438 c 1.734375 0 2.375 -0.003906 2.375 1.804688 v 2.789062 c 0 1.808594 -0.640625 1.808594 -2.375 1.808594 h -3.773438 c -1.734374 0 -2.378906 0 -2.378906 -1.808594 v -2.789062 c 0 -1.808594 0.644532 -1.804688 2.378906 -1.804688"/><path d="m 6.195312 11.449219 h 1.3125 v 2.648437 h -1.3125"/><path d="m 25.871094 20.777344 c 0 0 -4.203125 -1.832032 -7.875 -4.476563 c 0 -0.003906 0 -0.003906 0 -0.003906 c 0 -0.003906 0.003906 -0.003906 0.003906 -0.003906 c 3.875 -2.730469 7.871094 -4.464844 7.871094 -4.464844"/></g></svg>