<svg xmlns="http://www.w3.org/2000/svg" viewBox="0 0 32 32"><path d="m 3.394531 25.269531 c -15.777343 -23.621093 34.53125 -38.171875 27.871094 -7.636719 c -2.839844 12.621094 -20.636719 20.277344 -27.871094 7.636719" style="fill:#ff8c00"/><g style="stroke-linecap:round;stroke-linejoin:round"><path d="m 4.689922 46.614097 c 0 1.124583 0.904812 2.032379 2.033035 2.032379 h 46.55874 c 1.117052 0 2.033035 -0.907796 2.033035 -2.032379 v -33.222618 c 0 -1.124583 -0.915983 -2.032379 -2.033035 -2.032379 h -46.55874 c -1.128223 0 -2.033035 0.907796 -2.033035 2.032379" transform="matrix(0.349693 0 0 0.288301 5.84825 7.28375)" style="fill:none;stroke:#fff;stroke-width:8.125"/><g style="stroke:#ff8c00"><path d="m -46.804297 5.413934 c -1.104992 0 -1.996974 0.889049 -1.996974 1.997617 v 45.747641 c 0 1.097593 0.891982 1.997618 1.996974 1.997618 h 32.64387 c 1.118306 0 1.996974 -0.900025 1.996974 -1.997618 v -45.747641 c 0 -1.108568 -0.878668 -1.997617 -1.996974 -1.997617" transform="matrix(0 -0.293413 0.355893 0 5.561502 6.989683)" style="stroke-dasharray:3.07057 3.07057;fill:#fff;fill-rule:evenodd;stroke-width:3.071"/><path d="m 12.240957 19.033044 h 6.739216 m -3.204969 0 v 22.87201 m -3.534247 0.612405 h 6.903854" transform="matrix(0.355893 0 0 0.293413 5.561502 6.989683)" style="fill:none;stroke-width:4.913"/></g></g></svg>