<svg xmlns="http://www.w3.org/2000/svg" viewBox="0 0 32 32"><path d="m 27.894531 5.0625 c 18.148438 27.691406 -31.417969 38.410156 -27.46875 9.917969 c 1.609375 -11.617188 20.527344 -20.515625 27.46875 -9.917969" style="fill:#9acd31"/><path d="m 7.459321 8.059301 c -1.540787 0 -2.771028 1.230873 -2.771028 2.766292 v 38.347409 c 0 1.535419 1.230241 2.766292 2.771028 2.766292 h 45.088929 c 1.540788 0 2.759084 -1.230873 2.759084 -2.766292 v -38.347409 c 0 -1.535419 -1.218296 -2.766292 -2.759084 -2.766292" transform="matrix(0.327045 0 0 0.307835 6.3925 7.51125)" style="fill:none;stroke:#fff;stroke-linecap:round;stroke-linejoin:round;stroke-width:10.384"/><g transform="matrix(0.331921 0 0 0.312425 6.245003 7.104292)" style="stroke:#9acd31"><path d="m 7.782333 9.255997 c -1.506381 0 -2.718547 1.200289 -2.718547 2.713154 v 37.784108 c 0 1.512865 1.212166 2.725658 2.718547 2.725658 h 44.426472 c 1.518149 0 2.730315 -1.212793 2.730315 -2.725658 v -37.784108 c 0 -1.512865 -1.212166 -2.713154 -2.730315 -2.713154" style="fill:#fff;fill-rule:evenodd;stroke-width:3.125"/><g style="fill:none;stroke-linecap:round;stroke-linejoin:round"><g style="stroke-width:3.197"><path d="m 5.346232 23.797002 h 49.369285"/><path d="m 30.001453 9.868645 v 42.235181"/><path d="m 5.346232 37.962917 h 49.369285"/></g><path d="m 7.782333 9.255997 c -1.506381 0 -2.718547 1.200289 -2.718547 2.713154 v 37.784108 c 0 1.512865 1.212166 2.725658 2.718547 2.725658 h 44.426472 c 1.518149 0 2.730315 -1.212793 2.730315 -2.725658 v -37.784108 c 0 -1.512865 -1.212166 -2.713154 -2.730315 -2.713154" style="stroke-width:5.116"/></g></g></svg>