<svg xmlns="http://www.w3.org/2000/svg" viewBox="0 0 32 32"><path d="m 15.195312 31.550781 c -43.375 -19.28125 20.265626 -53.9375 16.65625 -10.980469 c -0.84375 6.46875 -7.527343 13.261719 -16.65625 10.980469" style="fill:#ff8c00"/><path d="m 0.00205438 0.271696 h 251.6852146 v 251.67 h -251.6852146" transform="matrix(0.118933 0 0 0.122199 0.546631 1.900393)" style="stroke-opacity:0.0117647;fill:none;stroke:#7f7f7f;stroke-width:0.1"/><g style="fill:#fff"><path d="m 16.554688 18.566406 l 4.191406 -0.007812 l 0.003906 2.152344 l 7.777344 -4.511719 l 0.507812 -0.707031 l -7.820312 -4.097657 c -0.671875 0.847657 -0.414063 0.808594 -0.265625 1.875 l -3.953125 -0.113281 l -0.453125 0.691406"/><path d="m 15.714844 18.566406 l -4.1875 -0.007812 l -0.007813 2.152344 l -7.777343 -4.511719 l -0.503907 -0.707031 l 7.820313 -4.097657 c 0.671875 0.847657 0.414062 0.808594 0.265625 1.875 l 3.953125 -0.113281 l 0.449218 0.691406"/></g></svg>