<svg xmlns="http://www.w3.org/2000/svg" viewBox="0 0 32 32"><path d="m 14.738281 31.785156 c 19.324219 1.835938 24.527344 -29.15625 4.679688 -31.566406 c -18.246094 -2.980469 -27.644531 25.113281 -9.511719 30.730469 c 1.53125 0.617187 3.207031 0.605469 4.828125 0.835937" style="fill:#ff8c00"/><g style="fill:#fff;fill-rule:evenodd"><path d="m 9.332031 18.875 c 0 -1.457031 0.019531 -2.050781 0.042969 -1.324219 c 0.027344 0.726563 0.027344 1.917969 0 2.644531 c -0.023438 0.730469 -0.042969 0.132813 -0.042969 -1.320312"/><path d="m 18.824219 13.800781 c -0.816407 -0.738281 -0.671875 -1.207031 0.832031 -2.742187 l 1.320312 -1.34375 l -2.550781 -2.53125 l 6.921875 0.09375 l 0.09375 6.75 l -1.257812 -1.199219 c -0.695313 -0.660156 -1.320313 -1.199219 -1.398438 -1.199219 c -0.078125 0 -0.804687 0.609375 -1.617187 1.351563 c -0.914063 0.828125 -1.53125 1.273437 -1.601563 1.152343 c -0.070312 -0.105468 -0.152344 -0.125 -0.1875 -0.042968 c -0.039062 0.085937 -0.289062 -0.046875 -0.554687 -0.289063"/><path d="m 6.816406 24.402344 c -0.195312 -0.183594 -0.25 -1.21875 -0.25 -4.554688 c 0 -2.371094 0.050782 -4.5625 0.113282 -4.871094 l 0.117187 -0.554687 l 5.582031 -0.015625 c 5.355469 -0.011719 5.585938 0 5.777344 0.339844 c 0.296875 0.53125 0.257812 9.085937 -0.042969 9.457031 c -0.265625 0.332031 -0.625 0.351563 -6.78125 0.402344 c -3.320312 0.03125 -4.320312 -0.015625 -4.515625 -0.203125 m 10.550782 -0.792969 c 0.320312 -0.304687 0.320312 -6.511719 0 -6.816406 c -0.164063 -0.15625 -1.527344 -0.21875 -4.929688 -0.21875 c -2.585938 0 -4.835938 0.050781 -5.003906 0.113281 c -0.257813 0.09375 -0.296875 0.574219 -0.296875 3.519531 c 0 2.554688 0.058593 3.429688 0.234375 3.5 c 0.132812 0.050781 2.382812 0.097657 5.003906 0.105469 c 3.46875 0.011719 4.824219 -0.042969 4.992188 -0.203125"/><path d="m 6.816406 24.402344 c -0.195312 -0.183594 -0.25 -1.21875 -0.25 -4.554688 c 0 -2.371094 0.050782 -4.5625 0.113282 -4.871094 l 0.117187 -0.554687 l 5.582031 -0.015625 c 5.355469 -0.011719 5.585938 0 5.777344 0.339844 c 0.296875 0.53125 0.257812 9.085937 -0.042969 9.457031 c -0.265625 0.332031 -0.625 0.351563 -6.78125 0.402344 c -3.320312 0.03125 -4.320312 -0.015625 -4.515625 -0.203125 m 9.875 -0.792969 c 0.320313 -0.304687 0.183594 -6.511719 -0.136718 -6.816406 c -0.167969 -0.15625 -0.714844 -0.21875 -4.117188 -0.21875 c -2.585938 0 -4.160156 0.050781 -4.324219 0.113281 c -0.257812 0.09375 -0.300781 0.710938 -0.300781 3.652344 c 0 2.5625 0.058594 3.164062 0.238281 3.234375 c 0.132813 0.046875 1.703125 0.230469 4.324219 0.238281 c 3.46875 0.011719 4.148438 -0.042969 4.316406 -0.203125"/></g></svg>