<svg xmlns="http://www.w3.org/2000/svg" viewBox="0 0 32 32" xmlns:xlink="http://www.w3.org/1999/xlink"><defs><path id="0" d="m 13.3125 14.886719 v 1.019531 h 6.507812 v -2.035156 h -6.507812"/></defs><g style="fill:#fff"><path d="m 7.007812 8.0625 c -0.023437 0 -0.042968 0 -0.066406 0.003906 c -0.328125 0.015625 -0.59375 0.277344 -0.601562 0.605469 c -0.015625 0.328125 0.234375 0.613281 0.5625 0.648437 c 0 0 4.675781 0.644532 7.992187 2.738282 c 1.65625 1.046875 2.925781 2.40625 3.242188 4.183594 c 0.285156 1.605468 -0.203125 3.667968 -2.113281 6.308593 h -1.425782 v 3.78125 h 3.804688 v -2.101562 c 2.996094 -0.492188 4.78125 -1.828125 5.757812 -3.207031 c 1.222656 -1.738282 1.222656 -3.511719 1.222656 -3.511719 c 0 -0.347657 -0.285156 -0.628907 -0.636718 -0.628907 c -0.351563 0 -0.632813 0.28125 -0.632813 0.628907 c 0 0 0 1.375 -0.996093 2.789062 c -0.746094 1.058594 -2.253907 2.023438 -4.714844 2.46875 v -0.21875 h -1.042969 c 1.628906 -2.488281 2.347656 -4.699219 2.027344 -6.523437 c -0.398438 -2.238282 -1.984375 -3.875 -3.816407 -5.03125 c -3.664062 -2.3125 -8.503906 -2.925782 -8.503906 -2.925782 c -0.019531 -0.003906 -0.039062 -0.007812 -0.0625 -0.007812" style="fill-opacity:0.501961"/><path d="m 14.628906 24.464844 v -1.832032 h 0.730469 c 0.730469 0 0.734375 -0.003906 1.160156 -0.667968 c 2.34375 -3.652344 2.3125 -6.394532 -0.089843 -8.707032 c -1.886719 -1.816406 -4.777344 -3.066406 -9.023438 -3.914062 c -0.933594 -0.183594 -1.179688 -0.488281 -0.792969 -0.964844 l 0.25 -0.308594 l 1.476563 0.308594 c 3.988281 0.835938 7.335937 2.410156 9.15625 4.308594 c 2.359375 2.46875 2.472656 5.183594 0.359375 8.871094 c -0.285157 0.492187 -0.515625 0.929687 -0.515625 0.964844 c 0 0.164062 1.453125 0.222656 2.023437 0.085937 c 1.007813 -0.246094 2.472657 -0.980469 3.15625 -1.589844 c 0.75 -0.667969 1.417969 -1.929687 1.585938 -2.976562 c 0.128906 -0.835938 0.394531 -1.175781 0.8125 -1.042969 c 0.40625 0.128906 0.476562 0.597656 0.226562 1.582031 c -0.347656 1.367188 -0.859375 2.273438 -1.828125 3.242188 c -1.046875 1.042969 -2.414062 1.773437 -3.988281 2.128906 l -1.039063 0.238281 v 2.101563 h -3.660156 v -1.832031"/></g><path d="m 26.308594 27.445312 c 25.011718 -33.15625 -43.824219 -37.867187 -21.734375 -4.019531 c 5.039062 7.714844 15.109375 12.804688 21.734375 4.019531" style="fill:#ff8c00"/><g style="fill:#faefe5"><g style="fill-opacity:0.501961"><path d="m 11.003906 20.261719 h 6.648438 v -2.164063 h -6.648438"/><path d="m 13.21875 15.929688 h 6.648438 v -2.164063 h -6.648438"/><path d="m 15.433594 11.597656 h 6.648437 v -2.164062 h -6.648437"/><path d="m 7.777344 23.269531 l -0.058594 -0.5 l 0.394531 -0.332031 l 0.121094 -0.011719 h 1.105469 l 0.460937 0.234375 l 0.054688 0.507813 l -0.390625 0.328125 l -0.125 0.011718 h -1.105469 m 2.867187 -0.238281 l -0.058593 -0.5 l 0.390625 -0.332031 l 0.125 -0.011719 h 1.109375 l 0.457031 0.234375 l 0.058594 0.507813 l -0.394532 0.328125 l -0.121093 0.011718 h -1.109375 m 2.867187 -0.238281 l -0.058593 -0.5 l 0.394531 -0.332031 l 0.121093 -0.011719 h 1.105469 l 0.460938 0.234375 l 0.054687 0.507813 l -0.390625 0.328125 l -0.125 0.011718 h -1.105469 m 2.867188 -0.238281 l -0.058594 -0.5 l 0.390625 -0.332031 l 0.125 -0.011719 h 1.109375 l 0.457032 0.234375 l 0.058593 0.507813 l -0.394531 0.328125 l -0.121094 0.011718 h -1.109375 m 2.867188 -0.238281 l -0.058594 -0.5 l 0.394531 -0.332031 l 0.121094 -0.011719 h 1.105469 l 0.460937 0.234375 l 0.054688 0.507813 l -0.390625 0.328125 l -0.125 0.011718 h -1.105469 m 2.769531 -1.621093 l 0.242188 -0.449219 l 0.515625 -0.058594 l 0.335937 0.386719 l 0.015625 0.121094 l -0.554687 1.078125 m -17.160157 -2.042969 l -0.015624 -0.121094 v -1.082031 l 0.242187 -0.449219 l 0.515625 -0.054687 l 0.339844 0.382812 l 0.011718 0.121094 v 1.082031 l -0.242187 0.449219 l -0.511719 0.054688 m 16.28125 -1.464844 l -0.015625 -0.121094 v -1.082031 l 0.242188 -0.449219 l 0.515625 -0.054688 l 0.335937 0.382813 l 0.015625 0.121094 v 1.082031 l -0.242187 0.449219 l -0.515625 0.054687 m -16.957032 -2.546875 l -0.015624 -0.121093 v -1.082032 l 0.242187 -0.449218 l 0.515625 -0.054688 l 0.339844 0.382812 l 0.011718 0.121094 v 1.082032 l -0.242187 0.449218 l -0.511719 0.054688 m 16.28125 -1.46875 l -0.015625 -0.117188 v -1.085937 l 0.242188 -0.445313 l 0.515625 -0.054687 l 0.335937 0.382812 l 0.015625 0.117188 v 1.085937 l -0.242187 0.445313 l -0.515625 0.054687 m -16.957032 -2.546875 l -0.015624 -0.117187 v -1.085938 l 0.242187 -0.445312 l 0.515625 -0.054688 l 0.339844 0.382813 l 0.011718 0.117187 v 1.085938 l -0.242187 0.445312 l -0.511719 0.054688 m 16.28125 -1.464844 l -0.015625 -0.121094 v -1.082031 l 0.242188 -0.449219 l 0.515625 -0.054687 l 0.335937 0.382812 l 0.015625 0.121094 v 1.082031 l -0.242187 0.449219 l -0.515625 0.054687 m -16.957032 -2.546874 l -0.015624 -0.121094 v -1.082032 l 0.242187 -0.449218 l 0.515625 -0.054688 l 0.339844 0.382813 l 0.011718 0.121093 v 1.082032 l -0.242187 0.449218 l -0.511719 0.054688 m 16.28125 -1.464844 l -0.015625 -0.121094 v -1.082031 l 0.242188 -0.449219 l 0.515625 -0.054687 l 0.335937 0.382813 l 0.015625 0.121093 v 1.082031 l -0.242187 0.449219 l -0.515625 0.054688 m -16.957032 -2.550781 l -0.015624 -0.121094 l 0.554687 -1.078125 l 0.554687 1.078125 l -0.246093 0.449218 l -0.511719 0.058594 m 1.964844 -1.285156 l -0.0625 -0.503906 l 0.394531 -0.328125 l 0.121094 -0.015625 h 1.109375 l 0.460937 0.238281 l 0.054688 0.503906 l -0.390625 0.328125 l -0.125 0.015625 h -1.109375 m 2.867187 -0.238281 l -0.058594 -0.503906 l 0.394532 -0.328125 l 0.121094 -0.015625 h 1.109374 l 0.457032 0.238281 l 0.058594 0.503906 l -0.394532 0.328125 l -0.121094 0.015625 h -1.109374 m 2.871093 -0.238281 l -0.0625 -0.503906 l 0.394531 -0.328125 l 0.121094 -0.015625 h 1.109375 l 0.457031 0.238281 l 0.058594 0.503906 l -0.390625 0.328125 l -0.125 0.015625 h -1.109375 m 2.867188 -0.238281 l -0.058594 -0.503906 l 0.394531 -0.328125 l 0.121094 -0.015625 h 1.109375 l 0.457031 0.238281 l 0.058594 0.503906 l -0.394531 0.328125 l -0.121094 0.015625 h -1.109375 m 2.867187 -0.238281 l -0.058593 -0.503906 l 0.394531 -0.328125 l 0.121094 -0.015625 l 1.109375 0.542968 l -1.109375 0.542969"/></g><path d="m 15.480469 10.550781 v 1.015625 h 6.507812 v -2.035156 h -6.507812"/><use xlink:href="#0"/><path d="m 11.007812 19.226562 v 1.019532 h 6.644532 v -2.035156 h -6.644532"/><path d="m 14.519531 22.769531 c -0.40625 0.488281 0.9375 0.96875 1.648438 0.589844 c 0.320312 -0.167969 0.347656 -0.613281 0.046875 -0.726563 c -0.445313 -0.171874 -1.507813 -0.085937 -1.695313 0.136719"/><path d="m 17.878906 22.640625 c -0.183594 0.183594 -0.082031 0.582031 0.1875 0.722656 c 0.390625 0.210938 1.359375 0.113281 1.523438 -0.152343 c 0.285156 -0.449219 0.023437 -0.660157 -0.828125 -0.660157 c -0.4375 0 -0.835938 0.039063 -0.882813 0.089844"/><path d="m 21.164062 22.769531 c -0.40625 0.488281 0.9375 0.96875 1.648438 0.589844 c 0.316406 -0.167969 0.347656 -0.613281 0.050781 -0.726563 c -0.449219 -0.171874 -1.515625 -0.085937 -1.699219 0.136719"/><path d="m 24.480469 21.667969 c -0.085938 0.21875 0.1875 1.015625 0.347656 1.015625 c 0.050781 0 0.191406 -0.203125 0.3125 -0.457032 c 0.160156 -0.339843 0.179687 -0.496093 0.066406 -0.609374 c -0.21875 -0.21875 -0.632812 -0.1875 -0.726562 0.050781"/><path d="m 24.425781 18.558594 c -0.28125 0.742187 -0.066406 1.546875 0.414063 1.546875 c 0.335937 0 0.539062 -0.390625 0.539062 -1.046875 c 0 -0.84375 -0.683594 -1.207032 -0.953125 -0.5"/><path d="m 24.453125 15.300781 c -0.316406 0.695313 -0.105469 1.554688 0.386719 1.554688 c 0.335937 0 0.539062 -0.394531 0.539062 -1.050781 c 0 -0.84375 -0.617187 -1.179688 -0.925781 -0.503907"/><path d="m 24.453125 12.046875 c -0.316406 0.699219 -0.105469 1.554687 0.386719 1.554687 c 0.335937 0 0.539062 -0.394531 0.539062 -1.050781 c 0 -0.84375 -0.617187 -1.179687 -0.925781 -0.503906"/><path d="m 24.453125 8.792969 c -0.316406 0.695312 -0.105469 1.554687 0.386719 1.554687 c 0.320312 0 0.539062 -0.386718 0.539062 -0.953125 c 0 -0.890625 -0.613281 -1.289062 -0.925781 -0.601562"/><path d="m 23.515625 6.367188 c -0.207031 0.082031 -0.222656 0.480468 -0.023437 0.683593 c 0.105468 0.101563 0.300781 0.085938 0.691406 -0.066406 l 0.539062 -0.214844 l -0.453125 -0.242187 c -0.484375 -0.257813 -0.5 -0.261719 -0.753906 -0.160156"/><path d="m 20.121094 6.441406 c -0.425782 0.421875 0.015625 0.785156 0.953125 0.785156 c 0.324219 0 0.664062 -0.074218 0.753906 -0.160156 c 0.230469 -0.230468 0.203125 -0.609375 -0.050781 -0.703125 c -0.375 -0.144531 -1.488282 -0.09375 -1.65625 0.078125"/><path d="m 16.871094 6.367188 c -0.214844 0.085937 -0.21875 0.484374 -0.007813 0.699218 c 0.210938 0.210938 1.363281 0.210938 1.574219 0 c 0.230469 -0.234375 0.203125 -0.609375 -0.050781 -0.707031 c -0.25 -0.097656 -1.269531 -0.089844 -1.515625 0.007813"/><path d="m 13.476562 6.441406 c -0.425781 0.421875 0.015626 0.785156 0.953126 0.785156 c 0.324218 0 0.664062 -0.074218 0.753906 -0.160156 c 0.230468 -0.230468 0.203125 -0.609375 -0.050782 -0.703125 c -0.371093 -0.144531 -1.488281 -0.09375 -1.65625 0.078125"/><path d="m 7.960938 7.355469 c -0.113282 0.21875 -0.167969 0.492187 -0.125 0.609375 c 0.105468 0.273437 0.675781 0.273437 0.785156 0 c 0.070312 -0.191406 -0.246094 -1.007813 -0.390625 -1.007813 c -0.035157 0 -0.15625 0.179688 -0.269531 0.398438"/><path d="m 10.148438 6.371094 c -0.171876 0.171875 -0.089844 0.691406 0.125 0.773437 c 0.371093 0.140625 1.351562 0.089844 1.519531 -0.078125 c 0.230469 -0.230468 0.203125 -0.609375 -0.050781 -0.703125 c -0.289063 -0.113281 -1.480469 -0.109375 -1.59375 0.007813"/><path d="m 7.917969 9.695312 c -0.171875 0.167969 -0.226563 1.152344 -0.082031 1.519532 c 0.105468 0.28125 0.675781 0.28125 0.785156 0 c 0.042968 -0.117188 0.082031 -0.46875 0.082031 -0.785156 c 0 -0.558594 -0.179687 -0.898438 -0.476563 -0.898438 c -0.082031 0 -0.222656 0.074219 -0.308593 0.164062"/><path d="m 7.835938 13 c -0.105469 0.277344 -0.105469 1.191406 0 1.472656 c 0.105468 0.273438 0.675781 0.273438 0.785156 0 c 0.140625 -0.371094 0.089844 -1.351562 -0.082032 -1.523437 c -0.230468 -0.230469 -0.605468 -0.203125 -0.703124 0.050781"/><path d="m 7.835938 16.253906 c -0.144532 0.371094 -0.089844 1.351563 0.082031 1.523438 c 0.226562 0.226562 0.605469 0.203125 0.703125 -0.054688 c 0.140625 -0.367187 0.089844 -1.351562 -0.082032 -1.519531 c -0.230468 -0.230469 -0.605468 -0.203125 -0.703124 0.050781"/><path d="m 7.835938 19.511719 c -0.144532 0.367187 -0.089844 1.351562 0.082031 1.519531 c 0.226562 0.230469 0.605469 0.203125 0.703125 -0.050781 c 0.140625 -0.371094 0.089844 -1.351563 -0.082032 -1.523438 c -0.230468 -0.226562 -0.605468 -0.203125 -0.703124 0.054688"/><path d="m 7.875 22.769531 c -0.40625 0.488281 0.9375 0.96875 1.648438 0.589844 c 0.316406 -0.167969 0.347656 -0.613281 0.050781 -0.726563 c -0.449219 -0.171874 -1.515625 -0.085937 -1.699219 0.136719"/><path d="m 11.234375 22.640625 c -0.183594 0.183594 -0.082031 0.582031 0.183594 0.722656 c 0.390625 0.210938 1.363281 0.113281 1.53125 -0.152343 c 0.28125 -0.449219 0.015625 -0.660157 -0.828125 -0.660157 c -0.4375 0 -0.835938 0.039063 -0.886719 0.089844"/><path d="m 11.007812 19.226562 v 1.019532 h 6.644532 v -2.035156 h -6.644532"/><use xlink:href="#0"/></g><g style="fill:#fff"><path d="m 15.480469 10.550781 v 1.015625 h 6.507812 v -2.035156 h -6.507812"/><use xlink:href="#0"/><path d="m 11.007812 19.226562 v 1.019532 h 6.644532 v -2.035156 h -6.644532"/><path d="m 15.019531 22.664062 c -0.882812 0.199219 -0.363281 0.746094 0.636719 0.671876 c 0.472656 -0.035157 0.582031 -0.09375 0.613281 -0.347657 c 0.027344 -0.179687 -0.023437 -0.304687 -0.132812 -0.304687 c -0.097657 0 -0.300781 -0.027344 -0.453125 -0.054688 c -0.148438 -0.03125 -0.445313 -0.015625 -0.664063 0.035156"/><path d="m 18.355469 22.660156 c -0.375 0.035156 -0.441407 0.09375 -0.40625 0.339844 c 0.03125 0.226562 0.148437 0.304688 0.5 0.339844 c 0.679687 0.0625 1.101562 -0.078125 1.101562 -0.371094 c 0 -0.277344 -0.414062 -0.382812 -1.195312 -0.308594"/><path d="m 21.664062 22.664062 c -0.882812 0.199219 -0.363281 0.746094 0.636719 0.671876 c 0.476563 -0.035157 0.578125 -0.09375 0.617188 -0.347657 c 0.023437 -0.179687 -0.03125 -0.304687 -0.136719 -0.304687 c -0.097656 0 -0.300781 -0.027344 -0.449219 -0.054688 c -0.152343 -0.03125 -0.453125 -0.015625 -0.667969 0.035156"/><path d="m 24.570312 21.894531 c 0.003907 0.472657 0.183594 0.714844 0.371094 0.492188 c 0.285156 -0.351563 0.253906 -0.714844 -0.070312 -0.761719 c -0.242188 -0.035156 -0.304688 0.019531 -0.300782 0.269531"/><path d="m 24.574219 18.472656 c -0.15625 0.289063 -0.1875 0.953125 -0.0625 1.285156 c 0.09375 0.238282 0.535156 0.292969 0.664062 0.078126 c 0.152344 -0.242188 0.105469 -1.214844 -0.066406 -1.421876 c -0.226563 -0.273437 -0.371094 -0.253906 -0.535156 0.058594"/><path d="m 24.652344 15.160156 c -0.21875 0.222656 -0.296875 0.9375 -0.140625 1.34375 c 0.09375 0.238282 0.535156 0.289063 0.664062 0.078125 c 0.167969 -0.265625 0.101563 -1.246093 -0.097656 -1.445312 c -0.175781 -0.175781 -0.226563 -0.171875 -0.425781 0.023437"/><path d="m 24.652344 11.90625 c -0.21875 0.222656 -0.296875 0.9375 -0.140625 1.34375 c 0.09375 0.238281 0.535156 0.289062 0.664062 0.078125 c 0.167969 -0.269531 0.101563 -1.246094 -0.097656 -1.445313 c -0.175781 -0.175781 -0.226563 -0.175781 -0.425781 0.023438"/><path d="m 24.511719 8.796875 c -0.117188 0.3125 -0.09375 1.042969 0.039062 1.257813 c 0.0625 0.097656 0.230469 0.160156 0.371094 0.132812 c 0.277344 -0.050781 0.410156 -0.699219 0.261719 -1.285156 c -0.09375 -0.367188 -0.542969 -0.4375 -0.671875 -0.105469"/><path d="m 20.136719 6.628906 c -0.125 0.324219 0.210937 0.46875 0.972656 0.429688 c 0.585937 -0.03125 0.683594 -0.074219 0.722656 -0.339844 c 0.039063 -0.285156 -0.007812 -0.304688 -0.785156 -0.304688 c -0.636719 0 -0.847656 0.050782 -0.910156 0.214844"/><path d="m 16.863281 6.71875 c 0.039063 0.273438 0.117188 0.304688 0.789063 0.304688 c 0.671875 0 0.75 -0.03125 0.789062 -0.304688 c 0.039063 -0.289062 -0.003906 -0.304688 -0.789062 -0.304688 c -0.785156 0 -0.828125 0.015626 -0.789063 0.304688"/><path d="m 13.492188 6.628906 c -0.121094 0.324219 0.210937 0.46875 0.972656 0.429688 c 0.585937 -0.03125 0.683594 -0.074219 0.722656 -0.339844 c 0.039062 -0.285156 -0.003906 -0.304688 -0.785156 -0.304688 c -0.632813 0 -0.847656 0.050782 -0.910156 0.214844"/><path d="m 10.195312 6.757812 c 0 0.335938 0.023438 0.347657 0.777344 0.308594 c 0.691406 -0.039062 0.785156 -0.078125 0.824219 -0.347656 c 0.042969 -0.289062 -0.003906 -0.304688 -0.777344 -0.304688 c -0.792969 0 -0.824219 0.011719 -0.824219 0.34375"/><path d="m 8.027344 7.417969 c -0.203125 0.539062 -0.175782 0.625 0.214844 0.625 c 0.316406 0 0.34375 -0.039063 0.261718 -0.375 c -0.140625 -0.574219 -0.316406 -0.664063 -0.476562 -0.25"/><path d="m 7.984375 9.753906 c -0.050781 0.054688 -0.097656 0.421875 -0.097656 0.820313 c 0 0.671875 0.023437 0.71875 0.328125 0.71875 c 0.265625 0 0.332031 -0.078125 0.375 -0.449219 c 0.027344 -0.246094 0.015625 -0.597656 -0.023438 -0.777344 c -0.078125 -0.324218 -0.398437 -0.496094 -0.582031 -0.3125"/><path d="m 7.890625 13.726562 c 0 0.792969 0.011719 0.824219 0.34375 0.824219 c 0.335937 0 0.347656 -0.023437 0.304687 -0.78125 c -0.035156 -0.691406 -0.074218 -0.785156 -0.34375 -0.820312 c -0.289062 -0.042969 -0.304687 0 -0.304687 0.777343"/><path d="m 7.917969 16.945312 c 0.035156 0.707032 0.070312 0.792969 0.351562 0.835938 c 0.296875 0.042969 0.308594 0.011719 0.269531 -0.746094 c -0.035156 -0.707031 -0.074218 -0.796875 -0.351562 -0.835937 c -0.300781 -0.039063 -0.308594 -0.007813 -0.269531 0.746093"/><path d="m 7.917969 20.199219 c 0.035156 0.707031 0.070312 0.796875 0.351562 0.835937 c 0.296875 0.039063 0.308594 0.007813 0.269531 -0.746094 c -0.035156 -0.707031 -0.074218 -0.792968 -0.351562 -0.835937 c -0.300781 -0.042969 -0.308594 -0.011719 -0.269531 0.746094"/><path d="m 8.375 22.664062 c -0.882812 0.199219 -0.363281 0.746094 0.636719 0.671876 c 0.476562 -0.035157 0.578125 -0.09375 0.617187 -0.347657 c 0.023438 -0.179687 -0.03125 -0.304687 -0.136718 -0.304687 c -0.097657 0 -0.300782 -0.027344 -0.449219 -0.054688 c -0.152344 -0.03125 -0.453125 -0.015625 -0.667969 0.035156"/><path d="m 11.710938 22.660156 c -0.371094 0.035156 -0.441407 0.09375 -0.40625 0.339844 c 0.035156 0.226562 0.152343 0.304688 0.503906 0.339844 c 0.675781 0.0625 1.097656 -0.078125 1.097656 -0.371094 c 0 -0.277344 -0.410156 -0.382812 -1.195312 -0.308594"/><path d="m 24.628906 8.789062 c -0.035156 0.109376 -0.09375 0.296876 -0.128906 0.414063 c -0.117188 0.367187 0.078125 0.871094 0.339844 0.871094 c 0.453125 0 0.496094 -1.238281 0.046875 -1.410157 c -0.105469 -0.042968 -0.222657 0.011719 -0.257813 0.125"/><use xlink:href="#0"/></g></svg>