<svg xmlns="http://www.w3.org/2000/svg" viewBox="0 0 32 32"><path d="m 7.519531 3.296875 c 16.367188 -11.503906 32.953125 9.742187 19.617188 23.296875 c -12.566407 12.773438 -32.085938 0.933594 -25.984375 -14.960938 c 1.273437 -3.316406 3.363281 -6.222656 6.367187 -8.335937" style="fill:#3fdfcf"/><path d="m 16.3125 7.347656 c -2.40625 0 -4.800781 0.96875 -6.5 2.625 c -1.699219 1.664063 -2.691406 3.996094 -2.691406 6.34375 c 0 2.347656 0.992187 4.679688 2.691406 6.339844 c 1.699219 1.660156 4.09375 2.628906 6.5 2.628906 c 2.40625 0 4.800781 -0.96875 6.503906 -2.628906 c 1.703125 -1.660156 2.695313 -3.992188 2.695313 -6.339844 c 0 -2.347656 -0.992188 -4.683594 -2.695313 -6.34375 c -1.703125 -1.660156 -4.097656 -2.625 -6.503906 -2.625 m 0 2.390625 c 1.765625 0 3.519531 0.710938 4.769531 1.925781 c 1.25 1.21875 1.976563 2.929688 1.976563 4.652344 c 0 1.71875 -0.726563 3.433594 -1.976563 4.648438 c -1.25 1.21875 -3.003906 1.929687 -4.769531 1.929687 c -1.765625 0 -3.519531 -0.710937 -4.765625 -1.929687 c -1.246094 -1.21875 -1.972656 -2.929688 -1.972656 -4.648438 c 0 -1.722656 0.726562 -3.433594 1.972656 -4.648437 c 1.246094 -1.21875 3 -1.929688 4.765625 -1.929688 m -1.222656 1.195313 v 6.578125 h 6.742187 v -2.390625 h -4.289062 v -4.1875" style="fill:#fff;fill-rule:evenodd"/></svg>