<svg xmlns="http://www.w3.org/2000/svg" viewBox="0 0 32 32"><path d="m 0.449219 15.195312 c 19.285156 -43.375 53.9375 20.265626 10.980469 16.65625 c -6.464844 -0.84375 -13.257813 -7.527343 -10.980469 -16.65625" style="fill:#ff8c00"/><path d="m 10.878906 6.980469 l 0.804688 5.308593 l 2.15625 5.308594 l -0.167969 0.960938 c -0.675781 -0.609375 -1.550781 -0.996094 -2.527344 -0.996094 c -2.070312 0 -3.769531 1.675781 -3.769531 3.714844 c 0 2.039062 1.699219 3.75 3.769531 3.75 c 2.050781 0 3.769531 -1.671875 3.808594 -3.683594 l 1.042969 -1.625 l 1.046875 1.691406 c 0.074219 1.980469 1.746093 3.617188 3.769531 3.617188 c 2.070312 0 3.808594 -1.710938 3.808594 -3.75 c 0 -2.039063 -1.738282 -3.714844 -3.808594 -3.714844 c -0.972656 0 -1.847656 0.386719 -2.527344 0.996094 l -0.132812 -0.960938 l 2.15625 -5.308594 l 0.808594 -5.308593 h -0.808594 l -4.3125 8.492187 l -4.3125 -8.492187 m -0.875 12.738281 c 0.109375 -0.019531 0.226562 0 0.339844 0 c 0.902343 0 1.617187 0.667969 1.617187 1.558594 c 0 0.894531 -0.714844 1.59375 -1.617187 1.59375 c -0.90625 0 -1.582032 -0.699219 -1.582032 -1.59375 c 0 -0.777344 0.503906 -1.414063 1.242188 -1.558594 m 9.667968 0 c 0.105469 -0.019531 0.222657 0 0.339844 0 c 0.902344 0 1.617188 0.667969 1.617188 1.558594 c 0 0.894531 -0.714844 1.59375 -1.617188 1.59375 c -0.90625 0 -1.585937 -0.699219 -1.585937 -1.59375 c 0 -0.777344 0.507812 -1.414063 1.246093 -1.558594" style="fill:#fff"/></svg>