<svg xmlns="http://www.w3.org/2000/svg" viewBox="0 0 32 32"><path d="m 29.246094 6.703125 c -6.066406 -11.019531 -25.078125 -6.7421875 -28.292969 2.328125 c -3.832031 10.808594 6.140625 31.332031 23.035156 19.308594 c 5.691407 -4.199219 11.328125 -10.617188 5.257813 -21.636719" style="fill:#ff8c00"/><g style="fill:#fff"><path d="m 8.894531 8.644531 v 13.492188 h 13.257813 v -13.492188 m -12.308594 0.960938 h 11.363281 v 11.570312 h -11.363281 m 2.839844 -8.679687 v 5.785156 h 5.683594 v -5.785156 m -4.738282 0.964844 h 3.789063 v 3.855468 h -3.789063"/><path d="m 7.949219 7.675781 v 15.425781 h 15.152343 v -15.425781 m -14.207031 0.96875 h 13.257813 v 13.492188 h -13.257813 m 2.84375 -10.601563 v 7.710938 h 7.574219 v -7.710938 m -6.628906 0.960938 h 5.683594 v 5.785156 h -5.683594" style="fill-opacity:0.501961"/></g></svg>