<svg xmlns="http://www.w3.org/2000/svg" viewBox="0 0 32 32"><path d="m 7.519531 3.296875 c 16.367188 -11.503906 32.953125 9.746094 19.617188 23.300781 c -12.566407 12.769532 -32.085938 0.929688 -25.984375 -14.960937 c 1.273437 -3.316407 3.363281 -6.226563 6.367187 -8.339844" style="fill:#ff8c00"/><g style="fill:#fffafa"><g style="fill-rule:evenodd"><path d="m 6.949219 13.105469 v 10.175781 h 10.941406 v -10.175781 m -9.257813 1.851562 h 7.574219 v 6.476563 h -7.574219"/><path d="m 22.519531 18.195312 h 1.6875 v 5.085938 h -1.6875"/></g><path d="m 13.261719 22.355469 c 0 0.511719 -0.375 0.925781 -0.84375 0.925781 c -0.460938 0 -0.839844 -0.414062 -0.839844 -0.925781 c 0 -0.507813 0.378906 -0.921875 0.839844 -0.921875 c 0.46875 0 0.84375 0.414062 0.84375 0.921875"/><path d="m 8.632812 16.34375 c 0 -0.511719 -0.378906 -0.925781 -0.84375 -0.925781 c -0.464843 0 -0.839843 0.414062 -0.839843 0.925781 c 0 0.511719 0.375 0.925781 0.839843 0.925781 c 0.464844 0 0.84375 -0.414062 0.84375 -0.925781"/><path d="m 27.148438 19.890625 h -7.574219 l 3.789062 -5.089844" style="fill-rule:evenodd"/><path d="m 6.949219 9.410156 h 4.628906 v 1.847656 h -4.628906"/><path d="m 13.261719 9.410156 h 4.628906 v 1.847656 h -4.628906"/></g></svg>