
<svg xmlns="http://www.w3.org/2000/svg" xmlns:xlink="http://www.w3.org/1999/xlink" width="32px" height="32px" viewBox="0 0 32 32" version="1.1">
<g id="surface1">
<path style=" stroke:none;fill-rule:nonzero;fill:rgb(100%,54.901961%,0%);fill-opacity:1;" d="M 25.402344 3.121094 C 1.34375 -12.871094 -13.472656 38.132812 17.628906 31.382812 C 30.480469 28.503906 38.28125 10.457031 25.402344 3.121094 Z M 25.402344 3.121094 "/>
<path style="fill-rule:evenodd;fill:rgb(100%,100%,100%);fill-opacity:1;stroke-width:0.668433;stroke-linecap:butt;stroke-linejoin:miter;stroke:rgb(100%,100%,100%);stroke-opacity:1;stroke-miterlimit:4;" d="M 51.9375 958.95375 L 48.625 958.70375 L 43.1875 952.86 L 37.78125 947.01625 L 38.09375 936.11 C 38.53125 922.11 39.28125 910.70375 39.9375 908.70375 C 40.21875 907.76625 41.4375 906.5475 42.875 905.70375 C 44.21875 904.9225 45.78125 903.61 46.34375 902.735 C 48.71875 899.11 49.34375 899.0475 75.9375 898.76625 C 102.34375 898.51625 105.875 898.7975 107 901.4225 C 107.84375 903.4225 110.21875 906.32875 111 906.32875 C 112.75 906.32875 114.625 908.07875 115.78125 910.89125 C 116.5 912.5475 117.53125 914.07875 118.09375 914.2975 C 118.65625 914.51625 121.625 914.735 124.6875 914.7975 C 131.625 914.95375 133.84375 913.9225 135.375 909.76625 C 136.1875 907.61 136.75 906.985 138.125 906.61 C 140.28125 906.07875 141.5625 904.76625 142.875 901.70375 C 143.5 900.20375 144.40625 899.14125 145.25 898.89125 C 147.375 898.26625 199.53125 899.14125 202.75 899.86 C 204.34375 900.235 205.84375 900.86 206.0625 901.2975 C 206.28125 901.735 206.90625 902.14125 207.4375 902.235 C 210 902.70375 211.5 908.6725 212.5 922.11 C 213.78125 939.9225 212.46875 947.7975 207.625 951.11 C 206.28125 952.0475 204.65625 953.76625 203.96875 954.985 C 201.71875 959.01625 202 958.985 173 959.26625 L 146.6875 959.5475 L 142.46875 955.11 C 138.03125 950.45375 132.625 943.6725 132.625 942.7975 C 132.625 941.735 128.21875 940.235 125.125 940.235 C 122.03125 940.235 117.625 941.735 117.625 942.7975 C 117.625 943.6725 112.25 950.4225 107.84375 955.0475 L 103.6875 959.4225 L 79.46875 959.2975 C 66.15625 959.235 53.75 959.07875 51.9375 958.95375 Z M 104.65625 948.7975 C 106.03125 947.735 106.25 945.26625 105.0625 943.82875 C 103.6875 942.235 97.78125 941.82875 76.25 941.89125 L 55.5 941.95375 L 55.5 931.64125 C 55.5 919.2975 55.9375 916.985 58.34375 915.89125 C 59.53125 915.36 66.78125 914.985 81.5 914.6725 C 101.1875 914.26625 103.125 914.14125 105.0625 912.985 C 106.90625 911.9225 107.21875 911.45375 107.34375 909.39125 C 107.5 907.26625 107.375 906.95375 106.03125 906.51625 C 105.1875 906.235 93.3125 906.01625 79.59375 906.01625 C 52.03125 906.01625 53.34375 905.82875 49.59375 910.2975 C 46.78125 913.64125 46.25 915.95375 45.96875 925.36 C 45.6875 936.07875 46.125 940.5475 47.65625 942.32875 C 48.28125 943.07875 49.1875 944.5475 49.625 945.64125 C 50.90625 948.735 53.46875 949.20375 72.90625 949.7975 C 93.1875 950.39125 102.90625 950.07875 104.65625 948.7975 Z M 190.53125 949.86 C 196.28125 949.26625 198.125 948.26625 198.96875 945.2975 C 199.28125 944.26625 200.34375 942.82875 201.375 942.11 C 202.375 941.39125 203.375 940.1725 203.5625 939.39125 C 203.90625 937.9225 204.21875 930.45375 204.625 914.32875 L 201.125 907.20375 L 187.0625 906.985 C 165.875 906.6725 150.375 905.4225 144.5625 907.6725 C 143.25 908.1725 142.8125 908.735 142.8125 909.7975 C 142.8125 912.45375 144.3125 913.26625 150.59375 913.95375 C 157.40625 914.735 179.6875 915.9225 187.6875 915.9225 C 193.15625 915.9225 193.1875 915.9225 193.8125 917.6725 C 194.15625 918.70375 194.4375 923.1725 194.46875 928.5475 C 194.5 936.7975 194.40625 937.735 193.40625 938.89125 C 191.78125 940.82875 186.59375 941.51625 168.78125 942.1725 C 149.15625 942.86 144.40625 943.6725 144.40625 946.32875 C 144.40625 948.4225 148.40625 949.11 164.5625 949.7975 C 180.8125 950.45375 184.78125 950.485 190.53125 949.86 Z M 80.53125 932.5475 C 88.84375 931.89125 89.78125 931.45375 89.78125 928.39125 C 89.78125 926.70375 89.4375 925.9225 88.34375 925.0475 C 87.0625 924.0475 85.53125 923.9225 75.96875 923.9225 L 65.0625 923.9225 L 63.75 925.735 C 62.84375 927.01625 62.53125 927.985 62.78125 928.9225 C 63.78125 932.985 67.125 933.6725 80.53125 932.5475 Z M 177.5625 932.5475 C 185.4375 931.89125 186.71875 931.26625 186.71875 927.985 C 186.71875 924.61 185 923.985 175.125 923.70375 C 165.125 923.4225 161.90625 923.82875 160.4375 925.5475 C 158.21875 928.20375 159.9375 931.82875 163.75 932.57875 C 167.125 933.235 169.46875 933.235 177.5625 932.5475 Z M 144.40625 931.95375 C 147.53125 931.51625 148.59375 931.07875 149.34375 929.985 C 150.6875 927.985 150.59375 925.11 149.15625 924.1725 C 147.40625 923.0475 129.15625 922.6725 116.71875 923.51625 C 104.0625 924.36 100.21875 925.4225 100.21875 928.07875 C 100.21875 930.39125 102.3125 931.2975 108.96875 931.86 C 116.96875 932.5475 139.59375 932.61 144.40625 931.95375 Z M 144.40625 931.95375 " transform="matrix(0.125,0,0,0.125,0,-99.545)"/>
</g>
</svg>
