<svg xmlns="http://www.w3.org/2000/svg" viewBox="0 0 32 32"><path d="m 31.917969 12.535156 c -0.164063 -1.882812 -0.640625 -3.941406 -1.261719 -5.460937 c -2.167969 -5.308594 -6.566406 -7.78125 -12.125 -6.816407 c -2.988281 0.519532 -6.371094 2 -9.945312 4.359376 c -4.269532 2.816406 -7.503907 7.167968 -8.324219 11.199218 c -0.1718752 0.851563 -0.2343752 2.460938 -0.125 3.316406 c 0.359375 2.871094 1.914062 5.261719 4.84375 7.457032 c 2.800781 2.09375 5.652343 3.648437 8.304687 4.527344 c 5.453125 1.800781 10.320313 0.710937 13.839844 -3.105469 c 2.472656 -2.683594 4.050781 -6.316407 4.683594 -10.773438 c 0.09375 -0.667969 0.171875 -4.015625 0.113281 -4.703125" style="fill:#ff8c00"/><g style="fill:#fff;fill-rule:evenodd"><path d="m 17.117188 15.347656 l 6.574218 6.25 l -1.242187 1.179688 l -6.570313 -6.253906"/><path d="m 15.878906 16.523438 l 6.570313 -6.253907 l 1.242187 1.179688 l -6.574218 6.253906"/><path d="m 12.292969 10.269531 v 12.507813 h -1.75 v -12.507813"/><path d="m 13.171875 10.269531 v 12.507813 h -1.753906 v -12.507813"/><path d="m 16.496094 17.113281 l 6.574218 -6.25 l 1.238282 1.175781 l -6.570313 6.253907"/><path d="m 17.738281 14.753906 l 6.570313 6.253906 l -1.238282 1.179688 l -6.574218 -6.253906"/></g></svg>