<svg xmlns="http://www.w3.org/2000/svg" viewBox="0 0 32 32"><path d="m 12.535156 31.917969 c -1.882812 -0.167969 -3.9375 -0.644531 -5.460937 -1.265625 c -5.304688 -2.164063 -7.777344 -6.5625 -6.8125 -12.125 c 0.515625 -2.984375 2 -6.367188 4.359375 -9.945313 c 2.816406 -4.265625 7.167968 -7.5 11.199218 -8.320312 c 0.851563 -0.1718752 2.457032 -0.2343752 3.316407 -0.128907 c 2.871093 0.363282 5.261719 1.917969 7.453125 4.847657 c 2.101562 2.796875 3.65625 5.648437 4.53125 8.300781 c 1.804687 5.457031 0.710937 10.320312 -3.105469 13.839844 c -2.683594 2.476562 -6.316406 4.054687 -10.773437 4.683594 c -0.667969 0.09375 -4.015626 0.175781 -4.703126 0.113281" style="fill:#ff8c00"/><g style="fill:#fff;fill-rule:evenodd"><path d="m 14.628906 16.136719 l 6.257813 6.578125 l 1.179687 -1.242188 l -6.257812 -6.574218"/><path d="m 15.808594 14.898438 l -6.25 6.574218 l 1.179687 1.242188 l 6.25 -6.578125"/><path d="m 9.558594 11.316406 h 12.507812 v -1.753906 h -12.507812"/><path d="m 9.558594 12.191406 h 12.507812 v -1.753906 h -12.507812"/><path d="m 16.402344 15.519531 l -6.257813 6.570313 l 1.179688 1.242187 l 6.257812 -6.574219"/><path d="m 14.042969 16.757812 l 6.25 6.574219 l 1.179687 -1.242187 l -6.25 -6.570313"/></g></svg>