<svg xmlns="http://www.w3.org/2000/svg" viewBox="0 0 32 32"><path d="m 29.332031 25.324219 c 10.332031 -14.859375 -12.9375 -33.464844 -25.097656 -21.371094 c -11.464844 11.402344 3.359375 32.675781 17.613281 27.144531 c 2.984375 -1.15625 5.59375 -3.0625 7.484375 -5.773437" style="fill:#ff8c00"/><path d="m 21.257812 15.519531 c -0.046874 0.039063 -0.125 0.070313 -0.175781 0.070313 c -0.050781 0 -0.09375 0.03125 -0.09375 0.0625 c 0 0.039062 -0.5625 0.058594 -1.570312 0.058594 h -1.570313 v 4.269531 c 0 2.8125 -0.023437 4.273437 -0.0625 4.273437 c -0.03125 0 -0.058594 0.039063 -0.058594 0.09375 c 0 0.117188 -0.261718 0.382813 -0.382812 0.382813 c -0.050781 0 -0.089844 0.023437 -0.089844 0.054687 c 0 0.039063 -0.574218 0.0625 -1.601562 0.0625 c -1.03125 0 -1.601563 -0.023437 -1.601563 -0.0625 c 0 -0.03125 -0.085937 -0.054687 -0.183593 -0.054687 c -0.195313 0 -0.472657 -0.226563 -0.472657 -0.382813 c 0 -0.054687 -0.023437 -0.09375 -0.058593 -0.09375 c -0.039063 0 -0.058594 -1.464844 -0.058594 -4.273437 v -4.269531 h -1.570313 c -1.011719 0 -1.574219 -0.019532 -1.574219 -0.058594 c 0 -0.03125 -0.054687 -0.0625 -0.121093 -0.0625 c -0.097657 0 -0.117188 -0.039063 -0.117188 -0.234375 c 0 -0.132813 0.027344 -0.238281 0.0625 -0.238281 c 0.03125 0 0.054688 -0.046876 0.054688 -0.105469 c 0 -0.058594 0.054687 -0.144531 0.121093 -0.191407 c 0.066407 -0.046874 0.117188 -0.121093 0.117188 -0.164062 c 0 -0.097656 0.144531 -0.25 0.234375 -0.25 c 0.035156 0 0.0625 -0.058594 0.0625 -0.125 c 0 -0.066406 0.082031 -0.199219 0.179687 -0.292969 c 0.097657 -0.089843 0.175782 -0.203125 0.175782 -0.246093 c 0 -0.042969 0.054687 -0.121094 0.121094 -0.167969 c 0.066406 -0.046875 0.117187 -0.125 0.117187 -0.179688 c 0 -0.046875 0.054687 -0.128906 0.121094 -0.175781 c 0.0625 -0.046875 0.117187 -0.121094 0.117187 -0.160156 c 0 -0.042969 0.027344 -0.078125 0.058594 -0.078125 c 0.035156 0 0.058594 -0.054688 0.058594 -0.117188 c 0 -0.066406 0.03125 -0.117187 0.070312 -0.117187 c 0.078125 0 0.34375 -0.300782 0.34375 -0.390625 c 0 -0.03125 0.054688 -0.097657 0.121094 -0.144531 c 0.066406 -0.046876 0.121094 -0.136719 0.121094 -0.199219 c 0 -0.058594 0.078125 -0.183594 0.175781 -0.273438 c 0.097656 -0.09375 0.175781 -0.203125 0.175781 -0.25 c 0 -0.046875 0.054688 -0.121093 0.121094 -0.167969 c 0.066406 -0.046874 0.117188 -0.132812 0.117188 -0.191406 c 0 -0.058594 0.027343 -0.105468 0.066406 -0.105468 c 0.078125 0 0.230468 -0.152344 0.230468 -0.230469 c 0 -0.039063 0.027344 -0.066407 0.058594 -0.066407 c 0.035156 0 0.0625 -0.042968 0.0625 -0.09375 c 0 -0.050781 0.078125 -0.167968 0.175782 -0.261718 c 0.097656 -0.09375 0.179687 -0.203125 0.179687 -0.25 c 0 -0.042969 0.050781 -0.117188 0.117187 -0.164063 c 0.066407 -0.046875 0.121094 -0.132812 0.121094 -0.191406 c 0 -0.058594 0.023438 -0.105469 0.054688 -0.105469 c 0.035156 0 0.0625 -0.039062 0.0625 -0.089844 c 0 -0.050781 0.027344 -0.089843 0.0625 -0.089843 c 0.085937 0 0.234375 -0.152344 0.234375 -0.238281 c 0 -0.039063 0.078125 -0.144532 0.179687 -0.238282 c 0.09375 -0.089844 0.175782 -0.199218 0.175782 -0.246094 c 0 -0.042968 0.050781 -0.121093 0.117187 -0.167968 c 0.066406 -0.046875 0.121094 -0.117188 0.121094 -0.160156 c 0 -0.042969 0.023437 -0.074219 0.058593 -0.074219 c 0.03125 0 0.058594 -0.042969 0.058594 -0.09375 c 0 -0.101563 0.257813 -0.382813 0.351563 -0.382813 c 0.035156 0 0.0625 -0.027344 0.0625 -0.058594 c 0 -0.035156 0.125 -0.058593 0.269531 -0.058593 c 0.238281 0 0.300781 0.027343 0.535156 0.265625 c 0.144532 0.144531 0.265625 0.308594 0.265625 0.359375 c 0 0.054687 0.078125 0.171875 0.179688 0.265625 c 0.09375 0.089844 0.175781 0.195312 0.175781 0.234375 c 0 0.074219 0.144531 0.238281 0.207031 0.238281 c 0.074219 0 0.207031 0.167969 0.207031 0.261719 c 0 0.054687 0.027344 0.09375 0.058594 0.09375 c 0.035156 0 0.0625 0.039062 0.0625 0.089843 c 0 0.050782 0.023438 0.089844 0.058594 0.089844 c 0.03125 0 0.058594 0.042969 0.058594 0.09375 c 0 0.054688 0.078125 0.171875 0.179687 0.261719 c 0.09375 0.089844 0.175781 0.195313 0.175781 0.234375 c 0 0.082031 0.269532 0.359375 0.355469 0.359375 c 0.03125 0 0.0625 0.058594 0.0625 0.136719 c 0 0.070312 0.050781 0.171875 0.117188 0.21875 c 0.0625 0.046875 0.117187 0.121094 0.117187 0.167968 c 0 0.042969 0.082032 0.15625 0.179688 0.246094 c 0.097656 0.09375 0.175781 0.203125 0.175781 0.25 c 0 0.042969 0.054687 0.117188 0.121094 0.164063 c 0.0625 0.046875 0.117187 0.121093 0.117187 0.164062 c 0 0.039063 0.027344 0.074219 0.058594 0.074219 c 0.035156 0 0.058594 0.054688 0.058594 0.121094 c 0 0.0625 0.03125 0.117187 0.066406 0.117187 c 0.082031 0 0.230469 0.152344 0.230469 0.238281 c 0 0.039063 0.082031 0.144532 0.179687 0.238282 c 0.097656 0.089844 0.179688 0.214844 0.179688 0.273437 c 0 0.0625 0.050781 0.152344 0.117187 0.199219 c 0.0625 0.046875 0.117188 0.117188 0.117188 0.152344 c 0 0.039062 0.082031 0.152344 0.179687 0.253906 c 0.097656 0.101562 0.179688 0.226562 0.179688 0.277344 c 0 0.046875 0.023437 0.085937 0.058594 0.085937 c 0.105468 0 0.355468 0.285157 0.355468 0.402344 c 0 0.058594 0.054688 0.144531 0.117188 0.191406 c 0.066406 0.046875 0.117187 0.128907 0.117187 0.179688 c 0 0.050781 0.054688 0.132812 0.121094 0.179687 c 0.066406 0.046875 0.117187 0.132813 0.117187 0.1875 c 0 0.058594 0.027344 0.109375 0.058594 0.109375 c 0.089844 0 0.070313 0.195313 -0.027344 0.28125" style="fill:#fff;fill-rule:evenodd"/></svg>