
<svg xmlns="http://www.w3.org/2000/svg" xmlns:xlink="http://www.w3.org/1999/xlink" width="32px" height="32px" viewBox="0 0 32 32" version="1.1">
<g id="surface1">
<path style=" stroke:none;fill-rule:nonzero;fill:rgb(100%,54.901961%,0%);fill-opacity:1;" d="M 25.363281 2.820312 C 36.382812 8.886719 32.105469 27.898438 23.035156 31.113281 C 12.230469 34.949219 -8.292969 24.972656 3.730469 8.078125 C 7.925781 2.386719 14.347656 -3.246094 25.363281 2.820312 Z M 25.363281 2.820312 "/>
<path style=" stroke:none;fill-rule:nonzero;fill:rgb(100%,100%,100%);fill-opacity:1;" d="M 10.023438 24.683594 C 9.925781 24.535156 9.78125 24.414062 9.703125 24.414062 C 9.625 24.414062 9.460938 24.296875 9.335938 24.148438 C 9.097656 23.867188 8.773438 23.789062 8.773438 24.015625 C 8.773438 24.089844 8.71875 24.148438 8.648438 24.148438 C 8.566406 24.148438 8.523438 21.5 8.523438 16.472656 C 8.523438 11.445312 8.566406 8.796875 8.648438 8.796875 C 8.71875 8.796875 8.773438 8.859375 8.773438 8.933594 C 8.773438 9.167969 9.097656 9.074219 9.378906 8.757812 C 9.664062 8.429688 9.734375 8.132812 9.523438 8.132812 C 9.457031 8.132812 9.398438 8.070312 9.398438 7.996094 C 9.398438 7.910156 11.878906 7.863281 16.585938 7.863281 C 21.292969 7.863281 23.773438 7.910156 23.773438 7.996094 C 23.773438 8.070312 23.71875 8.132812 23.648438 8.132812 C 23.414062 8.132812 23.523438 8.484375 23.855469 8.808594 C 24.078125 9.03125 24.199219 9.078125 24.238281 8.964844 C 24.472656 8.261719 24.523438 9.578125 24.523438 16.472656 C 24.523438 23.367188 24.472656 24.683594 24.238281 23.980469 C 24.199219 23.867188 24.089844 23.90625 23.875 24.113281 C 23.707031 24.28125 23.515625 24.414062 23.449219 24.414062 C 23.382812 24.414062 23.25 24.535156 23.148438 24.683594 C 22.972656 24.941406 22.824219 24.949219 16.585938 24.949219 C 10.347656 24.949219 10.199219 24.941406 10.023438 24.683594 Z M 22.253906 23.1875 C 22.644531 23.058594 22.753906 22.941406 22.875 22.523438 C 23.078125 21.832031 23.085938 11.113281 22.882812 10.398438 C 22.769531 9.988281 22.660156 9.871094 22.277344 9.75 C 21.628906 9.542969 11.546875 9.542969 10.898438 9.75 C 10.511719 9.871094 10.40625 9.988281 10.289062 10.398438 C 10.085938 11.117188 10.09375 21.835938 10.296875 22.527344 C 10.410156 22.914062 10.542969 23.074219 10.828125 23.175781 C 11.402344 23.378906 21.648438 23.390625 22.253906 23.1875 Z M 11.179688 22.324219 C 10.976562 22.238281 10.972656 21.054688 11.175781 20.839844 C 11.390625 20.609375 21.785156 20.609375 22 20.839844 C 22.230469 21.085938 22.191406 22.234375 21.953125 22.332031 C 21.714844 22.429688 11.40625 22.421875 11.179688 22.324219 Z M 11.175781 19.71875 C 10.980469 19.507812 10.980469 18.507812 11.175781 18.300781 C 11.390625 18.070312 21.785156 18.070312 22 18.300781 C 22.191406 18.507812 22.191406 19.507812 22 19.71875 C 21.785156 19.945312 11.390625 19.945312 11.175781 19.71875 Z M 11.175781 17.179688 C 10.980469 16.972656 10.980469 15.972656 11.175781 15.765625 C 11.390625 15.535156 21.785156 15.535156 22 15.765625 C 22.191406 15.972656 22.191406 16.972656 22 17.179688 C 21.785156 17.410156 11.390625 17.410156 11.175781 17.179688 Z M 11.175781 14.644531 C 10.980469 14.4375 10.980469 13.4375 11.175781 13.230469 C 11.390625 13 21.785156 13 22 13.230469 C 22.191406 13.4375 22.191406 14.4375 22 14.644531 C 21.785156 14.875 11.390625 14.875 11.175781 14.644531 Z M 11.15625 11.945312 C 11.074219 11.839844 11.027344 11.496094 11.046875 11.179688 L 11.085938 10.601562 L 22.085938 10.601562 L 22.125 11.179688 C 22.191406 12.1875 22.488281 12.136719 16.585938 12.136719 C 12.164062 12.136719 11.28125 12.105469 11.15625 11.945312 Z M 11.15625 11.945312 "/>
</g>
</svg>
