<svg xmlns="http://www.w3.org/2000/svg" viewBox="0 0 32 32"><path d="m 28.550781 6.011719 c 10.929688 13.796875 -5.597656 34.679687 -21.75 21.960937 c -15.296875 -12.042968 -2.113281 -33.308594 15.804688 -26.664062 c 2.460937 0.914062 4.351562 2.683594 5.949219 4.699218" style="fill:#f60"/><path d="m 9.464844 8.925781 h 6.859375 l 0.90625 1.363281 h 6.316406 c 0.847656 0 1.527344 0.703126 1.527344 1.574219 v 6.894531 c 0 0.871094 -0.679688 1.570313 -1.527344 1.570313 h -14.082031 c -0.84375 0 -1.527344 -0.699219 -1.527344 -1.570313 v -8.261718 c 0 -0.871094 0.683594 -1.570313 1.527344 -1.570313" style="fill:#edb4ab"/><path d="m 9.730469 12.300781 h 14.085937 c 0.84375 0 1.527344 0.679688 1.527344 1.523438 v 7.503906 c 0 0.839844 -0.683594 1.523437 -1.527344 1.523437 h -14.085937 c -0.84375 0 -1.527344 -0.683593 -1.527344 -1.523437 v -7.503906 c 0 -0.84375 0.683594 -1.523438 1.527344 -1.523438" style="fill:#fff"/><path d="m 15.347656 31.710938 c -4.691406 -0.640626 -9.632812 -3.839844 -12.597656 -8.164063 c -0.628906 -0.914063 -1.5625 -2.808594 -1.867188 -3.785156 c -0.53125 -1.691407 -0.628906 -2.398438 -0.628906 -4.441407 c 0 -1.621093 0.03125 -2.03125 0.195313 -2.785156 c 0.4375 -1.972656 1.226562 -3.816406 2.351562 -5.492187 c 0.925781 -1.367188 2.789063 -3.207031 4.171875 -4.117188 c 4.453125 -2.92968725 9.941406 -3.476562 15.367188 -1.527343 c 2.238281 0.804687 4.179687 2.273437 6 4.546874 c 2.601562 3.242188 3.78125 6.683594 3.640625 10.605469 c -0.078125 2.023438 -0.421875 3.636719 -1.167969 5.484375 c -2.652344 6.558594 -9.035156 10.550782 -15.464844 9.675782 m 9.324219 -10.574219 c 0.714844 -0.46875 0.699219 -0.316407 0.699219 -5.507813 v -4.59375 l -0.210938 -0.351562 c -0.484375 -0.8125 -0.574218 -0.828125 -4.382812 -0.835938 l -3.257813 -0.007812 l -0.9375 -1.335938 l -3.632812 0.027344 l -3.625 0.027344 l -0.382813 0.25 c -0.738281 0.484375 -0.714844 0.273437 -0.71875 6.1875 c 0 5.636718 -0.011718 5.511718 0.484375 5.976562 c 0.480469 0.445313 0.367188 0.4375 8.25 0.417969 l 7.355469 -0.019531" style="fill:#f60"/><path d="m 9.625 11.695312 h 14.082031 c 0.84375 0 1.527344 0.683594 1.527344 1.523438 v 7.503906 c 0 0.839844 -0.683594 1.523438 -1.527344 1.523438 h -14.082031 c -0.84375 0 -1.527344 -0.683594 -1.527344 -1.523438 v -7.503906 c 0 -0.839844 0.683594 -1.523438 1.527344 -1.523438" style="fill:#fff"/><path d="m 206.4375 182.28125 c -4.59375 -9.96875 -35.65625 -56.1875 -76.9375 -38.5 l 8.59375 19.625 c -14.125 0.40625 -35.375 -6.84375 -51.3125 -14.875 c 4.625 -10.71875 8.25 -26.625 43.8125 -39.3125 l -7.28125 19.1875 c 30.46875 -9.3125 91.09375 -6 100.15625 43.5625 c 1.1875 7.3125 -17 10.3125 -17 10.3125" transform="scale(0.125)" style="fill:#dc133c;stroke:#fff;stroke-linecap:round;stroke-linejoin:round;stroke-width:3.159"/></svg>