<svg xmlns="http://www.w3.org/2000/svg" viewBox="0 0 32 32"><path d="m 27.445312 26.441406 c -33.15625 25.015625 -37.867187 -43.820312 -4.019531 -21.730468 c 7.714844 5.035156 12.804688 15.105468 4.019531 21.730468" style="fill:#ff8c00"/><g transform="matrix(0.349129 0 0 0.301963 5.05125 7.28)" style="stroke-linecap:round;stroke-linejoin:round"><path d="m 8.043238 16.252009 h 43.915131 c 1.342629 0 2.416731 1.073705 2.416731 2.41907 v 22.664225 c 0 1.345365 -1.074102 2.41907 -2.416731 2.41907 h -43.915131 c -1.342628 0 -2.416731 -1.073705 -2.416731 -2.41907 v -22.664225 c 0 -1.345365 1.074103 -2.41907 2.416731 -2.41907" style="fill:none;stroke:#fff;stroke-width:10"/><g style="stroke:#ff8c00;stroke-width:5"><path d="m 8.043238 16.252009 h 43.915131 c 1.342629 0 2.416731 1.073705 2.416731 2.41907 v 22.664225 c 0 1.345365 -1.074102 2.41907 -2.416731 2.41907 h -43.915131 c -1.342628 0 -2.416731 -1.073705 -2.416731 -2.41907 v -22.664225 c 0 -1.345365 1.074103 -2.41907 2.416731 -2.41907" style="fill:#fff"/><path d="m 14.252894 23.74207 v 12.509307" style="fill:none"/></g></g></svg>