<svg xmlns="http://www.w3.org/2000/svg" viewBox="0 0 32 32"><path d="m 19.542969 0.238281 c 1.886719 0.167969 3.945312 0.640625 5.460937 1.265625 c 5.308594 2.164063 7.78125 6.5625 6.816406 12.125 c -0.519531 2.984375 -2 6.367188 -4.359374 9.945313 c -2.816407 4.265625 -7.167969 7.5 -11.199219 8.320312 c -0.851563 0.171875 -2.460938 0.234375 -3.316407 0.125 c -2.871093 -0.359375 -5.261718 -1.914062 -7.453124 -4.84375 c -2.097657 -2.800781 -3.652344 -5.648437 -4.527344 -8.304687 c -1.804688 -5.453125 -0.714844 -10.316406 3.101562 -13.835938 c 2.683594 -2.476562 6.316406 -4.054687 10.773438 -4.683594 c 0.667968 -0.09375 4.015625 -0.175781 4.703125 -0.113281" style="fill:#2f4e4e"/><g style="fill:#fff"><path d="m 11.816406 25.800781 c -1.550781 -0.195312 -2.671875 -0.546875 -2.925781 -0.914062 c -0.160156 -0.230469 -0.074219 -0.523438 0.199219 -0.648438 l 0.226562 -0.109375 l -0.1875 -0.125 c -0.476562 -0.320312 -0.816406 -0.664062 -0.914062 -0.929687 c 5.828125 -0.066407 6.601562 -0.175781 13.09375 -0.304688 c 0 0.265625 -0.050782 0.375 -0.300782 0.664063 c -0.164062 0.191406 -0.480468 0.441406 -0.699218 0.554687 l -0.402344 0.210938 l 0.191406 0.105469 c 0.246094 0.136718 0.292969 0.253906 0.191406 0.472656 c -0.175781 0.367187 -1.011718 0.695312 -2.417968 0.9375 c -1.125 0.199218 -4.757813 0.25 -6.054688 0.085937"/><path d="m 9.316406 24.128906 l -0.1875 -0.125 c -0.476562 -0.320312 -0.820312 -0.664062 -0.914062 -0.929687 c -0.09375 -0.273438 -0.09375 -0.359375 0.0625 -1.257813 c 0.261718 -1.523437 0.34375 -1.789062 0.734375 -2.296875 c 0.421875 -0.554687 0.625 -0.695312 2.378906 -1.625 c 0.753906 -0.398437 1.429687 -0.789062 1.5 -0.871093 c 0.304687 -0.347657 0.398437 -1.113282 0.171875 -1.382813 c -0.191406 -0.230469 -0.386719 -0.664063 -0.632812 -1.417969 c -0.128907 -0.390625 -0.300782 -0.738281 -0.433594 -0.890625 c -0.269532 -0.296875 -0.539063 -1.019531 -0.539063 -1.445312 c 0 -0.34375 0.15625 -0.703125 0.304688 -0.703125 c 0.078125 0 0.097656 -0.1875 0.097656 -0.992188 c 0.003906 -1.109375 0.089844 -1.679687 0.371094 -2.359375 c 0.527343 -1.28125 1.710937 -1.953125 2.953125 -1.699219 c 0.625 0.128907 1.101562 0.429688 1.507812 0.957032 c 0.574219 0.742187 0.792969 1.597656 0.796875 3.101562 c 0 0.769532 0.019531 0.992188 0.089844 0.992188 c 0.050781 0 0.144531 0.078125 0.207031 0.171875 c 0.28125 0.410156 -0.070312 1.847656 -0.503906 2.0625 c -0.144531 0.074219 -0.222656 0.210937 -0.335938 0.617187 c -0.082031 0.285156 -0.261718 0.753906 -0.40625 1.042969 c -0.207031 0.421875 -0.257812 0.609375 -0.257812 0.945313 c 0.003906 0.820312 0.269531 1.121093 1.574219 1.746093 c 0.148437 0.070313 0.359375 0.1875 0.46875 0.253907 c 0.109375 0.066406 0.472656 0.265624 0.804687 0.441406 c 0.933594 0.492187 1.425782 0.996094 1.722656 1.773437 c 0.136719 0.351563 0.457032 2.132813 0.457032 2.542969 c 0 0.261719 -0.050782 0.375 -0.300782 0.660156 c -0.164062 0.191406 -0.480468 0.445313 -0.699218 0.558594 l -0.402344 0.207031 c -4.378906 1.304688 -8.894531 0.835938 -10.589844 -0.070312"/><path d="m 19.667969 7.347656 h 1.492187 c 0.070313 0 0.125 0.054688 0.125 0.125 v 1.828125 c 0 0.070313 -0.054687 0.125 -0.125 0.125 h -1.492187 c -0.066407 0 -0.125 -0.054687 -0.125 -0.125 v -1.828125 c 0 -0.070312 0.058593 -0.125 0.125 -0.125"/></g></svg>