<svg xmlns="http://www.w3.org/2000/svg" viewBox="0 0 32 32"><path d="m 12.339844 31.59375 c -29.992188 -6.246094 2.203125 -49.230469 17.445312 -23.410156 c 6.535156 10.03125 -2.023437 26.625 -17.445312 23.410156" style="fill:#ff8c00"/><g style="fill:#fff"><path d="m 24.46875 23.992188 c 0 0.382812 -3.746094 0.691406 -8.371094 0.691406 c -4.625 0 -8.375 -0.308594 -8.375 -0.691406 c 0 -0.382813 3.75 -0.691407 8.375 -0.691407 c 4.625 0 8.371094 0.308594 8.371094 0.691407" style="fill-opacity:0.380392"/><g style="fill-rule:evenodd"><path d="m 47.827115 88.646135 c 6.292162 -10.468002 7.902478 -16.891549 18.906308 -31.404006 c 11.003829 -14.512458 31.520453 -37.054349 47.176308 -55.641 c 0.984082 -1.189546 3.310095 -1.397717 5.009873 -0.118955 c 1.75942 1.338239 2.027806 3.71733 1.222648 4.847399 c -13.68769 20.103322 -29.880317 45.916464 -40.913967 60.428921 c -11.003829 14.512458 -16.759219 17.75397 -25.138829 26.645824 c -2.087447 -1.605887 -4.174894 -3.182035 -6.262341 -4.758183" transform="matrix(0.130991 0 0 0.131353 7.72725 7.86)" style="stroke:#fff;stroke-width:1.232"/><path d="m 13.734375 21.238281 c -0.253906 0.664063 -0.230469 1.363281 -0.753906 1.992188 c -0.738281 0.882812 -2.800781 1.234375 -3.75 0.476562 c 1.164062 -0.167969 1.707031 -1.050781 2.523437 -1.808593 c 0.53125 -0.488282 1.109375 -0.785157 1.371094 -1.128907 c 0.203125 0.15625 0.40625 0.3125 0.609375 0.472657"/><path d="m 13.550781 21.253906 c -0.15625 0.492188 -0.425781 1.359375 -0.757812 1.816406 c -0.472657 0.644532 -2.179688 1.050782 -2.851563 0.648438 c 0.851563 -0.179688 1.421875 -1.082031 1.929688 -1.652344 c 0.179687 -0.203125 1.121094 -0.886718 1.285156 -1.136718 c 0.136719 0.121093 0.257812 0.207031 0.394531 0.324218"/><path d="m 22.835938 7.953125 c -0.074219 0.019531 -0.140626 0.066406 -0.183594 0.117187 c -1.25 1.488282 -3.925782 4.542969 -5.175782 6.140626 c 0.316407 -0.070313 0.753907 -0.1875 1.148438 -0.527344 c 0.746094 -0.636719 3.691406 -4.664063 4.148438 -5.175782 c 0.292968 -0.320312 0.511718 -0.035156 0.746093 -0.039062 c -0.007812 -0.144531 -0.070312 -0.304688 -0.210937 -0.417969 c -0.148438 -0.109375 -0.328125 -0.140625 -0.472656 -0.101562" style="fill-opacity:0.870588"/></g><path d="m 21.597656 9.183594 c -0.140625 0.109375 -0.296875 0.265625 -0.359375 0.414062 l 0.917969 0.703125 l 0.324219 -0.433593 m -0.09375 -0.074219 l -0.328125 0.433593 l 0.324218 0.25 c 0.121094 -0.089843 0.222657 -0.285156 0.292969 -0.457031"/><path d="m 20.394531 12.792969 c -0.015625 0.019531 -0.023437 0.039062 -0.023437 0.054687 c 0 0.015625 0.007812 0.027344 0.019531 0.039063 c 0.011719 0.007812 0.027344 0.011719 0.042969 0.007812 c 0.015625 -0.003906 0.03125 -0.015625 0.042968 -0.035156 c 0.015626 -0.019531 0.023438 -0.035156 0.023438 -0.054687 c 0 -0.015626 -0.007812 -0.027344 -0.019531 -0.039063 c -0.015625 -0.011719 -0.027344 -0.011719 -0.042969 -0.007813 c -0.015625 0.003907 -0.03125 0.019532 -0.042969 0.035157 m -0.023437 -0.015625 c 0.027344 -0.039063 0.054687 -0.066406 0.085937 -0.078125 c 0.023438 -0.015625 0.050781 -0.015625 0.070313 0.003906 c 0.023437 0.015625 0.03125 0.039063 0.023437 0.066406 c -0.003906 0.03125 -0.023437 0.070313 -0.050781 0.109375 c -0.027344 0.039063 -0.058594 0.0625 -0.085938 0.078125 c -0.027343 0.011719 -0.050781 0.007813 -0.074218 -0.007812 c -0.019532 -0.015625 -0.027344 -0.039063 -0.023438 -0.070313 c 0.007813 -0.03125 0.023438 -0.0625 0.054688 -0.101562 m 0.28125 -0.246094 l 0.128906 -0.035156 l -0.050781 0.066406 l -0.085938 0.023438 l 0.003907 0.089843 l -0.050782 0.0625 v -0.132812 l -0.125 0.03125 l 0.050782 -0.0625 l 0.082031 -0.023438 v -0.082031 l 0.046875 -0.066406 v 0.128906 m 0.003906 -0.136719 l 0.050781 -0.066406 l 0.085938 -0.019531 v -0.09375 l 0.046875 -0.066406 l 0.007812 0.148437 l 0.050782 0.042969 l -0.046876 0.0625 l -0.050781 -0.042969 l -0.144531 0.035156 m 0.484375 -0.398437 c -0.007813 0.015625 -0.015625 0.035156 -0.027344 0.054687 c -0.007812 0.015625 -0.023437 0.035157 -0.035156 0.054688 c -0.027344 0.039062 -0.058594 0.066406 -0.089844 0.082031 c -0.027343 0.011719 -0.054687 0.011719 -0.074219 -0.003906 c -0.019531 -0.015625 -0.027343 -0.039063 -0.019531 -0.070313 c 0.003907 -0.035156 0.023438 -0.070312 0.054688 -0.113281 c 0.011719 -0.015625 0.023437 -0.03125 0.039062 -0.042969 c 0.011719 -0.015625 0.023438 -0.027343 0.039063 -0.039062 l 0.023437 0.023437 c -0.015625 0.007813 -0.027343 0.019532 -0.039062 0.03125 c -0.011719 0.011719 -0.023438 0.023438 -0.03125 0.039063 c -0.019531 0.023437 -0.03125 0.046875 -0.03125 0.0625 c -0.003907 0.019531 0 0.035156 0.015625 0.046875 c 0.011718 0.007812 0.027344 0.011718 0.042968 0.003906 c 0.019532 -0.007812 0.035157 -0.023438 0.050782 -0.046875 c 0.007812 -0.007813 0.011718 -0.011719 0.015625 -0.019531 c 0.003906 -0.007813 0.007812 -0.011719 0.007812 -0.015625 l -0.023437 -0.019531 l -0.03125 0.039062 l -0.019532 -0.019531 l 0.074219 -0.09375 l 0.058594 0.046875 m -0.074219 -0.148438 l 0.125 -0.164062 l 0.023438 0.015625 l -0.078125 0.109375 l 0.023437 0.015625 l 0.074219 -0.101563 l 0.027344 0.023438 l -0.078125 0.097656 l 0.03125 0.019531 l 0.082031 -0.109375 l 0.023437 0.023438 l -0.128906 0.171875 l -0.125 -0.101563 m 0.167969 -0.226562 l 0.050781 -0.070313 l 0.15625 -0.019531 l -0.089844 -0.066406 l 0.042969 -0.058594 l 0.128907 0.097656 l -0.050782 0.070313 l -0.152344 0.019531 l 0.085938 0.066406 l -0.042969 0.0625 l -0.128906 -0.101562 m 0.292969 -0.390625 l 0.054687 -0.070313 l 0.152344 -0.023437 l -0.089844 -0.0625 l 0.046875 -0.0625 l 0.125 0.097656 l -0.050781 0.070313 l -0.152344 0.019531 l 0.085938 0.070312 l -0.042969 0.058594 l -0.128906 -0.097656 m 0.253906 -0.34375 c 0.019531 -0.023438 0.035156 -0.039063 0.050781 -0.046875 c 0.015625 -0.007813 0.03125 -0.007813 0.039063 0 c 0.011718 0.007812 0.015625 0.023437 0.011718 0.039062 c -0.003906 0.019532 -0.015624 0.039063 -0.03125 0.0625 c -0.019531 0.023438 -0.035156 0.039063 -0.050781 0.046875 c -0.015625 0.007813 -0.03125 0.007813 -0.039062 0 c -0.011719 -0.007812 -0.015625 -0.019531 -0.011719 -0.039062 c 0.003906 -0.015625 0.011719 -0.039063 0.03125 -0.0625 m 0.03125 0.128906 l 0.097656 -0.132813 l 0.019532 0.011719 l -0.101563 0.132813 l -0.015625 -0.011719 m -0.015625 -0.117187 c -0.007813 0.011718 -0.011719 0.019531 -0.011719 0.027343 c 0 0.007813 0.003906 0.011719 0.007813 0.015625 c 0.007812 0.007813 0.015625 0.007813 0.023437 0.007813 c 0.007813 -0.003907 0.015625 -0.007813 0.019532 -0.019531 c 0.007812 -0.007813 0.011718 -0.015626 0.011718 -0.023438 c 0 -0.007812 -0.003906 -0.015625 -0.011718 -0.019531 c -0.003907 -0.007813 -0.011719 -0.007813 -0.019532 -0.003907 c -0.007812 0 -0.015625 0.007813 -0.019531 0.015626 m 0.316406 -0.328126 c 0.015625 -0.011718 0.027344 -0.023437 0.039063 -0.027343 c 0.011718 -0.003907 0.023437 -0.003907 0.03125 0.003906 c 0.011718 0.007813 0.015625 0.027344 0.007812 0.050781 c -0.007812 0.023438 -0.023437 0.050782 -0.050781 0.085938 c -0.011719 0.011718 -0.019531 0.023437 -0.027344 0.035156 c -0.011719 0.011719 -0.023437 0.023438 -0.035156 0.035156 l -0.023437 -0.019531 c 0.011718 -0.011719 0.019531 -0.019531 0.03125 -0.027344 c 0.011718 -0.011719 0.019531 -0.023437 0.027343 -0.035156 c 0.015625 -0.015625 0.023438 -0.03125 0.023438 -0.042969 c 0.003906 -0.007812 0.003906 -0.015625 0 -0.023437 c -0.007813 0 -0.015625 0 -0.023438 0.007812 c -0.011719 0.003907 -0.023437 0.015625 -0.035156 0.035157 l -0.019531 0.023437 l -0.019532 -0.015625 l 0.019532 -0.027344 c 0.011718 -0.015625 0.015625 -0.027344 0.023437 -0.039062 c 0 -0.007813 0 -0.015625 -0.007812 -0.019532 c 0 -0.003906 -0.007813 -0.003906 -0.015625 0.003907 c -0.007813 0.003906 -0.019532 0.015625 -0.03125 0.027343 c -0.007813 0.011719 -0.011719 0.019532 -0.019532 0.035157 c -0.003906 0.007812 -0.011718 0.019531 -0.015624 0.03125 l -0.027344 -0.015625 c 0.007812 -0.015625 0.015625 -0.03125 0.023437 -0.039063 c 0.007813 -0.015625 0.019531 -0.027343 0.027344 -0.039062 c 0.023437 -0.03125 0.042969 -0.054688 0.058594 -0.0625 c 0.019531 -0.015625 0.03125 -0.015625 0.042969 -0.007813 c 0.007812 0.007813 0.011718 0.015625 0.011718 0.027344 c 0 0.011719 -0.007812 0.023438 -0.015625 0.039062"/><path d="m 13.734375 21.238281 c -0.253906 0.664063 -0.230469 1.363281 -0.753906 1.992188 c -0.738281 0.882812 -1.835938 -0.582031 -1.046875 -1.367188 c 0.527344 -0.527343 0.929687 -0.75 1.1875 -1.09375 c 0.203125 0.15625 0.40625 0.3125 0.609375 0.472657" style="fill-rule:evenodd"/><path d="m 12.867188 20.6875 c 0.09375 -0.191406 0.242187 -0.421875 0.386718 -0.550781 l 0.851563 0.671875 l -0.414063 0.523437 m -0.089844 -0.070312 l 0.410157 -0.523438 l 0.304687 0.234375 c -0.082031 0.164063 -0.273437 0.351563 -0.445312 0.5"/><path d="m 13.253906 20.167969 c 0.09375 -0.195313 0.242188 -0.421875 0.386719 -0.550781 l 0.863281 0.683593 l -0.410156 0.523438 m -0.089844 -0.070313 l 0.410156 -0.527344 l 0.304688 0.238282 c -0.078125 0.164062 -0.269531 0.351562 -0.441406 0.5"/><path d="m 13.636719 19.628906 c 0.09375 -0.191406 0.242187 -0.421875 0.390625 -0.546875 l 0.890625 0.703125 l -0.410157 0.523438 m -0.097656 -0.070313 l 0.414063 -0.527343 l 0.316406 0.246093 c -0.078125 0.167969 -0.269531 0.355469 -0.441406 0.5"/><path d="m 14.027344 19.105469 c 0.09375 -0.195313 0.242187 -0.425781 0.390625 -0.550781 l 0.90625 0.714843 l -0.414063 0.527344 m -0.09375 -0.074219 l 0.414063 -0.527344 l 0.320312 0.25 c -0.078125 0.167969 -0.273437 0.355469 -0.445312 0.5"/><path d="m 14.417969 18.550781 c -0.144531 0.125 -0.285157 0.347657 -0.378907 0.539063 l -0.011718 -0.007813 c -0.144532 0.121094 -0.289063 0.34375 -0.382813 0.535157 h -0.003906 c -0.140625 0.121093 -0.277344 0.34375 -0.375 0.527343 l -0.011719 -0.007812 c -0.148437 0.128906 -0.289062 0.359375 -0.386718 0.554687 l 0.828124 0.640625 l 0.179688 0.140625 c 0.167969 -0.144531 0.363281 -0.335937 0.441406 -0.5 l -0.019531 -0.019531 c 0.167969 -0.144531 0.347656 -0.324219 0.425781 -0.488281 l -0.015625 -0.011719 c 0.167969 -0.144531 0.359375 -0.328125 0.4375 -0.496094 l -0.027343 -0.019531 c 0.171874 -0.144531 0.355468 -0.324219 0.433593 -0.488281"/></g></svg>