<svg xmlns="http://www.w3.org/2000/svg" viewBox="0 0 32 32"><path d="m 7.519531 3.296875 c 16.367188 -11.503906 32.953125 9.746094 19.617188 23.300781 c -12.566407 12.769532 -32.085938 0.929688 -25.984375 -14.960937 c 1.273437 -3.316407 3.363281 -6.226563 6.367187 -8.339844" style="fill:#ff8c00"/><path d="m 24.214844 14.253906 l -5.484375 9.46875 l -1.734375 -1.003906 l 4.984375 -8.605469 l -1.109375 -4.09375 l -0.867188 -0.5 l -4.101562 1.074219 l -5.480469 9.46875 l 3.472656 2.011719 l 3.984375 -6.890625 l -0.867187 -0.5 l -3.488281 6.023437 l -1.734376 -1 l 3.988282 -6.890625 l 2.730468 -0.714844 l 0.871094 0.503907 l 0.734375 2.726562 l -5.480469 9.46875 l -6.941406 -4.023437 l 6.976563 -12.050782 l 5.464843 -1.433593 l 2.605469 1.507812" style="fill:#fff"/></svg>