<svg xmlns="http://www.w3.org/2000/svg" viewBox="0 0 32 32"><g style="fill:#fff"><path d="m 21.164062 11.417969 c 0 1.53125 -1.242187 2.777343 -2.777343 2.777343 c -1.53125 0 -2.777344 -1.246093 -2.777344 -2.777343 c 0 -1.535157 1.246094 -2.777344 2.777344 -2.777344 c 1.535156 0 2.777343 1.242187 2.777343 2.777344"/><path d="m 21.496094 21.175781 c 0 1.53125 -1.242188 2.773438 -2.777344 2.773438 c -1.535156 0 -2.777344 -1.242188 -2.777344 -2.773438 c 0 -1.535156 1.242188 -2.78125 2.777344 -2.78125 c 1.535156 0 2.777344 1.246094 2.777344 2.78125"/><path d="m 10.84375 15.839844 c 0 1.53125 -1.246094 2.773437 -2.777344 2.773437 c -1.535156 0 -2.777344 -1.242187 -2.777344 -2.773437 c 0 -1.539063 1.242188 -2.78125 2.777344 -2.78125 c 1.53125 0 2.777344 1.246094 2.777344 2.78125"/></g><path d="m 24.507812 28.648438 c -11.804687 10.46875 -29.96875 -6.046876 -22.621093 -19.871094 c 7.421875 -13.976563 31.992187 -10.25 29.90625 6.914062 c -0.625 5.109375 -3.433594 9.539063 -7.285157 12.957032" style="fill:#ff8c00"/><g transform="matrix(0.445351 0 0 0.409863 1.549625 2.958)" style="stroke:#fff;stroke-linecap:round;stroke-linejoin:round"><g style="fill:none;stroke-width:5"><g style="stroke-dasharray:5 5"><path d="m 32.964633 32.773478 l 10.393831 -5.060765"/><path d="m 32.964633 32.840192 l 4.613633 9.492509"/></g><path d="m 17.211621 54.369889 l 37.163426 -18.079608"/><path d="M 34.061029 5.620709 L 52.1384 42.790171 "/></g><path d="m 41.507748 19.783227 c -2.833086 1.639269 -6.464349 0.667144 -8.104556 -2.163453 c -1.631437 -2.840128 -0.666609 -6.471299 2.175249 -8.110567 c 2.833086 -1.639269 6.473119 -0.667145 8.104556 2.172983 c 1.640208 2.840129 0.666608 6.471299 -2.175249 8.101037" style="fill:#ffdeac;stroke-width:3.125"/></g></svg>