<svg xmlns="http://www.w3.org/2000/svg" viewBox="0 0 32 32"><path d="m 0.40625 19.660156 c 6.246094 29.992188 49.230469 -2.203125 23.410156 -17.445312 c -10.03125 -6.535156 -26.625 2.023437 -23.410156 17.445312" style="fill:#ff8c00"/><g style="fill:#fff;stroke:#fff"><path d="m 47.991851 20.296399 c -9.387038 0 -18.17013 1.244581 -26.366532 3.733743 c -8.144635 2.537653 -15.340214 5.948129 -21.62124613 10.069793 v 32.06817 c 2.91619413 2.553816 6.29828813 4.655057 10.0945161 6.222906 c 3.813484 1.551685 7.920313 2.311365 12.303231 2.311365 c 4.382919 0 8.472492 -0.75968 12.26872 -2.311365 c 3.83074 -1.567849 7.195579 -3.66909 10.129028 -6.222906 c 0.43139 -0.339431 0.89729 -0.630372 1.432213 -0.840497 c 0.552179 -0.210124 1.138869 -0.307104 1.76007 -0.307104 c 0.638457 0 1.207891 0.09698 1.760069 0.307104 c 0.552179 0.210125 1.035335 0.501066 1.44947 0.840497 c 2.933449 2.553816 6.298288 4.655057 10.07726 6.222906 c 3.83074 1.551685 7.937569 2.311365 12.320487 2.311365 c 4.382918 0 8.472492 -0.75968 12.26872 -2.311365 c 3.83074 -1.567849 7.195578 -3.66909 10.129028 -6.222906 v -32.06817 c -6.281033 -4.121664 -13.511122 -7.515977 -21.707525 -10.069793 c -8.144635 -2.489162 -16.910472 -3.733743 -26.297509 -3.733743 m 0 3.992358 c 9.041926 0 17.393628 1.196091 25.106874 3.555946 c 7.126556 2.214384 13.355822 5.172285 18.894864 8.598924 v 27.720217 c -2.277737 1.777973 -4.762541 3.345822 -7.644223 4.52575 c -3.295817 1.341561 -6.833211 2.020424 -10.750229 2.020424 c -3.899762 0 -7.454412 -0.678863 -10.801995 -2.036587 c -3.382095 -1.390052 -6.350055 -3.265006 -8.972904 -5.52788 l -0.069022 -0.064654 c -0.759246 -0.630372 -1.622025 -1.131437 -2.536571 -1.487032 h -0.017255 c -1.035336 -0.404085 -2.122437 -0.581882 -3.192283 -0.581882 c -1.087102 0 -2.174204 0.177797 -3.192283 0.581882 h -0.034512 c -0.914546 0.355595 -1.777325 0.85666 -2.53657 1.487032 l -0.069023 0.064654 c -2.605593 2.262874 -5.590809 4.137828 -9.02467 5.544043 c -3.295816 1.325398 -6.833211 2.00426 -10.750229 2.00426 c -3.899761 0 -7.471667 -0.678862 -10.801995 -2.020423 c -2.829916 -1.163765 -5.31472 -2.731614 -7.592457 -4.52575 v -27.720217 c 5.539043 -3.426639 11.716542 -6.368377 18.791331 -8.582761 c 7.799524 -2.359855 16.185737 -3.555946 25.210408 -3.555946" transform="matrix(0.226376 0 0 0.241673 4.592828 3.743353)"/><g transform="matrix(0 -0.241576 -0.226376 0 104.50625 109.55375)"><path d="m 395.187488 415.766385 c 0 -3.140516 -0.533606 -6.05671 -1.568477 -8.765836 c -1.08338 -2.726382 -2.490158 -5.142164 -4.252673 -7.247345 c -1.746345 2.105181 -3.153122 4.520963 -4.236503 7.247345 c -1.051041 2.709126 -1.584646 5.62532 -1.584646 8.765836 c 0 3.123261 0.533605 6.05671 1.584646 8.783092 c 1.083381 2.709127 2.490158 5.124909 4.236503 7.212834 c 1.762515 -2.087925 3.169293 -4.503707 4.252673 -7.212834 c 1.034871 -2.726382 1.568477 -5.659831 1.568477 -8.783092"/><path d="m 395.187488 370.97089 c 0 -3.140516 -0.533606 -6.05671 -1.568477 -8.765836 c -1.08338 -2.726382 -2.490158 -5.142164 -4.252673 -7.247345 c -1.746345 2.105181 -3.153122 4.520963 -4.236503 7.247345 c -1.051041 2.709126 -1.584646 5.62532 -1.584646 8.765836 c 0 3.123261 0.533605 6.039455 1.584646 8.783092 c 1.083381 2.709127 2.490158 5.124909 4.236503 7.195579 c 1.762515 -2.087926 3.169293 -4.486452 4.252673 -7.195579 c 1.034871 -2.743637 1.568477 -5.659831 1.568477 -8.783092"/></g></g></svg>