
<svg xmlns="http://www.w3.org/2000/svg" xmlns:xlink="http://www.w3.org/1999/xlink" width="32px" height="32px" viewBox="0 0 32 32" version="1.1">
<g id="surface1">
<path style=" stroke:none;fill-rule:nonzero;fill:rgb(100%,54.901961%,0%);fill-opacity:1;" d="M 16.804688 0.449219 C 60.179688 19.734375 -3.460938 54.386719 0.148438 11.433594 C 0.992188 4.964844 7.675781 -1.828125 16.804688 0.449219 Z M 16.804688 0.449219 "/>
<path style=" stroke:none;fill-rule:evenodd;fill:rgb(100%,100%,100%);fill-opacity:1;" d="M 24.339844 10.386719 C 24.738281 10.386719 25.0625 10.714844 25.0625 11.125 L 25.0625 21.417969 C 25.0625 21.824219 24.738281 22.152344 24.339844 22.152344 L 9.628906 22.152344 C 9.230469 22.152344 8.90625 21.824219 8.90625 21.417969 L 8.90625 11.125 C 8.90625 10.714844 9.230469 10.386719 9.628906 10.386719 Z M 24.339844 10.386719 "/>
<path style="fill-rule:evenodd;fill:rgb(100%,89.411765%,76.862745%);fill-opacity:1;stroke-width:3.125;stroke-linecap:round;stroke-linejoin:round;stroke:rgb(100%,100%,100%);stroke-opacity:1;stroke-miterlimit:4;" d="M 11.512514 15.313685 C 10.490961 15.313685 9.685505 16.132661 9.685505 17.156382 L 9.685505 42.846885 C 9.685505 43.860856 10.490961 44.679832 11.512514 44.679832 L 48.494712 44.679832 C 49.506443 44.679832 50.311899 43.860856 50.311899 42.846885 L 50.311899 17.156382 C 50.311899 16.132661 49.506443 15.313685 48.494712 15.313685 Z M 11.512514 15.313685 " transform="matrix(-0.397679,0,0,0.400653,25.93375,4.25125)"/>
</g>
</svg>
