<svg xmlns="http://www.w3.org/2000/svg" viewBox="0 0 32 32"><path d="m 3.058594 6.503906 c -15.992188 24.058594 35.011718 38.875 28.257812 7.773438 c -2.875 -12.851563 -20.921875 -20.652344 -28.257812 -7.773438" style="fill:#b0c3de"/><path d="m 19.441406 25.449219 c -0.757812 -0.011719 -1.515625 -0.257813 -2.136718 -0.75 c -1.996094 -1.578125 -0.445313 -3.214844 -2.183594 -4.59375 c -1.742188 -1.375 -3.28125 0.273437 -5.28125 -1.304688 v -0.003906 c -0.441406 -0.347656 -0.761719 -0.785156 -0.953125 -1.253906 c 0 0 0 -0.007813 -0.003907 -0.007813 c -0.039062 -0.09375 -0.074218 -0.191406 -0.097656 -0.289062 c -0.015625 -0.042969 -0.03125 -0.085938 -0.039062 -0.132813 c 0 -0.003906 0 -0.007812 -0.003906 -0.015625 c -0.019532 -0.089844 -0.035157 -0.183594 -0.050782 -0.277344 c 0 0 0 0 0 -0.003906 c 0 -0.003906 0 -0.007812 0 -0.011718 c -0.007812 -0.042969 -0.011718 -0.089844 -0.015625 -0.132813 c 0 -0.03125 -0.007812 -0.066406 -0.007812 -0.097656 c 0 -0.015625 0 -0.035157 0 -0.054688 c 0 -0.003906 0 -0.007812 0 -0.015625 c -0.003907 -0.042968 -0.003907 -0.085937 0 -0.128906 c 0 -0.023438 0 -0.046875 0 -0.066406 c 0 -0.035156 0.007812 -0.070313 0.007812 -0.101563 c 0.003907 -0.046875 0.007813 -0.097656 0.015625 -0.148437 c 0.015625 -0.09375 0.03125 -0.1875 0.050782 -0.28125 c 0.003906 -0.003906 0.003906 -0.007813 0.003906 -0.011719 c 0.007812 -0.042969 0.023437 -0.089844 0.039062 -0.132813 c 0.027344 -0.097656 0.058594 -0.191406 0.097656 -0.289062 c 0.003907 -0.003906 0.003907 -0.003906 0.003907 -0.007812 c 0.191406 -0.46875 0.511719 -0.902344 0.953125 -1.253907 c 2 -1.578125 3.539062 0.0625 5.28125 -1.3125 c 1.738281 -1.375 0.1875 -3.011719 2.183594 -4.589843 c 1.417968 -1.121094 3.558593 -0.972657 4.78125 0.324218 c 1.222656 1.300782 1.066406 3.261719 -0.355469 4.382813 c -1.992188 1.578125 -3.535157 -0.070313 -5.273438 1.308593 c -0.878906 0.691407 -0.917969 1.457032 -1 2.246094 c 0.082031 0.785156 0.121094 1.550782 1 2.242188 c 1.738281 1.375 3.28125 -0.269532 5.273438 1.308594 c 1.421875 1.121093 1.578125 3.082031 0.355469 4.382812 c -0.691407 0.730469 -1.664063 1.097656 -2.644532 1.078125" style="fill:#fff;fill-opacity:0.941176;fill-rule:evenodd"/></svg>