<svg xmlns="http://www.w3.org/2000/svg" viewBox="0 0 32 32"><path d="m 5.058594 27.902344 c 27.695312 18.144531 38.410156 -31.421875 9.921875 -27.472656 c -11.625 1.609374 -20.519531 20.527343 -9.921875 27.472656" style="fill:#ff8c00"/><g style="stroke-linecap:round;stroke-linejoin:round"><g transform="matrix(-0.351782 0 0 0.354756 26.486193 5.356761)"><path d="m 11.753388 54.380128 v -48.746092 h 27.682716 l 8.816717 8.808871 v 39.937221" style="fill:none;stroke:#fff;stroke-width:7.134"/><g style="stroke:#ff8c00;stroke-width:2.378"><path d="m 11.753388 54.380128 v -48.746092 h 27.682716 l 8.816717 8.808871 v 39.937221" style="fill:#fff"/><path d="m 39.436104 14.442907 v -8.819882 l 8.816717 8.819882" style="fill:#ff8c00"/></g></g><g transform="matrix(-0.338786 0 0 0.34165 26.09625 5.75)" style="fill:none;stroke:#ff8c00;stroke-width:2.469"><path d="m 17.210348 11.170514 h 8.578424"/><path d="m 17.210348 22.169527 h 8.578424"/><path d="m 27.206979 27.177393 h 15.58875"/><path d="m 17.210348 32.162392 h 25.585381"/><path d="m 17.210348 42.166691 h 17.583464"/><path d="m 25.708061 48.16927 h 8.578424"/><path d="m 17.210348 37.170258 h 25.585381"/></g></g></svg>