<svg xmlns="http://www.w3.org/2000/svg" viewBox="0 0 32 32"><path d="m 28.703125 24.480469 c 11.507813 -16.367188 -9.742187 -32.949219 -23.296875 -19.613281 c -12.773438 12.5625 -0.933594 32.082031 14.960938 25.980468 c 3.316406 -1.273437 6.222656 -3.363281 8.335937 -6.367187" style="fill:#ff8c00"/><path d="m 429.864411 413.625658 c 0 12.97332 -9.956221 23.512886 -22.332081 23.794477 c -5.731769 0 -10.214052 -1.568866 -14.379005 -3.17796 c -17.096141 -7.522515 -31.415646 -22.205498 -48.551453 -41.233034 c 17.135807 -19.027537 31.455312 -33.690406 48.551453 -41.233034 c 4.164953 -1.58898 8.647236 -3.157847 14.379005 -3.157847 c 12.37586 0.281592 22.332081 10.821157 22.332081 23.794478 c 0 8.809789 -4.601281 16.493213 -11.443704 20.596403 c 6.842423 4.123303 11.443704 11.806727 11.443704 20.63663 m -4.264118 -0.020113 c 0 -7.200696 -3.748458 -13.415821 -9.321562 -16.754691 l -6.386261 -3.861826 l 6.386261 -3.841712 c 5.573104 -3.33887 9.321562 -9.553996 9.321562 -16.774805 c 0 -10.559679 -8.012577 -19.087877 -18.10763 -19.329242 c -4.938444 0 -8.746401 1.307389 -12.752689 2.856142 c -15.132663 6.67774 -28.460513 19.791856 -44.227836 37.089617 c 15.767323 17.317874 29.115006 30.411877 44.227836 37.10973 c 4.006288 1.548753 7.814245 2.856142 12.752689 2.856142 c 10.095053 -0.261478 18.10763 -8.769562 18.10763 -19.329242" transform="matrix(0 -0.196956 -0.194209 0 92.4625 93.555)" style="fill:#fff;stroke:#fff;stroke-width:3.264"/></svg>