<svg xmlns="http://www.w3.org/2000/svg" viewBox="0 0 32 32"><path d="m 19.660156 31.59375 c 29.992188 -6.246094 -2.203125 -49.230469 -17.445312 -23.410156 c -6.535156 10.03125 2.023437 26.625 17.445312 23.410156" style="fill:#ff8c00"/><g style="fill:#fff"><path d="m 15.886719 12.714844 c -0.710938 0.011718 -1.402344 0.347656 -1.96875 1.132812 c -1.558594 0.414063 -1.960938 2.632813 -2.097657 4.171875 c -0.175781 1.953125 0.828126 3.1875 2.191407 3.714844 c -0.023438 0.222656 -0.070313 0.410156 -0.140625 0.527344 c -0.253906 0.429687 -0.835938 0.808593 -1.839844 1.09375 c -1.121094 0.316406 -2.011719 0.625 -2.65625 1.195312 c -0.570312 0.5 -0.9375 1.078125 -0.9375 1.820313 c 0 1.929687 14.917969 2.03125 14.917969 0 c 0 -0.742188 -0.367188 -1.320313 -0.9375 -1.820313 c -0.640625 -0.5625 -1.527344 -0.890625 -2.65625 -1.210937 c -1.011719 -0.289063 -1.59375 -0.652344 -1.84375 -1.078125 c -0.085938 -0.144531 -0.140625 -0.398438 -0.148438 -0.691407 c 1.242188 -0.582031 2.222657 -1.699218 2.367188 -3.347656 c 0.226562 -2.613281 -2.113281 -5.53125 -4.25 -5.507812" style="fill-opacity:0.419608"/><g style="fill-opacity:0.670588"><path d="m 13.804688 27.574219 c -2.777344 -0.164063 -4.550782 -0.523438 -5.082032 -1.019531 c -0.210937 -0.195313 -0.234375 -0.316407 -0.148437 -0.707032 c 0.242187 -1.070312 1.132812 -1.765625 3.074219 -2.414062 c 1.472656 -0.492188 2.171874 -0.953125 2.339843 -1.546875 c 0.0625 -0.21875 -0.023437 -0.332031 -0.496093 -0.605469 c -1.199219 -0.703125 -1.660157 -1.730469 -1.554688 -3.457031 c 0.101562 -1.664063 0.46875 -2.75 1.160156 -3.417969 c 0.769532 -0.746094 1.460938 -1.292969 1.945313 -1.542969 c 1.363281 -0.695312 3.382812 0.503907 4.4375 2.636719 c 1.0625 2.148438 0.617187 4.359375 -1.101563 5.472656 c -0.492187 0.320313 -0.617187 0.472656 -0.617187 0.753906 c 0 0.613282 0.601562 1.050782 2.257812 1.636719 c 0.828125 0.296875 1.714844 0.671875 1.972657 0.84375 c 0.996093 0.652344 1.53125 1.835938 1.066406 2.351563 c -0.703125 0.78125 -5.132813 1.265625 -9.253906 1.015625"/><path d="m 12.910156 27.316406 c -1.5 -0.132812 -3.058594 -0.4375 -3.648437 -0.71875 c -0.703125 -0.335937 -0.703125 -0.945312 0 -1.785156 c 0.441406 -0.523438 1.140625 -0.917969 2.691406 -1.507812 c 1.292969 -0.492188 2.234375 -1.179688 2.234375 -1.632813 c 0 -0.109375 -0.257812 -0.378906 -0.570312 -0.589844 c -0.65625 -0.453125 -1.117188 -1.027343 -1.328126 -1.648437 c -0.308593 -0.929688 -0.070312 -3.386719 0.425782 -4.339844 c 0.242187 -0.46875 1.195312 -1.414062 1.976562 -1.960938 c 1.585938 -1.109374 3.683594 -0.097656 4.84375 2.328126 c 0.375 0.792968 0.460938 1.132812 0.5 1.957031 c 0.070313 1.503906 -0.355468 2.421875 -1.558594 3.363281 c -0.488281 0.378906 -0.589843 0.527344 -0.589843 0.878906 c 0 0.585938 0.5 0.941406 2.40625 1.703125 c 1.835937 0.730469 2.074219 0.875 2.578125 1.574219 c 0.515625 0.707031 0.484375 1.320312 -0.078125 1.648438 c -1.183594 0.6875 -6.15625 1.054687 -9.882813 0.730468"/><path d="m 16.941406 22.988281 c -2.132812 -0.351562 -2.765625 -0.707031 -2.578125 -1.453125 c 0.183594 -0.726562 0.945313 -1.3125 2.757813 -2.125 c 1.695312 -0.757812 2.550781 -1.355468 2.550781 -1.78125 c 0 -0.109375 -0.316406 -0.476562 -0.703125 -0.8125 c -0.386719 -0.332031 -0.824219 -0.84375 -0.972656 -1.132812 c -0.242188 -0.476563 -0.261719 -0.675782 -0.203125 -2.066406 c 0.09375 -2.046876 0.285156 -2.566407 1.335937 -3.59375 c 0.96875 -0.945313 1.679688 -1.324219 2.484375 -1.324219 c 1.296875 0 2.78125 1.289062 3.476563 3.019531 c 0.257812 0.644531 0.324218 1.035156 0.324218 1.878906 c 0 1.3125 -0.320312 2.007813 -1.351562 2.929688 c -0.574219 0.511718 -0.691406 0.6875 -0.691406 1.039062 c 0 0.609375 0.4375 0.921875 2.476562 1.785156 c 2.183594 0.925782 2.882813 1.597657 2.734375 2.636719 c -0.109375 0.796875 -1.992187 1.136719 -6.613281 1.199219 c -3.019531 0.042969 -3.71875 0.011719 -5.027344 -0.199219"/><path d="m 7.425781 20.371094 c -1.328125 -0.242188 -1.929687 -0.472656 -2.210937 -0.851563 c -0.21875 -0.296875 -0.226563 -0.351562 -0.042969 -0.703125 c 0.335937 -0.644531 1.097656 -1.199218 2.710937 -1.960937 c 1.566407 -0.742188 2.476563 -1.382813 2.476563 -1.746094 c 0 -0.109375 -0.367187 -0.582031 -0.816406 -1.046875 c -1.078125 -1.113281 -1.179688 -1.457031 -1.003907 -3.371094 c 0.160157 -1.773437 0.421876 -2.371094 1.449219 -3.320312 c 0.902344 -0.835938 1.53125 -1.140625 2.355469 -1.148438 c 2.003906 -0.007812 4.015625 2.898438 3.6875 5.335938 c -0.128906 0.980468 -0.359375 1.417968 -1.203125 2.296875 c -0.867187 0.902343 -0.988281 1.359375 -0.480469 1.828125 c 0.15625 0.140625 1.183594 0.695312 2.28125 1.222656 c 2.03125 0.980469 2.410156 1.277344 2.601563 2.027344 c 0.203125 0.816406 -0.398438 1.171875 -2.421875 1.4375 c -1.941406 0.253906 -7.984375 0.253906 -9.382813 0"/><path d="m 16.738281 22.921875 c -1.328125 -0.242187 -1.925781 -0.472656 -2.207031 -0.847656 c -0.222656 -0.300781 -0.226562 -0.355469 -0.046875 -0.703125 c 0.105469 -0.207032 0.285156 -0.453125 0.394531 -0.542969 c 0.414063 -0.339844 0.214844 -0.425781 -0.804687 -0.332031 l -1 0.085937 l -0.328125 -0.390625 c -0.492188 -0.582031 -0.648438 -1.554687 -0.480469 -2.945312 c 0.214844 -1.773438 0.503906 -2.398438 1.511719 -3.289063 c 0.820312 -0.722656 1.648437 -1.257812 1.765625 -1.136719 c 0.03125 0.03125 -0.191407 0.359376 -0.492188 0.726563 c -1.117187 1.371094 -1.21875 1.714844 -0.65625 2.160156 c 0.1875 0.148438 1.125 0.667969 2.09375 1.15625 c 0.96875 0.492188 1.9375 1.046875 2.15625 1.230469 l 0.402344 0.335938 l 0.3125 -0.292969 c 0.171875 -0.164063 0.3125 -0.375 0.3125 -0.476563 c 0 -0.097656 -0.339844 -0.535156 -0.761719 -0.96875 c -0.417968 -0.4375 -0.847656 -1.007812 -0.953125 -1.261718 c -0.214843 -0.507813 -0.273437 -1.878907 -0.082031 -1.878907 c 0.234375 0 1.175781 1.207031 1.574219 2.023438 c 0.347656 0.699219 0.421875 1.015625 0.460937 1.90625 c 0.0625 1.464843 -0.164062 2.015625 -1.28125 3.117187 c -1.125 1.109375 -1.148437 1.503906 -0.125 2.152344 l 0.582032 0.367188 l -0.695313 -0.011719 c -0.382813 -0.003907 -1.125 -0.085938 -1.652344 -0.183594"/><path d="m 16.746094 22.925781 c -1.867188 -0.339843 -2.53125 -0.765625 -2.285156 -1.46875 c 0.066406 -0.195312 0.238281 -0.457031 0.371093 -0.578125 c 0.445313 -0.402344 0.296875 -0.476562 -0.761719 -0.382812 l -1.007812 0.085937 l -0.332031 -0.433593 c -0.453125 -0.597657 -0.597657 -1.480469 -0.457031 -2.832032 c 0.175781 -1.710937 0.421874 -2.304687 1.316406 -3.171875 c 0.753906 -0.722656 1.820312 -1.453125 1.945312 -1.328125 c 0.039063 0.035156 -0.070312 0.226563 -0.238281 0.429688 c -0.824219 0.992187 -1.238281 1.625 -1.238281 1.898437 c 0 0.382813 0.246094 0.550781 2.554687 1.777344 c 1.015625 0.542969 1.976563 1.105469 2.132813 1.253906 l 0.289062 0.265625 l 0.320313 -0.296875 c 0.171875 -0.167969 0.316406 -0.371093 0.316406 -0.457031 c 0 -0.085938 -0.347656 -0.542969 -0.777344 -1.019531 c -0.429687 -0.46875 -0.859375 -1.046875 -0.957031 -1.28125 c -0.199219 -0.476563 -0.242188 -1.835938 -0.058594 -1.835938 c 0.222656 0 1.164063 1.214844 1.566406 2.019531 c 0.328126 0.664063 0.410157 1.003907 0.457032 1.886719 c 0.078125 1.445313 -0.140625 1.984375 -1.265625 3.171875 c -1.125 1.1875 -1.144531 1.480469 -0.132813 2.121094 l 0.582032 0.367188 l -0.695313 -0.011719 c -0.382813 -0.003907 -1.121094 -0.085938 -1.644531 -0.179688"/><path d="m 17.441406 23.03125 c -0.945312 -0.117188 -2.207031 -0.449219 -2.585937 -0.675781 c -0.519531 -0.320313 -0.554688 -0.835938 -0.097657 -1.378907 c 0.171876 -0.207031 0.277344 -0.410156 0.230469 -0.457031 c -0.046875 -0.046875 -0.496093 -0.046875 -1 -0.003906 l -0.914062 0.082031 l -0.335938 -0.441406 c -0.460937 -0.605469 -0.605469 -1.484375 -0.46875 -2.835938 c 0.195313 -1.871093 0.515625 -2.535156 1.695313 -3.519531 c 0.757812 -0.640625 1.472656 -1.085937 1.570312 -0.984375 c 0.03125 0.027344 -0.289062 0.507813 -0.710937 1.0625 c -0.421875 0.554688 -0.765625 1.109375 -0.765625 1.234375 c 0 0.351563 0.347656 0.613281 1.980468 1.480469 c 0.839844 0.449219 1.867188 1.039062 2.28125 1.316406 l 0.75 0.5 l 0.300782 -0.285156 c 0.164062 -0.152344 0.300781 -0.34375 0.296875 -0.417969 c 0 -0.078125 -0.375 -0.5625 -0.828125 -1.085937 c -0.457032 -0.523438 -0.882813 -1.148438 -0.953125 -1.402344 c -0.160157 -0.574219 -0.164063 -1.667969 -0.007813 -1.667969 c 0.222656 0 1.15625 1.214844 1.5625 2.039063 c 0.34375 0.691406 0.417969 1.015625 0.460938 1.9375 c 0.070312 1.375 -0.140625 1.882812 -1.328125 3.171875 c -1.054688 1.148437 -1.054688 1.386719 0 2.089843 l 0.496093 0.328126 l -0.621093 -0.019532 c -0.34375 -0.007812 -0.796875 -0.039062 -1.007813 -0.066406"/><path d="m 18.332031 17.839844 c -0.351562 -0.238282 -1.328125 -0.796875 -2.167969 -1.242188 c -0.839843 -0.449218 -1.660156 -0.945312 -1.824218 -1.101562 c -0.285156 -0.28125 -0.285156 -0.289063 -0.0625 -0.710938 c 0.125 -0.234375 0.484375 -0.78125 0.804687 -1.207031 c 0.496094 -0.675781 0.628907 -0.78125 0.992188 -0.785156 c 0.234375 -0.007813 0.722656 0.136719 1.085937 0.3125 l 0.664063 0.324219 l -0.042969 0.878906 c -0.050781 1.050781 0.089844 1.375 1.070312 2.4375 c 0.382813 0.417968 0.691407 0.835937 0.691407 0.929687 c 0 0.15625 -0.382813 0.59375 -0.515625 0.59375 c -0.03125 0 -0.34375 -0.195312 -0.695313 -0.429687"/><path d="m 18.90625 18.269531 c 0 -0.070312 -0.042969 -0.125 -0.101562 -0.125 c -0.199219 0 -2.191407 -1.1875 -2.191407 -1.304687 c 0 -0.0625 -0.058593 -0.078125 -0.128906 -0.039063 c -0.070313 0.046875 -0.128906 0.015625 -0.128906 -0.0625 c 0 -0.078125 -0.054688 -0.105469 -0.125 -0.0625 c -0.070313 0.042969 -0.128907 0.015625 -0.128907 -0.0625 c 0 -0.078125 -0.050781 -0.113281 -0.113281 -0.074219 c -0.0625 0.039063 -0.148437 -0.019531 -0.191406 -0.128906 c -0.042969 -0.109375 -0.136719 -0.164062 -0.207031 -0.117187 c -0.070313 0.042969 -0.125 0.015625 -0.125 -0.0625 c 0 -0.078125 -0.058594 -0.109375 -0.128906 -0.066407 c -0.070313 0.042969 -0.128907 0.015626 -0.128907 -0.0625 c 0 -0.078124 -0.050781 -0.113281 -0.113281 -0.074218 c -0.0625 0.039062 -0.152344 -0.023438 -0.195312 -0.136719 c -0.042969 -0.113281 -0.117188 -0.171875 -0.160157 -0.128906 c -0.046875 0.046875 -0.164062 -0.03125 -0.261719 -0.171875 c -0.097656 -0.144532 -0.226562 -0.230469 -0.285156 -0.195313 c -0.054687 0.035157 -0.101562 -0.078125 -0.101562 -0.25 c 0 -0.171875 0.050781 -0.28125 0.113281 -0.246093 c 0.097656 0.0625 0.132813 -0.035157 0.097656 -0.28125 c -0.003906 -0.046876 0.070313 -0.128907 0.164063 -0.1875 c 0.09375 -0.058594 0.167968 -0.167969 0.167968 -0.242188 c 0 -0.074219 0.085938 -0.191406 0.191407 -0.257812 c 0.105469 -0.066407 0.144531 -0.121094 0.085937 -0.121094 c -0.0625 -0.003906 0.042969 -0.1875 0.230469 -0.40625 c 0.261719 -0.3125 0.300781 -0.425782 0.167969 -0.507813 c -0.09375 -0.0625 0.164062 -0.082031 0.585937 -0.050781 c 0.96875 0.074219 2.203125 0.640625 1.984375 0.910156 c -0.101562 0.117188 -0.117187 0.414063 -0.0625 0.882813 c 0.074219 0.582031 0.203125 0.863281 0.710938 1.535156 c 0.34375 0.453125 0.589844 0.824219 0.546875 0.824219 c -0.042969 0 0.015625 0.105468 0.136719 0.234375 c 0.328124 0.367187 0.363281 0.757812 0.070312 0.851562 c -0.136719 0.042969 -0.214844 0.132813 -0.175781 0.195313 c 0.039062 0.066406 0.011719 0.121094 -0.0625 0.121094 c -0.074219 0 -0.136719 -0.058594 -0.136719 -0.128907"/><path d="m 11.457031 27.070312 c -2.125 -0.347656 -2.765625 -0.707031 -2.582031 -1.441406 c 0.207031 -0.816406 1.375 -1.664062 3.015625 -2.1875 c 1.28125 -0.410156 2.292969 -1.175781 2.296875 -1.746094 c 0.003906 -0.09375 -0.242188 -0.386718 -0.542969 -0.644531 l -0.542969 -0.476562 l 1.84375 -0.007813 l -0.324218 0.472656 c -0.601563 0.886719 -0.253906 1.363282 1.292968 1.753907 c 1.152344 0.292969 3.171876 0.492187 3.230469 0.320312 c 0.03125 -0.089843 0.117188 -0.078125 0.253907 0.046875 c 0.117187 0.097656 0.582031 0.304688 1.039062 0.453125 c 1.171875 0.386719 1.773438 0.761719 2.265625 1.40625 c 1.253906 1.640625 -0.207031 2.171875 -6.21875 2.25 c -3.019531 0.039063 -3.722656 0.015625 -5.027344 -0.199219"/><path d="m 11.316406 27.015625 c -1.378906 -0.253906 -1.972656 -0.46875 -2.242187 -0.816406 c -0.308594 -0.386719 -0.230469 -0.699219 0.308593 -1.273438 c 0.523438 -0.554687 1.152344 -0.914062 2.617188 -1.5 c 1.277344 -0.507812 2.1875 -1.207031 2.1875 -1.679687 c 0 -0.152344 -0.222656 -0.453125 -0.511719 -0.707032 l -0.515625 -0.4375 l 0.480469 -0.082031 c 0.566406 -0.09375 1.441406 -0.105469 1.441406 -0.023437 c 0 0.03125 -0.144531 0.269531 -0.320312 0.53125 c -0.480469 0.703125 -0.390625 1.023437 0.382812 1.425781 c 0.402344 0.207031 2.0625 0.515625 3.175781 0.59375 c 0.550782 0.039063 1.070313 0.121094 1.148438 0.183594 c 0.074219 0.058593 0.472656 0.234375 0.878906 0.382812 c 1.167969 0.429688 1.667969 0.726563 2.171875 1.28125 c 1.59375 1.765625 -0.0625 2.3125 -6.929687 2.292969 c -2.164063 -0.003906 -3.703125 -0.066406 -4.273438 -0.171875"/><path d="m 11.953125 27.113281 c -0.78125 -0.101562 -2.148437 -0.4375 -2.496094 -0.617187 c -1.21875 -0.632813 -0.320312 -1.871094 2.078125 -2.875 c 2.007813 -0.839844 2.773438 -1.441406 2.585938 -2.039063 c -0.042969 -0.132812 -0.335938 -0.457031 -0.648438 -0.714843 c -0.796875 -0.648438 -1.054687 -1.0625 -1.210937 -1.902344 c -0.15625 -0.835938 0.007812 -2.441406 0.355469 -3.453125 c 0.238281 -0.699219 1.171874 -1.714844 2.136718 -2.328125 c 0.515625 -0.328125 0.691406 -0.375 1.261719 -0.324219 c 1.421875 0.125 2.628906 1.074219 3.425781 2.699219 c 0.332032 0.671875 0.414063 1.019531 0.460938 1.898437 c 0.078125 1.429688 -0.132813 1.960938 -1.265625 3.179688 c -0.480469 0.523437 -0.875 1.058593 -0.875 1.195312 c 0 0.359375 0.867187 1.042969 1.867187 1.460938 c 2.085938 0.882812 2.363282 1.03125 2.796875 1.507812 c 1.261719 1.402344 0.675781 1.96875 -2.351562 2.269531 c -1.226563 0.121094 -7.257813 0.152344 -8.121094 0.042969 m 7.589844 -9.613281 c -0.070313 -0.128906 -0.1875 -0.277344 -0.265625 -0.324219 c -0.078125 -0.046875 -0.050782 0.054688 0.0625 0.222657 c 0.183594 0.28125 0.183594 0.339843 0 0.621093 l -0.195313 0.3125 l 0.261719 -0.296875 c 0.199219 -0.226562 0.230469 -0.355468 0.136719 -0.535156 m -4.589844 -1.566406 c 0 -0.023438 -0.1875 -0.171875 -0.417969 -0.328125 l -0.414062 -0.289063 l 0.359375 0.328125 c 0.328125 0.304688 0.472656 0.390625 0.472656 0.289063"/><path d="m 11.953125 27.113281 c -0.949219 -0.125 -2.226563 -0.460937 -2.59375 -0.683593 c -0.316406 -0.191407 -0.402344 -0.332032 -0.402344 -0.652344 c 0 -0.699219 0.921875 -1.449219 2.789063 -2.265625 c 1.5625 -0.679688 2.441406 -1.3125 2.441406 -1.746094 c 0 -0.109375 -0.371094 -0.550781 -0.820312 -0.984375 c -0.453126 -0.433594 -0.875 -0.933594 -0.941407 -1.109375 c -0.355469 -0.933594 -0.273437 -2.746094 0.1875 -4.140625 c 0.234375 -0.714844 1.15625 -1.722656 2.140625 -2.347656 c 0.515625 -0.328125 0.691406 -0.375 1.261719 -0.324219 c 1.425781 0.125 2.628906 1.074219 3.429687 2.703125 c 0.339844 0.6875 0.414063 1.011719 0.457032 1.9375 c 0.070312 1.378906 -0.160156 1.980469 -1.164063 3.039062 c -0.933593 0.988282 -1.054687 1.234376 -0.792969 1.628907 c 0.277344 0.429687 0.917969 0.804687 2.449219 1.445312 c 1.421875 0.59375 2.191407 1.164063 2.523438 1.867188 c 0.203125 0.421875 0.203125 0.484375 0.015625 0.769531 c -0.441406 0.675781 -2.722656 0.960938 -7.46875 0.933594 c -1.722656 -0.011719 -3.300782 -0.042969 -3.511719 -0.070313 m 7.589844 -9.617187 c -0.074219 -0.136719 -0.164063 -0.246094 -0.195313 -0.246094 c -0.039062 0 -0.007812 0.105469 0.0625 0.238281 c 0.070313 0.132813 0.085938 0.28125 0.035156 0.339844 c -0.050781 0.054687 -0.019531 0.058594 0.066407 0.007813 c 0.117187 -0.066407 0.125 -0.160157 0.03125 -0.339844"/><path d="m 18.972656 22.710938 c -0.417968 -0.230469 -0.835937 -0.566407 -0.921875 -0.738282 c -0.144531 -0.285156 -0.132812 -0.347656 0.125 -0.546875 c 1.015625 -0.796875 1.257813 -1.058593 1.5625 -1.679687 c 0.859375 -1.753906 0.351563 -4.144532 -1.257812 -5.898438 c -0.625 -0.6875 -0.625 -0.691406 -0.539063 -1.355468 c 0.132813 -0.988282 0.460938 -1.601563 1.289063 -2.417969 c 0.894531 -0.882813 1.589843 -1.246094 2.402343 -1.246094 c 1.867188 0 3.660157 2.3125 3.667969 4.722656 c 0 1.242188 -0.15625 1.625 -1.140625 2.746094 c -1.203125 1.367187 -1.046875 1.90625 0.808594 2.738281 c 2.894531 1.300782 3.507812 1.773438 3.507812 2.691406 c 0 0.484376 -0.03125 0.527344 -0.566406 0.761719 c -0.820312 0.367188 -2.070312 0.5 -5.304687 0.578125 l -2.867188 0.066406"/></g></g></svg>