<svg xmlns="http://www.w3.org/2000/svg" viewBox="0 0 32 32"><path d="m 3.296875 24.480469 c -11.503906 -16.367188 9.742187 -32.949219 23.300781 -19.613281 c 12.769532 12.5625 0.929688 32.082031 -14.960937 25.980468 c -3.320313 -1.273437 -6.226563 -3.363281 -8.339844 -6.367187" style="fill:#ff8c00"/><path d="m 7.136719 7.949219 v 17.726562 h 7.875 v -1.105469 h -6.75 v -12.191406 h 15.75 v 5.542969 h 1.125 v -9.972656 h -2.25 v 2.214843 h -2.25 v -2.214843 h -3.375 v 2.214843 h -2.25 v -2.214843 h -3.375 v 2.214843 h -2.25 v -2.214843 m 2.8125 5.539062 c -1.558594 0 -2.8125 1.234375 -2.8125 2.773438 c 0 0.476562 0.132812 0.921875 0.347656 1.316406 l 0.855469 -0.839844 c -0.046875 -0.15625 -0.078125 -0.3125 -0.078125 -0.476562 c 0 -0.921875 0.75 -1.664063 1.6875 -1.664063 c 0.167969 0 0.328125 0.03125 0.480469 0.078125 l 0.855468 -0.84375 c -0.398437 -0.210937 -0.851562 -0.34375 -1.335937 -0.34375 m 2.460937 1.453125 l -0.855468 0.84375 c 0.046874 0.148438 0.082031 0.304688 0.082031 0.476563 c 0 0.917969 -0.753907 1.660156 -1.6875 1.660156 c -0.171875 0 -0.332031 -0.03125 -0.484375 -0.078125 l -0.855469 0.839844 c 0.398437 0.214844 0.851563 0.34375 1.339844 0.34375 c 1.554687 0 2.8125 -1.234375 2.8125 -2.765625 c 0 -0.484375 -0.132813 -0.929688 -0.351563 -1.320313 m 1.476563 4.085938 v 6.648437 h 9 v -6.648437 m -7.875 1.109375 h 6.75 v 1.109375 h -1.125 v 2.214844 h 1.125 v 1.109374 h -6.75 v -1.109374 h 1.125 v -2.214844 h -1.125 m 3.375 0 c -0.625 0 -1.125 0.492187 -1.125 1.109375 c 0 0.613281 0.5 1.105469 1.125 1.105469 c 0.621093 0 1.125 -0.492188 1.125 -1.105469 c 0 -0.617188 -0.503907 -1.109375 -1.125 -1.109375" style="fill:#fff"/></svg>