<svg xmlns="http://www.w3.org/2000/svg" viewBox="0 0 32 32"><path d="m 27.933594 4.816406 c 18.300781 28.167969 -31.6875 39.074219 -27.707032 10.089844 c 1.625 -11.820312 20.703126 -20.867188 27.707032 -10.089844" style="fill:#1097ec"/><g style="fill:#deffff"><path d="m 14.699219 26.023438 c -0.136719 -0.03125 -0.554688 -0.121094 -0.925781 -0.195313 c -2.980469 -0.601563 -5.875 -3.101563 -7.039063 -6.074219 c -2.148437 -5.484375 0.949219 -11.640625 6.660156 -13.230468 c 5.1875 -1.445313 10.609375 1.617187 12.171875 6.882812 c 0.289063 0.964844 0.339844 1.367188 0.339844 2.714844 c 0 1.34375 -0.050781 1.746094 -0.339844 2.714844 c -1 3.371093 -3.5625 5.925781 -6.890625 6.878906 c -0.90625 0.261718 -3.355469 0.449218 -3.976562 0.308594 m 4.039062 -1.5 c 2.378907 -0.800782 4.101563 -2.316407 5.175781 -4.554688 c 0.714844 -1.480469 0.882813 -2.226562 0.878907 -3.914062 c -0.007813 -2.472657 -0.789063 -4.335938 -2.582031 -6.140626 c -0.914063 -0.917968 -1.273438 -1.179687 -2.277344 -1.664062 c -1.546875 -0.746094 -2.914063 -1.03125 -4.472656 -0.929688 c -4 0.265626 -7.226563 3.039063 -8.089844 6.957032 c -0.285156 1.308594 -0.199219 3.3125 0.199218 4.492187 c 1.066407 3.171875 3.363282 5.253907 6.625 6.007813 c 1.210938 0.28125 3.304688 0.164062 4.546876 -0.253906"/><path d="m 14.515625 19.761719 c -0.945313 -0.375 -1.902344 -1.34375 -2.257813 -2.296875 c -0.753906 -2.011719 0.121094 -4.1875 2.0625 -5.140625 c 0.917969 -0.453125 2.375 -0.441407 3.347657 0.019531 c 2.5625 1.214844 3.164062 4.570312 1.164062 6.507812 c -0.792969 0.769532 -1.574219 1.105469 -2.679687 1.144532 c -0.730469 0.027344 -1.105469 -0.027344 -1.636719 -0.238282 m 2.71875 -1.101562 c 0.28125 -0.128906 0.710937 -0.464844 0.957031 -0.753906 c 0.785156 -0.917969 0.945313 -2.035156 0.4375 -3.121094 c -0.867187 -1.863281 -3.285156 -2.277344 -4.714844 -0.808594 c -0.90625 0.929688 -1.050781 2.464844 -0.339843 3.613282 c 0.71875 1.164062 2.382812 1.652343 3.660156 1.070312"/><path d="m 15.363281 22.699219 c -0.191406 -1.582031 -0.347656 -2.96875 -0.347656 -3.085938 c 0 -0.117187 0.378906 -0.210937 0.84375 -0.210937 c 0.710937 0 0.828125 0.085937 0.738281 0.535156 c -0.058594 0.292969 -0.21875 1.503906 -0.351562 2.683594 c -0.132813 1.179687 -0.308594 2.328125 -0.386719 2.546875 c -0.082031 0.222656 -0.304687 -0.890625 -0.496094 -2.46875"/><path d="m 15.332031 17.636719 c -0.140625 -0.058594 -0.421875 -0.285157 -0.632812 -0.503907 c -0.332031 -0.355468 -0.378907 -0.488281 -0.378907 -1.160156 c 0 -0.714844 0.027344 -0.785156 0.46875 -1.1875 c 0.539063 -0.492187 0.933594 -0.621094 1.550782 -0.507812 c 1.257812 0.238281 1.847656 1.777344 1.0625 2.777344 c -0.488282 0.617187 -1.378906 0.871093 -2.070313 0.582031"/><path d="m 15.148438 12.234375 c 0.019531 -0.492187 0.785156 -5.414063 0.808593 -5.179687 c 0.023438 0.265624 0.617188 4.132812 0.753907 4.898437 c 0.097656 0.570313 0.03125 0.628906 -0.734376 0.628906 c -0.539062 0 -0.835937 -0.125 -0.824218 -0.347656"/><path d="m 19.054688 16.03125 c 0 -1.234375 0.070312 -1.550781 0.339843 -1.554688 c 0.726563 -0.011718 5.878907 1.429688 5.878907 1.429688 c 0.078124 0.128906 -1.285157 0.558594 -3.035157 0.953125 l -3.183593 0.71875"/><path d="m 9.632812 16.753906 c -3.421874 -0.796875 -3.429687 -0.875 -0.15625 -1.5625 c 1.285157 -0.273437 2.488282 -0.554687 2.675782 -0.636718 c 0.316406 -0.128907 0.339844 -0.039063 0.339844 1.351562 c 0 1.015625 -0.0625 1.480469 -0.191407 1.457031 c -0.101562 -0.019531 -1.304687 -0.292969 -2.667969 -0.609375"/></g></svg>