<svg xmlns="http://www.w3.org/2000/svg" viewBox="0 0 32 32" xmlns:xlink="http://www.w3.org/1999/xlink"><defs><linearGradient id="1" gradientUnits="userSpaceOnUse" x1="3254.91" y1="-242.48" x2="2664.16" y2="287.26" gradientTransform="matrix(-0.0205162 0 0 0.0258296 64.217821 6.546216)"><stop style="stop-color:#535353;stop-opacity:0.964706"/><stop offset="1" style="stop-color:#bcbcbc;stop-opacity:0"/></linearGradient></defs><path d="m 29.351562 8.21875 c 16.957032 41.175781 -54.363281 21.832031 -19.734374 -5.058594 c 6.214843 -4.683594 16.648437 -5.046875 19.734374 5.058594"/><path d="m 5.359375 8.390625 h 11.570313 c 0.773437 0 1.394531 0.785156 1.394531 1.757813 v 14.566406 c 0 0.96875 -0.621094 1.753906 -1.394531 1.753906 h -11.570313 c -0.769531 0 -1.394531 -0.785156 -1.394531 -1.753906 v -14.566406 c 0 -0.972657 0.625 -1.757813 1.394531 -1.757813" style="fill-opacity:0.964706"/><path d="m 15.863281 8.390625 c -6.097656 0.625 -11.015625 6.515625 -11.875 14.058594 v -12.300781 c 0 -0.972657 0.621094 -1.757813 1.394531 -1.757813" style="fill:url(#1)"/><g style="fill-opacity:0.988235"><g style="fill:#f4f4f4"><path d="m 7.871094 11.933594 h 0.859375 c 0.441406 0 0.800781 0.386718 0.800781 0.859375 v 10.589843 c 0 0.476563 -0.359375 0.859376 -0.800781 0.859376 h -0.859375 c -0.441406 0 -0.800782 -0.382813 -0.800782 -0.859376 v -10.589843 c 0 -0.472657 0.359376 -0.859375 0.800782 -0.859375"/><path d="m 10.390625 11.933594 h 1.695313 c 0.445312 0 0.800781 0.386718 0.800781 0.859375 v 10.589843 c 0 0.476563 -0.355469 0.859376 -0.800781 0.859376 h -1.695313 c -0.441406 0 -0.800781 -0.382813 -0.800781 -0.859376 v -10.589843 c 0 -0.472657 0.359375 -0.859375 0.800781 -0.859375"/></g><path d="m 8.664062 11.933594 h 1.878907 c 0.328125 0 0.59375 0.285156 0.59375 0.640625 v 7.867187 c 0 0.351563 -0.265625 0.636719 -0.59375 0.636719 h -1.878907 c -0.328124 0 -0.59375 -0.285156 -0.59375 -0.636719 v -7.867187 c 0 -0.355469 0.265626 -0.640625 0.59375 -0.640625" style="fill:#141414"/></g><g style="fill:#fff"><path d="m 7.871094 11.933594 h 0.859375 c 0.441406 0 0.800781 0.386718 0.800781 0.859375 v 10.589843 c 0 0.476563 -0.359375 0.859376 -0.800781 0.859376 h -0.859375 c -0.441406 0 -0.800782 -0.382813 -0.800782 -0.859376 v -10.589843 c 0 -0.472657 0.359376 -0.859375 0.800782 -0.859375"/><path d="m 10.390625 11.933594 h 1.695313 c 0.445312 0 0.800781 0.386718 0.800781 0.859375 v 10.589843 c 0 0.476563 -0.355469 0.859376 -0.800781 0.859376 h -1.695313 c -0.441406 0 -0.800781 -0.382813 -0.800781 -0.859376 v -10.589843 c 0 -0.472657 0.359375 -0.859375 0.800781 -0.859375" style="fill-opacity:0.988235"/></g><path d="m 8.847656 11.933594 h 1.445313 c 0.328125 0 0.59375 0.285156 0.59375 0.640625 v 7.867187 c 0 0.351563 -0.265625 0.636719 -0.59375 0.636719 h -1.445313 c -0.328125 0 -0.59375 -0.285156 -0.59375 -0.636719 v -7.867187 c 0 -0.355469 0.265625 -0.640625 0.59375 -0.640625" id="0"/><g style="fill-opacity:0.988235"><g style="fill:#fff"><path d="m 13.71875 11.933594 h 1.695312 c 0.445313 0 0.800782 0.386718 0.800782 0.859375 v 10.589843 c 0 0.476563 -0.355469 0.859376 -0.800782 0.859376 h -1.695312 c -0.445312 0 -0.800781 -0.382813 -0.800781 -0.859376 v -10.589843 c 0 -0.472657 0.355469 -0.859375 0.800781 -0.859375"/><path d="m 17.050781 11.933594 h 1.699219 c 0.441406 0 0.800781 0.386718 0.800781 0.859375 v 10.589843 c 0 0.476563 -0.359375 0.859376 -0.800781 0.859376 h -1.699219 c -0.441406 0 -0.800781 -0.382813 -0.800781 -0.859376 v -10.589843 c 0 -0.472657 0.359375 -0.859375 0.800781 -0.859375"/></g><g style="fill:#f4f4f4"><path d="m 20.433594 11.933594 h 1.699218 c 0.441407 0 0.800782 0.386718 0.800782 0.859375 v 10.589843 c 0 0.476563 -0.359375 0.859376 -0.800782 0.859376 h -1.699218 c -0.441406 0 -0.800782 -0.382813 -0.800782 -0.859376 v -10.589843 c 0 -0.472657 0.359376 -0.859375 0.800782 -0.859375"/><path d="m 23.792969 11.933594 h 1.695312 c 0.441407 0 0.800781 0.386718 0.800781 0.859375 v 10.589843 c 0 0.476563 -0.359374 0.859376 -0.800781 0.859376 h -1.695312 c -0.445313 0 -0.800781 -0.382813 -0.800781 -0.859376 v -10.589843 c 0 -0.472657 0.355468 -0.859375 0.800781 -0.859375"/></g><path d="m 22.066406 11.933594 h 1.878906 c 0.328126 0 0.59375 0.285156 0.59375 0.640625 v 7.867187 c 0 0.351563 -0.265624 0.636719 -0.59375 0.636719 h -1.878906 c -0.328125 0 -0.59375 -0.285156 -0.59375 -0.636719 v -7.867187 c 0 -0.355469 0.265625 -0.640625 0.59375 -0.640625" style="fill:#141414"/></g><g style="fill:#fff"><path d="m 20.433594 11.933594 h 1.699218 c 0.441407 0 0.800782 0.386718 0.800782 0.859375 v 10.589843 c 0 0.476563 -0.359375 0.859376 -0.800782 0.859376 h -1.699218 c -0.441406 0 -0.800782 -0.382813 -0.800782 -0.859376 v -10.589843 c 0 -0.472657 0.359376 -0.859375 0.800782 -0.859375"/><path d="m 23.792969 11.933594 h 1.695312 c 0.441407 0 0.800781 0.386718 0.800781 0.859375 v 10.589843 c 0 0.476563 -0.359374 0.859376 -0.800781 0.859376 h -1.695312 c -0.445313 0 -0.800781 -0.382813 -0.800781 -0.859376 v -10.589843 c 0 -0.472657 0.355468 -0.859375 0.800781 -0.859375" style="fill-opacity:0.988235"/></g><path d="m 12.207031 11.933594 h 1.441407 c 0.328124 0 0.597656 0.285156 0.597656 0.640625 v 7.867187 c 0 0.351563 -0.269532 0.636719 -0.597656 0.636719 h -1.441407 c -0.328125 0 -0.59375 -0.285156 -0.59375 -0.636719 v -7.867187 c 0 -0.355469 0.265625 -0.640625 0.59375 -0.640625"/><path d="m 15.550781 11.933594 h 1.445313 c 0.328125 0 0.59375 0.285156 0.59375 0.640625 v 7.867187 c 0 0.351563 -0.265625 0.636719 -0.59375 0.636719 h -1.445313 c -0.328125 0 -0.59375 -0.285156 -0.59375 -0.636719 v -7.867187 c 0 -0.355469 0.265625 -0.640625 0.59375 -0.640625"/><path d="m 18.972656 11.933594 h 1.441406 c 0.328126 0 0.59375 0.285156 0.59375 0.640625 v 7.867187 c 0 0.351563 -0.265624 0.636719 -0.59375 0.636719 h -1.441406 c -0.332031 0 -0.597656 -0.285156 -0.597656 -0.636719 v -7.867187 c 0 -0.355469 0.265625 -0.640625 0.597656 -0.640625"/><path d="m 22.175781 11.933594 h 1.445313 c 0.328125 0 0.59375 0.285156 0.59375 0.640625 v 7.867187 c 0 0.351563 -0.265625 0.636719 -0.59375 0.636719 h -1.445313 c -0.328125 0 -0.59375 -0.285156 -0.59375 -0.636719 v -7.867187 c 0 -0.355469 0.265625 -0.640625 0.59375 -0.640625"/><use xlink:href="#0"/></svg>