<svg xmlns="http://www.w3.org/2000/svg" viewBox="0 0 22 22"><path d="m 18.238281 18.246094 c -9.011719 11.164062 -25.277343 -5.179688 -14.886719 -15.058594 c 8.941407 -9.898438 26.296876 5.554688 14.886719 15.058594" style="fill:#ff8c00"/><g style="fill:#fff"><path d="m 7.679688 5.394531 l -2.5 2.6875 h 5 v -2.6875 m 1 0 v 2.6875 h 5 l -2.5 -2.6875 m -8.5 3.582031 v 6.269532 h 7 v -2.238282 h 1.5 v -1.34375 h 2.5 v -2.6875"/><path d="m 14.339844 18.085938 c -0.039063 -0.042969 -0.070313 -0.125 -0.070313 -0.1875 c 0 -0.039063 0.035157 -0.15625 0.097657 -0.34375 c 0.054687 -0.15625 0.097656 -0.300782 0.101562 -0.316407 c 0 -0.023437 -0.027344 -0.054687 -0.105469 -0.121093 c -0.054687 -0.050782 -0.140625 -0.136719 -0.183593 -0.1875 c -0.042969 -0.050782 -0.09375 -0.097657 -0.109376 -0.101563 c -0.015624 -0.007813 -0.136718 0.027344 -0.320312 0.09375 c -0.15625 0.058594 -0.3125 0.105469 -0.339844 0.109375 c -0.058594 0.003906 -0.164062 -0.035156 -0.210937 -0.078125 c -0.039063 -0.035156 -0.316407 -0.679687 -0.320313 -0.746094 c -0.007812 -0.070312 0.035156 -0.171875 0.097656 -0.21875 c 0.023438 -0.023437 0.171876 -0.097656 0.320313 -0.167969 c 0.164063 -0.074218 0.28125 -0.136718 0.285156 -0.152343 c 0.007813 -0.011719 0.007813 -0.082031 0.003907 -0.148438 c -0.007813 -0.066406 -0.007813 -0.183593 -0.003907 -0.257812 c 0.003907 -0.074219 0 -0.148438 -0.007812 -0.160157 c -0.011719 -0.007812 -0.140625 -0.078124 -0.292969 -0.148437 c -0.175781 -0.085937 -0.292969 -0.148437 -0.320312 -0.171875 c -0.058594 -0.054688 -0.101563 -0.167969 -0.089844 -0.230469 c 0.007812 -0.023437 0.078125 -0.199219 0.15625 -0.390625 l 0.148437 -0.34375 l 0.058594 -0.03125 c 0.109375 -0.058594 0.148437 -0.054687 0.492187 0.0625 c 0.195313 0.066406 0.320313 0.101563 0.332032 0.097656 c 0.011718 -0.003906 0.066406 -0.058593 0.125 -0.117187 c 0.054687 -0.0625 0.136718 -0.140625 0.179687 -0.179687 c 0.046875 -0.039063 0.085938 -0.082032 0.09375 -0.09375 c 0.003907 -0.011719 -0.039062 -0.144532 -0.089843 -0.289063 c -0.054688 -0.148437 -0.105469 -0.292969 -0.113282 -0.320313 c -0.019531 -0.082031 -0.007812 -0.164062 0.042969 -0.230468 c 0.035156 -0.050782 0.074219 -0.070313 0.375 -0.195313 c 0.183594 -0.078125 0.363281 -0.144531 0.394531 -0.144531 c 0.074219 -0.007812 0.171875 0.03125 0.222656 0.089844 c 0.019532 0.023437 0.09375 0.164062 0.164063 0.316406 c 0.074219 0.148438 0.136719 0.277344 0.144531 0.285156 c 0.007813 0.011719 0.074219 0.015625 0.164063 0.011719 c 0.085937 -0.003906 0.207031 -0.003906 0.273437 0 c 0.089844 0.007813 0.128906 0 0.148438 -0.015625 c 0.015625 -0.015625 0.085937 -0.148438 0.15625 -0.300781 c 0.140625 -0.285157 0.167968 -0.328125 0.257812 -0.367188 c 0.097656 -0.042969 0.136719 -0.035156 0.519532 0.128907 l 0.347656 0.148437 l 0.039062 0.054687 c 0.066406 0.101563 0.0625 0.144532 -0.050781 0.484376 c -0.054687 0.160156 -0.101563 0.308593 -0.105469 0.324218 c -0.003906 0.023438 0.019532 0.050782 0.097656 0.121094 c 0.058594 0.050781 0.144532 0.140625 0.195313 0.199219 c 0.050781 0.054687 0.097656 0.105469 0.105469 0.109375 c 0.003906 0 0.140625 -0.042969 0.304687 -0.105469 c 0.164063 -0.058594 0.320313 -0.109375 0.355469 -0.109375 c 0.074219 -0.007812 0.167969 0.03125 0.222656 0.089844 c 0.027344 0.03125 0.097656 0.175781 0.179688 0.375 c 0.140625 0.339844 0.148437 0.375 0.105468 0.484375 c -0.03125 0.078125 -0.089843 0.113281 -0.386718 0.253906 c -0.164063 0.074219 -0.296875 0.144531 -0.300782 0.148437 c -0.003906 0.007813 0 0.085938 0.003907 0.175782 c 0.007812 0.085937 0.007812 0.207031 0 0.265625 c -0.007813 0.074219 -0.003907 0.117187 0.011719 0.132812 c 0.011718 0.007813 0.152343 0.082031 0.3125 0.160157 c 0.3125 0.152343 0.359374 0.1875 0.382812 0.285156 c 0.019531 0.09375 0.003906 0.148437 -0.144531 0.496094 l -0.140625 0.332031 l -0.0625 0.039062 c -0.113282 0.070313 -0.132813 0.066407 -0.5 -0.058593 c -0.175782 -0.058594 -0.328125 -0.105469 -0.332032 -0.105469 c -0.007812 0.003906 -0.050781 0.050781 -0.101562 0.105469 c -0.046875 0.054687 -0.136719 0.140624 -0.191406 0.1875 c -0.0625 0.050781 -0.109375 0.101562 -0.109375 0.113281 c -0.003907 0.007812 0.042969 0.144531 0.101562 0.300781 c 0.054688 0.15625 0.105469 0.316406 0.109375 0.351562 c 0.007813 0.082032 -0.019531 0.15625 -0.074218 0.210938 c -0.050782 0.050781 -0.652344 0.304688 -0.734376 0.308594 c -0.070312 0.007812 -0.175781 -0.03125 -0.226562 -0.082032 c -0.019531 -0.019531 -0.09375 -0.164062 -0.171875 -0.320312 c -0.074219 -0.160156 -0.144531 -0.292969 -0.15625 -0.296875 c -0.011719 -0.003906 -0.089844 -0.003906 -0.171875 0 c -0.082031 0.003906 -0.203125 0 -0.269531 -0.003906 c -0.089844 -0.003907 -0.121094 0 -0.136719 0.015625 c -0.007812 0.015625 -0.078125 0.152344 -0.15625 0.308594 c -0.164062 0.339843 -0.195312 0.371093 -0.34375 0.382812 c -0.042969 0.003906 -0.101562 -0.019531 -0.398438 -0.140625 c -0.265624 -0.109375 -0.359374 -0.15625 -0.382812 -0.179687 m 1.152344 -1.339844 c 0.332031 0.097656 0.648437 0.078125 0.964844 -0.050782 c 0.242187 -0.097656 0.429687 -0.246093 0.597656 -0.457031 c 0.105468 -0.136719 0.238281 -0.46875 0.261718 -0.640625 c 0.0625 -0.515625 -0.132812 -0.996094 -0.535156 -1.324218 c -0.09375 -0.078126 -0.125 -0.09375 -0.332031 -0.179688 c -0.203125 -0.082031 -0.246094 -0.097656 -0.355469 -0.109375 c -0.539062 -0.070313 -1.070312 0.164063 -1.371094 0.605469 c -0.269531 0.394531 -0.320312 0.894531 -0.132812 1.339844 c 0.101562 0.238281 0.265625 0.449218 0.476562 0.605468 c 0.058594 0.042969 0.148438 0.09375 0.277344 0.160156 c 0.011719 0.007813 0.078125 0.027344 0.148438 0.050782 m -0.097656 -0.679688 c -0.296876 -0.226562 -0.414063 -0.605468 -0.296876 -0.949218 c 0.082032 -0.246094 0.242188 -0.414063 0.480469 -0.507813 c 0.433594 -0.179687 0.925781 0.019531 1.105469 0.445313 c 0.148438 0.351562 0.0625 0.730468 -0.21875 0.972656 c -0.242188 0.210937 -0.546875 0.265625 -0.851562 0.152344 c -0.105469 -0.039063 -0.152344 -0.0625 -0.21875 -0.113282 m 0.507812 -0.171875 c 0.105469 0.003907 0.257812 -0.054687 0.34375 -0.128906 c 0.058594 -0.050781 0.070312 -0.070313 0.121094 -0.1875 c 0.046875 -0.125 0.050781 -0.132813 0.042968 -0.230469 c -0.023437 -0.191406 -0.117187 -0.324218 -0.296874 -0.410156 c -0.140626 -0.066406 -0.238282 -0.070312 -0.382813 -0.019531 c -0.179687 0.066406 -0.304687 0.210937 -0.328125 0.394531 c -0.023438 0.15625 0.015625 0.285156 0.121094 0.40625 c 0.09375 0.113281 0.222656 0.167969 0.378906 0.175781"/></g></svg>