<svg xmlns="http://www.w3.org/2000/svg" viewBox="0 0 22 22"><path d="m 1.183594 15.628906 c 6.011718 12.195313 23.84375 5.402344 20.4375 -6.96875 c -3.207032 -11.648437 -19.496094 -11.316406 -21.394532 -0.023437 c -0.398437 2.359375 -0.1445308 4.753906 0.957032 6.992187" style="fill:#ff8c00"/><g style="fill:#fff"><path d="m 10.25 8.980469 c -0.410156 0 -0.753906 0.363281 -0.753906 0.707031 v 3.523438 c 0 0.359374 0.234375 0.703124 0.753906 0.703124 h 2.257812 v 1.683594 h 1.503907 v -1.683594 h 2.257812 c 0.484375 0 0.753907 -0.308593 0.753907 -0.703124 v -3.523438 c 0 -0.347656 -0.296876 -0.707031 -0.753907 -0.707031 m -4.519531 1.410156 h 3.015625 c 0.410156 0 0.75 0.273437 0.75 0.703125 v 0.707031 c 0 0.355469 -0.289063 0.703125 -0.75 0.703125 h -3.015625 c -0.464844 0 -0.75 -0.292968 -0.75 -0.703125 v -0.707031 c 0 -0.390625 0.316406 -0.703125 0.75 -0.703125 m -1.5 4.941406 v 1.40625 h 6.019531 v -1.40625"/><path d="m 5.730469 5.445312 c -0.75 0 -0.75 0.703126 -0.75 0.703126 v 4.230468 c 0 0 0 0.707032 0.75 0.707032 h 2.261719 v 1.394531 h -2.261719 v 1.410156 h 3.011719 v -4.21875 h -1.503907 c -0.414062 0 -0.75 -0.324219 -0.75 -0.703125 v -1.40625 c 0 -0.402344 0.335938 -0.707031 0.75 -0.707031 h 3.011719 c 0.449219 0 0.753906 0.296875 0.753906 0.707031 v 0.703125 h 1.503906 v -2.117187 c 0 -0.707032 -0.753906 -0.707032 -0.753906 -0.707032"/></g></svg>