<svg xmlns="http://www.w3.org/2000/svg" viewBox="0 0 22 22"><path d="m 0.28125 13.515625 c 4.292969 20.621094 33.84375 -1.511719 16.09375 -11.992187 c -6.898438 -4.492188 -18.304688 1.390624 -16.09375 11.992187" style="fill:#ff8c00"/><path d="m 12.734375 10.804688 c 0 1.207031 -0.933594 2.1875 -2.085937 2.1875 c -1.152344 0 -2.089844 -0.980469 -2.089844 -2.1875 c 0 -1.210938 0.9375 -2.191407 2.089844 -2.191407 c 1.152343 0 2.085937 0.980469 2.085937 2.191407" style="fill:#fff"/><path d="m 66.000076 44.997203 c 0 11.603563 -9.397167 21.003349 -20.994339 21.003349 c -11.597172 0 -21.010053 -9.399786 -21.010053 -21.003349 c 0 -11.603563 9.412881 -21.003349 21.010053 -21.003349 c 11.597172 0 20.994339 9.399786 20.994339 21.003349" transform="matrix(0.248579 0 0 0.260561 -0.53904 -0.923741)" style="fill:none;stroke:#fff;stroke-linejoin:round;stroke-width:4.2"/><g style="fill:#fff"><path d="m 9.777344 3.140625 l 1.738281 -0.546875 v 2.734375 h -1.738281"/><path d="m 11.515625 18.460938 h -1.738281 v -2.1875 h 1.738281"/><path d="m 17.957031 9.890625 v 1.824219 h -2.089843 v -1.824219"/><path d="m 3.339844 11.714844 v -1.824219 h 2.089844 v 1.824219"/></g></svg>