<svg xmlns="http://www.w3.org/2000/svg" viewBox="0 0 22 22"><path d="m 16.65625 1.605469 c 19.367188 16.621093 -20.449219 32.601562 -16.359375 6.898437 c 0.898437 -5.640625 11.140625 -11.378906 16.359375 -6.898437" style="fill:#9782c1"/><g transform="scale(0.0859375)" style="fill:#fff;stroke:#fff;stroke-width:1.087"><path d="m 83 84.227273 c -9.090909 29.909091 -18.318182 59.863636 -27.136364 89.818182 c 3.136364 3.136363 9 0.136363 12.954546 0.90909 c 3.272727 -7.181818 4.454545 -15.681818 6.954545 -23.40909 c 10.227273 0 20.409091 0 30.590909 0 c 2.590909 7.681818 3.772728 16.227272 7.136364 23.40909 c 3.454545 -0.863636 10.272727 2.636364 12.227273 -1.636363 c -8.227273 -29.818182 -17.454546 -59.590909 -26.590909 -89.045455 c -5.181819 -0.818182 -11.181819 -1 -16.136364 -0.045454 m 8.727273 15.5 c 4.045454 13.409091 7.409091 27 11.363636 40.454545 c -7.909091 -0.272727 -15.954545 0.590909 -23.818182 -0.590909 c 4.090909 -13.772727 7.318182 -27.818182 11.954546 -41.409091 l 0.318182 1.045455"/><path d="m 138.909091 105.409091 c -3.090909 -0.545455 -6.863636 1.045454 -4.090909 4.590909 c 7.545454 21.363636 14.227273 43.227273 22.863636 64.181818 c 4.045455 2.909091 9.863637 0.090909 14.454546 0.772727 c 8.818181 -21.681818 16 -44.590909 23.863636 -66.863636 c 0.818182 -4.318182 -6.681818 -2 -9.045455 -2.681818 c -5.818181 0.863636 -4.863636 10.454545 -7.818181 14.954545 c -4.590909 13.272728 -8.863637 26.681819 -13.863637 39.772728 c -7.681818 -17.818182 -12.5 -37.136364 -20 -54.727273 c -2.136363 0 -4.227272 0 -6.363636 0"/></g></svg>