<svg xmlns="http://www.w3.org/2000/svg" viewBox="0 0 22 22"><path d="m 16.65625 1.605469 c 19.367188 16.621093 -20.449219 32.601562 -16.359375 6.898437 c 0.898437 -5.640625 11.140625 -11.378906 16.359375 -6.898437" style="fill:#9782c1"/><g transform="scale(0.0859375)" style="fill:#fff;stroke:#fff;stroke-width:1.087"><path d="m 96.272727 81.863636 c -15.545454 -0.727272 -29.545454 10.772728 -33.272727 25.636364 c -4.863636 18.863636 -4.863636 41.727273 8.363636 57.318182 c 12.090909 14.454545 36.136364 13.5 49.681819 1.681818 c 0.727272 -12.681818 0.090909 -25.727273 0.318181 -38.545455 c -7.545454 -1.954545 -16.636363 -0.227272 -24.727272 -0.818181 c -2.909091 5.818181 -0.590909 13.045454 7.318181 10.590909 c 8 -1.636364 3.318182 9.045454 4.772728 13.818182 c -0.045455 4.590909 1.954545 10.727272 -4.090909 11.590909 c -9.590909 2.909091 -22.272728 0.318181 -26.181819 -10.136364 c -6.636363 -15.454545 -6.363636 -33.954545 0.272728 -49.363636 c 6.136363 -13.136364 24.136363 -13.318182 34.590909 -5.590909 c 7.409091 6.681818 4.090909 -6 4.772727 -10.045455 c -6.136364 -4.318182 -14.181818 -6.318182 -21.818182 -6.181818"/><path d="m 163.5 104.363636 c -7.5 0.590909 -16.136364 0.636364 -22.272727 5.272728 c -1.090909 3.090909 -1.727273 7.954545 0.727272 10.363636 c 10.318182 -3.636364 22.409091 -8.136364 33 -2.863636 c 4.5 2.681818 5.363637 8.318181 5.818182 13.045454 c -13.181818 1.409091 -29.909091 -2.409091 -39.772727 8.954546 c -9.272727 11.136363 -5.090909 32.136363 10.227273 35.363636 c 10.181818 2.5 22.090909 0.681818 28.772727 -8.136364 c -0.181818 3.727273 1.045455 11.136364 9.136364 8.045455 c 8 1.227273 2.454545 -10.363636 3.954545 -14.954546 c -0.863636 -13.818181 1 -28.090909 -2.136364 -41.636363 c -5.181818 -10.409091 -16.545454 -14.181818 -27.454545 -13.454546 m 16.5 41.090909 c 0.727273 10.954546 -9.181818 20.727273 -20.045455 19.59091 c -7.772727 -0.136364 -13.636363 -8.045455 -11 -15.545455 c 2.909091 -9.681818 15.181819 -8.681818 23.272728 -9.136364 c 4.954545 0.227273 9.772727 -2.318181 7.727272 5.090909"/></g></svg>