<svg xmlns="http://www.w3.org/2000/svg" viewBox="0 0 22 22"><path d="m 6.335938 0.171875 c 31.351562 -2.207031 7.851562 40.351563 -5.464844 12.328125 c -1.835938 -4.316406 -0.496094 -10.757812 5.464844 -12.328125" style="fill:#62c0dc"/><path d="m 11.8125 14.609375 l -0.703125 -1.417969 l -1.21875 -2.441406 l -1.328125 2.542969 l -0.640625 1.230469 l -0.613281 -1.238282 l -2.101563 -4.285156 h -2.160156 v -0.886719 h 3.117187 l 0.148438 0.304688 l 1.640625 3.355469 l 1.328125 -2.542969 l 0.644531 -1.21875 l 0.605469 1.226562 l 1.125 2.257813 l 1.878906 -4.8125 l 0.59375 -1.519532 l 0.675782 1.503907 l 1.929687 4.277343 h 2.140625 v 0.882813 h -3.125 l -0.148438 -0.3125 l -1.382812 -3.085937 l -1.847656 4.734374" style="fill:#fff"/></svg>