<svg xmlns="http://www.w3.org/2000/svg" viewBox="0 0 22 22"><path d="m 0.28125 13.515625 c 4.292969 20.621094 33.84375 -1.511719 16.09375 -11.992187 c -6.898438 -4.492188 -18.304688 1.390624 -16.09375 11.992187" style="fill:#ab70ff"/><g style="fill:#fff;fill-rule:evenodd"><path d="m 7.84375 4.339844 c -0.398438 0 -0.722656 0.320312 -0.722656 0.722656 v 0.726562 h -0.183594 c -0.703125 0 -1.265625 0.566407 -1.265625 1.265626 v 0.183593 h -0.726563 c -0.398437 0 -0.722656 0.320313 -0.722656 0.722657 c 0 0.398437 0.324219 0.722656 0.722656 0.722656 h 0.726563 v 1.449218 h -0.726563 c -0.398437 0 -0.722656 0.324219 -0.722656 0.726563 c 0 0.398437 0.324219 0.722656 0.722656 0.722656 h 0.726563 v 1.449219 h -0.726563 c -0.398437 0 -0.722656 0.324219 -0.722656 0.722656 c 0 0.402344 0.324219 0.726563 0.722656 0.726563 h 0.726563 v 0.179687 c 0 0.703125 0.566406 1.269532 1.265625 1.269532 h 0.183594 v 0.722656 c 0 0.402344 0.324218 0.726562 0.722656 0.726562 c 0.402344 0 0.726562 -0.324218 0.726562 -0.726562 v -0.722656 h 1.445313 v 0.722656 c 0 0.402344 0.324219 0.726562 0.726563 0.726562 c 0.402343 0 0.726562 -0.324218 0.726562 -0.726562 v -0.722656 h 1.445312 v 0.722656 c 0 0.402344 0.324219 0.726562 0.726563 0.726562 c 0.402344 0 0.722656 -0.324218 0.722656 -0.726562 v -0.722656 h 0.183594 c 0.703125 0 1.265625 -0.566407 1.265625 -1.269532 v -0.179687 h 0.726562 c 0.398438 0 0.722657 -0.324219 0.722657 -0.726563 c 0 -0.398437 -0.324219 -0.722656 -0.722657 -0.722656 h -0.726562 v -1.449219 h 0.726562 c 0.398438 0 0.722657 -0.324219 0.722657 -0.722656 c 0 -0.402344 -0.324219 -0.726563 -0.722657 -0.726563 h -0.726562 v -1.449218 h 0.726562 c 0.398438 0 0.722657 -0.324219 0.722657 -0.722656 c 0 -0.402344 -0.324219 -0.722657 -0.722657 -0.722657 h -0.726562 v -0.183593 c 0 -0.703126 -0.566406 -1.265626 -1.265625 -1.265626 h -0.183594 v -0.726562 c 0 -0.402344 -0.320312 -0.722656 -0.722656 -0.722656 c -0.402344 0 -0.726563 0.320312 -0.726563 0.722656 v 0.726562 h -1.445312 v -0.726562 c 0 -0.402344 -0.324219 -0.722656 -0.726562 -0.722656 c -0.402344 0 -0.726563 0.320312 -0.726563 0.722656 v 0.726562 h -1.445313 v -0.726562 c 0 -0.402344 -0.324218 -0.722656 -0.726562 -0.722656 m -0.109375 2.898437 h 6.019531 c 0.335938 0 0.609375 0.273438 0.609375 0.609375 v 6.023438 c 0 0.332031 -0.273437 0.609375 -0.609375 0.609375 h -6.019531 c -0.335937 0 -0.613281 -0.277344 -0.613281 -0.609375 v -6.023438 c 0 -0.335937 0.277344 -0.609375 0.613281 -0.609375"/><path d="m 8.277344 9.160156 h 4.929687 c 0.238281 0 0.433594 0.152344 0.433594 0.34375 v 3.90625 c 0 0.191406 -0.195313 0.34375 -0.433594 0.34375 h -4.929687 c -0.238282 0 -0.433594 -0.152344 -0.433594 -0.34375 v -3.90625 c 0 -0.191406 0.195312 -0.34375 0.433594 -0.34375"/></g></svg>