<svg xmlns="http://www.w3.org/2000/svg" viewBox="0 0 22 22"><path d="m 18.238281 18.246094 c -9.011719 11.164062 -25.277343 -5.179688 -14.886719 -15.058594 c 8.941407 -9.898438 26.296876 5.554688 14.886719 15.058594" style="fill:#ff8c00"/><path d="m 11.0625 3.148438 l 0.285156 0.140624 c 0.160156 0.082032 0.558594 0.265626 0.890625 0.417969 c 2.058594 0.933594 3.574219 2.261719 4.546875 3.976563 c 0.710938 1.25 1.011719 2.988281 0.832032 4.769531 c -0.078126 0.800781 -0.210938 1.382813 -0.492188 2.160156 c -0.617188 1.699219 -1.496094 2.742188 -2.957031 3.5 c -0.652344 0.34375 -1.308594 0.546875 -1.972657 0.621094 c -0.507812 0.054687 -1.628906 0.003906 -2.140624 -0.097656 c -0.238282 -0.046875 -0.554688 -0.160157 -1.015626 -0.363281 c -0.738281 -0.324219 -1.101562 -0.558594 -1.699218 -1.09375 c -0.417969 -0.375 -1.238282 -1.347657 -1.519532 -1.804688 c -0.285156 -0.46875 -0.605468 -1.316406 -0.78125 -2.074219 c -0.085937 -0.367187 -0.265624 -1.074219 -0.402343 -1.578125 c -0.246094 -0.917968 -0.355469 -1.582031 -0.289063 -1.789062 c 0.058594 -0.183594 0.238282 -0.332032 0.441406 -0.355469 c 0.25 -0.039063 0.738282 0.03125 1.742188 0.238281 c 0.714844 0.148438 0.921875 0.210938 1.597656 0.484375 c 0.675782 0.277344 0.851563 0.367188 1.382813 0.714844 c 0.867187 0.5625 1.523437 1.074219 2.210937 1.726563 c 0.835938 0.789062 0.980469 0.898437 1.210938 0.914062 l 0.1875 0.011719 l -0.511719 -0.609375 c -0.675781 -0.796875 -0.929687 -1.226563 -1.320313 -2.199219 c -0.632812 -1.578125 -0.894531 -2.78125 -0.863281 -3.9375 c 0.015625 -0.605469 0.21875 -2.613281 0.304688 -2.980469 c 0.039062 -0.183594 0.125 -0.414062 0.203125 -0.550781 l 0.128906 -0.238281" style="fill:#fff"/></svg>