<svg xmlns="http://www.w3.org/2000/svg" viewBox="0 0 22 22"><path d="m 19.441406 4.015625 c 5.351563 8.230469 1.035156 15.726563 -5.027344 17.503906 c -8.148437 2.394531 -19.210937 -3.894531 -11.921874 -16.851562 c 2.898437 -5.148438 13.136718 -6.515625 16.949218 -0.652344" style="fill:#f00"/><path d="m 9.445312 4.488281 c -3.171874 0 -5.738281 2.746094 -5.738281 6.128907 c 0 3.382812 2.566407 6.125 5.738281 6.125 c 1.222657 0 2.414063 -0.417969 3.394532 -1.191407 l 0.703125 -0.746093 l -1.015625 -1.085938 c -0.28125 -0.296875 -0.28125 -0.785156 0 -1.082031 l 1.015625 -1.082031 c 0.128906 -0.140626 0.308593 -0.222657 0.496093 -0.226563 c 0.191407 -0.003906 0.378907 0.078125 0.519532 0.226563 l 0.464844 0.496093 c 0.105468 -0.46875 0.164062 -0.949219 0.164062 -1.433593 c 0 -3.382813 -2.570312 -6.128907 -5.742188 -6.128907 m -1.433593 2.300781 c 0.433593 0 0.90625 0.046876 1.3125 0.191407 c 0.203125 0.070312 0.390625 0.160156 0.550781 0.3125 c 0.066406 0.058593 0.070312 0.175781 0.117188 0.261719 h 0.53125 c 0.195312 0 0.359374 0.171874 0.359374 0.382812 v 0.382812 c 0.144532 0 0.226563 0.007813 0.859376 0 c 0.269531 -0.003906 0.4375 -0.003906 0.636718 0 c 0.152344 -0.457031 0.558594 -0.765624 1.015625 -0.765624 c 0.59375 0 1.074219 0.511718 1.074219 1.148437 c 0 0.632813 -0.480469 1.148437 -1.074219 1.148437 c -0.039062 0 -0.078125 -0.003906 -0.117187 -0.007812 c -0.496094 0.664062 -1.175782 1.191406 -1.683594 1.707031 l 0.007812 0.207031 c 0 0.101563 -0.039062 0.203126 -0.105468 0.277344 c -0.066406 0.074219 -0.164063 0.113282 -0.261719 0.113282 c -0.320313 -0.003907 -0.359375 0.070312 -0.34375 0.050781 c 0.007813 -0.023438 -0.015625 0.066406 0.054687 0.261719 c 0.066407 0.195312 0.195313 0.449218 0.324219 0.710937 c 0.128907 0.257813 0.257813 0.519531 0.320313 0.804687 c 0.023437 0.113282 0 0.234376 -0.070313 0.324219 c -0.066406 0.09375 -0.171875 0.144531 -0.28125 0.144531 h -2.152343 c -0.953126 -0.003906 -2.867188 0 -2.867188 0 c -0.136719 0 -0.261719 -0.082031 -0.324219 -0.210937 c -0.058593 -0.132813 -0.046875 -0.289063 0.039063 -0.402344 c 0.195312 -0.277343 0.382812 -0.800781 0.511718 -1.347656 c 0.09375 -0.390625 0.160157 -0.769531 0.214844 -1.117187 c -0.046875 -0.007813 -0.101562 -0.023438 -0.15625 -0.054688 c -0.117187 -0.066406 -0.242187 -0.261719 -0.234375 -0.433594 c 0.003907 -0.113281 0.015625 -0.105468 0.019531 -0.121094 c 0.003907 -0.015624 0.003907 -0.023437 0.003907 -0.03125 c -0.300781 -0.449218 -0.433594 -1.042968 -0.433594 -1.570312 c 0 -0.671875 0.296875 -1.261719 0.703125 -1.679688 c 0.40625 -0.421874 0.921875 -0.6875 1.449219 -0.6875 m 0 0.765626 c -0.28125 0 -0.660157 0.171874 -0.949219 0.472656 c -0.292969 0.296875 -0.488281 0.703125 -0.488281 1.128906 c 0 0.382812 0.164062 0.957031 0.335937 1.183594 c 0.023438 0.03125 0.042969 0.066406 0.054688 0.101562 c 0.019531 0.054688 0.007812 0.089844 0.015625 0.136719 c 0.097656 -0.011719 0.191406 -0.023437 0.398437 -0.09375 c 0.246094 -0.101563 0.460938 -0.214844 0.664063 -0.335937 c 0.070312 -0.042969 0.136719 -0.089844 0.207031 -0.136719 c 0.148438 -0.101563 0.292969 -0.203125 0.417969 -0.316407 c 0.230469 -0.222656 0.417969 -0.496093 0.621093 -0.761718 c 0.066407 -0.125 0.132813 -0.25 0.1875 -0.382813 c 0.054688 -0.140625 0.183594 -0.230469 0.328126 -0.230469 c -0.199219 0 -0.359376 -0.171874 -0.359376 -0.382812 c 0 -0.023438 0.007813 -0.023438 -0.042968 -0.070312 c -0.050782 -0.046876 -0.15625 -0.109376 -0.300782 -0.160157 c -0.292968 -0.101562 -0.714843 -0.152343 -1.089843 -0.152343 m 2.570312 1.53125 c -0.019531 0.003906 -0.039062 0.003906 -0.0625 0.003906 l -0.367187 -0.003906 c -0.0625 0.042968 -0.140625 0.109374 -0.238282 0.238281 c -0.226562 0.289062 -0.503906 0.773437 -0.988281 1.140625 c -0.453125 0.34375 -0.828125 0.527344 -1.128906 0.652344 c -0.054687 0.027343 -0.101563 0.0625 -0.160156 0.085937 c -0.007813 0.003906 -0.015625 0.007813 -0.023438 0.007813 c -0.046875 0.015624 -0.078125 0.023437 -0.125 0.035156 c -0.019531 0.007812 -0.074219 0.035156 -0.089843 0.039062 c -0.0625 0.390625 -0.132813 0.875 -0.257813 1.390625 c -0.085937 0.367188 -0.253906 0.675781 -0.394531 1.003907 c 0.496094 0 1.5625 -0.003907 2.34375 0 h 1.609375 c -0.027344 -0.058594 -0.035157 -0.089844 -0.066407 -0.152344 c -0.121093 -0.25 -0.261718 -0.523438 -0.359374 -0.800782 c -0.097657 -0.277343 -0.179688 -0.605468 0 -0.925781 c 0.113281 -0.199219 0.378906 -0.199219 0.601562 -0.261719 l -0.003906 -0.148437 c 0 -0.105469 0.039062 -0.203125 0.105468 -0.277344 c 0.546876 -0.585937 1.164063 -1.132812 1.597657 -1.667969 c -0.085938 -0.105468 -0.152344 -0.226562 -0.195313 -0.359374 c -0.199218 0 -0.371094 -0.003907 -0.628906 0 c -0.84375 0.007812 -1.128906 0 -1.167969 0 m 3.46875 3.007812 l -1.015625 1.085938 l 1.523438 1.625 l -1.523438 1.621093 l 1.015625 1.085938 l 1.519531 -1.625 l 1.523438 1.625 l 1.015625 -1.085938 l -1.523437 -1.621093 l 1.523437 -1.625 l -1.015625 -1.085938 l -1.523438 1.625" style="fill:#fff"/></svg>