<svg xmlns="http://www.w3.org/2000/svg" viewBox="0 0 22 22"><path d="m 0.28125 13.515625 c 4.292969 20.621094 33.84375 -1.511719 16.09375 -11.992187 c -6.898438 -4.492188 -18.304688 1.390624 -16.09375 11.992187" style="fill:#ff8c00"/><path d="m 5.660156 5.210938 c -0.710937 -0.011719 -1.1875 0.167968 -1.429687 0.496093 c -0.257813 0.339844 -0.386719 0.902344 -0.386719 1.683594 v 6.144531 c 0 0.78125 0.128906 1.34375 0.386719 1.6875 c 0.242187 0.328125 0.71875 0.496094 1.429687 0.496094 h 9.421875 c 0.707031 0 1.183594 -0.167969 1.425781 -0.496094 c 0.257813 -0.34375 0.386719 -0.90625 0.386719 -1.6875 v -6.144531 c 0 -0.78125 -0.128906 -1.34375 -0.386719 -1.683594 c -0.242187 -0.328125 -0.71875 -0.496093 -1.425781 -0.496093 m -5.539062 2.074218 v 5.042969 h 2.839843 v 1.328125 h -4.023437 v -6.363281" style="fill:#fff"/></svg>