<svg xmlns="http://www.w3.org/2000/svg" viewBox="0 0 22 22"><path d="m 19.179688 3.480469 c 12.472656 19.039062 -21.601563 26.40625 -18.886719 6.820312 c 1.105469 -7.988281 14.113281 -14.105469 18.886719 -6.820312" style="fill:#ff4500"/><path d="m 5.316406 6.210938 c -0.328125 0 -0.589844 0.234374 -0.589844 0.527343 v 9.457031 c 0 0.289063 0.261719 0.527344 0.589844 0.527344 h 9.011719 v -2.628906 h -1.480469 v -3.285156 h -0.734375 v 3.285156 h -1.480469 v -3.285156 h -0.738281 v 3.285156 h -1.476562 v -5.253906 h 5.910156 v 2.625 h 2.214844 v -4.726563 c 0 -0.292969 -0.265625 -0.527343 -0.59375 -0.527343 m -9.746094 2.628906 h 1.476563 v 3.28125 h -1.476563 m 8.863281 0 v 4.601562 h 0.738282 v -1.308594 l 0.738281 -0.003906 v 0.65625 h 0.738281 v -0.65625 l 0.738281 -0.003906 v -3.285156 m -0.738281 3.945312 v 0.65625 h 0.738281 v -0.65625 m -11.816406 -3.285156 h 1.476563 v 1.3125 h -1.476563 m 9.601563 -1.3125 h 1.476562 v 1.96875 h -1.476562" style="fill:#fff"/></svg>