<svg xmlns="http://www.w3.org/2000/svg" viewBox="0 0 22 22"><path d="m 2.542969 18.183594 c -5.351563 -8.230469 -1.035157 -15.726563 5.023437 -17.503906 c 8.152344 -2.394532 19.214844 3.894531 11.925782 16.851562 c -2.898438 5.148438 -13.136719 6.511719 -16.949219 0.652344" style="fill:#ff8c00"/><path d="m 10.953125 5.003906 c -1.496094 0 -2.867187 0.515625 -3.949219 1.382813 l -1.273437 -1.269531 l -0.988281 0.984374 l 1.273437 1.273438 c -0.867187 1.082031 -1.382813 2.457031 -1.382813 3.949219 c 0 3.492187 2.828126 6.320312 6.320313 6.320312 c 3.492187 0 6.320313 -2.828125 6.320313 -6.320312 c 0 -1.492188 -0.515626 -2.867188 -1.382813 -3.949219 l 1.273437 -1.273438 l -0.988281 -0.984374 l -1.273437 1.269531 c -1.082032 -0.867188 -2.457032 -1.382813 -3.949219 -1.382813 m 0 1.40625 c 2.714844 0 4.917969 2.203125 4.917969 4.914063 c 0 2.71875 -2.203125 4.917969 -4.917969 4.917969 c -2.714844 0 -4.917969 -2.199219 -4.917969 -4.917969 c 0 -2.710938 2.203125 -4.914063 4.917969 -4.914063 m 0 0.703125 v 4.210938 l -0.875 -4.121094 c -2.195313 0.46875 -3.636719 2.570313 -3.285156 4.785156 c 0.351562 2.210938 2.371093 3.761719 4.601562 3.527344 c 2.226563 -0.234375 3.882813 -2.171875 3.765625 -4.410156 c -0.117187 -2.238281 -1.964844 -3.992188 -4.207031 -3.992188" style="fill:#fff"/></svg>