<svg xmlns="http://www.w3.org/2000/svg" viewBox="0 0 22 22"><path d="m 1.246094 15.558594 c 5.980468 12.027344 23.730468 5.324218 20.339844 -6.871094 c -3.195313 -11.492188 -19.40625 -11.164062 -21.296876 -0.023438 c -0.398437 2.324219 -0.140624 4.6875 0.957032 6.894532" style="fill:#ff8c00"/><path d="m 16.652344 14.054688 c -0.929688 1.546874 -2.503906 2.640624 -4.324219 2.996093 c -0.03125 0.085938 -0.074219 0.171875 -0.121094 0.25 c -0.449219 0.746094 -1.441406 1.003907 -2.214843 0.574219 c -0.371094 -0.207031 -0.640626 -0.546875 -0.753907 -0.941406 c -0.507812 -0.136719 -0.996093 -0.335938 -1.457031 -0.589844 c -1.195312 -0.667969 -2.140625 -1.691406 -2.691406 -2.914062 c -0.261719 -0.007813 -0.519532 -0.078126 -0.75 -0.203126 c -0.773438 -0.433593 -1.039063 -1.390624 -0.59375 -2.136718 c 0.1875 -0.308594 0.476562 -0.546875 0.820312 -0.675782 c 0.074219 -0.921874 0.363282 -1.816406 0.839844 -2.617187 c 1.160156 -1.933594 3.304688 -3.125 5.621094 -3.121094 c 0.007812 -0.019531 0.015625 -0.039062 0.03125 -0.058593 c 0.445312 -0.746094 1.4375 -1.003907 2.214844 -0.570313 c 0.503906 0.28125 0.8125 0.804687 0.808593 1.367187 c 0.0625 0.027344 0.128907 0.058594 0.191407 0.09375 c 3.105468 1.726563 4.167968 5.554688 2.375 8.546876 m -0.933594 -0.519532 c 1.492187 -2.496094 0.605468 -5.683594 -1.980469 -7.125 l -0.019531 -0.007812 c -0.320313 0.363281 -0.792969 0.574218 -1.289063 0.558594 l -1.355469 3.414062 c 0.597657 0.492188 0.746094 1.320312 0.355469 1.976562 c -0.152343 0.253907 -0.375 0.457032 -0.640625 0.59375 l 0.320313 2.039063 c 0.179687 0.03125 0.351562 0.09375 0.507812 0.179687 c 0.332031 0.183594 0.582031 0.476563 0.714844 0.820313 c 1.425781 -0.339844 2.648437 -1.222656 3.386719 -2.449219 m -5.679688 1.605469 l -0.320312 -2.035156 c -0.175782 -0.035157 -0.347656 -0.09375 -0.503906 -0.179688 c -0.304688 -0.171875 -0.542969 -0.429687 -0.679688 -0.742187 l -1.816406 0.113281 c -0.035156 0.125 -0.089844 0.246094 -0.15625 0.359375 c -0.109375 0.179688 -0.257813 0.34375 -0.433594 0.46875 c 0.46875 0.96875 1.238281 1.78125 2.199219 2.316406 c 0.320312 0.175782 0.65625 0.320313 1.003906 0.429688 c 0.023437 -0.042969 0.042969 -0.089844 0.070313 -0.132813 c 0.152343 -0.25 0.375 -0.457031 0.640624 -0.59375 m 0.019532 -5.136719 l 1.351562 -3.414062 c -0.273437 -0.226562 -0.460937 -0.535156 -0.535156 -0.875 c -1.875 0.050781 -3.589844 1.035156 -4.53125 2.601562 c -0.375 0.632813 -0.609375 1.335938 -0.6875 2.0625 c 0.105469 0.035157 0.210938 0.078126 0.308594 0.132813 c 0.304687 0.171875 0.542968 0.429687 0.679687 0.742187 l 1.816407 -0.117187 c 0.035156 -0.121094 0.085937 -0.242187 0.152343 -0.355469 c 0.296875 -0.496094 0.851563 -0.792968 1.445313 -0.777344" style="fill:#fff"/></svg>