
<svg xmlns="http://www.w3.org/2000/svg" xmlns:xlink="http://www.w3.org/1999/xlink" width="22px" height="22px" viewBox="0 0 22 22" version="1.1">
<g id="surface1">
<path style=" stroke:none;fill-rule:nonzero;fill:rgb(49.803922%,49.803922%,49.803922%);fill-opacity:1;" d="M 19.734375 16.828125 C 27.644531 5.578125 13.035156 -5.824219 3.714844 3.34375 C -5.0625 11.984375 3.074219 25.402344 14 21.207031 C 16.28125 20.332031 18.28125 18.894531 19.734375 16.832031 Z M 19.734375 16.828125 "/>
<path style=" stroke:none;fill-rule:nonzero;fill:rgb(92.54902%,92.54902%,92.54902%);fill-opacity:1;" d="M 15.714844 6.910156 C 16.207031 6.910156 16.625 7.070312 16.972656 7.386719 C 17.324219 7.707031 17.496094 8.089844 17.496094 8.539062 L 17.496094 14.25 C 17.496094 14.703125 17.324219 15.085938 16.972656 15.40625 C 16.625 15.726562 16.207031 15.882812 15.714844 15.882812 L 5.914062 15.882812 C 5.421875 15.882812 5 15.722656 4.652344 15.40625 C 4.304688 15.085938 4.128906 14.703125 4.128906 14.25 L 4.128906 8.539062 C 4.128906 8.09375 4.304688 7.707031 4.652344 7.386719 C 5 7.070312 5.421875 6.910156 5.914062 6.910156 L 7.472656 6.910156 L 7.828125 6.042969 C 7.917969 5.835938 8.074219 5.652344 8.3125 5.503906 C 8.542969 5.355469 8.785156 5.28125 9.03125 5.28125 L 12.59375 5.28125 C 12.84375 5.28125 13.082031 5.355469 13.316406 5.503906 C 13.546875 5.652344 13.710938 5.835938 13.800781 6.042969 L 14.15625 6.910156 Z M 10.8125 14.246094 C 11.671875 14.246094 12.40625 13.96875 13.015625 13.410156 C 13.628906 12.851562 13.933594 12.175781 13.933594 11.390625 C 13.933594 10.605469 13.628906 9.929688 13.015625 9.375 C 12.40625 8.816406 11.671875 8.535156 10.8125 8.535156 C 9.957031 8.535156 9.21875 8.816406 8.609375 9.375 C 8 9.929688 7.695312 10.605469 7.695312 11.390625 C 7.695312 12.175781 8 12.851562 8.609375 13.410156 C 9.21875 13.96875 9.957031 14.246094 10.8125 14.246094 Z M 10.8125 14.246094 "/>
<path style=" stroke:none;fill-rule:nonzero;fill:rgb(92.54902%,92.54902%,92.54902%);fill-opacity:1;" d="M 12.871094 11.398438 C 12.871094 12.460938 11.953125 13.328125 10.8125 13.328125 C 9.679688 13.328125 8.757812 12.460938 8.757812 11.398438 C 8.757812 10.335938 9.675781 9.46875 10.8125 9.46875 C 11.949219 9.46875 12.871094 10.335938 12.871094 11.398438 Z M 12.871094 11.398438 "/>
</g>
</svg>
