
<svg xmlns="http://www.w3.org/2000/svg" xmlns:xlink="http://www.w3.org/1999/xlink" width="22px" height="22px" viewBox="0 0 22 22" version="1.1">
<defs>
<radialGradient id="radial0" gradientUnits="userSpaceOnUse" cx="4.060667" cy="1032.286866" fx="4.060667" fy="1032.286866" r="3.833867" gradientTransform="matrix(0.513326,0,0,0.394308,3.610848,-398.273434)">
<stop offset="0" style="stop-color:rgb(100%,100%,100%);stop-opacity:0.0117647;"/>
<stop offset="1" style="stop-color:rgb(18.823529%,43.921569%,52.156863%);stop-opacity:0;"/>
</radialGradient>
</defs>
<g id="surface1">
<path style=" stroke:none;fill-rule:nonzero;fill:rgb(41.960784%,55.686275%,13.72549%);fill-opacity:1;" d="M 0.1875 10.804688 C -1.730469 1.1875 11.441406 -2.464844 18.597656 1.703125 C 24.296875 5.023438 22.667969 16.398438 14.972656 20.640625 C 7.277344 24.882812 1.730469 18.527344 0.1875 10.804688 Z M 0.1875 10.804688 "/>
<path style=" stroke:none;fill-rule:nonzero;fill:url(#radial0);" d="M 5.695312 7.300781 C 5.441406 7.300781 5.203125 7.339844 4.980469 7.402344 L 4.980469 10.128906 C 5.203125 10.195312 5.441406 10.230469 5.695312 10.230469 C 6.78125 10.230469 7.664062 9.574219 7.664062 8.765625 C 7.664062 7.957031 6.78125 7.300781 5.695312 7.300781 Z M 5.695312 7.300781 "/>
<path style="fill-rule:nonzero;fill:rgb(100%,100%,100%);fill-opacity:1;stroke-width:1;stroke-linecap:butt;stroke-linejoin:miter;stroke:rgb(100%,100%,100%);stroke-opacity:1;stroke-miterlimit:4;" d="M 3.588899 1023.855479 L 25.588481 1023.855479 C 26.417936 1023.855479 27.087588 1024.529127 27.087588 1025.351374 L 27.087588 1041.350509 C 27.087588 1042.182662 26.417936 1042.85631 25.588481 1042.85631 L 3.588899 1042.85631 C 2.759444 1042.85631 2.089792 1042.182662 2.089792 1041.350509 L 2.089792 1025.351374 C 2.089792 1024.529127 2.759444 1023.855479 3.588899 1023.855479 Z M 3.588899 1023.855479 " transform="matrix(0.513326,0,0,0.394308,3.610848,-398.273434)"/>
<path style="fill-rule:evenodd;fill:rgb(100%,100%,100%);fill-opacity:1;stroke-width:0.31924;stroke-linecap:butt;stroke-linejoin:miter;stroke:rgb(100%,100%,100%);stroke-opacity:1;stroke-miterlimit:4;" d="M 5.141273 1052.1685 C 4.890154 1051.79205 4.890154 1051.603824 5.141273 1051.237281 C 5.377173 1050.880644 6.016386 1050.771671 7.713345 1050.771671 C 8.953723 1050.771671 10.186491 1050.623072 10.452829 1050.454661 C 11.198578 1049.959331 11.700817 1048.473344 11.86823 1046.264175 L 12.020423 1044.263045 L 17.491783 1044.263045 L 17.507002 1046.04623 C 17.529831 1048.354464 17.971192 1049.880079 18.754989 1050.365501 C 19.120254 1050.593353 20.345412 1050.761765 21.684716 1050.761765 C 23.419723 1050.761765 24.066545 1050.880644 24.302446 1051.237281 C 24.553565 1051.603824 24.553565 1051.79205 24.302446 1052.1685 C 24.036107 1052.564763 22.651145 1052.634109 14.721859 1052.634109 C 6.792574 1052.634109 5.415222 1052.564763 5.141273 1052.1685 Z M 5.141273 1052.1685 " transform="matrix(0.513326,0,0,0.394308,3.610848,-398.273434)"/>
<path style="fill-rule:nonzero;fill:rgb(41.960784%,55.686275%,13.72549%);fill-opacity:1;stroke-width:1;stroke-linecap:butt;stroke-linejoin:miter;stroke:rgb(41.960784%,55.686275%,13.72549%);stroke-opacity:1;stroke-miterlimit:4;" d="M 18.930012 1033.742251 L 11.944326 1038.01199 L 11.944326 1029.462606 Z M 18.930012 1033.742251 " transform="matrix(0.513326,0,0,0.394308,3.610848,-398.273434)"/>
</g>
</svg>
