<svg xmlns="http://www.w3.org/2000/svg" viewBox="0 0 22 22"><path d="m 11.554688 0.308594 c 29.820312 13.257812 -13.933594 37.082031 -11.453126 7.550781 c 0.582032 -4.445313 5.175782 -9.117187 11.453126 -7.550781" style="fill:#6a8e22"/><g style="fill:#ececec"><path d="m 5.914062 11.085938 l 2.175782 -2.191407 v 1.460938 h 4.351562 v -1.460938 l 2.175782 2.191407 l -2.175782 2.191406 v -1.460938 h -4.351562 v 1.460938" style="fill-rule:evenodd"/><path d="m 16.675781 12.363281 l 1.023438 1.035157 l -4.613281 4.644531 l -2.820313 -2.839844 l 1.023437 -1.03125 l 1.792969 1.804687"/><path d="m 10.265625 4.515625 c -3.597656 0 -6.527344 2.949219 -6.527344 6.570313 c 0 3.617187 2.929688 6.570312 6.527344 6.570312 c 0.28125 0 0.5625 -0.023438 0.835937 -0.0625 l -1.425781 -1.433594 c -2.53125 -0.292968 -4.484375 -2.449218 -4.484375 -5.078125 c 0 -2.832031 2.261719 -5.105469 5.070313 -5.105469 c 2.8125 0 5.078125 2.273438 5.078125 5.105469 c 0 0.425781 -0.054688 0.839844 -0.152344 1.234375 l 0.714844 -0.722656 l 0.773437 -0.777344 l 0.105469 0.109375 c -0.082031 -3.546875 -2.976562 -6.410156 -6.519531 -6.410156"/></g></svg>