<svg xmlns="http://www.w3.org/2000/svg" viewBox="0 0 22 22"><path d="m 4.007812 3.316406 c -17.199218 22.796875 30.128907 26.035156 14.941407 2.765625 c -3.464844 -5.304687 -10.386719 -8.804687 -14.941407 -2.765625" style="fill:#ff8c00"/><path d="m 10.679688 4.492188 c -1.582032 0 -2.859376 1.359374 -2.859376 3.039062 c 0 1.675781 1.277344 3.035156 2.859376 3.035156 c 1.578124 0 2.859374 -1.359375 2.859374 -3.035156 c 0 -1.679688 -1.28125 -3.039062 -2.859374 -3.039062 m -0.714844 1.519531 h 1.429687 v 0.757812 h 0.714844 v 1.519531 h -0.714844 v 0.757813 h -1.429687 v -0.757813 h -0.714844 v -1.519531 h 0.714844 m 0.714844 5.316407 c -5.722657 0.003906 -5.722657 3.90625 -5.722657 3.90625 v 0.648437 h 7.277344 l 1.097656 -1.164063 l -1.519531 -1.613281 l 1.375 -1.457031 c -0.683594 -0.199219 -1.503906 -0.320312 -2.507812 -0.320312 m 3.15625 0.707031 l -1.011719 1.070312 l 1.519531 1.613281 l -1.519531 1.609376 l 1.011719 1.074218 l 1.515624 -1.613281 l 1.519532 1.613281 l 1.007812 -1.074218 l -1.515625 -1.609376 l 1.515625 -1.613281 l -1.007812 -1.070312 l -1.519532 1.609375" style="fill:#fff"/></svg>