<svg xmlns="http://www.w3.org/2000/svg" viewBox="0 0 16 16"><path d="m 0.0546875 9.847656 c 0.0117187 0.082032 0.0664065 0.425782 0.1171875 0.765625 c 0.121094 0.796875 0.425781 1.808594 0.730469 2.433594 c 0.511718 1.042969 1.40625 1.984375 2.316406 2.429687 c 0.824219 0.40625 1.320312 0.519532 2.308594 0.519532 c 1.195312 0 2.09375 -0.210938 3.496094 -0.820313 c 1.667968 -0.726562 3.132812 -1.691406 4.234374 -2.78125 c 1.585938 -1.570312 2.386719 -3.046875 2.5625 -4.71875 c 0.144532 -1.371093 -0.210937 -2.546875 -1.101562 -3.636719 c -0.941406 -1.15625 -3.613281 -2.867187 -5.386719 -3.449218 c -0.9375 -0.308594 -1.257812 -0.355469 -2.507812 -0.355469 c -1.066407 0 -1.175781 0.011719 -1.632813 0.15625 c -1.015625 0.320313 -1.898437 0.863281 -2.613281 1.605469 c -1.402344 1.453125 -2.308594 3.628906 -2.5039062 5.992187 c -0.0546876 0.691407 -0.0664063 1.5625 -0.0195313 1.859375" style="fill:#ff8c00"/><g style="fill:#fff"><path d="m 4.839844 3.949219 l -0.488282 1.890625 h 6.179688 l -0.488281 -1.890625 l -2.601563 0.3125 m -3.25 2.207031 l -1.953125 1.261719 h 10.40625 l -1.949219 -1.261719"/><path d="m 3.539062 8.359375 c 0 2.089844 1.746094 3.78125 3.902344 3.78125 c 2.15625 0 3.902344 -1.691406 3.902344 -3.78125 m -5.527344 1.257813 h 3.253906 c 0.179688 0 0.324219 0.140624 0.324219 0.316406 c 0 0.175781 -0.144531 0.316406 -0.324219 0.316406 h -3.253906 c -0.179687 0 -0.324218 -0.140625 -0.324218 -0.316406 c 0 -0.175782 0.144531 -0.316406 0.324218 -0.316406"/></g></svg>