/* XPM */
static char * close_active_xpm[] = {
"24 24 34 1",
" 	c None",
".	c #21252B",
"+	c #353B48",
"@	c #2F343F",
"#	c #3D333E",
"$	c #822E3B",
"%	c #B9323D",
"&	c #D53641",
"*	c #D43641",
"=	c #B8313D",
"-	c #812E3A",
";	c #3C333E",
">	c #62303C",
",	c #D33640",
"'	c #ED4A51",
")	c #F15056",
"!	c #ED4951",
"~	c #D03440",
"{	c #60303C",
"]	c #63303C",
"^	c #E13B45",
"/	c #DF3B45",
"(	c #3E333F",
"_	c #D43540",
":	c #D23540",
"<	c #3B333E",
"[	c #832E3A",
"}	c #7F2E3A",
"|	c #BA323D",
"1	c #B6313D",
"2	c #D63642",
"3	c #D33641",
"4	c #D33541",
"5	c #3B333F",
"........................",
"++++++++++++++++++++++++",
"@@@@@@@@@@@@@@@@@@@@@@@@",
"@@@@@@@@@@@@@@@@@@@@@@@@",
"@@@@@@@@@@@@@@@@@@@@@@@@",
"@@@@@@@@#$%&*=-;@@@@@@@@",
"@@@@@@@>,'))))!~{@@@@@@@",
"@@@@@@]^))))))))/{@@@@@@",
"@@@@@(_)))))))))):<@@@@@",
"@@@@@['))))))))))!}@@@@@",
"@@@@@|))))))))))))1@@@@@",
"@@@@@2))))))))))))3@@@@@",
"@@@@@2))))))))))))3@@@@@",
"@@@@@|))))))))))))1@@@@@",
"@@@@@['))))))))))!}@@@@@",
"@@@@@;4))))))))))~5@@@@@",
"@@@@@@]^))))))))/{@@@@@@",
"@@@@@@@>,'))))!~{@@@@@@@",
"@@@@@@@@#$%&*=-;@@@@@@@@",
"@@@@@@@@@@@@@@@@@@@@@@@@",
"@@@@@@@@@@@@@@@@@@@@@@@@",
"@@@@@@@@@@@@@@@@@@@@@@@@",
"@@@@@@@@@@@@@@@@@@@@@@@@",
"@@@@@@@@@@@@@@@@@@@@@@@@"};
