<svg xmlns="http://www.w3.org/2000/svg" viewBox="0 0 32 32"><path d="m 28.703125 24.480469 c 11.507813 -16.367188 -9.742187 -32.949219 -23.296875 -19.613281 c -12.773438 12.5625 -0.933594 32.082031 14.960938 25.980468 c 3.316406 -1.273437 6.222656 -3.363281 8.335937 -6.367187" style="fill:#c972c7"/><path d="m 8.511719 8.792969 h 14.976562 v 14.976562 h -14.976562" style="fill:#e4b5e3"/><path d="m 10.75 9.527344 h 10.5 c 0.832031 0 1.503906 0.671875 1.503906 1.503906 v 10.5 c 0 0.832031 -0.671875 1.503906 -1.503906 1.503906 h -10.5 c -0.832031 0 -1.503906 -0.671875 -1.503906 -1.503906 v -10.5 c 0 -0.832031 0.671875 -1.503906 1.503906 -1.503906" style="fill:#fff"/><path d="m 11.488281 12.222656 h 9.019531 c 0.296876 0 0.535157 0.242188 0.535157 0.539063 c 0 0.292969 -0.238281 0.53125 -0.535157 0.53125 h -9.019531 c -0.292969 0 -0.53125 -0.238281 -0.53125 -0.53125 c 0 -0.296875 0.238281 -0.539063 0.53125 -0.539063" style="fill:#e4b5e3"/><path d="m 11.488281 14.621094 h 9.019531 c 0.296876 0 0.535157 0.242187 0.535157 0.539062 c 0 0.292969 -0.238281 0.53125 -0.535157 0.53125 h -9.019531 c -0.292969 0 -0.53125 -0.238281 -0.53125 -0.53125 c 0 -0.296875 0.238281 -0.539062 0.53125 -0.539062" style="fill:#e3b7c1"/><path d="m 11.488281 14.621094 h 9.019531 c 0.296876 0 0.535157 0.242187 0.535157 0.539062 c 0 0.292969 -0.238281 0.53125 -0.535157 0.53125 h -9.019531 c -0.292969 0 -0.53125 -0.238281 -0.53125 -0.53125 c 0 -0.296875 0.238281 -0.539062 0.53125 -0.539062" style="fill:#e4b5e3"/></svg>