<svg xmlns="http://www.w3.org/2000/svg" viewBox="0 0 32 32"><path d="m 5.785156 4.890625 c -24.730468 32.640625 43.324219 37.277344 21.484375 3.957031 c -4.980469 -7.59375 -14.9375 -12.601562 -21.484375 -3.957031" style="fill:#d1b38c"/><g style="fill:#fff"><path d="m 8.207031 7.996094 h 1.390625 v 18.1875 h -1.390625"/><path d="m 6.21875 7.988281 h 3.28125 v 1.390625 h -3.28125"/><path d="m 7.007812 17.152344 h 2.398438 v 1.769531 h -2.398438"/><path d="m 7.132812 13.996094 h 2.398438 v 1.765625 h -2.398438"/><path d="m 12.625 22.644531 h 8.839844 v 2.398438 h -8.839844"/><path d="m 9.46875 11.28125 h 16.289062 v 11.488281 h -16.289062"/></g><g style="fill:#f4f4f4"><path d="m 16.792969 13.425781 h 6.820312 v 3.410157 h -6.820312"/><path d="m 12.945312 19.078125 c -0.191406 0.523437 -0.769531 0.792969 -1.292968 0.601563 c -0.527344 -0.191407 -0.796875 -0.769532 -0.605469 -1.292969 c 0.191406 -0.523438 0.769531 -0.796875 1.292969 -0.605469 c 0.523437 0.191406 0.796875 0.769531 0.605468 1.292969"/><path d="m 12.945312 16.175781 c -0.191406 0.523438 -0.769531 0.789063 -1.292968 0.601563 c -0.527344 -0.191406 -0.796875 -0.769532 -0.605469 -1.292969 c 0.191406 -0.527344 0.769531 -0.796875 1.292969 -0.605469 c 0.523437 0.1875 0.796875 0.765625 0.605468 1.289063"/><path d="m 12.945312 13.519531 c -0.191406 0.527344 -0.769531 0.796875 -1.296874 0.605469 c -0.519532 -0.191406 -0.792969 -0.769531 -0.601563 -1.292969 c 0.1875 -0.523437 0.769531 -0.796875 1.292969 -0.605469 c 0.523437 0.1875 0.796875 0.769532 0.605468 1.292969"/><path d="m 13.257812 22.519531 h 1.011719 v 2.148438 h -1.011719"/><path d="m 14.773438 22.460938 h 1.011718 v 2.144531 h -1.011718"/><path d="m 16.371094 22.496094 h 1.007812 v 2.148437 h -1.007812"/><path d="m 17.863281 22.460938 h 1.011719 v 2.144531 h -1.011719"/><path d="m 19.1875 22.460938 h 1.011719 v 2.144531 h -1.011719"/><path d="m 22.277344 17.738281 h 1.011718 v 1.195313 h -1.011718"/><path d="m 20.445312 17.707031 h 1.011719 v 1.195313 h -1.011719"/><path d="m 18.304688 19.609375 h 4.949218 v 1.195313 h -4.949218"/><path d="m 17.589844 12.746094 h 0.605468 v 0.6875 h -0.605468"/><path d="m 18.847656 12.78125 h 0.605469 v 0.683594 h -0.605469"/><path d="m 20.140625 12.746094 h 0.601563 v 0.6875 h -0.601563"/><path d="m 21.363281 12.710938 h 0.601563 v 0.6875 h -0.601563"/><path d="m 22.585938 12.710938 h 0.601562 v 0.6875 h -0.601562"/><path d="m 22.585938 16.722656 h 0.601562 v 0.683594 h -0.601562"/><path d="m 21.394531 16.722656 h 0.605469 v 0.683594 h -0.605469"/><path d="m 20.140625 16.6875 h 0.601563 v 0.683594 h -0.601563"/><path d="m 18.917969 16.6875 h 0.601562 v 0.683594 h -0.601562"/><path d="m 17.589844 16.652344 h 0.605468 v 0.6875 h -0.605468"/><path d="m 14.433594 17.738281 h 2.539062 v 2.554688 h -2.539062"/><path d="m 14.464844 12.78125 h 1.011718 v 1.195312 h -1.011718"/><path d="m 14.433594 14.648438 h 1.007812 v 1.195312 h -1.007812"/></g></svg>