<svg xmlns="http://www.w3.org/2000/svg" viewBox="0 0 256 256"><g transform="translate(0 -796.36)"><path d="m -1374.42 1658.71 c 125.16 -274.08 -273.7 -240.16 -226.07 -62.2 23.02 102.82 167.39 165.22 226.07 62.2 z" transform="translate(1605.44 -659.12)" style="fill:#c19553;color:#000"/><g transform="matrix(4.46944 0 0 4.21885 30.728 818.66)"><path d="m 8 1 c -1.029 0 -2 0.971 -2 2 v 42 c 0 0.971 1.029 2 2 2 h 32 c 0.971 0 2 -1.029 2 -2 v -31 l -13 -13" style="fill:#c19553"/><path d="M 29,12 29.062,12.062 29.219,12 29,12 Z m 2,2 11,11 0,-11 -11,0 z" style="fill-opacity:0.196"/><path d="m 29 1 l 13 13 h -11 c -0.971 0 -2 -1.029 -2 -2 v -11" style="fill:#fff;fill-opacity:0.392"/><path d="m 6 35 v 10 c 0 0.971 1.029 2 2 2 h 32 c 0.971 0 2 -1.029 2 -2 v -10 z" style="fill-opacity:0.196"/><g style="fill:#fff"><path d="m 18 1 v 4 h 4 v -4 h -4 z m 0 4 h -4 v 4 h 4 v -4 z m 0 4 v 4 h 4 v -4 h -4 z m 0 4 h -4 v 4 h 4 v -4 z m 0 4 v 4 h 4 v -4 h -4 z m -4 6 v 8 h 8 v -8 h -4 h -4 z"/><g transform="scale(0.98346 1.0168)"><path d="m 17.15 44.26 h -4.944 v -7.868 h 1.576 v 6.571 h 3.368 v 1.296"/><path d="m 23.311 37.481 c -0.364 0.559 -0.699 1.085 -1 1.576 -0.305 0.491 -0.589 0.962 -0.852 1.411 -0.263 0.441 -0.513 0.869 -0.75 1.284 -0.229 0.407 -0.449 0.809 -0.661 1.208 h 3.381 v 1.296 h -5.186 v -0.902 c 0.186 -0.364 0.386 -0.746 0.597 -1.144 0.212 -0.407 0.449 -0.839 0.712 -1.296 0.263 -0.458 0.547 -0.953 0.852 -1.487 0.314 -0.534 0.657 -1.114 1.029 -1.741 h -3.02 v -1.296 h 4.906 v 1.093"/><path d="m 26.06 36.39 c 0.059 0.178 0.131 0.407 0.216 0.686 0.093 0.28 0.191 0.58 0.292 0.902 0.102 0.322 0.203 0.648 0.305 0.979 0.102 0.33 0.199 0.636 0.292 0.915 0.102 -0.314 0.208 -0.636 0.318 -0.966 0.11 -0.339 0.216 -0.661 0.318 -0.966 0.102 -0.314 0.195 -0.606 0.28 -0.877 0.085 -0.271 0.161 -0.496 0.229 -0.674 h 1.296 c 0.059 0.686 0.114 1.356 0.165 2.01 0.059 0.652 0.106 1.301 0.14 1.945 0.042 0.636 0.076 1.279 0.102 1.932 0.025 0.644 0.047 1.305 0.064 1.983 h -1.436 l 0.076 -6.114 l -0.966 3.33 h -1.144 l -0.928 -3.33 l 0.064 6.114 h -1.436 c 0.025 -0.644 0.051 -1.313 0.076 -2.01 0.034 -0.695 0.068 -1.385 0.102 -2.072 0.034 -0.686 0.072 -1.352 0.114 -1.995 0.051 -0.644 0.106 -1.241 0.165 -1.792 h 1.296"/><path d="m 34.928 44.26 l -0.369 -1.818 h -2.097 l -0.356 1.818 h -1.627 c 0.373 -1.551 0.75 -2.962 1.131 -4.233 0.381 -1.279 0.75 -2.491 1.106 -3.635 h 1.703 c 0.373 1.152 0.741 2.377 1.106 3.673 0.373 1.288 0.733 2.686 1.08 4.194 h -1.678 m -1.398 -6.342 c -0.085 0.297 -0.165 0.58 -0.242 0.852 -0.068 0.263 -0.136 0.525 -0.203 0.788 -0.059 0.254 -0.119 0.513 -0.178 0.775 -0.051 0.263 -0.102 0.534 -0.153 0.813 h 1.538 c -0.051 -0.28 -0.102 -0.551 -0.153 -0.813 -0.051 -0.263 -0.11 -0.521 -0.178 -0.775 -0.059 -0.263 -0.127 -0.525 -0.203 -0.788 -0.068 -0.271 -0.144 -0.555 -0.229 -0.852"/></g></g></g></g></svg>