<svg xmlns="http://www.w3.org/2000/svg" viewBox="0 0 256 256"><defs><clipPath><rect width="46" height="46" x="1" y="1" rx="4" style="fill:#1890d0"/></clipPath></defs><g transform="translate(0 -796.36)"><path d="m 210.85 835.34 c 198.4 264.12 -347.6 301.64 -172.38 32.04 39.945 -61.47 119.82 -101.99 172.38 -32.04 z" style="fill:#483d8b;color:#000"/><g transform="matrix(4.34755 0 0 3.98523 34.36 828.48)"><path d="M 29.998,9.55 30.06,9.612 30.217,9.55 h -0.219 z m 2,2 11,11 v -11 h -11 z" style="fill-opacity:0.196"/><path d="M 29,1 42,14 H 31 c -0.971,0 -2,-1.029 -2,-2 V 1" transform="translate(0.749 -2.722)" style="fill:#fff;fill-opacity:0.392"/></g><g style="fill:#1e90ff"><path d="m 154.47 991.5 v -11 h 12.226 h 12.226 v 11 v 11 h -12.226 h -12.226 v -11 z"/><path d="m 128.73 991.5 v -11 h 12.226 h 12.226 v 11 v 11 h -12.226 h -12.226 v -11 z"/><path d="m 128.73 967.04 v -11 h 12.226 h 12.226 v 11 v 11 h -12.226 h -12.226 v -11 z"/><path d="m 102.99 967.04 v -11 h 12.226 h 12.226 v 11 v 11 h -12.226 h -12.226 v -11 z"/></g><g style="fill:#f00"><path d="m 128.73 943.81 v -11 h 12.226 h 12.226 v 11 v 11 h -12.226 h -12.226 v -11 z"/><path d="m 102.99 943.81 v -11 h 12.226 h 12.226 v 11 v 11 h -12.226 h -12.226 v -11 z"/><path d="m 102.99 919.36 v -11 h 12.226 h 12.226 v 11 v 11 h -12.226 h -12.226 v -11 z"/><path d="m 77.25 919.36 v -11 h 12.226 h 12.226 v 11 v 11 h -12.226 h -12.226 v -11 z"/></g><g style="fill:#0f0"><path d="m 154.47 967.04 v -11 h 12.226 h 12.226 v 11 v 11 h -12.226 h -12.226 v -11 z"/><path d="m 154.47 943.81 v -11 h 12.226 h 12.226 v 11 v 11 h -12.226 h -12.226 v -11 z"/><path d="m 154.47 919.36 v -11 h 12.226 h 12.226 v 11 v 11 h -12.226 h -12.226 v -11 z"/><path d="m 128.73 919.36 v -11 h 12.226 h 12.226 v 11 v 11 h -12.226 h -12.226 v -11 z"/></g><g style="fill:#ff0"><path d="m 77.25 943.81 v -11 h 12.226 h 12.226 v 11 v 11 h -12.226 h -12.226 v -11 z"/><path d="m 77.25 967.04 v -11 h 12.226 h 12.226 v 11 v 11 h -12.226 h -12.226 v -11 z"/><path d="m 77.25 991.5 v -11 h 12.226 h 12.226 v 11 v 11 h -12.226 h -12.226 v -11 z"/><path d="m 102.99 991.5 v -11 h 12.226 h 12.226 v 11 v 11 h -12.226 h -12.226 v -11 z"/></g></g></svg>