<svg xmlns="http://www.w3.org/2000/svg" viewBox="0 0 256 256"><g transform="translate(0 -796.36)"><path d="m 3.25 953.66 c 49.981 239.91 393.86 -17.642 187.29 -139.59 -80.25 -52.27 -213 16.2 -187.29 139.59 z" style="fill:#dcdcdc;color:#000"/><g transform="matrix(4.29498 0 0 3.9552 24.92 824.39)"><path d="M 29,12 29.062,12.062 29.219,12 29,12 Z m 2,2 11,11 0,-11 -11,0 z" style="fill-opacity:0.196"/><path d="m 29 1 l 13 13 h -11 c -0.971 0 -2 -1.029 -2 -2 v -11" style="fill:#fff;fill-opacity:0.392"/></g><g style="fill:#808080;stroke:#808080;fill-rule:evenodd"><path d="m 92.58 1002.62 c -3.168 -2.644 -2.949 -3.349 5.72 -18.366 l 5.837 -10.111 l -7.563 -7.867 c -4.16 -4.327 -7.817 -7.867 -8.127 -7.867 -0.31 0 -0.567 3.631 -0.571 8.07 -0.007 7.991 -0.047 8.198 -4.068 21.376 -3.426 11.23 -4.331 13.506 -5.798 14.581 -2.11 1.547 -5.668 1.675 -7.736 0.277 -2.613 -1.766 -2.449 -4.576 0.935 -15.939 3.02 -10.127 3.105 -10.683 3.158 -19.535 0.03 -5.01 0.263 -11.205 0.518 -13.763 0.439 -4.405 0.601 -4.769 3.054 -6.865 l 2.59 -2.213 l -1.751 -1.461 c -0.963 -0.804 -1.751 -1.791 -1.752 -2.195 -0.001 -0.403 -1.368 -1.498 -3.038 -2.432 -3.232 -1.808 -3.662 -2.564 -2.079 -3.659 0.796 -0.551 1.452 -0.388 3.385 0.842 2.704 1.721 2.597 1.818 3.778 -3.412 1.557 -6.895 3.536 -12.146 5.115 -13.568 l 1.597 -1.438 l 13.433 0.006 c 7.388 0.003 14.502 0.155 15.808 0.336 2.139 0.297 2.981 1.059 8.481 7.672 3.359 4.04 6.474 8.03 6.924 8.865 1.694 3.156 1.082 4.676 -6.897 17.13 -4.277 6.673 -7.559 12.295 -7.294 12.494 2.813 2.112 32.28 21.45 32.681 21.45 0.298 0 0.961 -0.426 1.473 -0.946 1.749 -1.777 6.956 -4.15 9.105 -4.15 1.177 0 3.102 0.28 4.277 0.622 l 2.137 0.622 v 11.553 v 11.553 h -24.11 h -24.11 l 1.481 -1.672 c 1.55 -1.75 4.613 -3.01 8.907 -3.657 1.832 -0.277 2.544 -0.672 2.544 -1.409 0 -1.307 2.986 -4.02 4.424 -4.02 0.985 0 9.211 -6.645 9.102 -7.353 -0.065 -0.421 -28.778 -20.01 -29.709 -20.271 -1.168 -0.325 -0.939 1.894 0.283 2.74 1.573 1.09 3.01 3.667 3.01 5.403 0 0.84 -3.719 7.596 -8.265 15.01 -7.885 12.867 -8.384 13.526 -10.87 14.356 -3.48 1.162 -3.728 1.13 -6.02 -0.785 z" style="stroke-width:3.393"/><path d="m 112.62 907.67 c -8.699 -4.241 -11.539 -11.212 -7.728 -18.97 1.837 -3.739 6.261 -7.574 9.644 -8.36 3.49 -0.81 9.752 0.138 12.25 1.855 7.917 5.441 9.288 16.19 2.812 22.05 -5.04 4.561 -11.84 5.934 -16.977 3.429 z" style="stroke-width:4.72"/></g></g></svg>