<svg xmlns="http://www.w3.org/2000/svg" xmlns:xlink="http://www.w3.org/1999/xlink" viewBox="0 0 256 256"><defs><path d="m 73.74 103.47 c 0 20.08 -16.281 36.37 -36.37 36.37 -20.08 0 -36.37 -16.281 -36.37 -36.37 0 -20.08 16.281 -36.37 36.37 -36.37 20.08 0 36.37 16.281 36.37 36.37 z" id="0" style="color:#000"/><clipPath><rect width="46" height="46" x="1" y="1" rx="4" style="fill:#1890d0"/></clipPath><clipPath><rect width="46" height="46" x="1" y="1" rx="4" style="fill:#1890d0"/></clipPath><clipPath><rect width="46" height="46" x="1" y="1" rx="4" style="fill:#1890d0"/></clipPath><clipPath><rect width="46" height="46" x="1" y="1" rx="4" style="fill:#1890d0"/></clipPath><clipPath><rect width="46" height="46" x="1" y="1" rx="4" style="fill:#1890d0"/></clipPath><clipPath><rect width="46" height="46" x="1" y="1" rx="4" style="fill:#1890d0"/></clipPath><clipPath><rect width="46" height="46" x="1" y="1" rx="4" style="fill:#1890d0"/></clipPath><clipPath><rect width="46" height="46" x="1" y="1" rx="4" style="fill:#1890d0"/></clipPath><clipPath><rect width="46" height="46" x="1" y="1" rx="4" style="fill:#1890d0"/></clipPath><clipPath><rect width="46" height="46" x="1" y="1" rx="4" style="fill:#1890d0"/></clipPath><clipPath><rect width="46" height="46" x="1" y="1" rx="4" style="fill:#1890d0"/></clipPath><clipPath><rect width="46" height="46" x="1" y="1" rx="4" style="fill:#1890d0"/></clipPath><clipPath><rect width="46" height="46" x="1" y="1" rx="4" style="fill:#1890d0"/></clipPath><clipPath><rect width="46" height="46" x="1" y="1" rx="4" style="fill:#1890d0"/></clipPath><clipPath><rect width="46" height="46" x="1" y="1" rx="4" style="fill:#1890d0"/></clipPath><clipPath><rect width="46" height="46" x="1" y="1" rx="4" style="fill:#1890d0"/></clipPath><clipPath><rect width="46" height="46" x="1" y="1" rx="4" style="fill:#1890d0"/></clipPath><clipPath><rect width="46" height="46" x="1" y="1" rx="4" style="fill:#1890d0"/></clipPath><clipPath><path transform="matrix(15.33333 0 0 11.5 415 -125.5)" d="m -24 13 c 0 1.105 -0.672 2 -1.5 2 -0.828 0 -1.5 -0.895 -1.5 -2 0 -1.105 0.672 -2 1.5 -2 0.828 0 1.5 0.895 1.5 2 z"/></clipPath><clipPath><rect width="46" height="46" x="1" y="1" rx="4" style="fill:#1890d0"/></clipPath><clipPath><rect width="46" height="46" x="1" y="1" rx="4" style="fill:#1890d0"/></clipPath><clipPath><rect width="46" height="46" x="1" y="1" rx="4" style="fill:#1890d0"/></clipPath><clipPath><rect width="46" height="46" x="1" y="1" rx="4" style="fill:#1890d0"/></clipPath><clipPath><rect width="46" height="46" x="1" y="1" rx="4" style="fill:#1890d0"/></clipPath><clipPath><rect width="46" height="46" x="1" y="1" rx="4" style="fill:#1890d0"/></clipPath><clipPath><rect width="46" height="46" x="1" y="1" rx="4" style="fill:#1890d0"/></clipPath><clipPath><rect width="46" height="46" x="1" y="1" rx="4" style="fill:#1890d0"/></clipPath><clipPath><rect width="46" height="46" x="1" y="1" rx="4" style="fill:#1890d0"/></clipPath><clipPath><rect width="46" height="46" x="1" y="1" rx="4" style="fill:#1890d0"/></clipPath><clipPath><rect width="46" height="46" x="1" y="1" rx="4" style="fill:#1890d0"/></clipPath><clipPath><rect width="46" height="46" x="1" y="1" rx="4" style="fill:#1890d0"/></clipPath><clipPath><rect width="46" height="46" x="1" y="1" rx="4" style="fill:#1890d0"/></clipPath><clipPath><rect width="46" height="46" x="1" y="1" rx="4" style="fill:#1890d0"/></clipPath><clipPath><rect width="46" height="46" x="1" y="1" rx="4" style="fill:#1890d0"/></clipPath><clipPath><rect width="46" height="46" x="1" y="1" rx="4" style="fill:#1890d0"/></clipPath><clipPath><rect width="46" height="46" x="1" y="1" rx="4" style="fill:#1890d0"/></clipPath><clipPath><rect width="46" height="46" x="1" y="1" rx="4" style="fill:#1890d0"/></clipPath><clipPath><rect width="46" height="46" x="1" y="1" rx="4" style="fill:#1890d0"/></clipPath><clipPath><rect width="46" height="46" x="1" y="1" rx="4" style="fill:#1890d0"/></clipPath><clipPath><rect width="46" height="46" x="1" y="1" rx="4" style="fill:#1890d0"/></clipPath><clipPath><rect width="46" height="46" x="1" y="1" rx="4" style="fill:#1890d0"/></clipPath><clipPath><rect width="46" height="46" x="1" y="1" rx="4" style="fill:#1890d0"/></clipPath><clipPath><rect width="46" height="46" x="1" y="1" rx="4" style="fill:#1890d0"/></clipPath><clipPath><rect width="46" height="46" x="1" y="1" rx="4" style="fill:#1890d0"/></clipPath><clipPath><rect width="46" height="46" x="1" y="1" rx="4" style="fill:#1890d0"/></clipPath><clipPath><rect width="46" height="46" x="1" y="1" rx="4" style="fill:#1890d0"/></clipPath><clipPath><rect width="46" height="46" x="1" y="1" rx="4" style="fill:#1890d0"/></clipPath><clipPath><rect width="46" height="46" x="1" y="1" rx="4" style="fill:#1890d0"/></clipPath><clipPath><rect width="46" height="46" x="1" y="1" rx="4" style="fill:#1890d0"/></clipPath><clipPath><rect width="46" height="46" x="1" y="1" rx="4" style="fill:#1890d0"/></clipPath><clipPath><rect width="46" height="46" x="1" y="1" rx="4" style="fill:#1890d0"/></clipPath><clipPath><rect width="46" height="46" x="1" y="1" rx="4" style="fill:#1890d0"/></clipPath><clipPath><rect width="46" height="46" x="1" y="1" rx="4" style="fill:#1890d0"/></clipPath><clipPath><rect width="46" height="46" x="1" y="1" rx="4" style="fill:#1890d0"/></clipPath><clipPath><rect width="46" height="46" x="1" y="1" rx="4" style="fill:#1890d0"/></clipPath><clipPath><rect width="46" height="46" x="1" y="1" rx="4" style="fill:#1890d0"/></clipPath><clipPath><rect width="46" height="46" x="1" y="1" rx="4" style="fill:#1890d0"/></clipPath><clipPath><rect width="46" height="46" x="1" y="1" rx="4" style="fill:#1890d0"/></clipPath><clipPath><rect width="46" height="46" x="1" y="1" rx="4" style="fill:#1890d0"/></clipPath></defs><g transform="matrix(0.99109 0 0 0.98664 1.156 -786.92)"><g transform="matrix(-1 0 0 1 256.88 3.045)"><path d="m 73.17 797.33 c 368.15 -25.644 92.2 469.58 -64.2 143.49 -21.558 -50.25 -5.804 -125.18 64.2 -143.49 z" style="fill:#94db4d;color:#000"/><g transform="translate(11.617)"><use xlink:href="#0" transform="translate(33.05 820.9)" width="1" height="1" style="fill:#cdeeac"/><use xlink:href="#0" transform="translate(79.01 820.9)" width="1" height="1" style="fill:#fff"/><use xlink:href="#0" transform="translate(128 820.9)" width="1" height="1" style="fill:#cdeeac"/></g></g><g transform="matrix(4.5254 0 0 4.17505 35.711 806.74)"><path d="M 29,12 29.062,12.062 29.219,12 29,12 z m 2,2 11,11 0,-11 -11,0 z" style="fill-opacity:0.196"/><path d="M 29,1 42,14 H 31 c -0.971,0 -2,-1.029 -2,-2 V 1 z" style="fill:#fff;fill-opacity:0.392"/></g></g></svg>