<svg xmlns="http://www.w3.org/2000/svg" viewBox="0 0 256 256"><g transform="translate(0 -796.36)"><path d="m 3.25 953.66 c 49.981 239.91 393.86 -17.642 187.29 -139.59 -80.25 -52.27 -213 16.2 -187.29 139.59 z" style="fill:#dcdcdc;color:#000"/><g transform="matrix(4.49647 0 0 3.83348 20.08 825.33)"><path d="M 29,12 29.062,12.062 29.219,12 29,12 Z m 2,2 11,11 0,-11 -11,0 z" style="fill-opacity:0.196"/><path d="m 29 1 l 13 13 h -11 c -0.971 0 -2 -1.029 -2 -2 v -11" style="fill:#fff;fill-opacity:0.392"/></g><path d="m 85.83 903.17 c -2.788 0.243 -5.173 2.912 -5.124 5.756 v 38.47 v 0.14 v 2.387 v 0.14 v 19.375 c 0.03 2.979 2.661 5.659 5.59 5.616 h 68.16 c 2.883 -0.045 5.404 -2.684 5.434 -5.616 v -60.51 c 0.044 -2.979 -2.499 -5.724 -5.429 -5.755 h -68.16 h -0.466 z m 4.813 8.986 h 59.31 v 38.611 c -0.429 -0.468 -0.639 -0.631 -1.087 -1.123 -4.414 -4.802 -9.46 -10.511 -15.526 -17.41 -1.214 1.092 -2.686 2.409 -4.658 4.072 -2 1.663 -4.381 3.663 -7.142 5.897 -0.349 0.348 -1.754 -0.978 -4.347 -3.931 -2.655 -2.966 -6.295 -7.493 -11.179 -13.759 -6.55 6.165 -11.275 10.578 -15.371 14.321 v -26.676 z" style="fill:#9e9e9e"/></g></svg>