<svg xmlns="http://www.w3.org/2000/svg" viewBox="0 0 256 256"><defs><clipPath><rect y="56" x="-202" width="84" rx="10" height="88" style="fill:none;stroke:#000;display:block;color:#000"/></clipPath><clipPath><rect y="56" x="-202" width="84" rx="10" height="88" style="fill:none;stroke:#000;display:block;color:#000"/></clipPath><clipPath><rect y="56" x="-202" width="84" rx="10" height="88" style="fill:none;stroke:#000;display:block;color:#000"/></clipPath><clipPath><rect y="56" x="-202" width="84" rx="10" height="88" style="fill:none;stroke:#424242;display:block;color:#000"/></clipPath><clipPath><rect y="56" x="-202" width="84" rx="10" height="88" style="fill:none;stroke:#646464;display:block;color:#000"/></clipPath><clipPath><rect y="56" x="-202" width="84" rx="10" height="88" style="fill:none;stroke:#545454;display:block;color:#000"/></clipPath><clipPath><rect height="88" rx="10" width="84" x="-202" y="56" style="fill:none;stroke:#545454;display:block;color:#000"/></clipPath><clipPath><rect height="88" rx="10" width="84" x="-202" y="56" style="fill:none;stroke:#646464;display:block;color:#000"/></clipPath><clipPath><rect height="88" rx="10" width="84" x="-202" y="56" style="fill:none;stroke:#424242;display:block;color:#000"/></clipPath><clipPath><rect height="88" rx="10" width="84" x="-202" y="56" style="fill:none;stroke:#000;display:block;color:#000"/></clipPath><clipPath><rect height="88" rx="10" width="84" x="-202" y="56" style="fill:none;stroke:#000;display:block;color:#000"/></clipPath><clipPath><rect height="88" rx="10" width="84" x="-202" y="56" style="fill:none;stroke:#000;display:block;color:#000"/></clipPath></defs><switch transform="matrix(0.85217 0 0 0.81835 96.31 -17.267)"><g transform="matrix(0.60349 0 0 0.67725 -117.3 23.641)" style="enable-background:new"><path d="m 358 284.8 h -136 l -34 57.5 h 136" style="fill:#f0f0f0;opacity:0.9"/><path d="m 358 284.8 l -68 -115.1 h -68 l 68 115.1" style="fill:#f0f0f0"/><path d="M 256 227.2 222 169.7 154 284.8 188 342.3" style="fill:#f0f0f0;opacity:0.95"/></g></switch><g transform="matrix(0.99153 0 0 1 1.084 -797.45)"><path d="m 3.25 953.66 c 49.981 239.91 393.86 -17.642 187.29 -139.59 -80.25 -52.27 -213 16.2 -187.29 139.59 z" style="fill:#789;color:#000"/><g transform="matrix(4.9372 0 0 3.65269 11.976 827.57)"><path d="M 29,12 29.062,12.062 29.219,12 29,12 z m 2,2 11,11 0,-11 -11,0 z" style="fill-opacity:0.196"/><path d="m 29 1 l 13 13 h -11 c -0.971 0 -2 -1.029 -2 -2 v -11 z" style="fill:#fff;fill-opacity:0.392"/></g><path d="m 78.63 914.97 v 8.639 c 11.715 0 11.715 3.748 11.715 16.242 v 37.482 c 0 12.494 0 16.242 -11.715 16.242 v 8.745 h 35.14 v -8.745 c -11.715 0 -11.715 -3.748 -11.715 -16.242 v -12.494 h 5.857 c 4.686 0 9.374 0 9.372 12.494 h 8.2 v -37.482 h -8.2 c 0.002 12.494 -4.686 12.494 -9.372 12.494 h -5.857 v -24.988 h 23.43 c 11.715 0 15.229 0 15.229 12.494 h 8.2 l -0.002 -24.988 z" style="fill:#fffafa"/></g></svg>