<svg xmlns="http://www.w3.org/2000/svg" viewBox="0 0 256 256"><g transform="translate(0 -796.36)"><path d="m -1067.28 1935.73 c 48.956 88.52 202.34 54.16 228.29 -18.719 30.922 -86.82 -49.563 -251.7 -185.88 -155.11 -45.916 33.728 -91.37 85.31 -42.41 173.83 z" transform="translate(1088.39 -936.13)" style="fill:#dc322f;color:#000"/><g transform="matrix(4.39844 0 0 4.14322 20.32 835.13)"><path d="m 8 1 c -1.029 0 -2 0.971 -2 2 v 42 c 0 0.971 1.029 2 2 2 h 32 c 0.971 0 2 -1.029 2 -2 v -31 l -13 -13" style="fill:#dc322f"/><path d="M 29,12 29.062,12.062 29.219,12 29,12 Z m 2,2 11,11 0,-11 -11,0 z" style="fill-opacity:0.196"/><g style="fill:#fff"><path d="m 29 1 l 13 13 h -11 c -0.971 0 -2 -1.029 -2 -2 v -11" style="fill-opacity:0.392"/><path d="m 15.438 18.01 c -0.422 0.047 -0.438 0.25 -0.438 1 v 2.999 h 18 v -2.999 c 0 -1 0 -1 -1 -1 h -16 c -0.25 0 -0.422 -0.016 -0.563 0 z m -0.438 4.998 v 11.995 c 0 1 0 1 1 1 h 16 c 1 0 1 0 1 -1 v -11.995 h -18 z m 12.25 1.999 c 0.655 0 1.23 0.164 1.719 0.469 0.493 0.304 0.862 0.732 1.125 1.312 0.263 0.576 0.406 1.262 0.406 2.062 0 1.729 -0.358 3.02 -1.094 3.874 -0.735 0.852 -1.853 1.281 -3.344 1.281 -0.525 0 -0.917 -0.038 -1.188 -0.094 v -1.468 c 0.339 0.084 0.691 0.125 1.063 0.125 0.626 0 1.127 -0.101 1.531 -0.281 0.404 -0.184 0.723 -0.455 0.938 -0.843 0.214 -0.392 0.343 -0.94 0.375 -1.624 h -0.094 c -0.234 0.376 -0.505 0.629 -0.813 0.781 -0.307 0.152 -0.664 0.25 -1.125 0.25 -0.772 0 -1.399 -0.262 -1.844 -0.75 -0.444 -0.492 -0.656 -1.158 -0.656 -2.031 0 -0.94 0.275 -1.705 0.813 -2.249 0.541 -0.548 1.258 -0.812 2.188 -0.812 z m -6.906 0.094 h 1.563 v 8.778 h -1.875 v -5.061 v -0.843 l 0.031 -0.906 c -0.311 0.308 -0.535 0.497 -0.656 0.594 l -1 0.812 l -0.906 -1.126 l 2.844 -2.249 z m 6.688 1.406 c -0.259 0.05 -0.493 0.177 -0.656 0.375 -0.218 0.264 -0.313 0.66 -0.313 1.156 0 0.424 0.083 0.752 0.281 1 0.198 0.248 0.502 0.375 0.906 0.375 0.38 0 0.698 -0.131 0.969 -0.375 0.271 -0.248 0.406 -0.523 0.406 -0.843 0 -0.476 -0.12 -0.89 -0.375 -1.218 -0.251 -0.328 -0.577 -0.469 -0.969 -0.469 -0.097 0 -0.164 -0.017 -0.25 0 z"/></g></g></g></svg>