<svg xmlns="http://www.w3.org/2000/svg" viewBox="0 0 48 48"><path d="m 8.484375 41.042969 c -37.84375 -49.355469 66.296875 -56.367188 32.878906 -5.984375 c -7.621093 11.484375 -22.855469 19.058594 -32.878906 5.984375" style="fill:#ea1e46"/><path d="m 28.726562 15.234375 l 0.050782 0.046875 l 0.121094 -0.046875 m 1.386718 1.480469 l 8.558594 8.136718 v -8.136718" style="fill-opacity:0.196078"/><g style="fill:#fff"><path d="m 28.726562 7.097656 l 10.117188 9.617188 h -8.558594 c -0.757812 0 -1.558594 -0.761719 -1.558594 -1.480469" style="fill-opacity:0.392157"/><path d="m 29.160156 23.199219 l -5.429687 2.878906 l -2.945313 -5.394531 l -4.65625 2.46875 l 2.945313 5.394531 l -5.429688 2.882813 l 2.523438 4.625 l 5.429687 -2.878907 l 2.945313 5.394531 l 4.652343 -2.46875 l -2.941406 -5.398437 l 5.429688 -2.878906"/></g></svg>