<svg xmlns="http://www.w3.org/2000/svg" viewBox="0 0 48 48"><g style="fill:#3468ce"><path d="m 47.390625 18.507812 c -9.371094 -44.984374 -73.847656 3.308594 -35.117187 26.171876 c 15.046874 9.800781 39.9375 -3.035157 35.117187 -26.171876"/><path d="m 14.980469 10.898438 c -0.597657 0 -1.160157 0.578124 -1.160157 1.191406 v 25.011718 c 0 0.578126 0.597657 1.191407 1.160157 1.191407 h 18.621093 c 0.5625 0 1.164063 -0.613281 1.164063 -1.191407 v -18.460937 l -7.566406 -7.742187"/></g><path d="m 27.199219 17.449219 l 0.039062 0.035156 l 0.089844 -0.035156 m 1.035156 1.191406 l 6.402344 6.550781 v -6.550781" style="fill-opacity:0.196078"/><g style="fill:#fff"><path d="m 27.199219 10.898438 l 7.566406 7.742187 h -6.402344 c -0.5625 0 -1.164062 -0.613281 -1.164062 -1.191406 v -6.550781" style="fill-opacity:0.392157"/><path d="m 19.683594 19.832031 h 3.980468 c 0.1875 0 0.335938 0.160157 0.335938 0.355469 v 3.453125 c 0 0.199219 -0.148438 0.359375 -0.335938 0.359375 h -3.980468 c -0.1875 0 -0.335938 -0.160156 -0.335938 -0.359375 v -3.453125 c 0 -0.195312 0.148438 -0.355469 0.335938 -0.355469"/></g><g transform="matrix(0.581827 0 0 0.595515 10.036586 9.70761)" style="fill:none;stroke:#fff;stroke-linecap:round;stroke-linejoin:round"><path d="m 26.496775 17.499637 h 5.001755"/><path d="m 26.496775 20.497305 h 5.001755"/><path d="m 26.496775 23.501532 h 5.001755"/><path d="m 16.003159 26.4992 h 15.998903"/><path d="m 16.003159 29.496868 h 15.998903"/><path d="m 16.003159 32.501096 h 15.998903"/></g><path d="m 13.820312 31.144531 v 5.957031 c 0 0.578126 0.597657 1.191407 1.160157 1.191407 h 18.621093 c 0.5625 0 1.164063 -0.613281 1.164063 -1.191407 v -5.957031" style="fill-opacity:0.196078"/><g style="fill:#fff"><path d="m 19.8125 32.339844 c 0.296875 0 0.566406 0.027344 0.808594 0.089844 c 0.238281 0.0625 0.445312 0.15625 0.617187 0.28125 c 0.171875 0.125 0.304688 0.289062 0.394531 0.488281 c 0.09375 0.191406 0.140626 0.417969 0.140626 0.683593 c 0 0.273438 -0.0625 0.523438 -0.183594 0.746094 c -0.125 0.222656 -0.328125 0.394532 -0.613282 0.507813 c 0.09375 0.132812 0.195313 0.28125 0.300782 0.441406 c 0.109375 0.160156 0.210937 0.324219 0.3125 0.503906 c 0.101562 0.171875 0.195312 0.347657 0.285156 0.523438 c 0.09375 0.175781 0.175781 0.339843 0.242188 0.496093 h -1.082032 c -0.128906 -0.304687 -0.277344 -0.597656 -0.453125 -0.875 c -0.167969 -0.285156 -0.347656 -0.570312 -0.542969 -0.859374 h -0.535156 v 1.734374 h -1.03125 v -4.640624 c 0.097656 -0.019532 0.207032 -0.039063 0.324219 -0.054688 c 0.125 -0.019531 0.246094 -0.03125 0.371094 -0.039062 c 0.121093 -0.007813 0.238281 -0.015626 0.351562 -0.023438 c 0.109375 -0.003906 0.207031 -0.007812 0.292969 -0.007812 m 0.914062 1.539062 c 0 -0.25 -0.085937 -0.429688 -0.25 -0.546875 c -0.167968 -0.117187 -0.390624 -0.175781 -0.664062 -0.175781 c -0.039062 0 -0.085938 0.003906 -0.144531 0.007812 c -0.054688 0 -0.109375 0.003906 -0.164063 0.015625 v 1.414063 h 0.222656 c 0.355469 0 0.609376 -0.0625 0.765626 -0.183594 c 0.15625 -0.125 0.234374 -0.304688 0.234374 -0.53125"/><path d="m 26.195312 32.386719 v 0.777343 h -1.367187 v 3.9375 h -1.039063 v -3.9375 h -1.367187 v -0.777343 h 3.773437"/><path d="m 26.933594 37.101562 v -4.710937 h 3.175781 v 0.777344 h -2.148437 v 1.140625 h 1.878906 v 0.773437 h -1.878906 v 2.019531 h -1.027344"/></g><path d="m 10.039062 9.382812 c -0.898437 0 -1.746093 0.671876 -1.746093 1.378907 v 28.996093 c 0 0.667969 0.898437 1.378907 1.746093 1.378907 h 27.910157 c 0.847656 0 1.742187 -0.710938 1.742187 -1.378907 v -21.402343 l -11.335937 -8.972657" style="fill:#3468ce"/><path d="m 28.355469 13.179688 l 0.050781 0.042968 l 0.140625 -0.042968 m 1.550781 1.378906 l 9.59375 7.59375 v -7.59375" style="fill-opacity:0.196078"/><g style="fill:#fff"><path d="m 28.355469 5.585938 l 11.335937 8.972656 h -9.59375 c -0.847656 0 -1.742187 -0.707032 -1.742187 -1.378906" style="fill-opacity:0.392157"/><path d="m 23.179688 16.875 c -2.738282 0 -4.9375 1.773438 -4.9375 3.976562 v 2.851563 h -1.128907 v 9.015625 h 12.71875 v -9.015625 h -1.046875 v -2.851563 c 0 -2.203124 -2.199218 -3.976562 -4.9375 -3.976562 m -0.492187 1.738281 h 0.40625 c 1.664062 0 2.996093 1.332031 3 2.984375 l 0.003906 2.105469 h -6.40625 l -0.003906 -2.105469 c -0.003907 -1.652344 1.339843 -2.984375 3 -2.984375 m 0.277343 7.414063 c 0.78125 0.023437 1.398438 0.539062 1.398438 1.167968 c 0 0.417969 -0.277344 0.804688 -0.726562 1.011719 l 0.398437 1.296875 c -0.292969 0.09375 -0.605469 0.144532 -0.929687 0.144532 h -0.40625 c -0.324219 0 -0.636719 -0.050782 -0.929688 -0.144532 l 0.394531 -1.304687 c -0.441406 -0.210938 -0.710937 -0.59375 -0.710937 -1.003907 c 0 -0.617187 0.597656 -1.128906 1.363281 -1.167968" style="fill-rule:evenodd"/></g></svg>