<svg xmlns="http://www.w3.org/2000/svg" viewBox="0 0 48 48"><path d="m 47.390625 18.507812 c -9.371094 -44.984374 -73.847656 3.308594 -35.117187 26.171876 c 15.046874 9.800781 39.9375 -3.035157 35.117187 -26.171876" style="fill:#9400d2"/><path d="m 31.203125 13.925781 l 0.054687 0.042969 l 0.136719 -0.042969 m 1.550781 1.378907 l 9.59375 7.59375 v -7.59375" style="fill-opacity:0.196078"/><g style="fill:#fff"><path d="m 31 6.128906 l 11.335938 8.972656 h -9.59375 c -0.847657 0 -1.742188 -0.710937 -1.742188 -1.378906 v -7.59375" style="fill-opacity:0.392157"/><path d="m 37.628906 28.269531 c 0.070313 4.691407 -2.570312 9.058594 -6.910156 11.421875 c -4.339844 2.367188 -9.707031 2.367188 -14.046875 0 c -4.335937 -2.363281 -6.976563 -6.730468 -6.90625 -11.421875 c -0.070313 -4.695312 2.570313 -9.058593 6.90625 -11.425781 c 4.339844 -2.363281 9.707031 -2.363281 14.046875 0 c 4.339844 2.367188 6.980469 6.730469 6.910156 11.425781"/></g><path d="m 580.548888 841.649305 c -0.400452 -0.374122 -4.104633 -0.841775 -8.409494 -1.122367 c -8.709833 -0.654714 -16.9191 -1.59002 -28.131759 -3.460633 c -12.514128 -1.964143 -15.617632 -2.618857 -25.729047 -4.957122 c -1.701922 -0.374123 -5.30599 -1.215898 -8.109155 -1.777082 c -6.006782 -1.309429 -13.91571 -3.460633 -18.621023 -5.050653 c -1.802034 -0.654714 -6.807685 -2.151204 -10.912319 -3.460633 c -4.104634 -1.309429 -11.512998 -3.928286 -16.318423 -5.798898 c -4.805425 -1.870612 -8.910059 -3.367102 -9.210398 -3.367102 c -0.600678 0 -10.511868 -4.302408 -19.822379 -8.604817 c -6.106894 -2.712387 -22.425317 -10.943082 -26.529951 -13.281347 c -5.706442 -3.367102 -29.733568 -18.051409 -31.936055 -19.547898 c -9.911189 -7.108327 -17.720005 -12.907225 -20.623282 -15.432552 c -1.902148 -1.683551 -5.005652 -4.021816 -6.807686 -5.237714 c -8.309381 -5.611837 -37.642497 -34.512797 -51.257868 -50.506532 c -10.511868 -12.346041 -24.427578 -31.98747 -33.237524 -46.765307 c -6.607459 -11.130144 -17.720005 -32.642185 -20.122718 -38.721675 c -0.800904 -2.151204 -2.502825 -6.360082 -3.804295 -9.353061 c -1.201356 -2.99298 -3.00339 -7.669511 -4.004521 -10.475429 c -0.901017 -2.805919 -2.803164 -8.137164 -4.104633 -11.784858 c -1.401583 -3.647694 -2.502826 -7.482449 -2.502826 -8.324224 c 0 -0.841776 -0.300339 -1.777082 -0.700791 -2.057674 c -0.400452 -0.187061 -1.00113 -1.49649 -1.30147 -2.899449 c -0.901017 -4.395939 -3.103503 -14.123123 -3.904407 -17.583755 c -0.500566 -1.777082 -1.201357 -4.957123 -1.701922 -7.014796 c -1.601808 -6.640674 -3.704182 -20.015552 -5.005651 -32.829246 c -1.101243 -10.194837 -1.101243 -60.981961 0 -70.054431 c 2.202486 -17.957878 3.003391 -23.008531 5.005651 -31.519817 c 0.500565 -2.151204 1.101243 -4.957122 1.401582 -6.266551 c 0.200227 -1.215898 0.700792 -3.554163 1.201357 -5.050653 c 0.400452 -1.49649 1.401582 -5.518306 2.102373 -8.885408 c 0.800904 -3.460633 2.502826 -9.259531 3.804295 -12.907225 c 1.201356 -3.554164 2.803165 -8.137164 3.403843 -10.101307 c 4.004521 -13.094286 12.514128 -32.642184 22.425317 -51.722429 c 4.204747 -7.950103 11.012433 -19.73496 12.414015 -21.23145 c 0.600678 -0.748245 1.802035 -2.525327 2.703052 -4.021816 c 2.302599 -3.928286 11.012432 -16.367858 13.415145 -19.080246 c 1.101243 -1.309428 2.903278 -3.741224 4.004521 -5.518306 c 1.101243 -1.683551 3.604069 -4.863592 5.506216 -6.921266 c 2.002261 -2.151204 4.505086 -5.331245 5.706443 -6.921265 c 6.207007 -8.417755 38.443401 -39.376389 53.260128 -51.067716 c 14.015823 -11.036612 34.338767 -24.785612 50.056512 -33.858082 c 17.519779 -10.007776 46.452443 -23.289123 64.5729 -29.555674 c 4.605199 -1.590021 9.110285 -3.180041 9.911189 -3.554164 c 0.800905 -0.467653 2.202487 -0.748245 3.003391 -0.748245 c 0.901017 0 1.902148 -0.280591 2.402713 -0.654714 c 0.700791 -0.654714 7.30825 -2.525326 17.720005 -5.144184 c 2.803165 -0.748245 6.807686 -1.870612 8.910059 -2.525326 c 3.704182 -1.215898 6.207007 -1.777082 14.816727 -3.273572 c 2.3026 -0.374122 4.805426 -0.935306 5.506217 -1.215898 c 0.600678 -0.280592 3.904408 -0.841775 7.108024 -1.215898 c 3.30373 -0.467653 8.009042 -1.215898 10.611981 -1.59002 c 19.722266 -3.367102 32.236394 -4.115347 64.372674 -4.115347 c 31.535603 0 45.3512 0.841775 64.272561 4.115347 c 2.602939 0.374122 7.007912 1.122367 9.91119 1.49649 c 7.408363 0.935306 22.024865 4.115347 29.933794 6.360081 c 1.201356 0.280592 3.604069 0.935307 5.506216 1.40296 c 13.214919 3.367102 34.43888 10.194837 44.249956 14.216653 c 2.202487 0.935306 5.706443 2.338265 7.808816 3.180041 c 29.933794 12.15898 59.667362 28.713899 84.395279 47.23296 c 20.322944 15.15196 21.324074 15.993735 36.240915 29.929797 c 12.91458 12.065449 16.718875 15.900205 26.429838 26.656225 c 8.509607 9.353062 33.237524 42.182307 33.237524 44.05292 c 0 0.374122 0.901017 1.777081 2.00226 3.180041 c 2.202487 2.712387 11.813337 19.92202 17.519779 31.239225 c 6.807686 13.842531 17.720006 40.685817 17.720006 43.959389 c 0 0.841775 0.400452 1.683551 0.800904 1.964143 c 0.500565 0.280591 0.901017 1.309428 0.901017 2.338265 c 0 1.028837 0.300339 2.057673 0.700791 2.338265 c 0.500565 0.187062 1.00113 1.309429 1.301469 2.525327 c 0.200226 1.215898 0.901018 3.741225 1.401583 5.611837 c 1.601808 6.17302 3.503956 14.310184 3.904408 17.583755 c 0.300339 1.683551 0.800904 3.460633 1.201356 3.834756 c 0.500565 0.374122 0.800904 2.244734 0.800904 4.021816 c 0 1.870612 0.300339 3.460633 0.700791 3.741225 c 0.400452 0.187061 1.001131 2.431796 1.30147 4.863592 c 0.300339 2.525326 0.901017 7.014796 1.401582 10.007775 c 1.902147 12.15898 2.402713 23.008531 2.402713 48.63592 c 0 25.533858 -0.500566 35.541633 -2.402713 47.794144 c -0.500565 2.99298 -1.101243 7.388918 -1.401582 9.727184 c -0.200226 2.338265 -0.800905 5.050653 -1.201357 5.892429 c -0.400452 0.841775 -0.901017 2.805918 -1.101243 4.302408 c -0.300339 1.49649 -0.800904 4.208877 -1.301469 6.17302 c -1.701922 7.014796 -3.604069 15.245491 -4.004521 17.677287 c -0.300339 1.402959 -0.800904 2.805918 -1.301469 2.992979 c -0.400453 0.280592 -0.700792 1.215898 -0.700792 2.057674 c 0 0.935306 -0.700791 3.647694 -1.601808 5.985959 c -0.901017 2.431796 -2.602939 7.388919 -3.904408 10.943082 c -2.202486 6.640674 -4.705312 13.094286 -6.807686 17.583756 c -0.600678 1.215898 -2.402712 5.424775 -4.004521 9.25953 c -1.601808 3.928286 -3.704181 8.417756 -4.705312 10.194837 c -0.901017 1.683551 -3.303729 6.07949 -5.205877 9.727184 c -4.605199 8.791878 -11.813337 21.044389 -13.214919 22.634409 c -0.700791 0.654714 -1.201356 1.49649 -1.201356 1.870612 c 0 1.40296 -16.919101 25.066205 -22.425318 31.519817 c -1.401582 1.590021 -3.904407 4.583001 -5.506216 6.547143 c -15.617632 19.173776 -47.253347 48.729451 -66.374934 62.010798 c -13.915711 9.727184 -27.531082 18.612592 -33.637976 22.073225 c -3.704182 2.151204 -9.210399 5.331245 -12.113676 7.014796 c -4.505086 2.712388 -35.940576 17.396694 -43.248826 20.296143 c -21.023735 8.324225 -42.147583 15.15196 -55.863068 18.051409 c -2.803164 0.561184 -6.607459 1.402959 -8.409494 1.777082 c -1.902147 0.467653 -4.905538 1.122367 -6.807685 1.49649 c -1.902148 0.374122 -5.105764 1.122367 -7.208138 1.59002 c -2.102373 0.467653 -6.30712 1.215898 -9.310511 1.59002 c -3.003391 0.374123 -6.407234 0.935307 -7.60859 1.215898 c -2.202486 0.467653 -9.110285 1.309429 -22.825769 2.712388 c -9.811077 1.028837 -72.281603 1.777082 -73.182621 0.935306 m 157.177448 -111.2079 c 21.724526 -4.583 41.947356 -16.64845 48.254477 -28.90096 c 2.602939 -5.050653 2.703052 -5.705368 2.703052 -14.590776 c 0 -8.324225 -0.30034 -10.007776 -2.402713 -15.15196 c -2.903278 -7.014796 -7.308251 -15.24549 -11.212659 -20.857327 c -1.601808 -2.244735 -2.903277 -4.489469 -2.903277 -4.863592 c 0 -0.467653 2.602938 -3.741224 5.706442 -7.201857 c 6.60746 -7.482449 13.315032 -19.641429 15.117067 -27.40447 c 1.501695 -6.827735 1.601808 -15.713143 0 -21.792633 c -0.600679 -2.618858 -1.401583 -7.108327 -1.701922 -10.007776 c -1.501695 -13.374878 -7.508477 -23.195592 -30.334246 -49.758287 c -17.019214 -19.641429 -25.128369 -29.742735 -29.333116 -36.196348 c -5.606329 -8.698347 -8.009042 -18.425531 -14.316162 -56.960144 c -0.901018 -5.798898 -2.602939 -13.749001 -3.604069 -17.770817 c -1.00113 -3.928286 -1.701922 -7.295388 -1.501695 -7.482449 c 0.200226 -0.187061 6.106894 0.467653 13.014693 1.49649 c 33.037297 4.957122 60.067814 7.482449 81.592114 7.66951 c 13.114806 0.093531 16.518649 -0.09353 20.022605 -1.215898 c 12.313901 -4.021816 18.621022 -16.367857 13.315032 -26.375633 c -3.704182 -6.921266 -14.616502 -15.526082 -34.338767 -27.217409 c -16.118197 -9.353061 -35.74035 -19.454368 -55.162276 -28.339776 c -37.74261 -17.209633 -52.659451 -21.044389 -81.291776 -20.950858 c -16.518648 0.093531 -26.029386 1.215898 -38.74374 4.583 c -13.014693 3.460633 -19.321813 7.482449 -26.129499 16.461388 l -2.502825 3.367102 h -9.210399 c -9.710963 0 -21.223961 2.151205 -29.333116 5.424776 c -2.102373 0.935306 -4.505086 1.590021 -5.30599 1.590021 c -0.800904 0 -2.703051 -2.431796 -5.105764 -6.547143 c -7.108025 -12.626633 -23.927013 -31.145695 -49.956399 -54.902471 c -41.146452 -37.599307 -67.476178 -55.837777 -80.891323 -55.931308 c -7.908929 -0.09353 -14.91684 4.115347 -18.821248 11.130143 c -2.002261 3.554164 -2.102374 4.48947 -1.701922 10.943082 c 0.600678 8.791878 4.905538 22.634409 13.114806 41.621124 c 15.417406 35.635164 43.148714 88.105839 63.872109 120.560962 l 6.60746 10.475429 l -1.00113 8.230694 c -1.201357 10.756021 -0.500565 28.713899 2.202486 49.945348 c 4.805425 38.441083 4.805425 39.095797 -2.102373 77.723941 c -2.3026 13.094286 -4.505086 26.375633 -5.005651 29.555674 c -0.400452 3.273572 -1.802035 8.417755 -3.003391 11.504266 c -5.606329 14.403714 -4.505086 27.40447 3.503956 41.527593 c 19.622152 34.606327 85.696748 56.30543 156.076204 51.254776 c 10.411754 -0.748245 30.434359 -3.273571 34.038428 -4.302408 c 1.101243 -0.280592 2.302599 0.748245 4.605199 4.115347 c 8.009042 11.597796 19.922491 24.037368 27.631194 28.90096 c 12.113676 7.57598 22.024865 9.446592 35.540124 6.640674 m -19.52204 -38.908736 c -4.204747 -3.834755 -8.009042 -7.763041 -8.60972 -8.698347 c -0.901017 -1.683551 -0.700791 -1.870612 4.30486 -3.834755 c 3.003391 -1.215898 10.511867 -4.48947 16.718875 -7.388919 c 6.207007 -2.899449 11.613111 -5.050653 12.013563 -4.863592 c 2.402712 1.402959 9.210398 16.461388 9.210398 20.483205 c 0 2.525326 -14.916841 9.540122 -22.625543 10.66249 l -3.503956 0.467653 m -202.929099 -146.281881 c 0.300339 -0.748245 1.101243 -5.518307 1.902147 -10.66249 c 1.802035 -11.597797 1.802035 -31.613348 -0.100113 -51.72243 c -2.903277 -32.268062 -3.103503 -36.757532 -2.703051 -49.851818 c 0.300339 -11.878388 0.700791 -14.403715 2.602938 -19.82849 c 1.201357 -3.460633 3.503956 -8.043633 5.205877 -10.381898 c 9.610851 -13.094286 32.036168 -27.685062 51.658321 -33.671022 c 17.419666 -5.331245 46.652669 1.309429 72.281603 16.461389 c 18.821248 11.130143 23.826899 21.32498 29.733568 61.449613 c 2.402712 16.554919 5.406103 30.116858 8.409494 38.815205 c 3.303729 9.259531 10.411754 22.073225 16.919101 30.490981 c 5.406103 7.014796 5.906668 8.043633 3.604069 7.388918 c -18.621023 -5.237714 -58.365893 -8.043633 -84.09494 -5.892428 c -34.538993 2.805918 -66.274822 10.849551 -93.004999 23.476184 c -6.307121 2.899449 -11.813337 5.331245 -12.113676 5.331245 c -0.400452 0 -0.500565 -0.654714 -0.300339 -1.402959 m 69.178099 -39.656981 c 5.806556 -2.618857 11.512998 -8.324225 15.016954 -14.964898 c 3.00339 -5.798898 3.103503 -5.98596 3.103503 -15.619613 c 0 -9.727184 0 -9.820714 -3.203616 -15.713143 c -9.610851 -17.864348 -30.234133 -21.792633 -44.650409 -8.417756 c -17.419666 15.993736 -13.214919 45.830002 7.908929 54.996002 c 3.704182 1.683551 5.406103 1.870612 11.112546 1.683551 c 4.905538 -0.187061 7.908929 -0.748245 10.712093 -1.964143 m 68.777647 -12.626633 c 11.512998 -5.331245 18.420797 -19.547898 15.917971 -32.735715 c -1.902147 -10.381898 -8.109155 -18.425531 -17.21944 -22.166756 c -4.505086 -1.870612 -5.906668 -2.057673 -11.212659 -1.777081 c -3.704181 0.280591 -7.30825 1.028836 -9.410624 1.964143 c -5.205877 2.431796 -10.511867 7.763041 -13.415145 13.468408 c -2.502826 4.770061 -2.602939 5.611837 -2.602939 14.029592 c 0 8.137164 0.200226 9.353062 2.3026 13.561939 c 3.003391 5.798898 9.010172 11.691327 14.616501 14.123123 c 5.706443 2.525327 14.916841 2.338265 21.023735 -0.467653 m 96.208616 -116.071493 c -14.216049 -1.777081 -37.542384 -5.331245 -55.863067 -8.604816 l -14.015823 -2.431796 l -7.108025 -4.957123 c -4.004521 -2.712388 -12.113676 -7.201857 -18.22057 -10.101306 l -11.012433 -5.237715 l 3.804295 -1.122367 c 5.606329 -1.683551 27.030516 -1.59002 36.841593 0.187061 c 9.110285 1.590021 22.625543 6.453613 39.74487 14.123123 c 21.324074 9.633653 41.546905 20.109082 38.042949 19.73496 c -0.400452 -0.093531 -5.906668 -0.748245 -12.213789 -1.49649 m -264.198269 -16.461388 c -13.315032 -22.073225 -26.830291 -46.765307 -33.637976 -61.636675 c -6.507347 -14.029592 -7.908929 -17.583756 -7.007912 -17.583756 c 1.501696 0 26.930404 22.634409 38.843853 34.419266 c 18.020345 17.864348 24.928143 26.188572 29.933794 35.448103 l 4.30486 8.137164 l -10.411754 8.978939 c -5.706442 5.050653 -10.611981 9.166 -10.91232 9.353061 c -0.300339 0.093531 -5.30599 -7.57598 -11.112545 -17.116102" transform="matrix(0.0390184 0 0 0.0417644 0.687755 9.024803)" style="fill:#9400d2;stroke:#778799"/></svg>