<svg xmlns="http://www.w3.org/2000/svg" viewBox="0 0 48 48"><g style="fill:#dcdcdc"><path d="m 0.609375 29.492188 c 9.371094 44.984374 73.847656 -3.304688 35.117187 -26.171876 c -15.046874 -9.800781 -39.9375 3.039063 -35.117187 26.171876"/><path d="m 11.476562 4.734375 c -0.820312 0 -1.589843 0.738281 -1.589843 1.515625 v 31.839844 c 0 0.734375 0.816406 1.515625 1.589843 1.515625 h 25.433594 c 0.769532 0 1.585938 -0.78125 1.585938 -1.515625 v -23.5 l -10.332032 -9.855469"/></g><path d="m 28.164062 13.074219 l 0.050782 0.046875 l 0.125 -0.046875 m 1.414062 1.515625 l 8.742188 8.339844 v -8.339844" style="fill-opacity:0.196078"/><path d="m 28.164062 4.734375 l 10.332032 9.855469 h -8.742188 c -0.769531 0 -1.589844 -0.78125 -1.589844 -1.515625 v -8.339844" style="fill:#fff;fill-opacity:0.392157"/><path d="m 21.964844 17.859375 c -5.410156 0 -9.800782 4.253906 -9.800782 9.496094 c 0 5.242187 4.390626 9.496093 9.800782 9.496093 c 5.410156 0 9.800781 -4.253906 9.800781 -9.496093 c 0 -5.242188 -4.390625 -9.496094 -9.800781 -9.496094 m 0 3.109375 c 3.636718 0 6.59375 2.863281 6.59375 6.386719 c 0 1.253906 -0.371094 2.425781 -1.019532 3.414062 l -9.09375 -8.8125 c 1.019532 -0.628906 2.226563 -0.988281 3.519532 -0.988281 m -5.570313 2.972656 l 9.09375 8.8125 c -1.019531 0.625 -2.226562 0.988282 -3.523437 0.988282 c -3.636719 0 -6.59375 -2.863282 -6.59375 -6.386719 c 0 -1.253907 0.375 -2.425781 1.023437 -3.414063" style="fill:#878787"/></svg>