<svg xmlns="http://www.w3.org/2000/svg" viewBox="0 0 48 48"><defs><clipPath id="5"><path d="m 21 29 h 9 v 10 h -9"/></clipPath><clipPath id="4"><path d="m 17 18 h 11 v 12 h -11"/></clipPath><clipPath id="6"><path d="m 27 35 h 3 v 4 h -3"/></clipPath><clipPath id="3"><path d="m 15 20 h 11 v 12 h -11"/></clipPath><clipPath id="1"><path d="m 37.398438 9.015625 h -32.890626 c -1.910156 0 -3.460937 1.53125 -3.460937 3.417969 v 32.460937 c 0 1.886719 1.550781 3.417969 3.460937 3.417969 h 32.890626 c 1.914062 0 3.464843 -1.53125 3.464843 -3.417969 v -32.460937 c 0 -1.886719 -1.550781 -3.417969 -3.464843 -3.417969"/></clipPath><clipPath id="0"><path d="m 12 17 h 8 v 6 h -8"/></clipPath><clipPath id="2"><path d="m 12 22 h 11 v 12 h -11"/></clipPath></defs><path d="m 0.6875 29.441406 c 9.371094 44.445313 73.847656 -3.265625 35.117188 -25.859375 c -15.046876 -9.683593 -39.9375 3 -35.117188 25.859375" style="fill:#dcdcdc"/><path d="m 27.714844 13.054688 l 0.046875 0.054687 l 0.109375 -0.054687 m 1.261718 1.671874 l 7.796876 9.179688 v -9.179688" style="fill-opacity:0.196078"/><path d="m 28.285156 4.253906 l 9.214844 10.851563 h -7.796875 c -0.6875 0 -1.417969 -0.859375 -1.417969 -1.671875" style="fill:#fff;fill-opacity:0.392157"/><g style="clip-path:url(#0)"><g style="clip-path:url(#1)"><path d="m 14.628906 18.957031 c -1.660156 1.265625 -2.5625 2.941407 -2.28125 4.042969 l 6.753906 -5.167969 c 0.023438 -0.015625 0.042969 -0.03125 0.0625 -0.046875 c -1.011718 -0.542968 -2.875 -0.097656 -4.535156 1.171875" style="fill:#878787;fill-rule:evenodd"/></g></g><g style="clip-path:url(#2)"><g style="clip-path:url(#1)"><path d="m 13.398438 22.742188 l 0.429687 -0.328126 c 0.464844 -0.359374 1.136719 -0.273437 1.496094 0.1875 l 7.085937 9.011719 c 0.359375 0.460938 0.277344 1.125 -0.1875 1.476563 l -0.429687 0.332031 c -0.464844 0.355469 -1.136719 0.273437 -1.496094 -0.1875 l -7.089844 -9.011719 c -0.355469 -0.460937 -0.273437 -1.125 0.191407 -1.480468" style="fill:#878787;fill-rule:evenodd"/></g></g><g style="clip-path:url(#3)"><g style="clip-path:url(#1)"><path d="m 15.796875 20.90625 l 0.429687 -0.328125 c 0.46875 -0.355469 1.136719 -0.273437 1.5 0.1875 l 7.082032 9.011719 c 0.363281 0.460937 0.277344 1.121094 -0.1875 1.480468 l -0.429688 0.324219 c -0.464844 0.359375 -1.136718 0.273438 -1.5 -0.1875 l -7.082031 -9.011719 c -0.363281 -0.460937 -0.277344 -1.121093 0.1875 -1.476562" style="fill:#878787;fill-rule:evenodd"/></g></g><g style="clip-path:url(#4)"><g style="clip-path:url(#1)"><path d="m 18.21875 19.050781 l 0.429688 -0.328125 c 0.464843 -0.355468 1.136718 -0.273437 1.496093 0.1875 l 7.085938 9.011719 c 0.363281 0.460937 0.277343 1.121094 -0.1875 1.480469 l -0.429688 0.324218 c -0.46875 0.359376 -1.136719 0.273438 -1.5 -0.1875 l -7.082031 -9.011718 c -0.363281 -0.460938 -0.277344 -1.121094 0.1875 -1.476563" style="fill:#878787;fill-rule:evenodd"/></g></g><g style="clip-path:url(#5)"><g style="clip-path:url(#1)"><path d="m 21.273438 34.472656 c -0.027344 -0.175781 6.714843 -5.34375 6.878906 -5.269531 c 0.164062 0.074219 1.582031 8.746094 1.445312 8.851563 c -0.136718 0.109374 -8.296875 -3.402344 -8.328125 -3.582032" style="fill:#878787;fill-rule:evenodd"/></g></g><g style="clip-path:url(#6)"><g style="clip-path:url(#1)"><path d="m 29.285156 35.523438 c 0.207032 1.359374 0.371094 2.5 0.324219 2.535156 c -0.046875 0.039062 -1.226563 -0.441406 -2.597656 -1.015625" style="fill:#878787"/></g></g></svg>