<svg xmlns="http://www.w3.org/2000/svg" viewBox="0 0 48 48"><path d="m 47.292969 18.675781 c -9.285157 -44.726562 -73.179688 3.289063 -34.800781 26.023438 c 14.914062 9.742187 39.578124 -3.019531 34.800781 -26.023438" style="fill:#dcdcdc"/><path d="m 33.382812 13.351562 l 0.039063 0.050782 l 0.109375 -0.050782 m 1.214844 1.59375 l 7.507812 8.765626 v -8.765626" style="fill-opacity:0.196078"/><g style="fill:#fff"><path d="m 33.929688 4.949219 l 8.871093 10.359375 h -7.507812 c -0.660157 0 -1.363281 -0.820313 -1.363281 -1.59375" style="fill-opacity:0.392157"/><path d="m 16.855469 18.375 c -0.382813 0.042969 -0.398438 0.214844 -0.398438 0.847656 v 2.539063 h 16.351563 v -2.539063 c 0 -0.84375 0 -0.84375 -0.910156 -0.84375 h -14.535157 c -0.226562 0 -0.382812 -0.015625 -0.507812 0 m -0.398438 4.230469 v 10.152344 c 0 0.847656 0 0.847656 0.90625 0.847656 h 14.535157 c 0.910156 0 0.910156 0 0.910156 -0.847656 v -10.152344 m -5.222656 1.691406 c 0.59375 0 1.117187 0.140625 1.558593 0.398438 c 0.449219 0.257812 0.785157 0.617187 1.023438 1.109375 c 0.238281 0.488281 0.371093 1.070312 0.371093 1.746094 c 0 1.464843 -0.328124 2.558593 -0.996093 3.277343 c -0.667969 0.722657 -1.683594 1.085938 -3.035157 1.085938 c -0.480468 0 -0.835937 -0.03125 -1.082031 -0.078125 v -1.242188 c 0.308594 0.070313 0.628907 0.105469 0.964844 0.105469 c 0.570313 0 1.027344 -0.085937 1.394531 -0.238281 c 0.367188 -0.15625 0.65625 -0.386719 0.851563 -0.714844 c 0.191406 -0.332031 0.308593 -0.796875 0.339843 -1.375 h -0.085937 c -0.210937 0.316406 -0.460937 0.53125 -0.738281 0.660156 c -0.277344 0.128906 -0.601563 0.210938 -1.023438 0.210938 c -0.699218 0 -1.269531 -0.21875 -1.671875 -0.632813 c -0.40625 -0.417969 -0.597656 -0.980469 -0.597656 -1.71875 c 0 -0.796875 0.25 -1.445312 0.738281 -1.90625 c 0.492188 -0.464843 1.144532 -0.6875 1.988282 -0.6875 m -6.273438 0.078125 h 1.417969 v 7.433594 h -1.703125 v -5 l 0.027344 -0.765625 c -0.28125 0.261719 -0.484376 0.421875 -0.59375 0.503906 l -0.910157 0.6875 l -0.824219 -0.953125 m 8.660157 -0.714844 c -0.234375 0.042969 -0.449219 0.148438 -0.597657 0.316407 c -0.199218 0.226562 -0.285156 0.558593 -0.285156 0.980469 c 0 0.359374 0.078125 0.636718 0.257813 0.847656 c 0.179687 0.207031 0.457031 0.316406 0.824219 0.316406 c 0.34375 0 0.632812 -0.113281 0.878906 -0.316406 c 0.246094 -0.210938 0.367187 -0.445313 0.367187 -0.714844 c 0 -0.402344 -0.109375 -0.753906 -0.339843 -1.03125 c -0.226563 -0.277344 -0.523438 -0.398438 -0.878907 -0.398438 c -0.089843 0 -0.148437 -0.011718 -0.226562 0"/></g></svg>