<svg xmlns="http://www.w3.org/2000/svg" viewBox="0 0 48 48"><g style="fill:#3468ce"><path d="m 47.390625 18.507812 c -9.371094 -44.984374 -73.847656 3.308594 -35.117187 26.171876 c 15.046874 9.800781 39.9375 -3.035157 35.117187 -26.171876"/><path d="m 14.980469 10.898438 c -0.597657 0 -1.160157 0.578124 -1.160157 1.191406 v 25.011718 c 0 0.578126 0.597657 1.191407 1.160157 1.191407 h 18.621093 c 0.5625 0 1.164063 -0.613281 1.164063 -1.191407 v -18.460937 l -7.566406 -7.742187"/></g><path d="m 27.199219 17.449219 l 0.039062 0.035156 l 0.089844 -0.035156 m 1.035156 1.191406 l 6.402344 6.550781 v -6.550781" style="fill-opacity:0.196078"/><g style="fill:#fff"><path d="m 27.199219 10.898438 l 7.566406 7.742187 h -6.402344 c -0.5625 0 -1.164062 -0.613281 -1.164062 -1.191406 v -6.550781" style="fill-opacity:0.392157"/><path d="m 19.683594 19.832031 h 3.980468 c 0.1875 0 0.335938 0.160157 0.335938 0.355469 v 3.453125 c 0 0.199219 -0.148438 0.359375 -0.335938 0.359375 h -3.980468 c -0.1875 0 -0.335938 -0.160156 -0.335938 -0.359375 v -3.453125 c 0 -0.195312 0.148438 -0.355469 0.335938 -0.355469"/></g><g transform="matrix(0.581827 0 0 0.595515 10.036586 9.70761)" style="fill:none;stroke:#fff;stroke-linecap:round;stroke-linejoin:round"><path d="m 26.496775 17.499637 h 5.001755"/><path d="m 26.496775 20.497305 h 5.001755"/><path d="m 26.496775 23.501532 h 5.001755"/><path d="m 16.003159 26.4992 h 15.998903"/><path d="m 16.003159 29.496868 h 15.998903"/><path d="m 16.003159 32.501096 h 15.998903"/></g><path d="m 13.820312 31.144531 v 5.957031 c 0 0.578126 0.597657 1.191407 1.160157 1.191407 h 18.621093 c 0.5625 0 1.164063 -0.613281 1.164063 -1.191407 v -5.957031" style="fill-opacity:0.196078"/><g style="fill:#fff"><path d="m 19.8125 32.339844 c 0.296875 0 0.566406 0.027344 0.808594 0.089844 c 0.238281 0.0625 0.445312 0.15625 0.617187 0.28125 c 0.171875 0.125 0.304688 0.289062 0.394531 0.488281 c 0.09375 0.191406 0.140626 0.417969 0.140626 0.683593 c 0 0.273438 -0.0625 0.523438 -0.183594 0.746094 c -0.125 0.222656 -0.328125 0.394532 -0.613282 0.507813 c 0.09375 0.132812 0.195313 0.28125 0.300782 0.441406 c 0.109375 0.160156 0.210937 0.324219 0.3125 0.503906 c 0.101562 0.171875 0.195312 0.347657 0.285156 0.523438 c 0.09375 0.175781 0.175781 0.339843 0.242188 0.496093 h -1.082032 c -0.128906 -0.304687 -0.277344 -0.597656 -0.453125 -0.875 c -0.167969 -0.285156 -0.347656 -0.570312 -0.542969 -0.859374 h -0.535156 v 1.734374 h -1.03125 v -4.640624 c 0.097656 -0.019532 0.207032 -0.039063 0.324219 -0.054688 c 0.125 -0.019531 0.246094 -0.03125 0.371094 -0.039062 c 0.121093 -0.007813 0.238281 -0.015626 0.351562 -0.023438 c 0.109375 -0.003906 0.207031 -0.007812 0.292969 -0.007812 m 0.914062 1.539062 c 0 -0.25 -0.085937 -0.429688 -0.25 -0.546875 c -0.167968 -0.117187 -0.390624 -0.175781 -0.664062 -0.175781 c -0.039062 0 -0.085938 0.003906 -0.144531 0.007812 c -0.054688 0 -0.109375 0.003906 -0.164063 0.015625 v 1.414063 h 0.222656 c 0.355469 0 0.609376 -0.0625 0.765626 -0.183594 c 0.15625 -0.125 0.234374 -0.304688 0.234374 -0.53125"/><path d="m 26.195312 32.386719 v 0.777343 h -1.367187 v 3.9375 h -1.039063 v -3.9375 h -1.367187 v -0.777343 h 3.773437"/><path d="m 26.933594 37.101562 v -4.710937 h 3.175781 v 0.777344 h -2.148437 v 1.140625 h 1.878906 v 0.773437 h -1.878906 v 2.019531 h -1.027344"/></g><path d="m 11.074219 8.625 c -0.832031 0 -1.617188 0.707031 -1.617188 1.460938 v 30.722656 c 0 0.710937 0.832031 1.464844 1.617188 1.464844 h 25.851562 c 0.785157 0 1.613281 -0.753907 1.613281 -1.464844 v -22.675782 l -10.5 -9.507812" style="fill:#3468ce"/><path d="m 28.039062 16.671875 l 0.050782 0.042969 l 0.125 -0.042969 m 1.441406 1.460937 l 8.882812 8.046876 v -8.046876" style="fill-opacity:0.196078"/><g style="fill:#fff"><path d="m 28.039062 8.625 l 10.5 9.507812 h -8.882812 c -0.785156 0 -1.617188 -0.753906 -1.617188 -1.460937 v -8.046875" style="fill-opacity:0.392157"/><path d="m 17.601562 19.597656 h 5.527344 c 0.257813 0 0.464844 0.195313 0.464844 0.4375 v 4.242188 c 0 0.242187 -0.207031 0.441406 -0.464844 0.441406 h -5.527344 c -0.257812 0 -0.46875 -0.199219 -0.46875 -0.441406 v -4.242188 c 0 -0.242187 0.210938 -0.4375 0.46875 -0.4375"/></g><g transform="matrix(0.80787 0 0 0.73152 4.206503 7.160355)" style="fill:none;stroke:#fff;stroke-linecap:round;stroke-linejoin:round"><path d="m 26.497801 17.498609 h 5.004479"/><path d="m 26.497801 20.499638 h 5.004479"/><path d="m 26.497801 23.500666 h 5.004479"/><path d="m 16.000482 26.501695 h 15.999828"/><path d="m 16.000482 29.497384 h 15.999828"/><path d="m 16.000482 32.498413 h 15.999828"/></g><path d="m 9.457031 33.496094 v 7.3125 c 0 0.710937 0.832031 1.464844 1.617188 1.464844 h 25.851562 c 0.785157 0 1.613281 -0.753907 1.613281 -1.464844 v -7.3125" style="fill-opacity:0.196078"/><g style="fill:#fff"><path d="m 18.988281 37.066406 c 0.03125 0.113282 0.078125 0.257813 0.136719 0.425782 c 0.058594 0.167968 0.125 0.355468 0.191406 0.5625 c 0.074219 0.203124 0.152344 0.425781 0.234375 0.660156 c 0.089844 0.234375 0.179688 0.476562 0.261719 0.722656 c 0 -0.3125 -0.003906 -0.648438 -0.011719 -1.003906 c -0.007812 -0.363282 -0.015625 -0.730469 -0.023437 -1.105469 c -0.007813 -0.375 -0.015625 -0.75 -0.023438 -1.132813 c -0.007812 -0.386718 -0.007812 -0.757812 -0.007812 -1.113281 h 1.28125 c -0.023438 0.457031 -0.046875 0.933594 -0.070313 1.421875 c -0.019531 0.484375 -0.046875 0.964844 -0.078125 1.449219 c -0.027344 0.476563 -0.066406 0.949219 -0.109375 1.414063 c -0.039062 0.464843 -0.085937 0.90625 -0.136719 1.324218 h -1.148437 c -0.164063 -0.382812 -0.328125 -0.789062 -0.492187 -1.222656 c -0.167969 -0.441406 -0.332032 -0.863281 -0.496094 -1.261719 c -0.164063 0.378907 -0.339844 0.792969 -0.519532 1.242188 c -0.179687 0.445312 -0.34375 0.859375 -0.492187 1.242187 h -1.148437 c -0.058594 -0.417968 -0.113282 -0.859375 -0.15625 -1.324218 c -0.046876 -0.472657 -0.085938 -0.945313 -0.125 -1.421876 c -0.027344 -0.484374 -0.054688 -0.964843 -0.078126 -1.449218 c -0.023437 -0.488282 -0.039062 -0.960938 -0.054687 -1.414063 h 1.28125 c -0.007813 0.355469 -0.015625 0.726563 -0.023437 1.105469 c -0.007813 0.378906 -0.015626 0.761719 -0.023438 1.140625 c -0.007812 0.375 -0.015625 0.746094 -0.019531 1.105469 c -0.007813 0.355468 -0.011719 0.691406 -0.011719 1.007812 c 0.066406 -0.195312 0.140625 -0.40625 0.226562 -0.636718 c 0.089844 -0.230469 0.171876 -0.453126 0.246094 -0.679688 c 0.082032 -0.222656 0.15625 -0.425781 0.226563 -0.613281 c 0.066406 -0.1875 0.117187 -0.335938 0.15625 -0.445313 h 1.011719"/><path d="m 23.800781 35.023438 c 0.886719 0 1.570313 0.148437 2.058594 0.445312 c 0.488281 0.289062 0.730469 0.765625 0.730469 1.429688 c 0 0.671874 -0.246094 1.15625 -0.742188 1.457031 c -0.484375 0.296875 -1.179687 0.445312 -2.078125 0.445312 h -0.496093 v 1.894531 h -1.382813 v -5.535156 c 0.136719 -0.023437 0.285156 -0.046875 0.449219 -0.0625 c 0.171875 -0.019531 0.34375 -0.03125 0.515625 -0.039062 c 0.175781 -0.011719 0.34375 -0.019532 0.507812 -0.023438 c 0.164063 -0.007812 0.3125 -0.011718 0.4375 -0.011718 m 0.160157 0.96875 c -0.082032 0 -0.199219 0.003906 -0.351563 0.011718 c -0.140625 0 -0.253906 0.003906 -0.335937 0.015625 v 1.8125 h 0.5625 c 0.441406 0 0.777343 -0.070312 1 -0.207031 c 0.226562 -0.144531 0.335937 -0.390625 0.335937 -0.734375 c 0 -0.324219 -0.109375 -0.554687 -0.335937 -0.6875 c -0.21875 -0.140625 -0.511719 -0.210937 -0.878907 -0.210937"/><path d="m 29.515625 39.875 c 0.230469 0 0.421875 -0.019531 0.574219 -0.054688 c 0.15625 -0.042968 0.28125 -0.097656 0.371094 -0.164062 c 0.089843 -0.070312 0.148437 -0.148438 0.179687 -0.234375 c 0.035156 -0.089844 0.054687 -0.179687 0.054687 -0.273437 c 0 -0.113282 -0.039062 -0.214844 -0.121093 -0.304688 c -0.082031 -0.089844 -0.1875 -0.171875 -0.316407 -0.238281 c -0.128906 -0.070313 -0.269531 -0.132813 -0.425781 -0.1875 c -0.160156 -0.0625 -0.316406 -0.117188 -0.472656 -0.164063 c -0.210937 -0.0625 -0.429687 -0.128906 -0.652344 -0.207031 c -0.226562 -0.082031 -0.429687 -0.179687 -0.617187 -0.300781 c -0.179688 -0.121094 -0.332032 -0.269532 -0.449219 -0.441406 c -0.121094 -0.183594 -0.183594 -0.40625 -0.183594 -0.671876 c 0 -0.527343 0.210938 -0.9375 0.632813 -1.230468 c 0.425781 -0.296875 1.011718 -0.445313 1.753906 -0.445313 c 0.425781 0 0.796875 0.039063 1.113281 0.117188 c 0.320313 0.078125 0.589844 0.167969 0.808594 0.261719 l -0.40625 0.863281 c -0.1875 -0.085938 -0.398437 -0.160157 -0.628906 -0.21875 c -0.226563 -0.058594 -0.488281 -0.089844 -0.785157 -0.089844 c -0.738281 0 -1.105468 0.214844 -1.105468 0.644531 c 0 0.109375 0.039062 0.203125 0.113281 0.289063 c 0.074219 0.078125 0.167969 0.148437 0.28125 0.214843 c 0.121094 0.0625 0.25 0.117188 0.394531 0.164063 c 0.148438 0.046875 0.292969 0.09375 0.4375 0.136719 c 0.21875 0.066406 0.441406 0.140625 0.675782 0.226562 c 0.238281 0.078125 0.457031 0.1875 0.648437 0.324219 c 0.203125 0.136719 0.371094 0.304687 0.496094 0.507813 c 0.128906 0.199218 0.191406 0.453124 0.191406 0.761718 c 0 0.527344 -0.210937 0.933594 -0.640625 1.222656 c -0.417969 0.285157 -1.058594 0.425782 -1.921875 0.425782 c -0.578125 0 -1.039063 -0.046875 -1.382813 -0.144532 c -0.347656 -0.101562 -0.605468 -0.195312 -0.777343 -0.28125 l 0.40625 -0.90625 c 0.203125 0.097657 0.441406 0.1875 0.71875 0.273438 c 0.285156 0.082031 0.628906 0.125 1.035156 0.125"/></g></svg>