<svg xmlns="http://www.w3.org/2000/svg" viewBox="0 0 22 22"><g style="fill:#f60"><path d="m 13.226562 21.894531 c 3.957032 -0.472656 7.164063 -3.21875 8.371094 -7.171875 c 0.363282 -1.175781 0.511719 -2.808594 0.375 -4.058594 c -0.199218 -1.796874 -0.90625 -3.640624 -1.992187 -5.195312 c -0.6875 -0.980469 -1.90625 -2.257812 -2.835938 -2.964844 c -1.582031 -1.203125 -3.234375 -1.90625 -5.15625 -2.195312 c -0.667969 -0.101563 -2.035156 -0.101563 -2.761719 -0.003906 c -1.792968 0.246093 -3.566406 0.980468 -5.089843 2.105468 c -0.535157 0.394532 -1.632813 1.480469 -2.027344 2.007813 c -1.105469 1.46875 -1.722656 2.957031 -1.972656 4.765625 c -0.0664065 0.464844 -0.0664065 1.753906 0 2.253906 c 0.167969 1.328125 0.542969 2.488281 1.214843 3.78125 c 0.800782 1.542969 1.945313 2.96875 3.171876 3.945312 c 1.71875 1.367188 3.921874 2.335938 6.078124 2.667969 c 0.542969 0.085938 2.117188 0.121094 2.625 0.0625 m -0.625 -7.863281 c -0.25 -0.128906 1.132813 -0.777344 1.371094 -0.933594 c 0.132813 -0.089844 1.242188 -0.496094 -1.183594 0.421875 l -0.71875 0.398438 l 0.226563 -0.230469 l 0.289063 0.621094 l 0.121093 -0.582032 l 0.410157 0.160157 l -0.3125 -2.253907 c -0.019532 -0.125 -0.539063 2.898438 -0.539063 -0.328124 c 0 -1.835938 0.753906 0.539062 0.769531 0.5 c 0.078125 -0.199219 0.359375 0.152343 -0.179687 -0.820313 l 0.0625 0.117187 l 1.730469 -1.125 l 0.128906 -0.15625 l -2.921875 1.496094 c -2.097657 1.070313 1.761719 0.957032 1.726562 1.03125 c -0.027343 0.058594 -0.039062 0.804688 -0.097656 0.832032 c -0.074219 0.035156 -0.453125 -2.203126 -0.90625 -0.742188 l -0.457031 1.472656 v 0.683594 h 0.714844 c 0.804687 0 0.890624 0.027344 0.976562 0.28125 c 0.0625 0.1875 0.019531 0.34375 -0.136719 0.472656 l -0.589843 -2.953125 l -2.011719 3.058594 c -1.136719 1.722656 1.628906 -1.367187 1.527343 -1.421875"/><path d="m 0.238281 13.25 c 0.472657 3.957031 3.222657 7.160156 7.171875 8.371094 c 1.179688 0.359375 2.8125 0.511718 4.058594 0.375 c 1.796875 -0.199219 3.644531 -0.90625 5.195312 -1.992188 c 0.984376 -0.6875 2.261719 -1.90625 2.964844 -2.835937 c 1.207032 -1.582031 1.910156 -3.238281 2.199219 -5.15625 c 0.097656 -0.667969 0.097656 -2.035157 0 -2.761719 c -0.246094 -1.796875 -0.980469 -3.566406 -2.105469 -5.089844 c -0.394531 -0.535156 -1.480468 -1.632812 -2.003906 -2.027344 c -1.46875 -1.105468 -2.957031 -1.722656 -4.769531 -1.972656 c -0.464844 -0.066406 -1.753907 -0.066406 -2.253907 0 c -1.328124 0.167969 -2.488281 0.539063 -3.78125 1.210938 c -1.542968 0.804687 -2.96875 1.949218 -3.945312 3.175781 c -1.367188 1.71875 -2.335938 3.921875 -2.667969 6.078125 c -0.085937 0.542969 -0.121093 2.117188 -0.0625 2.625 m 7.863281 -0.625 c 0.128907 -0.25 0.777344 1.132812 0.9375 1.367188 c 0.085938 0.132812 0.496094 1.242187 -0.421874 -1.179688 l -0.398438 -0.71875 l 0.226562 0.226562 l -0.621093 0.285157 l 0.582031 0.125 l -0.160156 0.410156 l 2.257812 -0.3125 c 0.121094 -0.019531 -2.902344 -0.542969 0.324219 -0.542969 c 1.839844 0 -0.539063 0.757813 -0.5 0.773438 c 0.199219 0.074218 -0.152344 0.359375 0.820313 -0.179688 l -0.113282 0.0625 l 1.121094 1.730469 l 0.15625 0.125 l -1.492188 -2.917969 c -1.074218 -2.097656 -0.960937 1.761719 -1.035156 1.726563 c -0.054687 -0.027344 -0.804687 -0.039063 -0.832031 -0.097657 c -0.035156 -0.074218 2.207031 -0.453124 0.746094 -0.90625 l -1.472657 -0.460937 h -0.6875 v 0.71875 c 0 0.804687 -0.027343 0.890625 -0.277343 0.976563 c -0.191407 0.0625 -0.34375 0.019531 -0.476563 -0.140626 l 2.953125 -0.585937 l -3.058593 -2.015625 c -1.722657 -1.132812 1.371093 1.632812 1.421874 1.53125"/></g><g style="fill:#fff"><path d="m 9.859375 14.203125 v 1.320313 h -1.375 c -0.253906 0 -0.453125 0.214843 -0.453125 0.484374 c 0 0.265626 0.199219 0.480469 0.453125 0.480469 h 5.03125 c 0.253906 0 0.453125 -0.214843 0.453125 -0.480469 c 0 -0.269531 -0.199219 -0.484374 -0.453125 -0.484374 h -1.375 v -1.320313"/><path d="m 5.152344 6.460938 c -0.210938 0 -0.382813 0.183593 -0.382813 0.410156 v 7.421875 c 0 0.230469 0.171875 0.410156 0.382813 0.410156 h 11.695312 c 0.210938 0 0.382813 -0.179687 0.382813 -0.410156 v -7.421875 c 0 -0.226563 -0.171875 -0.410156 -0.382813 -0.410156 m -10.949218 1.082031 h 10.203124 v 6.078125 h -10.203124"/></g><path d="m 6.070312 10.890625 v -2.710937 h 9.90625 v 5.421874 h -9.90625" style="fill:#f60"/></svg>