<svg xmlns="http://www.w3.org/2000/svg" viewBox="0 0 22 22"><path d="m 18.214844 17.847656 c -8.902344 11.707032 -25.269532 -4.007812 -14.871094 -14.261718 c 8.886719 -10.339844 26.351562 4.453124 14.871094 14.261718" style="fill:#2f4e4e"/><path d="m 6.589844 5.617188 c -0.261719 0 -0.457032 0.027343 -0.585938 0.089843 c -0.132812 0.058594 -0.210937 0.15625 -0.25 0.28125 c -0.042968 0.121094 -0.0625 0.378907 -0.0625 0.773438 v 2.378906 c 0 0.394531 0.019532 0.652344 0.0625 0.773437 c 0.039063 0.117188 0.125 0.207032 0.25 0.269532 c 0.125 0.0625 0.316406 0.097656 0.585938 0.097656 h 0.292968 v -0.609375 c -0.132812 0 -0.21875 -0.011719 -0.257812 -0.03125 c -0.035156 -0.015625 -0.0625 -0.046875 -0.078125 -0.097656 c -0.015625 -0.054688 -0.015625 -0.1875 -0.015625 -0.402344 v -2.378906 c 0 -0.230469 0.007812 -0.378907 0.023438 -0.425781 c 0.019531 -0.050782 0.042968 -0.074219 0.078124 -0.085938 c 0.039063 -0.015625 0.125 -0.023438 0.25 -0.023438 v -0.609374 m 0.675782 0 l -0.492188 4.664062 h 0.992188 l 0.0625 -0.835938 h 0.34375 l 0.050781 0.835938 h 0.988281 l -0.554687 -4.664062 h -1.394531 m 4.613281 0 v 4.664062 h 1.113281 c 0.390625 0 0.644531 -0.03125 0.769531 -0.085938 c 0.128907 -0.054687 0.214844 -0.164062 0.269531 -0.316406 c 0.058594 -0.148437 0.085938 -0.382812 0.085938 -0.695312 v -0.433594 c 0 -0.304688 -0.03125 -0.527344 -0.113281 -0.671875 c -0.078125 -0.148437 -0.234375 -0.253906 -0.457031 -0.316406 c 0.199218 -0.058594 0.339843 -0.144531 0.40625 -0.25 c 0.070312 -0.109375 0.097656 -0.292969 0.097656 -0.566407 c 0 -0.402343 -0.042969 -0.6875 -0.136719 -0.867187 c -0.097656 -0.183594 -0.226563 -0.308594 -0.382813 -0.367187 c -0.15625 -0.0625 -0.390624 -0.089844 -0.695312 -0.089844 h -0.957031 m 2.480469 -0.003906 v 0.609374 c 0.128906 0 0.207031 0.007813 0.242187 0.023438 c 0.039063 0.011719 0.070313 0.035156 0.085937 0.085938 c 0.019532 0.046874 0.027344 0.195312 0.027344 0.425781 v 2.378906 c 0 0.210937 -0.003906 0.347656 -0.015625 0.402344 c -0.015625 0.050781 -0.042969 0.082031 -0.078125 0.097656 c -0.039062 0.015625 -0.125 0.03125 -0.261718 0.03125 v 0.609375 h 0.296874 c 0.265626 0 0.460938 -0.035156 0.585938 -0.097656 c 0.128906 -0.0625 0.210938 -0.152344 0.25 -0.269532 c 0.039062 -0.121093 0.0625 -0.378906 0.0625 -0.773437 v -2.378906 c 0 -0.394531 -0.023438 -0.652344 -0.0625 -0.773438 c -0.039062 -0.125 -0.121094 -0.222656 -0.25 -0.28125 c -0.128906 -0.0625 -0.324219 -0.089843 -0.585938 -0.089843 m -1.820312 0.792968 c 0.101562 0.007813 0.167969 0.019532 0.199219 0.035156 c 0.039062 0.015626 0.066406 0.046876 0.089843 0.109376 c 0.019532 0.058593 0.035157 0.15625 0.035157 0.304687 c 0 0.273437 -0.019531 0.441406 -0.042969 0.5 c -0.027344 0.054687 -0.082031 0.085937 -0.175781 0.085937 c -0.019531 0 -0.058594 0.007813 -0.105469 0.007813 m -2.679688 -0.890625 v 1.035156 h -0.828124 v 0.707032 h 0.828124 v 1.03125 h 0.554688 v -1.03125 h 0.832031 v -0.707032 h -0.832031 v -1.035156 m -2.707031 0.097656 c 0.050781 0.777344 0.097656 1.429688 0.148437 1.957032 h -0.328125 c 0.023438 -0.410157 0.082031 -1.0625 0.179688 -1.957032 m 4.832031 1.511719 c 0.144531 0.007813 0.238281 0.035156 0.269531 0.078125 c 0.035157 0.042969 0.054688 0.15625 0.054688 0.359375 v 0.433594 c 0 0.1875 -0.023438 0.308593 -0.0625 0.355469 c -0.035157 0.050781 -0.125 0.074218 -0.261719 0.078124 m -8.160156 2.023438 v 0.835938 h 11.601562 v -0.835938 m -6.144531 2.390625 v 0.371094 h 0.578125 v -0.371094 m -1.375 0.46875 c -0.125 0 -0.234375 0.015625 -0.328125 0.0625 c -0.09375 0.050781 -0.152344 0.121094 -0.191406 0.210937 c -0.039063 0.085938 -0.058594 0.226563 -0.058594 0.410157 c 0 0.128906 0.015625 0.242187 0.050781 0.339843 c 0.035156 0.089844 0.140625 0.195313 0.304688 0.3125 c 0.195312 0.136719 0.304687 0.210938 0.328125 0.238282 c 0.019531 0.03125 0.023437 0.097656 0.023437 0.207031 c 0 0.078125 -0.007812 0.136719 -0.023437 0.164063 c -0.019531 0.023437 -0.039063 0.03125 -0.078125 0.03125 c -0.039063 0 -0.066406 -0.015626 -0.078125 -0.050782 c -0.011719 -0.039062 -0.019531 -0.117187 -0.019531 -0.242187 v -0.140625 h -0.492188 v 0.109375 c 0 0.191406 0.015625 0.339843 0.050781 0.433593 c 0.039063 0.09375 0.109375 0.164063 0.210938 0.21875 c 0.101562 0.054688 0.226562 0.085938 0.371093 0.085938 c 0.125 0 0.238282 -0.027344 0.328126 -0.078125 c 0.089843 -0.050781 0.152343 -0.121094 0.1875 -0.214844 c 0.039062 -0.097656 0.0625 -0.246093 0.0625 -0.433593 c 0 -0.167969 -0.027344 -0.292969 -0.078126 -0.382813 c -0.050781 -0.085937 -0.160156 -0.183594 -0.320312 -0.28125 c -0.121094 -0.074219 -0.203125 -0.132813 -0.242188 -0.171875 c -0.039062 -0.039062 -0.058593 -0.078125 -0.070312 -0.109375 c -0.003906 -0.035156 -0.007812 -0.082031 -0.007812 -0.152344 c 0 -0.054687 0.003906 -0.097656 0.019531 -0.121093 c 0.011719 -0.027344 0.035156 -0.035157 0.066406 -0.035157 c 0.039063 0 0.070313 0.015625 0.078125 0.046875 c 0.011719 0.027344 0.019531 0.085938 0.019531 0.195313 v 0.128906 h 0.492188 v -0.140625 c 0 -0.117188 -0.007813 -0.195312 -0.019531 -0.25 c -0.007813 -0.054688 -0.027344 -0.121094 -0.074219 -0.183594 c -0.046875 -0.066406 -0.113281 -0.117187 -0.199219 -0.152344 c -0.085938 -0.039062 -0.191406 -0.054687 -0.3125 -0.054687 m 2.480469 0 c -0.074219 0 -0.136719 0.023437 -0.199219 0.0625 c -0.054688 0.042969 -0.113281 0.101563 -0.15625 0.1875 l 0.019531 -0.207031 h -0.570312 v 2.304687 h 0.550781 v -1.554687 c 0 -0.175782 0.007812 -0.285156 0.019531 -0.328125 c 0.011719 -0.039063 0.039063 -0.050781 0.078125 -0.050781 c 0.039063 0 0.058594 0.007812 0.070313 0.042968 c 0.007812 0.035156 0.007812 0.132813 0.007812 0.292969 v 1.597656 h 0.5625 v -1.621093 c 0 -0.199219 -0.007812 -0.335938 -0.027343 -0.421876 c -0.015626 -0.089843 -0.058594 -0.164062 -0.121094 -0.21875 c -0.058594 -0.054687 -0.136719 -0.085937 -0.234375 -0.085937 m -1.683594 0.042969 v 2.304687 h 0.578125 v -2.304687" style="fill:#fff"/></svg>