
<svg xmlns="http://www.w3.org/2000/svg" xmlns:xlink="http://www.w3.org/1999/xlink" width="22px" height="22px" viewBox="0 0 22 22" version="1.1">
<g id="surface1">
<path style=" stroke:none;fill-rule:nonzero;fill:rgb(52.941176%,80.784314%,92.156863%);fill-opacity:1;" d="M 3.777344 18.242188 C -7.382812 9.304688 8.957031 -6.832031 18.835938 3.476562 C 28.734375 12.347656 13.285156 29.566406 3.777344 18.242188 Z M 3.777344 18.242188 "/>
<path style=" stroke:none;fill-rule:nonzero;fill:rgb(8.235294%,44.705882%,71.372549%);fill-opacity:1;" d="M 11.0625 17.53125 L 6.621094 16.324219 L 5.632812 5.464844 L 16.507812 5.464844 L 15.515625 16.324219 Z M 11.0625 17.53125 "/>
<path style=" stroke:none;fill-rule:nonzero;fill:rgb(20%,66.27451%,86.27451%);fill-opacity:1;" d="M 14.667969 15.632812 L 15.515625 6.351562 L 11.070312 6.351562 L 11.070312 16.609375 Z M 14.667969 15.632812 "/>
<path style=" stroke:none;fill-rule:nonzero;fill:rgb(100%,100%,100%);fill-opacity:1;" d="M 7.601562 7.507812 L 7.59375 8.851562 L 13.183594 8.851562 L 13.183594 9.71875 L 7.585938 9.71875 L 7.582031 11.066406 L 13.175781 11.066406 L 13.167969 12.597656 L 11.058594 13.328125 L 8.960938 12.597656 L 8.960938 11.933594 L 7.589844 11.933594 L 7.582031 13.546875 L 11.050781 14.753906 L 14.535156 13.546875 L 14.546875 11.117188 L 14.550781 10.632812 L 14.566406 7.507812 Z M 7.601562 7.507812 "/>
</g>
</svg>
