
<svg xmlns="http://www.w3.org/2000/svg" xmlns:xlink="http://www.w3.org/1999/xlink" width="22px" height="22px" viewBox="0 0 22 22" version="1.1">
<g id="surface1">
<path style=" stroke:none;fill-rule:nonzero;fill:rgb(41.176471%,41.176471%,41.176471%);fill-opacity:1;" d="M 5.128906 2.425781 C 13.246094 -4.773438 25.734375 6.582031 20.683594 16.085938 C 15.578125 25.691406 -1.3125 23.132812 0.121094 11.332031 C 0.550781 7.820312 2.480469 4.773438 5.128906 2.425781 Z M 5.128906 2.425781 "/>
<path style=" stroke:none;fill-rule:nonzero;fill:rgb(12.941176%,12.941176%,12.941176%);fill-opacity:1;" d="M 14.375 9.109375 L 13.773438 9.109375 L 13.773438 8.042969 C 13.773438 6.574219 12.425781 5.378906 10.761719 5.378906 C 9.101562 5.378906 7.753906 6.574219 7.753906 8.042969 L 7.753906 9.109375 L 7.152344 9.109375 C 6.484375 9.109375 5.945312 9.585938 5.945312 10.175781 L 5.945312 15.503906 C 5.945312 16.09375 6.484375 16.570312 7.152344 16.570312 L 14.375 16.570312 C 15.042969 16.570312 15.582031 16.09375 15.582031 15.503906 L 15.582031 10.175781 C 15.582031 9.585938 15.042969 9.109375 14.375 9.109375 Z M 10.761719 13.90625 C 10.097656 13.90625 9.558594 13.429688 9.558594 12.839844 C 9.558594 12.25 10.097656 11.773438 10.761719 11.773438 C 11.429688 11.773438 11.96875 12.25 11.96875 12.839844 C 11.96875 13.429688 11.429688 13.90625 10.761719 13.90625 Z M 12.628906 9.109375 L 8.898438 9.109375 L 8.898438 8.042969 C 8.898438 7.132812 9.734375 6.390625 10.761719 6.390625 C 11.792969 6.390625 12.628906 7.132812 12.628906 8.042969 Z M 12.628906 9.109375 "/>
</g>
</svg>
