
<svg xmlns="http://www.w3.org/2000/svg" xmlns:xlink="http://www.w3.org/1999/xlink" width="22px" height="22px" viewBox="0 0 22 22" version="1.1">
<g id="surface1">
<path style=" stroke:none;fill-rule:nonzero;fill:rgb(39.215686%,58.431373%,92.941176%);fill-opacity:1;" d="M 18.269531 3.882812 C 29.433594 12.820312 13.089844 28.960938 3.214844 18.648438 C -6.6875 9.777344 8.765625 -7.441406 18.269531 3.882812 Z M 18.269531 3.882812 "/>
<path style=" stroke:none;fill-rule:nonzero;fill:rgb(100%,100%,100%);fill-opacity:1;" d="M 10.851562 4.851562 C 9.085938 4.851562 7.550781 5.9375 6.785156 7.523438 C 4.949219 7.738281 3.515625 9.421875 3.515625 11.472656 C 3.515625 13.667969 5.15625 15.445312 7.183594 15.445312 L 15.128906 15.445312 C 16.816406 15.445312 18.1875 13.960938 18.1875 12.132812 C 18.1875 10.386719 16.929688 8.96875 15.347656 8.847656 C 14.929688 6.566406 13.074219 4.851562 10.851562 4.851562 M 9.015625 8.824219 L 9.773438 9.640625 L 8.082031 11.472656 L 9.773438 13.304688 L 9.015625 14.121094 L 6.570312 11.472656 L 9.015625 8.824219 M 12.683594 8.824219 L 15.128906 11.472656 L 12.683594 14.121094 L 11.929688 13.304688 L 13.621094 11.472656 L 11.929688 9.640625 L 12.683594 8.824219 "/>
</g>
</svg>
