
<svg xmlns="http://www.w3.org/2000/svg" xmlns:xlink="http://www.w3.org/1999/xlink" width="22px" height="22px" viewBox="0 0 22 22" version="1.1">
<g id="surface1">
<path style=" stroke:none;fill-rule:nonzero;fill:rgb(50.196078%,50.196078%,50.196078%);fill-opacity:1;" d="M 0.386719 8.453125 C 4.625 -11.882812 33.773438 9.949219 16.265625 20.285156 C 9.460938 24.71875 -1.789062 18.914062 0.386719 8.453125 Z M 0.386719 8.453125 "/>
<path style=" stroke:none;fill-rule:nonzero;fill:rgb(96.078431%,96.078431%,96.078431%);fill-opacity:1;" d="M 7.289062 4.585938 C 7.074219 4.585938 6.902344 4.757812 6.902344 4.96875 L 6.902344 5.871094 C 6.578125 5.953125 6.269531 6.078125 5.992188 6.246094 L 5.34375 5.605469 C 5.195312 5.457031 4.949219 5.457031 4.800781 5.605469 L 4.164062 6.234375 C 4.015625 6.382812 4.015625 6.621094 4.164062 6.773438 L 4.8125 7.410156 C 4.644531 7.6875 4.515625 7.988281 4.433594 8.3125 L 3.519531 8.3125 C 3.304688 8.3125 3.132812 8.480469 3.132812 8.691406 L 3.132812 9.578125 C 3.132812 9.789062 3.304688 9.960938 3.519531 9.960938 L 4.433594 9.960938 C 4.515625 10.28125 4.644531 10.585938 4.8125 10.859375 L 4.164062 11.5 C 4.015625 11.648438 4.015625 11.890625 4.164062 12.039062 L 4.800781 12.664062 C 4.949219 12.8125 5.195312 12.8125 5.34375 12.664062 L 5.992188 12.027344 C 6.269531 12.191406 6.578125 12.320312 6.902344 12.398438 L 6.902344 13.300781 C 6.902344 13.511719 7.074219 13.683594 7.289062 13.683594 L 8.1875 13.683594 C 8.398438 13.683594 8.570312 13.511719 8.570312 13.300781 L 8.570312 12.398438 C 8.898438 12.320312 9.203125 12.191406 9.484375 12.027344 L 10.128906 12.664062 C 10.28125 12.8125 10.523438 12.8125 10.675781 12.664062 L 11.308594 12.039062 C 11.460938 11.886719 11.460938 11.648438 11.308594 11.5 L 10.664062 10.859375 C 10.832031 10.585938 10.960938 10.28125 11.042969 9.960938 L 11.953125 9.960938 C 12.167969 9.960938 12.339844 9.789062 12.339844 9.578125 L 12.339844 8.691406 C 12.339844 8.480469 12.167969 8.3125 11.953125 8.3125 L 11.042969 8.3125 C 10.960938 7.988281 10.832031 7.6875 10.664062 7.410156 L 11.308594 6.773438 C 11.460938 6.621094 11.460938 6.382812 11.308594 6.234375 L 10.675781 5.605469 C 10.523438 5.457031 10.28125 5.457031 10.128906 5.605469 L 9.484375 6.246094 C 9.203125 6.078125 8.898438 5.953125 8.570312 5.871094 L 8.570312 4.96875 C 8.570312 4.757812 8.398438 4.585938 8.1875 4.585938 Z M 7.738281 7.582031 C 8.605469 7.582031 9.3125 8.277344 9.3125 9.136719 C 9.3125 9.996094 8.605469 10.691406 7.738281 10.691406 C 6.867188 10.691406 6.164062 9.996094 6.164062 9.136719 C 6.164062 8.277344 6.867188 7.582031 7.738281 7.582031 Z M 7.738281 7.582031 "/>
<path style=" stroke:none;fill-rule:nonzero;fill:rgb(96.078431%,96.078431%,96.078431%);fill-opacity:1;" d="M 14.335938 9.527344 C 14.148438 9.527344 13.996094 9.675781 13.996094 9.863281 L 13.996094 10.652344 C 13.710938 10.726562 13.441406 10.835938 13.195312 10.980469 L 12.628906 10.421875 C 12.496094 10.292969 12.28125 10.292969 12.148438 10.421875 L 11.589844 10.972656 C 11.457031 11.101562 11.457031 11.3125 11.589844 11.445312 L 12.160156 12.003906 C 12.011719 12.246094 11.898438 12.511719 11.828125 12.792969 L 11.023438 12.792969 C 10.835938 12.792969 10.683594 12.941406 10.683594 13.128906 L 10.683594 13.90625 C 10.683594 14.089844 10.835938 14.242188 11.023438 14.242188 L 11.828125 14.242188 C 11.898438 14.523438 12.011719 14.789062 12.160156 15.03125 L 11.589844 15.589844 C 11.457031 15.722656 11.457031 15.933594 11.589844 16.0625 L 12.148438 16.613281 C 12.28125 16.742188 12.496094 16.742188 12.628906 16.613281 L 13.195312 16.050781 C 13.441406 16.199219 13.710938 16.308594 13.996094 16.378906 L 13.996094 17.171875 C 13.996094 17.355469 14.148438 17.503906 14.335938 17.503906 L 15.125 17.503906 C 15.3125 17.503906 15.460938 17.355469 15.460938 17.171875 L 15.460938 16.378906 C 15.746094 16.308594 16.015625 16.199219 16.261719 16.050781 L 16.832031 16.613281 C 16.964844 16.742188 17.175781 16.742188 17.308594 16.613281 L 17.867188 16.0625 C 18 15.929688 18 15.71875 17.867188 15.589844 L 17.300781 15.03125 C 17.445312 14.789062 17.558594 14.523438 17.632812 14.242188 L 18.433594 14.242188 C 18.621094 14.242188 18.773438 14.089844 18.773438 13.90625 L 18.773438 13.128906 C 18.773438 12.941406 18.621094 12.792969 18.433594 12.792969 L 17.632812 12.792969 C 17.558594 12.511719 17.445312 12.246094 17.300781 12.003906 L 17.867188 11.445312 C 18 11.3125 18 11.101562 17.867188 10.972656 L 17.308594 10.421875 C 17.175781 10.292969 16.960938 10.292969 16.832031 10.421875 L 16.261719 10.980469 C 16.015625 10.835938 15.746094 10.726562 15.460938 10.652344 L 15.460938 9.863281 C 15.460938 9.675781 15.3125 9.527344 15.125 9.527344 Z M 14.730469 12.152344 C 15.492188 12.152344 16.109375 12.761719 16.109375 13.515625 C 16.109375 14.269531 15.492188 14.878906 14.730469 14.878906 C 13.964844 14.878906 13.347656 14.269531 13.347656 13.515625 C 13.347656 12.765625 13.964844 12.152344 14.730469 12.152344 Z M 14.730469 12.152344 "/>
</g>
</svg>
