
<svg xmlns="http://www.w3.org/2000/svg" xmlns:xlink="http://www.w3.org/1999/xlink" width="16px" height="16px" viewBox="0 0 16 16" version="1.1">
<g id="surface1">
<path style=" stroke:none;fill-rule:nonzero;fill:rgb(50.196078%,50.196078%,0%);fill-opacity:1;" d="M 12.1875 1.761719 C 6.285156 -3.472656 -2.796875 4.785156 0.875 11.699219 C 4.585938 18.6875 16.871094 16.824219 15.828125 8.242188 C 15.515625 5.6875 14.113281 3.472656 12.1875 1.761719 Z M 12.1875 1.761719 "/>
<path style=" stroke:none;fill-rule:nonzero;fill:rgb(100%,100%,100%);fill-opacity:1;" d="M 8.367188 6.253906 L 8.367188 4.671875 L 4.453125 4.671875 L 4.453125 11.800781 L 12.277344 11.800781 L 12.277344 6.253906 L 8.367188 6.253906 M 6.019531 11.007812 L 5.238281 11.007812 L 5.238281 10.214844 L 6.019531 10.214844 L 6.019531 11.007812 M 6.019531 9.421875 L 5.238281 9.421875 L 5.238281 8.632812 L 6.019531 8.632812 L 6.019531 9.421875 M 6.019531 7.839844 L 5.238281 7.839844 L 5.238281 7.046875 L 6.019531 7.046875 L 6.019531 7.839844 M 6.019531 6.253906 L 5.238281 6.253906 L 5.238281 5.460938 L 6.019531 5.460938 L 6.019531 6.253906 M 7.585938 11.007812 L 6.800781 11.007812 L 6.800781 10.214844 L 7.585938 10.214844 L 7.585938 11.007812 M 7.585938 9.421875 L 6.800781 9.421875 L 6.800781 8.632812 L 7.585938 8.632812 L 7.585938 9.421875 M 7.585938 7.839844 L 6.800781 7.839844 L 6.800781 7.046875 L 7.585938 7.046875 L 7.585938 7.839844 M 7.585938 6.253906 L 6.800781 6.253906 L 6.800781 5.460938 L 7.585938 5.460938 L 7.585938 6.253906 M 11.496094 11.007812 L 8.367188 11.007812 L 8.367188 10.214844 L 9.148438 10.214844 L 9.148438 9.421875 L 8.367188 9.421875 L 8.367188 8.632812 L 9.148438 8.632812 L 9.148438 7.839844 L 8.367188 7.839844 L 8.367188 7.046875 L 11.496094 7.046875 L 11.496094 11.007812 M 10.714844 7.839844 L 9.933594 7.839844 L 9.933594 8.632812 L 10.714844 8.632812 L 10.714844 7.839844 M 10.714844 9.421875 L 9.933594 9.421875 L 9.933594 10.214844 L 10.714844 10.214844 L 10.714844 9.421875 "/>
</g>
</svg>
