
<svg xmlns="http://www.w3.org/2000/svg" xmlns:xlink="http://www.w3.org/1999/xlink" width="22px" height="22px" viewBox="0 0 22 22" version="1.1">
<g id="surface1">
<path style=" stroke:none;fill-rule:nonzero;fill:rgb(100%,54.901961%,0%);fill-opacity:1;" d="M 4.007812 18.871094 C -13.191406 -3.925781 34.136719 -7.164062 18.949219 16.105469 C 15.484375 21.410156 8.5625 24.90625 4.007812 18.871094 Z M 4.007812 18.871094 "/>
<path style=" stroke:none;fill-rule:nonzero;fill:rgb(100%,100%,100%);fill-opacity:1;" d="M 13.054688 7.683594 L 13.917969 6.9375 C 13.914062 6.9375 13.917969 6.933594 13.917969 6.933594 C 13.214844 6.265625 12.226562 5.84375 11.117188 5.835938 C 10.011719 5.824219 8.988281 6.222656 8.234375 6.878906 C 8.234375 6.878906 8.234375 6.878906 8.234375 6.882812 L 9.039062 7.640625 C 9.570312 7.183594 10.289062 6.90625 11.074219 6.914062 C 11.863281 6.921875 12.558594 7.210938 13.054688 7.683594 Z M 13.054688 7.683594 "/>
<path style=" stroke:none;fill-rule:nonzero;fill:rgb(100%,100%,100%);fill-opacity:1;" d="M 16.199219 11.464844 L 17.0625 10.71875 C 15.546875 9.273438 13.414062 8.367188 11.019531 8.339844 C 8.628906 8.316406 6.421875 9.183594 4.796875 10.59375 L 5.601562 11.359375 C 7.664062 13.320312 8.699219 14.71875 10.769531 14.738281 C 12.84375 14.757812 13.425781 13.867188 16.199219 11.464844 Z M 16.199219 11.464844 "/>
</g>
</svg>
