
<svg xmlns="http://www.w3.org/2000/svg" xmlns:xlink="http://www.w3.org/1999/xlink" width="22px" height="22px" viewBox="0 0 22 22" version="1.1">
<g id="surface1">
<path style=" stroke:none;fill-rule:nonzero;fill:rgb(100%,54.901961%,0%);fill-opacity:1;" d="M 20.214844 17.398438 C 27.371094 7.167969 11.253906 -5.648438 2.832031 2.679688 C -5.109375 10.535156 5.160156 25.1875 15.03125 21.378906 C 17.097656 20.582031 18.90625 19.269531 20.214844 17.398438 Z M 20.214844 17.398438 "/>
<path style=" stroke:none;fill-rule:nonzero;fill:rgb(100%,100%,100%);fill-opacity:1;" d="M 6.382812 12.464844 C 6.328125 12.300781 6.371094 12.191406 6.636719 11.832031 L 6.742188 11.691406 L 4.96875 9.996094 C 3.257812 8.367188 3.191406 8.296875 3.15625 8.109375 C 3.085938 7.730469 3.140625 7.527344 3.386719 7.253906 C 3.628906 6.976562 3.820312 6.902344 4.195312 6.933594 C 4.382812 6.953125 4.457031 7.011719 6.203125 8.601562 L 8.015625 10.25 L 8.234375 10.054688 C 8.523438 9.796875 8.632812 9.75 8.800781 9.816406 C 8.949219 9.878906 12.984375 13.609375 13.101562 13.800781 C 13.25 14.039062 13.15625 14.191406 12.121094 15.359375 C 11.59375 15.953125 11.109375 16.472656 11.046875 16.515625 C 10.792969 16.6875 10.746094 16.648438 8.511719 14.566406 C 6.773438 12.945312 6.433594 12.609375 6.382812 12.464844 Z M 12.511719 15.566406 C 12.464844 15.140625 12.960938 14.890625 13.273438 15.183594 C 13.445312 15.339844 13.675781 15.421875 13.9375 15.417969 C 14.691406 15.402344 15.417969 14.507812 15.332031 13.703125 C 15.292969 13.34375 15.191406 13.167969 14.699219 12.613281 C 13.84375 11.65625 13.550781 10.589844 13.863281 9.578125 C 14.101562 8.792969 14.53125 8.308594 15.265625 7.988281 C 15.664062 7.816406 16.546875 7.722656 16.667969 7.835938 C 16.707031 7.871094 16.785156 8.054688 16.847656 8.246094 C 16.90625 8.441406 16.964844 8.585938 16.976562 8.574219 C 16.988281 8.5625 16.957031 8.421875 16.910156 8.261719 C 16.828125 7.996094 16.871094 7.785156 16.980469 7.886719 C 17.0625 7.960938 17.335938 8.863281 17.292969 8.910156 C 17.273438 8.9375 17.199219 8.890625 17.121094 8.800781 C 17.027344 8.6875 16.980469 8.664062 16.960938 8.714844 C 16.945312 8.757812 16.8125 8.761719 16.65625 8.730469 C 15.605469 8.511719 14.648438 9.269531 14.640625 10.332031 C 14.632812 10.976562 14.773438 11.277344 15.464844 12.085938 C 16.128906 12.863281 16.320312 13.382812 16.226562 14.160156 C 16.160156 14.691406 15.90625 15.183594 15.457031 15.648438 C 15.027344 16.09375 14.636719 16.296875 14.117188 16.355469 C 13.726562 16.394531 13.140625 16.226562 12.796875 15.976562 C 12.566406 15.804688 12.535156 15.761719 12.511719 15.566406 Z M 17.320312 8.515625 C 17.195312 8.089844 17.199219 7.929688 17.324219 8.046875 C 17.390625 8.109375 17.667969 8.980469 17.652344 9.074219 C 17.621094 9.230469 17.433594 8.914062 17.320312 8.515625 Z M 17.671875 8.722656 C 17.535156 8.25 17.523438 8.074219 17.644531 8.1875 C 17.726562 8.265625 18.035156 9.230469 18.003906 9.304688 C 17.945312 9.4375 17.816406 9.210938 17.671875 8.722656 Z M 17.671875 8.722656 "/>
</g>
</svg>
