<svg xmlns="http://www.w3.org/2000/svg" viewBox="0 0 22 22"><path d="m 19.734375 16.828125 c 7.910156 -11.25 -6.699219 -22.648437 -16.019531 -13.480469 c -8.78125 8.636719 -0.640625 22.054688 10.289062 17.859375 c 2.277344 -0.875 4.277344 -2.3125 5.730469 -4.378906" style="fill:#7e7e7e"/><g style="fill:#fff"><path d="m 9.933594 13.402344 v 1.152344 h -1.289063 c -0.234375 0 -0.421875 0.191406 -0.421875 0.421874 c 0 0.234376 0.1875 0.425782 0.421875 0.425782 h 4.710938 c 0.234375 0 0.421875 -0.191406 0.421875 -0.425782 c 0 -0.230468 -0.1875 -0.421874 -0.421875 -0.421874 h -1.289063 v -1.152344"/><path d="m 5.527344 6.632812 c -0.199219 0 -0.359375 0.160157 -0.359375 0.359376 v 6.492187 c 0 0.195313 0.160156 0.355469 0.359375 0.355469 h 10.945312 c 0.199219 0 0.359375 -0.160156 0.359375 -0.355469 v -6.492187 c 0 -0.199219 -0.160156 -0.359376 -0.359375 -0.359376 m -10.242187 0.949219 h 9.542969 v 5.308594 h -9.542969"/></g><g style="fill:#3f3f3f"><path d="m 8.824219 21.925781 c -3.957031 -0.476562 -7.164063 -3.253906 -8.371094 -7.246093 c -0.3632812 -1.1875 -0.515625 -2.839844 -0.375 -4.101563 c 0.199219 -1.816406 0.90625 -3.683594 1.988281 -5.25 c 0.6875 -0.992187 1.90625 -2.28125 2.835938 -2.996094 c 1.585937 -1.214843 3.238281 -1.929687 5.15625 -2.21875 c 0.667968 -0.1015622 2.035156 -0.1015622 2.765625 -0.003906 c 1.792969 0.25 3.566406 0.988281 5.089843 2.128906 c 0.535157 0.398438 1.632813 1.496094 2.027344 2.027344 c 1.105469 1.480469 1.722656 2.988281 1.972656 4.816406 c 0.0625 0.472657 0.0625 1.769531 0 2.28125 c -0.171874 1.339844 -0.539062 2.511719 -1.214843 3.816407 c -0.800781 1.5625 -1.945313 3 -3.171875 3.988281 c -1.71875 1.382812 -3.925782 2.359375 -6.078125 2.699219 c -0.542969 0.085937 -2.117188 0.121093 -2.625 0.058593 m 4.75 -6.566406 c 0.246093 -0.132813 0.285156 -0.542969 0.058593 -0.71875 c -0.101562 -0.082031 -0.171874 -0.089844 -0.824218 -0.089844 h -0.707032 v -0.691406 l 4.5625 -0.023437 l 0.085938 -0.105469 c 0.078125 -0.097657 0.082031 -0.214844 0.082031 -3.476563 c 0 -1.859375 -0.011719 -3.410156 -0.027343 -3.449218 c -0.078126 -0.203126 0.085937 -0.195313 -5.835938 -0.195313 h -5.558594 l -0.128906 0.125 l -0.125 0.128906 v 3.339844 c 0 2.359375 0.011719 3.375 0.046875 3.453125 c 0.027344 0.054688 0.097656 0.125 0.152344 0.152344 c 0.074219 0.035156 0.796875 0.050781 2.339843 0.050781 h 2.234376 v 0.691406 h -0.714844 c -0.804688 0 -0.894532 0.027344 -0.976563 0.28125 c -0.0625 0.191407 -0.019531 0.347657 0.136719 0.480469 l 0.128906 0.109375 h 2.472656 c 2.078126 0 2.492188 -0.011719 2.59375 -0.066406"/><path d="m 6.242188 10.230469 v -2.625 h 9.507812 v 5.253906 h -9.507812"/></g></svg>