<svg xmlns="http://www.w3.org/2000/svg" viewBox="0 0 22 22"><path d="m 0.0703125 11.988281 c 0.015625 -2.277343 0.9140625 -5.003906 2.2929685 -6.957031 c 1.671875 -2.375 4.371094 -4.214844 7.113281 -4.855469 c 0.601563 -0.1367185 2 -0.2656248 2.628907 -0.238281 c 2.609375 0.1210938 5.289062 1.457031 7.121093 3.554688 c 0.996094 1.136718 1.832032 2.675781 2.253907 4.144531 c 1.101562 3.824219 -0.171875 7.988281 -3.371094 11.003906 c -1.914063 1.8125 -3.902344 2.816406 -6.3125 3.199219 c -2.886719 0.457031 -6.085937 -0.464844 -8.335937 -2.40625 c -1.761719 -1.527344 -2.96875 -3.652344 -3.242188 -5.734375 c -0.042969 -0.300781 -0.089844 -0.671875 -0.113281 -0.824219 c -0.0195315 -0.148438 -0.0390628 -0.550781 -0.0351565 -0.886719" style="fill:#ff8c00"/><path d="m 17.363281 9.898438 c 0.210938 -0.230469 0.1875 -0.601563 -0.0625 -0.832032 l -4.484375 -4.160156 c -0.246094 -0.230469 -0.621094 -0.230469 -0.832031 0 l -7.34375 7.917969 c -0.214844 0.230469 -0.1875 0.601562 0.0625 0.832031 l 4.480469 4.15625 c 0.25 0.234375 0.621094 0.234375 0.835937 0 m 6.894531 -8.328125 l -6.570312 7.078125 l -4.480469 -4.15625 l 6.566407 -7.082031" style="fill-opacity:0.101961"/><path d="m 16.882812 9.066406 l -6.761718 7.289063 l -4.484375 -4.15625 l 6.761719 -7.292969" style="fill:#fff"/><path d="m 17.332031 9.484375 c 0.214844 -0.230469 0.1875 -0.605469 -0.0625 -0.832031 l -4.484375 -4.164063 c -0.246094 -0.226562 -0.621094 -0.226562 -0.835937 0.003907 l -7.339844 7.914062 c -0.214844 0.230469 -0.1875 0.601562 0.0625 0.832031 l 4.480469 4.160157 c 0.25 0.230468 0.621094 0.230468 0.835937 0 m 6.894531 -8.332032 l -6.570312 7.082032 l -4.484375 -4.160157 l 6.570313 -7.082031" style="fill:#7f7f7f"/><path d="m 7.941406 15.109375 c 0.210938 -0.226563 0.183594 -0.601563 -0.0625 -0.832031 c -0.25 -0.226563 -0.621094 -0.226563 -0.835937 0 c -0.214844 0.230468 -0.1875 0.605468 0.0625 0.832031 c 0.246093 0.230469 0.621093 0.230469 0.835937 0" style="fill:#bcbcbc"/><path d="m 7.46875 11.570312 l 0.222656 0.207032 l -0.578125 0.625 l -0.222656 -0.207032" style="fill:#d2d2d2"/><g style="fill:#dcdcdc"><path d="m 7.050781 11.570312 l 0.226563 0.210938 l -0.195313 0.207031 l -0.222656 -0.207031"/><path d="m 10.160156 14.066406 l -0.582031 0.625 l 0.671875 0.625 l 0.582031 -0.625 m -0.640625 -0.207031 l 0.222656 0.207031 l -0.191406 0.207032 l -0.226562 -0.207032"/></g><path d="m 8.8125 12.820312 l 0.226562 0.207032 l -0.195312 0.207031 l -0.222656 -0.207031" style="fill:#202020"/><path d="m 8.398438 12.820312 l 0.222656 0.207032 l -0.195313 0.207031 l -0.222656 -0.207031" style="fill:#dcdcdc"/><path d="m 8.425781 13.234375 l 0.226563 0.210937 l -0.195313 0.207032 l -0.222656 -0.207032" style="fill:#202020"/><path d="m 8.84375 13.234375 l 0.222656 0.210937 l -0.191406 0.207032 l -0.222656 -0.207032" style="fill:#dcdcdc"/><path d="m 15.660156 9.191406 l -4.734375 -0.167968 l 0.234375 6.214843 l 4.539063 -4.894531" style="fill:#f4f4f4"/><path d="M 9.765625 7.746094 L 7.054688 10.667969 L 9.898438 10.75 L 9.769531 7.746094 " style="fill:#c0c0c0"/></svg>