<svg xmlns="http://www.w3.org/2000/svg" viewBox="0 0 16 16"><path d="m 0.828125 11.335938 c 4.367187 8.867187 17.335937 3.925781 14.859375 -5.070313 c -2.332031 -8.472656 -14.179688 -8.230469 -15.558594 -0.015625 c -0.289062 1.714844 -0.1054685 3.457031 0.699219 5.085938" style="fill:#ff8c00"/><path d="M 9.488281 2.632812 C 6.5 1.820312 3.425781 3.621094 2.625 6.65625 C 1.820312 9.691406 3.597656 12.8125 6.585938 13.625 C 9.578125 14.4375 12.652344 12.636719 13.453125 9.601562 C 14.253906 6.566406 12.480469 3.445312 9.488281 2.632812 Z M 9.035156 4.351562 C 10.59375 4.773438 11.753906 6.050781 12.007812 7.597656 L 12.917969 7.5 L 11.613281 9.699219 L 9.707031 7.824219 L 10.664062 7.714844 C 10.480469 6.703125 9.726562 5.894531 8.699219 5.617188 C 7.636719 5.328125 6.503906 5.710938 5.863281 6.570312 L 4.78125 5.769531 C 5.738281 4.480469 7.4375 3.917969 9.035156 4.351562 Z M 4.457031 6.578125 L 6.375 8.414062 L 5.417969 8.519531 C 5.597656 9.53125 6.355469 10.363281 7.375 10.640625 C 8.441406 10.929688 9.558594 10.5625 10.207031 9.707031 L 11.289062 10.507812 C 10.3125 11.792969 8.640625 12.34375 7.042969 11.90625 C 5.488281 11.484375 4.316406 10.179688 4.074219 8.636719 L 3.167969 8.714844 L 4.457031 6.582031 Z M 4.457031 6.578125 " style="fill:#fff"/></svg>