<svg xmlns="http://www.w3.org/2000/svg" viewBox="0 0 16 16"><path d="m 12.113281 1.167969 c 14.085938 12.085937 -14.871093 23.710937 -11.898437 5.015625 c 0.652344 -4.101563 8.105468 -8.273438 11.898437 -5.015625" style="fill:#9782c1"/><g transform="scale(0.0625)" style="fill:#fff;stroke:#fff;stroke-width:1.01"><path d="m 61.5 86.1875 c 0 29.625 0 59.25 0 88.875 c 3.3125 0.625 14 3.5625 12.6875 -3 c 0.125 -22.0625 0.3125 -44.125 0.4375 -66.1875 c 9.4375 23 18.75 46 28.1875 69 c 5.1875 0.6875 11.9375 1.75 16.8125 0.3125 c 0 -29.6875 0 -59.375 0 -89 c -3.3125 -0.625 -14.0625 -3.5625 -12.6875 3 c -0.1875 22 0.3125 43.9375 -0.5625 65.875 c -9.6875 -22.75 -18.625 -45.9375 -28.4375 -68.5625 c -4.875 -2.0625 -10.5 -0.625 -15.6875 -1.125 l -0.6875 0.75"/><path d="m 136.25 81.0625 c -1 6.4375 -0.25 12.5625 7.8125 9.9375 c 7.8125 -1.6875 11.0625 1.1875 9.3125 9.125 c 0.6875 20.5 -0.6875 41.125 1.5 61.5625 c 2.4375 9.6875 12.5625 14.9375 22.125 14.125 c 4.0625 -1 13.5625 3.125 12.3125 -3.75 c 2.25 -7.125 -3.25 -7.8125 -8.875 -6.875 c -5.125 0.25 -14.4375 -0.375 -13.375 -7.875 c -1.125 -25.1875 -1 -50.4375 -1.4375 -75.6875 c -6.9375 -2 -15.3125 -0.5 -22.75 -1.25 c -2.0625 0.4375 -5.1875 -1 -6.625 0.6875"/></g></svg>