<svg xmlns="http://www.w3.org/2000/svg" viewBox="0 0 16 16"><path d="m 12.113281 1.167969 c 14.085938 12.085937 -14.871093 23.710937 -11.898437 5.015625 c 0.652344 -4.101563 8.105468 -8.273438 11.898437 -5.015625" style="fill:#9782c1"/><g transform="scale(0.0625)" style="fill:#fff;stroke:#fff;stroke-width:1.01"><path d="m 61.5 85.1875 c 0 29.625 0 59.25 0 88.875 c 3.3125 0.625 14 3.5 12.6875 -3 c 0.125 -22.0625 0.3125 -44.0625 0.5 -66.0625 c 9.5 23.125 19 46.25 28.5 69.375 c 5.0625 0.5625 11.6875 1.3125 16.4375 -0.3125 c 0 -29.625 0 -59.25 0 -88.875 c -3.3125 -0.625 -14 -3.5625 -12.6875 3 c -0.1875 22 -0.3125 44.0625 -0.5 66.0625 c -9.5 -23.125 -19 -46.25 -28.5 -69.375 c -4.9375 -0.5625 -11.875 -1.3125 -16.4375 0.3125"/><path d="m 164.75 105.3125 c -15.4375 -0.5 -28.125 12.9375 -29.75 27.75 c -3 16 3.3125 35.4375 19.6875 41.375 c 12.0625 4.3125 25.375 1.125 37.125 -2.75 c 0.6875 -3.375 1.125 -8 -0.1875 -11.4375 c -10.875 3.0625 -23.25 9.4375 -34.3125 3 c -6.9375 -3.5625 -10.375 -11.4375 -10 -18.9375 c 15.6875 -1.4375 31.75 -0.5 47.5625 -0.75 c 1.4375 -5.5625 -0.4375 -12.5 -1.6875 -18.375 c -2.5 -11.5625 -13.3125 -20.1875 -25.1875 -19.875 c -1.0625 0 -2.1875 0 -3.25 0 m 2.6875 10.3125 c 9.625 -0.1875 15 9.75 15.375 18.25 c -11.625 0 -23.25 0 -34.875 0 c 0.0625 -10.0625 9.25 -19.125 19.5 -18.25"/></g></svg>