<svg xmlns="http://www.w3.org/2000/svg" viewBox="0 0 16 16"><path d="m 11.425781 0.0625 c -23.007812 -1.605469 -5.761719 29.347656 4.011719 8.964844 c 1.347656 -3.140625 0.363281 -7.824219 -4.011719 -8.964844" style="fill:#ff8c00"/><path d="m 8.75 6.304688 c 0 0.464843 -0.375 0.839843 -0.839844 0.839843 c -0.464844 0 -0.839844 -0.375 -0.839844 -0.839843 c 0 -0.464844 0.375 -0.84375 0.839844 -0.84375 c 0.464844 0 0.839844 0.378906 0.839844 0.84375" style="fill:#cef2e2"/><g style="fill:#fff"><path d="m 3.332031 6.304688 c 0 1.261718 0.515625 2.40625 1.34375 3.234374 l 0.441407 -0.441406 c -0.71875 -0.714844 -1.160157 -1.699218 -1.160157 -2.792968 c 0 -1.09375 0.441407 -2.082032 1.160157 -2.796876 l -0.441407 -0.4375 c -0.828125 0.828126 -1.34375 1.972657 -1.34375 3.234376 m 1.230469 0 c 0 0.921874 0.375 1.757812 0.980469 2.363281 h 0.003906 l 0.4375 -0.4375 c -0.492187 -0.492188 -0.796875 -1.171875 -0.796875 -1.925781 c 0 -0.753907 0.304688 -1.433594 0.796875 -1.925782 l -0.4375 -0.441406 c 0 0 -0.003906 0 -0.003906 0 c -0.605469 0.605469 -0.980469 1.445312 -0.980469 2.367188 m 1.226562 0 c 0 0.582031 0.238282 1.113281 0.621094 1.496093 h 0.003906 l 0.4375 -0.4375 c -0.269531 -0.269531 -0.4375 -0.644531 -0.4375 -1.058593 c 0 -0.414063 0.167969 -0.789063 0.4375 -1.058594 l -0.4375 -0.441406 c 0 0 -0.003906 0 -0.003906 0 c -0.382812 0.386718 -0.621094 0.914062 -0.621094 1.5 m 3.183594 1.058593 l 0.4375 0.4375 c 0.386719 -0.382812 0.625 -0.914062 0.625 -1.496093 c 0 -0.585938 -0.238281 -1.113282 -0.625 -1.5 l -0.4375 0.441406 c 0.269532 0.269531 0.433594 0.644531 0.433594 1.058594 c 0 0.414062 -0.164062 0.789062 -0.433594 1.058593 m 0.867188 0.867188 l 0.4375 0.4375 c 0.605468 -0.605469 0.984375 -1.441407 0.984375 -2.363281 c 0 -0.921876 -0.375 -1.761719 -0.984375 -2.367188 l -0.4375 0.441406 c 0.492187 0.492188 0.796875 1.171875 0.796875 1.925782 c 0 0.753906 -0.304688 1.433593 -0.796875 1.925781 m 0.867187 0.867187 l 0.4375 0.441406 c 0.832031 -0.828124 1.347657 -1.972656 1.347657 -3.234374 c 0 -1.261719 -0.515626 -2.40625 -1.347657 -3.234376 l -0.4375 0.4375 c 0.714844 0.714844 1.160157 1.703126 1.160157 2.796876 c 0 1.09375 -0.445313 2.078124 -1.160157 2.792968"/><path d="m 7.894531 8.613281 c -0.972656 0 -1.753906 0.589844 -1.753906 1.324219 v 0.945312 h -0.398437 v 2.996094 h 4.511718 v -2.996094 h -0.371094 v -0.945312 c 0 -0.734375 -0.78125 -1.324219 -1.75 -1.324219 m -0.175781 0.578125 h 0.144531 c 0.589844 0 1.0625 0.445313 1.0625 0.992188 l 0.003907 0.699218 h -2.273438 l -0.003906 -0.699218 c 0 -0.546875 0.476563 -0.992188 1.066406 -0.992188 m 0.097657 2.464844 c 0.277343 0.007812 0.496093 0.179688 0.496093 0.386719 c 0 0.140625 -0.097656 0.269531 -0.257812 0.339843 l 0.140625 0.429688 c -0.101563 0.03125 -0.214844 0.046875 -0.328125 0.046875 h -0.144531 c -0.117188 0 -0.226563 -0.015625 -0.332032 -0.046875 l 0.140625 -0.433594 c -0.15625 -0.070312 -0.25 -0.199218 -0.25 -0.335937 c 0 -0.203125 0.210938 -0.375 0.484375 -0.386719" style="fill-rule:evenodd"/></g><path d="m 7.789062 5.546875 c -0.820312 0.023437 -1.027343 1.265625 -0.300781 1.597656 c 0.574219 0.351563 1.386719 -0.132812 1.277344 -0.820312 c -0.023437 -0.511719 -0.472656 -0.847657 -0.976563 -0.777344" style="fill:#fffafa"/></svg>