<svg xmlns="http://www.w3.org/2000/svg" viewBox="0 0 16 16"><path d="m 3.296875 14.4375 c 12.03125 8 19.4375 -17.503906 3.890625 -14.128906 c -6.425781 1.441406 -10.328125 10.464844 -3.890625 14.128906" style="fill:#ff8c00"/><path d="m 9.746094 4.035156 c -0.828125 -0.011718 -1.800782 0.207032 -2.785156 0.6875 c -1.363282 0.664063 -2.378907 1.699219 -2.84375 2.828125 c -0.128907 -0.058593 -0.269532 -0.136719 -0.410157 -0.226562 c -0.671875 -0.441407 -1.035156 -1.097657 -1.035156 -1.097657 c 0 0 -0.175781 1.304688 0.378906 2.101563 c 0.285157 0.40625 0.585938 0.667969 0.808594 0.820313 c 0.027344 0.359374 0.117187 0.71875 0.289063 1.066406 c 0.957031 1.960937 3.695312 2.59375 6.113281 1.410156 c 1.664062 -0.808594 2.058593 -2.078125 2.011719 -3.679688 c 0.105468 -0.074218 0.195312 -0.144531 0.273437 -0.226562 c 0.042969 0.011719 0.089844 0.027344 0.121094 0.046875 c 0.289062 0.183594 0.363281 0.546875 0.363281 0.546875 c 0 0 0.425781 -0.894531 0.136719 -1.660156 c -0.203125 -0.539063 -0.722657 -0.773438 -1.125 -0.835938 c -0.011719 -0.082031 -0.015625 -0.160156 -0.03125 -0.242187 c -0.15625 -0.984375 -1.058594 -1.515625 -2.265625 -1.539063 m -4.410156 0.472656 c 0 0 -0.5 0.367188 -0.703126 0.914063 c 0 0 0.246094 0.457031 0.246094 0.457031 c 0 0 0.058594 -0.089844 0.394532 -0.289062 c -0.0625 -0.5625 0.0625 -1.082032 0.0625 -1.082032 m 4.433593 0.101563 c 0.40625 0 0.621094 0.285156 0.621094 0.648437 c 0 0.367188 -0.238281 0.601563 -0.621094 0.601563 c -0.386719 0 -0.65625 -0.164063 -0.65625 -0.625 c 0 -0.457031 0.25 -0.625 0.65625 -0.625 m -5.835937 0.308594 c 0 0 -0.515625 0.746093 -0.53125 1.582031 c 0 0.007812 0.5625 0.503906 0.5625 0.503906 c 0 0 0.046875 -0.175781 0.425781 -0.625 c -0.363281 -0.714844 -0.457031 -1.460937 -0.457031 -1.460937 m 7.210937 0.761719 c 0.019531 0 0.019531 0 0.03125 0 c -0.117187 0.035156 -0.359375 0.167968 -0.515625 0.625 c -0.140625 0.398437 -0.09375 0.699218 -0.09375 0.699218 c 0 0 -0.554687 0.339844 -0.578125 1.019532 c -0.015625 0.324218 0.109375 0.683593 0.867188 0.636718 c 0.261719 0.023438 1.15625 -0.425781 1.15625 -0.425781 c 0 0 -1.132813 1.003906 -2 0.785156 c -0.660157 -0.167969 -0.664063 -0.671875 -0.683594 -0.898437 c -0.046875 -0.53125 0.59375 -1.109375 0.59375 -1.109375 c 0 0 -0.050781 -0.621094 0.191406 -0.910157 c 0.472657 -0.589843 0.863281 -0.398437 1.03125 -0.421874" style="fill:#fff"/></svg>