<svg xmlns="http://www.w3.org/2000/svg" viewBox="0 0 16 16"><path d="m 13.269531 2.738281 c 8.117188 6.550781 -3.765625 18.382813 -10.949219 10.824219 c -7.199218 -6.503906 4.035157 -19.125 10.949219 -10.824219" style="fill:#ff8c00"/><path d="m 4.636719 3.765625 c -0.851563 0.941406 -1.371094 2.246094 -1.371094 3.683594 c 0 1.4375 0.519531 2.742187 1.371094 3.683593 l 0.785156 -0.867187 c -0.65625 -0.722656 -1.0625 -1.714844 -1.0625 -2.816406 c 0 -1.101563 0.40625 -2.09375 1.0625 -2.816407 m 5.878906 -0.867187 l -0.785156 0.867187 c 0.65625 0.722657 1.0625 1.714844 1.0625 2.816407 c 0 1.101562 -0.40625 2.09375 -1.0625 2.816406 l 0.785156 0.867187 c 0.851563 -0.941406 1.371094 -2.246093 1.371094 -3.683593 c 0 -1.4375 -0.519531 -2.742188 -1.371094 -3.683594 m -5.292969 1.515625 c -0.5 0.554688 -0.800781 1.324219 -0.800781 2.167969 c 0 0.84375 0.300781 1.613281 0.800781 2.167969 l 0.753907 -0.832032 c -0.3125 -0.34375 -0.507813 -0.8125 -0.507813 -1.335937 c 0 -0.527344 0.195313 -0.992188 0.507813 -1.335938 m 3.167969 -0.832031 l -0.753907 0.832031 c 0.3125 0.34375 0.507813 0.8125 0.507813 1.335938 c 0 0.527343 -0.195313 0.992187 -0.507813 1.335937 l 0.753907 0.832032 c 0.5 -0.550782 0.800781 -1.324219 0.800781 -2.167969 c 0 -0.84375 -0.300781 -1.613281 -0.800781 -2.164063 m -1.960938 1.007813 c -0.578125 0 -1.046875 0.515625 -1.046875 1.15625 c 0 0.640625 0.46875 1.15625 1.046875 1.15625 c 0.578125 0 1.046875 -0.515625 1.046875 -1.15625 c 0 -0.640625 -0.46875 -1.15625 -1.046875 -1.15625 m -0.523438 2.960937 v 3.394532 h 1.046876 v -3.394532 c -0.167969 0.058594 -0.339844 0.089844 -0.523438 0.089844 c -0.183594 0 -0.355469 -0.03125 -0.523438 -0.089844" style="fill:#fff"/></svg>