<svg xmlns="http://www.w3.org/2000/svg" viewBox="0 0 16 16"><path d="m 3.308594 14.429688 c 12.027344 7.996093 19.4375 -17.503907 3.886718 -14.128907 c -6.425781 1.4375 -10.328124 10.460938 -3.886718 14.128907" style="fill:#b0c3de"/><g style="fill:#fff"><path d="m 8.542969 12.34375 c 0 0.421875 -0.308594 0.734375 -0.703125 0.734375 c -0.394532 0 -0.703125 -0.308594 -0.703125 -0.734375 c 0 -0.585938 0.703125 -1.226562 0.703125 -1.226562 c 0 0 0.703125 0.640624 0.703125 1.226562"/><path d="m 7.839844 2.613281 c -1.640625 0 -2.980469 1.167969 -3.136719 2.65625 c -0.8125 0.144531 -1.425781 0.796875 -1.425781 1.59375 c 0 0.90625 0.785156 1.636719 1.753906 1.636719 h 5.617188 c 1.359374 0 2.457031 -1.023438 2.457031 -2.289062 c 0 -1.265626 -1.097657 -2.289063 -2.457031 -2.289063 c -0.058594 0 -0.117188 0.015625 -0.175782 0.019531 c -0.5625 -0.804687 -1.523437 -1.328125 -2.632812 -1.328125"/><path d="m 10.648438 11.035156 c 0 0.421875 -0.308594 0.734375 -0.703126 0.734375 c -0.394531 0 -0.699218 -0.308593 -0.699218 -0.734375 c 0 -0.585937 0.699218 -1.226562 0.699218 -1.226562 c 0 0 0.703126 0.640625 0.703126 1.226562"/><path d="m 6.4375 10.378906 c 0 0.425782 -0.3125 0.738282 -0.703125 0.738282 c -0.398437 0 -0.703125 -0.3125 -0.703125 -0.738282 c 0 -0.582031 0.703125 -1.226562 0.703125 -1.226562 c 0 0 0.703125 0.644531 0.703125 1.226562"/><path d="m 7.503906 9.632812 c 0 0.179688 -0.15625 0.328126 -0.351562 0.328126 c -0.195313 0 -0.351563 -0.148438 -0.351563 -0.328126 c 0 -0.179687 0.15625 -0.328124 0.351563 -0.328124 c 0.195312 0 0.351562 0.148437 0.351562 0.328124"/><path d="m 10.554688 12.519531 c 0 0.183594 -0.160157 0.328125 -0.351563 0.328125 c -0.195313 0 -0.351563 -0.144531 -0.351563 -0.328125 c 0 -0.179687 0.15625 -0.324219 0.351563 -0.324219 c 0.191406 0 0.351563 0.144532 0.351563 0.324219"/><path d="m 6.523438 11.941406 c 0 0.179688 -0.160157 0.328125 -0.351563 0.328125 c -0.195313 0 -0.351563 -0.148437 -0.351563 -0.328125 c 0 -0.179687 0.15625 -0.328125 0.351563 -0.328125 c 0.191406 0 0.351563 0.148438 0.351563 0.328125"/><path d="m 8.796875 10.441406 c 0 0.179688 -0.160156 0.328125 -0.351563 0.328125 c -0.195312 0 -0.351562 -0.148437 -0.351562 -0.328125 c 0 -0.179687 0.15625 -0.328125 0.351562 -0.328125 c 0.191407 0 0.351563 0.148438 0.351563 0.328125"/><path d="m 11.050781 9.511719 c 0 0.183593 -0.15625 0.328125 -0.351562 0.328125 c -0.191407 0 -0.351563 -0.144532 -0.351563 -0.328125 c 0 -0.179688 0.160156 -0.324219 0.351563 -0.324219 c 0.195312 0 0.351562 0.144531 0.351562 0.324219"/><path d="m 9.1875 9.273438 c 0 0.179687 -0.160156 0.324218 -0.351562 0.324218 c -0.195313 0 -0.351563 -0.144531 -0.351563 -0.324218 c 0 -0.179688 0.15625 -0.328126 0.351563 -0.328126 c 0.191406 0 0.351562 0.148438 0.351562 0.328126"/></g></svg>