<svg xmlns="http://www.w3.org/2000/svg" viewBox="0 0 16 16"><path d="m 9.898438 0.269531 c 14.996093 3.125 -1.101563 24.617188 -8.722657 11.707031 c -3.269531 -5.015624 1.011719 -13.3125 8.722657 -11.707031" style="fill:#778799"/><g style="fill:#fff"><path d="m 7.433594 2.777344 c -1.605469 0 -2.914063 1.140625 -3.070313 2.597656 c -0.789062 0.140625 -1.394531 0.78125 -1.394531 1.558594 c 0 0.882812 0.769531 1.601562 1.71875 1.601562 h 5.492188 c 1.328124 0 2.402343 -1.003906 2.402343 -2.238281 c 0 -1.238281 -1.074219 -2.238281 -2.402343 -2.238281 c -0.058594 0 -0.113282 0.015625 -0.171876 0.019531 c -0.550781 -0.789063 -1.492187 -1.300781 -2.574218 -1.300781"/><path d="m 7.101562 9.640625 c 0 0.175781 -0.152343 0.320313 -0.339843 0.320313 c -0.191407 0 -0.34375 -0.144532 -0.34375 -0.320313 c 0 -0.175781 0.152343 -0.320313 0.34375 -0.320313 c 0.1875 0 0.339843 0.144532 0.339843 0.320313"/><path d="m 9.777344 11.003906 c 0 0.175782 -0.152344 0.320313 -0.34375 0.320313 c -0.1875 0 -0.34375 -0.144531 -0.34375 -0.320313 c 0 -0.175781 0.15625 -0.320312 0.34375 -0.320312 c 0.191406 0 0.34375 0.144531 0.34375 0.320312"/><path d="m 6.144531 11.898438 c 0 0.175781 -0.152343 0.320312 -0.34375 0.320312 c -0.1875 0 -0.34375 -0.144531 -0.34375 -0.320312 c 0 -0.175782 0.15625 -0.320313 0.34375 -0.320313 c 0.191407 0 0.34375 0.144531 0.34375 0.320313"/><path d="m 8.597656 11.535156 c 0 0.175782 -0.152344 0.320313 -0.34375 0.320313 c -0.1875 0 -0.339844 -0.144531 -0.339844 -0.320313 c 0 -0.175781 0.152344 -0.320312 0.339844 -0.320312 c 0.191406 0 0.34375 0.144531 0.34375 0.320312"/><path d="m 9.339844 9.597656 c 0 0.175782 -0.15625 0.320313 -0.34375 0.320313 c -0.191406 0 -0.34375 -0.144531 -0.34375 -0.320313 c 0 -0.175781 0.152344 -0.320312 0.34375 -0.320312 c 0.1875 0 0.34375 0.144531 0.34375 0.320312"/><path d="m 6.898438 10.941406 c 0 0.175782 -0.15625 0.320313 -0.34375 0.320313 c -0.191407 0 -0.34375 -0.144531 -0.34375 -0.320313 c 0 -0.175781 0.152343 -0.320312 0.34375 -0.320312 c 0.1875 0 0.34375 0.144531 0.34375 0.320312"/><path d="m 5.316406 9.871094 l 0.484375 0.453125 l -0.484375 0.453125 l -0.484375 -0.453125"/><path d="m 10.457031 11.222656 l 0.484375 0.453125 l -0.484375 0.449219 l -0.484375 -0.449219"/><path d="m 7.269531 11.789062 l 0.488281 0.453126 l -0.488281 0.449218 l -0.484375 -0.449218"/><path d="m 7.855469 10.054688 l 0.488281 0.453124 l -0.488281 0.453126 l -0.484375 -0.453126"/><path d="m 10.671875 9.726562 l 0.484375 0.453126 l -0.484375 0.453124 l -0.484375 -0.453124"/><path d="m 9.179688 11.800781 l 0.484374 0.453125 l -0.484374 0.449219 l -0.484376 -0.449219"/></g></svg>