<svg xmlns="http://www.w3.org/2000/svg" viewBox="0 0 16 16"><path d="m 3.296875 14.4375 c 12.03125 8 19.4375 -17.503906 3.890625 -14.128906 c -6.425781 1.441406 -10.328125 10.464844 -3.890625 14.128906" style="fill:#86cefa"/><path d="m 6.449219 3.175781 c 0 0 -0.089844 1.496094 -0.5 1.6875 c -0.40625 0.1875 -1.667969 -0.742187 -1.667969 -0.742187 c 0 0 0.742188 1.367187 0.460938 1.703125 c -0.277344 0.332031 -1.84375 0.152343 -1.84375 0.152343 c 0 0 1.320312 0.792969 1.292968 1.246094 c -0.023437 0.453125 -1.507812 1.015625 -1.507812 1.015625 c 0 0 1.5625 0.097657 1.777344 0.46875 c 0.210937 0.375 -0.78125 1.589844 -0.78125 1.589844 c 0 0 1.425781 -0.707031 1.792968 -0.441406 c 0.367188 0.265625 0.160156 1.753906 0.160156 1.753906 c 0 0 0.820313 -1.269531 1.3125 -1.230469 c 0.492188 0.039063 1.0625 1.433594 1.0625 1.433594 c 0 0 0.0625 -1.5 0.5 -1.6875 c 0.4375 -0.1875 1.667969 0.742188 1.667969 0.742188 c 0 0 -0.757812 -1.355469 -0.460937 -1.703126 c 0.292968 -0.347656 1.84375 -0.152343 1.84375 -0.152343 c 0 0 -1.320313 -0.851563 -1.292969 -1.246094 c 0.023437 -0.398437 1.507813 -1.015625 1.507813 -1.015625 c 0 0 -1.578126 -0.070312 -1.777344 -0.472656 c -0.195313 -0.398438 0.78125 -1.585938 0.78125 -1.585938 c 0 0 -1.46875 0.675782 -1.792969 0.441406 c -0.320313 -0.238281 -0.160156 -1.757812 -0.160156 -1.757812 c 0 0 -0.863281 1.273438 -1.3125 1.234375 c -0.445313 -0.039063 -1.0625 -1.433594 -1.0625 -1.433594" style="fill:#ff8c00"/></svg>