
<svg xmlns="http://www.w3.org/2000/svg" xmlns:xlink="http://www.w3.org/1999/xlink" width="32px" height="32px" viewBox="0 0 32 32" version="1.1">
<g id="surface1">
<path style=" stroke:none;fill-rule:nonzero;fill:rgb(66.27451%,66.27451%,66.27451%);fill-opacity:1;" d="M 3.355469 7.632812 C -7.113281 19.4375 9.402344 37.597656 23.226562 30.253906 C 37.203125 22.828125 33.480469 -1.742188 16.3125 0.347656 C 11.203125 0.96875 6.773438 3.78125 3.355469 7.628906 Z M 3.355469 7.632812 "/>
<path style=" stroke:none;fill-rule:nonzero;fill:rgb(12.941176%,12.941176%,12.941176%);fill-opacity:1;" d="M 16.164062 6.046875 C 10.410156 6.046875 5.738281 10.484375 5.738281 15.964844 C 5.738281 21.441406 10.410156 25.878906 16.164062 25.878906 C 21.917969 25.878906 26.585938 21.441406 26.585938 15.964844 C 26.585938 10.484375 21.917969 6.046875 16.164062 6.046875 Z M 17.207031 20.921875 L 15.121094 20.921875 L 15.121094 18.9375 L 17.207031 18.9375 Z M 17.207031 16.957031 L 15.121094 16.957031 L 15.121094 11.003906 L 17.207031 11.003906 Z M 17.207031 16.957031 "/>
</g>
</svg>
