<svg xmlns="http://www.w3.org/2000/svg" viewBox="0 0 32 32"><path d="m 23.78125 29.347656 c -41.175781 16.960938 -21.832031 -54.359375 5.058594 -19.726562 c 4.6875 6.210937 5.046875 16.644531 -5.058594 19.726562" style="fill:#ffd600"/><path d="m 20.273438 10.21875 c -0.574219 0.59375 -1.910157 1.847656 -1.910157 1.847656 l 3.453125 3.058594 c 0 0 1.339844 -1.503906 1.945313 -2.132812 c 0.15625 -0.15625 0.117187 -0.488282 -0.050781 -0.625 c -0.523438 -0.433594 -1.386719 -1.136719 -1.386719 -1.136719 c 0 0 -0.8125 -0.679688 -1.316407 -1.09375 c -0.183593 -0.15625 -0.570312 -0.085938 -0.734374 0.082031 m -3.285157 3.082031 l -8.3125 8.5625 l 0.246094 3.199219 l 3.417969 -0.207031 l 8.222656 -8.484375" style="fill:#fff;fill-rule:evenodd"/></svg>