
<svg xmlns="http://www.w3.org/2000/svg" xmlns:xlink="http://www.w3.org/1999/xlink" width="32px" height="32px" viewBox="0 0 32 32" version="1.1">
<g id="surface1">
<path style=" stroke:none;fill-rule:nonzero;fill:rgb(69.803922%,13.333333%,13.333333%);fill-opacity:1;" d="M 0.40625 19.664062 C 6.652344 49.652344 49.640625 17.457031 23.816406 2.214844 C 13.785156 -4.320312 -2.808594 4.238281 0.40625 19.664062 Z M 0.40625 19.664062 "/>
<path style="fill-rule:evenodd;fill:rgb(100%,100%,100%);fill-opacity:1;stroke-width:1.814598;stroke-linecap:butt;stroke-linejoin:miter;stroke:rgb(100%,100%,100%);stroke-opacity:1;stroke-miterlimit:4;" d="M 159.377747 987.204781 C 149.658997 978.923531 126.408997 952.798531 127.065247 950.923531 C 127.377747 949.954781 131.440247 948.704781 136.065247 948.142281 C 140.721497 947.579781 144.752747 946.892281 145.065247 946.579781 C 145.377747 946.267281 146.252747 937.548531 147.002747 927.204781 C 148.127747 911.704781 148.783997 908.517281 150.752747 909.048531 C 157.002747 910.673531 173.658997 910.923531 178.033997 909.454781 C 184.002747 907.423531 184.158997 907.923531 184.940247 929.892281 C 185.252747 938.267281 185.940247 945.579781 186.502747 946.111031 C 187.065247 946.642281 190.658997 947.423531 194.471497 947.861031 C 204.502747 948.986031 205.846497 949.579781 204.346497 952.204781 C 202.002747 956.298531 172.690247 987.611031 168.971497 989.986031 C 165.596497 992.142281 164.940247 991.923531 159.377747 987.204781 Z M 159.377747 987.204781 " transform="matrix(0.125,0,0,0.125,-5.906593,-97.072473)"/>
<path style="fill-rule:evenodd;fill:rgb(100%,100%,100%);fill-opacity:1;stroke-width:1.142;stroke-linecap:butt;stroke-linejoin:miter;stroke:rgb(100%,100%,100%);stroke-opacity:1;stroke-miterlimit:4;" d="M 102.190247 853.454781 L 234.065247 853.454781 C 241.940247 853.454781 248.346497 859.861031 248.346497 867.736031 L 248.346497 878.736031 C 248.346497 886.611031 241.940247 893.017281 234.065247 893.017281 L 102.190247 893.017281 C 94.315247 893.017281 87.908997 886.611031 87.908997 878.736031 L 87.908997 867.736031 C 87.908997 859.861031 94.315247 853.454781 102.190247 853.454781 Z M 102.190247 853.454781 " transform="matrix(0.125,0,0,0.125,-5.906593,-97.072473)"/>
</g>
</svg>
