<svg xmlns="http://www.w3.org/2000/svg" viewBox="0 0 256 256"><g transform="translate(0 -796.36)" style="color:#000"><path d="m 237.33 858.53 c -193.41 -225.34 -379.39 237.98 -80.26 190.37 65.59 -10.438 132.38 -129.65 80.26 -190.37 z" style="fill:#ff8c00"/><g transform="matrix(10.59333 0 0 10.3753 -6664.16 5015.59)" label="status" style="fill:#fff"><path d="m 636.47 -401 c -1.364 0 -2.469 1.105 -2.469 2.469 v 9.06 c 0 1.364 1.105 2.469 2.469 2.469 h 9.06 c 1.364 0 2.469 -1.105 2.469 -2.469 v -9.06 c 0 -1.364 -1.105 -2.469 -2.469 -2.469 h -9.06 z m 0 1 h 9.06 c 0.832 0 1.469 0.637 1.469 1.469 v 9.06 c 0 0.832 -0.637 1.469 -1.469 1.469 h -9.06 c -0.832 0 -1.469 -0.637 -1.469 -1.469 v -9.06 c 0 -0.832 0.637 -1.469 1.469 -1.469 z"/><path d="m 636.91 -394.94 v 2 h 1 h 6.125 h 1 v -2 h -1 h -6.125 h -1 z"/></g></g></svg>