<svg xmlns="http://www.w3.org/2000/svg" viewBox="0 0 256 256"><g transform="translate(0 -796.36)"><path d="m 193.83 815.03 c 225.34 193.41 -237.98 379.39 -190.37 80.26 10.438 -65.59 129.65 -132.38 190.37 -80.26 z" style="fill:#9883c1;color:#000"/><g transform="translate(0 796.36)" style="fill:#fff;stroke:#fff;stroke-width:1.01"><path d="m 56.42 87.19 c -1 6.373 -0.185 12.351 7.854 9.976 6.644 0.135 13.287 0.269 19.931 0.403 0.174 25.835 0.348 51.67 0.523 77.51 3.335 0.606 14.04 3.526 12.687 -3.036 0 -24.986 0 -49.971 0 -74.957 8.955 -0.496 18.725 0.976 27.19 -0.714 0.656 -5.474 1.107 -12.631 -6.775 -9.979 -20.2 0 -40.4 0 -60.61 0 l -0.714 0.714 l -0.087 0.087 z"/><path d="m 180.23 106.77 c -8.13 0.263 -16.64 4.411 -20.13 12.08 0.087 -5.166 1.534 -12.886 -6.416 -10.233 -8.789 -2.794 -6.068 6.581 -6.357 11.912 0 18.18 0 36.36 0 54.55 3.313 0.62 13.895 3.518 12.613 -3.02 0.816 -13.87 -0.83 -28.06 1.822 -41.738 2.728 -8.387 11.599 -12.9 20.18 -11.938 4.771 -0.3 8.754 2.687 13.153 3.782 0.284 -4.492 1.371 -12.429 -4.782 -13.873 -3.194 -1.246 -6.676 -1.638 -10.09 -1.519 z"/></g></g></svg>