<svg xmlns="http://www.w3.org/2000/svg" viewBox="0 0 256 256"><defs><clipPath><rect y="6" x="6" rx="6" height="84" width="84" style="fill:#f0f"/></clipPath><clipPath><rect y="6" x="6" rx="6" height="84" width="84" style="fill:#fff"/></clipPath></defs><g transform="translate(0 -796.36)" style="color:#000"><path d="m 13.228 977.71 c 69.925 141.88 277.41 62.829 237.79 -81.07 -37.33 -135.58 -226.87 -131.72 -248.97 -0.272 -4.611 27.425 -1.653 55.3 11.182 81.34 z" style="fill:#ff8c00"/><g transform="matrix(9.79189 0 0 9.54069 11.78 -9001.44)" style="fill:#fff"><path d="m 10 1045.86 l -2 2 c -1 1 -1 1 0 1 h 8 c 1 0 1 0 0 -1 l -2 -2 v -1 h -4 z"/><path d="m 6 1032.86 c -1.108 0 -2 0.892 -2 2 v 9 c 0 1.108 0.892 2 2 2 h 12 c 1.108 0 2 -0.892 2 -2 v -9 c 0 -1.108 -0.892 -2 -2 -2 h -12 z m 0 2 h 12 v 9 h -12 v -9 z"/><g transform="translate(0.011)"><path d="m 10.367 1039.11 q 0.645 0.167 0.978 0.581 0.338 0.41 0.338 1.047 0 0.948 -0.726 1.444 -0.726 0.491 -2.119 0.491 -0.491 0 -0.987 -0.081 -0.491 -0.077 -0.974 -0.235 v -1.269 q 0.461 0.231 0.914 0.35 0.457 0.115 0.897 0.115 0.654 0 1 -0.226 0.35 -0.226 0.35 -0.649 0 -0.436 -0.359 -0.658 -0.355 -0.226 -1.051 -0.226 h -0.658 v -1.06 h 0.692 q 0.62 0 0.923 -0.192 0.303 -0.197 0.303 -0.594 0 -0.367 -0.295 -0.568 -0.295 -0.201 -0.833 -0.201 -0.397 0 -0.803 0.09 -0.406 0.09 -0.807 0.265 v -1.205 q 0.487 -0.137 0.966 -0.205 0.479 -0.068 0.94 -0.068 1.243 0 1.859 0.41 0.62 0.406 0.62 1.226 0 0.56 -0.295 0.919 -0.295 0.355 -0.872 0.5 z"/><path d="m 12.552 1036.17 h 4.089 v 1.209 h -2.777 v 0.987 q 0.188 -0.051 0.376 -0.077 0.192 -0.03 0.397 -0.03 1.166 0 1.816 0.585 0.649 0.581 0.649 1.623 0 1.034 -0.709 1.619 -0.705 0.585 -1.961 0.585 -0.543 0 -1.077 -0.107 -0.53 -0.102 -1.055 -0.316 v -1.295 q 0.521 0.299 0.987 0.449 0.47 0.15 0.884 0.15 0.598 0 0.94 -0.291 0.346 -0.295 0.346 -0.795 0 -0.504 -0.346 -0.795 -0.342 -0.291 -0.94 -0.291 -0.355 0 -0.756 0.094 -0.402 0.09 -0.863 0.282 v -3.589 z"/></g></g></g></svg>