<svg xmlns="http://www.w3.org/2000/svg" viewBox="0 0 256 256"><path d="m 252.39565 121.57641 c -154.259999 -347.01 -431.5 162.11 -87.84 133.24 51.745 -6.753 106.08 -60.23 87.84 -133.24 z" style="fill:#e169dd;color:#000"/><g style="fill:#fff;stroke:#fff;fill-rule:evenodd;stroke-width:1.15817785"><path d="m 147.85086,209.89865 c -1.3442,-0.39172 -3.39788,-1.98807 -4.56375,-3.54745 -1.89654,-2.53667 -2.15024,-4.45648 -2.40922,-18.23085 -0.34672,-18.44074 0.63148,-21.56116 7.50385,-23.93711 l 4.1719,-1.44232 0.58822,-8.33522 c 0.70799,-10.03235 3.38132,-16.34638 8.93294,-21.09835 8.93288,-7.64621 22.2874,-7.6332 31.24064,0.0304 5.75589,4.92682 8.32285,10.96623 8.95281,21.06361 l 0.5271,8.44887 3.75609,1.12535 c 7.29847,2.18667 7.63588,3.20437 7.63588,23.03087 l 0,17.61838 -2.8104,2.81201 -2.8104,2.81201 -29.13584,0.18098 c -16.02471,0.0995 -30.23563,-0.1395 -31.57982,-0.53122 z m 42.35092,-55.83947 c -0.33387,-8.50675 -0.53105,-9.19846 -3.39695,-11.91645 -2.64925,-2.51254 -3.82898,-2.88548 -9.12749,-2.88548 -4.89538,0 -6.5161,0.43109 -8.29011,2.2051 -3.67142,3.67142 -4.38697,5.94759 -4.38697,13.95488 l 0,7.67292 12.77799,0 12.77798,0 -0.35445,-9.03097 z"/><path d="m 41.271971,162.58307 0,-23.83291 12.169996,0 12.169995,0 0,-6.085 0,-6.08499 -18.254993,0 -18.254993,0 0,-5.57792 0,-5.57791 37.017069,0 37.017075,0 0,-6.59208 0,-6.59208 -12.17,0 -12.169996,0 0,-23.832912 0,-23.832908 30.932076,0 30.93207,0 0,23.832908 0,23.832912 -12.67708,0 -12.67708,0 0,6.59208 0,6.59208 26.62187,0.10381 c 14.64202,0.0571 25.17606,0.44818 23.40896,0.86907 -4.35684,1.03773 -11.4741,5.31631 -15.22444,9.15225 -4.41546,4.51623 -8.71176,13.83123 -9.24585,20.04632 l -0.45755,5.32437 -6.4665,0 -6.46649,0 0,17.74791 0,17.74791 -6.085,0 -6.085,0 0,-23.83291 0,-23.83291 12.67708,0 12.67708,0 0,-6.085 0,-6.08499 -31.43916,0 -31.439152,0 0,6.08499 0,6.085 12.677078,0 12.677084,0 0,23.83291 0,23.83291 -30.932077,0 -30.932072,0 0,-23.83291 z m 49.694149,0.50708 0,-12.16999 -18.762077,0 -18.762076,0 0,12.16999 0,12.17 18.762076,0 18.762077,0 0,-12.17 z m 37.52415,-84.175799 0,-12.169995 -19.26916,0 -19.269157,0 0,12.169995 0,12.169996 19.269157,0 19.26916,0 0,-12.169996 z"/></g></svg>