<?xml version="1.0" encoding="UTF-8" standalone="no"?>
<svg
   xmlns:dc="http://purl.org/dc/elements/1.1/"
   xmlns:cc="http://creativecommons.org/ns#"
   xmlns:rdf="http://www.w3.org/1999/02/22-rdf-syntax-ns#"
   xmlns:svg="http://www.w3.org/2000/svg"
   xmlns="http://www.w3.org/2000/svg"
   xmlns:xlink="http://www.w3.org/1999/xlink"
   xmlns:sodipodi="http://sodipodi.sourceforge.net/DTD/sodipodi-0.dtd"
   xmlns:inkscape="http://www.inkscape.org/namespaces/inkscape"
   viewBox="0 0 256 256"
   id="svg2"
   version="1.1"
   inkscape:version="0.48.4 r9939"
   width="100%"
   height="100%"
   sodipodi:docname="safeeyes_disabled.svg">
  <metadata
     id="metadata23">
    <rdf:RDF>
      <cc:Work
         rdf:about="">
        <dc:format>image/svg+xml</dc:format>
        <dc:type
           rdf:resource="http://purl.org/dc/dcmitype/StillImage" />
        <dc:title></dc:title>
      </cc:Work>
    </rdf:RDF>
  </metadata>
  <sodipodi:namedview
     pagecolor="#ffffff"
     bordercolor="#666666"
     borderopacity="1"
     objecttolerance="10"
     gridtolerance="10"
     guidetolerance="10"
     inkscape:pageopacity="0"
     inkscape:pageshadow="2"
     inkscape:window-width="928"
     inkscape:window-height="731"
     id="namedview21"
     showgrid="false"
     inkscape:zoom="0.98603159"
     inkscape:cx="88"
     inkscape:cy="128"
     inkscape:window-x="587"
     inkscape:window-y="25"
     inkscape:window-maximized="0"
     inkscape:current-layer="svg2" />
  <defs
     id="defs4">
    <path
       id="0"
       d="m 245.46 129.52 l -97.89 -96.9 c -5.556 -5.502 -16.222 -11.873 -23.7 -14.16 l -39.518 -12.08 c -7.479 -2.286 -18.1 0.391 -23.599 5.948 l -13.441 13.578 c -5.5 5.559 -14.502 14.653 -20 20.21 l -13.44 13.579 c -5.5 5.558 -8.07 16.206 -5.706 23.658 l 12.483 39.39 c 2.363 7.456 8.843 18.06 14.399 23.556 l 97.89 96.9 c 5.558 5.502 14.605 5.455 20.1 -0.101 l 36.26 -36.63 c 5.504 -5.559 14.503 -14.651 20 -20.21 l 36.26 -36.629 c 5.502 -5.56 5.455 -14.606 -0.101 -20.11 z m -178.09 -50.74 c -7.198 0 -13.03 -5.835 -13.03 -13.03 0 -7.197 5.835 -13.03 13.03 -13.03 7.197 0 13.03 5.835 13.03 13.03 -0.001 7.198 -5.836 13.03 -13.03 13.03 z" />
    <use
       id="1"
       xlink:href="#0" />
    <clipPath
       style="clip-path:url(#2)"
       id="clipPath8">
      <use
         xlink:href="#0"
         id="use10" />
    </clipPath>
    <clipPath
       style="clip-path:url(#2)"
       id="clipPath12">
      <use
         xlink:href="#0"
         id="use14" />
    </clipPath>
    <clipPath
       id="2">
      <use
         xlink:href="#1"
         id="use17" />
    </clipPath>
    <style
       id="current-color-scheme"
       type="text/css">
   .ColorScheme-Text { color:#5c616c; } .ColorScheme-Highlight { color:#5294e2; } .ColorScheme-ButtonBackground { color:#ffffff; }
  </style>
  </defs>
  <path
     d="m 2.256 127.73 c -19.233 -169.75 256.06 -167.39 252.8 3.02 c 9.07 158.49 -267.8 172.79 -252.8 -3.02 z"
     style="fill:#ff0000;color:#000"
     id="path19" />
  <g
     id="g4"
     transform="matrix(8.0428156,0,0,8.0991641,36.778968,-8306.2544)">
    <path
       class="ColorScheme-ButtonBackground"
       id="path6"
       d="m 10.998,1034.4 c 0,0 -3.7785,6e-4 -6.2969,0.1895 -0.35178,0.044 -1.1182,0.048 -1.8027,0.791 -0.53956,0.5664 -0.71484,1.8515 -0.71484,1.8515 0,0 -0.17709,1.511 -0.17969,3.0215 l -0.0039,2.2871 c -0.0026,1.5106 0.17969,3.0215 0.17969,3.0215 0,0 0.17528,1.2851 0.71484,1.8516 0.68457,0.7435 1.5839,0.7209 1.9844,0.7988 1.4397,0.1432 6.1191,0.1875 6.1191,0.1875 0,0 3.7805,-0.01 6.2988,-0.1953 0.35176,-0.044 1.1204,-0.048 1.8047,-0.791 0.53961,-0.5665 0.71484,-1.8516 0.71484,-1.8516 0,0 0.17709,-1.5109 0.17969,-3.0215 l 0.0039,-2.2871 c 0.0026,-1.5105 -0.17969,-3.0215 -0.17969,-3.0215 0,0 -0.17524,-1.2851 -0.71484,-1.8515 -0.68432,-0.7435 -1.4529,-0.7475 -1.8047,-0.791 -2.5183,-0.1889 -6.2949,-0.1895 -6.2949,-0.1895 H 10.998 z m -2.998,3 6,4.0137 -6,3.9863 v -8 z"
       style="color:#ffffff;fill:currentColor"
       inkscape:connector-curvature="0" />
  </g>
</svg>
