<svg xmlns="http://www.w3.org/2000/svg" viewBox="0 0 256 256"><defs><clipPath><path transform="matrix(15.33333 0 0 11.5 415 -125.5)" d="m -24 13 c 0 1.105 -0.672 2 -1.5 2 -0.828 0 -1.5 -0.895 -1.5 -2 0 -1.105 0.672 -2 1.5 -2 0.828 0 1.5 0.895 1.5 2 z"/></clipPath></defs><g transform="translate(0 -796.36)"><path d="m 229.63 992.2 c 92.05 -130.93 -77.948 -263.6 -186.39 -156.91 -102.17 100.51 -7.449 256.68 119.69 207.86 c 26.526 -10.185 49.802 -26.914 66.7 -50.948 z" style="fill:#ff8c00;color:#000"/><path d="m 40.756 -123.14 c 0.163 0.326 0.244 0.627 0.244 0.905 0 0.32 -0.081 0.621 -0.244 0.905 -0.163 0.277 -0.383 0.498 -0.661 0.661 -0.284 0.163 -0.585 0.244 -0.905 0.244 -0.326 0 -0.627 -0.082 -0.905 -0.244 -0.115 -0.066 -0.223 -0.145 -0.326 -0.235 l -2.181 1.258 l 2.181 1.267 c 0.103 -0.091 0.211 -0.169 0.326 -0.235 0.278 -0.163 0.579 -0.244 0.905 -0.244 0.32 0 0.621 0.082 0.905 0.244 0.278 0.163 0.498 0.383 0.661 0.661 0.163 0.284 0.244 0.585 0.244 0.905 0 0.314 -0.081 0.612 -0.244 0.896 -0.169 0.284 -0.389 0.507 -0.661 0.67 -0.284 0.163 -0.585 0.244 -0.905 0.244 -0.308 0 -0.609 -0.082 -0.905 -0.244 -0.284 -0.157 -0.507 -0.377 -0.67 -0.661 -0.157 -0.277 -0.235 -0.579 -0.235 -0.905 0 -0.133 0.012 -0.262 0.036 -0.389 l -2.181 -1.267 v 2.525 c 0.127 0.042 0.247 0.097 0.362 0.163 0.278 0.163 0.498 0.383 0.661 0.661 0.163 0.278 0.244 0.579 0.244 0.905 0 0.326 -0.081 0.627 -0.244 0.905 -0.163 0.278 -0.383 0.498 -0.661 0.661 -0.278 0.163 -0.579 0.244 -0.905 0.244 -0.326 0 -0.627 -0.082 -0.905 -0.244 -0.278 -0.163 -0.498 -0.383 -0.661 -0.661 -0.163 -0.277 -0.244 -0.579 -0.244 -0.905 0 -0.326 0.081 -0.627 0.244 -0.905 0.163 -0.277 0.383 -0.498 0.661 -0.661 0.115 -0.066 0.235 -0.121 0.362 -0.163 v -2.525 l -2.181 1.267 c 0.024 0.127 0.036 0.256 0.036 0.389 0 0.326 -0.078 0.627 -0.235 0.905 -0.163 0.284 -0.386 0.504 -0.67 0.661 -0.284 0.163 -0.585 0.244 -0.905 0.244 -0.326 0 -0.627 -0.082 -0.905 -0.244 -0.278 -0.157 -0.498 -0.377 -0.661 -0.661 -0.163 -0.277 -0.244 -0.579 -0.244 -0.905 0 -0.32 0.081 -0.621 0.244 -0.905 0.163 -0.277 0.383 -0.498 0.661 -0.661 0.284 -0.163 0.585 -0.244 0.905 -0.244 0.32 0 0.621 0.082 0.905 0.244 0.115 0.066 0.223 0.145 0.326 0.235 l 2.181 -1.267 l -2.181 -1.258 c -0.097 0.091 -0.205 0.169 -0.326 0.235 -0.296 0.163 -0.597 0.244 -0.905 0.244 -0.326 0 -0.627 -0.082 -0.905 -0.244 -0.278 -0.163 -0.498 -0.383 -0.661 -0.661 -0.163 -0.278 -0.244 -0.579 -0.244 -0.905 0 -0.326 0.081 -0.627 0.244 -0.905 0.163 -0.284 0.383 -0.504 0.661 -0.661 0.284 -0.163 0.585 -0.244 0.905 -0.244 0.308 0 0.609 0.082 0.905 0.244 0.284 0.157 0.507 0.377 0.67 0.661 0.157 0.278 0.235 0.579 0.235 0.905 0 0.133 -0.012 0.262 -0.036 0.389 l 2.181 1.267 v -2.525 c -0.127 -0.042 -0.247 -0.097 -0.362 -0.163 -0.278 -0.163 -0.498 -0.383 -0.661 -0.661 -0.163 -0.277 -0.244 -0.579 -0.244 -0.905 0 -0.326 0.081 -0.627 0.244 -0.905 0.163 -0.277 0.383 -0.498 0.661 -0.661 0.284 -0.163 0.585 -0.244 0.905 -0.244 0.326 0 0.627 0.082 0.905 0.244 0.278 0.163 0.498 0.383 0.661 0.661 0.163 0.278 0.244 0.579 0.244 0.905 0 0.326 -0.081 0.627 -0.244 0.905 -0.163 0.278 -0.383 0.498 -0.661 0.661 -0.115 0.066 -0.235 0.121 -0.362 0.163 v 2.525 l 2.181 -1.267 c -0.024 -0.127 -0.036 -0.256 -0.036 -0.389 0 -0.326 0.078 -0.627 0.235 -0.905 0.157 -0.271 0.38 -0.492 0.67 -0.661 0.278 -0.163 0.579 -0.244 0.905 -0.244 0.32 0 0.621 0.082 0.905 0.244 0.308 0.181 0.528 0.401 0.661 0.661" transform="matrix(12.26418 0 0 11.15012 -296.93 2262.13)" style="fill:#fff"/></g></svg>