<svg xmlns="http://www.w3.org/2000/svg" viewBox="0 0 256 256"><defs><clipPath><path d="m 27.643 3.295 l 13.09 13.09 h -11.07 c -0.978 0 -2.01 -1.035 -2.01 -2.01 v -11.07 z"/></clipPath><clipPath><path d="m 47.41 6.348 v -1.75 c 0 -2.054 -1.664 -3.719 -3.719 -3.719 h -39.37 c -2.054 0 -3.719 1.664 -3.719 3.719 v 1.75" transform="matrix(0.99561 0 0 0.99561 0.105 0.016)" filter="url(#0)"/></clipPath><filter height="1.344" y="-0.172" width="1.04" x="-0.02" id="0"><feGaussianBlur stdDeviation="0.39211"/></filter><linearGradient y2="6.363" x2="0" y1="0.971" gradientUnits="userSpaceOnUse"><stop stop-color="#fff"/><stop offset="1" stop-color="#9bd8ff" stop-opacity="0"/></linearGradient></defs><g transform="translate(-1.289 -794.26)" color="#000"><path d="m 226.95 1011.23 c -105.68 119.37 -302.66 -59.07 -193.24 -174.35 92.41 -115.46 302.33 51.12 193.24 174.35" fill="#ed455a"/><g fill="#fff"><rect rx="10.714" y="862.79" x="102.14" height="51.714" width="51.714"/><rect rx="14.38" y="877.93" x="61.929" height="92.86" width="132.14"/></g><circle transform="matrix(1.14019 0 0 1.14019 -17.944 778.42)" cx="128" cy="128" r="30.571" fill="#ed455a"/><circle transform="matrix(0.78972 0 0 0.78972 26.916 823.28)" cx="128" cy="128" r="30.571" fill="#fff"/><circle transform="matrix(0.2757 0 0 0.2757 86.996 880.5)" cx="128" cy="128" r="30.571" fill="#f6a4ae"/><path fill="#ed455a" d="m 114.29 869.22 h 27.428 v 6.715 h -27.428 z"/></g></svg>