/* XPM */
static char * maximize_pressed_xpm[] = {
"24 24 45 1",
" 	c None",
".	c #21252B",
"+	c #353B48",
"@	c #2F343F",
"#	c #2C3F3C",
"$	c #21792F",
"%	c #19A325",
"&	c #15B820",
"*	c #19A425",
"=	c #217A2F",
"-	c #275E36",
";	c #15B620",
">	c #13C11E",
",	c #15B720",
"'	c #266034",
")	c #14BE1F",
"!	c #13BF1F",
"~	c #10A816",
"{	c #0E9611",
"]	c #0F9812",
"^	c #12B91C",
"/	c #2D413D",
"(	c #217830",
"_	c #13BD1D",
":	c #0D870C",
"<	c #0B7407",
"[	c #0F9B12",
"}	c #217B2E",
"|	c #19A324",
"1	c #10A917",
"2	c #12BC1C",
"3	c #0F9912",
"4	c #18A524",
"5	c #0D850C",
"6	c #15BA20",
"7	c #19A326",
"8	c #2D3E3D",
"9	c #16B621",
"0	c #0F9A12",
"a	c #0F9811",
"b	c #10A716",
"c	c #2D403C",
"d	c #275F35",
"e	c #14BF1F",
"f	c #266134",
"........................",
"++++++++++++++++++++++++",
"@@@@@@@@@@@@@@@@@@@@@@@@",
"@@@@@@@@@@@@@@@@@@@@@@@@",
"@@@@@@@@@@@@@@@@@@@@@@@@",
"@@@@@@@@#$%&&*=#@@@@@@@@",
"@@@@@@@-;>>>>>>,'@@@@@@@",
"@@@@@@-)>>>>>>>>!'@@@@@@",
"@@@@@#;>>>~{{{]^>&/@@@@@",
"@@@@@(>>>>_:<<<[>>}@@@@@",
"@@@@@|>>12>_:<<3>>4@@@@@",
"@@@@@;>>352>_:<3>>6@@@@@",
"@@@@@;>>3<52>_:3>>6@@@@@",
"@@@@@7>>3<<52>_1>>4@@@@@",
"@@@@@$>>[<<<52>>>>}@@@@@",
"@@@@@89>^0aaab>>>&c@@@@@",
"@@@@@@de>>>>>>>>!f@@@@@@",
"@@@@@@@d,>>>>>>,'@@@@@@@",
"@@@@@@@@c$*&&*}c@@@@@@@@",
"@@@@@@@@@@@@@@@@@@@@@@@@",
"@@@@@@@@@@@@@@@@@@@@@@@@",
"@@@@@@@@@@@@@@@@@@@@@@@@",
"@@@@@@@@@@@@@@@@@@@@@@@@",
"@@@@@@@@@@@@@@@@@@@@@@@@"};
