<?xml version="1.0" encoding="UTF-8" standalone="no"?>
<svg
   xmlns:dc="http://purl.org/dc/elements/1.1/"
   xmlns:cc="http://creativecommons.org/ns#"
   xmlns:rdf="http://www.w3.org/1999/02/22-rdf-syntax-ns#"
   xmlns:svg="http://www.w3.org/2000/svg"
   xmlns="http://www.w3.org/2000/svg"
   xmlns:sodipodi="http://sodipodi.sourceforge.net/DTD/sodipodi-0.dtd"
   xmlns:inkscape="http://www.inkscape.org/namespaces/inkscape"
   viewBox="0 0 22 22"
   id="svg2"
   version="1.1"
   inkscape:version="0.91 r13725"
   sodipodi:docname="default-folder-projects.svg"
   width="22"
   height="22">
  <metadata
     id="metadata31">
    <rdf:RDF>
      <cc:Work
         rdf:about="">
        <dc:format>image/svg+xml</dc:format>
        <dc:type
           rdf:resource="http://purl.org/dc/dcmitype/StillImage" />
        <dc:title></dc:title>
      </cc:Work>
    </rdf:RDF>
  </metadata>
  <sodipodi:namedview
     pagecolor="#ffffff"
     bordercolor="#666666"
     borderopacity="1"
     objecttolerance="10"
     gridtolerance="10"
     guidetolerance="10"
     inkscape:pageopacity="0"
     inkscape:pageshadow="2"
     inkscape:window-width="640"
     inkscape:window-height="480"
     id="namedview29"
     showgrid="false"
     inkscape:zoom="3.6875"
     inkscape:cx="32"
     inkscape:cy="8.5955431"
     inkscape:current-layer="g11" />
  <defs
     id="defs4">
    <radialGradient
       id="radialGradient3964"
       cx="32.5"
       cy="56.5"
       r="33.5"
       gradientTransform="matrix(1,0,0,0.10447761,0,50.597015)"
       gradientUnits="userSpaceOnUse">
      <stop
         style="stop-color:#000;stop-opacity:1"
         id="stop7" />
      <stop
         offset="1"
         style="stop-color:#000;stop-opacity:0"
         id="stop9" />
    </radialGradient>
  </defs>
  <g
     transform="translate(0,-1030.3622)"
     id="g11">
    <path
       inkscape:connector-curvature="0"
       d="m 1.025755,1034.421 0,14.8236 19.974245,0 0,-7.4118 -0.951152,-6.3529 -7.609239,0 -0.951155,-2.1177 -9.5115465,0 c -0.4755767,0 -0.9511525,0.5294 -0.9511525,1.0588 z"
       style="fill:#ececec;fill-opacity:1;stroke:none"
       id="path8315" />
    <rect
       width="9.9871235"
       height="4.2352877"
       x="2.4524879"
       y="1036.0092"
       style="fill:#2ca7f8;fill-opacity:0.96534651;stroke:none"
       id="rect8317" />
    <path
       inkscape:connector-curvature="0"
       d="m 1.9769075,1033.3634 c -0.4755767,0 -0.9511525,0.5294 -0.9511525,1.0588 l 0,0.5294 c 0,-0.5294 0.4755758,-1.0588 0.9511525,-1.0588 l 9.0359725,0 0.951154,2.1178 8.084814,0 0.951152,6.3528 0,-0.5294 -0.951152,-6.3529 -7.609239,0 -0.951155,-2.1177 z"
       style="opacity:0.80400002;fill:#808080;fill-opacity:1;stroke:none"
       id="path8319" />
    <path
       inkscape:connector-curvature="0"
       d="m 21,1036.5388 0,14.8234 -19.974245,0 0,-13.7647 9.511547,0 0.951152,-2.1176 8.560394,0 c 0.475576,0 0.951152,0.5294 0.951152,1.0589 z"
       style="fill:#f2f2f2;fill-opacity:1;stroke:none"
       id="path8321" />
    <path
       inkscape:connector-curvature="0"
       d="m 1.025755,1050.8327 0,0.5295 19.974245,0 0,-0.5295 z"
       style="opacity:0.80100002;fill:#4d4d4d;fill-opacity:1;stroke:none"
       id="path8323" />
    <path
       inkscape:connector-curvature="0"
       d="m 11.488454,1035.4811 -0.951152,2.1176 -9.511547,0 0,0.5292 9.987125,0 0.951154,-2.1173 8.084814,0 c 0.475576,0 0.951152,0.5291 0.951152,1.0586 l 0,-0.5295 c 0,-0.5291 -0.475576,-1.0586 -0.951152,-1.0586 z"
       style="opacity:0.80400002;fill:#808080;fill-opacity:1;stroke:none"
       id="path8325" />
    <rect
       style="opacity:0.80100002;fill:#2ca7f8;fill-opacity:0.55445545"
       id="rect8352"
       width="0.082410567"
       height="16.268396"
       x="1"
       y="1034.5404" />
    <rect
       style="opacity:0.80100002;fill:#2ca7f8;fill-opacity:0.55445545"
       id="rect8352-6"
       width="0.082410567"
       height="14.250134"
       x="-20.984562"
       y="1036.6814"
       transform="scale(-1,1)" />
    <rect
       style="opacity:0.80100002;fill:#2ca7f8;fill-opacity:1"
       id="rect8377"
       width="0.10988065"
       height="0.091739118"
       x="4.7634182"
       y="1036.6201" />
    <g
       transform="translate(-0.81355935,3.4937401)"
       style="opacity:1;fill:#999999"
       id="g27" />
    <path
       inkscape:connector-curvature="0"
       d="m 7.9788756,1041.3885 c -0.2471153,0.01 -0.4804487,0.032 -0.7157051,0.117 -0.074038,0.5217 0.048077,1.0627 0.1823718,1.5627 0.3419872,1.1466 0.9769231,2.235 1.9083333,2.965 0.034295,0.034 0.082692,0.041 0.070192,0.1023 -0.00481,0.254 -6.41e-4,0.5193 0,0.7743 0.00994,0.4454 0.2676283,0.8707 0.6442314,1.0807 0.448397,0.2457 0.895513,0.4733 1.347115,0.7157 0.207692,0.1146 0.496154,-0.017 0.561218,-0.2484 0.03974,-0.1523 0.01186,-0.312 0.0141,-0.4673 -0.0016,-0.3273 -0.04039,-0.6557 -0.02821,-0.9787 0.410898,-0.053 0.824039,-0.26 1.066347,-0.6133 0.216025,-0.3013 0.292948,-0.6913 0.266666,-1.0663 0.439423,-0.082 0.892629,-0.1507 1.333013,-0.2337 0.260898,-0.055 0.373718,-0.4073 0.210577,-0.628 -0.320513,-0.4227 -0.641026,-0.8363 -0.967949,-1.256 -0.263141,-0.327 -0.675,-0.5083 -1.080448,-0.4527 -0.275,0.046 -0.556731,0.1077 -0.827885,0.161 -0.875962,-0.8683 -2.0532054,-1.3496 -3.241667,-1.4896 -0.2439102,-0.023 -0.4967948,-0.048 -0.7435897,-0.044 z m 1.4875,0.9493 c 0.2871795,-0.027 0.5750004,0.056 0.8137824,0.263 0.477884,0.414 0.552243,1.153 0.154487,1.6504 -0.397757,0.4973 -1.1080129,0.5746 -1.5855771,0.1606 -0.4778846,-0.414 -0.5522435,-1.153 -0.1544871,-1.6503 0.1990384,-0.2487 0.4846154,-0.396 0.7717948,-0.4233 z m 4.5887824,3.5784 c -0.0984,-0.01 -0.196154,0.068 -0.210577,0.1753 -0.125321,0.5927 -0.530128,1.1073 -1.066346,1.3433 -0.139744,0.046 -0.170834,0.2407 -0.05609,0.3367 0.235256,0.204 0.507372,0.44 0.74359,0.6427 0.115064,0.1016 0.264743,-0.01 0.266666,-0.1607 -0.0038,-0.1243 -0.01731,-0.257 -0.0282,-0.3797 0.292949,0.065 0.580128,0.1524 0.869872,0.219 0.136538,0.029 0.266026,-0.142 0.210577,-0.2773 -0.114744,-0.286 -0.233013,-0.5627 -0.350962,-0.847 0.11859,-0.015 0.232693,-0.025 0.350962,-0.044 0.146154,-0.03 0.203205,-0.2513 0.0843,-0.3507 -0.236859,-0.2073 -0.475962,-0.4076 -0.715705,-0.6133 -0.02821,-0.023 -0.06539,-0.041 -0.09808,-0.044 z"
       style="opacity:1;fill:#999999;fill-opacity:1;fill-rule:nonzero;stroke:none"
       id="path27" />
  </g>
</svg>
