<svg xmlns="http://www.w3.org/2000/svg" viewBox="0 0 32 32"><path d="m 3.394531 25.269531 c -15.777343 -23.621093 34.53125 -38.171875 27.871094 -7.632812 c -2.839844 12.617187 -20.636719 20.273437 -27.871094 7.632812" style="fill:#2f4e4e"/><path d="m 9.453125 7.269531 c -1.207031 0 -2.183594 0.953125 -2.183594 2.132813 v 12.789062 c 0 1.179688 0.976563 2.132813 2.183594 2.132813 h 13.09375 c 1.207031 0 2.183594 -0.953125 2.183594 -2.132813 v -12.789062 c 0 -1.179688 -0.976563 -2.132813 -2.183594 -2.132813 m -6.546875 2.132813 c 2.335938 0.003906 4.496094 1.21875 5.660156 3.195312 h -2.78125 c -0.796875 -0.683594 -1.820312 -1.0625 -2.878906 -1.0625 c -2.410156 0 -4.363281 1.90625 -4.363281 4.261719 c 0 2.355469 1.953125 4.261719 4.363281 4.261719 c 1.058594 0 2.082031 -0.378906 2.878906 -1.0625 h 2.78125 c -1.167968 1.972656 -3.324218 3.191406 -5.660156 3.195312 c -3.613281 0 -6.546875 -2.863281 -6.546875 -6.394531 c 0 -3.53125 2.933594 -6.394531 6.546875 -6.394531" style="fill:#fff"/></svg>