<svg xmlns="http://www.w3.org/2000/svg" viewBox="0 0 32 32"><path d="m 24.230469 2.332031 c 28.164062 24.179688 -29.75 47.425781 -23.796875 10.035157 c 1.304687 -8.199219 16.203125 -16.550782 23.796875 -10.035157" style="fill:#9782c1"/><g transform="scale(0.125)" style="fill:#fff;stroke:#fff;stroke-width:1.01"><path d="m 65.5 84.96875 c 0 29.6875 0 59.375 0 89.09375 c 3.34375 0.59375 13.96875 3.53125 12.71875 -3.03125 c 0.15625 -10.6875 0.3125 -21.375 0.5 -32.0625 c 10.53125 -1.3125 22.1875 0.8125 32 -4 c 13.8125 -8 15.4375 -29.125 6.0625 -41.0625 c -9.75 -11.625 -26.25 -8.625 -39.59375 -9.5 c -3.71875 0.4375 -8.53125 -1.28125 -11.6875 0.53125 m 24.53125 11.15625 c 6.71875 -0.34375 14.75 1.21875 17.1875 8.4375 c 5.5 9.875 -2.625 24.40625 -14.3125 22.9375 c -4.875 0.25 -9.78125 0.34375 -14.6875 0.53125 c 0 -10.65625 0 -21.28125 0 -31.90625 c 3.9375 0 7.875 -0.03125 11.8125 0"/><path d="m 152.375 88.21875 c 0 6.125 0 12.25 0 18.375 c -5.59375 0.5625 -12.125 -1.125 -17.15625 0.8125 c -2 7.59375 1.96875 10.65625 9.3125 8.875 c 9 -2.78125 8.21875 4.375 7.875 11.09375 c 0.875 12.15625 -1.1875 24.90625 2.25 36.71875 c 4.3125 11.03125 17.75 10.53125 27.5625 10.6875 c 7.9375 2.71875 7.75 -4.0625 7.125 -9.8125 c -7.09375 -2.75 -17.75 2.375 -23.5 -5.03125 c -0.78125 -14.3125 -0.46875 -29.15625 -0.84375 -43.65625 c 7.96875 -0.53125 16.78125 1 24.25 -0.71875 c 1.96875 -7.1875 -1.46875 -10.96875 -8.78125 -8.96875 c -4.5625 -1.5625 -15.71875 3.4375 -15.375 -3.03125 c -1.15625 -4.90625 2.34375 -13.53125 -1.8125 -16.15625 c -3.4375 0.53125 -8.03125 -1.09375 -10.90625 0.78125"/></g></svg>