<svg xmlns="http://www.w3.org/2000/svg" viewBox="0 0 32 32"><path d="m 31.285156 15.210938 c -18.953125 -42.640626 -53.023437 19.917968 -10.792968 16.371093 c 6.359374 -0.828125 13.035156 -7.398437 10.792968 -16.371093" style="fill:#1e8fff"/><g style="fill:#fff;fill-rule:evenodd"><path d="m 16.902344 8.429688 l 7.285156 4.199218 v 3.152344 l -7.285156 -4.199219"/><path d="m 16.902344 13.679688 l 7.285156 4.199218 v 3.152344 l -7.285156 -4.199219"/><path d="m 7.542969 13.679688 l 7.28125 4.199218 v 3.152344 l -7.28125 -4.199219"/><path d="m 7.542969 18.933594 l 7.28125 4.199218 v 3.152344 l -7.28125 -4.203125"/><path d="m 16.902344 18.933594 l 7.285156 4.199218 v 1.339844 c 0 0.578125 -0.464844 1.050782 -1.042969 1.050782 c -0.179687 0 -0.359375 -0.050782 -0.515625 -0.140626 c -1.902344 -1.09375 -3.816406 -2.199218 -5.726562 -3.300781"/><path d="m 14.824219 15.78125 l -7.28125 -4.199219 v -1.34375 c 0 -0.578125 0.464843 -1.050781 1.039062 -1.050781 c 0.179688 0 0.359375 0.050781 0.515625 0.140625 c 1.90625 1.097656 3.820313 2.203125 5.726563 3.300781"/></g></svg>