
<svg xmlns="http://www.w3.org/2000/svg" xmlns:xlink="http://www.w3.org/1999/xlink" width="32px" height="32px" viewBox="0 0 32 32" version="1.1">
<g id="surface1">
<path style=" stroke:none;fill-rule:nonzero;fill:rgb(0%,0%,0%);fill-opacity:1;" d="M 24.230469 2.332031 C 52.394531 26.511719 -5.519531 49.757812 0.433594 12.367188 C 1.738281 4.167969 16.640625 -4.179688 24.230469 2.332031 Z M 24.230469 2.332031 "/>
<path style=" stroke:none;fill-rule:evenodd;fill:rgb(100%,0%,0%);fill-opacity:1;" d="M 13.125 20.132812 C 13.007812 20.054688 12.957031 19.859375 12.902344 19.320312 C 12.777344 18.105469 12.753906 18.058594 11.601562 16.929688 C 11.035156 16.371094 10.425781 15.6875 10.25 15.410156 C 9.1875 13.746094 9.289062 11.523438 10.5 9.808594 C 12.042969 7.628906 15.253906 6.898438 17.832031 8.144531 C 18.742188 8.582031 19.710938 9.507812 20.167969 10.375 C 20.644531 11.28125 20.796875 12 20.746094 13.097656 C 20.679688 14.636719 20.289062 15.382812 18.800781 16.824219 C 18.234375 17.371094 17.816406 17.851562 17.710938 18.074219 C 17.617188 18.269531 17.484375 18.789062 17.417969 19.230469 C 17.351562 19.667969 17.257812 20.0625 17.210938 20.109375 C 17.066406 20.242188 13.316406 20.265625 13.125 20.132812 Z M 15.679688 17.050781 C 15.90625 16.742188 16.515625 16.042969 17.035156 15.5 C 18.121094 14.367188 18.402344 13.914062 18.464844 13.175781 C 18.582031 11.804688 17.945312 10.664062 16.699219 10.019531 C 16.257812 9.792969 16.199219 9.785156 15.183594 9.785156 C 14.242188 9.785156 14.082031 9.804688 13.71875 9.96875 C 13.128906 10.242188 12.460938 10.847656 12.195312 11.351562 C 11.746094 12.207031 11.71875 13.398438 12.136719 14.160156 C 12.234375 14.335938 12.75 14.945312 13.28125 15.507812 C 13.816406 16.074219 14.445312 16.800781 14.679688 17.125 C 14.914062 17.449219 15.144531 17.691406 15.1875 17.664062 C 15.234375 17.640625 15.457031 17.363281 15.679688 17.050781 Z M 15.679688 17.050781 "/>
<path style=" stroke:none;fill-rule:evenodd;fill:rgb(100%,0%,0%);fill-opacity:1;" d="M 14.152344 21.492188 C 13.605469 21.472656 13.121094 21.417969 13.078125 21.375 C 12.886719 21.195312 12.886719 20.898438 13.070312 20.742188 C 13.242188 20.597656 13.386719 20.585938 15.128906 20.585938 C 17.203125 20.585938 17.382812 20.621094 17.382812 21.011719 C 17.382812 21.136719 17.320312 21.285156 17.246094 21.347656 C 17.074219 21.476562 15.570312 21.550781 14.152344 21.492188 Z M 14.152344 21.492188 "/>
<path style=" stroke:none;fill-rule:evenodd;fill:rgb(100%,0%,0%);fill-opacity:1;" d="M 13.59375 22.632812 C 13.382812 22.492188 13.335938 22.117188 13.515625 21.976562 C 13.769531 21.78125 16.453125 21.769531 16.789062 21.964844 C 16.949219 22.058594 16.917969 22.53125 16.738281 22.652344 C 16.503906 22.8125 13.84375 22.792969 13.59375 22.632812 Z M 13.59375 22.632812 "/>
<path style=" stroke:none;fill-rule:evenodd;fill:rgb(100%,0%,0%);fill-opacity:1;" d="M 14.089844 23.808594 C 13.9375 23.6875 13.90625 23.363281 14.03125 23.242188 C 14.214844 23.074219 16.132812 23.066406 16.371094 23.230469 C 16.488281 23.3125 16.464844 23.722656 16.335938 23.828125 C 16.167969 23.964844 14.265625 23.949219 14.089844 23.808594 Z M 14.089844 23.808594 "/>
</g>
</svg>
