<svg xmlns="http://www.w3.org/2000/svg" viewBox="0 0 32 32"><path d="m 12.339844 31.59375 c -29.992188 -6.246094 2.203125 -49.230469 17.445312 -23.410156 c 6.535156 10.03125 -2.023437 26.625 -17.445312 23.410156" style="fill:#b0c3de"/><g style="fill:#fff"><path d="m 15.914062 8.0625 c -1.058593 0 -1.980468 0.488281 -2.585937 1.253906 h 2.246094 c 0.359375 0 0.679687 0.3125 0.679687 0.648438 v 10.90625 c 0.246094 0.039062 0.507813 0.082031 0.765625 0.082031 c 0.246094 0 0.484375 -0.042969 0.71875 -0.082031 v -10.90625 c 0 -0.324219 0.296875 -0.625 0.636719 -0.648438 c 0.027344 0 0.058594 0 0.085938 0 h 0.042968 c -0.609375 -0.761718 -1.53125 -1.253906 -2.585937 -1.253906 m -5.640625 2.269531 c -0.199219 0.289063 -0.296875 0.636719 -0.296875 1.011719 c 0 0.355469 0.117187 0.691406 0.296875 0.972656 m 0 0.125 c -0.679688 0.445313 -1.191406 1.117188 -1.445313 1.902344 c -0.125 -0.011719 -0.25 -0.039062 -0.382812 -0.039062 c -1.835938 0 -3.304688 1.488281 -3.304688 3.324218 c 0 1.832032 1.46875 3.324219 3.304688 3.324219 c 0.683593 0 1.296875 -0.214844 1.828125 -0.566406 m 13.484375 -6.40625 v 6.929687 c 0.648437 -0.148437 1.234375 -0.445312 1.695312 -0.890625 c 0.34375 0.476563 0.890625 0.769531 1.527344 0.769531 c 1.050781 0 1.90625 -0.816406 1.90625 -1.863281 c 0 -1.046875 -0.855469 -1.90625 -1.90625 -1.90625 c -0.164063 0 -0.316406 0 -0.464844 0.039063 c -0.167969 -1.527344 -1.289062 -2.742188 -2.757812 -3.078125"/><path d="m 11.613281 10.613281 h 3.300781 v 13.050781 h -3.300781"/><path d="m 19.121094 10.613281 h 3.296875 v 13.050781 h -3.296875"/></g></svg>