<svg xmlns="http://www.w3.org/2000/svg" viewBox="0 0 32 32"><path d="m 31.789062 16.074219 c 2.402344 21.21875 -32.007812 20.921875 -31.597656 -0.378907 c -1.136718 -19.8125 33.472656 -21.597656 31.597656 0.378907" style="fill:#ff8c00"/><g style="fill:#fff"><path d="m 15.667969 7.925781 c 0 0 -4.015625 0.003907 -6.695313 0.21875 c -0.375 0.050781 -1.1875 0.054688 -1.914062 0.90625 c -0.574219 0.652344 -0.761719 2.125 -0.761719 2.125 c 0 0 -0.1875 1.734375 -0.191406 3.46875 l -0.003907 2.621094 c -0.003906 1.730469 0.191407 3.464844 0.191407 3.464844 c 0 0 0.1875 1.476562 0.761719 2.125 c 0.726562 0.851562 1.683593 0.828125 2.109374 0.914062 c 1.527344 0.164063 6.503907 0.214844 6.503907 0.214844 c 0 0 1.289062 -0.015625 2.5625 -0.042969 c -0.28125 -0.695312 -0.433594 -1.453125 -0.433594 -2.25 c 0 -3.152344 2.390625 -5.734375 5.316406 -5.734375 c 0.753907 0 1.46875 0.175781 2.121094 0.484375 l 0.003906 -1.800781 c 0 -1.730469 -0.191406 -3.464844 -0.191406 -3.464844 c 0 0 -0.1875 -1.476562 -0.761719 -2.125 c -0.726562 -0.851562 -1.542968 -0.855469 -1.914062 -0.90625 c -2.679688 -0.21875 -6.695313 -0.21875 -6.695313 -0.21875 m -3.195312 3.445313 l 6.378906 4.601562 l -6.378906 4.570313"/><path d="m 27.21875 20.503906 c -0.605469 -2.445312 -2.941406 -3.898437 -5.207031 -3.242187 c -2.269531 0.65625 -3.617188 3.171875 -3.007813 5.617187 c 0.609375 2.449219 2.9375 3.898438 5.207032 3.246094 c 2.269531 -0.65625 3.613281 -3.171875 3.007812 -5.621094 m -1.027344 0.296875 c 0.457032 1.835938 -0.554687 3.722657 -2.253906 4.214844 l -0.277344 -1.105469 c 1.136719 -0.328125 1.808594 -1.585937 1.507813 -2.8125 m -2.882813 -2.730468 l 0.277344 1.109374 c -1.136719 0.328126 -1.808594 1.585938 -1.503906 2.808594 l -1.027344 0.296875 c -0.457031 -1.835937 0.554688 -3.722656 2.253906 -4.214843"/></g></svg>