
<svg xmlns="http://www.w3.org/2000/svg" xmlns:xlink="http://www.w3.org/1999/xlink" width="16px" height="16px" viewBox="0 0 16 16" version="1.1">
<g id="surface1">
<path style=" stroke:none;fill-rule:nonzero;fill:rgb(86.27451%,86.27451%,86.27451%);fill-opacity:1;" d="M 3.382812 14.386719 C 15.195312 22.277344 22.46875 -2.878906 7.199219 0.453125 C 0.890625 1.871094 -2.9375 10.769531 3.382812 14.386719 Z M 3.382812 14.386719 "/>
<path style="fill-rule:nonzero;fill:rgb(100%,100%,100%);fill-opacity:1;stroke-width:1.164;stroke-linecap:butt;stroke-linejoin:miter;stroke:rgb(100%,100%,100%);stroke-opacity:1;stroke-miterlimit:4;" d="M 195.1875 953.4225 C 182.0625 990.235 142.1875 1009.235 106.1875 995.86 C 70.125 982.4225 51.5625 941.735 64.625 904.9225 C 77.6875 868.0475 117.5 848.985 153.5 862.2975 C 189.5625 875.6725 208.25 916.2975 195.25 953.1725 " transform="matrix(0.0625,0,0,0.0625,0,-49.7725)"/>
<path style=" stroke:none;fill-rule:nonzero;fill:rgb(19.215686%,19.215686%,19.215686%);fill-opacity:1;" d="M 4.84375 11.167969 C 4.632812 11.058594 4.242188 10.523438 4.242188 10.347656 C 4.242188 10.300781 4.160156 10.097656 4.0625 9.902344 C 3.957031 9.683594 3.886719 9.417969 3.886719 9.226562 C 3.886719 9.054688 3.855469 8.890625 3.816406 8.867188 C 3.722656 8.808594 3.722656 7.480469 3.816406 7.421875 C 3.855469 7.398438 3.886719 7.25 3.886719 7.09375 C 3.886719 6.9375 3.964844 6.640625 4.0625 6.433594 C 4.160156 6.226562 4.242188 6.019531 4.242188 5.96875 C 4.242188 5.644531 5.648438 4.207031 5.964844 4.207031 C 6.015625 4.207031 6.222656 4.125 6.421875 4.027344 C 6.625 3.929688 6.914062 3.847656 7.070312 3.847656 C 7.222656 3.847656 7.367188 3.8125 7.394531 3.773438 C 7.449219 3.679688 8.753906 3.679688 8.808594 3.773438 C 8.832031 3.8125 8.992188 3.847656 9.164062 3.847656 C 9.351562 3.847656 9.609375 3.917969 9.824219 4.027344 C 10.019531 4.125 10.21875 4.207031 10.269531 4.207031 C 10.371094 4.207031 10.921875 4.570312 10.960938 4.667969 C 10.976562 4.699219 11.082031 4.839844 11.199219 4.972656 C 11.457031 5.273438 11.4375 5.28125 10.546875 5.308594 L 9.871094 5.328125 L 9.800781 8.289062 L 8.386719 8.324219 C 7.605469 8.34375 6.929688 8.386719 6.878906 8.421875 C 6.8125 8.464844 6.789062 8.828125 6.789062 9.839844 C 6.789062 11.011719 6.773438 11.207031 6.679688 11.242188 C 6.4375 11.335938 5.058594 11.28125 4.84375 11.167969 Z M 4.84375 11.167969 "/>
</g>
</svg>
