
<svg xmlns="http://www.w3.org/2000/svg" xmlns:xlink="http://www.w3.org/1999/xlink" width="16px" height="16px" viewBox="0 0 16 16" version="1.1">
<defs>
<radialGradient id="radial0" gradientUnits="userSpaceOnUse" cx="26.544" cy="44.542" fx="26.544" fy="44.542" r="20.03" gradientTransform="matrix(0.124582,0,0,0.0102554,5.044844,11.68498)">
<stop offset="0" style="stop-color:rgb(0%,0%,0%);stop-opacity:0.2;"/>
<stop offset="1" style="stop-color:rgb(0%,0%,0%);stop-opacity:0;"/>
</radialGradient>
<linearGradient id="linear0" gradientUnits="userSpaceOnUse" x1="0" y1="4" x2="0" y2="44" gradientTransform="matrix(0.207969,0,0,0.208189,3.3605,2.9785)">
<stop offset="0" style="stop-color:rgb(81.568627%,14.901961%,1.568627%);stop-opacity:1;"/>
<stop offset="1" style="stop-color:rgb(98.431373%,34.117647%,21.176471%);stop-opacity:1;"/>
</linearGradient>
<linearGradient id="linear1" gradientUnits="userSpaceOnUse" x1="54.08" y1="23.375" x2="27.469" y2="49.988" gradientTransform="matrix(0.71267,-0.71114,0.71267,0.71114,-12.231,26.931)">
<stop offset="0" style="stop-color:rgb(100%,100%,100%);stop-opacity:0.490196;"/>
<stop offset="1" style="stop-color:rgb(100%,100%,100%);stop-opacity:0;"/>
</linearGradient>
</defs>
<g id="surface1">
<path style=" stroke:none;fill-rule:nonzero;fill:rgb(18.431373%,30.980392%,30.980392%);fill-opacity:1;" d="M 8.140625 15.863281 C 15.136719 17.257812 17.792969 7.679688 14.761719 2.476562 C 12.34375 -1.671875 4.070312 -0.484375 0.988281 5.109375 C -2.097656 10.707031 2.527344 14.742188 8.140625 15.863281 Z M 8.140625 15.863281 "/>
<path style=" stroke:none;fill-rule:nonzero;fill:url(#radial0);" d="M 10.847656 12.140625 C 10.847656 12.253906 9.730469 12.347656 8.351562 12.347656 C 6.972656 12.347656 5.855469 12.253906 5.855469 12.140625 C 5.855469 12.027344 6.972656 11.933594 8.351562 11.933594 C 9.730469 11.933594 10.847656 12.027344 10.847656 12.140625 Z M 10.847656 12.140625 "/>
<path style=" stroke:none;fill-rule:evenodd;fill:url(#linear0);" d="M 6.738281 3.832031 L 4.203125 6.335938 L 4.203125 9.648438 L 6.707031 12.128906 L 10.074219 12.128906 L 12.507812 9.804688 L 12.507812 6.363281 L 10.027344 3.832031 Z M 6.738281 3.832031 "/>
<path style=" stroke:none;fill-rule:nonzero;fill:rgb(0%,0%,0%);fill-opacity:0.709804;" d="M 10.847656 8.390625 L 10.847656 6.933594 L 5.855469 6.933594 L 5.855469 8.390625 Z M 10.847656 8.390625 "/>
<path style="fill:none;stroke-width:1.01;stroke-linecap:butt;stroke-linejoin:miter;stroke:rgb(0%,0%,0%);stroke-opacity:0.658824;stroke-miterlimit:4;" d="M 4.558815 16.352003 L 4.540032 31.793926 L 16.316859 43.464493 L 32.038077 43.464493 L 43.495596 32.581971 L 43.495596 16.483343 L 31.812683 4.568858 L 16.448339 4.568858 Z M 4.558815 16.352003 " transform="matrix(0.207969,0,0,0.208189,3.3605,2.9785)"/>
<path style=" stroke:none;fill-rule:nonzero;fill:rgb(100%,100%,100%);fill-opacity:1;" d="M 10.847656 8.601562 L 10.847656 7.140625 L 5.855469 7.140625 L 5.855469 8.601562 Z M 10.847656 8.601562 "/>
<path style="fill:none;stroke-width:1.01;stroke-linecap:butt;stroke-linejoin:miter;stroke:url(#linear1);stroke-miterlimit:4;" d="M 5.59187 16.746025 L 5.573087 31.399904 L 16.730081 42.432529 L 31.643638 42.432529 L 42.462541 32.169185 L 42.462541 16.877366 L 31.418244 5.600821 L 16.861561 5.600821 Z M 5.59187 16.746025 " transform="matrix(0.207969,0,0,0.208189,3.3605,2.9785)"/>
</g>
</svg>
