
<svg xmlns="http://www.w3.org/2000/svg" xmlns:xlink="http://www.w3.org/1999/xlink" width="16px" height="16px" viewBox="0 0 16 16" version="1.1">
<defs>
<clipPath id="clip1">
  <path d="M 3.667969 4 L 12 4 L 12 12.332031 L 3.667969 12.332031 Z M 3.667969 4 "/>
</clipPath>
<clipPath id="clip2">
  <path d="M 15.609375 8.277344 C 15.609375 12.5625 12.136719 16.035156 7.855469 16.035156 C 3.574219 16.035156 0.0976562 12.5625 0.0976562 8.277344 C 0.0976562 3.992188 3.574219 0.519531 7.855469 0.519531 C 12.136719 0.519531 15.609375 3.992188 15.609375 8.277344 Z M 15.609375 8.277344 "/>
</clipPath>
</defs>
<g id="surface1">
<path style=" stroke:none;fill-rule:nonzero;fill:rgb(100%,48.627451%,31.764706%);fill-opacity:1;" d="M 13.199219 2.324219 C 25.8125 18.972656 -8.902344 21.335938 2.238281 4.34375 C 4.777344 0.46875 9.859375 -2.085938 13.199219 2.324219 Z M 13.199219 2.324219 "/>
<path style=" stroke:none;fill-rule:nonzero;fill:rgb(100%,100%,100%);fill-opacity:1;" d="M 3.808594 4.566406 L 5.980469 6.777344 L 6.167969 6.589844 L 3.8125 4.230469 Z M 6.167969 6.554688 L 6.167969 6.964844 L 9.539062 6.964844 L 9.539062 6.554688 Z M 9.539062 9.964844 L 9.539062 10.335938 L 9.539062 9.964844 L 7.179688 12.285156 L 3.808594 12.285156 L 3.808594 12.699219 L 7.179688 12.699219 L 9.539062 10.339844 L 11.902344 12.699219 L 11.902344 12.285156 L 9.539062 9.925781 Z M 9.539062 9.964844 "/>
<g clip-path="url(#clip1)" clip-rule="nonzero">
<g clip-path="url(#clip2)" clip-rule="nonzero">
<path style=" stroke:none;fill-rule:nonzero;fill:rgb(100%,100%,100%);fill-opacity:1;" d="M 3.808594 4.230469 L 6.167969 6.589844 L 3.808594 8.953125 L 3.808594 12.324219 L 7.179688 12.324219 L 9.539062 9.964844 L 11.902344 12.324219 L 11.902344 4.230469 M 6.167969 6.589844 L 9.539062 6.589844 L 9.539062 9.960938 L 6.167969 9.964844 M 6.167969 6.589844 "/>
</g>
</g>
</g>
</svg>
