
<svg xmlns="http://www.w3.org/2000/svg" xmlns:xlink="http://www.w3.org/1999/xlink" width="16px" height="16px" viewBox="0 0 16 16" version="1.1">
<g id="surface1">
<path style=" stroke:none;fill-rule:nonzero;fill:rgb(25.098039%,48.235294%,64.705882%);fill-opacity:1;" d="M 8.152344 15.914062 C 6.5 15.785156 4.570312 14.996094 3.222656 13.894531 C 1.585938 12.558594 0.390625 10.507812 0.0664062 8.484375 C -0.00390625 8.042969 -0.0234375 7.019531 0.03125 6.566406 C 0.25 4.679688 1.355469 2.800781 2.972656 1.582031 C 3.847656 0.917969 5.007812 0.390625 6.097656 0.15625 C 8.929688 -0.445312 11.882812 0.695312 13.90625 3.167969 C 15.121094 4.652344 15.75 6.144531 15.902344 7.914062 C 16.085938 10.035156 15.25 12.304688 13.726562 13.835938 C 12.53125 15.039062 10.925781 15.800781 9.402344 15.894531 C 9.179688 15.910156 8.910156 15.925781 8.796875 15.933594 C 8.6875 15.941406 8.398438 15.933594 8.152344 15.914062 Z M 8.152344 15.914062 "/>
<path style=" stroke:none;fill-rule:evenodd;fill:rgb(100%,100%,100%);fill-opacity:1;" d="M 3 2.917969 L 12.289062 2.917969 L 12.289062 13.019531 L 3 13.019531 Z M 3 2.917969 "/>
<path style=" stroke:none;fill-rule:nonzero;fill:rgb(25.098039%,48.235294%,64.705882%);fill-opacity:1;" d="M 3.308594 13.667969 C 2.835938 13.558594 2.4375 13.175781 2.273438 12.675781 L 2.207031 12.472656 L 2.207031 3.15625 L 2.269531 2.972656 C 2.464844 2.414062 2.792969 2.105469 3.339844 1.972656 C 3.539062 1.921875 3.652344 1.921875 7.753906 1.921875 C 11.886719 1.921875 11.964844 1.921875 12.140625 1.972656 C 12.585938 2.097656 12.824219 2.261719 13.023438 2.585938 C 13.121094 2.746094 13.167969 2.867188 13.234375 3.128906 C 13.285156 3.316406 13.285156 3.402344 13.285156 7.832031 C 13.285156 10.507812 13.273438 12.371094 13.261719 12.417969 C 13.25 12.460938 13.222656 12.566406 13.199219 12.648438 C 13.082031 13.09375 12.753906 13.457031 12.320312 13.625 L 12.140625 13.691406 L 7.800781 13.699219 C 4.222656 13.703125 3.433594 13.695312 3.308594 13.667969 Z M 5.140625 11.8125 C 5.761719 11.589844 6.648438 10.953125 7.621094 10.027344 C 8.207031 9.46875 9.054688 8.546875 9.605469 7.863281 C 11.175781 5.921875 11.890625 4.320312 11.433594 3.769531 C 11.292969 3.597656 10.953125 3.566406 10.589844 3.6875 C 10.050781 3.875 9.351562 4.335938 8.5625 5.03125 L 8.25 5.308594 L 8.078125 5.308594 C 7.46875 5.308594 6.808594 5.617188 6.339844 6.128906 C 5.855469 6.660156 5.609375 7.285156 5.609375 8.007812 L 5.609375 8.285156 L 5.375 8.621094 C 4.933594 9.246094 4.570312 9.875 4.371094 10.34375 C 4.199219 10.753906 4.136719 11.003906 4.136719 11.289062 C 4.132812 11.535156 4.160156 11.632812 4.261719 11.753906 C 4.40625 11.929688 4.75 11.949219 5.140625 11.8125 Z M 5.484375 10.203125 C 5.273438 10.082031 5.304688 9.695312 5.566406 9.144531 C 5.628906 9.011719 5.691406 8.894531 5.703125 8.886719 C 5.714844 8.878906 5.765625 8.972656 5.8125 9.097656 C 5.90625 9.328125 6.121094 9.695312 6.195312 9.746094 C 6.308594 9.820312 7.078125 9.265625 7.691406 8.667969 C 8.457031 7.914062 9.125 7.015625 9.472656 6.261719 C 9.679688 5.8125 9.679688 5.808594 9.550781 5.722656 C 9.398438 5.621094 9.078125 5.46875 8.949219 5.433594 C 8.882812 5.414062 8.835938 5.390625 8.839844 5.375 C 8.855469 5.332031 9.277344 5.089844 9.429688 5.035156 C 9.503906 5.011719 9.636719 4.988281 9.71875 4.988281 C 9.847656 4.988281 9.875 4.996094 9.929688 5.054688 C 10.257812 5.402344 9.734375 6.574219 8.652344 7.902344 C 8.3125 8.316406 7.699219 8.960938 7.332031 9.285156 C 6.515625 10.007812 5.777344 10.375 5.484375 10.203125 Z M 6.167969 8.207031 C 5.910156 8.042969 5.921875 7.390625 6.191406 6.894531 C 6.230469 6.820312 6.3125 6.703125 6.371094 6.632812 C 6.648438 6.304688 6.933594 6.277344 7.089844 6.554688 C 7.164062 6.6875 7.160156 7.136719 7.082031 7.382812 C 6.960938 7.761719 6.742188 8.074219 6.519531 8.195312 C 6.371094 8.273438 6.273438 8.277344 6.167969 8.207031 Z M 8.460938 10.726562 C 9.453125 10.597656 10.296875 9.871094 10.609375 8.882812 C 10.699219 8.605469 10.734375 8.347656 10.734375 8.023438 C 10.734375 7.589844 10.625 7.050781 10.535156 7.050781 C 10.515625 7.050781 10.433594 7.152344 10.355469 7.277344 C 9.742188 8.265625 8.71875 9.449219 7.792969 10.246094 C 7.386719 10.59375 7.410156 10.574219 7.4375 10.609375 C 7.464844 10.648438 7.664062 10.699219 7.890625 10.726562 C 8.128906 10.757812 8.222656 10.757812 8.460938 10.726562 Z M 8.460938 10.726562 "/>
</g>
</svg>
