
<svg xmlns="http://www.w3.org/2000/svg" xmlns:xlink="http://www.w3.org/1999/xlink" width="16px" height="16px" viewBox="0 0 16 16" version="1.1">
<defs>
<linearGradient id="linear0" gradientUnits="userSpaceOnUse" x1="45.28" y1="0" x2="77.28" y2="0" gradientTransform="matrix(0.212559,0,0,0.100533,-5.323759,4.596277)">
<stop offset="0" style="stop-color:rgb(74.509804%,98.039216%,87.058824%);stop-opacity:1;"/>
<stop offset="1" style="stop-color:rgb(96.470588%,99.607843%,98.039216%);stop-opacity:1;"/>
</linearGradient>
</defs>
<g id="surface1">
<path style=" stroke:none;fill-rule:nonzero;fill:rgb(19.607843%,80.392157%,19.607843%);fill-opacity:1;" d="M 13.679688 13.199219 C -2.96875 25.8125 -5.332031 -8.898438 11.660156 2.242188 C 15.535156 4.78125 18.089844 9.859375 13.679688 13.199219 "/>
<path style=" stroke:none;fill-rule:evenodd;fill:url(#linear0);" d="M 4.429688 5.460938 L 4.429688 10.878906 L 10.976562 10.878906 L 10.976562 5.460938 L 4.429688 5.460938 M 5.28125 6.164062 L 6.554688 6.164062 L 6.554688 6.941406 L 5.28125 6.941406 L 5.28125 6.164062 M 6.980469 6.164062 L 10.125 6.164062 L 10.125 6.941406 L 6.980469 6.941406 L 6.980469 6.164062 M 5.28125 7.292969 L 6.554688 7.292969 L 6.554688 7.996094 L 5.28125 7.996094 L 5.28125 7.292969 M 6.980469 7.292969 L 10.125 7.292969 L 10.125 7.996094 L 6.980469 7.996094 L 6.980469 7.292969 M 5.28125 8.347656 L 6.554688 8.347656 L 6.554688 10.175781 L 5.28125 10.175781 L 5.28125 8.347656 M 6.980469 8.347656 L 10.125 8.347656 L 10.125 10.175781 L 6.980469 10.175781 L 6.980469 8.347656 "/>
</g>
</svg>
