
<svg xmlns="http://www.w3.org/2000/svg" xmlns:xlink="http://www.w3.org/1999/xlink" width="16px" height="16px" viewBox="0 0 16 16" version="1.1">
<g id="surface1">
<path style=" stroke:none;fill-rule:nonzero;fill:rgb(92.54902%,8.627451%,6.27451%);fill-opacity:1;" d="M 14.351562 12.238281 C 20.105469 4.058594 9.480469 -4.234375 2.703125 2.433594 C -3.683594 8.714844 2.238281 18.476562 10.183594 15.425781 C 11.839844 14.789062 13.296875 13.742188 14.351562 12.238281 Z M 14.351562 12.238281 "/>
<path style=" stroke:none;fill-rule:nonzero;fill:rgb(0%,0%,0%);fill-opacity:0.101961;" d="M 4.761719 12.472656 L 4.761719 12.140625 C 5.371094 12.140625 5.980469 11.972656 5.980469 11.472656 L 5.980469 5.472656 C 5.980469 4.957031 5.371094 4.804688 4.761719 4.804688 L 4.761719 4.472656 L 10.765625 4.472656 L 10.859375 6.472656 L 10.554688 6.472656 C 10.554688 6.136719 10.386719 5.136719 9.640625 5.136719 L 7.199219 5.136719 L 7.199219 8.136719 L 9.335938 8.136719 C 9.808594 8.136719 9.945312 7.804688 9.945312 7.136719 L 10.25 7.136719 L 10.25 9.804688 L 9.945312 9.804688 C 9.945312 9.136719 9.777344 8.804688 9.335938 8.804688 L 7.199219 8.804688 L 7.199219 11.140625 C 7.199219 11.472656 7.503906 11.804688 7.8125 11.804688 L 9.640625 11.804688 C 10.25 11.804688 10.832031 11.511719 10.996094 10.472656 L 11.339844 10.472656 L 11.164062 12.472656 Z M 4.761719 12.472656 "/>
<path style=" stroke:none;fill-rule:nonzero;fill:rgb(93.333333%,91.764706%,90.196078%);fill-opacity:1;" d="M 4.457031 12.140625 L 4.457031 11.804688 C 5.066406 11.804688 5.675781 11.636719 5.675781 11.140625 L 5.675781 5.136719 C 5.675781 4.625 5.066406 4.472656 4.457031 4.472656 L 4.457031 4.136719 L 10.460938 4.136719 L 10.554688 6.136719 L 10.25 6.136719 C 10.25 5.804688 10.082031 4.804688 9.335938 4.804688 L 6.894531 4.804688 L 6.894531 7.804688 L 9.03125 7.804688 C 9.503906 7.804688 9.640625 7.472656 9.640625 6.804688 L 9.945312 6.804688 L 9.945312 9.472656 L 9.640625 9.472656 C 9.640625 8.804688 9.472656 8.472656 9.03125 8.472656 L 6.894531 8.472656 L 6.894531 10.804688 C 6.894531 11.140625 7.199219 11.472656 7.503906 11.472656 L 9.335938 11.472656 C 9.945312 11.472656 10.527344 11.179688 10.691406 10.140625 L 11.035156 10.140625 L 10.859375 12.140625 Z M 4.457031 12.140625 "/>
</g>
</svg>
