
<svg xmlns="http://www.w3.org/2000/svg" xmlns:xlink="http://www.w3.org/1999/xlink" width="16px" height="16px" viewBox="0 0 16 16" version="1.1">
<g id="surface1">
<path style=" stroke:none;fill-rule:nonzero;fill:rgb(27.45098%,45.882353%,64.705882%);fill-opacity:1;" d="M 9.011719 0 C 6.230469 -0.0078125 3.296875 1.6875 1.589844 4.242188 L 4.546875 9.359375 C 4.355469 8.605469 4.4375 7.78125 4.777344 7.074219 C 5.117188 6.371094 5.714844 5.792969 6.425781 5.472656 C 7.324219 5.070312 8.34375 5.082031 9.328125 5.097656 C 11.359375 5.125 13.386719 5.128906 15.417969 5.117188 C 15.171875 4.523438 14.851562 3.917969 14.441406 3.300781 C 13.121094 0.984375 11.109375 0.0078125 9.011719 0 Z M 9.011719 0 "/>
<path style=" stroke:none;fill-rule:nonzero;fill:rgb(79.607843%,87.058824%,93.72549%);fill-opacity:1;" d="M 15.410156 5.105469 L 8.949219 5.109375 C 9.605469 5.417969 10.164062 5.941406 10.515625 6.574219 C 10.871094 7.210938 11.019531 7.957031 10.9375 8.679688 C 10.824219 9.65625 10.3125 10.535156 9.8125 11.382812 C 8.917969 12.902344 8.03125 14.425781 7.152344 15.957031 C 12.265625 15.46875 17.84375 11.023438 15.410156 5.105469 Z M 15.410156 5.105469 "/>
<path style=" stroke:none;fill-rule:nonzero;fill:rgb(51.372549%,69.803922%,87.058824%);fill-opacity:1;" d="M 1.59375 4.234375 C 0.996094 5.125 0.550781 6.121094 0.3125 7.1875 C -1.160156 13.953125 2.84375 16.375 7.171875 15.953125 L 10.003906 11.136719 C 9.394531 11.527344 8.660156 11.730469 7.933594 11.703125 C 7.207031 11.675781 6.488281 11.421875 5.90625 10.984375 C 5.121094 10.394531 4.613281 9.515625 4.125 8.660156 C 3.285156 7.183594 2.441406 5.710938 1.589844 4.234375 Z M 1.59375 4.234375 "/>
<path style=" stroke:none;fill-rule:nonzero;fill:rgb(90.196078%,94.117647%,99.607843%);fill-opacity:1;" d="M 11.808594 8 C 11.808594 10.101562 10.101562 11.808594 8 11.808594 C 5.898438 11.808594 4.191406 10.101562 4.191406 8 C 4.191406 5.894531 5.894531 4.191406 8 4.191406 C 10.101562 4.191406 11.808594 5.898438 11.808594 8 "/>
<path style=" stroke:none;fill-rule:nonzero;fill:rgb(41.568627%,58.431373%,80.392157%);fill-opacity:1;" d="M 11.167969 8 C 11.167969 9.75 9.75 11.167969 8 11.167969 C 6.25 11.167969 4.832031 9.75 4.832031 8 C 4.832031 6.25 6.25 4.832031 8 4.832031 C 9.75 4.832031 11.167969 6.25 11.167969 8 "/>
</g>
</svg>
