
<svg xmlns="http://www.w3.org/2000/svg" xmlns:xlink="http://www.w3.org/1999/xlink" width="16px" height="16px" viewBox="0 0 16 16" version="1.1">
<g id="surface1">
<path style=" stroke:none;fill-rule:nonzero;fill:rgb(100%,100%,100%);fill-opacity:1;" d="M 5.71875 7.757812 L 5.71875 10.875 C 5.71875 12.746094 6.042969 12.746094 8.929688 12.746094 L 9.570312 12.746094 C 12.457031 12.746094 12.777344 12.746094 12.777344 10.875 L 12.777344 7.757812 C 12.777344 5.886719 12.457031 5.886719 9.570312 5.886719 L 8.929688 5.886719 C 6.042969 5.886719 5.71875 5.886719 5.71875 7.757812 Z M 8.929688 6.507812 L 9.570312 6.507812 C 12.136719 6.507812 12.136719 6.507812 12.136719 7.757812 L 12.136719 9.9375 C 12.136719 11.1875 12.136719 11.1875 9.570312 11.1875 L 8.929688 11.1875 C 6.363281 11.1875 6.363281 11.1875 6.363281 9.9375 L 6.363281 7.757812 C 6.363281 6.507812 6.363281 6.507812 8.929688 6.507812 Z M 8.929688 6.507812 "/>
<path style=" stroke:none;fill-rule:nonzero;fill:rgb(100%,100%,100%);fill-opacity:1;" d="M 7.003906 9.996094 L 7.003906 8.785156 L 8.125 7.652344 L 9.53125 9.070312 L 10.09375 8.503906 L 11.496094 9.921875 L 11.496094 9.996094 C 11.496094 10.5625 11.402344 10.5625 10.375 10.5625 L 8.128906 10.5625 C 7.097656 10.5625 7.003906 10.5625 7.003906 9.996094 Z M 7.003906 9.996094 "/>
<path style=" stroke:none;fill-rule:nonzero;fill:rgb(100%,100%,100%);fill-opacity:1;" d="M 11.496094 7.757812 C 11.496094 8.101562 11.207031 8.378906 10.851562 8.378906 C 10.5 8.378906 10.210938 8.101562 10.210938 7.757812 C 10.210938 7.414062 10.5 7.132812 10.851562 7.132812 C 11.207031 7.132812 11.496094 7.414062 11.496094 7.757812 Z M 11.496094 7.757812 "/>
<path style=" stroke:none;fill-rule:nonzero;fill:rgb(100%,100%,100%);fill-opacity:1;" d="M 7.644531 4.640625 C 4.757812 4.640625 4.4375 4.640625 4.4375 6.507812 L 4.4375 9.628906 C 4.4375 10.640625 4.53125 11.105469 5.078125 11.320312 L 5.078125 6.507812 C 5.078125 5.378906 5.097656 5.277344 7.003906 5.265625 L 7.003906 5.261719 L 11.339844 5.261719 C 11.054688 4.640625 10.289062 4.640625 8.285156 4.640625 Z M 7.644531 4.640625 "/>
<path style=" stroke:none;fill-rule:nonzero;fill:rgb(100%,100%,100%);fill-opacity:1;" d="M 6.363281 3.390625 C 3.472656 3.390625 3.152344 3.390625 3.152344 5.261719 L 3.152344 8.378906 C 3.152344 9.394531 3.25 9.859375 3.796875 10.074219 L 3.796875 5.261719 C 3.796875 4.132812 3.816406 4.027344 5.71875 4.019531 L 5.71875 4.015625 L 10.054688 4.015625 C 9.773438 3.390625 9.003906 3.390625 7.003906 3.390625 Z M 6.363281 3.390625 "/>
<path style=" stroke:none;fill-rule:nonzero;fill:rgb(100%,87.058824%,67.843137%);fill-opacity:1;" d="M 14.351562 12.238281 C 20.105469 4.054688 9.480469 -4.234375 2.703125 2.433594 C -3.683594 8.714844 2.238281 18.476562 10.183594 15.421875 C 11.839844 14.785156 13.296875 13.742188 14.351562 12.238281 Z M 14.351562 12.238281 "/>
<path style=" stroke:none;fill-rule:nonzero;fill:rgb(100%,64.705882%,0%);fill-opacity:1;" d="M 3.503906 5.085938 L 12.359375 5.085938 C 12.5 5.085938 12.609375 5.195312 12.609375 5.332031 L 12.609375 11.003906 C 12.609375 11.144531 12.5 11.253906 12.359375 11.253906 L 3.503906 11.253906 C 3.367188 11.253906 3.253906 11.144531 3.253906 11.003906 L 3.253906 5.332031 C 3.253906 5.195312 3.367188 5.085938 3.503906 5.085938 Z M 3.503906 5.085938 "/>
<path style=" stroke:none;fill-rule:nonzero;fill:rgb(94.117647%,90.196078%,54.901961%);fill-opacity:1;" d="M 4.382812 5.832031 L 5.511719 5.832031 C 5.652344 5.832031 5.761719 5.941406 5.761719 6.078125 L 5.761719 7.207031 C 5.761719 7.347656 5.652344 7.457031 5.511719 7.457031 L 4.382812 7.457031 C 4.246094 7.457031 4.136719 7.347656 4.136719 7.207031 L 4.136719 6.078125 C 4.136719 5.941406 4.246094 5.832031 4.382812 5.832031 Z M 4.382812 5.832031 "/>
<path style=" stroke:none;fill-rule:nonzero;fill:rgb(96.078431%,87.058824%,70.196078%);fill-opacity:1;" d="M 7.84375 10.101562 L 11.75 10.101562 C 11.886719 10.101562 12 10.214844 12 10.351562 L 12 10.394531 C 12 10.53125 11.886719 10.644531 11.75 10.644531 L 7.84375 10.644531 C 7.703125 10.644531 7.59375 10.53125 7.59375 10.394531 L 7.59375 10.351562 C 7.59375 10.214844 7.703125 10.101562 7.84375 10.101562 Z M 7.84375 10.101562 "/>
</g>
</svg>
