
<svg xmlns="http://www.w3.org/2000/svg" xmlns:xlink="http://www.w3.org/1999/xlink" width="16px" height="16px" viewBox="0 0 16 16" version="1.1">
<g id="surface1">
<path style=" stroke:none;fill-rule:nonzero;fill:rgb(43.921569%,50.196078%,56.470588%);fill-opacity:1;" d="M 1.589844 3.453125 C -6.234375 20.582031 18.695312 18.460938 15.71875 7.339844 C 14.28125 0.914062 5.257812 -2.988281 1.589844 3.453125 Z M 1.589844 3.453125 "/>
<path style=" stroke:none;fill-rule:evenodd;fill:rgb(78.823529%,78.823529%,78.823529%);fill-opacity:1;" d="M 7.824219 5.648438 C 7.789062 5.996094 7.535156 5.847656 7.257812 6.039062 C 7.183594 6.027344 7.097656 6.027344 6.980469 6.027344 C 6.957031 5.796875 7.042969 5.753906 7.085938 5.710938 C 7.257812 5.585938 7.375 5.648438 7.375 5.648438 C 7.503906 5.628906 7.621094 5.660156 7.824219 5.648438 Z M 8.460938 5.078125 L 8.089844 5.078125 L 8.089844 4.984375 L 7.886719 4.984375 L 7.886719 5.035156 C 7.863281 5.046875 7.84375 5.066406 7.824219 5.078125 L 7.800781 5.078125 C 7.449219 4.804688 7.425781 5.363281 7.191406 5.238281 C 7.171875 5.121094 7.183594 5.015625 7.183594 4.878906 C 7.585938 4.867188 7.4375 4.761719 7.320312 4.625 C 7.277344 4.570312 7.257812 4.488281 7.246094 4.433594 C 7.148438 4.085938 6.753906 3.875 6.179688 4.097656 C 5.804688 4.234375 5.902344 4.730469 5.933594 5.066406 C 5.914062 5.097656 5.871094 5.089844 5.839844 5.089844 C 5.433594 5.109375 5.25 5.53125 5.167969 5.871094 C 5.1875 6.175781 5.144531 6.511719 5.09375 6.808594 C 5.039062 7.105469 4.933594 7.335938 4.921875 7.621094 C 4.898438 7.875 4.996094 8.167969 4.976562 8.402344 C 4.75 9.054688 4.589844 9.488281 4.472656 10.183594 C 4.386719 10.34375 4.089844 10.679688 3.972656 10.753906 C 3.941406 10.808594 3.992188 10.921875 3.941406 10.996094 C 3.84375 11.132812 3.695312 11.207031 3.609375 11.355469 C 3.628906 11.386719 3.480469 11.417969 3.492188 11.472656 C 3.503906 11.523438 3.578125 11.660156 3.609375 11.691406 C 3.621094 11.714844 3.726562 11.660156 3.726562 11.691406 C 3.769531 11.820312 3.867188 12.082031 3.972656 12.148438 C 4.441406 12.199219 4.441406 12.199219 4.632812 12.148438 C 4.738281 11.839844 4.269531 11.976562 4.3125 11.566406 C 4.953125 11.441406 5.15625 11.261719 5.410156 10.59375 C 5.527344 10.109375 5.6875 9.636719 5.933594 9.171875 C 5.976562 9.140625 5.964844 9.054688 6.039062 9.023438 C 6.328125 9.496094 6.851562 9.835938 7.105469 10.332031 C 7.171875 10.976562 7.300781 11.324219 7.523438 11.4375 C 7.578125 11.460938 7.523438 11.660156 7.566406 11.703125 C 7.566406 11.765625 7.589844 11.839844 7.554688 11.914062 C 7.535156 11.964844 7.546875 12.03125 7.546875 12.082031 C 7.546875 12.101562 7.546875 12.125 7.546875 12.144531 C 7.554688 12.242188 7.578125 12.242188 7.671875 12.316406 C 7.949219 12.492188 8.324219 12.777344 8.699219 12.566406 C 8.867188 12.292969 8.503906 11.945312 8.25 11.765625 C 8.164062 11.703125 8.015625 11.542969 8.035156 11.4375 C 8.175781 11.300781 8.269531 10.699219 8.21875 10.234375 C 8.195312 10.128906 8.175781 10.023438 8.132812 9.941406 C 8.003906 9.699219 7.714844 9.359375 7.472656 9.117188 C 7.503906 9.085938 7.546875 9.042969 7.597656 9.023438 C 7.597656 8.789062 7.503906 8.714844 7.375 8.546875 C 7.269531 8.378906 7.023438 8.050781 6.839844 7.945312 C 6.839844 7.945312 6.839844 7.9375 6.660156 7.9375 C 6.648438 7.820312 6.683594 7.726562 6.714844 7.597656 C 6.714844 7.503906 6.789062 7.554688 6.808594 7.34375 C 6.863281 7.167969 6.839844 7.273438 6.882812 7.09375 C 6.925781 7.007812 6.949219 6.921875 6.949219 6.785156 C 7.109375 6.839844 7.429688 6.828125 7.566406 6.785156 C 7.566406 6.785156 7.566406 6.785156 7.597656 6.808594 C 7.640625 6.816406 7.652344 6.753906 7.683594 6.746094 C 7.929688 6.617188 8.015625 6.394531 8.21875 6.375 C 8.21875 6.375 8.324219 6.320312 8.484375 6.375 C 8.546875 6.375 8.601562 6.386719 8.601562 6.320312 C 8.613281 6.226562 8.613281 6.152344 8.667969 6.089844 C 8.707031 6.34375 8.824219 6.628906 9.039062 6.902344 L 9.253906 6.753906 C 9.050781 6.511719 8.921875 6.238281 8.898438 5.921875 C 8.910156 5.941406 8.921875 5.964844 8.941406 5.984375 C 9.019531 5.984375 9.058594 5.824219 9.144531 5.835938 C 9.15625 5.816406 9.179688 5.71875 9.199219 5.648438 L 10 5.648438 L 10.285156 5.582031 C 10.285156 5.488281 10.285156 5.550781 10.285156 5.4375 L 10.074219 5.414062 L 10.074219 5.246094 L 10.019531 5.246094 L 10.019531 5.054688 L 9.890625 5.054688 L 9.890625 5.234375 L 9.5625 5.214844 L 9.5625 5.097656 L 9.433594 5.097656 L 9.433594 5.203125 L 9.09375 5.171875 L 9.09375 5.015625 L 8.964844 5.015625 L 8.964844 5.160156 L 8.464844 5.128906 L 8.464844 5.078125 Z M 8.460938 5.078125 "/>
<path style=" stroke:none;fill-rule:nonzero;fill:rgb(78.823529%,78.823529%,78.823529%);fill-opacity:1;" d="M 10.175781 9.648438 C 10.0625 9.714844 9.949219 9.765625 9.832031 9.800781 C 9.714844 9.832031 9.59375 9.851562 9.46875 9.851562 C 9.1875 9.851562 8.960938 9.75 8.796875 9.550781 C 8.628906 9.34375 8.546875 9.066406 8.546875 8.714844 C 8.546875 8.367188 8.628906 8.089844 8.796875 7.886719 C 8.964844 7.683594 9.199219 7.582031 9.492188 7.582031 C 9.605469 7.582031 9.710938 7.59375 9.816406 7.621094 C 9.921875 7.652344 10.019531 7.691406 10.113281 7.746094 L 10.113281 8.199219 C 10.015625 8.132812 9.921875 8.078125 9.828125 8.042969 C 9.734375 8.011719 9.640625 7.992188 9.546875 7.992188 C 9.371094 7.992188 9.234375 8.054688 9.140625 8.179688 C 9.046875 8.304688 9 8.484375 9 8.714844 C 9 8.949219 9.042969 9.128906 9.132812 9.257812 C 9.226562 9.382812 9.359375 9.445312 9.523438 9.445312 C 9.570312 9.445312 9.609375 9.441406 9.648438 9.433594 C 9.691406 9.425781 9.726562 9.414062 9.757812 9.398438 L 9.757812 8.972656 L 9.488281 8.972656 L 9.488281 8.597656 L 10.175781 8.597656 Z M 10.175781 9.648438 "/>
<path style=" stroke:none;fill-rule:nonzero;fill:rgb(78.823529%,78.823529%,78.823529%);fill-opacity:1;" d="M 11.433594 7.992188 C 11.300781 7.992188 11.199219 8.058594 11.121094 8.183594 C 11.050781 8.308594 11.011719 8.488281 11.011719 8.714844 C 11.011719 8.949219 11.050781 9.128906 11.121094 9.257812 C 11.199219 9.382812 11.300781 9.445312 11.433594 9.445312 C 11.570312 9.445312 11.675781 9.382812 11.746094 9.257812 C 11.820312 9.128906 11.855469 8.949219 11.855469 8.714844 C 11.855469 8.488281 11.820312 8.308594 11.746094 8.183594 C 11.675781 8.058594 11.570312 7.992188 11.433594 7.992188 Z M 11.433594 7.582031 C 11.707031 7.582031 11.921875 7.683594 12.074219 7.882812 C 12.230469 8.085938 12.308594 8.363281 12.308594 8.714844 C 12.308594 9.070312 12.230469 9.347656 12.074219 9.550781 C 11.921875 9.75 11.707031 9.851562 11.433594 9.851562 C 11.164062 9.851562 10.949219 9.75 10.792969 9.550781 C 10.636719 9.347656 10.558594 9.070312 10.558594 8.714844 C 10.558594 8.363281 10.636719 8.085938 10.792969 7.882812 C 10.949219 7.683594 11.164062 7.582031 11.433594 7.582031 Z M 11.433594 7.582031 "/>
</g>
</svg>
