
<svg xmlns="http://www.w3.org/2000/svg" xmlns:xlink="http://www.w3.org/1999/xlink" width="16px" height="16px" viewBox="0 0 16 16" version="1.1">
<g id="surface1">
<path style=" stroke:none;fill-rule:nonzero;fill:rgb(27.45098%,50.980392%,70.588235%);fill-opacity:1;" d="M 2.800781 2.320312 C -9.8125 18.96875 24.902344 21.335938 13.761719 4.339844 C 11.222656 0.464844 6.144531 -2.089844 2.800781 2.320312 Z M 2.800781 2.320312 "/>
<path style=" stroke:none;fill-rule:nonzero;fill:rgb(100%,100%,100%);fill-opacity:0.988235;" d="M 11.3125 13.28125 C 11.125 13.25 10.785156 13.171875 10.558594 13.105469 C 10.0625 12.964844 9.585938 12.964844 8.949219 13.101562 C 8.304688 13.238281 7.257812 13.238281 6.691406 13.09375 C 5.011719 12.671875 3.730469 11.097656 3.613281 9.308594 C 3.59375 8.984375 3.617188 8.394531 3.664062 8 L 3.75 7.28125 L 3.460938 6.878906 C 3.089844 6.363281 2.976562 6.011719 3.019531 5.519531 C 3.058594 5.015625 3.355469 4.585938 3.820312 4.355469 C 4.398438 4.0625 4.878906 4.144531 5.527344 4.636719 L 5.863281 4.890625 L 6.382812 4.710938 C 7.085938 4.472656 7.988281 4.417969 8.75 4.574219 C 9.558594 4.738281 9.707031 4.726562 10.195312 4.457031 C 10.546875 4.261719 10.699219 4.21875 11.078125 4.21875 C 11.476562 4.21875 11.570312 4.246094 11.8125 4.4375 C 11.964844 4.558594 12.175781 4.820312 12.285156 5.019531 C 12.570312 5.550781 12.542969 5.972656 12.1875 6.632812 L 11.90625 7.152344 L 11.988281 7.664062 C 12.136719 8.609375 12.09375 9.675781 11.875 10.410156 C 11.65625 11.140625 11.613281 11.863281 11.761719 12.285156 C 11.816406 12.4375 11.976562 12.707031 12.117188 12.886719 C 12.257812 13.070312 12.351562 13.246094 12.328125 13.285156 C 12.277344 13.367188 11.816406 13.363281 11.3125 13.28125 Z M 6.253906 11.09375 C 6.519531 11.003906 6.558594 10.902344 6.621094 10.097656 L 6.664062 9.496094 L 7.738281 9.496094 L 7.820312 10.195312 C 7.863281 10.578125 7.9375 10.9375 7.988281 10.996094 C 8.085938 11.113281 8.523438 11.132812 8.722656 11.027344 C 8.960938 10.902344 9.023438 10.539062 9.019531 9.285156 C 9.015625 7.363281 8.882812 6.730469 8.484375 6.730469 C 8.058594 6.730469 7.832031 7.128906 7.832031 7.875 L 7.832031 8.367188 L 7.25 8.34375 L 6.664062 8.320312 L 6.617188 7.789062 C 6.59375 7.496094 6.539062 7.175781 6.5 7.070312 C 6.351562 6.6875 5.867188 6.640625 5.636719 6.984375 C 5.535156 7.132812 5.515625 7.4375 5.515625 8.976562 C 5.515625 10.886719 5.542969 11.0625 5.84375 11.121094 C 5.9375 11.136719 6.015625 11.15625 6.019531 11.160156 C 6.023438 11.167969 6.128906 11.136719 6.253906 11.09375 Z M 10.375 10.90625 C 10.539062 10.757812 10.550781 10.378906 10.398438 10.183594 C 10.257812 10 10.257812 9.828125 10.402344 9.710938 C 10.503906 9.628906 10.515625 9.429688 10.496094 8.3125 C 10.472656 7.042969 10.46875 7.003906 10.296875 6.871094 C 10.082031 6.699219 10.046875 6.699219 9.84375 6.859375 C 9.652344 7.011719 9.546875 7.625 9.527344 8.730469 C 9.515625 9.441406 9.523438 9.488281 9.710938 9.707031 L 9.90625 9.9375 L 9.726562 10.199219 C 9.507812 10.515625 9.507812 10.496094 9.691406 10.789062 C 9.859375 11.058594 10.144531 11.105469 10.375 10.90625 Z M 10.375 10.90625 "/>
<path style=" stroke:none;fill-rule:nonzero;fill:rgb(100%,27.058824%,0%);fill-opacity:0.988235;" d="M 9.890625 10.941406 C 9.828125 10.902344 9.730469 10.785156 9.675781 10.683594 C 9.582031 10.507812 9.589844 10.472656 9.742188 10.246094 C 9.949219 9.945312 9.949219 9.9375 9.738281 9.65625 C 9.585938 9.445312 9.570312 9.367188 9.570312 8.742188 C 9.570312 7.226562 9.867188 6.480469 10.289062 6.945312 C 10.402344 7.074219 10.421875 7.222656 10.441406 8.289062 C 10.460938 9.328125 10.449219 9.515625 10.34375 9.710938 C 10.230469 9.917969 10.230469 9.945312 10.339844 10.171875 C 10.402344 10.300781 10.453125 10.476562 10.453125 10.5625 C 10.453125 10.863281 10.132812 11.082031 9.890625 10.941406 Z M 9.890625 10.941406 "/>
<path style=" stroke:none;fill-rule:nonzero;fill:rgb(100%,100%,100%);fill-opacity:0.988235;" d="M 9.597656 9.847656 L 10.441406 9.847656 C 10.453125 9.847656 10.460938 9.851562 10.460938 9.855469 L 10.460938 10.015625 C 10.460938 10.019531 10.453125 10.023438 10.441406 10.023438 L 9.597656 10.023438 C 9.585938 10.023438 9.578125 10.019531 9.578125 10.015625 L 9.578125 9.855469 C 9.578125 9.851562 9.585938 9.847656 9.597656 9.847656 Z M 9.597656 9.847656 "/>
</g>
</svg>
