
<svg xmlns="http://www.w3.org/2000/svg" xmlns:xlink="http://www.w3.org/1999/xlink" width="16px" height="16px" viewBox="0 0 16 16" version="1.1">
<defs>
<linearGradient id="linear0" gradientUnits="userSpaceOnUse" x1="0" y1="366.65" x2="0" y2="609.51" gradientTransform="matrix(0.0127276,0,0,0.00303916,3.365615,10.041574)">
<stop offset="0" style="stop-color:rgb(0%,0%,0%);stop-opacity:0;"/>
<stop offset="0.5" style="stop-color:rgb(0%,0%,0%);stop-opacity:0.403922;"/>
<stop offset="1" style="stop-color:rgb(0%,0%,0%);stop-opacity:0;"/>
</linearGradient>
<radialGradient id="radial0" gradientUnits="userSpaceOnUse" cx="605.71" cy="486.65" fx="605.71" fy="486.65" r="117.14" gradientTransform="matrix(0.0127276,0,0,0.00303916,3.367944,10.041574)">
<stop offset="0" style="stop-color:rgb(0%,0%,0%);stop-opacity:0.403922;"/>
<stop offset="1" style="stop-color:rgb(0%,0%,0%);stop-opacity:0;"/>
</radialGradient>
<radialGradient id="radial1" gradientUnits="userSpaceOnUse" cx="605.71" cy="486.65" fx="605.71" fy="486.65" r="117.14" gradientTransform="matrix(-0.0127276,0,0,0.00303916,12.564276,10.041574)">
<stop offset="0" style="stop-color:rgb(0%,0%,0%);stop-opacity:0.403922;"/>
<stop offset="1" style="stop-color:rgb(0%,0%,0%);stop-opacity:0;"/>
</radialGradient>
<linearGradient id="linear1" gradientUnits="userSpaceOnUse" x1="39.23" y1="40" x2="31.33" y2="9" gradientTransform="matrix(1.0011,0,0,1.13519,-0.027,-1.312)">
<stop offset="0" style="stop-color:rgb(18.039216%,20.392157%,21.176471%);stop-opacity:1;"/>
<stop offset="1" style="stop-color:rgb(18.039216%,20.392157%,21.176471%);stop-opacity:0;"/>
</linearGradient>
<linearGradient id="linear2" gradientUnits="userSpaceOnUse" x1="6.193" y1="9" x2="24" y2="40" gradientTransform="matrix(1.0011,0,0,1.13519,-0.027,-1.312)">
<stop offset="0" style="stop-color:rgb(53.333333%,54.117647%,52.156863%);stop-opacity:1;"/>
<stop offset="1" style="stop-color:rgb(53.333333%,54.117647%,52.156863%);stop-opacity:0;"/>
</linearGradient>
<linearGradient id="linear3" gradientUnits="userSpaceOnUse" x1="40.733" y1="38.835" x2="12.49" y2="12" gradientTransform="matrix(0.99742,0,0,0.99602,0.062,0.097)">
<stop offset="0" style="stop-color:rgb(12.54902%,29.019608%,52.941176%);stop-opacity:1;"/>
<stop offset="1" style="stop-color:rgb(12.54902%,29.019608%,52.941176%);stop-opacity:0;"/>
</linearGradient>
<linearGradient id="linear4" gradientUnits="userSpaceOnUse" x1="15.175" y1="11.588" x2="28.941" y2="36.32" gradientTransform="matrix(0.99742,0,0,0.99602,0.062,0.097)">
<stop offset="0" style="stop-color:rgb(44.705882%,62.352941%,81.176471%);stop-opacity:1;"/>
<stop offset="1" style="stop-color:rgb(44.705882%,62.352941%,81.176471%);stop-opacity:0;"/>
</linearGradient>
<linearGradient id="linear5" gradientUnits="userSpaceOnUse" x1="0" y1="5.1" x2="0" y2="26.04" gradientTransform="matrix(0.213953,0,0,0.184128,2.82952,3.778493)">
<stop offset="0" style="stop-color:rgb(100%,100%,100%);stop-opacity:0.4;"/>
<stop offset="1" style="stop-color:rgb(100%,100%,100%);stop-opacity:0;"/>
</linearGradient>
<linearGradient id="linear6" gradientUnits="userSpaceOnUse" x1="19.524" y1="26.93" x2="24.664" y2="33.92" >
<stop offset="0" style="stop-color:rgb(98.823529%,91.372549%,30.980392%);stop-opacity:1;"/>
<stop offset="1" style="stop-color:rgb(98.823529%,91.372549%,30.980392%);stop-opacity:0;"/>
</linearGradient>
<linearGradient id="linear7" gradientUnits="userSpaceOnUse" x1="34.53" y1="20.788" x2="40.954" y2="29.525" >
<stop offset="0" style="stop-color:rgb(98.823529%,91.372549%,30.980392%);stop-opacity:1;"/>
<stop offset="1" style="stop-color:rgb(98.823529%,91.372549%,30.980392%);stop-opacity:0;"/>
</linearGradient>
<linearGradient id="linear8" gradientUnits="userSpaceOnUse" x1="11.518" y1="17.07" x2="15.373" y2="22.315" >
<stop offset="0" style="stop-color:rgb(98.823529%,91.372549%,30.980392%);stop-opacity:1;"/>
<stop offset="1" style="stop-color:rgb(98.823529%,91.372549%,30.980392%);stop-opacity:0;"/>
</linearGradient>
</defs>
<g id="surface1">
<path style=" stroke:none;fill-rule:nonzero;fill:rgb(43.921569%,50.196078%,56.470588%);fill-opacity:1;" d="M 1.558594 12.703125 C -6.4375 0.671875 19.066406 -6.734375 15.691406 8.8125 C 14.25 15.238281 5.226562 19.140625 1.558594 12.703125 Z M 1.558594 12.703125 "/>
<path style=" stroke:none;fill-rule:nonzero;fill:url(#linear0);" d="M 4.894531 11.15625 L 11.039062 11.15625 L 11.039062 11.894531 L 4.894531 11.894531 Z M 4.894531 11.15625 "/>
<path style=" stroke:none;fill-rule:nonzero;fill:url(#radial0);" d="M 11.039062 11.15625 C 11.039062 11.15625 11.039062 11.894531 11.039062 11.894531 C 11.695312 11.894531 12.625 11.730469 12.625 11.523438 C 12.625 11.320312 11.890625 11.15625 11.039062 11.15625 Z M 11.039062 11.15625 "/>
<path style=" stroke:none;fill-rule:nonzero;fill:url(#radial1);" d="M 4.894531 11.15625 C 4.894531 11.15625 4.894531 11.894531 4.894531 11.894531 C 4.238281 11.894531 3.308594 11.730469 3.308594 11.523438 C 3.308594 11.320312 4.039062 11.15625 4.894531 11.15625 Z M 4.894531 11.15625 "/>
<path style="fill-rule:nonzero;fill:rgb(33.333333%,34.117647%,32.54902%);fill-opacity:1;stroke-width:1;stroke-linecap:butt;stroke-linejoin:miter;stroke:rgb(18.039216%,20.392157%,21.176471%);stroke-opacity:1;stroke-miterlimit:4;" d="M 2.506142 8.501558 L 45.481353 8.501558 C 46.040725 8.501558 46.503654 9.115453 46.503654 9.877529 L 46.503654 43.13371 C 46.503654 43.874618 46.040725 44.509682 45.481353 44.509682 L 2.506142 44.509682 C 1.946769 44.509682 1.503129 43.874618 1.503129 43.13371 L 1.503129 9.877529 C 1.503129 9.115453 1.946769 8.501558 2.506142 8.501558 Z M 2.506142 8.501558 " transform="matrix(0.202515,0,0,0.184529,3.10575,3.036688)"/>
<path style="fill-rule:nonzero;fill:url(#linear1);stroke-width:1;stroke-linecap:butt;stroke-linejoin:miter;stroke:url(#linear2);stroke-miterlimit:4;" d="M 3.007648 9.496491 L 44.999136 9.496491 C 45.269178 9.496491 45.500642 9.750517 45.500642 10.068049 L 45.500642 42.922023 C 45.500642 43.239554 45.269178 43.49358 44.999136 43.49358 L 3.007648 43.49358 C 2.718317 43.49358 2.506142 43.239554 2.506142 42.922023 L 2.506142 10.068049 C 2.506142 9.750517 2.718317 9.496491 3.007648 9.496491 Z M 3.007648 9.496491 " transform="matrix(0.202515,0,0,0.184529,3.10575,3.036688)"/>
<path style="fill-rule:nonzero;fill:rgb(20.392157%,39.607843%,64.313725%);fill-opacity:1;stroke-width:1;stroke-linecap:butt;stroke-linejoin:miter;stroke:rgb(12.54902%,29.019608%,52.941176%);stroke-opacity:1;stroke-miterlimit:4;" d="M 4.492877 11.507527 L 43.494618 11.507527 L 43.494618 37.50281 L 4.492877 37.50281 Z M 4.492877 11.507527 " transform="matrix(0.202515,0,0,0.184529,3.10575,3.036688)"/>
<path style="fill-rule:nonzero;fill:url(#linear3);stroke-width:1;stroke-linecap:butt;stroke-linejoin:miter;stroke:url(#linear4);stroke-miterlimit:4;" d="M 5.495889 12.50246 L 42.491606 12.50246 L 42.491606 36.507877 L 5.495889 36.507877 Z M 5.495889 12.50246 " transform="matrix(0.202515,0,0,0.184529,3.10575,3.036688)"/>
<path style=" stroke:none;fill-rule:evenodd;fill:url(#linear5);" d="M 4.117188 5.257812 L 4.117188 8.574219 C 7.636719 8.324219 8.953125 6.710938 11.8125 6.542969 L 11.8125 5.25 Z M 4.117188 5.257812 "/>
<path style="fill:none;stroke-width:1;stroke-linecap:butt;stroke-linejoin:miter;stroke:rgb(33.333333%,34.117647%,32.54902%);stroke-opacity:1;stroke-miterlimit:4;" d="M 11.996179 18.577905 L 20.463916 29.564511 L 36.569976 23.573741 " transform="matrix(0.202515,0,0,0.184529,3.10575,3.036688)"/>
<path style="fill-rule:nonzero;fill:rgb(92.941176%,83.137255%,0%);fill-opacity:1;stroke-width:1;stroke-linecap:butt;stroke-linejoin:miter;stroke:rgb(76.862745%,62.745098%,0%);stroke-opacity:1;stroke-miterlimit:4;" d="M 15.506722 19.001281 C 15.506722 20.377253 14.387977 21.499199 12.999191 21.499199 C 11.610405 21.499199 10.491661 20.377253 10.491661 19.001281 C 10.491661 17.625309 11.610405 16.503363 12.999191 16.503363 C 14.387977 16.503363 15.506722 17.625309 15.506722 19.001281 Z M 15.506722 19.001281 " transform="matrix(0.202515,0,0,0.184529,3.10575,3.036688)"/>
<path style="fill-rule:nonzero;fill:rgb(92.941176%,83.137255%,0%);fill-opacity:1;stroke-width:1;stroke-linecap:butt;stroke-linejoin:miter;stroke:rgb(76.862745%,62.745098%,0%);stroke-opacity:1;stroke-miterlimit:4;" d="M 24.495253 29.501005 C 24.495253 31.152171 23.145045 32.506974 21.486217 32.506974 C 19.827389 32.506974 18.477181 31.152171 18.477181 29.501005 C 18.477181 27.849839 19.827389 26.495036 21.486217 26.495036 C 23.145045 26.495036 24.495253 27.849839 24.495253 29.501005 Z M 24.495253 29.501005 " transform="matrix(0.202515,0,0,0.184529,3.10575,3.036688)"/>
<path style="fill-rule:nonzero;fill:rgb(92.941176%,83.137255%,0%);fill-opacity:1;stroke-width:1;stroke-linecap:butt;stroke-linejoin:miter;stroke:rgb(76.862745%,62.745098%,0%);stroke-opacity:1;stroke-miterlimit:4;" d="M 40.50487 24.039455 C 40.50487 25.944647 38.942486 27.511138 37.032905 27.511138 C 35.104036 27.511138 33.56094 25.944647 33.56094 24.039455 C 33.56094 22.113094 35.104036 20.546603 37.032905 20.546603 C 38.942486 20.546603 40.50487 22.113094 40.50487 24.039455 Z M 40.50487 24.039455 " transform="matrix(0.202515,0,0,0.184529,3.10575,3.036688)"/>
<path style="fill:none;stroke-width:1;stroke-linecap:butt;stroke-linejoin:miter;stroke:url(#linear6);stroke-miterlimit:4;" d="M 23.492241 29.501005 C 23.492241 30.601782 22.604961 31.490872 21.505506 31.490872 C 20.386761 31.490872 19.499482 30.601782 19.499482 29.501005 C 19.499482 28.400227 20.386761 27.489969 21.505506 27.489969 C 22.604961 27.489969 23.492241 28.400227 23.492241 29.501005 Z M 23.492241 29.501005 " transform="matrix(0.202515,0,0,0.184529,3.10575,3.036688)"/>
<path style="fill:none;stroke-width:1;stroke-linecap:butt;stroke-linejoin:miter;stroke:url(#linear7);stroke-miterlimit:4;" d="M 39.501858 23.997117 C 39.501858 25.373089 38.383114 26.495036 36.994328 26.495036 C 35.62483 26.495036 34.506086 25.373089 34.506086 23.997117 C 34.506086 22.621146 35.62483 21.499199 36.994328 21.499199 C 38.383114 21.499199 39.501858 22.621146 39.501858 23.997117 Z M 39.501858 23.997117 " transform="matrix(0.202515,0,0,0.184529,3.10575,3.036688)"/>
<path style="fill:none;stroke-width:1;stroke-linecap:butt;stroke-linejoin:miter;stroke:url(#linear8);stroke-miterlimit:4;" d="M 14.50371 19.001281 C 14.50371 19.826864 13.828605 20.504266 12.999191 20.504266 C 12.169778 20.504266 11.494673 19.826864 11.494673 19.001281 C 11.494673 18.175698 12.169778 17.498297 12.999191 17.498297 C 13.828605 17.498297 14.50371 18.175698 14.50371 19.001281 Z M 14.50371 19.001281 " transform="matrix(0.202515,0,0,0.184529,3.10575,3.036688)"/>
</g>
</svg>
