
<svg xmlns="http://www.w3.org/2000/svg" xmlns:xlink="http://www.w3.org/1999/xlink" width="16px" height="16px" viewBox="0 0 16 16" version="1.1">
<g id="surface1">
<path style=" stroke:none;fill-rule:nonzero;fill:rgb(84.705882%,74.901961%,84.705882%);fill-opacity:1;" d="M 1.992188 3.914062 C 15.164062 -10.257812 23.460938 18.988281 5.976562 15.761719 C 1.363281 14.171875 -2.238281 8.460938 1.992188 3.914062 Z M 1.992188 3.914062 "/>
<path style=" stroke:none;fill-rule:nonzero;fill:rgb(0%,0%,0%);fill-opacity:0.101961;" d="M 5.554688 5.808594 L 5.554688 7.8125 L 7.476562 7.8125 L 7.476562 5.808594 Z M 7.476562 7.8125 L 7.476562 9.816406 L 9.394531 9.816406 L 9.394531 7.8125 Z M 7.476562 9.816406 L 5.554688 9.816406 L 5.554688 11.820312 L 7.476562 11.820312 Z M 5.554688 9.816406 L 5.554688 7.8125 L 3.636719 7.8125 L 3.636719 9.816406 Z M 10.675781 6.140625 L 10.675781 8.144531 L 12.59375 8.144531 L 12.59375 6.140625 Z M 10.675781 9.484375 L 10.675781 11.488281 L 12.59375 11.488281 L 12.59375 9.484375 Z M 10.675781 9.484375 "/>
<path style=" stroke:none;fill-rule:nonzero;fill:rgb(17.647059%,15.294118%,13.72549%);fill-opacity:1;" d="M 3.316406 7.476562 L 5.234375 7.476562 L 5.234375 9.484375 L 3.316406 9.484375 Z M 3.316406 7.476562 "/>
<path style=" stroke:none;fill-rule:nonzero;fill:rgb(17.647059%,15.294118%,13.72549%);fill-opacity:1;" d="M 7.15625 7.476562 L 9.074219 7.476562 L 9.074219 9.484375 L 7.15625 9.484375 Z M 7.15625 7.476562 "/>
<path style=" stroke:none;fill-rule:nonzero;fill:rgb(17.647059%,15.294118%,13.72549%);fill-opacity:1;" d="M 5.234375 5.472656 L 7.15625 5.472656 L 7.15625 7.476562 L 5.234375 7.476562 Z M 5.234375 5.472656 "/>
<path style=" stroke:none;fill-rule:nonzero;fill:rgb(17.647059%,15.294118%,13.72549%);fill-opacity:1;" d="M 5.234375 9.484375 L 7.15625 9.484375 L 7.15625 11.488281 L 5.234375 11.488281 Z M 5.234375 9.484375 "/>
<path style=" stroke:none;fill-rule:nonzero;fill:rgb(10.588235%,67.843137%,21.568627%);fill-opacity:1;" d="M 10.355469 5.808594 L 12.273438 5.808594 L 12.273438 7.8125 L 10.355469 7.8125 Z M 10.355469 5.808594 "/>
<path style=" stroke:none;fill-rule:nonzero;fill:rgb(94.117647%,23.529412%,26.666667%);fill-opacity:1;" d="M 10.355469 9.148438 L 12.273438 9.148438 L 12.273438 11.152344 L 10.355469 11.152344 Z M 10.355469 9.148438 "/>
</g>
</svg>
