
<svg xmlns="http://www.w3.org/2000/svg" xmlns:xlink="http://www.w3.org/1999/xlink" width="16px" height="16px" viewBox="0 0 16 16" version="1.1">
<g id="surface1">
<path style=" stroke:none;fill-rule:nonzero;fill:rgb(60.392157%,80.392157%,19.607843%);fill-opacity:1;" d="M 3.296875 14.4375 C 15.328125 22.4375 22.734375 -3.066406 7.1875 0.308594 C 0.757812 1.75 -3.140625 10.773438 3.296875 14.4375 Z M 3.296875 14.4375 "/>
<path style=" stroke:none;fill-rule:nonzero;fill:rgb(100%,99.215686%,93.333333%);fill-opacity:1;" d="M 8.59375 3.648438 C 8.089844 3.714844 7.621094 3.96875 7.3125 4.347656 C 7.003906 4.726562 6.855469 5.21875 6.917969 5.691406 C 6.867188 5.355469 6.703125 5.035156 6.457031 4.789062 C 6.207031 4.542969 5.878906 4.371094 5.527344 4.300781 C 4.960938 4.191406 4.339844 4.367188 3.929688 4.753906 C 3.519531 5.140625 3.332031 5.726562 3.449219 6.261719 C 3.617188 7.261719 4.179688 8.199219 4.996094 8.851562 C 5.976562 9.632812 7.304688 9.992188 8.582031 9.882812 C 9.859375 9.777344 11.074219 9.210938 11.992188 8.367188 C 12.554688 7.855469 13.019531 7.214844 13.15625 6.488281 C 13.222656 6.125 13.203125 5.742188 13.078125 5.394531 C 12.953125 5.042969 12.71875 4.726562 12.402344 4.511719 C 12.128906 4.320312 11.792969 4.214844 11.453125 4.203125 C 11.113281 4.191406 10.769531 4.277344 10.480469 4.445312 C 10.277344 4.160156 9.988281 3.933594 9.65625 3.792969 C 9.324219 3.652344 8.953125 3.601562 8.59375 3.648438 "/>
<path style=" stroke:none;fill-rule:evenodd;fill:rgb(100%,27.058824%,0%);fill-opacity:1;" d="M 10.292969 5.328125 C 10.011719 5.628906 9.375 6.277344 9.375 6.277344 L 10.097656 7.128906 C 10.097656 7.128906 10.777344 6.378906 11.074219 6.0625 C 11.148438 5.980469 11.183594 5.855469 11.148438 5.816406 C 11.035156 5.699219 10.84375 5.511719 10.84375 5.511719 C 10.84375 5.511719 10.664062 5.324219 10.554688 5.214844 C 10.515625 5.171875 10.375 5.242188 10.292969 5.328125 Z M 8.722656 6.921875 L 4.640625 11.269531 L 4.257812 12.523438 L 5.449219 12.070312 L 9.488281 7.765625 Z M 8.722656 6.921875 "/>
</g>
</svg>
