
<svg xmlns="http://www.w3.org/2000/svg" xmlns:xlink="http://www.w3.org/1999/xlink" width="16px" height="16px" viewBox="0 0 16 16" version="1.1">
<g id="surface1">
<path style=" stroke:none;fill-rule:nonzero;fill:rgb(20.784314%,23.137255%,28.627451%);fill-opacity:1;" d="M 13.222656 2.414062 C 25.730469 18.992188 -8.691406 21.347656 2.355469 4.421875 C 4.875 0.566406 9.910156 -1.980469 13.222656 2.414062 Z M 13.222656 2.414062 "/>
<path style=" stroke:none;fill-rule:nonzero;fill:rgb(47.45098%,66.27451%,72.941176%);fill-opacity:1;" d="M 4.042969 12.578125 L 3.859375 12.5625 L 3.671875 10.3125 L 3.488281 7.917969 L 4.089844 7.847656 C 5.421875 7.683594 9.640625 7.371094 9.695312 7.304688 C 9.730469 7.261719 9.679688 6.769531 9.566406 6.019531 C 9.257812 3.972656 9.242188 3.75 9.398438 3.539062 C 9.503906 3.394531 9.605469 3.351562 9.925781 3.324219 C 10.644531 3.257812 10.816406 3.628906 11.046875 5.777344 L 11.199219 7.183594 L 11.421875 7.167969 C 11.5625 7.152344 11.695312 7.203125 11.789062 7.300781 C 11.933594 7.445312 11.945312 7.542969 12.121094 9.609375 L 12.300781 11.765625 L 9.878906 12.015625 C 5.183594 12.5 4.226562 12.59375 4.042969 12.578125 Z M 8.261719 11.179688 C 8.351562 11.105469 8.105469 8.257812 8.003906 8.160156 C 6.328125 8.382812 6.207031 8.347656 4.007812 8.5625 C 4.265625 11.460938 4.054688 11.617188 4.425781 11.574219 C 5.019531 11.507812 6.367188 11.417969 8.261719 11.179688 Z M 9.980469 8.339844 C 8.433594 8.605469 8.910156 10.851562 10.230469 10.730469 C 11.699219 10.449219 11.523438 8.214844 9.980469 8.339844 Z M 9.980469 8.339844 "/>
</g>
</svg>
