
<svg xmlns="http://www.w3.org/2000/svg" xmlns:xlink="http://www.w3.org/1999/xlink" width="16px" height="16px" viewBox="0 0 16 16" version="1.1">
<g id="surface1">
<path style=" stroke:none;fill-rule:nonzero;fill:rgb(80%,80%,94.117647%);fill-opacity:1;" d="M 3.34375 14.703125 C 10.789062 19.90625 20.109375 8.183594 14.050781 2.058594 C 8.339844 -3.714844 -2.320312 3.75 0.453125 10.933594 C 1.03125 12.433594 1.984375 13.75 3.34375 14.703125 Z M 3.34375 14.703125 "/>
<path style=" stroke:none;fill-rule:nonzero;fill:rgb(34.509804%,34.509804%,40.784314%);fill-opacity:1;" d="M 6.894531 3.683594 C 6.148438 3.671875 5.402344 3.953125 4.824219 4.539062 C 3.667969 5.710938 3.628906 7.648438 4.738281 8.863281 C 5.707031 9.921875 7.226562 10.09375 8.367188 9.339844 C 8.558594 9.355469 8.871094 9.390625 8.976562 9.523438 C 9.121094 9.703125 8.902344 10.117188 9.183594 10.394531 L 10.925781 12.335938 C 10.925781 12.335938 11.25 12.714844 11.773438 12.183594 C 12.300781 11.652344 11.953125 11.296875 11.953125 11.296875 L 10.207031 9.355469 C 9.953125 9.046875 9.554688 9.261719 9.386719 9.101562 C 9.265625 8.984375 9.25 8.660156 9.242188 8.457031 C 10 7.289062 9.898438 5.679688 8.933594 4.617188 C 8.378906 4.011719 7.636719 3.699219 6.890625 3.683594 Z M 6.882812 4.703125 C 7.953125 4.722656 8.804688 5.652344 8.785156 6.777344 C 8.761719 7.90625 7.875 8.800781 6.804688 8.777344 C 5.734375 8.757812 4.886719 7.828125 4.910156 6.703125 C 4.921875 6.140625 5.148438 5.628906 5.507812 5.265625 C 5.863281 4.902344 6.347656 4.691406 6.882812 4.703125 Z M 6.882812 4.703125 "/>
</g>
</svg>
