
<svg xmlns="http://www.w3.org/2000/svg" xmlns:xlink="http://www.w3.org/1999/xlink" width="16px" height="16px" viewBox="0 0 16 16" version="1.1">
<defs>
<linearGradient id="linear0" gradientUnits="userSpaceOnUse" x1="4" y1="0" x2="44" y2="0" gradientTransform="matrix(0.259174,0,0,0.26891,1.68575,2.146875)">
<stop offset="0" style="stop-color:rgb(18.431373%,18.431373%,18.431373%);stop-opacity:1;"/>
<stop offset="1" style="stop-color:rgb(30.980392%,30.980392%,30.980392%);stop-opacity:1;"/>
</linearGradient>
<radialGradient id="radial0" gradientUnits="userSpaceOnUse" cx="32" cy="40" fx="32" fy="40" r="16" gradientTransform="matrix(0.0732787,0,0,0.0720303,8.893372,9.817264)">
<stop offset="0" style="stop-color:rgb(94.509804%,28.235294%,28.235294%);stop-opacity:1;"/>
<stop offset="0.672" style="stop-color:rgb(89.411765%,13.72549%,13.72549%);stop-opacity:1;"/>
<stop offset="1" style="stop-color:rgb(76.078431%,7.45098%,7.45098%);stop-opacity:1;"/>
</radialGradient>
<radialGradient id="radial1" gradientUnits="userSpaceOnUse" cx="32" cy="40" fx="32" fy="40" r="16" gradientTransform="matrix(0.0732787,0,0,0.0720303,6.671735,9.817264)">
<stop offset="0" style="stop-color:rgb(94.509804%,28.235294%,28.235294%);stop-opacity:1;"/>
<stop offset="0.672" style="stop-color:rgb(89.411765%,13.72549%,13.72549%);stop-opacity:1;"/>
<stop offset="1" style="stop-color:rgb(76.078431%,7.45098%,7.45098%);stop-opacity:1;"/>
</radialGradient>
<radialGradient id="radial2" gradientUnits="userSpaceOnUse" cx="32" cy="40" fx="32" fy="40" r="16" gradientTransform="matrix(0.0732787,0,0,0.0720303,4.450356,9.817264)">
<stop offset="0" style="stop-color:rgb(94.509804%,28.235294%,28.235294%);stop-opacity:1;"/>
<stop offset="0.672" style="stop-color:rgb(89.411765%,13.72549%,13.72549%);stop-opacity:1;"/>
<stop offset="1" style="stop-color:rgb(76.078431%,7.45098%,7.45098%);stop-opacity:1;"/>
</radialGradient>
<radialGradient id="radial3" gradientUnits="userSpaceOnUse" cx="32" cy="40" fx="32" fy="40" r="16" gradientTransform="matrix(0.0732787,0,0,0.0720303,2.228719,9.817264)">
<stop offset="0" style="stop-color:rgb(94.509804%,28.235294%,28.235294%);stop-opacity:1;"/>
<stop offset="0.672" style="stop-color:rgb(89.411765%,13.72549%,13.72549%);stop-opacity:1;"/>
<stop offset="1" style="stop-color:rgb(76.078431%,7.45098%,7.45098%);stop-opacity:1;"/>
</radialGradient>
<radialGradient id="radial4" gradientUnits="userSpaceOnUse" cx="32" cy="40" fx="32" fy="40" r="16" gradientTransform="matrix(0.0732787,0,0,0.0720303,4.450356,7.512167)">
<stop offset="0" style="stop-color:rgb(94.509804%,28.235294%,28.235294%);stop-opacity:1;"/>
<stop offset="0.672" style="stop-color:rgb(89.411765%,13.72549%,13.72549%);stop-opacity:1;"/>
<stop offset="1" style="stop-color:rgb(76.078431%,7.45098%,7.45098%);stop-opacity:1;"/>
</radialGradient>
<radialGradient id="radial5" gradientUnits="userSpaceOnUse" cx="32" cy="40" fx="32" fy="40" r="16" gradientTransform="matrix(0.0732787,0,0,0.0720303,6.671735,5.20734)">
<stop offset="0" style="stop-color:rgb(94.509804%,28.235294%,28.235294%);stop-opacity:1;"/>
<stop offset="0.672" style="stop-color:rgb(89.411765%,13.72549%,13.72549%);stop-opacity:1;"/>
<stop offset="1" style="stop-color:rgb(76.078431%,7.45098%,7.45098%);stop-opacity:1;"/>
</radialGradient>
<radialGradient id="radial6" gradientUnits="userSpaceOnUse" cx="32" cy="40" fx="32" fy="40" r="16" gradientTransform="matrix(0.0732787,0,0,0.0720303,8.893372,2.902512)">
<stop offset="0" style="stop-color:rgb(94.509804%,28.235294%,28.235294%);stop-opacity:1;"/>
<stop offset="0.672" style="stop-color:rgb(89.411765%,13.72549%,13.72549%);stop-opacity:1;"/>
<stop offset="1" style="stop-color:rgb(76.078431%,7.45098%,7.45098%);stop-opacity:1;"/>
</radialGradient>
<radialGradient id="radial7" gradientUnits="userSpaceOnUse" cx="32" cy="40" fx="32" fy="40" r="16" gradientTransform="matrix(0.0732787,0,0,0.0720303,2.228719,7.512167)">
<stop offset="0" style="stop-color:rgb(54.901961%,84.313725%,24.313725%);stop-opacity:1;"/>
<stop offset="0.719" style="stop-color:rgb(36.470588%,69.803922%,16.862745%);stop-opacity:1;"/>
<stop offset="1" style="stop-color:rgb(21.568627%,60.784314%,14.901961%);stop-opacity:1;"/>
</radialGradient>
<radialGradient id="radial8" gradientUnits="userSpaceOnUse" cx="32" cy="40" fx="32" fy="40" r="16" gradientTransform="matrix(0.0732787,0,0,0.0720303,6.671735,7.512167)">
<stop offset="0" style="stop-color:rgb(54.901961%,84.313725%,24.313725%);stop-opacity:1;"/>
<stop offset="0.719" style="stop-color:rgb(36.470588%,69.803922%,16.862745%);stop-opacity:1;"/>
<stop offset="1" style="stop-color:rgb(21.568627%,60.784314%,14.901961%);stop-opacity:1;"/>
</radialGradient>
<radialGradient id="radial9" gradientUnits="userSpaceOnUse" cx="32" cy="40" fx="32" fy="40" r="16" gradientTransform="matrix(0.0732787,0,0,0.0720303,8.893372,7.512167)">
<stop offset="0" style="stop-color:rgb(54.901961%,84.313725%,24.313725%);stop-opacity:1;"/>
<stop offset="0.719" style="stop-color:rgb(36.470588%,69.803922%,16.862745%);stop-opacity:1;"/>
<stop offset="1" style="stop-color:rgb(21.568627%,60.784314%,14.901961%);stop-opacity:1;"/>
</radialGradient>
<radialGradient id="radial10" gradientUnits="userSpaceOnUse" cx="32" cy="40" fx="32" fy="40" r="16" gradientTransform="matrix(0.0732787,0,0,0.0720303,8.893372,5.20734)">
<stop offset="0" style="stop-color:rgb(54.901961%,84.313725%,24.313725%);stop-opacity:1;"/>
<stop offset="0.719" style="stop-color:rgb(36.470588%,69.803922%,16.862745%);stop-opacity:1;"/>
<stop offset="1" style="stop-color:rgb(21.568627%,60.784314%,14.901961%);stop-opacity:1;"/>
</radialGradient>
</defs>
<g id="surface1">
<path style=" stroke:none;fill-rule:nonzero;fill:rgb(18.823529%,18.823529%,18.823529%);fill-opacity:1;" d="M 15.863281 8.140625 C 17.257812 15.136719 7.679688 17.792969 2.476562 14.761719 C -1.671875 12.347656 -0.484375 4.074219 5.109375 0.988281 C 10.707031 -2.09375 14.742188 2.527344 15.863281 8.140625 "/>
<path style=" stroke:none;fill-rule:nonzero;fill:url(#linear0);" d="M 2.722656 3.222656 L 13.089844 3.222656 L 13.089844 13.980469 L 2.722656 13.980469 Z M 2.722656 3.222656 "/>
<path style=" stroke:none;fill-rule:nonzero;fill:url(#radial0);" d="M 12.226562 12.183594 C 12.21875 12.746094 11.777344 13.191406 11.238281 13.191406 C 10.699219 13.191406 10.257812 12.746094 10.25 12.183594 C 10.246094 11.816406 10.433594 11.472656 10.738281 11.285156 C 11.046875 11.097656 11.429688 11.097656 11.738281 11.285156 C 12.042969 11.472656 12.230469 11.816406 12.226562 12.183594 "/>
<path style=" stroke:none;fill-rule:nonzero;fill:url(#radial1);" d="M 10.003906 12.183594 C 9.996094 12.746094 9.558594 13.191406 9.019531 13.191406 C 8.480469 13.191406 8.039062 12.746094 8.03125 12.183594 C 8.023438 11.816406 8.210938 11.472656 8.519531 11.285156 C 8.828125 11.097656 9.207031 11.097656 9.515625 11.285156 C 9.824219 11.472656 10.011719 11.816406 10.003906 12.183594 "/>
<path style=" stroke:none;fill-rule:nonzero;fill:url(#radial2);" d="M 7.78125 12.183594 C 7.773438 12.746094 7.335938 13.191406 6.796875 13.191406 C 6.257812 13.191406 5.816406 12.746094 5.808594 12.183594 C 5.800781 11.816406 5.988281 11.472656 6.296875 11.285156 C 6.605469 11.097656 6.984375 11.097656 7.292969 11.285156 C 7.601562 11.472656 7.789062 11.816406 7.78125 12.183594 "/>
<path style=" stroke:none;fill-rule:nonzero;fill:url(#radial3);" d="M 5.5625 12.183594 C 5.550781 12.746094 5.113281 13.191406 4.574219 13.191406 C 4.035156 13.191406 3.59375 12.746094 3.585938 12.183594 C 3.582031 11.816406 3.765625 11.472656 4.074219 11.285156 C 4.382812 11.097656 4.765625 11.097656 5.070312 11.285156 C 5.378906 11.472656 5.566406 11.816406 5.5625 12.183594 "/>
<path style=" stroke:none;fill-rule:nonzero;fill:url(#radial4);" d="M 7.78125 9.882812 C 7.773438 10.441406 7.335938 10.890625 6.796875 10.890625 C 6.257812 10.890625 5.816406 10.441406 5.808594 9.882812 C 5.800781 9.511719 5.988281 9.167969 6.296875 8.980469 C 6.605469 8.792969 6.984375 8.792969 7.292969 8.980469 C 7.601562 9.167969 7.789062 9.511719 7.78125 9.882812 "/>
<path style=" stroke:none;fill-rule:nonzero;fill:url(#radial5);" d="M 10.003906 7.574219 C 9.996094 8.136719 9.558594 8.585938 9.019531 8.585938 C 8.480469 8.585938 8.039062 8.136719 8.03125 7.574219 C 8.023438 7.207031 8.210938 6.863281 8.519531 6.675781 C 8.828125 6.488281 9.207031 6.488281 9.515625 6.675781 C 9.824219 6.863281 10.011719 7.207031 10.003906 7.574219 "/>
<path style=" stroke:none;fill-rule:nonzero;fill:url(#radial6);" d="M 12.226562 5.269531 C 12.21875 5.832031 11.777344 6.277344 11.238281 6.277344 C 10.699219 6.277344 10.257812 5.832031 10.25 5.269531 C 10.246094 4.902344 10.433594 4.558594 10.738281 4.371094 C 11.046875 4.183594 11.429688 4.183594 11.738281 4.371094 C 12.042969 4.558594 12.230469 4.902344 12.226562 5.269531 "/>
<path style=" stroke:none;fill-rule:nonzero;fill:url(#radial7);" d="M 5.5625 9.882812 C 5.550781 10.441406 5.113281 10.890625 4.574219 10.890625 C 4.035156 10.890625 3.59375 10.441406 3.585938 9.882812 C 3.582031 9.511719 3.765625 9.167969 4.074219 8.980469 C 4.382812 8.792969 4.765625 8.792969 5.070312 8.980469 C 5.378906 9.167969 5.566406 9.511719 5.5625 9.882812 "/>
<path style=" stroke:none;fill-rule:nonzero;fill:url(#radial8);" d="M 10.003906 9.882812 C 9.996094 10.441406 9.558594 10.890625 9.019531 10.890625 C 8.480469 10.890625 8.039062 10.441406 8.03125 9.882812 C 8.023438 9.511719 8.210938 9.167969 8.519531 8.980469 C 8.828125 8.792969 9.207031 8.792969 9.515625 8.980469 C 9.824219 9.167969 10.011719 9.511719 10.003906 9.882812 "/>
<path style=" stroke:none;fill-rule:nonzero;fill:url(#radial9);" d="M 12.226562 9.882812 C 12.21875 10.441406 11.777344 10.890625 11.238281 10.890625 C 10.699219 10.890625 10.257812 10.441406 10.25 9.882812 C 10.246094 9.511719 10.433594 9.167969 10.738281 8.980469 C 11.046875 8.792969 11.429688 8.792969 11.738281 8.980469 C 12.042969 9.167969 12.230469 9.511719 12.226562 9.882812 "/>
<path style=" stroke:none;fill-rule:nonzero;fill:url(#radial10);" d="M 12.226562 7.574219 C 12.21875 8.136719 11.777344 8.585938 11.238281 8.585938 C 10.699219 8.585938 10.257812 8.136719 10.25 7.574219 C 10.246094 7.207031 10.433594 6.863281 10.738281 6.675781 C 11.046875 6.488281 11.429688 6.488281 11.738281 6.675781 C 12.042969 6.863281 12.230469 7.207031 12.226562 7.574219 "/>
</g>
</svg>
