
<svg xmlns="http://www.w3.org/2000/svg" xmlns:xlink="http://www.w3.org/1999/xlink" width="16px" height="16px" viewBox="0 0 16 16" version="1.1">
<g id="surface1">
<path style=" stroke:none;fill-rule:nonzero;fill:rgb(74.117647%,71.764706%,41.960784%);fill-opacity:1;" d="M 14.140625 2.921875 C 18.03125 8.90625 14.890625 14.359375 10.484375 15.652344 C 4.558594 17.390625 -3.488281 12.816406 1.8125 3.394531 C 3.921875 -0.351562 11.367188 -1.34375 14.136719 2.921875 Z M 14.140625 2.921875 "/>
<path style=" stroke:none;fill-rule:nonzero;fill:rgb(100%,77.254902%,26.27451%);fill-opacity:1;" d="M 11.925781 4.574219 L 4.425781 4.574219 C 4.199219 4.574219 4.011719 4.769531 4.011719 5.007812 L 4.011719 11.117188 C 4.011719 11.355469 4.199219 11.550781 4.425781 11.550781 L 11.925781 11.550781 C 12.15625 11.550781 12.34375 11.355469 12.34375 11.117188 L 12.34375 5.007812 C 12.34375 4.769531 12.15625 4.574219 11.925781 4.574219 Z M 11.925781 4.574219 "/>
<path style=" stroke:none;fill-rule:nonzero;fill:rgb(0%,0%,0%);fill-opacity:0.2;" d="M 7.136719 9.371094 C 7.136719 10.09375 6.574219 10.679688 5.886719 10.679688 C 5.195312 10.679688 4.636719 10.09375 4.636719 9.371094 C 4.636719 8.648438 5.195312 8.0625 5.886719 8.0625 C 6.574219 8.0625 7.136719 8.648438 7.136719 9.371094 Z M 7.136719 9.371094 "/>
<path style=" stroke:none;fill-rule:nonzero;fill:rgb(100%,31.764706%,0%);fill-opacity:1;" d="M 7.136719 9.152344 C 7.136719 9.875 6.574219 10.460938 5.886719 10.460938 C 5.195312 10.460938 4.636719 9.875 4.636719 9.152344 C 4.636719 8.429688 5.195312 7.84375 5.886719 7.84375 C 6.574219 7.84375 7.136719 8.429688 7.136719 9.152344 Z M 7.136719 9.152344 "/>
<path style=" stroke:none;fill-rule:nonzero;fill:rgb(100%,100%,100%);fill-opacity:0.2;" d="M 4.425781 4.574219 C 4.195312 4.574219 4.011719 4.769531 4.011719 5.007812 L 4.011719 5.226562 C 4.011719 4.984375 4.195312 4.792969 4.425781 4.792969 L 11.925781 4.792969 C 12.15625 4.792969 12.34375 4.984375 12.34375 5.226562 L 12.34375 5.007812 C 12.34375 4.769531 12.15625 4.574219 11.925781 4.574219 Z M 4.425781 4.574219 "/>
<path style=" stroke:none;fill-rule:nonzero;fill:rgb(0%,0%,0%);fill-opacity:0.2;" d="M 4.011719 11.117188 L 4.011719 11.335938 C 4.011719 11.574219 4.195312 11.769531 4.425781 11.769531 L 11.925781 11.769531 C 12.15625 11.769531 12.34375 11.574219 12.34375 11.335938 L 12.34375 11.117188 C 12.34375 11.359375 12.15625 11.550781 11.925781 11.550781 L 4.425781 11.550781 C 4.195312 11.550781 4.011719 11.359375 4.011719 11.117188 Z M 4.011719 11.117188 "/>
<path style=" stroke:none;fill-rule:nonzero;fill:rgb(30.196078%,30.196078%,30.196078%);fill-opacity:1;" d="M 4.636719 5.226562 L 11.71875 5.226562 L 11.71875 6.753906 L 4.636719 6.753906 Z M 4.636719 5.226562 "/>
<path style=" stroke:none;fill-rule:nonzero;fill:rgb(100%,31.764706%,0%);fill-opacity:1;" d="M 7.34375 5.609375 L 7.34375 6.753906 L 6.511719 6.753906 L 6.511719 5.609375 Z M 7.34375 5.609375 "/>
<path style=" stroke:none;fill-rule:nonzero;fill:rgb(30.196078%,30.196078%,30.196078%);fill-opacity:1;" d="M 8.800781 7.410156 C 8.570312 7.410156 8.386719 7.605469 8.386719 7.84375 C 8.386719 8.085938 8.570312 8.28125 8.800781 8.28125 C 9.03125 8.28125 9.21875 8.085938 9.21875 7.84375 C 9.21875 7.605469 9.03125 7.410156 8.800781 7.410156 Z M 10.050781 7.410156 C 9.820312 7.410156 9.632812 7.605469 9.632812 7.84375 C 9.632812 8.085938 9.820312 8.28125 10.050781 8.28125 C 10.28125 8.28125 10.46875 8.085938 10.46875 7.84375 C 10.46875 7.605469 10.28125 7.410156 10.050781 7.410156 Z M 11.300781 7.410156 C 11.070312 7.410156 10.882812 7.605469 10.882812 7.84375 C 10.882812 8.085938 11.070312 8.28125 11.300781 8.28125 C 11.53125 8.28125 11.71875 8.085938 11.71875 7.84375 C 11.71875 7.605469 11.53125 7.410156 11.300781 7.410156 Z M 8.800781 8.71875 C 8.570312 8.71875 8.386719 8.914062 8.386719 9.152344 C 8.386719 9.394531 8.570312 9.589844 8.800781 9.589844 C 9.03125 9.589844 9.21875 9.394531 9.21875 9.152344 C 9.21875 8.914062 9.03125 8.71875 8.800781 8.71875 Z M 10.050781 8.71875 C 9.820312 8.71875 9.632812 8.914062 9.632812 9.152344 C 9.632812 9.394531 9.820312 9.589844 10.050781 9.589844 C 10.28125 9.589844 10.46875 9.394531 10.46875 9.152344 C 10.46875 8.914062 10.28125 8.71875 10.050781 8.71875 Z M 11.300781 8.71875 C 11.070312 8.71875 10.882812 8.914062 10.882812 9.152344 C 10.882812 9.394531 11.070312 9.589844 11.300781 9.589844 C 11.53125 9.589844 11.71875 9.394531 11.71875 9.152344 C 11.71875 8.914062 11.53125 8.71875 11.300781 8.71875 Z M 8.800781 10.027344 C 8.570312 10.027344 8.386719 10.222656 8.386719 10.460938 C 8.386719 10.703125 8.570312 10.898438 8.800781 10.898438 C 9.03125 10.898438 9.21875 10.703125 9.21875 10.460938 C 9.21875 10.222656 9.03125 10.027344 8.800781 10.027344 Z M 10.050781 10.027344 C 9.820312 10.027344 9.632812 10.222656 9.632812 10.460938 C 9.632812 10.703125 9.820312 10.898438 10.050781 10.898438 C 10.28125 10.898438 10.46875 10.703125 10.46875 10.460938 C 10.46875 10.222656 10.28125 10.027344 10.050781 10.027344 Z M 11.300781 10.027344 C 11.070312 10.027344 10.882812 10.222656 10.882812 10.460938 C 10.882812 10.703125 11.070312 10.898438 11.300781 10.898438 C 11.53125 10.898438 11.71875 10.703125 11.71875 10.460938 C 11.71875 10.222656 11.53125 10.027344 11.300781 10.027344 Z M 11.300781 10.027344 "/>
</g>
</svg>
