
<svg xmlns="http://www.w3.org/2000/svg" xmlns:xlink="http://www.w3.org/1999/xlink" width="16px" height="16px" viewBox="0 0 16 16" version="1.1">
<g id="surface1">
<path style=" stroke:none;fill-rule:nonzero;fill:rgb(82.352941%,70.588235%,54.901961%);fill-opacity:1;" d="M 7.367188 15.890625 C 17.03125 16.8125 19.632812 1.3125 9.710938 0.109375 C 0.585938 -1.382812 -4.113281 12.667969 4.953125 15.476562 C 5.71875 15.785156 6.558594 15.777344 7.367188 15.890625 Z M 7.367188 15.890625 "/>
<path style=" stroke:none;fill-rule:evenodd;fill:rgb(100%,100%,100%);fill-opacity:1;" d="M 5.097656 11.015625 C 4.847656 10.910156 4.574219 10.496094 4.527344 10.148438 C 4.5 9.972656 4.492188 8.84375 4.503906 7.648438 C 4.523438 5.785156 4.542969 5.460938 4.640625 5.382812 C 4.703125 5.332031 4.773438 5.234375 4.800781 5.160156 C 4.832031 5.066406 4.925781 5.023438 5.097656 5.023438 C 5.234375 5.023438 5.367188 4.988281 5.394531 4.949219 C 5.449219 4.851562 10.863281 4.84375 11.039062 4.941406 C 11.109375 4.976562 11.253906 5.046875 11.367188 5.09375 C 11.503906 5.152344 11.578125 5.25 11.609375 5.414062 C 11.636719 5.546875 11.699219 5.671875 11.753906 5.691406 C 11.828125 5.722656 11.851562 5.933594 11.851562 6.550781 L 11.851562 7.367188 L 10.226562 7.34375 L 10.203125 7.050781 C 10.191406 6.886719 10.148438 6.710938 10.105469 6.65625 C 10.046875 6.582031 9.578125 6.558594 8.164062 6.558594 C 6.378906 6.558594 6.296875 6.566406 6.222656 6.710938 C 6.175781 6.808594 6.15625 7.328125 6.167969 8.074219 L 6.1875 9.285156 L 8.710938 9.285156 L 8.734375 8.960938 L 8.757812 8.632812 L 11.84375 8.632812 L 11.867188 9.832031 C 11.878906 10.488281 11.875 11.042969 11.855469 11.058594 C 11.796875 11.121094 5.246094 11.082031 5.097656 11.015625 Z M 5.097656 11.015625 "/>
</g>
</svg>
