
<svg xmlns="http://www.w3.org/2000/svg" xmlns:xlink="http://www.w3.org/1999/xlink" width="16px" height="16px" viewBox="0 0 16 16" version="1.1">
<g id="surface1">
<path style=" stroke:none;fill-rule:nonzero;fill:rgb(100%,100%,0%);fill-opacity:1;" d="M 8.40625 6.367188 C 8.40625 6.394531 8.40625 6.417969 8.40625 6.441406 L 8.574219 6.367188 Z M 8.40625 6.367188 "/>
<path style=" stroke:none;fill-rule:nonzero;fill:rgb(100%,100%,0%);fill-opacity:1;" d="M 12.203125 3.824219 C 12.203125 3.828125 12.203125 3.828125 12.203125 3.828125 L 12.609375 3.824219 Z M 12.203125 3.824219 "/>
<path style=" stroke:none;fill-rule:nonzero;fill:rgb(82.352941%,70.588235%,54.901961%);fill-opacity:1;" d="M 7.964844 15.890625 C 18.625 17.089844 18.476562 -0.0859375 7.773438 0.117188 C -2.183594 -0.449219 -3.082031 16.824219 7.964844 15.890625 Z M 7.964844 15.890625 "/>
<path style=" stroke:none;fill-rule:nonzero;fill:rgb(100%,100%,100%);fill-opacity:1;" d="M 3.984375 3.964844 L 4.679688 3.964844 L 4.679688 13.015625 L 3.984375 13.015625 Z M 3.984375 3.964844 "/>
<path style=" stroke:none;fill-rule:nonzero;fill:rgb(100%,100%,100%);fill-opacity:1;" d="M 2.992188 3.960938 L 4.632812 3.960938 L 4.632812 4.652344 L 2.992188 4.652344 Z M 2.992188 3.960938 "/>
<path style=" stroke:none;fill-rule:nonzero;fill:rgb(100%,100%,100%);fill-opacity:1;" d="M 3.386719 8.523438 L 4.585938 8.523438 L 4.585938 9.402344 L 3.386719 9.402344 Z M 3.386719 8.523438 "/>
<path style=" stroke:none;fill-rule:nonzero;fill:rgb(100%,100%,100%);fill-opacity:1;" d="M 3.449219 6.949219 L 4.648438 6.949219 L 4.648438 7.828125 L 3.449219 7.828125 Z M 3.449219 6.949219 "/>
<path style=" stroke:none;fill-rule:nonzero;fill:rgb(100%,100%,100%);fill-opacity:1;" d="M 6.195312 11.253906 L 10.613281 11.253906 L 10.613281 12.449219 L 6.195312 12.449219 Z M 6.195312 11.253906 "/>
<path style=" stroke:none;fill-rule:nonzero;fill:rgb(100%,100%,100%);fill-opacity:1;" d="M 4.617188 5.597656 L 12.761719 5.597656 L 12.761719 11.316406 L 4.617188 11.316406 Z M 4.617188 5.597656 "/>
<path style=" stroke:none;fill-rule:nonzero;fill:rgb(96.078431%,96.078431%,96.078431%);fill-opacity:1;" d="M 8.277344 6.667969 L 11.6875 6.667969 L 11.6875 8.363281 L 8.277344 8.363281 Z M 8.277344 6.667969 "/>
<path style=" stroke:none;fill-rule:nonzero;fill:rgb(96.078431%,96.078431%,96.078431%);fill-opacity:1;" d="M 6.355469 9.480469 C 6.257812 9.738281 5.96875 9.875 5.707031 9.78125 C 5.445312 9.683594 5.308594 9.394531 5.40625 9.136719 C 5.5 8.875 5.789062 8.738281 6.050781 8.835938 C 6.3125 8.929688 6.449219 9.214844 6.355469 9.476562 "/>
<path style=" stroke:none;fill-rule:nonzero;fill:rgb(96.078431%,96.078431%,96.078431%);fill-opacity:1;" d="M 6.355469 8.035156 C 6.257812 8.292969 5.96875 8.429688 5.707031 8.335938 C 5.445312 8.238281 5.308594 7.953125 5.40625 7.691406 C 5.5 7.429688 5.789062 7.292969 6.050781 7.390625 C 6.3125 7.484375 6.449219 7.769531 6.355469 8.03125 "/>
<path style=" stroke:none;fill-rule:nonzero;fill:rgb(96.078431%,96.078431%,96.078431%);fill-opacity:1;" d="M 6.355469 6.714844 C 6.257812 6.976562 5.96875 7.109375 5.707031 7.015625 C 5.445312 6.917969 5.308594 6.632812 5.40625 6.371094 C 5.5 6.109375 5.789062 5.976562 6.050781 6.070312 C 6.3125 6.164062 6.449219 6.453125 6.355469 6.710938 "/>
<path style=" stroke:none;fill-rule:nonzero;fill:rgb(96.078431%,96.078431%,96.078431%);fill-opacity:1;" d="M 6.511719 11.191406 L 7.015625 11.191406 L 7.015625 12.261719 L 6.511719 12.261719 Z M 6.511719 11.191406 "/>
<path style=" stroke:none;fill-rule:nonzero;fill:rgb(96.078431%,96.078431%,96.078431%);fill-opacity:1;" d="M 7.269531 11.164062 L 7.773438 11.164062 L 7.773438 12.230469 L 7.269531 12.230469 Z M 7.269531 11.164062 "/>
<path style=" stroke:none;fill-rule:nonzero;fill:rgb(96.078431%,96.078431%,96.078431%);fill-opacity:1;" d="M 8.066406 11.179688 L 8.570312 11.179688 L 8.570312 12.25 L 8.066406 12.25 Z M 8.066406 11.179688 "/>
<path style=" stroke:none;fill-rule:nonzero;fill:rgb(96.078431%,96.078431%,96.078431%);fill-opacity:1;" d="M 8.8125 11.164062 L 9.320312 11.164062 L 9.320312 12.230469 L 8.8125 12.230469 Z M 8.8125 11.164062 "/>
<path style=" stroke:none;fill-rule:nonzero;fill:rgb(96.078431%,96.078431%,96.078431%);fill-opacity:1;" d="M 9.476562 11.164062 L 9.980469 11.164062 L 9.980469 12.230469 L 9.476562 12.230469 Z M 9.476562 11.164062 "/>
<path style=" stroke:none;fill-rule:nonzero;fill:rgb(96.078431%,96.078431%,96.078431%);fill-opacity:1;" d="M 11.019531 8.8125 L 11.527344 8.8125 L 11.527344 9.410156 L 11.019531 9.410156 Z M 11.019531 8.8125 "/>
<path style=" stroke:none;fill-rule:nonzero;fill:rgb(96.078431%,96.078431%,96.078431%);fill-opacity:1;" d="M 10.105469 8.796875 L 10.609375 8.796875 L 10.609375 9.390625 L 10.105469 9.390625 Z M 10.105469 8.796875 "/>
<path style=" stroke:none;fill-rule:nonzero;fill:rgb(96.078431%,96.078431%,96.078431%);fill-opacity:1;" d="M 9.035156 9.742188 L 11.507812 9.742188 L 11.507812 10.339844 L 9.035156 10.339844 Z M 9.035156 9.742188 "/>
<path style=" stroke:none;fill-rule:nonzero;fill:rgb(96.078431%,96.078431%,96.078431%);fill-opacity:1;" d="M 8.675781 6.328125 L 8.980469 6.328125 L 8.980469 6.667969 L 8.675781 6.667969 Z M 8.675781 6.328125 "/>
<path style=" stroke:none;fill-rule:nonzero;fill:rgb(96.078431%,96.078431%,96.078431%);fill-opacity:1;" d="M 9.304688 6.34375 L 9.609375 6.34375 L 9.609375 6.6875 L 9.304688 6.6875 Z M 9.304688 6.34375 "/>
<path style=" stroke:none;fill-rule:nonzero;fill:rgb(96.078431%,96.078431%,96.078431%);fill-opacity:1;" d="M 9.953125 6.328125 L 10.253906 6.328125 L 10.253906 6.667969 L 9.953125 6.667969 Z M 9.953125 6.328125 "/>
<path style=" stroke:none;fill-rule:nonzero;fill:rgb(96.078431%,96.078431%,96.078431%);fill-opacity:1;" d="M 10.5625 6.3125 L 10.863281 6.3125 L 10.863281 6.652344 L 10.5625 6.652344 Z M 10.5625 6.3125 "/>
<path style=" stroke:none;fill-rule:nonzero;fill:rgb(96.078431%,96.078431%,96.078431%);fill-opacity:1;" d="M 11.175781 6.3125 L 11.476562 6.3125 L 11.476562 6.652344 L 11.175781 6.652344 Z M 11.175781 6.3125 "/>
<path style=" stroke:none;fill-rule:nonzero;fill:rgb(96.078431%,96.078431%,96.078431%);fill-opacity:1;" d="M 11.175781 8.304688 L 11.476562 8.304688 L 11.476562 8.648438 L 11.175781 8.648438 Z M 11.175781 8.304688 "/>
<path style=" stroke:none;fill-rule:nonzero;fill:rgb(96.078431%,96.078431%,96.078431%);fill-opacity:1;" d="M 10.578125 8.304688 L 10.882812 8.304688 L 10.882812 8.648438 L 10.578125 8.648438 Z M 10.578125 8.304688 "/>
<path style=" stroke:none;fill-rule:nonzero;fill:rgb(96.078431%,96.078431%,96.078431%);fill-opacity:1;" d="M 9.953125 8.289062 L 10.253906 8.289062 L 10.253906 8.632812 L 9.953125 8.632812 Z M 9.953125 8.289062 "/>
<path style=" stroke:none;fill-rule:nonzero;fill:rgb(96.078431%,96.078431%,96.078431%);fill-opacity:1;" d="M 9.339844 8.289062 L 9.640625 8.289062 L 9.640625 8.632812 L 9.339844 8.632812 Z M 9.339844 8.289062 "/>
<path style=" stroke:none;fill-rule:nonzero;fill:rgb(96.078431%,96.078431%,96.078431%);fill-opacity:1;" d="M 8.675781 8.273438 L 8.980469 8.273438 L 8.980469 8.613281 L 8.675781 8.613281 Z M 8.675781 8.273438 "/>
<path style=" stroke:none;fill-rule:nonzero;fill:rgb(96.078431%,96.078431%,96.078431%);fill-opacity:1;" d="M 7.097656 8.8125 L 8.367188 8.8125 L 8.367188 10.085938 L 7.097656 10.085938 Z M 7.097656 8.8125 "/>
<path style=" stroke:none;fill-rule:nonzero;fill:rgb(96.078431%,96.078431%,96.078431%);fill-opacity:1;" d="M 7.113281 6.34375 L 7.621094 6.34375 L 7.621094 6.941406 L 7.113281 6.941406 Z M 7.113281 6.34375 "/>
<path style=" stroke:none;fill-rule:nonzero;fill:rgb(96.078431%,96.078431%,96.078431%);fill-opacity:1;" d="M 7.097656 7.273438 L 7.601562 7.273438 L 7.601562 7.871094 L 7.097656 7.871094 Z M 7.097656 7.273438 "/>
</g>
</svg>
