
<svg xmlns="http://www.w3.org/2000/svg" xmlns:xlink="http://www.w3.org/1999/xlink" width="16px" height="16px" viewBox="0 0 16 16" version="1.1">
<g id="surface1">
<path style=" stroke:none;fill-rule:nonzero;fill:rgb(100%,87.058824%,67.843137%);fill-opacity:1;" d="M 12.117188 1.988281 C 26.289062 15.160156 -2.957031 23.457031 0.269531 5.972656 C 1.859375 1.359375 7.570312 -2.242188 12.117188 1.988281 Z M 12.117188 1.988281 "/>
<path style=" stroke:none;fill-rule:nonzero;fill:rgb(100%,100%,100%);fill-opacity:1;" d="M 5.296875 12.78125 C 5.152344 12.691406 4.625 11.53125 4.558594 11.160156 C 4.523438 10.960938 4.429688 10.828125 4.195312 10.65625 C 3.976562 10.492188 3.816406 10.277344 3.671875 9.964844 C 3.480469 9.542969 3.464844 9.421875 3.4375 8.441406 C 3.410156 7.269531 3.472656 6.914062 3.769531 6.53125 C 3.996094 6.242188 3.964844 6.125 3.582031 5.835938 C 3.269531 5.605469 3.195312 5.378906 3.410156 5.308594 C 3.480469 5.289062 3.933594 5.214844 4.417969 5.144531 C 4.902344 5.074219 5.515625 4.984375 5.777344 4.941406 C 6.039062 4.902344 6.75 4.796875 7.355469 4.707031 C 7.960938 4.617188 8.726562 4.503906 9.050781 4.457031 C 9.378906 4.40625 9.730469 4.386719 9.832031 4.414062 C 10.09375 4.484375 10.789062 5.253906 10.980469 5.675781 C 11.140625 6.03125 11.144531 6.035156 11.5625 6.070312 C 12.070312 6.109375 12.324219 6.285156 12.53125 6.734375 C 12.660156 7.015625 12.675781 7.214844 12.675781 8.289062 C 12.675781 9.503906 12.617188 9.925781 12.410156 10.1875 C 12.273438 10.363281 12.28125 10.394531 12.492188 10.453125 C 12.679688 10.503906 12.75 10.757812 12.605469 10.855469 C 12.566406 10.882812 11.238281 11.257812 9.652344 11.691406 C 8.066406 12.125 6.464844 12.5625 6.09375 12.667969 C 5.644531 12.789062 5.378906 12.828125 5.296875 12.78125 Z M 7.03125 12.046875 C 7.894531 11.808594 9.355469 11.410156 10.273438 11.160156 C 11.191406 10.914062 11.929688 10.695312 11.914062 10.679688 C 11.894531 10.660156 11.707031 10.632812 11.488281 10.621094 C 10.707031 10.570312 9.820312 10.054688 7.757812 8.46875 C 6.40625 7.429688 5.320312 6.769531 4.960938 6.769531 L 4.746094 6.769531 L 4.792969 7.394531 C 4.824219 7.78125 4.808594 8.21875 4.753906 8.539062 C 4.617188 9.304688 4.617188 9.855469 4.75 9.949219 C 5.019531 10.144531 5.886719 9.808594 6.707031 9.191406 C 6.964844 8.992188 7.199219 8.832031 7.226562 8.832031 C 7.332031 8.832031 7.613281 9.1875 7.613281 9.320312 C 7.613281 9.671875 6.113281 10.65625 5.304688 10.828125 C 4.882812 10.921875 4.882812 10.921875 4.917969 11.171875 C 4.957031 11.414062 5.371094 12.484375 5.429688 12.484375 C 5.445312 12.484375 6.167969 12.289062 7.03125 12.046875 Z M 11.914062 9.503906 C 12.070312 9.097656 12.117188 8.078125 12.003906 7.609375 C 11.886719 7.140625 11.566406 6.820312 11.402344 7.011719 C 11.273438 7.164062 11.105469 8.566406 11.167969 8.96875 C 11.234375 9.398438 11.464844 9.785156 11.652344 9.785156 C 11.757812 9.785156 11.839844 9.699219 11.914062 9.503906 Z M 10.949219 9.429688 C 10.820312 9.097656 10.8125 8.332031 10.929688 7.707031 C 10.976562 7.457031 10.996094 7.226562 10.972656 7.199219 C 10.890625 7.113281 10.632812 7.246094 10.25 7.574219 C 9.660156 8.078125 9.128906 8.261719 9.03125 7.992188 C 8.957031 7.785156 9.292969 7.171875 9.621094 6.914062 C 9.789062 6.78125 10.089844 6.585938 10.292969 6.472656 C 10.847656 6.171875 10.855469 6.15625 10.71875 5.867188 C 10.535156 5.472656 10.195312 5.046875 9.933594 4.871094 C 9.703125 4.714844 9.664062 4.714844 8.964844 4.820312 C 7.960938 4.972656 6.15625 5.242188 5.445312 5.34375 C 5.125 5.390625 4.632812 5.464844 4.359375 5.511719 L 3.855469 5.59375 L 4.050781 5.8125 C 4.21875 6.003906 4.316406 6.039062 4.773438 6.070312 C 5.71875 6.140625 6.734375 6.691406 8.949219 8.351562 C 10.167969 9.261719 10.828125 9.707031 10.960938 9.707031 C 11.035156 9.707031 11.03125 9.644531 10.949219 9.429688 Z M 4.457031 8.410156 C 4.550781 7.914062 4.550781 7.46875 4.449219 7.191406 L 4.371094 6.96875 L 4.25 7.207031 C 4.15625 7.386719 4.125 7.648438 4.125 8.316406 C 4.125 9.328125 4.21875 9.726562 4.320312 9.148438 C 4.355469 8.953125 4.414062 8.621094 4.457031 8.410156 Z M 4.457031 8.410156 "/>
<path style=" stroke:none;fill-rule:nonzero;fill:rgb(100%,100%,100%);fill-opacity:1;" d="M 5.023438 12.105469 C 4.882812 11.769531 4.726562 11.359375 4.679688 11.195312 C 4.617188 10.992188 4.496094 10.832031 4.289062 10.679688 C 3.640625 10.207031 3.464844 9.683594 3.464844 8.199219 C 3.464844 7.0625 3.519531 6.828125 3.894531 6.386719 C 4.089844 6.15625 4.011719 5.992188 3.589844 5.777344 C 3.183594 5.566406 3.210938 5.386719 3.648438 5.359375 C 3.832031 5.347656 4.441406 5.269531 5.007812 5.183594 C 5.570312 5.101562 6.546875 4.957031 7.171875 4.863281 C 7.796875 4.769531 8.636719 4.644531 9.035156 4.578125 L 9.761719 4.460938 L 10.050781 4.675781 C 10.390625 4.929688 10.699219 5.316406 10.890625 5.726562 C 10.964844 5.882812 11.035156 6.03125 11.042969 6.046875 C 11.054688 6.066406 11.257812 6.085938 11.5 6.09375 C 11.84375 6.105469 11.988281 6.152344 12.1875 6.316406 C 12.574219 6.636719 12.675781 7.0625 12.675781 8.359375 C 12.675781 9.46875 12.621094 9.808594 12.363281 10.207031 C 12.285156 10.328125 12.234375 10.4375 12.246094 10.449219 C 12.261719 10.457031 12.371094 10.511719 12.488281 10.566406 C 12.75 10.6875 12.648438 10.84375 12.289062 10.867188 C 12.160156 10.875 11.425781 11.0625 10.660156 11.28125 C 8.273438 11.957031 5.476562 12.722656 5.378906 12.722656 C 5.328125 12.722656 5.167969 12.445312 5.023438 12.105469 Z M 6.925781 12.199219 C 7.644531 11.996094 9.109375 11.59375 10.175781 11.304688 C 11.277344 11.003906 12.128906 10.734375 12.144531 10.679688 C 12.167969 10.605469 12.046875 10.578125 11.695312 10.578125 C 10.792969 10.578125 10.128906 10.214844 7.757812 8.421875 C 6.097656 7.167969 5.425781 6.765625 4.953125 6.746094 C 4.648438 6.730469 4.640625 6.734375 4.660156 6.96875 C 4.714844 7.597656 4.679688 8.445312 4.578125 8.910156 C 4.429688 9.605469 4.421875 9.15625 4.570312 8.386719 C 4.664062 7.90625 4.667969 7.707031 4.601562 7.359375 C 4.5 6.835938 4.371094 6.804688 4.199219 7.265625 C 3.933594 7.960938 4.078125 9.707031 4.398438 9.707031 C 4.449219 9.707031 4.535156 9.777344 4.585938 9.863281 C 4.792969 10.222656 5.6875 9.972656 6.617188 9.300781 C 6.914062 9.085938 7.207031 8.910156 7.273438 8.910156 C 7.402344 8.910156 7.539062 9.144531 7.539062 9.371094 C 7.539062 9.707031 5.886719 10.710938 5.171875 10.804688 C 4.894531 10.84375 4.78125 10.894531 4.765625 10.988281 C 4.734375 11.152344 5.164062 12.285156 5.3125 12.449219 C 5.371094 12.511719 5.464844 12.5625 5.515625 12.5625 C 5.570312 12.5625 6.203125 12.398438 6.925781 12.199219 Z M 11.898438 9.605469 C 12.019531 9.425781 12.054688 9.234375 12.078125 8.613281 C 12.121094 7.421875 11.902344 6.867188 11.417969 6.941406 C 11.277344 6.964844 11.242188 7.042969 11.164062 7.523438 C 10.984375 8.636719 11.050781 9.328125 11.378906 9.769531 C 11.492188 9.925781 11.726562 9.851562 11.898438 9.605469 Z M 11.046875 9.367188 C 10.898438 8.941406 10.898438 8.8125 11.03125 7.542969 C 11.074219 7.136719 11.066406 7.085938 10.949219 7.085938 C 10.875 7.085938 10.585938 7.269531 10.300781 7.492188 C 9.8125 7.878906 9.492188 8.039062 9.210938 8.039062 C 9.042969 8.039062 9.046875 7.90625 9.230469 7.496094 C 9.398438 7.125 9.777344 6.792969 10.457031 6.425781 C 10.710938 6.289062 10.914062 6.140625 10.914062 6.09375 C 10.914062 5.792969 10.066406 4.738281 9.757812 4.652344 C 9.617188 4.613281 7.699219 4.863281 6.292969 5.101562 C 6.070312 5.140625 5.433594 5.234375 4.878906 5.308594 C 4.320312 5.386719 3.828125 5.476562 3.777344 5.511719 C 3.714844 5.554688 3.761719 5.65625 3.941406 5.859375 C 4.164062 6.105469 4.234375 6.140625 4.445312 6.105469 C 4.832031 6.039062 5.46875 6.199219 6.128906 6.535156 C 6.9375 6.941406 7.402344 7.25 8.917969 8.378906 C 10.261719 9.382812 10.875 9.78125 11.074219 9.785156 C 11.183594 9.785156 11.179688 9.746094 11.046875 9.367188 Z M 11.046875 9.367188 "/>
<path style=" stroke:none;fill-rule:nonzero;fill:rgb(100%,100%,100%);fill-opacity:1;" d="M 5.027344 12.105469 C 4.886719 11.769531 4.714844 11.332031 4.644531 11.132812 C 4.5625 10.894531 4.421875 10.699219 4.21875 10.539062 C 3.820312 10.226562 3.605469 9.742188 3.5 8.910156 C 3.367188 7.839844 3.535156 6.78125 3.894531 6.460938 C 3.960938 6.402344 4.015625 6.289062 4.015625 6.210938 C 4.015625 6.042969 3.703125 5.753906 3.449219 5.6875 C 3.140625 5.601562 3.273438 5.382812 3.648438 5.359375 C 3.832031 5.347656 4.441406 5.269531 5.007812 5.183594 C 5.570312 5.101562 6.546875 4.957031 7.171875 4.863281 C 7.796875 4.769531 8.636719 4.644531 9.035156 4.578125 L 9.761719 4.460938 L 10.050781 4.675781 C 10.390625 4.929688 10.699219 5.316406 10.890625 5.726562 C 10.964844 5.882812 11.035156 6.03125 11.046875 6.050781 C 11.054688 6.066406 11.265625 6.109375 11.515625 6.140625 C 12.054688 6.210938 12.292969 6.382812 12.507812 6.851562 C 12.652344 7.164062 12.671875 7.332031 12.675781 8.324219 C 12.675781 9.417969 12.671875 9.453125 12.449219 9.9375 C 12.324219 10.207031 12.234375 10.4375 12.246094 10.449219 C 12.261719 10.460938 12.371094 10.511719 12.488281 10.566406 C 12.75 10.6875 12.648438 10.84375 12.289062 10.867188 C 12.160156 10.875 11.425781 11.0625 10.660156 11.28125 C 8.273438 11.957031 5.476562 12.722656 5.378906 12.722656 C 5.328125 12.722656 5.171875 12.445312 5.027344 12.105469 Z M 6.886719 12.207031 C 7.589844 12.011719 9.039062 11.613281 10.109375 11.324219 C 11.179688 11.035156 12.085938 10.769531 12.121094 10.730469 C 12.242188 10.609375 12.109375 10.558594 11.613281 10.527344 C 10.726562 10.472656 10.011719 10.074219 7.804688 8.402344 C 6.085938 7.097656 5.398438 6.6875 4.921875 6.6875 L 4.585938 6.6875 L 4.648438 7.066406 C 4.683594 7.273438 4.707031 7.65625 4.699219 7.917969 C 4.679688 8.433594 4.472656 9.574219 4.460938 9.207031 C 4.457031 9.085938 4.507812 8.714844 4.570312 8.386719 C 4.707031 7.664062 4.617188 6.925781 4.390625 6.925781 C 4.175781 6.925781 4.070312 7.3125 4.035156 8.199219 C 4 9.164062 4.109375 9.648438 4.371094 9.691406 C 4.457031 9.707031 4.53125 9.746094 4.53125 9.785156 C 4.53125 9.929688 4.769531 10.101562 4.976562 10.101562 C 5.328125 10.101562 5.945312 9.828125 6.523438 9.417969 C 6.820312 9.203125 7.101562 9.003906 7.152344 8.96875 C 7.253906 8.898438 7.539062 9.171875 7.539062 9.34375 C 7.539062 9.625 6.121094 10.515625 5.332031 10.722656 C 4.960938 10.820312 4.777344 10.910156 4.765625 10.996094 C 4.734375 11.152344 5.164062 12.289062 5.3125 12.449219 C 5.371094 12.511719 5.464844 12.5625 5.515625 12.5625 C 5.570312 12.5625 6.1875 12.402344 6.886719 12.207031 Z M 11.996094 9.523438 C 12.179688 9.148438 12.179688 7.628906 11.996094 7.261719 C 11.835938 6.949219 11.546875 6.777344 11.371094 6.898438 C 11.226562 6.996094 11.078125 7.851562 11.066406 8.617188 C 11.054688 9.734375 11.617188 10.285156 11.996094 9.523438 Z M 11.152344 9.820312 C 11.175781 9.796875 11.125 9.589844 11.046875 9.363281 C 10.898438 8.945312 10.898438 8.804688 11.03125 7.554688 C 11.0625 7.246094 11.050781 7.089844 10.992188 7.050781 C 10.945312 7.015625 10.730469 7.125 10.496094 7.296875 C 9.777344 7.835938 9.707031 7.878906 9.574219 7.878906 C 9.503906 7.878906 9.449219 7.914062 9.449219 7.960938 C 9.449219 8.003906 9.363281 8.039062 9.265625 8.039062 C 9.132812 8.039062 9.082031 7.996094 9.082031 7.882812 C 9.082031 7.800781 9.121094 7.699219 9.175781 7.664062 C 9.226562 7.628906 9.304688 7.503906 9.355469 7.386719 C 9.457031 7.136719 9.890625 6.777344 10.457031 6.476562 C 10.675781 6.363281 10.871094 6.21875 10.894531 6.160156 C 10.984375 5.902344 10.117188 4.75 9.761719 4.652344 C 9.621094 4.613281 7.699219 4.863281 6.292969 5.101562 C 6.070312 5.140625 5.433594 5.234375 4.878906 5.308594 C 4.320312 5.386719 3.824219 5.480469 3.777344 5.511719 C 3.710938 5.554688 3.765625 5.660156 3.957031 5.867188 C 4.203125 6.132812 4.261719 6.160156 4.582031 6.144531 C 5.007812 6.125 5.773438 6.367188 6.46875 6.746094 C 6.890625 6.976562 7.882812 7.675781 10 9.238281 C 10.292969 9.453125 10.984375 9.859375 11.070312 9.863281 C 11.09375 9.863281 11.128906 9.84375 11.152344 9.820312 Z M 11.152344 9.820312 "/>
<path style=" stroke:none;fill-rule:nonzero;fill:rgb(100%,100%,100%);fill-opacity:1;" d="M 4.308594 10.488281 C 4.152344 10.375 3.96875 10.125 3.839844 9.84375 C 3.65625 9.445312 3.625 9.273438 3.59375 8.492188 C 3.546875 7.394531 3.671875 6.816406 4.023438 6.496094 C 4.214844 6.320312 4.316406 6.292969 4.738281 6.292969 C 5.585938 6.296875 6.515625 6.785156 8.492188 8.269531 C 10.292969 9.621094 10.867188 9.96875 11.347656 10.007812 C 11.707031 10.035156 11.78125 10.015625 11.914062 9.851562 C 12.15625 9.5625 12.238281 9.1875 12.234375 8.363281 C 12.234375 7.144531 11.96875 6.699219 11.308594 6.796875 C 10.917969 6.855469 10.625 7.011719 10.152344 7.414062 C 9.957031 7.582031 9.769531 7.722656 9.734375 7.722656 C 9.703125 7.722656 9.625 7.640625 9.558594 7.542969 C 9.445312 7.371094 9.453125 7.355469 9.707031 7.113281 C 9.851562 6.976562 10.210938 6.734375 10.503906 6.578125 C 10.945312 6.339844 11.117188 6.292969 11.5 6.292969 C 11.929688 6.292969 11.980469 6.3125 12.191406 6.554688 C 12.796875 7.25 12.847656 9.128906 12.28125 10.0625 C 11.882812 10.714844 10.785156 10.441406 9.167969 9.28125 C 8.777344 9 8.011719 8.425781 7.464844 8.007812 C 6.347656 7.152344 5.445312 6.621094 4.992188 6.554688 C 4.558594 6.492188 4.214844 6.734375 4.039062 7.226562 C 3.878906 7.679688 3.859375 8.949219 4.003906 9.40625 C 4.058594 9.570312 4.21875 9.8125 4.367188 9.941406 C 4.859375 10.382812 5.644531 10.21875 6.65625 9.464844 C 7.199219 9.058594 7.390625 9.015625 7.390625 9.300781 C 7.390625 9.402344 7.222656 9.574219 6.886719 9.820312 C 6.148438 10.347656 5.597656 10.59375 5.042969 10.636719 C 4.628906 10.667969 4.53125 10.648438 4.308594 10.488281 Z M 4.308594 10.488281 "/>
<path style="fill-rule:nonzero;fill:rgb(100%,54.901961%,0%);fill-opacity:1;stroke-width:1;stroke-linecap:butt;stroke-linejoin:miter;stroke:rgb(100%,54.901961%,0%);stroke-opacity:1;stroke-miterlimit:4;" d="M 91.547434 172.308882 C 86.066115 168.962667 83.192413 161.286055 82.60703 148.393283 C 81.968429 135.205256 83.352063 128.512825 87.502965 124.330056 C 90.1638 121.672767 91.121701 121.328304 96.656237 121.377513 C 109.00251 121.377513 121.135916 127.430226 152.586982 149.131418 C 175.363727 164.878315 181.856163 168.372158 188.242167 168.322949 C 193.297753 168.27374 195.053903 167.289559 197.874388 163.008371 C 200.58844 158.776393 201.280257 140.027744 198.885505 133.827403 C 194.681387 122.804575 184.942732 122.607739 170.733874 133.335312 C 166.902272 136.189438 165.305772 136.927573 164.454305 136.091019 C 162.43207 134.024239 163.283537 132.547968 168.764857 128.955707 C 177.013444 123.493502 182.760847 121.328304 189.200067 121.377513 C 197.501871 121.377513 199.524106 123.444293 203.355708 135.54972 C 205.803676 143.423168 205.803676 146.917011 203.302491 156.266731 C 201.120606 164.583061 199.470889 167.535604 195.798937 169.946848 C 189.519367 174.080408 173.767226 168.224531 153.864182 154.396787 C 114.749913 127.282599 108.363909 123.493502 100.008888 122.656948 C 94.314702 122.066439 89.8445 124.969773 87.077232 131.120905 C 84.20353 137.567291 83.990664 153.560233 86.704715 160.597128 C 91.600651 173.293064 105.011258 173.588318 123.371017 161.433682 C 128.373386 158.136675 131.193871 156.808031 131.832471 157.496958 C 133.056455 158.727184 128.95877 162.368654 121.082699 167.092723 C 109.375027 174.178826 97.933437 176.196398 91.547434 172.308882 Z M 91.547434 172.308882 " transform="matrix(0.0734027,0,0,0.0793807,-2.395612,-3.260034)"/>
<path style="fill-rule:evenodd;fill:rgb(100%,100%,100%);fill-opacity:1;stroke-width:1.41881;stroke-linecap:butt;stroke-linejoin:miter;stroke:rgb(100%,54.901961%,0%);stroke-opacity:0.0117647;stroke-miterlimit:4;" d="M 84.8125 193.9375 C 81.3125 185.75 79.5 179.625 79.9375 177.4375 C 80.1875 176.3125 83.4375 174.4375 87.75 173 C 102.625 168 121.9375 154.4375 121.9375 149.0625 C 121.9375 147.5625 120.5625 145 118.875 143.375 L 115.8125 140.5 L 107.25 146.1875 C 96.25 153.5 87.5625 157.875 81.875 158.9375 C 75.1875 160.1875 73.875 156.75 75.8125 143.0625 C 76.625 137.4375 77.25 127.375 77.25 120.6875 L 77.25 108.5625 L 80.625 109.3125 C 86.8125 110.75 101.5 119.8125 122.125 135.0625 C 157.375 161.0625 169.9375 168.4375 181.5 170.25 L 187.1875 171.125 L 179.75 173.4375 C 175.625 174.6875 155.8125 180.1875 135.625 185.6875 C 115.5 191.1875 96.3125 196.5 93 197.4375 L 87.0625 199.1875 Z M 84.8125 193.9375 " transform="matrix(0.0625,0,0,0.0625,0,0)"/>
<path style="fill-rule:evenodd;fill:rgb(96.078431%,96.078431%,96.078431%);fill-opacity:1;stroke-width:1.41881;stroke-linecap:butt;stroke-linejoin:miter;stroke:rgb(100%,54.901961%,0%);stroke-opacity:0.0117647;stroke-miterlimit:4;" d="M 169.0625 151 C 166.0625 149.0625 154.0625 140.625 142.4375 132.1875 C 105.8125 105.6875 95.1875 99.8125 78.25 96.875 C 71.5625 95.75 67.375 94.3125 65.6875 92.625 L 63.1875 90.125 L 66.1875 89.4375 C 67.8125 89.0625 86.5 86.1875 107.6875 83.125 C 128.875 80 148.25 77.1875 150.75 76.8125 C 154.875 76.1875 155.9375 76.625 160.875 81.1875 C 163.875 83.9375 167.6875 88.8125 169.3125 91.9375 C 172.75 98.5 173.4375 97.5625 159.5625 106.1875 C 154.375 109.4375 150.5 113 148.0625 116.875 C 144.125 123 143.1875 129 145.9375 130.0625 C 148.6875 131.125 156 127.875 164.4375 121.875 C 173.5625 115.3125 176.0625 114.625 174.875 118.8125 C 173.25 124.875 172.625 144.125 173.9375 148.875 C 174.6875 151.5625 175.125 153.9375 174.9375 154.1875 C 174.75 154.375 172.125 152.9375 169.0625 151 Z M 169.0625 151 " transform="matrix(0.0625,0,0,0.0625,0,0)"/>
</g>
</svg>
