
<svg xmlns="http://www.w3.org/2000/svg" xmlns:xlink="http://www.w3.org/1999/xlink" width="16px" height="16px" viewBox="0 0 16 16" version="1.1">
<defs>
<linearGradient id="linear0" gradientUnits="userSpaceOnUse" x1="23.459" y1="3.03" x2="22.446" y2="46.12" gradientTransform="matrix(0.200684,0,0,0.179745,3.22,3.58125)">
<stop offset="0" style="stop-color:rgb(92.941176%,92.941176%,92.941176%);stop-opacity:1;"/>
<stop offset="1" style="stop-color:rgb(81.960784%,81.176471%,81.176471%);stop-opacity:1;"/>
</linearGradient>
<linearGradient id="linear1" gradientUnits="userSpaceOnUse" x1="0" y1="43.34" x2="0" y2="9.692" gradientTransform="matrix(0.200684,0,0,0.179745,3.22,3.58125)">
<stop offset="0" style="stop-color:rgb(49.803922%,49.803922%,49.803922%);stop-opacity:1;"/>
<stop offset="1" style="stop-color:rgb(60%,60%,60%);stop-opacity:1;"/>
</linearGradient>
<linearGradient id="linear2" gradientUnits="userSpaceOnUse" x1="22.73" y1="11.139" x2="23.297" y2="41.715" gradientTransform="matrix(0.200684,0,0,0.179745,3.22,3.58125)">
<stop offset="0" style="stop-color:rgb(100%,100%,100%);stop-opacity:1;"/>
<stop offset="1" style="stop-color:rgb(87.058824%,87.058824%,87.058824%);stop-opacity:1;"/>
</linearGradient>
<linearGradient id="linear3" gradientUnits="userSpaceOnUse" x1="9.332" y1="7.656" x2="9.292" y2="5.29" gradientTransform="matrix(0.200684,0,0,0.179745,3.22,3.58125)">
<stop offset="0" style="stop-color:rgb(49.803922%,49.803922%,49.803922%);stop-opacity:1;"/>
<stop offset="1" style="stop-color:rgb(60%,60%,60%);stop-opacity:1;"/>
</linearGradient>
<linearGradient id="linear4" gradientUnits="userSpaceOnUse" x1="9.589" y1="7.591" x2="9.548" y2="5.226" gradientTransform="matrix(0.200684,0,0,0.179745,3.22,3.58125)">
<stop offset="0" style="stop-color:rgb(49.803922%,49.803922%,49.803922%);stop-opacity:1;"/>
<stop offset="1" style="stop-color:rgb(60%,60%,60%);stop-opacity:1;"/>
</linearGradient>
<linearGradient id="linear5" gradientUnits="userSpaceOnUse" x1="0" y1="47.27" x2="0" y2="17.01" gradientTransform="matrix(0.200684,0,0,0.179745,3.22,3.58125)">
<stop offset="0" style="stop-color:rgb(49.803922%,49.803922%,49.803922%);stop-opacity:1;"/>
<stop offset="1" style="stop-color:rgb(60%,60%,60%);stop-opacity:1;"/>
</linearGradient>
<linearGradient id="linear6" gradientUnits="userSpaceOnUse" x1="31.877" y1="42.12" x2="32.528" y2="22.16" gradientTransform="matrix(0.200684,0,0,0.179745,3.22,3.58125)">
<stop offset="0" style="stop-color:rgb(21.960784%,21.960784%,21.960784%);stop-opacity:1;"/>
<stop offset="1" style="stop-color:rgb(20%,20%,20%);stop-opacity:1;"/>
</linearGradient>
<linearGradient id="linear7" gradientUnits="userSpaceOnUse" x1="33.751" y1="21.493" x2="34.31" y2="32.666" gradientTransform="matrix(0.200684,0,0,0.179745,3.22,3.58125)">
<stop offset="0" style="stop-color:rgb(100%,100%,100%);stop-opacity:0.321569;"/>
<stop offset="1" style="stop-color:rgb(60%,60%,60%);stop-opacity:0.321569;"/>
</linearGradient>
<linearGradient id="linear8" gradientUnits="userSpaceOnUse" x1="0" y1="34.818" x2="0" y2="39.742" gradientTransform="matrix(0.200684,0,0,0.179745,3.22,3.58125)">
<stop offset="0" style="stop-color:rgb(90.196078%,47.058824%,23.529412%);stop-opacity:1;"/>
<stop offset="1" style="stop-color:rgb(83.137255%,43.137255%,21.568627%);stop-opacity:1;"/>
</linearGradient>
<linearGradient id="linear9" gradientUnits="userSpaceOnUse" x1="0" y1="12.28" x2="0" y2="14.906" gradientTransform="matrix(0.200684,0,0,0.179745,3.22,3.58125)">
<stop offset="0" style="stop-color:rgb(83.921569%,83.921569%,83.921569%);stop-opacity:1;"/>
<stop offset="1" style="stop-color:rgb(80%,80%,80%);stop-opacity:1;"/>
</linearGradient>
<linearGradient id="linear10" gradientUnits="userSpaceOnUse" x1="0" y1="11.914" x2="0" y2="14.774" gradientTransform="matrix(0.200684,0,0,0.179745,3.22,3.58125)">
<stop offset="0" style="stop-color:rgb(83.921569%,83.921569%,83.921569%);stop-opacity:1;"/>
<stop offset="1" style="stop-color:rgb(80%,80%,80%);stop-opacity:1;"/>
</linearGradient>
</defs>
<g id="surface1">
<path style=" stroke:none;fill-rule:nonzero;fill:rgb(86.27451%,86.27451%,86.27451%);fill-opacity:1;" d="M 13.265625 13.269531 C 6.710938 21.386719 -5.117188 9.503906 2.4375 2.320312 C 8.941406 -4.878906 21.5625 6.355469 13.265625 13.269531 Z M 13.265625 13.269531 "/>
<path style=" stroke:none;fill-rule:evenodd;fill:rgb(64.313725%,64.705882%,65.490196%);fill-opacity:0.439216;" d="M 8.8125 4.832031 C 8.878906 4.769531 8.914062 4.667969 9.023438 4.65625 L 9.097656 4.800781 L 8.78125 5.152344 Z M 8.8125 4.832031 "/>
<path style=" stroke:none;fill-rule:evenodd;fill:url(#linear0);" d="M 3.855469 4.21875 L 11.828125 4.21875 C 12.085938 4.21875 12.292969 4.40625 12.292969 4.636719 L 12.261719 11.359375 C 12.261719 11.589844 12.054688 11.777344 11.796875 11.777344 C 8.726562 11.777344 9.066406 11.777344 3.824219 11.777344 C 3.570312 11.777344 3.359375 11.589844 3.359375 11.359375 L 3.390625 4.636719 C 3.390625 4.40625 3.597656 4.21875 3.855469 4.21875 Z M 3.855469 4.21875 "/>
<path style=" stroke:none;fill-rule:evenodd;fill:rgb(81.568627%,94.901961%,50.196078%);fill-opacity:1;" d="M 9.21875 4.316406 L 10.03125 4.316406 L 10.03125 5.042969 L 9.21875 5.042969 "/>
<path style=" stroke:none;fill-rule:evenodd;fill:rgb(92.941176%,66.666667%,8.627451%);fill-opacity:1;" d="M 10.210938 4.316406 L 11.023438 4.316406 L 11.023438 5.042969 L 10.210938 5.042969 "/>
<path style=" stroke:none;fill-rule:evenodd;fill:rgb(87.843137%,47.058824%,6.27451%);fill-opacity:1;" d="M 11.242188 4.316406 L 12.054688 4.316406 L 12.054688 5.042969 L 11.242188 5.042969 "/>
<path style=" stroke:none;fill-rule:nonzero;fill:url(#linear1);" d="M 4.003906 5.707031 L 4.027344 11 C 4.027344 11.023438 4.054688 11.054688 4.089844 11.078125 C 4.144531 11.117188 4.214844 11.140625 4.269531 11.140625 L 11.464844 11.101562 C 11.527344 11.101562 11.574219 11.085938 11.601562 11.058594 C 11.632812 11.027344 11.652344 10.976562 11.652344 10.910156 L 11.644531 5.707031 C 11.644531 5.652344 11.632812 5.613281 11.609375 5.59375 C 11.578125 5.570312 11.523438 5.554688 11.445312 5.554688 L 4.21875 5.5625 C 4.148438 5.5625 4.085938 5.578125 4.046875 5.605469 L 4.050781 5.605469 C 4.019531 5.625 4.003906 5.660156 4.003906 5.707031 Z M 3.625 11.011719 L 3.601562 5.707031 C 3.601562 5.542969 3.675781 5.414062 3.792969 5.328125 L 3.796875 5.328125 C 3.90625 5.246094 4.054688 5.203125 4.21875 5.203125 L 11.445312 5.199219 C 11.628906 5.199219 11.773438 5.242188 11.878906 5.328125 L 11.878906 5.332031 C 11.988281 5.421875 12.046875 5.546875 12.046875 5.707031 L 12.054688 10.917969 L 12.054688 10.925781 C 12.046875 11.074219 11.996094 11.207031 11.890625 11.304688 C 11.792969 11.398438 11.65625 11.457031 11.476562 11.460938 L 11.46875 11.460938 L 4.269531 11.496094 C 4.132812 11.496094 3.96875 11.445312 3.847656 11.363281 C 3.726562 11.28125 3.636719 11.164062 3.625 11.027344 Z M 11.464844 11.101562 L 11.46875 11.101562 "/>
<path style=" stroke:none;fill-rule:evenodd;fill:url(#linear2);" d="M 3.808594 5.703125 L 3.824219 11.011719 C 3.839844 11.191406 4.089844 11.320312 4.269531 11.320312 L 11.484375 11.253906 C 11.742188 11.25 11.859375 11.09375 11.871094 10.890625 L 11.867188 5.675781 C 11.867188 5.460938 11.722656 5.34375 11.46875 5.34375 L 4.226562 5.378906 C 3.988281 5.378906 3.808594 5.433594 3.808594 5.703125 Z M 3.808594 5.703125 "/>
<path style=" stroke:none;fill-rule:nonzero;fill:rgb(78.823529%,78.823529%,78.823529%);fill-opacity:1;" d="M 9.890625 8.054688 L 11.097656 8.054688 L 11.097656 8.234375 L 9.890625 8.234375 "/>
<path style=" stroke:none;fill-rule:nonzero;fill:rgb(78.823529%,78.823529%,78.823529%);fill-opacity:1;" d="M 8.367188 8.054688 L 9.648438 8.054688 L 9.648438 8.234375 L 8.367188 8.234375 "/>
<path style=" stroke:none;fill-rule:nonzero;fill:rgb(78.823529%,78.823529%,78.823529%);fill-opacity:1;" d="M 9.625 8.417969 L 11.097656 8.417969 L 11.097656 8.597656 L 9.625 8.597656 "/>
<path style=" stroke:none;fill-rule:nonzero;fill:rgb(74.901961%,74.901961%,74.901961%);fill-opacity:1;" d="M 10.035156 9.867188 L 11.523438 9.867188 L 11.523438 10.050781 L 10.035156 10.050781 "/>
<path style=" stroke:none;fill-rule:nonzero;fill:rgb(74.901961%,74.901961%,74.901961%);fill-opacity:1;" d="M 10.34375 9.867188 L 10.097656 9.867188 L 10.097656 10.050781 L 10.34375 10.050781 "/>
<path style=" stroke:none;fill-rule:nonzero;fill:rgb(74.901961%,74.901961%,74.901961%);fill-opacity:1;" d="M 6.820312 9.867188 L 10.097656 9.867188 L 10.097656 10.050781 L 6.820312 10.050781 "/>
<path style=" stroke:none;fill-rule:nonzero;fill:rgb(74.901961%,74.901961%,74.901961%);fill-opacity:1;" d="M 9.863281 10.246094 L 11.523438 10.25 L 11.523438 10.429688 L 9.863281 10.425781 "/>
<path style=" stroke:none;fill-rule:nonzero;fill:rgb(74.901961%,74.901961%,74.901961%);fill-opacity:1;" d="M 7.820312 10.234375 L 9.679688 10.246094 L 9.679688 10.425781 L 7.820312 10.417969 "/>
<path style=" stroke:none;fill-rule:nonzero;fill:rgb(74.901961%,74.901961%,74.901961%);fill-opacity:1;" d="M 6.820312 10.234375 L 7.59375 10.234375 L 7.59375 10.417969 L 6.820312 10.417969 "/>
<path style=" stroke:none;fill-rule:nonzero;fill:rgb(78.823529%,78.823529%,78.823529%);fill-opacity:1;" d="M 6.820312 8.054688 L 8.183594 8.054688 L 8.183594 8.234375 L 6.820312 8.234375 "/>
<path style=" stroke:none;fill-rule:nonzero;fill:rgb(78.823529%,78.823529%,78.823529%);fill-opacity:1;" d="M 6.820312 7.703125 L 8.828125 7.703125 L 8.828125 7.882812 L 6.820312 7.882812 "/>
<path style=" stroke:none;fill-rule:nonzero;fill:rgb(78.823529%,78.823529%,78.823529%);fill-opacity:1;" d="M 6.820312 8.417969 L 9.445312 8.417969 L 9.445312 8.597656 L 6.820312 8.597656 "/>
<path style=" stroke:none;fill-rule:nonzero;fill:rgb(74.901961%,74.901961%,74.901961%);fill-opacity:1;" d="M 6.820312 9.511719 L 8.203125 9.511719 L 8.203125 9.695312 L 6.820312 9.695312 "/>
<path style=" stroke:none;fill-rule:nonzero;fill:rgb(79.607843%,79.607843%,79.607843%);fill-opacity:0.780392;" d="M 9.402344 6.820312 L 10.875 6.820312 L 10.875 7 L 9.402344 7 "/>
<path style=" stroke:none;fill-rule:nonzero;fill:rgb(79.607843%,79.607843%,79.607843%);fill-opacity:0.780392;" d="M 9.402344 6.457031 L 10.875 6.457031 L 10.875 6.636719 L 9.402344 6.636719 "/>
<path style=" stroke:none;fill-rule:nonzero;fill:rgb(79.607843%,79.607843%,79.607843%);fill-opacity:0.780392;" d="M 8.441406 6.457031 L 9.222656 6.457031 L 9.222656 6.636719 L 8.441406 6.636719 "/>
<path style=" stroke:none;fill-rule:nonzero;fill:rgb(79.607843%,79.607843%,79.607843%);fill-opacity:0.780392;" d="M 6.648438 6.457031 L 8.199219 6.457031 L 8.199219 6.636719 L 6.648438 6.636719 "/>
<path style=" stroke:none;fill-rule:nonzero;fill:rgb(79.607843%,79.607843%,79.607843%);fill-opacity:0.780392;" d="M 6.648438 6.105469 L 8.605469 6.105469 L 8.605469 6.285156 L 6.648438 6.285156 "/>
<path style=" stroke:none;fill-rule:nonzero;fill:rgb(79.607843%,79.607843%,79.607843%);fill-opacity:0.780392;" d="M 6.648438 6.820312 L 9.222656 6.820312 L 9.222656 7 L 6.648438 7 "/>
<path style=" stroke:none;fill-rule:nonzero;fill:rgb(80%,80%,80%);fill-opacity:1;" d="M 11.941406 5.539062 L 3.824219 5.539062 C 3.894531 5.394531 4.027344 5.355469 4.183594 5.355469 L 11.613281 5.367188 C 11.761719 5.367188 11.871094 5.425781 11.9375 5.539062 Z M 11.941406 5.539062 "/>
<path style=" stroke:none;fill-rule:evenodd;fill:rgb(74.901961%,74.901961%,74.901961%);fill-opacity:1;" d="M 3.902344 11.179688 C 3.996094 11.265625 4.140625 11.320312 4.257812 11.320312 L 11.425781 11.296875 C 11.570312 11.292969 11.667969 11.246094 11.730469 11.167969 L 11.59375 11.019531 C 11.585938 11.039062 11.574219 11.0625 11.558594 11.074219 C 11.53125 11.101562 11.484375 11.117188 11.421875 11.117188 L 4.257812 11.140625 C 4.203125 11.140625 4.132812 11.117188 4.078125 11.078125 C 4.0625 11.070312 4.050781 11.058594 4.039062 11.046875 Z M 11.421875 11.117188 L 11.425781 11.117188 "/>
<path style=" stroke:none;fill-rule:evenodd;fill:rgb(100%,100%,100%);fill-opacity:1;" d="M 3.925781 11.351562 C 4.019531 11.441406 4.164062 11.496094 4.28125 11.496094 L 11.449219 11.472656 C 11.59375 11.46875 11.695312 11.417969 11.757812 11.339844 L 11.617188 11.191406 C 11.609375 11.214844 11.597656 11.234375 11.582031 11.25 C 11.554688 11.277344 11.507812 11.292969 11.445312 11.292969 L 4.28125 11.316406 C 4.226562 11.316406 4.15625 11.292969 4.101562 11.253906 C 4.085938 11.242188 4.074219 11.234375 4.066406 11.222656 Z M 11.445312 11.292969 L 11.449219 11.292969 "/>
<path style=" stroke:none;fill-rule:evenodd;fill:rgb(50.588235%,63.921569%,21.960784%);fill-opacity:0.501961;" d="M 9.21875 4.316406 L 10.027344 4.316406 L 10.027344 5.042969 L 9.21875 5.042969 Z M 9.828125 4.496094 L 9.417969 4.496094 L 9.417969 4.859375 L 9.828125 4.859375 Z M 9.828125 4.496094 "/>
<path style=" stroke:none;fill-rule:evenodd;fill:rgb(82.352941%,44.705882%,8.627451%);fill-opacity:0.501961;" d="M 10.210938 4.316406 L 11.023438 4.316406 L 11.023438 5.042969 L 10.210938 5.042969 Z M 10.824219 4.496094 L 10.414062 4.496094 L 10.414062 4.859375 L 10.824219 4.859375 Z M 10.824219 4.496094 "/>
<path style=" stroke:none;fill-rule:evenodd;fill:rgb(56.862745%,27.843137%,2.352941%);fill-opacity:0.270588;" d="M 11.242188 4.316406 L 12.054688 4.316406 L 12.054688 5.042969 L 11.242188 5.042969 Z M 11.855469 4.496094 L 11.445312 4.496094 L 11.445312 4.859375 L 11.855469 4.859375 Z M 11.855469 4.496094 "/>
<path style=" stroke:none;fill-rule:evenodd;fill:rgb(100%,60%,60%);fill-opacity:1;" d="M 11.230469 4.5 L 11.242188 4.5 L 11.242188 4.648438 L 11.230469 4.648438 Z M 11.445312 4.5 L 11.855469 4.5 L 11.855469 4.648438 L 11.445312 4.648438 Z M 11.445312 4.5 "/>
<path style=" stroke:none;fill-rule:evenodd;fill:rgb(100%,100%,100%);fill-opacity:1;" d="M 9.242188 5.039062 L 10.03125 5.039062 L 10.03125 5.1875 L 9.242188 5.1875 Z M 9.242188 5.039062 "/>
<path style=" stroke:none;fill-rule:evenodd;fill:rgb(100%,100%,100%);fill-opacity:1;" d="M 10.230469 5.039062 L 11.019531 5.039062 L 11.019531 5.1875 L 10.230469 5.1875 Z M 10.230469 5.039062 "/>
<path style=" stroke:none;fill-rule:evenodd;fill:rgb(100%,100%,100%);fill-opacity:1;" d="M 11.246094 5.039062 L 12.03125 5.039062 L 12.03125 5.1875 L 11.246094 5.1875 Z M 11.246094 5.039062 "/>
<path style=" stroke:none;fill-rule:nonzero;fill:url(#linear3);" d="M 3.859375 4.675781 L 3.859375 4.710938 L 3.953125 4.90625 L 4.046875 4.710938 L 4.046875 4.675781 C 4.046875 4.664062 4.050781 4.65625 4.058594 4.652344 C 4.0625 4.644531 4.070312 4.644531 4.082031 4.644531 C 4.089844 4.644531 4.097656 4.644531 4.101562 4.652344 C 4.109375 4.65625 4.113281 4.664062 4.113281 4.675781 L 4.113281 4.71875 C 4.113281 4.71875 4.113281 4.722656 4.109375 4.726562 C 4.109375 4.726562 4.109375 4.730469 4.109375 4.734375 L 4.007812 4.941406 C 4 4.953125 3.996094 4.957031 3.992188 4.960938 C 3.988281 4.964844 3.980469 4.964844 3.972656 4.964844 L 3.933594 4.964844 C 3.925781 4.964844 3.921875 4.964844 3.914062 4.960938 C 3.910156 4.957031 3.90625 4.953125 3.902344 4.941406 L 3.800781 4.734375 C 3.796875 4.730469 3.796875 4.726562 3.796875 4.726562 C 3.796875 4.722656 3.796875 4.71875 3.796875 4.71875 L 3.796875 4.675781 C 3.796875 4.664062 3.796875 4.65625 3.804688 4.652344 C 3.8125 4.644531 3.820312 4.644531 3.828125 4.644531 C 3.835938 4.644531 3.84375 4.644531 3.851562 4.652344 C 3.855469 4.65625 3.859375 4.664062 3.859375 4.675781 Z M 6.101562 4.523438 L 6.316406 4.523438 C 6.335938 4.523438 6.351562 4.527344 6.363281 4.539062 C 6.375 4.550781 6.382812 4.5625 6.382812 4.582031 L 6.382812 4.714844 C 6.382812 4.730469 6.375 4.746094 6.363281 4.757812 C 6.351562 4.769531 6.335938 4.773438 6.316406 4.773438 L 6.128906 4.773438 L 6.128906 4.910156 L 6.347656 4.910156 C 6.355469 4.910156 6.367188 4.910156 6.371094 4.917969 C 6.378906 4.921875 6.382812 4.929688 6.382812 4.9375 C 6.382812 4.945312 6.378906 4.953125 6.371094 4.957031 C 6.363281 4.964844 6.355469 4.964844 6.347656 4.964844 L 6.066406 4.964844 L 6.066406 4.773438 C 6.066406 4.757812 6.070312 4.742188 6.085938 4.734375 C 6.097656 4.722656 6.113281 4.714844 6.128906 4.714844 L 6.316406 4.714844 L 6.316406 4.582031 L 6.101562 4.582031 C 6.089844 4.582031 6.082031 4.578125 6.074219 4.574219 C 6.070312 4.566406 6.066406 4.558594 6.066406 4.550781 C 6.066406 4.542969 6.070312 4.535156 6.074219 4.53125 C 6.082031 4.527344 6.089844 4.523438 6.101562 4.523438 Z M 5.65625 4.582031 L 5.65625 4.910156 L 5.84375 4.910156 L 5.84375 4.582031 Z M 5.664062 4.523438 L 5.839844 4.523438 C 5.859375 4.523438 5.878906 4.527344 5.890625 4.539062 C 5.902344 4.550781 5.910156 4.566406 5.910156 4.585938 L 5.910156 4.902344 C 5.910156 4.921875 5.902344 4.9375 5.890625 4.949219 C 5.878906 4.960938 5.859375 4.964844 5.839844 4.964844 L 5.664062 4.964844 C 5.640625 4.964844 5.625 4.960938 5.613281 4.949219 C 5.597656 4.9375 5.59375 4.921875 5.59375 4.902344 L 5.59375 4.585938 C 5.59375 4.566406 5.597656 4.550781 5.613281 4.539062 C 5.625 4.527344 5.640625 4.523438 5.664062 4.523438 Z M 5.363281 4.855469 L 5.425781 4.855469 C 5.4375 4.855469 5.445312 4.855469 5.449219 4.863281 C 5.457031 4.867188 5.460938 4.875 5.460938 4.886719 L 5.460938 4.925781 C 5.460938 4.9375 5.457031 4.945312 5.449219 4.949219 C 5.445312 4.957031 5.4375 4.960938 5.425781 4.960938 L 5.363281 4.960938 C 5.355469 4.960938 5.347656 4.957031 5.339844 4.949219 C 5.335938 4.945312 5.332031 4.9375 5.332031 4.925781 L 5.332031 4.886719 C 5.332031 4.875 5.335938 4.867188 5.339844 4.863281 C 5.347656 4.855469 5.355469 4.851562 5.363281 4.851562 Z M 4.988281 4.582031 L 4.988281 4.910156 L 5.175781 4.910156 L 5.175781 4.582031 Z M 4.992188 4.523438 L 5.167969 4.523438 C 5.191406 4.523438 5.207031 4.527344 5.21875 4.539062 C 5.230469 4.550781 5.238281 4.566406 5.238281 4.585938 L 5.238281 4.902344 C 5.238281 4.921875 5.230469 4.9375 5.21875 4.949219 C 5.207031 4.960938 5.191406 4.964844 5.167969 4.964844 L 4.992188 4.964844 C 4.96875 4.964844 4.953125 4.960938 4.941406 4.949219 C 4.929688 4.9375 4.921875 4.921875 4.921875 4.902344 L 4.921875 4.585938 C 4.921875 4.566406 4.929688 4.550781 4.941406 4.539062 C 4.953125 4.527344 4.96875 4.523438 4.992188 4.523438 Z M 4.746094 4.855469 L 4.808594 4.855469 C 4.816406 4.855469 4.824219 4.855469 4.832031 4.863281 C 4.835938 4.867188 4.839844 4.875 4.839844 4.886719 L 4.839844 4.925781 C 4.839844 4.9375 4.835938 4.945312 4.832031 4.949219 C 4.824219 4.957031 4.816406 4.960938 4.808594 4.960938 L 4.746094 4.960938 C 4.734375 4.960938 4.726562 4.957031 4.722656 4.949219 C 4.714844 4.945312 4.710938 4.9375 4.710938 4.925781 L 4.710938 4.886719 C 4.710938 4.875 4.714844 4.867188 4.722656 4.863281 C 4.726562 4.855469 4.734375 4.851562 4.746094 4.851562 Z M 4.304688 4.523438 L 4.519531 4.523438 C 4.539062 4.523438 4.554688 4.527344 4.566406 4.539062 C 4.578125 4.550781 4.585938 4.5625 4.585938 4.582031 L 4.585938 4.714844 C 4.585938 4.730469 4.578125 4.746094 4.566406 4.757812 C 4.554688 4.769531 4.539062 4.773438 4.519531 4.773438 L 4.332031 4.773438 L 4.332031 4.910156 L 4.546875 4.910156 C 4.558594 4.910156 4.566406 4.910156 4.574219 4.917969 C 4.582031 4.921875 4.585938 4.929688 4.585938 4.9375 C 4.585938 4.945312 4.582031 4.953125 4.574219 4.957031 C 4.566406 4.964844 4.558594 4.964844 4.546875 4.964844 L 4.269531 4.964844 L 4.269531 4.773438 C 4.269531 4.757812 4.273438 4.742188 4.285156 4.734375 C 4.300781 4.722656 4.3125 4.714844 4.332031 4.714844 L 4.519531 4.714844 L 4.519531 4.582031 L 4.304688 4.582031 C 4.292969 4.582031 4.285156 4.578125 4.277344 4.574219 C 4.269531 4.566406 4.269531 4.558594 4.269531 4.550781 C 4.269531 4.542969 4.269531 4.535156 4.277344 4.53125 C 4.285156 4.527344 4.292969 4.523438 4.304688 4.523438 Z M 4.304688 4.523438 "/>
<path style=" stroke:none;fill-rule:nonzero;fill:url(#linear4);" d="M 3.910156 4.664062 L 3.910156 4.699219 L 4.003906 4.894531 L 4.097656 4.699219 L 4.097656 4.664062 C 4.097656 4.652344 4.101562 4.644531 4.109375 4.640625 C 4.113281 4.632812 4.121094 4.632812 4.132812 4.632812 C 4.140625 4.632812 4.148438 4.632812 4.15625 4.640625 C 4.160156 4.644531 4.164062 4.652344 4.164062 4.664062 L 4.164062 4.707031 C 4.164062 4.707031 4.164062 4.710938 4.164062 4.714844 C 4.160156 4.71875 4.160156 4.71875 4.160156 4.722656 L 4.058594 4.929688 C 4.054688 4.941406 4.046875 4.945312 4.042969 4.949219 C 4.039062 4.953125 4.03125 4.953125 4.023438 4.953125 L 3.984375 4.953125 C 3.976562 4.953125 3.972656 4.953125 3.96875 4.949219 C 3.960938 4.945312 3.957031 4.941406 3.953125 4.929688 L 3.851562 4.722656 C 3.851562 4.71875 3.847656 4.714844 3.847656 4.714844 C 3.847656 4.710938 3.847656 4.707031 3.847656 4.707031 L 3.847656 4.664062 C 3.847656 4.652344 3.851562 4.644531 3.855469 4.640625 C 3.863281 4.632812 3.871094 4.632812 3.878906 4.632812 C 3.890625 4.632812 3.898438 4.632812 3.902344 4.640625 C 3.910156 4.644531 3.910156 4.652344 3.910156 4.664062 Z M 6.152344 4.511719 L 6.371094 4.511719 C 6.386719 4.511719 6.402344 4.515625 6.414062 4.527344 C 6.425781 4.539062 6.433594 4.550781 6.433594 4.570312 L 6.433594 4.703125 C 6.433594 4.71875 6.425781 4.734375 6.414062 4.746094 C 6.402344 4.757812 6.386719 4.761719 6.371094 4.761719 L 6.179688 4.761719 L 6.179688 4.898438 L 6.398438 4.898438 C 6.410156 4.898438 6.417969 4.898438 6.421875 4.90625 C 6.429688 4.910156 6.433594 4.917969 6.433594 4.925781 C 6.433594 4.933594 6.429688 4.941406 6.421875 4.945312 C 6.417969 4.953125 6.40625 4.957031 6.398438 4.957031 L 6.117188 4.957031 L 6.117188 4.761719 C 6.117188 4.746094 6.125 4.734375 6.136719 4.722656 C 6.148438 4.710938 6.164062 4.703125 6.179688 4.703125 L 6.371094 4.703125 L 6.371094 4.570312 L 6.152344 4.570312 C 6.140625 4.570312 6.132812 4.566406 6.125 4.5625 C 6.121094 4.554688 6.117188 4.550781 6.117188 4.539062 C 6.117188 4.53125 6.121094 4.523438 6.128906 4.519531 C 6.132812 4.515625 6.144531 4.511719 6.152344 4.511719 Z M 5.707031 4.570312 L 5.707031 4.898438 L 5.898438 4.898438 L 5.898438 4.570312 Z M 5.714844 4.511719 L 5.890625 4.511719 C 5.914062 4.511719 5.929688 4.515625 5.941406 4.527344 C 5.953125 4.539062 5.960938 4.554688 5.960938 4.574219 L 5.960938 4.890625 C 5.960938 4.910156 5.953125 4.925781 5.941406 4.9375 C 5.929688 4.949219 5.914062 4.953125 5.890625 4.953125 L 5.714844 4.953125 C 5.691406 4.953125 5.675781 4.949219 5.664062 4.9375 C 5.652344 4.925781 5.644531 4.910156 5.644531 4.890625 L 5.644531 4.574219 C 5.644531 4.554688 5.652344 4.539062 5.664062 4.527344 C 5.675781 4.515625 5.691406 4.511719 5.714844 4.511719 Z M 5.417969 4.84375 L 5.480469 4.84375 C 5.488281 4.84375 5.496094 4.84375 5.503906 4.851562 C 5.507812 4.855469 5.511719 4.863281 5.511719 4.875 L 5.511719 4.914062 C 5.511719 4.925781 5.507812 4.933594 5.503906 4.9375 C 5.496094 4.945312 5.488281 4.949219 5.480469 4.949219 L 5.417969 4.949219 C 5.40625 4.949219 5.398438 4.945312 5.394531 4.9375 C 5.386719 4.933594 5.382812 4.925781 5.382812 4.914062 L 5.382812 4.875 C 5.382812 4.863281 5.386719 4.855469 5.394531 4.851562 C 5.398438 4.84375 5.40625 4.84375 5.417969 4.84375 Z M 5.039062 4.570312 L 5.039062 4.898438 L 5.226562 4.898438 L 5.226562 4.570312 Z M 5.042969 4.511719 L 5.21875 4.511719 C 5.242188 4.511719 5.257812 4.515625 5.273438 4.527344 C 5.285156 4.539062 5.289062 4.554688 5.289062 4.574219 L 5.289062 4.890625 C 5.289062 4.910156 5.285156 4.925781 5.273438 4.9375 C 5.257812 4.949219 5.242188 4.953125 5.21875 4.953125 L 5.042969 4.953125 C 5.023438 4.953125 5.003906 4.949219 4.992188 4.9375 C 4.980469 4.925781 4.972656 4.910156 4.972656 4.890625 L 4.972656 4.574219 C 4.972656 4.554688 4.980469 4.539062 4.992188 4.527344 C 5.003906 4.515625 5.023438 4.511719 5.042969 4.511719 Z M 4.796875 4.84375 L 4.859375 4.84375 C 4.867188 4.84375 4.875 4.84375 4.882812 4.851562 C 4.886719 4.855469 4.890625 4.863281 4.890625 4.875 L 4.890625 4.914062 C 4.890625 4.925781 4.886719 4.933594 4.882812 4.9375 C 4.875 4.945312 4.867188 4.949219 4.859375 4.949219 L 4.796875 4.949219 C 4.785156 4.949219 4.777344 4.945312 4.773438 4.9375 C 4.765625 4.933594 4.765625 4.925781 4.765625 4.914062 L 4.765625 4.875 C 4.765625 4.863281 4.765625 4.855469 4.773438 4.851562 C 4.777344 4.84375 4.785156 4.84375 4.796875 4.84375 Z M 4.355469 4.511719 L 4.570312 4.511719 C 4.589844 4.511719 4.605469 4.515625 4.617188 4.527344 C 4.628906 4.539062 4.636719 4.550781 4.636719 4.570312 L 4.636719 4.703125 C 4.636719 4.71875 4.628906 4.734375 4.617188 4.746094 C 4.605469 4.757812 4.589844 4.761719 4.570312 4.761719 L 4.382812 4.761719 L 4.382812 4.898438 L 4.601562 4.898438 C 4.609375 4.898438 4.621094 4.898438 4.625 4.90625 C 4.632812 4.910156 4.636719 4.917969 4.636719 4.925781 C 4.636719 4.933594 4.632812 4.941406 4.625 4.945312 C 4.621094 4.953125 4.609375 4.957031 4.601562 4.957031 L 4.320312 4.957031 L 4.320312 4.761719 C 4.320312 4.746094 4.324219 4.734375 4.339844 4.722656 C 4.351562 4.710938 4.367188 4.703125 4.382812 4.703125 L 4.570312 4.703125 L 4.570312 4.570312 L 4.355469 4.570312 C 4.34375 4.570312 4.335938 4.566406 4.328125 4.5625 C 4.324219 4.554688 4.320312 4.550781 4.320312 4.539062 C 4.320312 4.53125 4.324219 4.523438 4.328125 4.519531 C 4.335938 4.515625 4.34375 4.511719 4.355469 4.511719 Z M 4.355469 4.511719 "/>
<path style=" stroke:none;fill-rule:nonzero;fill:rgb(100%,100%,100%);fill-opacity:1;" d="M 4.175781 4.976562 L 4.175781 4.980469 C 4.183594 4.996094 4.195312 5.011719 4.210938 5.023438 C 4.222656 5.035156 4.238281 5.042969 4.253906 5.046875 C 4.269531 5.050781 4.289062 5.054688 4.304688 5.054688 L 4.519531 5.054688 C 4.542969 5.054688 4.5625 5.050781 4.582031 5.042969 L 4.585938 5.042969 C 4.601562 5.035156 4.621094 5.023438 4.636719 5.011719 C 4.648438 5 4.660156 4.988281 4.667969 4.976562 Z M 4.839844 4.976562 C 4.847656 4.988281 4.855469 5 4.867188 5.011719 C 4.898438 5.039062 4.941406 5.054688 4.992188 5.054688 L 5.167969 5.054688 C 5.191406 5.054688 5.210938 5.050781 5.230469 5.046875 C 5.253906 5.039062 5.273438 5.027344 5.292969 5.011719 C 5.304688 5 5.3125 4.988281 5.320312 4.976562 Z M 5.511719 4.976562 C 5.519531 4.988281 5.527344 5 5.539062 5.011719 C 5.554688 5.027344 5.574219 5.039062 5.601562 5.046875 C 5.621094 5.050781 5.640625 5.054688 5.664062 5.054688 L 5.839844 5.054688 C 5.859375 5.054688 5.882812 5.050781 5.902344 5.046875 C 5.925781 5.039062 5.945312 5.027344 5.960938 5.011719 C 5.96875 5.003906 5.976562 5 5.980469 4.992188 C 5.988281 5.003906 5.996094 5.015625 6.007812 5.023438 C 6.019531 5.035156 6.035156 5.042969 6.050781 5.046875 C 6.066406 5.050781 6.082031 5.054688 6.101562 5.054688 L 6.316406 5.054688 C 6.339844 5.054688 6.359375 5.050781 6.382812 5.042969 C 6.402344 5.035156 6.417969 5.027344 6.433594 5.011719 C 6.445312 5 6.457031 4.988281 6.464844 4.976562 L 5.507812 4.976562 Z M 5.511719 4.976562 "/>
<path style=" stroke:none;fill-rule:nonzero;fill:rgb(80%,80%,80%);fill-opacity:1;" d="M 4.328125 5.9375 L 5.824219 5.9375 L 5.824219 7.390625 L 4.226562 7.390625 L 4.226562 5.9375 Z M 5.621094 6.117188 L 4.425781 6.117188 L 4.425781 7.210938 L 5.621094 7.210938 Z M 5.621094 6.117188 "/>
<path style=" stroke:none;fill-rule:nonzero;fill:rgb(74.901961%,74.901961%,74.901961%);fill-opacity:1;" d="M 4.328125 7.71875 L 5.824219 7.71875 L 5.824219 9.167969 L 4.226562 9.167969 L 4.226562 7.71875 Z M 5.621094 7.898438 L 4.425781 7.898438 L 4.425781 8.988281 L 5.621094 8.988281 Z M 5.621094 7.898438 "/>
<path style=" stroke:none;fill-rule:nonzero;fill:rgb(69.411765%,69.411765%,69.411765%);fill-opacity:1;" d="M 4.328125 9.503906 L 5.824219 9.503906 L 5.824219 10.957031 L 4.226562 10.957031 L 4.226562 9.503906 Z M 5.621094 9.683594 L 4.425781 9.683594 L 4.425781 10.777344 L 5.621094 10.777344 Z M 5.621094 9.683594 "/>
<path style=" stroke:none;fill-rule:evenodd;fill:rgb(100%,80%,0%);fill-opacity:1;" d="M 10.199219 4.5 L 10.210938 4.5 L 10.210938 4.648438 L 10.199219 4.648438 Z M 10.410156 4.5 L 10.820312 4.5 L 10.820312 4.648438 L 10.410156 4.648438 Z M 10.410156 4.5 "/>
<path style=" stroke:none;fill-rule:evenodd;fill:rgb(90.196078%,100%,67.843137%);fill-opacity:1;" d="M 9.199219 4.5 L 9.210938 4.5 L 9.210938 4.648438 L 9.199219 4.648438 Z M 9.414062 4.5 L 9.824219 4.5 L 9.824219 4.648438 L 9.414062 4.648438 Z M 9.414062 4.5 "/>
<path style=" stroke:none;fill-rule:evenodd;fill:rgb(60.392157%,80%,26.27451%);fill-opacity:1;" d="M 4.414062 7.929688 C 4.339844 7.996094 4.265625 8.0625 4.191406 8.128906 C 4.179688 8.136719 4.183594 8.144531 4.191406 8.152344 C 4.425781 8.390625 4.660156 8.625 4.894531 8.859375 C 4.898438 8.863281 4.90625 8.863281 4.910156 8.859375 C 5.257812 8.386719 5.570312 7.882812 5.914062 7.410156 C 5.921875 7.378906 5.945312 7.339844 5.90625 7.359375 L 4.851562 8.316406 C 4.835938 8.324219 4.839844 8.324219 4.824219 8.316406 C 4.695312 8.1875 4.5625 8.058594 4.433594 7.929688 C 4.425781 7.925781 4.421875 7.925781 4.414062 7.929688 Z M 4.414062 7.929688 "/>
<path style=" stroke:none;fill-rule:nonzero;fill:url(#linear5);" d="M 9.695312 6.582031 C 10.570312 6.582031 11.367188 6.894531 11.941406 7.394531 C 12.515625 7.898438 12.871094 8.59375 12.871094 9.359375 C 12.871094 10.125 12.515625 10.820312 11.941406 11.320312 C 11.367188 11.824219 10.570312 12.132812 9.695312 12.132812 C 8.816406 12.132812 8.023438 11.824219 7.449219 11.320312 C 6.871094 10.820312 6.515625 10.125 6.515625 9.359375 C 6.515625 8.589844 6.871094 7.898438 7.445312 7.394531 L 7.449219 7.394531 C 8.023438 6.894531 8.816406 6.582031 9.695312 6.582031 Z M 11.65625 7.644531 C 11.152344 7.207031 10.460938 6.9375 9.695312 6.9375 C 8.929688 6.9375 8.234375 7.207031 7.734375 7.644531 C 7.230469 8.082031 6.921875 8.6875 6.921875 9.359375 C 6.921875 10.027344 7.230469 10.632812 7.734375 11.070312 C 8.234375 11.507812 8.929688 11.78125 9.695312 11.78125 C 10.460938 11.78125 11.152344 11.507812 11.65625 11.070312 C 12.15625 10.632812 12.46875 10.027344 12.46875 9.359375 C 12.46875 8.6875 12.15625 8.082031 11.65625 7.644531 Z M 11.65625 7.644531 "/>
<path style=" stroke:none;fill-rule:evenodd;fill:rgb(69.803922%,69.803922%,69.803922%);fill-opacity:1;" d="M 9.683594 6.71875 C 11.308594 6.71875 12.628906 7.898438 12.628906 9.359375 C 12.628906 10.816406 11.308594 12 9.683594 12 C 8.054688 12 6.734375 10.816406 6.734375 9.359375 C 6.734375 7.898438 8.054688 6.71875 9.683594 6.71875 Z M 9.683594 6.71875 "/>
<path style=" stroke:none;fill-rule:evenodd;fill:url(#linear6);" d="M 9.683594 7.070312 C 11.09375 7.070312 12.238281 8.09375 12.238281 9.359375 C 12.238281 10.621094 11.09375 11.644531 9.683594 11.644531 C 8.269531 11.644531 7.128906 10.621094 7.128906 9.359375 C 7.128906 8.09375 8.269531 7.070312 9.683594 7.070312 Z M 9.683594 7.070312 "/>
<path style=" stroke:none;fill-rule:evenodd;fill:rgb(60%,100%,100%);fill-opacity:0.00392157;" d="M 10.523438 10.039062 C 11.359375 10.019531 12.023438 9.738281 12.007812 9.414062 C 11.992188 9.089844 11.300781 8.839844 10.464844 8.859375 C 9.625 8.878906 8.960938 9.160156 8.976562 9.484375 C 8.992188 9.8125 9.6875 10.058594 10.523438 10.039062 Z M 10.523438 10.039062 "/>
<path style=" stroke:none;fill-rule:evenodd;fill:rgb(60%,100%,100%);fill-opacity:0.00784314;" d="M 10.511719 9.996094 C 11.3125 9.980469 11.976562 9.710938 11.960938 9.410156 C 11.945312 9.109375 11.253906 8.890625 10.457031 8.90625 C 9.660156 8.921875 9.023438 9.179688 9.039062 9.480469 C 9.054688 9.78125 9.714844 10.011719 10.511719 9.996094 Z M 10.511719 9.996094 "/>
<path style=" stroke:none;fill-rule:evenodd;fill:rgb(60%,100%,100%);fill-opacity:0.00784314;" d="M 10.5 9.953125 C 11.261719 9.945312 11.921875 9.683594 11.910156 9.40625 C 11.894531 9.132812 11.210938 8.945312 10.449219 8.957031 C 9.691406 8.964844 9.085938 9.199219 9.101562 9.472656 C 9.113281 9.75 9.742188 9.964844 10.5 9.953125 Z M 10.5 9.953125 "/>
<path style=" stroke:none;fill-rule:evenodd;fill:rgb(60%,100%,100%);fill-opacity:0.0117647;" d="M 10.488281 9.910156 C 11.210938 9.90625 11.871094 9.65625 11.859375 9.40625 C 11.847656 9.152344 11.164062 8.996094 10.441406 9.003906 C 9.722656 9.007812 9.148438 9.21875 9.160156 9.46875 C 9.171875 9.71875 9.769531 9.917969 10.488281 9.910156 Z M 10.488281 9.910156 "/>
<path style=" stroke:none;fill-rule:evenodd;fill:rgb(60%,100%,100%);fill-opacity:0.0156863;" d="M 10.480469 9.871094 C 11.160156 9.867188 11.820312 9.628906 11.808594 9.402344 C 11.796875 9.175781 11.117188 9.050781 10.4375 9.050781 C 9.753906 9.050781 9.210938 9.238281 9.222656 9.460938 C 9.234375 9.6875 9.796875 9.871094 10.480469 9.871094 Z M 10.480469 9.871094 "/>
<path style=" stroke:none;fill-rule:evenodd;fill:rgb(60%,100%,100%);fill-opacity:0.0156863;" d="M 10.464844 9.828125 C 11.109375 9.832031 11.769531 9.601562 11.757812 9.398438 C 11.75 9.199219 11.070312 9.101562 10.429688 9.097656 C 9.785156 9.097656 9.269531 9.257812 9.28125 9.457031 C 9.292969 9.65625 9.824219 9.824219 10.464844 9.828125 Z M 10.464844 9.828125 "/>
<path style=" stroke:none;fill-rule:evenodd;fill:rgb(60%,100%,100%);fill-opacity:0.0196078;" d="M 10.453125 9.785156 C 11.058594 9.792969 11.71875 9.574219 11.707031 9.398438 C 11.699219 9.21875 11.023438 9.15625 10.421875 9.148438 C 9.8125 9.140625 9.332031 9.277344 9.339844 9.453125 C 9.351562 9.628906 9.847656 9.777344 10.453125 9.785156 Z M 10.453125 9.785156 "/>
<path style=" stroke:none;fill-rule:evenodd;fill:rgb(60%,100%,100%);fill-opacity:0.0196078;" d="M 10.445312 9.742188 C 11.007812 9.753906 11.667969 9.542969 11.660156 9.394531 C 11.652344 9.242188 10.980469 9.207031 10.414062 9.195312 C 9.847656 9.183594 9.394531 9.292969 9.402344 9.445312 C 9.410156 9.597656 9.875 9.730469 10.441406 9.742188 Z M 10.445312 9.742188 "/>
<path style=" stroke:none;fill-rule:evenodd;fill:rgb(60%,100%,100%);fill-opacity:0.0235294;" d="M 10.429688 9.699219 C 10.957031 9.71875 11.617188 9.515625 11.609375 9.390625 C 11.601562 9.265625 10.933594 9.261719 10.40625 9.242188 C 9.878906 9.226562 9.457031 9.316406 9.460938 9.441406 C 9.46875 9.566406 9.902344 9.683594 10.429688 9.699219 Z M 10.429688 9.699219 "/>
<path style=" stroke:none;fill-rule:evenodd;fill:rgb(60%,100%,100%);fill-opacity:0.027451;" d="M 10.421875 9.65625 C 10.910156 9.679688 11.566406 9.488281 11.558594 9.386719 C 11.554688 9.289062 10.886719 9.3125 10.398438 9.292969 C 9.910156 9.269531 9.519531 9.335938 9.523438 9.433594 C 9.53125 9.535156 9.929688 9.636719 10.421875 9.65625 Z M 10.421875 9.65625 "/>
<path style=" stroke:none;fill-rule:evenodd;fill:rgb(60%,100%,100%);fill-opacity:0.027451;" d="M 10.410156 9.613281 C 10.859375 9.640625 11.515625 9.460938 11.507812 9.386719 C 11.503906 9.308594 10.839844 9.367188 10.390625 9.339844 C 9.941406 9.3125 9.582031 9.355469 9.585938 9.429688 C 9.589844 9.503906 9.957031 9.589844 10.410156 9.613281 Z M 10.410156 9.613281 "/>
<path style=" stroke:none;fill-rule:evenodd;fill:rgb(60%,100%,100%);fill-opacity:0.0313725;" d="M 10.398438 9.570312 C 10.808594 9.601562 11.464844 9.433594 11.460938 9.382812 C 11.457031 9.332031 10.796875 9.417969 10.382812 9.386719 C 9.972656 9.355469 9.640625 9.371094 9.644531 9.425781 C 9.648438 9.472656 9.984375 9.542969 10.398438 9.570312 Z M 10.398438 9.570312 "/>
<path style=" stroke:none;fill-rule:evenodd;fill:rgb(60%,100%,100%);fill-opacity:0.0352941;" d="M 10.386719 9.527344 C 10.757812 9.5625 11.414062 9.40625 11.410156 9.378906 C 11.40625 9.351562 10.75 9.46875 10.375 9.433594 C 10.003906 9.398438 9.703125 9.390625 9.707031 9.417969 C 9.707031 9.445312 10.011719 9.492188 10.386719 9.527344 Z M 10.386719 9.527344 "/>
<path style=" stroke:none;fill-rule:evenodd;fill:rgb(60%,100%,100%);fill-opacity:0.0352941;" d="M 10.375 9.484375 C 10.707031 9.527344 11.363281 9.378906 11.359375 9.375 C 11.359375 9.375 10.703125 9.523438 10.371094 9.484375 C 10.035156 9.441406 9.765625 9.410156 9.765625 9.410156 C 9.769531 9.414062 10.039062 9.445312 10.375 9.484375 Z M 10.375 9.484375 "/>
<path style=" stroke:none;fill-rule:evenodd;fill:rgb(60%,100%,100%);fill-opacity:0.0392157;" d="M 10.363281 9.445312 C 10.660156 9.488281 11.308594 9.347656 11.308594 9.375 C 11.308594 9.398438 10.65625 9.574219 10.363281 9.53125 C 10.066406 9.484375 9.828125 9.429688 9.828125 9.40625 C 9.828125 9.382812 10.066406 9.398438 10.363281 9.445312 Z M 10.363281 9.445312 "/>
<path style=" stroke:none;fill-rule:evenodd;fill:rgb(60%,100%,100%);fill-opacity:0.0392157;" d="M 10.351562 9.402344 C 10.609375 9.449219 11.257812 9.320312 11.261719 9.371094 C 11.261719 9.417969 10.613281 9.628906 10.355469 9.578125 C 10.097656 9.53125 9.886719 9.449219 9.886719 9.402344 C 9.886719 9.351562 10.09375 9.351562 10.351562 9.402344 Z M 10.351562 9.402344 "/>
<path style=" stroke:none;fill-rule:evenodd;fill:rgb(60%,100%,100%);fill-opacity:0.0431373;" d="M 10.339844 9.359375 C 10.558594 9.414062 11.207031 9.292969 11.210938 9.367188 C 11.210938 9.441406 10.566406 9.679688 10.347656 9.625 C 10.128906 9.574219 9.949219 9.46875 9.949219 9.394531 C 9.945312 9.320312 10.121094 9.304688 10.339844 9.359375 Z M 10.339844 9.359375 "/>
<path style=" stroke:none;fill-rule:evenodd;fill:rgb(60%,100%,100%);fill-opacity:0.0470588;" d="M 10.328125 9.316406 C 10.507812 9.375 11.15625 9.265625 11.160156 9.363281 C 11.164062 9.464844 10.519531 9.734375 10.339844 9.675781 C 10.160156 9.617188 10.011719 9.488281 10.007812 9.390625 C 10.003906 9.289062 10.148438 9.257812 10.328125 9.316406 Z M 10.328125 9.316406 "/>
<path style=" stroke:none;fill-rule:evenodd;fill:rgb(60%,100%,100%);fill-opacity:0.00392157;" d="M 9.855469 8.527344 C 9.417969 7.886719 8.8125 7.511719 8.507812 7.6875 C 8.199219 7.863281 8.304688 8.523438 8.742188 9.164062 C 9.179688 9.800781 9.785156 10.175781 10.089844 10.003906 C 10.398438 9.828125 10.292969 9.164062 9.855469 8.527344 Z M 9.855469 8.527344 "/>
<path style=" stroke:none;fill-rule:evenodd;fill:rgb(60%,100%,100%);fill-opacity:0.00784314;" d="M 9.820312 8.554688 C 9.40625 7.945312 8.8125 7.566406 8.53125 7.726562 C 8.246094 7.890625 8.378906 8.53125 8.792969 9.144531 C 9.207031 9.753906 9.773438 10.121094 10.054688 9.957031 C 10.339844 9.796875 10.234375 9.167969 9.820312 8.554688 Z M 9.820312 8.554688 "/>
<path style=" stroke:none;fill-rule:evenodd;fill:rgb(60%,100%,100%);fill-opacity:0.00784314;" d="M 9.785156 8.585938 C 9.394531 8.003906 8.8125 7.617188 8.550781 7.765625 C 8.292969 7.917969 8.453125 8.542969 8.84375 9.125 C 9.234375 9.710938 9.761719 10.0625 10.019531 9.914062 C 10.28125 9.765625 10.175781 9.171875 9.785156 8.585938 Z M 9.785156 8.585938 "/>
<path style=" stroke:none;fill-rule:evenodd;fill:rgb(60%,100%,100%);fill-opacity:0.0117647;" d="M 9.75 8.617188 C 9.382812 8.058594 8.808594 7.671875 8.574219 7.808594 C 8.335938 7.941406 8.527344 8.550781 8.894531 9.105469 C 9.261719 9.664062 9.75 10.003906 9.984375 9.867188 C 10.21875 9.734375 10.113281 9.171875 9.75 8.617188 Z M 9.75 8.617188 "/>
<path style=" stroke:none;fill-rule:evenodd;fill:rgb(60%,100%,100%);fill-opacity:0.0156863;" d="M 9.714844 8.644531 C 9.371094 8.117188 8.808594 7.726562 8.597656 7.847656 C 8.382812 7.96875 8.601562 8.5625 8.945312 9.089844 C 9.285156 9.617188 9.738281 9.949219 9.949219 9.824219 C 10.160156 9.703125 10.054688 9.175781 9.714844 8.648438 Z M 9.714844 8.644531 "/>
<path style=" stroke:none;fill-rule:evenodd;fill:rgb(60%,100%,100%);fill-opacity:0.0156863;" d="M 9.679688 8.675781 C 9.359375 8.175781 8.808594 7.777344 8.617188 7.886719 C 8.429688 7.996094 8.675781 8.570312 8.992188 9.070312 C 9.3125 9.570312 9.722656 9.890625 9.914062 9.78125 C 10.101562 9.671875 9.996094 9.179688 9.679688 8.675781 Z M 9.679688 8.675781 "/>
<path style=" stroke:none;fill-rule:evenodd;fill:rgb(60%,100%,100%);fill-opacity:0.0196078;" d="M 9.640625 8.707031 C 9.347656 8.234375 8.804688 7.832031 8.640625 7.929688 C 8.472656 8.023438 8.75 8.578125 9.042969 9.050781 C 9.335938 9.527344 9.710938 9.832031 9.875 9.738281 C 10.042969 9.640625 9.9375 9.179688 9.640625 8.707031 Z M 9.640625 8.707031 "/>
<path style=" stroke:none;fill-rule:evenodd;fill:rgb(60%,100%,100%);fill-opacity:0.0196078;" d="M 9.605469 8.738281 C 9.335938 8.292969 8.804688 7.886719 8.664062 7.96875 C 8.519531 8.050781 8.824219 8.589844 9.09375 9.035156 C 9.363281 9.480469 9.699219 9.773438 9.839844 9.691406 C 9.984375 9.609375 9.878906 9.183594 9.605469 8.738281 Z M 9.605469 8.738281 "/>
<path style=" stroke:none;fill-rule:evenodd;fill:rgb(60%,100%,100%);fill-opacity:0.0235294;" d="M 9.570312 8.765625 C 9.324219 8.351562 8.804688 7.941406 8.683594 8.007812 C 8.566406 8.078125 8.898438 8.597656 9.144531 9.015625 C 9.390625 9.433594 9.6875 9.714844 9.804688 9.648438 C 9.925781 9.578125 9.820312 9.183594 9.570312 8.765625 Z M 9.570312 8.765625 "/>
<path style=" stroke:none;fill-rule:evenodd;fill:rgb(60%,100%,100%);fill-opacity:0.027451;" d="M 9.535156 8.796875 C 9.3125 8.40625 8.800781 7.992188 8.707031 8.046875 C 8.613281 8.101562 8.972656 8.605469 9.195312 8.996094 C 9.417969 9.386719 9.675781 9.660156 9.769531 9.605469 C 9.863281 9.550781 9.757812 9.1875 9.535156 8.796875 Z M 9.535156 8.796875 "/>
<path style=" stroke:none;fill-rule:evenodd;fill:rgb(60%,100%,100%);fill-opacity:0.027451;" d="M 9.5 8.828125 C 9.300781 8.464844 8.800781 8.046875 8.730469 8.089844 C 8.660156 8.128906 9.046875 8.617188 9.246094 8.980469 C 9.445312 9.34375 9.664062 9.601562 9.734375 9.558594 C 9.804688 9.519531 9.703125 9.191406 9.5 8.828125 Z M 9.5 8.828125 "/>
<path style=" stroke:none;fill-rule:evenodd;fill:rgb(60%,100%,100%);fill-opacity:0.0313725;" d="M 9.464844 8.859375 C 9.289062 8.523438 8.796875 8.101562 8.75 8.128906 C 8.703125 8.15625 9.117188 8.625 9.292969 8.960938 C 9.46875 9.296875 9.652344 9.542969 9.699219 9.515625 C 9.746094 9.488281 9.640625 9.191406 9.464844 8.859375 Z M 9.464844 8.859375 "/>
<path style=" stroke:none;fill-rule:evenodd;fill:rgb(60%,100%,100%);fill-opacity:0.0352941;" d="M 9.429688 8.886719 C 9.277344 8.582031 8.796875 8.152344 8.773438 8.167969 C 8.75 8.183594 9.191406 8.636719 9.34375 8.941406 C 9.496094 9.25 9.640625 9.488281 9.664062 9.472656 C 9.6875 9.457031 9.582031 9.195312 9.429688 8.886719 Z M 9.429688 8.886719 "/>
<path style=" stroke:none;fill-rule:evenodd;fill:rgb(60%,100%,100%);fill-opacity:0.0352941;" d="M 9.394531 8.917969 C 9.265625 8.640625 8.796875 8.207031 8.796875 8.207031 C 8.796875 8.210938 9.265625 8.644531 9.394531 8.925781 C 9.523438 9.203125 9.628906 9.429688 9.628906 9.425781 C 9.628906 9.425781 9.523438 9.199219 9.394531 8.917969 Z M 9.394531 8.917969 "/>
<path style=" stroke:none;fill-rule:evenodd;fill:rgb(60%,100%,100%);fill-opacity:0.0392157;" d="M 9.359375 8.949219 C 9.253906 8.695312 8.792969 8.261719 8.816406 8.25 C 8.839844 8.238281 9.339844 8.652344 9.445312 8.90625 C 9.550781 9.15625 9.613281 9.371094 9.589844 9.382812 C 9.566406 9.394531 9.464844 9.199219 9.359375 8.949219 Z M 9.359375 8.949219 "/>
<path style=" stroke:none;fill-rule:evenodd;fill:rgb(60%,100%,100%);fill-opacity:0.0392157;" d="M 9.324219 8.980469 C 9.242188 8.753906 8.792969 8.316406 8.839844 8.289062 C 8.886719 8.265625 9.414062 8.664062 9.496094 8.886719 C 9.574219 9.113281 9.601562 9.3125 9.554688 9.339844 C 9.507812 9.363281 9.40625 9.203125 9.324219 8.980469 Z M 9.324219 8.980469 "/>
<path style=" stroke:none;fill-rule:evenodd;fill:rgb(60%,100%,100%);fill-opacity:0.0431373;" d="M 9.289062 9.007812 C 9.230469 8.8125 8.792969 8.367188 8.863281 8.328125 C 8.933594 8.289062 9.488281 8.671875 9.542969 8.867188 C 9.601562 9.0625 9.589844 9.253906 9.519531 9.292969 C 9.449219 9.332031 9.34375 9.203125 9.289062 9.007812 Z M 9.289062 9.007812 "/>
<path style=" stroke:none;fill-rule:evenodd;fill:rgb(60%,100%,100%);fill-opacity:0.0470588;" d="M 9.253906 9.039062 C 9.21875 8.871094 8.789062 8.421875 8.882812 8.371094 C 8.976562 8.316406 9.5625 8.683594 9.59375 8.851562 C 9.628906 9.019531 9.578125 9.199219 9.484375 9.25 C 9.390625 9.300781 9.285156 9.207031 9.253906 9.039062 Z M 9.253906 9.039062 "/>
<path style=" stroke:none;fill-rule:evenodd;fill:rgb(100%,100%,100%);fill-opacity:1;" d="M 9.683594 6.71875 C 11.292969 6.71875 12.601562 7.875 12.628906 9.308594 C 12.460938 7.996094 11.214844 6.972656 9.699219 6.972656 C 8.074219 6.972656 6.753906 8.15625 6.753906 9.613281 L 6.753906 9.664062 C 6.742188 9.5625 6.734375 9.460938 6.734375 9.359375 C 6.734375 7.898438 8.054688 6.71875 9.683594 6.71875 Z M 9.683594 6.71875 "/>
<path style=" stroke:none;fill-rule:evenodd;fill:rgb(100%,100%,100%);fill-opacity:1;" d="M 9.648438 11.871094 C 11.597656 11.816406 12.382812 10.785156 12.410156 9.347656 C 12.253906 10.664062 11.121094 11.664062 9.667969 11.664062 C 8.214844 11.664062 6.96875 10.5 6.96875 9.042969 L 6.96875 8.996094 C 6.957031 9.09375 7.015625 8.460938 6.949219 9.300781 C 6.886719 10.136719 7.699219 11.925781 9.648438 11.871094 Z M 9.648438 11.871094 "/>
<path style=" stroke:none;fill-rule:evenodd;fill:url(#linear7);" d="M 9.65625 7.339844 C 10.828125 7.339844 11.792969 8.136719 11.90625 9.160156 C 11.375 9.375 10.679688 9.503906 9.917969 9.503906 C 8.894531 9.503906 7.992188 9.273438 7.449219 8.917969 C 7.675781 8.015625 8.578125 7.339844 9.65625 7.339844 Z M 9.65625 7.339844 "/>
<path style=" stroke:none;fill-rule:evenodd;fill:rgb(73.333333%,90.196078%,100%);fill-opacity:1;" d="M 8.597656 8.164062 L 8.804688 8.03125 L 10.003906 9.515625 L 9.800781 9.644531 Z M 8.597656 8.164062 "/>
<path style=" stroke:none;fill-rule:evenodd;fill:rgb(73.333333%,90.196078%,100%);fill-opacity:1;" d="M 11.25 9.292969 L 11.257812 9.484375 L 9.285156 9.480469 L 9.277344 9.289062 "/>
<path style=" stroke:none;fill-rule:evenodd;fill:url(#linear8);" d="M 9.636719 9.519531 L 9.84375 9.519531 L 9.84375 11.042969 L 9.636719 11.042969 Z M 9.636719 9.519531 "/>
<path style=" stroke:none;fill-rule:evenodd;fill:url(#linear9);" d="M 9.039062 5.722656 L 10.660156 5.722656 L 10.660156 6.328125 L 9.039062 6.328125 Z M 9.039062 5.722656 "/>
<path style=" stroke:none;fill-rule:evenodd;fill:url(#linear10);" d="M 8.789062 5.640625 L 10.722656 5.632812 L 10.722656 6.320312 L 8.789062 6.328125 "/>
<path style=" stroke:none;fill-rule:evenodd;fill:rgb(100%,100%,100%);fill-opacity:1;" d="M 9.429688 5.730469 L 10.042969 5.730469 L 10.042969 6.222656 L 9.429688 6.222656 Z M 9.429688 5.730469 "/>
<path style=" stroke:none;fill-rule:evenodd;fill:rgb(60%,60%,60%);fill-opacity:1;" d="M 10.035156 5.761719 L 10.277344 5.761719 L 10.277344 6.257812 L 10.035156 6.257812 Z M 10.035156 5.761719 "/>
<path style=" stroke:none;fill-rule:evenodd;fill:rgb(60%,60%,60%);fill-opacity:0.439216;" d="M 9.445312 5.769531 L 9.253906 5.769531 L 9.253906 6.265625 L 9.445312 6.265625 "/>
<path style=" stroke:none;fill-rule:nonzero;fill:rgb(49.803922%,49.803922%,49.803922%);fill-opacity:1;" d="M 8.933594 5.722656 L 10.648438 5.722656 L 10.648438 6.417969 L 8.832031 6.417969 L 8.832031 5.722656 Z M 10.445312 5.902344 L 9.03125 5.902344 L 9.03125 6.238281 L 10.445312 6.238281 Z M 10.445312 5.902344 "/>
<path style=" stroke:none;fill-rule:evenodd;fill:rgb(40%,40%,40%);fill-opacity:1;" d="M 9.234375 6.382812 L 10.128906 6.382812 L 10.128906 6.582031 L 9.234375 6.582031 Z M 9.234375 6.382812 "/>
<path style=" stroke:none;fill-rule:evenodd;fill:rgb(73.333333%,90.196078%,100%);fill-opacity:1;" d="M 9.644531 11.242188 L 9.859375 11.242188 L 9.859375 11.4375 L 9.644531 11.4375 Z M 9.644531 11.242188 "/>
<path style=" stroke:none;fill-rule:evenodd;fill:rgb(73.333333%,90.196078%,100%);fill-opacity:1;" d="M 7.429688 9.289062 L 7.648438 9.289062 L 7.648438 9.484375 L 7.429688 9.484375 Z M 7.429688 9.289062 "/>
<path style=" stroke:none;fill-rule:evenodd;fill:rgb(73.333333%,90.196078%,100%);fill-opacity:1;" d="M 9.636719 7.328125 L 9.851562 7.328125 L 9.851562 7.523438 L 9.636719 7.523438 Z M 9.636719 7.328125 "/>
<path style=" stroke:none;fill-rule:evenodd;fill:rgb(73.333333%,90.196078%,100%);fill-opacity:1;" d="M 11.640625 9.289062 L 11.855469 9.289062 L 11.855469 9.484375 L 11.640625 9.484375 Z M 11.640625 9.289062 "/>
<path style=" stroke:none;fill-rule:evenodd;fill:rgb(73.333333%,90.196078%,100%);fill-opacity:1;" d="M 8.035156 10.738281 L 8.25 10.738281 L 8.25 10.933594 L 8.035156 10.933594 Z M 8.035156 10.738281 "/>
<path style=" stroke:none;fill-rule:evenodd;fill:rgb(73.333333%,90.196078%,100%);fill-opacity:1;" d="M 11.019531 10.738281 L 11.234375 10.738281 L 11.234375 10.933594 L 11.019531 10.933594 Z M 11.019531 10.738281 "/>
<path style=" stroke:none;fill-rule:evenodd;fill:rgb(73.333333%,90.196078%,100%);fill-opacity:1;" d="M 8.035156 7.882812 L 8.25 7.882812 L 8.25 8.082031 L 8.035156 8.082031 Z M 8.035156 7.882812 "/>
<path style=" stroke:none;fill-rule:evenodd;fill:rgb(73.333333%,90.196078%,100%);fill-opacity:1;" d="M 11.019531 7.882812 L 11.234375 7.882812 L 11.234375 8.082031 L 11.019531 8.082031 Z M 11.019531 7.882812 "/>
<path style=" stroke:none;fill-rule:evenodd;fill:rgb(60.392157%,80%,26.27451%);fill-opacity:1;" d="M 4.414062 9.773438 C 4.339844 9.839844 4.265625 9.90625 4.191406 9.972656 C 4.179688 9.980469 4.183594 9.988281 4.191406 9.996094 C 4.425781 10.230469 4.660156 10.46875 4.894531 10.703125 C 4.898438 10.707031 4.90625 10.707031 4.910156 10.703125 C 5.257812 10.230469 5.570312 9.726562 5.914062 9.25 C 5.921875 9.21875 5.945312 9.183594 5.90625 9.203125 L 4.851562 10.160156 C 4.835938 10.164062 4.839844 10.167969 4.824219 10.160156 C 4.695312 10.03125 4.5625 9.902344 4.433594 9.773438 C 4.425781 9.769531 4.421875 9.765625 4.414062 9.773438 Z M 4.414062 9.773438 "/>
</g>
</svg>
