
<svg xmlns="http://www.w3.org/2000/svg" xmlns:xlink="http://www.w3.org/1999/xlink" width="16px" height="16px" viewBox="0 0 16 16" version="1.1">
<g id="surface1">
<path style=" stroke:none;fill-rule:nonzero;fill:rgb(99.607843%,40%,47.843137%);fill-opacity:1;" d="M 9.859375 15.792969 C 24.789062 12.695312 8.757812 -8.605469 1.171875 4.191406 C -2.082031 9.160156 2.179688 17.382812 9.859375 15.792969 Z M 9.859375 15.792969 "/>
<path style=" stroke:none;fill-rule:nonzero;fill:rgb(96.078431%,96.078431%,96.078431%);fill-opacity:0.968627;" d="M 4.742188 5.25 C 4.675781 5.222656 4.636719 5.03125 4.636719 4.722656 C 4.636719 4.167969 4.675781 4.136719 5.308594 4.136719 L 5.714844 4.136719 L 5.714844 5.304688 L 5.28125 5.296875 C 5.039062 5.292969 4.800781 5.269531 4.742188 5.25 Z M 4.742188 5.25 "/>
<path style=" stroke:none;fill-rule:nonzero;fill:rgb(96.078431%,96.078431%,96.078431%);fill-opacity:0.968627;" d="M 4.730469 6.644531 C 4.609375 6.566406 4.570312 5.898438 4.675781 5.726562 C 4.707031 5.675781 4.953125 5.636719 5.222656 5.636719 L 5.714844 5.636719 L 5.714844 6.71875 L 5.28125 6.71875 C 5.039062 6.71875 4.792969 6.683594 4.730469 6.644531 Z M 4.730469 6.644531 "/>
<path style=" stroke:none;fill-rule:nonzero;fill:rgb(96.078431%,96.078431%,96.078431%);fill-opacity:0.968627;" d="M 4.730469 8.0625 C 4.609375 7.984375 4.570312 7.3125 4.675781 7.140625 C 4.707031 7.09375 4.953125 7.054688 5.222656 7.054688 L 5.714844 7.054688 L 5.714844 8.136719 L 5.28125 8.136719 C 5.039062 8.136719 4.792969 8.101562 4.730469 8.0625 Z M 4.730469 8.0625 "/>
<path style=" stroke:none;fill-rule:nonzero;fill:rgb(96.078431%,96.078431%,96.078431%);fill-opacity:0.968627;" d="M 4.730469 9.476562 C 4.609375 9.402344 4.570312 8.730469 4.675781 8.558594 C 4.707031 8.511719 4.953125 8.472656 5.222656 8.472656 L 5.714844 8.472656 L 5.714844 8.960938 C 5.714844 9.398438 5.695312 9.457031 5.527344 9.503906 C 5.257812 9.574219 4.863281 9.5625 4.730469 9.476562 Z M 4.730469 9.476562 "/>
<path style=" stroke:none;fill-rule:nonzero;fill:rgb(96.078431%,96.078431%,96.078431%);fill-opacity:0.968627;" d="M 4.726562 10.894531 C 4.574219 10.796875 4.582031 9.976562 4.738281 9.871094 C 4.851562 9.792969 5.597656 9.828125 5.6875 9.917969 C 5.714844 9.945312 5.757812 10.15625 5.777344 10.382812 C 5.816406 10.777344 5.804688 10.804688 5.59375 10.886719 C 5.320312 10.992188 4.886719 10.996094 4.726562 10.894531 Z M 4.726562 10.894531 "/>
<path style=" stroke:none;fill-rule:nonzero;fill:rgb(96.078431%,96.078431%,96.078431%);fill-opacity:0.968627;" d="M 4.78125 12.335938 C 4.582031 12.277344 4.570312 11.347656 4.769531 11.273438 C 4.960938 11.199219 5.488281 11.214844 5.621094 11.296875 C 5.761719 11.386719 5.851562 12.179688 5.730469 12.253906 C 5.609375 12.328125 4.957031 12.386719 4.78125 12.335938 Z M 4.78125 12.335938 "/>
<path style=" stroke:none;fill-rule:nonzero;fill:rgb(96.078431%,96.078431%,96.078431%);fill-opacity:0.968627;" d="M 6.191406 12.332031 C 6.074219 12.300781 6.046875 12.203125 6.046875 11.859375 C 6.046875 11.339844 6.140625 11.222656 6.554688 11.222656 C 6.972656 11.222656 7.121094 11.394531 7.121094 11.882812 C 7.121094 12.265625 7.109375 12.289062 6.863281 12.335938 C 6.585938 12.394531 6.417969 12.390625 6.191406 12.332031 Z M 6.191406 12.332031 "/>
<path style=" stroke:none;fill-rule:nonzero;fill:rgb(96.078431%,96.078431%,96.078431%);fill-opacity:0.968627;" d="M 6.191406 10.914062 C 6.074219 10.882812 6.046875 10.785156 6.046875 10.441406 C 6.046875 9.921875 6.140625 9.804688 6.554688 9.804688 C 6.972656 9.804688 7.121094 9.976562 7.121094 10.46875 C 7.121094 10.847656 7.109375 10.871094 6.863281 10.917969 C 6.585938 10.976562 6.417969 10.972656 6.191406 10.914062 Z M 6.191406 10.914062 "/>
<path style=" stroke:none;fill-rule:nonzero;fill:rgb(96.078431%,96.078431%,96.078431%);fill-opacity:0.968627;" d="M 6.191406 9.496094 C 6.074219 9.464844 6.046875 9.367188 6.046875 8.976562 L 6.046875 8.492188 L 6.355469 8.441406 C 6.800781 8.367188 6.847656 8.375 6.992188 8.519531 C 7.074219 8.601562 7.121094 8.796875 7.121094 9.050781 C 7.121094 9.398438 7.097656 9.460938 6.933594 9.503906 C 6.730469 9.558594 6.414062 9.554688 6.191406 9.496094 Z M 6.191406 9.496094 "/>
<path style=" stroke:none;fill-rule:nonzero;fill:rgb(96.078431%,96.078431%,96.078431%);fill-opacity:0.968627;" d="M 6.148438 8.082031 C 6.082031 8.054688 6.046875 7.863281 6.046875 7.546875 L 6.046875 7.054688 L 6.53125 7.054688 C 7.074219 7.054688 7.117188 7.105469 7.121094 7.730469 C 7.121094 7.976562 7.085938 8.042969 6.9375 8.085938 C 6.71875 8.144531 6.296875 8.144531 6.148438 8.082031 Z M 6.148438 8.082031 "/>
<path style=" stroke:none;fill-rule:nonzero;fill:rgb(96.078431%,96.078431%,96.078431%);fill-opacity:0.968627;" d="M 6.148438 6.664062 C 6.082031 6.636719 6.046875 6.445312 6.046875 6.128906 L 6.046875 5.636719 L 7.039062 5.636719 L 7.039062 6.722656 L 6.644531 6.714844 C 6.429688 6.710938 6.207031 6.6875 6.148438 6.664062 Z M 6.148438 6.664062 "/>
<path style=" stroke:none;fill-rule:nonzero;fill:rgb(96.078431%,96.078431%,96.078431%);fill-opacity:0.968627;" d="M 6.144531 5.203125 C 6.089844 5.148438 6.046875 4.886719 6.046875 4.621094 L 6.046875 4.136719 L 7.039062 4.136719 L 7.039062 5.304688 L 6.640625 5.304688 C 6.421875 5.304688 6.199219 5.257812 6.144531 5.203125 Z M 6.144531 5.203125 "/>
<path style=" stroke:none;fill-rule:nonzero;fill:rgb(96.078431%,96.078431%,96.078431%);fill-opacity:0.968627;" d="M 7.554688 5.25 C 7.488281 5.21875 7.453125 5.019531 7.453125 4.667969 L 7.453125 4.128906 L 7.929688 4.152344 L 8.40625 4.179688 L 8.453125 5.304688 L 8.058594 5.296875 C 7.839844 5.292969 7.613281 5.269531 7.554688 5.246094 Z M 7.554688 5.25 "/>
<path style=" stroke:none;fill-rule:nonzero;fill:rgb(96.078431%,96.078431%,96.078431%);fill-opacity:0.968627;" d="M 7.558594 6.652344 C 7.503906 6.617188 7.433594 6.375 7.402344 6.113281 L 7.347656 5.636719 L 8.445312 5.636719 L 8.445312 6.128906 C 8.445312 6.5 8.414062 6.632812 8.316406 6.671875 C 8.132812 6.742188 7.679688 6.730469 7.558594 6.652344 Z M 7.558594 6.652344 "/>
<path style=" stroke:none;fill-rule:nonzero;fill:rgb(96.078431%,96.078431%,96.078431%);fill-opacity:0.968627;" d="M 7.5625 8.078125 C 7.46875 8.011719 7.417969 7.695312 7.441406 7.292969 C 7.453125 7.097656 7.496094 7.066406 7.84375 7.015625 C 8.183594 6.960938 8.25 6.976562 8.382812 7.140625 C 8.535156 7.332031 8.574219 7.765625 8.453125 7.960938 C 8.375 8.089844 7.707031 8.179688 7.5625 8.078125 Z M 7.5625 8.078125 "/>
<path style=" stroke:none;fill-rule:nonzero;fill:rgb(96.078431%,96.078431%,96.078431%);fill-opacity:0.968627;" d="M 7.546875 9.484375 C 7.425781 9.402344 7.378906 8.660156 7.484375 8.488281 C 7.515625 8.433594 7.707031 8.386719 7.910156 8.386719 C 8.1875 8.386719 8.300781 8.429688 8.398438 8.574219 C 8.539062 8.773438 8.570312 9.195312 8.453125 9.375 C 8.367188 9.511719 7.703125 9.59375 7.546875 9.484375 Z M 7.546875 9.484375 "/>
<path style=" stroke:none;fill-rule:nonzero;fill:rgb(96.078431%,96.078431%,96.078431%);fill-opacity:0.968627;" d="M 7.546875 10.902344 C 7.425781 10.820312 7.378906 10.078125 7.484375 9.90625 C 7.515625 9.851562 7.707031 9.804688 7.910156 9.804688 C 8.1875 9.804688 8.300781 9.847656 8.398438 9.992188 C 8.539062 10.191406 8.570312 10.613281 8.453125 10.792969 C 8.367188 10.929688 7.703125 11.011719 7.546875 10.902344 Z M 7.546875 10.902344 "/>
<path style=" stroke:none;fill-rule:nonzero;fill:rgb(96.078431%,96.078431%,96.078431%);fill-opacity:0.968627;" d="M 7.390625 11.90625 C 7.414062 11.628906 7.460938 11.359375 7.492188 11.3125 C 7.519531 11.261719 7.707031 11.222656 7.910156 11.222656 C 8.328125 11.222656 8.53125 11.425781 8.527344 11.84375 C 8.527344 12.238281 8.429688 12.316406 7.867188 12.367188 L 7.34375 12.414062 Z M 7.390625 11.90625 "/>
<path style=" stroke:none;fill-rule:nonzero;fill:rgb(96.078431%,96.078431%,96.078431%);fill-opacity:0.968627;" d="M 8.792969 11.828125 L 8.816406 11.265625 L 9.21875 11.238281 C 9.746094 11.203125 9.851562 11.304688 9.851562 11.847656 L 9.851562 12.285156 L 9.542969 12.335938 C 9.371094 12.363281 9.128906 12.386719 9 12.386719 L 8.769531 12.390625 Z M 8.792969 11.828125 "/>
<path style=" stroke:none;fill-rule:nonzero;fill:rgb(96.078431%,96.078431%,96.078431%);fill-opacity:0.968627;" d="M 8.777344 10.488281 C 8.777344 9.921875 8.863281 9.804688 9.285156 9.804688 C 9.703125 9.804688 9.851562 9.976562 9.851562 10.46875 C 9.851562 10.847656 9.839844 10.871094 9.59375 10.921875 C 9.453125 10.949219 9.210938 10.972656 9.054688 10.972656 L 8.777344 10.972656 Z M 8.777344 10.488281 "/>
<path style=" stroke:none;fill-rule:nonzero;fill:rgb(96.078431%,96.078431%,96.078431%);fill-opacity:0.968627;" d="M 8.878906 9.5 C 8.746094 9.445312 8.742188 8.625 8.875 8.488281 C 9.019531 8.34375 9.570312 8.363281 9.722656 8.519531 C 9.804688 8.601562 9.851562 8.796875 9.851562 9.050781 C 9.851562 9.398438 9.828125 9.460938 9.667969 9.503906 C 9.449219 9.5625 9.027344 9.558594 8.878906 9.5 Z M 8.878906 9.5 "/>
<path style=" stroke:none;fill-rule:nonzero;fill:rgb(96.078431%,96.078431%,96.078431%);fill-opacity:0.968627;" d="M 8.878906 8.082031 C 8.746094 8.027344 8.742188 7.207031 8.875 7.070312 C 9.019531 6.925781 9.570312 6.945312 9.722656 7.101562 C 9.804688 7.183594 9.851562 7.378906 9.851562 7.632812 C 9.851562 7.980469 9.828125 8.042969 9.667969 8.085938 C 9.449219 8.144531 9.027344 8.140625 8.878906 8.082031 Z M 8.878906 8.082031 "/>
<path style=" stroke:none;fill-rule:nonzero;fill:rgb(96.078431%,96.078431%,96.078431%);fill-opacity:0.968627;" d="M 8.878906 6.664062 C 8.816406 6.640625 8.777344 6.449219 8.777344 6.136719 L 8.777344 5.652344 L 9.195312 5.59375 C 9.746094 5.519531 9.851562 5.613281 9.851562 6.179688 C 9.851562 6.5625 9.832031 6.625 9.667969 6.667969 C 9.449219 6.726562 9.027344 6.726562 8.878906 6.664062 Z M 8.878906 6.664062 "/>
<path style=" stroke:none;fill-rule:nonzero;fill:rgb(96.078431%,96.078431%,96.078431%);fill-opacity:0.968627;" d="M 10.265625 8.0625 C 10.136719 7.972656 10.097656 7.386719 10.203125 7.117188 C 10.28125 6.925781 10.941406 6.914062 11.128906 7.101562 C 11.269531 7.242188 11.304688 7.773438 11.1875 7.960938 C 11.097656 8.101562 10.433594 8.175781 10.265625 8.0625 Z M 10.265625 8.0625 "/>
<path style=" stroke:none;fill-rule:nonzero;fill:rgb(96.078431%,96.078431%,96.078431%);fill-opacity:0.968627;" d="M 10.101562 9.195312 C 10.101562 8.984375 10.136719 8.71875 10.183594 8.601562 C 10.25 8.417969 10.3125 8.386719 10.628906 8.386719 C 11.054688 8.386719 11.175781 8.503906 11.230469 8.945312 C 11.285156 9.402344 11.183594 9.496094 10.605469 9.539062 L 10.101562 9.574219 Z M 10.101562 9.195312 "/>
<path style=" stroke:none;fill-rule:nonzero;fill:rgb(96.078431%,96.078431%,96.078431%);fill-opacity:0.968627;" d="M 10.121094 10.492188 C 10.148438 10.210938 10.191406 9.941406 10.222656 9.894531 C 10.253906 9.84375 10.460938 9.804688 10.683594 9.804688 C 11.140625 9.804688 11.261719 9.929688 11.257812 10.402344 C 11.257812 10.824219 11.167969 10.898438 10.597656 10.949219 L 10.078125 10.996094 Z M 10.121094 10.492188 "/>
<path style=" stroke:none;fill-rule:nonzero;fill:rgb(96.078431%,96.078431%,96.078431%);fill-opacity:0.968627;" d="M 10.101562 12.027344 C 10.101562 11.820312 10.136719 11.554688 10.183594 11.4375 C 10.25 11.253906 10.3125 11.222656 10.617188 11.222656 C 10.8125 11.222656 11.019531 11.257812 11.082031 11.296875 C 11.210938 11.378906 11.300781 12.050781 11.203125 12.191406 C 11.164062 12.242188 10.902344 12.3125 10.617188 12.34375 L 10.101562 12.40625 Z M 10.101562 12.027344 "/>
<path style=" stroke:none;fill-rule:nonzero;fill:rgb(96.078431%,96.078431%,96.078431%);fill-opacity:0.968627;" d="M 11.507812 11.816406 L 11.507812 11.222656 L 11.949219 11.222656 C 12.1875 11.222656 12.429688 11.265625 12.484375 11.324219 C 12.539062 11.378906 12.585938 11.621094 12.585938 11.863281 C 12.585938 12.289062 12.578125 12.304688 12.355469 12.308594 C 12.230469 12.308594 11.988281 12.332031 11.820312 12.359375 L 11.507812 12.410156 Z M 11.507812 11.816406 "/>
<path style=" stroke:none;fill-rule:nonzero;fill:rgb(96.078431%,96.078431%,96.078431%);fill-opacity:0.968627;" d="M 11.507812 10.5 C 11.507812 10.226562 11.554688 9.960938 11.609375 9.90625 C 11.738281 9.777344 12.355469 9.777344 12.484375 9.90625 C 12.539062 9.960938 12.585938 10.203125 12.585938 10.445312 C 12.585938 10.820312 12.5625 10.890625 12.429688 10.890625 C 12.347656 10.890625 12.105469 10.914062 11.894531 10.941406 L 11.507812 10.996094 Z M 11.507812 10.5 "/>
<path style=" stroke:none;fill-rule:nonzero;fill:rgb(96.078431%,96.078431%,96.078431%);fill-opacity:0.968627;" d="M 11.527344 8.992188 L 11.550781 8.429688 L 11.949219 8.40625 C 12.476562 8.371094 12.585938 8.472656 12.585938 9.011719 C 12.585938 9.4375 12.578125 9.453125 12.324219 9.503906 C 12.183594 9.53125 11.941406 9.554688 11.785156 9.554688 L 11.5 9.554688 Z M 11.527344 8.992188 "/>
</g>
</svg>
