
<svg xmlns="http://www.w3.org/2000/svg" xmlns:xlink="http://www.w3.org/1999/xlink" width="16px" height="16px" viewBox="0 0 16 16" version="1.1">
<g id="surface1">
<path style=" stroke:none;fill-rule:nonzero;fill:rgb(0%,0%,39.607843%);fill-opacity:1;" d="M 14.140625 13.222656 C 18.03125 7.238281 14.890625 1.785156 10.484375 0.492188 C 4.558594 -1.246094 -3.488281 3.324219 1.8125 12.75 C 3.921875 16.496094 11.367188 17.484375 14.136719 13.222656 Z M 14.140625 13.222656 "/>
<path style="fill-rule:nonzero;fill:rgb(100%,100%,0%);fill-opacity:1;stroke-width:1;stroke-linecap:butt;stroke-linejoin:miter;stroke:rgb(100%,100%,0%);stroke-opacity:1;stroke-miterlimit:4;" d="M 80.206967 206.269468 C 79.144467 205.519468 78.269467 204.331968 78.269467 203.519468 C 78.269467 202.769468 77.581967 200.956968 76.831967 199.581968 C 74.269467 198.081968 73.081967 190.456968 72.144467 188.894468 C 71.144467 187.644468 69.956967 185.331968 69.456967 183.769468 C 69.019467 182.144468 67.019467 178.519468 65.081967 175.706968 C 60.644467 169.206968 59.581967 163.269468 62.644467 161.706968 C 64.269467 160.831968 64.894467 161.144468 67.831967 164.269468 C 69.706967 166.206968 71.456967 168.769468 71.769467 169.894468 C 72.081967 171.019468 73.269467 173.081968 74.394467 174.394468 C 75.581967 175.706968 76.519467 177.644468 76.519467 178.644468 C 76.519467 179.644468 77.081967 181.206968 77.706967 182.144468 C 82.394467 189.519468 84.769467 197.519468 85.706967 200.206968 C 87.644467 203.769468 87.019467 207.081968 84.331967 207.331968 C 83.144467 207.456968 81.269467 207.019468 80.206967 206.269468 Z M 160.831967 205.519468 C 159.206967 204.331968 159.206967 204.269468 161.081967 200.519468 C 162.206967 198.394468 163.019467 196.144468 163.019467 195.519468 C 163.019467 194.956968 165.019467 191.269468 167.394467 187.456968 C 169.769467 183.581968 171.706967 179.456968 171.706967 178.269468 C 171.706967 177.081968 172.456967 175.206968 173.331967 174.081968 C 174.206967 173.019468 175.206967 171.144468 175.581967 170.019468 C 175.956967 168.894468 177.081967 166.894468 178.019467 165.644468 C 177.019467 159.394468 183.331967 160.769468 185.706967 161.894468 C 188.769467 163.331968 187.956967 166.206968 184.644467 171.019468 C 183.706967 172.269468 182.956967 174.019468 182.956967 174.894468 C 182.956967 175.831968 182.081967 177.581968 180.956967 178.894468 C 179.831967 180.206968 178.519467 182.581968 178.019467 184.206968 C 176.206967 189.581968 173.019467 196.331968 171.019467 198.706968 C 169.956967 200.019468 169.081967 201.581968 169.081967 202.144468 C 169.081967 203.394468 165.019467 206.706968 163.519467 206.706968 C 162.956967 206.706968 161.769467 206.144468 160.831967 205.519468 Z M 137.519467 200.019468 C 133.206967 200.019468 131.331967 198.894468 128.394467 194.394468 C 125.956967 190.706968 125.831967 190.081968 125.831967 181.519468 C 125.831967 171.269468 126.644467 168.581968 131.206967 163.956968 C 134.144467 160.956968 134.519467 160.831968 139.956967 160.831968 C 145.144467 160.831968 145.956967 161.081968 148.769467 163.456968 C 155.456967 169.144468 157.706967 179.331968 154.519467 189.644468 C 153.144467 194.081968 152.019467 195.956968 150.144467 197.331968 C 141.081967 203.831968 142.581967 200.081968 137.519467 200.019468 Z M 144.456967 190.894468 C 146.206967 187.581968 146.206967 169.769468 144.581967 171.144468 C 143.081967 171.519468 141.331967 167.269468 140.144467 166.894468 C 138.019467 166.144468 133.081967 167.831968 135.581967 174.456968 L 134.956967 181.456968 C 134.644467 185.331968 134.581967 188.769468 134.894467 189.019468 C 135.144467 189.269468 135.331967 188.081968 135.331967 186.394468 C 135.331967 183.956968 134.269467 192.644468 135.581967 192.644468 C 137.831967 192.581968 137.956967 192.706968 138.581967 193.394468 C 139.519467 194.581968 139.706967 194.581968 141.081967 193.706968 C 141.769467 193.331968 141.831967 194.769468 142.894467 193.331968 C 143.019467 193.331968 143.706967 192.269468 144.456967 190.894468 Z M 143.769467 170.394468 C 141.081967 168.144468 139.019467 167.831968 136.831967 169.394468 C 135.581967 170.269468 129.894467 170.456968 133.331967 170.581968 C 133.456967 162.769468 142.269467 162.331968 144.331967 168.769468 C 144.519467 169.456968 145.456967 172.519468 145.706967 172.456968 C 145.956967 172.456968 145.081967 171.519468 143.769467 170.394468 Z M 98.769467 198.519468 C 95.769467 195.394468 92.394467 187.269468 91.769467 181.206968 C 91.269467 176.769468 91.456967 175.581968 93.706967 170.769468 C 95.081967 167.831968 97.269467 164.456968 98.581967 163.331968 C 100.706967 161.394468 101.456967 161.269468 107.894467 161.456968 C 111.706967 161.581968 115.394467 162.144468 116.081967 162.644468 C 116.769467 163.206968 118.519467 165.894468 119.956967 168.644468 C 122.394467 173.269468 122.519467 174.081968 122.269467 181.581968 C 121.956967 189.456968 121.894467 189.706968 118.269467 194.769468 C 116.269467 197.581968 113.894467 200.081968 113.081967 200.331968 C 112.269467 200.581968 109.206967 200.769468 106.269467 200.769468 C 101.644467 200.769468 100.706967 200.519468 98.769467 198.519468 Z M 111.644467 190.706968 C 113.956967 186.394468 113.706967 178.019468 111.081967 172.956968 C 108.519467 167.831968 106.081967 167.081968 103.519467 170.644468 C 102.081967 172.581968 101.644467 174.581968 101.456967 181.019468 C 101.206967 188.581968 101.331967 189.206968 103.269467 191.206968 C 106.331967 194.331968 109.831967 194.081968 111.644467 190.706968 Z M 203.769467 148.331968 C 202.144467 146.831968 202.081967 145.456968 202.019467 124.394468 C 202.019467 112.081968 201.956967 100.644468 201.831967 98.956968 C 201.706967 97.269468 201.831967 95.644468 202.081967 95.394468 C 202.894467 94.644468 210.831967 96.394468 211.519467 97.519468 C 212.394467 98.894468 212.081967 147.581968 211.206967 148.956968 C 210.206967 150.581968 205.644467 150.206968 203.769467 148.331968 Z M 36.519467 147.706968 C 35.331967 146.456968 35.144467 142.769468 35.081967 122.581968 C 35.019467 106.081968 35.269467 98.581968 35.956967 97.769468 C 37.144467 96.394468 43.269467 96.269468 44.144467 97.644468 C 44.706967 98.456968 45.331967 106.956968 45.644467 118.706968 C 45.706967 120.581968 45.644467 127.206968 45.581967 133.581968 C 45.394467 144.519468 45.269467 145.144468 43.269467 147.144468 C 40.769467 149.519468 38.394467 149.706968 36.519467 147.706968 Z M 178.706967 79.831968 C 174.081967 74.206968 172.206967 66.956968 168.706967 60.769468 C 165.894467 55.831968 163.206967 49.894468 162.644467 47.581968 C 162.331967 46.206968 161.519467 44.581968 160.831967 44.019468 C 158.894467 42.456968 159.331967 39.956968 161.769467 39.081968 C 165.144467 37.831968 167.894467 39.331968 169.769467 43.394468 C 170.706967 45.394468 172.081967 47.519468 172.831967 48.144468 C 173.644467 48.769468 174.269467 50.081968 174.269467 51.081968 C 177.019467 61.519468 185.144467 68.956968 186.956967 80.144468 L 187.519467 84.144468 L 184.894467 84.144468 C 182.706967 84.144468 181.581967 83.331968 178.706967 79.831968 Z M 61.894467 82.206968 C 60.081967 80.456968 60.769467 74.956968 63.081967 72.269468 C 64.269467 70.956968 65.269467 68.956968 65.269467 67.894468 C 65.269467 66.894468 66.019467 65.394468 66.894467 64.644468 C 67.769467 63.831968 68.706967 61.894468 69.019467 60.331968 C 69.269467 58.706968 70.269467 56.394468 71.269467 55.206968 C 72.269467 54.019468 73.081967 52.206968 73.081967 51.144468 C 73.081967 50.144468 73.706967 48.769468 74.456967 48.206968 C 78.019467 44.894468 73.581967 50.269468 74.269467 48.581968 C 74.644467 47.644468 78.144467 38.706968 81.706967 38.644468 C 87.519467 38.644468 88.956967 40.331968 86.706967 44.144468 C 85.831967 45.581968 85.144467 47.206968 85.144467 47.769468 C 85.144467 48.394468 84.206967 50.269468 83.019467 51.956968 C 81.831967 53.644468 80.831967 55.644468 80.831967 56.456968 C 80.831967 57.206968 79.644467 59.519468 78.206967 61.519468 C 76.831967 63.519468 75.644467 65.831968 75.644467 66.644468 C 75.644467 67.456968 74.706967 69.269468 73.519467 70.644468 C 72.206967 79.894468 72.644467 72.644468 68.769467 78.519468 C 66.269467 82.331968 63.519467 83.769468 61.894467 82.206968 Z M 137.519467 65.581968 C 133.519467 66.019468 131.581967 64.581968 132.019467 61.456968 C 132.331967 59.581968 132.644467 59.519468 140.519467 59.519468 C 148.331967 59.519468 148.769467 59.644468 149.019467 61.331968 C 148.206967 62.769468 149.706967 62.831968 148.956967 63.706968 C 147.144467 65.894468 145.019467 65.144468 143.394467 65.269468 C 140.644467 65.519468 138.581967 65.581968 137.519467 65.581968 Z M 100.019467 64.644468 C 98.269467 62.644468 99.144467 59.644468 101.581967 59.019468 C 105.019467 58.081968 114.206967 57.644468 116.081967 58.644468 C 117.956967 59.644468 119.019467 63.394468 117.331967 64.769468 C 116.706967 65.269468 110.456967 65.144468 107.144467 65.456968 C 102.269467 65.894468 100.894467 65.706968 100.019467 64.644468 Z M 100.019467 64.644468 " transform="matrix(0.0625,0,0,0.0625,0.307377,0.307377)"/>
</g>
</svg>
