
<svg xmlns="http://www.w3.org/2000/svg" xmlns:xlink="http://www.w3.org/1999/xlink" width="16px" height="16px" viewBox="0 0 16 16" version="1.1">
<defs>
<linearGradient id="linear0" gradientUnits="userSpaceOnUse" x1="35.2" y1="34.423" x2="44.919" y2="72.25" >
<stop offset="0" style="stop-color:rgb(19.215686%,72.941176%,100%);stop-opacity:1;"/>
<stop offset="1" style="stop-color:rgb(33.333333%,54.117647%,85.490196%);stop-opacity:1;"/>
</linearGradient>
<linearGradient id="linear1" gradientUnits="userSpaceOnUse" x1="52.47" y1="58.54" x2="66.56" y2="31.25" >
<stop offset="0" style="stop-color:rgb(100%,78.823529%,24.705882%);stop-opacity:1;"/>
<stop offset="1" style="stop-color:rgb(94.509804%,89.019608%,42.352941%);stop-opacity:1;"/>
</linearGradient>
</defs>
<g id="surface1">
<path style=" stroke:none;fill-rule:nonzero;fill:rgb(32.941176%,43.137255%,74.509804%);fill-opacity:1;" d="M 14.398438 12.183594 C 20.101562 4.074219 9.574219 -4.140625 2.859375 2.464844 C -3.46875 8.6875 2.394531 18.359375 10.269531 15.335938 C 11.914062 14.707031 13.351562 13.671875 14.398438 12.183594 Z M 14.398438 12.183594 "/>
<path style=" stroke:none;fill-rule:evenodd;fill:rgb(0%,0%,0%);fill-opacity:0.294118;" d="M 10.773438 10.746094 C 10.773438 11.597656 9.136719 12.289062 7.117188 12.289062 C 5.09375 12.289062 3.457031 11.597656 3.457031 10.746094 C 3.457031 9.894531 5.09375 9.203125 7.117188 9.203125 C 9.136719 9.203125 10.773438 9.894531 10.773438 10.746094 Z M 10.773438 10.746094 "/>
<path style="fill-rule:evenodd;fill:url(#linear0);stroke-width:4.5;stroke-linecap:round;stroke-linejoin:miter;stroke:rgb(15.686275%,23.921569%,32.54902%);stroke-opacity:1;stroke-miterlimit:20;" d="M 8.025367 69.393877 C 10.763813 84.409411 64.789444 85.122738 70.031612 71.569525 C 67.332286 62.367607 44.564063 13.18371 42.568909 10.116404 C 38.578602 15.359357 10.920296 62.545938 8.025367 69.393877 Z M 8.025367 69.393877 " transform="matrix(0.0998513,0,0,0.109522,3.186938,2.513125)"/>
<path style=" stroke:none;fill-rule:evenodd;fill:rgb(100%,78.823529%,24.705882%);fill-opacity:1;" d="M 6.410156 8.648438 L 6.15625 8.417969 L 5.847656 8.546875 L 5.96875 8.210938 L 5.761719 7.929688 L 6.089844 7.949219 L 6.273438 7.648438 L 6.355469 8 L 6.671875 8.09375 L 6.394531 8.289062 Z M 6.410156 8.648438 "/>
<path style=" stroke:none;fill-rule:evenodd;fill:rgb(100%,78.823529%,24.705882%);fill-opacity:1;" d="M 7.886719 9.132812 L 7.59375 8.960938 L 7.316406 9.15625 L 7.375 8.800781 L 7.121094 8.570312 L 7.445312 8.519531 L 7.566406 8.183594 L 7.710938 8.507812 L 8.039062 8.53125 L 7.804688 8.78125 Z M 7.886719 9.132812 "/>
<path style=" stroke:none;fill-rule:evenodd;fill:rgb(100%,78.823529%,24.705882%);fill-opacity:1;" d="M 7.777344 7.328125 L 7.492188 7.152344 L 7.210938 7.335938 L 7.277344 6.984375 L 7.027344 6.746094 L 7.355469 6.703125 L 7.484375 6.371094 L 7.621094 6.699219 L 7.949219 6.734375 L 7.707031 6.976562 Z M 7.777344 7.328125 "/>
<path style=" stroke:none;fill-rule:evenodd;fill:rgb(100%,78.823529%,24.705882%);fill-opacity:1;" d="M 9.203125 10.285156 L 8.902344 10.132812 L 8.636719 10.34375 L 8.671875 9.988281 L 8.40625 9.773438 L 8.726562 9.703125 L 8.832031 9.359375 L 8.992188 9.671875 L 9.324219 9.671875 L 9.101562 9.941406 Z M 9.203125 10.285156 "/>
<path style=" stroke:none;fill-rule:evenodd;fill:rgb(100%,78.823529%,24.705882%);fill-opacity:1;" d="M 9.109375 7.925781 L 8.792969 7.835938 L 8.5625 8.09375 L 8.542969 7.730469 L 8.246094 7.574219 L 8.554688 7.441406 L 8.601562 7.082031 L 8.808594 7.363281 L 9.132812 7.300781 L 8.957031 7.605469 Z M 9.109375 7.925781 "/>
<path style=" stroke:none;fill-rule:evenodd;fill:rgb(100%,78.823529%,24.705882%);fill-opacity:1;" d="M 5.121094 9.855469 L 4.910156 9.578125 L 4.585938 9.636719 L 4.761719 9.332031 L 4.609375 9.015625 L 4.929688 9.105469 L 5.15625 8.84375 L 5.179688 9.207031 L 5.472656 9.363281 L 5.167969 9.496094 Z M 5.121094 9.855469 "/>
<path style=" stroke:none;fill-rule:evenodd;fill:rgb(100%,78.823529%,24.705882%);fill-opacity:1;" d="M 6.382812 6.96875 L 6.128906 6.738281 L 5.824219 6.867188 L 5.941406 6.53125 L 5.738281 6.25 L 6.066406 6.269531 L 6.246094 5.96875 L 6.328125 6.320312 L 6.644531 6.414062 L 6.367188 6.609375 Z M 6.382812 6.96875 "/>
<path style=" stroke:none;fill-rule:evenodd;fill:rgb(100%,78.823529%,24.705882%);fill-opacity:1;" d="M 7.582031 5.820312 L 7.328125 5.589844 L 7.023438 5.71875 L 7.144531 5.382812 L 6.9375 5.101562 L 7.265625 5.125 L 7.445312 4.824219 L 7.527344 5.171875 L 7.84375 5.265625 L 7.566406 5.460938 Z M 7.582031 5.820312 "/>
<path style=" stroke:none;fill-rule:evenodd;fill:rgb(100%,78.823529%,24.705882%);fill-opacity:1;" d="M 6.722656 10.351562 L 6.441406 10.160156 L 6.152344 10.328125 L 6.234375 9.980469 L 5.996094 9.730469 L 6.324219 9.707031 L 6.46875 9.382812 L 6.589844 9.714844 L 6.917969 9.765625 L 6.664062 9.996094 Z M 6.722656 10.351562 "/>
<path style=" stroke:none;fill-rule:evenodd;fill:rgb(15.686275%,23.921569%,32.54902%);fill-opacity:1;" d="M 7.453125 3.195312 L 7.257812 3.472656 C 7.136719 3.648438 6.898438 4.066406 6.578125 4.644531 C 6.257812 5.222656 5.867188 5.945312 5.480469 6.675781 C 5.09375 7.40625 4.703125 8.140625 4.398438 8.742188 C 4.089844 9.34375 3.867188 9.792969 3.78125 10.019531 L 3.757812 10.082031 L 3.769531 10.160156 C 3.859375 10.710938 4.335938 11.058594 4.921875 11.285156 C 5.507812 11.511719 6.242188 11.632812 6.984375 11.652344 C 7.726562 11.671875 8.476562 11.59375 9.089844 11.410156 C 9.703125 11.222656 10.210938 10.945312 10.386719 10.441406 L 10.417969 10.359375 L 10.394531 10.28125 C 10.316406 9.996094 10.125 9.480469 9.871094 8.824219 C 9.613281 8.167969 9.296875 7.386719 8.984375 6.628906 C 8.671875 5.871094 8.359375 5.136719 8.113281 4.566406 C 7.992188 4.28125 7.882812 4.042969 7.800781 3.859375 C 7.71875 3.675781 7.667969 3.566406 7.625 3.488281 Z M 7.414062 4.113281 C 7.492188 4.289062 7.59375 4.511719 7.707031 4.777344 C 7.953125 5.34375 8.261719 6.078125 8.574219 6.835938 C 8.890625 7.589844 9.207031 8.371094 9.460938 9.019531 C 9.695312 9.625 9.859375 10.078125 9.929688 10.324219 C 9.808594 10.542969 9.476562 10.78125 8.972656 10.933594 C 8.417969 11.097656 7.703125 11.179688 6.996094 11.160156 C 6.292969 11.140625 5.59375 11.023438 5.074219 10.820312 C 4.597656 10.632812 4.3125 10.382812 4.234375 10.132812 C 4.308594 9.953125 4.507812 9.539062 4.792969 8.980469 C 5.09375 8.386719 5.480469 7.652344 5.867188 6.925781 C 6.253906 6.199219 6.644531 5.472656 6.960938 4.898438 C 7.183594 4.5 7.292969 4.316406 7.414062 4.113281 Z M 7.414062 4.113281 "/>
<path style="fill-rule:evenodd;fill:url(#linear1);stroke-width:3;stroke-linecap:round;stroke-linejoin:miter;stroke:rgb(34.901961%,22.745098%,15.686275%);stroke-opacity:1;stroke-miterlimit:20;" d="M 42.099461 68.038556 L 68.15382 20.887641 L 71.479076 23.205954 L 51.331937 72.603849 C 48.319646 73.95917 41.825617 71.605191 42.099461 68.038556 Z M 42.099461 68.038556 " transform="matrix(0.0998513,0,0,0.109522,3.186938,2.513125)"/>
<path style="fill-rule:evenodd;fill:rgb(100%,78.823529%,24.705882%);fill-opacity:1;stroke-width:1.4;stroke-linecap:round;stroke-linejoin:miter;stroke:rgb(34.901961%,22.745098%,15.686275%);stroke-opacity:1;stroke-miterlimit:20;" d="M 72.070982 24.829162 L 69.519572 21.207503 L 65.108176 21.631319 L 67.757266 18.07788 L 66.004562 14.016021 L 70.195922 15.441895 L 73.507645 12.514828 L 73.457476 16.942985 L 77.255192 19.204788 L 73.03441 20.509042 Z M 72.070982 24.829162 " transform="matrix(0.214098,0.00217949,-0.00198504,0.234674,-4.744247,-0.0619533)"/>
</g>
</svg>
