
<svg xmlns="http://www.w3.org/2000/svg" xmlns:xlink="http://www.w3.org/1999/xlink" width="16px" height="16px" viewBox="0 0 16 16" version="1.1">
<defs>
<clipPath id="clip1">
  <path d="M 2.332031 2.332031 L 12.667969 2.332031 L 12.667969 13.667969 L 2.332031 13.667969 Z M 2.332031 2.332031 "/>
</clipPath>
<clipPath id="clip2">
  <path d="M 3.246094 2.027344 L 13.453125 2.027344 C 13.921875 2.027344 14.304688 2.394531 14.304688 2.847656 L 14.304688 12.699219 C 14.304688 13.152344 13.921875 13.519531 13.453125 13.519531 L 3.246094 13.519531 C 2.777344 13.519531 2.394531 13.152344 2.394531 12.699219 L 2.394531 2.847656 C 2.394531 2.394531 2.777344 2.027344 3.246094 2.027344 Z M 3.246094 2.027344 "/>
</clipPath>
<clipPath id="clip3">
  <path d="M 2.332031 2.667969 L 12.667969 2.667969 L 12.667969 13.667969 L 2.332031 13.667969 Z M 2.332031 2.667969 "/>
</clipPath>
<clipPath id="clip4">
  <path d="M 3.246094 2.027344 L 13.453125 2.027344 C 13.921875 2.027344 14.304688 2.394531 14.304688 2.847656 L 14.304688 12.699219 C 14.304688 13.152344 13.921875 13.519531 13.453125 13.519531 L 3.246094 13.519531 C 2.777344 13.519531 2.394531 13.152344 2.394531 12.699219 L 2.394531 2.847656 C 2.394531 2.394531 2.777344 2.027344 3.246094 2.027344 Z M 3.246094 2.027344 "/>
</clipPath>
<clipPath id="clip5">
  <path d="M 2.332031 2.667969 L 12.332031 2.667969 L 12.332031 13.667969 L 2.332031 13.667969 Z M 2.332031 2.667969 "/>
</clipPath>
<clipPath id="clip6">
  <path d="M 3.246094 2.027344 L 13.453125 2.027344 C 13.921875 2.027344 14.304688 2.394531 14.304688 2.847656 L 14.304688 12.699219 C 14.304688 13.152344 13.921875 13.519531 13.453125 13.519531 L 3.246094 13.519531 C 2.777344 13.519531 2.394531 13.152344 2.394531 12.699219 L 2.394531 2.847656 C 2.394531 2.394531 2.777344 2.027344 3.246094 2.027344 Z M 3.246094 2.027344 "/>
</clipPath>
<clipPath id="clip7">
  <path d="M 2.332031 3 L 12.332031 3 L 12.332031 13.667969 L 2.332031 13.667969 Z M 2.332031 3 "/>
</clipPath>
<clipPath id="clip8">
  <path d="M 3.246094 2.027344 L 13.453125 2.027344 C 13.921875 2.027344 14.304688 2.394531 14.304688 2.847656 L 14.304688 12.699219 C 14.304688 13.152344 13.921875 13.519531 13.453125 13.519531 L 3.246094 13.519531 C 2.777344 13.519531 2.394531 13.152344 2.394531 12.699219 L 2.394531 2.847656 C 2.394531 2.394531 2.777344 2.027344 3.246094 2.027344 Z M 3.246094 2.027344 "/>
</clipPath>
</defs>
<g id="surface1">
<path style=" stroke:none;fill-rule:nonzero;fill:rgb(60.784314%,48.235294%,60.392157%);fill-opacity:1;" d="M 2.800781 2.320312 C -9.8125 18.96875 24.902344 21.335938 13.761719 4.339844 C 11.222656 0.464844 6.144531 -2.089844 2.800781 2.320312 Z M 2.800781 2.320312 "/>
<path style=" stroke:none;fill-rule:nonzero;fill:rgb(60.784314%,48.235294%,60.392157%);fill-opacity:1;" d="M 3.621094 2.65625 L 11.667969 2.65625 C 12.46875 2.65625 13.113281 3.28125 13.113281 4.050781 L 13.113281 12.121094 C 13.113281 12.890625 12.46875 13.515625 11.667969 13.515625 L 3.621094 13.515625 C 2.824219 13.515625 2.175781 12.890625 2.175781 12.121094 L 2.175781 4.050781 C 2.175781 3.28125 2.824219 2.65625 3.621094 2.65625 Z M 3.621094 2.65625 "/>
<g clip-path="url(#clip1)" clip-rule="nonzero">
<g clip-path="url(#clip2)" clip-rule="nonzero">
<path style=" stroke:none;fill-rule:nonzero;fill:rgb(100%,100%,100%);fill-opacity:0.0509804;" d="M 8.890625 2.648438 C 8.886719 2.648438 8.882812 2.648438 8.875 2.652344 C 8.875 2.652344 8.871094 2.652344 8.867188 2.652344 C 8.867188 2.652344 8.839844 2.660156 8.839844 2.660156 C 8.492188 2.71875 8.261719 2.949219 8.109375 3.203125 C 8.082031 3.15625 8.0625 3.101562 8.023438 3.0625 C 7.859375 2.90625 7.652344 2.8125 7.445312 2.78125 C 7.238281 2.746094 6.992188 2.765625 6.808594 2.929688 C 6.613281 3.101562 6.570312 3.382812 6.660156 3.65625 C 6.660156 3.65625 6.667969 3.667969 6.667969 3.667969 C 6.667969 3.667969 6.675781 3.6875 6.675781 3.6875 C 6.675781 3.6875 6.683594 3.699219 6.683594 3.699219 C 6.683594 3.699219 6.6875 3.714844 6.6875 3.714844 C 6.910156 4.085938 7.015625 4.496094 7.046875 4.929688 C 6.90625 5.089844 6.757812 5.277344 6.660156 5.511719 C 6.542969 5.796875 6.539062 6.171875 6.792969 6.460938 L 6.789062 6.460938 C 6.800781 6.480469 6.816406 6.496094 6.824219 6.511719 C 6.519531 6.710938 6.386719 7.023438 6.34375 7.296875 C 6.296875 7.597656 6.296875 7.878906 6.238281 8.035156 C 6.238281 8.035156 6.226562 8.0625 6.226562 8.058594 C 6.226562 8.0625 6.226562 8.0625 6.226562 8.066406 C 6.097656 8.554688 6.039062 8.917969 5.746094 9.183594 C 5.746094 9.1875 5.746094 9.1875 5.746094 9.1875 C 5.746094 9.1875 5.730469 9.203125 5.730469 9.203125 C 5.730469 9.203125 5.71875 9.214844 5.71875 9.214844 C 5.71875 9.214844 5.703125 9.226562 5.703125 9.226562 C 5.703125 9.226562 5.695312 9.246094 5.695312 9.246094 C 5.695312 9.246094 5.6875 9.257812 5.6875 9.257812 C 5.6875 9.257812 5.679688 9.273438 5.679688 9.273438 C 5.679688 9.273438 5.667969 9.292969 5.667969 9.292969 C 5.667969 9.292969 5.664062 9.308594 5.664062 9.308594 C 5.503906 9.765625 5.238281 10.210938 4.921875 10.507812 C 4.917969 10.507812 4.917969 10.507812 4.914062 10.511719 C 4.910156 10.515625 4.90625 10.519531 4.910156 10.515625 C 3.5 11.429688 2.109375 12.359375 0.636719 13.121094 C 0.636719 13.121094 0.609375 13.140625 0.609375 13.140625 C 0.609375 13.140625 0.582031 13.15625 0.582031 13.15625 C 0.582031 13.15625 0.554688 13.179688 0.554688 13.179688 C 0.554688 13.179688 0.539062 13.199219 0.539062 13.199219 C 0.539062 13.199219 0.515625 13.226562 0.515625 13.226562 C 0.515625 13.226562 0.503906 13.253906 0.503906 13.253906 C 0.503906 13.253906 0.488281 13.28125 0.488281 13.28125 C 0.488281 13.28125 0.480469 13.3125 0.480469 13.3125 C 0.480469 13.3125 0.472656 13.339844 0.472656 13.339844 C 0.472656 13.339844 0.46875 13.375 0.46875 13.375 C 0.46875 13.375 0.46875 13.40625 0.46875 13.40625 C 0.46875 13.40625 0.472656 13.433594 0.472656 13.433594 C 0.472656 13.433594 0.480469 13.464844 0.480469 13.464844 C 0.480469 13.464844 0.488281 13.496094 0.488281 13.496094 C 0.488281 13.496094 0.503906 13.523438 0.503906 13.523438 C 0.503906 13.523438 0.515625 13.550781 0.515625 13.550781 C 0.519531 13.550781 0.519531 13.554688 0.523438 13.554688 C 0.511719 13.539062 0.535156 13.59375 0.558594 13.652344 C 0.578125 13.714844 0.609375 13.792969 0.65625 13.871094 C 0.707031 13.960938 0.8125 14.082031 0.992188 14.105469 C 1.128906 14.125 1.246094 14.070312 1.335938 14.011719 C 1.320312 14.019531 1.324219 14.019531 1.351562 14.007812 C 2.800781 13.429688 4.117188 12.621094 5.394531 11.792969 C 5.363281 11.980469 5.359375 12.167969 5.378906 12.335938 C 5.414062 12.648438 5.46875 12.925781 5.4375 13.164062 C 5.4375 13.164062 5.4375 13.183594 5.4375 13.183594 C 5.4375 13.183594 5.433594 13.199219 5.433594 13.199219 C 5.433594 13.199219 5.4375 13.214844 5.4375 13.214844 C 5.4375 13.214844 5.4375 13.234375 5.4375 13.234375 C 5.46875 13.480469 5.566406 13.738281 5.75 13.945312 C 5.910156 14.121094 6.160156 14.226562 6.433594 14.230469 C 6.4375 14.230469 6.445312 14.234375 6.449219 14.234375 C 6.46875 14.242188 6.488281 14.25 6.511719 14.25 C 6.890625 14.273438 7.472656 14.421875 7.992188 14.121094 C 7.992188 14.121094 7.992188 14.121094 7.996094 14.121094 C 7.996094 14.121094 8.023438 14.101562 8.023438 14.101562 C 8.023438 14.101562 8.042969 14.082031 8.042969 14.082031 C 8.042969 14.082031 8.066406 14.058594 8.066406 14.058594 C 8.066406 14.058594 8.082031 14.042969 8.082031 14.039062 C 8.085938 14.039062 8.082031 14.035156 8.082031 14.035156 C 8.117188 13.988281 8.117188 13.933594 8.136719 13.882812 C 8.226562 13.992188 8.324219 14.09375 8.445312 14.175781 C 8.445312 14.175781 8.449219 14.179688 8.453125 14.179688 C 8.457031 14.183594 8.464844 14.1875 8.464844 14.1875 C 8.464844 14.1875 8.484375 14.195312 8.484375 14.195312 C 8.484375 14.195312 8.503906 14.210938 8.503906 14.210938 C 8.503906 14.210938 8.523438 14.21875 8.523438 14.21875 C 8.523438 14.21875 8.546875 14.222656 8.542969 14.222656 C 8.542969 14.222656 8.566406 14.230469 8.566406 14.230469 C 8.566406 14.230469 8.589844 14.234375 8.589844 14.234375 C 8.589844 14.234375 8.609375 14.234375 8.609375 14.234375 C 8.613281 14.234375 8.613281 14.234375 8.617188 14.234375 C 9.160156 14.261719 9.722656 14.25 10.257812 14.226562 C 10.257812 14.226562 10.28125 14.226562 10.28125 14.226562 C 10.28125 14.226562 10.304688 14.222656 10.304688 14.222656 C 10.304688 14.222656 10.324219 14.21875 10.324219 14.21875 C 10.324219 14.21875 10.347656 14.210938 10.347656 14.210938 C 10.488281 14.164062 10.601562 14.070312 10.660156 13.949219 C 10.722656 13.835938 10.726562 13.714844 10.714844 13.617188 C 10.691406 13.421875 10.609375 13.246094 10.476562 13.117188 C 10.476562 13.117188 10.472656 13.117188 10.472656 13.113281 C 10.472656 13.113281 10.453125 13.101562 10.453125 13.101562 C 10.453125 13.101562 10.441406 13.09375 10.441406 13.09375 C 10.441406 13.09375 10.421875 13.078125 10.421875 13.078125 C 10.421875 13.078125 10.417969 13.078125 10.414062 13.074219 C 10.347656 13.035156 10.324219 13.003906 10.304688 12.953125 C 10.28125 12.898438 10.269531 12.820312 10.269531 12.714844 C 10.265625 12.53125 10.300781 12.28125 10.277344 12.019531 C 10.277344 12.011719 10.277344 12.007812 10.277344 12.003906 C 10.277344 12.019531 10.277344 12.007812 10.277344 11.984375 C 10.277344 11.984375 10.277344 11.980469 10.277344 11.980469 C 10.277344 11.96875 10.277344 11.960938 10.277344 11.949219 C 10.335938 11.957031 10.394531 11.957031 10.453125 11.941406 C 10.558594 11.914062 10.609375 11.859375 10.664062 11.808594 C 10.8125 11.832031 10.96875 11.832031 11.105469 11.769531 C 11.285156 11.691406 11.410156 11.554688 11.5 11.425781 C 11.675781 11.171875 11.765625 10.882812 11.832031 10.746094 C 11.832031 10.742188 11.835938 10.738281 11.835938 10.734375 C 11.835938 10.734375 11.839844 10.734375 11.839844 10.730469 C 12.175781 10.328125 12.65625 9.773438 12.539062 9.074219 C 12.546875 9.117188 12.550781 9.113281 12.539062 9.0625 C 12.535156 9.03125 12.519531 9 12.496094 8.980469 C 12.496094 8.976562 12.492188 8.976562 12.492188 8.976562 C 12.425781 8.773438 12.269531 8.621094 12.070312 8.578125 C 11.953125 8.550781 11.824219 8.558594 11.703125 8.613281 C 11.601562 8.660156 11.535156 8.738281 11.484375 8.820312 C 11.472656 8.832031 11.464844 8.84375 11.457031 8.855469 C 11.441406 8.875 11.4375 8.886719 11.4375 8.886719 C 11.332031 9.050781 11.183594 9.289062 11.039062 9.480469 C 11.027344 9.492188 11.023438 9.496094 11.011719 9.507812 C 10.910156 9.117188 10.773438 8.742188 10.621094 8.414062 C 10.5625 7.863281 10.390625 7.371094 10.242188 6.898438 C 10.242188 6.898438 10.242188 6.894531 10.242188 6.894531 C 10.238281 6.886719 10.230469 6.871094 10.230469 6.871094 C 10.230469 6.871094 10.21875 6.84375 10.21875 6.84375 C 10.21875 6.84375 10.207031 6.816406 10.207031 6.816406 C 10.207031 6.816406 10.1875 6.792969 10.1875 6.796875 C 10.1875 6.792969 10.183594 6.792969 10.183594 6.789062 C 10.011719 6.585938 9.796875 6.386719 9.566406 6.238281 C 9.5625 6.144531 9.566406 6.039062 9.542969 5.90625 C 9.511719 5.746094 9.417969 5.589844 9.277344 5.460938 C 9.273438 5.460938 9.273438 5.457031 9.269531 5.457031 C 9.265625 5.4375 9.257812 5.421875 9.246094 5.410156 C 9.222656 5.382812 9.21875 5.382812 9.222656 5.328125 C 9.222656 5.277344 9.242188 5.191406 9.28125 5.097656 C 9.355469 4.902344 9.5 4.65625 9.554688 4.378906 C 9.554688 4.375 9.554688 4.371094 9.554688 4.367188 C 9.554688 4.367188 9.554688 4.347656 9.554688 4.347656 C 9.554688 4.347656 9.558594 4.332031 9.558594 4.332031 C 9.558594 4.332031 9.554688 4.3125 9.554688 4.3125 C 9.554688 4.316406 9.554688 4.308594 9.554688 4.304688 C 9.554688 4.304688 9.554688 4.296875 9.554688 4.296875 C 9.550781 4.183594 9.628906 3.914062 9.667969 3.632812 C 9.691406 3.492188 9.699219 3.328125 9.648438 3.160156 C 9.59375 2.984375 9.464844 2.824219 9.277344 2.71875 L 9.277344 2.722656 C 9.277344 2.722656 9.257812 2.710938 9.257812 2.710938 C 9.257812 2.710938 9.238281 2.703125 9.238281 2.703125 C 9.136719 2.660156 9.019531 2.640625 8.902344 2.648438 C 8.898438 2.644531 8.894531 2.644531 8.890625 2.648438 Z M 8.890625 2.648438 "/>
</g>
</g>
<g clip-path="url(#clip3)" clip-rule="nonzero">
<g clip-path="url(#clip4)" clip-rule="nonzero">
<path style=" stroke:none;fill-rule:nonzero;fill:rgb(100%,100%,100%);fill-opacity:0.0509804;" d="M 8.914062 2.800781 C 8.90625 2.800781 8.902344 2.804688 8.898438 2.804688 C 8.527344 2.855469 8.289062 3.109375 8.164062 3.390625 C 8.128906 3.46875 8.113281 3.554688 8.09375 3.640625 C 8.09375 3.636719 8.089844 3.640625 8.089844 3.640625 C 8.089844 3.457031 8.023438 3.289062 7.90625 3.171875 C 7.773438 3.042969 7.597656 2.960938 7.417969 2.933594 C 7.242188 2.90625 7.054688 2.921875 6.917969 3.042969 C 6.78125 3.167969 6.742188 3.375 6.816406 3.609375 C 6.820312 3.621094 6.824219 3.628906 6.832031 3.640625 C 7.074219 4.046875 7.1875 4.5 7.214844 4.972656 C 7.070312 5.132812 6.90625 5.335938 6.8125 5.566406 C 6.707031 5.828125 6.695312 6.152344 6.9375 6.394531 C 6.96875 6.460938 7.003906 6.519531 7.046875 6.558594 C 7.042969 6.5625 7.042969 6.5625 7.039062 6.5625 C 6.675781 6.71875 6.546875 7.03125 6.503906 7.316406 C 6.457031 7.601562 6.464844 7.886719 6.386719 8.089844 C 6.386719 8.09375 6.382812 8.097656 6.382812 8.101562 C 6.253906 8.585938 6.195312 8.992188 5.855469 9.300781 C 5.839844 9.316406 5.824219 9.335938 5.816406 9.359375 C 5.648438 9.839844 5.371094 10.304688 5.027344 10.621094 C 5.027344 10.625 5.023438 10.625 5.023438 10.625 C 3.605469 11.542969 2.207031 12.484375 0.710938 13.261719 C 0.675781 13.28125 0.648438 13.3125 0.636719 13.351562 C 0.625 13.390625 0.632812 13.433594 0.65625 13.46875 C 0.6875 13.519531 0.722656 13.664062 0.796875 13.792969 C 0.832031 13.859375 0.902344 13.9375 1.011719 13.953125 C 1.109375 13.964844 1.191406 13.925781 1.273438 13.867188 C 1.277344 13.867188 1.285156 13.863281 1.289062 13.863281 C 2.859375 13.238281 4.28125 12.34375 5.667969 11.4375 C 5.515625 11.738281 5.503906 12.039062 5.535156 12.320312 C 5.570312 12.625 5.632812 12.910156 5.597656 13.183594 C 5.597656 13.195312 5.597656 13.207031 5.597656 13.21875 C 5.621094 13.4375 5.714844 13.664062 5.875 13.84375 C 6.023438 14.011719 6.257812 14.121094 6.519531 14.09375 L 6.519531 14.097656 C 6.925781 14.121094 7.457031 14.253906 7.90625 13.992188 C 7.925781 13.980469 7.941406 13.964844 7.953125 13.949219 C 8.082031 13.773438 8.066406 13.566406 8.003906 13.386719 C 8.121094 13.648438 8.292969 13.882812 8.546875 14.050781 C 8.566406 14.070312 8.597656 14.078125 8.625 14.082031 C 9.164062 14.105469 9.714844 14.09375 10.25 14.074219 C 10.265625 14.070312 10.28125 14.070312 10.296875 14.0625 C 10.394531 14.03125 10.476562 13.960938 10.515625 13.878906 C 10.558594 13.800781 10.566406 13.710938 10.554688 13.632812 C 10.539062 13.472656 10.46875 13.332031 10.363281 13.230469 C 10.351562 13.222656 10.339844 13.214844 10.332031 13.207031 C 10.148438 13.097656 10.113281 12.945312 10.109375 12.722656 C 10.105469 12.511719 10.144531 12.261719 10.117188 12.019531 C 10.117188 12.011719 10.117188 12.007812 10.117188 12 C 10.117188 11.988281 10.117188 11.980469 10.117188 11.972656 C 10.125 11.898438 10.121094 11.824219 10.113281 11.746094 C 10.113281 11.746094 10.113281 11.742188 10.113281 11.742188 C 10.210938 11.792969 10.316406 11.820312 10.410156 11.792969 C 10.496094 11.769531 10.554688 11.707031 10.617188 11.652344 C 10.773438 11.6875 10.917969 11.683594 11.039062 11.632812 C 11.179688 11.570312 11.285156 11.457031 11.367188 11.339844 C 11.527344 11.109375 11.613281 10.828125 11.691406 10.667969 C 11.691406 10.667969 11.695312 10.667969 11.695312 10.664062 C 12.03125 10.253906 12.488281 9.734375 12.382812 9.101562 C 12.382812 9.09375 12.382812 9.089844 12.382812 9.085938 L 12.378906 9.085938 C 12.351562 8.898438 12.203125 8.761719 12.035156 8.726562 C 11.949219 8.710938 11.855469 8.714844 11.769531 8.753906 C 11.695312 8.785156 11.636719 8.859375 11.597656 8.941406 L 11.59375 8.9375 C 11.589844 8.945312 11.578125 8.957031 11.574219 8.964844 C 11.472656 9.128906 11.320312 9.375 11.167969 9.574219 C 11.085938 9.679688 11.003906 9.765625 10.941406 9.816406 C 10.933594 9.824219 10.9375 9.816406 10.933594 9.820312 C 10.835938 9.328125 10.652344 8.867188 10.46875 8.460938 C 10.410156 7.917969 10.238281 7.425781 10.085938 6.941406 C 10.082031 6.921875 10.070312 6.902344 10.058594 6.886719 C 9.875 6.671875 9.648438 6.453125 9.414062 6.320312 C 9.40625 6.203125 9.410156 6.074219 9.382812 5.929688 C 9.355469 5.78125 9.269531 5.621094 9.117188 5.511719 L 9.121094 5.507812 C 9.074219 5.453125 9.0625 5.402344 9.0625 5.324219 C 9.066406 5.246094 9.089844 5.148438 9.128906 5.042969 C 9.210938 4.828125 9.351562 4.589844 9.394531 4.347656 C 9.398438 4.335938 9.398438 4.324219 9.394531 4.3125 C 9.382812 4.140625 9.472656 3.878906 9.511719 3.613281 C 9.53125 3.480469 9.535156 3.34375 9.492188 3.207031 C 9.449219 3.070312 9.351562 2.941406 9.195312 2.855469 C 9.191406 2.851562 9.183594 2.851562 9.179688 2.847656 C 9.09375 2.8125 9.003906 2.796875 8.914062 2.800781 Z M 7.824219 12.746094 C 7.859375 12.933594 7.902344 13.125 7.976562 13.3125 C 7.902344 13.140625 7.792969 12.992188 7.695312 12.878906 C 7.714844 12.851562 7.746094 12.8125 7.792969 12.773438 C 7.804688 12.761719 7.808594 12.757812 7.824219 12.746094 Z M 7.824219 12.746094 "/>
</g>
</g>
<g clip-path="url(#clip5)" clip-rule="nonzero">
<g clip-path="url(#clip6)" clip-rule="nonzero">
<path style=" stroke:none;fill-rule:nonzero;fill:rgb(100%,100%,100%);fill-opacity:0.0509804;" d="M 8.921875 2.949219 C 8.292969 3.035156 8.15625 3.753906 8.148438 4.261719 C 8.101562 4.617188 8.09375 3.785156 7.945312 3.691406 C 8.046875 3.027344 6.699219 2.765625 6.960938 3.566406 C 7.226562 4.011719 7.359375 4.503906 7.378906 5.011719 C 7.074219 5.332031 6.65625 5.898438 7.046875 6.289062 C 7.109375 6.535156 7.546875 6.589844 7.097656 6.699219 C 6.476562 6.964844 6.714844 7.65625 6.527344 8.140625 C 6.402344 8.613281 6.34375 9.058594 5.960938 9.40625 C 5.785156 9.90625 5.496094 10.390625 5.128906 10.730469 C 3.703125 11.652344 2.292969 12.601562 0.78125 13.386719 C 0.90625 13.570312 0.902344 13.976562 1.214844 13.726562 C 2.785156 13.101562 4.21875 12.203125 5.625 11.289062 C 5.867188 11.203125 6.023438 11.105469 5.824219 11.433594 C 5.476562 12.011719 5.824219 12.585938 5.746094 13.199219 C 5.789062 13.578125 6.082031 14.023438 6.527344 13.953125 C 6.949219 13.980469 7.445312 14.082031 7.824219 13.863281 C 8.039062 13.574219 7.761719 13.171875 7.5625 12.941406 C 7.375 12.855469 7.96875 12.40625 7.925781 12.558594 C 8.003906 13.058594 8.183594 13.628906 8.632812 13.929688 C 9.164062 13.953125 9.714844 13.945312 10.246094 13.921875 C 10.511719 13.832031 10.398438 13.476562 10.246094 13.332031 C 9.777344 13.046875 10.03125 12.441406 9.964844 11.992188 C 10.007812 11.765625 9.773438 11.082031 10.121094 11.582031 C 10.261719 11.734375 10.484375 11.636719 10.589844 11.496094 C 11.203125 11.703125 11.378906 10.953125 11.554688 10.597656 C 11.898438 10.179688 12.332031 9.679688 12.230469 9.109375 C 12.207031 8.855469 11.8125 8.761719 11.71875 9.011719 C 11.515625 9.332031 11.070312 10.085938 10.824219 10.011719 C 10.75 9.476562 10.527344 8.972656 10.324219 8.519531 C 10.273438 7.980469 10.097656 7.488281 9.9375 6.984375 C 9.742188 6.753906 9.484375 6.507812 9.265625 6.402344 C 9.234375 6.121094 9.285156 5.757812 9 5.601562 C 8.714844 5.269531 9.167969 4.730469 9.242188 4.324219 C 9.214844 3.882812 9.617188 3.261719 9.121094 2.984375 C 9.058594 2.960938 8.988281 2.949219 8.921875 2.949219 Z M 9.878906 10.03125 C 10.152344 10.136719 10.15625 10.839844 10.023438 10.734375 C 10.089844 10.5 9.90625 10.261719 9.878906 10.03125 Z M 9.878906 10.03125 "/>
</g>
</g>
<g clip-path="url(#clip7)" clip-rule="nonzero">
<g clip-path="url(#clip8)" clip-rule="nonzero">
<path style=" stroke:none;fill-rule:nonzero;fill:rgb(100%,100%,100%);fill-opacity:0.0509804;" d="M 8.925781 3.078125 C 8.804688 3.082031 8.683594 3.140625 8.585938 3.253906 C 8.269531 3.609375 8.308594 4.074219 8.261719 4.445312 C 8.230469 4.484375 8.199219 4.523438 8.179688 4.566406 C 8.15625 4.628906 8.140625 4.695312 8.125 4.746094 C 8.113281 4.78125 8.101562 4.789062 8.09375 4.804688 C 8.023438 4.671875 7.996094 4.515625 7.976562 4.339844 C 7.957031 4.144531 7.941406 3.925781 7.816406 3.726562 C 7.8125 3.457031 7.613281 3.261719 7.421875 3.195312 C 7.324219 3.160156 7.203125 3.148438 7.117188 3.230469 C 7.074219 3.269531 7.054688 3.328125 7.054688 3.386719 C 7.058594 3.445312 7.074219 3.503906 7.109375 3.570312 C 7.316406 3.96875 7.480469 4.335938 7.472656 4.671875 C 7.46875 4.777344 7.476562 4.84375 7.488281 4.898438 C 7.5 4.945312 7.507812 4.992188 7.515625 5.046875 C 7.335938 5.25 7.21875 5.382812 7.148438 5.523438 C 7.050781 5.722656 7.007812 5.867188 7.015625 5.992188 C 7.023438 6.089844 7.078125 6.164062 7.148438 6.214844 C 7.175781 6.273438 7.203125 6.335938 7.265625 6.390625 C 7.3125 6.433594 7.394531 6.449219 7.472656 6.464844 C 7.460938 6.523438 7.464844 6.59375 7.464844 6.675781 C 7.222656 6.746094 7.019531 6.863281 6.890625 7.035156 C 6.757812 7.21875 6.710938 7.453125 6.761719 7.714844 C 6.765625 7.714844 6.761719 7.714844 6.761719 7.71875 C 6.746094 8.085938 6.535156 8.382812 6.503906 8.816406 C 6.488281 8.992188 6.429688 9.050781 6.34375 9.136719 C 6.253906 9.222656 6.125 9.328125 6.050781 9.53125 C 5.902344 9.929688 5.765625 10.15625 5.65625 10.308594 C 5.601562 10.386719 5.554688 10.441406 5.519531 10.5 C 5.496094 10.535156 5.492188 10.582031 5.480469 10.621094 C 5.421875 10.632812 5.363281 10.636719 5.324219 10.671875 C 5.289062 10.707031 5.273438 10.753906 5.265625 10.796875 C 5.042969 10.941406 4.246094 11.464844 3.335938 12.039062 C 2.40625 12.625 1.382812 13.246094 0.839844 13.503906 C 0.785156 13.523438 0.757812 13.585938 0.78125 13.640625 C 0.804688 13.691406 0.871094 13.71875 0.925781 13.695312 C 2.601562 13.144531 5.320312 11.339844 5.550781 11.183594 C 5.601562 11.195312 5.65625 11.1875 5.703125 11.15625 C 5.746094 11.125 5.773438 11.082031 5.789062 11.03125 C 5.851562 11.046875 5.917969 11.074219 5.976562 11.066406 C 6.027344 11.058594 6.058594 11.023438 6.097656 11 C 6.105469 11.03125 6.109375 11.054688 6.125 11.082031 C 5.980469 11.359375 5.859375 11.625 5.808594 11.859375 C 5.777344 11.984375 5.765625 12.101562 5.785156 12.207031 C 5.796875 12.289062 5.839844 12.359375 5.898438 12.421875 C 5.863281 12.683594 5.839844 12.949219 5.878906 13.183594 C 5.917969 13.429688 6.023438 13.65625 6.238281 13.789062 C 6.253906 13.800781 6.269531 13.804688 6.289062 13.804688 C 6.714844 13.824219 7.269531 13.9375 7.695312 13.796875 C 7.734375 13.785156 7.761719 13.746094 7.765625 13.703125 C 7.777344 13.472656 7.660156 13.273438 7.546875 13.125 C 7.492188 13.050781 7.433594 12.992188 7.386719 12.941406 C 7.34375 12.894531 7.316406 12.84375 7.320312 12.855469 L 7.316406 12.855469 C 7.3125 12.871094 7.316406 12.859375 7.347656 12.824219 C 7.410156 12.753906 7.421875 12.730469 7.46875 12.671875 C 7.480469 12.667969 7.5 12.675781 7.511719 12.667969 C 7.550781 12.652344 7.582031 12.632812 7.613281 12.605469 C 7.679688 12.550781 7.746094 12.472656 7.808594 12.394531 C 7.878906 12.3125 7.929688 12.242188 7.992188 12.160156 C 8.039062 12.699219 8.136719 13.3125 8.636719 13.785156 C 8.65625 13.804688 8.683594 13.816406 8.714844 13.816406 C 9.101562 13.816406 9.785156 13.804688 10.171875 13.804688 C 10.203125 13.804688 10.230469 13.792969 10.253906 13.769531 C 10.273438 13.746094 10.28125 13.714844 10.277344 13.6875 C 10.246094 13.503906 10.132812 13.375 10.035156 13.292969 C 9.984375 13.25 9.933594 13.214844 9.894531 13.191406 C 9.871094 13.171875 9.871094 13.171875 9.859375 13.164062 C 9.820312 12.800781 9.828125 12.429688 9.835938 12.089844 C 9.839844 11.78125 9.832031 11.515625 9.78125 11.296875 C 9.835938 11.296875 9.882812 11.253906 9.886719 11.203125 C 9.890625 11.160156 9.882812 11.125 9.875 11.089844 C 9.90625 11.089844 9.9375 11.070312 9.953125 11.042969 C 9.972656 11.015625 9.976562 10.984375 9.96875 10.953125 C 9.9375 10.867188 9.890625 10.796875 9.851562 10.730469 C 9.898438 10.710938 9.925781 10.65625 9.910156 10.609375 C 9.8125 10.289062 9.710938 10.035156 9.648438 9.695312 C 9.644531 9.679688 9.640625 9.667969 9.628906 9.652344 C 9.5 9.472656 9.453125 9.324219 9.457031 9.175781 C 9.460938 9.042969 9.503906 8.90625 9.574219 8.75 C 9.582031 8.773438 9.585938 8.773438 9.59375 8.804688 C 9.640625 8.953125 9.675781 9.183594 9.679688 9.234375 C 9.679688 9.234375 9.679688 9.238281 9.679688 9.238281 C 9.710938 9.667969 10.054688 10.027344 10.226562 10.308594 C 10.230469 10.308594 10.226562 10.3125 10.226562 10.3125 C 10.25 10.375 10.246094 10.449219 10.234375 10.542969 C 10.222656 10.621094 10.210938 10.71875 10.214844 10.8125 C 10.15625 10.890625 10.128906 10.917969 10.007812 11.027344 C 9.988281 11.046875 9.976562 11.070312 9.976562 11.097656 C 9.972656 11.199219 10.019531 11.269531 10.074219 11.34375 C 10.125 11.414062 10.183594 11.476562 10.253906 11.519531 C 10.296875 11.542969 10.347656 11.535156 10.382812 11.503906 C 10.457031 11.445312 10.507812 11.402344 10.578125 11.34375 C 10.613281 11.367188 10.636719 11.394531 10.6875 11.410156 C 10.734375 11.425781 10.792969 11.429688 10.847656 11.402344 C 10.875 11.390625 10.886719 11.359375 10.90625 11.339844 C 10.925781 11.339844 10.949219 11.347656 10.972656 11.34375 C 11.015625 11.335938 11.070312 11.304688 11.097656 11.265625 C 11.128906 11.222656 11.136719 11.179688 11.140625 11.132812 C 11.160156 11.128906 11.183594 11.132812 11.199219 11.121094 C 11.261719 11.074219 11.269531 11.015625 11.277344 10.960938 C 11.289062 10.878906 11.269531 10.796875 11.25 10.71875 C 11.472656 10.527344 11.726562 10.21875 11.90625 9.90625 C 12.003906 9.738281 12.078125 9.574219 12.109375 9.421875 C 12.144531 9.269531 12.132812 9.121094 12.023438 9.015625 C 11.996094 8.992188 11.957031 8.980469 11.921875 8.988281 C 11.886719 8.996094 11.859375 9.023438 11.84375 9.054688 C 11.792969 9.203125 11.589844 9.484375 11.371094 9.746094 C 11.179688 9.980469 10.988281 10.175781 10.851562 10.320312 C 10.847656 10.316406 10.832031 10.296875 10.824219 10.289062 C 10.8125 10.273438 10.789062 10.246094 10.746094 10.1875 C 10.636719 9.878906 10.585938 9.578125 10.527344 9.328125 C 10.5 9.203125 10.472656 9.089844 10.425781 8.996094 C 10.390625 8.914062 10.332031 8.847656 10.257812 8.796875 C 10.214844 8.742188 10.199219 8.691406 10.191406 8.628906 C 10.1875 8.5625 10.191406 8.480469 10.191406 8.382812 C 10.191406 8.203125 10.148438 7.964844 9.941406 7.691406 C 9.984375 7.4375 9.953125 7.25 9.882812 7.125 C 9.816406 7.007812 9.726562 6.949219 9.664062 6.917969 C 9.617188 6.765625 9.511719 6.660156 9.394531 6.617188 C 9.296875 6.582031 9.226562 6.589844 9.152344 6.59375 C 9.136719 6.519531 9.117188 6.453125 9.136719 6.246094 C 9.140625 6.203125 9.121094 6.164062 9.082031 6.144531 C 9.078125 6.136719 9.074219 6.117188 9.074219 6.089844 C 9.074219 6.039062 9.085938 5.972656 9.085938 5.902344 C 9.082031 5.867188 9.078125 5.828125 9.054688 5.792969 C 9.03125 5.753906 8.992188 5.730469 8.957031 5.71875 C 8.914062 5.703125 8.855469 5.707031 8.804688 5.707031 C 8.8125 5.554688 8.800781 5.40625 8.761719 5.265625 C 8.832031 5.082031 8.855469 4.933594 8.96875 4.691406 C 9.105469 4.40625 9.230469 4.027344 9.167969 3.640625 C 9.253906 3.503906 9.28125 3.371094 9.234375 3.261719 C 9.1875 3.140625 9.054688 3.070312 8.925781 3.078125 Z M 7.113281 8.96875 C 7.109375 9 7.09375 9.03125 7.09375 9.054688 C 7.097656 9.085938 7.105469 9.113281 7.121094 9.140625 C 7.125 9.148438 7.140625 9.15625 7.148438 9.164062 L 7.144531 9.164062 C 7.144531 9.164062 7.144531 9.164062 7.144531 9.167969 C 7.121094 9.191406 7.066406 9.238281 6.992188 9.316406 C 6.996094 9.296875 7.011719 9.269531 7.011719 9.253906 C 7.011719 9.203125 7 9.179688 7.003906 9.160156 C 7.003906 9.132812 7.039062 9.066406 7.113281 8.96875 Z M 6.773438 9.652344 C 6.769531 9.660156 6.777344 9.671875 6.777344 9.683594 L 6.507812 9.898438 C 6.523438 9.878906 6.535156 9.859375 6.554688 9.84375 C 6.621094 9.78125 6.699219 9.71875 6.773438 9.652344 Z M 6.375 10.515625 C 6.363281 10.542969 6.363281 10.589844 6.367188 10.613281 C 6.371094 10.625 6.371094 10.621094 6.375 10.625 C 6.351562 10.636719 6.339844 10.652344 6.320312 10.664062 C 6.324219 10.625 6.324219 10.589844 6.320312 10.554688 C 6.332031 10.542969 6.359375 10.527344 6.375 10.515625 Z M 6.375 10.515625 "/>
<path style=" stroke:none;fill-rule:nonzero;fill:rgb(0%,0%,0%);fill-opacity:1;" d="M 8.929688 3.179688 C 8.847656 3.183594 8.75 3.226562 8.667969 3.324219 C 8.382812 3.644531 8.417969 4.082031 8.367188 4.472656 C 8.21875 4.582031 8.25 5.027344 8.03125 4.929688 C 7.796875 4.582031 7.945312 4.121094 7.714844 3.761719 C 7.746094 3.28125 6.96875 3.070312 7.203125 3.523438 C 7.410156 3.925781 7.585938 4.304688 7.578125 4.675781 C 7.570312 4.867188 7.613281 4.890625 7.632812 5.074219 C 7.425781 5.308594 7.3125 5.433594 7.25 5.566406 C 7.0625 5.949219 7.109375 6.097656 7.242188 6.160156 C 7.296875 6.285156 7.339844 6.375 7.570312 6.390625 C 7.6875 6.394531 7.683594 6.445312 7.578125 6.464844 C 7.558594 6.539062 7.570312 6.589844 7.566406 6.746094 C 7.042969 6.875 6.757812 7.226562 6.871094 7.71875 C 6.851562 8.121094 6.636719 8.421875 6.605469 8.824219 C 6.574219 9.222656 6.285156 9.203125 6.152344 9.566406 C 5.851562 10.378906 5.5625 10.507812 5.558594 10.699219 C 5.40625 10.703125 5.355469 10.773438 5.367188 10.855469 C 4.964844 11.121094 1.996094 13.074219 0.890625 13.597656 C 2.550781 13.050781 5.355469 11.1875 5.527344 11.074219 C 5.605469 11.113281 5.691406 11.085938 5.707031 10.910156 C 6.09375 11.101562 6.265625 10.757812 6.210938 10.507812 C 6.347656 10.382812 6.730469 10.097656 6.820312 10.007812 C 6.777344 10.082031 6.679688 10.261719 6.589844 10.378906 C 6.554688 10.425781 6.527344 10.460938 6.507812 10.492188 C 6.4375 10.597656 6.488281 10.5625 6.492188 10.671875 C 6.121094 10.867188 6.164062 11.019531 6.246094 11.085938 C 5.9375 11.664062 5.746094 12.207031 6.007812 12.386719 C 5.925781 12.9375 5.933594 13.476562 6.292969 13.703125 C 6.730469 13.722656 7.28125 13.824219 7.660156 13.699219 C 7.679688 13.308594 7.261719 12.996094 7.21875 12.894531 C 7.207031 12.839844 7.195312 12.835938 7.265625 12.753906 C 7.335938 12.675781 7.335938 12.667969 7.40625 12.582031 C 7.550781 12.628906 7.890625 12.101562 8.078125 11.878906 C 8.125 12.46875 8.160156 13.191406 8.710938 13.714844 C 9.097656 13.714844 9.785156 13.703125 10.171875 13.703125 C 10.117188 13.394531 9.8125 13.285156 9.753906 13.210938 C 9.660156 12.441406 9.800781 11.644531 9.667969 11.238281 C 9.695312 11.214844 9.71875 11.1875 9.78125 11.195312 C 9.796875 11 9.601562 10.921875 9.863281 10.988281 C 9.800781 10.808594 9.546875 10.515625 9.808594 10.640625 C 9.714844 10.328125 9.605469 10.0625 9.539062 9.714844 C 9.261719 9.324219 9.324219 9.019531 9.5 8.644531 C 9.652344 8.363281 9.78125 9.078125 9.785156 9.230469 C 9.816406 9.613281 10.148438 9.976562 10.328125 10.273438 C 10.390625 10.453125 10.292969 10.660156 10.316406 10.863281 C 10.246094 10.957031 10.210938 10.988281 10.082031 11.105469 C 10.078125 11.199219 10.21875 11.371094 10.3125 11.429688 C 10.417969 11.339844 10.433594 11.351562 10.570312 11.214844 C 10.648438 11.285156 10.796875 11.398438 10.867188 11.230469 C 11.019531 11.261719 11.035156 11.210938 11.042969 11.019531 C 11.203125 11.136719 11.191406 10.828125 11.140625 10.683594 C 11.566406 10.332031 12.238281 9.363281 11.945312 9.089844 C 11.816406 9.449219 11.121094 10.199219 10.855469 10.476562 C 10.730469 10.335938 10.757812 10.398438 10.648438 10.238281 C 10.410156 9.589844 10.445312 8.984375 10.171875 8.863281 C 9.941406 8.566406 10.289062 8.269531 9.832031 7.714844 C 9.941406 7.191406 9.691406 7.046875 9.589844 6.996094 C 9.546875 6.675781 9.183594 6.671875 9.058594 6.683594 C 9.046875 6.578125 9.003906 6.519531 9.03125 6.238281 C 8.929688 6.191406 8.984375 6.007812 8.980469 5.910156 C 8.976562 5.8125 8.917969 5.804688 8.703125 5.804688 C 8.722656 5.609375 8.707031 5.421875 8.652344 5.253906 C 8.726562 5.070312 8.746094 4.910156 8.871094 4.652344 C 9.007812 4.367188 9.125 3.988281 9.058594 3.625 C 9.246094 3.359375 9.117188 3.171875 8.933594 3.179688 Z M 7.183594 8.730469 C 7.167969 8.851562 7.230469 8.921875 7.230469 8.921875 C 7.179688 9.003906 7.203125 9.109375 7.242188 9.117188 C 7.265625 9.160156 7.253906 9.207031 7.253906 9.207031 C 7.253906 9.207031 6.816406 9.585938 6.886719 9.730469 L 6.210938 10.265625 C 6.246094 9.8125 6.675781 9.683594 6.863281 9.375 C 6.988281 9.171875 6.707031 9.199219 7.183594 8.730469 Z M 7.183594 8.730469 "/>
</g>
</g>
</g>
</svg>
