
<svg xmlns="http://www.w3.org/2000/svg" xmlns:xlink="http://www.w3.org/1999/xlink" width="16px" height="16px" viewBox="0 0 16 16" version="1.1">
<g id="surface1">
<path style=" stroke:none;fill-rule:nonzero;fill:rgb(60.392157%,80.392157%,19.607843%);fill-opacity:1;" d="M 15.796875 6.167969 C 12.671875 -8.824219 -8.820312 7.273438 4.089844 14.894531 C 9.105469 18.160156 17.402344 13.882812 15.796875 6.167969 Z M 15.796875 6.167969 "/>
<path style=" stroke:none;fill-rule:nonzero;fill:rgb(100%,100%,100%);fill-opacity:1;" d="M 8.195312 4.519531 C 6.863281 4.519531 5.78125 5.898438 5.78125 7.589844 C 5.78125 9.210938 7.960938 12.28125 8.054688 12.46875 C 8.085938 12.53125 8.140625 12.566406 8.195312 12.566406 C 8.253906 12.566406 8.308594 12.53125 8.335938 12.46875 C 8.429688 12.28125 10.609375 9.210938 10.609375 7.589844 C 10.609375 5.902344 9.527344 4.519531 8.195312 4.519531 Z M 8.195312 4.519531 "/>
<path style=" stroke:none;fill-rule:nonzero;fill:rgb(60.392157%,80.392157%,19.607843%);fill-opacity:1;" d="M 8.96875 6.726562 C 8.96875 7.007812 8.828125 7.269531 8.597656 7.410156 C 8.363281 7.550781 8.078125 7.550781 7.84375 7.410156 C 7.613281 7.269531 7.46875 7.007812 7.472656 6.726562 C 7.46875 6.445312 7.613281 6.1875 7.84375 6.046875 C 8.078125 5.902344 8.363281 5.902344 8.597656 6.046875 C 8.828125 6.1875 8.96875 6.445312 8.96875 6.726562 Z M 8.96875 6.726562 "/>
</g>
</svg>
