
<svg xmlns="http://www.w3.org/2000/svg" xmlns:xlink="http://www.w3.org/1999/xlink" width="16px" height="16px" viewBox="0 0 16 16" version="1.1">
<g id="surface1">
<path style=" stroke:none;fill-rule:nonzero;fill:rgb(14.509804%,12.941176%,29.411765%);fill-opacity:1;" d="M 3.761719 1.648438 C 11.945312 -4.105469 20.234375 6.519531 13.566406 13.296875 C 7.285156 19.683594 -2.476562 13.765625 0.578125 5.816406 C 1.210938 4.160156 2.257812 2.703125 3.761719 1.648438 Z M 3.761719 1.648438 "/>
<path style=" stroke:none;fill-rule:nonzero;fill:rgb(14.509804%,12.941176%,29.411765%);fill-opacity:1;" d="M 3.191406 3.480469 L 13.304688 3.480469 L 13.304688 12.53125 L 3.191406 12.53125 Z M 3.191406 3.480469 "/>
<path style=" stroke:none;fill-rule:nonzero;fill:rgb(14.509804%,12.941176%,29.411765%);fill-opacity:0.0509804;" d="M 6.90625 6.410156 C 6.613281 6.355469 6.46875 6.6875 6.21875 6.640625 C 5.902344 6.613281 5.828125 6.941406 5.59375 6.996094 C 5.234375 7.09375 5.117188 7.554688 5.421875 7.765625 C 5.710938 8.003906 6.21875 7.984375 6.46875 7.707031 C 6.757812 7.710938 6.910156 7.988281 7.238281 7.9375 C 7.546875 7.957031 7.703125 7.625 8.015625 7.765625 C 8.289062 7.832031 8.679688 7.738281 8.753906 7.46875 C 8.769531 7.324219 8.578125 7.207031 8.433594 7.277344 C 8.246094 7.230469 8.207031 6.855469 7.925781 6.824219 C 7.691406 6.855469 7.535156 6.808594 7.429688 6.605469 C 7.292969 6.480469 7.101562 6.40625 6.90625 6.410156 Z M 7.675781 7.035156 C 7.933594 7.101562 7.589844 7.113281 7.609375 7.058594 C 7.628906 7.042969 7.652344 7.039062 7.675781 7.035156 Z M 10.535156 8.359375 C 10.238281 8.339844 10.105469 8.671875 9.8125 8.523438 C 9.414062 8.492188 9.238281 8.832031 8.859375 8.835938 C 8.453125 8.925781 8.492188 9.476562 8.910156 9.511719 C 8.890625 9.804688 9.265625 9.84375 9.484375 9.925781 C 9.734375 10.101562 10.09375 10.074219 10.359375 10.082031 C 10.613281 10.3125 11.082031 10.195312 11.199219 9.898438 C 11.472656 9.800781 11.792969 9.824219 12.046875 9.675781 C 12.207031 9.636719 12.324219 9.460938 12.207031 9.335938 C 12.070312 9.171875 11.835938 9.347656 11.671875 9.277344 C 11.558594 9.117188 11.464844 8.925781 11.242188 8.871094 C 11.078125 8.679688 10.941406 8.328125 10.535156 8.359375 Z M 8.40625 9.875 C 8.136719 9.980469 7.773438 9.808594 7.585938 10.101562 C 7.3125 10.167969 7.089844 10.496094 7.332031 10.722656 C 7.550781 10.96875 7.949219 10.96875 8.246094 10.886719 C 8.5 10.957031 8.777344 11.035156 9 10.855469 C 9.230469 10.800781 9.449219 10.730469 9.644531 10.601562 C 9.835938 10.339844 9.449219 10.132812 9.191406 10.117188 C 8.917969 10.082031 8.71875 9.832031 8.40625 9.875 Z M 8.40625 9.875 "/>
<path style=" stroke:none;fill-rule:nonzero;fill:rgb(100%,100%,100%);fill-opacity:1;" d="M 4.28125 3.65625 L 5.457031 3.65625 L 6.941406 8.945312 L 8.441406 3.65625 L 9.613281 3.65625 L 9.613281 11.429688 L 8.847656 11.429688 L 8.847656 4.601562 L 7.34375 9.9375 L 6.550781 9.9375 L 5.046875 4.601562 L 5.046875 11.429688 L 4.28125 11.429688 Z M 4.28125 3.65625 "/>
<path style="fill:none;stroke-width:2.1;stroke-linecap:butt;stroke-linejoin:miter;stroke:rgb(100%,100%,100%);stroke-opacity:1;stroke-miterlimit:4;" d="M 86.660022 42.624491 L 64.660981 42.624491 L 81.022565 65.376094 L 65.049771 88.855748 L 86.854417 88.855748 " transform="matrix(0.120566,0,0,0.107307,2.469688,2.8675)"/>
</g>
</svg>
