
<svg xmlns="http://www.w3.org/2000/svg" xmlns:xlink="http://www.w3.org/1999/xlink" width="16px" height="16px" viewBox="0 0 16 16" version="1.1">
<g id="surface1">
<path style=" stroke:none;fill-rule:nonzero;fill:rgb(27.45098%,50.980392%,70.588235%);fill-opacity:1;" d="M 14.402344 3.46875 C 22.40625 15.652344 -1.632812 22.273438 0.277344 7.410156 C 1.714844 0.898438 10.734375 -3.054688 14.402344 3.46875 Z M 14.402344 3.46875 "/>
<path style=" stroke:none;fill-rule:nonzero;fill:rgb(100%,100%,100%);fill-opacity:1;" d="M 4.867188 10.558594 C 4.429688 10.117188 4.039062 9.230469 3.878906 8.320312 C 3.859375 8.191406 3.84375 7.996094 3.84375 7.796875 C 3.84375 7.515625 3.847656 7.464844 3.898438 7.300781 C 3.960938 7.085938 3.988281 6.9375 4.007812 6.707031 C 4.027344 6.46875 4.074219 6.289062 4.179688 6.023438 C 4.414062 5.429688 4.707031 4.992188 5.183594 4.523438 C 5.523438 4.195312 5.925781 3.886719 6.199219 3.75 C 6.472656 3.617188 6.496094 3.613281 6.605469 3.726562 C 6.765625 3.898438 6.871094 3.878906 7.125 3.644531 C 7.292969 3.492188 7.367188 3.453125 7.332031 3.542969 C 7.320312 3.566406 7.285156 3.648438 7.25 3.71875 C 7.160156 3.90625 7.167969 3.972656 7.289062 4.035156 C 7.386719 4.085938 7.6875 4.144531 7.910156 4.160156 L 8.105469 4.171875 L 8.28125 4.082031 C 8.378906 4.03125 8.5625 3.933594 8.6875 3.863281 C 8.8125 3.796875 8.964844 3.722656 9.027344 3.707031 C 9.089844 3.6875 9.1875 3.640625 9.246094 3.601562 C 9.304688 3.566406 9.398438 3.519531 9.453125 3.503906 C 9.601562 3.460938 9.886719 3.445312 10.027344 3.472656 C 10.152344 3.5 10.554688 3.691406 10.777344 3.832031 C 11.402344 4.222656 12.011719 4.832031 12.382812 5.433594 C 12.734375 6.003906 12.957031 6.695312 12.96875 7.238281 C 12.972656 7.421875 12.953125 7.511719 12.910156 7.511719 C 12.894531 7.511719 12.808594 7.449219 12.722656 7.371094 C 12.617188 7.273438 12.550781 7.226562 12.515625 7.226562 C 12.488281 7.226562 12.390625 7.265625 12.296875 7.308594 C 12.207031 7.355469 12.125 7.390625 12.117188 7.390625 C 12.066406 7.390625 12.042969 7.339844 12.027344 7.207031 C 12.011719 7.039062 11.984375 7.003906 11.867188 7.003906 C 11.785156 7.003906 11.6875 7.050781 11.667969 7.097656 C 11.648438 7.152344 11.65625 7.183594 11.710938 7.265625 C 11.761719 7.347656 11.800781 7.539062 11.773438 7.605469 C 11.761719 7.632812 11.753906 7.632812 11.695312 7.59375 C 11.660156 7.570312 11.609375 7.546875 11.582031 7.546875 C 11.46875 7.546875 11.199219 7.820312 10.949219 8.183594 C 10.867188 8.304688 10.703125 8.5 10.578125 8.625 C 10.296875 8.910156 10.289062 8.921875 10.371094 9.003906 C 10.40625 9.035156 10.429688 9.074219 10.421875 9.089844 C 10.417969 9.101562 10.324219 9.175781 10.222656 9.25 C 10.117188 9.328125 9.972656 9.433594 9.898438 9.492188 C 9.757812 9.597656 9.597656 9.679688 9.496094 9.703125 C 9.441406 9.714844 9.421875 9.703125 9.324219 9.605469 C 9.128906 9.40625 8.945312 8.964844 8.859375 8.496094 C 8.792969 8.109375 8.757812 7.945312 8.691406 7.671875 L 8.628906 7.414062 L 8.566406 7.402344 C 8.527344 7.398438 8.367188 7.386719 8.207031 7.378906 C 7.800781 7.363281 7.738281 7.34375 7.53125 7.148438 C 7.25 6.882812 7.039062 6.601562 7.039062 6.484375 C 7.039062 6.414062 7.207031 6.242188 7.496094 6.015625 C 7.902344 5.695312 8.082031 5.5 8.214844 5.238281 C 8.320312 5.039062 8.332031 4.871094 8.25 4.71875 C 8.207031 4.632812 8.195312 4.582031 8.195312 4.488281 C 8.199219 4.304688 8.148438 4.269531 8.003906 4.351562 C 7.949219 4.386719 7.875 4.398438 7.679688 4.414062 C 7.347656 4.4375 7.292969 4.449219 7.207031 4.5 C 7.144531 4.535156 7.113281 4.539062 7.007812 4.527344 C 6.859375 4.511719 6.804688 4.527344 6.703125 4.617188 C 6.660156 4.652344 6.554688 4.707031 6.464844 4.738281 C 6.261719 4.808594 5.59375 5.132812 5.371094 5.269531 C 5.167969 5.390625 5.019531 5.523438 4.914062 5.664062 C 4.808594 5.808594 4.738281 5.882812 4.707031 5.882812 C 4.691406 5.882812 4.644531 5.855469 4.605469 5.828125 C 4.507812 5.753906 4.449219 5.78125 4.378906 5.929688 C 4.3125 6.074219 4.226562 6.453125 4.226562 6.597656 C 4.222656 6.820312 4.269531 6.859375 4.777344 7.066406 C 5.1875 7.234375 5.367188 7.320312 5.550781 7.449219 C 5.738281 7.582031 6.109375 7.949219 6.1875 8.082031 C 6.246094 8.183594 6.25 8.199219 6.222656 8.246094 C 6.207031 8.277344 6.167969 8.3125 6.132812 8.328125 C 6.0625 8.355469 5.980469 8.476562 5.832031 8.777344 C 5.699219 9.054688 5.644531 9.109375 5.480469 9.140625 C 5.257812 9.183594 5.085938 9.351562 4.925781 9.6875 C 4.796875 9.949219 4.800781 10.015625 4.957031 10.351562 C 5.023438 10.496094 5.074219 10.628906 5.070312 10.648438 C 5.054688 10.71875 5.003906 10.695312 4.867188 10.558594 Z M 9.714844 5.808594 C 9.992188 5.738281 10.199219 5.589844 10.257812 5.421875 C 10.324219 5.226562 10.28125 5.207031 10.066406 5.347656 C 9.878906 5.46875 9.789062 5.503906 9.574219 5.535156 C 9.386719 5.558594 9.300781 5.597656 9.285156 5.671875 C 9.265625 5.742188 9.292969 5.785156 9.382812 5.8125 C 9.480469 5.847656 9.570312 5.847656 9.714844 5.808594 Z M 9.097656 5.65625 C 9.128906 5.644531 9.152344 5.621094 9.152344 5.597656 C 9.152344 5.507812 8.910156 5.308594 8.804688 5.308594 C 8.769531 5.308594 8.714844 5.347656 8.640625 5.421875 C 8.539062 5.519531 8.53125 5.535156 8.550781 5.574219 C 8.5625 5.601562 8.605469 5.632812 8.640625 5.648438 C 8.71875 5.679688 9.019531 5.6875 9.097656 5.65625 Z M 9.097656 5.65625 "/>
<path style=" stroke:none;fill-rule:nonzero;fill:rgb(100%,100%,100%);fill-opacity:1;" d="M 7.566406 3.710938 C 7.527344 3.613281 7.679688 3.4375 7.890625 3.332031 C 7.988281 3.289062 8.046875 3.269531 8.128906 3.269531 C 8.25 3.269531 8.28125 3.296875 8.242188 3.371094 C 8.195312 3.460938 7.730469 3.742188 7.628906 3.742188 C 7.601562 3.742188 7.570312 3.726562 7.566406 3.710938 Z M 7.566406 3.710938 "/>
<path style=" stroke:none;fill-rule:nonzero;fill:rgb(100%,100%,100%);fill-opacity:1;" d="M 8.035156 12.265625 C 7.59375 12.222656 7.160156 12.121094 7 12.023438 C 6.921875 11.976562 6.902344 11.953125 6.898438 11.902344 C 6.890625 11.8125 6.9375 11.796875 7.039062 11.855469 C 7.207031 11.949219 7.601562 11.996094 8.355469 12.019531 C 8.960938 12.035156 9.144531 12.058594 9.203125 12.117188 C 9.234375 12.144531 9.230469 12.148438 9.195312 12.175781 C 9.082031 12.253906 8.4375 12.304688 8.035156 12.265625 Z M 8.035156 12.265625 "/>
<path style=" stroke:none;fill-rule:nonzero;fill:rgb(100%,100%,100%);fill-opacity:1;" d="M 12.078125 9.753906 C 11.964844 9.699219 11.847656 9.625 11.8125 9.589844 L 11.75 9.53125 L 11.742188 9.082031 C 11.738281 8.65625 11.738281 8.632812 11.773438 8.640625 C 11.796875 8.648438 11.855469 8.65625 11.90625 8.664062 C 12.105469 8.691406 12.3125 8.742188 12.402344 8.789062 C 12.453125 8.8125 12.558594 8.84375 12.636719 8.855469 C 12.832031 8.886719 12.84375 8.898438 12.804688 9.066406 C 12.769531 9.238281 12.65625 9.519531 12.566406 9.652344 C 12.496094 9.765625 12.382812 9.859375 12.320312 9.859375 C 12.296875 9.859375 12.1875 9.8125 12.078125 9.753906 Z M 12.078125 9.753906 "/>
<path style=" stroke:none;fill-rule:nonzero;fill:rgb(100%,100%,100%);fill-opacity:1;" d="M 12.132812 8.089844 C 12.042969 8 12.03125 7.945312 12.089844 7.890625 C 12.125 7.859375 12.152344 7.855469 12.273438 7.871094 C 12.433594 7.886719 12.414062 7.894531 12.542969 7.738281 C 12.597656 7.675781 12.609375 7.671875 12.636719 7.695312 C 12.683594 7.734375 12.679688 7.855469 12.625 7.949219 C 12.550781 8.074219 12.441406 8.148438 12.320312 8.160156 C 12.222656 8.171875 12.210938 8.167969 12.132812 8.089844 Z M 12.132812 8.089844 "/>
<path style=" stroke:none;fill-rule:nonzero;fill:rgb(100%,100%,100%);fill-opacity:1;" d="M 8.054688 12.761719 C 6.933594 12.65625 6.007812 12.265625 5.148438 11.527344 C 4.410156 10.898438 3.917969 10.171875 3.601562 9.25 C 3.460938 8.84375 3.4375 8.675781 3.421875 8.042969 C 3.40625 7.25 3.449219 6.722656 3.5625 6.339844 C 3.738281 5.742188 4.160156 4.984375 4.585938 4.511719 C 5.289062 3.722656 6.410156 3.046875 7.320312 2.863281 C 7.996094 2.726562 8.957031 2.726562 9.554688 2.863281 C 10.039062 2.972656 10.761719 3.285156 11.191406 3.566406 C 12.472656 4.410156 13.292969 5.730469 13.457031 7.222656 C 13.496094 7.558594 13.472656 8.226562 13.417969 8.550781 C 13.261719 9.410156 12.882812 10.238281 12.339844 10.910156 C 11.589844 11.828125 10.414062 12.5 9.210938 12.703125 C 8.839844 12.761719 8.347656 12.789062 8.054688 12.761719 Z M 9.089844 12.539062 C 10.382812 12.390625 11.527344 11.730469 12.324219 10.675781 C 12.882812 9.9375 13.164062 9.265625 13.273438 8.410156 C 13.316406 8.085938 13.308594 7.277344 13.261719 6.972656 C 13.105469 5.941406 12.679688 5.136719 11.863281 4.332031 C 11.074219 3.550781 10.246094 3.125 9.230469 2.972656 C 8.933594 2.929688 8.144531 2.914062 7.8125 2.945312 C 7.21875 3 6.753906 3.140625 6.179688 3.445312 C 5.609375 3.746094 5.097656 4.148438 4.707031 4.605469 C 4.234375 5.160156 3.804688 5.964844 3.667969 6.5625 C 3.585938 6.914062 3.570312 7.078125 3.574219 7.746094 C 3.574219 8.457031 3.59375 8.683594 3.699219 9.035156 C 4.113281 10.441406 5.203125 11.667969 6.542969 12.230469 C 6.960938 12.40625 7.492188 12.546875 7.804688 12.570312 C 8.101562 12.589844 8.773438 12.574219 9.089844 12.539062 Z M 9.089844 12.539062 "/>
<path style=" stroke:none;fill-rule:nonzero;fill:rgb(96.078431%,96.078431%,96.078431%);fill-opacity:1;" d="M 7.566406 14.792969 L 5.117188 13.191406 L 2.671875 11.589844 L 5.28125 10.269531 L 7.894531 8.949219 Z M 7.566406 14.792969 "/>
</g>
</svg>
