
<svg xmlns="http://www.w3.org/2000/svg" xmlns:xlink="http://www.w3.org/1999/xlink" width="16px" height="16px" viewBox="0 0 16 16" version="1.1">
<g id="surface1">
<path style=" stroke:none;fill-rule:nonzero;fill:rgb(0%,0%,54.509804%);fill-opacity:1;" d="M 5.800781 0.519531 C 14.140625 -2.46875 18.195312 8.265625 14.800781 12.300781 C 11.40625 16.332031 5.589844 17.710938 2.660156 13.144531 C -0.265625 8.574219 -2.535156 3.503906 5.800781 0.519531 Z M 5.800781 0.519531 "/>
<path style=" stroke:none;fill-rule:nonzero;fill:rgb(100%,54.901961%,0%);fill-opacity:0.101961;" d="M 6.003906 4.71875 L 6.003906 5.273438 L 6.882812 5.273438 L 6.882812 11.398438 L 6.003906 11.398438 L 6.003906 11.957031 L 8.9375 11.957031 L 8.9375 11.398438 L 8.054688 11.398438 L 8.054688 9.449219 C 8.640625 10.285156 9.675781 9.730469 9.816406 9.035156 L 9.816406 9.730469 L 11.867188 9.730469 L 11.867188 9.171875 L 10.988281 9.171875 L 10.988281 4.71875 L 8.9375 4.71875 L 8.9375 5.273438 L 9.816406 5.273438 L 9.816406 8.199219 C 9.640625 8.894531 8.640625 9.847656 8.054688 8.476562 L 8.054688 4.71875 L 6.003906 4.71875 "/>
<path style=" stroke:none;fill-rule:nonzero;fill:rgb(100%,54.901961%,0%);fill-opacity:1;" d="M 5.710938 4.4375 L 5.710938 4.996094 L 6.589844 4.996094 L 6.589844 11.121094 L 5.710938 11.121094 L 5.710938 11.679688 L 8.640625 11.679688 L 8.640625 11.121094 L 7.761719 11.121094 L 7.761719 9.171875 C 8.347656 10.007812 9.382812 9.449219 9.523438 8.753906 L 9.523438 9.449219 L 11.574219 9.449219 L 11.574219 8.894531 L 10.695312 8.894531 L 10.695312 4.4375 L 8.640625 4.4375 L 8.640625 4.996094 L 9.523438 4.996094 L 9.523438 7.917969 C 9.34375 8.617188 8.347656 9.566406 7.761719 8.199219 L 7.761719 4.4375 L 5.710938 4.4375 "/>
</g>
</svg>
