
<svg xmlns="http://www.w3.org/2000/svg" xmlns:xlink="http://www.w3.org/1999/xlink" width="16px" height="16px" viewBox="0 0 16 16" version="1.1">
<g id="surface1">
<path style=" stroke:none;fill-rule:nonzero;fill:rgb(86.27451%,7.843137%,23.529412%);fill-opacity:1;" d="M 0.136719 8.140625 C -1.261719 15.136719 8.320312 17.792969 13.523438 14.761719 C 17.671875 12.347656 16.484375 4.074219 10.890625 0.988281 C 5.292969 -2.097656 1.257812 2.527344 0.136719 8.140625 Z M 0.136719 8.140625 "/>
<path style=" stroke:none;fill-rule:nonzero;fill:rgb(100%,62.745098%,47.843137%);fill-opacity:1;" d="M 5.597656 3.210938 C 5.179688 3.210938 4.84375 3.546875 4.84375 3.964844 L 4.84375 10.859375 C 4.84375 11.277344 5.179688 11.613281 5.597656 11.613281 L 10.722656 11.613281 C 11.136719 11.613281 11.472656 11.277344 11.472656 10.859375 L 11.472656 6.304688 C 11.460938 6.289062 11.457031 6.273438 11.445312 6.261719 L 8.394531 3.210938 L 5.59375 3.210938 Z M 5.597656 3.210938 "/>
<path style=" stroke:none;fill-rule:nonzero;fill:rgb(100%,27.058824%,0%);fill-opacity:1;" d="M 11.472656 6.304688 C 11.449219 6.25 11.414062 6.195312 11.367188 6.148438 L 8.394531 3.210938 L 8.394531 5.796875 C 8.394531 6.078125 8.621094 6.304688 8.90625 6.304688 Z M 11.472656 6.304688 "/>
<path style="fill:none;stroke-width:6;stroke-linecap:butt;stroke-linejoin:miter;stroke:rgb(100%,87.058824%,67.843137%);stroke-opacity:1;stroke-miterlimit:4;" d="M 85.376997 975.5825 L 170.939497 975.5825 " transform="matrix(0.0625,0,0,0.0625,0.148313,-50.18875)"/>
<path style="fill:none;stroke-width:6;stroke-linecap:butt;stroke-linejoin:miter;stroke:rgb(100%,87.058824%,67.843137%);stroke-opacity:1;stroke-miterlimit:4;" d="M 85.376997 962.2075 L 170.939497 962.2075 " transform="matrix(0.0625,0,0,0.0625,0.148313,-50.18875)"/>
<path style="fill:none;stroke-width:6;stroke-linecap:butt;stroke-linejoin:miter;stroke:rgb(100%,87.058824%,67.843137%);stroke-opacity:1;stroke-miterlimit:4;" d="M 85.376997 948.8325 L 170.939497 948.8325 " transform="matrix(0.0625,0,0,0.0625,0.148313,-50.18875)"/>
<path style="fill:none;stroke-width:6;stroke-linecap:butt;stroke-linejoin:miter;stroke:rgb(100%,87.058824%,67.843137%);stroke-opacity:1;stroke-miterlimit:4;" d="M 85.376997 935.4575 L 170.939497 935.4575 " transform="matrix(0.0625,0,0,0.0625,0.148313,-50.18875)"/>
<path style="fill:none;stroke-width:6;stroke-linecap:butt;stroke-linejoin:miter;stroke:rgb(100%,87.058824%,67.843137%);stroke-opacity:1;stroke-miterlimit:4;" d="M 85.376997 922.02 L 170.939497 922.02 " transform="matrix(0.0625,0,0,0.0625,0.148313,-50.18875)"/>
<path style=" stroke:none;fill-rule:nonzero;fill:rgb(100%,100%,100%);fill-opacity:1;" d="M 7.550781 13.953125 C 7.671875 13.914062 8.6875 13.1875 9.808594 12.339844 C 11.828125 10.8125 11.855469 10.792969 12.199219 10.796875 C 13.042969 10.796875 13.683594 10.359375 13.957031 9.597656 C 14.042969 9.355469 14.042969 8.867188 13.953125 8.855469 C 13.921875 8.851562 13.636719 9.035156 13.320312 9.269531 C 13 9.5 12.699219 9.683594 12.648438 9.675781 C 12.425781 9.644531 11.9375 8.980469 11.964844 8.753906 C 11.976562 8.6875 12.25 8.410156 12.574219 8.132812 C 13.132812 7.660156 13.160156 7.628906 13.019531 7.5625 C 12.472656 7.320312 11.738281 7.445312 11.265625 7.867188 C 10.925781 8.175781 10.761719 8.464844 10.707031 8.867188 L 10.660156 9.191406 L 6.464844 12.433594 L 6.378906 12.796875 C 6.308594 13.101562 6.316406 13.207031 6.417969 13.425781 C 6.636719 13.882812 7.097656 14.097656 7.550781 13.953125 Z M 7.003906 13.480469 C 6.628906 13.269531 6.703125 12.707031 7.125 12.589844 C 7.339844 12.53125 7.394531 12.539062 7.550781 12.652344 C 7.945312 12.941406 7.703125 13.59375 7.210938 13.574219 C 7.183594 13.574219 7.089844 13.53125 7.003906 13.480469 Z M 7.003906 13.480469 "/>
</g>
</svg>
