
<svg xmlns="http://www.w3.org/2000/svg" xmlns:xlink="http://www.w3.org/1999/xlink" width="16px" height="16px" viewBox="0 0 16 16" version="1.1">
<g id="surface1">
<path style=" stroke:none;fill-rule:nonzero;fill:rgb(39.215686%,58.431373%,92.941176%);fill-opacity:1;" d="M 4.664062 15.511719 C 27.671875 19.078125 10.335938 -13.480469 0.5625 6.898438 C -0.785156 10.039062 0.289062 14.367188 4.664062 15.511719 Z M 4.664062 15.511719 "/>
<path style=" stroke:none;fill-rule:nonzero;fill:rgb(100%,100%,100%);fill-opacity:1;" d="M 3.71875 5.019531 L 3.71875 12.0625 L 12.535156 12.0625 L 12.535156 5.019531 L 3.71875 5.019531 M 4.417969 6.132812 L 11.839844 6.132812 L 11.839844 11.507812 L 4.417969 11.507812 L 4.417969 6.132812 M 6.128906 6.429688 L 6.128906 7.417969 L 7.25 7.417969 L 7.25 6.429688 L 6.128906 6.429688 M 7.574219 6.429688 L 7.574219 7.417969 L 8.695312 7.417969 L 8.695312 6.429688 L 7.574219 6.429688 M 9.019531 6.429688 L 9.019531 7.417969 L 10.140625 7.417969 L 10.140625 6.429688 L 9.019531 6.429688 M 10.464844 6.429688 L 10.464844 7.417969 L 11.585938 7.417969 L 11.585938 6.429688 L 10.464844 6.429688 M 4.683594 7.703125 L 4.683594 8.6875 L 5.804688 8.6875 L 5.804688 7.703125 L 4.683594 7.703125 M 6.128906 7.703125 L 6.128906 8.6875 L 7.25 8.6875 L 7.25 7.703125 L 6.128906 7.703125 M 7.574219 7.703125 L 7.574219 8.6875 L 8.695312 8.6875 L 8.695312 7.703125 L 7.574219 7.703125 M 9.019531 7.703125 L 9.019531 8.6875 L 10.140625 8.6875 L 10.140625 7.703125 L 9.019531 7.703125 M 10.464844 7.703125 L 10.464844 8.6875 L 11.585938 8.6875 L 11.585938 7.703125 L 10.464844 7.703125 M 4.683594 8.972656 L 4.683594 9.957031 L 5.804688 9.957031 L 5.804688 8.972656 L 4.683594 8.972656 M 6.128906 8.972656 L 6.128906 9.957031 L 7.25 9.957031 L 7.25 8.972656 L 6.128906 8.972656 M 7.574219 8.972656 L 7.574219 9.957031 L 8.695312 9.957031 L 8.695312 8.972656 L 7.574219 8.972656 M 9.019531 8.972656 L 9.019531 9.957031 L 10.140625 9.957031 L 10.140625 8.972656 L 9.019531 8.972656 M 10.464844 8.972656 L 10.464844 9.957031 L 11.585938 9.957031 L 11.585938 8.972656 L 10.464844 8.972656 M 4.683594 10.242188 L 4.683594 11.226562 L 5.804688 11.226562 L 5.804688 10.242188 L 4.683594 10.242188 M 6.128906 10.242188 L 6.128906 11.226562 L 7.25 11.226562 L 7.25 10.242188 L 6.128906 10.242188 M 7.574219 10.242188 L 7.574219 11.226562 L 8.695312 11.226562 L 8.695312 10.242188 L 7.574219 10.242188 M 9.019531 10.242188 L 9.019531 11.226562 L 10.140625 11.226562 L 10.140625 10.242188 L 9.019531 10.242188 "/>
</g>
</svg>
