
<svg xmlns="http://www.w3.org/2000/svg" xmlns:xlink="http://www.w3.org/1999/xlink" width="16px" height="16px" viewBox="0 0 16 16" version="1.1">
<defs>
<linearGradient id="linear0" gradientUnits="userSpaceOnUse" x1="3.01" y1="0" x2="10.536" y2="0" gradientTransform="matrix(1.090195,0,0,1.097306,0.406938,0.600563)">
<stop offset="0" style="stop-color:rgb(97.647059%,82.745098%,74.901961%);stop-opacity:1;"/>
<stop offset="1" style="stop-color:rgb(100%,98.431373%,96.078431%);stop-opacity:1;"/>
</linearGradient>
</defs>
<g id="surface1">
<path style=" stroke:none;fill-rule:nonzero;fill:rgb(100%,54.901961%,0%);fill-opacity:1;" d="M 0.234375 9.664062 C 1.472656 17.90625 13.808594 18.152344 15.671875 10.140625 C 17.59375 3.652344 10.644531 -1.648438 5.445312 0.476562 C 1.964844 1.480469 -0.84375 5.589844 0.234375 9.664062 Z M 0.234375 9.664062 "/>
<path style=" stroke:none;fill-rule:evenodd;fill:url(#linear0);" d="M 8.429688 4.058594 L 3.738281 4.890625 L 3.738281 11.183594 L 8.429688 12.007812 Z M 8.609375 4.972656 L 8.609375 5.84375 C 8.84375 5.640625 9.144531 5.527344 9.453125 5.527344 L 9.453125 6.835938 L 10.753906 6.835938 C 10.753906 7.363281 10.4375 7.839844 9.953125 8.042969 C 9.5 8.230469 8.980469 8.148438 8.609375 7.824219 L 8.609375 9.019531 L 11.300781 9.019531 L 11.300781 9.277344 L 8.609375 9.277344 L 8.609375 9.890625 L 11.300781 9.890625 L 11.300781 10.148438 L 8.609375 10.148438 L 8.609375 11.074219 L 11.863281 11.074219 C 11.871094 11.074219 11.882812 11.066406 11.882812 11.054688 L 11.882812 4.992188 C 11.882812 4.980469 11.871094 4.972656 11.863281 4.972656 Z M 9.65625 5.542969 C 10.222656 5.632812 10.664062 6.085938 10.738281 6.660156 L 9.65625 6.660156 Z M 5.144531 6.496094 L 5.988281 6.496094 C 6.316406 6.496094 6.570312 6.574219 6.75 6.738281 C 6.929688 6.898438 7.019531 7.125 7.019531 7.417969 C 7.019531 7.710938 6.917969 7.949219 6.71875 8.136719 C 6.519531 8.324219 6.25 8.414062 5.90625 8.414062 L 5.503906 8.414062 L 5.503906 9.582031 L 5.144531 9.582031 Z M 5.503906 6.824219 L 5.503906 8.085938 L 5.878906 8.085938 C 6.128906 8.085938 6.316406 8.03125 6.445312 7.917969 C 6.578125 7.800781 6.644531 7.640625 6.644531 7.433594 C 6.644531 7.027344 6.402344 6.824219 5.925781 6.824219 Z M 5.503906 6.824219 "/>
</g>
</svg>
