
<svg xmlns="http://www.w3.org/2000/svg" xmlns:xlink="http://www.w3.org/1999/xlink" width="16px" height="16px" viewBox="0 0 16 16" version="1.1">
<g id="surface1">
<path style=" stroke:none;fill-rule:nonzero;fill:rgb(69.019608%,76.862745%,87.058824%);fill-opacity:1;" d="M 7.859375 15.863281 C 0.863281 17.257812 -1.792969 7.679688 1.238281 2.476562 C 3.65625 -1.671875 11.929688 -0.484375 15.011719 5.109375 C 18.097656 10.707031 13.472656 14.742188 7.859375 15.863281 Z M 7.859375 15.863281 "/>
<path style=" stroke:none;fill-rule:nonzero;fill:rgb(100%,100%,100%);fill-opacity:1;" d="M 6.671875 12.519531 C 5.699219 12.246094 5.035156 11.8125 4.417969 11.054688 C 3.714844 10.195312 3.355469 9.175781 3.355469 8.058594 C 3.355469 6.894531 3.789062 5.871094 4.660156 4.964844 C 5.566406 4.023438 6.675781 3.570312 7.851562 3.664062 C 8.875 3.746094 9.738281 4.164062 10.488281 4.949219 C 11.363281 5.859375 11.796875 6.925781 11.792969 8.152344 C 11.785156 9.46875 11.414062 10.347656 10.46875 11.273438 C 9.265625 12.457031 7.964844 12.882812 6.671875 12.519531 Z M 6.386719 11.246094 C 7.074219 10.992188 9.242188 9.765625 10.03125 9.183594 C 10.867188 8.5625 11 8.171875 10.527344 7.707031 C 9.90625 7.097656 7.378906 5.539062 6.546875 5.25 C 5.722656 4.964844 5.574219 5.050781 5.425781 5.890625 C 5.273438 6.761719 5.367188 10.140625 5.566406 10.90625 C 5.640625 11.1875 5.792969 11.355469 5.980469 11.359375 C 6.027344 11.363281 6.210938 11.3125 6.386719 11.246094 Z M 6.386719 11.246094 "/>
</g>
</svg>
