
<svg xmlns="http://www.w3.org/2000/svg" xmlns:xlink="http://www.w3.org/1999/xlink" width="16px" height="16px" viewBox="0 0 16 16" version="1.1">
<defs>
<radialGradient id="radial0" gradientUnits="userSpaceOnUse" cx="24" cy="24" fx="24" fy="24" r="15.238" gradientTransform="matrix(0.262056,0,0,0.259243,1.93075,1.819375)">
<stop offset="0" style="stop-color:rgb(100%,100%,100%);stop-opacity:1;"/>
<stop offset="0.7" style="stop-color:rgb(100%,100%,100%);stop-opacity:0.498039;"/>
<stop offset="1" style="stop-color:rgb(100%,100%,100%);stop-opacity:0;"/>
</radialGradient>
<linearGradient id="linear0" gradientUnits="userSpaceOnUse" x1="27.81" y1="31.619" x2="16.381" y2="8.762" gradientTransform="matrix(0.262056,0,0,0.259243,1.93075,1.819375)">
<stop offset="0" style="stop-color:rgb(20.392157%,52.941176%,4.705882%);stop-opacity:1;"/>
<stop offset="1" style="stop-color:rgb(62.745098%,80.784314%,44.705882%);stop-opacity:1;"/>
</linearGradient>
</defs>
<g id="surface1">
<path style=" stroke:none;fill-rule:nonzero;fill:rgb(96.862745%,96.862745%,96.862745%);fill-opacity:1;" d="M 14.351562 12.238281 C 20.105469 4.058594 9.480469 -4.234375 2.703125 2.433594 C -3.683594 8.714844 2.238281 18.476562 10.183594 15.425781 C 11.839844 14.789062 13.296875 13.742188 14.351562 12.238281 Z M 14.351562 12.238281 "/>
<path style=" stroke:none;fill-rule:nonzero;fill:url(#radial0);" d="M 12.214844 8.042969 C 12.214844 10.222656 10.425781 11.992188 8.21875 11.992188 C 6.015625 11.992188 4.226562 10.222656 4.226562 8.042969 C 4.226562 5.859375 6.015625 4.089844 8.21875 4.089844 C 10.425781 4.089844 12.214844 5.859375 12.214844 8.042969 Z M 12.214844 8.042969 "/>
<path style=" stroke:none;fill-rule:nonzero;fill:url(#linear0);" d="M 8.21875 4.089844 C 7.785156 4.089844 7.363281 4.160156 6.972656 4.289062 L 6.972656 8.042969 C 6.972656 8.722656 7.53125 9.277344 8.21875 9.277344 C 8.910156 9.277344 9.46875 8.722656 9.46875 8.042969 C 9.46875 7.359375 8.910156 6.808594 8.21875 6.808594 L 8.21875 5.570312 C 9.597656 5.570312 10.714844 6.675781 10.714844 8.042969 C 10.714844 9.40625 9.597656 10.511719 8.21875 10.511719 C 6.839844 10.511719 5.722656 9.40625 5.722656 8.042969 L 5.722656 4.957031 C 4.8125 5.683594 4.226562 6.792969 4.226562 8.042969 C 4.226562 10.222656 6.015625 11.992188 8.21875 11.992188 C 10.425781 11.992188 12.214844 10.222656 12.214844 8.042969 C 12.214844 5.859375 10.425781 4.089844 8.21875 4.089844 Z M 8.21875 4.089844 "/>
<path style=" stroke:none;fill-rule:nonzero;fill:rgb(100%,100%,100%);fill-opacity:0.701961;" d="M 8.21875 5.570312 L 8.21875 5.695312 C 9.578125 5.695312 10.683594 6.769531 10.714844 8.101562 C 10.714844 8.082031 10.714844 8.0625 10.714844 8.042969 C 10.714844 6.675781 9.597656 5.570312 8.21875 5.570312 Z M 6.972656 8.042969 L 6.972656 8.164062 C 6.972656 8.847656 7.53125 9.398438 8.21875 9.398438 C 8.910156 9.398438 9.46875 8.847656 9.46875 8.164062 C 9.46875 8.144531 9.464844 8.125 9.464844 8.101562 C 9.429688 8.757812 8.886719 9.277344 8.21875 9.277344 C 7.53125 9.277344 6.972656 8.722656 6.972656 8.042969 Z M 12.214844 8.101562 C 12.179688 10.257812 10.40625 11.992188 8.21875 11.992188 C 6.039062 11.992188 4.269531 10.265625 4.226562 8.117188 C 4.226562 8.132812 4.226562 8.148438 4.226562 8.164062 C 4.226562 10.347656 6.015625 12.113281 8.21875 12.113281 C 10.425781 12.113281 12.214844 10.347656 12.214844 8.164062 C 12.214844 8.144531 12.214844 8.125 12.214844 8.101562 Z M 12.214844 8.101562 "/>
<path style=" stroke:none;fill-rule:nonzero;fill:rgb(0%,0%,0%);fill-opacity:0.301961;" d="M 8.21875 4.089844 C 7.785156 4.089844 7.363281 4.160156 6.972656 4.289062 L 6.972656 4.410156 C 7.363281 4.285156 7.785156 4.214844 8.21875 4.214844 C 10.40625 4.214844 12.179688 5.949219 12.214844 8.101562 C 12.214844 8.082031 12.214844 8.0625 12.214844 8.042969 C 12.214844 5.859375 10.425781 4.089844 8.21875 4.089844 Z M 5.722656 4.957031 C 4.8125 5.683594 4.226562 6.792969 4.226562 8.042969 C 4.226562 8.066406 4.226562 8.09375 4.226562 8.117188 C 4.242188 6.890625 4.824219 5.796875 5.722656 5.082031 Z M 8.21875 6.808594 L 8.21875 6.929688 C 8.886719 6.929688 9.429688 7.449219 9.464844 8.101562 C 9.464844 8.082031 9.46875 8.0625 9.46875 8.042969 C 9.46875 7.359375 8.910156 6.808594 8.21875 6.808594 Z M 5.722656 8.042969 L 5.722656 8.164062 C 5.722656 9.527344 6.839844 10.632812 8.21875 10.632812 C 9.597656 10.632812 10.714844 9.527344 10.714844 8.164062 C 10.714844 8.144531 10.714844 8.125 10.714844 8.101562 C 10.683594 9.4375 9.578125 10.511719 8.21875 10.511719 C 6.839844 10.511719 5.722656 9.40625 5.722656 8.042969 Z M 5.722656 8.042969 "/>
</g>
</svg>
