
<svg xmlns="http://www.w3.org/2000/svg" xmlns:xlink="http://www.w3.org/1999/xlink" width="16px" height="16px" viewBox="0 0 16 16" version="1.1">
<g id="surface1">
<path style=" stroke:none;fill-rule:nonzero;fill:rgb(46.666667%,53.333333%,60%);fill-opacity:1;" d="M 3.296875 14.4375 C 15.328125 22.4375 22.734375 -3.066406 7.1875 0.308594 C 0.757812 1.75 -3.140625 10.773438 3.296875 14.4375 Z M 3.296875 14.4375 "/>
<path style=" stroke:none;fill-rule:nonzero;fill:rgb(0%,0%,0%);fill-opacity:0.0980392;" d="M 7.933594 4.363281 L 3.453125 7.824219 L 8.597656 10.148438 L 13.078125 6.6875 Z M 12.78125 7.367188 L 12.089844 7.898438 L 12.421875 10.761719 L 12.699219 9.597656 L 13.09375 10.097656 Z M 5.085938 8.953125 L 5.273438 10.601562 L 8.835938 12.214844 L 11.9375 9.816406 L 11.746094 8.167969 L 8.648438 10.5625 Z M 5.085938 8.953125 "/>
<path style=" stroke:none;fill-rule:nonzero;fill:rgb(30.196078%,30.196078%,30.196078%);fill-opacity:1;" d="M 3.035156 7.453125 L 7.515625 3.996094 L 12.660156 6.320312 L 8.179688 9.777344 Z M 3.035156 7.453125 "/>
<path style=" stroke:none;fill-rule:nonzero;fill:rgb(30.196078%,30.196078%,30.196078%);fill-opacity:1;" d="M 11.328125 7.796875 L 8.230469 10.191406 L 4.667969 8.582031 L 4.859375 10.234375 L 8.417969 11.84375 L 11.519531 9.449219 Z M 11.328125 7.796875 "/>
<path style=" stroke:none;fill-rule:nonzero;fill:rgb(70.196078%,70.196078%,70.196078%);fill-opacity:1;" d="M 8.441406 6.816406 C 8.414062 6.589844 8.144531 6.433594 7.835938 6.46875 C 7.53125 6.503906 7.304688 6.71875 7.332031 6.949219 C 7.355469 7.175781 7.625 7.332031 7.933594 7.296875 C 8.238281 7.257812 8.46875 7.042969 8.441406 6.816406 Z M 8.441406 6.816406 "/>
<path style=" stroke:none;fill-rule:nonzero;fill:rgb(87.058824%,24.705882%,24.705882%);fill-opacity:1;" d="M 12.363281 7 L 11.675781 7.53125 L 12.003906 10.390625 L 12.28125 9.226562 L 12.675781 9.726562 Z M 12.363281 7 "/>
</g>
</svg>
