
<svg xmlns="http://www.w3.org/2000/svg" xmlns:xlink="http://www.w3.org/1999/xlink" width="16px" height="16px" viewBox="0 0 16 16" version="1.1">
<g id="surface1">
<path style=" stroke:none;fill-rule:nonzero;fill:rgb(25.098039%,87.843137%,81.568627%);fill-opacity:1;" d="M 0.390625 9.800781 C 3.472656 24.667969 24.683594 8.707031 11.941406 1.148438 C 6.992188 -2.089844 -1.195312 2.152344 0.390625 9.800781 Z M 0.390625 9.800781 "/>
<path style=" stroke:none;fill-rule:nonzero;fill:rgb(0%,0%,0%);fill-opacity:0.121569;" d="M 6.234375 3.789062 C 6.191406 3.792969 6.152344 3.816406 6.125 3.851562 L 3.707031 6.996094 C 3.679688 7.035156 3.667969 7.085938 3.679688 7.136719 L 4.539062 11.058594 C 4.550781 11.105469 4.582031 11.148438 4.625 11.171875 L 8.117188 12.914062 C 8.160156 12.9375 8.210938 12.9375 8.257812 12.914062 L 11.75 11.171875 C 11.792969 11.148438 11.824219 11.105469 11.835938 11.058594 L 12.699219 7.136719 C 12.710938 7.085938 12.699219 7.035156 12.667969 6.996094 L 10.25 3.851562 C 10.21875 3.8125 10.175781 3.789062 10.125 3.789062 L 6.25 3.789062 C 6.246094 3.789062 6.238281 3.789062 6.234375 3.789062 Z M 6.234375 3.789062 "/>
<path style=" stroke:none;fill-rule:nonzero;fill:rgb(58.431373%,87.45098%,82.745098%);fill-opacity:1;" d="M 5.925781 3.644531 L 5.921875 3.644531 C 5.882812 3.648438 5.84375 3.671875 5.816406 3.707031 L 3.472656 6.757812 C 3.445312 6.796875 3.433594 6.847656 3.445312 6.894531 L 4.28125 10.699219 C 4.289062 10.75 4.320312 10.789062 4.363281 10.808594 L 7.75 12.503906 C 7.792969 12.523438 7.84375 12.523438 7.886719 12.503906 L 11.277344 10.808594 C 11.320312 10.789062 11.351562 10.75 11.359375 10.699219 L 12.195312 6.894531 C 12.207031 6.847656 12.195312 6.796875 12.167969 6.757812 L 9.820312 3.707031 C 9.792969 3.667969 9.746094 3.644531 9.699219 3.644531 L 5.941406 3.644531 C 5.933594 3.644531 5.929688 3.644531 5.925781 3.644531 Z M 5.925781 3.644531 "/>
<path style=" stroke:none;fill-rule:nonzero;fill:rgb(84.313725%,100%,98.039216%);fill-opacity:1;" d="M 5.875 3.40625 C 5.824219 3.410156 5.777344 3.4375 5.75 3.476562 L 3.347656 6.605469 C 3.3125 6.648438 3.296875 6.710938 3.3125 6.765625 L 4.167969 10.667969 C 4.179688 10.722656 4.21875 10.769531 4.265625 10.796875 L 7.738281 12.53125 C 7.789062 12.554688 7.847656 12.554688 7.898438 12.53125 L 11.371094 10.796875 C 11.421875 10.769531 11.457031 10.722656 11.472656 10.667969 L 12.328125 6.765625 C 12.339844 6.710938 12.328125 6.648438 12.292969 6.605469 L 9.890625 3.476562 C 9.855469 3.433594 9.800781 3.40625 9.746094 3.40625 L 5.894531 3.40625 C 5.886719 3.40625 5.878906 3.40625 5.875 3.40625 Z M 5.980469 3.785156 L 9.65625 3.785156 L 11.949219 6.769531 L 11.132812 10.492188 L 7.820312 12.148438 L 4.503906 10.492188 L 3.6875 6.769531 Z M 5.980469 3.785156 "/>
<path style=" stroke:none;fill-rule:nonzero;fill:rgb(84.313725%,100%,98.039216%);fill-opacity:1;" d="M 6.691406 5.3125 C 6.65625 5.316406 6.625 5.332031 6.605469 5.363281 L 5.210938 7.171875 C 5.1875 7.203125 5.179688 7.242188 5.1875 7.285156 L 5.683594 9.539062 C 5.691406 9.578125 5.71875 9.613281 5.753906 9.628906 L 7.765625 10.632812 C 7.800781 10.648438 7.839844 10.648438 7.875 10.632812 L 9.886719 9.628906 C 9.921875 9.613281 9.949219 9.578125 9.957031 9.539062 L 10.453125 7.285156 C 10.460938 7.242188 10.453125 7.203125 10.429688 7.171875 L 9.035156 5.363281 C 9.011719 5.332031 8.976562 5.3125 8.9375 5.3125 L 6.703125 5.3125 C 6.699219 5.3125 6.695312 5.3125 6.691406 5.3125 Z M 6.765625 5.578125 L 8.875 5.578125 L 10.1875 7.285156 L 9.71875 9.414062 L 7.820312 10.363281 L 5.921875 9.414062 L 5.453125 7.285156 "/>
<path style=" stroke:none;fill-rule:evenodd;fill:rgb(84.313725%,100%,98.039216%);fill-opacity:1;" d="M 6.097656 3.734375 L 5.863281 3.84375 L 6.648438 5.632812 L 6.882812 5.523438 Z M 6.097656 3.734375 "/>
<path style=" stroke:none;fill-rule:evenodd;fill:rgb(84.313725%,100%,98.039216%);fill-opacity:1;" d="M 3.722656 6.640625 L 3.652344 6.898438 L 5.417969 7.414062 L 5.488281 7.160156 Z M 3.722656 6.640625 "/>
<path style=" stroke:none;fill-rule:evenodd;fill:rgb(84.313725%,100%,98.039216%);fill-opacity:1;" d="M 5.84375 9.308594 L 4.429688 10.386719 L 4.582031 10.601562 L 5.996094 9.523438 Z M 5.84375 9.308594 "/>
<path style=" stroke:none;fill-rule:evenodd;fill:rgb(84.313725%,100%,98.039216%);fill-opacity:1;" d="M 7.691406 10.363281 L 7.691406 12.148438 L 7.949219 12.148438 L 7.949219 10.363281 Z M 7.691406 10.363281 "/>
<path style=" stroke:none;fill-rule:evenodd;fill:rgb(84.313725%,100%,98.039216%);fill-opacity:1;" d="M 9.796875 9.308594 L 9.644531 9.523438 L 11.054688 10.601562 L 11.207031 10.386719 Z M 9.796875 9.308594 "/>
<path style=" stroke:none;fill-rule:evenodd;fill:rgb(84.313725%,100%,98.039216%);fill-opacity:1;" d="M 9.542969 3.734375 L 8.757812 5.523438 L 8.992188 5.632812 L 9.777344 3.84375 Z M 9.542969 3.734375 "/>
<path style=" stroke:none;fill-rule:evenodd;fill:rgb(84.313725%,100%,98.039216%);fill-opacity:1;" d="M 11.917969 6.640625 L 10.152344 7.160156 L 10.222656 7.414062 L 11.984375 6.898438 Z M 11.917969 6.640625 "/>
</g>
</svg>
