
<svg xmlns="http://www.w3.org/2000/svg" xmlns:xlink="http://www.w3.org/1999/xlink" width="16px" height="16px" viewBox="0 0 16 16" version="1.1">
<g id="surface1">
<path style=" stroke:none;fill-rule:nonzero;fill:rgb(100%,54.901961%,0%);fill-opacity:1;" d="M 14.222656 2.929688 C 21.636719 12.527344 3.171875 22.492188 0.472656 10.609375 C -2.292969 3.128906 8.726562 -4.179688 14.222656 2.929688 Z M 14.222656 2.929688 "/>
<path style=" stroke:none;fill-rule:nonzero;fill:rgb(100%,100%,100%);fill-opacity:1;" d="M 3.796875 11.421875 C 3.773438 11.359375 3.765625 9.839844 3.777344 8.050781 L 3.800781 4.789062 L 5.789062 4.765625 C 7.019531 4.75 7.777344 4.773438 7.777344 4.828125 C 7.777344 4.878906 7.566406 5.109375 7.3125 5.339844 C 7.058594 5.574219 6.847656 5.820312 6.847656 5.886719 C 6.847656 5.949219 7.082031 6.105469 7.367188 6.230469 C 7.648438 6.351562 7.894531 6.496094 7.910156 6.546875 C 7.921875 6.597656 7.601562 6.832031 7.199219 7.066406 C 6.792969 7.304688 6.464844 7.554688 6.464844 7.625 C 6.464844 7.691406 6.644531 7.839844 6.867188 7.953125 L 7.273438 8.152344 L 7.050781 8.367188 C 6.746094 8.660156 6.824219 8.820312 7.386719 9.066406 C 7.644531 9.175781 7.855469 9.316406 7.855469 9.375 C 7.855469 9.433594 7.503906 9.683594 7.074219 9.933594 C 6.644531 10.1875 6.261719 10.4375 6.21875 10.5 C 6.113281 10.648438 6.300781 10.75 7.042969 10.941406 C 7.382812 11.03125 7.675781 11.117188 7.691406 11.136719 C 7.710938 11.15625 7.660156 11.253906 7.582031 11.355469 C 7.449219 11.527344 7.347656 11.539062 5.636719 11.539062 C 4.261719 11.539062 3.824219 11.511719 3.796875 11.421875 Z M 8.78125 11.476562 C 8.78125 11.441406 8.855469 11.316406 8.949219 11.199219 C 9.171875 10.914062 9.089844 10.832031 8.402344 10.636719 C 8.09375 10.550781 7.839844 10.441406 7.835938 10.390625 C 7.832031 10.339844 8.136719 10.09375 8.511719 9.839844 C 8.886719 9.585938 9.207031 9.332031 9.222656 9.273438 C 9.242188 9.207031 9.03125 9.082031 8.707031 8.957031 C 8.40625 8.84375 8.164062 8.714844 8.164062 8.675781 C 8.164062 8.636719 8.269531 8.511719 8.398438 8.398438 C 8.707031 8.128906 8.660156 7.941406 8.253906 7.824219 C 8.070312 7.773438 7.917969 7.6875 7.914062 7.636719 C 7.910156 7.585938 8.214844 7.328125 8.59375 7.066406 C 8.972656 6.804688 9.292969 6.535156 9.304688 6.46875 C 9.316406 6.394531 9.09375 6.25 8.707031 6.089844 C 8.363281 5.945312 8.085938 5.777344 8.085938 5.722656 C 8.085938 5.664062 8.320312 5.417969 8.601562 5.179688 L 9.117188 4.742188 L 11.90625 4.789062 L 11.929688 8.164062 L 11.949219 11.539062 L 10.363281 11.539062 C 9.492188 11.539062 8.78125 11.511719 8.78125 11.476562 Z M 8.78125 11.476562 "/>
</g>
</svg>
