
<svg xmlns="http://www.w3.org/2000/svg" xmlns:xlink="http://www.w3.org/1999/xlink" width="16px" height="16px" viewBox="0 0 16 16" version="1.1">
<defs>
<linearGradient id="linear0" gradientUnits="userSpaceOnUse" x1="0" y1="47" x2="0" y2="1" gradientTransform="matrix(0.22147,0,0,0.218406,2.687984,2.814672)">
<stop offset="0" style="stop-color:rgb(33.333333%,61.568627%,19.215686%);stop-opacity:1;"/>
<stop offset="1" style="stop-color:rgb(36.470588%,67.45098%,21.176471%);stop-opacity:1;"/>
</linearGradient>
</defs>
<g id="surface1">
<path style=" stroke:none;fill-rule:nonzero;fill:rgb(37.254902%,68.627451%,21.176471%);fill-opacity:1;" d="M 0.234375 9.664062 C 1.472656 17.90625 13.808594 18.152344 15.671875 10.140625 C 17.59375 3.652344 10.644531 -1.648438 5.445312 0.476562 C 1.964844 1.480469 -0.84375 5.589844 0.234375 9.664062 Z M 0.234375 9.664062 "/>
<path style=" stroke:none;fill-rule:nonzero;fill:rgb(0%,0%,0%);fill-opacity:0.0509804;" d="M 10.730469 3.90625 C 12.027344 4.792969 12.875 6.273438 12.875 7.945312 C 12.875 10.660156 10.644531 12.863281 7.890625 12.863281 C 6.195312 12.863281 4.695312 12.023438 3.792969 10.746094 C 4.023438 11.144531 4.304688 11.507812 4.632812 11.832031 C 5.535156 12.640625 6.738281 13.132812 8.058594 13.132812 C 10.871094 13.132812 13.152344 10.886719 13.152344 8.109375 C 13.152344 6.8125 12.652344 5.625 11.828125 4.734375 C 11.503906 4.410156 11.132812 4.132812 10.730469 3.90625 Z M 11.828125 4.734375 C 12.683594 5.628906 13.207031 6.835938 13.207031 8.164062 C 13.207031 10.941406 10.925781 13.1875 8.113281 13.1875 C 6.765625 13.1875 5.542969 12.671875 4.632812 11.832031 C 5.554688 12.734375 6.820312 13.296875 8.222656 13.296875 C 11.039062 13.296875 13.316406 11.050781 13.316406 8.273438 C 13.316406 6.890625 12.746094 5.640625 11.828125 4.734375 Z M 11.828125 4.734375 "/>
<path style=" stroke:none;fill-rule:nonzero;fill:rgb(0%,0%,0%);fill-opacity:0.101961;" d="M 11.832031 4.734375 C 12.652344 5.625 13.152344 6.808594 13.152344 8.109375 C 13.152344 10.886719 10.871094 13.132812 8.058594 13.132812 C 6.738281 13.132812 5.539062 12.640625 4.632812 11.832031 C 5.542969 12.671875 6.765625 13.1875 8.113281 13.1875 C 10.925781 13.1875 13.207031 10.941406 13.207031 8.164062 C 13.207031 6.835938 12.683594 5.628906 11.832031 4.734375 Z M 11.832031 4.734375 "/>
<path style=" stroke:none;fill-rule:nonzero;fill:rgb(0%,0%,0%);fill-opacity:0.2;" d="M 9.609375 3.332031 C 11.515625 4.023438 12.875 5.828125 12.875 7.949219 C 12.875 10.664062 10.644531 12.863281 7.890625 12.863281 C 5.742188 12.863281 3.914062 11.523438 3.214844 9.640625 C 3.988281 11.988281 6.375 13.433594 8.84375 13.050781 C 11.316406 12.671875 13.140625 10.578125 13.152344 8.113281 C 13.148438 5.929688 11.71875 4 9.609375 3.335938 Z M 9.609375 3.332031 "/>
<path style=" stroke:none;fill-rule:nonzero;fill:url(#linear0);" d="M 8.003906 3.03125 C 10.816406 3.03125 13.097656 5.28125 13.097656 8.054688 C 13.097656 10.832031 10.816406 13.078125 8.003906 13.078125 C 5.191406 13.078125 2.910156 10.832031 2.910156 8.054688 C 2.910156 5.28125 5.191406 3.03125 8.003906 3.03125 Z M 8.003906 3.03125 "/>
<path style=" stroke:none;fill-rule:nonzero;fill:rgb(0%,0%,0%);fill-opacity:0.101961;" d="M 11.554688 4.460938 C 12.375 5.351562 12.875 6.539062 12.875 7.839844 C 12.875 10.613281 10.59375 12.863281 7.78125 12.863281 C 6.464844 12.863281 5.261719 12.367188 4.355469 11.558594 C 5.28125 12.496094 6.574219 13.078125 8.003906 13.078125 C 10.816406 13.078125 13.097656 10.832031 13.097656 8.054688 C 13.097656 6.644531 12.503906 5.371094 11.554688 4.460938 Z M 11.554688 4.460938 "/>
<path style="fill-rule:evenodd;fill:rgb(93.333333%,90.980392%,66.666667%);fill-opacity:1;stroke-width:1.23878;stroke-linecap:butt;stroke-linejoin:miter;stroke:rgb(100%,98.039216%,80.392157%);stroke-opacity:1;stroke-miterlimit:4;" d="M 134.290255 152.665253 C 132.852755 147.915253 132.040255 142.727752 132.165255 138.915252 C 132.290255 135.102752 131.852755 132.165252 130.915255 131.040252 C 130.102755 130.102752 129.727755 128.415252 130.040255 127.227752 C 131.040255 123.352752 129.102755 122.227752 121.415255 122.227752 C 114.540255 122.165252 114.040255 122.040252 112.165255 118.977752 C 108.727755 113.290252 109.852755 105.852752 114.977755 100.727752 L 117.727755 97.977752 L 137.852755 98.040252 C 155.665256 98.102752 157.915256 98.290252 157.977756 99.852752 C 158.040256 102.727752 160.915256 105.790252 162.790256 105.040252 C 163.852756 104.665252 164.790256 105.102752 165.227756 106.165252 C 165.977756 108.165252 160.102756 114.102752 157.415256 114.102752 C 156.540256 114.102752 154.602756 111.790252 153.165255 108.977752 C 149.602755 102.102752 147.477755 99.290252 146.415255 100.352752 C 145.477755 101.290252 149.352755 109.290252 153.477755 114.977752 C 155.415256 117.602752 156.602756 118.352752 158.165256 117.852752 C 159.977756 117.227752 160.227756 117.540252 159.540256 119.602752 C 159.102756 120.915252 157.102756 124.227752 155.040256 126.915252 C 151.602755 131.352752 151.290255 132.352752 151.977755 136.540252 C 152.540255 140.352752 152.227755 141.790252 150.415255 144.102752 C 149.165255 145.665253 148.165255 147.602753 148.165255 148.415253 C 148.165255 149.165253 146.852755 151.977753 145.227755 154.665253 C 143.227755 158.040253 141.477755 159.602753 139.477755 159.915253 C 136.852755 160.290253 136.540255 159.852753 134.290255 152.665253 Z M 134.290255 152.665253 " transform="matrix(0.0625,0,0,0.0625,0.0677967,0.0677968)"/>
<path style="fill-rule:evenodd;fill:rgb(93.333333%,90.980392%,66.666667%);fill-opacity:1;stroke-width:1.23878;stroke-linecap:butt;stroke-linejoin:miter;stroke:rgb(100%,98.039216%,80.392157%);stroke-opacity:1;stroke-miterlimit:4;" d="M 204.602756 121.665252 C 204.602756 117.852752 204.352756 117.290252 203.040256 118.415252 C 201.790256 119.415252 201.102756 119.165252 199.665256 116.915252 C 198.665256 115.352752 197.415256 114.415252 196.852756 114.727752 C 196.352756 115.040252 195.915256 114.290252 195.915256 113.040252 C 195.915256 111.790252 195.415256 111.040252 194.852756 111.352752 C 194.290256 111.727752 193.040256 110.540252 192.102756 108.727752 C 190.665256 105.915252 190.040256 105.602752 188.352756 106.477752 C 185.227756 108.165252 181.790256 113.540252 181.790256 116.727752 C 181.790256 121.165252 180.040256 120.040252 178.540256 114.665252 C 176.540256 107.540252 172.602756 103.665252 166.602756 102.915252 C 163.540256 102.540252 161.102756 101.477752 159.915256 100.102752 C 158.790256 98.665252 156.227756 97.602752 153.165255 97.165252 C 149.415255 96.665252 148.227755 96.040252 148.415255 94.727752 C 148.602755 93.727752 147.790255 92.915252 146.540255 92.665252 C 141.665255 91.852752 141.165255 91.352752 143.602755 89.665252 C 144.977755 88.665252 146.977755 88.290252 148.540255 88.665252 C 151.477755 89.415252 153.602756 87.352752 150.977755 86.352752 C 150.040255 85.977752 149.290255 84.977752 149.290255 84.165252 C 149.290255 83.352752 148.790255 82.665252 148.165255 82.665252 C 147.602755 82.665252 147.102755 83.227752 147.102755 83.977752 C 147.102755 84.977752 146.790255 84.977752 145.790255 83.977752 C 144.040255 82.227752 142.727755 82.290252 142.727755 84.102752 C 142.727755 84.915252 141.540255 86.915252 140.040255 88.540252 C 138.415255 90.227752 137.352755 90.852752 137.352755 89.977752 C 137.352755 89.102752 136.102755 87.290252 134.540255 85.852752 C 132.415255 83.852752 131.602755 83.602752 130.915255 84.665252 C 130.415255 85.477752 129.727755 86.040252 129.352755 85.977752 C 126.165255 85.602752 124.540255 86.352752 122.852755 89.165252 C 120.477755 93.165252 116.352755 93.727752 116.915255 89.977752 C 117.165255 88.352752 118.102755 87.415252 119.790255 87.165252 C 121.915255 86.915252 122.227755 86.352752 121.665255 84.227752 C 121.227755 82.290252 121.477755 81.602752 122.602755 81.602752 C 123.477755 81.602752 124.852755 80.665252 125.665255 79.477752 C 126.540255 78.227752 128.727755 77.290252 131.415255 77.040252 C 134.227755 76.790252 136.790255 75.665252 138.852755 73.665252 C 141.852755 70.852752 141.852755 70.727752 139.602755 70.727752 C 137.665255 70.727752 137.352755 70.290252 137.852755 68.540252 C 138.227755 67.352752 138.102755 66.415252 137.540255 66.415252 C 136.165255 66.415252 132.852755 70.227752 133.665255 71.040252 C 133.977755 71.352752 133.977755 72.227752 133.540255 72.852752 C 132.977755 73.790252 132.415255 73.727752 131.290255 72.852752 C 130.477755 72.165252 129.290255 71.915252 128.727755 72.352752 C 125.727755 74.165252 128.102755 70.477752 132.102755 67.040252 C 136.727755 63.040252 138.102755 62.665252 142.602755 63.852752 C 144.415255 64.352752 144.727755 64.727752 143.665255 65.415252 C 142.540255 66.102752 142.540255 66.602752 143.540255 67.602752 C 144.602755 68.665252 145.540255 68.602752 147.852755 67.540252 C 153.665256 64.852752 162.790256 63.165252 173.790256 62.790252 C 177.727756 62.665252 190.602756 77.477752 196.227756 88.665252 C 199.477756 95.165252 202.352756 104.915252 202.040256 108.665252 C 201.915256 110.852752 202.352756 111.352752 204.165256 111.165252 C 206.165256 110.977752 206.540256 111.665252 207.165256 116.915252 C 207.727756 121.540252 207.477756 123.290252 206.227756 124.540252 C 204.727756 126.040252 204.602756 125.727752 204.602756 121.665252 Z M 161.165256 91.602752 C 161.102756 91.165252 160.477756 89.602752 159.665256 88.165252 C 158.852756 86.665252 158.415256 84.852752 158.727756 84.040252 C 159.352756 82.415252 158.102756 82.290252 155.852756 83.665252 C 154.477756 84.540252 154.540256 85.227752 156.352756 88.540252 C 158.165256 91.915252 161.290256 93.915252 161.165256 91.602752 Z M 161.165256 91.602752 " transform="matrix(0.0625,0,0,0.0625,0.0677967,0.0677968)"/>
<path style="fill-rule:evenodd;fill:rgb(93.333333%,90.980392%,66.666667%);fill-opacity:1;stroke-width:1.23878;stroke-linecap:butt;stroke-linejoin:miter;stroke:rgb(100%,98.039216%,80.392157%);stroke-opacity:1;stroke-miterlimit:4;" d="M 75.415254 170.852753 C 73.040254 170.477753 72.415254 169.540253 71.352754 164.977753 C 70.665254 161.977753 70.102754 156.540253 70.102754 152.852753 C 70.102754 147.415253 69.602754 145.727753 67.540254 143.477752 C 66.102754 141.915252 64.102754 138.165252 62.977754 135.102752 C 61.227754 129.977752 61.165254 129.227752 62.727754 125.915252 C 63.665254 123.915252 64.602754 121.290252 64.852754 120.102752 C 65.227754 118.290252 66.040254 117.977752 69.977754 118.102752 C 73.040254 118.290252 75.540254 119.165252 77.040254 120.602752 C 78.352754 121.790252 80.040254 122.790252 80.727754 122.790252 C 81.477754 122.790252 82.602754 123.915252 83.227754 125.352752 C 84.477754 128.102752 89.477754 131.415252 91.290254 130.727752 C 91.915254 130.540252 93.352754 131.290252 94.415254 132.477752 C 96.290255 134.540252 96.290255 134.852752 94.602754 137.352752 C 93.665254 138.852752 92.852754 141.540252 92.852754 143.352752 C 92.852754 145.540253 91.915254 147.477753 90.165254 148.977753 C 88.665254 150.290253 86.915254 152.977753 86.290254 154.977753 C 85.602754 156.977753 84.165254 159.102753 83.102754 159.665253 C 81.790254 160.352753 81.290254 161.477753 81.665254 162.915253 C 82.102754 164.415253 81.727754 165.102753 80.477754 165.102753 C 78.727754 165.102753 78.352754 166.165253 78.665254 169.727753 C 78.790254 170.727753 78.727754 171.540253 78.540254 171.415253 C 78.352754 171.352753 76.915254 171.102753 75.415254 170.852753 Z M 75.415254 170.852753 " transform="matrix(0.0625,0,0,0.0625,0.0677967,0.0677968)"/>
<path style="fill-rule:evenodd;fill:rgb(93.333333%,90.980392%,66.666667%);fill-opacity:1;stroke-width:1.23878;stroke-linecap:butt;stroke-linejoin:miter;stroke:rgb(100%,98.039216%,80.392157%);stroke-opacity:1;stroke-miterlimit:4;" d="M 108.415255 202.977753 C 105.352755 202.477753 99.540255 200.727753 95.415255 199.165253 C 91.352754 197.602753 86.852754 196.227753 85.540254 196.102753 C 82.602754 195.790253 80.915254 194.415253 83.477754 194.415253 C 84.477754 194.415253 85.165254 193.915253 84.977754 193.352753 C 84.852754 192.852753 85.665254 191.665253 86.852754 190.790253 C 88.852754 189.290253 89.165254 189.415253 91.227754 193.102753 L 93.415254 197.040253 L 104.290255 197.165253 C 112.352755 197.290253 115.727755 196.915253 117.665255 195.665253 C 119.352755 194.540253 124.477755 193.727753 132.852755 193.227753 C 139.790255 192.790253 147.602755 191.852753 150.227755 191.165253 C 153.540255 190.352753 155.352756 190.290253 156.165256 191.102753 C 156.790256 191.727753 158.165256 192.227753 159.290256 192.227753 C 160.415256 192.227753 161.040256 192.727753 160.665256 193.290253 C 160.290256 193.915253 160.602756 194.415253 161.415256 194.415253 C 164.602756 194.540253 147.602755 200.915253 140.102755 202.477753 C 131.415255 204.290253 117.477755 204.477753 108.415255 202.977753 Z M 108.415255 202.977753 " transform="matrix(0.0625,0,0,0.0625,0.0677967,0.0677968)"/>
<path style="fill-rule:evenodd;fill:rgb(93.333333%,90.980392%,66.666667%);fill-opacity:1;stroke-width:1.23878;stroke-linecap:butt;stroke-linejoin:miter;stroke:rgb(100%,98.039216%,80.392157%);stroke-opacity:1;stroke-miterlimit:4;" d="M 62.290254 101.227752 C 61.602754 98.852752 61.102754 98.665252 56.102754 99.165252 L 50.665254 99.665252 L 52.290254 95.790252 C 54.477754 90.540252 61.852754 79.290252 65.102754 76.227752 L 67.727754 73.790252 L 69.602754 76.602752 L 71.477754 79.477752 L 74.040254 77.102752 C 75.415254 75.790252 76.602754 73.852752 76.602754 72.852752 C 76.602754 71.790252 77.352754 70.665252 78.290254 70.290252 C 80.665254 69.415252 80.602754 69.352752 81.227754 71.790252 C 81.540254 72.977752 82.602754 73.977752 83.540254 73.977752 C 84.477754 73.977752 85.290254 74.727752 85.290254 75.602752 C 85.290254 76.477752 85.665254 77.227752 86.227754 77.227752 C 86.727754 77.227752 87.415254 78.477752 87.665254 79.915252 C 88.040254 81.790252 87.727754 82.665252 86.727754 82.665252 C 85.915254 82.665252 85.290254 81.977752 85.290254 81.102752 C 85.290254 79.102752 83.040254 78.352752 80.602754 79.602752 C 79.290254 80.290252 78.852754 81.290252 79.290254 82.727752 C 79.790254 84.290252 79.290254 85.102752 77.227754 85.852752 C 73.165254 87.415252 63.727754 97.727752 63.352754 100.977752 L 63.040254 103.790252 Z M 66.290254 86.665252 C 67.665254 88.540252 67.790254 88.540252 68.477754 86.665252 C 69.352754 84.540252 66.352754 80.477752 63.977754 80.477752 C 62.165254 80.477752 60.665254 82.977752 62.165254 83.477752 C 62.790254 83.665252 63.102754 84.915252 62.852754 86.227752 C 62.352754 88.415252 62.415254 88.477752 63.602754 86.665252 C 64.790254 84.727752 64.915254 84.727752 66.290254 86.665252 Z M 66.290254 86.665252 " transform="matrix(0.0625,0,0,0.0625,0.0677967,0.0677968)"/>
<path style="fill-rule:evenodd;fill:rgb(93.333333%,90.980392%,66.666667%);fill-opacity:1;stroke-width:1.23878;stroke-linecap:butt;stroke-linejoin:miter;stroke:rgb(100%,98.039216%,80.392157%);stroke-opacity:1;stroke-miterlimit:4;" d="M 94.540254 68.915252 C 94.165254 67.977752 94.665254 66.290252 95.665255 65.227752 C 97.852755 62.790252 96.790255 58.977752 93.602754 57.790252 C 91.665254 57.040252 92.227754 56.727752 96.977755 55.665252 C 100.165255 54.977752 106.102755 54.477752 110.165255 54.477752 L 117.602755 54.477752 L 112.352755 59.852752 C 109.477755 62.852752 106.415255 65.290252 105.540255 65.290252 C 104.602755 65.290252 102.415255 66.540252 100.665255 68.040252 C 96.852755 71.165252 95.540255 71.415252 94.540254 68.915252 Z M 94.540254 68.915252 " transform="matrix(0.0625,0,0,0.0625,0.0677967,0.0677968)"/>
</g>
</svg>
