
<svg xmlns="http://www.w3.org/2000/svg" xmlns:xlink="http://www.w3.org/1999/xlink" width="16px" height="16px" viewBox="0 0 16 16" version="1.1">
<g id="surface1">
<path style=" stroke:none;fill-rule:nonzero;fill:rgb(100%,87.058824%,67.843137%);fill-opacity:1;" d="M 14.351562 12.238281 C 20.105469 4.058594 9.480469 -4.234375 2.703125 2.433594 C -3.683594 8.714844 2.238281 18.476562 10.183594 15.425781 C 11.839844 14.789062 13.296875 13.742188 14.351562 12.238281 Z M 14.351562 12.238281 "/>
<path style=" stroke:none;fill-rule:nonzero;fill:rgb(93.333333%,85.098039%,66.666667%);fill-opacity:1;" d="M 9.667969 11.515625 C 9.644531 11.476562 8.988281 11.453125 7.910156 11.453125 C 6.28125 11.453125 6.179688 11.445312 6.027344 11.328125 C 5.886719 11.214844 5.773438 11.203125 4.878906 11.203125 L 3.886719 11.203125 L 3.886719 7.515625 L 4.0625 7.515625 C 4.164062 7.515625 4.292969 7.457031 4.355469 7.390625 C 4.417969 7.320312 4.53125 7.265625 4.605469 7.265625 C 4.679688 7.265625 4.792969 7.207031 4.855469 7.140625 C 4.917969 7.070312 5.03125 7.015625 5.105469 7.015625 C 5.179688 7.015625 5.292969 6.957031 5.355469 6.890625 C 5.417969 6.820312 5.53125 6.765625 5.605469 6.765625 C 5.679688 6.765625 5.792969 6.707031 5.855469 6.640625 C 5.917969 6.570312 6.03125 6.515625 6.105469 6.515625 C 6.179688 6.515625 6.292969 6.457031 6.355469 6.390625 C 6.417969 6.320312 6.53125 6.265625 6.605469 6.265625 C 6.679688 6.265625 6.792969 6.207031 6.855469 6.140625 C 6.917969 6.070312 7.03125 6.015625 7.105469 6.015625 C 7.179688 6.015625 7.292969 5.957031 7.355469 5.890625 C 7.417969 5.820312 7.53125 5.765625 7.605469 5.765625 C 7.679688 5.765625 7.792969 5.707031 7.855469 5.640625 C 7.917969 5.570312 8.03125 5.515625 8.105469 5.515625 C 8.179688 5.515625 8.292969 5.457031 8.355469 5.390625 C 8.417969 5.320312 8.53125 5.265625 8.605469 5.265625 C 8.679688 5.265625 8.792969 5.207031 8.855469 5.140625 C 8.917969 5.070312 9.027344 5.015625 9.101562 5.015625 C 9.175781 5.015625 9.34375 4.902344 9.480469 4.765625 C 9.71875 4.519531 9.734375 4.515625 10.164062 4.515625 L 10.601562 4.515625 L 11.058594 4.964844 C 11.335938 5.242188 11.511719 5.46875 11.511719 5.550781 C 11.511719 5.621094 11.566406 5.734375 11.636719 5.796875 C 11.730469 5.878906 11.761719 5.988281 11.761719 6.210938 C 11.761719 6.378906 11.789062 6.515625 11.824219 6.515625 C 11.863281 6.515625 11.886719 7.324219 11.886719 8.824219 L 11.886719 11.136719 L 11.664062 11.355469 L 11.445312 11.578125 L 10.574219 11.578125 C 10.0625 11.578125 9.691406 11.550781 9.667969 11.515625 Z M 9.667969 11.515625 "/>
<path style=" stroke:none;fill-rule:nonzero;fill:rgb(76.862745%,56.078431%,11.372549%);fill-opacity:1;" d="M 9.949219 11.507812 C 9.949219 11.46875 9.910156 11.453125 9.863281 11.472656 C 9.816406 11.488281 9.75 11.476562 9.71875 11.445312 C 9.683594 11.410156 8.976562 11.382812 8.027344 11.382812 C 6.78125 11.378906 6.371094 11.359375 6.285156 11.296875 C 6.195312 11.230469 6.1875 11.199219 6.25 11.121094 C 6.363281 10.984375 9.925781 11.042969 10.089844 11.183594 C 10.160156 11.25 10.351562 11.28125 10.703125 11.289062 C 11.207031 11.300781 11.210938 11.296875 11.394531 11.089844 C 11.5625 10.898438 11.582031 10.835938 11.578125 10.460938 C 11.574219 10.230469 11.585938 9.683594 11.601562 9.238281 C 11.621094 8.761719 11.605469 8.386719 11.570312 8.316406 C 11.480469 8.144531 11.011719 8.15625 10.851562 8.332031 C 10.75 8.441406 10.726562 8.597656 10.695312 9.316406 C 10.675781 9.785156 10.679688 10.246094 10.707031 10.339844 C 10.796875 10.675781 10.6875 10.707031 9.527344 10.671875 C 8.6875 10.640625 8.464844 10.617188 8.375 10.535156 C 8.285156 10.453125 8.105469 10.429688 7.433594 10.425781 C 6.78125 10.417969 6.5625 10.394531 6.402344 10.308594 C 6.242188 10.21875 6.027344 10.199219 5.300781 10.195312 C 4.804688 10.191406 4.367188 10.203125 4.335938 10.226562 C 4.300781 10.246094 4.253906 10.351562 4.230469 10.453125 C 4.160156 10.765625 4.273438 10.835938 4.820312 10.828125 C 5.789062 10.8125 5.953125 10.824219 5.992188 10.921875 C 6.011719 10.976562 6.011719 11.035156 5.988281 11.058594 C 5.9375 11.109375 4.226562 11.160156 4.042969 11.113281 L 3.886719 11.074219 L 3.886719 7.574219 L 4.082031 7.574219 C 4.1875 7.574219 4.34375 7.519531 4.433594 7.449219 C 4.519531 7.382812 4.632812 7.324219 4.683594 7.324219 C 4.734375 7.324219 4.84375 7.269531 4.933594 7.199219 C 5.019531 7.132812 5.132812 7.074219 5.183594 7.074219 C 5.234375 7.074219 5.34375 7.019531 5.433594 6.949219 C 5.519531 6.882812 5.632812 6.824219 5.683594 6.824219 C 5.734375 6.824219 5.84375 6.769531 5.933594 6.699219 C 6.019531 6.632812 6.144531 6.574219 6.207031 6.574219 C 6.273438 6.574219 6.382812 6.519531 6.449219 6.449219 C 6.519531 6.382812 6.621094 6.324219 6.675781 6.324219 C 6.730469 6.324219 6.84375 6.269531 6.933594 6.199219 C 7.019531 6.132812 7.132812 6.074219 7.183594 6.074219 C 7.234375 6.074219 7.34375 6.019531 7.433594 5.949219 C 7.519531 5.882812 7.632812 5.824219 7.683594 5.824219 C 7.734375 5.824219 7.84375 5.769531 7.933594 5.699219 C 8.019531 5.632812 8.144531 5.574219 8.207031 5.574219 C 8.273438 5.574219 8.382812 5.519531 8.449219 5.449219 C 8.519531 5.382812 8.621094 5.324219 8.675781 5.324219 C 8.730469 5.324219 8.84375 5.269531 8.933594 5.199219 C 9.019531 5.132812 9.136719 5.074219 9.195312 5.074219 C 9.253906 5.074219 9.410156 4.964844 9.542969 4.824219 C 9.777344 4.585938 9.804688 4.574219 10.171875 4.574219 L 10.558594 4.574219 L 11.003906 5.050781 C 11.25 5.308594 11.449219 5.574219 11.449219 5.632812 C 11.449219 5.695312 11.507812 5.796875 11.574219 5.855469 C 11.667969 5.941406 11.699219 6.050781 11.699219 6.265625 C 11.699219 6.472656 11.726562 6.574219 11.792969 6.597656 C 11.875 6.628906 11.886719 6.9375 11.886719 8.832031 L 11.886719 11.03125 L 11.597656 11.304688 L 11.3125 11.574219 L 10.628906 11.574219 C 10.175781 11.574219 9.949219 11.554688 9.949219 11.507812 Z M 11.480469 7.726562 C 11.625 7.578125 11.585938 6.824219 11.421875 6.640625 C 11.347656 6.5625 11.308594 6.429688 11.3125 6.292969 C 11.316406 6.144531 11.28125 6.039062 11.199219 5.964844 C 11.128906 5.910156 11.074219 5.789062 11.070312 5.703125 C 11.070312 5.605469 10.964844 5.429688 10.792969 5.246094 C 10.554688 4.988281 10.476562 4.941406 10.210938 4.910156 C 9.808594 4.863281 9.730469 4.972656 10 5.195312 C 10.292969 5.4375 10.511719 5.765625 10.511719 5.960938 C 10.511719 6.054688 10.542969 6.152344 10.582031 6.175781 C 10.71875 6.257812 10.933594 6.867188 10.972656 7.289062 C 11 7.527344 11.03125 7.746094 11.050781 7.773438 C 11.105469 7.863281 11.371094 7.832031 11.480469 7.726562 Z M 11.480469 7.726562 "/>
<path style=" stroke:none;fill-rule:nonzero;fill:rgb(63.137255%,41.568627%,2.745098%);fill-opacity:1;" d="M 10.011719 11.527344 C 10.011719 11.417969 9.40625 11.324219 8.671875 11.324219 C 7.957031 11.324219 7.679688 11.269531 7.921875 11.175781 C 7.976562 11.15625 8.449219 11.136719 8.972656 11.136719 C 9.773438 11.136719 9.945312 11.15625 10.074219 11.246094 C 10.179688 11.320312 10.402344 11.367188 10.757812 11.386719 C 11.097656 11.410156 11.292969 11.449219 11.308594 11.496094 C 11.328125 11.558594 11.175781 11.574219 10.671875 11.574219 C 10.308594 11.574219 10.011719 11.554688 10.011719 11.527344 Z M 6.367188 11.285156 C 6.25 11.171875 6.375 11.136719 6.945312 11.136719 C 7.582031 11.136719 7.785156 11.171875 7.726562 11.269531 C 7.6875 11.335938 6.429688 11.347656 6.367188 11.285156 Z M 11.386719 11.292969 C 11.386719 11.273438 11.441406 11.183594 11.511719 11.089844 C 11.628906 10.933594 11.640625 10.808594 11.652344 9.589844 C 11.671875 8.101562 11.683594 8.140625 11.21875 8.140625 C 11.007812 8.140625 10.933594 8.171875 10.796875 8.332031 C 10.648438 8.507812 10.636719 8.570312 10.636719 9.128906 C 10.636719 9.460938 10.609375 9.828125 10.578125 9.941406 C 10.53125 10.101562 10.539062 10.183594 10.609375 10.292969 C 10.660156 10.371094 10.683594 10.480469 10.664062 10.539062 C 10.625 10.632812 10.515625 10.640625 9.589844 10.609375 C 8.757812 10.585938 8.527344 10.558594 8.394531 10.472656 C 8.261719 10.386719 8.09375 10.367188 7.511719 10.371094 C 6.929688 10.378906 6.742188 10.355469 6.519531 10.257812 C 6.289062 10.15625 6.089844 10.136719 5.332031 10.132812 C 4.828125 10.128906 4.371094 10.148438 4.3125 10.171875 C 4.179688 10.222656 4.09375 10.617188 4.183594 10.757812 C 4.230469 10.832031 4.367188 10.863281 4.738281 10.875 C 5.320312 10.890625 5.53125 10.933594 5.480469 11.015625 C 5.457031 11.050781 5.101562 11.078125 4.664062 11.078125 L 3.886719 11.078125 L 3.886719 7.5625 L 4.042969 7.589844 C 4.144531 7.609375 4.269531 7.570312 4.398438 7.472656 C 4.507812 7.390625 4.648438 7.324219 4.710938 7.324219 C 4.773438 7.324219 4.882812 7.269531 4.949219 7.199219 C 5.019531 7.132812 5.121094 7.074219 5.175781 7.074219 C 5.230469 7.074219 5.34375 7.019531 5.433594 6.949219 C 5.519531 6.882812 5.644531 6.824219 5.707031 6.824219 C 5.773438 6.824219 5.878906 6.773438 5.941406 6.707031 C 6.019531 6.628906 6.117188 6.601562 6.222656 6.621094 C 6.316406 6.640625 6.386719 6.625 6.386719 6.585938 C 6.386719 6.480469 6.574219 6.324219 6.703125 6.324219 C 6.769531 6.324219 6.882812 6.269531 6.949219 6.199219 C 7.019531 6.132812 7.132812 6.074219 7.199219 6.074219 C 7.269531 6.074219 7.382812 6.019531 7.449219 5.949219 C 7.519531 5.882812 7.632812 5.824219 7.699219 5.824219 C 7.769531 5.824219 7.882812 5.769531 7.949219 5.699219 C 8.019531 5.632812 8.132812 5.574219 8.207031 5.574219 C 8.277344 5.574219 8.40625 5.519531 8.496094 5.449219 C 8.582031 5.382812 8.703125 5.324219 8.761719 5.324219 C 8.824219 5.324219 8.90625 5.285156 8.949219 5.230469 C 8.992188 5.179688 9.078125 5.136719 9.140625 5.136719 C 9.199219 5.136719 9.375 5.015625 9.53125 4.867188 C 9.800781 4.605469 9.820312 4.597656 10.179688 4.605469 C 10.582031 4.617188 10.503906 4.558594 11.292969 5.410156 C 11.378906 5.503906 11.449219 5.625 11.449219 5.671875 C 11.449219 5.722656 11.507812 5.820312 11.574219 5.886719 C 11.664062 5.976562 11.695312 6.085938 11.6875 6.269531 C 11.683594 6.453125 11.710938 6.546875 11.785156 6.585938 C 11.871094 6.636719 11.886719 6.753906 11.886719 7.296875 C 11.886719 7.765625 11.867188 7.949219 11.8125 7.949219 C 11.753906 7.949219 11.753906 7.96875 11.8125 8.027344 C 11.867188 8.082031 11.886719 8.507812 11.886719 9.558594 L 11.886719 11.019531 L 11.714844 11.171875 C 11.558594 11.308594 11.386719 11.371094 11.386719 11.292969 Z M 6.449219 8.449219 C 6.449219 8.417969 6.421875 8.386719 6.386719 8.386719 C 6.351562 8.386719 6.324219 8.417969 6.324219 8.449219 C 6.324219 8.484375 6.351562 8.511719 6.386719 8.511719 C 6.421875 8.511719 6.449219 8.484375 6.449219 8.449219 Z M 7.589844 8.371094 C 7.582031 8.347656 7.558594 8.324219 7.542969 8.324219 C 7.527344 8.324219 7.386719 8.324219 7.230469 8.324219 C 7.074219 8.324219 6.949219 8.355469 6.949219 8.386719 C 6.949219 8.421875 7.09375 8.441406 7.277344 8.433594 C 7.457031 8.425781 7.597656 8.398438 7.589844 8.371094 Z M 5.351562 8.164062 C 5.507812 8.101562 5.398438 8.011719 5.164062 8.011719 C 4.925781 8.011719 4.871094 8.113281 5.089844 8.15625 C 5.167969 8.171875 5.234375 8.1875 5.242188 8.191406 C 5.246094 8.195312 5.296875 8.183594 5.351562 8.164062 Z M 4.636719 8.074219 C 4.636719 8.042969 4.566406 8.011719 4.480469 8.011719 C 4.394531 8.011719 4.324219 8.042969 4.324219 8.074219 C 4.324219 8.109375 4.394531 8.136719 4.480469 8.136719 C 4.566406 8.136719 4.636719 8.109375 4.636719 8.074219 Z M 5.839844 8.097656 C 5.796875 8.078125 5.726562 8.078125 5.683594 8.097656 C 5.640625 8.113281 5.675781 8.128906 5.761719 8.128906 C 5.847656 8.128906 5.882812 8.113281 5.839844 8.097656 Z M 10.585938 7.527344 C 10.570312 7.144531 10.539062 7.023438 10.445312 6.941406 C 10.378906 6.882812 10.324219 6.765625 10.324219 6.675781 C 10.324219 6.585938 10.269531 6.464844 10.199219 6.40625 C 10.128906 6.347656 10.074219 6.230469 10.074219 6.144531 C 10.074219 6.042969 9.980469 5.902344 9.792969 5.726562 C 9.566406 5.519531 9.46875 5.46875 9.308594 5.480469 C 9.167969 5.492188 9.085938 5.539062 9.042969 5.632812 C 8.992188 5.75 8.945312 5.769531 8.78125 5.742188 C 8.621094 5.714844 8.5625 5.738281 8.480469 5.863281 C 8.425781 5.949219 8.332031 6.015625 8.273438 6.007812 C 8.078125 5.988281 8.027344 6.011719 7.992188 6.140625 C 7.96875 6.238281 7.914062 6.261719 7.765625 6.25 C 7.625 6.242188 7.546875 6.277344 7.472656 6.378906 C 7.40625 6.476562 7.332031 6.511719 7.25 6.492188 C 7.171875 6.472656 7.082031 6.511719 6.996094 6.613281 C 6.917969 6.699219 6.796875 6.761719 6.703125 6.761719 C 6.414062 6.761719 5.605469 7.265625 5.65625 7.414062 C 5.667969 7.453125 5.800781 7.5 5.953125 7.523438 C 6.382812 7.589844 6.601562 7.652344 6.644531 7.71875 C 6.679688 7.769531 7.484375 7.800781 9.203125 7.816406 C 9.390625 7.816406 9.632812 7.863281 9.734375 7.917969 C 9.835938 7.96875 10.074219 8.011719 10.261719 8.011719 L 10.609375 8.011719 Z M 11.59375 7.5625 C 11.644531 7.175781 11.570312 6.699219 11.4375 6.566406 C 11.367188 6.492188 11.324219 6.359375 11.324219 6.207031 C 11.324219 6.070312 11.285156 5.933594 11.230469 5.886719 C 11.179688 5.84375 11.136719 5.734375 11.136719 5.644531 C 11.136719 5.527344 11.046875 5.386719 10.835938 5.179688 C 10.582031 4.929688 10.488281 4.878906 10.222656 4.847656 C 9.992188 4.820312 9.894531 4.835938 9.839844 4.902344 C 9.777344 4.976562 9.824219 5.054688 10.105469 5.339844 C 10.394531 5.628906 10.449219 5.722656 10.449219 5.910156 C 10.449219 6.058594 10.5 6.1875 10.605469 6.300781 C 10.691406 6.394531 10.761719 6.519531 10.761719 6.578125 C 10.761719 6.636719 10.804688 6.785156 10.855469 6.910156 C 10.90625 7.035156 10.949219 7.269531 10.949219 7.4375 C 10.949219 7.605469 10.96875 7.761719 10.992188 7.785156 C 11.015625 7.808594 11.152344 7.824219 11.296875 7.824219 C 11.554688 7.824219 11.558594 7.824219 11.59375 7.5625 Z M 5.609375 11.019531 C 5.566406 10.945312 5.796875 10.863281 5.886719 10.917969 C 5.921875 10.941406 5.933594 10.984375 5.914062 11.019531 C 5.867188 11.09375 5.65625 11.09375 5.609375 11.019531 Z M 5.609375 11.019531 "/>
<path style=" stroke:none;fill-rule:nonzero;fill:rgb(55.686275%,0.392157%,30.588235%);fill-opacity:1;" d="M 10.011719 11.527344 C 10.011719 11.417969 9.40625 11.324219 8.671875 11.324219 C 7.957031 11.324219 7.679688 11.269531 7.921875 11.175781 C 7.976562 11.15625 8.449219 11.136719 8.972656 11.136719 C 9.773438 11.136719 9.945312 11.15625 10.074219 11.246094 C 10.179688 11.320312 10.402344 11.367188 10.757812 11.386719 C 11.097656 11.410156 11.292969 11.449219 11.308594 11.496094 C 11.328125 11.558594 11.175781 11.574219 10.671875 11.574219 C 10.308594 11.574219 10.011719 11.554688 10.011719 11.527344 Z M 6.367188 11.285156 C 6.25 11.171875 6.375 11.136719 6.945312 11.136719 C 7.582031 11.136719 7.785156 11.171875 7.726562 11.269531 C 7.6875 11.335938 6.429688 11.347656 6.367188 11.285156 Z M 11.386719 11.292969 C 11.386719 11.273438 11.441406 11.183594 11.511719 11.089844 C 11.628906 10.933594 11.640625 10.808594 11.652344 9.589844 C 11.671875 8.09375 11.683594 8.140625 11.199219 8.140625 C 10.949219 8.140625 10.902344 8.164062 10.769531 8.355469 C 10.640625 8.546875 10.621094 8.652344 10.609375 9.277344 C 10.597656 9.664062 10.570312 10.03125 10.542969 10.09375 C 10.515625 10.164062 10.535156 10.246094 10.601562 10.320312 C 10.65625 10.382812 10.683594 10.476562 10.664062 10.539062 C 10.625 10.632812 10.515625 10.640625 9.589844 10.609375 C 8.757812 10.585938 8.527344 10.558594 8.394531 10.472656 C 8.261719 10.386719 8.09375 10.367188 7.511719 10.371094 C 6.941406 10.378906 6.738281 10.355469 6.535156 10.265625 C 6.347656 10.183594 6.09375 10.148438 5.628906 10.136719 C 4.242188 10.109375 4.136719 10.136719 4.136719 10.535156 C 4.136719 10.839844 4.226562 10.886719 4.800781 10.886719 C 5.339844 10.886719 5.535156 10.925781 5.476562 11.019531 C 5.457031 11.050781 5.09375 11.074219 4.664062 11.074219 L 3.886719 11.074219 L 3.886719 7.5625 L 4.042969 7.589844 C 4.144531 7.609375 4.269531 7.570312 4.398438 7.472656 C 4.507812 7.390625 4.648438 7.324219 4.710938 7.324219 C 4.773438 7.324219 4.882812 7.269531 4.949219 7.199219 C 5.019531 7.132812 5.121094 7.074219 5.175781 7.074219 C 5.230469 7.074219 5.34375 7.019531 5.433594 6.949219 C 5.519531 6.882812 5.644531 6.824219 5.707031 6.824219 C 5.773438 6.824219 5.878906 6.769531 5.945312 6.703125 C 6.0625 6.589844 6.324219 6.585938 6.324219 6.703125 C 6.324219 6.730469 6.128906 6.894531 5.886719 7.070312 C 5.648438 7.246094 5.449219 7.417969 5.449219 7.449219 C 5.449219 7.539062 5.695312 7.652344 5.800781 7.613281 C 5.949219 7.554688 6.210938 7.6875 6.1875 7.808594 C 6.167969 7.910156 6.070312 7.917969 5.230469 7.917969 L 4.292969 7.917969 L 4.253906 8.261719 L 5.035156 8.261719 C 5.890625 8.261719 6.105469 8.3125 6.167969 8.515625 C 6.207031 8.636719 6.246094 8.648438 6.476562 8.617188 C 6.621094 8.597656 7.035156 8.5625 7.398438 8.539062 L 8.054688 8.496094 L 8.210938 8.664062 L 8.367188 8.835938 L 9.363281 8.78125 L 10.355469 8.730469 L 10.355469 8.511719 C 10.355469 8.214844 10.421875 8.136719 10.671875 8.136719 C 10.917969 8.136719 10.96875 8 10.761719 7.886719 C 10.65625 7.832031 10.636719 7.757812 10.636719 7.363281 C 10.636719 6.988281 10.617188 6.886719 10.511719 6.792969 C 10.445312 6.730469 10.386719 6.632812 10.386719 6.574219 C 10.386719 6.515625 10.335938 6.402344 10.273438 6.320312 C 10.207031 6.238281 10.136719 6.097656 10.117188 6.007812 C 10.09375 5.917969 9.949219 5.726562 9.796875 5.585938 C 9.578125 5.382812 9.464844 5.324219 9.292969 5.324219 C 9.117188 5.324219 9.058594 5.359375 9 5.480469 C 8.945312 5.601562 8.882812 5.636719 8.722656 5.636719 C 8.582031 5.636719 8.496094 5.675781 8.449219 5.761719 C 8.40625 5.84375 8.320312 5.886719 8.199219 5.886719 C 8.082031 5.886719 7.992188 5.933594 7.949219 6.011719 C 7.90625 6.09375 7.820312 6.136719 7.699219 6.136719 C 7.582031 6.136719 7.492188 6.183594 7.449219 6.261719 C 7.40625 6.34375 7.320312 6.386719 7.199219 6.386719 C 7.082031 6.386719 6.992188 6.433594 6.949219 6.511719 C 6.898438 6.605469 6.820312 6.636719 6.632812 6.636719 C 6.5 6.636719 6.386719 6.613281 6.386719 6.582031 C 6.386719 6.480469 6.578125 6.324219 6.703125 6.324219 C 6.769531 6.324219 6.878906 6.269531 6.949219 6.199219 C 7.019531 6.132812 7.128906 6.074219 7.199219 6.074219 C 7.269531 6.074219 7.378906 6.019531 7.449219 5.949219 C 7.519531 5.882812 7.628906 5.824219 7.699219 5.824219 C 7.769531 5.824219 7.878906 5.769531 7.949219 5.699219 C 8.019531 5.632812 8.132812 5.574219 8.207031 5.574219 C 8.277344 5.574219 8.40625 5.519531 8.496094 5.449219 C 8.582031 5.382812 8.703125 5.324219 8.761719 5.324219 C 8.824219 5.324219 8.90625 5.285156 8.949219 5.230469 C 8.992188 5.179688 9.078125 5.136719 9.140625 5.136719 C 9.199219 5.136719 9.375 5.015625 9.53125 4.867188 C 9.800781 4.605469 9.820312 4.597656 10.179688 4.605469 C 10.582031 4.617188 10.5 4.558594 11.292969 5.410156 C 11.378906 5.503906 11.449219 5.621094 11.449219 5.671875 C 11.449219 5.722656 11.503906 5.820312 11.574219 5.886719 C 11.664062 5.976562 11.695312 6.085938 11.6875 6.269531 C 11.679688 6.453125 11.707031 6.542969 11.78125 6.585938 C 11.871094 6.632812 11.886719 6.753906 11.886719 7.292969 C 11.886719 7.75 11.863281 7.949219 11.808594 7.976562 C 11.746094 8.007812 11.746094 8.019531 11.808594 8.050781 C 11.867188 8.078125 11.886719 8.441406 11.886719 9.554688 L 11.886719 11.019531 L 11.714844 11.171875 C 11.558594 11.308594 11.386719 11.371094 11.386719 11.292969 Z M 11.59375 7.5625 C 11.644531 7.175781 11.570312 6.699219 11.4375 6.566406 C 11.367188 6.492188 11.324219 6.359375 11.324219 6.207031 C 11.324219 6.070312 11.285156 5.933594 11.230469 5.886719 C 11.179688 5.847656 11.136719 5.738281 11.136719 5.648438 C 11.136719 5.425781 10.644531 4.917969 10.378906 4.863281 C 10.078125 4.804688 9.910156 4.820312 9.832031 4.910156 C 9.777344 4.976562 9.839844 5.070312 10.105469 5.339844 C 10.394531 5.628906 10.449219 5.722656 10.449219 5.910156 C 10.449219 6.058594 10.5 6.1875 10.605469 6.300781 C 10.691406 6.394531 10.761719 6.519531 10.761719 6.578125 C 10.761719 6.636719 10.804688 6.785156 10.855469 6.910156 C 10.90625 7.035156 10.949219 7.269531 10.949219 7.4375 C 10.949219 7.605469 10.96875 7.761719 10.992188 7.785156 C 11.015625 7.808594 11.152344 7.824219 11.296875 7.824219 C 11.554688 7.824219 11.558594 7.824219 11.59375 7.5625 Z M 5.609375 11.019531 C 5.566406 10.945312 5.796875 10.863281 5.886719 10.921875 C 5.921875 10.941406 5.933594 10.984375 5.914062 11.019531 C 5.867188 11.09375 5.65625 11.09375 5.609375 11.019531 Z M 7.027344 8.164062 C 6.886719 8.097656 6.941406 7.894531 7.109375 7.851562 C 7.359375 7.789062 8.570312 7.859375 8.652344 7.941406 C 8.808594 8.097656 8.585938 8.164062 7.839844 8.179688 C 7.4375 8.191406 7.070312 8.183594 7.027344 8.164062 Z M 7.027344 8.164062 "/>
<path style=" stroke:none;fill-rule:nonzero;fill:rgb(41.960784%,31.372549%,11.764706%);fill-opacity:1;" d="M 10.011719 11.527344 C 10.011719 11.417969 9.40625 11.324219 8.671875 11.324219 C 7.957031 11.324219 7.679688 11.269531 7.921875 11.175781 C 7.976562 11.15625 8.449219 11.136719 8.972656 11.136719 C 9.773438 11.136719 9.945312 11.15625 10.074219 11.246094 C 10.179688 11.320312 10.402344 11.367188 10.757812 11.386719 C 11.097656 11.410156 11.292969 11.449219 11.308594 11.496094 C 11.328125 11.558594 11.175781 11.574219 10.671875 11.574219 C 10.308594 11.574219 10.011719 11.554688 10.011719 11.527344 Z M 6.367188 11.285156 C 6.25 11.171875 6.375 11.136719 6.945312 11.136719 C 7.582031 11.136719 7.785156 11.171875 7.726562 11.269531 C 7.6875 11.335938 6.429688 11.347656 6.367188 11.285156 Z M 11.386719 11.292969 C 11.386719 11.273438 11.441406 11.183594 11.511719 11.089844 C 11.628906 10.933594 11.640625 10.808594 11.652344 9.589844 C 11.671875 8.09375 11.683594 8.140625 11.199219 8.140625 C 10.949219 8.140625 10.902344 8.164062 10.769531 8.355469 C 10.640625 8.546875 10.621094 8.652344 10.609375 9.277344 C 10.597656 9.664062 10.570312 10.03125 10.542969 10.09375 C 10.515625 10.164062 10.535156 10.246094 10.601562 10.320312 C 10.65625 10.382812 10.683594 10.476562 10.664062 10.539062 C 10.625 10.632812 10.515625 10.640625 9.589844 10.609375 C 8.757812 10.585938 8.527344 10.558594 8.394531 10.472656 C 8.261719 10.386719 8.09375 10.367188 7.511719 10.371094 C 6.941406 10.378906 6.738281 10.355469 6.535156 10.265625 C 6.347656 10.183594 6.09375 10.148438 5.628906 10.136719 C 4.242188 10.109375 4.136719 10.136719 4.136719 10.535156 C 4.136719 10.839844 4.226562 10.886719 4.800781 10.886719 C 5.339844 10.886719 5.535156 10.925781 5.476562 11.019531 C 5.457031 11.050781 5.09375 11.074219 4.664062 11.074219 L 3.886719 11.074219 L 3.886719 10.195312 C 3.886719 9.320312 3.886719 9.316406 4.027344 9.335938 C 4.136719 9.351562 4.171875 9.40625 4.1875 9.558594 C 4.207031 9.757812 4.214844 9.761719 4.53125 9.769531 C 5.761719 9.792969 6.421875 9.832031 6.652344 9.894531 C 6.796875 9.933594 7.285156 9.988281 7.730469 10.019531 C 8.175781 10.046875 8.824219 10.113281 9.167969 10.164062 C 9.871094 10.269531 10.363281 10.289062 10.410156 10.214844 C 10.429688 10.183594 10.425781 9.949219 10.40625 9.691406 L 10.371094 9.21875 L 9.550781 9.179688 C 8.8125 9.144531 8.722656 9.128906 8.632812 9.007812 C 8.539062 8.882812 8.496094 8.875 8.117188 8.914062 C 7.890625 8.941406 7.480469 8.941406 7.199219 8.914062 C 6.789062 8.878906 6.683594 8.847656 6.628906 8.75 C 6.59375 8.683594 6.574219 8.617188 6.585938 8.605469 C 6.597656 8.597656 6.929688 8.566406 7.332031 8.542969 L 8.054688 8.496094 L 8.210938 8.664062 L 8.367188 8.835938 L 9.359375 8.78125 L 10.355469 8.730469 L 10.355469 8.511719 C 10.355469 8.214844 10.417969 8.136719 10.671875 8.136719 C 10.917969 8.136719 10.96875 8 10.761719 7.886719 C 10.652344 7.832031 10.636719 7.757812 10.636719 7.363281 C 10.636719 6.988281 10.613281 6.886719 10.511719 6.792969 C 10.441406 6.730469 10.386719 6.632812 10.386719 6.574219 C 10.386719 6.515625 10.335938 6.402344 10.269531 6.320312 C 10.207031 6.238281 10.136719 6.097656 10.117188 6.007812 C 10.09375 5.917969 9.949219 5.726562 9.796875 5.585938 C 9.578125 5.382812 9.464844 5.324219 9.292969 5.324219 C 9.117188 5.324219 9.058594 5.359375 9 5.480469 C 8.945312 5.601562 8.882812 5.636719 8.722656 5.636719 C 8.578125 5.636719 8.496094 5.675781 8.449219 5.761719 C 8.40625 5.84375 8.316406 5.886719 8.199219 5.886719 C 8.078125 5.886719 7.992188 5.933594 7.949219 6.011719 C 7.90625 6.09375 7.816406 6.136719 7.699219 6.136719 C 7.578125 6.136719 7.492188 6.183594 7.449219 6.261719 C 7.40625 6.34375 7.316406 6.386719 7.199219 6.386719 C 7.078125 6.386719 6.992188 6.433594 6.949219 6.511719 C 6.898438 6.605469 6.816406 6.636719 6.632812 6.636719 C 6.496094 6.636719 6.386719 6.613281 6.386719 6.582031 C 6.386719 6.480469 6.578125 6.324219 6.703125 6.324219 C 6.769531 6.324219 6.878906 6.269531 6.949219 6.199219 C 7.015625 6.132812 7.128906 6.074219 7.199219 6.074219 C 7.265625 6.074219 7.378906 6.019531 7.449219 5.949219 C 7.515625 5.882812 7.628906 5.824219 7.699219 5.824219 C 7.765625 5.824219 7.878906 5.769531 7.949219 5.699219 C 8.015625 5.632812 8.132812 5.574219 8.203125 5.574219 C 8.277344 5.574219 8.40625 5.519531 8.496094 5.449219 C 8.582031 5.382812 8.703125 5.324219 8.761719 5.324219 C 8.820312 5.324219 8.90625 5.285156 8.949219 5.230469 C 8.992188 5.179688 9.078125 5.136719 9.136719 5.136719 C 9.199219 5.136719 9.375 5.015625 9.527344 4.867188 C 9.796875 4.605469 9.820312 4.597656 10.179688 4.605469 C 10.582031 4.617188 10.5 4.558594 11.289062 5.410156 C 11.378906 5.503906 11.449219 5.621094 11.449219 5.671875 C 11.449219 5.722656 11.503906 5.820312 11.574219 5.886719 C 11.664062 5.976562 11.695312 6.085938 11.6875 6.269531 C 11.679688 6.453125 11.707031 6.542969 11.78125 6.585938 C 11.867188 6.632812 11.886719 6.753906 11.886719 7.292969 C 11.886719 7.75 11.863281 7.949219 11.808594 7.976562 C 11.746094 8.007812 11.746094 8.019531 11.808594 8.050781 C 11.867188 8.078125 11.886719 8.441406 11.886719 9.554688 L 11.886719 11.019531 L 11.714844 11.171875 C 11.554688 11.308594 11.386719 11.371094 11.386719 11.292969 Z M 11.59375 7.5625 C 11.644531 7.175781 11.570312 6.699219 11.4375 6.566406 C 11.367188 6.492188 11.324219 6.359375 11.324219 6.207031 C 11.324219 6.070312 11.285156 5.933594 11.230469 5.886719 C 11.179688 5.847656 11.136719 5.738281 11.136719 5.648438 C 11.136719 5.425781 10.644531 4.917969 10.378906 4.863281 C 10.078125 4.804688 9.910156 4.820312 9.832031 4.910156 C 9.777344 4.976562 9.839844 5.070312 10.105469 5.339844 C 10.394531 5.628906 10.449219 5.722656 10.449219 5.910156 C 10.449219 6.058594 10.5 6.1875 10.605469 6.300781 C 10.691406 6.394531 10.761719 6.519531 10.761719 6.578125 C 10.761719 6.636719 10.804688 6.785156 10.855469 6.910156 C 10.90625 7.035156 10.949219 7.269531 10.949219 7.4375 C 10.949219 7.605469 10.96875 7.761719 10.992188 7.785156 C 11.015625 7.808594 11.152344 7.824219 11.296875 7.824219 C 11.554688 7.824219 11.558594 7.824219 11.59375 7.5625 Z M 5.609375 11.019531 C 5.566406 10.945312 5.796875 10.863281 5.886719 10.921875 C 5.921875 10.941406 5.933594 10.984375 5.914062 11.019531 C 5.867188 11.09375 5.65625 11.09375 5.609375 11.019531 Z M 3.886719 8.355469 L 3.886719 7.5625 L 4.042969 7.589844 C 4.144531 7.609375 4.269531 7.570312 4.398438 7.472656 C 4.507812 7.390625 4.648438 7.324219 4.710938 7.324219 C 4.773438 7.324219 4.882812 7.269531 4.949219 7.199219 C 5.019531 7.132812 5.121094 7.074219 5.175781 7.074219 C 5.230469 7.074219 5.34375 7.019531 5.433594 6.949219 C 5.519531 6.882812 5.644531 6.824219 5.707031 6.824219 C 5.773438 6.824219 5.878906 6.773438 5.945312 6.707031 C 6.0625 6.589844 6.324219 6.589844 6.324219 6.703125 C 6.324219 6.730469 6.128906 6.898438 5.886719 7.070312 C 5.648438 7.246094 5.449219 7.417969 5.449219 7.449219 C 5.449219 7.539062 5.695312 7.652344 5.800781 7.613281 C 5.949219 7.554688 6.210938 7.6875 6.1875 7.8125 C 6.167969 7.910156 6.070312 7.921875 5.230469 7.921875 L 4.292969 7.921875 L 4.253906 8.265625 L 5.035156 8.265625 C 5.464844 8.265625 5.886719 8.289062 5.96875 8.320312 C 6.121094 8.378906 6.234375 8.5625 6.164062 8.632812 C 6.144531 8.652344 5.761719 8.664062 5.316406 8.660156 C 4.671875 8.652344 4.480469 8.628906 4.394531 8.550781 C 4.203125 8.378906 3.96875 8.445312 4.140625 8.617188 C 4.179688 8.65625 4.199219 8.78125 4.1875 8.898438 C 4.171875 9.058594 4.136719 9.113281 4.027344 9.128906 C 3.886719 9.148438 3.886719 9.140625 3.886719 8.355469 Z M 7.027344 8.164062 C 6.886719 8.097656 6.941406 7.894531 7.109375 7.851562 C 7.359375 7.789062 8.570312 7.859375 8.652344 7.941406 C 8.808594 8.097656 8.585938 8.164062 7.839844 8.179688 C 7.4375 8.191406 7.070312 8.183594 7.027344 8.164062 Z M 7.027344 8.164062 "/>
<path style=" stroke:none;fill-rule:nonzero;fill:rgb(35.294118%,13.72549%,9.019608%);fill-opacity:1;" d="M 10.167969 11.515625 C 10.1875 11.480469 10.398438 11.453125 10.636719 11.453125 C 10.875 11.453125 11.085938 11.480469 11.105469 11.515625 C 11.128906 11.554688 10.960938 11.578125 10.636719 11.578125 C 10.3125 11.578125 10.144531 11.554688 10.167969 11.515625 Z M 3.886719 10.574219 C 3.886719 10.230469 3.910156 10.105469 3.988281 10.046875 C 4.078125 9.980469 4.078125 9.964844 3.988281 9.875 C 3.933594 9.816406 3.886719 9.671875 3.886719 9.546875 C 3.886719 9.34375 3.902344 9.320312 4.027344 9.335938 C 4.136719 9.351562 4.171875 9.40625 4.1875 9.5625 C 4.207031 9.761719 4.210938 9.765625 4.53125 9.769531 C 5.769531 9.792969 6.480469 9.832031 6.527344 9.882812 C 6.5625 9.917969 6.542969 9.953125 6.472656 9.972656 C 6.371094 10.003906 5.535156 10.03125 5.074219 10.015625 C 4.988281 10.015625 4.734375 10.035156 4.511719 10.058594 L 4.105469 10.109375 L 4.074219 10.539062 C 4.054688 10.808594 4.011719 10.984375 3.964844 11 C 3.90625 11.015625 3.886719 10.90625 3.886719 10.574219 Z M 11.761719 10.453125 C 11.761719 10.148438 11.789062 9.878906 11.824219 9.859375 C 11.863281 9.832031 11.886719 10.035156 11.886719 10.417969 C 11.886719 10.773438 11.863281 11.015625 11.824219 11.015625 C 11.789062 11.015625 11.761719 10.785156 11.761719 10.453125 Z M 8.917969 10.53125 C 8.746094 10.519531 8.5625 10.46875 8.511719 10.425781 C 8.460938 10.378906 8.277344 10.320312 8.105469 10.296875 C 7.789062 10.25 7.699219 10.25 7.148438 10.277344 C 6.777344 10.296875 6.566406 10.171875 6.742188 10.042969 C 6.820312 9.988281 7.035156 9.972656 7.476562 9.992188 C 8.429688 10.03125 8.636719 10.066406 8.597656 10.171875 C 8.578125 10.222656 8.589844 10.265625 8.625 10.265625 C 8.660156 10.265625 8.699219 10.230469 8.714844 10.191406 C 8.734375 10.132812 8.882812 10.132812 9.363281 10.195312 C 9.710938 10.238281 10.085938 10.265625 10.207031 10.257812 C 10.46875 10.234375 10.574219 10.292969 10.574219 10.460938 C 10.574219 10.578125 10.546875 10.585938 10.246094 10.550781 C 9.839844 10.503906 9.726562 10.503906 9.449219 10.535156 C 9.328125 10.546875 9.089844 10.546875 8.917969 10.53125 Z M 10.386719 9.554688 L 10.386719 9.203125 L 9.964844 9.199219 C 9.1875 9.199219 8.699219 9.128906 8.636719 9.011719 C 8.585938 8.914062 8.609375 8.902344 8.808594 8.898438 C 8.9375 8.894531 9.351562 8.871094 9.730469 8.84375 L 10.417969 8.796875 L 10.4375 8.527344 C 10.449219 8.359375 10.492188 8.242188 10.550781 8.222656 C 10.679688 8.171875 10.730469 8.242188 10.644531 8.347656 C 10.605469 8.398438 10.546875 8.75 10.519531 9.132812 C 10.464844 9.878906 10.386719 10.132812 10.386719 9.554688 Z M 11.804688 9.597656 C 11.734375 9.527344 11.753906 8.203125 11.824219 8.203125 C 11.863281 8.203125 11.886719 8.484375 11.886719 8.921875 C 11.886719 9.316406 11.878906 9.640625 11.867188 9.640625 C 11.855469 9.640625 11.828125 9.621094 11.804688 9.597656 Z M 3.886719 8.425781 L 3.886719 7.703125 L 4.097656 7.703125 C 4.226562 7.703125 4.347656 7.652344 4.417969 7.578125 C 4.480469 7.507812 4.597656 7.453125 4.679688 7.453125 C 4.757812 7.453125 4.875 7.394531 4.933594 7.328125 C 4.992188 7.257812 5.097656 7.203125 5.171875 7.203125 C 5.246094 7.203125 5.355469 7.144531 5.417969 7.078125 C 5.484375 7 5.609375 6.953125 5.722656 6.953125 L 5.917969 6.953125 L 5.699219 7.140625 C 5.578125 7.242188 5.417969 7.34375 5.339844 7.363281 C 5.261719 7.386719 5.199219 7.425781 5.199219 7.457031 C 5.199219 7.542969 5.628906 7.703125 5.867188 7.703125 C 6.015625 7.703125 6.074219 7.726562 6.054688 7.78125 C 6.039062 7.824219 5.992188 7.847656 5.945312 7.839844 C 5.902344 7.828125 5.792969 7.824219 5.703125 7.828125 C 5.617188 7.828125 5.273438 7.839844 4.949219 7.847656 C 4.621094 7.855469 4.320312 7.886719 4.277344 7.910156 C 4.234375 7.9375 4.199219 8.050781 4.199219 8.160156 L 4.199219 8.363281 L 5.070312 8.351562 C 5.863281 8.339844 5.949219 8.347656 6.050781 8.460938 C 6.226562 8.652344 6.085938 8.6875 5.246094 8.664062 C 4.683594 8.648438 4.464844 8.617188 4.386719 8.546875 C 4.203125 8.378906 3.96875 8.445312 4.140625 8.617188 C 4.179688 8.65625 4.199219 8.78125 4.1875 8.898438 C 4.171875 9.058594 4.136719 9.113281 4.027344 9.128906 C 3.886719 9.148438 3.886719 9.140625 3.886719 8.425781 Z M 6.980469 8.894531 C 6.769531 8.871094 6.664062 8.828125 6.652344 8.761719 C 6.636719 8.6875 6.691406 8.660156 6.867188 8.652344 C 7 8.644531 7.320312 8.625 7.582031 8.605469 C 8.03125 8.570312 8.066406 8.574219 8.160156 8.710938 C 8.253906 8.84375 8.253906 8.859375 8.152344 8.898438 C 8.023438 8.949219 7.425781 8.949219 6.980469 8.894531 Z M 7.039062 8.070312 C 6.972656 7.964844 7.109375 7.875 7.335938 7.867188 C 8.101562 7.847656 8.53125 7.9375 8.324219 8.074219 C 8.195312 8.160156 7.09375 8.15625 7.039062 8.070312 Z M 10.675781 7.734375 C 10.636719 7.625 10.6875 7.453125 10.761719 7.453125 C 10.816406 7.453125 10.886719 7.609375 10.886719 7.738281 C 10.886719 7.855469 10.722656 7.851562 10.675781 7.734375 Z M 11.710938 7.25 C 11.722656 6.917969 11.757812 6.671875 11.792969 6.671875 C 11.828125 6.671875 11.863281 6.917969 11.875 7.25 C 11.890625 7.742188 11.875 7.828125 11.792969 7.828125 C 11.710938 7.828125 11.695312 7.742188 11.710938 7.25 Z M 10.699219 7.109375 C 10.699219 7.054688 10.726562 7.015625 10.761719 7.015625 C 10.796875 7.015625 10.824219 7.054688 10.824219 7.109375 C 10.824219 7.160156 10.796875 7.203125 10.761719 7.203125 C 10.726562 7.203125 10.699219 7.160156 10.699219 7.109375 Z M 5.988281 6.796875 C 6.007812 6.742188 6.0625 6.703125 6.113281 6.703125 C 6.234375 6.703125 6.21875 6.746094 6.074219 6.824219 C 5.976562 6.878906 5.957031 6.875 5.988281 6.796875 Z M 10.445312 6.632812 C 10.359375 6.472656 10.414062 6.316406 10.535156 6.363281 C 10.648438 6.40625 10.707031 6.546875 10.660156 6.671875 C 10.609375 6.800781 10.527344 6.785156 10.445312 6.632812 Z M 6.554688 6.597656 C 6.464844 6.507812 6.519531 6.453125 6.707031 6.453125 C 6.875 6.453125 6.890625 6.464844 6.824219 6.546875 C 6.742188 6.644531 6.625 6.667969 6.554688 6.597656 Z M 11.449219 6.234375 C 11.449219 6.078125 11.476562 5.953125 11.511719 5.953125 C 11.546875 5.953125 11.574219 6.078125 11.574219 6.234375 C 11.574219 6.386719 11.546875 6.515625 11.511719 6.515625 C 11.476562 6.515625 11.449219 6.386719 11.449219 6.234375 Z M 7.054688 6.347656 C 6.964844 6.257812 7.019531 6.203125 7.207031 6.203125 C 7.375 6.203125 7.390625 6.214844 7.324219 6.296875 C 7.242188 6.394531 7.125 6.417969 7.054688 6.347656 Z M 10.160156 6.03125 C 10.054688 5.769531 9.59375 5.265625 9.46875 5.265625 C 9.363281 5.265625 9.367188 5.191406 9.480469 5.042969 C 9.566406 4.925781 9.589844 4.9375 9.980469 5.335938 C 10.347656 5.710938 10.386719 5.773438 10.386719 6.007812 C 10.386719 6.328125 10.285156 6.335938 10.160156 6.03125 Z M 7.589844 6.097656 C 7.441406 6.039062 7.511719 5.953125 7.707031 5.953125 C 7.875 5.953125 7.890625 5.964844 7.824219 6.046875 C 7.742188 6.144531 7.71875 6.148438 7.589844 6.097656 Z M 8.074219 5.824219 C 7.945312 5.746094 8.03125 5.6875 8.242188 5.710938 C 8.410156 5.734375 8.414062 5.738281 8.289062 5.808594 C 8.210938 5.851562 8.125 5.859375 8.074219 5.824219 Z M 11.234375 5.746094 C 11.207031 5.683594 11.203125 5.617188 11.222656 5.59375 C 11.285156 5.53125 11.335938 5.621094 11.308594 5.742188 C 11.28125 5.851562 11.277344 5.851562 11.234375 5.746094 Z M 8.636719 5.515625 C 8.636719 5.480469 8.691406 5.453125 8.761719 5.453125 C 8.832031 5.453125 8.886719 5.480469 8.886719 5.515625 C 8.886719 5.546875 8.832031 5.578125 8.761719 5.578125 C 8.691406 5.578125 8.636719 5.546875 8.636719 5.515625 Z M 8.636719 5.515625 "/>
<path style=" stroke:none;fill-rule:nonzero;fill:rgb(14.901961%,9.019608%,5.098039%);fill-opacity:1;" d="M 10.28125 11.539062 C 10.300781 11.515625 10.476562 11.5 10.667969 11.5 C 10.859375 11.5 11.035156 11.515625 11.054688 11.539062 C 11.078125 11.558594 10.902344 11.578125 10.667969 11.578125 C 10.433594 11.578125 10.257812 11.558594 10.28125 11.539062 Z M 11.847656 10.421875 C 11.847656 10.144531 11.855469 10.039062 11.871094 10.1875 C 11.882812 10.335938 11.882812 10.558594 11.871094 10.6875 C 11.855469 10.816406 11.847656 10.695312 11.847656 10.421875 Z M 3.886719 10.515625 C 3.886719 10.34375 3.914062 10.203125 3.949219 10.203125 C 3.984375 10.203125 4.011719 10.34375 4.011719 10.515625 C 4.011719 10.6875 3.984375 10.828125 3.949219 10.828125 C 3.914062 10.828125 3.886719 10.6875 3.886719 10.515625 Z M 9.210938 10.511719 C 9.003906 10.425781 9.101562 10.328125 9.390625 10.328125 C 9.644531 10.328125 9.738281 10.460938 9.539062 10.539062 C 9.417969 10.585938 9.394531 10.582031 9.210938 10.511719 Z M 10.027344 10.535156 C 9.984375 10.519531 9.949219 10.460938 9.949219 10.410156 C 9.949219 10.339844 10.019531 10.324219 10.246094 10.339844 C 10.460938 10.351562 10.542969 10.382812 10.542969 10.453125 C 10.542969 10.546875 10.191406 10.605469 10.027344 10.535156 Z M 6.933594 10.257812 C 6.765625 10.160156 6.863281 10.078125 7.136719 10.078125 C 7.417969 10.078125 7.507812 10.164062 7.332031 10.261719 C 7.179688 10.34375 7.074219 10.339844 6.933594 10.257812 Z M 7.960938 10.261719 C 7.765625 10.183594 7.847656 10.078125 8.101562 10.078125 C 8.304688 10.078125 8.488281 10.203125 8.40625 10.285156 C 8.351562 10.34375 8.136719 10.328125 7.960938 10.261719 Z M 4.167969 10.015625 C 4.09375 9.890625 4.210938 9.828125 4.511719 9.828125 C 4.824219 9.828125 4.972656 9.921875 4.816406 10.019531 C 4.699219 10.09375 4.214844 10.089844 4.167969 10.015625 Z M 5.269531 10.019531 C 5.222656 9.988281 5.203125 9.933594 5.226562 9.894531 C 5.277344 9.8125 5.570312 9.804688 5.691406 9.882812 C 5.761719 9.925781 5.753906 9.953125 5.648438 10.007812 C 5.496094 10.089844 5.386719 10.09375 5.269531 10.019531 Z M 3.886719 9.609375 C 3.886719 9.554688 3.914062 9.515625 3.949219 9.515625 C 3.984375 9.515625 4.011719 9.554688 4.011719 9.609375 C 4.011719 9.660156 3.984375 9.703125 3.949219 9.703125 C 3.914062 9.703125 3.886719 9.660156 3.886719 9.609375 Z M 11.8125 8.9375 C 11.800781 8.582031 11.8125 8.269531 11.839844 8.234375 C 11.867188 8.203125 11.886719 8.492188 11.886719 8.875 C 11.886719 9.261719 11.875 9.578125 11.859375 9.578125 C 11.84375 9.578125 11.824219 9.289062 11.8125 8.9375 Z M 9.199219 9.078125 C 9.015625 8.960938 9.234375 8.890625 9.808594 8.878906 C 10.414062 8.863281 10.488281 8.886719 10.429688 9.042969 C 10.398438 9.117188 10.28125 9.136719 9.84375 9.136719 C 9.539062 9.136719 9.25 9.109375 9.199219 9.078125 Z M 3.886719 8.859375 C 3.886719 8.804688 3.914062 8.765625 3.949219 8.765625 C 3.984375 8.765625 4.011719 8.804688 4.011719 8.859375 C 4.011719 8.910156 3.984375 8.953125 3.949219 8.953125 C 3.914062 8.953125 3.886719 8.910156 3.886719 8.859375 Z M 7.167969 8.824219 C 7.082031 8.6875 7.246094 8.632812 7.675781 8.652344 C 8.007812 8.664062 8.105469 8.691406 8.105469 8.765625 C 8.105469 8.835938 8.007812 8.863281 7.65625 8.875 C 7.375 8.886719 7.195312 8.867188 7.167969 8.824219 Z M 4.964844 8.597656 C 4.847656 8.550781 4.871094 8.402344 5.003906 8.359375 C 5.136719 8.316406 5.449219 8.417969 5.449219 8.503906 C 5.449219 8.617188 5.152344 8.671875 4.964844 8.597656 Z M 5.667969 8.550781 C 5.554688 8.46875 5.554688 8.457031 5.648438 8.417969 C 5.804688 8.359375 5.980469 8.410156 5.980469 8.515625 C 5.980469 8.640625 5.816406 8.660156 5.667969 8.550781 Z M 4.449219 8.484375 C 4.449219 8.410156 4.492188 8.386719 4.589844 8.398438 C 4.667969 8.410156 4.730469 8.449219 4.730469 8.484375 C 4.730469 8.515625 4.667969 8.554688 4.589844 8.566406 C 4.492188 8.578125 4.449219 8.554688 4.449219 8.484375 Z M 3.886719 8.046875 L 3.886719 7.703125 L 4.105469 7.703125 C 4.25 7.703125 4.363281 7.65625 4.433594 7.578125 C 4.492188 7.507812 4.613281 7.453125 4.703125 7.453125 C 4.792969 7.453125 4.917969 7.394531 4.980469 7.328125 C 5.042969 7.257812 5.160156 7.203125 5.238281 7.203125 C 5.320312 7.203125 5.421875 7.144531 5.464844 7.078125 C 5.507812 7.003906 5.609375 6.953125 5.699219 6.953125 L 5.855469 6.957031 L 5.667969 7.109375 C 5.566406 7.195312 5.390625 7.296875 5.277344 7.339844 C 5.03125 7.429688 5.023438 7.480469 5.238281 7.589844 C 5.523438 7.730469 5.410156 7.792969 4.84375 7.8125 C 4.265625 7.832031 4.136719 7.886719 4.136719 8.101562 C 4.136719 8.238281 4.03125 8.390625 3.9375 8.390625 C 3.910156 8.390625 3.886719 8.234375 3.886719 8.046875 Z M 7.171875 8.082031 C 7.101562 7.964844 7.199219 7.890625 7.417969 7.890625 C 7.609375 7.890625 7.757812 7.976562 7.683594 8.050781 C 7.609375 8.125 7.210938 8.148438 7.171875 8.082031 Z M 7.917969 8.074219 C 7.894531 8.035156 7.902344 7.972656 7.9375 7.9375 C 8.023438 7.855469 8.21875 7.925781 8.183594 8.03125 C 8.148438 8.132812 7.972656 8.164062 7.917969 8.074219 Z M 11.738281 7.773438 C 11.699219 7.710938 11.699219 6.957031 11.742188 6.8125 C 11.816406 6.535156 11.886719 6.75 11.886719 7.265625 C 11.886719 7.761719 11.835938 7.933594 11.738281 7.773438 Z M 10.699219 7.671875 C 10.699219 7.617188 10.726562 7.578125 10.761719 7.578125 C 10.796875 7.578125 10.824219 7.617188 10.824219 7.671875 C 10.824219 7.722656 10.796875 7.765625 10.761719 7.765625 C 10.726562 7.765625 10.699219 7.722656 10.699219 7.671875 Z M 10.472656 6.609375 C 10.429688 6.5 10.5 6.375 10.578125 6.421875 C 10.65625 6.472656 10.652344 6.699219 10.574219 6.699219 C 10.539062 6.699219 10.492188 6.660156 10.472656 6.609375 Z M 6.574219 6.515625 C 6.574219 6.480469 6.617188 6.453125 6.667969 6.453125 C 6.71875 6.453125 6.761719 6.480469 6.761719 6.515625 C 6.761719 6.546875 6.71875 6.578125 6.667969 6.578125 C 6.617188 6.578125 6.574219 6.546875 6.574219 6.515625 Z M 11.460938 6.257812 C 11.484375 5.984375 11.574219 5.960938 11.574219 6.230469 C 11.574219 6.351562 11.546875 6.453125 11.511719 6.453125 C 11.476562 6.453125 11.453125 6.363281 11.460938 6.257812 Z M 7.074219 6.265625 C 7.074219 6.230469 7.117188 6.203125 7.167969 6.203125 C 7.21875 6.203125 7.261719 6.230469 7.261719 6.265625 C 7.261719 6.296875 7.21875 6.328125 7.167969 6.328125 C 7.117188 6.328125 7.074219 6.296875 7.074219 6.265625 Z M 10.144531 5.902344 C 10.078125 5.773438 9.890625 5.542969 9.730469 5.394531 C 9.53125 5.210938 9.457031 5.105469 9.5 5.0625 C 9.546875 5.019531 9.65625 5.074219 9.855469 5.234375 C 10.199219 5.515625 10.386719 5.765625 10.386719 5.941406 C 10.386719 6.167969 10.269531 6.148438 10.144531 5.902344 Z M 7.574219 6.015625 C 7.574219 5.980469 7.617188 5.953125 7.667969 5.953125 C 7.71875 5.953125 7.761719 5.980469 7.761719 6.015625 C 7.761719 6.046875 7.71875 6.078125 7.667969 6.078125 C 7.617188 6.078125 7.574219 6.046875 7.574219 6.015625 Z M 8.074219 5.765625 C 8.074219 5.730469 8.117188 5.703125 8.167969 5.703125 C 8.21875 5.703125 8.261719 5.730469 8.261719 5.765625 C 8.261719 5.796875 8.21875 5.828125 8.167969 5.828125 C 8.117188 5.828125 8.074219 5.796875 8.074219 5.765625 Z M 8.074219 5.765625 "/>
</g>
</svg>
