
<svg xmlns="http://www.w3.org/2000/svg" xmlns:xlink="http://www.w3.org/1999/xlink" width="16px" height="16px" viewBox="0 0 16 16" version="1.1">
<g id="surface1">
<path style=" stroke:none;fill-rule:nonzero;fill:rgb(52.941176%,80.784314%,98.039216%);fill-opacity:1;" d="M 6.105469 15.722656 C -8.570312 12.628906 7.183594 -8.671875 14.644531 4.121094 C 17.839844 9.09375 13.652344 17.316406 6.105469 15.722656 Z M 6.105469 15.722656 "/>
<path style=" stroke:none;fill-rule:nonzero;fill:rgb(27.45098%,50.980392%,70.588235%);fill-opacity:1;" d="M 7.46875 6.089844 C 7.46875 7.007812 8.222656 7.75 9.148438 7.75 C 10.078125 7.75 10.832031 7.007812 10.832031 6.089844 C 10.832031 5.175781 10.078125 4.433594 9.148438 4.433594 C 8.222656 4.433594 7.46875 5.175781 7.46875 6.089844 Z M 7.46875 6.089844 "/>
<path style=" stroke:none;fill-rule:nonzero;fill:rgb(27.45098%,50.980392%,70.588235%);fill-opacity:1;" d="M 4.566406 8.796875 L 6.277344 10.746094 C 6.847656 6.859375 10.4375 9.964844 10.5625 11.40625 C 10.074219 12.183594 9.28125 12.816406 8.136719 13.167969 C 7.660156 13.355469 7.136719 13.351562 6.632812 13.421875 C 4.527344 13.621094 2.960938 12.582031 2.074219 11.121094 C 2.089844 9.886719 3.6875 7.792969 4.570312 8.796875 Z M 4.566406 8.796875 "/>
<path style=" stroke:none;fill-rule:nonzero;fill:rgb(27.45098%,50.980392%,70.588235%);fill-opacity:1;" d="M 6.554688 10.015625 C 7.261719 10.710938 7.269531 11.191406 8.03125 11.621094 L 6.390625 10.746094 C 6.414062 10.589844 6.464844 10.277344 6.554688 10.015625 Z M 6.554688 10.015625 "/>
<path style=" stroke:none;fill-rule:nonzero;fill:rgb(100%,99.215686%,93.333333%);fill-opacity:1;" d="M 9.777344 5.871094 C 9.777344 6.800781 10.546875 7.554688 11.496094 7.554688 C 12.445312 7.554688 13.210938 6.800781 13.210938 5.871094 C 13.210938 4.945312 12.445312 4.191406 11.496094 4.191406 C 10.546875 4.191406 9.777344 4.945312 9.777344 5.871094 Z M 9.777344 5.871094 "/>
<path style=" stroke:none;fill-rule:nonzero;fill:rgb(100%,99.215686%,93.333333%);fill-opacity:1;" d="M 6.988281 8.777344 L 8.734375 10.753906 C 9.320312 6.8125 12.988281 9.957031 13.117188 11.421875 C 12.617188 12.210938 11.804688 12.851562 10.636719 13.207031 C 10.148438 13.398438 9.613281 13.394531 9.097656 13.464844 C 6.945312 13.664062 5.34375 12.613281 4.4375 11.128906 C 4.453125 9.878906 6.085938 7.757812 6.988281 8.777344 Z M 6.988281 8.777344 "/>
<path style=" stroke:none;fill-rule:nonzero;fill:rgb(69.019608%,76.862745%,87.058824%);fill-opacity:1;" d="M 8.964844 9.894531 C 9.6875 10.601562 9.699219 11.085938 10.476562 11.519531 L 8.796875 10.636719 C 8.820312 10.476562 8.875 10.160156 8.964844 9.894531 Z M 8.964844 9.894531 "/>
</g>
</svg>
