
<svg xmlns="http://www.w3.org/2000/svg" xmlns:xlink="http://www.w3.org/1999/xlink" width="16px" height="16px" viewBox="0 0 16 16" version="1.1">
<g id="surface1">
<path style=" stroke:none;fill-rule:nonzero;fill:rgb(69.019608%,87.843137%,90.196078%);fill-opacity:1;" d="M 12.117188 1.988281 C 26.289062 15.160156 -2.957031 23.457031 0.269531 5.972656 C 1.859375 1.359375 7.570312 -2.242188 12.117188 1.988281 Z M 12.117188 1.988281 "/>
<path style=" stroke:none;fill-rule:nonzero;fill:rgb(83.921569%,92.156863%,94.117647%);fill-opacity:1;" d="M 7.789062 12.671875 C 7.507812 12.53125 7.109375 12.128906 7.109375 11.996094 C 7.109375 11.957031 7.015625 11.847656 6.90625 11.753906 C 6.726562 11.605469 6.699219 11.515625 6.664062 11.015625 C 6.640625 10.640625 6.597656 10.449219 6.542969 10.46875 C 6.496094 10.484375 6.363281 10.722656 6.246094 11.003906 C 5.996094 11.601562 5.9375 11.679688 5.683594 11.742188 C 5.394531 11.808594 5.085938 11.636719 5.035156 11.375 C 5.007812 11.226562 4.957031 11.164062 4.882812 11.183594 C 4.292969 11.351562 3.808594 11.21875 3.472656 10.796875 C 2.617188 9.707031 2.730469 7.675781 3.761719 5.742188 C 4.726562 3.929688 6.488281 3.359375 7.285156 4.597656 C 7.410156 4.796875 7.527344 4.957031 7.542969 4.957031 C 7.558594 4.957031 7.695312 4.910156 7.847656 4.847656 C 8 4.785156 8.3125 4.734375 8.542969 4.734375 C 8.839844 4.734375 9.015625 4.695312 9.152344 4.589844 C 9.253906 4.511719 9.519531 4.410156 9.738281 4.363281 C 10.421875 4.214844 11.027344 4.472656 11.34375 5.042969 C 11.46875 5.265625 11.46875 5.273438 11.351562 5.117188 C 10.976562 4.625 10.167969 4.421875 9.667969 4.691406 L 9.445312 4.8125 L 9.734375 4.765625 C 9.890625 4.738281 10.144531 4.742188 10.292969 4.769531 C 10.625 4.828125 11.125 5.25 11.332031 5.640625 C 11.414062 5.796875 11.488281 5.921875 11.5 5.921875 C 11.511719 5.921875 11.507812 5.78125 11.496094 5.605469 C 11.472656 5.296875 11.472656 5.292969 11.585938 5.476562 C 11.886719 5.953125 12.035156 7.023438 11.925781 7.886719 C 11.863281 8.382812 11.617188 9.222656 11.367188 9.792969 C 11.324219 9.886719 11.386719 9.96875 11.609375 10.109375 C 12.125 10.441406 12.304688 11.066406 12.042969 11.605469 C 11.972656 11.746094 11.84375 11.914062 11.753906 11.972656 C 11.601562 12.078125 11.597656 12.09375 11.726562 12.183594 C 11.925781 12.328125 11.898438 12.585938 11.675781 12.640625 C 11.480469 12.6875 11.109375 12.539062 10.945312 12.34375 C 10.890625 12.28125 10.789062 12.226562 10.71875 12.226562 C 10.652344 12.226562 10.410156 12.144531 10.183594 12.042969 L 9.773438 11.855469 L 9.554688 12.035156 C 9.242188 12.289062 8.84375 12.398438 8.367188 12.359375 C 7.875 12.320312 7.890625 12.394531 8.414062 12.5625 C 8.625 12.628906 8.777344 12.714844 8.753906 12.753906 C 8.675781 12.871094 8.078125 12.820312 7.789062 12.671875 Z M 7.546875 11.886719 C 7.523438 11.859375 7.457031 11.859375 7.398438 11.878906 C 7.339844 11.902344 7.355469 11.921875 7.445312 11.925781 C 7.527344 11.929688 7.574219 11.910156 7.546875 11.886719 Z M 11.316406 11.660156 C 11.605469 11.308594 11.476562 10.375 11.140625 10.375 C 11.015625 10.375 10.402344 11.234375 10.402344 11.417969 C 10.402344 11.832031 11.039062 12 11.316406 11.660156 Z M 4.042969 10.5625 C 4.042969 10.546875 3.929688 10.460938 3.792969 10.371094 L 3.542969 10.210938 L 3.757812 10.402344 C 3.96875 10.589844 4.042969 10.632812 4.042969 10.5625 Z M 3.53125 10.035156 C 3.507812 9.972656 3.472656 9.9375 3.449219 9.957031 C 3.429688 9.976562 3.4375 10.027344 3.464844 10.070312 C 3.539062 10.191406 3.585938 10.167969 3.53125 10.035156 Z M 7.238281 5.242188 C 7.210938 5.183594 7.195312 5.199219 7.191406 5.285156 C 7.1875 5.363281 7.207031 5.40625 7.230469 5.382812 C 7.257812 5.359375 7.257812 5.292969 7.238281 5.242188 Z M 9.40625 4.882812 C 9.40625 4.84375 9.375 4.808594 9.335938 4.808594 C 9.296875 4.808594 9.242188 4.84375 9.214844 4.882812 C 9.191406 4.925781 9.222656 4.957031 9.289062 4.957031 C 9.355469 4.957031 9.40625 4.925781 9.40625 4.882812 Z M 9.40625 4.882812 "/>
<path style=" stroke:none;fill-rule:nonzero;fill:rgb(67.45098%,83.529412%,87.843137%);fill-opacity:1;" d="M 11.285156 12.511719 C 11.199219 12.46875 11.0625 12.375 10.976562 12.304688 C 10.894531 12.234375 10.671875 12.136719 10.484375 12.085938 C 10.296875 12.03125 10.046875 11.890625 9.929688 11.765625 C 9.738281 11.566406 9.6875 11.550781 9.503906 11.621094 C 8.910156 11.84375 8.367188 11.78125 8 11.449219 L 7.792969 11.265625 L 7.722656 11.445312 C 7.589844 11.789062 7.140625 11.886719 6.878906 11.632812 C 6.753906 11.515625 6.726562 11.386719 6.722656 10.984375 C 6.722656 10.113281 6.546875 10.082031 6.222656 10.902344 C 5.992188 11.484375 5.8125 11.707031 5.570312 11.707031 C 5.269531 11.707031 5.128906 11.570312 5.046875 11.191406 C 4.964844 10.828125 4.972656 10.804688 5.292969 10.242188 C 5.472656 9.925781 5.714844 9.535156 5.828125 9.371094 C 5.941406 9.210938 6.035156 9.050781 6.035156 9.019531 C 6.035156 8.882812 5.894531 8.988281 5.636719 9.324219 C 5.300781 9.757812 4.90625 9.960938 4.488281 9.90625 C 4.105469 9.855469 3.980469 9.753906 3.761719 9.296875 C 3.371094 8.488281 3.679688 6.914062 4.410156 6.003906 C 4.523438 5.859375 4.703125 5.59375 4.808594 5.40625 C 5.128906 4.84375 5.941406 4.570312 6.480469 4.839844 C 6.59375 4.898438 6.785156 5.046875 6.90625 5.171875 C 7.121094 5.386719 7.128906 5.414062 7.078125 5.914062 C 7.027344 6.398438 7.035156 6.433594 7.1875 6.480469 C 7.414062 6.550781 7.433594 6.5 7.292969 6.226562 C 7.050781 5.757812 7.351562 5.117188 7.925781 4.871094 C 8.425781 4.65625 8.773438 4.71875 9.246094 5.101562 C 9.566406 5.359375 9.671875 5.402344 9.972656 5.402344 C 10.269531 5.402344 10.375 5.445312 10.628906 5.667969 C 11.015625 6.007812 11.191406 6.5 11.1875 7.25 C 11.1875 7.976562 11.011719 8.683594 10.671875 9.332031 C 10.523438 9.617188 10.402344 9.867188 10.402344 9.890625 C 10.402344 9.910156 10.472656 9.929688 10.554688 9.929688 C 10.660156 9.929688 10.824219 9.757812 11.074219 9.398438 C 11.464844 8.824219 11.601562 8.855469 11.328125 9.453125 C 11.242188 9.644531 11.171875 9.835938 11.171875 9.882812 C 11.171875 9.925781 11.296875 10.03125 11.457031 10.113281 C 11.832031 10.3125 12.089844 10.691406 12.089844 11.054688 C 12.089844 11.390625 11.863281 11.851562 11.636719 11.988281 C 11.433594 12.105469 11.433594 12.199219 11.636719 12.25 C 11.738281 12.277344 11.785156 12.339844 11.769531 12.425781 C 11.738281 12.585938 11.5 12.628906 11.285156 12.511719 Z M 11.355469 11.703125 C 11.742188 11.257812 11.546875 10.296875 11.070312 10.300781 C 10.816406 10.300781 10.328125 10.972656 10.328125 11.316406 C 10.328125 11.90625 10.96875 12.148438 11.355469 11.703125 Z M 11.355469 11.703125 "/>
<path style=" stroke:none;fill-rule:nonzero;fill:rgb(43.529412%,68.235294%,66.27451%);fill-opacity:1;" d="M 11.285156 12.484375 C 11.160156 12.417969 11.003906 12.320312 10.941406 12.265625 C 10.875 12.210938 10.679688 12.128906 10.503906 12.085938 C 10.269531 12.023438 10.101562 11.910156 9.902344 11.671875 C 9.65625 11.382812 9.601562 11.351562 9.464844 11.421875 C 8.964844 11.679688 8.398438 11.628906 8.054688 11.296875 C 7.8125 11.058594 7.746094 11.066406 7.683594 11.339844 C 7.628906 11.585938 7.449219 11.707031 7.152344 11.707031 C 6.898438 11.707031 6.804688 11.519531 6.792969 10.988281 C 6.785156 10.492188 6.71875 10.210938 6.601562 10.171875 C 6.527344 10.148438 6.316406 10.550781 6.035156 11.246094 C 5.882812 11.625 5.484375 11.757812 5.234375 11.515625 C 4.925781 11.214844 5.207031 10.3125 5.894531 9.425781 C 6.058594 9.210938 6.175781 9.003906 6.148438 8.960938 C 6.054688 8.8125 5.863281 8.898438 5.550781 9.230469 C 5.183594 9.621094 4.910156 9.78125 4.601562 9.78125 C 3.480469 9.78125 3.445312 7.433594 4.546875 6.035156 C 4.644531 5.910156 4.792969 5.652344 4.878906 5.457031 C 5.003906 5.167969 5.101562 5.074219 5.363281 4.957031 C 5.882812 4.726562 6.253906 4.761719 6.683594 5.078125 L 7.046875 5.347656 L 7.011719 5.765625 C 6.992188 5.996094 6.964844 6.230469 6.945312 6.285156 C 6.902344 6.4375 7.304688 6.652344 7.421875 6.539062 C 7.488281 6.476562 7.480469 6.414062 7.386719 6.285156 C 7.214844 6.046875 7.234375 5.71875 7.4375 5.367188 C 7.644531 5.015625 8.011719 4.820312 8.472656 4.8125 C 8.765625 4.808594 8.851562 4.851562 9.199219 5.171875 C 9.539062 5.476562 9.65625 5.539062 9.980469 5.570312 C 10.289062 5.605469 10.40625 5.660156 10.605469 5.871094 C 11.222656 6.523438 11.21875 7.859375 10.59375 9.089844 C 10.324219 9.617188 9.742188 10.226562 9.507812 10.226562 C 9.433594 10.226562 9.414062 10.273438 9.441406 10.367188 C 9.46875 10.441406 9.515625 10.652344 9.550781 10.828125 L 9.609375 11.152344 L 9.714844 10.835938 C 9.847656 10.421875 10.113281 10.171875 10.550781 10.046875 C 11.1875 9.867188 11.847656 10.179688 12.023438 10.75 C 12.148438 11.152344 12.046875 11.542969 11.738281 11.839844 C 11.433594 12.136719 11.417969 12.195312 11.636719 12.25 C 11.738281 12.277344 11.785156 12.339844 11.769531 12.425781 C 11.734375 12.605469 11.5625 12.625 11.285156 12.484375 Z M 11.203125 11.882812 C 11.507812 11.773438 11.664062 10.988281 11.46875 10.570312 C 11.347656 10.308594 11.0625 10.179688 10.804688 10.269531 C 10.550781 10.355469 10.253906 10.839844 10.25 11.175781 C 10.25 11.445312 10.421875 11.820312 10.574219 11.882812 C 10.714844 11.9375 11.0625 11.9375 11.203125 11.882812 Z M 8.25 10.6875 C 8.042969 10.351562 7.859375 10.140625 7.816406 10.179688 C 7.765625 10.230469 7.953125 10.539062 8.167969 10.761719 C 8.433594 11.039062 8.457031 11.019531 8.25 10.6875 Z M 9.796875 9.40625 C 9.878906 9.363281 9.929688 9.296875 9.902344 9.257812 C 9.839844 9.15625 9.40625 9.167969 9.40625 9.269531 C 9.40625 9.316406 9.328125 9.335938 9.214844 9.316406 C 9.03125 9.28125 8.96875 9.332031 9.074219 9.433594 C 9.15625 9.511719 9.628906 9.492188 9.796875 9.40625 Z M 5.101562 9.125 C 5.277344 8.992188 5.277344 8.988281 5.144531 8.71875 C 5.070312 8.5625 4.953125 8.445312 4.882812 8.445312 C 4.644531 8.445312 4.558594 8.246094 4.59375 7.789062 C 4.621094 7.429688 4.675781 7.289062 4.914062 6.972656 C 5.199219 6.597656 5.203125 6.59375 5.0625 6.410156 C 4.988281 6.308594 4.882812 6.222656 4.835938 6.222656 C 4.714844 6.21875 4.316406 6.859375 4.15625 7.304688 C 3.910156 8.011719 4.027344 9.078125 4.367188 9.210938 C 4.578125 9.292969 4.933594 9.25 5.101562 9.125 Z M 9.757812 6.59375 C 10.015625 6.46875 10.308594 6.367188 10.410156 6.367188 L 10.59375 6.363281 L 10.378906 6.179688 C 10.023438 5.875 9.738281 5.929688 9.269531 6.390625 C 8.980469 6.671875 8.878906 6.824219 8.914062 6.914062 C 8.960938 7.027344 8.980469 7.03125 9.128906 6.929688 C 9.21875 6.867188 9.503906 6.71875 9.757812 6.59375 Z M 9.757812 6.59375 "/>
<path style=" stroke:none;fill-rule:nonzero;fill:rgb(96.078431%,25.098039%,24.705882%);fill-opacity:1;" d="M 11.285156 12.484375 C 11.160156 12.417969 11.003906 12.320312 10.941406 12.265625 C 10.875 12.210938 10.679688 12.128906 10.503906 12.085938 C 9.960938 11.945312 9.648438 11.460938 9.742188 10.910156 C 9.9375 9.726562 11.832031 9.695312 12.058594 10.871094 C 12.128906 11.226562 11.976562 11.660156 11.703125 11.882812 C 11.433594 12.101562 11.417969 12.195312 11.636719 12.25 C 11.738281 12.277344 11.785156 12.339844 11.769531 12.425781 C 11.734375 12.605469 11.5625 12.625 11.285156 12.484375 Z M 11.203125 11.882812 C 11.398438 11.8125 11.554688 11.453125 11.554688 11.078125 C 11.554688 10.523438 11.324219 10.230469 10.890625 10.226562 C 10.519531 10.222656 10.25 10.570312 10.25 11.050781 C 10.25 11.425781 10.402344 11.8125 10.574219 11.882812 C 10.714844 11.9375 11.0625 11.9375 11.203125 11.882812 Z M 7.085938 11.648438 C 6.894531 11.609375 6.800781 11.335938 6.800781 10.816406 C 6.800781 10.578125 6.765625 10.289062 6.71875 10.175781 L 6.636719 9.96875 L 6.492188 10.152344 C 6.410156 10.253906 6.253906 10.570312 6.140625 10.855469 C 5.875 11.527344 5.835938 11.570312 5.503906 11.546875 C 5.257812 11.523438 5.222656 11.496094 5.160156 11.25 C 5.070312 10.898438 5.261719 10.433594 5.84375 9.597656 C 6.074219 9.261719 6.265625 8.96875 6.265625 8.941406 C 6.265625 8.914062 6.152344 8.890625 6.011719 8.890625 C 5.820312 8.890625 5.691406 8.957031 5.464844 9.179688 C 5.117188 9.527344 4.808594 9.667969 4.539062 9.601562 C 4.292969 9.539062 4.363281 9.410156 4.640625 9.410156 C 4.898438 9.40625 5.34375 9.152344 5.34375 9.007812 C 5.34375 8.8125 5.027344 8.371094 4.886719 8.371094 C 4.722656 8.371094 4.65625 8.226562 4.65625 7.878906 C 4.65625 7.554688 4.800781 7.222656 5.109375 6.851562 C 5.34375 6.570312 5.347656 6.554688 5.210938 6.445312 C 4.894531 6.191406 4.796875 5.941406 4.886719 5.617188 C 4.992188 5.238281 5.253906 5 5.675781 4.894531 C 6.082031 4.796875 6.300781 4.847656 6.667969 5.125 C 7.03125 5.398438 7.085938 5.613281 6.914062 6.050781 C 6.785156 6.378906 6.785156 6.394531 6.921875 6.492188 C 7.101562 6.617188 7.570312 6.621094 7.566406 6.496094 C 7.5625 6.445312 7.511719 6.339844 7.449219 6.261719 C 7.222656 5.96875 7.398438 5.289062 7.761719 5.0625 C 8.289062 4.726562 8.78125 4.804688 9.246094 5.292969 C 9.675781 5.746094 9.664062 5.925781 9.175781 6.382812 C 8.859375 6.679688 8.800781 6.773438 8.839844 6.925781 C 8.894531 7.132812 8.992188 7.15625 9.171875 7.007812 C 9.238281 6.949219 9.507812 6.796875 9.769531 6.667969 C 10.160156 6.472656 10.285156 6.441406 10.460938 6.496094 C 10.652344 6.558594 10.671875 6.597656 10.660156 6.894531 C 10.652344 7.074219 10.636719 7.605469 10.621094 8.074219 C 10.589844 8.988281 10.59375 8.980469 10.179688 9.484375 C 9.839844 9.898438 9.730469 9.988281 9.460938 10.089844 C 9.304688 10.148438 9.257812 10.199219 9.296875 10.289062 C 9.496094 10.75 9.511719 10.824219 9.441406 11.011719 C 9.351562 11.257812 9.105469 11.355469 8.867188 11.238281 C 8.769531 11.191406 8.542969 10.9375 8.363281 10.679688 C 7.769531 9.824219 7.621094 9.761719 7.722656 10.414062 C 7.769531 10.710938 7.664062 11.351562 7.535156 11.550781 C 7.480469 11.636719 7.257812 11.6875 7.085938 11.648438 Z M 9.886719 9.515625 C 10.046875 9.414062 10.171875 9.316406 10.171875 9.296875 C 10.171875 9.277344 10.0625 9.207031 9.925781 9.140625 C 9.789062 9.074219 9.5625 8.921875 9.421875 8.804688 C 9.113281 8.542969 8.988281 8.539062 8.824219 8.777344 C 8.585938 9.132812 8.914062 9.707031 9.363281 9.707031 C 9.496094 9.707031 9.730469 9.621094 9.886719 9.515625 Z M 8.394531 9.023438 C 8.347656 8.886719 8.179688 8.863281 8.179688 8.996094 C 8.179688 9.058594 8.234375 9.113281 8.300781 9.113281 C 8.371094 9.113281 8.410156 9.074219 8.394531 9.023438 Z M 8.394531 9.023438 "/>
<path style=" stroke:none;fill-rule:nonzero;fill:rgb(29.411765%,42.745098%,58.431373%);fill-opacity:1;" d="M 7.085938 11.648438 C 6.894531 11.609375 6.800781 11.335938 6.800781 10.816406 C 6.800781 10.578125 6.765625 10.289062 6.71875 10.175781 L 6.636719 9.96875 L 6.492188 10.152344 C 6.410156 10.253906 6.253906 10.570312 6.140625 10.855469 C 5.875 11.527344 5.835938 11.570312 5.503906 11.546875 C 5.257812 11.523438 5.222656 11.496094 5.160156 11.25 C 5.070312 10.898438 5.261719 10.433594 5.84375 9.597656 C 6.074219 9.261719 6.265625 8.96875 6.265625 8.941406 C 6.265625 8.914062 6.152344 8.890625 6.011719 8.890625 C 5.820312 8.890625 5.691406 8.957031 5.464844 9.179688 C 5.117188 9.527344 4.808594 9.667969 4.539062 9.601562 C 4.292969 9.539062 4.363281 9.410156 4.640625 9.410156 C 4.898438 9.40625 5.34375 9.152344 5.34375 9.007812 C 5.34375 8.8125 5.027344 8.371094 4.886719 8.371094 C 4.722656 8.371094 4.65625 8.226562 4.65625 7.878906 C 4.65625 7.554688 4.800781 7.222656 5.109375 6.851562 C 5.34375 6.570312 5.347656 6.554688 5.210938 6.445312 C 4.894531 6.191406 4.796875 5.941406 4.886719 5.617188 C 4.992188 5.238281 5.253906 5 5.675781 4.894531 C 6.082031 4.796875 6.300781 4.847656 6.667969 5.125 C 7.03125 5.398438 7.085938 5.613281 6.914062 6.050781 C 6.785156 6.378906 6.785156 6.394531 6.921875 6.492188 C 7.101562 6.617188 7.570312 6.621094 7.566406 6.496094 C 7.5625 6.445312 7.511719 6.339844 7.449219 6.261719 C 7.222656 5.96875 7.398438 5.289062 7.761719 5.0625 C 8.289062 4.726562 8.78125 4.804688 9.246094 5.292969 C 9.675781 5.746094 9.664062 5.925781 9.175781 6.382812 C 8.859375 6.679688 8.800781 6.773438 8.839844 6.925781 C 8.894531 7.132812 8.992188 7.15625 9.171875 7.007812 C 9.238281 6.949219 9.507812 6.796875 9.769531 6.667969 C 10.160156 6.472656 10.285156 6.441406 10.460938 6.496094 C 10.652344 6.558594 10.671875 6.597656 10.660156 6.894531 C 10.652344 7.074219 10.636719 7.605469 10.621094 8.074219 C 10.589844 8.988281 10.59375 8.980469 10.179688 9.484375 C 9.839844 9.898438 9.730469 9.988281 9.460938 10.089844 C 9.304688 10.148438 9.257812 10.199219 9.296875 10.289062 C 9.496094 10.75 9.511719 10.824219 9.441406 11.011719 C 9.351562 11.257812 9.105469 11.355469 8.867188 11.238281 C 8.769531 11.191406 8.542969 10.9375 8.363281 10.679688 C 7.769531 9.824219 7.621094 9.761719 7.722656 10.414062 C 7.769531 10.710938 7.664062 11.351562 7.535156 11.550781 C 7.480469 11.636719 7.257812 11.6875 7.085938 11.648438 Z M 9.886719 9.515625 C 10.046875 9.414062 10.171875 9.316406 10.171875 9.296875 C 10.171875 9.277344 10.0625 9.207031 9.925781 9.140625 C 9.789062 9.074219 9.5625 8.921875 9.421875 8.804688 C 9.113281 8.542969 8.988281 8.539062 8.824219 8.777344 C 8.585938 9.132812 8.914062 9.707031 9.363281 9.707031 C 9.496094 9.707031 9.730469 9.621094 9.886719 9.515625 Z M 8.394531 9.023438 C 8.347656 8.886719 8.179688 8.863281 8.179688 8.996094 C 8.179688 9.058594 8.234375 9.113281 8.300781 9.113281 C 8.371094 9.113281 8.410156 9.074219 8.394531 9.023438 Z M 8.394531 9.023438 "/>
<path style=" stroke:none;fill-rule:nonzero;fill:rgb(24.705882%,57.647059%,44.705882%);fill-opacity:1;" d="M 7 11.515625 C 6.914062 11.433594 6.875 11.246094 6.871094 10.867188 C 6.855469 9.796875 6.640625 9.640625 6.265625 10.425781 C 5.78125 11.433594 5.773438 11.449219 5.578125 11.472656 C 5.371094 11.503906 5.191406 11.324219 5.191406 11.082031 C 5.191406 10.855469 5.613281 10.035156 6 9.511719 C 6.46875 8.878906 6.457031 8.789062 5.921875 8.832031 C 5.4375 8.871094 5.359375 8.816406 5.148438 8.304688 C 5.035156 8.035156 5.03125 7.941406 5.109375 7.730469 C 5.171875 7.566406 5.175781 7.441406 5.128906 7.355469 C 5.035156 7.199219 5.140625 6.90625 5.355469 6.710938 C 5.511719 6.570312 5.511719 6.570312 5.277344 6.367188 C 5.015625 6.132812 4.921875 5.867188 5 5.570312 C 5.074219 5.273438 5.242188 5.128906 5.65625 4.996094 C 5.980469 4.890625 6.050781 4.890625 6.277344 4.984375 C 6.417969 5.042969 6.632812 5.183594 6.753906 5.296875 C 6.9375 5.46875 6.964844 5.539062 6.929688 5.765625 C 6.898438 5.9375 6.800781 6.101562 6.652344 6.226562 C 6.523438 6.328125 6.417969 6.453125 6.417969 6.496094 C 6.417969 6.542969 6.664062 6.601562 7 6.628906 C 7.691406 6.691406 7.820312 6.625 7.578125 6.324219 C 7.234375 5.902344 7.484375 5.207031 8.058594 4.996094 C 8.492188 4.832031 8.785156 4.917969 9.234375 5.335938 C 9.679688 5.746094 9.667969 5.925781 9.175781 6.378906 C 8.847656 6.675781 8.796875 6.757812 8.839844 6.917969 C 8.894531 7.132812 8.992188 7.160156 9.171875 7.007812 C 9.496094 6.742188 10.082031 6.507812 10.371094 6.53125 L 10.671875 6.554688 L 10.660156 6.886719 C 10.652344 7.070312 10.636719 7.605469 10.621094 8.074219 C 10.589844 8.988281 10.59375 8.980469 10.179688 9.484375 C 9.839844 9.898438 9.730469 9.988281 9.460938 10.089844 C 9.300781 10.148438 9.257812 10.199219 9.296875 10.289062 C 9.417969 10.5625 9.457031 11.046875 9.371094 11.164062 C 9.265625 11.304688 8.917969 11.320312 8.761719 11.191406 C 8.699219 11.144531 8.539062 10.929688 8.402344 10.71875 C 8.074219 10.214844 7.78125 9.90625 7.71875 10.003906 C 7.691406 10.046875 7.695312 10.238281 7.726562 10.433594 C 7.765625 10.679688 7.753906 10.84375 7.675781 10.996094 C 7.617188 11.113281 7.566406 11.253906 7.566406 11.304688 C 7.566406 11.429688 7.355469 11.632812 7.222656 11.632812 C 7.164062 11.632812 7.066406 11.582031 7 11.515625 Z M 9.886719 9.515625 C 10.046875 9.414062 10.171875 9.316406 10.171875 9.296875 C 10.171875 9.277344 10.0625 9.207031 9.925781 9.140625 C 9.789062 9.074219 9.5625 8.921875 9.421875 8.804688 C 9.113281 8.542969 8.988281 8.539062 8.824219 8.777344 C 8.585938 9.132812 8.914062 9.707031 9.363281 9.707031 C 9.496094 9.707031 9.730469 9.621094 9.886719 9.515625 Z M 8.394531 9.023438 C 8.347656 8.886719 8.179688 8.863281 8.179688 8.996094 C 8.179688 9.058594 8.234375 9.113281 8.300781 9.113281 C 8.371094 9.113281 8.410156 9.074219 8.394531 9.023438 Z M 8.394531 9.023438 "/>
<path style=" stroke:none;fill-rule:nonzero;fill:rgb(4.705882%,6.27451%,6.666667%);fill-opacity:1;" d="M 7.003906 11.5 C 6.914062 11.398438 6.878906 11.222656 6.878906 10.835938 C 6.878906 9.816406 6.636719 9.65625 6.265625 10.429688 C 5.78125 11.433594 5.773438 11.449219 5.578125 11.472656 C 5.371094 11.503906 5.191406 11.324219 5.191406 11.082031 C 5.191406 10.855469 5.613281 10.035156 6 9.511719 C 6.46875 8.878906 6.457031 8.789062 5.921875 8.832031 C 5.4375 8.871094 5.359375 8.816406 5.148438 8.304688 C 5.035156 8.035156 5.03125 7.941406 5.109375 7.730469 C 5.171875 7.566406 5.175781 7.441406 5.128906 7.355469 C 5.035156 7.199219 5.140625 6.90625 5.355469 6.710938 C 5.511719 6.570312 5.511719 6.570312 5.277344 6.367188 C 5.015625 6.132812 4.921875 5.867188 5 5.570312 C 5.074219 5.273438 5.242188 5.128906 5.65625 4.996094 C 5.980469 4.890625 6.050781 4.890625 6.277344 4.984375 C 6.417969 5.042969 6.632812 5.183594 6.753906 5.296875 C 6.9375 5.46875 6.964844 5.539062 6.929688 5.765625 C 6.898438 5.9375 6.800781 6.101562 6.652344 6.226562 C 6.523438 6.328125 6.417969 6.453125 6.417969 6.496094 C 6.417969 6.542969 6.664062 6.601562 7 6.628906 C 7.691406 6.691406 7.820312 6.625 7.578125 6.324219 C 7.242188 5.914062 7.484375 5.214844 8.035156 5 C 8.453125 4.839844 8.726562 4.902344 9.105469 5.25 C 9.347656 5.472656 9.40625 5.582031 9.40625 5.792969 C 9.40625 6.019531 9.351562 6.109375 9.007812 6.398438 C 8.695312 6.664062 8.628906 6.753906 8.699219 6.828125 C 8.753906 6.875 8.792969 6.976562 8.792969 7.046875 C 8.792969 7.261719 8.941406 7.277344 9.199219 7.089844 C 9.597656 6.792969 10.246094 6.503906 10.402344 6.550781 C 10.613281 6.617188 10.632812 6.746094 10.554688 7.421875 C 10.515625 7.761719 10.480469 8.242188 10.480469 8.492188 C 10.480469 9.203125 10.167969 9.300781 9.570312 8.777344 C 9.226562 8.476562 8.992188 8.453125 8.734375 8.6875 C 8.625 8.785156 8.453125 8.851562 8.308594 8.851562 C 8.113281 8.851562 8.070312 8.882812 8.078125 9 C 8.085938 9.082031 8.171875 9.199219 8.265625 9.261719 C 8.5625 9.453125 8.949219 9.863281 9.101562 10.140625 C 9.179688 10.289062 9.289062 10.488281 9.339844 10.578125 C 9.480469 10.832031 9.347656 11.144531 9.085938 11.175781 C 8.871094 11.199219 8.832031 11.15625 8.078125 10.152344 C 7.679688 9.621094 7.605469 9.6875 7.601562 10.585938 C 7.597656 11.296875 7.582031 11.367188 7.421875 11.496094 C 7.203125 11.667969 7.164062 11.667969 7.003906 11.5 Z M 7.003906 11.5 "/>
</g>
</svg>
