
<svg xmlns="http://www.w3.org/2000/svg" xmlns:xlink="http://www.w3.org/1999/xlink" width="16px" height="16px" viewBox="0 0 16 16" version="1.1">
<defs>
<linearGradient id="linear0" gradientUnits="userSpaceOnUse" x1="27.865" y1="1023.07" x2="28.424" y2="1049.66" gradientTransform="matrix(1,0,0,1,-0.000000000000001776,0)">
<stop offset="0" style="stop-color:rgb(100%,100%,100%);stop-opacity:0.4;"/>
<stop offset="1" style="stop-color:rgb(100%,100%,100%);stop-opacity:0;"/>
</linearGradient>
<linearGradient id="linear1" gradientUnits="userSpaceOnUse" x1="43.936" y1="1023.65" x2="43.922" y2="1047.65" gradientTransform="matrix(1,0,0,1,-0.000000000000001776,0)">
<stop offset="0" style="stop-color:rgb(100%,100%,100%);stop-opacity:0.4;"/>
<stop offset="1" style="stop-color:rgb(100%,100%,100%);stop-opacity:0;"/>
</linearGradient>
<linearGradient id="linear2" gradientUnits="userSpaceOnUse" x1="36.12" y1="1007.36" x2="36.17" y2="1031.43" gradientTransform="matrix(1,0,0,1,-0.000000000000001776,0)">
<stop offset="0" style="stop-color:rgb(100%,100%,100%);stop-opacity:0.4;"/>
<stop offset="1" style="stop-color:rgb(100%,100%,100%);stop-opacity:0;"/>
</linearGradient>
</defs>
<g id="surface1">
<path style=" stroke:none;fill-rule:nonzero;fill:rgb(69.019608%,87.843137%,90.196078%);fill-opacity:1;" d="M 7.859375 0.136719 C 0.863281 -1.257812 -1.792969 8.320312 1.238281 13.523438 C 3.652344 17.671875 11.925781 16.484375 15.011719 10.890625 C 18.09375 5.292969 13.472656 1.257812 7.859375 0.136719 Z M 7.859375 0.136719 "/>
<path style=" stroke:none;fill-rule:nonzero;fill:rgb(0%,0%,0%);fill-opacity:0.101961;" d="M 7.621094 4.023438 C 6.203125 4.023438 5.054688 5.105469 5.054688 6.4375 C 5.054688 6.675781 5.09375 6.914062 5.167969 7.140625 C 4.152344 7.484375 3.476562 8.394531 3.476562 9.410156 C 3.476562 10.742188 4.625 11.824219 6.039062 11.824219 C 6.613281 11.824219 7.171875 11.640625 7.621094 11.308594 C 8.074219 11.640625 8.628906 11.820312 9.199219 11.824219 C 10.617188 11.824219 11.765625 10.742188 11.765625 9.410156 C 11.765625 8.394531 11.089844 7.488281 10.074219 7.140625 C 10.148438 6.914062 10.1875 6.675781 10.1875 6.4375 C 10.1875 5.105469 9.039062 4.023438 7.621094 4.023438 Z M 7.621094 4.023438 "/>
<path style=" stroke:none;fill-rule:nonzero;fill:rgb(0%,87.45098%,100%);fill-opacity:1;" d="M 11.765625 9.222656 C 11.765625 10.554688 10.617188 11.636719 9.199219 11.636719 C 7.78125 11.636719 6.632812 10.554688 6.632812 9.222656 C 6.632812 7.890625 7.78125 6.808594 9.199219 6.808594 C 10.617188 6.808594 11.765625 7.890625 11.765625 9.222656 Z M 11.765625 9.222656 "/>
<path style=" stroke:none;fill-rule:nonzero;fill:rgb(95.294118%,30.588235%,45.098039%);fill-opacity:1;" d="M 8.605469 9.222656 C 8.605469 10.554688 7.457031 11.636719 6.039062 11.636719 C 4.625 11.636719 3.476562 10.554688 3.476562 9.222656 C 3.476562 7.890625 4.625 6.808594 6.039062 6.808594 C 7.457031 6.808594 8.605469 7.890625 8.605469 9.222656 Z M 8.605469 9.222656 "/>
<path style=" stroke:none;fill-rule:nonzero;fill:rgb(100%,83.529412%,2.352941%);fill-opacity:1;" d="M 10.1875 6.25 C 10.1875 7.585938 9.039062 8.664062 7.621094 8.664062 C 6.203125 8.664062 5.054688 7.585938 5.054688 6.25 C 5.054688 4.917969 6.203125 3.835938 7.621094 3.835938 C 9.039062 3.835938 10.1875 4.917969 10.1875 6.25 Z M 10.1875 6.25 "/>
<path style=" stroke:none;fill-rule:nonzero;fill:rgb(36.078431%,81.960784%,11.372549%);fill-opacity:1;" d="M 9.199219 6.808594 C 8.070312 6.808594 7.074219 7.503906 6.746094 8.519531 C 7.027344 8.617188 7.320312 8.664062 7.621094 8.664062 C 8.75 8.664062 9.746094 7.972656 10.074219 6.957031 C 9.792969 6.859375 9.496094 6.808594 9.199219 6.808594 Z M 9.199219 6.808594 "/>
<path style=" stroke:none;fill-rule:nonzero;fill:rgb(81.568627%,14.901961%,1.568627%);fill-opacity:1;" d="M 6.039062 6.808594 C 5.742188 6.808594 5.449219 6.859375 5.167969 6.953125 C 5.496094 7.96875 6.492188 8.664062 7.621094 8.664062 C 7.917969 8.664062 8.214844 8.613281 8.492188 8.519531 C 8.164062 7.503906 7.167969 6.808594 6.039062 6.808594 Z M 6.039062 6.808594 "/>
<path style=" stroke:none;fill-rule:nonzero;fill:rgb(36.078431%,60.392157%,92.156863%);fill-opacity:1;" d="M 7.617188 7.324219 C 6.996094 7.78125 6.632812 8.480469 6.632812 9.222656 C 6.632812 9.964844 7 10.667969 7.621094 11.121094 C 8.242188 10.664062 8.605469 9.964844 8.605469 9.222656 C 8.605469 8.480469 8.242188 7.777344 7.617188 7.324219 Z M 7.617188 7.324219 "/>
<path style=" stroke:none;fill-rule:nonzero;fill:rgb(21.176471%,21.176471%,21.176471%);fill-opacity:1;" d="M 7.621094 7.324219 C 7.609375 7.332031 7.601562 7.339844 7.589844 7.34375 C 7.550781 7.375 7.515625 7.40625 7.476562 7.4375 C 7.449219 7.460938 7.421875 7.484375 7.394531 7.507812 C 7.363281 7.539062 7.332031 7.570312 7.300781 7.601562 C 7.273438 7.628906 7.246094 7.660156 7.222656 7.6875 C 7.191406 7.722656 7.164062 7.753906 7.140625 7.789062 C 7.113281 7.820312 7.089844 7.851562 7.066406 7.882812 C 7.042969 7.917969 7.023438 7.949219 7 7.984375 C 6.976562 8.019531 6.957031 8.054688 6.933594 8.089844 C 6.914062 8.125 6.894531 8.164062 6.878906 8.199219 C 6.859375 8.234375 6.84375 8.269531 6.828125 8.308594 C 6.804688 8.355469 6.785156 8.40625 6.769531 8.457031 C 6.761719 8.472656 6.753906 8.488281 6.75 8.503906 C 6.75 8.511719 6.746094 8.515625 6.746094 8.519531 C 6.75 8.519531 6.753906 8.519531 6.761719 8.523438 C 6.832031 8.546875 6.902344 8.566406 6.976562 8.585938 C 6.996094 8.589844 7.015625 8.59375 7.035156 8.597656 C 7.097656 8.613281 7.15625 8.625 7.21875 8.632812 C 7.25 8.636719 7.28125 8.640625 7.3125 8.644531 C 7.367188 8.652344 7.421875 8.65625 7.476562 8.660156 C 7.523438 8.664062 7.574219 8.664062 7.621094 8.664062 C 7.898438 8.664062 8.179688 8.621094 8.445312 8.535156 C 8.460938 8.53125 8.476562 8.523438 8.492188 8.519531 C 8.425781 8.3125 8.328125 8.113281 8.203125 7.929688 C 8.1875 7.910156 8.175781 7.886719 8.160156 7.863281 C 8.140625 7.839844 8.121094 7.816406 8.101562 7.792969 C 8.070312 7.75 8.035156 7.710938 8 7.667969 C 7.886719 7.542969 7.757812 7.425781 7.621094 7.324219 Z M 7.621094 7.324219 "/>
<path style="fill:none;stroke-width:1;stroke-linecap:round;stroke-linejoin:round;stroke:rgb(0%,0%,0%);stroke-opacity:0.4;stroke-miterlimit:4;" d="M 31.998778 1022.927829 C 28.733758 1022.927829 25.508314 1024.253016 23.193118 1026.566833 C 20.89771 1028.859616 19.552126 1032.098961 19.552126 1035.35934 C 19.552126 1038.619719 20.89771 1041.859064 23.193118 1044.172882 C 25.508314 1046.465665 28.733758 1047.811886 31.998778 1047.811886 C 35.263798 1047.811886 38.489242 1046.465665 40.804438 1044.172882 C 43.099845 1041.859064 44.445429 1038.619719 44.445429 1035.35934 C 44.445429 1032.098961 43.099845 1028.859616 40.804438 1026.566833 C 38.489242 1024.253016 35.263798 1022.927829 31.998778 1022.927829 Z M 31.998778 1022.927829 " transform="matrix(0.197405,0,0,0.185705,2.8825,-183.04875)"/>
<path style="fill:none;stroke-width:1;stroke-linecap:round;stroke-linejoin:round;stroke:rgb(0%,0%,0%);stroke-opacity:0.4;stroke-miterlimit:4;" d="M 15.990286 1022.84369 C 12.725267 1022.84369 9.460247 1024.189911 7.145051 1026.524764 C 4.829855 1028.838581 3.484271 1032.098961 3.484271 1035.35934 C 3.484271 1038.640754 4.829855 1041.901134 7.145051 1044.214951 C 9.460247 1046.528769 12.725267 1047.87499 15.990286 1047.87499 C 19.275094 1047.87499 22.540114 1046.528769 24.85531 1044.214951 C 27.170506 1041.901134 28.51609 1038.640754 28.51609 1035.35934 C 28.51609 1032.098961 27.170506 1028.838581 24.85531 1026.524764 C 22.540114 1024.189911 19.275094 1022.84369 15.990286 1022.84369 Z M 15.990286 1022.84369 " transform="matrix(0.197405,0,0,0.185705,2.8825,-183.04875)"/>
<path style="fill:none;stroke-width:1;stroke-linecap:round;stroke-linejoin:round;stroke:rgb(0%,0%,0%);stroke-opacity:0.4;stroke-miterlimit:4;" d="M 24.004426 1006.857314 C 20.719618 1006.857314 17.474386 1008.203535 15.15919 1010.517353 C 12.824207 1012.83117 11.478623 1016.09155 11.478623 1019.372964 C 11.478623 1022.633343 12.824207 1025.893723 15.15919 1028.20754 C 17.474386 1030.542393 20.719618 1031.888614 24.004426 1031.888614 C 27.269446 1031.888614 30.534466 1030.542393 32.849662 1028.20754 C 35.164858 1025.893723 36.510442 1022.633343 36.510442 1019.372964 C 36.510442 1016.09155 35.164858 1012.83117 32.849662 1010.517353 C 30.534466 1008.203535 27.269446 1006.857314 24.004426 1006.857314 Z M 24.004426 1006.857314 " transform="matrix(0.197405,0,0,0.185705,2.8825,-183.04875)"/>
<path style="fill:none;stroke-width:1;stroke-linecap:round;stroke-linejoin:round;stroke:url(#linear0);stroke-miterlimit:4;" d="M 15.990286 1023.790252 C 12.962723 1023.790252 9.954947 1025.052334 7.817843 1027.17684 C 5.680739 1029.32238 4.434095 1032.330342 4.434095 1035.35934 C 4.434095 1038.388338 5.680739 1041.396301 7.817843 1043.541841 C 9.954947 1045.687381 12.962723 1046.928428 15.990286 1046.928428 C 19.037638 1046.928428 22.045414 1045.687381 24.182518 1043.541841 C 26.319622 1041.396301 27.566266 1038.388338 27.566266 1035.35934 C 27.566266 1032.330342 26.319622 1029.32238 24.182518 1027.17684 C 22.045414 1025.052334 19.037638 1023.790252 15.990286 1023.790252 Z M 15.990286 1023.790252 " transform="matrix(0.197405,0,0,0.185705,2.8825,-183.04875)"/>
<path style="fill:none;stroke-width:1;stroke-linecap:round;stroke-linejoin:round;stroke:url(#linear1);stroke-miterlimit:4;" d="M 31.998778 1023.937495 C 29.01079 1023.937495 26.04259 1025.178543 23.925274 1027.282013 C 21.807958 1029.406518 20.581102 1032.372412 20.581102 1035.35934 C 20.581102 1038.367303 21.807958 1041.333196 23.925274 1043.436667 C 26.04259 1045.561172 29.01079 1046.80222 31.998778 1046.80222 C 34.986766 1046.80222 37.954966 1045.561172 40.072282 1043.436667 C 42.189598 1041.333196 43.416453 1038.367303 43.416453 1035.35934 C 43.416453 1032.372412 42.189598 1029.406518 40.072282 1027.282013 C 37.974754 1025.178543 34.986766 1023.937495 31.998778 1023.937495 Z M 31.998778 1023.937495 " transform="matrix(0.197405,0,0,0.185705,2.8825,-183.04875)"/>
<path style="fill:none;stroke-width:1;stroke-linecap:round;stroke-linejoin:round;stroke:url(#linear2);stroke-miterlimit:4;" d="M 24.004426 1007.845945 C 20.976862 1007.845945 17.988874 1009.086993 15.85177 1011.211498 C 13.714667 1013.357038 12.468023 1016.343966 12.468023 1019.372964 C 12.468023 1022.380927 13.714667 1025.38889 15.85177 1027.513395 C 17.988874 1029.658935 20.976862 1030.899982 24.004426 1030.899982 C 27.012202 1030.899982 30.019978 1029.658935 32.157082 1027.513395 C 34.274398 1025.38889 35.521042 1022.380927 35.521042 1019.372964 C 35.521042 1016.343966 34.274398 1013.336003 32.157082 1011.211498 C 30.019978 1009.086993 27.012202 1007.845945 24.004426 1007.845945 Z M 24.004426 1007.845945 " transform="matrix(0.197405,0,0,0.185705,2.8825,-183.04875)"/>
</g>
</svg>
