
<svg xmlns="http://www.w3.org/2000/svg" xmlns:xlink="http://www.w3.org/1999/xlink" width="16px" height="16px" viewBox="0 0 16 16" version="1.1">
<g id="surface1">
<path style=" stroke:none;fill-rule:nonzero;fill:rgb(23.529412%,70.196078%,44.313725%);fill-opacity:1;" d="M 13.199219 2.4375 C 25.8125 18.945312 -8.902344 21.289062 2.238281 4.4375 C 4.777344 0.597656 9.855469 -1.9375 13.199219 2.4375 Z M 13.199219 2.4375 "/>
<path style=" stroke:none;fill-rule:nonzero;fill:rgb(0%,100%,49.803922%);fill-opacity:1;" d="M 7.152344 12.964844 C 6.90625 12.929688 6.671875 12.855469 6.628906 12.792969 C 6.585938 12.734375 6.335938 12.535156 6.074219 12.351562 C 5.8125 12.171875 5.464844 11.878906 5.300781 11.703125 C 5.007812 11.394531 4.777344 10.972656 4.839844 10.871094 C 4.882812 10.796875 5.296875 10.914062 5.730469 11.121094 C 6.023438 11.261719 6.265625 11.304688 6.894531 11.328125 C 7.761719 11.363281 8.242188 11.261719 8.921875 10.90625 C 9.285156 10.714844 10.015625 10.074219 10.015625 9.945312 C 10.015625 9.910156 9.789062 9.632812 9.515625 9.332031 C 8.8125 8.558594 8.820312 8.554688 10.945312 8.582031 L 12.589844 8.605469 L 12.609375 10.292969 C 12.628906 12.035156 12.605469 12.191406 12.328125 12.191406 C 12.253906 12.191406 11.996094 11.972656 11.75 11.703125 L 11.308594 11.210938 L 10.96875 11.609375 C 10.449219 12.214844 9.457031 12.875 8.921875 12.96875 C 8.429688 13.050781 7.800781 13.046875 7.152344 12.964844 Z M 9.492188 8.875 C 9.492188 8.832031 9.457031 8.796875 9.414062 8.796875 C 9.371094 8.796875 9.355469 8.832031 9.382812 8.875 C 9.40625 8.917969 9.441406 8.949219 9.460938 8.949219 C 9.480469 8.949219 9.492188 8.917969 9.492188 8.875 Z M 3.882812 8.828125 C 3.851562 8.796875 3.828125 7.996094 3.828125 7.050781 C 3.828125 5.402344 3.835938 5.324219 3.976562 5.246094 C 4.105469 5.175781 4.1875 5.21875 4.546875 5.570312 C 4.777344 5.796875 5.007812 6.078125 5.058594 6.199219 L 5.148438 6.421875 L 5.195312 6.230469 C 5.257812 5.972656 6.128906 5.136719 6.589844 4.898438 C 7.722656 4.300781 9.214844 4.367188 10.355469 5.058594 C 10.800781 5.332031 11.390625 5.941406 11.585938 6.332031 C 11.722656 6.613281 11.722656 6.640625 11.609375 6.6875 C 11.542969 6.714844 11.433594 6.695312 11.367188 6.644531 C 11.054688 6.410156 10.398438 6.160156 9.890625 6.089844 C 8.875 5.941406 7.835938 6.214844 7.03125 6.839844 C 6.410156 7.328125 6.371094 7.421875 6.664062 7.777344 C 6.792969 7.933594 7.035156 8.195312 7.199219 8.359375 C 7.429688 8.585938 7.480469 8.675781 7.410156 8.746094 C 7.3125 8.847656 3.976562 8.925781 3.882812 8.828125 Z M 3.882812 8.828125 "/>
</g>
</svg>
