
<svg xmlns="http://www.w3.org/2000/svg" xmlns:xlink="http://www.w3.org/1999/xlink" width="16px" height="16px" viewBox="0 0 16 16" version="1.1">
<g id="surface1">
<path style=" stroke:none;fill-rule:nonzero;fill:rgb(100%,84.313725%,0%);fill-opacity:1;" d="M 14.351562 12.238281 C 20.105469 4.058594 9.480469 -4.234375 2.703125 2.433594 C -3.683594 8.714844 2.238281 18.476562 10.183594 15.425781 C 11.839844 14.789062 13.296875 13.742188 14.351562 12.238281 Z M 14.351562 12.238281 "/>
<path style=" stroke:none;fill-rule:nonzero;fill:rgb(0%,0%,0%);fill-opacity:0.101961;" d="M 5.300781 5.847656 L 11.082031 5.847656 C 11.136719 5.847656 11.179688 5.890625 11.179688 5.945312 L 11.179688 11.621094 C 11.179688 11.675781 11.136719 11.71875 11.082031 11.71875 L 5.300781 11.71875 C 5.246094 11.71875 5.199219 11.675781 5.199219 11.621094 L 5.199219 5.945312 C 5.199219 5.890625 5.246094 5.847656 5.300781 5.847656 Z M 5.300781 5.847656 "/>
<path style=" stroke:none;fill-rule:nonzero;fill:rgb(41.176471%,10.196078%,10.588235%);fill-opacity:1;" d="M 4.925781 5.480469 L 10.707031 5.480469 C 10.761719 5.480469 10.808594 5.523438 10.808594 5.578125 L 10.808594 11.253906 C 10.808594 11.308594 10.761719 11.351562 10.707031 11.351562 L 4.925781 11.351562 C 4.871094 11.351562 4.824219 11.308594 4.824219 11.253906 L 4.824219 5.578125 C 4.824219 5.523438 4.871094 5.480469 4.925781 5.480469 Z M 4.925781 5.480469 "/>
<path style=" stroke:none;fill-rule:nonzero;fill:rgb(0%,0%,0%);fill-opacity:0.101961;" d="M 12.453125 4.011719 C 12.25 4.011719 12.082031 4.171875 12.070312 4.367188 L 10.9375 5.515625 C 10.671875 5.304688 10.339844 5.132812 9.980469 5.035156 L 9.898438 5.320312 C 10.101562 5.375 10.300781 5.476562 10.480469 5.582031 L 4.253906 11.847656 L 4.019531 12.867188 L 4.066406 12.855469 L 4.042969 12.878906 L 4.910156 12.671875 L 5.035156 12.636719 L 5.046875 12.636719 L 8.867188 8.785156 L 11.277344 6.363281 C 11.433594 6.601562 11.570312 6.859375 11.613281 7.0625 L 11.917969 6.992188 C 11.835938 6.617188 11.578125 6.222656 11.324219 5.914062 L 12.480469 4.757812 C 12.679688 4.742188 12.828125 4.589844 12.828125 4.390625 C 12.828125 4.183594 12.667969 4.011719 12.457031 4.011719 Z M 12.453125 4.011719 "/>
<path style=" stroke:none;fill-rule:nonzero;fill:rgb(40%,40%,40%);fill-opacity:1;" d="M 3.652344 12.5 L 3.882812 11.476562 L 10.265625 5.046875 L 11.054688 5.84375 L 4.667969 12.269531 L 3.652344 12.503906 L 10.539062 5.566406 Z M 3.652344 12.5 "/>
<path style=" stroke:none;fill-rule:nonzero;fill:rgb(60%,60%,60%);fill-opacity:1;" d="M 10.566406 5.566406 L 3.667969 12.507812 L 4.664062 12.277344 L 10.957031 5.941406 Z M 10.566406 5.566406 "/>
<path style=" stroke:none;fill-rule:nonzero;fill:rgb(47.058824%,26.666667%,12.941176%);fill-opacity:1;" d="M 10.566406 5.59375 L 10.511719 5.535156 C 10.417969 5.441406 10.417969 5.289062 10.511719 5.195312 L 11.84375 3.855469 C 11.9375 3.761719 12.085938 3.761719 12.179688 3.855469 L 12.238281 3.914062 C 12.328125 4.007812 12.328125 4.160156 12.238281 4.253906 L 10.90625 5.59375 C 10.8125 5.6875 10.660156 5.6875 10.566406 5.59375 Z M 10.566406 5.59375 "/>
<path style=" stroke:none;fill-rule:nonzero;fill:rgb(52.54902%,42.352941%,17.647059%);fill-opacity:1;" d="M 9.605469 4.664062 L 9.523438 4.953125 C 9.921875 5.0625 10.296875 5.300781 10.550781 5.550781 C 10.820312 5.839844 11.160156 6.347656 11.238281 6.695312 L 11.542969 6.628906 C 11.441406 6.164062 11.070312 5.664062 10.773438 5.34375 L 10.773438 5.332031 C 10.484375 5.046875 10.066406 4.792969 9.605469 4.664062 Z M 9.605469 4.664062 "/>
<path style=" stroke:none;fill-rule:nonzero;fill:rgb(52.54902%,42.352941%,17.647059%);fill-opacity:1;" d="M 12.457031 4.019531 C 12.457031 4.226562 12.285156 4.394531 12.074219 4.394531 C 11.863281 4.394531 11.695312 4.226562 11.695312 4.019531 C 11.695312 3.8125 11.863281 3.644531 12.074219 3.644531 C 12.285156 3.644531 12.457031 3.8125 12.457031 4.019531 Z M 12.457031 4.019531 "/>
</g>
</svg>
