
<svg xmlns="http://www.w3.org/2000/svg" xmlns:xlink="http://www.w3.org/1999/xlink" width="16px" height="16px" viewBox="0 0 16 16" version="1.1">
<g id="surface1">
<path style=" stroke:none;fill-rule:nonzero;fill:rgb(84.705882%,74.901961%,84.705882%);fill-opacity:1;" d="M 3.808594 14.308594 C 11.878906 20.007812 20.054688 9.484375 13.480469 2.769531 C 7.285156 -3.558594 -2.339844 2.308594 0.671875 10.179688 C 1.296875 11.820312 2.328125 13.261719 3.808594 14.308594 Z M 3.808594 14.308594 "/>
<path style=" stroke:none;fill-rule:nonzero;fill:rgb(81.568627%,81.568627%,81.568627%);fill-opacity:1;" d="M 8.902344 12.777344 C 8.851562 12.714844 8.757812 12.667969 8.695312 12.667969 C 8.632812 12.667969 8.261719 12.460938 7.871094 12.207031 C 7.042969 11.671875 6.484375 11.476562 5.691406 11.445312 C 4.941406 11.417969 4.914062 11.398438 4.972656 10.882812 C 5.007812 10.535156 4.988281 10.398438 4.839844 10.085938 C 4.65625 9.695312 4.09375 9.132812 3.429688 8.683594 C 3.03125 8.414062 2.976562 8.207031 3.234375 7.9375 C 3.320312 7.847656 3.476562 7.589844 3.578125 7.363281 C 3.789062 6.898438 3.832031 6.148438 3.679688 5.570312 C 3.566406 5.136719 3.210938 4.269531 3.132812 4.238281 C 3.101562 4.222656 3.074219 4.113281 3.074219 3.996094 C 3.074219 3.8125 3.105469 3.777344 3.261719 3.777344 C 3.363281 3.777344 3.449219 3.8125 3.449219 3.851562 C 3.449219 3.894531 3.484375 3.925781 3.527344 3.925781 C 3.785156 3.925781 5.367188 5.3125 5.582031 5.726562 C 5.671875 5.898438 5.660156 5.984375 5.496094 6.449219 C 5.339844 6.90625 5.324219 7.027344 5.390625 7.316406 C 5.46875 7.667969 5.703125 8.136719 6.089844 8.707031 C 6.347656 9.089844 7.25 10.050781 7.351562 10.050781 C 7.386719 10.050781 7.292969 9.816406 7.140625 9.527344 C 6.859375 8.992188 6.589844 8.707031 6.367188 8.707031 C 6.191406 8.707031 6.0625 8.558594 6.0625 8.351562 C 6.0625 8.234375 6.144531 8.132812 6.324219 8.023438 C 6.46875 7.941406 6.585938 7.859375 6.585938 7.84375 C 6.585938 7.828125 6.535156 7.621094 6.46875 7.382812 C 6.40625 7.148438 6.332031 6.507812 6.308594 5.960938 L 6.265625 4.972656 L 6.464844 4.972656 C 6.628906 4.972656 6.71875 5.0625 6.992188 5.488281 C 7.324219 6.003906 7.734375 6.390625 7.949219 6.390625 C 8.167969 6.390625 8.503906 6.027344 8.785156 5.496094 C 8.980469 5.125 9.101562 4.972656 9.203125 4.972656 C 9.449219 4.972656 9.527344 5.257812 9.53125 6.167969 C 9.535156 6.910156 9.507812 7.121094 9.324219 7.726562 C 9.183594 8.183594 9.121094 8.523438 9.144531 8.699219 C 9.183594 8.984375 9.453125 9.640625 9.5625 9.707031 C 9.59375 9.726562 9.78125 9.34375 9.972656 8.851562 C 10.285156 8.058594 10.320312 7.894531 10.320312 7.375 C 10.320312 6.988281 10.269531 6.636719 10.175781 6.347656 C 10.09375 6.105469 10.027344 5.832031 10.023438 5.746094 C 10.019531 5.414062 11.683594 3.925781 12.058594 3.925781 C 12.128906 3.925781 12.191406 3.890625 12.191406 3.851562 C 12.191406 3.808594 12.289062 3.777344 12.414062 3.777344 C 12.726562 3.777344 12.707031 3.929688 12.300781 4.707031 C 12.019531 5.246094 11.964844 5.417969 11.964844 5.769531 C 11.964844 6.203125 12.152344 6.632812 12.378906 6.71875 C 12.558594 6.785156 12.503906 7.125 12.261719 7.480469 C 11.761719 8.203125 11.667969 9.070312 12.007812 9.828125 C 12.273438 10.421875 12.238281 10.574219 11.8125 10.683594 C 11.324219 10.804688 10.910156 11.132812 10.0625 12.070312 C 9.304688 12.902344 9.105469 13.023438 8.902344 12.777344 Z M 8.902344 12.777344 "/>
<path style=" stroke:none;fill-rule:nonzero;fill:rgb(62.745098%,62.745098%,62.745098%);fill-opacity:1;" d="M 8.914062 12.664062 C 8.816406 12.582031 8.683594 12.515625 8.613281 12.515625 C 8.546875 12.515625 8.289062 12.378906 8.042969 12.214844 C 7.109375 11.582031 6.382812 11.324219 5.53125 11.320312 C 5.046875 11.320312 4.992188 11.253906 5.0625 10.796875 C 5.160156 10.195312 4.820312 9.664062 3.828125 8.875 C 3.433594 8.5625 3.101562 8.296875 3.085938 8.285156 C 3.070312 8.277344 3.148438 8.171875 3.257812 8.058594 C 3.53125 7.765625 3.804688 7.160156 3.859375 6.722656 C 3.929688 6.203125 3.800781 5.535156 3.484375 4.742188 C 3.296875 4.273438 3.234375 4.035156 3.289062 3.980469 C 3.417969 3.851562 4.035156 4.273438 4.8125 5.035156 C 5.625 5.828125 5.652344 5.898438 5.382812 6.503906 C 5.265625 6.769531 5.234375 6.945312 5.269531 7.1875 C 5.359375 7.847656 6.019531 8.886719 6.914062 9.789062 C 7.609375 10.488281 7.734375 10.433594 7.292969 9.621094 C 6.886719 8.878906 6.769531 8.738281 6.503906 8.660156 C 6.167969 8.566406 6.070312 8.382812 6.246094 8.1875 C 6.324219 8.101562 6.433594 8.035156 6.488281 8.035156 C 6.65625 8.035156 6.671875 7.867188 6.550781 7.355469 C 6.488281 7.09375 6.414062 6.480469 6.386719 5.996094 C 6.339844 5.144531 6.34375 5.121094 6.496094 5.121094 C 6.605469 5.121094 6.753906 5.273438 6.996094 5.640625 C 7.34375 6.164062 7.707031 6.464844 7.992188 6.464844 C 8.210938 6.464844 8.601562 6.050781 8.867188 5.546875 C 9.257812 4.800781 9.429688 4.996094 9.4375 6.191406 C 9.441406 6.917969 9.429688 6.984375 9.160156 7.933594 C 9.066406 8.265625 9.007812 8.621094 9.027344 8.714844 C 9.109375 9.058594 9.527344 9.90625 9.601562 9.878906 C 9.644531 9.867188 9.84375 9.4375 10.046875 8.925781 C 10.386719 8.070312 10.414062 7.945312 10.414062 7.363281 C 10.417969 6.886719 10.375 6.617188 10.25 6.292969 C 10.15625 6.046875 10.101562 5.785156 10.128906 5.683594 C 10.191406 5.433594 11.351562 4.363281 11.84375 4.109375 C 12.074219 3.988281 12.265625 3.863281 12.265625 3.832031 C 12.265625 3.800781 12.347656 3.777344 12.453125 3.777344 C 12.707031 3.777344 12.6875 3.882812 12.339844 4.449219 C 11.746094 5.40625 11.6875 6.089844 12.160156 6.613281 C 12.449219 6.929688 12.480469 7.128906 12.273438 7.316406 C 12.195312 7.386719 12.039062 7.652344 11.925781 7.90625 C 11.636719 8.546875 11.632812 9.242188 11.917969 9.859375 C 12.027344 10.097656 12.117188 10.339844 12.117188 10.394531 C 12.117188 10.449219 11.972656 10.53125 11.800781 10.578125 C 11.324219 10.707031 10.941406 11.011719 10.058594 11.953125 C 9.617188 12.425781 9.21875 12.8125 9.171875 12.8125 C 9.125 12.8125 9.011719 12.742188 8.914062 12.664062 Z M 8.914062 12.664062 "/>
<path style=" stroke:none;fill-rule:nonzero;fill:rgb(77.647059%,64.313725%,0%);fill-opacity:1;" d="M 8.976562 12.550781 C 8.867188 12.4375 8.738281 12.371094 8.660156 12.394531 C 8.585938 12.414062 8.324219 12.296875 8.0625 12.125 C 7.074219 11.484375 6.40625 11.246094 5.582031 11.246094 C 5.128906 11.246094 5.082031 11.195312 5.144531 10.742188 C 5.222656 10.164062 4.839844 9.578125 3.898438 8.832031 C 3.589844 8.589844 3.3125 8.351562 3.285156 8.304688 C 3.257812 8.257812 3.363281 8.027344 3.523438 7.789062 C 4.058594 6.992188 4.089844 6.15625 3.628906 4.925781 C 3.351562 4.183594 3.328125 4.074219 3.457031 4.074219 C 3.761719 4.074219 5.464844 5.640625 5.464844 5.917969 C 5.464844 5.992188 5.394531 6.238281 5.308594 6.464844 C 5.109375 6.988281 5.144531 7.34375 5.460938 7.96875 C 5.816406 8.664062 6.363281 9.367188 7.058594 10.019531 C 7.394531 10.335938 7.746094 10.699219 7.839844 10.824219 C 8.097656 11.175781 8.042969 11.011719 7.566406 10.023438 C 7.0625 8.984375 6.828125 8.664062 6.511719 8.59375 C 6.386719 8.566406 6.28125 8.515625 6.277344 8.476562 C 6.242188 8.273438 6.273438 8.230469 6.511719 8.117188 C 6.796875 7.980469 6.796875 7.984375 6.628906 7.328125 C 6.566406 7.082031 6.496094 6.519531 6.464844 6.074219 C 6.421875 5.367188 6.429688 5.269531 6.535156 5.269531 C 6.601562 5.269531 6.777344 5.457031 6.925781 5.683594 C 7.269531 6.195312 7.675781 6.539062 7.945312 6.539062 C 8.226562 6.539062 8.613281 6.183594 8.875 5.683594 C 9.257812 4.949219 9.390625 5.183594 9.332031 6.488281 C 9.304688 7.089844 9.246094 7.453125 9.128906 7.773438 C 8.882812 8.453125 8.90625 8.808594 9.25 9.457031 C 9.40625 9.757812 9.570312 10 9.613281 10 C 9.652344 9.996094 9.871094 9.546875 10.09375 8.996094 C 10.460938 8.085938 10.496094 7.945312 10.5 7.398438 C 10.503906 6.960938 10.457031 6.660156 10.328125 6.265625 L 10.152344 5.734375 L 10.421875 5.402344 C 10.570312 5.222656 10.863281 4.929688 11.070312 4.753906 C 11.449219 4.433594 12.238281 3.925781 12.355469 3.925781 C 12.476562 3.925781 12.40625 4.152344 12.109375 4.722656 C 11.636719 5.632812 11.640625 6.140625 12.117188 6.679688 C 12.238281 6.820312 12.339844 6.972656 12.339844 7.019531 C 12.339844 7.070312 12.246094 7.242188 12.128906 7.402344 C 11.589844 8.152344 11.488281 9.070312 11.847656 9.878906 C 11.964844 10.132812 12.035156 10.371094 12.011719 10.410156 C 11.988281 10.449219 11.851562 10.503906 11.710938 10.53125 C 11.335938 10.601562 10.800781 11.035156 9.984375 11.921875 C 9.59375 12.351562 9.246094 12.710938 9.214844 12.722656 C 9.183594 12.734375 9.074219 12.65625 8.976562 12.550781 Z M 8.976562 12.550781 "/>
<path style=" stroke:none;fill-rule:nonzero;fill:rgb(37.254902%,37.254902%,37.254902%);fill-opacity:1;" d="M 8.976562 12.550781 C 8.867188 12.4375 8.738281 12.371094 8.660156 12.394531 C 8.585938 12.414062 8.324219 12.296875 8.0625 12.125 C 7.074219 11.484375 6.40625 11.246094 5.582031 11.246094 C 5.128906 11.246094 5.082031 11.195312 5.144531 10.742188 C 5.222656 10.164062 4.839844 9.578125 3.898438 8.832031 C 3.589844 8.589844 3.3125 8.351562 3.285156 8.304688 C 3.257812 8.257812 3.363281 8.027344 3.523438 7.789062 C 4.058594 6.992188 4.089844 6.15625 3.628906 4.925781 C 3.351562 4.183594 3.328125 4.074219 3.457031 4.074219 C 3.761719 4.074219 5.464844 5.640625 5.464844 5.917969 C 5.464844 5.992188 5.394531 6.238281 5.308594 6.464844 C 5.109375 6.988281 5.144531 7.34375 5.460938 7.96875 C 5.816406 8.664062 6.363281 9.367188 7.058594 10.019531 C 7.394531 10.335938 7.746094 10.699219 7.839844 10.824219 C 8.097656 11.175781 8.042969 11.011719 7.566406 10.023438 C 7.0625 8.984375 6.828125 8.664062 6.511719 8.59375 C 6.386719 8.566406 6.28125 8.515625 6.277344 8.476562 C 6.242188 8.273438 6.273438 8.230469 6.511719 8.117188 C 6.796875 7.980469 6.796875 7.984375 6.628906 7.328125 C 6.566406 7.082031 6.496094 6.519531 6.464844 6.074219 C 6.421875 5.367188 6.429688 5.269531 6.535156 5.269531 C 6.601562 5.269531 6.777344 5.457031 6.925781 5.683594 C 7.269531 6.195312 7.675781 6.539062 7.945312 6.539062 C 8.226562 6.539062 8.613281 6.183594 8.875 5.683594 C 9.257812 4.949219 9.390625 5.183594 9.332031 6.488281 C 9.304688 7.089844 9.246094 7.453125 9.128906 7.773438 C 8.882812 8.453125 8.90625 8.808594 9.25 9.457031 C 9.40625 9.757812 9.570312 10 9.613281 10 C 9.652344 9.996094 9.871094 9.546875 10.09375 8.996094 C 10.460938 8.085938 10.496094 7.945312 10.5 7.398438 C 10.503906 6.960938 10.457031 6.660156 10.328125 6.265625 L 10.152344 5.734375 L 10.421875 5.402344 C 10.570312 5.222656 10.863281 4.929688 11.070312 4.753906 C 11.449219 4.433594 12.238281 3.925781 12.355469 3.925781 C 12.476562 3.925781 12.40625 4.152344 12.109375 4.722656 C 11.636719 5.632812 11.640625 6.140625 12.117188 6.679688 C 12.238281 6.820312 12.339844 6.972656 12.339844 7.019531 C 12.339844 7.070312 12.246094 7.242188 12.128906 7.402344 C 11.589844 8.152344 11.488281 9.070312 11.847656 9.878906 C 11.964844 10.132812 12.035156 10.371094 12.011719 10.410156 C 11.988281 10.449219 11.851562 10.503906 11.710938 10.53125 C 11.335938 10.601562 10.800781 11.035156 9.984375 11.921875 C 9.59375 12.351562 9.246094 12.710938 9.214844 12.722656 C 9.183594 12.734375 9.074219 12.65625 8.976562 12.550781 Z M 8.5 7.476562 C 8.449219 7.285156 8.289062 7.195312 8.117188 7.261719 C 7.957031 7.320312 7.980469 7.566406 8.148438 7.621094 C 8.226562 7.648438 8.3125 7.722656 8.339844 7.792969 C 8.386719 7.914062 8.394531 7.914062 8.464844 7.785156 C 8.507812 7.710938 8.523438 7.574219 8.5 7.476562 Z M 7.53125 7.402344 C 7.394531 7.195312 7.261719 7.164062 7.125 7.300781 C 6.976562 7.453125 7.023438 7.550781 7.277344 7.628906 C 7.59375 7.726562 7.6875 7.644531 7.53125 7.402344 Z M 7.53125 7.402344 "/>
<path style=" stroke:none;fill-rule:nonzero;fill:rgb(75.294118%,29.411765%,0%);fill-opacity:1;" d="M 8.695312 11.933594 C 8.488281 11.574219 8.113281 10.875 7.855469 10.386719 C 7.042969 8.828125 6.957031 8.703125 6.601562 8.550781 C 6.238281 8.394531 6.246094 8.308594 6.636719 8.144531 C 6.855469 8.054688 6.894531 8.003906 6.859375 7.867188 C 6.835938 7.773438 6.769531 7.507812 6.710938 7.269531 C 6.5625 6.691406 6.46875 5.421875 6.574219 5.421875 C 6.617188 5.421875 6.753906 5.566406 6.875 5.742188 C 7.234375 6.265625 7.667969 6.617188 7.957031 6.617188 C 8.164062 6.617188 8.269531 6.550781 8.535156 6.257812 C 8.71875 6.058594 8.921875 5.789062 8.996094 5.65625 C 9.226562 5.21875 9.300781 5.429688 9.253906 6.421875 C 9.226562 7.085938 9.171875 7.445312 9.054688 7.773438 C 8.808594 8.449219 8.832031 8.8125 9.171875 9.503906 C 9.34375 9.851562 9.515625 10.097656 9.59375 10.113281 C 9.738281 10.140625 9.71875 10.175781 10.222656 8.894531 C 10.542969 8.078125 10.574219 7.941406 10.578125 7.363281 C 10.578125 6.871094 10.539062 6.613281 10.394531 6.21875 L 10.210938 5.707031 L 10.886719 5.058594 C 11.511719 4.464844 12.203125 3.988281 12.296875 4.085938 C 12.320312 4.105469 12.1875 4.417969 12 4.777344 C 11.527344 5.695312 11.554688 6.199219 12.101562 6.789062 C 12.265625 6.960938 12.28125 7.019531 12.207031 7.125 C 11.472656 8.183594 11.363281 9.007812 11.816406 10.03125 C 11.949219 10.335938 11.953125 10.359375 11.832031 10.402344 C 11.199219 10.621094 10.984375 10.777344 10.132812 11.660156 C 9.640625 12.171875 9.199219 12.59375 9.152344 12.59375 C 9.105469 12.59375 8.898438 12.296875 8.695312 11.9375 Z M 8.5 7.476562 C 8.449219 7.285156 8.289062 7.195312 8.117188 7.261719 C 7.957031 7.320312 7.980469 7.566406 8.148438 7.621094 C 8.226562 7.648438 8.3125 7.722656 8.339844 7.792969 C 8.386719 7.914062 8.394531 7.914062 8.464844 7.785156 C 8.507812 7.710938 8.523438 7.574219 8.5 7.476562 Z M 7.53125 7.402344 C 7.394531 7.195312 7.261719 7.164062 7.125 7.300781 C 6.976562 7.453125 7.023438 7.550781 7.277344 7.628906 C 7.59375 7.726562 7.6875 7.644531 7.53125 7.402344 Z M 7.8125 11.894531 C 7.101562 11.429688 6.539062 11.234375 5.765625 11.175781 L 5.203125 11.136719 L 5.226562 10.789062 C 5.277344 10.109375 4.867188 9.515625 3.671875 8.546875 L 3.335938 8.273438 L 3.472656 8.058594 C 3.902344 7.378906 4.007812 7.046875 4.003906 6.355469 C 3.996094 5.777344 3.957031 5.578125 3.730469 4.953125 C 3.449219 4.191406 3.464844 4.113281 3.855469 4.371094 C 4.234375 4.621094 5.390625 5.808594 5.390625 5.949219 C 5.390625 6.019531 5.320312 6.242188 5.234375 6.441406 C 5.03125 6.914062 5.074219 7.363281 5.382812 7.992188 C 5.699219 8.632812 6.523438 9.6875 7.117188 10.210938 C 7.449219 10.507812 7.726562 10.851562 8.027344 11.355469 C 8.269531 11.75 8.453125 12.121094 8.441406 12.179688 C 8.421875 12.257812 8.242188 12.175781 7.8125 11.894531 Z M 7.8125 11.894531 "/>
<path style=" stroke:none;fill-rule:nonzero;fill:rgb(18.039216%,18.039216%,18.039216%);fill-opacity:1;" d="M 8.695312 11.933594 C 8.488281 11.574219 8.113281 10.875 7.855469 10.386719 C 7.042969 8.828125 6.957031 8.703125 6.601562 8.550781 C 6.238281 8.394531 6.246094 8.308594 6.636719 8.144531 C 6.855469 8.054688 6.894531 8.003906 6.859375 7.867188 C 6.835938 7.773438 6.769531 7.507812 6.710938 7.269531 C 6.5625 6.691406 6.46875 5.421875 6.574219 5.421875 C 6.617188 5.421875 6.753906 5.566406 6.875 5.742188 C 7.234375 6.265625 7.667969 6.617188 7.957031 6.617188 C 8.164062 6.617188 8.269531 6.550781 8.535156 6.257812 C 8.71875 6.058594 8.921875 5.789062 8.996094 5.65625 C 9.226562 5.21875 9.300781 5.429688 9.253906 6.421875 C 9.226562 7.085938 9.171875 7.445312 9.054688 7.773438 C 8.808594 8.449219 8.832031 8.8125 9.171875 9.503906 C 9.34375 9.851562 9.515625 10.097656 9.59375 10.113281 C 9.738281 10.140625 9.71875 10.175781 10.222656 8.894531 C 10.542969 8.078125 10.574219 7.941406 10.578125 7.363281 C 10.578125 6.871094 10.539062 6.613281 10.394531 6.21875 L 10.210938 5.707031 L 10.886719 5.058594 C 11.511719 4.464844 12.203125 3.988281 12.296875 4.085938 C 12.320312 4.105469 12.1875 4.417969 12 4.777344 C 11.527344 5.695312 11.554688 6.199219 12.101562 6.789062 C 12.265625 6.960938 12.28125 7.019531 12.207031 7.125 C 11.472656 8.183594 11.363281 9.007812 11.816406 10.03125 C 11.949219 10.335938 11.953125 10.359375 11.832031 10.402344 C 11.199219 10.621094 10.984375 10.777344 10.132812 11.660156 C 9.640625 12.171875 9.199219 12.59375 9.152344 12.59375 C 9.105469 12.59375 8.898438 12.296875 8.695312 11.9375 Z M 7.515625 7.917969 C 7.75 7.683594 7.601562 7.214844 7.296875 7.214844 C 6.984375 7.214844 6.851562 7.644531 7.082031 7.898438 C 7.234375 8.066406 7.359375 8.070312 7.515625 7.917969 Z M 8.4375 7.945312 C 8.488281 7.894531 8.527344 7.75 8.527344 7.617188 C 8.527344 7.183594 8.148438 7.074219 7.9375 7.449219 C 7.839844 7.625 7.839844 7.664062 7.957031 7.839844 C 8.09375 8.046875 8.292969 8.089844 8.4375 7.945312 Z M 7.8125 11.894531 C 7.101562 11.429688 6.539062 11.234375 5.765625 11.175781 L 5.203125 11.136719 L 5.226562 10.789062 C 5.277344 10.109375 4.867188 9.515625 3.671875 8.546875 L 3.335938 8.273438 L 3.472656 8.058594 C 3.902344 7.378906 4.007812 7.046875 4.003906 6.355469 C 3.996094 5.777344 3.957031 5.578125 3.730469 4.953125 C 3.449219 4.191406 3.464844 4.113281 3.855469 4.371094 C 4.234375 4.621094 5.390625 5.808594 5.390625 5.949219 C 5.390625 6.019531 5.320312 6.242188 5.234375 6.441406 C 5.03125 6.914062 5.070312 7.363281 5.382812 7.992188 C 5.699219 8.632812 6.523438 9.6875 7.117188 10.210938 C 7.449219 10.507812 7.726562 10.851562 8.027344 11.355469 C 8.269531 11.75 8.453125 12.121094 8.441406 12.179688 C 8.421875 12.257812 8.242188 12.175781 7.808594 11.894531 Z M 7.8125 11.894531 "/>
<path style=" stroke:none;fill-rule:nonzero;fill:rgb(1.176471%,1.176471%,1.176471%);fill-opacity:1;" d="M 8.546875 11.457031 C 8.222656 10.867188 7.777344 10.050781 7.5625 9.640625 C 7.144531 8.839844 6.863281 8.484375 6.652344 8.484375 C 6.394531 8.484375 6.441406 8.34375 6.753906 8.195312 C 6.945312 8.105469 7.152344 8.058594 7.269531 8.082031 C 7.410156 8.113281 7.515625 8.078125 7.632812 7.960938 L 7.796875 7.796875 L 7.90625 7.953125 C 8.136719 8.285156 8.679688 8.054688 8.679688 7.625 C 8.679688 7.203125 8.175781 6.976562 7.902344 7.28125 C 7.777344 7.417969 7.769531 7.417969 7.59375 7.242188 C 7.363281 7.011719 7.21875 7.015625 7 7.253906 L 6.824219 7.445312 L 6.746094 7.050781 C 6.632812 6.453125 6.582031 5.644531 6.65625 5.644531 C 6.695312 5.644531 6.792969 5.757812 6.882812 5.898438 C 7.195312 6.410156 7.796875 6.816406 8.089844 6.722656 C 8.320312 6.652344 8.6875 6.304688 8.914062 5.953125 C 9.082031 5.6875 9.132812 5.648438 9.171875 5.75 C 9.273438 6.019531 9.144531 7.179688 8.9375 7.84375 C 8.75 8.449219 8.738281 8.546875 8.820312 8.847656 C 8.925781 9.25 9.429688 10.21875 9.546875 10.257812 C 9.710938 10.304688 9.863281 10.046875 10.253906 9.0625 C 10.628906 8.117188 10.648438 8.039062 10.652344 7.363281 C 10.652344 6.808594 10.617188 6.558594 10.492188 6.214844 L 10.328125 5.777344 L 10.527344 5.515625 C 10.875 5.058594 12.113281 4.082031 12.113281 4.265625 C 12.113281 4.292969 11.996094 4.554688 11.855469 4.855469 C 11.65625 5.261719 11.59375 5.496094 11.59375 5.789062 C 11.59375 6.210938 11.648438 6.359375 11.976562 6.773438 L 12.1875 7.046875 L 12.039062 7.238281 C 11.953125 7.34375 11.792969 7.625 11.683594 7.863281 C 11.414062 8.4375 11.398438 9.300781 11.652344 9.855469 C 11.742188 10.054688 11.816406 10.246094 11.816406 10.273438 C 11.816406 10.304688 11.691406 10.363281 11.535156 10.410156 C 11.171875 10.523438 10.703125 10.917969 9.90625 11.78125 C 9.550781 12.164062 9.234375 12.488281 9.203125 12.5 C 9.171875 12.515625 8.875 12.042969 8.546875 11.457031 Z M 8.007812 11.914062 C 7.449219 11.46875 6.445312 11.097656 5.789062 11.097656 L 5.316406 11.097656 L 5.3125 10.703125 C 5.3125 9.992188 4.933594 9.429688 3.964844 8.691406 C 3.679688 8.476562 3.449219 8.269531 3.449219 8.234375 C 3.449219 8.203125 3.53125 8.0625 3.636719 7.925781 C 4.183594 7.207031 4.257812 6.136719 3.835938 4.988281 C 3.710938 4.652344 3.636719 4.375 3.671875 4.375 C 3.773438 4.375 4.425781 4.921875 4.902344 5.410156 L 5.347656 5.867188 L 5.207031 6.222656 C 5.128906 6.417969 5.050781 6.765625 5.035156 6.992188 C 5.007812 7.367188 5.039062 7.472656 5.332031 8.042969 C 5.734375 8.824219 6.183594 9.417969 6.859375 10.054688 C 7.457031 10.617188 7.65625 10.871094 8.035156 11.5625 C 8.324219 12.089844 8.316406 12.167969 8.003906 11.914062 Z M 8.007812 11.914062 "/>
</g>
</svg>
