
<svg xmlns="http://www.w3.org/2000/svg" xmlns:xlink="http://www.w3.org/1999/xlink" width="16px" height="16px" viewBox="0 0 16 16" version="1.1">
<g id="surface1">
<path style=" stroke:none;fill-rule:nonzero;fill:rgb(100%,100%,100%);fill-opacity:1;" d="M 5.789062 7.789062 L 5.789062 10.90625 C 5.789062 12.777344 6.109375 12.777344 8.996094 12.777344 L 9.636719 12.777344 C 12.527344 12.777344 12.847656 12.777344 12.847656 10.90625 L 12.847656 7.789062 C 12.847656 5.917969 12.527344 5.917969 9.636719 5.917969 L 8.996094 5.917969 C 6.109375 5.917969 5.789062 5.917969 5.789062 7.789062 Z M 8.996094 6.542969 L 9.636719 6.542969 C 12.203125 6.542969 12.203125 6.542969 12.203125 7.789062 L 12.203125 9.972656 C 12.203125 11.21875 12.203125 11.21875 9.636719 11.21875 L 8.996094 11.21875 C 6.429688 11.21875 6.429688 11.21875 6.429688 9.972656 L 6.429688 7.789062 C 6.429688 6.542969 6.429688 6.542969 8.996094 6.542969 Z M 8.996094 6.542969 "/>
<path style=" stroke:none;fill-rule:nonzero;fill:rgb(100%,100%,100%);fill-opacity:1;" d="M 7.070312 10.03125 L 7.070312 8.820312 L 8.195312 7.6875 L 9.597656 9.105469 L 10.160156 8.535156 L 11.5625 9.953125 L 11.5625 10.03125 C 11.5625 10.597656 11.472656 10.597656 10.441406 10.597656 L 8.195312 10.597656 C 7.167969 10.597656 7.074219 10.597656 7.074219 10.03125 Z M 7.070312 10.03125 "/>
<path style=" stroke:none;fill-rule:nonzero;fill:rgb(100%,100%,100%);fill-opacity:1;" d="M 11.5625 7.789062 C 11.5625 8.132812 11.277344 8.414062 10.921875 8.414062 C 10.566406 8.414062 10.28125 8.132812 10.28125 7.789062 C 10.28125 7.445312 10.566406 7.167969 10.921875 7.167969 C 11.277344 7.167969 11.5625 7.445312 11.5625 7.789062 Z M 11.5625 7.789062 "/>
<path style=" stroke:none;fill-rule:nonzero;fill:rgb(100%,100%,100%);fill-opacity:1;" d="M 7.714844 4.671875 C 4.824219 4.671875 4.503906 4.671875 4.503906 6.542969 L 4.503906 9.660156 C 4.503906 10.675781 4.601562 11.140625 5.148438 11.351562 L 5.148438 6.542969 C 5.148438 5.414062 5.167969 5.308594 7.070312 5.300781 L 7.070312 5.296875 L 11.40625 5.296875 C 11.125 4.671875 10.355469 4.671875 8.355469 4.671875 Z M 7.714844 4.671875 "/>
<path style=" stroke:none;fill-rule:nonzero;fill:rgb(100%,100%,100%);fill-opacity:1;" d="M 6.429688 3.425781 C 3.542969 3.425781 3.222656 3.425781 3.222656 5.296875 L 3.222656 8.414062 C 3.222656 9.429688 3.316406 9.894531 3.863281 10.105469 L 3.863281 5.296875 C 3.863281 4.167969 3.882812 4.0625 5.789062 4.050781 L 5.789062 4.046875 L 10.121094 4.046875 C 9.839844 3.425781 9.074219 3.425781 7.070312 3.425781 Z M 6.429688 3.425781 "/>
<path style=" stroke:none;fill-rule:nonzero;fill:rgb(60.392157%,80.392157%,19.607843%);fill-opacity:1;" d="M 13.152344 13.6875 C 25.660156 -2.890625 -8.757812 -5.246094 2.289062 11.679688 C 4.804688 15.535156 9.839844 18.082031 13.152344 13.6875 Z M 13.152344 13.6875 "/>
<path style=" stroke:none;fill-rule:nonzero;fill:rgb(100%,100%,100%);fill-opacity:1;" d="M 4.523438 11.484375 C 4.085938 11.085938 3.472656 10.21875 3.335938 9.804688 C 3.261719 9.582031 3.28125 9.511719 3.539062 9.015625 C 4.0625 8.027344 4.097656 7.199219 3.660156 6.304688 L 3.46875 5.914062 L 3.617188 5.628906 C 3.839844 5.1875 4.613281 4.199219 4.914062 3.960938 C 5.476562 3.519531 5.460938 3.515625 5.820312 4.152344 L 6.140625 4.71875 L 5.582031 5.3125 C 4.0625 6.933594 3.96875 8.628906 5.320312 10.195312 C 5.546875 10.457031 5.730469 10.699219 5.730469 10.738281 C 5.730469 10.875 5.121094 11.867188 5.03125 11.867188 C 4.984375 11.867188 4.753906 11.695312 4.523438 11.484375 Z M 4.523438 11.484375 "/>
<path style=" stroke:none;fill-rule:nonzero;fill:rgb(100%,100%,100%);fill-opacity:1;" d="M 7.691406 10.53125 C 6.777344 10.335938 6.035156 9.746094 5.636719 8.90625 C 5.429688 8.46875 5.402344 8.347656 5.402344 7.761719 C 5.402344 7.1875 5.429688 7.054688 5.617188 6.675781 C 5.90625 6.082031 6.621094 5.386719 7.164062 5.167969 C 7.5 5.035156 7.722656 5 8.277344 5 C 8.933594 5 9.003906 5.015625 9.527344 5.273438 C 10.53125 5.769531 11.050781 6.53125 11.097656 7.566406 C 11.144531 8.613281 10.867188 9.253906 10.082031 9.90625 C 9.398438 10.476562 8.511719 10.710938 7.695312 10.53125 Z M 7.328125 7.617188 C 7.675781 7.4375 8.195312 6.933594 8.351562 6.625 C 8.53125 6.273438 8.535156 5.757812 8.359375 5.542969 C 8.171875 5.308594 7.617188 5.269531 7.183594 5.457031 C 6.191406 5.886719 5.605469 7.097656 6.136719 7.628906 C 6.304688 7.796875 6.363281 7.8125 6.710938 7.777344 C 6.921875 7.753906 7.199219 7.683594 7.328125 7.617188 Z M 7.328125 7.617188 "/>
<path style=" stroke:none;fill-rule:nonzero;fill:rgb(100%,100%,100%);fill-opacity:1;" d="M 12.019531 7.351562 C 11.847656 6.496094 11.441406 5.730469 10.804688 5.066406 C 9.941406 4.164062 8.851562 3.914062 7.375 4.285156 C 7.140625 4.34375 6.941406 4.378906 6.929688 4.367188 C 6.8125 4.25 6.25 3.257812 6.277344 3.214844 C 6.296875 3.1875 6.53125 3.070312 6.800781 2.960938 C 7.195312 2.796875 7.4375 2.75 8.035156 2.726562 C 8.445312 2.707031 8.859375 2.714844 8.957031 2.738281 C 9.0625 2.765625 9.28125 2.988281 9.507812 3.289062 C 10.164062 4.175781 11.027344 4.667969 11.925781 4.671875 L 12.414062 4.671875 L 12.8125 5.464844 C 13.21875 6.269531 13.507812 7.027344 13.507812 7.277344 C 13.507812 7.460938 13.421875 7.488281 12.683594 7.546875 L 12.070312 7.597656 Z M 12.019531 7.351562 "/>
<path style=" stroke:none;fill-rule:nonzero;fill:rgb(100%,100%,100%);fill-opacity:1;" d="M 6.855469 12.636719 C 6.382812 12.539062 5.875 12.34375 5.875 12.257812 C 5.875 12.152344 6.46875 11.203125 6.558594 11.171875 C 6.605469 11.152344 6.882812 11.1875 7.175781 11.246094 C 7.898438 11.398438 8.851562 11.390625 9.453125 11.222656 C 9.972656 11.078125 10.640625 10.714844 10.925781 10.414062 C 11.226562 10.097656 11.617188 9.378906 11.773438 8.851562 C 11.855469 8.570312 11.960938 8.320312 12.007812 8.289062 C 12.050781 8.257812 12.378906 8.234375 12.730469 8.234375 L 13.375 8.234375 L 13.324219 8.613281 C 13.253906 9.1875 13.109375 9.632812 12.816406 10.1875 C 12.425781 10.929688 12.332031 10.992188 11.570312 11.066406 C 10.628906 11.152344 10.007812 11.429688 9.507812 11.984375 C 9.367188 12.140625 9.207031 12.375 9.152344 12.503906 L 9.054688 12.738281 L 8.175781 12.730469 C 7.691406 12.726562 7.097656 12.683594 6.855469 12.636719 Z M 6.855469 12.636719 "/>
</g>
</svg>
