
<svg xmlns="http://www.w3.org/2000/svg" xmlns:xlink="http://www.w3.org/1999/xlink" width="16px" height="16px" viewBox="0 0 16 16" version="1.1">
<defs>
<filter id="alpha" filterUnits="objectBoundingBox" x="0%" y="0%" width="100%" height="100%">
  <feColorMatrix type="matrix" in="SourceGraphic" values="0 0 0 0 1 0 0 0 0 1 0 0 0 0 1 0 0 0 1 0"/>
</filter>
<mask id="mask0">
  <g filter="url(#alpha)">
<rect x="0" y="0" width="16" height="16" style="fill:rgb(0%,0%,0%);fill-opacity:0.101961;stroke:none;"/>
  </g>
</mask>
<clipPath id="clip1">
  <rect width="16" height="16"/>
</clipPath>
<g id="surface6" clip-path="url(#clip1)">
<path style=" stroke:none;fill-rule:nonzero;fill:rgb(0%,0%,0%);fill-opacity:1;" d="M 5.015625 3.421875 C 3.875 3.421875 2.949219 4.203125 2.949219 5.167969 C 2.949219 6.132812 3.875 6.914062 5.015625 6.914062 C 6.15625 6.914062 7.082031 6.132812 7.082031 5.167969 C 7.082031 4.203125 6.15625 3.421875 5.015625 3.421875 Z M 5.011719 3.757812 C 5.894531 3.757812 6.613281 4.382812 6.613281 5.152344 C 6.613281 5.917969 5.894531 6.542969 5.011719 6.542969 C 4.125 6.542969 3.410156 5.917969 3.410156 5.152344 C 3.410156 4.382812 4.125 3.757812 5.011719 3.757812 Z M 5.011719 3.757812 "/>
<path style=" stroke:none;fill-rule:nonzero;fill:rgb(0%,0%,0%);fill-opacity:1;" d="M 5.578125 5.113281 C 5.578125 5.417969 5.3125 5.664062 4.984375 5.664062 C 4.65625 5.664062 4.390625 5.417969 4.390625 5.113281 C 4.390625 4.808594 4.65625 4.5625 4.984375 4.5625 C 5.3125 4.5625 5.578125 4.808594 5.578125 5.113281 Z M 5.578125 5.113281 "/>
<path style=" stroke:none;fill-rule:nonzero;fill:rgb(0%,0%,0%);fill-opacity:1;" d="M 4.804688 3.648438 L 5.226562 3.648438 C 5.25 3.648438 5.269531 3.667969 5.269531 3.6875 L 5.269531 5.109375 C 5.269531 5.128906 5.25 5.144531 5.226562 5.144531 L 4.804688 5.144531 C 4.78125 5.144531 4.761719 5.128906 4.761719 5.109375 L 4.761719 3.6875 C 4.761719 3.667969 4.78125 3.648438 4.804688 3.648438 Z M 4.804688 3.648438 "/>
<path style=" stroke:none;fill-rule:nonzero;fill:rgb(0%,0%,0%);fill-opacity:1;" d="M 4.832031 4.972656 L 5.066406 5.292969 C 5.078125 5.3125 5.070312 5.335938 5.054688 5.347656 L 3.75 6.128906 C 3.730469 6.140625 3.707031 6.136719 3.695312 6.117188 L 3.460938 5.796875 C 3.449219 5.777344 3.453125 5.753906 3.472656 5.746094 L 4.773438 4.960938 C 4.792969 4.949219 4.820312 4.953125 4.832031 4.972656 Z M 4.832031 4.972656 "/>
<path style=" stroke:none;fill-rule:nonzero;fill:rgb(0%,0%,0%);fill-opacity:1;" d="M 5.445312 5.164062 L 5.214844 5.484375 C 5.199219 5.503906 5.207031 5.527344 5.226562 5.539062 L 6.527344 6.320312 C 6.546875 6.332031 6.570312 6.328125 6.582031 6.308594 L 6.816406 5.988281 C 6.828125 5.96875 6.824219 5.945312 6.804688 5.933594 L 5.503906 5.152344 C 5.484375 5.140625 5.460938 5.144531 5.445312 5.164062 Z M 5.445312 5.164062 "/>
</g>
<mask id="mask1">
  <g filter="url(#alpha)">
<rect x="0" y="0" width="16" height="16" style="fill:rgb(0%,0%,0%);fill-opacity:0.2;stroke:none;"/>
  </g>
</mask>
<clipPath id="clip2">
  <rect width="16" height="16"/>
</clipPath>
<g id="surface9" clip-path="url(#clip2)">
<path style=" stroke:none;fill-rule:nonzero;fill:rgb(0%,0%,0%);fill-opacity:1;" d="M 5.019531 3.4375 C 3.917969 3.4375 3.019531 4.203125 3.019531 5.152344 C 3.019531 6.097656 3.917969 6.863281 5.019531 6.863281 C 6.125 6.863281 7.019531 6.097656 7.019531 5.152344 C 7.019531 4.203125 6.125 3.4375 5.019531 3.4375 Z M 5.015625 3.769531 C 5.871094 3.769531 6.566406 4.382812 6.566406 5.136719 C 6.566406 5.890625 5.871094 6.5 5.015625 6.5 C 4.15625 6.5 3.464844 5.890625 3.464844 5.136719 C 3.464844 4.382812 4.15625 3.769531 5.015625 3.769531 Z M 5.015625 3.769531 "/>
<path style=" stroke:none;fill-rule:nonzero;fill:rgb(0%,0%,0%);fill-opacity:1;" d="M 5.5625 5.097656 C 5.5625 5.394531 5.308594 5.636719 4.988281 5.636719 C 4.671875 5.636719 4.417969 5.394531 4.417969 5.097656 C 4.417969 4.796875 4.671875 4.554688 4.988281 4.554688 C 5.308594 4.554688 5.5625 4.796875 5.5625 5.097656 Z M 5.5625 5.097656 "/>
<path style=" stroke:none;fill-rule:nonzero;fill:rgb(0%,0%,0%);fill-opacity:1;" d="M 4.816406 3.660156 L 5.226562 3.660156 C 5.246094 3.660156 5.265625 3.679688 5.265625 3.699219 L 5.265625 5.09375 C 5.265625 5.113281 5.246094 5.128906 5.226562 5.128906 L 4.816406 5.128906 C 4.792969 5.128906 4.773438 5.113281 4.773438 5.09375 L 4.773438 3.699219 C 4.773438 3.679688 4.792969 3.660156 4.816406 3.660156 Z M 4.816406 3.660156 "/>
<path style=" stroke:none;fill-rule:nonzero;fill:rgb(0%,0%,0%);fill-opacity:1;" d="M 4.839844 4.960938 L 5.066406 5.277344 C 5.078125 5.292969 5.074219 5.316406 5.054688 5.328125 L 3.796875 6.09375 C 3.777344 6.105469 3.753906 6.101562 3.738281 6.085938 L 3.515625 5.769531 C 3.5 5.75 3.507812 5.726562 3.523438 5.71875 L 4.785156 4.949219 C 4.804688 4.9375 4.828125 4.941406 4.839844 4.960938 Z M 4.839844 4.960938 "/>
<path style=" stroke:none;fill-rule:nonzero;fill:rgb(0%,0%,0%);fill-opacity:1;" d="M 5.4375 5.148438 L 5.210938 5.464844 C 5.199219 5.480469 5.203125 5.503906 5.222656 5.515625 L 6.484375 6.28125 C 6.503906 6.292969 6.527344 6.289062 6.539062 6.273438 L 6.765625 5.957031 C 6.777344 5.9375 6.773438 5.914062 6.753906 5.90625 L 5.492188 5.136719 C 5.476562 5.125 5.449219 5.128906 5.4375 5.148438 Z M 5.4375 5.148438 "/>
</g>
<mask id="mask2">
  <g filter="url(#alpha)">
<rect x="0" y="0" width="16" height="16" style="fill:rgb(0%,0%,0%);fill-opacity:0.301961;stroke:none;"/>
  </g>
</mask>
<clipPath id="clip3">
  <rect width="16" height="16"/>
</clipPath>
<g id="surface12" clip-path="url(#clip3)">
<path style=" stroke:none;fill-rule:nonzero;fill:rgb(0%,0%,0%);fill-opacity:1;" d="M 5.023438 3.46875 C 3.957031 3.46875 3.089844 4.21875 3.089844 5.144531 C 3.089844 6.066406 3.957031 6.816406 5.023438 6.816406 C 6.089844 6.816406 6.953125 6.066406 6.953125 5.144531 C 6.953125 4.21875 6.089844 3.46875 5.023438 3.46875 Z M 5.015625 3.792969 C 5.84375 3.792969 6.515625 4.390625 6.515625 5.128906 C 6.515625 5.863281 5.84375 6.460938 5.015625 6.460938 C 4.1875 6.460938 3.519531 5.863281 3.519531 5.128906 C 3.519531 4.390625 4.1875 3.792969 5.015625 3.792969 Z M 5.015625 3.792969 "/>
<path style=" stroke:none;fill-rule:nonzero;fill:rgb(0%,0%,0%);fill-opacity:1;" d="M 5.546875 5.089844 C 5.546875 5.382812 5.296875 5.617188 4.992188 5.617188 C 4.6875 5.617188 4.4375 5.382812 4.4375 5.089844 C 4.4375 4.796875 4.6875 4.5625 4.992188 4.5625 C 5.296875 4.5625 5.546875 4.796875 5.546875 5.089844 Z M 5.546875 5.089844 "/>
<path style=" stroke:none;fill-rule:nonzero;fill:rgb(0%,0%,0%);fill-opacity:1;" d="M 4.820312 3.6875 L 5.21875 3.6875 C 5.238281 3.6875 5.257812 3.703125 5.257812 3.722656 L 5.257812 5.085938 C 5.257812 5.105469 5.238281 5.121094 5.21875 5.121094 L 4.820312 5.121094 C 4.800781 5.121094 4.785156 5.105469 4.785156 5.085938 L 4.785156 3.722656 C 4.785156 3.703125 4.800781 3.6875 4.820312 3.6875 Z M 4.820312 3.6875 "/>
<path style=" stroke:none;fill-rule:nonzero;fill:rgb(0%,0%,0%);fill-opacity:1;" d="M 4.847656 4.957031 L 5.066406 5.265625 C 5.078125 5.28125 5.074219 5.304688 5.054688 5.316406 L 3.835938 6.066406 C 3.820312 6.074219 3.796875 6.070312 3.785156 6.054688 L 3.566406 5.746094 C 3.554688 5.730469 3.558594 5.707031 3.578125 5.695312 L 4.792969 4.945312 C 4.8125 4.933594 4.835938 4.9375 4.847656 4.957031 Z M 4.847656 4.957031 "/>
<path style=" stroke:none;fill-rule:nonzero;fill:rgb(0%,0%,0%);fill-opacity:1;" d="M 5.425781 5.140625 L 5.207031 5.449219 C 5.195312 5.464844 5.199219 5.488281 5.214844 5.496094 L 6.433594 6.246094 C 6.453125 6.257812 6.476562 6.253906 6.488281 6.238281 L 6.707031 5.929688 C 6.71875 5.910156 6.710938 5.890625 6.695312 5.878906 L 5.476562 5.128906 C 5.460938 5.117188 5.4375 5.121094 5.425781 5.140625 Z M 5.425781 5.140625 "/>
</g>
<mask id="mask3">
  <g filter="url(#alpha)">
<rect x="0" y="0" width="16" height="16" style="fill:rgb(0%,0%,0%);fill-opacity:0.45098;stroke:none;"/>
  </g>
</mask>
<clipPath id="clip4">
  <rect width="16" height="16"/>
</clipPath>
<g id="surface15" clip-path="url(#clip4)">
<path style=" stroke:none;fill-rule:nonzero;fill:rgb(0%,0%,0%);fill-opacity:1;" d="M 5.027344 3.519531 C 3.996094 3.519531 3.15625 4.242188 3.15625 5.140625 C 3.15625 6.035156 3.996094 6.757812 5.027344 6.757812 C 6.058594 6.757812 6.890625 6.035156 6.890625 5.140625 C 6.890625 4.242188 6.058594 3.519531 5.027344 3.519531 Z M 5.019531 3.832031 C 5.820312 3.832031 6.46875 4.410156 6.46875 5.125 C 6.46875 5.835938 5.820312 6.414062 5.019531 6.414062 C 4.21875 6.414062 3.574219 5.835938 3.574219 5.125 C 3.574219 4.410156 4.21875 3.832031 5.019531 3.832031 Z M 5.019531 3.832031 "/>
<path style=" stroke:none;fill-rule:nonzero;fill:rgb(0%,0%,0%);fill-opacity:1;" d="M 5.53125 5.085938 C 5.53125 5.371094 5.292969 5.597656 4.996094 5.597656 C 4.699219 5.597656 4.460938 5.371094 4.460938 5.085938 C 4.460938 4.804688 4.699219 4.574219 4.996094 4.574219 C 5.292969 4.574219 5.53125 4.804688 5.53125 5.085938 Z M 5.53125 5.085938 "/>
<path style=" stroke:none;fill-rule:nonzero;fill:rgb(0%,0%,0%);fill-opacity:1;" d="M 4.832031 3.730469 L 5.214844 3.730469 C 5.238281 3.730469 5.253906 3.746094 5.253906 3.765625 L 5.253906 5.085938 C 5.253906 5.101562 5.238281 5.117188 5.214844 5.117188 L 4.832031 5.117188 C 4.8125 5.117188 4.796875 5.101562 4.796875 5.085938 L 4.796875 3.765625 C 4.796875 3.746094 4.8125 3.730469 4.832031 3.730469 Z M 4.832031 3.730469 "/>
<path style=" stroke:none;fill-rule:nonzero;fill:rgb(0%,0%,0%);fill-opacity:1;" d="M 4.859375 4.957031 L 5.070312 5.257812 C 5.082031 5.273438 5.074219 5.292969 5.058594 5.304688 L 3.882812 6.03125 C 3.863281 6.042969 3.839844 6.039062 3.832031 6.023438 L 3.621094 5.722656 C 3.609375 5.707031 3.613281 5.683594 3.628906 5.675781 L 4.804688 4.949219 C 4.824219 4.9375 4.847656 4.941406 4.859375 4.957031 Z M 4.859375 4.957031 "/>
<path style=" stroke:none;fill-rule:nonzero;fill:rgb(0%,0%,0%);fill-opacity:1;" d="M 5.414062 5.136719 L 5.203125 5.433594 C 5.191406 5.449219 5.195312 5.472656 5.214844 5.484375 L 6.390625 6.210938 C 6.410156 6.21875 6.429688 6.214844 6.441406 6.199219 L 6.652344 5.898438 C 6.664062 5.882812 6.660156 5.863281 6.644531 5.851562 L 5.464844 5.125 C 5.449219 5.113281 5.425781 5.117188 5.414062 5.136719 Z M 5.414062 5.136719 "/>
</g>
<linearGradient id="linear0" gradientUnits="userSpaceOnUse" x1="38.472" y1="46.695" x2="38.16" y2="58.89" gradientTransform="matrix(0.131145,0,0,0.116627,1.90771,2.495898)">
<stop offset="0" style="stop-color:rgb(100%,100%,100%);stop-opacity:0.529412;"/>
<stop offset="1" style="stop-color:rgb(100%,100%,100%);stop-opacity:0;"/>
</linearGradient>
<mask id="mask4">
  <g filter="url(#alpha)">
<rect x="0" y="0" width="16" height="16" style="fill:rgb(0%,0%,0%);fill-opacity:0.101961;stroke:none;"/>
  </g>
</mask>
<clipPath id="clip5">
  <rect width="16" height="16"/>
</clipPath>
<g id="surface18" clip-path="url(#clip5)">
<path style=" stroke:none;fill-rule:nonzero;fill:rgb(0%,0%,0%);fill-opacity:1;" d="M 7.105469 6.652344 C 5.03125 6.652344 3.34375 8.015625 3.34375 9.699219 C 3.34375 11.382812 5.03125 12.75 7.105469 12.75 C 9.183594 12.75 10.863281 11.382812 10.863281 9.699219 C 10.863281 8.015625 9.183594 6.652344 7.105469 6.652344 Z M 7.09375 7.242188 C 8.707031 7.242188 10.011719 8.332031 10.011719 9.671875 C 10.011719 11.015625 8.707031 12.101562 7.09375 12.101562 C 5.484375 12.101562 4.179688 11.015625 4.179688 9.671875 C 4.179688 8.332031 5.484375 7.242188 7.09375 7.242188 Z M 7.09375 7.242188 "/>
<path style=" stroke:none;fill-rule:nonzero;fill:rgb(0%,0%,0%);fill-opacity:1;" d="M 8.125 9.605469 C 8.125 10.136719 7.644531 10.566406 7.046875 10.566406 C 6.453125 10.566406 5.96875 10.136719 5.96875 9.605469 C 5.96875 9.074219 6.453125 8.640625 7.046875 8.640625 C 7.644531 8.640625 8.125 9.074219 8.125 9.605469 Z M 8.125 9.605469 "/>
<path style=" stroke:none;fill-rule:nonzero;fill:rgb(0%,0%,0%);fill-opacity:1;" d="M 6.71875 7.050781 L 7.488281 7.050781 C 7.53125 7.050781 7.566406 7.082031 7.566406 7.117188 L 7.566406 9.597656 C 7.566406 9.632812 7.53125 9.664062 7.488281 9.664062 L 6.71875 9.664062 C 6.675781 9.664062 6.644531 9.632812 6.644531 9.597656 L 6.644531 7.117188 C 6.644531 7.082031 6.675781 7.050781 6.71875 7.050781 Z M 6.71875 7.050781 "/>
<path style=" stroke:none;fill-rule:nonzero;fill:rgb(0%,0%,0%);fill-opacity:1;" d="M 6.769531 9.359375 L 7.191406 9.921875 C 7.214844 9.953125 7.207031 9.992188 7.171875 10.015625 L 4.800781 11.378906 C 4.769531 11.402344 4.722656 11.390625 4.699219 11.363281 L 4.273438 10.800781 C 4.25 10.769531 4.261719 10.726562 4.292969 10.707031 L 6.664062 9.339844 C 6.699219 9.320312 6.746094 9.328125 6.769531 9.359375 Z M 6.769531 9.359375 "/>
<path style=" stroke:none;fill-rule:nonzero;fill:rgb(0%,0%,0%);fill-opacity:1;" d="M 7.890625 9.695312 L 7.464844 10.257812 C 7.441406 10.289062 7.453125 10.328125 7.484375 10.347656 L 9.855469 11.714844 C 9.890625 11.734375 9.9375 11.726562 9.960938 11.695312 L 10.382812 11.132812 C 10.40625 11.101562 10.398438 11.0625 10.363281 11.042969 L 7.992188 9.675781 C 7.957031 9.65625 7.914062 9.664062 7.890625 9.695312 Z M 7.890625 9.695312 "/>
</g>
<mask id="mask5">
  <g filter="url(#alpha)">
<rect x="0" y="0" width="16" height="16" style="fill:rgb(0%,0%,0%);fill-opacity:0.2;stroke:none;"/>
  </g>
</mask>
<clipPath id="clip6">
  <rect width="16" height="16"/>
</clipPath>
<g id="surface21" clip-path="url(#clip6)">
<path style=" stroke:none;fill-rule:nonzero;fill:rgb(0%,0%,0%);fill-opacity:1;" d="M 7.113281 6.679688 C 5.101562 6.679688 3.46875 8.019531 3.46875 9.671875 C 3.46875 11.324219 5.101562 12.664062 7.113281 12.664062 C 9.125 12.664062 10.753906 11.324219 10.753906 9.671875 C 10.753906 8.019531 9.125 6.679688 7.113281 6.679688 Z M 7.101562 7.257812 C 8.664062 7.257812 9.929688 8.328125 9.929688 9.644531 C 9.929688 10.960938 8.664062 12.027344 7.101562 12.027344 C 5.542969 12.027344 4.277344 10.960938 4.277344 9.644531 C 4.277344 8.328125 5.542969 7.257812 7.101562 7.257812 Z M 7.101562 7.257812 "/>
<path style=" stroke:none;fill-rule:nonzero;fill:rgb(0%,0%,0%);fill-opacity:1;" d="M 8.101562 9.578125 C 8.101562 10.101562 7.632812 10.523438 7.058594 10.523438 C 6.480469 10.523438 6.011719 10.101562 6.011719 9.578125 C 6.011719 9.058594 6.480469 8.632812 7.058594 8.632812 C 7.632812 8.632812 8.101562 9.058594 8.101562 9.578125 Z M 8.101562 9.578125 "/>
<path style=" stroke:none;fill-rule:nonzero;fill:rgb(0%,0%,0%);fill-opacity:1;" d="M 6.738281 7.070312 L 7.484375 7.070312 C 7.527344 7.070312 7.558594 7.101562 7.558594 7.136719 L 7.558594 9.570312 C 7.558594 9.609375 7.527344 9.636719 7.484375 9.636719 L 6.738281 9.636719 C 6.699219 9.636719 6.664062 9.609375 6.664062 9.570312 L 6.664062 7.136719 C 6.664062 7.101562 6.699219 7.070312 6.738281 7.070312 Z M 6.738281 7.070312 "/>
<path style=" stroke:none;fill-rule:nonzero;fill:rgb(0%,0%,0%);fill-opacity:1;" d="M 6.785156 9.339844 L 7.199219 9.890625 C 7.21875 9.921875 7.210938 9.960938 7.179688 9.980469 L 4.882812 11.320312 C 4.847656 11.339844 4.804688 11.332031 4.78125 11.304688 L 4.371094 10.75 C 4.347656 10.722656 4.355469 10.679688 4.390625 10.660156 L 6.6875 9.320312 C 6.71875 9.300781 6.765625 9.308594 6.785156 9.339844 Z M 6.785156 9.339844 "/>
<path style=" stroke:none;fill-rule:nonzero;fill:rgb(0%,0%,0%);fill-opacity:1;" d="M 7.871094 9.667969 L 7.460938 10.21875 C 7.4375 10.25 7.449219 10.289062 7.480469 10.308594 L 9.777344 11.648438 C 9.8125 11.667969 9.855469 11.660156 9.878906 11.632812 L 10.289062 11.078125 C 10.3125 11.046875 10.300781 11.007812 10.269531 10.988281 L 7.972656 9.648438 C 7.941406 9.628906 7.894531 9.636719 7.871094 9.667969 Z M 7.871094 9.667969 "/>
</g>
<mask id="mask6">
  <g filter="url(#alpha)">
<rect x="0" y="0" width="16" height="16" style="fill:rgb(0%,0%,0%);fill-opacity:0.301961;stroke:none;"/>
  </g>
</mask>
<clipPath id="clip7">
  <rect width="16" height="16"/>
</clipPath>
<g id="surface24" clip-path="url(#clip7)">
<path style=" stroke:none;fill-rule:nonzero;fill:rgb(0%,0%,0%);fill-opacity:1;" d="M 7.117188 6.738281 C 5.171875 6.738281 3.597656 8.046875 3.597656 9.660156 C 3.597656 11.273438 5.171875 12.582031 7.117188 12.582031 C 9.058594 12.582031 10.628906 11.273438 10.628906 9.660156 C 10.628906 8.046875 9.058594 6.738281 7.117188 6.738281 Z M 7.105469 7.300781 C 8.609375 7.300781 9.832031 8.347656 9.832031 9.632812 C 9.832031 10.917969 8.609375 11.957031 7.105469 11.957031 C 5.597656 11.957031 4.375 10.917969 4.375 9.632812 C 4.375 8.347656 5.597656 7.300781 7.105469 7.300781 Z M 7.105469 7.300781 "/>
<path style=" stroke:none;fill-rule:nonzero;fill:rgb(0%,0%,0%);fill-opacity:1;" d="M 8.070312 9.566406 C 8.070312 10.078125 7.617188 10.488281 7.058594 10.488281 C 6.503906 10.488281 6.050781 10.078125 6.050781 9.566406 C 6.050781 9.058594 6.503906 8.644531 7.058594 8.644531 C 7.617188 8.644531 8.070312 9.058594 8.070312 9.566406 Z M 8.070312 9.566406 "/>
<path style=" stroke:none;fill-rule:nonzero;fill:rgb(0%,0%,0%);fill-opacity:1;" d="M 6.75 7.117188 L 7.472656 7.117188 C 7.511719 7.117188 7.542969 7.148438 7.542969 7.183594 L 7.542969 9.558594 C 7.542969 9.59375 7.511719 9.621094 7.472656 9.621094 L 6.75 9.621094 C 6.710938 9.621094 6.679688 9.59375 6.679688 9.558594 L 6.679688 7.183594 C 6.679688 7.148438 6.710938 7.117188 6.75 7.117188 Z M 6.75 7.117188 "/>
<path style=" stroke:none;fill-rule:nonzero;fill:rgb(0%,0%,0%);fill-opacity:1;" d="M 6.796875 9.332031 L 7.195312 9.871094 C 7.21875 9.902344 7.207031 9.941406 7.175781 9.957031 L 4.960938 11.269531 C 4.925781 11.289062 4.882812 11.28125 4.863281 11.25 L 4.464844 10.710938 C 4.445312 10.683594 4.453125 10.644531 4.484375 10.625 L 6.703125 9.3125 C 6.734375 9.296875 6.777344 9.304688 6.796875 9.332031 Z M 6.796875 9.332031 "/>
<path style=" stroke:none;fill-rule:nonzero;fill:rgb(0%,0%,0%);fill-opacity:1;" d="M 7.847656 9.652344 L 7.449219 10.191406 C 7.429688 10.222656 7.4375 10.257812 7.46875 10.277344 L 9.6875 11.589844 C 9.71875 11.609375 9.761719 11.597656 9.785156 11.570312 L 10.179688 11.03125 C 10.203125 11.003906 10.191406 10.964844 10.160156 10.945312 L 7.945312 9.632812 C 7.910156 9.617188 7.867188 9.625 7.847656 9.652344 Z M 7.847656 9.652344 "/>
</g>
<linearGradient id="linear1" gradientUnits="userSpaceOnUse" x1="80.38" y1="47.17" x2="81.38" y2="73.843" gradientTransform="matrix(0.12568,0,0,0.112314,2.115574,2.42324)">
<stop offset="0" style="stop-color:rgb(89.019608%,83.137255%,62.745098%);stop-opacity:1;"/>
<stop offset="1" style="stop-color:rgb(89.019608%,83.137255%,62.745098%);stop-opacity:0;"/>
</linearGradient>
<linearGradient id="linear2" gradientUnits="userSpaceOnUse" x1="28.02" y1="41.563" x2="28.688" y2="18.52" gradientTransform="matrix(0.13761,0,0,0.127753,1.203985,1.279363)">
<stop offset="0" style="stop-color:rgb(30.588235%,30.588235%,30.588235%);stop-opacity:1;"/>
<stop offset="1" style="stop-color:rgb(70.588235%,70.588235%,70.588235%);stop-opacity:1;"/>
</linearGradient>
<linearGradient id="linear3" gradientUnits="userSpaceOnUse" x1="28.867" y1="40.39" x2="28.326" y2="20.11" gradientTransform="matrix(0.110761,0,0,0.101841,1.9822,2.038371)">
<stop offset="0" style="stop-color:rgb(81.960784%,81.960784%,81.960784%);stop-opacity:1;"/>
<stop offset="1" style="stop-color:rgb(92.156863%,92.156863%,92.156863%);stop-opacity:1;"/>
</linearGradient>
<mask id="mask7">
  <g filter="url(#alpha)">
<rect x="0" y="0" width="16" height="16" style="fill:rgb(0%,0%,0%);fill-opacity:0.45098;stroke:none;"/>
  </g>
</mask>
<clipPath id="clip8">
  <rect width="16" height="16"/>
</clipPath>
<g id="surface27" clip-path="url(#clip8)">
<path style=" stroke:none;fill-rule:nonzero;fill:rgb(0%,0%,0%);fill-opacity:1;" d="M 7.121094 6.820312 C 5.246094 6.820312 3.722656 8.089844 3.722656 9.652344 C 3.722656 11.214844 5.246094 12.480469 7.121094 12.480469 C 9 12.480469 10.519531 11.214844 10.519531 9.652344 C 10.519531 8.089844 9 6.820312 7.121094 6.820312 Z M 7.113281 7.371094 C 8.566406 7.371094 9.75 8.378906 9.75 9.625 C 9.75 10.871094 8.570312 11.878906 7.113281 11.878906 C 5.65625 11.878906 4.476562 10.871094 4.476562 9.625 C 4.476562 8.378906 5.65625 7.371094 7.113281 7.371094 Z M 7.113281 7.371094 "/>
<path style=" stroke:none;fill-rule:nonzero;fill:rgb(0%,0%,0%);fill-opacity:1;" d="M 8.042969 9.5625 C 8.042969 10.054688 7.609375 10.457031 7.070312 10.457031 C 6.53125 10.457031 6.09375 10.054688 6.09375 9.5625 C 6.09375 9.070312 6.53125 8.667969 7.070312 8.667969 C 7.609375 8.667969 8.042969 9.070312 8.042969 9.5625 Z M 8.042969 9.5625 "/>
<path style=" stroke:none;fill-rule:nonzero;fill:rgb(0%,0%,0%);fill-opacity:1;" d="M 6.769531 7.191406 L 7.46875 7.191406 C 7.507812 7.191406 7.535156 7.21875 7.535156 7.253906 L 7.535156 9.554688 C 7.535156 9.589844 7.507812 9.617188 7.46875 9.617188 L 6.769531 9.617188 C 6.734375 9.617188 6.703125 9.589844 6.703125 9.554688 L 6.703125 7.253906 C 6.703125 7.21875 6.734375 7.191406 6.769531 7.191406 Z M 6.769531 7.191406 "/>
<path style=" stroke:none;fill-rule:nonzero;fill:rgb(0%,0%,0%);fill-opacity:1;" d="M 6.816406 9.335938 L 7.199219 9.859375 C 7.222656 9.886719 7.210938 9.921875 7.179688 9.941406 L 5.039062 11.210938 C 5.007812 11.230469 4.964844 11.222656 4.945312 11.195312 L 4.5625 10.671875 C 4.539062 10.644531 4.550781 10.605469 4.578125 10.585938 L 6.722656 9.316406 C 6.753906 9.300781 6.796875 9.308594 6.816406 9.335938 Z M 6.816406 9.335938 "/>
<path style=" stroke:none;fill-rule:nonzero;fill:rgb(0%,0%,0%);fill-opacity:1;" d="M 7.832031 9.644531 L 7.445312 10.167969 C 7.425781 10.195312 7.433594 10.234375 7.464844 10.253906 L 9.609375 11.519531 C 9.640625 11.539062 9.679688 11.53125 9.703125 11.503906 L 10.085938 10.980469 C 10.105469 10.953125 10.097656 10.914062 10.066406 10.898438 L 7.925781 9.628906 C 7.894531 9.609375 7.851562 9.617188 7.832031 9.644531 Z M 7.832031 9.644531 "/>
</g>
<linearGradient id="linear4" gradientUnits="userSpaceOnUse" x1="47.49" y1="37.907" x2="47.69" y2="33.06" gradientTransform="matrix(0.118264,0,0,0.103439,1.478734,3.393809)">
<stop offset="0" style="stop-color:rgb(16.470588%,16.470588%,16.470588%);stop-opacity:1;"/>
<stop offset="1" style="stop-color:rgb(24.705882%,24.705882%,24.705882%);stop-opacity:1;"/>
</linearGradient>
<mask id="mask8">
  <g filter="url(#alpha)">
<rect x="0" y="0" width="16" height="16" style="fill:rgb(0%,0%,0%);fill-opacity:0.101961;stroke:none;"/>
  </g>
</mask>
<clipPath id="clip9">
  <rect width="16" height="16"/>
</clipPath>
<g id="surface30" clip-path="url(#clip9)">
<path style=" stroke:none;fill-rule:nonzero;fill:rgb(0%,0%,0%);fill-opacity:1;" d="M 9.390625 3.4375 C 8.25 3.4375 7.324219 4.222656 7.324219 5.183594 C 7.324219 6.148438 8.25 6.933594 9.390625 6.933594 C 10.53125 6.933594 11.453125 6.148438 11.453125 5.183594 C 11.453125 4.222656 10.53125 3.4375 9.390625 3.4375 Z M 9.382812 3.777344 C 10.269531 3.777344 10.984375 4.402344 10.984375 5.167969 C 10.984375 5.9375 10.269531 6.558594 9.382812 6.558594 C 8.5 6.558594 7.78125 5.9375 7.78125 5.167969 C 7.78125 4.402344 8.5 3.777344 9.382812 3.777344 Z M 9.382812 3.777344 "/>
<path style=" stroke:none;fill-rule:nonzero;fill:rgb(0%,0%,0%);fill-opacity:1;" d="M 9.949219 5.128906 C 9.949219 5.433594 9.683594 5.683594 9.355469 5.683594 C 9.03125 5.683594 8.765625 5.433594 8.765625 5.128906 C 8.765625 4.828125 9.03125 4.578125 9.355469 4.578125 C 9.683594 4.578125 9.949219 4.828125 9.949219 5.128906 Z M 9.949219 5.128906 "/>
<path style=" stroke:none;fill-rule:nonzero;fill:rgb(0%,0%,0%);fill-opacity:1;" d="M 9.175781 3.667969 L 9.601562 3.667969 C 9.621094 3.667969 9.640625 3.683594 9.640625 3.707031 L 9.640625 5.125 C 9.640625 5.148438 9.621094 5.164062 9.601562 5.164062 L 9.175781 5.164062 C 9.152344 5.164062 9.136719 5.148438 9.136719 5.125 L 9.136719 3.707031 C 9.136719 3.683594 9.152344 3.667969 9.175781 3.667969 Z M 9.175781 3.667969 "/>
<path style=" stroke:none;fill-rule:nonzero;fill:rgb(0%,0%,0%);fill-opacity:1;" d="M 9.203125 4.992188 L 9.4375 5.3125 C 9.449219 5.332031 9.445312 5.351562 9.425781 5.363281 L 8.125 6.148438 C 8.105469 6.160156 8.078125 6.152344 8.066406 6.136719 L 7.832031 5.8125 C 7.820312 5.796875 7.824219 5.773438 7.84375 5.761719 L 9.148438 4.980469 C 9.164062 4.96875 9.191406 4.972656 9.203125 4.992188 Z M 9.203125 4.992188 "/>
<path style=" stroke:none;fill-rule:nonzero;fill:rgb(0%,0%,0%);fill-opacity:1;" d="M 9.820312 5.183594 L 9.585938 5.503906 C 9.574219 5.519531 9.578125 5.542969 9.597656 5.554688 L 10.898438 6.339844 C 10.917969 6.351562 10.945312 6.34375 10.957031 6.328125 L 11.191406 6.003906 C 11.203125 5.988281 11.195312 5.964844 11.179688 5.953125 L 9.875 5.171875 C 9.855469 5.160156 9.832031 5.164062 9.820312 5.183594 Z M 9.820312 5.183594 "/>
</g>
<mask id="mask9">
  <g filter="url(#alpha)">
<rect x="0" y="0" width="16" height="16" style="fill:rgb(0%,0%,0%);fill-opacity:0.2;stroke:none;"/>
  </g>
</mask>
<clipPath id="clip10">
  <rect width="16" height="16"/>
</clipPath>
<g id="surface33" clip-path="url(#clip10)">
<path style=" stroke:none;fill-rule:nonzero;fill:rgb(0%,0%,0%);fill-opacity:1;" d="M 9.394531 3.457031 C 8.289062 3.457031 7.390625 4.222656 7.390625 5.167969 C 7.390625 6.117188 8.289062 6.882812 9.394531 6.882812 C 10.5 6.882812 11.394531 6.117188 11.394531 5.167969 C 11.394531 4.222656 10.5 3.457031 9.394531 3.457031 Z M 9.386719 3.785156 C 10.246094 3.785156 10.9375 4.398438 10.9375 5.152344 C 10.9375 5.90625 10.246094 6.519531 9.386719 6.519531 C 8.53125 6.519531 7.835938 5.90625 7.835938 5.152344 C 7.835938 4.398438 8.53125 3.785156 9.386719 3.785156 Z M 9.386719 3.785156 "/>
<path style=" stroke:none;fill-rule:nonzero;fill:rgb(0%,0%,0%);fill-opacity:1;" d="M 9.9375 5.113281 C 9.9375 5.414062 9.679688 5.65625 9.363281 5.65625 C 9.046875 5.65625 8.789062 5.414062 8.789062 5.113281 C 8.789062 4.816406 9.046875 4.574219 9.363281 4.574219 C 9.679688 4.574219 9.9375 4.816406 9.9375 5.113281 Z M 9.9375 5.113281 "/>
<path style=" stroke:none;fill-rule:nonzero;fill:rgb(0%,0%,0%);fill-opacity:1;" d="M 9.1875 3.679688 L 9.597656 3.679688 C 9.621094 3.679688 9.636719 3.695312 9.636719 3.714844 L 9.636719 5.109375 C 9.636719 5.132812 9.621094 5.148438 9.597656 5.148438 L 9.1875 5.148438 C 9.164062 5.148438 9.148438 5.132812 9.148438 5.109375 L 9.148438 3.714844 C 9.148438 3.695312 9.164062 3.679688 9.1875 3.679688 Z M 9.1875 3.679688 "/>
<path style=" stroke:none;fill-rule:nonzero;fill:rgb(0%,0%,0%);fill-opacity:1;" d="M 9.214844 4.976562 L 9.441406 5.292969 C 9.453125 5.3125 9.445312 5.332031 9.429688 5.34375 L 8.167969 6.113281 C 8.148438 6.125 8.125 6.121094 8.113281 6.101562 L 7.886719 5.785156 C 7.875 5.769531 7.878906 5.746094 7.898438 5.734375 L 9.160156 4.96875 C 9.175781 4.957031 9.203125 4.960938 9.214844 4.976562 Z M 9.214844 4.976562 "/>
<path style=" stroke:none;fill-rule:nonzero;fill:rgb(0%,0%,0%);fill-opacity:1;" d="M 9.808594 5.164062 L 9.585938 5.480469 C 9.570312 5.5 9.578125 5.523438 9.59375 5.53125 L 10.855469 6.300781 C 10.875 6.3125 10.898438 6.308594 10.910156 6.289062 L 11.136719 5.972656 C 11.148438 5.957031 11.144531 5.933594 11.125 5.921875 L 9.867188 5.15625 C 9.847656 5.144531 9.824219 5.148438 9.808594 5.164062 Z M 9.808594 5.164062 "/>
</g>
<mask id="mask10">
  <g filter="url(#alpha)">
<rect x="0" y="0" width="16" height="16" style="fill:rgb(0%,0%,0%);fill-opacity:0.301961;stroke:none;"/>
  </g>
</mask>
<clipPath id="clip11">
  <rect width="16" height="16"/>
</clipPath>
<g id="surface36" clip-path="url(#clip11)">
<path style=" stroke:none;fill-rule:nonzero;fill:rgb(0%,0%,0%);fill-opacity:1;" d="M 9.394531 3.488281 C 8.328125 3.488281 7.460938 4.238281 7.460938 5.160156 C 7.460938 6.085938 8.328125 6.835938 9.394531 6.835938 C 10.460938 6.835938 11.324219 6.085938 11.324219 5.160156 C 11.324219 4.238281 10.460938 3.488281 9.394531 3.488281 Z M 9.386719 3.8125 C 10.214844 3.8125 10.886719 4.410156 10.886719 5.144531 C 10.886719 5.882812 10.214844 6.476562 9.386719 6.476562 C 8.5625 6.476562 7.890625 5.882812 7.890625 5.144531 C 7.890625 4.410156 8.5625 3.8125 9.386719 3.8125 Z M 9.386719 3.8125 "/>
<path style=" stroke:none;fill-rule:nonzero;fill:rgb(0%,0%,0%);fill-opacity:1;" d="M 9.917969 5.109375 C 9.917969 5.398438 9.671875 5.636719 9.363281 5.636719 C 9.058594 5.636719 8.808594 5.398438 8.808594 5.109375 C 8.808594 4.816406 9.058594 4.582031 9.363281 4.582031 C 9.671875 4.582031 9.917969 4.816406 9.917969 5.109375 Z M 9.917969 5.109375 "/>
<path style=" stroke:none;fill-rule:nonzero;fill:rgb(0%,0%,0%);fill-opacity:1;" d="M 9.195312 3.707031 L 9.589844 3.707031 C 9.613281 3.707031 9.628906 3.722656 9.628906 3.742188 L 9.628906 5.105469 C 9.628906 5.125 9.613281 5.140625 9.589844 5.140625 L 9.195312 5.140625 C 9.171875 5.140625 9.15625 5.125 9.15625 5.105469 L 9.15625 3.742188 C 9.15625 3.722656 9.171875 3.707031 9.195312 3.707031 Z M 9.195312 3.707031 "/>
<path style=" stroke:none;fill-rule:nonzero;fill:rgb(0%,0%,0%);fill-opacity:1;" d="M 9.21875 4.972656 L 9.4375 5.28125 C 9.449219 5.300781 9.445312 5.320312 9.425781 5.332031 L 8.210938 6.082031 C 8.191406 6.09375 8.167969 6.089844 8.15625 6.074219 L 7.9375 5.761719 C 7.925781 5.746094 7.933594 5.726562 7.949219 5.714844 L 9.167969 4.964844 C 9.183594 4.953125 9.207031 4.957031 9.21875 4.972656 Z M 9.21875 4.972656 "/>
<path style=" stroke:none;fill-rule:nonzero;fill:rgb(0%,0%,0%);fill-opacity:1;" d="M 9.796875 5.15625 L 9.578125 5.464844 C 9.566406 5.484375 9.570312 5.503906 9.589844 5.515625 L 10.804688 6.265625 C 10.824219 6.277344 10.847656 6.273438 10.859375 6.253906 L 11.078125 5.945312 C 11.089844 5.929688 11.085938 5.90625 11.066406 5.898438 L 9.851562 5.148438 C 9.832031 5.136719 9.808594 5.140625 9.796875 5.15625 Z M 9.796875 5.15625 "/>
</g>
<mask id="mask11">
  <g filter="url(#alpha)">
<rect x="0" y="0" width="16" height="16" style="fill:rgb(0%,0%,0%);fill-opacity:0.45098;stroke:none;"/>
  </g>
</mask>
<clipPath id="clip12">
  <rect width="16" height="16"/>
</clipPath>
<g id="surface39" clip-path="url(#clip12)">
<path style=" stroke:none;fill-rule:nonzero;fill:rgb(0%,0%,0%);fill-opacity:1;" d="M 9.398438 3.535156 C 8.367188 3.535156 7.53125 4.261719 7.53125 5.15625 C 7.53125 6.050781 8.367188 6.777344 9.398438 6.777344 C 10.429688 6.777344 11.265625 6.050781 11.265625 5.15625 C 11.265625 4.261719 10.429688 3.535156 9.398438 3.535156 Z M 9.394531 3.851562 C 10.191406 3.851562 10.839844 4.429688 10.839844 5.140625 C 10.839844 5.855469 10.191406 6.433594 9.394531 6.433594 C 8.59375 6.433594 7.945312 5.855469 7.945312 5.140625 C 7.945312 4.429688 8.59375 3.851562 9.394531 3.851562 Z M 9.394531 3.851562 "/>
<path style=" stroke:none;fill-rule:nonzero;fill:rgb(0%,0%,0%);fill-opacity:1;" d="M 9.90625 5.105469 C 9.90625 5.386719 9.664062 5.617188 9.371094 5.617188 C 9.074219 5.617188 8.832031 5.386719 8.832031 5.105469 C 8.832031 4.824219 9.074219 4.59375 9.371094 4.59375 C 9.664062 4.59375 9.90625 4.824219 9.90625 5.105469 Z M 9.90625 5.105469 "/>
<path style=" stroke:none;fill-rule:nonzero;fill:rgb(0%,0%,0%);fill-opacity:1;" d="M 9.207031 3.75 L 9.589844 3.75 C 9.609375 3.75 9.625 3.765625 9.625 3.78125 L 9.625 5.101562 C 9.625 5.121094 9.609375 5.136719 9.589844 5.136719 L 9.207031 5.136719 C 9.183594 5.136719 9.167969 5.121094 9.167969 5.101562 L 9.167969 3.78125 C 9.167969 3.765625 9.183594 3.75 9.207031 3.75 Z M 9.207031 3.75 "/>
<path style=" stroke:none;fill-rule:nonzero;fill:rgb(0%,0%,0%);fill-opacity:1;" d="M 9.230469 4.976562 L 9.441406 5.273438 C 9.453125 5.292969 9.449219 5.3125 9.429688 5.324219 L 8.253906 6.050781 C 8.238281 6.058594 8.214844 6.054688 8.203125 6.039062 L 7.992188 5.742188 C 7.980469 5.722656 7.984375 5.703125 8.003906 5.691406 L 9.179688 4.964844 C 9.195312 4.957031 9.21875 4.960938 9.230469 4.976562 Z M 9.230469 4.976562 "/>
<path style=" stroke:none;fill-rule:nonzero;fill:rgb(0%,0%,0%);fill-opacity:1;" d="M 9.789062 5.152344 L 9.578125 5.453125 C 9.566406 5.46875 9.570312 5.492188 9.585938 5.5 L 10.761719 6.226562 C 10.78125 6.238281 10.804688 6.234375 10.816406 6.21875 L 11.027344 5.917969 C 11.039062 5.902344 11.03125 5.878906 11.015625 5.871094 L 9.839844 5.144531 C 9.820312 5.132812 9.796875 5.136719 9.789062 5.152344 Z M 9.789062 5.152344 "/>
</g>
<linearGradient id="linear5" gradientUnits="userSpaceOnUse" x1="28.02" y1="41.563" x2="28.688" y2="18.52" gradientTransform="matrix(0.13761,0,0,0.127753,5.582392,1.279363)">
<stop offset="0" style="stop-color:rgb(30.588235%,30.588235%,30.588235%);stop-opacity:1;"/>
<stop offset="1" style="stop-color:rgb(70.588235%,70.588235%,70.588235%);stop-opacity:1;"/>
</linearGradient>
<linearGradient id="linear6" gradientUnits="userSpaceOnUse" x1="28.867" y1="40.39" x2="28.326" y2="20.11" gradientTransform="matrix(0.110761,0,0,0.101841,6.348279,2.038371)">
<stop offset="0" style="stop-color:rgb(81.960784%,81.960784%,81.960784%);stop-opacity:1;"/>
<stop offset="1" style="stop-color:rgb(92.156863%,92.156863%,92.156863%);stop-opacity:1;"/>
</linearGradient>
<linearGradient id="linear7" gradientUnits="userSpaceOnUse" x1="74.35" y1="1.046" x2="75.46" y2="12.424" gradientTransform="matrix(0.0683535,0.0844118,-0.0980092,0.0578886,1.20605,3.565514)">
<stop offset="0" style="stop-color:rgb(40%,40%,40%);stop-opacity:0.686275;"/>
<stop offset="1" style="stop-color:rgb(40%,40%,40%);stop-opacity:0;"/>
</linearGradient>
<radialGradient id="radial0" gradientUnits="userSpaceOnUse" cx="39.57" cy="59.55" fx="39.57" fy="59.55" r="24.786" gradientTransform="matrix(0.159289,-0.00181938,0.00256126,0.177285,0.627341,-0.963606)">
<stop offset="0" style="stop-color:rgb(54.117647%,54.117647%,54.117647%);stop-opacity:0.505882;"/>
<stop offset="1" style="stop-color:rgb(54.117647%,54.117647%,54.117647%);stop-opacity:0;"/>
</radialGradient>
<radialGradient id="radial1" gradientUnits="userSpaceOnUse" cx="48.26" cy="63.65" fx="48.26" fy="63.65" r="6.541" gradientTransform="matrix(0.133663,0,0,0.116431,0.624456,2.108697)">
<stop offset="0" style="stop-color:rgb(65.098039%,65.098039%,65.098039%);stop-opacity:0.603922;"/>
<stop offset="1" style="stop-color:rgb(65.098039%,65.098039%,65.098039%);stop-opacity:0;"/>
</radialGradient>
<linearGradient id="linear8" gradientUnits="userSpaceOnUse" x1="74.35" y1="1.046" x2="75.46" y2="12.424" gradientTransform="matrix(0.0664548,-0.0855634,0.0963209,0.0600175,2.706935,16.405314)">
<stop offset="0" style="stop-color:rgb(40%,40%,40%);stop-opacity:0.654902;"/>
<stop offset="1" style="stop-color:rgb(40%,40%,40%);stop-opacity:0;"/>
</linearGradient>
<linearGradient id="linear9" gradientUnits="userSpaceOnUse" x1="74.35" y1="1.046" x2="75.46" y2="12.424" gradientTransform="matrix(-0.118237,0.00219807,0.000123294,-0.103439,16.031739,8.667491)">
<stop offset="0" style="stop-color:rgb(40%,40%,40%);stop-opacity:0.717647;"/>
<stop offset="1" style="stop-color:rgb(40%,40%,40%);stop-opacity:0;"/>
</linearGradient>
<linearGradient id="linear10" gradientUnits="userSpaceOnUse" x1="80.29" y1="0" x2="84.73" y2="0" gradientTransform="matrix(0.12568,0,0,0.110553,2.176819,3.190295)">
<stop offset="0" style="stop-color:rgb(54.509804%,54.509804%,54.509804%);stop-opacity:1;"/>
<stop offset="1" style="stop-color:rgb(12.54902%,12.54902%,12.54902%);stop-opacity:1;"/>
</linearGradient>
<radialGradient id="radial2" gradientUnits="userSpaceOnUse" cx="47.18" cy="60.866" fx="47.18" fy="60.866" r="6.541" gradientTransform="matrix(0.122853,0,0,0.103329,6.546308,3.714533)">
<stop offset="0" style="stop-color:rgb(65.098039%,65.098039%,65.098039%);stop-opacity:0.843137;"/>
<stop offset="1" style="stop-color:rgb(65.098039%,65.098039%,65.098039%);stop-opacity:0;"/>
</radialGradient>
<radialGradient id="radial3" gradientUnits="userSpaceOnUse" cx="78.47" cy="53.737" fx="78.47" fy="53.737" r="7.868" gradientTransform="matrix(0.0725074,0,0,0.0637809,6.818434,5.191146)">
<stop offset="0" style="stop-color:rgb(0%,0%,0%);stop-opacity:1;"/>
<stop offset="1" style="stop-color:rgb(0%,0%,0%);stop-opacity:0;"/>
</radialGradient>
<linearGradient id="linear11" gradientUnits="userSpaceOnUse" x1="37.505" y1="30.381" x2="37.982" y2="51.18" gradientTransform="matrix(0.131145,0,0,0.116627,1.90771,2.495898)">
<stop offset="0" style="stop-color:rgb(100%,100%,100%);stop-opacity:0.505882;"/>
<stop offset="1" style="stop-color:rgb(100%,100%,100%);stop-opacity:0;"/>
</linearGradient>
</defs>
<g id="surface1">
<path style=" stroke:none;fill-rule:nonzero;fill:rgb(72.54902%,62.352941%,27.45098%);fill-opacity:1;" d="M 1.558594 3.296875 C -6.4375 15.328125 19.066406 22.734375 15.691406 7.1875 C 14.25 0.757812 5.226562 -3.140625 1.558594 3.296875 Z M 1.558594 3.296875 "/>
<use xlink:href="#surface6" mask="url(#mask0)"/>
<use xlink:href="#surface9" mask="url(#mask1)"/>
<use xlink:href="#surface12" mask="url(#mask2)"/>
<use xlink:href="#surface15" mask="url(#mask3)"/>
<path style=" stroke:none;fill-rule:nonzero;fill:url(#linear0);" d="M 8.347656 8.796875 C 8.351562 9.132812 8.113281 9.441406 7.722656 9.605469 C 7.328125 9.773438 6.84375 9.773438 6.453125 9.605469 C 6.058594 9.441406 5.820312 9.132812 5.824219 8.796875 C 5.820312 8.464844 6.058594 8.15625 6.453125 7.988281 C 6.84375 7.824219 7.328125 7.824219 7.722656 7.988281 C 8.113281 8.15625 8.351562 8.464844 8.347656 8.796875 Z M 8.347656 8.796875 "/>
<path style=" stroke:none;fill-rule:nonzero;fill:rgb(0%,0%,0%);fill-opacity:1;" d="M 8.195312 8.832031 C 8.199219 9.140625 7.988281 9.429688 7.644531 9.582031 C 7.300781 9.738281 6.875 9.738281 6.527344 9.582031 C 6.183594 9.429688 5.972656 9.140625 5.976562 8.832031 C 5.972656 8.523438 6.183594 8.234375 6.527344 8.078125 C 6.875 7.921875 7.300781 7.921875 7.644531 8.078125 C 7.988281 8.234375 8.199219 8.523438 8.195312 8.832031 Z M 8.195312 8.832031 "/>
<path style=" stroke:none;fill-rule:nonzero;fill:rgb(16.078431%,16.078431%,16.078431%);fill-opacity:1;" d="M 6.851562 8.023438 L 7.269531 8.023438 C 7.59375 8.023438 7.859375 8.171875 7.859375 8.359375 L 7.859375 9.859375 C 7.859375 10.042969 7.59375 10.195312 7.269531 10.195312 L 6.851562 10.195312 C 6.523438 10.195312 6.257812 10.042969 6.257812 9.859375 L 6.257812 8.359375 C 6.257812 8.171875 6.523438 8.023438 6.851562 8.023438 Z M 6.851562 8.023438 "/>
<use xlink:href="#surface18" mask="url(#mask4)"/>
<use xlink:href="#surface21" mask="url(#mask5)"/>
<use xlink:href="#surface24" mask="url(#mask6)"/>
<path style=" stroke:none;fill-rule:nonzero;fill:url(#linear1);" d="M 11.925781 7.535156 L 13.097656 7.535156 C 13.226562 7.535156 13.328125 7.628906 13.328125 7.742188 L 13.328125 11.351562 C 13.328125 11.464844 13.226562 11.558594 13.097656 11.558594 L 11.925781 11.558594 C 11.800781 11.558594 11.699219 11.464844 11.699219 11.351562 L 11.699219 7.742188 C 11.699219 7.628906 11.800781 7.535156 11.925781 7.535156 Z M 11.925781 7.535156 "/>
<path style=" stroke:none;fill-rule:nonzero;fill:url(#linear2);" d="M 6.800781 5.121094 C 6.789062 5.949219 5.996094 6.613281 5.023438 6.613281 C 4.050781 6.613281 3.261719 5.949219 3.246094 5.121094 C 3.242188 4.574219 3.578125 4.070312 4.128906 3.792969 C 4.683594 3.519531 5.367188 3.519531 5.917969 3.792969 C 6.46875 4.070312 6.808594 4.574219 6.800781 5.121094 Z M 6.800781 5.121094 "/>
<path style="fill:none;stroke-width:1.042;stroke-linecap:butt;stroke-linejoin:miter;stroke:rgb(0%,0%,0%);stroke-opacity:0.458824;stroke-miterlimit:4;" d="M 35.374322 22.475851 C 35.374322 28.370716 30.22139 33.126801 23.847243 33.126801 C 17.502882 33.126801 12.34995 28.370716 12.34995 22.475851 C 12.34995 16.614478 17.502882 11.858393 23.847243 11.858393 C 30.22139 11.858393 35.374322 16.614478 35.374322 22.475851 Z M 35.374322 22.475851 " transform="matrix(0.131145,0,0,0.116627,1.90771,2.495898)"/>
<path style=" stroke:none;fill-rule:nonzero;fill:url(#linear3);" d="M 6.484375 5.101562 C 6.484375 5.765625 5.84375 6.304688 5.054688 6.304688 C 4.265625 6.304688 3.625 5.765625 3.625 5.101562 C 3.625 4.433594 4.265625 3.894531 5.054688 3.894531 C 5.84375 3.894531 6.484375 4.433594 6.484375 5.101562 Z M 6.484375 5.101562 "/>
<path style=" stroke:none;fill-rule:nonzero;fill:rgb(0%,0%,0%);fill-opacity:1;" d="M 5.011719 4.027344 L 5.066406 4.027344 L 5.066406 4.324219 L 5.011719 4.324219 Z M 5.011719 4.027344 "/>
<path style="fill:none;stroke-width:1.084;stroke-linecap:butt;stroke-linejoin:miter;stroke:rgb(100%,11.372549%,11.372549%);stroke-opacity:1;stroke-miterlimit:4;" d="M 30.995819 26.930494 C 30.995819 26.930494 34.421178 22.743799 32.097891 19.193482 " transform="matrix(0.131145,0,0,0.116627,1.90771,2.495898)"/>
<path style=" stroke:none;fill-rule:nonzero;fill:rgb(0%,0%,0%);fill-opacity:1;" d="M 6.289062 5.136719 L 6.289062 5.183594 L 5.914062 5.183594 L 5.914062 5.136719 Z M 6.289062 5.136719 "/>
<path style=" stroke:none;fill-rule:nonzero;fill:rgb(0%,0%,0%);fill-opacity:1;" d="M 4.214844 5.117188 L 4.214844 5.164062 L 3.851562 5.164062 L 3.851562 5.117188 Z M 4.214844 5.117188 "/>
<path style=" stroke:none;fill-rule:nonzero;fill:rgb(0%,0%,0%);fill-opacity:1;" d="M 4.507812 4.34375 L 4.46875 4.378906 L 4.316406 4.238281 L 4.355469 4.203125 Z M 4.507812 4.34375 "/>
<path style=" stroke:none;fill-rule:nonzero;fill:rgb(0%,0%,0%);fill-opacity:1;" d="M 6.035156 5.652344 L 6 5.6875 L 5.828125 5.5625 L 5.867188 5.527344 Z M 6.035156 5.652344 "/>
<path style=" stroke:none;fill-rule:nonzero;fill:rgb(0%,0%,0%);fill-opacity:1;" d="M 5.785156 4.214844 L 5.824219 4.25 L 5.667969 4.386719 L 5.628906 4.355469 Z M 5.785156 4.214844 "/>
<path style=" stroke:none;fill-rule:nonzero;fill:rgb(0%,0%,0%);fill-opacity:1;" d="M 4.179688 5.546875 L 4.214844 5.585938 L 4.039062 5.707031 L 4.003906 5.667969 Z M 4.179688 5.546875 "/>
<path style=" stroke:none;fill-rule:nonzero;fill:rgb(0%,0%,0%);fill-opacity:1;" d="M 4.179688 4.703125 L 4.15625 4.746094 L 3.953125 4.667969 L 3.972656 4.625 Z M 4.179688 4.703125 "/>
<path style=" stroke:none;fill-rule:nonzero;fill:rgb(0%,0%,0%);fill-opacity:1;" d="M 5.984375 4.742188 L 6.011719 4.785156 L 6.210938 4.695312 L 6.183594 4.652344 Z M 5.984375 4.742188 "/>
<use xlink:href="#surface27" mask="url(#mask7)"/>
<path style=" stroke:none;fill-rule:nonzero;fill:url(#linear4);" d="M 7.125 6.914062 C 5.332031 6.914062 3.875 8.132812 3.875 9.632812 C 3.875 11.132812 5.332031 12.347656 7.125 12.347656 C 8.921875 12.347656 10.375 11.132812 10.375 9.632812 C 10.375 8.132812 8.921875 6.914062 7.125 6.914062 Z M 7.117188 7.441406 C 8.507812 7.441406 9.636719 8.410156 9.636719 9.605469 C 9.636719 10.800781 8.507812 11.769531 7.117188 11.769531 C 5.722656 11.769531 4.59375 10.800781 4.59375 9.605469 C 4.59375 8.410156 5.722656 7.441406 7.117188 7.441406 Z M 7.117188 7.441406 "/>
<path style=" stroke:none;fill-rule:nonzero;fill:rgb(0%,0%,0%);fill-opacity:1;" d="M 5.1875 5.136719 C 5.1875 5.21875 5.117188 5.285156 5.027344 5.285156 C 4.9375 5.285156 4.863281 5.21875 4.863281 5.136719 C 4.863281 5.054688 4.9375 4.988281 5.027344 4.988281 C 5.117188 4.988281 5.1875 5.054688 5.1875 5.136719 Z M 5.1875 5.136719 "/>
<path style=" stroke:none;fill-rule:nonzero;fill:rgb(100%,11.372549%,11.372549%);fill-opacity:1;" d="M 5.46875 4.097656 C 5.507812 4.109375 5.53125 4.136719 5.519531 4.160156 L 5.101562 5.171875 C 5.089844 5.191406 5.054688 5.199219 5.015625 5.1875 C 4.980469 5.175781 4.957031 5.148438 4.964844 5.125 L 5.386719 4.117188 C 5.394531 4.09375 5.433594 4.085938 5.46875 4.097656 Z M 5.46875 4.097656 "/>
<path style=" stroke:none;fill-rule:nonzero;fill:rgb(0%,0%,0%);fill-opacity:1;" d="M 4.871094 5.566406 L 5.1875 5.566406 C 5.226562 5.566406 5.257812 5.59375 5.257812 5.628906 L 5.257812 6.125 C 5.257812 6.160156 5.226562 6.191406 5.1875 6.191406 L 4.871094 6.191406 C 4.832031 6.191406 4.800781 6.160156 4.800781 6.125 L 4.800781 5.628906 C 4.800781 5.59375 4.832031 5.566406 4.871094 5.566406 Z M 4.871094 5.566406 "/>
<path style=" stroke:none;fill-rule:nonzero;fill:rgb(100%,11.372549%,11.372549%);fill-opacity:1;" d="M 5.132812 5.988281 L 5.132812 6.082031 L 5.042969 6.082031 L 5.042969 5.988281 L 4.832031 5.988281 L 4.832031 5.921875 L 5.027344 5.625 L 5.132812 5.625 L 5.132812 5.921875 L 5.195312 5.921875 L 5.195312 5.988281 L 5.132812 5.988281 M 5.042969 5.773438 C 5.042969 5.769531 5.042969 5.761719 5.042969 5.757812 C 5.042969 5.75 5.042969 5.746094 5.042969 5.738281 C 5.046875 5.734375 5.046875 5.726562 5.046875 5.722656 C 5.046875 5.714844 5.046875 5.710938 5.046875 5.707031 C 5.046875 5.710938 5.042969 5.714844 5.042969 5.71875 C 5.039062 5.722656 5.035156 5.726562 5.035156 5.730469 C 5.03125 5.738281 5.027344 5.742188 5.023438 5.746094 C 5.019531 5.753906 5.019531 5.757812 5.015625 5.761719 L 4.910156 5.921875 L 5.042969 5.921875 L 5.042969 5.773438 "/>
<use xlink:href="#surface30" mask="url(#mask8)"/>
<use xlink:href="#surface33" mask="url(#mask9)"/>
<use xlink:href="#surface36" mask="url(#mask10)"/>
<use xlink:href="#surface39" mask="url(#mask11)"/>
<path style=" stroke:none;fill-rule:nonzero;fill:url(#linear5);" d="M 11.175781 5.121094 C 11.164062 5.949219 10.375 6.613281 9.402344 6.613281 C 8.429688 6.613281 7.636719 5.949219 7.625 5.121094 C 7.617188 4.574219 7.953125 4.070312 8.507812 3.792969 C 9.058594 3.519531 9.742188 3.519531 10.296875 3.792969 C 10.847656 4.070312 11.183594 4.574219 11.175781 5.121094 Z M 11.175781 5.121094 "/>
<path style="fill:none;stroke-width:1.056;stroke-linecap:butt;stroke-linejoin:miter;stroke:rgb(0%,0%,0%);stroke-opacity:0.458824;stroke-miterlimit:4;" d="M 68.644986 22.475851 C 68.644986 28.538184 63.492054 33.428243 57.147693 33.428243 C 50.803332 33.428243 45.6504 28.538184 45.6504 22.475851 C 45.6504 16.447011 50.803332 11.556951 57.147693 11.556951 C 63.492054 11.556951 68.644986 16.447011 68.644986 22.475851 Z M 68.644986 22.475851 " transform="matrix(0.131145,0,0,0.116627,1.90771,2.495898)"/>
<path style=" stroke:none;fill-rule:nonzero;fill:url(#linear6);" d="M 10.851562 5.101562 C 10.851562 5.765625 10.210938 6.304688 9.421875 6.304688 C 8.632812 6.304688 7.992188 5.765625 7.992188 5.101562 C 7.992188 4.433594 8.632812 3.894531 9.421875 3.894531 C 10.210938 3.894531 10.851562 4.433594 10.851562 5.101562 Z M 10.851562 5.101562 "/>
<path style=" stroke:none;fill-rule:nonzero;fill:rgb(0%,0%,0%);fill-opacity:1;" d="M 9.378906 4.027344 L 9.433594 4.027344 L 9.433594 4.324219 L 9.378906 4.324219 Z M 9.378906 4.027344 "/>
<path style=" stroke:none;fill-rule:nonzero;fill:rgb(0%,0%,0%);fill-opacity:1;" d="M 10.65625 5.136719 L 10.65625 5.183594 L 10.28125 5.183594 L 10.28125 5.136719 Z M 10.65625 5.136719 "/>
<path style=" stroke:none;fill-rule:nonzero;fill:rgb(0%,0%,0%);fill-opacity:1;" d="M 8.582031 5.117188 L 8.582031 5.164062 L 8.214844 5.164062 L 8.214844 5.117188 Z M 8.582031 5.117188 "/>
<path style=" stroke:none;fill-rule:nonzero;fill:rgb(0%,0%,0%);fill-opacity:1;" d="M 8.875 4.34375 L 8.832031 4.378906 L 8.679688 4.238281 L 8.722656 4.203125 Z M 8.875 4.34375 "/>
<path style=" stroke:none;fill-rule:nonzero;fill:rgb(0%,0%,0%);fill-opacity:1;" d="M 10.402344 5.652344 L 10.367188 5.6875 L 10.195312 5.5625 L 10.230469 5.527344 Z M 10.402344 5.652344 "/>
<path style=" stroke:none;fill-rule:nonzero;fill:rgb(0%,0%,0%);fill-opacity:1;" d="M 10.152344 4.214844 L 10.191406 4.25 L 10.035156 4.386719 L 9.996094 4.355469 Z M 10.152344 4.214844 "/>
<path style=" stroke:none;fill-rule:nonzero;fill:rgb(0%,0%,0%);fill-opacity:1;" d="M 8.546875 5.550781 L 8.582031 5.585938 L 8.402344 5.707031 L 8.367188 5.667969 Z M 8.546875 5.550781 "/>
<path style=" stroke:none;fill-rule:nonzero;fill:rgb(0%,0%,0%);fill-opacity:1;" d="M 8.546875 4.703125 L 8.523438 4.746094 L 8.316406 4.667969 L 8.339844 4.625 Z M 8.546875 4.703125 "/>
<path style=" stroke:none;fill-rule:nonzero;fill:rgb(0%,0%,0%);fill-opacity:1;" d="M 10.351562 4.742188 L 10.378906 4.785156 L 10.574219 4.695312 L 10.550781 4.652344 Z M 10.351562 4.742188 "/>
<path style=" stroke:none;fill-rule:nonzero;fill:rgb(0%,0%,0%);fill-opacity:1;" d="M 9.554688 5.136719 C 9.554688 5.21875 9.484375 5.285156 9.394531 5.285156 C 9.304688 5.285156 9.230469 5.21875 9.230469 5.136719 C 9.230469 5.054688 9.304688 4.988281 9.394531 4.988281 C 9.484375 4.988281 9.554688 5.054688 9.554688 5.136719 Z M 9.554688 5.136719 "/>
<path style=" stroke:none;fill-rule:nonzero;fill:rgb(100%,11.372549%,11.372549%);fill-opacity:1;" d="M 10.617188 5.132812 C 10.617188 5.167969 10.59375 5.195312 10.566406 5.195312 L 9.359375 5.191406 C 9.335938 5.191406 9.3125 5.164062 9.3125 5.128906 C 9.3125 5.09375 9.335938 5.0625 9.363281 5.0625 L 10.566406 5.066406 C 10.59375 5.066406 10.617188 5.097656 10.617188 5.132812 Z M 10.617188 5.132812 "/>
<path style=" stroke:none;fill-rule:nonzero;fill:rgb(16.470588%,16.470588%,16.470588%);fill-opacity:1;" d="M 8.007812 9.546875 C 8 10.015625 7.585938 10.394531 7.074219 10.394531 C 6.5625 10.394531 6.148438 10.015625 6.140625 9.546875 C 6.136719 9.238281 6.316406 8.949219 6.605469 8.792969 C 6.894531 8.640625 7.253906 8.640625 7.542969 8.792969 C 7.835938 8.949219 8.011719 9.238281 8.007812 9.546875 Z M 8.007812 9.546875 "/>
<path style=" stroke:none;fill-rule:nonzero;fill:rgb(16.470588%,16.470588%,16.470588%);fill-opacity:1;" d="M 6.789062 7.269531 L 7.457031 7.269531 C 7.492188 7.269531 7.523438 7.296875 7.523438 7.328125 L 7.523438 9.539062 C 7.523438 9.574219 7.492188 9.597656 7.457031 9.597656 L 6.789062 9.597656 C 6.753906 9.597656 6.726562 9.574219 6.726562 9.539062 L 6.726562 7.328125 C 6.726562 7.296875 6.753906 7.269531 6.789062 7.269531 Z M 6.789062 7.269531 "/>
<path style=" stroke:none;fill-rule:nonzero;fill:rgb(16.470588%,16.470588%,16.470588%);fill-opacity:1;" d="M 6.832031 9.328125 L 7.199219 9.828125 C 7.21875 9.855469 7.210938 9.894531 7.183594 9.910156 L 5.132812 11.128906 C 5.105469 11.144531 5.0625 11.140625 5.042969 11.113281 L 4.675781 10.609375 C 4.65625 10.582031 4.664062 10.546875 4.695312 10.527344 L 6.742188 9.3125 C 6.773438 9.292969 6.8125 9.300781 6.832031 9.328125 Z M 6.832031 9.328125 "/>
<path style=" stroke:none;fill-rule:nonzero;fill:url(#linear7);" d="M 6.148438 9.867188 L 6.371094 10.140625 C 6.382812 10.15625 6.378906 10.179688 6.363281 10.1875 L 5.171875 10.890625 C 5.15625 10.902344 5.132812 10.898438 5.121094 10.882812 L 4.898438 10.605469 C 4.886719 10.59375 4.890625 10.570312 4.90625 10.5625 L 6.097656 9.859375 C 6.113281 9.847656 6.136719 9.851562 6.148438 9.867188 Z M 6.148438 9.867188 "/>
<path style=" stroke:none;fill-rule:nonzero;fill:rgb(16.470588%,16.470588%,16.470588%);fill-opacity:1;" d="M 7.804688 9.625 L 7.433594 10.128906 C 7.414062 10.15625 7.425781 10.191406 7.453125 10.207031 L 9.503906 11.425781 C 9.53125 11.445312 9.574219 11.4375 9.59375 11.410156 L 9.960938 10.90625 C 9.980469 10.882812 9.972656 10.84375 9.941406 10.828125 L 7.890625 9.609375 C 7.863281 9.589844 7.824219 9.597656 7.804688 9.625 Z M 7.804688 9.625 "/>
<path style=" stroke:none;fill-rule:nonzero;fill:url(#radial0);" d="M 7.144531 6.894531 C 5.351562 6.894531 3.894531 8.113281 3.894531 9.613281 C 3.894531 11.113281 5.351562 12.332031 7.144531 12.332031 C 8.941406 12.332031 10.394531 11.113281 10.394531 9.613281 C 10.394531 8.113281 8.941406 6.894531 7.144531 6.894531 Z M 7.136719 7.421875 C 8.527344 7.421875 9.65625 8.394531 9.65625 9.589844 C 9.65625 10.785156 8.527344 11.75 7.136719 11.75 C 5.742188 11.75 4.613281 10.785156 4.613281 9.589844 C 4.613281 8.394531 5.742188 7.421875 7.136719 7.421875 Z M 7.136719 7.421875 "/>
<path style=" stroke:none;fill-rule:nonzero;fill:url(#radial1);" d="M 7.949219 9.519531 C 7.949219 9.941406 7.558594 10.28125 7.074219 10.28125 C 6.59375 10.28125 6.199219 9.941406 6.199219 9.519531 C 6.199219 9.097656 6.59375 8.757812 7.074219 8.757812 C 7.558594 8.757812 7.949219 9.097656 7.949219 9.519531 Z M 7.949219 9.519531 "/>
<path style=" stroke:none;fill-rule:nonzero;fill:url(#linear8);" d="M 7.722656 10.148438 L 7.941406 9.867188 C 7.953125 9.855469 7.976562 9.851562 7.992188 9.859375 L 9.160156 10.589844 C 9.179688 10.601562 9.183594 10.621094 9.171875 10.636719 L 8.953125 10.914062 C 8.941406 10.929688 8.917969 10.933594 8.902344 10.921875 L 7.734375 10.195312 C 7.714844 10.183594 7.710938 10.164062 7.722656 10.148438 Z M 7.722656 10.148438 "/>
<path style=" stroke:none;fill-rule:nonzero;fill:url(#linear9);" d="M 7.296875 8.714844 L 6.90625 8.722656 C 6.886719 8.722656 6.871094 8.707031 6.871094 8.691406 L 6.871094 7.433594 C 6.871094 7.417969 6.890625 7.402344 6.910156 7.402344 L 7.296875 7.394531 C 7.316406 7.394531 7.332031 7.40625 7.332031 7.425781 L 7.332031 8.683594 C 7.332031 8.699219 7.316406 8.714844 7.296875 8.714844 Z M 7.296875 8.714844 "/>
<path style=" stroke:none;fill-rule:nonzero;fill:rgb(0%,0%,0%);fill-opacity:1;" d="M 9.976562 6.039062 L 9.933594 6.066406 L 9.808594 5.902344 L 9.851562 5.875 Z M 9.976562 6.039062 "/>
<path style=" stroke:none;fill-rule:nonzero;fill:rgb(0%,0%,0%);fill-opacity:1;" d="M 8.894531 5.84375 L 8.945312 5.863281 L 8.851562 6.042969 L 8.800781 6.023438 Z M 8.894531 5.84375 "/>
<path style=" stroke:none;fill-rule:nonzero;fill:rgb(0%,0%,0%);fill-opacity:1;" d="M 9.351562 5.886719 L 9.40625 5.886719 L 9.40625 6.1875 L 9.351562 6.1875 Z M 9.351562 5.886719 "/>
<path style=" stroke:none;fill-rule:nonzero;fill:rgb(0%,0%,0%);fill-opacity:1;" d="M 12.109375 7.710938 L 12.9375 7.710938 C 13.054688 7.710938 13.152344 7.792969 13.152344 7.898438 L 13.152344 11.242188 C 13.152344 11.347656 13.054688 11.433594 12.9375 11.433594 L 12.109375 11.433594 C 11.992188 11.433594 11.894531 11.347656 11.894531 11.242188 L 11.894531 7.898438 C 11.894531 7.792969 11.992188 7.710938 12.109375 7.710938 Z M 12.109375 7.710938 "/>
<path style=" stroke:none;fill-rule:nonzero;fill:url(#linear10);" d="M 12.496094 8.652344 L 12.59375 8.652344 C 12.722656 8.652344 12.824219 8.742188 12.824219 8.855469 L 12.824219 9.71875 C 12.824219 9.832031 12.722656 9.921875 12.59375 9.921875 L 12.496094 9.921875 C 12.371094 9.921875 12.265625 9.832031 12.265625 9.71875 L 12.265625 8.855469 C 12.265625 8.742188 12.371094 8.652344 12.496094 8.652344 Z M 12.496094 8.652344 "/>
<path style=" stroke:none;fill-rule:nonzero;fill:rgb(20.784314%,20.784314%,20.784314%);fill-opacity:1;" d="M 13.355469 10.28125 C 13.355469 10.695312 12.976562 11.03125 12.511719 11.03125 C 12.046875 11.03125 11.671875 10.695312 11.671875 10.28125 C 11.671875 9.867188 12.046875 9.53125 12.511719 9.53125 C 12.976562 9.53125 13.355469 9.867188 13.355469 10.28125 Z M 13.355469 10.28125 "/>
<path style=" stroke:none;fill-rule:nonzero;fill:url(#radial2);" d="M 13.277344 10.292969 C 13.277344 10.664062 12.917969 10.96875 12.472656 10.96875 C 12.03125 10.96875 11.671875 10.664062 11.671875 10.292969 C 11.671875 9.917969 12.03125 9.617188 12.472656 9.617188 C 12.917969 9.617188 13.277344 9.917969 13.277344 10.292969 Z M 13.277344 10.292969 "/>
<path style=" stroke:none;fill-rule:nonzero;fill:url(#radial3);" d="M 13.078125 8.617188 C 13.078125 8.894531 12.824219 9.121094 12.507812 9.121094 C 12.191406 9.121094 11.9375 8.894531 11.9375 8.617188 C 11.9375 8.339844 12.191406 8.117188 12.507812 8.117188 C 12.824219 8.117188 13.078125 8.339844 13.078125 8.617188 Z M 13.078125 8.617188 "/>
<path style=" stroke:none;fill-rule:nonzero;fill:url(#linear11);" d="M 7.105469 6.894531 C 5.308594 6.894531 3.851562 8.113281 3.851562 9.613281 C 3.851562 11.113281 5.308594 12.332031 7.105469 12.332031 C 8.898438 12.332031 10.355469 11.113281 10.355469 9.613281 C 10.355469 8.113281 8.898438 6.894531 7.105469 6.894531 Z M 7.09375 7.421875 C 8.488281 7.421875 9.617188 8.394531 9.617188 9.589844 C 9.617188 10.785156 8.488281 11.75 7.09375 11.75 C 5.703125 11.75 4.574219 10.785156 4.574219 9.589844 C 4.574219 8.394531 5.703125 7.421875 7.09375 7.421875 Z M 7.09375 7.421875 "/>
</g>
</svg>
