
<svg xmlns="http://www.w3.org/2000/svg" xmlns:xlink="http://www.w3.org/1999/xlink" width="16px" height="16px" viewBox="0 0 16 16" version="1.1">
<g id="surface1">
<path style=" stroke:none;fill-rule:nonzero;fill:rgb(93.333333%,90.980392%,66.666667%);fill-opacity:1;" d="M 9.898438 15.679688 C 24.765625 12.59375 8.804688 -8.613281 1.25 4.125 C -1.988281 9.074219 2.253906 17.265625 9.898438 15.679688 Z M 9.898438 15.679688 "/>
<path style="fill-rule:evenodd;fill:rgb(100%,84.313725%,0%);fill-opacity:1;stroke-width:1;stroke-linecap:butt;stroke-linejoin:miter;stroke:rgb(100%,84.313725%,0%);stroke-opacity:1;stroke-miterlimit:4;" d="M 224.152621 143.336714 C 224.488371 164.965354 212.46852 185.017562 192.793569 195.86341 C 173.118618 206.709259 148.810317 206.709259 129.202516 195.86341 C 109.527565 185.017562 97.507714 164.965354 97.776314 143.336714 C 97.507714 121.771132 109.527565 101.718924 129.202516 90.873076 C 148.810317 80.027227 173.118618 80.027227 192.793569 90.873076 C 212.46852 101.718924 224.488371 121.771132 224.152621 143.336714 Z M 224.152621 143.336714 " transform="matrix(0.058172,0,0,0.0619477,-1.363625,-0.504375)"/>
<path style=" stroke:none;fill-rule:nonzero;fill:rgb(100%,27.058824%,0%);fill-opacity:1;" d="M 5.230469 12.507812 C 4.285156 11.894531 2.410156 10 2.410156 9.664062 C 2.410156 9.613281 2.558594 9.570312 2.742188 9.570312 C 3.171875 9.570312 6.582031 12.578125 6.582031 12.957031 C 6.582031 13.367188 6.511719 13.34375 5.230469 12.507812 Z M 9.363281 12.976562 C 9.363281 12.570312 12.765625 9.570312 13.222656 9.570312 C 13.792969 9.570312 12.402344 11.425781 11.273438 12.164062 C 9.777344 13.152344 9.363281 13.328125 9.363281 12.976562 Z M 7.605469 10.566406 C 7.582031 8.855469 7.765625 8.769531 5.449219 8.847656 C 3 8.933594 3.460938 8.101562 5.996094 8.023438 C 7.273438 7.984375 7.695312 7.222656 7.695312 5.800781 C 7.695312 3.988281 8.355469 4.054688 8.457031 5.910156 C 8.703125 8.214844 8.648438 8.039062 10.59375 8.035156 C 12.617188 8.203125 12.6875 8.828125 10.773438 8.800781 C 8.664062 8.765625 8.535156 8.867188 8.488281 10.871094 C 8.449219 12.464844 7.628906 12.355469 7.605469 10.570312 Z M 2.742188 6.53125 C 3.199219 5.773438 5.0625 4.132812 5.917969 3.726562 C 7.121094 3.160156 6.640625 3.96875 4.828125 5.566406 C 3.011719 7.167969 2.097656 7.589844 2.742188 6.53125 Z M 11.117188 5.566406 C 9.128906 3.8125 8.847656 3.136719 10.445312 3.957031 C 11.84375 4.671875 13.992188 7.117188 13.222656 7.117188 C 13.03125 7.117188 12.082031 6.417969 11.117188 5.566406 Z M 11.117188 5.566406 "/>
</g>
</svg>
