
<svg xmlns="http://www.w3.org/2000/svg" xmlns:xlink="http://www.w3.org/1999/xlink" width="16px" height="16px" viewBox="0 0 16 16" version="1.1">
<g id="surface1">
<path style=" stroke:none;fill-rule:nonzero;fill:rgb(100%,100%,100%);fill-opacity:1;" d="M 5.789062 7.824219 L 5.789062 10.941406 C 5.789062 12.8125 6.109375 12.8125 8.996094 12.8125 L 9.636719 12.8125 C 12.527344 12.8125 12.847656 12.8125 12.847656 10.941406 L 12.847656 7.824219 C 12.847656 5.953125 12.527344 5.953125 9.636719 5.953125 L 8.996094 5.953125 C 6.109375 5.953125 5.789062 5.953125 5.789062 7.824219 Z M 8.996094 6.578125 L 9.636719 6.578125 C 12.203125 6.578125 12.203125 6.578125 12.203125 7.824219 L 12.203125 10.007812 C 12.203125 11.253906 12.203125 11.253906 9.636719 11.253906 L 8.996094 11.253906 C 6.429688 11.253906 6.429688 11.253906 6.429688 10.007812 L 6.429688 7.824219 C 6.429688 6.578125 6.429688 6.578125 8.996094 6.578125 Z M 8.996094 6.578125 "/>
<path style=" stroke:none;fill-rule:nonzero;fill:rgb(100%,100%,100%);fill-opacity:1;" d="M 7.070312 10.0625 L 7.070312 8.855469 L 8.195312 7.722656 L 9.597656 9.136719 L 10.160156 8.570312 L 11.5625 9.988281 L 11.5625 10.0625 C 11.5625 10.632812 11.46875 10.632812 10.441406 10.632812 L 8.195312 10.632812 C 7.167969 10.632812 7.074219 10.632812 7.074219 10.0625 Z M 7.070312 10.0625 "/>
<path style=" stroke:none;fill-rule:nonzero;fill:rgb(100%,100%,100%);fill-opacity:1;" d="M 11.5625 7.824219 C 11.5625 8.167969 11.277344 8.449219 10.921875 8.449219 C 10.566406 8.449219 10.28125 8.167969 10.28125 7.824219 C 10.28125 7.480469 10.566406 7.199219 10.921875 7.199219 C 11.277344 7.199219 11.5625 7.480469 11.5625 7.824219 Z M 11.5625 7.824219 "/>
<path style=" stroke:none;fill-rule:nonzero;fill:rgb(100%,100%,100%);fill-opacity:1;" d="M 7.714844 4.707031 C 4.824219 4.707031 4.503906 4.707031 4.503906 6.578125 L 4.503906 9.695312 C 4.503906 10.710938 4.601562 11.175781 5.144531 11.386719 L 5.144531 6.578125 C 5.144531 5.449219 5.164062 5.34375 7.070312 5.332031 L 11.40625 5.332031 C 11.125 4.707031 10.355469 4.707031 8.355469 4.707031 Z M 7.714844 4.707031 "/>
<path style=" stroke:none;fill-rule:nonzero;fill:rgb(100%,100%,100%);fill-opacity:1;" d="M 6.429688 3.460938 C 3.542969 3.460938 3.222656 3.460938 3.222656 5.332031 L 3.222656 8.449219 C 3.222656 9.460938 3.316406 9.925781 3.863281 10.140625 L 3.863281 5.332031 C 3.863281 4.199219 3.882812 4.097656 5.789062 4.085938 L 5.789062 4.082031 L 10.121094 4.082031 C 9.839844 3.460938 9.074219 3.460938 7.070312 3.460938 Z M 6.429688 3.460938 "/>
<path style=" stroke:none;fill-rule:nonzero;fill:rgb(18.431373%,30.980392%,30.980392%);fill-opacity:1;" d="M 13.152344 2.414062 C 25.660156 18.992188 -8.757812 21.347656 2.289062 4.421875 C 4.804688 0.566406 9.839844 -1.980469 13.152344 2.414062 Z M 13.152344 2.414062 "/>
<path style=" stroke:none;fill-rule:nonzero;fill:rgb(100%,100%,100%);fill-opacity:1;" d="M 4.574219 12.609375 C 4.257812 12.253906 4.539062 11.46875 5.089844 11.171875 C 5.222656 11.097656 5.332031 11.007812 5.332031 10.972656 C 5.332031 10.9375 5.21875 10.679688 5.082031 10.394531 C 4.945312 10.113281 4.808594 9.683594 4.777344 9.449219 C 4.714844 8.941406 4.667969 8.929688 4.042969 9.25 C 3.550781 9.503906 3.316406 9.480469 3.316406 9.183594 C 3.316406 8.875 3.636719 8.417969 4.1875 7.941406 C 4.472656 7.695312 4.804688 7.339844 4.929688 7.148438 C 5.152344 6.804688 5.335938 6.144531 5.335938 5.671875 C 5.335938 5.53125 5.410156 5.160156 5.503906 4.839844 C 5.722656 4.097656 6.375 3.320312 7.035156 3.015625 C 7.710938 2.699219 8.738281 2.714844 9.382812 3.046875 C 9.980469 3.355469 10.644531 4.097656 10.832031 4.671875 C 10.910156 4.902344 11.011719 5.410156 11.058594 5.796875 C 11.171875 6.742188 11.433594 7.226562 12.175781 7.855469 C 12.761719 8.355469 13.183594 8.992188 13.09375 9.242188 C 13.027344 9.417969 12.695312 9.398438 12.308594 9.191406 C 11.828125 8.933594 11.746094 8.960938 11.679688 9.390625 C 11.648438 9.597656 11.507812 10.03125 11.363281 10.359375 C 11.222656 10.6875 11.121094 10.96875 11.140625 10.980469 C 12.019531 11.613281 12.289062 12.210938 11.890625 12.628906 C 11.734375 12.792969 11.609375 12.804688 10.269531 12.804688 C 8.589844 12.804688 8.445312 12.757812 8.445312 12.203125 C 8.445312 11.46875 9.09375 10.953125 10.121094 10.871094 L 10.75 10.824219 L 10.820312 10.46875 C 10.863281 10.277344 10.875 9.820312 10.847656 9.457031 C 10.785156 8.601562 10.375 7.683594 9.828125 7.179688 C 9.621094 6.988281 9.453125 6.800781 9.453125 6.761719 C 9.453125 6.722656 9.585938 6.566406 9.746094 6.410156 C 10.207031 5.964844 10.125 5.414062 9.5625 5.167969 C 9.261719 5.035156 8.839844 5.070312 8.632812 5.246094 C 8.554688 5.3125 8.570312 5.382812 8.699219 5.554688 C 8.820312 5.71875 8.851562 5.855469 8.816406 6.058594 C 8.773438 6.296875 8.800781 6.351562 8.984375 6.441406 C 9.34375 6.613281 9.277344 6.972656 8.773438 7.554688 C 8.535156 7.824219 8.285156 8.046875 8.210938 8.046875 C 8.140625 8.046875 7.878906 7.832031 7.632812 7.574219 C 7.109375 7.023438 7.054688 6.753906 7.410156 6.460938 C 7.597656 6.304688 7.632812 6.210938 7.617188 5.9375 C 7.59375 5.613281 7.753906 5.3125 7.949219 5.3125 C 8.121094 5.3125 7.765625 4.800781 7.515625 4.695312 C 6.726562 4.351562 6.113281 5.542969 6.59375 6.480469 C 6.6875 6.664062 6.761719 6.855469 6.761719 6.90625 C 6.761719 6.960938 6.59375 7.203125 6.390625 7.441406 C 5.773438 8.164062 5.464844 9.363281 5.625 10.460938 L 5.679688 10.867188 L 6.242188 10.867188 C 7.238281 10.867188 8.03125 11.429688 8.046875 12.144531 C 8.054688 12.324219 7.992188 12.519531 7.902344 12.625 C 7.753906 12.792969 7.648438 12.804688 6.25 12.804688 C 4.804688 12.804688 4.746094 12.796875 4.574219 12.605469 Z M 4.574219 12.609375 "/>
</g>
</svg>
