
<svg xmlns="http://www.w3.org/2000/svg" xmlns:xlink="http://www.w3.org/1999/xlink" width="16px" height="16px" viewBox="0 0 16 16" version="1.1">
<g id="surface1">
<path style=" stroke:none;fill-rule:nonzero;fill:rgb(19.607843%,80.392157%,19.607843%);fill-opacity:1;" d="M 1.648438 3.886719 C -4.105469 11.984375 6.519531 20.191406 13.296875 13.59375 C 19.683594 7.375 13.761719 -2.285156 5.816406 0.734375 C 4.160156 1.367188 2.703125 2.398438 1.648438 3.886719 Z M 1.648438 3.886719 "/>
<path style=" stroke:none;fill-rule:nonzero;fill:rgb(100%,100%,100%);fill-opacity:1;" d="M 6.324219 11.5 C 6.015625 11.378906 5.328125 10.734375 5.328125 10.570312 C 5.328125 10.507812 4.976562 10.460938 4.550781 10.460938 C 3.914062 10.460938 3.722656 10.40625 3.484375 10.160156 C 3.21875 9.882812 3.195312 9.726562 3.195312 8.152344 L 3.195312 6.449219 L 4.527344 6.449219 L 4.527344 9.167969 L 5.191406 9.167969 L 5.199219 7.261719 C 5.203125 5.203125 5.257812 4.996094 5.921875 4.488281 C 6.304688 4.195312 6.40625 4.1875 9.28125 4.148438 L 12.25 4.109375 L 12.25 6.320312 L 9.851562 6.320312 L 9.851562 4.769531 L 7.457031 4.769531 L 7.457031 8.003906 L 6.253906 8.003906 L 7.402344 9.460938 C 8.035156 10.261719 8.597656 10.917969 8.65625 10.917969 C 8.773438 10.917969 10.910156 8.253906 10.914062 8.101562 C 10.917969 8.046875 10.679688 8.003906 10.386719 8.003906 C 9.851562 8.003906 9.851562 8.003906 9.851562 7.488281 L 9.851562 6.96875 L 12.269531 6.96875 L 12.226562 8.769531 C 12.183594 10.484375 12.164062 10.589844 11.847656 10.917969 C 11.222656 11.570312 10.960938 11.628906 8.695312 11.621094 C 7.539062 11.613281 6.46875 11.5625 6.324219 11.503906 Z M 6.324219 11.5 "/>
</g>
</svg>
