
<svg xmlns="http://www.w3.org/2000/svg" xmlns:xlink="http://www.w3.org/1999/xlink" width="16px" height="16px" viewBox="0 0 16 16" version="1.1">
<g id="surface1">
<path style=" stroke:none;fill-rule:nonzero;fill:rgb(27.45098%,50.980392%,70.588235%);fill-opacity:1;" d="M 15.484375 10.199219 C 18.46875 1.859375 7.734375 -2.195312 3.699219 1.199219 C -0.332031 4.59375 -1.710938 10.414062 2.859375 13.339844 C 7.425781 16.265625 12.496094 18.535156 15.484375 10.199219 Z M 15.484375 10.199219 "/>
<path style=" stroke:none;fill-rule:nonzero;fill:rgb(0%,74.901961%,100%);fill-opacity:1;" d="M 11.929688 10.789062 L 11.929688 4.851562 C 11.929688 4.644531 11.757812 4.480469 11.542969 4.480469 L 4.59375 4.480469 C 4.378906 4.480469 4.207031 4.644531 4.207031 4.851562 L 4.207031 10.789062 C 4.207031 10.992188 4.378906 11.160156 4.59375 11.160156 L 11.542969 11.160156 C 11.757812 11.160156 11.929688 10.992188 11.929688 10.789062 Z M 11.929688 10.789062 "/>
<path style=" stroke:none;fill-rule:evenodd;fill:rgb(0%,0%,0%);fill-opacity:0.2;" d="M 9.613281 6.148438 C 10.25 6.148438 10.769531 6.648438 10.769531 7.261719 C 10.769531 7.878906 10.25 8.375 9.613281 8.375 C 8.972656 8.375 8.453125 7.878906 8.453125 7.261719 C 8.453125 6.648438 8.972656 6.148438 9.613281 6.148438 Z M 9.613281 6.148438 "/>
<path style=" stroke:none;fill-rule:evenodd;fill:rgb(100%,99.607843%,89.411765%);fill-opacity:1;" d="M 9.613281 5.964844 C 10.25 5.964844 10.769531 6.460938 10.769531 7.078125 C 10.769531 7.691406 10.25 8.191406 9.613281 8.191406 C 8.972656 8.191406 8.453125 7.691406 8.453125 7.078125 C 8.453125 6.460938 8.972656 5.964844 9.613281 5.964844 Z M 9.613281 5.964844 "/>
<path style=" stroke:none;fill-rule:nonzero;fill:rgb(100%,100%,100%);fill-opacity:0.2;" d="M 4.59375 4.480469 C 4.378906 4.480469 4.207031 4.644531 4.207031 4.851562 L 4.207031 5.035156 C 4.207031 4.832031 4.378906 4.664062 4.59375 4.664062 L 11.542969 4.664062 C 11.757812 4.664062 11.929688 4.832031 11.929688 5.035156 L 11.929688 4.851562 C 11.929688 4.644531 11.757812 4.480469 11.542969 4.480469 Z M 4.59375 4.480469 "/>
<path style=" stroke:none;fill-rule:nonzero;fill:rgb(41.960784%,55.686275%,13.72549%);fill-opacity:1;" d="M 4.207031 9.304688 L 4.207031 10.789062 C 4.207031 10.992188 4.378906 11.160156 4.59375 11.160156 L 11.542969 11.160156 C 11.757812 11.160156 11.929688 10.992188 11.929688 10.789062 L 11.929688 9.304688 Z M 4.207031 9.304688 "/>
<path style=" stroke:none;fill-rule:nonzero;fill:rgb(0%,0%,0%);fill-opacity:0.2;" d="M 4.207031 10.789062 L 4.207031 10.972656 C 4.207031 11.179688 4.378906 11.34375 4.59375 11.34375 L 11.542969 11.34375 C 11.757812 11.34375 11.929688 11.179688 11.929688 10.972656 L 11.929688 10.789062 C 11.929688 10.992188 11.757812 11.160156 11.542969 11.160156 L 4.59375 11.160156 C 4.378906 11.160156 4.207031 10.992188 4.207031 10.789062 Z M 4.207031 10.789062 "/>
<path style=" stroke:none;fill-rule:nonzero;fill:rgb(74.117647%,71.764706%,41.960784%);fill-opacity:1;" d="M 4.207031 9.332031 L 4.207031 8.941406 C 4.207031 8.941406 4.761719 8.292969 4.921875 8.234375 C 5.078125 8.179688 5.261719 8.226562 5.453125 8.289062 C 5.640625 8.351562 5.925781 8.4375 6.011719 8.441406 C 6.101562 8.449219 6.261719 8.429688 6.449219 8.410156 C 6.632812 8.390625 6.941406 8.371094 7.039062 8.375 C 7.136719 8.375 7.375 8.398438 7.632812 8.425781 C 7.886719 8.453125 8.238281 8.496094 8.316406 8.511719 C 8.398438 8.523438 8.492188 8.546875 8.597656 8.574219 C 8.703125 8.597656 8.886719 8.636719 8.953125 8.648438 C 9.019531 8.660156 9.167969 8.695312 9.34375 8.722656 C 9.519531 8.753906 9.800781 8.761719 9.882812 8.75 C 9.960938 8.742188 10.132812 8.636719 10.320312 8.539062 C 10.511719 8.441406 10.71875 8.351562 10.878906 8.375 C 11.035156 8.394531 11.929688 8.941406 11.929688 8.941406 L 11.929688 9.332031 Z M 4.207031 9.332031 "/>
<path style=" stroke:none;fill-rule:evenodd;fill:rgb(0%,0%,0%);fill-opacity:0.2;" d="M 12.507812 10.230469 C 12.507812 11.359375 11.558594 12.273438 10.382812 12.273438 C 9.210938 12.273438 8.261719 11.359375 8.261719 10.230469 C 8.261719 9.105469 9.210938 8.191406 10.382812 8.191406 C 11.558594 8.191406 12.507812 9.105469 12.507812 10.230469 Z M 12.507812 10.230469 "/>
<path style=" stroke:none;fill-rule:evenodd;fill:rgb(48.235294%,74.509804%,30.196078%);fill-opacity:1;" d="M 12.507812 10.046875 C 12.507812 11.171875 11.558594 12.085938 10.382812 12.085938 C 9.210938 12.085938 8.261719 11.171875 8.261719 10.046875 C 8.261719 8.917969 9.210938 8.003906 10.382812 8.003906 C 11.558594 8.003906 12.507812 8.917969 12.507812 10.046875 Z M 12.507812 10.046875 "/>
<path style=" stroke:none;fill-rule:nonzero;fill:rgb(100%,100%,100%);fill-opacity:1;" d="M 10.113281 9.117188 L 10.65625 9.117188 C 10.71875 9.117188 10.769531 9.183594 10.769531 9.261719 L 10.769531 11.199219 C 10.769531 11.28125 10.71875 11.34375 10.65625 11.34375 L 10.113281 11.34375 C 10.050781 11.34375 10 11.28125 10 11.199219 L 10 9.261719 C 10 9.183594 10.050781 9.117188 10.113281 9.117188 Z M 10.113281 9.117188 "/>
<path style=" stroke:none;fill-rule:nonzero;fill:rgb(100%,100%,100%);fill-opacity:1;" d="M 10.382812 8.5625 L 11.351562 10.046875 L 9.417969 10.046875 L 9.902344 9.304688 Z M 10.382812 8.5625 "/>
</g>
</svg>
