
<svg xmlns="http://www.w3.org/2000/svg" xmlns:xlink="http://www.w3.org/1999/xlink" width="16px" height="16px" viewBox="0 0 16 16" version="1.1">
<g id="surface1">
<path style=" stroke:none;fill-rule:nonzero;fill:rgb(75.294118%,75.294118%,75.294118%);fill-opacity:1;" d="M 6.183594 15.722656 C -8.683594 12.628906 7.277344 -8.671875 14.835938 4.121094 C 18.074219 9.09375 13.832031 17.316406 6.183594 15.722656 Z M 6.183594 15.722656 "/>
<path style=" stroke:none;fill-rule:nonzero;fill:rgb(16.862745%,0%,13.333333%);fill-opacity:1;" d="M 6.363281 12.34375 C 5.355469 12.019531 4.402344 11.242188 3.925781 10.351562 L 3.664062 9.804688 L 3.449219 8.625 L 3.632812 7.480469 L 3.972656 6.832031 C 4.476562 5.882812 5.265625 5.308594 6.417969 5.074219 C 7.128906 4.933594 7.945312 4.953125 7.976562 5.117188 C 7.992188 5.199219 7.894531 5.265625 7.628906 5.351562 C 6.03125 5.871094 4.765625 7.117188 4.644531 8.289062 C 4.566406 9.066406 5.148438 9.8125 6.046875 10.085938 C 7.398438 10.496094 8.320312 9.859375 8.558594 8.347656 C 8.671875 7.652344 8.65625 7.628906 8.066406 7.628906 C 7.550781 7.628906 7.359375 7.585938 7.359375 7.472656 C 7.359375 7.421875 9.003906 5.25 10.144531 3.796875 C 10.191406 3.734375 10.242188 3.699219 10.253906 3.714844 C 10.265625 3.730469 10.816406 4.472656 11.480469 5.363281 C 12.5 6.734375 12.6875 7.019531 12.6875 7.226562 C 12.6875 7.488281 12.585938 7.554688 12.179688 7.554688 C 11.941406 7.558594 11.84375 7.726562 11.84375 8.144531 C 11.84375 8.851562 11.476562 10.074219 11.082031 10.683594 C 10.527344 11.539062 9.664062 12.167969 8.714844 12.414062 C 8.042969 12.585938 7.023438 12.554688 6.363281 12.34375 Z M 6.222656 5.234375 L 6.902344 5.308594 L 6.566406 5.347656 C 6.199219 5.390625 5.847656 5.710938 5.59375 5.648438 C 5.460938 5.613281 6.335938 5.265625 6.460938 5.261719 C 6.507812 5.261719 5.828125 5.191406 6.222656 5.234375 Z M 6.222656 5.234375 "/>
</g>
</svg>
