
<svg xmlns="http://www.w3.org/2000/svg" xmlns:xlink="http://www.w3.org/1999/xlink" width="16px" height="16px" viewBox="0 0 16 16" version="1.1">
<defs>
<linearGradient id="linear0" gradientUnits="userSpaceOnUse" x1="1" y1="0" x2="47" y2="0" gradientTransform="matrix(0,-0.218146,0.210596,0,3.03425,13.181615)">
<stop offset="0" style="stop-color:rgb(89.411765%,89.411765%,89.411765%);stop-opacity:1;"/>
<stop offset="1" style="stop-color:rgb(93.333333%,93.333333%,93.333333%);stop-opacity:1;"/>
</linearGradient>
</defs>
<g id="surface1">
<path style=" stroke:none;fill-rule:nonzero;fill:rgb(96.078431%,96.078431%,96.078431%);fill-opacity:1;" d="M 3.324219 14.484375 C 15.351562 22.480469 22.761719 -3.019531 7.210938 0.355469 C 0.785156 1.792969 -3.113281 10.816406 3.324219 14.484375 Z M 3.324219 14.484375 "/>
<path style=" stroke:none;fill-rule:nonzero;fill:rgb(0%,0%,0%);fill-opacity:0.0509804;" d="M 10.679688 3.800781 C 11.914062 4.6875 12.722656 6.164062 12.722656 7.835938 C 12.722656 10.546875 10.601562 12.746094 7.984375 12.746094 C 6.367188 12.746094 4.941406 11.910156 4.085938 10.632812 C 4.304688 11.03125 4.574219 11.394531 4.882812 11.714844 C 5.742188 12.527344 6.886719 13.019531 8.140625 13.019531 C 10.816406 13.019531 12.984375 10.773438 12.984375 8 C 12.984375 6.703125 12.507812 5.515625 11.726562 4.625 C 11.417969 4.304688 11.066406 4.027344 10.679688 3.800781 Z M 11.726562 4.625 C 12.539062 5.523438 13.039062 6.726562 13.039062 8.054688 C 13.039062 10.828125 10.867188 13.074219 8.195312 13.074219 C 6.914062 13.074219 5.75 12.558594 4.882812 11.714844 C 5.757812 12.621094 6.964844 13.179688 8.296875 13.179688 C 10.972656 13.179688 13.140625 10.933594 13.140625 8.164062 C 13.140625 6.78125 12.601562 5.535156 11.726562 4.625 Z M 11.726562 4.625 "/>
<path style=" stroke:none;fill-rule:nonzero;fill:rgb(0%,0%,0%);fill-opacity:0.101961;" d="M 11.726562 4.625 C 12.507812 5.515625 12.984375 6.703125 12.984375 8 C 12.984375 10.773438 10.816406 13.019531 8.140625 13.019531 C 6.886719 13.019531 5.742188 12.527344 4.882812 11.714844 C 5.75 12.554688 6.914062 13.074219 8.195312 13.074219 C 10.867188 13.074219 13.039062 10.824219 13.039062 8.054688 C 13.039062 6.730469 12.539062 5.523438 11.726562 4.625 Z M 11.726562 4.625 "/>
<path style=" stroke:none;fill-rule:nonzero;fill:rgb(0%,0%,0%);fill-opacity:0.2;" d="M 9.617188 3.230469 C 11.429688 3.917969 12.722656 5.71875 12.722656 7.839844 C 12.722656 10.546875 10.601562 12.746094 7.984375 12.746094 C 5.9375 12.746094 4.199219 11.40625 3.535156 9.527344 C 4.269531 11.871094 6.539062 13.316406 8.890625 12.9375 C 11.238281 12.554688 12.976562 10.464844 12.984375 8 C 12.984375 5.820312 11.621094 3.894531 9.617188 3.230469 Z M 9.617188 3.230469 "/>
<path style=" stroke:none;fill-rule:nonzero;fill:url(#linear0);" d="M 8.089844 2.929688 C 10.765625 2.929688 12.933594 5.175781 12.933594 7.945312 C 12.933594 10.71875 10.765625 12.964844 8.089844 12.964844 C 5.414062 12.964844 3.246094 10.71875 3.246094 7.945312 C 3.246094 5.175781 5.414062 2.929688 8.089844 2.929688 Z M 8.089844 2.929688 "/>
<path style=" stroke:none;fill-rule:nonzero;fill:rgb(0%,0%,0%);fill-opacity:0.0980392;" d="M 8.214844 3.148438 C 8.082031 3.148438 7.953125 3.15625 7.824219 3.167969 C 7.796875 3.171875 7.769531 3.171875 7.738281 3.175781 C 7.738281 3.175781 7.734375 3.175781 7.734375 3.175781 C 7.730469 3.175781 7.722656 3.171875 7.71875 3.175781 C 7.691406 3.175781 7.664062 3.183594 7.632812 3.1875 C 7.628906 3.1875 7.625 3.1875 7.621094 3.1875 C 7.023438 3.261719 6.457031 3.449219 5.949219 3.726562 L 4.898438 4.511719 C 4.632812 4.769531 4.394531 5.054688 4.191406 5.371094 C 4.183594 5.382812 4.066406 5.289062 4.007812 5.253906 C 3.976562 5.304688 3.941406 5.355469 3.910156 5.410156 L 6.417969 6.925781 L 5.027344 9.882812 L 4.96875 9.855469 L 3.84375 10.359375 C 3.882812 10.4375 3.921875 10.515625 3.96875 10.59375 C 3.96875 10.59375 3.972656 10.589844 3.976562 10.59375 L 5.113281 10.09375 L 8.21875 11.464844 L 8.171875 12.964844 C 8.246094 12.964844 8.3125 12.957031 8.382812 12.949219 L 8.429688 11.4375 L 10.035156 9.828125 L 12.015625 10.878906 C 12.058594 10.820312 12.097656 10.761719 12.136719 10.699219 L 10.113281 9.628906 L 9.859375 7.585938 L 12.136719 5.226562 C 12.117188 5.203125 12.097656 5.183594 12.082031 5.160156 L 12.089844 5.152344 C 12.0625 5.117188 12.035156 5.082031 12.011719 5.050781 C 11.121094 3.890625 9.75 3.148438 8.214844 3.148438 Z M 7.628906 6.699219 L 9.65625 7.652344 L 9.910156 9.648438 L 9.242188 10.324219 L 8.300781 11.265625 L 5.246094 9.910156 L 6.652344 6.945312 Z M 7.628906 6.699219 "/>
<path style=" stroke:none;fill-rule:nonzero;fill:rgb(28.235294%,42.352941%,82.352941%);fill-opacity:1;" d="M 8.089844 2.929688 C 7.925781 2.929688 7.765625 2.941406 7.609375 2.957031 L 7.535156 6.378906 L 9.617188 7.351562 L 11.964844 4.933594 C 11.082031 3.71875 9.671875 2.929688 8.089844 2.929688 Z M 8.089844 2.929688 "/>
<path style=" stroke:none;fill-rule:nonzero;fill:rgb(0%,0%,0%);fill-opacity:0.101961;" d="M 11.464844 4.351562 C 12.246094 5.246094 12.722656 6.429688 12.722656 7.726562 C 12.722656 10.5 10.554688 12.746094 7.878906 12.746094 C 6.625 12.746094 5.480469 12.253906 4.621094 11.441406 C 5.5 12.378906 6.726562 12.964844 8.089844 12.964844 C 10.761719 12.964844 12.933594 10.71875 12.933594 7.945312 C 12.933594 6.535156 12.367188 5.265625 11.464844 4.351562 Z M 11.464844 4.351562 "/>
<path style=" stroke:none;fill-rule:nonzero;fill:rgb(78.039216%,26.666667%,16.470588%);fill-opacity:0.85098;" d="M 7.59375 2.957031 C 6.960938 3.023438 6.363281 3.214844 5.824219 3.507812 L 4.773438 4.292969 C 4.492188 4.566406 4.238281 4.871094 4.027344 5.207031 L 6.410156 6.664062 L 7.53125 6.378906 L 7.613281 2.957031 C 7.609375 2.957031 7.601562 2.957031 7.59375 2.957031 Z M 7.59375 2.957031 "/>
<path style=" stroke:none;fill-rule:nonzero;fill:rgb(17.647059%,17.647059%,17.647059%);fill-opacity:1;" d="M 7.699219 2.949219 C 7.632812 2.953125 7.566406 2.960938 7.496094 2.96875 L 7.425781 6.277344 L 6.425781 6.535156 L 4.066406 5.152344 C 4.027344 5.210938 3.992188 5.273438 3.957031 5.335938 L 6.292969 6.707031 L 4.890625 9.679688 L 4.882812 9.679688 L 3.75 10.175781 C 3.785156 10.242188 3.816406 10.308594 3.851562 10.375 L 4.988281 9.875 L 8.09375 11.246094 L 8.042969 12.964844 C 8.058594 12.964844 8.074219 12.964844 8.089844 12.964844 C 8.144531 12.964844 8.199219 12.960938 8.253906 12.957031 L 8.304688 11.21875 L 9.910156 9.609375 L 12.097656 10.769531 C 12.136719 10.710938 12.171875 10.648438 12.207031 10.585938 L 9.992188 9.414062 L 9.734375 7.367188 L 12.011719 5.007812 C 11.96875 4.949219 11.929688 4.890625 11.886719 4.832031 L 9.601562 7.195312 L 7.632812 6.277344 Z M 7.503906 6.480469 L 9.53125 7.433594 L 9.789062 9.433594 L 8.175781 11.046875 L 5.121094 9.691406 L 6.53125 6.726562 Z M 7.503906 6.480469 "/>
</g>
</svg>
