
<svg xmlns="http://www.w3.org/2000/svg" xmlns:xlink="http://www.w3.org/1999/xlink" width="16px" height="16px" viewBox="0 0 16 16" version="1.1">
<g id="surface1">
<path style=" stroke:none;fill-rule:nonzero;fill:rgb(3.921569%,47.058824%,47.058824%);fill-opacity:1;" d="M 1.296875 12.65625 C -3.90625 5.210938 7.816406 -4.109375 13.941406 1.949219 C 19.714844 7.660156 12.25 18.320312 5.066406 15.546875 C 3.566406 14.96875 2.25 14.015625 1.296875 12.65625 Z M 1.296875 12.65625 "/>
<path style=" stroke:none;fill-rule:nonzero;fill:rgb(0%,0%,0%);fill-opacity:1;" d="M 4.019531 12.152344 C 3.933594 12.070312 3.964844 6.042969 4.054688 5.855469 C 4.117188 5.707031 4.179688 5.679688 4.414062 5.679688 C 4.570312 5.679688 4.734375 5.640625 4.777344 5.597656 C 4.828125 5.546875 4.859375 5.289062 4.859375 4.914062 C 4.859375 4.207031 4.910156 4.148438 5.492188 4.183594 L 5.847656 4.203125 L 5.882812 4.976562 C 5.902344 5.398438 5.953125 5.777344 5.992188 5.820312 C 6.03125 5.859375 6.242188 5.882812 6.464844 5.871094 C 6.945312 5.847656 6.953125 5.828125 6.964844 4.839844 L 6.96875 4.167969 L 9.15625 4.167969 C 10.53125 4.167969 11.386719 4.195312 11.46875 4.238281 C 11.597656 4.308594 11.601562 4.425781 11.601562 8.183594 C 11.601562 11.945312 11.597656 12.058594 11.46875 12.128906 C 11.300781 12.222656 9.519531 12.222656 9.351562 12.128906 C 9.226562 12.0625 9.21875 11.972656 9.21875 10.699219 C 9.21875 9.738281 9.195312 9.320312 9.136719 9.261719 C 9.089844 9.214844 8.863281 9.179688 8.597656 9.179688 C 8.246094 9.179688 8.132812 9.203125 8.101562 9.289062 C 8.078125 9.347656 8.058594 10.027344 8.058594 10.796875 L 8.058594 12.199219 L 6.0625 12.199219 C 4.964844 12.199219 4.042969 12.179688 4.019531 12.152344 Z M 4.019531 12.152344 "/>
</g>
</svg>
