
<svg xmlns="http://www.w3.org/2000/svg" xmlns:xlink="http://www.w3.org/1999/xlink" width="16px" height="16px" viewBox="0 0 16 16" version="1.1">
<g id="surface1">
<path style=" stroke:none;fill-rule:nonzero;fill:rgb(100%,49.803922%,31.372549%);fill-opacity:1;" d="M 3.675781 14.40625 C 11 20.191406 20.621094 8.269531 13.226562 2.109375 C 6.613281 -3.886719 -3.992188 5.707031 1.933594 12.800781 C 2.402344 13.460938 3.078125 13.890625 3.675781 14.40625 Z M 3.675781 14.40625 "/>
<path style="fill-rule:evenodd;fill:rgb(100%,0%,0%);fill-opacity:1;stroke-width:1;stroke-linecap:butt;stroke-linejoin:miter;stroke:rgb(100%,0%,0%);stroke-opacity:1;stroke-miterlimit:4;" d="M 219.126032 152.605943 C 219.106491 190.34639 187.689532 220.899348 148.928945 220.905259 C 110.168358 220.91117 78.699848 190.334538 78.719389 152.594091 C 78.725149 114.910994 110.15589 84.300686 148.902695 84.352125 C 182.490964 84.317276 211.367045 107.444759 217.77746 139.506835 " transform="matrix(0.068633,-0.0177274,0.0164925,0.0638522,-4.852999,1.06999)"/>
<path style=" stroke:none;fill-rule:nonzero;fill:rgb(100%,100%,100%);fill-opacity:1;" d="M 7.09375 5.132812 C 6.257812 5.367188 5.726562 6.148438 5.902344 6.882812 L 6.222656 8.214844 L 5.46875 8.425781 L 5.546875 8.757812 L 6.101562 11.085938 L 6.480469 10.980469 L 10.25 9.925781 L 10.625 9.824219 L 9.992188 7.160156 L 9.613281 7.265625 L 9.238281 7.371094 L 8.917969 6.042969 C 8.742188 5.304688 7.929688 4.898438 7.09375 5.132812 Z M 7.171875 5.464844 C 7.800781 5.289062 8.425781 5.667969 8.582031 6.3125 L 8.859375 7.476562 L 6.597656 8.109375 L 6.320312 6.945312 C 6.164062 6.300781 6.546875 5.640625 7.171875 5.464844 Z M 7.171875 5.464844 "/>
</g>
</svg>
