
<svg xmlns="http://www.w3.org/2000/svg" xmlns:xlink="http://www.w3.org/1999/xlink" width="16px" height="16px" viewBox="0 0 16 16" version="1.1">
<g id="surface1">
<path style=" stroke:none;fill-rule:nonzero;fill:rgb(88.627451%,17.254902%,14.901961%);fill-opacity:1;" d="M 0.234375 9.664062 C 1.472656 17.90625 13.808594 18.152344 15.671875 10.140625 C 17.59375 3.652344 10.644531 -1.648438 5.445312 0.476562 C 1.964844 1.480469 -0.84375 5.589844 0.234375 9.664062 Z M 0.234375 9.664062 "/>
<path style=" stroke:none;fill-rule:nonzero;fill:rgb(82.352941%,13.333333%,13.333333%);fill-opacity:1;" d="M 8.761719 9.707031 L 7.578125 9.707031 L 7.578125 8.589844 L 8.761719 8.589844 Z M 8.761719 9.707031 "/>
<path style=" stroke:none;fill-rule:nonzero;fill:rgb(82.352941%,13.333333%,13.333333%);fill-opacity:1;" d="M 6.96875 8.59375 L 8.140625 6.476562 L 9.371094 8.59375 Z M 6.96875 8.59375 "/>
<path style=" stroke:none;fill-rule:nonzero;fill:rgb(58.823529%,9.411765%,9.019608%);fill-opacity:1;" d="M 6.96875 8.59375 L 8.140625 6.476562 L 8.28125 6.71875 Z M 6.96875 8.59375 "/>
<path style=" stroke:none;fill-rule:nonzero;fill:rgb(100%,100%,100%);fill-opacity:1;" d="M 12.191406 5.914062 C 12.023438 5.199219 11.703125 4.921875 11.117188 4.820312 C 10.777344 4.769531 9.152344 4.703125 7.863281 4.703125 L 7.867188 4.703125 C 6.578125 4.703125 4.953125 4.769531 4.613281 4.820312 C 4.027344 4.921875 3.707031 5.199219 3.535156 5.914062 C 3.480469 6.152344 3.398438 7.472656 3.398438 7.976562 L 3.398438 8.085938 C 3.398438 8.589844 3.480469 9.910156 3.535156 10.148438 C 3.707031 10.863281 4.027344 11.140625 4.613281 11.242188 C 4.953125 11.292969 6.578125 11.359375 7.867188 11.359375 L 7.863281 11.359375 C 9.152344 11.359375 10.777344 11.292969 11.117188 11.242188 C 11.703125 11.140625 12.023438 10.863281 12.191406 10.148438 C 12.25 9.910156 12.328125 8.589844 12.328125 8.085938 L 12.328125 7.976562 C 12.328125 7.472656 12.25 6.152344 12.191406 5.914062 "/>
<path style=" stroke:none;fill-rule:nonzero;fill:rgb(58.823529%,9.411765%,9.019608%);fill-opacity:1;" d="M 6.3125 9.480469 L 7.828125 6.746094 L 9.414062 9.480469 Z M 6.3125 9.480469 "/>
<path style=" stroke:none;fill-rule:nonzero;fill:rgb(82.352941%,13.333333%,13.333333%);fill-opacity:1;" d="M 6.3125 9.480469 L 7.828125 7.34375 L 9.414062 9.480469 Z M 6.3125 9.480469 "/>
</g>
</svg>
