
<svg xmlns="http://www.w3.org/2000/svg" xmlns:xlink="http://www.w3.org/1999/xlink" width="16px" height="16px" viewBox="0 0 16 16" version="1.1">
<g id="surface1">
<path style=" stroke:none;fill-rule:nonzero;fill:rgb(57.254902%,59.607843%,0%);fill-opacity:1;" d="M 14.324219 12.265625 C 20.035156 4.082031 9.484375 -4.210938 2.75 2.457031 C -3.589844 8.742188 2.289062 18.5 10.183594 15.449219 C 11.828125 14.8125 13.273438 13.769531 14.324219 12.265625 Z M 14.324219 12.265625 "/>
<path style=" stroke:none;fill-rule:nonzero;fill:rgb(100%,100%,0%);fill-opacity:1;" d="M 7.238281 10.582031 L 7.238281 11.421875 L 6.308594 11.421875 C 6.140625 11.421875 6.003906 11.558594 6.003906 11.726562 C 6.003906 11.898438 6.140625 12.035156 6.308594 12.035156 L 9.710938 12.035156 C 9.878906 12.035156 10.015625 11.898438 10.015625 11.726562 C 10.015625 11.558594 9.878906 11.421875 9.710938 11.421875 L 8.78125 11.421875 L 8.78125 10.582031 Z M 7.238281 10.582031 "/>
<path style=" stroke:none;fill-rule:nonzero;fill:rgb(100%,100%,0%);fill-opacity:1;" d="M 4.058594 5.660156 C 3.914062 5.660156 3.796875 5.777344 3.796875 5.921875 L 3.796875 10.640625 C 3.796875 10.785156 3.914062 10.898438 4.058594 10.898438 L 11.960938 10.898438 C 12.105469 10.898438 12.222656 10.785156 12.222656 10.640625 L 12.222656 5.921875 C 12.222656 5.777344 12.105469 5.660156 11.960938 5.660156 Z M 4.5625 6.347656 L 11.457031 6.347656 L 11.457031 10.210938 L 4.5625 10.210938 Z M 4.5625 6.347656 "/>
<path style=" stroke:none;fill-rule:nonzero;fill:rgb(100%,100%,0%);fill-opacity:1;" d="M 9.0625 5.199219 C 9.066406 5.375 8.84375 5.539062 8.476562 5.628906 C 8.109375 5.71875 7.65625 5.71875 7.289062 5.628906 C 6.921875 5.539062 6.699219 5.375 6.703125 5.199219 C 6.699219 5.023438 6.921875 4.859375 7.289062 4.773438 C 7.65625 4.683594 8.109375 4.683594 8.476562 4.773438 C 8.84375 4.859375 9.066406 5.023438 9.0625 5.199219 Z M 9.0625 5.199219 "/>
<path style=" stroke:none;fill-rule:nonzero;fill:rgb(100%,100%,0%);fill-opacity:1;" d="M 5.613281 2.675781 L 5.785156 2.542969 L 7.535156 4.796875 L 7.363281 4.929688 Z M 5.613281 2.675781 "/>
<path style=" stroke:none;fill-rule:nonzero;fill:rgb(100%,100%,0%);fill-opacity:1;" d="M 10.246094 2.675781 L 10.074219 2.542969 L 8.324219 4.796875 L 8.496094 4.929688 Z M 10.246094 2.675781 "/>
</g>
</svg>
