
<svg xmlns="http://www.w3.org/2000/svg" xmlns:xlink="http://www.w3.org/1999/xlink" width="16px" height="16px" viewBox="0 0 16 16" version="1.1">
<g id="surface1">
<path style=" stroke:none;fill-rule:nonzero;fill:rgb(27.45098%,50.980392%,70.588235%);fill-opacity:1;" d="M 14.472656 12.320312 C 23.175781 -3.582031 -8.625 -4.332031 2.320312 12.0625 C 5.210938 16.28125 10.992188 18.148438 14.472656 12.320312 Z M 14.472656 12.320312 "/>
<path style=" stroke:none;fill-rule:evenodd;fill:rgb(100%,98.039216%,98.039216%);fill-opacity:1;" d="M 8.8125 12.03125 C 8.8125 12.03125 7.753906 11.089844 7.726562 9.976562 C 7.175781 10.25 6.765625 10.851562 7.171875 11.511719 C 7.578125 12.175781 8.140625 12.179688 8.8125 12.03125 Z M 6.476562 6.046875 C 6.476562 6.046875 5.878906 4.90625 6.367188 3.78125 C 5.738281 3.871094 5.113281 4.296875 5.1875 5.019531 C 5.257812 5.738281 5.546875 6.023438 6.476562 6.046875 Z M 7.097656 6.027344 C 7.097656 6.027344 6.539062 5.339844 6.988281 3.65625 C 8.183594 3.710938 8.605469 3.835938 9.441406 4.804688 C 10.277344 5.773438 11.140625 9.261719 10.871094 10.347656 C 10.605469 11.429688 9.570312 11.753906 9.570312 11.753906 C 8.421875 11.253906 8.398438 9.808594 8.398438 9.808594 C 8.398438 9.808594 9.476562 9.566406 8.726562 7.4375 C 7.96875 5.292969 7.097656 6.027344 7.097656 6.027344 Z M 7.097656 6.027344 "/>
</g>
</svg>
