
<svg xmlns="http://www.w3.org/2000/svg" xmlns:xlink="http://www.w3.org/1999/xlink" width="48px" height="48px" viewBox="0 0 48 48" version="1.1">
<g id="surface1">
<path style=" stroke:none;fill-rule:nonzero;fill:rgb(100%,49.803922%,31.372549%);fill-opacity:1;" d="M 1.554688 30.59375 C -7.40625 5.582031 24.800781 -6.582031 36.898438 3.601562 C 49 13.785156 53.132812 31.238281 39.429688 40.019531 C 25.722656 48.800781 10.515625 55.609375 1.554688 30.59375 Z M 1.554688 30.59375 "/>
<path style=" stroke:none;fill-rule:nonzero;fill:rgb(100%,100%,100%);fill-opacity:1;" d="M 19.707031 19.183594 C 20.179688 19.390625 22.566406 18.960938 22.8125 19.152344 C 23.058594 19.347656 22.210938 20.085938 22.6875 20.410156 C 23.816406 21.183594 26.808594 21.410156 29.496094 20.503906 L 30.511719 23.066406 C 29.035156 23.8125 26.828125 24.246094 24 24 L 31.425781 30.859375 L 28.675781 33.128906 L 22.964844 27.625 C 20.652344 31.339844 17.628906 32.792969 15.253906 34.125 L 13.257812 31.234375 C 22.683594 25.773438 17.457031 23.328125 19.746094 20.207031 C 19.925781 19.960938 19.394531 19.425781 19.707031 19.183594 Z M 19.707031 19.183594 "/>
<path style=" stroke:none;fill-rule:nonzero;fill:rgb(100%,100%,100%);fill-opacity:1;" d="M 26.046875 15.699219 C 26.046875 17.980469 24.035156 19.828125 21.550781 19.828125 C 19.0625 19.828125 17.050781 17.980469 17.050781 15.699219 C 17.050781 13.421875 19.0625 11.574219 21.550781 11.574219 C 24.035156 11.574219 26.046875 13.421875 26.046875 15.699219 Z M 26.046875 15.699219 "/>
</g>
</svg>
