
<svg xmlns="http://www.w3.org/2000/svg" xmlns:xlink="http://www.w3.org/1999/xlink" width="48px" height="48px" viewBox="0 0 48 48" version="1.1">
<g id="surface1">
<path style=" stroke:none;fill-rule:nonzero;fill:rgb(100%,100%,100%);fill-opacity:1;" d="M 11.488281 11.03125 L 35.527344 11.03125 C 36.796875 11.03125 37.820312 11.507812 37.820312 12.101562 L 37.820312 38.019531 C 37.820312 38.609375 36.796875 39.089844 35.527344 39.089844 L 11.488281 39.089844 C 10.222656 39.089844 9.195312 38.609375 9.195312 38.019531 L 9.195312 12.101562 C 9.195312 11.507812 10.222656 11.03125 11.488281 11.03125 Z M 11.488281 11.03125 "/>
<path style=" stroke:none;fill-rule:nonzero;fill:rgb(72.941176%,0%,100%);fill-opacity:1;" d="M 23.011719 47.726562 C 11.894531 45.769531 1.820312 36.1875 0.1875 26.019531 C -0.195312 23.652344 0.03125 19.527344 0.652344 17.4375 C 2.527344 11.136719 6.875 5.769531 12.429688 2.902344 C 17.941406 0.0546875 23.546875 -0.195312 29.488281 2.144531 C 36.578125 4.933594 43.117188 11.761719 45.851562 19.238281 C 46.960938 22.273438 47.414062 24.710938 47.417969 27.667969 C 47.425781 30.519531 47.214844 31.96875 46.472656 34.199219 C 44.15625 41.160156 37.972656 46.476562 30.707031 47.75 C 28.746094 48.09375 25.03125 48.082031 23.011719 47.726562 Z M 22.160156 28.152344 C 22.160156 21.835938 22.117188 20.578125 21.882812 20.269531 C 21.679688 19.996094 21.601562 19.34375 21.597656 17.789062 L 21.59375 15.679688 L 20.691406 15.101562 C 18.390625 13.625 16.070312 12.921875 13.449219 12.902344 L 11.648438 12.894531 L 11.59375 15.066406 C 11.566406 16.265625 11.460938 17.324219 11.359375 17.425781 C 11.246094 17.539062 11.175781 20.613281 11.175781 25.308594 L 11.175781 33.007812 L 13.304688 33.125 C 15.824219 33.261719 17.019531 33.582031 18.941406 34.625 C 21.6875 36.121094 21.640625 36.101562 21.910156 35.878906 C 22.109375 35.710938 22.160156 34.171875 22.160156 28.152344 Z M 24.011719 28.171875 L 24.058594 20.535156 L 23.632812 20.597656 L 23.203125 20.660156 L 23.148438 27.855469 C 23.121094 31.8125 23.144531 35.25 23.203125 35.492188 C 23.273438 35.777344 23.425781 35.910156 23.636719 35.867188 C 23.933594 35.808594 23.964844 35.207031 24.011719 28.171875 Z M 36.140625 34.34375 L 36.082031 33.539062 L 30.730469 33.488281 L 25.382812 33.4375 L 25.382812 35.148438 L 36.199219 35.148438 Z M 36.175781 31.929688 L 36.175781 31.171875 L 25.382812 31.171875 L 25.382812 32.683594 L 36.175781 32.683594 Z M 31.441406 29.464844 L 31.441406 28.707031 L 25.382812 28.707031 L 25.382812 30.222656 L 31.441406 30.222656 Z M 31.441406 27.191406 L 31.441406 26.433594 L 25.382812 26.433594 L 25.382812 27.949219 L 31.441406 27.949219 Z M 31.441406 24.730469 L 31.441406 23.972656 L 25.382812 23.972656 L 25.382812 25.488281 L 31.441406 25.488281 Z M 36.175781 22.457031 L 36.175781 21.699219 L 25.382812 21.699219 L 25.382812 23.214844 L 36.175781 23.214844 Z M 36.175781 22.457031 "/>
<path style=" stroke:none;fill-rule:nonzero;fill:rgb(60.392157%,80.392157%,19.607843%);fill-opacity:1;" d="M 21.128906 16.898438 C 20.878906 16.492188 18.035156 15.230469 16.503906 14.84375 C 15.546875 14.601562 14.308594 14.441406 13.414062 14.441406 C 11.972656 14.441406 11.921875 14.425781 11.980469 14.015625 C 12.039062 13.609375 12.121094 13.589844 13.652344 13.601562 C 15.488281 13.617188 17.175781 14.011719 18.957031 14.835938 C 20.628906 15.613281 21.605469 16.316406 21.605469 16.742188 C 21.605469 17.121094 21.324219 17.214844 21.128906 16.898438 Z M 21.128906 16.898438 "/>
<path style=" stroke:none;fill-rule:nonzero;fill:rgb(60.392157%,80.392157%,19.607843%);fill-opacity:1;" d="M 20.46875 18.671875 C 18.609375 17.546875 15.539062 16.714844 13.25 16.714844 L 11.921875 16.714844 L 11.980469 16.195312 L 12.042969 15.671875 L 13.652344 15.6875 C 15.617188 15.703125 17.246094 16.109375 19.238281 17.085938 C 21.125 18.007812 21.660156 18.429688 21.578125 18.921875 C 21.515625 19.277344 21.449219 19.261719 20.46875 18.671875 Z M 20.46875 18.671875 "/>
<path style=" stroke:none;fill-rule:nonzero;fill:rgb(100%,100%,100%);fill-opacity:1;" d="M 19.398438 34.78125 C 17.066406 33.550781 15.882812 33.21875 13.226562 33.0625 L 11.191406 32.945312 L 11.199219 29.042969 C 11.210938 25.1875 11.460938 17.792969 11.6875 14.582031 L 11.804688 12.925781 L 12.492188 12.929688 C 13.90625 12.929688 16.289062 13.296875 17.460938 13.6875 C 18.925781 14.179688 21.417969 15.5625 21.417969 15.886719 C 21.417969 16.019531 20.964844 15.847656 20.339844 15.46875 C 18.230469 14.199219 15.460938 13.4375 13.292969 13.535156 C 12.1875 13.582031 12.035156 13.636719 11.984375 13.988281 C 11.933594 14.359375 12.058594 14.398438 14.007812 14.59375 C 16.199219 14.816406 17.742188 15.25 19.617188 16.160156 C 21.132812 16.898438 21.34375 17.082031 21.503906 17.820312 L 21.644531 18.449219 L 20.859375 17.878906 C 19.070312 16.582031 15.8125 15.585938 13.34375 15.582031 C 11.996094 15.578125 11.988281 15.582031 11.910156 16.121094 L 11.832031 16.664062 L 13.832031 16.875 C 16.386719 17.140625 17.6875 17.488281 19.824219 18.476562 L 21.546875 19.269531 L 21.773438 20.3125 C 21.933594 21.046875 21.984375 23.472656 21.945312 28.550781 C 21.898438 34.78125 21.851562 35.746094 21.605469 35.769531 C 21.449219 35.785156 20.457031 35.339844 19.398438 34.78125 Z M 19.398438 34.78125 "/>
<path style=" stroke:none;fill-rule:nonzero;fill:rgb(100%,100%,100%);fill-opacity:1;" d="M 23.453125 35.734375 C 23.375 35.65625 23.3125 32.238281 23.3125 28.140625 C 23.3125 21.644531 23.347656 20.691406 23.59375 20.691406 C 23.84375 20.691406 23.875 21.59375 23.855469 27.746094 C 23.835938 34.539062 23.757812 36.042969 23.453125 35.734375 Z M 23.453125 35.734375 "/>
<path style=" stroke:none;fill-rule:nonzero;fill:rgb(100%,100%,100%);fill-opacity:1;" d="M 25.394531 22.492188 L 25.394531 21.828125 L 36 21.828125 L 36 23.152344 L 25.394531 23.152344 Z M 25.394531 22.492188 "/>
<path style=" stroke:none;fill-rule:nonzero;fill:rgb(100%,100%,100%);fill-opacity:1;" d="M 25.394531 24.765625 L 25.394531 24.101562 L 31.265625 24.101562 L 31.265625 25.425781 L 25.394531 25.425781 Z M 25.394531 24.765625 "/>
<path style=" stroke:none;fill-rule:nonzero;fill:rgb(100%,100%,100%);fill-opacity:1;" d="M 25.394531 27.226562 L 25.394531 26.5625 L 31.265625 26.5625 L 31.265625 27.890625 L 25.394531 27.890625 Z M 25.394531 27.226562 "/>
<path style=" stroke:none;fill-rule:nonzero;fill:rgb(100%,100%,100%);fill-opacity:1;" d="M 25.394531 29.5 L 25.394531 28.835938 L 31.265625 28.835938 L 31.265625 30.164062 L 25.394531 30.164062 Z M 25.394531 29.5 "/>
<path style=" stroke:none;fill-rule:nonzero;fill:rgb(100%,100%,100%);fill-opacity:1;" d="M 25.429688 34.246094 L 25.429688 33.488281 L 36.035156 33.488281 L 36.035156 35.003906 L 25.429688 35.003906 Z M 25.429688 34.246094 "/>
<path style=" stroke:none;fill-rule:nonzero;fill:rgb(100%,100%,100%);fill-opacity:1;" d="M 25.429688 31.929688 L 25.429688 31.171875 L 36.035156 31.171875 L 36.035156 32.683594 L 25.429688 32.683594 Z M 25.429688 31.929688 "/>
<path style=" stroke:none;fill-rule:nonzero;fill:rgb(72.941176%,0%,100%);fill-opacity:1;" d="M 11.914062 15.617188 C 11.910156 15.945312 11.804688 16.316406 11.859375 16.632812 C 12.425781 16.9375 13.15625 16.761719 13.773438 16.867188 C 16.316406 17.027344 18.824219 17.777344 21 19.113281 C 21.234375 19.339844 21.679688 19.304688 21.65625 18.914062 C 21.671875 18.113281 20.730469 17.808594 20.175781 17.453125 C 17.992188 16.222656 15.511719 15.46875 12.988281 15.5625 C 12.636719 15.597656 12.242188 15.484375 11.914062 15.617188 Z M 11.914062 15.617188 "/>
<path style=" stroke:none;fill-rule:nonzero;fill:rgb(72.941176%,0%,100%);fill-opacity:1;" d="M 12.734375 13.492188 C 12.3125 13.433594 11.71875 13.699219 11.90625 14.210938 C 12.203125 14.722656 12.957031 14.449219 13.433594 14.546875 C 15.382812 14.613281 17.304688 15.097656 19.082031 15.910156 C 19.84375 16.234375 20.605469 16.59375 21.230469 17.144531 C 21.734375 17.347656 21.859375 16.546875 21.503906 16.304688 C 20.4375 15.277344 19 14.75 17.65625 14.191406 C 16.089844 13.601562 14.394531 13.484375 12.734375 13.492188 Z M 12.734375 13.492188 "/>
</g>
</svg>
