
<svg xmlns="http://www.w3.org/2000/svg" xmlns:xlink="http://www.w3.org/1999/xlink" width="48px" height="48px" viewBox="0 0 48 48" version="1.1">
<g id="surface1">
<path style=" stroke:none;fill-rule:nonzero;fill:rgb(0%,43.921569%,100%);fill-opacity:1;" d="M 42.417969 8.761719 C 54.09375 26.714844 44.671875 43.074219 31.453125 46.953125 C 13.671875 52.171875 -10.46875 38.453125 5.4375 10.183594 C 11.761719 -1.050781 34.097656 -4.027344 42.414062 8.761719 Z M 42.417969 8.761719 "/>
<path style=" stroke:none;fill-rule:nonzero;fill:rgb(58.039216%,58.039216%,65.098039%);fill-opacity:1;" d="M 16.171875 37.902344 C 16.242188 37.875 16.355469 37.875 16.425781 37.902344 C 16.496094 37.933594 16.4375 37.957031 16.296875 37.957031 C 16.160156 37.957031 16.101562 37.933594 16.171875 37.902344 Z M 30.570312 37.902344 C 30.640625 37.875 30.757812 37.875 30.828125 37.902344 C 30.898438 37.933594 30.839844 37.957031 30.699219 37.957031 C 30.558594 37.957031 30.5 37.933594 30.570312 37.902344 Z M 17.289062 37.316406 C 17.210938 37.1875 17.007812 36.84375 16.839844 36.554688 C 16.667969 36.269531 15.828125 34.78125 14.972656 33.253906 C 14.117188 31.722656 13.175781 30.046875 12.878906 29.527344 C 11.445312 27.023438 9.542969 23.53125 9.53125 23.390625 C 9.523438 23.265625 10.367188 21.683594 11.804688 19.144531 C 11.902344 18.972656 12.605469 17.71875 13.367188 16.363281 C 14.128906 15.007812 14.925781 13.617188 15.140625 13.269531 L 15.53125 12.640625 L 23.386719 12.613281 C 29.316406 12.59375 31.273438 12.617188 31.382812 12.710938 C 31.570312 12.871094 33.203125 15.730469 36.597656 21.847656 L 37.457031 23.398438 L 35.335938 27.199219 C 34.171875 29.289062 33.066406 31.257812 32.882812 31.574219 C 32.699219 31.890625 32.445312 32.339844 32.324219 32.570312 C 31.929688 33.3125 29.660156 37.285156 29.550781 37.421875 C 29.472656 37.523438 28.125 37.554688 23.4375 37.554688 L 17.425781 37.554688 Z M 29.789062 36.84375 C 29.972656 36.511719 30.429688 35.699219 30.804688 35.035156 C 32.910156 31.320312 34.070312 29.265625 34.300781 28.847656 C 34.441406 28.585938 35.097656 27.40625 35.761719 26.222656 C 36.425781 25.042969 37.050781 23.914062 37.152344 23.714844 L 37.332031 23.355469 L 37.011719 22.769531 C 36.835938 22.449219 36.660156 22.140625 36.617188 22.082031 C 36.578125 22.023438 36.453125 21.8125 36.339844 21.609375 C 35.984375 20.960938 35.429688 19.980469 34.484375 18.304688 C 34.1875 17.785156 33.394531 16.371094 32.722656 15.15625 C 32.046875 13.945312 31.421875 12.894531 31.332031 12.824219 C 31.097656 12.632812 15.800781 12.632812 15.5625 12.824219 C 15.472656 12.894531 14.859375 13.921875 14.195312 15.105469 C 13.535156 16.289062 12.242188 18.59375 11.328125 20.234375 C 10.410156 21.871094 9.660156 23.28125 9.660156 23.371094 C 9.660156 23.457031 9.863281 23.886719 10.109375 24.324219 C 10.355469 24.765625 10.683594 25.359375 10.839844 25.648438 C 11.292969 26.484375 14.039062 31.390625 15.277344 33.566406 C 15.683594 34.289062 16.296875 35.375 16.632812 35.980469 C 16.96875 36.585938 17.316406 37.164062 17.402344 37.265625 C 17.546875 37.433594 17.964844 37.449219 23.507812 37.449219 L 29.457031 37.449219 Z M 17.480469 28.753906 C 17.449219 28.699219 17.5 28.628906 17.589844 28.59375 C 17.789062 28.515625 17.878906 28.578125 17.785156 28.734375 C 17.703125 28.871094 17.554688 28.878906 17.480469 28.753906 Z M 21.507812 25.691406 C 21.507812 25.515625 21.710938 25.175781 21.8125 25.175781 C 21.867188 25.175781 21.960938 25.277344 22.023438 25.398438 C 22.117188 25.574219 22.109375 25.640625 22.003906 25.710938 C 21.808594 25.835938 21.507812 25.828125 21.507812 25.691406 Z M 24.886719 25.707031 C 24.761719 25.628906 24.769531 25.570312 24.921875 25.328125 L 25.101562 25.046875 L 25.296875 25.347656 C 25.402344 25.511719 25.488281 25.683594 25.488281 25.726562 C 25.492188 25.835938 25.0625 25.820312 24.886719 25.707031 Z M 23.191406 22.566406 C 23.292969 22.144531 23.4375 22.046875 23.609375 22.285156 C 23.851562 22.621094 23.789062 22.8125 23.441406 22.828125 C 23.152344 22.835938 23.132812 22.816406 23.191406 22.566406 Z M 16.0625 22.066406 C 15.921875 21.921875 15.996094 21.699219 16.171875 21.734375 C 16.269531 21.753906 16.351562 21.835938 16.351562 21.917969 C 16.351562 22.082031 16.167969 22.175781 16.0625 22.066406 Z M 16.0625 22.066406 "/>
<path style=" stroke:none;fill-rule:nonzero;fill:rgb(36.078431%,35.686275%,88.627451%);fill-opacity:1;" d="M 22.375 25.734375 C 22.261719 25.710938 22.089844 25.550781 21.992188 25.375 C 21.820312 25.066406 21.824219 25.046875 22.113281 24.460938 C 22.277344 24.132812 22.566406 23.628906 22.75 23.339844 C 23.054688 22.871094 23.132812 22.8125 23.472656 22.800781 C 23.835938 22.789062 23.875 22.820312 24.203125 23.378906 C 24.394531 23.703125 24.671875 24.210938 24.820312 24.503906 C 25.082031 25.03125 25.085938 25.046875 24.910156 25.363281 C 24.796875 25.5625 24.621094 25.707031 24.433594 25.742188 C 24.113281 25.808594 22.710938 25.804688 22.375 25.734375 Z M 22.375 25.734375 "/>
<path style=" stroke:none;fill-rule:nonzero;fill:rgb(43.137255%,43.137255%,56.470588%);fill-opacity:1;" d="M 14.308594 31.886719 C 14.21875 31.714844 14.171875 31.574219 14.199219 31.574219 C 14.226562 31.574219 14.320312 31.714844 14.410156 31.886719 C 14.496094 32.0625 14.542969 32.203125 14.515625 32.203125 C 14.488281 32.203125 14.394531 32.0625 14.308594 31.886719 Z M 17.363281 28.835938 C 17.320312 28.761719 17.367188 28.652344 17.476562 28.570312 C 17.765625 28.351562 17.953125 28.390625 17.914062 28.664062 C 17.878906 28.925781 17.492188 29.046875 17.363281 28.835938 Z M 17.785156 28.734375 C 17.878906 28.578125 17.789062 28.515625 17.589844 28.59375 C 17.5 28.628906 17.449219 28.699219 17.480469 28.753906 C 17.554688 28.878906 17.703125 28.871094 17.785156 28.734375 Z M 34.230469 28.816406 C 34.269531 28.710938 34.324219 28.652344 34.355469 28.6875 C 34.386719 28.71875 34.355469 28.804688 34.285156 28.875 C 34.1875 28.976562 34.175781 28.964844 34.230469 28.816406 Z M 11.191406 26.328125 C 11.132812 26.214844 11.105469 26.121094 11.132812 26.121094 C 11.160156 26.121094 11.234375 26.214844 11.292969 26.328125 C 11.355469 26.445312 11.378906 26.539062 11.351562 26.539062 C 11.324219 26.539062 11.253906 26.445312 11.191406 26.328125 Z M 21.414062 25.71875 C 21.40625 25.570312 21.898438 24.652344 21.988281 24.652344 C 22.015625 24.652344 21.925781 24.851562 21.785156 25.097656 C 21.648438 25.34375 21.511719 25.613281 21.480469 25.699219 C 21.4375 25.808594 21.417969 25.816406 21.414062 25.71875 Z M 22.042969 25.734375 C 22.140625 25.707031 22.304688 25.707031 22.402344 25.734375 C 22.5 25.757812 22.417969 25.78125 22.222656 25.78125 C 22.027344 25.78125 21.945312 25.757812 22.042969 25.734375 Z M 24.496094 25.734375 C 24.59375 25.707031 24.753906 25.707031 24.851562 25.734375 C 24.949219 25.757812 24.871094 25.78125 24.671875 25.78125 C 24.476562 25.78125 24.398438 25.757812 24.496094 25.734375 Z M 25.285156 25.351562 C 24.910156 24.707031 24.914062 24.628906 25.292969 25.203125 C 25.472656 25.480469 25.601562 25.726562 25.578125 25.75 C 25.558594 25.773438 25.425781 25.59375 25.285156 25.351562 Z M 22.910156 22.875 C 23.066406 22.59375 23.210938 22.378906 23.230469 22.398438 C 23.273438 22.445312 22.746094 23.390625 22.675781 23.390625 C 22.652344 23.390625 22.757812 23.160156 22.910156 22.875 Z M 23.910156 22.910156 C 23.816406 22.761719 23.753906 22.621094 23.777344 22.597656 C 23.796875 22.578125 23.898438 22.699219 23.996094 22.871094 C 24.214844 23.253906 24.148438 23.285156 23.910156 22.910156 Z M 36.621094 22.238281 C 36.5625 22.121094 36.535156 22.027344 36.566406 22.027344 C 36.59375 22.027344 36.664062 22.121094 36.726562 22.238281 C 36.785156 22.355469 36.8125 22.449219 36.785156 22.449219 C 36.753906 22.449219 36.683594 22.355469 36.621094 22.238281 Z M 15.953125 22.074219 C 15.832031 21.75 15.886719 21.609375 16.132812 21.609375 C 16.417969 21.609375 16.5625 21.882812 16.390625 22.09375 C 16.234375 22.285156 16.027344 22.277344 15.953125 22.074219 Z M 16.351562 21.917969 C 16.351562 21.835938 16.269531 21.753906 16.171875 21.734375 C 15.996094 21.699219 15.921875 21.921875 16.0625 22.066406 C 16.167969 22.175781 16.351562 22.082031 16.351562 21.917969 Z M 23.347656 22.089844 C 23.414062 22.023438 23.484375 22.023438 23.546875 22.089844 C 23.613281 22.15625 23.582031 22.195312 23.449219 22.195312 C 23.316406 22.195312 23.28125 22.15625 23.347656 22.089844 Z M 36.171875 21.429688 C 36.113281 21.28125 36.125 21.269531 36.226562 21.371094 C 36.296875 21.441406 36.328125 21.527344 36.296875 21.558594 C 36.265625 21.589844 36.207031 21.535156 36.171875 21.429688 Z M 18.726562 15.050781 C 18.792969 14.695312 18.957031 14.613281 19.121094 14.847656 C 19.34375 15.15625 19.289062 15.316406 18.96875 15.316406 C 18.710938 15.316406 18.683594 15.285156 18.726562 15.050781 Z M 19.542969 12.71875 C 21.691406 12.703125 25.207031 12.703125 27.355469 12.71875 C 29.503906 12.734375 27.746094 12.746094 23.449219 12.746094 C 19.152344 12.746094 17.394531 12.734375 19.542969 12.71875 Z M 19.542969 12.71875 "/>
<path style=" stroke:none;fill-rule:nonzero;fill:rgb(32.54902%,32.941176%,37.647059%);fill-opacity:1;" d="M 17.546875 37.378906 C 17.476562 37.347656 17.347656 37.175781 17.261719 36.992188 C 17.125 36.699219 17.125 36.6875 17.261719 36.871094 C 17.34375 36.988281 17.464844 37.140625 17.523438 37.210938 C 17.609375 37.3125 18.933594 37.34375 23.496094 37.34375 L 29.355469 37.34375 L 29.679688 36.765625 C 29.855469 36.449219 30.019531 36.1875 30.046875 36.1875 C 30.109375 36.1875 29.796875 36.808594 29.554688 37.160156 L 29.359375 37.449219 L 23.519531 37.441406 C 20.304688 37.433594 17.617188 37.40625 17.546875 37.378906 Z M 16.808594 36.1875 C 16.695312 35.957031 16.625 35.769531 16.652344 35.769531 C 16.679688 35.769531 16.796875 35.957031 16.910156 36.1875 C 17.027344 36.421875 17.097656 36.609375 17.070312 36.609375 C 17.039062 36.609375 16.925781 36.421875 16.808594 36.1875 Z M 30.238281 35.769531 C 30.328125 35.597656 30.421875 35.453125 30.449219 35.453125 C 30.476562 35.453125 30.429688 35.597656 30.34375 35.769531 C 30.253906 35.941406 30.160156 36.085938 30.132812 36.085938 C 30.105469 36.085938 30.152344 35.941406 30.238281 35.769531 Z M 16.402344 35.453125 C 16.339844 35.339844 16.316406 35.246094 16.34375 35.246094 C 16.371094 35.246094 16.441406 35.339844 16.503906 35.453125 C 16.5625 35.570312 16.589844 35.664062 16.5625 35.664062 C 16.53125 35.664062 16.460938 35.570312 16.402344 35.453125 Z M 30.746094 34.878906 C 30.90625 34.589844 31.082031 34.304688 31.136719 34.25 C 31.195312 34.191406 31.113281 34.378906 30.957031 34.667969 C 30.800781 34.957031 30.625 35.238281 30.566406 35.296875 C 30.507812 35.355469 30.589844 35.167969 30.746094 34.878906 Z M 16.09375 34.929688 C 16.035156 34.816406 16.007812 34.722656 16.035156 34.722656 C 16.0625 34.722656 16.136719 34.816406 16.195312 34.929688 C 16.257812 35.046875 16.28125 35.140625 16.253906 35.140625 C 16.226562 35.140625 16.15625 35.046875 16.09375 34.929688 Z M 15.6875 34.195312 C 15.570312 33.964844 15.5 33.777344 15.527344 33.777344 C 15.558594 33.777344 15.671875 33.964844 15.789062 34.195312 C 15.902344 34.425781 15.972656 34.617188 15.945312 34.617188 C 15.917969 34.617188 15.800781 34.425781 15.6875 34.195312 Z M 31.363281 33.777344 C 31.449219 33.605469 31.542969 33.460938 31.574219 33.460938 C 31.601562 33.460938 31.550781 33.605469 31.464844 33.777344 C 31.378906 33.949219 31.285156 34.089844 31.253906 34.089844 C 31.226562 34.089844 31.277344 33.949219 31.363281 33.777344 Z M 15.253906 33.4375 C 15.035156 33.089844 14.726562 32.449219 14.839844 32.570312 C 14.972656 32.714844 15.5 33.671875 15.445312 33.671875 C 15.421875 33.671875 15.335938 33.566406 15.253906 33.4375 Z M 31.9375 32.734375 C 32.121094 32.394531 32.359375 32.003906 32.46875 31.871094 L 32.664062 31.625 L 32.511719 31.886719 C 32.429688 32.03125 32.214844 32.421875 32.03125 32.753906 C 31.851562 33.085938 31.679688 33.355469 31.652344 33.355469 C 31.625 33.355469 31.753906 33.078125 31.9375 32.734375 Z M 13.867188 30.972656 C 13.644531 30.582031 13.136719 29.683594 12.738281 28.972656 C 11.945312 27.566406 11.625 26.953125 11.777344 27.117188 C 11.828125 27.171875 12.34375 28.070312 12.921875 29.109375 C 13.5 30.148438 14.0625 31.152344 14.175781 31.339844 C 14.285156 31.527344 14.351562 31.679688 14.320312 31.679688 C 14.289062 31.679688 14.085938 31.359375 13.867188 30.972656 Z M 32.792969 31.257812 C 32.878906 31.085938 32.972656 30.945312 33.003906 30.945312 C 33.03125 30.945312 32.980469 31.085938 32.894531 31.257812 C 32.808594 31.433594 32.714844 31.574219 32.6875 31.574219 C 32.65625 31.574219 32.707031 31.433594 32.792969 31.257812 Z M 33.300781 30.367188 C 33.457031 30.078125 33.632812 29.796875 33.691406 29.738281 C 33.75 29.679688 33.667969 29.871094 33.511719 30.15625 C 33.355469 30.445312 33.179688 30.730469 33.121094 30.789062 C 33.0625 30.84375 33.144531 30.65625 33.300781 30.367188 Z M 33.96875 29.160156 C 34.082031 28.929688 34.199219 28.742188 34.226562 28.742188 C 34.253906 28.742188 34.183594 28.929688 34.070312 29.160156 C 33.957031 29.390625 33.839844 29.582031 33.808594 29.582031 C 33.78125 29.582031 33.851562 29.390625 33.96875 29.160156 Z M 17.21875 29.132812 C 16.882812 28.957031 16.84375 28.613281 17.121094 28.230469 C 17.34375 27.921875 17.351562 27.921875 17.691406 28.085938 C 18.234375 28.355469 18.277344 28.910156 17.773438 29.144531 C 17.464844 29.289062 17.527344 29.292969 17.21875 29.132812 Z M 17.914062 28.664062 C 17.953125 28.390625 17.765625 28.351562 17.476562 28.570312 C 17.242188 28.746094 17.359375 28.976562 17.660156 28.929688 C 17.800781 28.910156 17.894531 28.8125 17.914062 28.664062 Z M 34.375 28.425781 C 34.4375 28.3125 34.507812 28.21875 34.535156 28.21875 C 34.566406 28.21875 34.539062 28.3125 34.476562 28.425781 C 34.417969 28.542969 34.347656 28.636719 34.316406 28.636719 C 34.289062 28.636719 34.316406 28.542969 34.375 28.425781 Z M 34.886719 27.535156 C 35.070312 27.1875 35.269531 26.859375 35.328125 26.800781 C 35.382812 26.742188 35.28125 26.980469 35.097656 27.324219 C 34.914062 27.671875 34.714844 28.003906 34.65625 28.058594 C 34.597656 28.117188 34.703125 27.882812 34.886719 27.535156 Z M 11.449219 26.644531 C 11.359375 26.472656 11.3125 26.328125 11.339844 26.328125 C 11.367188 26.328125 11.460938 26.472656 11.550781 26.644531 C 11.636719 26.816406 11.683594 26.957031 11.65625 26.957031 C 11.628906 26.957031 11.535156 26.816406 11.449219 26.644531 Z M 35.550781 26.328125 C 35.636719 26.15625 35.730469 26.015625 35.761719 26.015625 C 35.789062 26.015625 35.738281 26.15625 35.652344 26.328125 C 35.566406 26.503906 35.472656 26.644531 35.441406 26.644531 C 35.414062 26.644531 35.464844 26.503906 35.550781 26.328125 Z M 10.726562 25.359375 C 10.460938 24.882812 10.226562 24.457031 10.203125 24.414062 C 10.179688 24.371094 10.179688 24.335938 10.207031 24.335938 C 10.246094 24.335938 10.59375 24.933594 11.261719 26.144531 C 11.285156 26.1875 11.285156 26.222656 11.257812 26.222656 C 11.230469 26.222656 10.992188 25.835938 10.726562 25.359375 Z M 21.304688 25.707031 C 21.304688 25.59375 21.34375 25.476562 21.394531 25.445312 C 21.445312 25.410156 21.464844 25.480469 21.433594 25.597656 C 21.378906 25.808594 21.410156 25.8125 23.527344 25.78125 C 24.710938 25.765625 25.652344 25.789062 25.628906 25.832031 C 25.601562 25.875 24.617188 25.910156 23.441406 25.910156 C 21.394531 25.910156 21.304688 25.902344 21.304688 25.707031 Z M 36.121094 25.332031 C 36.246094 25.101562 36.394531 24.867188 36.445312 24.808594 C 36.601562 24.644531 36.25 25.308594 36.058594 25.542969 C 35.96875 25.65625 35.992188 25.5625 36.121094 25.332031 Z M 24.890625 24.503906 C 24.300781 23.480469 24.039062 22.972656 24.097656 22.972656 C 24.121094 22.972656 24.382812 23.410156 24.675781 23.941406 C 24.972656 24.476562 25.28125 25.019531 25.363281 25.148438 C 25.445312 25.277344 25.488281 25.386719 25.457031 25.386719 C 25.421875 25.386719 25.167969 24.988281 24.890625 24.503906 Z M 21.609375 25.070312 C 21.667969 24.957031 21.742188 24.859375 21.769531 24.859375 C 21.796875 24.859375 21.773438 24.957031 21.710938 25.070312 C 21.652344 25.1875 21.578125 25.28125 21.550781 25.28125 C 21.523438 25.28125 21.550781 25.1875 21.609375 25.070312 Z M 22.121094 24.179688 C 22.304688 23.832031 22.503906 23.503906 22.5625 23.445312 C 22.617188 23.386719 22.515625 23.621094 22.328125 23.96875 C 22.144531 24.316406 21.949219 24.644531 21.890625 24.703125 C 21.832031 24.761719 21.933594 24.523438 22.121094 24.179688 Z M 36.835938 24.046875 L 37.183594 23.386719 L 36.890625 22.851562 C 36.726562 22.554688 36.636719 22.339844 36.683594 22.371094 C 36.734375 22.40625 36.890625 22.648438 37.03125 22.914062 L 37.285156 23.398438 L 36.992188 23.945312 C 36.828125 24.246094 36.652344 24.539062 36.59375 24.597656 C 36.539062 24.65625 36.648438 24.40625 36.835938 24.046875 Z M 9.84375 23.757812 C 9.664062 23.378906 9.644531 23.261719 9.746094 23.15625 C 9.851562 23.050781 9.863281 23.058594 9.8125 23.199219 C 9.777344 23.292969 9.84375 23.566406 9.960938 23.800781 C 10.078125 24.039062 10.152344 24.230469 10.121094 24.230469 C 10.089844 24.230469 9.964844 24.019531 9.84375 23.757812 Z M 23.007812 22.527344 C 23.164062 22.222656 23.363281 21.976562 23.445312 21.976562 C 23.527344 21.976562 23.703125 22.175781 23.835938 22.421875 C 23.96875 22.667969 24.050781 22.867188 24.019531 22.867188 C 23.988281 22.867188 23.867188 22.679688 23.753906 22.449219 C 23.640625 22.21875 23.5 22.027344 23.449219 22.027344 C 23.394531 22.027344 23.234375 22.265625 23.089844 22.554688 C 22.949219 22.839844 22.804688 23.078125 22.777344 23.078125 C 22.746094 23.078125 22.847656 22.828125 23.007812 22.527344 Z M 10.097656 22.527344 C 10.234375 22.28125 10.523438 21.765625 10.738281 21.375 C 10.953125 20.988281 11.144531 20.6875 11.164062 20.707031 C 11.207031 20.75 9.964844 22.972656 9.898438 22.972656 C 9.867188 22.972656 9.957031 22.773438 10.097656 22.527344 Z M 11.601562 22.347656 C 11.601562 22.296875 11.648438 22.222656 11.703125 22.1875 C 11.757812 22.148438 11.804688 22.195312 11.804688 22.285156 C 11.804688 22.375 11.757812 22.449219 11.703125 22.449219 C 11.648438 22.449219 11.601562 22.402344 11.601562 22.347656 Z M 15.640625 22.109375 C 15.25 21.539062 15.636719 20.945312 16.261719 21.160156 C 16.5 21.238281 16.558594 21.328125 16.585938 21.628906 C 16.640625 22.28125 15.984375 22.613281 15.640625 22.109375 Z M 16.390625 22.09375 C 16.5625 21.882812 16.417969 21.609375 16.132812 21.609375 C 15.886719 21.609375 15.832031 21.75 15.953125 22.074219 C 16.027344 22.277344 16.234375 22.285156 16.390625 22.09375 Z M 36.367188 21.921875 C 36.28125 21.75 36.230469 21.609375 36.261719 21.609375 C 36.289062 21.609375 36.382812 21.75 36.46875 21.921875 C 36.558594 22.097656 36.605469 22.238281 36.578125 22.238281 C 36.550781 22.238281 36.453125 22.097656 36.367188 21.921875 Z M 35.914062 21.125 C 35.792969 20.914062 35.710938 20.726562 35.734375 20.707031 C 35.753906 20.683594 35.871094 20.855469 36 21.085938 C 36.285156 21.609375 36.210938 21.640625 35.914062 21.125 Z M 11.375 20.21875 C 11.484375 20.03125 11.792969 19.488281 12.054688 19.011719 C 12.320312 18.535156 12.5625 18.148438 12.589844 18.148438 C 12.617188 18.148438 12.527344 18.347656 12.390625 18.59375 C 11.464844 20.246094 11.277344 20.558594 11.230469 20.558594 C 11.199219 20.558594 11.265625 20.40625 11.375 20.21875 Z M 35.476562 20.324219 C 35.253906 19.976562 34.949219 19.335938 35.0625 19.457031 C 35.195312 19.601562 35.722656 20.558594 35.667969 20.558594 C 35.644531 20.558594 35.558594 20.453125 35.476562 20.324219 Z M 34.785156 19.089844 C 34.722656 18.976562 34.699219 18.882812 34.726562 18.882812 C 34.753906 18.882812 34.828125 18.976562 34.886719 19.089844 C 34.945312 19.207031 34.972656 19.300781 34.945312 19.300781 C 34.917969 19.300781 34.84375 19.207031 34.785156 19.089844 Z M 34.550781 18.699219 C 34.527344 18.65625 34.378906 18.382812 34.21875 18.09375 C 34.0625 17.804688 33.980469 17.617188 34.039062 17.675781 C 34.1875 17.824219 34.714844 18.777344 34.648438 18.777344 C 34.617188 18.777344 34.574219 18.742188 34.550781 18.699219 Z M 12.875 17.570312 C 13.03125 17.28125 13.207031 17 13.265625 16.941406 C 13.324219 16.882812 13.242188 17.074219 13.085938 17.359375 C 12.925781 17.648438 12.75 17.933594 12.695312 17.988281 C 12.636719 18.046875 12.71875 17.859375 12.875 17.570312 Z M 33.710938 17.203125 C 33.625 17.03125 33.578125 16.890625 33.605469 16.890625 C 33.632812 16.890625 33.726562 17.03125 33.8125 17.203125 C 33.902344 17.375 33.949219 17.519531 33.921875 17.519531 C 33.894531 17.519531 33.800781 17.375 33.710938 17.203125 Z M 13.636719 16.207031 C 13.820312 15.859375 14.019531 15.53125 14.078125 15.472656 C 14.136719 15.414062 14.03125 15.652344 13.847656 15.996094 C 13.664062 16.34375 13.464844 16.671875 13.40625 16.730469 C 13.351562 16.789062 13.453125 16.554688 13.636719 16.207031 Z M 33.304688 16.46875 C 33.214844 16.296875 33.167969 16.15625 33.195312 16.15625 C 33.222656 16.15625 33.320312 16.296875 33.40625 16.46875 C 33.492188 16.640625 33.542969 16.785156 33.511719 16.785156 C 33.484375 16.785156 33.390625 16.640625 33.304688 16.46875 Z M 32.894531 15.734375 C 32.808594 15.5625 32.757812 15.421875 32.789062 15.421875 C 32.816406 15.421875 32.910156 15.5625 32.996094 15.734375 C 33.085938 15.90625 33.132812 16.050781 33.105469 16.050781 C 33.078125 16.050781 32.980469 15.90625 32.894531 15.734375 Z M 18.394531 15.148438 C 18.25 14.792969 18.253906 14.75 18.449219 14.464844 C 18.707031 14.09375 18.941406 14.082031 19.296875 14.417969 C 19.597656 14.707031 19.621094 14.808594 19.449219 15.136719 C 19.292969 15.441406 19.164062 15.523438 18.828125 15.523438 C 18.601562 15.523438 18.519531 15.453125 18.394531 15.148438 Z M 19.261719 15.179688 C 19.261719 14.964844 18.996094 14.648438 18.878906 14.722656 C 18.820312 14.757812 18.753906 14.90625 18.726562 15.050781 C 18.683594 15.285156 18.710938 15.316406 18.96875 15.316406 C 19.140625 15.316406 19.261719 15.257812 19.261719 15.179688 Z M 14.257812 15.105469 C 14.316406 14.988281 14.386719 14.894531 14.417969 14.894531 C 14.445312 14.894531 14.417969 14.988281 14.359375 15.105469 C 14.296875 15.222656 14.226562 15.316406 14.199219 15.316406 C 14.167969 15.316406 14.195312 15.222656 14.257812 15.105469 Z M 32.609375 15.238281 C 32.585938 15.195312 32.4375 14.921875 32.28125 14.632812 C 32.121094 14.34375 32.039062 14.15625 32.097656 14.214844 C 32.246094 14.359375 32.773438 15.316406 32.707031 15.316406 C 32.675781 15.316406 32.632812 15.28125 32.609375 15.238281 Z M 14.828125 14.109375 C 15.035156 13.707031 15.292969 13.246094 15.402344 13.085938 L 15.597656 12.796875 L 31.296875 12.796875 L 31.496094 13.085938 C 31.734375 13.433594 32.050781 14.054688 31.988281 14.054688 C 31.964844 14.054688 31.800781 13.796875 31.628906 13.480469 L 31.308594 12.902344 L 15.589844 12.902344 L 15.132812 13.714844 C 14.519531 14.8125 14.363281 15.007812 14.828125 14.109375 Z M 21.558594 14.6875 C 21.59375 14.628906 21.640625 14.582031 21.667969 14.582031 C 21.691406 14.582031 21.710938 14.628906 21.710938 14.6875 C 21.710938 14.742188 21.664062 14.789062 21.605469 14.789062 C 21.542969 14.789062 21.523438 14.742188 21.558594 14.6875 Z M 21.558594 14.6875 "/>
<path style=" stroke:none;fill-rule:nonzero;fill:rgb(14.117647%,14.117647%,14.901961%);fill-opacity:1;" d="M 17.566406 37.261719 C 17.503906 37.21875 17.179688 36.691406 16.839844 36.085938 C 16.5 35.480469 15.890625 34.394531 15.484375 33.671875 C 13.574219 30.289062 10.300781 24.433594 10.03125 23.914062 L 9.730469 23.332031 L 10.292969 22.339844 C 10.605469 21.792969 10.972656 21.132812 11.113281 20.875 C 11.253906 20.613281 12.3125 18.726562 13.464844 16.679688 L 15.558594 12.957031 L 31.335938 12.957031 L 33.019531 15.945312 C 34.9375 19.355469 35.441406 20.25 35.730469 20.769531 C 35.839844 20.972656 36.203125 21.617188 36.53125 22.207031 C 36.863281 22.792969 37.132812 23.328125 37.132812 23.394531 C 37.132812 23.5 36.644531 24.390625 33.890625 29.320312 C 33.46875 30.070312 32.816406 31.226562 32.433594 31.886719 C 32.054688 32.550781 31.203125 34.050781 30.546875 35.21875 L 29.355469 37.34375 L 23.515625 37.339844 C 20.304688 37.339844 17.628906 37.304688 17.566406 37.261719 Z M 19.363281 37.03125 C 19.363281 36.855469 19.777344 35.949219 19.832031 36.007812 C 19.863281 36.039062 19.816406 36.3125 19.726562 36.617188 C 19.640625 36.921875 19.566406 37.1875 19.566406 37.203125 C 19.566406 37.222656 19.703125 37.238281 19.871094 37.238281 C 20.152344 37.238281 20.1875 37.195312 20.339844 36.636719 C 20.535156 35.941406 20.6875 35.707031 20.699219 36.089844 C 20.703125 36.230469 20.730469 36.289062 20.757812 36.214844 C 20.785156 36.144531 20.855469 36.085938 20.914062 36.085938 C 21.015625 36.085938 20.996094 36.285156 20.839844 36.949219 C 20.769531 37.234375 20.773438 37.238281 21.277344 37.238281 L 21.789062 37.238281 L 21.851562 36.738281 C 21.933594 36.132812 22.117188 35.773438 22.117188 36.214844 C 22.121094 36.386719 22.171875 36.492188 22.246094 36.476562 C 22.324219 36.460938 22.394531 36.617188 22.425781 36.871094 L 22.480469 37.289062 L 22.667969 36.554688 L 22.707031 36.898438 C 22.746094 37.230469 22.757812 37.238281 23.257812 37.238281 C 23.546875 37.238281 23.742188 37.195312 23.707031 37.140625 C 23.625 37 23.761719 36.1875 23.871094 36.1875 C 23.917969 36.1875 23.960938 36.296875 23.964844 36.425781 C 23.972656 36.640625 23.980469 36.644531 24.050781 36.457031 C 24.101562 36.320312 24.152344 36.292969 24.203125 36.378906 C 24.304688 36.550781 24.46875 36.535156 24.46875 36.359375 C 24.46875 36.128906 24.894531 36.066406 25.046875 36.273438 C 25.117188 36.371094 25.179688 36.410156 25.179688 36.359375 C 25.1875 36.140625 25.492188 36.558594 25.503906 36.804688 C 25.515625 37.035156 25.527344 37.019531 25.589844 36.714844 L 25.660156 36.347656 L 25.777344 36.640625 C 25.84375 36.804688 25.898438 37.003906 25.898438 37.085938 C 25.898438 37.171875 25.9375 37.238281 25.980469 37.238281 C 26.027344 37.238281 26.042969 37.066406 26.019531 36.855469 C 25.96875 36.398438 26.15625 36.453125 26.257812 36.925781 C 26.355469 37.386719 26.46875 37.304688 26.4375 36.792969 L 26.414062 36.347656 L 26.558594 36.660156 C 26.640625 36.835938 26.710938 37.035156 26.710938 37.105469 C 26.714844 37.179688 26.75 37.238281 26.796875 37.238281 C 26.839844 37.238281 26.859375 37.039062 26.84375 36.792969 C 26.8125 36.347656 26.8125 36.347656 26.972656 36.609375 L 27.136719 36.871094 L 27.082031 36.503906 C 27.050781 36.300781 26.996094 35.996094 26.964844 35.820312 C 26.933594 35.648438 27.050781 35.835938 27.222656 36.238281 C 27.394531 36.640625 27.535156 37.03125 27.535156 37.105469 C 27.535156 37.179688 27.605469 37.238281 27.691406 37.238281 C 27.816406 37.238281 27.824219 37.195312 27.734375 37.023438 C 27.671875 36.902344 27.644531 36.75 27.667969 36.683594 C 27.695312 36.613281 27.773438 36.710938 27.839844 36.898438 C 27.90625 37.085938 28.019531 37.238281 28.089844 37.238281 C 28.183594 37.238281 28.15625 37.03125 27.980469 36.484375 C 27.847656 36.070312 27.753906 35.714844 27.773438 35.699219 C 27.792969 35.679688 27.964844 36.015625 28.15625 36.445312 C 28.347656 36.878906 28.539062 37.234375 28.582031 37.234375 C 28.628906 37.238281 28.621094 37.15625 28.566406 37.054688 C 28.429688 36.789062 28.042969 35.640625 28.050781 35.511719 C 28.050781 35.453125 28.261719 35.820312 28.515625 36.332031 C 28.769531 36.84375 28.996094 37.238281 29.019531 37.214844 C 29.042969 37.191406 28.949219 36.867188 28.808594 36.5 C 28.5 35.691406 28.527344 35.453125 28.859375 36.0625 C 28.992188 36.304688 29.117188 36.488281 29.132812 36.46875 C 29.148438 36.453125 29 36.039062 28.800781 35.554688 C 28.371094 34.511719 28.410156 34.53125 29.140625 35.742188 C 29.632812 36.558594 29.789062 36.621094 29.410156 35.855469 C 29.179688 35.394531 29.25 35.375 29.542969 35.820312 C 29.695312 36.050781 29.835938 36.175781 29.859375 36.101562 C 29.894531 35.992188 29.816406 35.769531 29.5 35.089844 C 29.472656 35.03125 29.570312 35.125 29.714844 35.296875 C 29.859375 35.472656 29.980469 35.652344 29.980469 35.695312 C 29.984375 35.742188 30.03125 35.753906 30.085938 35.71875 C 30.148438 35.675781 30.132812 35.539062 30.035156 35.347656 C 29.828125 34.933594 29.84375 34.859375 30.078125 35.15625 C 30.347656 35.496094 30.445312 35.339844 30.234375 34.914062 L 30.058594 34.5625 L 30.277344 34.765625 C 30.546875 35.011719 30.65625 34.925781 30.492188 34.597656 C 30.390625 34.394531 30.390625 34.375 30.503906 34.484375 C 30.683594 34.660156 30.800781 34.648438 30.800781 34.457031 C 30.800781 34.371094 30.851562 34.300781 30.914062 34.300781 C 30.980469 34.300781 31.007812 34.195312 30.984375 34.046875 C 30.953125 33.886719 30.976562 33.8125 31.054688 33.84375 C 31.210938 33.902344 31.460938 33.414062 31.359375 33.246094 C 31.308594 33.164062 31.320312 33.140625 31.390625 33.183594 C 31.625 33.332031 31.628906 33.015625 31.398438 32.746094 C 31.164062 32.472656 31.164062 32.472656 31.390625 32.667969 C 31.570312 32.824219 31.652344 32.839844 31.742188 32.746094 C 31.808594 32.679688 31.832031 32.621094 31.792969 32.621094 C 31.753906 32.621094 31.808594 32.535156 31.914062 32.425781 C 32.019531 32.316406 32.277344 31.914062 32.488281 31.527344 C 32.859375 30.839844 32.863281 30.824219 32.675781 30.609375 C 32.488281 30.394531 32.488281 30.390625 32.703125 30.503906 C 32.894531 30.609375 32.957031 30.566406 33.285156 30.074219 C 33.484375 29.773438 33.6875 29.433594 33.730469 29.320312 C 33.777344 29.203125 34.054688 28.695312 34.347656 28.191406 C 34.640625 27.6875 34.910156 27.15625 34.945312 27.011719 C 34.980469 26.867188 35.058594 26.75 35.113281 26.75 C 35.171875 26.75 35.191406 26.65625 35.164062 26.539062 C 35.125 26.390625 35.160156 26.328125 35.28125 26.324219 C 35.398438 26.324219 35.375 26.277344 35.191406 26.171875 L 34.9375 26.023438 L 35.246094 26.019531 C 35.570312 26.015625 35.664062 25.910156 36.085938 25.078125 C 36.242188 24.761719 36.28125 24.589844 36.207031 24.542969 C 36.140625 24.5 36.191406 24.433594 36.332031 24.382812 C 36.515625 24.316406 36.410156 24.289062 35.90625 24.257812 C 34.941406 24.203125 34.949219 24.0625 35.925781 23.960938 L 36.777344 23.871094 L 36.214844 23.816406 L 35.652344 23.757812 L 36.34375 23.617188 C 37.097656 23.460938 37.25 23.292969 36.648438 23.277344 C 36.269531 23.269531 36.269531 23.269531 36.546875 23.164062 C 36.964844 23.007812 36.796875 22.886719 36.25 22.949219 C 35.710938 23.011719 35.695312 22.832031 36.230469 22.722656 C 36.871094 22.589844 36.433594 22.554688 35.617188 22.675781 C 34.84375 22.785156 34.5 22.746094 34.738281 22.574219 C 34.792969 22.535156 34.835938 22.429688 34.835938 22.347656 C 34.835938 22.261719 34.980469 22.15625 35.167969 22.109375 C 35.351562 22.066406 35.648438 21.980469 35.832031 21.925781 C 36.136719 21.832031 36.125 21.824219 35.6875 21.871094 C 35.425781 21.894531 35.175781 21.929688 35.125 21.945312 C 35.078125 21.960938 35.027344 21.929688 35.011719 21.871094 C 34.996094 21.8125 35.15625 21.730469 35.367188 21.683594 C 35.578125 21.640625 35.796875 21.554688 35.851562 21.5 C 35.980469 21.367188 35.855469 21.371094 35.359375 21.511719 C 34.738281 21.691406 34.648438 21.457031 35.257812 21.257812 L 35.753906 21.097656 L 35.246094 21.148438 C 34.769531 21.199219 34.746094 21.191406 34.933594 21.039062 C 35.039062 20.949219 35.214844 20.875 35.316406 20.875 C 35.417969 20.875 35.5 20.828125 35.5 20.769531 C 35.5 20.710938 35.398438 20.664062 35.277344 20.664062 C 35.0625 20.664062 35.0625 20.65625 35.238281 20.523438 C 35.496094 20.332031 35.289062 20.214844 34.933594 20.351562 C 34.539062 20.507812 34.484375 20.382812 34.871094 20.214844 L 35.191406 20.074219 L 34.886719 19.578125 C 34.71875 19.308594 34.582031 19.035156 34.582031 18.972656 C 34.582031 18.902344 34.472656 18.882812 34.300781 18.925781 C 34.039062 18.984375 34.03125 18.980469 34.207031 18.835938 C 34.429688 18.660156 34.347656 18.441406 34.09375 18.539062 C 33.9375 18.597656 33.933594 18.582031 34.058594 18.429688 C 34.253906 18.179688 34.097656 18.207031 33.527344 18.519531 C 32.886719 18.871094 32.703125 18.800781 33.242188 18.417969 C 33.472656 18.253906 33.660156 18.101562 33.660156 18.078125 C 33.660156 18.058594 33.417969 18.160156 33.125 18.308594 C 32.546875 18.597656 32.550781 18.589844 33.40625 17.863281 C 33.679688 17.628906 33.652344 17.632812 33.109375 17.925781 C 32.773438 18.105469 32.488281 18.238281 32.472656 18.222656 C 32.457031 18.203125 32.699219 17.988281 33.007812 17.738281 C 33.5625 17.292969 33.691406 17.066406 33.253906 17.308594 C 32.929688 17.484375 32.882812 17.355469 33.191406 17.148438 C 33.335938 17.050781 33.429688 16.929688 33.398438 16.875 C 33.367188 16.824219 33.125 16.929688 32.863281 17.113281 L 32.382812 17.445312 L 32.765625 17.03125 C 33.125 16.644531 33.292969 16.261719 33.03125 16.425781 C 32.960938 16.472656 32.941406 16.457031 32.988281 16.378906 C 33.171875 16.074219 32.902344 16.070312 32.53125 16.371094 C 32.042969 16.765625 32.007812 16.664062 32.460938 16.164062 C 32.824219 15.765625 32.621094 15.878906 31.917969 16.464844 C 31.386719 16.910156 31.523438 16.597656 32.121094 16.003906 C 32.5625 15.5625 32.734375 15.101562 32.316406 15.484375 L 32.097656 15.683594 L 32.265625 15.410156 C 32.550781 14.957031 32.320312 14.972656 31.855469 15.4375 C 31.308594 15.992188 31.191406 15.917969 31.683594 15.328125 C 31.886719 15.085938 32.027344 14.863281 32 14.832031 C 31.972656 14.804688 31.835938 14.914062 31.699219 15.074219 C 31.5625 15.234375 31.25 15.554688 31.003906 15.789062 C 30.601562 16.171875 30.621094 16.125 31.25 15.277344 C 31.980469 14.292969 32.125 13.945312 31.472656 14.746094 C 30.964844 15.371094 30.875 15.261719 31.351562 14.597656 C 31.847656 13.902344 31.820312 13.707031 31.296875 14.21875 L 30.875 14.632812 L 31.203125 14.128906 C 31.386719 13.851562 31.507812 13.589844 31.46875 13.554688 C 31.433594 13.515625 31.371094 13.535156 31.332031 13.597656 C 31.203125 13.800781 30.152344 15.105469 30.117188 15.105469 C 30.082031 15.105469 31.070312 13.457031 31.234375 13.242188 C 31.304688 13.15625 31.300781 13.113281 31.230469 13.113281 C 31.167969 13.113281 30.972656 13.324219 30.789062 13.585938 C 30.375 14.179688 30.289062 14.121094 30.648438 13.488281 C 31.054688 12.777344 30.789062 12.90625 30.226562 13.6875 C 29.960938 14.0625 29.722656 14.371094 29.699219 14.371094 C 29.675781 14.371094 29.824219 14.0625 30.023438 13.6875 C 30.226562 13.3125 30.351562 13.007812 30.308594 13.007812 C 30.265625 13.007812 30.027344 13.316406 29.785156 13.691406 C 29.542969 14.070312 29.328125 14.359375 29.304688 14.339844 C 29.285156 14.316406 29.410156 14.027344 29.582031 13.695312 C 29.753906 13.363281 29.871094 13.0625 29.835938 13.03125 C 29.769531 12.960938 29.78125 12.949219 29.4375 13.476562 C 29.144531 13.929688 29.070312 13.820312 29.324219 13.316406 C 29.410156 13.148438 29.4375 13.007812 29.386719 13.007812 C 29.332031 13.007812 29.269531 13.070312 29.238281 13.148438 C 29.210938 13.222656 29.019531 13.558594 28.8125 13.890625 C 28.417969 14.523438 28.214844 14.632812 28.503906 14.054688 C 28.597656 13.871094 28.648438 13.699219 28.617188 13.667969 C 28.585938 13.636719 28.484375 13.78125 28.386719 13.992188 C 28.09375 14.621094 28.039062 14.417969 28.296875 13.664062 C 28.433594 13.273438 28.488281 13.042969 28.421875 13.148438 C 28.09375 13.667969 28.03125 13.707031 28.097656 13.347656 L 28.164062 13.003906 L 23.203125 13.007812 L 18.246094 13.015625 L 18.449219 13.585938 L 18.195312 13.269531 C 17.914062 12.921875 17.84375 13.09375 18.085938 13.53125 C 18.390625 14.082031 18.21875 14.082031 17.882812 13.53125 C 17.476562 12.867188 17.4375 12.878906 17.738281 13.578125 C 17.855469 13.851562 17.925781 14.097656 17.898438 14.128906 C 17.851562 14.175781 17.28125 13.328125 17.183594 13.058594 C 17.160156 13.003906 17.113281 12.984375 17.070312 13.023438 C 17.03125 13.0625 17.125 13.34375 17.277344 13.652344 C 17.605469 14.320312 17.355469 14.175781 16.945312 13.460938 C 16.804688 13.210938 16.644531 13.007812 16.589844 13.007812 C 16.535156 13.007812 16.578125 13.136719 16.6875 13.296875 C 16.9375 13.65625 17.523438 14.769531 17.519531 14.871094 C 17.519531 14.914062 17.332031 14.734375 17.101562 14.476562 L 16.6875 14.003906 L 16.90625 14.410156 C 17.289062 15.121094 17.054688 14.9375 16.40625 14.011719 C 16.058594 13.515625 15.730469 13.113281 15.679688 13.113281 C 15.527344 13.113281 15.5625 13.195312 15.972656 13.828125 C 16.65625 14.867188 16.5625 14.828125 15.667969 13.695312 C 15.574219 13.578125 15.472656 13.503906 15.441406 13.539062 C 15.410156 13.570312 15.6875 14.03125 16.058594 14.566406 C 16.429688 15.097656 16.710938 15.554688 16.6875 15.582031 C 16.660156 15.609375 16.40625 15.335938 16.121094 14.972656 C 15.835938 14.613281 15.496094 14.222656 15.367188 14.109375 L 15.132812 13.898438 L 15.320312 14.214844 C 15.425781 14.386719 15.585938 14.621094 15.679688 14.738281 C 16.117188 15.277344 16.074219 15.316406 15.589844 14.816406 C 14.972656 14.175781 14.710938 14.183594 15.191406 14.824219 L 15.519531 15.261719 L 15.144531 14.902344 C 14.652344 14.429688 14.621094 14.722656 15.101562 15.289062 C 15.714844 16.011719 15.730469 16.109375 15.144531 15.527344 C 14.804688 15.195312 14.5625 15.019531 14.5625 15.113281 C 14.5625 15.199219 14.769531 15.480469 15.023438 15.734375 C 15.65625 16.375 15.597656 16.484375 14.933594 15.898438 C 14.632812 15.636719 14.355469 15.421875 14.3125 15.421875 C 14.273438 15.421875 14.460938 15.691406 14.734375 16.023438 L 15.226562 16.625 L 14.691406 16.167969 C 14.011719 15.59375 13.996094 15.738281 14.664062 16.414062 C 14.941406 16.695312 15.152344 16.949219 15.125 16.972656 C 15.101562 17 14.84375 16.824219 14.550781 16.585938 C 13.890625 16.046875 13.730469 16.132812 14.359375 16.6875 C 14.90625 17.175781 14.78125 17.234375 14.175781 16.773438 C 13.507812 16.273438 13.667969 16.585938 14.363281 17.148438 C 14.703125 17.421875 14.960938 17.671875 14.929688 17.699219 C 14.902344 17.730469 14.578125 17.53125 14.210938 17.261719 L 13.542969 16.773438 L 13.417969 17.050781 C 13.304688 17.308594 13.320312 17.355469 13.648438 17.644531 L 14 17.957031 L 13.632812 17.738281 C 13.21875 17.492188 13.132812 17.472656 13.132812 17.617188 C 13.132812 17.671875 13.269531 17.800781 13.4375 17.902344 C 13.609375 18.003906 13.746094 18.128906 13.746094 18.183594 C 13.746094 18.234375 13.640625 18.207031 13.515625 18.125 C 13.199219 17.917969 12.929688 17.824219 12.929688 17.921875 C 12.929688 17.964844 13.136719 18.136719 13.390625 18.300781 C 13.949219 18.664062 13.925781 18.769531 13.351562 18.46875 C 12.828125 18.195312 12.59375 18.191406 12.929688 18.464844 L 13.183594 18.671875 L 12.851562 18.605469 C 12.488281 18.535156 12.398438 18.691406 12.699219 18.878906 C 12.839844 18.964844 12.8125 18.976562 12.570312 18.921875 C 12.210938 18.839844 12.269531 18.929688 12.800781 19.261719 C 13.234375 19.535156 13.011719 19.613281 12.523438 19.355469 C 12.25 19.210938 12.226562 19.214844 12.070312 19.457031 C 11.90625 19.714844 11.910156 19.71875 12.390625 19.976562 C 12.964844 20.28125 12.945312 20.296875 12.265625 20.085938 L 11.753906 19.929688 L 12.058594 20.199219 L 12.367188 20.46875 L 11.957031 20.40625 L 11.550781 20.347656 L 11.882812 20.5 C 12.328125 20.707031 12.300781 20.804688 11.820312 20.71875 C 11.476562 20.660156 11.40625 20.683594 11.257812 20.917969 C 11.089844 21.179688 11.089844 21.179688 11.472656 21.25 C 11.949219 21.339844 12.273438 21.503906 12.144531 21.59375 C 12.089844 21.632812 12.066406 21.859375 12.089844 22.105469 C 12.121094 22.441406 12.183594 22.5625 12.351562 22.617188 C 12.558594 22.683594 12.5625 22.691406 12.375 22.761719 C 12.085938 22.863281 12.097656 23.253906 12.398438 23.457031 C 12.789062 23.71875 12.511719 23.808594 11.242188 23.820312 C 10.175781 23.832031 10.140625 23.839844 10.527344 23.96875 C 10.917969 24.097656 10.914062 24.128906 10.476562 24.261719 C 10.394531 24.289062 10.601562 24.339844 10.9375 24.378906 C 11.273438 24.417969 11.710938 24.480469 11.90625 24.519531 C 12.238281 24.585938 12.21875 24.597656 11.652344 24.65625 C 11.207031 24.703125 11.136719 24.726562 11.394531 24.746094 L 11.753906 24.773438 L 11.394531 24.878906 C 10.917969 25.015625 10.84375 25.109375 11 25.367188 C 11.082031 25.5 11.261719 25.597656 11.472656 25.617188 C 11.65625 25.632812 11.804688 25.6875 11.800781 25.734375 C 11.796875 25.785156 11.875 25.890625 11.976562 25.96875 C 12.078125 26.046875 12.117188 26.113281 12.058594 26.117188 C 12.003906 26.121094 12.023438 26.164062 12.097656 26.214844 C 12.210938 26.289062 12.1875 26.335938 11.996094 26.4375 C 11.863281 26.507812 11.738281 26.582031 11.71875 26.597656 C 11.667969 26.644531 12.835938 28.6875 12.9375 28.722656 C 12.988281 28.742188 13.03125 28.824219 13.03125 28.90625 C 13.03125 28.988281 13.085938 29.054688 13.148438 29.054688 C 13.214844 29.054688 13.238281 29.085938 13.203125 29.125 C 13.140625 29.1875 13.585938 30.074219 14.203125 31.101562 C 14.375 31.390625 14.582031 31.757812 14.660156 31.914062 C 14.738281 32.074219 14.839844 32.203125 14.886719 32.203125 C 14.933594 32.203125 14.972656 32.285156 14.972656 32.386719 C 14.976562 32.621094 15.222656 32.957031 15.320312 32.859375 C 15.359375 32.820312 15.359375 32.867188 15.324219 32.96875 C 15.242188 33.183594 15.46875 33.214844 15.6875 33.015625 C 15.769531 32.945312 15.75 32.988281 15.648438 33.113281 C 15.472656 33.332031 15.5 33.632812 15.683594 33.515625 C 15.730469 33.484375 15.746094 33.554688 15.714844 33.671875 C 15.632812 33.992188 15.769531 33.925781 16.210938 33.4375 L 16.613281 32.988281 L 16.253906 33.523438 C 15.929688 34.007812 15.90625 34.085938 16.019531 34.335938 C 16.171875 34.671875 16.253906 34.683594 16.40625 34.398438 C 16.46875 34.277344 16.542969 34.203125 16.570312 34.230469 C 16.597656 34.257812 16.542969 34.402344 16.453125 34.550781 C 16.246094 34.867188 16.335938 35.117188 16.578125 34.910156 C 16.722656 34.789062 16.726562 34.800781 16.625 34.996094 C 16.382812 35.464844 16.652344 35.316406 17.035156 34.769531 C 17.253906 34.453125 17.457031 34.195312 17.484375 34.195312 C 17.511719 34.195312 17.371094 34.5 17.171875 34.875 C 16.730469 35.703125 16.714844 35.835938 17.125 35.351562 L 17.433594 34.984375 L 17.222656 35.425781 C 16.917969 36.070312 16.945312 36.328125 17.273438 35.925781 L 17.535156 35.613281 L 17.375 35.949219 C 17.195312 36.332031 17.171875 36.609375 17.320312 36.609375 C 17.375 36.609375 17.421875 36.574219 17.425781 36.53125 C 17.425781 36.488281 17.519531 36.332031 17.628906 36.1875 L 17.832031 35.925781 L 17.671875 36.332031 C 17.355469 37.136719 17.601562 36.945312 18.089844 36.003906 C 18.363281 35.476562 18.605469 35.0625 18.628906 35.085938 C 18.652344 35.109375 18.527344 35.492188 18.351562 35.9375 C 17.996094 36.839844 18 37.085938 18.355469 36.382812 C 18.511719 36.070312 18.597656 35.984375 18.625 36.105469 C 18.644531 36.203125 18.609375 36.382812 18.542969 36.507812 C 18.480469 36.628906 18.445312 36.75 18.46875 36.777344 C 18.496094 36.800781 18.667969 36.507812 18.859375 36.125 C 19.265625 35.300781 19.355469 35.378906 19.054688 36.296875 C 18.804688 37.054688 18.847656 37.265625 19.109375 36.5625 C 19.207031 36.300781 19.328125 36.085938 19.375 36.085938 C 19.492188 36.085938 19.492188 36.085938 19.3125 36.609375 C 19.132812 37.128906 19.121094 37.273438 19.261719 37.1875 C 19.316406 37.148438 19.363281 37.082031 19.363281 37.03125 Z M 19.824219 37.027344 C 19.855469 36.972656 19.90625 36.921875 19.929688 36.921875 C 19.957031 36.921875 19.976562 36.972656 19.976562 37.027344 C 19.976562 37.085938 19.925781 37.132812 19.867188 37.132812 C 19.808594 37.132812 19.789062 37.085938 19.824219 37.027344 Z M 16.910156 29.265625 C 16.589844 28.933594 16.636719 28.328125 17.011719 27.957031 C 17.316406 27.65625 17.324219 27.65625 17.671875 27.828125 C 18.203125 28.085938 18.386719 28.433594 18.242188 28.894531 C 18.175781 29.101562 18.035156 29.316406 17.929688 29.371094 C 17.621094 29.542969 17.132812 29.492188 16.910156 29.265625 Z M 17.773438 29.144531 C 18.277344 28.910156 18.234375 28.355469 17.691406 28.085938 C 17.351562 27.921875 17.34375 27.921875 17.121094 28.230469 C 16.84375 28.613281 16.882812 28.957031 17.21875 29.132812 C 17.527344 29.292969 17.464844 29.289062 17.773438 29.144531 Z M 17.355469 26.585938 C 17.277344 26.378906 17.371094 26.285156 17.570312 26.363281 C 17.660156 26.398438 17.699219 26.496094 17.664062 26.585938 C 17.585938 26.792969 17.433594 26.792969 17.355469 26.585938 Z M 21.234375 25.851562 C 21.203125 25.761719 21.203125 25.660156 21.238281 25.625 C 21.273438 25.589844 21.304688 25.640625 21.304688 25.738281 C 21.304688 25.902344 21.484375 25.914062 23.488281 25.886719 C 24.691406 25.871094 25.652344 25.894531 25.628906 25.9375 C 25.601562 25.980469 24.617188 26.015625 23.4375 26.015625 C 21.601562 26.015625 21.289062 25.992188 21.234375 25.851562 Z M 25.503906 25.410156 C 25.394531 25.144531 25.394531 25.136719 25.539062 25.328125 C 25.625 25.4375 25.695312 25.566406 25.695312 25.613281 C 25.695312 25.773438 25.625 25.699219 25.503906 25.410156 Z M 21.554688 25.019531 C 21.710938 24.730469 21.886719 24.445312 21.945312 24.386719 C 22.003906 24.332031 21.921875 24.519531 21.765625 24.808594 C 21.609375 25.097656 21.433594 25.378906 21.375 25.4375 C 21.316406 25.496094 21.398438 25.304688 21.554688 25.019531 Z M 25.183594 24.859375 C 25.125 24.746094 25.097656 24.652344 25.125 24.652344 C 25.152344 24.652344 25.226562 24.746094 25.285156 24.859375 C 25.347656 24.976562 25.371094 25.070312 25.34375 25.070312 C 25.316406 25.070312 25.246094 24.976562 25.183594 24.859375 Z M 14.257812 24.664062 C 14.257812 24.554688 14.328125 24.402344 14.421875 24.328125 C 14.558594 24.207031 14.605469 24.214844 14.71875 24.375 C 14.902344 24.632812 14.800781 24.859375 14.5 24.859375 C 14.328125 24.859375 14.257812 24.800781 14.257812 24.664062 Z M 24.828125 24.230469 C 24.738281 24.058594 24.691406 23.917969 24.71875 23.917969 C 24.746094 23.917969 24.839844 24.058594 24.929688 24.230469 C 25.015625 24.40625 25.0625 24.546875 25.035156 24.546875 C 25.007812 24.546875 24.914062 24.40625 24.828125 24.230469 Z M 22.171875 23.917969 C 22.257812 23.742188 22.351562 23.601562 22.378906 23.601562 C 22.410156 23.601562 22.359375 23.742188 22.273438 23.917969 C 22.1875 24.089844 22.09375 24.230469 22.0625 24.230469 C 22.035156 24.230469 22.085938 24.089844 22.171875 23.917969 Z M 24.417969 23.496094 C 24.332031 23.324219 24.28125 23.183594 24.3125 23.183594 C 24.339844 23.183594 24.433594 23.324219 24.519531 23.496094 C 24.609375 23.671875 24.65625 23.8125 24.628906 23.8125 C 24.601562 23.8125 24.503906 23.671875 24.417969 23.496094 Z M 22.683594 22.972656 C 22.824219 22.683594 22.964844 22.449219 22.992188 22.449219 C 23.019531 22.449219 22.925781 22.683594 22.785156 22.972656 C 22.640625 23.261719 22.503906 23.496094 22.472656 23.496094 C 22.445312 23.496094 22.539062 23.261719 22.683594 22.972656 Z M 23.957031 22.65625 C 23.84375 22.425781 23.773438 22.238281 23.800781 22.238281 C 23.828125 22.238281 23.945312 22.425781 24.0625 22.65625 C 24.175781 22.890625 24.246094 23.078125 24.21875 23.078125 C 24.191406 23.078125 24.074219 22.890625 23.957031 22.65625 Z M 15.890625 22.46875 C 15.554688 22.363281 15.277344 21.992188 15.277344 21.640625 C 15.277344 21 16.113281 20.707031 16.632812 21.167969 C 16.769531 21.292969 16.796875 21.417969 16.746094 21.707031 C 16.648438 22.28125 16.292969 22.597656 15.890625 22.46875 Z M 16.449219 22.171875 C 16.554688 22.0625 16.605469 21.867188 16.585938 21.628906 C 16.558594 21.328125 16.5 21.238281 16.261719 21.160156 C 15.859375 21.023438 15.480469 21.238281 15.480469 21.601562 C 15.480469 22.21875 16.070312 22.5625 16.449219 22.171875 Z M 23.203125 21.992188 C 23.238281 21.894531 23.347656 21.820312 23.449219 21.820312 C 23.546875 21.820312 23.660156 21.894531 23.695312 21.992188 C 23.75 22.136719 23.734375 22.140625 23.601562 22.03125 C 23.476562 21.921875 23.417969 21.921875 23.292969 22.03125 C 23.164062 22.140625 23.148438 22.136719 23.203125 21.992188 Z M 14.382812 19.128906 C 14.3125 19.097656 14.257812 18.964844 14.257812 18.832031 C 14.257812 18.542969 14.738281 18.355469 14.886719 18.585938 C 15.117188 18.953125 14.789062 19.304688 14.382812 19.128906 Z M 18.398438 15.5 C 18.226562 15.34375 18.105469 15.089844 18.046875 14.765625 C 17.996094 14.484375 18 14.296875 18.050781 14.328125 C 18.097656 14.359375 18.257812 14.289062 18.40625 14.167969 C 18.734375 13.90625 18.886719 13.898438 19.265625 14.128906 C 19.703125 14.394531 19.835938 14.804688 19.609375 15.195312 C 19.433594 15.5 19.085938 15.734375 18.800781 15.734375 C 18.722656 15.734375 18.542969 15.628906 18.398438 15.5 Z M 19.21875 15.445312 C 19.355469 15.351562 19.566406 14.953125 19.566406 14.792969 C 19.566406 14.613281 19.050781 14.160156 18.84375 14.160156 C 18.742188 14.160156 18.566406 14.296875 18.449219 14.464844 C 18.253906 14.75 18.25 14.792969 18.394531 15.148438 C 18.519531 15.453125 18.601562 15.523438 18.828125 15.523438 C 18.980469 15.523438 19.15625 15.488281 19.21875 15.445312 Z M 21.375 14.933594 C 21.226562 14.785156 21.308594 14.488281 21.519531 14.421875 C 21.777344 14.335938 21.949219 14.488281 21.898438 14.753906 C 21.863281 14.949219 21.507812 15.074219 21.375 14.933594 Z M 21.710938 14.6875 C 21.710938 14.628906 21.691406 14.582031 21.667969 14.582031 C 21.640625 14.582031 21.59375 14.628906 21.558594 14.6875 C 21.523438 14.742188 21.542969 14.789062 21.605469 14.789062 C 21.664062 14.789062 21.710938 14.742188 21.710938 14.6875 Z M 21.808594 13.625 C 21.714844 13.449219 21.726562 13.367188 21.855469 13.234375 C 22.003906 13.082031 22.019531 13.101562 22.019531 13.457031 C 22.019531 13.902344 21.972656 13.941406 21.808594 13.625 Z M 20.625 37.003906 C 20.703125 36.707031 20.707031 36.449219 20.636719 36.523438 C 20.53125 36.632812 20.398438 37.238281 20.480469 37.238281 C 20.527344 37.238281 20.59375 37.132812 20.625 37.003906 Z M 24.4375 37.007812 C 24.40625 36.925781 24.378906 36.949219 24.375 37.070312 C 24.371094 37.183594 24.394531 37.246094 24.429688 37.210938 C 24.460938 37.175781 24.464844 37.085938 24.4375 37.007812 Z M 24.878906 37.132812 C 24.878906 37.074219 24.859375 37.027344 24.832031 37.027344 C 24.808594 37.027344 24.757812 37.074219 24.726562 37.132812 C 24.691406 37.191406 24.710938 37.238281 24.769531 37.238281 C 24.828125 37.238281 24.878906 37.191406 24.878906 37.132812 Z M 11.320312 23.113281 C 11.253906 23.085938 11.113281 23.082031 11.015625 23.109375 C 10.914062 23.136719 10.972656 23.160156 11.140625 23.160156 C 11.308594 23.164062 11.390625 23.140625 11.320312 23.113281 Z M 11.164062 22.699219 C 11.128906 22.664062 11.042969 22.660156 10.96875 22.691406 C 10.886719 22.726562 10.910156 22.75 11.03125 22.753906 C 11.136719 22.757812 11.199219 22.734375 11.164062 22.699219 Z M 11.804688 22.285156 C 11.804688 22.195312 11.757812 22.148438 11.703125 22.1875 C 11.648438 22.222656 11.601562 22.296875 11.601562 22.347656 C 11.601562 22.402344 11.648438 22.449219 11.703125 22.449219 C 11.757812 22.449219 11.804688 22.375 11.804688 22.285156 Z M 36.105469 22.277344 C 36.207031 22.1875 35.636719 22.25 35.5 22.34375 C 35.390625 22.417969 35.453125 22.429688 35.703125 22.378906 C 35.902344 22.34375 36.082031 22.296875 36.105469 22.277344 Z M 11.265625 22.28125 C 11.234375 22.246094 11.144531 22.242188 11.070312 22.273438 C 10.988281 22.304688 11.011719 22.328125 11.132812 22.335938 C 11.238281 22.339844 11.300781 22.316406 11.265625 22.28125 Z M 11.34375 21.921875 C 11.3125 21.867188 11.160156 21.820312 11.007812 21.824219 C 10.761719 21.832031 10.753906 21.84375 10.9375 21.921875 C 11.21875 22.050781 11.421875 22.050781 11.34375 21.921875 Z M 16.609375 13.746094 C 16.550781 13.636719 16.449219 13.511719 16.382812 13.46875 C 16.304688 13.417969 16.292969 13.445312 16.351562 13.542969 C 16.570312 13.933594 16.800781 14.117188 16.609375 13.746094 Z M 16.609375 13.746094 "/>
<path style=" stroke:none;fill-rule:nonzero;fill:rgb(9.411765%,9.411765%,9.411765%);fill-opacity:1;" d="M 19.160156 37.152344 C 19.160156 37.097656 19.226562 36.855469 19.3125 36.609375 C 19.492188 36.085938 19.492188 36.085938 19.375 36.085938 C 19.328125 36.085938 19.207031 36.300781 19.109375 36.5625 C 18.847656 37.265625 18.804688 37.054688 19.054688 36.296875 C 19.355469 35.378906 19.265625 35.300781 18.859375 36.125 C 18.667969 36.507812 18.496094 36.800781 18.46875 36.777344 C 18.445312 36.75 18.480469 36.628906 18.542969 36.507812 C 18.609375 36.382812 18.644531 36.203125 18.625 36.105469 C 18.597656 35.984375 18.511719 36.070312 18.355469 36.382812 C 18 37.085938 17.996094 36.839844 18.351562 35.9375 C 18.527344 35.492188 18.652344 35.109375 18.628906 35.085938 C 18.605469 35.0625 18.363281 35.476562 18.089844 36.003906 C 17.601562 36.945312 17.355469 37.136719 17.671875 36.332031 L 17.832031 35.925781 L 17.628906 36.1875 C 17.519531 36.332031 17.425781 36.488281 17.425781 36.53125 C 17.421875 36.574219 17.375 36.609375 17.320312 36.609375 C 17.171875 36.609375 17.195312 36.332031 17.375 35.949219 L 17.535156 35.613281 L 17.273438 35.925781 C 16.945312 36.328125 16.917969 36.070312 17.222656 35.425781 L 17.433594 34.984375 L 17.125 35.351562 C 16.714844 35.835938 16.730469 35.703125 17.171875 34.875 C 17.371094 34.5 17.511719 34.195312 17.484375 34.195312 C 17.457031 34.195312 17.253906 34.453125 17.035156 34.769531 C 16.652344 35.316406 16.382812 35.464844 16.625 34.996094 C 16.726562 34.800781 16.722656 34.789062 16.578125 34.910156 C 16.335938 35.117188 16.246094 34.867188 16.453125 34.550781 C 16.542969 34.402344 16.597656 34.257812 16.570312 34.230469 C 16.542969 34.203125 16.46875 34.277344 16.40625 34.398438 C 16.253906 34.683594 16.171875 34.671875 16.019531 34.335938 C 15.90625 34.085938 15.929688 34.007812 16.253906 33.523438 L 16.613281 32.988281 L 16.210938 33.4375 C 15.769531 33.925781 15.632812 33.992188 15.714844 33.671875 C 15.746094 33.554688 15.730469 33.484375 15.683594 33.515625 C 15.5 33.632812 15.472656 33.332031 15.648438 33.113281 C 15.75 32.988281 15.769531 32.945312 15.6875 33.015625 C 15.46875 33.214844 15.242188 33.183594 15.324219 32.96875 C 15.359375 32.867188 15.359375 32.820312 15.320312 32.859375 C 15.222656 32.957031 14.976562 32.621094 14.972656 32.386719 C 14.972656 32.285156 14.933594 32.203125 14.886719 32.203125 C 14.839844 32.203125 14.738281 32.074219 14.660156 31.914062 C 14.582031 31.757812 14.375 31.390625 14.203125 31.101562 C 13.585938 30.074219 13.140625 29.1875 13.203125 29.125 C 13.238281 29.085938 13.214844 29.054688 13.148438 29.054688 C 13.085938 29.054688 13.03125 28.988281 13.03125 28.90625 C 13.03125 28.824219 12.988281 28.742188 12.9375 28.722656 C 12.835938 28.6875 11.667969 26.644531 11.71875 26.597656 C 11.738281 26.582031 11.863281 26.507812 11.996094 26.4375 C 12.1875 26.335938 12.210938 26.289062 12.097656 26.214844 C 12.023438 26.164062 12.003906 26.121094 12.058594 26.117188 C 12.117188 26.113281 12.078125 26.046875 11.976562 25.96875 C 11.875 25.890625 11.796875 25.785156 11.800781 25.734375 C 11.804688 25.6875 11.65625 25.632812 11.472656 25.617188 C 11.261719 25.597656 11.082031 25.5 11 25.367188 C 10.84375 25.109375 10.917969 25.015625 11.394531 24.878906 L 11.753906 24.773438 L 11.394531 24.746094 C 11.136719 24.726562 11.207031 24.703125 11.652344 24.65625 C 12.21875 24.597656 12.238281 24.585938 11.90625 24.519531 C 11.710938 24.480469 11.273438 24.417969 10.9375 24.378906 C 10.601562 24.339844 10.394531 24.289062 10.476562 24.261719 C 10.914062 24.128906 10.917969 24.097656 10.527344 23.96875 C 10.140625 23.839844 10.175781 23.832031 11.242188 23.820312 C 12.511719 23.808594 12.789062 23.71875 12.398438 23.457031 C 12.097656 23.253906 12.085938 22.863281 12.375 22.761719 C 12.5625 22.691406 12.558594 22.683594 12.351562 22.617188 C 12.183594 22.5625 12.121094 22.441406 12.089844 22.105469 C 12.066406 21.859375 12.089844 21.632812 12.144531 21.59375 C 12.273438 21.503906 11.949219 21.339844 11.472656 21.25 C 11.089844 21.179688 11.089844 21.179688 11.257812 20.917969 C 11.40625 20.683594 11.476562 20.660156 11.820312 20.71875 C 12.300781 20.804688 12.328125 20.707031 11.882812 20.5 L 11.550781 20.347656 L 11.957031 20.40625 L 12.367188 20.46875 L 12.058594 20.199219 L 11.753906 19.929688 L 12.265625 20.085938 C 12.945312 20.296875 12.964844 20.28125 12.390625 19.976562 C 11.910156 19.71875 11.90625 19.714844 12.070312 19.457031 C 12.226562 19.214844 12.25 19.210938 12.523438 19.355469 C 13.011719 19.613281 13.234375 19.535156 12.800781 19.261719 C 12.269531 18.929688 12.210938 18.839844 12.570312 18.921875 C 12.8125 18.976562 12.839844 18.964844 12.699219 18.878906 C 12.398438 18.691406 12.488281 18.535156 12.851562 18.605469 L 13.183594 18.671875 L 12.929688 18.464844 C 12.59375 18.191406 12.828125 18.195312 13.351562 18.46875 C 13.925781 18.769531 13.949219 18.664062 13.390625 18.300781 C 13.136719 18.136719 12.929688 17.964844 12.929688 17.921875 C 12.929688 17.824219 13.199219 17.917969 13.515625 18.125 C 13.640625 18.207031 13.746094 18.234375 13.746094 18.183594 C 13.746094 18.128906 13.609375 18.003906 13.4375 17.902344 C 13.269531 17.800781 13.132812 17.671875 13.132812 17.617188 C 13.132812 17.472656 13.21875 17.492188 13.632812 17.738281 L 14 17.957031 L 13.648438 17.644531 C 13.320312 17.355469 13.304688 17.308594 13.417969 17.050781 L 13.542969 16.773438 L 14.210938 17.261719 C 14.578125 17.53125 14.902344 17.730469 14.929688 17.699219 C 14.960938 17.671875 14.703125 17.421875 14.363281 17.148438 C 13.667969 16.585938 13.507812 16.273438 14.175781 16.773438 C 14.78125 17.234375 14.90625 17.175781 14.359375 16.6875 C 13.730469 16.132812 13.890625 16.046875 14.550781 16.585938 C 14.84375 16.824219 15.101562 17 15.125 16.972656 C 15.152344 16.949219 14.941406 16.695312 14.664062 16.414062 C 13.996094 15.738281 14.011719 15.59375 14.691406 16.167969 L 15.226562 16.625 L 14.734375 16.023438 C 14.460938 15.691406 14.273438 15.421875 14.3125 15.421875 C 14.355469 15.421875 14.632812 15.636719 14.933594 15.898438 C 15.597656 16.484375 15.65625 16.375 15.023438 15.734375 C 14.769531 15.480469 14.5625 15.199219 14.5625 15.113281 C 14.5625 15.019531 14.804688 15.195312 15.144531 15.527344 C 15.730469 16.109375 15.714844 16.011719 15.101562 15.289062 C 14.621094 14.722656 14.652344 14.429688 15.144531 14.902344 L 15.519531 15.261719 L 15.191406 14.824219 C 14.710938 14.183594 14.972656 14.175781 15.589844 14.816406 C 16.074219 15.316406 16.117188 15.277344 15.679688 14.738281 C 15.585938 14.621094 15.425781 14.386719 15.320312 14.214844 L 15.132812 13.898438 L 15.367188 14.109375 C 15.5 14.222656 15.835938 14.613281 16.121094 14.972656 C 16.40625 15.335938 16.660156 15.609375 16.6875 15.582031 C 16.710938 15.554688 16.429688 15.097656 16.058594 14.566406 C 15.6875 14.03125 15.410156 13.570312 15.441406 13.539062 C 15.472656 13.503906 15.574219 13.578125 15.667969 13.695312 C 16.5625 14.828125 16.65625 14.867188 15.972656 13.828125 C 15.5625 13.195312 15.527344 13.113281 15.679688 13.113281 C 15.730469 13.113281 16.058594 13.515625 16.40625 14.011719 C 17.054688 14.9375 17.289062 15.121094 16.90625 14.410156 L 16.6875 14.003906 L 17.101562 14.476562 C 17.332031 14.734375 17.519531 14.914062 17.519531 14.871094 C 17.523438 14.769531 16.9375 13.65625 16.6875 13.296875 C 16.578125 13.136719 16.535156 13.007812 16.589844 13.007812 C 16.644531 13.007812 16.804688 13.210938 16.945312 13.460938 C 17.355469 14.175781 17.605469 14.320312 17.277344 13.652344 C 17.125 13.34375 17.03125 13.0625 17.070312 13.023438 C 17.113281 12.984375 17.160156 13.003906 17.183594 13.058594 C 17.28125 13.328125 17.851562 14.175781 17.898438 14.128906 C 17.925781 14.097656 17.855469 13.851562 17.738281 13.578125 C 17.4375 12.878906 17.476562 12.867188 17.882812 13.53125 C 18.21875 14.082031 18.390625 14.082031 18.085938 13.53125 C 17.84375 13.09375 17.914062 12.921875 18.195312 13.269531 L 18.449219 13.585938 L 18.246094 13.015625 L 23.203125 13.007812 L 28.164062 13.003906 L 28.097656 13.347656 C 28.03125 13.707031 28.09375 13.667969 28.421875 13.148438 C 28.488281 13.042969 28.433594 13.273438 28.296875 13.664062 C 28.039062 14.417969 28.09375 14.621094 28.386719 13.992188 C 28.484375 13.78125 28.585938 13.636719 28.617188 13.667969 C 28.648438 13.699219 28.597656 13.871094 28.503906 14.054688 C 28.214844 14.632812 28.417969 14.523438 28.8125 13.890625 C 29.019531 13.558594 29.210938 13.222656 29.238281 13.148438 C 29.269531 13.070312 29.332031 13.007812 29.386719 13.007812 C 29.4375 13.007812 29.410156 13.148438 29.324219 13.316406 C 29.070312 13.820312 29.144531 13.929688 29.4375 13.476562 C 29.78125 12.949219 29.769531 12.960938 29.835938 13.03125 C 29.871094 13.066406 29.753906 13.363281 29.582031 13.695312 C 29.410156 14.027344 29.285156 14.316406 29.304688 14.339844 C 29.328125 14.359375 29.542969 14.070312 29.785156 13.691406 C 30.027344 13.316406 30.265625 13.007812 30.308594 13.007812 C 30.351562 13.007812 30.226562 13.3125 30.023438 13.6875 C 29.824219 14.0625 29.675781 14.371094 29.699219 14.371094 C 29.722656 14.371094 29.960938 14.0625 30.226562 13.6875 C 30.789062 12.90625 31.054688 12.777344 30.648438 13.488281 C 30.289062 14.121094 30.375 14.179688 30.789062 13.585938 C 30.972656 13.324219 31.167969 13.113281 31.230469 13.113281 C 31.300781 13.113281 31.304688 13.15625 31.234375 13.242188 C 31.070312 13.457031 30.082031 15.105469 30.117188 15.105469 C 30.152344 15.105469 31.203125 13.800781 31.332031 13.597656 C 31.371094 13.535156 31.433594 13.515625 31.46875 13.554688 C 31.507812 13.589844 31.386719 13.851562 31.203125 14.128906 L 30.875 14.632812 L 31.296875 14.21875 C 31.820312 13.707031 31.847656 13.902344 31.351562 14.597656 C 30.875 15.261719 30.964844 15.371094 31.472656 14.746094 C 32.125 13.945312 31.980469 14.292969 31.25 15.277344 C 30.621094 16.125 30.601562 16.171875 31.003906 15.789062 C 31.25 15.554688 31.5625 15.234375 31.699219 15.074219 C 31.835938 14.914062 31.972656 14.804688 32 14.832031 C 32.027344 14.863281 31.886719 15.085938 31.683594 15.328125 C 31.191406 15.917969 31.308594 15.992188 31.855469 15.4375 C 32.320312 14.972656 32.550781 14.957031 32.265625 15.410156 L 32.097656 15.683594 L 32.316406 15.484375 C 32.734375 15.101562 32.5625 15.5625 32.121094 16.003906 C 31.523438 16.597656 31.386719 16.910156 31.917969 16.464844 C 32.621094 15.878906 32.824219 15.765625 32.460938 16.164062 C 32.007812 16.664062 32.042969 16.765625 32.53125 16.371094 C 32.902344 16.070312 33.171875 16.074219 32.988281 16.378906 C 32.941406 16.457031 32.960938 16.472656 33.03125 16.425781 C 33.292969 16.261719 33.125 16.644531 32.765625 17.03125 L 32.382812 17.445312 L 32.863281 17.113281 C 33.125 16.929688 33.367188 16.824219 33.398438 16.875 C 33.429688 16.929688 33.335938 17.050781 33.191406 17.148438 C 32.882812 17.355469 32.929688 17.484375 33.253906 17.308594 C 33.691406 17.066406 33.5625 17.292969 33.007812 17.738281 C 32.699219 17.988281 32.457031 18.203125 32.472656 18.222656 C 32.488281 18.238281 32.773438 18.105469 33.109375 17.925781 C 33.652344 17.632812 33.679688 17.628906 33.40625 17.863281 C 32.550781 18.589844 32.546875 18.597656 33.125 18.308594 C 33.417969 18.160156 33.660156 18.058594 33.660156 18.078125 C 33.660156 18.101562 33.472656 18.253906 33.242188 18.417969 C 32.703125 18.800781 32.886719 18.871094 33.527344 18.519531 C 34.097656 18.207031 34.253906 18.179688 34.058594 18.429688 C 33.933594 18.582031 33.9375 18.597656 34.09375 18.539062 C 34.347656 18.441406 34.429688 18.660156 34.207031 18.835938 C 34.03125 18.980469 34.039062 18.984375 34.300781 18.925781 C 34.472656 18.882812 34.582031 18.902344 34.582031 18.972656 C 34.582031 19.035156 34.71875 19.308594 34.886719 19.578125 L 35.191406 20.074219 L 34.871094 20.214844 C 34.484375 20.382812 34.539062 20.507812 34.933594 20.351562 C 35.289062 20.214844 35.496094 20.332031 35.238281 20.523438 C 35.0625 20.65625 35.0625 20.664062 35.277344 20.664062 C 35.398438 20.664062 35.5 20.710938 35.5 20.769531 C 35.5 20.828125 35.417969 20.875 35.316406 20.875 C 35.214844 20.875 35.039062 20.949219 34.933594 21.039062 C 34.746094 21.191406 34.769531 21.199219 35.246094 21.148438 L 35.753906 21.097656 L 35.257812 21.257812 C 34.648438 21.457031 34.738281 21.691406 35.359375 21.511719 C 35.855469 21.371094 35.980469 21.367188 35.851562 21.5 C 35.796875 21.554688 35.578125 21.640625 35.367188 21.683594 C 35.15625 21.730469 34.996094 21.8125 35.011719 21.871094 C 35.027344 21.929688 35.078125 21.960938 35.125 21.945312 C 35.175781 21.929688 35.425781 21.894531 35.6875 21.871094 C 36.125 21.824219 36.136719 21.832031 35.832031 21.925781 C 35.648438 21.980469 35.351562 22.066406 35.167969 22.109375 C 34.980469 22.15625 34.835938 22.261719 34.835938 22.347656 C 34.835938 22.429688 34.792969 22.535156 34.738281 22.574219 C 34.5 22.746094 34.84375 22.785156 35.617188 22.675781 C 36.433594 22.554688 36.871094 22.589844 36.230469 22.722656 C 35.695312 22.832031 35.710938 23.011719 36.25 22.949219 C 36.796875 22.886719 36.964844 23.007812 36.546875 23.164062 C 36.269531 23.269531 36.269531 23.269531 36.648438 23.277344 C 37.25 23.292969 37.097656 23.460938 36.34375 23.617188 L 35.652344 23.757812 L 36.214844 23.816406 L 36.777344 23.871094 L 35.925781 23.960938 C 34.949219 24.0625 34.941406 24.203125 35.90625 24.257812 C 36.410156 24.289062 36.515625 24.316406 36.332031 24.382812 C 36.191406 24.433594 36.140625 24.5 36.207031 24.542969 C 36.28125 24.589844 36.242188 24.761719 36.085938 25.078125 C 35.664062 25.910156 35.570312 26.015625 35.246094 26.019531 L 34.9375 26.023438 L 35.191406 26.171875 C 35.375 26.277344 35.398438 26.324219 35.28125 26.324219 C 35.160156 26.328125 35.125 26.390625 35.164062 26.539062 C 35.191406 26.65625 35.171875 26.75 35.113281 26.75 C 35.058594 26.75 34.980469 26.867188 34.945312 27.011719 C 34.910156 27.15625 34.640625 27.6875 34.347656 28.191406 C 34.054688 28.695312 33.777344 29.203125 33.730469 29.320312 C 33.6875 29.433594 33.484375 29.773438 33.285156 30.074219 C 32.957031 30.566406 32.894531 30.609375 32.703125 30.503906 C 32.488281 30.390625 32.488281 30.394531 32.675781 30.609375 C 32.863281 30.824219 32.859375 30.839844 32.488281 31.527344 C 32.277344 31.914062 32.019531 32.316406 31.914062 32.425781 C 31.808594 32.535156 31.753906 32.621094 31.792969 32.621094 C 31.832031 32.621094 31.808594 32.679688 31.742188 32.746094 C 31.652344 32.839844 31.570312 32.824219 31.390625 32.667969 C 31.164062 32.472656 31.164062 32.472656 31.398438 32.746094 C 31.628906 33.015625 31.625 33.332031 31.390625 33.183594 C 31.320312 33.140625 31.308594 33.164062 31.359375 33.246094 C 31.460938 33.414062 31.210938 33.902344 31.054688 33.84375 C 30.976562 33.8125 30.953125 33.886719 30.984375 34.046875 C 31.007812 34.195312 30.980469 34.300781 30.914062 34.300781 C 30.851562 34.300781 30.800781 34.371094 30.800781 34.457031 C 30.800781 34.648438 30.683594 34.660156 30.503906 34.484375 C 30.390625 34.375 30.390625 34.394531 30.492188 34.597656 C 30.65625 34.925781 30.546875 35.011719 30.277344 34.765625 L 30.058594 34.5625 L 30.234375 34.914062 C 30.445312 35.339844 30.347656 35.496094 30.078125 35.15625 C 29.84375 34.859375 29.828125 34.933594 30.035156 35.347656 C 30.132812 35.539062 30.148438 35.675781 30.085938 35.71875 C 30.03125 35.753906 29.984375 35.742188 29.980469 35.695312 C 29.980469 35.652344 29.859375 35.472656 29.714844 35.296875 C 29.570312 35.125 29.472656 35.03125 29.5 35.089844 C 29.816406 35.769531 29.894531 35.992188 29.859375 36.101562 C 29.835938 36.175781 29.695312 36.050781 29.542969 35.820312 C 29.25 35.375 29.179688 35.394531 29.410156 35.855469 C 29.789062 36.621094 29.632812 36.558594 29.140625 35.742188 C 28.410156 34.53125 28.371094 34.511719 28.800781 35.554688 C 29 36.039062 29.148438 36.453125 29.132812 36.46875 C 29.117188 36.488281 28.992188 36.304688 28.859375 36.0625 C 28.527344 35.453125 28.5 35.691406 28.808594 36.5 C 28.949219 36.867188 29.042969 37.191406 29.019531 37.214844 C 28.996094 37.238281 28.769531 36.84375 28.515625 36.332031 C 28.261719 35.820312 28.050781 35.453125 28.050781 35.511719 C 28.042969 35.640625 28.429688 36.789062 28.566406 37.054688 C 28.621094 37.15625 28.628906 37.238281 28.582031 37.234375 C 28.539062 37.234375 28.347656 36.878906 28.15625 36.445312 C 27.964844 36.015625 27.792969 35.679688 27.773438 35.699219 C 27.753906 35.714844 27.847656 36.070312 27.980469 36.484375 C 28.15625 37.03125 28.183594 37.238281 28.089844 37.238281 C 28.019531 37.238281 27.90625 37.085938 27.839844 36.898438 C 27.773438 36.710938 27.695312 36.613281 27.667969 36.683594 C 27.644531 36.75 27.671875 36.902344 27.734375 37.023438 C 27.824219 37.195312 27.816406 37.238281 27.691406 37.238281 C 27.605469 37.238281 27.535156 37.179688 27.535156 37.105469 C 27.535156 37.03125 27.394531 36.640625 27.222656 36.238281 C 27.050781 35.835938 26.933594 35.648438 26.964844 35.820312 C 26.996094 35.996094 27.050781 36.300781 27.082031 36.503906 L 27.136719 36.871094 L 26.972656 36.609375 C 26.8125 36.347656 26.8125 36.347656 26.84375 36.792969 C 26.859375 37.039062 26.839844 37.238281 26.796875 37.238281 C 26.75 37.238281 26.714844 37.179688 26.710938 37.105469 C 26.710938 37.035156 26.640625 36.835938 26.558594 36.660156 L 26.414062 36.347656 L 26.4375 36.792969 C 26.46875 37.304688 26.355469 37.386719 26.257812 36.925781 C 26.15625 36.453125 25.96875 36.398438 26.019531 36.855469 C 26.042969 37.066406 26.027344 37.238281 25.980469 37.238281 C 25.9375 37.238281 25.898438 37.171875 25.898438 37.085938 C 25.898438 37.003906 25.84375 36.804688 25.777344 36.640625 L 25.660156 36.347656 L 25.589844 36.714844 C 25.527344 37.019531 25.515625 37.035156 25.503906 36.804688 C 25.492188 36.558594 25.1875 36.140625 25.179688 36.359375 C 25.179688 36.410156 25.117188 36.371094 25.046875 36.273438 C 24.894531 36.066406 24.46875 36.128906 24.46875 36.359375 C 24.46875 36.535156 24.304688 36.550781 24.203125 36.378906 C 24.152344 36.292969 24.101562 36.320312 24.050781 36.457031 C 23.980469 36.644531 23.972656 36.640625 23.964844 36.425781 C 23.960938 36.296875 23.917969 36.1875 23.871094 36.1875 C 23.761719 36.1875 23.625 37 23.707031 37.140625 C 23.742188 37.195312 23.546875 37.238281 23.257812 37.238281 C 22.757812 37.238281 22.746094 37.230469 22.707031 36.898438 L 22.667969 36.554688 L 22.480469 37.289062 L 22.425781 36.871094 C 22.394531 36.617188 22.324219 36.460938 22.246094 36.476562 C 22.171875 36.492188 22.121094 36.386719 22.117188 36.214844 C 22.117188 35.773438 21.933594 36.132812 21.851562 36.738281 L 21.789062 37.238281 L 21.277344 37.238281 C 20.773438 37.238281 20.769531 37.234375 20.839844 36.949219 C 20.996094 36.285156 21.015625 36.085938 20.914062 36.085938 C 20.855469 36.085938 20.785156 36.144531 20.757812 36.214844 C 20.730469 36.289062 20.703125 36.230469 20.699219 36.089844 C 20.6875 35.707031 20.535156 35.941406 20.339844 36.636719 C 20.1875 37.195312 20.152344 37.238281 19.871094 37.238281 C 19.703125 37.238281 19.566406 37.222656 19.566406 37.203125 C 19.566406 37.1875 19.640625 36.921875 19.726562 36.617188 C 19.816406 36.3125 19.863281 36.039062 19.832031 36.007812 C 19.777344 35.949219 19.363281 36.855469 19.363281 37.03125 C 19.363281 37.082031 19.316406 37.148438 19.261719 37.1875 C 19.203125 37.222656 19.160156 37.207031 19.160156 37.152344 Z M 19.976562 37.027344 C 19.976562 36.972656 19.957031 36.921875 19.929688 36.921875 C 19.90625 36.921875 19.855469 36.972656 19.824219 37.027344 C 19.789062 37.085938 19.808594 37.132812 19.867188 37.132812 C 19.925781 37.132812 19.976562 37.085938 19.976562 37.027344 Z M 23.449219 32.796875 C 23.449219 32.433594 23.652344 31.890625 23.78125 31.917969 C 23.839844 31.929688 23.945312 31.835938 24.011719 31.707031 C 24.078125 31.578125 24.160156 31.5 24.199219 31.539062 C 24.234375 31.578125 24.265625 31.507812 24.265625 31.382812 C 24.265625 31.078125 24.40625 31.09375 24.617188 31.425781 C 24.730469 31.597656 24.847656 31.671875 24.953125 31.632812 C 25.039062 31.597656 25.203125 31.652344 25.3125 31.753906 C 25.511719 31.9375 25.515625 31.933594 25.445312 31.601562 C 25.347656 31.148438 25.515625 31.160156 25.796875 31.625 C 25.917969 31.828125 26.058594 31.992188 26.105469 31.992188 C 26.152344 31.992188 26.167969 31.828125 26.132812 31.625 C 26.085938 31.304688 26.105469 31.257812 26.289062 31.257812 C 26.441406 31.257812 26.507812 31.179688 26.53125 30.972656 C 26.5625 30.6875 26.566406 30.6875 26.871094 31.148438 C 27.136719 31.554688 27.179688 31.582031 27.207031 31.382812 C 27.226562 31.257812 27.308594 31.15625 27.386719 31.15625 C 27.46875 31.15625 27.535156 31.0625 27.535156 30.949219 C 27.535156 30.644531 27.683594 30.609375 27.972656 30.839844 C 28.3125 31.117188 28.386719 31.105469 28.308594 30.789062 C 28.261719 30.59375 28.285156 30.523438 28.398438 30.523438 C 28.589844 30.523438 28.59375 30.34375 28.402344 30 C 28.128906 29.515625 28.191406 29.441406 28.808594 29.507812 C 29.324219 29.5625 29.523438 29.480469 29.269531 29.320312 C 29.097656 29.210938 29.15625 29.054688 29.371094 29.054688 C 29.484375 29.054688 29.574219 29.015625 29.574219 28.964844 C 29.574219 28.914062 29.484375 28.753906 29.371094 28.609375 C 29.171875 28.34375 29.113281 28.097656 29.222656 27.984375 C 29.277344 27.929688 29.859375 28.0625 30.46875 28.261719 C 30.890625 28.398438 30.726562 28.050781 30.191406 27.679688 C 29.910156 27.484375 29.683594 27.285156 29.679688 27.234375 C 29.679688 27.183594 29.894531 27.175781 30.164062 27.21875 C 30.558594 27.277344 30.625 27.265625 30.519531 27.15625 C 30.308594 26.929688 30.375 26.832031 30.699219 26.90625 C 31.136719 27.003906 31.085938 26.800781 30.597656 26.515625 C 30.175781 26.265625 30.078125 26.121094 30.34375 26.121094 C 30.425781 26.121094 30.496094 26.027344 30.496094 25.910156 C 30.496094 25.792969 30.542969 25.699219 30.601562 25.699219 C 30.660156 25.699219 30.695312 25.617188 30.679688 25.515625 C 30.652344 25.371094 30.746094 25.320312 31.128906 25.277344 C 31.734375 25.203125 31.816406 25.125 31.417969 24.984375 C 31.023438 24.839844 31.027344 24.785156 31.441406 24.667969 C 31.839844 24.554688 31.714844 24.492188 30.800781 24.367188 L 30.136719 24.277344 L 30.496094 24.164062 C 30.691406 24.097656 31.046875 23.988281 31.285156 23.914062 C 31.773438 23.761719 31.769531 23.601562 31.277344 23.601562 C 30.898438 23.601562 30.394531 23.390625 30.394531 23.234375 C 30.394531 23.175781 30.484375 23.070312 30.597656 22.996094 C 30.886719 22.808594 30.847656 22.679688 30.519531 22.738281 C 30.242188 22.789062 30.242188 22.785156 30.648438 22.34375 L 31.058594 21.902344 L 30.699219 21.976562 L 30.34375 22.054688 L 30.570312 21.796875 C 30.835938 21.503906 30.867188 21.292969 30.652344 21.292969 C 30.558594 21.292969 30.523438 21.234375 30.558594 21.136719 C 30.601562 21.023438 30.546875 20.980469 30.355469 20.980469 C 30.171875 20.980469 30.109375 20.933594 30.148438 20.832031 C 30.195312 20.707031 30.148438 20.707031 29.8125 20.828125 C 29.214844 21.046875 29.078125 21.023438 29.113281 20.710938 C 29.128906 20.566406 29.246094 20.328125 29.375 20.1875 C 29.570312 19.972656 29.582031 19.929688 29.441406 19.929688 C 29.226562 19.929688 29.226562 19.882812 29.433594 19.558594 C 29.640625 19.238281 29.589844 19.238281 28.960938 19.566406 C 28.679688 19.710938 28.453125 19.796875 28.453125 19.761719 C 28.453125 19.722656 28.550781 19.53125 28.667969 19.335938 C 28.785156 19.136719 28.867188 18.957031 28.84375 18.933594 C 28.824219 18.914062 28.585938 19.03125 28.324219 19.203125 C 27.789062 19.542969 27.742188 19.488281 28.042969 18.882812 C 28.15625 18.65625 28.25 18.390625 28.25 18.289062 C 28.25 18.136719 28.207031 18.148438 27.992188 18.355469 C 27.664062 18.675781 27.59375 18.589844 27.789062 18.105469 C 27.945312 17.726562 27.945312 17.71875 27.746094 17.828125 C 27.636719 17.890625 27.515625 17.988281 27.476562 18.050781 C 27.4375 18.113281 27.300781 18.136719 27.171875 18.105469 C 27.007812 18.0625 26.84375 18.121094 26.632812 18.304688 C 26.464844 18.449219 26.304688 18.566406 26.277344 18.566406 C 26.25 18.566406 26.238281 18.261719 26.25 17.886719 C 26.261719 17.511719 26.253906 17.203125 26.238281 17.203125 C 26.21875 17.203125 26.109375 17.261719 25.992188 17.335938 C 25.816406 17.445312 25.761719 17.4375 25.640625 17.269531 C 25.5625 17.160156 25.433594 17.097656 25.347656 17.132812 C 25.246094 17.171875 25.183594 17.113281 25.160156 16.960938 C 25.125 16.742188 25.113281 16.746094 24.980469 17.023438 C 24.820312 17.363281 24.683594 17.234375 24.667969 16.730469 C 24.660156 16.429688 24.65625 16.425781 24.550781 16.652344 C 24.40625 16.953125 24.222656 16.953125 24.09375 16.652344 C 23.996094 16.429688 23.984375 16.4375 23.851562 16.8125 C 23.6875 17.28125 23.554688 17.269531 23.394531 16.777344 L 23.273438 16.417969 L 23.195312 16.785156 C 23.152344 16.984375 23.027344 17.355469 22.917969 17.605469 C 22.757812 17.972656 22.695312 18.035156 22.578125 17.9375 C 22.5 17.871094 22.382812 17.652344 22.320312 17.453125 C 22.1875 17.039062 21.886719 17 21.832031 17.386719 C 21.785156 17.714844 21.84375 17.746094 20.964844 16.941406 C 20.613281 16.617188 20.605469 16.617188 20.664062 16.941406 C 20.71875 17.222656 20.601562 17.28125 20.40625 17.078125 C 20.308594 16.980469 20.28125 17.011719 20.28125 17.21875 C 20.28125 17.363281 20.246094 17.519531 20.207031 17.558594 C 20.164062 17.601562 20.128906 17.71875 20.128906 17.8125 C 20.128906 17.992188 20.058594 18.007812 19.75 17.882812 C 19.597656 17.824219 19.585938 17.855469 19.671875 18.15625 C 19.722656 18.347656 19.746094 18.523438 19.722656 18.546875 C 19.695312 18.574219 19.503906 18.441406 19.292969 18.25 C 18.875 17.875 18.75 17.957031 19 18.449219 C 19.226562 18.902344 19.203125 18.921875 18.777344 18.625 C 18.1875 18.210938 18.007812 18.269531 18.289062 18.777344 C 18.496094 19.144531 18.476562 19.300781 18.234375 19.300781 C 18.0625 19.300781 18.046875 19.335938 18.132812 19.503906 C 18.273438 19.777344 18.265625 19.824219 18.082031 19.824219 C 17.957031 19.824219 17.949219 19.867188 18.035156 20.039062 C 18.148438 20.25 18.140625 20.25 17.757812 20.082031 C 17.023438 19.757812 17.050781 19.757812 17.257812 20.085938 C 17.375 20.269531 17.410156 20.40625 17.347656 20.429688 C 17.289062 20.449219 17.265625 20.5625 17.296875 20.683594 C 17.34375 20.878906 17.320312 20.898438 17.082031 20.835938 C 16.761719 20.753906 16.71875 20.914062 16.984375 21.214844 C 17.105469 21.351562 17.125 21.433594 17.042969 21.484375 C 16.980469 21.523438 16.898438 21.734375 16.859375 21.949219 C 16.816406 22.171875 16.726562 22.34375 16.652344 22.34375 C 16.429688 22.34375 16.359375 22.574219 16.546875 22.679688 C 16.710938 22.773438 16.710938 22.789062 16.546875 22.910156 C 16.390625 23.03125 16.398438 23.0625 16.65625 23.269531 C 16.929688 23.488281 16.929688 23.496094 16.710938 23.496094 L 16.480469 23.496094 L 16.722656 23.703125 C 16.925781 23.882812 16.941406 23.929688 16.808594 24.019531 C 16.726562 24.074219 16.5625 24.125 16.445312 24.125 C 16.332031 24.125 16.148438 24.191406 16.046875 24.269531 C 15.871094 24.398438 15.886719 24.417969 16.230469 24.484375 C 16.738281 24.582031 16.703125 24.703125 16.121094 24.863281 C 15.371094 25.070312 15.371094 25.175781 16.125 25.175781 C 16.804688 25.175781 16.972656 25.277344 16.628906 25.480469 C 16.53125 25.539062 16.496094 25.589844 16.554688 25.59375 C 16.609375 25.59375 16.496094 25.679688 16.300781 25.777344 C 15.808594 26.03125 15.761719 26.328125 16.214844 26.332031 C 16.527344 26.332031 16.917969 26.484375 16.804688 26.558594 C 16.507812 26.757812 16.3125 26.871094 16.121094 26.957031 C 15.992188 27.011719 15.890625 27.082031 15.890625 27.105469 C 15.890625 27.132812 16.289062 27.132812 16.777344 27.105469 C 17.640625 27.054688 17.660156 27.058594 17.492188 27.25 C 17.265625 27.511719 17.273438 27.589844 17.535156 27.589844 C 17.820312 27.589844 18.546875 28.335938 18.546875 28.628906 C 18.546875 28.933594 18.316406 29.367188 17.992188 29.679688 C 17.621094 30.035156 17.664062 30.164062 18.074219 29.902344 C 18.539062 29.609375 18.667969 29.621094 18.585938 29.960938 C 18.523438 30.214844 18.53125 30.226562 18.746094 30.109375 C 19.027344 29.953125 19.105469 30.023438 18.960938 30.300781 C 18.808594 30.59375 18.824219 30.738281 19.003906 30.667969 C 19.105469 30.628906 19.160156 30.671875 19.160156 30.796875 C 19.160156 30.953125 19.203125 30.941406 19.445312 30.703125 C 19.730469 30.417969 19.945312 30.324219 19.816406 30.53125 C 19.707031 30.714844 19.675781 31.785156 19.78125 31.785156 C 19.832031 31.785156 20.027344 31.566406 20.207031 31.300781 C 20.464844 30.929688 20.546875 30.863281 20.574219 31.015625 C 20.59375 31.121094 20.675781 31.246094 20.753906 31.289062 C 20.832031 31.335938 20.894531 31.433594 20.894531 31.503906 C 20.894531 31.574219 20.988281 31.714844 21.101562 31.8125 C 21.253906 31.945312 21.289062 32.070312 21.246094 32.28125 C 21.203125 32.484375 21.253906 32.429688 21.421875 32.097656 C 21.550781 31.839844 21.664062 31.609375 21.675781 31.589844 C 21.6875 31.574219 21.796875 31.613281 21.917969 31.679688 C 22.097656 31.78125 22.132812 31.867188 22.085938 32.132812 L 22.027344 32.464844 L 22.199219 32.214844 C 22.296875 32.074219 22.421875 31.828125 22.476562 31.664062 C 22.601562 31.300781 22.761719 31.269531 22.851562 31.59375 C 22.886719 31.726562 22.925781 31.789062 22.9375 31.730469 C 22.972656 31.542969 23.121094 32.144531 23.132812 32.527344 C 23.136719 32.734375 23.171875 32.933594 23.210938 32.972656 C 23.347656 33.113281 23.449219 33.035156 23.449219 32.796875 Z M 17.207031 26.625 C 17.109375 26.4375 17.121094 26.375 17.265625 26.265625 C 17.363281 26.191406 17.507812 26.160156 17.585938 26.191406 C 17.804688 26.277344 17.753906 26.421875 17.523438 26.359375 C 17.382812 26.320312 17.320312 26.355469 17.320312 26.46875 C 17.320312 26.695312 17.527344 26.804688 17.636719 26.632812 C 17.707031 26.515625 17.726562 26.523438 17.726562 26.671875 C 17.730469 26.933594 17.351562 26.902344 17.207031 26.625 Z M 21.144531 25.902344 C 21.109375 25.839844 21.101562 25.769531 21.128906 25.742188 C 21.152344 25.714844 21.203125 25.761719 21.234375 25.851562 C 21.304688 26.039062 21.246094 26.070312 21.144531 25.902344 Z M 25.664062 25.804688 C 25.695312 25.6875 25.734375 25.59375 25.757812 25.59375 C 25.78125 25.59375 25.796875 25.6875 25.796875 25.804688 C 25.796875 25.921875 25.753906 26.015625 25.703125 26.015625 C 25.652344 26.015625 25.636719 25.921875 25.664062 25.804688 Z M 25.082031 24.546875 C 25.023438 24.429688 24.996094 24.335938 25.023438 24.335938 C 25.050781 24.335938 25.125 24.429688 25.183594 24.546875 C 25.246094 24.660156 25.269531 24.753906 25.242188 24.753906 C 25.214844 24.753906 25.140625 24.660156 25.082031 24.546875 Z M 22.9375 22.34375 C 22.996094 22.226562 23.070312 22.132812 23.097656 22.132812 C 23.125 22.132812 23.097656 22.226562 23.039062 22.34375 C 22.980469 22.457031 22.90625 22.554688 22.878906 22.554688 C 22.851562 22.554688 22.878906 22.457031 22.9375 22.34375 Z M 17.929688 29.371094 C 18.035156 29.316406 18.175781 29.101562 18.242188 28.894531 C 18.386719 28.433594 18.203125 28.085938 17.671875 27.828125 C 17.324219 27.65625 17.316406 27.65625 17.011719 27.957031 C 16.4375 28.523438 16.695312 29.476562 17.429688 29.476562 C 17.601562 29.476562 17.828125 29.429688 17.929688 29.371094 Z M 14.800781 24.714844 C 14.832031 24.632812 14.792969 24.480469 14.71875 24.375 C 14.605469 24.214844 14.558594 24.207031 14.421875 24.328125 C 14.164062 24.546875 14.210938 24.859375 14.5 24.859375 C 14.636719 24.859375 14.769531 24.792969 14.800781 24.714844 Z M 16.535156 22.253906 C 16.785156 21.957031 16.839844 21.355469 16.632812 21.167969 C 16.324219 20.894531 15.960938 20.863281 15.605469 21.085938 C 15.339844 21.25 15.277344 21.359375 15.277344 21.640625 C 15.277344 22.351562 16.109375 22.757812 16.535156 22.253906 Z M 14.945312 18.933594 C 14.988281 18.597656 14.832031 18.441406 14.527344 18.519531 C 14.332031 18.570312 14.257812 18.65625 14.257812 18.832031 C 14.257812 19.234375 14.898438 19.328125 14.945312 18.933594 Z M 19.1875 15.621094 C 19.320312 15.558594 19.511719 15.367188 19.609375 15.195312 C 19.835938 14.804688 19.703125 14.394531 19.265625 14.128906 C 18.886719 13.898438 18.734375 13.90625 18.40625 14.167969 C 18.257812 14.289062 18.097656 14.359375 18.050781 14.328125 C 18 14.296875 17.996094 14.484375 18.046875 14.765625 C 18.105469 15.089844 18.226562 15.34375 18.398438 15.5 C 18.691406 15.761719 18.835938 15.785156 19.1875 15.621094 Z M 21.898438 14.753906 C 21.949219 14.488281 21.777344 14.335938 21.519531 14.421875 C 21.308594 14.488281 21.226562 14.785156 21.375 14.933594 C 21.507812 15.074219 21.863281 14.949219 21.898438 14.753906 Z M 22.019531 13.457031 C 22.019531 13.101562 22.003906 13.082031 21.855469 13.234375 C 21.726562 13.367188 21.714844 13.449219 21.808594 13.625 C 21.972656 13.941406 22.019531 13.902344 22.019531 13.457031 Z M 20.488281 36.910156 C 20.59375 36.539062 20.691406 36.394531 20.6875 36.617188 C 20.6875 36.878906 20.566406 37.238281 20.480469 37.238281 C 20.4375 37.238281 20.441406 37.089844 20.488281 36.910156 Z M 24.375 37.070312 C 24.378906 36.949219 24.40625 36.925781 24.4375 37.007812 C 24.464844 37.085938 24.460938 37.175781 24.429688 37.210938 C 24.394531 37.246094 24.371094 37.183594 24.375 37.070312 Z M 24.726562 37.132812 C 24.757812 37.074219 24.808594 37.027344 24.832031 37.027344 C 24.859375 37.027344 24.878906 37.074219 24.878906 37.132812 C 24.878906 37.191406 24.828125 37.238281 24.769531 37.238281 C 24.710938 37.238281 24.691406 37.191406 24.726562 37.132812 Z M 11.015625 23.109375 C 11.113281 23.082031 11.253906 23.085938 11.320312 23.113281 C 11.390625 23.140625 11.308594 23.164062 11.140625 23.160156 C 10.972656 23.160156 10.914062 23.136719 11.015625 23.109375 Z M 10.96875 22.691406 C 11.042969 22.660156 11.128906 22.664062 11.164062 22.699219 C 11.199219 22.734375 11.136719 22.757812 11.03125 22.753906 C 10.910156 22.75 10.886719 22.726562 10.96875 22.691406 Z M 35.5 22.34375 C 35.582031 22.289062 35.765625 22.242188 35.898438 22.238281 C 36.226562 22.238281 36.144531 22.296875 35.703125 22.378906 C 35.453125 22.429688 35.390625 22.417969 35.5 22.34375 Z M 11.070312 22.273438 C 11.144531 22.242188 11.234375 22.246094 11.265625 22.28125 C 11.300781 22.316406 11.238281 22.339844 11.132812 22.335938 C 11.011719 22.328125 10.988281 22.304688 11.070312 22.273438 Z M 10.9375 21.921875 C 10.753906 21.84375 10.761719 21.832031 11.007812 21.824219 C 11.160156 21.820312 11.3125 21.867188 11.34375 21.921875 C 11.421875 22.050781 11.21875 22.050781 10.9375 21.921875 Z M 16.53125 13.820312 C 16.332031 13.554688 16.265625 13.390625 16.382812 13.46875 C 16.503906 13.546875 16.746094 13.953125 16.671875 13.953125 C 16.648438 13.953125 16.585938 13.894531 16.53125 13.820312 Z M 16.53125 13.820312 "/>
<path style=" stroke:none;fill-rule:nonzero;fill:rgb(1.568627%,1.568627%,1.568627%);fill-opacity:1;" d="M 23.210938 32.972656 C 23.171875 32.933594 23.136719 32.734375 23.132812 32.527344 C 23.121094 32.144531 22.972656 31.542969 22.9375 31.730469 C 22.925781 31.789062 22.886719 31.726562 22.851562 31.59375 C 22.761719 31.269531 22.601562 31.300781 22.476562 31.664062 C 22.421875 31.828125 22.296875 32.074219 22.199219 32.214844 L 22.027344 32.464844 L 22.085938 32.132812 C 22.132812 31.867188 22.097656 31.78125 21.917969 31.679688 C 21.796875 31.613281 21.6875 31.574219 21.675781 31.589844 C 21.664062 31.609375 21.550781 31.839844 21.421875 32.097656 C 21.253906 32.429688 21.203125 32.484375 21.246094 32.28125 C 21.289062 32.070312 21.253906 31.945312 21.101562 31.8125 C 20.988281 31.714844 20.894531 31.574219 20.894531 31.503906 C 20.894531 31.433594 20.832031 31.335938 20.753906 31.289062 C 20.675781 31.246094 20.59375 31.121094 20.574219 31.015625 C 20.546875 30.863281 20.464844 30.925781 20.207031 31.300781 C 20.027344 31.566406 19.832031 31.785156 19.78125 31.785156 C 19.675781 31.785156 19.707031 30.714844 19.816406 30.53125 C 19.945312 30.324219 19.730469 30.417969 19.445312 30.703125 C 19.203125 30.941406 19.160156 30.953125 19.160156 30.796875 C 19.160156 30.671875 19.105469 30.628906 19.003906 30.667969 C 18.824219 30.738281 18.808594 30.59375 18.960938 30.300781 C 19.105469 30.023438 19.027344 29.953125 18.746094 30.109375 C 18.53125 30.226562 18.523438 30.214844 18.585938 29.960938 C 18.667969 29.621094 18.539062 29.609375 18.074219 29.902344 C 17.664062 30.164062 17.621094 30.035156 17.992188 29.679688 C 18.316406 29.367188 18.546875 28.933594 18.546875 28.628906 C 18.546875 28.335938 17.820312 27.589844 17.535156 27.589844 C 17.273438 27.589844 17.265625 27.511719 17.492188 27.25 C 17.660156 27.058594 17.640625 27.054688 16.777344 27.105469 C 16.289062 27.132812 15.890625 27.132812 15.890625 27.105469 C 15.890625 27.082031 15.992188 27.011719 16.121094 26.957031 C 16.3125 26.871094 16.507812 26.757812 16.804688 26.558594 C 16.917969 26.484375 16.527344 26.332031 16.214844 26.332031 C 15.761719 26.328125 15.808594 26.03125 16.300781 25.777344 C 16.496094 25.679688 16.609375 25.59375 16.554688 25.59375 C 16.496094 25.589844 16.53125 25.539062 16.628906 25.480469 C 16.972656 25.277344 16.804688 25.175781 16.125 25.175781 C 15.371094 25.175781 15.371094 25.070312 16.121094 24.863281 C 16.703125 24.703125 16.738281 24.582031 16.230469 24.484375 C 15.886719 24.417969 15.871094 24.398438 16.046875 24.269531 C 16.148438 24.191406 16.332031 24.125 16.445312 24.125 C 16.5625 24.125 16.726562 24.074219 16.808594 24.019531 C 16.941406 23.929688 16.925781 23.882812 16.722656 23.703125 L 16.480469 23.496094 L 16.710938 23.496094 C 16.929688 23.496094 16.929688 23.488281 16.65625 23.269531 C 16.398438 23.0625 16.390625 23.03125 16.546875 22.910156 C 16.710938 22.789062 16.710938 22.773438 16.546875 22.679688 C 16.359375 22.574219 16.429688 22.34375 16.652344 22.34375 C 16.726562 22.34375 16.816406 22.171875 16.859375 21.949219 C 16.898438 21.734375 16.980469 21.523438 17.042969 21.484375 C 17.125 21.433594 17.105469 21.351562 16.984375 21.214844 C 16.71875 20.914062 16.761719 20.753906 17.082031 20.835938 C 17.320312 20.898438 17.34375 20.878906 17.296875 20.683594 C 17.265625 20.5625 17.289062 20.449219 17.347656 20.429688 C 17.410156 20.40625 17.375 20.269531 17.257812 20.085938 C 17.050781 19.757812 17.023438 19.757812 17.757812 20.082031 C 18.140625 20.25 18.148438 20.25 18.035156 20.039062 C 17.949219 19.867188 17.957031 19.824219 18.082031 19.824219 C 18.265625 19.824219 18.273438 19.777344 18.132812 19.503906 C 18.046875 19.335938 18.0625 19.300781 18.234375 19.300781 C 18.476562 19.300781 18.496094 19.144531 18.289062 18.777344 C 18.007812 18.269531 18.1875 18.210938 18.777344 18.625 C 19.203125 18.921875 19.226562 18.902344 19 18.449219 C 18.75 17.957031 18.875 17.875 19.292969 18.25 C 19.503906 18.441406 19.695312 18.574219 19.722656 18.546875 C 19.746094 18.523438 19.722656 18.347656 19.671875 18.15625 C 19.585938 17.855469 19.597656 17.820312 19.75 17.882812 C 20.058594 18.007812 20.128906 17.992188 20.128906 17.8125 C 20.128906 17.71875 20.164062 17.601562 20.207031 17.558594 C 20.246094 17.519531 20.28125 17.363281 20.28125 17.21875 C 20.28125 17.011719 20.308594 16.980469 20.40625 17.078125 C 20.601562 17.28125 20.71875 17.222656 20.664062 16.941406 C 20.605469 16.617188 20.613281 16.617188 20.964844 16.941406 C 21.847656 17.746094 21.785156 17.714844 21.832031 17.386719 C 21.886719 17 22.1875 17.039062 22.320312 17.453125 C 22.382812 17.652344 22.5 17.871094 22.578125 17.9375 C 22.695312 18.035156 22.757812 17.972656 22.917969 17.605469 C 23.027344 17.355469 23.152344 16.984375 23.195312 16.785156 L 23.273438 16.417969 L 23.394531 16.777344 C 23.558594 17.269531 23.6875 17.28125 23.851562 16.8125 C 23.984375 16.4375 23.996094 16.429688 24.09375 16.652344 C 24.222656 16.953125 24.40625 16.953125 24.550781 16.652344 C 24.65625 16.425781 24.660156 16.429688 24.667969 16.730469 C 24.683594 17.234375 24.820312 17.363281 24.980469 17.023438 C 25.113281 16.746094 25.125 16.742188 25.160156 16.960938 C 25.183594 17.113281 25.246094 17.171875 25.347656 17.132812 C 25.433594 17.097656 25.5625 17.160156 25.640625 17.269531 C 25.761719 17.4375 25.816406 17.445312 25.992188 17.335938 C 26.109375 17.261719 26.21875 17.203125 26.238281 17.203125 C 26.253906 17.203125 26.261719 17.511719 26.25 17.886719 C 26.238281 18.261719 26.25 18.566406 26.277344 18.566406 C 26.304688 18.566406 26.464844 18.449219 26.632812 18.304688 C 26.84375 18.121094 27.007812 18.0625 27.171875 18.101562 C 27.300781 18.136719 27.4375 18.113281 27.476562 18.050781 C 27.515625 17.988281 27.636719 17.890625 27.746094 17.828125 C 27.945312 17.71875 27.945312 17.726562 27.789062 18.105469 C 27.59375 18.589844 27.664062 18.675781 27.992188 18.355469 C 28.207031 18.148438 28.25 18.136719 28.25 18.289062 C 28.25 18.390625 28.15625 18.65625 28.042969 18.882812 C 27.742188 19.488281 27.789062 19.542969 28.324219 19.203125 C 28.589844 19.03125 28.824219 18.914062 28.84375 18.933594 C 28.867188 18.957031 28.789062 19.136719 28.667969 19.335938 C 28.550781 19.53125 28.453125 19.722656 28.453125 19.761719 C 28.453125 19.796875 28.679688 19.710938 28.960938 19.566406 C 29.589844 19.238281 29.640625 19.238281 29.433594 19.558594 C 29.226562 19.882812 29.226562 19.929688 29.441406 19.929688 C 29.582031 19.929688 29.570312 19.972656 29.375 20.1875 C 29.246094 20.328125 29.128906 20.566406 29.113281 20.710938 C 29.078125 21.023438 29.214844 21.046875 29.8125 20.828125 C 30.148438 20.707031 30.195312 20.707031 30.148438 20.832031 C 30.109375 20.933594 30.171875 20.980469 30.355469 20.980469 C 30.546875 20.980469 30.601562 21.023438 30.558594 21.136719 C 30.523438 21.234375 30.558594 21.292969 30.652344 21.292969 C 30.867188 21.292969 30.835938 21.503906 30.570312 21.796875 L 30.34375 22.054688 L 30.699219 21.976562 L 31.058594 21.902344 L 30.648438 22.34375 C 30.242188 22.785156 30.242188 22.789062 30.519531 22.738281 C 30.847656 22.679688 30.886719 22.808594 30.597656 22.996094 C 30.484375 23.070312 30.394531 23.175781 30.394531 23.234375 C 30.394531 23.390625 30.898438 23.601562 31.277344 23.601562 C 31.769531 23.601562 31.773438 23.761719 31.285156 23.914062 C 31.046875 23.988281 30.691406 24.097656 30.496094 24.164062 L 30.136719 24.277344 L 30.800781 24.367188 C 31.714844 24.492188 31.839844 24.554688 31.441406 24.667969 C 31.027344 24.785156 31.023438 24.839844 31.417969 24.984375 C 31.816406 25.125 31.734375 25.203125 31.128906 25.277344 C 30.746094 25.320312 30.65625 25.371094 30.679688 25.515625 C 30.695312 25.617188 30.660156 25.699219 30.601562 25.699219 C 30.542969 25.699219 30.496094 25.792969 30.496094 25.910156 C 30.496094 26.027344 30.425781 26.121094 30.34375 26.121094 C 30.078125 26.121094 30.175781 26.265625 30.597656 26.515625 C 31.085938 26.800781 31.136719 27.003906 30.699219 26.90625 C 30.375 26.832031 30.308594 26.929688 30.519531 27.15625 C 30.625 27.265625 30.558594 27.277344 30.164062 27.21875 C 29.894531 27.175781 29.679688 27.183594 29.679688 27.234375 C 29.683594 27.285156 29.910156 27.484375 30.191406 27.679688 C 30.726562 28.050781 30.890625 28.398438 30.46875 28.261719 C 29.859375 28.0625 29.277344 27.929688 29.222656 27.984375 C 29.113281 28.097656 29.171875 28.34375 29.371094 28.609375 C 29.484375 28.753906 29.574219 28.914062 29.574219 28.964844 C 29.574219 29.015625 29.484375 29.054688 29.371094 29.054688 C 29.15625 29.054688 29.097656 29.210938 29.269531 29.320312 C 29.523438 29.480469 29.324219 29.5625 28.808594 29.507812 C 28.191406 29.441406 28.128906 29.515625 28.402344 30 C 28.59375 30.34375 28.589844 30.523438 28.398438 30.523438 C 28.285156 30.523438 28.261719 30.59375 28.308594 30.789062 C 28.386719 31.105469 28.3125 31.117188 27.972656 30.839844 C 27.683594 30.609375 27.535156 30.644531 27.535156 30.949219 C 27.535156 31.0625 27.46875 31.15625 27.386719 31.15625 C 27.308594 31.15625 27.226562 31.257812 27.207031 31.382812 C 27.179688 31.582031 27.136719 31.554688 26.871094 31.148438 C 26.566406 30.6875 26.5625 30.6875 26.53125 30.972656 C 26.507812 31.179688 26.441406 31.257812 26.289062 31.257812 C 26.105469 31.257812 26.085938 31.304688 26.132812 31.625 C 26.167969 31.828125 26.152344 31.992188 26.105469 31.992188 C 26.058594 31.992188 25.917969 31.828125 25.796875 31.625 C 25.515625 31.160156 25.347656 31.148438 25.445312 31.601562 C 25.515625 31.933594 25.511719 31.9375 25.3125 31.753906 C 25.203125 31.652344 25.039062 31.597656 24.953125 31.632812 C 24.847656 31.671875 24.730469 31.597656 24.617188 31.425781 C 24.40625 31.09375 24.265625 31.078125 24.265625 31.382812 C 24.265625 31.507812 24.234375 31.578125 24.199219 31.539062 C 24.160156 31.5 24.078125 31.578125 24.011719 31.707031 C 23.945312 31.835938 23.839844 31.929688 23.78125 31.917969 C 23.652344 31.890625 23.449219 32.433594 23.449219 32.796875 C 23.449219 33.035156 23.347656 33.113281 23.210938 32.972656 Z M 17.730469 26.550781 C 17.730469 26.203125 17.523438 26.074219 17.265625 26.265625 C 17.121094 26.375 17.109375 26.4375 17.207031 26.625 C 17.273438 26.75 17.417969 26.855469 17.527344 26.855469 C 17.679688 26.855469 17.730469 26.78125 17.730469 26.550781 Z M 25.796875 25.84375 C 25.796875 25.65625 23.828125 22.070312 23.585938 21.820312 C 23.453125 21.679688 23.410156 21.691406 23.226562 21.921875 C 23.109375 22.066406 22.882812 22.457031 22.722656 22.785156 C 22.558594 23.117188 22.214844 23.753906 21.957031 24.203125 C 21.285156 25.367188 21.082031 25.796875 21.152344 25.914062 C 21.1875 25.972656 22.140625 26.015625 23.503906 26.015625 C 25.550781 26.015625 25.796875 25.996094 25.796875 25.84375 Z M 25.796875 25.84375 "/>
</g>
</svg>
