
<svg xmlns="http://www.w3.org/2000/svg" xmlns:xlink="http://www.w3.org/1999/xlink" width="48px" height="48px" viewBox="0 0 48 48" version="1.1">
<defs>
<clipPath id="clip1">
  <path d="M 17 22 L 34 22 L 34 29 L 17 29 Z M 17 22 "/>
</clipPath>
<clipPath id="clip2">
  <path d="M 5.378906 6.058594 L 41.625 6.058594 C 43.734375 6.058594 45.441406 7.214844 45.441406 8.640625 L 45.441406 33.1875 C 45.441406 34.613281 43.734375 35.769531 41.625 35.769531 L 5.378906 35.769531 C 3.273438 35.769531 1.566406 34.613281 1.566406 33.1875 L 1.566406 8.640625 C 1.566406 7.214844 3.273438 6.058594 5.378906 6.058594 Z M 5.378906 6.058594 "/>
</clipPath>
<clipPath id="clip3">
  <path d="M 14 22 L 21 22 L 21 29 L 14 29 Z M 14 22 "/>
</clipPath>
<clipPath id="clip4">
  <path d="M 5.378906 6.058594 L 41.625 6.058594 C 43.734375 6.058594 45.441406 7.214844 45.441406 8.640625 L 45.441406 33.1875 C 45.441406 34.613281 43.734375 35.769531 41.625 35.769531 L 5.378906 35.769531 C 3.273438 35.769531 1.566406 34.613281 1.566406 33.1875 L 1.566406 8.640625 C 1.566406 7.214844 3.273438 6.058594 5.378906 6.058594 Z M 5.378906 6.058594 "/>
</clipPath>
<clipPath id="clip5">
  <path d="M 28 23 L 34 23 L 34 28 L 28 28 Z M 28 23 "/>
</clipPath>
<clipPath id="clip6">
  <path d="M 5.378906 6.058594 L 41.625 6.058594 C 43.734375 6.058594 45.441406 7.214844 45.441406 8.640625 L 45.441406 33.1875 C 45.441406 34.613281 43.734375 35.769531 41.625 35.769531 L 5.378906 35.769531 C 3.273438 35.769531 1.566406 34.613281 1.566406 33.1875 L 1.566406 8.640625 C 1.566406 7.214844 3.273438 6.058594 5.378906 6.058594 Z M 5.378906 6.058594 "/>
</clipPath>
<clipPath id="clip7">
  <path d="M 28 23 L 34 23 L 34 27 L 28 27 Z M 28 23 "/>
</clipPath>
<clipPath id="clip8">
  <path d="M 5.378906 6.058594 L 41.625 6.058594 C 43.734375 6.058594 45.441406 7.214844 45.441406 8.640625 L 45.441406 33.1875 C 45.441406 34.613281 43.734375 35.769531 41.625 35.769531 L 5.378906 35.769531 C 3.273438 35.769531 1.566406 34.613281 1.566406 33.1875 L 1.566406 8.640625 C 1.566406 7.214844 3.273438 6.058594 5.378906 6.058594 Z M 5.378906 6.058594 "/>
</clipPath>
<clipPath id="clip9">
  <path d="M 15 17 L 32 17 L 32 23 L 15 23 Z M 15 17 "/>
</clipPath>
<clipPath id="clip10">
  <path d="M 5.378906 6.058594 L 41.625 6.058594 C 43.734375 6.058594 45.441406 7.214844 45.441406 8.640625 L 45.441406 33.1875 C 45.441406 34.613281 43.734375 35.769531 41.625 35.769531 L 5.378906 35.769531 C 3.273438 35.769531 1.566406 34.613281 1.566406 33.1875 L 1.566406 8.640625 C 1.566406 7.214844 3.273438 6.058594 5.378906 6.058594 Z M 5.378906 6.058594 "/>
</clipPath>
<clipPath id="clip11">
  <path d="M 12 17 L 19 17 L 19 23 L 12 23 Z M 12 17 "/>
</clipPath>
<clipPath id="clip12">
  <path d="M 5.378906 6.058594 L 41.625 6.058594 C 43.734375 6.058594 45.441406 7.214844 45.441406 8.640625 L 45.441406 33.1875 C 45.441406 34.613281 43.734375 35.769531 41.625 35.769531 L 5.378906 35.769531 C 3.273438 35.769531 1.566406 34.613281 1.566406 33.1875 L 1.566406 8.640625 C 1.566406 7.214844 3.273438 6.058594 5.378906 6.058594 Z M 5.378906 6.058594 "/>
</clipPath>
<clipPath id="clip13">
  <path d="M 25 18 L 32 18 L 32 23 L 25 23 Z M 25 18 "/>
</clipPath>
<clipPath id="clip14">
  <path d="M 5.378906 6.058594 L 41.625 6.058594 C 43.734375 6.058594 45.441406 7.214844 45.441406 8.640625 L 45.441406 33.1875 C 45.441406 34.613281 43.734375 35.769531 41.625 35.769531 L 5.378906 35.769531 C 3.273438 35.769531 1.566406 34.613281 1.566406 33.1875 L 1.566406 8.640625 C 1.566406 7.214844 3.273438 6.058594 5.378906 6.058594 Z M 5.378906 6.058594 "/>
</clipPath>
<clipPath id="clip15">
  <path d="M 25 18 L 32 18 L 32 22 L 25 22 Z M 25 18 "/>
</clipPath>
<clipPath id="clip16">
  <path d="M 5.378906 6.058594 L 41.625 6.058594 C 43.734375 6.058594 45.441406 7.214844 45.441406 8.640625 L 45.441406 33.1875 C 45.441406 34.613281 43.734375 35.769531 41.625 35.769531 L 5.378906 35.769531 C 3.273438 35.769531 1.566406 34.613281 1.566406 33.1875 L 1.566406 8.640625 C 1.566406 7.214844 3.273438 6.058594 5.378906 6.058594 Z M 5.378906 6.058594 "/>
</clipPath>
<clipPath id="clip17">
  <path d="M 17 12 L 34 12 L 34 18 L 17 18 Z M 17 12 "/>
</clipPath>
<clipPath id="clip18">
  <path d="M 5.378906 6.058594 L 41.625 6.058594 C 43.734375 6.058594 45.441406 7.214844 45.441406 8.640625 L 45.441406 33.1875 C 45.441406 34.613281 43.734375 35.769531 41.625 35.769531 L 5.378906 35.769531 C 3.273438 35.769531 1.566406 34.613281 1.566406 33.1875 L 1.566406 8.640625 C 1.566406 7.214844 3.273438 6.058594 5.378906 6.058594 Z M 5.378906 6.058594 "/>
</clipPath>
<clipPath id="clip19">
  <path d="M 14 12 L 21 12 L 21 18 L 14 18 Z M 14 12 "/>
</clipPath>
<clipPath id="clip20">
  <path d="M 5.378906 6.058594 L 41.625 6.058594 C 43.734375 6.058594 45.441406 7.214844 45.441406 8.640625 L 45.441406 33.1875 C 45.441406 34.613281 43.734375 35.769531 41.625 35.769531 L 5.378906 35.769531 C 3.273438 35.769531 1.566406 34.613281 1.566406 33.1875 L 1.566406 8.640625 C 1.566406 7.214844 3.273438 6.058594 5.378906 6.058594 Z M 5.378906 6.058594 "/>
</clipPath>
<clipPath id="clip21">
  <path d="M 28 13 L 34 13 L 34 18 L 28 18 Z M 28 13 "/>
</clipPath>
<clipPath id="clip22">
  <path d="M 5.378906 6.058594 L 41.625 6.058594 C 43.734375 6.058594 45.441406 7.214844 45.441406 8.640625 L 45.441406 33.1875 C 45.441406 34.613281 43.734375 35.769531 41.625 35.769531 L 5.378906 35.769531 C 3.273438 35.769531 1.566406 34.613281 1.566406 33.1875 L 1.566406 8.640625 C 1.566406 7.214844 3.273438 6.058594 5.378906 6.058594 Z M 5.378906 6.058594 "/>
</clipPath>
<clipPath id="clip23">
  <path d="M 28 13 L 34 13 L 34 17 L 28 17 Z M 28 13 "/>
</clipPath>
<clipPath id="clip24">
  <path d="M 5.378906 6.058594 L 41.625 6.058594 C 43.734375 6.058594 45.441406 7.214844 45.441406 8.640625 L 45.441406 33.1875 C 45.441406 34.613281 43.734375 35.769531 41.625 35.769531 L 5.378906 35.769531 C 3.273438 35.769531 1.566406 34.613281 1.566406 33.1875 L 1.566406 8.640625 C 1.566406 7.214844 3.273438 6.058594 5.378906 6.058594 Z M 5.378906 6.058594 "/>
</clipPath>
<clipPath id="clip25">
  <path d="M 18 23 L 35 23 L 35 29 L 18 29 Z M 18 23 "/>
</clipPath>
<clipPath id="clip26">
  <path d="M 6.796875 45.5625 L 41.484375 45.5625 C 43.5 45.5625 45.132812 44.390625 45.132812 42.949219 L 45.132812 18.121094 C 45.132812 16.679688 43.5 15.507812 41.484375 15.507812 L 6.796875 15.507812 C 4.78125 15.507812 3.144531 16.679688 3.144531 18.121094 L 3.144531 42.949219 C 3.144531 44.390625 4.78125 45.5625 6.796875 45.5625 Z M 6.796875 45.5625 "/>
</clipPath>
<clipPath id="clip27">
  <path d="M 15 23 L 22 23 L 22 29 L 15 29 Z M 15 23 "/>
</clipPath>
<clipPath id="clip28">
  <path d="M 6.796875 45.5625 L 41.484375 45.5625 C 43.5 45.5625 45.132812 44.390625 45.132812 42.949219 L 45.132812 18.121094 C 45.132812 16.679688 43.5 15.507812 41.484375 15.507812 L 6.796875 15.507812 C 4.78125 15.507812 3.144531 16.679688 3.144531 18.121094 L 3.144531 42.949219 C 3.144531 44.390625 4.78125 45.5625 6.796875 45.5625 Z M 6.796875 45.5625 "/>
</clipPath>
<clipPath id="clip29">
  <path d="M 28 24 L 35 24 L 35 28 L 28 28 Z M 28 24 "/>
</clipPath>
<clipPath id="clip30">
  <path d="M 6.796875 45.5625 L 41.484375 45.5625 C 43.5 45.5625 45.132812 44.390625 45.132812 42.949219 L 45.132812 18.121094 C 45.132812 16.679688 43.5 15.507812 41.484375 15.507812 L 6.796875 15.507812 C 4.78125 15.507812 3.144531 16.679688 3.144531 18.121094 L 3.144531 42.949219 C 3.144531 44.390625 4.78125 45.5625 6.796875 45.5625 Z M 6.796875 45.5625 "/>
</clipPath>
<clipPath id="clip31">
  <path d="M 16 28 L 32 28 L 32 34 L 16 34 Z M 16 28 "/>
</clipPath>
<clipPath id="clip32">
  <path d="M 6.796875 45.5625 L 41.484375 45.5625 C 43.5 45.5625 45.132812 44.390625 45.132812 42.949219 L 45.132812 18.121094 C 45.132812 16.679688 43.5 15.507812 41.484375 15.507812 L 6.796875 15.507812 C 4.78125 15.507812 3.144531 16.679688 3.144531 18.121094 L 3.144531 42.949219 C 3.144531 44.390625 4.78125 45.5625 6.796875 45.5625 Z M 6.796875 45.5625 "/>
</clipPath>
<clipPath id="clip33">
  <path d="M 13 28 L 20 28 L 20 34 L 13 34 Z M 13 28 "/>
</clipPath>
<clipPath id="clip34">
  <path d="M 6.796875 45.5625 L 41.484375 45.5625 C 43.5 45.5625 45.132812 44.390625 45.132812 42.949219 L 45.132812 18.121094 C 45.132812 16.679688 43.5 15.507812 41.484375 15.507812 L 6.796875 15.507812 C 4.78125 15.507812 3.144531 16.679688 3.144531 18.121094 L 3.144531 42.949219 C 3.144531 44.390625 4.78125 45.5625 6.796875 45.5625 Z M 6.796875 45.5625 "/>
</clipPath>
<clipPath id="clip35">
  <path d="M 26 29 L 32 29 L 32 34 L 26 34 Z M 26 29 "/>
</clipPath>
<clipPath id="clip36">
  <path d="M 6.796875 45.5625 L 41.484375 45.5625 C 43.5 45.5625 45.132812 44.390625 45.132812 42.949219 L 45.132812 18.121094 C 45.132812 16.679688 43.5 15.507812 41.484375 15.507812 L 6.796875 15.507812 C 4.78125 15.507812 3.144531 16.679688 3.144531 18.121094 L 3.144531 42.949219 C 3.144531 44.390625 4.78125 45.5625 6.796875 45.5625 Z M 6.796875 45.5625 "/>
</clipPath>
<clipPath id="clip37">
  <path d="M 18 33 L 35 33 L 35 40 L 18 40 Z M 18 33 "/>
</clipPath>
<clipPath id="clip38">
  <path d="M 6.796875 45.5625 L 41.484375 45.5625 C 43.5 45.5625 45.132812 44.390625 45.132812 42.949219 L 45.132812 18.121094 C 45.132812 16.679688 43.5 15.507812 41.484375 15.507812 L 6.796875 15.507812 C 4.78125 15.507812 3.144531 16.679688 3.144531 18.121094 L 3.144531 42.949219 C 3.144531 44.390625 4.78125 45.5625 6.796875 45.5625 Z M 6.796875 45.5625 "/>
</clipPath>
<clipPath id="clip39">
  <path d="M 15 33 L 22 33 L 22 40 L 15 40 Z M 15 33 "/>
</clipPath>
<clipPath id="clip40">
  <path d="M 6.796875 45.5625 L 41.484375 45.5625 C 43.5 45.5625 45.132812 44.390625 45.132812 42.949219 L 45.132812 18.121094 C 45.132812 16.679688 43.5 15.507812 41.484375 15.507812 L 6.796875 15.507812 C 4.78125 15.507812 3.144531 16.679688 3.144531 18.121094 L 3.144531 42.949219 C 3.144531 44.390625 4.78125 45.5625 6.796875 45.5625 Z M 6.796875 45.5625 "/>
</clipPath>
<clipPath id="clip41">
  <path d="M 28 34 L 35 34 L 35 39 L 28 39 Z M 28 34 "/>
</clipPath>
<clipPath id="clip42">
  <path d="M 6.796875 45.5625 L 41.484375 45.5625 C 43.5 45.5625 45.132812 44.390625 45.132812 42.949219 L 45.132812 18.121094 C 45.132812 16.679688 43.5 15.507812 41.484375 15.507812 L 6.796875 15.507812 C 4.78125 15.507812 3.144531 16.679688 3.144531 18.121094 L 3.144531 42.949219 C 3.144531 44.390625 4.78125 45.5625 6.796875 45.5625 Z M 6.796875 45.5625 "/>
</clipPath>
<clipPath id="clip43">
  <path d="M 28 35 L 35 35 L 35 39 L 28 39 Z M 28 35 "/>
</clipPath>
<clipPath id="clip44">
  <path d="M 6.796875 45.5625 L 41.484375 45.5625 C 43.5 45.5625 45.132812 44.390625 45.132812 42.949219 L 45.132812 18.121094 C 45.132812 16.679688 43.5 15.507812 41.484375 15.507812 L 6.796875 15.507812 C 4.78125 15.507812 3.144531 16.679688 3.144531 18.121094 L 3.144531 42.949219 C 3.144531 44.390625 4.78125 45.5625 6.796875 45.5625 Z M 6.796875 45.5625 "/>
</clipPath>
</defs>
<g id="surface1">
<path style=" stroke:none;fill-rule:nonzero;fill:rgb(75.294118%,75.294118%,75.294118%);fill-opacity:1;" d="M 41.84375 7.59375 C 69.0625 49.132812 -5.285156 65.210938 0.636719 22.472656 C 3.050781 5.042969 31.429688 -8.300781 41.84375 7.59375 Z M 41.84375 7.59375 "/>
<g clip-path="url(#clip1)" clip-rule="nonzero">
<g clip-path="url(#clip2)" clip-rule="nonzero">
<path style=" stroke:none;fill-rule:nonzero;fill:rgb(51.372549%,51.372549%,51.372549%);fill-opacity:1;" d="M 17.828125 22.851562 L 34 22.851562 L 34 28.019531 L 17.828125 28.019531 "/>
</g>
</g>
<g clip-path="url(#clip3)" clip-rule="nonzero">
<g clip-path="url(#clip4)" clip-rule="nonzero">
<path style=" stroke:none;fill-rule:nonzero;fill:rgb(51.372549%,51.372549%,51.372549%);fill-opacity:1;" d="M 16.828125 22.851562 L 18.761719 22.851562 C 19.8125 22.851562 20.667969 23.429688 20.667969 24.144531 L 20.667969 26.726562 C 20.667969 27.441406 19.8125 28.019531 18.761719 28.019531 L 16.828125 28.019531 C 15.773438 28.019531 14.917969 27.441406 14.917969 26.726562 L 14.917969 24.144531 C 14.917969 23.429688 15.773438 22.851562 16.828125 22.851562 "/>
</g>
</g>
<g clip-path="url(#clip5)" clip-rule="nonzero">
<g clip-path="url(#clip6)" clip-rule="nonzero">
<path style=" stroke:none;fill-rule:nonzero;fill:rgb(81.960784%,81.960784%,81.960784%);fill-opacity:1;" d="M 30.625 23.5 C 29.316406 23.5 28.269531 24.207031 28.269531 25.09375 L 28.269531 25.78125 C 28.269531 26.664062 29.316406 27.375 30.625 27.375 L 33.992188 27.375 L 33.992188 23.5 "/>
</g>
</g>
<g clip-path="url(#clip7)" clip-rule="nonzero">
<g clip-path="url(#clip8)" clip-rule="nonzero">
<path style=" stroke:none;fill-rule:nonzero;fill:rgb(72.941176%,72.941176%,72.941176%);fill-opacity:1;" d="M 30.625 23.5 C 29.851562 23.5 29.171875 23.757812 28.746094 24.144531 L 33.992188 24.144531 L 33.992188 23.5 M 28.328125 24.789062 C 28.300781 24.886719 28.265625 24.988281 28.265625 25.09375 L 28.265625 25.4375 L 33.992188 25.4375 L 33.992188 24.789062 M 28.328125 26.082031 C 28.398438 26.324219 28.535156 26.535156 28.746094 26.726562 L 33.992188 26.726562 L 33.992188 26.082031 "/>
</g>
</g>
<g clip-path="url(#clip9)" clip-rule="nonzero">
<g clip-path="url(#clip10)" clip-rule="nonzero">
<path style=" stroke:none;fill-rule:nonzero;fill:rgb(52.156863%,52.156863%,52.156863%);fill-opacity:1;" d="M 15.332031 17.683594 L 31.5 17.683594 L 31.5 22.851562 L 15.332031 22.851562 "/>
</g>
</g>
<g clip-path="url(#clip11)" clip-rule="nonzero">
<g clip-path="url(#clip12)" clip-rule="nonzero">
<path style=" stroke:none;fill-rule:nonzero;fill:rgb(52.156863%,52.156863%,52.156863%);fill-opacity:1;" d="M 14.332031 17.683594 L 16.269531 17.683594 C 17.320312 17.683594 18.171875 18.261719 18.171875 18.976562 L 18.171875 21.558594 C 18.171875 22.273438 17.320312 22.851562 16.269531 22.851562 L 14.332031 22.851562 C 13.277344 22.851562 12.421875 22.273438 12.421875 21.558594 L 12.421875 18.976562 C 12.421875 18.261719 13.277344 17.683594 14.332031 17.683594 "/>
</g>
</g>
<g clip-path="url(#clip13)" clip-rule="nonzero">
<g clip-path="url(#clip14)" clip-rule="nonzero">
<path style=" stroke:none;fill-rule:nonzero;fill:rgb(81.960784%,81.960784%,81.960784%);fill-opacity:1;" d="M 28.238281 18.332031 C 26.929688 18.332031 25.882812 19.039062 25.882812 19.925781 L 25.882812 20.613281 C 25.882812 21.496094 26.929688 22.207031 28.238281 22.207031 L 31.605469 22.207031 L 31.605469 18.332031 "/>
</g>
</g>
<g clip-path="url(#clip15)" clip-rule="nonzero">
<g clip-path="url(#clip16)" clip-rule="nonzero">
<path style=" stroke:none;fill-rule:nonzero;fill:rgb(72.941176%,72.941176%,72.941176%);fill-opacity:1;" d="M 28.195312 18.332031 C 27.421875 18.332031 26.746094 18.589844 26.316406 18.976562 L 31.5625 18.976562 L 31.5625 18.332031 M 25.898438 19.621094 C 25.871094 19.71875 25.839844 19.820312 25.839844 19.925781 L 25.839844 20.269531 L 31.5625 20.269531 L 31.5625 19.621094 M 25.898438 20.914062 C 25.96875 21.15625 26.105469 21.367188 26.316406 21.558594 L 31.5625 21.558594 L 31.5625 20.914062 "/>
</g>
</g>
<g clip-path="url(#clip17)" clip-rule="nonzero">
<g clip-path="url(#clip18)" clip-rule="nonzero">
<path style=" stroke:none;fill-rule:nonzero;fill:rgb(45.490196%,45.490196%,45.490196%);fill-opacity:1;" d="M 17.828125 12.515625 L 34 12.515625 L 34 17.683594 L 17.828125 17.683594 "/>
</g>
</g>
<g clip-path="url(#clip19)" clip-rule="nonzero">
<g clip-path="url(#clip20)" clip-rule="nonzero">
<path style=" stroke:none;fill-rule:nonzero;fill:rgb(45.490196%,45.490196%,45.490196%);fill-opacity:1;" d="M 16.828125 12.515625 L 18.761719 12.515625 C 19.8125 12.515625 20.667969 13.09375 20.667969 13.808594 L 20.667969 16.394531 C 20.667969 17.105469 19.8125 17.683594 18.761719 17.683594 L 16.828125 17.683594 C 15.773438 17.683594 14.917969 17.105469 14.917969 16.394531 L 14.917969 13.808594 C 14.917969 13.09375 15.773438 12.515625 16.828125 12.515625 "/>
</g>
</g>
<g clip-path="url(#clip21)" clip-rule="nonzero">
<g clip-path="url(#clip22)" clip-rule="nonzero">
<path style=" stroke:none;fill-rule:nonzero;fill:rgb(81.960784%,81.960784%,81.960784%);fill-opacity:1;" d="M 30.625 13.164062 C 29.316406 13.164062 28.269531 13.871094 28.269531 14.757812 L 28.269531 15.445312 C 28.269531 16.332031 29.316406 17.039062 30.625 17.039062 L 33.992188 17.039062 L 33.992188 13.164062 "/>
</g>
</g>
<g clip-path="url(#clip23)" clip-rule="nonzero">
<g clip-path="url(#clip24)" clip-rule="nonzero">
<path style=" stroke:none;fill-rule:nonzero;fill:rgb(72.941176%,72.941176%,72.941176%);fill-opacity:1;" d="M 30.625 13.164062 C 29.851562 13.164062 29.171875 13.421875 28.746094 13.808594 L 33.992188 13.808594 L 33.992188 13.164062 M 28.328125 14.457031 C 28.300781 14.550781 28.265625 14.652344 28.265625 14.757812 L 28.265625 15.101562 L 33.992188 15.101562 L 33.992188 14.457031 M 28.328125 15.746094 C 28.398438 15.988281 28.535156 16.199219 28.746094 16.394531 L 33.992188 16.394531 L 33.992188 15.746094 "/>
</g>
</g>
<g clip-path="url(#clip25)" clip-rule="nonzero">
<g clip-path="url(#clip26)" clip-rule="nonzero">
<path style=" stroke:none;fill-rule:nonzero;fill:rgb(51.372549%,51.372549%,51.372549%);fill-opacity:1;" d="M 18.710938 28.574219 L 34.183594 28.574219 L 34.183594 23.347656 L 18.710938 23.347656 "/>
</g>
</g>
<g clip-path="url(#clip27)" clip-rule="nonzero">
<g clip-path="url(#clip28)" clip-rule="nonzero">
<path style=" stroke:none;fill-rule:nonzero;fill:rgb(51.372549%,51.372549%,51.372549%);fill-opacity:1;" d="M 17.75 28.574219 L 19.601562 28.574219 C 20.609375 28.574219 21.425781 27.988281 21.425781 27.269531 L 21.425781 24.65625 C 21.425781 23.933594 20.609375 23.347656 19.601562 23.347656 L 17.75 23.347656 C 16.742188 23.347656 15.925781 23.933594 15.925781 24.65625 L 15.925781 27.269531 C 15.925781 27.988281 16.742188 28.574219 17.75 28.574219 "/>
</g>
</g>
<g clip-path="url(#clip29)" clip-rule="nonzero">
<g clip-path="url(#clip30)" clip-rule="nonzero">
<path style=" stroke:none;fill-rule:nonzero;fill:rgb(81.960784%,81.960784%,81.960784%);fill-opacity:1;" d="M 30.953125 27.921875 C 29.703125 27.921875 28.699219 27.203125 28.699219 26.308594 L 28.699219 25.613281 C 28.699219 24.71875 29.703125 24 30.953125 24 L 34.175781 24 L 34.175781 27.921875 "/>
<path style=" stroke:none;fill-rule:nonzero;fill:rgb(72.941176%,72.941176%,72.941176%);fill-opacity:1;" d="M 30.953125 27.921875 C 30.214844 27.921875 29.566406 27.660156 29.15625 27.269531 L 34.175781 27.269531 L 34.175781 27.921875 M 28.757812 26.613281 C 28.730469 26.519531 28.699219 26.414062 28.699219 26.308594 L 28.699219 25.960938 L 34.175781 25.960938 L 34.175781 26.613281 M 28.757812 25.308594 C 28.824219 25.0625 28.957031 24.847656 29.15625 24.65625 L 34.175781 24.65625 L 34.175781 25.308594 "/>
</g>
</g>
<g clip-path="url(#clip31)" clip-rule="nonzero">
<g clip-path="url(#clip32)" clip-rule="nonzero">
<path style=" stroke:none;fill-rule:nonzero;fill:rgb(52.156863%,52.156863%,52.156863%);fill-opacity:1;" d="M 16.320312 33.800781 L 31.792969 33.800781 L 31.792969 28.574219 L 16.320312 28.574219 "/>
</g>
</g>
<g clip-path="url(#clip33)" clip-rule="nonzero">
<g clip-path="url(#clip34)" clip-rule="nonzero">
<path style=" stroke:none;fill-rule:nonzero;fill:rgb(52.156863%,52.156863%,52.156863%);fill-opacity:1;" d="M 15.363281 33.800781 L 17.214844 33.800781 C 18.222656 33.800781 19.039062 33.21875 19.039062 32.496094 L 19.039062 29.882812 C 19.039062 29.160156 18.222656 28.574219 17.214844 28.574219 L 15.363281 28.574219 C 14.355469 28.574219 13.539062 29.160156 13.539062 29.882812 L 13.539062 32.496094 C 13.539062 33.21875 14.355469 33.800781 15.363281 33.800781 "/>
</g>
</g>
<g clip-path="url(#clip35)" clip-rule="nonzero">
<g clip-path="url(#clip36)" clip-rule="nonzero">
<path style=" stroke:none;fill-rule:nonzero;fill:rgb(81.960784%,81.960784%,81.960784%);fill-opacity:1;" d="M 28.671875 33.148438 C 27.421875 33.148438 26.417969 32.429688 26.417969 31.535156 L 26.417969 30.839844 C 26.417969 29.945312 27.421875 29.226562 28.671875 29.226562 L 31.894531 29.226562 L 31.894531 33.148438 "/>
<path style=" stroke:none;fill-rule:nonzero;fill:rgb(72.941176%,72.941176%,72.941176%);fill-opacity:1;" d="M 28.628906 33.148438 C 27.890625 33.148438 27.242188 32.886719 26.832031 32.496094 L 31.851562 32.496094 L 31.851562 33.148438 M 26.433594 31.839844 C 26.40625 31.746094 26.375 31.640625 26.375 31.535156 L 26.375 31.1875 L 31.851562 31.1875 L 31.851562 31.839844 M 26.429688 30.535156 C 26.5 30.289062 26.632812 30.074219 26.832031 29.882812 L 31.851562 29.882812 L 31.851562 30.535156 "/>
</g>
</g>
<g clip-path="url(#clip37)" clip-rule="nonzero">
<g clip-path="url(#clip38)" clip-rule="nonzero">
<path style=" stroke:none;fill-rule:nonzero;fill:rgb(45.490196%,45.490196%,45.490196%);fill-opacity:1;" d="M 18.710938 39.027344 L 34.183594 39.027344 L 34.183594 33.800781 L 18.710938 33.800781 "/>
</g>
</g>
<g clip-path="url(#clip39)" clip-rule="nonzero">
<g clip-path="url(#clip40)" clip-rule="nonzero">
<path style=" stroke:none;fill-rule:nonzero;fill:rgb(45.490196%,45.490196%,45.490196%);fill-opacity:1;" d="M 17.75 39.027344 L 19.601562 39.027344 C 20.609375 39.027344 21.425781 38.445312 21.425781 37.722656 L 21.425781 35.109375 C 21.425781 34.386719 20.609375 33.800781 19.601562 33.800781 L 17.75 33.800781 C 16.742188 33.800781 15.925781 34.386719 15.925781 35.109375 L 15.925781 37.722656 C 15.925781 38.445312 16.742188 39.027344 17.75 39.027344 "/>
</g>
</g>
<g clip-path="url(#clip41)" clip-rule="nonzero">
<g clip-path="url(#clip42)" clip-rule="nonzero">
<path style=" stroke:none;fill-rule:nonzero;fill:rgb(81.960784%,81.960784%,81.960784%);fill-opacity:1;" d="M 30.953125 38.375 C 29.703125 38.375 28.699219 37.65625 28.699219 36.761719 L 28.699219 36.066406 C 28.699219 35.171875 29.703125 34.453125 30.953125 34.453125 L 34.175781 34.453125 L 34.175781 38.375 "/>
</g>
</g>
<g clip-path="url(#clip43)" clip-rule="nonzero">
<g clip-path="url(#clip44)" clip-rule="nonzero">
<path style=" stroke:none;fill-rule:nonzero;fill:rgb(72.941176%,72.941176%,72.941176%);fill-opacity:1;" d="M 30.953125 38.375 C 30.214844 38.375 29.566406 38.113281 29.15625 37.722656 L 34.175781 37.722656 L 34.175781 38.375 M 28.757812 37.066406 C 28.730469 36.972656 28.699219 36.867188 28.699219 36.761719 L 28.699219 36.414062 L 34.175781 36.414062 L 34.175781 37.066406 M 28.757812 35.761719 C 28.824219 35.515625 28.957031 35.300781 29.15625 35.109375 L 34.175781 35.109375 L 34.175781 35.761719 "/>
</g>
</g>
</g>
</svg>
