
<svg xmlns="http://www.w3.org/2000/svg" xmlns:xlink="http://www.w3.org/1999/xlink" width="48px" height="48px" viewBox="0 0 48 48" version="1.1">
<g id="surface1">
<path style=" stroke:none;fill-rule:nonzero;fill:rgb(94.117647%,76.470588%,6.27451%);fill-opacity:1;" d="M 43.054688 36.71875 C 60.3125 12.167969 28.441406 -12.707031 8.109375 7.296875 C -11.050781 26.144531 6.710938 55.425781 30.550781 46.273438 C 35.523438 44.363281 39.886719 41.226562 43.054688 36.71875 Z M 43.054688 36.71875 "/>
<path style=" stroke:none;fill-rule:nonzero;fill:rgb(94.117647%,76.470588%,6.27451%);fill-opacity:1;" d="M 11.535156 39.03125 C 10.996094 38.957031 10.34375 38.714844 9.882812 38.417969 C 9.585938 38.226562 9.195312 37.875 8.96875 37.59375 C 8.753906 37.320312 8.417969 36.6875 8.339844 36.40625 C 8.289062 36.222656 8.285156 34.882812 8.285156 24.449219 C 8.285156 11.320312 8.257812 12.570312 8.554688 11.980469 C 8.832031 11.417969 9.234375 10.945312 9.730469 10.585938 C 10.058594 10.351562 10.695312 10.058594 11.132812 9.945312 L 11.496094 9.851562 L 35.980469 9.851562 L 36.34375 9.945312 C 36.78125 10.058594 37.414062 10.351562 37.742188 10.585938 C 38.039062 10.800781 38.410156 11.167969 38.613281 11.453125 C 38.816406 11.734375 39.058594 12.230469 39.160156 12.566406 L 39.246094 12.84375 L 39.246094 36.058594 L 39.164062 36.335938 C 39.054688 36.695312 38.734375 37.308594 38.503906 37.59375 C 38.28125 37.875 37.890625 38.226562 37.59375 38.417969 C 37.269531 38.625 36.742188 38.851562 36.335938 38.960938 L 35.980469 39.050781 L 23.863281 39.054688 C 17.167969 39.058594 11.652344 39.046875 11.535156 39.03125 Z M 11.535156 39.03125 "/>
<path style=" stroke:none;fill-rule:nonzero;fill:rgb(100%,100%,100%);fill-opacity:1;" d="M 34.820312 36.839844 C 35.808594 36.453125 36.546875 35.625 36.824219 34.609375 C 36.882812 34.386719 36.886719 33.820312 36.886719 24.554688 C 36.886719 15.289062 36.882812 14.722656 36.824219 14.5 C 36.5 13.296875 35.574219 12.421875 34.308594 12.113281 C 34.070312 12.054688 33.476562 12.050781 23.773438 12.050781 C 13.863281 12.050781 13.480469 12.054688 13.199219 12.117188 C 11.976562 12.386719 11.066406 13.199219 10.691406 14.355469 C 10.625 14.554688 10.625 14.9375 10.625 24.554688 C 10.625 34.171875 10.625 34.554688 10.691406 34.753906 C 10.875 35.316406 11.167969 35.777344 11.589844 36.167969 C 11.996094 36.539062 12.53125 36.839844 12.957031 36.933594 C 13.03125 36.953125 17.695312 36.960938 23.808594 36.960938 L 34.53125 36.953125 Z M 34.820312 36.839844 "/>
<path style=" stroke:none;fill-rule:nonzero;fill:rgb(94.117647%,76.470588%,6.27451%);fill-opacity:1;" d="M 16.320312 33.804688 C 15.394531 33.65625 14.429688 32.820312 14.148438 31.917969 C 14.074219 31.6875 14.070312 31.246094 14.140625 31.0625 C 14.203125 30.890625 14.375 30.640625 14.429688 30.640625 C 14.484375 30.640625 17.425781 33.433594 17.425781 33.488281 C 17.425781 33.542969 17.195312 33.6875 17.007812 33.75 C 16.804688 33.816406 16.53125 33.835938 16.320312 33.804688 Z M 16.320312 33.804688 "/>
<path style=" stroke:none;fill-rule:nonzero;fill:rgb(94.117647%,76.470588%,6.27451%);fill-opacity:1;" d="M 18.367188 33.636719 C 18.300781 33.601562 17.351562 32.722656 16.257812 31.683594 C 14.5625 30.070312 14.269531 29.777344 14.230469 29.65625 C 14.105469 29.242188 14.457031 28.96875 14.882812 29.152344 C 15.015625 29.210938 18.605469 32.5625 18.878906 32.890625 C 19.125 33.179688 19.144531 33.46875 18.921875 33.632812 C 18.804688 33.722656 18.542969 33.722656 18.367188 33.636719 Z M 18.367188 33.636719 "/>
<path style=" stroke:none;fill-rule:nonzero;fill:rgb(94.117647%,76.470588%,6.27451%);fill-opacity:1;" d="M 19.402344 32.636719 C 19.308594 32.59375 18.546875 31.894531 17.277344 30.6875 C 15.453125 28.953125 15.292969 28.789062 15.25 28.640625 C 15.128906 28.203125 15.519531 27.957031 15.957031 28.199219 C 16.210938 28.339844 19.941406 31.886719 20.019531 32.058594 C 20.21875 32.519531 19.863281 32.855469 19.402344 32.636719 Z M 19.402344 32.636719 "/>
<path style=" stroke:none;fill-rule:nonzero;fill:rgb(94.117647%,76.470588%,6.27451%);fill-opacity:1;" d="M 20.558594 31.777344 C 20.496094 31.761719 20.390625 31.71875 20.324219 31.679688 C 20.253906 31.640625 19.332031 30.785156 18.269531 29.777344 C 16.941406 28.511719 16.324219 27.902344 16.285156 27.8125 C 16.074219 27.332031 16.515625 27.011719 16.996094 27.300781 C 17.0625 27.339844 17.984375 28.195312 19.046875 29.203125 C 20.378906 30.46875 20.996094 31.078125 21.035156 31.164062 C 21.199219 31.542969 20.957031 31.855469 20.558594 31.777344 Z M 20.558594 31.777344 "/>
<path style=" stroke:none;fill-rule:nonzero;fill:rgb(94.117647%,76.470588%,6.27451%);fill-opacity:1;" d="M 20.960938 30.15625 C 20.863281 30.105469 18.167969 27.5625 18.039062 27.394531 C 17.960938 27.292969 17.933594 27.222656 17.933594 27.105469 C 17.933594 26.972656 17.964844 26.914062 18.183594 26.621094 C 18.851562 25.738281 19.242188 24.917969 19.4375 23.988281 C 19.566406 23.375 19.601562 23.011719 19.640625 21.714844 C 19.660156 21.074219 19.691406 20.4375 19.710938 20.304688 C 19.859375 19.355469 20.179688 18.734375 20.832031 18.121094 C 22.839844 16.234375 26.257812 16.25 28.941406 18.15625 C 29.378906 18.464844 29.996094 19.023438 30.371094 19.445312 C 31.164062 20.347656 31.738281 21.460938 31.996094 22.621094 C 32.089844 23.023438 32.097656 23.117188 32.097656 23.847656 C 32.097656 24.597656 32.089844 24.664062 31.996094 25.054688 C 31.75 26.042969 31.285156 26.851562 30.589844 27.503906 C 30.027344 28.027344 29.460938 28.335938 28.742188 28.507812 C 28.230469 28.628906 27.914062 28.667969 26.785156 28.734375 C 25.144531 28.832031 24.429688 28.941406 23.492188 29.238281 C 22.949219 29.40625 22.222656 29.722656 21.652344 30.035156 C 21.351562 30.203125 21.128906 30.242188 20.960938 30.15625 Z M 20.960938 30.15625 "/>
<path style=" stroke:none;fill-rule:nonzero;fill:rgb(20.784314%,29.019608%,36.862745%);fill-opacity:1;" d="M 16.320312 33.804688 C 15.394531 33.65625 14.429688 32.820312 14.148438 31.917969 C 14.074219 31.6875 14.070312 31.246094 14.140625 31.0625 C 14.203125 30.890625 14.375 30.640625 14.429688 30.640625 C 14.484375 30.640625 17.425781 33.433594 17.425781 33.488281 C 17.425781 33.542969 17.195312 33.6875 17.007812 33.75 C 16.804688 33.816406 16.53125 33.835938 16.320312 33.804688 Z M 18.367188 33.636719 C 18.300781 33.601562 17.351562 32.722656 16.257812 31.683594 C 14.5625 30.070312 14.269531 29.777344 14.230469 29.65625 C 14.105469 29.242188 14.457031 28.96875 14.882812 29.152344 C 15.015625 29.210938 18.605469 32.5625 18.878906 32.890625 C 19.125 33.179688 19.144531 33.46875 18.921875 33.632812 C 18.804688 33.722656 18.542969 33.722656 18.367188 33.636719 Z M 19.402344 32.636719 C 19.308594 32.59375 18.546875 31.894531 17.277344 30.6875 C 15.453125 28.953125 15.292969 28.789062 15.25 28.640625 C 15.128906 28.203125 15.519531 27.957031 15.957031 28.199219 C 16.210938 28.339844 19.941406 31.886719 20.019531 32.058594 C 20.21875 32.519531 19.863281 32.855469 19.402344 32.636719 Z M 20.558594 31.777344 C 20.496094 31.761719 20.390625 31.71875 20.324219 31.679688 C 20.253906 31.640625 19.332031 30.785156 18.269531 29.777344 C 16.941406 28.511719 16.324219 27.902344 16.285156 27.8125 C 16.074219 27.332031 16.515625 27.011719 16.996094 27.300781 C 17.0625 27.339844 17.984375 28.195312 19.046875 29.203125 C 20.378906 30.46875 20.996094 31.078125 21.035156 31.164062 C 21.199219 31.542969 20.957031 31.855469 20.558594 31.777344 Z M 20.558594 31.777344 "/>
</g>
</svg>
