
<svg xmlns="http://www.w3.org/2000/svg" xmlns:xlink="http://www.w3.org/1999/xlink" width="48px" height="48px" viewBox="0 0 48 48" version="1.1">
<g id="surface1">
<path style=" stroke:none;fill-rule:nonzero;fill:rgb(60.392157%,80.392157%,19.607843%);fill-opacity:1;" d="M 11.207031 5.183594 C 29.066406 -10.585938 56.542969 14.289062 45.433594 35.109375 C 34.199219 56.15625 -2.972656 50.546875 0.1875 24.695312 C 1.128906 17.003906 5.382812 10.328125 11.207031 5.183594 Z M 11.207031 5.183594 "/>
<path style=" stroke:none;fill-rule:nonzero;fill:rgb(100%,100%,100%);fill-opacity:1;" d="M 13.824219 9.324219 L 13.824219 11.6875 L 10.738281 11.6875 C 10.121094 11.6875 9.710938 12.179688 9.710938 12.671875 L 9.710938 38.878906 C 9.710938 39.371094 10.226562 39.867188 10.738281 39.867188 L 37.464844 39.867188 C 37.976562 39.867188 38.492188 39.371094 38.492188 38.878906 L 38.492188 12.671875 C 38.492188 12.179688 37.976562 11.6875 37.464844 11.6875 L 34.382812 11.6875 L 34.382812 9.324219 C 34.378906 8.339844 34.378906 8.339844 33.351562 8.339844 L 30.679688 8.339844 C 29.652344 8.339844 29.652344 8.339844 29.652344 9.324219 L 29.652344 11.292969 L 18.550781 11.292969 L 18.550781 9.324219 C 18.550781 8.339844 18.550781 8.339844 17.523438 8.339844 L 14.851562 8.339844 C 13.824219 8.339844 13.824219 8.339844 13.824219 9.324219 Z M 15.195312 9.652344 L 17.183594 9.652344 L 17.183594 13.597656 C 17.183594 15.234375 15.195312 15.234375 15.195312 13.597656 Z M 31.023438 9.652344 L 33.011719 9.652344 L 33.011719 13.597656 C 33.011719 15.234375 31.023438 15.234375 31.023438 13.597656 Z M 11.769531 18.191406 L 36.441406 18.191406 L 36.441406 37.894531 L 11.769531 37.894531 Z M 11.769531 18.191406 "/>
<path style=" stroke:none;fill-rule:nonzero;fill:rgb(100%,100%,100%);fill-opacity:1;" d="M 26.699219 34.609375 L 23.601562 34.609375 L 23.601562 28.371094 C 23.601562 28.242188 23.601562 28.089844 23.601562 27.914062 C 23.609375 27.734375 23.613281 27.546875 23.621094 27.355469 C 23.636719 27.15625 23.644531 26.960938 23.652344 26.765625 C 23.664062 26.566406 23.675781 26.386719 23.683594 26.226562 C 23.648438 26.253906 23.589844 26.300781 23.511719 26.359375 C 23.429688 26.417969 23.339844 26.484375 23.242188 26.558594 C 23.140625 26.625 23.035156 26.699219 22.929688 26.773438 C 22.824219 26.84375 22.71875 26.910156 22.617188 26.972656 L 20.933594 27.964844 L 19.429688 26.59375 L 24.15625 23.828125 L 26.703125 23.828125 L 26.703125 34.609375 Z M 26.699219 34.609375 "/>
</g>
</svg>
