
<svg xmlns="http://www.w3.org/2000/svg" xmlns:xlink="http://www.w3.org/1999/xlink" width="48px" height="48px" viewBox="0 0 48 48" version="1.1">
<g id="surface1">
<path style=" stroke:none;fill-rule:nonzero;fill:rgb(86.27451%,7.843137%,23.529412%);fill-opacity:1;" d="M 11.207031 5.183594 C 29.066406 -10.585938 56.542969 14.289062 45.433594 35.109375 C 34.199219 56.15625 -2.972656 50.546875 0.1875 24.695312 C 1.128906 17.003906 5.382812 10.328125 11.207031 5.183594 Z M 11.207031 5.183594 "/>
<path style=" stroke:none;fill-rule:nonzero;fill:rgb(100%,100%,100%);fill-opacity:1;" d="M 13.824219 9.324219 L 13.824219 11.6875 L 10.738281 11.6875 C 10.121094 11.6875 9.710938 12.179688 9.710938 12.671875 L 9.710938 38.878906 C 9.710938 39.371094 10.226562 39.867188 10.738281 39.867188 L 37.464844 39.867188 C 37.976562 39.867188 38.492188 39.371094 38.492188 38.878906 L 38.492188 12.671875 C 38.492188 12.179688 37.976562 11.6875 37.464844 11.6875 L 34.382812 11.6875 L 34.382812 9.324219 C 34.378906 8.339844 34.378906 8.339844 33.351562 8.339844 L 30.679688 8.339844 C 29.652344 8.339844 29.652344 8.339844 29.652344 9.324219 L 29.652344 11.292969 L 18.550781 11.292969 L 18.550781 9.324219 C 18.550781 8.339844 18.550781 8.339844 17.523438 8.339844 L 14.851562 8.339844 C 13.824219 8.339844 13.824219 8.339844 13.824219 9.324219 Z M 15.195312 9.652344 L 17.183594 9.652344 L 17.183594 13.597656 C 17.183594 15.234375 15.195312 15.234375 15.195312 13.597656 Z M 31.023438 9.652344 L 33.011719 9.652344 L 33.011719 13.597656 C 33.011719 15.234375 31.023438 15.234375 31.023438 13.597656 Z M 11.769531 18.191406 L 36.441406 18.191406 L 36.441406 37.894531 L 11.769531 37.894531 Z M 11.769531 18.191406 "/>
<path style=" stroke:none;fill-rule:nonzero;fill:rgb(100%,100%,100%);fill-opacity:1;" d="M 23.628906 34.609375 L 13.792969 34.609375 L 13.792969 33.023438 L 17.242188 30.289062 C 17.675781 29.945312 18.070312 29.628906 18.425781 29.335938 C 18.777344 29.046875 19.082031 28.765625 19.335938 28.488281 C 19.589844 28.214844 19.789062 27.933594 19.929688 27.648438 C 20.070312 27.363281 20.140625 27.054688 20.140625 26.726562 C 20.140625 26.363281 19.988281 26.078125 19.6875 25.878906 C 19.394531 25.675781 18.996094 25.578125 18.496094 25.578125 C 17.964844 25.578125 17.457031 25.671875 16.96875 25.863281 C 16.484375 26.054688 15.972656 26.328125 15.4375 26.683594 L 13.75 25.214844 C 14.050781 25.011719 14.367188 24.820312 14.695312 24.640625 C 15.019531 24.453125 15.382812 24.289062 15.777344 24.144531 C 16.171875 24.003906 16.605469 23.890625 17.082031 23.804688 C 17.554688 23.71875 18.085938 23.671875 18.675781 23.671875 C 19.378906 23.671875 20.003906 23.746094 20.5625 23.886719 C 21.121094 24.03125 21.601562 24.234375 21.996094 24.5 C 22.390625 24.761719 22.691406 25.078125 22.898438 25.449219 C 23.109375 25.824219 23.21875 26.246094 23.21875 26.710938 C 23.21875 27.132812 23.117188 27.539062 22.917969 27.925781 C 22.714844 28.3125 22.441406 28.691406 22.09375 29.0625 C 21.746094 29.433594 21.34375 29.800781 20.882812 30.167969 C 20.425781 30.53125 19.9375 30.902344 19.417969 31.28125 L 17.652344 32.585938 L 17.652344 32.691406 L 23.628906 32.691406 Z M 23.628906 34.609375 "/>
<path style=" stroke:none;fill-rule:nonzero;fill:rgb(100%,100%,100%);fill-opacity:1;" d="M 30.042969 27.722656 C 30.671875 27.722656 31.257812 27.796875 31.796875 27.9375 C 32.339844 28.082031 32.808594 28.289062 33.210938 28.5625 C 33.613281 28.839844 33.925781 29.183594 34.152344 29.597656 C 34.382812 30.003906 34.496094 30.472656 34.496094 31.003906 C 34.496094 31.589844 34.371094 32.117188 34.125 32.582031 C 33.875 33.046875 33.511719 33.4375 33.03125 33.761719 C 32.550781 34.082031 31.949219 34.328125 31.234375 34.5 C 30.527344 34.671875 29.710938 34.757812 28.789062 34.757812 C 28.421875 34.757812 28.058594 34.746094 27.695312 34.722656 C 27.335938 34.695312 26.988281 34.660156 26.652344 34.609375 C 26.324219 34.566406 26.007812 34.507812 25.707031 34.433594 C 25.414062 34.359375 25.148438 34.273438 24.90625 34.175781 L 24.90625 32.207031 C 25.140625 32.304688 25.410156 32.398438 25.71875 32.488281 C 26.027344 32.570312 26.34375 32.644531 26.671875 32.707031 C 27.007812 32.769531 27.339844 32.816406 27.675781 32.855469 C 28.007812 32.890625 28.328125 32.90625 28.628906 32.90625 C 29.523438 32.90625 30.207031 32.773438 30.671875 32.503906 C 31.140625 32.226562 31.375 31.792969 31.375 31.195312 C 31.375 30.667969 31.144531 30.261719 30.683594 29.988281 C 30.230469 29.707031 29.523438 29.566406 28.566406 29.566406 C 28.394531 29.566406 28.207031 29.574219 28.003906 29.589844 C 27.8125 29.605469 27.617188 29.625 27.425781 29.648438 C 27.238281 29.671875 27.054688 29.699219 26.882812 29.730469 C 26.707031 29.753906 26.558594 29.78125 26.429688 29.8125 L 25.199219 29.324219 L 25.75 23.832031 L 33.492188 23.832031 L 33.492188 25.761719 L 28.4375 25.761719 L 28.195312 27.878906 C 28.410156 27.84375 28.65625 27.808594 28.9375 27.773438 C 29.226562 27.738281 29.59375 27.722656 30.042969 27.722656 Z M 30.042969 27.722656 "/>
</g>
</svg>
