
<svg xmlns="http://www.w3.org/2000/svg" xmlns:xlink="http://www.w3.org/1999/xlink" width="48px" height="48px" viewBox="0 0 48 48" version="1.1">
<g id="surface1">
<path style=" stroke:none;fill-rule:nonzero;fill:rgb(0%,74.901961%,100%);fill-opacity:1;" d="M 11.207031 5.183594 C 29.066406 -10.585938 56.542969 14.289062 45.433594 35.109375 C 34.199219 56.15625 -2.972656 50.546875 0.1875 24.695312 C 1.128906 17.003906 5.382812 10.328125 11.207031 5.183594 Z M 11.207031 5.183594 "/>
<path style=" stroke:none;fill-rule:nonzero;fill:rgb(100%,100%,100%);fill-opacity:1;" d="M 13.824219 9.128906 L 13.824219 11.507812 L 10.738281 11.507812 C 10.121094 11.507812 9.710938 12.003906 9.710938 12.5 L 9.710938 38.875 C 9.710938 39.371094 10.226562 39.867188 10.738281 39.867188 L 37.464844 39.867188 C 37.976562 39.867188 38.492188 39.371094 38.492188 38.875 L 38.492188 12.5 C 38.492188 12.003906 37.976562 11.507812 37.464844 11.507812 L 34.382812 11.507812 L 34.382812 9.128906 C 34.378906 8.136719 34.378906 8.136719 33.351562 8.136719 L 30.679688 8.136719 C 29.652344 8.136719 29.652344 8.136719 29.652344 9.128906 L 29.652344 11.109375 L 18.550781 11.109375 L 18.550781 9.128906 C 18.550781 8.136719 18.550781 8.136719 17.523438 8.136719 L 14.851562 8.136719 C 13.824219 8.136719 13.824219 8.136719 13.824219 9.128906 Z M 15.195312 9.457031 L 17.183594 9.457031 L 17.183594 13.429688 C 17.183594 15.078125 15.195312 15.078125 15.195312 13.429688 Z M 31.023438 9.457031 L 33.011719 9.457031 L 33.011719 13.429688 C 33.011719 15.078125 31.023438 15.078125 31.023438 13.429688 Z M 11.769531 18.050781 L 36.441406 18.050781 L 36.441406 37.882812 L 11.769531 37.882812 Z M 11.769531 18.050781 "/>
<path style=" stroke:none;fill-rule:nonzero;fill:rgb(100%,100%,100%);fill-opacity:1;" d="M 21.160156 34.574219 L 18.0625 34.574219 L 18.0625 28.296875 C 18.0625 28.167969 18.0625 28.015625 18.0625 27.839844 C 18.070312 27.65625 18.078125 27.46875 18.082031 27.273438 C 18.097656 27.078125 18.105469 26.878906 18.113281 26.679688 C 18.128906 26.484375 18.136719 26.300781 18.144531 26.140625 C 18.109375 26.167969 18.054688 26.214844 17.972656 26.273438 C 17.894531 26.332031 17.800781 26.398438 17.703125 26.472656 C 17.601562 26.542969 17.5 26.613281 17.390625 26.6875 C 17.285156 26.761719 17.179688 26.828125 17.082031 26.886719 L 15.394531 27.890625 L 13.890625 26.511719 L 18.617188 23.726562 L 21.164062 23.726562 L 21.164062 34.578125 Z M 21.160156 34.574219 "/>
<path style=" stroke:none;fill-rule:nonzero;fill:rgb(100%,100%,100%);fill-opacity:1;" d="M 34.625 28.359375 C 34.625 28.878906 34.585938 29.398438 34.503906 29.917969 C 34.429688 30.433594 34.292969 30.925781 34.09375 31.394531 C 33.898438 31.863281 33.632812 32.304688 33.289062 32.714844 C 32.957031 33.121094 32.527344 33.472656 32.007812 33.769531 C 31.492188 34.066406 30.871094 34.300781 30.144531 34.472656 C 29.421875 34.640625 28.570312 34.726562 27.597656 34.726562 C 27.457031 34.726562 27.300781 34.722656 27.132812 34.71875 C 26.96875 34.714844 26.796875 34.707031 26.625 34.695312 C 26.457031 34.691406 26.292969 34.683594 26.132812 34.667969 C 25.972656 34.65625 25.832031 34.640625 25.710938 34.621094 L 25.710938 32.78125 C 25.957031 32.832031 26.222656 32.871094 26.503906 32.902344 C 26.789062 32.925781 27.082031 32.9375 27.375 32.9375 C 28.277344 32.9375 29.019531 32.855469 29.601562 32.691406 C 30.183594 32.523438 30.644531 32.292969 30.984375 31.996094 C 31.324219 31.691406 31.566406 31.335938 31.707031 30.917969 C 31.855469 30.503906 31.945312 30.046875 31.976562 29.546875 L 31.847656 29.546875 C 31.714844 29.726562 31.554688 29.890625 31.367188 30.042969 C 31.179688 30.195312 30.957031 30.332031 30.703125 30.445312 C 30.449219 30.558594 30.164062 30.648438 29.84375 30.710938 C 29.519531 30.777344 29.164062 30.808594 28.769531 30.808594 C 28.132812 30.808594 27.5625 30.730469 27.054688 30.578125 C 26.546875 30.425781 26.117188 30.203125 25.761719 29.910156 C 25.414062 29.617188 25.148438 29.261719 24.957031 28.835938 C 24.773438 28.410156 24.679688 27.921875 24.679688 27.371094 C 24.679688 26.785156 24.789062 26.257812 25.007812 25.792969 C 25.238281 25.328125 25.558594 24.933594 25.972656 24.613281 C 26.386719 24.285156 26.886719 24.035156 27.476562 23.863281 C 28.070312 23.6875 28.734375 23.601562 29.472656 23.601562 C 30.195312 23.601562 30.867188 23.699219 31.496094 23.890625 C 32.125 24.082031 32.671875 24.371094 33.132812 24.761719 C 33.59375 25.152344 33.957031 25.644531 34.226562 26.246094 C 34.492188 26.84375 34.625 27.546875 34.625 28.359375 Z M 29.53125 25.441406 C 29.257812 25.441406 29.003906 25.480469 28.777344 25.554688 C 28.550781 25.628906 28.355469 25.746094 28.1875 25.902344 C 28.027344 26.054688 27.898438 26.253906 27.804688 26.496094 C 27.71875 26.734375 27.675781 27.015625 27.675781 27.34375 C 27.675781 27.867188 27.824219 28.28125 28.125 28.589844 C 28.425781 28.894531 28.882812 29.046875 29.492188 29.046875 C 29.796875 29.046875 30.078125 29.003906 30.332031 28.914062 C 30.585938 28.828125 30.804688 28.710938 30.984375 28.566406 C 31.164062 28.421875 31.300781 28.261719 31.394531 28.085938 C 31.496094 27.90625 31.546875 27.726562 31.546875 27.542969 C 31.546875 27.289062 31.503906 27.039062 31.414062 26.792969 C 31.335938 26.539062 31.207031 26.316406 31.035156 26.117188 C 30.867188 25.914062 30.65625 25.75 30.402344 25.628906 C 30.15625 25.503906 29.863281 25.441406 29.53125 25.441406 Z M 29.53125 25.441406 "/>
</g>
</svg>
