
<svg xmlns="http://www.w3.org/2000/svg" xmlns:xlink="http://www.w3.org/1999/xlink" width="48px" height="48px" viewBox="0 0 48 48" version="1.1">
<g id="surface1">
<path style=" stroke:none;fill-rule:nonzero;fill:rgb(86.27451%,7.843137%,23.529412%);fill-opacity:1;" d="M 11.207031 5.183594 C 29.066406 -10.585938 56.542969 14.289062 45.433594 35.109375 C 34.199219 56.15625 -2.972656 50.546875 0.1875 24.695312 C 1.128906 17.003906 5.382812 10.328125 11.207031 5.183594 Z M 11.207031 5.183594 "/>
<path style=" stroke:none;fill-rule:nonzero;fill:rgb(100%,100%,100%);fill-opacity:1;" d="M 13.824219 9.316406 L 13.824219 11.667969 L 10.738281 11.667969 C 10.121094 11.667969 9.710938 12.15625 9.710938 12.644531 L 9.710938 38.683594 C 9.710938 39.171875 10.226562 39.660156 10.738281 39.660156 L 37.464844 39.660156 C 37.976562 39.660156 38.492188 39.171875 38.492188 38.683594 L 38.492188 12.644531 C 38.492188 12.15625 37.976562 11.667969 37.464844 11.667969 L 34.382812 11.667969 L 34.382812 9.316406 C 34.378906 8.339844 34.378906 8.339844 33.351562 8.339844 L 30.679688 8.339844 C 29.652344 8.339844 29.652344 8.339844 29.652344 9.316406 L 29.652344 11.273438 L 18.550781 11.273438 L 18.550781 9.316406 C 18.550781 8.339844 18.550781 8.339844 17.523438 8.339844 L 14.851562 8.339844 C 13.824219 8.339844 13.824219 8.339844 13.824219 9.316406 Z M 15.195312 9.640625 L 17.183594 9.640625 L 17.183594 13.566406 C 17.183594 15.191406 15.195312 15.191406 15.195312 13.566406 Z M 31.023438 9.640625 L 33.011719 9.640625 L 33.011719 13.566406 C 33.011719 15.191406 31.023438 15.191406 31.023438 13.566406 Z M 11.769531 18.125 L 36.441406 18.125 L 36.441406 37.703125 L 11.769531 37.703125 Z M 11.769531 18.125 "/>
<path style=" stroke:none;fill-rule:nonzero;fill:rgb(100%,100%,100%);fill-opacity:1;" d="M 23.628906 34.441406 L 13.792969 34.441406 L 13.792969 32.863281 L 17.242188 30.144531 C 17.675781 29.804688 18.070312 29.488281 18.425781 29.203125 C 18.777344 28.914062 19.082031 28.632812 19.335938 28.359375 C 19.589844 28.085938 19.789062 27.808594 19.929688 27.523438 C 20.070312 27.242188 20.140625 26.933594 20.140625 26.609375 C 20.140625 26.246094 19.988281 25.964844 19.6875 25.765625 C 19.394531 25.566406 18.996094 25.464844 18.496094 25.464844 C 17.964844 25.464844 17.457031 25.558594 16.96875 25.75 C 16.484375 25.941406 15.972656 26.210938 15.4375 26.5625 L 13.75 25.105469 C 14.050781 24.90625 14.367188 24.714844 14.695312 24.535156 C 15.019531 24.347656 15.382812 24.183594 15.777344 24.042969 C 16.171875 23.902344 16.605469 23.789062 17.082031 23.707031 C 17.554688 23.617188 18.085938 23.574219 18.675781 23.574219 C 19.378906 23.574219 20.003906 23.644531 20.5625 23.785156 C 21.121094 23.929688 21.601562 24.132812 21.996094 24.394531 C 22.390625 24.652344 22.691406 24.96875 22.898438 25.339844 C 23.109375 25.710938 23.21875 26.128906 23.21875 26.59375 C 23.21875 27.011719 23.117188 27.414062 22.917969 27.800781 C 22.714844 28.183594 22.441406 28.558594 22.09375 28.929688 C 21.746094 29.296875 21.34375 29.660156 20.882812 30.027344 C 20.425781 30.390625 19.9375 30.757812 19.417969 31.132812 L 17.652344 32.429688 L 17.652344 32.535156 L 23.628906 32.535156 Z M 23.628906 34.441406 "/>
<path style=" stroke:none;fill-rule:nonzero;fill:rgb(100%,100%,100%);fill-opacity:1;" d="M 34.921875 32.222656 L 33.160156 32.222656 L 33.160156 34.441406 L 30.140625 34.441406 L 30.140625 32.222656 L 24.082031 32.222656 L 24.082031 30.648438 L 30.3125 23.730469 L 33.160156 23.730469 L 33.160156 30.464844 L 34.921875 30.464844 Z M 30.140625 30.464844 L 30.140625 28.648438 C 30.140625 28.582031 30.140625 28.492188 30.140625 28.375 C 30.148438 28.253906 30.152344 28.117188 30.160156 27.964844 C 30.167969 27.8125 30.171875 27.65625 30.179688 27.496094 C 30.195312 27.335938 30.203125 27.179688 30.210938 27.035156 C 30.222656 26.886719 30.234375 26.761719 30.242188 26.65625 C 30.253906 26.542969 30.265625 26.460938 30.269531 26.414062 L 30.179688 26.414062 C 30.058594 26.617188 29.921875 26.835938 29.769531 27.066406 C 29.621094 27.296875 29.453125 27.523438 29.257812 27.753906 L 26.8125 30.464844 Z M 30.140625 30.464844 "/>
</g>
</svg>
