
<svg xmlns="http://www.w3.org/2000/svg" xmlns:xlink="http://www.w3.org/1999/xlink" width="48px" height="48px" viewBox="0 0 48 48" version="1.1">
<g id="surface1">
<path style=" stroke:none;fill-rule:nonzero;fill:rgb(43.921569%,50.196078%,56.470588%);fill-opacity:1;" d="M 42.417969 8.761719 C 54.09375 26.714844 44.671875 43.074219 31.453125 46.953125 C 13.671875 52.171875 -10.46875 38.453125 5.4375 10.183594 C 11.761719 -1.050781 34.097656 -4.027344 42.414062 8.761719 Z M 42.417969 8.761719 "/>
<path style=" stroke:none;fill-rule:nonzero;fill:rgb(100%,100%,100%);fill-opacity:1;" d="M 18.863281 14.53125 L 33.105469 14.53125 C 33.820312 14.53125 34.398438 15.175781 34.398438 15.96875 C 34.398438 16.765625 33.820312 17.410156 33.105469 17.410156 L 18.863281 17.410156 C 18.148438 17.410156 17.570312 16.765625 17.570312 15.96875 C 17.570312 15.175781 18.148438 14.53125 18.863281 14.53125 Z M 18.863281 14.53125 "/>
<path style=" stroke:none;fill-rule:nonzero;fill:rgb(100%,100%,100%);fill-opacity:1;" d="M 18.863281 20.289062 L 33.105469 20.289062 C 33.820312 20.289062 34.398438 20.933594 34.398438 21.730469 C 34.398438 22.527344 33.820312 23.171875 33.105469 23.171875 L 18.863281 23.171875 C 18.148438 23.171875 17.570312 22.527344 17.570312 21.730469 C 17.570312 20.933594 18.148438 20.289062 18.863281 20.289062 Z M 18.863281 20.289062 "/>
<path style=" stroke:none;fill-rule:nonzero;fill:rgb(100%,100%,100%);fill-opacity:1;" d="M 18.863281 26.050781 L 33.105469 26.050781 C 33.820312 26.050781 34.398438 26.695312 34.398438 27.488281 C 34.398438 28.285156 33.820312 28.929688 33.105469 28.929688 L 18.863281 28.929688 C 18.148438 28.929688 17.570312 28.285156 17.570312 27.488281 C 17.570312 26.695312 18.148438 26.050781 18.863281 26.050781 Z M 18.863281 26.050781 "/>
<path style=" stroke:none;fill-rule:nonzero;fill:rgb(100%,100%,100%);fill-opacity:1;" d="M 18.863281 31.808594 L 33.105469 31.808594 C 33.820312 31.808594 34.398438 32.453125 34.398438 33.25 C 34.398438 34.042969 33.820312 34.6875 33.105469 34.6875 L 18.863281 34.6875 C 18.148438 34.6875 17.570312 34.042969 17.570312 33.25 C 17.570312 32.453125 18.148438 31.808594 18.863281 31.808594 Z M 18.863281 31.808594 "/>
<path style="fill:none;stroke-width:2;stroke-linecap:round;stroke-linejoin:round;stroke:rgb(100%,100%,100%);stroke-opacity:1;stroke-miterlimit:4;" d="M 8.012023 17.998312 L 10.00967 22.002518 C 11.283094 19.794236 12.749644 16.880606 14.010998 14.99787 " transform="matrix(0.647246,0,0,0.719946,7.861125,7.33125)"/>
<path style=" stroke:none;fill-rule:nonzero;fill:rgb(100%,100%,100%);fill-opacity:1;" d="M 15.628906 15.96875 C 15.628906 16.765625 15.046875 17.410156 14.332031 17.410156 C 13.617188 17.410156 13.039062 16.765625 13.039062 15.96875 C 13.039062 15.175781 13.617188 14.53125 14.332031 14.53125 C 15.046875 14.53125 15.628906 15.175781 15.628906 15.96875 Z M 15.628906 15.96875 "/>
<path style=" stroke:none;fill-rule:nonzero;fill:rgb(100%,100%,100%);fill-opacity:1;" d="M 15.628906 27.488281 C 15.628906 28.285156 15.046875 28.929688 14.332031 28.929688 C 13.617188 28.929688 13.039062 28.285156 13.039062 27.488281 C 13.039062 26.695312 13.617188 26.050781 14.332031 26.050781 C 15.046875 26.050781 15.628906 26.695312 15.628906 27.488281 Z M 15.628906 27.488281 "/>
<path style=" stroke:none;fill-rule:nonzero;fill:rgb(100%,100%,100%);fill-opacity:1;" d="M 15.628906 33.25 C 15.628906 34.042969 15.046875 34.6875 14.332031 34.6875 C 13.617188 34.6875 13.039062 34.042969 13.039062 33.25 C 13.039062 32.453125 13.617188 31.808594 14.332031 31.808594 C 15.046875 31.808594 15.628906 32.453125 15.628906 33.25 Z M 15.628906 33.25 "/>
</g>
</svg>
