
<svg xmlns="http://www.w3.org/2000/svg" xmlns:xlink="http://www.w3.org/1999/xlink" width="48px" height="48px" viewBox="0 0 48 48" version="1.1">
<g id="surface1">
<path style=" stroke:none;fill-rule:nonzero;fill:rgb(53.72549%,45.098039%,60.392157%);fill-opacity:1;" d="M 9.894531 43.316406 C 45.980469 67.308594 68.207031 -9.199219 21.558594 0.929688 C 2.277344 5.246094 -9.421875 32.316406 9.894531 43.316406 Z M 9.894531 43.316406 "/>
<path style=" stroke:none;fill-rule:nonzero;fill:rgb(0%,0%,0%);fill-opacity:0.117647;" d="M 21.371094 14.171875 L 21.371094 22.035156 L 28.773438 22.035156 L 28.773438 14.171875 Z M 12.125 24 L 12.125 31.863281 L 19.523438 31.863281 L 19.523438 24 Z M 21.371094 24 L 21.371094 31.863281 L 28.773438 31.863281 L 28.773438 24 Z M 30.621094 24 L 30.621094 31.863281 L 38.019531 31.863281 L 38.019531 24 Z M 30.621094 24 "/>
<path style=" stroke:none;fill-rule:nonzero;fill:rgb(94.509804%,70.980392%,7.45098%);fill-opacity:1;" d="M 20.449219 13.1875 L 27.847656 13.1875 L 27.847656 21.050781 L 20.449219 21.050781 M 20.449219 13.1875 "/>
<path style=" stroke:none;fill-rule:nonzero;fill:rgb(49.411765%,76.078431%,19.607843%);fill-opacity:1;" d="M 27.847656 23.019531 L 27.847656 30.882812 L 20.449219 30.882812 L 20.449219 23.019531 M 27.847656 23.019531 "/>
<path style=" stroke:none;fill-rule:nonzero;fill:rgb(86.27451%,43.921569%,29.411765%);fill-opacity:1;" d="M 18.597656 23.019531 L 18.597656 30.882812 L 11.199219 30.882812 L 11.199219 23.019531 M 18.597656 23.019531 "/>
<path style=" stroke:none;fill-rule:nonzero;fill:rgb(3.529412%,65.490196%,89.019608%);fill-opacity:1;" d="M 37.097656 23.019531 L 37.097656 30.882812 L 29.695312 30.882812 L 29.695312 23.019531 M 37.097656 23.019531 "/>
</g>
</svg>
