
<svg xmlns="http://www.w3.org/2000/svg" xmlns:xlink="http://www.w3.org/1999/xlink" width="48px" height="48px" viewBox="0 0 48 48" version="1.1">
<g id="surface1">
<path style=" stroke:none;fill-rule:nonzero;fill:rgb(27.45098%,50.980392%,70.588235%);fill-opacity:1;" d="M 39.660156 7.269531 C 77.183594 57.003906 -26.074219 64.070312 7.0625 13.300781 C 14.617188 1.726562 29.722656 -5.90625 39.660156 7.269531 Z M 39.660156 7.269531 "/>
<path style=" stroke:none;fill-rule:nonzero;fill:rgb(100%,100%,100%);fill-opacity:1;" d="M 21.980469 39.261719 C 19.855469 38.546875 18.09375 36.746094 17.125 34.3125 L 16.585938 32.960938 L 14.269531 32.960938 C 11.476562 32.960938 10.339844 32.429688 9.171875 30.566406 C 7.300781 27.585938 8.082031 23.839844 10.996094 21.792969 C 11.597656 21.371094 12.09375 20.796875 12.09375 20.515625 C 12.09375 19.570312 13.273438 17.875 14.371094 17.253906 C 15.003906 16.894531 16.027344 16.636719 16.8125 16.636719 C 18.03125 16.636719 18.273438 16.507812 19.253906 15.351562 C 20.546875 13.824219 21.796875 13.183594 23.492188 13.183594 C 25.164062 13.183594 26.417969 13.820312 27.757812 15.359375 C 28.375 16.0625 29.007812 16.636719 29.171875 16.640625 C 30.867188 16.648438 33.105469 18.292969 33.75 19.996094 C 34.125 20.996094 34.195312 21.03125 35.757812 21.039062 C 37.761719 21.046875 39.339844 21.808594 40.558594 23.347656 C 41.425781 24.445312 41.476562 24.640625 41.476562 26.960938 C 41.476562 28.992188 41.367188 29.597656 40.839844 30.453125 C 39.558594 32.542969 38.976562 32.792969 35.128906 32.910156 L 31.648438 33.011719 L 31.195312 34.332031 C 29.90625 38.074219 25.476562 40.445312 21.976562 39.261719 Z M 25.171875 37.164062 C 25.265625 37.054688 25.070312 36.71875 24.738281 36.417969 C 24.132812 35.875 24.132812 35.851562 24.609375 33.949219 C 25.425781 30.671875 25.179688 29.507812 23.667969 29.507812 C 22.699219 29.507812 22.503906 29.757812 22.910156 30.476562 C 23.167969 30.9375 23.132812 31.527344 22.75 33.191406 C 22.171875 35.699219 22.128906 36.933594 22.617188 37.148438 C 23.132812 37.382812 24.964844 37.390625 25.171875 37.160156 Z M 16.746094 29.777344 C 17.96875 22.957031 25.511719 20.570312 29.675781 25.691406 C 31.03125 27.359375 31.34375 28.070312 31.554688 29.957031 L 31.730469 31.550781 L 34.695312 31.550781 C 37.3125 31.550781 37.765625 31.46875 38.546875 30.847656 C 40.308594 29.449219 40.75 26.484375 39.46875 24.671875 C 38.5625 23.394531 37.847656 23.101562 35.144531 22.90625 C 32.925781 22.746094 32.574219 22.636719 32.175781 21.996094 C 31.929688 21.59375 31.371094 20.84375 30.9375 20.324219 C 30.242188 19.496094 30.007812 19.402344 28.996094 19.554688 C 28.050781 19.695312 27.753906 19.605469 27.320312 19.042969 C 25.066406 16.128906 24.914062 16.007812 23.511719 16.007812 C 22.269531 16.007812 22.0625 16.125 20.949219 17.453125 C 19.703125 18.941406 18.621094 19.4375 16.589844 19.453125 C 15.5 19.460938 14.488281 20.371094 14.308594 21.503906 C 14.246094 21.910156 13.636719 22.433594 12.582031 22.992188 C 10.605469 24.039062 9.832031 25.269531 9.832031 27.367188 C 9.828125 30.078125 11.769531 31.753906 14.753906 31.621094 L 16.425781 31.550781 Z M 25.773438 27.445312 C 26.625 26.496094 26.136719 25.113281 24.945312 25.113281 C 23.65625 25.113281 23.238281 26.625 24.300781 27.449219 C 25.085938 28.058594 25.222656 28.058594 25.773438 27.445312 Z M 25.773438 27.445312 "/>
</g>
</svg>
