
<svg xmlns="http://www.w3.org/2000/svg" xmlns:xlink="http://www.w3.org/1999/xlink" width="48px" height="48px" viewBox="0 0 48 48" version="1.1">
<g id="surface1">
<path style=" stroke:none;fill-rule:nonzero;fill:rgb(6.27451%,59.607843%,92.54902%);fill-opacity:1;" d="M 41.84375 7.59375 C 69.0625 49.132812 -5.285156 65.210938 0.636719 22.472656 C 3.050781 5.042969 31.429688 -8.300781 41.84375 7.59375 Z M 41.84375 7.59375 "/>
<path style="fill-rule:nonzero;fill:rgb(100%,100%,100%);fill-opacity:1;stroke-width:4;stroke-linecap:butt;stroke-linejoin:miter;stroke:rgb(100%,100%,100%);stroke-opacity:1;stroke-miterlimit:4;" d="M 70.675419 4.904823 C 56.237272 4.904823 47.349374 13.530731 47.349374 28.209908 L 47.349374 86.548286 L 29.873591 86.548286 C 20.160656 86.548286 12.360307 94.341869 12.360307 104.064932 L 12.360307 220.703855 C 12.360307 230.389085 20.160656 238.220501 29.873591 238.220501 L 181.530385 238.220501 C 191.205819 238.220501 199.006168 230.389085 199.006168 220.703855 L 199.006168 104.064932 C 199.006168 94.341869 191.205819 86.548286 181.530385 86.548286 L 164.017101 86.548286 L 164.017101 28.209908 C 164.017101 14.211724 156.066745 4.904823 140.691056 4.904823 Z M 79.450812 28.209908 L 131.953164 28.209908 C 136.790881 28.209908 140.691056 32.144533 140.691056 36.987148 L 140.691056 86.548286 L 70.675419 86.548286 L 70.675419 36.987148 C 70.675419 32.144533 74.613095 28.209908 79.450812 28.209908 Z M 79.450812 28.209908 " transform="matrix(0.104162,0,0,0.10325,13.591432,10.399827)"/>
<path style="fill-rule:nonzero;fill:rgb(100%,100%,100%);fill-opacity:1;stroke-width:4;stroke-linecap:butt;stroke-linejoin:miter;stroke:rgb(100%,100%,100%);stroke-opacity:1;stroke-miterlimit:4;" d="M 60.324955 1.991688 C 45.849307 1.991688 36.99891 10.655429 36.99891 25.334605 L 36.99891 83.672983 L 19.485626 83.672983 C 9.810192 83.672983 2.009843 91.466567 2.009843 101.151797 L 2.009843 217.828552 C 2.009843 227.513782 9.810192 235.307366 19.485626 235.307366 L 171.14242 235.307366 C 180.855355 235.307366 188.655705 227.513782 188.655705 217.828552 L 188.655705 101.151797 C 188.655705 91.466567 180.855355 83.672983 171.14242 83.672983 L 153.666637 83.672983 L 153.666637 25.334605 C 153.666637 11.336421 145.678779 1.991688 130.30309 1.991688 Z M 69.062847 25.334605 L 121.565199 25.334605 C 126.402916 25.334605 130.30309 29.231397 130.30309 34.074012 L 130.30309 83.672983 L 60.324955 83.672983 L 60.324955 34.074012 C 60.324955 29.231397 64.22513 25.334605 69.062847 25.334605 Z M 69.062847 25.334605 " transform="matrix(0.104162,0,0,0.10325,13.591432,10.399827)"/>
<path style="fill-rule:nonzero;fill:rgb(11.764706%,56.470588%,100%);fill-opacity:1;stroke-width:4;stroke-linecap:butt;stroke-linejoin:miter;stroke:rgb(100%,100%,100%);stroke-opacity:1;stroke-miterlimit:4;" d="M 96.664083 116.738964 C 83.913512 116.738964 73.60055 127.067354 73.60055 139.817051 C 73.60055 148.367293 78.250758 155.858213 85.151068 159.830671 L 85.151068 201.863056 C 85.151068 206.630005 90.288798 210.451131 96.664083 210.451131 C 103.076871 210.451131 108.214601 206.630005 108.214601 201.863056 L 108.214601 159.830671 C 115.11491 155.858213 119.765118 148.367293 119.765118 139.817051 C 119.765118 127.067354 109.414655 116.738964 96.664083 116.738964 Z M 96.664083 116.738964 " transform="matrix(0.104162,0,0,0.10325,13.591432,10.399827)"/>
<path style="fill-rule:nonzero;fill:rgb(100%,100%,100%);fill-opacity:1;stroke-width:4.087858;stroke-linecap:butt;stroke-linejoin:miter;stroke:rgb(100%,100%,100%);stroke-opacity:1;stroke-miterlimit:4;" d="M 20.506883 167.330425 L 236.801556 167.330425 C 247.551939 167.330425 256.258234 176.029972 256.258234 186.799015 L 256.258234 222.095416 C 256.258234 232.826135 247.551939 241.564007 236.801556 241.564007 L 20.506883 241.564007 C 9.7565 241.564007 1.050204 232.826135 1.050204 222.095416 L 1.050204 186.799015 C 1.050204 176.029972 9.7565 167.330425 20.506883 167.330425 Z M 20.506883 167.330425 " transform="matrix(0.103194,0,0,0.101927,10.622094,11.776543)"/>
<path style="fill-rule:nonzero;fill:rgb(27.45098%,50.980392%,70.588235%);fill-opacity:1;stroke-width:1;stroke-linecap:butt;stroke-linejoin:miter;stroke:rgb(27.45098%,50.980392%,70.588235%);stroke-opacity:1;stroke-miterlimit:4;" d="M 60.866065 196.878227 L 44.811167 205.309506 L 60.866065 213.740785 L 58.285814 217.879777 L 43.234346 209.141905 L 43.234346 225.39128 L 38.073843 225.39128 L 38.073843 209.141905 L 23.022376 217.879777 L 20.442124 213.740785 L 36.497023 205.309506 L 20.442124 196.878227 L 23.022376 192.585939 L 38.073843 201.477106 L 38.073843 185.074436 L 43.234346 185.074436 L 43.234346 201.477106 L 58.285814 192.585939 Z M 60.866065 196.878227 " transform="matrix(0.109001,0,0,0.101927,10.506163,11.776543)"/>
<path style="fill-rule:nonzero;fill:rgb(27.45098%,50.980392%,70.588235%);fill-opacity:1;stroke-width:1;stroke-linecap:butt;stroke-linejoin:miter;stroke:rgb(27.45098%,50.980392%,70.588235%);stroke-opacity:1;stroke-miterlimit:4;" d="M 117.6316 197.414763 L 101.576701 205.846042 L 117.6316 214.277321 L 115.051348 218.416313 L 99.999881 209.678441 L 99.999881 225.927816 L 94.839378 225.927816 L 94.839378 209.678441 L 79.78791 218.416313 L 77.207659 214.277321 L 93.262557 205.846042 L 77.207659 197.414763 L 79.78791 193.122475 L 94.839378 202.013642 L 94.839378 185.610972 L 99.999881 185.610972 L 99.999881 202.013642 L 115.051348 193.122475 Z M 117.6316 197.414763 " transform="matrix(0.109001,0,0,0.101927,10.506163,11.776543)"/>
<path style="fill-rule:nonzero;fill:rgb(27.45098%,50.980392%,70.588235%);fill-opacity:1;stroke-width:1;stroke-linecap:butt;stroke-linejoin:miter;stroke:rgb(27.45098%,50.980392%,70.588235%);stroke-opacity:1;stroke-miterlimit:4;" d="M 174.146276 196.878227 L 158.091378 205.309506 L 174.146276 213.740785 L 171.566025 217.879777 L 156.514557 209.141905 L 156.514557 225.39128 L 151.354054 225.39128 L 151.354054 209.141905 L 136.302587 217.879777 L 133.722335 213.740785 L 149.777234 205.309506 L 133.722335 196.878227 L 136.302587 192.585939 L 151.354054 201.477106 L 151.354054 185.074436 L 156.514557 185.074436 L 156.514557 201.477106 L 171.566025 192.585939 Z M 174.146276 196.878227 " transform="matrix(0.109001,0,0,0.101927,10.506163,11.776543)"/>
<path style="fill-rule:nonzero;fill:rgb(27.45098%,50.980392%,70.588235%);fill-opacity:1;stroke-width:1;stroke-linecap:butt;stroke-linejoin:miter;stroke:rgb(27.45098%,50.980392%,70.588235%);stroke-opacity:1;stroke-miterlimit:4;" d="M 228.152375 197.414763 L 212.097476 205.846042 L 228.152375 214.277321 L 225.572123 218.416313 L 210.520656 209.678441 L 210.520656 225.927816 L 205.360153 225.927816 L 205.360153 209.678441 L 190.308685 218.416313 L 187.728434 214.277321 L 203.783332 205.846042 L 187.728434 197.414763 L 190.308685 193.122475 L 205.360153 202.013642 L 205.360153 185.610972 L 210.520656 185.610972 L 210.520656 202.013642 L 225.572123 193.122475 Z M 228.152375 197.414763 " transform="matrix(0.109001,0,0,0.101927,10.506163,11.776543)"/>
</g>
</svg>
