
<svg xmlns="http://www.w3.org/2000/svg" xmlns:xlink="http://www.w3.org/1999/xlink" width="48px" height="48px" viewBox="0 0 48 48" version="1.1">
<defs>
<linearGradient id="linear0" gradientUnits="userSpaceOnUse" x1="0" y1="7.607097" x2="0" y2="45.326421" gradientTransform="matrix(0.656367,0,0,0.578047,9.2275,7.606279)">
<stop offset="0" style="stop-color:rgb(13.72549%,100%,74.509804%);stop-opacity:1;"/>
<stop offset="1" style="stop-color:rgb(24.705882%,85.490196%,53.333333%);stop-opacity:1;"/>
</linearGradient>
</defs>
<g id="surface1">
<path style=" stroke:none;fill-rule:nonzero;fill:rgb(14.509804%,73.72549%,43.529412%);fill-opacity:1;" d="M 24.132812 0.398438 C 55.960938 -3.207031 55.519531 48.410156 23.566406 47.800781 C -6.148438 49.5 -8.832031 -2.414062 24.132812 0.398438 Z M 24.132812 0.398438 "/>
<path style=" stroke:none;fill-rule:nonzero;fill:url(#linear0);" d="M 35.9375 11.871094 C 36.316406 11.871094 36.625 12.171875 36.625 12.546875 L 36.625 33.132812 C 36.625 33.507812 36.316406 33.808594 35.9375 33.808594 L 12.40625 33.808594 C 12.027344 33.808594 11.71875 33.507812 11.71875 33.132812 L 11.71875 12.546875 C 11.71875 12.171875 12.027344 11.871094 12.40625 11.871094 Z M 35.9375 11.871094 "/>
<path style=" stroke:none;fill-rule:nonzero;fill:rgb(12.156863%,70.196078%,40%);fill-opacity:0.8;" d="M 14.832031 28.324219 L 33.511719 28.324219 C 33.855469 28.324219 34.132812 28.597656 34.132812 28.933594 L 34.132812 31.371094 C 34.132812 31.707031 33.855469 31.980469 33.511719 31.980469 L 14.832031 31.980469 C 14.488281 31.980469 14.207031 31.707031 14.207031 31.371094 L 14.207031 28.933594 C 14.207031 28.597656 14.488281 28.324219 14.832031 28.324219 Z M 14.832031 28.324219 "/>
<path style=" stroke:none;fill-rule:nonzero;fill:rgb(100%,100%,100%);fill-opacity:1;" d="M 14.832031 14.917969 L 17.324219 14.917969 C 17.667969 14.917969 17.945312 15.191406 17.945312 15.527344 L 17.945312 17.964844 C 17.945312 18.300781 17.667969 18.574219 17.324219 18.574219 L 14.832031 18.574219 C 14.488281 18.574219 14.207031 18.300781 14.207031 17.964844 L 14.207031 15.527344 C 14.207031 15.191406 14.488281 14.917969 14.832031 14.917969 Z M 14.832031 14.917969 "/>
<path style=" stroke:none;fill-rule:nonzero;fill:rgb(100%,100%,100%);fill-opacity:1;" d="M 14.832031 21.011719 L 17.324219 21.011719 C 17.667969 21.011719 17.945312 21.285156 17.945312 21.621094 L 17.945312 24.058594 C 17.945312 24.394531 17.667969 24.667969 17.324219 24.667969 L 14.832031 24.667969 C 14.488281 24.667969 14.207031 24.394531 14.207031 24.058594 L 14.207031 21.621094 C 14.207031 21.285156 14.488281 21.011719 14.832031 21.011719 Z M 14.832031 21.011719 "/>
</g>
</svg>
