
<svg xmlns="http://www.w3.org/2000/svg" xmlns:xlink="http://www.w3.org/1999/xlink" width="48px" height="48px" viewBox="0 0 48 48" version="1.1">
<g id="surface1">
<path style=" stroke:none;fill-rule:nonzero;fill:rgb(27.45098%,50.980392%,70.588235%);fill-opacity:1;" d="M 39.59375 7.125 C 77.4375 56.875 -26.703125 63.941406 6.714844 13.15625 C 14.335938 1.578125 29.570312 -6.054688 39.59375 7.125 Z M 39.59375 7.125 "/>
<path style=" stroke:none;fill-rule:nonzero;fill:rgb(100%,100%,100%);fill-opacity:0.988235;" d="M 7.65625 34.445312 C 7.378906 33.929688 7.460938 32.742188 8.277344 25.363281 C 8.886719 19.871094 9.160156 17.890625 9.480469 16.6875 L 9.671875 15.960938 L 11.792969 15.816406 C 12.960938 15.734375 16.105469 15.710938 18.78125 15.761719 C 22.933594 15.839844 23.699219 15.898438 23.972656 16.175781 C 24.273438 16.472656 24.277344 17.046875 24.035156 23.046875 C 23.707031 31.132812 23.71875 32.265625 24.148438 33.386719 C 24.640625 34.679688 24.355469 34.957031 22.679688 34.824219 C 21.984375 34.765625 21.359375 34.664062 21.289062 34.59375 C 21.21875 34.523438 21.316406 31.347656 21.503906 27.539062 C 21.988281 17.835938 21.867188 17.945312 20.636719 17.789062 C 18.648438 17.539062 12.890625 17.257812 11.785156 18.078125 C 11.289062 18.445312 11.070312 18.699219 10.070312 27.339844 C 9.621094 31.195312 9.160156 34.46875 9.039062 34.613281 C 8.695312 35.027344 7.914062 34.929688 7.652344 34.445312 Z M 7.65625 34.445312 "/>
<path style=" stroke:none;fill-rule:nonzero;fill:rgb(100%,100%,100%);fill-opacity:0.988235;" d="M 19.046875 32.300781 C 18.710938 31.96875 17.742188 30.710938 16.894531 29.507812 C 14.984375 26.785156 14.789062 26.746094 12.886719 28.652344 L 11.554688 29.988281 L 11.667969 28.996094 C 11.730469 28.449219 12.113281 27.386719 12.515625 26.628906 C 13.355469 25.046875 13.382812 24.773438 12.863281 23.066406 C 12.628906 22.296875 12.546875 21.574219 12.652344 21.199219 L 12.820312 20.589844 L 13.558594 21.390625 C 14.636719 22.566406 15.070312 22.460938 16.679688 20.644531 C 18.070312 19.074219 19.078125 18.476562 19.570312 18.929688 C 19.761719 19.101562 19.394531 19.808594 18.1875 21.585938 C 15.671875 25.292969 15.734375 24.746094 17.484375 27.679688 C 19.367188 30.835938 19.835938 31.832031 19.738281 32.429688 C 19.660156 32.894531 19.648438 32.894531 19.046875 32.300781 Z M 19.046875 32.300781 "/>
<path style=" stroke:none;fill-rule:nonzero;fill:rgb(100%,100%,100%);fill-opacity:0.988235;" d="M 27.964844 17.707031 C 26.320312 17.285156 26.484375 16.210938 28.246094 15.886719 C 29.605469 15.632812 38.609375 15.769531 38.957031 16.046875 C 39.292969 16.3125 38.972656 16.816406 38.113281 17.382812 C 37.605469 17.71875 36.738281 17.800781 33.109375 17.84375 C 30.695312 17.875 28.378906 17.8125 27.964844 17.707031 Z M 27.964844 17.707031 "/>
<path style=" stroke:none;fill-rule:nonzero;fill:rgb(100%,100%,100%);fill-opacity:0.988235;" d="M 27.789062 34.730469 C 26.804688 34.566406 26.769531 34.34375 27.109375 30.636719 C 27.558594 25.769531 27.535156 22.996094 27.027344 21.929688 C 26.535156 20.898438 26.527344 20.632812 26.976562 20.410156 C 27.417969 20.191406 37.933594 20.023438 39.34375 20.214844 C 40.046875 20.308594 40.394531 20.453125 40.394531 20.652344 C 40.394531 21.292969 39.488281 21.46875 35.40625 21.609375 C 33.15625 21.691406 31.15625 21.828125 30.960938 21.921875 C 30.242188 22.257812 29.96875 23.332031 29.699219 26.851562 C 29.308594 31.941406 29.25 31.519531 30.414062 31.96875 C 31.835938 32.515625 36.835938 32.40625 37.6875 31.808594 L 38.25 31.410156 L 38.109375 28.785156 C 37.960938 25.929688 37.972656 25.890625 39.117188 25.890625 C 39.464844 25.890625 39.667969 26.058594 39.820312 26.480469 C 40.101562 27.246094 40.941406 32.117188 41.027344 33.476562 C 41.085938 34.449219 41.050781 34.546875 40.59375 34.6875 C 40.074219 34.84375 28.722656 34.882812 27.789062 34.730469 Z M 27.789062 34.730469 "/>
</g>
</svg>
