
<svg xmlns="http://www.w3.org/2000/svg" xmlns:xlink="http://www.w3.org/1999/xlink" width="48px" height="48px" viewBox="0 0 48 48" version="1.1">
<defs>
<radialGradient id="radial0" gradientUnits="userSpaceOnUse" cx="5.291" cy="37.82" fx="5.291" fy="37.82" r="14.986" gradientTransform="matrix(2.481392,0,0,1.751055,-7.769532,-28.141181)">
<stop offset="0" style="stop-color:rgb(100%,54.509804%,21.176471%);stop-opacity:1;"/>
<stop offset="1" style="stop-color:rgb(100%,87.843137%,29.019608%);stop-opacity:1;"/>
</radialGradient>
<linearGradient id="linear0" gradientUnits="userSpaceOnUse" x1="0" y1="9" x2="0" y2="45" spreadMethod="repeat" gradientTransform="matrix(1,0,0,1,0.000000000000000444,0)">
<stop offset="0" style="stop-color:rgb(100%,100%,100%);stop-opacity:0.4;"/>
<stop offset="1" style="stop-color:rgb(100%,100%,100%);stop-opacity:0;"/>
</linearGradient>
</defs>
<g id="surface1">
<path style=" stroke:none;fill-rule:nonzero;fill:rgb(100%,84.313725%,0%);fill-opacity:1;" d="M 22.105469 47.675781 C 51.09375 50.433594 58.898438 3.941406 29.128906 0.328125 C 1.757812 -4.144531 -12.339844 38 14.859375 46.425781 C 17.15625 47.351562 19.671875 47.332031 22.101562 47.675781 Z M 22.105469 47.675781 "/>
<path style=" stroke:none;fill-rule:evenodd;fill:rgb(0%,0%,0%);fill-opacity:0.14902;" d="M 29.023438 7.582031 C 28.164062 7.582031 27.292969 7.738281 26.46875 8.074219 C 24.382812 8.921875 23.152344 10.6875 23.109375 12.542969 C 24.007812 12.578125 24.925781 12.429688 25.792969 12.078125 C 27.871094 11.230469 29.070312 9.4375 29.023438 7.582031 Z M 23.054688 13.257812 C 19.214844 13.257812 16.09375 15.730469 16.09375 18.769531 C 15.9375 19.75 15.675781 20.535156 15.289062 21.460938 C 14.660156 22.859375 13.480469 24.046875 12.417969 25.363281 C 11.359375 26.679688 10.425781 28.132812 10.425781 30.019531 C 10.398438 33.820312 14.292969 37.910156 17.9375 39.246094 C 18.800781 39.542969 19.6875 39.523438 20.527344 39.460938 C 20.53125 39.460938 20.535156 39.460938 20.535156 39.460938 L 20.601562 39.460938 C 21.441406 39.398438 22.265625 39.292969 23.105469 39.289062 C 23.945312 39.296875 24.773438 39.398438 25.609375 39.460938 L 25.675781 39.460938 C 25.679688 39.460938 25.683594 39.460938 25.6875 39.460938 C 26.527344 39.523438 27.410156 39.542969 28.273438 39.246094 C 33.160156 36.785156 35.445312 33.964844 35.761719 30.261719 C 31.042969 30.074219 27.335938 26.960938 27.332031 23.1875 C 27.332031 21.257812 28.316406 19.414062 30.058594 18.074219 C 29.625 15.363281 26.695312 13.257812 23.15625 13.257812 L 23.136719 13.257812 C 23.117188 13.257812 23.097656 13.257812 23.078125 13.257812 C 23.070312 13.257812 23.0625 13.257812 23.058594 13.257812 Z M 23.054688 13.257812 "/>
<path style=" stroke:none;fill-rule:evenodd;fill:url(#radial0);" d="M 29.023438 6.875 C 28.164062 6.875 27.292969 7.027344 26.46875 7.363281 C 24.382812 8.214844 23.152344 9.980469 23.109375 11.832031 C 24.007812 11.867188 24.925781 11.71875 25.792969 11.367188 C 27.871094 10.519531 29.070312 8.726562 29.023438 6.875 Z M 23.054688 12.546875 C 19.214844 12.546875 16.09375 15.019531 16.09375 18.058594 C 15.9375 19.039062 15.675781 19.828125 15.289062 20.753906 C 14.660156 22.148438 13.480469 23.339844 12.417969 24.65625 C 11.359375 25.96875 10.425781 27.425781 10.425781 29.308594 C 10.398438 33.113281 14.292969 37.199219 17.9375 38.535156 C 18.800781 38.835938 19.6875 38.816406 20.527344 38.75 C 20.53125 38.75 20.535156 38.75 20.535156 38.75 L 20.601562 38.75 C 21.441406 38.691406 22.265625 38.585938 23.105469 38.582031 C 23.945312 38.589844 24.773438 38.691406 25.609375 38.75 L 25.675781 38.75 C 25.679688 38.75 25.683594 38.75 25.6875 38.75 C 26.527344 38.816406 27.410156 38.835938 28.273438 38.535156 C 33.160156 36.074219 35.445312 33.253906 35.761719 29.554688 C 31.042969 29.363281 27.335938 26.253906 27.332031 22.476562 C 27.332031 20.550781 28.316406 18.703125 30.058594 17.367188 C 29.625 14.65625 26.695312 12.550781 23.15625 12.550781 L 23.136719 12.550781 C 23.117188 12.546875 23.097656 12.546875 23.078125 12.550781 C 23.070312 12.550781 23.0625 12.550781 23.058594 12.550781 Z M 23.054688 12.546875 "/>
<path style=" stroke:none;fill-rule:evenodd;fill:rgb(40%,69.019608%,24.313725%);fill-opacity:1;" d="M 29.023438 6.875 C 28.164062 6.875 27.292969 7.027344 26.46875 7.363281 C 24.382812 8.214844 23.152344 9.980469 23.109375 11.832031 C 24.007812 11.867188 24.925781 11.71875 25.792969 11.367188 C 27.871094 10.519531 29.070312 8.726562 29.023438 6.875 Z M 29.023438 6.875 "/>
<path style="fill:none;stroke-width:1;stroke-linecap:butt;stroke-linejoin:miter;stroke:rgb(0%,0%,0%);stroke-opacity:0.4;stroke-miterlimit:4;" d="M 30.472636 1.535303 C 27.408327 1.733578 24.792341 4.43231 24.542759 7.478022 C 27.690262 7.384393 30.315492 4.658122 30.472636 1.535303 Z M 23.928048 9.488303 C 19.990203 9.367135 16.117064 12.743304 16.195636 16.758357 C 16.195636 16.780388 16.195636 16.802418 16.191014 16.824449 C 15.830507 19.991329 14.402345 22.899351 12.456532 25.344733 C 10.404416 27.960851 8.916169 31.276437 9.674158 34.542454 C 10.663241 39.014639 13.806122 43.024184 17.882624 45.100556 C 19.065826 45.590734 20.332223 45.541165 21.686435 45.403475 C 23.04989 45.265784 24.487296 45.04548 25.957055 45.353906 L 25.933946 45.348399 C 27.889003 45.662333 29.908766 45.612764 31.327685 44.290936 C 31.350794 44.268906 31.369282 44.252383 31.392391 44.23586 C 35.062167 41.845554 38.024795 38.061821 38.422277 33.655727 C 38.426899 33.622682 38.43152 33.584128 38.445386 33.551082 C 38.486983 33.4189 38.477739 33.363824 38.477739 33.352808 C 38.436142 33.330778 38.186561 33.264686 37.853785 33.253671 C 37.511765 33.242656 37.10504 33.253671 36.698314 33.20961 C 36.365538 33.171057 36.018897 33.060905 35.723096 32.829585 C 29.307921 30.918441 26.23899 22.420188 30.45877 17.050261 C 30.495746 17.000693 30.541964 16.962139 30.592805 16.934601 C 31.202894 16.565591 31.466341 16.17455 31.572644 15.744956 C 31.674326 15.315362 31.60962 14.814169 31.397013 14.274422 C 30.976421 13.200437 29.996582 12.049345 29.20624 11.327847 C 27.75959 10.110663 25.850752 9.455257 23.95578 9.488303 C 23.946536 9.488303 23.941914 9.488303 23.93267 9.488303 Z M 23.928048 9.488303 " transform="matrix(0.845164,0,0,0.709245,2.82375,6.165)"/>
<path style="fill:none;stroke-width:1;stroke-linecap:round;stroke-linejoin:round;stroke:url(#linear0);stroke-miterlimit:4;" d="M 29.210862 2.824086 C 27.671774 3.396878 26.414622 4.680153 25.836886 6.227793 C 27.412949 5.699062 28.670101 4.415787 29.210862 2.824086 Z M 23.895695 10.463151 C 20.526342 10.358506 17.096904 13.35465 17.166232 16.741835 C 17.166232 16.807926 17.16161 16.86851 17.152366 16.934601 C 16.76875 20.321786 15.24815 23.389529 13.214521 25.956078 L 13.219143 25.945063 C 11.27333 28.434506 9.956093 31.474711 10.617022 34.327657 C 10.617022 34.333164 10.617022 34.333164 10.617022 34.338672 C 11.536777 38.491415 14.490161 42.264133 18.275484 44.208322 C 19.204483 44.588347 20.267516 44.571825 21.584753 44.439642 C 22.915856 44.307459 24.464187 44.048601 26.151175 44.406596 L 26.081846 44.390073 C 27.916734 44.687485 29.566747 44.60487 30.662133 43.580454 C 30.72684 43.525377 30.791546 43.475809 30.860874 43.431748 C 34.147034 41.289285 36.716801 37.968192 37.299159 34.211997 C 37.063443 34.206489 36.873945 34.217504 36.578145 34.184458 C 36.22226 34.140398 35.764693 33.997199 35.316371 33.716311 C 28.309594 31.529787 25.041922 22.370619 29.686916 16.455439 C 29.797841 16.31224 29.931876 16.196581 30.084398 16.102951 C 30.518855 15.838585 30.574318 15.68988 30.615914 15.519144 C 30.657511 15.348407 30.643646 15.050996 30.48188 14.632417 C 30.158348 13.806275 29.261702 12.721274 28.549932 12.071375 C 27.29278 11.01942 25.615036 10.435613 23.960401 10.463151 C 23.937292 10.463151 23.914183 10.463151 23.891073 10.463151 Z M 23.895695 10.463151 " transform="matrix(0.845164,0,0,0.709245,2.82375,6.165)"/>
</g>
</svg>
