
<svg xmlns="http://www.w3.org/2000/svg" xmlns:xlink="http://www.w3.org/1999/xlink" width="48px" height="48px" viewBox="0 0 48 48" version="1.1">
<g id="surface1">
<path style=" stroke:none;fill-rule:nonzero;fill:rgb(69.019608%,76.862745%,87.058824%);fill-opacity:1;" d="M 42.417969 8.761719 C 54.09375 26.714844 44.671875 43.074219 31.453125 46.953125 C 13.671875 52.171875 -10.46875 38.453125 5.4375 10.183594 C 11.761719 -1.050781 34.097656 -4.027344 42.414062 8.761719 Z M 42.417969 8.761719 "/>
<path style=" stroke:none;fill-rule:nonzero;fill:rgb(94.509804%,18.431373%,18.039216%);fill-opacity:1;" d="M 11.621094 37.042969 C 11.53125 36.953125 11.457031 34.597656 11.457031 31.8125 L 11.457031 26.746094 L 12.101562 26.585938 C 13.1875 26.3125 12.449219 27.960938 13.316406 28.203125 L 14.171875 28.441406 L 33.644531 28.441406 L 34.964844 28.191406 C 35.738281 28.042969 34.191406 26.496094 35.183594 26.496094 C 36.277344 26.496094 36.34375 26.839844 36.273438 32.125 L 36.207031 37.082031 L 23.996094 37.144531 C 17.28125 37.179688 11.710938 37.132812 11.621094 37.042969 Z M 23.496094 24.402344 C 23.21875 24.210938 22.289062 25.269531 21.429688 25.230469 L 19.871094 25.15625 L 19.871094 9.578125 L 28.402344 9.578125 L 27.59375 17.128906 C 27.042969 22.230469 26.324219 22.261719 26.515625 22.453125 C 30.777344 23.25 26.453125 24.105469 25.324219 24.789062 C 24.726562 25.242188 24.136719 25.242188 23.496094 24.792969 Z M 23.496094 24.402344 "/>
<path style=" stroke:none;fill-rule:nonzero;fill:rgb(4.313725%,90.980392%,3.921569%);fill-opacity:1;" d="M 11.609375 31.855469 C 11.671875 27.136719 11.710938 26.746094 12.128906 26.664062 C 12.375 26.617188 12.847656 26.644531 13.175781 26.726562 L 13.773438 26.878906 L 13.773438 31.148438 C 13.773438 35.375 13.78125 35.425781 14.328125 35.570312 C 15.042969 35.761719 32.234375 35.773438 33.179688 35.585938 L 33.886719 35.441406 L 33.894531 31.261719 C 33.90625 26.683594 33.945312 26.558594 35.367188 26.679688 L 36.109375 26.746094 L 36.195312 36.957031 L 11.542969 36.957031 Z M 23.777344 25.40625 C 23.6875 25.261719 23.707031 25.136719 23.816406 25.125 C 23.925781 25.113281 23.691406 25.007812 23.296875 24.886719 C 22.898438 24.769531 22.085938 24.742188 21.484375 24.824219 C 20.683594 24.933594 20.328125 24.878906 20.171875 24.628906 C 20.050781 24.4375 19.949219 20.949219 19.949219 16.875 L 19.945312 9.46875 L 22.234375 9.308594 C 23.496094 9.21875 25.386719 9.21875 26.433594 9.308594 L 28.339844 9.46875 L 28.277344 17.121094 L 28.210938 24.777344 L 27.101562 24.800781 C 24.957031 24.847656 24.632812 24.902344 24.695312 25.191406 C 24.773438 25.566406 23.992188 25.75 23.777344 25.40625 Z M 23.777344 25.40625 "/>
<path style=" stroke:none;fill-rule:nonzero;fill:rgb(31.764706%,18.431373%,14.901961%);fill-opacity:1;" d="M 11.457031 31.980469 C 11.519531 27.234375 11.558594 26.839844 11.980469 26.761719 C 12.230469 26.714844 12.710938 26.742188 13.042969 26.824219 L 13.648438 26.972656 L 13.648438 31.269531 C 13.648438 35.515625 13.65625 35.570312 14.210938 35.714844 C 14.929688 35.90625 32.339844 35.917969 33.292969 35.730469 L 34.011719 35.585938 L 34.023438 31.386719 C 34.03125 26.78125 34.074219 26.652344 35.511719 26.777344 L 36.261719 26.839844 L 36.304688 31.976562 L 36.347656 37.109375 L 11.390625 37.109375 Z M 23.769531 25.480469 C 23.679688 25.339844 23.894531 25.234375 24.269531 25.234375 C 24.640625 25.234375 24.855469 25.339844 24.765625 25.480469 C 24.683594 25.617188 24.457031 25.726562 24.269531 25.726562 C 24.078125 25.726562 23.851562 25.617188 23.769531 25.480469 Z M 20.046875 24.59375 C 19.964844 24.378906 19.894531 20.871094 19.894531 16.800781 L 19.894531 9.398438 L 21.894531 9.398438 L 21.894531 24.984375 L 21.046875 24.984375 C 20.503906 24.984375 20.144531 24.84375 20.046875 24.59375 Z M 26.699219 17.269531 L 26.765625 9.519531 L 27.582031 9.441406 L 28.398438 9.367188 L 28.332031 17.113281 L 28.265625 24.863281 L 27.449219 24.941406 L 26.632812 25.015625 Z M 26.699219 17.269531 "/>
<path style="fill-rule:evenodd;fill:rgb(31.764706%,18.431373%,14.901961%);fill-opacity:1;stroke-width:1.142;stroke-linecap:butt;stroke-linejoin:miter;stroke:rgb(100%,27.058824%,0%);stroke-opacity:0.0117647;stroke-miterlimit:4;" d="M 106.584299 133.816019 L 148.345826 133.816019 L 148.345826 138.491827 L 106.584299 138.491827 Z M 106.584299 133.816019 " transform="matrix(0.199047,0,0,0.2005,-1.277768,-2.57622)"/>
</g>
</svg>
