
<svg xmlns="http://www.w3.org/2000/svg" xmlns:xlink="http://www.w3.org/1999/xlink" width="48px" height="48px" viewBox="0 0 48 48" version="1.1">
<g id="surface1">
<path style=" stroke:none;fill-rule:nonzero;fill:rgb(46.27451%,52.156863%,70.196078%);fill-opacity:1;" d="M 3.894531 37.964844 C -11.71875 15.636719 23.445312 -12.324219 41.820312 5.847656 C 59.148438 22.984375 36.746094 54.957031 15.203125 46.644531 C 10.695312 44.90625 6.75 42.042969 3.894531 37.964844 Z M 3.894531 37.964844 "/>
<path style=" stroke:none;fill-rule:nonzero;fill:rgb(46.666667%,52.54902%,70.588235%);fill-opacity:1;" d="M 12.425781 33.355469 C 7.863281 28.875 7.898438 29.425781 11.953125 25.355469 C 15.164062 22.128906 15.921875 21.5625 16.707031 21.8125 C 16.972656 21.894531 18.292969 23.023438 19.644531 24.316406 C 20.996094 25.613281 22.320312 26.742188 22.589844 26.824219 C 22.984375 26.949219 23.390625 26.699219 24.742188 25.5 C 27.519531 23.03125 27.554688 23.449219 24.300781 20.160156 C 22.765625 18.609375 21.507812 17.175781 21.507812 16.976562 C 21.507812 16.78125 21.671875 16.300781 21.871094 15.914062 C 22.394531 14.894531 26.992188 10.320312 28.027344 9.789062 C 28.515625 9.539062 28.789062 9.292969 28.636719 9.242188 C 28.113281 9.0625 28.359375 8.746094 29.023438 8.746094 C 29.386719 8.746094 29.683594 8.835938 29.683594 8.945312 C 29.683594 9.058594 30.878906 10.308594 32.335938 11.722656 C 34.941406 14.253906 34.988281 14.316406 34.988281 15.277344 C 34.988281 15.886719 34.816406 16.535156 34.527344 16.996094 C 34.277344 17.402344 34.175781 17.734375 34.308594 17.734375 C 34.761719 17.734375 34.542969 18.199219 33.59375 19.222656 C 32.332031 20.597656 31.386719 21.863281 31.03125 22.667969 C 30.742188 23.324219 30.742188 23.328125 32.785156 25.222656 C 34.542969 26.859375 34.8125 27.199219 34.71875 27.691406 C 34.65625 28.003906 34.695312 28.257812 34.796875 28.257812 C 34.902344 28.257812 34.988281 28.789062 34.988281 29.441406 C 34.988281 30.605469 34.96875 30.644531 33.097656 32.785156 C 32.054688 33.972656 31.011719 35.109375 30.777344 35.308594 C 30.539062 35.511719 30.347656 35.8125 30.347656 35.980469 C 30.347656 36.488281 29.855469 36.808594 29.078125 36.808594 C 28.460938 36.808594 28.117188 36.585938 27.003906 35.441406 C 24.828125 33.207031 22.835938 30.964844 22.835938 30.753906 C 22.835938 30.648438 23.480469 29.925781 24.269531 29.152344 C 25.058594 28.378906 25.660156 27.703125 25.609375 27.652344 C 25.386719 27.429688 23.667969 29.085938 20.269531 32.808594 C 18.261719 35.007812 16.464844 36.808594 16.277344 36.808594 C 16.089844 36.808594 14.355469 35.257812 12.425781 33.355469 Z M 29.148438 32.933594 C 29.042969 32.667969 29.449219 32.121094 30.585938 30.980469 C 31.574219 29.996094 32.109375 29.300781 32.007812 29.136719 C 31.917969 28.992188 31.144531 28.542969 30.292969 28.136719 C 29.136719 27.589844 28.640625 27.453125 28.34375 27.609375 C 27.695312 27.953125 27.03125 28.9375 27.039062 29.550781 C 27.042969 30.304688 27.734375 31.769531 28.328125 32.292969 C 28.589844 32.523438 28.800781 32.84375 28.800781 33.007812 C 28.800781 33.167969 28.910156 33.300781 29.046875 33.300781 C 29.183594 33.300781 29.226562 33.140625 29.148438 32.933594 Z M 17.617188 30.289062 C 18.167969 29.957031 18.667969 29.5625 18.730469 29.414062 C 19 28.761719 16.085938 28.15625 15.582031 28.761719 C 15.355469 29.03125 15.390625 29.257812 15.777344 29.992188 C 16.039062 30.484375 16.332031 30.890625 16.433594 30.890625 C 16.535156 30.890625 17.070312 30.617188 17.617188 30.289062 Z M 30.199219 17.742188 L 30.597656 17.074219 L 29.570312 16.636719 C 28.351562 16.117188 28.265625 16.109375 27.9375 16.503906 C 27.667969 16.824219 28.003906 18.640625 28.4375 19.222656 C 28.6875 19.558594 29.546875 18.835938 30.199219 17.742188 Z M 24.050781 15.980469 C 24.125 15.859375 24.03125 15.761719 23.84375 15.761719 C 23.652344 15.761719 23.496094 15.859375 23.496094 15.980469 C 23.496094 16.101562 23.589844 16.199219 23.707031 16.199219 C 23.820312 16.199219 23.976562 16.101562 24.050781 15.980469 Z M 29.023438 12.253906 C 29.023438 12.132812 28.921875 12.035156 28.800781 12.035156 C 28.679688 12.035156 28.582031 12.132812 28.582031 12.253906 C 28.582031 12.375 28.679688 12.472656 28.800781 12.472656 C 28.921875 12.472656 29.023438 12.375 29.023438 12.253906 Z M 29.023438 12.253906 "/>
<path style=" stroke:none;fill-rule:nonzero;fill:rgb(37.254902%,41.960784%,58.823529%);fill-opacity:1;" d="M 12.425781 33.355469 C 7.863281 28.875 7.898438 29.425781 11.953125 25.355469 C 15.164062 22.128906 15.921875 21.5625 16.707031 21.8125 C 16.972656 21.894531 18.292969 23.023438 19.644531 24.316406 C 20.996094 25.613281 22.320312 26.742188 22.589844 26.824219 C 22.984375 26.949219 23.390625 26.699219 24.742188 25.5 C 27.519531 23.03125 27.554688 23.449219 24.300781 20.160156 C 22.765625 18.609375 21.507812 17.175781 21.507812 16.976562 C 21.507812 16.78125 21.671875 16.300781 21.871094 15.914062 C 22.394531 14.894531 26.992188 10.320312 28.027344 9.789062 C 28.515625 9.539062 28.789062 9.292969 28.636719 9.242188 C 28.113281 9.0625 28.359375 8.746094 29.023438 8.746094 C 29.386719 8.746094 29.683594 8.835938 29.683594 8.945312 C 29.683594 9.058594 30.878906 10.308594 32.335938 11.722656 C 34.941406 14.253906 34.988281 14.316406 34.988281 15.277344 C 34.988281 15.886719 34.816406 16.535156 34.527344 16.996094 C 34.277344 17.402344 34.175781 17.734375 34.308594 17.734375 C 34.761719 17.734375 34.542969 18.199219 33.59375 19.222656 C 32.332031 20.597656 31.386719 21.863281 31.03125 22.667969 C 30.742188 23.324219 30.742188 23.328125 32.785156 25.222656 C 34.542969 26.859375 34.8125 27.199219 34.71875 27.691406 C 34.65625 28.003906 34.695312 28.257812 34.796875 28.257812 C 34.902344 28.257812 34.988281 28.789062 34.988281 29.441406 C 34.988281 30.605469 34.96875 30.644531 33.097656 32.785156 C 32.054688 33.972656 31.011719 35.109375 30.777344 35.308594 C 30.539062 35.511719 30.347656 35.8125 30.347656 35.980469 C 30.347656 36.488281 29.855469 36.808594 29.078125 36.808594 C 28.460938 36.808594 28.117188 36.585938 27.003906 35.441406 C 24.828125 33.207031 22.835938 30.964844 22.835938 30.753906 C 22.835938 30.648438 23.480469 29.925781 24.269531 29.152344 C 25.058594 28.378906 25.660156 27.703125 25.609375 27.652344 C 25.386719 27.429688 23.667969 29.085938 20.269531 32.808594 C 18.261719 35.007812 16.464844 36.808594 16.277344 36.808594 C 16.089844 36.808594 14.355469 35.257812 12.425781 33.355469 Z M 29.425781 32.652344 C 29.582031 32.296875 30.304688 31.496094 31.023438 30.878906 C 31.746094 30.257812 32.335938 29.613281 32.335938 29.449219 C 32.335938 29.28125 31.652344 28.699219 30.8125 28.148438 C 29.976562 27.601562 29.167969 27.007812 29.019531 26.828125 C 28.53125 26.246094 28.171875 26.484375 27.351562 27.9375 C 26.449219 29.535156 26.457031 29.890625 27.402344 31.402344 C 28.007812 32.371094 28.792969 33.300781 29.007812 33.300781 C 29.078125 33.300781 29.265625 33.011719 29.425781 32.652344 Z M 17.941406 30.878906 C 19.816406 29.117188 19.808594 29.023438 17.734375 28.253906 C 16.226562 27.691406 15.503906 27.835938 15.066406 28.792969 C 14.703125 29.585938 15.460938 32.433594 16.035156 32.414062 C 16.1875 32.410156 17.046875 31.71875 17.941406 30.878906 Z M 28.035156 25.832031 C 28.273438 25.449219 28.003906 25.371094 27.699219 25.734375 C 27.527344 25.941406 27.507812 26.066406 27.65625 26.066406 C 27.785156 26.066406 27.957031 25.960938 28.035156 25.832031 Z M 29.242188 20.238281 C 29.242188 20.046875 29.839844 19.273438 30.570312 18.519531 C 31.296875 17.765625 31.894531 17.03125 31.894531 16.890625 C 31.894531 16.488281 30.855469 16.183594 29.289062 16.136719 C 27.984375 16.09375 27.832031 16.136719 27.425781 16.671875 L 26.980469 17.253906 L 27.570312 18.527344 C 28.382812 20.289062 29.242188 21.167969 29.242188 20.238281 Z M 24.050781 15.980469 C 24.125 15.859375 24.03125 15.761719 23.84375 15.761719 C 23.652344 15.761719 23.496094 15.859375 23.496094 15.980469 C 23.496094 16.101562 23.589844 16.199219 23.707031 16.199219 C 23.820312 16.199219 23.976562 16.101562 24.050781 15.980469 Z M 29.023438 12.253906 C 29.023438 12.132812 28.921875 12.035156 28.800781 12.035156 C 28.679688 12.035156 28.582031 12.132812 28.582031 12.253906 C 28.582031 12.375 28.679688 12.472656 28.800781 12.472656 C 28.921875 12.472656 29.023438 12.375 29.023438 12.253906 Z M 29.023438 12.253906 "/>
<path style=" stroke:none;fill-rule:nonzero;fill:rgb(42.352941%,42.745098%,43.137255%);fill-opacity:1;" d="M 12.425781 33.355469 C 7.863281 28.875 7.898438 29.425781 11.953125 25.355469 C 15.164062 22.128906 15.921875 21.5625 16.707031 21.8125 C 16.972656 21.894531 18.292969 23.023438 19.644531 24.316406 C 20.996094 25.613281 22.320312 26.742188 22.589844 26.824219 C 22.984375 26.949219 23.390625 26.699219 24.742188 25.5 C 27.519531 23.03125 27.554688 23.449219 24.300781 20.160156 C 22.765625 18.609375 21.507812 17.175781 21.507812 16.976562 C 21.507812 16.78125 21.671875 16.300781 21.871094 15.914062 C 22.394531 14.894531 26.992188 10.320312 28.027344 9.789062 C 28.515625 9.539062 28.789062 9.292969 28.636719 9.242188 C 28.113281 9.0625 28.359375 8.746094 29.023438 8.746094 C 29.386719 8.746094 29.683594 8.835938 29.683594 8.945312 C 29.683594 9.058594 30.878906 10.308594 32.335938 11.722656 C 34.941406 14.253906 34.988281 14.316406 34.988281 15.277344 C 34.988281 15.886719 34.816406 16.535156 34.527344 16.996094 C 34.277344 17.402344 34.175781 17.734375 34.308594 17.734375 C 34.761719 17.734375 34.542969 18.199219 33.59375 19.222656 C 32.332031 20.597656 31.386719 21.863281 31.03125 22.667969 C 30.742188 23.324219 30.742188 23.328125 32.785156 25.222656 C 34.542969 26.859375 34.8125 27.199219 34.71875 27.691406 C 34.65625 28.003906 34.695312 28.257812 34.796875 28.257812 C 34.902344 28.257812 34.988281 28.789062 34.988281 29.441406 C 34.988281 30.605469 34.96875 30.644531 33.097656 32.785156 C 32.054688 33.972656 31.011719 35.109375 30.777344 35.308594 C 30.539062 35.511719 30.347656 35.8125 30.347656 35.980469 C 30.347656 36.488281 29.855469 36.808594 29.078125 36.808594 C 28.460938 36.808594 28.117188 36.585938 27.003906 35.441406 C 24.828125 33.207031 22.835938 30.964844 22.835938 30.753906 C 22.835938 30.648438 23.480469 29.925781 24.269531 29.152344 C 25.058594 28.378906 25.660156 27.703125 25.609375 27.652344 C 25.386719 27.429688 23.667969 29.085938 20.269531 32.808594 C 18.261719 35.007812 16.464844 36.808594 16.277344 36.808594 C 16.089844 36.808594 14.355469 35.257812 12.425781 33.355469 Z M 30.710938 31.535156 C 31.664062 30.5625 32.476562 29.632812 32.515625 29.464844 C 32.554688 29.300781 32.070312 28.820312 31.441406 28.402344 C 30.8125 27.980469 29.777344 27.140625 29.140625 26.53125 C 27.917969 25.363281 27.476562 25.351562 27.476562 26.476562 C 27.476562 26.773438 27.238281 27.417969 26.949219 27.910156 C 26.042969 29.464844 26.050781 29.589844 27.15625 31.226562 C 27.972656 32.433594 28.660156 33.230469 28.941406 33.296875 C 28.960938 33.300781 29.753906 32.507812 30.710938 31.535156 Z M 18.109375 31.289062 C 19.128906 30.304688 19.960938 29.378906 19.960938 29.238281 C 19.960938 29.097656 19.390625 28.628906 18.691406 28.199219 C 17.992188 27.773438 17.179688 27.164062 16.886719 26.851562 C 16.589844 26.542969 16.226562 26.285156 16.074219 26.285156 C 15.785156 26.285156 14.710938 28.402344 14.515625 29.355469 C 14.332031 30.265625 15.558594 33.082031 16.136719 33.082031 C 16.203125 33.082031 17.09375 32.277344 18.109375 31.289062 Z M 31.117188 18.84375 C 32.402344 17.550781 32.625 17.226562 32.429688 16.910156 C 32.0625 16.308594 30.765625 15.773438 29.339844 15.632812 C 28.113281 15.511719 27.964844 15.550781 27.089844 16.199219 C 26.570312 16.582031 26.148438 16.984375 26.148438 17.09375 C 26.148438 17.339844 28.335938 20.417969 28.65625 20.625 C 29.003906 20.851562 29.429688 20.542969 31.117188 18.84375 Z M 24.050781 15.980469 C 24.125 15.859375 24.03125 15.761719 23.84375 15.761719 C 23.652344 15.761719 23.496094 15.859375 23.496094 15.980469 C 23.496094 16.101562 23.589844 16.199219 23.707031 16.199219 C 23.820312 16.199219 23.976562 16.101562 24.050781 15.980469 Z M 29.023438 12.253906 C 29.023438 12.132812 28.921875 12.035156 28.800781 12.035156 C 28.679688 12.035156 28.582031 12.132812 28.582031 12.253906 C 28.582031 12.375 28.679688 12.472656 28.800781 12.472656 C 28.921875 12.472656 29.023438 12.375 29.023438 12.253906 Z M 29.023438 12.253906 "/>
<path style=" stroke:none;fill-rule:nonzero;fill:rgb(30.196078%,30.588235%,30.980392%);fill-opacity:1;" d="M 27.917969 35.949219 C 27.371094 35.484375 26.039062 34.148438 24.957031 32.980469 L 22.992188 30.859375 L 24.183594 29.652344 C 24.839844 28.988281 25.558594 28.347656 25.785156 28.222656 C 26.140625 28.027344 26.171875 28.0625 26.023438 28.515625 C 25.929688 28.796875 25.863281 29.199219 25.875 29.410156 C 25.898438 29.769531 27.714844 32.675781 29.234375 34.789062 C 29.730469 35.476562 29.875 35.871094 29.773438 36.269531 C 29.582031 37.023438 29.078125 36.9375 27.917969 35.949219 Z M 15.292969 35.71875 C 14.105469 34.929688 9.402344 30.246094 9.34375 29.792969 C 9.175781 28.476562 9.351562 28.195312 11.953125 25.574219 C 14.359375 23.148438 15.71875 22.121094 16.511719 22.121094 C 16.6875 22.121094 17.84375 23.082031 19.085938 24.257812 C 20.324219 25.433594 21.585938 26.527344 21.886719 26.6875 C 22.261719 26.886719 22.402344 27.109375 22.324219 27.394531 C 22.230469 27.761719 22.273438 27.78125 22.691406 27.5625 C 23.117188 27.335938 23.722656 26.808594 26.640625 24.117188 C 27.292969 23.515625 27.488281 23.429688 27.589844 23.699219 C 27.671875 23.90625 27.449219 24.304688 27.023438 24.726562 C 26.636719 25.109375 26.378906 25.554688 26.445312 25.726562 C 26.589844 26.101562 26.242188 26.394531 25.4375 26.585938 C 24.816406 26.734375 22.105469 29.101562 21.703125 29.84375 C 21.578125 30.074219 21.4375 30.46875 21.386719 30.722656 C 21.339844 30.976562 21.066406 31.4375 20.785156 31.75 C 20.5 32.0625 19.539062 33.132812 18.648438 34.132812 C 17.753906 35.132812 16.855469 36.042969 16.644531 36.15625 C 16.359375 36.304688 16.011719 36.191406 15.292969 35.71875 Z M 18.003906 31.425781 C 19.019531 30.394531 19.878906 29.425781 19.914062 29.269531 C 19.953125 29.117188 19.40625 28.636719 18.699219 28.207031 C 17.996094 27.773438 17.179688 27.164062 16.886719 26.851562 C 16.589844 26.542969 16.226562 26.285156 16.074219 26.285156 C 15.804688 26.285156 14.777344 28.265625 14.519531 29.273438 C 14.363281 29.902344 15.507812 33.300781 15.878906 33.300781 C 16.03125 33.300781 16.984375 32.457031 18.003906 31.425781 Z M 17.265625 25.027344 C 16.886719 24.574219 15.386719 24.261719 14.878906 24.53125 C 13.921875 25.039062 14.480469 25.3125 16.460938 25.304688 C 17.257812 25.300781 17.441406 25.238281 17.265625 25.027344 Z M 29.796875 34.503906 C 29.160156 33.988281 29.148438 33.945312 29.484375 33.402344 C 29.878906 32.753906 34.261719 28.699219 34.566406 28.699219 C 34.675781 28.699219 34.765625 29.066406 34.761719 29.519531 C 34.757812 30.230469 34.503906 30.628906 32.882812 32.496094 C 31.855469 33.679688 31.011719 34.742188 31.011719 34.851562 C 31.011719 35.210938 30.480469 35.058594 29.796875 34.503906 Z M 31.34375 28.15625 C 29.257812 26.597656 28.417969 25.699219 28.746094 25.375 C 29.070312 25.054688 29.492188 25.34375 31.675781 27.351562 C 32.773438 28.363281 33.257812 28.953125 33.109375 29.09375 C 32.964844 29.238281 32.367188 28.921875 31.34375 28.15625 Z M 32.277344 27.210938 C 31.582031 26.515625 31.011719 25.875 31.011719 25.792969 C 31.011719 25.710938 31.371094 25.855469 31.8125 26.113281 C 32.566406 26.554688 32.601562 26.554688 32.378906 26.160156 C 32.042969 25.550781 29.359375 22.996094 29.054688 22.996094 C 28.632812 22.996094 28.765625 23.320312 29.464844 23.984375 C 30.40625 24.878906 30.289062 25.15625 29.328125 24.320312 C 28.886719 23.933594 28.3125 23.511719 28.054688 23.375 C 27.796875 23.242188 26.25 21.773438 24.613281 20.109375 L 21.644531 17.085938 L 22.15625 16.148438 C 22.914062 14.769531 27.171875 10.539062 28.324219 10.015625 L 29.285156 9.582031 L 30.015625 10.097656 C 31.152344 10.902344 34.769531 14.429688 34.769531 14.738281 C 34.769531 14.886719 34.316406 15.449219 33.769531 15.984375 C 32.90625 16.824219 32.714844 16.921875 32.386719 16.683594 C 31.59375 16.117188 30.523438 15.75 29.296875 15.628906 C 28.121094 15.515625 27.957031 15.554688 27.089844 16.199219 C 26.570312 16.582031 26.148438 16.980469 26.148438 17.085938 C 26.148438 17.191406 26.582031 17.898438 27.113281 18.65625 C 27.644531 19.414062 28.148438 20.328125 28.234375 20.683594 C 28.339844 21.117188 29.425781 22.351562 31.492188 24.382812 L 34.597656 27.433594 L 34.066406 27.957031 L 33.539062 28.480469 Z M 26.398438 14.554688 C 27.804688 13.164062 28.421875 12.691406 28.859375 12.691406 C 29.25 12.691406 29.945312 13.125 31.007812 14.035156 C 31.871094 14.773438 32.621094 15.335938 32.675781 15.28125 C 32.726562 15.226562 32.21875 14.617188 31.542969 13.925781 C 30.589844 12.949219 30.371094 12.601562 30.558594 12.375 C 30.746094 12.152344 30.710938 11.988281 30.429688 11.710938 C 30.105469 11.386719 30.03125 11.378906 29.871094 11.664062 C 29.757812 11.867188 29.507812 11.949219 29.226562 11.875 C 28.871094 11.78125 28.796875 11.636719 28.898438 11.238281 C 28.984375 10.894531 28.933594 10.71875 28.75 10.71875 C 28.390625 10.722656 23.035156 16.105469 23.214844 16.285156 C 23.289062 16.359375 23.613281 16.417969 23.933594 16.417969 C 24.375 16.417969 24.988281 15.957031 26.398438 14.554688 Z M 29.707031 21.925781 L 28.953125 21.308594 L 30.589844 19.785156 C 34.066406 16.550781 34.769531 15.921875 34.769531 16.035156 C 34.769531 16.246094 33.207031 18.480469 32.664062 19.050781 C 32.375 19.351562 31.980469 19.972656 31.789062 20.429688 C 31.597656 20.886719 31.292969 21.320312 31.109375 21.386719 C 30.929688 21.457031 30.796875 21.625 30.8125 21.761719 C 30.929688 22.71875 30.710938 22.753906 29.707031 21.925781 Z M 28.800781 8.957031 C 28.800781 8.839844 28.949219 8.746094 29.132812 8.746094 C 29.316406 8.746094 29.464844 8.785156 29.464844 8.832031 C 29.464844 8.878906 29.316406 8.976562 29.132812 9.042969 C 28.949219 9.113281 28.800781 9.074219 28.800781 8.957031 Z M 28.800781 8.957031 "/>
<path style=" stroke:none;fill-rule:nonzero;fill:rgb(20.784314%,22.352941%,29.019608%);fill-opacity:1;" d="M 28.910156 36.589844 C 28.835938 36.46875 28.929688 36.371094 29.121094 36.371094 C 29.308594 36.371094 29.464844 36.46875 29.464844 36.589844 C 29.464844 36.710938 29.371094 36.808594 29.257812 36.808594 C 29.140625 36.808594 28.988281 36.710938 28.910156 36.589844 Z M 14.425781 34.757812 C 12.089844 32.832031 9.574219 30.082031 9.574219 29.453125 C 9.574219 28.351562 10.226562 27.445312 12.636719 25.191406 C 15.316406 22.683594 16.148438 22.175781 16.910156 22.582031 C 17.367188 22.824219 17.367188 22.835938 16.957031 23.054688 C 16.726562 23.179688 16.492188 23.320312 16.4375 23.367188 C 16.316406 23.46875 17.785156 24.75 18.019531 24.75 C 18.109375 24.75 18.53125 25.058594 18.960938 25.433594 C 19.519531 25.917969 19.742188 26.015625 19.742188 25.769531 C 19.742188 25.585938 19.566406 25.332031 19.355469 25.207031 C 19.140625 25.085938 19.074219 24.980469 19.199219 24.976562 C 19.5625 24.964844 20.917969 26.445312 20.632812 26.539062 C 20.289062 26.652344 20.589844 27.382812 20.980469 27.382812 C 21.148438 27.382812 21.289062 27.285156 21.289062 27.164062 C 21.289062 27.042969 21.4375 26.945312 21.621094 26.945312 C 22.152344 26.945312 22 27.425781 21.171875 28.367188 C 20.597656 29.019531 20.324219 29.1875 20.101562 29.023438 C 19.9375 28.90625 19.515625 28.617188 19.164062 28.386719 C 18.167969 27.726562 16.214844 25.792969 16.339844 25.589844 C 16.554688 25.246094 16.847656 25.410156 18.347656 26.71875 C 19.730469 27.925781 20.402344 28.304688 20.402344 27.871094 C 20.402344 27.636719 17.367188 24.742188 16.492188 24.140625 C 16.101562 23.875 15.683594 23.65625 15.5625 23.65625 C 15.441406 23.65625 14.863281 24.164062 14.28125 24.785156 C 13.699219 25.40625 12.550781 26.574219 11.730469 27.375 C 10.410156 28.671875 9.871094 29.574219 10.425781 29.574219 C 10.835938 29.574219 12.007812 28.867188 12.007812 28.621094 C 12.007812 28.472656 12.589844 27.78125 13.304688 27.082031 C 14.203125 26.199219 14.738281 25.832031 15.054688 25.882812 C 15.503906 25.957031 15.5 25.988281 14.863281 27.457031 C 14.140625 29.136719 14.082031 29.703125 14.519531 30.742188 C 14.929688 31.71875 14.917969 33.261719 14.496094 33.347656 C 14.242188 33.398438 14.273438 33.535156 14.652344 34.015625 C 15.1875 34.683594 15.542969 34.792969 15.542969 34.285156 C 15.542969 34.097656 15.792969 33.855469 16.097656 33.738281 C 16.40625 33.625 16.746094 33.292969 16.855469 33.003906 C 16.96875 32.714844 17.6875 31.972656 18.457031 31.355469 C 22.285156 28.285156 22.878906 27.820312 22.992188 27.820312 C 23.152344 27.820312 22.675781 28.386719 21.621094 29.453125 C 21.132812 29.945312 20.445312 30.886719 20.09375 31.550781 C 19.738281 32.210938 19.035156 33.199219 18.527344 33.746094 C 18.023438 34.292969 17.429688 35.007812 17.210938 35.335938 C 16.636719 36.207031 16.03125 36.082031 14.425781 34.757812 Z M 27.890625 35.546875 C 27.570312 35.335938 26.386719 34.199219 25.257812 33.015625 L 23.210938 30.863281 L 24.171875 29.890625 C 25.285156 28.769531 25.585938 28.675781 25.425781 29.507812 C 25.332031 29.984375 25.550781 30.40625 26.519531 31.636719 C 27.1875 32.480469 27.875 33.449219 28.050781 33.785156 C 28.335938 34.335938 28.332031 34.398438 28.011719 34.398438 C 27.699219 34.398438 27.710938 34.496094 28.109375 35.164062 C 28.359375 35.585938 28.542969 35.933594 28.515625 35.929688 C 28.492188 35.929688 28.207031 35.757812 27.890625 35.546875 Z M 29.835938 34.222656 C 29.496094 33.847656 29.535156 33.761719 30.527344 32.796875 C 31.105469 32.230469 31.648438 31.765625 31.738281 31.765625 C 31.824219 31.765625 31.894531 32.0625 31.894531 32.425781 C 31.894531 32.921875 31.792969 33.082031 31.480469 33.082031 C 30.90625 33.082031 30.503906 33.628906 30.675781 34.167969 C 30.859375 34.742188 30.339844 34.773438 29.835938 34.222656 Z M 32.117188 31.433594 C 32.117188 31.230469 33.933594 29.355469 34.132812 29.355469 C 34.503906 29.355469 34.3125 29.691406 33.421875 30.617188 C 32.621094 31.449219 32.117188 31.761719 32.117188 31.433594 Z M 31.785156 28.285156 C 30.964844 27.773438 28.894531 25.679688 29.054688 25.523438 C 29.117188 25.460938 29.957031 26.144531 30.917969 27.042969 C 31.882812 27.941406 32.617188 28.679688 32.558594 28.6875 C 32.496094 28.691406 32.148438 28.511719 31.785156 28.285156 Z M 23.800781 26.992188 C 23.878906 26.863281 24.363281 26.429688 24.875 26.027344 C 25.730469 25.359375 25.773438 25.347656 25.371094 25.882812 C 24.949219 26.449219 23.503906 27.46875 23.800781 26.992188 Z M 24.832031 20.046875 L 21.859375 17.117188 L 22.292969 16.316406 C 22.75 15.464844 27.570312 10.597656 28.414062 10.132812 C 28.6875 9.980469 29.039062 9.855469 29.199219 9.851562 C 29.355469 9.84375 30.300781 10.640625 31.296875 11.617188 C 32.292969 12.59375 33.433594 13.640625 33.828125 13.945312 C 34.679688 14.601562 34.710938 14.789062 34.050781 15.335938 C 33.359375 15.910156 33.164062 15.859375 33.320312 15.15625 C 33.433594 14.648438 33.285156 14.378906 32.398438 13.453125 C 31.816406 12.851562 31.136719 12.09375 30.882812 11.777344 C 30.476562 11.257812 29.082031 10.5 28.546875 10.5 C 28.167969 10.5 23.054688 15.8125 23.054688 16.203125 C 23.054688 16.753906 24.601562 16.949219 24.988281 16.449219 C 25.140625 16.25 25.980469 15.375 26.847656 14.5 C 28.835938 12.503906 29.082031 12.484375 30.882812 14.175781 C 31.621094 14.871094 32.476562 15.601562 32.777344 15.800781 C 33.203125 16.074219 33.269531 16.21875 33.074219 16.421875 C 32.878906 16.625 32.496094 16.527344 31.390625 15.988281 C 29.257812 14.945312 28.511719 14.914062 26.988281 15.796875 C 26.292969 16.199219 25.722656 16.675781 25.71875 16.859375 C 25.714844 17.039062 26.058594 17.621094 26.484375 18.148438 C 26.90625 18.679688 27.253906 19.28125 27.253906 19.484375 C 27.253906 19.6875 27.652344 20.417969 28.136719 21.105469 C 29.132812 22.515625 29.148438 22.558594 28.691406 22.558594 C 28.507812 22.558594 28.359375 22.65625 28.359375 22.777344 C 28.359375 23.355469 27.574219 22.746094 24.832031 20.046875 Z M 29.742188 21.746094 C 29.589844 21.691406 29.476562 21.53125 29.492188 21.390625 C 29.523438 21.117188 33.222656 17.554688 33.222656 17.796875 C 33.222656 17.921875 30.578125 21.292969 30.15625 21.710938 C 30.078125 21.785156 29.890625 21.800781 29.742188 21.746094 Z M 29.742188 21.746094 "/>
<path style=" stroke:none;fill-rule:nonzero;fill:rgb(19.607843%,20%,20.392157%);fill-opacity:1;" d="M 28.910156 36.589844 C 28.835938 36.46875 28.875 36.371094 28.996094 36.371094 C 29.117188 36.371094 29.277344 36.46875 29.355469 36.589844 C 29.429688 36.710938 29.390625 36.808594 29.269531 36.808594 C 29.148438 36.808594 28.988281 36.710938 28.910156 36.589844 Z M 14.726562 34.863281 C 14.019531 34.277344 12.566406 32.902344 11.496094 31.808594 C 9.589844 29.863281 9.554688 29.808594 9.699219 28.988281 C 9.820312 28.296875 10.296875 27.699219 12.417969 25.566406 C 14.285156 23.691406 15.21875 22.917969 15.820312 22.738281 C 16.277344 22.601562 16.71875 22.554688 16.796875 22.636719 C 16.988281 22.824219 16.203125 23.417969 15.75 23.429688 C 15.558594 23.433594 14.914062 23.945312 14.3125 24.566406 C 13.714844 25.1875 12.5 26.425781 11.617188 27.316406 C 10.230469 28.710938 10.042969 28.992188 10.242188 29.363281 C 10.503906 29.847656 11.027344 29.933594 11.203125 29.519531 C 11.285156 29.324219 11.386719 29.355469 11.5625 29.628906 C 11.9375 30.214844 12.164062 30.085938 12.054688 29.347656 C 11.96875 28.773438 12.125 28.515625 13.238281 27.429688 C 14.660156 26.039062 15.058594 26.183594 14.230469 27.796875 C 13.6875 28.847656 13.660156 29.53125 14.105469 30.59375 C 14.511719 31.5625 14.511719 31.546875 14.105469 31.546875 C 13.925781 31.546875 13.773438 31.6875 13.773438 31.859375 C 13.773438 32.03125 13.660156 32.207031 13.523438 32.253906 C 13.226562 32.351562 14.796875 34.617188 15.15625 34.617188 C 15.429688 34.617188 15.703125 34.375 17.59375 32.453125 C 19.175781 30.847656 21.011719 29.492188 20.773438 30.105469 C 20.492188 30.828125 18.347656 33.761719 17.9375 33.980469 C 17.714844 34.097656 17.53125 34.300781 17.53125 34.425781 C 17.53125 34.824219 16.632812 35.933594 16.3125 35.933594 C 16.144531 35.933594 15.429688 35.453125 14.726562 34.863281 Z M 25.394531 33.046875 L 23.261719 30.816406 L 23.945312 30.195312 L 24.632812 29.574219 L 25.554688 30.703125 C 27.457031 33.023438 27.90625 33.636719 27.910156 33.917969 C 27.914062 34.074219 27.816406 34.144531 27.695312 34.070312 C 27.410156 33.894531 27.414062 34.3125 27.703125 34.851562 C 28.203125 35.777344 27.429688 35.171875 25.394531 33.046875 Z M 29.933594 34.199219 C 29.523438 33.945312 29.636719 33.746094 30.734375 32.769531 C 31.304688 32.265625 31.675781 32.058594 31.675781 32.25 C 31.675781 32.421875 31.382812 32.773438 31.027344 33.035156 C 30.671875 33.296875 30.347656 33.707031 30.308594 33.949219 C 30.257812 34.257812 30.148438 34.332031 29.933594 34.199219 Z M 21.730469 29.054688 C 21.730469 29.007812 21.902344 28.835938 22.117188 28.667969 C 22.46875 28.398438 22.476562 28.40625 22.199219 28.753906 C 21.910156 29.117188 21.730469 29.234375 21.730469 29.054688 Z M 20.464844 28.191406 C 20.675781 27.746094 21.695312 27.054688 21.875 27.234375 C 21.988281 27.34375 20.660156 28.699219 20.4375 28.699219 C 20.308594 28.699219 20.320312 28.496094 20.464844 28.191406 Z M 19.109375 26.292969 C 17.894531 25.117188 17.707031 24.8125 18.414062 25.191406 C 18.660156 25.320312 18.855469 25.515625 18.855469 25.628906 C 18.855469 25.742188 19.144531 25.984375 19.492188 26.164062 C 20.074219 26.460938 20.539062 27.101562 20.328125 27.3125 C 20.28125 27.359375 19.730469 26.898438 19.109375 26.292969 Z M 16.535156 24.09375 C 16.460938 23.972656 16.503906 23.875 16.632812 23.875 C 16.761719 23.875 16.867188 23.972656 16.867188 24.09375 C 16.867188 24.214844 16.824219 24.3125 16.769531 24.3125 C 16.71875 24.3125 16.613281 24.214844 16.535156 24.09375 Z M 27.242188 22.175781 C 26.933594 21.84375 25.671875 20.605469 24.429688 19.421875 C 23.1875 18.242188 22.171875 17.097656 22.171875 16.878906 C 22.171875 16.375 23.160156 15.046875 24.460938 13.800781 C 26.070312 12.261719 25.894531 12.921875 24.265625 14.535156 C 23.460938 15.335938 22.839844 16.113281 22.890625 16.257812 C 22.9375 16.40625 23.242188 16.558594 23.558594 16.597656 C 23.933594 16.640625 24.554688 17.113281 25.289062 17.914062 C 26.59375 19.324219 28.800781 22.035156 28.800781 22.21875 C 28.800781 22.285156 28.652344 22.339844 28.46875 22.339844 C 28.289062 22.339844 28.136719 22.4375 28.136719 22.558594 C 28.136719 22.9375 27.816406 22.800781 27.242188 22.175781 Z M 29.613281 21.515625 C 29.558594 21.425781 30 20.925781 30.59375 20.402344 C 31.882812 19.269531 32 19.449219 30.820312 20.75 C 29.957031 21.699219 29.785156 21.808594 29.613281 21.515625 Z M 31.34375 15.71875 C 30.734375 15.351562 29.910156 14.769531 29.511719 14.421875 C 29.113281 14.074219 28.726562 13.789062 28.652344 13.789062 C 28.578125 13.789062 28.039062 14.234375 27.453125 14.773438 C 25.875 16.238281 25.707031 15.96875 27.183594 14.34375 C 28.042969 13.394531 28.636719 12.921875 28.976562 12.917969 C 29.3125 12.914062 30.074219 13.457031 31.1875 14.5 C 32.125 15.371094 32.921875 16.160156 32.964844 16.253906 C 33.113281 16.597656 32.410156 16.363281 31.34375 15.71875 Z M 33.550781 15.105469 C 33.660156 14.765625 33.558594 14.472656 33.203125 14.101562 C 32.929688 13.808594 32.75 13.523438 32.808594 13.46875 C 32.9375 13.339844 34.546875 14.457031 34.546875 14.675781 C 34.546875 14.761719 34.289062 15.003906 33.972656 15.207031 C 33.414062 15.570312 33.402344 15.570312 33.550781 15.105469 Z M 31.960938 12.863281 C 31.460938 12.21875 31.429688 11.960938 31.90625 12.414062 C 32.191406 12.679688 32.367188 12.953125 32.300781 13.019531 C 32.234375 13.085938 32.082031 13.015625 31.960938 12.863281 Z M 26.953125 11.546875 C 27.257812 10.976562 28.601562 10.0625 29.132812 10.0625 C 29.578125 10.0625 30.128906 10.429688 30.128906 10.734375 C 30.128906 10.8125 29.730469 10.773438 29.246094 10.644531 C 28.402344 10.421875 28.328125 10.445312 27.558594 11.167969 C 27.113281 11.585938 26.84375 11.753906 26.953125 11.546875 Z M 26.953125 11.546875 "/>
</g>
</svg>
