
<svg xmlns="http://www.w3.org/2000/svg" xmlns:xlink="http://www.w3.org/1999/xlink" width="48px" height="48px" viewBox="0 0 48 48" version="1.1">
<g id="surface1">
<path style=" stroke:none;fill-rule:nonzero;fill:rgb(0%,74.901961%,100%);fill-opacity:1;" d="M 43.316406 38.105469 C 66.785156 -13.285156 -8 -6.925781 0.929688 26.441406 C 5.246094 45.71875 32.316406 57.417969 43.316406 38.105469 Z M 43.316406 38.105469 "/>
<path style=" stroke:none;fill-rule:nonzero;fill:rgb(100%,100%,100%);fill-opacity:1;" d="M 35.648438 11.121094 C 35.484375 10.996094 35.316406 10.878906 35.140625 10.765625 C 33.328125 9.613281 31.238281 9.644531 28.878906 10.863281 C 26.667969 11.996094 24.820312 13.917969 23.34375 16.628906 L 23.300781 16.714844 C 23.292969 16.722656 23.285156 16.734375 23.28125 16.746094 C 22.976562 17.328125 22.722656 17.875 22.519531 18.382812 C 22.449219 18.554688 22.445312 18.730469 22.5 18.914062 C 22.554688 19.09375 22.65625 19.234375 22.808594 19.328125 L 29.390625 23.410156 C 29.496094 23.476562 29.617188 23.511719 29.746094 23.507812 C 29.871094 23.507812 29.992188 23.46875 30.097656 23.398438 C 30.210938 23.328125 30.292969 23.230469 30.351562 23.113281 L 35.855469 12.082031 C 35.9375 11.917969 35.957031 11.742188 35.917969 11.558594 C 35.878906 11.375 35.789062 11.230469 35.648438 11.121094 Z M 35.648438 11.121094 "/>
<path style=" stroke:none;fill-rule:nonzero;fill:rgb(100%,100%,100%);fill-opacity:1;" d="M 33.589844 33.730469 C 33.730469 33.621094 33.820312 33.476562 33.859375 33.292969 C 33.898438 33.109375 33.878906 32.933594 33.796875 32.769531 L 25.445312 24.796875 C 25.386719 24.679688 25.300781 24.585938 25.191406 24.511719 C 25.082031 24.441406 24.964844 24.40625 24.839844 24.402344 C 24.710938 24.402344 24.589844 24.433594 24.480469 24.5 L 20.75 25.527344 C 20.597656 25.621094 20.492188 25.757812 20.4375 25.941406 C 20.382812 26.121094 20.390625 26.300781 20.460938 26.472656 C 20.664062 26.980469 20.917969 27.523438 21.222656 28.105469 C 21.226562 28.117188 21.234375 28.128906 21.238281 28.140625 L 21.285156 28.222656 C 22.761719 30.9375 24.609375 32.855469 26.820312 33.988281 C 29.179688 35.207031 31.269531 35.238281 33.082031 34.082031 C 33.257812 33.972656 33.425781 33.855469 33.589844 33.730469 Z M 33.589844 33.730469 "/>
<path style=" stroke:none;fill-rule:nonzero;fill:rgb(100%,100%,100%);fill-opacity:1;" d="M 33.371094 16.410156 C 33.148438 16.25 32.84375 16.050781 32.460938 15.816406 C 30.449219 14.882812 28.195312 14.414062 25.691406 14.414062 C 21.953125 14.414062 18.761719 15.460938 16.117188 17.550781 C 14.265625 19.015625 13.058594 20.695312 12.507812 22.589844 L 12.023438 22.589844 C 11.53125 22.589844 11.109375 22.777344 10.765625 23.152344 C 10.417969 23.523438 10.242188 23.976562 10.242188 24.503906 L 10.242188 25.34375 C 10.242188 25.777344 10.488281 26.160156 10.980469 26.492188 C 19.332031 25.902344 25 26.394531 27.984375 27.960938 C 30.96875 29.53125 32.949219 30.824219 33.933594 31.847656 C 35.695312 33.8125 37.046875 35.78125 37.988281 37.746094 L 41.4375 26.234375 C 40.925781 24.921875 40.015625 23.359375 38.714844 21.546875 C 37.414062 19.734375 36.253906 18.464844 35.238281 17.738281 C 34.21875 17.011719 33.59375 16.566406 33.371094 16.410156 Z M 33.371094 16.410156 "/>
<path style=" stroke:none;fill-rule:nonzero;fill:rgb(100%,100%,100%);fill-opacity:1;" d="M 12.023438 22.589844 L 12.507812 22.589844 C 13.058594 20.695312 14.265625 19.015625 16.117188 17.550781 C 18.761719 15.460938 21.953125 14.414062 25.691406 14.414062 C 28.195312 14.414062 30.449219 14.882812 32.460938 15.816406 C 30.109375 14.371094 27.378906 13.648438 24.269531 13.648438 C 20.53125 13.652344 17.339844 14.695312 14.695312 16.785156 C 12.839844 18.25 11.636719 19.933594 11.085938 21.828125 L 10.597656 21.828125 C 10.109375 21.828125 9.6875 22.015625 9.339844 22.386719 C 8.996094 22.761719 8.820312 23.210938 8.820312 23.738281 L 8.820312 24.582031 C 8.820312 25.109375 8.996094 25.558594 9.34375 25.933594 C 9.6875 26.304688 10.234375 26.488281 10.980469 26.492188 C 10.488281 26.160156 10.242188 25.777344 10.242188 25.34375 L 10.242188 24.503906 C 10.242188 23.976562 10.417969 23.523438 10.765625 23.152344 C 11.109375 22.777344 11.53125 22.589844 12.023438 22.589844 Z M 12.023438 22.589844 "/>
<path style=" stroke:none;fill-rule:nonzero;fill:rgb(68.627451%,93.333333%,93.333333%);fill-opacity:1;" d="M 16.289062 21.691406 C 16.289062 21.953125 16.375 22.171875 16.542969 22.355469 C 16.714844 22.539062 16.921875 22.628906 17.160156 22.628906 C 17.402344 22.628906 17.609375 22.539062 17.777344 22.355469 C 17.949219 22.171875 18.03125 21.949219 18.03125 21.691406 C 18.03125 21.433594 17.949219 21.210938 17.777344 21.027344 C 17.609375 20.847656 17.402344 20.753906 17.160156 20.753906 C 16.921875 20.753906 16.714844 20.847656 16.542969 21.027344 C 16.375 21.210938 16.289062 21.433594 16.289062 21.691406 Z M 16.289062 21.691406 "/>
</g>
</svg>
