
<svg xmlns="http://www.w3.org/2000/svg" xmlns:xlink="http://www.w3.org/1999/xlink" width="48px" height="48px" viewBox="0 0 48 48" version="1.1">
<g id="surface1">
<path style=" stroke:none;fill-rule:nonzero;fill:rgb(27.45098%,50.980392%,70.588235%);fill-opacity:1;" d="M 0.554688 29.347656 C 3.53125 48.855469 29.96875 54.078125 41.636719 40.152344 C 51.914062 29.808594 49.355469 10.003906 36.753906 3.214844 C 22.277344 -5.867188 1.1875 5.363281 0.0351562 23.441406 C -0.0820312 25.425781 0.0820312 27.425781 0.554688 29.347656 Z M 0.554688 29.347656 "/>
<path style=" stroke:none;fill-rule:nonzero;fill:rgb(100%,100%,100%);fill-opacity:1;" d="M 24.527344 10.894531 C 25.167969 10.898438 25.882812 10.976562 26.699219 11.132812 C 28.308594 11.4375 29.140625 11.726562 30.101562 12.316406 C 31.8125 13.363281 32.820312 14.789062 33.484375 17.105469 C 33.714844 17.90625 33.738281 18.542969 33.738281 24.324219 C 33.738281 31.136719 33.75 31.035156 33.023438 31.53125 C 32.671875 31.773438 32.417969 31.792969 29.519531 31.839844 L 26.394531 31.890625 L 26.386719 33.695312 C 26.375 37.515625 26.320312 37.890625 25.664062 38.445312 C 25.246094 38.796875 25.074219 38.859375 24.523438 38.851562 C 24.167969 38.847656 23.753906 38.796875 23.605469 38.742188 C 23.453125 38.683594 23.183594 38.488281 23 38.304688 C 22.554688 37.867188 22.46875 37.042969 22.453125 33.445312 L 22.449219 31.890625 L 19.523438 31.839844 C 16.835938 31.792969 16.570312 31.765625 16.222656 31.527344 C 15.5 31.035156 15.511719 31.136719 15.507812 24.292969 C 15.507812 18.238281 15.519531 17.867188 15.789062 16.949219 C 16.214844 15.480469 16.917969 14.359375 18.09375 13.261719 C 19.492188 11.957031 20.160156 11.664062 23.164062 11.027344 C 23.582031 10.9375 24.03125 10.894531 24.53125 10.898438 Z M 24.527344 10.894531 "/>
</g>
</svg>
