
<svg xmlns="http://www.w3.org/2000/svg" xmlns:xlink="http://www.w3.org/1999/xlink" width="48px" height="48px" viewBox="0 0 48 48" version="1.1">
<g id="surface1">
<path style=" stroke:none;fill-rule:nonzero;fill:rgb(65.098039%,74.509804%,72.941176%);fill-opacity:1;" d="M 4.984375 37.839844 C -19.03125 1.289062 53.085938 -18.574219 47.359375 26.019531 C 43.042969 45.558594 15.984375 57.414062 4.984375 37.839844 Z M 4.984375 37.839844 "/>
<path style=" stroke:none;fill-rule:nonzero;fill:rgb(0%,0%,0%);fill-opacity:1;" d="M 11.390625 36.589844 C 11.316406 36.519531 11.257812 30.902344 11.257812 24.117188 C 11.257812 13.945312 11.304688 11.734375 11.527344 11.550781 C 11.722656 11.386719 15.199219 11.339844 24.175781 11.375 L 36.550781 11.429688 L 36.601562 24.074219 L 36.652344 36.722656 L 24.089844 36.722656 C 17.179688 36.722656 11.464844 36.664062 11.390625 36.589844 Z M 35.160156 24.125 L 35.160156 13.015625 L 12.941406 13.015625 L 12.890625 23.925781 C 12.863281 29.929688 12.882812 34.949219 12.933594 35.089844 C 13.011719 35.285156 15.347656 35.328125 24.09375 35.289062 L 35.160156 35.234375 Z M 30.082031 33.890625 C 29.648438 33.597656 29.304688 33.140625 29.117188 32.601562 C 28.859375 31.867188 28.859375 31.664062 29.117188 30.929688 C 29.929688 28.597656 33.234375 28.609375 33.863281 30.945312 C 34.1875 32.144531 33.65625 33.542969 32.683594 34.042969 C 31.855469 34.472656 30.863281 34.414062 30.082031 33.890625 Z M 22.785156 26.476562 C 20.765625 25.449219 20.960938 22.402344 23.09375 21.660156 C 25.207031 20.921875 26.976562 23.101562 26.050781 25.308594 C 25.53125 26.554688 24.011719 27.097656 22.785156 26.476562 Z M 14.863281 18.664062 C 14.203125 18.261719 13.636719 17.253906 13.636719 16.476562 C 13.636719 15.765625 14.265625 14.675781 14.910156 14.273438 C 15.742188 13.75 17.226562 13.871094 17.910156 14.511719 C 19.007812 15.542969 18.945312 17.582031 17.785156 18.558594 C 17.023438 19.199219 15.8125 19.242188 14.863281 18.664062 Z M 14.863281 18.664062 "/>
</g>
</svg>
