
<svg xmlns="http://www.w3.org/2000/svg" xmlns:xlink="http://www.w3.org/1999/xlink" width="48px" height="48px" viewBox="0 0 48 48" version="1.1">
<g id="surface1">
<path style=" stroke:none;fill-rule:nonzero;fill:rgb(60.392157%,80.392157%,19.607843%);fill-opacity:1;" d="M 44.5 36.34375 C 8.234375 78.59375 -26.636719 -8.277344 29.449219 0.648438 C 41.75 2.605469 54.273438 24.957031 44.5 36.34375 Z M 44.5 36.34375 "/>
<path style=" stroke:none;fill-rule:evenodd;fill:rgb(100%,100%,100%);fill-opacity:1;" d="M 32.148438 9.660156 C 32.019531 9.683594 31.882812 9.851562 31.769531 10.199219 C 31.511719 10.984375 29.71875 16.433594 19.488281 16.699219 C 14.605469 16.820312 12.519531 12.425781 12.519531 12.425781 L 12.390625 18.058594 C 12.320312 19.726562 12.605469 21.292969 8.410156 22.648438 C 9.351562 27.914062 35.847656 41.183594 32.511719 10.257812 C 32.460938 9.851562 32.3125 9.632812 32.148438 9.660156 Z M 24.308594 23.820312 C 24.308594 23.820312 25.320312 24.019531 25.976562 24.726562 C 26.429688 25.210938 26.46875 25.996094 26.371094 27.070312 C 26.273438 26.613281 26.175781 25.640625 26.046875 25.320312 C 24.65625 27.042969 20.808594 27.824219 16.019531 26.097656 C 21.21875 27.15625 24.039062 26.003906 25.585938 24.78125 C 25.179688 24.242188 24.304688 23.820312 24.304688 23.820312 Z M 24.308594 23.820312 "/>
<path style=" stroke:none;fill-rule:nonzero;fill:rgb(82.745098%,81.568627%,78.039216%);fill-opacity:1;" d="M 24.140625 25.652344 C 24.070312 25.660156 24.011719 25.691406 23.964844 25.742188 C 24.035156 25.710938 24.105469 25.683594 24.171875 25.652344 C 24.160156 25.652344 24.148438 25.652344 24.136719 25.652344 Z M 24.894531 26.246094 C 24.679688 26.363281 24.449219 26.46875 24.199219 26.566406 C 24.523438 27.054688 25.199219 28.074219 26.078125 29.371094 C 26.496094 29.210938 26.902344 29.019531 27.296875 28.792969 C 26.320312 27.707031 25.441406 26.800781 24.894531 26.246094 Z M 24.894531 26.246094 "/>
<path style=" stroke:none;fill-rule:evenodd;fill:rgb(29.019608%,27.45098%,23.137255%);fill-opacity:1;" d="M 13.03125 20.980469 C 14.460938 23.007812 14.480469 25.488281 13.070312 26.527344 C 11.664062 27.566406 9.359375 26.761719 7.929688 24.738281 C 6.5 22.714844 6.480469 20.230469 7.890625 19.195312 C 9.296875 18.15625 11.601562 18.957031 13.03125 20.980469 Z M 13.03125 20.980469 "/>
<path style=" stroke:none;fill-rule:evenodd;fill:rgb(82.745098%,81.568627%,78.039216%);fill-opacity:1;" d="M 12.609375 20.507812 C 14.039062 22.53125 14.058594 25.015625 12.652344 26.050781 C 11.242188 27.089844 8.941406 26.289062 7.511719 24.265625 C 6.078125 22.238281 6.0625 19.757812 7.46875 18.71875 C 8.878906 17.683594 11.179688 18.484375 12.609375 20.507812 Z M 12.609375 20.507812 "/>
<path style=" stroke:none;fill-rule:evenodd;fill:rgb(100%,100%,100%);fill-opacity:1;" d="M 9.769531 20.007812 C 10.199219 20.613281 10.203125 21.355469 9.78125 21.664062 C 9.363281 21.972656 8.675781 21.734375 8.25 21.128906 C 7.824219 20.527344 7.816406 19.785156 8.238281 19.476562 C 8.65625 19.167969 9.34375 19.40625 9.769531 20.007812 Z M 9.769531 20.007812 "/>
<path style=" stroke:none;fill-rule:nonzero;fill:rgb(82.745098%,81.568627%,78.039216%);fill-opacity:1;" d="M 17.582031 19.972656 C 17.582031 21.152344 16.527344 22.109375 15.230469 22.109375 C 13.929688 22.109375 12.878906 21.152344 12.878906 19.972656 C 12.878906 18.792969 13.929688 17.835938 15.230469 17.835938 C 16.527344 17.835938 17.582031 18.792969 17.582031 19.972656 Z M 17.582031 19.972656 "/>
<path style=" stroke:none;fill-rule:nonzero;fill:rgb(29.019608%,27.45098%,23.137255%);fill-opacity:1;" d="M 17.257812 18.992188 C 17.257812 20.171875 16.207031 21.128906 14.90625 21.128906 C 13.609375 21.128906 12.554688 20.171875 12.554688 18.992188 C 12.554688 17.808594 13.609375 16.851562 14.90625 16.851562 C 16.207031 16.851562 17.257812 17.808594 17.257812 18.992188 Z M 17.257812 18.992188 "/>
<path style=" stroke:none;fill-rule:nonzero;fill:rgb(100%,100%,100%);fill-opacity:1;" d="M 17.257812 19.351562 C 17.257812 20.53125 16.207031 21.488281 14.90625 21.488281 C 13.609375 21.488281 12.554688 20.53125 12.554688 19.351562 C 12.554688 18.171875 13.609375 17.214844 14.90625 17.214844 C 16.207031 17.214844 17.257812 18.171875 17.257812 19.351562 Z M 17.257812 19.351562 "/>
<path style=" stroke:none;fill-rule:nonzero;fill:rgb(82.745098%,81.568627%,78.039216%);fill-opacity:1;" d="M 25.78125 19.296875 C 25.78125 21.15625 24.121094 22.667969 22.074219 22.667969 C 20.023438 22.667969 18.363281 21.15625 18.363281 19.296875 C 18.363281 17.433594 20.023438 15.921875 22.074219 15.921875 C 24.121094 15.921875 25.78125 17.433594 25.78125 19.296875 Z M 25.78125 19.296875 "/>
<path style=" stroke:none;fill-rule:nonzero;fill:rgb(29.019608%,27.45098%,23.137255%);fill-opacity:1;" d="M 25.140625 18.640625 C 25.140625 20.503906 23.480469 22.011719 21.429688 22.011719 C 19.382812 22.011719 17.722656 20.503906 17.722656 18.640625 C 17.722656 16.777344 19.382812 15.269531 21.429688 15.269531 C 23.480469 15.269531 25.140625 16.777344 25.140625 18.640625 Z M 25.140625 18.640625 "/>
<path style=" stroke:none;fill-rule:nonzero;fill:rgb(100%,100%,100%);fill-opacity:1;" d="M 25.460938 18.675781 C 25.460938 20.539062 23.800781 22.046875 21.75 22.046875 C 19.703125 22.046875 18.042969 20.539062 18.042969 18.675781 C 18.042969 16.8125 19.703125 15.304688 21.75 15.304688 C 23.800781 15.304688 25.460938 16.8125 25.460938 18.675781 Z M 25.460938 18.675781 "/>
<path style=" stroke:none;fill-rule:nonzero;fill:rgb(29.019608%,27.45098%,23.137255%);fill-opacity:1;" d="M 16.617188 19.679688 C 16.617188 20.214844 16.140625 20.648438 15.550781 20.648438 C 14.960938 20.648438 14.484375 20.214844 14.484375 19.679688 C 14.484375 19.144531 14.960938 18.710938 15.550781 18.710938 C 16.140625 18.710938 16.617188 19.144531 16.617188 19.679688 Z M 16.617188 19.679688 "/>
<path style=" stroke:none;fill-rule:nonzero;fill:rgb(29.019608%,27.45098%,23.137255%);fill-opacity:1;" d="M 24.175781 19.003906 C 24.175781 19.898438 23.378906 20.621094 22.394531 20.621094 C 21.410156 20.621094 20.613281 19.898438 20.613281 19.003906 C 20.613281 18.109375 21.410156 17.382812 22.394531 17.382812 C 23.378906 17.382812 24.175781 18.109375 24.175781 19.003906 Z M 24.175781 19.003906 "/>
<path style=" stroke:none;fill-rule:nonzero;fill:rgb(100%,100%,100%);fill-opacity:1;" d="M 24.125 25.640625 C 23.855469 25.667969 23.742188 26.035156 23.960938 26.210938 C 23.960938 26.210938 28.183594 29.761719 30.410156 31.441406 C 30.402344 31.492188 30.398438 31.546875 30.402344 31.59375 L 30.710938 31.546875 L 30.832031 31.730469 L 33.574219 33.503906 C 33.433594 33.996094 33.5 34.652344 33.824219 35.257812 C 34.757812 37.023438 36.996094 37.78125 36.996094 37.78125 C 36.082031 35.410156 36.746094 33.480469 34.945312 32.800781 C 34.65625 32.691406 34.40625 32.6875 34.199219 32.761719 L 31.777344 30.480469 L 31.566406 30.414062 L 31.539062 30.097656 C 31.496094 30.117188 31.445312 30.140625 31.398438 30.167969 C 29.1875 28.261719 24.25 25.648438 24.25 25.648438 C 24.207031 25.636719 24.164062 25.636719 24.125 25.640625 Z M 34.148438 32.78125 C 33.875 32.898438 33.679688 33.152344 33.582031 33.484375 C 33.585938 33.152344 33.835938 32.871094 34.148438 32.78125 Z M 34.148438 32.78125 "/>
</g>
</svg>
