
<svg xmlns="http://www.w3.org/2000/svg" xmlns:xlink="http://www.w3.org/1999/xlink" width="48px" height="48px" viewBox="0 0 48 48" version="1.1">
<g id="surface1">
<path style=" stroke:none;fill-rule:nonzero;fill:rgb(27.45098%,50.980392%,70.588235%);fill-opacity:1;" d="M 0.320312 22.121094 C -2.4375 50.863281 44.054688 58.601562 47.667969 29.085938 C 52.140625 1.945312 10 -12.03125 1.570312 14.9375 C 0.648438 17.214844 0.664062 19.710938 0.320312 22.121094 Z M 0.320312 22.121094 "/>
<path style=" stroke:none;fill-rule:evenodd;fill:rgb(100%,100%,100%);fill-opacity:1;" d="M 17.5625 36.339844 C 17.5625 36.167969 17.402344 35.96875 17.207031 35.894531 C 17.011719 35.820312 16.757812 35.632812 16.640625 35.480469 C 16.382812 35.136719 15.410156 35.328125 15.246094 35.753906 C 15.097656 36.136719 14.714844 36.121094 14.714844 35.734375 C 14.714844 35.566406 14.578125 35.429688 14.410156 35.429688 C 14.019531 35.429688 14.019531 34.878906 14.410156 34.484375 C 14.8125 34.085938 14.8125 33.191406 14.410156 33.191406 C 14.242188 33.191406 14.105469 33.101562 14.105469 32.988281 C 14.105469 32.878906 13.960938 32.785156 13.785156 32.785156 C 13.558594 32.785156 13.488281 32.625 13.53125 32.226562 C 13.589844 31.714844 13.683594 31.660156 14.613281 31.566406 L 15.632812 31.464844 L 15.644531 30.675781 C 15.652344 30.148438 15.785156 29.792969 16.039062 29.609375 C 16.566406 29.222656 16.75 29.257812 16.75 29.753906 C 16.75 30.574219 18.1875 31.335938 18.449219 30.652344 C 18.601562 30.253906 19.273438 30.257812 19.605469 30.660156 C 19.984375 31.117188 20.703125 30.949219 20.78125 30.386719 C 20.863281 29.8125 20.496094 29.328125 19.980469 29.328125 C 19.492188 29.328125 19.449219 28.414062 19.921875 28.148438 C 20.101562 28.050781 20.214844 27.792969 20.175781 27.582031 C 20.117188 27.269531 19.894531 27.179688 19.035156 27.132812 C 18.03125 27.074219 17.96875 27.097656 17.96875 27.554688 C 17.96875 28.183594 17.863281 28.273438 17.253906 28.15625 C 16.832031 28.078125 16.75 27.945312 16.75 27.359375 C 16.75 26.972656 16.617188 26.523438 16.460938 26.363281 C 16.128906 26.035156 15.121094 25.96875 15.121094 26.277344 C 15.121094 26.65625 14.558594 26.484375 14.453125 26.070312 C 14.320312 25.570312 14.359375 25.34375 14.5625 25.414062 C 14.648438 25.441406 14.714844 25.328125 14.714844 25.160156 C 14.714844 24.992188 14.808594 24.855469 14.917969 24.855469 C 15.03125 24.855469 15.121094 24.496094 15.121094 24.058594 C 15.121094 23.609375 15.234375 23.21875 15.375 23.160156 C 15.515625 23.105469 15.289062 23.109375 14.867188 23.171875 C 14.128906 23.277344 14.105469 23.261719 14.105469 22.65625 C 14.105469 22.058594 14.136719 22.039062 14.796875 22.144531 C 15.375 22.238281 15.507812 22.1875 15.625 21.828125 C 15.699219 21.589844 15.851562 21.398438 15.960938 21.398438 C 16.074219 21.398438 16.136719 21.101562 16.101562 20.738281 C 16.058594 20.285156 15.917969 20.054688 15.65625 20.003906 C 15.421875 19.960938 15.332031 20.019531 15.414062 20.15625 C 15.492188 20.28125 15.417969 20.378906 15.242188 20.378906 C 15.074219 20.378906 14.644531 20.660156 14.296875 21.003906 C 13.945312 21.347656 13.613281 21.582031 13.558594 21.527344 C 13.460938 21.429688 14.078125 20.183594 14.328125 19.972656 C 14.394531 19.917969 14.511719 19.621094 14.585938 19.3125 C 14.660156 19.003906 14.8125 18.753906 14.921875 18.753906 C 15.03125 18.753906 15.121094 18.292969 15.121094 17.734375 C 15.121094 17.175781 15.035156 16.71875 14.929688 16.71875 C 14.824219 16.71875 14.5 16.496094 14.207031 16.226562 C 13.917969 15.957031 13.476562 15.597656 13.230469 15.425781 C 12.8125 15.132812 12.890625 15.113281 14.433594 15.101562 L 16.082031 15.089844 L 16.210938 14.023438 C 16.28125 13.4375 16.339844 12.617188 16.339844 12.207031 C 16.34375 11.792969 16.433594 11.398438 16.546875 11.328125 C 16.660156 11.257812 16.75 11.421875 16.75 11.703125 C 16.75 11.976562 16.886719 12.253906 17.054688 12.316406 C 17.222656 12.382812 17.359375 12.667969 17.359375 12.949219 C 17.359375 13.234375 17.453125 13.464844 17.5625 13.464844 C 17.675781 13.464844 17.765625 13.585938 17.765625 13.730469 C 17.765625 14.300781 18.304688 14.710938 19.125 14.773438 C 19.582031 14.808594 20.0625 14.898438 20.1875 14.976562 C 20.3125 15.054688 20.621094 15.0625 20.871094 14.992188 C 21.183594 14.910156 20.964844 15.210938 20.15625 15.96875 C 19.511719 16.570312 18.988281 17.15625 18.988281 17.269531 C 18.988281 17.378906 19.230469 17.921875 19.527344 18.46875 C 19.824219 19.015625 20.054688 19.667969 20.039062 19.914062 C 20.023438 20.160156 20.277344 20.652344 20.601562 21.011719 C 21.152344 21.613281 21.21875 21.632812 21.527344 21.324219 C 21.992188 20.863281 22.445312 20.90625 22.445312 21.410156 C 22.445312 21.703125 22.554688 21.8125 22.796875 21.765625 C 23.316406 21.664062 23.347656 21.070312 22.863281 20.550781 C 22.632812 20.300781 22.445312 19.863281 22.449219 19.578125 C 22.457031 19.066406 22.464844 19.066406 23.164062 19.820312 C 23.792969 20.496094 24.671875 20.847656 24.6875 20.429688 C 24.691406 20.347656 25.105469 19.824219 25.605469 19.273438 C 26.351562 18.445312 26.511719 18.347656 26.511719 18.703125 C 26.511719 18.941406 26.429688 19.183594 26.332031 19.246094 C 26.078125 19.402344 25.855469 20.726562 26.003906 21.191406 C 26.089844 21.46875 26.351562 21.59375 26.933594 21.640625 C 27.984375 21.71875 27.976562 22.089844 26.921875 22.171875 C 26.472656 22.207031 26.105469 22.320312 26.105469 22.425781 C 26.105469 22.53125 25.964844 22.617188 25.789062 22.617188 C 25.527344 22.617188 25.480469 22.902344 25.503906 24.292969 C 25.523438 25.21875 25.472656 26.132812 25.390625 26.332031 C 25.179688 26.851562 25.808594 27.703125 26.402344 27.703125 C 26.675781 27.703125 26.953125 27.609375 27.019531 27.5 C 27.089844 27.386719 27.277344 27.292969 27.441406 27.292969 C 27.832031 27.292969 27.8125 28.042969 27.414062 28.265625 C 27.179688 28.398438 27.113281 28.699219 27.160156 29.445312 C 27.214844 30.328125 27.277344 30.449219 27.679688 30.453125 C 27.929688 30.457031 28.136719 30.523438 28.136719 30.605469 C 28.140625 30.6875 28.140625 30.890625 28.140625 31.058594 C 28.140625 31.273438 27.921875 31.363281 27.398438 31.363281 C 26.933594 31.363281 26.558594 31.496094 26.390625 31.71875 C 26.070312 32.140625 26.019531 33.117188 26.308594 33.292969 C 26.617188 33.484375 26.554688 33.804688 26.207031 33.804688 C 26.039062 33.804688 25.902344 33.894531 25.902344 34.007812 C 25.902344 34.382812 25.566406 34.214844 25.292969 33.703125 C 25.074219 33.292969 24.863281 33.191406 24.234375 33.191406 C 23.523438 33.191406 23.441406 33.25 23.328125 33.8125 C 23.230469 34.300781 23.109375 34.421875 22.773438 34.375 C 22.40625 34.320312 22.351562 34.195312 22.410156 33.550781 C 22.457031 33.015625 22.394531 32.785156 22.203125 32.785156 C 22.054688 32.785156 21.816406 32.601562 21.679688 32.378906 C 21.375 31.894531 20.449219 31.835938 20.277344 32.292969 C 20.207031 32.46875 20.257812 32.714844 20.382812 32.839844 C 21.003906 33.460938 20.492188 34.246094 19.359375 34.398438 C 18.507812 34.511719 18.476562 34.539062 18.414062 35.304688 C 18.335938 36.269531 17.5625 37.207031 17.5625 36.339844 Z M 17.96875 32.875 L 17.96875 31.949219 L 17.105469 32.011719 C 16.246094 32.074219 16.242188 32.078125 16.179688 32.9375 L 16.117188 33.804688 L 17.96875 33.804688 Z M 19.875 32.480469 C 19.808594 32.3125 19.675781 32.175781 19.574219 32.175781 C 19.476562 32.175781 19.394531 32.3125 19.394531 32.480469 C 19.394531 32.648438 19.527344 32.785156 19.691406 32.785156 C 19.875 32.785156 19.945312 32.667969 19.875 32.480469 Z M 24.796875 30.664062 C 25.5625 29.902344 24.863281 28.71875 23.648438 28.71875 C 22.972656 28.71875 22.867188 28.785156 22.753906 29.300781 C 22.683594 29.625 22.6875 30.128906 22.761719 30.421875 C 22.878906 30.886719 23 30.957031 23.703125 30.957031 C 24.144531 30.957031 24.636719 30.824219 24.796875 30.664062 Z M 24.289062 25.953125 C 24.523438 25.574219 24.800781 25.261719 24.902344 25.261719 C 25.003906 25.261719 25.089844 25.078125 25.089844 24.855469 C 25.089844 24.628906 25.019531 24.449219 24.933594 24.449219 C 24.851562 24.449219 24.65625 24.167969 24.507812 23.828125 C 24.25 23.246094 24.167969 23.210938 23.289062 23.269531 C 22.484375 23.320312 22.332031 23.398438 22.277344 23.785156 C 22.234375 24.09375 22.316406 24.242188 22.53125 24.242188 C 22.75 24.242188 22.851562 24.433594 22.851562 24.855469 C 22.851562 25.453125 22.554688 25.695312 22.398438 25.222656 C 22.347656 25.066406 22.179688 25.042969 21.925781 25.152344 C 21.546875 25.316406 21.546875 25.328125 21.90625 25.414062 C 22.195312 25.480469 22.265625 25.648438 22.207031 26.144531 C 22.132812 26.785156 22.132812 26.785156 22.996094 26.714844 C 23.722656 26.65625 23.925781 26.535156 24.289062 25.953125 Z M 19.304688 24.5625 C 19.464844 24.402344 19.597656 23.953125 19.597656 23.558594 C 19.597656 22.734375 19.171875 22.5 18.054688 22.707031 C 17.421875 22.828125 17.359375 22.902344 17.359375 23.550781 C 17.359375 23.941406 17.472656 24.390625 17.613281 24.550781 C 17.945312 24.925781 18.9375 24.933594 19.304688 24.5625 Z M 18.640625 19.902344 C 18.582031 19.089844 18.230469 18.753906 17.4375 18.753906 C 16.789062 18.753906 16.75 18.792969 16.75 19.464844 C 16.75 19.960938 16.839844 20.175781 17.054688 20.175781 C 17.222656 20.175781 17.359375 20.273438 17.359375 20.390625 C 17.359375 20.515625 17.648438 20.582031 18.019531 20.546875 C 18.609375 20.488281 18.675781 20.417969 18.640625 19.902344 Z M 18.640625 19.902344 "/>
<path style=" stroke:none;fill-rule:evenodd;fill:rgb(100%,100%,100%);fill-opacity:1;" d="M 25.050781 16.4375 C 25.125 15.265625 25.089844 15.082031 24.757812 14.972656 C 24.546875 14.90625 24.183594 14.757812 23.949219 14.648438 C 23.714844 14.535156 23.027344 14.371094 22.421875 14.285156 C 21.375 14.132812 21.402344 14.125 23.101562 14.101562 L 24.875 14.074219 L 25.21875 13.414062 C 25.410156 13.050781 25.625 12.476562 25.699219 12.140625 C 25.835938 11.546875 25.84375 11.550781 26.027344 12.449219 C 26.191406 13.226562 26.296875 13.371094 26.757812 13.425781 C 27.148438 13.472656 27.464844 13.3125 27.894531 12.867188 C 28.820312 11.894531 29.03125 12.132812 28.242188 13.257812 C 27.371094 14.5 27.347656 15.046875 28.136719 15.800781 C 28.472656 16.121094 28.710938 16.417969 28.671875 16.457031 C 28.632812 16.5 28.160156 16.300781 27.625 16.015625 C 26.886719 15.621094 26.589844 15.554688 26.378906 15.726562 C 26.230469 15.851562 26.101562 16.058594 26.101562 16.183594 C 26.097656 16.308594 25.839844 16.71875 25.53125 17.09375 L 24.964844 17.773438 Z M 25.050781 16.4375 "/>
<path style=" stroke:none;fill-rule:evenodd;fill:rgb(100%,100%,100%);fill-opacity:1;" d="M 34.25 21.347656 C 34.246094 20.925781 34.152344 20.582031 34.042969 20.582031 C 33.9375 20.582031 33.789062 20.125 33.714844 19.5625 C 33.570312 18.480469 33.335938 18.15625 32.960938 18.527344 C 32.839844 18.652344 32.382812 18.753906 31.949219 18.753906 C 31.515625 18.753906 31.007812 18.832031 30.820312 18.929688 C 30.632812 19.023438 30.066406 19.15625 29.5625 19.21875 L 28.648438 19.332031 L 29.15625 18.941406 C 30.027344 18.269531 30.699219 17.820312 31.160156 17.601562 C 31.3125 17.53125 31.753906 17.183594 32.140625 16.828125 C 32.816406 16.207031 32.835938 16.148438 32.703125 15.128906 C 32.625 14.550781 32.480469 14.074219 32.382812 14.074219 C 32.285156 14.074219 32.207031 13.933594 32.207031 13.757812 C 32.207031 13.585938 32.066406 13.175781 31.898438 12.84375 C 31.414062 11.910156 31.792969 12.136719 33.113281 13.570312 C 33.78125 14.296875 34.433594 14.886719 34.566406 14.886719 C 34.699219 14.886719 35.410156 14.269531 36.148438 13.515625 C 37.269531 12.363281 37.488281 12.214844 37.492188 12.601562 C 37.492188 12.851562 37.414062 13.058594 37.316406 13.058594 C 37.21875 13.058594 37.082031 13.417969 37.011719 13.855469 C 36.941406 14.292969 36.796875 14.679688 36.683594 14.71875 C 36.574219 14.757812 36.460938 15.25 36.4375 15.820312 C 36.398438 16.746094 36.460938 16.917969 37.054688 17.496094 C 37.414062 17.851562 37.800781 18.140625 37.910156 18.140625 C 38.015625 18.140625 38.105469 18.289062 38.105469 18.472656 C 38.105469 18.730469 37.984375 18.769531 37.546875 18.652344 C 37.238281 18.574219 36.621094 18.492188 36.171875 18.476562 C 35.472656 18.453125 35.351562 18.511719 35.292969 18.90625 C 35.257812 19.15625 35.144531 19.363281 35.039062 19.363281 C 34.9375 19.363281 34.851562 19.671875 34.851562 20.050781 C 34.851562 20.429688 34.71875 21.046875 34.554688 21.425781 L 34.257812 22.109375 Z M 34.25 21.347656 "/>
<path style=" stroke:none;fill-rule:evenodd;fill:rgb(100%,100%,100%);fill-opacity:1;" d="M 32.144531 28.363281 C 32.214844 28.167969 32.335938 27.914062 32.414062 27.804688 C 32.492188 27.691406 32.617188 27.347656 32.691406 27.039062 C 32.765625 26.734375 32.914062 26.480469 33.023438 26.480469 C 33.132812 26.480469 33.222656 26.164062 33.222656 25.773438 C 33.222656 25.1875 33.136719 25.042969 32.714844 24.9375 C 32.4375 24.867188 32.207031 24.683594 32.207031 24.527344 C 32.207031 24.371094 32.109375 24.242188 31.988281 24.242188 C 31.722656 24.242188 31.191406 23.730469 31.191406 23.472656 C 31.191406 23.367188 31.714844 23.542969 32.359375 23.863281 C 33.003906 24.183594 33.640625 24.445312 33.777344 24.445312 C 34.125 24.449219 34.851562 22.875 34.851562 22.132812 C 34.851562 20.890625 35.238281 21.925781 35.296875 23.328125 C 35.355469 24.652344 35.394531 24.757812 35.84375 24.820312 C 36.113281 24.859375 36.386719 24.796875 36.457031 24.683594 C 36.527344 24.570312 36.859375 24.417969 37.191406 24.347656 L 37.800781 24.214844 L 37.089844 24.832031 C 36.695312 25.175781 36.308594 25.457031 36.222656 25.457031 C 35.988281 25.46875 36.042969 26.984375 36.292969 27.230469 C 36.410156 27.351562 36.480469 27.6875 36.445312 27.980469 L 36.375 28.511719 L 35.628906 27.800781 C 34.839844 27.054688 34.105469 26.882812 33.90625 27.398438 C 33.84375 27.5625 33.664062 27.703125 33.507812 27.703125 C 33.351562 27.703125 33.222656 27.792969 33.222656 27.90625 C 33.222656 28.015625 33.097656 28.109375 32.941406 28.109375 C 32.785156 28.109375 32.605469 28.246094 32.539062 28.414062 C 32.375 28.84375 31.988281 28.796875 32.144531 28.363281 Z M 32.144531 28.363281 "/>
<path style=" stroke:none;fill-rule:evenodd;fill:rgb(100%,100%,100%);fill-opacity:1;" d="M 17.003906 35.921875 C 16.320312 35.21875 15.984375 35.191406 15.292969 35.78125 C 14.992188 36.039062 14.902344 36.023438 14.527344 35.652344 C 14.089844 35.210938 13.960938 34.617188 14.304688 34.617188 C 14.414062 34.617188 14.5625 34.382812 14.636719 34.097656 C 14.730469 33.714844 14.652344 33.46875 14.34375 33.179688 C 14.109375 32.964844 13.816406 32.785156 13.695312 32.785156 C 13.566406 32.785156 13.496094 32.539062 13.53125 32.226562 C 13.589844 31.714844 13.679688 31.664062 14.5625 31.605469 C 15.390625 31.550781 15.542969 31.472656 15.652344 31.046875 C 15.71875 30.773438 15.726562 30.414062 15.660156 30.25 C 15.59375 30.078125 15.734375 29.820312 15.988281 29.640625 C 16.578125 29.226562 16.710938 29.246094 16.785156 29.765625 C 16.820312 30.007812 17.101562 30.390625 17.40625 30.617188 C 17.925781 31.003906 17.984375 31.007812 18.335938 30.6875 C 18.804688 30.265625 19.265625 30.25 19.597656 30.652344 C 19.917969 31.035156 20.292969 31.039062 20.605469 30.660156 C 20.957031 30.238281 20.675781 29.554688 20.09375 29.410156 C 19.507812 29.261719 19.429688 28.628906 19.929688 28.078125 C 20.203125 27.777344 20.214844 27.652344 20.007812 27.402344 C 19.664062 26.988281 18.195312 26.984375 18.066406 27.398438 C 18.011719 27.5625 17.929688 27.828125 17.882812 27.980469 C 17.828125 28.160156 17.613281 28.226562 17.273438 28.160156 C 16.839844 28.078125 16.75 27.949219 16.75 27.40625 C 16.75 27.027344 16.59375 26.605469 16.378906 26.410156 C 15.972656 26.042969 15.121094 25.953125 15.121094 26.277344 C 15.121094 26.65625 14.558594 26.484375 14.453125 26.070312 C 14.320312 25.570312 14.359375 25.34375 14.5625 25.414062 C 14.648438 25.441406 14.714844 25.328125 14.714844 25.160156 C 14.714844 24.992188 14.808594 24.855469 14.917969 24.855469 C 15.03125 24.855469 15.121094 24.488281 15.121094 24.039062 C 15.121094 23.308594 15.070312 23.226562 14.613281 23.226562 C 14.1875 23.226562 14.105469 23.132812 14.105469 22.628906 C 14.105469 22.0625 14.140625 22.039062 14.796875 22.144531 C 15.375 22.238281 15.507812 22.1875 15.625 21.828125 C 15.699219 21.589844 15.84375 21.398438 15.949219 21.398438 C 16.203125 21.398438 16.195312 20.4375 15.941406 20.28125 C 15.699219 20.132812 14.773438 20.601562 14.144531 21.195312 C 13.882812 21.441406 13.628906 21.597656 13.574219 21.542969 C 13.523438 21.492188 13.847656 20.734375 14.300781 19.863281 C 15.441406 17.65625 15.40625 17.210938 14 16.089844 L 12.878906 15.191406 L 14.480469 15.132812 L 16.085938 15.074219 L 16.210938 14.015625 C 16.28125 13.433594 16.339844 12.617188 16.339844 12.207031 C 16.34375 11.792969 16.433594 11.398438 16.546875 11.328125 C 16.660156 11.257812 16.75 11.378906 16.75 11.597656 C 16.75 11.8125 16.886719 12.105469 17.054688 12.242188 C 17.222656 12.382812 17.359375 12.59375 17.359375 12.710938 C 17.359375 12.824219 17.515625 13.273438 17.707031 13.703125 C 17.980469 14.324219 18.210938 14.53125 18.8125 14.691406 C 19.230469 14.804688 19.644531 14.882812 19.738281 14.867188 C 19.828125 14.851562 20.21875 14.851562 20.609375 14.863281 L 21.3125 14.886719 L 20.132812 16.082031 C 19.144531 17.082031 18.984375 17.339844 19.15625 17.660156 C 19.777344 18.816406 20.167969 19.742188 20.070312 19.835938 C 19.917969 19.992188 20.644531 21.160156 20.972656 21.289062 C 21.128906 21.347656 21.425781 21.304688 21.632812 21.191406 C 22.167969 20.90625 22.445312 20.941406 22.445312 21.292969 C 22.445312 21.636719 22.960938 21.710938 23.15625 21.394531 C 23.226562 21.28125 23.09375 20.925781 22.863281 20.601562 C 22.632812 20.277344 22.445312 19.808594 22.445312 19.5625 C 22.445312 19.144531 22.503906 19.167969 23.257812 19.847656 C 23.707031 20.253906 24.15625 20.582031 24.253906 20.582031 C 24.355469 20.582031 24.902344 20.0625 25.472656 19.429688 C 26.589844 18.1875 26.691406 18.234375 26.191406 19.761719 C 25.777344 21.027344 26.007812 21.550781 27.027344 21.636719 C 27.953125 21.71875 28.035156 22.089844 27.144531 22.175781 C 26.761719 22.210938 26.234375 22.382812 25.972656 22.554688 C 25.519531 22.851562 25.492188 22.980469 25.511719 24.929688 C 25.527344 26.492188 25.609375 27.074219 25.851562 27.347656 C 26.199219 27.738281 26.824219 27.816406 27.019531 27.5 C 27.089844 27.386719 27.277344 27.292969 27.441406 27.292969 C 27.824219 27.292969 27.816406 27.988281 27.425781 28.3125 C 26.816406 28.820312 27.195312 30.726562 27.863281 30.503906 C 28.058594 30.441406 28.140625 30.605469 28.140625 31.058594 C 28.140625 31.269531 27.929688 31.363281 27.460938 31.363281 C 27.058594 31.363281 26.640625 31.515625 26.441406 31.734375 C 26.070312 32.144531 25.988281 33.097656 26.308594 33.292969 C 26.609375 33.480469 26.554688 33.804688 26.222656 33.804688 C 26.066406 33.804688 25.894531 33.917969 25.84375 34.058594 C 25.785156 34.21875 25.59375 34.109375 25.304688 33.753906 C 24.65625 32.941406 23.714844 32.972656 23.394531 33.8125 C 23.226562 34.257812 23.050781 34.414062 22.753906 34.371094 C 22.433594 34.324219 22.355469 34.183594 22.402344 33.738281 C 22.492188 32.914062 21.457031 31.871094 20.730469 32.054688 C 20.207031 32.183594 20.027344 32.652344 20.410156 32.886719 C 21.050781 33.285156 20.316406 34.414062 19.421875 34.414062 C 18.695312 34.414062 18.375 34.753906 18.375 35.53125 C 18.375 36.105469 18.058594 36.6875 17.777344 36.625 C 17.714844 36.613281 17.367188 36.296875 17.003906 35.921875 Z M 17.96875 32.886719 C 17.96875 31.988281 17.957031 31.972656 17.300781 31.972656 C 16.449219 31.972656 16.140625 32.285156 16.140625 33.132812 C 16.140625 33.792969 16.15625 33.804688 17.054688 33.804688 L 17.96875 33.804688 Z M 19.71875 32.230469 C 19.511719 32.023438 19.34375 32.335938 19.511719 32.609375 C 19.640625 32.816406 19.6875 32.816406 19.757812 32.609375 C 19.804688 32.46875 19.789062 32.300781 19.71875 32.230469 Z M 24.714844 30.621094 C 25.558594 29.855469 24.773438 28.609375 23.542969 28.753906 C 22.847656 28.835938 22.480469 29.714844 22.824219 30.46875 C 23.09375 31.058594 24.136719 31.140625 24.714844 30.621094 Z M 24.363281 25.800781 C 25.054688 24.957031 25.269531 24.449219 24.9375 24.445312 C 24.851562 24.445312 24.628906 24.171875 24.4375 23.835938 C 24.042969 23.144531 23.210938 23.011719 22.535156 23.53125 C 22.160156 23.820312 22.160156 23.851562 22.496094 24.113281 C 22.691406 24.265625 22.851562 24.632812 22.851562 24.925781 C 22.851562 25.484375 22.667969 25.605469 22.332031 25.269531 C 22.207031 25.148438 22.023438 25.144531 21.832031 25.265625 C 21.574219 25.429688 21.582031 25.457031 21.886719 25.460938 C 22.144531 25.464844 22.242188 25.628906 22.242188 26.074219 C 22.242188 26.632812 22.300781 26.683594 22.941406 26.683594 C 23.515625 26.683594 23.761719 26.53125 24.363281 25.800781 Z M 19.277344 24.464844 C 19.484375 24.234375 19.601562 23.839844 19.5625 23.503906 C 19.425781 22.3125 17.359375 22.367188 17.359375 23.5625 C 17.359375 24.695312 18.558594 25.257812 19.277344 24.464844 Z M 18.539062 19.949219 C 18.621094 19.257812 18.074219 18.710938 17.386719 18.792969 C 16.648438 18.878906 16.53125 19.703125 17.1875 20.210938 C 17.855469 20.730469 18.464844 20.613281 18.539062 19.949219 Z M 18.539062 19.949219 "/>
</g>
</svg>
