
<svg xmlns="http://www.w3.org/2000/svg" xmlns:xlink="http://www.w3.org/1999/xlink" width="48px" height="48px" viewBox="0 0 48 48" version="1.1">
<g id="surface1">
<path style=" stroke:none;fill-rule:nonzero;fill:rgb(25.098039%,87.843137%,81.568627%);fill-opacity:1;" d="M 45.738281 13.179688 C 33.863281 -13.152344 -5.992188 3.804688 0.765625 30.496094 C 7.136719 55.648438 43.996094 52.625 47.667969 28.265625 C 48.429688 23.183594 47.917969 18.015625 45.738281 13.179688 Z M 45.738281 13.179688 "/>
<path style=" stroke:none;fill-rule:nonzero;fill:rgb(100%,100%,100%);fill-opacity:1;" d="M 28.953125 13.054688 C 26.652344 11.96875 24.214844 11.695312 22.097656 12.171875 C 19.980469 12.648438 18.164062 13.898438 17.257812 15.820312 L 16.929688 16.511719 C 15.027344 16.566406 12.996094 18.105469 11.867188 20.5 C 10.421875 23.5625 10.992188 26.871094 13.238281 27.929688 L 18.644531 16.472656 C 19.324219 15.035156 20.691406 14.0625 22.4375 13.671875 C 24.1875 13.277344 26.289062 13.492188 28.296875 14.441406 C 30.304688 15.386719 31.808594 16.875 32.617188 18.472656 C 33.425781 20.074219 33.542969 21.746094 32.867188 23.183594 L 27.460938 34.640625 C 29.707031 35.703125 32.621094 34.039062 34.066406 30.972656 C 35.199219 28.582031 35.097656 26.035156 33.925781 24.53125 L 34.253906 23.839844 C 35.160156 21.917969 34.96875 19.71875 33.988281 17.785156 C 33.011719 15.847656 31.253906 14.140625 28.953125 13.054688 Z M 18.914062 17.25 L 13.757812 28.175781 C 14.105469 28.339844 14.535156 28.332031 14.871094 28.066406 L 19.617188 18.007812 C 19.527344 17.75 19.261719 17.414062 18.914062 17.25 Z M 32.09375 23.46875 C 31.75 23.304688 31.320312 23.316406 31.066406 23.40625 L 26.316406 33.46875 C 26.328125 33.894531 26.59375 34.234375 26.941406 34.394531 Z M 32.09375 23.46875 "/>
</g>
</svg>
