
<svg xmlns="http://www.w3.org/2000/svg" xmlns:xlink="http://www.w3.org/1999/xlink" width="48px" height="48px" viewBox="0 0 48 48" version="1.1">
<g id="surface1">
<path style=" stroke:none;fill-rule:nonzero;fill:rgb(58.039216%,0%,82.745098%);fill-opacity:1;" d="M 42.550781 40.21875 C 25.429688 61.757812 -9.886719 34.164062 2.628906 10.957031 C 14.417969 -10.90625 50.285156 2.878906 47.886719 26.613281 C 47.382812 31.566406 45.691406 36.265625 42.550781 40.21875 Z M 42.550781 40.21875 "/>
<path style=" stroke:none;fill-rule:nonzero;fill:rgb(73.72549%,77.254902%,87.058824%);fill-opacity:1;" d="M 24.828125 20.589844 C 24.828125 22.355469 23.398438 23.785156 21.632812 23.785156 C 19.867188 23.785156 18.4375 22.355469 18.4375 20.589844 C 18.4375 18.828125 19.867188 17.394531 21.632812 17.394531 C 23.398438 17.394531 24.828125 18.828125 24.828125 20.589844 Z M 24.828125 20.589844 "/>
<path style="fill:none;stroke-width:8;stroke-linecap:butt;stroke-linejoin:miter;stroke:rgb(100%,100%,100%);stroke-opacity:1;stroke-miterlimit:4;" d="M 84.791667 875.883015 L 171.208333 875.883015 C 174.125 875.883015 176.479167 878.237181 176.479167 881.153848 L 176.479167 967.570515 C 176.479167 970.487181 174.125 972.841348 171.208333 972.841348 L 84.791667 972.841348 C 81.875 972.841348 79.520833 970.487181 79.520833 967.570515 L 79.520833 881.153848 C 79.520833 878.237181 81.875 875.883015 84.791667 875.883015 Z M 84.791667 875.883015 " transform="matrix(0.1875,0,0,0.1875,0,-149.317909)"/>
<path style=" stroke:none;fill-rule:nonzero;fill:rgb(73.72549%,77.254902%,87.058824%);fill-opacity:1;" d="M 31.441406 26.09375 C 30.765625 26.082031 30.128906 26.351562 29.570312 26.996094 L 25.601562 31.589844 L 30.363281 31.589844 C 30.632812 30.980469 31.007812 30.660156 31.59375 30.402344 L 31.59375 26.105469 C 31.542969 26.097656 31.492188 26.09375 31.441406 26.09375 Z M 31.441406 26.09375 "/>
<path style=" stroke:none;fill-rule:nonzero;fill:rgb(73.72549%,77.254902%,87.058824%);fill-opacity:1;" d="M 18.828125 27.21875 C 18.042969 27.226562 17.21875 27.429688 16.40625 27.78125 L 16.40625 30.304688 C 16.871094 30.53125 17.375 30.910156 17.691406 31.589844 L 25.601562 31.589844 C 24.6875 28.382812 20.757812 27.195312 18.828125 27.21875 Z M 18.828125 27.21875 "/>
<path style=" stroke:none;fill-rule:nonzero;fill:rgb(100%,100%,100%);fill-opacity:1;" d="M 35.433594 14.910156 C 35.433594 16.203125 34.386719 17.253906 33.089844 17.253906 C 31.796875 17.253906 30.746094 16.203125 30.746094 14.910156 C 30.746094 13.613281 31.796875 12.566406 33.089844 12.566406 C 34.386719 12.566406 35.433594 13.613281 35.433594 14.910156 Z M 35.433594 14.910156 "/>
<path style=" stroke:none;fill-rule:nonzero;fill:rgb(100%,100%,100%);fill-opacity:1;" d="M 17.253906 14.910156 C 17.253906 16.203125 16.203125 17.253906 14.910156 17.253906 C 13.613281 17.253906 12.566406 16.203125 12.566406 14.910156 C 12.566406 13.613281 13.613281 12.566406 14.910156 12.566406 C 16.203125 12.566406 17.253906 13.613281 17.253906 14.910156 Z M 17.253906 14.910156 "/>
<path style=" stroke:none;fill-rule:nonzero;fill:rgb(100%,100%,100%);fill-opacity:1;" d="M 35.433594 33.089844 C 35.433594 34.386719 34.386719 35.433594 33.089844 35.433594 C 31.796875 35.433594 30.746094 34.386719 30.746094 33.089844 C 30.746094 31.796875 31.796875 30.746094 33.089844 30.746094 C 34.386719 30.746094 35.433594 31.796875 35.433594 33.089844 Z M 35.433594 33.089844 "/>
<path style=" stroke:none;fill-rule:nonzero;fill:rgb(100%,100%,100%);fill-opacity:1;" d="M 17.253906 33.089844 C 17.253906 34.386719 16.203125 35.433594 14.910156 35.433594 C 13.613281 35.433594 12.566406 34.386719 12.566406 33.089844 C 12.566406 31.796875 13.613281 30.746094 14.910156 30.746094 C 16.203125 30.746094 17.253906 31.796875 17.253906 33.089844 Z M 17.253906 33.089844 "/>
</g>
</svg>
