
<svg xmlns="http://www.w3.org/2000/svg" xmlns:xlink="http://www.w3.org/1999/xlink" width="48px" height="48px" viewBox="0 0 48 48" version="1.1">
<g id="surface1">
<path style=" stroke:none;fill-rule:nonzero;fill:rgb(50.196078%,50.196078%,50.196078%);fill-opacity:1;" d="M 8.691406 42.816406 C 37.480469 64.863281 67.371094 9.957031 31.726562 1.929688 C 9.277344 -6.296875 -12.644531 26.476562 8.691406 42.816406 Z M 8.691406 42.816406 "/>
<path style=" stroke:none;fill-rule:nonzero;fill:rgb(100%,100%,100%);fill-opacity:1;" d="M 19.695312 12.960938 C 19.695312 12.527344 19.3125 12.179688 18.835938 12.179688 C 18.367188 12.179688 17.984375 12.527344 17.984375 12.960938 L 17.984375 15.863281 L 19.695312 15.863281 Z M 19.695312 12.960938 "/>
<path style=" stroke:none;fill-rule:nonzero;fill:rgb(100%,100%,100%);fill-opacity:1;" d="M 17.984375 35.851562 C 17.984375 36.285156 18.363281 36.636719 18.835938 36.636719 C 19.3125 36.636719 19.695312 36.285156 19.695312 35.851562 L 19.695312 32.953125 L 17.984375 32.953125 Z M 17.984375 35.851562 "/>
<path style=" stroke:none;fill-rule:nonzero;fill:rgb(100%,100%,100%);fill-opacity:1;" d="M 24.855469 12.960938 C 24.855469 12.527344 24.46875 12.179688 24 12.179688 C 23.527344 12.179688 23.148438 12.527344 23.148438 12.960938 L 23.148438 15.863281 L 24.855469 15.863281 Z M 24.855469 12.960938 "/>
<path style=" stroke:none;fill-rule:nonzero;fill:rgb(100%,100%,100%);fill-opacity:1;" d="M 23.148438 35.851562 C 23.148438 36.285156 23.527344 36.636719 24 36.636719 C 24.46875 36.636719 24.851562 36.285156 24.851562 35.851562 L 24.851562 32.953125 L 23.148438 32.953125 Z M 23.148438 35.851562 "/>
<path style=" stroke:none;fill-rule:nonzero;fill:rgb(100%,100%,100%);fill-opacity:1;" d="M 30.015625 12.960938 C 30.015625 12.527344 29.636719 12.179688 29.160156 12.179688 C 28.691406 12.179688 28.308594 12.527344 28.308594 12.960938 L 28.308594 15.863281 L 30.015625 15.863281 Z M 30.015625 12.960938 "/>
<path style=" stroke:none;fill-rule:nonzero;fill:rgb(100%,100%,100%);fill-opacity:1;" d="M 28.308594 35.851562 C 28.308594 36.285156 28.6875 36.636719 29.164062 36.636719 C 29.636719 36.636719 30.015625 36.285156 30.015625 35.851562 L 30.015625 32.953125 L 28.308594 32.953125 Z M 28.308594 35.851562 "/>
<path style=" stroke:none;fill-rule:nonzero;fill:rgb(100%,100%,100%);fill-opacity:1;" d="M 11.578125 28.378906 C 11.105469 28.378906 10.726562 28.730469 10.726562 29.164062 C 10.726562 29.597656 11.105469 29.945312 11.578125 29.945312 L 14.722656 29.945312 L 14.722656 28.378906 Z M 11.578125 28.378906 "/>
<path style=" stroke:none;fill-rule:nonzero;fill:rgb(100%,100%,100%);fill-opacity:1;" d="M 36.417969 29.945312 C 36.894531 29.945312 37.273438 29.597656 37.273438 29.164062 C 37.273438 28.730469 36.894531 28.378906 36.417969 28.378906 L 33.277344 28.378906 L 33.277344 29.945312 Z M 36.417969 29.945312 "/>
<path style=" stroke:none;fill-rule:nonzero;fill:rgb(100%,100%,100%);fill-opacity:1;" d="M 11.578125 23.621094 C 11.105469 23.621094 10.726562 23.972656 10.726562 24.40625 C 10.726562 24.839844 11.105469 25.195312 11.578125 25.195312 L 14.722656 25.195312 L 14.722656 23.621094 Z M 11.578125 23.621094 "/>
<path style=" stroke:none;fill-rule:nonzero;fill:rgb(100%,100%,100%);fill-opacity:1;" d="M 36.417969 25.195312 C 36.894531 25.195312 37.273438 24.839844 37.273438 24.40625 C 37.273438 23.972656 36.894531 23.621094 36.417969 23.621094 L 33.277344 23.621094 L 33.277344 25.195312 Z M 36.417969 25.195312 "/>
<path style=" stroke:none;fill-rule:nonzero;fill:rgb(100%,100%,100%);fill-opacity:1;" d="M 11.578125 18.867188 C 11.105469 18.867188 10.726562 19.21875 10.726562 19.652344 C 10.726562 20.085938 11.105469 20.4375 11.578125 20.4375 L 14.722656 20.4375 L 14.722656 18.867188 Z M 11.578125 18.867188 "/>
<path style=" stroke:none;fill-rule:nonzero;fill:rgb(100%,100%,100%);fill-opacity:1;" d="M 36.417969 20.4375 C 36.894531 20.4375 37.273438 20.085938 37.273438 19.652344 C 37.273438 19.21875 36.894531 18.867188 36.417969 18.867188 L 33.277344 18.867188 L 33.277344 20.4375 Z M 36.417969 20.4375 "/>
<path style=" stroke:none;fill-rule:nonzero;fill:rgb(100%,100%,100%);fill-opacity:1;" d="M 28.832031 30.503906 C 29.820312 30.503906 30.625 29.765625 30.625 28.855469 L 30.625 19.960938 C 30.625 19.046875 29.820312 18.308594 28.832031 18.308594 L 19.167969 18.308594 C 18.179688 18.308594 17.375 19.046875 17.375 19.960938 L 17.375 28.855469 C 17.375 29.765625 18.179688 30.503906 19.167969 30.503906 Z M 28.832031 30.503906 "/>
</g>
</svg>
