
<svg xmlns="http://www.w3.org/2000/svg" xmlns:xlink="http://www.w3.org/1999/xlink" width="48px" height="48px" viewBox="0 0 48 48" version="1.1">
<g id="surface1">
<path style=" stroke:none;fill-rule:nonzero;fill:rgb(84.705882%,74.901961%,84.705882%);fill-opacity:1;" d="M 22.792969 0.675781 C -42.269531 29.601562 53.191406 81.582031 47.777344 17.148438 C 46.511719 7.445312 36.484375 -2.742188 22.792969 0.675781 Z M 22.792969 0.675781 "/>
<path style=" stroke:none;fill-rule:nonzero;fill:rgb(100%,27.058824%,0%);fill-opacity:1;" d="M 25.320312 12.839844 C 19.617188 12.839844 14.996094 17.550781 14.996094 23.359375 C 14.996094 29.167969 19.617188 33.878906 25.320312 33.878906 C 31.023438 33.878906 35.648438 29.167969 35.648438 23.359375 C 35.648438 17.550781 31.023438 12.839844 25.320312 12.839844 Z M 25.320312 14.671875 C 30.03125 14.671875 33.851562 18.5625 33.851562 23.359375 C 33.851562 28.15625 30.03125 32.046875 25.320312 32.046875 C 20.613281 32.046875 16.792969 28.15625 16.792969 23.359375 C 16.792969 18.5625 20.609375 14.671875 25.320312 14.671875 Z M 25.320312 14.671875 "/>
<path style=" stroke:none;fill-rule:evenodd;fill:rgb(100%,27.058824%,0%);fill-opacity:1;" d="M 25.320312 27.800781 L 26.625 32.0625 L 24.019531 32.0625 Z M 25.320312 27.800781 "/>
<path style=" stroke:none;fill-rule:evenodd;fill:rgb(100%,27.058824%,0%);fill-opacity:1;" d="M 28.40625 26.5 L 32.285156 28.574219 L 30.441406 30.453125 Z M 28.40625 26.5 "/>
<path style=" stroke:none;fill-rule:evenodd;fill:rgb(100%,27.058824%,0%);fill-opacity:1;" d="M 29.683594 23.359375 L 33.863281 22.035156 L 33.863281 24.6875 Z M 29.683594 23.359375 "/>
<path style=" stroke:none;fill-rule:evenodd;fill:rgb(100%,27.058824%,0%);fill-opacity:1;" d="M 28.40625 20.21875 L 30.441406 16.269531 L 32.285156 18.144531 Z M 28.40625 20.21875 "/>
<path style=" stroke:none;fill-rule:evenodd;fill:rgb(100%,27.058824%,0%);fill-opacity:1;" d="M 25.320312 18.914062 L 24.019531 14.65625 L 26.625 14.65625 Z M 25.320312 18.914062 "/>
<path style=" stroke:none;fill-rule:evenodd;fill:rgb(100%,27.058824%,0%);fill-opacity:1;" d="M 22.238281 20.21875 L 18.359375 18.144531 L 20.203125 16.269531 Z M 22.238281 20.21875 "/>
<path style=" stroke:none;fill-rule:evenodd;fill:rgb(100%,27.058824%,0%);fill-opacity:1;" d="M 20.960938 23.359375 L 16.777344 24.6875 L 16.777344 22.035156 Z M 20.960938 23.359375 "/>
<path style=" stroke:none;fill-rule:evenodd;fill:rgb(100%,27.058824%,0%);fill-opacity:1;" d="M 22.238281 26.5 L 20.203125 30.453125 L 18.359375 28.574219 Z M 22.238281 26.5 "/>
<path style="fill:none;stroke-width:0.29;stroke-linecap:round;stroke-linejoin:miter;stroke:rgb(100%,27.058824%,0%);stroke-opacity:1;stroke-miterlimit:4;" d="M 9.731955 6.999904 C 9.179965 7.957044 7.957241 8.284072 7.000243 7.732094 C 6.696006 7.556293 6.443117 7.304248 6.267892 6.999904 " transform="matrix(6.085925,0,0,6.199297,-23.36467,-13.27339)"/>
<path style="fill-rule:evenodd;fill:rgb(100%,27.058824%,0%);fill-opacity:1;stroke-width:4;stroke-linecap:round;stroke-linejoin:miter;stroke:rgb(86.666667%,62.745098%,86.666667%);stroke-opacity:1;stroke-miterlimit:4;" d="M 139.910857 115.894829 C 139.910857 122.481689 134.574907 127.8065 128.006229 127.8065 C 121.419941 127.8065 116.101602 122.481689 116.101602 115.894829 C 116.101602 109.325258 121.437552 104.000447 128.006229 104.000447 C 134.574907 104.000447 139.910857 109.325258 139.910857 115.894829 Z M 139.910857 115.894829 " transform="matrix(0.221815,0,0,0.225947,-3.069483,-2.826714)"/>
</g>
</svg>
