
<svg xmlns="http://www.w3.org/2000/svg" xmlns:xlink="http://www.w3.org/1999/xlink" width="48px" height="48px" viewBox="0 0 48 48" version="1.1">
<g id="surface1">
<path style=" stroke:none;fill-rule:nonzero;fill:rgb(96.078431%,87.058824%,70.196078%);fill-opacity:1;" d="M 0.820312 29.4375 C 10.109375 74.039062 74.007812 26.15625 35.621094 3.484375 C 20.710938 -6.230469 -3.957031 6.496094 0.820312 29.4375 Z M 0.820312 29.4375 "/>
<path style=" stroke:none;fill-rule:nonzero;fill:rgb(18.431373%,30.980392%,30.980392%);fill-opacity:1;" d="M 11.457031 35.554688 C 11.101562 35.207031 10.554688 34.921875 10.242188 34.921875 C 9.707031 34.921875 9.671875 34.851562 9.671875 33.683594 C 9.671875 32.191406 10.179688 31.746094 10.824219 32.671875 C 11.203125 33.210938 12.101562 33.464844 13.324219 33.378906 C 13.964844 33.335938 33.503906 33.335938 34.144531 33.378906 C 35.382812 33.46875 36.296875 33.214844 36.609375 32.699219 C 37.140625 31.816406 37.578125 32.261719 37.578125 33.683594 C 37.578125 34.773438 37.523438 34.921875 37.117188 34.921875 C 36.867188 34.921875 36.367188 35.207031 36.011719 35.554688 C 35.152344 36.394531 33.347656 36.449219 32.488281 35.667969 C 31.933594 35.160156 31.667969 35.144531 23.734375 35.144531 C 15.800781 35.144531 15.535156 35.160156 14.980469 35.667969 C 14.121094 36.449219 12.316406 36.394531 11.457031 35.554688 Z M 12.175781 31.878906 C 11.953125 31.460938 11.996094 29.84375 12.238281 29.5625 C 12.351562 29.429688 12.871094 29.355469 13.390625 29.398438 C 14.183594 29.464844 14.351562 29.578125 14.46875 30.113281 C 14.546875 30.460938 14.546875 31.03125 14.476562 31.378906 C 14.359375 31.921875 14.203125 32.019531 13.335938 32.085938 C 12.757812 32.128906 12.265625 32.042969 12.175781 31.878906 Z M 17.40625 31.871094 C 17.191406 31.46875 17.226562 29.84375 17.457031 29.578125 C 17.574219 29.445312 20.480469 29.375 24.277344 29.414062 L 30.898438 29.480469 L 31.035156 30.113281 C 31.113281 30.460938 31.117188 31.03125 31.042969 31.378906 L 30.910156 32.011719 L 24.230469 32.078125 C 19.621094 32.125 17.503906 32.058594 17.40625 31.871094 Z M 9.945312 29.183594 C 9.777344 29.105469 9.671875 28.574219 9.671875 27.816406 C 9.671875 26.691406 9.726562 26.5625 10.242188 26.410156 C 10.554688 26.320312 11.632812 26.304688 12.640625 26.378906 C 13.804688 26.464844 14.523438 26.414062 14.613281 26.246094 C 14.691406 26.101562 14.753906 24.453125 14.753906 22.585938 L 14.753906 19.1875 L 12.648438 16.734375 C 10.519531 14.25 10.191406 13.566406 10.980469 13.273438 C 11.675781 13.019531 12.148438 13.320312 13.363281 14.800781 C 13.992188 15.566406 14.597656 16.125 14.707031 16.046875 C 14.816406 15.96875 14.84375 15.296875 14.769531 14.558594 C 14.652344 13.398438 14.699219 13.136719 15.097656 12.671875 C 15.679688 11.992188 16.089844 11.992188 16.675781 12.671875 C 17.074219 13.136719 17.121094 13.398438 17.003906 14.558594 C 16.925781 15.296875 16.957031 15.96875 17.066406 16.046875 C 17.175781 16.125 17.78125 15.566406 18.40625 14.800781 C 19.625 13.320312 20.09375 13.019531 20.792969 13.273438 C 21.582031 13.566406 21.253906 14.25 19.121094 16.734375 L 17.015625 19.1875 L 17.015625 22.625 C 17.015625 24.519531 17.074219 26.132812 17.144531 26.214844 C 17.214844 26.296875 21.675781 26.347656 27.054688 26.328125 C 32.433594 26.308594 37.003906 26.367188 37.207031 26.457031 C 37.484375 26.582031 37.578125 26.925781 37.578125 27.835938 C 37.578125 29.203125 37.136719 29.667969 36.632812 28.828125 C 36.332031 28.335938 36.0625 28.324219 23.734375 28.324219 C 11.320312 28.324219 11.136719 28.332031 10.832031 28.839844 C 10.511719 29.367188 10.414062 29.40625 9.945312 29.1875 Z M 23.84375 24.542969 C 23.433594 24.066406 23.40625 23.699219 23.40625 18.59375 C 23.40625 13.488281 23.433594 13.117188 23.84375 12.644531 C 24.253906 12.164062 24.570312 12.136719 29.835938 12.136719 C 35.105469 12.136719 35.417969 12.164062 35.832031 12.644531 C 36.242188 13.117188 36.269531 13.488281 36.269531 18.59375 C 36.269531 23.699219 36.242188 24.066406 35.832031 24.542969 C 35.417969 25.023438 35.105469 25.050781 29.835938 25.050781 C 24.570312 25.050781 24.253906 25.023438 23.84375 24.542969 Z M 23.84375 24.542969 "/>
</g>
</svg>
