
<svg xmlns="http://www.w3.org/2000/svg" xmlns:xlink="http://www.w3.org/1999/xlink" width="48px" height="48px" viewBox="0 0 48 48" version="1.1">
<g id="surface1">
<path style=" stroke:none;fill-rule:nonzero;fill:rgb(96.078431%,96.078431%,96.078431%);fill-opacity:1;" d="M 9.894531 4.863281 C 45.980469 -19.023438 68.207031 57.160156 21.558594 47.074219 C 2.277344 42.777344 -9.421875 15.820312 9.894531 4.863281 Z M 9.894531 4.863281 "/>
<path style=" stroke:none;fill-rule:nonzero;fill:rgb(96.078431%,96.078431%,96.078431%);fill-opacity:1;" d="M 37.863281 24.507812 C 37.863281 24.53125 37.859375 24.558594 37.855469 24.585938 C 37.847656 24.855469 37.71875 25.117188 37.535156 25.253906 L 32.164062 29.148438 L 26.789062 33.050781 C 26.589844 33.191406 26.335938 33.1875 26.140625 33.042969 C 25.945312 32.902344 25.820312 32.625 25.820312 32.339844 L 25.820312 27.996094 L 13.597656 27.996094 C 12.78125 27.996094 12.125 27.339844 12.125 26.523438 L 12.125 24.496094 L 37.863281 24.496094 C 37.863281 24.5 37.863281 24.503906 37.863281 24.507812 Z M 37.863281 24.507812 "/>
<path style=" stroke:none;fill-rule:nonzero;fill:rgb(97.254902%,83.529412%,37.647059%);fill-opacity:1;" d="M 31.875 42.214844 C 31.644531 41.984375 32.488281 40.976562 32.222656 40.515625 C 31.234375 38.773438 28.445312 30.988281 27.148438 29.21875 C 25.140625 26.484375 21.886719 27.355469 18.910156 27.441406 C 17.1875 27.492188 16.300781 27.617188 16.101562 27.84375 C 15.738281 28.253906 13.578125 28.0625 12.917969 27.5625 C 12.671875 27.375 11.992188 27.15625 11.40625 27.074219 C 8.957031 26.734375 6.828125 25.460938 6.492188 24.132812 C 6.226562 23.070312 7.082031 21.582031 8.652344 20.378906 C 10.0625 19.296875 14.359375 17.226562 16.339844 16.667969 C 16.988281 16.488281 17.480469 16.167969 17.628906 15.832031 C 17.886719 15.238281 18.425781 14.980469 19.414062 14.980469 C 19.875 14.980469 20.132812 14.78125 20.332031 14.277344 C 20.6875 13.394531 21.496094 13.007812 22.800781 13.101562 C 23.65625 13.164062 23.894531 13.3125 24.289062 14.019531 C 24.972656 15.246094 24.929688 15.941406 24.164062 15.949219 C 23.824219 15.953125 23.304688 16.117188 23.007812 16.3125 C 22.480469 16.664062 22.480469 16.6875 22.988281 17.996094 C 23.542969 19.425781 24.234375 19.824219 25.292969 19.328125 C 25.597656 19.1875 25.964844 19.070312 26.109375 19.070312 C 26.25 19.070312 26.757812 20.015625 27.238281 21.171875 C 28.449219 24.113281 28.300781 23.988281 29.953125 23.4375 C 33.421875 22.289062 37.164062 19.929688 37.164062 18.898438 C 37.164062 18.125 36.085938 17.132812 34.574219 16.515625 C 33.425781 16.050781 32.722656 15.945312 30.671875 15.945312 C 28.511719 15.941406 28.101562 15.875 27.667969 15.457031 C 27.363281 15.164062 27.265625 14.886719 27.417969 14.757812 C 27.792969 14.449219 29.84375 14.207031 32.351562 14.171875 C 34.230469 14.144531 34.773438 14.234375 36.066406 14.789062 C 38.363281 15.777344 39.277344 16.738281 39.511719 18.402344 L 39.703125 19.78125 L 37.953125 21.300781 C 36.222656 22.800781 32.75 24.601562 30.21875 25.3125 C 29.652344 25.46875 29.1875 25.636719 29.1875 25.679688 C 29.1875 25.8125 31.28125 30.871094 31.808594 32.011719 C 32.234375 32.933594 32.335938 33.011719 32.699219 32.695312 C 32.925781 32.496094 33.125 32.085938 33.144531 31.777344 C 33.171875 31.273438 33.296875 31.222656 34.550781 31.246094 C 35.855469 31.269531 35.933594 31.304688 36.015625 31.960938 C 36.066406 32.34375 36.21875 32.757812 36.359375 32.882812 C 36.769531 33.253906 36.652344 33.738281 36.152344 33.738281 C 35.894531 33.738281 35.402344 33.972656 35.054688 34.257812 L 34.421875 34.777344 L 33.742188 34.136719 C 33.160156 33.589844 32.488281 33.292969 32.488281 33.589844 C 32.488281 33.636719 33.167969 35.328125 34 37.34375 C 34.835938 39.363281 35.515625 41.160156 35.515625 41.34375 C 35.515625 41.800781 33.894531 42.632812 33.011719 42.632812 C 32.617188 42.632812 32.105469 42.445312 31.875 42.214844 Z M 23.6875 27.972656 C 23.3125 27.183594 22.859375 27.003906 22.859375 27.648438 C 22.859375 28.078125 26.433594 27.257812 26.652344 27.070312 C 26.722656 27.007812 23.878906 28.375 23.6875 27.972656 Z M 14.855469 25.40625 C 15.453125 25.039062 15.519531 25.039062 15.753906 25.40625 C 16.089844 25.929688 19.324219 25.972656 19.90625 25.464844 C 20.15625 25.246094 20.429688 25.199219 20.679688 25.335938 C 21.007812 25.515625 21.945312 25.429688 22.257812 25.195312 C 22.304688 25.160156 21.898438 24.355469 21.355469 23.414062 C 20.308594 21.601562 20.300781 21.234375 21.308594 21.234375 C 21.800781 21.234375 22.113281 21.574219 22.859375 22.917969 C 23.371094 23.84375 23.898438 24.601562 24.027344 24.601562 C 24.160156 24.601562 24.214844 24.519531 24.152344 24.417969 C 23.808594 23.871094 22.5625 20.207031 22.683594 20.101562 C 22.914062 19.902344 21.742188 17.308594 21.195312 16.808594 C 20.710938 16.363281 20.679688 16.363281 19.667969 16.886719 C 19.097656 17.179688 18.398438 17.363281 18.105469 17.296875 C 17.46875 17.152344 13.953125 18.351562 12.101562 19.347656 C 7.597656 21.769531 7.78125 24.738281 12.476562 25.546875 C 14.160156 25.839844 14.144531 25.839844 14.855469 25.40625 Z M 14.785156 21.632812 C 14.285156 20.820312 14.285156 20.820312 15.011719 20.136719 C 15.632812 19.550781 15.8125 19.492188 16.265625 19.742188 C 16.558594 19.898438 16.984375 20.03125 17.214844 20.03125 C 17.515625 20.03125 17.628906 20.292969 17.628906 20.964844 C 17.628906 21.796875 17.546875 21.914062 16.875 22.011719 C 16.457031 22.074219 15.929688 22.199219 15.699219 22.285156 C 15.414062 22.394531 15.132812 22.195312 14.785156 21.632812 Z M 39.089844 18.105469 C 39.089844 17.976562 38.96875 17.867188 38.816406 17.867188 C 38.664062 17.867188 38.539062 17.976562 38.539062 18.105469 C 38.539062 18.238281 38.664062 18.347656 38.816406 18.347656 C 38.96875 18.347656 39.089844 18.238281 39.089844 18.105469 Z M 10.574219 16.289062 C 10.355469 15.792969 10.820312 15.40625 11.398438 15.601562 C 11.976562 15.792969 11.992188 16.328125 11.421875 16.519531 C 10.808594 16.722656 10.757812 16.710938 10.574219 16.289062 Z M 10.574219 16.289062 "/>
<path style=" stroke:none;fill-rule:nonzero;fill:rgb(87.45098%,44.313725%,16.470588%);fill-opacity:1;" d="M 31.148438 40.183594 C 29.851562 37.671875 28.386719 34.25 26.722656 29.835938 L 24.972656 25.195312 L 23.734375 25.339844 C 23.054688 25.417969 21.015625 25.519531 19.207031 25.566406 C 16.320312 25.640625 15.859375 25.710938 15.472656 26.128906 C 15.140625 26.488281 14.914062 26.546875 14.550781 26.371094 C 14.289062 26.242188 13.890625 26.199219 13.667969 26.273438 C 13.410156 26.359375 13.171875 26.203125 13.015625 25.839844 C 12.835938 25.421875 12.417969 25.195312 11.441406 24.988281 C 10.714844 24.832031 9.808594 24.542969 9.429688 24.34375 L 8.742188 23.984375 L 9.429688 24.128906 C 11.902344 24.652344 13.644531 24.800781 14.140625 24.53125 C 14.550781 24.308594 14.796875 24.316406 15.28125 24.578125 C 15.761719 24.839844 16.417969 24.871094 18.277344 24.714844 C 20.296875 24.550781 23.382812 23.964844 24.070312 23.613281 C 24.175781 23.5625 23.898438 22.609375 23.449219 21.5 C 23.003906 20.390625 22.636719 19.3125 22.636719 19.109375 C 22.636719 18.71875 23.199219 18.542969 24.824219 18.429688 L 25.769531 18.363281 L 26.679688 20.507812 C 27.179688 21.6875 27.648438 22.703125 27.722656 22.765625 C 27.972656 22.984375 32.6875 21.765625 34.328125 21.058594 C 35.816406 20.414062 35.925781 20.398438 35.4375 20.875 C 34.757812 21.539062 32.078125 22.855469 29.996094 23.550781 C 29.125 23.84375 28.414062 24.222656 28.414062 24.394531 C 28.414062 24.699219 30.535156 29.832031 31.289062 31.347656 C 31.925781 32.636719 34.75 39.753906 34.746094 40.066406 C 34.738281 40.472656 33.113281 41.324219 32.347656 41.324219 C 31.890625 41.328125 31.597656 41.046875 31.152344 40.183594 Z M 33.75 33.398438 C 33.289062 32.964844 32.808594 33.125 33.558594 32.601562 C 33.742188 32.472656 34.394531 34.109375 33.78125 32.546875 C 33.667969 32.257812 33.878906 31.539062 34.660156 31.539062 C 35.519531 31.539062 35.234375 32.363281 35.175781 30.839844 C 35.164062 30.558594 35.910156 33.082031 36.027344 33.3125 C 36.175781 33.609375 35.695312 32.675781 35.675781 32.925781 C 35.605469 33.9375 34.5 33.695312 34.3125 33.890625 C 33.871094 34.355469 34.527344 34.128906 33.75 33.398438 Z M 15.019531 20.757812 C 14.679688 20.410156 15.378906 20.644531 15.753906 20.144531 C 16.074219 19.714844 15.992188 19.742188 16.195312 19.917969 C 16.351562 20.058594 15.554688 21.179688 15.753906 19.972656 C 15.8125 19.617188 17.371094 20.429688 17.226562 20.96875 C 17.007812 21.761719 16.742188 21.652344 15.902344 21.828125 C 15.390625 21.933594 15.886719 21.648438 15.019531 20.757812 Z M 10.253906 18.128906 C 10.253906 18.0625 10.75 17.789062 11.355469 17.519531 C 11.960938 17.25 12.457031 17.082031 12.457031 17.148438 C 12.457031 17.214844 11.960938 17.488281 11.355469 17.761719 C 10.75 18.03125 10.253906 18.195312 10.253906 18.128906 Z M 14.105469 16.316406 C 14.335938 16.1875 14.644531 16.085938 14.792969 16.085938 C 14.945312 16.085938 14.882812 16.1875 14.65625 16.316406 C 14.429688 16.445312 14.121094 16.550781 13.96875 16.550781 C 13.816406 16.550781 13.878906 16.445312 14.105469 16.316406 Z M 20.488281 14.828125 C 19.910156 14.316406 20.085938 12.785156 20.769531 12.363281 C 21.71875 11.78125 23.148438 11.871094 23.429688 12.53125 C 24.109375 14.109375 24.113281 14.089844 22.75 14.617188 C 21.265625 15.191406 20.941406 15.222656 20.488281 14.828125 Z M 20.488281 14.828125 "/>
<path style=" stroke:none;fill-rule:nonzero;fill:rgb(36.862745%,36.470588%,36.078431%);fill-opacity:1;" d="M 31.398438 40.835938 C 29.503906 37.171875 25.113281 26.242188 25.425781 25.96875 C 25.507812 25.894531 26.261719 25.695312 27.09375 25.527344 L 28.605469 25.21875 L 29.777344 28.007812 C 30.421875 29.542969 31.160156 31.230469 31.417969 31.757812 C 32.160156 33.273438 34.992188 40.382812 34.988281 40.71875 C 34.984375 41.121094 33.359375 41.976562 32.59375 41.976562 C 32.136719 41.980469 31.839844 41.699219 31.394531 40.835938 Z M 24.394531 23.882812 C 24.328125 23.71875 23.960938 22.8125 23.578125 21.871094 C 22.539062 19.316406 22.570312 19.257812 25.070312 19.082031 L 26.015625 19.015625 L 26.925781 21.160156 C 27.425781 22.335938 27.804688 23.320312 27.765625 23.34375 C 27.445312 23.535156 25.257812 24.183594 24.929688 24.183594 C 24.703125 24.183594 24.460938 24.050781 24.394531 23.882812 Z M 20.738281 15.480469 C 20.15625 14.972656 20.332031 13.4375 21.019531 13.015625 C 21.964844 12.4375 23.394531 12.527344 23.679688 13.183594 C 24.355469 14.765625 24.359375 14.742188 22.996094 15.269531 C 21.511719 15.847656 21.1875 15.875 20.738281 15.480469 Z M 20.738281 15.480469 "/>
<path style=" stroke:none;fill-rule:nonzero;fill:rgb(9.019608%,8.627451%,8.235294%);fill-opacity:1;" d="M 32.300781 41.769531 C 31.984375 41.597656 29.9375 36.886719 27.390625 30.492188 C 25.960938 26.890625 25.714844 26.066406 26.050781 25.957031 C 26.871094 25.679688 27.234375 26.128906 28.632812 29.15625 C 29.421875 30.855469 30.3125 32.621094 30.613281 33.085938 L 31.164062 33.925781 L 31.027344 32.964844 C 30.894531 32.050781 30.90625 32.03125 31.253906 32.601562 C 31.453125 32.933594 32.332031 34.855469 33.207031 36.875 L 34.796875 40.546875 L 34.179688 41.121094 C 33.515625 41.742188 32.734375 42.011719 32.296875 41.773438 Z M 24.445312 23.164062 C 23.257812 20.394531 23.097656 19.800781 23.476562 19.585938 C 24.097656 19.242188 24.488281 19.351562 24.675781 19.917969 C 24.777344 20.214844 25.164062 21.140625 25.539062 21.980469 C 26.074219 23.175781 26.148438 23.574219 25.890625 23.84375 C 25.335938 24.429688 24.902344 24.226562 24.445312 23.164062 Z M 20.96875 15.0625 C 20.511719 14.320312 20.628906 13.40625 21.214844 13.132812 C 22.066406 12.734375 23.109375 12.835938 23.421875 13.351562 C 23.902344 14.132812 23.75 14.457031 22.640625 15.003906 C 21.339844 15.644531 21.320312 15.644531 20.964844 15.066406 Z M 20.96875 15.0625 "/>
</g>
</svg>
