
<svg xmlns="http://www.w3.org/2000/svg" xmlns:xlink="http://www.w3.org/1999/xlink" width="48px" height="48px" viewBox="0 0 48 48" version="1.1">
<g id="surface1">
<path style=" stroke:none;fill-rule:nonzero;fill:rgb(100%,54.901961%,0%);fill-opacity:1;" d="M 8.972656 41.039062 C -27.210938 -8.90625 72.363281 -16.003906 40.410156 34.980469 C 33.125 46.601562 18.554688 54.265625 8.972656 41.039062 Z M 8.972656 41.039062 "/>
<path style="fill-rule:nonzero;fill:rgb(100%,100%,100%);fill-opacity:1;stroke-width:1.125;stroke-linecap:butt;stroke-linejoin:miter;stroke:rgb(100%,100%,100%);stroke-opacity:1;stroke-miterlimit:4;" d="M 861.048015 154.734567 C 821.214335 154.734567 788.949054 185.681996 788.949054 223.909466 C 788.949054 262.136937 821.214335 293.142374 861.07457 293.142374 C 900.90825 293.142374 933.226643 262.136937 933.226643 223.909466 C 933.226643 185.681996 900.90825 154.734567 861.07457 154.734567 Z M 858.472103 173.036186 C 861.366684 172.949174 863.836372 175.153489 864.075374 178.053904 C 864.340932 180.954319 862.296137 183.535689 859.428112 183.970751 C 849.336913 185.217929 840.546947 188.321373 833.934556 194.093199 C 827.322165 199.89403 822.515568 208.479258 820.895665 222.343242 C 820.55044 225.359674 817.815194 227.534985 814.787834 227.186935 C 811.760474 226.809881 809.609456 224.083491 809.954681 221.067059 C 811.840142 205.172785 817.894861 193.513116 826.684827 185.827016 C 835.474792 178.111912 846.548555 174.486394 858.047211 173.06519 C 858.206545 173.036186 858.339324 173.036186 858.472103 173.036186 Z M 858.472103 173.036186 " transform="matrix(0.147096,0,0,0.134679,-103.066875,-11.374653)"/>
<path style="fill-rule:nonzero;fill:rgb(100%,100%,100%);fill-opacity:1;stroke-width:29.86;stroke-linecap:round;stroke-linejoin:round;stroke:rgb(100%,100%,100%);stroke-opacity:1;stroke-miterlimit:4;" d="M 829.738742 875.994958 L 894.534862 868.366867 " transform="matrix(0.147096,0,0,0.134679,-103.066875,-84.15)"/>
<path style="fill-rule:nonzero;fill:rgb(100%,100%,100%);fill-opacity:1;stroke-width:30.28;stroke-linecap:round;stroke-linejoin:round;stroke:rgb(100%,100%,100%);stroke-opacity:1;stroke-miterlimit:4;" d="M 829.738742 894.412594 L 894.534862 886.755498 " transform="matrix(0.147096,0,0,0.134679,-103.066875,-84.15)"/>
<path style="fill-rule:nonzero;fill:rgb(100%,100%,100%);fill-opacity:1;stroke-width:30.28;stroke-linecap:round;stroke-linejoin:round;stroke:rgb(100%,100%,100%);stroke-opacity:1;stroke-miterlimit:4;" d="M 842.246518 910.045831 L 882.027086 905.753217 " transform="matrix(0.147096,0,0,0.134679,-103.066875,-84.15)"/>
<path style="fill-rule:nonzero;fill:rgb(100%,100%,100%);fill-opacity:1;stroke-width:1.125;stroke-linecap:butt;stroke-linejoin:miter;stroke:rgb(100%,100%,100%);stroke-opacity:1;stroke-miterlimit:4;" d="M 861.154238 812.446864 C 881.734972 812.446864 898.412006 823.52645 898.412006 837.187405 L 898.412006 837.216409 C 898.412006 850.877364 881.734972 861.956949 861.154238 861.956949 C 840.573503 861.956949 823.896469 850.877364 823.896469 837.216409 L 823.896469 837.187405 C 823.896469 823.52645 840.573503 812.446864 861.154238 812.446864 Z M 861.154238 812.446864 " transform="matrix(0.147096,0,0,0.134679,-103.066875,-84.15)"/>
<path style="fill-rule:nonzero;fill:rgb(100%,100%,100%);fill-opacity:1;stroke-width:1.125;stroke-linecap:butt;stroke-linejoin:miter;stroke:rgb(100%,100%,100%);stroke-opacity:1;stroke-miterlimit:4;" d="M 895.092533 270.40312 C 894.561417 270.577145 893.021182 295.288681 893.207072 297.347976 C 893.392963 299.40727 896.526546 306.832333 896.526546 306.832333 L 898.173004 303.032789 C 898.305783 298.276108 899.686684 292.388266 902.262596 286.587436 C 904.758839 281.018639 907.839311 276.610008 910.840115 273.999634 L 911.530565 272.43341 C 911.530565 272.43341 895.623649 270.229095 895.092533 270.40312 Z M 895.092533 270.40312 " transform="matrix(0.147096,0,0,0.134679,-103.066875,-11.374653)"/>
<path style="fill-rule:nonzero;fill:rgb(100%,100%,100%);fill-opacity:1;stroke-width:1.125;stroke-linecap:butt;stroke-linejoin:miter;stroke:rgb(100%,100%,100%);stroke-opacity:1;stroke-miterlimit:4;" d="M 827.030052 810.764624 C 827.561168 810.938649 829.074847 835.650185 828.888957 837.70948 C 828.703066 839.768774 825.569484 847.193837 825.569484 847.193837 L 823.923025 843.394293 C 823.790246 838.637612 822.409345 832.74977 819.833434 826.94894 C 817.33719 821.380143 814.283274 816.971512 811.255915 814.361138 L 810.59202 812.794914 C 810.59202 812.794914 826.47238 810.590599 827.030052 810.764624 Z M 827.030052 810.764624 " transform="matrix(0.147096,0,0,0.134679,-103.066875,-84.15)"/>
</g>
</svg>
