
<svg xmlns="http://www.w3.org/2000/svg" xmlns:xlink="http://www.w3.org/1999/xlink" width="48px" height="48px" viewBox="0 0 48 48" version="1.1">
<g id="surface1">
<path style=" stroke:none;fill-rule:nonzero;fill:rgb(100%,100%,100%);fill-opacity:1;" d="M 17.363281 23.472656 L 17.363281 32.828125 C 17.363281 38.4375 18.328125 38.4375 26.988281 38.4375 L 28.914062 38.4375 C 37.578125 38.4375 38.539062 38.4375 38.539062 32.828125 L 38.539062 23.472656 C 38.539062 17.859375 37.578125 17.859375 28.914062 17.859375 L 26.988281 17.859375 C 18.328125 17.859375 17.363281 17.859375 17.363281 23.472656 Z M 26.988281 19.730469 L 28.914062 19.730469 C 36.613281 19.730469 36.613281 19.730469 36.613281 23.472656 L 36.613281 30.019531 C 36.613281 33.761719 36.613281 33.761719 28.914062 33.761719 L 26.988281 33.761719 C 19.289062 33.761719 19.289062 33.761719 19.289062 30.019531 L 19.289062 23.472656 C 19.289062 19.730469 19.289062 19.730469 26.988281 19.730469 Z M 26.988281 19.730469 "/>
<path style=" stroke:none;fill-rule:nonzero;fill:rgb(100%,100%,100%);fill-opacity:1;" d="M 21.214844 30.191406 L 21.214844 26.5625 L 24.582031 23.164062 L 28.796875 27.414062 L 30.480469 25.714844 L 34.691406 29.964844 L 34.691406 30.191406 C 34.691406 31.894531 34.410156 31.894531 31.324219 31.894531 L 24.585938 31.894531 C 21.5 31.894531 21.21875 31.894531 21.21875 30.191406 Z M 21.214844 30.191406 "/>
<path style=" stroke:none;fill-rule:nonzero;fill:rgb(100%,100%,100%);fill-opacity:1;" d="M 34.6875 23.472656 C 34.6875 24.507812 33.828125 25.34375 32.761719 25.34375 C 31.699219 25.34375 30.839844 24.507812 30.839844 23.472656 C 30.839844 22.441406 31.699219 21.601562 32.761719 21.601562 C 33.828125 21.601562 34.6875 22.441406 34.6875 23.472656 Z M 34.6875 23.472656 "/>
<path style=" stroke:none;fill-rule:nonzero;fill:rgb(100%,100%,100%);fill-opacity:1;" d="M 23.140625 14.121094 C 14.476562 14.121094 13.515625 14.121094 13.515625 19.730469 L 13.515625 29.085938 C 13.515625 32.128906 13.800781 33.523438 15.4375 34.160156 L 15.4375 19.730469 C 15.4375 16.34375 15.496094 16.03125 21.214844 16 L 21.214844 15.992188 L 34.21875 15.992188 C 33.371094 14.121094 31.070312 14.121094 25.0625 14.121094 Z M 23.140625 14.121094 "/>
<path style=" stroke:none;fill-rule:nonzero;fill:rgb(100%,100%,100%);fill-opacity:1;" d="M 19.289062 10.378906 C 10.625 10.378906 9.664062 10.378906 9.664062 15.992188 L 9.664062 25.34375 C 9.664062 28.386719 9.949219 29.78125 11.589844 30.421875 L 11.589844 15.992188 C 11.589844 12.601562 11.648438 12.289062 17.363281 12.257812 L 17.363281 12.25 L 30.367188 12.25 C 29.519531 10.378906 27.21875 10.378906 21.214844 10.378906 Z M 19.289062 10.378906 "/>
<path style=" stroke:none;fill-rule:nonzero;fill:rgb(54.117647%,16.862745%,88.627451%);fill-opacity:1;" d="M 8.539062 7.238281 C -28.980469 56.972656 74.273438 64.039062 41.136719 13.269531 C 33.582031 1.695312 18.476562 -5.9375 8.539062 7.238281 Z M 8.539062 7.238281 "/>
<path style=" stroke:none;fill-rule:nonzero;fill:rgb(100%,100%,100%);fill-opacity:1;" d="M 14.363281 38.402344 C 11.382812 38.101562 9.972656 37.398438 9.164062 35.804688 C 8.484375 34.476562 8.167969 26.875 8.632812 22.996094 C 9.207031 18.179688 10.242188 17.015625 14.359375 16.566406 C 18.109375 16.15625 18.1875 16.121094 17.527344 15.210938 C 16.765625 14.164062 16.800781 13.378906 17.636719 12.648438 C 18.535156 11.867188 19.460938 11.890625 19.914062 12.703125 C 20.113281 13.0625 20.855469 13.65625 21.558594 14.019531 C 23.148438 14.84375 24.351562 14.601562 26.128906 13.101562 C 27.777344 11.707031 28.730469 11.824219 28.890625 13.433594 C 28.957031 14.089844 28.808594 14.863281 28.558594 15.15625 C 28.308594 15.445312 28.183594 15.761719 28.285156 15.855469 C 28.382812 15.953125 29.886719 16.203125 31.621094 16.410156 C 34.945312 16.808594 36.15625 17.320312 36.878906 18.625 C 37.472656 19.691406 37.882812 27.636719 37.566406 31.996094 C 37.308594 35.605469 36.789062 36.949219 35.378906 37.675781 C 33.496094 38.644531 21.050781 39.078125 14.363281 38.402344 Z M 28.585938 32.171875 C 29.503906 31.726562 29.523438 31.625 29.628906 26.957031 C 29.730469 22.34375 29.707031 22.179688 28.875 21.65625 C 26.90625 20.414062 15.523438 20.503906 13.898438 21.769531 C 13.214844 22.300781 13.074219 22.886719 12.914062 25.835938 C 12.6875 29.976562 13.152344 31.707031 14.625 32.226562 C 16.167969 32.769531 27.445312 32.726562 28.582031 32.171875 Z M 28.585938 32.171875 "/>
<path style=" stroke:none;fill-rule:nonzero;fill:rgb(100%,100%,100%);fill-opacity:1;" d="M 16.574219 38.058594 C 12.207031 37.710938 11.183594 37.445312 10.148438 36.382812 C 9.269531 35.480469 9.257812 35.367188 9.257812 27.988281 C 9.257812 19.886719 9.382812 19.320312 11.480469 18 C 12.164062 17.570312 15.734375 16.988281 19.109375 16.753906 C 19.496094 16.730469 19.0625 15.65625 18.453125 15.125 C 17.558594 14.34375 17.5 13.746094 18.261719 13.140625 C 18.722656 12.773438 19.058594 12.894531 20.148438 13.820312 C 20.882812 14.4375 21.683594 14.960938 21.9375 14.980469 C 23.734375 15.125 25.128906 14.757812 26.285156 13.84375 C 27 13.273438 27.726562 12.894531 27.898438 12.996094 C 28.511719 13.359375 28.195312 14.867188 27.394531 15.375 C 26.101562 16.203125 26.851562 16.644531 29.988281 16.914062 C 36.972656 17.507812 36.992188 17.535156 37.011719 27.765625 C 37.03125 35.621094 36.90625 36.1875 34.964844 37.152344 C 32.9375 38.164062 23.648438 38.621094 16.574219 38.058594 Z M 28.5 32.617188 C 29.984375 32.117188 30.136719 31.707031 30.367188 27.546875 C 30.578125 23.675781 30.121094 21.679688 28.863281 21.035156 C 27.824219 20.5 20.832031 20.199219 17.148438 20.53125 C 14.789062 20.742188 14.042969 20.964844 13.332031 21.648438 C 12.511719 22.4375 12.445312 22.78125 12.453125 26.394531 C 12.457031 30.628906 12.816406 31.804688 14.328125 32.539062 C 15.503906 33.113281 26.835938 33.175781 28.496094 32.617188 Z M 33.503906 24.585938 C 33.019531 24.125 32.53125 24.480469 32.890625 25.035156 C 33.027344 25.25 33.3125 25.324219 33.523438 25.199219 C 33.777344 25.046875 33.773438 24.847656 33.503906 24.585938 Z M 33.839844 21.824219 C 33.839844 21.339844 33.15625 21 32.707031 21.265625 C 32.496094 21.390625 32.421875 21.644531 32.539062 21.828125 C 32.820312 22.269531 33.835938 22.265625 33.835938 21.824219 Z M 33.839844 21.824219 "/>
<path style=" stroke:none;fill-rule:nonzero;fill:rgb(100%,100%,100%);fill-opacity:1;" d="M 15.65625 37.640625 C 13.5625 37.460938 11.558594 37.09375 11.089844 36.796875 C 9.652344 35.890625 9.34375 34.136719 9.507812 27.8125 C 9.652344 22.226562 9.703125 21.914062 10.695312 20.296875 C 11.261719 19.371094 11.945312 18.441406 12.207031 18.230469 C 13.019531 17.578125 21.679688 17 26.890625 17.246094 C 32.238281 17.5 34.410156 17.867188 35.222656 18.648438 C 36.171875 19.5625 36.917969 25.183594 36.773438 30.28125 C 36.578125 36.9375 36.414062 37.109375 29.597656 37.691406 C 24.761719 38.101562 20.949219 38.089844 15.652344 37.640625 Z M 29.195312 32.726562 C 30.375 32.09375 30.546875 31.4375 30.742188 26.835938 C 30.914062 22.84375 30.886719 22.621094 30.035156 21.679688 C 28.820312 20.339844 25.625 19.859375 19.679688 20.132812 C 14.445312 20.371094 12.597656 20.914062 12.230469 22.324219 C 12.097656 22.835938 12.050781 25.039062 12.128906 27.21875 C 12.339844 33.136719 12.742188 33.367188 22.390625 33.242188 C 26.203125 33.191406 28.6875 33.003906 29.195312 32.726562 Z M 34.027344 24.871094 C 34.027344 24.074219 32.855469 23.6875 32.238281 24.28125 C 31.960938 24.546875 31.992188 24.832031 32.335938 25.234375 C 32.992188 25.992188 34.027344 25.769531 34.027344 24.871094 Z M 33.621094 22.667969 C 34.859375 22.207031 33.6875 20.546875 32.429688 20.976562 C 32.15625 21.074219 31.960938 20.84375 31.960938 20.429688 C 31.960938 19.957031 31.644531 19.660156 31.023438 19.546875 C 29.890625 19.339844 29.828125 19.660156 30.835938 20.539062 C 31.25 20.898438 31.585938 21.402344 31.585938 21.660156 C 31.585938 21.917969 31.882812 22.292969 32.242188 22.496094 C 33.046875 22.945312 32.910156 22.929688 33.621094 22.667969 Z M 19.234375 15.082031 C 18.738281 14.605469 18.433594 14.117188 18.558594 13.996094 C 18.808594 13.753906 21.023438 15.3125 21.058594 15.753906 C 21.097656 16.292969 20.121094 15.929688 19.234375 15.082031 Z M 26.484375 14.632812 C 26.878906 14.207031 27.351562 13.859375 27.539062 13.859375 C 28.066406 13.859375 27.503906 14.53125 26.59375 14.992188 C 25.773438 15.40625 25.773438 15.402344 26.484375 14.632812 Z M 26.484375 14.632812 "/>
<path style=" stroke:none;fill-rule:nonzero;fill:rgb(100%,100%,100%);fill-opacity:1;" d="M 14.847656 37.324219 C 10.160156 36.847656 9.820312 36.375 9.824219 30.355469 C 9.824219 26.972656 9.941406 26.144531 10.550781 25.261719 L 11.273438 24.203125 L 11.460938 25.078125 C 11.5625 25.5625 11.738281 27.074219 11.851562 28.445312 C 12.074219 31.203125 12.730469 32.46875 14.25 33.074219 C 14.851562 33.3125 17.84375 33.480469 21.640625 33.488281 C 26.894531 33.503906 28.230469 33.398438 29.195312 32.902344 C 30.617188 32.179688 30.769531 31.832031 31.082031 28.605469 L 31.324219 26.078125 L 32.53125 26.292969 C 34.632812 26.675781 35.390625 24.644531 33.484375 23.730469 L 32.574219 23.292969 L 33.582031 23.050781 C 34.925781 22.726562 34.964844 21.359375 33.648438 20.785156 C 33.132812 20.558594 32.75 20.179688 32.804688 19.945312 C 32.929688 19.382812 31.46875 18.992188 29.148438 18.964844 C 27.285156 18.941406 27.277344 18.945312 28.394531 19.414062 C 29.453125 19.859375 30.851562 21.082031 30.300781 21.082031 C 30.160156 21.082031 29.507812 20.808594 28.847656 20.472656 C 27.882812 19.988281 26.535156 19.867188 22.015625 19.855469 C 18.921875 19.847656 15.738281 19.964844 14.941406 20.121094 C 13.949219 20.316406 13.574219 20.28125 13.746094 20.019531 C 13.894531 19.785156 13.613281 19.636719 13.03125 19.636719 C 12.4375 19.636719 12.070312 19.433594 12.070312 19.109375 C 12.070312 18.046875 14.996094 17.683594 23.707031 17.667969 C 32.527344 17.652344 34.746094 17.949219 35.101562 19.207031 C 35.859375 21.894531 36.269531 25.65625 36.273438 30.007812 C 36.277344 35.042969 36.257812 35.164062 35.316406 36.074219 C 34.5 36.859375 33.835938 37.054688 31 37.339844 C 27.152344 37.730469 18.761719 37.722656 14.847656 37.324219 Z M 14.847656 37.324219 "/>
<path style=" stroke:none;fill-rule:nonzero;fill:rgb(100%,100%,100%);fill-opacity:1;" d="M 17.890625 37.332031 C 12.691406 37.015625 11.464844 36.746094 10.757812 35.78125 C 10.039062 34.789062 10.027344 30.632812 10.742188 29.386719 L 11.261719 28.484375 L 11.503906 29.570312 C 11.925781 31.441406 12.378906 32.21875 13.445312 32.890625 C 14.351562 33.460938 15.371094 33.542969 21.640625 33.542969 C 29.863281 33.542969 30.503906 33.359375 31.210938 30.832031 C 31.570312 29.554688 31.746094 29.390625 32.738281 29.390625 C 34.101562 29.390625 34.636719 28.335938 34.722656 25.507812 C 34.753906 24.464844 34.878906 23.613281 35.003906 23.609375 C 35.410156 23.609375 36.089844 28.558594 36.089844 31.519531 C 36.089844 34.785156 35.671875 35.988281 34.328125 36.578125 C 33.554688 36.917969 23.609375 37.796875 22.394531 37.632812 C 22.1875 37.605469 20.160156 37.472656 17.890625 37.332031 Z M 33.777344 19.613281 C 32.671875 18.488281 23.988281 18.261719 14.511719 19.113281 C 12.492188 19.292969 12.328125 19.261719 12.941406 18.789062 C 13.878906 18.058594 20.230469 17.683594 27.507812 17.925781 C 33.308594 18.117188 34.964844 18.457031 34.964844 19.449219 C 34.964844 20.238281 34.464844 20.308594 33.78125 19.613281 Z M 33.777344 19.613281 "/>
<path style=" stroke:none;fill-rule:nonzero;fill:rgb(100%,100%,100%);fill-opacity:1;" d="M 15.105469 36.972656 C 10.972656 36.550781 10.242188 35.964844 10.960938 33.628906 L 11.453125 32.023438 L 12.710938 32.847656 C 14.324219 33.902344 17.425781 34.226562 23.835938 34.011719 C 27.449219 33.890625 29.09375 33.683594 29.972656 33.242188 C 30.632812 32.910156 31.753906 32.640625 32.460938 32.640625 C 33.789062 32.640625 34.046875 32.324219 34.792969 29.792969 C 35.199219 28.421875 35.703125 29.613281 35.710938 31.953125 C 35.71875 34.992188 35.167969 36.160156 33.523438 36.613281 C 31.671875 37.125 19.035156 37.367188 15.105469 36.972656 Z M 15.105469 36.972656 "/>
<path style=" stroke:none;fill-rule:nonzero;fill:rgb(100%,100%,100%);fill-opacity:1;" d="M 14.480469 36.644531 C 13.226562 36.496094 12.003906 36.253906 11.761719 36.109375 C 10.714844 35.484375 11.5 35.316406 14.039062 35.621094 C 15.535156 35.800781 20.6875 35.886719 25.484375 35.808594 C 33.648438 35.675781 35.421875 35.8125 33.367188 36.410156 C 32.109375 36.777344 17.113281 36.964844 14.480469 36.644531 Z M 14.480469 36.644531 "/>
</g>
</svg>
