
<svg xmlns="http://www.w3.org/2000/svg" xmlns:xlink="http://www.w3.org/1999/xlink" width="48px" height="48px" viewBox="0 0 48 48" version="1.1">
<g id="surface1">
<path style=" stroke:none;fill-rule:nonzero;fill:rgb(97.254902%,97.254902%,100%);fill-opacity:1;" d="M 36.355469 42.117188 C 78.863281 2.601562 -8.871094 -22.292969 0.804688 30.164062 C 5.578125 44.007812 22.707031 54.808594 36.355469 42.117188 Z M 36.355469 42.117188 "/>
<path style=" stroke:none;fill-rule:nonzero;fill:rgb(9.803922%,9.803922%,43.921569%);fill-opacity:1;" d="M 18.3125 34.769531 C 14.316406 33.222656 10.980469 31.808594 10.902344 31.632812 C 10.820312 31.453125 10.832031 31.207031 10.921875 31.085938 C 11.011719 30.964844 10.992188 30.65625 10.878906 30.402344 C 10.730469 30.074219 11.847656 27.238281 14.726562 20.636719 L 18.78125 11.332031 L 19.703125 11.492188 C 20.886719 11.695312 24.097656 12.175781 26.355469 12.484375 C 34.992188 13.660156 36.035156 13.902344 35.9375 14.71875 C 35.910156 14.957031 34.136719 19.269531 31.996094 24.304688 C 29.855469 29.34375 28.15625 33.574219 28.214844 33.710938 C 28.277344 33.847656 28.113281 34.210938 27.847656 34.515625 C 27.585938 34.824219 27.175781 35.558594 26.9375 36.148438 C 26.703125 36.738281 26.300781 37.304688 26.046875 37.40625 C 25.746094 37.523438 23.054688 36.605469 18.3125 34.769531 Z M 25.976562 35.425781 C 26.28125 35.015625 26.480469 34.566406 26.417969 34.433594 C 26.355469 34.296875 25.636719 34.015625 24.816406 33.804688 C 24 33.597656 22.355469 33.179688 21.167969 32.875 C 17.988281 32.066406 15.71875 31.476562 13.984375 31 C 12.269531 30.53125 11.929688 30.558594 12.3125 31.132812 C 12.59375 31.558594 24.804688 36.433594 25.1875 36.273438 C 25.316406 36.21875 25.671875 35.839844 25.976562 35.425781 Z M 26.652344 26.0625 C 26.726562 25.828125 26.671875 25.519531 26.527344 25.382812 C 26.203125 25.0625 23.261719 24.59375 22.085938 24.667969 C 20.757812 24.757812 11.917969 24.679688 19.355469 25.703125 C 19.566406 25.730469 22.671875 26.089844 23.066406 25.921875 C 23.175781 25.878906 23.917969 26.019531 24.71875 26.238281 C 26.34375 26.679688 26.460938 26.667969 26.652344 26.0625 Z M 29.320312 23.527344 C 29.382812 23.171875 29.242188 23.007812 28.683594 22.777344 C 27.792969 22.417969 27.695312 22.210938 28.0625 21.460938 C 28.34375 20.878906 28.359375 20.875 28.84375 21.160156 C 29.902344 21.785156 30.070312 21.8125 30.285156 21.414062 C 30.398438 21.207031 30.328125 20.664062 30.125 20.210938 C 29.628906 19.101562 28.433594 18.617188 27.636719 19.199219 C 26.9375 19.707031 25.964844 20.960938 26.074219 21.207031 C 26.214844 21.523438 25.78125 21.582031 25.480469 21.289062 C 25.304688 21.117188 25.359375 20.6875 25.628906 20.125 C 26 19.355469 25.996094 19.140625 25.609375 18.605469 C 25.359375 18.261719 24.914062 17.875 24.621094 17.75 C 23.878906 17.429688 22.671875 17.96875 22.371094 18.746094 C 22.042969 19.601562 21.601562 21.515625 22.054688 22.53125 C 22.386719 23.273438 23.132812 23.878906 23.820312 23.863281 C 24.269531 23.855469 24.636719 24.042969 25.015625 23.429688 C 25.132812 23.242188 25.613281 22.835938 25.632812 22.5 C 25.648438 22.101562 25.664062 21.703125 25.816406 21.554688 C 26.082031 21.296875 25.988281 22.796875 26.21875 23.308594 C 26.640625 24.257812 27.800781 24.753906 28.59375 24.332031 C 28.953125 24.140625 29.277344 23.78125 29.320312 23.527344 Z M 23.660156 22.757812 C 23.175781 22.785156 22.785156 21.753906 23.15625 21.3125 C 23.410156 21.007812 23.800781 21.480469 24.03125 21.703125 C 24.378906 22.039062 24.132812 22.730469 23.660156 22.757812 Z M 23.3125 19.683594 C 23.160156 19.535156 23.347656 19.234375 23.390625 19.136719 C 23.519531 18.832031 24.257812 18.910156 24.40625 19.246094 C 24.59375 19.667969 23.84375 20.417969 23.484375 20.070312 Z M 21.269531 20.492188 C 21.304688 19.097656 20.527344 17.585938 19.679688 17.394531 C 18.355469 17.09375 16.109375 20.285156 16.636719 21.460938 C 16.957031 22.179688 17.175781 21.679688 17.714844 20.910156 C 17.9375 20.59375 18.265625 20.699219 18.3125 20.734375 C 18.359375 20.765625 18.648438 20.257812 19.089844 20.511719 C 19.535156 20.769531 19.8125 21.652344 19.90625 21.871094 C 20.378906 22.929688 21.238281 21.925781 21.269531 20.492188 Z M 19.105469 19.867188 C 18.429688 19.6875 18.527344 19.328125 18.722656 18.855469 C 18.917969 18.382812 18.972656 18.375 19.574219 18.75 C 20.441406 19.292969 20.417969 19.964844 19.433594 19.703125 Z M 19.105469 19.867188 "/>
</g>
</svg>
