
<svg xmlns="http://www.w3.org/2000/svg" xmlns:xlink="http://www.w3.org/1999/xlink" width="48px" height="48px" viewBox="0 0 48 48" version="1.1">
<defs>
<linearGradient id="linear0" gradientUnits="userSpaceOnUse" x1="0" y1="39.03" x2="0" y2="8.908" gradientTransform="matrix(0.915439,0,0,0.970974,1.201875,-0.277875)">
<stop offset="0" style="stop-color:rgb(78.431373%,78.431373%,78.431373%);stop-opacity:1;"/>
<stop offset="1" style="stop-color:rgb(91.764706%,91.764706%,91.764706%);stop-opacity:1;"/>
</linearGradient>
</defs>
<g id="surface1">
<path style=" stroke:none;fill-rule:nonzero;fill:rgb(46.666667%,68.235294%,25.490196%);fill-opacity:1;" d="M 1.167969 29.398438 C 10.417969 74 74.050781 26.117188 35.824219 3.449219 C 20.976562 -6.269531 -3.589844 6.460938 1.167969 29.398438 Z M 1.167969 29.398438 "/>
<path style=" stroke:none;fill-rule:evenodd;fill:rgb(0%,0%,0%);fill-opacity:0.0980392;" d="M 24.085938 9.433594 C 16.503906 9.433594 10.355469 15.953125 10.355469 23.996094 C 10.355469 32.039062 16.503906 38.558594 24.085938 38.558594 C 31.667969 38.558594 37.816406 32.039062 37.816406 23.996094 C 37.816406 15.953125 31.667969 9.433594 24.085938 9.433594 Z M 24.085938 21.917969 C 24.628906 21.917969 25.121094 22.148438 25.476562 22.519531 C 25.828125 22.894531 26.046875 23.417969 26.046875 23.996094 C 26.046875 24.570312 25.828125 25.09375 25.476562 25.46875 C 25.121094 25.84375 24.628906 26.074219 24.085938 26.074219 C 23.542969 26.074219 23.050781 25.84375 22.695312 25.46875 C 22.347656 25.09375 22.128906 24.570312 22.128906 23.996094 C 22.128906 23.417969 22.347656 22.894531 22.695312 22.519531 C 23.050781 22.148438 23.542969 21.917969 24.085938 21.917969 Z M 24.085938 21.917969 "/>
<path style=" stroke:none;fill-rule:evenodd;fill:url(#linear0);" d="M 23.171875 8.460938 C 15.589844 8.460938 9.441406 14.980469 9.441406 23.027344 C 9.441406 31.066406 15.589844 37.585938 23.171875 37.585938 C 30.753906 37.585938 36.898438 31.066406 36.898438 23.027344 C 36.898438 14.980469 30.753906 8.460938 23.171875 8.460938 M 23.171875 20.945312 C 23.710938 20.945312 24.207031 21.179688 24.558594 21.550781 C 24.914062 21.925781 25.132812 22.449219 25.132812 23.027344 C 25.132812 23.597656 24.914062 24.121094 24.558594 24.496094 C 24.207031 24.875 23.710938 25.105469 23.171875 25.105469 C 22.628906 25.105469 22.136719 24.875 21.78125 24.496094 C 21.429688 24.121094 21.210938 23.597656 21.210938 23.027344 C 21.210938 22.449219 21.429688 21.925781 21.78125 21.550781 C 22.136719 21.179688 22.628906 20.945312 23.171875 20.945312 Z M 23.171875 20.945312 "/>
<path style=" stroke:none;fill-rule:nonzero;fill:rgb(100%,100%,100%);fill-opacity:0.498039;" d="M 32.757812 33.394531 C 33.390625 32.734375 33.960938 32 34.460938 31.21875 C 34.964844 30.445312 35.398438 29.601562 35.753906 28.726562 C 36.109375 27.847656 36.375 26.933594 36.5625 25.976562 C 36.742188 25.023438 36.84375 24.035156 36.84375 23.027344 L 27.109375 23.027344 C 27.109375 23.632812 26.960938 24.214844 26.75 24.742188 C 26.542969 25.265625 26.1875 25.738281 25.808594 26.132812 L 32.761719 33.394531 "/>
<path style=" stroke:none;fill-rule:nonzero;fill:rgb(100%,100%,100%);fill-opacity:0.498039;" d="M 13.554688 12.625 C 12.925781 13.289062 12.359375 14.023438 11.859375 14.808594 C 11.359375 15.59375 10.925781 16.433594 10.574219 17.3125 C 10.222656 18.1875 9.953125 19.109375 9.769531 20.0625 C 9.585938 21.019531 9.488281 22.015625 9.488281 23.027344 L 19.25 23.027344 C 19.25 22.414062 19.363281 21.832031 19.578125 21.308594 C 19.789062 20.777344 20.09375 20.304688 20.46875 19.910156 L 13.566406 12.628906 "/>
<path style=" stroke:none;fill-rule:nonzero;fill:rgb(100%,100%,100%);fill-opacity:0.498039;" d="M 10.671875 29.054688 C 11.355469 30.660156 12.3125 32.097656 13.46875 33.324219 L 20.390625 25.980469 C 20.0625 25.625 19.777344 25.203125 19.582031 24.742188 "/>
<path style=" stroke:none;fill-rule:nonzero;fill:rgb(100%,100%,100%);fill-opacity:0.498039;" d="M 32.878906 12.730469 L 25.957031 20.074219 C 26.289062 20.425781 26.570312 20.851562 26.765625 21.308594 L 35.679688 16.992188 C 34.988281 15.394531 34.035156 13.957031 32.878906 12.726562 "/>
<path style=" stroke:none;fill-rule:nonzero;fill:rgb(60%,60%,60%);fill-opacity:0.498039;" d="M 27.101562 23.027344 C 27.101562 23.410156 27.035156 23.777344 26.941406 24.132812 L 36.414062 26.910156 C 36.738281 25.644531 36.90625 24.339844 36.90625 23.027344 Z M 27.101562 23.027344 "/>
<path style=" stroke:none;fill-rule:nonzero;fill:rgb(60%,60%,60%);fill-opacity:0.498039;" d="M 9.929688 19.171875 C 9.605469 20.425781 9.441406 21.722656 9.441406 23.027344 L 19.253906 23.027344 C 19.253906 22.648438 19.320312 22.285156 19.410156 21.933594 L 9.929688 19.171875 "/>
<path style=" stroke:none;fill-rule:nonzero;fill:rgb(100%,55.294118%,100%);fill-opacity:0.498039;" d="M 23.171875 8.460938 L 23.171875 18.863281 C 23.175781 18.863281 23.175781 18.863281 23.179688 18.863281 C 23.535156 18.863281 23.878906 18.933594 24.207031 19.027344 L 26.808594 8.980469 C 25.625 8.636719 24.402344 8.460938 23.171875 8.460938 "/>
<path style=" stroke:none;fill-rule:nonzero;fill:rgb(100%,55.294118%,100%);fill-opacity:0.498039;" d="M 22.140625 27.015625 L 19.535156 37.066406 C 20.71875 37.414062 21.941406 37.585938 23.171875 37.585938 L 23.171875 27.183594 C 22.8125 27.183594 22.46875 27.113281 22.140625 27.015625 Z M 22.140625 27.015625 "/>
<path style=" stroke:none;fill-rule:nonzero;fill:rgb(60%,60%,60%);fill-opacity:0.498039;" d="M 23.179688 18.863281 C 21.015625 18.863281 19.257812 20.726562 19.257812 23.027344 C 19.257812 25.324219 21.015625 27.1875 23.179688 27.1875 C 25.347656 27.1875 27.101562 25.324219 27.101562 23.027344 C 27.101562 20.726562 25.347656 18.863281 23.179688 18.863281 Z M 23.175781 20.949219 C 23.714844 20.949219 24.210938 21.179688 24.5625 21.550781 C 24.917969 21.925781 25.136719 22.449219 25.136719 23.027344 C 25.136719 23.597656 24.917969 24.121094 24.5625 24.5 C 24.210938 24.875 23.714844 25.105469 23.175781 25.105469 C 22.632812 25.105469 22.140625 24.875 21.785156 24.5 C 21.433594 24.121094 21.214844 23.597656 21.214844 23.027344 C 21.214844 22.449219 21.433594 21.925781 21.785156 21.550781 C 22.140625 21.179688 22.632812 20.949219 23.175781 20.949219 Z M 23.175781 20.949219 "/>
<path style=" stroke:none;fill-rule:nonzero;fill:rgb(0%,0%,0%);fill-opacity:0.0980392;" d="M 30.898438 22.0625 C 28.796875 22.007812 27.300781 22.332031 25.457031 23.597656 L 25.457031 30.863281 C 25.3125 30.824219 25.160156 30.796875 25.003906 30.796875 C 23.992188 30.796875 23.171875 31.667969 23.171875 32.738281 C 23.171875 33.8125 23.992188 34.679688 25.003906 34.679688 C 26.015625 34.679688 26.835938 33.8125 26.835938 32.738281 C 26.835938 32.722656 26.832031 32.710938 26.832031 32.695312 L 26.835938 26.402344 C 28.5625 25.089844 29.90625 24.777344 31.867188 25.265625 L 31.867188 29.894531 C 31.722656 29.855469 31.570312 29.828125 31.410156 29.828125 C 30.402344 29.828125 29.582031 30.695312 29.582031 31.769531 C 29.582031 32.84375 30.402344 33.710938 31.410156 33.710938 C 32.40625 33.710938 33.207031 32.871094 33.238281 31.828125 L 33.238281 31.808594 C 33.238281 31.792969 33.242188 31.78125 33.242188 31.769531 C 33.242188 31.757812 33.238281 31.742188 33.238281 31.730469 L 33.238281 22.230469 C 32.367188 22.148438 31.601562 22.085938 30.898438 22.066406 Z M 30.898438 22.0625 "/>
<path style=" stroke:none;fill-rule:nonzero;fill:rgb(27.843137%,33.333333%,84.705882%);fill-opacity:1;" d="M 25.917969 31.765625 C 25.917969 32.835938 25.097656 33.707031 24.085938 33.707031 C 23.078125 33.707031 22.257812 32.835938 22.257812 31.765625 C 22.257812 30.691406 23.078125 29.824219 24.085938 29.824219 C 25.097656 29.824219 25.917969 30.691406 25.917969 31.765625 "/>
<path style=" stroke:none;fill-rule:nonzero;fill:rgb(27.843137%,33.333333%,84.705882%);fill-opacity:1;" d="M 25.917969 25.425781 C 27.644531 24.113281 28.988281 23.804688 30.953125 24.292969 L 30.953125 29.175781 C 30.859375 29.371094 30.46875 30.320312 32.324219 30.851562 L 32.324219 21.253906 C 28.839844 20.917969 27 20.933594 24.542969 22.621094 L 24.542969 30.308594 C 25.167969 29.3125 21.988281 32.660156 25.914062 31.722656 "/>
<path style=" stroke:none;fill-rule:nonzero;fill:rgb(27.843137%,33.333333%,84.705882%);fill-opacity:1;" d="M 32.328125 30.792969 C 32.328125 31.867188 31.507812 32.734375 30.496094 32.734375 C 29.488281 32.734375 28.664062 31.867188 28.664062 30.792969 C 28.664062 29.71875 29.488281 28.851562 30.496094 28.851562 C 31.507812 28.851562 32.328125 29.71875 32.328125 30.792969 "/>
</g>
</svg>
