
<svg xmlns="http://www.w3.org/2000/svg" xmlns:xlink="http://www.w3.org/1999/xlink" width="48px" height="48px" viewBox="0 0 48 48" version="1.1">
<g id="surface1">
<path style=" stroke:none;fill-rule:nonzero;fill:rgb(60.392157%,80.392157%,19.607843%);fill-opacity:1;" d="M 39.816406 39.117188 C 20.3125 64.34375 -14.894531 30.355469 7.59375 8.035156 C 26.953125 -14.335938 64.519531 17.636719 39.816406 39.117188 Z M 39.816406 39.117188 "/>
<path style=" stroke:none;fill-rule:nonzero;fill:rgb(100%,100%,100%);fill-opacity:1;" d="M 22.851562 12.675781 C 16.789062 13.324219 12.066406 18.457031 12.066406 24.695312 C 12.066406 31.367188 17.476562 36.78125 24.152344 36.78125 C 30.828125 36.78125 36.238281 31.367188 36.238281 24.695312 C 36.238281 18.457031 31.515625 13.324219 25.449219 12.675781 L 25.042969 13.691406 L 24.152344 15.070312 L 23.261719 13.691406 Z M 23.632812 15.125 L 24.667969 15.125 L 24.617188 17.082031 C 24.972656 17.105469 25.332031 17.148438 25.671875 17.214844 L 26.128906 15.316406 L 27.121094 15.585938 L 26.570312 17.460938 C 26.914062 17.574219 27.238281 17.714844 27.554688 17.871094 L 28.488281 16.144531 L 29.382812 16.664062 L 28.355469 18.332031 C 28.652344 18.527344 28.933594 18.753906 29.199219 18.988281 L 30.554688 17.5625 L 31.28125 18.296875 L 29.863281 19.644531 C 30.097656 19.910156 30.316406 20.191406 30.511719 20.488281 L 32.179688 19.460938 L 32.699219 20.355469 L 30.972656 21.289062 C 31.128906 21.605469 31.273438 21.933594 31.386719 22.273438 L 33.257812 21.726562 L 33.53125 22.714844 L 31.628906 23.171875 C 31.695312 23.515625 31.738281 23.871094 31.761719 24.226562 L 33.71875 24.175781 L 33.71875 25.210938 L 31.761719 25.160156 C 31.738281 25.515625 31.695312 25.871094 31.628906 26.210938 L 33.53125 26.667969 L 33.257812 27.667969 L 31.386719 27.113281 C 31.273438 27.453125 31.128906 27.78125 30.972656 28.097656 L 32.699219 29.027344 L 32.179688 29.921875 L 30.511719 28.902344 C 30.316406 29.199219 30.097656 29.476562 29.863281 29.742188 L 31.28125 31.097656 L 30.554688 31.820312 L 29.199219 30.402344 C 28.933594 30.640625 28.652344 30.855469 28.355469 31.054688 L 29.382812 32.722656 L 28.488281 33.238281 L 27.554688 31.511719 C 27.238281 31.671875 26.914062 31.816406 26.570312 31.929688 L 27.121094 33.804688 L 26.128906 34.070312 L 25.671875 32.175781 C 25.332031 32.242188 24.972656 32.28125 24.617188 32.300781 L 24.667969 34.257812 L 23.632812 34.257812 L 23.683594 32.300781 C 23.328125 32.28125 22.972656 32.242188 22.632812 32.175781 L 22.175781 34.070312 L 21.183594 33.804688 L 21.730469 31.929688 C 21.390625 31.816406 21.0625 31.671875 20.746094 31.511719 L 19.816406 33.238281 L 18.921875 32.722656 L 19.945312 31.054688 C 19.648438 30.855469 19.367188 30.640625 19.101562 30.402344 L 17.75 31.820312 L 17.023438 31.097656 L 18.441406 29.742188 C 18.203125 29.476562 17.988281 29.199219 17.789062 28.902344 L 16.121094 29.921875 L 15.605469 29.027344 L 17.332031 28.097656 C 17.171875 27.78125 17.027344 27.453125 16.914062 27.113281 L 15.046875 27.667969 L 14.773438 26.667969 L 16.675781 26.210938 C 16.605469 25.871094 16.5625 25.515625 16.542969 25.160156 L 14.585938 25.210938 L 14.585938 24.175781 L 16.542969 24.226562 C 16.5625 23.871094 16.605469 23.515625 16.675781 23.171875 L 14.773438 22.714844 L 15.046875 21.726562 L 16.914062 22.273438 C 17.027344 21.933594 17.171875 21.605469 17.332031 21.289062 L 15.605469 20.355469 L 16.121094 19.460938 L 17.789062 20.488281 C 17.988281 20.191406 18.203125 19.910156 18.441406 19.644531 L 17.023438 18.296875 L 17.75 17.5625 L 19.101562 18.988281 C 19.367188 18.753906 19.648438 18.527344 19.945312 18.332031 L 18.921875 16.664062 L 19.816406 16.144531 L 20.746094 17.871094 C 21.0625 17.714844 21.390625 17.574219 21.730469 17.460938 L 21.183594 15.585938 L 22.175781 15.316406 L 22.632812 17.214844 C 22.972656 17.148438 23.328125 17.105469 23.683594 17.082031 Z M 23.632812 15.125 "/>
<path style=" stroke:none;fill-rule:nonzero;fill:rgb(100%,100%,94.117647%);fill-opacity:1;" d="M 24.152344 18.554688 C 20.757812 18.554688 18.011719 21.300781 18.011719 24.695312 C 18.011719 28.085938 20.761719 30.832031 24.152344 30.832031 C 27.542969 30.832031 30.289062 28.085938 30.289062 24.695312 C 30.289062 21.320312 27.570312 18.582031 24.203125 18.554688 L 24.71875 19.359375 L 24.71875 22.15625 L 23.644531 22.15625 L 23.644531 19.359375 L 24.160156 18.554688 C 24.15625 18.554688 24.152344 18.554688 24.152344 18.554688 Z M 24.152344 18.554688 "/>
</g>
</svg>
