
<svg xmlns="http://www.w3.org/2000/svg" xmlns:xlink="http://www.w3.org/1999/xlink" width="48px" height="48px" viewBox="0 0 48 48" version="1.1">
<g id="surface1">
<path style=" stroke:none;fill-rule:nonzero;fill:rgb(18.431373%,30.980392%,30.980392%);fill-opacity:1;" d="M 3.960938 38.109375 C 13.140625 54.707031 41.898438 48.265625 46.765625 34.597656 C 52.5625 18.320312 37.472656 -12.59375 11.910156 5.515625 C 3.300781 11.839844 -5.21875 21.511719 3.960938 38.109375 Z M 3.960938 38.109375 "/>
<path style=" stroke:none;fill-rule:nonzero;fill:rgb(100%,100%,100%);fill-opacity:1;" d="M 9.96875 33.214844 L 9.96875 28.425781 L 11.40625 28.425781 C 12.703125 28.425781 12.679688 28.671875 12.511719 28.339844 C 12.410156 28.132812 12.472656 24.375 12.472656 20.335938 C 12.472656 13.628906 12.285156 11.679688 12.632812 11.339844 C 13.128906 10.855469 14.730469 10.9375 15.257812 11.457031 C 15.628906 11.816406 15.667969 15.839844 15.554688 17.039062 C 15.410156 18.570312 14.683594 16.507812 15.507812 16.507812 C 16.195312 16.507812 13.101562 19.300781 13.835938 18.617188 C 14.230469 18.152344 14.710938 17.953125 14.707031 17.347656 C 14.769531 16.632812 19.5 11.425781 20.144531 11.363281 C 20.570312 11.324219 20.066406 12.058594 20.203125 11.8125 C 20.558594 11.160156 21.371094 11.300781 22.015625 12.128906 C 22.332031 12.53125 22.585938 12.9375 22.585938 13.03125 C 22.585938 13.125 22.238281 14.113281 20.835938 15.492188 L 17.84375 18.421875 L 19.234375 18.210938 C 20.886719 17.957031 21.019531 18.242188 21.796875 18.917969 L 22.09375 19.550781 L 22.175781 23.722656 C 22.222656 25.941406 22.394531 27.851562 22.292969 28.054688 C 22.121094 28.394531 22.269531 28.425781 23.976562 28.425781 C 25.007812 28.425781 25.851562 28.347656 25.851562 28.253906 C 25.851562 28.160156 25.554688 27.804688 25.199219 27.46875 L 24.542969 26.859375 L 24.542969 12.726562 L 26.285156 11.1875 L 30.144531 11.1875 C 32.269531 11.191406 34.125 11.265625 34.265625 11.351562 C 34.410156 11.441406 34.777344 11.875 35.082031 12.316406 C 35.5625 13.011719 35.640625 13.347656 35.640625 14.796875 C 35.640625 16.039062 35.550781 16.5625 35.296875 16.8125 C 34.765625 17.332031 33.394531 17.230469 32.445312 16.601562 C 31.480469 15.960938 31.296875 15.714844 31.292969 15.070312 C 31.289062 14.632812 31.1875 14.589844 30.09375 14.589844 L 28.894531 14.589844 L 28.894531 24.808594 L 30.746094 24.84375 C 31.761719 24.863281 32.765625 24.886719 32.972656 24.894531 C 33.292969 24.910156 33.34375 24.757812 33.285156 23.996094 C 33.246094 23.492188 33.332031 22.941406 33.472656 22.773438 C 33.792969 22.394531 35.070312 22.367188 35.375 22.730469 C 35.632812 23.042969 35.601562 27.496094 35.335938 28.054688 C 35.175781 28.386719 35.296875 28.425781 36.488281 28.425781 L 37.816406 28.425781 L 37.816406 38.003906 L 9.96875 38.003906 Z M 18.679688 28.410156 C 18.726562 21.648438 18.859375 26.285156 18.675781 24.59375 L 18.78125 21.578125 L 17.527344 21.441406 L 15.984375 21.660156 L 15.984375 24.425781 L 15.910156 28.253906 L 15.953125 28.488281 C 16.042969 29.027344 15.191406 28.15625 15.191406 28.25 C 15.191406 28.347656 16.03125 28.425781 17.0625 28.425781 C 18.769531 28.425781 18.679688 28.785156 18.679688 28.410156 Z M 13.152344 20.78125 C 13.152344 17.417969 14.015625 17.558594 16.25 17.558594 C 17.285156 17.558594 20.664062 18.710938 20.441406 19.539062 L 21.492188 22.371094 C 21.003906 22.902344 21.625 24.742188 21.625 24.742188 C 22.671875 22.464844 21.351562 25.476562 21.757812 25.476562 C 22.171875 25.476562 20.957031 26.457031 21.015625 23.476562 C 21.050781 21.546875 19.746094 21.023438 19.605469 20.765625 C 19.410156 20.410156 20.386719 19.488281 19.179688 19.488281 C 17.648438 19.488281 16.5 19.011719 16.046875 18.1875 C 15.867188 17.859375 15.742188 17.824219 15.390625 18.007812 C 15.152344 18.132812 14.75 18.171875 14.5 18.09375 C 14.21875 18.007812 13.976562 18.0625 13.859375 18.242188 C 13.546875 18.726562 14.566406 18.832031 13.9375 26.570312 C 13.882812 27.242188 13.152344 23.117188 13.152344 20.785156 Z M 27.65625 26.585938 C 27.734375 26.511719 27.601562 26.210938 27.367188 25.917969 C 26.964844 25.421875 26.9375 25.035156 26.9375 20.042969 C 26.941406 15.140625 26.976562 14.640625 27.359375 14.023438 C 27.589844 13.65625 27.71875 13.296875 27.648438 13.226562 C 27.382812 12.964844 28.601562 13.757812 28.179688 14.167969 C 27.765625 14.574219 27.164062 14.09375 27.164062 19.71875 C 27.164062 24.726562 27.359375 25.707031 27.648438 26.105469 C 27.964844 26.550781 27.351562 26.886719 27.65625 26.585938 Z M 34.117188 26.296875 C 34.117188 26.179688 34.027344 26.082031 33.914062 26.082031 C 33.800781 26.082031 33.648438 26.179688 33.574219 26.296875 C 33.5 26.414062 33.59375 26.507812 33.777344 26.507812 C 33.964844 26.507812 34.117188 26.414062 34.117188 26.296875 Z M 34.292969 14.625 C 34.375 13.539062 34.070312 13.101562 33.234375 13.101562 C 32.402344 13.101562 33.9375 12.992188 34.472656 13.660156 C 34.722656 13.96875 34.4375 13.953125 34.632812 14.011719 C 36.015625 14.410156 34.34375 14.617188 34.761719 14.539062 C 34.992188 14.496094 34.246094 15.25 34.292969 14.625 Z M 34.292969 14.625 "/>
<path style=" stroke:none;fill-rule:nonzero;fill:rgb(89.019608%,80.784314%,16.470588%);fill-opacity:1;" d="M 9.96875 33.65625 L 9.96875 29.082031 L 37.816406 29.082031 L 37.816406 38.234375 L 9.96875 38.234375 Z M 15.457031 24.523438 C 15.535156 21.28125 15.953125 21.207031 15.953125 24.433594 C 15.953125 26.179688 15.878906 26.835938 15.675781 26.902344 C 15.457031 26.972656 15.410156 26.457031 15.457031 24.523438 Z M 28.734375 26.175781 C 27.980469 25.867188 28.671875 25.675781 30.546875 25.675781 C 32.117188 25.675781 32.609375 25.742188 32.542969 25.941406 C 32.449219 26.210938 29.296875 26.40625 28.734375 26.175781 Z M 27.6875 25.191406 C 27.480469 24.660156 27.695312 15.246094 27.917969 15.191406 C 28.058594 15.160156 28.15625 16.996094 28.195312 20.300781 C 28.234375 23.796875 28.179688 25.460938 28.023438 25.460938 C 27.898438 25.460938 27.746094 25.339844 27.691406 25.191406 Z M 32.050781 15.671875 C 31.875 15.390625 32.132812 14.992188 32.394531 15.148438 C 32.65625 15.308594 32.65625 15.886719 32.390625 15.886719 C 32.277344 15.886719 32.125 15.789062 32.050781 15.671875 Z M 20.847656 12.464844 C 20.847656 12.34375 20.945312 12.300781 21.066406 12.371094 C 21.183594 12.445312 21.28125 12.546875 21.28125 12.597656 C 21.28125 12.648438 21.183594 12.691406 21.066406 12.691406 C 20.945312 12.691406 20.847656 12.589844 20.847656 12.464844 Z M 26.289062 12.367188 C 26.519531 12.097656 27.167969 12.054688 30.269531 12.101562 C 32.996094 12.144531 34 12.230469 34.0625 12.425781 C 34.132812 12.632812 33.242188 12.691406 30.085938 12.691406 C 26.464844 12.691406 26.046875 12.65625 26.289062 12.367188 Z M 26.289062 12.367188 "/>
<path style=" stroke:none;fill-rule:nonzero;fill:rgb(77.647059%,42.745098%,20.392157%);fill-opacity:1;" d="M 9.96875 37.941406 C 9.96875 37.539062 14.15625 37.40625 24.65625 37.472656 C 37.992188 37.554688 37.816406 37.550781 37.816406 37.914062 C 37.816406 38.195312 36.125 38.234375 23.894531 38.234375 C 12.238281 38.234375 9.96875 38.1875 9.96875 37.941406 Z M 13.25 36.394531 C 12.691406 35.707031 12.691406 35.507812 13.222656 33.433594 C 13.539062 32.195312 13.816406 31.601562 14.3125 31.117188 C 14.941406 30.503906 15.082031 30.464844 16.628906 30.464844 C 18.097656 30.464844 18.320312 30.519531 18.691406 30.96875 C 19.519531 31.96875 19.039062 33.882812 17.796875 34.511719 C 17.070312 34.878906 17 35.082031 17.476562 35.464844 C 17.65625 35.613281 17.800781 35.890625 17.800781 36.089844 C 17.800781 36.773438 17.320312 36.957031 15.488281 36.957031 C 13.816406 36.957031 13.671875 36.921875 13.25 36.394531 Z M 17.003906 33.460938 C 18.730469 31.300781 16.441406 31.5 16.316406 31.699219 C 15.367188 31.390625 14.878906 33.484375 16.15625 33.695312 C 16.339844 33.726562 16.457031 34.144531 17.003906 33.460938 Z M 28.914062 36.394531 C 28.371094 35.722656 28.363281 35.5625 28.804688 33.65625 C 28.992188 32.839844 29.1875 31.953125 29.242188 31.695312 C 29.378906 31 30.15625 30.648438 30.597656 31.082031 C 30.914062 31.390625 30.914062 31.535156 30.574219 32.785156 C 30.367188 33.539062 30.199219 34.300781 30.199219 34.484375 C 30.199219 34.964844 30.933594 35.269531 31.714844 35.117188 C 32.519531 34.960938 32.871094 34.386719 33.238281 32.644531 C 33.5 31.402344 33.902344 30.785156 34.453125 30.785156 C 34.964844 30.785156 35.046875 31.726562 34.683594 33.429688 C 34.046875 36.453125 33.523438 36.957031 31.039062 36.957031 C 29.488281 36.957031 29.328125 36.914062 28.910156 36.394531 Z M 19.746094 36.40625 C 19.511719 36.132812 19.507812 35.894531 19.742188 35.078125 C 19.898438 34.53125 20.148438 33.464844 20.300781 32.710938 C 20.71875 30.621094 21.136719 30.359375 24.03125 30.359375 C 26.269531 30.359375 26.332031 30.371094 26.957031 30.980469 C 27.707031 31.714844 27.730469 32.105469 27.179688 34.335938 C 26.613281 36.605469 26.527344 36.777344 25.988281 36.703125 C 25.59375 36.648438 25.527344 36.5 25.535156 35.679688 C 25.539062 35.152344 25.625 34.269531 25.722656 33.710938 C 25.886719 32.785156 25.863281 32.699219 25.46875 32.699219 C 24.828125 32.699219 24.605469 33.082031 24.300781 34.699219 C 24.027344 36.148438 23.6875 36.746094 23.140625 36.746094 C 22.464844 36.746094 22.367188 36.207031 22.742188 34.527344 C 23.058594 33.101562 23.0625 32.855469 22.792969 32.691406 C 22.292969 32.390625 21.804688 33.089844 21.527344 34.496094 C 21.140625 36.464844 20.4375 37.222656 19.746094 36.410156 Z M 9.96875 29.613281 L 9.96875 29.082031 L 37.816406 29.082031 L 37.816406 30.144531 L 9.96875 30.144531 Z M 15.457031 24.523438 C 15.535156 21.28125 15.953125 21.207031 15.953125 24.433594 C 15.953125 26.179688 15.878906 26.835938 15.671875 26.902344 C 15.457031 26.972656 15.40625 26.457031 15.457031 24.523438 Z M 28.734375 26.175781 C 27.976562 25.867188 28.671875 25.675781 30.546875 25.675781 C 32.117188 25.675781 32.609375 25.742188 32.539062 25.941406 C 32.449219 26.210938 29.296875 26.40625 28.734375 26.175781 Z M 27.6875 25.191406 C 27.480469 24.660156 27.695312 15.246094 27.917969 15.191406 C 28.054688 15.160156 28.15625 16.996094 28.191406 20.300781 C 28.230469 23.796875 28.175781 25.460938 28.023438 25.460938 C 27.898438 25.460938 27.746094 25.339844 27.6875 25.191406 Z M 32.050781 15.671875 C 31.871094 15.390625 32.132812 14.992188 32.390625 15.148438 C 32.65625 15.308594 32.652344 15.886719 32.390625 15.886719 C 32.277344 15.886719 32.125 15.789062 32.050781 15.671875 Z M 20.847656 12.46875 C 20.847656 12.34375 20.945312 12.300781 21.0625 12.375 C 21.183594 12.445312 21.28125 12.546875 21.28125 12.597656 C 21.28125 12.648438 21.183594 12.691406 21.0625 12.691406 C 20.945312 12.691406 20.847656 12.589844 20.847656 12.46875 Z M 26.289062 12.367188 C 26.519531 12.097656 27.164062 12.054688 30.269531 12.101562 C 32.996094 12.144531 33.996094 12.230469 34.0625 12.425781 C 34.132812 12.632812 33.242188 12.691406 30.082031 12.691406 C 26.464844 12.691406 26.042969 12.65625 26.289062 12.367188 Z M 26.289062 12.367188 "/>
<path style=" stroke:none;fill-rule:nonzero;fill:rgb(18.431373%,30.980392%,30.980392%);fill-opacity:1;" d="M 13.269531 36.214844 C 12.714844 35.527344 12.710938 35.328125 13.238281 33.261719 C 13.527344 32.132812 13.847656 31.421875 14.257812 31 C 14.820312 30.425781 14.957031 30.390625 16.652344 30.390625 C 18.261719 30.390625 18.484375 30.441406 18.785156 30.863281 C 19.519531 31.890625 19.007812 33.726562 17.816406 34.332031 C 17.085938 34.699219 17.019531 34.902344 17.492188 35.285156 C 17.671875 35.433594 17.820312 35.710938 17.820312 35.90625 C 17.820312 36.59375 17.335938 36.777344 15.507812 36.777344 C 13.832031 36.777344 13.6875 36.738281 13.265625 36.214844 Z M 17.171875 32.140625 C 17.3125 31.761719 15.296875 32.53125 15.972656 32.160156 C 15.898438 32.277344 14.898438 33.621094 16.101562 33.65625 C 16.710938 33.675781 16.851562 32.996094 17.171875 32.136719 Z M 28.933594 36.214844 C 28.390625 35.542969 28.382812 35.382812 28.824219 33.476562 C 29.011719 32.65625 29.210938 31.773438 29.261719 31.515625 C 29.402344 30.816406 30.175781 30.46875 30.617188 30.902344 C 30.933594 31.210938 30.933594 31.355469 30.59375 32.605469 C 30.386719 33.359375 30.222656 34.121094 30.222656 34.300781 C 30.222656 34.78125 30.953125 35.089844 31.734375 34.9375 C 32.539062 34.777344 32.890625 34.207031 33.257812 32.464844 C 33.519531 31.222656 33.921875 30.601562 34.476562 30.601562 C 34.984375 30.601562 35.066406 31.542969 34.703125 33.25 C 34.066406 36.273438 33.542969 36.777344 31.058594 36.777344 C 29.507812 36.777344 29.347656 36.734375 28.929688 36.214844 Z M 19.765625 36.226562 C 19.53125 35.949219 19.53125 35.714844 19.761719 34.898438 C 19.917969 34.351562 20.167969 33.304688 20.3125 32.574219 C 20.734375 30.476562 20.882812 30.390625 24.039062 30.390625 C 26.664062 30.390625 26.714844 30.398438 27.160156 30.953125 C 27.714844 31.644531 27.71875 32.050781 27.195312 34.15625 C 26.632812 36.425781 26.546875 36.597656 26.003906 36.523438 C 25.609375 36.464844 25.542969 36.316406 25.554688 35.5 C 25.558594 34.972656 25.644531 34.085938 25.742188 33.53125 C 25.902344 32.605469 25.882812 32.519531 25.484375 32.519531 C 24.84375 32.519531 24.625 32.902344 24.316406 34.519531 C 24.046875 35.964844 23.707031 36.5625 23.160156 36.5625 C 22.484375 36.5625 22.386719 36.027344 22.757812 34.347656 C 23.074219 32.921875 23.082031 32.675781 22.8125 32.511719 C 22.3125 32.210938 21.820312 32.910156 21.546875 34.3125 C 21.160156 36.285156 20.453125 37.042969 19.765625 36.226562 Z M 15.476562 24.34375 C 15.554688 21.101562 15.972656 21.027344 15.972656 24.253906 C 15.972656 26 15.898438 26.65625 15.691406 26.722656 C 15.476562 26.792969 15.425781 26.277344 15.476562 24.34375 Z M 28.753906 25.996094 C 27.996094 25.6875 28.691406 25.496094 30.566406 25.496094 C 32.136719 25.496094 32.628906 25.5625 32.558594 25.761719 C 32.46875 26.03125 29.316406 26.226562 28.753906 25.996094 Z M 27.707031 25.011719 C 27.5 24.480469 27.714844 15.066406 27.9375 15.011719 C 28.074219 14.980469 28.175781 16.816406 28.210938 20.121094 C 28.25 23.617188 28.195312 25.28125 28.042969 25.28125 C 27.917969 25.28125 27.765625 25.160156 27.707031 25.011719 Z M 32.070312 15.492188 C 31.890625 15.210938 32.152344 14.8125 32.410156 14.96875 C 32.675781 15.128906 32.671875 15.703125 32.410156 15.703125 C 32.296875 15.703125 32.144531 15.609375 32.070312 15.492188 Z M 20.867188 12.285156 C 20.867188 12.164062 20.964844 12.121094 21.082031 12.191406 C 21.203125 12.265625 21.300781 12.367188 21.300781 12.417969 C 21.300781 12.46875 21.203125 12.511719 21.082031 12.511719 C 20.964844 12.511719 20.867188 12.410156 20.867188 12.285156 Z M 26.308594 12.1875 C 26.539062 11.917969 27.183594 11.875 30.289062 11.921875 C 33.015625 11.964844 34.015625 12.050781 34.082031 12.246094 C 34.152344 12.453125 33.261719 12.511719 30.101562 12.511719 C 26.484375 12.511719 26.0625 12.476562 26.308594 12.1875 Z M 26.308594 12.1875 "/>
</g>
</svg>
