
<svg xmlns="http://www.w3.org/2000/svg" xmlns:xlink="http://www.w3.org/1999/xlink" width="48px" height="48px" viewBox="0 0 48 48" version="1.1">
<g id="surface1">
<path style=" stroke:none;fill-rule:nonzero;fill:rgb(100%,54.901961%,0%);fill-opacity:1;" d="M 41.171875 8.742188 C -8.5625 -28.777344 -15.632812 74.476562 35.136719 41.339844 C 46.710938 33.785156 54.34375 18.679688 41.171875 8.742188 Z M 41.171875 8.742188 "/>
<path style=" stroke:none;fill-rule:nonzero;fill:rgb(95.686275%,64.313725%,37.647059%);fill-opacity:1;" d="M 20.394531 38.925781 C 17.546875 38.367188 15.421875 37.265625 13.101562 35.132812 C 11.777344 33.921875 10.265625 31.839844 9.621094 30.347656 C 8.84375 28.539062 8.691406 27.636719 8.691406 24.820312 C 8.6875 22.535156 8.730469 22.058594 9.027344 21.058594 C 10.441406 16.257812 14.472656 12.386719 19.421875 11.082031 C 21.128906 10.632812 24.207031 10.523438 25.914062 10.855469 C 29.046875 11.464844 31.050781 12.492188 33.425781 14.714844 C 34.910156 16.101562 35.769531 17.207031 36.558594 18.738281 C 37.5 20.578125 37.726562 21.601562 37.808594 24.449219 C 37.902344 27.703125 37.589844 29.183594 36.328125 31.433594 C 35.574219 32.78125 35.089844 33.410156 33.832031 34.683594 C 31.507812 37.039062 29.09375 38.332031 25.914062 38.933594 C 24.550781 39.1875 21.71875 39.1875 20.394531 38.925781 Z M 25.808594 35.003906 C 29.355469 34.269531 32.546875 31.242188 33.625 27.585938 C 34.023438 26.234375 33.972656 23.25 33.53125 21.914062 C 32.421875 18.546875 29.710938 15.9375 26.261719 14.90625 C 25.574219 14.703125 24.898438 14.648438 23.078125 14.660156 C 20.878906 14.667969 20.707031 14.691406 19.550781 15.113281 C 17.941406 15.699219 16.832031 16.457031 15.355469 17.976562 C 13.34375 20.046875 12.582031 22.042969 12.59375 25.183594 C 12.605469 27.488281 13.351562 29.5 14.867188 31.328125 C 16.503906 33.300781 18.636719 34.65625 20.765625 35.070312 C 21.773438 35.265625 24.722656 35.226562 25.808594 35.003906 Z M 17.78125 31.769531 C 16.78125 31.515625 16.144531 30.539062 16.3125 29.511719 C 16.402344 28.960938 16.636719 28.671875 18.402344 26.917969 C 19.496094 25.832031 20.394531 24.886719 20.394531 24.816406 C 20.394531 24.746094 19.492188 23.800781 18.390625 22.71875 C 17.152344 21.5 16.347656 20.59375 16.28125 20.335938 C 16.128906 19.742188 16.449219 18.867188 16.976562 18.433594 C 17.328125 18.144531 17.597656 18.058594 18.152344 18.058594 C 19.078125 18.058594 19.5 18.382812 22.816406 21.652344 C 25.257812 24.058594 25.316406 24.128906 25.316406 24.730469 C 25.316406 25.066406 25.21875 25.519531 25.105469 25.738281 C 24.824219 26.261719 19.148438 31.726562 18.886719 31.730469 C 18.769531 31.730469 18.542969 31.757812 18.378906 31.789062 C 18.214844 31.820312 17.945312 31.8125 17.78125 31.769531 Z M 27.476562 31.601562 C 26.820312 31.203125 24.605469 28.929688 24.425781 28.46875 C 23.847656 26.984375 25.148438 25.621094 26.746094 26.039062 C 27.207031 26.160156 27.6875 26.539062 28.863281 27.707031 L 30.386719 29.214844 L 30.386719 29.980469 C 30.386719 30.675781 30.335938 30.796875 29.808594 31.308594 C 29.3125 31.792969 29.136719 31.875 28.578125 31.871094 C 28.203125 31.871094 27.738281 31.757812 27.476562 31.601562 Z M 25.53125 23.746094 C 24.847656 23.445312 24.488281 22.988281 24.34375 22.242188 C 24.203125 21.507812 24.46875 21.109375 26.195312 19.460938 L 27.699219 18.023438 L 28.550781 18.09375 C 29.316406 18.15625 29.453125 18.21875 29.910156 18.730469 C 30.375 19.25 30.410156 19.355469 30.351562 20.070312 C 30.289062 20.820312 30.246094 20.878906 28.957031 22.152344 C 27.148438 23.933594 26.574219 24.199219 25.53125 23.746094 Z M 25.53125 23.746094 "/>
<path style=" stroke:none;fill-rule:nonzero;fill:rgb(100%,100%,100%);fill-opacity:1;" d="M 20.976562 38.324219 C 17.242188 37.890625 14.097656 36.320312 11.613281 33.640625 C 9.128906 30.964844 7.96875 27.988281 7.964844 24.253906 C 7.953125 19.589844 10.429688 15.191406 14.523438 12.582031 C 16.027344 11.625 17.121094 11.15625 18.933594 10.6875 C 20.847656 10.195312 24.003906 10.195312 25.9375 10.6875 C 27.53125 11.09375 29.726562 12.101562 30.929688 12.980469 C 32.101562 13.839844 34.179688 16.003906 34.789062 17 C 36.257812 19.40625 36.75 21.304688 36.75 24.554688 C 36.75 26.453125 36.699219 26.964844 36.394531 28.050781 C 35.363281 31.695312 32.859375 34.78125 29.421875 36.640625 C 27.003906 37.953125 23.609375 38.628906 20.976562 38.324219 Z M 25.003906 34.703125 C 28.945312 33.734375 32.109375 30.679688 33.023438 26.957031 C 34.078125 22.675781 32.539062 18.507812 28.921875 15.835938 C 27.144531 14.523438 25.464844 13.949219 23.023438 13.808594 C 19.582031 13.617188 16.746094 14.726562 14.402344 17.1875 C 13.214844 18.429688 12.554688 19.464844 12.019531 20.910156 C 11.683594 21.828125 11.621094 22.265625 11.570312 24.015625 C 11.527344 25.578125 11.570312 26.273438 11.761719 26.996094 C 12.507812 29.851562 14.917969 32.664062 17.742188 33.976562 C 19.933594 34.996094 22.683594 35.273438 25.003906 34.703125 Z M 16.667969 30.855469 C 16 30.570312 15.71875 30.101562 15.71875 29.261719 L 15.71875 28.542969 L 17.804688 26.488281 C 18.957031 25.359375 19.894531 24.382812 19.894531 24.3125 C 19.894531 24.246094 18.957031 23.261719 17.804688 22.121094 C 15.804688 20.144531 15.71875 20.03125 15.71875 19.460938 C 15.71875 19.132812 15.789062 18.710938 15.878906 18.519531 C 16.226562 17.78125 17.394531 17.46875 18.222656 17.894531 C 18.445312 18.007812 19.886719 19.335938 21.425781 20.847656 L 24.222656 23.59375 L 24.222656 24.25 C 24.222656 25.097656 24.136719 25.199219 20.769531 28.414062 C 17.78125 31.265625 17.722656 31.300781 16.667969 30.855469 Z M 25.390625 29.644531 C 24.003906 28.328125 23.886719 28.171875 23.816406 27.558594 C 23.710938 26.632812 24.046875 26.039062 24.804688 25.816406 C 25.867188 25.507812 26.269531 25.699219 27.851562 27.265625 C 29.289062 28.695312 29.292969 28.699219 29.292969 29.429688 C 29.292969 30.039062 29.21875 30.238281 28.859375 30.613281 C 28.484375 31.007812 28.328125 31.066406 27.65625 31.066406 L 26.886719 31.066406 Z M 24.738281 22.941406 C 23.832031 22.539062 23.503906 21.527344 23.988281 20.613281 C 24.289062 20.046875 26.699219 17.851562 27.140625 17.746094 C 28.273438 17.46875 29.292969 18.246094 29.292969 19.390625 C 29.292969 20.03125 29.246094 20.101562 27.914062 21.433594 C 26.722656 22.625 25.894531 23.222656 25.457031 23.210938 C 25.390625 23.207031 25.070312 23.085938 24.738281 22.941406 Z M 24.738281 22.941406 "/>
</g>
</svg>
