
<svg xmlns="http://www.w3.org/2000/svg" xmlns:xlink="http://www.w3.org/1999/xlink" width="48px" height="48px" viewBox="0 0 48 48" version="1.1">
<g id="surface1">
<path style=" stroke:none;fill-rule:nonzero;fill:rgb(100%,64.705882%,0%);fill-opacity:1;" d="M 39.308594 42.769531 C 10.519531 65.015625 -19.367188 9.621094 16.273438 1.519531 C 38.722656 -6.78125 60.644531 26.289062 39.308594 42.769531 Z M 39.308594 42.769531 "/>
<path style=" stroke:none;fill-rule:nonzero;fill:rgb(100%,89.411765%,70.980392%);fill-opacity:1;" d="M 20.648438 34.589844 C 20.121094 34.339844 19.757812 33.621094 19.757812 32.816406 C 19.757812 32.296875 19.636719 32.164062 18.851562 31.828125 L 17.945312 31.4375 L 17.035156 32.0625 C 15.832031 32.886719 15.359375 32.761719 13.71875 31.164062 C 12.082031 29.570312 11.949219 29.109375 12.792969 27.945312 C 13.480469 27 13.554688 26.671875 13.222656 26.070312 C 13.074219 25.800781 12.792969 25.683594 12.289062 25.683594 C 11.761719 25.683594 11.402344 25.527344 10.96875 25.105469 C 10.394531 24.546875 10.371094 24.449219 10.371094 22.707031 C 10.371094 20.960938 10.394531 20.863281 10.96875 20.308594 C 11.402344 19.882812 11.761719 19.726562 12.289062 19.726562 C 13.46875 19.726562 13.789062 18.734375 12.957031 17.660156 C 11.945312 16.347656 12.0625 15.886719 13.851562 14.171875 C 15.320312 12.765625 16.042969 12.617188 17.210938 13.484375 L 17.898438 13.996094 L 18.800781 13.609375 C 19.621094 13.253906 19.710938 13.144531 19.816406 12.375 C 20.015625 10.933594 20.449219 10.691406 22.820312 10.691406 C 25.191406 10.691406 25.628906 10.933594 25.824219 12.375 C 25.933594 13.144531 26.023438 13.253906 26.84375 13.609375 L 27.742188 13.996094 L 28.476562 13.453125 C 28.878906 13.152344 29.460938 12.90625 29.769531 12.90625 C 30.867188 12.90625 33.296875 15.285156 33.296875 16.359375 C 33.296875 16.667969 33.050781 17.234375 32.753906 17.617188 C 32.164062 18.367188 32.089844 18.746094 32.417969 19.34375 C 32.566406 19.613281 32.847656 19.726562 33.355469 19.726562 C 33.878906 19.726562 34.238281 19.882812 34.671875 20.308594 C 35.246094 20.863281 35.269531 20.960938 35.269531 22.707031 C 35.269531 24.449219 35.246094 24.546875 34.671875 25.105469 C 34.273438 25.496094 33.871094 25.683594 33.449219 25.683594 C 33.101562 25.683594 32.820312 25.753906 32.820312 25.839844 C 32.820312 25.925781 33.28125 26.4375 33.839844 26.976562 C 34.402344 27.515625 34.859375 28.09375 34.859375 28.265625 C 34.859375 28.777344 28.683594 34.421875 28.121094 34.421875 C 27.777344 34.421875 27.515625 33.660156 27.515625 32.648438 C 27.515625 31.558594 27.40625 31.484375 26.484375 31.945312 C 26.023438 32.175781 25.882812 32.386719 25.882812 32.832031 C 25.882812 33.652344 25.511719 34.34375 24.929688 34.601562 C 24.3125 34.875 21.238281 34.867188 20.648438 34.589844 Z M 24.234375 25.140625 C 25.226562 24.644531 25.710938 23.914062 25.726562 22.882812 C 25.753906 21.140625 24.558594 19.925781 22.820312 19.925781 C 20.894531 19.925781 19.804688 21.210938 19.933594 23.335938 C 19.96875 23.9375 20.839844 25.042969 21.476562 25.292969 C 22.195312 25.578125 23.5 25.503906 24.234375 25.140625 Z M 21.851562 11.652344 C 21.710938 11.597656 21.480469 11.597656 21.339844 11.652344 C 21.199219 11.707031 21.316406 11.75 21.597656 11.75 C 21.875 11.75 21.992188 11.707031 21.851562 11.652344 Z M 21.851562 11.652344 "/>
<path style="fill-rule:evenodd;fill:rgb(100%,54.901961%,0%);fill-opacity:1;stroke-width:1.805734;stroke-linecap:butt;stroke-linejoin:miter;stroke:rgb(100%,87.058824%,67.843137%);stroke-opacity:1;stroke-miterlimit:4;" d="M 181.703253 66.344363 C 181.703253 56.990197 179.49492 52.802697 174.515753 52.802697 C 172.55742 52.802697 171.453253 53.44853 172.05742 54.240197 C 172.640753 55.01103 172.36992 55.656863 171.43242 55.656863 C 170.474086 55.656863 168.453253 56.052697 166.93242 56.51103 C 164.49492 57.281863 164.161586 55.156863 164.161586 38.844363 L 164.161586 20.302697 L 171.161586 19.344363 C 175.015753 18.802697 178.724086 17.656863 179.390753 16.781863 C 180.05742 15.906863 181.05742 11.07353 181.599086 6.031863 L 182.578253 -3.134803 L 195.640753 5.531863 C 207.974086 10.88603 215.640753 19.177697 224.099086 26.927697 C 228.786586 31.115197 232.61992 35.07353 232.61992 35.76103 C 232.61992 36.427697 230.849086 38.57353 228.661586 40.531863 C 223.078253 45.552697 192.328253 68.219363 186.536586 71.57353 L 181.703253 74.365197 Z M 181.703253 66.344363 " transform="matrix(0.1875,0,0,0.1875,-2.557641,24.958869)"/>
</g>
</svg>
