
<svg xmlns="http://www.w3.org/2000/svg" xmlns:xlink="http://www.w3.org/1999/xlink" width="48px" height="48px" viewBox="0 0 48 48" version="1.1">
<g id="surface1">
<path style=" stroke:none;fill-rule:nonzero;fill:rgb(82.745098%,91.764706%,94.509804%);fill-opacity:1;" d="M 40.761719 41.914062 C -1.496094 69.371094 -17.851562 -5.617188 25.621094 0.359375 C 43.351562 2.792969 56.925781 31.414062 40.761719 41.914062 Z M 40.761719 41.914062 "/>
<path style=" stroke:none;fill-rule:nonzero;fill:rgb(59.215686%,0%,0%);fill-opacity:1;" d="M 35.953125 21.792969 L 36.175781 32.773438 L 13.28125 37.539062 L 10.714844 14.292969 L 21.222656 11.101562 Z M 35.953125 21.792969 "/>
<path style=" stroke:none;fill-rule:nonzero;fill:rgb(57.254902%,0%,0%);fill-opacity:1;" d="M 13.28125 37.542969 L 29.433594 27.882812 L 17.457031 19.191406 Z M 13.28125 37.542969 "/>
<path style=" stroke:none;fill-rule:nonzero;fill:rgb(68.235294%,0%,0%);fill-opacity:1;" d="M 29.433594 27.867188 L 29.4375 27.871094 Z M 29.4375 27.871094 L 36.183594 32.765625 L 13.316406 37.515625 L 29.433594 27.875 Z M 29.4375 27.871094 "/>
<path style=" stroke:none;fill-rule:nonzero;fill:rgb(59.215686%,0%,0%);fill-opacity:1;" d="M 17.46875 19.183594 L 17.464844 19.183594 L 17.46875 19.1875 Z M 17.464844 19.183594 L 10.722656 14.289062 L 13.296875 37.5 L 17.460938 19.1875 Z M 17.464844 19.183594 "/>
<path style=" stroke:none;fill-rule:nonzero;fill:rgb(73.333333%,0%,0%);fill-opacity:1;" d="M 32.027344 19.007812 L 29.449219 27.855469 L 17.472656 19.164062 L 25.117188 13.949219 Z M 32.027344 19.007812 "/>
<path style=" stroke:none;fill-rule:nonzero;fill:rgb(65.098039%,0%,0%);fill-opacity:1;" d="M 17.476562 19.171875 L 17.472656 19.167969 L 17.480469 19.175781 Z M 17.472656 19.167969 L 10.730469 14.277344 L 21.261719 11.121094 L 25.125 13.949219 L 17.476562 19.164062 Z M 17.472656 19.167969 "/>
<path style=" stroke:none;fill-rule:nonzero;fill:rgb(89.019608%,0%,0%);fill-opacity:1;" d="M 29.445312 27.855469 L 29.449219 27.859375 L 29.441406 27.855469 Z M 29.449219 27.859375 L 36.191406 32.753906 L 35.925781 21.761719 L 32.039062 18.964844 L 29.453125 27.851562 Z M 29.449219 27.859375 "/>
</g>
</svg>
