
<svg xmlns="http://www.w3.org/2000/svg" xmlns:xlink="http://www.w3.org/1999/xlink" width="48px" height="48px" viewBox="0 0 48 48" version="1.1">
<g id="surface1">
<path style=" stroke:none;fill-rule:nonzero;fill:rgb(92.941176%,89.411765%,67.843137%);fill-opacity:1;" d="M 43.054688 36.71875 C 60.316406 12.171875 28.441406 -12.703125 8.109375 7.300781 C -11.050781 26.144531 6.710938 55.425781 30.550781 46.273438 C 35.523438 44.363281 39.886719 41.226562 43.054688 36.71875 Z M 43.054688 36.71875 "/>
<path style=" stroke:none;fill-rule:evenodd;fill:rgb(0%,0%,0%);fill-opacity:0.101961;" d="M 34.304688 13.496094 L 12.449219 13.496094 L 12.449219 35.347656 L 34.304688 35.347656 "/>
<path style=" stroke:none;fill-rule:evenodd;fill:rgb(96.078431%,93.72549%,93.72549%);fill-opacity:1;" d="M 35.144531 12.652344 L 13.292969 12.652344 L 13.292969 34.503906 L 35.144531 34.503906 "/>
<path style=" stroke:none;fill-rule:nonzero;fill:rgb(74.901961%,74.901961%,74.901961%);fill-opacity:0.854902;" d="M 14.132812 14.335938 L 34.304688 14.335938 L 34.304688 15.175781 L 14.132812 15.175781 Z M 14.132812 14.335938 "/>
<path style=" stroke:none;fill-rule:nonzero;fill:rgb(74.901961%,74.901961%,74.901961%);fill-opacity:0.854902;" d="M 14.132812 16.015625 L 34.304688 16.015625 L 34.304688 16.855469 L 14.132812 16.855469 Z M 14.132812 16.015625 "/>
<path style=" stroke:none;fill-rule:nonzero;fill:rgb(74.901961%,74.901961%,74.901961%);fill-opacity:0.854902;" d="M 14.132812 17.695312 L 34.304688 17.695312 L 34.304688 18.535156 L 14.132812 18.535156 Z M 14.132812 17.695312 "/>
<path style=" stroke:none;fill-rule:nonzero;fill:rgb(74.901961%,74.901961%,74.901961%);fill-opacity:0.854902;" d="M 14.132812 19.378906 L 34.304688 19.378906 L 34.304688 20.21875 L 14.132812 20.21875 Z M 14.132812 19.378906 "/>
<path style=" stroke:none;fill-rule:nonzero;fill:rgb(74.901961%,74.901961%,74.901961%);fill-opacity:0.854902;" d="M 14.132812 21.058594 L 34.304688 21.058594 L 34.304688 21.898438 L 14.132812 21.898438 Z M 14.132812 21.058594 "/>
<path style=" stroke:none;fill-rule:nonzero;fill:rgb(74.901961%,74.901961%,74.901961%);fill-opacity:0.854902;" d="M 14.132812 22.738281 L 34.304688 22.738281 L 34.304688 23.578125 L 14.132812 23.578125 Z M 14.132812 22.738281 "/>
<path style=" stroke:none;fill-rule:nonzero;fill:rgb(74.901961%,74.901961%,74.901961%);fill-opacity:0.854902;" d="M 14.132812 24.421875 L 34.304688 24.421875 L 34.304688 25.261719 L 14.132812 25.261719 Z M 14.132812 24.421875 "/>
<path style=" stroke:none;fill-rule:nonzero;fill:rgb(74.901961%,74.901961%,74.901961%);fill-opacity:0.854902;" d="M 14.132812 26.101562 L 34.304688 26.101562 L 34.304688 26.941406 L 14.132812 26.941406 Z M 14.132812 26.101562 "/>
<path style=" stroke:none;fill-rule:nonzero;fill:rgb(74.901961%,74.901961%,74.901961%);fill-opacity:0.854902;" d="M 14.132812 27.78125 L 34.304688 27.78125 L 34.304688 28.621094 L 14.132812 28.621094 Z M 14.132812 27.78125 "/>
<path style=" stroke:none;fill-rule:nonzero;fill:rgb(74.901961%,74.901961%,74.901961%);fill-opacity:0.854902;" d="M 14.132812 29.464844 L 34.304688 29.464844 L 34.304688 30.304688 L 14.132812 30.304688 Z M 14.132812 29.464844 "/>
<path style=" stroke:none;fill-rule:nonzero;fill:rgb(74.901961%,74.901961%,74.901961%);fill-opacity:0.854902;" d="M 14.132812 31.144531 L 34.304688 31.144531 L 34.304688 31.984375 L 14.132812 31.984375 Z M 14.132812 31.144531 "/>
<path style=" stroke:none;fill-rule:evenodd;fill:rgb(0%,0%,0%);fill-opacity:0.101961;" d="M 26.738281 13.496094 C 30.917969 13.496094 34.304688 16.878906 34.304688 21.058594 C 34.304688 25.234375 30.917969 28.621094 26.738281 28.621094 C 25.039062 28.621094 23.390625 28.042969 22.058594 26.988281 L 18.125 30.921875 L 18.398438 31.203125 L 15.09375 34.503906 L 13.414062 34.503906 L 13.292969 34.382812 L 13.292969 32.703125 L 16.597656 29.398438 L 16.859375 29.660156 L 20.789062 25.726562 C 19.746094 24.394531 19.175781 22.753906 19.175781 21.058594 C 19.175781 16.878906 22.5625 13.496094 26.738281 13.496094 M 26.738281 15.175781 C 23.488281 15.175781 20.855469 17.808594 20.855469 21.058594 C 20.855469 24.308594 23.488281 26.941406 26.738281 26.941406 C 29.988281 26.941406 32.621094 24.308594 32.621094 21.058594 C 32.621094 17.808594 29.988281 15.175781 26.738281 15.175781 Z M 26.738281 15.175781 "/>
<path style=" stroke:none;fill-rule:nonzero;fill:rgb(63.137255%,83.137255%,92.941176%);fill-opacity:1;" d="M 34.808594 20.132812 C 34.808594 24.078125 31.609375 27.277344 27.664062 27.277344 C 23.714844 27.277344 20.519531 24.078125 20.519531 20.132812 C 20.519531 16.1875 23.714844 12.988281 27.664062 12.988281 C 31.609375 12.988281 34.808594 16.1875 34.808594 20.132812 "/>
<path style=" stroke:none;fill-rule:nonzero;fill:rgb(82.352941%,29.803922%,21.568627%);fill-opacity:1;" d="M 23.058594 25.988281 L 21.796875 24.722656 L 17.648438 28.871094 L 18.914062 30.136719 "/>
<path style=" stroke:none;fill-rule:nonzero;fill:rgb(13.333333%,16.862745%,18.823529%);fill-opacity:1;" d="M 19.242188 30.363281 L 17.4375 28.558594 L 13.292969 32.707031 L 15.09375 34.507812 "/>
<path style=" stroke:none;fill-rule:nonzero;fill:rgb(0%,0%,0%);fill-opacity:0.101961;" d="M 27.160156 13.074219 C 31.335938 13.074219 34.722656 16.460938 34.722656 20.636719 C 34.71875 20.96875 34.695312 21.300781 34.648438 21.628906 C 33.960938 24.855469 31.097656 27.277344 27.664062 27.277344 C 23.714844 27.277344 20.519531 24.078125 20.519531 20.132812 C 20.519531 16.703125 22.933594 13.839844 26.160156 13.148438 C 26.492188 13.101562 26.824219 13.078125 27.160156 13.074219 Z M 27.160156 14.753906 C 23.910156 14.753906 21.277344 17.390625 21.277344 20.636719 C 21.277344 23.886719 23.910156 26.519531 27.160156 26.519531 C 30.410156 26.519531 33.042969 23.886719 33.042969 20.636719 C 33.042969 17.390625 30.410156 14.753906 27.160156 14.753906 Z M 27.160156 14.753906 "/>
<path style=" stroke:none;fill-rule:nonzero;fill:rgb(69.411765%,60.784314%,60.784314%);fill-opacity:1;" d="M 27.578125 12.652344 C 31.757812 12.652344 35.144531 16.039062 35.144531 20.21875 C 35.144531 24.394531 31.757812 27.78125 27.578125 27.78125 C 23.402344 27.78125 20.015625 24.394531 20.015625 20.21875 C 20.015625 16.039062 23.402344 12.652344 27.578125 12.652344 Z M 27.578125 14.335938 C 24.332031 14.335938 21.695312 16.96875 21.695312 20.21875 C 21.695312 23.46875 24.332031 26.101562 27.578125 26.101562 C 30.828125 26.101562 33.460938 23.46875 33.460938 20.21875 C 33.460938 16.96875 30.828125 14.335938 27.578125 14.335938 Z M 27.578125 14.335938 "/>
</g>
</svg>
