
<svg xmlns="http://www.w3.org/2000/svg" xmlns:xlink="http://www.w3.org/1999/xlink" width="48px" height="48px" viewBox="0 0 48 48" version="1.1">
<g id="surface1">
<path style=" stroke:none;fill-rule:nonzero;fill:rgb(80%,100%,60%);fill-opacity:1;" d="M 39.59375 7.308594 C 77.4375 56.832031 -26.703125 63.867188 6.714844 13.316406 C 14.335938 1.789062 29.570312 -5.808594 39.59375 7.308594 Z M 39.59375 7.308594 "/>
<path style=" stroke:none;fill-rule:nonzero;fill:rgb(87.058824%,85.490196%,63.921569%);fill-opacity:1;" d="M 26.136719 41.183594 C 25.894531 41.101562 25.515625 40.824219 25.289062 40.574219 C 24.484375 39.683594 19.671875 31.8125 19.582031 31.25 C 19.535156 30.933594 19.191406 30.460938 18.824219 30.203125 L 18.152344 29.734375 L 16.976562 30.484375 C 16.328125 30.894531 15.675781 31.234375 15.527344 31.234375 C 15.199219 31.234375 14.042969 29.847656 13.75 29.101562 C 13.546875 28.585938 13.460938 28.613281 10.902344 30.023438 C 9.453125 30.824219 8.144531 31.476562 7.996094 31.476562 C 7.835938 31.476562 7.726562 30.761719 7.726562 29.6875 C 7.726562 27.5625 7.625 27.671875 11.285156 25.757812 C 12.742188 24.996094 13.933594 24.292969 13.933594 24.195312 C 13.933594 24.101562 13.566406 23.554688 13.121094 22.984375 C 12.675781 22.410156 12.234375 21.601562 12.144531 21.1875 C 12.046875 20.726562 11.707031 20.277344 11.289062 20.046875 C 10.59375 19.664062 8.246094 16.832031 8.246094 16.378906 C 8.246094 16.242188 8.128906 16.132812 7.988281 16.132812 C 7.835938 16.132812 7.726562 15.324219 7.726562 14.1875 L 7.289062 12.800781 L 8.210938 11.363281 C 8.757812 10.507812 10.03125 12.632812 12.476562 15.804688 C 13.417969 17.027344 14.191406 18.265625 14.191406 18.554688 C 14.191406 18.871094 14.472656 19.230469 14.910156 19.46875 C 15.304688 19.679688 16.015625 20.386719 16.492188 21.039062 C 17.328125 22.175781 17.871094 22.480469 18.191406 21.992188 C 18.277344 21.863281 17.933594 21.25 17.429688 20.628906 C 16.925781 20.011719 16.578125 19.40625 16.652344 19.292969 C 17.195312 18.46875 23.839844 15.667969 28.480469 14.3125 C 30.308594 13.777344 32.363281 13.917969 33.808594 14.683594 L 34.816406 15.21875 L 37.523438 13.851562 C 39.015625 13.097656 40.367188 12.480469 40.527344 12.480469 C 40.71875 12.480469 40.824219 13.039062 40.824219 14.070312 L 40.824219 15.660156 L 39.207031 16.605469 C 36.632812 18.113281 36.625 18.125 36.824219 18.875 C 36.933594 19.292969 37.175781 19.542969 37.464844 19.542969 C 37.71875 19.542969 37.996094 19.722656 38.085938 19.941406 C 38.21875 20.265625 38.492188 20.3125 39.539062 20.195312 L 40.824219 20.054688 L 40.824219 41.214844 L 39.175781 41.214844 C 36.722656 41.214844 35.453125 40.59375 33.941406 38.65625 C 33.265625 37.785156 32.683594 36.914062 32.65625 36.71875 C 32.582031 36.25 31.539062 34.878906 31.308594 34.945312 C 30.6875 35.121094 29.375 33.847656 28.058594 31.796875 C 26.371094 29.164062 26.105469 28.34375 26.695312 27.550781 C 26.980469 27.167969 27.027344 26.914062 26.84375 26.703125 C 26.664062 26.5 26.664062 26.355469 26.847656 26.246094 C 27.34375 25.957031 27.128906 25.628906 26.449219 25.628906 C 25.394531 25.628906 24.277344 26.914062 24.277344 28.128906 C 24.277344 29.257812 24.742188 30.085938 27.574219 33.996094 C 28.628906 35.449219 29.714844 37.132812 29.992188 37.738281 C 30.265625 38.347656 30.785156 39.171875 31.144531 39.570312 C 31.871094 40.382812 31.863281 40.4375 31.027344 40.558594 C 30.703125 40.605469 30.34375 40.789062 30.226562 40.964844 C 30.003906 41.308594 26.953125 41.46875 26.136719 41.183594 Z M 16.65625 29.765625 C 17.066406 29.335938 17.082031 29.222656 16.761719 28.925781 C 16.441406 28.632812 16.304688 28.652344 15.78125 29.054688 C 15.421875 29.332031 15.234375 29.679688 15.320312 29.894531 C 15.527344 30.402344 16.09375 30.347656 16.65625 29.765625 Z M 22.226562 25.136719 C 22.785156 24.867188 23.242188 24.601562 23.242188 24.542969 C 23.242188 24.4375 20.679688 25.105469 20.335938 25.304688 C 20.230469 25.363281 20.347656 25.703125 20.59375 26.0625 C 21.035156 26.699219 21.046875 26.703125 21.128906 26.167969 C 21.179688 25.820312 21.578125 25.445312 22.226562 25.136719 Z M 32.292969 20.515625 C 32.292969 20.382812 32.175781 20.273438 32.035156 20.273438 C 31.890625 20.273438 31.777344 20.382812 31.777344 20.515625 C 31.777344 20.652344 31.890625 20.761719 32.035156 20.761719 C 32.175781 20.761719 32.292969 20.652344 32.292969 20.515625 Z M 7.726562 39.449219 C 7.726562 38.28125 7.800781 38.050781 8.179688 38.050781 C 8.429688 38.046875 9.023438 37.824219 9.503906 37.546875 C 10.011719 37.257812 10.984375 37.007812 11.847656 36.945312 C 13.28125 36.847656 13.351562 36.871094 14.316406 37.800781 C 14.863281 38.328125 15.398438 38.710938 15.5 38.648438 C 15.605469 38.589844 16.066406 38.941406 16.527344 39.433594 C 17.324219 40.289062 17.335938 40.339844 16.835938 40.511719 C 16.546875 40.613281 14.378906 40.730469 12.019531 40.773438 L 7.726562 40.851562 Z M 7.726562 36.007812 C 7.726562 35.820312 7.90625 35.605469 8.121094 35.527344 C 8.445312 35.410156 8.464844 35.472656 8.242188 35.863281 C 7.921875 36.429688 7.726562 36.484375 7.726562 36.007812 Z M 7.726562 33.789062 C 7.726562 32.296875 8.019531 32.074219 8.507812 33.191406 C 8.773438 33.796875 8.773438 34.046875 8.496094 34.53125 C 7.964844 35.46875 7.726562 35.242188 7.726562 33.789062 Z M 26.265625 31.171875 C 25.910156 30.601562 25.660156 30.09375 25.714844 30.039062 C 25.894531 29.871094 26.625 30.566406 27.007812 31.261719 C 27.617188 32.367188 26.96875 32.289062 26.265625 31.171875 Z M 26.265625 31.171875 "/>
<path style=" stroke:none;fill-rule:nonzero;fill:rgb(71.372549%,83.137255%,60%);fill-opacity:1;" d="M 25.175781 41.636719 C 20.507812 34.421875 19.355469 32.519531 19.355469 32.027344 C 19.355469 31.703125 19.09375 31.175781 18.777344 30.855469 C 18.296875 30.371094 18.257812 30.210938 18.546875 29.882812 C 18.992188 29.371094 18.734375 26.769531 18.183594 26.25 C 17.835938 25.917969 17.671875 25.941406 16.828125 26.4375 C 16.296875 26.746094 15.863281 27.105469 15.863281 27.230469 C 15.863281 27.359375 15.644531 27.464844 15.375 27.464844 C 15 27.464844 15.160156 27.742188 16.058594 28.65625 C 16.699219 29.308594 17.191406 30.019531 17.148438 30.230469 C 17.0625 30.65625 15.128906 32.015625 14.589844 32.03125 C 14.144531 32.039062 12.644531 30.054688 12.644531 29.453125 C 12.644531 29.171875 13.039062 28.753906 13.582031 28.449219 C 14.101562 28.160156 14.523438 27.871094 14.523438 27.808594 C 14.523438 27.664062 14.886719 27.472656 10.429688 29.96875 C 8.402344 31.109375 6.679688 32.039062 6.605469 32.039062 C 6.53125 32.039062 6.476562 31.265625 6.476562 30.324219 L 6.484375 28.609375 L 9.851562 26.871094 C 11.703125 25.914062 13.28125 24.96875 13.363281 24.773438 C 13.441406 24.578125 13.753906 24.417969 14.058594 24.417969 C 14.359375 24.417969 15.003906 24.132812 15.484375 23.78125 C 15.96875 23.433594 16.539062 23.148438 16.75 23.148438 C 16.960938 23.148438 17.429688 22.929688 17.789062 22.660156 C 18.152344 22.390625 19.621094 21.746094 21.054688 21.226562 C 22.488281 20.707031 23.613281 20.234375 23.550781 20.179688 C 23.492188 20.121094 22.382812 20.425781 21.085938 20.851562 C 19.792969 21.273438 18.519531 21.625 18.261719 21.625 C 17.78125 21.625 16.402344 20.269531 16.402344 19.800781 C 16.402344 19.660156 16.636719 19.484375 16.925781 19.414062 C 17.214844 19.34375 17.632812 19.019531 17.851562 18.699219 C 18.132812 18.296875 19.539062 17.636719 22.394531 16.566406 C 24.667969 15.714844 26.78125 15.019531 27.085938 15.019531 C 27.390625 15.019531 27.972656 14.898438 28.386719 14.75 C 29.710938 14.273438 32.082031 14.386719 33.296875 14.984375 C 33.902344 15.28125 34.546875 15.523438 34.726562 15.523438 C 34.90625 15.519531 38.996094 14.097656 40.375 12.957031 L 41.886719 11.710938 L 42.628906 13.589844 C 43.199219 15.035156 40.804688 15.65625 39.808594 16.097656 C 39.261719 16.34375 38.222656 16.894531 37.503906 17.324219 C 36.25 18.074219 36.203125 18.144531 36.355469 19.03125 C 36.597656 20.445312 37.394531 20.824219 39.28125 20.710938 L 46.710938 20.273438 C 46.710938 20.273438 49.699219 25.613281 46.757812 34.046875 C 45.699219 37.078125 40.824219 42.195312 40.824219 42.195312 L 39.195312 42.195312 C 38.300781 42.195312 37.34375 42.082031 37.066406 41.945312 C 36.792969 41.804688 35.402344 40.265625 33.976562 38.527344 C 31.757812 35.820312 31.222656 35.3125 30.265625 35.015625 C 29.363281 34.734375 29.007812 34.429688 28.414062 33.414062 C 28.011719 32.726562 27.746094 32 27.820312 31.804688 C 28.054688 31.191406 27.0625 27.207031 26.671875 27.207031 C 26.429688 27.207031 26.375 27.007812 26.488281 26.574219 C 26.589844 26.1875 26.542969 25.9375 26.367188 25.9375 C 26.203125 25.9375 25.832031 25.488281 25.535156 24.9375 C 25.238281 24.390625 24.882812 23.875 24.742188 23.792969 C 24.328125 23.546875 18.96875 25.511719 18.882812 25.9375 C 18.777344 26.464844 23.269531 32.894531 24.824219 34.449219 C 26.046875 35.664062 26.089844 35.6875 25.925781 34.960938 C 25.753906 34.210938 25.757812 34.210938 26.3125 34.683594 C 26.617188 34.945312 27.402344 35.914062 28.058594 36.835938 C 29.140625 38.363281 29.253906 38.671875 29.332031 40.289062 L 29.417969 42.066406 L 27.484375 42.144531 C 25.714844 42.210938 25.523438 42.167969 25.175781 41.632812 Z M 15.738281 30.507812 C 16.167969 30.058594 16.179688 29.941406 15.847656 29.632812 C 15.515625 29.328125 15.375 29.34375 14.828125 29.765625 C 14.457031 30.054688 14.261719 30.417969 14.351562 30.640625 C 14.566406 31.171875 15.15625 31.117188 15.738281 30.507812 Z M 29.949219 20.648438 C 29.878906 20.464844 29.816406 20.121094 29.808594 19.886719 C 29.796875 19.40625 29.21875 20.316406 28.886719 21.339844 L 28.6875 21.941406 L 29.382812 21.464844 C 29.761719 21.203125 30.015625 20.835938 29.949219 20.648438 Z M 32.105469 20.957031 C 31.882812 20.453125 31.691406 19.964844 31.683594 19.878906 C 31.671875 19.789062 31.554688 19.976562 31.421875 20.296875 C 31.238281 20.726562 31.292969 20.996094 31.636719 21.355469 C 32.367188 22.109375 32.546875 21.957031 32.105469 20.957031 Z M 31 18.472656 C 30.816406 18.019531 30.324219 18.039062 30.160156 18.507812 C 30.105469 18.660156 30.277344 18.832031 30.542969 18.886719 C 31.171875 19.019531 31.210938 18.984375 31 18.472656 Z M 25.96875 32.125 C 25.695312 31.777344 25.53125 31.441406 25.597656 31.378906 C 25.667969 31.3125 25.929688 31.558594 26.183594 31.925781 C 26.777344 32.789062 26.617188 32.9375 25.96875 32.125 Z M 13.441406 22.371094 C 13.035156 21.652344 13.253906 21.503906 13.828125 22.105469 C 14.113281 22.402344 14.1875 22.648438 14.019531 22.746094 C 13.867188 22.835938 13.609375 22.664062 13.441406 22.371094 Z M 11.875 20.226562 C 10.949219 19.226562 10.824219 18.828125 11.4375 18.828125 C 11.660156 18.828125 11.839844 18.949219 11.839844 19.09375 C 11.839844 19.238281 12.101562 19.695312 12.425781 20.105469 C 13.277344 21.195312 12.859375 21.289062 11.875 20.226562 Z M 9.460938 17.242188 C 9.027344 16.648438 7.972656 15.167969 7.503906 14.722656 C 6.648438 13.902344 6.496094 12.996094 7.21875 12.996094 C 7.429688 12.996094 8.160156 14.042969 8.464844 14.558594 C 8.773438 15.074219 9.414062 16.019531 9.894531 16.667969 C 10.375 17.3125 10.765625 17.945312 10.765625 18.078125 C 10.765625 18.617188 10.210938 18.261719 9.460938 17.242188 Z M 6.472656 15.652344 C 6.472656 15.445312 6.578125 15.273438 6.710938 15.273438 C 6.84375 15.273438 7.019531 15.445312 7.105469 15.652344 C 7.199219 15.886719 7.105469 16.035156 6.867188 16.035156 C 6.648438 16.035156 6.472656 15.863281 6.472656 15.652344 Z M 6.472656 15.652344 "/>
<path style=" stroke:none;fill-rule:nonzero;fill:rgb(89.019608%,81.960784%,43.137255%);fill-opacity:1;" d="M 23.140625 36.375 C 21.488281 33.847656 20.140625 31.527344 20.140625 31.214844 C 20.140625 30.90625 19.890625 30.402344 19.585938 30.097656 C 19.121094 29.632812 19.085938 29.476562 19.363281 29.164062 C 19.792969 28.675781 19.542969 26.179688 19.011719 25.679688 C 18.675781 25.363281 18.519531 25.386719 17.703125 25.859375 C 17.195312 26.15625 16.777344 26.5 16.777344 26.625 C 16.777344 26.746094 16.570312 26.847656 16.3125 26.847656 C 16.058594 26.847656 14.074219 27.832031 11.90625 29.039062 C 9.742188 30.246094 0.863281 34.300781 0.660156 34.542969 C 0.296875 34.976562 0.0429688 31.582031 0.296875 31.460938 L 7.738281 27.941406 L 10.984375 26.277344 C 12.765625 25.359375 14.289062 24.453125 14.367188 24.265625 C 14.441406 24.078125 14.742188 23.925781 15.035156 23.925781 C 15.324219 23.925781 15.945312 23.652344 16.410156 23.316406 C 16.878906 22.980469 17.425781 22.707031 17.628906 22.707031 C 17.832031 22.707031 18.277344 22.5 18.617188 22.25 C 18.957031 22 20.570312 21.300781 22.203125 20.703125 L 25.175781 19.609375 L 25.367188 18.539062 C 25.636719 17.050781 26.757812 15.632812 28.191406 14.960938 C 29.820312 14.199219 32.113281 14.164062 33.570312 14.878906 C 34.15625 15.167969 34.777344 15.398438 34.949219 15.398438 C 35.121094 15.394531 36.515625 14.746094 38.042969 13.957031 L 42.386719 11.648438 L 42.503906 12.273438 C 42.78125 13.738281 42.117188 11.152344 43.847656 13.824219 C 44.160156 14.3125 38.335938 16.703125 37.664062 17.101562 L 36.445312 17.828125 L 36.601562 19.84375 C 36.6875 20.949219 36.800781 21.902344 36.851562 21.957031 C 36.902344 22.011719 37.582031 21.851562 38.363281 21.601562 C 39.289062 21.304688 39.875 21.230469 40.039062 21.382812 C 40.394531 21.71875 40.8125 24.667969 40.816406 26.871094 L 40.824219 28.722656 L 39.722656 29.160156 C 36.539062 30.425781 35.347656 31.035156 33.582031 32.292969 C 32.488281 33.074219 31.429688 33.648438 31.152344 33.609375 C 30.335938 33.5 29.679688 32.382812 29.449219 30.722656 C 29.144531 28.53125 28.480469 26.742188 27.285156 24.898438 C 26.71875 24.027344 26.171875 23.222656 26.070312 23.113281 C 25.820312 22.839844 19.863281 24.890625 19.695312 25.308594 C 19.621094 25.488281 20.292969 26.703125 21.183594 28.007812 C 23.527344 31.429688 29.703125 40.757812 29.703125 40.875 C 29.703125 40.929688 33.429688 45.902344 32.480469 46.160156 L 29.949219 46.847656 L 23.136719 36.375 Z M 29.835938 21.25 C 30.441406 20.617188 31.375 20.628906 32.054688 21.269531 C 32.925781 22.089844 32.957031 21.601562 32.144531 19.726562 C 31.378906 17.953125 30.722656 17.410156 30.359375 18.253906 C 28.917969 21.609375 28.792969 22.335938 29.835938 21.25 Z M 30.496094 20.167969 C 30.269531 19.910156 30.261719 19.6875 30.472656 19.316406 C 30.855469 18.644531 31.214844 18.679688 31.40625 19.40625 C 31.667969 20.390625 31.105469 20.859375 30.496094 20.167969 Z M 14.445312 21.964844 C 14.054688 21.277344 14.261719 21.132812 14.816406 21.710938 C 15.089844 21.996094 15.160156 22.230469 15 22.328125 C 14.855469 22.410156 14.605469 22.246094 14.445312 21.964844 Z M 12.933594 19.910156 C 12.042969 18.953125 11.921875 18.570312 12.511719 18.570312 C 12.726562 18.570312 12.902344 18.683594 12.902344 18.824219 C 12.902344 18.960938 13.15625 19.398438 13.464844 19.792969 C 14.285156 20.839844 13.882812 20.925781 12.933594 19.910156 Z M 10.609375 17.046875 C 10.191406 16.476562 9.476562 15.660156 9.027344 15.230469 C 8.199219 14.445312 8.054688 13.578125 8.75 13.578125 C 8.953125 13.578125 9.355469 13.980469 9.652344 14.476562 C 9.945312 14.96875 10.5625 15.878906 11.027344 16.496094 C 11.488281 17.113281 11.867188 17.722656 11.867188 17.851562 C 11.867188 18.367188 11.332031 18.023438 10.609375 17.046875 Z M 7.730469 15.523438 C 7.730469 15.324219 7.832031 15.160156 7.960938 15.160156 C 8.085938 15.160156 8.257812 15.324219 8.339844 15.523438 C 8.429688 15.746094 8.339844 15.890625 8.109375 15.890625 C 7.902344 15.890625 7.730469 15.726562 7.730469 15.523438 Z M 7.730469 15.523438 "/>
<path style=" stroke:none;fill-rule:nonzero;fill:rgb(88.627451%,70.196078%,32.54902%);fill-opacity:1;" d="M 25.621094 38.003906 C 25.453125 37.839844 25.3125 37.605469 25.3125 37.480469 C 25.3125 37.351562 24.90625 36.671875 24.40625 35.964844 C 23.910156 35.257812 23.5 34.5625 23.5 34.417969 C 23.5 34.003906 23.871094 34.109375 24.152344 34.609375 C 25.441406 36.90625 25.875 37.5625 26.089844 37.5625 C 26.230469 37.5625 26.347656 37.726562 26.347656 37.929688 C 26.347656 38.371094 26.042969 38.398438 25.621094 38.003906 Z M 30.410156 33.242188 C 29.847656 32.652344 29.449219 31.59375 29.449219 30.675781 C 29.449219 28.730469 26.625 22.953125 25.671875 22.953125 C 25.488281 22.953125 24.023438 23.394531 22.421875 23.929688 C 20.816406 24.46875 19.382812 24.867188 19.234375 24.8125 C 19.019531 24.734375 18.929688 23.136719 19.082031 22.195312 C 19.09375 22.113281 20.378906 21.585938 21.933594 21.019531 C 23.488281 20.457031 24.867188 19.867188 25 19.710938 C 25.132812 19.550781 25.3125 18.984375 25.398438 18.453125 C 25.941406 15.136719 30.328125 13.359375 33.839844 15.035156 C 35.242188 15.707031 36.054688 15.675781 37.835938 14.882812 C 39.0625 14.335938 39.273438 14.320312 39.273438 14.78125 C 39.273438 14.976562 38.753906 15.472656 38.113281 15.886719 C 37.476562 16.300781 36.832031 16.855469 36.683594 17.117188 C 36.351562 17.699219 36.644531 21.976562 37.015625 21.976562 C 37.152344 21.976562 37.832031 21.789062 38.523438 21.558594 C 39.359375 21.277344 39.863281 21.21875 40.035156 21.378906 C 40.394531 21.71875 40.816406 24.65625 40.820312 26.871094 L 40.828125 28.722656 L 39.726562 29.160156 C 36.550781 30.425781 35.351562 31.035156 33.585938 32.289062 C 31.507812 33.769531 31.050781 33.90625 30.414062 33.242188 Z M 29.835938 21.246094 C 30.441406 20.617188 31.375 20.625 32.054688 21.269531 C 32.929688 22.089844 32.957031 21.597656 32.144531 19.722656 C 31.378906 17.949219 30.722656 17.410156 30.359375 18.253906 C 28.917969 21.609375 28.792969 22.335938 29.835938 21.25 Z M 30.496094 20.167969 C 30.269531 19.90625 30.261719 19.6875 30.472656 19.316406 C 30.855469 18.644531 31.214844 18.679688 31.40625 19.40625 C 31.667969 20.390625 31.109375 20.859375 30.496094 20.167969 Z M 22.46875 33.179688 C 22.46875 33.046875 22.578125 32.9375 22.710938 32.9375 C 22.84375 32.9375 23.027344 33.046875 23.113281 33.179688 C 23.203125 33.316406 23.09375 33.425781 22.871094 33.425781 C 22.648438 33.425781 22.46875 33.316406 22.46875 33.179688 Z M 21.433594 31.355469 C 21.25 31.144531 21.222656 30.988281 21.375 30.988281 C 21.519531 30.988281 21.703125 31.152344 21.785156 31.355469 C 21.867188 31.554688 21.894531 31.71875 21.84375 31.71875 C 21.796875 31.71875 21.609375 31.554688 21.433594 31.355469 Z M 0.542969 34.585938 L 0.355469 31.546875 L 11.40625 26.191406 C 15.84375 24.042969 18.007812 22.875 18.371094 22.550781 C 18.71875 22.238281 18.464844 24.699219 18.542969 25.3125 C 18.582031 25.636719 16.1875 26.597656 12.691406 28.640625 C 10.949219 29.65625 8.832031 30.511719 8.441406 30.773438 L 7.730469 31.246094 Z M 0.542969 34.585938 "/>
<path style=" stroke:none;fill-rule:nonzero;fill:rgb(46.27451%,53.333333%,40%);fill-opacity:1;" d="M 30.410156 33.242188 C 29.84375 32.652344 29.449219 31.59375 29.449219 30.675781 C 29.449219 29.371094 28.363281 26.574219 27.09375 24.597656 C 25.582031 22.25 25.199219 20.867188 25.5625 19.085938 C 26.066406 16.597656 27.019531 15.761719 30.164062 15.03125 C 32.078125 14.589844 33.363281 14.8125 34.617188 15.804688 C 35.734375 16.6875 36.058594 17.40625 36.453125 19.847656 C 36.640625 21.019531 36.902344 21.980469 37.03125 21.980469 C 37.160156 21.980469 37.828125 21.789062 38.519531 21.558594 C 39.355469 21.28125 39.863281 21.21875 40.035156 21.382812 C 40.394531 21.71875 40.8125 24.65625 40.820312 26.875 L 40.824219 28.722656 L 39.726562 29.160156 C 36.546875 30.425781 35.351562 31.035156 33.585938 32.289062 C 31.503906 33.769531 31.050781 33.90625 30.410156 33.242188 Z M 32.433594 20.15625 C 31.648438 18.191406 31.308594 17.597656 30.976562 17.597656 C 30.722656 17.597656 29.414062 20.054688 29.066406 21.1875 C 28.851562 21.875 29.269531 21.902344 29.964844 21.25 C 30.660156 20.59375 31.402344 20.636719 32.074219 21.363281 C 32.960938 22.320312 33.105469 21.835938 32.433594 20.15625 Z M 30.398438 20.09375 C 30.234375 19.828125 30.679688 18.8125 30.964844 18.8125 C 31.226562 18.8125 31.515625 19.394531 31.515625 19.929688 C 31.515625 20.285156 30.601562 20.417969 30.398438 20.09375 Z M 30.398438 20.09375 "/>
<path style=" stroke:none;fill-rule:nonzero;fill:rgb(37.647059%,42.352941%,30.980392%);fill-opacity:1;" d="M 30.523438 32.753906 C 30.390625 32.519531 30.199219 31.835938 30.097656 31.230469 C 29.695312 28.90625 28.667969 26.441406 27.253906 24.417969 C 25.496094 21.902344 25.195312 20.972656 25.554688 19.144531 C 26.050781 16.609375 27 15.765625 30.164062 15.03125 C 32.082031 14.589844 33.363281 14.8125 34.617188 15.804688 C 36.226562 17.078125 36.539062 18.691406 36.046875 23.238281 L 35.847656 25.105469 L 37.460938 26.039062 C 39.355469 27.132812 39.847656 27.539062 39.722656 27.902344 C 39.667969 28.046875 38.761719 28.578125 37.707031 29.085938 C 36.648438 29.589844 34.777344 30.71875 33.542969 31.589844 C 32.3125 32.464844 31.183594 33.179688 31.03125 33.179688 C 30.882812 33.179688 30.652344 32.988281 30.523438 32.753906 Z M 33.070312 28.976562 C 33.070312 28.945312 33.175781 28.558594 33.308594 28.125 C 33.617188 27.109375 33.210938 27.089844 32.835938 28.101562 C 32.488281 29.039062 32.488281 29.039062 32.808594 29.039062 C 32.953125 29.039062 33.070312 29.011719 33.070312 28.976562 Z M 29.835938 21.492188 C 30.09375 21.222656 30.632812 21.003906 31.03125 21.003906 C 31.492188 21.003906 31.859375 21.183594 32.035156 21.492188 C 32.316406 21.988281 33.070312 22.171875 33.070312 21.742188 C 33.070312 21.34375 31.785156 18.265625 31.472656 17.910156 C 30.921875 17.285156 30.414062 17.714844 29.679688 19.421875 C 28.65625 21.796875 28.722656 22.652344 29.835938 21.492188 Z M 30.570312 19.890625 C 30.320312 19.28125 30.902344 18.917969 31.226562 19.484375 C 31.496094 19.960938 31.386719 20.273438 30.949219 20.273438 C 30.824219 20.273438 30.65625 20.101562 30.570312 19.890625 Z M 30.570312 19.890625 "/>
<path style=" stroke:none;fill-rule:nonzero;fill:rgb(99.215686%,20%,0.392157%);fill-opacity:1;" d="M 29.902344 32.84375 C 29.265625 29.792969 28.675781 26.964844 27.25 24.835938 C 25.496094 22.207031 24.757812 20.988281 25.117188 19.082031 C 25.613281 16.4375 26.558594 14.679688 29.726562 13.914062 C 31.640625 13.453125 33.613281 14.058594 34.867188 15.097656 C 35.941406 15.984375 36.539062 17.464844 36.746094 19.261719 C 36.96875 21.191406 36.1875 22.554688 34.878906 24.546875 C 33.195312 27.101562 33 29.898438 32.382812 32.507812 C 31.65625 35.5625 30.375 35.101562 29.902344 32.84375 Z M 29.835938 21.78125 C 30.09375 21.5 30.628906 21.273438 31.03125 21.273438 C 31.492188 21.273438 31.855469 21.457031 32.03125 21.78125 C 32.316406 22.300781 33.066406 22.488281 33.066406 22.042969 C 33.066406 21.625 31.785156 18.414062 31.46875 18.042969 C 30.921875 17.390625 30.414062 17.835938 29.679688 19.621094 C 28.65625 22.101562 28.722656 22.992188 29.835938 21.78125 Z M 30.570312 20.113281 C 30.320312 19.472656 30.902344 19.09375 31.222656 19.6875 C 31.492188 20.183594 31.382812 20.511719 30.949219 20.511719 C 30.824219 20.511719 30.652344 20.332031 30.570312 20.113281 Z M 30.570312 20.113281 "/>
</g>
</svg>
