
<svg xmlns="http://www.w3.org/2000/svg" xmlns:xlink="http://www.w3.org/1999/xlink" width="48px" height="48px" viewBox="0 0 48 48" version="1.1">
<g id="surface1">
<path style=" stroke:none;fill-rule:nonzero;fill:rgb(72.54902%,28.627451%,78.039216%);fill-opacity:1;" d="M 11.28125 4.945312 C 35.832031 -12.3125 60.707031 19.558594 40.703125 39.890625 C 21.855469 59.050781 -7.425781 41.289062 1.726562 17.449219 C 3.636719 12.476562 6.773438 8.113281 11.28125 4.945312 Z M 11.28125 4.945312 "/>
<path style=" stroke:none;fill-rule:nonzero;fill:rgb(100%,100%,100%);fill-opacity:1;" d="M 31.449219 10.628906 C 28.433594 10.628906 25.382812 12.554688 25.382812 16.230469 L 25.902344 16.230469 C 25.902344 12.894531 28.691406 11.148438 31.449219 11.148438 C 32.847656 11.148438 34.136719 11.59375 35.082031 12.398438 C 36.140625 13.308594 36.703125 14.632812 36.703125 16.230469 L 37.222656 16.230469 C 37.222656 14.480469 36.597656 13.015625 35.414062 12.003906 C 34.378906 11.117188 32.96875 10.628906 31.449219 10.628906 Z M 31.476562 15.316406 C 31.132812 15.316406 30.855469 15.597656 30.855469 15.941406 C 30.855469 16.28125 31.132812 16.558594 31.476562 16.558594 C 31.820312 16.558594 32.097656 16.28125 32.097656 15.941406 C 32.097656 15.597656 31.820312 15.316406 31.476562 15.316406 Z M 13.894531 19.609375 C 13.351562 19.609375 12.835938 19.707031 12.347656 19.90625 C 11.878906 20.089844 11.445312 20.351562 11.046875 20.695312 C 10.648438 21.035156 10.3125 21.433594 10.042969 21.886719 C 9.769531 22.335938 9.570312 22.832031 9.445312 23.375 L 9.390625 23.375 L 9.390625 19.933594 L 8.847656 19.933594 L 8.847656 33.855469 L 9.390625 33.855469 L 9.390625 25.976562 C 9.390625 25.199219 9.488281 24.457031 9.6875 23.753906 C 9.90625 23.050781 10.207031 22.4375 10.585938 21.914062 C 10.984375 21.371094 11.460938 20.945312 12.023438 20.636719 C 12.585938 20.3125 13.207031 20.152344 13.894531 20.152344 C 14.671875 20.152344 15.308594 20.277344 15.796875 20.527344 C 16.285156 20.78125 16.664062 21.125 16.9375 21.558594 C 17.207031 21.992188 17.390625 22.496094 17.480469 23.074219 C 17.589844 23.652344 17.644531 24.265625 17.644531 24.917969 L 17.644531 33.855469 L 18.183594 33.855469 L 18.183594 25.027344 C 18.183594 24.375 18.285156 23.761719 18.484375 23.1875 C 18.683594 22.589844 18.972656 22.0625 19.351562 21.613281 C 19.730469 21.160156 20.195312 20.808594 20.738281 20.554688 C 21.28125 20.285156 21.886719 20.152344 22.554688 20.152344 C 23.316406 20.152344 23.941406 20.257812 24.429688 20.476562 C 24.9375 20.691406 25.335938 21 25.625 21.394531 C 25.929688 21.792969 26.140625 22.273438 26.25 22.832031 C 26.375 23.390625 26.4375 24.015625 26.4375 24.703125 L 26.457031 29.820312 C 26.484375 30.378906 26.527344 30.871094 26.703125 31.335938 C 26.957031 31.949219 27.296875 32.476562 27.730469 32.910156 C 28.183594 33.324219 28.710938 33.640625 29.304688 33.855469 C 29.921875 34.054688 30.59375 34.152344 31.316406 34.152344 C 32.691406 34.152344 33.804688 33.804688 34.65625 33.097656 C 35.523438 32.394531 36.085938 31.5 36.335938 30.414062 L 36.394531 30.414062 L 36.394531 33.855469 L 36.933594 33.855469 L 36.933594 19.933594 L 36.394531 19.933594 L 36.394531 27.816406 C 36.394531 28.59375 36.285156 29.332031 36.066406 30.035156 C 35.851562 30.742188 35.523438 31.367188 35.089844 31.90625 C 34.675781 32.429688 34.148438 32.855469 33.515625 33.179688 C 32.882812 33.488281 32.148438 33.640625 31.316406 33.640625 C 30.71875 33.640625 30.148438 33.558594 29.605469 33.398438 C 29.082031 33.214844 28.609375 32.945312 28.191406 32.582031 C 27.796875 32.203125 27.480469 31.734375 27.242188 31.175781 C 27.007812 30.597656 26.988281 29.882812 26.988281 29.070312 L 26.980469 24.703125 C 26.980469 23.945312 26.90625 23.257812 26.761719 22.640625 C 26.617188 22.011719 26.375 21.480469 26.03125 21.046875 C 25.6875 20.59375 25.234375 20.242188 24.675781 19.988281 C 24.113281 19.734375 23.40625 19.609375 22.554688 19.609375 C 21.46875 19.609375 20.527344 19.90625 19.730469 20.5 C 18.9375 21.097656 18.402344 21.886719 18.128906 22.863281 L 18.078125 22.863281 C 17.839844 21.832031 17.351562 21.027344 16.609375 20.449219 C 15.886719 19.851562 14.980469 19.574219 13.894531 19.609375 Z M 13.894531 19.609375 "/>
<path style=" stroke:none;fill-rule:nonzero;fill:rgb(100%,100%,100%);fill-opacity:1;" d="M 31.589844 10.683594 C 28.574219 10.683594 25.527344 12.609375 25.527344 16.289062 L 26.042969 16.289062 C 26.042969 12.949219 28.832031 11.203125 31.589844 11.203125 C 32.988281 11.203125 34.28125 11.648438 35.222656 12.457031 C 36.285156 13.363281 36.84375 14.691406 36.84375 16.289062 L 37.363281 16.289062 C 37.363281 14.535156 36.738281 13.070312 35.554688 12.058594 C 34.519531 11.171875 33.113281 10.683594 31.589844 10.683594 Z M 31.621094 15.375 C 31.277344 15.375 30.996094 15.652344 30.996094 15.996094 C 30.996094 16.339844 31.273438 16.613281 31.621094 16.613281 C 31.960938 16.613281 32.238281 16.339844 32.238281 15.996094 C 32.238281 15.652344 31.960938 15.375 31.621094 15.375 Z M 14.035156 19.664062 C 13.492188 19.664062 12.980469 19.765625 12.488281 19.964844 C 12.019531 20.144531 11.585938 20.40625 11.1875 20.75 C 10.789062 21.09375 10.453125 21.488281 10.183594 21.941406 C 9.910156 22.394531 9.710938 22.890625 9.585938 23.429688 L 9.53125 23.429688 L 9.53125 19.992188 L 8.988281 19.992188 L 8.988281 33.910156 L 9.53125 33.910156 L 9.53125 26.03125 C 9.53125 25.253906 9.628906 24.515625 9.828125 23.808594 C 10.046875 23.105469 10.347656 22.492188 10.726562 21.96875 C 11.125 21.425781 11.601562 21 12.164062 20.691406 C 12.726562 20.367188 13.347656 20.207031 14.035156 20.207031 C 14.8125 20.207031 15.449219 20.332031 15.9375 20.585938 C 16.425781 20.835938 16.804688 21.179688 17.078125 21.613281 C 17.347656 22.046875 17.53125 22.554688 17.621094 23.132812 C 17.730469 23.707031 17.785156 24.324219 17.785156 24.972656 L 17.785156 33.910156 L 18.328125 33.910156 L 18.328125 25.082031 C 18.328125 24.433594 18.425781 23.820312 18.625 23.242188 C 18.824219 22.644531 19.113281 22.121094 19.492188 21.667969 C 19.871094 21.21875 20.335938 20.863281 20.878906 20.613281 C 21.421875 20.339844 22.027344 20.207031 22.695312 20.207031 C 23.457031 20.207031 24.082031 20.3125 24.570312 20.53125 C 25.078125 20.746094 25.476562 21.054688 25.765625 21.453125 C 26.074219 21.851562 26.28125 22.328125 26.390625 22.886719 C 26.515625 23.449219 26.578125 24.070312 26.578125 24.757812 L 26.597656 29.875 C 26.625 30.433594 26.671875 30.929688 26.84375 31.394531 C 27.097656 32.007812 27.441406 32.53125 27.875 32.964844 C 28.324219 33.382812 28.851562 33.695312 29.449219 33.910156 C 30.0625 34.109375 30.734375 34.210938 31.457031 34.210938 C 32.832031 34.210938 33.945312 33.859375 34.796875 33.15625 C 35.664062 32.453125 36.226562 31.554688 36.476562 30.472656 L 36.535156 30.472656 L 36.535156 33.910156 L 37.074219 33.910156 L 37.074219 19.992188 L 36.535156 19.992188 L 36.535156 27.871094 C 36.535156 28.648438 36.425781 29.390625 36.207031 30.09375 C 35.992188 30.796875 35.664062 31.421875 35.230469 31.964844 C 34.816406 32.488281 34.289062 32.910156 33.65625 33.238281 C 33.023438 33.542969 32.289062 33.695312 31.457031 33.695312 C 30.859375 33.695312 30.289062 33.617188 29.746094 33.453125 C 29.222656 33.273438 28.75 33 28.335938 32.640625 C 27.9375 32.261719 27.621094 31.789062 27.386719 31.230469 C 27.148438 30.652344 27.128906 29.9375 27.128906 29.125 L 27.121094 24.757812 C 27.121094 24 27.046875 23.3125 26.902344 22.699219 C 26.757812 22.066406 26.515625 21.535156 26.171875 21.101562 C 25.828125 20.648438 25.375 20.296875 24.816406 20.042969 C 24.253906 19.792969 23.546875 19.664062 22.695312 19.664062 C 21.609375 19.664062 20.667969 19.960938 19.875 20.558594 C 19.078125 21.152344 18.542969 21.941406 18.269531 22.917969 L 18.21875 22.917969 C 17.984375 21.886719 17.496094 21.082031 16.753906 20.503906 C 16.027344 19.90625 15.121094 19.628906 14.035156 19.664062 Z M 14.035156 19.664062 "/>
</g>
</svg>
