
<svg xmlns="http://www.w3.org/2000/svg" xmlns:xlink="http://www.w3.org/1999/xlink" width="48px" height="48px" viewBox="0 0 48 48" version="1.1">
<g id="surface1">
<path style=" stroke:none;fill-rule:nonzero;fill:rgb(86.27451%,86.27451%,86.27451%);fill-opacity:1;" d="M 10.296875 43.109375 C 45.726562 66.773438 67.546875 -8.691406 21.746094 1.296875 C 2.816406 5.554688 -8.671875 32.253906 10.296875 43.109375 Z M 10.296875 43.109375 "/>
<path style=" stroke:none;fill-rule:nonzero;fill:rgb(66.666667%,66.666667%,66.666667%);fill-opacity:1;" d="M 12.769531 36.644531 C 12.269531 36.523438 12.285156 36.789062 12.285156 28.804688 C 12.285156 20.371094 12.222656 21.011719 13.050781 21.003906 C 13.265625 21.003906 13.464844 20.96875 13.492188 20.925781 C 13.539062 20.851562 14.175781 17.734375 14.949219 13.789062 C 15.148438 12.777344 15.347656 12.03125 15.445312 11.925781 C 15.589844 11.777344 15.820312 11.75 17.136719 11.75 L 18.660156 11.75 L 18.949219 12.175781 C 19.105469 12.40625 19.433594 13.066406 19.679688 13.640625 C 19.925781 14.214844 20.210938 14.863281 20.3125 15.082031 L 20.496094 15.480469 L 20.734375 14.984375 C 20.863281 14.710938 21.09375 14.242188 21.246094 13.941406 C 21.398438 13.640625 21.621094 13.140625 21.746094 12.828125 C 21.867188 12.519531 22.066406 12.148438 22.183594 12.007812 C 22.398438 11.753906 22.414062 11.75 23.917969 11.75 C 25.242188 11.75 25.457031 11.773438 25.609375 11.929688 C 25.84375 12.171875 26.027344 12.9375 26.429688 15.332031 C 27.273438 20.371094 27.433594 21.148438 27.632812 21.183594 C 27.738281 21.203125 27.902344 21.1875 27.996094 21.152344 C 28.144531 21.101562 28.117188 21.046875 27.832031 20.839844 C 27.59375 20.664062 27.488281 20.507812 27.488281 20.3125 C 27.488281 19.910156 28.753906 17.976562 29.046875 17.9375 C 29.175781 17.921875 29.523438 18.070312 29.867188 18.300781 C 30.609375 18.785156 31.300781 18.964844 31.808594 18.808594 C 32.007812 18.75 32.167969 18.636719 32.167969 18.5625 C 32.167969 18.371094 31.902344 18.253906 30.832031 17.964844 C 29.328125 17.554688 28.605469 17.101562 28.148438 16.277344 C 27.753906 15.566406 27.75 14.425781 28.140625 13.636719 C 28.644531 12.625 29.402344 12.019531 30.574219 11.691406 C 31.199219 11.519531 32.761719 11.542969 33.699219 11.742188 C 34.3125 11.871094 35.371094 12.304688 35.484375 12.476562 C 35.65625 12.730469 35.542969 13.125 35.046875 13.988281 C 34.410156 15.105469 34.253906 15.179688 33.359375 14.800781 C 32.765625 14.554688 31.847656 14.4375 31.847656 14.613281 C 31.847656 14.730469 32.460938 15.007812 33.230469 15.242188 C 34.605469 15.660156 35.375 16.191406 35.847656 17.042969 C 36.113281 17.523438 36.164062 18.5625 35.957031 19.234375 C 35.757812 19.867188 35.128906 20.707031 34.570312 21.078125 L 34.191406 21.332031 L 35.042969 21.832031 C 35.957031 22.367188 36.953125 23.324219 37.222656 23.925781 C 37.503906 24.5625 37.398438 25.140625 36.886719 25.714844 C 36.542969 26.101562 35.914062 26.472656 35.601562 26.472656 C 35.167969 26.472656 34.359375 26.160156 33.375 25.617188 C 32.460938 25.109375 31.636719 24.730469 31.636719 24.816406 C 31.636719 24.839844 31.757812 25.109375 31.902344 25.417969 C 32.046875 25.726562 32.167969 26.042969 32.167969 26.125 C 32.167969 26.253906 33.445312 26.878906 35.25 27.628906 C 37.140625 28.414062 38.0625 29.820312 38.042969 31.894531 C 38.03125 33.3125 37.523438 34.429688 36.542969 35.203125 C 35.761719 35.820312 35.15625 36.066406 33.550781 36.421875 C 31.421875 36.890625 30.414062 36.804688 28.699219 36.007812 C 28.53125 35.929688 28.394531 35.941406 28.152344 36.058594 C 27.546875 36.351562 25.988281 36.714844 25.339844 36.714844 C 24.546875 36.714844 23.652344 36.507812 22.519531 36.054688 L 21.644531 35.707031 L 21.191406 36.050781 C 20.28125 36.738281 20.429688 36.71875 16.515625 36.707031 C 14.570312 36.699219 12.882812 36.671875 12.769531 36.644531 Z M 18.929688 32.367188 C 18.316406 30.980469 18.085938 29.785156 18.171875 28.464844 C 18.210938 27.890625 18.269531 27.25 18.304688 27.042969 L 18.367188 26.671875 L 16.644531 26.671875 L 16.644531 32.539062 L 17.824219 32.539062 C 18.90625 32.539062 19 32.523438 18.929688 32.367188 Z M 26.1875 30.507812 C 26.554688 29.964844 26.691406 29.847656 27.066406 29.742188 C 27.363281 29.660156 27.542969 29.539062 27.605469 29.382812 C 27.761719 29 27.722656 28.890625 27.378906 28.757812 C 27.199219 28.6875 26.792969 28.382812 26.472656 28.074219 C 25.816406 27.449219 25.46875 26.730469 25.46875 26.015625 C 25.46875 25.601562 25.449219 25.566406 25.230469 25.59375 C 24.996094 25.625 24.992188 25.652344 25.027344 26.621094 C 25.066406 27.734375 24.925781 28.902344 24.597656 30.136719 C 24.339844 31.105469 24.363281 31.144531 25.210938 31.144531 L 25.75 31.148438 Z M 32.910156 30.953125 C 33.035156 30.878906 33.003906 30.835938 32.757812 30.75 C 32.460938 30.644531 32.28125 30.726562 32.277344 30.972656 C 32.273438 31.078125 32.722656 31.0625 32.910156 30.953125 Z M 23.554688 20.902344 C 23.554688 20.640625 23.292969 19.109375 23.148438 18.515625 L 23.0625 18.167969 L 22.726562 18.777344 C 22.363281 19.441406 21.640625 21.039062 21.644531 21.171875 C 21.644531 21.214844 21.792969 21.347656 21.96875 21.460938 L 22.292969 21.675781 L 22.925781 21.414062 C 23.453125 21.195312 23.554688 21.113281 23.554688 20.902344 Z M 19.195312 20.804688 C 19.195312 20.75 19.023438 20.355469 18.808594 19.933594 C 18.597656 19.507812 18.308594 18.921875 18.167969 18.628906 C 18.027344 18.332031 17.890625 18.113281 17.867188 18.136719 C 17.828125 18.167969 17.386719 20.582031 17.386719 20.746094 C 17.386719 20.820312 17.832031 20.875 18.53125 20.890625 C 18.910156 20.898438 19.195312 20.859375 19.195312 20.804688 Z M 19.195312 20.804688 "/>
<path style=" stroke:none;fill-rule:nonzero;fill:rgb(87.058824%,87.058824%,0%);fill-opacity:1;" d="M 13.71875 36.546875 C 13.195312 36.53125 12.65625 36.464844 12.523438 36.402344 L 12.285156 36.285156 L 12.285156 28.796875 C 12.285156 22.917969 12.3125 21.296875 12.417969 21.234375 C 12.492188 21.191406 12.789062 21.132812 13.082031 21.101562 L 13.613281 21.050781 L 14.164062 18.316406 C 14.46875 16.8125 14.867188 14.824219 15.046875 13.898438 C 15.230469 12.972656 15.425781 12.132812 15.484375 12.035156 C 15.578125 11.871094 15.742188 11.851562 17.046875 11.851562 C 17.847656 11.855469 18.558594 11.886719 18.625 11.925781 C 18.785156 12.027344 19.164062 12.742188 19.476562 13.535156 C 19.921875 14.660156 20.402344 15.636719 20.496094 15.605469 C 20.59375 15.578125 21.480469 13.804688 21.929688 12.746094 C 22.078125 12.390625 22.25 12.042969 22.308594 11.976562 C 22.382812 11.886719 22.84375 11.851562 23.945312 11.851562 L 25.480469 11.851562 L 25.617188 12.175781 C 25.746094 12.46875 26.34375 15.671875 26.792969 18.464844 C 27.203125 21 27.28125 21.296875 27.558594 21.363281 C 27.828125 21.425781 28.445312 21.238281 28.445312 21.09375 C 28.445312 21.046875 28.300781 20.9375 28.125 20.851562 C 27.601562 20.597656 27.527344 20.3125 27.832031 19.746094 C 28.226562 19.011719 28.867188 18.113281 29.035156 18.050781 C 29.117188 18.023438 29.480469 18.179688 29.835938 18.40625 C 30.195312 18.628906 30.683594 18.859375 30.921875 18.921875 C 31.617188 19.097656 32.273438 18.898438 32.273438 18.515625 C 32.273438 18.25 32.058594 18.132812 31.144531 17.910156 C 29.417969 17.488281 28.449219 16.867188 28.117188 15.96875 C 27.890625 15.359375 27.953125 14.230469 28.246094 13.667969 C 28.945312 12.316406 30.488281 11.484375 32.125 11.578125 C 33.554688 11.65625 35.375 12.277344 35.441406 12.703125 C 35.484375 12.976562 34.546875 14.609375 34.238281 14.796875 C 34.011719 14.933594 33.949219 14.925781 33.433594 14.679688 C 32.828125 14.394531 31.949219 14.304688 31.730469 14.507812 C 31.515625 14.710938 31.792969 14.902344 32.734375 15.191406 C 34.652344 15.78125 35.269531 16.175781 35.746094 17.117188 C 35.980469 17.582031 35.980469 18.707031 35.746094 19.367188 C 35.539062 19.953125 34.679688 20.910156 34.191406 21.097656 C 33.78125 21.261719 33.785156 21.363281 34.214844 21.53125 C 35.425781 22.011719 36.765625 23.171875 37.128906 24.058594 C 37.375 24.660156 37.199219 25.175781 36.53125 25.800781 C 36.066406 26.238281 35.988281 26.273438 35.507812 26.269531 C 34.960938 26.269531 34.539062 26.097656 32.777344 25.164062 C 31.808594 24.652344 31.464844 24.546875 31.496094 24.78125 C 31.507812 24.863281 31.652344 25.242188 31.816406 25.621094 C 32.15625 26.40625 32.417969 26.605469 33.835938 27.167969 C 35.554688 27.847656 35.800781 27.964844 36.40625 28.402344 C 37.117188 28.914062 37.515625 29.574219 37.761719 30.648438 C 38.050781 31.929688 37.890625 33.03125 37.25 34.152344 C 36.910156 34.746094 36.199219 35.371094 35.464844 35.71875 C 34.742188 36.058594 32.902344 36.441406 31.730469 36.492188 C 30.535156 36.546875 30.265625 36.496094 29.160156 36.042969 L 28.546875 35.792969 L 27.511719 36.125 C 25.667969 36.722656 24.164062 36.644531 22.410156 35.859375 L 21.636719 35.511719 L 21.203125 35.859375 C 20.328125 36.558594 20.285156 36.566406 17.335938 36.574219 C 15.871094 36.578125 14.246094 36.566406 13.71875 36.546875 Z M 19.050781 32.402344 C 19.019531 32.285156 18.871094 31.871094 18.722656 31.480469 C 18.242188 30.207031 18.125 28.761719 18.394531 27.367188 C 18.472656 26.957031 18.503906 26.585938 18.457031 26.542969 C 18.414062 26.5 17.976562 26.476562 17.484375 26.492188 L 16.589844 26.523438 L 16.535156 32.632812 L 17.679688 32.660156 C 19.039062 32.695312 19.125 32.675781 19.050781 32.402344 Z M 25.570312 31.28125 C 25.804688 31.238281 25.945312 31.136719 26.015625 30.960938 C 26.210938 30.484375 26.664062 30.03125 27.140625 29.832031 C 27.496094 29.6875 27.65625 29.546875 27.773438 29.277344 C 27.953125 28.878906 27.996094 28.933594 27.171875 28.464844 C 26.191406 27.90625 25.574219 26.878906 25.574219 25.804688 C 25.574219 25.460938 25.539062 25.378906 25.382812 25.378906 C 25.277344 25.378906 25.105469 25.4375 24.996094 25.511719 C 24.832031 25.621094 24.8125 25.746094 24.855469 26.332031 C 24.929688 27.339844 24.773438 28.761719 24.457031 29.992188 C 24.300781 30.585938 24.214844 31.109375 24.265625 31.152344 C 24.339844 31.21875 24.511719 31.257812 25.109375 31.332031 C 25.175781 31.339844 25.382812 31.316406 25.570312 31.28125 Z M 33.046875 31.03125 C 33.328125 30.894531 33.273438 30.792969 32.8125 30.625 C 32.496094 30.507812 32.363281 30.5 32.289062 30.585938 C 32.195312 30.691406 32.128906 30.992188 32.15625 31.179688 C 32.167969 31.269531 32.753906 31.175781 33.046875 31.03125 Z M 22.992188 21.523438 C 23.355469 21.375 23.671875 21.207031 23.695312 21.152344 C 23.757812 21 23.234375 17.980469 23.128906 17.878906 C 23.074219 17.828125 22.847656 18.164062 22.589844 18.675781 C 22.089844 19.675781 21.429688 21.113281 21.429688 21.207031 C 21.429688 21.269531 22.183594 21.796875 22.277344 21.796875 C 22.308594 21.800781 22.628906 21.675781 22.992188 21.523438 Z M 19.300781 20.84375 C 19.300781 20.578125 17.886719 17.710938 17.796875 17.792969 C 17.683594 17.902344 17.160156 20.800781 17.234375 20.914062 C 17.269531 20.960938 17.746094 21 18.296875 21 C 19.144531 21 19.300781 20.976562 19.300781 20.84375 Z M 32.769531 20.558594 C 33.484375 20.355469 34.289062 19.84375 34.546875 19.425781 C 34.847656 18.9375 34.902344 17.78125 34.648438 17.320312 C 34.402344 16.875 33.578125 16.414062 32.628906 16.1875 C 31.082031 15.816406 30.574219 15.449219 30.574219 14.691406 C 30.574219 13.667969 31.625 13.214844 33.125 13.59375 C 33.445312 13.671875 33.746094 13.738281 33.789062 13.738281 C 33.867188 13.742188 34.214844 13.039062 34.160156 12.988281 C 34.144531 12.972656 33.726562 12.859375 33.230469 12.742188 C 31.53125 12.328125 30.375 12.519531 29.578125 13.347656 C 29.039062 13.910156 28.921875 14.316406 29 15.335938 C 29.070312 16.269531 29.40625 16.519531 31.210938 16.980469 C 32.136719 17.21875 32.617188 17.449219 32.953125 17.824219 C 33.460938 18.390625 33.203125 19.210938 32.382812 19.628906 C 31.808594 19.921875 30.78125 19.84375 29.953125 19.441406 C 29.253906 19.105469 29.25 19.105469 28.933594 19.691406 C 28.714844 20.09375 28.796875 20.214844 29.441406 20.445312 C 30.511719 20.828125 31.683594 20.867188 32.769531 20.558594 Z M 16.105469 20.445312 C 16.207031 20.34375 16.855469 16.890625 16.855469 16.445312 C 16.855469 15.179688 17.828125 15.140625 18.304688 16.386719 C 18.425781 16.710938 18.71875 17.355469 18.957031 17.820312 C 19.195312 18.285156 19.539062 19.035156 19.726562 19.484375 C 19.910156 19.9375 20.136719 20.375 20.226562 20.457031 C 20.515625 20.730469 20.460938 20.824219 22.1875 17.132812 C 23.019531 15.351562 23.148438 15.214844 23.644531 15.605469 C 23.878906 15.789062 24.132812 17.082031 24.398438 19.40625 C 24.464844 20.007812 24.570312 20.476562 24.648438 20.523438 C 24.761719 20.597656 25.847656 20.535156 26.011719 20.445312 C 26.042969 20.429688 25.960938 19.820312 25.828125 19.089844 C 25.449219 17.039062 25.183594 15.492188 24.988281 14.1875 C 24.886719 13.53125 24.777344 12.964844 24.738281 12.925781 C 24.703125 12.886719 24.289062 12.824219 23.820312 12.789062 L 22.96875 12.722656 L 22.519531 13.621094 C 22.273438 14.117188 21.957031 14.804688 21.816406 15.152344 C 21.679688 15.496094 21.367188 16.148438 21.125 16.601562 C 20.757812 17.28125 20.640625 17.421875 20.429688 17.421875 C 20.292969 17.421875 20.125 17.359375 20.058594 17.285156 C 19.960938 17.171875 19.238281 15.558594 18.300781 13.34375 L 18.066406 12.796875 L 17.179688 12.765625 C 16.691406 12.75 16.253906 12.773438 16.210938 12.816406 C 16.164062 12.859375 16.074219 13.253906 16.011719 13.691406 C 15.949219 14.128906 15.660156 15.628906 15.375 17.023438 C 14.800781 19.824219 14.699219 20.445312 14.8125 20.550781 C 14.914062 20.648438 15.988281 20.5625 16.105469 20.445312 Z M 16.105469 20.445312 "/>
<path style=" stroke:none;fill-rule:nonzero;fill:rgb(56.862745%,0%,67.058824%);fill-opacity:1;" d="M 13.71875 36.546875 C 13.195312 36.53125 12.65625 36.464844 12.523438 36.402344 L 12.285156 36.285156 L 12.285156 28.796875 C 12.285156 22.917969 12.3125 21.296875 12.417969 21.234375 C 12.492188 21.191406 12.789062 21.132812 13.082031 21.101562 L 13.613281 21.050781 L 14.164062 18.316406 C 14.46875 16.8125 14.867188 14.824219 15.046875 13.898438 C 15.230469 12.972656 15.425781 12.132812 15.484375 12.035156 C 15.578125 11.871094 15.742188 11.851562 17.046875 11.851562 C 17.847656 11.855469 18.558594 11.886719 18.625 11.925781 C 18.785156 12.027344 19.164062 12.742188 19.476562 13.535156 C 19.921875 14.660156 20.402344 15.636719 20.496094 15.605469 C 20.59375 15.578125 21.480469 13.804688 21.929688 12.746094 C 22.078125 12.390625 22.25 12.042969 22.308594 11.976562 C 22.382812 11.886719 22.84375 11.851562 23.945312 11.851562 L 25.480469 11.851562 L 25.617188 12.175781 C 25.746094 12.46875 26.34375 15.671875 26.792969 18.464844 C 27.203125 21 27.28125 21.296875 27.558594 21.363281 C 27.828125 21.425781 28.445312 21.238281 28.445312 21.09375 C 28.445312 21.046875 28.300781 20.9375 28.125 20.851562 C 27.601562 20.597656 27.527344 20.3125 27.832031 19.746094 C 28.226562 19.011719 28.867188 18.113281 29.035156 18.050781 C 29.117188 18.023438 29.480469 18.179688 29.835938 18.40625 C 30.195312 18.628906 30.683594 18.859375 30.921875 18.921875 C 31.617188 19.097656 32.273438 18.898438 32.273438 18.515625 C 32.273438 18.25 32.058594 18.132812 31.144531 17.910156 C 29.417969 17.488281 28.449219 16.867188 28.117188 15.96875 C 27.890625 15.359375 27.953125 14.230469 28.246094 13.667969 C 28.945312 12.316406 30.488281 11.484375 32.125 11.578125 C 33.554688 11.65625 35.375 12.277344 35.441406 12.703125 C 35.484375 12.976562 34.546875 14.609375 34.238281 14.796875 C 34.011719 14.933594 33.949219 14.925781 33.433594 14.679688 C 32.828125 14.394531 31.949219 14.304688 31.730469 14.507812 C 31.515625 14.710938 31.792969 14.902344 32.734375 15.191406 C 34.652344 15.78125 35.269531 16.175781 35.746094 17.117188 C 35.980469 17.582031 35.980469 18.707031 35.746094 19.367188 C 35.539062 19.953125 34.679688 20.910156 34.191406 21.097656 C 33.78125 21.261719 33.785156 21.363281 34.214844 21.53125 C 35.425781 22.011719 36.765625 23.171875 37.128906 24.058594 C 37.375 24.660156 37.199219 25.175781 36.53125 25.800781 C 36.066406 26.238281 35.988281 26.273438 35.507812 26.269531 C 34.960938 26.269531 34.539062 26.097656 32.777344 25.164062 C 31.808594 24.652344 31.464844 24.546875 31.496094 24.78125 C 31.507812 24.863281 31.652344 25.242188 31.816406 25.621094 C 32.15625 26.40625 32.417969 26.605469 33.835938 27.167969 C 35.554688 27.847656 35.800781 27.964844 36.40625 28.402344 C 37.117188 28.914062 37.515625 29.574219 37.761719 30.648438 C 38.050781 31.929688 37.890625 33.03125 37.25 34.152344 C 36.910156 34.746094 36.199219 35.371094 35.464844 35.71875 C 34.742188 36.058594 32.902344 36.441406 31.730469 36.492188 C 30.535156 36.546875 30.265625 36.496094 29.160156 36.042969 L 28.546875 35.792969 L 27.511719 36.125 C 25.667969 36.722656 24.164062 36.644531 22.410156 35.859375 L 21.636719 35.511719 L 21.203125 35.859375 C 20.328125 36.558594 20.285156 36.566406 17.335938 36.574219 C 15.871094 36.578125 14.246094 36.566406 13.71875 36.546875 Z M 32.804688 35.511719 C 33.128906 35.457031 33.84375 35.269531 34.402344 35.097656 C 35.242188 34.832031 35.488281 34.703125 35.878906 34.332031 C 36.574219 33.667969 36.878906 32.972656 36.933594 31.925781 C 36.96875 31.242188 36.929688 30.917969 36.753906 30.363281 C 36.417969 29.332031 35.898438 28.894531 34.136719 28.152344 C 32.371094 27.410156 32.332031 27.410156 32.417969 28.089844 C 32.457031 28.375 32.484375 28.824219 32.488281 29.082031 C 32.488281 29.394531 32.53125 29.554688 32.621094 29.554688 C 32.917969 29.558594 33.835938 30.042969 34.007812 30.289062 C 34.539062 31.042969 34.210938 31.609375 33.078125 31.894531 C 31.71875 32.238281 30.253906 31.972656 28.855469 31.128906 C 28.117188 30.679688 27.460938 30.542969 27.136719 30.769531 C 26.75 31.039062 26.613281 32.410156 26.917969 32.96875 C 27.324219 33.710938 28.613281 34.796875 29.660156 35.273438 C 30.609375 35.710938 31.3125 35.761719 32.804688 35.511719 Z M 19.050781 32.402344 C 19.019531 32.285156 18.871094 31.871094 18.722656 31.480469 C 18.242188 30.207031 18.125 28.761719 18.394531 27.367188 C 18.472656 26.957031 18.503906 26.585938 18.457031 26.542969 C 18.414062 26.5 17.976562 26.476562 17.484375 26.492188 L 16.589844 26.523438 L 16.535156 32.632812 L 17.679688 32.660156 C 19.039062 32.695312 19.125 32.675781 19.050781 32.402344 Z M 25.570312 31.28125 C 25.804688 31.238281 25.945312 31.136719 26.015625 30.960938 C 26.210938 30.484375 26.664062 30.03125 27.140625 29.832031 C 27.496094 29.6875 27.65625 29.546875 27.773438 29.277344 C 27.953125 28.878906 27.996094 28.933594 27.171875 28.464844 C 26.191406 27.90625 25.574219 26.878906 25.574219 25.804688 C 25.574219 25.460938 25.539062 25.378906 25.382812 25.378906 C 25.277344 25.378906 25.105469 25.4375 24.996094 25.511719 C 24.832031 25.621094 24.8125 25.746094 24.855469 26.332031 C 24.929688 27.339844 24.773438 28.761719 24.457031 29.992188 C 24.300781 30.585938 24.214844 31.109375 24.265625 31.152344 C 24.339844 31.21875 24.511719 31.257812 25.109375 31.332031 C 25.175781 31.339844 25.382812 31.316406 25.570312 31.28125 Z M 33.046875 31.03125 C 33.328125 30.894531 33.273438 30.792969 32.8125 30.625 C 32.496094 30.507812 32.363281 30.5 32.289062 30.585938 C 32.195312 30.691406 32.128906 30.992188 32.15625 31.179688 C 32.167969 31.269531 32.753906 31.175781 33.046875 31.03125 Z M 28.953125 27.355469 C 29.453125 26.460938 29.507812 25.929688 29.15625 25.445312 C 28.402344 24.402344 28.941406 23.585938 30.382812 23.589844 C 31.316406 23.589844 32.5 23.988281 34.082031 24.839844 C 35.089844 25.378906 35.574219 25.476562 35.878906 25.191406 C 36 25.078125 36.128906 24.863281 36.167969 24.714844 C 36.269531 24.339844 35.78125 23.492188 35.207031 23.050781 C 34.101562 22.207031 33.089844 21.964844 30.574219 21.953125 C 28.539062 21.945312 28.269531 22.023438 27.5 22.863281 C 26.792969 23.632812 26.601562 24.226562 26.617188 25.5625 C 26.625 26.410156 26.671875 26.753906 26.800781 26.933594 C 27.027344 27.261719 28.230469 28.078125 28.429688 28.042969 C 28.515625 28.027344 28.753906 27.71875 28.953125 27.355469 Z M 22.992188 21.523438 C 23.355469 21.375 23.671875 21.207031 23.695312 21.152344 C 23.757812 21 23.234375 17.980469 23.128906 17.878906 C 23.074219 17.828125 22.847656 18.164062 22.589844 18.675781 C 22.089844 19.675781 21.429688 21.113281 21.429688 21.207031 C 21.429688 21.269531 22.183594 21.796875 22.277344 21.796875 C 22.308594 21.800781 22.628906 21.675781 22.992188 21.523438 Z M 19.300781 20.84375 C 19.300781 20.578125 17.886719 17.710938 17.796875 17.792969 C 17.683594 17.902344 17.160156 20.800781 17.234375 20.914062 C 17.269531 20.960938 17.746094 21 18.296875 21 C 19.144531 21 19.300781 20.976562 19.300781 20.84375 Z M 32.769531 20.558594 C 33.484375 20.355469 34.289062 19.84375 34.546875 19.425781 C 34.847656 18.9375 34.902344 17.78125 34.648438 17.320312 C 34.402344 16.875 33.578125 16.414062 32.628906 16.1875 C 31.082031 15.816406 30.574219 15.449219 30.574219 14.691406 C 30.574219 13.667969 31.625 13.214844 33.125 13.59375 C 33.445312 13.671875 33.746094 13.738281 33.789062 13.738281 C 33.867188 13.742188 34.214844 13.039062 34.160156 12.988281 C 34.144531 12.972656 33.726562 12.859375 33.230469 12.742188 C 31.53125 12.328125 30.375 12.519531 29.578125 13.347656 C 29.039062 13.910156 28.921875 14.316406 29 15.335938 C 29.070312 16.269531 29.40625 16.519531 31.210938 16.980469 C 32.136719 17.21875 32.617188 17.449219 32.953125 17.824219 C 33.460938 18.390625 33.203125 19.210938 32.382812 19.628906 C 31.808594 19.921875 30.78125 19.84375 29.953125 19.441406 C 29.253906 19.105469 29.25 19.105469 28.933594 19.691406 C 28.714844 20.09375 28.796875 20.214844 29.441406 20.445312 C 30.511719 20.828125 31.683594 20.867188 32.769531 20.558594 Z M 16.105469 20.445312 C 16.207031 20.34375 16.855469 16.890625 16.855469 16.445312 C 16.855469 15.179688 17.828125 15.140625 18.304688 16.386719 C 18.425781 16.710938 18.71875 17.355469 18.957031 17.820312 C 19.195312 18.285156 19.539062 19.035156 19.726562 19.484375 C 19.910156 19.9375 20.136719 20.375 20.226562 20.457031 C 20.515625 20.730469 20.460938 20.824219 22.1875 17.132812 C 23.019531 15.351562 23.148438 15.214844 23.644531 15.605469 C 23.878906 15.789062 24.132812 17.082031 24.398438 19.40625 C 24.464844 20.007812 24.570312 20.476562 24.648438 20.523438 C 24.761719 20.597656 25.847656 20.535156 26.011719 20.445312 C 26.042969 20.429688 25.960938 19.820312 25.828125 19.089844 C 25.449219 17.039062 25.183594 15.492188 24.988281 14.1875 C 24.886719 13.53125 24.777344 12.964844 24.738281 12.925781 C 24.703125 12.886719 24.289062 12.824219 23.820312 12.789062 L 22.96875 12.722656 L 22.519531 13.621094 C 22.273438 14.117188 21.957031 14.804688 21.816406 15.152344 C 21.679688 15.496094 21.367188 16.148438 21.125 16.601562 C 20.757812 17.28125 20.640625 17.421875 20.429688 17.421875 C 20.292969 17.421875 20.125 17.359375 20.058594 17.285156 C 19.960938 17.171875 19.238281 15.558594 18.300781 13.34375 L 18.066406 12.796875 L 17.179688 12.765625 C 16.691406 12.75 16.253906 12.773438 16.210938 12.816406 C 16.164062 12.859375 16.074219 13.253906 16.011719 13.691406 C 15.949219 14.128906 15.660156 15.628906 15.375 17.023438 C 14.800781 19.824219 14.699219 20.445312 14.8125 20.550781 C 14.914062 20.648438 15.988281 20.5625 16.105469 20.445312 Z M 16.105469 20.445312 "/>
<path style=" stroke:none;fill-rule:nonzero;fill:rgb(37.647059%,37.647059%,37.647059%);fill-opacity:1;" d="M 13.71875 36.546875 C 13.195312 36.53125 12.65625 36.464844 12.523438 36.402344 L 12.285156 36.285156 L 12.285156 28.796875 C 12.285156 22.917969 12.3125 21.296875 12.417969 21.234375 C 12.492188 21.191406 12.789062 21.132812 13.082031 21.101562 L 13.613281 21.050781 L 14.164062 18.316406 C 14.46875 16.8125 14.867188 14.824219 15.046875 13.898438 C 15.230469 12.972656 15.425781 12.132812 15.484375 12.035156 C 15.578125 11.871094 15.742188 11.851562 17.046875 11.851562 C 17.847656 11.855469 18.558594 11.886719 18.625 11.925781 C 18.785156 12.027344 19.164062 12.742188 19.476562 13.535156 C 19.921875 14.660156 20.402344 15.636719 20.496094 15.605469 C 20.59375 15.578125 21.480469 13.804688 21.929688 12.746094 C 22.078125 12.390625 22.25 12.042969 22.308594 11.976562 C 22.382812 11.886719 22.84375 11.851562 23.945312 11.851562 L 25.480469 11.851562 L 25.617188 12.175781 C 25.746094 12.46875 26.34375 15.671875 26.792969 18.464844 C 27.203125 21 27.28125 21.296875 27.558594 21.363281 C 27.828125 21.425781 28.445312 21.238281 28.445312 21.09375 C 28.445312 21.046875 28.300781 20.9375 28.125 20.851562 C 27.601562 20.597656 27.527344 20.3125 27.832031 19.746094 C 28.226562 19.011719 28.867188 18.113281 29.035156 18.050781 C 29.117188 18.023438 29.480469 18.179688 29.835938 18.40625 C 30.195312 18.628906 30.683594 18.859375 30.921875 18.921875 C 31.617188 19.097656 32.273438 18.898438 32.273438 18.515625 C 32.273438 18.25 32.058594 18.132812 31.144531 17.910156 C 29.417969 17.488281 28.449219 16.867188 28.117188 15.96875 C 27.890625 15.359375 27.953125 14.230469 28.246094 13.667969 C 28.945312 12.316406 30.488281 11.484375 32.125 11.578125 C 33.554688 11.65625 35.375 12.277344 35.441406 12.703125 C 35.484375 12.976562 34.546875 14.609375 34.238281 14.796875 C 34.011719 14.933594 33.949219 14.925781 33.433594 14.679688 C 32.828125 14.394531 31.949219 14.304688 31.730469 14.507812 C 31.515625 14.710938 31.792969 14.902344 32.734375 15.191406 C 34.652344 15.78125 35.269531 16.175781 35.746094 17.117188 C 35.980469 17.582031 35.980469 18.707031 35.746094 19.367188 C 35.539062 19.953125 34.679688 20.910156 34.191406 21.097656 C 33.78125 21.261719 33.785156 21.363281 34.214844 21.53125 C 35.425781 22.011719 36.765625 23.171875 37.128906 24.058594 C 37.375 24.660156 37.199219 25.175781 36.53125 25.800781 C 36.066406 26.238281 35.988281 26.273438 35.507812 26.269531 C 34.960938 26.269531 34.539062 26.097656 32.777344 25.164062 C 31.808594 24.652344 31.464844 24.546875 31.496094 24.78125 C 31.507812 24.863281 31.652344 25.242188 31.816406 25.621094 C 32.15625 26.40625 32.417969 26.605469 33.835938 27.167969 C 35.554688 27.847656 35.800781 27.964844 36.40625 28.402344 C 37.117188 28.914062 37.515625 29.574219 37.761719 30.648438 C 38.050781 31.929688 37.890625 33.03125 37.25 34.152344 C 36.910156 34.746094 36.199219 35.371094 35.464844 35.71875 C 34.742188 36.058594 32.902344 36.441406 31.730469 36.492188 C 30.535156 36.546875 30.265625 36.496094 29.160156 36.042969 L 28.546875 35.792969 L 27.511719 36.125 C 25.667969 36.722656 24.164062 36.644531 22.410156 35.859375 L 21.636719 35.511719 L 21.203125 35.859375 C 20.328125 36.558594 20.285156 36.566406 17.335938 36.574219 C 15.871094 36.578125 14.246094 36.566406 13.71875 36.546875 Z M 32.804688 35.511719 C 33.128906 35.457031 33.84375 35.269531 34.402344 35.097656 C 35.242188 34.832031 35.488281 34.703125 35.878906 34.332031 C 36.574219 33.667969 36.878906 32.972656 36.933594 31.925781 C 36.96875 31.242188 36.929688 30.917969 36.753906 30.363281 C 36.417969 29.332031 35.898438 28.894531 34.136719 28.152344 C 32.371094 27.410156 32.332031 27.410156 32.417969 28.089844 C 32.457031 28.375 32.484375 28.824219 32.488281 29.082031 C 32.488281 29.394531 32.53125 29.554688 32.621094 29.554688 C 32.917969 29.558594 33.835938 30.042969 34.007812 30.289062 C 34.539062 31.042969 34.210938 31.609375 33.078125 31.894531 C 31.71875 32.238281 30.253906 31.972656 28.855469 31.128906 C 28.117188 30.679688 27.460938 30.542969 27.136719 30.769531 C 26.75 31.039062 26.613281 32.410156 26.917969 32.96875 C 27.324219 33.710938 28.613281 34.796875 29.660156 35.273438 C 30.609375 35.710938 31.3125 35.761719 32.804688 35.511719 Z M 24.992188 34.722656 C 26 34.585938 26.53125 34.445312 26.53125 34.308594 C 26.53125 34.25 26.410156 34.050781 26.261719 33.867188 C 25.960938 33.496094 25.683594 32.832031 25.683594 32.476562 C 25.683594 32.261719 25.636719 32.242188 25.175781 32.238281 C 24.898438 32.238281 24.496094 32.210938 24.28125 32.179688 L 23.890625 32.117188 L 23.410156 33.050781 C 23.144531 33.5625 22.824219 34.125 22.699219 34.304688 C 22.453125 34.65625 22.476562 34.683594 23.078125 34.757812 C 23.6875 34.832031 24.25 34.824219 24.992188 34.722656 Z M 19.050781 32.402344 C 19.019531 32.285156 18.871094 31.871094 18.722656 31.480469 C 18.242188 30.207031 18.125 28.761719 18.394531 27.367188 C 18.472656 26.957031 18.503906 26.585938 18.457031 26.542969 C 18.414062 26.5 17.976562 26.476562 17.484375 26.492188 L 16.589844 26.523438 L 16.535156 32.632812 L 17.679688 32.660156 C 19.039062 32.695312 19.125 32.675781 19.050781 32.402344 Z M 20.359375 31.191406 C 20.59375 30.75 20.628906 30.535156 20.683594 29.058594 C 20.734375 27.609375 20.769531 27.367188 20.984375 26.988281 C 22.148438 24.929688 23.625 23.785156 25.125 23.785156 L 25.75 23.785156 L 26.199219 22.980469 C 26.449219 22.535156 26.628906 22.152344 26.601562 22.128906 C 26.574219 22.101562 26.199219 22.058594 25.769531 22.027344 C 24.832031 21.960938 23.515625 22.230469 22.753906 22.648438 C 21.617188 23.273438 20.234375 24.894531 19.789062 26.117188 C 19.46875 26.996094 19.273438 28.363281 19.339844 29.257812 C 19.394531 30.046875 19.664062 31.46875 19.796875 31.667969 C 19.910156 31.839844 20.105469 31.675781 20.359375 31.191406 Z M 25.570312 31.28125 C 25.804688 31.238281 25.945312 31.136719 26.015625 30.960938 C 26.210938 30.484375 26.664062 30.03125 27.140625 29.832031 C 27.496094 29.6875 27.65625 29.546875 27.773438 29.277344 C 27.953125 28.878906 27.996094 28.933594 27.171875 28.464844 C 26.191406 27.90625 25.574219 26.878906 25.574219 25.804688 C 25.574219 25.460938 25.539062 25.378906 25.382812 25.378906 C 25.277344 25.378906 25.105469 25.4375 24.996094 25.511719 C 24.832031 25.621094 24.8125 25.746094 24.855469 26.332031 C 24.929688 27.339844 24.773438 28.761719 24.457031 29.992188 C 24.300781 30.585938 24.214844 31.109375 24.265625 31.152344 C 24.339844 31.21875 24.511719 31.257812 25.109375 31.332031 C 25.175781 31.339844 25.382812 31.316406 25.570312 31.28125 Z M 33.046875 31.03125 C 33.328125 30.894531 33.273438 30.792969 32.8125 30.625 C 32.496094 30.507812 32.363281 30.5 32.289062 30.585938 C 32.195312 30.691406 32.128906 30.992188 32.15625 31.179688 C 32.167969 31.269531 32.753906 31.175781 33.046875 31.03125 Z M 31.019531 30.382812 C 31.585938 29.183594 31.390625 26.789062 30.609375 25.347656 C 30.292969 24.761719 30.199219 24.789062 30.378906 25.410156 C 30.625 26.269531 30.285156 27.285156 29.191406 28.957031 C 28.601562 29.867188 28.609375 29.832031 28.886719 30.050781 C 29.214844 30.308594 30.359375 30.835938 30.605469 30.84375 C 30.734375 30.847656 30.871094 30.695312 31.019531 30.382812 Z M 28.953125 27.355469 C 29.453125 26.460938 29.507812 25.929688 29.15625 25.445312 C 28.402344 24.402344 28.941406 23.585938 30.382812 23.589844 C 31.316406 23.589844 32.5 23.988281 34.082031 24.839844 C 35.089844 25.378906 35.574219 25.476562 35.878906 25.191406 C 36 25.078125 36.128906 24.863281 36.167969 24.714844 C 36.269531 24.339844 35.78125 23.492188 35.207031 23.050781 C 34.101562 22.207031 33.089844 21.964844 30.574219 21.953125 C 28.539062 21.945312 28.269531 22.023438 27.5 22.863281 C 26.792969 23.632812 26.601562 24.226562 26.617188 25.5625 C 26.625 26.410156 26.671875 26.753906 26.800781 26.933594 C 27.027344 27.261719 28.230469 28.078125 28.429688 28.042969 C 28.515625 28.027344 28.753906 27.71875 28.953125 27.355469 Z M 22.992188 21.523438 C 23.355469 21.375 23.671875 21.207031 23.695312 21.152344 C 23.757812 21 23.234375 17.980469 23.128906 17.878906 C 23.074219 17.828125 22.847656 18.164062 22.589844 18.675781 C 22.089844 19.675781 21.429688 21.113281 21.429688 21.207031 C 21.429688 21.269531 22.183594 21.796875 22.277344 21.796875 C 22.308594 21.800781 22.628906 21.675781 22.992188 21.523438 Z M 19.300781 20.84375 C 19.300781 20.578125 17.886719 17.710938 17.796875 17.792969 C 17.683594 17.902344 17.160156 20.800781 17.234375 20.914062 C 17.269531 20.960938 17.746094 21 18.296875 21 C 19.144531 21 19.300781 20.976562 19.300781 20.84375 Z M 32.769531 20.558594 C 33.484375 20.355469 34.289062 19.84375 34.546875 19.425781 C 34.847656 18.9375 34.902344 17.78125 34.648438 17.320312 C 34.402344 16.875 33.578125 16.414062 32.628906 16.1875 C 31.082031 15.816406 30.574219 15.449219 30.574219 14.691406 C 30.574219 13.667969 31.625 13.214844 33.125 13.59375 C 33.445312 13.671875 33.746094 13.738281 33.789062 13.738281 C 33.867188 13.742188 34.214844 13.039062 34.160156 12.988281 C 34.144531 12.972656 33.726562 12.859375 33.230469 12.742188 C 31.53125 12.328125 30.375 12.519531 29.578125 13.347656 C 29.039062 13.910156 28.921875 14.316406 29 15.335938 C 29.070312 16.269531 29.40625 16.519531 31.210938 16.980469 C 32.136719 17.21875 32.617188 17.449219 32.953125 17.824219 C 33.460938 18.390625 33.203125 19.210938 32.382812 19.628906 C 31.808594 19.921875 30.78125 19.84375 29.953125 19.441406 C 29.253906 19.105469 29.25 19.105469 28.933594 19.691406 C 28.714844 20.09375 28.796875 20.214844 29.441406 20.445312 C 30.511719 20.828125 31.683594 20.867188 32.769531 20.558594 Z M 16.105469 20.445312 C 16.207031 20.34375 16.855469 16.890625 16.855469 16.445312 C 16.855469 15.179688 17.828125 15.140625 18.304688 16.386719 C 18.425781 16.710938 18.71875 17.355469 18.957031 17.820312 C 19.195312 18.285156 19.539062 19.035156 19.726562 19.484375 C 19.910156 19.9375 20.136719 20.375 20.226562 20.457031 C 20.515625 20.730469 20.460938 20.824219 22.1875 17.132812 C 23.019531 15.351562 23.148438 15.214844 23.644531 15.605469 C 23.878906 15.789062 24.132812 17.082031 24.398438 19.40625 C 24.464844 20.007812 24.570312 20.476562 24.648438 20.523438 C 24.761719 20.597656 25.847656 20.535156 26.011719 20.445312 C 26.042969 20.429688 25.960938 19.820312 25.828125 19.089844 C 25.449219 17.039062 25.183594 15.492188 24.988281 14.1875 C 24.886719 13.53125 24.777344 12.964844 24.738281 12.925781 C 24.703125 12.886719 24.289062 12.824219 23.820312 12.789062 L 22.96875 12.722656 L 22.519531 13.621094 C 22.273438 14.117188 21.957031 14.804688 21.816406 15.152344 C 21.679688 15.496094 21.367188 16.148438 21.125 16.601562 C 20.757812 17.28125 20.640625 17.421875 20.429688 17.421875 C 20.292969 17.421875 20.125 17.359375 20.058594 17.285156 C 19.960938 17.171875 19.238281 15.558594 18.300781 13.34375 L 18.066406 12.796875 L 17.179688 12.765625 C 16.691406 12.75 16.253906 12.773438 16.210938 12.816406 C 16.164062 12.859375 16.074219 13.253906 16.011719 13.691406 C 15.949219 14.128906 15.660156 15.628906 15.375 17.023438 C 14.800781 19.824219 14.699219 20.445312 14.8125 20.550781 C 14.914062 20.648438 15.988281 20.5625 16.105469 20.445312 Z M 16.105469 20.445312 "/>
<path style=" stroke:none;fill-rule:nonzero;fill:rgb(85.882353%,9.411765%,12.54902%);fill-opacity:1;" d="M 15.898438 36.421875 C 14.058594 36.390625 12.492188 36.332031 12.417969 36.289062 C 12.3125 36.226562 12.285156 34.609375 12.285156 28.765625 L 12.285156 21.324219 L 12.617188 21.261719 C 12.800781 21.230469 13.109375 21.199219 13.304688 21.199219 C 13.625 21.199219 13.667969 21.164062 13.761719 20.828125 C 13.875 20.425781 14.597656 16.882812 15.15625 13.988281 C 15.34375 13.003906 15.546875 12.144531 15.605469 12.074219 C 15.757812 11.898438 18.488281 11.898438 18.632812 12.074219 C 18.734375 12.199219 18.945312 12.65625 19.859375 14.734375 C 20.375 15.910156 20.582031 16.070312 20.796875 15.460938 C 20.871094 15.253906 21.132812 14.679688 21.378906 14.1875 C 21.625 13.695312 21.882812 13.136719 21.949219 12.945312 C 22.011719 12.753906 22.160156 12.453125 22.277344 12.273438 L 22.488281 11.949219 L 23.914062 11.949219 C 24.925781 11.949219 25.367188 11.988281 25.445312 12.074219 C 25.542969 12.191406 25.917969 14.171875 26.785156 19.199219 C 27.015625 20.53125 27.207031 21.359375 27.296875 21.414062 C 27.625 21.605469 28.660156 21.371094 28.660156 21.101562 C 28.660156 21.046875 28.472656 20.894531 28.246094 20.757812 C 27.738281 20.460938 27.6875 20.347656 27.875 19.921875 C 28.089844 19.425781 28.984375 18.117188 29.109375 18.117188 C 29.167969 18.117188 29.445312 18.273438 29.722656 18.464844 C 30.617188 19.078125 31.457031 19.253906 32.074219 18.957031 C 32.34375 18.828125 32.386719 18.75 32.359375 18.488281 C 32.324219 18.132812 32.15625 18.050781 30.441406 17.5625 C 29.382812 17.261719 28.671875 16.808594 28.378906 16.246094 C 28.257812 16.015625 28.171875 15.578125 28.148438 15.066406 C 28.113281 14.363281 28.140625 14.175781 28.367188 13.71875 C 28.511719 13.425781 28.777344 13.027344 28.957031 12.832031 C 29.316406 12.449219 30.3125 11.914062 30.863281 11.804688 C 31.054688 11.765625 31.234375 11.695312 31.269531 11.644531 C 31.351562 11.523438 32.332031 11.527344 32.570312 11.648438 C 32.671875 11.703125 33.0625 11.816406 33.445312 11.902344 C 34.285156 12.09375 35.234375 12.488281 35.3125 12.679688 C 35.34375 12.757812 35.125 13.25 34.824219 13.777344 C 34.214844 14.84375 34.089844 14.910156 33.414062 14.539062 C 32.683594 14.132812 31.53125 14.191406 31.53125 14.632812 C 31.53125 14.894531 31.828125 15.058594 32.90625 15.378906 C 33.398438 15.523438 34.027344 15.753906 34.300781 15.882812 C 34.882812 16.15625 35.511719 16.800781 35.6875 17.300781 C 35.871094 17.824219 35.761719 19.085938 35.480469 19.625 C 35.179688 20.210938 34.375 20.96875 33.972656 21.050781 C 33.535156 21.140625 33.550781 21.445312 34.003906 21.59375 C 34.773438 21.84375 35.796875 22.527344 36.371094 23.175781 C 37.183594 24.089844 37.28125 24.835938 36.679688 25.507812 C 35.828125 26.453125 35.332031 26.410156 33.082031 25.179688 C 31.984375 24.578125 31.398438 24.378906 31.277344 24.5625 C 31.242188 24.617188 31.347656 24.945312 31.515625 25.292969 C 31.679688 25.640625 31.871094 26.050781 31.9375 26.203125 C 32.035156 26.421875 32.316406 26.589844 33.3125 27.03125 C 34 27.335938 34.894531 27.730469 35.304688 27.914062 C 36.640625 28.503906 37.230469 29.164062 37.566406 30.449219 C 38.03125 32.246094 37.570312 34.011719 36.382812 34.957031 C 35.632812 35.558594 35.175781 35.753906 33.816406 36.070312 C 31.671875 36.566406 30.4375 36.511719 29.050781 35.855469 L 28.527344 35.609375 L 28.035156 35.800781 C 26.828125 36.277344 26.390625 36.367188 25.257812 36.363281 C 24.304688 36.363281 24.015625 36.320312 23.289062 36.078125 C 22.820312 35.921875 22.3125 35.710938 22.15625 35.609375 C 21.75 35.339844 21.597656 35.371094 20.957031 35.859375 C 20.5625 36.164062 20.214844 36.332031 19.835938 36.410156 C 19.539062 36.46875 19.28125 36.507812 19.269531 36.496094 C 19.257812 36.484375 17.742188 36.449219 15.898438 36.421875 Z M 33.507812 35.46875 C 34.984375 35.109375 35.558594 34.835938 36.132812 34.222656 C 36.855469 33.453125 37.105469 32.691406 37.03125 31.503906 C 36.910156 29.628906 36.359375 28.976562 34.109375 28.046875 C 33.332031 27.726562 32.605469 27.46875 32.488281 27.46875 C 32.292969 27.46875 32.285156 27.519531 32.339844 28.4375 C 32.371094 28.96875 32.414062 29.453125 32.429688 29.507812 C 32.445312 29.5625 32.703125 29.6875 33.003906 29.789062 C 33.613281 29.996094 34.1875 30.527344 34.1875 30.886719 C 34.1875 31.582031 33.167969 31.996094 31.648438 31.917969 C 30.558594 31.863281 29.757812 31.617188 28.863281 31.058594 C 27.902344 30.457031 27.242188 30.402344 26.898438 30.894531 C 26.667969 31.222656 26.578125 32.414062 26.746094 32.894531 C 27.070312 33.808594 29.335938 35.476562 30.59375 35.722656 C 31.234375 35.84375 32.355469 35.75 33.507812 35.46875 Z M 24.992188 34.722656 C 26 34.585938 26.53125 34.445312 26.53125 34.308594 C 26.53125 34.25 26.410156 34.050781 26.261719 33.867188 C 25.960938 33.496094 25.683594 32.832031 25.683594 32.476562 C 25.683594 32.261719 25.636719 32.242188 25.175781 32.238281 C 24.898438 32.238281 24.496094 32.210938 24.28125 32.179688 L 23.890625 32.117188 L 23.410156 33.050781 C 23.144531 33.5625 22.824219 34.125 22.699219 34.304688 C 22.453125 34.65625 22.476562 34.683594 23.078125 34.757812 C 23.6875 34.832031 24.25 34.824219 24.992188 34.722656 Z M 19.179688 32.707031 C 19.265625 32.609375 19.226562 32.421875 19.035156 31.984375 C 18.539062 30.855469 18.417969 30.078125 18.492188 28.476562 C 18.527344 27.675781 18.570312 26.886719 18.582031 26.722656 L 18.609375 26.421875 L 17.601562 26.394531 C 16.746094 26.367188 16.574219 26.390625 16.460938 26.535156 C 16.359375 26.667969 16.324219 27.429688 16.324219 29.617188 C 16.324219 32.128906 16.347656 32.546875 16.492188 32.679688 C 16.714844 32.890625 19 32.910156 19.179688 32.707031 Z M 20.359375 31.191406 C 20.59375 30.75 20.628906 30.535156 20.683594 29.058594 C 20.734375 27.609375 20.769531 27.367188 20.984375 26.988281 C 22.148438 24.929688 23.625 23.785156 25.125 23.785156 L 25.75 23.785156 L 26.199219 22.980469 C 26.449219 22.535156 26.628906 22.152344 26.601562 22.128906 C 26.574219 22.101562 26.199219 22.058594 25.769531 22.027344 C 24.832031 21.960938 23.515625 22.230469 22.753906 22.648438 C 21.617188 23.273438 20.234375 24.894531 19.789062 26.117188 C 19.46875 26.996094 19.273438 28.363281 19.339844 29.257812 C 19.394531 30.046875 19.664062 31.46875 19.796875 31.667969 C 19.910156 31.839844 20.105469 31.675781 20.359375 31.191406 Z M 25.925781 31.210938 C 26.054688 31.078125 26.296875 30.765625 26.460938 30.515625 C 26.691406 30.160156 26.855469 30.03125 27.1875 29.9375 C 27.652344 29.804688 27.875 29.570312 27.976562 29.09375 C 28.039062 28.808594 28.003906 28.769531 27.472656 28.488281 C 26.753906 28.109375 26.050781 27.402344 25.902344 26.90625 C 25.839844 26.695312 25.789062 26.273438 25.789062 25.96875 C 25.789062 25.667969 25.734375 25.367188 25.671875 25.308594 C 25.546875 25.195312 24.984375 25.292969 24.804688 25.460938 C 24.753906 25.511719 24.695312 26.285156 24.679688 27.179688 C 24.652344 28.554688 24.601562 28.972656 24.363281 29.851562 C 24.207031 30.425781 24.09375 30.984375 24.109375 31.089844 C 24.144531 31.320312 24.460938 31.421875 25.183594 31.433594 C 25.589844 31.441406 25.738281 31.398438 25.925781 31.210938 Z M 33.183594 31.105469 C 33.328125 31.015625 33.445312 30.898438 33.445312 30.84375 C 33.445312 30.734375 32.570312 30.351562 32.328125 30.351562 C 32.152344 30.351562 31.910156 30.992188 32 31.214844 C 32.082031 31.410156 32.789062 31.34375 33.183594 31.105469 Z M 31.019531 30.382812 C 31.585938 29.183594 31.390625 26.789062 30.609375 25.347656 C 30.292969 24.761719 30.199219 24.789062 30.378906 25.410156 C 30.625 26.269531 30.285156 27.285156 29.191406 28.957031 C 28.601562 29.867188 28.609375 29.832031 28.886719 30.050781 C 29.214844 30.308594 30.359375 30.835938 30.605469 30.84375 C 30.734375 30.847656 30.871094 30.695312 31.019531 30.382812 Z M 29.046875 27.390625 C 29.566406 26.382812 29.625 25.882812 29.265625 25.484375 C 28.917969 25.097656 28.816406 24.652344 28.984375 24.273438 C 29.425781 23.273438 31.613281 23.554688 34.015625 24.917969 C 34.789062 25.355469 35.289062 25.515625 35.632812 25.433594 C 35.941406 25.363281 36.3125 24.839844 36.316406 24.476562 C 36.316406 24.125 35.804688 23.40625 35.242188 22.980469 C 34.128906 22.128906 32.992188 21.859375 30.519531 21.851562 C 28.96875 21.847656 28.78125 21.867188 28.386719 22.0625 C 27.640625 22.4375 26.953125 23.242188 26.695312 24.042969 C 26.476562 24.710938 26.476562 26.578125 26.691406 26.964844 C 26.882812 27.3125 28.300781 28.269531 28.511719 28.195312 C 28.59375 28.164062 28.835938 27.804688 29.046875 27.390625 Z M 23.066406 21.597656 C 23.457031 21.429688 23.796875 21.238281 23.824219 21.171875 C 23.914062 20.945312 23.296875 17.589844 23.15625 17.546875 C 23.023438 17.503906 22.660156 18.171875 21.683594 20.253906 C 21.425781 20.800781 21.214844 21.261719 21.214844 21.273438 C 21.214844 21.3125 22.21875 21.894531 22.292969 21.894531 C 22.328125 21.894531 22.675781 21.761719 23.066406 21.597656 Z M 19.46875 20.992188 C 19.507812 20.933594 19.296875 20.386719 19.003906 19.773438 C 18.707031 19.164062 18.347656 18.40625 18.199219 18.09375 C 17.949219 17.558594 17.792969 17.410156 17.667969 17.601562 C 17.554688 17.773438 17.046875 20.800781 17.105469 20.945312 C 17.15625 21.074219 17.371094 21.101562 18.28125 21.101562 C 18.96875 21.101562 19.421875 21.058594 19.46875 20.992188 Z M 33.464844 20.527344 C 34.691406 19.960938 35.097656 19.300781 35.019531 18 C 34.992188 17.523438 34.917969 17.246094 34.761719 17.050781 C 34.441406 16.648438 33.539062 16.171875 32.722656 15.980469 C 31.691406 15.734375 31.226562 15.53125 30.992188 15.226562 C 30.695312 14.832031 30.726562 14.402344 31.089844 14.023438 C 31.355469 13.746094 31.476562 13.699219 32.042969 13.664062 C 32.484375 13.632812 32.878906 13.671875 33.253906 13.789062 L 33.808594 13.957031 L 34.054688 13.675781 C 34.394531 13.28125 34.476562 12.941406 34.261719 12.796875 C 34.164062 12.730469 33.601562 12.597656 33.007812 12.5 C 31.445312 12.242188 30.441406 12.398438 29.71875 13.011719 C 28.984375 13.632812 28.832031 13.957031 28.824219 14.945312 C 28.820312 15.675781 28.855469 15.859375 29.042969 16.097656 C 29.34375 16.480469 29.878906 16.804688 30.402344 16.921875 C 32.296875 17.355469 33.0625 17.789062 33.0625 18.441406 C 33.0625 19.566406 31.484375 20.03125 30.027344 19.328125 C 29.667969 19.15625 29.316406 19.011719 29.25 19.011719 C 29.117188 19.011719 28.660156 19.820312 28.660156 20.058594 C 28.660156 20.253906 29.066406 20.488281 29.800781 20.714844 C 30.28125 20.859375 30.667969 20.898438 31.585938 20.878906 C 32.667969 20.855469 32.8125 20.828125 33.464844 20.527344 Z M 16.3125 20.570312 C 16.378906 20.496094 16.605469 19.429688 16.816406 18.207031 C 17.023438 16.980469 17.234375 15.910156 17.277344 15.828125 C 17.4375 15.535156 17.753906 15.664062 17.992188 16.128906 C 18.296875 16.71875 19.230469 18.722656 19.507812 19.390625 C 19.953125 20.457031 20.140625 20.71875 20.429688 20.683594 C 20.707031 20.652344 20.722656 20.625 22.441406 17.121094 C 22.773438 16.4375 23.097656 15.824219 23.15625 15.753906 C 23.308594 15.578125 23.53125 15.601562 23.648438 15.804688 C 23.757812 16 24.140625 18.355469 24.246094 19.496094 C 24.359375 20.6875 24.371094 20.703125 25.28125 20.703125 C 25.707031 20.703125 26.117188 20.664062 26.191406 20.617188 C 26.304688 20.550781 26.234375 20.003906 25.855469 17.859375 C 25.589844 16.386719 25.296875 14.664062 25.203125 14.03125 C 25.105469 13.398438 24.996094 12.835938 24.957031 12.777344 C 24.871094 12.65625 23.257812 12.535156 22.996094 12.628906 C 22.816406 12.699219 22.394531 13.441406 21.941406 14.488281 C 21.824219 14.761719 21.484375 15.488281 21.191406 16.101562 C 20.449219 17.644531 20.296875 17.625 19.582031 15.878906 C 18.625 13.535156 18.195312 12.660156 17.976562 12.605469 C 17.566406 12.5 16.367188 12.546875 16.195312 12.671875 C 16.078125 12.757812 15.933594 13.269531 15.746094 14.289062 C 15.597656 15.109375 15.285156 16.675781 15.058594 17.769531 C 14.683594 19.570312 14.582031 20.210938 14.613281 20.578125 C 14.628906 20.757812 16.152344 20.75 16.3125 20.570312 Z M 16.3125 20.570312 "/>
<path style=" stroke:none;fill-rule:nonzero;fill:rgb(44.705882%,0%,52.54902%);fill-opacity:1;" d="M 15.898438 36.421875 C 14.058594 36.390625 12.492188 36.332031 12.417969 36.289062 C 12.3125 36.226562 12.285156 34.609375 12.285156 28.765625 L 12.285156 21.324219 L 12.617188 21.261719 C 12.800781 21.230469 13.109375 21.199219 13.304688 21.199219 C 13.625 21.199219 13.667969 21.164062 13.761719 20.828125 C 13.875 20.425781 14.597656 16.882812 15.15625 13.988281 C 15.34375 13.003906 15.546875 12.144531 15.605469 12.074219 C 15.757812 11.898438 18.488281 11.898438 18.632812 12.074219 C 18.734375 12.199219 18.945312 12.65625 19.859375 14.734375 C 20.375 15.910156 20.582031 16.070312 20.796875 15.460938 C 20.871094 15.253906 21.132812 14.679688 21.378906 14.1875 C 21.625 13.695312 21.882812 13.136719 21.949219 12.945312 C 22.011719 12.753906 22.160156 12.453125 22.277344 12.273438 L 22.488281 11.949219 L 23.914062 11.949219 C 24.925781 11.949219 25.367188 11.988281 25.445312 12.074219 C 25.542969 12.191406 25.917969 14.171875 26.785156 19.199219 C 27.015625 20.53125 27.207031 21.359375 27.296875 21.414062 C 27.625 21.605469 28.660156 21.371094 28.660156 21.101562 C 28.660156 21.046875 28.472656 20.894531 28.246094 20.757812 C 27.738281 20.460938 27.6875 20.347656 27.875 19.921875 C 28.089844 19.425781 28.984375 18.117188 29.109375 18.117188 C 29.167969 18.117188 29.445312 18.273438 29.722656 18.464844 C 30.617188 19.078125 31.457031 19.253906 32.074219 18.957031 C 32.34375 18.828125 32.386719 18.75 32.359375 18.488281 C 32.324219 18.132812 32.15625 18.050781 30.441406 17.5625 C 29.382812 17.261719 28.671875 16.808594 28.378906 16.246094 C 28.257812 16.015625 28.171875 15.578125 28.148438 15.066406 C 28.113281 14.363281 28.140625 14.175781 28.367188 13.71875 C 28.511719 13.425781 28.777344 13.027344 28.957031 12.832031 C 29.316406 12.449219 30.3125 11.914062 30.863281 11.804688 C 31.054688 11.765625 31.234375 11.695312 31.269531 11.644531 C 31.351562 11.523438 32.332031 11.527344 32.570312 11.648438 C 32.671875 11.703125 33.0625 11.816406 33.445312 11.902344 C 34.285156 12.09375 35.234375 12.488281 35.3125 12.679688 C 35.34375 12.757812 35.125 13.25 34.824219 13.777344 C 34.214844 14.84375 34.089844 14.910156 33.414062 14.539062 C 32.683594 14.132812 31.53125 14.191406 31.53125 14.632812 C 31.53125 14.894531 31.828125 15.058594 32.90625 15.378906 C 33.398438 15.523438 34.027344 15.753906 34.300781 15.882812 C 34.882812 16.15625 35.511719 16.800781 35.6875 17.300781 C 35.871094 17.824219 35.761719 19.085938 35.480469 19.625 C 35.179688 20.210938 34.375 20.96875 33.972656 21.050781 C 33.535156 21.140625 33.550781 21.445312 34.003906 21.59375 C 34.773438 21.84375 35.796875 22.527344 36.371094 23.175781 C 37.183594 24.089844 37.28125 24.835938 36.679688 25.507812 C 35.828125 26.453125 35.332031 26.410156 33.082031 25.179688 C 31.984375 24.578125 31.398438 24.378906 31.277344 24.5625 C 31.242188 24.617188 31.347656 24.945312 31.515625 25.292969 C 31.679688 25.640625 31.871094 26.050781 31.9375 26.203125 C 32.035156 26.421875 32.316406 26.589844 33.3125 27.03125 C 34 27.335938 34.894531 27.730469 35.304688 27.914062 C 36.640625 28.503906 37.230469 29.164062 37.566406 30.449219 C 38.03125 32.246094 37.570312 34.011719 36.382812 34.957031 C 35.632812 35.558594 35.175781 35.753906 33.816406 36.070312 C 31.671875 36.566406 30.4375 36.511719 29.050781 35.855469 L 28.527344 35.609375 L 28.035156 35.800781 C 26.828125 36.277344 26.390625 36.367188 25.257812 36.363281 C 24.304688 36.363281 24.015625 36.320312 23.289062 36.078125 C 22.820312 35.921875 22.3125 35.710938 22.15625 35.609375 C 21.75 35.339844 21.597656 35.371094 20.957031 35.859375 C 20.5625 36.164062 20.214844 36.332031 19.835938 36.410156 C 19.539062 36.46875 19.28125 36.507812 19.269531 36.496094 C 19.257812 36.484375 17.742188 36.449219 15.898438 36.421875 Z M 20.054688 35.566406 C 20.203125 35.496094 20.613281 35.152344 20.957031 34.804688 C 22.09375 33.664062 23.171875 31.476562 23.78125 29.082031 C 24.003906 28.207031 24.113281 26.265625 23.949219 26.113281 C 23.808594 25.980469 23.191406 26.359375 22.53125 26.980469 L 21.90625 27.574219 L 21.894531 28.757812 C 21.886719 29.6875 21.835938 30.089844 21.648438 30.628906 C 21.304688 31.632812 20.609375 32.71875 20.0625 33.109375 L 19.597656 33.4375 L 17.726562 33.410156 L 15.851562 33.386719 L 15.71875 33.136719 C 15.617188 32.949219 15.582031 32.023438 15.582031 29.464844 C 15.582031 25.414062 15.5 25.675781 16.75 25.675781 C 17.203125 25.675781 17.867188 25.648438 18.226562 25.613281 L 18.882812 25.546875 L 19.273438 24.890625 C 19.796875 24.003906 20.078125 23.648438 20.832031 22.917969 L 21.46875 22.300781 L 20.863281 22.039062 L 20.253906 21.78125 L 16.878906 21.8125 C 15.023438 21.832031 13.449219 21.882812 13.375 21.929688 C 13.269531 21.992188 13.242188 23.488281 13.242188 28.859375 L 13.242188 35.714844 L 14.011719 35.75 C 15.597656 35.828125 19.769531 35.699219 20.054688 35.566406 Z M 33.507812 35.46875 C 34.984375 35.109375 35.558594 34.835938 36.132812 34.222656 C 36.855469 33.453125 37.105469 32.691406 37.03125 31.503906 C 36.910156 29.628906 36.359375 28.976562 34.109375 28.046875 C 33.332031 27.726562 32.605469 27.46875 32.488281 27.46875 C 32.292969 27.46875 32.285156 27.519531 32.339844 28.4375 C 32.371094 28.96875 32.414062 29.453125 32.429688 29.507812 C 32.445312 29.5625 32.703125 29.6875 33.003906 29.789062 C 33.613281 29.996094 34.1875 30.527344 34.1875 30.886719 C 34.1875 31.582031 33.167969 31.996094 31.648438 31.917969 C 30.558594 31.863281 29.757812 31.617188 28.863281 31.058594 C 27.902344 30.457031 27.242188 30.402344 26.898438 30.894531 C 26.667969 31.222656 26.578125 32.414062 26.746094 32.894531 C 27.070312 33.808594 29.335938 35.476562 30.59375 35.722656 C 31.234375 35.84375 32.355469 35.75 33.507812 35.46875 Z M 24.992188 34.722656 C 26 34.585938 26.53125 34.445312 26.53125 34.308594 C 26.53125 34.25 26.410156 34.050781 26.261719 33.867188 C 25.960938 33.496094 25.683594 32.832031 25.683594 32.476562 C 25.683594 32.261719 25.636719 32.242188 25.175781 32.238281 C 24.898438 32.238281 24.496094 32.210938 24.28125 32.179688 L 23.890625 32.117188 L 23.410156 33.050781 C 23.144531 33.5625 22.824219 34.125 22.699219 34.304688 C 22.453125 34.65625 22.476562 34.683594 23.078125 34.757812 C 23.6875 34.832031 24.25 34.824219 24.992188 34.722656 Z M 19.179688 32.707031 C 19.265625 32.609375 19.226562 32.421875 19.035156 31.984375 C 18.539062 30.855469 18.417969 30.078125 18.492188 28.476562 C 18.527344 27.675781 18.570312 26.886719 18.582031 26.722656 L 18.609375 26.421875 L 17.601562 26.394531 C 16.746094 26.367188 16.574219 26.390625 16.460938 26.535156 C 16.359375 26.667969 16.324219 27.429688 16.324219 29.617188 C 16.324219 32.128906 16.347656 32.546875 16.492188 32.679688 C 16.714844 32.890625 19 32.910156 19.179688 32.707031 Z M 20.359375 31.191406 C 20.59375 30.75 20.628906 30.535156 20.683594 29.058594 C 20.734375 27.609375 20.769531 27.367188 20.984375 26.988281 C 22.148438 24.929688 23.625 23.785156 25.125 23.785156 L 25.75 23.785156 L 26.199219 22.980469 C 26.449219 22.535156 26.628906 22.152344 26.601562 22.128906 C 26.574219 22.101562 26.199219 22.058594 25.769531 22.027344 C 24.832031 21.960938 23.515625 22.230469 22.753906 22.648438 C 21.617188 23.273438 20.234375 24.894531 19.789062 26.117188 C 19.46875 26.996094 19.273438 28.363281 19.339844 29.257812 C 19.394531 30.046875 19.664062 31.46875 19.796875 31.667969 C 19.910156 31.839844 20.105469 31.675781 20.359375 31.191406 Z M 25.925781 31.210938 C 26.054688 31.078125 26.296875 30.765625 26.460938 30.515625 C 26.691406 30.160156 26.855469 30.03125 27.1875 29.9375 C 27.652344 29.804688 27.875 29.570312 27.976562 29.09375 C 28.039062 28.808594 28.003906 28.769531 27.472656 28.488281 C 26.753906 28.109375 26.050781 27.402344 25.902344 26.90625 C 25.839844 26.695312 25.789062 26.273438 25.789062 25.96875 C 25.789062 25.667969 25.734375 25.367188 25.671875 25.308594 C 25.546875 25.195312 24.984375 25.292969 24.804688 25.460938 C 24.753906 25.511719 24.695312 26.285156 24.679688 27.179688 C 24.652344 28.554688 24.601562 28.972656 24.363281 29.851562 C 24.207031 30.425781 24.09375 30.984375 24.109375 31.089844 C 24.144531 31.320312 24.460938 31.421875 25.183594 31.433594 C 25.589844 31.441406 25.738281 31.398438 25.925781 31.210938 Z M 33.183594 31.105469 C 33.328125 31.015625 33.445312 30.898438 33.445312 30.84375 C 33.445312 30.734375 32.570312 30.351562 32.328125 30.351562 C 32.152344 30.351562 31.910156 30.992188 32 31.214844 C 32.082031 31.410156 32.789062 31.34375 33.183594 31.105469 Z M 31.019531 30.382812 C 31.585938 29.183594 31.390625 26.789062 30.609375 25.347656 C 30.292969 24.761719 30.199219 24.789062 30.378906 25.410156 C 30.625 26.269531 30.285156 27.285156 29.191406 28.957031 C 28.601562 29.867188 28.609375 29.832031 28.886719 30.050781 C 29.214844 30.308594 30.359375 30.835938 30.605469 30.84375 C 30.734375 30.847656 30.871094 30.695312 31.019531 30.382812 Z M 29.046875 27.390625 C 29.566406 26.382812 29.625 25.882812 29.265625 25.484375 C 28.917969 25.097656 28.816406 24.652344 28.984375 24.273438 C 29.425781 23.273438 31.613281 23.554688 34.015625 24.917969 C 34.789062 25.355469 35.289062 25.515625 35.632812 25.433594 C 35.941406 25.363281 36.3125 24.839844 36.316406 24.476562 C 36.316406 24.125 35.804688 23.40625 35.242188 22.980469 C 34.128906 22.128906 32.992188 21.859375 30.519531 21.851562 C 28.96875 21.847656 28.78125 21.867188 28.386719 22.0625 C 27.640625 22.4375 26.953125 23.242188 26.695312 24.042969 C 26.476562 24.710938 26.476562 26.578125 26.691406 26.964844 C 26.882812 27.3125 28.300781 28.269531 28.511719 28.195312 C 28.59375 28.164062 28.835938 27.804688 29.046875 27.390625 Z M 23.066406 21.597656 C 23.457031 21.429688 23.796875 21.238281 23.824219 21.171875 C 23.914062 20.945312 23.296875 17.589844 23.15625 17.546875 C 23.023438 17.503906 22.660156 18.171875 21.683594 20.253906 C 21.425781 20.800781 21.214844 21.261719 21.214844 21.273438 C 21.214844 21.3125 22.21875 21.894531 22.292969 21.894531 C 22.328125 21.894531 22.675781 21.761719 23.066406 21.597656 Z M 19.46875 20.992188 C 19.507812 20.933594 19.296875 20.386719 19.003906 19.773438 C 18.707031 19.164062 18.347656 18.40625 18.199219 18.09375 C 17.949219 17.558594 17.792969 17.410156 17.667969 17.601562 C 17.554688 17.773438 17.046875 20.800781 17.105469 20.945312 C 17.15625 21.074219 17.371094 21.101562 18.28125 21.101562 C 18.96875 21.101562 19.421875 21.058594 19.46875 20.992188 Z M 33.464844 20.527344 C 34.691406 19.960938 35.097656 19.300781 35.019531 18 C 34.992188 17.523438 34.917969 17.246094 34.761719 17.050781 C 34.441406 16.648438 33.539062 16.171875 32.722656 15.980469 C 31.691406 15.734375 31.226562 15.53125 30.992188 15.226562 C 30.695312 14.832031 30.726562 14.402344 31.089844 14.023438 C 31.355469 13.746094 31.476562 13.699219 32.042969 13.664062 C 32.484375 13.632812 32.878906 13.671875 33.253906 13.789062 L 33.808594 13.957031 L 34.054688 13.675781 C 34.394531 13.28125 34.476562 12.941406 34.261719 12.796875 C 34.164062 12.730469 33.601562 12.597656 33.007812 12.5 C 31.445312 12.242188 30.441406 12.398438 29.71875 13.011719 C 28.984375 13.632812 28.832031 13.957031 28.824219 14.945312 C 28.820312 15.675781 28.855469 15.859375 29.042969 16.097656 C 29.34375 16.480469 29.878906 16.804688 30.402344 16.921875 C 32.296875 17.355469 33.0625 17.789062 33.0625 18.441406 C 33.0625 19.566406 31.484375 20.03125 30.027344 19.328125 C 29.667969 19.15625 29.316406 19.011719 29.25 19.011719 C 29.117188 19.011719 28.660156 19.820312 28.660156 20.058594 C 28.660156 20.253906 29.066406 20.488281 29.800781 20.714844 C 30.28125 20.859375 30.667969 20.898438 31.585938 20.878906 C 32.667969 20.855469 32.8125 20.828125 33.464844 20.527344 Z M 16.3125 20.570312 C 16.378906 20.496094 16.605469 19.429688 16.816406 18.207031 C 17.023438 16.980469 17.234375 15.910156 17.277344 15.828125 C 17.4375 15.535156 17.753906 15.664062 17.992188 16.128906 C 18.296875 16.71875 19.230469 18.722656 19.507812 19.390625 C 19.953125 20.457031 20.140625 20.71875 20.429688 20.683594 C 20.707031 20.652344 20.722656 20.625 22.441406 17.121094 C 22.773438 16.4375 23.097656 15.824219 23.15625 15.753906 C 23.308594 15.578125 23.53125 15.601562 23.648438 15.804688 C 23.757812 16 24.140625 18.355469 24.246094 19.496094 C 24.359375 20.6875 24.371094 20.703125 25.28125 20.703125 C 25.707031 20.703125 26.117188 20.664062 26.191406 20.617188 C 26.304688 20.550781 26.234375 20.003906 25.855469 17.859375 C 25.589844 16.386719 25.296875 14.664062 25.203125 14.03125 C 25.105469 13.398438 24.996094 12.835938 24.957031 12.777344 C 24.871094 12.65625 23.257812 12.535156 22.996094 12.628906 C 22.816406 12.699219 22.394531 13.441406 21.941406 14.488281 C 21.824219 14.761719 21.484375 15.488281 21.191406 16.101562 C 20.449219 17.644531 20.296875 17.625 19.582031 15.878906 C 18.625 13.535156 18.195312 12.660156 17.976562 12.605469 C 17.566406 12.5 16.367188 12.546875 16.195312 12.671875 C 16.078125 12.757812 15.933594 13.269531 15.746094 14.289062 C 15.597656 15.109375 15.285156 16.675781 15.058594 17.769531 C 14.683594 19.570312 14.582031 20.210938 14.613281 20.578125 C 14.628906 20.757812 16.152344 20.75 16.3125 20.570312 Z M 16.3125 20.570312 "/>
<path style=" stroke:none;fill-rule:nonzero;fill:rgb(5.098039%,3.529412%,3.921569%);fill-opacity:1;" d="M 15.898438 36.421875 C 14.058594 36.390625 12.492188 36.332031 12.417969 36.289062 C 12.3125 36.226562 12.285156 34.609375 12.285156 28.765625 L 12.285156 21.324219 L 12.617188 21.261719 C 12.800781 21.230469 13.109375 21.199219 13.304688 21.199219 C 13.625 21.199219 13.667969 21.164062 13.761719 20.828125 C 13.875 20.425781 14.597656 16.882812 15.15625 13.988281 C 15.34375 13.003906 15.546875 12.144531 15.605469 12.074219 C 15.757812 11.898438 18.488281 11.898438 18.632812 12.074219 C 18.734375 12.199219 18.945312 12.65625 19.859375 14.734375 C 20.375 15.910156 20.582031 16.070312 20.796875 15.460938 C 20.871094 15.253906 21.132812 14.679688 21.378906 14.1875 C 21.625 13.695312 21.882812 13.136719 21.949219 12.945312 C 22.011719 12.753906 22.160156 12.453125 22.277344 12.273438 L 22.488281 11.949219 L 23.914062 11.949219 C 24.925781 11.949219 25.367188 11.988281 25.445312 12.074219 C 25.542969 12.191406 25.917969 14.171875 26.785156 19.199219 C 27.015625 20.53125 27.207031 21.359375 27.296875 21.414062 C 27.625 21.605469 28.660156 21.371094 28.660156 21.101562 C 28.660156 21.046875 28.472656 20.894531 28.246094 20.757812 C 27.738281 20.460938 27.6875 20.347656 27.875 19.921875 C 28.089844 19.425781 28.984375 18.117188 29.109375 18.117188 C 29.167969 18.117188 29.445312 18.273438 29.722656 18.464844 C 30.617188 19.078125 31.457031 19.253906 32.074219 18.957031 C 32.34375 18.828125 32.386719 18.75 32.359375 18.488281 C 32.324219 18.132812 32.15625 18.050781 30.441406 17.5625 C 29.382812 17.261719 28.671875 16.808594 28.378906 16.246094 C 28.257812 16.015625 28.171875 15.578125 28.148438 15.066406 C 28.113281 14.363281 28.140625 14.175781 28.367188 13.71875 C 28.511719 13.425781 28.777344 13.027344 28.957031 12.832031 C 29.316406 12.449219 30.3125 11.914062 30.863281 11.804688 C 31.054688 11.765625 31.234375 11.695312 31.269531 11.644531 C 31.351562 11.523438 32.332031 11.527344 32.570312 11.648438 C 32.671875 11.703125 33.0625 11.816406 33.445312 11.902344 C 34.285156 12.09375 35.234375 12.488281 35.3125 12.679688 C 35.34375 12.757812 35.125 13.25 34.824219 13.777344 C 34.214844 14.84375 34.089844 14.910156 33.414062 14.539062 C 32.683594 14.132812 31.53125 14.191406 31.53125 14.632812 C 31.53125 14.894531 31.828125 15.058594 32.90625 15.378906 C 33.398438 15.523438 34.027344 15.753906 34.300781 15.882812 C 34.882812 16.15625 35.511719 16.800781 35.6875 17.300781 C 35.871094 17.824219 35.761719 19.085938 35.480469 19.625 C 35.179688 20.210938 34.375 20.96875 33.972656 21.050781 C 33.535156 21.140625 33.550781 21.445312 34.003906 21.59375 C 34.773438 21.84375 35.796875 22.527344 36.371094 23.175781 C 37.183594 24.089844 37.28125 24.835938 36.679688 25.507812 C 35.828125 26.453125 35.332031 26.410156 33.082031 25.179688 C 31.984375 24.578125 31.398438 24.378906 31.277344 24.5625 C 31.242188 24.617188 31.347656 24.945312 31.515625 25.292969 C 31.679688 25.640625 31.871094 26.050781 31.9375 26.203125 C 32.035156 26.421875 32.316406 26.589844 33.3125 27.03125 C 34 27.335938 34.894531 27.730469 35.304688 27.914062 C 36.640625 28.503906 37.230469 29.164062 37.566406 30.449219 C 38.03125 32.246094 37.570312 34.011719 36.382812 34.957031 C 35.632812 35.558594 35.175781 35.753906 33.816406 36.070312 C 31.671875 36.566406 30.4375 36.511719 29.050781 35.855469 L 28.527344 35.609375 L 28.035156 35.800781 C 26.828125 36.277344 26.390625 36.367188 25.257812 36.363281 C 24.304688 36.363281 24.015625 36.320312 23.289062 36.078125 C 22.820312 35.921875 22.3125 35.710938 22.15625 35.609375 C 21.75 35.339844 21.597656 35.371094 20.957031 35.859375 C 20.5625 36.164062 20.214844 36.332031 19.835938 36.410156 C 19.539062 36.46875 19.28125 36.507812 19.269531 36.496094 C 19.257812 36.484375 17.742188 36.449219 15.898438 36.421875 Z M 20.054688 35.566406 C 20.203125 35.496094 20.613281 35.152344 20.957031 34.804688 C 22.09375 33.664062 23.171875 31.476562 23.78125 29.082031 C 24.003906 28.207031 24.113281 26.265625 23.949219 26.113281 C 23.808594 25.980469 23.191406 26.359375 22.53125 26.980469 L 21.90625 27.574219 L 21.894531 28.757812 C 21.886719 29.6875 21.835938 30.089844 21.648438 30.628906 C 21.304688 31.632812 20.609375 32.71875 20.0625 33.109375 L 19.597656 33.4375 L 17.726562 33.410156 L 15.851562 33.386719 L 15.71875 33.136719 C 15.617188 32.949219 15.582031 32.023438 15.582031 29.464844 C 15.582031 25.414062 15.5 25.675781 16.75 25.675781 C 17.203125 25.675781 17.867188 25.648438 18.226562 25.613281 L 18.882812 25.546875 L 19.273438 24.890625 C 19.796875 24.003906 20.078125 23.648438 20.832031 22.917969 L 21.46875 22.300781 L 20.863281 22.039062 L 20.253906 21.78125 L 16.878906 21.8125 C 15.023438 21.832031 13.449219 21.882812 13.375 21.929688 C 13.269531 21.992188 13.242188 23.488281 13.242188 28.859375 L 13.242188 35.714844 L 14.011719 35.75 C 15.597656 35.828125 19.769531 35.699219 20.054688 35.566406 Z M 33.507812 35.46875 C 34.984375 35.109375 35.558594 34.835938 36.132812 34.222656 C 36.855469 33.453125 37.105469 32.691406 37.03125 31.503906 C 36.910156 29.628906 36.359375 28.976562 34.109375 28.046875 C 33.332031 27.726562 32.605469 27.46875 32.488281 27.46875 C 32.292969 27.46875 32.285156 27.519531 32.339844 28.4375 C 32.371094 28.96875 32.414062 29.453125 32.429688 29.507812 C 32.445312 29.5625 32.703125 29.6875 33.003906 29.789062 C 33.613281 29.996094 34.1875 30.527344 34.1875 30.886719 C 34.1875 31.582031 33.167969 31.996094 31.648438 31.917969 C 30.558594 31.863281 29.757812 31.617188 28.863281 31.058594 C 27.902344 30.457031 27.242188 30.402344 26.898438 30.894531 C 26.667969 31.222656 26.578125 32.414062 26.746094 32.894531 C 27.070312 33.808594 29.335938 35.476562 30.59375 35.722656 C 31.234375 35.84375 32.355469 35.75 33.507812 35.46875 Z M 26.984375 35.425781 C 27.320312 35.308594 27.597656 35.183594 27.597656 35.148438 C 27.597656 35.113281 27.410156 34.902344 27.183594 34.679688 C 26.566406 34.082031 26.015625 33.269531 25.945312 32.855469 C 25.8125 32.085938 25.789062 32.066406 24.8125 32.019531 C 24.324219 31.996094 23.871094 32.015625 23.804688 32.066406 C 23.734375 32.113281 23.476562 32.542969 23.226562 33.019531 C 22.980469 33.492188 22.667969 34.039062 22.527344 34.226562 C 22.390625 34.417969 22.28125 34.628906 22.28125 34.691406 C 22.28125 34.863281 23.199219 35.339844 23.925781 35.542969 C 24.777344 35.78125 26.136719 35.730469 26.984375 35.425781 Z M 19.179688 32.707031 C 19.265625 32.609375 19.226562 32.421875 19.035156 31.984375 C 18.539062 30.855469 18.417969 30.078125 18.492188 28.476562 C 18.527344 27.675781 18.570312 26.886719 18.582031 26.722656 L 18.609375 26.421875 L 17.601562 26.394531 C 16.746094 26.367188 16.574219 26.390625 16.460938 26.535156 C 16.359375 26.667969 16.324219 27.429688 16.324219 29.617188 C 16.324219 32.128906 16.347656 32.546875 16.492188 32.679688 C 16.714844 32.890625 19 32.910156 19.179688 32.707031 Z M 20.472656 31.296875 C 20.828125 30.632812 20.847656 30.546875 20.902344 29.257812 C 20.957031 28.039062 20.992188 27.863281 21.265625 27.367188 C 21.890625 26.230469 22.519531 25.714844 24.246094 24.941406 C 24.832031 24.675781 25.421875 24.410156 25.558594 24.347656 C 25.714844 24.277344 25.914062 23.996094 26.097656 23.585938 C 26.257812 23.226562 26.511719 22.761719 26.667969 22.550781 C 26.820312 22.335938 26.925781 22.128906 26.898438 22.085938 C 26.796875 21.929688 25.621094 21.777344 24.996094 21.835938 C 23.742188 21.960938 22.59375 22.4375 21.582031 23.261719 C 21.140625 23.621094 20.40625 24.554688 20.019531 25.242188 C 19.152344 26.792969 18.902344 29.03125 19.394531 30.890625 C 19.761719 32.285156 19.910156 32.339844 20.472656 31.296875 Z M 25.925781 31.210938 C 26.054688 31.078125 26.296875 30.765625 26.460938 30.515625 C 26.691406 30.160156 26.855469 30.03125 27.1875 29.9375 C 27.652344 29.804688 27.875 29.570312 27.976562 29.09375 C 28.039062 28.808594 28.003906 28.769531 27.472656 28.488281 C 26.753906 28.109375 26.050781 27.402344 25.902344 26.90625 C 25.839844 26.695312 25.789062 26.273438 25.789062 25.96875 C 25.789062 25.667969 25.734375 25.367188 25.671875 25.308594 C 25.546875 25.195312 24.984375 25.292969 24.804688 25.460938 C 24.753906 25.511719 24.695312 26.285156 24.679688 27.179688 C 24.652344 28.554688 24.601562 28.972656 24.363281 29.851562 C 24.207031 30.425781 24.09375 30.984375 24.109375 31.089844 C 24.144531 31.320312 24.460938 31.421875 25.183594 31.433594 C 25.589844 31.441406 25.738281 31.398438 25.925781 31.210938 Z M 33.183594 31.105469 C 33.328125 31.015625 33.445312 30.898438 33.445312 30.84375 C 33.445312 30.734375 32.570312 30.351562 32.328125 30.351562 C 32.152344 30.351562 31.910156 30.992188 32 31.214844 C 32.082031 31.410156 32.789062 31.34375 33.183594 31.105469 Z M 31.167969 31.035156 C 31.3125 30.8125 31.527344 29.386719 31.527344 28.609375 C 31.53125 27.777344 31.332031 26.605469 31.070312 25.917969 C 30.789062 25.183594 30.25 24.382812 30.03125 24.382812 C 29.773438 24.382812 29.777344 24.542969 30.042969 25.03125 C 30.566406 25.988281 30.089844 27.496094 28.632812 29.488281 C 28.523438 29.640625 28.453125 29.828125 28.484375 29.902344 C 28.566406 30.101562 29.375 30.59375 30.097656 30.882812 C 30.800781 31.167969 31.054688 31.203125 31.167969 31.035156 Z M 29.046875 27.390625 C 29.566406 26.382812 29.625 25.882812 29.265625 25.484375 C 28.917969 25.097656 28.816406 24.652344 28.984375 24.273438 C 29.425781 23.273438 31.613281 23.554688 34.015625 24.917969 C 34.789062 25.355469 35.289062 25.515625 35.632812 25.433594 C 35.941406 25.363281 36.3125 24.839844 36.316406 24.476562 C 36.316406 24.125 35.804688 23.40625 35.242188 22.980469 C 34.128906 22.128906 32.992188 21.859375 30.519531 21.851562 C 28.96875 21.847656 28.78125 21.867188 28.386719 22.0625 C 27.640625 22.4375 26.953125 23.242188 26.695312 24.042969 C 26.476562 24.710938 26.476562 26.578125 26.691406 26.964844 C 26.882812 27.3125 28.300781 28.269531 28.511719 28.195312 C 28.59375 28.164062 28.835938 27.804688 29.046875 27.390625 Z M 23.066406 21.597656 C 23.457031 21.429688 23.796875 21.238281 23.824219 21.171875 C 23.914062 20.945312 23.296875 17.589844 23.15625 17.546875 C 23.023438 17.503906 22.660156 18.171875 21.683594 20.253906 C 21.425781 20.800781 21.214844 21.261719 21.214844 21.273438 C 21.214844 21.3125 22.21875 21.894531 22.292969 21.894531 C 22.328125 21.894531 22.675781 21.761719 23.066406 21.597656 Z M 19.46875 20.992188 C 19.507812 20.933594 19.296875 20.386719 19.003906 19.773438 C 18.707031 19.164062 18.347656 18.40625 18.199219 18.09375 C 17.949219 17.558594 17.792969 17.410156 17.667969 17.601562 C 17.554688 17.773438 17.046875 20.800781 17.105469 20.945312 C 17.15625 21.074219 17.371094 21.101562 18.28125 21.101562 C 18.96875 21.101562 19.421875 21.058594 19.46875 20.992188 Z M 33.464844 20.527344 C 34.691406 19.960938 35.097656 19.300781 35.019531 18 C 34.992188 17.523438 34.917969 17.246094 34.761719 17.050781 C 34.441406 16.648438 33.539062 16.171875 32.722656 15.980469 C 31.691406 15.734375 31.226562 15.53125 30.992188 15.226562 C 30.695312 14.832031 30.726562 14.402344 31.089844 14.023438 C 31.355469 13.746094 31.476562 13.699219 32.042969 13.664062 C 32.484375 13.632812 32.878906 13.671875 33.253906 13.789062 L 33.808594 13.957031 L 34.054688 13.675781 C 34.394531 13.28125 34.476562 12.941406 34.261719 12.796875 C 34.164062 12.730469 33.601562 12.597656 33.007812 12.5 C 31.445312 12.242188 30.441406 12.398438 29.71875 13.011719 C 28.984375 13.632812 28.832031 13.957031 28.824219 14.945312 C 28.820312 15.675781 28.855469 15.859375 29.042969 16.097656 C 29.34375 16.480469 29.878906 16.804688 30.402344 16.921875 C 32.296875 17.355469 33.0625 17.789062 33.0625 18.441406 C 33.0625 19.566406 31.484375 20.03125 30.027344 19.328125 C 29.667969 19.15625 29.316406 19.011719 29.25 19.011719 C 29.117188 19.011719 28.660156 19.820312 28.660156 20.058594 C 28.660156 20.253906 29.066406 20.488281 29.800781 20.714844 C 30.28125 20.859375 30.667969 20.898438 31.585938 20.878906 C 32.667969 20.855469 32.8125 20.828125 33.464844 20.527344 Z M 16.3125 20.570312 C 16.378906 20.496094 16.605469 19.429688 16.816406 18.207031 C 17.023438 16.980469 17.234375 15.910156 17.277344 15.828125 C 17.4375 15.535156 17.753906 15.664062 17.992188 16.128906 C 18.296875 16.71875 19.230469 18.722656 19.507812 19.390625 C 19.953125 20.457031 20.140625 20.71875 20.429688 20.683594 C 20.707031 20.652344 20.722656 20.625 22.441406 17.121094 C 22.773438 16.4375 23.097656 15.824219 23.15625 15.753906 C 23.308594 15.578125 23.53125 15.601562 23.648438 15.804688 C 23.757812 16 24.140625 18.355469 24.246094 19.496094 C 24.359375 20.6875 24.371094 20.703125 25.28125 20.703125 C 25.707031 20.703125 26.117188 20.664062 26.191406 20.617188 C 26.304688 20.550781 26.234375 20.003906 25.855469 17.859375 C 25.589844 16.386719 25.296875 14.664062 25.203125 14.03125 C 25.105469 13.398438 24.996094 12.835938 24.957031 12.777344 C 24.871094 12.65625 23.257812 12.535156 22.996094 12.628906 C 22.816406 12.699219 22.394531 13.441406 21.941406 14.488281 C 21.824219 14.761719 21.484375 15.488281 21.191406 16.101562 C 20.449219 17.644531 20.296875 17.625 19.582031 15.878906 C 18.625 13.535156 18.195312 12.660156 17.976562 12.605469 C 17.566406 12.5 16.367188 12.546875 16.195312 12.671875 C 16.078125 12.757812 15.933594 13.269531 15.746094 14.289062 C 15.597656 15.109375 15.285156 16.675781 15.058594 17.769531 C 14.683594 19.570312 14.582031 20.210938 14.613281 20.578125 C 14.628906 20.757812 16.152344 20.75 16.3125 20.570312 Z M 16.3125 20.570312 "/>
</g>
</svg>
