
<svg xmlns="http://www.w3.org/2000/svg" xmlns:xlink="http://www.w3.org/1999/xlink" width="48px" height="48px" viewBox="0 0 48 48" version="1.1">
<g id="surface1">
<path style=" stroke:none;fill-rule:nonzero;fill:rgb(95.294118%,94.117647%,76.078431%);fill-opacity:1;" d="M 43.871094 10.054688 C 34.769531 -6.472656 6.253906 -0.0585938 1.429688 13.546875 C -4.320312 29.757812 10.640625 60.542969 35.984375 42.507812 C 44.519531 36.210938 52.972656 26.582031 43.871094 10.054688 Z M 43.871094 10.054688 "/>
<path style=" stroke:none;fill-rule:nonzero;fill:rgb(0%,0%,0%);fill-opacity:0.101961;" d="M 20.191406 13.128906 L 14.300781 17.355469 L 14.300781 30.882812 L 20.191406 35.109375 L 20.191406 22.144531 L 30.011719 35.109375 L 35.902344 30.882812 L 35.902344 17.355469 L 30.011719 13.128906 L 30.011719 26.234375 L 20.191406 13.128906 "/>
<path style=" stroke:none;fill-rule:nonzero;fill:rgb(41.960784%,65.098039%,24.705882%);fill-opacity:1;" d="M 34.921875 16.507812 L 29.027344 12.28125 L 29.027344 34.261719 L 34.921875 30.035156 Z M 34.921875 16.507812 "/>
<path style=" stroke:none;fill-rule:nonzero;fill:rgb(25.882353%,68.627451%,90.196078%);fill-opacity:1;" d="M 13.320312 16.507812 L 19.210938 12.28125 L 19.210938 34.261719 L 13.320312 30.035156 Z M 13.320312 16.507812 "/>
<path style=" stroke:none;fill-rule:nonzero;fill:rgb(58.823529%,79.215686%,41.960784%);fill-opacity:1;" d="M 19.210938 12.28125 C 18.015625 15.226562 18.242188 18.242188 19.210938 21.300781 L 29.027344 34.261719 C 29.660156 31.304688 30.382812 28.347656 29.027344 25.390625 Z M 19.210938 12.28125 "/>
<path style=" stroke:none;fill-rule:nonzero;fill:rgb(33.72549%,61.960784%,25.490196%);fill-opacity:1;" d="M 29.027344 25.390625 L 29.027344 34.261719 L 33.449219 31.09375 Z M 29.027344 25.390625 "/>
<path style=" stroke:none;fill-rule:nonzero;fill:rgb(43.921569%,74.509804%,38.823529%);fill-opacity:1;" d="M 19.210938 12.28125 L 14.785156 15.457031 L 19.210938 21.300781 Z M 19.210938 12.28125 "/>
</g>
</svg>
