
<svg xmlns="http://www.w3.org/2000/svg" xmlns:xlink="http://www.w3.org/1999/xlink" width="48px" height="48px" viewBox="0 0 48 48" version="1.1">
<g id="surface1">
<path style=" stroke:none;fill-rule:nonzero;fill:rgb(41.176471%,41.176471%,41.176471%);fill-opacity:1;" d="M 18.511719 47.558594 C -26.457031 38.234375 21.816406 -25.929688 44.671875 12.613281 C 54.46875 27.585938 41.636719 52.359375 18.511719 47.558594 Z M 18.511719 47.558594 "/>
<path style=" stroke:none;fill-rule:nonzero;fill:rgb(100%,100%,100%);fill-opacity:0.968627;" d="M 6.828125 29.636719 C 5.929688 28.886719 5.152344 27.195312 5.15625 26 C 5.160156 24.246094 6.410156 22.421875 7.609375 22.421875 C 9.703125 22.421875 10.03125 28.5625 8.003906 29.878906 C 7.539062 30.183594 7.464844 30.167969 6.828125 29.636719 Z M 8.03125 28.421875 C 8.503906 27.703125 8.640625 25.492188 8.28125 24.316406 C 8.039062 23.527344 7.90625 23.371094 7.472656 23.371094 C 6.386719 23.371094 5.820312 25.929688 6.53125 27.621094 C 7.136719 29.0625 7.484375 29.246094 8.03125 28.421875 Z M 8.03125 28.421875 "/>
<path style=" stroke:none;fill-rule:nonzero;fill:rgb(100%,100%,100%);fill-opacity:0.968627;" d="M 12.839844 26.75 C 12.992188 26.027344 13.363281 25.976562 12.777344 24.851562 L 11.578125 22.539062 C 11.578125 22.539062 11.59375 22.039062 11.96875 22.230469 C 12.851562 22.675781 13.917969 24.828125 13.917969 24.828125 L 14.796875 23.175781 C 15.082031 22.636719 15.757812 22.316406 15.824219 22.382812 C 15.890625 22.449219 15.988281 22.695312 15.6875 23.453125 C 14.792969 25.699219 14.6875 26.386719 15.515625 27.738281 C 16.550781 29.433594 16.273438 30.496094 15.355469 29.488281 C 14.960938 29.054688 14.144531 27.421875 14.003906 27.421875 C 13.863281 27.421875 13.304688 28.574219 12.996094 28.976562 C 12.683594 29.382812 12.199219 29.925781 12.109375 29.925781 C 12.015625 29.925781 11.652344 29.816406 11.808594 29.09375 Z M 12.839844 26.75 "/>
<path style=" stroke:none;fill-rule:nonzero;fill:rgb(100%,100%,100%);fill-opacity:0.968627;" d="M 20.34375 29.90625 C 20.28125 29.742188 20.167969 29.007812 20.089844 28.277344 C 20.011719 27.546875 19.761719 26.203125 19.535156 25.289062 C 19.308594 24.378906 18.453125 22.722656 18.777344 22.558594 L 19.257812 22.316406 L 19.753906 23.105469 C 20.023438 23.539062 20.515625 25.015625 20.539062 25.136719 C 20.816406 26.699219 21.007812 23.609375 21.378906 23.105469 C 21.722656 22.640625 22.339844 21.894531 22.417969 21.96875 C 22.492188 22.042969 22.507812 22.984375 22.277344 23.894531 C 22.050781 24.804688 21.457031 26.652344 21.382812 27.578125 C 21.304688 28.503906 21.191406 29.476562 21.125 29.734375 C 20.992188 30.265625 20.523438 30.371094 20.347656 29.910156 Z M 20.34375 29.90625 "/>
<path style=" stroke:none;fill-rule:nonzero;fill:rgb(100%,100%,100%);fill-opacity:0.968627;" d="M 26.367188 29.617188 C 24.363281 27.523438 24.746094 23.203125 27.046875 21.972656 C 27.492188 21.734375 28.816406 21.945312 28.816406 22.382812 C 28.816406 22.542969 27.863281 23.082031 27.371094 23.410156 C 26.6875 23.867188 26.414062 24.226562 26.195312 24.949219 C 25.695312 26.625 26.375 28.734375 27.417969 28.734375 C 27.980469 28.734375 28.121094 28.410156 28.140625 27.066406 C 28.164062 25.621094 28.644531 25.449219 29.074219 26.734375 C 29.628906 28.402344 28.824219 30.417969 27.605469 30.417969 C 27.339844 30.417969 26.804688 30.070312 26.367188 29.613281 Z M 26.367188 29.617188 "/>
<path style=" stroke:none;fill-rule:nonzero;fill:rgb(100%,100%,100%);fill-opacity:0.968627;" d="M 33.105469 30.179688 C 32.757812 30.054688 32.449219 29.71875 32.308594 29.324219 C 31.964844 28.335938 32.019531 24.03125 32.390625 23.148438 C 32.734375 22.328125 34.074219 22.125 34.792969 22.390625 C 35.246094 22.554688 35.644531 22.179688 34.785156 23.015625 C 34.292969 23.492188 32.929688 24.214844 32.929688 24.371094 C 32.929688 24.53125 33.214844 24.929688 33.566406 25.261719 C 34.261719 25.925781 35.675781 25.96875 35.203125 26.148438 C 35.035156 26.210938 33.4375 26.898438 33.253906 27.253906 C 32.835938 28.050781 33.101562 28.671875 33.941406 28.859375 C 35.089844 29.109375 35.261719 29.1875 35.261719 29.460938 C 35.261719 29.6875 34.011719 30.460938 33.746094 30.402344 C 33.707031 30.394531 33.417969 30.292969 33.105469 30.179688 Z M 33.105469 30.179688 "/>
<path style=" stroke:none;fill-rule:nonzero;fill:rgb(100%,100%,100%);fill-opacity:0.968627;" d="M 40.828125 28.210938 C 39.90625 26.363281 40.570312 27.449219 38.757812 29.328125 L 38.554688 29.539062 L 38.46875 26.105469 C 38.355469 21.59375 38.621094 21.355469 39.898438 24.175781 C 40.742188 26.027344 41.183594 25.855469 41.324219 24 C 41.453125 22.273438 41.960938 22.054688 42.027344 22.230469 C 42.433594 23.261719 42.160156 29.367188 41.726562 29.511719 C 41.605469 29.550781 41.199219 28.964844 40.824219 28.210938 Z M 40.828125 28.210938 "/>
</g>
</svg>
