
<svg xmlns="http://www.w3.org/2000/svg" xmlns:xlink="http://www.w3.org/1999/xlink" width="48px" height="48px" viewBox="0 0 48 48" version="1.1">
<defs>
<linearGradient id="linear0" gradientUnits="userSpaceOnUse" x1="20" y1="20" x2="36" y2="36" gradientTransform="matrix(1.181322,0,0,1.134084,-4.841549,-4.036353)">
<stop offset="0" style="stop-color:rgb(16.078431%,17.254902%,18.431373%);stop-opacity:0.2;"/>
<stop offset="1" style="stop-color:rgb(0%,0%,0%);stop-opacity:0;"/>
</linearGradient>
<linearGradient id="linear1" gradientUnits="userSpaceOnUse" x1="413.57144" y1="523.79797" x2="413.57144" y2="513.79797" gradientTransform="matrix(1.181322,0,0,1.134084,-459.144319,-570.849446)">
<stop offset="0" style="stop-color:rgb(75.294118%,22.352941%,16.862745%);stop-opacity:1;"/>
<stop offset="1" style="stop-color:rgb(90.588235%,29.803922%,23.529412%);stop-opacity:1;"/>
</linearGradient>
<linearGradient id="linear2" gradientUnits="userSpaceOnUse" x1="414.57144" y1="533.79797" x2="414.57144" y2="523.79797" gradientTransform="matrix(1.181322,0,0,1.134084,-459.144319,-570.849446)">
<stop offset="0" style="stop-color:rgb(95.294118%,21.568627%,46.666667%);stop-opacity:1;"/>
<stop offset="1" style="stop-color:rgb(99.215686%,17.647059%,39.607843%);stop-opacity:1;"/>
</linearGradient>
<linearGradient id="linear3" gradientUnits="userSpaceOnUse" x1="19" y1="33.999973" x2="19" y2="24" gradientTransform="matrix(1.181322,0,0,1.134084,-4.841549,-4.036353)">
<stop offset="0" style="stop-color:rgb(16.078431%,50.196078%,72.54902%);stop-opacity:1;"/>
<stop offset="1" style="stop-color:rgb(20.392157%,59.607843%,85.882353%);stop-opacity:1;"/>
</linearGradient>
<linearGradient id="linear4" gradientUnits="userSpaceOnUse" x1="19" y1="24" x2="19" y2="14" gradientTransform="matrix(1.181322,0,0,1.134084,-4.841549,-4.036353)">
<stop offset="0" style="stop-color:rgb(15.294118%,68.235294%,37.647059%);stop-opacity:1;"/>
<stop offset="1" style="stop-color:rgb(18.039216%,80%,44.313725%);stop-opacity:1;"/>
</linearGradient>
</defs>
<g id="surface1">
<path style=" stroke:none;fill-rule:nonzero;fill:rgb(42.745098%,42.745098%,42.745098%);fill-opacity:1;" d="M 44.042969 9.890625 C 34.863281 -6.703125 6.101562 -0.261719 1.238281 13.402344 C -4.5625 29.679688 10.53125 60.59375 36.089844 42.484375 C 44.699219 36.160156 53.21875 26.488281 44.042969 9.890625 Z M 44.042969 9.890625 "/>
<path style=" stroke:none;fill-rule:evenodd;fill:url(#linear0);" d="M 17.605469 11.839844 L 11.695312 23.183594 L 17.605469 28.851562 L 11.695312 34.523438 L 23.511719 45.863281 L 47.136719 45.863281 L 47.136719 29.984375 L 35.324219 18.644531 L 34.140625 17.511719 L 34.140625 15.242188 L 31.78125 12.976562 L 29.417969 11.839844 Z M 17.605469 11.839844 "/>
<path style=" stroke:none;fill-rule:nonzero;fill:url(#linear1);" d="M 29.417969 11.839844 C 26.144531 11.839844 23.511719 14.371094 23.511719 17.511719 C 23.511719 20.652344 26.144531 23.183594 29.417969 23.183594 C 32.6875 23.183594 35.324219 20.652344 35.324219 17.511719 C 35.324219 14.371094 32.6875 11.839844 29.417969 11.839844 Z M 29.417969 12.976562 C 32.035156 12.976562 34.140625 15 34.140625 17.511719 C 34.140625 20.023438 32.035156 22.046875 29.417969 22.046875 C 26.800781 22.046875 24.691406 20.023438 24.691406 17.511719 C 24.691406 15 26.800781 12.976562 29.417969 12.976562 Z M 29.417969 12.976562 "/>
<path style=" stroke:none;fill-rule:nonzero;fill:url(#linear2);" d="M 23.511719 23.183594 L 23.511719 34.523438 L 35.324219 34.523438 L 35.324219 23.183594 Z M 24.691406 24.316406 L 34.140625 24.316406 L 34.140625 33.386719 L 24.691406 33.386719 Z M 24.691406 24.316406 "/>
<path style=" stroke:none;fill-rule:nonzero;fill:url(#linear3);" d="M 12.535156 23.183594 L 11.699219 23.984375 L 16.769531 28.851562 L 11.699219 33.71875 L 12.535156 34.523438 L 17.605469 29.652344 L 22.675781 34.523438 L 23.511719 33.71875 L 18.441406 28.851562 L 23.511719 23.984375 L 22.675781 23.183594 L 17.605469 28.050781 Z M 12.535156 23.183594 "/>
<path style=" stroke:none;fill-rule:nonzero;fill:url(#linear4);" d="M 17.605469 11.894531 L 11.695312 23.183594 L 23.511719 23.183594 Z M 17.605469 14.421875 L 21.59375 22.046875 L 13.613281 22.046875 Z M 17.605469 14.421875 "/>
</g>
</svg>
