
<svg xmlns="http://www.w3.org/2000/svg" xmlns:xlink="http://www.w3.org/1999/xlink" width="48px" height="48px" viewBox="0 0 48 48" version="1.1">
<g id="surface1">
<path style=" stroke:none;fill-rule:nonzero;fill:rgb(43.137255%,38.039216%,14.901961%);fill-opacity:1;" d="M 42.847656 36.589844 C 59.949219 12.382812 28.371094 -12.144531 8.226562 7.582031 C -10.753906 26.164062 6.84375 55.035156 30.457031 46.011719 C 35.386719 44.128906 39.710938 41.035156 42.847656 36.589844 Z M 42.847656 36.589844 "/>
<path style=" stroke:none;fill-rule:nonzero;fill:rgb(41.960784%,55.686275%,13.72549%);fill-opacity:1;" d="M 23.660156 36.042969 C 16.46875 33.273438 14.636719 32.519531 14.015625 32.058594 L 13.4375 31.636719 L 14.046875 29.609375 C 14.601562 27.761719 14.640625 27.351562 14.5 24.972656 C 14.304688 21.695312 14.589844 20.300781 15.960938 17.804688 C 17.542969 14.929688 17.335938 14.582031 14.867188 15.972656 C 12.855469 17.105469 11.777344 17.371094 11.777344 16.738281 C 11.777344 16.160156 13.296875 14.800781 14.671875 14.148438 C 15.28125 13.859375 17.089844 12.992188 18.695312 12.21875 C 20.296875 11.445312 21.753906 10.808594 21.929688 10.808594 C 22.578125 10.808594 22.511719 11.496094 21.785156 12.28125 C 21.378906 12.71875 21.046875 13.160156 21.046875 13.261719 C 21.046875 13.363281 22.140625 13.503906 23.480469 13.570312 C 25.375 13.667969 26.210938 13.820312 27.222656 14.257812 C 28.011719 14.59375 29.226562 14.878906 30.28125 14.96875 C 32.042969 15.121094 33.164062 15.445312 33.164062 15.804688 C 33.164062 15.910156 32.65625 16.296875 32.035156 16.65625 C 29.394531 18.199219 29.367188 18.28125 30.886719 20.191406 C 32.03125 21.636719 33.054688 22.277344 35.105469 22.832031 C 36.917969 23.320312 37.679688 24.167969 37.679688 25.6875 C 37.679688 26.675781 37.578125 26.890625 36.761719 27.664062 C 35.550781 28.8125 33.539062 29.691406 31.058594 30.152344 C 28.417969 30.644531 28.089844 31.015625 27.972656 33.644531 C 27.90625 35.195312 27.976562 35.664062 28.390625 36.433594 C 28.960938 37.5 29.007812 37.828125 28.589844 37.828125 C 28.425781 37.828125 26.207031 37.023438 23.660156 36.042969 Z M 23.660156 36.042969 "/>
</g>
</svg>
