
<svg xmlns="http://www.w3.org/2000/svg" xmlns:xlink="http://www.w3.org/1999/xlink" width="48px" height="48px" viewBox="0 0 48 48" version="1.1">
<g id="surface1">
<path style=" stroke:none;fill-rule:nonzero;fill:rgb(64.705882%,16.470588%,16.470588%);fill-opacity:1;" d="M 9.949219 43.972656 C -6.574219 34.871094 -0.160156 6.355469 13.445312 1.53125 C 29.65625 -4.21875 60.4375 10.746094 42.40625 36.089844 C 36.109375 44.625 26.476562 53.074219 9.949219 43.972656 Z M 9.949219 43.972656 "/>
<path style=" stroke:none;fill-rule:nonzero;fill:rgb(100%,100%,100%);fill-opacity:1;" d="M 15.253906 35.082031 C 15.167969 34.996094 15.082031 33.933594 15.070312 32.71875 C 15.03125 29.277344 15.109375 29.386719 12.578125 29.25 L 10.441406 29.136719 L 10.289062 26.03125 C 10.207031 24.320312 10.125 20.664062 10.109375 17.90625 C 10.082031 12.980469 10.183594 12.167969 10.894531 11.714844 C 11.039062 11.621094 15.460938 11.542969 20.722656 11.539062 C 29.695312 11.539062 30.316406 11.5625 30.6875 11.957031 C 31 12.289062 31.082031 12.859375 31.082031 14.671875 C 31.082031 16.148438 31.183594 17.0625 31.371094 17.242188 C 31.539062 17.40625 32.351562 17.519531 33.363281 17.519531 C 36.039062 17.519531 35.875 16.886719 35.800781 26.742188 L 35.738281 35.117188 L 25.578125 35.175781 C 19.988281 35.210938 15.34375 35.167969 15.253906 35.082031 Z M 33.601562 32.898438 C 33.6875 32.628906 33.683594 30.140625 33.589844 27.375 L 33.414062 22.34375 L 25.386719 22.402344 L 17.359375 22.464844 L 17.296875 27.929688 L 17.234375 33.390625 L 25.335938 33.390625 C 33.40625 33.390625 33.4375 33.390625 33.601562 32.898438 Z M 14.617188 23.144531 C 14.617188 18.707031 14.792969 17.765625 15.699219 17.429688 C 15.914062 17.351562 18.753906 17.289062 22.015625 17.289062 C 25.273438 17.289062 28.113281 17.226562 28.320312 17.148438 C 28.527344 17.070312 28.695312 16.863281 28.695312 16.683594 C 28.695312 16.414062 27.433594 16.371094 20.640625 16.421875 L 12.585938 16.484375 L 12.523438 21.945312 L 12.460938 27.410156 L 14.617188 27.410156 Z M 32.753906 18.9375 C 32.753906 18.652344 32.210938 18.207031 31.863281 18.207031 C 31.40625 18.207031 31.21875 18.847656 31.558594 19.242188 C 31.773438 19.492188 31.964844 19.519531 32.300781 19.34375 C 32.550781 19.21875 32.753906 19.03125 32.753906 18.9375 Z M 34.605469 18.839844 C 34.414062 18.289062 33.734375 18.085938 33.339844 18.46875 C 32.992188 18.800781 32.992188 18.863281 33.351562 19.210938 C 33.652344 19.503906 33.847656 19.53125 34.21875 19.34375 C 34.476562 19.207031 34.652344 18.980469 34.605469 18.839844 Z M 26.070312 12.808594 C 26.070312 12.445312 25.246094 12.121094 24.878906 12.339844 C 24.539062 12.542969 24.582031 13.320312 24.9375 13.441406 C 25.359375 13.589844 26.070312 13.191406 26.070312 12.808594 Z M 27.921875 12.859375 C 27.871094 12.71875 27.652344 12.496094 27.433594 12.363281 C 27.128906 12.179688 26.933594 12.21875 26.613281 12.53125 C 26.210938 12.925781 26.210938 12.960938 26.640625 13.265625 C 27.140625 13.625 28.082031 13.324219 27.921875 12.859375 Z M 29.832031 12.859375 C 29.640625 12.308594 28.960938 12.105469 28.566406 12.484375 C 28.21875 12.820312 28.21875 12.882812 28.578125 13.230469 C 28.878906 13.519531 29.074219 13.550781 29.445312 13.359375 C 29.707031 13.226562 29.878906 13 29.832031 12.859375 Z M 29.832031 12.859375 "/>
</g>
</svg>
