
<svg xmlns="http://www.w3.org/2000/svg" xmlns:xlink="http://www.w3.org/1999/xlink" width="48px" height="48px" viewBox="0 0 48 48" version="1.1">
<g id="surface1">
<path style=" stroke:none;fill-rule:nonzero;fill:rgb(96.078431%,96.078431%,96.078431%);fill-opacity:1;" d="M 43.054688 36.71875 C 60.316406 12.171875 28.441406 -12.703125 8.109375 7.300781 C -11.050781 26.144531 6.710938 55.425781 30.550781 46.273438 C 35.523438 44.363281 39.886719 41.226562 43.054688 36.71875 Z M 43.054688 36.71875 "/>
<path style=" stroke:none;fill-rule:nonzero;fill:rgb(86.27451%,86.27451%,86.27451%);fill-opacity:1;" d="M 12.234375 11.6875 L 33.371094 9.144531 L 36.03125 36.484375 L 14.894531 39.023438 Z M 12.234375 11.6875 "/>
<path style=" stroke:none;fill-rule:nonzero;fill:rgb(68.627451%,67.058824%,68.627451%);fill-opacity:1;" d="M 15.191406 38.628906 C 15.191406 38.355469 15.367188 38.355469 15.988281 38.628906 C 16.394531 38.808594 16.375 38.832031 15.820312 38.847656 C 15.472656 38.855469 15.191406 38.757812 15.191406 38.628906 Z M 19.121094 38.003906 C 19.34375 37.945312 19.699219 37.945312 19.921875 38.003906 C 20.140625 38.0625 19.960938 38.109375 19.519531 38.109375 C 19.082031 38.109375 18.902344 38.0625 19.121094 38.003906 Z M 29.039062 36.832031 C 29.320312 36.773438 29.730469 36.777344 29.949219 36.835938 C 30.167969 36.894531 29.933594 36.941406 29.433594 36.9375 C 28.933594 36.933594 28.753906 36.886719 29.039062 36.832031 Z M 35.1875 36.140625 C 35.34375 36.078125 35.601562 36.078125 35.757812 36.140625 C 35.914062 36.207031 35.785156 36.257812 35.472656 36.257812 C 35.160156 36.257812 35.03125 36.207031 35.1875 36.140625 Z M 14.542969 34.429688 C 14.542969 34.105469 14.597656 33.976562 14.660156 34.136719 C 14.722656 34.296875 14.722656 34.558594 14.660156 34.71875 C 14.597656 34.878906 14.542969 34.75 14.542969 34.429688 Z M 17.699219 33.753906 C 17.699219 33.613281 17.96875 33.496094 18.300781 33.496094 C 20.585938 33.496094 22.960938 32.488281 22.292969 31.804688 C 22.085938 31.589844 21.542969 31.613281 19.917969 31.898438 C 18.761719 32.101562 17.71875 32.179688 17.605469 32.070312 C 17.300781 31.789062 17.769531 31.679688 20.027344 31.507812 C 22.355469 31.328125 23.265625 30.828125 23.027344 29.859375 C 22.925781 29.4375 22.984375 29.292969 23.257812 29.292969 C 23.800781 29.292969 24.59375 28.382812 24.46875 27.894531 C 24.398438 27.621094 24.539062 27.394531 24.871094 27.238281 C 25.152344 27.105469 25.859375 26.28125 26.445312 25.402344 C 32.464844 16.394531 33.066406 15.441406 33.433594 14.375 C 33.769531 13.398438 34.722656 12.503906 35.429688 12.492188 C 36.238281 12.484375 36.839844 12.914062 36.839844 13.503906 C 36.839844 14.113281 35.453125 16.550781 34.460938 17.675781 C 34.09375 18.097656 32.675781 20.152344 31.308594 22.246094 C 29.339844 25.253906 28.851562 26.167969 28.957031 26.605469 C 29.058594 27.027344 28.984375 27.195312 28.636719 27.308594 C 28.097656 27.484375 27.496094 28.0625 27.496094 28.40625 C 27.496094 28.566406 27.871094 28.597656 28.578125 28.496094 C 31.132812 28.121094 32.054688 28.074219 32.054688 28.3125 C 32.054688 28.445312 31.386719 28.78125 30.574219 29.058594 C 28.964844 29.605469 28.582031 29.949219 29.15625 30.320312 C 29.453125 30.511719 29.164062 30.6875 27.707031 31.195312 C 26.703125 31.542969 25.296875 32.226562 24.582031 32.71875 C 23.414062 33.519531 23.132812 33.613281 21.800781 33.621094 C 20.984375 33.625 19.730469 33.714844 19.007812 33.820312 C 18.082031 33.957031 17.699219 33.9375 17.699219 33.753906 Z M 17.449219 30.210938 C 17.003906 29.929688 17.527344 29.8125 19.863281 29.664062 C 21.355469 29.570312 21.972656 29.597656 21.65625 29.742188 C 20.972656 30.046875 17.753906 30.40625 17.449219 30.210938 Z M 17.585938 28.125 C 17.835938 28.015625 18.808594 27.929688 19.75 27.9375 C 20.996094 27.945312 21.273438 27.996094 20.773438 28.125 C 19.792969 28.382812 17.003906 28.382812 17.585938 28.125 Z M 31.027344 26.957031 C 30.949219 26.824219 31.144531 26.726562 31.484375 26.726562 C 31.824219 26.726562 32.019531 26.824219 31.941406 26.957031 C 31.863281 27.085938 31.65625 27.191406 31.484375 27.191406 C 31.3125 27.191406 31.105469 27.085938 31.027344 26.957031 Z M 22.941406 23.445312 C 21.535156 22.210938 21.003906 22.007812 19.941406 22.300781 C 18.710938 22.640625 18.457031 22.367188 18.253906 20.492188 L 18.097656 19.046875 L 18.753906 18.894531 C 20.949219 18.386719 21.136719 18.289062 21.824219 17.320312 C 22.554688 16.289062 23.070312 15.863281 23.234375 16.160156 C 23.417969 16.488281 24.292969 22.878906 24.304688 23.984375 C 24.308594 24.355469 23.703125 24.117188 22.941406 23.445312 Z M 26.402344 21.421875 C 25.957031 20.535156 25.894531 19.480469 26.269531 19.332031 C 26.75 19.140625 27.035156 19.648438 27.039062 20.703125 C 27.042969 21.675781 26.710938 22.046875 26.402344 21.421875 Z M 24.992188 18.148438 C 24.996094 16.933594 25.253906 16.308594 25.648438 16.554688 C 26.152344 16.875 25.777344 19.257812 25.222656 19.257812 C 25.09375 19.257812 24.992188 18.757812 24.992188 18.148438 Z M 27.042969 18.90625 C 27.042969 18.714844 27.183594 18.554688 27.359375 18.554688 C 27.53125 18.554688 27.734375 18.714844 27.808594 18.90625 C 27.898438 19.144531 27.796875 19.257812 27.488281 19.257812 C 27.242188 19.257812 27.042969 19.097656 27.042969 18.90625 Z M 27.042969 18.90625 "/>
<path style=" stroke:none;fill-rule:nonzero;fill:rgb(97.647059%,80.392157%,5.882353%);fill-opacity:1;" d="M 22.355469 33.234375 C 22.277344 33.105469 22.359375 32.820312 22.542969 32.605469 C 22.722656 32.386719 23.007812 31.683594 23.171875 31.042969 C 23.363281 30.300781 24.183594 28.808594 25.417969 26.957031 C 26.484375 25.355469 28.511719 22.292969 29.925781 20.160156 C 31.71875 17.445312 32.652344 16.234375 33.023438 16.140625 C 33.429688 16.035156 33.613281 15.761719 33.777344 15.003906 C 33.933594 14.28125 34.105469 14.003906 34.398438 14.003906 C 34.625 14 34.882812 13.886719 34.96875 13.746094 C 35.121094 13.507812 36 12.953125 36.230469 12.953125 C 36.289062 12.953125 36.398438 13.121094 36.476562 13.324219 C 36.6875 13.898438 35.898438 15.488281 34.609375 17.074219 C 33.96875 17.859375 32.261719 20.328125 30.816406 22.558594 C 29.371094 24.785156 27.996094 26.871094 27.761719 27.191406 C 27.527344 27.515625 27.171875 28.097656 26.976562 28.492188 C 26.777344 28.886719 26.457031 29.347656 26.257812 29.515625 C 25.753906 29.945312 25.816406 30.445312 26.410156 30.667969 C 26.894531 30.851562 26.882812 30.878906 26.125 31.273438 C 25.6875 31.5 24.871094 32.019531 24.308594 32.429688 C 23.054688 33.335938 22.542969 33.546875 22.355469 33.238281 Z M 22.394531 22.730469 C 21.316406 21.832031 21.234375 21.804688 20.058594 21.953125 C 18.675781 22.132812 18.664062 22.117188 18.5625 20.3125 L 18.496094 19.152344 L 19.636719 18.988281 C 20.632812 18.839844 20.910156 18.667969 21.855469 17.597656 C 22.449219 16.921875 22.992188 16.429688 23.066406 16.503906 C 23.136719 16.578125 23.34375 17.988281 23.527344 19.636719 C 23.707031 21.289062 23.90625 22.875 23.972656 23.164062 C 24.144531 23.933594 23.683594 23.804688 22.394531 22.730469 Z M 22.394531 22.730469 "/>
<path style=" stroke:none;fill-rule:nonzero;fill:rgb(94.117647%,65.098039%,6.666667%);fill-opacity:1;" d="M 22.359375 33.242188 C 22.28125 33.113281 22.355469 32.839844 22.523438 32.636719 C 22.6875 32.429688 22.988281 31.671875 23.1875 30.953125 C 23.535156 29.695312 23.582031 29.644531 24.316406 29.644531 C 25.054688 29.644531 25.179688 29.492188 28.394531 24.601562 C 30.222656 21.828125 32.101562 19.023438 32.582031 18.367188 C 33.296875 17.378906 33.40625 17.09375 33.207031 16.710938 C 33.023438 16.363281 33.039062 16.199219 33.261719 16.058594 C 33.421875 15.957031 33.65625 15.453125 33.773438 14.9375 C 33.925781 14.28125 34.113281 14.003906 34.398438 14 C 34.625 14 34.882812 13.886719 34.96875 13.746094 C 35.121094 13.503906 36 12.953125 36.230469 12.953125 C 36.289062 12.953125 36.398438 13.121094 36.476562 13.324219 C 36.6875 13.898438 35.898438 15.488281 34.609375 17.070312 C 33.96875 17.859375 32.261719 20.328125 30.816406 22.558594 C 29.371094 24.785156 27.996094 26.871094 27.761719 27.191406 C 27.527344 27.511719 27.171875 28.097656 26.976562 28.492188 C 26.777344 28.886719 26.457031 29.347656 26.257812 29.515625 C 25.753906 29.945312 25.816406 30.441406 26.410156 30.667969 C 26.894531 30.851562 26.882812 30.878906 26.125 31.273438 C 25.6875 31.5 24.871094 32.019531 24.308594 32.429688 C 23.058594 33.332031 22.542969 33.546875 22.359375 33.242188 Z M 22.390625 22.730469 C 21.3125 21.832031 21.234375 21.804688 20.058594 21.953125 C 18.675781 22.132812 18.664062 22.117188 18.5625 20.3125 L 18.496094 19.152344 L 19.636719 18.988281 C 20.632812 18.839844 20.910156 18.667969 21.855469 17.597656 C 22.449219 16.921875 22.992188 16.429688 23.066406 16.503906 C 23.136719 16.578125 23.34375 17.988281 23.523438 19.636719 C 23.707031 21.289062 23.90625 22.875 23.972656 23.164062 C 24.140625 23.933594 23.683594 23.804688 22.394531 22.730469 Z M 22.390625 22.730469 "/>
<path style=" stroke:none;fill-rule:nonzero;fill:rgb(56.078431%,36.862745%,65.882353%);fill-opacity:1;" d="M 22.359375 33.242188 C 22.28125 33.113281 22.355469 32.839844 22.523438 32.632812 C 22.6875 32.429688 22.945312 31.882812 23.085938 31.417969 C 23.339844 30.609375 23.347656 30.601562 23.371094 31.238281 L 23.394531 31.902344 L 24.097656 31.296875 C 24.484375 30.964844 24.894531 30.691406 25.011719 30.691406 C 25.128906 30.691406 25.582031 30.121094 26.015625 29.425781 C 26.453125 28.726562 26.921875 28.085938 27.058594 28 C 27.414062 27.773438 26.6875 29.148438 26.257812 29.511719 C 25.75 29.945312 25.816406 30.441406 26.410156 30.667969 C 26.894531 30.851562 26.882812 30.878906 26.125 31.273438 C 25.6875 31.5 24.871094 32.019531 24.308594 32.425781 C 23.058594 33.332031 22.542969 33.546875 22.359375 33.242188 Z M 27.691406 27.015625 C 27.976562 26.597656 28.261719 26.257812 28.316406 26.257812 C 28.515625 26.257812 27.980469 27.109375 27.574219 27.445312 C 27.289062 27.679688 27.324219 27.554688 27.691406 27.015625 Z M 22.390625 22.730469 C 21.3125 21.832031 21.234375 21.804688 20.058594 21.953125 C 18.675781 22.132812 18.664062 22.117188 18.5625 20.3125 L 18.496094 19.152344 L 19.636719 18.988281 C 20.632812 18.839844 20.910156 18.667969 21.855469 17.597656 C 22.449219 16.921875 22.992188 16.429688 23.066406 16.503906 C 23.136719 16.578125 23.34375 17.988281 23.523438 19.636719 C 23.707031 21.289062 23.90625 22.875 23.972656 23.164062 C 24.140625 23.933594 23.683594 23.804688 22.394531 22.730469 Z M 34.019531 17.472656 C 34.105469 17.125 33.984375 16.859375 33.613281 16.59375 C 33.28125 16.355469 33.171875 16.144531 33.316406 16.039062 C 33.449219 15.945312 33.652344 15.449219 33.773438 14.9375 C 33.925781 14.28125 34.109375 14.003906 34.398438 14 C 34.625 14 34.878906 13.886719 34.96875 13.746094 C 35.058594 13.605469 35.375 13.359375 35.671875 13.199219 C 36.3125 12.851562 36.6875 13.230469 36.46875 14.003906 C 36.136719 15.171875 33.753906 18.550781 34.019531 17.472656 Z M 34.019531 17.472656 "/>
<path style=" stroke:none;fill-rule:nonzero;fill:rgb(68.627451%,43.137255%,26.27451%);fill-opacity:1;" d="M 22.640625 33.0625 C 22.601562 32.980469 22.746094 32.386719 22.964844 31.742188 C 23.292969 30.769531 23.363281 30.683594 23.375 31.238281 L 23.394531 31.902344 L 24.097656 31.296875 C 24.480469 30.964844 24.894531 30.691406 25.011719 30.691406 C 25.128906 30.691406 25.578125 30.121094 26.015625 29.425781 C 26.449219 28.726562 26.917969 28.085938 27.058594 27.996094 C 27.414062 27.773438 26.6875 29.148438 26.257812 29.511719 C 26.0625 29.679688 25.902344 30.035156 25.902344 30.300781 C 25.902344 31.15625 22.925781 33.675781 22.640625 33.0625 Z M 27.691406 27.015625 C 27.976562 26.597656 28.257812 26.257812 28.316406 26.257812 C 28.515625 26.257812 27.980469 27.109375 27.574219 27.445312 C 27.289062 27.679688 27.324219 27.554688 27.691406 27.015625 Z M 34.035156 17.402344 C 34.109375 17.113281 33.980469 16.847656 33.671875 16.648438 C 33.125 16.296875 33.046875 15.988281 33.507812 15.988281 C 33.679688 15.988281 33.882812 15.664062 33.960938 15.265625 C 34.050781 14.8125 34.273438 14.5 34.558594 14.421875 C 34.8125 14.355469 35.015625 14.117188 35.015625 13.898438 C 35.015625 13.578125 35.839844 12.953125 36.257812 12.953125 C 36.558594 12.953125 36.546875 13.808594 36.238281 14.414062 C 35.835938 15.210938 34.109375 17.855469 33.992188 17.855469 C 33.953125 17.855469 33.972656 17.652344 34.035156 17.40625 Z M 34.035156 17.402344 "/>
<path style=" stroke:none;fill-rule:nonzero;fill:rgb(32.54902%,31.372549%,30.588235%);fill-opacity:1;" d="M 34.035156 16.539062 C 33.777344 16.273438 33.855469 15.171875 34.160156 14.761719 C 34.523438 14.277344 35.480469 14.046875 35.921875 14.339844 C 36.203125 14.527344 36.148438 14.71875 35.570312 15.566406 C 34.902344 16.535156 34.367188 16.878906 34.035156 16.539062 Z M 34.035156 16.539062 "/>
</g>
</svg>
