
<svg xmlns="http://www.w3.org/2000/svg" xmlns:xlink="http://www.w3.org/1999/xlink" width="48px" height="48px" viewBox="0 0 48 48" version="1.1">
<g id="surface1">
<path style=" stroke:none;fill-rule:nonzero;fill:rgb(100%,27.058824%,0%);fill-opacity:1;" d="M 42.996094 11.207031 C 58.832031 29.066406 33.855469 56.542969 12.945312 45.433594 C -8.191406 34.199219 -2.558594 -2.972656 23.402344 0.1875 C 31.128906 1.128906 37.832031 5.382812 43 11.207031 Z M 42.996094 11.207031 "/>
<path style=" stroke:none;fill-rule:nonzero;fill:rgb(100%,100%,100%);fill-opacity:1;" d="M 25.277344 16.449219 C 24.691406 16.449219 24.21875 16.90625 24.21875 17.472656 L 24.21875 19.894531 C 23.332031 20.113281 22.492188 20.453125 21.726562 20.898438 L 19.960938 19.1875 C 19.546875 18.785156 18.882812 18.785156 18.472656 19.1875 L 16.738281 20.867188 C 16.324219 21.269531 16.324219 21.914062 16.738281 22.3125 L 18.503906 24.027344 C 18.046875 24.769531 17.695312 25.582031 17.46875 26.445312 L 14.972656 26.445312 C 14.386719 26.445312 13.917969 26.902344 13.917969 27.46875 L 13.917969 29.851562 C 13.917969 30.417969 14.386719 30.875 14.972656 30.875 L 17.46875 30.875 C 17.691406 31.734375 18.046875 32.546875 18.503906 33.292969 L 16.738281 35.003906 C 16.324219 35.40625 16.324219 36.050781 16.738281 36.449219 L 18.472656 38.132812 C 18.882812 38.53125 19.550781 38.53125 19.960938 38.132812 L 21.726562 36.417969 C 22.492188 36.863281 23.332031 37.203125 24.21875 37.421875 L 24.21875 39.84375 C 24.21875 40.414062 24.691406 40.867188 25.277344 40.867188 L 27.730469 40.867188 C 28.316406 40.867188 28.785156 40.414062 28.785156 39.84375 L 28.785156 37.421875 C 29.671875 37.203125 30.511719 36.863281 31.277344 36.417969 L 33.042969 38.132812 C 33.457031 38.53125 34.121094 38.53125 34.535156 38.132812 L 36.269531 36.449219 C 36.683594 36.050781 36.683594 35.402344 36.269531 35.003906 L 34.503906 33.292969 C 34.960938 32.546875 35.3125 31.734375 35.535156 30.875 L 38.035156 30.875 C 38.617188 30.875 39.089844 30.417969 39.089844 29.851562 L 39.089844 27.46875 C 39.089844 26.902344 38.617188 26.445312 38.035156 26.445312 L 35.535156 26.445312 C 35.3125 25.582031 34.960938 24.769531 34.503906 24.027344 L 36.269531 22.3125 C 36.683594 21.914062 36.683594 21.269531 36.269531 20.867188 L 34.535156 19.1875 C 34.121094 18.785156 33.457031 18.785156 33.042969 19.1875 L 31.277344 20.898438 C 30.511719 20.453125 29.671875 20.113281 28.785156 19.894531 L 28.785156 17.472656 C 28.785156 16.90625 28.316406 16.449219 27.730469 16.449219 Z M 26.503906 24.484375 C 28.878906 24.484375 30.804688 26.351562 30.804688 28.660156 C 30.804688 30.964844 28.878906 32.832031 26.503906 32.832031 C 24.125 32.832031 22.199219 30.964844 22.199219 28.660156 C 22.199219 26.355469 24.125 24.484375 26.503906 24.484375 Z M 26.503906 24.484375 "/>
<path style="fill-rule:nonzero;fill:rgb(100%,27.058824%,0%);fill-opacity:1;stroke-width:17.6;stroke-linecap:butt;stroke-linejoin:miter;stroke:rgb(100%,75.294118%,79.607843%);stroke-opacity:1;stroke-miterlimit:4;" d="M 163.546209 127.988666 C 163.546209 147.63277 147.642203 163.5564 128.008816 163.5564 C 108.375429 163.5564 92.447363 147.63277 92.447363 127.988666 C 92.447363 108.369365 108.375429 92.445735 128.008816 92.445735 C 147.642203 92.445735 163.546209 108.369365 163.546209 127.988666 Z M 163.546209 127.988666 " transform="matrix(0.162351,0,0,0.15749,5.721547,8.499315)"/>
<path style=" stroke:none;fill-rule:nonzero;fill:rgb(100%,100%,100%);fill-opacity:1;" d="M 20.371094 5.003906 C 20.058594 4.90625 19.730469 5.078125 19.636719 5.382812 L 19.226562 6.699219 C 18.714844 6.667969 18.207031 6.714844 17.722656 6.828125 L 17.066406 5.601562 C 16.910156 5.316406 16.554688 5.207031 16.265625 5.355469 L 15.054688 5.976562 C 14.765625 6.125 14.65625 6.476562 14.808594 6.761719 L 15.464844 7.984375 C 15.09375 8.3125 14.769531 8.695312 14.503906 9.125 L 13.167969 8.707031 C 12.855469 8.609375 12.523438 8.777344 12.429688 9.085938 L 12.027344 10.378906 C 11.929688 10.683594 12.105469 11.011719 12.417969 11.109375 L 13.757812 11.523438 C 13.730469 12.03125 13.78125 12.527344 13.902344 13.007812 L 12.667969 13.644531 C 12.378906 13.792969 12.269531 14.140625 12.421875 14.425781 L 13.066406 15.628906 C 13.222656 15.914062 13.578125 16.027344 13.867188 15.878906 L 15.101562 15.242188 C 15.4375 15.613281 15.828125 15.9375 16.265625 16.203125 L 15.855469 17.515625 C 15.761719 17.824219 15.9375 18.148438 16.25 18.246094 L 17.5625 18.65625 C 17.878906 18.753906 18.207031 18.585938 18.300781 18.277344 L 18.710938 16.964844 C 19.222656 16.992188 19.730469 16.949219 20.214844 16.835938 L 20.871094 18.058594 C 21.027344 18.34375 21.382812 18.457031 21.671875 18.308594 L 22.882812 17.683594 C 23.171875 17.535156 23.28125 17.1875 23.128906 16.898438 L 22.472656 15.675781 C 22.839844 15.351562 23.167969 14.96875 23.433594 14.539062 L 24.769531 14.953125 C 25.082031 15.050781 25.414062 14.882812 25.507812 14.574219 L 25.910156 13.285156 C 26.007812 12.976562 25.832031 12.652344 25.519531 12.554688 L 24.179688 12.136719 C 24.207031 11.632812 24.15625 11.132812 24.035156 10.652344 L 25.269531 10.019531 C 25.558594 9.871094 25.667969 9.519531 25.515625 9.234375 L 24.871094 8.035156 C 24.714844 7.746094 24.359375 7.636719 24.070312 7.785156 L 22.835938 8.417969 C 22.5 8.050781 22.109375 7.726562 21.671875 7.460938 L 22.078125 6.144531 C 22.175781 5.839844 22 5.511719 21.6875 5.414062 Z M 19.671875 9.566406 C 20.945312 9.964844 21.660156 11.296875 21.273438 12.546875 C 20.882812 13.800781 19.539062 14.492188 18.265625 14.09375 C 16.992188 13.699219 16.273438 12.363281 16.664062 11.113281 C 17.054688 9.863281 18.398438 9.171875 19.671875 9.566406 Z M 19.671875 9.566406 "/>
<path style="fill:none;stroke-width:17.6;stroke-linecap:butt;stroke-linejoin:miter;stroke:rgb(100%,75.294118%,79.607843%);stroke-opacity:1;stroke-miterlimit:4;" d="M 163.540907 128.004871 C 163.564957 147.61938 147.638157 163.554763 128.006572 163.558238 C 108.374987 163.561713 92.446535 147.617369 92.463439 127.989876 C 92.439389 108.375367 108.366189 92.439984 127.997774 92.436509 C 147.62936 92.433034 163.557811 108.377378 163.540907 128.004871 Z M 163.540907 128.004871 " transform="matrix(0.0869486,0.0270761,-0.0265937,0.0854026,11.243064,-2.56703)"/>
</g>
</svg>
