
<svg xmlns="http://www.w3.org/2000/svg" xmlns:xlink="http://www.w3.org/1999/xlink" width="48px" height="48px" viewBox="0 0 48 48" version="1.1">
<g id="surface1">
<path style=" stroke:none;fill-rule:nonzero;fill:rgb(100%,100%,0%);fill-opacity:1;" d="M 25.214844 19.105469 C 25.214844 19.179688 25.214844 19.253906 25.21875 19.328125 L 25.722656 19.105469 Z M 25.214844 19.105469 "/>
<path style=" stroke:none;fill-rule:nonzero;fill:rgb(100%,100%,0%);fill-opacity:1;" d="M 36.605469 11.476562 C 36.605469 11.480469 36.605469 11.484375 36.605469 11.488281 L 37.824219 11.476562 Z M 36.605469 11.476562 "/>
<path style=" stroke:none;fill-rule:nonzero;fill:rgb(82.352941%,27.843137%,14.901961%);fill-opacity:1;" d="M 11.308594 43.246094 C 35.859375 60.507812 60.734375 28.632812 40.730469 8.296875 C 21.882812 -10.859375 -7.398438 6.902344 1.757812 30.742188 C 3.664062 35.714844 6.800781 40.078125 11.308594 43.246094 Z M 11.308594 43.246094 "/>
<path style=" stroke:none;fill-rule:nonzero;fill:rgb(100%,100%,100%);fill-opacity:1;" d="M 10.023438 14.277344 L 18.667969 14.277344 L 18.667969 18.074219 L 10.023438 18.074219 Z M 10.023438 14.277344 "/>
<path style=" stroke:none;fill-rule:nonzero;fill:rgb(100%,100%,100%);fill-opacity:1;" d="M 10.023438 25.59375 L 18.667969 25.59375 L 18.667969 32.667969 L 10.023438 32.667969 Z M 10.023438 25.59375 "/>
<path style=" stroke:none;fill-rule:nonzero;fill:rgb(100%,100%,100%);fill-opacity:1;" d="M 31.679688 14.277344 L 31.679688 23.191406 L 39.65625 23.191406 C 39.65625 18.269531 36.089844 14.277344 31.679688 14.277344 Z M 31.679688 14.277344 "/>
<path style=" stroke:none;fill-rule:nonzero;fill:rgb(100%,100%,100%);fill-opacity:1;" d="M 30.523438 15.546875 C 26.117188 15.546875 22.542969 19.535156 22.542969 24.464844 C 22.542969 29.386719 26.113281 33.378906 30.523438 33.378906 C 34.929688 33.378906 38.503906 29.390625 38.503906 24.464844 L 30.523438 24.464844 Z M 30.523438 15.546875 "/>
<path style=" stroke:none;fill-rule:nonzero;fill:rgb(100%,100%,100%);fill-opacity:1;" d="M 10.023438 19.738281 L 18.667969 19.738281 L 18.667969 23.535156 L 10.023438 23.535156 Z M 10.023438 19.738281 "/>
</g>
</svg>
