
<svg xmlns="http://www.w3.org/2000/svg" xmlns:xlink="http://www.w3.org/1999/xlink" width="48px" height="48px" viewBox="0 0 48 48" version="1.1">
<g id="surface1">
<path style=" stroke:none;fill-rule:nonzero;fill:rgb(25.098039%,87.843137%,81.568627%);fill-opacity:1;" d="M 0.609375 29.492188 C 9.980469 74.476562 74.457031 26.1875 35.726562 3.320312 C 20.679688 -6.480469 -4.210938 6.359375 0.609375 29.492188 Z M 0.609375 29.492188 "/>
<path style=" stroke:none;fill-rule:nonzero;fill:rgb(100%,100%,100%);fill-opacity:1;" d="M 20.820312 17.042969 L 20.820312 24.714844 L 24.054688 24.714844 C 25.242188 24.714844 26.164062 24.382812 26.820312 23.714844 C 27.476562 23.050781 27.804688 22.101562 27.804688 20.871094 C 27.804688 19.652344 27.476562 18.710938 26.820312 18.042969 C 26.164062 17.378906 25.242188 17.042969 24.054688 17.042969 Z M 18.257812 14.777344 L 24.054688 14.777344 C 26.179688 14.777344 27.78125 15.292969 28.867188 16.324219 C 29.960938 17.355469 30.507812 18.871094 30.507812 20.871094 C 30.507812 22.882812 29.960938 24.402344 28.867188 25.433594 C 27.78125 26.464844 26.179688 26.980469 24.054688 26.980469 L 20.820312 26.980469 L 20.820312 35.183594 L 18.257812 35.183594 Z M 18.257812 14.777344 "/>
</g>
</svg>
