
<svg xmlns="http://www.w3.org/2000/svg" xmlns:xlink="http://www.w3.org/1999/xlink" width="48px" height="48px" viewBox="0 0 48 48" version="1.1">
<g id="surface1">
<path style=" stroke:none;fill-rule:nonzero;fill:rgb(3.137255%,2.745098%,2.745098%);fill-opacity:1;" d="M 42.417969 39.671875 C 54.09375 21.714844 44.671875 5.359375 31.453125 1.480469 C 13.671875 -3.742188 -10.46875 9.976562 5.4375 38.25 C 11.761719 49.484375 34.097656 52.457031 42.414062 39.671875 Z M 42.417969 39.671875 "/>
<path style="fill-rule:evenodd;fill:rgb(100%,100%,100%);fill-opacity:1;stroke-width:1;stroke-linecap:butt;stroke-linejoin:miter;stroke:rgb(100%,100%,100%);stroke-opacity:1;stroke-miterlimit:4;" d="M 175.554077 97.557802 C 175.519993 110.513985 158.312313 121.01838 137.01036 121.015336 C 115.754002 121.006207 98.480208 110.502674 98.468695 97.552577 C 98.50278 84.596394 115.756056 74.085913 137.012413 74.095043 C 158.311256 74.074781 175.539454 84.5844 175.554077 97.557802 Z M 175.554077 97.557802 " transform="matrix(0.0841708,0.0219815,-0.0112355,0.164675,18.132075,-1.002415)"/>
<path style="fill-rule:evenodd;fill:rgb(100%,100%,100%);fill-opacity:1;stroke-width:1;stroke-linecap:butt;stroke-linejoin:miter;stroke:rgb(100%,100%,100%);stroke-opacity:1;stroke-miterlimit:4;" d="M 175.544466 97.540166 C 175.528896 110.505381 158.290316 121.019562 137.003568 121.006304 C 115.719889 121.016035 98.507718 110.514242 98.476918 97.555216 C 98.492488 84.590001 115.734136 74.09881 137.017816 74.089078 C 158.301495 74.079347 175.563104 84.597941 175.544466 97.540166 Z M 175.544466 97.540166 " transform="matrix(-0.0827682,0.0222838,0.0110482,0.16694,30.955755,-2.296685)"/>
<path style="fill-rule:evenodd;fill:rgb(27.45098%,50.980392%,70.588235%);fill-opacity:1;stroke-width:1.4209;stroke-linecap:butt;stroke-linejoin:miter;stroke:rgb(100%,100%,100%);stroke-opacity:1;stroke-miterlimit:4;" d="M 97.6106 116.807729 L 189.878947 116.808739 C 193.449795 116.800972 196.337324 117.687724 196.341452 118.787338 L 196.340911 157.16612 C 196.341405 158.245059 193.451066 159.135863 189.876584 159.122956 L 97.608237 159.121945 C 94.037389 159.129713 91.14986 158.24296 91.149366 157.164021 L 91.149907 118.78524 C 91.145779 117.685625 94.039752 116.815496 97.6106 116.807729 Z M 97.6106 116.807729 " transform="matrix(0.185897,0.024468,-0.0326692,0.184632,0.76038,-0.325877)"/>
<path style=" stroke:none;fill-rule:nonzero;fill:rgb(93.72549%,83.137255%,15.294118%);fill-opacity:1;" d="M 25.628906 35.40625 C 25.472656 35 26 34.632812 26.335938 34.914062 C 26.679688 35.199219 26.507812 35.675781 26.066406 35.675781 C 25.882812 35.675781 25.6875 35.554688 25.628906 35.40625 Z M 20.457031 34.476562 C 20.339844 34.332031 19.953125 34.160156 19.605469 34.09375 C 19.085938 33.996094 18.953125 33.878906 18.90625 33.464844 C 18.863281 33.097656 18.679688 32.878906 18.238281 32.6875 C 17.902344 32.539062 17.628906 32.300781 17.628906 32.152344 C 17.628906 31.78125 21.515625 32.027344 21.972656 32.429688 C 22.148438 32.582031 22.652344 32.753906 23.097656 32.8125 C 24.53125 33.003906 25.148438 33.757812 24.410156 34.425781 C 23.957031 34.839844 20.792969 34.878906 20.457031 34.476562 Z M 26.441406 33.894531 C 26.441406 33.699219 26.566406 33.609375 26.769531 33.648438 C 27.164062 33.722656 27.140625 34.054688 26.734375 34.140625 C 26.5625 34.175781 26.441406 34.074219 26.441406 33.894531 Z M 22.664062 26.941406 C 22.5 26.777344 22 26.597656 21.546875 26.539062 C 21.09375 26.484375 20.605469 26.34375 20.457031 26.226562 C 20.3125 26.113281 20.058594 26.007812 19.894531 26 C 19.046875 25.945312 18.960938 25.910156 19.054688 25.664062 C 19.109375 25.519531 18.988281 25.28125 18.78125 25.136719 C 18.574219 24.992188 18.347656 24.640625 18.273438 24.355469 C 18.203125 24.066406 18.035156 23.789062 17.898438 23.738281 C 17.761719 23.683594 17.601562 23.402344 17.535156 23.105469 C 17.4375 22.65625 17.542969 22.4375 18.214844 21.722656 C 18.652344 21.257812 19.25 20.824219 19.539062 20.761719 C 20.167969 20.621094 20.398438 20.316406 20.042969 20.09375 C 19.765625 19.917969 22.039062 19.820312 24.285156 19.914062 C 25.332031 19.957031 25.648438 20.042969 25.851562 20.335938 C 26.023438 20.582031 26.300781 20.6875 26.695312 20.667969 C 27.660156 20.617188 27.941406 20.664062 27.941406 20.875 C 27.941406 21.125 28.972656 22.175781 29.21875 22.175781 C 29.316406 22.175781 29.441406 22.34375 29.496094 22.550781 C 29.550781 22.753906 29.730469 22.925781 29.894531 22.925781 C 30.324219 22.925781 30.261719 22.34375 29.816406 22.226562 C 29.355469 22.109375 29.332031 21.644531 29.769531 21.308594 C 29.984375 21.144531 30.03125 21.007812 29.902344 20.910156 C 29.769531 20.816406 29.8125 20.660156 30.03125 20.453125 C 30.257812 20.230469 30.378906 20.203125 30.4375 20.359375 C 30.585938 20.78125 30.777344 20.335938 30.882812 19.3125 C 30.964844 18.519531 31.058594 18.292969 31.292969 18.308594 C 31.523438 18.324219 31.613281 18.128906 31.65625 17.507812 C 31.71875 16.628906 31.425781 16.070312 31.144531 16.527344 C 31.035156 16.699219 30.941406 16.464844 30.851562 15.824219 C 30.777344 15.292969 30.644531 14.863281 30.550781 14.863281 C 30.457031 14.863281 30.378906 14.960938 30.378906 15.085938 C 30.378906 15.21875 30.285156 15.191406 30.144531 15.011719 C 30.015625 14.851562 29.785156 14.671875 29.628906 14.617188 C 29.410156 14.539062 29.417969 14.511719 29.675781 14.5 C 29.855469 14.492188 30.003906 14.363281 30.003906 14.214844 C 30.003906 14.023438 29.734375 13.925781 29.066406 13.886719 C 27.8125 13.8125 27.78125 13.46875 29.019531 13.398438 C 29.78125 13.355469 30.003906 13.402344 30.003906 13.613281 C 30.003906 13.773438 30.292969 13.953125 30.699219 14.050781 C 31.304688 14.195312 31.421875 14.3125 31.589844 14.960938 C 31.699219 15.371094 31.890625 15.890625 32.019531 16.113281 C 32.148438 16.339844 32.253906 16.921875 32.253906 17.40625 C 32.253906 17.941406 32.394531 18.515625 32.613281 18.871094 C 33.058594 19.597656 33.367188 21.585938 33.1875 22.566406 C 33.027344 23.449219 32.34375 24.1875 31.605469 24.269531 C 31.136719 24.324219 31.046875 24.25 30.90625 23.722656 C 30.652344 22.769531 30.191406 23.054688 30.191406 24.164062 C 30.191406 24.46875 29.875 24.929688 29.25 25.539062 C 28.398438 26.359375 28.195312 26.464844 27.195312 26.578125 C 26.585938 26.652344 25.984375 26.828125 25.867188 26.972656 C 25.542969 27.359375 23.058594 27.335938 22.664062 26.941406 Z M 27.003906 23.300781 C 27.003906 23.195312 26.921875 23.113281 26.816406 23.113281 C 26.714844 23.113281 26.628906 23.195312 26.628906 23.300781 C 26.628906 23.402344 26.714844 23.488281 26.816406 23.488281 C 26.921875 23.488281 27.003906 23.402344 27.003906 23.300781 Z M 15.949219 21.8125 C 15.84375 21.613281 15.753906 21.34375 15.753906 21.21875 C 15.753906 21.089844 15.613281 20.828125 15.441406 20.640625 C 15.152344 20.316406 15.15625 20.269531 15.511719 19.875 C 15.722656 19.644531 15.9375 19.101562 15.992188 18.664062 C 16.046875 18.230469 16.269531 17.648438 16.484375 17.375 C 16.703125 17.097656 16.878906 16.714844 16.878906 16.523438 C 16.878906 16.332031 17 16.175781 17.152344 16.175781 C 17.347656 16.175781 17.4375 16.449219 17.480469 17.144531 C 17.535156 18.101562 17.890625 18.574219 18.0625 17.917969 C 18.152344 17.558594 18.257812 18.601562 18.199219 19.316406 C 18.179688 19.550781 18.296875 19.789062 18.460938 19.851562 C 18.933594 20.03125 18.828125 20.675781 18.324219 20.675781 C 18.0625 20.675781 17.625 20.96875 17.207031 21.425781 C 16.429688 22.269531 16.226562 22.332031 15.949219 21.8125 Z M 17.253906 20.300781 C 17.253906 20.195312 17.171875 20.113281 17.066406 20.113281 C 16.964844 20.113281 16.878906 20.195312 16.878906 20.300781 C 16.878906 20.402344 16.964844 20.488281 17.066406 20.488281 C 17.171875 20.488281 17.253906 20.402344 17.253906 20.300781 Z M 17.253906 18.800781 C 17.253906 18.695312 17.171875 18.613281 17.066406 18.613281 C 16.964844 18.613281 16.878906 18.695312 16.878906 18.800781 C 16.878906 18.902344 16.964844 18.988281 17.066406 18.988281 C 17.171875 18.988281 17.253906 18.902344 17.253906 18.800781 Z M 23.429688 18.378906 C 23.421875 17.9375 23.417969 16.90625 23.421875 16.082031 C 23.429688 14.605469 23.214844 13.808594 22.925781 14.214844 C 22.832031 14.347656 22.679688 14.304688 22.476562 14.09375 C 22.191406 13.800781 22.203125 13.761719 22.636719 13.527344 C 23.046875 13.308594 23.136719 13.320312 23.351562 13.613281 C 23.503906 13.820312 23.984375 14.007812 24.597656 14.101562 C 25.148438 14.179688 25.738281 14.308594 25.90625 14.378906 C 26.078125 14.453125 26.273438 14.421875 26.339844 14.3125 C 26.535156 14 26.972656 14.078125 27.175781 14.460938 C 27.339844 14.761719 27.304688 14.796875 26.875 14.714844 C 26.441406 14.628906 26.398438 14.671875 26.476562 15.082031 C 26.546875 15.453125 26.488281 15.539062 26.175781 15.527344 C 25.8125 15.519531 25.785156 15.628906 25.761719 17.0625 C 25.726562 19.160156 25.71875 19.175781 24.480469 19.175781 L 23.441406 19.175781 Z M 18.039062 16.230469 C 18.019531 15.902344 17.921875 15.582031 17.816406 15.519531 C 17.570312 15.363281 17.574219 14.675781 17.824219 14.675781 C 18.117188 14.675781 18.222656 15.109375 18.144531 16.011719 C 18.089844 16.628906 18.0625 16.683594 18.039062 16.230469 Z M 18.703125 14.085938 C 18.308594 13.867188 18.273438 13.363281 18.65625 13.363281 C 18.964844 13.363281 19.394531 14.039062 19.171875 14.179688 C 19.09375 14.226562 18.882812 14.1875 18.703125 14.085938 Z M 19.960938 13.117188 C 19.367188 12.785156 19.761719 12.613281 21.097656 12.613281 C 22.222656 12.613281 22.503906 12.667969 22.503906 12.894531 C 22.503906 13.070312 22.316406 13.179688 21.988281 13.1875 C 21.707031 13.195312 21.191406 13.21875 20.851562 13.234375 C 20.507812 13.253906 20.109375 13.199219 19.960938 13.117188 Z M 19.960938 13.117188 "/>
<path style=" stroke:none;fill-rule:nonzero;fill:rgb(66.666667%,59.607843%,10.196078%);fill-opacity:1;" d="M 17.441406 35.488281 C 17.441406 35.382812 17.527344 35.300781 17.628906 35.300781 C 17.734375 35.300781 17.816406 34.9375 17.816406 34.492188 C 17.816406 34.050781 17.921875 33.582031 18.050781 33.453125 C 18.238281 33.261719 18.199219 33.148438 17.84375 32.882812 C 17.472656 32.601562 17.421875 32.445312 17.53125 31.945312 C 17.664062 31.347656 17.671875 31.34375 18.539062 31.46875 C 19.019531 31.535156 19.492188 31.667969 19.589844 31.757812 C 19.6875 31.847656 20.242188 31.925781 20.816406 31.925781 C 21.660156 31.925781 21.996094 32.019531 22.515625 32.414062 C 23.074219 32.835938 23.097656 32.882812 22.691406 32.765625 C 22.433594 32.691406 22.097656 32.523438 21.941406 32.390625 C 21.78125 32.253906 20.8125 32.097656 19.644531 32.019531 C 17.96875 31.910156 17.628906 31.933594 17.628906 32.152344 C 17.628906 32.300781 17.902344 32.539062 18.238281 32.6875 C 18.679688 32.878906 18.863281 33.097656 18.90625 33.464844 C 18.953125 33.878906 19.085938 33.996094 19.605469 34.09375 C 19.953125 34.160156 20.339844 34.332031 20.457031 34.476562 C 20.617188 34.664062 21.152344 34.738281 22.40625 34.738281 C 23.84375 34.738281 24.1875 34.679688 24.445312 34.394531 C 24.613281 34.207031 24.753906 33.945312 24.753906 33.8125 C 24.753906 33.484375 23.988281 32.878906 23.535156 32.851562 C 23.320312 32.839844 23.261719 32.792969 23.402344 32.734375 C 23.535156 32.679688 24.003906 32.742188 24.445312 32.875 C 25.175781 33.089844 25.238281 33.15625 25.164062 33.640625 C 25.082031 34.214844 25.378906 34.363281 25.648438 33.886719 C 25.839844 33.546875 26.992188 33.339844 27.351562 33.582031 C 27.5625 33.722656 27.550781 33.835938 27.285156 34.242188 C 27.082031 34.554688 27.007812 34.90625 27.082031 35.203125 C 27.179688 35.59375 27.132812 35.675781 26.800781 35.675781 C 26.53125 35.675781 26.4375 35.585938 26.503906 35.40625 C 26.5625 35.257812 26.484375 35.039062 26.335938 34.914062 C 26 34.632812 25.472656 35 25.628906 35.40625 C 25.707031 35.613281 25.550781 35.675781 24.941406 35.675781 C 24.347656 35.675781 24.175781 35.609375 24.25 35.414062 C 24.371094 35.101562 23.59375 34.980469 21.660156 35.003906 C 20.519531 35.015625 20.355469 35.0625 20.402344 35.347656 C 20.453125 35.636719 20.28125 35.675781 18.949219 35.675781 C 18.070312 35.675781 17.441406 35.597656 17.441406 35.488281 Z M 19.785156 34.738281 C 19.785156 34.570312 19.578125 34.429688 19.269531 34.394531 C 18.773438 34.339844 18.5625 34.667969 18.886719 34.996094 C 19.117188 35.222656 19.785156 35.03125 19.785156 34.738281 Z M 27.0625 33.894531 C 27.082031 33.792969 26.949219 33.683594 26.769531 33.648438 C 26.566406 33.609375 26.441406 33.699219 26.441406 33.894531 C 26.441406 34.21875 26.996094 34.222656 27.0625 33.894531 Z M 24.707031 28.050781 C 24.835938 27.996094 25.046875 27.996094 25.175781 28.050781 C 25.304688 28.101562 25.199219 28.144531 24.941406 28.144531 C 24.683594 28.144531 24.578125 28.101562 24.707031 28.050781 Z M 22.257812 27.082031 C 21.964844 26.886719 21.300781 26.671875 20.777344 26.609375 C 19.703125 26.484375 19.53125 26.386719 19.839844 26.074219 C 20.007812 25.910156 20.140625 25.929688 20.390625 26.148438 C 20.574219 26.308594 21.089844 26.484375 21.535156 26.539062 C 21.980469 26.597656 22.492188 26.777344 22.675781 26.941406 C 23.113281 27.335938 25.542969 27.359375 25.867188 26.972656 C 25.984375 26.828125 26.585938 26.652344 27.195312 26.578125 C 28.195312 26.464844 28.398438 26.359375 29.25 25.539062 C 29.875 24.929688 30.191406 24.46875 30.191406 24.164062 C 30.191406 23.054688 30.652344 22.769531 30.90625 23.722656 C 31.046875 24.25 31.136719 24.324219 31.605469 24.269531 C 32.34375 24.1875 33.027344 23.449219 33.1875 22.566406 C 33.367188 21.585938 33.058594 19.597656 32.613281 18.871094 C 32.386719 18.503906 32.253906 17.941406 32.253906 17.367188 C 32.253906 16.859375 32.136719 16.273438 31.988281 16.066406 C 31.84375 15.855469 31.664062 15.375 31.59375 14.992188 C 31.445312 14.203125 31.445312 14.203125 30.613281 14.023438 C 30.128906 13.921875 30.003906 13.953125 30.003906 14.191406 C 30.003906 14.53125 29.246094 14.59375 28.699219 14.304688 C 28.449219 14.167969 28.292969 14.195312 28.125 14.398438 C 27.816406 14.769531 27.382812 14.746094 27.082031 14.347656 C 26.875 14.066406 26.78125 14.054688 26.445312 14.257812 C 26.230469 14.390625 25.953125 14.4375 25.828125 14.363281 C 25.707031 14.285156 25.15625 14.164062 24.601562 14.089844 C 23.96875 14.003906 23.503906 13.824219 23.34375 13.609375 C 23.128906 13.320312 23.03125 13.304688 22.707031 13.503906 C 22.199219 13.8125 21.851562 13.796875 21.566406 13.457031 C 21.367188 13.214844 21.421875 13.175781 21.917969 13.175781 C 22.316406 13.175781 22.503906 13.082031 22.503906 12.894531 C 22.503906 12.667969 22.222656 12.613281 21.097656 12.613281 C 19.777344 12.613281 19.269531 12.835938 19.980469 13.109375 C 20.238281 13.207031 20.234375 13.261719 19.953125 13.574219 C 19.570312 13.996094 19.207031 14.023438 19.0625 13.644531 C 18.921875 13.273438 18.378906 13.277344 18.378906 13.648438 C 18.378906 13.808594 18.507812 13.984375 18.660156 14.042969 C 19.042969 14.191406 19.015625 14.550781 18.589844 14.933594 C 18.277344 15.214844 18.226562 15.21875 18.128906 14.964844 C 18.066406 14.804688 17.929688 14.675781 17.824219 14.675781 C 17.570312 14.675781 17.574219 15.292969 17.832031 15.550781 C 18.054688 15.773438 18.171875 17.941406 17.96875 18.144531 C 17.679688 18.4375 17.441406 17.96875 17.441406 17.101562 C 17.441406 16.402344 17.375 16.175781 17.160156 16.175781 C 17.007812 16.175781 16.878906 16.332031 16.878906 16.523438 C 16.878906 16.714844 16.703125 17.097656 16.484375 17.375 C 16.269531 17.648438 16.046875 18.230469 15.992188 18.664062 C 15.9375 19.101562 15.722656 19.644531 15.511719 19.875 C 15.167969 20.253906 15.15625 20.328125 15.417969 20.625 C 15.574219 20.808594 15.761719 21.191406 15.828125 21.480469 C 16.023438 22.296875 16.414062 22.289062 17.191406 21.441406 C 17.621094 20.972656 18.0625 20.675781 18.324219 20.675781 C 18.820312 20.675781 18.9375 20.035156 18.472656 19.855469 C 18.132812 19.726562 18.085938 18.921875 18.425781 19.03125 C 18.554688 19.070312 18.746094 19.289062 18.847656 19.515625 C 18.949219 19.738281 19.199219 19.925781 19.410156 19.925781 C 20.378906 19.933594 20.472656 20.554688 19.539062 20.761719 C 19.25 20.824219 18.652344 21.257812 18.214844 21.722656 C 17.542969 22.4375 17.4375 22.65625 17.535156 23.105469 C 17.601562 23.402344 17.761719 23.683594 17.898438 23.738281 C 18.035156 23.789062 18.203125 24.058594 18.273438 24.339844 C 18.34375 24.621094 18.585938 25 18.8125 25.1875 C 19.160156 25.472656 19.183594 25.558594 18.960938 25.769531 C 18.816406 25.90625 18.753906 25.921875 18.820312 25.804688 C 18.882812 25.6875 18.820312 25.492188 18.675781 25.371094 C 18.472656 25.203125 18.398438 25.210938 18.347656 25.398438 C 18.304688 25.570312 18.15625 25.523438 17.847656 25.234375 C 17.433594 24.847656 17.433594 24.832031 17.800781 24.929688 C 18.214844 25.035156 18.292969 24.871094 18.023438 24.445312 C 17.933594 24.304688 17.769531 24.242188 17.664062 24.308594 C 17.542969 24.382812 17.402344 24.113281 17.304688 23.632812 C 17.183594 23.015625 17.0625 22.832031 16.777344 22.832031 C 16.394531 22.832031 15.378906 21.925781 15.378906 21.585938 C 15.378906 21.476562 15.238281 21.148438 15.0625 20.851562 C 14.773438 20.363281 14.773438 20.265625 15.039062 19.699219 C 16.003906 17.664062 16.335938 16.988281 16.488281 16.738281 C 16.582031 16.582031 16.890625 15.992188 17.167969 15.425781 C 17.445312 14.855469 17.789062 14.257812 17.933594 14.097656 C 18.074219 13.933594 18.191406 13.714844 18.191406 13.605469 C 18.191406 13.5 18.539062 13.171875 18.960938 12.882812 C 19.636719 12.410156 19.882812 12.351562 21.066406 12.371094 C 22.203125 12.386719 22.445312 12.449219 22.664062 12.78125 C 22.808594 12.996094 23.007812 13.175781 23.109375 13.175781 C 23.207031 13.175781 23.535156 13.347656 23.839844 13.5625 C 24.648438 14.140625 26.671875 14.152344 27.566406 13.589844 C 28.378906 13.078125 29.632812 13.042969 30.339844 13.507812 C 30.621094 13.695312 31.003906 13.925781 31.195312 14.027344 C 31.710938 14.300781 32.425781 16.125 32.433594 17.191406 C 32.4375 17.703125 32.558594 18.246094 32.703125 18.410156 C 32.847656 18.570312 33.148438 19.417969 33.371094 20.289062 C 33.761719 21.816406 33.765625 21.90625 33.457031 22.714844 C 33.144531 23.535156 32.371094 24.40625 31.949219 24.417969 C 31.832031 24.421875 31.628906 24.554688 31.496094 24.714844 C 31.367188 24.875 31.148438 24.960938 31.011719 24.910156 C 30.664062 24.777344 29.960938 25.179688 29.132812 25.984375 C 28.691406 26.414062 28.242188 26.675781 27.941406 26.675781 C 27.679688 26.675781 27.253906 26.820312 27 27 C 26.652344 27.242188 26.0625 27.339844 24.660156 27.382812 C 23.054688 27.4375 22.710938 27.394531 22.257812 27.082031 Z M 19.503906 20.300781 C 19.503906 20.195312 19.421875 20.113281 19.316406 20.113281 C 19.214844 20.113281 19.128906 20.195312 19.128906 20.300781 C 19.128906 20.402344 19.214844 20.488281 19.316406 20.488281 C 19.421875 20.488281 19.503906 20.402344 19.503906 20.300781 Z M 30.003906 13.644531 C 30.003906 13.429688 29.777344 13.363281 29.078125 13.363281 C 28.203125 13.363281 27.804688 13.535156 28.074219 13.804688 C 28.136719 13.871094 28.601562 13.925781 29.097656 13.925781 C 29.777344 13.925781 30.003906 13.855469 30.003906 13.644531 Z M 26.628906 23.300781 C 26.628906 23.195312 26.714844 23.113281 26.816406 23.113281 C 26.921875 23.113281 27.003906 23.195312 27.003906 23.300781 C 27.003906 23.402344 26.921875 23.488281 26.816406 23.488281 C 26.714844 23.488281 26.628906 23.402344 26.628906 23.300781 Z M 29.496094 22.550781 C 29.441406 22.34375 29.316406 22.175781 29.21875 22.175781 C 28.953125 22.175781 27.875 21.050781 28.011719 20.917969 C 28.074219 20.851562 28.335938 20.894531 28.589844 21.011719 C 28.882812 21.144531 29.09375 21.15625 29.164062 21.042969 C 29.316406 20.800781 30.003906 20.8125 30.003906 21.054688 C 30.003906 21.160156 29.878906 21.296875 29.722656 21.355469 C 29.3125 21.511719 29.378906 22.113281 29.816406 22.226562 C 30.261719 22.34375 30.324219 22.925781 29.894531 22.925781 C 29.730469 22.925781 29.550781 22.753906 29.496094 22.550781 Z M 25.816406 20.285156 C 25.5625 19.925781 25.351562 19.890625 23.320312 19.882812 L 21.097656 19.875 L 21.917969 19.523438 C 22.5625 19.246094 22.714844 19.09375 22.640625 18.808594 C 22.542969 18.433594 22.960938 17.675781 23.265625 17.675781 C 23.363281 17.675781 23.441406 18.011719 23.441406 18.425781 L 23.441406 19.175781 L 24.464844 19.175781 C 25.238281 19.175781 25.53125 19.09375 25.667969 18.847656 C 25.824219 18.570312 25.867188 18.601562 25.984375 19.082031 C 26.140625 19.738281 26.582031 20.300781 26.941406 20.300781 C 27.078125 20.300781 27.191406 20.382812 27.191406 20.488281 C 27.191406 20.847656 26.097656 20.6875 25.816406 20.285156 Z M 16.878906 20.300781 C 16.878906 20.195312 16.964844 20.113281 17.066406 20.113281 C 17.171875 20.113281 17.253906 20.195312 17.253906 20.300781 C 17.253906 20.402344 17.171875 20.488281 17.066406 20.488281 C 16.964844 20.488281 16.878906 20.402344 16.878906 20.300781 Z M 30.378906 20.214844 C 30.378906 20.066406 30.464844 19.894531 30.566406 19.832031 C 30.671875 19.765625 30.753906 19.886719 30.753906 20.101562 C 30.753906 20.3125 30.671875 20.488281 30.566406 20.488281 C 30.464844 20.488281 30.378906 20.363281 30.378906 20.214844 Z M 16.878906 18.800781 C 16.878906 18.695312 16.964844 18.613281 17.066406 18.613281 C 17.171875 18.613281 17.253906 18.695312 17.253906 18.800781 C 17.253906 18.902344 17.171875 18.988281 17.066406 18.988281 C 16.964844 18.988281 16.878906 18.902344 16.878906 18.800781 Z M 31.070312 18.304688 C 30.882812 18.113281 30.917969 16.875 31.125 16.550781 C 31.425781 16.078125 31.722656 16.605469 31.65625 17.492188 C 31.601562 18.257812 31.359375 18.589844 31.070312 18.304688 Z M 25.691406 15.984375 C 25.691406 15.734375 25.835938 15.539062 26.066406 15.476562 C 26.273438 15.425781 26.441406 15.222656 26.441406 15.027344 C 26.441406 14.800781 26.574219 14.675781 26.816406 14.675781 C 27.285156 14.675781 27.320312 15.238281 26.855469 15.359375 C 26.671875 15.40625 26.441406 15.625 26.339844 15.84375 C 26.089844 16.398438 25.691406 16.484375 25.691406 15.984375 Z M 30.480469 15.371094 C 30.398438 15.183594 30.386719 14.980469 30.449219 14.917969 C 30.640625 14.726562 30.792969 14.992188 30.707031 15.363281 C 30.628906 15.691406 30.617188 15.691406 30.480469 15.371094 Z M 22.898438 15.003906 C 22.734375 14.558594 22.816406 14.113281 23.066406 14.113281 C 23.253906 14.113281 23.441406 14.59375 23.441406 15.066406 C 23.441406 15.558594 23.089844 15.519531 22.898438 15.003906 Z M 22.898438 15.003906 "/>
<path style="fill-rule:evenodd;fill:rgb(17.647059%,38.039216%,63.921569%);fill-opacity:1;stroke-width:1;stroke-linecap:butt;stroke-linejoin:miter;stroke:rgb(0%,0%,0%);stroke-opacity:1;stroke-miterlimit:4;" d="M 116.445749 99.291983 C 116.445749 102.324664 113.987738 104.802798 110.941483 104.802798 C 107.895229 104.802798 105.437217 102.324664 105.437217 99.291983 C 105.437217 96.241972 107.895229 93.781167 110.941483 93.781167 C 113.987738 93.781167 116.445749 96.241972 116.445749 99.291983 Z M 116.445749 99.291983 " transform="matrix(0.185935,0,0,0.225409,0.282215,-4.307089)"/>
<path style="fill-rule:evenodd;fill:rgb(17.647059%,38.039216%,63.921569%);fill-opacity:1;stroke-width:1;stroke-linecap:butt;stroke-linejoin:miter;stroke:rgb(0%,0%,0%);stroke-opacity:1;stroke-miterlimit:4;" d="M 116.447935 99.291274 C 116.447935 102.323956 113.989923 104.80209 110.943669 104.80209 C 107.897414 104.80209 105.439403 102.323956 105.439403 99.291274 C 105.439403 96.241263 107.897414 93.780459 110.943669 93.780459 C 113.989923 93.780459 116.447935 96.241263 116.447935 99.291274 Z M 116.447935 99.291274 " transform="matrix(-0.185935,0,0,0.225409,48.925222,-3.763961)"/>
</g>
</svg>
