
<svg xmlns="http://www.w3.org/2000/svg" xmlns:xlink="http://www.w3.org/1999/xlink" width="48px" height="48px" viewBox="0 0 48 48" version="1.1">
<g id="surface1">
<path style=" stroke:none;fill-rule:nonzero;fill:rgb(96.078431%,96.078431%,96.078431%);fill-opacity:1;" d="M 29.445312 47.171875 C 74.050781 37.882812 26.167969 -26.019531 3.496094 12.367188 C -6.222656 27.28125 6.507812 51.949219 29.445312 47.171875 Z M 29.445312 47.171875 "/>
<path style=" stroke:none;fill-rule:nonzero;fill:rgb(100%,27.058824%,0%);fill-opacity:1;" d="M 18.984375 36.875 C 16.199219 35.90625 13.675781 33.984375 12.082031 31.621094 C 10.738281 29.625 10.554688 29.15625 9.914062 26.117188 C 9.578125 24.511719 9.558594 23.882812 9.816406 22.464844 C 10.332031 19.597656 10.765625 18.402344 11.867188 16.800781 C 13.878906 13.875 16.679688 11.796875 19.628906 11.042969 C 22.625 10.277344 27.929688 10.625 29.730469 11.707031 C 34.117188 14.335938 35.464844 15.910156 37.359375 20.621094 C 37.894531 21.945312 37.835938 26.160156 37.261719 27.738281 C 35.917969 31.441406 33.488281 34.433594 30.554688 35.996094 C 27.316406 37.722656 22.476562 38.089844 18.984375 36.875 Z M 22 33.148438 C 22 31.65625 21.9375 31.445312 21.476562 31.378906 C 19.929688 31.144531 19.738281 31.039062 19.820312 30.460938 C 19.886719 30 20.101562 29.867188 20.882812 29.804688 C 22.023438 29.710938 22.210938 29.308594 22.082031 27.257812 L 22 25.96875 L 20.027344 25.894531 L 18.058594 25.820312 L 17.757812 26.613281 C 17.367188 27.644531 16.660156 27.648438 16.457031 26.621094 C 16.296875 25.84375 16.289062 25.839844 14.496094 25.839844 C 12.484375 25.839844 12.480469 25.839844 13.042969 27.699219 C 13.488281 29.171875 15.039062 31.421875 16.425781 32.613281 C 17.570312 33.597656 20.601562 34.960938 21.476562 34.886719 C 21.941406 34.847656 22 34.652344 22 33.148438 Z M 26.992188 34.742188 C 27.128906 34.617188 27.714844 34.367188 28.289062 34.1875 C 30.109375 33.621094 33.636719 30.359375 33.65625 29.226562 C 33.660156 29.003906 33.839844 28.578125 34.050781 28.273438 C 34.265625 27.96875 34.472656 27.328125 34.511719 26.847656 L 34.582031 25.96875 L 30.386719 25.96875 L 30.257812 26.878906 C 30.023438 28.488281 28.695312 28.203125 28.6875 26.546875 L 28.683594 25.816406 L 26.785156 25.894531 L 24.882812 25.96875 L 24.804688 27.492188 C 24.714844 29.226562 25.007812 29.753906 26.0625 29.753906 C 26.460938 29.753906 26.929688 29.929688 27.109375 30.144531 C 27.589844 30.722656 27.023438 31.273438 25.847656 31.371094 L 24.882812 31.449219 L 24.800781 32.855469 C 24.757812 33.625 24.785156 34.417969 24.859375 34.617188 C 25.011719 35.011719 26.597656 35.109375 26.992188 34.742188 Z M 15.773438 23.066406 C 16.292969 22.925781 16.363281 22.738281 16.363281 21.496094 C 16.363281 20.476562 16.472656 20.039062 16.761719 19.929688 C 17.433594 19.671875 17.9375 20.347656 17.9375 21.515625 C 17.9375 22.113281 18.078125 22.746094 18.25 22.917969 C 18.425781 23.089844 19.246094 23.230469 20.078125 23.230469 C 21.960938 23.230469 22.128906 22.976562 22.128906 20.136719 C 22.128906 17.554688 22.011719 17.226562 21.074219 17.226562 C 20.375 17.226562 19.507812 16.660156 19.507812 16.199219 C 19.507812 15.796875 20.171875 15.445312 21.082031 15.359375 C 21.863281 15.285156 22 15.175781 22 14.617188 C 22 13.648438 21.121094 13.660156 19.054688 14.652344 C 16.882812 15.699219 15.769531 16.617188 14.371094 18.519531 C 13.324219 19.949219 12.464844 22.390625 12.816406 22.957031 C 13 23.253906 14.820312 23.320312 15.773438 23.066406 Z M 28.09375 23.066406 C 28.503906 22.957031 28.683594 22.710938 28.683594 22.269531 C 28.683594 21.441406 29.132812 20.621094 29.582031 20.621094 C 29.996094 20.621094 30.257812 21.183594 30.257812 22.066406 C 30.257812 22.894531 30.964844 23.230469 32.699219 23.230469 C 34.9375 23.230469 35.136719 22.539062 33.726562 19.707031 C 32.632812 17.519531 30.519531 15.496094 28.421875 14.628906 C 28.0625 14.480469 27.5625 14.238281 27.3125 14.097656 C 26.601562 13.6875 25.023438 13.773438 24.847656 14.230469 C 24.617188 14.820312 25.242188 15.402344 26.105469 15.402344 C 27.496094 15.402344 27.394531 17.011719 25.992188 17.179688 C 24.871094 17.3125 24.691406 17.785156 24.792969 20.363281 C 24.859375 22.105469 24.988281 22.792969 25.277344 22.972656 C 25.722656 23.253906 27.207031 23.300781 28.09375 23.066406 Z M 28.09375 23.066406 "/>
</g>
</svg>
