
<svg xmlns="http://www.w3.org/2000/svg" xmlns:xlink="http://www.w3.org/1999/xlink" width="48px" height="48px" viewBox="0 0 48 48" version="1.1">
<g id="surface1">
<path style=" stroke:none;fill-rule:nonzero;fill:rgb(72.54902%,83.529412%,89.411765%);fill-opacity:1;" d="M 22.105469 47.675781 C 51.09375 50.433594 58.898438 3.941406 29.128906 0.328125 C 1.757812 -4.144531 -12.339844 38 14.859375 46.425781 C 17.15625 47.351562 19.671875 47.332031 22.101562 47.675781 Z M 22.105469 47.675781 "/>
<path style=" stroke:none;fill-rule:nonzero;fill:rgb(0%,0%,0%);fill-opacity:0.101961;" d="M 20.492188 14.59375 L 19.585938 19.683594 L 13.84375 19.683594 L 13.25 23.074219 L 18.964844 23.074219 L 18.371094 26.464844 L 13.84375 26.464844 L 13.253906 29.855469 L 17.777344 29.855469 L 16.875 34.941406 L 20.496094 34.941406 L 21.398438 29.855469 L 25.019531 29.855469 L 24.113281 34.941406 L 27.734375 34.941406 L 28.640625 29.855469 L 34.382812 29.855469 L 34.976562 26.464844 L 29.261719 26.464844 L 29.855469 23.074219 L 34.378906 23.074219 L 34.972656 19.683594 L 30.449219 19.683594 L 31.355469 14.59375 L 27.734375 14.59375 L 26.828125 19.683594 L 23.207031 19.683594 L 24.113281 14.59375 Z M 22.585938 23.074219 L 26.234375 23.074219 L 25.636719 26.464844 L 21.992188 26.464844 Z M 22.585938 23.074219 "/>
<path style=" stroke:none;fill-rule:nonzero;fill:rgb(50.588235%,55.686275%,60.392157%);fill-opacity:1;" d="M 20.492188 13.746094 L 19.585938 18.835938 L 13.84375 18.835938 L 13.25 22.226562 L 18.964844 22.226562 L 18.371094 25.617188 L 13.84375 25.617188 L 13.253906 29.007812 L 17.777344 29.007812 L 16.875 34.09375 L 20.496094 34.09375 L 21.398438 29.007812 L 25.019531 29.007812 L 24.113281 34.09375 L 27.734375 34.09375 L 28.640625 29.007812 L 34.382812 29.007812 L 34.976562 25.617188 L 29.261719 25.617188 L 29.855469 22.226562 L 34.378906 22.226562 L 34.972656 18.835938 L 30.449219 18.835938 L 31.355469 13.746094 L 27.734375 13.746094 L 26.828125 18.835938 L 23.207031 18.835938 L 24.113281 13.746094 Z M 22.585938 22.226562 L 26.234375 22.226562 L 25.636719 25.617188 L 21.992188 25.617188 Z M 22.585938 22.226562 "/>
</g>
</svg>
