
<svg xmlns="http://www.w3.org/2000/svg" xmlns:xlink="http://www.w3.org/1999/xlink" width="48px" height="48px" viewBox="0 0 48 48" version="1.1">
<g id="surface1">
<path style=" stroke:none;fill-rule:nonzero;fill:rgb(100%,71.372549%,75.686275%);fill-opacity:1;" d="M 22.105469 0.117188 C 51.09375 -2.640625 58.898438 43.851562 29.128906 47.464844 C 1.757812 51.9375 -12.339844 9.796875 14.859375 1.367188 C 17.15625 0.445312 19.671875 0.460938 22.101562 0.117188 Z M 22.105469 0.117188 "/>
<path style=" stroke:none;fill-rule:nonzero;fill:rgb(100%,27.058824%,0%);fill-opacity:1;" d="M 20.570312 30.011719 L 20.570312 33.019531 L 17.589844 33.019531 C 17.050781 33.019531 16.613281 33.511719 16.613281 34.121094 C 16.613281 34.730469 17.050781 35.222656 17.589844 35.222656 L 28.46875 35.222656 C 29.007812 35.222656 29.445312 34.730469 29.445312 34.121094 C 29.445312 33.511719 29.007812 33.019531 28.46875 33.019531 L 25.492188 33.019531 L 25.492188 30.011719 Z M 20.570312 30.011719 "/>
<path style=" stroke:none;fill-rule:nonzero;fill:rgb(100%,27.058824%,0%);fill-opacity:1;" d="M 10.394531 12.34375 C 9.9375 12.34375 9.566406 12.761719 9.566406 13.28125 L 9.566406 30.214844 C 9.566406 30.734375 9.9375 31.144531 10.394531 31.144531 L 35.664062 31.144531 C 36.121094 31.144531 36.492188 30.734375 36.492188 30.214844 L 36.492188 13.28125 C 36.492188 12.761719 36.121094 12.34375 35.664062 12.34375 Z M 12.011719 14.8125 L 34.046875 14.8125 L 34.046875 28.675781 L 12.011719 28.675781 Z M 12.011719 14.8125 "/>
<path style=" stroke:none;fill-rule:nonzero;fill:rgb(100%,27.058824%,0%);fill-opacity:1;" d="M 22.699219 20.140625 L 22.699219 21.628906 L 40.699219 21.628906 L 40.699219 20.140625 Z M 22.699219 20.140625 "/>
<path style=" stroke:none;fill-rule:nonzero;fill:rgb(100%,27.058824%,0%);fill-opacity:1;" d="M 22.695312 18.007812 L 22.695312 21.527344 L 24.070312 21.527344 L 24.070312 18.007812 Z M 22.695312 18.007812 "/>
<path style=" stroke:none;fill-rule:nonzero;fill:rgb(100%,27.058824%,0%);fill-opacity:1;" d="M 31.761719 18.855469 L 31.761719 21.425781 L 33.511719 21.425781 L 33.511719 18.855469 Z M 31.761719 18.855469 "/>
<path style=" stroke:none;fill-rule:nonzero;fill:rgb(100%,27.058824%,0%);fill-opacity:1;" d="M 28.636719 18.988281 L 28.636719 21.558594 L 30.386719 21.558594 L 30.386719 18.988281 Z M 28.636719 18.988281 "/>
<path style=" stroke:none;fill-rule:nonzero;fill:rgb(100%,27.058824%,0%);fill-opacity:1;" d="M 37.199219 24.875 L 37.199219 34.34375 L 39.574219 34.34375 L 39.574219 24.875 Z M 37.199219 24.875 "/>
<path style=" stroke:none;fill-rule:nonzero;fill:rgb(100%,27.058824%,0%);fill-opacity:1;" d="M 25.953125 21.492188 L 25.953125 38.945312 L 37.324219 38.945312 L 37.324219 21.492188 Z M 25.953125 21.492188 "/>
<path style=" stroke:none;fill-rule:nonzero;fill:rgb(59.607843%,0%,0%);fill-opacity:1;" d="M 32.652344 31.753906 L 40.722656 31.753906 L 40.722656 28.699219 L 32.652344 28.699219 Z M 32.652344 31.753906 "/>
<path style=" stroke:none;fill-rule:nonzero;fill:rgb(59.607843%,0%,0%);fill-opacity:1;" d="M 28.09375 26.695312 C 27.867188 26.222656 27.183594 25.984375 26.5625 26.152344 C 25.941406 26.324219 25.621094 26.84375 25.847656 27.3125 C 26.070312 27.78125 26.757812 28.023438 27.378906 27.855469 C 28 27.683594 28.320312 27.167969 28.097656 26.695312 "/>
<path style=" stroke:none;fill-rule:nonzero;fill:rgb(59.607843%,0%,0%);fill-opacity:1;" d="M 28.09375 29.296875 C 27.867188 28.828125 27.183594 28.585938 26.5625 28.753906 C 25.941406 28.925781 25.621094 29.445312 25.847656 29.914062 C 26.070312 30.382812 26.757812 30.625 27.378906 30.457031 C 28 30.285156 28.320312 29.769531 28.097656 29.296875 "/>
<path style=" stroke:none;fill-rule:nonzero;fill:rgb(59.607843%,0%,0%);fill-opacity:1;" d="M 28.09375 31.671875 C 27.867188 31.203125 27.183594 30.960938 26.5625 31.132812 C 25.941406 31.300781 25.621094 31.820312 25.847656 32.289062 C 26.070312 32.757812 26.757812 33.003906 27.378906 32.832031 C 27.996094 32.664062 28.320312 32.144531 28.097656 31.675781 "/>
<path style=" stroke:none;fill-rule:nonzero;fill:rgb(59.607843%,0%,0%);fill-opacity:1;" d="M 28.464844 23.609375 L 29.660156 23.609375 L 29.660156 21.6875 L 28.464844 21.6875 Z M 28.464844 23.609375 "/>
<path style=" stroke:none;fill-rule:nonzero;fill:rgb(59.607843%,0%,0%);fill-opacity:1;" d="M 30.257812 23.660156 L 31.457031 23.660156 L 31.457031 21.738281 L 30.257812 21.738281 Z M 30.257812 23.660156 "/>
<path style=" stroke:none;fill-rule:nonzero;fill:rgb(59.607843%,0%,0%);fill-opacity:1;" d="M 32.148438 23.628906 L 33.34375 23.628906 L 33.34375 21.707031 L 32.148438 21.707031 Z M 32.148438 23.628906 "/>
<path style=" stroke:none;fill-rule:nonzero;fill:rgb(59.607843%,0%,0%);fill-opacity:1;" d="M 33.917969 23.660156 L 35.113281 23.660156 L 35.113281 21.738281 L 33.917969 21.738281 Z M 33.917969 23.660156 "/>
<path style=" stroke:none;fill-rule:nonzero;fill:rgb(59.607843%,0%,0%);fill-opacity:1;" d="M 35.484375 23.660156 L 36.679688 23.660156 L 36.679688 21.738281 L 35.484375 21.738281 Z M 35.484375 23.660156 "/>
<path style=" stroke:none;fill-rule:nonzero;fill:rgb(59.607843%,0%,0%);fill-opacity:1;" d="M 39.144531 27.890625 L 40.339844 27.890625 L 40.339844 26.820312 L 39.144531 26.820312 Z M 39.144531 27.890625 "/>
<path style=" stroke:none;fill-rule:nonzero;fill:rgb(59.607843%,0%,0%);fill-opacity:1;" d="M 36.972656 27.921875 L 38.171875 27.921875 L 38.171875 26.851562 L 36.972656 26.851562 Z M 36.972656 27.921875 "/>
<path style=" stroke:none;fill-rule:nonzero;fill:rgb(59.607843%,0%,0%);fill-opacity:1;" d="M 34.441406 26.21875 L 40.300781 26.21875 L 40.300781 25.148438 L 34.441406 25.148438 Z M 34.441406 26.21875 "/>
<path style=" stroke:none;fill-rule:nonzero;fill:rgb(59.607843%,0%,0%);fill-opacity:1;" d="M 33.597656 32.367188 L 34.308594 32.367188 L 34.308594 31.75 L 33.597656 31.75 Z M 33.597656 32.367188 "/>
<path style=" stroke:none;fill-rule:nonzero;fill:rgb(59.607843%,0%,0%);fill-opacity:1;" d="M 35.085938 32.335938 L 35.796875 32.335938 L 35.796875 31.71875 L 35.085938 31.71875 Z M 35.085938 32.335938 "/>
<path style=" stroke:none;fill-rule:nonzero;fill:rgb(59.607843%,0%,0%);fill-opacity:1;" d="M 36.613281 32.367188 L 37.324219 32.367188 L 37.324219 31.75 L 36.613281 31.75 Z M 36.613281 32.367188 "/>
<path style=" stroke:none;fill-rule:nonzero;fill:rgb(59.607843%,0%,0%);fill-opacity:1;" d="M 38.0625 32.398438 L 38.773438 32.398438 L 38.773438 31.78125 L 38.0625 31.78125 Z M 38.0625 32.398438 "/>
<path style=" stroke:none;fill-rule:nonzero;fill:rgb(59.607843%,0%,0%);fill-opacity:1;" d="M 39.507812 32.398438 L 40.222656 32.398438 L 40.222656 31.78125 L 39.507812 31.78125 Z M 39.507812 32.398438 "/>
<path style=" stroke:none;fill-rule:nonzero;fill:rgb(59.607843%,0%,0%);fill-opacity:1;" d="M 39.507812 28.804688 L 40.222656 28.804688 L 40.222656 28.191406 L 39.507812 28.191406 Z M 39.507812 28.804688 "/>
<path style=" stroke:none;fill-rule:nonzero;fill:rgb(59.607843%,0%,0%);fill-opacity:1;" d="M 38.101562 28.804688 L 38.8125 28.804688 L 38.8125 28.191406 L 38.101562 28.191406 Z M 38.101562 28.804688 "/>
<path style=" stroke:none;fill-rule:nonzero;fill:rgb(59.607843%,0%,0%);fill-opacity:1;" d="M 36.613281 28.835938 L 37.324219 28.835938 L 37.324219 28.21875 L 36.613281 28.21875 Z M 36.613281 28.835938 "/>
<path style=" stroke:none;fill-rule:nonzero;fill:rgb(59.607843%,0%,0%);fill-opacity:1;" d="M 35.164062 28.835938 L 35.878906 28.835938 L 35.878906 28.21875 L 35.164062 28.21875 Z M 35.164062 28.835938 "/>
<path style=" stroke:none;fill-rule:nonzero;fill:rgb(59.607843%,0%,0%);fill-opacity:1;" d="M 33.597656 28.867188 L 34.308594 28.867188 L 34.308594 28.25 L 33.597656 28.25 Z M 33.597656 28.867188 "/>
<path style=" stroke:none;fill-rule:nonzero;fill:rgb(59.607843%,0%,0%);fill-opacity:1;" d="M 29.855469 27.890625 L 32.863281 27.890625 L 32.863281 25.605469 L 29.855469 25.605469 Z M 29.855469 27.890625 "/>
<path style=" stroke:none;fill-rule:nonzero;fill:rgb(59.607843%,0%,0%);fill-opacity:1;" d="M 29.898438 32.335938 L 31.09375 32.335938 L 31.09375 31.265625 L 29.898438 31.265625 Z M 29.898438 32.335938 "/>
<path style=" stroke:none;fill-rule:nonzero;fill:rgb(59.607843%,0%,0%);fill-opacity:1;" d="M 29.855469 30.660156 L 31.050781 30.660156 L 31.050781 29.589844 L 29.855469 29.589844 Z M 29.855469 30.660156 "/>
</g>
</svg>
