
<svg xmlns="http://www.w3.org/2000/svg" xmlns:xlink="http://www.w3.org/1999/xlink" width="48px" height="48px" viewBox="0 0 48 48" version="1.1">
<defs>
<linearGradient id="linear0" gradientUnits="userSpaceOnUse" x1="0" y1="26" x2="0" y2="486" gradientTransform="matrix(0.0628181,0,0,-0.0500723,8.383616,37.584775)">
<stop offset="0" style="stop-color:rgb(90.980392%,10.980392%,14.117647%);stop-opacity:1;"/>
<stop offset="1" style="stop-color:rgb(48.627451%,7.45098%,8.235294%);stop-opacity:1;"/>
</linearGradient>
</defs>
<g id="surface1">
<path style=" stroke:none;fill-rule:nonzero;fill:rgb(69.803922%,13.333333%,13.333333%);fill-opacity:1;" d="M 41.84375 7.59375 C 69.0625 49.132812 -5.285156 65.210938 0.636719 22.472656 C 3.050781 5.042969 31.429688 -8.300781 41.84375 7.59375 Z M 41.84375 7.59375 "/>
<path style=" stroke:none;fill-rule:nonzero;fill:rgb(69.803922%,13.333333%,13.333333%);fill-opacity:1;" d="M 5.21875 24.652344 C 2.273438 0.601562 44.410156 0.9375 43.914062 25.078125 C 45.300781 47.53125 2.921875 49.558594 5.21875 24.652344 Z M 5.21875 24.652344 "/>
<path style=" stroke:none;fill-rule:nonzero;fill:url(#linear0);" d="M 13.328125 15.890625 C 8.914062 19.410156 8.914062 30.121094 13.328125 33.644531 C 17.746094 37.164062 31.183594 37.164062 35.601562 33.644531 C 40.015625 30.125 40.015625 19.410156 35.601562 15.890625 C 33.394531 14.128906 28.929688 13.25 24.464844 13.25 C 20 13.25 15.535156 14.128906 13.328125 15.890625 "/>
<path style=" stroke:none;fill-rule:nonzero;fill:rgb(100%,100%,100%);fill-opacity:1;" d="M 24.214844 18.65625 C 19.59375 18.65625 15.847656 21.320312 15.847656 24.613281 C 15.847656 26.488281 17.0625 28.15625 18.964844 29.25 L 17.890625 30.570312 L 24.214844 30.570312 C 28.835938 30.570312 32.582031 27.902344 32.582031 24.613281 C 32.582031 21.320312 28.835938 18.65625 24.214844 18.65625 "/>
</g>
</svg>
