
<svg xmlns="http://www.w3.org/2000/svg" xmlns:xlink="http://www.w3.org/1999/xlink" width="48px" height="48px" viewBox="0 0 48 48" version="1.1">
<g id="surface1">
<path style=" stroke:none;fill-rule:nonzero;fill:rgb(100%,100%,100%);fill-opacity:1;" d="M 15.738281 24.589844 L 15.738281 33.941406 C 15.738281 39.554688 16.699219 39.554688 25.363281 39.554688 L 27.289062 39.554688 C 35.949219 39.554688 36.914062 39.554688 36.914062 33.941406 L 36.914062 24.589844 C 36.914062 18.976562 35.949219 18.976562 27.289062 18.976562 L 25.363281 18.976562 C 16.699219 18.976562 15.738281 18.976562 15.738281 24.589844 Z M 25.363281 20.847656 L 27.289062 20.847656 C 34.988281 20.847656 34.988281 20.847656 34.988281 24.589844 L 34.988281 31.136719 C 34.988281 34.878906 34.988281 34.878906 27.289062 34.878906 L 25.363281 34.878906 C 17.664062 34.878906 17.664062 34.878906 17.664062 31.136719 L 17.664062 24.589844 C 17.664062 20.847656 17.664062 20.847656 25.363281 20.847656 Z M 25.363281 20.847656 "/>
<path style=" stroke:none;fill-rule:nonzero;fill:rgb(100%,100%,100%);fill-opacity:1;" d="M 19.585938 31.308594 L 19.585938 27.679688 L 22.957031 24.277344 L 27.167969 28.53125 L 28.855469 26.828125 L 33.066406 31.082031 L 33.066406 31.308594 C 33.066406 33.007812 32.785156 33.007812 29.699219 33.007812 L 22.960938 33.007812 C 19.871094 33.007812 19.589844 33.007812 19.589844 31.308594 Z M 19.585938 31.308594 "/>
<path style=" stroke:none;fill-rule:nonzero;fill:rgb(100%,100%,100%);fill-opacity:1;" d="M 33.0625 24.589844 C 33.0625 25.621094 32.199219 26.460938 31.136719 26.460938 C 30.074219 26.460938 29.210938 25.621094 29.210938 24.589844 C 29.210938 23.554688 30.074219 22.71875 31.136719 22.71875 C 32.199219 22.71875 33.0625 23.554688 33.0625 24.589844 Z M 33.0625 24.589844 "/>
<path style=" stroke:none;fill-rule:nonzero;fill:rgb(100%,100%,100%);fill-opacity:1;" d="M 21.511719 15.234375 C 12.851562 15.234375 11.886719 15.234375 11.886719 20.847656 L 11.886719 30.203125 C 11.886719 33.242188 12.171875 34.640625 13.8125 35.277344 L 13.8125 20.847656 C 13.8125 17.460938 13.871094 17.144531 19.585938 17.117188 L 19.585938 17.105469 L 32.589844 17.105469 C 31.742188 15.234375 29.441406 15.234375 23.4375 15.234375 Z M 21.511719 15.234375 "/>
<path style=" stroke:none;fill-rule:nonzero;fill:rgb(100%,100%,100%);fill-opacity:1;" d="M 17.664062 11.492188 C 9 11.492188 8.039062 11.492188 8.039062 17.105469 L 8.039062 26.460938 C 8.039062 29.503906 8.324219 30.898438 9.960938 31.535156 L 9.960938 17.105469 C 9.960938 13.71875 10.019531 13.402344 15.738281 13.375 L 15.738281 13.363281 L 28.742188 13.363281 C 27.894531 11.496094 25.59375 11.492188 19.585938 11.492188 Z M 17.664062 11.492188 "/>
<path style=" stroke:none;fill-rule:nonzero;fill:rgb(18.431373%,30.980392%,30.980392%);fill-opacity:1;" d="M 8.742188 7.277344 C -28.777344 56.589844 74.480469 63.597656 41.34375 13.257812 C 33.789062 1.785156 18.679688 -5.785156 8.742188 7.277344 Z M 8.742188 7.277344 "/>
<path style=" stroke:none;fill-rule:nonzero;fill:rgb(51.764706%,56.862745%,56.862745%);fill-opacity:0.462745;" d="M 15.160156 17.289062 L 19.824219 17.289062 C 19.882812 17.289062 19.933594 17.335938 19.933594 17.394531 L 19.933594 35.878906 C 19.933594 35.9375 19.882812 35.988281 19.824219 35.988281 L 15.160156 35.988281 C 15.101562 35.988281 15.050781 35.9375 15.050781 35.878906 L 15.050781 17.394531 C 15.050781 17.335938 15.101562 17.289062 15.160156 17.289062 Z M 15.160156 17.289062 "/>
<path style=" stroke:none;fill-rule:nonzero;fill:rgb(75.294118%,75.294118%,75.294118%);fill-opacity:0.588235;" d="M 17.367188 16.28125 L 14.964844 18.367188 L 32.359375 18.367188 L 32.359375 25.3125 L 18.566406 25.3125 L 20.964844 27.398438 L 30.5625 35.738281 L 33.558594 35.738281 L 24.445312 27.398438 L 32.960938 27.398438 L 34.160156 26.011719 L 34.160156 17.671875 L 32.960938 16.28125 Z M 17.367188 16.28125 "/>
<path style=" stroke:none;fill-rule:nonzero;fill:rgb(100%,100%,100%);fill-opacity:1;" d="M 17.199219 15.519531 L 14.964844 17.621094 L 31.152344 17.621094 L 31.152344 24.621094 L 18.3125 24.621094 L 20.546875 26.722656 L 29.480469 35.125 L 32.269531 35.125 L 23.785156 26.722656 L 31.714844 26.722656 L 32.828125 25.320312 L 32.828125 16.917969 L 31.714844 15.519531 Z M 17.199219 15.519531 "/>
</g>
</svg>
