
<svg xmlns="http://www.w3.org/2000/svg" xmlns:xlink="http://www.w3.org/1999/xlink" width="48px" height="48px" viewBox="0 0 48 48" version="1.1">
<defs>
<linearGradient id="linear0" gradientUnits="userSpaceOnUse" x1="26.17" y1="0.447" x2="38.17" y2="21.23" gradientTransform="matrix(1.036339,0,0,1.084575,2.490375,4.687312)">
<stop offset="0" style="stop-color:rgb(3.529412%,39.215686%,45.098039%);stop-opacity:1;"/>
<stop offset="0.5" style="stop-color:rgb(2.745098%,28.235294%,32.54902%);stop-opacity:1;"/>
<stop offset="1" style="stop-color:rgb(3.529412%,36.862745%,42.745098%);stop-opacity:1;"/>
</linearGradient>
<linearGradient id="linear1" gradientUnits="userSpaceOnUse" x1="4.944" y1="21.23" x2="16.944" y2="0.447" gradientTransform="matrix(1.036339,0,0,1.084575,2.490375,4.687312)">
<stop offset="0" style="stop-color:rgb(4.313725%,50.588235%,58.431373%);stop-opacity:1;"/>
<stop offset="0.5" style="stop-color:rgb(2.745098%,32.54902%,38.039216%);stop-opacity:1;"/>
<stop offset="1" style="stop-color:rgb(4.313725%,52.941176%,60.784314%);stop-opacity:1;"/>
</linearGradient>
<linearGradient id="linear2" gradientUnits="userSpaceOnUse" x1="9.559" y1="0" x2="33.559" y2="0" gradientTransform="matrix(1.036339,0,0,1.084575,2.490375,4.687312)">
<stop offset="0" style="stop-color:rgb(3.921569%,47.058824%,54.901961%);stop-opacity:1;"/>
<stop offset="0.5" style="stop-color:rgb(5.098039%,56.862745%,65.490196%);stop-opacity:1;"/>
<stop offset="1" style="stop-color:rgb(3.921569%,45.490196%,52.54902%);stop-opacity:1;"/>
</linearGradient>
<linearGradient id="linear3" gradientUnits="userSpaceOnUse" x1="26.17" y1="0.447" x2="38.17" y2="21.23" gradientTransform="matrix(1.036339,0,0,1.084575,2.490375,4.687312)">
<stop offset="0" style="stop-color:rgb(17.254902%,67.843137%,75.294118%);stop-opacity:1;"/>
<stop offset="0.5" style="stop-color:rgb(13.72549%,54.117647%,58.431373%);stop-opacity:1;"/>
<stop offset="1" style="stop-color:rgb(14.509804%,58.039216%,63.921569%);stop-opacity:1;"/>
</linearGradient>
<linearGradient id="linear4" gradientUnits="userSpaceOnUse" x1="9.559" y1="0" x2="33.559" y2="0" gradientTransform="matrix(1.036339,0,0,1.084575,2.490375,4.687312)">
<stop offset="0" style="stop-color:rgb(16.862745%,69.019608%,78.823529%);stop-opacity:1;"/>
<stop offset="0.5" style="stop-color:rgb(15.686275%,65.098039%,73.72549%);stop-opacity:1;"/>
<stop offset="1" style="stop-color:rgb(16.862745%,64.313725%,69.411765%);stop-opacity:1;"/>
</linearGradient>
<linearGradient id="linear5" gradientUnits="userSpaceOnUse" x1="4.944" y1="21.23" x2="16.944" y2="0.447" gradientTransform="matrix(1.036339,0,0,1.084575,2.490375,4.687312)">
<stop offset="0" style="stop-color:rgb(16.470588%,67.45098%,76.078431%);stop-opacity:1;"/>
<stop offset="0.5" style="stop-color:rgb(29.803922%,78.431373%,83.137255%);stop-opacity:1;"/>
<stop offset="1" style="stop-color:rgb(16.470588%,67.45098%,76.078431%);stop-opacity:1;"/>
</linearGradient>
</defs>
<g id="surface1">
<path style=" stroke:none;fill-rule:nonzero;fill:rgb(90.196078%,90.196078%,90.196078%);fill-opacity:1;" d="M 47.335938 29.398438 C 38.085938 74 -25.546875 26.117188 12.679688 3.449219 C 27.527344 -6.269531 52.09375 6.460938 47.335938 29.398438 Z M 47.335938 29.398438 "/>
<path style=" stroke:none;fill-rule:nonzero;fill:rgb(0%,0%,0%);fill-opacity:0.101961;" d="M 22.542969 11.238281 C 22.441406 11.253906 22.347656 11.289062 22.261719 11.339844 C 22.269531 11.332031 22.273438 11.324219 22.28125 11.320312 L 17.75 14.058594 C 17 14.511719 16.941406 16.261719 17.503906 18.679688 C 15.042969 19.269531 13.46875 20.105469 13.441406 21.046875 C 13.441406 21.035156 13.433594 21.027344 13.433594 21.019531 L 13.433594 26.496094 C 13.433594 27.398438 14.84375 28.324219 17.117188 29.023438 C 16.378906 31.535156 16.289062 33.371094 17.046875 33.871094 C 17.039062 33.867188 17.03125 33.867188 17.023438 33.859375 L 17.066406 33.886719 C 17.066406 33.886719 17.066406 33.886719 17.070312 33.886719 C 17.070312 33.890625 17.070312 33.890625 17.074219 33.890625 L 21.554688 36.601562 C 22.355469 37.085938 24 36.082031 25.871094 34.109375 C 27.742188 36.082031 29.386719 37.082031 30.1875 36.601562 L 34.675781 33.886719 L 34.71875 33.859375 C 34.710938 33.867188 34.703125 33.867188 34.695312 33.871094 C 35.453125 33.375 35.363281 31.535156 34.625 29.023438 C 36.898438 28.324219 38.308594 27.398438 38.308594 26.496094 L 38.308594 21.019531 C 38.308594 21.027344 38.300781 21.039062 38.300781 21.046875 C 38.273438 20.105469 36.699219 19.269531 34.238281 18.679688 C 34.800781 16.261719 34.742188 14.511719 33.992188 14.058594 L 29.503906 11.34375 L 29.460938 11.320312 C 29.46875 11.324219 29.472656 11.332031 29.480469 11.339844 C 28.75 10.925781 27.429688 11.746094 25.875 13.40625 C 24.503906 11.945312 23.3125 11.128906 22.546875 11.238281 Z M 26.25 23.527344 L 25.871094 24.273438 L 25.488281 23.527344 Z M 26.25 23.527344 "/>
<path style=" stroke:none;fill-rule:nonzero;fill:url(#linear0);" d="M 30.109375 19.902344 C 26.675781 13.679688 22.6875 9.359375 21.199219 10.261719 C 20.167969 10.882812 20.550781 13.9375 22.070312 17.785156 C 23.152344 19.226562 24.351562 20.851562 25.398438 22.753906 C 26.445312 24.652344 27.195312 26.550781 27.84375 28.25 C 30.269531 31.554688 32.605469 33.425781 33.636719 32.804688 C 35.125 31.90625 33.546875 26.128906 30.113281 19.90625 Z M 30.109375 19.902344 "/>
<path style=" stroke:none;fill-rule:nonzero;fill:url(#linear1);" d="M 19.554688 19.902344 C 16.121094 26.128906 14.542969 31.898438 16.03125 32.800781 C 17.0625 33.425781 19.398438 31.550781 21.824219 28.25 C 22.472656 26.550781 23.21875 24.648438 24.269531 22.75 C 25.316406 20.851562 26.515625 19.226562 27.597656 17.785156 C 29.117188 13.9375 29.5 10.882812 28.46875 10.257812 C 26.980469 9.359375 22.992188 13.679688 19.558594 19.902344 Z M 19.554688 19.902344 "/>
<path style=" stroke:none;fill-rule:nonzero;fill:url(#linear2);" d="M 24.832031 16.726562 C 17.964844 16.726562 12.398438 18.183594 12.398438 19.980469 C 12.398438 21.226562 15.113281 22.515625 19.058594 23.0625 C 20.792969 22.800781 22.738281 22.421875 24.832031 22.421875 C 26.925781 22.421875 28.875 22.800781 30.605469 23.0625 C 34.550781 22.515625 37.269531 21.226562 37.269531 19.980469 C 37.269531 18.183594 31.699219 16.726562 24.832031 16.726562 Z M 24.832031 16.726562 "/>
<path style=" stroke:none;fill-rule:nonzero;fill:url(#linear3);" d="M 21.25 10.230469 L 16.714844 12.96875 C 15.230469 13.867188 16.449219 19.859375 19.882812 26.082031 C 23.316406 32.304688 27.664062 36.40625 29.152344 35.507812 L 33.683594 32.769531 C 32.195312 33.667969 28.207031 29.347656 24.773438 23.125 C 21.339844 16.898438 19.761719 11.128906 21.25 10.226562 "/>
<path style=" stroke:none;fill-rule:nonzero;fill:url(#linear4);" d="M 12.398438 19.925781 L 12.398438 25.402344 C 12.398438 27.199219 17.964844 29.089844 24.832031 29.089844 C 31.699219 29.089844 37.269531 27.199219 37.269531 25.402344 L 37.269531 19.925781 C 37.269531 21.722656 31.699219 23.179688 24.832031 23.179688 C 17.964844 23.179688 12.398438 21.722656 12.398438 19.925781 Z M 12.398438 19.925781 "/>
<path style=" stroke:none;fill-rule:nonzero;fill:url(#linear5);" d="M 15.984375 32.773438 L 20.515625 35.511719 C 22.003906 36.410156 26.351562 32.308594 29.785156 26.082031 C 33.21875 19.859375 34.4375 13.867188 32.953125 12.972656 L 28.417969 10.234375 C 29.90625 11.128906 28.328125 16.90625 24.894531 23.128906 C 21.460938 29.355469 17.46875 33.671875 15.984375 32.773438 Z M 15.984375 32.773438 "/>
</g>
</svg>
