
<svg xmlns="http://www.w3.org/2000/svg" xmlns:xlink="http://www.w3.org/1999/xlink" width="48px" height="48px" viewBox="0 0 48 48" version="1.1">
<g id="surface1">
<path style=" stroke:none;fill-rule:nonzero;fill:rgb(18.431373%,30.980392%,30.980392%);fill-opacity:1;" d="M 42.53125 9.476562 C 58.71875 29.90625 34.238281 60.828125 10.316406 42 C -12.339844 24.167969 7.1875 -7.320312 33.722656 2.515625 C 37.367188 3.867188 40.167969 6.492188 42.53125 9.476562 Z M 42.53125 9.476562 "/>
<path style=" stroke:none;fill-rule:nonzero;fill:rgb(0%,0%,0%);fill-opacity:0.101961;" d="M 9.988281 17.816406 L 15.707031 26.808594 L 21.429688 26.808594 L 21.429688 38.367188 L 23.335938 35.796875 L 23.335938 40.9375 L 27.148438 35.796875 L 27.148438 37.082031 L 29.054688 34.386719 L 29.054688 26.808594 L 34.777344 26.878906 L 40.496094 17.820312 L 29.054688 17.820312 L 29.054688 15.253906 C 26.195312 15.253906 25.242188 15.253906 25.242188 16.539062 L 26.191406 19.042969 L 26.195312 19.042969 L 26.195312 22.960938 L 24.289062 22.960938 L 24.289062 19.105469 L 26.191406 19.042969 L 25.242188 16.539062 C 25.242188 15.253906 24.289062 15.253906 21.429688 15.253906 L 21.429688 17.820312 "/>
<path style=" stroke:none;fill-rule:nonzero;fill:rgb(86.27451%,86.27451%,86.27451%);fill-opacity:1;" d="M 9.035156 16.53125 L 14.753906 25.523438 L 20.476562 25.523438 L 20.476562 37.082031 L 22.382812 34.511719 L 22.382812 39.652344 L 26.195312 34.511719 L 26.195312 35.796875 L 28.101562 33.101562 L 28.101562 25.523438 L 33.824219 25.59375 L 39.542969 16.539062 L 28.101562 16.539062 L 28.101562 13.96875 C 25.242188 13.96875 24.289062 13.96875 24.289062 15.253906 L 25.238281 17.757812 L 25.242188 17.757812 L 25.242188 21.675781 L 23.335938 21.675781 L 23.335938 17.820312 L 25.238281 17.757812 L 24.289062 15.253906 C 24.289062 13.96875 23.335938 13.96875 20.476562 13.96875 L 20.476562 16.539062 "/>
<path style=" stroke:none;fill-rule:nonzero;fill:rgb(87.843137%,28.627451%,21.176471%);fill-opacity:1;" d="M 15.707031 24.238281 L 21.429688 24.238281 L 21.429688 33.230469 L 23.335938 30.660156 L 23.335938 35.796875 L 25.242188 33.230469 L 25.242188 31.945312 L 26.195312 30.484375 L 26.195312 33.230469 L 27.140625 31.945312 L 27.148438 24.238281 L 32.867188 24.238281 L 33.824219 22.953125 L 26.195312 22.953125 L 26.195312 29.375 L 25.242188 30.660156 L 25.242188 22.953125 L 23.335938 22.953125 L 23.335938 29.375 L 22.382812 30.660156 L 22.382812 22.953125 L 14.753906 22.953125 "/>
<path style=" stroke:none;fill-rule:nonzero;fill:rgb(83.921569%,28.627451%,21.176471%);fill-opacity:1;" d="M 12.847656 20.382812 L 13.800781 21.667969 L 22.382812 21.667969 L 22.382812 17.816406 C 22.382812 16.53125 22.382812 16.53125 23.335938 16.53125 C 23.335938 15.246094 23.335938 15.246094 21.429688 15.246094 L 21.429688 20.382812 L 18.566406 20.382812 L 20.476562 17.816406 L 10.941406 17.816406 L 11.894531 19.101562 L 18.566406 19.101562 L 17.613281 20.382812 "/>
<path style=" stroke:none;fill-rule:nonzero;fill:rgb(83.921569%,28.627451%,21.176471%);fill-opacity:1;" d="M 35.730469 20.382812 L 34.777344 21.667969 L 26.195312 21.667969 L 26.195312 17.816406 C 26.195312 16.53125 26.195312 16.53125 25.242188 16.53125 C 25.242188 15.246094 25.242188 15.296875 27.148438 15.246094 L 27.148438 20.382812 L 30.007812 20.382812 L 28.101562 17.816406 L 37.636719 17.816406 L 36.683594 19.101562 L 30.007812 19.101562 L 30.960938 20.382812 "/>
</g>
</svg>
