
<svg xmlns="http://www.w3.org/2000/svg" xmlns:xlink="http://www.w3.org/1999/xlink" width="48px" height="48px" viewBox="0 0 48 48" version="1.1">
<g id="surface1">
<path style=" stroke:none;fill-rule:nonzero;fill:rgb(6.27451%,59.607843%,92.54902%);fill-opacity:1;" d="M 42.175781 7.457031 C 69.617188 49.339844 -5.332031 65.542969 0.640625 22.460938 C 3.074219 4.890625 31.679688 -8.5625 42.175781 7.457031 Z M 42.175781 7.457031 "/>
<path style="fill-rule:evenodd;fill:rgb(100%,100%,100%);fill-opacity:1;stroke-width:1.165306;stroke-linecap:butt;stroke-linejoin:miter;stroke:rgb(100%,100%,100%);stroke-opacity:1;stroke-miterlimit:4;" d="M 67.28821 148.801475 C 67.28821 148.347902 70.620202 143.16422 74.700191 137.332578 L 82.134839 126.70603 L 92.312146 126.144464 C 99.089462 125.755688 103.328118 125.021333 105.028114 123.9414 C 106.433444 123.034255 113.324093 120.917585 120.328075 119.232888 C 137.418698 115.107541 142.632018 113.293253 146.89334 109.923859 C 148.865335 108.368755 152.333326 106.144091 154.622654 104.977763 C 156.889314 103.833033 159.337308 102.148336 160.06264 101.262791 C 160.810638 100.398844 162.102634 99.664489 162.963966 99.664489 C 164.301295 99.664489 164.437295 101.197995 163.915963 110.528622 L 163.303965 121.392756 L 159.450641 124.567761 C 159.110642 135.215908 137.577364 136.101454 142.269352 138.066933 C 136.3307 141.004353 130.301382 143.401806 123.660066 144.114562 C 119.874743 144.524937 116.316085 145.432081 115.74942 146.144838 C 113.890758 148.455896 67.28821 151.026138 67.28821 148.801475 Z M 67.28821 148.801475 " transform="matrix(0.172335,0,0,0.180856,-1.00627,10.408673)"/>
<path style="fill-rule:evenodd;fill:rgb(100%,100%,100%);fill-opacity:1;stroke-width:1.165306;stroke-linecap:butt;stroke-linejoin:miter;stroke:rgb(100%,100%,100%);stroke-opacity:1;stroke-miterlimit:4;" d="M 86.600161 119.060099 C 86.214829 118.433737 88.458823 114.200397 91.586815 109.621478 C 94.69214 105.042559 98.024132 99.340508 98.953463 96.964654 L 100.653458 92.62332 L 106.093444 92.62332 C 118.741412 92.62332 143.130683 84.48062 151.607995 77.417853 C 155.007986 74.588427 163.485298 70.398284 164.00663 71.327027 C 164.119963 71.521415 164.074629 76.532307 163.893296 82.428746 L 163.575964 93.184886 L 151.743994 100.744422 C 140.796022 107.763992 138.801361 108.627939 125.518728 112.234918 C 117.630748 114.373186 107.838773 117.029823 103.78145 118.152955 C 95.666804 120.377618 87.688158 120.787993 86.600161 119.060099 Z M 86.600161 119.060099 " transform="matrix(0.172335,0,0,0.180856,-1.00627,10.408673)"/>
<path style="fill-rule:evenodd;fill:rgb(100%,100%,100%);fill-opacity:1;stroke-width:1.165306;stroke-linecap:butt;stroke-linejoin:miter;stroke:rgb(100%,100%,100%);stroke-opacity:1;stroke-miterlimit:4;" d="M 85.072918 143.183811 C 85.072918 142.363061 88.926241 135.53788 93.640896 128.043139 C 102.752872 113.593626 103.228871 113.161652 113.134179 110.828995 C 121.112825 108.971509 127.799475 105.278136 136.095454 98.107375 C 143.371435 91.84376 144.0061 91.51978 149.15142 91.454984 C 153.390076 91.390187 154.659406 91.757365 155.180738 93.182878 C 155.543404 94.154818 157.356733 96.465876 159.238061 98.323362 C 161.096723 100.180848 162.638052 102.5999 162.638052 103.701432 C 162.638052 106.055688 157.379399 115.79669 153.186077 121.239557 C 147.95009 127.978343 147.315425 126.855212 147.315425 110.764199 C 147.315425 101.930341 146.930093 96.487475 146.295428 96.487475 C 145.751429 96.487475 143.008769 96.854652 143.008769 100.072855 C 142.986103 111.844133 144.232766 118.58292 140.719442 122.211497 C 133.874126 129.274264 124.648816 135.04111 117.214169 136.876997 C 113.292845 137.848938 107.331527 139.684825 103.954203 140.959147 C 95.794223 144.047758 85.072918 145.322079 85.072918 143.183811 Z M 85.072918 143.183811 " transform="matrix(0.172335,0,0,0.180856,2.686615,-0.110495)"/>
<path style="fill-rule:evenodd;fill:rgb(100%,100%,100%);fill-opacity:1;stroke-width:1.165306;stroke-linecap:butt;stroke-linejoin:miter;stroke:rgb(100%,100%,100%);stroke-opacity:1;stroke-miterlimit:4;" d="M 126.289393 45.991781 C 126.289393 45.106235 127.400057 42.924769 128.760053 41.132079 C 130.142716 39.339389 133.112042 33.982917 135.378703 29.20961 C 142.745351 13.680163 153.693323 -3.447587 156.209316 -3.425988 C 162.102634 -3.361192 165.978624 3.161608 166.794622 14.392919 C 167.293288 21.239699 167.179955 21.736469 164.210629 25.473039 C 160.946637 29.53359 151.199996 37.265916 144.128014 41.391263 C 141.068022 43.183953 128.556054 47.590083 126.538725 47.590083 C 126.402726 47.590083 126.289393 46.855728 126.289393 45.991781 Z M 126.289393 45.991781 " transform="matrix(0.172335,0,0,0.180856,-1.00627,10.408673)"/>
<path style="fill-rule:evenodd;fill:rgb(100%,100%,100%);fill-opacity:1;stroke-width:1.165306;stroke-linecap:butt;stroke-linejoin:miter;stroke:rgb(100%,100%,100%);stroke-opacity:1;stroke-miterlimit:4;" d="M 169.129283 82.795923 L 169.129283 73.659684 L 174.750602 68.34641 C 177.833261 65.430588 180.371921 62.557965 180.371921 61.9748 C 180.371921 61.370037 181.845251 58.432618 183.658579 55.452 C 185.902573 51.737028 187.534569 50.095529 188.7359 50.289917 C 191.365226 50.721891 204.715859 62.557965 204.783858 64.501845 C 204.874525 66.920897 192.951889 78.432991 187.511903 81.197621 C 184.973243 82.471943 180.394588 85.430962 177.311929 87.720421 C 174.251937 90.031479 171.169278 91.910564 170.443946 91.910564 C 169.491949 91.910564 169.129283 89.513111 169.129283 82.795923 Z M 169.129283 82.795923 " transform="matrix(0.172335,0,0,0.180856,-1.00627,10.408673)"/>
<path style="fill-rule:evenodd;fill:rgb(100%,100%,100%);fill-opacity:1;stroke-width:1.165306;stroke-linecap:butt;stroke-linejoin:miter;stroke:rgb(100%,100%,100%);stroke-opacity:1;stroke-miterlimit:4;" d="M 167.134622 130.097022 L 167.429287 124.74055 L 172.166609 123.055854 C 174.818602 122.127111 178.535926 121.306361 179.737256 120.204829 C 180.938586 119.103296 186.627905 115.172337 192.362557 111.975733 C 199.389206 108.066373 205.282524 104.04902 208.433182 100.636429 C 211.039842 97.828601 217.431826 95.971115 211.810507 92.882505 C 210.541177 92.191347 204.897192 97.007852 202.494531 100.377245 C 201.202534 102.191534 196.533213 105.258545 190.458562 108.325557 C 184.995909 111.068589 179.102591 114.48118 177.402595 115.928291 C 175.679933 117.375402 173.073273 118.563329 171.62261 118.563329 L 168.94795 118.563329 L 168.94795 108.325557 C 168.94795 98.130983 168.970617 98.087785 171.735943 97.051049 C 173.254606 96.467885 176.359931 94.480807 178.626592 92.62332 C 180.893253 90.765834 184.565244 88.325184 186.809238 87.180454 C 189.053232 86.035725 194.062553 82.51514 197.915876 79.340135 C 205.622523 73.011723 207.005186 72.838934 212.05984 77.63384 C 215.278498 80.657654 215.459831 81.802384 213.39717 85.819738 C 212.173173 88.173993 211.742507 92.79611 212.535839 93.314478 C 213.12517 93.703254 214.553167 90.636242 215.822497 89.102736 C 218.247824 86.230113 218.315824 83.875857 220.582485 85.366166 C 221.897148 86.208514 223.665143 86.92127 224.526475 86.92127 C 225.773138 86.92127 226.090471 88.281987 226.090471 93.552064 C 226.090471 99.059726 222.463813 112.170122 220.763818 113.228457 C 216.842494 116.144278 222.645146 112.947674 218.54249 114.049206 C 215.754497 114.567574 215.391831 113.163661 217.930491 113.962812 C 220.401152 114.740364 220.219819 116.381863 217.477159 117.980165 C 216.457162 118.584928 213.827835 120.787993 211.629174 122.883064 C 202.630531 129.96743 202.630531 120.787993 204.625192 126.338852 C 204.37586 127.094806 201.7692 129.384266 198.459875 129.557055 C 195.422549 129.729844 192.679889 131.695324 192.135891 132.429679 C 191.569226 133.164034 188.327901 134.049579 185.947907 134.438356 C 183.567913 134.805533 180.734587 136.252644 178.921258 137.354177 C 176.97193 138.542104 173.775938 140.010814 171.214611 140.010814 L 167.247955 139.600439 Z M 167.134622 130.097022 " transform="matrix(0.172335,0,0,0.180856,-1.00627,10.408673)"/>
</g>
</svg>
