
<svg xmlns="http://www.w3.org/2000/svg" xmlns:xlink="http://www.w3.org/1999/xlink" width="48px" height="48px" viewBox="0 0 48 48" version="1.1">
<g id="surface1">
<path style=" stroke:none;fill-rule:nonzero;fill:rgb(25.882353%,19.215686%,42.745098%);fill-opacity:1;" d="M 42.417969 39.671875 C 54.09375 21.714844 44.671875 5.359375 31.453125 1.480469 C 13.671875 -3.742188 -10.46875 9.976562 5.4375 38.25 C 11.761719 49.484375 34.097656 52.457031 42.414062 39.671875 Z M 42.417969 39.671875 "/>
<path style=" stroke:none;fill-rule:nonzero;fill:rgb(100%,100%,100%);fill-opacity:1;" d="M 21.070312 36.386719 C 17.578125 35.859375 16.011719 35.367188 14.382812 34.285156 C 13.058594 33.40625 12.054688 31.929688 11.328125 29.78125 L 11.035156 28.921875 L 11.527344 28.519531 C 13.945312 27.089844 16.726562 25.296875 19.378906 25.171875 C 19.792969 25.171875 20.097656 25.121094 20.097656 25.046875 C 20.097656 24.980469 19.597656 24.433594 18.980469 23.839844 C 17.960938 22.847656 17.839844 22.765625 17.582031 22.882812 C 17.148438 23.050781 16.675781 22.953125 16.277344 23.128906 C 14.324219 23.597656 12.488281 24.328125 10.699219 25.050781 C 10.558594 25.050781 10.519531 24.886719 10.519531 24.28125 C 10.519531 23.855469 10.488281 23.433594 10.453125 23.339844 C 10.390625 23.183594 10.921875 22.863281 11.851562 22.5 C 13.273438 22.128906 14.890625 21.40625 16.214844 21.328125 C 16.445312 21.328125 16.796875 21.058594 17.550781 20.304688 C 18.117188 19.746094 18.632812 19.285156 18.703125 19.285156 C 18.773438 19.285156 19.292969 19.746094 19.855469 20.304688 C 20.640625 21.085938 20.960938 21.328125 21.210938 21.328125 C 21.390625 21.328125 21.574219 21.382812 21.613281 21.449219 C 22.589844 21.703125 23.480469 21.757812 24.40625 22.039062 C 25.070312 22.238281 25.210938 22.296875 26.570312 22.960938 C 28.003906 23.664062 29.285156 24.832031 29.863281 25.964844 C 30.214844 26.65625 30.226562 26.71875 30.210938 28.296875 C 30.191406 30.269531 30.15625 30.699219 30.023438 30.699219 C 29.96875 30.699219 29.921875 30.78125 29.921875 30.878906 C 30.246094 31.179688 30.484375 30.390625 30.777344 30.078125 C 31.140625 29.699219 31.863281 28.355469 31.863281 28.0625 C 32.117188 26.933594 32.535156 24.601562 32.015625 23.59375 C 31.664062 22.660156 31.257812 21.601562 30.710938 20.882812 C 30.644531 20.800781 30.371094 20.449219 30.105469 20.105469 C 29.46875 19.285156 27.597656 17.53125 26.691406 17.121094 C 26.601562 17.121094 26.527344 17.082031 26.527344 17.03125 C 26.152344 16.664062 25.558594 16.453125 25.132812 16.234375 C 23.769531 15.792969 22.628906 15.058594 21.371094 14.839844 C 20.507812 14.484375 19.476562 14.5 18.699219 14.25 C 18.554688 14.113281 17.457031 14.015625 14.96875 13.925781 C 12.8125 13.847656 12.835938 13.871094 13.972656 13.039062 C 16.253906 11.375 19.234375 10.632812 23.605469 10.636719 C 28.960938 10.640625 32.710938 11.972656 34.402344 14.472656 C 35.753906 16.476562 36.453125 19.152344 36.5625 22.753906 C 36.695312 27.140625 35.863281 30.648438 34.148438 32.949219 C 32.492188 35.167969 28.394531 36.492188 23.320312 36.449219 C 22.25 36.441406 21.234375 36.414062 21.070312 36.386719 Z M 28.589844 26.445312 C 27.375 25.066406 24.792969 23.082031 23.132812 23.007812 C 22.929688 23.007812 22.765625 23.054688 22.765625 23.105469 C 22.765625 23.25 25.375 25.769531 25.539062 25.789062 C 25.613281 25.796875 25.71875 25.816406 25.769531 25.835938 C 27.261719 26.476562 29.058594 28.722656 29.4375 29.925781 C 29.25 27.894531 29.445312 28.996094 28.589844 26.445312 Z M 28.589844 26.445312 "/>
</g>
</svg>
