
<svg xmlns="http://www.w3.org/2000/svg" xmlns:xlink="http://www.w3.org/1999/xlink" width="48px" height="48px" viewBox="0 0 48 48" version="1.1">
<defs>
<clipPath id="clip1">
  <path d="M 7 12 L 40 12 L 40 38 L 7 38 Z M 7 12 "/>
</clipPath>
<clipPath id="clip2">
  <path d="M 47.65625 21.425781 C 47.65625 36.988281 35.597656 49.589844 20.742188 49.589844 C 5.886719 49.589844 -6.171875 36.988281 -6.171875 21.425781 C -6.171875 5.863281 5.886719 -6.738281 20.742188 -6.738281 C 35.597656 -6.738281 47.65625 5.863281 47.65625 21.425781 Z M 47.65625 21.425781 "/>
</clipPath>
</defs>
<g id="surface1">
<path style=" stroke:none;fill-rule:nonzero;fill:rgb(39.215686%,58.431373%,92.941176%);fill-opacity:1;" d="M 4.683594 9.894531 C -19.308594 45.984375 57.199219 68.207031 47.070312 21.558594 C 42.753906 2.28125 15.683594 -9.421875 4.683594 9.894531 Z M 4.683594 9.894531 "/>
<g clip-path="url(#clip1)" clip-rule="nonzero">
<g clip-path="url(#clip2)" clip-rule="nonzero">
<path style=" stroke:none;fill-rule:nonzero;fill:rgb(97.647059%,97.647059%,97.647059%);fill-opacity:1;" d="M 7.308594 20.535156 C 7.824219 24.636719 11.757812 27.53125 16.089844 26.992188 C 17.445312 26.824219 18.679688 26.335938 19.71875 25.628906 C 19.722656 25.625 19.734375 25.632812 19.738281 25.628906 L 36.015625 37.601562 L 39.15625 37.210938 L 38.78125 34.234375 L 37.613281 33.375 L 35.519531 33.636719 L 35.269531 31.652344 L 34.101562 30.789062 L 33.851562 28.808594 L 32.683594 27.953125 L 30.589844 28.214844 L 29.421875 27.351562 L 29.171875 25.367188 L 27.078125 25.628906 L 22.507812 22.265625 C 22.507812 22.261719 22.5 22.25 22.503906 22.242188 C 22.976562 21.117188 23.164062 19.863281 23.003906 18.585938 C 22.488281 14.488281 18.558594 11.582031 14.226562 12.125 L 14.191406 12.125 C 9.867188 12.683594 6.796875 16.441406 7.308594 20.539062 M 11.3125 18.535156 C 11.175781 17.445312 12.003906 16.441406 13.15625 16.292969 C 14.316406 16.148438 15.363281 16.921875 15.496094 18.015625 C 15.636719 19.105469 14.8125 20.113281 13.652344 20.257812 C 12.5 20.402344 11.449219 19.628906 11.3125 18.535156 "/>
</g>
</g>
<path style=" stroke:none;fill-rule:nonzero;fill:rgb(39.215686%,58.431373%,92.941176%);fill-opacity:1;" d="M 12.402344 19.847656 C 11.714844 19.433594 11.464844 19 11.464844 18.21875 C 11.464844 17.433594 12.019531 16.761719 12.878906 16.507812 C 14.128906 16.136719 15.34375 17 15.34375 18.253906 C 15.34375 19.046875 14.945312 19.628906 14.179688 19.945312 C 13.398438 20.269531 13.070312 20.25 12.402344 19.847656 Z M 12.402344 19.847656 "/>
</g>
</svg>
