
<svg xmlns="http://www.w3.org/2000/svg" xmlns:xlink="http://www.w3.org/1999/xlink" width="48px" height="48px" viewBox="0 0 48 48" version="1.1">
<g id="surface1">
<path style=" stroke:none;fill-rule:nonzero;fill:rgb(18.431373%,30.980392%,30.980392%);fill-opacity:1;" d="M 42.417969 8.761719 C 54.09375 26.714844 44.671875 43.074219 31.453125 46.953125 C 13.671875 52.171875 -10.46875 38.453125 5.4375 10.183594 C 11.761719 -1.050781 34.097656 -4.027344 42.414062 8.761719 Z M 42.417969 8.761719 "/>
<path style=" stroke:none;fill-rule:nonzero;fill:rgb(100%,100%,100%);fill-opacity:1;" d="M 10.042969 24.648438 L 10.042969 11.308594 L 36.722656 11.308594 L 36.722656 37.988281 L 10.042969 37.988281 Z M 30.839844 35.375 C 30.953125 35.605469 31.667969 35.410156 32.425781 35.464844 C 33.214844 35.519531 33.835938 35.511719 33.871094 35.441406 C 33.964844 35.25 33.792969 32.6875 33.675781 32.570312 C 33.617188 32.511719 33.5 32.539062 33.410156 32.628906 C 33.3125 32.726562 32.945312 32.550781 32.253906 32.550781 C 31.238281 32.550781 30.746094 32.523438 31.097656 32.742188 C 31.203125 32.808594 31.28125 34.714844 31.203125 35.535156 C 31.164062 35.957031 31.015625 35.53125 30.953125 35.59375 C 30.679688 35.867188 30.566406 34.582031 30.566406 33.738281 C 30.566406 32.953125 30.535156 32.820312 30.21875 32.675781 C 30.027344 32.585938 29.4375 32.515625 28.90625 32.515625 C 27.988281 32.515625 27.378906 32.597656 27.421875 32.300781 C 27.464844 32.011719 28.089844 31.902344 28.925781 31.949219 C 29.414062 31.976562 30.125 31.867188 30.214844 31.941406 C 30.8125 31.902344 30.714844 32.113281 30.714844 30.371094 C 30.714844 28.839844 30.398438 28.542969 30.191406 28.417969 C 29.964844 28.28125 29.964844 28.261719 30.210938 28.074219 C 30.351562 27.964844 30.511719 27.855469 30.5625 27.835938 C 30.613281 27.8125 30.621094 27.304688 30.578125 26.703125 C 30.503906 25.71875 30.75 25.550781 30.441406 25.398438 C 30.0625 25.207031 27.867188 25.308594 27.664062 25.511719 C 27.59375 25.582031 27.738281 26.011719 27.695312 26.585938 C 27.585938 28.015625 27.328125 28.382812 29.242188 28.347656 C 30.550781 28.320312 30.632812 28.746094 30.496094 28.910156 C 30.40625 29.019531 29.378906 28.820312 29.140625 28.820312 C 28.902344 28.820312 28.628906 28.898438 28.535156 28.992188 C 27.617188 28.84375 27.472656 29.054688 27.78125 28.414062 C 27.746094 28.449219 27.695312 30.019531 27.675781 31.898438 L 27.632812 35.320312 L 28.105469 35.410156 C 28.5 35.488281 28.722656 35.621094 30.316406 35.519531 Z M 23.148438 30.121094 C 23.121094 28.929688 23.0625 28.484375 22.929688 28.441406 C 24.066406 29.15625 22.117188 28.839844 21.835938 28.855469 C 20.03125 28.964844 20.191406 28.710938 20.445312 28.3125 C 20.527344 28.183594 21.136719 28.175781 21.804688 28.285156 C 22.3125 28.367188 22.707031 28.375 22.753906 28.300781 C 22.800781 28.234375 22.976562 28.105469 23.148438 28.011719 C 23.445312 27.855469 23.460938 27.789062 23.390625 26.808594 C 23.347656 26.234375 23.46875 25.257812 23.332031 25.640625 C 23.285156 25.59375 22.652344 25.570312 22.039062 25.53125 C 21.421875 25.488281 20.828125 25.425781 20.714844 25.394531 C 20.539062 25.339844 20.507812 25.605469 20.5 27.179688 C 20.492188 28.195312 20.46875 29.597656 20.445312 30.296875 C 20.421875 30.996094 20.441406 31.890625 20.488281 31.9375 C 20.535156 31.984375 21.179688 31.90625 21.800781 31.941406 C 22.421875 31.972656 22.957031 31.648438 22.988281 31.914062 C 23.195312 32.113281 23.183594 31.535156 23.148438 30.121094 Z M 26.75 28.265625 C 26.917969 28.175781 26.898438 28.269531 26.855469 28.125 C 26.816406 28 26.960938 27.164062 26.953125 26.613281 C 26.9375 25.84375 26.785156 25.640625 26.613281 25.5625 C 26.3125 25.417969 24.261719 25.492188 24.105469 25.652344 C 24.035156 25.722656 23.976562 26.140625 23.972656 26.582031 C 23.972656 27.023438 24.082031 27.933594 23.980469 28.140625 C 23.808594 28.5 23.625 28.140625 24.042969 28.261719 C 24.652344 28.4375 26.425781 28.441406 26.75 28.265625 Z M 33.898438 25.09375 C 33.910156 23.007812 33.867188 21.839844 33.78125 21.835938 C 33.402344 21.816406 27.632812 21.863281 27.628906 21.886719 C 27.625 21.898438 27.644531 22.535156 27.667969 23.296875 L 27.710938 24.683594 L 28.832031 24.75 C 29.925781 24.8125 30.496094 24.699219 30.605469 24.390625 C 30.632812 24.308594 30.613281 23.777344 30.558594 23.210938 C 30.449219 22.132812 30.417969 21.640625 30.828125 21.71875 C 31.050781 21.761719 31.171875 22.175781 31.132812 23.183594 C 31.097656 24.105469 31.109375 24.570312 31.441406 24.71875 C 31.628906 24.800781 31.917969 24.71875 32.359375 24.71875 C 33.261719 24.71875 34.15625 24.828125 34.15625 25.136719 C 34.15625 25.445312 33.257812 25.367188 32.425781 25.367188 C 31.945312 25.367188 31.300781 25.3125 31.222656 25.359375 C 31.089844 25.441406 31.183594 26.980469 31.121094 28.035156 C 31.105469 28.28125 30.992188 27.863281 30.929688 27.863281 C 30.765625 28.46875 32.675781 28.363281 32.734375 28.363281 L 33.878906 28.34375 Z M 33.898438 25.09375 "/>
</g>
</svg>
