
<svg xmlns="http://www.w3.org/2000/svg" xmlns:xlink="http://www.w3.org/1999/xlink" width="48px" height="48px" viewBox="0 0 48 48" version="1.1">
<defs>
<clipPath id="clip1">
  <path d="M 10 12 L 40 12 L 40 34 L 10 34 Z M 10 12 "/>
</clipPath>
<clipPath id="clip2">
  <path d="M 48.867188 22.976562 C 48.867188 41.253906 37.648438 56.058594 23.824219 56.058594 C 10 56.058594 -1.21875 41.253906 -1.21875 22.976562 C -1.21875 4.699219 10 -10.105469 23.824219 -10.105469 C 37.648438 -10.105469 48.867188 4.699219 48.867188 22.976562 Z M 48.867188 22.976562 "/>
</clipPath>
<clipPath id="clip3">
  <path d="M 9 11 L 38 11 L 38 32 L 9 32 Z M 9 11 "/>
</clipPath>
<clipPath id="clip4">
  <path d="M 48.867188 22.976562 C 48.867188 41.253906 37.648438 56.058594 23.824219 56.058594 C 10 56.058594 -1.21875 41.253906 -1.21875 22.976562 C -1.21875 4.699219 10 -10.105469 23.824219 -10.105469 C 37.648438 -10.105469 48.867188 4.699219 48.867188 22.976562 Z M 48.867188 22.976562 "/>
</clipPath>
</defs>
<g id="surface1">
<path style=" stroke:none;fill-rule:nonzero;fill:rgb(80.784314%,12.156863%,11.372549%);fill-opacity:1;" d="M 43.054688 36.71875 C 60.316406 12.171875 28.441406 -12.703125 8.109375 7.300781 C -11.050781 26.144531 6.710938 55.425781 30.550781 46.273438 C 35.523438 44.363281 39.886719 41.226562 43.054688 36.71875 Z M 43.054688 36.71875 "/>
<g clip-path="url(#clip1)" clip-rule="nonzero">
<g clip-path="url(#clip2)" clip-rule="nonzero">
<path style=" stroke:none;fill-rule:nonzero;fill:rgb(0%,0%,0%);fill-opacity:0.101961;" d="M 24.914062 12.902344 L 20.828125 21.53125 L 15.113281 17.21875 L 16.195312 25.488281 L 10.757812 27.285156 L 16.195312 33.039062 C 16.195312 32.949219 16.195312 33.132812 16.195312 33.039062 C 16.195312 26.683594 20.097656 21.53125 24.90625 21.53125 C 29.71875 21.53125 33.617188 26.679688 33.617188 33.039062 C 33.617188 33.132812 33.617188 32.949219 33.617188 33.039062 L 39.0625 27.285156 L 33.617188 25.488281 L 34.707031 17.21875 L 28.988281 21.53125 M 24.90625 12.902344 "/>
</g>
</g>
<g clip-path="url(#clip3)" clip-rule="nonzero">
<g clip-path="url(#clip4)" clip-rule="nonzero">
<path style=" stroke:none;fill-rule:nonzero;fill:rgb(97.647059%,97.647059%,97.647059%);fill-opacity:1;" d="M 23.824219 11.464844 L 19.738281 20.09375 L 14.023438 15.777344 L 15.109375 24.050781 L 9.667969 25.847656 L 15.109375 31.601562 C 15.109375 31.507812 15.109375 31.695312 15.109375 31.601562 C 15.109375 25.246094 19.007812 20.09375 23.820312 20.09375 C 28.628906 20.09375 32.53125 25.238281 32.53125 31.601562 C 32.53125 31.695312 32.53125 31.507812 32.53125 31.601562 L 37.972656 25.847656 L 32.53125 24.050781 L 33.617188 15.777344 L 27.898438 20.09375 M 23.820312 11.464844 "/>
</g>
</g>
</g>
</svg>
