
<svg xmlns="http://www.w3.org/2000/svg" xmlns:xlink="http://www.w3.org/1999/xlink" width="48px" height="48px" viewBox="0 0 48 48" version="1.1">
<g id="surface1">
<path style=" stroke:none;fill-rule:nonzero;fill:rgb(34.117647%,40.784314%,51.764706%);fill-opacity:1;" d="M 43.054688 36.71875 C 60.316406 12.171875 28.441406 -12.703125 8.109375 7.300781 C -11.050781 26.144531 6.710938 55.425781 30.550781 46.273438 C 35.523438 44.363281 39.886719 41.226562 43.054688 36.71875 Z M 43.054688 36.71875 "/>
<path style=" stroke:none;fill-rule:nonzero;fill:rgb(0%,0%,0%);fill-opacity:0.101961;" d="M 34.769531 24.890625 C 34.769531 30.371094 30.300781 34.808594 24.792969 34.808594 C 19.28125 34.808594 14.816406 30.371094 14.816406 24.890625 C 14.816406 19.414062 19.28125 14.972656 24.792969 14.972656 C 30.300781 14.972656 34.769531 19.414062 34.769531 24.890625 Z M 34.769531 24.890625 "/>
<path style=" stroke:none;fill-rule:nonzero;fill:rgb(90.980392%,36.470588%,36.470588%);fill-opacity:1;" d="M 34 24.128906 C 34 29.605469 29.535156 34.046875 24.023438 34.046875 C 18.515625 34.046875 14.046875 29.605469 14.046875 24.128906 C 14.046875 18.648438 18.515625 14.207031 24.023438 14.207031 C 29.535156 14.207031 34 18.648438 34 24.128906 Z M 34 24.128906 "/>
</g>
</svg>
