
<svg xmlns="http://www.w3.org/2000/svg" xmlns:xlink="http://www.w3.org/1999/xlink" width="48px" height="48px" viewBox="0 0 48 48" version="1.1">
<g id="surface1">
<path style=" stroke:none;fill-rule:nonzero;fill:rgb(49.803922%,49.803922%,49.803922%);fill-opacity:1;" d="M 5.148438 36.910156 C -12.109375 12.777344 19.761719 -11.675781 40.097656 7.988281 C 59.253906 26.515625 41.492188 55.300781 17.65625 46.300781 C 12.679688 44.425781 8.316406 41.339844 5.148438 36.910156 Z M 5.148438 36.910156 "/>
<path style=" stroke:none;fill-rule:nonzero;fill:rgb(100%,100%,100%);fill-opacity:1;" d="M 34.429688 27.171875 C 35.90625 29.246094 34.71875 32.855469 31.769531 35.238281 C 28.824219 37.621094 25.234375 37.871094 23.757812 35.796875 C 22.277344 33.726562 23.46875 30.113281 26.414062 27.730469 C 29.359375 25.347656 32.949219 25.097656 34.429688 27.171875 Z M 34.429688 27.171875 "/>
<path style=" stroke:none;fill-rule:nonzero;fill:rgb(100%,100%,100%);fill-opacity:1;" d="M 15.304688 23.511719 L 25.53125 15.242188 C 25.667969 15.132812 25.859375 15.160156 25.960938 15.304688 L 34.34375 27.058594 C 34.449219 27.199219 34.421875 27.402344 34.289062 27.511719 L 24.058594 35.78125 C 23.925781 35.886719 23.734375 35.859375 23.632812 35.71875 L 15.246094 23.964844 C 15.144531 23.820312 15.171875 23.617188 15.304688 23.511719 Z M 15.304688 23.511719 "/>
<path style=" stroke:none;fill-rule:nonzero;fill:rgb(100%,100%,100%);fill-opacity:1;" d="M 13.128906 21.035156 C 11.648438 18.960938 12.839844 15.351562 15.789062 12.96875 C 18.734375 10.585938 22.320312 10.335938 23.800781 12.410156 C 25.28125 14.480469 24.089844 18.09375 21.144531 20.476562 C 18.195312 22.855469 14.609375 23.109375 13.128906 21.035156 Z M 13.128906 21.035156 "/>
<path style=" stroke:none;fill-rule:nonzero;fill:rgb(100%,100%,100%);fill-opacity:1;" d="M 32.253906 24.695312 L 22.023438 32.964844 C 21.890625 33.074219 21.699219 33.046875 21.597656 32.902344 L 13.210938 21.148438 C 13.109375 21.007812 13.136719 20.804688 13.269531 20.695312 L 23.496094 12.425781 C 23.632812 12.320312 23.824219 12.347656 23.925781 12.488281 L 32.3125 24.242188 C 32.414062 24.386719 32.386719 24.589844 32.253906 24.695312 Z M 32.253906 24.695312 "/>
<path style=" stroke:none;fill-rule:nonzero;fill:rgb(52.941176%,80.784314%,98.039216%);fill-opacity:1;" d="M 33.222656 28.484375 L 25.160156 34.695312 C 24.976562 34.839844 24.714844 34.796875 24.578125 34.601562 L 13.960938 19.460938 C 13.824219 19.265625 13.863281 18.992188 14.046875 18.847656 L 22.109375 12.636719 C 22.296875 12.496094 22.554688 12.535156 22.691406 12.730469 L 33.308594 27.875 C 33.445312 28.066406 33.40625 28.34375 33.222656 28.484375 Z M 33.222656 28.484375 "/>
<path style="fill-rule:evenodd;fill:rgb(43.921569%,50.196078%,56.470588%);fill-opacity:1;stroke-width:1;stroke-linecap:butt;stroke-linejoin:miter;stroke:rgb(0%,0%,0%);stroke-opacity:1;stroke-miterlimit:4;" d="M 162.71999 179.525453 C 162.722259 182.131702 158.848053 184.270868 153.928432 184.40105 C 149.02062 184.51407 144.784159 182.58547 144.319436 179.989783 C 143.842903 177.411259 147.292282 175.080949 152.163714 174.690017 C 157.023338 174.316248 161.609665 176.030381 162.531489 178.586535 " transform="matrix(0.154469,-0.10628,0.10628,0.154469,-12.586357,21.836248)"/>
<path style="fill-rule:evenodd;fill:rgb(69.019608%,76.862745%,87.058824%);fill-opacity:1;stroke-width:1;stroke-linecap:butt;stroke-linejoin:miter;stroke:rgb(69.019608%,76.862745%,87.058824%);stroke-opacity:1;stroke-miterlimit:4;" d="M 162.708454 179.532106 C 162.715818 182.128271 158.845034 184.27416 153.936216 184.401568 C 149.027398 184.528977 144.793478 182.582747 144.31826 180.000729 C 143.835437 177.408851 147.29375 175.064393 152.159698 174.700334 C 157.029299 174.315146 161.601506 176.027494 162.536975 178.585506 " transform="matrix(0.223841,-0.195817,0.223554,0.151018,-57.462189,17.29534)"/>
</g>
</svg>
