
<svg xmlns="http://www.w3.org/2000/svg" xmlns:xlink="http://www.w3.org/1999/xlink" width="48px" height="48px" viewBox="0 0 48 48" version="1.1">
<g id="surface1">
<path style=" stroke:none;fill-rule:nonzero;fill:rgb(60.392157%,80.392157%,19.607843%);fill-opacity:1;" d="M 22.855469 0.832031 C -41.65625 29.753906 52.992188 81.738281 47.625 17.300781 C 46.367188 7.597656 36.425781 -2.589844 22.855469 0.832031 Z M 22.855469 0.832031 "/>
<path style=" stroke:none;fill-rule:nonzero;fill:rgb(100%,84.313725%,0%);fill-opacity:1;" d="M 16.75 17.726562 C 14.605469 17.726562 12.882812 19.453125 12.882812 21.59375 L 12.882812 27.523438 C 12.882812 29.667969 14.605469 31.390625 16.75 31.390625 L 18.101562 31.390625 L 18.101562 28.671875 C 18.101562 27.433594 19.101562 26.433594 20.339844 26.433594 L 30.195312 26.433594 C 31.4375 26.433594 32.433594 27.433594 32.433594 28.671875 L 32.433594 31.390625 L 33.789062 31.390625 C 35.929688 31.390625 37.65625 29.667969 37.65625 27.523438 L 37.65625 21.59375 C 37.65625 19.453125 35.929688 17.726562 33.789062 17.726562 L 31.28125 17.726562 L 31.28125 18.710938 C 31.28125 19.597656 30.566406 20.3125 29.679688 20.3125 L 20.859375 20.3125 C 19.96875 20.3125 19.257812 19.597656 19.257812 18.710938 L 19.257812 17.726562 Z M 16.75 17.726562 "/>
<path style=" stroke:none;fill-rule:nonzero;fill:rgb(100%,84.313725%,0%);fill-opacity:1;" d="M 20.859375 27.441406 L 29.683594 27.441406 C 30.566406 27.441406 31.285156 28.15625 31.285156 29.042969 L 31.285156 34.8125 C 31.285156 35.695312 30.566406 36.414062 29.683594 36.414062 L 20.859375 36.414062 C 19.972656 36.414062 19.257812 35.695312 19.257812 34.8125 L 19.257812 29.042969 C 19.257812 28.15625 19.972656 27.441406 20.859375 27.441406 Z M 20.859375 27.441406 "/>
<path style=" stroke:none;fill-rule:nonzero;fill:rgb(100%,84.313725%,0%);fill-opacity:1;" d="M 21.511719 12.003906 L 29.03125 12.003906 C 29.785156 12.003906 30.394531 12.613281 30.394531 13.367188 L 30.394531 18.285156 C 30.394531 19.039062 29.785156 19.652344 29.03125 19.652344 L 21.511719 19.652344 C 20.757812 19.652344 20.144531 19.039062 20.144531 18.285156 L 20.144531 13.367188 C 20.144531 12.613281 20.757812 12.003906 21.511719 12.003906 Z M 21.511719 12.003906 "/>
</g>
</svg>
