
<svg xmlns="http://www.w3.org/2000/svg" xmlns:xlink="http://www.w3.org/1999/xlink" width="48px" height="48px" viewBox="0 0 48 48" version="1.1">
<defs>
<filter id="alpha" filterUnits="objectBoundingBox" x="0%" y="0%" width="100%" height="100%">
  <feColorMatrix type="matrix" in="SourceGraphic" values="0 0 0 0 1 0 0 0 0 1 0 0 0 0 1 0 0 0 1 0"/>
</filter>
<mask id="mask0">
  <g filter="url(#alpha)">
<rect x="0" y="0" width="48" height="48" style="fill:rgb(0%,0%,0%);fill-opacity:0.619608;stroke:none;"/>
  </g>
</mask>
<clipPath id="clip1">
  <rect width="48" height="48"/>
</clipPath>
<g id="surface6" clip-path="url(#clip1)">
<path style="fill-rule:evenodd;fill:rgb(100%,100%,100%);fill-opacity:1;stroke-width:1.560568;stroke-linecap:butt;stroke-linejoin:miter;stroke:rgb(100%,100%,100%);stroke-opacity:1;stroke-miterlimit:4;" d="M 137.6775 979.355486 C 131.948333 978.560438 128.615 976.530973 129.073333 974.041216 C 129.365 972.36743 127.969167 972.158207 121.281667 972.890488 C 116.8025 973.392624 111.698333 973.518158 109.948333 973.162478 C 107.156667 972.597575 106.885833 972.91141 107.781667 975.484856 C 109.844167 981.489564 95.385833 986.803834 87.24 983.016893 C 79.156667 979.250875 85.073333 971.823449 96.49 971.342236 L 103.031667 971.091168 L 97.906667 968.224809 C 95.073333 966.634713 90.135833 961.989957 86.9275 957.889181 C 81.74 951.298648 80.844167 949.080882 79.094167 938.703409 L 77.115 926.965984 L 72.948333 931.359672 C 70.656667 933.786662 67.969167 935.857972 66.99 935.983506 C 64.156667 936.297341 67.969167 929.079139 75.135833 920.62652 C 78.573333 916.567589 84.115 909.977056 87.406667 906.001814 L 93.4275 898.783612 L 89.635833 893.071817 C 79.24 877.380073 91.885833 855.495321 110.969167 856.164836 C 119.365 856.436826 129.615 863.362116 132.99 870.998764 C 135.615 876.961627 135.0525 887.255411 131.844167 891.962934 C 130.365 894.117934 130.781667 894.89206 135.198333 898.155942 C 144.198333 904.851086 157.094167 914.998414 160.510833 918.115841 C 166.573333 923.618412 164.5525 926.233703 157.99 921.400646 C 152.6775 917.488171 151.3025 918.136763 153.0525 923.702101 C 154.969167 929.748653 153.8025 943.264476 150.8025 950.064231 C 149.531667 952.93059 146.469167 957.679958 144.010833 960.67185 L 139.531667 966.06981 L 144.281667 966.362723 C 149.5525 966.676557 154.6775 969.333693 154.969167 971.907139 C 155.406667 975.735924 144.74 980.338836 137.6775 979.355486 Z M 121.3025 886.669586 C 126.135833 882.736189 124.073333 881.606383 113.656667 882.443276 C 93.219167 884.117062 92.74 884.263518 97.3025 887.757547 C 103.323333 892.360458 114.948333 891.8374 121.3025 886.669586 Z M 105.198333 875.915511 C 110.49 871.793813 107.031667 861.039738 100.615 861.751097 C 92.948333 862.58799 90.4275 871.940269 96.698333 876.27119 C 100.573333 878.928326 101.323333 878.907403 105.198333 875.915511 Z M 122.9275 873.362987 C 127.781667 868.069639 123.323333 859.219495 116.198333 860.014544 C 109.448333 860.767747 108.24 871.919347 114.573333 874.869394 C 119.031667 876.940705 119.781667 876.815171 122.9275 873.362987 Z M 122.9275 873.362987 " transform="matrix(0.1875,0,0,0.186702,0.751875,-148.445754)"/>
</g>
</defs>
<g id="surface1">
<path style=" stroke:none;fill-rule:nonzero;fill:rgb(10.196078%,10.196078%,10.196078%);fill-opacity:1;" d="M 0.136719 29.824219 C 0.386719 32.652344 0.855469 36.15625 2.027344 38.015625 C 7.324219 46.433594 10.53125 47.507812 19.050781 47.148438 C 23.578125 46.960938 29.648438 45.238281 34.992188 41.699219 C 41.363281 37.476562 46.195312 30.949219 47.421875 24.902344 C 47.679688 23.625 47.773438 21.214844 47.609375 19.925781 C 47.070312 15.621094 44.75 12.035156 40.375 8.746094 C 36.191406 5.597656 31.933594 3.265625 27.972656 1.953125 C 19.828125 -0.753906 12.5625 0.882812 7.300781 6.609375 C 3.605469 10.632812 1.246094 16.082031 0.308594 22.769531 C 0.167969 23.769531 0.046875 28.792969 0.136719 29.824219 Z M 0.136719 29.824219 "/>
<use xlink:href="#surface6" mask="url(#mask0)"/>
</g>
</svg>
