
<svg xmlns="http://www.w3.org/2000/svg" xmlns:xlink="http://www.w3.org/1999/xlink" width="48px" height="48px" viewBox="0 0 48 48" version="1.1">
<g id="surface1">
<path style=" stroke:none;fill-rule:nonzero;fill:rgb(18.431373%,30.980392%,30.980392%);fill-opacity:1;" d="M 0.554688 29.496094 C 3.53125 48.847656 29.96875 54.027344 41.636719 40.210938 C 51.914062 29.949219 49.355469 10.304688 36.753906 3.570312 C 22.277344 -5.441406 1.1875 5.699219 0.0351562 23.636719 C -0.0820312 25.601562 0.0820312 27.589844 0.554688 29.496094 Z M 0.554688 29.496094 "/>
<path style=" stroke:none;fill-rule:nonzero;fill:rgb(96.078431%,96.078431%,96.078431%);fill-opacity:1;" d="M 17.179688 39.683594 C 12.558594 37.363281 9.398438 33.453125 8.191406 28.554688 C 7.621094 26.230469 7.617188 22.847656 8.1875 20.566406 C 9.671875 14.617188 13.976562 10.132812 19.945312 8.320312 C 21.472656 7.855469 21.90625 7.808594 24.539062 7.808594 C 27.15625 7.808594 27.609375 7.859375 29.09375 8.3125 C 35.082031 10.136719 39.425781 14.648438 40.882812 20.554688 C 41.457031 22.882812 41.457031 26.242188 40.878906 28.59375 C 40.023438 32.066406 37.90625 35.386719 35.101562 37.644531 C 33.539062 38.898438 30.558594 40.5 29.785156 40.496094 C 28.792969 40.488281 28.765625 40.394531 28.664062 36.699219 C 28.585938 33.847656 28.515625 33.175781 28.242188 32.761719 C 28.0625 32.488281 27.914062 32.1875 27.914062 32.09375 C 27.914062 32 28.355469 31.835938 28.898438 31.726562 C 32.375 31.027344 34.363281 29.199219 35.015625 26.097656 C 35.472656 23.9375 35.09375 21.269531 34.140625 19.929688 C 33.816406 19.472656 33.757812 19.121094 33.769531 17.710938 C 33.785156 16.078125 33.433594 14.625 33.019531 14.625 C 32.503906 14.625 30.6875 15.300781 29.882812 15.796875 L 28.945312 16.371094 L 27.433594 16.152344 C 25.507812 15.875 23.511719 15.875 21.703125 16.152344 C 20.28125 16.367188 20.273438 16.367188 19.265625 15.792969 C 17.910156 15.023438 16.167969 14.519531 15.828125 14.804688 C 15.46875 15.101562 15.167969 17.035156 15.292969 18.25 C 15.382812 19.121094 15.335938 19.371094 14.976562 19.875 C 13.984375 21.265625 13.597656 23.898438 14.058594 26.101562 C 14.707031 29.183594 16.625 30.972656 20.066406 31.710938 C 21.132812 31.941406 21.269531 32.09375 20.910156 32.667969 C 20.765625 32.902344 20.589844 33.332031 20.523438 33.621094 C 20.304688 34.5625 18.503906 34.992188 17.15625 34.425781 C 16.8125 34.285156 16.246094 33.808594 15.894531 33.367188 C 14.832031 32.03125 14.226562 31.515625 13.453125 31.28125 C 12.890625 31.117188 12.660156 31.113281 12.496094 31.277344 C 12.332031 31.445312 12.472656 31.660156 13.074219 32.175781 C 13.542969 32.578125 14.125 33.367188 14.496094 34.101562 C 14.839844 34.785156 15.28125 35.488281 15.476562 35.664062 C 16.1875 36.304688 17.277344 36.628906 18.726562 36.621094 C 19.550781 36.617188 20.1875 36.703125 20.269531 36.824219 C 20.34375 36.9375 20.410156 37.679688 20.410156 38.46875 C 20.414062 40.792969 19.824219 41.011719 17.179688 39.683594 Z M 17.179688 39.683594 "/>
</g>
</svg>
