
<svg xmlns="http://www.w3.org/2000/svg" xmlns:xlink="http://www.w3.org/1999/xlink" width="48px" height="48px" viewBox="0 0 48 48" version="1.1">
<g id="surface1">
<path style=" stroke:none;fill-rule:nonzero;fill:rgb(54.117647%,16.862745%,88.627451%);fill-opacity:1;" d="M 46.449219 17.402344 C 55.410156 42.417969 23.203125 54.582031 11.101562 44.398438 C -1 34.214844 -5.132812 16.761719 8.574219 7.980469 C 22.277344 -0.800781 37.484375 -7.609375 46.449219 17.40625 Z M 46.449219 17.402344 "/>
<path style=" stroke:none;fill-rule:evenodd;fill:rgb(100%,100%,100%);fill-opacity:1;" d="M 21.785156 36.460938 C 21.785156 36.332031 21.332031 36.226562 20.78125 36.226562 C 20.15625 36.226562 19.722656 36.09375 19.617188 35.871094 C 19.519531 35.652344 19.085938 35.515625 18.492188 35.515625 C 17.828125 35.515625 17.53125 35.40625 17.53125 35.160156 C 17.53125 34.960938 17.277344 34.804688 16.945312 34.804688 C 16.25 34.804688 15.546875 34.28125 15.546875 33.757812 C 15.546875 33.554688 15.417969 33.386719 15.261719 33.386719 C 15.105469 33.386719 14.980469 33.117188 14.980469 32.785156 C 14.980469 32.457031 14.789062 32.125 14.554688 32.050781 C 14.226562 31.945312 14.128906 31.492188 14.128906 30.074219 C 14.128906 28.652344 14.226562 28.199219 14.554688 28.09375 C 14.847656 28 14.980469 27.621094 14.980469 26.886719 C 14.980469 26.296875 15.105469 25.8125 15.261719 25.8125 C 15.417969 25.8125 15.546875 25.546875 15.546875 25.222656 C 15.546875 24.898438 15.675781 24.628906 15.832031 24.628906 C 15.984375 24.628906 16.113281 24.429688 16.113281 24.179688 C 16.113281 23.933594 16.558594 23.40625 17.105469 23.003906 C 17.878906 22.4375 18.097656 22.097656 18.097656 21.464844 C 18.097656 20.785156 18.242188 20.59375 18.949219 20.332031 C 19.644531 20.078125 19.800781 19.875 19.800781 19.25 C 19.800781 18.527344 19.738281 18.476562 18.808594 18.476562 C 18.207031 18.476562 17.8125 18.59375 17.804688 18.773438 C 17.800781 18.9375 17.476562 18.765625 17.085938 18.398438 C 16.679688 18.007812 16.203125 17.777344 15.96875 17.855469 C 15.746094 17.925781 15.460938 17.839844 15.339844 17.667969 C 15.21875 17.492188 14.867188 17.304688 14.554688 17.253906 C 14.105469 17.179688 14.003906 17.007812 14.078125 16.402344 C 14.152344 15.742188 14.078125 15.636719 13.507812 15.636719 C 13.023438 15.632812 12.953125 15.578125 13.246094 15.421875 C 13.488281 15.296875 13.585938 14.976562 13.5 14.597656 C 13.320312 13.816406 13.65625 13.800781 14.078125 14.574219 C 14.253906 14.898438 14.632812 15.164062 14.921875 15.164062 C 15.207031 15.164062 15.714844 15.378906 16.046875 15.636719 C 16.382812 15.898438 16.980469 16.113281 17.378906 16.113281 C 17.957031 16.113281 18.097656 15.996094 18.097656 15.519531 C 18.097656 15.195312 17.984375 14.929688 17.839844 14.929688 C 17.699219 14.929688 17.652344 14.714844 17.734375 14.457031 C 17.832031 14.140625 17.742188 13.980469 17.464844 13.980469 C 16.839844 13.980469 16.113281 13.191406 16.113281 12.507812 C 16.113281 11.992188 16.214844 11.917969 16.75 12.03125 C 17.101562 12.105469 17.492188 12.308594 17.617188 12.480469 C 17.742188 12.65625 18.0625 12.800781 18.328125 12.800781 C 18.597656 12.800781 19.054688 13.066406 19.347656 13.390625 C 19.796875 13.894531 20.109375 13.980469 21.398438 13.980469 C 22.492188 13.980469 22.917969 14.074219 22.917969 14.304688 C 22.917969 14.519531 22.683594 14.589844 22.210938 14.511719 C 21.578125 14.414062 21.5 14.480469 21.5 15.117188 C 21.5 15.511719 21.457031 15.976562 21.40625 16.152344 C 21.351562 16.324219 21.363281 16.386719 21.429688 16.289062 C 21.496094 16.191406 21.855469 16.113281 22.234375 16.113281 C 22.773438 16.113281 22.917969 15.988281 22.917969 15.519531 C 22.917969 15.152344 23.078125 14.929688 23.34375 14.929688 C 23.609375 14.929688 23.769531 15.152344 23.769531 15.519531 C 23.769531 15.953125 23.921875 16.113281 24.335938 16.113281 C 24.648438 16.113281 24.902344 16.21875 24.902344 16.347656 C 24.902344 16.476562 25.039062 16.585938 25.207031 16.585938 C 25.378906 16.585938 25.429688 16.382812 25.328125 16.113281 C 25.226562 15.839844 25.277344 15.636719 25.449219 15.636719 C 25.617188 15.636719 25.753906 15.371094 25.753906 15.046875 C 25.753906 14.722656 25.882812 14.457031 26.035156 14.457031 C 26.191406 14.457031 26.320312 14.265625 26.320312 14.035156 C 26.320312 13.398438 29.117188 11.140625 29.90625 11.140625 C 30.632812 11.140625 30.808594 11.488281 30.183594 11.6875 C 29.972656 11.757812 29.738281 12.070312 29.667969 12.382812 C 29.554688 12.878906 29.625 12.941406 30.210938 12.847656 C 31.007812 12.71875 32.21875 13.601562 31.648438 13.894531 C 31.464844 13.988281 31.265625 13.941406 31.203125 13.789062 C 31.144531 13.632812 30.960938 13.507812 30.796875 13.507812 C 30.605469 13.507812 30.597656 13.609375 30.777344 13.804688 C 30.929688 13.96875 31.136719 14.296875 31.242188 14.539062 C 31.40625 14.921875 31.304688 14.96875 30.492188 14.890625 C 29.609375 14.804688 29.5625 14.835938 29.671875 15.453125 C 29.78125 16.070312 29.875 16.113281 31.171875 16.113281 L 32.558594 16.113281 L 32.558594 16.925781 C 32.558594 17.375 32.683594 17.804688 32.839844 17.886719 C 32.996094 17.96875 33.121094 18.210938 33.117188 18.433594 C 33.113281 18.75 33.003906 18.714844 32.589844 18.265625 C 32.304688 17.953125 31.929688 17.769531 31.761719 17.855469 C 31.59375 17.945312 31.347656 17.847656 31.210938 17.644531 C 31.011719 17.347656 30.546875 17.285156 28.996094 17.34375 L 27.03125 17.414062 L 26.773438 18.429688 C 26.535156 19.382812 26.570312 19.480469 27.316406 19.96875 C 27.753906 20.253906 28.316406 20.6875 28.5625 20.925781 C 28.8125 21.167969 29.8125 22.027344 30.785156 22.839844 C 31.761719 23.652344 32.558594 24.484375 32.558594 24.683594 C 32.558594 24.886719 32.738281 25.109375 32.960938 25.183594 C 33.207031 25.261719 33.304688 25.5 33.210938 25.796875 C 33.113281 26.109375 33.222656 26.332031 33.519531 26.425781 C 34.171875 26.636719 34.203125 31.019531 33.550781 31.019531 C 33.316406 31.019531 33.125 31.230469 33.125 31.488281 C 33.125 32.070312 29.15625 35.515625 28.488281 35.515625 C 28.222656 35.515625 27.929688 35.675781 27.839844 35.871094 C 27.75 36.066406 27.4375 36.226562 27.140625 36.226562 C 26.84375 36.226562 26.605469 36.332031 26.605469 36.460938 C 26.605469 36.601562 25.613281 36.699219 24.195312 36.699219 C 22.777344 36.699219 21.785156 36.601562 21.785156 36.460938 Z M 19.800781 33.035156 C 19.800781 32.757812 18.828125 32 18.613281 32.109375 C 18.226562 32.308594 18.351562 32.675781 18.808594 32.675781 C 19.042969 32.675781 19.234375 32.78125 19.234375 32.914062 C 19.234375 33.042969 19.359375 33.148438 19.515625 33.148438 C 19.671875 33.148438 19.800781 33.097656 19.800781 33.035156 Z M 18.097656 31.375 C 18.097656 31.179688 17.976562 31.019531 17.824219 31.019531 C 17.671875 31.019531 17.621094 31.179688 17.710938 31.375 C 17.800781 31.570312 17.925781 31.730469 17.988281 31.730469 C 18.046875 31.730469 18.097656 31.570312 18.097656 31.375 Z M 18.949219 16.480469 C 18.949219 16.421875 18.820312 16.308594 18.664062 16.230469 C 18.507812 16.148438 18.382812 16.195312 18.382812 16.335938 C 18.382812 16.472656 18.507812 16.585938 18.664062 16.585938 C 18.820312 16.585938 18.949219 16.539062 18.949219 16.480469 Z M 23.769531 16.480469 C 23.769531 16.230469 23.226562 16.125 23.0625 16.34375 C 22.964844 16.476562 23.082031 16.585938 23.328125 16.585938 C 23.570312 16.585938 23.769531 16.539062 23.769531 16.480469 Z M 17.53125 13.035156 C 17.53125 12.90625 17.402344 12.800781 17.246094 12.800781 C 17.09375 12.800781 16.964844 12.90625 16.964844 13.035156 C 16.964844 13.164062 17.09375 13.273438 17.246094 13.273438 C 17.402344 13.273438 17.53125 13.164062 17.53125 13.035156 Z M 17.53125 13.035156 "/>
</g>
</svg>
