
<svg xmlns="http://www.w3.org/2000/svg" xmlns:xlink="http://www.w3.org/1999/xlink" width="48px" height="48px" viewBox="0 0 48 48" version="1.1">
<g id="surface1">
<path style=" stroke:none;fill-rule:nonzero;fill:rgb(100%,100%,100%);fill-opacity:1;" d="M 43.316406 38.105469 C 66.785156 -13.285156 -8.003906 -6.925781 0.929688 26.441406 C 5.246094 45.722656 32.3125 57.421875 43.316406 38.105469 Z M 43.316406 38.105469 "/>
<path style=" stroke:none;fill-rule:nonzero;fill:rgb(94.901961%,61.176471%,20%);fill-opacity:1;" d="M 10.988281 10.128906 L 39.867188 10.128906 C 40.179688 10.128906 40.429688 10.359375 40.429688 10.640625 L 40.429688 36.847656 C 40.429688 37.128906 40.179688 37.355469 39.867188 37.355469 L 10.988281 37.355469 C 10.679688 37.355469 10.429688 37.128906 10.429688 36.847656 L 10.429688 10.640625 C 10.429688 10.359375 10.679688 10.128906 10.988281 10.128906 Z M 10.988281 10.128906 "/>
<path style=" stroke:none;fill-rule:nonzero;fill:rgb(100%,100%,100%);fill-opacity:1;" d="M 12.191406 11.265625 L 38.664062 11.265625 C 38.949219 11.265625 39.179688 11.472656 39.179688 11.730469 L 39.179688 35.753906 C 39.179688 36.011719 38.949219 36.222656 38.664062 36.222656 L 12.191406 36.222656 C 11.910156 36.222656 11.679688 36.011719 11.679688 35.753906 L 11.679688 11.730469 C 11.679688 11.472656 11.910156 11.265625 12.191406 11.265625 Z M 12.191406 11.265625 "/>
<path style="fill:none;stroke-width:2.6;stroke-linecap:butt;stroke-linejoin:miter;stroke:rgb(83.137255%,0%,0%);stroke-opacity:1;stroke-miterlimit:4;" d="M 40.823984 44.481264 C 39.497308 44.348984 38.870822 42.863378 39.156426 41.693208 C 39.617077 39.861638 41.690008 39.047607 43.385205 39.586903 C 45.716101 40.319531 46.738747 43.026184 45.946427 45.234243 C 44.923781 48.073176 41.588665 49.294223 38.852396 48.246158 C 35.508067 46.953884 34.089261 42.975307 35.406723 39.729358 C 36.972938 35.872886 41.597878 34.244824 45.34758 35.822009 C 45.55948 35.913588 45.77138 36.015342 45.974066 36.117095 " transform="matrix(-0.423992,0,0,0.383892,43.660605,6.353686)"/>
<path style=" stroke:none;fill-rule:nonzero;fill:rgb(94.901961%,61.176471%,20%);fill-opacity:1;" d="M 37.679688 20.433594 C 37.679688 20.433594 27.730469 15.652344 19.269531 18.882812 C 16.582031 19.910156 13.242188 22.066406 13.339844 23.640625 C 13.457031 25.507812 15.390625 27.707031 20.910156 29.21875 C 24.492188 30.203125 35.539062 29.542969 35.539062 29.542969 L 29.832031 24.890625 C 29.832031 24.890625 24.195312 27.152344 22.625 25.277344 C 21.054688 23.40625 24.335938 16.429688 37.683594 20.433594 Z M 37.679688 20.433594 "/>
<path style=" stroke:none;fill-rule:nonzero;fill:rgb(50.196078%,0%,50.196078%);fill-opacity:1;" d="M 16.800781 13.234375 C 16.335938 13.398438 16.109375 13.871094 16.292969 14.292969 L 17.695312 17.496094 C 17.878906 17.914062 18.398438 18.117188 18.863281 17.953125 L 19.546875 17.707031 C 20.011719 17.539062 20.238281 17.070312 20.054688 16.648438 L 18.652344 13.445312 C 18.46875 13.027344 17.945312 12.820312 17.484375 12.988281 Z M 17.195312 13.894531 L 17.679688 13.71875 C 18.007812 13.601562 18.378906 13.757812 18.507812 14.050781 L 19.492188 16.304688 C 19.625 16.601562 19.464844 16.933594 19.136719 17.050781 L 18.65625 17.222656 C 18.328125 17.339844 17.960938 17.199219 17.832031 16.902344 L 16.84375 14.648438 C 16.714844 14.351562 16.871094 14.011719 17.195312 13.894531 Z M 17.195312 13.894531 "/>
<path style=" stroke:none;fill-rule:nonzero;fill:rgb(53.333333%,66.666667%,0%);fill-opacity:1;" d="M 22.191406 12.601562 C 21.753906 12.632812 21.425781 12.976562 21.460938 13.375 L 21.71875 16.40625 C 21.75 16.804688 22.132812 17.097656 22.570312 17.070312 L 23.21875 17.023438 C 23.65625 16.992188 23.984375 16.648438 23.949219 16.25 L 23.691406 13.21875 C 23.660156 12.824219 23.277344 12.527344 22.839844 12.558594 Z M 22.335938 13.253906 L 22.792969 13.222656 C 23.105469 13.199219 23.371094 13.417969 23.394531 13.699219 L 23.578125 15.832031 C 23.601562 16.113281 23.371094 16.351562 23.0625 16.375 L 22.605469 16.40625 C 22.292969 16.429688 22.027344 16.222656 22.003906 15.941406 L 21.820312 13.808594 C 21.796875 13.527344 22.027344 13.277344 22.335938 13.253906 Z M 22.335938 13.253906 "/>
<path style=" stroke:none;fill-rule:nonzero;fill:rgb(83.137255%,0%,0%);fill-opacity:1;" d="M 27.097656 13.335938 C 26.738281 13.285156 26.402344 13.523438 26.347656 13.863281 L 25.910156 16.46875 C 25.855469 16.808594 26.097656 17.125 26.457031 17.171875 L 26.984375 17.246094 C 27.34375 17.292969 27.675781 17.058594 27.734375 16.714844 L 28.167969 14.113281 C 28.226562 13.769531 27.980469 13.457031 27.625 13.40625 Z M 27.074219 13.910156 L 27.449219 13.960938 C 27.699219 13.996094 27.871094 14.222656 27.828125 14.464844 L 27.523438 16.296875 C 27.484375 16.539062 27.25 16.703125 26.996094 16.671875 L 26.621094 16.621094 C 26.371094 16.585938 26.199219 16.363281 26.238281 16.121094 L 26.546875 14.289062 C 26.585938 14.050781 26.820312 13.875 27.074219 13.910156 Z M 27.074219 13.910156 "/>
<path style=" stroke:none;fill-rule:nonzero;fill:rgb(100%,83.137255%,16.470588%);fill-opacity:1;" d="M 30.929688 14.820312 C 30.652344 14.71875 30.335938 14.847656 30.222656 15.101562 L 29.355469 17.058594 C 29.242188 17.3125 29.371094 17.601562 29.648438 17.703125 L 30.054688 17.851562 C 30.332031 17.949219 30.644531 17.824219 30.757812 17.570312 L 31.628906 15.613281 C 31.742188 15.355469 31.613281 15.070312 31.335938 14.96875 Z M 30.796875 15.265625 L 31.082031 15.371094 C 31.277344 15.441406 31.367188 15.648438 31.285156 15.832031 L 30.675781 17.207031 C 30.59375 17.386719 30.375 17.476562 30.179688 17.402344 L 29.890625 17.300781 C 29.695312 17.226562 29.605469 17.027344 29.6875 16.84375 L 30.296875 15.46875 C 30.378906 15.289062 30.601562 15.195312 30.796875 15.265625 Z M 30.796875 15.265625 "/>
</g>
</svg>
