<svg xmlns="http://www.w3.org/2000/svg" viewBox="0 0 48 48"><path d="m 39.628906 7.164062 c 37.683594 49.945313 -66.015625 57.042969 -32.738281 6.058594 c 7.585937 -11.625 22.757813 -19.285156 32.738281 -6.058594" style="fill:#ff8c00"/><path d="m 24.101562 12.121094 c -6.644531 0 -12.03125 5.410156 -12.03125 12.082031 c 0 6.671875 5.386719 12.082031 12.03125 12.082031 c 6.644532 0 12.03125 -5.410156 12.03125 -12.082031 c 0 -6.671875 -5.386718 -12.082031 -12.03125 -12.082031 m 0 10.046875 c 1.121094 0 2.023438 0.910156 2.023438 2.035156 c 0 1.125 -0.902344 2.03125 -2.023438 2.03125 c -1.121093 0 -2.023437 -0.90625 -2.023437 -2.03125 c 0 -1.125 0.902344 -2.035156 2.023437 -2.035156" style="fill:#fff"/><path d="m 127.999387 899.925833 c -13.494718 0 -24.436946 10.9375 -24.436946 24.4375 c 0 13.479167 10.942228 24.4375 24.436946 24.4375 c 13.494717 0 24.436946 -10.958333 24.436946 -24.4375 c 0 -13.5 -10.942229 -24.4375 -24.436946 -24.4375 m 0 14.3125 c 5.586185 0 10.105346 4.520834 10.105346 10.125 c 0 5.583334 -4.519161 10.104167 -10.105346 10.104167 c -5.586186 0 -10.105347 -4.520833 -10.105347 -10.104167 c 0 -5.604166 4.519161 -10.125 10.105347 -10.125" transform="matrix(0.186705 0 0 0.1875 0.203437 -149.115)" style="fill:none;stroke:#ffb39b;stroke-width:6"/></svg>