<svg xmlns="http://www.w3.org/2000/svg" viewBox="0 0 48 48"><path d="m 39.585938 7.335938 c 37.539062 49.351562 -65.769532 56.359374 -32.617188 5.988281 c 7.558594 -11.484375 22.671875 -19.058594 32.617188 -5.988281" style="fill:#ffc0ca"/><path d="m 24.113281 12.234375 c -6.617187 0 -11.984375 5.34375 -11.984375 11.9375 c 0 6.589844 5.367188 11.9375 11.984375 11.9375 c 6.621094 0 11.988281 -5.34375 11.988281 -11.9375 c 0 -6.59375 -5.367187 -11.9375 -11.988281 -11.9375 m 0 9.929687 c 1.117188 0 2.019531 0.894532 2.019531 2.007813 c 0 1.109375 -0.902343 2.007813 -2.019531 2.007813 c -1.113281 0 -2.015625 -0.898438 -2.015625 -2.007813 c 0 -1.113281 0.902344 -2.007813 2.015625 -2.007813" style="fill:#dc133c"/><path d="m 127.989991 899.921495 c -13.482428 0 -24.423775 10.943353 -24.423775 24.438047 c 0 13.494694 10.941347 24.438047 24.423775 24.438047 c 13.503429 0 24.444776 -10.943353 24.444776 -24.438047 c 0 -13.494694 -10.941347 -24.438047 -24.444776 -24.438047 m 0 14.317026 c 5.607178 0 10.122321 4.533374 10.122321 10.121021 c 0 5.587647 -4.515143 10.099935 -10.122321 10.099935 c -5.586177 0 -10.101321 -4.512288 -10.101321 -10.099935 c 0 -5.587647 4.515144 -10.121021 10.101321 -10.121021" transform="matrix(0.186006 0 0 0.185258 0.306375 -147.073125)" style="fill:none;stroke:#ffeff4;stroke-width:6"/></svg>