<svg xmlns="http://www.w3.org/2000/svg" viewBox="0 0 48 48"><path d="m 11.28125 4.945312 c 24.550781 -17.257812 49.425781 14.617188 29.421875 34.949219 c -18.847656 19.15625 -48.128906 1.398438 -38.972656 -22.441406 c 1.90625 -4.972656 5.042969 -9.339844 9.550781 -12.507813" style="fill:#2f4e4e"/><g style="fill:#fff"><path d="m 36.246094 23.316406 c 0.269531 -0.277344 2.4375 -5.566406 2.460937 -6.003906 c 0.023438 -0.519531 -1.957031 -1.9375 -4.378906 -3.136719 c -5.492187 -2.710937 -12.867187 -2.742187 -18.539063 -0.066406 c -1.644531 0.773437 -4.527343 2.585937 -4.773437 3 c -0.074219 0.125 0.429687 1.601563 1.121094 3.289063 c 0.691406 1.683593 1.277343 3.089843 1.308593 3.117187 c 0.027344 0.03125 1.648438 -0.496094 3.597657 -1.171875 l 3.546875 -1.226562 l 0.019531 -2.316407 l 0.023437 -2.316406 l 1.207032 -0.226563 c 1.359375 -0.261718 5.109375 -0.25 6.375 0.015626 l 0.828125 0.179687 v 4.617187 l 3.53125 1.191407 c 1.945312 0.65625 3.59375 1.128906 3.667969 1.054687"/><g style="fill-rule:evenodd"><path d="m 18.332031 24.144531 h 2.296875 c 0.605469 0 1.09375 0.621094 1.09375 1.382813 v 0.730468 c 0 0.765626 -0.488281 1.386719 -1.09375 1.386719 h -2.296875 c -0.601562 0 -1.089843 -0.621093 -1.089843 -1.386719 v -0.730468 c 0 -0.761719 0.488281 -1.382813 1.089843 -1.382813"/><path d="m 23.527344 24.117188 h 2.296875 c 0.605469 0 1.09375 0.617187 1.09375 1.382812 v 0.730469 c 0 0.765625 -0.488281 1.382812 -1.09375 1.382812 h -2.296875 c -0.601563 0 -1.089844 -0.617187 -1.089844 -1.382812 v -0.730469 c 0 -0.765625 0.488281 -1.382812 1.089844 -1.382812"/><path d="m 28.691406 24.058594 h 2.296875 c 0.605469 0 1.09375 0.621094 1.09375 1.386718 v 0.726563 c 0 0.765625 -0.488281 1.386719 -1.09375 1.386719 h -2.296875 c -0.601562 0 -1.089844 -0.621094 -1.089844 -1.386719 v -0.726563 c 0 -0.765624 0.488282 -1.386718 1.089844 -1.386718"/><path d="m 18.359375 28.589844 h 2.300781 c 0.601563 0 1.089844 0.621094 1.089844 1.386718 v 0.730469 c 0 0.761719 -0.488281 1.382813 -1.089844 1.382813 h -2.300781 c -0.601563 0 -1.089844 -0.621094 -1.089844 -1.382813 v -0.730469 c 0 -0.765624 0.488281 -1.386718 1.089844 -1.386718"/><path d="m 23.554688 28.566406 h 2.300781 c 0.601562 0 1.089843 0.621094 1.089843 1.382813 v 0.730469 c 0 0.765624 -0.488281 1.386718 -1.089843 1.386718 h -2.300781 c -0.601563 0 -1.089844 -0.621094 -1.089844 -1.386718 v -0.730469 c 0 -0.761719 0.488281 -1.382813 1.089844 -1.382813"/><path d="m 28.71875 28.507812 h 2.296875 c 0.605469 0 1.09375 0.617188 1.09375 1.382813 v 0.730469 c 0 0.765625 -0.488281 1.386718 -1.09375 1.386718 h -2.296875 c -0.601562 0 -1.089844 -0.621093 -1.089844 -1.386718 v -0.730469 c 0 -0.765625 0.488282 -1.382813 1.089844 -1.382813"/><path d="m 18.339844 33.039062 h 2.296875 c 0.605469 0 1.09375 0.621094 1.09375 1.386719 v 0.726563 c 0 0.765625 -0.488281 1.386718 -1.09375 1.386718 h -2.296875 c -0.601563 0 -1.089844 -0.621093 -1.089844 -1.386718 v -0.726563 c 0 -0.765625 0.488281 -1.386719 1.089844 -1.386719"/><path d="m 23.535156 33.015625 h 2.296875 c 0.601563 0 1.089844 0.617187 1.089844 1.382813 v 0.730468 c 0 0.765625 -0.488281 1.382813 -1.089844 1.382813 h -2.296875 c -0.601562 0 -1.09375 -0.617188 -1.09375 -1.382813 v -0.730468 c 0 -0.765626 0.492188 -1.382813 1.09375 -1.382813"/><path d="m 28.691406 32.953125 h 2.296875 c 0.605469 0 1.09375 0.621094 1.09375 1.386719 v 0.730468 c 0 0.761719 -0.488281 1.382813 -1.09375 1.382813 h -2.296875 c -0.601562 0 -1.089844 -0.621094 -1.089844 -1.382813 v -0.730468 c 0 -0.765625 0.488282 -1.386719 1.089844 -1.386719"/></g></g></svg>