<svg xmlns="http://www.w3.org/2000/svg" viewBox="0 0 256 256"><defs><clipPath><path d="M 0,64 H64 V128 H0 z"/></clipPath></defs><g style="fill:#d8bfd8;color:#000"><path d="m -1360.14 1641.33 c 46.11 -98.28 -119.59 -146.07 -181.85 -106.06 -62.25 40.01 -83.52 108.58 -13.01 143.08 70.51 34.501 148.75 61.26 194.86 -37.03 z" transform="matrix(0 -1.03665 -1.35742 0 2320.8 -1401.71)"/></g><g style="fill:#fff;fill-rule:evenodd"><path d="m 134.07 166.42 v -28.722 l -7.593 -7.792 c -4.176 -4.285 -7.593 -8.201 -7.593 -8.701 0 -0.5 -1.22 -0.91 -2.712 -0.91 -2.702 0 -2.712 0.036 -2.712 10.305 v 10.305 h -3.254 h -3.254 v -17.356 v -17.356 h 16.814 h 16.814 v 3.254 v 3.254 h -10.305 c -9.736 0 -10.305 0.126 -10.305 2.271 0 1.249 0.854 2.531 1.898 2.848 1.044 0.317 5.071 4.156 8.949 8.53 l 7.05 7.953 l 28.475 -0.225 l 28.475 -0.225 v 30.644 v 30.644 h -30.373 h -30.373 v -28.722 z"/><path d="m 71.16 118.67 v -49.36 h 48.27 h 48.27 v 26.576 v 26.576 h -5.424 h -5.424 v -20.61 v -20.61 h -37.424 h -37.424 v 37.424 v 37.424 h 20.61 h 20.61 v 5.966 v 5.966 h -26.03 h -26.03 v -49.36 z"/></g></svg>