<svg xmlns="http://www.w3.org/2000/svg" viewBox="0 0 256 256"><defs><clipPath><circle cx="128" cy="924.36218" r="128" style="fill:#0f9d58"/></clipPath><clipPath><circle cx="127.00293" cy="930.43964" r="128" style="fill:#9d5fad"/></clipPath><clipPath><path d="M 88.118406,249.43519 C 46.103287,235.29134 14.771284,201.68742 4.1335861,159.36053 1.3377997,148.23623 0.92261224,144.16281 0.92582381,127.88908 0.92787958,117.47222 1.134384,112.01362 1.6577819,108.54099 4.4653598,89.913336 12.17654,70.638106 23.042737,55.086148 c 3.958678,-5.665755 8.344812,-10.93092 9.101533,-10.925587 0.32809,0.0023 10.488643,18.309713 22.579009,40.683112 12.090365,22.373397 22.374546,41.334697 22.853732,42.136217 0.479186,0.80151 0.924733,2.44098 0.990103,3.64326 0.343424,6.31639 2.524175,14.20976 5.6424,20.42304 2.954444,5.88693 5.065381,8.73258 10.434696,14.06652 6.71418,6.66995 12.88853,10.28643 21.73204,12.72904 3.16587,0.87442 5.10478,1.05037 11.57517,1.05037 8.82596,0 12.60219,-0.76201 19.26429,-3.88733 2.04584,-0.95974 3.93661,-1.66536 4.20172,-1.56805 0.2651,0.0973 -11.0555,17.66459 -25.1569,39.0384 l -25.6389,38.86148 -3.094121,0.11221 c -2.554618,0.0927 -4.195204,-0.25845 -9.409103,-2.01364 z" transform="translate(0 796.36216)" style="fill:#0f9d58"/><path d="m 112.35984,1051.5167 c -10.0014,-1.4495 -12.15632,-1.8201 -12.531784,-2.1556 -0.248854,-0.2223 1.738304,-3.7475 4.550294,-8.0722 7.16635,-11.0213 49.77231,-74.64801 50.25856,-75.05489 3.57509,-2.99158 8.63523,-8.0414 10.57512,-10.55356 3.36154,-4.35318 7.55784,-12.9141 9.06523,-18.494 6.19314,-22.92535 -2.59253,-47.15185 -21.69967,-59.83688 l -2.96081,-1.96565 17.02469,0.29584 c 9.36358,0.1627 31.17032,0.43384 48.45941,0.60252 l 31.43471,0.30668 1.54584,4.18869 c 2.24597,6.08579 4.67816,15.0947 5.93451,21.9816 1.52517,8.36049 1.92536,28.85896 0.73851,37.82758 -3.0805,23.27845 -12.81326,45.72018 -27.80202,64.10577 -20.47622,25.1166 -51.4599,42.1974 -84.14612,46.3885 -5.31244,0.6812 -26.64601,0.9864 -30.44647,0.4356 z" style="fill:#f4b400"/><path d="M 67.989788,108.87302 C 41.284246,59.575543 33.290284,45.149038 32.233625,44.344765 31.651257,43.901497 32.811213,42.549931 38.695603,36.815353 53.43581,22.450419 68.809334,13.040746 87.839196,6.7360352 101.68742,2.1480329 112.58238,0.43719165 127.95142,0.43719165 c 21.3099,0 37.80488,3.80960275 56.83492,13.12633035 25.29351,12.383198 46.19421,33.578863 58.51993,59.345832 1.61138,3.368591 2.92978,6.372442 2.92978,6.675231 0,0.560033 -10.54865,0.49527 -71.16508,-0.436914 l -24.28843,-0.373518 -3.93063,-1.764495 c -6.75732,-3.033425 -10.64587,-3.839529 -18.6576,-3.867747 -5.0296,-0.01773 -7.97946,0.207636 -10.31642,0.788106 -14.50826,3.603659 -26.283291,12.94777 -33.291614,26.418653 -3.58502,6.89086 -5.24713,13.08166 -6.331628,23.58317 l -0.33738,3.26696 -9.92748,-18.32578 z" transform="translate(0 796.36216)" style="fill:#db4437"/></clipPath><clipPath><circle cx="128" cy="933.48718" r="128" style="fill:#4285f4"/></clipPath><clipPath><circle cx="128" cy="924.36218" r="128" style="fill:#4285f4"/></clipPath><clipPath><circle cx="128" cy="128.00002" r="128" style="fill:#292929;fill-opacity:0.26020412"/></clipPath><clipPath><circle cx="128" cy="924.36218" r="128" style="fill:#4285f4"/></clipPath><clipPath><circle cx="128" cy="924.36218" r="128" style="fill:#4285f4"/></clipPath><clipPath><circle cx="128" cy="924.36218" r="128" style="fill:#0f9d58"/></clipPath><clipPath><circle cx="128" cy="924.36218" r="128" style="fill:#0f9d58"/></clipPath><clipPath><circle cx="128" cy="924.36218" r="128" style="fill:#b40000"/></clipPath><clipPath><circle r="128" cy="924.36218" cx="112" style="fill:#009fe0;stroke-width:2.04964042"/></clipPath><clipPath><circle r="128" cy="924.36218" cx="128" style="fill:#009fe0;stroke-width:2.04964042"/></clipPath><clipPath><circle cx="128" cy="924.36218" r="128" style="fill:#900"/></clipPath><clipPath><circle cx="128" cy="924.36218" r="128" style="fill:#557ae6"/></clipPath><clipPath><circle cx="128" cy="924.36218" r="128" style="fill:#ff3b38"/></clipPath><clipPath><circle cx="102.64714" cy="924.36218" r="128" style="fill:#80b4ff"/></clipPath><clipPath><circle cx="128" cy="924.36218" r="128" style="fill:#ff3b38"/></clipPath></defs><path d="m 125.73 798.56 c -111.92 -22.351 -154.42 130.95 -105.92 214.2 38.644 66.33 171.02 47.37 220.37 -42.17 49.35 -89.54 -24.617 -154.09 -114.45 -172.03 z" transform="translate(0 -796.36)" style="fill:#009fe0;color:#000"/><path d="m 33.805263,816.39544 c -2.45822,-10e-4 -2.49852,0.36366 -0.47622,4.2739 2.93821,5.68201 20.25311,21.75181 28.88725,26.81174 3.796823,2.22515 6.598943,4.3471 6.226313,4.71973 -0.81933,0.81933 -12.180743,-4.81686 -18.064093,-8.96293 -5.26388,-3.70944 -6.48094,-2.7308 -3.58209,2.87493 2.87296,5.55574 5.84612,8.16564 16.803503,14.75875 9.24866,5.56512 9.27401,7.06846 0.0472,3.21308 -4.682103,-1.95374 -5.242463,-1.93021 -5.242463,0.18419 0,4.15331 11.011923,13.59065 19.278633,16.52674 9.06754,3.22048 10.43267,5.34038 2.62887,4.07404 -2.95679,-0.48015 -5.28851,-0.20859 -5.28851,0.5998 0,2.55763 6.63577,7.58742 12.46803,9.45481 6.80525,2.17902 7.42889,3.69056 1.13765,2.76725 -2.49364,-0.36602 -4.53523,-0.46835 -4.53523,-0.23063 0,0.23771 1.83497,2.12093 4.07405,4.197 3.75636,3.48314 3.8786,3.98777 1.67573,6.48771 -4.00297,4.54294 -9.68686,17.02208 -21.00049,46.0289 -10.619143,27.22592 -13.223773,36.59392 -11.438003,41.24762 1.30743,3.4071 3.37783,2.8779 7.056503,-1.7988 2.93632,-3.733 3.39451,-3.8746 4.71973,-1.5065 2.08575,3.7269 4.67541,3.2655 9.42411,-1.6912 2.2749,-2.3745 6.78179,-5.1166 10.0236,-6.0879 10.00746,-2.9983 16.049424,-14.92125 17.710514,-34.94451 l 0.93786,-11.33039 10.70006,-5.2886 c 12.48599,-6.17388 27.36392,-20.1518 32.28476,-30.31692 1.80065,-3.7196 4.7021,-12.47387 6.44159,-19.46306 3.96605,-15.93513 7.41251,-22.74982 14.46665,-28.56437 5.39359,-4.44589 7.72359,-5.09646 30.05559,-8.40942 2.49364,-0.36995 -2.35573,-0.33217 -10.76161,0.0787 -13.95155,0.68087 -16.08043,0.4101 -24.50567,-3.13625 -9.70804,-4.08609 -18.13108,-4.93494 -23.01437,-2.32142 -4.46455,2.38935 -8.97821,12.57155 -8.97829,20.2779 0,5.09118 -0.57775,6.87207 -2.25993,6.87207 -1.24682,0 -2.27529,-0.88481 -2.27529,-1.96783 0,-3.24307 -11.55457,-26.14118 -17.89501,-35.45179 -6.40459,-9.40483 -11.826214,-14.97018 -13.221414,-13.57499 -0.4833,0.4833 -0.063,4.81041 0.93779,9.62397 1.325854,6.38649 1.352304,8.90658 0.1228,9.31644 -2.54591,0.8486 -2.0231,6.88671 1.322144,15.37366 1.65031,4.18692 2.69617,7.61001 2.32142,7.61001 -0.37468,0 -7.332864,-4.32089 -15.465924,-9.60854 C 51.153193,825.447 36.300773,816.39811 33.806573,816.39709 z m 119.807327,31.05487 c 1.17747,-0.12516 2.27529,0.56358 2.27529,2.18303 0,1.23549 -1.25257,2.48797 -2.78268,2.78268 -2.01962,0.38884 -2.64886,-0.22512 -2.25993,-2.24459 0.318,-1.65369 1.58985,-2.59566 2.76732,-2.72112 z" transform="translate(15.186441 -770.32828)" style="fill:#fff;stroke-width:16.1334095"/></svg>