<svg xmlns="http://www.w3.org/2000/svg" viewBox="0 0 256 256"><defs><clipPath><path d="m -24 13 c 0 1.105 -0.672 2 -1.5 2 -0.828 0 -1.5 -0.895 -1.5 -2 0 -1.105 0.672 -2 1.5 -2 0.828 0 1.5 0.895 1.5 2 z" transform="matrix(15.33333 0 0 11.5 415 -125.5)"/></clipPath></defs><g transform="translate(0 -796.37)"><path d="m 234.22 863.01 c 126.9 254.28 -348.4 252.6 -206.35 -5.807 38.994 -70.938 158.51 -90.06 206.35 5.807 z" style="fill:#4682b4;color:#000"/><path d="m 92.78 846.88 c -20.65 0 -37.39 17.954 -37.39 40.1 0.019 11.07 4.3 21.635 11.83 29.2 -0.385 1.091 -0.613 2.29 -0.613 3.565 v 23.379 c -4.132 0 -7.478 3.589 -7.478 8.02 0 4.431 3.346 8.02 7.478 8.02 v 23.379 c 0 4.824 3.073 8.702 6.887 8.702 h 24.954 l -8.596 9.961 c -2.329 2.703 0.583 6.079 5.242 6.079 h 27.597 h 27.597 c 3.417 0 6.158 -1.889 6.05 -4.175 -0.03 -0.67 -0.31 -1.323 -0.811 -1.905 l -8.596 -9.961 h 24.954 c 3.814 0 6.887 -3.878 6.887 -8.702 v -21.483 l 5.586 3.697 l 14.919 9.869 c 2.52 1.664 5.668 -0.417 5.668 -3.754 v -19.73 v -19.738 c 0 -2.442 -1.765 -4.395 -3.892 -4.323 -0.624 0.024 -1.234 0.221 -1.776 0.581 l -14.919 9.869 l -5.586 3.689 v -21.474 c 0 -1.267 -0.224 -2.458 -0.606 -3.541 7.515 -7.571 11.811 -18.15 11.823 -29.22 0 -22.15 -16.739 -40.1 -37.39 -40.1 -11.778 0.02 -22.86 5.987 -29.904 16.12 -7.05 -10.126 -18.14 -16.08 -29.912 -16.12 m 0 20.05 c 10.282 0 18.695 9.02 18.695 20.05 0 11.03 -8.413 20.05 -18.695 20.05 -10.282 0 -18.695 -9.02 -18.695 -20.05 0 -11.03 8.413 -20.05 18.695 -20.05 z m 59.824 0 c 10.282 0 18.695 9.02 18.695 20.05 0 11.03 -8.413 20.05 -18.695 20.05 -10.282 0 -18.695 -9.02 -18.695 -20.05 0 -11.03 8.413 -20.05 18.695 -20.05 z m -59.824 8.02 c -6.24 0 -11.217 5.338 -11.217 12.03 0 6.693 4.977 12.03 11.217 12.03 6.24 0 11.217 -5.338 11.217 -12.03 0 -6.693 -4.977 -12.03 -11.217 -12.03 z m 59.824 0 c -6.24 0 -11.217 5.338 -11.217 12.03 0 6.693 4.977 12.03 11.217 12.03 6.24 0 11.217 -5.338 11.217 -12.03 0 -6.693 -4.977 -12.03 -11.217 -12.03 z" style="fill:#fff"/></g></svg>