<svg xmlns="http://www.w3.org/2000/svg" viewBox="0 0 256 256"><defs><clipPath><path d="M 0,64 H64 V128 H0 z"/></clipPath></defs><g style="fill:#b0e0e6;color:#000"><path d="m -1360.14 1641.33 c 46.11 -98.28 -119.59 -146.07 -181.85 -106.06 -62.25 40.01 -83.52 108.58 -13.01 143.08 70.51 34.501 148.75 61.26 194.86 -37.03 z" transform="matrix(1.03665 0 0 -1.35742 1657.71 2320.79)"/></g><g transform="matrix(0.57845 0 0 0.57929 55.46 58.29)"><path d="m 119.08 245.78 c -1.925 -0.722 -27.528 -11.18 -56.895 -23.24 -35.13 -14.426 -54.37 -22.841 -56.25 -24.595 -6.23 -5.819 -2.645 -13.13 8.725 -17.792 13.931 -5.713 43.774 -19.03 44.68 -19.932 1.286 -1.286 -5.569 -4.722 -30.25 -15.16 c -10.711 -4.531 -20.45 -8.876 -21.64 -9.656 -5.081 -3.329 -5.3 -10.809 -0.418 -14.285 1.5 -1.068 14.387 -6.957 28.639 -13.09 14.251 -6.129 26.1 -11.321 26.32 -11.539 0.581 -0.562 -13.411 -6.917 -34.908 -15.854 -10.175 -4.23 -19.474 -8.604 -20.665 -9.719 -5.114 -4.79 -3.36 -10.879 4.337 -15.05 11.364 -6.165 108.46 -45.3 114.29 -46.07 c 2.455 -0.322 6.505 -0.198 9 0.275 2.495 0.473 29.736 11.232 60.54 23.909 58.56 24.1 60.5 25.09 60.5 30.967 0 4.66 -4.509 7.469 -27.363 17.05 -12.02 5.04 -24.15 10.324 -26.949 11.741 l -5.086 2.577 l 2.949 1.56 c 1.622 0.858 13.749 6.171 26.949 11.806 13.2 5.636 25.24 11.354 26.75 12.707 3.452 3.089 3.656 7.587 0.5 11.04 -1.398 1.531 -11.786 6.51 -27.439 13.151 -13.854 5.878 -25.982 11.267 -26.951 11.976 -1.58 1.156 -1.148 1.594 4.189 4.246 3.273 1.627 15.401 6.956 26.951 11.842 11.55 4.887 22.01 9.888 23.25 11.11 2.693 2.667 2.985 7.825 0.633 11.182 -1.911 2.728 2.381 0.838 -63.38 27.914 -50.34 20.726 -52.808 21.628 -60 21.925 -4.507 0.186 -8.897 -0.214 -11 -1 z" style="fill:#47a9e0"/><path d="m 119.08 245.78 c -1.925 -0.722 -27.528 -11.18 -56.895 -23.24 -35.13 -14.426 -54.37 -22.841 -56.25 -24.595 -6.23 -5.819 -2.645 -13.13 8.725 -17.792 13.931 -5.713 43.774 -19.03 44.68 -19.932 1.286 -1.286 -5.569 -4.722 -30.25 -15.16 c -22.2 -9.389 -23.379 -10.05 -24.964 -13.872 -1.701 -4.106 -0.327 -7.898 3.832 -10.578 4.733 -3.049 57.3 -25.527 59.696 -25.527 c 1.014 0 13.338 4.838 27.386 10.75 l 25.542 10.75 l 8.5 -0.043 l 8.5 -0.043 l 25 -10.568 c 25.685 -10.857 30.09 -12.441 30.667 -11.02 0.36 0.889 27.64 13.12 45.19 20.258 12.488 5.081 16.643 8.267 16.643 12.762 0 5.399 -3.243 7.437 -29.689 18.658 -13.854 5.878 -25.982 11.267 -26.951 11.976 -1.58 1.156 -1.148 1.594 4.189 4.246 3.273 1.627 15.401 6.956 26.951 11.842 11.55 4.887 22.01 9.888 23.25 11.11 2.693 2.667 2.985 7.825 0.633 11.182 -1.911 2.728 2.381 0.838 -63.38 27.914 -50.34 20.726 -52.808 21.628 -60 21.925 -4.507 0.186 -8.897 -0.214 -11 -1 z m -10.5 -166.7 c 2.076 -1.65 3.376 -3.01 2.888 -3.02 -0.488 -0.008 -0.225 -0.434 0.584 -0.946 1.231 -0.778 1.149 -1.034 -0.5 -1.558 -1.085 -0.345 -2.753 -1.044 -3.708 -1.554 -0.955 -0.51 -2.322 -0.927 -3.039 -0.927 -0.716 0 -2.929 -0.829 -4.917 -1.843 -9.342 -4.763 -40.15 -9.307 -74.8 -11.03 l -12.493 -0.623 l 9.493 -4.409 c 11.51 -5.347 27.831 -12.29 67.993 -28.928 l 30.5 -12.635 l 8.5 0.059 l 8.5 0.059 l 38 16.07 c 41.88 17.712 58.996 25.07 64.904 27.908 l 3.904 1.874 l -10.404 0.67 c -37.763 2.43 -66.12 6.513 -72.4 10.425 -1.1 0.685 -5.697 2.248 -10.216 3.473 l -8.216 2.228 l 3.216 2.836 c 1.769 1.56 3.666 2.85 4.216 2.868 0.55 0.017 0.325 0.468 -0.5 1 -0.85 0.549 -10.984 0.976 -23.388 0.985 l -21.888 0.015 l 3.775 -3 z" style="fill:#98c946"/><path d="m 123.08 245.41 c -2.145 -0.445 -24.11 -9.354 -99 -40.15 -7.975 -3.279 -15.737 -7.084 -17.25 -8.455 -4.579 -4.15 -3.425 -10.262 2.53 -13.398 1.771 -0.933 14.695 -6.526 28.72 -12.429 14.02 -5.903 25.5 -11.11 25.5 -11.564 0 -1.258 -8.86 -5.446 -32.422 -15.322 -11.747 -4.924 -22.19 -9.71 -23.22 -10.636 -2.354 -2.13 -2.433 -7.657 -0.143 -9.947 1.952 -1.952 9.567 -5.526 37.13 -17.428 10.642 -4.595 19.578 -8.949 19.857 -9.676 0.279 -0.727 1.453 -1.322 2.608 -1.322 1.156 0 13.595 4.838 27.643 10.75 l 25.542 10.75 l 8.5 -0.043 l 8.5 -0.043 l 25 -10.568 c 28.05 -11.855 30.755 -12.768 30.3 -10.212 -0.238 1.343 5.545 4.26 27.699 13.966 15.4 6.748 29.05 13.196 30.33 14.33 1.905 1.685 2.205 2.655 1.645 5.315 -0.377 1.79 -0.996 3.589 -1.374 3.998 -0.379 0.409 -11.919 5.515 -25.645 11.345 -13.726 5.831 -26.418 11.239 -28.21 12.02 -1.787 0.78 -3.25 1.976 -3.25 2.658 0 0.682 12.475 6.413 27.721 12.737 15.247 6.323 28.822 12.438 30.17 13.588 3.282 2.807 3.295 7.722 0.029 10.827 -1.329 1.264 -8.267 4.666 -15.417 7.56 -7.15 2.895 -32.509 13.32 -56.35 23.17 -44.13 18.225 -49.18 19.831 -57.15 18.18 z m -51.98 -89.85 c 0.696 -0.838 1.088 -1.659 0.872 -1.824 -0.216 -0.165 -1.968 -1.362 -3.893 -2.661 -1.925 -1.299 -4.628 -3.669 -6.01 -5.266 -2.455 -2.845 -5.371 -3.854 -15.493 -5.363 -2.2 -0.328 -4.463 -1.168 -5.03 -1.868 -0.566 -0.699 -3.266 -1.523 -6 -1.83 -9.157 -1.029 -17.941 -2.493 -21.404 -3.566 -6.618 -2.051 -1.432 0.704 13.433 7.136 24.787 10.725 39.32 16.632 41.13 16.714 0.62 0.028 1.697 -0.634 2.393 -1.473 z m 133.85 -4.528 c 21.476 -8.886 43.04 -18.369 42.651 -18.756 -0.186 -0.186 -2.067 0.191 -4.182 0.838 -5.119 1.566 -12.648 2.996 -19.16 3.638 -3.248 0.32 -5.528 1.071 -5.857 1.928 -0.296 0.772 -1.728 1.42 -3.182 1.439 -4.51 0.061 -14.403 2.784 -17.09 4.702 -2.485 1.777 -7.429 4.084 -13.557 6.325 l -3 1.097 l 3 2.415 c 1.65 1.328 3.618 2.417 4.374 2.42 0.756 0.003 7.956 -2.719 16 -6.05 z m -96.37 -71.948 c 2.076 -1.65 3.376 -3.01 2.888 -3.02 -0.488 -0.008 -0.225 -0.434 0.584 -0.946 1.231 -0.778 1.149 -1.034 -0.5 -1.558 -1.085 -0.345 -2.753 -1.044 -3.708 -1.554 -0.955 -0.51 -2.322 -0.927 -3.039 -0.927 -0.716 0 -2.929 -0.829 -4.917 -1.843 -9.342 -4.763 -40.15 -9.307 -74.8 -11.03 l -12.493 -0.623 l 9.493 -4.409 c 11.51 -5.347 27.831 -12.29 67.993 -28.928 l 30.5 -12.635 l 8.5 0.059 l 8.5 0.059 l 38 16.07 c 41.88 17.712 58.996 25.07 64.904 27.908 l 3.904 1.874 l -10.404 0.67 c -37.763 2.43 -66.12 6.513 -72.4 10.425 -1.1 0.685 -5.697 2.248 -10.216 3.473 l -8.216 2.228 l 3.216 2.836 c 1.769 1.56 3.666 2.85 4.216 2.868 0.55 0.017 0.325 0.468 -0.5 1 -0.85 0.549 -10.984 0.976 -23.388 0.985 l -21.888 0.015 l 3.775 -3 z" style="fill:#3697d5"/><path d="m 123.08 245.41 c -2.145 -0.445 -24.11 -9.354 -99 -40.15 -7.975 -3.279 -15.737 -7.084 -17.25 -8.455 -4.579 -4.15 -3.425 -10.262 2.53 -13.398 1.771 -0.933 14.695 -6.526 28.72 -12.429 14.02 -5.903 25.5 -11.11 25.5 -11.564 0 -1.258 -8.86 -5.446 -32.422 -15.322 -11.747 -4.924 -22.19 -9.71 -23.22 -10.636 -2.362 -2.137 -2.431 -7.66 -0.124 -9.966 1.955 -1.955 8.6 -5.077 35.26 -16.572 10.175 -4.386 19.476 -8.605 20.669 -9.375 1.984 -1.281 4.453 -0.451 29 9.747 l 26.831 11.146 l 9.5 -0.014 l 9.5 -0.014 l 26.5 -11.08 c 15.14 -6.33 26.929 -10.722 27.5 -10.248 0.55 0.456 13.375 6.237 28.5 12.848 15.13 6.611 28.549 12.947 29.83 14.08 1.905 1.687 2.205 2.657 1.645 5.317 -0.377 1.79 -0.996 3.589 -1.374 3.998 -0.379 0.409 -11.919 5.515 -25.645 11.345 -13.726 5.831 -26.418 11.239 -28.21 12.02 -1.787 0.78 -3.25 1.976 -3.25 2.658 0 0.682 12.475 6.413 27.721 12.737 15.247 6.323 28.822 12.438 30.17 13.588 3.282 2.807 3.295 7.722 0.029 10.827 -1.329 1.264 -8.267 4.666 -15.417 7.56 -7.15 2.895 -32.509 13.32 -56.35 23.17 -44.13 18.225 -49.18 19.831 -57.15 18.18 z m -51.98 -89.85 c 0.696 -0.838 1.088 -1.659 0.872 -1.824 -0.216 -0.165 -1.968 -1.362 -3.893 -2.661 -1.925 -1.299 -4.628 -3.669 -6.01 -5.266 -2.455 -2.845 -5.371 -3.854 -15.493 -5.363 -2.2 -0.328 -4.463 -1.168 -5.03 -1.868 -0.566 -0.699 -3.266 -1.523 -6 -1.83 -9.157 -1.029 -17.941 -2.493 -21.404 -3.566 -6.618 -2.051 -1.432 0.704 13.433 7.136 24.787 10.725 39.32 16.632 41.13 16.714 0.62 0.028 1.697 -0.634 2.393 -1.473 z m 133.85 -4.528 c 21.476 -8.886 43.04 -18.369 42.651 -18.756 -0.186 -0.186 -2.067 0.191 -4.182 0.838 -5.119 1.566 -12.648 2.996 -19.16 3.638 -3.248 0.32 -5.528 1.071 -5.857 1.928 -0.296 0.772 -1.728 1.42 -3.182 1.439 -4.51 0.061 -14.403 2.784 -17.09 4.702 -2.485 1.777 -7.429 4.084 -13.557 6.325 l -3 1.097 l 3 2.415 c 1.65 1.328 3.618 2.417 4.374 2.42 0.756 0.003 7.956 -2.719 16 -6.05 z" style="fill:#97c637"/><path d="m 123.08 245.41 c -2.145 -0.445 -24.11 -9.354 -99 -40.15 -7.975 -3.279 -15.737 -7.084 -17.25 -8.455 -4.579 -4.15 -3.425 -10.262 2.53 -13.398 1.771 -0.933 14.695 -6.526 28.72 -12.429 14.02 -5.903 25.5 -11.11 25.5 -11.564 0 -1.258 -8.86 -5.446 -32.422 -15.322 -11.747 -4.924 -22.19 -9.71 -23.22 -10.636 -2.868 -2.596 -2.2 -3.679 0.89 -1.444 2.663 1.927 35.956 16.313 53.25 23.01 4.675 1.81 19.75 8.03 33.5 13.83 24.492 10.324 25.16 10.54 33 10.622 7.992 0.083 8.03 0.073 34.5 -10.977 14.575 -6.083 31.45 -13.03 37.5 -15.446 6.05 -2.412 20.11 -8.283 31.25 -13.05 11.137 -4.765 20.25 -8.265 20.25 -7.779 0 1.124 -3.143 2.573 -33 15.215 -13.486 5.71 -24.623 10.996 -24.773 11.758 -0.187 0.95 8.435 4.995 27.471 12.885 15.259 6.325 28.845 12.441 30.19 13.592 3.282 2.807 3.295 7.722 0.029 10.827 -1.329 1.264 -8.267 4.666 -15.417 7.56 -7.15 2.895 -32.509 13.32 -56.35 23.17 -44.13 18.225 -49.18 19.831 -57.15 18.18 z m -2.5 -97.95 c -3.3 -0.853 -10.725 -1.641 -16.5 -1.751 -10.03 -0.19 -16.14 -1.438 -20.5 -4.189 -1.1 -0.693 -4.925 -2.168 -8.5 -3.276 -3.575 -1.108 -8.75 -3.113 -11.5 -4.454 -8 -3.905 -18.517 -6.04 -40 -8.139 -2.75 -0.268 -7.475 -0.851 -10.5 -1.294 -5.395 -0.791 -5.452 -0.834 -3 -2.244 4.658 -2.678 14.44 -7.18 33 -15.187 10.175 -4.39 19.476 -8.611 20.669 -9.381 1.984 -1.281 4.453 -0.451 29 9.747 l 26.831 11.146 l 9.5 -0.014 l 9.5 -0.014 l 26.5 -11.08 c 15.15 -6.333 26.928 -10.722 27.5 -10.248 0.55 0.456 12.03 5.645 25.5 11.532 13.475 5.887 26.3 11.651 28.5 12.809 l 4 2.105 l -5.5 0.797 c -3.03 0.438 -9.352 1.203 -14.06 1.699 -16.55 1.744 -30.14 4.798 -35.551 7.992 -1.839 1.085 -6.243 2.868 -9.787 3.963 -3.544 1.095 -9.646 3.353 -13.558 5.02 -8.568 3.646 -10.546 3.96 -18.273 2.903 -4.291 -0.587 -7.573 -0.409 -11.625 0.63 -9.179 2.353 -15.15 2.61 -21.646 0.929 z" style="fill:#88b632"/><path d="m 123.13 245.35 c -1.352 -0.253 -23.852 -9.256 -50 -20.01 -26.15 -10.75 -51.14 -21.01 -55.54 -22.793 -9.419 -3.823 -13.5 -7.124 -13.5 -10.917 c 0 -6.381 0.732 -6.821 35 -21.06 12.925 -5.372 24 -10.379 24.61 -11.126 0.611 -0.748 1.78 -1.359 2.598 -1.359 0.818 0 13.594 5.05 28.39 11.224 36.18 15.09 32.395 15.1 68.57 -0.055 14.665 -6.143 27.22 -11.169 27.89 -11.169 0.674 0 1.726 0.624 2.337 1.387 0.611 0.763 13.7 6.615 29.09 13 15.387 6.389 28.849 12.49 29.917 13.557 2.573 2.573 2.502 7.601 -0.146 10.249 -2.378 2.378 -107.85 46.29 -116.25 48.39 -5.518 1.384 -8.387 1.535 -12.959 0.678 z m 0.459 -99.89 c -14.46 -3.647 -52.994 -19.742 -62.5 -26.11 c -3.02 -2.025 -5.656 -3.784 -5.847 -3.908 -0.191 -0.124 0.439 -1.557 1.4 -3.184 2.024 -3.427 1.373 -6.181 -1.462 -6.181 -4.01 0 -2.844 -1.75 3.02 -4.555 3.317 -1.585 6.358 -3.467 6.758 -4.182 0.548 -0.979 7.378 1.463 27.677 9.895 l 26.95 11.195 l 9.5 -0.014 l 9.5 -0.014 l 26.5 -11.09 c 14.575 -6.097 26.643 -10.691 26.818 -10.208 0.175 0.483 3.738 2.586 7.918 4.673 5.235 2.615 6.968 3.889 5.569 4.097 -1.117 0.166 -2.515 1.364 -3.106 2.662 -0.592 1.298 -2.704 4.627 -4.693 7.396 -3.252 4.526 -4.952 5.682 -16.811 11.425 -28.558 13.829 -48.759 20.22 -57.19 18.09 z" style="fill:#d94c1a"/><path d="m 120.58 181.75 c -2.2 -0.727 -15.09 -5.9 -28.64 -11.496 -13.552 -5.596 -25.364 -10.174 -26.25 -10.174 -0.886 0 -1.61 -0.45 -1.61 -1 0 -2.155 4.662 -0.597 30.598 10.224 36.18 15.09 32.395 15.1 68.57 -0.055 26.08 -10.923 29.837 -12.205 29.837 -10.169 0 0.55 -0.577 1 -1.283 1 -0.706 0 -13.38 4.974 -28.17 11.05 -29.01 11.929 -34.777 13.35 -43.05 10.617 z m 3 -36.29 c -14.46 -3.647 -52.994 -19.742 -62.5 -26.11 c -3.02 -2.025 -5.656 -3.784 -5.847 -3.908 -0.191 -0.124 0.439 -1.557 1.4 -3.184 2.024 -3.427 1.373 -6.181 -1.462 -6.181 -4.01 0 -2.844 -1.75 3.02 -4.555 3.317 -1.585 6.358 -3.467 6.758 -4.182 0.548 -0.979 7.378 1.463 27.677 9.895 l 26.95 11.195 l 9.5 -0.014 l 9.5 -0.014 l 26.5 -11.09 c 14.575 -6.097 26.643 -10.691 26.818 -10.208 0.175 0.483 3.738 2.586 7.918 4.673 5.235 2.615 6.968 3.889 5.569 4.097 -1.117 0.166 -2.515 1.364 -3.106 2.662 -0.592 1.298 -2.704 4.627 -4.693 7.396 -3.252 4.526 -4.952 5.682 -16.811 11.425 -28.558 13.829 -48.759 20.22 -57.19 18.09 z" style="fill:#73a127"/></g></svg>