<svg xmlns="http://www.w3.org/2000/svg" viewBox="0 0 256 256"><g transform="translate(0 -796.36)" style="color:#000"><path d="m 2.967 952.88 c 15.875 104.05 156.87 131.89 219.1 57.62 54.798 -55.17 41.16 -160.78 -26.05 -196.99 -77.21 -48.44 -189.69 11.446 -195.83 107.88 c -0.632 10.565 0.26 21.245 2.771 31.493 z" style="fill:#5151a6"/><rect width="172.47" height="175.73" x="41.22" y="839.75" rx="9.353" style="fill:#fff;opacity:0.99"/><path d="m 81.15 986.77 c -5 -2.535 -10.251 -8.895 -10.251 -12.417 0 -1.267 -0.457 -2.583 -1.016 -2.924 -1.289 -0.788 -1.397 -91.28 -0.113 -93.76 0.497 -0.96 1.754 -3.48 2.794 -5.599 2.164 -4.41 8.823 -9.719 12.192 -9.719 1.254 0 2.563 -0.452 2.908 -1.01 0.796 -1.275 92.26 -1.383 94.77 -0.111 0.97 0.492 3.522 1.736 5.671 2.765 2.149 1.029 5.349 3.662 7.113 5.85 l 3.206 3.98 l 0.299 49.607 l 0.299 49.607 l -2.305 4.566 c -1.268 2.511 -4.127 5.994 -6.353 7.739 l -4.049 3.174 l -50.34 0.261 l -50.34 0.261 z m 77.76 -9.06 c -0.722 -2.35 -4.154 -12.294 -7.627 -22.1 l -6.314 -17.826 l 2.595 -4.38 c 1.427 -2.409 2.595 -5.591 2.595 -7.07 0 -3.173 1.634 -4.301 17.782 -12.277 6.148 -3.037 11.863 -5.961 12.702 -6.5 0.838 -0.538 3.749 -2.359 6.468 -4.045 2.719 -1.686 4.738 -3.27 4.486 -3.519 -0.252 -0.249 -2.705 0.222 -5.452 1.046 -2.747 0.824 -7.348 2.191 -8.304 2.197 -2.298 0.014 -2.758 -7.387 -1.871 -12.06 0.578 -3.046 1.598 -4.074 7.331 -7.386 7.466 -4.312 6.748 -5.368 -1.695 -2.494 -7.661 2.608 -11.503 1.156 -15.483 -5.849 -4.711 -8.291 -6.236 -7.609 -3.132 1.402 2.619 7.605 1.016 11.281 -6.765 15.513 -3.408 1.854 -5.942 3.623 -5.63 3.931 0.312 0.308 3.313 -0.262 6.67 -1.268 8.157 -2.444 12.175 -1.347 16.433 4.04 1.357 1.715 2.944 3.267 2.944 3.946 0 0.681 -8.152 4.181 -15.594 6.745 l -13.497 4.651 l -4.418 -2.581 c -2.43 -1.42 -5.993 -2.84 -7.919 -3.156 -3.373 -0.553 -3.89 -1.292 -14.06 -20.06 -5.805 -10.717 -10.8 -19.727 -11.1 -20.02 -2.057 -2.036 -0.693 3.102 5.753 21.663 l 7.349 21.16 l -2.758 5.394 c -1.517 2.967 -2.758 6.35 -2.758 7.518 0 2.952 -0.918 3.566 -21.644 14.488 -27.13 14.298 -25.884 14.792 7.593 3 l 17.956 -6.323 l 3.098 2.183 c 1.704 1.201 5.03 2.51 7.402 2.91 3.328 0.562 4.685 1.406 5.987 3.723 0.926 1.648 5.926 10.8 11.11 20.338 5.185 9.538 9.798 17.342 10.252 17.342 0.454 0 0.235 -1.923 -0.487 -4.273 z" transform="matrix(1.48269 0 0 1.49134 -71.23 -451.36)" style="fill:#5151a6"/></g></svg>