<svg xmlns="http://www.w3.org/2000/svg" viewBox="0 0 256 256"><path d="M 46.350125,228.11 C 199.90013,346.74 359.30013,51.31 169.20013,8.11 49.480125,-36.16 -67.439875,140.2 46.350125,228.11 z" style="fill:#b0c4de;color:#000"/><g transform="matrix(0.72883738 0 0 0.58011443 28.744816 56.501423)"><path d="m 154.99633,252.8304 c -1.925,-0.53098 -6.2,-1.65109 -9.5,-2.48912 -9.44837,-2.39941 -17.68673,-5.68883 -18.84387,-7.524 -0.80268,-1.273 -0.51816,-2.85569 1.16847,-6.5 1.22623,-2.64951 2.55483,-7.48015 2.95245,-10.73478 0.39959,-3.27075 1.28181,-6.10341 1.97242,-6.33316 1.28632,-0.42791 1.64064,0.23598 2.70132,5.06146 0.54116,2.462 1.01688,2.77223 3.83352,2.5 3.02975,-0.29283 3.21569,-0.54075 3.21569,-4.28766 0,-2.98883 0.43478,-4.06294 1.75,-4.32332 2.46606,-0.48823 2.2441,2.78315 -0.76673,11.30018 -1.36101,3.85 -2.47652,7.51246 -2.47891,8.13881 -0.002,0.62634 4.04176,3.06162 8.98702,5.41173 9.64144,4.58185 12.59888,6.9689 11.66129,9.41221 -0.65809,1.71495 -1.58294,1.76606 -6.65267,0.36765 z m -48.46474,-33.05236 c -4.03628,-2.66501 -5.74029,-4.77412 -9.111831,-11.27804 -5.356266,-10.33258 -7.260846,-11.40401 -15.316266,-8.61627 -6.851134,2.37098 -22.02219,4.74659 -24.424764,3.82464 -0.919024,-0.35267 -2.541008,-2.11882 -3.60441,-3.92479 C 50.590246,193.8666 45.788918,188 44.430427,188 c -0.732773,0 -2.590156,1.6875 -4.127518,3.75 -3.857242,5.17482 -4.037684,5.25527 -10.883082,4.85206 -7.437887,-0.43811 -11.076845,-2.58236 -21.3728015,-12.5939 -7.0979795,-6.9019 -7.3573707,-7.31147 -5.4999999,-8.68425 1.1513922,-0.85099 2.9726329,-1.1984 4.4493039,-0.84871 1.375,0.32562 5.1999995,0.937 8.5000005,1.35864 6.161315,0.78722 10.5,2.51372 10.5,4.17829 0,0.51797 1.183113,1.71697 2.629142,2.66444 2.546365,1.66845 2.688046,1.64994 4.5,-0.58773 1.028971,-1.27072 1.870858,-3.3263 1.870858,-4.56795 0,-1.88138 -0.673055,-2.34783 -4.03922,-2.79932 -2.22157,-0.29798 -4.69657,-1.08733 -5.5,-1.75412 -2.271678,-1.88532 -1.756182,-5.54388 1.039219,-7.37549 2.042232,-1.33812 2.5,-2.44702 2.5,-6.056 0,-2.42986 0.55086,-4.75838 1.224134,-5.17448 0.673274,-0.41611 3.485774,-0.78017 6.25,-0.80902 4.286144,-0.0447 5.025867,-0.33747 5.025867,-1.98889 0,-1.34664 -0.993286,-2.19382 -3.261193,-2.78149 -1.793658,-0.46479 -3.814403,-1.73089 -4.490547,-2.81357 C 33.068444,144.88583 32.139495,144 31.680255,144 c -1.748239,0 -14.835687,-8.23191 -15.391908,-9.6814 -1.400223,-3.64892 7.146608,-4.43702 15.801433,-1.45705 8.206517,2.82561 21.572348,9.82515 22.279291,11.66741 1.048795,2.73312 0.719335,4.82886 -1.372741,8.73222 -3.445937,6.42938 -2.96796,7.11842 4.456947,6.42507 3.765672,-0.35164 9.436154,-1.87073 13.604708,-3.6446 C 74.989254,154.36874 79.447942,153 80.966181,153 c 3.286421,0 7.635884,3.17097 8.6086,6.27609 0.383168,1.22315 1.52908,3.28987 2.54647,4.5927 1.017391,1.30284 3.433233,5.66088 5.368538,9.68455 3.724451,7.74345 5.558561,9.13778 9.865771,7.50018 3.41318,-1.29769 5.55466,-0.40502 6.79592,2.83286 0.90407,2.35832 0.59322,2.96706 -3.18228,6.2319 -3.73682,3.2314 -4.0594,3.85151 -3.0169,5.79946 1.80391,3.37062 0.9686,7.61964 -1.45597,7.40618 -1.86576,-0.16425 -1.88254,-0.0897 -0.25,1.11025 0.9625,0.70747 1.75,1.92392 1.75,2.70321 0,2.26166 5.88012,8.1226 7.51844,7.49392 0.80146,-0.30755 3.65502,-0.85073 6.34125,-1.20707 5.29242,-0.70207 7.64534,0.75478 4.69881,2.90934 -0.90298,0.66027 -2.19667,2.31783 -2.87487,3.68346 -1.05671,2.12781 -2.01626,2.52274 -6.70836,2.76101 -4.76222,0.24183 -6.12183,-0.14886 -10.44001,-3 z M 73.849947,191.34782 c 4.75551,-1.4587 9.164033,-3.05158 9.796716,-3.53973 0.833648,-0.64321 0.339922,-2.50932 -1.793424,-6.77853 -1.619066,-3.24003 -3.510954,-7.83466 -4.204198,-10.21027 -1.179643,-4.04241 -1.481347,-4.31372 -4.706576,-4.23239 -3.640787,0.0918 -15.23759,2.99775 -18.196135,4.55961 -2.365176,1.24862 -2.205853,4.13125 0.356409,6.4485 2.311745,2.09069 5.893591,8.55879 5.893591,10.64265 0,1.41819 2.759466,5.76234 3.66032,5.76234 0.300803,0 4.437786,-1.19348 9.193297,-2.65218 z m 58.146383,19.17523 c 0,-0.81232 1.14811,-2.22921 2.55135,-3.14865 3.02063,-1.9792 5.00971,-0.7175 3.9806,2.52494 -0.80437,2.53435 -6.53195,3.08125 -6.53195,0.62371 z m 28,-1.40502 c 0,-1.1 0.45,-2.27811 1,-2.61803 0.55,-0.33992 1,0.28197 1,1.38197 0,1.1 -0.45,2.27811 -1,2.61803 -0.55,0.33992 -1,-0.28197 -1,-1.38197 z m -13,-2.67705 c 0,-0.85746 0.45,-1.2809 1,-0.94098 0.55,0.33992 1,1.04148 1,1.55902 0,0.51754 -0.45,0.94098 -1,0.94098 -0.55,0 -1,-0.70156 -1,-1.55902 z m -19.46092,-15.93269 c -3.34782,-2.73597 -2.7992,-4.40347 0.89499,-2.72028 2.86988,1.3076 5.41174,5.23369 3.35111,5.17603 -0.70685,-0.0198 -2.61759,-1.12487 -4.2461,-2.45575 z M 119.49633,178 c -0.36852,-0.59628 0.84262,-1 3,-1 2.15738,0 3.36852,0.40372 3,1 -0.33992,0.55 -1.68992,1 -3,1 -1.31008,0 -2.66008,-0.45 -3,-1 z m 2.1875,-20.64583 c -1.18087,-1.18087 -0.75215,-5.05563 0.69199,-6.25415 0.75871,-0.62968 1.64866,-2.37228 1.97766,-3.87245 0.329,-1.50016 1.49823,-3.85257 2.59828,-5.22757 l 2.0001,-2.5 0.0222,2.31574 c 0.0242,2.52272 -1.67,6.28928 -3.30836,7.35508 -0.56715,0.36894 -1.06228,2.35429 -1.10029,4.41187 -0.0656,3.55012 -1.38114,5.27194 -2.88161,3.77148 z m 9.3125,-21.23614 c 0,-0.55 0.45,-1.27811 1,-1.61803 0.55,-0.33992 1,-0.16803 1,0.38197 0,0.55 -0.45,1.27811 -1,1.61803 -0.55,0.33992 -1,0.16803 -1,-0.38197 z M 233.40132,116.8942 c -2.66661,-2.94771 -2.61656,-16.6706 0.0813,-22.277911 1.82471,-3.79261 1.82471,-3.91575 2e-5,-5.25 -1.02774,-0.75146 -2.59655,-1.36629 -3.48631,-1.36629 -0.88976,0 -2.49125,-0.66069 -3.55887,-1.4682 -3.01507,-2.28048 -5.77586,-1.81599 -10.54733,1.77454 -11.91367,8.96505 -15.87627,9.67841 -23.53079,4.23607 -2.67465,-1.90167 -6.32551,-4.23502 -8.11301,-5.18521 -3.03283,-1.61218 -3.48032,-1.61779 -6.6969,-0.0839 -2.78952,1.33023 -3.56265,2.36681 -4.05379,5.43521 -0.33379,2.08533 -1.03595,4.4665 -1.56036,5.2915 -0.52441,0.825 -1.44827,2.625001 -2.05303,4.000001 -2.12432,4.82991 -2.61429,5.50276 -4.24019,5.82276 -1.01055,0.1989 -2.01251,-0.65727 -2.6108,-2.2309 -1.0167,-2.67412 -3.40264,-2.68196 -4.42623,-0.0145 -0.59268,1.54452 -4.6087,1.99655 -4.6087,0.51875 0,-0.88399 4.51974,-9.123671 8.82924,-16.096071 4.05108,-6.5543 2.73155,-8.25973 -7.32924,-9.47267 -3.3,-0.39785 -7.22921,-1.44638 -8.73159,-2.33008 -2.63722,-1.55121 -2.83586,-1.50682 -5.75,1.28511 -2.18291,2.09132 -3.01841,3.82001 -3.01841,6.24518 0,1.84437 -0.85518,4.57268 -1.9004,6.06291 -2.42617,3.45913 -3.64402,11.087841 -1.86546,11.685441 0.69622,0.23393 3.17836,0.91489 5.51586,1.51324 2.77776,0.71105 4.25,1.64265 4.25,2.68928 0,1.34578 -0.8379,1.49999 -5.25,0.96623 -2.8875,-0.34931 -6.4875,-0.91473 -8,-1.25648 -2.14086,-0.48372 -2.75,-0.25548 -2.75,1.03041 0,1.32317 -0.38479,1.44582 -1.93426,0.61657 -1.06384,-0.56935 -3.2441,-1.03518 -4.84501,-1.03518 -1.60092,0 -3.6555,-0.82293 -4.56574,-1.82874 -1.78751,-1.97517 -2.23617,-6.694041 -0.72525,-7.627841 2.09624,-1.29555 7.07026,-13.04642 7.07026,-16.70314 0,-6.66463 -2.18359,-7.84028 -14.5621,-7.84028 -11.083668,0 -19.827232,-1.89492 -22.170954,-4.80493 -2.983794,-3.704727 3.302135,-5.283433 12.547104,-3.151193 2.37273,0.547241 4.69874,0.757234 5.16892,0.466651 1.19725,-0.739944 -1.70121,-6.329194 -5.49648,-10.599141 -1.754324,-1.973738 -4.492256,-5.905839 -6.084293,-8.738003 -1.788383,-3.181454 -3.887878,-5.495644 -5.493635,-6.055414 -2.701627,-0.941792 -8.372843,-0.189518 -13.223663,1.754089 -6.295641,2.522511 -18.18724,0.297242 -15.111777,-2.82786 1.238221,-1.258207 23.369433,-8.901077 28.105579,-9.706079 5.034708,-0.855749 10.295196,1.37034 11.866048,5.021372 0.74316,1.72728 3.459121,5.795454 6.035481,9.040387 5.26579,6.632292 10.36446,15.640645 11.3249,20.008876 0.35174,1.599814 1.86792,3.825875 3.36928,4.946795 2.68902,2.00765 2.80563,2.01076 7.81821,0.20826 5.942,-2.136715 12.95384,-1.741357 22.40738,1.26342 7.77879,2.47247 18.75292,3.64296 21.31239,2.27318 1.07288,-0.57419 2.79721,-2.74418 3.83185,-4.82219 1.03463,-2.078022 3.57624,-6.55897 5.648,-9.957665 3.30113,-5.415435 4.35048,-6.363346 8.4873,-7.666847 2.59626,-0.81807 6.3761,-1.764234 8.39967,-2.102586 2.96722,-0.496138 4.39007,-1.604655 7.35262,-5.728309 5.87767,-8.18129 6.12404,-9.752114 2.5399,-16.193897 -3.73343,-6.710095 -3.77242,-7.642747 -0.48284,-11.55219 2.52457,-3.000281 2.80446,-3.076725 11.26481,-3.076725 6.7654,0 9.49765,0.44042 12.40748,2 2.05237,1.1 4.87266,2 6.26731,2 3.12705,0 9.47151,2.563187 9.47151,3.826529 0,3.357637 -13.96298,5.156277 -20.9343,2.696651 -2.41954,-0.853664 -5.29901,-1.266518 -6.39882,-0.917453 -1.92727,0.611693 -1.91219,0.701898 0.41674,2.492233 1.32901,1.021662 2.90284,1.867574 3.4974,1.879804 0.59456,0.01223 1.69308,1.165872 2.44114,2.56365 1.61129,3.010712 0.9389,4.400508 -7.62064,15.751477 -2.98911,3.96391 -5.31172,7.865949 -5.16135,8.671198 0.15119,0.809683 2.05824,1.840729 4.26661,2.30674 2.19627,0.463459 5.00487,1.050478 6.24132,1.304488 1.23646,0.25401 3.42149,2.234941 4.85563,4.402069 2.40494,3.634112 2.55386,4.474573 1.91682,10.817943 l -0.6907,6.8777 7.33508,2.74383 c 4.03429,1.50911 9.69673,3.49518 12.58319,4.41349 3.69365,1.1751 5.24868,2.18799 5.25,3.41965 0.001,0.9625 -0.63859,1.75 -1.42139,1.75 -0.78281,0 -2.73097,1.10035 -4.32927,2.44523 -2.32364,1.95522 -3.16929,3.84071 -4.21994,9.408911 -0.72267,3.83003 -1.02287,8.4191 -0.6671,10.19794 0.37869,1.89347 0.18002,3.79672 -0.47923,4.59108 -1.74912,2.10755 -7.28813,1.66977 -9.4762,-0.74896 z M 169.99633,94.931909 c 0,-1.06255 -0.64948,-1.93191 -1.4433,-1.93191 -1.79342,0 -4.5567,3.81475 -4.5567,6.2906 0,1.729541 0.18864,1.711271 3,-0.2906 1.65,-1.1749 3,-3.00555 3,-4.06809 z m 35.64065,-11.18191 c 2.89168,-3.27067 5.67777,-10.25554 5.57217,-13.9697 C 211.10772,66.212842 208.85679,64 205.32937,64 c -1.25659,0 -3.75808,-0.898318 -5.55887,-1.996262 -3.7405,-2.280583 -7.06004,-2.572885 -8.55986,-0.753738 -0.56682,0.6875 -2.62924,4.375193 -4.58316,8.194869 -3.95813,7.73767 -3.82616,8.39857 2.29092,11.47295 1.96786,0.98903 4.92793,2.53435 6.57793,3.43405 4.16235,2.2696 7.7924,2.05415 10.14065,-0.60187 z m -58.39065,32.441171 c -1.2375,-0.18165 -2.25,-0.9187 -2.25,-1.63788 0,-0.94829 1.17616,-1.17505 4.28016,-0.82518 2.68317,0.30243 5.71367,-0.11652 8.12213,-1.12284 2.11308,-0.8829 4.462,-1.60527 5.21983,-1.60527 1.7198,0 1.80193,2.4145 0.12788,3.75915 -1.30667,1.04955 -11.61653,2.00206 -15.5,1.43202 z" style="fill:#c964ca"/><path d="m 154.99633,252.8304 c -1.925,-0.53098 -6.2,-1.65109 -9.5,-2.48912 -9.44837,-2.39941 -17.68673,-5.68883 -18.84387,-7.524 -0.80268,-1.273 -0.51816,-2.85569 1.16847,-6.5 1.22623,-2.64951 2.55483,-7.48015 2.95245,-10.73478 0.39959,-3.27075 1.28181,-6.10341 1.97242,-6.33316 1.28632,-0.42791 1.64064,0.23598 2.70132,5.06146 0.54116,2.462 1.01688,2.77223 3.83352,2.5 3.02975,-0.29283 3.21569,-0.54075 3.21569,-4.28766 0,-2.98883 0.43478,-4.06294 1.75,-4.32332 2.46606,-0.48823 2.2441,2.78315 -0.76673,11.30018 -1.36101,3.85 -2.47652,7.51246 -2.47891,8.13881 -0.002,0.62634 4.04176,3.06162 8.98702,5.41173 9.64144,4.58185 12.59888,6.9689 11.66129,9.41221 -0.65809,1.71495 -1.58294,1.76606 -6.65267,0.36765 z m -48.46474,-33.05236 c -4.03628,-2.66501 -5.74029,-4.77412 -9.111831,-11.27804 -5.356266,-10.33258 -7.260846,-11.40401 -15.316266,-8.61627 -6.851134,2.37098 -22.02219,4.74659 -24.424764,3.82464 -0.919024,-0.35267 -2.541008,-2.11882 -3.60441,-3.92479 C 50.590246,193.8666 45.788918,188 44.430427,188 c -0.732773,0 -2.590156,1.6875 -4.127518,3.75 -3.857242,5.17482 -4.037684,5.25527 -10.883082,4.85206 -7.437887,-0.43811 -11.076845,-2.58236 -21.3728015,-12.5939 -7.0979795,-6.9019 -7.3573707,-7.31147 -5.4999999,-8.68425 1.1513922,-0.85099 2.9726329,-1.1984 4.4493039,-0.84871 1.375,0.32562 5.1999995,0.937 8.5000005,1.35864 6.161315,0.78722 10.5,2.51372 10.5,4.17829 0,0.51797 1.183113,1.71697 2.629142,2.66444 2.546365,1.66845 2.688046,1.64994 4.5,-0.58773 1.028971,-1.27072 1.870858,-3.3263 1.870858,-4.56795 0,-1.88138 -0.673055,-2.34783 -4.03922,-2.79932 -2.22157,-0.29798 -4.69657,-1.08733 -5.5,-1.75412 -2.271678,-1.88532 -1.756182,-5.54388 1.039219,-7.37549 2.042232,-1.33812 2.5,-2.44702 2.5,-6.056 0,-2.42986 0.55086,-4.75838 1.224134,-5.17448 0.673274,-0.41611 3.485774,-0.78017 6.25,-0.80902 4.286144,-0.0447 5.025867,-0.33747 5.025867,-1.98889 0,-1.34664 -0.993286,-2.19382 -3.261193,-2.78149 -1.793658,-0.46479 -3.814403,-1.73089 -4.490547,-2.81357 C 33.068444,144.88583 32.139495,144 31.680255,144 c -1.748239,0 -14.835687,-8.23191 -15.391908,-9.6814 -1.400223,-3.64892 7.146608,-4.43702 15.801433,-1.45705 8.206517,2.82561 21.572348,9.82515 22.279291,11.66741 1.048795,2.73312 0.719335,4.82886 -1.372741,8.73222 -3.445937,6.42938 -2.96796,7.11842 4.456947,6.42507 3.765672,-0.35164 9.436154,-1.87073 13.604708,-3.6446 C 74.989254,154.36874 79.447942,153 80.966181,153 c 3.286421,0 7.635884,3.17097 8.6086,6.27609 0.383168,1.22315 1.52908,3.28987 2.54647,4.5927 1.017391,1.30284 3.433233,5.66088 5.368538,9.68455 3.724451,7.74345 5.558561,9.13778 9.865771,7.50018 3.41318,-1.29769 5.55466,-0.40502 6.79592,2.83286 0.90407,2.35832 0.59322,2.96706 -3.18228,6.2319 -3.73682,3.2314 -4.0594,3.85151 -3.0169,5.79946 1.80391,3.37062 0.9686,7.61964 -1.45597,7.40618 -1.86576,-0.16425 -1.88254,-0.0897 -0.25,1.11025 0.9625,0.70747 1.75,1.92392 1.75,2.70321 0,2.26166 5.88012,8.1226 7.51844,7.49392 0.80146,-0.30755 3.65502,-0.85073 6.34125,-1.20707 5.29242,-0.70207 7.64534,0.75478 4.69881,2.90934 -0.90298,0.66027 -2.19667,2.31783 -2.87487,3.68346 -1.05671,2.12781 -2.01626,2.52274 -6.70836,2.76101 -4.76222,0.24183 -6.12183,-0.14886 -10.44001,-3 z M 73.849947,191.34782 c 4.75551,-1.4587 9.164033,-3.05158 9.796716,-3.53973 0.833648,-0.64321 0.339922,-2.50932 -1.793424,-6.77853 -1.619066,-3.24003 -3.510954,-7.83466 -4.204198,-10.21027 -1.179643,-4.04241 -1.481347,-4.31372 -4.706576,-4.23239 -3.640787,0.0918 -15.23759,2.99775 -18.196135,4.55961 -2.365176,1.24862 -2.205853,4.13125 0.356409,6.4485 2.311745,2.09069 5.893591,8.55879 5.893591,10.64265 0,1.41819 2.759466,5.76234 3.66032,5.76234 0.300803,0 4.437786,-1.19348 9.193297,-2.65218 z m 58.146383,19.17523 c 0,-0.81232 1.14811,-2.22921 2.55135,-3.14865 3.02063,-1.9792 5.00971,-0.7175 3.9806,2.52494 -0.80437,2.53435 -6.53195,3.08125 -6.53195,0.62371 z m 28,-1.40502 c 0,-1.1 0.45,-2.27811 1,-2.61803 0.55,-0.33992 1,0.28197 1,1.38197 0,1.1 -0.45,2.27811 -1,2.61803 -0.55,0.33992 -1,-0.28197 -1,-1.38197 z m -13,-2.67705 c 0,-0.85746 0.45,-1.2809 1,-0.94098 0.55,0.33992 1,1.04148 1,1.55902 0,0.51754 -0.45,0.94098 -1,0.94098 -0.55,0 -1,-0.70156 -1,-1.55902 z m -19.46092,-15.93269 c -3.34782,-2.73597 -2.7992,-4.40347 0.89499,-2.72028 2.86988,1.3076 5.41174,5.23369 3.35111,5.17603 -0.70685,-0.0198 -2.61759,-1.12487 -4.2461,-2.45575 z M 119.49633,178 c -0.36852,-0.59628 0.84262,-1 3,-1 2.15738,0 3.36852,0.40372 3,1 -0.33992,0.55 -1.68992,1 -3,1 -1.31008,0 -2.66008,-0.45 -3,-1 z" style="fill:#1f77b6"/></g><g style="fill:#ffd700;fill-rule:evenodd"><path d="m 144.27119,188.74576 -30.24563,-41.11395 50.72854,-5.6365 z"/><path d="m 154.0339,182.23728 -48.00903,-0.48536 24.42485,-41.33436 z" transform="matrix(0.89702914 0 0 1.3746232 23.15195 -75.081059)"/></g></svg>