<svg xmlns="http://www.w3.org/2000/svg" viewBox="0 0 256 256" xmlns:xlink="http://www.w3.org/1999/xlink"><g style="fill:#add8e6"><path d="m 232.07 1001.41 c 75.07 -93.1 -40.957 -226.49 -148.29 -202.13 -115.57 27.07 -106.03 194.65 -5.404 236.01 50.08 28.811 126.76 23.449 153.69 -33.886 z" transform="matrix(0.98972399 0 0 0.9922965 1.9728297 -789.56803)" style="color:#000"/></g><g style="fill-rule:evenodd;stroke-width:0.443589"><g style="fill:#00f;stroke:#00f"><path d="m 113.95252 178.78806 v -2.13927 h -2.13348 h -2.13351 v -8.16808 v -8.1681 h 2.13351 h 2.13348 v -1.94479 v -1.94478 h 2.1335 h 2.13349 v -2.13927 v -2.13924 h 4.07302 h 4.07303 v -2.13927 v -2.13927 h 1.93953 h 1.93954 v -1.94478 v -1.94479 h 2.13348 h 2.1335 v -2.13925 v -2.13927 h 2.13349 h 2.13348 v -2.13927 v -2.13925 h 1.93955 h 1.93953 v -1.94479 v -1.94478 h 2.1335 h 2.13349 v -6.41779 v -6.41779 h -2.13349 h -2.1335 v -8.16808 v -8.16811 h -1.93953 h -1.93955 v -2.13925 v -2.139266 h -2.13348 h -2.13349 v -1.944781 v -1.944784 h 6.01257 h 6.01255 v 2.139262 v 2.139255 h 4.26699 h 4.26698 v 1.944784 v 1.94478 h 1.93953 h 1.93954 v 4.27854 v 4.27852 h 2.13348 h 2.1335 v 10.11288 v 10.11288 h -2.1335 h -2.13348 v 4.08404 v 4.08405 h -1.93954 h -1.93953 v 2.13925 v 2.13927 h -2.1335 h -2.13348 v 2.13927 v 2.13925 h -2.13349 h -2.1335 v 1.94479 v 1.94478 h -1.93953 h -1.93954 v 2.13926 v 2.13927 h -2.13348 h -2.1335 v 2.13926 v 2.13926 h -1.93952 h -1.93955 v 1.94478 v 1.94479 h -2.1335 h -2.13348 v 2.13926 v 2.13927 h 2.13348 h 2.1335 v -1.94478 v -1.94479 h 2.13349 h 2.13348 v -2.13926 v -2.13927 h 8.14607 h 8.14605 v 2.13927 v 2.13926 h 1.93953 h 1.93954 v 1.94479 v 1.94478 h 2.32745 h 2.32743 v -1.94478 v -1.94479 h 1.93954 h 1.93953 v -2.13926 v -2.13927 h 6.20653 h 6.20652 v 2.13927 v 2.13926 h 4.07302 h 4.07303 v -2.13926 v -2.13927 h 2.13349 h 2.13348 v -1.94479 v -1.94478 h 1.93954 h 1.93953 v 6.02884 v 6.02883 h -2.13347 h -2.13349 v 2.13925 v 2.13926 h -10.27956 h -10.27954 v 1.94479 v 1.94478 h -1.93953 h -1.93955 v 2.13927 v 2.13927 h -14.35256 h -14.35258 v -2.13927 v -2.13927 h -2.13348 h -2.13349 v 2.13927 v 2.13927 h -10.27955 h -10.27954 v -2.13927 z"/><path d="m 97.272495 182.87211 v -1.94478 h 6.206515 h 6.20652 v 1.94478 v 1.94479 h -6.20652 h -6.206515 v -1.94479 z"/><path d="m 93.393422 170.61996 v -2.13925 h 6.012561 h 6.012577 v 2.13925 v 2.13926 h -6.012577 h -6.012561 v -2.13926 z"/><path d="m 97.272495 158.36782 v -1.94478 h 6.206515 h 6.20652 v 1.94478 v 1.94479 h -6.20652 h -6.206515 v -1.94479 z"/><path d="m 109.68553 149.81078 v -1.94479 h 4.07304 h 4.07302 v 1.94479 v 1.94478 h -4.07302 h -4.07304 v -1.94478 z"/><path d="m 122.09857 141.64269 v -1.94479 h 4.07303 h 4.07303 v 1.94479 v 1.94478 h -4.07303 h -4.07303 v -1.94478 z"/><path d="m 134.51161 133.47459 v -1.94478 h 1.93955 h 1.93952 v 1.94478 v 1.94479 h -1.93952 h -1.93955 v -1.94479 z"/><path d="m 134.51161 125.11202 v -2.13926 h 4.07303 h 4.07302 v 2.13926 v 2.13927 h -4.07302 h -4.07303 v -2.13927 z"/><path d="m 113.95252 187.15063 v -1.94478 h 1.93954 h 1.93953 v 1.94478 v 1.94478 h -1.93953 h -1.93954 v -1.94478 z"/><path d="m 126.36556 116.74944 v -1.94477 h 1.93953 h 1.93954 v 1.94477 v 1.94479 h -1.93954 h -1.93953 v -1.94479 z"/><path d="m 118.21951 123.16723 v -4.08404 h 1.93953 h 1.93953 v 4.08404 v 4.08406 h -1.93953 h -1.93953 v -4.08406 z"/><path d="m 109.68553 129.19607 v -1.94478 h 1.93954 h 1.93954 v 1.94478 v 1.94479 h -1.93954 h -1.93954 v -1.94479 z"/><path d="m 101.53948 133.47459 v -1.94478 h 1.93953 h 1.93955 v 1.94478 v 1.94479 h -1.93955 h -1.93953 v -1.94479 z"/><path d="m 93.393422 137.36416 v -1.94478 h 1.939541 h 1.939532 v 1.94478 v 1.94479 h -1.939532 h -1.939541 v -1.94479 z"/><path d="m 80.980392 116.74944 v -1.94477 h -4.073027 h -4.073026 v -6.22331 v -6.22332 h 1.939536 h 1.939536 v -1.94478 v -1.944784 h 4.266981 h 4.266981 v -2.139255 v -2.139262 h 8.146049 h 8.146058 v -2.139263 v -2.139262 h 1.93953 h 1.93955 v 2.139262 v 2.139263 h 6.40048 h 6.40047 v -2.139263 v -2.139262 h 1.93953 h 1.93953 v -8.362572 v -8.36257 h -1.93953 h -1.93953 v -1.944784 v -1.944784 h -4.26699 h -4.26699 v -1.944784 v -1.944783 h 6.20653 h 6.20651 v 1.944783 v 1.944784 h 1.93954 h 1.93953 v 10.307355 v 10.307355 h 2.13349 h 2.1335 v 6.223309 v 6.223297 h -2.1335 h -2.13349 v 1.94479 v 1.94478 h -1.93953 h -1.93954 v -1.94478 v -1.94479 h -2.13348 h -2.1335 v 4.08406 v 4.08405 h -1.93953 h -1.93954 v -2.13927 v -2.13927 h -2.13348 h -2.13351 v 4.27854 v 4.27852 h -1.93955 h -1.93953 v -2.13927 v -2.13925 h -2.13349 h -2.13348 v 4.08404 v 4.08404 h -2.133497 h -2.133488 v -1.94479 v -1.94477 h -2.133484 h -2.133494 v 1.94477 v 1.94479 h -1.939531 h -1.939539 v -1.94479 v -1.94477 h -2.133491 h -2.13349 v 1.94477 v 1.94479 h -1.939537 h -1.939537 v -1.94479 z m 0 -8.16808 v -2.33375 h -2.13349 h -2.133491 v 2.33375 v 2.33374 h 2.133491 h 2.13349 v -2.33374 z m 12.41303 0 v -2.33375 h -2.133483 h -2.133492 v 2.33375 v 2.33374 h 2.133492 h 2.133483 v -2.33374 z"/><path d="m 80.980392 125.11202 v -2.13926 h 1.939537 h 1.939537 v 2.13926 v 2.13927 h -1.939537 h -1.939537 v -2.13927 z"/><path d="m 89.126447 125.11202 v -2.13926 h 1.939539 h 1.939531 v 2.13926 v 2.13927 h -1.939531 h -1.939539 v -2.13927 z"/><path d="m 97.272495 125.11202 v -2.13926 h 2.133488 h 2.133497 v 2.13926 v 2.13927 h -2.133497 h -2.133488 v -2.13927 z"/></g><g style="fill:#f00;stroke:#f00"><path d="m 76.713411 151.95003 v -4.08404 h -1.939536 h -1.939536 v -1.94478 v -1.94479 h 1.939536 h 1.939536 v -2.13925 v -2.13927 h 2.133491 h 2.13349 v -2.13927 v -2.13925 h 2.13349 h 2.133491 v -1.94479 v -1.94478 h 1.939537 h 1.939537 v -1.89149 v -1.89149 l 3.684376 -0.27119 c 2.026409 -0.14915 3.859277 -0.1628 4.073026 -0.0303 0.213759 0.13247 0.388646 1.01816 0.388646 1.96821 v 1.72735 h -2.133484 h -2.133494 v 2.13926 v 2.13926 h -1.939531 h -1.939539 v 1.94478 v 1.94479 h -2.133491 h -2.13349 v 2.13925 v 2.13927 h -2.133491 h -2.13349 v 6.22332 v 6.2233 h -1.939537 h -1.939537 v -4.08405 z"/><path d="m 68.567359 149.81078 v -1.94479 h 1.939535 h 1.939537 v 1.94479 v 1.94478 h -1.939537 h -1.939535 v -1.94478 z"/></g><g style="fill:#000;stroke:#000"><path d="m 109.68553 81.743342 v -3.889568 h 4.07304 h 4.07302 v 3.889568 v 3.889568 h -4.07302 h -4.07304 v -3.889568 z"/><path d="m 97.272495 81.743342 v -3.889568 h 2.133488 h 2.133497 v 3.889568 v 3.889568 h -2.133497 h -2.133488 v -3.889568 z"/></g></g><path d="m 85.247373 91.856218 v -1.944784 h 1.939537 h 1.939537 v -10.307355 v -10.307355 h 2.133492 h 2.133483 v -1.944784 v -1.944783 h 1.939541 h 1.939532 v 1.944783 v 1.944784 h 4.266985 h 4.26697 v -1.944784 v -1.944783 h 1.74559 h 1.74559 v 2.139262 v 2.139262 h 4.26698 h 4.26698 v 1.750306 v 1.750305 h -6.20652 h -6.20651 v 2.139263 v 2.139262 h -1.93955 h -1.93953 v -2.139262 v -2.139263 h -4.266985 h -4.266978 v 8.36257 v 8.362572 h 4.073026 h 4.073027 v 1.944784 v 1.944784 h -7.952101 h -7.952096 v -1.944784 z" id="0" style="fill:#000;stroke:#000;fill-rule:evenodd;stroke-width:0.443589"/><g style="fill:#000;stroke:#000;fill-rule:evenodd;stroke-width:0.443589"><path d="m 76.713411 96.134743 v -1.944784 h 4.073027 h 4.073028 v 1.944784 v 1.944781 h -4.073028 h -4.073027 v -1.944781 z"/><path d="m 72.834339 100.21879 v -1.750314 h 1.745583 h 1.745582 v 1.750314 v 1.7503 h -1.745582 h -1.745583 v -1.7503 z"/><path d="m 68.567359 112.6654 v -10.30736 h 1.939535 h 1.939537 v 10.30736 v 10.30736 h -1.939537 h -1.939535 v -10.30736 z"/><path d="m 77.101318 108.58136 v -1.94478 h 1.745584 h 1.745583 v 1.94478 v 1.94479 h -1.745583 h -1.745584 v -1.94479 z"/><path d="m 89.514353 108.58136 v -1.94478 h 1.745586 h 1.745578 v 1.94478 v 1.94479 h -1.745578 h -1.745586 v -1.94479 z"/><path d="m 72.834339 125.11202 v -2.13926 h 1.939536 h 1.939536 v 2.13926 v 2.13927 h -1.939536 h -1.939536 v -2.13927 z"/><path d="m 76.713411,133.34786 0,-5.96109 6.012564,0.0133 6.012564,0.0133 0,1.86384 0,1.86383 -1.939537,0 -1.939536,0 0,1.94478 0,1.94478 -2.133491,0 -2.13349,0 0,2.13926 0,2.13927 -1.939537,0 -1.939537,0 0,-5.96109 z"/><path d="m 95.623897,135.13194 -2.230475,-0.14035 0,-1.73088 0,-1.7309 2.133494,0 2.133491,0 0,-1.94479 0,-1.94478 2.133484,0 2.133489,0 0,-2.33374 0,-2.33374 1.93953,0 1.93954,0 0,-1.94478 0,-1.94479 4.07303,0 4.07304,0 0,-2.13926 0,-2.13926 2.1335,0 2.13349,0 0,-1.94478 0,-1.94479 3.87906,0 3.87907,0 0,1.94479 0,1.94478 -1.93953,0 -1.93954,0 0,1.94477 0,1.94479 -2.13348,0 -2.1335,0 0,2.13927 0,2.13926 -2.13348,0 -2.1335,0 0,1.94479 0,1.94478 -2.13349,0 -2.13349,0 0,2.13926 0,2.13927 -4.07303,0 -4.07303,0 0,2.13925 0,2.13927 -1.648605,-0.0735 c -0.906723,-0.0404 -2.652316,-0.13669 -3.879068,-0.21389 z"/><path d="m 80.980392 145.92121 v -1.94479 h 10.279547 h 10.279541 v 1.94479 v 1.94478 h -10.279541 h -10.279547 v -1.94478 z"/><path d="m 101.53948 141.64269 v -1.94479 h 4.07302 h 4.07303 v 1.94479 v 1.94478 h -4.07303 h -4.07302 v -1.94478 z"/><path d="m 109.68553 137.36416 v -1.94478 h 4.07304 h 4.07302 v 1.94478 v 1.94479 h -4.07302 h -4.07304 v -1.94479 z"/><path d="m 118.21951 133.47459 v -1.94478 h 1.93953 h 1.93953 v 1.94478 v 1.94479 h -1.93953 h -1.93953 v -1.94479 z"/><path d="m 122.1743,129.29331 0.11823,-1.84754 1.84256,-0.11856 1.84255,-0.11855 0,1.9661 0,1.9661 -1.96078,0 -1.96079,0 0.11823,-1.84755 z"/><path d="m 130.24463,131.33534 0,-4.08405 -1.93954,0 -1.93953,0 0,-2.13927 0,-2.13926 1.93953,0 1.93954,0 0,-1.94478 0,-1.94479 2.05939,0 2.05938,0 -0.0689,6.12607 c -0.0379,3.36934 -0.0918,7.04498 -0.11984,8.1681 l -0.0511,2.04202 -1.93955,0 -1.93953,0 0,-4.08404 z"/><path d="m 138.77858 108.77583 v -6.02882 h 1.7456 h 1.74557 v 6.02882 v 6.02884 h -1.74557 h -1.7456 v -6.02884 z"/><path d="m 134.51161 100.41326 v -1.944784 h 1.93955 h 1.93952 v 1.944784 v 1.94478 h -1.93952 h -1.93955 v -1.94478 z"/></g><path d="m 130.63254 93.801002 v -4.278525 h -2.1335 h -2.13348 v -10.112876 v -10.112877 h 1.93953 h 1.93954 v 8.362571 v 8.362572 h 2.13348 h 2.1335 v 1.944783 v 1.944784 h 6.01257 h 6.01255 v 1.944784 v 1.944784 h -6.20652 h -6.2065 v 2.139263 v 2.139259 h -1.7456 h -1.74557 v -4.278522 z" id="1" style="fill:#000;stroke:#000;fill-rule:evenodd;stroke-width:0.443589"/><g style="fill:#000;stroke:#000;fill-rule:evenodd;stroke-width:0.443589"><path d="m 122.48649 67.157462 v -1.750305 h 1.74557 h 1.74558 v 1.750305 v 1.750305 h -1.74558 h -1.74557 v -1.750305 z"/><path d="m 109.68553 63.073416 v -1.944784 h 6.20653 h 6.20651 v 1.944784 v 1.944784 h -6.20651 h -6.20653 v -1.944784 z"/></g><use xlink:href="#0"/><g style="fill:#000;stroke:#000;fill-rule:evenodd;stroke-width:0.443589"><path d="m 97.272495 63.073416 v -1.944784 h 4.073025 h 4.07304 v 1.944784 v 1.944784 h -4.07304 h -4.073025 v -1.944784 z"/><path d="m 85.247373,91.856218 0,-1.944784 1.939537,0 1.939537,0 0,-10.307355 0,-10.307355 2.133492,0 2.133483,0 0,-1.944784 0,-1.944783 1.939541,0 1.939532,0 0,1.957943 0,1.957943 4.169995,-0.110399 4.17001,-0.110398 0.11824,-1.847545 0.11823,-1.847544 1.70406,0 1.70404,0 0.11726,2.042022 0.11725,2.042024 4.17002,0.110398 4.16999,0.110399 0,1.727269 0,1.72727 -6.10953,0.107116 -6.10956,0.107115 -0.11725,2.042023 -0.11725,2.042024 -1.91926,0 -1.91926,0 0,-2.152422 0,-2.15242 -4.170004,0.110398 -4.170007,0.110397 0,8.168092 0,8.168093 3.976055,0.110847 3.976046,0.110846 0,1.931177 0,1.931177 -7.952101,0 -7.952096,0 0,-1.944784 z"/><path d="m 85.247373,91.877529 0,-1.923472 1.84256,-0.118551 1.842559,-0.118551 0.103378,-10.190012 0.103379,-10.190011 2.030111,-0.117343 2.030109,-0.117343 0.118232,-1.847545 0.118232,-1.847544 1.89703,0 1.897032,0 0.118232,1.844046 c 0.140873,2.197245 0.250773,2.239859 4.796993,1.860136 l 3.1947,-0.266837 0.25703,-1.718672 0.25704,-1.718673 1.68542,0 1.68541,0 0.26067,1.900394 0.26066,1.900394 4.04273,0.276297 4.04271,0.276297 0,1.712878 0,1.712875 -2.81232,0.0023 c -1.54678,0.0012 -4.23949,0.113739 -5.98378,0.249902 l -3.17144,0.247569 -0.25915,1.88936 -0.25915,1.889361 -1.90314,0 -1.90313,0 0,-1.921828 c 0,-1.057007 -0.18319,-2.03536 -0.40711,-2.174119 -0.22392,-0.138758 -2.056772,-0.128274 -4.073025,0.02329 l -3.665923,0.27559 0,7.873182 0,7.873182 2.036512,0.245275 c 1.120089,0.134902 2.865665,0.246797 3.879067,0.248657 l 1.842569,0.0034 0,1.944784 0,1.944784 -7.952101,0 -7.952096,0 0,-1.923473 z"/><path d="m 85.247373,92.109801 0,-2.09594 1.583665,-0.212989 c 0.871016,-0.117143 1.644369,-0.273855 1.718561,-0.348249 0.0742,-0.07439 0.260022,-4.620044 0.412954,-10.101446 l 0.27806,-9.966186 1.707657,-0.192998 c 0.939221,-0.106151 1.800999,-0.286586 1.915075,-0.400968 0.114066,-0.114383 0.302986,-0.922546 0.419816,-1.795919 l 0.212418,-1.587949 1.864687,0 1.864698,0 0.258517,1.728614 c 0.299639,2.003501 0.375318,2.031878 4.907899,1.840276 l 2.98538,-0.1262 0.11787,-1.624106 0.11787,-1.624106 1.93954,0 1.93954,0 0.11824,1.847544 0.11822,1.847545 3.5669,0.006 c 1.96178,0.0033 3.79641,0.151896 4.07693,0.330268 0.32961,0.209575 0.46684,0.929898 0.38791,2.036066 l -0.12214,1.711758 -5.91558,0.107369 -5.91561,0.10737 0,1.513886 c 0,2.46309 -0.2428,2.744378 -2.36894,2.744378 l -1.89803,0 0,-1.524016 c 0,-2.730015 -0.0384,-2.754509 -4.308485,-2.754509 l -3.837573,0 0,7.973614 0,7.973614 1.688686,0 c 0.928775,0 2.769857,0.113313 4.091315,0.251805 l 2.402627,0.251804 -0.11526,1.984697 -0.11527,1.984698 -8.049069,0.105129 -8.049078,0.105131 0,-2.095939 z"/><path d="m 101.53948 87.772172 v -1.750305 h 1.93953 h 1.93955 v 1.750305 v 1.750305 h -1.93955 h -1.93953 v -1.750305 z"/><path d="m 105.80645 91.856218 v -1.944784 h 6.01259 h 6.01255 v 1.944784 v 1.944784 h -6.01255 h -6.01259 v -1.944784 z"/><path d="m 118.21951 87.772172 v -1.750305 h 1.74558 h 1.74557 v 1.750305 v 1.750305 h -1.74557 h -1.74558 v -1.750305 z"/><path d="m 118.21951 75.520033 v -1.944784 h 1.74558 h 1.74557 v 1.944784 v 1.944784 h -1.74557 h -1.74558 v -1.944784 z"/><path d="m 146.92465 96.134743 v -1.944784 h 4.07302 h 4.07303 v 1.944784 v 1.944781 h -4.07303 h -4.07302 v -1.944781 z"/></g><use xlink:href="#1"/><g style="fill-rule:evenodd"><g style="fill:#000;stroke:#000"><g style="stroke-width:0.443589"><path d="m 159.33768 106.4421 v -4.08406 h 1.93954 h 1.93953 v 4.08406 v 4.08405 h -1.93953 h -1.93954 v -4.08405 z"/><path d="m 163.60465 121.02798 v -10.11288 h 1.93954 h 1.93953 v 10.11288 v 10.11288 h -1.93953 h -1.93954 v -10.11288 z"/><path d="m 159.33768 135.41938 v -3.88957 h 1.93954 h 1.93953 v 3.88957 v 3.88957 h -1.93953 h -1.93954 v -3.88957 z"/><path d="m 155.45861 141.64269 v -1.94479 h 1.74557 h 1.74559 v 1.94479 v 1.94478 h -1.74559 h -1.74557 v -1.94478 z"/><path d="m 196.57678 162.25739 v -6.2233 h -2.13349 h -2.1335 v -1.94479 v -1.94477 h 2.1335 h 2.13349 v -2.13927 v -2.13927 h 1.93953 h 1.93954 v 10.30736 v 10.30736 h -1.93954 h -1.93953 v -6.22332 z"/><path d="m 188.04282 158.17335 v -1.75031 h 1.93954 h 1.93954 v 1.75031 v 1.75031 h -1.93954 h -1.93954 v -1.75031 z"/><path d="m 180.28467 162.25739 v -1.94478 h 3.68512 h 3.68513 v 1.94478 v 1.94479 h -3.68513 h -3.68512 v -1.94479 z"/></g><g style="stroke-width:0.38600025"><path d="m 167.57111 158.20024 v -1.86154 h 6.07585 h 6.07586 v 1.86154 v 1.86153 h -6.07586 h -6.07585 v -1.86153 z"/><path d="m 163.52054 162.26176 v -1.86153 h 1.85652 h 1.85651 v 1.86153 v 1.86154 h -1.85651 h -1.85652 v -1.86154 z"/><path d="m 159.46997 166.32329 v -1.86153 h 1.85651 h 1.85651 v 1.86153 v 1.86154 h -1.85651 h -1.85651 v -1.86154 z"/><path d="m 155.4194 162.26176 v -1.86153 h 1.85651 h 1.85651 v 1.86153 v 1.86154 h -1.85651 h -1.85651 v -1.86154 z"/><path d="m 138.87958 158.20024 v -1.86154 h 2.02529 h 2.02528 v -2.03076 v -2.03077 h 1.85651 h 1.85651 v 2.03077 v 2.03076 h 4.21934 h 4.21935 v 1.86154 v 1.86153 h -8.10114 h -8.10114 v -1.86153 z"/><path d="m 134.82901 162.43099 v -1.6923 h 1.85651 h 1.85651 v 1.6923 v 1.69231 h -1.85651 h -1.85651 v -1.69231 z"/><path d="m 130.77844 166.32329 v -1.86153 h 1.68774 h 1.68774 v 1.86153 v 1.86154 h -1.68774 h -1.68774 v -1.86154 z"/><path d="m 146.98072 150.07718 v -1.86153 h 1.85651 h 1.85651 v 1.86153 v 1.86154 h -1.85651 h -1.85651 v -1.86154 z"/><path d="m 151.03128 145.84642 v -2.03076 h 2.02529 h 2.02529 v 2.03076 v 2.03077 h -2.02529 h -2.02529 v -2.03077 z"/><path d="m 159.13242 135.35415 v -4.06153 h 2.02529 h 2.02528 v 4.06153 v 4.06152 h -2.02528 h -2.02529 v -4.06152 z"/><path d="m 138.54203 187.13862 v -2.03076 h 10.2952 h 10.29519 v 2.03076 v 2.03077 h -10.29519 h -10.2952 v -2.03077 z"/><path d="m 159.13242 183.24632 v -1.86153 h 4.05057 h 4.05058 v 1.86153 v 1.86154 h -4.05058 h -4.05057 v -1.86154 z"/><path d="m 167.90865 178.84634 v -1.86154 h 1.85652 h 1.85651 v 1.86154 v 1.86153 h -1.85651 h -1.85652 v -1.86153 z"/><path d="m 179.72282 178.84634 v -1.86154 h 4.05056 h 4.05057 v 1.86154 v 1.86153 h -4.05057 h -4.05056 v -1.86153 z"/><path d="m 188.1615 174.95403 v -1.69229 h 2.02529 h 2.02528 v 1.69229 v 1.69231 h -2.02528 h -2.02529 v -1.69231 z"/><path d="m 196.52341,162.34638 -0.092,-6.1769 -2.10966,-0.10079 -2.10968,-0.1008 0,-2.0146 0,-2.01462 2.02528,0 2.02529,0 0,-2.03076 0,-2.03076 2.19406,0 2.19406,0 0,10.32305 0,10.32304 -2.01767,0 -2.01767,0 -0.092,-6.1769 0,0 z"/><path d="m 192.21207 170.72328 v -1.86153 h 2.02528 h 2.02529 v 1.86153 v 1.86153 h -2.02529 h -2.02528 v -1.86153 z"/><path d="m 101.41181,191.19292 0,-2.038 10.2952,0.0918 10.29519,0.0919 1e-5,1.94614 0,1.94615 -10.2952,0 -10.2952,0 0,-2.03799 z"/><path d="m 130.4409,183.24632 0,-1.86153 1.2658,-0.002 c 0.69619,-0.001 2.51894,-0.0999 4.05057,-0.2194 l 2.78476,-0.21736 0,2.08092 0,2.08094 -4.05057,0 -4.05056,0 0,-1.86154 z"/><path d="m 97.361238 187.13862 v -2.03076 h 2.025279 h 2.025293 v 2.03076 v 2.03077 h -2.025293 h -2.025279 v -2.03077 z"/><path d="m 93.310669 183.07709 v -2.03076 h 1.856511 h 1.856511 v 2.03076 v 2.03077 h -1.856511 h -1.856511 v -2.03077 z"/><path d="m 89.260103 172.58481 v -8.12305 h 1.856508 h 1.856511 v 8.12305 v 8.12306 h -1.856511 h -1.856508 v -8.12306 z"/><path d="m 93.310669,160.40023 0,-4.06153 1.856511,0 1.856511,0 0.002,1.26923 c 0.001,0.69807 0.0996,2.52577 0.218802,4.06152 l 0.216779,2.79231 -2.075312,0 -2.075322,0 0,-4.06153 z"/><path d="m 97.361238 153.96948 v -2.03076 h 4.050572 h 4.05056 v 2.03076 v 2.03076 h -4.05056 h -4.050572 v -2.03076 z"/><path d="m 105.79993 149.90795 v -2.03076 h 1.68772 h 1.68774 v 2.03076 v 2.03077 h -1.68774 h -1.68772 v -2.03077 z"/><path d="m 113.90107 145.67719 v -1.86153 h 2.02528 h 2.02528 v 1.86153 v 1.86154 h -2.02528 h -2.02528 v -1.86154 z"/><path d="m 117.95163 141.61566 v -1.86153 h 1.85652 h 1.85651 v 1.86153 v 1.86154 h -1.85651 h -1.85652 v -1.86154 z"/><path d="m 130.10334 131.29262 v -4.06153 h -1.85651 h -1.85651 v -2.2 v -2.19999 h 1.85651 h 1.85651 v -1.86154 v -1.86153 h 2.19407 h 2.19405 v 5.02491 c 0 2.76371 -0.0987 6.41908 -0.21931 8.12306 l -0.21932 3.09815 h -1.97474 h -1.97475 v -4.06153 z"/><path d="m 126.39032 137.55414 v -1.86154 h 1.85651 h 1.85651 v 1.86154 v 1.86153 h -1.85651 h -1.85651 v -1.86153 z"/><path d="m 130.10334 131.29262 v -4.06153 h -1.85651 h -1.85651 v -2.2 v -2.19999 h 1.85651 h 1.85651 v -1.86154 v -1.86153 h 2.19407 h 2.19405 v 6.04263 c 0 3.32346 -0.0975 6.97885 -0.21685 8.12306 l -0.21686 2.08043 h -1.9772 h -1.97721 v -4.06153 z"/><path d="m 122.06975,129.34646 0.10124,-1.94614 1.9409,-0.10152 1.9409,-0.10153 0,2.04765 0,2.04767 -2.04213,0 -2.04212,0 0.10123,-1.94616 z"/><path d="m 117.95163 133.32338 v -2.03076 h 2.0253 h 2.02528 v 2.03076 v 2.03077 h -2.02528 h -2.0253 v -2.03077 z"/><path d="m 109.51294 137.46952 v -1.94614 h 4.21936 h 4.21933 v 1.94614 v 1.94615 h -4.21933 h -4.21936 v -1.94615 z"/><path d="m 101.41181 141.61566 v -1.86153 h 4.21933 h 4.21935 v 1.86153 v 1.86154 h -4.21935 h -4.21933 v -1.86154 z"/><path d="m 80.821419 145.84642 v -2.03076 h 10.295192 h 10.295199 v -2.03077 v -2.03076 h 4.05056 h 4.05057 v -2.19999 v -2.19999 h 4.21936 h 4.21933 v 2.03076 v 2.03076 h -4.05056 h -4.05058 v 2.19999 v 2.2 h -4.05056 h -4.05058 v 2.03076 v 2.03077 h -10.463965 h -10.463966 v -2.03077 z"/></g></g><g style="fill:#0ff;stroke:#0ff;stroke-width:0.38600025"><path d="m 85.209535 141.61566 v -1.86153 h 2.194058 h 2.194058 v -2.03076 v -2.03077 h 1.687734 h 1.687737 v 2.03077 v 2.03076 h 2.362832 h 2.362836 v -2.03076 v -2.03077 h 4.05056 h 4.05058 v -2.03076 v -2.03077 h 4.05056 h 4.05058 v -4.06152 v -4.06153 h 2.02528 h 2.02528 v 2.03077 v 2.03076 h 1.85652 h 1.85651 v 1.6923 v 1.6923 h -2.02529 h -2.02528 v 2.03076 v 2.03077 h -4.21934 h -4.21936 v 2.2 v 2.19999 h -4.05056 h -4.05057 v 2.03077 v 2.03076 h -7.932365 h -7.93236 v -1.86154 z"/><path d="m 77.108397,124.69263 0,-2.19999 -2.194058,0 -2.194059,0 0,-3.72307 0,-3.72307 3.881795,0 3.881797,0 0,2.03077 0,2.03076 2.362831,0 2.362832,0 0,-2.03076 0,-2.03077 1.687736,0 1.687737,0 0,2.03077 0,2.03076 2.362829,0 2.362832,0 0,-2.03076 0,-2.03077 1.856511,0 1.856511,0 0,2.04559 0,2.04559 2.447217,-0.0995 2.447212,-0.0995 0.0951,-3.97692 0.095,-3.97691 1.67702,0 1.67703,0 0,2.03077 0,2.03076 2.36284,0 2.36282,0 0,-4.23075 0,-4.23076 1.68775,0 1.68774,0 0,2.2 0,2.19998 2.19406,0 2.19405,0 0,1.69231 0,1.6923 -2.19405,0 -2.19406,0 0,2.2 0,2.19999 -4.05058,0 -4.05057,0 0,1.86154 0,1.86153 -4.21934,0 -4.219342,0 0,2.19999 0,2.19999 -1.856511,0 -1.85651,0 0,-2.21545 0,-2.21547 -2.27844,0.10009 -2.278448,0.10008 -0.100495,2.11537 -0.100495,2.11538 -1.671631,0 -1.671631,0 0,-2.19999 0,-2.19999 -2.362832,0 -2.36283,0 0,2.19999 0,2.19999 -1.687738,0 -1.687737,0 0,-2.19999 z"/><path d="m 130.77844,116.56958 0,-2.2 -2.19405,0 -2.19407,0 0,-1.86153 0,-1.86153 -4.05057,0 -4.05056,0 0,-3.8923 0,-3.89229 1.68774,0 1.68773,0 0,1.86153 0,1.86153 2.36283,0 2.36283,0 0,-1.84539 0,-1.84538 2.10968,-0.10079 2.10967,-0.10079 0.10052,-2.11539 0.10053,-2.115369 1.67162,0 1.67164,0 0,2.199999 0,2.19999 2.19405,0 2.19406,0 0,5.92306 0,5.92306 -2.02528,0 -2.02529,0 0,2.03077 0,2.03076 -1.85651,0 -1.85651,0 0,-2.19999 z"/><path d="m 122.33975 120.96956 v -5.92306 h 1.85652 h 1.85651 v 2.03077 v 2.03076 h 1.85651 h 1.85651 v 1.69231 v 1.6923 h -1.85651 h -1.85651 v 2.19999 v 2.2 h -1.85651 h -1.85652 v -5.92307 z"/><path d="m 138.87958 133.15415 v -1.86153 h -2.02529 h -2.02528 v -1.86154 v -1.86153 h 4.05057 h 4.05057 v -2.53846 v -2.53845 h -4.05057 h -4.05057 v -1.6923 v -1.69231 h 1.85651 h 1.85651 v -2.03076 v -2.03077 h 1.85651 h 1.85651 v 2.03077 v 2.03076 h 2.19406 h 2.19406 v 6.09229 v 6.0923 h -2.19406 h -2.19406 v 1.86153 v 1.86153 h -1.68774 h -1.68773 v -1.86153 z"/><path d="m 130.77642 142.3772 c -0.001 -0.605 -0.0996 -2.35653 -0.2188 -3.8923 l -0.21678 -2.7923 h 4.1006 h 4.10059 v 1.86154 v 1.86153 h -2.19406 h -2.19405 v 2.03077 v 2.03076 h -1.68774 c -1.67866 0 -1.68775 -0.006 -1.68976 -1.1 z"/><path d="m 118.28919 147.70795 v -3.89229 h 5.7383 h 5.73831 v 1.86153 v 1.86154 h -1.85651 h -1.85651 v 2.03077 v 2.03075 h -3.8818 h -3.88179 v -3.8923 z"/><path d="m 110.18804 158.03101 v -2.03077 h -2.19406 h -2.19405 v -1.86153 v -1.86154 h 6.07585 h 6.07585 v 1.86154 v 1.86153 h -2.19405 h -2.19406 v 2.03077 v 2.03076 h -1.68774 h -1.68774 v -2.03076 z"/><path d="m 101.74935 186.96939 v -1.86153 h 4.21935 h 4.21934 v -2.2 v -2.19999 h -8.43869 h -8.438681 v -3.72307 v -3.72306 h 6.24462 h 6.244641 v -2.53846 v -2.53845 h -6.244641 h -6.24462 v -1.69231 v -1.6923 h 2.194058 h 2.194063 v -2.03076 v -2.03077 h 5.7383 h 5.7383 v 8.12306 v 8.12305 h 2.19407 h 2.19406 v 2.2 v 2.19999 h 8.26992 h 8.2699 v 1.86153 v 1.86154 h -4.05056 h -4.05057 v 1.86153 v 1.86154 h -1.85651 h -1.85651 v -2.03076 v -2.03077 h -2.36284 h -2.36283 v 2.03077 v 2.03076 h -5.90708 h -5.90709 v -1.86154 z"/><path d="m 134.82901 178.84634 v -1.86154 h 1.85651 h 1.85651 v 1.86154 v 1.86153 h -1.85651 h -1.85651 v -1.86153 z"/><path d="m 138.87958 183.07709 v -1.6923 h 9.95765 h 9.95765 v 1.6923 v 1.69231 h -9.95765 h -9.95765 v -1.69231 z"/><path d="m 179.72282 174.95403 v -1.69229 h 4.05056 h 4.05057 v 1.69229 v 1.69231 h -4.05057 h -4.05056 v -1.69231 z"/></g></g><path d="m 105.79993 81.538901 v -4.061528 h 1.68772 h 1.68774 v 4.061528 v 4.061528 h -1.68774 h -1.68772 v -4.061528 z" id="2" style="fill:#ff0;stroke:#ff0;fill-rule:evenodd;stroke-width:0.38600025"/><g style="fill:#ff0;stroke:#ff0;fill-rule:evenodd;stroke-width:0.38600025"><path d="m 109.85049 87.800423 v -1.861534 h 1.85652 h 1.85651 v 1.861534 v 1.861533 h -1.85651 h -1.85652 v -1.861533 z"/><path d="m 109.85049 75.61584 v -1.861534 h 1.85652 h 1.85651 v 1.861534 v 1.861533 h -1.85651 h -1.85652 v -1.861533 z"/><path d="m 113.90107 75.61584 v -1.861534 h 2.02528 h 2.02528 v 1.861534 v 1.861533 h -2.02528 h -2.02528 v -1.861533 z"/><path d="m 113.90107 87.800423 v -1.861534 h 2.02528 h 2.02528 v 1.861534 v 1.861533 h -2.02528 h -2.02528 v -1.861533 z"/><path d="m 118.28919 81.708131 v -3.892297 h 1.68774 h 1.68773 v 3.892297 v 3.892298 h -1.68773 h -1.68774 v -3.892298 z"/></g><use xlink:href="#2"/><g style="fill-rule:evenodd"><g style="stroke-width:0.38600025"><g style="fill:#ff0;stroke:#ff0"><path d="m 93.648217 81.538901 v -4.061528 h 1.687737 h 1.687737 v 4.061528 v 4.061528 h -1.687737 h -1.687737 v -4.061528 z"/><path d="m 98.795821,89.414133 -1.434583,-0.129559 0,-1.672843 0,-1.672842 1.856508,0 1.856514,0 0,1.861534 c 0,1.295123 -0.12838,1.843542 -0.42193,1.802402 -0.23207,-0.03253 -1.067492,-0.117434 -1.856509,-0.188692 z"/><path d="m 97.361238,75.767382 0,-1.709992 1.772127,0.1023 1.772115,0.102299 0.10291,1.607688 0.10289,1.607688 -1.875003,0 -1.875007,0 0,-1.709991 z"/></g><path d="m 171.28413 174.44635 v -1.86154 h 4.05057 h 4.05056 v 1.86154 v 1.86153 h -4.05056 h -4.05057 v -1.86153 z" style="fill:#000;stroke:#000"/><path d="m 98.237365 68.391268 c -0.09697 -0.157371 -0.277269 -0.918908 -0.400611 -1.692304 l -0.224244 -1.406174 h 3.75615 h 3.75617 v 1.486861 c 0 1.043596 -0.15918 1.548108 -0.53393 1.692304 -0.81305 0.312838 -6.152778 0.245026 -6.353535 -0.08069 z" style="fill:#00f;stroke:#00f"/><g style="fill:#bdb76b;stroke:#bdb76b"><path d="m 102.0869,81.910027 0,-3.690401 1.68796,-0.117282 1.68794,-0.11728 -2.1e-4,3.807682 -2.2e-4,3.807683 -1.68774,0 -1.68773,0 0,-3.690402 z"/><path d="m 106.13747,75.648505 0,-1.490407 1.68795,-0.117281 1.68794,-0.117281 -2e-4,1.607688 -2.2e-4,1.607688 -1.68773,0 -1.68774,0 0,-1.490407 z"/><path d="m 105.79993 87.800423 v -1.861534 h 1.85651 h 1.8565 v 1.861534 v 1.861533 h -1.8565 h -1.85651 v -1.861533 z"/><path d="m 93.648217 75.61584 v -1.523073 h 1.687737 h 1.687737 v 1.523073 v 1.523072 h -1.687737 h -1.687737 v -1.523072 z"/><path d="m 94.576477 89.081071 c -0.85192 -0.129403 -0.92826 -0.264404 -0.92826 -1.641591 v -1.500591 h 1.687737 h 1.687737 v 1.692303 c 0 1.838467 0.02268 1.825045 -2.447214 1.449879 z"/></g></g><g style="fill:#000;stroke:#000"><path d="m 121.60065 187.47709 v -2.09496 h 4.45213 h 4.45212 v 2.09496 v 2.09494 h -4.45212 h -4.45213 v -2.09494 z" style="stroke-width:0.25781614"/><g style="stroke-width:0.28478801"><path d="m 134.82312 116.90556 v -1.99501 h 1.74563 h 1.74564 v 1.99501 v 1.99501 h -1.74564 h -1.74563 v -1.99501 z"/><path d="m 155.52138 100.19733 v -1.995009 h 1.74563 h 1.74564 v 1.995009 v 1.99501 h -1.74564 h -1.74563 v -1.99501 z"/></g></g></g></svg>