<svg xmlns="http://www.w3.org/2000/svg" viewBox="0 0 256 256"><defs><clipPath><path fill="#1890d0" transform="matrix(15.33333 0 0 11.5 415 -125.5)" d="m -24 13 c 0 1.105 -0.672 2 -1.5 2 -0.828 0 -1.5 -0.895 -1.5 -2 0 -1.105 0.672 -2 1.5 -2 0.828 0 1.5 0.895 1.5 2 z"/></clipPath><clipPath><path fill="#1890d0" transform="matrix(15.33333 0 0 11.5 415 -125.5)" d="m -24 13 c 0 1.105 -0.672 2 -1.5 2 -0.828 0 -1.5 -0.895 -1.5 -2 0 -1.105 0.672 -2 1.5 -2 0.828 0 1.5 0.895 1.5 2 z"/></clipPath><clipPath><path fill="#1890d0" transform="matrix(15.33333 0 0 11.5 415 -125.5)" d="m -24 13 c 0 1.105 -0.672 2 -1.5 2 -0.828 0 -1.5 -0.895 -1.5 -2 0 -1.105 0.672 -2 1.5 -2 0.828 0 1.5 0.895 1.5 2 z"/></clipPath><clipPath><path fill="#1890d0" transform="matrix(15.33333 0 0 11.5 415 -125.5)" d="m -24 13 c 0 1.105 -0.672 2 -1.5 2 -0.828 0 -1.5 -0.895 -1.5 -2 0 -1.105 0.672 -2 1.5 -2 0.828 0 1.5 0.895 1.5 2 z"/></clipPath><clipPath><path d="m 62 6 c -3.324 0 -6 2.676 -6 6 v 0.531 c 0 -3.611 2.921 -6.531 6.531 -6.531 h -0.531 z m 71.47 0 c 3.611 0 6.531 2.921 6.531 6.531 v -0.531 c 0 -3.324 -2.676 -6 -6 -6 h -0.531 z m 6.531 6.531 c 0 36.735 -3.543 60.1 -7.844 69.938 c -10.816 5.03 -35.677 7.531 -69.62 7.531 h 71.47 c 3.324 0 6 -2.676 6 -6 v -71.47 z m -77.47 77.47 c -3.611 -0.005 -6.531 -2.921 -6.531 -6.531 v 0.531 c 0 3.324 2.676 6 6 6 h 0.531 z"/></clipPath><clipPath><rect y="0.495" x="8.165" rx="3.623" height="70.65" width="70.65" opacity="0.9" fill="url(#0)" color="#000"/></clipPath><clipPath><rect y="6" x="6" rx="6" height="84" width="84" fill="#fff"/></clipPath><filter color-interpolation-filters="sRGB"><feGaussianBlur stdDeviation="1.71"/></filter><linearGradient gradientTransform="scale(1.0059 0.99417)" gradientUnits="userSpaceOnUse" y2="7.02" x2="0" y1="92.54"><stop/><stop offset="1" stop-opacity="0.588"/></linearGradient><linearGradient gradientUnits="userSpaceOnUse" y2="5.988" x2="0" y1="90"><stop stop-color="#e4b31e"/><stop offset="1" stop-color="#ffef64"/></linearGradient><radialGradient id="0" gradientUnits="userSpaceOnUse" gradientTransform="matrix(0 16.558 -20.32793 0 247.4 -150.57)" cx="7.118" cy="9.957" r="12.672"><stop stop-color="#505050"/><stop offset="0.262" stop-color="#2b2b2b"/><stop offset="0.705" stop-color="#0a0a0a"/><stop offset="1"/></radialGradient></defs><g transform="translate(0 -796.36)"><path d="m 3.652 915.15 c -14.532 149.54 230.55 189.8 249.59 36.24 23.59 -141.2 -198.57 -213.92 -243 -73.62 -4.868 11.862 -4.775 24.833 -6.59 37.37 z" fill="#789" color="#000"/><g transform="matrix(6.0222 0 0 6.52569 -14.895 765.84)"><g fill="#000" stroke="none" stroke-linejoin="round" stroke-linecap="round" color="#000" transform="matrix(0.09176 0 0 0.08659 1.531 10.443)"><path d="m 290.38 58.41 a 5.449 5.775 0 0 0 -3.107 0.992 c -6.483 4.671 -12.648 9.759 -18.16 15.496 a 5.449 5.775 0 0 0 -9.28 0.135 c -0.27 0.48 -0.247 1.01 -0.511 1.489 l -0.064 -0.023 l -0.17 0.632 c -5.664 10.454 -8.921 21.308 -11.238 32.19 l -4.321 -2.887 a 5.449 5.775 0 0 0 -6.109 0.203 l -1.767 1.353 a 5.449 5.775 0 0 0 -1.511 7.602 c 4.01 7.224 4.573 12 4.193 14.842 -0.38 2.838 -1.631 4.163 -2.597 4.827 a 5.449 5.775 0 0 0 -0.021 0.023 c -8.566 5.93 -21.518 13.322 -29.07 21.18 -0.008 0.008 -0.013 0.014 -0.021 0.023 -0.006 0.007 -0.015 0.016 -0.021 0.023 -13.25 13.565 -17.624 28.26 -16.474 45.29 0 0.008 0 0.015 0 0.023 1.403 23.22 18.11 42.08 39.844 49.38 a 5.449 5.775 0 0 0 0.021 0.023 c 9.505 3.12 18.247 3.519 27.414 3.519 15.382 0 31.41 -3.952 43.526 -14.08 12.728 -10.607 20.39 -26.573 20.39 -43.33 0 -16.729 -7.04 -32.547 -19.241 -43.692 a 5.449 5.775 0 0 0 -0.021 -0.023 c -6.453 -5.852 -14.13 -10.361 -21.859 -14.639 0.799 0.463 0.637 0.522 0.362 0.135 -0.289 -0.407 -0.764 -1.171 -1.256 -2.098 -0.983 -1.854 -2.127 -4.388 -3.171 -6.902 -2.089 -5.03 -3.789 -9.902 -3.789 -9.902 a 5.449 5.775 0 0 0 -2.107 -2.797 c 9.521 -13.641 20.09 -27.311 34.395 -40.06 a 5.449 5.775 0 0 0 -5.172 -9.925 c -2.473 0.841 -4.665 2.372 -7.07 3.406 0.795 -0.942 1.145 -1.808 1.958 -2.752 A 5.449 5.775 0 0 0 290.38 58.41 z M 99.95 81.51 c -2.741 0 -5.585 0.374 -8.301 2.165 -2.716 1.791 -4.811 5.615 -4.81 9.384 v 29.03 c 0 7.537 6.114 13.421 13.11 13.421 h 24.732 v 106.35 c 0 6.695 5.432 12.07 11.6 12.07 h 37.27 c 6.167 0 11.749 -5.201 11.749 -12.07 v -105.97 c 0 -0.281 -0.036 -0.049 -0.064 -0.023 -0.027 0.026 0.301 -0.361 1.852 -0.361 h 22.519 c 6.952 0 13.452 -5.423 13.452 -13.421 v -29.03 c 0 -3.999 -2.425 -7.787 -5.172 -9.474 -2.747 -1.687 -5.587 -2.075 -8.28 -2.075 h -109.66 z m 0 11.549 h 109.66 c 1.276 0 2.194 0.31 2.554 0.474 v 28.557 c 0 0.469 -1.314 1.872 -2.554 1.872 h -22.519 c -3.504 0 -6.791 1.053 -9.173 3.338 -2.382 2.286 -3.512 5.597 -3.512 8.594 v 105.97 c 0 0.235 -0.191 0.519 -0.851 0.519 h -37.27 c -0.663 0 -0.702 -0.111 -0.702 -0.519 v -106.94 c 0 -3.506 -1.767 -6.563 -3.831 -8.323 -2.064 -1.761 -4.368 -2.639 -6.939 -2.639 h -24.86 c -1.471 0 -2.214 -0.942 -2.214 -1.872 v -28.647 c 0.249 -0.1 0.907 -0.383 2.214 -0.383 z M 263.92 100.99 a 5.449 5.775 0 0 0 4.832 1.15 c -3.611 4.691 -8.773 9.08 -11.877 13.827 0.673 -4.27 3.201 -8.695 4.597 -13.06 a 5.449 5.775 0 0 0 2.448 -1.917 z m 117.38 18.18 c -1.862 0 -4.39 0.198 -5.555 0.316 -26.967 2.724 -48.54 24.511 -50.763 52.06 -0.262 1.809 -0.258 3.302 -0.213 4.692 v 66.59 c 0 6.623 5.522 10.827 11.195 10.827 h 34.821 c 5.673 0 11.195 -4.204 11.195 -10.827 v -58.6 c 0 -1.544 0.419 -2.701 1.788 -3.88 1.369 -1.179 3.988 -2.368 8.471 -2.368 1.642 0 3.088 -0.079 4.683 -0.586 1.594 -0.507 3.477 -1.756 4.534 -3.496 2.114 -3.48 1.405 -5.841 1.405 -7.962 v -34.692 c 0 -6.826 -5.525 -12.07 -11.855 -12.07 h -9.706 z m -126.9 2.797 a 5.449 5.775 0 0 0 4.555 4.805 c 1.71 0.277 3.02 0.462 4.406 0.677 0.672 1.859 1.247 3.546 2.81 7.308 1.126 2.711 2.355 5.494 3.64 7.917 0.642 1.212 1.277 2.334 2.02 3.383 0.745 1.049 1.418 2.095 3.235 3.113 a 5.449 5.775 0 0 0 0.021 0.023 c 7.556 4.183 14.62 8.429 19.901 13.218 9.911 9.07 15.431 21.611 15.431 34.917 0 13.01 -6 25.75 -16.219 34.26 -9.462 7.905 -23.23 11.594 -36.8 11.594 -8.861 0 -16.204 -0.405 -24.18 -3.02 -18.12 -6.095 -31.18 -21.357 -32.25 -39.09 a 5.449 5.775 0 0 0 0 -0.068 c -1.017 -14.871 1.687 -24.444 13.239 -36.25 a 5.449 5.775 0 0 0 0.043 -0.045 c 5.28 -5.506 18.219 -13.411 27.393 -19.76 l 0.021 -0.023 c 3.397 -2.345 6.63 -6.751 7.449 -12.88 0.364 -2.717 -1.822 -6.654 -2.469 -9.88 l 0.936 0.632 a 5.449 5.775 0 0 0 6.811 -0.835 z m 126.9 8.752 h 9.706 c 0.772 0 0.958 0.517 0.958 0.519 v 34.692 c 0 0.762 0.156 0.127 0.106 0.541 -6.214 0.036 -11.429 1.668 -15.176 4.895 -3.788 3.262 -5.811 8.119 -5.811 12.857 v 58.6 c 0 -1.159 0.311 -0.722 -0.298 -0.722 h -34.821 c -0.609 0 -0.298 -0.437 -0.298 0.722 v -66.79 a 5.449 5.775 0 0 0 0 -0.203 c -0.028 -0.858 0.092 -2.809 0.064 -2.639 a 5.449 5.775 0 0 0 0.064 -0.519 c 1.686 -21.801 18.84 -39.449 40.972 -41.684 0.483 -0.049 3.767 -0.271 4.534 -0.271 z" opacity="0.15" stroke-width="11.218"/><path d="m 290.44 52.634 a 10.899 11.55 0 0 0 -6.236 2.01 c -5.318 3.831 -10.275 8.286 -15.11 12.88 a 10.899 11.55 0 0 0 -13.941 4.556 c -0.536 0.956 -0.528 2.037 -1.043 3 l -0.128 -0.068 l -0.383 1.556 c -4.076 7.811 -6.075 16.06 -8.45 24.25 a 10.899 11.55 0 0 0 -10.919 1.128 l -1.767 1.353 a 10.899 11.55 0 0 0 -3.959 5.752 v -15.993 c 0 -5.882 -3.891 -11.999 -7.896 -14.459 -4 -2.46 -7.667 -2.865 -11 -2.865 h -109.66 c -3.364 0 -7.129 0.377 -11.174 3.045 -4.045 2.668 -7.387 8.858 -7.386 14.278 v 29.03 c 0 10.841 8.8 19.2 18.56 19.2 h 19.283 v 100.58 c 0 9.838 8.129 17.842 17.05 17.842 h 37.27 c 8.92 0 17.198 -7.659 17.198 -17.842 v -18.16 c 7.472 15.469 21.1 27.473 37.566 33 a 10.899 11.55 0 0 0 0.085 0.023 c 10.27 3.371 19.691 3.789 29.01 3.789 16.28 0 33.448 -4.094 46.889 -15.316 6.371 -5.309 11.222 -12.11 15.03 -19.421 v 17.05 c 0 10.514 8.438 16.602 16.644 16.602 h 34.821 c 8.206 0 16.644 -6.087 16.644 -16.602 v -58.06 c 0.247 -0.193 1.391 -1.015 4.81 -1.015 1.919 0 3.789 -0.056 6.236 -0.835 2.447 -0.779 5.747 -2.932 7.556 -5.91 3.618 -5.955 2.277 -9.09 2.277 -11.08 v -34.692 c 0 -10.239 -8.195 -17.842 -17.304 -17.842 h -9.706 c -2.41 0 -4.581 0.186 -6.087 0.338 -28.803 2.91 -51.927 25.999 -55.19 55.56 -3.572 -7.446 -8.231 -14.406 -14.388 -20.03 a 10.899 11.55 0 0 0 -0.021 -0.023 c -6.46 -5.859 -13.812 -10.07 -21.01 -14.1 -0.158 -0.255 -0.281 -0.434 -0.553 -0.947 -0.832 -1.57 -1.934 -4.01 -2.937 -6.429 -2.01 -4.833 -3.661 -9.564 -3.661 -9.564 a 10.899 11.55 0 0 0 -0.192 -0.496 c 8.855 -12.2 18.01 -24.46 30.883 -35.933 A 10.899 11.55 0 0 0 300.89 61.41 10.899 11.55 0 0 0 290.44 52.634 z m -187.26 46.2 h 103.53 v 19.353 h -19.624 c -4.48 0 -9.247 1.385 -12.834 4.827 -3.587 3.442 -5.3 8.524 -5.3 12.88 v 100.71 h -27.925 v -101.68 c 0 -5.373 -2.765 -10.178 -5.853 -12.812 -3.088 -2.634 -6.384 -3.925 -10.365 -3.925 h -21.625 v -19.353 z m 125.32 17.391 a 10.899 11.55 0 0 0 0.958 2.301 c 3.589 6.46 3.649 9.912 3.491 11.1 -0.159 1.186 -0.445 0.964 -0.192 0.789 a 10.899 11.55 0 0 0 -0.021 0.023 c -8.27 5.725 -21.22 12.869 -29.904 21.902 -5.76 5.897 -9.121 12.524 -12.09 19.218 v -30.27 h 18.858 c 9.808 0 18.9 -7.433 18.9 -19.2 v -5.865 z m 25.541 14.662 a 10.899 11.55 0 0 0 4.108 1.602 c 0.51 0.083 0.872 0.127 1.341 0.203 0.691 1.828 0.736 2.121 1.681 4.399 1.166 2.809 2.46 5.729 3.895 8.436 0.718 1.354 1.453 2.645 2.426 4.02 0.973 1.37 1.837 2.962 5.04 4.759 a 10.899 11.55 0 0 0 0.043 0.023 c 7.464 4.132 14.169 8.222 18.858 12.474 8.773 8.03 13.537 18.942 13.537 30.542 0 11.141 -5.174 22.264 -14.13 29.729 a 10.899 11.55 0 0 0 -0.021 0 c -8.135 6.796 -20.748 10.353 -33.416 10.353 -8.675 0 -15.319 -0.387 -22.497 -2.729 -0.01 -0.003 -0.011 -0.019 -0.021 -0.023 -16.324 -5.491 -27.558 -18.958 -28.457 -33.948 a 10.899 11.55 0 0 0 0 -0.113 c -0.941 -13.764 0.883 -20.761 11.557 -31.669 a 10.899 11.55 0 0 0 0.085 -0.09 c 4.148 -4.325 17.09 -12.483 26.563 -19.04 l 0.021 -0.023 c 4.616 -3.183 8.835 -9.136 9.876 -16.917 0.079 -0.594 -0.533 -1.38 -0.49 -1.985 z m 127.26 5.617 h 5.215 v 26.05 c -4.679 0.849 -9.573 1.362 -13.05 4.353 -4.998 4.304 -7.833 10.988 -7.833 17.323 v 52.11 h -24.519 v -60.29 a 10.899 11.55 0 0 0 0 -0.383 c -0.017 -0.542 0.187 -2.698 -0.021 -1.444 a 10.899 11.55 0 0 0 0.128 -1.06 c 1.46 -18.881 16.393 -34.418 36.08 -36.406 0.141 -0.014 3.782 -0.248 4 -0.248 z m -61.66 33.699 c -0.058 0.347 -0.001 0.394 -0.043 0.699 -0.011 0.127 -0.075 0.233 -0.085 0.361 l 0.128 -1.06 z" opacity="0.15" stroke-width="22.437"/></g><g transform="matrix(0.09176 0 0 0.08659 9.973 15.984)" fill="#fff"><g transform="translate(-92 -64)"><path d="m 264.51 77.978 l -4.917 19.529 c 6.965 -13.793 18.03 -24.17 30.729 -33.32 -9.287 10.789 -17.754 21.579 -22.944 32.368 8.741 -12.292 20.486 -19.12 33.733 -23.627 -17.618 15.706 -31.602 32.559 -42.26 49.49 l -8.467 -3.687 c 1.501 -13.521 6.609 -27.369 14.12 -40.754 z" fill="#abcd03"/><g fill="#ff8f00"><path d="m 241.9 115.14 l 16.12 6.686 c 0 4.098 -0.333 16.597 2.229 20.284 26.803 34.519 22.293 103.71 -5.43 105.49 -42.22 0 -58.32 -28.679 -58.32 -55.04 0 -24.04 28.816 -40.02 46.03 -54.22 4.37 -3.824 3.611 -12.275 -0.624 -23.2 z"/><path d="m 258.02 121.59 l 5.808 2.963 c -0.546 3.823 0.273 12.292 4.096 14.476 16.936 10.516 32.914 21.988 39.2 33.46 22.398 40.43 -15.706 77.85 -48.62 74.3 17.891 -13.248 23.08 -40.43 16.389 -70.06 -2.731 -11.609 -6.966 -22.12 -14.478 -34.01 -3.254 -5.832 -2.118 -13.07 -2.392 -21.12 z"/></g><path d="m 255.23 120.59 l 12.02 1.639 c -3.551 11.745 6.966 19.939 10.38 21.852 7.648 4.234 15.02 8.604 20.896 13.93 11.06 10.11 17.345 24.31 17.345 39.33 0 14.886 -6.829 29.23 -18.301 38.786 -10.789 9.01 -25.675 12.838 -40.15 12.838 -9.01 0 -17.07 -0.409 -25.812 -3.278 -19.939 -6.692 -34.826 -23.763 -36.06 -44.25 -1.093 -15.979 2.458 -28.13 14.887 -40.835 6.418 -6.692 19.393 -14.34 28.27 -20.486 4.371 -3 9.01 -11.473 0.136 -27.451 l 1.776 -1.366 l 13.157 8.812 l -11.11 -4.578 c 0.956 1.366 3.551 7.512 4.098 9.287 1.229 5.05 0.683 9.971 -0.41 12.155 -5.599 10.11 -15.16 12.838 -22.12 18.574 -12.292 10.11 -25.676 18.16 -24.17 45.888 0.683 13.657 11.336 30.32 27.314 38.1 9.01 4.371 19.394 6.146 29.91 6.692 9.423 0.41 27.451 -5.19 37.28 -13.384 10.516 -8.74 16.389 -21.988 16.389 -35.508 0 -13.658 -5.463 -26.632 -15.706 -35.783 -5.873 -5.326 -15.569 -11.745 -21.578 -15.16 -6.01 -3.414 -13.521 -12.974 -11.06 -22.12 z"/><path d="m 251.54 140.8 c -1.229 6.283 -2.595 17.618 -8.06 21.852 -2.322 1.638 -4.644 3.278 -7.102 4.916 -9.833 6.693 -19.667 12.974 -24.17 29.09 -0.956 3.415 -0.136 7.102 0.684 10.516 2.458 9.833 9.423 20.486 14.886 26.769 0 0.273 1.093 0.956 1.093 1.229 4.507 5.327 5.873 6.829 22.944 10.652 l -0.41 1.913 c -10.243 -2.731 -18.71 -5.189 -24.04 -11.336 0 -0.136 -0.956 -1.093 -0.956 -1.093 -5.736 -6.556 -12.702 -17.481 -15.296 -27.724 -0.956 -4.098 -1.775 -7.238 -0.683 -11.473 4.643 -16.661 14.75 -23.22 24.993 -30.18 2.322 -1.502 5.05 -2.869 7.238 -4.644 4.233 -3.14 6.554 -12.701 8.877 -20.485 z"/><path d="m 255.91 166.75 c 0.137 7.102 -0.556 10.665 1.219 15.719 1.092 3 4.782 7.101 5.875 11.06 1.502 5.327 3.138 11.199 3 14.75 0 4.098 -0.256 11.742 -2.031 19.937 -1.354 6.771 -4.473 12.582 -9.719 15.875 -5.373 -1.106 -11.682 -2.995 -15.406 -6.188 -7.238 -6.282 -13.649 -16.786 -14.469 -25.938 -0.682 -7.511 6.273 -18.589 15.969 -24.19 8.194 -4.78 10.1 -10.228 11.875 -18.969 -2.458 7.648 -4.767 14.06 -12.688 18.16 -11.472 6.01 -17.358 16.1 -16.813 25.656 0.819 12.291 5.742 20.619 15.438 27.313 4.097 2.868 11.751 5.899 16.531 6.719 v -0.625 c 3.625 -0.679 8.318 -6.633 10.656 -14.688 2.049 -7.238 2.857 -16.502 2.719 -22.375 -0.137 -3.414 -1.643 -10.808 -4.375 -17.5 -1.502 -3.687 -3.81 -7.374 -5.313 -9.969 -1.637 -2.597 -1.649 -8.195 -2.469 -14.75 z"/><path d="m 255.09 193.53 c 0.136 4.78 2.056 10.905 2.875 17.188 0.684 4.644 0.387 9.308 0.25 13.406 -0.135 4.743 -1.715 13.242 -3.875 17.375 -2.037 -0.934 -2.833 -1.999 -4.156 -3.719 -1.638 -2.322 -2.751 -4.644 -3.844 -7.375 -0.819 -2.049 -1.776 -4.394 -2.188 -7.125 -0.546 -4.097 -0.393 -10.506 4.25 -17.06 3.551 -5.19 4.365 -5.585 5.594 -11.594 -1.64 5.326 -2.863 5.869 -6.688 10.375 -4.233 4.917 -4.938 12.159 -4.938 18.03 0 2.459 0.981 5.187 1.938 7.781 1.092 2.732 2.029 5.452 3.531 7.5 2.258 3.321 5.148 5.209 6.563 5.563 0.009 0.002 0.022 -0.002 0.031 0 0.03 0.007 0.065 0.025 0.094 0.031 v -0.156 c 2.65 -2.954 4.244 -5.889 4.781 -8.844 0.683 -3.551 0.84 -7.11 1.25 -11.344 0.409 -3.551 0.112 -8.334 -0.844 -13.25 -1.365 -6.146 -3.669 -12.412 -4.625 -16.781 z"/><path d="m 255.5 135.07 c 0.137 7.101 0.683 20.35 2.595 25.539 0.546 1.775 5.599 9.56 9.149 18.983 2.459 6.556 3 12.565 3.415 14.34 1.639 7.785 -0.41 20.896 -3.142 33.32 -1.365 6.692 -6.01 15.02 -11.335 18.301 l -1.092 1.912 c 3.01 -0.137 10.379 -7.375 12.974 -16.389 4.371 -15.296 6.146 -22.398 4.098 -39.33 -0.273 -1.64 -0.956 -7.238 -3.551 -13.248 -3.824 -9.151 -9.287 -17.891 -9.969 -19.667 -1.23 -2.867 -2.869 -15.295 -3.142 -23.762 z"/><path d="m 258.06 125.35 c -0.405 7.298 -0.514 9.986 0.851 15.312 1.502 5.873 9.151 14.34 12.292 24.04 6.01 18.574 4.507 42.884 0.136 61.867 -1.638 6.691 -9.424 16.389 -17.208 19.529 l 5.736 1.366 c 3.141 -0.137 11.198 -7.648 14.34 -16.252 5.05 -13.521 6.01 -29.636 3.96 -46.571 -0.137 -1.639 -2.869 -16.252 -5.463 -22.398 -3.688 -9.15 -10.244 -17.345 -10.926 -19.12 -1.228 -3 -3.927 -9.244 -3.718 -17.771 z"/><path d="m 253.72 120.22 h 0.55 v 126.02 h -0.55 z"/></g><path d="m 7.943 23.282 h 109.67 c 4.096 0 8 1.54 8 5.774 v 29.03 c 0 4.234 -3.909 7.649 -8 7.649 h -22.534 c -5.05 0 -7.239 2.867 -7.239 6.145 v 105.98 c 0 3.551 -2.868 6.282 -6.282 6.282 h -37.28 c -3.415 0 -6.146 -2.731 -6.146 -6.282 v -106.94 c 0 -3.278 -3.01 -5.189 -5.326 -5.189 h -24.857 c -4.234 0 -7.648 -3.415 -7.648 -7.649 v -29.03 c -0.001 -4.234 3.413 -5.774 7.648 -5.774 z"/><path d="m 289.31 60.959 h 9.696 c 3.551 0 6.419 2.868 6.419 6.282 v 34.69 c 0 4.507 0.273 6.282 -5.19 6.282 -10.789 0 -15.705 5.736 -15.705 12.02 v 58.59 c 0 2.732 -2.595 5.05 -5.736 5.05 h -34.827 c -3.141 0 -5.736 -2.321 -5.736 -5.05 v -66.784 c -0.038 -1.174 -0.015 -2.908 0.137 -3.823 1.912 -24.72 21.308 -44.498 45.888 -46.981 0.824 -0.083 3.739 -0.273 5.05 -0.273 z"/></g></g></g></svg>