<svg xmlns="http://www.w3.org/2000/svg" xmlns:xlink="http://www.w3.org/1999/xlink" viewBox="0 0 256 256"><defs><linearGradient y2="192.84" x2="125.55" y1="2.145" x1="120.46" gradientUnits="userSpaceOnUse" id="5"><stop stop-color="#d00"/><stop offset="1" stop-color="#d20000"/></linearGradient><linearGradient gradientUnits="userSpaceOnUse" y2="46.577" x2="29.14" y1="1.628" x1="29" id="4" xlink:href="#2"/><linearGradient gradientUnits="userSpaceOnUse" y2="46.36" x2="18.856" y1="1.709" x1="18.852" id="6" xlink:href="#2"/><linearGradient gradientUnits="userSpaceOnUse" y2="47.08" x2="24.04" y1="0.918" x1="24.03" id="3"><stop stop-color="#36d536"/><stop offset="1" stop-color="#2bcd2b" stop-opacity="0.992"/></linearGradient><linearGradient gradientUnits="userSpaceOnUse" y2="41.4" x2="47.07" y1="6.67" x1="47.05" id="1"><stop stop-color="#36d536"/><stop offset="1" stop-color="#2cd02c"/></linearGradient><linearGradient gradientUnits="userSpaceOnUse" y2="41.4" x2="1.018" y1="6.599" x1="1.072" id="0"><stop stop-color="#37d537"/><stop offset="1" stop-color="#2cd02c"/></linearGradient><linearGradient id="2"><stop stop-color="#249e24"/><stop offset="1" stop-color="#208e20"/></linearGradient></defs><g transform="translate(0 -796.36)"><path d="m 52.774 1027.39 c 192.46 127.95 311 -280.09 62.2 -226.07 -102.82 23.02 -165.22 167.39 -62.2 226.07 z" fill="#229422" color="#000"/><g transform="matrix(3.46626 0 0 3.29691 46.898 843.75)"><g><path d="m 36.31,5 c 5.859,4.062 9.688,10.831 9.688,18.5 0,12.426 -10.07,22.5 -22.5,22.5 -7.669,0 -14.438,-3.828 -18.5,-9.688 1.037,1.822 2.306,3.499 3.781,4.969 4.085,3.712 9.514,5.969 15.469,5.969 12.703,0 23,-10.298 23,-23 0,-5.954 -2.256,-11.384 -5.969,-15.469 C 39.81,7.306 38.132,6.037 36.31,5 z m 4.969,3.781 c 3.854,4.113 6.219,9.637 6.219,15.719 0,12.703 -10.297,23 -23,23 -6.081,0 -11.606,-2.364 -15.719,-6.219 4.16,4.144 9.883,6.719 16.219,6.719 12.703,0 23,-10.298 23,-23 0,-6.335 -2.575,-12.06 -6.719,-16.219 z" opacity="0.05"/><path d="m 41.28 8.781 c 3.712 4.085 5.969 9.514 5.969 15.469 0 12.703 -10.297 23 -23 23 -5.954 0 -11.384 -2.256 -15.469 -5.969 4.113 3.854 9.637 6.219 15.719 6.219 12.703 0 23 -10.298 23 -23 0 -6.081 -2.364 -11.606 -6.219 -15.719 z" opacity="0.1"/><path d="M 31.25,2.375 C 39.865,5.529 46,13.792 46,23.505 c 0,12.426 -10.07,22.5 -22.5,22.5 -9.708,0 -17.971,-6.135 -21.12,-14.75 a 23,23 0 0 0 44.875,-7 23,23 0 0 0 -16,-21.875 z" opacity="0.2"/></g><path d="m 24,1 c -1.721,0 -3.387,0.204 -5,0.563 l 0,44.875 c 1.613,0.358 3.279,0.563 5,0.563 1.721,0 3.387,-0.204 5,-0.563 L 29,1.563 C 27.387,1.205 25.721,1 24,1 z" fill="url(#3)"/><path d="M 9,6.563 C 4.103,10.781 1,17.03 1,24.001 1,30.972 4.103,37.221 9,41.439 L 9,6.564 z" fill="url(#0)"/><path d="m 19 1.563 c -3.76 0.835 -7.182 2.573 -10 5 v 34.875 c 2.818 2.427 6.24 4.165 10 5 v -44.875 z" fill="url(#6)"/><path d="m 29 1.563 v 44.875 c 3.76 -0.835 7.182 -2.573 10 -5 v -34.875 c -2.818 -2.427 -6.24 -4.165 -10 -5 z" fill="url(#4)"/><path d="m 39,6.563 0,34.875 C 43.897,37.22 47,30.971 47,24 47,17.029 43.897,10.78 39,6.562 z" fill="url(#1)"/><g><path d="m 210.97 54.719 l -11.191 -40.43 l -15.316 -13.316 h -31.978 c -23.661 16.427 -36.855 15.92 -61.03 0 h -32.712 l -14.214 13.393 l -13.557 40.35 l 30 20 l 2.881 -16.16 l 7.119 136.16 l 100 -5 l 5 -130 l 5 15 z" fill-rule="evenodd" fill-opacity="0.284" transform="matrix(0.13611 0 0 0.12903 8.785 12.375)"/><g transform="matrix(1.03159 0 0 1.03456 -0.743 -0.568)"><path d="m 210.97 54.719 l -11.191 -40.43 l -15.316 -13.316 h -30.94 c -23.661 16.427 -37.1 15.92 -61.28 0 h -33.506 l -14.214 13.393 l -13.557 40.35 l 30 20 l 2.881 -16.16 l 7.119 136.16 l 100 -5 l 5 -130 l 5 15 z" fill="url(#5)" fill-rule="evenodd" transform="matrix(0.13194 0 0 0.12472 8.267 11.544)"/><g fill="#fff"><path d="m 19.751 28.38 l 0.058 -1.318 l 0.87 -0.075 c 0 0 0.182 -3.281 0.338 -5.884 l -1.073 0.339 l 0.24 -1.901 l 2.885 -0.87 l -0.449 8.169 l 0.869 -0.076 l -0.053 1.331 z"/><path d="m 24.914 28.38 l 0.058 -1.318 l 0.87 -0.075 c 0 0 0.182 -3.281 0.338 -5.884 l -1.073 0.339 l 0.24 -1.901 l 2.885 -0.87 l -0.449 8.169 l 0.869 -0.076 l -0.053 1.331 z"/></g></g></g></g></g></svg>