<svg xmlns="http://www.w3.org/2000/svg" viewBox="0 0 256 256"><defs><clipPath><circle r="128" cy="924.36" cx="128" style="fill:#f16529"/></clipPath><clipPath><path d="m 148 97 h 77.63 v 24 h -77.62"/></clipPath><clipPath><path d="m 74 56.824 h 129 v 139.69 h -129"/></clipPath><clipPath><path d="m 171 132 h 54.625 v 24 h -54.625"/></clipPath><clipPath><path d="m 27.707 56.824 h 82.29 v 139.69 h -82.29"/></clipPath><clipPath><circle r="99.31" cy="933.98" cx="132.22" style="fill:#0f9d58"/></clipPath><clipPath><circle r="128" cy="924.36" cx="128" style="fill:#72a854"/></clipPath><clipPath><path transform="matrix(15.33333 0 0 11.5 415 -125.5)" d="m -24 13 c 0 1.105 -0.672 2 -1.5 2 -0.828 0 -1.5 -0.895 -1.5 -2 0 -1.105 0.672 -2 1.5 -2 0.828 0 1.5 0.895 1.5 2 z"/></clipPath><clipPath><path transform="translate(0 796.36)" d="m 88.12 249.44 c -42.02 -14.14 -73.35 -47.748 -83.985 -90.07 -2.796 -11.124 -3.211 -15.198 -3.208 -31.471 0.002 -10.417 0.209 -15.875 0.732 -19.348 2.808 -18.628 10.519 -37.903 21.385 -53.45 c 3.959 -5.666 8.345 -10.931 9.102 -10.926 0.328 0.002 10.489 18.31 22.579 40.683 12.09 22.373 22.375 41.33 22.854 42.14 0.479 0.802 0.925 2.441 0.99 3.643 0.343 6.316 2.524 14.21 5.642 20.423 2.954 5.887 5.065 8.733 10.435 14.07 6.714 6.67 12.889 10.286 21.732 12.729 3.166 0.874 5.105 1.05 11.575 1.05 8.826 0 12.602 -0.762 19.264 -3.887 2.046 -0.96 3.937 -1.665 4.202 -1.568 0.265 0.097 -11.06 17.665 -25.16 39.04 l -25.639 38.861 l -3.094 0.112 c -2.555 0.093 -4.195 -0.258 -9.409 -2.01 z"/><path d="m 112.36 1051.52 c -10 -1.449 -12.156 -1.82 -12.532 -2.156 -0.249 -0.222 1.738 -3.747 4.55 -8.07 7.166 -11.02 49.772 -74.65 50.26 -75.05 3.575 -2.992 8.635 -8.04 10.575 -10.554 3.362 -4.353 7.558 -12.914 9.07 -18.494 6.193 -22.925 -2.593 -47.15 -21.7 -59.837 l -2.961 -1.966 l 17.02 0.296 c 9.364 0.163 31.17 0.434 48.46 0.603 l 31.435 0.307 l 1.546 4.189 c 2.246 6.086 4.678 15.09 5.935 21.982 1.525 8.36 1.925 28.859 0.739 37.828 -3.081 23.278 -12.813 45.72 -27.802 64.11 -20.476 25.12 -51.46 42.2 -84.15 46.39 -5.312 0.681 -26.646 0.986 -30.446 0.436 z"/><path transform="translate(0 796.36)" d="m 67.99 108.87 c -26.706 -49.3 -34.7 -63.724 -35.756 -64.53 -0.582 -0.443 0.578 -1.795 6.462 -7.529 14.74 -14.365 30.11 -23.775 49.14 -30.08 13.848 -4.588 24.743 -6.299 40.11 -6.299 c 21.31 0 37.805 3.81 56.835 13.13 25.294 12.383 46.19 33.579 58.52 59.35 1.611 3.369 2.93 6.372 2.93 6.675 0 0.56 -10.549 0.495 -71.17 -0.437 l -24.288 -0.374 l -3.931 -1.764 c -6.757 -3.03 -10.646 -3.84 -18.658 -3.868 -5.03 -0.018 -7.979 0.208 -10.316 0.788 -14.508 3.604 -26.28 12.948 -33.29 26.419 -3.585 6.891 -5.247 13.08 -6.332 23.583 l -0.337 3.267 l -9.927 -18.326 z"/></clipPath><clipPath><circle r="128" cy="924.36" cx="128" style="fill:#4285f4"/></clipPath><clipPath><circle r="128" cy="924.36" cx="128" style="fill:#4285f4"/></clipPath><clipPath><circle r="128" cy="922.85" cx="112.26" style="fill:#0e85cd"/></clipPath><clipPath><circle r="128" cy="128" cx="128" style="fill:#292929;fill-opacity:0.26"/></clipPath></defs><g transform="matrix(-1 0 0 1 254.89 1.017)"><g style="fill:#ff0"><path d="m 123.66 100.88 a 2.712 11.932 0 0 1 -0.013 1.191 l -2.698 -1.191 z"/><path d="m 62.915 60.2 a 6.508 3.797 0 0 1 -0.001 0.058 L 56.41 60.2 z"/></g><g transform="matrix(-1 0 0 1 256.65 -796.8)"><path d="m 245.1 977.71 c -69.925 141.88 -277.41 62.829 -237.79 -81.07 37.33 -135.58 226.87 -131.72 248.97 -0.272 c 4.611 27.425 1.653 55.3 -11.182 81.34 z" style="fill:#ffefd5;color:#000"/><path d="m 149.12 970.79 c -0.648 -0.659 -1.179 -8.644 -1.179 -17.744 0 -9.1 -0.383 -16.546 -0.851 -16.546 -0.468 0 -3.01 2.46 -5.657 5.467 -5.612 6.385 -8.06 5.251 -5.456 -2.524 1.01 -3.01 3.368 -9.938 5.243 -15.403 4.357 -12.697 4.289 -14.205 -0.728 -16.14 -6.743 -2.606 -4.124 -6.73 4.274 -6.73 2.696 0 3.175 -1.238 3.175 -8.207 0 -9.382 3.314 -13.876 8 -10.849 1.888 1.219 2.758 4.108 2.758 9.157 v 7.376 l 6.621 -0.587 c 8.318 -0.737 10.437 -2.5 11.08 -9.214 0.448 -4.7 1.107 -5.343 5.475 -5.343 4.69 0 4.966 0.374 4.966 6.73 v 6.73 h 7.426 c 6.156 0 7.512 -0.576 7.927 -3.365 1.54 -10.343 2.05 -11.16 6.637 -10.622 3.965 0.465 4.445 1.171 4.074 5.995 -0.384 5 -0.015 5.468 4.349 5.468 5.196 0 9.968 4.243 7.505 6.672 -0.826 0.815 -3.737 1.729 -6.468 2.032 l -4.966 0.55 l -0.468 18.885 l -0.468 18.885 l 6.03 -0.377 c 4.255 -0.266 6.584 0.504 7.916 2.616 2.584 4.095 -1.329 6.643 -8.553 5.572 -10.83 -1.607 -13.552 2.305 -4.607 6.62 7.245 3.495 11.576 8.387 10.335 11.675 -1.915 5.073 -7.644 2.458 -18.265 -8.338 -11.134 -11.317 -15.921 -12.81 -15.921 -4.962 0 3.098 -2.218 5.186 -10.346 9.737 -10.02 5.613 -27.18 9.512 -29.858 6.787 z m 18.337 -8.871 c 3.378 -1.752 7.602 -4.827 9.386 -6.833 2.77 -3.113 2.891 -3.881 0.828 -5.244 -1.329 -0.878 -6.142 -1.4 -10.694 -1.159 l -8.276 0.437 l -0.505 7.992 c -0.571 9.04 0.264 9.474 9.261 4.806 z m 6.555 -19.607 c 2.663 -0.846 2.952 -37.03 0.31 -38.687 -0.968 -0.608 -3.075 0.104 -4.682 1.583 -1.608 1.479 -4.496 2.689 -6.419 2.689 -5.935 0 -5.816 3.141 0.341 9.04 8.631 8.275 7.973 12.03 -1.964 11.212 -3.344 -0.275 -3.724 0.45 -3.724 7.105 0 4.076 0.505 7.925 1.123 8.553 1.016 1.033 9.809 0.154 15.02 -1.5 z m 27.968 -4.937 c -0.784 -2.077 -2.769 -2.625 -8.089 -2.234 -5.777 0.425 -7.05 1.126 -7.05 3.883 0 2.544 1.414 3.596 5.794 4.311 6.579 1.074 10.949 -1.713 9.346 -5.96 z m -0.242 -13.494 c 0 -2.695 -1.279 -3.472 -6.425 -3.901 -7.128 -0.594 -10.274 1.418 -8.707 5.568 0.777 2.057 2.779 2.606 8.08 2.216 5.777 -0.425 7.05 -1.126 7.05 -3.883 z m 0 -17.667 c 0 -3.611 -0.841 -4.278 -5.935 -4.712 -6.538 -0.557 -10.838 2.875 -9.163 7.312 0.738 1.954 2.835 2.508 8.05 2.125 6.281 -0.462 7.05 -0.977 7.05 -4.725 z m -157.7 21.453 l 0.442 -42.486 l 4.138 0.61 c 2.276 0.335 17.307 0.95 33.402 1.367 24.01 0.621 30.14 0.298 34.13 -1.799 9.402 -4.942 9.717 -3.395 8.697 42.729 -0.888 40.17 -1 41.24 -4.367 41.726 -1.9 0.276 -4.413 -0.67 -5.582 -2.103 -3.104 -3.802 -58.21 -3.875 -61.31 -0.081 -1.133 1.388 -3.844 2.524 -6.02 2.524 h -3.964 l 0.442 -42.486 z m 37.39 29.446 c 0.505 -3.617 0.012 -3.786 -11.08 -3.786 -6.382 0 -11.997 -0.645 -12.476 -1.434 -0.48 -0.789 0.51 -5.279 2.2 -9.977 2.025 -5.63 2.922 -12.01 2.631 -18.709 -0.373 -8.6 0.025 -10.316 2.583 -11.141 3.299 -1.064 5.677 -6.493 4.03 -9.202 -0.568 -0.934 -2.627 -1.698 -4.576 -1.698 -4.695 0 -1.718 -2.901 3.739 -3.643 7.174 -0.976 4.489 -3.906 -4.083 -4.456 -6.226 -0.4 -8.717 0.161 -10.263 2.311 -2.508 3.487 -1.098 12.584 2.391 15.417 2.259 1.835 2.237 2.172 -0.205 3.125 -2.347 0.915 -2.737 4.112 -2.737 22.425 0 13.1 0.694 22.06 1.795 23.18 1 1.019 7.03 1.725 13.656 1.598 10.962 -0.209 11.901 -0.513 12.39 -4.01 z m 31.371 2.524 c 1.809 -2.262 2.695 -15.337 2.287 -33.769 -0.24 -10.839 -0.458 -11.445 -3.938 -10.937 -2.946 0.43 -3.943 2.056 -4.971 8.109 -0.8 4.708 -0.598 9.283 0.534 12.1 1 2.489 1.319 5.35 0.707 6.357 -0.612 1.01 0.552 3.202 2.587 4.877 5.272 4.339 2.673 6.956 -6.908 6.956 -6.02 0 -8.504 0.724 -9.248 2.694 -0.559 1.482 0.023 3.363 1.293 4.181 3.466 2.231 15.735 1.838 17.657 -0.565 z m -31.371 -14.434 c 0.392 -2.705 -0.326 -3.654 -2.761 -3.654 -8.261 0 -11.192 4.072 -4.803 6.672 5.057 2.058 6.938 1.308 7.564 -3.02 z m 21.659 0.746 c 1.522 -1.864 1.017 -2.556 -2.52 -3.458 -4.746 -1.211 -8.334 0.969 -6.515 3.959 1.561 2.567 6.766 2.278 9.04 -0.501 z m -23.464 -10.465 c -0.55 -0.559 -1.978 -0.619 -3.173 -0.133 -1.32 0.537 -0.928 0.936 1 1.017 1.745 0.073 2.723 -0.325 2.173 -0.884 z m 15.05 -10.619 c 0.491 -3.254 -0.258 -3.508 -10.346 -3.508 -10.512 0 -10.875 0.141 -10.875 4.23 0 4.144 0.21 4.215 10.346 3.508 8.935 -0.623 10.418 -1.2 10.875 -4.23 z m -4.936 -13.399 c 2.538 -1.635 2 -8.892 -0.722 -9.803 -1 -0.334 -3.583 0.845 -5.74 2.62 -3.364 2.769 -3.606 3.614 -1.703 5.944 2.464 3.02 4.844 3.378 8.165 1.239 z m 25.439 -8.529 c 1.266 -8.769 -0.674 -10.04 -15.28 -10.01 -10.815 0.024 -13.201 0.501 -13.201 2.641 0 2.147 1.343 2.407 7.549 1.461 7.293 -1.112 7.613 -0.978 9.446 3.959 1.737 4.677 3.719 6.174 8.888 6.71 1.035 0.107 2.203 -2.037 2.597 -4.764 z" style="fill:#2f4f4f"/></g></g></svg>