<svg xmlns="http://www.w3.org/2000/svg" xmlns:xlink="http://www.w3.org/1999/xlink" viewBox="0 0 256 256"><defs><path d="m 245.46 129.52 l -97.89 -96.9 c -5.556 -5.502 -16.222 -11.873 -23.7 -14.16 l -39.518 -12.08 c -7.479 -2.286 -18.1 0.391 -23.599 5.948 l -13.441 13.578 c -5.5 5.559 -14.502 14.653 -20 20.21 l -13.44 13.579 c -5.5 5.558 -8.07 16.206 -5.706 23.658 l 12.483 39.39 c 2.363 7.456 8.843 18.06 14.399 23.556 l 97.89 96.9 c 5.558 5.502 14.605 5.455 20.1 -0.101 l 36.26 -36.63 c 5.504 -5.559 14.503 -14.651 20 -20.21 l 36.26 -36.629 c 5.502 -5.56 5.455 -14.606 -0.101 -20.11 z m -178.09 -50.74 c -7.198 0 -13.03 -5.835 -13.03 -13.03 0 -7.197 5.835 -13.03 13.03 -13.03 7.197 0 13.03 5.835 13.03 13.03 -0.001 7.198 -5.836 13.03 -13.03 13.03 z" id="B"/><use id="C" xlink:href="#B"/><clipPath><rect transform="matrix(0 1 -1 0 0 0)" y="212" x="304" height="16" width="16" fill="url(#6)" color="#bebebe" rx="3"/></clipPath><clipPath><rect width="22" height="22" x="417" y="101" fill="url(#2)" color="#bebebe" rx="5"/></clipPath><clipPath><rect y="32" x="292" height="88" width="88" fill="url(#3)" color="#bebebe" rx="18"/></clipPath><clipPath><rect y="37" x="433" height="30" width="30" fill="url(#7)" color="#bebebe" rx="6"/></clipPath><clipPath><rect width="220" height="220" x="34" y="46" fill="url(#5)" color="#bebebe" rx="50"/></clipPath><clipPath><rect width="60" height="60" x="290" y="142" fill="url(#4)" color="#bebebe" rx="12.5"/></clipPath><clipPath><rect width="22" height="22" x="433" y="85" fill="url(#8)" color="#bebebe" rx="4"/></clipPath><clipPath id="0"><use xlink:href="#B"/></clipPath><clipPath clip-path="url(#0)"><use xlink:href="#C"/></clipPath><clipPath clip-path="url(#0)"><use xlink:href="#C"/></clipPath><clipPath><rect y="53" x="417" height="30" width="30" fill="url(#1)" color="#bebebe" rx="7"/></clipPath><clipPath><rect transform="matrix(0 1 -1 0 0 0)" width="42" height="42" x="307" y="223" fill="url(#9)" color="#bebebe" rx="9"/></clipPath><linearGradient y2="223" x2="0" y1="265" gradientUnits="userSpaceOnUse" id="9" xlink:href="#A"/><linearGradient y2="37" x2="0" y1="67" gradientUnits="userSpaceOnUse" id="7" xlink:href="#A"/><linearGradient y2="85" x2="0" y1="107" gradientUnits="userSpaceOnUse" id="8" xlink:href="#A"/><linearGradient y2="36" x2="0" y1="276" gradientUnits="userSpaceOnUse" id="5" xlink:href="#A"/><linearGradient y2="52" x2="0" y1="84" gradientUnits="userSpaceOnUse" id="1" xlink:href="#A"/><linearGradient y2="212" x2="0" y1="228" gradientUnits="userSpaceOnUse" id="6" xlink:href="#A"/><linearGradient y2="100" x2="0" y1="124" gradientUnits="userSpaceOnUse" id="2" xlink:href="#A"/><linearGradient y2="140" x2="0" y1="204" gradientUnits="userSpaceOnUse" id="4" xlink:href="#A"/><linearGradient id="A"><stop stop-color="#ececec"/><stop offset="1" stop-color="#f5f5f5"/></linearGradient><linearGradient y2="28" x2="0" y1="124" gradientUnits="userSpaceOnUse" id="3" xlink:href="#A"/></defs><g transform="translate(0 -796.36)" color="#000"><path d="m 30.671 836.37 c 105.68 -120.91 302.66 59.829 193.24 176.59 -92.41 116.95 -302.33 -51.778 -193.24 -176.59 z" fill="#cd1f44"/><g transform="translate(-348.57 -61.43)" fill="#fff" stroke="#cd1f44" stroke-width="6"><g fill="#fff"><path d="m 477.14 1060.22 l -60 -34.641 l 60 -34.641 c 18.885 25.342 20.696 48.652 0 69.28 z"/><path d="m 537.14 1025.57 l -60 34.641 v -69.28 c 21.842 -7.79 41.929 2.837 60 34.641 z"/></g><path d="m 537.14 956.29 v 69.28 l -60 -34.641 c 13.423 -19.533 33.377 -31.14 60 -34.641 z" fill="#f2a8b8"/><g fill="#fff"><path d="m 477.14 921.65 l 60 34.641 l -60 34.641 c -7.133 -23.09 -9.751 -46.19 0 -69.28 z"/><path d="m 417.14 956.29 l 60 -34.641 v 69.28 z"/></g></g></g></svg>