<svg xmlns="http://www.w3.org/2000/svg" viewBox="0 0 256 256"><defs><clipPath><path transform="matrix(15.33333 0 0 11.5 415 -125.5)" d="m -24 13 c 0 1.105 -0.672 2 -1.5 2 -0.828 0 -1.5 -0.895 -1.5 -2 0 -1.105 0.672 -2 1.5 -2 0.828 0 1.5 0.895 1.5 2 z"/></clipPath><linearGradient y2="1012.92" x2="0" y1="1043.76" gradientTransform="matrix(4.54626 0 0 4.76844 24.856 -3979.87)" gradientUnits="userSpaceOnUse" id="0"><stop style="stop-color:#ffe7b9"/><stop offset="1" style="stop-color:#fffcf5"/></linearGradient></defs><g transform="matrix(1.71111 0 0 1.6629 -51.12 -626.66)" style="fill:#fff"><path d="m 84 456.36 v 30 c 0 18 3 18 30 18 h 6 c 27 0 30 0 30 -18 v -30 c 0 -18 -3 -18 -30 -18 h -6 c -27 0 -30 0 -30 18 z m 30 -12 h 6 c 24 0 24 0 24 12 v 21 c 0 12 0 12 -24 12 h -6 c -24 0 -24 0 -24 -12 v -21 c 0 -12 0 -12 24 -12 z"/><path d="m 96,477.91 v -11.636 l 10.5,-10.909 13.13,13.636 5.25,-5.454 13.13,13.636 v 0.727 c 0,5.455 -0.875,5.455 -10.5,5.455 h -21 c -9.625,0 -10.5,0 -10.5,-5.455 z"/><path d="m 78 34.5 a 4.5 4.5 0 1 1 -9 0 4.5 4.5 0 1 1 9 0 z" transform="matrix(1.3333 0 0 1.3333 34 410.36)" style="color:#000"/><path transform="translate(60 414.36)" d="M 42,12 C 15,12 12,12 12,30 v 30 c 0,9.758 0.891,14.235 6,16.281 V 51 36 30 C 18,19.134 18.181,18.128 36,18.031 V 18 h 6 6 28.531 C 73.886,12.002 66.718,12 48,12 h -6 z"/><path d="m 90,414.36 c -27,0 -30,0 -30,18 v 30 c 0,9.758 0.891,14.235 6,16.281 v -25.281 -15 -6 c 0,-10.866 0.181,-11.872 18,-11.969 v -0.031 h 6 6 28.531 c -2.646,-5.998 -9.813,-6 -28.531,-6 h -6 z"/></g><g transform="translate(1.085 -795.28)"><path d="m 44.46 1011.67 c -200.11 -260.74 350.59 -297.78 173.86 -31.622 -40.29 60.677 -120.86 100.69 -173.86 31.622 z" style="fill:#ffa500;color:#000"/><path d="m 183.36 850.4 c -7.487 0 -15.491 0.543 -22.398 0.543 -15.413 0 -30.532 -0.573 -43.909 0.453 -20.667 1.581 -36 10.928 -46.598 22.734 -10.821 12.06 -19.236 29.14 -19.236 50.09 0 21.843 8.17 38.16 19.236 50.09 10.527 11.349 26.12 21.375 45.711 22.736 36.13 2.508 60.17 -18.423 70.77 -44.982 6.883 -17.246 15.203 -37.976 22.398 -56.12 2.174 -5.483 6.462 -12.463 7.18 -19.04 1.43 -13.09 -5.332 -20.623 -13.888 -24.11 -4.803 -1.956 -11.778 -2.441 -19.266 -2.416 z m -60.87 14.504 c 17.251 0.072 29.718 7.134 38.472 15.269 10.986 10.208 21.15 31.02 17.463 53.825 -3.01 18.62 -13.09 33.402 -29.548 42.656 -17.906 10.07 -40.42 8.58 -56.47 -1.377 -15.488 -9.611 -30.06 -28.23 -27.775 -57.53 1.217 -15.576 7.756 -26.388 16.13 -35.25 7.806 -8.258 18.772 -15.476 34.04 -17.17 2.664 -0.281 5.218 -0.434 7.683 -0.429 z m -2.925 14.87 c -1.164 0.072 -2.469 0.353 -3.871 0.918 -3.643 1.399 -2.702 6.471 -2.393 9.915 -0.206 0.329 -0.607 0.2 -0.916 0.2 -3.952 0.205 -5.727 4.511 -6.56 7.957 0.206 3.124 -0.216 6.567 -0.739 9.578 -0.522 3.01 -1.551 5.385 -1.655 8.292 -0.206 2.585 0.738 5.617 0.532 7.986 -2.186 6.677 -3.765 11.07 -4.905 18.18 -0.831 1.614 -3.727 5.059 -4.875 5.814 -0.309 0.531 0.19 1.727 -0.325 2.477 -0.935 1.398 -2.39 2.165 -3.221 3.672 0.206 0.329 -1.234 0.622 -1.123 1.163 0.103 0.533 0.814 1.941 1.123 2.264 0.103 0.224 1.152 -0.329 1.152 0 0.42 1.291 1.356 3.975 2.393 4.623 4.579 0.531 4.573 0.531 6.442 0 1.037 -3.123 -3.514 -1.708 -3.103 -5.907 6.242 -1.288 8.202 -3.133 10.696 -9.914 1.14 -4.953 2.691 -9.798 5.082 -14.535 0.411 -0.329 0.305 -1.174 1.034 -1.5 2.804 4.843 7.913 8.284 10.401 13.344 0.626 6.565 1.871 10.136 4.048 11.32 0.522 0.2 -0.009 2.264 0.414 2.692 0 0.649 0.22 1.388 -0.089 2.142 -0.214 0.537 -0.089 1.176 -0.089 1.715 v 0.639 c 0.102 0.974 0.306 0.995 1.241 1.743 2.701 1.83 6.323 4.726 9.958 2.573 1.664 -2.802 -1.849 -6.341 -4.344 -8.172 -0.831 -0.646 -2.303 -2.257 -2.098 -3.335 1.355 -1.4 2.295 -7.533 1.773 -12.271 -0.206 -1.075 -0.407 -2.169 -0.827 -3.03 -1.244 -2.474 -4.051 -5.91 -6.442 -8.384 0.309 -0.329 0.726 -0.763 1.241 -0.98 0 -2.367 -0.944 -3.114 -2.187 -4.834 -1.046 -1.724 -3.426 -5.074 -5.201 -6.151 0 0 -0.009 -0.091 -1.773 -0.091 -0.102 -1.184 0.223 -2.167 0.532 -3.459 0 -0.967 0.739 -0.42 0.946 -2.57 0.522 -1.83 0.289 -0.772 0.709 -2.602 0.411 -0.86 0.65 -1.72 0.65 -3.12 1.552 0.537 4.673 0.429 6.03 0 l 0.296 0.2 c 0.42 0.1 0.519 -0.531 0.827 -0.641 2.392 -1.295 3.228 -3.549 5.201 -3.764 0 0 1.049 -0.537 2.6 0 0.626 0 1.152 0.138 1.152 -0.521 0.102 -0.968 0.097 -1.738 0.621 -2.387 0.411 2.584 1.552 5.493 3.634 8.292 l 2.068 -1.499 c -1.972 -2.475 -3.213 -5.276 -3.428 -8.506 0.102 0.2 0.207 0.429 0.414 0.641 0.729 0 1.147 -1.606 1.98 -1.5 0.102 -0.2 0.327 -1.205 0.532 -1.958 h 7.771 l 2.807 -0.64 v -1.5 l -2.068 -0.219 v -1.714 h -0.532 v -1.957 h -1.241 v 1.835 l -3.221 -0.219 v -1.193 h -1.241 v 1.102 l -3.309 -0.339 v -1.622 h -1.271 v 1.531 l -4.875 -0.339 v -0.521 h -3.634 v -0.98 h -1.98 v 0.521 c -0.214 0.1 -0.414 0.329 -0.62 0.429 h -0.207 c -3.439 -2.799 -3.649 2.914 -5.939 1.621 -0.206 -1.184 -0.089 -2.242 -0.089 -3.64 3.952 -0.1 2.499 -1.203 1.359 -2.601 -0.411 -0.537 -0.636 -1.39 -0.739 -1.928 -0.701 -2.664 -3.038 -4.557 -6.53 -4.375 z m 7 16.585 c 0.495 0 0.768 0.181 0.768 0.181 1.245 -0.229 2.393 0.1 4.373 0 -0.318 3.552 -2.795 2.04 -5.496 3.977 -0.729 -0.1 -1.577 -0.11 -2.718 -0.11 -0.206 -2.368 0.623 -2.782 1.034 -3.213 0.832 -0.648 1.544 -0.826 2.039 -0.826 z" style="fill:url(#0)"/></g></svg>