<svg xmlns="http://www.w3.org/2000/svg" xmlns:xlink="http://www.w3.org/1999/xlink" viewBox="0 0 256 256"><defs><path id="0" d="m 245.46 129.52 l -97.89 -96.9 c -5.556 -5.502 -16.222 -11.873 -23.7 -14.16 l -39.518 -12.08 c -7.479 -2.286 -18.1 0.391 -23.599 5.948 l -13.441 13.578 c -5.5 5.559 -14.502 14.653 -20 20.21 l -13.44 13.579 c -5.5 5.558 -8.07 16.206 -5.706 23.658 l 12.483 39.39 c 2.363 7.456 8.843 18.06 14.399 23.556 l 97.89 96.9 c 5.558 5.502 14.605 5.455 20.1 -0.101 l 36.26 -36.63 c 5.504 -5.559 14.503 -14.651 20 -20.21 l 36.26 -36.629 c 5.502 -5.56 5.455 -14.606 -0.101 -20.11 z m -178.09 -50.74 c -7.198 0 -13.03 -5.835 -13.03 -13.03 0 -7.197 5.835 -13.03 13.03 -13.03 7.197 0 13.03 5.835 13.03 13.03 -0.001 7.198 -5.836 13.03 -13.03 13.03 z"/><use id="1" xlink:href="#0"/><clipPath style="clip-path:url(#2)"><use xlink:href="#0"/></clipPath><clipPath id="2"><use xlink:href="#1"/></clipPath><clipPath style="clip-path:url(#2)"><use xlink:href="#0"/></clipPath><linearGradient gradientUnits="userSpaceOnUse" x2="0" id="3" y1="46.999998" y2="0.999998"><stop style="stop-color:#f2d3b2"/><stop offset="1" style="stop-color:#f5ddc3"/></linearGradient></defs><path d="m 212.60265 212.28 c 129.89 -104.02 -60.27 -291.8 -175.210003 -171.84 -115.19 103.23 64.590003 303.6 175.210003 171.84 z" style="fill:#ff8c00;color:#000"/><g transform="matrix(3.4234713 0 0 3.2618103 45.755497 49.170398)"><g><path d="m 36.31,5 c 5.859,4.062 9.688,10.831 9.688,18.5 0,12.426 -10.07,22.5 -22.5,22.5 -7.669,0 -14.438,-3.828 -18.5,-9.688 1.037,1.822 2.306,3.499 3.781,4.969 4.085,3.712 9.514,5.969 15.469,5.969 12.703,0 23,-10.298 23,-23 0,-5.954 -2.256,-11.384 -5.969,-15.469 C 39.81,7.306 38.132,6.037 36.31,5 z m 4.969,3.781 c 3.854,4.113 6.219,9.637 6.219,15.719 0,12.703 -10.297,23 -23,23 -6.081,0 -11.606,-2.364 -15.719,-6.219 4.16,4.144 9.883,6.719 16.219,6.719 12.703,0 23,-10.298 23,-23 0,-6.335 -2.575,-12.06 -6.719,-16.219 z" style="opacity:0.05"/><path d="m 41.28 8.781 c 3.712 4.085 5.969 9.514 5.969 15.469 0 12.703 -10.297 23 -23 23 -5.954 0 -11.384 -2.256 -15.469 -5.969 4.113 3.854 9.637 6.219 15.719 6.219 12.703 0 23 -10.298 23 -23 0 -6.081 -2.364 -11.606 -6.219 -15.719 z" style="opacity:0.1"/><path d="M 31.25,2.375 C 39.865,5.529 46,13.792 46,23.505 c 0,12.426 -10.07,22.5 -22.5,22.5 -9.708,0 -17.971,-6.135 -21.12,-14.75 a 23,23 0 0 0 44.875,-7 23,23 0 0 0 -16,-21.875 z" style="opacity:0.2"/></g><path d="M 24,1 C 36.703,1 47,11.297 47,24 47,36.703 36.703,47 24,47 11.297,47 1,36.703 1,24 1,11.297 11.297,1 24,1 z" style="fill:url(#3)"/><g style="color:#000;fill-rule:evenodd"><path solid-color="#000000" solid-opacity="1" white-space="normal" isolation="auto" mix-blend-mode="normal" d="m 28.98,19 c -0.192,0.006 -0.377,0.067 -0.535,0.175 -1.304,0.865 -5.863,3.642 -5.863,3.642 0,0 -5.582,-2.819 -7.582,-2.819 -1.517,0 -2.654,0.694 -3.256,1.55 C 11.142,22.404 11,23.323 11,23.986 c 0,0.664 0.142,1.583 0.744,2.438 0.602,0.856 1.739,1.536 3.256,1.544 3,0.016 7.736,-2.901 7.736,-2.901 l 2.219,0.984 c 0,0 -4.361,2.465 -5.426,3.03 -1.272,0.594 -0.262,2.477 0.941,1.754 1.448,-0.771 6.764,-3.776 6.764,-3.776 0,0 5.766,2.921 7.766,2.921 1.512,0 2.648,-0.712 3.25,-1.566 0.602,-0.854 0.747,-1.771 0.75,-2.435 0.003,-0.668 -0.14,-1.587 -0.742,-2.442 -0.603,-0.856 -1.741,-1.544 -3.258,-1.544 -3,0 -7.844,2.851 -7.844,2.851 l -2.371,-1.052 c 0,0 3.73,-2.271 4.77,-2.962 0.852,-0.547 0.439,-1.864 -0.574,-1.832 z M 15,21.995 c 1,0 3.803,1.319 5.355,2.02 -2.181,1.099 -4.303,1.977 -5.355,1.977 -0.983,0 -1.346,-0.318 -1.619,-0.707 C 13.108,24.896 13,24.322 13,23.99 c 0,-0.332 0.108,-0.906 0.381,-1.295 0.273,-0.389 0.636,-0.696 1.619,-0.696 z m 20,1.991 c 0.983,0 1.346,0.308 1.619,0.696 0.273,0.389 0.382,0.963 0.381,1.291 -10e-4,0.332 -0.112,0.909 -0.387,1.299 -0.275,0.39 -0.637,0.688 -1.613,0.696 -1,0.008 -3.845,-1.339 -5.416,-2.046 2.271,-1.071 4.443,-1.937 5.416,-1.937" style="opacity:0.1"/><path solid-color="#000000" solid-opacity="1" white-space="normal" isolation="auto" mix-blend-mode="normal" d="m 27.98,18 c -0.192,0.006 -0.377,0.067 -0.535,0.175 -1.304,0.865 -5.863,3.642 -5.863,3.642 0,0 -5.582,-2.819 -7.582,-2.819 -1.517,0 -2.654,0.694 -3.256,1.55 C 10.142,21.404 10,22.323 10,22.986 c 0,0.664 0.142,1.583 0.744,2.438 0.602,0.856 1.739,1.536 3.256,1.544 3,0.016 7.736,-2.901 7.736,-2.901 l 2.219,0.984 c 0,0 -4.361,2.465 -5.426,3.03 -1.272,0.594 -0.262,2.477 0.941,1.754 1.448,-0.771 6.764,-3.776 6.764,-3.776 0,0 5.766,2.921 7.766,2.921 1.512,0 2.648,-0.712 3.25,-1.566 0.602,-0.854 0.747,-1.771 0.75,-2.435 0.003,-0.668 -0.14,-1.587 -0.742,-2.442 -0.603,-0.856 -1.741,-1.544 -3.258,-1.544 -3,0 -7.844,2.851 -7.844,2.851 l -2.371,-1.052 c 0,0 3.73,-2.271 4.77,-2.962 0.852,-0.547 0.439,-1.864 -0.574,-1.832 z M 14,20.995 c 1,0 3.803,1.319 5.355,2.02 -2.181,1.099 -4.303,1.977 -5.355,1.977 -0.983,0 -1.346,-0.318 -1.619,-0.707 C 12.108,23.896 12,23.322 12,22.99 c 0,-0.332 0.108,-0.906 0.381,-1.295 0.273,-0.389 0.636,-0.696 1.619,-0.696 z m 20,1.991 c 0.983,0 1.346,0.308 1.619,0.696 0.273,0.389 0.382,0.963 0.381,1.291 -10e-4,0.332 -0.112,0.909 -0.387,1.299 -0.275,0.39 -0.637,0.688 -1.613,0.696 -1,0.008 -3.845,-1.339 -5.416,-2.046 2.271,-1.071 4.443,-1.937 5.416,-1.937" style="fill:#ed7a13"/></g></g></svg>