<svg xmlns="http://www.w3.org/2000/svg" viewBox="0 0 256 256"><g transform="translate(0 -796.36)"><path d="m 229.63 992.2 c 92.05 -130.93 -77.948 -263.6 -186.39 -156.91 -102.17 100.51 -7.449 256.68 119.69 207.86 c 26.526 -10.185 49.802 -26.914 66.7 -50.948 z" fill="#c6376d" color="#000"/><g transform="matrix(0.4309 0 0 0.44829 9.408 820.98)"><path d="m 474.09 256.82 a 219.33 219.33 0 0 1 -438.65 0 219.33 219.33 0 1 1 438.65 0 z" fill="#e98ebf"/><path d="m 254.77 22.819 c -129.21 0 -233.95 104.74 -233.95 233.95 0 129.21 104.74 233.95 233.95 233.95 129.21 0 233.95 -104.74 233.95 -233.95 0 -129.21 -104.74 -233.95 -233.95 -233.95 z m 0 36.554 c 49.924 0 95.46 18.557 130.22 49.12 -25.581 31.2 -61.18 53.871 -103.04 70.14 -22.619 -42.589 -47.566 -80.929 -73.11 -113.78 14.744 -3.515 30.1 -5.483 45.921 -5.483 z m -84.07 18.734 c 24.16 32.667 49.29 70.11 72.88 113.09 -54.946 15.397 -117.7 22.485 -181.86 24.674 c 12.882 -61.1 53.887 -111.81 108.98 -137.76 z m 236.92 53.46 c 27.414 33.438 43.962 76.21 44.55 122.69 -47.981 -8.863 -93.94 -11.884 -137.31 -5.94 -5.615 -13.375 -11.25 -26.339 -17.363 -39.07 41.44 -17.479 79.19 -42.39 110.12 -77.68 z m -147.59 91.16 c 5.399 10.879 10.66 22.04 15.764 33.584 -63.17 17.715 -119.76 58.23 -168.15 132.05 -31.27 -34.926 -50.26 -81.02 -50.26 -131.6 0 -2.01 0.169 -3.941 0.228 -5.94 64.889 -1.892 136.47 -7.584 202.42 -28.1 z m 98.7 53.917 c 28.462 -1.13 58.874 2.35 90.93 11.652 -8.737 54.56 -39.857 101.43 -83.62 131.37 -8.953 -49.01 -22.2 -95.9 -38.61 -139.82 10.155 -1.61 20.581 -2.773 31.3 -3.198 z m -69.45 12.11 c 17.645 44.986 32.583 94.61 42.951 149.64 -23.79 10.164 -49.943 15.764 -77.45 15.764 -45.934 0 -88.23 -15.725 -121.77 -42.04 27.359 -46.49 81.993 -99.86 156.27 -123.37 z" fill="#c6376d"/></g></g></svg>