<?xml version="1.0" encoding="UTF-8" standalone="no"?>
<!-- Created with Inkscape (http://www.inkscape.org/) -->

<svg
   xmlns:dc="http://purl.org/dc/elements/1.1/"
   xmlns:cc="http://creativecommons.org/ns#"
   xmlns:rdf="http://www.w3.org/1999/02/22-rdf-syntax-ns#"
   xmlns:svg="http://www.w3.org/2000/svg"
   xmlns="http://www.w3.org/2000/svg"
   xmlns:sodipodi="http://sodipodi.sourceforge.net/DTD/sodipodi-0.dtd"
   xmlns:inkscape="http://www.inkscape.org/namespaces/inkscape"
   width="256"
   height="256"
   id="svg10914"
   version="1.1"
   inkscape:version="0.48.4 r9939"
   sodipodi:docname="eclipse.svg">
  <sodipodi:namedview
     id="base"
     pagecolor="#ffffff"
     bordercolor="#666666"
     borderopacity="1.0"
     inkscape:pageopacity="0.0"
     inkscape:pageshadow="2"
     inkscape:zoom="0.8"
     inkscape:cx="143.51131"
     inkscape:cy="231.61085"
     inkscape:document-units="px"
     inkscape:current-layer="layer1"
     showgrid="false"
     inkscape:showpageshadow="false"
     inkscape:snap-page="true"
     inkscape:snap-bbox="true"
     inkscape:window-width="770"
     inkscape:window-height="457"
     inkscape:window-x="0"
     inkscape:window-y="514"
     inkscape:window-maximized="0"
     inkscape:snap-global="false" />
  <defs
     id="defs10916" />
  <metadata
     id="metadata10919">
    <rdf:RDF>
      <cc:Work
         rdf:about="">
        <dc:format>image/svg+xml</dc:format>
        <dc:type
           rdf:resource="http://purl.org/dc/dcmitype/StillImage" />
        <dc:title></dc:title>
      </cc:Work>
    </rdf:RDF>
  </metadata>
  <g
     transform="translate(0,-796.36218)"
     id="layer1"
     inkscape:groupmode="layer"
     inkscape:label="Layer 1">
    <g
       style="fill:#00bfff"
       id="g11096"
       transform="translate(1605.4447,-659.12285)">
      <path
         sodipodi:nodetypes="ccc"
         inkscape:connector-curvature="0"
         id="path6974-8-7"
         d="m -1374.4196,1658.7106 c 125.1633,-274.0791 -273.698,-240.159 -226.0675,-62.2023 23.0171,102.819 167.39,165.2153 226.0675,62.2023 z"
         style="color:#000000;fill:#00bfff;fill-opacity:1;fill-rule:nonzero;stroke:none;stroke-width:4;marker:none;visibility:visible;display:inline;overflow:visible;enable-background:accumulate" />
      <g
         style="fill:#00bfff"
         id="g37928"
         transform="translate(-574.13509,0)" />
    </g>
    <g
       transform="matrix(0.1815508,0,0,0.19516474,33.90512,819.80258)"
       id="g8114">
      <g
         id="ico-shadow"
         style="fill:#000000"
         transform="matrix(1.0449442,-1.2370632e-4,1.2370632e-4,1.0449442,-21.797918,-21.059297)" />
      <g
         id="Calque.__209"
         style="fill:#ffffff"
         transform="matrix(1.0449442,-1.2370632e-4,1.2370632e-4,1.0449442,-21.797918,-21.059297)">
        <g
           id="shape8"
           style="fill:#ffffff">
          <path
             id="path4"
             d="M 844.3,196.15 Q 837.45,191.2 830,186.9 C 779.05,156.75 720.35,157.55 653.95,189.4 591.8,219 539.9,269.25 498.35,340.2 l -1.25,2.15 c -0.15,0.3 -0.35,0.6 -0.5,0.9 -8.55,15.2 -15.65,29.45 -21.4,42.75 -1.95,4.5 -2.15,9.15 -0.6,13.9 1.55,4.75 4.45,8.35 8.75,10.8 L 668.3,517.5 c 3.05,1.75 6.4,2.65 10,2.6 3.55,-0.05 6.9,-1.05 9.95,-2.9 3.1,-1.85 5.45,-4.35 7.1,-7.4 l 154.8,-288.55 c 2.25,-4.3 2.85,-8.85 1.75,-13.65 -1.15,-4.8 -3.65,-8.6 -7.6,-11.45 z"
             style="fill:#ffffff;fill-opacity:1"
             inkscape:connector-curvature="0" />
          <path
             id="path5"
             d="m 786.35,787.4 c 3.95,-2.85 6.45,-6.65 7.6,-11.45 1.1,-4.8 0.5,-9.35 -1.75,-13.65 L 557.4,553.75 c -1.65,-3.05 -4,-5.55 -7.1,-7.4 -3.05,-1.85 -6.4,-2.85 -9.95,-2.9 -3.6,-0.05 -6.95,0.85 -10,2.6 l -104.95,26.8 c -4.3,2.45 -7.2,6.05 -8.75,10.8 -1.55,4.75 -1.35,9.4 0.6,13.9 5.75,13.3 12.85,27.55 21.4,42.75 0.15,0.3 0.35,0.6 0.5,0.9 l 1.25,2.15 c 41.55,70.95 93.45,121.2 155.6,150.8 66.4,31.85 125.1,32.65 176.05,2.5 4.95,-2.85 9.75,-5.95 14.3,-9.25 z"
             style="fill:#ffffff;fill-opacity:1"
             inkscape:connector-curvature="0" />
        </g>
      </g>
      <g
         id="masked"
         mask="url(#ico-shadow2)"
         style="fill:#ffffff"
         transform="matrix(1.0449442,-1.2370632e-4,1.2370632e-4,1.0449442,-21.797918,-21.059297)">
        <g
           id="Calque.__210"
           style="fill:#ffffff">
          <g
             id="shape11"
             style="fill:#ffffff">
            <path
               id="path6"
               d="m 780.25,334.45 c -6.3,-4.2 -14.8,-9.35 -25.55,-15.5 -56.55,-24.45 -119.95,-36.7 -190.3,-36.7 -105.1,0 -194.8,27.3 -269.15,81.95 -52.15,38.35 -86,82.3 -101.55,131.85 l -13.65,0 c -13.8,0 -25.6,4.9 -35.35,14.65 -9.75,9.75 -14.65,21.55 -14.65,35.35 l 0,22 c 0,11.35 6.9,21.35 20.75,30 234.75,-15.35 394.05,-2.5 477.95,38.5 83.9,41 139.65,74.85 167.3,101.6 49.55,51.45 87.5,102.9 113.95,154.35 l 97.05,-301.05 c -14.45,-34.35 -40,-75.25 -76.55,-122.6 -36.55,-47.4 -69.15,-80.6 -97.8,-99.6 -28.65,-19.05 -46.15,-30.65 -52.45,-34.8 z"
               style="fill:#ffffff;fill-opacity:1"
               inkscape:connector-curvature="0" />
            <path
               id="path7"
               d="m 180.05,496.05 13.65,0 c 15.55,-49.55 49.4,-93.5 101.55,-131.85 74.35,-54.65 164.05,-81.95 269.15,-81.95 70.35,0 133.75,12.25 190.3,36.7 -66.1,-37.8 -142.85,-56.7 -230.3,-56.7 -105.1,0 -194.8,27.3 -269.15,81.95 -52.15,38.35 -86,82.3 -101.55,131.85 l -13.65,0 c -13.8,0 -25.6,4.9 -35.35,14.65 -9.75,9.75 -14.65,21.55 -14.65,35.35 l 0,22 c 0,13.8 4.9,25.6 14.65,35.35 9.75,9.75 25.1,14.6 46.1,14.65 l -0.025,0 0.025,0 c -13.85,-8.65 -20.75,-18.65 -20.75,-30 l 0,-22 c 0,-13.8 4.9,-25.6 14.65,-35.35 9.75,-9.75 21.55,-14.65 35.35,-14.65 z"
               style="fill:#ffffff;fill-opacity:1"
               inkscape:connector-curvature="0" />
          </g>
        </g>
      </g>
      <g
         id="Calque.__211"
         transform="matrix(1.0449442,-1.2370632e-4,1.2370632e-4,1.0449442,-21.797918,-21.059297)"
         style="fill:#afeeee">
        <g
           id="shape17"
           style="fill:#afeeee">
          <path
             id="path9"
             d="m 300.05,472.55 q 0,10.15 7.15,17.3 c 4.8,4.8 10.6,7.2 17.35,7.2 6.75,0 12.55,-2.4 17.3,-7.2 4.8,-4.75 7.2,-10.55 7.2,-17.3 0,-6.75 -2.4,-12.55 -7.2,-17.35 -4.75,-4.75 -10.55,-7.15 -17.3,-7.15 -6.75,0 -12.55,2.4 -17.35,7.15 -4.75,4.8 -7.15,10.6 -7.15,17.35 z"
             inkscape:connector-curvature="0"
             style="fill:#afeeee;fill-opacity:1" />
        </g>
      </g>
    </g>
  </g>
</svg>
