<svg xmlns="http://www.w3.org/2000/svg" viewBox="0 0 256 256" xmlns:xlink="http://www.w3.org/1999/xlink"><defs><path id="0" d="m 57.452 151.4968 c 0 0.36471 -0.443485 0.66036 -0.990551 0.66036 -0.547067 0 -0.990552 -0.29565 -0.990552 -0.66036 0 -0.36472 0.443485 -0.66037 0.990552 -0.66037 0.547066 0 0.990551 0.29565 0.990551 0.66037 z" style="fill:#421675;stroke:#421675;fill-rule:evenodd"/></defs><path d="m 210.33259,31.835332 c -95.76,-62.27 -183.000001,-12.03 -203.6900014,58.47 C -21.200411,185.13533 51.962589,313.89533 202.74259,229.05533 c 59.925,-33.72 75.79,-152.849998 7.587,-197.209998 z" style="fill:#421675;color:#000"/><g transform="matrix(1.4111894 0 0 1.2254311 -44.497587 162.40274)" style="fill-rule:evenodd"><path d="m 135.77829,-65.49728 c -18.46334,-0.26536 -42.810313,-0.52821 -54.10438,-0.584113 l -20.534666,-0.101639 0,-2.856997 0,-2.856997 46.961886,-0.178562 c 49.40857,-0.187865 75.17408,0.0028 77.85318,0.576121 1.21157,0.259273 1.60706,0.846353 1.60706,2.38559 0,1.122926 -0.40177,2.359663 -0.89281,2.748305 -1.44813,1.146129 -15.21524,1.381024 -50.89027,0.868292 z" style="fill:#13ea1e;stroke:#13ea1e;stroke-width:0.81567264"/><path d="m 126.50559,-47.618156 c -16.17568,-0.267261 -37.506007,-0.531994 -47.400712,-0.588298 l -17.99037,-0.102367 0,-2.877465 0,-2.877464 41.143192,-0.179842 c 43.28673,-0.189211 65.85983,0.0028 68.20698,0.580249 1.06145,0.26113 1.40794,0.852416 1.40794,2.40268 0,1.130971 -0.35199,2.376568 -0.78219,2.767994 -1.2687,1.15434 -13.33003,1.390918 -44.58484,0.874513 z" style="fill:#35dfff;stroke:#35dfff;stroke-width:0.76620013"/><path d="m 107.53995,-31.137261 c -11.498394,-0.271676 -26.660938,-0.540782 -33.694533,-0.598016 l -12.788354,-0.104058 0,-2.924998 0,-2.924996 29.246408,-0.182813 c 30.770129,-0.192337 46.816089,0.0028 48.484549,0.589834 0.75453,0.265444 1.00083,0.866497 1.00083,2.44237 0,1.149653 -0.25021,2.415826 -0.55602,2.813718 -0.90185,1.173408 -9.47557,1.413894 -31.69288,0.888959 z" style="fill:#fff;stroke:#fff;stroke-width:0.65130919"/></g><g transform="matrix(0.9762218 0 0 1 240.22565 -3.3443781)"><g style="fill:#fff;stroke:#fff;fill-rule:evenodd"><g transform="translate(-245.03311 -0.66225166)" style="stroke-width:0.37689766"><path d="m 45.995839 159.38315 c -0.533322 -0.34071 -1.159248 -0.96104 -1.390946 -1.37851 -0.510198 -0.91927 -0.561836 -5.97937 -0.108592 -10.64105 0.582129 -5.98729 1.469597 -4.76421 1.921054 2.64753 0.353604 5.80524 0.685038 6.51386 3.121667 6.67429 1.374497 0.0905 1.561592 0.013 1.99183 -0.82508 0.261162 -0.50873 0.657255 -1.81605 0.880207 -2.90516 0.92286 -4.50813 2.541295 -5.45851 7.363322 -4.32393 2.062922 0.48538 3.352543 1.43563 3.671148 2.70506 0.295212 1.17622 0.902693 0.95261 1.906627 -0.70179 0.840789 -1.38556 0.982278 -1.47472 2.340287 -1.47472 0.794967 0 2.174444 -0.22117 3.065504 -0.49148 0.89106 -0.27031 1.894212 -0.49308 2.229228 -0.49505 0.942622 -0.006 2.387058 1.18184 2.994219 2.46134 0.74248 1.56466 0.305048 2.29797 -1.971303 3.30469 -1.264012 0.559 -1.797052 0.9802 -1.797052 1.41999 0 0.61219 1.205702 1.39127 2.153136 1.39127 0.259551 0 0.708663 0.36133 0.998026 0.80295 1.04946 1.60168 -0.789921 3.0087 -2.829054 2.16406 -1.583714 -0.65599 -2.880036 -2.42846 -3.664156 -5.01 l -0.720166 -2.37099 l -1.229199 2.66201 c -1.342108 2.90654 -2.275515 4.0622 -3.280969 4.0622 -0.70534 0 -1.658641 -1.49914 -1.658641 -2.60835 0 -0.36351 -0.172354 -1.0392 -0.383008 -1.50154 -0.341461 -0.74942 -0.575944 -0.84061 -2.161604 -0.84061 -2.90084 0 -4.871345 1.45441 -3.302864 2.43781 0.402581 0.25241 1.288895 0.63551 1.969588 0.85134 0.960824 0.30464 1.237624 0.56332 1.237624 1.15658 0 1.45165 -2.421683 1.58859 -5.07554 0.28702 l -1.789833 -0.87782 l -1.574391 1.04283 c -1.823379 1.20776 -3.412596 1.32927 -4.906149 0.37511 z"/><path d="m 80.233648 159.7209 c -0.949162 -0.3874 -1.254239 -1.71648 -1.674328 -7.29431 -0.216843 -2.87919 -0.527734 -4.85573 -0.866934 -5.51167 -1.074936 -2.07869 -0.414813 -3.54077 1.255115 -2.7799 1.266704 0.57715 1.857721 2.39818 2.195099 6.76349 0.228629 2.95821 0.506731 4.46295 1.040808 5.63152 0.667184 1.45981 0.687129 1.66893 0.235865 2.47291 -0.547825 0.97602 -1.104959 1.15903 -2.185625 0.71796 z"/><path d="m 88.938342,150.92359 c -0.338306,-0.3383 -0.26809,-1.93448 0.131087,-2.97994 l 0.35474,-0.92908 1.295576,-0.0778 c 0.725232,-0.0436 0.777047,0.96543 0.887316,1.31609 0.127859,0.4066 -0.319215,1.86991 -0.664649,2.14628 -0.604476,0.48361 -1.746154,0.78239 -2.00407,0.52447 z"/><path d="m 88.946306 158.19229 c -0.329607 -0.32961 -0.277573 -2.17823 0.07709 -2.73866 0.24636 -0.3893 1.330744 -0.97456 2.305555 -0.23103 1.114772 0.85027 0.663674 2.29803 0.108515 2.62477 -0.54849 0.32282 -2.274302 0.56177 -2.49116 0.34492 z"/><path d="m 79.864081,185.45352 c -1.360411,-0.82942 -2.547583,-3.35539 -2.864897,-6.09571 -0.26152,-2.25849 -0.587897,-2.80528 -1.674446,-2.80528 -1.529052,0 -2.601667,2.18285 -3.283995,6.68317 -0.352171,2.32275 -1.310704,1.2071 -1.755163,-2.04285 -0.358342,-2.62025 0.04739,-5.5472 0.885073,-6.38488 0.871822,-0.87182 3.270474,-0.81783 5.13967,0.11569 l 1.410676,0.70453 1.358285,-0.69295 c 1.514817,-0.7728 2.94019,-0.8765 3.709957,-0.26991 1.075615,0.84761 1.635019,2.06393 1.635019,3.55503 0,1.63851 -0.05354,1.6927 -2.722772,2.75598 -2.029665,0.80851 -1.578078,2.17685 0.718416,2.17685 1.061045,0 2.172955,1.0648 1.887824,1.80784 -0.221889,0.57823 -1.54532,1.16307 -2.627725,1.16122 -0.396599,-6.9e-4 -1.213764,-0.30161 -1.815922,-0.66873 z"/><path d="m 89.621723 177.62816 c -0.902473 -0.94197 -1.191082 -2.18126 -0.59393 -2.55032 0.283117 -0.17498 1.21965 -1.33054 2.025711 -1.06473 0.694155 0.2289 1.291549 1.85316 1.291549 2.07834 0 0.24787 -0.408667 0.90804 -0.908149 1.46706 l -0.908148 1.01639 z"/><path d="m 88.592672 183.73075 c -0.365816 -1.36504 -0.235082 -2.55776 0.280355 -2.55776 0.910491 0 3.17016 1.07058 3.047768 1.44397 -0.08222 0.25084 -0.0305 1.74808 -0.664504 2.1688 -0.561798 0.3728 -1.803873 -0.31244 -2.056866 -0.31244 -0.224263 0 -0.497302 -0.33416 -0.606753 -0.74257 z"/><path d="m 64.292247 186.19788 c -0.768404 -0.24588 -1.991038 -1.45979 -2.546975 -2.52881 -0.277233 -0.5331 -0.578258 -2.16676 -0.668943 -3.63036 -0.207837 -3.35437 0.3387 -4.87665 2.042558 -5.68916 1.090474 -0.52001 1.253287 -0.52142 2.304825 -0.02 1.784967 0.85119 2.956568 3.15361 2.965425 5.82762 0.01165 3.51551 -2.12821 6.67063 -4.09689 6.04069 z m 1.110464 -4.1173 c 0.674194 -1.07522 0.957288 -3.09762 0.542177 -3.87326 -0.526907 -0.98454 -1.91888 -0.87545 -2.320875 0.18187 -1.033842 2.71921 0.453204 5.80532 1.778698 3.69139 z"/><path d="m 46.143356 186.02782 c -0.452188 -0.22878 -0.873622 -0.68318 -0.93652 -1.00979 -0.15766 -0.81866 0.869827 -1.86484 1.831526 -1.86484 1.337326 0 2.072367 -0.59053 2.072367 -1.66492 0 -0.78471 -0.273741 -1.16305 -1.36462 -1.88607 -0.750542 -0.49745 -1.807562 -1.31887 -2.348935 -1.82537 -0.918304 -0.85914 -0.97493 -1.05064 -0.844377 -2.85552 0.232154 -3.20949 2.328885 -5.2359 4.749792 -4.59047 0.559318 0.14911 1.278992 0.56068 1.599276 0.91459 0.565757 0.62515 0.534798 0.66756 -1.087601 1.48969 -2.166592 1.0979 -2.648736 1.94187 -1.780129 3.11605 0.352499 0.4765 1.056259 1.06985 1.563912 1.31854 1.056937 0.51777 1.849366 0.21324 4.405988 -1.69321 1.245187 -0.92852 1.68771 -1.06509 3.457347 -1.067 1.743634 -0.002 2.047186 0.0877 2.155784 0.63606 0.159767 0.80677 -0.776041 1.50697 -2.014045 1.50697 -1.446084 0 -2.881831 1.59501 -2.881831 3.20151 0 1.5971 0.694951 2.6069 2.237716 3.25151 1.256146 0.52485 2.382746 1.38792 2.382746 1.82538 0 0.58678 -1.105963 1.29255 -2.025468 1.29255 -1.116516 0 -2.006927 -0.40621 -3.36289 -1.53418 -1.245127 -1.03576 -2.279442 -0.97801 -3.623796 0.20235 -0.990852 0.86998 -2.507044 1.67058 -3.138044 1.657 -0.124322 -0.003 -0.596011 -0.19205 -1.048198 -0.42083 z"/><path d="m 43.619788,213.60875 c -0.264248,-0.42757 -0.597211,-10.80919 -0.576434,-15.2245 0.01155,-2.45512 1.237078,-0.70961 1.38115,-0.70961 0.30916,0 1.715928,3.22387 1.715928,3.93237 0,0.15248 0.214796,0.4555 0.477325,0.67338 0.396784,0.3293 0.647122,0.0598 1.483627,-1.59733 0.909561,-1.80183 2.111744,-3.00613 2.556683,-2.56119 0.09387,0.0939 0.845375,0.29435 0.459334,1.4544 -0.873848,2.62591 -1.931828,4.9142 -1.237623,6.18556 1.185193,2.17057 3.062264,3.71076 4.057121,3.329 0.73531,-0.28216 1.489879,-2.37124 1.233731,-3.41567 -0.122049,-0.49765 -0.570109,-1.42196 -0.995689,-2.05403 -0.425581,-0.63207 -0.773783,-1.3267 -0.773783,-1.54363 0,-0.47685 2.297876,-2.42266 2.860999,-2.42266 0.633055,0 0.791203,0.47589 1.292189,3.88841 0.258972,1.76401 0.789008,4.19404 1.177859,5.40005 1.006443,3.12147 0.565452,3.75334 -2.220977,3.18229 -1.089052,-0.2232 -1.449586,-0.49426 -1.89235,-1.42274 -0.300836,-0.63086 -0.692667,-1.14702 -0.870736,-1.14702 -0.507566,0 -1.00705,1.17128 -1.00705,2.36151 l -0.330184,0.0942 -1.732522,-1.02835 c -2.907283,-1.72563 -3.367993,-2.80193 -3.667453,-1.68416 -0.110782,0.4135 -0.20345,1.28574 -0.205928,1.9383 -0.0063,1.66401 -2.514504,3.45664 -3.185217,2.3714 z"/><path d="m 63.386349 212.11358 c -0.857288 -1.08269 -1.160335 -2.30019 -1.743697 -7.00535 -0.346156 -2.79195 -0.801759 -5.76087 -1.012451 -6.59761 -0.210692 -0.83673 -0.29668 -1.60773 -0.191085 -1.71332 0.413678 -0.41368 2.538308 0.27059 2.891962 0.93139 0.201841 0.37715 0.496246 2.19006 0.654234 4.02871 0.349552 4.06804 0.859142 6.35841 1.673002 7.51934 0.83042 1.18456 0.773519 1.75597 -0.255459 2.56537 -0.997128 0.78434 -1.551338 0.85895 -2.016506 0.27147 z"/><path d="m 71.590387 212.23472 c -0.326787 -0.21304 -0.578416 -1.82024 -0.880054 -5.62106 -0.394639 -4.97268 -0.490797 -5.44388 -1.462214 -7.16514 -1.322209 -2.34282 -1.161721 -2.83208 0.885566 -2.69969 1.865769 0.12065 1.99702 0.40468 2.046457 4.42862 0.04345 3.53639 0.486344 5.81845 1.581543 8.14902 0.690165 1.46866 0.818577 2.04642 0.550141 2.47524 -0.393437 0.62851 -2.023677 0.8879 -2.721439 0.43301 z"/><path d="m 78.549673,212.13009 c -0.556266,-0.55627 -0.497528,-1.08149 0.294593,-2.63418 l 0.690633,-1.35375 -1.070218,-1.51833 c -0.647605,-0.91876 -1.13206,-2.067 -1.226827,-2.90777 -0.136922,-1.21477 -0.03016,-1.51589 0.849247,-2.3953 0.752944,-0.75294 1.308138,-1.00586 2.208057,-1.00586 2.380619,0 3.10785,1.09165 1.818871,2.73032 -0.865083,1.09978 -0.83265,1.81297 0.148078,3.25624 0.444479,0.65411 0.893267,1.54255 0.997307,1.97431 0.269157,1.11698 -0.858465,2.77043 -2.439422,3.57698 -1.536868,0.78405 -1.738923,0.80873 -2.270319,0.27734 z"/><path d="m 89.056334 204.297 c -0.187904 -0.35111 -0.341644 -1.16794 -0.341644 -1.81518 0 -1.3275 0.443178 -1.46251 2.722772 -0.82943 1.682676 0.4673 1.927241 1.47054 -0.08436 2.95465 -1.34315 0.99094 -1.856344 0.5129 -2.296771 -0.31004 z"/><path d="m 88.822334 210.35041 c -0.105872 -0.2759 -0.05706 -0.97596 0.10847 -1.5557 0.381176 -1.33499 1.374067 -1.5229 2.577454 -0.48779 0.85651 0.73674 0.8678 1.61306 0.286654 2.11669 -0.332736 0.28835 -1.424558 0.85353 -2.022713 1.05418 -0.899487 0.30172 -0.790657 -0.71249 -0.949865 -1.12738 z"/><path d="m 144.73779 212.16966 c -0.73867 -0.43024 -0.73867 -1.57927 0 -2.62291 0.47672 -0.67353 0.57756 -1.54598 0.57756 -4.99687 0 -3.88136 -0.0532 -4.23753 -0.74257 -4.97177 -1.48974 -1.58668 -0.37733 -3.36575 1.62783 -2.60339 1.11942 0.4256 1.45035 1.92043 1.92368 8.68961 0.43213 6.17985 0.27547 6.86657 -1.56315 6.85176 -0.68518 -0.006 -1.50569 -0.16142 -1.82335 -0.34643 z"/></g><path d="m -90.788499 211.41409 c -0.688235 -0.23018 -1.508787 -0.68609 -1.823448 -1.01313 -0.464422 -0.48266 -0.340582 -0.71425 0.657815 -1.23012 0.676458 -0.34953 1.773328 -0.63552 2.437473 -0.63552 3.219776 0 3.99638 -3.35127 0.977322 -4.21739 -1.533871 -0.44004 -1.651065 -1.53175 -0.216346 -2.01521 3.311619 -1.11592 3.034102 -3.3045 -0.50365 -3.97187 -3.072304 -0.57957 -3.578432 -1.11811 -1.643046 -1.74827 3.001236 -0.97719 5.764057 -0.42937 7.157228 1.41916 1.133397 1.50386 1.351385 9.05626 0.314471 10.89539 -1.26038 2.23547 -4.690835 3.40896 -7.357819 2.51696 z" style="stroke-width:0.47210431"/><g transform="translate(-245.03311 -0.66225166)" style="stroke-width:0.37689766"><path d="m 170.25308 211.35003 c -0.71599 -0.64686 -1.55196 -1.83113 -1.85771 -2.63173 -1.10086 -2.88256 -0.0961 -6.53983 2.15242 -7.83435 1.64035 -0.94439 4.42012 0.75232 4.83233 2.94955 0.49269 2.6263 -0.46717 6.15735 -2.1611 7.95005 -0.95524 1.01094 -1.44659 0.93912 -2.96594 -0.43352 z m 2.27925 -2.93637 c 1.06935 -1.28849 0.62992 -4.79843 -0.60074 -4.79843 -0.90522 0 -1.42671 0.7853 -1.61177 2.42711 -0.2611 2.31647 1.07213 3.74539 2.21251 2.37132 z"/><path d="m 179.3859 210.29724 c -0.28495 -0.31702 -0.67753 -1.72917 -0.87241 -3.13812 -0.19487 -1.40896 -0.57834 -3.09788 -0.85214 -3.75318 -0.2738 -0.6553 -0.49782 -1.59453 -0.49782 -2.08718 0 -1.4099 5.33388 -8.59462 6.38057 -8.59462 0.23318 0 0.69966 0.2016 1.03662 0.44799 0.67048 0.49026 0.80557 0.13187 -1.67332 4.43923 l -0.62835 1.09184 l 0.90759 0.73574 c 1.18893 0.96381 1.14531 1.30042 -0.25503 1.96819 -1.46549 0.69884 -1.671 1.26457 -1.96688 5.41437 -0.25655 3.59813 -0.66352 4.49405 -1.57883 3.47574 z"/></g><path d="m -54.249449 211.13156 c -0.429783 -0.42125 -0.781427 -0.93182 -0.781427 -1.13462 0 -0.58095 1.65046 -1.45595 2.746258 -1.45595 1.133375 0 3.473654 -1.73813 3.473654 -2.57989 0 -0.97801 -1.319455 -1.89909 -3.56329 -2.48738 -0.483148 -0.12667 -0.814185 0.0762 -1.176468 -0.0691 -0.536015 -0.21498 -1.001689 -0.77579 -1.001689 -0.90958 0 -0.22419 1.020732 -0.61845 2.268286 -0.87612 1.76319 -0.36418 2.371941 -0.67396 2.733776 -1.39114 0.549994 -1.09017 0.01769 -1.43188 -2.72038 -1.74633 -2.114312 -0.24283 -2.955757 -0.82481 -2.528554 -1.74888 0.471636 -1.02018 2.465752 -1.19537 5.459506 -0.47964 l 2.624061 0.62735 l 0.641248 3.78684 c 0.08031 1.08396 -0.132846 1.14392 0.131698 2.35281 0.62854 2.87225 0.624075 6.835 -0.0072 6.835 -0.268792 0 -1.315141 0.37545 -2.325217 0.83435 -1.010062 0.4589 -2.591559 0.91849 -3.51442 1.0213 -1.389337 0.15478 -1.812321 0.0552 -2.45933 -0.57898 z" style="stroke-width:0.45272622"/><path d="m -40.65932,211.81886 c -0.517628,-0.13613 -1.431776,-0.61548 -2.031444,-1.06524 l -1.090321,-0.81774 1.271884,-0.69676 c 0.699534,-0.38322 1.726785,-0.69676 2.282753,-0.69676 3.870875,0 4.773477,-3.3286 1.054929,-4.73587 l -2.042518,-0.20534 -0.140756,-1.62543 1.777617,-0.22411 c 1.512677,-0.1907 1.986914,-1.41302 1.986914,-1.93442 0,-0.66732 -0.383082,-0.86256 -2.555304,-1.30234 -3.17773,-0.64337 -4.100869,-1.2883 -2.82231,-1.97171 1.162569,-0.62142 3.497156,-1.0706 4.574426,-0.88013 1.412148,0.24967 3.090258,2.11676 3.914318,4.35511 0.88996,2.41739 0.719861,7.04283 -0.319526,8.68852 -1.574727,2.49332 -3.77371,3.66106 -5.860662,3.11222 z" style="stroke-width:0.44962797"/><path d="m -53.87415,185.5144 c -1.317639,-0.16586 -3.114723,-1.31375 -3.114723,-1.98951 0,-0.26257 0.996828,-1.67929 2.215157,-3.14826 2.496599,-3.01019 3.702259,-5.31477 3.490353,-6.67159 -0.113392,-0.72604 -0.603849,-0.9901 -2.115132,-1.22781 -0.41339,-0.065 -0.92062,0.5633 -1.544419,0.47107 -0.645335,-0.0954 -0.887925,0.94673 -1.129794,0.64915 -0.125153,-0.15398 -1.186107,-0.47644 -1.122221,-1.30473 0.07187,-0.93181 0.938364,-1.67973 1.14278,-1.86172 0.886955,-0.78967 5.072933,-0.57439 7.261867,0.37346 l 1.905131,0.82496 1.225406,-0.71223 c 1.303942,-0.75786 4.710031,-1.17019 6.667648,-0.80714 2.100557,0.38954 1.227631,1.85345 -1.644477,2.75783 -0.672997,0.21191 -1.223641,0.5464 -1.223641,0.7433 0,0.1969 0.92761,1.19873 2.061364,2.22629 3.824161,3.466 4.070658,4.81365 1.421062,7.76932 -2.41936,2.69885 -4.096613,2.68974 -6.901242,-0.0374 -1.247923,-1.21349 -1.253262,-1.2401 -1.253262,-6.24984 0,-3.11469 -0.169499,-5.04273 -0.44497,-5.06153 -0.244717,-0.0167 -1.061435,1.42416 -1.814907,3.20189 -0.753472,1.77775 -1.740741,3.80786 -2.193935,4.51138 l -0.823985,1.27912 1.887591,1.1893 c 1.28218,0.80786 1.799888,1.35818 1.614128,1.71585 -0.48903,0.94163 -3.34376,1.63864 -5.565779,1.35892 z m 13.634818,-3.8888 c 1.425552,-1.60758 -0.461445,-3.59377 -2.698726,-2.84057 -1.436958,0.48376 -1.570635,2.05983 -0.25704,3.03044 1.195085,0.88302 2.053234,0.8279 2.955766,-0.18987 z" style="stroke-width:0.4367947"/><path d="m -45.072854,159.00999 c -2.876791,-0.72828 -2.407711,-2.45809 0.763367,-2.81501 1.069236,-0.12035 2.355291,-0.44447 2.857916,-0.72027 1.875182,-1.02896 0.80718,-3.35535 -2.021859,-4.40412 l -1.679581,0.22031 -0.2278,-0.92742 1.246593,-0.61486 c 2.805146,-1.38359 3.07429,-1.59093 3.07429,-2.3684 0,-0.67919 -0.360314,-0.86878 -2.219357,-1.16779 -3.451426,-0.55512 -3.524859,-0.58453 -3.524859,-1.41179 0,-1.14051 1.572541,-1.86576 4.045474,-1.86576 4.758809,0 5.460784,0.86253 5.772175,7.0923 0.271169,5.42487 -0.12405,6.4768 -3.059655,8.14318 -2.106542,1.19578 -3.018294,1.34807 -5.026704,0.83963 z" style="stroke-width:0.47271043"/></g><use transform="matrix(0 1.0707409 -0.98111138 0 -39.853887 90.378962)" xlink:href="#0"/><use transform="matrix(0 1.0707409 -0.98111138 0 -24.335247 90.21387)" xlink:href="#0"/><use transform="matrix(0 1.0707409 -0.98111138 0 -15.585377 116.62858)" xlink:href="#0"/></g></svg>