<svg xmlns="http://www.w3.org/2000/svg" xmlns:xlink="http://www.w3.org/1999/xlink" viewBox="0 0 256 256"><defs><linearGradient gradientUnits="userSpaceOnUse" y2="24" x2="8" y1="37" x1="13" id="6"><stop style="stop-color:#ec4c21"/><stop offset="1" style="stop-color:#ec7b0f"/></linearGradient><linearGradient gradientUnits="userSpaceOnUse" y2="40" x2="23" y1="33" x1="36" id="5"><stop style="stop-color:#06a370"/><stop offset="1" style="stop-color:#22d1b0"/></linearGradient><linearGradient id="7"><stop/><stop offset="1" style="stop-opacity:0"/></linearGradient><linearGradient gradientUnits="userSpaceOnUse" y2="24" x2="38" y1="12" x1="33" id="4"><stop style="stop-color:#faae2a"/><stop offset="1" style="stop-color:#ffc35a"/></linearGradient><linearGradient gradientUnits="userSpaceOnUse" y2="8" x2="24" y1="15" x1="12" id="3"><stop style="stop-color:#2e5d89"/><stop offset="1" style="stop-color:#1b92f4"/></linearGradient><linearGradient gradientUnits="userSpaceOnUse" y2="41.873" x2="25.387" y1="34.21" x1="17.725" id="0" xlink:href="#7"/><linearGradient gradientUnits="userSpaceOnUse" y2="15.713" x2="14.756" y1="10.361" x1="9.404" id="2" xlink:href="#7"/><linearGradient gradientUnits="userSpaceOnUse" y2="35.79" x2="39.724" y1="30.28" x1="34.21" id="1" xlink:href="#7"/></defs><path d="m 35.516 217.48 c -144.35 -225.37 249.92 -312.59 218.51 -80.74 -12.808 94.56 -163.29 166.95 -218.51 80.74 z" style="fill:#b0e0e6;color:#000"/><g transform="matrix(3.98049 0 0 4.0407 33.924 25.955)"><path d="M 24 4 A 20 20 0 0 0 9.262 10.516 L 12.05 23 C 12.57 16.785 17.764 12 24 12 L 27 8 L 26.14 4.121 A 20 20 0 0 0 24 4 z" style="fill:url(#3)"/><path d="m 9.404 10.361 a 20 20 0 0 0 -0.879 1 l -2.598 9.521 l 6.654 -0.512 a 12 12 0 0 1 2.482 -4.352 L 9.404 10.361 z" style="fill:url(#2);opacity:0.2;fill-rule:evenodd"/><path d="M 9.406 10.361 A 20 20 0 0 0 4 24 20 20 0 0 0 10.443 38.67 L 23 35.949 C 16.785 35.43 12 30.24 12 24 h 5.525 l -3.736 -6.275 l -1.217 -2.045 l -3.166 -5.318 z" style="fill:url(#6)"/><path d="m 35.949 25 c -0.52 6.215 -5.713 10.995 -11.949 11 v -5.525 l -6.275 3.736 l -2.045 1.217 l -5.318 3.166 a 20 20 0 0 0 13.639 5.406 20 20 0 0 0 14.775 -6.557 c -0.003 -0.004 -0.005 -0.008 -0.008 -0.012 l -2.818 -12.432 z" style="fill:url(#5)"/><path d="m 36.451 9.143 l -11.451 2.908 c 6.215 0.52 10.995 5.713 11 11.949 h -5.525 l 3.736 6.275 l 1.217 2.045 l 3.166 5.318 a 20 20 0 0 0 5.406 -13.639 20 20 0 0 0 -6.576 -14.793 c -0.324 -0.018 -0.649 -0.048 -0.973 -0.064 z" style="fill:url(#4)"/><path d="m 24.03 4 l -0.025 7.998 v 5.525 l 6.275 -3.736 l 2.045 -1.217 l 5.318 -3.166 a 20 20 0 0 0 -13.613 -5.404 z" style="fill:url(#3)"/><g style="fill-rule:evenodd"><path d="m 34.21 30.28 l 1.215 2.041 l 3.172 5.326 a 20 20 0 0 0 1.357 -1.623 l -5.744 -5.744 z" style="fill:url(#1);opacity:0.2"/><path d="m 17.725 34.21 l -2.045 1.217 l -5.326 3.172 a 20 20 0 0 0 13.646 5.4 20 20 0 0 0 3.227 -0.287 l -9.502 -9.502 z" style="fill:url(#0);opacity:0.2"/></g><path d="M 43.979 23.418 A 20 20 0 0 1 24 43 20 20 0 0 1 4.02 23.582 20 20 0 0 0 4 24 20 20 0 0 0 24 44 20 20 0 0 0 44 24 20 20 0 0 0 43.979 23.418 z" style="opacity:0.2;fill-opacity:0.314"/></g></svg>