<svg xmlns="http://www.w3.org/2000/svg" viewBox="0 0 256 256"><defs><clipPath><path transform="matrix(15.33333 0 0 11.5 415 -125.5)" d="m -24 13 c 0 1.105 -0.672 2 -1.5 2 -0.828 0 -1.5 -0.895 -1.5 -2 0 -1.105 0.672 -2 1.5 -2 0.828 0 1.5 0.895 1.5 2 z"/></clipPath></defs><g transform="translate(0.462 -0.179)"><path transform="translate(0.508 2.624)" d="m 222.65 37.868 c 145.18 221.56 -251.35 307.3 -219.76 79.37 12.881 -92.96 164.23 -164.13 219.76 -79.37 z" style="fill:#f0fff0;color:#000"/><g transform="matrix(1.19692 0 0 1.23192 -23.542 -34.56)"><path d="m 112.73 188.96 c -0.367 -0.367 -0.667 -2.204 -0.667 -4.083 0 -3.813 -2.271 -4.152 -2.82 -0.422 -0.45 3.061 -3.18 2.779 -3.18 -0.328 0 -1.375 -0.464 -2.5 -1.031 -2.5 -1.62 0 -2.312 2.882 -1.055 4.396 0.875 1.054 0.767 1.513 -0.47 1.987 -2.902 1.114 -3.444 0.66 -3.444 -2.883 0 -3.209 -0.245 -3.5 -2.951 -3.5 -9.855 0 -18.16 -4.695 -19.561 -11.05 -0.356 -1.621 -1.062 -2.948 -1.568 -2.948 -1.87 0 -0.841 -3.275 1.644 -5.229 l 2.565 -2.02 l -3.292 -2.748 c -2.772 -2.314 -3.292 -3.417 -3.292 -6.983 0 -5.744 3.952 -9.376 9.615 -8.836 3.13 0.299 3.84 0.043 3.84 -1.385 0 -2.026 4.798 -4.802 8.301 -4.802 4.317 0 8.853 -2.205 10.665 -5.185 1.386 -2.279 1.909 -2.581 2.374 -1.369 0.328 0.855 1.421 1.554 2.428 1.554 1.01 0 2.364 0.532 3.01 1.183 0.651 0.651 1.308 0.988 1.46 0.75 0.152 -0.238 1.69 -2.264 3.418 -4.502 l 3.141 -4.069 l -2.465 -13.872 c -2.143 -12.06 -2.849 -14.309 -5.401 -17.216 -2.14 -2.438 -2.937 -4.369 -2.937 -7.123 0 -7.973 9.505 -12.12 15.354 -6.7 1.455 1.349 2.646 3.265 2.646 4.258 0 0.993 1.158 3.98 2.572 6.638 1.415 2.658 2.313 5.509 1.996 6.335 -1.01 2.619 1.401 14.574 3.198 15.887 1.458 1.066 1.529 1.906 0.557 6.576 -0.94 4.515 -0.872 5.628 0.436 7.104 0.853 0.963 2.494 1.745 3.646 1.739 4.481 -0.023 12 -3.122 15.712 -6.476 2.139 -1.932 4.285 -3.514 4.77 -3.514 0.484 0 1.191 -2.897 1.57 -6.438 0.385 -3.591 1.321 -6.962 2.117 -7.622 3.336 -2.768 0.831 -13.8 -4.376 -19.275 -3.678 -3.867 -5.85 -4.933 -11.697 -5.737 -3.756 -0.516 -5.421 -0.319 -6.691 0.795 -1.258 1.102 -2.935 1.311 -6.548 0.814 -8.946 -1.23 -9.564 -3.957 -1.756 -7.75 3.776 -1.835 4.908 -2.01 6.519 -1 1.072 0.67 3.449 1.217 5.281 1.217 5.05 0 13.24 2.746 16.59 5.565 1.644 1.383 4.366 5.269 6.05 8.635 2.508 5.02 3.058 7.338 3.058 12.901 0 3.73 0.474 7.07 1.054 7.433 1.187 0.733 -0.806 4.343 -4.731 8.57 l -2.418 2.604 l 2.531 1.659 c 1.392 0.912 2.84 2.89 3.218 4.396 0.378 1.506 2.86 4.692 5.516 7.08 2.656 2.388 4.829 5.164 4.829 6.167 0 1 0.83 3.774 1.844 6.157 4.431 10.414 3.717 18.17 -2.248 24.391 l -4.096 4.271 v 8.08 c 0 10.496 -1.902 11.195 -2.292 0.842 -0.226 -5.989 -0.623 -7.75 -1.75 -7.75 -0.802 0 -1.458 0.627 -1.458 1.393 0 1.805 -2.55 2.758 -5.44 2.033 -1.94 -0.487 -2.376 -0.095 -2.921 2.626 -0.352 1.759 -0.64 4.267 -0.64 5.573 0 1.492 -0.584 2.375 -1.571 2.375 -1.279 0 -1.526 -1.105 -1.328 -5.941 0.221 -5.413 -0.98 -9.06 -2.983 -9.06 -1.793 0 -3.502 4.947 -3.282 9.5 0.228 4.698 0.06 5.08 -2.774 6.323 -4 1.756 -5.061 0.893 -5.07 -4.132 -0.007 -3.838 -0.344 -4.383 -4 -6.471 l -3.992 -2.28 v 4.03 c 0 2.848 -0.424 4.03 -1.445 4.03 -0.795 0 -2.036 1.232 -2.758 2.738 -1.43 2.983 -3.571 3.787 -7.477 2.806 -2.254 -0.566 -2.482 -1.053 -2.144 -4.589 0.35 -3.666 0.192 -3.955 -2.149 -3.942 -5.729 0.031 -7.03 0.973 -7.03 5.103 0 3.65 -0.799 4.751 -2.333 3.217 z m 38.02 -4.521 c -0.319 -0.798 -0.556 -0.561 -0.604 0.604 -0.043 1.054 0.193 1.645 0.525 1.313 0.332 -0.332 0.368 -1.195 0.079 -1.917 z m -18.871 -3.753 c -0.172 -0.449 -1.29 -0.448 -2.485 0.002 -1.526 0.574 -2.02 1.403 -1.658 2.786 0.512 1.958 0.526 1.958 2.485 -0.002 1.084 -1.084 1.829 -2.337 1.658 -2.786 z m -25.813 -17.559 c 0 -7.975 -0.306 -14.5 -0.679 -14.5 -0.373 0 -3.711 0.977 -7.417 2.17 -4.878 1.571 -7.03 2.817 -7.806 4.515 -0.588 1.29 -2.143 2.834 -3.457 3.433 -2.167 0.987 -2.284 1.365 -1.265 4.066 0.957 2.536 0.853 3.176 -0.706 4.316 -2.61 1.909 -1.768 5.696 1.627 7.318 1.538 0.735 5.185 1.583 8.105 1.884 l 5.308 0.548 l 0.78 -5.375 c 0.661 -4.555 0.897 -4.993 1.546 -2.875 0.421 1.375 0.81 3.963 0.865 5.75 0.067 2.178 0.594 3.25 1.6 3.25 1.264 0 1.5 -2.278 1.5 -14.5 z m 12.983 12.02 c 0.675 -0.814 3.425 -1.771 6.11 -2.127 5.306 -0.704 5.01 -0.033 3.408 -7.816 -0.275 -1.333 -1.562 -3.695 -2.86 -5.25 -1.337 -1.601 -2.666 -4.895 -3.064 -7.596 -0.952 -6.45 -3.612 -8.306 -9.159 -6.387 l -3.917 1.355 l -0.277 14.651 l -0.277 14.651 h 4.404 c 2.668 0 4.888 -0.583 5.632 -1.48 z m 41.21 -20.27 c -0.347 -15.04 -0.447 -15.171 -8.203 -11.128 -3.075 1.603 -5.04 1.967 -8.03 1.488 -4.966 -0.794 -4.993 -0.157 -0.348 8.307 5.17 9.421 7.379 10.565 7.403 3.833 0.008 -2.338 0.458 -4.925 1 -5.75 1.812 -2.76 3.137 0.975 2.557 7.203 -0.292 3.137 -0.125 5.955 0.371 6.261 0.497 0.307 1.21 1.956 1.585 3.664 0.655 2.984 0.746 3.03 2.327 1.239 1.386 -1.574 1.597 -3.95 1.339 -15.12 z m 15.09 11.739 c 1.406 -1.106 3.311 -3.988 4.234 -6.404 1.565 -4.098 1.566 -4.775 0.021 -10.09 -0.911 -3.134 -2.759 -6.719 -4.106 -7.968 -1.347 -1.249 -2.941 -3.678 -3.541 -5.399 -0.6 -1.721 -1.483 -3.129 -1.962 -3.129 -0.479 0 -0.629 0.629 -0.334 1.398 0.595 1.55 -3.23 5.602 -5.288 5.602 -0.993 0 -1.309 2.367 -1.3 9.75 0.006 5.363 0.293 11.46 0.639 13.549 0.584 3.534 0.821 3.757 3.394 3.191 1.541 -0.339 3.056 -0.139 3.42 0.451 0.939 1.519 1.93 1.323 4.823 -0.952 z m -37.603 -2.177 c -0.319 -0.798 -0.556 -0.561 -0.604 0.604 -0.043 1.054 0.193 1.645 0.525 1.313 0.332 -0.332 0.368 -1.195 0.079 -1.917 z m -3.683 -5.921 c 0 -2.524 -2.738 -7.891 -4.03 -7.891 -1.555 0 -1.126 6.338 0.594 8.794 1.768 2.524 3.432 2.086 3.432 -0.903 z m 11.558 -19.985 c 0.372 -0.602 1.861 -0.855 3.309 -0.564 2.806 0.566 10.133 -1.165 10.133 -2.394 0 -1.657 -3.198 -1.746 -8.685 -0.243 -6.02 1.65 -10.388 4.295 -7.088 4.295 0.91 0 1.96 -0.492 2.332 -1.094 z m -13.213 -17.449 c -0.326 -0.849 -0.807 -1.329 -1.069 -1.067 -0.262 0.262 -0.18 0.957 0.183 1.543 0.986 1.595 1.562 1.286 0.886 -0.477 z m -3.327 -17.495 l -1.074 -2.462 l 0.515 2.5 c 0.283 1.375 0.588 3.625 0.678 5 l 0.163 2.5 l 0.396 -2.538 c 0.218 -1.396 -0.087 -3.646 -0.678 -5 z m -57.796 32.4 c -3.906 -3.397 -5.01 -4.914 -4.243 -5.836 0.736 -0.887 0.292 -2.926 -1.541 -7.07 -5.388 -12.183 -3.964 -20.03 5.161 -28.439 4.375 -4.03 15.369 -10.01 18.411 -10.02 0.83 0 2.044 -0.856 2.696 -1.901 1.163 -1.863 1.327 -1.86 8.241 0.157 5.442 1.588 7.05 2.479 7.05 3.901 0 1.014 -0.114 1.843 -0.253 1.843 -0.139 0 -3.289 0.868 -6.999 1.929 -5.761 1.648 -6.949 1.726 -8.137 0.538 -3.835 -3.835 -21.23 8.178 -23.2 16.02 -1.521 6.06 2.07 17.512 5.489 17.512 2.559 0 3.635 1.647 5.068 7.762 2.224 9.488 0.136 10.458 -7.749 3.6 z" style="fill:#ecafaf"/><path d="m 88.48 180.57 c -4.873 -1.187 -10.02 -5.901 -10.924 -9.995 -0.356 -1.621 -1.062 -2.948 -1.568 -2.948 -1.983 0 -0.657 -3.621 2.132 -5.824 3.661 -2.892 6.109 -2.501 7.404 1.181 0.818 2.326 0.672 3.076 -0.81 4.159 -2.565 1.875 -1.733 5.685 1.587 7.271 6.594 3.151 29.405 3.557 32.839 0.584 0.865 -0.749 3.671 -1.649 6.235 -2 4.391 -0.602 4.63 -0.791 4.114 -3.255 -0.302 -1.439 -0.745 -3.594 -0.985 -4.789 -0.24 -1.195 -1.499 -3.445 -2.797 -5 -1.381 -1.654 -2.665 -4.903 -3.094 -7.827 -1.306 -8.899 -2 -9.04 -19.05 -3.849 -7.769 2.366 -12.705 4.437 -14 5.873 -2.915 3.234 -6.108 4.612 -9 3.885 -5.332 -1.338 -7.292 -8.616 -3.374 -12.533 1.842 -1.842 2.869 -2.042 7.75 -1.509 4.851 0.529 5.386 0.428 3.877 -0.737 -4.126 -3.186 -0.377 -6.827 8.154 -7.918 2.422 -0.31 5.666 -1.497 7.21 -2.638 4.512 -3.336 11.66 -2.251 10.202 1.547 -0.291 0.758 -0.061 1.378 0.511 1.378 0.572 0 1.314 -0.866 1.65 -1.924 0.336 -1.058 1.787 -3.646 3.225 -5.75 l 2.614 -3.826 l -2.34 -14.5 c -1.85 -11.462 -2.825 -15.09 -4.658 -17.327 -1.275 -1.555 -2.593 -3.921 -2.928 -5.257 -1.161 -4.625 4.917 -10.304 9.352 -8.739 3.415 1.206 6.259 4.639 6.259 7.556 0 1.638 0.425 2.622 0.985 2.276 1.444 -0.892 5.143 5.64 4.564 8.06 -0.842 3.515 1.41 14.68 3.229 16.01 1.491 1.09 1.541 1.872 0.455 7.05 -1.118 5.331 -1.061 5.986 0.681 7.728 1.852 1.852 2.097 1.856 9.245 0.124 4.839 -1.173 8.462 -2.751 10.627 -4.63 1.807 -1.568 3.923 -2.851 4.703 -2.851 3.167 0 6.561 2.492 7.705 5.657 0.683 1.89 1.903 3.343 2.805 3.343 2.067 0 9 7.094 9 9.209 0 0.894 0.95 3.8 2.112 6.458 1.404 3.212 2.144 7.083 2.208 11.542 0.086 6.02 -0.212 7.097 -2.909 10.5 -1.653 2.085 -4.896 4.679 -7.208 5.765 -2.312 1.086 -4.203 2.5 -4.203 3.143 0 2.148 -3.253 2.451 -7.899 0.736 -8.697 -3.21 -8.695 -4.999 0.012 -7.891 4 -1.33 5.25 -1.406 6.469 -0.394 2.216 1.839 6.455 -1.663 8.786 -7.259 1.771 -4.252 1.783 -4.779 0.225 -10.139 -0.955 -3.285 -2.887 -6.925 -4.61 -8.689 -1.832 -1.874 -3.211 -4.561 -3.605 -7.02 -0.519 -3.247 -0.894 -3.775 -2.02 -2.841 -0.971 0.806 -1.076 1.516 -0.353 2.388 2.419 2.914 -1.352 5.901 -8.743 6.926 -2.331 0.323 -6.05 1.533 -8.269 2.688 -3.171 1.653 -4.986 1.957 -8.512 1.429 -2.465 -0.37 -4.481 -0.274 -4.481 0.213 0 0.487 1.841 4.442 4.09 8.79 2.959 5.719 4.873 8.233 6.921 9.09 6.525 2.744 6.697 10.785 0.304 14.19 -3.389 1.805 -5.223 1.41 -8.456 -1.823 -2.701 -2.701 -2.923 -3.406 -2.327 -7.382 0.384 -2.563 0.248 -4.65 -0.327 -5.01 -0.543 -0.335 -2.213 -2.976 -3.712 -5.868 -4.711 -9.09 -6.493 -10.117 -6.493 -3.749 0 3.067 0.687 4.728 2.924 7.07 1.718 1.797 3.197 4.679 3.587 6.986 0.365 2.159 1.074 4.18 1.576 4.491 1.894 1.17 0.778 3.179 -3.218 5.796 -4.04 2.644 -4.548 2.715 -22.75 3.147 -10.637 0.253 -20.371 0.015 -22.706 -0.554 z m 14.587 -40.942 c 0 -0.55 -0.423 -1 -0.941 -1 -0.518 0 -1.219 0.45 -1.559 1 -0.34 0.55 0.084 1 0.941 1 0.857 0 1.559 -0.45 1.559 -1 z m 42.562 -1.101 c 0.383 -0.62 1.917 -0.853 3.51 -0.535 4.804 0.961 12.914 -2.519 10.03 -4.303 -1.702 -1.052 -14.98 2.449 -17.06 4.498 -1.282 1.261 -1.196 1.44 0.691 1.44 1.185 0 2.461 -0.495 2.836 -1.101 z m -13.201 -17.399 c -0.317 -0.825 -0.752 -1.5 -0.969 -1.5 -0.216 0 -0.393 0.675 -0.393 1.5 0 0.825 0.436 1.5 0.969 1.5 0.533 0 0.71 -0.675 0.393 -1.5 z m -2.814 -16.1 c -0.351 -1.87 -1.01 -3.4 -1.454 -3.4 -0.8 0 -0.562 3.038 0.627 8 0.908 3.785 1.638 -0.277 0.827 -4.6 z m -2.547 -12.9 c 0 -0.825 -0.177 -1.5 -0.393 -1.5 -0.216 0 -0.652 0.675 -0.969 1.5 -0.317 0.825 -0.14 1.5 0.393 1.5 0.533 0 0.969 -0.675 0.969 -1.5 z m -55.778 43.862 c -3.906 -3.397 -5.01 -4.914 -4.243 -5.836 0.736 -0.887 0.292 -2.926 -1.541 -7.07 -5.388 -12.183 -3.964 -20.03 5.161 -28.439 4.375 -4.03 15.369 -10.01 18.411 -10.02 0.83 0 2.044 -0.856 2.696 -1.901 1.163 -1.863 1.327 -1.86 8.241 0.157 5.442 1.588 7.05 2.479 7.05 3.901 0 1.014 -0.114 1.843 -0.253 1.843 -0.139 0 -3.289 0.868 -6.999 1.929 -5.761 1.648 -6.949 1.726 -8.137 0.538 -3.835 -3.835 -21.23 8.178 -23.2 16.02 -1.521 6.06 2.07 17.512 5.489 17.512 2.559 0 3.635 1.647 5.068 7.762 2.224 9.488 0.136 10.458 -7.749 3.6 z m 92.3 -19.324 c -1.055 -1.708 0.559 -11.862 2.088 -13.13 3.299 -2.738 0.761 -13.801 -4.415 -19.244 -3.678 -3.867 -5.85 -4.933 -11.697 -5.737 -3.756 -0.516 -5.421 -0.319 -6.691 0.795 -1.258 1.102 -2.935 1.311 -6.548 0.814 -8.946 -1.23 -9.564 -3.957 -1.756 -7.75 3.776 -1.835 4.908 -2.01 6.519 -1 1.072 0.67 3.449 1.217 5.281 1.217 5.05 0 13.24 2.746 16.59 5.565 1.644 1.383 4.366 5.269 6.05 8.635 2.489 4.982 3.058 7.355 3.058 12.76 0 3.652 0.474 7.114 1.053 7.693 0.737 0.737 0.048 2.37 -2.297 5.445 -3.398 4.455 -6.03 5.888 -7.232 3.94 z" style="fill:#a1e59f"/><path d="m 90.32 179.43 c -5.915 -1.079 -11.251 -5.434 -11.251 -9.182 0 -1.223 -0.529 -2.752 -1.176 -3.399 -1.468 -1.468 1.57 -5.224 4.224 -5.224 2.751 0 3.233 2.952 0.804 4.919 -1.643 1.33 -1.995 2.373 -1.486 4.4 0.97 3.865 4.252 5.535 13.424 6.832 4.478 0.633 7.906 1.534 7.617 2 -0.647 1.047 -5.233 0.917 -12.156 -0.346 z m 17.396 0.432 c -0.379 -0.613 1.887 -1.275 5.786 -1.693 4.13 -0.442 6.603 -1.194 6.956 -2.115 0.329 -0.858 1.933 -1.429 4.01 -1.429 4.967 0 9.07 -1.712 7.831 -3.267 -1.578 -1.98 -2.075 -7.733 -0.668 -7.733 1.445 0 2.434 2.245 2.434 5.523 0 1.298 0.45 2.637 1 2.977 3.828 2.366 -2.886 6.873 -10.5 7.05 -2.75 0.063 -7.527 0.471 -10.616 0.906 -3.556 0.501 -5.844 0.422 -6.238 -0.216 z m 34.21 -4.223 c -2.65 -2.65 -2.922 -3.467 -2.414 -7.25 0.502 -3.739 0.044 -5.185 -3.724 -11.753 -3.838 -6.69 -4.676 -7.551 -7.847 -8.07 -1.952 -0.317 -5.01 -1.618 -6.798 -2.89 l -3.248 -2.313 l -12.664 3.851 c -9.101 2.767 -13.368 4.586 -15.16 6.463 -3.55 3.709 -6.566 5.092 -9.503 4.355 -5.332 -1.338 -7.292 -8.616 -3.374 -12.533 1.848 -1.848 2.843 -2.039 7.67 -1.471 4.707 0.553 7.376 0.09 17.627 -3.057 13.298 -4.083 14.58 -4.736 14.58 -7.436 0 -1.014 1.398 -3.435 3.107 -5.381 l 3.107 -3.539 l -2.575 -14.564 c -2.097 -11.859 -3.045 -15.12 -5.107 -17.573 -1.393 -1.655 -2.807 -4.103 -3.142 -5.439 -1.161 -4.625 4.917 -10.304 9.352 -8.739 5.644 1.993 7.881 7.918 4.777 12.655 -1.33 2.03 -1.209 3.823 1.191 17.562 2.516 14.402 2.823 15.358 5.232 16.27 1.407 0.533 3.509 1.86 4.671 2.948 2.055 1.924 2.298 1.933 8.823 0.294 4.47 -1.123 8.05 -2.807 10.732 -5.05 2.212 -1.848 4.633 -3.36 5.38 -3.36 6.573 0 10.923 8.454 6.438 12.513 -1.195 1.082 -1.789 2.534 -1.459 3.571 0.746 2.35 -0.935 3.214 -7.834 4.03 -3.195 0.377 -6.606 1.406 -7.58 2.287 -1.848 1.673 -9.113 2.25 -9.113 0.725 0 -1.886 3.277 -3.439 6.952 -3.295 4.184 0.164 11.05 -2.236 11.05 -3.862 0 -0.554 -1.057 -1.49 -2.349 -2.078 -1.8 -0.82 -3.96 -0.625 -9.25 0.837 -6.536 1.806 -7.03 2.151 -9.276 6.511 l -2.375 4.604 l 4.677 8.58 c 2.646 4.854 5.325 8.58 6.17 8.58 2.529 0 6.405 4.688 6.37 7.705 -0.036 3.198 -1.511 5.459 -4.652 7.132 -3.389 1.805 -5.223 1.41 -8.456 -1.823 z m 20.39 -1.504 c -1.787 -0.777 -3.25 -1.682 -3.25 -2.01 0 -1.535 7.494 -3.59 10.957 -3 3.392 0.573 4.01 0.289 7.317 -3.374 2.039 -2.257 3.908 -5.568 4.289 -7.599 0.948 -5.05 -1.316 -12.241 -5.21 -16.552 -3.274 -3.624 -5.781 -11.968 -3.596 -11.968 1.378 0 8.243 7.7 8.249 9.253 0.003 0.686 1.117 3.947 2.476 7.247 2.691 6.533 3.103 10.821 1.458 15.185 -1.511 4.01 -6.745 9.114 -10.1 9.85 -1.571 0.345 -3.319 1.491 -3.884 2.546 -1.205 2.251 -4.176 2.397 -8.707 0.428 z m -37.05 -16.709 c -1.279 -1.279 -1.64 -6.03 -0.542 -7.125 1.325 -1.325 3.342 1.661 3.342 4.947 0 3.549 -0.803 4.174 -2.8 2.178 z m -35.7 -16.8 c -1.117 -1.807 0.558 -3 4.214 -3 3.533 0 3.564 0.035 1.786 2 -1.933 2.136 -4.984 2.644 -6 1 z m -16.847 -5.285 c -2.116 -1.79 -3.702 -3.921 -3.524 -4.735 0.177 -0.814 -0.904 -4.522 -2.403 -8.241 -3.899 -9.67 -3.742 -15.958 0.547 -21.991 1.8 -2.532 4.388 -5.475 5.75 -6.541 3.715 -2.906 12.634 -7.208 14.944 -7.208 1.118 0 2.951 -0.917 4.072 -2.039 1.993 -1.993 2.162 -2 7.5 -0.317 3 0.947 5.461 2.077 5.461 2.511 0 1.489 -11.1 4.146 -12.3 2.945 -1.76 -1.76 -5.04 -1.289 -10.301 1.48 -5.573 2.935 -11.89 8.636 -13.981 12.621 -3.545 6.752 0.121 21.51 5.668 22.82 1.766 0.417 2.599 1.696 3.588 5.511 0.708 2.733 1.297 5.306 1.307 5.718 0.042 1.643 -2.678 0.554 -6.327 -2.535 z m 31.893 1.415 l -2.953 -0.633 l 2.668 -1.748 c 4.884 -3.2 10.141 -1.551 6.539 2.052 -1.284 1.285 -1.7 1.306 -6.253 0.33 z m 28.489 -18.06 c -1.227 -2.293 -1.38 -7.07 -0.226 -7.07 0.445 0 1.623 0.595 2.618 1.323 1.398 1.022 1.651 2.046 1.112 4.5 -0.796 3.622 -2 4.05 -3.504 1.243 z m 31.965 -7.944 c 0 -3.877 0.44 -5.17 2.142 -6.3 2.034 -1.35 2.085 -1.748 1.01 -7.872 -2.026 -11.535 -8.638 -18.229 -19.216 -19.457 -5.083 -0.59 -6.261 -0.429 -7.305 0.999 -1.03 1.409 -1.996 1.554 -5.609 0.839 -2.401 -0.475 -4.542 -1.394 -4.758 -2.043 -0.574 -1.721 7.01 -5.362 8.8 -4.228 0.791 0.5 3.043 0.916 5.01 0.925 5.571 0.024 14.15 2.931 17.275 5.856 4.981 4.658 7.994 11.815 8.297 19.71 0.149 3.878 0.54 7.753 0.869 8.61 0.606 1.58 -3.863 7.839 -5.597 7.839 -0.501 0 -0.911 -2.195 -0.911 -4.878 z m -34.75 -9.847 c -0.688 -1.47 -1.25 -4.48 -1.25 -6.688 0 -3.635 0.147 -3.867 1.558 -2.457 1.104 1.104 1.468 3.053 1.25 6.688 -0.296 4.943 -0.353 5.03 -1.558 2.457 z" style="fill:#b0b419"/><path d="m 90.32 179.43 c -5.915 -1.079 -11.251 -5.434 -11.251 -9.182 0 -1.223 -0.529 -2.752 -1.176 -3.399 -1.468 -1.468 1.57 -5.224 4.224 -5.224 2.751 0 3.233 2.952 0.804 4.919 -1.643 1.33 -1.995 2.373 -1.486 4.4 0.97 3.865 4.252 5.535 13.424 6.832 4.478 0.633 7.906 1.534 7.617 2 -0.647 1.047 -5.233 0.917 -12.156 -0.346 z m 17.396 0.432 c -0.379 -0.613 1.887 -1.275 5.786 -1.693 4.13 -0.442 6.603 -1.194 6.956 -2.115 0.329 -0.858 1.933 -1.429 4.01 -1.429 4.967 0 9.07 -1.712 7.831 -3.267 -1.578 -1.98 -2.075 -7.733 -0.668 -7.733 1.445 0 2.434 2.245 2.434 5.523 0 1.298 0.45 2.637 1 2.977 3.828 2.366 -2.886 6.873 -10.5 7.05 -2.75 0.063 -7.527 0.471 -10.616 0.906 -3.556 0.501 -5.844 0.422 -6.238 -0.216 z m 34.19 -4.246 c -2.667 -2.667 -2.934 -3.458 -2.344 -6.946 0.568 -3.364 0.122 -4.927 -3.069 -10.741 -2.054 -3.742 -4.83 -7.995 -6.168 -9.452 -2.025 -2.203 -2.246 -3 -1.316 -4.738 2.163 -4.04 9.06 -4.04 9.06 0.004 0 3.163 8.823 18.883 10.598 18.883 2.529 0 6.405 4.688 6.37 7.705 -0.036 3.198 -1.511 5.459 -4.652 7.132 -3.394 1.808 -5.224 1.409 -8.479 -1.846 z m 20.413 -1.481 c -1.787 -0.777 -3.25 -1.682 -3.25 -2.01 0 -1.535 7.494 -3.59 10.957 -3 3.392 0.573 4.01 0.289 7.317 -3.374 2.039 -2.257 3.908 -5.568 4.289 -7.599 0.948 -5.05 -1.316 -12.241 -5.21 -16.552 -3.274 -3.624 -5.781 -11.968 -3.596 -11.968 1.378 0 8.243 7.7 8.249 9.253 0.003 0.686 1.117 3.947 2.476 7.247 2.691 6.533 3.103 10.821 1.458 15.185 -1.511 4.01 -6.745 9.114 -10.1 9.85 -1.571 0.345 -3.319 1.491 -3.884 2.546 -1.205 2.251 -4.176 2.397 -8.707 0.428 z m -82.935 -16.516 c -4.532 -1.826 -5.754 -8.554 -2.199 -12.11 1.842 -1.842 2.849 -2.033 7.769 -1.476 4.799 0.543 7.312 0.11 16.634 -2.866 6.04 -1.928 11.778 -3.513 12.753 -3.524 1.605 -0.017 4.629 4.449 3.641 5.378 -0.227 0.213 -6.378 2.257 -13.669 4.541 -9.939 3.114 -13.634 4.729 -14.764 6.454 -1.373 2.095 -5.546 4.702 -7.277 4.546 -0.387 -0.035 -1.686 -0.459 -2.888 -0.944 z m 45.885 -0.193 c -1.279 -1.279 -1.64 -6.03 -0.542 -7.125 1.325 -1.325 3.342 1.661 3.342 4.947 0 3.549 -0.803 4.174 -2.8 2.178 z m 17.8 -14.678 c 0 -1.886 3.277 -3.439 6.952 -3.295 4.184 0.164 11.05 -2.236 11.05 -3.862 0 -0.554 -1.063 -1.492 -2.361 -2.084 -1.833 -0.835 -4.01 -0.61 -9.716 1.01 -7.639 2.162 -8.263 2.057 -9.359 -1.576 -0.787 -2.607 0.598 -3.498 8.22 -5.287 3.226 -0.757 6.866 -2.561 9.345 -4.632 2.233 -1.866 4.671 -3.392 5.418 -3.392 6.573 0 10.923 8.454 6.438 12.513 -1.195 1.082 -1.789 2.534 -1.459 3.571 0.746 2.35 -0.935 3.214 -7.834 4.03 -3.195 0.377 -6.606 1.406 -7.58 2.287 -1.848 1.673 -9.113 2.25 -9.113 0.725 z m -53.5 -2.122 c -1.117 -1.807 0.558 -3 4.214 -3 3.533 0 3.564 0.035 1.786 2 -1.933 2.136 -4.984 2.644 -6 1 z m -16.847 -5.285 c -2.116 -1.79 -3.702 -3.921 -3.524 -4.735 0.177 -0.814 -0.904 -4.522 -2.403 -8.241 -3.899 -9.67 -3.742 -15.958 0.547 -21.991 1.8 -2.532 4.388 -5.475 5.75 -6.541 3.715 -2.906 12.634 -7.208 14.944 -7.208 1.118 0 2.951 -0.917 4.072 -2.039 1.993 -1.993 2.162 -2 7.5 -0.317 3 0.947 5.461 2.077 5.461 2.511 0 1.489 -11.1 4.146 -12.3 2.945 -1.76 -1.76 -5.04 -1.289 -10.301 1.48 -5.573 2.935 -11.89 8.636 -13.981 12.621 -3.545 6.752 0.121 21.51 5.668 22.82 1.766 0.417 2.599 1.696 3.588 5.511 0.708 2.733 1.297 5.306 1.307 5.718 0.042 1.643 -2.678 0.554 -6.327 -2.535 z m 31.893 1.415 l -2.953 -0.633 l 2.668 -1.748 c 4.884 -3.2 10.141 -1.551 6.539 2.052 -1.284 1.285 -1.7 1.306 -6.253 0.33 z m 18.957 -11.38 c -0.238 -0.688 -1.564 -7.697 -2.945 -15.578 -2.041 -11.642 -2.985 -14.89 -5.04 -17.327 -1.388 -1.65 -2.798 -4.093 -3.134 -5.43 -1.161 -4.625 4.917 -10.304 9.352 -8.739 5.66 1.998 7.88 7.919 4.757 12.686 -1.359 2.075 -1.234 3.782 1.314 17.951 1.902 10.578 2.487 15.988 1.802 16.672 -1.425 1.425 -5.59 1.264 -6.11 -0.236 z m 9.532 -6.684 c -1.227 -2.293 -1.38 -7.07 -0.226 -7.07 0.445 0 1.623 0.595 2.618 1.323 1.398 1.022 1.651 2.046 1.112 4.5 -0.796 3.622 -2 4.05 -3.504 1.243 z m 31.965 -7.944 c 0 -3.877 0.44 -5.17 2.142 -6.3 2.034 -1.35 2.085 -1.748 1.01 -7.872 -2.026 -11.535 -8.638 -18.229 -19.216 -19.457 -5.083 -0.59 -6.261 -0.429 -7.305 0.999 -1.03 1.409 -1.996 1.554 -5.609 0.839 -2.401 -0.475 -4.542 -1.394 -4.758 -2.043 -0.574 -1.721 7.01 -5.362 8.8 -4.228 0.791 0.5 3.043 0.916 5.01 0.925 5.571 0.024 14.15 2.931 17.275 5.856 4.981 4.658 7.994 11.815 8.297 19.71 0.149 3.878 0.54 7.753 0.869 8.61 0.606 1.58 -3.863 7.839 -5.597 7.839 -0.501 0 -0.911 -2.195 -0.911 -4.878 z m -34.75 -9.847 c -0.688 -1.47 -1.25 -4.48 -1.25 -6.688 0 -3.635 0.147 -3.867 1.558 -2.457 1.104 1.104 1.468 3.053 1.25 6.688 -0.296 4.943 -0.353 5.03 -1.558 2.457 z" style="fill:#4fd24f"/><path d="m 141.9 175.62 c -2.667 -2.667 -2.934 -3.458 -2.344 -6.947 0.568 -3.364 0.122 -4.927 -3.069 -10.741 -2.054 -3.742 -4.83 -7.995 -6.168 -9.452 -2.025 -2.203 -2.246 -3 -1.316 -4.738 2.163 -4.04 9.06 -4.04 9.06 0.004 0 3.163 8.823 18.883 10.598 18.883 2.529 0 6.405 4.688 6.37 7.705 -0.036 3.198 -1.511 5.459 -4.652 7.132 -3.394 1.808 -5.224 1.409 -8.479 -1.846 z m 40.608 -19.296 c -0.003 -2.307 -0.355 -5.545 -0.782 -7.195 l -0.777 -3 l 1.522 2.5 c 1.616 2.655 2.069 8.702 0.802 10.695 -0.418 0.657 -0.762 -0.693 -0.765 -3 z m -103.13 1.298 c -4.532 -1.826 -5.754 -8.554 -2.199 -12.11 1.842 -1.842 2.849 -2.033 7.769 -1.476 4.799 0.543 7.312 0.11 16.634 -2.866 6.04 -1.928 11.778 -3.513 12.753 -3.524 1.605 -0.017 4.629 4.449 3.641 5.378 -0.227 0.213 -6.378 2.257 -13.669 4.541 -9.939 3.114 -13.634 4.729 -14.764 6.454 -1.373 2.095 -5.546 4.702 -7.277 4.546 -0.387 -0.035 -1.686 -0.459 -2.888 -0.944 z m 100.68 -12.749 c 0 -0.599 -1.38 -2.47 -3.067 -4.157 -2.922 -2.922 -5.652 -9.09 -4.02 -9.09 0.423 0 1.322 1.238 1.998 2.75 0.675 1.512 2.39 4.446 3.809 6.518 1.419 2.072 2.289 4.06 1.932 4.417 -0.357 0.357 -0.649 0.158 -0.649 -0.441 z m -40.02 -10.805 c -0.578 -1.52 -0.669 -3.146 -0.203 -3.613 0.466 -0.466 3.835 -1.676 7.486 -2.689 4.142 -1.149 7.986 -3.02 10.224 -4.989 1.972 -1.732 4.224 -3.148 5 -3.148 4.396 0 8.512 4.332 8.512 8.958 0 2.086 -5.357 7.04 -7.612 7.04 -0.802 0 -2.584 -0.737 -3.959 -1.639 -2.326 -1.524 -2.971 -1.513 -9.215 0.154 -3.693 0.986 -7.27 1.994 -7.95 2.24 -0.68 0.246 -1.709 -0.796 -2.287 -2.317 z m -16.473 -8.689 c -0.238 -0.688 -1.564 -7.697 -2.945 -15.578 -2.041 -11.642 -2.985 -14.89 -5.04 -17.327 -1.388 -1.65 -2.798 -4.093 -3.134 -5.43 -1.161 -4.625 4.917 -10.304 9.352 -8.739 5.66 1.998 7.88 7.919 4.757 12.686 -1.359 2.075 -1.234 3.782 1.314 17.951 1.902 10.578 2.487 15.988 1.802 16.672 -1.425 1.425 -5.59 1.264 -6.11 -0.236 z" style="fill:#5a5857"/><path d="m 141.42 175.07 c -2.168 -2.168 -2.453 -3.115 -1.877 -6.25 0.373 -2.032 1.021 -4.049 1.439 -4.483 1.046 -1.085 -7.523 -17.347 -9.551 -18.13 -1.492 -0.573 -1.479 -0.803 0.154 -2.607 2.331 -2.576 4.481 -2.527 4.481 0.103 0 1.145 1.91 5.607 4.245 9.915 3.667 6.766 4.74 7.982 7.881 8.923 4.663 1.397 6.273 3.4 6.273 7.803 0 6.843 -8.02 9.746 -13.05 4.722 z m -64.35 -19.445 c -2.571 -2.571 -2.571 -7.429 0 -10 2.738 -2.738 8.304 -2.68 10.154 0.105 l 1.398 2.105 l 12.938 -4.091 c 8.353 -2.642 13.281 -3.748 13.907 -3.122 0.533 0.533 0.712 1.227 0.397 1.542 -0.315 0.315 -6.135 2.269 -12.933 4.342 -9.159 2.793 -12.63 4.305 -13.4 5.838 -2.868 5.708 -8.54 7.202 -12.461 3.282 z m 106.08 -3.583 c 0.048 -1.165 0.285 -1.402 0.604 -0.604 0.289 0.722 0.253 1.584 -0.079 1.917 -0.332 0.332 -0.569 -0.258 -0.525 -1.313 z m -7.449 -13.206 c -1.032 -1.669 -2.59 -6.211 -2.131 -6.211 0.75 0 3.683 6.151 3.175 6.659 -0.26 0.26 -0.73 0.059 -1.044 -0.449 z m -35.13 -5.211 c -0.939 -1.519 0.185 -2.708 3.241 -3.431 9.825 -2.325 13.316 -3.722 13.04 -5.223 -0.157 -0.868 0.913 -2.484 2.378 -3.592 4.713 -3.565 10.837 -0.366 10.837 5.663 0 5.618 -5.939 8.512 -10.992 5.357 -1.586 -0.991 -3.269 -0.893 -8.736 0.508 -7.816 2 -8.927 2.085 -9.772 0.719 z m -15.223 -8.25 c -0.532 -0.688 -2.038 -7.754 -3.347 -15.702 -1.81 -10.99 -2.832 -14.823 -4.267 -16 -5.633 -4.62 -6.762 -7.723 -4.221 -11.599 3.082 -4.703 9.05 -5.179 12.516 -0.999 1.943 2.341 1.707 7.159 -0.468 9.562 -1.795 1.983 -1.77 2.459 0.915 17.976 1.517 8.766 2.47 16.406 2.118 16.976 -0.858 1.388 -2.068 1.308 -3.245 -0.213 z" style="fill:#b31e1e"/><path d="m 137.13 154.75 c -2.177 -4.33 -4.718 -8.164 -5.647 -8.521 -1.57 -0.602 -1.562 -0.788 0.102 -2.627 2.346 -2.592 4.481 -2.522 4.481 0.148 0 1.17 1.8 5.388 4 9.373 4.353 7.886 4.78 9.5 2.511 9.5 -0.857 0 -3.168 -3.34 -5.447 -7.873 z m 46.01 -2.711 c 0.048 -1.165 0.285 -1.402 0.604 -0.604 0.289 0.722 0.253 1.584 -0.079 1.917 -0.332 0.332 -0.569 -0.258 -0.525 -1.313 z m -95.41 -1.083 c -1.053 -1.053 -0.776 -4.519 0.307 -3.85 0.536 0.331 6.707 -1.211 13.714 -3.427 8.225 -2.601 13.08 -3.685 13.71 -3.06 1.471 1.471 0.73 1.827 -11.527 5.533 -6.254 1.891 -12.152 3.895 -13.11 4.454 -2.051 1.2 -2.226 1.22 -3.097 0.35 z m 87.963 -12.12 c -1.032 -1.669 -2.59 -6.211 -2.131 -6.211 0.75 0 3.683 6.151 3.175 6.659 -0.26 0.26 -0.73 0.059 -1.044 -0.449 z m -35.18 -5.298 c -1.041 -1.684 0.457 -2.538 8.554 -4.878 10.868 -3.142 11.5 -3.116 11.5 0.465 0 2.731 -0.269 2.974 -3 2.711 -1.65 -0.159 -5.25 0.399 -8 1.239 -5.945 1.817 -8.147 1.929 -9.05 0.462 z m -15.14 -8.163 c -1.045 -1.614 -6.222 -31.01 -5.636 -32 0.245 -0.412 1.237 -0.75 2.205 -0.75 1.491 0 2.182 2.439 4.523 15.963 1.52 8.78 2.474 16.43 2.122 17 -0.864 1.398 -2.23 1.308 -3.214 -0.213 z" style="fill:#313030"/></g></g></svg>