<svg xmlns="http://www.w3.org/2000/svg" xmlns:xlink="http://www.w3.org/1999/xlink" viewBox="0 0 256 256"><defs><path id="0" d="m 245.46 129.52 l -97.89 -96.9 c -5.556 -5.502 -16.222 -11.873 -23.7 -14.16 l -39.518 -12.08 c -7.479 -2.286 -18.1 0.391 -23.599 5.948 l -13.441 13.578 c -5.5 5.559 -14.502 14.653 -20 20.21 l -13.44 13.579 c -5.5 5.558 -8.07 16.206 -5.706 23.658 l 12.483 39.39 c 2.363 7.456 8.843 18.06 14.399 23.556 l 97.89 96.9 c 5.558 5.502 14.605 5.455 20.1 -0.101 l 36.26 -36.63 c 5.504 -5.559 14.503 -14.651 20 -20.21 l 36.26 -36.629 c 5.502 -5.56 5.455 -14.606 -0.101 -20.11 z m -178.09 -50.74 c -7.198 0 -13.03 -5.835 -13.03 -13.03 0 -7.197 5.835 -13.03 13.03 -13.03 7.197 0 13.03 5.835 13.03 13.03 -0.001 7.198 -5.836 13.03 -13.03 13.03 z"/><use id="1" xlink:href="#0"/><clipPath style="clip-path:url(#2)"><use xlink:href="#0"/></clipPath><clipPath style="clip-path:url(#2)"><use xlink:href="#0"/></clipPath><clipPath id="2"><use xlink:href="#1"/></clipPath></defs><path d="M 24.210605,188.31305 C 92.08856,341.88655 322.72768,204.81279 235.57503,61.711987 164.72146,-77.31533 -75.492981,46.381952 24.210605,188.31305 z" style="fill:#a52a2a;color:#000"/><g style="fill:#ffe4e1;opacity:0.52999998"><path d="m 126.21668,156.00124 c -1.76353,-1.08828 -4.22174,-3.0497 -5.46269,-4.35871 -1.99016,-2.09926 -2.92639,-2.39537 -7.93725,-2.51041 -12.859847,-0.29522 -26.100658,-9.90003 -30.145397,-21.86731 -2.982744,-8.8251 -1.591461,-21.40108 3.309802,-29.917691 6.124527,-10.642217 13.646197,-15.00907 37.486065,-21.763311 5.67827,-1.608753 12.33413,-4.124163 14.79078,-5.589801 l 4.46663,-2.664794 3.87603,-16.731517 c 4.3654,-18.844013 5.16107,-20.165857 10.13868,-16.843381 1.42556,0.95154 2.87826,1.441352 3.2282,1.088467 0.8731,-0.880427 11.38856,1.63661 11.78918,2.821926 0.17745,0.525022 1.15811,1.148132 2.17926,1.384691 3.19789,0.740824 3.1243,4.131764 -0.42186,19.439364 l -3.42238,14.773296 2.17134,3.224433 c 1.19423,1.773442 6.42439,7.13515 11.62257,11.914928 12.1373,11.160344 18.40582,18.67142 21.39773,25.63927 5.32386,12.39872 1.88837,30.17551 -7.70023,39.8446 -8.86565,8.94006 -26.04974,11.84983 -37.36966,6.32777 -3.70829,-1.80896 -4.76931,-1.88135 -9.965,-0.67982 -6.71856,1.55369 -18.62677,-0.19648 -24.0318,-3.532 z m 23.00692,-3.16711 c 10.46473,-3.53875 16.19553,-14.098 15.81946,-29.14805 -0.19691,-7.88024 -2.46865,-18.63627 -5.1178,-24.231336 -2.15163,-4.544252 -2.21655,-7.107094 -0.19735,-7.78954 2.7712,-0.936629 5.35703,2.040744 8.01169,9.224816 5.905,15.98012 5.33442,36.00719 -1.33153,46.73581 -1.83192,2.94843 -3.19935,5.74959 -3.03874,6.22481 0.16062,0.47522 1.94015,1.24583 3.95453,1.71248 15.6467,3.62472 31.435,-6.87638 33.80033,-22.48124 2.04246,-13.47469 -2.84549,-22.1106 -23.03688,-40.700886 -8.30586,-7.647238 -12.72915,-13.045289 -13.91813,-16.985228 -0.41746,-1.383332 0.42694,-8.113571 2.07592,-16.545975 l 2.77961,-14.214137 -4.02369,-1.68311 c -2.21303,-0.92571 -5.19247,-1.523552 -6.62099,-1.328537 -2.58012,0.352223 -2.61754,0.441962 -5.65686,13.561688 -2.0799,8.978224 -3.7238,14.130827 -5.13402,16.091948 -2.96903,4.128872 -9.51416,7.169828 -25.76679,11.971593 -21.40308,6.323445 -29.523039,12.140943 -33.183648,23.774254 -4.737409,15.05534 4.825039,31.42919 20.471738,35.05391 2.01438,0.46665 3.9515,0.55703 4.30471,0.20085 0.35322,-0.35618 0.35681,-3.47329 0.008,-6.92691 -0.75891,-7.5138 2.03543,-17.84498 7.53365,-27.85324 4.0073,-7.29437 6.59825,-9.42381 8.76048,-7.20001 1.75247,1.80237 1.40198,2.99688 -3.73299,12.72249 -8.24122,15.60885 -7.57868,27.53254 1.98816,35.78128 6.19859,5.34456 13.355,6.70244 21.25116,4.03227 z" transform="matrix(1.00465 -0.16755572 0.16056878 0.96275695 -36.511184 57.478433)"/></g><g style="fill:#fff"><path d="m 126.21668,156.00124 c -1.76353,-1.08828 -4.22174,-3.0497 -5.46269,-4.35871 -1.99016,-2.09926 -2.92639,-2.39537 -7.93725,-2.51041 -12.859847,-0.29522 -26.100658,-9.90003 -30.145397,-21.86731 -2.982744,-8.8251 -1.591461,-21.40108 3.309802,-29.917691 6.124527,-10.642217 13.646197,-15.00907 37.486065,-21.763311 5.67827,-1.608753 12.33413,-4.124163 14.79078,-5.589801 l 4.46663,-2.664794 3.87603,-16.731517 c 4.3654,-18.844013 5.16107,-20.165857 10.13868,-16.843381 1.42556,0.95154 2.87826,1.441352 3.2282,1.088467 0.8731,-0.880427 11.38856,1.63661 11.78918,2.821926 0.17745,0.525022 1.15811,1.148132 2.17926,1.384691 3.19789,0.740824 3.1243,4.131764 -0.42186,19.439364 l -3.42238,14.773296 2.17134,3.224433 c 1.19423,1.773442 6.42439,7.13515 11.62257,11.914928 12.1373,11.160344 18.40582,18.67142 21.39773,25.63927 5.32386,12.39872 1.88837,30.17551 -7.70023,39.8446 -8.86565,8.94006 -26.04974,11.84983 -37.36966,6.32777 -3.70829,-1.80896 -4.76931,-1.88135 -9.965,-0.67982 -6.71856,1.55369 -18.62677,-0.19648 -24.0318,-3.532 z m 23.00692,-3.16711 c 10.46473,-3.53875 16.19553,-14.098 15.81946,-29.14805 -0.19691,-7.88024 -2.46865,-18.63627 -5.1178,-24.231336 -2.15163,-4.544252 -2.21655,-7.107094 -0.19735,-7.78954 2.7712,-0.936629 5.35703,2.040744 8.01169,9.224816 5.905,15.98012 5.33442,36.00719 -1.33153,46.73581 -1.83192,2.94843 -3.19935,5.74959 -3.03874,6.22481 0.16062,0.47522 1.94015,1.24583 3.95453,1.71248 15.6467,3.62472 31.435,-6.87638 33.80033,-22.48124 2.04246,-13.47469 -2.84549,-22.1106 -23.03688,-40.700886 -8.30586,-7.647238 -12.72915,-13.045289 -13.91813,-16.985228 -0.41746,-1.383332 0.42694,-8.113571 2.07592,-16.545975 l 2.77961,-14.214137 -4.02369,-1.68311 c -2.21303,-0.92571 -5.19247,-1.523552 -6.62099,-1.328537 -2.58012,0.352223 -2.61754,0.441962 -5.65686,13.561688 -2.0799,8.978224 -3.7238,14.130827 -5.13402,16.091948 -2.96903,4.128872 -9.51416,7.169828 -25.76679,11.971593 -21.40308,6.323445 -29.523039,12.140943 -33.183648,23.774254 -4.737409,15.05534 4.825039,31.42919 20.471738,35.05391 2.01438,0.46665 3.9515,0.55703 4.30471,0.20085 0.35322,-0.35618 0.35681,-3.47329 0.008,-6.92691 -0.75891,-7.5138 2.03543,-17.84498 7.53365,-27.85324 4.0073,-7.29437 6.59825,-9.42381 8.76048,-7.20001 1.75247,1.80237 1.40198,2.99688 -3.73299,12.72249 -8.24122,15.60885 -7.57868,27.53254 1.98816,35.78128 6.19859,5.34456 13.355,6.70244 21.25116,4.03227 z" transform="matrix(0.98637576 -0.16450793 0.16450793 0.98637576 -38.629565 49.908782)" style="fill:#fff"/></g></svg>