<svg xmlns="http://www.w3.org/2000/svg" viewBox="0 0 256 256"><g transform="translate(0 -796.36)"><path d="m -1374.42 1658.71 c 127.95 -192.46 -280.09 -311 -226.07 -62.2 23.02 102.82 167.39 165.22 226.07 62.2 z" transform="matrix(0 1 -1 0 1711.48 2401.81)" style="fill:#dcdcdc;color:#000"/><path d="m 170.63 1005.06 c -1.448 -0.567 -4.168 -1.328 -6.04 -1.691 -4.285 -0.828 -18.732 -13.09 -21.998 -18.677 l -2.453 -4.192 l -12.291 -0.712 c -11.328 -0.656 -12.536 -0.972 -15.424 -4.03 -2.91 -3.079 0.584 -1.041 -1.594 0.752 -3.646 -0.55 -9.232 0.308 -12.639 -1.849 -1.428 -0.904 -4.532 -2.027 -6.898 -2.495 -2.886 -0.571 -11.557 -5.691 -12.889 -8.04 -1.46 -2.569 3.663 0.196 1.012 0.196 -2.554 0 -6.144 -2.085 -12.316 -7.153 -6.898 -5.664 -9.868 -9.28 -14.272 -17.368 -3.059 -5.618 1.642 -0.392 0.514 0.828 -1.671 1.807 -9.553 -13.478 -8.171 -21.54 2.207 -12.875 2.137 -16.02 4.87 -17.12 1.979 -0.793 -0.298 2.856 0.203 0.009 0.755 -4.289 7.174 -15.296 11.495 -19.71 6.186 -6.32 24.79 -18.558 28.23 -18.574 0.919 -0.003 3.449 -0.889 5.621 -1.966 2.172 -1.077 6.02 -2.294 8.557 -2.704 3.454 -0.559 3.366 -1.012 5.318 -1.581 3.715 -1.084 3.157 -1.03 19.844 -2 14.981 -0.872 27.528 3.512 27.365 4.652 -0.524 3.668 -7.556 -1.185 -3.321 -1.185 2.446 0 5.171 0.794 6.06 1.765 0.885 0.971 3.772 2.076 6.414 2.456 7.64 1.099 15.898 5.057 17.586 8.427 0.918 1.833 0.649 -0.159 5.107 3.723 3.96 3.448 12.05 8.02 18.207 18.722 l 4.79 9.534 l 0.583 13.984 c 0.59 14.158 -0.002 14.183 -5.318 23.846 -6.08 11.05 -15.641 19.781 -30.684 28.01 l -9.02 4.933 l 0.916 7.779 c 0.504 4.279 1.532 9.01 2.285 10.514 1.413 2.822 7.08 5.25 12.247 5.25 1.622 0 4.328 1.016 6.01 2.258 2.628 1.936 2.813 2.534 1.301 4.192 -1.942 2.13 -14.438 2.611 -19.214 0.741 z m -9.563 -16.304 c -1.447 -9.431 -1.68 -19.524 -0.513 -22.24 0.971 -2.259 3.906 -4.3 9.968 -6.933 13.41 -5.823 25.554 -17.804 29.705 -29.31 2.198 -6.089 1.788 -19.95 -0.802 -27.15 -3.634 -10.11 -17.416 -22.778 -30.77 -28.28 -14.165 -5.84 -23.52 -7.756 -38.18 -7.82 -13.78 -0.06 -27.23 2.517 -36.765 7.05 -1.863 0.885 -3.857 1.612 -4.431 1.616 -2.595 0.018 -16.11 10.391 -20.943 16.08 -23.515 27.652 -5.267 62.58 38.783 74.23 4.478 1.184 12.216 1.932 19.997 1.932 11.792 0 12.927 0.213 15.992 3 1.815 1.651 4.305 5.02 5.535 7.496 4.691 9.429 13.391 16.669 12.42 10.335 z m -69.828 -41.831 c -1.9 -1.246 -2.886 -2.958 -2.633 -4.571 0.346 -2.209 1.283 -2.587 6.523 -2.631 6.748 -0.058 10.336 -1.994 10.336 -5.58 0 -1.971 -0.616 -2.221 -3.872 -1.57 -7.758 1.55 -13.248 -4.506 -13.233 -14.598 0.01 -6.772 2.79 -11.189 9.747 -15.491 3.587 -2.218 5.831 -2.805 8.602 -2.251 7.316 1.462 8.08 3.492 7.511 19.901 -0.541 15.52 -2.183 21.303 -7.227 25.457 -3.777 3.11 -11.986 3.806 -15.754 1.335 z m 13.475 -24.01 c 1.138 -1.035 2.134 -2.518 2.213 -3.294 1.08 -10.56 0.455 -12.308 -3.944 -11.04 -5.722 1.653 -8.949 12.524 -4.428 14.92 3.122 1.654 3.761 1.593 6.159 -0.588 z m 22.307 9.09 c -4.242 -1.558 -8.391 -7.654 -8.391 -12.328 0 -5.319 4.505 -14.619 8.233 -16.995 4.638 -2.956 9.908 -2.285 14.44 1.837 3.499 3.184 3.788 3.905 2.161 5.385 -1.557 1.417 -2.623 1.454 -6.229 0.217 -4.081 -1.4 -4.547 -1.284 -7.528 1.869 -3.312 3.502 -4.263 9.663 -1.713 11.1 0.806 0.453 4.624 0.758 8.484 0.677 8.815 -0.185 10.193 1.573 4.721 6.02 -4.267 3.469 -8.831 4.183 -14.179 2.218 z m 27.08 -1.515 c -10.254 -9.832 -4.349 -29.946 8.791 -29.946 5.682 0 11.279 6.181 12.03 13.286 1.477 13.99 -12.195 24.931 -20.821 16.66 z m 10.314 -7.554 c 3.191 -2.034 3.924 -7.376 1.563 -11.39 -1.536 -2.611 -5.217 -3.038 -7.589 -0.879 -2.118 1.927 -2.065 12.559 0.066 13.341 2.591 0.951 2.864 0.902 5.96 -1.071 z" style="fill:#2f4f4f"/></g></svg>