<svg xmlns="http://www.w3.org/2000/svg" viewBox="0 0 256 256" xmlns:xlink="http://www.w3.org/1999/xlink"><defs><path id="0" d="m 35.527,35.872 c 0,1.212 0.419,2.203 0.932,2.203 1.845,0 7.174,6.38 20.701,24.787 7.57,10.301 15.794,20.826 18.276,23.391 5.247,5.425 6.597,5.197 12.93,-2.152 3.137,-3.64 4.462,-4.384 7.808,-4.384 6.63,0 12.197,4.118 41.554,30.732 14.396,13.05 18.257,14.06 26.972,7.02 2.95,-2.383 8.918,-8.453 13.262,-13.488 10.248,-11.883 8.318,-12.367 -8.296,-2.082 -6.917,4.282 -13.435,7.785 -14.483,7.785 -2.683,0 -10.201,-5.378 -28.699,-20.525 C 107.464,73.579 104.728,71.556 99.915,69.506 96.426,68.017 95.895,68.124 88.865,71.739 77.409,77.628 77.03,77.494 66.176,63.689 47.22,39.589 35.528,28.975 35.528,35.872 z" style="opacity:0.97"/><clipPath><path transform="matrix(15.33333 0 0 11.5 415 -125.5)" d="m -24 13 c 0 1.105 -0.672 2 -1.5 2 -0.828 0 -1.5 -0.895 -1.5 -2 0 -1.105 0.672 -2 1.5 -2 0.828 0 1.5 0.895 1.5 2 z"/></clipPath></defs><g transform="translate(0.508 2.624)"><path d="m 222.65 37.868 c 145.18 221.56 -251.35 307.3 -219.76 79.37 12.881 -92.96 164.23 -164.13 219.76 -79.37 z" style="fill:#9acd32;color:#000"/><g transform="matrix(-0.51709 0 0 0.81169 233.21 3.03)" style="fill:#ffd700"><use xlink:href="#0"/><path d="m 112.49,56.1 c -0.757,1.059 -7.147,16.303 -14.2,33.874 -7.05,17.571 -13.407,32.17 -14.12,32.439 -0.714,0.27 -1.997,-0.992 -2.851,-2.805 -0.854,-1.813 -5.454,-10.06 -10.222,-18.335 l -8.669,-15.04 -11.904,9.928 -11.904,9.928 -9.113,-8.406 c -8.125,-7.494 -13.803,-10.52 -13.803,-7.356 0,0.61 4.898,6.704 10.884,13.541 l 10.884,12.431 8.06,-7.378 c 9.512,-8.708 15.271,-10.798 18.1,-6.565 1.048,1.564 5.741,11.974 10.441,23.13 5.058,12.02 9.111,19.887 9.943,19.303 1.901,-1.335 4.341,-8.06 12.986,-35.787 8.587,-27.542 14.791,-43.655 17.22,-44.708 2.659,-1.159 12.253,6.475 24.16,19.226 l 10.802,11.566 7.754,-9.85 c 9.765,-12.405 13.04,-14.819 21.473,-15.83 l 6.777,-0.812 -4.452,-2.724 c -6.297,-3.852 -10.389,-2.313 -21.15,7.948 -5.078,4.845 -10.312,9.253 -11.629,9.795 -1.745,0.718 -5.383,-2.02 -13.398,-10.08 C 117.922,56.79 114.132,53.798 112.499,56.089 z" style="opacity:0.97"/></g><path d="m 125.88 1.996 h 10.111 v 247.75 h -10.111 z" style="fill:#6b8e23"/><path d="m 89.71 250.02 c -46.24 -8.398 -76.23 -35.04 -86.77 -77.1 -2.795 -11.146 -3.827 -37.31 -2.029 -51.47 3.553 -27.999 15.181 -50.12 38.535 -73.31 21.38 -21.23 47.969 -36.601 76.57 -44.28 c 4.228 -1.135 8.505 -2.063 9.505 -2.063 1.73 0 1.819 6.086 1.819 124.88 v 124.88 l -15.16 -0.11 c -8.337 -0.061 -18.449 -0.708 -22.472 -1.439 z m -26.855 -34.957 c 0.734 -8.03 2.56 -11.161 12.551 -21.483 l 8.503 -8.785 l -7.631 -8.665 c -8.37 -9.505 -17.789 -22.782 -17.789 -25.08 0 -1.347 5.641 -5.494 7.485 -5.503 1.929 -0.009 28.482 42.14 28.482 45.21 0 1.135 -2.492 7.367 -5.539 13.849 -6.665 14.184 -7.411 16.374 -5.578 16.374 1.757 0 14.216 -13.05 18.303 -19.17 6.02 -9.01 5.489 -13.01 -3.389 -25.76 -3.501 -5.03 -10.234 -14.676 -14.963 -21.441 -4.82 -6.896 -8.206 -12.684 -7.707 -13.175 0.489 -0.481 8.52 -3.92 17.845 -7.642 23.512 -9.385 30.829 -12.799 30.829 -14.385 0 -1.658 -3.556 -3.952 -21.837 -14.09 c -17.313 -9.599 -17.204 -9.261 -7.505 -23.453 l 6.625 -9.694 l -10.893 -11.278 c -7.194 -7.448 -11.239 -10.935 -11.911 -10.268 c -1.486 1.474 0.803 6.291 7.175 15.1 3 4.154 5.463 7.805 5.463 8.112 0 0.307 -3.468 5.535 -7.707 11.617 -4.239 6.082 -7.707 11.483 -7.707 12 0 0.52 6.474 5.395 14.387 10.833 7.913 5.438 14.387 10.236 14.387 10.662 0 0.426 -5.202 3.551 -11.561 6.945 -16.298 8.7 -20.42 10.68 -21.01 10.09 -0.284 -0.282 -0.517 -2.188 -0.517 -4.234 0 -2.59 0.918 -4.858 3.02 -7.459 5.01 -6.202 5.451 -7.512 3.725 -11.05 c -0.842 -1.725 -10.261 -11.235 -20.93 -21.13 -10.669 -9.897 -19.688 -18.901 -20.04 -20.01 c -0.955 -2.985 -4.616 -2.632 -4.616 0.445 0 3.218 5.914 10.551 20.705 25.675 6.633 6.782 12.339 13.436 12.681 14.788 0.382 1.508 -0.427 5.212 -2.093 9.588 -2.61 6.857 -2.961 12.297 -1.085 16.815 0.46 1.108 -1.208 2.512 -6.05 5.097 -4.109 2.193 -6.686 4.222 -6.687 5.265 -0.001 0.933 2.593 5.062 5.765 9.175 3.171 4.113 8.258 10.73 11.304 14.705 3.046 3.975 5.538 8.168 5.538 9.318 0 1.15 -2.16 5 -4.801 8.561 -8.115 10.936 -10.613 15.387 -10.613 18.91 0 3.842 2.919 11.765 4.074 11.06 0.425 -0.261 1.019 -3.165 1.32 -6.455 z" style="fill:#2f4f4f"/><path d="m 61.01 222.75 c -1.215 -1.854 -2.299 -5.608 -2.528 -8.753 -0.212 -2.911 -0.166 -3.108 1.489 -6.343 0.939 -1.836 3.909 -6.469 6.6 -10.295 5.835 -8.299 7.134 -10.695 6.747 -12.455 -0.398 -1.812 -3.566 -6.487 -10.832 -15.986 -7.13 -9.321 -9.808 -13.04 -10.838 -15.07 -1.123 -2.21 -0.615 -2.708 7.813 -7.639 3.814 -2.232 4.555 -3.2 3.897 -5.089 -1.396 -4 -0.99 -8.147 1.596 -16.288 1.784 -5.617 2.228 -7.801 1.876 -9.207 -0.358 -1.425 -4.679 -6.459 -14.15 -16.479 -13.542 -14.333 -16.762 -18.18 -18.505 -22.12 -0.884 -1.998 -0.738 -3.22 0.46 -3.862 1.109 -0.593 1.861 -0.155 3.398 1.983 0.753 1.047 6.42 6.776 12.593 12.732 6.173 5.955 15.01 14.61 19.635 19.234 11.202 11.195 11.194 11.168 5.525 18.683 -3.2 4.242 -4.148 6.866 -3.739 10.347 0.147 1.254 0.423 2.436 0.613 2.626 0.479 0.479 3.425 -0.839 12.925 -5.783 9.567 -4.979 15.645 -8.336 18.18 -10.05 l 1.814 -1.222 l -1.712 -1.519 c -0.941 -0.835 -6.454 -4.882 -12.249 -8.992 -5.796 -4.11 -11.503 -8.287 -12.682 -9.283 l -2.144 -1.81 l 0.668 -1.302 c 0.367 -0.716 3.772 -5.914 7.567 -11.551 3.794 -5.637 6.898 -10.488 6.898 -10.78 0 -0.292 -2.028 -3.479 -4.507 -7.083 -5.073 -7.376 -7.237 -10.918 -7.949 -13.01 -0.505 -1.486 -0.422 -2.865 0.173 -2.865 0.803 0 4.861 3.74 13.236 12.197 l 8.933 9.02 l -5.188 7.622 c -7.951 11.681 -8.923 13.95 -7.171 16.742 1.184 1.887 4.205 3.884 15.439 10.207 16.825 9.47 20.408 11.907 19.361 13.169 -1.294 1.559 -9.15 5.12 -30.28 13.723 -14.13 5.752 -18.01 7.516 -18.01 8.188 0 1.505 3.785 7.497 13.564 21.476 10.334 14.77 12.944 18.744 14.617 22.246 1.327 2.779 1.488 3.468 1.488 6.389 0 3.066 -0.108 3.473 -1.704 6.411 -0.937 1.726 -2.837 4.58 -4.221 6.343 -5.04 6.416 -14.664 16.1 -16.01 16.1 -1.014 0 0.23 -3.756 3.728 -11.254 3.01 -6.447 6.859 -15.538 7.341 -17.329 0.442 -1.641 0.381 -1.898 -1.168 -4.938 -3.833 -7.523 -20.542 -34.05 -24.96 -39.628 -0.936 -1.182 -1.997 -2.148 -2.359 -2.148 -1.033 0 -4.71 2.26 -6.223 3.824 -1.311 1.356 -1.352 1.489 -0.887 2.898 1.305 3.955 10.536 16.245 22.436 29.872 l 2.474 2.833 l -6.369 6.579 c -9.414 9.724 -12.395 13.689 -13.567 18.04 -0.241 0.897 -0.732 3.748 -1.091 6.336 -0.359 2.588 -0.808 4.864 -0.997 5.057 -0.189 0.193 -0.666 -0.14 -1.059 -0.74 z" transform="translate(-0.508 -2.624)" style="fill:#fff"/><g transform="matrix(-0.51709 0 0 -0.81169 233.21 199.17)" style="fill:#ffd700"><use xlink:href="#0"/><path d="m 112.49,56.1 c -0.757,1.059 -7.147,16.303 -14.2,33.874 -7.05,17.571 -13.407,32.17 -14.12,32.439 -0.714,0.27 -1.997,-0.992 -2.851,-2.805 -0.854,-1.813 -5.454,-10.06 -10.222,-18.335 l -8.669,-15.04 -11.904,9.928 -11.904,9.928 -9.113,-8.406 c -8.125,-7.494 -13.803,-10.52 -13.803,-7.356 0,0.61 4.898,6.704 10.884,13.541 l 10.884,12.431 8.06,-7.378 c 9.512,-8.708 15.271,-10.798 18.1,-6.565 1.048,1.564 5.741,11.974 10.441,23.13 5.058,12.02 9.111,19.887 9.943,19.303 1.901,-1.335 4.341,-8.06 12.986,-35.787 8.587,-27.542 14.791,-43.655 17.22,-44.708 2.659,-1.159 12.253,6.475 24.16,19.226 l 10.802,11.566 7.754,-9.85 c 9.765,-12.405 13.04,-14.819 21.473,-15.83 l 6.777,-0.812 -4.452,-2.724 c -6.297,-3.852 -10.389,-2.313 -21.15,7.948 -5.078,4.845 -10.312,9.253 -11.629,9.795 -1.745,0.718 -5.383,-2.02 -13.398,-10.08 C 117.922,56.79 114.132,53.798 112.499,56.089 z" id="1" style="opacity:0.97"/></g><g transform="matrix(-0.51709 0 0 0.81169 231.57 107.79)" style="fill:#ffd700"><use xlink:href="#0"/><use xlink:href="#1"/></g></g></svg>