<svg xmlns="http://www.w3.org/2000/svg" viewBox="0 0 256 256"><g transform="translate(0 -796.36)"><path d="m 52.774 1027.39 c 192.46 127.95 311 -280.09 62.2 -226.07 -102.82 23.02 -165.22 167.39 -62.2 226.07 z" fill="#87cefa" color="#000"/><path d="m 64.987 991.3 c -0.863 -3.833 3.658 -6.05 6.736 -5.643 6.02 0.801 8.869 7.673 7.484 13.179 -2.107 8.374 -11.44 12.141 -19.09 9.633 -10.398 -3.407 -14.955 -15.697 -11.393 -25.789 4.537 -12.857 19.329 -18.401 31.448 -13.623 14.802 5.836 21.11 23.76 15.303 38.4 -6.891 17.358 -27.24 24.7 -43.804 17.612 -19.217 -8.223 -27.3 -31.835 -19.212 -51.01 9.22 -21.866 35.15 -31.02 56.16 -21.601 23.638 10.592 33.489 39.915 23.12 63.62 -11.538 26.381 -43.07 37.34 -68.52 25.591 -28.06 -12.956 -39.687 -47.998 -27.03 -76.23 9.924 -22.14 32.611 -36.07 56.35 -35.44" fill="#128ddb" fill-rule="evenodd" transform="matrix(1.36626 0 0 1.2965 43.605 -359.11)"/></g></svg>