<?xml version="1.0" encoding="UTF-8" standalone="no"?>
<!-- Created with Inkscape (http://www.inkscape.org/) -->

<svg
   xmlns:dc="http://purl.org/dc/elements/1.1/"
   xmlns:cc="http://creativecommons.org/ns#"
   xmlns:rdf="http://www.w3.org/1999/02/22-rdf-syntax-ns#"
   xmlns:svg="http://www.w3.org/2000/svg"
   xmlns="http://www.w3.org/2000/svg"
   xmlns:sodipodi="http://sodipodi.sourceforge.net/DTD/sodipodi-0.dtd"
   xmlns:inkscape="http://www.inkscape.org/namespaces/inkscape"
   width="256"
   height="256"
   id="svg10914"
   version="1.1"
   inkscape:version="0.91 r"
   sodipodi:docname="gnome-screenshot-tool.svg">
  <defs
     id="defs10916">
    <inkscape:path-effect
       effect="spiro"
       id="path-effect8785"
       is_visible="true" />
  </defs>
  <sodipodi:namedview
     id="base"
     pagecolor="#ffffff"
     bordercolor="#666666"
     borderopacity="1.0"
     inkscape:pageopacity="0.0"
     inkscape:pageshadow="2"
     inkscape:zoom="0.7"
     inkscape:cx="419.92305"
     inkscape:cy="183.98892"
     inkscape:document-units="px"
     inkscape:current-layer="layer1"
     showgrid="false"
     inkscape:showpageshadow="false"
     inkscape:snap-page="true"
     inkscape:snap-bbox="true"
     inkscape:window-width="1280"
     inkscape:window-height="941"
     inkscape:window-x="0"
     inkscape:window-y="25"
     inkscape:window-maximized="1"
     inkscape:object-nodes="true"
     inkscape:snap-smooth-nodes="true"
     inkscape:snap-object-midpoints="true" />
  <metadata
     id="metadata10919">
    <rdf:RDF>
      <cc:Work
         rdf:about="">
        <dc:format>image/svg+xml</dc:format>
        <dc:type
           rdf:resource="http://purl.org/dc/dcmitype/StillImage" />
        <dc:title></dc:title>
      </cc:Work>
    </rdf:RDF>
  </metadata>
  <g
     inkscape:label="Layer 1"
     inkscape:groupmode="layer"
     id="layer1"
     transform="translate(0,-796.36218)">
    <g
       id="g37817"
       transform="translate(3.522819,-1.428896)"
       style="fill:#9400d3">
      <g
         id="g32620"
         transform="matrix(1.3033666,0,0,1.3454962,-40.52469,-328.4884)"
         style="fill:#9400d3">
        <path
           sodipodi:nodetypes="ssss"
           inkscape:connector-curvature="0"
           id="path32622"
           d="M 202.49913,996.49853 C 132.45451,1081.8753 -12.060429,972.49934 39.141071,880.51122 87.382268,793.84165 234.15502,848.49005 224.3337,942.5679 c -2.04906,19.62826 -8.9775,38.25908 -21.83457,53.93063 z"
           style="color:black;fill:#9400d3;fill-opacity:1;fill-rule:nonzero;stroke:none;stroke-width:4;marker:none;visibility:visible;display:inline;overflow:visible;enable-background:accumulate" />
      </g>
    </g>
    <path
       transform="matrix(0.69867609,0,0,0.69867609,60.437193,845.49445)"
       d="M 103.01676,86.85714 A 24.388191,24.388191 0 0 1 78.628571,111.24533 24.388191,24.388191 0 0 1 54.240379,86.85714 24.388191,24.388191 0 0 1 78.628571,62.468948 24.388191,24.388191 0 0 1 103.01676,86.85714 Z"
       sodipodi:ry="24.388191"
       sodipodi:rx="24.388191"
       sodipodi:cy="86.85714"
       sodipodi:cx="78.628571"
       id="path6689"
       style="color:black;fill:#bcc5de;fill-opacity:1;fill-rule:nonzero;stroke:none;stroke-width:16;marker:none;visibility:visible;display:inline;overflow:visible;enable-background:accumulate"
       sodipodi:type="arc" />
    <rect
       style="color:black;fill:none;stroke:white;stroke-width:8;marker:none;visibility:visible;display:inline;overflow:visible;enable-background:accumulate"
       id="rect7283"
       width="96.97464"
       height="96.97464"
       x="79.51268"
       y="875.87488"
       rx="5.2856822"
       ry="5.2856822" />
    <path
       style="fill:#bcc5de;fill-opacity:1;stroke:none"
       d="m 167.6875,935.51843 c -3.59899,-0.0604 -7.00479,1.38547 -9.96875,4.8125 l -21.1875,24.5 25.39664,0 c 1.44929,-3.24785 3.44841,-4.95476 6.57211,-6.33117 l 0,-22.91883 c -0.27095,-0.0212 -0.54346,-0.058 -0.8125,-0.0625 z"
       id="path7395"
       inkscape:connector-curvature="0"
       sodipodi:nodetypes="ccccccc" />
    <path
       style="fill:#bcc5de;fill-opacity:1;stroke:none"
       d="m 100.40625,941.51843 c -4.181227,0.0446 -8.568436,1.12842 -12.90625,3 l 0,13.46875 c 2.472007,1.20266 5.166814,3.23519 6.84375,6.84375 l 42.1875,0 c -4.86642,-17.08394 -25.81322,-23.42245 -36.125,-23.3125 z"
       id="path7393"
       inkscape:connector-curvature="0"
       sodipodi:nodetypes="sccccs" />
    <path
       sodipodi:type="arc"
       style="color:black;fill:white;fill-opacity:1;stroke:none;stroke-width:8;marker:none;visibility:visible;display:inline;overflow:visible;enable-background:accumulate"
       id="path7287"
       sodipodi:cx="174.28572"
       sodipodi:cy="81.35714"
       sodipodi:rx="12.5"
       sodipodi:ry="12.5"
       d="m 186.78572,81.35714 a 12.5,12.5 0 0 1 -12.5,12.5 12.5,12.5 0 0 1 -12.5,-12.5 12.5,12.5 0 0 1 12.5,-12.5 12.5,12.5 0 0 1 12.5,12.5 z"
       transform="translate(2.2015991,794.51774)" />
    <path
       transform="translate(-94.773041,794.51774)"
       d="m 186.78572,81.35714 a 12.5,12.5 0 0 1 -12.5,12.5 12.5,12.5 0 0 1 -12.5,-12.5 12.5,12.5 0 0 1 12.5,-12.5 12.5,12.5 0 0 1 12.5,12.5 z"
       sodipodi:ry="12.5"
       sodipodi:rx="12.5"
       sodipodi:cy="81.35714"
       sodipodi:cx="174.28572"
       id="path7289"
       style="color:black;fill:white;fill-opacity:1;stroke:none;stroke-width:8;marker:none;visibility:visible;display:inline;overflow:visible;enable-background:accumulate"
       sodipodi:type="arc" />
    <path
       transform="translate(2.2015991,891.49235)"
       d="m 186.78572,81.35714 a 12.5,12.5 0 0 1 -12.5,12.5 12.5,12.5 0 0 1 -12.5,-12.5 12.5,12.5 0 0 1 12.5,-12.5 12.5,12.5 0 0 1 12.5,12.5 z"
       sodipodi:ry="12.5"
       sodipodi:rx="12.5"
       sodipodi:cy="81.35714"
       sodipodi:cx="174.28572"
       id="path7291"
       style="color:black;fill:white;fill-opacity:1;stroke:none;stroke-width:8;marker:none;visibility:visible;display:inline;overflow:visible;enable-background:accumulate"
       sodipodi:type="arc" />
    <path
       sodipodi:type="arc"
       style="color:black;fill:white;fill-opacity:1;stroke:none;stroke-width:8;marker:none;visibility:visible;display:inline;overflow:visible;enable-background:accumulate"
       id="path7293"
       sodipodi:cx="174.28572"
       sodipodi:cy="81.35714"
       sodipodi:rx="12.5"
       sodipodi:ry="12.5"
       d="m 186.78572,81.35714 a 12.5,12.5 0 0 1 -12.5,12.5 12.5,12.5 0 0 1 -12.5,-12.5 12.5,12.5 0 0 1 12.5,-12.5 12.5,12.5 0 0 1 12.5,12.5 z"
       transform="translate(-94.773041,891.49235)" />
  </g>
</svg>
