<svg xmlns="http://www.w3.org/2000/svg" viewBox="0 0 256 256"><defs><clipPath><rect fill="#1890d0" width="46" height="46" x="1" y=".998" rx="4" stroke-width="1"/></clipPath><clipPath><rect fill="#1890d0" width="46" height="46" x="1" y=".998" rx="4" stroke-width="1"/></clipPath><clipPath><path fill="#1890d0" transform="matrix(15.33333 0 0 11.5 415-125.5)" d="m-24 13c0 1.105-.672 2-1.5 2-.828 0-1.5-.895-1.5-2 0-1.105.672-2 1.5-2 .828 0 1.5.895 1.5 2"/></clipPath><clipPath><rect fill="#1890d0" width="46" height="46" x="1" y=".998" rx="4" stroke-width="1"/></clipPath><clipPath><rect fill="#1890d0" width="46" height="46" x="1" y=".998" rx="4" stroke-width="1"/></clipPath><clipPath><path fill="#1890d0" transform="matrix(15.33333 0 0 11.5 415-125.5)" d="m-24 13c0 1.105-.672 2-1.5 2-.828 0-1.5-.895-1.5-2 0-1.105.672-2 1.5-2 .828 0 1.5.895 1.5 2"/></clipPath><clipPath><rect fill="#1890d0" width="46" height="46" x="1" y=".998" rx="4" stroke-width="1"/></clipPath><clipPath><rect fill="#1890d0" width="46" height="46" x="1" y=".998" rx="4" stroke-width="1"/></clipPath><clipPath><rect fill="#1890d0" width="46" height="46" x="1" y=".998" rx="4" stroke-width="1"/></clipPath><clipPath><rect fill="#1890d0" width="46" height="46" x="1" y=".998" rx="4" stroke-width="1"/></clipPath><clipPath><rect fill="#1890d0" width="46" height="46" x="1" y=".998" rx="4" stroke-width="1"/></clipPath><clipPath><rect fill="#1890d0" width="46" height="46" x="1" y=".998" rx="4" stroke-width="1"/></clipPath><clipPath><rect fill="#1890d0" width="46" height="46" x="1" y=".998" rx="4" stroke-width="1"/></clipPath><clipPath><rect fill="#1890d0" width="46" height="46" x="1" y=".998" rx="4" stroke-width="1"/></clipPath><clipPath><rect fill="#1890d0" width="46" height="46" x="1" y=".998" rx="4" stroke-width="1"/></clipPath><clipPath><path fill="#1890d0" transform="matrix(15.33333 0 0 11.5 415-125.5)" d="m-24 13c0 1.105-.672 2-1.5 2-.828 0-1.5-.895-1.5-2 0-1.105.672-2 1.5-2 .828 0 1.5.895 1.5 2"/></clipPath><clipPath><rect fill="#1890d0" width="46" height="46" x="1" y=".998" rx="4" stroke-width="1"/></clipPath><clipPath><rect fill="#1890d0" width="46" height="46" x="1" y=".998" rx="4" stroke-width="1"/></clipPath><clipPath><path fill="#1890d0" transform="matrix(15.33333 0 0 11.5 415-125.5)" d="m-24 13c0 1.105-.672 2-1.5 2-.828 0-1.5-.895-1.5-2 0-1.105.672-2 1.5-2 .828 0 1.5.895 1.5 2"/></clipPath><clipPath><rect fill="#1890d0" width="46" height="46" x="1" y=".998" rx="4" stroke-width="1"/></clipPath><clipPath><rect fill="#1890d0" width="46" height="46" x="1" y=".998" rx="4" stroke-width="1"/></clipPath><clipPath><path fill="#1890d0" transform="matrix(15.33333 0 0 11.5 415-125.5)" d="m-24 13c0 1.105-.672 2-1.5 2-.828 0-1.5-.895-1.5-2 0-1.105.672-2 1.5-2 .828 0 1.5.895 1.5 2"/></clipPath><clipPath><rect fill="#1890d0" width="46" height="46" x="1" y=".998" rx="4" stroke-width="1"/></clipPath><clipPath><rect fill="#1890d0" width="46" height="46" x="1" y=".998" rx="4" stroke-width="1"/></clipPath><clipPath><path fill="#1890d0" transform="matrix(15.33333 0 0 11.5 415-125.5)" d="m-24 13c0 1.105-.672 2-1.5 2-.828 0-1.5-.895-1.5-2 0-1.105.672-2 1.5-2 .828 0 1.5.895 1.5 2"/></clipPath><clipPath><rect fill="#1890d0" width="46" height="46" x="1" y=".998" rx="4" stroke-width="1"/></clipPath><clipPath><rect fill="#1890d0" width="46" height="46" x="1" y=".998" rx="4" stroke-width="1"/></clipPath><clipPath><rect fill="#1890d0" width="46" height="46" x="1" y=".998" rx="4" stroke-width="1"/></clipPath><clipPath><rect fill="#1890d0" width="46" height="46" x="1" y=".998" rx="4" stroke-width="1"/></clipPath><clipPath><rect fill="#1890d0" width="46" height="46" x="1" y=".998" rx="4" stroke-width="1"/></clipPath><clipPath><rect fill="#1890d0" width="46" height="46" x="1" y=".998" rx="4" stroke-width="1"/></clipPath><clipPath><rect fill="#1890d0" width="46" height="46" x="1" y=".998" rx="4" stroke-width="1"/></clipPath><clipPath><rect fill="#1890d0" width="46" height="46" x="1" y=".998" rx="4" stroke-width="1"/></clipPath><clipPath><rect fill="#1890d0" width="46" height="46" x="1" y=".998" rx="4" stroke-width="1"/></clipPath><clipPath><rect fill="#1890d0" width="46" height="46" x="1" y=".998" rx="4" stroke-width="1"/></clipPath><clipPath><rect fill="#1890d0" width="46" height="46" x="1" y=".998" rx="4" stroke-width="1"/></clipPath><clipPath><rect fill="#1890d0" width="46" height="46" x="1" y=".998" rx="4" stroke-width="1"/></clipPath><clipPath><rect fill="#1890d0" width="46" height="46" x="1" y=".998" rx="4" stroke-width="1"/></clipPath><clipPath><rect fill="#1890d0" width="46" height="46" x="1" y=".998" rx="4" stroke-width="1"/></clipPath><clipPath><rect fill="#1890d0" width="46" height="46" x="1" y=".998" rx="4" stroke-width="1"/></clipPath><clipPath><rect fill="#1890d0" width="46" height="46" x="1" y=".998" rx="4" stroke-width="1"/></clipPath><clipPath><rect fill="#1890d0" width="46" height="46" x="1" y=".998" rx="4" stroke-width="1"/></clipPath><clipPath><rect fill="#1890d0" width="46" height="46" x="1" y=".998" rx="4" stroke-width="1"/></clipPath><clipPath><rect fill="#1890d0" width="46" height="46" x="1" y=".998" rx="4" stroke-width="1"/></clipPath><clipPath><rect fill="#1890d0" width="46" height="46" x="1" y=".998" rx="4" stroke-width="1"/></clipPath><clipPath><rect fill="#1890d0" width="46" height="46" x="1" y=".998" rx="4" stroke-width="1"/></clipPath><clipPath><rect fill="#1890d0" width="46" height="46" x="1" y=".998" rx="4" stroke-width="1"/></clipPath><clipPath><rect fill="#1890d0" width="46" height="46" x="1" y=".998" rx="4" stroke-width="1"/></clipPath><clipPath><rect fill="#1890d0" width="46" height="46" x="1" y=".998" rx="4" stroke-width="1"/></clipPath><clipPath><rect fill="#1890d0" width="46" height="46" x="1" y=".998" rx="4" stroke-width="1"/></clipPath><clipPath><rect fill="#1890d0" width="46" height="46" x="1" y=".998" rx="4" stroke-width="1"/></clipPath><clipPath><rect fill="#1890d0" width="46" height="46" x="1" y=".998" rx="4" stroke-width="1"/></clipPath><clipPath><rect fill="#1890d0" width="46" height="46" x="1" y=".998" rx="4" stroke-width="1"/></clipPath><clipPath><rect fill="#1890d0" width="46" height="46" x="1" y=".998" rx="4" stroke-width="1"/></clipPath><clipPath><rect fill="#1890d0" width="46" height="46" x="1" y=".998" rx="4" stroke-width="1"/></clipPath><clipPath><rect fill="#1890d0" width="46" height="46" x="1" y=".998" rx="4" stroke-width="1"/></clipPath><clipPath><rect fill="#1890d0" width="46" height="46" x="1" y=".998" rx="4" stroke-width="1"/></clipPath><clipPath><rect fill="#1890d0" width="46" height="46" x="1" y=".998" rx="4" stroke-width="1"/></clipPath><clipPath><rect fill="#1890d0" width="46" height="46" x="1" y=".998" rx="4" stroke-width="1"/></clipPath><clipPath><rect fill="#1890d0" width="46" height="46" x="1" y=".998" rx="4" stroke-width="1"/></clipPath><clipPath><rect fill="#1890d0" width="46" height="46" x="1" y=".998" rx="4" stroke-width="1"/></clipPath><clipPath><rect fill="#1890d0" width="46" height="46" x="1" y=".998" rx="4" stroke-width="1"/></clipPath><clipPath><rect fill="#1890d0" width="46" height="46" x="1" y=".998" rx="4" stroke-width="1"/></clipPath><clipPath><rect fill="#1890d0" width="46" height="46" x="1" y=".998" rx="4" stroke-width="1"/></clipPath></defs><g transform="translate(0-796.36)"><path d="m-1374.42 1658.71c127.95-192.46-280.09-311-226.07-62.2 23.02 102.82 167.39 165.22 226.07 62.2" fill="#f00" color="#000" transform="matrix(0-1 1 0-1455.38-553.08)"/><g transform="matrix(4.82054 0 0 5.332 11.08 798.63)" fill="#fff"><circle transform="translate(2 1)" cx="11" cy="13" r="3"/><circle transform="translate(24 1)" cx="11" cy="13" r="3"/><circle transform="translate(2 21)" cx="11" cy="13" r="3"/><circle cx="11" cy="13" r="3" transform="translate(24 21)"/><circle transform="matrix(1.52388 0 0 1.56835 7.342 3.99)" cx="11" cy="13" r="3"/><circle r="3" cy="13" cx="11" transform="matrix(1.52388 0 0 1.56835 18.03-6.429)"/><circle transform="matrix(1.52388 0 0 1.56835-3.555-6.24)" cx="11" cy="13" r="3"/><circle r="3" cy="13" cx="11" transform="matrix(1.52388 0 0 1.56835 17.61 13.463)"/><circle transform="matrix(1.52388 0 0 1.56835-3.555 13.652)" cx="11" cy="13" r="3"/></g></g></svg>