<svg xmlns="http://www.w3.org/2000/svg" viewBox="0 0 256 256"><g transform="translate(0 -796.36)"><g style="color:#000"><path d="m -1374.42 1658.71 c 127.95 -192.46 -280.09 -311 -226.07 -62.2 23.02 102.82 167.39 165.22 226.07 62.2 z" transform="matrix(0 1 -1 0 1711.48 2401.81)" style="fill:#6c3"/><g transform="matrix(0 -2.30819 -2.1021 0 991.4 1859.11)" style="fill:#9acd32;stroke:#fff"><path d="m 432.36 436.8 h -58.02 v -40 v -2 l 7.823 -7.818 l 8.187 -8.182 h 2 h 40.02 z m -4 -4 v -50 h -36.01 v 14 h -14.01 v 36 z" style="stroke-width:4"/><g transform="matrix(0 -1 -1 0 0 0)" style="stroke-width:2.25"><path d="m -425.36 -418 h 34 v 4 h -34 z"/><path d="m -425.36 -405.99 h 34 v 4 h -34 z"/></g></g></g><g transform="translate(0 796.36)" style="fill:#6c3;fill-opacity:0.604;stroke:none"><path d="m 162.22 176.28 l -0.048 -13.903 h 12.743 h 12.743 l -6.089 6.825 c -3.349 3.754 -9.06 10.01 -12.695 13.903 l -6.606 7.078 l -0.048 -13.903 z" style="opacity:0.99"/><path d="m 116.99 132.3 c 9.35 -0.167 24.365 -0.167 33.367 0.001 9 0.167 1.351 0.304 -17 0.304 -18.352 0 -25.716 -0.137 -16.366 -0.304 z" style="opacity:0.99"/><path d="m 116.99 103.99 c 9.35 -0.167 24.365 -0.167 33.367 0.001 9 0.167 1.351 0.304 -17 0.304 -18.352 0 -25.716 -0.137 -16.366 -0.304 z" style="opacity:0.99"/></g></g></svg>