<svg xmlns="http://www.w3.org/2000/svg" xmlns:xlink="http://www.w3.org/1999/xlink" viewBox="0 0 256 256"><defs><path id="0" d="m 245.46 129.52 l -97.89 -96.9 c -5.556 -5.502 -16.222 -11.873 -23.7 -14.16 l -39.518 -12.08 c -7.479 -2.286 -18.1 0.391 -23.599 5.948 l -13.441 13.578 c -5.5 5.559 -14.502 14.653 -20 20.21 l -13.44 13.579 c -5.5 5.558 -8.07 16.206 -5.706 23.658 l 12.483 39.39 c 2.363 7.456 8.843 18.06 14.399 23.556 l 97.89 96.9 c 5.558 5.502 14.605 5.455 20.1 -0.101 l 36.26 -36.63 c 5.504 -5.559 14.503 -14.651 20 -20.21 l 36.26 -36.629 c 5.502 -5.56 5.455 -14.606 -0.101 -20.11 z m -178.09 -50.74 c -7.198 0 -13.03 -5.835 -13.03 -13.03 0 -7.197 5.835 -13.03 13.03 -13.03 7.197 0 13.03 5.835 13.03 13.03 -0.001 7.198 -5.836 13.03 -13.03 13.03 z"/><use id="1" xlink:href="#0"/><clipPath style="clip-path:url(#2)"><use xlink:href="#0"/></clipPath><clipPath style="clip-path:url(#2)"><use xlink:href="#0"/></clipPath><clipPath><path d="M 14.03023,17.050123 L 13.89464,40.13169 L 54.66398,80.960819 L 77.76542,57.847236 L 36.96531,17.026322 L 14.03023,17.050123 z"/></clipPath><clipPath id="2"><use xlink:href="#1"/></clipPath><linearGradient y2="295.03641" x2="595.55969" y1="319.73001" x1="483.87009" gradientTransform="matrix(0.1222343 0 0 0.03779256 -8.9323626 12.764311)" gradientUnits="userSpaceOnUse" id="5"><stop/><stop offset="1"/></linearGradient><linearGradient y2="266.35721" x2="459.92059" y1="447.8848" x1="313.37689" gradientTransform="matrix(0.1222343 0 0 0.03779256 -8.9323626 12.764311)" gradientUnits="userSpaceOnUse" id="3"><stop style="stop-color:#3c3c3c"/><stop offset="1" style="stop-color:#cdcdcd"/></linearGradient><linearGradient y2="480.93359" x2="1035.653" y1="823.79071" x1="1204.3469" gradientTransform="matrix(0.5804303 0 0 0.5042151 -611.23881 240.44324)" gradientUnits="userSpaceOnUse" id="4"><stop style="stop-color:#96c813"/><stop offset="1" style="stop-color:#46dbff"/></linearGradient><radialGradient gradientUnits="userSpaceOnUse" gradientTransform="matrix(1.3286 0 0 2.1048 -161.1227 -218.4496)" r="182.03979" cy="371.81049" cx="317.72061" id="6"><stop style="stop-color:#f2f2ec"/><stop offset="1" style="stop-color:#fc6"/></radialGradient><radialGradient r="182.03979" cy="371.81049" cx="317.72061" gradientTransform="matrix(0.1624005 0 0 0.07954578 -28.627079 4.5085428)" gradientUnits="userSpaceOnUse" id="7" xlink:href="#6"/></defs><path d="m 128.7087 2.1274812 c 169.75 -19.2330002 167.39 256.0599988 -3.02 252.7999988 -158.490003 9.07 -172.790003 -267.799999 3.02 -252.7999988 z" style="fill:#4682b4;color:#000"/><g transform="matrix(2.7875804 1.407958 -1.4156088 2.6804014 92.768929 41.864945)"><g transform="matrix(-0.1151989 -0.00677931 -0.0219239 0.03547501 68.097508 22.66522)" style="stroke:#000"><path d="m 358.796 185.459 c 13.201 -13.289 8.415 -38.86 1.417 -57.634 -8.913 -23.911 -27.603 -43.238 -31.188 -69.391 -2.92 -21.284 5.656 -42.199 19.478 -57.949 9.176 -10.456 26.395 -34.682 15.559 -37.891 -2.257 -0.667 -15.54 24.749 -24.829 34.847 -15.475 16.825 -20.572 45.101 -18.831 63.605 1.879 19.986 18.387 40.045 27.369 57.295 5.876 11.28 9.156 23.702 10.174 36.234 0.551 6.805 -2.072 13.481 -5.194 19.533 -2.119 4.112 2.318 15.103 6.045 11.351 z" style="fill:#985a11;stroke-width:0.85350001"/><g style="fill:none;stroke-width:0.77109998"><path d="m 352.636 174.199 c 0.575 2.232 6.792 7.978 8.502 8.845"/><path d="m 355.791 167.806 c 0.577 2.233 6.954 8.166 8.664 9.033"/><path d="m 357.369 162.244 c 0.576 2.231 6.953 8.166 8.664 9.032"/><path d="m 358.011 154.355 c 0.576 2.232 7.194 7.978 8.903 8.846"/><path d="m 357.006 147.133 c 1.107 2.022 7.837 6.074 9.709 6.494"/><path d="m 355.828 140.657 c 1.728 1.526 7.392 4.285 9.295 4.045"/><path d="m 354.435 135.015 c 1.728 1.526 7.527 4.552 9.43 4.312"/><path d="m 352.434 129.023 c 1.728 1.526 7.352 3.723 9.616 3.483"/><path d="m 349.84 122.365 c 1.726 1.525 7.5 3.643 9.402 3.403"/><path d="m 346.245 115.56 c 1.728 1.526 8.117 3.858 10.02 3.617"/><path d="m 342.59 109.154 c 1.726 1.526 8.542 3.938 10.446 3.697"/><path d="m 338.763 103.082 c 1.728 1.526 8.704 2.868 10.607 2.628"/><path d="m 335.077 96.984 c 1.728 1.526 8.489 2.414 10.392 2.173"/><path d="m 331.28 90.218 c 1.727 1.525 8.703 2.466 10.605 2.227"/><path d="m 327.955 84.031 c 1.726 1.526 8.702 2.413 10.603 2.173"/><path d="m 324.431 76.714 c 1.727 1.526 8.569 2.734 10.472 2.494"/><path d="m 321.916 69.466 c 1.727 1.525 8.49 2.76 10.391 2.519"/><path d="m 320.529 62.538 c 1.728 1.526 7.9 2.841 9.803 2.601"/><path d="m 320.146 56.057 c 1.726 1.526 6.829 2.546 8.732 2.306"/><path d="m 320.327 46.43 c 0.329 2.282 6.26 6.47 8.266 6.744"/><path d="m 321.404 37.243 c 0.328 2.281 5.322 7.032 7.115 7.493"/><path d="m 323.429 28.717 c 0.327 2.282 4.682 7.219 6.288 8.269"/><path d="m 325.721 20.532 c 0.329 2.282 4.654 7.433 6.261 8.482"/><path d="m 328.939 12.895 c 0.329 2.282 4.548 7.246 6.155 8.295"/><path d="m 333.012 5.981 c 0.327 2.282 3.905 7.406 5.512 8.455"/><path d="m 336.933 0.102 c 0.329 2.282 4.254 6.604 5.859 7.653"/><path d="m 341.527 -5.649 c 0.328 2.282 3.852 6.791 5.458 7.84"/><path d="m 346.269 -11.87 c 0.329 2.282 4.173 7.059 5.78 8.108"/><path d="m 350.796 -18.489 c 0.328 2.282 4.254 7.219 5.857 8.268"/><path d="m 354.745 -24.984 c 0.328 2.282 4.68 7.46 6.288 8.509"/><path d="m 359.766 -32.688 c 0.327 2.282 3.637 8.075 5.243 9.124"/></g></g><g transform="matrix(0.09658544 0 0 0.1136329 -1.7989873 -45.561883)"><g transform="matrix(0.9938919 -0.1103578 0.4596174 0.888117 0 0)" style="stroke-linecap:round;stroke-linejoin:round;stroke-dashoffset:5.4"><path d="M -136.446,449.478 H203.851 V669.102 H-136.446 z" style="stroke-opacity:0.35159816;fill:none;stroke:#000;stroke-width:16.43206978"/><path d="M -153.528,431.075 H189.755 V655.811 H-153.528 z" style="fill:url(#4);stroke:#fff;stroke-width:16.93598747"/><path d="M -159.341,427.058 H198.684 V664.572 H-159.341 z" style="fill:none;stroke:#000;stroke-width:2.27186441"/></g><g transform="translate(-20.203051 -8.08122)" style="fill-rule:evenodd"><g style="stroke-width:1.25"><path d="m 348.17116 490.71727 c 0 0 12.6707 -3.68424 12.15554 -5.90437 -1.03778 -8.74108 -20.3065 -27.60366 -26.2357 -30.48783 -23.35021 -3.48018 39.38938 30.79855 14.08016 36.3922 z" style="fill-opacity:0.24999994"/><path d="m 336.75136 524.37407 c 0 0 13.55737 -0.74625 14.06508 -2.82692 0.50771 -2.08067 -1.26818 -19.59611 -9.67409 -27.26602 -18.49098 -7.56225 19.45947 27.19164 -4.39099 30.09294 z" style="fill-opacity:0.23999999"/></g><g style="fill:#ff0010;stroke:#000;stroke-linejoin:round;stroke-width:3.43960142"><path d="m 305.83185 505.42793 c -0.86326 -2.20252 -12.42723 -13.61991 -5.92103 -30.49101 13.2241 -18.8546 80.83334 -26.56078 101.41118 -10.99195 20.57784 15.56884 25.72564 28.15009 24.23489 30.614 -6.12406 4.48009 -11.19198 6.19094 -18.6139 8.16318 0 0 -11.31878 -17.85338 -17.36539 -23.95409 -0.22967 -0.20509 8.43249 9.38432 17.36847 23.96004 5.71079 14.75704 10.8159 28.34374 10.8159 28.34374 -23.15188 4.54808 -44.99003 7.3591 -69.43185 7.27688 -3.21925 -1.41053 -18.94041 -20.67926 -24.08597 -29.25735 -5.83775 -9.9156 -9.4888 -24.45276 -9.4888 -24.45276 -0.52509 0.58869 6.35977 19.73315 9.68092 24.28954 -5.90398 1.16077 -16.69097 -2.4751 -18.60442 -3.50022 z"/><path d="m 362.26847 438.73034 c 5.6547 10.92656 -3.62915 21.33491 -20.72289 23.23293 -17.09373 1.89802 -35.55624 -5.42949 -41.21094 -16.35604 -5.6547 -10.92656 3.62917 -21.33492 20.72289 -23.23294 17.09374 -1.89802 35.55624 5.42949 41.21094 16.35605 z"/></g><g style="stroke-width:1.25"><g style="fill-opacity:0.24999994"><g style="fill:#fff"><path d="m 321.37842 423.91812 c -15.34308 -2.09193 -37.44985 20.09964 -3.60834 34.05463 14.04526 -4.08991 -25.35395 -20.21121 3.60834 -34.05463 z"/><path d="m 324.74197 462.25936 c -1.62223 -0.0729 -20.21468 5.02797 -23.32039 13.72305 -4.50755 3.53695 -3.14281 17.80855 4.95106 28.54956 3.98747 1.58154 11.29123 4.06005 12.41812 3.17581 1.0847 -15.04965 -34.63908 -26.5183 5.95121 -45.44842 z"/><path d="m 317.04706 488.41751 c 1.5604 15.26202 20.75238 40.7121 31.80339 48.59438 7.45979 0.94296 17.12134 0.62929 18.97142 -0.0822 -4.51755 -12.40329 -30.32211 -7.7668 -50.77481 -48.51217 z"/></g><path d="m 342.37101 460.80798 c 22.62448 -8.33199 4.7625 -29.37507 19.24619 -24.65735 1.45383 4.64628 6.15468 21.07783 -19.24619 24.65735 z"/><path d="m 413.10537 499.5128 c 0 0 12.6707 -3.68424 12.15554 -5.90438 -1.03778 -8.74108 -20.3065 -27.60366 -26.2357 -30.48783 -23.35021 -3.48018 39.38938 30.79856 14.08016 36.39221 z"/></g><path d="m 401.68557 533.16959 c 0 0 13.55737 -0.74624 14.06508 -2.82692 0.50771 -2.08067 -1.26818 -19.5961 -9.67409 -27.26601 -18.49098 -7.56226 19.45947 27.19164 -4.39099 30.09293 z" style="fill-opacity:0.23999999"/></g></g><g transform="translate(-4.04061 -22.223356)" style="fill-rule:evenodd"><g style="fill:#fff;fill-opacity:0.24999994;stroke-width:1.25"><path d="m 194.82005 451.93388 c -1.62223 -0.0729 -20.21468 5.02797 -23.32039 13.72305 -4.50755 3.53695 -3.14281 17.80855 4.95106 28.54956 3.98747 1.58154 11.29123 4.06005 12.41812 3.17581 1.0847 -15.04965 -34.63908 -26.5183 5.95121 -45.44842 z"/><path d="m 187.12514 478.09203 c 1.5604 15.26202 20.75238 40.7121 31.80339 48.59438 7.45979 0.94296 17.12134 0.62929 18.97142 -0.0822 -4.51755 -12.40329 -30.32211 -7.7668 -50.77481 -48.51217 z"/></g><g style="fill:#0083cc;stroke:#000;stroke-linejoin:round;stroke-width:3.43960142"><path d="m 146.87693 536.20458 c -0.86326 -2.20252 -12.42723 -13.61992 -5.92103 -30.49101 13.2241 -18.85461 80.83334 -26.56079 101.41118 -10.99195 20.57784 15.56884 25.72563 28.15009 24.23488 30.61399 -6.12406 4.48009 -11.19197 6.19095 -18.61389 8.16319 0 0 -11.31879 -17.85339 -17.3654 -23.9541 -0.22967 -0.20508 8.43249 9.38433 17.36847 23.96005 5.7108 14.75703 10.81591 28.34373 10.81591 28.34373 -23.15188 4.54808 -44.99003 7.35911 -69.43185 7.27689 -3.21925 -1.41053 -18.94041 -20.67926 -24.08597 -29.25735 -5.83775 -9.91561 -9.4888 -24.45277 -9.4888 -24.45277 -0.52509 0.5887 6.35977 19.73316 9.68092 24.28955 -5.90398 1.16077 -16.69097 -2.4751 -18.60442 -3.50022 z"/><path d="m 203.31355 469.50699 c 5.6547 10.92655 -3.62916 21.33491 -20.72289 23.23293 -17.09373 1.89802 -35.55624 -5.42949 -41.21094 -16.35605 -5.6547 -10.92655 3.62916 -21.33491 20.72289 -23.23293 17.09374 -1.89802 35.55624 5.42949 41.21094 16.35605 z"/></g><g style="stroke-width:1.25"><g style="fill-opacity:0.24999994"><g style="fill:#fff"><path d="m 162.42349 454.69476 c -15.34308 -2.09192 -37.44984 20.09964 -3.60834 34.05463 14.04527 -4.0899 -25.35394 -20.2112 3.60834 -34.05463 z"/><path d="m 165.78705 493.03601 c -1.62223 -0.0729 -20.21468 5.02797 -23.32039 13.72305 -4.50755 3.53695 -3.14282 17.80854 4.95105 28.54955 3.98747 1.58155 11.29123 4.06005 12.41812 3.17582 1.0847 -15.04965 -34.63907 -26.51831 5.95122 -45.44842 z"/><path d="m 158.09214 519.19416 c 1.56039 15.26202 20.75238 40.7121 31.80339 48.59438 7.45978 0.94296 17.12133 0.62929 18.97141 -0.0822 -4.51754 -12.4033 -30.3221 -7.7668 -50.7748 -48.51217 z"/></g><path d="m 183.41609 491.58462 c 22.62447 -8.33199 4.7625 -29.37507 19.24618 -24.65734 1.45384 4.64628 6.15469 21.07782 -19.24618 24.65734 z"/><path d="m 254.15045 530.28944 c 0 0 12.6707 -3.68424 12.15554 -5.90437 -1.03778 -8.74108 -20.3065 -27.60366 -26.23571 -30.48783 -23.35021 -3.48018 39.38939 30.79856 14.08017 36.3922 z"/></g><path d="m 242.73064 563.94624 c 0 0 13.55738 -0.74625 14.06508 -2.82692 0.50771 -2.08067 -1.26817 -19.5961 -9.67408 -27.26601 -18.49098 -7.56226 19.45947 27.19163 -4.391 30.09293 z" style="fill-opacity:0.23999999"/></g></g></g><path d="M 16.70261,24.250037 4.1990199,28.10348 4.2293347,43.061323 41.742669,43.0569 41.724089,28.099096 29.210842,24.248563 16.70261,24.250037 z m 6.256316,1.735132 c 1.080307,-1.13e-4 1.954894,0.272749 1.955259,0.607818 3.67e-4,0.335031 -0.873485,0.606269 -1.953791,0.606382 -1.080063,1.51e-4 -1.960639,-0.270898 -1.961004,-0.605929 -3.67e-4,-0.335031 0.879352,-0.608119 1.959536,-0.608271 z" style="fill:url(#7);stroke:url(#3);stroke-width:0.21233647"/><path d="m 22.971884,25.458605 c -1.944748,2.27e-4 -3.523647,0.490322 -3.522915,1.093491 8.56e-4,0.603168 1.580978,1.091372 3.525726,1.091146 1.944747,-2.27e-4 3.518758,-0.488846 3.517901,-1.092015 -7.32e-4,-0.603132 -1.576088,-1.092886 -3.520712,-1.092622 z m 6.1e-4,0.569194 c 0.930203,-1.14e-4 1.684634,0.235221 1.685,0.523654 3.67e-4,0.288508 -0.753453,0.522444 -1.683532,0.522596 -0.930081,1.13e-4 -1.689278,-0.23371 -1.689768,-0.522143 -4.89e-4,-0.288508 0.758342,-0.524031 1.6883,-0.524107 z" style="fill:#fc6;stroke:url(#5);stroke-linecap:square;stroke-width:0.13399741"/><g transform="matrix(0.1156696 -0.00594793 0.01931348 0.03562248 6.0535132 22.503981)" style="stroke:#000"><path d="m 124.576,143.133 c 13.199,-13.289 8.415,-38.862 1.416,-57.634 C 117.078,61.588 98.389,42.26 94.804,16.108 c -2.919,-21.284 5.656,-42.199 19.477,-57.95 9.175,-10.456 26.397,-34.681 15.56,-37.89 -2.258,-0.668 -15.54,24.748 -24.829,34.847 -15.475,16.824 -20.573,45.1 -18.831,63.603 1.88,19.985 18.386,40.045 27.37,57.295 5.875,11.28 9.156,23.702 10.173,36.234 0.552,6.805 -2.071,13.481 -5.193,19.533 -2.121,4.112 2.317,15.104 6.045,11.353 z" style="fill:#985a11;stroke-width:0.85350001"/><g style="fill:none;stroke-width:0.77109998"><path d="m 118.415 131.872 c 0.576 2.23 6.794 7.979 8.501 8.845"/><path d="m 121.57 125.48 c 0.577 2.232 6.952 8.166 8.664 9.033"/><path d="m 123.149 119.917 c 0.576 2.231 6.951 8.165 8.664 9.033"/><path d="m 123.789 112.027 c 0.578 2.233 7.193 7.978 8.906 8.846"/><path d="m 122.787 104.805 c 1.107 2.022 7.836 6.074 9.708 6.495"/><path d="m 121.607 98.331 c 1.728 1.526 7.393 4.285 9.296 4.045"/><path d="m 120.216 92.687 c 1.728 1.526 7.527 4.552 9.429 4.312"/><path d="m 118.213 86.697 c 1.728 1.526 7.352 3.724 9.615 3.484"/><path d="m 115.618 80.036 c 1.729 1.526 7.5 3.643 9.403 3.403"/><path d="m 112.024 73.233 c 1.729 1.526 8.115 3.857 10.018 3.617"/><path d="m 108.368 66.827 c 1.727 1.526 8.542 3.937 10.445 3.697"/><path d="m 104.543 60.755 c 1.727 1.525 8.703 2.867 10.607 2.627"/><path d="m 100.857 54.657 c 1.728 1.526 8.489 2.414 10.391 2.173"/><path d="m 97.06 47.892 c 1.727 1.526 8.703 2.466 10.604 2.227"/><path d="m 93.733 41.704 c 1.728 1.526 8.702 2.412 10.605 2.172"/><path d="m 90.209 34.386 c 1.728 1.526 8.569 2.734 10.472 2.494"/><path d="m 87.694 27.138 c 1.729 1.526 8.489 2.761 10.392 2.521"/><path d="m 86.308 20.212 c 1.727 1.525 7.9 2.841 9.803 2.6"/><path d="m 85.924 13.729 c 1.728 1.526 6.831 2.546 8.734 2.306"/><path d="m 86.108 4.103 c 0.328 2.281 6.259 6.47 8.266 6.744"/><path d="m 87.185 -5.084 c 0.329 2.281 5.323 7.032 7.116 7.493"/><path d="m 89.208 -13.609 c 0.329 2.282 4.681 7.219 6.286 8.268"/><path d="m 91.5 -21.796 c 0.329 2.281 4.655 7.433 6.26 8.482"/><path d="m 94.719 -29.432 c 0.328 2.282 4.548 7.246 6.153 8.295"/><path d="m 98.791 -36.347 c 0.329 2.282 3.907 7.406 5.512 8.456"/><path d="m 102.713 -42.226 c 0.329 2.281 4.253 6.604 5.858 7.653"/><path d="m 107.306 -47.978 c 0.329 2.281 3.852 6.791 5.458 7.84"/><path d="m 112.049 -54.197 c 0.328 2.281 4.173 7.059 5.779 8.106"/><path d="m 116.575 -60.818 c 0.328 2.282 4.254 7.22 5.859 8.268"/><path d="m 120.524 -67.311 c 0.328 2.281 4.681 7.46 6.286 8.509"/><path d="m 125.545 -75.016 c 0.328 2.282 3.638 8.075 5.244 9.124"/></g></g><g style="fill:#000;stroke:none;fill-rule:evenodd"><g transform="matrix(0.28319228 -0.1487549 0.14956323 0.29451606 -32.532901 1.4699341)"><path d="m 56.662462,165.4353 c -3.056488,-1.59999 -5.672369,-2.95032 -5.81307,-3.00073 -0.230411,-0.0826 6.015261,-12.24774 6.931079,-13.50019 0.351877,-0.48123 0.787016,-0.3149 5.992299,2.29048 3.087078,1.54517 5.612869,2.87918 5.612869,2.96447 0,0.12224 -0.6275,1.21102 -1.065973,1.84958 -0.04019,0.0585 -1.862569,-0.8299 -4.049728,-1.97428 -2.18716,-1.14439 -4.140149,-2.08071 -4.339976,-2.08071 -0.199827,0 -0.774002,0.83282 -1.275945,1.8507 l -0.912623,1.85071 3.80055,1.8785 c 2.090303,1.03318 3.860113,1.97335 3.932911,2.08928 0.13991,0.2228 -0.682875,1.98288 -0.926936,1.98288 -0.0786,0 -1.850198,-0.85553 -3.936885,-1.90117 -2.086687,-1.04564 -3.86001,-1.90116 -3.940719,-1.90116 -0.08071,0 -0.597935,0.89595 -1.149392,1.99099 l -1.002651,1.991 4.505458,2.24718 4.505457,2.24718 -0.489545,1.02659 c -0.269249,0.56462 -0.563881,1.02235 -0.654737,1.01717 -0.09086,-0.005 -2.665956,-1.31849 -5.722443,-2.91847 z"/><path d="m 67.673813 147.3048 c -3.798931 -1.36662 -5.912573 -3.44288 -6.126101 -6.01775 -0.07241 -0.87317 -0.07299 -1.58758 -0.0013 -1.58758 0.0717 0 0.730392 0.20446 1.463766 0.45434 1.201554 0.40941 1.350701 0.56248 1.508286 1.54797 0.29772 1.86183 2.748379 3.62393 5.109981 3.67422 1.530157 0.0326 2.165861 -0.64029 2.036981 -2.15609 -0.07365 -0.86617 -0.445968 -1.32274 -2.56719 -3.14808 -3.784744 -3.25681 -4.423265 -4.67073 -3.140102 -6.95331 0.892177 -1.58707 2.270857 -2.27369 4.158718 -2.07118 1.851193 0.19859 5.25367 1.86609 6.556112 3.21305 0.834424 0.86295 1.021068 1.30079 1.133753 2.65962 l 0.13489 1.6266 l -1.382848 -0.52039 c -1.180325 -0.44418 -1.44114 -0.69174 -1.780861 -1.69035 -0.466156 -1.37025 -1.117835 -1.96497 -2.898224 -2.64491 -1.549362 -0.5917 -2.540811 -0.40813 -3.062728 0.56708 -0.651118 1.21662 -0.156427 2.07675 2.463099 4.28264 1.36102 1.1461 2.741939 2.51642 3.06871 3.04514 1.178139 1.90627 0.489158 4.49262 -1.523726 5.71989 -1.212494 0.73927 -3.094603 0.73893 -5.15122 -0.00091 z"/><path d="m 85.663403 156.53585 c -2.519111 -1.23413 -3.99954 -3.11003 -3.988838 -5.05439 0.0081 -1.47081 0.324456 -1.63391 1.877744 -0.96809 0.977466 0.41899 1.346522 0.7265 1.231529 1.02617 -0.284678 0.74186 0.426325 2.19991 1.290736 2.64692 1.344144 0.69508 2.766425 0.55545 3.471428 -0.34082 1.161267 -1.47631 0.517582 -2.97302 -1.874528 -4.35867 -0.493655 -0.28596 -0.495807 -0.35705 -0.03763 -1.24307 0.547797 -1.05932 0.623724 -1.08251 1.640898 -0.50104 2.160211 1.23489 4.492198 -0.64052 3.620641 -2.91176 -0.234833 -0.61197 -1.628386 -1.3293 -2.582413 -1.3293 -0.410158 0 -0.976075 0.23615 -1.257594 0.52478 -0.491764 0.50419 -0.560635 0.49567 -1.754921 -0.21723 -0.683688 -0.40811 -1.243069 -0.83695 -1.243069 -0.95297 0 -0.11602 0.491221 -0.54474 1.091601 -0.95271 2.51355 -1.708 7.147376 -0.20811 8.73282 2.82668 0.540157 1.03394 0.520813 1.81864 -0.07582 3.07596 -0.726853 1.53173 -1.966925 2.19984 -3.729223 2.00918 l -1.43904 -0.15568 l 0.892092 0.94269 c 1.748218 1.84738 1.918448 3.13769 0.649128 4.92029 -1.314996 1.84674 -3.970911 2.2597 -6.515539 1.01306 z"/><path d="m 75.747228,175.07315 c -2.533668,-1.27944 -4.606668,-2.38506 -4.606668,-2.45694 0,-0.36593 0.710666,-1.62065 0.917929,-1.62065 0.131482,0 0.965145,0.35611 1.852584,0.79135 1.0053,0.49305 1.710163,0.68599 1.869892,0.51185 0.399198,-0.43521 5.01166,-9.22076 5.01166,-9.54591 0,-0.18346 -0.807104,-0.21368 -2.205851,-0.0826 l -2.205851,0.20671 0.485804,-1.01874 c 0.484713,-1.01646 0.491324,-1.01917 2.943733,-1.20768 2.194919,-0.16871 2.59526,-0.11827 3.741332,0.47138 l 1.283403,0.66032 -3.18417,5.99598 c -1.751294,3.29779 -3.187348,6.07219 -3.191232,6.16535 -0.0039,0.0932 0.659671,0.48165 1.474566,0.86332 0.814896,0.38168 1.540473,0.78917 1.612394,0.90554 0.201293,0.3257 -0.514602,1.71984 -0.874198,1.70242 -0.175263,-0.008 -2.39166,-1.06225 -4.925327,-2.34169 z"/><path d="m 97.903105,162.465 c -2.573884,-1.29661 -4.722399,-2.39619 -4.774478,-2.44352 -0.05208,-0.0473 0.115903,-0.49329 0.373292,-0.99103 l 0.46798,-0.90497 1.738897,0.87779 c 0.956393,0.48279 1.799477,0.87779 1.873519,0.87779 0.07404,0 0.819602,-1.28328 1.6568,-2.85174 0.837195,-1.56846 2.051625,-3.82711 2.698735,-5.01921 l 1.17656,-2.16746 -2.37684,0.18329 -2.376844,0.18329 0.470688,-0.98704 c 0.461262,-0.96728 0.517418,-0.99118 2.804296,-1.19362 2.07435,-0.18362 2.49181,-0.13247 3.75765,0.46042 l 1.42406,0.66699 -1.60541,3.02265 c -0.88298,1.66245 -2.33642,4.39883 -3.22988,6.08083 l -1.62447,3.05818 1.45753,0.73858 c 0.80164,0.40623 1.53432,0.86285 1.62818,1.01472 0.18273,0.29566 -0.40024,1.79273 -0.68806,1.76696 -0.0948,-0.008 -2.27832,-1.0763 -4.852205,-2.3729 z"/><path d="m 112.52745 159.47085 c -2.70016 -1.19188 -3.08922 -4.36653 -0.73122 -5.96651 0.81923 -0.55587 1.28459 -0.666 2.32985 -0.55136 3.462 0.37969 4.44028 4.99204 1.36804 6.44991 -1.20227 0.57052 -1.79727 0.58415 -2.96667 0.068 z m 2.64567 -1.77014 c 1.87452 -1.87452 -0.53539 -4.45653 -2.72684 -2.92158 -0.44333 0.31052 -0.64863 0.75233 -0.64557 1.38931 0.005 1.07247 0.20022 1.43626 1.01922 1.90068 0.90961 0.51581 1.5728 0.41198 2.35319 -0.36841 z"/><path d="m 125.05297,176.36634 c -2.69582,-0.95524 -4.8631,-3.81308 -4.37289,-5.76623 l 0.18597,-0.74094 1.45563,0.60493 c 0.80059,0.33271 1.38808,0.71423 1.30552,0.84781 -0.25392,0.41085 0.66196,2.2505 1.28695,2.58498 1.0452,0.55937 2.80326,0.38588 3.46629,-0.34207 1.51431,-1.66256 1.647,-3.0922 0.40252,-4.33668 -0.69804,-0.69804 -1.1028,-0.85496 -2.2053,-0.85496 -0.7798,0 -1.8421,-0.25087 -2.51422,-0.59376 -1.06149,-0.54154 -1.13364,-0.65028 -0.82013,-1.23607 0.3429,-0.64072 4.05203,-6.70806 4.21775,-6.89934 0.048,-0.0554 2.004,0.90782 4.3466,2.14059 l 4.25925,2.2414 -0.44292,0.85652 -0.44293,0.85653 -2.9125,-1.46156 c -1.60187,-0.80386 -3.03697,-1.46156 -3.18912,-1.46156 -0.25588,0 -2.36638,3.22313 -2.36638,3.61391 0,0.0956 0.36195,0.10381 0.80434,0.0183 0.54218,-0.10484 1.32865,0.11204 2.41301,0.66541 1.29499,0.66086 1.74229,1.09027 2.29387,2.20208 0.83646,1.68606 0.69028,3.06818 -0.52763,4.98862 -1.42834,2.25227 -3.93177,3.03307 -6.64368,2.07213 l 0,0 z"/></g><path d="m 32.805563,34.526246 c -0.232302,-0.0029 -0.442273,-0.01061 -0.466604,-0.01714 -0.103181,-0.02773 0.02251,-0.826746 0.225687,-1.434669 0.262445,-0.785275 0.541295,-1.33502 1.158255,-2.283484 l 0.46086,-0.708484 -0.465992,-0.02477 c -0.256295,-0.01363 -0.843245,-0.02384 -1.304333,-0.0227 -0.461092,0.0011 -0.856553,-0.003 -0.878807,-0.0092 -0.03911,-0.0109 -0.0442,-0.255866 -0.01184,-0.571781 0.01222,-0.119309 0.394428,-0.154801 1.731801,-0.160817 0.943868,-0.0042 1.732224,-0.0032 1.751905,0.0022 0.01968,0.0055 0.04146,0.172639 0.0484,0.371479 0.0095,0.27185 -0.12888,0.598257 -0.557797,1.315876 -0.622491,1.041479 -1.170734,2.49493 -1.175625,3.116702 -0.0017,0.216784 -0.02345,0.402668 -0.04832,0.41308 -0.02486,0.01045 -0.235286,0.01656 -0.467587,0.01368 z"/><g transform="matrix(0.28319228 -0.1487549 0.14956323 0.29451606 -32.532901 1.4699341)"><path d="m 149.95926 177.2154 c -0.47903 -0.24601 -0.925 -0.49492 -0.99104 -0.55315 -0.0933 -0.0823 1.87794 -4.61475 2.18722 -5.02899 0.10686 -0.14313 2.46641 1.10464 2.46641 1.30427 0 0.0963 -0.48352 0.9821 -1.07448 1.96835 -1.80269 3.00849 -1.59242 2.82085 -2.58811 2.30952 z"/><path d="m 138.81223,206.88287 -4.71883,-2.39756 0.44661,-0.92716 0.44662,-0.92715 1.8498,0.91217 c 1.01739,0.5017 1.90326,0.85311 1.9686,0.78091 0.12305,-0.13596 4.93615,-9.27112 5.12538,-9.72786 0.0606,-0.14631 -0.85711,-0.16761 -2.12053,-0.0492 -1.22507,0.1148 -2.2274,0.12092 -2.2274,0.0136 0,-0.10732 0.19073,-0.56397 0.42385,-1.01477 0.39529,-0.7644 0.58245,-0.83287 2.77711,-1.0159 2.06354,-0.17209 2.50648,-0.11898 3.59784,0.43139 0.68452,0.34521 1.28499,0.66284 1.33438,0.70586 0.0494,0.043 -1.29971,2.70685 -2.99799,5.91964 -1.69828,3.21279 -3.08778,5.99265 -3.08778,6.17748 0,0.18483 0.71529,0.68686 1.58953,1.11563 l 1.58954,0.77958 -0.4271,0.82592 c -0.23491,0.45426 -0.52244,0.81896 -0.63896,0.81046 -0.11651,-0.008 -2.33532,-1.09435 -4.93067,-2.41301 l 0,0 z"/><path d="m 151.8126,201.84172 -0.78554,-0.42651 1.03697,-2.26728 c 0.57033,-1.24701 1.12125,-2.35521 1.22427,-2.46267 0.10302,-0.10746 0.7367,0.09 1.40819,0.43873 l 1.22089,0.63412 -1.36541,2.26677 c -0.75097,1.24673 -1.4978,2.26151 -1.65961,2.25506 -0.16182,-0.006 -0.64771,-0.20364 -1.07976,-0.43822 z"/><path d="m 127.88111,201.4334 c -1.14935,-0.34962 -2.71201,-1.19871 -3.46262,-1.88146 -1.03029,-0.93715 -1.50776,-2.05482 -1.50776,-3.52934 l 0,-1.32583 1.38931,0.54372 c 1.19436,0.46741 1.40206,0.67039 1.48014,1.44644 0.18075,1.79656 2.75215,2.99965 4.45892,2.08621 1.11531,-0.59689 1.79032,-2.84913 1.26455,-4.21928 -0.26008,-0.67776 -1.66535,-1.3293 -2.86708,-1.3293 -0.56672,0 -1.6144,-0.28373 -2.32818,-0.63051 l -1.29778,-0.63051 1.63522,-2.65996 c 0.89937,-1.46299 1.94219,-3.15358 2.31738,-3.75688 l 0.68216,-1.09692 4.16422,2.08061 c 2.29032,1.14434 4.21483,2.1273 4.2767,2.18436 0.12906,0.11904 -0.56239,1.87743 -0.73826,1.87743 -0.0638,0 -1.42748,-0.65809 -3.03031,-1.46243 -1.60284,-0.80434 -3.0175,-1.46244 -3.14371,-1.46244 -0.17536,0 -1.87487,2.54562 -2.34034,3.50547 -0.0402,0.0828 0.51483,0.16314 1.23334,0.17844 1.55027,0.033 3.38754,1.1251 4.27841,2.54314 0.45237,0.72007 0.56319,1.29914 0.47552,2.48469 -0.25998,3.51545 -3.71841,6.03426 -6.93983,5.05435 z"/><path d="m 114.24338 184.18144 c -1.27679 -0.77855 -1.86218 -1.7228 -1.86218 -3.00374 0 -1.45701 1.37378 -3.06444 2.85677 -3.34265 2.01064 -0.3772 4.4554 1.608 4.4554 3.61787 0 0.79246 -1.18709 2.47558 -2.05618 2.91534 -1.04151 0.52701 -2.34041 0.45551 -3.39381 -0.18682 z m 3.04502 -1.35674 c 1.44735 -1.01377 0.45454 -3.6395 -1.37613 -3.6395 -0.99471 0 -2.06863 1.15339 -2.06863 2.2217 0 1.52221 2.07587 2.3766 3.44476 1.4178 z"/><path d="m 101.2667,187.97877 c -3.142124,-0.95925 -5.264759,-3.19548 -5.264759,-5.54651 0,-1.14178 0.176501,-1.21463 1.634025,-0.67444 0.882984,0.32726 1.290843,0.64791 1.290843,1.01483 0,0.89654 0.789175,2.12816 1.600501,2.49783 1.74588,0.79547 3.232,0.24242 4.06486,-1.5127 0.67185,-1.41582 0.59769,-2.08823 -0.34691,-3.14542 -0.69115,-0.77354 -1.03253,-0.92135 -2.12053,-0.91819 -1.02993,0.003 -3.10796,-0.69601 -3.740668,-1.25829 -0.09631,-0.0856 3.880928,-6.7039 4.351898,-7.24178 0.15646,-0.17868 8.14909,3.53368 8.71623,4.04846 0.0521,0.0473 -0.11558,0.49256 -0.37258,0.98954 l -0.46726,0.90359 -3.18295,-1.59631 -3.18294,-1.59631 -1.05115,1.76457 c -0.57813,0.97051 -1.05115,1.80382 -1.05115,1.8518 0,0.048 0.5947,0.15427 1.32155,0.2362 1.62366,0.18301 3.46899,1.35964 4.12653,2.63118 1.95254,3.7758 -2.25201,8.79555 -6.32554,7.55195 z"/><path d="m 87.742838,181.15199 c -2.53166,-1.32304 -4.601734,-2.47133 -4.600164,-2.55177 0.0016,-0.0804 0.238772,-0.45292 0.527116,-0.82774 l 0.524263,-0.68151 1.664056,0.81613 c 1.450826,0.71155 1.715094,0.7614 2.062364,0.38902 0.219069,-0.23491 1.485548,-2.51529 2.814396,-5.0675 l 2.416088,-4.64038 -2.427684,0.2149 -2.427684,0.2149 0.622693,-0.98552 c 0.592157,-0.9372 0.7345,-0.99697 2.902594,-1.21875 2.032834,-0.20794 2.430456,-0.1629 3.669213,0.41561 0.764122,0.35685 1.389312,0.66629 1.389312,0.68764 0,0.0213 -1.44781,2.78274 -3.217355,6.13642 -1.769545,3.35369 -3.217355,6.11934 -3.217355,6.14588 0,0.0265 0.774011,0.41821 1.720025,0.87036 l 1.720024,0.8221 -0.476955,0.83851 c -0.262326,0.46118 -0.608575,0.83597 -0.769443,0.83287 -0.160868,-0.003 -2.363845,-1.08813 -4.895504,-2.41117 z"/><path d="m 75.747228,175.07315 c -2.533668,-1.27944 -4.606668,-2.38506 -4.606668,-2.45694 0,-0.36593 0.710666,-1.62065 0.917929,-1.62065 0.131482,0 0.965145,0.35611 1.852584,0.79135 1.009539,0.49513 1.711251,0.68673 1.874597,0.51185 0.338645,-0.36254 5.006955,-9.32822 5.006955,-9.61606 0,-0.12054 -0.992633,-0.12615 -2.205851,-0.0125 l -2.205851,0.20671 0.485804,-1.01874 c 0.484713,-1.01646 0.491324,-1.01917 2.943733,-1.20768 2.193973,-0.16864 2.596444,-0.11802 3.747756,0.47138 l 1.289827,0.66032 -3.187927,5.99598 c -1.753359,3.29779 -3.192304,6.07219 -3.197656,6.16535 -0.0054,0.0932 0.657004,0.48165 1.471899,0.86332 0.814896,0.38168 1.540473,0.78917 1.612394,0.90554 0.201293,0.3257 -0.514602,1.71984 -0.874198,1.70242 -0.175263,-0.008 -2.39166,-1.06225 -4.925327,-2.34169 z"/></g></g></g></svg>