<svg xmlns="http://www.w3.org/2000/svg" viewBox="0 0 256 256"><g transform="translate(0 -796.36)"><path d="m 252.74692 895.06719 c -49.981 -239.91 -393.86 17.642 -187.290002 139.59001 80.250002 52.27 213.000002 -16.2 187.290002 -139.59001 z" style="fill:#ffdab9;color:#000"/><g transform="matrix(0.72432676 0 0 0.69620147 38.637289 283.0703)"><path d="m 22.173752 1014.3631 c -0.690451 -1.2901 -1.035184 -30.43946 -1.035184 -87.53138 0 -69.47169 0.245803 -85.69145 1.304775 -86.09782 0.717626 -0.27538 4.729066 1.05981 8.914312 2.96709 53.700472 24.47209 136.143435 24.64287 190.095535 0.39377 4.84804 -2.17898 9.46054 -3.71392 10.25 -3.41098 1.23159 0.47261 1.43538 12.61397 1.43538 85.5171 0 55.21581 -0.35638 85.90362 -1.01782 87.64332 -1.17683 3.0953 -0.55069 3.205 -14.45133 -2.532 -55.57856 -22.9381 -132.1181 -22.0793 -185.400927 2.0803 -7.557199 3.4266 -8.720478 3.5384 -10.094741 0.9706 z" style="fill:#f6c6a4"/><path d="m 22.745557,1013.7156 c -0.333844,-0.87 -0.606989,-39.80913 -0.606989,-86.53141 0,-68.66438 0.248558,-85.04498 1.296566,-85.44714 0.713112,-0.27365 4.650612,1.04136 8.75,2.92225 15.894971,7.29293 41.482336,14.01281 63.953434,16.79577 13.543792,1.67734 48.508882,1.67301 62.000002,-0.008 22.39337,-2.78972 40.59365,-7.39335 58.5,-14.79716 6.05,-2.50151 12.01501,-4.78219 13.25558,-5.06818 l 2.25557,-0.51997 -0.25557,86.354 c -0.23691,80.04494 -0.37864,86.37764 -1.94,86.67834 -0.92643,0.1784 -6.77643,-1.6761 -13,-4.1211 -18.01611,-7.0778 -36.25023,-11.72074 -58.31558,-14.84889 -13.79509,-1.95571 -52.37908,-1.66638 -66.500002,0.49866 -21.895566,3.35707 -43.855018,9.50783 -59.870075,16.76943 -7.348708,3.332 -8.680988,3.5171 -9.522936,1.3231 z m 25.248341,-14.59271 c 23.038876,-7.94763 43.843375,-11.62995 70.715822,-12.51643 31.30504,-1.0327 60.32492,3.15651 88.30963,12.74808 8.04057,2.75586 15.42058,5.27646 16.40003,5.60146 1.65546,0.5491 1.76104,-0.3155 1.5,-12.28395 l -0.28081,-12.87469 -9,-0.74356 c -12.7788,-1.05575 -27.17954,-4.1534 -48.36148,-10.40273 -44.785,-13.21296 -60.76844,-15.62507 -89.138522,-13.45212 -17.392932,1.33218 -29.636533,3.75131 -40.75,8.05154 l -8.25,3.19224 0,19.94074 0,19.94073 3.75,-1.6421 c 2.0625,-0.9031 8.859898,-3.4047 15.10533,-5.55921 z M 185.26284,935.75595 c 12.87267,-4.53456 19.39322,-20.60513 13.27834,-32.72582 -4.30091,-8.5251 -11.69896,-13.06211 -21.40261,-13.1256 -21.86554,-0.14307 -32.15367,26.17938 -15.93247,40.76364 7.09007,6.37458 15.40919,8.134 24.05674,5.08778 z M 34.356344,856.31026 c 1.255223,0.007 5.134816,0.9071 8.621318,2 10.200211,3.19743 9.453235,2.21841 -1.839094,-2.41042 -5.775,-2.36722 -10.8375,-4.11963 -11.25,-3.89424 -0.930458,0.5084 -0.978168,4.53359 -0.08143,6.87044 0.595105,1.55082 0.756383,1.50487 1.467776,-0.41821 0.501748,-1.35636 1.64864,-2.15567 3.081434,-2.14757 z m 178.443396,1.53003 c 8.00993,-2.54363 10.32049,-2.24694 10.35414,1.32951 0.0133,1.41613 0.14124,1.4327 0.98469,0.12756 1.10317,-1.70703 1.35336,-8 0.31805,-8 -0.79795,0 -20.6195,8.03873 -21.23472,8.61185 -1.01645,0.94689 2.41548,0.20555 9.57784,-2.06892 z" style="fill:#dcb090"/><path d="m 23.836498,1013.6155 c -0.974381,-1.5806 -1.781317,-168.7849 -0.821522,-170.22674 0.776718,-1.16682 2.369758,-0.79851 9.280632,2.14569 18.903174,8.05319 39.628524,13.4788 62.34296,16.32052 15.489662,1.93785 46.421182,2.19489 61.500002,0.51105 22.72384,-2.53756 48.1241,-9.07428 64.8124,-16.67938 8.6516,-3.94266 9.82903,-4.09438 10.69128,-1.37767 1.01686,3.20382 -0.54061,167.36013 -1.59823,168.45233 -0.59734,0.6169 -2.09845,0.4851 -4.16942,-0.3661 -36.67202,-15.07365 -69.31984,-21.08769 -107.23603,-19.75396 -35.201388,1.23824 -56.013821,6.0015 -93.148851,21.31856 -0.631868,0.2607 -1.375817,0.1057 -1.653221,-0.3443 z m 13.849644,-9.337 c 31.611623,-12.55752 70.686418,-18.53162 104.944188,-16.04483 26.83023,1.94761 50.23233,6.83843 72.19544,15.08813 5.79376,2.1763 10.93432,3.7095 11.42346,3.4072 1.06419,-0.6577 1.17818,-25.46867 0.12403,-26.99636 -0.40408,-0.58559 -5.90969,-1.60143 -12.23469,-2.25742 -13.71037,-1.42194 -28.20193,-4.75167 -56.5,-12.98203 -34.87725,-10.14388 -38.09894,-10.66215 -66.000002,-10.61742 -20.909865,0.0335 -25.319763,0.32309 -34.250136,2.24899 -11.516986,2.48373 -26.569786,7.63538 -28.786132,9.85173 -1.183655,1.18365 -1.463732,5.14939 -1.463732,20.72563 0,10.59405 0.3,19.56188 0.666667,19.92858 1.040925,1.0409 1.785089,0.8638 9.880907,-2.3522 z M 187.13857,936.21645 c 9.90871,-4.48532 14.44203,-11.66229 14.47682,-22.91909 0.0198,-6.42006 -0.37601,-8.17908 -2.74912,-12.21611 -10.86252,-18.47888 -38.14377,-16.09162 -45.30095,3.96408 -3.01122,8.438 -0.78562,19.03569 5.3822,25.62851 6.71303,7.17559 19.17211,9.62516 28.19105,5.54261 z M 81.638568,866.32829 C 65.061913,862.42872 49.25847,857.73877 38.885899,853.6407 c -4.813968,-1.90194 -9.255805,-3.14712 -9.870749,-2.76706 -1.188765,0.73469 -0.783617,15.85002 0.458125,17.09176 1.152192,1.15219 1.882687,-0.41713 2.422192,-5.20361 0.287298,-2.5489 1.047411,-4.83584 1.689141,-5.0821 0.64173,-0.24625 6.620412,1.12199 13.28596,3.04053 11.29503,3.25105 29.181008,7.03698 37.268,7.88852 9.219215,0.97077 8.48897,0.30465 -2.5,-2.28045 z m 91.526232,1.92895 c 10.39026,-1.27536 27.6728,-5.30892 38.6601,-9.02286 9.27064,-3.13368 9.72173,-2.96782 10.59454,3.89557 1.14208,8.9808 2.94148,6.76205 3.5245,-4.34589 0.51375,-9.78821 0.51579,-9.78659 -8.01835,-6.37019 -11.4737,4.59318 -23.02529,8.24831 -39.28702,12.43114 -18.1453,4.66732 -18.74512,5.04123 -5.47377,3.41223 z" style="fill:#efa46d"/><path d="m 23.836498,1013.6155 c -0.974381,-1.5806 -1.781317,-168.7849 -0.821522,-170.22674 0.776718,-1.16682 2.369758,-0.79851 9.280632,2.14569 18.903174,8.05319 39.628524,13.4788 62.34296,16.32052 15.489662,1.93785 46.421182,2.19489 61.500002,0.51105 22.72384,-2.53756 48.1241,-9.07428 64.8124,-16.67938 8.6516,-3.94266 9.82903,-4.09438 10.69128,-1.37767 1.01686,3.20382 -0.54061,167.36013 -1.59823,168.45233 -0.59734,0.6169 -2.09845,0.4851 -4.16942,-0.3661 -36.67202,-15.07365 -69.31984,-21.08769 -107.23603,-19.75396 -35.201388,1.23824 -56.013821,6.0015 -93.148851,21.31856 -0.631868,0.2607 -1.375817,0.1057 -1.653221,-0.3443 z m 13.849644,-9.337 c 31.611623,-12.55752 70.686418,-18.53162 104.944188,-16.04483 26.83023,1.94761 50.23233,6.83843 72.19544,15.08813 5.79376,2.1763 10.93432,3.7095 11.42346,3.4072 1.06429,-0.6578 1.17782,-25.4369 0.12403,-27.07071 -0.40408,-0.62649 -5.68469,-1.66595 -11.73469,-2.3099 -14.34156,-1.5265 -25.81775,-4.05154 -47.92466,-10.5446 -43.76058,-12.85301 -44.66488,-13.0095 -75.075342,-12.99223 -19.997748,0.0114 -26.771576,0.37187 -33.85389,1.80171 -11.060683,2.23304 -27.735184,8.11503 -29.39611,10.36959 -1.339368,1.81807 -1.878031,39.35314 -0.583333,40.64784 1.040925,1.0409 1.785089,0.8638 9.880907,-2.3522 z M 225.89626,911.54736 c 0.22532,-53.55668 0.0716,-61.25 -1.22397,-61.25 -0.81491,0 -4.90149,1.3585 -9.08129,3.0189 -18.69737,7.42739 -40.40282,12.66998 -62.2098,15.02575 -14.59319,1.57647 -51.00357,0.71901 -65.242632,-1.53646 -14.220718,-2.25256 -34.472659,-7.53866 -46,-12.00679 -5.225,-2.02526 -10.5125,-3.91906 -11.75,-4.20843 l -2.25,-0.52612 0,54.61657 c 0,31.57407 0.37854,54.61658 0.897236,54.61658 0.493479,0 6.230979,-1.78194 12.75,-3.95987 16.875758,-5.63799 31.468548,-7.39523 55.852764,-6.72568 21.618662,0.5936 28.427472,1.78505 55.774672,9.75982 42.09358,12.27497 54.21753,14.94775 66.22533,14.59966 l 6,-0.17393 0.25769,-61.25 z m -58.42524,29.96022 c -17.12147,-6.11982 -25.08924,-24.66812 -17.48782,-40.71022 2.92884,-6.18107 8.54435,-12.09369 14.34563,-15.10468 5.0025,-2.59639 16.40283,-3.02335 22.92083,-0.85842 7.87111,2.61436 16.16094,11.15115 18.43938,18.98871 4.2811,14.72646 -1.9604,29.61382 -15.11349,36.04903 -7.20757,3.52633 -16.06128,4.15309 -23.10453,1.63558 z m 19.66755,-5.29113 c 9.90871,-4.48532 14.44203,-11.66229 14.47682,-22.91909 0.0198,-6.42006 -0.37601,-8.17908 -2.74912,-12.21611 -10.86252,-18.47888 -38.14377,-16.09162 -45.30095,3.96408 -3.01122,8.438 -0.78562,19.03569 5.3822,25.62851 6.71303,7.17559 19.17211,9.62516 28.19105,5.54261 z" style="fill:#b1886a"/><path d="m 25.138568,1010.1435 c 0,-1.7453 0.248,-1.8852 1.5,-0.8461 0.825,0.6847 1.5,1.3666 1.5,1.5154 0,0.1488 -0.675,0.5296 -1.5,0.8462 -1.03862,0.3985 -1.5,-0.068 -1.5,-1.5155 z m 201.000002,0.1539 c -1.29735,-0.8385 -1.27484,-0.9715 0.16667,-0.9847 0.91666,-0.01 1.89364,-0.5778 2.17105,-1.2653 0.27741,-0.6875 0.53991,-0.2375 0.58333,1 0.0859,2.448 -0.60785,2.7449 -2.92105,1.25 z M 23.888568,976.88515 c -0.4125,-14.25172 -0.75,-50.19168 -0.75,-79.86658 l 0,-53.95436 2.25,0.54403 c 1.2375,0.29922 7.244028,2.60289 13.34784,5.11926 12.722721,5.24511 32.506401,10.47609 49.90216,13.19458 18.404902,2.87619 62.043032,2.63354 80.000002,-0.44485 21.6372,-3.7093 43.99633,-10.40982 57.62618,-17.26925 1.9944,-1.00371 3.92331,-1.52779 4.28648,-1.16462 0.85505,0.85504 0.52187,126.2586 -0.38592,145.254 l -0.69295,14.50004 -0.16689,-11.07573 c -0.21694,-14.39629 -0.49729,-14.69381 -15.30928,-16.24669 -14.82026,-1.55375 -22.81315,-3.34266 -50.20011,-11.23543 -39.70321,-11.44224 -53.60308,-13.64897 -79.157512,-12.56696 -18.364237,0.77756 -30.492119,2.66892 -43.184738,6.73473 -12.185625,3.9034 -15.265053,6.61038 -15.429267,13.56312 -0.0627,2.6548 -0.400203,10.67692 -0.75,17.82692 -0.616869,12.60904 -0.658549,12.22074 -1.385995,-12.91221 z M 225.214,974.25699 c 1.89458,-1.01395 1.94145,-2.60265 1.8457,-62.56537 -0.083,-51.95238 -0.3176,-61.60917 -1.50807,-62.06599 -0.7754,-0.29755 -6.29302,1.28923 -12.26137,3.52618 -45.34654,16.99597 -94.52487,20.09755 -143.151692,9.0283 -9.552961,-2.17461 -17.044408,-4.47323 -31.197172,-9.5723 -5.333445,-1.92158 -10.130507,-3.22597 -10.660137,-2.89864 -0.596539,0.36868 -0.997832,21.48134 -1.054598,55.484 -0.07721,46.24924 0.129265,54.97362 1.311769,55.42739 0.771871,0.29619 4.532784,-0.73498 8.357585,-2.29149 25.49052,-10.37344 65.636565,-12.0223 97.464035,-4.00298 4.55318,1.14723 18.00255,4.9868 29.88748,8.53238 27.44167,8.18656 36.88987,10.20138 57.70678,12.30587 0.72366,0.0732 2.19052,-0.33515 3.25969,-0.90735 z m -54.57543,-32.93561 c -14.06904,-3.61695 -22.50972,-14.28826 -22.49023,-28.43374 0.0127,-9.24826 2.84881,-15.47962 9.95171,-21.86574 14.20227,-12.76906 36.12744,-8.61456 45.28974,8.58175 1.83418,3.44249 2.23572,5.80589 2.24161,13.19371 0.006,8.1229 -0.28318,9.52424 -2.97211,14.37926 -6.23395,11.25575 -19.85459,17.2725 -32.02072,14.14476 z m 17.61647,-4.11683 c 12.5504,-6.28685 17.91844,-19.64396 13.31924,-33.14185 -3.08857,-9.06444 -13.99432,-16.73592 -23.81969,-16.75557 -8.12917,-0.0163 -12.58827,1.88428 -18.65512,7.95113 -6.11581,6.11581 -7.9609,10.50488 -7.9609,18.93724 0,18.50412 20.60736,31.27893 37.11647,23.00905 z m 11.69603,63.40975 c 0.72187,-0.2889 1.58437,-0.2534 1.91667,0.079 0.33229,0.3322 -0.25834,0.5686 -1.3125,0.5252 -1.16495,-0.048 -1.4019,-0.285 -0.60417,-0.6042 z m -7,-2.00005 c 0.72187,-0.28887 1.58437,-0.25335 1.91667,0.0789 0.33229,0.33229 -0.25834,0.56864 -1.3125,0.52522 -1.16495,-0.048 -1.4019,-0.28494 -0.60417,-0.60416 z m -129.000002,-1 c 0.721875,-0.28887 1.584375,-0.25335 1.916667,0.0789 0.332291,0.33229 -0.258334,0.56864 -1.3125,0.52522 -1.164943,-0.048 -1.4019,-0.28494 -0.604167,-0.60416 z m 125.000002,0 c 0.72187,-0.28887 1.58437,-0.25335 1.91667,0.0789 0.33229,0.33229 -0.25834,0.56864 -1.3125,0.52522 -1.16495,-0.048 -1.4019,-0.28494 -0.60417,-0.60416 z M 69.138568,996.29736 c 1.375,-0.44035 3.4,-0.80064 4.5,-0.80064 1.583666,0 1.479583,0.16667 -0.5,0.80064 -1.375,0.44035 -3.4,0.80064 -4.5,0.80064 -1.583666,0 -1.479583,-0.16667 0.5,-0.80064 z m 115.812502,0.31689 c 0.72187,-0.28887 1.58437,-0.25335 1.91667,0.0789 0.33229,0.33229 -0.25834,0.56864 -1.3125,0.52522 -1.16495,-0.048 -1.4019,-0.28494 -0.60417,-0.60416 z m -5.0625,-0.97917 c 0.6875,-0.27741 1.8125,-0.27741 2.5,0 0.6875,0.27741 0.125,0.50439 -1.25,0.50439 -1.375,0 -1.9375,-0.22698 -1.25,-0.50439 z m -103.000002,-1 c 0.6875,-0.27741 1.8125,-0.27741 2.5,0 0.6875,0.27741 0.125,0.50439 -1.25,0.50439 -1.375,0 -1.9375,-0.22698 -1.25,-0.50439 z m 98.000002,0 c 0.6875,-0.27741 1.8125,-0.27741 2.5,0 0.6875,0.27741 0.125,0.50439 -1.25,0.50439 -1.375,0 -1.9375,-0.22698 -1.25,-0.50439 z m -93.650269,-0.77079 c 0.238187,-0.23818 5.825687,-1.21778 12.416667,-2.17689 15.045402,-2.18936 48.528722,-2.46075 63.281862,-0.5129 5.66404,0.74782 10.09155,1.56638 9.83891,1.81902 -0.25264,0.25265 -4.88686,-0.11463 -10.29826,-0.81617 -13.90091,-1.80212 -49.11792,-1.52091 -62.762981,0.50116 -11.634275,1.7241 -13.15947,1.86906 -12.476198,1.18578 z m 88.169299,-0.25992 c 0.97297,-0.25354 2.32297,-0.23687 3,0.0371 0.67703,0.27393 -0.11903,0.48137 -1.76903,0.46099 -1.65,-0.0204 -2.20394,-0.2445 -1.23097,-0.49804 z" style="fill:#a06f4c"/></g></g></svg>