<svg xmlns="http://www.w3.org/2000/svg" viewBox="0 0 256 256"><path d="m 3.74 950.97 c 19.829 131.87 217.21 135.83 247.04 7.636 30.702 -103.78 -80.47 -188.63 -163.63 -154.63 -55.684 16.07 -100.67 81.83 -83.41 146.99 z" transform="translate(0 -796.36)" style="fill:#b22222;color:#000"/><g transform="matrix(-0.91609107 0.00958334 0.00939797 0.90206226 238.0166 147.73725)" style="fill:#8b0000"><path d="m 146.87382,57.012681 c -0.6424,-0.546633 -0.64205,-21.489565 2.2e-4,-33.402636 l 0.49297,-9.139059 24.7522,-0.0047 24.7522,-0.0047 -0.004,21.484576 -0.004,21.484585 -24.74382,0.0047 c -13.60912,0.0026 -24.96988,-0.187696 -25.24616,-0.422799 z M 44.403067,25.62008 c -0.278689,-0.237155 -0.503241,-19.6877335 -0.499019,-43.22351 0.0064,-35.796895 0.179345,-42.913584 1.057736,-43.53405 0.759501,-0.536481 7.845498,-0.691588 25.608448,-0.560553 l 24.558399,0.181165 0.201709,-21.484616 0.201707,-21.484616 25.040953,-0.17368 25.04097,-0.17368 0.40666,1.45154 c 0.22367,0.79835 0.31243,20.354784 0.19727,43.458749 l -0.20942,42.007206 -25.62305,0.0048 -25.623041,0.0048 -0.004,21.8052454 -0.004,21.8052526 -24.922271,0.173531 c -13.707253,0.09544 -25.15029,-0.02051 -25.42897,-0.257643 z" style="fill:#f08080"/><path d="m 149.49817,60.018573 c 0.0918,-0.524552 0.35954,-1.115036 0.59482,-1.312188 0.80683,-0.676114 48.15969,-0.676027 48.32061,7.9e-5 0.0841,0.353326 0.3659,-2.68203 0.62624,-6.745235 l 0.47334,-7.387634 -0.0512,8.030043 -0.0513,8.030033 -25.03971,0.169309 c -21.78309,0.147293 -25.018,0.04533 -24.87269,-0.784407 z M 46.179691,28.312097 c -0.211987,-0.287437 -0.100438,-1.949661 0.247893,-3.693813 0.348332,-1.744169 0.673901,-2.809854 0.723497,-2.368202 0.118863,1.05864 44.568477,1.175246 45.827481,0.120219 0.575314,-0.482112 0.936976,0.225687 1.230553,2.408279 0.228665,1.700085 0.255612,3.308207 0.0599,3.573601 -0.484136,0.656436 -47.604578,0.617164 -48.089309,-0.04008 z m -0.07285,-43.139771 c -0.25205,-0.341759 -0.227323,-2.080293 0.0549,-3.86341 0.357392,-2.25767 0.773744,-3.070917 1.371271,-2.678469 0.975755,0.640842 44.203422,0.552745 45.449538,-0.09263 0.512888,-0.265631 0.985269,0.805251 1.282304,2.907008 0.325541,2.303319 0.180723,3.481715 -0.470454,3.828382 -1.39683,0.743624 -47.136127,0.646854 -47.687602,-0.100881 z m 51.867444,-0.84558 c -0.517669,-0.522706 -0.556332,-1.16941 -0.105607,-1.766614 0.391057,-0.518129 0.721578,-1.809298 0.734485,-2.869269 0.01399,-1.14615 0.261819,-1.612959 0.611567,-1.151812 0.69568,0.917262 44.42852,0.990388 45.8583,0.07665 0.59332,-0.379148 0.98415,0.394374 1.26888,2.511287 0.22632,1.682559 0.25134,3.276347 0.0556,3.541742 -0.19571,0.265395 -10.98726,0.482532 -23.98122,0.482532 -18.29432,0 -23.809639,-0.186056 -24.441984,-0.824545 z m 0.301853,-43.224688 c -0.889092,-0.745054 -1.003429,-1.320907 -0.438055,-2.206179 0.420792,-0.658878 0.76508,-1.94984 0.76508,-2.868803 0,-1.492165 0.170187,-1.594517 1.591447,-0.95711 1.75374,0.78652 39.09741,0.740969 43.36059,-0.05289 2.40455,-0.447758 2.40623,-0.446144 2.91708,2.780941 0.37047,2.340268 0.23576,3.375327 -0.48944,3.760771 -0.55035,0.292503 -11.23878,0.536241 -23.75209,0.541649 -19.65933,0.0088 -22.915004,-0.127184 -23.954612,-0.998378 z"/></g><g style="fill:#8b0000;stroke:#556b2f;fill-rule:evenodd"><path d="m 58.046534 203.38138 c -0.465791 -0.15066 -0.579419 -0.56397 -0.552895 -2.01091 0.01835 -1.0017 0.131441 -2.17344 0.251266 -2.60388 l 0.217878 -0.78261 l 20.77137 -0.16505 c 11.424265 -0.0907 21.619797 -0.27114 22.656727 -0.40081 l 1.88536 -0.23579 l 0.37604 2.26773 c 0.58279 3.51453 0.70944 3.31137 -2.22037 3.56214 -3.339271 0.28583 -42.609902 0.61999 -43.385376 0.36918 z" style="stroke-width:0.39207211"/><path d="m 149.93629 91.067092 c 0.11967 -0.425758 0.44796 -0.529621 1.59724 -0.505381 0.79564 0.01673 1.72633 0.120144 2.06823 0.229675 l 0.62161 0.199153 l 0.13109 18.986151 c 0.072 10.44237 0.21537 19.76164 0.31836 20.70944 l 0.1873 1.72333 l -1.80123 0.34372 c -2.79154 0.5327 -2.63018 0.64846 -2.82935 -2.02954 -0.22704 -3.05227 -0.49245 -38.947728 -0.29325 -39.656548 z" style="stroke-width:0.33407184"/></g></svg>