<svg xmlns="http://www.w3.org/2000/svg" viewBox="0 0 256 256"><defs><clipPath><rect width="84" height="84" rx="6" x="6" y="6" style="fill:#fff"/></clipPath><filter style="color-interpolation-filters:sRGB"><feGaussianBlur stdDeviation="1.71"/></filter><linearGradient y1="92.54" x2="0" y2="7.02" gradientUnits="userSpaceOnUse" gradientTransform="scale(1.0059 0.99417)"><stop/><stop offset="1" style="stop-opacity:0.588"/></linearGradient></defs><g transform="translate(30.436 -1114.07)"><path d="m -26.549 1269.47 c 19.829 131.27 217.21 135.21 247.04 7.601 30.702 -103.31 -80.47 -187.77 -163.63 -153.92 -55.684 15.999 -100.67 81.46 -83.41 146.32 z" style="fill:#f5f5f5;color:#000"/><g transform="matrix(1 0 0 0.06627 -2.826 -2323.93)" style="fill-rule:evenodd"><g style="stroke-width:9.302"><path d="m 35.418 54335.83 l 60.49 580.78 l 69.75 -484.79 l -64.27 -206.16 z" style="fill:#faa;stroke:#d7688c"/><path d="m 35.418 53373.99 v 961.84 l 65.964 -110.17 v -627.22 z" style="fill:#e085e0;stroke:#bb1189"/></g><path d="m 101.38 53598.44 l 64.27 -140.51 v 973.89 l -64.27 -206.16 z" style="fill:#e9e9ff"/><g style="stroke-width:9.302"><path d="m 35.418 53373.99 l 60.49 -575.38 l 69.75 659.32 l -64.27 140.51 z" style="fill:#f60;stroke:#d66c44"/><path d="m 95.91 52798.61 v 2118 l 69.75 -484.79 v -973.89 z" style="fill:#ff005a;stroke:#ab1e4c"/></g></g></g></svg>