<svg xmlns="http://www.w3.org/2000/svg" viewBox="0 0 256 256"><path d="m 22.010842,53.619998 c 48.541,-88.14 200.629998,-53.93099957 226.359998,18.64 C 279.03084,158.71 199.23084,322.89 64.070842,226.71 c -45.527,-33.585 -90.6,-84.949 -42.05,-173.090002 z" style="fill:#5f9ea0;color:#000"/><g style="fill:#2f4f4f"><path d="m 154.72852 207.61441 c -2.99517 -3.4375 -8.41293 -10.55799 -12.03948 -15.82332 -8.2015 -11.90761 -15.19639 -19.79085 -26.36258 -29.71059 -4.7771 -4.24385 -12.19606 -10.99849 -16.486576 -15.01031 -6.368333 -5.95468 -8.125419 -7.11532 -9.567831 -6.32 -0.971792 0.53583 -5.130632 4.38073 -9.241866 8.54423 -4.114775 4.16708 -8.332217 7.56999 -9.381966 7.56999 -4.955169 0 -14.643062 -9.6258 -14.643062 -14.54921 0 -1.34662 2.4076 -4.90582 6 -8.86989 3.3 -3.64142 6 -7.28046 6 -8.08676 0 -2.1928 19.940734 -23.27783 23.034481 -24.35632 1.473375 -0.51362 4.655861 -3.229527 7.072194 -6.035348 6.086906 -7.068065 8.943116 -7.032546 16.414556 0.204122 3.78753 3.668504 5.47877 6.085166 5.47877 7.828756 0 1.71774 -2.55152 5.46262 -8 11.74165 -4.4 5.07072 -8 9.44626 -8 9.72342 0 0.27716 3.0375 3.78404 6.75 7.79305 3.71249 4.00901 9 10.1094 11.75 13.55641 8.43204 10.56923 26.12564 25.79977 35.47718 30.53856 2.55901 1.29675 8.11205 5.65484 12.34008 9.68465 10.02044 9.55064 10.03706 10.34465 0.42507 20.30569 -4.62749 4.79552 -8.03965 7.52122 -9.41545 7.52122 -1.3993 0 -4.07194 -2.19687 -7.60352 -6.25 z" transform="matrix(1.1868826 0 0 1.18347 -11.738018 -54.42415)"/></g></svg>