<svg xmlns="http://www.w3.org/2000/svg" viewBox="0 0 256 256" xmlns:xlink="http://www.w3.org/1999/xlink"><defs><clipPath><path transform="matrix(15.33333 0 0 11.5 415 -125.5)" d="m -24 13 c 0 1.105 -0.672 2 -1.5 2 -0.828 0 -1.5 -0.895 -1.5 -2 0 -1.105 0.672 -2 1.5 -2 0.828 0 1.5 0.895 1.5 2 z"/></clipPath></defs><g transform="matrix(1.71111 0 0 1.6629 -51.12 -634.24)" style="fill:#fff"><path d="m 84 456.36 v 30 c 0 18 3 18 30 18 h 6 c 27 0 30 0 30 -18 v -30 c 0 -18 -3 -18 -30 -18 h -6 c -27 0 -30 0 -30 18 z m 30 -12 h 6 c 24 0 24 0 24 12 v 21 c 0 12 0 12 -24 12 h -6 c -24 0 -24 0 -24 -12 v -21 c 0 -12 0 -12 24 -12 z"/><path d="m 96 477.91 v -11.636 l 10.5 -10.909 l 13.13 13.636 l 5.25 -5.454 l 13.13 13.636 v 0.727 c 0 5.455 -0.875 5.455 -10.5 5.455 h -21 c -9.625 0 -10.5 0 -10.5 -5.455 z"/><path d="m 78 34.5 a 4.5 4.5 0 1 1 -9 0 4.5 4.5 0 1 1 9 0 z" transform="matrix(1.3333 0 0 1.3333 34 410.36)" style="color:#000"/><path transform="translate(60 414.36)" d="M 42,12 C 15,12 12,12 12,30 v 30 c 0,9.758 0.891,14.235 6,16.281 V 51 36 30 C 18,19.134 18.181,18.128 36,18.031 V 18 h 6 6 28.531 C 73.886,12.002 66.718,12 48,12 h -6 z"/><path d="m 90 414.36 c -27 0 -30 0 -30 18 v 30 c 0 9.758 0.891 14.235 6 16.281 v -25.281 v -15 v -6 c 0 -10.866 0.181 -11.872 18 -11.969 v -0.031 h 6 h 6 h 28.531 c -2.646 -5.998 -9.813 -6 -28.531 -6 h -6 z"/></g><g transform="translate(1.085 -795.28)"><path d="m 209.38 833.33 c 200.11 265.25 -350.59 302.94 -173.86 32.17 40.29 -61.728 120.86 -102.43 173.86 -32.17 z" style="fill:#ffd700;color:#000"/><g transform="matrix(4.8757 0 0 5.0402 10.119 811.94)"><g transform="matrix(1.0006 0 0 1.0003 0.985 0.984)" style="opacity:0.1"><path d="M 27.08,9.641 23.471,19.793 37.705,17.43 C 35.603,13.438 31.721,10.5 27.08,9.641 m 0,0" id="0"/><path d="m 38.15 19.449 l -10.738 1.988 l 9.199 10.98 c 2.457 -3.797 3.09 -8.586 1.527 -12.969" id="1"/><path d="m 35.07 33.809 l -7.121 -8.164 l -5.05 13.344 c 4.566 0.195 9.09 -1.656 12.156 -5.18" id="2"/><path d="m 20.922 38.36 l 3.617 -10.152 l -14.242 2.363 c 2.109 3.996 5.996 6.934 10.625 7.789" id="3"/><path d="m 9.852 28.559 l 10.734 -1.988 l -9.199 -10.98 c -2.453 3.801 -3.09 8.586 -1.527 12.969" id="4"/><path d="m 12.926 14.207 l 7.121 8.164 l 5.05 -13.344 c -4.563 -0.195 -9.09 1.656 -12.152 5.18" id="5"/></g><g transform="matrix(1.0006 0 0 1.0003 -0.015 -0.016)" style="fill:#333"><use xlink:href="#0"/><use xlink:href="#1"/><use xlink:href="#2"/><use xlink:href="#3"/><use xlink:href="#4"/><use xlink:href="#5"/></g></g></g></svg>