<svg xmlns="http://www.w3.org/2000/svg" viewBox="0 0 256 256"><defs><clipPath><path d="m -24 13 c 0 1.105 -0.672 2 -1.5 2 -0.828 0 -1.5 -0.895 -1.5 -2 0 -1.105 0.672 -2 1.5 -2 0.828 0 1.5 0.895 1.5 2 z" transform="matrix(15.33333 0 0 11.5 415 -125.5)"/></clipPath></defs><path transform="translate(1.798 -798.75)" d="m 53.11 1028.66 c 188.96 126.21 305.35 -276.27 61.07 -222.99 -100.95 22.706 -162.22 165.11 -61.07 222.99 z" style="fill:#d8bfd8;color:#000"/><g transform="matrix(2.29957 0 0 2.33983 62.09 53.43)"><g transform="matrix(1.04417 0 0 1.04821 -1.163 -2.828)" style="fill-rule:evenodd"><g style="stroke:#9932cc;stroke-linejoin:round"><path d="m 38.11 2.777 c -0.576 0 -1.04 0.464 -1.04 1.04 v 9.617 c 0 0.576 0.464 1.04 1.04 1.04 h 2.419 c 0.576 0 1.04 -0.464 1.04 -1.04 v -9.617 c 0 -0.576 -0.464 -1.04 -1.04 -1.04 h -2.419 z" transform="matrix(0.95613 0 0 0.95613 12.703 0.158)" style="fill:#9932cc;stroke-width:2.782"/><g style="stroke-linecap:round"><path d="m 19.2 9.975 c -1.662 0 -3 1.338 -3 3 v 40.07 c 0 1.662 1.338 3 3 3 h 23.691 c 1.662 0 3 -1.338 3 -3 v -40.07 c 0 -1.662 -1.338 -3 -3 -3 h -23.691 z" transform="matrix(0.95613 0 0 0.95613 12.531 3.427)" style="fill:#fff;stroke-width:3.477"/><path d="m 34.09 17.05 c -1.205 0 -2.176 0.97 -2.176 2.176 v 12.09 c 0 1.205 0.97 2.176 2.176 2.176 h 16.204 c 1.205 0 2.176 -0.97 2.176 -2.176 v -12.09 c 0 -1.205 -0.97 -2.176 -2.176 -2.176 h -16.204 z" style="fill:#9932cc;stroke-width:1.995"/></g></g><g style="fill:#9932cc"><path d="m 20.322 36.588 c -0.403 0 -0.727 0.324 -0.727 0.727 v 2.235 c 0 0.403 0.324 0.727 0.727 0.727 h 5.416 c 0.403 0 0.727 -0.324 0.727 -0.727 v -2.235 c 0 -0.403 -0.324 -0.727 -0.727 -0.727 h -5.416 z" transform="matrix(0.84353 0 0 0.84353 14.985 5.764)"/><path d="m 30.952 36.588 c -0.403 0 -0.727 0.324 -0.727 0.727 v 2.235 c 0 0.403 0.324 0.727 0.727 0.727 h 5.416 c 0.403 0 0.727 -0.324 0.727 -0.727 v -2.235 c 0 -0.403 -0.324 -0.727 -0.727 -0.727 h -5.416 z" transform="matrix(0.84353 0 0 0.84353 13.912 5.764)"/><path d="m 41.582 36.588 c -0.403 0 -0.727 0.324 -0.727 0.727 v 2.235 c 0 0.403 0.324 0.727 0.727 0.727 h 5.416 c 0.403 0 0.727 -0.324 0.727 -0.727 v -2.235 c 0 -0.403 -0.324 -0.727 -0.727 -0.727 h -5.416 z" transform="matrix(0.84353 0 0 0.84353 12.838 5.764)"/><path d="m 32.13 41.23 c -0.34 0 -0.614 0.274 -0.614 0.614 v 1.886 c 0 0.34 0.274 0.614 0.614 0.614 h 4.569 c 0.34 0 0.614 -0.274 0.614 -0.614 v -1.886 c 0 -0.34 -0.274 -0.614 -0.614 -0.614 h -4.569 z"/><path d="m 40.02 41.23 c -0.34 0 -0.614 0.274 -0.614 0.614 v 1.886 c 0 0.34 0.274 0.614 0.614 0.614 h 4.569 c 0.34 0 0.614 -0.274 0.614 -0.614 v -1.886 c 0 -0.34 -0.274 -0.614 -0.614 -0.614 h -4.569 z"/><path d="m 47.914 41.23 c -0.34 0 -0.614 0.274 -0.614 0.614 v 1.886 c 0 0.34 0.274 0.614 0.614 0.614 h 4.569 c 0.34 0 0.614 -0.274 0.614 -0.614 v -1.886 c 0 -0.34 -0.274 -0.614 -0.614 -0.614 h -4.569 z"/><path d="m 32.13 45.834 c -0.34 0 -0.614 0.274 -0.614 0.614 v 1.886 c 0 0.34 0.274 0.614 0.614 0.614 h 4.569 c 0.34 0 0.614 -0.274 0.614 -0.614 v -1.886 c 0 -0.34 -0.274 -0.614 -0.614 -0.614 h -4.569 z"/><path d="m 40.02 45.834 c -0.34 0 -0.614 0.274 -0.614 0.614 v 1.886 c 0 0.34 0.274 0.614 0.614 0.614 h 4.569 c 0.34 0 0.614 -0.274 0.614 -0.614 v -1.886 c 0 -0.34 -0.274 -0.614 -0.614 -0.614 h -4.569 z"/><path d="m 47.914 45.834 c -0.34 0 -0.614 0.274 -0.614 0.614 v 1.886 c 0 0.34 0.274 0.614 0.614 0.614 h 4.569 c 0.34 0 0.614 -0.274 0.614 -0.614 v -1.886 c 0 -0.34 -0.274 -0.614 -0.614 -0.614 h -4.569 z"/><path d="m 20.238 47.38 c -0.34 0 -0.614 0.274 -0.614 0.614 v 1.886 c 0 0.34 0.274 0.614 0.614 0.614 h 4.569 c 0.34 0 0.614 -0.274 0.614 -0.614 v -1.886 c 0 -0.34 -0.274 -0.614 -0.614 -0.614 h -4.569 z" transform="translate(11.89 3.054)"/><path d="m 40.02 50.44 c -0.34 0 -0.614 0.274 -0.614 0.614 v 1.886 c 0 0.34 0.274 0.614 0.614 0.614 h 4.569 c 0.34 0 0.614 -0.274 0.614 -0.614 v -1.886 c 0 -0.34 -0.274 -0.614 -0.614 -0.614 h -4.569 z"/><path d="m 47.914 50.44 c -0.34 0 -0.614 0.274 -0.614 0.614 v 1.886 c 0 0.34 0.274 0.614 0.614 0.614 h 4.569 c 0.34 0 0.614 -0.274 0.614 -0.614 v -1.886 c 0 -0.34 -0.274 -0.614 -0.614 -0.614 h -4.569 z"/></g></g><path d="m 19.584 22.819 c -0.662 0 -1.228 -0.174 -1.7 -0.521 -0.48 -0.347 -0.721 -0.819 -0.721 -1.414 0 -0.273 0.127 -0.707 0.381 -1.303 0.245 -0.596 0.44 -1.108 0.585 -1.538 0.136 -0.438 0.204 -0.972 0.204 -1.6 0 -0.753 -0.181 -1.303 -0.544 -1.65 -0.363 -0.356 -0.811 -0.533 -1.346 -0.533 -0.372 0 -0.68 0.091 -0.925 0.273 -0.254 0.182 -0.467 0.43 -0.639 0.744 -0.181 0.314 -0.376 0.769 -0.585 1.365 -0.209 0.596 -0.385 1.104 -0.53 1.526 -0.299 0.86 -0.635 1.596 -1.01 2.208 -0.381 0.612 -0.925 1.121 -1.632 1.526 -0.716 0.405 -1.636 0.608 -2.761 0.608 -1.405 0 -2.588 -0.294 -3.549 -0.881 -0.961 -0.596 -1.677 -1.385 -2.149 -2.37 -0.471 -0.984 -0.707 -2.068 -0.707 -3.25 0 -1.621 0.277 -2.882 0.83 -3.784 0.553 -0.902 1.278 -1.352 2.176 -1.352 0.607 0 1.12 0.174 1.537 0.521 0.408 0.339 0.612 0.777 0.612 1.315 0 0.372 -0.131 0.885 -0.394 1.538 -0.263 0.653 -0.394 1.307 -0.394 1.96 0 0.562 0.154 1.017 0.462 1.365 0.308 0.347 0.703 0.521 1.183 0.521 0.281 0 0.508 -0.062 0.68 -0.186 0.163 -0.132 0.331 -0.364 0.503 -0.695 0.172 -0.339 0.381 -0.848 0.626 -1.526 0.245 -0.686 0.422 -1.17 0.53 -1.452 0.49 -1.365 1.16 -2.44 2.01 -3.226 0.843 -0.786 2.131 -1.179 3.862 -1.179 2.194 0 3.858 0.645 4.991 1.935 1.133 1.29 1.7 2.949 1.7 4.975 0 0.902 -0.122 1.82 -0.367 2.754 -0.245 0.926 -0.621 1.712 -1.129 2.357 -0.508 0.645 -1.106 0.968 -1.795 0.968 z m -4.202 21.12 l -10.281 -1.625 c -1.913 -0.306 -2.869 -1.212 -2.869 -2.717 c 0 -0.662 0.154 -1.187 0.462 -1.576 0.308 -0.397 0.798 -0.728 1.469 -0.993 0.662 -0.273 1.664 -0.604 3.01 -0.993 l 6.881 -2.01 v -0.05 l -6.881 -2.01 c -1.342 -0.389 -2.344 -0.715 -3.01 -0.98 -0.671 -0.273 -1.16 -0.604 -1.469 -0.993 -0.308 -0.397 -0.462 -0.922 -0.462 -1.576 c 0 -1.514 0.956 -2.423 2.869 -2.729 l 10.281 -1.625 c 2.937 -0.455 4.619 -0.682 5.05 -0.682 0.553 0 1.052 0.178 1.496 0.533 0.444 0.347 0.666 0.815 0.666 1.402 0 0.571 -0.131 1.021 -0.394 1.352 -0.272 0.331 -0.626 0.567 -1.061 0.707 -0.435 0.141 -0.952 0.248 -1.55 0.323 l -8.88 1.228 v 0.05 l 9.832 2.767 c 0.734 0.199 1.26 0.471 1.577 0.819 0.317 0.347 0.476 0.827 0.476 1.439 0 0.612 -0.159 1.092 -0.476 1.439 -0.317 0.347 -0.843 0.62 -1.577 0.819 l -9.832 2.779 v 0.05 l 8.88 1.216 c 0.598 0.074 1.115 0.182 1.55 0.323 0.435 0.141 0.789 0.376 1.061 0.707 0.263 0.331 0.394 0.786 0.394 1.365 0 0.579 -0.222 1.046 -0.666 1.402 -0.444 0.347 -0.943 0.521 -1.496 0.521 -0.535 0 -2.217 -0.227 -5.05 -0.682 z m 4.202 14.639 c -0.662 0 -1.228 -0.174 -1.7 -0.521 -0.48 -0.347 -0.721 -0.819 -0.721 -1.414 0 -0.273 0.127 -0.707 0.381 -1.303 0.245 -0.596 0.44 -1.108 0.585 -1.538 0.136 -0.438 0.204 -0.972 0.204 -1.6 0 -0.753 -0.181 -1.303 -0.544 -1.65 -0.363 -0.356 -0.811 -0.533 -1.346 -0.533 -0.372 0 -0.68 0.091 -0.925 0.273 -0.254 0.182 -0.467 0.43 -0.639 0.744 -0.181 0.314 -0.376 0.769 -0.585 1.365 -0.209 0.596 -0.385 1.104 -0.53 1.526 -0.299 0.86 -0.635 1.596 -1.01 2.208 -0.381 0.612 -0.925 1.121 -1.632 1.526 -0.716 0.405 -1.636 0.608 -2.761 0.608 -1.405 0 -2.588 -0.294 -3.549 -0.881 c -0.961 -0.596 -1.677 -1.385 -2.149 -2.37 -0.471 -0.984 -0.707 -2.068 -0.707 -3.25 c 0 -1.621 0.277 -2.882 0.83 -3.784 0.553 -0.902 1.278 -1.352 2.176 -1.352 0.607 0 1.12 0.174 1.537 0.521 0.408 0.339 0.612 0.777 0.612 1.315 0 0.372 -0.131 0.885 -0.394 1.538 -0.263 0.653 -0.394 1.307 -0.394 1.96 0 0.562 0.154 1.017 0.462 1.365 0.308 0.347 0.703 0.521 1.183 0.521 0.281 0 0.508 -0.062 0.68 -0.186 0.163 -0.132 0.331 -0.364 0.503 -0.695 0.172 -0.339 0.381 -0.848 0.626 -1.526 0.245 -0.686 0.422 -1.17 0.53 -1.452 0.49 -1.365 1.16 -2.44 2.01 -3.226 0.843 -0.786 2.131 -1.179 3.862 -1.179 2.194 0 3.858 0.645 4.991 1.935 1.133 1.29 1.7 2.949 1.7 4.975 0 0.902 -0.122 1.82 -0.367 2.754 -0.245 0.926 -0.621 1.712 -1.129 2.357 -0.508 0.645 -1.106 0.968 -1.795 0.968 z" style="fill:#9932cc"/></g></svg>