<svg xmlns="http://www.w3.org/2000/svg" viewBox="0 0 256 256"><defs><clipPath><path transform="matrix(15.33333 0 0 11.5 415 -125.5)" d="m -24 13 c 0 1.105 -0.672 2 -1.5 2 -0.828 0 -1.5 -0.895 -1.5 -2 0 -1.105 0.672 -2 1.5 -2 0.828 0 1.5 0.895 1.5 2 z"/></clipPath></defs><g transform="translate(0 -796.36)" style="fill:#dcdcdc"><path d="m 53.11 1028.66 c 188.96 126.21 305.35 -276.27 61.07 -222.99 -100.95 22.706 -162.22 165.11 -61.07 222.99 z" transform="translate(1.798 -2.394)" style="color:#000"/></g><g transform="matrix(0.9563 0 0 0.94539 7.02 158.26)" style="fill:#a9a9a9"><path d="m 42.41 11.165 c -28.493 -11.865 -12.08 -36.472 -2.851 -17.407 c 5.91 12.211 15.872 1.889 18.223 -34.618 1.332 -20.684 2.17 -28.658 3.33 -31.677 1.325 -3.448 4.325 -4.738 10.205 -4.386 9.175 0.548 12.901 5.976 7.606 11.08 -4.682 4.512 -5.15 6.68 -6.06 28.11 c -1.015 23.872 -2.284 31.928 -6.232 39.547 -4.696 9.06 -12.925 12.24 -24.22 9.353 z"/><path d="m 70.51 -83.14 c -8.325 -4.088 -10.598 -16.883 -4.02 -22.638 9.04 -7.909 22.03 2.377 17.979 14.239 -1.031 3.02 -3.995 6.482 -6.585 7.688 -2.591 1.206 -4.414 0.282 -4.501 0.192 -0.087 -0.091 -1.581 1.153 -2.871 0.52 z"/><path d="m 133.81 13.406 c 0 -0.376 -1.123 -1.998 -2.496 -3.606 -2.818 -3.301 -3.463 -4.688 -3.879 -8.347 -0.325 -2.857 -0.947 -3.713 -2.408 -3.314 -1.172 0.321 -1.891 2.092 -2.921 7.203 -0.576 2.859 -0.987 3.859 -2.068 5.04 -0.742 0.809 -1.545 1.47 -1.785 1.47 -0.689 0 -2 -1.747 -2.299 -3.058 -0.149 -0.658 -0.399 -6.78 -0.556 -13.605 -0.239 -10.392 -0.39 -12.524 -0.93 -13.11 -0.586 -0.639 -0.748 -0.614 -1.773 0.264 -3.106 2.662 -4.96 8.223 -6.212 18.633 -0.807 6.708 -1.257 8.486 -2.489 9.828 -0.813 0.886 -1.147 0.997 -1.819 0.605 -2.023 -1.18 -3.175 -5.766 -5.166 -20.56 -0.782 -5.809 -1.617 -11.619 -1.857 -12.912 -0.404 -2.179 -0.863 -2.858 -1.35 -1.998 -0.298 0.525 -1.372 8.844 -2.093 16.215 c -1.292 13.197 -1.54 15.04 -2.272 16.864 -0.928 2.314 -2.01 3.048 -3.175 2.158 -1.903 -1.453 -2.411 -7.713 -3.03 -37.38 c -0.603 -28.778 -0.221 -33.992 2.642 -36.04 2.668 -1.905 8.857 -1.678 11.825 0.433 2.113 1.502 2.494 3.48 1.939 10.06 -0.818 9.709 0.083 17.04 2.095 17.04 1.646 0 2.87 -3.501 5.145 -14.71 1.599 -7.88 2.316 -9.867 4.336 -12.02 2.882 -3.071 7.02 -2.901 11.642 0.478 3.739 2.736 3.761 2.972 1.079 11.383 l -2.243 7.03 l 0.046 7.164 c 0.035 5.567 0.326 9.145 1.302 16.05 0.691 4.885 1.337 8.97 1.436 9.08 0.099 0.108 0.308 -4.494 0.466 -10.225 0.344 -12.479 0.697 -15.369 2.325 -19.02 1.47 -3.298 3.668 -5.523 7.368 -7.462 2.39 -1.253 3.064 -1.4 6.418 -1.4 3.594 0 3.888 0.078 7.191 1.903 3.728 2.06 5.01 2.295 6.458 1.187 0.516 -0.394 2.469 -3.265 4.339 -6.381 3.563 -5.934 5 -7.775 6.947 -8.869 1.052 -0.593 1.28 -0.581 2.268 0.12 1.584 1.123 1.931 1.734 3.55 6.247 2.031 5.66 3.436 7.922 5.644 9.09 2.288 1.207 2.511 1.199 5.251 -0.191 3.982 -2.02 9.622 -2.623 24.661 -2.64 11.255 -0.012 13.862 0.109 16.587 0.77 5.804 1.409 8.07 3.59 8.07 7.777 0 4.421 -2.838 12.431 -5.03 14.207 l -1.13 0.914 l -1.109 -0.902 c -0.61 -0.496 -1.739 -2.153 -2.509 -3.682 -1.714 -3.403 -3.301 -4.542 -4.821 -3.457 -1.642 1.172 -2.326 4.548 -2.545 12.568 -0.151 5.506 -0.053 7.76 0.424 9.739 0.341 1.416 0.57 2.575 0.508 2.575 -0.062 0 -12.472 20.978 -29.24 23.409 l -20.345 3.822 l -13.183 0.85 c -10.512 0.677 -19.215 -6.676 -19.215 -7.272 z m 25.542 -1.111 c 1.313 -1.924 1.577 -5.939 1.577 -23.952 0 -21.73 -0.32 -24.403 -2.918 -24.403 -1.711 0 -2.594 0.601 -3.592 2.443 -2.156 3.982 -3.334 12.05 -3.344 22.919 -0.008 7.776 0.466 14.951 1.279 19.384 -0.382 2.596 5.304 5.613 6.998 3.608 z m 16.12 -9.192 c 1.617 -1.762 2.292 -8.241 2.285 -21.925 -0.008 -15.498 -0.69 -19.253 -3.494 -19.253 -2.898 0 -3.981 6.175 -4.04 23.06 -0.047 12.56 0.259 15.443 1.875 17.681 0.918 1.272 2.432 1.468 3.378 0.438 z m -34.705 -1.058 c 1.289 -1.972 2.219 -6.528 1.962 -9.613 -0.238 -2.858 -0.704 -3.644 -2.435 -4.106 -1.649 -0.44 -3.441 1.647 -3.828 4.459 -0.472 3.431 -0.02 8.628 0.841 9.665 1.069 1.287 2.461 1.125 3.46 -0.404 z m 53.06 -4.672 c 0.893 -2.142 1.024 -5.824 0.267 -7.464 -0.773 -1.674 -2.849 -1.766 -4.192 -0.186 -2.53 2.974 -2.096 8.84 0.739 10.01 1.291 0.532 2.29 -0.208 3.186 -2.358 z m -51.698 -21.514 c 1.192 -2.488 1.27 -6.934 0.145 -8.29 -2.957 -3.565 -6.972 3.082 -4.988 8.257 1.116 2.91 3.457 2.926 4.843 0.033 z m 50.09 1.924 c 1.948 -1.136 3.099 -7.162 1.874 -9.814 -0.838 -1.815 -2.757 -1.749 -4.285 0.148 -1.469 1.823 -1.957 4.126 -1.366 6.45 0.516 2.03 0.795 2.503 1.867 3.166 1.023 0.632 0.92 0.629 1.911 0.051 z"/></g></svg>