<svg xmlns="http://www.w3.org/2000/svg" viewBox="0 0 256 256"><path d="m 157.05 800.67 c 237.88 49.54 -17.492 390.35 -138.4 185.62 -51.828 -79.53 16.06 -211.1 138.4 -185.62 z" transform="matrix(1 0 0 -0.99577 1.342 1048.14)" style="fill:#d2b48c;color:#000"/><path d="m 100.12 191.73 c -4.175 -2.711 -4.5 -3.219 -29.57 -46.21 -23.06 -39.552 -24.391 -42.911 -19.834 -50.25 1.532 -2.468 11.894 -9.405 34.907 -23.368 36.17 -21.947 37.759 -22.789 42.94 -22.782 c 7.314 0.009 9.742 2.937 27.583 33.27 9.375 15.938 16.769 29.71 16.43 30.604 -0.489 1.292 -9.748 6.238 -11.677 6.238 -0.251 0 0.088 -1.211 0.753 -2.691 1.047 -2.332 -0.197 -5.248 -9.313 -21.836 -20.653 -37.579 -21.06 -38.17 -25.719 -36.981 -1.488 0.379 -8.362 4.01 -15.277 8.07 -53.608 31.487 -56.623 33.606 -55.06 38.719 1.298 4.243 42.464 73.78 46.24 78.11 3.366 3.859 7.301 2.308 27.919 -11 36.827 -23.776 44.9 -31.673 40.734 -39.846 -0.918 -1.801 -2.036 -3.06 -2.484 -2.798 -6.7 3.921 -44.16 27.468 -46.18 29.03 -3.196 2.468 -7.04 2.797 -7.04 0.602 0 -2.031 2.362 -4.324 4.454 -4.324 0.929 0 7.434 -3.779 14.456 -8.399 7.02 -4.619 19.245 -12.668 27.16 -17.886 17.319 -11.412 18.462 -11.941 18.213 -8.438 -0.101 1.422 1.461 5.684 3.472 9.47 5.126 9.652 4.964 14.634 -0.664 20.483 -3.455 3.591 -44.17 28.986 -67.42 42.05 -5.258 2.955 -10.638 3.01 -15.03 0.16 z m 5.754 -28.875 c -1.437 -1.458 -0.774 -3.799 1.753 -6.187 3.136 -2.964 3.481 -2.959 5.344 0.066 1.283 2.085 1.212 2.78 -0.477 4.674 -1.982 2.222 -5.168 2.918 -6.619 1.446 z m 6.143 -10.764 c 0 -0.564 0.731 -1.641 1.625 -2.394 1.805 -1.52 3.651 0.207 2.406 2.251 -0.877 1.44 -4.03 1.552 -4.03 0.143 z m -15.689 -6.682 c -6.438 -2.234 -14.08 -12.894 -12.412 -17.311 1.202 -3.178 6.113 -2.288 7.473 1.354 3.055 8.182 10.358 10.905 16.373 6.105 4.586 -3.66 4.84 -6.358 1.273 -13.51 -3.516 -7.05 -2.993 -8.919 2.555 -9.128 2.906 -0.11 3.273 -0.69 4.771 -7.535 2.103 -9.614 5.132 -14.677 10.255 -17.14 5.932 -2.856 11.551 -1.654 16.211 3.467 8.172 8.98 3.799 17.266 -14.448 27.373 -7.698 4.264 -7.728 4.3 -8.345 10.1 -0.788 7.399 -2.368 10.235 -7.498 13.452 -5.96 3.737 -10.966 4.594 -16.21 2.775 z m 37.908 -41.2 c 4.253 -4.01 3.802 -7.641 -1.01 -8.117 -2.124 -0.21 -4.132 0.356 -4.992 1.406 -1.845 2.256 -4.741 11.953 -3.842 12.866 0.84 0.852 5.521 -2.076 9.842 -6.155 z m 18.1 19.697 c 0 -0.643 0.549 -1.169 1.22 -1.169 0.671 0 0.899 0.526 0.508 1.169 -0.392 0.643 -0.94 1.169 -1.22 1.169 -0.279 0 -0.508 -0.526 -0.508 -1.169 z m 4.03 -3.506 c 0.392 -0.643 1.2 -1.169 1.796 -1.169 0.596 0 1.084 0.526 1.084 1.169 0 0.643 -0.808 1.169 -1.796 1.169 -0.988 0 -1.475 -0.526 -1.084 -1.169 z m -42.906 -33.495 c -2.269 -0.929 -1.679 -4.834 0.854 -5.65 2.91 -0.937 4.618 0.122 4.618 2.862 0 1.654 -2.639 4.04 -3.838 3.47 -0.107 -0.051 -0.842 -0.358 -1.634 -0.682 z" transform="matrix(1.18087 0 0 1.22775 -13.83 -15.592)"/><path transform="matrix(0.81614 -0.57785 0.57785 0.81614 0 0)" d="m 3.939 206.64 h 110.73 v 15.379 h -110.73 z"/></svg>