<?xml version="1.0" encoding="UTF-8" standalone="no"?>
<!-- Created with Inkscape (http://www.inkscape.org/) -->

<svg
   xmlns:dc="http://purl.org/dc/elements/1.1/"
   xmlns:cc="http://creativecommons.org/ns#"
   xmlns:rdf="http://www.w3.org/1999/02/22-rdf-syntax-ns#"
   xmlns:svg="http://www.w3.org/2000/svg"
   xmlns="http://www.w3.org/2000/svg"
   xmlns:xlink="http://www.w3.org/1999/xlink"
   xmlns:sodipodi="http://sodipodi.sourceforge.net/DTD/sodipodi-0.dtd"
   xmlns:inkscape="http://www.inkscape.org/namespaces/inkscape"
   sodipodi:docname="keep.svg"
   inkscape:version="0.48.4 r9939"
   version="1.1"
   id="svg10914"
   height="256"
   width="256">
  <defs
     id="defs10916">
    <radialGradient
       r="12.49998"
       fy="127.7508"
       fx="-170.8718"
       cy="127.7508"
       cx="-170.8718"
       gradientTransform="matrix(1,0,0,1.1280507,0,-15.592641)"
       gradientUnits="userSpaceOnUse"
       id="radialGradient220922"
       xlink:href="#linearGradient9879-4"
       inkscape:collect="always" />
    <linearGradient
       id="linearGradient9879-4"
       inkscape:collect="always">
      <stop
         id="stop9881-6"
         offset="0"
         style="stop-color:#ffffff;stop-opacity:1" />
      <stop
         id="stop9883-2"
         offset="1"
         style="stop-color:#e4e4e1;stop-opacity:1" />
    </linearGradient>
  </defs>
  <sodipodi:namedview
     id="base"
     pagecolor="#ffffff"
     bordercolor="#666666"
     borderopacity="1.0"
     inkscape:pageopacity="0.0"
     inkscape:pageshadow="2"
     inkscape:zoom="0.80240837"
     inkscape:cx="82.725912"
     inkscape:cy="111.05579"
     inkscape:document-units="px"
     inkscape:current-layer="layer1"
     showgrid="false"
     inkscape:showpageshadow="false"
     inkscape:snap-page="true"
     inkscape:snap-bbox="true"
     inkscape:window-width="688"
     inkscape:window-height="457"
     inkscape:window-x="590"
     inkscape:window-y="514"
     inkscape:window-maximized="0"
     inkscape:snap-object-midpoints="true"
     showguides="false"
     inkscape:guide-bbox="true"
     inkscape:snap-global="false" />
  <metadata
     id="metadata10919">
    <rdf:RDF>
      <cc:Work
         rdf:about="">
        <dc:format>image/svg+xml</dc:format>
        <dc:type
           rdf:resource="http://purl.org/dc/dcmitype/StillImage" />
        <dc:title></dc:title>
      </cc:Work>
    </rdf:RDF>
  </metadata>
  <g
     inkscape:label="Layer 1"
     inkscape:groupmode="layer"
     id="layer1"
     transform="translate(0,-796.36218)">
    <path
       sodipodi:nodetypes="sss"
       inkscape:connector-curvature="0"
       id="path32551"
       d="M 211.16584,1015.2328 C 412.98904,748.84926 -142.41961,711.00816 35.818491,982.92597 76.452401,1044.9165 157.71087,1085.7872 211.16584,1015.2328 z"
       style="color:#000000;fill:#ffd700;fill-opacity:1;fill-rule:nonzero;stroke:none;stroke-width:4;marker:none;visibility:visible;display:inline;overflow:visible;enable-background:accumulate" />
    <g
       id="g5550"
       transform="matrix(4.5107884,0,0,3.879457,21.668335,842.47235)" />
    <g
       id="g2992"
       transform="matrix(5.7357432,0,0,7.0443039,66.648573,-6410.5462)">
      <path
         id="path2994"
         transform="translate(0,1028.4)"
         d="M 2,4 V 17.531 20 c 0,1.105 0.8954,2 2,2 h 4 8 l 6,-6 V 4 H 2 z"
         inkscape:connector-curvature="0"
         style="fill:#f1c40f" />
      <g
         id="g2996"
         style="fill:#f39c12">
        <path
           id="path2998"
           transform="translate(0,1028.4)"
           d="m 5,9 v 1 H 19 V 9 H 5 z m 0,3 v 1 H 19 V 12 H 5 z m 0,3 v 1 h 7 V 15 H 5 z"
           inkscape:connector-curvature="0" />
        <path
           id="path3000"
           d="m 22,1044.4 -6,6 v -4 c 0,-1.1 0.895,-2 2,-2 h 4 z"
           inkscape:connector-curvature="0" />
        <path
           id="path3002"
           d="m 2,1033.4 v -1 c 0,-1.1 0.8954,-2 2,-2 h 4 8 4 c 1.105,0 2,0.9 2,2 v 1 H 2 z"
           inkscape:connector-curvature="0" />
      </g>
    </g>
  </g>
</svg>
