<svg xmlns="http://www.w3.org/2000/svg" viewBox="0 0 256 256"><path d="m 32.36 217.48 c -146.42 -225.37 253.5 -312.59 221.64 -80.74 -12.991 94.56 -165.63 166.95 -221.64 80.74 z" style="fill:#0083d7;color:#000"/><path d="m 108.88 209.9 c -18.814 -4.242 -38.581 -17.206 -49.794 -32.655 -8.06 -11.11 -10.602 -16.269 -14.617 -29.705 -4.055 -13.571 -4.344 -34.942 -0.648 -47.965 8.437 -29.728 31.94 -54.29 60.18 -62.883 c 11.369 -3.461 35.943 -3.101 48 0.704 23.323 7.357 42.719 24.837 53.28 48.02 4.725 10.369 6.726 21.402 6.726 37.08 0 17.15 -2.131 27.342 -8.516 40.738 -16.852 35.35 -56.993 55.15 -94.61 46.671 z m 10.01 -29.363 c -4.482 -2.027 -2.01 -2.614 -1.56 -9.875 0.638 -10.347 -3.989 -8.423 -5.372 1.829 -1.503 11.146 0.11 16.04 6.914 13.806 l 7.091 -0.914 c 0 0 1.501 -2.961 -0.725 -4.821 -1.624 -1.357 -6.348 -0.026 -6.348 -0.026 z m 34.36 -2.121 c 3.927 -4.067 4.192 -6.488 1.335 -12.209 -2.323 -4.653 -6.139 -6.42 -10.732 -4.971 -5.151 1.626 -7.952 5.115 -7.952 9.905 0 9.853 10.577 14.289 17.349 7.275 z m -11.121 -4.061 c -3.329 -6.443 -0.743 -8.966 4.7 -7.881 3.581 0.714 4.648 4.199 3.544 8.753 -0.746 3.078 -0.444 1.574 -3.71 1.574 -2.612 0 -3.616 -0.67 -4.534 -2.447 z m -47.41 0.057 c 2.719 -2.194 7.978 -11.156 7.985 -13.607 0.009 -3.572 -3.545 -4.568 -7.02 1.575 -4.123 7.287 -4.432 9.753 -7.527 6.541 -1.978 -2.053 -1.511 -1.624 1.909 -8.277 2.068 -4.02 1.147 -6.925 0.723 -7.637 -2.237 -3.749 -9.671 10.907 -8.333 16.428 1.304 5.381 8.262 8.205 12.263 4.976 z m 88.05 -7.569 c 2.361 -2.785 4.292 -5.495 4.292 -6.02 0 -0.528 -6.04 -6.83 -13.419 -14 l -13.419 -13.05 l 3.358 -7.788 c 5.01 -11.61 4.833 -27.742 -0.416 -38.812 -4.227 -8.916 -11.506 -16.509 -20.64 -21.532 -4.971 -2.734 -8.08 -3.269 -19.08 -3.285 -10.957 -0.015 -14.214 0.531 -19.627 3.293 -33.22 16.946 -33.555 64.6 -0.586 82.23 7.881 4.214 25.462 5.172 34.04 1.855 11.912 -4.605 11.04 -4.922 25.06 9.103 7.132 7.133 13.681 12.994 14.553 13.02 0.872 0.029 3.517 -2.225 5.877 -5.01 z m -69.5 -32.843 c -10.769 -3.976 -17.476 -13.552 -17.476 -24.951 0 -8.732 1.789 -13.926 6.657 -19.323 17.261 -19.14 47.921 -6.806 47.921 19.279 0 10.776 -4.643 18.17 -14.653 23.336 -8.06 4.16 -14.406 4.629 -22.449 1.659 z m -42.984 12.538 c 0 0 -2.442 -0.251 0.062 0.16 l 11.325 0.562 c 0 0 1.03 -0.638 1.109 -3.868 0.052 -2.135 -5.634 -3.049 -5.634 -3.049 -4.55 -2.463 -4.058 -2.238 -1.538 -3.852 1.879 -1.203 -0.185 -4.689 -2.102 -4.689 -2.229 0 -16.669 10.968 -16.669 12.707 0 0.848 0.809 4.323 2.81 3.803 3.306 -0.859 5.075 -3.204 5.075 2.985 0 8.01 4.04 9.779 5.239 2.038 z" style="fill:#fff"/></svg>