<svg xmlns="http://www.w3.org/2000/svg" viewBox="0 0 256 256"><defs><clipPath><rect y="6" x="6" rx="6" height="84" width="84" fill="#fff"/></clipPath><filter color-interpolation-filters="sRGB"><feGaussianBlur stdDeviation="1.71"/></filter><linearGradient y2="477.87" x2="375.8" y1="597.84" x1="373" gradientTransform="matrix(0.1013 0 0 0.1025 -14.07 -27.03)" gradientUnits="userSpaceOnUse" id="0"><stop stop-color="#ff9d60"/><stop offset="1" stop-color="#ffe1ba"/></linearGradient><linearGradient gradientTransform="scale(1.0059 0.99417)" gradientUnits="userSpaceOnUse" y2="7.02" x2="0" y1="92.54"><stop/><stop offset="1" stop-opacity="0.588"/></linearGradient></defs><g transform="translate(0 -796.36)" color="#000"><path d="m 229.63 992.2 c 92.05 -130.93 -77.948 -263.6 -186.39 -156.91 -102.17 100.51 -7.449 256.68 119.69 207.86 c 26.526 -10.185 49.802 -26.914 66.7 -50.948 z" fill="#bb5208"/><g transform="matrix(5.72085 0 0 4.72039 -8.496 813.72)"><path d="m 23.998 8.286 c -2.758 0 -5.447 1.131 -7.398 3.11 -1.951 1.979 -3.077 4.715 -3.077 7.515 0 2.799 1.126 5.533 3.077 7.512 1.653 1.677 3.835 2.746 6.141 3.033 v 0.518 h -3.776 v 2.556 h 3.776 l 0.767 7.184 h 0.982 l 0.767 -7.184 h 3.776 v -2.556 h -3.776 v -0.518 c 2.309 -0.287 4.504 -1.357 6.157 -3.033 1.951 -1.979 3.061 -4.712 3.061 -7.512 0 -2.799 -1.11 -5.536 -3.061 -7.515 c -1.951 -1.979 -4.659 -3.11 -7.417 -3.11 z m 0 1.01 c 2.069 0 4.226 0.829 5.631 2.367 3.21 3.514 3.077 9.467 0 12.968 -1.376 1.565 -3.562 2.364 -5.631 2.364 -2.065 0 -4.15 -0.886 -5.612 -2.364 h -0.016 c -3.153 -3.569 -2.99 -9.386 0 -12.968 1.463 -1.484 3.559 -2.367 5.628 -2.367 h 0 z" fill="#520"/><path d="m 23.998 8.762 c -2.758 0 -5.447 1.131 -7.398 3.11 -1.951 1.979 -3.077 4.715 -3.077 7.515 0 2.799 1.126 5.533 3.077 7.512 1.653 1.677 3.835 2.746 6.141 3.033 v 0.518 h -3.776 v 2.556 h 3.776 l 0.767 7.184 h 0.982 l 0.767 -7.184 h 3.776 v -2.556 h -3.776 v -0.518 c 2.309 -0.287 4.504 -1.357 6.157 -3.033 1.951 -1.979 3.061 -4.712 3.061 -7.512 0 -2.799 -1.11 -5.536 -3.061 -7.515 c -1.951 -1.979 -4.659 -3.11 -7.417 -3.11 z m 0 1.01 c 2.069 0 4.226 0.829 5.631 2.367 3.21 3.514 3.077 9.467 0 12.968 -1.376 1.565 -3.562 2.364 -5.631 2.364 -2.065 0 -4.15 -0.886 -5.612 -2.364 h -0.016 c -3.153 -3.569 -2.99 -9.386 0 -12.968 1.463 -1.484 3.559 -2.367 5.628 -2.367 h 0 z" fill="url(#0)"/></g></g></svg>