<svg xmlns="http://www.w3.org/2000/svg" viewBox="0 0 256 256"><path d="m 813.15 1010.99 c 83.29 -119.08 -104.26 -268.19 -202.26 -171.28 c -92.42 91.39 27.07 261.92 141.96 217.58 24.03 -9.275 45.09 -24.542 60.3 -46.3 z" transform="translate(-577.92 -808.52)" style="fill:#4169e1;color:#000"/><path d="m 63.421905,102.39639 c -6.296022,5.26994 -7.814595,13.46814 -3.40506,18.38085 l 71.628975,79.80256 c 4.40953,4.91271 13.02871,4.62536 19.32473,-0.64456 l 45.46206,-38.05286 c 6.29602,-5.26992 7.81459,-13.46813 3.40506,-18.38084 L 128.2087,63.698971 c -4.40954,-4.912708 -13.02872,-4.625363 -19.32474,0.644562 L 63.421905,102.39639 z m 11.596409,7.37607 17.04735,-14.269051 5.68245,-4.75635 c 1.574159,-1.31761 3.817566,-1.29042 5.029746,0.0601 l 4.3776,4.87713 8.75519,9.754231 c 1.21271,1.3511 0.92146,3.49883 -0.6527,4.81644 l -5.68245,4.75635 c -1.57416,1.31761 -3.81757,1.29042 -5.02976,-0.06 l -6.566116,-7.31539 -14.206123,11.89088 c -1.574159,1.31762 -3.817572,1.29042 -5.029755,-0.06 l -4.377594,-4.87713 c -1.212715,-1.35109 -0.921465,-3.49882 0.652695,-4.81644 z m 34.093476,-28.537071 5.68245,-4.756356 c 1.57415,-1.31761 3.81757,-1.290416 5.02975,0.06009 l 4.37759,4.877124 c 1.21272,1.3511 0.92146,3.49883 -0.65269,4.81644 l -5.68245,4.75635 c -1.57416,1.31761 -3.81758,1.29041 -5.02976,-0.0601 l -4.37759,-4.87712 c -1.21272,-1.3511 -0.92146,-3.49883 0.6527,-4.81644 z m -20.961226,43.167851 5.68245,-4.75635 c 1.57416,-1.31762 3.81757,-1.29042 5.02975,0.06 l 4.377596,4.87712 c 1.21271,1.3511 0.92146,3.49883 -0.6527,4.81644 l -5.682446,4.75635 c -1.57416,1.31761 -3.81757,1.29042 -5.02975,-0.0601 l -4.3776,-4.87713 c -1.21271,-1.35109 -0.92146,-3.49882 0.6527,-4.81643 z m 34.093466,-28.537081 5.68245,-4.75635 c 1.57416,-1.31761 3.81757,-1.29042 5.02975,0.0601 l 39.39993,43.895851 c 1.21271,1.3511 0.92146,3.49883 -0.6527,4.81644 l -5.68245,4.75635 c -1.57416,1.31761 -3.81757,1.29041 -5.02975,-0.0601 l -39.39993,-43.89589 c -1.21271,-1.351097 -0.92146,-3.498821 0.6527,-4.816431 z m -8.29216,24.023291 5.68245,-4.75635 c 1.57415,-1.31761 3.81757,-1.29042 5.02975,0.0601 l 4.37759,4.87712 c 1.21272,1.3511 0.92146,3.49883 -0.65269,4.81644 l -5.68245,4.75635 c -1.57416,1.31761 -3.81758,1.29042 -5.02976,-0.0601 l -4.37759,-4.87712 c -1.21271,-1.35109 -0.92146,-3.49883 0.6527,-4.81644 z m -12.66976,19.14617 5.68245,-4.75635 c 1.57416,-1.31761 3.81757,-1.29041 5.02975,0.0601 l 4.3776,4.87712 c 1.21271,1.3511 0.92146,3.49883 -0.6527,4.81644 l -5.68245,4.75635 c -1.57416,1.31761 -3.81758,1.29042 -5.02976,-0.06 l -4.37759,-4.87713 c -1.212707,-1.3511 -0.921457,-3.49883 0.6527,-4.81644 z m 25.80254,-4.51481 5.68245,-4.75635 c 1.57415,-1.31761 3.81757,-1.29042 5.02975,0.06 l 4.37759,4.87712 c 1.21271,1.3511 0.92146,3.49883 -0.65269,4.81644 l -5.68245,4.75635 c -1.57416,1.31761 -3.81758,1.29041 -5.02976,-0.0601 l -4.37759,-4.87712 c -1.21272,-1.3511 -0.92146,-3.49883 0.6527,-4.81644 z m -12.66976,19.14617 5.68245,-4.75635 c 1.57416,-1.31761 3.81757,-1.29041 5.02975,0.0601 l 4.37759,4.87712 c 1.21272,1.3511 0.92146,3.49883 -0.6527,4.81643 l -5.68245,4.75635 c -1.57416,1.31762 -3.81757,1.29042 -5.02975,-0.06 l -4.37759,-4.87712 c -1.21272,-1.35109 -0.92146,-3.49882 0.6527,-4.81644 z m 25.80253,-4.51481 5.68245,-4.75635 c 1.57416,-1.31761 3.81757,-1.29042 5.02975,0.0601 l 4.37759,4.87711 c 1.21271,1.3511 0.92147,3.49883 -0.65269,4.81645 l -5.68245,4.75635 c -1.57416,1.3176 -3.81757,1.29042 -5.02976,-0.0601 l -4.37759,-4.87712 c -1.21272,-1.35109 -0.92146,-3.49883 0.6527,-4.81643 z m -12.66976,19.14616 5.68245,-4.75635 c 1.57416,-1.3176 3.81757,-1.29041 5.02975,0.0601 l 13.13225,14.63076 c 1.21272,1.3511 0.92146,3.49883 -0.6527,4.81644 l -5.68245,4.75636 c -1.57416,1.3176 -3.81757,1.29041 -5.02975,-0.0601 l -13.13225,-14.63076 c -1.21271,-1.3511 -0.92146,-3.49883 0.6527,-4.81645 z m 25.80253,-4.5148 5.68245,-4.75635 c 1.57416,-1.31761 3.81757,-1.29042 5.02976,0.0601 l 4.37758,4.87712 c 1.21272,1.35109 0.92148,3.49882 -0.65268,4.81644 l -5.68245,4.75635 c -1.57416,1.31761 -3.81757,1.29041 -5.02976,-0.0601 l -4.37759,-4.87713 c -1.21272,-1.3511 -0.92147,-3.49883 0.65269,-4.81643 z m 17.04735,-14.26906 5.68245,-4.75635 c 1.57416,-1.3176 3.81757,-1.29041 5.02975,0.0601 l 4.37759,4.87711 c 1.21272,1.3511 0.92148,3.49883 -0.65268,4.81644 l -5.68245,4.75636 c -1.57416,1.3176 -3.81758,1.29041 -5.02977,-0.0601 l -4.37758,-4.87711 c -1.21272,-1.3511 -0.92147,-3.49884 0.65269,-4.81645 z" style="fill:#fff"/></svg>