<svg xmlns="http://www.w3.org/2000/svg" viewBox="0 0 256 256"><g transform="translate(0 -796.36)" color="#000"><path d="m 240.92 998.94 c 111.21 -381.34 -438.25 -138.25 -162.63 32.359 c 50.643 31.19 136.61 33.36 162.63 -32.359 z" fill="#9c7d85"/><g transform="translate(5.276 11.539)"><g transform="matrix(1.01393 0 0 1.01393 -6.173 -29.403)"><path transform="matrix(0.98626 0 0 0.98626 6.089 814.42)" d="m 86.44 45.22 c -6.764 0 -12.219 5.454 -12.219 12.219 v 111.84 c 0 6.764 5.454 12.219 12.219 12.219 h 80.938 l -7.094 -7.094 c -11.763 5.835 -26.482 3.893 -36.25 -5.875 -12.236 -12.236 -12.236 -32.26 0 -44.5 6.118 -6.118 14.187 -9.188 22.25 -9.188 8.06 0 16.13 3.07 22.25 9.188 9.674 9.674 11.662 24.2 6.03 35.906 l 7.219 7.219 v -69.781 v -2 c -0.173 -0.21 -0.273 -0.46 -0.469 -0.656 l -49.47 -49.5 h -1.406 h -44 z m 59.844 80.78 c -5.166 0 -10.34 1.996 -14.313 5.969 -7.945 7.946 -7.945 20.679 0 28.625 5.86 5.86 14.313 7.356 21.531 4.563 -0.637 -3.232 0.255 -6.724 2.719 -9.188 2.423 -2.423 5.843 -3.327 9.03 -2.75 2.65 -7.157 1.13 -15.464 -4.656 -21.25 c -3.973 -3.973 -9.146 -5.969 -14.313 -5.969 z m 22.438 42.25 c -0.072 0.074 -0.145 0.145 -0.219 0.219 -0.005 0.005 0.005 0.026 0 0.031 l 9.594 9.563 c 0.074 -0.072 0.147 -0.145 0.219 -0.219 l -9.594 -9.594 z" fill="#fffdee"/><path d="m 183.11 906.21 c -0.379 -0.844 -0.917 -1.646 -1.619 -2.341 l -45.37 -44.855 v 39.473 c 0 4.271 3.471 7.723 7.791 7.723 h 39.2 z" fill="#d4c6ca"/></g><g><path transform="matrix(0.34219 -0.34219 0.34219 0.34219 90.48 941.82)" d="m 122.14 83.14 c 0 22.88 -18.548 41.43 -41.43 41.43 -22.88 0 -41.43 -18.548 -41.43 -41.43 0 -22.88 18.548 -41.43 41.43 -41.43 22.88 0 41.43 18.548 41.43 41.43 z" fill="#d4c6ca" stroke="#fff" stroke-linejoin="round" stroke-linecap="round" stroke-width="18"/><rect transform="matrix(0.70711 -0.70711 0.70711 0.70711 0 0)" rx="4.468" y="791.45" x="-567.4" height="33.758" width="8.936" fill="#fff"/></g><g fill="#9c7d85"><path d="m 81.79 953.89 h 39.834 v 7.05 h -39.834 z"/><path d="m 81.79 940.24 h 36.05 v 7.05 h -36.05 z"/><path d="m 81.79 926.59 h 38.697 v 7.05 h -38.697 z"/><path d="m 81.79 912.95 h 56.12 l -8.46 7.05 h -47.663 z"/><path d="m 81.79 885.65 h 39.834 v 7.05 h -39.834 z"/><path d="m 81.79 899.3 h 93.88 v 7.05 h -93.88 z"/></g></g></g></svg>