<svg xmlns="http://www.w3.org/2000/svg" xmlns:xlink="http://www.w3.org/1999/xlink" viewBox="0 0 256 256"><defs><clipPath><path transform="matrix(15.33333 0 0 11.5 415 -125.5)" d="m -24 13 c 0 1.105 -0.672 2 -1.5 2 -0.828 0 -1.5 -0.895 -1.5 -2 0 -1.105 0.672 -2 1.5 -2 0.828 0 1.5 0.895 1.5 2 z"/></clipPath><filter id="0"><feGaussianBlur stdDeviation="2.90913"/></filter><linearGradient gradientUnits="userSpaceOnUse" y2="985.08" x2="38.636" y1="945.76" x1="28.16" id="H" xlink:href="#I"/><linearGradient gradientUnits="userSpaceOnUse" y2="956.16" x2="82.64" y1="936.49" x1="67.56" id="G" xlink:href="#J"/><linearGradient gradientUnits="userSpaceOnUse" y2="990.42" x2="21.555" y1="1007" x1="7.605" id="F" xlink:href="#K"/><linearGradient gradientUnits="userSpaceOnUse" y2="1007.27" x2="27.15" y1="1016.5" x1="14.191" id="E" xlink:href="#L"/><linearGradient id="I"><stop style="stop-color:#858585"/><stop offset="0.46" style="stop-color:#e3e3e3"/><stop offset="1" style="stop-color:#fff"/></linearGradient><linearGradient id="J"><stop style="stop-color:#3c3c3c"/><stop offset="0.581" style="stop-color:#c2c2c2"/><stop offset="1" style="stop-color:#fff"/></linearGradient><linearGradient id="N"><stop style="stop-color:#3f301f"/><stop offset="0.491" style="stop-color:#5d4c3a"/><stop offset="1" style="stop-color:#b39b88"/></linearGradient><linearGradient spreadMethod="reflect" gradientUnits="userSpaceOnUse" y2="976.42" x2="-77.81" y1="964.91" x1="-77.58" id="D" xlink:href="#M"/><linearGradient id="M"><stop style="stop-color:#1e1812"/><stop offset="1" style="stop-color:#6f5a3a"/></linearGradient><linearGradient id="K"><stop style="stop-color:#4e4e4e"/><stop offset="0.677" style="stop-color:#d8d8d8"/><stop offset="1" style="stop-color:#fff"/></linearGradient><linearGradient id="L"><stop style="stop-color:#940e68"/><stop offset="1" style="stop-color:#f53eba"/></linearGradient><linearGradient y2="830.41" x2="536.1" y1="839.88" x1="544.18" gradientUnits="userSpaceOnUse" id="C" xlink:href="#O"/><linearGradient y2="850.11" x2="0" y1="858.44" gradientUnits="userSpaceOnUse" id="4" xlink:href="#O"/><linearGradient id="O"><stop style="stop-opacity:0"/><stop offset="1"/></linearGradient><linearGradient gradientTransform="matrix(1.93069 0 0 0.73308 426.22 760.97)" x2="63.929" x1="55.18" spreadMethod="reflect" gradientUnits="userSpaceOnUse" id="3" xlink:href="#N"/><linearGradient y2="31.794" x2="82.64" y1="12.13" x1="67.56" gradientUnits="userSpaceOnUse" id="1" xlink:href="#J"/><linearGradient spreadMethod="reflect" y2="980.64" x2="68.51" y1="975.37" x1="59.38" gradientUnits="userSpaceOnUse" id="2"><stop style="stop-color:#d44294"/><stop offset="1" style="stop-color:#df72af"/></linearGradient><linearGradient spreadMethod="reflect" gradientUnits="userSpaceOnUse" x2="549.65" x1="540.9" id="5" xlink:href="#N"/><linearGradient y2="309.94" x2="-952.02" y1="298.43" x1="-951.79" spreadMethod="reflect" gradientUnits="userSpaceOnUse" id="B" xlink:href="#M"/><linearGradient y2="1029.77" x2="66.12" y1="1045.6" x1="64.61" gradientUnits="userSpaceOnUse" id="6" xlink:href="#L"/><linearGradient y2="830.41" x2="-563.19" y1="839.88" x1="-555.11" gradientUnits="userSpaceOnUse" id="A" xlink:href="#O"/><linearGradient y2="1008.73" x2="79.59" y1="998.14" x1="118.88" gradientUnits="userSpaceOnUse" id="8" xlink:href="#I"/><linearGradient y2="1026.19" x2="83.51" y1="1046.56" x1="76.12" gradientUnits="userSpaceOnUse" id="7" xlink:href="#K"/><linearGradient y2="956.16" x2="82.64" y1="959.39" x1="107.21" gradientUnits="userSpaceOnUse" id="9" xlink:href="#J"/></defs><g style="fill:#d8bfd8"><path d="m 229.63 992.2 c 92.05 -130.93 -77.948 -263.6 -186.39 -156.91 -102.17 100.51 -7.449 256.68 119.69 207.86 c 26.526 -10.185 49.802 -26.914 66.7 -50.948 z" transform="matrix(0.99081 0 0 0.99081 2.879 -788.17)" style="color:#000"/></g><g transform="matrix(1.29423 0 0 1.31002 47.42 -1173.84)"><path d="m 94.27 938.94 c -13.13 1.641 -23.876 7.503 -32.75 16.719 -0.493 0.512 -0.987 1.03 -1.469 1.563 -0.481 0.533 -0.967 1.072 -1.438 1.625 -1.686 1.981 -3.299 4.11 -4.844 6.344 -0.175 0.253 -0.358 0.494 -0.531 0.75 -0.005 0.007 0.005 0.024 0 0.031 -0.167 0.247 -0.335 0.5 -0.5 0.75 -0.264 0.4 -0.552 0.781 -0.813 1.188 l -9.188 1.188 c 0.256 -2.902 0.857 -5.584 1.781 -8.094 0.005 -0.013 0.027 -0.019 0.031 -0.031 0.155 -0.418 0.298 -0.84 0.469 -1.25 0.005 -0.013 0.026 -0.019 0.031 -0.031 0.173 -0.413 0.342 -0.814 0.531 -1.219 0.004 -0.008 -0.004 -0.023 0 -0.031 0.381 -0.814 0.809 -1.62 1.25 -2.406 0.007 -0.012 0.024 -0.019 0.031 -0.031 0.894 -1.588 1.922 -3.118 3.03 -4.625 0.005 -0.007 -0.005 -0.025 0 -0.031 0.553 -0.75 1.12 -1.48 1.719 -2.219 0.005 -0.006 -0.005 -0.025 0 -0.031 0.599 -0.739 1.236 -1.454 1.875 -2.188 0.005 -0.006 -0.005 -0.025 0 -0.031 0.64 -0.734 1.326 -1.454 2 -2.188 0.005 -0.005 -0.005 -0.026 0 -0.031 1.36 -1.478 2.783 -2.956 4.25 -4.469 -5.629 0.768 -16.12 3.01 -26.875 9.06 -0.896 0.504 -1.79 1.035 -2.688 1.594 -2.7 1.68 -5.388 3.591 -8 5.813 0.384 2 0.982 4.191 1.531 6.5 0.002 0.01 -0.002 0.021 0 0.031 0.18 0.76 0.372 1.533 0.531 2.313 0.025 0.124 0.038 0.25 0.063 0.375 0.367 1.857 0.639 3.756 0.688 5.656 0 0.01 0 0.021 0 0.031 0.099 4.04 -0.811 8.08 -3.969 11.688 -0.005 0.006 0.005 0.025 0 0.031 -1.582 1.805 -3.736 3.493 -6.594 5.03 -0.012 0.007 -0.019 0.025 -0.031 0.031 -0.725 0.389 -1.525 0.757 -2.344 1.125 -1.06 0.476 -2.179 0.938 -3.406 1.375 -0.816 0.291 -1.668 0.572 -2.563 0.844 2.064 5.954 5.66 18.291 12.813 25.719 0.358 0.371 0.718 0.717 1.094 1.063 4.02 3.705 9.09 5.829 15.531 4.656 l -8.375 14.5 l 15.25 8.781 l 8.375 -14.5 c 1.789 5.01 4.995 8.156 8.938 10.03 3.172 1.509 6.807 2.209 10.531 2.406 0.532 0.028 1.059 0.054 1.594 0.062 0.01 0 0.021 0 0.031 0 0.524 0.01 1.069 0.01 1.594 0 2.139 -0.035 4.287 -0.196 6.344 -0.438 2.057 -0.241 4.01 -0.577 5.844 -0.906 0.917 -0.164 1.821 -0.305 2.656 -0.469 1.67 -0.328 3.137 -0.668 4.375 -0.906 -0.211 -0.906 -0.375 -1.776 -0.531 -2.625 -0.014 -0.075 -0.018 -0.145 -0.031 -0.219 -0.114 -0.633 -0.228 -1.273 -0.313 -1.875 -0.001 -0.011 0.001 -0.021 0 -0.031 -0.058 -0.414 -0.081 -0.788 -0.125 -1.188 -0.208 -1.881 -0.289 -3.608 -0.219 -5.188 0.022 -0.484 0.048 -0.98 0.094 -1.438 0.075 -0.752 0.177 -1.441 0.313 -2.125 0.142 -0.716 0.328 -1.417 0.531 -2.063 0.039 -0.122 0.084 -0.255 0.125 -0.375 0.003 -0.01 -0.003 -0.022 0 -0.031 0.308 -0.901 0.676 -1.729 1.094 -2.5 0.004 -0.01 -0.004 -0.023 0 -0.031 4.444 -8.167 14.63 -9.407 21.375 -11.75 1.439 -7.859 1.292 -15.301 0.438 -21.781 -0.12 -0.914 -0.261 -1.813 -0.406 -2.688 -0.002 -0.01 0.002 -0.021 0 -0.031 -0.148 -0.884 -0.3 -1.723 -0.469 -2.563 -0.172 -0.85 -0.343 -1.668 -0.531 -2.469 -0.369 -1.573 -0.783 -3.04 -1.188 -4.406 -0.003 -0.01 0.003 -0.021 0 -0.031 -0.404 -1.363 -0.819 -2.619 -1.219 -3.75 -0.004 -0.01 0.004 -0.021 0 -0.031 -0.403 -1.138 -0.798 -2.124 -1.156 -3 -1.075 3.78 -2.155 7.377 -3.406 10.75 -0.088 0.238 -0.16 0.483 -0.25 0.719 -0.003 0.009 0.003 0.022 0 0.031 -0.34 0.886 -0.721 1.741 -1.094 2.594 -0.004 0.009 0.004 0.023 0 0.031 -0.373 0.853 -0.774 1.683 -1.188 2.5 -0.421 0.834 -0.842 1.642 -1.313 2.438 -0.233 0.394 -0.472 0.772 -0.719 1.156 -0.005 0.007 0.005 0.024 0 0.031 -0.068 0.106 -0.149 0.207 -0.219 0.313 -0.028 0.043 -0.065 0.082 -0.094 0.125 -1.038 1.565 -2.182 3.05 -3.5 4.438 -0.473 0.498 -0.985 0.995 -1.5 1.469 -0.984 0.904 -2.065 1.751 -3.219 2.563 l -3.594 -8.594 c 1.065 -2.056 2.039 -4.103 2.906 -6.156 0.578 -1.369 1.107 -2.757 1.594 -4.125 0.731 -2.052 1.357 -4.107 1.875 -6.156 1.039 -4.108 1.651 -8.184 1.781 -12.281 0.066 -2.034 0.015 -4.063 -0.156 -6.094 -0.001 -0.01 0.001 -0.021 0 -0.031 -0.058 -0.68 -0.134 -1.351 -0.219 -2.031 -0.17 -1.36 -0.406 -2.704 -0.688 -4.063 -0.139 -0.669 -0.302 -1.362 -0.469 -2.031 -0.002 -0.01 0.002 -0.021 0 -0.031 -0.167 -0.669 -0.337 -1.331 -0.531 -2 -0.003 -0.009 0.003 -0.022 0 -0.031 -0.593 -2.035 -1.33 -4.062 -2.188 -6.094 z m -57.5 67.69 l 6.219 3.625 l -7.06 12.188 c -0.059 -0.232 -0.134 -0.459 -0.188 -0.688 -0.005 -0.02 0.005 -0.042 0 -0.062 -0.05 -0.216 -0.111 -0.443 -0.156 -0.656 -0.007 -0.032 -0.025 -0.062 -0.031 -0.094 -0.007 -0.033 -0.025 -0.061 -0.031 -0.094 -0.006 -0.031 0.006 -0.063 0 -0.094 -0.097 -0.485 -0.179 -0.966 -0.25 -1.438 -0.003 -0.021 0.003 -0.041 0 -0.062 -0.003 -0.022 -0.028 -0.041 -0.031 -0.062 -0.012 -0.084 -0.02 -0.166 -0.031 -0.25 -0.009 -0.064 -0.023 -0.124 -0.031 -0.188 -0.005 -0.042 0.005 -0.083 0 -0.125 -0.131 -1.045 -0.21 -2.051 -0.219 -3.03 0 -0.032 0 -0.062 0 -0.094 -0.004 -0.695 0.041 -1.369 0.094 -2.031 0.09 -1.115 0.231 -2.198 0.469 -3.219 0.017 -0.073 0.045 -0.146 0.063 -0.219 0.129 -0.529 0.272 -1.028 0.438 -1.531 0.126 -0.383 0.292 -0.757 0.438 -1.125 0.074 -0.187 0.14 -0.38 0.219 -0.563 0.004 -0.01 -0.004 -0.023 0 -0.031 0.024 -0.056 0.069 -0.101 0.094 -0.156 z m 21.438 12.406 l 6.219 3.563 c -0.088 0.121 -0.158 0.255 -0.25 0.375 -0.041 0.053 -0.084 0.103 -0.125 0.156 -0.041 0.053 -0.083 0.104 -0.125 0.156 -0.24 0.302 -0.488 0.582 -0.75 0.875 -0.282 0.316 -0.567 0.633 -0.875 0.938 -0.075 0.074 -0.142 0.146 -0.219 0.219 -0.055 0.052 -0.101 0.104 -0.156 0.156 -0.096 0.09 -0.214 0.161 -0.313 0.25 -0.157 0.142 -0.305 0.299 -0.469 0.438 -0.528 0.448 -1.094 0.9 -1.688 1.313 -0.094 0.066 -0.185 0.123 -0.281 0.188 -0.211 0.142 -0.437 0.269 -0.656 0.406 -0.189 0.118 -0.368 0.229 -0.563 0.344 -0.04 0.024 -0.084 0.039 -0.125 0.062 -0.285 0.166 -0.577 0.342 -0.875 0.5 -0.042 0.022 -0.083 0.041 -0.125 0.062 -0.104 0.054 -0.207 0.103 -0.313 0.156 -0.407 0.206 -0.819 0.403 -1.25 0.594 -0.094 0.042 -0.186 0.084 -0.281 0.125 -0.009 0 -0.022 0 -0.031 0 -0.03 0.013 -0.063 0.018 -0.094 0.031 -0.056 0.024 -0.099 0.07 -0.156 0.094 -0.052 0.022 -0.103 0.041 -0.156 0.062 -0.03 0.012 -0.064 0.019 -0.094 0.031 -0.052 0.021 -0.104 0.042 -0.156 0.062 -0.044 0.017 -0.081 0.045 -0.125 0.062 -0.195 0.077 -0.394 0.145 -0.594 0.219 -0.553 0.204 -1.098 0.383 -1.688 0.563 -0.022 0.01 -0.04 0.024 -0.063 0.031 -0.225 0.068 -0.457 0.123 -0.688 0.188 l 7.06 -12.219 z" style="filter:url(#0)"/><path transform="translate(0 924.36)" d="m 93.66 12.688 c -23.343 2.916 -39.19 19.16 -50.28 43.906 -4.979 -20.298 4.01 -30.552 15.75 -42.656 -7.505 1.023 -23.672 4.656 -37.563 16.469 2.048 10.686 10.258 27.02 -16.09 35.03 3.302 9.526 10.512 35.402 29.969 31.344 -6.217 -22.617 15.621 -32.52 25.375 -27.16 9.522 5.765 11.852 29.607 -10.844 35.531 6.214 18.88 32.19 12.185 42.09 10.281 -6.235 -26.828 12.03 -27.868 22.313 -31.438 c 3.285 -17.936 -1.665 -33.739 -4.531 -40.75 -4.613 16.219 -8.995 29.13 -29.06 34.969 15.886 -21.98 22.02 -43.857 12.875 -65.53 z" style="fill:url(#1)"/><path transform="matrix(0.86603 0.5 -0.5 0.86603 0 0)" d="m 540.84 850.11 h 17.604 v 33.588 h -17.604 z" style="fill:url(#5)"/><path transform="matrix(0.86603 0.5 -0.5 0.86603 0 0)" d="m 540.84 850.11 h 17.604 v 33.588 h -17.604 z" style="fill:url(#4)"/><path transform="matrix(0.86603 0.5 -0.5 0.86603 0 0)" d="m 532.65 827.12 h 33.99 v 24.623 h -33.99 z" style="fill:url(#3)"/><path transform="matrix(0.99185 -0.12743 0.12743 0.99185 0 0)" d="m -88.45 964.67 h 20.14 v 17.804 h -20.14 z" style="fill:url(#D)"/><path transform="matrix(0.86603 0.5 -0.5 0.86603 0 0)" d="m 531.17 827.88 h 18.472 v 24.18 h -18.472 z" style="fill:url(#C)"/><path d="m 93.67 937.06 c -23.343 2.917 -39.21 19.16 -50.3 43.908 -4.979 -20.298 4.02 -30.551 15.761 -42.656 -7.505 1.023 -23.66 4.654 -37.55 16.467 2.048 10.686 10.248 27.02 -16.1 35.03 3.302 9.526 10.504 35.38 29.961 31.32 -6.217 -22.617 15.616 -32.519 25.37 -27.16 z" style="fill:url(#G)"/><path d="m 43.37 980.97 c -4.979 -20.298 4.02 -30.551 15.761 -42.656 -7.505 1.023 -23.66 4.654 -37.55 16.467 2.048 10.686 10.248 27.02 -16.1 35.03 3.302 9.526 10.504 35.38 29.961 31.32 -3.731 -13.573 2.64 -22.567 10.441 -26.43 -1.088 -4.11 -2.336 -8.161 -2.51 -13.735 z" style="fill:url(#H)"/><path d="m 20.14 981.7 c -2.874 3.134 -7.487 5.933 -14.663 8.116 3.302 9.526 10.504 35.38 29.961 31.32 -1.94 -7.06 -1.148 -12.88 1.156 -17.384 -5.04 -5.247 -12.02 -15.524 -16.455 -22.05 z" style="fill:url(#F)"/><path d="m 20.22 989.1 c -5.104 1.64 -12.07 2.219 -14.748 0.712 3.302 9.526 10.504 35.38 29.961 31.32 -0.811 -2.951 -1.145 -5.686 -1.09 -8.199 -5.144 4.83 -8.22 -0.378 -4.911 -7.121 -5.12 3.468 -19.841 4.112 -9.213 -16.712 z" style="fill:url(#E)"/><path transform="matrix(-0.38557 -0.92268 -0.92268 0.38557 0 0)" d="m -962.67 298.19 h 20.14 v 17.804 h -20.14 z" style="fill:url(#B)"/><path transform="matrix(-0.86603 -0.5 -0.5 0.86603 0 0)" d="m -568.12 827.88 h 18.472 v 24.18 h -18.472 z" style="fill:url(#A)"/><path d="m 93.67 937.06 c 9.146 21.674 3.01 43.535 -12.875 65.52 20.07 -5.837 24.448 -18.759 29.06 -34.977 2.866 7.01 7.799 22.817 4.514 40.753 -10.278 3.57 -28.525 4.635 -22.289 31.463 -9.901 1.904 -35.89 8.592 -42.1 -10.287 22.695 -5.924 20.355 -29.784 10.833 -35.549 z" style="fill:url(#9)"/><path d="m 80.79 1002.57 c 20.07 -5.837 24.448 -18.759 29.06 -34.977 2.866 7.01 7.799 22.817 4.514 40.753 -10.278 3.57 -28.525 4.635 -22.289 31.463 -9.901 1.904 -35.89 8.592 -42.1 -10.287 13.62 -3.555 18.223 -13.57 17.669 -22.257 4.103 -1.113 8.236 -2.058 13.15 -4.694 z" style="fill:url(#8)"/><path d="m 91.77 1023.06 c -1.277 4.055 -1.395 9.451 0.303 16.756 -9.901 1.904 -35.89 8.592 -42.1 -10.287 7.084 -1.849 11.729 -5.446 14.477 -9.694 7.06 1.739 19.457 2.651 27.324 3.225 z" style="fill:url(#7)"/><path d="m 85.32 1026.69 c 1.132 5.24 4.115 11.566 6.757 13.13 -9.901 1.904 -35.89 8.592 -42.1 -10.287 2.962 -0.773 5.497 -1.852 7.645 -3.155 -1.611 6.869 4.437 6.93 8.622 0.693 -0.443 6.168 6.36 19.238 19.08 -0.377 z" style="fill:url(#6)"/><path d="m 85.82 950.67 c -5.077 0.082 -11.973 4.216 -14.795 6 3.214 12.275 -6.814 19.505 -13.149 18.462 -2.433 5.461 -4.799 10.954 -2.419 17.44 1.972 0.099 3.815 0.585 5.347 1.427 1.495 0.905 2.81 2.243 3.882 3.901 6.807 -1.181 10.381 -5.977 13.894 -10.815 -4.071 -4.964 -2.824 -17.263 9.414 -20.618 0.134 -3.336 0.294 -11.359 -2.174 -15.797 z" style="fill:url(#2)"/></g></svg>