<svg xmlns="http://www.w3.org/2000/svg" viewBox="0 0 256 256"><defs><clipPath><path transform="matrix(15.33333 0 0 11.5 415 -125.5)" d="m -24 13 c 0 1.105 -0.672 2 -1.5 2 -0.828 0 -1.5 -0.895 -1.5 -2 0 -1.105 0.672 -2 1.5 -2 0.828 0 1.5 0.895 1.5 2 z"/></clipPath></defs><g transform="translate(-0.004 0.55)"><g transform="matrix(1.71111 0 0 1.6629 -51.12 -634.24)" style="fill:#fff"><path d="m 84 456.36 v 30 c 0 18 3 18 30 18 h 6 c 27 0 30 0 30 -18 v -30 c 0 -18 -3 -18 -30 -18 h -6 c -27 0 -30 0 -30 18 z m 30 -12 h 6 c 24 0 24 0 24 12 v 21 c 0 12 0 12 -24 12 h -6 c -24 0 -24 0 -24 -12 v -21 c 0 -12 0 -12 24 -12 z"/><path d="m 96,477.91 v -11.636 l 10.5,-10.909 13.13,13.636 5.25,-5.454 13.13,13.636 v 0.727 c 0,5.455 -0.875,5.455 -10.5,5.455 h -21 c -9.625,0 -10.5,0 -10.5,-5.455 z"/><path transform="matrix(1.3333 0 0 1.3333 34 410.36)" d="m 78 34.5 a 4.5 4.5 0 1 1 -9 0 4.5 4.5 0 1 1 9 0 z" style="color:#000"/><path d="M 42,12 C 15,12 12,12 12,30 v 30 c 0,9.758 0.891,14.235 6,16.281 V 51 36 30 C 18,19.134 18.181,18.128 36,18.031 V 18 h 6 6 28.531 C 73.886,12.002 66.718,12 48,12 h -6 z" transform="translate(60 414.36)"/><path d="m 90,414.36 c -27,0 -30,0 -30,18 v 30 c 0,9.758 0.891,14.235 6,16.281 v -25.281 -15 -6 c 0,-10.866 0.181,-11.872 18,-11.969 v -0.031 h 6 6 28.531 c -2.646,-5.998 -9.813,-6 -28.531,-6 h -6 z"/></g><g transform="translate(1.085 -795.28)"><path d="m 44.46 1014.3 c -200.11 -265.25 350.59 -302.94 173.86 -32.17 -40.29 61.728 -120.86 102.43 -173.86 32.17 z" style="fill:#9acd32;color:#000"/><path d="m 103.09 998.95 c -30.01 -7.01 -51.927 -35.06 -51.88 -66.4 0.048 -31.505 17.999 -56.56 47.525 -66.33 5.881 -1.946 9.852 -4.104 10.316 -5.605 1.645 -5.325 11.96 -20.04 15.07 -21.494 2.755 -1.29 4.725 -0.783 11.928 3.069 11.06 5.916 23.262 9.162 48.667 12.95 27.942 4.166 26.691 3.837 26.691 7.02 0 3.812 -2.93 5.069 -16.718 7.175 -16.528 2.524 -17.611 3.654 -5.454 5.693 15.672 2.628 20.967 3.953 22.628 5.659 3.03 3.115 -2.648 5.94 -16.592 8.251 -7.599 1.259 -14.31 2.734 -14.911 3.277 -0.602 0.543 5.975 2.22 14.615 3.727 12.984 2.265 15.795 3.201 16.201 5.397 0.747 4.04 -0.83 4.837 -14.246 7.229 -6.813 1.214 -12.75 2.582 -13.194 3.038 -1.568 1.612 2.925 3.139 13.943 4.74 12.724 1.849 13.727 2.279 13.727 5.885 0 3.382 -2.667 4.363 -11.865 4.363 -12.869 0 -14.05 1.018 -15.02 12.958 -1.523 18.659 -13.918 39.27 -29.99 49.864 -14.697 9.689 -34.805 13.415 -51.44 9.529 z m 36.688 -22.21 c 14.12 -7.143 24.403 -21.765 26.534 -37.735 1.149 -8.615 1.105 -8.614 -24.466 0.481 -29.09 10.347 -36.32 9.458 -42.883 -5.277 -3.302 -7.411 -3.479 -8.924 -2.7 -23.16 0.458 -8.376 1.247 -17.412 1.752 -20.08 l 0.92 -4.851 l -5.901 3.407 c -7.825 4.519 -14.863 12.728 -19.361 22.584 -3.064 6.714 -3.671 10.06 -3.671 20.21 0 10.115 0.611 13.505 3.624 20.1 12.09 26.474 40.926 37.07 66.15 24.314 z" style="fill:#fff"/></g></g></svg>