<svg xmlns="http://www.w3.org/2000/svg" viewBox="0 0 256 256"><path d="m 253.7918 130.2618 c 22.351 111.92 -130.95 154.42 -214.199996 105.92 -66.33 -38.644 -47.3700004 -171.019996 42.17 -220.369996 89.539996 -49.35 154.089996 24.617 172.029996 114.449996 z" style="fill:#2a185e;color:#000"/><g transform="matrix(3.8563774 0 0 3.7269064 36.36309 46.681965)"><path d="M 24 4 A 20 20 0 0 0 4 24 20 20 0 0 0 24 44 20 20 0 0 0 44 24 20 20 0 0 0 24 4 z" style="fill:#234780"/><path d="M 24 4 A 20 20 0 0 0 4 24 20 20 0 0 0 4.0215 24.418 20 20 0 0 1 23.9995 5 20 20 0 0 1 43.9785 24.582 20 20 0 0 0 43.9995 24 a 20 20 0 0 0 -20 -20 z" style="fill:#fff;opacity:0.1"/><g style="stroke-linecap:round;stroke-linejoin:round"><g style="stroke-width:1.8859545"><path d="m 24,9 5,8 5,8 -10,6 -10,-6 5,-8 z" style="fill:#080808;opacity:0.2"/><path d="M 24,7.9999999 29,16 l 5,8 -10,6 -10,-6 5,-8 z" style="fill:#63bfd7"/></g><g style="stroke-width:1.76414883"><path d="m 24,41 5,-7 5,-7 -10,6 -10,-6 5,7 z" style="fill:#080808;opacity:0.2"/><path d="m 24,40 5,-7 5,-7 -10,6 -10,-6 5,7 z" style="fill:#63bfd7"/></g></g></g></svg>