<svg xmlns="http://www.w3.org/2000/svg" viewBox="0 0 256 256"><g transform="translate(0 -796.36)" style="fill:#f60"><path d="m 195.9 1024.92 c -94.03 83.42 -238.72 -48.17 -180.21 -158.3 59.14 -111.35 254.88 -81.67 238.23 55.08 c -4.956 40.694 -27.343 76.01 -58.02 103.23 z" style="fill:#b6c5d2;color:#000"/><g transform="matrix(0.93884 0 0 0.88608 8.264 105.23)" style="fill:#f60"><path d="m 63.63 992.52 c -10.562 -3.089 -13.421 -12.201 -8.244 -26.27 2 -5.449 3.297 -15.06 4.806 -35.737 2.629 -36.02 2.63 -49.737 0.005 -56.47 -5.991 -15.365 1.966 -24.597 21.286 -24.695 17.501 -0.09 22.723 5.315 35.08 36.3 12.966 32.511 14.759 32.566 26.479 0.81 11.297 -30.611 17.309 -37.16 34.02 -37.05 9.524 0.061 16.43 3.48 19.723 9.766 1.776 3.39 1.788 4.795 0.096 10.962 -3.04 11.08 -3.204 23.2 -0.745 55.17 1.747 22.716 3.091 32.361 5.733 41.14 2.985 9.917 3.234 12.168 1.841 16.691 -2.254 7.317 -7.713 9.987 -21.98 10.753 -18.204 0.977 -25.16 -2.298 -32.477 -15.283 -1.48 -2.629 -1.948 -2.425 -7.553 3.28 -7.469 7.602 -10.667 9.369 -16.961 9.369 -5.734 0 -9.158 -1.673 -15.497 -7.573 -4.402 -4.097 -8.535 -5.502 -8.535 -2.902 0 0.713 -1.911 3.299 -4.246 5.745 -6.611 6.925 -20.803 9.519 -32.832 6 z m 69.55 -23.344 c 3.131 -6.879 6.782 -16.15 8.113 -20.6 3.426 -11.455 16.92 -44.47 19.2 -46.98 1.654 -1.82 1.995 -1.82 2.548 0 2.939 9.669 7.544 71.31 5.487 73.44 -0.67 0.695 -3.381 1.854 -6.02 2.576 -2.644 0.722 -4.599 1.932 -4.347 2.69 0.595 1.781 40.559 1.218 41.12 -0.579 0.23 -0.738 -2.3 -2.076 -5.622 -2.972 l -6.04 -1.63 l -1.509 -16.585 c -0.83 -9.122 -2.541 -32.31 -3.801 -51.53 -2.514 -38.32 -2.377 -39.37 5.13 -39.37 2.36 0 4.333 -0.944 4.821 -2.306 1.655 -4.62 -1.588 -5.525 -14.888 -4.157 l -12.761 1.313 l -7.97 22.07 c -4.383 12.139 -9.854 27.369 -12.157 33.843 -8.06 22.667 -9.985 27.29 -12.254 29.493 -1.832 1.776 -2.558 1.844 -3.653 0.341 -2.19 -3.01 -18.916 -45.04 -31.937 -80.26 -0.979 -2.648 -2.391 -5.219 -3.138 -5.713 -0.747 -0.495 -7.478 -1.158 -14.958 -1.473 -11.405 -0.481 -13.733 -0.202 -14.425 1.73 -1.105 3.086 -0.085 3.938 6.02 5.03 l 5.165 0.922 l -0.284 16.874 c -0.156 9.281 -0.988 27.8 -1.847 41.15 -0.859 13.353 -1.877 29.25 -2.262 35.31 -0.787 12.423 -2.848 16.186 -8.866 16.186 -2.149 0 -3.907 0.497 -3.906 1.104 0 0.607 7.725 1.139 17.17 1.182 9.441 0.043 17.17 -0.454 17.17 -1.104 0 -0.65 -1.758 -1.182 -3.907 -1.182 -2.152 0 -5.01 -1.311 -6.372 -2.918 -2.102 -2.489 -2.291 -4.166 -1.285 -11.404 0.649 -4.667 1.298 -13.783 1.443 -20.257 0.477 -21.375 2.474 -40.932 4.243 -41.559 1.994 -0.707 6.387 6.605 9.496 15.808 5.68 16.811 9.189 26.11 11.433 30.28 1.339 2.494 3.22 7.129 4.179 10.3 1.916 6.337 7.739 19.386 9.988 22.383 2.867 3.821 5.921 0.774 11.493 -11.467 z" style="fill:#060d17;fill-opacity:0.201"/><path d="m 120.92 184.07 c -0.619 -0.396 -2.062 -2.576 -3.207 -4.843 -3.066 -6.075 -15.169 -36.08 -20.923 -51.875 -7.296 -20.02 -11.976 -27.02 -13.727 -20.521 -1.278 4.746 -4.769 51.876 -4.769 64.39 0 5.767 2.551 9.553 6.438 9.553 1.06 0 1.641 0.464 1.291 1.031 -0.774 1.253 -23.12 1.369 -25.07 0.13 -0.972 -0.616 -0.457 -1.052 1.765 -1.497 2.743 -0.549 3.33 -1.31 4.682 -6.071 1.779 -6.265 4.434 -45.649 5.408 -80.23 l 0.658 -23.345 l -4.714 -0.707 c -4.825 -0.724 -7.641 -2.766 -6.456 -4.683 0.724 -1.172 19.11 -1.476 25.491 -0.421 4.435 0.733 4.086 0.023 18.17 36.961 11.288 29.611 19.494 49.19 21.01 50.12 1.866 1.153 4.426 -1.644 7.03 -7.688 1.266 -2.935 8.207 -21.704 15.425 -41.707 7.218 -20 13.342 -36.589 13.609 -36.856 0.267 -0.267 6.395 -0.785 13.619 -1.151 l 13.13 -0.666 l -0.351 2.482 c -0.28 1.984 -1.264 2.703 -4.894 3.578 -3.305 0.797 -4.809 1.78 -5.517 3.607 -0.559 1.441 -0.705 8.661 -0.344 16.939 0.676 15.487 5.658 84.84 6.221 86.6 0.187 0.584 3.059 1.957 6.384 3.05 l 6.04 1.988 l -5.668 0.713 c -8.515 1.071 -32.773 1.051 -33.439 -0.026 -0.32 -0.519 1.577 -1.768 4.217 -2.776 l 4.799 -1.833 l -0.669 -18.09 c -0.833 -22.51 -3.361 -48.51 -5.439 -55.913 -1.694 -6.04 -7.555 6.408 -24.12 51.22 -7.675 20.767 -13.13 30.441 -16.09 28.546 z" transform="translate(2.183 797.16)" style="fill:#00fffe;fill-opacity:0.996"/></g></g></svg>