<svg xmlns="http://www.w3.org/2000/svg" viewBox="0 0 256 256"><path d="m 260.02 66.64 c -48.541 -88.14 -200.63 -53.931 -226.36 18.64 -30.66 86.45 49.14 250.63 184.3 154.45 45.527 -33.585 90.6 -84.949 42.05 -173.09 z" transform="translate(-26.04 -13.02)" style="fill:#6b8e23;color:#000"/><path d="m 173.04572 170.68152 c -6.31945 -2.77529 -11.95117 -4.90797 -12.51494 -4.73933 -0.56376 0.16862 -3.65405 -0.82289 -6.86731 -2.2034 -3.21328 -1.3805 -6.43122 -2.31094 -7.15102 -2.06762 -0.7198 0.24332 -1.61484 -0.46321 -1.98901 -1.57009 -0.37417 -1.10687 -1.47898 -1.74251 -2.4551 -1.41255 -0.97612 0.32998 -1.97888 -0.004 -2.22833 -0.74173 -0.88982 -2.63228 -5.9856 0.59344 -7.60198 4.81226 -0.90475 2.36145 -2.10788 4.45 -2.67361 4.64124 -0.56572 0.19123 -1.95386 2.34235 -3.08476 4.78024 -1.13091 2.43788 -2.70644 4.65233 -3.50118 4.92098 -0.79473 0.26865 -2.02461 1.9135 -2.73304 3.65516 -0.70844 1.74168 -2.82244 5.64785 -4.69778 8.68037 -1.87536 3.03252 -3.5792 6.41586 -3.78631 7.51853 -0.20713 1.10267 -1.14878 2.26588 -2.09257 2.58493 -1.89989 0.64224 -5.43572 -7.83846 -4.05293 -9.72094 0.43136 -0.58723 0.30024 -3.64161 -0.29136 -6.78749 -0.60106 -3.19612 -0.44243 -5.53408 0.35952 -5.29889 0.8138 0.23868 0.85696 -1.2896 0.0996 -3.52988 -0.73455 -2.17295 -1.12476 -5.94902 -0.86713 -8.39125 0.25764 -2.44222 0.12659 -5.46246 -0.29121 -6.71163 -0.41792 -1.24911 -0.35337 -2.82432 0.14325 -3.50035 0.49659 -0.67605 0.0434 -3.75808 -1.007 -6.84898 -1.74932 -5.14585 -2.39532 -5.74309 -7.667516 -7.08185 -3.166704 -0.80412 -5.955632 -2.04775 -6.19763 -2.76363 -0.241998 -0.71589 -1.138253 -1.06557 -1.991675 -0.77708 -0.853423 0.28849 -3.10286 -0.29659 -4.998755 -1.30019 -1.895891 -1.00357 -3.75803 -1.71958 -4.138082 -1.59112 -0.86828 0.29352 -4.136637 -1.17177 -9.980887 -4.4747 -2.503498 -1.41486 -5.056274 -2.40195 -5.672832 -2.19353 -0.61656 0.20843 -3.324877 -0.47758 -6.018475 -1.52443 -3.951852 -1.53587 -4.582934 -2.1885 -3.268492 -3.38005 0.895929 -0.81218 11.849545 -4.93166 24.341373 -9.15441 21.291267 -7.19732 22.782841 -7.88969 23.837881 -11.06523 0.61902 -1.86313 0.70794 -4.622621 0.19764 -6.132221 -1.51389 -4.478409 -2.394529 -15.532757 -1.26776 -15.913651 0.57349 -0.193863 0.34541 -2.415288 -0.50688 -4.936501 -0.852276 -2.521213 -1.074869 -4.973737 -0.494605 -5.450054 0.580225 -0.476311 0.729875 -2.769373 0.332575 -5.095692 -0.397306 -2.326319 -0.289287 -4.60032 0.24004 -5.053335 0.52933 -0.453015 0.42632 -2.436417 -0.22889 -4.407567 -0.655336 -1.971108 -0.981325 -4.663997 -0.724732 -5.984106 0.354103 -1.821375 0.826492 -1.350127 1.958762 1.954074 0.82055 2.394897 2.02454 4.174308 2.67531 3.954323 0.65074 -0.219978 1.87566 1.648568 2.72203 4.152327 0.94949 2.808804 2.31858 4.618283 3.5747 4.724606 1.19011 0.100734 2.607 1.861893 3.4107 4.239422 0.75617 2.236916 1.90727 3.887134 2.55803 3.667152 0.65075 -0.219981 1.8975 1.713157 2.77057 4.295865 0.87305 2.582708 2.11981 4.515844 2.77056 4.295863 0.65075 -0.219978 1.87252 1.639233 2.71504 4.131583 0.84251 2.492357 2.58457 5.013181 3.87123 5.601833 1.28665 0.588643 2.62053 1.901969 2.96416 2.918509 0.51077 1.510986 5.14539 0.320057 25.40186 -6.527455 15.24176 -5.152339 25.23303 -7.954464 25.96187 -7.281191 0.65162 0.601956 0.59846 1.29269 -0.11817 1.534938 -0.71662 0.242246 -1.74603 1.249457 -2.28757 2.23825 -2.23179 4.075095 -12.26784 20.372078 -16.07239 26.099078 -2.24669 3.38196 -4.53526 7.22399 -5.0857 8.53784 -0.55042 1.31385 -2.03119 3.20761 -3.2906 4.20835 -2.75777 2.19136 -1.29634 7.72785 3.33316 12.62744 1.68661 1.78501 3.41496 4.26527 3.84077 5.51173 0.4256 1.24652 1.43279 2.45942 2.23771 2.6955 0.80491 0.23607 2.07829 2.24796 2.82973 4.47087 0.75143 2.22291 2.47103 4.67732 3.82133 5.45421 1.3503 0.77691 2.93868 2.84318 3.52976 4.5917 0.59108 1.74854 1.6605 3.35097 2.37648 3.56096 0.71599 0.21 2.21089 2.26713 3.32202 4.57143 1.11112 2.3043 2.78169 5.10952 3.71239 6.23383 2.9238 3.53203 -0.15233 2.955 -12.01192 -2.25326 z m -83.788894 -58.04359 c -6.101778 1.79133 -15.951804 5.12104 -21.888951 7.39936 -5.937148 2.27833 -0.944788 0.8127 11.094133 -3.25695 12.038925 -4.06964 16.896601 -5.93372 10.794818 -4.14241 z m 78.682114 -26.597012 c -5.77723 1.678897 -15.09481 4.828618 -20.70576 6.999391 -5.61094 2.170789 -0.88412 0.797148 10.50405 -3.052516 11.38815 -3.849663 15.97893 -5.62575 10.20171 -3.946875 z" style="fill:#fff;fill-rule:evenodd"/></svg>