<svg xmlns="http://www.w3.org/2000/svg" xmlns:xlink="http://www.w3.org/1999/xlink" viewBox="0 0 256 256"><defs><path id="0" d="m 802.86 510.93 a 141.43 141.43 0 1 1 -282.86 0 141.43 141.43 0 1 1 282.86 0 z" style="fill:#0d93ff;fill-rule:evenodd"/><clipPath id="1"><use xlink:href="#0" transform="matrix(1.62882 0 0 1.62882 -822.99 -574.64)"/></clipPath><clipPath><use transform="translate(-398 -113.14)" xlink:href="#0"/></clipPath></defs><g transform="translate(0 -796.36)"><path d="m 181.09 1045.14 c -358.18 69.03 -90.96 -470.27 65.45 -139.31 14.568 62.823 5.723 115.39 -65.45 139.31 z" style="fill:#add8e6;color:#000"/><g transform="matrix(0.33053 0 0 0.31349 43.23 681.75)"><path transform="matrix(1.62882 0 0 1.62882 -822.99 -34.28)" d="m 802.86 510.93 c 0 78.11 -63.32 141.43 -141.43 141.43 -78.11 0 -141.43 -63.32 -141.43 -141.43 0 -78.11 63.32 -141.43 141.43 -141.43 78.11 0 141.43 63.32 141.43 141.43 z" style="fill:#0d93ff;fill-rule:evenodd"/><path transform="translate(0 540.36)" d="m 390.74 71.12 l -45.41 110.69 h -35.952 l -23.652 48.25 l -35.952 43.52 l 7.569 60.55 l 19.868 17.03 l 13.245 -14.191 l 12.299 2.838 l 10.407 10.407 l -13.245 8.515 l -8.515 17.03 l 33.11 44.47 l 13.245 59.6 l -80.48 14.806 l -93.6 -17.322 l -0.953 -27.759 l 69.06 -34.06 l 12.299 -35.01 l -37.844 -28.383 l -33.11 -58.658 l -6.623 25.545 l 5.677 15.14 l -7.569 7.569 l -15.14 -39.736 l 12.299 -40.682 l -17.976 -39.736 l -17.976 -53.927 l -10.407 -52.981 l -45.41 -33.11 l 93.66 -69.06 l 182.6 -1.892 z" style="clip-path:url(#1);fill:#f0fdff"/><path d="m 162.43 682.41 c -1.516 0.152 -2.96 0.931 -3.924 2.116 l -41.925 51.26 c -1.396 1.694 -1.713 4.211 -0.783 6.202 0.931 1.99 3.062 3.353 5.251 3.357 h 15.767 v 118.83 v 12.405 c 0.005 2.13 1.273 4.209 3.161 5.181 l 10.935 5.728 h 0.036 l 97.36 50.968 c 1.667 0.866 3.758 0.852 5.413 -0.036 l 96.24 -50.932 l 0.036 -0.036 l 10.935 -5.692 c 1.874 -0.982 3.126 -3.058 3.124 -5.181 v -12.405 v -118.83 h 15.767 c 2.196 0.009 4.341 -1.347 5.28 -3.341 0.939 -1.993 0.624 -4.519 -0.775 -6.218 l -41.925 -51.26 c -1.096 -1.341 -2.813 -2.148 -4.54 -2.134 -1.728 0.014 -3.431 0.848 -4.506 2.207 l -40.29 51.26 c -1.36 1.706 -1.643 4.208 -0.701 6.177 0.943 1.97 3.065 3.309 5.242 3.308 h 14.13 v 102.88 l -34.586 18.17 v -108.69 c 0 -0.024 0 -0.049 0 -0.073 0.081 -7.05 -2.688 -13.909 -7.666 -18.899 -4.995 -5.01 -11.824 -7.776 -18.892 -7.662 -6.913 0.111 -13.532 2.969 -18.347 7.953 -4.798 4.967 -7.491 11.69 -7.411 18.607 0 0.024 0 0.049 0 0.073 v 109.27 l -35.712 -18.789 v -102.85 h 14.13 c 2.182 0.014 4.319 -1.32 5.27 -3.292 0.952 -1.972 0.671 -4.483 -0.693 -6.194 l -40.29 -51.26 c -1.2 -1.524 -3.197 -2.377 -5.123 -2.189 z m 15.08 57.1 c -152.95 582.57 -76.47 291.28 0 0 z" style="fill:#ff4500;color:#000"/></g></g></svg>