<svg xmlns="http://www.w3.org/2000/svg" viewBox="0 0 256 256"><defs><clipPath><rect rx="4" y="1" x="1" height="46" width="46" style="fill:#1890d0;stroke-width:1"/></clipPath><clipPath id="1"><rect rx="4" y="1" x="1" height="46" width="46" style="fill:#1890d0;stroke-width:1"/></clipPath><clipPath><path transform="matrix(15.33333 0 0 11.5 415 -125.5)" d="m -24 13 c 0 1.105 -0.672 2 -1.5 2 -0.828 0 -1.5 -0.895 -1.5 -2 0 -1.105 0.672 -2 1.5 -2 0.828 0 1.5 0.895 1.5 2 z"/></clipPath><filter id="0" style="color-interpolation-filters:sRGB"><feBlend mode="lighten" in2="BackgroundImage"/></filter></defs><g transform="translate(4.568 -795.9)"><g transform="translate(-4.279 2.284)" style="enable-background:new;filter:url(#0)"><path d="m 209.67 842.81 c 199.43 231.66 -349.4 264.57 -173.27 28.1 40.15 -53.911 120.45 -89.45 173.27 -28.1 z" style="fill:#b0c4de;color:#000"/><g transform="matrix(6.12821 0 0 3.40148 -19.07 850.67)" style="clip-path:url(#1)"><path transform="translate(0 -1)" d="m 11.715 12.216 c -0.628 0 -1.201 0.434 -1.201 0.917 v 22.701 c 0.059 0.449 0.614 0.845 1.201 0.841 h 25.558 c 0.628 0 1.201 -0.434 1.201 -0.917 v -22.624 c 0 -0.478 -0.573 -0.917 -1.201 -0.917 m -22.1 2.446 h 20.97 v 19.567 h -20.97 m -1.165 -12.229 v 4.892 l -2.33 -2.446" style="fill:#fff"/></g></g></g></svg>