<svg xmlns="http://www.w3.org/2000/svg" viewBox="0 0 256 256"><path d="m 125.73 798.56 c -111.92 -22.351 -154.42 130.95 -105.92 214.2 38.644 66.33 171.02 47.37 220.37 -42.17 49.35 -89.54 -24.617 -154.09 -114.45 -172.03 z" transform="translate(0 -796.36)" style="fill:#3aae52;color:#000"/><path d="M 111.88171,185.14269 C 96.004905,180.84924 83.773569,170.77867 76.621565,156.11149 70.67823,143.92302 69.948942,138.37572 69.022779,98.311543 c -0.727428,-31.4672 -0.706195,-31.885189 1.619695,-31.885189 6.487106,0 31.151326,3.925647 40.863636,6.504005 21.07115,5.593822 41.66877,17.661599 51.6411,30.255581 2.59083,3.27195 6.57262,9.86632 8.84843,14.65413 3.51029,7.38495 4.21056,10.23283 4.61745,18.77852 0.56903,11.95061 -0.99358,20.4675 -5.4908,29.92723 -3.05123,6.41817 -12.05032,18.06047 -13.96011,18.06047 -0.4538,0 -0.80251,-8.02979 -0.77493,-17.84399 0.0428,-15.24312 -0.3249,-19.03785 -2.52292,-26.03469 -4.85965,-15.46954 -15.06532,-29.32234 -29.8396,-40.50319 -8.48804,-6.423557 -28.314561,-17.089377 -29.519016,-15.87996 -0.294519,0.295734 3.793893,3.891998 9.085376,7.991703 25.31684,19.614857 38.63799,44.551767 36.73251,68.762477 -0.94201,11.96911 -3.61827,20.47581 -7.37544,23.44337 -3.64214,2.87671 -11.79063,3.10904 -21.06645,0.60068 z" style="fill:#fff;stroke:#fff;fill-rule:evenodd;stroke-width:1.33350813"/></svg>