<svg xmlns="http://www.w3.org/2000/svg" viewBox="0 0 256 256"><defs><clipPath><path transform="matrix(15.33333 0 0 11.5 415 -125.5)" d="m -24 13 c 0 1.105 -0.672 2 -1.5 2 -0.828 0 -1.5 -0.895 -1.5 -2 0 -1.105 0.672 -2 1.5 -2 0.828 0 1.5 0.895 1.5 2 z" style="fill:#1890d0"/></clipPath><clipPath id="3"><path transform="matrix(15.33333 0 0 11.5 415 -125.5)" d="m -24 13 c 0 1.105 -0.672 2 -1.5 2 -0.828 0 -1.5 -0.895 -1.5 -2 0 -1.105 0.672 -2 1.5 -2 0.828 0 1.5 0.895 1.5 2 z" style="fill:#1890d0"/></clipPath><clipPath><path transform="matrix(15.33333 0 0 11.5 415 -125.5)" d="m -24 13 c 0 1.105 -0.672 2 -1.5 2 -0.828 0 -1.5 -0.895 -1.5 -2 0 -1.105 0.672 -2 1.5 -2 0.828 0 1.5 0.895 1.5 2 z" style="fill:#1890d0"/></clipPath><clipPath><path d="m 3.524 18.09 h 24.09 v 19.02 h -24.09 z" style="opacity:0.1"/></clipPath><radialGradient gradientUnits="userSpaceOnUse" gradientTransform="matrix(1 0 0 0.99942 0.272 0.192)" r="1.209" cy="30.08" cx="16.653" id="0"><stop style="stop-color:#846f46"/><stop offset="1" style="stop-color:#7a6841"/></radialGradient><radialGradient r="2.5" cy="15.734" cx="17" gradientTransform="matrix(1.2 0 0 1.3125 -3.4 -5.37)" gradientUnits="userSpaceOnUse" id="2"><stop style="stop-color:#156aa3"/><stop offset="1" style="stop-color:#1a7cbe"/></radialGradient><radialGradient r="3" cy="15.734" cx="17" gradientTransform="matrix(1.2 0 0 1.09375 -3.4 -1.928)" gradientUnits="userSpaceOnUse" id="1"><stop style="stop-color:#ef6651"/><stop offset="1" style="stop-color:#f17b69"/></radialGradient></defs><g transform="translate(0 -796.36)"><path d="m 24.975 999.59 c -127.95 -192.46 280.09 -311 226.07 -62.2 -23.02 102.82 -167.39 165.22 -226.07 62.2 z" style="fill:#789;color:#000"/><g transform="matrix(4.94789 0 0 4.8123 9.268 808.24)"><rect width="26" height="26" x="12" y="12" rx="1" ry="1.238" style="fill-opacity:0.118"/><g><rect width="26" height="26" x="11" y="11" rx="1" ry="1.238" style="fill:#546971"/><g><g transform="matrix(0.68179 0 0 0.69231 8.05 13.154)"><path d="m 21.934 20 h 19.07 v 13 h -19.07" style="fill:#27a9de"/><path d="m 24.866 27.22 l -2.933 2.889 l 0.002 2.889 h 8.166 v -2.102" style="fill:#ddb842"/><path d="m 24.866 27.22 l 1.467 2.889 l -2.933 1.444 v 1.444 h 6.703 v -2.102" style="fill:#fbdb52"/><path d="m 35 24 l -9 9 h 15 v -5.445" style="fill:#ddb842"/><path d="m 35 24 l 1.5 3 l -1.5 3.398 l 1.781 2.602 h 4.219 v -5.445" style="fill:#fbdb52"/></g><path d="m 12 23 v 13 h 10 v -13" style="fill:#79a8b7"/><path d="m 22 23 v 3.486 c -0.579 0.363 -0.743 0.514 -1.524 0.514 c -1.567 0 -2.895 -0.865 -3.318 -2.058 -0.379 0.25 -0.852 0.412 -1.373 0.412 -0.979 0 -2.488 -0.751 -2.785 -1.482 -0.237 0.067 -0.839 0.215 -1 0.213 v -1.084" style="fill:#f8ddeb"/><path d="M 23,12 H36 V26 H23 z" style="fill:#98cdf1"/><g transform="matrix(0.42306 0 0 0.42309 19.347 10.769)" style="clip-path:url(#3)"><g><path d="m 22.871 27.793 l -4.949 -5.949 l -0.594 -6.086 l 7.137 -1.957 l 4.703 1.434 l 1.66 3.668 l -1.293 2.477 l -5.75 6.473" style="fill:#cf8e92;fill-opacity:0.941"/><path d="m 11,36 26,0 0,-2 c -0.68,-3 -4.168,-6.453 -8.516,-8.234 l -2.84,2.762 -0.898,-0.598 -2.492,-0.055 -0.797,0.922 -3.02,-2.996 C 15.113,27.266 11.683,30.473 10.999,34 m 0,2" style="fill:#cf362d"/><g style="fill:#ffcdce"><path d="m 23.449 12.332 c 2.891 0 5.23 2.434 5.23 5.434 v 2.453 c 0 3 -2.34 5.43 -5.23 5.43 -2.887 0 -5.23 -2.43 -5.23 -5.43 v -2.453 c 0 -3 2.344 -5.434 5.23 -5.434"/><path d="m 27.09 24.14 c 0.563 -0.551 2 -1.707 2.16 -2.469 l -0.055 -4.371 l -8.328 -3.094 l -1.355 1.148 l -2.246 2.922 l 0.551 3.297 l 0.293 0.844 l 1.695 1.719"/></g><path d="m 18.15 22.434 v -4.07 c 0.414 -1.777 2.137 -3.574 2.996 -3.551 1.465 0.184 2.488 1.48 3.363 2.738 1.102 0.938 3.855 0.996 4.574 0 0 1.52 0 3.035 0 4.555 0.816 -0.316 1.836 -1.531 2.01 -2.578 c -0.207 -12.621 -14.34 -12.387 -14.727 -1.164 c 0.121 1.414 0.965 3.406 1.785 4.07" style="fill:#d0362d"/><g style="fill:#e6e6e6"><path d="m 23.453 27.898 l 3.637 -3.77 l 1.82 1.883 l -3.637 3.77"/><path d="m 19.816 24.13 l 3.637 3.77 l -1.816 1.883 l -3.637 -3.766"/></g></g></g><path d="M 12,12 H22 V22 H12 z" style="fill:#2ac0f3"/><g transform="translate(0 1)"><path d="m 16.1,19 0.3,1 1.2,0 0.3,-1 z" style="fill:#bf7646"/><g><path d="m 17 12 c -1.657 0 -3 1.343 -3 3 0 1.285 0.815 2.385 1.95 2.813 l 0.375 0.75 h 1.35 l 0.488 -0.788 c 1.077 -0.455 1.837 -1.532 1.837 -2.775 0 -1.657 -1.343 -3 -3 -3 z" style="fill:url(#2)"/><path d="m 17 12 c -0.986 0 -1.853 0.466 -2.4 1.2 h 4.8 c -0.547 -0.734 -1.414 -1.2 -2.4 -1.2 z m 2.94 2.4 h -5.88 c -0.04 0.195 -0.06 0.393 -0.06 0.6 c 0 0.202 0.022 0.409 0.06 0.6 h 5.88 c 0.04 -0.196 0.06 -0.393 0.06 -0.6 0 -0.207 -0.02 -0.405 -0.06 -0.6 z m -0.54 2.4 h -4.8 c 0.341 0.446 0.817 0.812 1.35 1.012 l 0.375 0.75 h 1.35 l 0.488 -0.788 c 0.496 -0.21 0.919 -0.546 1.237 -0.975 z" style="fill:url(#1)"/></g></g></g></g><g style="fill:#45a345"><path d="m 17.404 30.03 l -0.546 0.312 c 0.922 1.539 1.293 2.758 1.52 3.59 c 0.224 0.829 0.215 2.068 0.215 2.068 h 0.921 c 0 0 -0.01 -1.337 -0.253 -2.224 -0.242 -0.888 -0.907 -2.161 -1.858 -3.746"/><path d="m 14.777 35.436 c 0 0 0 -1.656 0.829 -2.485 0.829 -0.832 2.487 -0.832 2.487 -0.832 0 0 0 1.658 -0.829 2.487 -0.832 0.829 -2.487 0.829 -2.487 0.829"/><path d="m 18.367 32.439 c 0 0 0.385 -1.434 1.292 -1.958 c 0.91 -0.524 2.341 -0.142 2.341 -0.142 c 0 0 -0.385 1.434 -1.292 1.958 -0.91 0.524 -2.341 0.142 -2.341 0.142"/><path d="m 21.07 34.16 c 0 0 -1.462 0.257 -2.321 -0.344 -0.86 -0.603 -1.118 -2.062 -1.118 -2.062 0 0 1.462 -0.257 2.321 0.344 0.86 0.603 1.118 2.062 1.118 2.062"/><path d="m 17.34 35.861 c 0 0 1.137 -0.955 1.229 -1.999 0.091 -1.046 -0.861 -2.182 -0.861 -2.182 0 0 -1.137 0.955 -1.229 1.999 -0.091 1.046 0.861 2.182 0.861 2.182"/></g><path d="m 16.828 26.665 c -0.858 0 -1.551 0.697 -1.551 1.558 0 0.014 0 0.037 0 0.049 -0.014 -0.005 -0.019 -0.012 -0.039 -0.012 -0.832 -0.222 -1.692 0.273 -1.912 1.105 -0.224 0.832 0.271 1.692 1.102 1.914 0.014 0.003 0.022 -0.003 0.034 0 -0.008 0.012 -0.012 0.017 -0.012 0.034 -0.431 0.746 -0.164 1.712 0.583 2.144 0.746 0.431 1.697 0.161 2.126 -0.586 0.005 -0.014 0.01 -0.022 0.014 -0.032 0.012 0.01 0.019 0.017 0.034 0.032 0.607 0.61 1.583 0.61 2.193 0 0.607 -0.612 0.607 -1.602 0 -2.207 -0.012 -0.01 -0.022 -0.022 -0.034 -0.032 0.012 -0.014 0.034 -0.012 0.049 -0.017 0.744 -0.431 0.998 -1.38 0.568 -2.126 -0.349 -0.6 -1.029 -0.868 -1.676 -0.729 -0.2 -0.624 -0.783 -1.088 -1.475 -1.088 m -0.436 3.048 c 0.142 0.041 0.283 0.064 0.436 0.064 0.11 0 0.222 -0.01 0.325 -0.032 0.032 0.095 0.076 0.197 0.129 0.29 0.078 0.137 0.17 0.256 0.278 0.356 -0.132 0.071 -0.248 0.151 -0.356 0.258 -0.115 0.115 -0.207 0.242 -0.278 0.376 -0.102 -0.11 -0.205 -0.215 -0.341 -0.293 -0.137 -0.081 -0.29 -0.129 -0.436 -0.161 0.078 -0.127 0.154 -0.256 0.197 -0.405 0.041 -0.154 0.051 -0.302 0.049 -0.454" style="fill:#efe545"/><path d="m 17.237 29.08 c 0.646 0.173 1.029 0.837 0.856 1.48 -0.173 0.644 -0.837 1.027 -1.48 0.853 -0.646 -0.17 -1.027 -0.834 -0.856 -1.48 0.173 -0.644 0.837 -1.027 1.48 -0.853" style="fill:url(#0)"/></g></g></svg>