<svg xmlns="http://www.w3.org/2000/svg" viewBox="0 0 256 256"><path d="M 46.350123,228.11 C 199.90013,346.74 359.30012,51.310003 169.20013,8.1100034 49.480123,-36.159997 -67.439877,140.2 46.350123,228.11 z" style="fill:#4682b4;color:#000"/><g transform="matrix(0 -1 -1 0 210.10496 232.3525)"><path d="M 58.395989,111.23503 C 47.852558,98.440364 43.498329,77.596067 47.714539,60.101466 50.563922,48.278326 54.764898,40.529048 63.218901,31.501507 86.22584,6.9337416 121.6862,6.9864846 144.77146,31.622804 c 10.92209,11.655933 16.15552,25.518959 16.15552,42.794949 0,14.883011 -4.32861,28.024057 -12.29041,37.311957 l -3.18113,3.71097 -41.7969,0 -41.7969,0 -3.465651,-4.20565 z" style="fill:#fff"/><path d="m 50.272758,95.487257 c 0,19.306213 16.113848,37.383393 38.301975,42.968773 4.630567,1.16566 9.127662,1.47319 17.962217,1.22834 11.13587,-0.30862 12.22562,-0.51668 19.7806,-3.77653 17.54764,-7.57149 28.57811,-20.72729 30.88309,-36.833551 0.39623,-2.768727 0.40329,-5.906412 0.0157,-6.97261 -0.70454,-1.937957 -0.7215,-1.938564 -53.82418,-1.938564 H 50.272758 v 5.324142 z" style="fill:#c0c0c0"/></g></svg>