<svg xmlns="http://www.w3.org/2000/svg" xmlns:xlink="http://www.w3.org/1999/xlink" viewBox="0 0 256 256"><defs><path id="0" d="m 153.54 78.21 c 0 12.274 -9.95 22.22 -22.22 22.22 -12.274 0 -22.22 -9.95 -22.22 -22.22 0 -12.274 9.95 -22.22 22.22 -22.22 12.274 0 22.22 9.95 22.22 22.22 z" style="fill:#ff4500;color:#000"/><use id="1" xlink:href="#0"/></defs><g transform="matrix(0 -0.98729 0.99573 0 -0.64454179 254.11238)" style="fill:#daa520"><use xlink:href="#1" transform="translate(15.781 13.13)" width="1" height="1"/><use xlink:href="#1" transform="translate(18.424 91.18)" width="1" height="1"/><use xlink:href="#1" transform="translate(-66.794 48.49)" width="1" height="1"/><path d="m 20.935 850.74 c -127.95 190.94 280.09 308.54 226.07 61.711 -23.02 -102.01 -167.39 -163.91 -226.07 -61.711 z" transform="translate(4.323 -795.63)" style="color:#000"/></g><g style="fill:#fff;fill-rule:evenodd"><path d="m 69.631492,184.36127 -3.537379,-3.35614 -0.736418,-54.14546 -0.736417,-54.14546 3.919143,-4.040025 3.919143,-4.040026 59.651356,-9.1e-4 59.65137,-9.11e-4 3.50824,3.332261 3.50826,3.332261 0.71754,53.41113 c 0.51856,38.60001 0.39948,54.09561 -0.42942,55.87944 -0.63083,1.35759 -2.38424,3.39111 -3.89646,4.51895 -2.66511,1.98768 -4.57971,2.05922 -62.37554,2.33083 l -59.626039,0.2802 -3.537379,-3.35614 z m 117.057298,-8.54418 c 1.22953,-0.43582 1.33762,-7.80827 0.72484,-49.43318 -0.39612,-26.906533 -1.07362,-49.274373 -1.50555,-49.706309 -0.43193,-0.431934 -24.98107,-0.665827 -54.55365,-0.519761 l -53.768311,0.265575 0.262536,49.214925 c 0.144395,27.06821 0.431462,49.67632 0.637928,50.24024 0.38154,1.04211 105.256917,0.9825 108.202207,-0.0615 l 0,3e-5 z"/><path d="m 103.08207 170.12072 c -0.6733 -0.84638 -1.41362 -9.46295 -1.83397 -21.34539 -0.38768 -10.95934 -0.93751 -20.30249 -1.22185 -20.76255 -0.28433 -0.46006 -4.426031 -0.83647 -9.203778 -0.83647 -10.976554 0 -12.033819 -1.41697 -5.438506 -7.28881 2.478237 -2.20639 5.730164 -4.68756 7.226503 -5.51372 1.49634 -0.82616 3.716753 -3.11389 4.934249 -5.08384 1.217497 -1.96995 5.760592 -6.42088 10.095772 -9.890942 4.33517 -3.470066 11.25477 -9.487807 15.37688 -13.372757 6.68778 -6.303011 7.66163 -6.896661 9.04471 -5.513581 0.85248 0.852481 1.92341 1.549965 2.37985 1.549965 0.45644 0 5.38343 4.056986 10.94886 9.015526 5.56543 4.958539 11.96452 10.610569 14.22021 12.560059 2.25568 1.94949 6.05439 5.50544 8.44156 7.90211 2.38718 2.39666 4.69413 4.3699 5.12656 4.38498 0.43243 0.0151 2.82847 1.89848 5.32454 4.18535 5.75157 5.26951 4.80276 6.00362 -7.78671 6.02465 -5.17015 0.009 -10.13009 0.29576 -11.0221 0.63805 -1.40354 0.53859 -1.62182 3.36257 -1.62182 20.9828 0 19.99697 -0.0407 20.38224 -2.28116 21.58129 -1.50009 0.80282 -10.72121 1.38891 -26.93093 1.71172 -20.20475 0.40235 -24.85339 0.23493 -25.77887 -0.92844 z m 33.81823 -29.65294 c 6.56331 -2.90327 9.89431 -7.54237 9.89431 -13.77989 0 -4.8351 -3.09009 -11.81531 -5.23055 -11.81531 -0.52914 0 -2.78929 -1.15348 -5.02256 -2.56328 -4.4372 -2.80108 -10.35257 -3.37632 -12.17229 -1.18369 -0.62972 0.75877 -2.92687 2.18312 -5.10477 3.16522 -6.71072 3.02611 -9.78335 13.50846 -5.27978 18.01203 1.12784 1.12785 2.05062 2.44927 2.05062 2.93649 0 0.93866 6.63045 5.68744 9.2278 6.60903 3.13897 1.11377 7.0462 0.65022 11.63722 -1.3806 z"/><path d="m 120.44899 129.20871 c -4.54202 -4.91272 -1.74696 -7.10497 9.09477 -7.13328 4.62193 -0.012 8.97144 0.0206 9.6656 0.0725 0.69414 0.0519 1.26207 1.38199 1.26207 2.95572 0 3.98498 -1.57114 4.75098 -8.87052 4.32471 -4.24809 -0.52629 -8.75591 2.33079 -11.15192 -0.2196 z"/></g></svg>