<svg xmlns="http://www.w3.org/2000/svg" viewBox="0 0 256 256"><defs><clipPath><g transform="translate(0 -1004.36)"><rect fill="#1890d0" width="46" height="46" x="1" y="1005.36" rx="4"/></g></clipPath><clipPath><g transform="translate(0 -1004.36)"><rect fill="#1890d0" width="46" height="46" x="1" y="1005.36" rx="4"/></g></clipPath><clipPath id="0"><path fill="#1890d0" transform="matrix(15.33333 0 0 11.5 415 -125.5)" d="m -24 13 c 0 1.105 -0.672 2 -1.5 2 -0.828 0 -1.5 -0.895 -1.5 -2 0 -1.105 0.672 -2 1.5 -2 0.828 0 1.5 0.895 1.5 2 z"/></clipPath><clipPath><path fill="#1890d0" transform="matrix(15.33333 0 0 11.5 415 -125.5)" d="m -24 13 c 0 1.105 -0.672 2 -1.5 2 -0.828 0 -1.5 -0.895 -1.5 -2 0 -1.105 0.672 -2 1.5 -2 0.828 0 1.5 0.895 1.5 2 z"/></clipPath><clipPath><path fill="#1890d0" transform="matrix(15.33333 0 0 11.5 415 -125.5)" d="m -24 13 c 0 1.105 -0.672 2 -1.5 2 -0.828 0 -1.5 -0.895 -1.5 -2 0 -1.105 0.672 -2 1.5 -2 0.828 0 1.5 0.895 1.5 2 z"/></clipPath><clipPath><path fill="#1890d0" transform="matrix(15.33333 0 0 11.5 415 -125.5)" d="m -24 13 c 0 1.105 -0.672 2 -1.5 2 -0.828 0 -1.5 -0.895 -1.5 -2 0 -1.105 0.672 -2 1.5 -2 0.828 0 1.5 0.895 1.5 2 z"/></clipPath><clipPath><path fill="#1890d0" transform="matrix(15.33333 0 0 11.5 415 -125.5)" d="m -24 13 c 0 1.105 -0.672 2 -1.5 2 -0.828 0 -1.5 -0.895 -1.5 -2 0 -1.105 0.672 -2 1.5 -2 0.828 0 1.5 0.895 1.5 2 z"/></clipPath><clipPath><g transform="translate(0 -1004.36)"><rect fill="#1890d0" width="46" height="46" x="1" y="1005.36" rx="4"/></g></clipPath><clipPath><g transform="translate(0 -1004.36)"><rect fill="#1890d0" width="46" height="46" x="1" y="1005.36" rx="4"/></g></clipPath><clipPath><g transform="translate(0 -1004.36)"><rect fill="#1890d0" width="46" height="46" x="1" y="1005.36" rx="4"/></g></clipPath><clipPath><g transform="translate(0 -1004.36)"><rect fill="#1890d0" width="46" height="46" x="1" y="1005.36" rx="4"/></g></clipPath><clipPath><g transform="translate(0 -1004.36)"><rect fill="#1890d0" width="46" height="46" x="1" y="1005.36" rx="4"/></g></clipPath><clipPath><g transform="translate(0 -1004.36)"><rect fill="#1890d0" width="46" height="46" x="1" y="1005.36" rx="4"/></g></clipPath><clipPath><g transform="translate(0 -1004.36)"><rect fill="#1890d0" width="46" height="46" x="1" y="1005.36" rx="4"/></g></clipPath><clipPath><g transform="translate(0 -1004.36)"><rect fill="#1890d0" width="46" height="46" x="1" y="1005.36" rx="4"/></g></clipPath><clipPath><g transform="translate(0 -1004.36)"><rect fill="#1890d0" width="46" height="46" x="1" y="1005.36" rx="4"/></g></clipPath><clipPath><g transform="translate(0 -1004.36)"><rect fill="#1890d0" width="46" height="46" x="1" y="1005.36" rx="4"/></g></clipPath><clipPath><g transform="translate(0 -1004.36)"><rect fill="#1890d0" width="46" height="46" x="1" y="1005.36" rx="4"/></g></clipPath><clipPath><path fill="#1890d0" transform="matrix(15.33333 0 0 11.5 415 -125.5)" d="m -24 13 c 0 1.105 -0.672 2 -1.5 2 -0.828 0 -1.5 -0.895 -1.5 -2 0 -1.105 0.672 -2 1.5 -2 0.828 0 1.5 0.895 1.5 2 z"/></clipPath><clipPath><g transform="translate(0 -1004.36)"><rect fill="#1890d0" width="46" height="46" x="1" y="1005.36" rx="4"/></g></clipPath><clipPath><path fill="#1890d0" transform="matrix(15.33333 0 0 11.5 415 -125.5)" d="m -24 13 c 0 1.105 -0.672 2 -1.5 2 -0.828 0 -1.5 -0.895 -1.5 -2 0 -1.105 0.672 -2 1.5 -2 0.828 0 1.5 0.895 1.5 2 z"/></clipPath><clipPath><g transform="translate(0 -1004.36)"><rect width="46" height="46" x="1" y="1005.36" rx="4" fill="#1890d0"/></g></clipPath><clipPath><path fill="#1890d0" transform="matrix(15.33333 0 0 11.5 415 -125.5)" d="m -24 13 c 0 1.105 -0.672 2 -1.5 2 -0.828 0 -1.5 -0.895 -1.5 -2 0 -1.105 0.672 -2 1.5 -2 0.828 0 1.5 0.895 1.5 2 z"/></clipPath><clipPath><g transform="translate(0 -1004.36)"><rect width="46" height="46" x="1" y="1005.36" rx="4" fill="#1890d0"/></g></clipPath><clipPath><g transform="translate(0 -1004.36)"><rect fill="#1890d0" width="46" height="46" x="1" y="1005.36" rx="4"/></g></clipPath><clipPath><g transform="translate(0 -1004.36)"><rect fill="#1890d0" width="46" height="46" x="1" y="1005.36" rx="4"/></g></clipPath><clipPath><g transform="translate(0 -1004.36)"><rect fill="#1890d0" width="46" height="46" x="1" y="1005.36" rx="4"/></g></clipPath><clipPath><g transform="translate(0 -1004.36)"><rect fill="#1890d0" width="46" height="46" x="1" y="1005.36" rx="4"/></g></clipPath><clipPath><g transform="translate(0 -1004.36)"><rect fill="#1890d0" width="46" height="46" x="1" y="1005.36" rx="4"/></g></clipPath><clipPath><g transform="translate(0 -1004.36)"><rect fill="#1890d0" width="46" height="46" x="1" y="1005.36" rx="4"/></g></clipPath><clipPath><g transform="translate(0 -1004.36)"><rect fill="#1890d0" width="46" height="46" x="1" y="1005.36" rx="4"/></g></clipPath><clipPath><g transform="translate(0 -1004.36)"><rect fill="#1890d0" width="46" height="46" x="1" y="1005.36" rx="4"/></g></clipPath><clipPath><g transform="translate(0 -1004.36)"><rect fill="#1890d0" width="46" height="46" x="1" y="1005.36" rx="4"/></g></clipPath><clipPath><g transform="translate(0 -1004.36)"><rect fill="#1890d0" width="46" height="46" x="1" y="1005.36" rx="4"/></g></clipPath><clipPath><g transform="translate(0 -1004.36)"><rect fill="#1890d0" width="46" height="46" x="1" y="1005.36" rx="4"/></g></clipPath><clipPath><g transform="translate(0 -1004.36)"><rect fill="#1890d0" width="46" height="46" x="1" y="1005.36" rx="4"/></g></clipPath><clipPath><g transform="translate(0 -1004.36)"><rect fill="#1890d0" width="46" height="46" x="1" y="1005.36" rx="4"/></g></clipPath><clipPath><g transform="translate(0 -1004.36)"><rect fill="#1890d0" width="46" height="46" x="1" y="1005.36" rx="4"/></g></clipPath><clipPath><g transform="translate(0 -1004.36)"><rect fill="#1890d0" width="46" height="46" x="1" y="1005.36" rx="4"/></g></clipPath><clipPath><g transform="translate(0 -1004.36)"><rect fill="#1890d0" width="46" height="46" x="1" y="1005.36" rx="4"/></g></clipPath><clipPath><g transform="translate(0 -1004.36)"><rect fill="#1890d0" width="46" height="46" x="1" y="1005.36" rx="4"/></g></clipPath><clipPath><g transform="translate(0 -1004.36)"><rect fill="#1890d0" width="46" height="46" x="1" y="1005.36" rx="4"/></g></clipPath><clipPath><g transform="translate(0 -1004.36)"><rect fill="#1890d0" width="46" height="46" x="1" y="1005.36" rx="4"/></g></clipPath><clipPath><g transform="translate(0 -1004.36)"><rect fill="#1890d0" width="46" height="46" x="1" y="1005.36" rx="4"/></g></clipPath><clipPath><g transform="translate(0 -1004.36)"><rect fill="#1890d0" width="46" height="46" x="1" y="1005.36" rx="4"/></g></clipPath><clipPath><g transform="translate(0 -1004.36)"><rect fill="#1890d0" width="46" height="46" x="1" y="1005.36" rx="4"/></g></clipPath><clipPath><g transform="translate(0 -1004.36)"><rect fill="#1890d0" width="46" height="46" x="1" y="1005.36" rx="4"/></g></clipPath><clipPath><g transform="translate(0 -1004.36)"><rect fill="#1890d0" width="46" height="46" x="1" y="1005.36" rx="4"/></g></clipPath><clipPath><g transform="translate(0 -1004.36)"><rect fill="#1890d0" width="46" height="46" x="1" y="1005.36" rx="4"/></g></clipPath><clipPath><g transform="translate(0 -1004.36)"><rect fill="#1890d0" width="46" height="46" x="1" y="1005.36" rx="4"/></g></clipPath><clipPath><g transform="translate(0 -1004.36)"><rect fill="#1890d0" width="46" height="46" x="1" y="1005.36" rx="4"/></g></clipPath><clipPath><g transform="translate(0 -1004.36)"><rect fill="#1890d0" width="46" height="46" x="1" y="1005.36" rx="4"/></g></clipPath><clipPath><g transform="translate(0 -1004.36)"><rect fill="#1890d0" width="46" height="46" x="1" y="1005.36" rx="4"/></g></clipPath><clipPath><g transform="translate(0 -1004.36)"><rect fill="#1890d0" width="46" height="46" x="1" y="1005.36" rx="4"/></g></clipPath><clipPath><g transform="translate(0 -1004.36)"><rect fill="#1890d0" width="46" height="46" x="1" y="1005.36" rx="4"/></g></clipPath><clipPath><g transform="translate(0 -1004.36)"><rect fill="#1890d0" width="46" height="46" x="1" y="1005.36" rx="4"/></g></clipPath><clipPath><g transform="translate(0 -1004.36)"><rect fill="#1890d0" width="46" height="46" x="1" y="1005.36" rx="4"/></g></clipPath><clipPath><g transform="translate(0 -1004.36)"><rect fill="#1890d0" width="46" height="46" x="1" y="1005.36" rx="4"/></g></clipPath><clipPath><g transform="translate(0 -1004.36)"><rect fill="#1890d0" width="46" height="46" x="1" y="1005.36" rx="4"/></g></clipPath><clipPath><g transform="translate(0 -1004.36)"><rect fill="#1890d0" width="46" height="46" x="1" y="1005.36" rx="4"/></g></clipPath><clipPath><g transform="translate(0 -1004.36)"><rect fill="#1890d0" width="46" height="46" x="1" y="1005.36" rx="4"/></g></clipPath><clipPath><g transform="translate(0 -1004.36)"><rect fill="#1890d0" width="46" height="46" x="1" y="1005.36" rx="4"/></g></clipPath><clipPath><g transform="translate(0 -1004.36)"><rect fill="#1890d0" width="46" height="46" x="1" y="1005.36" rx="4"/></g></clipPath><clipPath><g transform="translate(0 -1004.36)"><rect fill="#1890d0" width="46" height="46" x="1" y="1005.36" rx="4"/></g></clipPath><clipPath><g transform="translate(0 -1004.36)"><rect fill="#1890d0" width="46" height="46" x="1" y="1005.36" rx="4"/></g></clipPath><clipPath><g transform="translate(0 -1004.36)"><rect fill="#1890d0" width="46" height="46" x="1" y="1005.36" rx="4"/></g></clipPath><clipPath><g transform="translate(0 -1004.36)"><rect fill="#1890d0" width="46" height="46" x="1" y="1005.36" rx="4"/></g></clipPath><clipPath><g transform="translate(0 -1004.36)"><rect fill="#1890d0" width="46" height="46" x="1" y="1005.36" rx="4"/></g></clipPath></defs><g transform="translate(0 -796.36)"><path d="m -1374.42 1658.71 c 127.95 -192.46 -280.09 -311 -226.07 -62.2 23.02 102.82 167.39 165.22 226.07 62.2 z" color="#000" transform="matrix(-1 0 0 -1 -1349.34 2507.85)" fill="#191970"/><g clip-path="url(#0)" fill="#fff" transform="matrix(6.177 0 0 6.4363 -18.95 767.08)"><path d="m 23.938,13 c 0,0 -1.246,3.188 -1.246,11.09 0.125,7.906 1.125,10.84 1.125,10.84 0,0 0.992,-1.785 1.246,-10.965 0.125,-9.05 -1.125,-10.969 -1.125,-10.969 m -4.082,4.02 c 0,0 -8.73,3.059 -8.852,7.648 -0.125,4.594 8.977,5.863 8.977,5.863 l 1.121,4.465 0.5,-6.629 c 0,0 -8.109,0 -7.98,-3.578 0.125,-3.578 6.234,-7.777 6.234,-7.777 m 8.289,0.008 c 0,0 6.113,4.207 6.234,7.777 0.125,3.578 -7.977,3.578 -7.977,3.578 l 0.5,6.629 1.121,-4.465 c 0,0 9.102,-1.273 8.98,-5.863 -0.125,-4.594 -8.855,-7.652 -8.855,-7.652 m -0.004,-0.004" fill="#fff" fill-rule="evenodd"/></g></g></svg>