<svg xmlns="http://www.w3.org/2000/svg" viewBox="0 0 256 256"><path d="M 226.22,46.721084 C 288.49,142.48108 238.25,229.72108 167.75,250.41108 72.92,278.25408 -55.84,205.09108 29,54.311084 c 33.72,-59.9250001 152.85,-75.79 197.21,-7.587 z" style="fill:#e5e5e5;color:#000"/><g transform="matrix(4.5813498 0 0 4.2310483 18.413031 28.830185)"><path d="m 22,10 0,6 6,0 0,-6 -6,0 z m -5.484,2.271 -4.244,4.244 4.244,4.242 4.242,-4.242 -4.242,-4.244 z m 16.969,0 -4.242,4.244 4.242,4.242 4.244,-4.242 -4.244,-4.244 z M 21.001,21 l 0,8 8,0 0,-8 -8,0 z m -11,1 0,6 6,0 0,-6 -6,0 z m 24,0 0,6 6,0 0,-6 -6,0 z m -17.484,7.242 -4.244,4.242 4.244,4.244 4.242,-4.244 -4.242,-4.242 z m 16.969,0 -4.242,4.242 4.242,4.244 4.244,-4.244 -4.244,-4.242 z M 22.002,34 l 0,6 6,0 0,-6 -6,0 z" style="opacity:0.1"/><g><path d="M 20,20 H28 V28 H20 z" style="fill:#666db2"/><path d="M 9,21 H15 V27 H9 z" style="fill:#56c256"/><path d="M 33,21 H39 V27 H33 z" style="fill:#b7619d"/><path d="M 21,33 H27 V39 H21 z" style="fill:#ba5e5e"/><path d="M 21,9 H27 V15 H21 z" style="fill:#cacb4d"/><g transform="matrix(0.70710678 0.70710678 -0.70710678 0.70710678 0 0)"><path d="m 18.941 -3 h 6 v 6 h -6 z" style="fill:#61b6b7"/><path d="m 42.941 -3 h 6 v 6 h -6 z" style="fill:#7eba5e"/><path d="m 30.941 9 h 6 v 6 h -6 z" style="fill:#cf8b49"/><path d="m 30.941 -15 h 6 v 6 h -6 z" style="fill:#905fcd"/></g></g></g></svg>