<svg xmlns="http://www.w3.org/2000/svg" viewBox="0 0 256 256"><defs><clipPath id="0"><path d="m -24 13 c 0 1.105 -0.672 2 -1.5 2 -0.828 0 -1.5 -0.895 -1.5 -2 0 -1.105 0.672 -2 1.5 -2 0.828 0 1.5 0.895 1.5 2 z" transform="matrix(15.33333 0 0 11.5 415 -125.5)"/></clipPath></defs><g transform="translate(0 -796.36)" style="color:#000"><path d="m -2.895 983.77 c -201.82 -266.38 353.59 -304.22 175.35 -32.31 -40.634 61.991 -121.89 102.86 -175.35 32.31 z" transform="matrix(0 -0.99576 0.99153 0 -756.79 1004.29)" style="fill:#add8e6;color:#000"/><g transform="matrix(7.75416 0 0 6.19945 -40.41 806.39)" style="clip-path:url(#0);fill:#2f4f4f"><path d="m 13.797 9.965 v 19.246 h 4.137 v -6.417 h 1.379 l 4.137 6.417 h 4.137 l -4.137 -6.417 l -0.302 -0.441 c 2.586 -0.923 4.434 -3.238 4.434 -5.976 0 -3.54 -3.086 -6.412 -6.896 -6.412 m -2.753 3.85 h 2.753 c 1.524 0 2.758 1.149 2.758 2.562 0 1.423 -1.238 2.567 -2.758 2.567 h -2.753 v -5.134"/></g></g></svg>