<svg xmlns="http://www.w3.org/2000/svg" viewBox="0 0 256 256"><path d="M 233.02234,52.918307 C 184.58618,-35.138268 32.825641,-0.96164679 7.1512098,71.540664 -23.442575,157.90884 56.185084,321.93344 191.05317,225.84447 c 45.42869,-33.5532 90.40434,-84.86858 41.9592,-172.926163 z" style="fill:#bdb76b;color:#000"/><g style="fill:#fff;fill-rule:evenodd"><path d="m 68.038686,155.74665 0,-31.44036 56.509374,0 56.50939,0 -0.11499,31.44036 -0.11498,31.44034 -56.39441,0 -56.394421,0 0,-31.44034 z"/><path d="m 74.547539,79.987486 -7.524192,-8.981384 15.76024,0 15.760239,0 -7.897575,9.084199 c -4.34367,4.996311 -8.04989,9.037934 -8.236048,8.981384 -0.186162,-0.05656 -3.724356,-4.144439 -7.862664,-9.084199 z"/><path d="m 116.3791,79.987486 -7.52419,-8.981384 15.76023,0 15.76025,0 -7.89758,9.084199 c -4.34367,4.996311 -8.0499,9.037934 -8.23604,8.981384 -0.18618,-0.05656 -3.72437,-4.144439 -7.86267,-9.084199 z"/><path d="m 156.87818,80.01522 -7.52419,-8.981383 15.76024,0 15.76024,0 -7.89757,9.084199 c -4.34367,4.99631 -8.04991,9.037934 -8.23606,8.981383 -0.18617,-0.05655 -3.72436,-4.144439 -7.86266,-9.084199 z"/></g></svg>