<svg xmlns="http://www.w3.org/2000/svg" viewBox="0 0 256 256"><g transform="translate(0 -796.36)"><path d="m -1374.42 1658.71 c 127.95 -192.46 -280.09 -311 -226.07 -62.2 23.02 102.82 167.39 165.22 226.07 62.2 z" transform="matrix(0 1 -1 0 1711.48 2401.81)" style="fill:#0083d7;color:#000"/><path d="m 108.34 1003.55 c -19.591 -5.389 -38.995 -21.569 -48.19 -40.18 -14.771 -29.894 -10.29 -66.26 11.07 -89.83 24.644 -27.19 59.792 -34.837 91.85 -19.991 l 8.08 3.743 l 4.03 -2.505 c 7.584 -4.711 7.77 -4.493 10.373 12.141 2.108 13.473 1.821 19.719 -0.903 19.699 -3.417 -0.025 -37.907 -7.535 -38.803 -8.449 -0.429 -0.438 0.593 -2.288 2.271 -4.112 3.63 -3.946 2.796 -5.03 -5.446 -7.07 -22.03 -5.446 -49.36 5.115 -60.759 23.474 l -3.707 5.97 l 6.107 6.333 c 3.359 3.483 6.756 6.333 7.549 6.333 0.793 0 9.122 -7.457 18.51 -16.572 11.847 -11.503 17.605 -16.253 18.823 -15.528 0.965 0.574 11.788 11.6 24.05 24.502 l 22.295 23.458 h 15.232 c 18.04 0 18.917 0.526 17.609 10.596 -3.133 24.12 -19.257 48.583 -39.908 60.55 -11.862 6.871 -22.708 9.485 -38.952 9.387 -8.05 -0.049 -17.409 -0.909 -21.18 -1.947 z m 26.704 -18.555 c 1.132 -1.157 -61.11 -65.31 -63.37 -65.31 -1.615 0 -1.498 12.349 0.187 19.824 5.204 23.08 25.821 42.685 48.51 46.14 6.955 1.058 13.266 0.779 14.663 -0.649 z m 31.493 -11.186 c 6.967 -4.714 17.741 -20 18.15 -25.766 l 0.281 -3.912 l -28.78 0.1 c -15.829 0.055 -29.19 0.521 -29.696 1.036 -1.27 1.298 29.485 32.564 32.03 32.564 1.135 0 4.738 -1.81 8.01 -4.02 z m -19.95 -50.09 c -0.911 -2.646 -25.938 -29.14 -27.526 -29.14 -0.921 0 -6.178 4.815 -11.683 10.7 l -10.01 10.7 l 4.268 4.498 l 4.268 4.498 h 20.557 c 12.389 0 20.385 -0.498 20.13 -1.252 z" style="fill:#fff"/></g></svg>