<svg xmlns="http://www.w3.org/2000/svg" xmlns:xlink="http://www.w3.org/1999/xlink" viewBox="0 0 256 256"><defs><path id="U" d="m 12.994 85.3 a 1.316 1.316 0 1 1 0 0"/><path id="V" d="m 23.13 68.69 a 1.456 5.909 0 1 1 0 -0.002"/><path id="W" d="m 83.8 34.01 a 17.743 2.535 0 1 1 0 -0.001"/><clipPath><rect x="6" y="6" width="84" height="84" rx="6" style="fill:#fff"/></clipPath><clipPath><rect x="6" y="6" width="84" height="84" rx="6" style="fill:#fff"/></clipPath><clipPath><rect width="46" height="46" x="1" y="0.998" rx="4" style="fill:#1890d0;stroke-width:1"/></clipPath><filter style="color-interpolation-filters:sRGB"><feGaussianBlur stdDeviation="1.71"/></filter><filter x="-0.192" y="-0.192" width="1.384" height="1.384" style="color-interpolation-filters:sRGB"><feGaussianBlur stdDeviation="5.28"/></filter><linearGradient x1="60.832" y1="42.614" gradientTransform="matrix(0.33034 0.32436 -0.64603 0.65793 67.03 -8.07)" x2="65.58" gradientUnits="userSpaceOnUse" xlink:href="#S" y2="81.58" id="O"/><linearGradient id="R"><stop style="stop-color:#f3f0dd"/><stop offset="1" style="stop-color:#f3f0dd;stop-opacity:0"/></linearGradient><linearGradient x1="60.832" y1="42.614" gradientTransform="matrix(0.07659 -0.68402 0.73029 0.07174 20.236 78.72)" x2="65.58" gradientUnits="userSpaceOnUse" xlink:href="#S" y2="81.58" id="N"/><linearGradient x1="29.1" y1="66.09" gradientTransform="matrix(1.0572 -0.08905 0.08797 0.93852 -7.14 7.126)" x2="25.651" gradientUnits="userSpaceOnUse" y2="68.99" id="L"><stop style="stop-color:#ddd6b9"/><stop offset="1" style="stop-color:#332e14"/></linearGradient><linearGradient x1="60.832" y1="42.614" gradientTransform="matrix(-0.82693 0.16038 -0.10602 -0.75328 108.43 64.78)" x2="65.58" gradientUnits="userSpaceOnUse" xlink:href="#S" y2="81.58" id="M"/><linearGradient x1="60.832" y1="42.614" gradientTransform="matrix(-0.49547 0.72396 -0.61304 -0.49243 109.01 18.583)" x2="65.58" gradientUnits="userSpaceOnUse" xlink:href="#S" y2="81.58" id="P"/><linearGradient id="Q"><stop style="stop-color:#faf8f1"/><stop offset="1" style="stop-color:#faf8f1;stop-opacity:0"/></linearGradient><linearGradient gradientUnits="userSpaceOnUse" y1="20.221" x2="0" y2="138.66" xlink:href="#6"/><linearGradient id="S"><stop style="stop-color:#f5eddc"/><stop offset="1" style="stop-color:#f5eddc;stop-opacity:0"/></linearGradient><linearGradient xlink:href="#S" id="T" gradientUnits="userSpaceOnUse" gradientTransform="matrix(-0.37973 0.79746 0.69994 0.34136 48.746 -17.648)" x1="60.832" y1="42.614" x2="65.58" y2="81.58"/><linearGradient gradientUnits="userSpaceOnUse" gradientTransform="scale(1.0059 0.99417)" y1="92.54" x2="0" y2="7.02"><stop/><stop offset="1" style="stop-opacity:0.588"/></linearGradient><linearGradient x1="30.928" y1="63.14" gradientTransform="matrix(1.0713 -0.09111 0.08915 0.96023 -8.698 6.923)" x2="80.5" gradientUnits="userSpaceOnUse" y2="15.13" id="H"><stop style="stop-color:#3c3824"/><stop offset="1" style="stop-color:#867c4f;stop-opacity:0"/></linearGradient><linearGradient x1="14.674" y1="78.61" gradientTransform="matrix(0.86291 0 0 0.53386 7.629 31.919)" x2="16.282" gradientUnits="userSpaceOnUse" xlink:href="#R" y2="80.26" id="A"/><linearGradient x1="14.674" y1="78.61" gradientTransform="matrix(0.86291 0 0 0.53386 6.621 33.09)" x2="16.282" gradientUnits="userSpaceOnUse" xlink:href="#R" y2="80.26" id="B"/><linearGradient x1="14.674" y1="78.61" gradientTransform="matrix(0.86291 0 0 0.53386 8.619 30.771)" x2="16.282" gradientUnits="userSpaceOnUse" xlink:href="#R" y2="80.26" id="9"/><linearGradient x1="14.674" y1="78.61" gradientTransform="matrix(0.86291 0 0 0.53386 10.837 28.16)" x2="16.282" gradientUnits="userSpaceOnUse" xlink:href="#R" y2="80.26" id="2"/><linearGradient x1="14.674" y1="78.61" gradientTransform="matrix(0.86291 0 0 0.53386 11.886 26.909)" x2="16.282" gradientUnits="userSpaceOnUse" xlink:href="#R" y2="80.26" id="1"/><linearGradient x1="14.674" y1="78.61" gradientTransform="matrix(0.86291 0 0 0.53386 3.738 36.473)" x2="16.282" gradientUnits="userSpaceOnUse" xlink:href="#R" y2="80.26" id="7"/><linearGradient x1="14.674" y1="78.61" gradientTransform="matrix(0.86291 0 0 0.53386 9.708 29.503)" x2="16.282" gradientUnits="userSpaceOnUse" xlink:href="#R" y2="80.26" id="8"/><linearGradient x1="10.343" y1="86.52" x2="10.805" gradientUnits="userSpaceOnUse" y2="86" id="F"><stop/><stop offset="1" style="stop-color:#453f1a"/></linearGradient><linearGradient x1="15.275" y1="79.16" gradientTransform="matrix(0.98937 0 0 0.93045 0.192 5.445)" x2="16.971" gradientUnits="userSpaceOnUse" xlink:href="#R" y2="80.85" id="E"/><linearGradient x1="14.95" y1="78.83" gradientTransform="matrix(0.86291 0 0 0.53386 5.641 34.24)" x2="16.282" gradientUnits="userSpaceOnUse" xlink:href="#R" y2="80.26" id="C"/><linearGradient x1="14.674" y1="78.61" gradientTransform="matrix(0.86291 0 0 0.53386 4.689 35.36)" x2="16.282" gradientUnits="userSpaceOnUse" y2="80.26" id="D"><stop style="stop-color:#fff"/><stop offset="1" style="stop-color:#f3f0dd;stop-opacity:0"/></linearGradient><radialGradient r="1.456" gradientTransform="matrix(1 0 0 4.0577 0 -210.39)" cx="21.675" cy="68.808" gradientUnits="userSpaceOnUse" id="J"><stop style="stop-color:#7d754a"/><stop offset="1" style="stop-color:#7d754a;stop-opacity:0"/></radialGradient><radialGradient r="1.316" cx="11.678" cy="85.33" gradientUnits="userSpaceOnUse" xlink:href="#Q" id="K"/><radialGradient r="3.05" gradientTransform="matrix(1 0 0 1.026 0 -1.756)" cx="27.525" cy="67.6" gradientUnits="userSpaceOnUse" id="0"><stop style="stop-color:#f7f5eb"/><stop offset="1" style="stop-color:#f7f5eb;stop-opacity:0"/></radialGradient><radialGradient r="1.316" cx="12.138" cy="84.73" gradientUnits="userSpaceOnUse" xlink:href="#Q" id="3"/><radialGradient r="1.316" cx="11.678" cy="85.33" gradientUnits="userSpaceOnUse" id="G"><stop style="stop-color:#362f14"/><stop offset="1" style="stop-color:#362f14;stop-opacity:0"/></radialGradient><radialGradient r="1.456" gradientTransform="matrix(1 0 0 4.0577 0 -210.39)" cx="21.675" cy="68.808" gradientUnits="userSpaceOnUse" id="4"><stop style="stop-color:#e3dbb6"/><stop offset="1" style="stop-color:#e3dbb6;stop-opacity:0"/></radialGradient><radialGradient r="1.456" gradientTransform="matrix(1 0 0 4.0577 0 -210.39)" cx="21.675" cy="68.808" gradientUnits="userSpaceOnUse" id="I"><stop style="stop-color:#292000"/><stop offset="1" style="stop-color:#292000;stop-opacity:0"/></radialGradient><radialGradient r="8.289" gradientTransform="matrix(1 0 0 1.0811 0 -3.679)" cx="55.784" cy="45.37" gradientUnits="userSpaceOnUse" id="5"><stop style="stop-color:#f1e8da"/><stop offset="1" style="stop-color:#f1e8da;stop-opacity:0"/></radialGradient><radialGradient r="17.743" gradientTransform="matrix(1 0 0 0.14286 0 29.19)" cx="66.06" cy="34.06" gradientUnits="userSpaceOnUse" id="6"><stop style="stop-color:#fff"/><stop offset="1" style="stop-color:#fff;stop-opacity:0"/></radialGradient></defs><g transform="translate(0 -796.36)"><path d="m 130.27 798.56 c 111.92 -22.351 154.42 130.95 105.92 214.2 -38.644 66.33 -171.02 47.37 -220.37 -42.17 -49.35 -89.54 24.617 -154.09 114.45 -172.03 z" style="fill:#ffa500;color:#000"/><g transform="matrix(-1.77769 0 0 1.72566 228.43 852.76)"><path d="m 55.819 41.534 l 32.828 19.435 l -17.657 21.588 z" style="fill:url(#T)"/><path d="M 55.85,39.515 24.212,18.012 14.229,44.473 z" style="fill:url(#P)"/><path d="m 59.364,37.216 -30.37,33.232 15.679,4.34 z" style="fill:url(#O);opacity:0.757"/><path d="M 54.428,42.859 90.327,43.975 86.434,22.34 z" style="fill:url(#N)"/><path d="M 56.249,40.553 49.144,6.893 38.578,14.464 z" style="fill:url(#M)"/><path d="m 95.83 0.842 l -10.996 9.167 l -51.15 53.43 c 0 0 -1.968 0.861 -2.881 3.098 0 0 -6.204 -3.902 -6.539 -5.269 -0.335 -1.367 -0.797 -1.617 -0.797 -1.617 0 0 0.865 -0.177 0.347 -1.104 -0.518 -0.927 -1.403 -0.976 -1.403 -0.976 l -1.048 0.616 c 0 0 0.413 4.236 5.645 9.523 1.432 1.447 1.782 1.559 1.782 1.559 l -9.71 11.373 l -0.87 -0.862 l -1.056 1.177 l 0.926 0.866 l -3.06 3.173 c 0 0 -1.987 -0.261 -3.209 0.75 -1.355 1.12 -0.952 3.154 -0.228 3.807 0.724 0.653 2.923 0.743 3.988 -0.263 1.435 -1.355 0.56 -3.194 0.56 -3.194 l 3.094 -3.087 l 0.921 0.809 l 1.086 -1.148 l -0.866 -0.806 l 10.56 -10.592 c 0 0 6.278 6.437 8.969 7.03 2.691 0.598 3.486 0.248 2.658 -1.089 -0.532 -0.859 -1.92 0.063 -1.92 0.063 0 0 -7.111 -8.05 -6.899 -8.156 3.045 -1.484 2.925 -2.474 3.21 -2.918 0.432 -0.673 0.866 -1.165 1.942 -2.447 1.059 -1.26 48.796 -51.34 48.796 -51.34 z" style="opacity:0.1"/><path d="m 94.66 0.941 l -10.967 9.167 l -51.02 53.43 c 0 0 -1.963 0.861 -2.873 3.098 0 0 -6.188 -3.902 -6.522 -5.269 -0.335 -1.367 -0.795 -1.617 -0.795 -1.617 0 0 0.863 -0.177 0.346 -1.104 -0.517 -0.927 -1.399 -0.976 -1.399 -0.976 l -1.045 0.616 c 0 0 0.412 4.236 5.63 9.523 1.428 1.447 1.777 1.559 1.777 1.559 l -9.684 11.372 l -0.868 -0.862 l -1.053 1.177 l 0.923 0.866 l -3.052 3.173 c 0 0 -1.981 -0.261 -3.201 0.75 -1.351 1.12 -0.95 3.154 -0.228 3.807 0.722 0.653 2.915 0.743 3.977 -0.263 1.432 -1.355 0.56 -3.194 0.56 -3.194 l 3.086 -3.087 l 0.919 0.809 l 1.083 -1.148 l -0.863 -0.806 l 10.532 -10.592 c 0 0 6.262 6.437 8.945 7.03 2.684 0.598 3.477 0.248 2.651 -1.089 -0.531 -0.859 -1.915 0.063 -1.915 0.063 0 0 -7.092 -8.05 -6.881 -8.156 3.037 -1.484 2.917 -2.474 3.201 -2.918 0.431 -0.673 0.863 -1.165 1.937 -2.447 1.056 -1.261 48.667 -51.34 48.667 -51.34 z" style="opacity:0.2"/><path d="m 93.81 1 l -10.953 9.121 l -50.952 53.16 c 0 0 -1.961 0.857 -2.869 3.083 0 0 -6.179 -3.883 -6.514 -5.243 -0.334 -1.36 -0.794 -1.609 -0.794 -1.609 0 0 0.862 -0.176 0.345 -1.099 -0.516 -0.923 -1.397 -0.971 -1.397 -0.971 l -1.044 0.613 c 0 0 0.411 4.214 5.623 9.475 1.426 1.44 1.775 1.551 1.775 1.551 l -9.672 11.315 l -0.867 -0.858 l -1.051 1.172 l 0.922 0.861 l -3.048 3.157 c 0 0 -1.979 -0.26 -3.197 0.746 -1.35 1.115 -0.949 3.138 -0.227 3.788 0.721 0.65 2.911 0.74 3.972 -0.261 1.429 -1.349 0.558 -3.178 0.558 -3.178 l 3.082 -3.072 l 0.917 0.805 l 1.081 -1.142 l -0.862 -0.802 l 10.518 -10.538 c 0 0 6.253 6.404 8.934 6.999 2.68 0.595 3.473 0.247 2.648 -1.084 -0.53 -0.855 -1.912 0.062 -1.912 0.062 0 0 -7.083 -8.01 -6.872 -8.115 3.033 -1.477 2.913 -2.461 3.197 -2.903 0.431 -0.67 0.862 -1.159 1.934 -2.435 1.054 -1.254 48.603 -51.09 48.603 -51.09 z" style="opacity:0.3"/><path d="m 92.86 1.081 l -10.924 9.07 l -50.816 52.856 c 0 0 -1.956 0.852 -2.862 3.065 0 0 -6.163 -3.861 -6.496 -5.213 -0.333 -1.352 -0.791 -1.599 -0.791 -1.599 0 0 0.859 -0.175 0.344 -1.093 -0.515 -0.917 -1.393 -0.966 -1.393 -0.966 l -1.041 0.61 c 0 0 0.41 4.19 5.608 9.421 1.422 1.432 1.77 1.542 1.77 1.542 l -9.646 11.251 l -0.865 -0.853 l -1.049 1.165 l 0.92 0.856 l -3.04 3.139 c 0 0 -1.973 -0.258 -3.188 0.742 -1.346 1.108 -0.946 3.12 -0.227 3.766 0.719 0.646 2.903 0.735 3.962 -0.26 1.426 -1.341 0.557 -3.159 0.557 -3.159 l 3.074 -3.054 l 0.915 0.8 l 1.078 -1.135 l -0.86 -0.797 l 10.49 -10.479 c 0 0 6.237 6.368 8.91 6.96 2.673 0.591 3.463 0.246 2.641 -1.078 -0.528 -0.85 -1.907 0.062 -1.907 0.062 0 0 -7.06 -7.967 -6.854 -8.07 3.03 -1.469 2.905 -2.447 3.189 -2.887 0.429 -0.666 0.86 -1.153 1.929 -2.421 1.052 -1.247 48.47 -50.796 48.47 -50.796 z" style="opacity:0.4"/><path d="m 91.34 0.978 l -10.815 9.02 l -50.31 52.56 c 0 0 -1.936 0.847 -2.833 3.048 0 0 -6.102 -3.839 -6.432 -5.183 -0.33 -1.344 -0.784 -1.59 -0.784 -1.59 0 0 0.851 -0.174 0.341 -1.086 -0.51 -0.912 -1.38 -0.96 -1.38 -0.96 l -1.031 0.606 c 0 0 0.406 4.166 5.552 9.368 1.408 1.423 1.753 1.533 1.753 1.533 l -9.55 11.187 l -0.856 -0.848 l -1.038 1.158 l 0.91 0.851 l -3.01 3.121 c 0 0 -1.954 -0.257 -3.156 0.738 -1.333 1.102 -0.937 3.103 -0.225 3.745 0.712 0.642 2.874 0.731 3.922 -0.258 1.411 -1.333 0.551 -3.141 0.551 -3.141 l 3.043 -3.037 l 0.906 0.796 l 1.068 -1.129 l -0.851 -0.793 l 10.386 -10.419 c 0 0 6.175 6.332 8.821 6.92 2.646 0.588 3.429 0.244 2.614 -1.071 -0.523 -0.845 -1.888 0.062 -1.888 0.062 0 0 -6.994 -7.921 -6.786 -8.02 2.995 -1.46 2.876 -2.433 3.157 -2.87 0.425 -0.662 0.851 -1.146 1.91 -2.407 1.041 -1.24 47.991 -50.51 47.991 -50.51 z" style="fill:url(#L)"/><use transform="matrix(-0.19066 -0.64972 3.8486 -4.3743 -305.32 455.2)" xlink:href="#U" style="fill:url(#K);opacity:0.986"/><path transform="matrix(0.74561 0.54213 -0.59387 0.7087 45.11 14.607)" d="m 23.13 68.69 a 1.456 5.909 0 1 1 0 -0.002" style="fill:url(#J);opacity:0.652"/><use transform="matrix(0.93528 0.65659 -0.74494 0.85833 60.14 -7.929)" xlink:href="#V" style="fill:url(#I);opacity:0.567"/><use transform="matrix(3.623 -4.0654 0.94842 0.91995 -84.65 26.469)" xlink:href="#U" style="fill:url(#K);opacity:0.871"/><use transform="matrix(1.0148 0.69578 -0.80831 0.90956 67.87 -16.979)" xlink:href="#V" style="fill:url(#I);opacity:0.567"/><use transform="matrix(3.1497 -3.3807 0.82452 0.76502 -73.953 38.27)" xlink:href="#U" style="fill:url(#K);opacity:0.871"/><path d="m 29.481 66.23 l 52.35 -55.2" style="fill:none;stroke:url(#H);stroke-width:0.82"/><use transform="matrix(1.883 0 0 1.6064 -11.893 -50.581)" xlink:href="#U" style="fill:url(#G);opacity:0.89"/><use transform="matrix(1.8085 0 0 1.7234 -10.06 -61.2)" xlink:href="#U" style="fill:url(#K);opacity:0.871"/><path d="m 8.838 84.72 l 3.353 3.036" style="fill:none;stroke:url(#F);stroke-linecap:round;stroke-width:0.634"/><use transform="matrix(1.2107 -1.1761 0.58053 0.41557 -50.793 61.994)" xlink:href="#U" style="fill:url(#K);opacity:0.41"/><path d="m 15 78.62 l -1.066 1.148 l 2.641 2.409 l 1.139 -0.959 z" style="fill:url(#E)"/><path d="m 17.652 77.37 l -0.408 0.466 l 1.696 1.536 l 0.502 -0.56 z" style="fill:url(#D)"/><path d="m 18.604 76.25 l -0.408 0.466 l 1.696 1.536 l 0.502 -0.56 z" style="fill:url(#C)"/><path d="m 19.585 75.1 l -0.408 0.466 l 1.696 1.536 l 0.502 -0.56 z" style="fill:url(#B)"/><path d="m 20.593 73.926 l -0.408 0.466 l 1.696 1.536 l 0.502 -0.56 z" style="fill:url(#A)"/><path d="m 21.583 72.78 l -0.408 0.466 l 1.696 1.536 l 0.502 -0.56 z" style="fill:url(#9)"/><path d="m 22.672 71.51 l -0.408 0.466 l 1.696 1.536 l 0.502 -0.56 z" style="fill:url(#8)"/><path d="m 16.702 78.48 l -0.408 0.466 l 1.696 1.536 l 0.502 -0.56 z" style="fill:url(#7)"/><g style="fill:url(#6)"><use transform="matrix(0.85571 -0.83806 0.62995 0.64036 -18.895 67.69)" xlink:href="#W" style="opacity:0.9"/><use transform="matrix(0.798 -0.8425 0.58747 0.64375 0.86 54.48)" xlink:href="#W" style="opacity:0.9"/><use transform="matrix(0.73141 -0.74931 0.53845 0.57254 -16.12 75.23)" xlink:href="#W" style="opacity:0.9"/></g><path transform="matrix(1.1351 0 0 0.975 -7.314 -4.02)" d="m 64.07 45.19 a 8.289 8.961 0 1 1 0 -0.003" style="fill:url(#5);opacity:0.814"/><use transform="matrix(0.65133 -0.55678 0.63069 0.57501 -25.586 44.19)" xlink:href="#V" style="fill:url(#4);opacity:0.314"/><use transform="matrix(0.73737 -0.76703 0.714 0.79214 -40.468 28.18)" xlink:href="#V" style="fill:url(#I);opacity:0.567"/><use transform="matrix(0.85106 0 0 1.0213 9.328 -29.09)" xlink:href="#U" style="fill:url(#3);opacity:0.871"/><use transform="matrix(0.55319 0 0 0.6383 32.13 22.18)" xlink:href="#U" style="fill:url(#K);opacity:0.705"/><use transform="matrix(0.4149 -0.64208 0.40175 0.66309 -16.306 29.538)" xlink:href="#V" style="fill:url(#I);opacity:0.543"/><path d="m 23.801 70.16 l -0.408 0.466 l 1.696 1.536 l 0.502 -0.56 z" style="fill:url(#2)"/><path d="m 24.85 68.916 l -0.408 0.466 l 1.696 1.536 l 0.502 -0.56 z" style="fill:url(#1)"/><g style="fill:url(#I)"><use transform="matrix(0.84435 0.46068 -0.67252 0.60222 112.88 -44.25)" xlink:href="#V" style="opacity:0.319"/><use transform="matrix(0.78752 0.41793 -0.62725 0.54634 107.92 -36.681)" xlink:href="#V" style="opacity:0.21"/><use transform="matrix(0.83912 0.30123 -0.54283 0.63029 98.53 -37.688)" xlink:href="#V" style="opacity:0.181"/><use transform="matrix(0.83912 0.30123 -0.54283 0.63029 95.16 -33.991)" xlink:href="#V" style="opacity:0.214"/></g><g style="fill:url(#K)"><use transform="matrix(0.31233 -0.2437 2.7936 2.0241 -217.9 -106.22)" xlink:href="#U"/><use transform="matrix(0.35676 -0.15439 2.1482 2.5777 -154.98 -146.93)" xlink:href="#U"/></g><path transform="matrix(-0.22015 0.70161 -0.7168 0.34973 83.86 24.61)" d="m 30.574 67.54 a 3.05 3.129 0 1 1 0 -0.001" style="fill:url(#0);opacity:0.567"/></g></g></svg>