<svg xmlns="http://www.w3.org/2000/svg" viewBox="0 0 256 256"><g transform="translate(0 -796.36)"><path d="m -1374.42 1658.71 c 127.95 -192.46 -280.09 -311 -226.07 -62.2 23.02 102.82 167.39 165.22 226.07 62.2 z" color="#000" transform="matrix(0 1 -1 0 1711.48 2401.81)" fill="#9acd32"/><g transform="translate(0 796.36)"><path d="m 172.37 144.6 l -8.89 -3.846 l 8.08 -16.14 c 4.446 -8.877 8.217 -16.14 8.381 -16.14 0.466 0 18.305 7.573 19.328 8.206 1.478 0.914 -14.468 31.943 -16.367 31.848 -0.904 -0.045 -5.645 -1.813 -10.534 -3.928 z" fill="#b3b3b3"/><g fill="#fff"><path d="m 151.7 135.9 c -4.922 -2.129 -8.949 -4.295 -8.949 -4.814 0 -1.857 15.222 -31.29 16.182 -31.29 0.967 0 18.682 7.384 19.373 8.08 0.726 0.725 -15.495 32.06 -16.555 31.978 -0.606 -0.045 -5.129 -1.824 -10.05 -3.953 z"/><path d="m 134.82 191.29 c -1.462 -1.462 -0.701 -5.503 1.393 -7.399 1.983 -1.795 2.118 -3.245 1.898 -20.507 -0.224 -17.622 -0.11 -18.778 2.218 -22.521 4.088 -6.574 4.389 -6.638 13.529 -2.876 l 8.265 3.402 l -3.143 6.227 c -2.585 5.12 -3.536 6.124 -5.352 5.649 -2.86 -0.748 -8.492 1.599 -9.828 4.096 -1.779 3.323 -1.189 8.455 1.252 10.896 l 2.295 2.295 l -5.161 9.908 c -5.775 11.09 -6.315 11.882 -7.367 10.83 z"/></g><path d="m 142.92 181.88 c 4.885 -9.822 5.874 -11.152 7.99 -10.748 3.387 0.648 9.1 -2.574 10.335 -5.831 1.335 -3.51 0.285 -7.652 -2.419 -9.545 -2.085 -1.46 -2.07 -1.59 0.797 -7.297 1.605 -3.196 3.05 -5.96 3.211 -6.142 0.738 -0.839 16.803 6.755 16.803 7.943 0 3.308 -3.5 9.146 -7.835 13.07 -2.597 2.349 -9.706 8.06 -15.799 12.696 -8.462 6.436 -11.08 9.02 -11.08 10.951 0 2.862 -3.071 6.116 -5.774 6.116 -1.442 0 -0.683 -2.26 3.768 -11.209 z" fill="#ccc"/><path d="m 188.63 110.78 c -3.706 -1.621 -7.05 -3.262 -7.434 -3.645 -0.954 -0.954 19.16 -39.884 20.605 -39.888 3.13 -0.008 14.717 5.898 14.69 7.488 -0.04 2.366 -18.681 38.39 -20.04 38.726 -0.597 0.147 -4.117 -1.059 -7.822 -2.681 z" fill="#1a1a1a"/><path d="m 171.5 103.45 c -3.58 -1.523 -6.909 -3.148 -7.398 -3.611 -1.052 -0.996 18.313 -40.17 19.857 -40.17 2.03 0 15.202 5.816 15.202 6.712 0 1.655 -19.524 39.932 -20.345 39.887 -0.444 -0.025 -3.737 -1.291 -7.316 -2.814 z" fill="#4d4d4d"/></g><path d="m 127.57 981.78 c -13.553 -9.176 -29.13 -15.241 -47.07 -18.331 c -6.498 -1.119 -12.199 -2.657 -12.67 -3.419 -1.297 -2.099 0.402 -4.429 8.861 -12.15 4.254 -3.882 7.436 -7.541 7.07 -8.13 -2.176 -3.521 -23.424 -4.839 -32.856 -2.038 -5.287 1.57 -5.7 1.548 -7.459 -0.395 -1.785 -1.972 -1.62 -2.282 3.977 -7.489 5.179 -4.817 6.385 -5.434 10.666 -5.451 3.754 -0.015 4.538 0.27 3.525 1.283 -2.327 2.327 -1.395 3.037 3.983 3.037 5.881 0 25.575 4.662 27.922 6.61 2.757 2.288 1.568 4.666 -6.289 12.576 -5.226 5.261 -7.281 8 -6.237 8.316 0.856 0.258 4.486 1.069 8.07 1.803 9.01 1.845 23.779 7.117 30.915 11.03 7.08 3.882 16.214 9.881 16.219 10.646 0.002 0.298 -0.84 1.636 -1.87 2.973 l -1.874 2.431 l -4.881 -3.305 z" fill="#1a1a1a"/></g></svg>