<svg xmlns="http://www.w3.org/2000/svg" xmlns:xlink="http://www.w3.org/1999/xlink" viewBox="0 0 256 256"><defs><path id="0" d="m 245.46 129.52 l -97.89 -96.9 c -5.556 -5.502 -16.222 -11.873 -23.7 -14.16 l -39.518 -12.08 c -7.479 -2.286 -18.1 0.391 -23.599 5.948 l -13.441 13.578 c -5.5 5.559 -14.502 14.653 -20 20.21 l -13.44 13.579 c -5.5 5.558 -8.07 16.206 -5.706 23.658 l 12.483 39.39 c 2.363 7.456 8.843 18.06 14.399 23.556 l 97.89 96.9 c 5.558 5.502 14.605 5.455 20.1 -0.101 l 36.26 -36.63 c 5.504 -5.559 14.503 -14.651 20 -20.21 l 36.26 -36.629 c 5.502 -5.56 5.455 -14.606 -0.101 -20.11 z m -178.09 -50.74 c -7.198 0 -13.03 -5.835 -13.03 -13.03 0 -7.197 5.835 -13.03 13.03 -13.03 7.197 0 13.03 5.835 13.03 13.03 -0.001 7.198 -5.836 13.03 -13.03 13.03 z"/><use id="1" xlink:href="#0"/><clipPath style="clip-path:url(#2)"><use xlink:href="#0"/></clipPath><clipPath style="clip-path:url(#2)"><use xlink:href="#0"/></clipPath><clipPath id="2"><use xlink:href="#1"/></clipPath></defs><path d="M 11.842334,99.524801 C 37.072134,-64.959329 294.73525,5.9763711 248.22876,165.47167 216.34037,316.82655 -47.044456,261.17204 11.842334,99.524801 z" style="color:#000"/><path d="m 94.298393 135.95757 a 23.42997 16.487757 0 1 1 -46.859939 0 23.42997 16.487757 0 1 1 46.859939 0 z" transform="matrix(-0.55765805 -1.1465358 -1.1318392 0.58770877 349.30861 181.77968)" style="fill:#ffa07a;stroke:#000;fill-rule:evenodd"/><g transform="matrix(-0.48414443 -0.83963323 -0.8769815 0.50567997 302.60678 173.81132)" style="fill:#ff4500"><path d="m 44.9218,197.83823 c -0.669342,-0.80651 -1.061942,-1.89071 -0.872445,-2.40934 0.189498,-0.51864 9.682041,-10.66114 21.094541,-22.53889 11.4125,-11.87776 20.75,-22.10765 20.75,-22.73311 0,-0.79367 -1.823324,-0.94662 -6.035831,-0.50632 -5.039415,0.52672 -6.139281,0.36128 -6.66248,-1.00215 -0.368758,-0.96097 0.05753,-2.13331 1.035831,-2.84866 0.914364,-0.6686 1.66248,-1.9113 1.66248,-2.76155 0,-1.09675 1.452769,-1.74573 5,-2.2336 4.392881,-0.60418 5,-0.97416 5,-3.04704 0,-1.8522 -1.021055,-2.81244 -4.75,-4.46707 -3.93725,-1.74706 -6.118841,-2.02951 -12.75,-1.65076 -4.4,0.25132 -9.441868,0.77677 -11.20415,1.16768 -2.860944,0.6346 -3.27229,0.43924 -3.840294,-1.82387 -0.34988,-1.39403 -0.326224,-3.51107 0.05257,-4.70453 0.567373,-1.78763 1.155869,-2.04149 3.340294,-1.44089 1.45837,0.40098 6.627737,0.9279 11.487481,1.17095 6.689163,0.33453 9.641355,0.0597 12.15113,-1.13129 1.823373,-0.86525 3.809719,-1.57318 4.414098,-1.57318 0.604379,0 1.098871,-1.35 1.098871,-3 0,-2.74823 -0.286865,-3 -3.418213,-3 -4.686205,0 -6.581787,-0.88051 -6.581787,-3.0573 0,-1.01382 -0.744521,-2.25997 -1.654492,-2.76922 -0.995653,-0.55719 -1.406363,-1.57251 -1.031384,-2.54969 0.479681,-1.25003 2.011393,-1.62379 6.654491,-1.62379 3.317262,0 6.031385,-0.38366 6.031385,-0.85258 0,-0.46892 -9.238931,-9.581419 -20.530957,-20.25 C 54.070913,75.53345 44.58028,65.824588 44.272645,64.626783 c -0.85311,-3.321661 0.499844,-6.488257 2.619292,-6.130468 1.004444,0.169563 13.130316,11.220796 26.946383,24.558296 l 25.120123,24.249999 15.717727,-0.10345 15.71773,-0.10346 11.5,-12.171385 c 33.59984,-35.561444 34.86394,-36.763842 38.30082,-36.431272 6.25926,0.605676 4.34918,3.353036 -20.30082,29.199629 -12.925,13.552428 -23.63814,25.048248 -23.80698,25.546278 -0.16883,0.49803 2.19367,1.21795 5.25,1.59981 3.05634,0.38186 5.55698,1.0603 5.55698,1.50765 0,2.16984 3.46042,3.9562 7.6637,3.9562 3.00665,0 5.37245,0.66987 7.06343,2 2.30733,1.81495 4.05678,2 18.90773,2 l 16.36514,0 0,-8.9349 c 0,-11.97249 0.85425,-14.06906 5.72525,-14.05144 7.99924,0.0289 7.82844,-0.25358 7.42968,12.28902 l -0.356,11.19732 13.35054,-0.40985 c 23.65762,-0.72627 24.96336,-0.65634 26.48041,1.41836 1.93605,2.64771 1.8258,2.9037 -2.55951,5.94272 l -3.92962,2.72323 -16.57133,-0.33723 -16.57133,-0.33723 9.6e-4,9.55 c 5.6e-4,5.64931 0.45325,10.0023 1.10831,10.65736 1.76767,1.76767 -2.49965,3.44297 -7.88624,3.09604 -4.33197,-0.279 -4.76202,-0.54466 -5.34765,-3.3034 -0.35026,-1.65 -0.69008,-6.7125 -0.75516,-11.25 l -0.11831,-8.25 -16.36514,0 c -14.85095,0 -16.6004,0.18505 -18.90773,2 -1.67583,1.31821 -4.05678,2 -6.98438,2 -3.27878,0 -5.59398,0.78074 -8.84227,2.9818 -2.42026,1.63999 -5.67548,2.98999 -7.23381,3 -1.55834,0.01 -2.68334,0.41924 -2.5,0.9094 0.18333,0.49016 11.0437,11.13714 24.13416,23.65996 23.14584,22.14217 23.79255,22.86732 23.5,26.35048 -0.54515,6.49068 -2.75165,5.24183 -19.54143,-11.0602 -8.66767,-8.41588 -20.30666,-19.69806 -25.86443,-25.07152 l -10.10503,-9.76992 -14.54242,0 -14.54242,0 -20.729644,21.75 c -11.401305,11.9625 -22.322428,23.2125 -24.269162,25 -3.794596,3.48421 -7.215337,4.14896 -9.178394,1.78362 z m 69.88876,-84.16628 c 0.22917,-0.20204 -1.70989,-0.36734 -4.30901,-0.36734 -2.98961,0 -4.49167,0.37865 -4.08869,1.03069 0.56142,0.9084 7.21066,0.38317 8.3977,-0.66335 z"/><path d="m 47.368988,197.50825 c -0.355457,-0.57514 4.904733,-6.76712 11.689311,-13.75996 27.690739,-28.54072 35.660131,-37.00336 36.731108,-39.0045 1.196089,-2.23491 11.856423,-9.77664 12.669763,-8.9633 0.85377,0.85377 -0.73735,3.76806 -2.05725,3.76806 -0.7029,0 -2.02366,1.13802 -2.93503,2.52894 -0.91136,1.39091 -4.27954,5.10341 -7.484845,8.25 -3.205304,3.14658 -14.50492,14.8544 -25.110257,26.01737 -19.552359,20.58043 -22.321832,23.07423 -23.5028,21.16339 z m 111.473682,-20.7097 c -11.84565,-11.4125 -24.21757,-23.31096 -27.49316,-26.44102 -8.73188,-8.34395 -11.45561,-11.49318 -11.45561,-13.24521 0,-2.3225 1.55223,-1.89609 3.40804,0.93623 1.98096,3.02333 3.59196,3.2335 3.59196,0.46862 0,-1.11727 0.7875,-2.30932 1.75,-2.64902 2.5336,-0.89418 6.25,-4.45085 6.25,-5.98137 0,-0.72223 -1.8,-2.44943 -4,-3.83823 -2.2,-1.3888 -4,-2.93678 -4,-3.43996 0,-0.50318 1.23053,-1.88281 2.7345,-3.06584 2.26042,-1.77805 3.51735,-2.03726 7.25,-1.49514 6.44092,0.93545 7.27803,2.15605 7.72335,11.26143 0.5492,11.22956 -0.27463,12.84478 -6.88195,13.49284 -2.92925,0.2873 -6.1134,0.10701 -7.0759,-0.40066 -4.68868,-2.47304 0.0138,2.61276 20.5,22.17092 28.26319,26.98288 30.75,29.52373 30.75,31.4182 0,0.85702 -0.34058,1.55821 -0.75684,1.55821 -0.41626,0 -10.44873,-9.3375 -22.29439,-20.75 z m 41.50241,-23.51662 c -0.29559,-0.77031 -0.40553,-5.18794 -0.24431,-9.81697 l 0.29313,-8.41641 3,0 3,0 0,9.5 0,9.5 -2.75569,0.31697 c -1.67899,0.19313 -2.96567,-0.23025 -3.29313,-1.08359 z M 88.893896,139.08709 c 0,-4.35091 -0.09806,-4.48786 -3.957778,-5.52717 -2.176778,-0.58615 -4.273377,-1.57637 -4.659109,-2.2005 -1.070119,-1.73149 2.992355,-4.45443 7.808256,-5.23361 3.521312,-0.56973 3.988852,-0.87797 2.558631,-1.68688 -1.137291,-0.64322 -1.75,-2.19778 -1.75,-4.44007 0,-3.35869 0.106211,-3.45031 4,-3.45031 2.2,0 4,-0.37254 4,-0.82787 0,-0.77578 -13.102939,-13.83531 -38.334064,-38.207071 C 47.202321,66.542929 45.215885,64.085619 46.8757,63.059799 c 0.910204,-0.56254 53.70322,49.374591 56.95748,53.876311 0.7916,1.09505 2.2541,2.80583 3.25,3.80172 0.99589,0.9959 1.81072,2.26072 1.81072,2.81072 0,1.69915 -1.81242,1.10591 -3.35657,-1.09869 -0.80849,-1.15427 -2.60749,-2.68883 -3.99779,-3.41013 -2.46453,-1.27861 -2.503226,-1.24679 -1.54591,1.27114 1.27763,3.36042 0.49241,5.23768 -2.190794,5.23768 -1.764668,0 -1.937152,0.26108 -0.954621,1.44496 1.820532,2.1936 0.845496,5.84696 -1.954319,7.32262 l -2.5,1.31764 3,-0.29261 c 2.485997,-0.24248 3.056602,0.10702 3.330358,2.03986 0.473468,3.34288 -2.496732,6.16753 -6.485346,6.16753 -3.293511,0 -3.345012,-0.0687 -3.345012,-4.46146 z m 23.500004,2.74839 c -4.67729,-1.12503 -3.81793,-2.39118 1.42139,-2.09421 3.21184,0.18204 5.58929,0.81673 5.83334,1.55728 0.41812,1.26878 -3.12262,1.53084 -7.25473,0.53693 z m 35,-5.28693 c 0.33992,-0.55 0.81648,-1 1.05902,-1 0.24254,0 0.44098,0.45 0.44098,1 0,0.55 -0.47656,1 -1.05902,1 -0.58246,0 -0.7809,-0.45 -0.44098,-1 z m 8.21157,-0.99495 c -0.66679,-2.54981 -3.47145,-3.6361 -5.73622,-2.22173 -2.43891,1.52313 -2.97535,0.63067 -2.97535,-4.94999 0,-4.87413 1.58791,-6.75544 2.18045,-2.58333 0.23407,1.64812 0.98831,2.25 2.81955,2.25 1.63344,0 2.84216,-0.7799 3.48713,-2.25 0.54292,-1.2375 1.35446,-2.25 1.80343,-2.25 1.68116,0 7.70938,5.56265 7.70941,7.114 3e-5,1.39002 -6.53441,6.886 -8.18709,6.886 -0.31879,0 -0.81438,-0.89773 -1.10131,-1.99495 z m -46.15487,-2.22755 c -2.05737,-2.93732 -1.96363,-4.37058 0.4433,-6.7775 2.70596,-2.70596 5.6181,-2.51512 8.46303,0.55461 2.36378,2.55057 2.36861,2.55119 3.05292,0.39513 0.55917,-1.76179 1.21853,-2.05284 3.58044,-1.58046 3.26976,0.65395 7.90361,3.4213 7.90361,4.72005 0,1.28895 -5.56269,3.91067 -8.29753,3.91067 -1.49373,0 -2.81042,-0.84779 -3.49447,-2.25 l -1.09762,-2.25 -0.64765,2.15755 c -1.13336,3.77563 -7.53869,4.4998 -9.90603,1.11994 z m -8.52423,-0.71681 c -0.69019,-1.28965 -0.70198,-2.14691 -0.0352,-2.55902 1.49636,-0.9248 3.00271,0.35813 3.00271,2.55735 0,2.49639 -1.6319,2.49731 -2.96753,0.002 z m 83.71753,0.16513 c -15.9225,-0.26063 -16.75,-0.37179 -16.75,-2.25 0,-1.9017 0.74801,-1.97582 19.94098,-1.97582 19.05605,0 23.04939,0.57781 20.42189,2.9549 -1.44242,1.30494 -6.12792,1.55713 -23.61287,1.27092 z m 27.69069,-1.32178 c -0.37254,-0.60278 7.3e-4,-1.77403 0.82948,-2.60278 1.9035,-1.9035 5.33541,-0.91754 6.02824,1.73186 0.43581,1.66655 0.003,1.96688 -2.83301,1.96688 -1.84105,0 -3.65217,-0.49318 -4.02471,-1.09596 z m 9.55931,-0.90404 c 0,-3.27013 7.08307,-2.58467 7.75,0.75 0.16667,0.83333 -1.08333,1.25 -3.75,1.25 -3.33333,0 -4,-0.33333 -4,-2 z m -166.000004,-0.5 c 0,-1.68232 0.183683,-1.75048 2.412469,-0.89521 1.830679,0.70249 1.144123,2.39521 -0.971486,2.39521 -0.792541,0 -1.440983,-0.675 -1.440983,-1.5 z m 145.023304,-4.4856 c -0.71137,-0.43965 -1.00204,-3.86456 -0.81465,-9.59897 l 0.29135,-8.91543 3,0 3,0 0.28589,9.12656 c 0.2822,9.00863 0.25396,9.13267 -2.18535,9.59897 -1.35919,0.25983 -2.96894,0.16482 -3.57724,-0.21113 z m -82.0233,-1.69339 c 0,-0.37345 1.4625,-2.06095 3.25,-3.75 1.7875,-1.68906 14.68487,-15.13141 28.66083,-29.871901 23.02053,-24.27983 27.57803,-28.69911 29.59675,-28.69911 2.18251,0 -2.50979,5.43279 -23.03652,26.67187 -12.66591,13.105471 -24.51623,25.740631 -26.33403,28.078131 -1.8178,2.3375 -3.87253,4.25 -4.56607,4.25 -0.69354,0 -2.07547,0.9 -3.07096,2 -1.73893,1.9215 -4.5,2.73203 -4.5,1.32101 z m -9.33697,-4.37676 c 0.63967,-0.64368 3.2864,-1.40965 5.88163,-1.70217 3.74922,-0.42259 4.62405,-0.2453 4.25836,0.86303 -0.30008,0.9095 -2.34674,1.50182 -5.88163,1.70218 -4.13701,0.23448 -5.14586,0.03 -4.25836,-0.86304 z" style="fill:#ff7f50"/></g></svg>