<svg xmlns="http://www.w3.org/2000/svg" viewBox="0 0 256 256"><defs><clipPath><circle cx="515.44" cy="510.69" r="435.85" style="fill:none;stroke:#000;stroke-width:11.248"/></clipPath></defs><path d="m 69.43 186.06 v -14.21 h 3.045 h 3.045 v 11.673 v 11.673 h 5.583 h 5.583 v 2.538 v 2.538 h -8.628 h -8.628 v -14.21 z" style="fill:#fff;stroke:#fff;fill-rule:evenodd;stroke-width:2.778"/><g transform="matrix(0.99153 0 0 0.98729 38.14 30.52)"><path d="m 88.37 -26.07 c -111.92 -22.351 -154.42 130.95 -105.92 214.2 38.644 66.33 171.02 47.37 220.37 -42.17 49.35 -89.54 -24.617 -154.09 -114.45 -172.03 z" style="fill:#e13d3d;color:#000"/><path d="m 24.392 157.54 v -14.393 h 3.071 h 3.071 v 11.823 v 11.823 h 5.63 h 5.63 v 2.57 v 2.57 h -8.701 h -8.701 v -14.393 z" style="fill:#fff;stroke:#fff;fill-rule:evenodd;stroke-width:2.808"/></g><g style="fill:#fff;stroke:#fff;fill-rule:evenodd;stroke-width:2.778"><path d="m 54.713 111.46 v -28.928 l 10.531 0.016 c 16.264 0.024 20.815 0.994 25.19 5.37 3.09 3.09 4.477 6.626 4.766 12.15 0.311 5.941 -0.944 10.578 -3.748 13.854 -4.01 4.689 -8.278 6.165 -17.815 6.165 h -6.237 v 10.15 v 10.15 h -6.344 h -6.344 v -28.928 z m 24.517 -2.681 c 2.412 -1.58 3.142 -3.273 3.142 -7.281 0 -6.299 -2.483 -8.306 -10.277 -8.308 h -4.694 v 8.431 v 8.431 l 5.239 -0.194 c 3.88 -0.144 5.589 -0.424 6.59 -1.08 z"/><path d="m 104.96 111.46 v -28.928 h 17 h 17 v 5.583 v 5.583 h -10.911 h -10.911 v 5.583 v 5.583 h 10.404 h 10.404 v 5.329 v 5.329 h -10.404 h -10.404 v 12.434 v 12.434 h -6.09 h -6.09 v -28.928 z"/><path d="m 160.65 140.58 c -1.885 -0.405 -4.854 -1.244 -6.598 -1.865 l -3.17 -1.129 l -0.143 -6.01 c -0.079 -3.304 0.035 -5.928 0.254 -5.83 0.218 0.098 1.559 0.789 2.978 1.537 4.735 2.493 9.214 3.677 13.913 3.675 6.558 -0.002 9.135 -1.932 9.135 -6.842 0 -1.702 -0.317 -2.421 -1.649 -3.744 -1.342 -1.334 -2.781 -1.951 -7.732 -3.317 -7.851 -2.167 -9.891 -3.07 -12.622 -5.587 -3.342 -3.08 -4.598 -6.338 -4.605 -11.939 -0.007 -5.741 1.115 -9.239 3.947 -12.312 5.271 -5.718 13.935 -6.924 27.23 -3.788 l 3.806 0.898 l 0.143 5.97 l 0.143 5.97 l -2.087 -1.065 c -5.155 -2.63 -14.804 -3.858 -18.388 -2.341 -3.155 1.335 -4.622 4.537 -3.463 7.555 0.783 2.039 3.041 3.173 9.381 4.713 13.629 3.31 17.675 7.384 17.646 17.768 -0.028 9.882 -3.907 15.609 -12 17.717 -3.743 0.975 -11.489 0.958 -16.12 -0.036 z"/><path d="m 152.66 185.49 v -14.268 l 6.978 0.211 c 7.945 0.241 9.96 0.923 12.783 4.33 4.84 5.842 3.698 17.268 -2.151 21.508 -2.516 1.824 -5.795 2.486 -12.306 2.486 h -5.304 v -14.268 z m 12.412 8.188 c 3.06 -1.481 4.082 -3.518 4.082 -8.131 0 -6.174 -2.589 -9.132 -7.993 -9.134 h -2.411 v 9.135 v 9.135 h 2.124 c 1.168 0 3.057 -0.452 4.198 -1 z"/><path d="m 120.19 195.83 c 0.801 -2.442 2.85 -8.837 4.553 -14.21 l 3.097 -9.769 h 3.663 h 3.663 l 4.267 13.576 c 2.347 7.467 4.367 13.861 4.49 14.21 0.162 0.461 -0.597 0.634 -2.78 0.634 h -3 l -0.655 -2.554 l -0.655 -2.554 l -5.352 0.144 l -5.352 0.144 l -0.702 2.411 l -0.702 2.411 h -2.994 h -2.994 l 1.457 -4.441 z m 14.712 -6.249 c 0 -1.311 -3.244 -11.638 -3.543 -11.279 -0.183 0.22 -0.957 2.569 -1.72 5.221 -0.763 2.652 -1.505 5.221 -1.649 5.709 -0.232 0.787 0.148 0.888 3.325 0.888 2.195 0 3.587 -0.209 3.587 -0.539 z"/><path d="m 95.06 199.51 c -1.117 -0.395 -2.986 -1.726 -4.154 -2.958 -2.849 -3 -3.909 -6.624 -3.61 -12.322 0.298 -5.678 2.12 -9.383 5.702 -11.598 2.24 -1.385 2.905 -1.539 6.63 -1.539 3.724 0 4.39 0.155 6.63 1.539 3.582 2.215 5.404 5.92 5.702 11.598 0.312 5.945 -0.772 9.451 -3.881 12.556 -3.406 3.402 -8.244 4.414 -13.02 2.725 z m 8.365 -5.748 c 1.709 -1.709 2.541 -4.396 2.541 -8.207 0 -3.74 -0.78 -6.325 -2.484 -8.232 -1.21 -1.354 -1.761 -1.58 -3.854 -1.58 -2.093 0 -2.645 0.226 -3.854 1.58 -3.418 3.825 -3.386 12.996 0.057 16.439 1.165 1.165 1.882 1.436 3.797 1.436 1.916 0 2.633 -0.271 3.797 -1.436 z"/></g></svg>