<svg xmlns="http://www.w3.org/2000/svg" xmlns:xlink="http://www.w3.org/1999/xlink" viewBox="0 0 256 256"><defs><linearGradient gradientUnits="userSpaceOnUse" y2="4" x2="0" y1="15" id="7" xlink:href="#9"/><linearGradient gradientUnits="userSpaceOnUse" y2="44" x2="27" y1="25" x1="8" id="C"><stop/><stop offset="1" style="stop-opacity:0"/></linearGradient><linearGradient gradientUnits="userSpaceOnUse" y2="4" x2="0" y1="21" id="8" xlink:href="#9"/><linearGradient gradientUnits="userSpaceOnUse" y2="16" x2="0" y1="20" id="A" xlink:href="#9"/><linearGradient gradientUnits="userSpaceOnUse" y2="18" x2="0" y1="44" id="B"><stop style="stop-color:#c6cdd1"/><stop offset="1" style="stop-color:#e0e5e7"/></linearGradient><linearGradient id="9"><stop style="stop-color:#06a370"/><stop offset="1" style="stop-color:#22d1b0"/></linearGradient><linearGradient gradientUnits="userSpaceOnUse" y2="7" x2="0" y1="16" id="6" xlink:href="#9"/><linearGradient gradientUnits="userSpaceOnUse" y2="10" x2="0" y1="25" id="0"><stop style="stop-color:#f39c12"/><stop offset="1" style="stop-color:#f5ab35"/></linearGradient><linearGradient gradientUnits="userSpaceOnUse" y2="10" x2="0" y1="17" id="5" xlink:href="#9"/><linearGradient gradientUnits="userSpaceOnUse" y2="12" x2="0" y1="21" id="1" xlink:href="#4"/><linearGradient gradientUnits="userSpaceOnUse" y2="8" x2="0" y1="17" id="3" xlink:href="#4"/><linearGradient id="4"><stop style="stop-color:#c61423"/><stop offset="1" style="stop-color:#dc2b41"/></linearGradient><linearGradient gradientUnits="userSpaceOnUse" y2="12" x2="0" y1="17" id="2" xlink:href="#4"/></defs><path d="m 213.3 834.88 c 146.42 225.37 -253.5 312.59 -221.64 80.74 12.991 -94.56 165.63 -166.95 221.64 -80.74 z" transform="matrix(-1 0 0 -1 245.66 1052.36)" style="fill:#f5fffa;color:#000"/><g transform="matrix(3.67943 0 0 3.64933 38.741 28.724)"><path d="m 4 18 h 40 v 26 h -40 z" style="fill:url(#B)"/><g><path d="M 8,16 H12 V25 H8 z" style="fill:url(#A)"/><path d="M 12,4 H16 V25 H12 z" style="fill:url(#8)"/><path d="M 16,12 H20 V25 H16 z" style="fill:url(#1)"/><path d="M 20,10 H24 V25 H20 z" style="fill:url(#5)"/><path d="M 24,7 H28 V25 H24 z" style="fill:url(#6)"/><path d="M 28,12 H32 V25 H28 z" style="fill:url(#2)"/><path d="M 32,4 H36 V25 H32 z" style="fill:url(#7)"/><path d="M 36,8 H40 V25 H36 z" style="fill:url(#3)"/></g><g style="fill:#eff0f1"><path d="M 8,31 H12 V34 H8 z"/><path d="M 8,39 H12 V42 H8 z"/><path d="M 8,27 H12 V30 H8 z"/><path d="M 14,31 H18 V34 H14 z"/><path d="M 14,39 H18 V42 H14 z"/><path d="M 14,27 H18 V30 H14 z"/><path d="M 20,31 H32 V34 H20 z"/><path d="M 20,39 H32 V42 H20 z"/><path d="M 20,27 H32 V30 H20 z"/><path d="M 34,31 H40 V34 H34 z"/><path d="M 34,39 H40 V42 H34 z"/><path d="M 34,27 H40 V30 H34 z"/><path d="M 8,35 H12 V38 H8 z"/><path d="M 14,35 H18 V38 H14 z"/><path d="M 20,35 H32 V38 H20 z"/><path d="M 34,35 H40 V38 H34 z"/></g><path d="M 9,28 H10 V29 H9 z" style="fill:#4d4d4d"/><path d="M 9,32 H11 V33 H9 z" style="fill:#c0392b"/><path d="M 9,36 H10 V37 H9 z" style="fill:#4d4d4d"/><path d="M 9,40 H11 V41 H9 z" style="fill:#258e52"/><path d="M 15,40 H16 V41 H15 z" style="fill:#4d4d4d"/><path d="M 15,36 H16 V37 H15 z" style="fill:#258e52"/><path d="M 15,32 H16 V33 H15 z" style="fill:#c0392b"/><g style="fill:#4d4d4d"><path d="M 15,28 H16 V29 H15 z"/><path d="M 21,28 H25 V29 H21 z"/></g><g style="fill:#258e52"><path d="M 21,32 H23 V33 H21 z"/><path d="M 24,32 H26 V33 H24 z"/><path d="M 21,36 H24 V37 H21 z"/></g><g style="fill:#c0392b"><path d="M 21,40 H28 V41 H21 z"/><path d="M 29,40 H30 V41 H29 z"/></g><path d="M 35,28 H38 V29 H35 z" style="fill:#258e52"/><path d="M 35,32 H36 V33 H35 z" style="fill:#4d4d4d"/><path d="M 35,36 H37 V37 H35 z" style="fill:#c0392b"/><path d="M 35,40 H38 V41 H35 z" style="fill:#4d4d4d"/><path d="m 8,25 19,19 17,0 0,-15 -4,-4 z" style="fill:url(#C);opacity:0.2;fill-rule:evenodd"/><path d="m 4 43 h 40 v 1 h -40 z" style="fill:#2e3132;opacity:0.1"/><path d="m 8 25 v -3 c 2 0 2 -3 4 -3 2 0 1.5 4 4 4 2.5 0 2 -4 4 -4 2 0 2 -4 4 -4 2 0 2 4 4 4 2 0 2 -2 4 -2 2 0 2 -5 4 -5 2 0 2 7 4 7 v 6 z" style="fill:url(#0);fill-rule:evenodd"/><path d="m 8 24 h 32 v 1 h -32 z" style="fill:#2e3132;fill-opacity:0.294"/></g></svg>