<svg xmlns="http://www.w3.org/2000/svg" viewBox="0 0 256 256"><g transform="translate(0 -796.36)"><path d="m -461.56 1509.46 c -118.52 -82.81 -267.18 103.69 -170.61 201.24 90.99 91.91 260.92 -26.87 216.73 -141.24 -9.219 -23.862 -24.363 -44.801 -46.12 -60 z" color="#000" transform="matrix(0 -1 -1 0 1744.15 388.62)" fill="#ec4093"/><g transform="matrix(4.0021 0 0 5.66391 30.411 -4906.85)" stroke-linejoin="round" stroke-linecap="round" stroke-width="2"><path d="m 6.887 1031.22 c 3.146 -0.288 7.113 0.899 9.524 -1.722 1.692 -1.618 0.622 -6.73 3.637 -6.235 1.529 2.203 0.336 5.23 2.032 7.449 1.953 3.84 3.043 -2.329 2.861 -4.19 -0.32 -1.722 1.673 -4.827 2.112 -1.662 0.686 3.957 0.006 8.328 2.174 11.894 2.611 -2.083 1.699 -6.84 2.171 -10.05 0.462 -3.354 2.507 0.823 2.375 2.288 0.06 3.284 3.298 4.075 5.943 3.186 1.342 -0.814 5.271 0.557 2.033 0.627 -2.389 -0.315 -5.231 1.321 -7.253 -0.329 -1.389 -1.412 -1.953 -6.093 -2.328 -6.234 -0.262 3.072 0.114 6.302 -0.919 9.243 -0.526 2.552 -3.43 2.526 -3.54 -0.254 -1.385 -3.681 -0.775 -7.676 -1.619 -11.452 -0.748 2.814 0.233 7.362 -2.549 9.07 -2.561 -0.486 -3.065 -4 -3.391 -6.188 0.314 -1.408 -0.973 -4.338 -1.444 -1.521 -0.449 3.215 -2.15 6.928 -5.978 6.719 -1.981 -0.09 -4.491 0.456 -6.178 -0.284 l 0.336 -0.361 l 0 0 z" opacity="0.1" fill="#060606" stroke="#000"/><path d="m 5.599 1030.6 c 3.146 -0.288 7.113 0.899 9.524 -1.722 1.692 -1.618 0.622 -6.73 3.637 -6.235 1.529 2.203 0.336 5.23 2.032 7.449 1.953 3.84 3.043 -2.329 2.861 -4.19 -0.32 -1.722 1.673 -4.827 2.112 -1.662 0.686 3.957 0.006 8.328 2.174 11.894 2.611 -2.083 1.699 -6.84 2.171 -10.05 0.462 -3.354 2.507 0.823 2.375 2.288 0.06 3.284 3.298 4.075 5.943 3.186 1.342 -0.814 5.271 0.557 2.033 0.627 -2.389 -0.315 -5.231 1.321 -7.253 -0.329 -1.389 -1.412 -1.953 -6.093 -2.328 -6.234 -0.262 3.072 0.114 6.302 -0.919 9.243 -0.526 2.552 -3.43 2.526 -3.54 -0.254 -1.385 -3.681 -0.775 -7.676 -1.619 -11.452 -0.748 2.814 0.233 7.362 -2.549 9.07 -2.561 -0.486 -3.065 -4 -3.391 -6.188 0.314 -1.408 -0.973 -4.338 -1.444 -1.521 -0.449 3.215 -2.15 6.928 -5.978 6.719 -1.981 -0.09 -4.491 0.456 -6.178 -0.284 l 0.336 -0.361 l 0 0 z" fill="#ec407a" stroke="#fff"/></g></g></svg>