<svg xmlns="http://www.w3.org/2000/svg" viewBox="0 0 256 256"><path d="m 3.74 950.97 c 19.829 131.87 217.21 135.83 247.04 7.636 30.702 -103.78 -80.47 -188.63 -163.63 -154.63 -55.684 16.07 -100.67 81.83 -83.41 146.99 z" transform="translate(0 -796.36)" style="fill:#87ceeb;color:#000"/><g transform="matrix(1.40176 0 0 1.39558 -56.636 -54.44)"><path d="m 118.67 188.68 c -28.37 -6.541 -47.702 -29.785 -47.898 -57.59 -0.127 -17.969 7.793 -34.777 21.38 -45.37 14.897 -11.618 25.729 -14.807 46.518 -13.695 c 3.544 0.19 14.868 4.141 19.5 6.804 20.541 11.81 31.554 30.14 31.398 52.26 -0.177 25.11 -16.521 47.35 -40.777 55.49 -9.599 3.222 -21.618 4.06 -30.12 2.099 z" style="fill:#f3f3f3"/><path d="m 118.17 171.71 c -29.376 -8.561 -41.657 -44.41 -23.409 -68.34 3.597 -4.716 5.03 -4.233 5.82 1.958 1.778 13.966 11.03 23.526 28.19 29.14 12.67 4.146 19.3 11.986 18.02 21.311 -1.777 12.964 -14.5 20.04 -28.627 15.923 z m 44.35 -16.773 c -0.59 -0.746 -1.35 -3.49 -1.69 -6.099 -0.852 -6.541 -4.637 -13.56 -9.954 -18.462 -5.272 -4.86 -8.65 -6.715 -18.04 -9.907 -7.843 -2.668 -12.943 -6.149 -15.75 -10.753 -4.13 -6.773 -0.978 -16.995 6.602 -21.413 3.384 -1.972 5.04 -2.262 11.03 -1.933 9.239 0.506 16.769 3.971 24.358 11.21 10.06 9.593 14.773 21.471 13.838 34.856 -0.792 11.339 -7.594 26.05 -10.402 22.501 z" style="fill:#4892d4"/></g></svg>