<svg xmlns="http://www.w3.org/2000/svg" viewBox="0 0 256 256"><path d="M 226.22,46.721084 C 288.49,142.48108 238.25,229.72108 167.75,250.41108 72.92,278.25408 -55.84,205.09108 29,54.311084 c 33.72,-59.9250001 152.85,-75.79 197.21,-7.587 z" style="fill:#6f6f0d;color:#000"/><g transform="matrix(1.3363328 0 0 1.2062709 -60.611969 -33.965897)"><path d="m 118.74078,198.94972 c -11.12671,-1.0072 -15.59315,-2.16176 -14.59716,-3.77331 0.34055,-0.55103 1.94263,-1.00187 3.56017,-1.00187 4.30071,0 3.62294,-1.5023 -2.42249,-5.36951 -6.191323,-3.96055 -11.924783,-9.28107 -11.457852,-10.63263 0.17673,-0.51156 3.808827,-4.73736 8.071322,-9.39066 4.26251,-4.65331 7.75,-8.97358 7.75,-9.6006 0,-0.62702 -1.09164,-2.57251 -2.42587,-4.32332 -4.06083,-5.32869 -8.358854,-15.49505 -9.682764,-22.9032 -3.195137,-17.8789 5.096614,-38.149932 20.132684,-49.218858 5.92928,-4.364889 15.21991,-8.561217 18.95445,-8.561217 1.04691,0 2.18159,-0.45 2.5215,-1 0.80625,-1.304525 18.19376,-1.304525 19,0 0.33992,0.55 1.50136,1 2.58098,1 3.26934,0 14.09262,5.430198 19.66902,9.868241 7.94531,6.323349 7.15594,9.861546 -4.67893,20.972714 l -5.34934,5.02223 2.30173,3.81841 c 5.57952,9.256 6.96726,12.18516 8.42572,17.78462 5.35693,20.56662 -2.56398,42.24442 -20.14498,55.13241 l -6.68614,4.90138 8.44097,0.76961 c 11.48403,1.04704 16.44587,2.03949 16.15075,3.23039 -0.88812,3.58383 -35.73204,5.48224 -60.11377,3.27517 z" style="fill:#dddda6"/><path d="m 121.64477,196.23617 c -3.83346,-0.74619 -19.61762,-9.87664 -22.411941,-12.96433 -1.689312,-1.86667 -1.487215,-2.23422 5.919141,-10.76498 4.2175,-4.85777 7.8881,-9.35896 8.1569,-10.00263 0.2688,-0.64367 -1.46125,-3.56867 -3.84456,-6.5 C 100.539,145.02664 96.516148,130.55969 98.597333,116.92454 101.74217,96.320775 117.47525,79.349643 137.3785,75.091659 c 3.17145,-0.678482 6.19377,-1.612393 6.71627,-2.075359 1.28568,-1.139179 7.16848,-1.06682 9.31357,0.114559 0.95504,0.525973 4.43643,1.69089 7.73643,2.588705 7.488,2.037222 16.41636,6.714462 20.04285,10.499712 l 2.76197,2.882859 -4.90242,5.554431 c -2.69631,3.054937 -6.84517,7.850224 -9.21967,10.656184 l -4.31727,5.10176 3.02342,1.83865 c 3.70663,2.25414 8.46288,10.28422 11.12153,18.77672 6.56339,20.96538 -3.32901,45.68884 -23.08238,57.68838 -9.23228,5.60832 -9.3968,6.43805 -1.30047,6.55864 5.6274,0.0838 6.26994,0.24491 3.54671,0.88919 -4.06138,0.96089 -32.32421,1.01416 -37.17427,0.0701 z" style="fill:#b7b793"/><path d="m 117.96204,193.16618 c -6.14335,-2.01 -18.398783,-9.4752 -19.051574,-11.60497 -0.187684,-0.61232 3.134894,-5.27951 7.383514,-10.37151 8.70934,-10.4382 8.58006,-8.43928 1.24281,-19.21591 -6.16379,-9.05311 -8.191645,-15.83287 -8.165311,-27.29925 0.01755,-7.6395 0.525645,-11.39724 2.152511,-15.91927 5.75779,-16.004353 19.86868,-28.938303 34.02393,-31.186113 3.21237,-0.510115 4.21054,-0.387582 3.69098,0.453091 -0.90893,1.470686 1.60319,1.476608 11.96874,0.02821 9.65106,-1.348559 16.27891,0.134022 23.98579,5.365374 7.8573,5.33346 7.86385,5.250109 -1.3073,16.640728 l -8.12018,10.08531 2.75701,2.76634 c 4.17195,4.18606 8.25182,11.76667 10.29135,19.12185 6.42976,23.18771 -4.97885,47.41207 -27.58004,58.56182 -7.23941,3.57138 -8.72404,3.93191 -17.5,4.24982 -7.60903,0.27562 -10.86638,-0.0704 -15.77223,-1.67552 z m 9.18273,-104.00533 c 0,-2.143506 -2.90566,-1.833904 -3.32711,0.354508 -0.25737,1.336396 0.14991,1.743671 1.4863,1.486305 1.01245,-0.194979 1.84081,-1.023345 1.84081,-1.840813 z" style="fill:#dedf1d"/><path d="m 117.62168,192.96271 c -6.47919,-2.27277 -15.72943,-7.58013 -18.018332,-10.33809 -1.725766,-2.07942 0.628402,-5.23312 8.781252,-11.76357 3.7181,-2.97821 10.13517,-8.45896 14.26017,-12.17945 4.125,-3.7205 11.61819,-10.08346 16.65153,-14.13993 6.08196,-4.90156 11.51209,-10.47661 16.18921,-16.62126 3.87072,-5.08523 8.35805,-10.8117 9.97186,-12.7255 l 2.93418,-3.47963 4.14012,6.40557 c 5.08184,7.86259 7.16391,14.26382 7.83189,24.0787 1.36916,20.11754 -9.95747,38.93438 -29.12929,48.39232 -7.21118,3.55746 -8.75825,3.9359 -17.5,4.28073 -8.06588,0.31818 -10.62591,0.0147 -16.11259,-1.90989 z m -8.14539,-38.03817 c -4.01181,-5.4194 -5.42146,-7.98644 -7.82519,-14.25 -3.172254,-8.26614 -3.232078,-23.28871 -0.12711,-31.91927 5.75779,-16.004353 19.86868,-28.938303 34.02393,-31.186113 3.21237,-0.510115 4.21054,-0.387582 3.69098,0.453091 -0.90893,1.470686 1.60319,1.476608 11.96874,0.02821 6.81963,-0.952919 8.92033,-0.877363 13.62394,0.490014 5.7192,1.662616 14.41271,6.903991 16.13382,9.727188 1.54782,2.538921 -2.38274,6.877389 -18.32063,20.22197 -17.57276,14.71343 -27.67981,24.73412 -39.27268,38.93709 -4.82498,5.9113 -9.38407,10.74782 -10.13131,10.74782 -0.74725,0 -2.44127,-1.4625 -3.76449,-3.25 z m 17.66848,-65.76369 c 0,-2.143506 -2.90566,-1.833904 -3.32711,0.354508 -0.25737,1.336396 0.14991,1.743671 1.4863,1.486305 1.01245,-0.194979 1.84081,-1.023345 1.84081,-1.840813 z" style="fill:#9e9e56"/><path d="m 118.08318,192.13994 c -6.06371,-1.92294 -18.438405,-9.15977 -18.438405,-10.78293 0,-2.28722 22.850645,-23.4243 41.147285,-38.06168 4.73689,-3.78953 10.36143,-9.69742 14.77889,-15.52342 3.92238,-5.17305 7.86687,-9.68771 8.76553,-10.03256 3.42415,-1.31396 9.85236,7.32526 12.88488,17.31668 2.76901,9.12329 0.76713,24.66044 -4.50582,34.97078 -4.82321,9.43094 -15.64835,17.96292 -28.12258,22.16518 -7.5835,2.5547 -18.35647,2.53355 -26.50978,-0.052 z m -6.22627,-35.75326 c -3.52656,-3.52656 -7.00615,-9.66647 -9.28475,-16.38343 -3.190938,-9.40638 -2.40211,-22.39082 1.88995,-31.10922 3.32207,-6.74809 8.18266,-12.370227 8.18266,-9.464706 0,1.357676 1.14114,1.552006 7.44592,1.268046 7.44139,-0.33516 7.44928,-0.33275 12.9679,3.95255 10.06848,7.81834 18.7892,6.71994 25.03548,-3.1533 4.30959,-6.811981 11.14651,-10.133302 15.35941,-7.461465 1.93742,1.228722 -3.58596,7.989345 -13.80871,16.901865 -18.91354,16.48943 -23.3109,20.76695 -30.38636,29.55822 -4.06326,5.04862 -9.15843,11.17196 -11.32258,13.60742 l -3.93482,4.42812 -2.1441,-2.1441 z" style="fill:#919127"/><path d="m 124.64477,193.18795 c -8.01917,-1.44104 -21.49581,-7.77057 -23.5207,-11.04692 -1.278358,-2.06842 3.24353,-5.91178 35.5207,-30.19072 5.225,-3.93025 11.80219,-9.65013 14.61597,-12.71084 2.81378,-3.06071 6.98221,-7.58993 9.26317,-10.06493 l 4.14719,-4.5 1.91101,2.26715 c 1.05106,1.24693 2.8802,5.17954 4.06475,8.73914 1.18456,3.55959 2.56868,6.72844 3.07583,7.04187 1.36938,0.84632 1.0869,14.11888 -0.43842,20.59929 -2.46331,10.46558 -7.47986,16.91648 -18.1395,23.32603 -9.45164,5.68319 -21.2223,8.20709 -30.5,6.53993 z m -14.88662,-40.5964 c -4.07464,-5.18007 -6.36638,-13.33881 -5.78174,-20.58339 0.9004,-11.15728 3.65262,-17.8895 5.34876,-13.08362 1.24912,3.53928 4.62946,6.25 7.79392,6.25 1.71913,0 3.55319,0.41538 4.07568,0.92306 0.52251,0.50768 2.3,1.07018 3.95,1.25 3.70193,0.40344 4.36197,3.21542 2.08846,8.89749 -1.61458,4.03523 -7.26976,12.69564 -10.89155,16.67945 -2.64641,2.91094 -4.08926,2.83796 -6.58353,-0.33299 z" style="fill:#6f6f0d"/><path d="m 118.64477 190.29965 c -5.57865 -1.79261 -13.25555 -6.11156 -14.53074 -8.17486 -0.39255 -0.63515 0.97447 -2.84442 3.11889 -5.04052 l 3.81775 -3.90973 h 8.11555 c 4.54982 0 10.502 -0.70806 13.54705 -1.61152 6.8586 -2.03493 18.36435 -7.66536 22.9315 -11.2217 4.73845 -3.68972 8.72289 -6.16678 9.91951 -6.16678 1.9866 0 2.259 6.73261 0.52276 12.92052 -3.23771 11.53912 -9.87062 18.53982 -21.72978 22.93469 -7.19552 2.66658 -17.90413 2.77899 -25.71248 0.2699 z" style="fill:#5d5d00"/></g></svg>