<svg xmlns="http://www.w3.org/2000/svg" viewBox="0 0 256 256"><defs><clipPath><rect x="6" y="6" width="84" height="80" rx="6" style="fill:#fff"/></clipPath><linearGradient id="0" gradientUnits="userSpaceOnUse" x1="396.12" y1="544.26" x2="395.64" y2="518.27"><stop style="stop-color:#007aac"/><stop offset="1" style="stop-color:#35cc95"/></linearGradient><linearGradient gradientUnits="userSpaceOnUse" y1="545.8" x2="0" y2="517.8"><stop style="stop-color:#3889e9"/><stop offset="1" style="stop-color:#5ea5fb"/></linearGradient></defs><g style="fill:#20b2aa"><path d="m -1374.42 1658.71 c 127.95 -192.46 -280.09 -311 -226.07 -62.2 23.02 102.82 167.39 165.22 226.07 62.2 z" transform="matrix(-1 0 0 1 -1349.44 -1455.48)" style="color:#000"/></g><g transform="matrix(3.71167 0 0 3.83519 -1145.04 -1885.27)"><circle cx="400.57" cy="531.8" r="14" transform="matrix(1.56825 0 0 1.56825 -284.93 -308.63)" style="fill:url(#0)"/><path d="m 351.02 511.85 c 3.209 1.506 4.66 5.111 3.243 8.07 -1.03 2.155 -2.957 3.161 -4.837 3 -2.028 -0.168 -3.438 -1.669 -3.737 -3.041 -0.478 -2.191 1.776 -4.488 3.53 -3.215 0.29 0.211 0.853 0.896 0.347 1.526 -0.402 0.501 -0.897 -0.23 -1.323 0.296 -0.4 0.494 -0.095 1.188 0.305 1.5 0.823 0.644 1.692 0.401 2.243 0.083 1.805 -1.043 1.596 -3.476 0.561 -4.764 -2.088 -2.6 -6.154 -1.745 -7.705 1.287 -1.169 2.286 -0.652 4.57 0.73 6.339 0.772 0.988 1.899 1.825 3.18 2.249 1.177 0.39 2.406 0.531 3.567 1.22 2.218 1.316 3.192 2.956 3.688 4.558 0.597 1.931 0.611 4.361 -1.04 6.712 -1.531 2.179 -4.14 3.073 -6.422 2.686 -3.873 -0.657 -5.994 -4.646 -4.17 -7.77 1.315 -2.252 4.456 -3.042 6.179 -0.94 0.556 0.678 0.745 1.695 0.499 2.419 -0.557 1.637 -2.223 1.528 -2.529 0.778 -0.254 -0.623 0.587 -0.648 0.471 -1.265 -0.184 -0.982 -1.716 -0.751 -2.301 0.111 -0.743 1.094 -0.239 2.372 0.196 2.925 0.887 1.129 2.3 1.29 3.196 1.169 0.993 -0.133 2.098 -0.723 2.772 -1.663 1.044 -1.453 1.054 -3.088 0.68 -4.292 -0.408 -1.311 -1.227 -2.497 -2.92 -3.353 -2.496 -1.262 -5.211 -0.51 -6.929 0.949 -1.14 0.968 -1.813 1.875 -2.949 2.531 -2.826 1.634 -7.505 1.936 -10.371 -1.915 -1.273 -1.711 -2.032 -4.414 -0.772 -6.938 1.28 -2.565 3.701 -3.671 5.798 -3.461 2.835 0.285 4.477 2.615 4.48 4.575 0.002 1.489 -1.189 3.313 -2.704 3.652 -1.145 0.257 -2.331 -0.294 -2.825 -1.119 -0.563 -0.941 0.099 -2.44 0.959 -2.176 0.679 0.208 0.191 0.732 0.785 0.986 0.992 0.423 1.579 -1.375 0.926 -2.311 -1.187 -1.7 -3.597 -1.068 -4.578 0.18 -1.072 1.365 -0.946 2.864 -0.562 3.904 0.319 0.862 0.951 1.849 2.059 2.494 2.659 1.547 6.236 0.567 7.906 -2.771 1.01 -2.02 0.583 -3.676 0.08 -5.682 -0.433 -1.726 -0.544 -3.727 0.459 -5.742 1.131 -2.271 2.761 -3.439 4.364 -4.03 1.563 -0.579 3.589 -0.643 5.472 0.241 z" style="fill:#fff;fill-opacity:0.851"/></g></svg>