<svg xmlns="http://www.w3.org/2000/svg" viewBox="0 0 256 256" xmlns:xlink="http://www.w3.org/1999/xlink"><defs><clipPath><path fill="#1890d0" transform="matrix(15.33333 0 0 11.5 415 -125.5)" d="m -24 13 c 0 1.105 -0.672 2 -1.5 2 -0.828 0 -1.5 -0.895 -1.5 -2 0 -1.105 0.672 -2 1.5 -2 0.828 0 1.5 0.895 1.5 2 z"/></clipPath><clipPath><path fill="#1890d0" transform="matrix(15.33333 0 0 11.5 415 -125.5)" d="m -24 13 c 0 1.105 -0.672 2 -1.5 2 -0.828 0 -1.5 -0.895 -1.5 -2 0 -1.105 0.672 -2 1.5 -2 0.828 0 1.5 0.895 1.5 2 z"/></clipPath><clipPath><path d="m 27.643 3.295 l 13.09 13.09 h -11.07 c -0.978 0 -2.01 -1.035 -2.01 -2.01 v -11.07 z"/></clipPath><clipPath><path d="m 47.41 6.348 v -1.75 c 0 -2.054 -1.664 -3.719 -3.719 -3.719 h -39.37 c -2.054 0 -3.719 1.664 -3.719 3.719 v 1.75" transform="matrix(0.99561 0 0 0.99561 0.105 0.016)"/></clipPath></defs><g transform="matrix(-1 0 0 1 -1518.03 -1727.32)" fill="#dcdcdc"><path d="m -1539.23 1793.07 c 135.66 329.42 -434.9 174.65 -157.85 -40.478 49.706 -37.47 133.17 -40.36 157.85 40.478 z" color="#000"/></g><g transform="matrix(5.17292 0 0 5.05519 -0.902 11.741)"><path d="m 37 18 v 14 l -12 6 l -12 -6 v -14 l 12 -6" opacity="0.1"/><path d="m 36 17 v 14 l -12 6 l -12 -6 v -14 l 12 -6" fill="#bababa"/><path d="m 35,19 -4,2 0,6 4,2 z" id="0"/><path d="m 34.3 30.735 l -3.708 -2.553 l -5.588 2.818 v 4.4 z"/><use xlink:href="#0"/><path d="m 34.3 17.247 l -3.708 2.553 l -5.588 -2.8 v -4.418 z"/><path d="m 13,19 4,2 0,6 -4,2 z" id="1"/><path d="m 13.704 30.735 l 3.708 -2.553 l 5.588 2.818 v 4.4 z" fill="#000877"/><use xlink:href="#1"/><path d="m 13.704 17.247 l 3.708 2.553 l 5.588 -2.8 v -4.418 z"/><path d="m 20 15 c -1.657 0 -3 1.343 -3 3 0 0.645 0.216 1.229 0.563 1.719 l 0.125 -0.063 c -0.175 -0.378 -0.281 -0.803 -0.281 -1.25 0 -1.657 1.343 -3 3 -3 0.744 0 1.413 0.27 1.938 0.719 c -0.55 -0.686 -1.396 -1.125 -2.344 -1.125 z" fill="#f9f9f9"/><path d="m 29 24 c 0 2.761 -2.239 5 -5 5 -2.761 0 -5 -2.239 -5 -5 0 -2.761 2.239 -5 5 -5 2.761 0 5 2.239 5 5 z"/><g fill="#000877"><path d="m 29.406 28.781 l -4.406 2.219 v 4.406 l 5.781 -2.906 c -0.258 -1.33 -0.744 -2.567 -1.375 -3.719 z"/><path d="m 19.406 22.06 c -0.253 0.598 -0.406 1.247 -0.406 1.938 c 0 2.761 2.239 5 5 5 1.702 0 3.222 -0.857 4.125 -2.156 -2.109 -2.619 -5.194 -4.406 -8.719 -4.781 z"/><path d="m 17 22.03 c -1.409 0.106 -2.752 0.449 -4 0.969 v 6 l 4 -2 v -4.969 z"/></g></g></svg>