<svg xmlns="http://www.w3.org/2000/svg" xmlns:xlink="http://www.w3.org/1999/xlink" viewBox="0 0 256 256"><defs><path id="0" d="m 153.54 78.21 c 0 12.274 -9.95 22.22 -22.22 22.22 -12.274 0 -22.22 -9.95 -22.22 -22.22 0 -12.274 9.95 -22.22 22.22 -22.22 12.274 0 22.22 9.95 22.22 22.22 z" style="fill:#ff4500;color:#000"/><use id="1" xlink:href="#0"/></defs><g transform="matrix(0 -0.98729 -0.99573 0 257.72938 254.11238)" style="fill:#2a9c8a"><use xlink:href="#1" transform="translate(15.781 13.13)" width="1" height="1"/><use xlink:href="#1" transform="translate(18.424 91.18)" width="1" height="1"/><use xlink:href="#1" transform="translate(-66.794 48.49)" width="1" height="1"/><path transform="translate(4.323 -795.63)" d="m 20.935 850.74 c -127.95 190.94 280.09 308.54 226.07 61.711 -23.02 -102.01 -167.39 -163.91 -226.07 -61.711 z" style="color:#000"/></g><g transform="matrix(5.0986965 0 0 5.5553019 2.8032333 -4.0177785)" style="stroke-width:0.06683146"><path d="m 20.349245,32.867597 c -0.2348,-0.11314 -0.2409,-0.31243 -0.025,-0.82161 0.4535,-1.0705 0.7457,-2.32278 0.914,-3.91691 0.1141,-1.08085 0.095,-1.84187 -0.072,-2.93172 -0.08,-0.52293 -0.078,-0.58134 0.033,-0.73514 l 0.1203,-0.16708 1.4621,0.0192 c 0.8041,0.0106 1.5284,0.0334 1.6095,0.0507 0.2409,0.0514 0.2863,0.40051 0.2859,2.2024 -5e-4,2.31172 -0.1565,3.90341 -0.5402,5.50838 -0.2167,0.90649 -0.1423,0.87495 -2.0522,0.8695 -1.0007,-0.003 -1.6394,-0.0315 -1.7353,-0.0777 z m 5.8817,-0.0211 c -0.1632,-0.11436 -0.2793,-0.4631 -0.4787,-1.43896 -0.2608,-1.27591 -0.3489,-2.2124 -0.3869,-4.10823 -0.039,-1.9681 -7e-4,-2.71206 0.1483,-2.8611 0.067,-0.0665 0.4746,-0.10192 1.5822,-0.1372 0.821,-0.0262 1.5474,-0.0265 1.6143,-7.6e-4 0.2086,0.08 0.24,0.30553 0.1354,0.97081 -0.2996,1.90392 0.027,4.63454 0.7889,6.5926 0.1465,0.37661 0.2563,0.73674 0.2441,0.8003 -0.048,0.24741 -0.2951,0.28399 -1.9276,0.28502 -1.3117,7.5e-4 -1.5969,-0.0161 -1.72,-0.10238 z m -10.5701,-4.70984 c -1.5746,-0.33275 -2.741,-1.29597 -3.2941,-2.72029 -0.3876,-0.99825 -0.4811,-2.61047 -0.2174,-3.74766 0.4045,-1.74417 1.9779,-3.40932 3.9056,-4.13339 0.8669,-0.32564 1.4478,-0.4336 2.547,-0.47345 2.1056,-0.0763 3.2446,0.21989 5.0736,1.31948 1.2615,0.75842 1.4353,0.75995 2.6442,0.0232 1.3789,-0.84034 2.2157,-1.15212 3.4987,-1.3037 0.789,-0.0932 2.4199,-0.0384 3.0655,0.10296 2.0727,0.45394 3.8368,1.78852 4.6555,3.52181 0.3905,0.82681 0.464,1.22063 0.4604,2.46684 0,0.91268 -0.028,1.19418 -0.147,1.63349 -0.2417,0.89225 -0.5688,1.47007 -1.1764,2.07834 -0.9535,0.95449 -2.0606,1.35504 -3.5408,1.28111 -1.2847,-0.0641 -2.1233,-0.38702 -2.8264,-1.08812 -0.8224,-0.82011 -1.2926,-2.38783 -0.8348,-2.78344 0.085,-0.0732 0.4646,-0.12484 1.4189,-0.19296 0.7168,-0.0512 1.3921,-0.0879 1.5007,-0.0817 0.2301,0.0132 0.3706,0.17461 0.3706,0.42586 0,0.30779 0.1403,0.59869 0.3381,0.70097 0.7992,0.41329 1.5721,-0.46728 1.6503,-1.88031 0.026,-0.47146 0.01,-0.68967 -0.084,-0.96905 -0.4179,-1.27539 -1.1527,-2.02084 -2.3384,-2.37228 -0.2789,-0.0827 -0.635,-0.11972 -1.1696,-0.1217 -0.9411,-0.003 -1.3984,0.12461 -2.3725,0.6645 -1.9147,1.06119 -2.496,1.25431 -3.776,1.25431 -1.2811,0 -1.8282,-0.18197 -3.7759,-1.25595 -0.9776,-0.53901 -1.4333,-0.66633 -2.3726,-0.66286 -0.8583,0.003 -1.3212,0.10829 -1.953,0.44348 -0.9431,0.50032 -1.6571,1.73199 -1.6551,2.85489 0,1.11483 0.5981,2.14318 1.2424,2.14318 0.4585,0 0.7618,-0.28836 0.7618,-0.72442 0,-0.24927 0.185,-0.47888 0.401,-0.49753 0.092,-0.008 0.7632,0.0287 1.4918,0.0814 1.2722,0.092 1.3299,0.10236 1.4536,0.25964 0.1573,0.2 0.1668,0.57337 0.028,1.10604 -0.319,1.22493 -1.152,2.08878 -2.4001,2.489 -0.4391,0.1408 -0.7021,0.17757 -1.4087,0.19693 -0.4779,0.0131 -1.0019,-0.004 -1.1645,-0.0387 z" style="fill:#00001b;opacity:0.1"/><path d="m 19.349261,31.867811 c -0.2348,-0.11314 -0.2409,-0.31243 -0.025,-0.82161 0.4535,-1.0705 0.7457,-2.32278 0.914,-3.91691 0.1141,-1.08085 0.095,-1.84187 -0.072,-2.93172 -0.08,-0.52293 -0.078,-0.58134 0.033,-0.73514 l 0.1203,-0.16708 1.4621,0.0192 c 0.8041,0.0106 1.5284,0.0334 1.6095,0.0507 0.2409,0.0514 0.2863,0.40051 0.2859,2.2024 -5e-4,2.31172 -0.1565,3.90341 -0.5402,5.50838 -0.2167,0.90649 -0.1423,0.87495 -2.0522,0.8695 -1.0007,-0.003 -1.6394,-0.0315 -1.7353,-0.0777 z m 5.8817,-0.0211 c -0.1632,-0.11436 -0.2793,-0.4631 -0.4787,-1.43896 -0.2608,-1.27591 -0.3489,-2.2124 -0.3869,-4.10823 -0.039,-1.9681 -7e-4,-2.71206 0.1483,-2.8611 0.067,-0.0665 0.4746,-0.10192 1.5822,-0.1372 0.821,-0.0262 1.5474,-0.0265 1.6143,-7.6e-4 0.2086,0.08 0.24,0.30553 0.1354,0.97081 -0.2996,1.90392 0.027,4.63454 0.7889,6.5926 0.1465,0.37661 0.2563,0.73674 0.2441,0.8003 -0.048,0.24741 -0.2951,0.28399 -1.9276,0.28502 -1.3117,7.5e-4 -1.5969,-0.0161 -1.72,-0.10238 z m -10.5701,-4.70984 c -1.5746,-0.33275 -2.741,-1.29597 -3.2941,-2.72029 -0.3876,-0.99825 -0.4811,-2.61047 -0.2174,-3.74766 0.4045,-1.74417 1.9779,-3.40932 3.9056,-4.13339 0.8669,-0.32564 1.4478,-0.4336 2.547,-0.47345 2.1056,-0.0763 3.2446,0.21989 5.0736,1.31948 1.2615,0.75842 1.4353,0.75995 2.6442,0.0232 1.3789,-0.84034 2.2157,-1.15212 3.4987,-1.3037 0.789,-0.0932 2.4199,-0.0384 3.0655,0.10296 2.0727,0.45394 3.8368,1.78852 4.6555,3.52181 0.3905,0.82681 0.464,1.22063 0.4604,2.46684 0,0.91268 -0.028,1.19418 -0.147,1.63349 -0.2417,0.89225 -0.5688,1.47007 -1.1764,2.07834 -0.9535,0.95449 -2.0606,1.35504 -3.5408,1.28111 -1.2847,-0.0641 -2.1233,-0.38702 -2.8264,-1.08812 -0.8224,-0.82011 -1.2926,-2.38783 -0.8348,-2.78344 0.085,-0.0732 0.4646,-0.12484 1.4189,-0.19296 0.7168,-0.0512 1.3921,-0.0879 1.5007,-0.0817 0.2301,0.0132 0.3706,0.17461 0.3706,0.42586 0,0.30779 0.1403,0.59869 0.3381,0.70097 0.7992,0.41329 1.5721,-0.46728 1.6503,-1.88031 0.026,-0.47146 0.01,-0.68967 -0.084,-0.96905 -0.4179,-1.27539 -1.1527,-2.02084 -2.3384,-2.37228 -0.2789,-0.0827 -0.635,-0.11972 -1.1696,-0.1217 -0.9411,-0.003 -1.3984,0.12461 -2.3725,0.6645 -1.9147,1.06119 -2.496,1.25431 -3.776,1.25431 -1.2811,0 -1.8282,-0.18197 -3.7759,-1.25595 -0.9776,-0.53901 -1.4333,-0.66633 -2.3726,-0.66286 -0.8583,0.003 -1.3212,0.10829 -1.953,0.44348 -0.9431,0.50032 -1.6571,1.73199 -1.6551,2.85489 0,1.11483 0.5981,2.14318 1.2424,2.14318 0.4585,0 0.7618,-0.28836 0.7618,-0.72442 0,-0.24927 0.185,-0.47888 0.401,-0.49753 0.092,-0.008 0.7632,0.0287 1.4918,0.0814 1.2722,0.092 1.3299,0.10236 1.4536,0.25964 0.1573,0.2 0.1668,0.57337 0.028,1.10604 -0.319,1.22493 -1.152,2.08878 -2.4001,2.489 -0.4391,0.1408 -0.7021,0.17757 -1.4087,0.19693 -0.4779,0.0131 -1.0019,-0.004 -1.1645,-0.0387 z" style="fill:#26450e"/></g></svg>