<svg xmlns="http://www.w3.org/2000/svg" xmlns:xlink="http://www.w3.org/1999/xlink" viewBox="0 0 256 256"><defs><path id="0" d="m 153.54 78.21 c 0 12.274 -9.95 22.22 -22.22 22.22 -12.274 0 -22.22 -9.95 -22.22 -22.22 0 -12.274 9.95 -22.22 22.22 -22.22 12.274 0 22.22 9.95 22.22 22.22 z" style="fill:#ff4500;color:#000"/><use id="1" xlink:href="#0"/></defs><g transform="matrix(0.98729 0 0 0.99573 1.888 -1.729)" style="fill:#708090"><use xlink:href="#1" transform="translate(15.781 13.13)" width="1" height="1"/><use xlink:href="#1" transform="translate(18.424 91.18)" width="1" height="1"/><use xlink:href="#1" transform="translate(-66.794 48.49)" width="1" height="1"/><path transform="translate(4.323 -795.63)" d="m 20.935 850.74 c -127.95 190.94 280.09 308.54 226.07 61.711 -23.02 -102.01 -167.39 -163.91 -226.07 -61.711 z" style="color:#000"/></g><path d="m 114.81 204.58 c -29.511 -4.981 -53.777 -26.909 -61.703 -55.759 -2.056 -7.483 -2.344 -27.698 -0.502 -35.24 7.136 -29.22 25.442 -48.777 53.54 -57.19 11.354 -3.4 27.601 -3.589 39.466 -0.46 18.494 4.878 34.1 16.07 44.21 31.703 8.992 13.902 12.919 28.545 12.181 45.41 -0.554 12.645 -2.142 19.13 -7.223 29.518 -14.448 29.52 -48.38 47.35 -79.969 42.02 z m 17.801 -21.451 c 7.572 -4.569 15.786 -11.29 15.786 -12.916 0 -1.054 -2.748 -3.722 -7.197 -6.985 -12.08 -8.862 -15.236 -9.676 -16.328 -4.216 -0.504 2.521 -0.949 2.866 -3.698 2.866 -4.462 0 -13.747 -4.942 -18.04 -9.603 -2.02 -2.19 -4.882 -6.04 -6.364 -8.566 -2.516 -4.282 -2.688 -5.199 -2.588 -13.873 0.089 -7.751 0.511 -10.275 2.554 -15.253 3.989 -9.722 2.861 -14.932 -3.233 -14.932 -3.614 0 -6.691 3.146 -10.07 10.302 -5.166 10.925 -5.855 24.857 -1.771 35.775 2.264 6.05 9.975 16.622 15.204 20.843 4.727 3.815 13.408 7.81 21.255 9.782 5.914 1.486 6.161 1.665 7.097 5.143 1.13 4.198 2.61 4.525 7.399 1.635 z m 30.955 -25.01 c 1.33 -1.046 3.937 -4.977 5.794 -8.735 8.882 -17.974 5.323 -38.756 -9.146 -53.41 -6.086 -6.164 -13.201 -10.136 -23.317 -13.02 -7.358 -2.097 -7.212 -1.996 -8.547 -5.896 -0.556 -1.624 -1.601 -3.065 -2.322 -3.203 -1.836 -0.351 -11.971 5.814 -17.291 10.518 l -4.45 3.935 l 2.322 2.506 c 3.496 3.774 17.379 12.735 19.19 12.387 0.887 -0.171 1.932 -1.637 2.369 -3.323 0.95 -3.667 3.055 -3.903 10.09 -1.131 10.834 4.271 18.956 13.185 20.539 22.543 1.166 6.893 0.021 17.479 -2.586 23.895 -2.828 6.961 -2.819 9.693 0.041 12.554 2.776 2.776 4.176 2.848 7.317 0.377 z" style="fill:#fff;fill-rule:evenodd"/></svg>