<svg xmlns="http://www.w3.org/2000/svg" viewBox="0 0 256 256"><defs><clipPath><path d="m 448.99 63.03 c -59.697 -59.697 -326.18 -59.697 -385.88 0 -59.697 59.697 -59.697 326.28 -0.1 385.98 c 59.6 59.696 326.28 59.6 385.98 0 59.697 -59.6 59.6 -326.28 0 -385.98"/></clipPath><clipPath><path d="m 18.325 493.74 h 475.4 v -475.49 h -475.4 v 475.49 z"/></clipPath><clipPath><path d="m 18.275 493.69 h 475.39 v -475.44 h -475.39 v 475.44 z"/></clipPath><clipPath id="0"><path d="m 0 512 h 512 v -512 h -512 v 512"/></clipPath><clipPath><path d="m 63.01 63.03 c 59.697 -59.697 326.18 -59.697 385.88 0 59.697 59.697 59.697 326.18 0 385.88 -59.697 59.696 -326.18 59.696 -385.88 0.1 -59.697 -59.6 -59.6 -326.28 0 -385.98"/></clipPath></defs><path d="m 31.87 62.61 c 210.75 -226.71 343.53 241.2 63.746 189.6 -73.816 -25.452 -131.42 -116.81 -63.746 -189.6 z" style="fill:#f26a37;color:#000"/><g transform="matrix(0.69827 0 0 -0.72721 140.46 466.23)"><g transform="translate(-272.23 205.04)" style="clip-path:url(#0)"><path d="M 0,0 C -2.251,-7.663 -10.287,-12.05 -17.951,-9.798 -25.614,-7.547 -30,0.49 -27.749,8.152 c 2.251,7.662 10.288,12.05 17.951,9.799 C -2.135,15.699 2.251,7.662 0,0 m -15.804,-100.922 -2.237,0 c 3.358,7.555 10.071,20.01 9.51,33.302 -0.278,7.416 -3.076,15.392 -7.831,21.268 -5.316,6.858 -14.27,12.316 -22.1,12.874 l 0,-79.337 c 0,-6.298 -3.777,-12.034 -9.232,-16.232 -5.316,-4.197 -12.311,-6.717 -18.464,-6.717 -3.918,0 -7.556,1.259 -10.071,3.359 -2.658,2.098 -4.198,5.176 -4.198,8.814 0,5.736 3.916,11.475 9.232,15.671 5.316,4.339 12.029,7.137 17.624,7.137 4.897,0 9.093,-0.701 11.611,-3.078 l 0,107.882 3.497,0 c 0.979,-6.994 1.118,-15.811 8.392,-24.627 5.595,-6.716 11.89,-12.731 16.227,-18.188 5.734,-7.137 9.79,-16.093 9.79,-25.189 0,-14.551 -6.992,-28.962 -11.75,-36.939 M 28.415,25.013 9.485,30.574 -19.19,38.997 -38.121,44.558 -85.874,-1.7 l -42.229,-143.747 50.38,-14.801 28.676,-8.423 50.38,-14.801 42.229,143.748 -15.147,64.737 z" transform="translate(298.27 325.46)" style="fill:#fff"/></g></g></svg>