<svg xmlns="http://www.w3.org/2000/svg" viewBox="0 0 256 256"><g style="fill:#2f4f4f;color:#000"><path d="m 2.967 952.88 c 15.875 104.05 156.87 131.89 219.1 57.62 54.798 -55.17 41.16 -160.78 -26.05 -196.99 -77.21 -48.44 -189.69 11.446 -195.83 107.88 c -0.632 10.565 0.26 21.245 2.771 31.493 z" transform="translate(0 -796.36)"/></g><path d="m 81.71 192.34 c -11.305 -5.46 -16.271 -13.69 -15.6 -25.853 0.496 -8.981 3.865 -14.99 11.474 -20.466 3.864 -2.781 6.117 -3.416 15.482 -4.365 l 10.96 -1.111 v -11.941 v -11.941 l -9.315 -0.733 c -10.767 -0.847 -15.901 -2.738 -20.99 -7.732 -11.205 -10.996 -10.982 -26.411 0.547 -37.77 5.249 -5.172 8.63 -6.475 16.799 -6.475 c 10.636 0 17.05 3.753 22.437 13.13 2.133 3.712 2.867 6.84 3.31 14.11 0.313 5.137 0.968 10 1.456 10.809 0.973 1.612 15.435 2.802 19.95 1.642 2.408 -0.619 2.697 -1.41 3.405 -9.316 1.095 -12.225 3.939 -19.327 9.886 -24.686 5.99 -5.398 12.922 -7.273 21.05 -5.694 13.465 2.614 20.753 11.531 20.702 25.327 -0.029 7.679 -2.578 13.916 -7.736 18.926 -5.242 5.092 -10.431 6.944 -21.756 7.767 l -9.937 0.722 l 0.666 5.675 c 0.366 3.121 0.67 8.5 0.676 11.952 l 0.01 6.277 l 8.437 0.753 c 12.148 1.084 17.921 3.282 22.626 8.614 5.342 6.05 7.04 10.637 7.03 19 -0.006 10.385 -4.95 18.04 -14.692 22.741 -8.602 4.153 -17.542 3.124 -26.27 -3.02 -6.189 -4.359 -8.956 -10.681 -10.409 -23.778 l -1.184 -10.671 h -10.6 c -7.179 0 -10.947 0.45 -11.678 1.393 -0.593 0.766 -1.336 5.446 -1.651 10.4 -0.806 12.673 -5.497 21.11 -14.339 25.792 -5.186 2.745 -15.612 3.01 -20.755 0.526 z m 16.12 -12.325 c 1.679 -1.134 3.7 -3.01 4.49 -4.172 2.066 -3.036 3.138 -10.952 2.278 -16.824 l -0.741 -5.061 l -9.329 0.501 c -9.1 0.489 -9.419 0.603 -12.977 4.577 -2.953 3.299 -3.648 4.986 -3.648 8.859 0 10.679 11.605 17.737 19.927 12.12 z m 79.39 -2.125 c 4.127 -4.225 5.345 -12.08 2.55 -16.449 -3.319 -5.185 -7.99 -7.204 -16.681 -7.209 l -7.892 -0.004 v 9.512 c 0 10.388 1.302 13.786 6.415 16.745 4.491 2.599 11.706 1.399 15.608 -2.595 z m -36.16 -46.787 c 0.009 -5.364 0.31 -10.88 0.671 -12.259 0.649 -2.479 0.53 -2.508 -10.268 -2.508 -6.01 0 -11.699 0.304 -12.646 0.676 -1.407 0.553 -1.722 2.66 -1.722 11.516 0 5.962 0.327 11.174 0.726 11.583 0.399 0.409 5.788 0.743 11.975 0.743 h 11.249 l 0.015 -9.752 z m -38.23 -28.04 c 0.986 -0.639 1.699 -3.882 2.036 -9.264 0.506 -8.07 0.428 -8.387 -2.988 -12.371 -6.01 -7.01 -15.227 -7.361 -20.976 -0.793 -3.474 3.969 -4.03 10.369 -1.349 15.667 2.085 4.128 5.116 5.837 11.963 6.744 8.203 1.087 9.661 1.089 11.315 0.017 z m 72.09 -1.833 c 6.03 -3.192 8.321 -12.996 4.561 -19.513 -5.268 -9.131 -22 -6.989 -23.84 3.052 -1.432 7.814 -1.102 17.07 0.651 18.29 2.167 1.503 14.649 0.278 18.628 -1.829 z" style="fill:#4682b4;opacity:0.99"/></svg>