<svg xmlns="http://www.w3.org/2000/svg" viewBox="0 0 256 256"><path d="m 226.22 211.58 c 62.27 -95.76 12.03 -183 -58.47 -203.69 -94.83 -27.843 -223.59 45.32 -138.75 196.1 c 33.72 59.925 152.85 75.79 197.21 7.587 z" style="fill:#9f9f03;color:#000"/><path d="M 136.9821,102.08921 C 113.82945,73.242359 94.219338,49.590169 93.404104,49.528791 c -0.815235,-0.0613 -1.482245,-1.428391 -1.482245,-3.037814 0,-1.609423 0.66701,-2.932676 1.482245,-2.940576 0.815234,-0.0073 3.349873,-2.63505 5.632529,-5.838093 l 4.150287,-5.823711 9.88373,-0.01463 9.88371,-0.01463 9.38546,11.832095 9.38546,11.832094 9.43143,-11.890047 9.43143,-11.89005 10.4173,0.423732 c 14.48269,0.589092 14.40489,1.764791 -1.42869,21.590289 -14.56801,18.240839 -14.53923,18.076491 -5.18477,29.618644 l 5.77892,7.130398 23.7258,-29.38049 23.72581,-29.38048 10.35921,0.422678 c 8.99629,0.367079 10.41461,0.779984 10.7802,3.138374 0.29875,1.927299 -7.39303,12.390462 -26.49457,36.040721 -23.69957,29.343235 -26.81146,33.729725 -26.04434,36.711955 0.47916,1.86279 6.16928,9.83323 12.6447,17.71205 l 11.77351,14.32516 -5.9424,7.33211 -5.9424,7.33212 -9.83929,-0.11163 -9.83928,-0.11164 -42.09575,-52.44882 z" transform="translate(-40.707965 46.017699)" style="fill:#eded00"/></svg>