<svg xmlns="http://www.w3.org/2000/svg" viewBox="0 0 256 256"><g transform="matrix(0.89241 0 0 0.85792 24.943 -641.36)"><path d="m 254.35 863.8 c -55.12 -274.55 -434.33 20.19 -206.53 159.74 88.5 59.816 234.88 -18.539 206.53 -159.74 z" style="fill:#d3d3d3;color:#000"/><rect width="128.57" height="130.77" x="72.53" y="69.19" transform="matrix(1.12056 0 0 1.16562 -27.951 747.58)" rx="0.611" style="fill:#fff;opacity:0.99"/><g transform="matrix(1.12662 0 0 1.0896 -6.95 -73.16)"><path d="m 55.27 967.91 c -1.374 -0.287 -3.517 -1.868 -4.762 -3.514 -2.209 -2.922 -2.263 -4.545 -2.263 -67.953 0 -63.953 0.036 -65.01 2.322 -68.03 l 2.322 -3.071 h 63.765 h 63.765 l 1.987 3.154 c 1.842 2.924 1.987 7.89 1.987 68.16 v 65.01 l -3.106 3.232 l -3.106 3.232 l -60.21 0.152 c -33.11 0.084 -61.33 -0.083 -62.704 -0.369 z m 73.45 -12.06 c -0.351 -2.323 -1.107 -2.377 -36.484 -2.623 -29.332 -0.203 -36.23 0.043 -36.702 1.312 -0.317 0.859 -0.293 2.039 0.054 2.623 0.357 0.602 16.391 1.06 37.06 1.06 36.01 0 36.426 -0.027 36.07 -2.372 z m -33.415 -123.51 c 0 -1.577 -37.722 -1.577 -38.659 0 -0.452 0.76 6.151 1.166 18.983 1.166 12.37 0 19.676 -0.433 19.676 -1.166 z" style="fill:#ccd8e3"/><path d="m 54.12 965.61 c -0.777 -0.326 -1.863 -1.465 -2.411 -2.531 -0.922 -1.79 2.01 -1.938 38.39 -1.938 h 39.39 l 0.378 -4.662 c 0.208 -2.564 0.036 -9.5 -0.382 -15.413 l -0.761 -10.751 l -15.866 -0.323 l -15.866 -0.323 l -0.296 -36.22 c -0.163 -19.921 0.135 -41.951 0.661 -48.956 0.6 -7.979 0.554 -13.28 -0.122 -14.193 -1.314 -1.775 -39.616 -2.059 -42.26 -0.314 -1.45 0.956 -1.681 7.789 -1.681 49.812 0 26.788 -0.487 52.38 -1.083 56.864 l -1.083 8.159 l -0.78 -5.828 c -0.989 -7.393 -1.22 -100.43 -0.261 -105.42 1.378 -7.167 -0.255 -6.977 66.59 -7.769 68.891 -0.817 64.58 -1.363 66.12 8.383 1.469 9.292 1.196 123.88 -0.302 126.81 -2.775 5.42 -1.529 5.321 -65.895 5.263 -33.589 -0.03 -61.707 -0.322 -62.48 -0.647 z" style="fill:#b4c6d6"/><path d="m 56.09 964.05 c 0 -0.754 13.08 -1.166 37.01 -1.166 h 37.01 l -0.311 -16.61 l -0.311 -16.61 l -15.688 -0.583 l -15.688 -0.583 l 0.046 -42.545 c 0.031 -28.554 0.448 -43.28 1.27 -44.781 1.074 -1.96 1.322 -1.636 2.01 2.623 l 0.789 4.858 h 36.915 c 41.964 0 38.26 1.055 38.427 -10.948 l 0.099 -7.119 l -40.06 -0.306 c -34.579 -0.264 -40.06 -0.543 -40.06 -2.04 0 -1.503 5.43 -1.734 40.763 -1.734 36.543 0 40.922 0.199 42.3 1.927 1.255 1.572 1.591 13.835 1.824 66.65 l 0.286 64.723 l -2.443 2.705 l -2.443 2.705 h -60.875 c -39.836 0 -60.875 -0.403 -60.875 -1.166 z" style="fill:#8cabc7"/><path d="m 56.09 964.05 c 0 -0.754 13.08 -1.166 37.01 -1.166 h 37.01 l -0.311 -16.61 l -0.311 -16.61 l -15.688 -0.583 l -15.688 -0.583 l 0.046 -42.545 c 0.033 -30.564 0.419 -43.2 1.37 -44.876 1.058 -1.863 1.275 0.714 1.077 12.822 -0.136 8.334 0.211 27.9 0.772 43.48 l 1.02 28.327 l 40.16 -0.352 l 40.16 -0.352 v 17.572 c -0.001 16.861 -0.106 17.675 -2.594 20.11 l -2.593 2.534 h -60.718 c -39.732 0 -60.718 -0.403 -60.718 -1.166 z m 122.89 -43.905 c -0.963 -1 -0.769 -23.715 0.311 -36.523 0.685 -8.122 0.867 -5.653 1.01 13.696 0.095 12.982 0.006 23.604 -0.2 23.604 -0.205 0 -0.71 -0.35 -1.121 -0.777 z m 3.12 -41.768 c 0 -23.08 0.149 -32.686 0.333 -21.348 0.183 11.338 0.184 30.22 0.001 41.962 -0.183 11.742 -0.333 2.465 -0.333 -20.614 z m -79.24 8.451 c -0.565 -1.694 2.57 -14.07 5.932 -23.418 2.465 -6.853 5 -8.786 8.775 -6.685 2.492 1.387 10.92 26.884 9.847 29.792 -0.386 1.047 -2.049 1.769 -4.077 1.769 -2.622 0 -3.674 -0.683 -4.49 -2.914 -0.8 -2.189 -1.878 -2.914 -4.333 -2.914 -2.551 0 -3.422 0.639 -3.971 2.914 -0.548 2.27 -1.421 2.914 -3.95 2.914 -1.786 0 -3.466 -0.656 -3.733 -1.457 z m 13.12 -12.425 c 0.895 -1.506 -0.532 -4.884 -1.736 -4.109 -1.334 0.858 -1.292 5.17 0.051 5.17 0.58 0 1.338 -0.477 1.684 -1.06 z m 61.738 -44.803 c -1.487 -1.131 -1.69 -1.812 -0.725 -2.432 1.39 -0.893 4.603 1.186 4.603 2.979 0 1.472 -1.501 1.26 -3.878 -0.548 z m -80.16 -1.344 c 0 -1.201 0.734 -1.772 1.961 -1.527 2.362 0.473 2.213 2.542 -0.221 3.069 -1.015 0.22 -1.74 -0.423 -1.74 -1.542 z" style="fill:#9aabb8"/><path d="m 131.17 947.38 c 0 -11.41 -0.424 -17.11 -1.345 -18.07 -0.911 -0.948 -6.151 -1.399 -16.248 -1.399 h -14.903 l 0.112 -27.1 c 0.061 -14.905 0.472 -28.412 0.913 -30.01 0.948 -3.449 2.326 20.847 2.333 41.13 l 0.005 13.737 l 39.5 -0.128 l 39.5 -0.128 l 0.31 16.958 c 0.425 23.24 2.374 21.682 -27.2 21.682 h -22.971 v -16.668 z m 47.811 -27.24 c -0.963 -1 -0.769 -23.715 0.311 -36.523 0.685 -8.122 0.867 -5.653 1.01 13.696 0.095 12.982 0.006 23.604 -0.2 23.604 -0.205 0 -0.71 -0.35 -1.121 -0.777 z m -76.12 -33.32 c -0.565 -1.694 2.57 -14.07 5.932 -23.418 2.465 -6.853 5 -8.786 8.775 -6.685 2.492 1.387 10.92 26.884 9.847 29.792 -0.386 1.047 -2.049 1.769 -4.077 1.769 -2.622 0 -3.674 -0.683 -4.49 -2.914 -0.8 -2.189 -1.878 -2.914 -4.333 -2.914 -2.551 0 -3.422 0.639 -3.971 2.914 -0.548 2.27 -1.421 2.914 -3.95 2.914 -1.786 0 -3.466 -0.656 -3.733 -1.457 z m 13.12 -12.425 c 0.895 -1.506 -0.532 -4.884 -1.736 -4.109 -1.334 0.858 -1.292 5.17 0.051 5.17 0.58 0 1.338 -0.477 1.684 -1.06 z m 61.63 -44.944 c -1.196 -0.941 -1.607 -1.728 -0.912 -1.748 0.695 -0.02 1.891 0.75 2.658 1.711 1.771 2.22 1.048 2.236 -1.747 0.037 z m -78.36 -1.805 c 0.387 -0.652 1.173 -0.883 1.747 -0.514 1.554 0.999 1.264 1.699 -0.704 1.699 -0.961 0 -1.43 -0.533 -1.043 -1.185 z" style="fill:#7796ae"/><path d="m 132.26 962.01 c -0.014 -0.481 -0.307 -7.095 -0.651 -14.699 -0.344 -7.603 -0.321 -15.09 0.052 -16.633 l 0.678 -2.808 l 24.345 0.314 l 24.345 0.314 l 0.315 15.02 c 0.435 20.755 2.321 19.364 -26.26 19.364 -12.539 0 -22.809 -0.393 -22.823 -0.874 z m -27.442 -76.08 c -0.784 -1.319 5.729 -24.19 7.545 -26.494 2.211 -2.807 5.064 -1.582 6.789 2.914 3.142 8.192 6.571 21.489 5.965 23.13 -0.932 2.527 -2.829 1.946 -4.252 -1.304 -2.318 -5.291 -9.59 -5.26 -11.916 0.05 -1.33 3.037 -2.942 3.702 -4.13 1.703 z m 12.9 -12.14 c 0 -3.627 -1.882 -8.818 -3.198 -8.818 -1.188 0 -3.656 9.328 -2.834 10.712 0.309 0.52 1.792 0.945 3.296 0.945 2.151 0 2.735 -0.606 2.735 -2.838 z" style="fill:#4ebd2c"/><path d="m 136.4 950.45 c -0.411 -0.427 -0.747 -3.312 -0.747 -6.411 0 -5.196 0.213 -5.634 2.735 -5.634 3.23 0 4.281 1.463 4.795 6.675 0.32 3.243 -0.077 4.03 -2.528 4.997 -3.453 1.366 -3.313 1.353 -4.255 0.373 z m 4.641 -2.807 c -0.221 -0.689 -0.881 -1.253 -1.466 -1.253 -0.585 0 -1.245 0.564 -1.466 1.253 -0.221 0.689 0.439 1.253 1.466 1.253 1.027 0 1.687 -0.564 1.466 -1.253 z m -36.22 -61.714 c -0.784 -1.319 5.729 -24.19 7.545 -26.494 2.211 -2.807 5.064 -1.582 6.789 2.914 3.142 8.192 6.571 21.489 5.965 23.13 -0.932 2.527 -2.829 1.946 -4.252 -1.304 -2.318 -5.291 -9.59 -5.26 -11.916 0.05 -1.33 3.037 -2.942 3.702 -4.13 1.703 z m 12.9 -12.14 c 0 -3.627 -1.882 -8.818 -3.198 -8.818 -1.188 0 -3.656 9.328 -2.834 10.712 0.309 0.52 1.792 0.945 3.296 0.945 2.151 0 2.735 -0.606 2.735 -2.838 z" style="fill:#41594f"/></g></g></svg>