<svg xmlns="http://www.w3.org/2000/svg" viewBox="0 0 256 256"><g transform="matrix(0.98804 0 0 1 -0.513 -798.6)"><path d="m 27.15 851.72 c -127.95 190.02 280.09 307.05 226.07 61.41 -23.02 -101.52 -167.39 -163.12 -226.07 -61.41 z" style="fill:#cfbcdc;color:#000"/><g transform="matrix(19.6254 0 0 18.0287 -3 801.4)"><g transform="matrix(0.28222 0 0 -0.28222 0 13.829)" style="fill:#e8e070"><path d="M 24.825,37 C 21.915,37 19.491,35.048 18.936,32.457 18.723,31.651 18.214,31.107 16.825,31 l 0.016,-0.006 c -2.669,-0.327 -4.842,-2.706 -4.842,-5.631 0,-1.816 0.924,-3.48 2.416,-4.533 0.633,-0.563 0.917,-1.334 0.451,-2.932 -0.058,-0.2 -0.069,-0.781 -0.096,-1.043 0,-3.131 2.69,-5.682 6.01,-5.67 0.835,0.003 1.453,0.148 2.182,0.402 1.256,0.438 1.892,0.387 3.367,-0.158 0.713,-0.275 1.48,-0.428 2.266,-0.43 3.321,0 6.01,2.541 6.01,5.674 -10e-4,0.395 -0.06,0.783 -0.146,1.166 l 0.004,-0.004 c -0.116,1.383 0.321,2.16 1.439,2.984 1.296,1.053 2.101,2.595 2.102,4.285 0,2.846 -1.66,5.16 -5.424,5.592 -1.218,0.382 -1.543,0.725 -1.861,1.795 -0.569,2.575 -2.991,4.509 -5.893,4.508 z m 0.174,-8.756 c 0.256,0 0.511,-0.099 0.707,-0.295 0,0 0.536,-0.778 0.949,-0.949 0.414,-0.171 1.344,0 1.344,0 0.554,0 1,-0.446 1,-1 0,0 -0.171,-0.93 0,-1.344 0.171,-0.413 0.949,-0.949 0.949,-0.949 0.392,-0.392 0.392,-1.022 0,-1.414 0,0 -0.778,-0.536 -0.949,-0.949 -0.171,-0.414 0,-1.344 0,-1.344 0,-0.554 -0.446,-1 -1,-1 0,0 -0.93,0.171 -1.344,0 -0.413,-0.171 -0.949,-0.949 -0.949,-0.949 -0.392,-0.392 -1.022,-0.392 -1.414,0 0,0 -0.536,0.778 -0.949,0.949 -0.414,0.171 -1.344,0 -1.344,0 -0.554,0 -1,0.446 -1,1 0,0 0.171,0.93 0,1.344 -0.171,0.413 -0.949,0.949 -0.949,0.949 -0.392,0.392 -0.392,1.022 0,1.414 0,0 0.778,0.536 0.949,0.949 0.171,0.414 0,1.344 0,1.344 0,0.554 0.446,1 1,1 0,0 0.93,-0.171 1.344,0 0.413,0.171 0.949,0.949 0.949,0.949 0.196,0.196 0.451,0.295 0.707,0.295 z m 0,-2.258 a 3,3 0 0 1 -3,-3 3,3 0 0 1 3,-3 3,3 0 0 1 3,3 3,3 0 0 1 -3,3 z" style="fill:#000;opacity:0.1"/><path d="m 23.826,11 c -2.91,0 -5.334,1.952 -5.889,4.543 -0.213,0.806 -0.722,1.35 -2.111,1.457 l 0.016,0.006 C 13.173,17.333 11,19.712 11,22.637 c 0,1.816 0.924,3.48 2.416,4.533 0.633,0.563 0.917,1.334 0.451,2.932 -0.058,0.2 -0.069,0.781 -0.096,1.043 0,3.131 2.69,5.682 6.01,5.67 0.835,-0.003 1.453,-0.148 2.182,-0.402 1.256,-0.438 1.892,-0.387 3.367,0.158 0.713,0.275 1.48,0.428 2.266,0.43 3.321,0 6.01,-2.541 6.01,-5.674 -0.001,-0.395 -0.06,-0.783 -0.146,-1.166 l 0.004,0.004 c -0.116,-1.383 0.321,-2.16 1.439,-2.984 1.296,-1.053 2.101,-2.595 2.102,-4.285 0,-2.846 -1.66,-5.16 -5.424,-5.592 C 30.363,16.922 30.038,16.579 29.72,15.509 29.151,12.934 26.729,11 23.827,11.001 m 0.174,8.756 c 0.256,0 0.511,0.099 0.707,0.295 0,0 0.536,0.778 0.949,0.949 0.414,0.171 1.344,0 1.344,0 0.554,0 1,0.446 1,1 0,0 -0.171,0.93 0,1.344 0.171,0.413 0.949,0.949 0.949,0.949 0.392,0.392 0.392,1.022 0,1.414 0,0 -0.778,0.536 -0.949,0.949 -0.171,0.414 0,1.344 0,1.344 0,0.554 -0.446,1 -1,1 0,0 -0.93,-0.171 -1.344,0 -0.413,0.171 -0.949,0.949 -0.949,0.949 -0.392,0.392 -1.022,0.392 -1.414,0 0,0 -0.536,-0.778 -0.949,-0.949 -0.414,-0.171 -1.344,0 -1.344,0 -0.554,0 -1,-0.446 -1,-1 0,0 0.171,-0.93 0,-1.344 -0.171,-0.413 -0.949,-0.949 -0.949,-0.949 -0.392,-0.392 -0.392,-1.022 0,-1.414 0,0 0.778,-0.536 0.949,-0.949 0.171,-0.414 0,-1.344 0,-1.344 0,-0.554 0.446,-1 1,-1 0,0 0.93,0.171 1.344,0 0.413,-0.171 0.949,-0.949 0.949,-0.949 0.196,-0.196 0.451,-0.295 0.707,-0.295 z" transform="matrix(1 0 0 -1 0 49)" style="fill:#9369bb"/></g><circle cx="6.773" cy="7.06" r="0.847" style="fill:#6f6f6f"/></g></g></svg>