<svg xmlns="http://www.w3.org/2000/svg" viewBox="0 0 256 256"><path d="m 193.89 31.801 c 226.71 210.75 -241.2 343.53 -189.6 63.746 25.452 -73.816 116.81 -131.42 189.6 -63.746 z" style="fill:#e0ffff;color:#000"/><g transform="matrix(1.2094795 0 0 1.2425942 -51.094383 -51.274286)"><path d="m 145.89193,209.06587 c -8.18088,-4.63369 -13.85849,-16.03788 -15.17348,-30.47782 -0.74917,-8.22669 -2.02853,-9.16151 -5.29808,-3.87126 -2.94623,4.76709 -10.4445,11.43207 -15.38464,13.67491 -10.755629,4.88311 -18.699069,0.86243 -24.910306,-12.6087 -2.051438,-4.44923 -2.268945,-6.34842 -2.169696,-18.94495 0.105306,-13.36532 0.278547,-14.49868 3.821385,-25 2.041093,-6.05 5.564361,-14.15 7.829484,-18 C 108.27631,90.603817 129.60182,84.356972 139.71439,100.6247 l 3.09215,4.97423 7.73077,-0.59616 c 6.44625,-0.4971 8.4141,-1.09115 11.84329,-3.57525 10.87179,-7.875477 24.56259,-5.586719 30.25839,5.05844 1.60789,3.00508 1.61352,3.10768 0.0543,0.99113 -4.84752,-6.58045 -15.33786,-9.355977 -21.93865,-5.80452 -2.8964,1.55836 -2.88642,1.56272 2.25761,0.98593 4.13751,-0.46392 6.10253,-0.1264 9.86341,1.69421 4.37321,2.11704 5.717,3.64545 11.00952,12.52204 0.80395,1.34838 0.96688,0.74812 0.71831,-2.64637 l -0.32144,-4.39033 1.68159,2.97515 c 3.03274,5.36567 4.46673,12.85403 4.50491,23.52485 0.0352,9.84192 -0.63707,13.81357 -4.68958,27.70493 -0.49319,1.69057 0.17225,2.9736 2.85252,5.5 1.92267,1.81229 4.26697,4.97382 5.20956,7.02562 1.60876,3.50192 1.61185,4.18872 0.0504,11.20703 -1.22723,5.51616 -2.45752,8.32663 -4.69222,10.71888 -2.67622,2.8649 -2.84403,3.37755 -1.44135,4.40321 2.46266,1.80074 1.99346,5.30034 -0.80479,6.00265 -2.54831,0.63959 -7.38456,-1.38361 -9.55298,-3.99638 -0.71478,-0.86127 -2.03201,-1.57034 -2.92716,-1.57571 -0.89516,-0.005 -4.03659,-1.13123 -6.98095,-2.5019 l -5.35339,-2.49212 -2.87121,2.41596 c -4.05438,3.41154 -9.28362,4.88843 -15.48702,4.374 -6.41501,-0.53199 -6.20041,0.46672 0.58453,2.72031 2.74779,0.91267 4.74094,2.07208 4.42922,2.57646 -1.07642,1.74168 -8.88221,0.92184 -12.90223,-1.35512 z m 44.95465,-11.72969 c 0.34055,-0.55103 -0.42039,-1.39939 -1.69099,-1.88524 -1.27059,-0.48585 -3.16741,-1.83501 -4.21516,-2.99813 -1.04774,-1.16312 -2.51024,-2.11476 -3.25,-2.11476 -2.02316,0 -1.6161,3.72891 0.65499,6 2.09318,2.09318 7.43663,2.72056 8.50116,0.99813 z" style="fill:#d7ebf2"/><path d="m 189.48642 205.80324 c -1.65685 -1.39415 -5.26667 -3.20424 -8.02181 -4.02243 -3.33351 -0.98995 -5.8313 -2.53789 -7.46633 -4.62707 -2.38147 -3.04296 -2.55912 -3.09716 -5.77937 -1.76329 -5.22983 2.16627 -12.8281 1.75681 -17.16758 -0.92514 -6.93434 -4.28566 -11.65759 -15.90976 -11.69029 -28.77027 -0.0119 -4.66911 -0.39514 -6.28865 -1.59741 -6.75 -2.78662 -1.06933 -4.26751 -0.65715 -4.90981 1.36656 -2.10919 6.64544 -14.81867 21.23721 -21.0084 24.11974 -6.60415 3.07553 -7.17344 2.15581 -1.27849 -2.06547 9.97923 -7.14597 20.80919 -27.21412 14.55988 -26.97977 -0.70477 0.0264 -2.85639 2.55461 -4.78139 5.61818 -4.28944 6.8265 -8.69508 10.34906 -13.79982 11.03375 -8.409566 1.12796 -14.09968 -5.62573 -14.971498 -17.7699 -1.446646 -20.1514 12.256858 -43.97788 26.696398 -46.41742 8.12217 -1.37223 14.26723 3.91403 18.00341 15.48734 2.17114 6.72538 4.59846 9 9.60421 9 3.46474 0 3.68249 -1.2004 0.73658 -4.0605 -10.0994 -9.8052 -11.88998 -13.94379 -7.99299 -18.47432 2.21276 -2.57249 3.0219 -2.79825 11.30354 -3.15392 7.74239 -0.33251 9.77043 -0.0483 15.35979 2.15282 3.54178 1.39476 8.15299 2.53592 10.24711 2.53592 7.65205 0 13.65813 8.36333 15.19079 21.15282 0.51053 4.26018 -1.32754 19.18816 -2.82091 22.91028 -0.37597 0.93707 0.22415 2.33351 1.49844 3.48672 2.09076 1.89211 2.14845 1.89236 3.52111 0.0151 1.26211 -1.72604 1.37647 -1.47079 1.19626 2.66991 -0.17839 4.09887 0.2486 5.08569 4.07672 9.42177 2.3518 2.66385 4.69783 5.38687 5.21342 6.05116 1.18169 1.52249 1.23553 10.98994 0.0666 11.71237 -0.47896 0.29602 -1.15473 1.95766 -1.5017 3.69255 -0.34774 1.73867 -2.23424 4.66652 -4.20343 6.5237 -3.15099 2.97177 -3.35729 3.44891 -1.74829 4.04353 4.18801 1.54771 3.6874 5.32005 -0.706 5.32005 -1.5554 0 -4.165 -1.13487 -5.82874 -2.53481 z m 0.92474 -7.50037 c 2.45955 -1.31631 2.46816 -2.66059 0.022 -3.43697 -1.05174 -0.3338 -3.58861 -1.93913 -5.63751 -3.56738 -4.56078 -3.62448 -5.45023 -3.68889 -5.45023 -0.39473 0 6.26393 5.86241 10.18382 11.06574 7.39908 z" style="fill:#aad6e0"/><path d="m 189.49812,205.81308 c -1.65042,-1.38873 -5.17244,-3.17435 -7.82673,-3.96804 -3.4362,-1.02751 -5.86522,-2.65598 -8.43474,-5.65486 -3.49763,-4.08206 -3.70393,-4.17235 -6.69853,-2.93195 -4.40833,1.82599 -9.59637,1.58297 -13.93892,-0.65294 -2.84783,-1.4663 -4.56737,-3.51675 -7.12485,-8.49594 -2.96556,-5.77366 -3.41635,-7.67808 -3.74743,-15.83132 -0.20699,-5.09749 -0.51817,-9.40999 -0.69152,-9.58333 -0.17335,-0.17335 -2.68021,-0.49991 -5.57081,-0.7257 -3.55399,-0.2776 -5.98289,-1.09375 -7.50185,-2.52073 -3.29206,-3.09274 -4.84965,-2.62126 -7.43397,2.25024 -5.43353,10.24229 -14.62575,15.20059 -20.746039,11.19042 -6.025248,-3.94789 -8.221741,-17.27979 -4.929431,-29.91982 4.71341,-18.096 17.77162,-31.48568 28.42442,-29.14593 4.49887,0.98812 8.89042,6.43924 11.3466,14.08426 1.9926,6.20211 2.61897,7.10221 6.0746,8.72934 4.44327,2.09218 8.99471,1.91275 9.42717,-0.37163 0.16377,-0.86509 -2.43126,-4.35322 -5.76673,-7.75139 -7.111,-7.24467 -8.43999,-11.02885 -5.11593,-14.56714 1.98896,-2.11716 2.95681,-2.29612 11.88365,-2.19738 8.02111,0.0887 10.50423,0.50816 14.21834,2.4017 2.475,1.26182 6.72658,2.72536 9.44796,3.25232 8.02896,1.5547 11.60352,6.02561 13.61817,17.03308 0.96878,5.29309 0.89791,7.78712 -0.40925,14.40171 -0.86952,4.4 -1.85712,8.94218 -2.19468,10.09373 -0.44995,1.53499 0.22472,2.86928 2.52819,5 1.72805,1.59845 3.84021,4.22403 4.69368,5.83463 0.85346,1.6106 2.96119,4.37878 4.68384,6.15152 6.09675,6.27403 6.63209,7.12305 6.63209,10.51813 0,5.4807 -3.5994,14.09956 -7.14868,17.1177 -2.92212,2.48484 -3.0303,2.77618 -1.27247,3.42706 2.42981,0.89969 3.37974,2.30158 2.72164,4.01655 -0.83976,2.18837 -5.92146,1.53049 -9.14779,-1.18429 z m 0.91304,-7.51021 c 2.40595,-1.28763 2.48345,-2.8282 0.18426,-3.66296 -0.9625,-0.34945 -3.4388,-2.13533 -5.50288,-3.96861 -4.64628,-4.12675 -5.74712,-4.17799 -5.74712,-0.26751 0,6.75146 5.66032,10.79197 11.06574,7.89908 z m -21.44137,-9.73013 c 0.6184,-0.40408 1.43239,-2.15499 1.80885,-3.8909 0.54804,-2.52701 0.23646,-3.57362 -1.56292,-5.25 -1.23608,-1.15158 -3.56551,-2.09379 -5.17651,-2.09379 -4.1392,0 -10.15798,-6.21669 -11.1339,-11.5 -0.9181,-4.97035 -2.13766,-6.5 -5.18233,-6.5 -2.231,0 -2.37756,0.35868 -2.37756,5.8185 0,10.82393 4.79367,20.52265 11.48524,23.23736 2.54549,1.03268 10.64968,1.15207 12.13913,0.17883 z m -56.76925,-28.39771 c 4.17311,-4.26835 6.72457,-11.8887 5.03402,-15.03489 l -1.237,-2.30209 -0.76832,2.85745 c -1.52129,5.65779 -6.6091,8.51727 -9.68382,5.44255 -1.62545,-1.62545 -1.51878,-10.11919 0.17684,-14.08212 1.654,-3.86564 6.1842,-8.21393 9.62316,-9.23673 1.375,-0.40895 3.75634,-1.62856 5.29186,-2.71025 1.84907,-1.30256 3.62196,-1.75836 5.25,-1.34975 3.85151,0.96667 3.21088,-2.79281 -0.90989,-5.33959 -4.41153,-2.72647 -8.0227,-2.62866 -13.11429,0.35522 -8.46173,4.9589 -14.456856,17.46561 -14.493944,30.2365 -0.02135,7.35239 0.236281,8.48228 2.565159,11.25 3.581055,4.25583 8.051735,4.22438 12.266225,-0.0863 z m 72.02617,-15.2798 c 1.63761,-6.50355 1.33195,-13.49088 -0.79504,-18.17468 -1.69274,-3.72754 -5.31118,-7.3825 -7.30876,-7.3825 -1.39721,0 -0.78693,14.35951 0.72251,17 0.78602,1.375 1.44508,3.99208 1.46456,5.81574 0.0423,3.95982 1.59161,7.18426 3.45191,7.18426 0.75828,0 1.83463,-1.94012 2.46482,-4.44282 z m -68.88129,-4.99816 c 0,-1.05548 -1.91911,-1.49891 -2.48992,-0.57533 -0.34546,0.55897 0.0734,1.01631 0.9309,1.01631 0.85746,0 1.55902,-0.19844 1.55902,-0.44098 z" style="fill:#a3a4a4"/><path d="m 188.90506,204.38545 c -2.10906,-1.67607 -4.69512,-3.0474 -5.7468,-3.0474 -6.72598,0 -12.29914,-7.85334 -11.23988,-15.83849 0.58166,-4.38476 0.41642,-4.93845 -1.93328,-6.47803 -1.41312,-0.92592 -3.91949,-1.68348 -5.5697,-1.68348 -4.28778,0 -9.76923,-5.10784 -11.09777,-10.34135 -1.65842,-6.53304 -3.1004,-8.78404 -5.4149,-8.45295 -1.76498,0.25248 -2.1002,1.12068 -2.35917,6.10998 -0.40373,7.77823 1.93545,15.41845 5.99045,19.56601 4.06334,4.15608 7.01119,5.30906 12.78965,5.00236 4.35746,-0.23127 5.02176,0.0384 5.02176,2.0384 0,1.62614 -7.09205,3.32728 -11.70419,2.80742 -9.41087,-1.06074 -15.2945,-10.92072 -15.85533,-26.57088 -0.1864,-5.20158 -0.76167,-9.88018 -1.27837,-10.39688 -0.5167,-0.5167 -3.03223,-0.97109 -5.59006,-1.00976 -2.55783,-0.0387 -4.97043,-0.60807 -5.36133,-1.26534 -0.39089,-0.65727 -1.67597,-1.70128 -2.85571,-2.32001 -2.44193,-1.2807 -2.57626,-1.16193 -6.5977,5.833 -7.9607,13.84693 -19.65403,16.04812 -24.819141,4.67204 -2.356118,-5.18931 -2.548007,-15.91051 -0.430289,-24.04098 4.71341,-18.096 17.77162,-31.48568 28.42442,-29.14593 4.49815,0.98796 11.0677,9.04874 11.0677,13.57997 0,1.79316 -3.89806,0.91853 -5.38823,-1.20899 -2.25445,-3.21867 -6.75005,-5.84211 -10.02391,-5.84952 -4.12945,-0.009 -10.75132,4.17878 -13.98512,8.84515 -5.216888,7.52798 -7.55301,14.87063 -7.579004,23.82154 -0.02135,7.35239 0.236281,8.48228 2.565159,11.25 5.285845,6.28187 13.483705,2.39566 16.947945,-8.0342 1.29608,-3.90211 1.36107,-5.20961 0.3523,-7.08699 l -1.237,-2.30209 -0.76832,2.85745 c -1.52129,5.65779 -6.6091,8.51727 -9.68382,5.44255 -1.48492,-1.48492 -1.5693,-9.69027 -0.13866,-13.4849 1.53828,-4.08016 6.75526,-9.10662 10.34004,-9.96244 3.98514,-0.95139 3.80913,-0.89745 5.80073,-1.77764 2.8854,-1.2752 3.60303,0.0859 2.67221,5.0683 -0.66122,3.53935 -0.46189,6.04305 0.81751,10.26863 0.93056,3.07343 2.0499,6.07732 2.48743,6.67531 0.72932,0.9968 6.85433,2.63943 14.32074,3.84059 11.97944,1.92718 12.82124,2.26145 16.85123,6.69139 8.29875,9.12231 16.89007,17.87944 17.50746,17.84533 0.35272,-0.0195 1.76631,-0.67855 3.14131,-1.46457 3.05446,-1.74609 11.71013,-1.87275 14.66252,-0.21456 1.18939,0.66801 3.78164,2.6923 5.76056,4.49842 3.85126,3.51497 3.83003,3.31456 1.37804,13.01076 -0.73685,2.91382 -2.22801,5.23593 -4.63788,7.22236 -1.95352,1.61025 -3.35192,3.05267 -3.10755,3.20538 0.24437,0.1527 1.29247,0.74398 2.3291,1.31395 2.51904,1.38505 2.21501,2.89518 -0.65655,3.26109 -1.43045,0.18227 -3.81838,-0.88228 -6.1686,-2.75 z m 3.24036,-6.2474 c 1.64735,-1.64735 1.51245,-4.8 -0.20539,-4.8 -0.77296,0 -3.29054,-1.575 -5.59461,-3.5 -5.72003,-4.77895 -8,-4.67488 -8,0.36514 0,5.80648 3.05064,9.13486 8.37258,9.13486 2.32508,0 4.76742,-0.54 5.42742,-1.2 z m 2.62785,-12.29782 c -0.0592,-3.9393 -0.56208,-5.22089 -2.80577,-7.15083 -1.50348,-1.29324 -3.73339,-2.35135 -4.95534,-2.35135 -2.988,0 -6.66674,2.69796 -6.66674,4.88934 0,2.94115 10.55986,10.52433 13.5,9.69453 0.55,-0.15522 0.96753,-2.44199 0.92785,-5.08169 z m -79.42785,-45.94316 c 0,-1.05548 -1.91911,-1.49891 -2.48992,-0.57533 -0.34546,0.55897 0.0734,1.01631 0.9309,1.01631 0.85746,0 1.55902,-0.19844 1.55902,-0.44098 z m 67.58471,12.69098 c -0.30254,-0.9625 0.11713,-3.95902 0.93261,-6.65893 3.38268,-11.19954 0.8249,-21.45613 -6.50456,-26.08301 -4.6511,-2.93612 -5.22612,-6.21275 -1.00585,-5.73159 5.68253,0.64787 9.97901,6.3966 12.07097,16.15108 1.6206,7.55657 -1.15511,24.07245 -4.04568,24.07245 -0.49358,0 -1.14496,-0.7875 -1.44749,-1.75 z m -7.83471,-9.3301 c -2.11259,-1.23047 -2.29847,-5.21982 -0.31974,-6.86202 1.14215,-0.9479 1.64575,-0.78437 2.5,0.81181 1.22345,2.28604 1.44229,7.14542 0.31974,7.0999 -0.4125,-0.0167 -1.5375,-0.48908 -2.5,-1.04969 z m -23.75,-12.3383 c 0,-0.78012 -1.8,-3.29184 -4,-5.5816 -5.82151,-6.05902 -5.12812,-8.50302 0.95919,-3.38088 3.49889,2.94412 6.43109,7.94039 5.52266,9.41025 -0.89888,1.45441 -2.48185,1.16881 -2.48185,-0.44777 z m -11.33333,-13.24827 c -1.1717,-1.17169 -0.71438,-6.04885 0.67534,-7.20221 1.84587,-1.53193 2.80829,-0.28048 1.56741,2.03814 -0.56112,1.04846 -0.73996,2.78929 -0.39743,3.86851 0.6023,1.8977 -0.48195,2.65893 -1.84532,1.29556 z" style="fill:#71a4b0"/><path d="m 188.90506,204.38545 c -2.10906,-1.67607 -4.69512,-3.0474 -5.7468,-3.0474 -6.72129,0 -12.29911,-7.85363 -11.24129,-15.82786 0.60705,-4.57612 0.47658,-4.92269 -3.00326,-7.97804 -2.00084,-1.75675 -4.72969,-3.1941 -6.06413,-3.1941 -1.33444,0 -3.34702,-0.98833 -4.4724,-2.19628 -1.84508,-1.98046 -4.01181,-7.57664 -4.02618,-10.39873 -0.0117,-2.2932 -3.74392,-4.40499 -7.7851,-4.40499 -6.03584,0 -14.17923,-1.82354 -18.51595,-4.14625 -4.58169,-2.45392 -6.20704,-1.97719 -8.02139,2.35274 -3.03253,7.23713 -10.3755,13.20973 -14.81369,12.04912 -2.46251,-0.64396 -1.35166,-2.25561 1.55471,-2.25561 3.66913,0 7.28272,-3.59989 10.60836,-10.56814 2.81711,-5.90271 2.98206,-6.78881 1.89843,-10.19813 -2.91278,-9.16424 -3.98344,-10.04318 -7.50022,-6.15719 -1.84654,2.04041 -1.83834,2.1074 0.47158,3.84977 2.17153,1.63799 2.24584,1.9874 0.97426,4.58122 -3.18165,6.49008 -7.87657,5.40867 -7.87657,-1.81425 0,-4.82892 3.21876,-11.95834 6.29911,-13.95226 1.21049,-0.78355 3.55089,-1.75589 5.20089,-2.16074 1.65,-0.40486 3.75915,-1.42012 4.68699,-2.25615 2.68704,-2.42115 3.65571,-0.86427 2.68733,4.31919 -0.66122,3.53935 -0.46189,6.04305 0.81751,10.26863 0.93056,3.07343 2.0499,6.07732 2.48743,6.67531 0.72932,0.9968 6.85433,2.63943 14.32074,3.84059 11.97944,1.92718 12.82124,2.26145 16.85123,6.69139 8.29875,9.12231 16.89007,17.87944 17.50746,17.84533 0.35272,-0.0195 1.76631,-0.67855 3.14131,-1.46457 3.05446,-1.74609 11.71013,-1.87275 14.66252,-0.21456 1.18939,0.66801 3.78164,2.6923 5.76056,4.49842 3.85126,3.51497 3.83003,3.31456 1.37804,13.01076 -0.73685,2.91382 -2.22801,5.23593 -4.63788,7.22236 -1.95352,1.61025 -3.35192,3.05267 -3.10755,3.20538 0.24437,0.1527 1.29247,0.74398 2.3291,1.31395 2.51904,1.38505 2.21501,2.89518 -0.65655,3.26109 -1.43045,0.18227 -3.81838,-0.88228 -6.1686,-2.75 z m 3.24036,-6.2474 c 1.64735,-1.64735 1.51245,-4.8 -0.20539,-4.8 -0.77296,0 -3.29054,-1.575 -5.59461,-3.5 -5.72003,-4.77895 -8,-4.67488 -8,0.36514 0,5.80648 3.05064,9.13486 8.37258,9.13486 2.32508,0 4.76742,-0.54 5.42742,-1.2 z m 2.62785,-12.29782 c -0.0592,-3.9393 -0.56208,-5.22089 -2.80577,-7.15083 -1.50348,-1.29324 -3.73339,-2.35135 -4.95534,-2.35135 -2.988,0 -6.66674,2.69796 -6.66674,4.88934 0,2.94115 10.55986,10.52433 13.5,9.69453 0.55,-0.15522 0.96753,-2.44199 0.92785,-5.08169 z M 151.32399,130.298 c -0.66369,-1.24012 -2.73038,-3.77843 -4.59264,-5.64069 -5.36487,-5.36487 -4.12418,-7.49423 1.57326,-2.70014 3.90342,3.28451 6.59118,8.23051 5.21855,9.60314 -0.65661,0.65661 -1.40081,0.22945 -2.19917,-1.26231 z m -11.3119,-12.62662 c -1.1717,-1.17169 -0.71438,-6.04885 0.67534,-7.20221 1.84587,-1.53193 2.80829,-0.28048 1.56741,2.03814 -0.56112,1.04846 -0.73996,2.78929 -0.39743,3.86851 0.6023,1.8977 -0.48195,2.65893 -1.84532,1.29556 z" style="fill:#ff4500;stroke:#ff4500"/><path d="m 191.45496,193.25493 c -1.31476,-0.526 -3.91792,-2.29747 -5.7848,-3.93662 -1.86688,-1.63914 -4.27867,-2.98026 -5.35954,-2.98026 -2.02375,0 -2.3671,-0.78908 -1.41873,-3.26051 0.40911,-1.0661 1.47748,-0.55515 4.25,2.03258 3.92163,3.66023 9.71223,6.64961 11.15429,5.75836 0.4745,-0.29325 0.6272,0.36743 0.33935,1.46819 -0.28786,1.10076 -0.58339,1.97286 -0.65674,1.93799 -0.0734,-0.0349 -1.20908,-0.49374 -2.52383,-1.01973 z m 10.514,-10.45554 c -0.96498,-2.51469 -0.68031,-3.16355 0.49853,-1.13634 0.58369,1.00375 0.8506,2.03566 0.59313,2.29313 -0.25747,0.25747 -0.74872,-0.26309 -1.09166,-1.15679 z m -32.89122,-5.06784 c -2.12461,-1.94706 -4.7582,-3.3935 -6.17868,-3.3935 -1.36165,0 -3.3965,-0.98833 -4.52188,-2.19628 -1.84508,-1.98046 -4.01181,-7.57664 -4.02618,-10.39873 -0.0117,-2.2932 -3.74392,-4.40499 -7.7851,-4.40499 -6.03584,0 -14.17923,-1.82354 -18.51595,-4.14625 -4.58169,-2.45392 -6.20704,-1.97719 -8.02139,2.35274 -3.03253,7.23713 -10.3755,13.20973 -14.81369,12.04912 -2.46251,-0.64396 -1.35166,-2.25561 1.55471,-2.25561 3.66913,0 7.28272,-3.59989 10.60836,-10.56814 2.81711,-5.90271 2.98206,-6.78881 1.89843,-10.19813 -2.91278,-9.16424 -3.98344,-10.04318 -7.50022,-6.15719 -1.84654,2.04041 -1.83834,2.1074 0.47158,3.84977 2.17153,1.63799 2.24584,1.9874 0.97426,4.58122 -3.18165,6.49008 -7.87657,5.40867 -7.87657,-1.81425 0,-4.82892 3.21876,-11.95834 6.29911,-13.95226 1.21049,-0.78355 3.55089,-1.75589 5.20089,-2.16074 1.65,-0.40486 3.75915,-1.42012 4.68699,-2.25615 2.68704,-2.42115 3.65571,-0.86427 2.68733,4.31919 -0.66122,3.53935 -0.46189,6.04305 0.81751,10.26863 0.93056,3.07343 2.0499,6.07732 2.48743,6.67531 0.72932,0.9968 6.85433,2.63943 14.32074,3.84059 11.97944,1.92718 12.82124,2.26145 16.85123,6.69139 2.1919,2.40942 6.83456,7.36782 10.31702,11.01868 3.48246,3.65085 6.31744,7.02585 6.29995,7.5 -0.0175,0.47414 -0.59456,1.60165 -1.28237,2.50558 -1.12637,1.48028 -1.6183,1.30649 -4.95351,-1.75 z M 151.32399,130.298 c -0.66369,-1.24012 -2.73038,-3.77843 -4.59264,-5.64069 -5.36487,-5.36487 -4.12418,-7.49423 1.57326,-2.70014 3.90342,3.28451 6.59118,8.23051 5.21855,9.60314 -0.65661,0.65661 -1.40081,0.22945 -2.19917,-1.26231 z m -11.3119,-12.62662 c -1.1717,-1.17169 -0.71438,-6.04885 0.67534,-7.20221 1.84587,-1.53193 2.80829,-0.28048 1.56741,2.03814 -0.56112,1.04846 -0.73996,2.78929 -0.39743,3.86851 0.6023,1.8977 -0.48195,2.65893 -1.84532,1.29556 z" style="fill:#436b98"/><path d="m 191.45496,193.25493 c -1.31476,-0.526 -3.91792,-2.29747 -5.7848,-3.93662 -1.86688,-1.63914 -4.27867,-2.98026 -5.35954,-2.98026 -2.02375,0 -2.3671,-0.78908 -1.41873,-3.26051 0.40911,-1.0661 1.47748,-0.55515 4.25,2.03258 3.92163,3.66023 9.71223,6.64961 11.15429,5.75836 0.4745,-0.29325 0.6272,0.36743 0.33935,1.46819 -0.28786,1.10076 -0.58339,1.97286 -0.65674,1.93799 -0.0734,-0.0349 -1.20908,-0.49374 -2.52383,-1.01973 z m 10.514,-10.45554 c -0.96498,-2.51469 -0.68031,-3.16355 0.49853,-1.13634 0.58369,1.00375 0.8506,2.03566 0.59313,2.29313 -0.25747,0.25747 -0.74872,-0.26309 -1.09166,-1.15679 z m -34.67066,-6.92173 c -2.99908,-2.90825 -7.86541,-8.26941 -10.81407,-11.91367 -5.11882,-6.32641 -5.55736,-6.62594 -9.70077,-6.62594 -5.8332,0 -14.29633,-1.74133 -17.78068,-3.65846 -1.56345,-0.86023 -3.97289,-1.86633 -5.35431,-2.23578 -3.04946,-0.81555 -5.09436,-5.89963 -5.87468,-14.60576 -0.55792,-6.22469 -0.37494,-6.77767 3.25862,-9.84796 3.19594,-2.70051 4.20211,-1.44054 3.18733,3.99128 -0.66122,3.53935 -0.46189,6.04305 0.81751,10.26863 0.93056,3.07343 2.0499,6.07732 2.48743,6.67531 0.72932,0.9968 6.85433,2.63943 14.32074,3.84059 11.97944,1.92718 12.82124,2.26145 16.85123,6.69139 2.1919,2.40942 6.83456,7.36782 10.31702,11.01868 3.48246,3.65085 6.31744,7.02585 6.29995,7.5 -0.0175,0.47414 -0.6012,1.61073 -1.29712,2.52575 -1.13361,1.49051 -1.8329,1.11328 -6.7182,-3.62406 z M 151.32399,130.298 c -0.66369,-1.24012 -2.73038,-3.77843 -4.59264,-5.64069 -5.36487,-5.36487 -4.12418,-7.49423 1.57326,-2.70014 3.90342,3.28451 6.59118,8.23051 5.21855,9.60314 -0.65661,0.65661 -1.40081,0.22945 -2.19917,-1.26231 z m -11.3119,-12.62662 c -1.1717,-1.17169 -0.71438,-6.04885 0.67534,-7.20221 1.84587,-1.53193 2.80829,-0.28048 1.56741,2.03814 -0.56112,1.04846 -0.73996,2.78929 -0.39743,3.86851 0.6023,1.8977 -0.48195,2.65893 -1.84532,1.29556 z" style="fill:#656c70"/></g></svg>