<svg xmlns="http://www.w3.org/2000/svg" viewBox="0 0 256 256"><defs><clipPath id="1"><path transform="matrix(15.33333 0 0 11.5 415 -125.5)" d="m -24 13 c 0 1.105 -0.672 2 -1.5 2 -0.828 0 -1.5 -0.895 -1.5 -2 0 -1.105 0.672 -2 1.5 -2 0.828 0 1.5 0.895 1.5 2 z" style="fill:#1890d0"/></clipPath><clipPath><path transform="matrix(15.33333 0 0 11.5 415 -125.5)" d="m -24 13 c 0 1.105 -0.672 2 -1.5 2 -0.828 0 -1.5 -0.895 -1.5 -2 0 -1.105 0.672 -2 1.5 -2 0.828 0 1.5 0.895 1.5 2 z" style="fill:#1890d0"/></clipPath><clipPath><path transform="matrix(15.33333 0 0 11.5 415 -125.5)" d="m -24 13 c 0 1.105 -0.672 2 -1.5 2 -0.828 0 -1.5 -0.895 -1.5 -2 0 -1.105 0.672 -2 1.5 -2 0.828 0 1.5 0.895 1.5 2 z" style="fill:#1890d0"/></clipPath><clipPath id="0"><path transform="matrix(15.33333 0 0 11.5 415 -125.5)" d="m -24 13 c 0 1.105 -0.672 2 -1.5 2 -0.828 0 -1.5 -0.895 -1.5 -2 0 -1.105 0.672 -2 1.5 -2 0.828 0 1.5 0.895 1.5 2 z" style="fill:#1890d0"/></clipPath><clipPath><path transform="matrix(15.33333 0 0 11.5 415 -125.5)" d="m -24 13 c 0 1.105 -0.672 2 -1.5 2 -0.828 0 -1.5 -0.895 -1.5 -2 0 -1.105 0.672 -2 1.5 -2 0.828 0 1.5 0.895 1.5 2 z" style="fill:#1890d0"/></clipPath></defs><g transform="translate(0 -796.36)"><path d="m 26.373 992.2 c -92.05 -130.93 77.948 -263.6 186.39 -156.91 102.17 100.51 7.449 256.68 -119.69 207.86 -26.526 -10.185 -49.802 -26.914 -66.7 -50.948 z" style="fill:#d2b48c;color:#000"/><g transform="matrix(6.35925 0 0 7.12193 -73.07 786.44)" style="clip-path:url(#0)"><path d="m 25.971 1.782 c -4 1.172 -8 2.348 -12 3.523 0.293 8.723 2.531 19.363 12 22.477 9.57 -3.02 11.594 -13.848 12 -22.477 -4 -1.176 -8 -2.352 -12 -3.523" transform="translate(5.257 5.804)" style="fill:#f4d68e;fill-rule:evenodd"/></g><g transform="matrix(6.0287 0 0 6.09842 76.72 874.41)" style="clip-path:url(#1)"><path d="m 15.806 2.561 c -0.145 0.012 -0.316 0.066 -0.418 0.168 l -10.469 10.465 c -0.066 0.063 -0.094 0.148 -0.129 0.234 l -1.563 4.332 c -0.164 0.43 0.371 0.934 0.797 0.766 l 4.309 -1.535 c 0.086 -0.031 0.191 -0.066 0.258 -0.133 l 10.469 -10.504 c 0.121 -0.129 0.156 -0.32 0.129 -0.5 0 0 0.008 -0.098 -0.031 -0.195 -0.039 -0.105 -0.129 -0.242 -0.223 -0.402 -0.191 -0.316 -0.496 -0.742 -1.086 -1.332 -0.613 -0.613 -1.023 -0.945 -1.34 -1.133 -0.16 -0.094 -0.309 -0.164 -0.414 -0.199 -0.105 -0.035 -0.254 -0.031 -0.254 -0.031" style="fill:#364a53"/></g></g></svg>