<svg xmlns="http://www.w3.org/2000/svg" viewBox="0 0 256 256"><g transform="translate(0 -796.36)"><path d="m 211.55 836.27 c 200.11 263 -350.6 300.36 -173.87 31.9 40.29 -61.2 120.86 -101.55 173.87 -31.9 z" style="fill:#2f4f4f;color:#000"/><g style="fill:#fff"><path d="m 88.88 1001.68 c -7.777 -4.832 -19.703 -19.297 -24.959 -30.27 -18.552 -38.743 -1.522 -86.77 38.05 -107.29 c 11.384 -5.904 12.749 -6.169 31.71 -6.169 18.764 0 20.444 0.317 31.702 5.98 17.866 8.986 28.759 19.978 37.35 37.683 15.494 31.947 10.491 64.832 -13.828 90.88 -10.448 11.191 -13.703 12.923 -19.891 10.584 -6.301 -2.382 -4.694 -7.625 6.141 -20.03 14.324 -16.401 17.486 -24.439 17.568 -44.656 0.081 -19.877 -3.513 -29.348 -15.96 -42.07 -12.683 -12.958 -23.509 -17.315 -43.02 -17.315 -19.311 0 -29.619 4.085 -41.881 16.6 -12.174 12.424 -16.871 24.625 -16.784 43.596 0.088 19.05 3.274 26.974 17.587 43.74 10.382 12.161 11.283 15.533 5.242 19.623 -3.115 2.109 -4.39 1.983 -9.02 -0.891 z" style="opacity:0.99"/><path d="m 106.38 967.13 c -14.483 -14.798 -17.892 -34.36 -8.762 -50.28 c 8.682 -15.14 21.488 -23.279 36.499 -23.21 21.582 0.101 41.26 20.466 41.56 43.02 0.127 9.441 -7.09 24.456 -15.292 31.814 -7.274 6.525 -7.966 6.638 -13.358 2.178 l -4.095 -3.388 l 3.856 -6.21 c 9.418 -15.169 11.612 -21.1 10.348 -27.99 -1.924 -10.476 -9.357 -17.696 -19.411 -18.854 -15.778 -1.817 -26.772 7.285 -27.09 22.431 -0.129 6.076 1.147 9.752 5.649 16.279 6.608 9.58 7.448 16.443 2.354 19.229 -4.823 2.637 -4.712 2.683 -12.255 -5.02 z" style="opacity:0.99"/><path d="m 128.48 941.27 c -4.03 -4.555 -2.214 -10.722 3.605 -12.214 8.435 -2.163 12.92 6.71 6.427 12.714 -4.232 3.913 -6.211 3.814 -10.03 -0.5 z" style="opacity:0.99"/></g></g></svg>