<svg xmlns="http://www.w3.org/2000/svg" viewBox="0 0 256 256"><path d="m 59.704 229.18 c 94.43 83.76 239.74 -48.37 180.98 -158.96 -59.4 -111.81 -255.97 -82.02 -239.26 55.31 c 4.977 40.865 27.46 76.32 58.27 103.65 z" style="fill:#4caf50;color:#000"/><path d="m 74.31 180.43 c -6.361 -0.597 -9.1 -3.899 -6.796 -8.2 1.745 -3.26 10.736 -3.806 62.64 -3.806 42.17 0 43.656 -0.076 47.47 -2.435 5.082 -3.141 7.491 -7.917 7.546 -14.96 0.052 -6.709 -1.897 -11.136 -6.358 -14.441 -3.149 -2.333 -5.03 -2.455 -48.2 -3.128 -24.708 -0.385 -46.754 -1.102 -48.989 -1.592 -8.853 -1.941 -15.897 -7.237 -20.12 -15.13 -1.947 -3.637 -2.487 -6.663 -2.487 -13.938 0 -10.898 2.462 -16.742 9.508 -22.57 8.213 -6.793 10.625 -7.05 66.67 -7.05 h 50.828 l 1.808 2.581 c 2.327 3.322 2.281 3.914 -0.515 6.71 -2.252 2.252 -3.872 2.323 -52.979 2.323 -49.26 0 -50.775 0.067 -54.984 2.432 -2.38 1.338 -5.233 3.964 -6.339 5.837 -2.698 4.567 -2.67 14.948 0.054 19.558 4.176 7.07 5.534 7.264 56.11 8.05 l 45.947 0.712 l 6.688 3.284 c 10.326 5.071 15.804 13.891 15.91 25.618 0.028 3.12 -0.564 7.724 -1.315 10.232 -1.819 6.071 -9.04 14.08 -15.527 17.223 -5.104 2.471 -6.6 2.552 -53.12 2.878 -26.33 0.184 -50.38 0.1 -53.44 -0.188 z" style="fill:#fff;fill-rule:evenodd"/></svg>