<svg xmlns="http://www.w3.org/2000/svg" viewBox="0 0 256 256"><defs><clipPath><path transform="matrix(0.99561 0 0 0.99561 0.105 0.016)" d="m 47.41 6.348 v -1.75 c 0 -2.054 -1.664 -3.719 -3.719 -3.719 h -39.37 c -2.054 0 -3.719 1.664 -3.719 3.719 v 1.75"/></clipPath><clipPath><path d="m 27.643 3.295 l 13.09 13.09 h -11.07 c -0.978 0 -2.01 -1.035 -2.01 -2.01 v -11.07 z"/></clipPath><clipPath><path d="m -24 13 c 0 1.105 -0.672 2 -1.5 2 -0.828 0 -1.5 -0.895 -1.5 -2 0 -1.105 0.672 -2 1.5 -2 0.828 0 1.5 0.895 1.5 2 z" transform="matrix(15.33333 0 0 11.5 415 -125.5)"/></clipPath><clipPath><path d="m 28.07 9.763 h 36.2 v 59.19 h -36.2 z"/></clipPath></defs><g transform="translate(-0.672 0.176)"><path d="m -1539.23 1793.07 c 135.66 329.42 -434.9 174.65 -157.85 -40.478 49.706 -37.47 133.17 -40.36 157.85 40.478 z" color="#000" transform="matrix(-0.97218 -0.17085 0.17571 -0.94529 -1801.56 1605.67)" fill="#8fbc8f"/><g transform="matrix(1.24733 0 0 1.27941 -25.851 -26.764)"><path d="m 100.99 182.53 c 0 -2.169 -4.147 -4.463 -8.07 -4.463 -2.189 0 -4.538 -0.792 -5.931 -2 -1.268 -1.1 -3.085 -2 -4.04 -2 -2.268 0 -20.962 -18.71 -20.962 -20.981 0 -0.962 -0.9 -2.894 -2 -4.292 -1.124 -1.429 -2 -4.057 -2 -6 -3.105 -8.601 -4.703 -15.771 -4.361 -24.685 0 -4.328 -0.278 -10.01 0.586 -9.721 2.244 0.748 3.775 -6.831 3.775 -11.06 0 -2.681 0.643 -4.532 2 -5.761 1.1 -0.995 2 -2.722 2 -3.837 0 -2.483 18.437 -20.663 20.955 -20.663 0.954 0 2.55 -0.9 3.545 -2 1.263 -1.395 3.08 -2 6.01 -2 10.95 -1.676 12.652 -5.46 20.491 -6 0 0.55 1.125 1 2.5 1 1.375 0 2.5 -0.45 2.5 -1 7.157 -0.212 15.02 5.397 19.982 6 2.277 0 4.604 0.773 6.02 2 1.268 1.1 3.048 2 3.955 2 2.408 0 21.05 18.1 21.05 20.436 -0.003 1.065 0.99 2.995 2.206 4.289 1.589 1.691 2.167 3.456 2.055 6.272 -0.127 3.184 0.377 4.367 2.69 6.313 l 2.846 2.395 l -0.047 12.398 c -0.03 7.872 -0.45 12.672 -1.151 13.148 -0.763 0.518 -0.64 1.054 0.396 1.735 1.294 0.849 1.268 0.987 -0.193 1 -2.426 0.022 -4.807 3.901 -4.807 7.83 0 1.856 -0.899 4.512 -2 5.912 -1.1 1.398 -2 3.307 -2 4.242 0 2.355 -18.479 21.03 -20.809 21.03 -1.034 0 -2.695 0.9 -3.691 2 -1.276 1.41 -3.08 2 -6.116 2 -3.142 0 -4.857 0.592 -6.345 2.189 -1.121 1.204 -2.039 2.512 -2.039 2.906 0 0.395 -6.525 0.718 -14.5 0.718 -11.504 0 -14.5 -0.279 -14.5 -1.35 z" fill="#df0ddf"/><path d="m 100.99 182.53 c 0 -2.169 -4.147 -4.463 -8.07 -4.463 -2.189 0 -4.538 -0.792 -5.931 -2 -1.268 -1.1 -3.03 -2 -3.904 -2 -0.879 0 -4.188 -2.43 -7.354 -5.4 -6.635 -6.225 -6.638 -6.689 -0.079 -13.807 4.945 -5.366 5.417 -8.04 1.837 -10.385 -1.699 -1.113 -2.5 -2.552 -2.5 -4.488 0 -1.826 -0.718 -3.234 -2 -3.92 -1.579 -0.845 -2 -2.094 -2 -5.928 0 -5.788 -0.471 -6.072 -10.08 -6.072 -6.616 0 -6.918 0.104 -6.918 2.375 -0.908 4.571 2.075 -22.262 4 -29.11 0 -2.681 0.643 -4.532 2 -5.761 1.1 -0.995 2 -2.722 2 -3.837 0 -2.483 18.437 -20.663 20.955 -20.663 0.954 0 2.55 -0.9 3.545 -2 1.263 -1.395 3.08 -2 6.01 -2 10.95 -1.676 12.778 -5.95 20.491 -6 0 0.55 1.125 1 2.5 1 1.375 0 2.5 -0.45 2.5 -1 8.58 0.128 11.502 5.764 19.982 6 2.277 0 4.604 0.773 6.02 2 1.268 1.1 3.048 2 3.955 2 2.408 0 21.05 18.1 21.05 20.436 -0.003 1.065 0.984 2.988 2.193 4.275 1.519 1.617 2.162 3.489 2.081 6.06 -0.078 2.51 0.562 4.455 1.964 5.962 1.144 1.23 2.19 3.48 2.323 5 1.421 16.19 1.491 22.613 0.255 23.41 -1.073 0.693 -1.04 1.038 0.179 1.838 1.294 0.849 1.268 0.987 -0.193 1 -2.426 0.022 -4.807 3.901 -4.807 7.83 0 1.856 -0.899 4.512 -2 5.912 -1.1 1.398 -2 3.307 -2 4.242 0 2.355 -18.479 21.03 -20.809 21.03 -1.034 0 -2.695 0.9 -3.691 2 -1.276 1.41 -3.08 2 -6.116 2 -3.142 0 -4.857 0.592 -6.345 2.189 -1.121 1.204 -2.039 2.512 -2.039 2.906 0 0.395 -6.525 0.718 -14.5 0.718 -11.504 0 -14.5 -0.279 -14.5 -1.35 z m -6.698 -46.33 c 11.785 -11.596 11.622 -12.13 -3.689 -12.13 -6.297 0 -12.161 0.273 -13.03 0.607 -1.17 0.449 -1.582 2 -1.582 5.965 0 4.334 0.382 5.562 2 6.428 1.268 0.679 2 2.094 2 3.869 0 6.825 3.847 5.55 14.302 -4.737 z" fill="#0fdddd"/><path d="m 101 183.22 c 0.001 -0.361 1.91 -0.788 4.242 -0.948 2.332 -0.161 4.603 -0.654 5.05 -1.097 0.443 -0.443 0.671 -4.136 0.508 -8.208 l -0.297 -7.403 l -4.641 -0.3 c -3.044 -0.197 -5.248 -0.971 -6.405 -2.25 -0.97 -1.072 -2.816 -1.95 -4.101 -1.95 -1.285 0 -2.899 -0.9 -3.586 -2 -1.931 -3.092 -5.883 -2.508 -9.703 1.433 -4.349 4.487 -8.509 6.273 -10.588 4.547 -2.157 -1.79 -0.993 -4.648 4.152 -10.188 4.977 -5.359 5.459 -8.03 1.872 -10.385 -1.699 -1.113 -2.5 -2.552 -2.5 -4.488 0 -1.826 -0.718 -3.234 -2 -3.92 -1.579 -0.845 -2 -2.094 -2 -5.928 0 -5.788 -0.471 -6.072 -10.08 -6.072 -6.616 0 -6.918 0.104 -6.918 2.375 0 3.838 2.465 7.89 1.519 7.89 -3.486 -7.896 1.823 -20.482 -1.157 -25.279 2.767 -1.254 3.521 -7.847 3.637 -11.725 0 -2.681 0.643 -4.532 2 -5.761 1.1 -0.995 2 -2.722 2 -3.837 0 -2.483 18.437 -20.663 20.955 -20.663 0.954 0 2.55 -0.9 3.545 -2 1.263 -1.395 3.353 -0.795 6.01 -2 4.591 -2.083 9.191 -3.809 11.878 -4.689 1.924 -0.631 6.185 -2.585 7.164 -1.311 0.87 1.133 -2.87 0.949 -2.487 0.005 0.606 -1.493 3.937 -1.481 3.937 -0.005 0 0.55 0.999 -0.593 2.374 -0.593 1.375 0 2.626 1.143 2.626 0.593 0 -1.476 4.839 -1.12 5.445 0.373 0.383 0.944 0 0 5.573 0.608 20.389 8.303 7.07 3.849 8.964 5.02 2.277 0 4.604 0.773 6.02 2 1.268 1.1 3.048 2 3.955 2 2.408 0 21.05 18.1 21.05 20.436 -0.003 1.065 0.984 2.988 2.193 4.275 1.519 1.617 2.162 3.489 2.081 6.06 -0.078 2.51 0.562 4.455 1.964 5.962 1.144 1.23 2.19 3.48 2.323 5 1.421 16.19 1.491 22.613 0.255 23.41 -1.073 0.693 -1.04 1.038 0.179 1.838 1.294 0.849 1.268 0.987 -0.193 1 -2.426 0.022 -4.807 3.901 -4.807 7.83 0 1.856 -0.899 4.512 -2 5.912 -1.1 1.398 -2 3.344 -2 4.324 0 2.214 -17.775 19.948 -19.993 19.948 -0.89 0 -3.143 1.125 -5.01 2.5 -2.157 1.591 -4.715 2.5 -7.04 2.5 -3.553 0 -6.961 2.318 -6.961 4.735 0 0.72 -4.805 1.078 -14.5 1.078 -7.975 0 -14.499 -0.295 -14.499 -0.656 z m 10.01 -35.656 c 0.521 -12.222 0.365 -14.5 -0.989 -14.5 -0.42 0 -4.534 3.854 -9.143 8.564 -6.301 6.44 -8.379 9.23 -8.379 11.25 0 2.161 0.517 2.746 2.646 2.993 1.455 0.169 3.457 1.202 4.447 2.297 1.395 1.541 2.829 1.923 6.354 1.694 l 4.553 -0.297 z m -16.709 -11.368 c 11.785 -11.596 11.622 -12.13 -3.689 -12.13 -6.297 0 -12.161 0.273 -13.03 0.607 -1.17 0.449 -1.582 2 -1.582 5.965 0 4.334 0.382 5.562 2 6.428 1.268 0.679 2 2.094 2 3.869 0 6.825 3.847 5.55 14.302 -4.737 z" fill="#e5c40c"/><path d="m 103.99 183.18 c 0 -0.543 1.463 -1.129 3.25 -1.301 l 3.25 -0.313 v -8 v -8 l -4.641 -0.3 c -3.044 -0.197 -5.248 -0.971 -6.405 -2.25 -0.97 -1.072 -2.816 -1.95 -4.101 -1.95 -1.285 0 -2.899 -0.9 -3.586 -2 -1.931 -3.092 -5.883 -2.508 -9.703 1.433 -4.349 4.487 -8.509 6.273 -10.588 4.547 -2.157 -1.79 -0.993 -4.648 4.152 -10.188 4.977 -5.359 5.459 -8.03 1.872 -10.385 -1.699 -1.113 -2.5 -2.552 -2.5 -4.488 0 -1.826 -0.718 -3.234 -2 -3.92 -1.579 -0.845 -2 -2.094 -2 -5.928 0 -5.788 -0.471 -6.072 -10.08 -6.072 -6.616 0 -6.918 0.104 -6.918 2.375 0 3.838 1.334 5.072 0.388 5.072 0.656 -3.547 -0.388 -5.072 -1.133 -7.958 0.665 -1.802 0.889 -3.731 1.256 -5.612 -1.392 -2.503 -0.795 -6.651 0.628 -8.132 -3.348 0.749 3.225 -7.562 3.04 -11.155 -0.138 -2.055 0.666 -4.346 2.304 -6.567 1.384 -1.876 2.537 -4.111 2.562 -4.967 0.025 -0.856 2.238 -3.962 4.917 -6.903 4.361 -4.788 5.183 -5.279 7.845 -4.695 1.636 0.359 4.616 2.428 6.623 4.598 2.01 2.17 4.129 3.945 4.715 3.945 0.586 0 2.402 -1.125 4.04 -2.5 1.634 -1.375 3.63 -2.5 4.435 -2.5 0.805 0 2.759 -0.958 4.343 -2.129 2.075 -1.534 3.627 -1.941 5.555 -1.457 4.368 1.096 5.485 -0.743 5.485 -9.04 -0.182 -7.373 7.44 -12.662 7.985 -0.005 0.187 4.274 0.643 7.642 1.242 8.377 0.56 0.688 2.972 1.25 5.361 1.25 3.319 0 4.595 0.471 5.413 2 0.686 1.282 2.094 2 3.92 2 1.936 0 3.375 0.801 4.488 2.5 2.35 3.587 4.813 3.11 10.1 -1.959 6.937 -6.646 7.81 -6.671 14.09 -0.397 2.947 2.946 5.368 6.226 5.38 7.291 0.012 1.065 1.011 2.988 2.22 4.275 1.519 1.617 2.162 3.489 2.081 6.06 -0.078 2.51 0.562 4.455 1.964 5.962 1.144 1.23 2.19 3.48 2.323 5 1.421 16.19 1.491 22.613 0.255 23.41 -1.073 0.693 -1.04 1.038 0.179 1.838 1.294 0.849 1.268 0.987 -0.193 1 -2.426 0.022 -4.807 3.901 -4.807 7.83 0 1.856 -0.899 4.512 -2 5.912 -1.1 1.398 -2 3.344 -2 4.324 0 2.214 -17.775 19.948 -19.993 19.948 -0.89 0 -3.143 1.125 -5.01 2.5 -2.189 1.615 -4.71 2.5 -7.122 2.5 -2.665 0 -4.255 0.644 -5.556 2.25 -2.027 2.502 -1.621 2.422 -16.573 3.254 -6.813 0.379 -10.75 0.236 -10.75 -0.39 z m 7.01 -35.614 c 0.521 -12.222 0.365 -14.5 -0.989 -14.5 -0.42 0 -4.534 3.854 -9.143 8.564 -6.301 6.44 -8.379 9.23 -8.379 11.25 0 2.161 0.517 2.746 2.646 2.993 1.455 0.169 3.457 1.202 4.447 2.297 1.395 1.541 2.829 1.923 6.354 1.694 l 4.553 -0.297 z m -16.709 -11.368 c 11.785 -11.596 11.622 -12.13 -3.689 -12.13 -6.297 0 -12.161 0.273 -13.03 0.607 -1.17 0.449 -1.582 2 -1.582 5.965 0 4.334 0.382 5.562 2 6.428 1.268 0.679 2 2.094 2 3.869 0 6.825 3.847 5.55 14.302 -4.737 z m 36.829 -37.27 c 4.878 -5.02 8.869 -9.487 8.869 -9.918 0 -2.485 -1.508 -3.947 -4.072 -3.947 -1.834 0 -3.241 -0.716 -3.928 -2 -0.847 -1.583 -2.094 -2 -5.976 -2 -2.698 0 -5.226 0.518 -5.617 1.151 -0.751 1.215 -1.204 24.718 -0.49 25.432 1.158 1.158 3.062 -0.322 11.214 -8.718 z m -20.13 -3.743 c 0 -8.629 -0.362 -12.178 -1.322 -12.975 -1.889 -1.568 -7.228 -0.647 -10.312 1.78 -1.449 1.14 -3.674 2.073 -4.944 2.073 -2.072 0 -5.422 3.227 -5.422 5.223 0 0.428 1.321 0.777 2.936 0.777 2.383 0 4.215 1.412 9.729 7.5 3.736 4.125 7.365 7.5 8.06 7.5 0.957 0 1.271 -2.935 1.271 -11.878 z" fill="#1cbd2d"/><path d="m 112.66 181.4 c -0.367 -0.367 -0.667 -3.951 -0.667 -7.965 0 -6.383 -0.262 -7.439 -2.093 -8.418 -1.151 -0.616 -3.219 -0.838 -4.596 -0.492 -2.429 0.61 -5.311 -0.791 -5.311 -2.58 0 -0.483 1.939 -0.878 4.309 -0.878 7.477 0 7.795 -0.66 7.473 -15.51 -0.217 -9.993 -0.588 -12.99 -1.61 -12.99 -0.731 0 -5.34 4.05 -10.242 9 -6.859 6.926 -8.916 9.634 -8.922 11.75 -0.007 2.305 -0.436 2.75 -2.654 2.75 -1.763 0 -4.276 1.525 -7.528 4.566 -5.43 5.079 -9.08 5.691 -9.654 1.621 -0.232 -1.635 1.014 -3.747 4.25 -7.207 5.176 -5.533 5.7 -8.199 2.078 -10.572 -1.699 -1.113 -2.5 -2.552 -2.5 -4.488 0 -1.826 -0.718 -3.234 -2 -3.92 -1.579 -0.845 -2 -2.094 -2 -5.928 0 -5.788 -0.471 -6.072 -10.08 -6.072 h -6.918 v -8.686 c 0 -7.575 0.282 -8.985 2.202 -11.03 1.487 -1.583 2.131 -3.401 1.983 -5.598 -0.146 -2.162 0.625 -4.397 2.298 -6.664 1.384 -1.876 2.517 -4.157 2.517 -5.068 0 -2.536 9.928 -11.205 12.833 -11.205 1.59 0 3.863 1.466 6.393 4.125 2.159 2.269 4.389 4.125 4.955 4.125 0.567 0 2.367 -1.125 4 -2.5 1.634 -1.375 3.63 -2.5 4.435 -2.5 0.805 0 2.759 -0.958 4.343 -2.129 2.075 -1.534 3.627 -1.941 5.555 -1.457 4.294 1.078 5.485 -0.772 5.485 -8.518 0 -6.48 0.138 -6.893 2.498 -7.485 4.664 -1.171 5.394 -0.112 5.709 8.291 l 0.293 7.798 l 5.341 0.536 c 3.597 0.361 5.654 1.096 6.3 2.25 0.527 0.943 1.8 1.714 2.828 1.714 3.193 0 5.03 1.136 5.03 3.107 0 2.614 -4.348 2.51 -6.838 -0.164 -1.562 -1.677 -2.907 -2 -7.289 -1.75 l -5.373 0.307 l -0.28 12.77 c -0.368 16.772 0.017 16.939 11.869 5.142 6.937 -6.905 8.911 -9.484 8.911 -11.641 0 -2.33 0.421 -2.771 2.646 -2.771 1.763 0 4.276 -1.525 7.528 -4.566 8.95 -8.372 13.764 -3.558 5.392 5.392 -3.041 3.251 -4.566 5.765 -4.566 7.528 0 2.225 -0.441 2.646 -2.771 2.646 -2.157 0 -4.736 1.974 -11.641 8.911 -11.552 11.605 -11.4 12.09 3.799 12.09 6.297 0 12.161 -0.273 13.03 -0.607 2.494 -0.957 2.181 -10.435 -0.418 -12.661 -2.632 -2.254 -2.703 -6.732 -0.107 -6.732 1.934 0 3.107 1.834 3.107 4.86 0 0.933 0.9 2.467 2 3.408 1.449 1.241 2 2.95 2 6.203 0 5.137 0.362 5.337 10.5 5.771 5.655 0.243 6.02 0.408 6.304 2.882 0.513 4.421 -2.204 6.106 -9.215 5.715 l -6.089 -0.339 l -0.536 5.341 c -0.361 3.597 -1.096 5.654 -2.25 6.3 -0.943 0.527 -1.714 2.065 -1.714 3.416 0 1.374 -1.102 3.415 -2.5 4.631 -1.375 1.196 -2.5 2.676 -2.5 3.29 0 0.614 1.8 2.874 4 5.02 5.524 5.394 5.388 8.254 -0.695 14.601 -2.582 2.694 -5.42 4.899 -6.306 4.899 -0.886 0 -3.136 1.125 -4.999 2.5 -2.157 1.591 -4.715 2.5 -7.04 2.5 -2.381 0 -4.28 0.696 -5.461 2 -1.529 1.689 -3.08 2 -9.988 2 -4.498 0 -8.478 -0.3 -8.845 -0.667 z m -18.365 -45.2 c 11.785 -11.596 11.622 -12.13 -3.689 -12.13 -6.297 0 -12.161 0.273 -13.03 0.607 -1.17 0.449 -1.582 2 -1.582 5.965 0 4.334 0.382 5.562 2 6.428 1.268 0.679 2 2.094 2 3.869 0 6.825 3.847 5.55 14.302 -4.737 z m 55.793 4.057 c 0.371 -1.815 1.432 -3.853 2.358 -4.53 1.232 -0.901 1.598 -2.391 1.365 -5.568 l -0.318 -4.337 l -11.846 -0.126 c -6.515 -0.07 -12.04 0.183 -12.271 0.562 -0.691 1.119 16.982 17.81 18.577 17.544 0.803 -0.134 1.764 -1.729 2.135 -3.544 z m -39.1 -45.07 c 0 -8.629 -0.362 -12.178 -1.322 -12.975 -1.889 -1.568 -7.228 -0.647 -10.312 1.78 -1.449 1.14 -3.674 2.073 -4.944 2.073 -2.072 0 -5.422 3.227 -5.422 5.223 0 0.428 1.321 0.777 2.936 0.777 2.383 0 4.215 1.412 9.729 7.5 3.736 4.125 7.365 7.5 8.06 7.5 0.957 0 1.271 -2.935 1.271 -11.878 z m -17.559 64.4 c -1.68 -1.282 -1.739 -1.616 -0.441 -2.485 1.977 -1.323 2.278 -1.293 4.559 0.447 1.68 1.282 1.739 1.616 0.441 2.485 -1.977 1.323 -2.278 1.293 -4.559 -0.447 z" fill="#d71a0b"/><path d="m 112.66 181.4 c -0.367 -0.367 -0.667 -3.951 -0.667 -7.965 0 -6.383 -0.262 -7.439 -2.093 -8.418 -1.151 -0.616 -3.219 -0.838 -4.596 -0.492 -2.429 0.61 -5.311 -0.791 -5.311 -2.58 0 -0.483 1.939 -0.878 4.309 -0.878 7.477 0 7.795 -0.66 7.473 -15.51 -0.217 -9.993 -0.588 -12.99 -1.61 -12.99 -0.731 0 -5.34 4.05 -10.242 9 -6.859 6.926 -8.916 9.634 -8.922 11.75 -0.007 2.305 -0.436 2.75 -2.654 2.75 -1.763 0 -4.276 1.525 -7.528 4.566 -5.43 5.079 -9.08 5.691 -9.654 1.621 -0.232 -1.635 1.014 -3.747 4.25 -7.207 5.176 -5.533 5.7 -8.199 2.078 -10.572 -1.699 -1.113 -2.5 -2.552 -2.5 -4.488 0 -1.826 -0.718 -3.234 -2 -3.92 -1.579 -0.845 -2 -2.094 -2 -5.928 0 -5.788 -0.471 -6.072 -10.08 -6.072 h -6.918 v -3.5 v -3.5 h 6.918 c 9.611 0 10.08 -0.284 10.08 -6.072 0 -3.834 0.421 -5.083 2 -5.928 1.1 -0.589 2.01 -2.067 2.02 -3.285 0.019 -2.724 0.949 -4.163 3.235 -5.01 3.207 -1.183 2.067 -5.456 -2.864 -10.727 -3.771 -4.03 -4.499 -5.395 -3.981 -7.457 0.963 -3.837 4.208 -3.16 9.763 2.037 5.239 4.901 7.906 5.236 10.704 1.346 0.796 -1.107 2.565 -1.907 4.215 -1.907 1.819 0 3.228 -0.72 3.913 -2 0.849 -1.586 2.094 -2 6.02 -2 5.655 0 5.785 -0.22 6.226 -10.5 0.255 -5.943 0.286 -6 3.257 -6 h 3 l 0.5 8 l 0.5 8 l 5.341 0.536 c 3.597 0.361 5.654 1.096 6.3 2.25 0.527 0.943 1.8 1.714 2.828 1.714 3.193 0 5.03 1.136 5.03 3.107 0 2.614 -4.348 2.51 -6.838 -0.164 -1.562 -1.677 -2.907 -2 -7.289 -1.75 l -5.373 0.307 l -0.28 12.77 c -0.368 16.772 0.017 16.939 11.869 5.142 6.937 -6.905 8.911 -9.484 8.911 -11.641 0 -2.33 0.421 -2.771 2.646 -2.771 1.763 0 4.276 -1.525 7.528 -4.566 8.95 -8.372 13.764 -3.558 5.392 5.392 -3.041 3.251 -4.566 5.765 -4.566 7.528 0 2.225 -0.441 2.646 -2.771 2.646 -2.157 0 -4.736 1.974 -11.641 8.911 -11.552 11.605 -11.4 12.09 3.799 12.09 6.297 0 12.161 -0.273 13.03 -0.607 2.494 -0.957 2.181 -10.435 -0.418 -12.661 -2.632 -2.254 -2.703 -6.732 -0.107 -6.732 1.934 0 3.107 1.834 3.107 4.86 0 0.933 0.9 2.467 2 3.408 1.449 1.241 2 2.95 2 6.203 0 5.137 0.362 5.337 10.5 5.771 5.655 0.243 6.02 0.408 6.304 2.882 0.513 4.421 -2.204 6.106 -9.215 5.715 l -6.089 -0.339 l -0.536 5.341 c -0.361 3.597 -1.096 5.654 -2.25 6.3 -0.943 0.527 -1.714 2.065 -1.714 3.416 0 1.374 -1.102 3.415 -2.5 4.631 -1.375 1.196 -2.5 2.676 -2.5 3.29 0 0.614 1.8 2.874 4 5.02 5.524 5.394 5.388 8.254 -0.695 14.601 -2.582 2.694 -5.42 4.899 -6.306 4.899 -0.886 0 -3.136 1.125 -4.999 2.5 -2.157 1.591 -4.715 2.5 -7.04 2.5 -2.381 0 -4.28 0.696 -5.461 2 -1.529 1.689 -3.08 2 -9.988 2 -4.498 0 -8.478 -0.3 -8.845 -0.667 z m -18.365 -45.2 c 11.785 -11.596 11.622 -12.13 -3.689 -12.13 -6.297 0 -12.161 0.273 -13.03 0.607 -1.17 0.449 -1.582 2 -1.582 5.965 0 4.334 0.382 5.562 2 6.428 1.268 0.679 2 2.094 2 3.869 0 6.825 3.847 5.55 14.302 -4.737 z m 55.793 4.057 c 0.371 -1.815 1.432 -3.853 2.358 -4.53 1.232 -0.901 1.598 -2.391 1.365 -5.568 l -0.318 -4.337 l -11.846 -0.126 c -6.515 -0.07 -12.04 0.183 -12.271 0.562 -0.691 1.119 16.982 17.81 18.577 17.544 0.803 -0.134 1.764 -1.729 2.135 -3.544 z m -47.41 -24.82 c 0.955 -2.488 -16.515 -19.368 -20.04 -19.368 -2.351 0 -2.645 0.385 -2.645 3.465 0 2.441 -0.591 3.781 -2 4.535 -1.62 0.867 -2 2.094 -2 6.452 0 3.37 0.467 5.57 1.25 5.886 0.688 0.277 6.552 0.54 13.03 0.583 10.02 0.067 11.875 -0.165 12.408 -1.553 z m 9.102 -18.88 c 0.408 -15.418 0.38 -15.488 -6.275 -15.488 -4.422 0 -5.647 0.376 -6.516 2 -0.678 1.266 -2.094 2 -3.861 2 -3.311 0 -7.681 4.146 -6.797 6.449 0.327 0.853 1.633 1.551 2.902 1.551 1.542 0 4.784 2.494 9.781 7.525 4.111 4.139 8.15 7.396 8.975 7.238 1.203 -0.23 1.558 -2.461 1.791 -11.275 z m -18.35 63.03 c -1.68 -1.282 -1.739 -1.616 -0.441 -2.485 1.977 -1.323 2.278 -1.293 4.559 0.447 1.68 1.282 1.739 1.616 0.441 2.485 -1.977 1.323 -2.278 1.293 -4.559 -0.447 z" fill="#0e0ede"/><path d="m 112.66 181.4 c -0.367 -0.367 -0.667 -3.951 -0.667 -7.965 0 -6.383 -0.262 -7.439 -2.093 -8.418 -1.151 -0.616 -3.175 -0.441 -4.596 -0.492 -8.138 -0.293 -14.75 -9.256 -7.01 -4.386 0.416 0.262 1.62 0.279 6.01 0.326 5.761 0.061 7.795 -0.058 7.473 -14.908 -0.217 -9.993 -0.588 -12.99 -1.61 -12.99 -0.731 0 -5.34 4.05 -10.242 9 -6.859 6.926 -8.916 9.634 -8.922 11.75 -0.007 2.305 -0.436 2.75 -2.654 2.75 -1.763 0 -4.276 1.525 -7.528 4.566 -5.43 5.079 -9.08 5.691 -9.654 1.621 -0.232 -1.635 1.014 -3.747 4.25 -7.207 5.176 -5.533 5.7 -8.199 2.078 -10.572 -1.699 -1.113 -4.506 -6.613 -4.506 -8.55 0 -1.826 1.288 0.828 0.006 0.142 -1.579 -0.845 -2 -2.094 -2 -5.928 0 -5.788 -0.471 -6.072 -10.08 -6.072 h -6.918 v -3.5 v -3.5 h 6.918 c 9.611 0 10.08 -0.284 10.08 -6.072 0 -3.834 0.421 -5.083 2 -5.928 1.1 -0.589 2.01 -2.067 2.02 -3.285 0.019 -2.724 1.664 -4.02 2.926 -6.06 2.127 -3.44 2.375 -4.402 -2.556 -9.674 -3.771 -4.03 -4.499 -5.395 -3.981 -7.457 0.963 -3.837 4.208 -3.16 9.763 2.037 5.239 4.901 7.906 5.236 10.704 1.346 0.796 -1.107 2.565 -1.907 4.215 -1.907 1.819 0 3.228 -0.72 3.913 -2 0.849 -1.586 2.094 -2 6.02 -2 5.655 0 5.785 -0.22 6.226 -10.5 0.255 -5.943 0.286 -6 3.257 -6 h 3 l 0.5 8 l 0.5 8 l 5.341 0.536 c 3.597 0.361 5.654 1.096 6.3 2.25 0.527 0.943 -0.052 -0.543 0.976 -0.543 3.193 0 11.205 7.605 11.205 9.576 0 2.614 -8.668 -1.703 -11.159 -4.376 -1.562 -1.677 -2.907 -2 -7.289 -1.75 l -5.373 0.307 l -0.28 12.77 c -0.368 16.772 0.017 16.939 11.869 5.142 6.937 -6.905 8.911 -9.484 8.911 -11.641 0 -2.33 -0.505 -3.523 1.72 -3.523 1.763 0 5.202 -0.772 8.454 -3.814 8.95 -8.372 13.764 -3.558 5.392 5.392 -3.041 3.251 -4.566 5.765 -4.566 7.528 0 2.225 0.176 3.098 -2.154 3.098 -2.157 0 -5.353 1.523 -12.258 8.46 -11.552 11.605 -11.4 12.09 3.799 12.09 6.297 0 12.161 -0.273 13.03 -0.607 2.494 -0.957 2.181 -10.435 -0.418 -12.661 -2.632 -2.254 -5.02 -9.59 -2.422 -9.59 1.934 0 7.736 7.4 7.736 10.426 0 0 -1.415 -0.241 -0.315 0.7 1.449 1.241 2 2.95 2 6.203 0 5.137 0.362 5.337 10.5 5.771 5.655 0.243 6.02 0.408 6.304 2.882 0.513 4.421 -2.204 6.106 -9.215 5.715 l -6.089 -0.339 l -0.536 5.341 c -0.361 3.597 -1.096 5.654 -2.25 6.3 -0.943 0.527 -1.714 2.065 -1.714 3.416 0 1.374 -1.102 3.415 -2.5 4.631 -1.375 1.196 -2.5 2.676 -2.5 3.29 0 0.614 1.8 2.874 4 5.02 4.625 4.516 5.526 9.613 2.031 11.483 -1.667 0.892 -2.818 0.284 -7.511 -3.965 -6.278 -5.686 -9.563 -6.415 -11.339 -2.519 -0.845 1.854 -2.19 1.45 -4.125 2.5 -5.821 3.159 -3.353 0.685 -4.057 2 -0.849 1.586 -2.094 2 -6.02 2 -4.46 0 -5.01 0.249 -5.582 2.536 -0.35 1.395 -0.442 5.22 -0.205 8.5 l 0.431 5.964 h -3.147 c -1.731 0 -3.447 -0.3 -3.814 -0.667 z m 19.299 -23.27 c 0.625 -1.168 2.992 -0.802 4.285 -2.25 6.273 -7.02 3.322 -0.833 3.577 -2.629 0.253 -1.783 -1.73 -4.407 -8.618 -11.407 -11.682 -11.872 -12.21 -11.716 -12.21 3.61 0 6.297 0.273 12.161 0.607 13.03 0.96 2.503 10.984 2.215 12.359 -0.355 z m -37.664 -21.932 c 13.638 -9.471 11.622 -12.13 -3.689 -12.13 -6.297 0 -12.161 0.273 -13.03 0.607 -1.17 0.449 -1.582 2 -1.582 5.965 0 4.334 0.382 5.562 2 6.428 1.268 0.679 2.673 4.767 4.01 5.975 1.389 1.258 0.298 1.489 12.296 -6.843 z m 55.793 4.057 c 0.371 -1.815 1.432 -3.853 2.358 -4.53 1.232 -0.901 1.598 -2.391 1.365 -5.568 l -0.318 -4.337 l -11.846 -0.126 c -6.515 -0.07 -12.04 0.183 -12.271 0.562 -0.691 1.119 16.982 17.81 18.577 17.544 0.803 -0.134 1.764 -1.729 2.135 -3.544 z m -47.41 -24.82 c 0.955 -2.488 -16.515 -19.368 -20.04 -19.368 -2.351 0 5.389 -2.746 -2.953 5.27 -1.784 1.714 -2.597 6.04 -4.01 6.792 -1.62 0.867 0.315 -1.968 0.315 2.39 0 3.37 0.467 5.57 1.25 5.886 0.688 0.277 6.552 0.54 13.03 0.583 10.02 0.067 11.875 -0.165 12.408 -1.553 z m 9.102 -18.88 c 0.408 -15.418 0.38 -15.488 -6.275 -15.488 -4.422 0 -5.647 0.376 -6.516 2 -0.678 1.266 -2.094 2 -3.861 2 -3.311 0 -7.681 4.146 -6.797 6.449 0.327 0.853 1.633 1.551 2.902 1.551 1.542 0 4.784 2.494 9.781 7.525 4.111 4.139 8.15 7.396 8.975 7.238 1.203 -0.23 1.558 -2.461 1.791 -11.275 z m -18.35 63.03 c -1.68 -1.282 -5.134 -4.324 -3.836 -5.193 1.977 -1.323 5.673 1.415 7.954 3.155 1.68 1.282 8.838 4.02 0.441 2.485 -2.357 -0.432 -2.278 1.293 -4.559 -0.447 z" fill="#191c16"/></g><g fill="#8fbc8f" stroke="#8fbc8f"><path d="m 102.64 205.23 c 0.88 -0.003 1.764 0.116 2.604 0.379 0.818 0.292 1.609 0.61 2.47 0.762 0.796 0.28 1.624 0.413 2.461 0.483 0.82 0.053 1.642 0.049 2.463 0.05 0.827 -0.001 1.653 -0.003 2.48 -0.004 0.827 -0.001 1.654 -0.001 2.481 -0.001 0.827 0 1.654 0 2.481 0 0.827 0 1.654 0 2.481 0 0.827 0 1.654 0 2.481 0 0.827 0 1.654 0 2.481 0 0.827 0 1.654 0 2.481 0 0.827 0 1.654 0 2.481 0 0.827 0 1.654 0 2.481 0 0.683 -0.079 1.261 -0.416 1.903 -0.617 0.634 -0.139 1.319 -0.267 1.88 -0.607 0.387 -0.258 0.859 -0.232 1.285 -0.35 0.208 -0.058 0.398 -0.166 0.602 -0.237 0.109 -0.028 0.223 -0.04 0.327 -0.083 0.095 -0.039 0.177 -0.106 0.265 -0.159 0.095 -0.043 0.188 -0.092 0.285 -0.129 0.321 -0.122 0.616 -0.153 0.921 -0.317 0.287 -0.184 0.643 -0.171 0.953 -0.276 0.307 -0.104 0.578 -0.26 0.897 -0.349 0.538 -0.141 1.027 -0.372 1.583 -0.478 0 0 -4.849 3.709 -4.849 3.709 c -0.523 0.166 -1.027 0.379 -1.559 0.515 -0.606 0.232 -1.231 0.399 -1.826 0.661 -0.622 0.184 -1.195 0.483 -1.82 0.655 -0.622 0.202 -1.277 0.305 -1.855 0.633 -0.636 0.193 -1.269 0.384 -1.906 0.569 -0.642 0.256 -1.309 0.443 -2.01 0.435 -0.827 0 -1.654 0 -2.481 0 -0.827 0 -1.654 0 -2.481 0 -0.827 0 -1.654 0 -2.481 0 -0.827 0 -1.654 0 -2.481 0 -0.827 0 -1.654 0 -2.481 0 -0.827 0 -1.654 0 -2.481 0 -0.827 0 -1.654 0 -2.481 0 -0.827 0 -1.654 0 -2.481 0.002 -0.827 0.001 -1.655 0.004 -2.482 0.002 -0.834 -0.006 -1.669 -0.011 -2.499 -0.101 -0.847 -0.109 -1.672 -0.307 -2.495 -0.534 -0.849 -0.207 -1.645 -0.555 -2.484 -0.79 -0.843 -0.182 -1.692 -0.294 -2.556 -0.218 0 0 4.961 -3.604 4.961 -3.604 z"/><path d="m 99.75 203.99 c 0.55 0.075 1.072 -0.179 1.616 -0.21 0.163 -0.009 0.734 0.041 0.899 0.054 0.946 0.024 1.764 0.46 2.59 0.867 0.803 0.351 1.652 0.577 2.468 0.891 0.827 0.268 1.675 0.433 2.482 0.764 0.819 0.314 1.665 0.556 2.48 0.878 0.873 0.3 1.781 0.463 2.653 0.769 1.023 0.31 2.082 0.46 3.127 0.675 0.931 0.191 1.88 0.252 2.828 0.282 0.834 0.018 1.668 0.013 2.502 0.011 0.921 -0.001 1.842 0 2.763 0.006 1.084 0.003 2.168 -0.002 3.251 0.003 1.284 -0.001 2.568 0.014 3.852 0.012 1.768 -0.127 3.494 -0.555 5.197 -1.026 1.45 -0.43 0.708 -0.212 2.224 -0.655 0 0 -4.634 3.575 -4.634 3.575 c -1.546 0.465 -0.789 0.241 -2.271 0.674 -1.757 0.471 -3.545 0.903 -5.372 0.959 -1.295 -0.002 -2.59 0.013 -3.884 0.012 -1.087 0.004 -2.173 0 -3.26 0.004 -0.929 0.007 -1.859 0.01 -2.788 0.013 -0.838 0 -1.676 0.002 -2.514 -0.038 -0.961 -0.058 -1.917 -0.166 -2.858 -0.377 -1.063 -0.218 -2.141 -0.376 -3.173 -0.724 -0.894 -0.263 -1.814 -0.435 -2.683 -0.779 -0.83 -0.285 -1.658 -0.578 -2.482 -0.88 -0.82 -0.276 -1.668 -0.455 -2.479 -0.758 -0.844 -0.285 -1.691 -0.57 -2.498 -0.95 -0.778 -0.378 -1.576 -0.665 -2.455 -0.654 -0.856 -0.001 -1.685 0.229 -2.544 0.207 0 0 4.961 -3.604 4.961 -3.604 z"/><path d="m 199 101.68 c -0.05 0.843 0.155 1.676 0.26 2.51 0.093 0.837 0.086 1.676 0.224 2.507 0.167 0.83 0.246 1.672 0.29 2.517 0.035 0.831 0.034 1.662 0.035 2.493 -0.063 0.837 0.21 1.618 0.442 2.406 0.243 0.828 0.318 1.687 0.361 2.544 0.031 0.831 0.026 1.662 0.025 2.493 0.031 0.828 0.272 1.619 0.484 2.413 0.219 0.83 0.284 1.685 0.321 2.539 0.027 0.83 0.023 1.661 0.021 2.492 -0.002 0.827 -0.003 1.654 -0.004 2.481 -0.001 0.827 -0.001 1.654 -0.001 2.481 0 0.827 0 1.654 0 2.481 -0.012 0.822 0.027 1.645 -0.025 2.465 -0.135 0.713 -0.264 1.424 -0.328 2.148 -0.057 0.803 -0.059 1.609 -0.062 2.414 -0.009 0.713 -0.212 1.387 -0.467 2.044 -0.196 0.624 -0.445 1.225 -0.633 1.852 -0.24 0.603 -0.418 1.224 -0.642 1.833 -0.238 0.691 -0.276 1.424 -0.308 2.147 -0.032 0.799 0.024 1.599 -0.102 2.391 -0.082 0.683 -0.319 1.323 -0.507 1.979 0 0 -5.505 2.64 -5.505 2.64 c 0.139 -0.669 0.44 -1.273 0.522 -1.954 0.179 -0.765 0.169 -1.525 0.158 -2.31 0.018 -0.768 0.036 -1.542 0.214 -2.293 0.183 -0.631 0.449 -1.228 0.626 -1.862 0.152 -0.308 0.191 -0.616 0.305 -0.938 0.035 -0.1 0.08 -0.195 0.12 -0.293 0.046 -0.088 0.104 -0.17 0.137 -0.263 0.039 -0.11 0.053 -0.228 0.079 -0.342 0.202 -0.627 0.514 -1.201 0.58 -1.87 0.001 -0.817 -0.001 -1.634 0.036 -2.449 0.043 -0.734 0.111 -1.468 0.307 -2.179 0.175 -0.781 0.025 -1.602 0.074 -2.398 0 -0.827 0 -1.654 0 -2.481 0 -0.827 0 -1.654 0 -2.481 0 -0.827 0.001 -1.654 0.003 -2.481 0.002 -0.823 0.006 -1.647 -0.01 -2.47 -0.025 -0.813 -0.064 -1.63 -0.256 -2.423 -0.216 -0.845 -0.485 -1.674 -0.56 -2.549 0.002 -0.823 0.007 -1.646 -0.012 -2.469 -0.029 -0.812 -0.075 -1.629 -0.289 -2.418 -0.239 -0.838 -0.576 -1.667 -0.527 -2.556 0 -0.823 0.003 -1.646 -0.022 -2.468 -0.033 -0.821 -0.09 -1.642 -0.253 -2.449 -0.155 -0.843 -0.186 -1.684 -0.238 -2.539 -0.094 -0.853 -0.281 -1.694 -0.34 -2.549 0 0 5.464 -2.784 5.464 -2.784 z"/><path d="m 108.02 44.37 c 0.801 -0.207 1.63 -0.283 2.452 -0.344 0.858 -0.053 1.718 -0.056 2.577 -0.059 0.828 0.17 1.661 0.297 2.504 0.364 0.82 0.053 1.643 0.054 2.465 0.056 0.827 0.001 1.653 -0.001 2.48 -0.002 0.827 -0.001 1.654 -0.001 2.481 -0.001 0.827 0 1.654 0 2.481 0 0.827 0 1.654 0 2.481 0 0.827 0 1.654 0 2.481 0 0.827 0 1.654 0 2.481 0 0.827 0 1.654 0 2.481 0 0.827 0 1.654 0 2.481 0 0.827 0 1.654 0 2.481 0 0.826 0.172 1.657 0.296 2.498 0.362 0.967 0.002 1.908 0.098 2.841 0.357 1.075 0.459 2.179 0.821 3.284 1.195 1.041 0.305 2.067 0.641 3.137 0.829 0.932 0.1 1.852 0.155 2.775 0.316 0.728 0.186 1.438 0.424 2.159 0.632 0 0 -4.975 3.406 -4.975 3.406 c -0.71 -0.205 -1.418 -0.421 -2.147 -0.551 -0.925 -0.134 -1.862 -0.149 -2.779 -0.342 -1.071 -0.237 -2.116 -0.568 -3.159 -0.904 -1.1 -0.357 -2.173 -0.784 -3.273 -1.138 -0.934 -0.181 -1.871 -0.223 -2.819 -0.27 -0.824 -0.09 -1.637 -0.267 -2.465 -0.315 -0.827 0 -1.654 0 -2.481 0 -0.827 0 -1.654 0 -2.481 0 -0.827 0 -1.654 0 -2.481 0 -0.827 0 -1.654 0 -2.481 0 -0.827 0 -1.654 0 -2.481 0 -0.827 0 -1.654 0 -2.481 0 -0.827 0 -1.654 0 -2.481 0 -0.827 0 -1.654 0 -2.481 0.002 -0.827 0.001 -1.655 0.003 -2.482 -0.001 -0.833 -0.008 -1.666 -0.019 -2.496 -0.1 -0.825 -0.092 -1.639 -0.27 -2.468 -0.314 -0.848 0.007 -1.697 0.018 -2.542 0.095 -0.848 0.087 -1.682 0.26 -2.529 0.334 0 0 4.961 -3.604 4.961 -3.604 z"/><path d="m 200.65 118.22 c -0.046 0.947 -0.033 1.896 -0.03 2.845 0.004 0.877 0.006 1.755 0.008 2.632 -0.026 0.726 0.183 1.431 0.287 2.145 0.102 0.797 0.115 1.601 0.126 2.403 0.007 0.827 0.005 1.655 0.004 2.482 -0.013 0.822 0.025 1.646 -0.027 2.467 -0.135 0.713 -0.264 1.424 -0.328 2.148 -0.022 0.769 -0.059 1.524 -0.214 2.278 -0.166 0.713 -0.168 1.448 -0.323 2.162 -0.125 0.653 -0.429 1.244 -0.59 1.887 -0.193 0.64 -0.346 1.296 -0.573 1.925 -0.195 0.64 -0.416 1.268 -0.645 1.896 -0.297 0.754 -0.557 1.523 -0.816 2.29 -0.266 0.735 -0.504 1.479 -0.726 2.228 0 0 -5.409 2.577 -5.409 2.577 c 0.187 -0.755 0.377 -1.5 0.626 -2.236 0.295 -0.754 0.506 -1.54 0.788 -2.3 0.269 -0.606 0.477 -1.237 0.643 -1.877 0.074 -0.193 0.179 -0.374 0.241 -0.572 0.131 -0.42 0.148 -0.882 0.38 -1.272 0.056 -0.349 0.116 -0.689 0.24 -1.022 0.071 -0.189 0.195 -0.356 0.262 -0.546 0.039 -0.109 0.05 -0.226 0.075 -0.339 0.193 -0.707 0.234 -1.417 0.334 -2.143 0.151 -0.738 0.31 -1.449 0.259 -2.211 0.043 -0.734 0.111 -1.468 0.307 -2.179 0.175 -0.782 0.025 -1.604 0.075 -2.4 0.001 -0.825 0.003 -1.65 -0.001 -2.475 -0.008 -0.777 -0.015 -1.556 -0.101 -2.329 -0.099 -0.744 -0.326 -1.473 -0.312 -2.227 0.001 -0.88 0.004 -1.76 0.008 -2.64 0.003 -0.938 0.017 -1.877 -0.03 -2.814 0 0 5.464 -2.784 5.464 -2.784 z"/></g></g></svg>