<svg xmlns="http://www.w3.org/2000/svg" viewBox="0 0 256 256"><path d="m 232.31834,52.789168 c -48.541,-88.14 -200.630004,-53.9310001 -226.3600043,18.64 C -24.701664,157.87917 55.098336,322.05917 190.25834,225.87917 c 45.527,-33.585 90.6,-84.949 42.05,-173.090002 z" style="fill:#deb887;color:#000"/><path d="m 71.937313,135.79515 -10.30129,-60.987142 54.888277,-9.271133 54.88826,-9.271133 7.58874,44.927908 7.58873,44.9279 -13.40207,18.84969 -13.40206,18.84968 -38.77364,6.48077 -38.773648,6.48066 -10.301289,-60.98714 z m 22.045209,36.97847 c 0.35339,-0.63898 0.89187,-2.59018 1.19665,-4.33602 0.4226,-2.42079 1.37036,-3.76864 3.99285,-5.67838 1.891298,-1.37726 3.844218,-3.06983 4.339818,-3.76124 0.49561,-0.69141 1.26975,-1.31938 1.72033,-1.39549 0.45058,-0.0761 0.14207,-0.61983 -0.68557,-1.20828 -0.82765,-0.58845 -1.56263,-1.41223 -1.6333,-1.83063 -0.0707,-0.41839 -0.68148,-0.66731 -1.35734,-0.55315 -0.67587,0.11416 -1.25482,0.0538 -1.28656,-0.13412 -0.16348,-0.96788 1.93424,-8.25688 2.47797,-8.61021 0.34791,-0.22608 1.19212,-2.30663 1.87603,-4.62345 0.68389,-2.31681 1.56139,-4.26608 1.94999,-4.33172 0.38861,-0.0656 0.81285,-0.80084 0.94275,-1.63379 0.12992,-0.83294 0.76236,-2.50148 1.40544,-3.70785 0.96507,-1.81038 1.48314,-2.08795 2.96687,-1.58956 1.94674,0.65393 2.23848,0.37412 6.5986,-6.32889 2.15836,-3.31815 2.16714,-3.41776 0.39531,-4.48171 -1.75245,-1.05229 -1.61164,-1.3603 4.27611,-9.35363 3.34853,-4.54603 6.04387,-8.52815 5.98965,-8.84915 -0.0542,-0.321 0.83188,-2.002276 1.96911,-3.736162 3.61554,-5.512437 3.85377,-5.979264 4.36483,-8.553395 0.27567,-1.388475 0.23075,-2.982193 -0.0998,-3.541579 -0.76557,-1.295489 -6.40644,-0.390826 -9.24987,1.483485 -2.40899,1.587926 -5.75975,6.21341 -6.42573,8.870256 -0.87613,3.495219 -2.30788,6.279485 -6.47539,12.592455 l -2.89218,4.3811 -2.29012,-1.82055 c -1.25957,-1.00131 -3.20482,-2.89835 -4.32278,-4.21567 -1.11796,-1.31732 -2.32191,-2.34626 -2.67542,-2.28655 -0.35353,0.0597 -0.98495,-0.49718 -1.403178,-1.23754 -1.33313,-2.359966 -3.24766,-4.202916 -7.4466,-7.168203 -3.777795,-2.66787 -4.42446,-2.833725 -8.418495,-2.159095 -3.597253,0.607609 -4.568894,1.127811 -5.765554,3.086766 -0.791559,1.295803 -1.409021,2.534726 -1.372125,2.753156 0.08284,0.49045 3.392752,3.300426 7.869234,6.680666 1.859127,1.40386 4.498569,3.56133 5.86542,4.7944 1.36685,1.23306 3.23661,2.76219 4.15502,3.39806 0.91841,0.63587 1.73447,1.53878 1.81346,2.00647 0.079,0.46769 1.21522,1.67482 2.52493,2.6825 3.111928,2.3943 4.572398,5.6317 2.968218,6.57968 -0.65293,0.38585 -1.67518,2.20867 -2.271648,4.0507 -0.59647,1.84203 -1.86771,4.54438 -2.82498,6.00523 -0.95726,1.46084 -1.65618,3.15522 -1.55313,3.7653 0.10305,0.61007 -0.1738,1.17021 -0.61521,1.24477 -0.44142,0.0746 -1.3058,1.73724 -1.92083,3.69485 -0.61505,1.95761 -1.43642,3.61303 -1.8253,3.67871 -0.38886,0.0657 -0.80265,0.79913 -0.91952,1.62987 -0.26427,1.87838 -2.104781,6.57472 -3.089702,7.8838 -0.404561,0.53773 -1.160718,2.75576 -1.68033,4.92896 -0.51961,2.1732 -1.329805,4.51737 -1.800444,5.20926 -0.891638,1.31081 -0.287598,7.08537 0.823825,7.87558 1.141391,0.81153 9.150801,-0.94228 9.818721,-2.14999 z m 50.751628,-25.02904 c -0.0594,-0.3518 0.97309,-1.27055 2.29448,-2.04168 2.15897,-1.25992 2.30788,-1.64994 1.4689,-3.84733 -0.5135,-1.34491 -2.20289,-3.19269 -3.75421,-4.10618 -1.55133,-0.91349 -2.87443,-1.9796 -2.94023,-2.36915 -0.14175,-0.83919 -8.67434,-6.92516 -9.51102,-6.78383 -0.31729,0.0536 -1.45389,1.49165 -2.52577,3.19568 -1.07188,1.70403 -2.7175,3.84831 -3.65694,4.76504 -2.06132,2.01153 -1.73513,2.42176 6.80566,8.55872 4.90919,3.52748 6.20712,4.07091 8.84056,3.70142 1.69764,-0.23817 3.03799,-0.7209 2.97857,-1.07269 z" style="fill:#fff;fill-rule:evenodd"/></svg>