<svg xmlns="http://www.w3.org/2000/svg" viewBox="0 0 256 256"><defs><clipPath><path d="M 0,64 H64 V128 H0 z"/></clipPath></defs><g style="color:#000"><path d="m -1360.14 1641.33 c 46.11 -98.28 -119.59 -146.07 -181.85 -106.06 -62.25 40.01 -83.52 108.58 -13.01 143.08 70.51 34.501 148.75 61.26 194.86 -37.03 z" transform="matrix(-1.03665 0 0 -1.35742 -1401.69537 2320.79)" style="fill:#ff8c00"/></g><g style="fill:#fff"><path d="m 125.29921,177.85873 c -1.40741,-1.40741 -2,-3.33334 -2,-6.5 l 0,-4.5 -5.37756,0 c -3.25495,0 -5.8133,-0.52504 -6.4815,-1.33017 -0.71976,-0.86727 -1.19738,-9.65449 -1.37244,-25.25 l -0.2685,-23.91983 -5.25,-0.30226 -5.249997,-0.30226 0,3.09771 c 0,1.9556 -0.90498,4.0027 -2.454548,5.55226 -2.346133,2.34614 -3.010663,2.45455 -15.045455,2.45455 -12.034792,0 -12.699322,-0.10841 -15.045455,-2.45455 -2.329864,-2.32986 -2.454545,-3.05644 -2.454545,-14.30383 l 0,-11.849281 3.297607,-3.19617 c 3.294188,-3.19285 3.308773,-3.19617 14.065742,-3.19617 10.363724,0 14.636651,0.90693 14.636651,3.10661 0,0.56994 0.675,1.71125 1.500003,2.53625 0.99598,0.99598 1.5,3.492061 1.5,7.428571 l 0,5.92857 6.940977,0 c 7.69898,0 8.20306,0.36309 9.02396,6.5 0.48496,3.62551 0.83165,4.02876 3.70305,4.30724 2.62881,0.25495 3.40053,-0.17055 4.5342,-2.5 0.91353,-1.87709 2.10039,-2.78093 3.58201,-2.72784 1.64686,0.059 2.2158,-0.49123 2.2158,-2.14301 0,-2.7948 1.68034,-3.43639 9,-3.43639 7.14068,0 9,0.64699 9,3.13174 0,1.12548 1.03282,2.31044 2.5,2.86826 2.39212,0.90948 2.5,1.31205 2.5,9.32922 0,7.5078 -0.2549,8.65378 -2.45225,11.02475 -2.31679,2.49986 -2.97163,2.64603 -11.85398,2.64603 -8.59368,0 -9.62915,-0.21077 -12.04775,-2.45225 -2.02167,-1.87363 -2.64602,-3.40735 -2.64602,-6.5 l 0,-4.04775 -4.02362,0 -4.02361,0 0.27361,17.25 0.27362,17.25 3.5,0 c 3.14887,0 3.53311,-0.30097 3.83007,-3 0.18155,-1.65 1.27249,-4.0125 2.42432,-5.25 1.90625,-2.04804 3.00544,-2.25 12.24561,-2.25 9.31814,0 10.32984,0.18997 12.32569,2.31445 1.93862,2.06357 2.17431,3.41856 2.17431,12.5 0,13.84769 -0.34535,14.18555 -14.5,14.18555 -9.16667,0 -10.75397,-0.25397 -12.5,-2 z" transform="matrix(1.5186078 0 0 1.6223293 -42.672098 -83.209272)" style="fill:#fff"/></g></svg>