<svg xmlns="http://www.w3.org/2000/svg" viewBox="0 0 256 256"><defs><clipPath><path d="m -24 13 c 0 1.105 -0.672 2 -1.5 2 -0.828 0 -1.5 -0.895 -1.5 -2 0 -1.105 0.672 -2 1.5 -2 0.828 0 1.5 0.895 1.5 2 z" transform="matrix(15.33333 0 0 11.5 415 -125.5)"/></clipPath></defs><path d="m 116.8 1051.73 c 154.62 14.702 196.24 -233.26 37.473 -252.52 -145.99 -23.866 -221.18 200.9 -76.12 245.85 c 12.265 4.925 25.677 4.832 38.643 6.668 z" transform="translate(1.087 -797.45)" style="fill:#4682b4;color:#000"/><path d="m 78.907198,182.45267 c 3.114701,-3.44673 1.194803,-5.08359 -5.188742,-4.42378 -4.318027,0.44631 -5.816051,0.23539 -6.139408,-0.8644 -0.235246,-0.80012 -0.189835,-8.60174 0.100916,-17.33694 0.392727,-11.799 0.868404,-15.85496 1.85022,-15.7763 0.726872,0.0582 8.18866,0.17735 16.58175,0.2647 l 15.260156,0.15882 0.33455,2.91173 c 0.184,1.60146 0.69137,2.79262 1.1275,2.64704 0.43612,-0.14559 2.70781,-0.26471 5.04819,-0.26471 3.5661,0 4.41799,-0.42869 5.26017,-2.64703 0.55271,-1.45586 1.61142,-2.70514 2.35269,-2.77615 0.74126,-0.071 3.01295,-0.20964 5.04819,-0.30805 2.39731,-0.9342 6.06979,1.5157 3.94435,-0.0159 -1.62819,-1.23711 0.75185,-5.13184 -3.33609,-5.60335 -7.71409,-0.88975 -5.00544,-0.7933 -12.29103,-5.68069 -7.42212,-4.97897 -14.153191,-14.7001 -15.851573,-22.8931 -2.944072,-14.202231 3.220967,-28.103482 16.327313,-36.815674 8.42008,-5.597104 12.40986,-6.906198 21.04825,-6.906198 6.64452,0 8.78805,0.497155 14.52763,3.369447 8.5455,4.276469 14.51619,10.255877 18.78642,18.813843 2.90054,5.812975 3.36454,7.859024 3.36454,14.836362 0,6.66672 -0.50376,9.11008 -2.85758,13.86015 -3.89748,7.86521 -12.20591,15.94382 -20.22022,19.66088 -3.01984,1.40061 -7.6792,1.68317 -9.4378,2.56964 -1.2523,0.63126 -0.1152,1.90153 -0.0216,2.59475 0.23413,1.73349 4.39422,2.17702 8.59967,2.44506 4.04751,0.25797 5.25186,0.76583 5.67699,2.39391 0.94722,3.62742 9.80236,4.00773 9.80236,0.421 0,-2.68296 3.52065,-3.15377 19.55946,-2.61563 l 15.85903,0.5321 0.2949,15.34458 c 0.33906,17.6413 0.0145,18.37278 -7.68281,17.3162 -3.58164,-0.49163 -4.58611,-0.25828 -5.14289,1.19478 -0.9912,2.58679 -0.0594,3.55523 4.18872,4.35334 2.43316,0.45713 3.38139,1.06455 2.71057,1.73634 -10.16906,-0.37233 -16.37371,-0.10176 -20.23498,-0.0147 -2.51665,0 1.38649,-1.8504 3.742,-2.75561 0.91522,-0.35171 1.50079,-1.47473 1.30128,-2.49561 -0.30111,-1.54064 -1.52734,-1.85611 -7.2147,-1.85611 l -6.85195,0 -0.52863,-7.9411 -0.52863,-7.94109 -4.22908,0 -4.22907,0 -0.32015,6.88228 c -0.17608,3.78526 -0.79652,7.35875 -1.37875,7.94109 -0.58224,0.58235 -3.53069,1.05882 -6.55211,1.05882 -4.78863,0 -5.49348,0.2717 -5.49348,2.11762 0,1.47325 1.0912,2.47083 3.58603,3.27839 3.41573,1.10563 3.46594,1.19286 1.05727,1.83663 -9.69602,-0.50358 -11.14622,0.53862 -15.32329,0.32478 -0.87225,0 -2.98341,-0.4255 -2.98341,-0.94553 0,-0.52005 3.27574,-1.89493 4.14799,-2.23014 1.91535,-0.73606 2.12317,-3.82255 0.26431,-3.92563 -0.72687,-0.0403 -3.93832,-0.15942 -7.13656,-0.2647 l -5.81497,-0.19142 -0.52864,-7.9411 -0.52863,-7.94109 -5.05758,-0.58203 c -2.78168,-0.32012 -5.27947,-0.35982 -5.55066,-0.0882 -0.2712,0.27158 -0.49308,3.9323 -0.49308,8.13491 0,6.92693 -0.21234,7.69675 -2.27174,8.23608 -1.249456,0.32721 -3.584439,0.33202 -5.18885,0.0107 -2.244897,-0.44963 -3.191783,-0.0703 -4.10907,1.64617 -0.6636,1.24169 9.178527,6.28125 7.869293,6.28125 -0.805137,0 -9.913105,0.13578 -13.684813,-0.16043 5.122422,-1.81338 -6.976747,1.84187 -9.956117,-0.58848 -0.406771,-0.58587 3.412318,-1.20613 4.735945,-2.38256 z M 111.8934,154.31788 c -0.41334,-2.1494 -8.50771,-1.94683 -9.71667,0.0122 -1.29859,2.10422 0.34349,1.79167 5.29071,1.79167 3.92696,0 4.71136,-0.31969 4.42596,-1.80383 z m 46.71164,0.32889 c 0,-2.50805 -5.38162,-3.67341 -8.32929,-1.80367 -2.44143,1.54864 -0.24502,3.27861 4.16262,3.27861 2.85663,0 4.16667,-0.46374 4.16667,-1.47494 z" transform="matrix(1.1802412 0 0 1.2215047 -25.109295 -32.356922)" style="fill:#a2c9e1"/></svg>