
<svg xmlns="http://www.w3.org/2000/svg" xmlns:xlink="http://www.w3.org/1999/xlink" width="16px" height="16px" viewBox="0 0 16 16" version="1.1">
<g id="surface1">
<path style=" stroke:none;fill-rule:nonzero;fill:rgb(100%,40%,0%);fill-opacity:1;" d="M 3.761719 1.769531 C 11.945312 -3.933594 20.234375 6.601562 13.566406 13.320312 C 7.285156 19.652344 -2.476562 13.78125 0.578125 5.902344 C 1.210938 4.261719 2.257812 2.816406 3.761719 1.769531 Z M 3.761719 1.769531 "/>
<path style=" stroke:none;fill-rule:nonzero;fill:rgb(100%,100%,100%);fill-opacity:0.501961;" d="M 3.082031 8.503906 C 3.441406 7.925781 3.925781 7.46875 4.535156 7.128906 C 5.148438 6.792969 5.816406 6.625 6.542969 6.625 C 7.269531 6.625 7.9375 6.792969 8.550781 7.128906 C 9.160156 7.46875 9.648438 7.925781 10.003906 8.503906 C 10.363281 9.082031 10.539062 9.714844 10.539062 10.398438 C 10.539062 11.21875 10.285156 11.960938 9.777344 12.617188 C 9.269531 13.273438 8.613281 13.726562 7.808594 13.980469 C 7.714844 13.996094 7.644531 13.984375 7.601562 13.945312 C 7.554688 13.90625 7.53125 13.855469 7.53125 13.796875 C 7.53125 13.789062 7.535156 13.699219 7.535156 13.53125 C 7.539062 13.367188 7.539062 13.21875 7.539062 13.097656 L 7.660156 13.117188 C 7.734375 13.128906 7.832031 13.132812 7.949219 13.132812 C 8.0625 13.132812 8.183594 13.121094 8.308594 13.097656 C 8.433594 13.078125 8.550781 13.027344 8.65625 12.949219 C 8.765625 12.875 8.839844 12.773438 8.886719 12.648438 L 8.9375 12.535156 C 8.972656 12.460938 9.027344 12.375 9.101562 12.285156 C 9.175781 12.191406 9.253906 12.132812 9.328125 12.097656 L 9.363281 12.074219 C 9.390625 12.058594 9.410156 12.039062 9.433594 12.015625 C 9.453125 11.992188 9.46875 11.96875 9.480469 11.945312 C 9.488281 11.921875 9.480469 11.902344 9.453125 11.890625 C 9.425781 11.875 9.375 11.867188 9.300781 11.867188 L 9.199219 11.882812 C 9.128906 11.894531 9.042969 11.933594 8.941406 12 C 8.839844 12.066406 8.753906 12.148438 8.6875 12.253906 C 8.609375 12.390625 8.511719 12.492188 8.398438 12.5625 C 8.289062 12.632812 8.171875 12.667969 8.058594 12.667969 C 7.945312 12.667969 7.84375 12.660156 7.761719 12.644531 C 7.679688 12.625 7.601562 12.601562 7.527344 12.570312 C 7.496094 12.347656 7.410156 12.179688 7.273438 12.0625 C 7.46875 12.042969 7.648438 12.011719 7.804688 11.972656 C 7.964844 11.933594 8.125 11.871094 8.296875 11.78125 C 8.464844 11.695312 8.601562 11.582031 8.714844 11.453125 C 8.824219 11.320312 8.917969 11.148438 8.988281 10.9375 C 9.058594 10.722656 9.09375 10.476562 9.09375 10.199219 C 9.09375 9.804688 8.957031 9.464844 8.683594 9.1875 C 8.8125 8.890625 8.800781 8.554688 8.644531 8.183594 C 8.546875 8.15625 8.394531 8.175781 8.199219 8.25 C 8 8.324219 7.855469 8.386719 7.765625 8.441406 C 7.671875 8.492188 7.597656 8.535156 7.542969 8.574219 C 7.21875 8.488281 6.886719 8.445312 6.542969 8.445312 C 6.199219 8.445312 5.867188 8.488281 5.542969 8.574219 L 5.347656 8.457031 C 5.210938 8.375 5.050781 8.304688 4.867188 8.238281 C 4.683594 8.171875 4.542969 8.15625 4.449219 8.183594 C 4.292969 8.554688 4.277344 8.890625 4.40625 9.1875 C 4.132812 9.464844 3.996094 9.804688 3.996094 10.199219 C 3.996094 10.476562 4.03125 10.722656 4.101562 10.9375 C 4.171875 11.152344 4.265625 11.324219 4.378906 11.457031 C 4.492188 11.585938 4.628906 11.695312 4.796875 11.78125 C 4.96875 11.871094 5.128906 11.933594 5.289062 11.972656 C 5.445312 12.011719 5.625 12.042969 5.820312 12.0625 C 5.640625 12.210938 5.550781 12.441406 5.550781 12.761719 L 5.550781 13.796875 C 5.550781 13.855469 5.527344 13.90625 5.484375 13.945312 C 5.441406 13.984375 5.375 13.996094 5.28125 13.980469 C 4.476562 13.726562 3.816406 13.273438 3.308594 12.617188 C 2.800781 11.957031 2.546875 11.21875 2.546875 10.394531 C 2.546875 9.710938 2.726562 9.082031 3.085938 8.503906 Z M 3.082031 8.503906 "/>
<path style=" stroke:none;fill-rule:nonzero;fill:rgb(100%,100%,100%);fill-opacity:0.501961;" d="M 3.082031 8.503906 C 3.441406 7.925781 3.925781 7.46875 4.535156 7.128906 C 5.148438 6.792969 5.816406 6.625 6.542969 6.625 C 7.269531 6.625 7.9375 6.792969 8.550781 7.128906 C 9.160156 7.46875 9.648438 7.925781 10.003906 8.503906 C 10.363281 9.082031 10.539062 9.714844 10.539062 10.398438 C 10.539062 11.21875 10.285156 11.960938 9.777344 12.617188 C 9.269531 13.273438 8.613281 13.726562 7.808594 13.980469 C 7.714844 13.996094 7.644531 13.984375 7.601562 13.945312 C 7.554688 13.90625 7.53125 13.855469 7.53125 13.796875 C 7.53125 13.789062 7.535156 13.699219 7.535156 13.53125 C 7.539062 13.367188 7.539062 13.21875 7.539062 13.097656 L 7.660156 13.117188 C 7.734375 13.128906 7.832031 13.132812 7.949219 13.132812 C 8.0625 13.132812 8.183594 13.121094 8.308594 13.097656 C 8.433594 13.078125 8.550781 13.027344 8.65625 12.949219 C 8.765625 12.875 8.839844 12.773438 8.886719 12.648438 L 8.9375 12.535156 C 8.972656 12.460938 9.027344 12.375 9.101562 12.285156 C 9.175781 12.191406 9.253906 12.132812 9.328125 12.097656 L 9.363281 12.074219 C 9.390625 12.058594 9.410156 12.039062 9.433594 12.015625 C 9.453125 11.992188 9.46875 11.96875 9.480469 11.945312 C 9.488281 11.921875 9.480469 11.902344 9.453125 11.890625 C 9.425781 11.875 9.375 11.867188 9.300781 11.867188 L 9.199219 11.882812 C 9.128906 11.894531 9.042969 11.933594 8.941406 12 C 8.839844 12.066406 8.753906 12.148438 8.6875 12.253906 C 8.609375 12.390625 8.511719 12.492188 8.398438 12.5625 C 8.289062 12.632812 8.171875 12.667969 8.058594 12.667969 C 7.945312 12.667969 7.84375 12.660156 7.761719 12.644531 C 7.679688 12.625 7.601562 12.601562 7.527344 12.570312 C 7.496094 12.347656 7.410156 12.179688 7.273438 12.0625 C 7.46875 12.042969 7.648438 12.011719 7.804688 11.972656 C 7.964844 11.933594 8.125 11.871094 8.296875 11.78125 C 8.464844 11.695312 8.601562 11.582031 8.714844 11.453125 C 8.824219 11.320312 8.917969 11.148438 8.988281 10.9375 C 9.058594 10.722656 9.09375 10.476562 9.09375 10.199219 C 9.09375 9.804688 8.957031 9.464844 8.683594 9.1875 C 8.8125 8.890625 8.800781 8.554688 8.644531 8.183594 C 8.546875 8.15625 8.394531 8.175781 8.199219 8.25 C 8 8.324219 7.855469 8.386719 7.765625 8.441406 C 7.671875 8.492188 7.597656 8.535156 7.542969 8.574219 C 7.21875 8.488281 6.886719 8.445312 6.542969 8.445312 C 6.199219 8.445312 5.867188 8.488281 5.542969 8.574219 L 5.347656 8.457031 C 5.210938 8.375 5.050781 8.304688 4.867188 8.238281 C 4.683594 8.171875 4.542969 8.15625 4.449219 8.183594 C 4.292969 8.554688 4.277344 8.890625 4.40625 9.1875 C 4.132812 9.464844 3.996094 9.804688 3.996094 10.199219 C 3.996094 10.476562 4.03125 10.722656 4.101562 10.9375 C 4.171875 11.152344 4.265625 11.324219 4.378906 11.457031 C 4.492188 11.585938 4.628906 11.695312 4.796875 11.78125 C 4.96875 11.871094 5.128906 11.933594 5.289062 11.972656 C 5.445312 12.011719 5.625 12.042969 5.820312 12.0625 C 5.640625 12.210938 5.550781 12.441406 5.550781 12.761719 L 5.550781 13.796875 C 5.550781 13.855469 5.527344 13.90625 5.484375 13.945312 C 5.441406 13.984375 5.375 13.996094 5.28125 13.980469 C 4.476562 13.726562 3.816406 13.273438 3.308594 12.617188 C 2.800781 11.957031 2.546875 11.21875 2.546875 10.394531 C 2.546875 9.710938 2.726562 9.082031 3.085938 8.503906 Z M 3.082031 8.503906 "/>
<path style=" stroke:none;fill-rule:nonzero;fill:rgb(100%,100%,100%);fill-opacity:0.501961;" d="M 3.082031 8.503906 C 3.441406 7.925781 3.925781 7.46875 4.535156 7.128906 C 5.148438 6.792969 5.816406 6.625 6.542969 6.625 C 7.269531 6.625 7.9375 6.792969 8.550781 7.128906 C 9.160156 7.46875 9.648438 7.925781 10.003906 8.503906 C 10.363281 9.082031 10.539062 9.714844 10.539062 10.398438 C 10.539062 11.21875 10.285156 11.960938 9.777344 12.617188 C 9.269531 13.273438 8.613281 13.726562 7.808594 13.980469 C 7.714844 13.996094 7.644531 13.984375 7.601562 13.945312 C 7.554688 13.90625 7.53125 13.855469 7.53125 13.796875 C 7.53125 13.789062 7.535156 13.699219 7.535156 13.53125 C 7.539062 13.367188 7.539062 13.21875 7.539062 13.097656 L 7.660156 13.117188 C 7.734375 13.128906 7.832031 13.132812 7.949219 13.132812 C 8.0625 13.132812 8.183594 13.121094 8.308594 13.097656 C 8.433594 13.078125 8.550781 13.027344 8.65625 12.949219 C 8.765625 12.875 8.839844 12.773438 8.886719 12.648438 L 8.9375 12.535156 C 8.972656 12.460938 9.027344 12.375 9.101562 12.285156 C 9.175781 12.191406 9.253906 12.132812 9.328125 12.097656 L 9.363281 12.074219 C 9.390625 12.058594 9.410156 12.039062 9.433594 12.015625 C 9.453125 11.992188 9.46875 11.96875 9.480469 11.945312 C 9.488281 11.921875 9.480469 11.902344 9.453125 11.890625 C 9.425781 11.875 9.375 11.867188 9.300781 11.867188 L 9.199219 11.882812 C 9.128906 11.894531 9.042969 11.933594 8.941406 12 C 8.839844 12.066406 8.753906 12.148438 8.6875 12.253906 C 8.609375 12.390625 8.511719 12.492188 8.398438 12.5625 C 8.289062 12.632812 8.171875 12.667969 8.058594 12.667969 C 7.945312 12.667969 7.84375 12.660156 7.761719 12.644531 C 7.679688 12.625 7.601562 12.601562 7.527344 12.570312 C 7.496094 12.347656 7.410156 12.179688 7.273438 12.0625 C 7.46875 12.042969 7.648438 12.011719 7.804688 11.972656 C 7.964844 11.933594 8.125 11.871094 8.296875 11.78125 C 8.464844 11.695312 8.601562 11.582031 8.714844 11.453125 C 8.824219 11.320312 8.917969 11.148438 8.988281 10.9375 C 9.058594 10.722656 9.09375 10.476562 9.09375 10.199219 C 9.09375 9.804688 8.957031 9.464844 8.683594 9.1875 C 8.8125 8.890625 8.800781 8.554688 8.644531 8.183594 C 8.546875 8.15625 8.394531 8.175781 8.199219 8.25 C 8 8.324219 7.855469 8.386719 7.765625 8.441406 C 7.671875 8.492188 7.597656 8.535156 7.542969 8.574219 C 7.21875 8.488281 6.886719 8.445312 6.542969 8.445312 C 6.199219 8.445312 5.867188 8.488281 5.542969 8.574219 L 5.347656 8.457031 C 5.210938 8.375 5.050781 8.304688 4.867188 8.238281 C 4.683594 8.171875 4.542969 8.15625 4.449219 8.183594 C 4.292969 8.554688 4.277344 8.890625 4.40625 9.1875 C 4.132812 9.464844 3.996094 9.804688 3.996094 10.199219 C 3.996094 10.476562 4.03125 10.722656 4.101562 10.9375 C 4.171875 11.152344 4.265625 11.324219 4.378906 11.457031 C 4.492188 11.585938 4.628906 11.695312 4.796875 11.78125 C 4.96875 11.871094 5.128906 11.933594 5.289062 11.972656 C 5.445312 12.011719 5.625 12.042969 5.820312 12.0625 C 5.640625 12.210938 5.550781 12.441406 5.550781 12.761719 L 5.550781 13.796875 C 5.550781 13.855469 5.527344 13.90625 5.484375 13.945312 C 5.441406 13.984375 5.375 13.996094 5.28125 13.980469 C 4.476562 13.726562 3.816406 13.273438 3.308594 12.617188 C 2.800781 11.957031 2.546875 11.21875 2.546875 10.394531 C 2.546875 9.710938 2.726562 9.082031 3.085938 8.503906 Z M 3.082031 8.503906 "/>
<path style=" stroke:none;fill-rule:nonzero;fill:rgb(100%,100%,100%);fill-opacity:0.501961;" d="M 3.082031 8.503906 C 3.441406 7.925781 3.925781 7.46875 4.535156 7.128906 C 5.148438 6.792969 5.816406 6.625 6.542969 6.625 C 7.269531 6.625 7.9375 6.792969 8.550781 7.128906 C 9.160156 7.46875 9.648438 7.925781 10.003906 8.503906 C 10.363281 9.082031 10.539062 9.714844 10.539062 10.398438 C 10.539062 11.21875 10.285156 11.960938 9.777344 12.617188 C 9.269531 13.273438 8.613281 13.726562 7.808594 13.980469 C 7.714844 13.996094 7.644531 13.984375 7.601562 13.945312 C 7.554688 13.90625 7.53125 13.855469 7.53125 13.796875 C 7.53125 13.789062 7.535156 13.699219 7.535156 13.53125 C 7.539062 13.367188 7.539062 13.21875 7.539062 13.097656 L 7.660156 13.117188 C 7.734375 13.128906 7.832031 13.132812 7.949219 13.132812 C 8.0625 13.132812 8.183594 13.121094 8.308594 13.097656 C 8.433594 13.078125 8.550781 13.027344 8.65625 12.949219 C 8.765625 12.875 8.839844 12.773438 8.886719 12.648438 L 8.9375 12.535156 C 8.972656 12.460938 9.027344 12.375 9.101562 12.285156 C 9.175781 12.191406 9.253906 12.132812 9.328125 12.097656 L 9.363281 12.074219 C 9.390625 12.058594 9.410156 12.039062 9.433594 12.015625 C 9.453125 11.992188 9.46875 11.96875 9.480469 11.945312 C 9.488281 11.921875 9.480469 11.902344 9.453125 11.890625 C 9.425781 11.875 9.375 11.867188 9.300781 11.867188 L 9.199219 11.882812 C 9.128906 11.894531 9.042969 11.933594 8.941406 12 C 8.839844 12.066406 8.753906 12.148438 8.6875 12.253906 C 8.609375 12.390625 8.511719 12.492188 8.398438 12.5625 C 8.289062 12.632812 8.171875 12.667969 8.058594 12.667969 C 7.945312 12.667969 7.84375 12.660156 7.761719 12.644531 C 7.679688 12.625 7.601562 12.601562 7.527344 12.570312 C 7.496094 12.347656 7.410156 12.179688 7.273438 12.0625 C 7.46875 12.042969 7.648438 12.011719 7.804688 11.972656 C 7.964844 11.933594 8.125 11.871094 8.296875 11.78125 C 8.464844 11.695312 8.601562 11.582031 8.714844 11.453125 C 8.824219 11.320312 8.917969 11.148438 8.988281 10.9375 C 9.058594 10.722656 9.09375 10.476562 9.09375 10.199219 C 9.09375 9.804688 8.957031 9.464844 8.683594 9.1875 C 8.8125 8.890625 8.800781 8.554688 8.644531 8.183594 C 8.546875 8.15625 8.394531 8.175781 8.199219 8.25 C 8 8.324219 7.855469 8.386719 7.765625 8.441406 C 7.671875 8.492188 7.597656 8.535156 7.542969 8.574219 C 7.21875 8.488281 6.886719 8.445312 6.542969 8.445312 C 6.199219 8.445312 5.867188 8.488281 5.542969 8.574219 L 5.347656 8.457031 C 5.210938 8.375 5.050781 8.304688 4.867188 8.238281 C 4.683594 8.171875 4.542969 8.15625 4.449219 8.183594 C 4.292969 8.554688 4.277344 8.890625 4.40625 9.1875 C 4.132812 9.464844 3.996094 9.804688 3.996094 10.199219 C 3.996094 10.476562 4.03125 10.722656 4.101562 10.9375 C 4.171875 11.152344 4.265625 11.324219 4.378906 11.457031 C 4.492188 11.585938 4.628906 11.695312 4.796875 11.78125 C 4.96875 11.871094 5.128906 11.933594 5.289062 11.972656 C 5.445312 12.011719 5.625 12.042969 5.820312 12.0625 C 5.640625 12.210938 5.550781 12.441406 5.550781 12.761719 L 5.550781 13.796875 C 5.550781 13.855469 5.527344 13.90625 5.484375 13.945312 C 5.441406 13.984375 5.375 13.996094 5.28125 13.980469 C 4.476562 13.726562 3.816406 13.273438 3.308594 12.617188 C 2.800781 11.957031 2.546875 11.21875 2.546875 10.394531 C 2.546875 9.710938 2.726562 9.082031 3.085938 8.503906 Z M 3.082031 8.503906 "/>
<path style=" stroke:none;fill-rule:nonzero;fill:rgb(100%,100%,100%);fill-opacity:0.501961;" d="M 3.082031 8.503906 C 3.441406 7.925781 3.925781 7.46875 4.535156 7.128906 C 5.148438 6.792969 5.816406 6.625 6.542969 6.625 C 7.269531 6.625 7.9375 6.792969 8.550781 7.128906 C 9.160156 7.46875 9.648438 7.925781 10.003906 8.503906 C 10.363281 9.082031 10.539062 9.714844 10.539062 10.398438 C 10.539062 11.21875 10.285156 11.960938 9.777344 12.617188 C 9.269531 13.273438 8.613281 13.726562 7.808594 13.980469 C 7.714844 13.996094 7.644531 13.984375 7.601562 13.945312 C 7.554688 13.90625 7.53125 13.855469 7.53125 13.796875 C 7.53125 13.789062 7.535156 13.699219 7.535156 13.53125 C 7.539062 13.367188 7.539062 13.21875 7.539062 13.097656 L 7.660156 13.117188 C 7.734375 13.128906 7.832031 13.132812 7.949219 13.132812 C 8.0625 13.132812 8.183594 13.121094 8.308594 13.097656 C 8.433594 13.078125 8.550781 13.027344 8.65625 12.949219 C 8.765625 12.875 8.839844 12.773438 8.886719 12.648438 L 8.9375 12.535156 C 8.972656 12.460938 9.027344 12.375 9.101562 12.285156 C 9.175781 12.191406 9.253906 12.132812 9.328125 12.097656 L 9.363281 12.074219 C 9.390625 12.058594 9.410156 12.039062 9.433594 12.015625 C 9.453125 11.992188 9.46875 11.96875 9.480469 11.945312 C 9.488281 11.921875 9.480469 11.902344 9.453125 11.890625 C 9.425781 11.875 9.375 11.867188 9.300781 11.867188 L 9.199219 11.882812 C 9.128906 11.894531 9.042969 11.933594 8.941406 12 C 8.839844 12.066406 8.753906 12.148438 8.6875 12.253906 C 8.609375 12.390625 8.511719 12.492188 8.398438 12.5625 C 8.289062 12.632812 8.171875 12.667969 8.058594 12.667969 C 7.945312 12.667969 7.84375 12.660156 7.761719 12.644531 C 7.679688 12.625 7.601562 12.601562 7.527344 12.570312 C 7.496094 12.347656 7.410156 12.179688 7.273438 12.0625 C 7.46875 12.042969 7.648438 12.011719 7.804688 11.972656 C 7.964844 11.933594 8.125 11.871094 8.296875 11.78125 C 8.464844 11.695312 8.601562 11.582031 8.714844 11.453125 C 8.824219 11.320312 8.917969 11.148438 8.988281 10.9375 C 9.058594 10.722656 9.09375 10.476562 9.09375 10.199219 C 9.09375 9.804688 8.957031 9.464844 8.683594 9.1875 C 8.8125 8.890625 8.800781 8.554688 8.644531 8.183594 C 8.546875 8.15625 8.394531 8.175781 8.199219 8.25 C 8 8.324219 7.855469 8.386719 7.765625 8.441406 C 7.671875 8.492188 7.597656 8.535156 7.542969 8.574219 C 7.21875 8.488281 6.886719 8.445312 6.542969 8.445312 C 6.199219 8.445312 5.867188 8.488281 5.542969 8.574219 L 5.347656 8.457031 C 5.210938 8.375 5.050781 8.304688 4.867188 8.238281 C 4.683594 8.171875 4.542969 8.15625 4.449219 8.183594 C 4.292969 8.554688 4.277344 8.890625 4.40625 9.1875 C 4.132812 9.464844 3.996094 9.804688 3.996094 10.199219 C 3.996094 10.476562 4.03125 10.722656 4.101562 10.9375 C 4.171875 11.152344 4.265625 11.324219 4.378906 11.457031 C 4.492188 11.585938 4.628906 11.695312 4.796875 11.78125 C 4.96875 11.871094 5.128906 11.933594 5.289062 11.972656 C 5.445312 12.011719 5.625 12.042969 5.820312 12.0625 C 5.640625 12.210938 5.550781 12.441406 5.550781 12.761719 L 5.550781 13.796875 C 5.550781 13.855469 5.527344 13.90625 5.484375 13.945312 C 5.441406 13.984375 5.375 13.996094 5.28125 13.980469 C 4.476562 13.726562 3.816406 13.273438 3.308594 12.617188 C 2.800781 11.957031 2.546875 11.21875 2.546875 10.394531 C 2.546875 9.710938 2.726562 9.082031 3.085938 8.503906 Z M 3.082031 8.503906 "/>
</g>
</svg>
