
<svg xmlns="http://www.w3.org/2000/svg" xmlns:xlink="http://www.w3.org/1999/xlink" width="16px" height="16px" viewBox="0 0 16 16" version="1.1">
<g id="surface1">
<path style=" stroke:none;fill-rule:nonzero;fill:rgb(46.666667%,53.333333%,60%);fill-opacity:1;" d="M 3.738281 1.777344 C 11.875 -3.921875 20.117188 6.605469 13.488281 13.324219 C 7.242188 19.652344 -2.460938 13.785156 0.574219 5.910156 C 1.207031 4.265625 2.246094 2.824219 3.738281 1.777344 Z M 3.738281 1.777344 "/>
<path style=" stroke:none;fill-rule:evenodd;fill:rgb(100%,100%,100%);fill-opacity:1;" d="M 5.128906 10.152344 C 5.128906 10.152344 4.785156 10.332031 5.378906 10.390625 C 6.097656 10.464844 6.464844 10.453125 7.253906 10.320312 C 7.253906 10.320312 7.464844 10.4375 7.753906 10.535156 C 5.980469 11.210938 3.734375 10.496094 5.128906 10.152344 "/>
<path style=" stroke:none;fill-rule:evenodd;fill:rgb(100%,100%,100%);fill-opacity:1;" d="M 4.914062 9.273438 C 4.914062 9.273438 4.523438 9.527344 5.117188 9.582031 C 5.886719 9.652344 6.492188 9.660156 7.542969 9.480469 C 7.542969 9.480469 7.6875 9.609375 7.917969 9.683594 C 5.769531 10.238281 3.378906 9.726562 4.914062 9.273438 "/>
<path style=" stroke:none;fill-rule:evenodd;fill:rgb(100%,100%,100%);fill-opacity:1;" d="M 6.742188 7.785156 C 7.179688 8.230469 6.628906 8.632812 6.628906 8.632812 C 6.628906 8.632812 7.738281 8.125 7.230469 7.488281 C 6.753906 6.898438 6.386719 6.605469 8.367188 5.589844 C 8.367188 5.589844 5.257812 6.273438 6.742188 7.785156 "/>
<path style=" stroke:none;fill-rule:evenodd;fill:rgb(100%,100%,100%);fill-opacity:1;" d="M 9.09375 10.800781 C 9.09375 10.800781 9.347656 10.988281 8.808594 11.132812 C 7.785156 11.40625 4.542969 11.492188 3.640625 11.144531 C 3.316406 11.019531 3.925781 10.847656 4.117188 10.8125 C 4.316406 10.773438 4.429688 10.78125 4.429688 10.78125 C 4.070312 10.554688 2.101562 11.21875 3.429688 11.410156 C 7.050781 11.929688 10.03125 11.175781 9.09375 10.800781 "/>
<path style=" stroke:none;fill-rule:evenodd;fill:rgb(100%,100%,100%);fill-opacity:1;" d="M 5.296875 8.363281 C 5.296875 8.363281 3.648438 8.710938 4.714844 8.835938 C 5.164062 8.890625 6.058594 8.878906 6.894531 8.816406 C 7.578125 8.765625 8.261719 8.65625 8.261719 8.65625 C 8.261719 8.65625 8.023438 8.75 7.847656 8.851562 C 6.171875 9.242188 2.9375 9.0625 3.871094 8.664062 C 4.65625 8.328125 5.296875 8.363281 5.296875 8.363281 "/>
<path style=" stroke:none;fill-rule:evenodd;fill:rgb(100%,100%,100%);fill-opacity:1;" d="M 8.253906 9.828125 C 9.957031 9.042969 9.171875 8.292969 8.621094 8.394531 C 8.484375 8.417969 8.425781 8.441406 8.425781 8.441406 C 8.425781 8.441406 8.476562 8.371094 8.570312 8.339844 C 9.660156 8.003906 10.496094 9.335938 8.222656 9.867188 C 8.222656 9.867188 8.246094 9.84375 8.253906 9.828125 "/>
<path style=" stroke:none;fill-rule:evenodd;fill:rgb(100%,100%,100%);fill-opacity:1;" d="M 7.230469 3.953125 C 7.230469 3.953125 8.171875 4.785156 6.335938 6.066406 C 4.863281 7.09375 6 7.679688 6.335938 8.351562 C 5.472656 7.664062 4.84375 7.0625 5.265625 6.5 C 5.886719 5.675781 7.609375 5.277344 7.230469 3.953125 "/>
<path style=" stroke:none;fill-rule:evenodd;fill:rgb(100%,100%,100%);fill-opacity:1;" d="M 5.464844 11.945312 C 7.097656 12.039062 9.609375 11.894531 9.667969 11.210938 C 9.667969 11.210938 9.554688 11.46875 8.316406 11.675781 C 6.921875 11.90625 5.203125 11.878906 4.179688 11.730469 C 4.179688 11.730469 4.390625 11.882812 5.464844 11.945312 "/>
<path style="fill-rule:evenodd;fill:rgb(100%,100%,100%);fill-opacity:1;stroke-width:1;stroke-linecap:butt;stroke-linejoin:miter;stroke:rgb(100%,100%,100%);stroke-opacity:1;stroke-miterlimit:4;" d="M 546.087058 274.480151 C 546.087058 274.480151 538.423917 278.961806 551.511528 280.423216 C 567.354425 282.274334 575.448079 281.982053 592.926928 278.669525 C 592.926928 278.669525 597.490371 281.592343 603.861971 284.028026 C 564.771344 300.882948 515.26229 283.053753 546.000955 274.480151 " transform="matrix(0.0453673,0,0,0.040094,-19.567482,-0.778445)"/>
<path style="fill-rule:evenodd;fill:rgb(100%,100%,100%);fill-opacity:1;stroke-width:1;stroke-linecap:butt;stroke-linejoin:miter;stroke:rgb(100%,100%,100%);stroke-opacity:1;stroke-miterlimit:4;" d="M 541.265307 252.656437 C 541.265307 252.656437 532.655036 258.989211 545.82875 260.353193 C 562.704879 262.009457 576.050798 262.204312 599.212425 257.722656 C 599.212425 257.722656 602.398225 261.035184 607.478285 262.788875 C 560.121798 276.623551 507.426944 263.860576 541.265307 252.656437 " transform="matrix(0.0453673,0,0,0.040094,-19.567482,-0.778445)"/>
<path style="fill-rule:evenodd;fill:rgb(100%,100%,100%);fill-opacity:1;stroke-width:1;stroke-linecap:butt;stroke-linejoin:miter;stroke:rgb(100%,100%,100%);stroke-opacity:1;stroke-miterlimit:4;" d="M 581.561371 215.43921 C 591.204874 226.545921 579.064393 236.580933 579.064393 236.580933 C 579.064393 236.580933 603.51756 223.915384 592.324209 208.132162 C 581.819679 193.323213 573.726025 186.016166 617.380095 160.685069 C 617.380095 160.685069 548.928447 177.832273 581.561371 215.43921 " transform="matrix(0.0453673,0,0,0.040094,-19.567482,-0.778445)"/>
<path style="fill-rule:evenodd;fill:rgb(100%,100%,100%);fill-opacity:1;stroke-width:1;stroke-linecap:butt;stroke-linejoin:miter;stroke:rgb(100%,100%,100%);stroke-opacity:1;stroke-miterlimit:4;" d="M 633.395198 290.653082 C 633.395198 290.653082 639.077976 295.329592 627.109701 298.934402 C 604.550793 305.85174 533.08555 307.897713 513.281928 299.226684 C 506.135404 296.10901 519.481323 291.822209 523.700355 290.945364 C 528.091593 289.971091 530.588571 290.165945 530.588571 290.165945 C 522.667123 284.515162 479.271361 301.077803 508.54628 305.85174 C 588.363485 318.80957 654.059847 300.006102 633.395198 290.653082 " transform="matrix(0.0453673,0,0,0.040094,-19.567482,-0.778445)"/>
<path style="fill-rule:evenodd;fill:rgb(100%,100%,100%);fill-opacity:1;stroke-width:1;stroke-linecap:butt;stroke-linejoin:miter;stroke:rgb(100%,100%,100%);stroke-opacity:1;stroke-miterlimit:4;" d="M 549.703371 229.955877 C 549.703371 229.955877 513.368031 238.529479 536.874069 241.647152 C 546.775879 243.011134 566.493398 242.718852 584.919377 241.160016 C 599.98735 239.893461 615.055322 237.165496 615.055322 237.165496 C 615.055322 237.165496 609.803058 239.503752 605.928436 242.134289 C 568.990377 251.779591 497.697339 247.297935 518.275885 237.360351 C 535.582528 228.981604 549.703371 229.955877 549.703371 229.955877 " transform="matrix(0.0453673,0,0,0.040094,-19.567482,-0.778445)"/>
<path style="fill-rule:evenodd;fill:rgb(100%,100%,100%);fill-opacity:1;stroke-width:1;stroke-linecap:butt;stroke-linejoin:miter;stroke:rgb(100%,100%,100%);stroke-opacity:1;stroke-miterlimit:4;" d="M 614.96922 266.393685 C 652.423895 246.908226 635.117252 228.104758 622.976771 230.637868 C 620.049279 231.319859 618.671636 231.806995 618.671636 231.806995 C 618.671636 231.806995 619.790971 230.053304 621.943539 229.371313 C 645.88009 220.895138 664.306068 254.215273 614.194295 267.367958 C 614.194295 267.367958 614.710912 266.880822 614.883117 266.393685 " transform="matrix(0.0453673,0,0,0.040094,-19.567482,-0.778445)"/>
<path style="fill-rule:evenodd;fill:rgb(100%,100%,100%);fill-opacity:1;stroke-width:1;stroke-linecap:butt;stroke-linejoin:miter;stroke:rgb(100%,100%,100%);stroke-opacity:1;stroke-miterlimit:4;" d="M 592.324209 119.863032 C 592.324209 119.863032 613.07496 140.615046 572.60669 172.571199 C 540.145971 198.194578 565.201858 212.808673 572.60669 229.566167 C 553.664096 212.418963 539.715458 197.41516 549.01455 183.385629 C 562.790982 162.82847 600.676171 152.890886 592.324209 119.863032 " transform="matrix(0.0453673,0,0,0.040094,-19.567482,-0.778445)"/>
<path style="fill-rule:evenodd;fill:rgb(100%,100%,100%);fill-opacity:1;stroke-width:1;stroke-linecap:butt;stroke-linejoin:miter;stroke:rgb(100%,100%,100%);stroke-opacity:1;stroke-miterlimit:4;" d="M 553.405788 319.19928 C 589.396717 321.537535 644.760755 317.932725 646.052295 300.882948 C 646.052295 300.882948 643.555317 307.31315 616.26076 312.476796 C 585.522096 318.225007 547.636907 317.543016 525.164101 313.840778 C 525.164101 313.840778 529.727544 317.73787 553.405788 319.19928 " transform="matrix(0.0453673,0,0,0.040094,-19.567482,-0.778445)"/>
</g>
</svg>
