
<svg xmlns="http://www.w3.org/2000/svg" xmlns:xlink="http://www.w3.org/1999/xlink" width="16px" height="16px" viewBox="0 0 16 16" version="1.1">
<g id="surface1">
<path style=" stroke:none;fill-rule:nonzero;fill:rgb(57.647059%,43.921569%,85.882353%);fill-opacity:1;" d="M 3.761719 1.648438 C 11.945312 -4.105469 20.234375 6.519531 13.566406 13.296875 C 7.285156 19.683594 -2.476562 13.765625 0.578125 5.816406 C 1.210938 4.160156 2.257812 2.703125 3.761719 1.648438 Z M 3.761719 1.648438 "/>
<path style=" stroke:none;fill-rule:nonzero;fill:rgb(100%,98.039216%,98.039216%);fill-opacity:1;" d="M 5.949219 6.042969 C 4.886719 6.042969 3.847656 6.933594 3.847656 7.800781 L 3.847656 8.679688 L 9.105469 8.679688 L 9.105469 7.800781 C 9.105469 6.921875 8.070312 6.042969 7 6.042969 Z M 5.949219 6.921875 L 7 6.921875 C 7.609375 6.921875 8.050781 7.4375 8.050781 7.800781 L 8.050781 8.679688 L 4.898438 8.679688 L 4.898438 7.800781 C 4.898438 7.507812 5.320312 6.921875 5.949219 6.921875 Z M 5.949219 6.921875 "/>
<path style=" stroke:none;fill-rule:nonzero;fill:rgb(100%,98.039216%,98.039216%);fill-opacity:1;" d="M 3.320312 9.121094 L 3.320312 10.109375 L 4.503906 10.109375 L 4.503906 10.328125 L 3.320312 10.328125 L 3.320312 10.988281 L 4.503906 10.988281 L 4.503906 11.207031 L 3.320312 11.207031 L 3.320312 11.867188 L 4.503906 11.867188 L 4.503906 12.085938 L 3.320312 12.085938 L 3.320312 12.417969 C 3.320312 12.78125 3.671875 13.074219 4.109375 13.074219 L 8.839844 13.074219 C 9.277344 13.074219 9.628906 12.78125 9.628906 12.417969 L 9.628906 12.085938 L 8.445312 12.085938 L 8.445312 11.867188 L 9.628906 11.867188 L 9.628906 11.207031 L 8.445312 11.207031 L 8.445312 10.988281 L 9.628906 10.988281 L 9.628906 10.328125 L 8.445312 10.328125 L 8.445312 10.109375 L 9.628906 10.109375 L 9.628906 9.121094 Z M 3.320312 9.121094 "/>
</g>
</svg>
