<svg xmlns="http://www.w3.org/2000/svg" viewBox="0 0 22 22"><path d="m 13.398438 21.941406 c 1.296874 -0.113281 2.710937 -0.441406 3.753906 -0.867187 c 3.648437 -1.492188 5.347656 -4.515625 4.683594 -8.335938 c -0.355469 -2.054687 -1.375 -4.378906 -2.996094 -6.839843 c -1.9375 -2.933594 -4.929688 -5.15625 -7.699219 -5.71875 c -0.585937 -0.1210942 -1.691406 -0.1601568 -2.28125 -0.0898442 c -1.972656 0.2500002 -3.617187 1.3164062 -5.121094 3.3320312 c -1.445312 1.925781 -2.515625 3.882813 -3.117187 5.710937 c -1.238282 3.746094 -0.488282 7.089844 2.136718 9.511719 c 1.84375 1.703125 4.339844 2.789063 7.40625 3.21875 c 0.457032 0.066407 2.761719 0.121094 3.234376 0.078125" style="fill:#ff8c00"/><g style="fill:#fff"><g style="fill-rule:evenodd"><path d="m 7.230469 7.960938 l -0.003907 -1.644532 l 7.210938 -0.039062 v 1.644531"/><path d="m 6.554688 11.671875 l -0.011719 -5.355469 l 0.757812 -0.007812 l 0.007813 5.359375"/><path d="m 14.425781 11.066406 l -0.011719 -4.789062 l 0.757813 -0.003906 l 0.011719 4.789062"/><path d="m 16.203125 10.710938 l -1.320313 3.703124 l -0.664062 -1.847656 l -0.667969 -1.847656 l 1.324219 -0.003906"/><path d="m 8.050781 9.152344 h 5.152344 v 9.277344 h -5.152344"/></g><path d="m 8.597656 10.117188 v 7.347656 h 4.066406 v -7.347656 m -1.960937 1.191406 c 0.257813 0 0.46875 0.164062 0.46875 0.363281 c 0 0.203125 -0.214844 0.367187 -0.480469 0.367187 c -0.253906 0 -0.464844 -0.167968 -0.464844 -0.367187 c 0 -0.199219 0.214844 -0.363281 0.476563 -0.363281 m 0.378906 1.574218 v 2.425782 c 0 0.253906 0.089844 0.296875 0.617188 0.296875 h 0.058593 v 0.234375 h -2.105468 v -0.234375 h 0.058594 c 0.519531 0 0.609374 -0.042969 0.609374 -0.296875 v -1.765625 c 0 -0.273438 -0.050781 -0.3125 -0.351562 -0.3125 h -0.414062 v -0.277344"/></g></svg>