<svg xmlns="http://www.w3.org/2000/svg" viewBox="0 0 22 22"><defs><clipPath id="0"><path d="m 12.375 5.5 h 6.417969 v 12.832031 h -6.417969"/></clipPath><clipPath id="1"><path d="m 8.941406 6.949219 c 4.742188 -3.492188 11.226563 -3.234375 14.484375 0.574219 c 3.261719 3.808593 2.070313 9.730468 -2.671875 13.226562 c -4.738281 3.492188 -11.222656 3.230469 -14.484375 -0.578125 c -3.261719 -3.808594 -2.066406 -9.730469 2.671875 -13.222656"/></clipPath></defs><g style="fill:#b0c3de"><path d="m 13.132812 21.769531 c 3.890626 -0.472656 7.042969 -3.207031 8.230469 -7.136719 c 0.355469 -1.175781 0.503907 -2.800781 0.367188 -4.042968 c -0.195313 -1.792969 -0.890625 -3.628906 -1.957031 -5.175782 c -0.671876 -0.980468 -1.871094 -2.25 -2.785157 -2.953124 c -1.558593 -1.199219 -3.183593 -1.902344 -5.070312 -2.183594 c -0.65625 -0.101563 -2 -0.101563 -2.714844 -0.003906 c -1.765625 0.242187 -3.507813 0.972656 -5.003906 2.09375 c -0.527344 0.394531 -1.605469 1.476562 -1.992188 2 c -1.089843 1.460937 -1.695312 2.945312 -1.941406 4.746093 c -0.0625 0.464844 -0.0625 1.746094 0 2.246094 c 0.167969 1.320313 0.53125 2.476563 1.195313 3.765625 c 0.789062 1.535156 1.914062 2.953125 3.117187 3.925781 c 1.691406 1.359375 3.855469 2.324219 5.972656 2.660157 c 0.535157 0.082031 2.082031 0.117187 2.582031 0.058593 m -0.613281 -7.828125 c -0.246093 -0.128906 1.117188 -0.773437 1.347657 -0.929687 c 0.128906 -0.089844 1.222656 -0.496094 -1.160157 0.417969 l -0.710937 0.394531 l 0.226562 -0.226563 l 0.28125 0.617188 l 0.121094 -0.574219 l 0.402344 0.15625 l -0.308594 -2.246094 c -0.015625 -0.121093 -0.53125 2.886719 -0.53125 -0.324219 c 0 -1.832031 0.746094 0.535157 0.757812 0.496094 c 0.078126 -0.199218 0.355469 0.15625 -0.175781 -0.8125 l 0.0625 0.113282 l 1.699219 -1.117188 l 0.125 -0.15625 l -2.871094 1.484375 c -2.058594 1.070313 1.730469 0.957031 1.699219 1.03125 c -0.027344 0.058594 -0.039063 0.800781 -0.097656 0.828125 c -0.070313 0.03125 -0.445313 -2.199219 -0.890625 -0.742188 l -0.449219 1.464844 v 0.6875 h 0.707031 c 0.789063 0 0.875 0.023438 0.957032 0.277344 c 0.0625 0.1875 0.015624 0.339844 -0.136719 0.472656 l -0.574219 -2.941406 l -1.980469 3.046875 c -1.117187 1.714844 1.601563 -1.363281 1.5 -1.417969"/><path d="m 0.367188 13.164062 c 0.46875 3.9375 3.164062 7.128907 7.046874 8.335938 c 1.160157 0.359375 2.765626 0.507812 3.992188 0.371094 c 1.769531 -0.199219 3.582031 -0.902344 5.109375 -1.980469 c 0.964844 -0.683594 2.21875 -1.898437 2.914063 -2.824219 c 1.183593 -1.578125 1.875 -3.226562 2.160156 -5.136718 c 0.097656 -0.664063 0.097656 -2.023438 0 -2.75 c -0.242188 -1.789063 -0.960938 -3.550782 -2.066406 -5.070313 c -0.390626 -0.53125 -1.457032 -1.621094 -1.972657 -2.019531 c -1.445312 -1.101563 -2.910156 -1.714844 -4.6875 -1.960938 c -0.457031 -0.066406 -1.722656 -0.066406 -2.21875 0 c -1.304687 0.167969 -2.441406 0.535156 -3.714843 1.207032 c -1.515626 0.796874 -2.917969 1.941406 -3.878907 3.160156 c -1.339843 1.710937 -2.296875 3.90625 -2.621093 6.050781 c -0.085938 0.539063 -0.121094 2.109375 -0.0625 2.613281 m 7.730468 -0.621094 c 0.125 -0.25 0.765625 1.128907 0.917969 1.363282 c 0.085937 0.132812 0.488281 1.238281 -0.414063 -1.175782 l -0.390624 -0.71875 l 0.226562 0.230469 l -0.613281 0.285157 l 0.570312 0.121093 l -0.15625 0.40625 l 2.21875 -0.308593 c 0.121094 -0.019532 -2.851562 -0.539063 0.320313 -0.539063 c 1.804687 0 -0.527344 0.753906 -0.492188 0.769531 c 0.199219 0.074219 -0.148437 0.359375 0.804688 -0.179687 l -0.113282 0.0625 l 1.105469 1.722656 l 0.15625 0.125 l -1.472656 -2.90625 c -1.054687 -2.085937 -0.941406 1.753906 -1.011719 1.71875 c -0.058594 -0.023437 -0.792968 -0.039063 -0.820312 -0.09375 c -0.035156 -0.074219 2.167968 -0.453125 0.734375 -0.90625 l -1.449219 -0.457031 h -0.675781 v 0.714844 c 0 0.800781 -0.023438 0.890624 -0.273438 0.972656 c -0.1875 0.0625 -0.339843 0.019531 -0.464843 -0.136719 l 2.902343 -0.585937 l -3.007812 -2.003907 c -1.695313 -1.132812 1.34375 1.621094 1.398437 1.519531"/></g><g style="fill:#fff"><path d="m 9.902344 11.519531 c -0.628906 -0.3125 -1.277344 -1.34375 -1.457032 -2.320312 c -0.042968 -0.230469 -0.140624 -0.371094 -0.34375 -0.488281 c -0.574218 -0.328126 -0.839843 -1.476563 -0.457031 -1.964844 c 0.105469 -0.136719 0.230469 -0.480469 0.277344 -0.765625 c 0.253906 -1.574219 1.359375 -2.691407 2.652344 -2.6875 c 1.300781 0.003906 2.375 1.066406 2.660156 2.636719 c 0.058594 0.324218 0.1875 0.671874 0.285156 0.78125 c 0.128907 0.136718 0.179688 0.328124 0.179688 0.664062 c 0 0.578125 -0.226563 1.0625 -0.617188 1.308594 c -0.242187 0.15625 -0.320312 0.296875 -0.445312 0.792968 c -0.203125 0.816407 -0.671875 1.5625 -1.21875 1.9375 c -0.527344 0.359376 -0.941407 0.390626 -1.515625 0.105469"/><path d="m 4.984375 15.570312 c -0.128906 -0.128906 -0.152344 -0.316406 -0.125 -1.113281 c 0.03125 -0.867187 0.054687 -0.980469 0.265625 -1.203125 c 0.417969 -0.449218 1.261719 -0.78125 2.609375 -1.023437 l 0.699219 -0.125 l 0.257812 0.308593 c 0.414063 0.5 1.019532 0.742188 1.839844 0.734376 c 0.425781 -0.003907 0.832031 -0.0625 1.03125 -0.15625 c 0.359375 -0.160157 0.871094 -0.59375 0.9375 -0.792969 c 0.03125 -0.101563 0.195312 -0.097657 0.90625 0.027343 c 1.121094 0.191407 2.09375 0.558594 2.492188 0.933594 l 0.320312 0.300782 v 1.074218 c 0 0.894532 -0.027344 1.085938 -0.148438 1.132813 c -0.082031 0.03125 -2.574218 0.054687 -5.539062 0.054687 c -4.898438 0 -5.40625 -0.015625 -5.546875 -0.152344"/></g><g style="clip-path:url(#0)"><g style="clip-path:url(#1)"><path d="m 17.527344 17.492188 c 1.132812 -1.054688 1.152344 -2.710938 0.039062 -3.699219 c -0.351562 -0.3125 -0.769531 -0.519531 -1.214844 -0.625 c 0 0 0 -0.003907 -0.003906 -0.003907 l 0.074219 -6.863281 l -0.808594 -0.714843 l -0.824219 0.761718 l -0.003906 0.492188 l 0.539063 0.480468 l -0.546875 0.507813 l -0.007813 0.492187 l -0.550781 0.507813 l -0.003906 0.496094 l 0.539062 0.476562 l -0.007812 0.492188 l -0.546875 0.507812 l 0.539062 0.480469 l -0.019531 1.925781 c -0.003906 0 -0.003906 0.003907 -0.007812 0.003907 c -0.445313 0.132812 -0.871094 0.367187 -1.222657 0.695312 c -1.136719 1.050781 -1.15625 2.710938 -0.042969 3.703125 l 0.007813 0.007813 c 1.117187 0.980468 2.9375 0.925781 4.074219 -0.125 m -1.488282 -0.578126 c -0.304687 0.28125 -0.792968 0.292969 -1.089843 0.03125 c -0.296875 -0.265624 -0.292969 -0.707031 0.011719 -0.984374 c 0.300781 -0.28125 0.789062 -0.296876 1.085937 -0.035157 c 0.296875 0.265625 0.292969 0.707031 -0.007813 0.988281" style="fill:#778799"/></g></g></svg>