<svg xmlns="http://www.w3.org/2000/svg" viewBox="0 0 22 22"><path d="m 11.554688 0.308594 c 29.820312 13.257812 -13.933594 37.082031 -11.453126 7.550781 c 0.582032 -4.445313 5.175782 -9.117187 11.453126 -7.550781" style="fill:#ff8c00"/><g style="stroke-linecap:round;stroke-linejoin:round"><path d="m 24.68316 4.693555 c -11.028314 0 -19.947297 8.952915 -19.947297 19.9655 c 0 11.029195 8.918983 19.98211 19.947297 19.98211 c 4.517622 0 8.686458 -1.594582 12.024848 -4.135948 c 9.234551 13.454289 15.695416 16.294639 17.9044 14.168529 c 2.27542 -2.209161 -1.21245 -8.521049 -13.901654 -18.188205 c 2.458118 -3.322047 3.936311 -7.374944 3.936311 -11.826486 c 0 -11.012585 -8.952201 -19.9655 -19.980514 -19.9655" transform="matrix(0.23519 0 0 0.235171 3.104922 3.571992)" style="fill:none;stroke:#fff;stroke-width:8.125"/><g style="fill:#fff;stroke:#ff8c00;fill-rule:evenodd"><g transform="matrix(0.227895 0 0 0.227858 3.262499 3.782)" style="stroke-width:3.225"><path d="m 31.912344 32.620555 c 12.341221 21.103497 21.048639 25.457915 23.72257 22.886409 c 2.776775 -2.708654 -1.885465 -11.074622 -22.094214 -24.532174"/><path d="m 45.367703 24.511737 c 0 11.383203 -9.238775 20.60634 -20.602982 20.60634 c -11.364208 0 -20.602983 -9.223137 -20.602983 -20.60634 c 0 -11.366059 9.238775 -20.589196 20.602983 -20.589196 c 11.364207 0 20.602982 9.223137 20.602982 20.589196"/></g><path d="m 40.395185 24.642445 c 0 8.687152 -7.042176 15.71328 -15.712025 15.71328 c -8.686458 0 -15.728634 -7.026128 -15.728634 -15.71328 c 0 -8.670542 7.042176 -15.713281 15.728634 -15.713281 c 8.669849 0 15.712025 7.042739 15.712025 15.713281" transform="matrix(0.23519 0 0 0.235171 3.104922 3.571992)" style="stroke-width:2.5"/></g></g></svg>