<svg xmlns="http://www.w3.org/2000/svg" viewBox="0 0 22 22"><path d="m 17.285156 19.792969 c -16.402344 10.902343 -25.808594 -22.472657 -5.300781 -19.261719 c 8.761719 1.960938 14.078125 14.261719 5.300781 19.261719" style="fill:#ff8c00"/><g style="fill:#fff"><path d="m 3.972656 3.878906 v 6.230469 h 7.214844 v -6.230469 m -6.3125 0.890625 h 5.410156 v 4.449219 h -5.410156 m 7.214844 -4.382812 v 3.492187 h 0.898437 v -2.355469 c 2.160157 0.753906 3.601563 2.765625 3.609375 5.027344 h 0.898438 c 0 -3.097656 -2.304688 -5.71875 -5.40625 -6.164062 m -7.214844 6.164062 c 0 3.09375 2.304688 5.714844 5.410156 6.160156 v -3.492187 h -0.902344 v 2.355469 c -2.15625 -0.753907 -3.601562 -2.765626 -3.605468 -5.023438"/><path d="m 15.242188 11.886719 c -1.742188 0 -3.152344 1.394531 -3.152344 3.117187 c 0 0.671875 0.222656 1.324219 0.628906 1.863282 l 0.644531 -0.640626 c -0.242187 -0.363281 -0.371093 -0.789062 -0.375 -1.222656 c 0 -1.230468 1.011719 -2.226562 2.253907 -2.226562 c 0.441406 0 0.875 0.128906 1.242187 0.371094 l 0.648437 -0.640626 c -0.546874 -0.402343 -1.210937 -0.621093 -1.890624 -0.621093 m 2.527343 1.253906 l -0.644531 0.636719 c 0.242188 0.363281 0.371094 0.789062 0.371094 1.226562 c 0 1.226563 -1.007813 2.222656 -2.253906 2.222656 c -0.441407 0 -0.871094 -0.128906 -1.238282 -0.367187 l -0.648437 0.636719 c 0.542969 0.402344 1.207031 0.621094 1.886719 0.621094 c 1.746093 0 3.15625 -1.394532 3.15625 -3.113282 c 0 -0.675781 -0.222657 -1.328125 -0.628907 -1.863281"/></g></svg>