
<svg xmlns="http://www.w3.org/2000/svg" xmlns:xlink="http://www.w3.org/1999/xlink" width="22px" height="22px" viewBox="0 0 22 22" version="1.1">
<g id="surface1">
<path style=" stroke:none;fill-rule:nonzero;fill:rgb(100%,54.901961%,0%);fill-opacity:1;" d="M 20.109375 4.609375 C 15.9375 -2.964844 2.867188 -0.0273438 0.65625 6.210938 C -1.980469 13.640625 4.878906 27.75 16.492188 19.484375 C 20.40625 16.597656 24.277344 12.183594 20.105469 4.609375 Z M 20.109375 4.609375 "/>
<path style=" stroke:none;fill-rule:nonzero;fill:rgb(99.607843%,90.588235%,56.862745%);fill-opacity:1;" d="M 9.484375 16.332031 C 9.484375 16.21875 9.089844 16.070312 8.59375 16 C 8.28125 15.957031 8.105469 15.875 8.003906 15.730469 C 7.925781 15.613281 7.769531 15.507812 7.65625 15.492188 C 7.527344 15.476562 7.4375 15.390625 7.417969 15.265625 C 7.398438 15.136719 7.324219 15.0625 7.210938 15.0625 C 7.113281 15.0625 7.007812 15.023438 6.976562 14.972656 C 6.945312 14.925781 6.84375 14.882812 6.75 14.882812 C 6.648438 14.882812 6.535156 14.761719 6.453125 14.5625 C 6.378906 14.386719 6.242188 14.203125 6.152344 14.15625 C 6.058594 14.109375 5.980469 13.972656 5.980469 13.855469 C 5.980469 13.738281 5.90625 13.585938 5.8125 13.523438 C 5.617188 13.390625 5.449219 13.023438 5.359375 12.535156 C 5.320312 12.320312 5.234375 12.183594 5.121094 12.148438 C 4.953125 12.097656 4.941406 11.988281 4.941406 10.671875 C 4.941406 9.347656 4.953125 9.25 5.125 9.199219 C 5.230469 9.164062 5.332031 9.027344 5.367188 8.855469 C 5.480469 8.328125 5.648438 7.941406 5.816406 7.824219 C 5.90625 7.761719 5.980469 7.625 5.980469 7.523438 C 5.980469 7.417969 6.058594 7.324219 6.171875 7.296875 C 6.277344 7.269531 6.359375 7.175781 6.359375 7.085938 C 6.359375 6.996094 6.402344 6.898438 6.457031 6.867188 C 6.507812 6.835938 6.550781 6.734375 6.550781 6.636719 C 6.550781 6.542969 6.605469 6.464844 6.675781 6.464844 C 6.886719 6.464844 7.378906 6.199219 7.4375 6.058594 C 7.464844 5.984375 7.574219 5.925781 7.671875 5.925781 C 7.773438 5.925781 7.921875 5.828125 8.003906 5.710938 C 8.113281 5.550781 8.273438 5.480469 8.632812 5.433594 C 8.953125 5.390625 9.191406 5.296875 9.34375 5.15625 C 9.5625 4.949219 9.617188 4.941406 11.035156 4.941406 C 12.484375 4.941406 12.5 4.941406 12.53125 5.140625 C 12.554688 5.308594 12.644531 5.355469 13.054688 5.421875 C 13.394531 5.476562 13.566406 5.550781 13.601562 5.660156 C 13.632812 5.75 13.832031 5.863281 14.074219 5.925781 C 14.300781 5.984375 14.511719 6.09375 14.542969 6.160156 C 14.570312 6.230469 14.699219 6.324219 14.832031 6.375 C 14.976562 6.425781 15.070312 6.527344 15.070312 6.636719 C 15.070312 6.734375 15.148438 6.886719 15.246094 6.976562 C 15.527344 7.230469 15.570312 7.574219 15.351562 7.832031 C 15.25 7.957031 15.164062 8.125 15.164062 8.203125 C 15.164062 8.285156 15.089844 8.375 15 8.40625 C 14.90625 8.4375 14.730469 8.539062 14.601562 8.632812 C 14.34375 8.820312 13.871094 8.78125 13.683594 8.554688 C 13.621094 8.484375 13.453125 8.394531 13.304688 8.355469 C 13.128906 8.3125 13.023438 8.21875 13.003906 8.09375 C 12.984375 7.96875 12.90625 7.898438 12.796875 7.898438 C 12.578125 7.898438 12.121094 7.710938 11.992188 7.574219 C 11.746094 7.308594 9.9375 7.375 9.585938 7.660156 C 9.503906 7.726562 9.320312 7.808594 9.175781 7.839844 C 9.035156 7.875 8.917969 7.953125 8.917969 8.015625 C 8.917969 8.125 8.425781 8.523438 8.292969 8.523438 C 8.1875 8.523438 7.976562 8.828125 7.972656 8.984375 C 7.972656 9.0625 7.875 9.1875 7.757812 9.261719 C 7.554688 9.390625 7.542969 9.449219 7.542969 10.671875 C 7.542969 11.898438 7.554688 11.957031 7.757812 12.085938 C 7.875 12.15625 7.972656 12.304688 7.972656 12.410156 C 7.976562 12.617188 8.175781 12.914062 8.3125 12.914062 C 8.359375 12.914062 8.5625 13.054688 8.769531 13.226562 C 8.972656 13.398438 9.222656 13.539062 9.320312 13.539062 C 9.421875 13.539062 9.523438 13.617188 9.550781 13.714844 C 9.578125 13.8125 9.707031 13.90625 9.847656 13.933594 C 10.976562 14.136719 11.9375 14.078125 12.015625 13.804688 C 12.042969 13.699219 12.222656 13.601562 12.523438 13.53125 C 12.804688 13.460938 13.007812 13.355469 13.039062 13.261719 C 13.070312 13.164062 13.230469 13.085938 13.464844 13.046875 C 13.675781 13.011719 13.902344 12.929688 13.976562 12.859375 C 14.152344 12.695312 14.492188 12.699219 14.5625 12.867188 C 14.59375 12.941406 14.6875 13.003906 14.777344 13.003906 C 14.988281 13.003906 15.164062 13.175781 15.164062 13.382812 C 15.164062 13.472656 15.230469 13.570312 15.308594 13.597656 C 15.507812 13.671875 15.484375 13.894531 15.210938 14.460938 C 15.0625 14.765625 14.898438 14.972656 14.777344 15 C 14.671875 15.027344 14.5625 15.128906 14.535156 15.226562 C 14.5 15.34375 14.34375 15.445312 14.074219 15.519531 C 13.832031 15.589844 13.644531 15.699219 13.617188 15.792969 C 13.585938 15.90625 13.4375 15.96875 13.078125 16.011719 C 12.710938 16.058594 12.570312 16.117188 12.539062 16.242188 C 12.496094 16.394531 12.371094 16.40625 10.988281 16.40625 C 10.160156 16.40625 9.484375 16.371094 9.484375 16.332031 Z M 10.078125 11.757812 C 9.746094 11.679688 9.484375 11.566406 9.484375 11.503906 C 9.484375 11.441406 9.398438 11.308594 9.296875 11.210938 C 9.179688 11.101562 9.105469 10.914062 9.105469 10.71875 C 9.105469 10.523438 9.179688 10.335938 9.296875 10.226562 C 9.398438 10.128906 9.484375 9.992188 9.484375 9.929688 C 9.484375 9.855469 9.703125 9.769531 10.074219 9.707031 C 10.402344 9.648438 10.679688 9.5625 10.699219 9.511719 C 10.742188 9.386719 15.355469 9.386719 15.355469 9.507812 C 15.355469 9.558594 15.476562 9.597656 15.625 9.597656 C 16.785156 9.597656 17.488281 10.667969 16.792969 11.371094 C 16.3125 11.855469 15.816406 11.929688 13.089844 11.914062 C 11.21875 11.902344 10.535156 11.867188 10.078125 11.757812 Z M 10.078125 11.757812 "/>
</g>
</svg>
