<svg xmlns="http://www.w3.org/2000/svg" viewBox="0 0 22 22"><path d="m 19.734375 16.828125 c 7.910156 -11.25 -6.699219 -22.648437 -16.019531 -13.480469 c -8.78125 8.636719 -0.640625 22.054688 10.289062 17.859375 c 2.277344 -0.875 4.277344 -2.3125 5.730469 -4.378906" style="fill:#b0c3de"/><path d="m 14.023438 12.078125 c -0.457032 -0.003906 -1 0.035156 -1.589844 0.121094 c -0.269532 -0.160157 -0.554688 -0.332031 -0.78125 -0.546875 c -0.570313 -0.542969 -1.054688 -1.296875 -1.351563 -2.144532 c 0.019531 -0.082031 0.039063 -0.160156 0.058594 -0.242187 c 0.082031 -0.375 0.144531 -1.628906 0.144531 -1.628906 c 0 0 -0.238281 0.941406 -0.277344 1.082031 c -0.023437 0.089844 -0.050781 0.1875 -0.085937 0.285156 c -0.179687 -0.644531 -0.273437 -1.269531 -0.273437 -1.746094 c 0 -0.132812 0.011718 -0.394531 0.050781 -0.601562 c 0.015625 -0.148438 0.070312 -0.222656 0.125 -0.257812 c 0.105469 0.023437 0.226562 0.191406 0.355469 0.472656 c 0.105468 0.242187 0.101562 0.523437 0.101562 0.699218 c 0 0 0.113281 -0.429687 0.085938 -0.6875 c -0.015626 -0.152343 -0.160157 -0.546874 -0.464844 -0.539062 h -0.023438 l -0.136718 -0.003906 c -0.222657 0 -0.429688 0.109375 -0.480469 0.292968 c -0.1875 0.699219 0.023437 1.785157 0.371093 3.132813 l -0.105468 0.261719 c -0.265625 0.660156 -0.601563 1.320312 -0.894532 1.90625 c -1.214843 2.410156 -2.15625 3.707031 -2.785156 3.800781 l -0.003906 -0.027344 c -0.011719 -0.300781 0.53125 -1.074219 1.273438 -1.691406 c 0.078124 -0.0625 0.40625 -0.386719 0.40625 -0.386719 c 0 0 -0.445313 0.242188 -0.542969 0.300782 c -0.929688 0.5625 -1.390625 1.128906 -1.464844 1.5 c -0.023437 0.113281 -0.007813 0.25 0.085937 0.304687 l 0.238282 0.121094 c 0.644531 0.328125 1.441406 -0.535157 2.496094 -2.414063 c 1.074218 -0.355468 2.417968 -0.695312 3.636718 -0.878906 c 1.09375 0.632812 2.347656 0.9375 2.828125 0.804688 c 0.09375 -0.023438 0.191407 -0.09375 0.238281 -0.164063 c 0.039063 -0.0625 0.09375 -0.308594 0.09375 -0.308594 c 0 0 -0.09375 0.125 -0.164062 0.164063 c -0.308594 0.144531 -1.269531 -0.101563 -2.257812 -0.589844 c 0.855468 -0.09375 1.566406 -0.09375 1.945312 0.027344 c 0.484375 0.15625 0.484375 0.316406 0.476562 0.351562 c 0.007813 -0.027344 0.03125 -0.136718 0.027344 -0.183594 c -0.011718 -0.117187 -0.046875 -0.222656 -0.132812 -0.308593 c -0.179688 -0.179688 -0.621094 -0.269531 -1.222656 -0.277344 m -5.367188 1.132813 c 0.179688 -0.332032 0.378906 -0.691407 0.582031 -1.078126 c 0.390625 -0.753906 0.628907 -1.335937 0.828125 -1.882812 c 0.316406 0.644531 0.75 1.257812 1.320313 1.746094 c 0.128906 0.109375 0.265625 0.214844 0.402343 0.3125 c -1.035156 0.195312 -2.125 0.472656 -3.132812 0.902344" style="fill:#fff"/><g style="fill-rule:evenodd"><path d="m 4.902344 5.410156 h 5.734375 v 5.691406 h -5.734375" style="fill:#00de16"/><g style="fill:#b5fc00"><path d="m 10.628906 5.410156 h 5.675782 v 5.691406 h -5.675782"/><path d="m 4.902344 11.085938 h 5.714844 v 5.886718 h -5.714844"/></g><path d="m 10.609375 11.09375 h 5.695313 v 5.878906 h -5.695313" style="fill:#00de16"/></g><path d="m 4.894531 5.414062 l 5.769531 5.671876 h -5.769531" style="fill:#b5fc00"/><path d="m 4.894531 16.972656 l 5.769531 -5.886718 h -5.769531" style="fill:#d40000"/><path d="m 16.308594 16.957031 l -5.769532 -5.890625 h 5.769532" style="fill:#b5fc00"/><path d="m 16.308594 5.394531 l -5.75 5.691407 h 5.75" style="fill:#00de16"/><path d="m 12.265625 11.128906 c 0 1 -0.769531 1.808594 -1.714844 1.808594 c -0.949219 0 -1.714843 -0.808594 -1.714843 -1.808594 c 0 -0.996094 0.769531 -1.804687 1.714843 -1.804687 c 0.945313 0 1.714844 0.808593 1.714844 1.804687" style="fill:#fffc01"/></svg>