<svg xmlns="http://www.w3.org/2000/svg" viewBox="0 0 22 22"><path d="m 1.785156 17.402344 c -7.15625 -10.234375 8.960938 -23.050782 17.382813 -14.722656 c 7.941406 7.855468 -2.324219 22.507812 -12.199219 18.699218 c -2.066406 -0.796875 -3.875 -2.109375 -5.183594 -3.976562" style="fill:#ff8c00"/><path d="m 6.131708 5.626681 c -1.262283 0 -2.295061 1.33663 -2.295061 3.015568 v 31.932415 c 0 1.662637 1.032778 3.015567 2.295061 3.015567 h 46.032377 c 1.278677 0 2.295061 -1.33663 2.295061 -3.015567 v -31.932415 c 0 -1.662637 -1.016384 -3.015568 -2.295061 -3.015568" transform="matrix(0.238283 0 0 0.239642 3.867041 4.917237)" style="fill:none;stroke:#fff;stroke-linecap:round;stroke-linejoin:round;stroke-width:8.125"/><g style="fill:#fff;fill-rule:evenodd"><path d="m 5.328125 6.265625 c -0.300781 0 -0.546875 0.320313 -0.546875 0.71875 v 6.460937 c 0 0.398438 0.246094 0.71875 0.546875 0.71875 h 10.96875 c 0.304687 0 0.546875 -0.324218 0.546875 -0.71875 v -6.460937 c 0 -0.398437 -0.242188 -0.71875 -0.546875 -0.71875"/><path d="m 5.320312 6.238281 c -0.296874 0 -0.539062 0.242188 -0.539062 0.542969 v 0.945312 c 0 0.300782 0.242188 0.542969 0.539062 0.542969 h 10.988282 c 0.296875 0 0.535156 -0.242187 0.535156 -0.542969 v -0.945312 c 0 -0.300781 -0.238281 -0.542969 -0.535156 -0.542969"/></g><g style="fill:none;stroke:#ff8c00;stroke-linecap:round;stroke-linejoin:round"><path d="m 53.027177 7.617188 l -2.703659 2.705132 m -0.067591 -2.77234 l 2.77125 2.77234" transform="matrix(0.231168 0 0 0.232486 3.866802 5.197858)" style="stroke-width:1.933"/><path d="m 6.321468 9.991774 c -1.301136 0 -2.365701 1.05265 -2.365701 2.362043 v 25.160896 c 0 1.309394 1.064565 2.362044 2.365701 2.362044 h 47.449215 c 1.318034 0 2.365702 -1.05265 2.365702 -2.362044 v -25.160896 c 0 -1.309393 -1.047668 -2.362043 -2.365702 -2.362043" transform="matrix(0.231168 0 0 0.304292 3.866802 3.225212)" style="stroke-width:2.816"/><path d="m 3.955767 10.876788 c 0 1.293759 1.047668 2.335486 2.331906 2.335486 h 47.533704 c 1.301136 0 2.315008 -1.041727 2.315008 -2.335486" transform="matrix(0.231168 0 0 0.232486 3.866802 5.197858)" style="stroke-width:3.221"/><g transform="matrix(0.238283 0 0 0.239642 3.664977 5.1425)" style="stroke-width:5"><path d="m 10.979672 19.878621 h 25.737475"/><path d="m 10.979672 27.376789 h 18.229345"/><path d="m 30.651627 36.309389 h 18.245739"/></g></g></svg>