<svg xmlns="http://www.w3.org/2000/svg" viewBox="0 0 22 22"><path d="m 18.867188 18.179688 c -22.792969 17.199218 -26.03125 -30.128907 -2.761719 -14.941407 c 5.304687 3.464844 8.800781 10.386719 2.761719 14.941407" style="fill:#ff8c00"/><path d="m 14.195312 14.660156 c 0.605469 -0.195312 1.351563 -0.605468 2 -1.105468 c 0.515626 -0.394532 1.726563 -1.625 1.976563 -2.007813 c 0.144531 -0.226563 0.144531 -0.234375 -0.191406 -0.640625 c -0.824219 -1.007812 -1.90625 -1.925781 -2.800781 -2.378906 c -0.523438 -0.269532 -1.671876 -0.601563 -1.757813 -0.515625 c -0.023437 0.023437 0.074219 0.433593 0.222656 0.90625 c 0.273438 0.875 0.339844 1.46875 0.179688 1.570312 c -0.050781 0.03125 -0.394531 -0.046875 -0.765625 -0.167969 c -2.78125 -0.910156 -6.3125 -0.882812 -8.792969 0.078126 l -0.484375 0.1875 l -0.046875 1.9375 l 0.679687 0.1875 c 3.046876 0.84375 5.542969 0.824218 8.277344 -0.066407 c 0.738282 -0.242187 1.0625 -0.3125 1.128906 -0.242187 c 0.15625 0.15625 0.105469 0.582031 -0.167968 1.460937 c -0.144532 0.457031 -0.265625 0.863281 -0.265625 0.898438 c 0 0.105469 0.265625 0.070312 0.808593 -0.101563" style="fill:#fff;fill-rule:evenodd"/></svg>