<svg xmlns="http://www.w3.org/2000/svg" viewBox="0 0 22 22" xmlns:xlink="http://www.w3.org/1999/xlink"><defs><linearGradient id="0" gradientUnits="userSpaceOnUse" x1="15.932" y1="4.54" x2="15.807" y2="13.253" gradientTransform="matrix(0.0789722 0 0 0.0721705 5.099122 6.051221)"><stop style="stop-color:#ffefef"/><stop offset="1" style="stop-color:#ffefef;stop-opacity:0"/></linearGradient><linearGradient id="1" gradientUnits="userSpaceOnUse" x1="15.932" y1="4.54" x2="15.807" y2="13.253" gradientTransform="matrix(0.0780212 0 0 0.0721705 6.489525 6.051221)" xlink:href="#0"/></defs><g style="fill:#86ceeb"><path d="m 13.132812 21.769531 c 3.890626 -0.472656 7.042969 -3.207031 8.230469 -7.136719 c 0.355469 -1.175781 0.503907 -2.800781 0.367188 -4.042968 c -0.195313 -1.792969 -0.890625 -3.628906 -1.957031 -5.175782 c -0.671876 -0.980468 -1.871094 -2.25 -2.785157 -2.953124 c -1.558593 -1.199219 -3.183593 -1.902344 -5.070312 -2.1875 c -0.65625 -0.097657 -2 -0.101563 -2.714844 0 c -1.765625 0.242187 -3.507813 0.972656 -5.003906 2.09375 c -0.527344 0.394531 -1.605469 1.476562 -1.992188 1.996093 c -1.089843 1.464844 -1.695312 2.949219 -1.941406 4.75 c -0.0625 0.464844 -0.0625 1.746094 0 2.246094 c 0.167969 1.320313 0.53125 2.476563 1.195313 3.761719 c 0.789062 1.539062 1.914062 2.957031 3.117187 3.929687 c 1.691406 1.359375 3.855469 2.324219 5.972656 2.660157 c 0.535157 0.082031 2.082031 0.117187 2.582031 0.058593 m -0.613281 -7.828125 c -0.246093 -0.128906 1.117188 -0.773437 1.347657 -0.929687 c 0.128906 -0.089844 1.222656 -0.496094 -1.160157 0.417969 l -0.710937 0.394531 l 0.226562 -0.226563 l 0.28125 0.617188 l 0.121094 -0.574219 l 0.402344 0.15625 l -0.308594 -2.246094 c -0.015625 -0.121093 -0.53125 2.886719 -0.53125 -0.324219 c 0 -1.832031 0.746094 0.535157 0.757812 0.496094 c 0.078126 -0.199218 0.355469 0.152344 -0.175781 -0.8125 l 0.0625 0.113282 l 1.699219 -1.117188 l 0.125 -0.160156 l -2.871094 1.488281 c -2.058594 1.070313 1.730469 0.957031 1.699219 1.03125 c -0.027344 0.054687 -0.039063 0.800781 -0.097656 0.828125 c -0.070313 0.03125 -0.445313 -2.199219 -0.890625 -0.742188 l -0.449219 1.464844 v 0.683594 h 0.707031 c 0.789063 0 0.875 0.027344 0.957032 0.28125 c 0.0625 0.1875 0.015624 0.339844 -0.136719 0.472656 l -0.574219 -2.941406 l -1.980469 3.046875 c -1.117187 1.714844 1.601563 -1.367187 1.5 -1.417969"/><path d="m 0.367188 13.160156 c 0.46875 3.941406 3.164062 7.132813 7.046874 8.339844 c 1.160157 0.359375 2.765626 0.507812 3.992188 0.371094 c 1.769531 -0.199219 3.582031 -0.902344 5.109375 -1.980469 c 0.964844 -0.683594 2.21875 -1.898437 2.914063 -2.824219 c 1.183593 -1.578125 1.875 -3.226562 2.160156 -5.136718 c 0.097656 -0.664063 0.097656 -2.023438 0 -2.75 c -0.242188 -1.789063 -0.960938 -3.550782 -2.066406 -5.070313 c -0.390626 -0.53125 -1.457032 -1.625 -1.972657 -2.019531 c -1.445312 -1.101563 -2.910156 -1.714844 -4.6875 -1.960938 c -0.457031 -0.066406 -1.722656 -0.066406 -2.21875 0 c -1.304687 0.167969 -2.441406 0.535156 -3.714843 1.207032 c -1.515626 0.796874 -2.917969 1.941406 -3.878907 3.160156 c -1.339843 1.710937 -2.296875 3.90625 -2.621093 6.050781 c -0.085938 0.539063 -0.121094 2.109375 -0.0625 2.613281 m 7.730468 -0.621094 c 0.125 -0.25 0.765625 1.128907 0.917969 1.363282 c 0.085937 0.132812 0.488281 1.238281 -0.414063 -1.175782 l -0.390624 -0.71875 l 0.226562 0.230469 l -0.613281 0.285157 l 0.570312 0.121093 l -0.15625 0.40625 l 2.21875 -0.308593 c 0.121094 -0.019532 -2.851562 -0.539063 0.320313 -0.539063 c 1.804687 0 -0.527344 0.75 -0.492188 0.769531 c 0.199219 0.074219 -0.148437 0.359375 0.804688 -0.179687 l -0.113282 0.0625 l 1.105469 1.722656 l 0.15625 0.125 l -1.472656 -2.90625 c -1.054687 -2.085937 -0.941406 1.753906 -1.011719 1.71875 c -0.058594 -0.027344 -0.792968 -0.039063 -0.820312 -0.097656 c -0.035156 -0.070313 2.167968 -0.449219 0.734375 -0.902344 l -1.449219 -0.457031 h -0.675781 v 0.714844 c 0 0.800781 -0.023438 0.886718 -0.273438 0.972656 c -0.1875 0.0625 -0.339843 0.019531 -0.464843 -0.136719 l 2.902343 -0.585937 l -3.007812 -2.003907 c -1.695313 -1.132812 1.34375 1.621094 1.398437 1.519531"/></g><path d="m 5.222656 5.535156 h 11.507813 v 11.609375 h -11.507813" style="fill:#4581b3;fill-opacity:0.937255"/><path d="m 5.472656 5.535156 h 11.007813 v 11.359375 h -11.007813" style="fill:#fff"/><g style="fill:#4581b3"><path d="m 5.222656 5.535156 h 11.507813 v 3.183594 h -11.507813" style="fill-opacity:0.937255"/><path d="m 11.542969 9.207031 l -0.261719 0.503907 l -2.347656 3.933593 l -1.453125 -2.359375 h -0.730469 l 1.078125 1.972656 l 1.5 2.417969 l 2.347656 -3.929687 l 1.328125 -2.515625" style="fill-opacity:0.501961"/><path d="m 14.050781 12.761719 h 1.050781 v 5.191406 h -1.050781"/><path d="m 12.007812 15.886719 v -1.054688 h 5.140626 v 1.054688"/></g><g style="fill:#999"><path d="m 6.6875 5.535156 h 2.148438 v 1.078125 h -2.148438"/><path d="m 13.207031 5.535156 h 2.148438 v 1.078125 h -2.148438"/></g><path d="m 6.714844 5.535156 h 2.097656 v 1.015625 h -2.097656" style="fill:url(#0)"/><path d="m 13.25 5.535156 h 2.070312 v 1.015625 h -2.070312" style="fill:url(#1)"/></svg>