<svg xmlns="http://www.w3.org/2000/svg" viewBox="0 0 22 22"><path d="m 21.289062 14.023438 c 4.105469 -11.464844 -10.65625 -17.039063 -16.199218 -12.371094 c -5.546875 4.664062 -7.441406 12.664062 -1.160156 16.6875 c 6.28125 4.027344 13.25 7.148437 17.359374 -4.316406" style="fill:#ff8c00"/><path d="m 5.371094 16.722656 v -4.535156 h 4.746094 v 4.535156 m 2.371093 0 v -0.753906 h 4.746094 v -4.539062 h 0.792969 v 5.292968 m -12.65625 -6.800781 v -5.292969 h 5.535156 v 0.753906 h -4.742188 v 4.539063 m 8.695313 -0.328125 v -3.519531 l -1.28125 1.226562 l -0.558594 -0.535156 l 1.675781 -1.601563 l 0.558594 -0.535156 l 2.238282 2.136719 l -0.558594 0.535156 l -1.28125 -1.226562 v 3.519531" style="fill-opacity:0.501961"/><g transform="scale(0.0859375)" style="fill:#fff;stroke:#fff;fill-rule:evenodd;stroke-width:5.938"><path d="m 63.090909 168 v 25.5 h 54.227273 v -51 h -54.227273"/><path d="m 63.090909 85.045455 v 30.363636 h 7.545455 l 0.272727 -26.318182 l 0.318182 -26.272727 l 54.772727 -0.590909 v -7.545455 h -62.909091"/><path d="m 165.045455 66.636364 l -12.454546 11.681818 l 5.136364 5.545454 l 16 -14.272727 v 41.5 h 7.545454 l 0.590909 -41.181818 l 7.727273 7 l 7.681818 6.954545 l 2.454546 -2.590909 c 1.318182 -1.409091 2.136363 -3.045454 1.772727 -3.590909 c -0.318182 -0.590909 -5.863636 -5.954545 -12.272727 -11.909091 l -11.727273 -10.863636"/><path d="m 200.818182 159.863636 v 26.045455 h -55.318182 v 7.590909 h 64 v -59.681818 h -8.681818"/></g></svg>