<svg xmlns="http://www.w3.org/2000/svg" viewBox="0 0 22 22"><path d="m 19.875 4.644531 c 10.902344 16.261719 -23.871094 26.273438 -19.265625 5.257813 c 1.960937 -8.6875 14.261719 -13.960938 19.265625 -5.257813" style="fill:#9370db"/><path d="m 14.660156 17.097656 c -1 -0.835937 -1.335937 -1.472656 -1.476562 -2.792968 c -0.066406 -0.640626 -0.089844 -1.257813 -0.054688 -1.363282 c 0.042969 -0.105468 0.320313 -0.238281 0.625 -0.289062 c 0.304688 -0.058594 0.816406 -0.304688 1.136719 -0.554688 l 0.585937 -0.449218 l 0.476563 0.441406 c 0.257813 0.246094 0.71875 0.496094 1.023437 0.554687 c 0.304688 0.0625 0.597657 0.191407 0.65625 0.289063 c 0.054688 0.09375 0.066407 0.652344 0.019532 1.238281 c -0.066406 0.800781 -0.1875 1.234375 -0.488282 1.75 c -0.394531 0.664063 -1.457031 1.675781 -1.765624 1.671875 c -0.082032 -0.003906 -0.417969 -0.226562 -0.738282 -0.496094 m -9.832031 -1.367187 c -0.039063 -0.105469 -0.054687 -2.382813 -0.035156 -5.058594 l 0.039062 -4.867187 h 12.839844 v 4.71875 h -1.285156 l -0.070313 -1.738282 c -0.039062 -0.957031 -0.136718 -1.757812 -0.214844 -1.785156 c -0.078124 -0.027344 -1.167968 0.941406 -2.425781 2.152344 c -1.253906 1.210937 -2.34375 2.199218 -2.421875 2.199218 c -0.082031 0 -1.171875 -0.992187 -2.425781 -2.203124 c -1.253906 -1.210938 -2.34375 -2.179688 -2.425781 -2.152344 c -0.089844 0.035156 -0.144532 1.382812 -0.144532 3.769531 v 3.710937 l 4.78125 0.085938 v 1.359375 h -3.070312 c -2.339844 0 -3.089844 -0.046875 -3.140625 -0.191406" style="fill:#fff"/></svg>