<svg xmlns="http://www.w3.org/2000/svg" viewBox="0 0 22 22"><path d="m 14.023438 21.289062 c -11.464844 4.105469 -17.039063 -10.65625 -12.371094 -16.199218 c 4.664062 -5.546875 12.664062 -7.441406 16.691406 -1.160156 c 4.023438 6.28125 7.144531 13.25 -4.320312 17.359374" style="fill:#ffd600"/><g style="fill:#fff"><path d="m 4.734375 6.070312 v 11.164063 h 6.171875 v -0.699219 h -5.554688 v -0.40625 l 0.285157 -0.324218 l 3.867187 -4.375 l 0.898438 1.015624 l 0.503906 0.566407 l 0.503906 -0.566407 l 0.898438 -1.015624 l 0.8125 0.921874 h 0.871094 l -1.25 -1.414062 l 3.554687 -4.015625 l 0.136719 -0.152344 h 0.027344 v 4.1875 h 0.621093 v -4.886719 m -11.730469 0.699219 h 0.03125 l 0.136719 0.152344 l 3.550781 4.015625 l -3.71875 4.203125 m 0.902344 -8.371094 h 9.304688 l -4.652344 5.257813"/><path d="m 15.84375 11.652344 l -0.613281 0.695312 l -0.003907 -0.003906 l -3.085937 3.488281 l 0.003906 0.003907 v 0.699218 h -0.003906 v 0.699219 h 1.234375 l 0.007812 -0.007813 c 0 0 0 0.003907 0.003907 0.003907 l -0.003907 -0.007813 l 0.609376 -0.6875 l 2.46875 -2.785156 l -0.433594 -0.496094 l -3.082032 3.480469 l -0.363281 -0.414063 l 3.082031 -3.480468 l 0.363282 0.414062 l 0.433594 0.492188 l 0.621093 -0.699219"/></g></svg>