<svg xmlns="http://www.w3.org/2000/svg" viewBox="0 0 22 22"><path d="m 7.976562 21.289062 c 11.464844 4.105469 17.039063 -10.65625 12.371094 -16.199218 c -4.664062 -5.546875 -12.664062 -7.441406 -16.691406 -1.160156 c -4.023438 6.28125 -7.144531 13.25 4.320312 17.359374" style="fill:#ff8c00"/><g style="fill:#fff"><path d="m 68.727273 191.272727 c -4.136364 -0.772727 -5.363637 -3.454545 -5.954546 -12.727272 c -0.681818 -10.818182 1.090909 -17.045455 5.136364 -18.045455 c 4.772727 -1.227273 7.227273 2.181818 7.636364 10.636364 l 0.363636 7.318181 l 7.090909 0.363637 c 5.272727 0.227273 7.681818 0.909091 9.181818 2.636363 c 2.954546 3.272728 1.5 7.772728 -3.090909 9.363637 c -3.5 1.272727 -15.090909 1.545454 -20.363636 0.5 m 104.636363 -0.318182 c -4.090909 -1.772727 -5.545454 -5.636364 -3.363636 -9 c 1.545455 -2.409091 2.909091 -2.909091 9.090909 -3.227273 l 7.272727 -0.318182 l 0.590909 -7.272727 c 0.636364 -8.045454 2.454546 -11.181818 6.5 -11.181818 c 4.636364 0 6.272728 4.181818 6.272728 15.590909 c 0 14.409091 -1.045455 15.636364 -14.045455 16.136364 c -5.363636 0.227272 -10.909091 -0.136364 -12.318182 -0.727273 m -76.863636 -56.636364 c -2.181818 -1.590909 -2.590909 -2.954545 -2.590909 -9.272727 c 0 -4.181818 0.590909 -8.045454 1.409091 -8.818182 c 2.181818 -2.272727 77.681818 -2.454545 80.681818 -0.181818 c 1.772727 1.318182 -0.272727 0 0.272727 11.090909 l 0.454546 9.045455 h -38.818182 c -33.227273 0 -39.181818 -0.272728 -41.409091 -1.863637 m 71.272727 -9.636363 c 0 -2.045455 -2.045454 -2.227273 -33.454545 -2.5 l -33.409091 -0.318182 v 5.409091 l 33.409091 -0.227273 c 31.454545 -0.227273 33.454545 -0.363636 33.454545 -2.363636 m -102.909091 -30.727273 c -1.772727 -2.136364 -2.909091 -15.454545 -1.863636 -21.272727 c 1.272727 -7.045455 2.909091 -7.863637 15.727273 -7.863637 c 9.772727 0 11.636363 0.318182 13.409091 2.318182 c 4.590909 5.181818 -1.590909 11.318182 -10.727273 10.727273 c -6 -0.409091 -6.090909 -0.318182 -6.090909 7.090909 c 0 7.772727 -1.772727 10.772727 -6.318182 10.772727 c -1.5 0 -3.363636 -0.772727 -4.136364 -1.772727 m 123.909091 -0.863636 c -1.090909 -1.590909 -1.818182 -5.136364 -1.818182 -8.909091 c 0 -6.636364 -0.045454 -6.681818 -6.454545 -6.318182 c -8.363636 0.409091 -13.863636 -4.863636 -10.454545 -10.181818 c 1.772727 -2.727273 2.40909 -2.863637 13.954545 -2.863637 c 15.318182 0 15.727273 0.409091 15.727273 16.136364 c 0 9 -0.318182 11.181818 -2.090909 12.818182 c -2.954546 2.727273 -6.727273 2.454545 -8.863637 -0.681818" transform="scale(0.0859375)" style="stroke:#fff;stroke-width:1.176"/><path d="m 9.695312 10.152344 c -0.148437 -0.140625 0.035157 0.03125 0.101563 0.03125 c 0.097656 0.011718 0.195313 0.015625 0.289063 0.019531 c -0.007813 0 -0.023438 0 -0.019532 -0.003906 c 0.007813 -0.011719 0.164063 -0.035157 0.214844 -0.054688 c 0.152344 -0.0625 0.328125 -0.070312 0.46875 -0.113281 c 0.199219 -0.058594 0.402344 -0.078125 0.609375 -0.085938 c 0.222656 -0.019531 0.441406 0.003907 0.664063 0.042969 c 0.144531 0.023438 0.289062 0.03125 0.4375 0.035157 c 0.167968 0.003906 0.335937 0.003906 0.503906 0.003906 c 0.175781 0 0.351562 0 0.527344 0 c 0.148437 0 0.292968 0 0.4375 0 c 0.933593 0 0.933593 1.316406 0 1.316406 c -0.144532 0 -0.289063 0 -0.4375 0 c -0.175782 0 -0.351563 0 -0.527344 0 c -0.183594 0 -0.363282 0 -0.546875 -0.003906 c -0.207031 -0.007813 -0.410157 -0.019532 -0.613281 -0.054688 c -0.128907 -0.023437 -0.246094 -0.042968 -0.378907 -0.027344 c -0.105469 0.003907 -0.214843 0.011719 -0.316406 0.042969 c -0.132813 0.035157 -0.261719 0.050781 -0.390625 0.085938 c -0.214844 0.070312 -0.4375 0.117187 -0.664062 0.128906 c -0.234376 -0.003906 -0.472657 -0.015625 -0.699219 -0.089844 c -0.214844 -0.082031 -0.414063 -0.191406 -0.589844 -0.34375 c -0.65625 -0.65625 0.273437 -1.585937 0.929687 -0.929687"/><path d="m 12.367188 7.1875 v 6.730469 c 0 0.007812 -0.003907 0.011719 -0.011719 0.011719 h -1.644531 c -0.003907 0 -0.011719 -0.003907 -0.011719 -0.011719 v -6.730469 c 0 -0.007812 0.007812 -0.011719 0.011719 -0.011719 h 1.644531 c 0.007812 0 0.011719 0.003907 0.011719 0.011719"/></g></svg>