<svg xmlns="http://www.w3.org/2000/svg" viewBox="0 0 22 22"><path d="m 18.179688 18.867188 c 17.199218 -22.792969 -30.128907 -26.03125 -14.941407 -2.761719 c 3.464844 5.304687 10.386719 8.800781 14.941407 2.761719" style="fill:#ff8c00"/><g style="fill:#fff"><path d="m 6.111288 46.252901 l 21.016854 -16.246649 l -21.016854 -16.246648" transform="matrix(0.238648 0 0 0.259909 4.170461 3.122969)" style="stroke:#fff;fill-rule:evenodd;stroke-linecap:round;stroke-linejoin:round;stroke-width:5"/><path d="m 17.75 8.035156 c 0 0.269532 -0.0625 0.53125 -0.195312 0.78125 c -0.125 0.25 -0.3125 0.453125 -0.554688 0.613282 c -0.238281 0.164062 -0.519531 0.242187 -0.839844 0.242187 c -0.191406 0 -0.382812 -0.03125 -0.578125 -0.09375 c -0.1875 -0.070313 -0.433593 -0.175781 -0.734375 -0.320313 c -0.292968 -0.144531 -0.515625 -0.246093 -0.652344 -0.304687 c -0.144531 -0.058594 -0.273437 -0.089844 -0.386718 -0.089844 c -0.136719 0 -0.25 0.03125 -0.34375 0.089844 c -0.097656 0.0625 -0.207032 0.15625 -0.328125 0.289063 c -0.125 0.128906 -0.21875 0.21875 -0.285157 0.269531 c -0.066406 0.046875 -0.144531 0.070312 -0.242187 0.070312 c -0.3125 0 -0.46875 -0.214843 -0.46875 -0.640625 c 0 -0.417968 0.144531 -0.796875 0.429687 -1.140625 c 0.289063 -0.339843 0.65625 -0.511719 1.097657 -0.511719 c 0.257812 0 0.488281 0.039063 0.6875 0.121094 c 0.203125 0.082032 0.503906 0.21875 0.90625 0.410156 c 0.402343 0.191407 0.679687 0.289063 0.820312 0.289063 c 0.132813 0 0.246094 -0.03125 0.335938 -0.089844 c 0.097656 -0.058593 0.203125 -0.152343 0.316406 -0.273437 c 0.121094 -0.128906 0.21875 -0.21875 0.292969 -0.273438 c 0.074218 -0.058594 0.160156 -0.085937 0.257812 -0.085937 c 0.308594 0 0.464844 0.214843 0.464844 0.644531"/><path d="m 17.75 4.679688 c 0 0.269531 -0.0625 0.53125 -0.195312 0.78125 c -0.125 0.25 -0.3125 0.453124 -0.554688 0.617187 c -0.238281 0.160156 -0.519531 0.238281 -0.839844 0.238281 c -0.191406 0 -0.382812 -0.03125 -0.578125 -0.097656 c -0.1875 -0.066406 -0.433593 -0.171875 -0.734375 -0.3125 c -0.292968 -0.148438 -0.515625 -0.25 -0.652344 -0.308594 c -0.144531 -0.058594 -0.273437 -0.089844 -0.386718 -0.089844 c -0.136719 0 -0.25 0.03125 -0.34375 0.089844 c -0.097656 0.0625 -0.207032 0.160156 -0.328125 0.289063 c -0.125 0.128906 -0.21875 0.21875 -0.285157 0.269531 c -0.066406 0.046875 -0.144531 0.070312 -0.242187 0.070312 c -0.3125 0 -0.46875 -0.210937 -0.46875 -0.640624 c 0 -0.417969 0.144531 -0.796876 0.429687 -1.140626 c 0.289063 -0.339843 0.65625 -0.511718 1.097657 -0.511718 c 0.257812 0 0.488281 0.039062 0.6875 0.121094 c 0.203125 0.082031 0.503906 0.21875 0.90625 0.410156 c 0.402343 0.191406 0.679687 0.285156 0.820312 0.285156 c 0.132813 0 0.246094 -0.027344 0.335938 -0.085938 c 0.097656 -0.058593 0.203125 -0.152343 0.316406 -0.273437 c 0.121094 -0.128906 0.21875 -0.21875 0.292969 -0.273437 c 0.074218 -0.054688 0.160156 -0.085938 0.257812 -0.085938 c 0.308594 0 0.464844 0.214844 0.464844 0.644531"/><path d="m 14.148438 15.261719 v -0.765625 c 0 -0.15625 0.03125 -0.277344 0.089843 -0.359375 c 0.058594 -0.085938 0.132813 -0.140625 0.21875 -0.171875 c 0.085938 -0.03125 0.210938 -0.066406 0.382813 -0.097656 c 0.441406 -0.089844 0.664062 -0.332032 0.664062 -0.730469 c 0 -0.160157 -0.058594 -0.304688 -0.179687 -0.429688 c -0.117188 -0.128906 -0.269531 -0.195312 -0.457031 -0.195312 c -0.179688 0 -0.316407 0.035156 -0.417969 0.113281 c -0.101563 0.070312 -0.199219 0.179688 -0.300781 0.324219 c -0.097657 0.136719 -0.1875 0.242187 -0.28125 0.320312 c -0.085938 0.070313 -0.207032 0.105469 -0.359376 0.105469 c -0.175781 0 -0.324218 -0.070312 -0.449218 -0.214844 c -0.121094 -0.144531 -0.183594 -0.3125 -0.183594 -0.507812 c 0 -0.339844 0.101562 -0.640625 0.308594 -0.898438 c 0.203125 -0.253906 0.457031 -0.453125 0.765625 -0.585937 c 0.308593 -0.136719 0.613281 -0.207031 0.917969 -0.207031 c 0.296874 0 0.574218 0.050781 0.832031 0.148437 c 0.257812 0.09375 0.488281 0.234375 0.6875 0.417969 c 0.199219 0.1875 0.351562 0.414062 0.460937 0.679687 c 0.113282 0.261719 0.171875 0.554688 0.171875 0.878907 c 0 0.582031 -0.132812 1.03125 -0.40625 1.355468 c -0.265625 0.320313 -0.632812 0.53125 -1.101562 0.636719 v 0.183594 c 0 0.148437 -0.027344 0.28125 -0.089844 0.394531 c -0.058594 0.113281 -0.136719 0.199219 -0.242187 0.265625 c -0.101563 0.0625 -0.21875 0.089844 -0.347657 0.089844 c -0.132812 0 -0.25 -0.027344 -0.355469 -0.089844 c -0.101562 -0.066406 -0.183593 -0.152344 -0.242187 -0.265625 c -0.054687 -0.113281 -0.085937 -0.246094 -0.085937 -0.394531 m -0.078126 2 c 0 -0.148438 0.035157 -0.289063 0.105469 -0.414063 c 0.070313 -0.128906 0.164063 -0.234375 0.28125 -0.308594 c 0.113281 -0.078124 0.238281 -0.117187 0.371094 -0.117187 c 0.136719 0 0.261719 0.039063 0.378906 0.117187 c 0.113281 0.074219 0.207031 0.179688 0.273438 0.308594 c 0.074219 0.125 0.109375 0.265625 0.109375 0.414063 c 0 0.152343 -0.035156 0.292969 -0.109375 0.421875 c -0.066407 0.128906 -0.160157 0.226562 -0.28125 0.300781 c -0.117188 0.074219 -0.238281 0.109375 -0.371094 0.109375 c -0.128906 0 -0.253906 -0.035156 -0.371094 -0.109375 c -0.117187 -0.074219 -0.210937 -0.171875 -0.28125 -0.300781 c -0.070312 -0.128906 -0.105469 -0.269532 -0.105469 -0.421875"/></g></svg>