
<svg xmlns="http://www.w3.org/2000/svg" xmlns:xlink="http://www.w3.org/1999/xlink" width="22px" height="22px" viewBox="0 0 22 22" version="1.1">
<g id="surface1">
<path style=" stroke:none;fill-rule:nonzero;fill:rgb(100%,54.901961%,0%);fill-opacity:1;" d="M 0.28125 13.519531 C 4.574219 34.136719 34.125 12 16.375 1.523438 C 9.476562 -2.96875 -1.929688 2.914062 0.28125 13.519531 Z M 0.28125 13.519531 "/>
<path style="fill-rule:nonzero;fill:rgb(100%,100%,100%);fill-opacity:1;stroke-width:1;stroke-linecap:butt;stroke-linejoin:miter;stroke:rgb(100%,100%,100%);stroke-opacity:1;stroke-miterlimit:4;" d="M 53.045455 868.950909 L 53.045455 928.223636 L 62.181818 928.223636 L 62.181818 898.587273 C 62.181818 887.678182 70.363636 878.814545 80.454545 878.814545 C 90.590909 878.814545 98.772727 887.678182 98.772727 898.587273 L 98.772727 928.223636 L 107.909091 928.223636 L 107.909091 898.587273 C 107.909091 882.223636 95.636364 868.950909 80.454545 868.950909 C 73.727273 868.950909 67.227273 871.678182 62.181818 876.541818 L 62.181818 868.950909 Z M 176.636364 888.678182 L 129.136364 977.632727 L 107.954545 938.041818 L 107.909091 938.041818 L 53.045455 938.087273 L 53.045455 947.950909 L 102.545455 947.905455 L 129.136364 997.314545 C 129.136364 997.314545 182.045455 898.632727 181.909091 898.541818 L 208.5 898.541818 L 208.5 888.678182 Z M 176.636364 888.678182 " transform="matrix(0.0859375,0,0,0.0859375,0,-68.437188)"/>
</g>
</svg>
