<svg xmlns="http://www.w3.org/2000/svg" viewBox="0 0 22 22"><path d="m 3.785156 4.222656 c 8.902344 -11.710937 25.269532 4.003906 14.871094 14.257813 c -8.886719 10.34375 -26.351562 -4.453125 -14.871094 -14.257813" style="fill:#ff8c00"/><g style="fill:#fff"><path d="m 5.480469 4.347656 v 11.722656 h -0.761719 v 0.839844 h 0.761719 v 0.835938 h 0.761719 v -0.835938 h 10.664062 v -0.839844 h -10.664062 v -0.835937 h 2.285156 v -0.007813 l 0.007812 0.007813 l 1.523438 -1.675781 h 1.210937 l 1.523438 1.675781 h 4.113281 v -0.839844 h -3.796875 l -1.523437 -1.671875 h -1.84375 l -1.523438 1.671875 h -1.976562 v -3.347656 h 3.808593 v -0.007813 l 0.007813 0.007813 l 0.757812 -0.835937 l -0.539062 -0.589844 l -0.535156 0.585937 h -3.5 v -5.859375 m 6.855468 2.171875 l -0.539062 0.589844 l -0.757813 0.835937 l 0.539063 0.59375 l 0.757812 -0.835937 l 0.761719 0.835937 l 0.535156 -0.59375 m 2.511719 0.589844 l -0.761719 0.835938 h 0.761719"/><path d="m 10.8125 5.183594 v 1.675781 h 0.761719 v -0.839844 h 0.761719 v -0.835937 m 1.523437 0 v 0.835937 h 0.761719 v 0.839844 h 0.761718 v -1.675781 m -4.570312 3.351562 v 1.671875 h 1.523438 v -0.835937 h -0.761719 v -0.835938 m 3.046875 0 v 0.835938 h -0.761719 v 0.835937 h 1.523437 v -1.671875"/><g style="fill-opacity:0.458824;fill-rule:evenodd"><path d="m 6.242188 15.234375 v 0.835937 h 10.664062 v -0.835937 h -4.113281 l -1.523438 -1.675781 h -1.21875 l -1.523437 1.675781"/><path d="m 13.097656 7.695312 l -1.519531 1.675782 h 0.757813 v 0.835937 h -1.519532 l -0.757812 0.839844 h -3.816406 v 3.347656 h 1.980468 l 1.523438 -1.671875 h 1.835937 l 1.515625 1.667969 l 3.808594 0.003906 v -5.023437 h -1.523438 v 0.835937 h -1.523437 v -0.835937 h 0.761719"/></g></g></svg>