<svg xmlns="http://www.w3.org/2000/svg" viewBox="0 0 22 22"><path d="m 11.238281 0.417969 c 9.578125 -1.894531 13.214844 11.113281 9.066407 18.175781 c -3.308594 5.628906 -14.632813 4.019531 -18.859376 -3.578125 c -4.222656 -7.597656 2.105469 -13.074219 9.792969 -14.597656" style="fill:#ff8c00"/><g style="stroke:#fff;stroke-linejoin:round"><path d="m 10.844544 44.487367 l 21.030944 -16.246593 l -21.030944 -16.261862" transform="matrix(-0.217314 0 0 0.255823 19.559793 3.712864)" style="fill:#fff;fill-rule:evenodd;stroke-linecap:round;stroke-width:5"/><path d="m 41.910489 6.328827 c 0.821029 0 1.565684 0.145592 2.253058 0.415977 c 0.687374 0.291184 1.260185 0.72796 1.661153 1.351926 c 0.400968 0.582368 0.610999 1.331127 0.610999 2.246277 c 0 0.686362 -0.114562 1.643109 -0.324593 2.849443 c -0.229125 1.164736 -0.362781 2.059087 -0.458249 2.662254 c 0.87831 -0.603167 1.642059 -1.185535 2.310339 -1.705506 c 0.725561 -0.56157 1.393841 -0.977547 2.043027 -1.310328 c 0.649186 -0.332782 1.298373 -0.478374 1.909372 -0.478374 c 1.279278 0 2.348526 0.478374 3.207743 1.497518 c 0.878311 0.998345 1.317467 2.163081 1.317467 3.515007 c 0 0.935948 -0.362781 1.726305 -1.069248 2.371069 c -0.687374 0.644765 -1.85209 1.310328 -3.417775 1.975892 c -1.565685 0.623966 -2.405808 0.977546 -2.52037 1.039943 c 0.114562 0.062396 0.954685 0.415977 2.52037 1.08154 c 1.603872 0.665564 2.749495 1.310329 3.417775 1.913495 c 0.706467 0.603167 1.069248 1.372725 1.069248 2.308674 c 0 1.372724 -0.439156 2.579058 -1.317467 3.598202 c -0.859217 1.039943 -1.928465 1.539116 -3.207743 1.539116 c -0.859218 0 -1.852091 -0.37438 -2.959526 -1.164736 c -1.107435 -0.790357 -2.214871 -1.559915 -3.303212 -2.329473 c 0.133656 0.873552 0.305499 1.8303 0.496436 2.828645 c 0.190937 0.998345 0.286406 1.851098 0.286406 2.55826 c 0 1.393523 -0.439156 2.433466 -1.317466 3.119828 c -0.840124 0.686363 -1.890278 1.019144 -3.207744 1.019144 c -1.279279 0 -2.348527 -0.332781 -3.207744 -1.019144 c -0.840124 -0.686362 -1.260185 -1.726305 -1.260185 -3.119828 c 0 -0.436776 0.114562 -1.28953 0.324593 -2.516662 c 0.229124 -1.227133 0.343687 -2.18388 0.400968 -2.870243 c -1.432029 1.019144 -2.386714 1.726306 -2.844964 2.079886 c -0.458249 0.332782 -1.011966 0.665564 -1.661153 0.956748 c -0.630092 0.311983 -1.221997 0.457575 -1.794809 0.457575 c -1.298372 0 -2.348526 -0.499173 -3.169556 -1.497518 c -0.782842 -0.998345 -1.18381 -2.204679 -1.18381 -3.6398 c 0 -0.998346 0.343686 -1.788702 1.011966 -2.37107 c 0.687374 -0.603167 1.79481 -1.185535 3.303213 -1.809501 c 1.527497 -0.644764 2.386714 -1.019144 2.596745 -1.123138 c -0.210031 -0.103994 -1.069248 -0.478374 -2.596745 -1.081541 c -1.48931 -0.644764 -2.577651 -1.26873 -3.303213 -1.892696 c -0.66828 -0.644764 -1.011966 -1.45592 -1.011966 -2.412667 c 0 -1.372725 0.400968 -2.537461 1.18381 -3.515007 c 0.82103 -0.998346 1.871184 -1.497518 3.169556 -1.497518 c 0.82103 0 1.565685 0.207988 2.233965 0.665563 c 0.706467 0.436776 2.062121 1.393524 4.086055 2.828645 c -0.076375 -0.603167 -0.190938 -1.559914 -0.420062 -2.870242 c -0.210031 -1.310329 -0.324593 -2.204679 -0.324593 -2.641455 c 0 -1.393524 0.420061 -2.412668 1.260185 -3.057433 c 0.859217 -0.644764 1.928465 -0.956747 3.207744 -0.956747" transform="matrix(-0.204583 0 0 0.187811 15.312456 6.959816)" style="fill:none;stroke-width:5.832"/></g></svg>