
<svg xmlns="http://www.w3.org/2000/svg" xmlns:xlink="http://www.w3.org/1999/xlink" width="22px" height="22px" viewBox="0 0 22 22" version="1.1">
<g id="surface1">
<path style=" stroke:none;fill-rule:nonzero;fill:rgb(100%,54.901961%,0%);fill-opacity:1;" d="M 10.445312 0.308594 C -19.375 13.566406 24.378906 37.390625 21.898438 7.859375 C 21.316406 3.414062 16.722656 -1.257812 10.445312 0.308594 Z M 10.445312 0.308594 "/>
<path style=" stroke:none;fill-rule:evenodd;fill:rgb(100%,100%,100%);fill-opacity:1;" d="M 5.167969 7.140625 C 4.894531 7.140625 4.671875 7.367188 4.671875 7.648438 L 4.671875 14.722656 C 4.671875 15.003906 4.894531 15.230469 5.167969 15.230469 L 15.28125 15.230469 C 15.558594 15.230469 15.78125 15.003906 15.78125 14.722656 L 15.78125 7.648438 C 15.78125 7.367188 15.558594 7.140625 15.28125 7.140625 Z M 5.167969 7.140625 "/>
<path style="fill-rule:evenodd;fill:rgb(100%,89.411765%,76.862745%);fill-opacity:1;stroke-width:3.125;stroke-linecap:round;stroke-linejoin:round;stroke:rgb(100%,100%,100%);stroke-opacity:1;stroke-miterlimit:4;" d="M 11.507406 15.312799 C 10.492997 15.312799 9.692899 16.13532 9.692899 17.156382 L 9.692899 42.838908 C 9.692899 43.859969 10.492997 44.682491 11.507406 44.682491 L 48.497641 44.682491 C 49.497763 44.682491 50.312149 43.859969 50.312149 42.838908 L 50.312149 17.156382 C 50.312149 16.13532 49.497763 15.312799 48.497641 15.312799 Z M 11.507406 15.312799 " transform="matrix(0.273404,0,0,0.275449,4.072578,2.922734)"/>
</g>
</svg>
