<svg xmlns="http://www.w3.org/2000/svg" viewBox="0 0 22 22"><path d="m 16.851562 2.351562 c -11.203124 -7.878906 -22.558593 6.671876 -13.429687 15.949219 c 8.601563 8.742188 21.96875 0.636719 17.789063 -10.242187 c -0.871094 -2.269532 -2.304688 -4.261719 -4.359376 -5.707032" style="fill:#ff8c00"/><g style="fill:#fff"><path d="m 16.988281 18.101562 c 0.015625 0 0.03125 0 0.046875 0 c 0.226563 -0.011718 0.40625 -0.195312 0.414063 -0.417968 c 0.007812 -0.226563 -0.160157 -0.421875 -0.386719 -0.445313 c 0 0 -3.214844 -0.445312 -5.496094 -1.882812 c -1.136718 -0.722657 -2.011718 -1.65625 -2.226562 -2.878907 c -0.199219 -1.101562 0.136718 -2.519531 1.449218 -4.335937 h 0.984376 v -2.597656 h -2.621094 v 1.441406 c -2.058594 0.339844 -3.285156 1.257813 -3.953125 2.207031 c -0.84375 1.191406 -0.84375 2.414063 -0.84375 2.414063 c 0 0.238281 0.195312 0.433593 0.4375 0.433593 c 0.242187 0 0.4375 -0.195312 0.4375 -0.433593 c 0 0 0 -0.945313 0.683593 -1.917969 c 0.511719 -0.726562 1.550782 -1.390625 3.238282 -1.695312 v 0.148437 h 0.71875 c -1.117188 1.710937 -1.613282 3.230469 -1.390625 4.488281 c 0.273437 1.535156 1.359375 2.664063 2.621093 3.457032 c 2.519532 1.589843 5.847657 2.011718 5.847657 2.011718 c 0.011719 0 0.027343 0.003906 0.042969 0.003906" style="fill-opacity:0.501961"/><path d="m 11.75 6.828125 v 1.257813 h -0.503906 c -0.5 0 -0.503906 0 -0.796875 0.460937 c -1.609375 2.507813 -1.589844 4.390625 0.0625 5.980469 c 1.296875 1.25 3.28125 2.113281 6.203125 2.695312 c 0.640625 0.125 0.8125 0.332032 0.546875 0.660156 l -0.171875 0.214844 l -1.015625 -0.214844 c -2.742188 -0.574218 -5.046875 -1.65625 -6.296875 -2.960937 c -1.621094 -1.695313 -1.699219 -3.566406 -0.246094 -6.097656 c 0.195312 -0.339844 0.355469 -0.636719 0.355469 -0.664063 c 0 -0.113281 -1 -0.152344 -1.390625 -0.058594 c -0.695313 0.167969 -1.703125 0.675782 -2.171875 1.09375 c -0.515625 0.457032 -0.976563 1.324219 -1.089844 2.046876 c -0.089844 0.574218 -0.273437 0.808593 -0.558594 0.714843 c -0.28125 -0.089843 -0.328125 -0.410156 -0.15625 -1.089843 c 0.238281 -0.941407 0.589844 -1.5625 1.257813 -2.226563 c 0.71875 -0.714844 1.65625 -1.21875 2.742187 -1.464844 l 0.714844 -0.160156 v -1.445313 h 2.515625"/></g></svg>