<svg xmlns="http://www.w3.org/2000/svg" viewBox="0 0 22 22"><path d="m 10.804688 21.808594 c -9.617188 1.921875 -13.269532 -11.25 -9.101563 -18.40625 c 3.320313 -5.699219 14.695313 -4.070313 18.9375 3.625 c 4.238281 7.695312 -2.117187 13.242187 -9.835937 14.78125" style="fill:#ff8c00"/><g transform="matrix(0.262114 0 0 0.244981 2.623844 3.650539)" style="stroke-linecap:round;stroke-linejoin:round"><path d="m 8.037044 16.239494 h 43.918678 c 1.341256 0 2.414261 1.084268 2.414261 2.423657 v 22.673952 c 0 1.33939 -1.073005 2.423658 -2.414261 2.423658 h -43.918678 c -1.326353 0 -2.414261 -1.084268 -2.414261 -2.423658 v -22.673952 c 0 -1.339389 1.087908 -2.423657 2.414261 -2.423657" style="fill:none;stroke:#fff;stroke-width:10"/><path d="m 8.037044 16.239494 h 43.918678 c 1.341256 0 2.414261 1.084268 2.414261 2.423657 v 22.673952 c 0 1.33939 -1.073005 2.423658 -2.414261 2.423658 h -43.918678 c -1.326353 0 -2.414261 -1.084268 -2.414261 -2.423658 v -22.673952 c 0 -1.339389 1.087908 -2.423657 2.414261 -2.423657" style="fill:#fff;stroke:#ff8c00;stroke-width:5"/></g><g style="fill:#ff8c00"><path d="m 5.773438 11.714844 l 0.792968 -0.796875 l -0.480468 -0.484375 c -0.117188 -0.117188 -0.195313 -0.195313 -0.238282 -0.238282 c -0.035156 -0.042968 -0.066406 -0.085937 -0.089844 -0.125 c -0.019531 -0.046874 -0.03125 -0.09375 -0.03125 -0.148437 c 0 -0.132813 0.046876 -0.238281 0.136719 -0.324219 c 0.09375 -0.085937 0.195313 -0.128906 0.308594 -0.128906 c 0.113281 0 0.199219 0.015625 0.265625 0.042969 c 0.0625 0.03125 0.128906 0.085937 0.195312 0.171875 l 0.496094 0.578125 l 0.496094 -0.578125 c 0.070312 -0.085938 0.136719 -0.140625 0.199219 -0.171875 c 0.0625 -0.027344 0.148437 -0.042969 0.261719 -0.042969 c 0.113281 0 0.214843 0.042969 0.308593 0.125 c 0.089844 0.085938 0.136719 0.195312 0.136719 0.328125 c 0 0.054687 -0.011719 0.105469 -0.03125 0.148437 c -0.023438 0.039063 -0.054688 0.082032 -0.09375 0.125 c -0.039062 0.042969 -0.117188 0.121094 -0.234375 0.238282 l -0.480469 0.484375 l 0.792969 0.796875 c 0.050781 0.054687 0.089844 0.109375 0.128906 0.167968 c 0.035157 0.058594 0.054688 0.125 0.054688 0.207032 c 0 0.132812 -0.046875 0.242187 -0.136719 0.320312 c -0.089844 0.082032 -0.203125 0.121094 -0.339844 0.121094 c -0.085937 0 -0.15625 -0.015625 -0.214844 -0.050781 c -0.054687 -0.035157 -0.121093 -0.09375 -0.199218 -0.171875 l -0.648438 -0.71875 l -0.652344 0.71875 c -0.066406 0.070312 -0.132812 0.128906 -0.191406 0.164062 c -0.058594 0.039063 -0.132812 0.058594 -0.222656 0.058594 c -0.132812 0 -0.246094 -0.039062 -0.335938 -0.121094 c -0.09375 -0.082031 -0.136718 -0.1875 -0.136718 -0.320312 c 0 -0.078125 0.015625 -0.144532 0.046875 -0.199219 c 0.03125 -0.054687 0.078125 -0.113281 0.136719 -0.175781 m 2.984374 0 l 0.792969 -0.796875 l -0.480469 -0.484375 c -0.117187 -0.117188 -0.195312 -0.195313 -0.238281 -0.238282 c -0.039062 -0.042968 -0.066406 -0.085937 -0.089843 -0.125 c -0.019532 -0.046874 -0.03125 -0.09375 -0.03125 -0.148437 c 0 -0.132813 0.046874 -0.238281 0.136718 -0.324219 c 0.089844 -0.085937 0.195313 -0.128906 0.308594 -0.128906 c 0.109375 0 0.199219 0.015625 0.261719 0.042969 c 0.0625 0.03125 0.128906 0.085937 0.199219 0.171875 l 0.496093 0.578125 l 0.496094 -0.578125 c 0.070313 -0.085938 0.136719 -0.140625 0.199219 -0.171875 c 0.0625 -0.027344 0.148437 -0.042969 0.257812 -0.042969 c 0.117188 0 0.21875 0.042969 0.308594 0.125 c 0.09375 0.085938 0.140625 0.195312 0.140625 0.328125 c 0 0.054687 -0.011719 0.105469 -0.035156 0.148437 c -0.019531 0.039063 -0.050781 0.082032 -0.09375 0.125 c -0.039063 0.042969 -0.113281 0.121094 -0.234375 0.238282 l -0.476563 0.484375 l 0.792969 0.796875 c 0.046875 0.054687 0.089844 0.109375 0.125 0.167968 c 0.039062 0.058594 0.054688 0.125 0.054688 0.207032 c 0 0.132812 -0.042969 0.242187 -0.132813 0.320312 c -0.09375 0.082032 -0.207031 0.121094 -0.339844 0.121094 c -0.089843 0 -0.160156 -0.015625 -0.21875 -0.050781 c -0.050781 -0.035157 -0.117187 -0.09375 -0.195312 -0.171875 l -0.652344 -0.71875 l -0.648437 0.71875 c -0.070313 0.070312 -0.132813 0.128906 -0.191407 0.164062 c -0.0625 0.039063 -0.136719 0.058594 -0.222656 0.058594 c -0.132813 0 -0.246094 -0.039062 -0.339844 -0.121094 c -0.089843 -0.082031 -0.136719 -0.1875 -0.136719 -0.320312 c 0 -0.078125 0.015626 -0.144532 0.046876 -0.199219 c 0.035156 -0.054687 0.082031 -0.113281 0.136718 -0.175781"/><path d="m 16.875 8.128906 v 5.742188 h -4.421875 v -5.742188"/></g><g transform="matrix(0.262114 0 0 0.244981 2.623844 3.650539)" style="fill:#fff;stroke:#fff;stroke-linecap:round;stroke-linejoin:round;stroke-width:3.125"><path d="m 50.376021 33.444272 h -6.870211 l 3.442557 4.384906"/><path d="m 50.376021 26.95461 h -6.870211 l 3.442557 -4.384906"/></g></svg>