<svg xmlns="http://www.w3.org/2000/svg" viewBox="0 0 22 22"><path d="m 19.789062 4.589844 c 10.855469 16.402344 -23.765624 26.503906 -19.183593 5.300781 c 1.953125 -8.761719 14.203125 -14.078125 19.183593 -5.300781" style="fill:#9acd31"/><path d="m 5.160156 17.832031 c -0.285156 -0.210937 -0.285156 -0.324219 -0.015625 -1.871093 c 0.097657 -0.570313 0.085938 -0.949219 -0.0625 -1.917969 c -0.203125 -1.328125 -0.15625 -1.859375 0.324219 -2.027344 c 0.394531 -0.132813 0.289062 -0.269531 0.199219 -3.046875 c -0.050781 -1.628906 0.015625 -3.160156 0.058593 -3.398438 c 0.050782 -0.28125 0.234376 -0.605468 0.511719 -0.894531 l 0.433594 -0.457031 h 9.070313 l 0.308593 0.34375 c 0.171875 0.1875 0.359375 0.542969 0.414063 0.792969 c 0.054687 0.25 0.101562 2.808593 0.101562 5.683593 c 0.003906 5.773438 -0.003906 5.832032 -0.691406 6.273438 c -0.351562 0.226562 -0.558594 0.238281 -3.808594 0.238281 c -2.523437 0 -3.472656 -0.039062 -3.570312 -0.140625 c -0.074219 -0.078125 -0.136719 -0.289062 -0.136719 -0.472656 c 0 -0.179688 -0.050781 -0.328125 -0.113281 -0.328125 c -0.066406 0 -0.625 0.289063 -1.246094 0.640625 c -1.398438 0.796875 -1.457031 0.816406 -1.777344 0.582031 m 7.300782 -2.632812 l 1.96875 -0.066407 l 0.027343 -4.1875 c 0.015625 -2.515624 -0.019531 -4.261718 -0.082031 -4.367187 c -0.089844 -0.148437 -0.585938 -0.175781 -3.320312 -0.175781 c -2.734376 0 -3.230469 0.027344 -3.320313 0.175781 c -0.0625 0.101563 -0.109375 1.417969 -0.109375 2.972656 c 0 2.375 -0.027344 2.820313 -0.175781 2.976563 c -0.097657 0.101562 -1.679688 -0.792969 -1.753907 -0.785156 c -1.453124 0.175781 2.292969 1.527343 2.996094 1.921874 c 1.320313 0.738282 1.472656 0.90625 1.339844 1.476563 c -0.074219 0.300781 -0.0625 0.316406 0.191406 0.222656 c 0.148438 -0.050781 1.15625 -0.128906 2.238282 -0.164062" style="fill:#fff"/><g style="fill:#9acd31;stroke:#9acd31"><path d="m 64.149295 916.480931 c -1.381191 -0.275029 -3.360897 -0.595896 -3.683175 -2.246068 c -0.184158 -0.962601 0.644556 -2.475259 1.795548 -1.925201 c 1.47327 0.550057 2.9005 1.925201 2.80842 3.529535 c -0.092079 0.412543 -0.506436 0.641734 -0.920793 0.641734" transform="matrix(0.0848453 0 0 -0.0852184 0.186141 89.772891)" style="stroke-width:0.138"/><path d="m 559.308317 -655.315313 l 36.523688 -0.027372 c 0.037972 0.026031 0.113915 0.078093 0.100046 0.17974 l 0.002741 4.392517 c 0.012051 0.063839 -0.03979 0.139456 -0.103682 0.151233 l -36.497767 -0.010437 c -0.101864 -0.014253 -0.139836 -0.040284 -0.125966 -0.141932 l -0.040714 -4.418547 c 0.051841 -0.075617 0.077762 -0.113425 0.141654 -0.125202" transform="matrix(0.069982 -0.0481823 0.0479783 0.0702845 0.186141 89.772891)" style="stroke-width:1.01"/></g></svg>