<svg xmlns="http://www.w3.org/2000/svg" viewBox="0 0 22 22"><path d="m 0.710938 14.023438 c -4.105469 -11.464844 10.65625 -17.039063 16.203124 -12.371094 c 5.542969 4.664062 7.4375 12.664062 1.15625 16.6875 c -6.28125 4.027344 -13.25 7.148437 -17.359374 -4.316406" style="fill:#ff8c00"/><path d="m 3.851562 13.226562 v -5.566406 c 0 -0.25 0.058594 -0.449218 0.183594 -0.59375 c 0.121094 -0.148437 0.265625 -0.226562 0.433594 -0.226562 h 1.484375 c 0.277344 0 0.527344 0.054687 0.75 0.15625 c 0.21875 0.105468 0.410156 0.257812 0.570313 0.460937 c 0.160156 0.199219 0.285156 0.433594 0.371093 0.707031 c 0.082031 0.273438 0.125 0.578126 0.125 0.910157 c 0 0.261719 -0.03125 0.507812 -0.089843 0.738281 c -0.054688 0.222656 -0.140626 0.421875 -0.25 0.597656 c -0.109376 0.175782 -0.246094 0.320313 -0.402344 0.4375 c -0.152344 0.117188 -0.328125 0.199219 -0.523438 0.246094 l 1.074219 1.539062 c 0.171875 0.25 0.257813 0.484376 0.257813 0.707032 c 0 0.15625 -0.054688 0.324218 -0.164063 0.496094 c -0.105469 0.171874 -0.261719 0.257812 -0.46875 0.257812 c -0.140625 0 -0.257813 -0.03125 -0.335937 -0.089844 c -0.082032 -0.0625 -0.164063 -0.167968 -0.25 -0.308594 l -1.515626 -2.542968 h -0.015624 v 2.074218 c 0 0.28125 -0.058594 0.5 -0.171876 0.648438 c -0.109374 0.148438 -0.257812 0.21875 -0.445312 0.21875 c -0.179688 0 -0.332031 -0.074219 -0.449219 -0.222656 c -0.109375 -0.152344 -0.167969 -0.367188 -0.167969 -0.644532 m 1.234376 -4.871093 v 1.589843 h 0.816406 c 0.195312 0 0.347656 -0.078124 0.460937 -0.226562 c 0.113281 -0.152344 0.171875 -0.347656 0.171875 -0.585938 c 0 -0.234374 -0.0625 -0.421874 -0.179687 -0.5625 c -0.121094 -0.144531 -0.269531 -0.214843 -0.453125 -0.214843 h -0.816406 m 6.152343 1.421875 h 1.332031 c 0.4375 0 0.65625 0.332031 0.65625 0.996094 c 0 0.480468 -0.058593 0.929687 -0.175781 1.351562 c -0.113281 0.417969 -0.277343 0.785156 -0.492187 1.09375 c -0.214844 0.304688 -0.476563 0.546875 -0.785156 0.722656 c -0.300782 0.171875 -0.640626 0.257813 -1.011719 0.257813 c -0.558594 0 -1.035157 -0.164063 -1.4375 -0.496094 c -0.402344 -0.335937 -0.710938 -0.789063 -0.921875 -1.359375 c -0.207032 -0.574219 -0.3125 -1.207031 -0.3125 -1.902344 c 0 -0.542968 0.066406 -1.042968 0.199218 -1.503906 c 0.128907 -0.457031 0.316407 -0.855469 0.558594 -1.191406 c 0.242188 -0.335938 0.527344 -0.597656 0.855469 -0.78125 c 0.328125 -0.183594 0.679687 -0.277344 1.058594 -0.277344 c 0.34375 0 0.675781 0.0625 1.003906 0.191406 c 0.328125 0.125 0.589844 0.304688 0.792969 0.539063 c 0.203125 0.238281 0.304687 0.519531 0.304687 0.835937 c 0 0.210938 -0.050781 0.378906 -0.152343 0.503906 c -0.101563 0.128907 -0.238282 0.191407 -0.402344 0.191407 c -0.117188 0 -0.277344 -0.089844 -0.488282 -0.265625 c -0.207031 -0.175782 -0.367187 -0.300782 -0.480468 -0.375 c -0.113282 -0.074219 -0.289063 -0.113282 -0.527344 -0.113282 c -0.210938 0 -0.398438 0.058594 -0.574219 0.171876 c -0.171875 0.113281 -0.324219 0.273437 -0.445312 0.484374 c -0.125 0.207032 -0.21875 0.449219 -0.285157 0.71875 c -0.0625 0.265626 -0.09375 0.554688 -0.09375 0.871094 c 0 0.390625 0.050782 0.757813 0.148438 1.101563 c 0.101562 0.339843 0.257812 0.617187 0.464844 0.832031 c 0.207031 0.210938 0.460937 0.316406 0.761718 0.316406 c 0.210938 0 0.402344 -0.058594 0.570313 -0.175781 c 0.171875 -0.117187 0.304687 -0.28125 0.410156 -0.496094 c 0.101563 -0.210937 0.160157 -0.453125 0.175781 -0.730469 h -0.707031 c -0.191406 0 -0.34375 -0.070312 -0.453125 -0.203124 c -0.109375 -0.140626 -0.164062 -0.320313 -0.164062 -0.550782 c 0 -0.242187 0.054687 -0.429687 0.160156 -0.5625 c 0.109375 -0.128906 0.261719 -0.195312 0.457031 -0.195312 m 3.734375 -1.484375 v 1.363281 h 0.5625 c 0.179688 0 0.320313 -0.054688 0.417969 -0.167969 c 0.097656 -0.121093 0.148437 -0.289062 0.148437 -0.507812 c 0 -0.21875 -0.050781 -0.386719 -0.148437 -0.503907 c -0.097656 -0.121093 -0.238281 -0.183593 -0.417969 -0.183593 h -0.5625 m -1.234375 4.925781 v -5.554688 c 0 -0.25 0.058594 -0.449218 0.183594 -0.597656 c 0.121094 -0.148437 0.265625 -0.222656 0.433594 -0.222656 h 1.457031 c 0.226562 0 0.4375 0.046875 0.625 0.136719 c 0.195312 0.085937 0.359375 0.214843 0.492188 0.382812 c 0.128906 0.164063 0.230468 0.367188 0.300781 0.605469 c 0.070312 0.234375 0.105469 0.488281 0.105469 0.761719 c 0 0.320312 -0.0625 0.59375 -0.191407 0.820312 c -0.128906 0.222657 -0.28125 0.40625 -0.457031 0.546875 c 0.328125 0.082032 0.589844 0.28125 0.789062 0.605469 c 0.199219 0.320313 0.300782 0.710937 0.300782 1.167969 c 0 0.398437 -0.070313 0.761718 -0.203125 1.085937 c -0.132813 0.328125 -0.34375 0.589844 -0.625 0.789063 c -0.28125 0.195312 -0.636719 0.292968 -1.0625 0.292968 h -1.53125 c -0.167969 0 -0.3125 -0.074218 -0.433594 -0.21875 c -0.125 -0.152343 -0.183594 -0.351562 -0.183594 -0.601562 m 1.234375 -2.109375 v 1.480469 h 0.777344 c 0.222656 0 0.40625 -0.0625 0.539062 -0.183594 c 0.136719 -0.117188 0.207032 -0.308594 0.207032 -0.5625 c 0 -0.253906 -0.074219 -0.441406 -0.21875 -0.558594 c -0.144532 -0.117187 -0.320313 -0.175781 -0.527344 -0.175781 h -0.777344" style="fill:#fff"/></svg>