<svg xmlns="http://www.w3.org/2000/svg" viewBox="0 0 22 22"><path d="m 4.558594 20.152344 c -7.570313 -4.167969 -4.6328128 -17.238282 1.605468 -19.449219 c 7.429688 -2.636719 21.535157 4.222656 13.273438 15.839844 c -2.886719 3.910156 -7.300781 7.78125 -14.878906 3.609375" style="fill:#ff8c00"/><path d="m 9.328125 4.019531 l -4.238281 12.761719 h 2.121094 l 0.898437 -2.734375 h 2.9375 c 0.15625 -1.4375 1.1875 -2.582031 2.519531 -2.789063 l -2.542968 -7.238281 m -0.847657 3.644531 l 1.484375 4.558594 h -2.964844 m 5.296876 -0.910156 v 0.78125 c -1.167969 0 -2.117188 1.046875 -2.117188 2.34375 c 0 1.292969 0.949219 2.34375 2.117188 2.34375 c 1.160156 0 2.101562 -1.03125 2.121093 -2.304688 c 0 -0.015624 0 -0.027343 0 -0.039062 c 0 -0.214844 -0.160156 -0.390625 -0.351562 -0.390625 c -0.097657 0 -0.183594 0.039063 -0.25 0.109375 c -0.066407 0.074219 -0.105469 0.175781 -0.105469 0.28125 c 0 0.859375 -0.632812 1.5625 -1.414062 1.5625 c -0.78125 0 -1.410157 -0.703125 -1.410157 -1.5625 c 0 -0.863281 0.628907 -1.5625 1.410157 -1.5625 v 0.78125 l 1.414062 -1.171875" style="fill-opacity:0.501961"/><g transform="scale(0.0859375)" style="fill:#fff;stroke:#fff;fill-rule:evenodd;stroke-width:5.535"><path d="m 60.181818 194.409091 c 0 -0.409091 10.954546 -33.681818 24.363637 -73.863636 l 24.363636 -73.09091 l 9.636364 0.272728 l 9.681818 0.272727 l 9.045454 25.818182 c 21.409091 60.954545 20.045455 56.681818 18.136364 57.272727 c -13.136364 4.090909 -23.727273 15.090909 -26.272727 27.409091 l -0.818182 3.772727 l -17.136364 0.272728 l -17.181818 0.272727 l -5.363636 16.181818 l -5.363637 16.136364 h -11.545454 c -6.363637 0 -11.545455 -0.363637 -11.545455 -0.772728 m 75.818182 -52.545454 c 0 -1.318182 -16.863636 -51.818182 -17.454545 -52.454546 c -0.318182 -0.318181 -4.272728 10.909091 -8.863637 25 c -4.545454 14.045455 -8.454545 26.136364 -8.772727 26.909091 c -0.409091 1.045455 3.045454 1.272728 17.318182 1.272728 c 9.772727 0 17.772727 -0.318182 17.772727 -0.727273"/><path d="m 157.954545 194.045455 c -15.045454 -3.545455 -23.5 -23 -16.5 -37.818182 c 3.909091 -8.272728 12.318182 -14.681818 19.272728 -14.681818 c 2.181818 0 2.5 -0.454546 2.772727 -4.227273 l 0.318182 -4.181818 l 6.590909 5.363636 c 3.590909 3 6.909091 5.727273 7.318182 6.090909 c 0.454545 0.363636 -2.590909 3.5 -6.772728 6.909091 l -7.636363 6.272727 v -8.409091 l -3.545455 0.590909 c -15.636363 2.545455 -18.590909 27.318182 -4.181818 34.772728 c 3.772727 1.954545 10.727273 1.909091 14.590909 -0.090909 c 5.363637 -2.772728 7.727273 -6.863637 9.772727 -16.909091 c 0.59091 -3.090909 3.227273 -4.454546 5.227273 -2.818182 c 4.454546 3.681818 -1.454545 19.863636 -9.181818 25.181818 c -3.545455 2.409091 -11.454545 5.272727 -13.681818 4.909091 c -0.318182 0 -2.272727 -0.454545 -4.363637 -0.954545"/></g></svg>