<svg xmlns="http://www.w3.org/2000/svg" viewBox="0 0 22 22"><path d="m 0.308594 10.449219 c 13.257812 -29.824219 37.082031 13.929687 7.550781 11.449219 c -4.445313 -0.582032 -9.117187 -5.175782 -7.550781 -11.449219" style="fill:#ff8c00"/><g style="fill:#fff"><path d="m 4.136719 11.078125 v 6.171875 h 0.851562 v -6.171875 m 0.855469 0 v 6.171875 h 0.855469 v -5.398438 h 0.851562 c 0.941407 0 1.707031 0.691407 1.707031 1.539063 v 3.859375 h 0.855469 v -3.859375 c 0 -1.273437 -1.148437 -2.3125 -2.5625 -2.3125 m 5.121094 0 v 6.171875 h 0.855469 v -6.171875 m 0.851562 0 v 6.171875 h 0.855469 v -3.085938 c 0 -1.277343 1.144531 -2.3125 2.558594 -2.3125 v -0.773437 c -0.980469 0.003906 -1.914063 0.382813 -2.558594 1.050781 v -1.050781"/><path d="m 10.113281 4.910156 l -3.414062 2.3125 l 3.414062 2.316406 m 2.558594 -4.628906 v 4.628906 l 3.414063 -2.316406"/></g></svg>