<svg xmlns="http://www.w3.org/2000/svg" viewBox="0 0 22 22"><path d="m 8.617188 21.941406 c -1.292969 -0.113281 -2.707032 -0.441406 -3.753907 -0.867187 c -3.648437 -1.488281 -5.347656 -4.511719 -4.683593 -8.335938 c 0.355468 -2.054687 1.375 -4.378906 3 -6.835937 c 1.933593 -2.9375 4.925781 -5.160156 7.695312 -5.722656 c 0.585938 -0.117188 1.691406 -0.1601568 2.28125 -0.0898442 c 1.972656 0.2500002 3.617188 1.3203122 5.125 3.3320312 c 1.441406 1.925781 2.511719 3.886719 3.113281 5.710937 c 1.242188 3.75 0.492188 7.09375 -2.132812 9.515626 c -1.84375 1.699218 -4.34375 2.785156 -7.40625 3.21875 c -0.460938 0.0625 -2.761719 0.117187 -3.234375 0.078124" style="fill:#ff8c00"/><path d="m 6.75 6.488281 l -0.390625 0.710938 l -0.707031 0.390625 l 0.707031 0.386718 l 0.390625 0.710938 l 0.390625 -0.710938 l 0.707031 -0.386718 l -0.707031 -0.390625 m 3.273437 -0.710938 l -0.390624 0.710938 l -0.707032 0.390625 l 0.707032 0.386718 l 0.390624 0.710938 l 0.390626 -0.710938 l 0.710937 -0.386718 l -0.710937 -0.390625 m 4.496093 -0.710938 l -9.648437 9.652344 l 2.070312 2.074219 l 9.652344 -9.652344 m -2.121094 -0.984375 l 1.035156 1.035156 l -2.269531 2.269531 l -1.039062 -1.035156 m -4.765625 -0.425781 l -0.386719 0.710937 l -0.710937 0.386719 l 0.710937 0.390625 l 0.386719 0.710938 l 0.390625 -0.710938 l 0.710937 -0.390625 l -0.710937 -0.386719" style="fill:#fff"/></svg>