<svg xmlns="http://www.w3.org/2000/svg" viewBox="0 0 22 22"><g style="fill:#ff8c00"><path d="m 4.535156 2.148438 c 16.539063 -11 26.726563 24.066406 5.347656 19.425781 c -8.839843 -1.980469 -14.199218 -14.382813 -5.347656 -19.425781"/><path d="m 11.1875 4.644531 c 0.007812 0 0.023438 0.003907 0.035156 0.003907 c 0.121094 0.003906 0.242188 0.0625 0.304688 0.144531 l 1.792968 2.464843 l 1.796876 2.460938 c 0.066406 0.09375 0.066406 0.207031 0 0.300781 c -0.066407 0.089844 -0.195313 0.144531 -0.328126 0.144531 h -1.996093 v 5.601563 c 0 0.375 -0.304688 0.675781 -0.675781 0.675781 h -1.828126 c -0.375 0 -0.675781 -0.300781 -0.675781 -0.675781 v -5.601563 h -2 c -0.128906 0 -0.257812 -0.054687 -0.324219 -0.144531 c -0.066406 -0.09375 -0.066406 -0.207031 -0.003906 -0.300781 l 1.796875 -2.460938 l 1.792969 -2.464843 c 0.0625 -0.085938 0.1875 -0.140625 0.3125 -0.148438"/><path d="m 11.1875 4.644531 c 0.011719 0 0.023438 0.003907 0.035156 0.003907 c 0.125 0.003906 0.246094 0.0625 0.308594 0.148437 l 1.792969 2.460937 l 1.792969 2.464844 c 0.066406 0.089844 0.066406 0.207032 0 0.296875 c -0.066407 0.089844 -0.195313 0.144531 -0.324219 0.144531 h -2 v 5.605469 c 0 0.371094 -0.304688 0.671875 -0.675781 0.671875 h -0.933594 v -11.796875 c 0 0 0 0 0.003906 0"/></g><g style="fill:#fff"><path d="m 9.398438 16.34375 v -6.8125 c 0 -0.851562 1.078124 -0.851562 1.078124 -0.851562 h 5.507813 c 0.9375 0 0.9375 0.851562 0.9375 0.851562 v 6.8125 c 0 0.851562 -0.9375 0.851562 -0.9375 0.851562 h -5.644531 c 0 0 -0.941406 0 -0.941406 -0.851562 m 0.941406 -0.027344 l 5.644531 0.027344 v -6.8125 l -5.644531 -0.027344"/><path d="m 8.308594 6.976562 c -0.265625 0.039063 -0.792969 0.210938 -0.792969 0.847657 v 6.816406 c 0 0.851563 0.9375 0.851563 0.9375 0.851563 v -7.667969 h 6.585937 c 0 0 0 -0.847657 -0.941406 -0.847657 h -5.644531 c 0 0 -0.058594 -0.015624 -0.144531 0"/><path d="m 6.425781 5.28125 c -0.261719 0.039062 -0.792969 0.210938 -0.792969 0.851562 v 6.8125 c 0 0.851563 0.941407 0.851563 0.941407 0.851563 v -7.664063 l 5.640625 -0.007812 h 0.941406 c 0 0 0 -0.859375 -0.941406 -0.851562 l -5.640625 0.007812 c 0 0 -0.058594 -0.015625 -0.148438 0"/></g></svg>