<svg xmlns="http://www.w3.org/2000/svg" viewBox="0 0 22 22"><path d="m 0.710938 14.023438 c -4.105469 -11.464844 10.65625 -17.039063 16.199218 -12.371094 c 5.546875 4.664062 7.441406 12.664062 1.160156 16.691406 c -6.28125 4.023438 -13.25 7.144531 -17.359374 -4.320312" style="fill:#ff8c00"/><path d="m 5.449219 5.585938 v 4 h 1.425781 v -1.515626 l 1.480469 1.515626 l 1.007812 -1.027344 l -1.484375 -1.515625 h 1.484375 v -1.457031 m 2.839844 0 v 1.457031 h 1.484375 l -1.484375 1.515625 l 1.007813 1.027344 l 1.484374 -1.515626 v 1.515626 h 1.417969 v -4 m -10.664062 6.914062 v 4 h 3.914062 v -1.453125 h -1.484375 l 1.484375 -1.519531 l -1.007812 -1.027344 l -1.480469 1.515625 v -1.515625 m 6.335938 0 l -1.007813 1.027344 l 1.484375 1.519531 h -1.484375 v 1.453125 h 3.910156 v -4 h -1.417969 v 1.515625" style="fill:#fff"/></svg>