<svg xmlns="http://www.w3.org/2000/svg" viewBox="0 0 24 24"><path d="m 0.335938 11.398438 c 14.464843 -32.53125 40.453124 15.195312 8.234374 12.492187 c -4.851562 -0.632813 -9.945312 -5.648437 -8.234374 -12.492187" style="fill:#ff8c00"/><g style="fill:#fff;fill-rule:evenodd"><path d="m 10.511719 9.257812 l 1.9375 -1.820312 c 0.253906 -0.242188 0.648437 -0.21875 0.878906 0.039062 l 0.085937 0.097657 c 0.230469 0.261719 0.210938 0.671875 -0.042968 0.910156 l -1.933594 1.820313 c -0.257812 0.242187 -0.648438 0.21875 -0.882812 -0.042969 l -0.085938 -0.097657 c -0.230469 -0.257812 -0.210938 -0.667968 0.042969 -0.90625"/><path d="m 14.0625 12.542969 l 1.9375 -1.824219 c 0.257812 -0.234375 0.648438 -0.21875 0.882812 0.046875 l 0.085938 0.09375 c 0.230469 0.265625 0.210938 0.671875 -0.042969 0.910156 l -1.9375 1.824219 c -0.253906 0.234375 -0.648437 0.21875 -0.878906 -0.046875 l -0.085937 -0.09375 c -0.230469 -0.265625 -0.210938 -0.671875 0.039062 -0.910156"/><path d="m 8.640625 7.515625 c -0.304687 0.21875 -0.609375 0.460937 -0.875 0.746094 c -2.335937 2.460937 -2.179687 6.316406 0.351563 8.613281 c 2.53125 2.296875 6.484374 2.171875 8.820312 -0.289062 c 0.265625 -0.28125 0.492188 -0.59375 0.695312 -0.90625"/></g></svg>