<svg xmlns="http://www.w3.org/2000/svg" viewBox="0 0 24 24"><path d="m 21.527344 18.359375 c 8.628906 -12.273437 -7.308594 -24.710937 -17.472656 -14.710937 c -9.578126 9.421874 -0.699219 24.0625 11.21875 19.488281 c 2.488281 -0.957031 4.671874 -2.523438 6.253906 -4.777344" style="fill:#ff8c00"/><g style="fill:none;stroke-linecap:round;stroke-linejoin:round"><path d="m 5.967633 13.049998 l 15.103614 17.917617 l 17.85155 -2.367164 l 13.458864 17.571647" transform="matrix(0.194748 0 0 0.214524 6.025313 5.548125)" style="stroke:#fff;stroke-width:8.125"/><path d="M 6.829359 13.402249 L 21.775291 31.21124 L 39.41704 28.858426 L 52.737552 46.323543 " transform="matrix(0.197065 0 0 0.215832 5.83777 5.455022)" style="stroke-dasharray:3.09713 3.09713;stroke:#ff8c00;stroke-width:3.097"/><path d="m 5.586532 27.890301 l 21.482033 16.460901 l 17.671029 -7.228958 l 9.106296 -17.025378" transform="matrix(0.194748 0 0 0.214524 6.025313 5.548125)" style="stroke:#fff;stroke-width:8.125"/><path d="m 6.492382 28.152582 l 21.229566 16.379203 l 17.443527 -7.20323 l 8.999274 -16.92216" transform="matrix(0.197065 0 0 0.215832 5.83777 5.455022)" style="stroke-dasharray:3.09713 3.09713;stroke:#ff8c00;stroke-width:3.097"/><path d="m -0.129975 -0.0240358 v 57.0304648 h 63.66384" transform="matrix(0.194748 0 0 0.214524 6.025313 5.548125)" style="stroke:#fff;stroke-width:6.18"/></g></svg>