<svg xmlns="http://www.w3.org/2000/svg" viewBox="0 0 24 24"><path d="m 23.648438 14.492188 c -1.859376 12.367187 -20.363282 12.734374 -23.15625 0.71875 c -2.882813 -9.730469 7.539062 -17.683594 15.335937 -14.496094 c 5.222656 1.503906 9.4375 7.667968 7.820313 13.777344" style="fill:#ff8c00"/><path d="m 54.377265 7.423383 c 0 -1.003395 -0.792469 -1.80611 -1.790979 -1.80611 h -45.154836 c -0.99851 0 -1.790978 0.802715 -1.790978 1.80611 v 45.169497 c 0 0.986671 0.792468 1.789387 1.790978 1.789387 h 45.154836 c 0.99851 0 1.790979 -0.802716 1.790979 -1.789387" transform="matrix(0.246461 0 0 0.233582 4.605937 5.043375)" style="fill:none;stroke:#fff;stroke-linecap:round;stroke-linejoin:round;stroke-width:10"/><g style="fill:#fff;fill-rule:evenodd"><path d="m 18.007812 7.207031 v 10.550781 c 0 0.234376 -0.195312 0.417969 -0.4375 0.417969 h -11.136718 c -0.242188 0 -0.441406 -0.183593 -0.441406 -0.417969 v -10.550781 c 0 -0.230469 0.199218 -0.417969 0.441406 -0.417969 h 11.136718 c 0.242188 0 0.4375 0.1875 0.4375 0.417969"/><g transform="matrix(0.230439 0 0 0.218396 5.00619 5.411734)" style="stroke:#ff8c00;stroke-linecap:round;stroke-linejoin:round;stroke-width:3.342"><path d="m 50.199959 55.922446 c -1.949405 -6.06337 -5.119305 -11.929993 -10.323367 -15.149481 c -5.237964 -0.232519 -11.815084 0 -18.188789 0 c -5.627845 2.986969 -9.052015 8.960909 -11.187884 15.149481"/><path d="m 46.487615 28.932402 c 0 8.925137 -7.238223 16.1511 -16.137676 16.1511 c -8.916406 0 -16.137677 -7.243849 -16.137677 -16.1511 c 0 -8.907252 7.221271 -16.151101 16.137677 -16.151101 c 8.899453 0 16.137676 7.243849 16.137676 16.151101"/></g></g><g style="stroke:#ff8c00;stroke-linecap:round;stroke-linejoin:round"><path d="m 6.235008 -56.213612 c -1.055276 0 -1.913807 0.864519 -1.913807 1.915502 v 48.311321 c 0 1.067934 0.858531 1.932452 1.913807 1.932452 h 48.328099 c 1.055276 0 1.913807 -0.864518 1.913807 -1.932452 v -48.311321 c 0 -1.050983 -0.858531 -1.915502 -1.913807 -1.915502" transform="matrix(0 0.218396 -0.230439 0 5.054004 5.411734)" style="stroke-dasharray:5.34763 5.34763;fill:none;stroke-width:5.348"/><g transform="matrix(0.246461 0 0 0.233582 4.862503 5.211087)" style="fill:#fff;fill-rule:evenodd;stroke-width:1.875"><path d="m 21.621688 20.167599 c -0.190193 0 -0.348686 0.150509 -0.348686 0.351188 l -0.01585 15.017478 c 0 0.317741 0.25359 0.56859 0.570577 0.56859 h 13.345164 c 0.316988 0 0.570578 -0.250849 0.570578 -0.56859 v -13.244814 c 0 -0.317742 -0.25359 -0.585314 -0.570578 -0.585314 h -5.277838 v -1.18735 c 0 -0.183956 -0.158493 -0.351188 -0.348686 -0.351188"/><path d="m 25.964413 24.950448 c -0.316987 0 -0.665673 0.234125 -0.776619 0.535144 l -3.898943 10.117566 c -0.110946 0.284295 0.047548 0.535144 0.364535 0.535144 h 13.345164 c 0.316988 0 0.665674 -0.250849 0.792469 -0.535144 l 3.883094 -10.117566 c 0.126795 -0.301019 -0.047548 -0.535144 -0.364536 -0.535144"/></g></g></svg>