<svg xmlns="http://www.w3.org/2000/svg" viewBox="0 0 24 24"><path d="m 23.910156 6.859375 c 2.402344 34.515625 -44.023437 8.644531 -13.453125 -6.015625 c 4.710938 -2.023438 11.738281 -0.546875 13.453125 6.015625" style="fill:#ff8c00"/><path d="m 6.570312 6.539062 v 11.65625 h 12.09375 v -11.65625 h -1.515624 v 2.1875 h -1.507813 v -2.1875 h -6.046875 v 2.1875 h -1.515625 v -2.1875 m -0.753906 2.914063 h 10.582031 v 8.015625 h -10.582031 m 1.511719 -7.285156 v 1.457031 h 1.511718 v -1.457031 m 1.511719 0 v 1.457031 h 1.511719 v -1.457031 m 1.511718 0 v 1.457031 h 1.511719 v -1.457031 m -7.558593 2.183594 v 1.460937 h 1.511718 v -1.460937 m 1.511719 0 v 1.460937 h 1.511719 v -1.460937 m 1.511718 0 v 1.460937 h 1.511719 v -1.460937 m -1.511719 2.1875 v 1.457031 h 1.511719 v -1.457031" style="fill:#fff"/></svg>