<svg xmlns="http://www.w3.org/2000/svg" viewBox="0 0 24 24"><path d="m 18.179688 2.980469 c 21.25 19.757812 -22.617188 32.207031 -17.777344 5.976562 c 2.386718 -6.917969 10.949218 -12.320312 17.777344 -5.976562" style="fill:#ff8c00"/><g style="fill:#fff"><path d="m 5.742188 12.304688 v 1.109374 h 13.125 v -1.109374"/><path d="m 7.929688 5.640625 v 5.554687 h 2.1875 v -3.332031 h 2.1875 c 2.097656 -0.03125 2.1875 1.109375 2.1875 1.667969 c 0 0.554688 -0.089844 1.695312 -2.1875 1.664062 h 4.042968 c 0.328125 -0.6875 0.339844 -1.445312 0.332032 -1.664062 c 0 -1.667969 -1.09375 -3.890625 -3.28125 -3.890625 m -5.46875 8.886719 v 4.441406 h 5.46875 c 2.941406 0 3.28125 -2.21875 3.28125 -3.886719 c 0 -0.105469 -0.007813 -0.308593 -0.046876 -0.554687 h -2.207031 c 0.054688 0.207031 0.066407 0.402344 0.066407 0.554687 c 0 0.554688 -0.089844 1.695313 -2.1875 1.667969 h -2.1875 v -2.222656"/></g></svg>