<svg xmlns="http://www.w3.org/2000/svg" viewBox="0 0 24 24"><path d="m 11.789062 0.207031 c -10.492187 -2.097656 -14.476562 12.277344 -9.929687 20.082031 c 3.621094 6.21875 16.03125 4.4375 20.65625 -3.953124 c 4.625 -8.398438 -2.304687 -14.445313 -10.726563 -16.128907" style="fill:#ff8c00"/><path d="m 11.984375 11.203125 h 5.929687 c -0.007812 0.070313 -0.023437 1.9375 -0.050781 2.703125 c -0.097656 2.554688 -1.683593 3.476562 -6.375 3.699219 c -2.253906 0 -3.640625 -0.492188 -4.832031 -1.480469 c -1.179688 -0.984375 -1.777344 -2.40625 -1.777344 -4.253906 c 0 -1.796875 0.355469 -3.214844 1.707032 -4.339844 c 1.285156 -1.0625 2.878906 -1.65625 5.324218 -1.648438 c 3.964844 0.015626 5.449219 1.550782 5.773438 3.601563 l -2.894532 0.054687 c -0.210937 -0.96875 -0.957031 -1.792968 -2.773437 -1.804687 c -3.328125 -0.023437 -3.898437 1.976563 -3.914063 4.015625 c -0.015624 1.820312 0.929688 3.808594 3.257813 3.839844 c 3 -0.042969 3.546875 -0.265625 3.429687 -2.425782 h -2.804687" style="fill:#fff"/></svg>