<svg xmlns="http://www.w3.org/2000/svg" viewBox="0 0 24 24"><path d="m 19.832031 20.585938 c 18.761719 -24.867188 -32.867187 -28.402344 -16.300781 -3.015626 c 3.78125 5.785157 11.332031 9.601563 16.300781 3.015626" style="fill:#ff8c00"/><g style="fill:#fff"><path d="m 31.433497 1.976703 c -14.550995 0 -26.36563 11.584247 -26.36563 25.863998 c 0 9.819335 5.601489 18.387186 13.810568 22.783424 c -13.166719 4.845488 -22.502534 19.702847 -22.502534 58.017505 c 19.894944 9.56262 47.258541 8.343226 70.243962 1.219395 c 0 -38.73182 -9.464585 -54.134697 -22.695689 -59.140632 c 8.305657 -4.33206 14.003723 -12.996178 14.003723 -22.879692 c 0 -14.279751 -11.943405 -25.863998 -26.4944 -25.863998" transform="matrix(-0.121341 0 0 0.121731 18.279 5.142188)" style="stroke:#fff;stroke-linecap:round;stroke-linejoin:round;stroke-width:2.843"/><path d="M 5.117188 4.453125 C 5.636719 4.066406 6.34375 3.90625 7.101562 4.058594 C 7.859375 4.207031 8.515625 4.636719 8.984375 5.222656 C 9.453125 5.808594 9.71875 6.53125 9.679688 7.273438 C 9.625 8.375 8.882812 9.179688 7.898438 9.40625 L 7.757812 13.445312 L 7.148438 13.898438 L 6.757812 13.824219 L 5.910156 12.769531 L 5.921875 12.078125 L 6.28125 11.8125 L 5.953125 10.6875 L 6.308594 10.421875 L 5.621094 9.5625 L 5.71875 8.976562 C 4.777344 8.367188 4.15625 7.3125 4.21875 6.210938 C 4.257812 5.46875 4.59375 4.84375 5.117188 4.457031 Z M 5.945312 4.75 C 5.554688 5.042969 5.539062 5.664062 5.921875 6.140625 C 6.296875 6.609375 6.929688 6.757812 7.320312 6.460938 C 7.714844 6.171875 7.726562 5.546875 7.347656 5.074219 C 6.96875 4.601562 6.339844 4.453125 5.945312 4.75 Z M 5.945312 4.75 "/></g></svg>