<svg xmlns="http://www.w3.org/2000/svg" viewBox="0 0 24 24"><path d="m 2.597656 18.992188 c -11.894531 -17.890626 24.511719 -28.148438 21.015625 -5.78125 c -2.140625 9.558593 -15.558593 15.359374 -21.015625 5.78125" style="fill:#ff8c00"/><path d="m 8.835938 4.800781 v 3.316407 h 0.859374 v -2.492188 h 1.710938 v 2.492188 h 0.859375 v -2.492188 h 1.710937 v 2.492188 h 2.570313 v -2.492188 h 0.5 l 1.210937 1.179688 v 7.121093 h -1.710937 v 0.828125 h 2.570313 v -8.292968 h -0.003907 l -1.710937 -1.660157 m -11.988282 4.144531 v 9.957032 h 10.273438 v -8.296875 l -1.710938 -1.65625 v -0.003907 m -7.707031 0.828126 h 1.714844 v 3.320312 h 5.136719 v -3.320312 h 0.496094 l 1.21875 1.179687 v 7.121094 h -1.714844 v -3.320313 h -5.136719 v 3.320313 h -1.714844 m 2.566407 -8.300781 h 1.714843 v 2.492187 h -1.714843 m 0 3.320313 h 3.429687 v 2.488281 h -3.429687" style="fill:#fff"/></svg>