<svg xmlns="http://www.w3.org/2000/svg" viewBox="0 0 24 24"><g style="fill:#ffd600"><path d="m 21.527344 18.359375 c 8.628906 -12.273437 -7.308594 -24.710937 -17.472656 -14.710937 c -9.578126 9.421874 -0.699219 24.0625 11.21875 19.488281 c 2.488281 -0.957031 4.671874 -2.523438 6.253906 -4.777344"/><g style="stroke:#ff4500;fill-rule:evenodd"><g style="stroke-linejoin:round"><path d="m 29.870538 2.595278 c -3.386704 0 -6.10717 3.566967 -6.10717 8.004937 v 39.236631 c 0 4.43797 2.720466 7.991111 6.10717 7.991111 c 3.386703 0 6.12105 -3.553141 6.12105 -7.991111 v -39.236631 c 0 -4.43797 -2.734347 -8.004937 -6.12105 -8.004937" transform="matrix(0.281432 0 0 0.282541 3.581771 3.614385)" style="stroke-width:3.452"/><path d="m 56.499767 30.473915 c 0 -3.142408 -3.309312 -5.681986 -7.429856 -5.681986 h -36.389555 c -4.120544 0 -7.429856 2.539578 -7.429856 5.681986 c 0 3.155234 3.309312 5.66916 7.429856 5.66916 h 36.389555 c 4.120544 0 7.429856 -2.513926 7.429856 -5.66916" transform="matrix(0.303358 0 0 0.304553 2.887688 3.015938)" style="stroke-width:3.203"/><g transform="matrix(0.281432 0 0 0.282541 3.581771 3.614385)" style="stroke-width:3.452"><path d="m 49.399602 49.753894 c 2.401228 -2.391803 1.804391 -6.857424 -1.332474 -9.981976 l -27.745983 -27.747682 c -3.136865 -3.138377 -7.592323 -3.732872 -9.979671 -1.341068 c -2.401228 2.391803 -1.804391 6.857424 1.318593 9.981976 l 27.759864 27.761506 c 3.122984 3.124552 7.578442 3.719047 9.979671 1.327244"/><path d="m 10.341474 49.753894 c 2.387348 2.391803 6.842806 1.797308 9.979671 -1.327244 l 27.745983 -27.761506 c 3.136865 -3.124552 3.733702 -7.590173 1.332474 -9.981976 c -2.401229 -2.391804 -6.842807 -1.797309 -9.979671 1.341068 l -27.745984 27.747682 c -3.136864 3.124552 -3.719821 7.590173 -1.332473 9.981976"/></g></g><path d="m 53.083738 33.733881 c 0 -11.143314 -9.021956 -20.157509 -20.153661 -20.157509 c -11.131705 0 -20.153661 9.014195 -20.153661 20.157509 c 0 11.115663 9.021956 20.143683 20.153661 20.143683 c 11.131705 0 20.153661 -9.02802 20.153661 -20.143683" transform="matrix(0.281432 0 0 0.282541 2.771501 2.750062)"/><path d="m 30.162231 2.757563 c -15.103151 0 -27.34895 12.240606 -27.34895 27.332008 c 0 15.10922 12.245799 27.385461 27.34895 27.385461 c 15.103152 0 27.331203 -12.276241 27.331203 -27.385461 c 0 -15.091402 -12.228051 -27.332008 -27.331203 -27.332008 m 10.559783 9.24727 c 0.621164 0 1.206832 0.213809 1.686016 0.677064 c 0.496931 0.445437 0.940619 1.158136 1.348812 2.102462 c 0.887377 2.04901 1.597278 4.365282 2.094209 6.948816 c 0.496931 2.547899 0.763144 5.167068 0.780892 7.804054 c 0.017747 2.405359 -0.177476 4.792901 -0.603416 7.180443 c -0.408194 2.369724 -1.01161 4.668179 -1.792501 6.824093 c -0.496931 1.282859 -1.01161 2.209367 -1.508541 2.779527 c -0.496931 0.552341 -1.064852 0.819603 -1.757006 0.837421 c -0.763144 0.017817 -1.402055 -0.231627 -1.845743 -0.659247 c -0.425941 -0.409802 -0.603416 -0.997778 -0.621164 -1.781747 c 0 -0.160358 0.443689 -1.870835 1.36656 -5.202703 c 0.94062 -3.331868 1.402056 -6.663736 1.384308 -9.959969 c -0.017748 -3.296233 -0.514678 -6.592467 -1.50854 -9.8887 c -0.976115 -3.331868 -1.473046 -5.07798 -1.473046 -5.202703 c 0 -0.783969 0.212971 -1.371945 0.638912 -1.799565 c 0.42594 -0.445437 1.029356 -0.659246 1.810248 -0.659246 m -19.025357 1.40758 c 3.123566 0 5.643716 2.547899 5.643716 5.683775 c 0 3.118058 -2.52015 5.665958 -5.643716 5.665958 c -3.123566 0 -5.661463 -2.5479 -5.661463 -5.665958 c 0 -3.135876 2.537897 -5.683775 5.661463 -5.683775 m 0 22.396568 c 3.123566 0 5.643716 2.565716 5.643716 5.683775 c 0 3.135875 -2.52015 5.665957 -5.643716 5.665957 c -3.123566 0 -5.661463 -2.530082 -5.661463 -5.665957 c 0 -3.118059 2.537897 -5.683775 5.661463 -5.683775" transform="matrix(0 0.220101 -0.219237 0 18.592841 5.560481)" style="stroke-linecap:round;stroke-linejoin:round;stroke-width:4.432"/></g></g></svg>