<svg xmlns="http://www.w3.org/2000/svg" viewBox="0 0 24 24"><path d="m 21.527344 18.359375 c 8.628906 -12.273437 -7.308594 -24.710937 -17.472656 -14.710937 c -9.578126 9.421874 -0.699219 24.0625 11.21875 19.488281 c 2.488281 -0.957031 4.671874 -2.523438 6.253906 -4.777344" style="fill:#ff8c00"/><path d="m 29.426734 17.722793 c 0.631842 0 1.216127 0.106792 1.746059 0.313255 c 0.54352 0.213582 0.985131 0.555314 1.297655 1.018076 c 0.319318 0.441404 0.482374 1.018077 0.482374 1.71578 c 0 0.526837 -0.088322 1.253018 -0.258172 2.157184 c -0.16985 0.889927 -0.285348 1.566271 -0.346494 2.036153 c 0.672606 -0.469882 1.277272 -0.897047 1.807205 -1.302853 c 0.550314 -0.427165 1.080246 -0.754659 1.589797 -0.989599 c 0.50955 -0.24918 1.005512 -0.37733 1.494681 -0.37733 c 0.991924 0 1.827587 0.37733 2.506987 1.146227 c 0.6794 0.761777 1.019101 1.651705 1.019101 2.669781 c 0 0.719061 -0.278554 1.317093 -0.828869 1.808332 c -0.550314 0.484121 -1.440329 0.98248 -2.663249 1.487959 c -1.229715 0.491239 -1.888734 0.754658 -1.977056 0.797374 c 0.088322 0.042717 0.747341 0.320374 1.977056 0.825853 c 1.243302 0.505478 2.140111 0.996718 2.663249 1.45948 c 0.550315 0.448524 0.828869 1.025197 0.828869 1.744258 c 0 1.039435 -0.339701 1.95784 -1.019101 2.740975 c -0.6794 0.783136 -1.515063 1.174704 -2.506987 1.174704 c -0.679401 0 -1.453917 -0.299015 -2.32355 -0.897046 c -0.862838 -0.583792 -1.725677 -1.181824 -2.568133 -1.772735 c 0.10191 0.676344 0.230996 1.395406 0.380464 2.157183 c 0.149468 0.761778 0.224202 1.409645 0.224202 1.943601 c 0 1.053674 -0.3397 1.843929 -1.025895 2.377886 c -0.652224 0.505478 -1.487887 0.761777 -2.506987 0.761777 c -0.998719 0 -1.827587 -0.256299 -2.513782 -0.761777 c -0.652224 -0.533957 -0.978336 -1.324212 -0.978336 -2.377886 c 0 -0.341732 0.081528 -0.982479 0.251378 -1.908004 c 0.16985 -0.932643 0.27176 -1.665943 0.319318 -2.19278 c -1.121011 0.783136 -1.868351 1.309973 -2.221639 1.58763 c -0.360082 0.24918 -0.801693 0.498359 -1.304449 0.726181 c -0.482374 0.23494 -0.957955 0.35597 -1.399565 0.35597 c -1.012306 0 -1.841175 -0.384448 -2.473017 -1.146226 c -0.618255 -0.761778 -0.923985 -1.680182 -0.923985 -2.769453 c 0 -0.754659 0.264966 -1.366928 0.794899 -1.808332 c 0.529932 -0.448524 1.385976 -0.897047 2.568133 -1.366929 c 1.188951 -0.48412 1.868351 -0.768897 2.031407 -0.85433 c -0.163056 -0.085433 -0.842456 -0.355971 -2.031407 -0.825852 c -1.161775 -0.48412 -2.017819 -0.961121 -2.568133 -1.431003 c -0.529933 -0.48412 -0.794899 -1.09639 -0.794899 -1.83681 c 0 -1.039435 0.30573 -1.936481 0.923985 -2.669781 c 0.631842 -0.768897 1.460711 -1.146227 2.473017 -1.146227 c 0.638637 0 1.222921 0.170866 1.746059 0.512598 c 0.557109 0.334613 1.610179 1.053674 3.179594 2.150065 c -0.047558 -0.462763 -0.149468 -1.196063 -0.319318 -2.185662 c -0.16985 -0.996718 -0.251378 -1.665943 -0.251378 -2.000556 c 0 -1.060793 0.326112 -1.83681 0.978336 -2.32093 c 0.686195 -0.48412 1.515063 -0.726181 2.513782 -0.726181" transform="matrix(0.574955 0 0 0.548675 -4.989375 -4.630312)" style="fill:none;stroke:#fff;stroke-linejoin:round;stroke-width:2.326"/></svg>