<svg xmlns="http://www.w3.org/2000/svg" viewBox="0 0 24 24"><g style="fill:#9acd31"><path d="m 2.445312 5.046875 c -12 18.046875 26.257813 29.15625 21.191407 5.835937 c -2.160157 -9.640624 -15.691407 -15.492187 -21.191407 -5.835937"/><path d="m 12.304688 19.03125 c 0.015624 0 0.023437 0 0.039062 0 c 0.132812 -0.007812 0.265625 -0.066406 0.335938 -0.160156 l 1.953124 -2.6875 l 1.960938 -2.683594 c 0.070312 -0.101562 0.070312 -0.226562 0 -0.328125 c -0.070312 -0.09375 -0.210938 -0.160156 -0.355469 -0.160156 h -2.179687 v -6.109375 c 0 -0.410156 -0.332032 -0.738282 -0.738282 -0.738282 h -1.992187 c -0.40625 0 -0.742187 0.328126 -0.742187 0.738282 v 6.109375 h -2.179688 c -0.140625 0 -0.28125 0.066406 -0.351562 0.160156 c -0.070313 0.101563 -0.070313 0.226563 0 0.328125 l 1.957031 2.683594 l 1.957031 2.6875 c 0.066406 0.09375 0.199219 0.160156 0.335938 0.160156"/><path d="m 12.304688 19.03125 c 0.015624 0 0.027343 0 0.039062 0 c 0.136719 -0.007812 0.265625 -0.070312 0.335938 -0.164062 l 1.957031 -2.683594 l 1.957031 -2.6875 c 0.070312 -0.097656 0.070312 -0.222656 0 -0.324219 c -0.070312 -0.09375 -0.210938 -0.160156 -0.355469 -0.160156 h -2.179687 v -6.109375 c 0 -0.410156 -0.332032 -0.738282 -0.738282 -0.738282 h -1.019531 v 12.867188 c 0.003907 0 0.003907 0 0.003907 0"/></g><g style="fill:#fff"><path d="m 11.867188 5.171875 c 3.671874 0 6.652343 3.007813 6.652343 6.726563 c 0 0.320312 -0.019531 0.632812 -0.066406 0.945312 c 0 0 -0.007813 0.007812 -0.007813 0.011719 c -0.210937 1.632812 -0.742187 3.230469 0.15625 4.371093 l 0.8125 0.824219 v 1.503907 h -1.617187 l -0.742187 -0.75 c -1.179688 -0.910157 -2.734376 -0.375 -4.453126 -0.226563 c -0.003906 0 -0.003906 0 -0.003906 0 c -0.238281 0.03125 -0.480468 0.042969 -0.730468 0.042969 c -0.125 0 -0.246094 -0.003906 -0.367188 -0.011719 c -3.5 -0.195313 -6.28125 -3.125 -6.28125 -6.710937 c 0 -3.71875 2.976562 -6.726563 6.648438 -6.726563 m 0 1.78125 c -2.695313 0 -4.882813 2.214844 -4.882813 4.945313 c 0 2.726562 2.1875 4.9375 4.882813 4.9375 c 2.703124 0 4.890624 -2.210938 4.890624 -4.9375 c 0 -2.730469 -2.1875 -4.945313 -4.890624 -4.945313"/><path d="m 9.1875 13.085938 v -2.171876 h 5.367188 v 2.171876"/><path d="m 10.78125 9.3125 h 2.171875 v 5.367188 h -2.171875"/></g></svg>