<svg xmlns="http://www.w3.org/2000/svg" viewBox="0 0 24 24"><path d="m 23.226562 15.296875 c 4.476563 -12.507813 -11.625 -18.585937 -17.675781 -13.496094 c -6.050781 5.089844 -8.117187 13.816407 -1.261719 18.207031 c 6.851563 4.390626 14.453126 7.796876 18.9375 -4.710937" style="fill:#ff8c00"/><path d="m 12.152344 5.851562 c -0.992188 0 -1.84375 0.382813 -2.605469 0.890626 c -0.765625 0.5 -1.46875 1.144531 -2.199219 1.773437 c -0.902344 0.90625 -3.199218 2.125 -3.722656 2.328125 v 0.828125 c 1.351562 0 1.453125 0.617187 2.554688 1.441406 c 0.042968 0.089844 0.078124 0.183594 0.132812 0.265625 c 0.082031 0.121094 0.148438 0.253906 0.453125 0.347656 l 0.128906 0.039063 l 0.082031 -0.003906 c 0.125 0.101562 0.25 0.195312 0.367188 0.300781 c 0.730469 0.625 1.4375 1.265625 2.203125 1.773438 c 0.761719 0.5 1.613281 0.886718 2.605469 0.886718 c 0.992187 0 1.84375 -0.386718 2.605468 -0.890625 c 0.765626 -0.503906 1.46875 -1.144531 2.199219 -1.769531 c 1.457031 -1.257812 1.878907 -2.390625 3.722657 -2.390625 v -0.773437 c -0.835938 0 -0.53125 -0.242188 -1.25 -0.613282 c -0.105469 -0.066406 -0.210938 -0.136718 -0.3125 -0.207031 c -0.308594 -0.21875 -0.59375 -0.4375 -0.84375 -0.609375 c -0.125 -0.085938 -0.238282 -0.164062 -0.367188 -0.230469 c -0.035156 -0.019531 -0.082031 -0.035156 -0.125 -0.050781 c -0.273438 -0.21875 -0.554688 -0.441406 -0.824219 -0.675781 c -0.730469 -0.628907 -1.433593 -1.269531 -2.199219 -1.769531 c -0.761718 -0.507813 -1.613281 -0.890626 -2.605468 -0.890626 m 0 0.777344 c 0.605468 0 1.222656 0.246094 1.890625 0.691406 c 0.667969 0.4375 1.363281 1.058594 2.101562 1.695313 c 0.128907 0.109375 0.273438 0.21875 0.40625 0.335937 c -0.0625 0.039063 -0.125 0.078126 -0.175781 0.121094 c -0.25 0.207032 -0.445312 0.460938 -0.617188 0.753906 c -0.355468 0.585938 -0.640624 1.328126 -0.894531 2.070313 c -0.253906 0.738281 -0.476562 1.476563 -0.683593 2.015625 c -0.042969 0.117188 -0.078126 0.179688 -0.117188 0.273438 c -0.101562 -0.191407 -0.203125 -0.382813 -0.3125 -0.671876 c -0.3125 -0.789062 -0.648438 -1.859374 -0.972656 -2.9375 c -0.328125 -1.070312 -0.644532 -2.140624 -0.933594 -2.960937 c -0.140625 -0.40625 -0.273438 -0.742187 -0.40625 -1 c -0.046875 -0.085937 -0.09375 -0.15625 -0.144531 -0.226563 c 0.292969 -0.101562 0.574219 -0.15625 0.859375 -0.15625 m -1.667969 0.765626 c 0.097656 0.207031 0.203125 0.46875 0.328125 0.8125 c 0.277344 0.789062 0.59375 1.859374 0.921875 2.9375 c 0.328125 1.070312 0.667969 2.152343 0.992187 2.976562 c 0.15625 0.414062 0.3125 0.757812 0.476563 1.023438 c 0.082031 0.132812 0.164063 0.25 0.273437 0.351562 c 0.019532 0.019531 0.054688 0.039062 0.074219 0.054688 c -0.484375 0.253906 -0.941406 0.390624 -1.398437 0.390624 c -0.605469 0 -1.222656 -0.242187 -1.890625 -0.6875 c -0.667969 -0.441406 -1.363281 -1.0625 -2.101563 -1.695312 c -0.066406 -0.058594 -0.144531 -0.117188 -0.207031 -0.175781 c 0.039063 -0.035157 0.085937 -0.070313 0.128906 -0.109375 c 0.253907 -0.238282 0.441407 -0.535156 0.609375 -0.871094 c 0.339844 -0.664062 0.585938 -1.496094 0.816406 -2.3125 c 0.234376 -0.816406 0.453126 -1.621094 0.691407 -2.191406 c 0.09375 -0.226563 0.191406 -0.375 0.285156 -0.503906 m -1.53125 0.941406 c -0.171875 0.503906 -0.328125 1.039062 -0.484375 1.597656 c -0.234375 0.8125 -0.480469 1.617188 -0.777344 2.203125 c -0.144531 0.289063 -0.308594 0.523437 -0.453125 0.664063 c -0.042969 -0.035157 -0.082031 -0.070313 -0.128906 -0.109376 c -0.101563 -0.242187 -0.203125 -0.550781 -0.316406 -0.871093 c -0.121094 -0.34375 -0.25 -0.6875 -0.417969 -0.972657 c -0.0625 -0.109374 -0.136719 -0.203124 -0.226562 -0.296874 c 0.734374 -0.460938 1.394531 -1.007813 2.011718 -1.539063 c 0.269532 -0.234375 0.527344 -0.453125 0.789063 -0.675781 m 8.316406 1.597656 c 0.46875 0.359375 0.96875 0.6875 1.503906 0.972656 c 0.226563 0.152344 0.464844 0.300782 0.722657 0.429688 c -1.304688 0.511718 -2.378907 1.386718 -3.351563 2.222656 c -0.289063 0.253906 -0.574219 0.492188 -0.851563 0.734375 c 0.191407 -0.539063 0.390626 -1.167969 0.609376 -1.8125 c 0.25 -0.726563 0.53125 -1.445313 0.835937 -1.945313 c 0.148437 -0.25 0.308594 -0.445312 0.4375 -0.554687 c 0.0625 -0.050781 0.066406 -0.039063 0.089844 -0.046875 m -11.949219 1.109375 c 0.027344 0.035156 0.046875 0.054687 0.085938 0.109375 c 0.078124 0.132812 0.15625 0.359375 0.234374 0.558594 c -0.304687 -0.164063 -0.625 -0.300782 -0.960937 -0.425782 c 0.15625 -0.054687 0.308594 -0.109374 0.457031 -0.179687 c 0.0625 -0.023437 0.121094 -0.035156 0.183594 -0.0625" style="fill-opacity:0.501961"/><path d="m 117.875 176 c -10.125 -3.375 -18.5 -8.958333 -38.583333 -25.833333 c -2.708334 -2.291667 -5.458334 -4.166667 -6.125 -4.166667 c -0.666667 0 -5.208334 -3.958333 -10.166667 -8.833333 c -9.125 -8.916667 -15.375 -12.791667 -20.791667 -12.833334 c -2.708333 0 -3 -0.375 -2.958333 -4.083333 c 0 -4 0.208333 -4.166667 8.25 -8.416667 c 12.25 -6.375 25.625 -15.583333 37.166667 -25.458333 c 20.708333 -17.666667 31.25 -23.041667 45.166666 -23 c 13 0.041667 21.833334 4.25 39.333334 18.5 c 22.5 18.416667 45.583333 34.833333 48.958333 34.833333 c 1.833333 0 2.25 0.666667 2.25 3.666667 c 0 3.541667 -0.125 3.625 -5.375 4.25 c -8.25 1 -12.75 3.958333 -28.333333 18.708333 c -17.125 16.208334 -29.291667 25.666667 -38.958334 30.166667 c -5.791666 2.75 -8.625 3.375 -16.291666 3.625 c -5.583334 0.208333 -10.916667 -0.25 -13.541667 -1.125 m 23 -7.916667 c 3.625 -1.5 4.458333 -2.958333 2.458333 -4.208333 c -3.166666 -1.958333 -8.5 -16.333333 -23.333333 -62.625 c -3.916667 -12.375 -7.5 -22.5 -7.958333 -22.5 c -1.791667 0 -4.708334 7.25 -9.75 23.958333 c -6.583334 21.958334 -10.083334 30.666667 -14.5 36.166667 l -3.416667 4.25 l 4.791667 4.25 c 8.333333 7.291667 20.916666 16.625 25.708333 19.083333 c 8.875 4.541667 17.708333 5.083334 26 1.625 m 15.5 -28.833333 c 6.708333 -19.5 11.791667 -30.291667 16.958333 -35.625 l 3.75 -3.916667 l -6.833333 -5.958333 c -20.666667 -18 -29.708333 -23.083333 -41.166667 -23.125 c -4 0 -7.583333 0.333333 -8 0.75 c -0.458333 0.458333 0.541667 4.083333 2.166667 8.125 c 1.625 4.041667 6.083333 17.375 9.875 29.625 c 8.125 25.875 15.5 46.625 16.708333 46.625 c 0.458334 0 3.416667 -7.416667 6.541667 -16.5 m 17.666667 4.75 c 11.625 -9.75 20.458333 -15.916667 28.958333 -20.208333 l 5.875 -3 l -4.083333 -2.291667 c -2.291667 -1.291667 -7.791667 -4.75 -12.333334 -7.625 c -9.666666 -6.291667 -10.083333 -6.208333 -15.333333 3.625 c -3.291667 6.125 -14.25 34.625 -14.25 37.041667 c 0 1.708333 0.875 1.083333 11.166667 -7.541667 m -93.875 -10.25 c 3.625 -5.375 16.625 -43.333333 15.291666 -44.666667 c -0.208333 -0.208333 -3.333333 2.041667 -6.875 5.041667 c -5 4.166667 -20.458333 16.125 -23.208333 17.875 c -0.208333 0.125 0.666667 1.958333 1.958333 4 c 1.25 2.083333 3.208334 6.375 4.333334 9.583333 c 4.75 13.541667 4.791666 13.583334 8.5 8.166667 m -20.833334 -11.875 c -1.666666 -4 -4.458333 -4.916667 -7.666666 -2.541667 c -2.041667 1.5 -1.916667 1.666667 2.708333 3.791667 c 6.458333 2.916667 6.708333 2.875 4.958333 -1.25" transform="scale(0.09375)" style="fill:#fff;stroke:#fff;fill-rule:evenodd;stroke-width:5.938"/></svg>