<svg xmlns="http://www.w3.org/2000/svg" viewBox="0 0 24 24"><defs><linearGradient id="0" gradientUnits="userSpaceOnUse" x1="50.54" y1="56.19" x2="58.39" y2="64.762" gradientTransform="matrix(0.10393 0 0 0.097619 7.64003 6.439607)"><stop style="stop-color:#ec0000"/><stop offset="1" style="stop-color:#b01911"/></linearGradient></defs><path d="m 4.371094 20.585938 c -18.761719 -24.867188 32.867187 -28.402344 16.300781 -3.015626 c -3.78125 5.785157 -11.332031 9.601563 -16.300781 3.015626" style="fill:#ff8c00"/><g style="fill-rule:evenodd"><g style="fill:#fff"><path d="m 8.617188 13.667969 l -1.882813 5.746093 l 8.707031 -4.3125"/><path d="m 20.5 10.40625 c 0 3.328125 -3.554688 5.582031 -7.941406 5.582031 c -4.386719 0 -7.941406 -2.253906 -7.941406 -5.582031 c 0 -3.328125 3.554687 -6.023438 7.941406 -6.023438 c 4.386718 0 7.941406 2.695313 7.941406 6.023438"/><path d="m 19.085938 10.40625 c 0 2.839844 -2.921876 5.140625 -6.527344 5.140625 c -3.605469 0 -6.527344 -2.300781 -6.527344 -5.140625 c 0 -2.835938 2.921875 -5.140625 6.527344 -5.140625 c 3.605468 0 6.527344 2.304687 6.527344 5.140625"/><path d="M 9.675781 14.773438 L 7.914062 18.085938 L 13.203125 14.882812 L 12.5 14.109375 "/></g><path d="m 12.292969 13.492188 c -1.058594 0.019531 -3.753907 -2.421876 -3.761719 -4.289063 c -0.007812 -1.546875 0.59375 -2.046875 1.753906 -2.054687 c 1.449219 -0.011719 2.042969 0.578124 2.042969 1.585937 c 0.085937 -1.027344 0.691406 -1.621094 1.898437 -1.621094 c 1.167969 0 1.878907 0.542969 1.890626 2.074219 c 0.007812 1.765625 -2.847657 4.289062 -3.824219 4.304688" style="fill:url(#0)"/></g></svg>