<svg xmlns="http://www.w3.org/2000/svg" viewBox="0 0 24 24"><path d="m 18.359375 2.472656 c -12.273437 -8.628906 -24.710937 7.308594 -14.710937 17.472656 c 9.421874 9.578126 24.0625 0.703126 19.484374 -11.21875 c -0.953124 -2.484374 -2.519531 -4.671874 -4.773437 -6.253906" style="fill:#ff8c00"/><path d="m 12.28125 16.828125 c 3.351562 0 7.65625 -2.152344 7.65625 -4.828125 c 0 -2.675781 -4.304688 -4.828125 -7.65625 -4.828125 c -3.34375 0 -7.648438 2.152344 -7.648438 4.828125 c 0 2.675781 4.304688 4.828125 7.648438 4.828125 m 3.023438 -1.285156 c -0.78125 0 -1.410157 -0.503907 -1.410157 -1.128907 c 0 -0.625 0.628907 -1.125 1.410157 -1.125 c 0.78125 0 1.410156 0.5 1.410156 1.125 c 0 0.625 -0.628906 1.128907 -1.410156 1.128907 m -3.023438 -1.449219 c -1.445312 0 -2.617188 -0.933594 -2.617188 -2.09375 c 0 -1.160156 1.171876 -2.09375 2.617188 -2.09375 c 1.453125 0 2.621094 0.933594 2.621094 2.09375 c 0 1.160156 -1.167969 2.09375 -2.621094 2.09375" style="fill:#fff"/></svg>