<svg xmlns="http://www.w3.org/2000/svg" viewBox="0 0 24 24"><path d="m 21.9375 19.078125 c -4.554688 8.257813 -18.8125 5.054687 -21.222656 -1.75 c -2.875 -8.105469 4.605468 -23.496094 17.277344 -14.480469 c 4.265624 3.148438 8.492187 7.964844 3.945312 16.230469" style="fill:#ff8c00"/><path d="m 9.215544 4.000928 l -5.214625 14.002031 h 1.683422 l 1.668481 -4.435933 h 5.568244 l 0.144436 0.433894 h 1.6635 l -3.521242 -9.999992 m -0.976186 1.613067 l 2.126691 6.671766 h -4.482486 m 8.626295 7.713113 l -0.209183 -0.204186 l -3.292137 -3.297598 l 0.707237 -0.704441 l 2.291049 2.291984 v -4.293003 h 1.001088 v 4.293003 l 2.296029 -2.291984 l 0.707237 0.704441 l -3.297118 3.297598" transform="matrix(0.784303 0 0 0.765235 2.791757 2.868037)" style="fill:#fff;stroke:#fff"/></svg>