<svg xmlns="http://www.w3.org/2000/svg" viewBox="0 0 24 24"><path d="m 12.625 0.414062 c 32.253906 14.460938 -15.070312 40.453126 -12.390625 8.234376 c 0.632813 -4.851563 5.601563 -9.945313 12.390625 -8.234376" style="fill:#ff8c00"/><path d="m 13.273438 5.636719 c -0.140626 0.003906 -0.277344 0.050781 -0.40625 0.097656 c -0.253907 0.089844 -0.507813 0.234375 -0.789063 0.429687 c -0.5625 0.378907 -1.203125 0.929688 -1.828125 1.511719 c -1.128906 1.046875 -2.109375 2.097657 -2.523438 2.558594 c -0.351562 -0.171875 -0.835937 -0.414063 -1.367187 -0.601563 c -0.324219 -0.109374 -0.625 -0.199218 -0.929687 -0.203124 c -0.148438 0 -0.324219 0.015624 -0.480469 0.125 c -0.160157 0.101562 -0.238281 0.296874 -0.238281 0.460937 c -0.003907 0.097656 0.039062 0.1875 0.117187 0.253906 c 1.050781 0.886719 1.703125 1.652344 2.84375 3.527344 c 0.074219 0.117187 0.210937 0.179687 0.355469 0.171875 c 0.144531 -0.007812 0.269531 -0.089844 0.324218 -0.210938 c 1.234376 -2.882812 2.679688 -4.679687 3.773438 -5.796874 c 0.542969 -0.554688 0.992188 -0.9375 1.300781 -1.210938 c 0.152344 -0.140625 0.269531 -0.242188 0.363281 -0.371094 c 0.046876 -0.0625 0.101563 -0.136718 0.109376 -0.265625 c 0.007812 -0.128906 -0.101563 -0.300781 -0.210938 -0.371093 c -0.132812 -0.078126 -0.273438 -0.109376 -0.414062 -0.105469 m 2.832031 7.503906 c -0.199219 0.015625 -0.347657 0.164063 -0.347657 0.34375 l 0.007813 1.414063 h -10.679687 c -0.210938 0 -0.375 0.148437 -0.375 0.335937 v 1.140625 c 0 0.1875 0.164062 0.34375 0.375 0.34375 h 10.679687 l 0.007813 1.414062 c 0 0.140626 0.09375 0.261719 0.242187 0.3125 c 0.144531 0.046876 0.308594 0.015626 0.414063 -0.089843 l 2.332031 -2.363281 c 0.128906 -0.125 0.128906 -0.324219 0 -0.453126 l -2.355469 -2.289062 c -0.078125 -0.074219 -0.1875 -0.113281 -0.300781 -0.109375" style="fill:#fff;fill-rule:evenodd"/></svg>