<svg xmlns="http://www.w3.org/2000/svg" viewBox="0 0 24 24"><path d="m 12.601562 0.335938 c 32.53125 14.464843 -15.195312 40.453124 -12.492187 8.234374 c 0.632813 -4.851562 5.648437 -9.945312 12.492187 -8.234374" style="fill:#ff8c00"/><g style="fill:#fff;fill-rule:evenodd"><path d="m 11.203125 5.375 c -1.617187 0 -3.230469 0.6875 -4.375 1.871094 c -1.148437 1.183594 -1.8125 2.847656 -1.8125 4.527344 c 0 1.671874 0.664063 3.335937 1.8125 4.523437 c 1.144531 1.183594 2.757813 1.875 4.375 1.875 c 1.625 0 3.238281 -0.691406 4.386719 -1.875 c 1.144531 -1.1875 1.816406 -2.851563 1.816406 -4.523437 c 0 -1.679688 -0.671875 -3.34375 -1.816406 -4.527344 c -1.148438 -1.183594 -2.761719 -1.871094 -4.386719 -1.871094 m 0.003906 1.703125 c 1.191407 0 2.371094 0.507813 3.214844 1.375 c 0.839844 0.867187 1.328125 2.089844 1.328125 3.320313 c 0 1.226562 -0.488281 2.445312 -1.328125 3.316406 c -0.84375 0.871094 -2.023437 1.375 -3.214844 1.375 c -1.191406 0 -2.371093 -0.503906 -3.210937 -1.375 c -0.839844 -0.871094 -1.332032 -2.089844 -1.332032 -3.316406 c 0 -1.230469 0.492188 -2.453126 1.332032 -3.320313 c 0.839844 -0.867187 2.019531 -1.375 3.210937 -1.375"/><path d="m 8.289062 15.996094 l 7.007813 -7.238282 l -1.164063 -1.210937 l -7.011718 7.242187"/></g></svg>