<svg xmlns="http://www.w3.org/2000/svg" viewBox="0 0 24 24"><path d="m 14.65625 0.179688 c 1.414062 0.125 2.960938 0.480468 4.097656 0.945312 c 3.980469 1.625 5.835938 4.925781 5.113282 9.09375 c -0.390626 2.242188 -1.5 4.777344 -3.273438 7.460938 c -2.109375 3.199218 -5.375 5.625 -8.398438 6.242187 c -0.636718 0.128906 -1.84375 0.175781 -2.484374 0.09375 c -2.15625 -0.273437 -3.945313 -1.4375 -5.59375 -3.632813 c -1.570313 -2.101562 -2.738282 -4.238281 -3.394532 -6.226562 c -1.355468 -4.09375 -0.535156 -7.742188 2.328125 -10.382812 c 2.011719 -1.851563 4.738281 -3.039063 8.082031 -3.507813 c 0.5 -0.070313 3.007813 -0.132813 3.523438 -0.085937" style="fill:#2f4e4e"/><g style="fill:#fff"><path d="m 8.859375 19.351562 c -1.160156 -0.148437 -2 -0.410156 -2.191406 -0.6875 c -0.121094 -0.171874 -0.054688 -0.390624 0.148437 -0.484374 l 0.171875 -0.085938 l -0.140625 -0.09375 c -0.355468 -0.234375 -0.613281 -0.496094 -0.683594 -0.695312 c 4.367188 -0.046876 4.945313 -0.132813 9.816407 -0.226563 c 0 0.199219 -0.035157 0.28125 -0.222657 0.5 c -0.125 0.140625 -0.359374 0.328125 -0.523437 0.414063 l -0.304687 0.15625 l 0.140624 0.078124 c 0.1875 0.105469 0.222657 0.195313 0.148438 0.355469 c -0.132812 0.277344 -0.761719 0.519531 -1.8125 0.707031 c -0.847656 0.148438 -3.570312 0.183594 -4.546875 0.0625"/><path d="m 6.984375 18.09375 l -0.136719 -0.09375 c -0.359375 -0.234375 -0.613281 -0.496094 -0.683594 -0.695312 c -0.074218 -0.203126 -0.070312 -0.265626 0.042969 -0.941407 c 0.199219 -1.144531 0.261719 -1.339843 0.550781 -1.722656 c 0.316407 -0.417969 0.46875 -0.523437 1.785157 -1.21875 c 0.566406 -0.296875 1.074219 -0.59375 1.125 -0.65625 c 0.230469 -0.257813 0.300781 -0.832031 0.128906 -1.035156 c -0.140625 -0.171875 -0.289063 -0.496094 -0.476563 -1.0625 c -0.09375 -0.292969 -0.222656 -0.554688 -0.324218 -0.667969 c -0.199219 -0.222656 -0.402344 -0.765625 -0.402344 -1.085938 c 0 -0.257812 0.117188 -0.527343 0.226562 -0.527343 c 0.0625 0 0.074219 -0.140625 0.074219 -0.746094 c 0.003907 -0.828125 0.066407 -1.257813 0.277344 -1.765625 c 0.398437 -0.960938 1.28125 -1.46875 2.214844 -1.273438 c 0.46875 0.09375 0.824219 0.320313 1.128906 0.714844 c 0.433594 0.558594 0.597656 1.199219 0.601563 2.324219 c 0 0.578125 0.015624 0.746094 0.066406 0.746094 c 0.035156 0 0.105468 0.058593 0.15625 0.128906 c 0.210937 0.308594 -0.050782 1.386719 -0.378906 1.546875 c -0.109376 0.054688 -0.167969 0.160156 -0.25 0.460938 c -0.0625 0.21875 -0.199219 0.570312 -0.304688 0.785156 c -0.15625 0.316406 -0.195312 0.457031 -0.195312 0.707031 c 0 0.617187 0.203124 0.84375 1.179687 1.3125 c 0.113281 0.054687 0.269531 0.140625 0.351563 0.1875 c 0.085937 0.054687 0.355468 0.203125 0.605468 0.332031 c 0.699219 0.371094 1.066406 0.746094 1.292969 1.332032 c 0.101563 0.261718 0.339844 1.601562 0.339844 1.90625 c 0 0.195312 -0.035157 0.28125 -0.222657 0.496093 c -0.125 0.144531 -0.359374 0.332031 -0.523437 0.417969 l -0.304687 0.15625 c -3.285157 0.976562 -6.671876 0.625 -7.941407 -0.054688"/><path d="m 14.75 5.507812 h 1.121094 c 0.050781 0 0.09375 0.042969 0.09375 0.09375 v 1.375 c 0 0.050782 -0.042969 0.09375 -0.09375 0.09375 h -1.121094 c -0.046875 0 -0.09375 -0.042968 -0.09375 -0.09375 v -1.375 c 0 -0.050781 0.046875 -0.09375 0.09375 -0.09375"/></g></svg>