<svg xmlns="http://www.w3.org/2000/svg" viewBox="0 0 24 24"><path d="m 21.527344 18.359375 c 8.628906 -12.273437 -7.308594 -24.710937 -17.472656 -14.710937 c -9.578126 9.421874 -0.699219 24.0625 11.21875 19.488281 c 2.488281 -0.957031 4.671874 -2.523438 6.253906 -4.777344" style="fill:#ff8c00"/><path d="m 11.460938 18.523438 v -0.703126 c -0.789063 -0.03125 -1.589844 -0.101562 -2.40625 -0.203124 c -0.820313 -0.101563 -1.554688 -0.285157 -2.203126 -0.546876 c -0.640624 -0.269531 -0.960937 -0.625 -0.960937 -1.074218 c 0 -0.332032 0.167969 -0.636719 0.507813 -0.90625 c 0.34375 -0.269532 0.765624 -0.402344 1.257812 -0.402344 c 0.21875 0 0.609375 0.078125 1.171875 0.226562 c 0.558594 0.15625 1.015625 0.265626 1.367187 0.34375 c 0.359376 0.078126 0.78125 0.113282 1.265626 0.113282 v -2.441406 c -1.027344 -0.199219 -1.890626 -0.40625 -2.585938 -0.617188 c -0.699219 -0.21875 -1.265625 -0.457031 -1.695312 -0.714844 c -0.4375 -0.261718 -0.75 -0.550781 -0.9375 -0.855468 c -0.1875 -0.300782 -0.28125 -0.640626 -0.28125 -1.007813 c 0 -0.519531 0.148437 -0.992187 0.4375 -1.414063 c 0.289062 -0.433593 0.679687 -0.804687 1.175781 -1.113281 c 0.503906 -0.316406 1.097656 -0.566406 1.769531 -0.753906 c 0.671875 -0.1875 1.378906 -0.296875 2.117188 -0.335937 v -0.734376 c 0 -0.3125 0.242187 -0.46875 0.734374 -0.46875 c 0.492188 0 0.742188 0.15625 0.742188 0.46875 v 0.734376 c 0.601562 0.011718 1.242188 0.070312 1.914062 0.175781 c 0.679688 0.101562 1.257813 0.273437 1.734376 0.519531 c 0.46875 0.242188 0.707031 0.566406 0.707031 0.972656 c 0 0.199219 -0.074219 0.390625 -0.214844 0.578125 c -0.140625 0.183594 -0.335937 0.332031 -0.59375 0.441407 c -0.246094 0.109374 -0.527344 0.164062 -0.839844 0.164062 c -0.191406 0 -0.425781 -0.035156 -0.699219 -0.109375 c -0.261718 -0.078125 -0.5 -0.152344 -0.71875 -0.222656 c -0.21875 -0.074219 -0.429687 -0.136719 -0.640624 -0.183594 c -0.203126 -0.050781 -0.421876 -0.078125 -0.648438 -0.078125 v 2.234375 c 1.679688 0.289063 3.019531 0.695313 4.03125 1.222656 c 1.015625 0.527344 1.527344 1.285157 1.527344 2.277344 c 0 0.585937 -0.175782 1.109375 -0.519532 1.574219 c -0.335937 0.457031 -0.78125 0.839844 -1.335937 1.148437 c -0.542969 0.304688 -1.140625 0.535157 -1.789063 0.699219 c -0.648437 0.164062 -1.289062 0.257812 -1.914062 0.289062 v 0.703126 c 0 0.304687 -0.246094 0.460937 -0.742188 0.460937 c -0.492187 0 -0.734374 -0.15625 -0.734374 -0.460937 m 0 -8.195313 v -1.949219 c -0.402344 0.054688 -0.730469 0.175782 -0.988282 0.355469 c -0.246094 0.179687 -0.371094 0.40625 -0.371094 0.6875 c 0 0.234375 0.125 0.425781 0.371094 0.578125 c 0.257813 0.148438 0.585938 0.257812 0.988282 0.328125 m 1.476562 2.84375 v 2.199219 c 0.394531 0 0.726562 -0.105469 1 -0.324219 c 0.28125 -0.21875 0.421875 -0.46875 0.421875 -0.75 c 0 -0.320313 -0.121094 -0.5625 -0.363281 -0.726563 c -0.230469 -0.171874 -0.582032 -0.304687 -1.058594 -0.398437" style="fill:#fff"/></svg>