<svg xmlns="http://www.w3.org/2000/svg" viewBox="0 0 24 24"><path d="m 0.304688 14.746094 c 4.6875 22.492187 36.921874 -1.652344 17.558593 -13.085938 c -7.523437 -4.902344 -19.96875 1.519532 -17.558593 13.085938" style="fill:#ff8c00"/><path d="m 5.835938 6.0625 v 11.457031 h -0.789063 v 0.816407 h 0.789063 v 0.820312 h 0.78125 v -0.820312 h 11.015624 v -0.816407 h -11.015624 v -11.457031 m 9.441406 0 v 0.820312 h 0.785156 v -0.820312 m 0 0.820312 v 0.816407 h 0.789062 v -0.816407 m -0.789062 0.816407 h -0.785156 v 0.816406 h 0.785156 m -0.785156 -0.816406 v -0.816407 h -0.785156 v 0.816407 m -7.867188 -0.816407 v 0.816407 h 0.789062 v -0.816407 m 0.78125 0 v 0.816407 h 0.789063 v -0.816407 m -2.359375 1.632813 v 0.820313 h 0.789062 v -0.820313 m 0.78125 0 v 0.820313 h 0.789063 v -0.820313 m 1.574219 0.820313 v 0.820312 h 0.785156 v -0.820312 m 0.789062 0 v 0.820312 h 0.785157 v -0.820312 m -2.359375 1.636718 v 0.816406 h 0.785156 v -0.816406 m 0.789062 0 v 0.816406 h 0.785157 v -0.816406 m -5.503907 3.273438 v 0.816406 h 0.78125 v -0.816406 m 0 0.816406 v 0.820312 h 0.789063 v -0.820312 m -0.789063 0.820312 h -0.78125 v 0.820313 h 0.78125 m -0.78125 -0.820313 v -0.820312 h -0.789062 v 0.820312" style="fill:#fff"/></svg>