<svg xmlns="http://www.w3.org/2000/svg" viewBox="0 0 24 24"><g style="fill:#00ced0"><path d="m 12.75 23.9375 c -0.078125 -0.007812 -0.34375 -0.039062 -0.589844 -0.070312 c -1.714844 -0.195313 -3.738281 -0.859376 -5.457031 -1.796876 c -3.191406 -1.742187 -5.582031 -4.480468 -6.359375 -7.289062 c -0.242188 -0.871094 -0.2773438 -1.15625 -0.28125 -2.226562 c 0 -1.144532 0.066406 -1.585938 0.382812 -2.542969 c 1.148438 -3.511719 4.671876 -6.71875 10.195313 -9.292969 c 0.835937 -0.386719 1.210937 -0.492188 2.207031 -0.6210938 c 0.621094 -0.078125 1.890625 -0.0664062 2.550782 0.0273438 c 3.269531 0.453125 6.109374 2.5625 7.589843 5.636719 c 0.773438 1.609375 0.964844 2.675781 0.964844 5.410156 c 0 3.1875 -0.523437 5.679687 -1.617187 7.773437 c -1.425782 2.726563 -3.789063 4.421876 -6.835938 4.90625 c -0.453125 0.070313 -2.40625 0.132813 -2.746094 0.085938 m 1.820313 -6.09375 c 0.449219 -0.226562 0.488281 -0.417969 0.464843 -2.347656 c -0.015624 -1.441406 -0.015624 -1.449219 -0.132812 -1.652344 c -0.0625 -0.113281 -0.1875 -0.25 -0.28125 -0.308594 c -0.164062 -0.105468 -0.195312 -0.105468 -2.464844 -0.121094 c -2.457031 -0.015624 -2.675781 0 -2.902344 0.210938 c -0.273437 0.253906 -0.273437 0.242188 -0.257812 2.117188 l 0.011719 1.710937 l 0.113281 0.164063 c 0.0625 0.085937 0.203125 0.195312 0.308594 0.242187 c 0.183594 0.085937 0.355468 0.09375 2.5625 0.09375 c 2.363281 0 2.371094 0 2.578125 -0.109375 m -6.144531 -3.21875 c 0.015624 -0.765625 0.023437 -0.835938 0.132812 -1.054688 c 0.078125 -0.148437 0.203125 -0.289062 0.355469 -0.398437 l 0.230469 -0.167969 h 5.6875 l 0.203124 0.128906 c 0.242188 0.160157 0.414063 0.414063 0.480469 0.699219 c 0.027344 0.117188 0.050781 0.53125 0.050781 0.917969 v 0.703125 l 0.554688 -0.023437 c 0.410156 -0.015626 0.628906 -0.050782 0.828125 -0.125 c 0.507813 -0.195313 0.929687 -0.613282 1.132813 -1.132813 c 0.101562 -0.257813 0.109374 -0.339844 0.125 -1.9375 c 0.011718 -0.988281 0 -1.796875 -0.03125 -1.976563 c -0.121094 -0.785156 -0.636719 -1.386718 -1.375 -1.605468 c -0.1875 -0.058594 -0.457032 -0.074219 -1.023438 -0.074219 h -0.765625 l -0.027344 0.347656 c -0.011719 0.191407 -0.058593 0.414063 -0.097656 0.492188 c -0.101563 0.191406 -0.335937 0.378906 -0.515625 0.414062 c -0.085938 0.011719 -1.210938 0.019531 -2.507812 0.011719 c -2.300782 -0.011719 -2.351563 -0.015625 -2.484376 -0.109375 c -0.269531 -0.203125 -0.347656 -0.378906 -0.347656 -0.789063 v -0.367187 h -0.796875 c -0.570312 0 -0.863281 0.015625 -1.035156 0.070313 c -0.746094 0.21875 -1.28125 0.835937 -1.390625 1.597656 c -0.058594 0.40625 -0.054688 3.160156 0.007812 3.539062 c 0.125 0.796875 0.742188 1.453125 1.519532 1.605469 c 0.113281 0.023437 0.398437 0.042969 0.636718 0.046875 l 0.433594 0.003906 m 5.785156 -5.957031 c 0.089844 -0.046875 0.207032 -0.148437 0.257813 -0.21875 c 0.09375 -0.121094 0.101563 -0.203125 0.113281 -1.570313 c 0.011719 -1.398437 0.011719 -1.445312 -0.089844 -1.625 c -0.207031 -0.367187 -0.136718 -0.359374 -2.484374 -0.359374 c -2.34375 0 -2.273438 -0.007813 -2.480469 0.359374 c -0.097657 0.179688 -0.101563 0.226563 -0.089844 1.617188 c 0.015625 1.394531 0.019531 1.4375 0.121094 1.582031 c 0.214843 0.300781 0.207031 0.300781 2.453125 0.300781 c 1.894531 0 2.046875 -0.007812 2.199218 -0.085937"/><path d="m 7.007812 4.242188 h 13 c 0.972657 0 1.761719 0.8125 1.761719 1.808593 v 13.347657 c 0 1 -0.789062 1.808593 -1.761719 1.808593 h -13 c -0.976562 0 -1.765624 -0.808593 -1.765624 -1.808593 v -13.347657 c 0 -0.996093 0.789062 -1.808593 1.765624 -1.808593" style="fill-opacity:0.996078;fill-rule:evenodd"/></g><path d="m 9.3125 4.898438 c -0.625 -0.007813 -1.167969 0.632812 -1.035156 1.273437 c 0.089844 0.980469 0.707031 1.773437 1.183594 2.585937 c 0.054687 0.300782 -0.101563 0.59375 -0.109376 0.890626 c -0.3125 1.757812 -0.789062 3.507812 -1.527343 5.117187 c -0.910157 0.429687 -1.941407 0.851563 -2.472657 1.78125 c -0.335937 0.640625 0.140626 1.507813 0.835938 1.578125 c 0.648438 0.089844 1.128906 -0.480469 1.484375 -0.957031 c 0.367187 -0.511719 0.609375 -1.125 0.921875 -1.675781 c 1.859375 -0.769532 3.816406 -1.304688 5.8125 -1.511719 c 0.808594 0.59375 1.664062 1.292969 2.703125 1.339843 c 0.601563 -0.011718 1.085937 -0.609374 1.023437 -1.21875 c -0.039062 -0.558593 -0.519531 -0.945312 -1.015624 -1.050781 c -0.804688 -0.246093 -1.664063 -0.113281 -2.480469 -0.105469 c -1.570313 -1.289062 -3.019531 -2.773437 -4.164063 -4.46875 c 0.085938 -1.03125 0.253906 -2.171874 -0.269531 -3.109374 c -0.195313 -0.296876 -0.53125 -0.5 -0.890625 -0.46875 m 0.03125 0.9375 c 0.179688 0.039062 0.1875 0.304687 0.242188 0.453124 c 0.042968 0.292969 0.039062 0.59375 0.035156 0.890626 c -0.210938 -0.40625 -0.484375 -0.828126 -0.433594 -1.304688 c 0.054688 0 0.101562 -0.03125 0.15625 -0.039062 m 0.976562 4.023437 c 0.9375 1.195313 1.976563 2.296875 3.109376 3.292969 c -1.496094 0.230468 -2.984376 0.625 -4.40625 1.152344 c 0.546874 -1.460938 0.960937 -2.976563 1.234374 -4.519532 c 0.023438 0.023438 0.039063 0.050782 0.0625 0.074219 m 5.835938 4.015625 c 0.367188 0.039062 0.785156 0.015625 1.074219 0.273438 c 0.027343 0.230468 -0.246094 0.265624 -0.394531 0.179687 c -0.308594 -0.105469 -0.609376 -0.234375 -0.871094 -0.4375 c 0.066406 -0.007813 0.128906 -0.015625 0.191406 -0.015625 m -9.070312 2.4375 c -0.171876 0.328125 -0.421876 0.640625 -0.683594 0.875 c -0.089844 0.144531 -0.324219 -0.125 -0.214844 -0.234375 c 0.226562 -0.367187 0.625 -0.5625 0.976562 -0.78125 c -0.027343 0.046875 -0.050781 0.09375 -0.078124 0.140625" style="fill-opacity:0.301961"/><path d="m 9.09375 4.671875 c -0.625 -0.007813 -1.171875 0.632813 -1.039062 1.273437 c 0.09375 0.980469 0.707031 1.773438 1.1875 2.585938 c 0.054687 0.300781 -0.101563 0.59375 -0.109376 0.890625 c -0.3125 1.757813 -0.792968 3.507813 -1.527343 5.117187 c -0.910157 0.429688 -1.941407 0.851563 -2.472657 1.78125 c -0.335937 0.640626 0.140626 1.507813 0.835938 1.578126 c 0.648438 0.089843 1.128906 -0.476563 1.484375 -0.957032 c 0.367187 -0.511718 0.609375 -1.121094 0.917969 -1.675781 c 1.863281 -0.769531 3.816406 -1.304687 5.816406 -1.507813 c 0.808594 0.59375 1.664062 1.289063 2.699219 1.335938 c 0.605469 -0.011719 1.089843 -0.609375 1.023437 -1.21875 c -0.035156 -0.554688 -0.519531 -0.945312 -1.015625 -1.050781 c -0.800781 -0.246094 -1.660156 -0.113281 -2.480469 -0.105469 c -1.570312 -1.289062 -3.019531 -2.773438 -4.160156 -4.46875 c 0.082032 -1.03125 0.253906 -2.171875 -0.269531 -3.109375 c -0.195313 -0.296875 -0.535156 -0.5 -0.890625 -0.46875 m 0.03125 0.9375 c 0.175781 0.039063 0.1875 0.304687 0.238281 0.453125 c 0.046875 0.292969 0.042969 0.59375 0.035157 0.890625 c -0.210938 -0.402344 -0.484376 -0.828125 -0.433594 -1.304687 c 0.058594 0 0.105468 -0.03125 0.160156 -0.039063 m 0.976562 4.023437 c 0.933594 1.195313 1.976563 2.296876 3.109376 3.292969 c -1.5 0.234375 -2.984376 0.628907 -4.40625 1.15625 c 0.546874 -1.464843 0.960937 -2.980469 1.234374 -4.523437 c 0.019532 0.027344 0.039063 0.050781 0.0625 0.074218 m 5.835938 4.015626 c 0.363281 0.039062 0.78125 0.015624 1.074219 0.273437 c 0.027343 0.230469 -0.25 0.265625 -0.394531 0.179687 c -0.308594 -0.101562 -0.613282 -0.234374 -0.875 -0.4375 c 0.066406 -0.003906 0.132812 -0.015624 0.195312 -0.015624 m -9.070312 2.4375 c -0.171876 0.328124 -0.421876 0.640624 -0.6875 0.875 c -0.085938 0.144531 -0.324219 -0.125 -0.214844 -0.234376 c 0.230468 -0.367187 0.625 -0.5625 0.976562 -0.78125 c -0.027344 0.046876 -0.050781 0.09375 -0.074218 0.140626" style="fill:#fff"/><path d="m 12.273438 23.867188 c -1.917969 -0.265626 -3.507813 -0.757813 -5.179688 -1.59375 c -2.285156 -1.140626 -4.289062 -2.875 -5.578125 -4.820313 c -0.8125 -1.234375 -1.359375 -2.65625 -1.5 -3.882813 c -0.0742188 -0.671874 -0.01953125 -2.15625 0.101563 -2.671874 c 0.773437 -3.390626 3.59375 -6.453126 8.351562 -9.085938 c 0.789062 -0.4375 2.519531 -1.257812 2.941406 -1.398438 c 0.722656 -0.242187 1.371094 -0.3281245 2.527344 -0.3281245 c 0.835938 0 1.164062 0.0234375 1.640625 0.1015625 c 2.753906 0.457031 5.15625 2.039062 6.722656 4.433594 c 0.789063 1.207031 1.300781 2.511718 1.488281 3.800781 c 0.160157 1.082031 0.15625 4.003906 0 5.363281 c -0.449218 3.800782 -1.84375 6.585938 -4.167968 8.328125 c -1.308594 0.980469 -3.050782 1.628907 -4.714844 1.753907 c -0.742188 0.058593 -2.21875 0.054687 -2.632812 0 m 7.851562 -3.800782 c 0.109375 0.074219 -2.105469 -2.941406 -0.8125 -1.675781 c 0.207031 0.203125 0.835938 -0.28125 0.757812 -0.601563 l -0.3125 -1.253906 l 0.660157 -4.191406 l -0.550781 -5.285156 l -0.34375 -2.125 c -0.066407 -0.410156 -0.5625 -0.425782 0.914062 -1.292969 l -1.410156 0.828125 l -5.730469 -0.992188 c -7.46875 -1.300781 -6.109375 2.804688 -6.609375 3.140626 c -0.289062 0.195312 0.613281 3.628906 -0.734375 0.875 l -0.34375 -0.710938 l -0.660156 5.015625 v 6.984375 l 0.128906 0.273438 c 0.175781 0.375 0.335937 0.570312 0.625 0.761718 c 0.496094 0.328125 0.007813 0.308594 7.453125 0.308594 c 5.460938 0.003906 5.675781 -0.882812 6.96875 -0.058594" style="fill:#00ced0;fill-opacity:0.996078"/></svg>