<svg xmlns="http://www.w3.org/2000/svg" viewBox="0 0 24 24"><path d="m 2.472656 18.359375 c -8.628906 -12.273437 7.308594 -24.710937 17.472656 -14.710937 c 9.578126 9.421874 0.699219 24.0625 -11.21875 19.488281 c -2.488281 -0.957031 -4.671874 -2.523438 -6.253906 -4.777344" style="fill:#ff8c00"/><g transform="matrix(0.254902 -0.0467907 0.051797 0.282178 3.564375 5.73375)" style="stroke-linecap:round;stroke-linejoin:round"><g style="fill:none"><g style="stroke:#fff"><path d="m 10.630111 16.881684 l 38.742414 26.23389" style="stroke-width:10"/><path d="m 15.76101 19.836656 c -1.635213 2.843572 -5.278335 3.803754 -8.103688 2.172425 c -2.840178 -1.633787 -3.817529 -5.270497 -2.185038 -8.100677 c 1.650038 -2.841115 5.281056 -3.817147 8.121234 -2.18336 c 2.837456 1.647179 3.814808 5.28389 2.167492 8.111612" style="stroke-width:8.125"/></g><path d="m 10.630111 16.881684 l 38.742414 26.23389" style="stroke:#ff8c00;stroke-width:5"/></g><path d="m 15.76101 19.836656 c -1.635213 2.843572 -5.278335 3.803754 -8.103688 2.172425 c -2.840178 -1.633787 -3.817529 -5.270497 -2.185038 -8.100677 c 1.650038 -2.841115 5.281056 -3.817147 8.121234 -2.18336 c 2.837456 1.647179 3.814808 5.28389 2.167492 8.111612" style="fill:#fff;stroke:#ff8c00;stroke-width:3.125"/></g></svg>