
<svg xmlns="http://www.w3.org/2000/svg" xmlns:xlink="http://www.w3.org/1999/xlink" width="24px" height="24px" viewBox="0 0 24 24" version="1.1">
<g id="surface1">
<path style=" stroke:none;fill-rule:nonzero;fill:rgb(100%,54.901961%,0%);fill-opacity:1;" d="M 0.335938 12.601562 C 14.800781 45.136719 40.789062 -2.59375 8.574219 0.113281 C 3.722656 0.746094 -1.371094 5.757812 0.335938 12.601562 Z M 0.335938 12.601562 "/>
<path style="fill-rule:evenodd;fill:rgb(100%,100%,100%);fill-opacity:1;stroke-width:1.241304;stroke-linecap:butt;stroke-linejoin:miter;stroke:rgb(100%,100%,100%);stroke-opacity:1;stroke-miterlimit:4;" d="M 127.25 200.291667 C 125.375 198.208333 125.208333 196.166667 125.25 178.791667 C 125.291667 157.166667 126.166667 154.083333 133.958333 147.208333 C 140.125 141.791667 142.5 141.291667 147.25 144.25 C 153.083333 147.916667 157.875 149.291667 164.5 149.291667 C 170.25 149.291667 178.833333 146.25 182.125 143.041667 C 185.583333 139.666667 194.416667 145.791667 199.666667 155.291667 C 201.75 158.958333 202.208333 161.791667 202.666667 173.875 C 203.333333 190.958333 202.5 197.5 199.375 200.416667 C 197.166667 202.458333 195.458333 202.583333 163.208333 202.583333 C 130.125 202.583333 129.291667 202.5 127.25 200.291667 Z M 127.25 200.291667 " transform="matrix(0.09375,0,0,0.09375,0,0)"/>
<path style="fill-rule:evenodd;fill:rgb(100%,100%,100%);fill-opacity:1;stroke-width:1.241304;stroke-linecap:butt;stroke-linejoin:miter;stroke:rgb(100%,100%,100%);stroke-opacity:1;stroke-miterlimit:4;" d="M 153.5 136.208333 C 143.916667 131.416667 138.791667 123 138.791667 112.041667 C 138.791667 106.25 139.291667 104.333333 142.125 99.916667 C 145.875 94 146.666667 93.125 151.375 89.791667 C 162.291667 82.125 176.625 86.333333 185.333333 99.75 C 187.791667 103.541667 188.208333 105.333333 188.208333 112.333333 C 188.208333 118.041667 187.625 121.583333 186.291667 124 C 183.583333 129 177.416667 134.916667 172.833333 136.791667 C 167.416667 139.083333 158.708333 138.791667 153.5 136.208333 Z M 153.5 136.208333 " transform="matrix(0.09375,0,0,0.09375,0,0)"/>
<path style="fill-rule:evenodd;fill:rgb(100%,100%,100%);fill-opacity:1;stroke-width:1.241304;stroke-linecap:butt;stroke-linejoin:miter;stroke:rgb(100%,100%,100%);stroke-opacity:1;stroke-miterlimit:4;" d="M 47.833333 151.875 C 45.375 148.125 44.875 139.75 46.166667 123.583333 C 47.125 111.541667 47.5 109.958333 50.5 105.666667 C 54.083333 100.541667 56.083333 98.708333 61.375 95.75 C 64.708333 93.833333 64.875 93.875 67 96 C 70.666667 99.666667 76.875 101.583333 85 101.583333 C 93.166667 101.583333 99.291667 99.666667 103.083333 95.875 C 104.958333 94 105.75 93.791667 107.166667 94.791667 C 108.125 95.5 109.875 96.5 111.083333 97.041667 C 114.625 98.625 118.916667 103.833333 121.333333 109.458333 C 123.25 113.916667 123.583333 116.958333 123.583333 129.833333 C 123.583333 138.166667 123.125 144.958333 122.583333 144.958333 C 122.041667 144.958333 120.708333 147.166667 119.583333 149.833333 L 117.583333 154.75 L 49.708333 154.75 Z M 47.833333 151.875 " transform="matrix(0.09375,0,0,0.09375,0,0)"/>
<path style="fill-rule:evenodd;fill:rgb(100%,100%,100%);fill-opacity:1;stroke-width:1.241304;stroke-linecap:butt;stroke-linejoin:miter;stroke:rgb(100%,100%,100%);stroke-opacity:1;stroke-miterlimit:4;" d="M 79 92.125 C 70.291667 88.791667 65.791667 84.625 61.833333 76.208333 C 57.75 67.458333 59.166667 58.583333 66.083333 49.75 C 70.75 43.791667 77.75 40.333333 85 40.375 C 92.541667 40.5 97.458333 42.875 103.25 49.291667 C 108.75 55.416667 110.083333 60.083333 109.208333 70.333333 C 108.291667 81.75 98.25 91.583333 86.708333 92.333333 C 83.375 92.541667 79.916667 92.458333 79 92.125 Z M 79 92.125 " transform="matrix(0.09375,0,0,0.09375,0,0)"/>
</g>
</svg>
