
<svg xmlns="http://www.w3.org/2000/svg" xmlns:xlink="http://www.w3.org/1999/xlink" width="24px" height="24px" viewBox="0 0 24 24" version="1.1">
<g id="surface1">
<path style=" stroke:none;fill-rule:nonzero;fill:rgb(100%,54.901961%,0%);fill-opacity:1;" d="M 18.179688 2.980469 C 39.429688 22.738281 -4.4375 35.1875 0.402344 8.957031 C 2.789062 2.039062 11.351562 -3.363281 18.179688 2.980469 Z M 18.179688 2.980469 "/>
<path style="fill:none;stroke-width:7.5;stroke-linecap:round;stroke-linejoin:round;stroke:rgb(100%,100%,100%);stroke-opacity:1;stroke-miterlimit:4;" d="M 10.814126 55.624124 L 10.814126 4.364997 L 39.935113 4.364997 L 49.187018 13.643057 L 49.187018 55.624124 Z M 10.814126 55.624124 " transform="matrix(0.268948,0,0,0.271979,3.474375,3.789375)"/>
<path style=" stroke:none;fill-rule:nonzero;fill:rgb(100%,100%,100%);fill-opacity:1;" d="M 6.382812 18.917969 L 6.382812 4.976562 L 14.210938 4.976562 L 16.703125 7.5 L 16.703125 18.917969 Z M 6.382812 18.917969 "/>
<path style="fill-rule:nonzero;fill:rgb(100%,54.901961%,0%);fill-opacity:1;stroke-width:2.5;stroke-linecap:round;stroke-linejoin:round;stroke:rgb(100%,54.901961%,0%);stroke-opacity:1;stroke-miterlimit:4;" d="M 39.920589 13.643057 L 39.920589 4.379359 L 49.187018 13.643057 Z M 39.920589 13.643057 " transform="matrix(0.268948,0,0,0.271979,3.474375,3.789375)"/>
<path style=" stroke:none;fill-rule:evenodd;fill:rgb(100%,100%,100%);fill-opacity:1;" d="M 9.78125 12.136719 C 9.585938 12.109375 9.402344 12.25 9.375 12.453125 L 8.859375 16.195312 C 8.832031 16.398438 8.96875 16.582031 9.171875 16.609375 L 16.410156 17.625 C 16.539062 17.648438 16.644531 17.578125 16.722656 17.492188 L 16.722656 13.109375 Z M 9.78125 12.136719 "/>
<path style=" stroke:none;fill-rule:evenodd;fill:rgb(100%,54.901961%,0%);fill-opacity:1;" d="M 9.453125 14.546875 C 9.257812 14.523438 9.078125 14.632812 9.054688 14.789062 L 8.953125 15.59375 C 8.929688 15.75 9.074219 15.902344 9.273438 15.929688 L 16.539062 16.90625 C 16.605469 16.917969 16.664062 16.894531 16.722656 16.875 L 16.722656 15.523438 C 16.71875 15.523438 16.71875 15.523438 16.71875 15.523438 Z M 9.453125 14.546875 "/>
<path style="fill:none;stroke-width:1.25;stroke-linecap:round;stroke-linejoin:round;stroke:rgb(100%,54.901961%,0%);stroke-opacity:1;stroke-miterlimit:4;" d="M 49.259638 34.267352 L 23.450165 30.691133 C 22.723956 30.590597 22.041319 31.107641 21.93965 31.854481 L 20.022458 45.613586 C 19.920789 46.360427 20.429135 47.035456 21.184393 47.135992 L 48.097704 50.884558 C 48.577002 50.95637 48.969155 50.697848 49.259638 50.381877 " transform="matrix(0.268948,0,0,0.271979,3.474375,3.789375)"/>
<path style="fill-rule:evenodd;fill:rgb(100%,100%,100%);fill-opacity:1;stroke-width:1.875;stroke-linecap:round;stroke-linejoin:round;stroke:rgb(100%,54.901961%,0%);stroke-opacity:1;stroke-miterlimit:4;" d="M 17.408105 26.684045 C 16.652847 26.813306 16.159025 27.51706 16.304267 28.263901 L 18.715281 41.951194 C 18.845999 42.683672 19.54316 43.171991 20.283893 43.04273 L 47.066487 38.317526 C 47.792696 38.188265 48.286518 37.498874 48.155801 36.752033 L 45.744786 23.06474 C 45.614069 22.332262 44.916908 21.829581 44.16165 21.973204 Z M 17.408105 26.684045 " transform="matrix(0.268948,0,0,0.271979,3.474375,3.789375)"/>
<path style="fill:none;stroke-width:2.5;stroke-linecap:round;stroke-linejoin:round;stroke:rgb(100%,54.901961%,0%);stroke-opacity:1;stroke-miterlimit:4;" d="M 10.814126 55.624124 L 10.814126 4.364997 L 39.935113 4.364997 L 49.187018 13.643057 L 49.187018 55.624124 Z M 10.814126 55.624124 " transform="matrix(0.268948,0,0,0.271979,3.474375,3.789375)"/>
<path style=" stroke:none;fill-rule:nonzero;fill:rgb(100%,54.901961%,0%);fill-opacity:1;" d="M 10.089844 14.542969 L 10.0625 14.390625 C 9.953125 14.398438 9.835938 14.40625 9.71875 14.40625 C 9.601562 14.402344 9.492188 14.382812 9.390625 14.339844 C 9.292969 14.296875 9.234375 14.226562 9.214844 14.125 C 9.203125 14.054688 9.210938 13.980469 9.25 13.914062 C 9.285156 13.84375 9.339844 13.804688 9.40625 13.789062 C 9.4375 13.785156 9.496094 13.789062 9.578125 13.8125 C 9.664062 13.828125 9.734375 13.84375 9.78125 13.851562 C 9.835938 13.859375 9.898438 13.855469 9.960938 13.84375 L 9.867188 13.304688 C 9.714844 13.285156 9.585938 13.261719 9.480469 13.234375 C 9.375 13.203125 9.289062 13.164062 9.21875 13.117188 C 9.148438 13.070312 9.09375 13.015625 9.054688 12.953125 C 9.015625 12.890625 8.988281 12.816406 8.972656 12.734375 C 8.953125 12.617188 8.953125 12.511719 8.976562 12.40625 C 9 12.304688 9.039062 12.210938 9.09375 12.132812 C 9.152344 12.046875 9.226562 11.976562 9.3125 11.921875 C 9.398438 11.859375 9.492188 11.816406 9.589844 11.789062 L 9.5625 11.625 C 9.546875 11.558594 9.578125 11.515625 9.644531 11.503906 C 9.710938 11.492188 9.753906 11.519531 9.765625 11.585938 L 9.796875 11.75 C 9.882812 11.738281 9.96875 11.734375 10.070312 11.742188 C 10.167969 11.746094 10.253906 11.769531 10.328125 11.8125 C 10.40625 11.851562 10.453125 11.921875 10.46875 12.007812 C 10.476562 12.054688 10.476562 12.097656 10.460938 12.144531 C 10.449219 12.1875 10.429688 12.226562 10.398438 12.257812 C 10.367188 12.289062 10.328125 12.308594 10.289062 12.316406 C 10.257812 12.320312 10.226562 12.320312 10.1875 12.308594 C 10.148438 12.296875 10.109375 12.289062 10.078125 12.277344 C 10.042969 12.265625 10.011719 12.257812 9.980469 12.253906 C 9.949219 12.25 9.917969 12.25 9.886719 12.253906 L 9.976562 12.75 C 10.222656 12.769531 10.421875 12.824219 10.585938 12.914062 C 10.75 13.007812 10.851562 13.164062 10.890625 13.382812 C 10.914062 13.511719 10.910156 13.632812 10.882812 13.742188 C 10.851562 13.855469 10.804688 13.953125 10.742188 14.03125 C 10.679688 14.117188 10.605469 14.183594 10.523438 14.234375 C 10.4375 14.289062 10.351562 14.328125 10.265625 14.351562 L 10.296875 14.503906 C 10.308594 14.570312 10.28125 14.613281 10.210938 14.625 C 10.144531 14.640625 10.101562 14.609375 10.09375 14.542969 Z M 9.757812 12.726562 L 9.679688 12.289062 C 9.628906 12.3125 9.585938 12.351562 9.558594 12.398438 C 9.53125 12.445312 9.523438 12.496094 9.535156 12.558594 C 9.546875 12.609375 9.570312 12.648438 9.609375 12.679688 C 9.652344 12.703125 9.703125 12.71875 9.757812 12.726562 Z M 10.078125 13.320312 L 10.171875 13.804688 C 10.222656 13.796875 10.265625 13.765625 10.296875 13.707031 C 10.324219 13.652344 10.335938 13.59375 10.320312 13.53125 C 10.3125 13.460938 10.28125 13.410156 10.242188 13.378906 C 10.203125 13.34375 10.148438 13.328125 10.078125 13.320312 Z M 10.078125 13.320312 "/>
<path style="fill:none;stroke-width:2.5;stroke-linecap:round;stroke-linejoin:round;stroke:rgb(100%,54.901961%,0%);stroke-opacity:1;stroke-miterlimit:4;" d="M 32.004909 36.249352 L 42.56399 34.252989 " transform="matrix(0.268948,0,0,0.271979,3.474375,3.789375)"/>
</g>
</svg>
