<svg xmlns="http://www.w3.org/2000/svg" viewBox="0 0 24 24"><path d="m 14.746094 0.304688 c 22.492187 4.6875 -1.652344 36.925781 -13.085938 17.558593 c -4.902344 -7.523437 1.519532 -19.96875 13.085938 -17.558593" style="fill:#ff8c00"/><path d="m 11.796875 4.335938 l -1.789063 3.78125 h 3.578126 m -5.367188 1.890624 l -3.578125 1.890626 l 3.578125 1.890624 m 7.15625 -3.78125 v 3.78125 l 3.578125 -1.890624 m -7.15625 -0.945313 c -0.496094 0 -0.894531 0.421875 -0.894531 0.945313 c 0 0.523437 0.398437 0.945312 0.894531 0.945312 c 0.496094 0 0.894531 -0.421875 0.894531 -0.945312 c 0 -0.523438 -0.398437 -0.945313 -0.894531 -0.945313 m -1.789063 4.726563 l 1.789063 3.78125 l 1.789063 -3.78125" style="fill:#fff"/></svg>