<svg xmlns="http://www.w3.org/2000/svg" viewBox="0 0 24 24"><path d="m 9.253906 23.695312 c -22.492187 -4.6875 1.652344 -36.921874 13.085938 -17.558593 c 4.902344 7.523437 -1.519532 19.96875 -13.085938 17.558593" style="fill:#b0c3de"/><path d="m 19.242188 12.34375 c 0 3.96875 -3.148438 7.1875 -7.03125 7.1875 c -3.890626 0 -7.039063 -3.21875 -7.039063 -7.1875 c 0 -3.96875 3.148437 -7.1875 7.039063 -7.1875 c 3.882812 0 7.03125 3.21875 7.03125 7.1875" style="fill:#4c76af"/><path d="m 17.234375 12.34375 h -2.007813 c 0 1.699219 -1.351562 3.078125 -3.015624 3.078125 c -1.667969 0 -3.015626 -1.378906 -3.015626 -3.078125 c 0 -1.703125 1.347657 -3.082031 3.015626 -3.082031 v 1.027343 l 3.015624 -2.054687 l -3.015624 -2.054687 v 1.03125 c -2.78125 0 -5.03125 2.296874 -5.03125 5.132812 c 0 2.835938 2.25 5.132812 5.03125 5.132812 c 2.773437 0 5.023437 -2.296874 5.023437 -5.132812" style="fill:#fff"/></svg>