<svg xmlns="http://www.w3.org/2000/svg" viewBox="0 0 24 24"><path d="m 21.671875 5.023438 c 11.890625 17.890624 -26.039063 28.910156 -21.015625 5.78125 c 2.140625 -9.558594 15.5625 -15.359376 21.015625 -5.78125" style="fill:#bcb76a"/><path d="m 5.6875 6.171875 v 11.523437 h 4.789062 l 1.460938 1.773438 l 1.457031 -1.773438 h 4.792969 v -11.523437 h -3.582031 c -1.480469 0 -2.667969 1.269531 -2.667969 2.84375 c 0 -1.574219 -1.191406 -2.84375 -2.671875 -2.84375 m -1.914063 1.773437 h 2.109376 c 0.902343 0 1.640624 0.78125 1.640624 1.75 v 6.226563 h -3.75 m 7.0625 -7.976563 h 2.101563 v 7.976563 h -3.746094 v -6.226563 c 0 -0.96875 0.738281 -1.75 1.644531 -1.75" style="fill:#fff;fill-rule:evenodd"/></svg>