<svg xmlns="http://www.w3.org/2000/svg" viewBox="0 0 16 16"><path d="m 0.203125 9.832031 c 3.125 14.992188 24.617187 -1.101562 11.707031 -8.726562 c -5.015625 -3.265625 -13.3125 1.015625 -11.707031 8.726562" style="fill:#dcdcdc"/><path d="m 9.34375 4.71875 l 0.015625 0.015625 l 0.042969 -0.015625 m 0.476562 0.492188 l 2.953125 2.722656 v -2.722656" style="fill-opacity:0.196078"/><path d="m 9.34375 2 l 3.488281 3.210938 h -2.953125 c -0.261718 0 -0.535156 -0.253907 -0.535156 -0.492188 v -2.71875" style="fill:#fff;fill-opacity:0.392157"/><path d="m 3.230469 7.140625 l 4.972656 -1.792969 l 1.890625 5.808594 l -4.972656 1.792969" style="fill:#2c3d4f"/><path d="m 3.230469 7.140625 l 1.023437 -0.367187 l 1.890625 5.808593 l -1.023437 0.367188" style="fill:#3497db"/><path d="m 6.75 7.65625 c -0.730469 0.265625 -1.125 1.058594 -0.890625 1.785156 c 0.003906 0.007813 0.003906 0.011719 0.007813 0.023438 c 0.003906 0.007812 0.003906 0.015625 0.007812 0.023437 c 0.039062 0.121094 0.097656 0.222657 0.167969 0.316407 c 0.339843 0.472656 0.964843 0.679687 1.558593 0.464843 c 0.726563 -0.261719 1.125 -1.054687 0.890626 -1.78125 c -0.238282 -0.722656 -1.011719 -1.09375 -1.742188 -0.832031 m 0.09375 0.292969 c 0.566406 -0.207031 1.171875 0.082031 1.355469 0.644531 c 0.179687 0.5625 -0.121094 1.171875 -0.679688 1.382812 c 0.3125 -0.234374 0.484375 -0.617187 0.445313 -1 c -0.117188 0.28125 -0.351563 0.515626 -0.660156 0.625 c -0.4375 0.160157 -0.894532 0.023438 -1.164063 -0.304687 c -0.15625 -0.554687 0.148437 -1.148437 0.703125 -1.347656" style="fill:#eceff1"/></svg>