<svg xmlns="http://www.w3.org/2000/svg" viewBox="0 0 16 16"><path d="m 15.796875 6.167969 c -3.125 -14.992188 -24.617187 1.105469 -11.707031 8.726562 c 5.015625 3.265625 13.3125 -1.011719 11.707031 -8.726562" style="fill:#12a453"/><path d="m 10.34375 5.042969 l 2.882812 2.507812 v -2.507812" style="fill-opacity:0.196078"/><g style="fill:#fff"><path d="m 9.519531 1.820312 l 3.703125 3.222657 h -3.132812 c -0.277344 0 -0.570313 -0.253907 -0.570313 -0.496094" style="fill-opacity:0.392157"/><path d="m 10 6.730469 v 5.316406 h -5.488281 v -5.316406 m 5.09375 0.40625 h -2.742188 v 1.226562 h 2.742188 m -3.136719 -1.226562 h -1.566406 v 1.226562 h 1.566406 m 3.136719 0.410157 h -2.742188 v 1.226562 h 2.742188 m -3.136719 -1.226562 h -1.566406 v 1.226562 h 1.566406 m 3.136719 0.410156 h -2.742188 v 1.226563 h 2.742188 m -3.136719 -1.226563 h -1.566406 v 1.226563 h 1.566406"/></g></svg>