<svg xmlns="http://www.w3.org/2000/svg" viewBox="0 0 16 16"><g style="fill:#9a773c"><path d="m 14.4375 12.703125 c 7.824219 -17.132813 -17.105469 -15.011719 -14.128906 -3.890625 c 1.441406 6.429688 10.460937 10.328125 14.128906 3.890625"/><path d="m 4.089844 1.71875 c -0.285156 0 -0.554688 0.257812 -0.554688 0.527344 v 11.074218 c 0 0.257813 0.285156 0.527344 0.554688 0.527344 h 8.882812 c 0.269532 0 0.554688 -0.269531 0.554688 -0.527344 v -8.171874 l -3.609375 -3.429688"/></g><path d="m 9.917969 4.621094 l 0.015625 0.015625 l 0.046875 -0.015625 m 0.492187 0.527344 l 3.054688 2.898437 v -2.898437" style="fill-opacity:0.196078"/><g style="fill:#fff"><path d="m 9.917969 1.71875 l 3.609375 3.429688 h -3.054688 c -0.269531 0 -0.554687 -0.273438 -0.554687 -0.527344 v -2.902344" style="fill-opacity:0.392157"/><path d="m 10.621094 7.523438 c -0.019532 0.011718 -0.039063 0.042968 -0.054688 0.09375 c -0.050781 0.140624 -0.386718 1.101562 -2.304687 1.148437 c -0.914063 0.023437 -1.304688 -0.753906 -1.304688 -0.753906 l -0.019531 0.996093 c 0 0 0.097656 0.222657 -0.097656 0.457032 c -0.011719 -0.015625 -0.019532 -0.035156 -0.03125 -0.050782 c -0.070313 -0.09375 -0.152344 -0.175781 -0.242188 -0.234374 c -0.097656 -0.066407 -0.203125 -0.113282 -0.308594 -0.125 c -0.121093 -0.019532 -0.234374 0.007812 -0.328124 0.070312 c -0.089844 0.0625 -0.144532 0.164062 -0.164063 0.277344 c -0.019531 0.101562 -0.011719 0.207031 0.023437 0.320312 c 0.027344 0.101563 0.078126 0.199219 0.148438 0.292969 c 0.074219 0.101563 0.167969 0.1875 0.261719 0.25 c 0.109375 0.070313 0.226562 0.109375 0.339843 0.117187 c 0.035157 0 0.070313 -0.007812 0.105469 -0.011718 c 0.734375 0.5625 2.195313 1.089844 3.164063 0.488281 c 0.019531 0.007813 0.039062 0.015625 0.0625 0.023437 c 0 0.007813 -0.003906 0.019532 0 0.027344 l 0.046875 -0.019531 c 0.007812 0.003906 0.011719 0.011719 0.023437 0.011719 c 0 0 0.003906 0 0.003906 0 l 0.015626 0.019531 l 0.4375 0.148437 c -0.015626 0.144532 0.058593 0.3125 0.246093 0.382813 c 0.34375 0.125 0.660157 0.285156 0.660157 0.285156 c -0.160157 -0.53125 -0.222657 -0.960937 -0.648438 -0.921875 c -0.078125 0.003906 -0.136719 0.035156 -0.183594 0.082032 l -0.382812 -0.238282 h -0.019532 l -0.003906 -0.007812 c 0.515625 -0.488282 0.820313 -1.414063 0.636719 -3.023438 c -0.011719 -0.078125 -0.046875 -0.121094 -0.082031 -0.105468"/><path d="m 6.863281 1.71875 v 1.054688 h 1.113281 v -1.054688 m -1.113281 1.054688 h -1.109375 v 1.054687 h 1.109375 m 0 0 v 1.054687 h 1.113281 v -1.054687 m -2.222656 1.582031 v 2.109375 h 2.222656 v -2.109375"/></g></svg>