<svg xmlns="http://www.w3.org/2000/svg" viewBox="0 0 16 16"><path d="m 0.203125 9.832031 c 3.125 14.992188 24.617187 -1.101562 11.707031 -8.726562 c -5.015625 -3.265625 -13.3125 1.015625 -11.707031 8.726562" style="fill:#00bfff"/><path d="m 8.914062 4.96875 l 0.015626 0.015625 l 0.042968 -0.015625 m 0.472656 0.503906 l 2.914063 2.78125 v -2.78125" style="fill-opacity:0.196078"/><g style="fill:#fff"><path d="m 8.914062 2.1875 l 3.445313 3.285156 h -2.914063 c -0.257812 0 -0.53125 -0.257812 -0.53125 -0.503906 v -2.78125" style="fill-opacity:0.392157"/><path d="m 3.824219 6.765625 v 6.265625 h 3.683593 v -1.328125 h 2.632813 v -3.796875 h -1.226563 v -1.140625 m -4.5625 0.570313 h 4.035157 v 0.570312 h -3.335938 v 2.085938 h -0.699219 m 1.226563 -1.519532 h 2.808594 v 1.519532 h -2.808594 m 3.335937 -1.519532 h 0.703126 v 2.660156 h -2.109376 v -0.570312 h 1.40625 m -4.5625 0 h 0.699219 v 1.140625 h 1.933594 v 0.757813 h -2.632813 m 1.226563 -1.898438 h 1.40625 v 0.570312 h -1.40625"/></g></svg>