<svg xmlns="http://www.w3.org/2000/svg" viewBox="0 0 16 16"><g style="fill:#efefef"><path d="m 11.277344 9.996094 h -4.371094 l -1.089844 1.992187 h 4.371094" style="fill-opacity:0.901961"/><path d="m 11.277344 9.996094 l -2.183594 -3.988282 h -2.1875 l 2.1875 3.988282"/><path d="m 8 8 l -1.09375 -1.992188 l -2.183594 3.988282 l 1.09375 1.992187" style="fill-opacity:0.94902"/></g><path d="m 0.269531 9.761719 c 3.097657 14.996093 24.40625 -1.101563 11.605469 -8.722657 c -4.972656 -3.265624 -13.199219 1.011719 -11.605469 8.722657" style="fill:#778799"/><path d="m 9.683594 4.621094 l 0.019531 0.015625 l 0.046875 -0.015625 m 0.542969 0.457031 l 3.367187 2.511719 v -2.511719" style="fill-opacity:0.196078"/><path d="m 9.683594 2.109375 l 3.976562 2.96875 h -3.367187 c -0.296875 0 -0.609375 -0.234375 -0.609375 -0.457031" style="fill:#fff;fill-opacity:0.392157"/><path d="m 4.941406 7.34375 v 0.542969 c 0.726563 0 0.726563 0.234375 0.726563 1.011719 v 2.34375 c 0 0.78125 0 1.015624 -0.726563 1.015624 v 0.546876 h 2.175782 v -0.546876 c -0.726563 0 -0.726563 -0.234374 -0.726563 -1.015624 v -0.78125 h 0.363281 c 0.292969 0 0.582032 0 0.582032 0.78125 h 0.507812 v -2.34375 h -0.507812 c 0 0.78125 -0.289063 0.78125 -0.582032 0.78125 h -0.363281 v -1.558594 h 1.453125 c 0.726562 0 0.945312 0 0.945312 0.777344 h 0.507813 v -1.558594" style="fill:#fffafa"/></svg>