<svg xmlns="http://www.w3.org/2000/svg" viewBox="0 0 16 16"><path d="m 12.753906 0.90625 c -23.722656 -6.953125 -8.601562 27.390625 2.011719 10.164062 c 1.941406 -3.167968 2.074219 -8.539062 -2.011719 -10.164062" style="fill:#86cefa"/><g transform="matrix(0.049971 0 0 0.0469773 1.522255 -34.526312)" style="fill:#fff;stroke:#86ceeb"><path d="m 79.288394 848.292746 c -2.110599 0 -4.064858 0.498911 -5.784605 1.41358 c -1.016215 0.582063 -1.876088 1.247278 -2.735962 2.078796 c -0.547192 0.582062 -1.016214 1.164125 -1.485236 1.746187 c 0 0 0 0.083152 0 0.083152 c -0.156341 0.249456 -0.390852 0.582063 -0.547193 0.91467 c 0 0 0 0.083152 0 0.083152 c -0.390851 0.665214 -0.703533 1.330429 -0.938044 2.078795 c 0 0 0 0.083152 0 0.083152 c -0.07817 0.332607 -0.234511 0.748366 -0.312681 1.080973 c 0 0 0 0 0 0.083152 c -0.078171 0.332607 -0.156341 0.748366 -0.156341 1.080973 c 0 0.083152 0 0.083152 0 0.083152 c -0.07817 0.415759 -0.07817 0.831518 -0.07817 1.164126 c 0 0.083151 0 0.083151 0 0.083151 v 110.259292 c 0 6.735296 5.393753 12.057012 12.038232 12.057012 h 82.000685 c 0.859874 0 1.641577 -0.083152 2.423281 -0.249456 c 1.172555 -0.249455 2.26694 -0.665214 3.283154 -1.247277 c 1.407066 -0.665214 2.657792 -1.663036 3.595836 -2.827161 c 0 -0.083152 0 -0.083152 0 -0.083152 c 0.469022 -0.582063 0.938044 -1.164125 1.250725 -1.82934 c 0 -0.083151 0 -0.083151 0 -0.083151 c 0.234511 -0.332608 0.390852 -0.665215 0.547192 -0.997822 c 0 0 0 0 0 -0.083152 c 0.156341 -0.332607 0.312682 -0.665214 0.390852 -0.997822 c 0 0 0 -0.083151 0 -0.083151 c 0.07817 -0.332608 0.234511 -0.748367 0.312681 -1.080974 c 0 0 0 0 0 -0.083152 c 0.078171 -0.332607 0.078171 -0.748366 0.156341 -1.164125 c 0 -0.415759 0.078171 -0.831518 0.078171 -1.247277 v -110.342443 c 0 -6.652145 -5.393754 -11.97386 -12.038233 -11.97386" style="stroke-width:1.287"/><path d="m 91.326626 859.019328 c -6.644479 0 -12.038232 5.404868 -12.038232 12.057012 v 110.342444 c 0 6.652144 5.393753 11.973859 12.038232 11.973859 h 82.000686 c 6.644478 0 12.038232 -5.321715 12.038232 -11.973859 v -72.924132 c -0.156341 -0.249456 -0.234511 -0.498911 -0.469022 -0.665215 l -48.778292 -48.810109" style="stroke-width:10.32"/><path d="m 181.613367 910.074536 c -0.390851 -0.831518 -0.938044 -1.663036 -1.641577 -2.328251 l -45.338796 -44.818822 v 39.413955 c 0 4.323894 3.439495 7.733118 7.738863 7.733118" style="stroke-width:1.287"/></g><path d="m 10.730469 4.429688 l 0.015625 0.015624 l 0.039062 -0.015624 m 0.453125 0.53125 l 2.792969 2.941406 v -2.941406" style="fill-opacity:0.196078"/><path d="m 10.730469 1.488281 l 3.300781 3.476563 h -2.792969 c -0.246093 0 -0.507812 -0.277344 -0.507812 -0.535156 v -2.941407" style="fill:#fff;fill-opacity:0.392157"/></svg>