
<svg xmlns="http://www.w3.org/2000/svg" xmlns:xlink="http://www.w3.org/1999/xlink" width="48px" height="48px" viewBox="0 0 48 48" version="1.1">
<g id="surface1">
<path style=" stroke:none;fill-rule:nonzero;fill:rgb(46.666667%,53.333333%,60%);fill-opacity:1;" d="M 44.105469 37.964844 C 59.722656 15.636719 24.558594 -12.324219 6.183594 5.847656 C -11.148438 22.984375 11.257812 54.957031 32.800781 46.644531 C 37.304688 44.90625 41.253906 42.042969 44.105469 37.964844 Z M 44.105469 37.964844 "/>
<path style=" stroke:none;fill-rule:nonzero;fill:rgb(100%,100%,100%);fill-opacity:0.301961;" d="M 23.1875 8.871094 C 17.683594 8.871094 12.914062 11.824219 10.390625 16.210938 C 12.535156 15.011719 15.011719 14.316406 17.667969 14.316406 C 18.632812 14.316406 19.574219 14.414062 20.488281 14.585938 C 20.492188 14.578125 20.496094 14.570312 20.5 14.5625 C 20.699219 14.046875 20.929688 13.550781 21.183594 13.066406 C 21.207031 13.019531 21.234375 12.976562 21.257812 12.929688 C 21.492188 12.5 21.75 12.082031 22.027344 11.675781 C 22.082031 11.59375 22.132812 11.511719 22.1875 11.433594 C 22.46875 11.039062 22.765625 10.664062 23.082031 10.300781 C 23.132812 10.242188 23.179688 10.179688 23.234375 10.121094 C 23.609375 9.703125 24.003906 9.304688 24.425781 8.933594 C 24.015625 8.898438 23.605469 8.871094 23.1875 8.871094 Z M 29.125 10.101562 C 28.589844 10.375 28.09375 10.699219 27.617188 11.050781 C 27.5 11.140625 27.390625 11.238281 27.277344 11.328125 C 26.882812 11.648438 26.503906 11.984375 26.160156 12.351562 C 26.101562 12.410156 26.046875 12.46875 25.992188 12.527344 C 25.152344 13.464844 24.46875 14.542969 23.988281 15.730469 C 28.957031 18.058594 32.386719 23.027344 32.386719 28.832031 C 32.386719 29.390625 32.335938 29.933594 32.273438 30.472656 C 32.28125 30.472656 32.289062 30.46875 32.292969 30.472656 C 32.921875 30.578125 33.566406 30.648438 34.226562 30.648438 C 34.835938 30.648438 35.429688 30.585938 36.011719 30.492188 C 37.210938 28.394531 37.90625 25.980469 37.90625 23.390625 C 37.90625 17.433594 34.300781 12.347656 29.125 10.101562 Z M 17.667969 17.945312 C 13.839844 17.945312 10.476562 19.84375 8.5 22.746094 C 8.488281 22.960938 8.464844 23.171875 8.464844 23.390625 C 8.464844 31.433594 15.03125 37.90625 23.1875 37.90625 C 23.40625 37.90625 23.621094 37.882812 23.835938 37.875 L 23.839844 37.875 C 25.667969 36.664062 27.097656 34.921875 27.921875 32.875 C 27.921875 32.871094 27.917969 32.871094 27.914062 32.871094 C 27.320312 32.59375 26.75 32.273438 26.203125 31.921875 C 26.140625 31.882812 26.085938 31.84375 26.023438 31.804688 C 25.5 31.457031 24.992188 31.082031 24.519531 30.671875 C 24.515625 30.667969 24.507812 30.664062 24.5 30.660156 C 24.019531 30.242188 23.570312 29.789062 23.148438 29.316406 C 23.09375 29.25 23.035156 29.1875 22.980469 29.121094 C 22.59375 28.667969 22.230469 28.203125 21.902344 27.707031 C 21.878906 27.671875 21.855469 27.636719 21.832031 27.601562 C 21.496094 27.085938 21.203125 26.546875 20.9375 25.996094 C 20.882812 25.886719 20.835938 25.78125 20.789062 25.671875 C 20.546875 25.136719 20.328125 24.589844 20.152344 24.023438 C 20.140625 23.984375 20.125 23.949219 20.113281 23.910156 C 19.9375 23.324219 19.8125 22.71875 19.710938 22.105469 C 19.6875 21.960938 19.664062 21.820312 19.644531 21.675781 C 19.5625 21.046875 19.503906 20.410156 19.503906 19.761719 C 19.503906 19.207031 19.539062 18.660156 19.597656 18.121094 C 18.96875 18.015625 18.328125 17.945312 17.664062 17.945312 Z M 23.210938 19.421875 C 23.207031 19.535156 23.1875 19.644531 23.1875 19.761719 C 23.1875 20.210938 23.222656 20.652344 23.277344 21.089844 C 23.292969 21.222656 23.316406 21.355469 23.335938 21.488281 C 23.386719 21.804688 23.453125 22.121094 23.53125 22.429688 C 23.5625 22.558594 23.59375 22.6875 23.632812 22.8125 C 23.753906 23.222656 23.890625 23.628906 24.058594 24.015625 C 24.238281 24.429688 24.445312 24.828125 24.671875 25.210938 C 24.699219 25.261719 24.734375 25.3125 24.765625 25.363281 C 24.976562 25.710938 25.207031 26.050781 25.457031 26.371094 C 25.480469 26.402344 25.503906 26.433594 25.53125 26.464844 C 26.09375 27.175781 26.742188 27.8125 27.464844 28.367188 C 27.496094 28.386719 27.527344 28.410156 27.554688 28.433594 C 27.910156 28.695312 28.277344 28.941406 28.664062 29.164062 C 28.671875 29.167969 28.679688 29.175781 28.683594 29.179688 C 28.6875 29.0625 28.707031 28.949219 28.707031 28.835938 C 28.707031 24.800781 26.5 21.300781 23.210938 19.421875 Z M 31.40625 33.992188 C 31.136719 34.691406 30.832031 35.371094 30.464844 36.011719 C 31.367188 35.503906 32.1875 34.886719 32.957031 34.214844 C 32.953125 34.214844 32.949219 34.210938 32.941406 34.210938 C 32.421875 34.167969 31.910156 34.089844 31.40625 33.992188 Z M 31.40625 33.992188 "/>
</g>
</svg>
