<svg xmlns="http://www.w3.org/2000/svg" viewBox="0 0 48 48"><path d="m 25.207031 0.675781 c 65.0625 28.925781 -30.398437 80.90625 -24.984375 16.472657 c 1.265625 -9.703126 11.292969 -19.890626 24.984375 -16.472657" style="fill:#ff8c00"/><g style="fill:#ececec"><path d="m 14.085938 10.878906 c -0.058594 0.003906 -0.121094 0.011719 -0.179688 0.019532 c -0.050781 0.011718 -0.105469 0.027343 -0.15625 0.042968 c -0.007812 0 -0.015625 -0.003906 -0.019531 0 c -0.058594 0.015625 -0.121094 0.039063 -0.179688 0.058594 c -1.136719 0.390625 -2.796875 1.894531 -3.351562 3.183594 c -0.234375 0.53125 -0.4375 1.121094 -0.613281 1.839844 c -0.324219 1.324218 -0.414063 3.097656 -0.160157 5.183593 c 0.210938 1.761719 0.691407 3.816407 1.628907 6.023438 c 0.578124 1.59375 1.742187 3.554687 3.902343 5.511719 c 0.253907 0.191406 0.5 0.378906 0.753907 0.550781 c 2.035156 1.386719 3.855468 2.003906 5.273437 2.246093 c 2.332031 0.535157 4.421875 0.640626 6.207031 0.527344 c 2.121094 -0.125 3.886719 -0.546875 5.152344 -1.144531 c 0.535156 -0.296875 1.242188 -0.742187 1.628906 -1.101563 c 1.132813 -1.054687 2.027344 -1.972656 2.515625 -2.773437 c 0.019531 -0.03125 0.042969 -0.054687 0.058594 -0.082031 c 0.054687 -0.09375 0.097656 -0.175782 0.136719 -0.265625 c 0.023437 -0.042969 0.042968 -0.078125 0.058594 -0.121094 c 0.03125 -0.078125 0.058593 -0.152344 0.082031 -0.226563 c 0.003906 -0.042968 0.015625 -0.046874 0.019531 -0.082031 c 0.003906 -0.023437 0.015625 -0.054687 0.015625 -0.082031 c 0.011719 -0.054688 0.015625 -0.15625 0.019531 -0.179688 c 0.011719 -0.050781 0 -0.042968 0 -0.042968 c 0 0 0.003906 -0.011719 0 -0.058594 c -0.003906 -0.050781 0 -0.140625 0 -0.328125 c -0.015625 -0.128906 -0.042968 -0.265625 -0.078125 -0.386719 c -0.074219 -0.25 -0.183593 -0.492187 -0.335937 -0.734375 c -0.300782 -0.476562 -0.738282 -0.949219 -1.308594 -1.410156 c -1.054688 -0.855469 -2.535156 -1.6875 -4.261719 -2.492187 c -1.472656 -0.683594 -3.089843 -1.308594 -4.660156 -2 c -1.097656 -0.550782 -1.964844 -0.835938 -2.277344 -1.101563 c -0.042969 -0.03125 -0.058593 -0.070313 -0.082031 -0.101563 c -0.285156 -0.058593 -0.746094 -0.855468 -1.546875 -1.855468 c -0.921875 -1.289063 -1.804687 -2.652344 -2.695313 -3.902344 c -1.039062 -1.460938 -2.039062 -2.691406 -2.992187 -3.53125 c -0.515625 -0.449219 -1.007813 -0.78125 -1.488281 -0.976562 c -0.246094 -0.101563 -0.480469 -0.179688 -0.714844 -0.207032 c -0.117188 -0.011718 -0.242188 -0.007812 -0.355469 0" style="fill-opacity:0.4"/><path d="m 19.96875 16.082031 l -10.171875 7.203125 c 0.273437 1.234375 0.664063 2.554688 1.253906 3.945313 c 0.582031 1.59375 1.742188 3.554687 3.90625 5.511719 c 0.253907 0.195312 0.5 0.378906 0.753907 0.554687 c 2.035156 1.386719 3.851562 2.003906 5.273437 2.242187 c 2.328125 0.535157 4.421875 0.644532 6.203125 0.53125 c 2.121094 -0.125 3.890625 -0.542968 5.15625 -1.144531 c 0.535156 -0.296875 1.242188 -0.742187 1.625 -1.097656 c 1.132812 -1.054687 2.03125 -1.976563 2.519531 -2.78125 c 0.015625 -0.027344 0.042969 -0.050781 0.058594 -0.078125 c 0.054687 -0.09375 0.097656 -0.175781 0.136719 -0.269531 c 0.023437 -0.039063 0.042968 -0.078125 0.0625 -0.117188 c 0.03125 -0.078125 0.054687 -0.152343 0.078125 -0.226562 c 0.003906 -0.046875 0.015625 -0.046875 0.019531 -0.082031 c 0.007812 -0.027344 0.015625 -0.054688 0.019531 -0.082032 c 0.011719 -0.058594 0.015625 -0.160156 0.023438 -0.183594 c 0.007812 -0.050781 0 -0.039062 0 -0.039062 c 0 0 0.003906 -0.011719 0 -0.0625 c -0.003907 -0.050781 0 -0.136719 0 -0.328125 c -0.015625 -0.125 -0.046875 -0.261719 -0.082031 -0.386719 c -0.074219 -0.25 -0.183594 -0.488281 -0.335938 -0.734375 c -0.300781 -0.476562 -0.738281 -0.949219 -1.308594 -1.410156 c -1.054687 -0.855469 -2.539062 -1.6875 -4.265625 -2.488281 c -1.46875 -0.683594 -3.085937 -1.3125 -4.65625 -2 c -1.097656 -0.550782 -1.960937 -0.839844 -2.277343 -1.101563 c -0.039063 -0.03125 -0.058594 -0.070312 -0.082032 -0.105469 c -0.285156 -0.058593 -0.746094 -0.855468 -1.546875 -1.855468 c -0.808593 -1.128906 -1.585937 -2.296875 -2.359375 -3.410156"/></g></svg>