<svg xmlns="http://www.w3.org/2000/svg" viewBox="0 0 48 48"><path d="m 33.515625 0.179688 c -67.488281 -4.726563 -16.902344 86.570312 11.769531 26.453124 c 3.953125 -9.265624 1.0625 -23.078124 -11.769531 -26.453124" style="fill:#86cefa"/><g style="fill:#fff"><path d="m 25.535156 22.695312 c 0 1.507813 -1.191406 2.726563 -2.664062 2.726563 c -1.46875 0 -2.664063 -1.21875 -2.664063 -2.726563 c 0 -1.503906 1.195313 -2.726562 2.664063 -2.726562 c 1.472656 0 2.664062 1.222656 2.664062 2.726562"/><path d="m 8.363281 22.695312 c 0 4.085938 1.628907 7.789063 4.261719 10.472657 l 1.390625 -1.421875 c -2.269531 -2.3125 -3.675781 -5.511719 -3.675781 -9.050782 c 0 -3.539062 1.40625 -6.734374 3.675781 -9.046874 l -1.390625 -1.421876 c -2.632812 2.679688 -4.261719 6.386719 -4.261719 10.46875 m 3.898438 0 c 0 2.988282 1.1875 5.699219 3.113281 7.660157 h 0.003906 l 1.386719 -1.421875 c -1.5625 -1.59375 -2.523437 -3.796875 -2.523437 -6.238282 c 0 -2.4375 0.960937 -4.640624 2.523437 -6.234374 l -1.386719 -1.421876 c 0 0 -0.003906 0 -0.003906 0 c -1.921875 1.960938 -3.113281 4.671876 -3.113281 7.65625 m 3.886719 0 c 0 1.890626 0.753906 3.609376 1.972656 4.851563 h 0.003906 l 1.386719 -1.421875 c -0.855469 -0.875 -1.378907 -2.085938 -1.378907 -3.429688 c 0 -1.34375 0.523438 -2.550781 1.378907 -3.425781 l -1.386719 -1.421875 c 0 0 -0.003906 -0.003906 -0.003906 0 c -1.21875 1.242188 -1.972656 2.960938 -1.972656 4.847656 m 10.085937 3.429688 l 1.386719 1.421875 c 0 0 0.003906 0 0.003906 0 c 1.21875 -1.242187 1.976562 -2.960937 1.976562 -4.851563 c 0 -1.890624 -0.757812 -3.605468 -1.976562 -4.847656 c 0 -0.003906 -0.003906 0 -0.003906 0 l -1.386719 1.421875 c 0.855469 0.871094 1.378906 2.082031 1.378906 3.425781 c 0 1.34375 -0.523437 2.554688 -1.378906 3.429688 m 2.746094 2.808594 l 1.386719 1.421875 h 0.007812 c 1.921875 -1.960938 3.113281 -4.671875 3.113281 -7.660157 c 0 -2.984374 -1.191406 -5.695312 -3.113281 -7.65625 c -0.003906 0 -0.007812 0 -0.007812 0 l -1.386719 1.421876 c 1.5625 1.59375 2.527343 3.796874 2.527343 6.234374 c 0 2.441407 -0.964843 4.644532 -2.527343 6.234376 m 2.75 2.816406 l 1.390625 1.421875 c 2.632812 -2.683594 4.261718 -6.386719 4.261718 -10.472657 c 0 -4.085937 -1.628906 -7.789062 -4.261718 -10.472656 l -1.390625 1.425782 c 2.269531 2.3125 3.675781 5.507812 3.675781 9.046874 c 0 3.539063 -1.40625 6.738282 -3.675781 9.050782"/></g></svg>