<svg xmlns="http://www.w3.org/2000/svg" viewBox="0 0 48 48"><path d="m 43.054688 36.71875 c 17.261718 -24.546875 -14.613282 -49.421875 -34.945313 -29.417969 c -19.160156 18.84375 -1.398437 48.125 22.441406 38.972657 c 4.972657 -1.910157 9.335938 -5.046876 12.503907 -9.554688" style="fill:#ff8c00"/><g style="fill:#fff"><path d="m 15.679688 7.933594 c -1.539063 0 -3.074219 0.738281 -4.25 2.214844 c -2.347657 2.953124 -2.347657 7.734374 0 10.683593 c 1.804687 2.257813 4.542968 2.847657 6.835937 1.472657 l 2.941406 3.691406 l -9.535156 14.679687 l 12.019531 -10.074219 l 12.019532 10.074219 l -9.535157 -14.679687 l 2.9375 -3.691406 c 2.296875 1.375 5.035157 0.785156 6.835938 -1.472657 c 2.347656 -2.953125 2.347656 -7.734375 0 -10.683593 c -1.171875 -1.476563 -2.710938 -2.214844 -4.25 -2.214844 c -1.539063 0 -3.078125 0.738281 -4.25 2.214844 c -1.800781 2.265624 -2.269531 5.707031 -1.171875 8.59375 l -2.589844 4.304687 l -2.589844 -4.304687 c 1.097656 -2.890626 0.628906 -6.328126 -1.171875 -8.59375 c -1.171875 -1.476563 -2.714843 -2.214844 -4.253906 -2.214844 m 0.007813 5.039062 c 0.515624 0 1.027343 0.246094 1.417968 0.738282 c 0.78125 0.984374 0.78125 2.578124 0 3.558593 c -0.785156 0.984375 -2.050781 0.984375 -2.832031 0 c -0.785156 -0.984375 -0.785156 -2.578125 0 -3.558593 c 0.390625 -0.492188 0.902344 -0.738282 1.414063 -0.738282 m 16.027343 0 c 0.515625 0 1.027344 0.246094 1.417969 0.738282 c 0.785156 0.984374 0.785156 2.578124 0 3.558593 c -0.785156 0.984375 -2.050781 0.984375 -2.832031 0 c -0.785157 -0.984375 -0.785157 -2.578125 0 -3.558593 c 0.390625 -0.492188 0.902343 -0.738282 1.414062 -0.738282" style="fill-opacity:0.501961"/><path d="m 13.144531 38.613281 c 0.375 -0.585937 2.300781 -3.554687 4.277344 -6.59375 c 1.976563 -3.039062 3.644531 -5.664062 3.710937 -5.832031 c 0.074219 -0.191406 -0.4375 -1.007812 -1.339843 -2.152344 c -0.800781 -1.015625 -1.496094 -1.847656 -1.550781 -1.847656 c -0.050782 0 -0.34375 0.125 -0.644532 0.28125 c -1 0.503906 -2.03125 0.574219 -3.253906 0.222656 c -1.53125 -0.4375 -3.21875 -2.109375 -3.921875 -3.871094 c -0.679687 -1.714843 -0.691406 -4.949218 -0.015625 -6.636718 c 0.570312 -1.433594 1.980469 -3.039063 3.1875 -3.621094 c 1.90625 -0.925781 4.519531 -0.328125 6.011719 1.371094 c 1.761719 2.003906 2.464843 5.648437 1.585937 8.179687 c -0.195312 0.550781 -0.09375 0.796875 1.148438 2.863281 l 1.363281 2.257813 l 1.316406 -2.191406 l 1.320313 -2.195313 l -0.25 -1.167968 c -0.648438 -3.054688 0.175781 -6.234376 2.074218 -8.007813 c 1.210938 -1.132813 2.148438 -1.546875 3.523438 -1.558594 c 3.621094 -0.035156 6.425781 4.164063 5.789062 8.65625 c -0.449218 3.191407 -2.355468 5.511719 -4.980468 6.070313 c -0.699219 0.152344 -1.15625 0.113281 -2.070313 -0.167969 c -0.644531 -0.199219 -1.234375 -0.367187 -1.308593 -0.371094 c -0.128907 -0.011719 -3.019532 3.515625 -3.019532 3.683594 c 0 0.050781 1.972656 3.117187 4.378906 6.816406 c 2.410157 3.703125 4.347657 6.765625 4.304688 6.804688 c -0.039062 0.039062 -2.476562 -1.941407 -5.417969 -4.40625 c -2.941406 -2.460938 -5.433593 -4.527344 -5.535156 -4.589844 c -0.101563 -0.066406 -2.648437 1.949219 -5.660156 4.476563 c -3.011719 2.527343 -5.527344 4.59375 -5.589844 4.59375 c -0.066406 0 0.1875 -0.480469 0.566406 -1.070313 m 3.421875 -20.804687 c 0.675782 -0.351563 1.195313 -1.355469 1.195313 -2.3125 c 0 -1.554688 -1.402344 -2.902344 -2.605469 -2.503907 c -1.355469 0.449219 -1.953125 2.859375 -1.03125 4.152344 c 0.6875 0.964844 1.449219 1.171875 2.441406 0.660156 m 15.949219 -0.003906 c 0.859375 -0.40625 1.429687 -1.730469 1.222656 -2.828125 c -0.207031 -1.105469 -1.117187 -2.011719 -2.015625 -2.011719 c -1.9375 0 -2.835937 3.097657 -1.304687 4.492188 c 0.800781 0.726562 1.171875 0.789062 2.097656 0.347656"/></g></svg>