<svg xmlns="http://www.w3.org/2000/svg" viewBox="0 0 48 48" xmlns:xlink="http://www.w3.org/1999/xlink"><defs><path id="0" d="m 24.203125 8.652344 c -7.820313 0 -14.140625 6.347656 -14.140625 14.199218 c 0 7.855469 6.320312 14.203126 14.140625 14.203126 v 4.734374 c 8.152344 -3.84375 14.144531 -11.417968 14.144531 -18.9375 c 0 -7.851562 -6.324218 -14.199218 -14.144531 -14.199218 m -0.246094 5.324218 c 0.980469 0 1.785157 0.140626 2.425781 0.421876 c 0.636719 0.261718 1.140626 0.59375 1.515626 1.003906 c 0.375 0.410156 0.636718 0.859375 0.785156 1.351562 c 0.144531 0.492188 0.21875 0.96875 0.21875 1.429688 c 0 0.558594 -0.109375 1.054687 -0.320313 1.496094 c -0.195312 0.445312 -0.445312 0.855468 -0.757812 1.230468 c -0.308594 0.378906 -0.644531 0.738282 -1.003907 1.082032 c -0.359374 0.328124 -0.695312 0.671874 -1.003906 1.035156 c -0.308594 0.34375 -0.570312 0.710937 -0.78125 1.105468 c -0.195312 0.394532 -0.292968 0.835938 -0.292968 1.328126 v 0.292968 c 0 0.097656 0.007812 0.195313 0.023437 0.292969 h -2.542969 c -0.03125 -0.160156 -0.0625 -0.332031 -0.078125 -0.515625 c -0.015625 -0.195312 -0.023437 -0.375 -0.023437 -0.539062 c 0 -0.542969 0.089844 -1.023438 0.269531 -1.449219 c 0.179687 -0.425781 0.410156 -0.824219 0.6875 -1.183594 c 0.277344 -0.359375 0.570313 -0.695313 0.878906 -1.007813 c 0.328125 -0.308593 0.628907 -0.621093 0.90625 -0.933593 c 0.277344 -0.308594 0.507813 -0.628907 0.6875 -0.957031 c 0.179688 -0.328126 0.269531 -0.691407 0.269531 -1.082032 c 0 -0.542968 -0.1875 -0.984375 -0.5625 -1.328125 c -0.359374 -0.359375 -0.90625 -0.542969 -1.640624 -0.542969 c -0.570313 0 -1.117188 0.078126 -1.640626 0.222657 c -0.523437 0.132812 -1.070312 0.355469 -1.640624 0.667969 l -0.835938 -2.289063 c 0.605469 -0.34375 1.289062 -0.613281 2.058594 -0.8125 c 0.78125 -0.210937 1.582031 -0.320313 2.398437 -0.320313 m -0.390625 13.839844 c 0.554688 0 1.019532 0.195313 1.394532 0.570313 c 0.375 0.359375 0.5625 0.828125 0.5625 1.398437 c 0 0.574219 -0.1875 1.042969 -0.5625 1.402344 c -0.375 0.359375 -0.839844 0.542969 -1.394532 0.542969 c -0.539062 0 -1.003906 -0.183594 -1.398437 -0.542969 c -0.375 -0.359375 -0.5625 -0.828125 -0.5625 -1.402344 c 0 -0.570312 0.1875 -1.039062 0.5625 -1.398437 c 0.394531 -0.375 0.859375 -0.570313 1.398437 -0.570313" style="fill:#fff;fill-opacity:0.4"/></defs><path d="m 2.714844 33.945312 c 13.050781 26.242188 51.777344 11.621094 44.382812 -14.992187 c -6.96875 -25.074219 -42.34375 -24.359375 -46.46875 -0.050781 c -0.863281 5.074218 -0.308594 10.230468 2.085938 15.042968" style="fill:#b0c3de"/><use xlink:href="#0"/><use xlink:href="#0"/><use xlink:href="#0"/><use xlink:href="#0"/><use xlink:href="#0"/><use xlink:href="#0"/></svg>