<svg xmlns="http://www.w3.org/2000/svg" viewBox="0 0 48 48"><path d="m 36.34375 3.5 c 42.25 36.265625 -44.621094 71.136719 -35.695312 15.050781 c 1.957031 -12.300781 24.308593 -24.824219 35.695312 -15.050781" style="fill:#9782c1"/><g transform="scale(0.1875)" style="fill:#fff;stroke:#fff;stroke-width:1.087"><path d="m 99.145833 82.666667 c -15.3125 -0.708334 -29.729166 10.104166 -33.291666 25.020833 c -3.958334 16.895833 -4.625 36.020833 3.6875 51.770833 c 5.958333 10.416667 17.604166 17.104167 29.708333 15.895834 c 6.75 -0.083334 14.1875 -0.75 19.9375 -4.25 c -0.6875 -4.208334 2.6875 -16.708334 -5.041667 -10.416667 c -10.25 6.6875 -26.479166 5.791667 -32.520833 -6.083333 c -6.583333 -13.708334 -5.604167 -29.895834 -2.708333 -44.479167 c 1.770833 -9.625 10.395833 -17.354167 20.458333 -16.541667 c 6.791667 -0.604166 12.791667 3.604167 18.8125 5.479167 c 1.8125 -3.6875 0.604167 -8.916667 -0.083333 -12.625 c -6.041667 -2.479167 -12.395834 -4.083333 -18.958334 -3.770833"/><path d="m 139.3125 81.208333 c 0 30.791667 0 61.583334 0 92.375 c 4.520833 1.416667 15.291667 3 12.375 -5.416666 c 1.0625 -15.125 -1.270833 -30.770834 2.645833 -45.479167 c 4.229167 -8.270833 20.041667 -10.395833 23.604167 -0.583333 c 3.104167 16.75 0.895833 34.395833 1.604167 51.5 c 3.3125 0.5625 14.354166 3.645833 12.583333 -3.270834 c -0.916667 -17.375 0.958333 -35.083333 -2.041667 -52.270833 c -4 -14.520833 -24.270833 -17.729167 -34.4375 -7.8125 c -5.541666 7.708333 -3.5625 -2.25 -3.854166 -7.0625 c -0.5 -7.5 1.041666 -15.833333 -0.791667 -22.791667 c -3.6875 0.5 -8.583333 -1 -11.6875 0.8125"/></g></svg>