<svg xmlns="http://www.w3.org/2000/svg" viewBox="0 0 48 48"><path d="m 34.28125 0.183594 c -69.027344 -4.808594 -17.289062 88.042968 12.035156 26.902344 c 4.042969 -9.421876 1.089844 -23.472657 -12.035156 -26.902344" style="fill:#ff8c00"/><path d="m 26.253906 18.910156 c 0 1.394532 -1.128906 2.527344 -2.523437 2.527344 c -1.390625 0 -2.519531 -1.132812 -2.519531 -2.527344 c 0 -1.394531 1.128906 -2.523437 2.519531 -2.523437 c 1.394531 0 2.523437 1.128906 2.523437 2.523437" style="fill:#cef2e2"/><g style="fill:#fff"><path d="m 9.992188 18.910156 c 0 3.785156 1.546874 7.21875 4.039062 9.703125 l 1.316406 -1.316406 c -2.148437 -2.144531 -3.480468 -5.105469 -3.480468 -8.386719 c 0 -3.277344 1.332031 -6.242187 3.480468 -8.382812 l -1.316406 -1.320313 c -2.492188 2.488281 -4.039062 5.917969 -4.039062 9.703125 m 3.691406 0 c 0 2.769532 1.128906 5.28125 2.949218 7.097656 h 0.003907 l 1.3125 -1.320312 c -1.476563 -1.472656 -2.390625 -3.515625 -2.390625 -5.777344 c 0 -2.261718 0.914062 -4.300781 2.390625 -5.777344 l -1.3125 -1.316406 c 0 0 -0.003907 0 -0.003907 0 c -1.820312 1.816406 -2.949218 4.328125 -2.949218 7.09375 m 3.679687 0 c 0 1.753906 0.714844 3.34375 1.871094 4.496094 h 0.003906 l 1.3125 -1.320312 c -0.808593 -0.808594 -1.304687 -1.929688 -1.304687 -3.175782 c 0 -1.242187 0.496094 -2.363281 1.304687 -3.175781 l -1.3125 -1.316406 c 0 0 -0.003906 0 -0.003906 0 c -1.15625 1.152343 -1.871094 2.742187 -1.871094 4.492187 m 9.550781 3.175782 l 1.3125 1.320312 c 0 0 0.003907 0 0.007813 0 c 1.152344 -1.152344 1.867187 -2.742188 1.867187 -4.496094 c 0 -1.75 -0.714843 -3.339844 -1.867187 -4.492187 c -0.003906 0 -0.007813 0 -0.007813 0 l -1.3125 1.316406 c 0.8125 0.808594 1.308594 1.933594 1.308594 3.175781 c 0 1.246094 -0.496094 2.367188 -1.308594 3.175782 m 2.601563 2.601562 l 1.3125 1.320312 h 0.007813 c 1.816406 -1.820312 2.945312 -4.332031 2.945312 -7.097656 c 0 -2.765625 -1.125 -5.277344 -2.945312 -7.09375 c -0.003907 0 -0.007813 0 -0.007813 0 l -1.3125 1.316406 c 1.476563 1.476563 2.390625 3.519532 2.390625 5.777344 c 0 2.261719 -0.914062 4.304688 -2.390625 5.777344 m 2.601563 2.609375 l 1.320312 1.316406 c 2.488281 -2.484375 4.035156 -5.917969 4.035156 -9.703125 c 0 -3.785156 -1.546875 -7.214844 -4.035156 -9.703125 l -1.320312 1.320313 c 2.148437 2.140625 3.480468 5.105468 3.480468 8.382812 c 0 3.28125 -1.332031 6.242188 -3.480468 8.386719"/><path d="m 23.679688 25.84375 c -2.910157 0 -5.257813 1.769531 -5.257813 3.964844 v 2.84375 h -1.199219 v 8.988281 h 13.539063 v -8.988281 h -1.109375 v -2.84375 c 0 -2.195313 -2.347656 -3.964844 -5.257813 -3.964844 m -0.527343 1.734375 h 0.433593 c 1.769531 0 3.191407 1.328125 3.195313 2.976563 l 0.003906 2.097656 h -6.820312 l -0.003907 -2.097656 c -0.003906 -1.648438 1.421875 -2.976563 3.191407 -2.976563 m 0.296874 7.390625 c 0.828126 0.023438 1.488282 0.539062 1.488282 1.164062 c 0 0.417969 -0.296875 0.804688 -0.773438 1.011719 l 0.421875 1.292969 c -0.308593 0.09375 -0.640625 0.144531 -0.988281 0.144531 h -0.433594 c -0.34375 0 -0.675781 -0.050781 -0.988281 -0.144531 l 0.417969 -1.300781 c -0.464844 -0.210938 -0.753906 -0.59375 -0.753906 -1.003907 c 0 -0.613281 0.636718 -1.125 1.453124 -1.164062" style="fill-rule:evenodd"/></g><path d="m 23.371094 16.644531 c -2.460938 0.070313 -3.082032 3.792969 -0.902344 4.792969 c 1.714844 1.054688 4.15625 -0.398438 3.832031 -2.464844 c -0.074219 -1.53125 -1.425781 -2.539062 -2.929687 -2.328125" style="fill:#fffafa"/></svg>