<svg xmlns="http://www.w3.org/2000/svg" viewBox="0 0 48 48"><path d="m 5.546875 39.671875 c -11.675781 -17.957031 -2.253906 -34.3125 10.964844 -38.191406 c 17.78125 -5.222657 41.921875 8.496093 26.015625 36.769531 c -6.324219 11.234375 -28.660156 14.207031 -36.976563 1.421875" style="fill:#ff8c00"/><path d="m 23.695312 10.921875 c -3.308593 0 -6.351562 1.132813 -8.746093 3.039063 l -2.816407 -2.796876 l -2.1875 2.171876 l 2.816407 2.796874 c -1.917969 2.375 -3.058594 5.398438 -3.058594 8.679688 c 0 7.671875 6.265625 13.890625 13.992187 13.890625 c 7.726563 0 13.992188 -6.21875 13.992188 -13.890625 c 0 -3.28125 -1.140625 -6.304688 -3.0625 -8.679688 l 2.820312 -2.796874 l -2.1875 -2.171876 l -2.816406 2.796876 c -2.394531 -1.90625 -5.4375 -3.039063 -8.746094 -3.039063 m 0 3.085937 c 6.011719 0 10.882813 4.839844 10.882813 10.804688 c 0 5.96875 -4.871094 10.804688 -10.882813 10.804688 c -6.011718 0 -10.882812 -4.835938 -10.882812 -10.804688 c 0 -5.964844 4.871094 -10.804688 10.882812 -10.804688 m 0 1.546876 v 9.257812 l 9.125 1.925781 c 0.585938 -2.730469 -0.105468 -5.582031 -1.878906 -7.75 c -1.769531 -2.171875 -4.433594 -3.433593 -7.246094 -3.433593" style="fill:#fff"/></svg>