<svg xmlns="http://www.w3.org/2000/svg" viewBox="0 0 48 48"><path d="m 39.808594 8.210938 c 24.355468 19.660156 -11.300782 55.148437 -32.851563 32.476562 c -21.597656 -19.511719 12.113281 -57.378906 32.851563 -32.476562" style="fill:#ff8c00"/><path d="m 13.910156 11.300781 c -2.554687 2.820313 -4.117187 6.738281 -4.117187 11.046875 c 0 4.308594 1.5625 8.226563 4.117187 11.050782 l 2.351563 -2.601563 c -1.960938 -2.167969 -3.1875 -5.144531 -3.1875 -8.449219 c 0 -3.304687 1.226562 -6.28125 3.1875 -8.449218 m 17.644531 -2.597657 l -2.355469 2.597657 c 1.960938 2.167968 3.1875 5.144531 3.1875 8.449218 c 0 3.304688 -1.226562 6.28125 -3.1875 8.449219 l 2.355469 2.601563 c 2.554688 -2.824219 4.113281 -6.742188 4.113281 -11.050782 c 0 -4.308594 -1.558593 -8.226562 -4.113281 -11.046875 m -15.882812 4.546875 c -1.496094 1.65625 -2.398438 3.96875 -2.398438 6.5 c 0 2.53125 0.902344 4.84375 2.398438 6.5 l 2.257812 -2.492187 c -0.929688 -1.027344 -1.519531 -2.433594 -1.519531 -4.007813 c 0 -1.578125 0.589843 -2.980468 1.519531 -4.011718 m 9.507812 -2.488282 l -2.257812 2.492188 c 0.929688 1.027344 1.519531 2.433594 1.519531 4.007812 c 0 1.578125 -0.589843 2.980469 -1.519531 4.011719 l 2.257812 2.492187 c 1.496094 -1.65625 2.398438 -3.96875 2.398438 -6.5 c 0 -2.53125 -0.902344 -4.84375 -2.398438 -6.5 m -5.882812 3.03125 c -1.734375 0 -3.136719 1.546876 -3.136719 3.464844 c 0 1.917969 1.402344 3.464844 3.136719 3.464844 c 1.734375 0 3.136719 -1.546875 3.136719 -3.464844 c 0 -1.917968 -1.402344 -3.464844 -3.136719 -3.464844 m -1.566406 8.882813 v 10.179687 h 3.136718 v -10.179687 c -0.5 0.175781 -1.019531 0.269531 -1.570312 0.269531 c -0.550781 0 -1.070312 -0.09375 -1.566406 -0.269531" style="fill:#fff"/></svg>