
<svg xmlns="http://www.w3.org/2000/svg" xmlns:xlink="http://www.w3.org/1999/xlink" width="48px" height="48px" viewBox="0 0 48 48" version="1.1">
<g id="surface1">
<path style=" stroke:none;fill-rule:nonzero;fill:rgb(100%,27.058824%,0%);fill-opacity:1;" d="M 0.410156 24.425781 C -3.78125 45.410156 24.964844 53.378906 40.574219 44.285156 C 53.011719 37.039062 49.457031 12.21875 32.667969 2.964844 C 15.878906 -6.289062 3.773438 7.582031 0.410156 24.425781 Z M 0.410156 24.425781 "/>
<path style="fill-rule:nonzero;fill:rgb(100%,100%,100%);fill-opacity:1;stroke-width:1;stroke-linecap:butt;stroke-linejoin:miter;stroke:rgb(100%,100%,100%);stroke-opacity:1;stroke-miterlimit:4;" d="M 31.991446 4.000729 L 31.980967 4.000729 C 26.940588 4.058299 23.262473 3.874077 20.255012 5.543589 C 18.746042 6.372589 17.551441 7.777282 16.891267 9.527392 C 16.241571 11.289016 16.000555 13.373028 16.000555 15.998193 L 16.000555 80.003856 C 16.000555 82.629021 16.241571 84.713034 16.891267 86.463143 C 17.551441 88.224767 18.746042 89.629461 20.255012 90.45846 C 23.262473 92.116459 26.940588 91.943751 31.980967 92.00132 L 55.998739 92.00132 L 55.998739 87.99449 L 32.001925 87.99449 C 26.961546 87.93692 23.650195 87.764212 22.183141 86.95824 C 21.449614 86.555254 21.030455 86.094699 20.642734 85.05845 C 20.255012 84.022201 20.003517 82.375716 20.003517 80.003856 L 20.003517 15.998193 C 20.003517 13.626334 20.255012 11.979849 20.642734 10.943599 C 21.030455 9.895836 21.449614 9.446795 22.183141 9.043809 C 23.650195 8.237837 26.961546 8.053615 32.001925 7.996046 L 61.175345 7.996046 L 76.003071 22.825924 L 76.003071 58.00083 L 79.995554 58.00083 L 79.995554 21.167925 L 62.83102 4.000729 Z M 36.623145 39.993121 L 36.612666 40.004634 C 34.233943 40.027662 32.389646 39.854954 30.555828 40.856662 C 29.644159 41.363272 28.879195 42.284383 28.491474 43.297604 C 28.114231 44.32234 27.998963 45.427672 27.998963 46.740255 L 27.998963 73.256722 C 27.998963 74.580818 28.114231 75.674637 28.491474 76.699372 C 28.879195 77.712594 29.644159 78.633704 30.555828 79.140315 C 32.389646 80.153537 34.233943 79.969315 36.612666 80.003856 L 55.998739 80.003856 L 55.998739 63.999562 L 32.001925 63.999562 L 32.001925 55.997415 L 55.998739 55.997415 L 55.998739 43.999951 L 59.341527 43.999951 C 61.741208 44.022979 63.218741 44.207201 63.512152 44.368395 C 63.658858 44.437479 63.648379 44.402937 63.763647 44.702298 C 63.878916 45.013173 64.004663 45.680978 64.004663 46.740255 L 64.004663 58.00083 L 67.997146 58.00083 L 67.997146 46.740255 C 67.997146 45.427672 67.892357 44.32234 67.504635 43.297604 C 67.127393 42.284383 66.362429 41.363272 65.440281 40.856662 C 63.606463 39.854954 61.772645 40.027662 59.393922 40.004634 L 59.383443 39.993121 Z M 36.654582 43.999951 L 39.99737 43.999951 L 39.99737 52.002098 L 32.001925 52.002098 L 32.001925 46.740255 C 32.001925 45.680978 32.117193 45.013173 32.232462 44.702298 C 32.34773 44.402937 32.34773 44.437479 32.494436 44.368395 C 32.777368 44.207201 34.254901 44.022979 36.654582 43.999951 Z M 44.000332 43.999951 L 51.995777 43.999951 L 51.995777 52.002098 L 44.000332 52.002098 Z M 32.001925 67.994879 L 39.99737 67.994879 L 39.99737 75.997026 L 36.654582 75.997026 C 34.254901 75.973998 32.777368 75.789776 32.494436 75.640095 C 32.34773 75.559498 32.34773 75.59404 32.232462 75.294679 C 32.117193 74.983804 32.001925 74.315999 32.001925 73.256722 Z M 44.000332 67.994879 L 51.995777 67.994879 L 51.995777 75.997026 L 44.000332 75.997026 Z M 44.000332 67.994879 " transform="matrix(0.372771,0,0,0.339264,6.137022,8.15832)"/>
<path style="fill-rule:nonzero;fill:rgb(100%,100%,100%);fill-opacity:1;stroke-width:1;stroke-linecap:butt;stroke-linejoin:miter;stroke:rgb(100%,100%,100%);stroke-opacity:1;stroke-miterlimit:4;" d="M 5.13861 142.504562 C 0.192541 142.504562 -3.852337 146.557448 -3.852337 151.508417 L -3.852337 154.51354 L -5.853818 154.51354 L -5.853818 170.50632 L 16.141516 170.50632 L 16.141516 154.51354 L 14.140035 154.51354 L 14.140035 151.508417 C 14.140035 146.557448 10.095157 142.504562 5.13861 142.504562 Z M 5.13861 146.511392 C 7.94697 146.511392 10.147552 148.710544 10.147552 151.508417 L 10.147552 154.51354 L 0.140146 154.51354 L 0.140146 151.508417 C 0.140146 148.710544 2.340728 146.511392 5.13861 146.511392 Z M 5.13861 146.511392 " transform="matrix(0.372771,0,0,0.339264,31.432132,-18.475633)"/>
</g>
</svg>
