<svg xmlns="http://www.w3.org/2000/svg" viewBox="0 0 48 48"><path d="m 29.492188 47.390625 c 44.984374 -9.371094 -3.304688 -73.847656 -26.171876 -35.117187 c -9.800781 15.046874 3.039063 39.9375 26.171876 35.117187" style="fill:#dd9fdd"/><g style="fill:#fff"><path d="m 33.933594 15.75 c 1.023437 0 1.890625 0.339844 2.617187 1.019531 c 0.71875 0.679688 1.082031 1.5 1.082031 2.460938 v 12.183593 c 0 0.957032 -0.363281 1.777344 -1.082031 2.460938 c -0.726562 0.675781 -1.59375 1.015625 -2.617187 1.015625 h -20.335938 c -1.023437 0 -1.890625 -0.339844 -2.617187 -1.015625 c -0.71875 -0.683594 -1.082031 -1.507812 -1.082031 -2.460938 v -12.183593 c 0 -0.960938 0.363281 -1.78125 1.082031 -2.460938 c 0.726562 -0.679687 1.59375 -1.019531 2.617187 -1.019531 h 3.238282 l 0.734374 -1.847656 c 0.183594 -0.445313 0.515626 -0.828125 1 -1.152344 c 0.488282 -0.316406 0.984376 -0.480469 1.496094 -0.480469 h 7.398438 c 0.511718 0 1.007812 0.164063 1.492187 0.480469 c 0.488281 0.324219 0.820313 0.707031 1.003907 1.152344 l 0.734374 1.847656 m -6.929687 15.664062 c 1.78125 0 3.304687 -0.597656 4.570313 -1.785156 c 1.269531 -1.195312 1.898437 -2.628906 1.898437 -4.304687 c 0 -1.675781 -0.628906 -3.113281 -1.898437 -4.304688 c -1.265626 -1.195312 -2.785157 -1.785156 -4.570313 -1.785156 c -1.78125 0 -3.308594 0.589844 -4.574219 1.785156 c -1.265625 1.191407 -1.898437 2.628907 -1.898437 4.304688 c 0 1.675781 0.632812 3.109375 1.898437 4.304687 c 1.265625 1.1875 2.789063 1.785156 4.574219 1.785156"/><path d="m 28.035156 25.332031 c 0.003906 2.273438 -1.90625 4.113281 -4.265625 4.113281 c -2.359375 0 -4.265625 -1.839843 -4.265625 -4.113281 c 0 -2.273437 1.90625 -4.117187 4.265625 -4.117187 c 2.359375 0 4.269531 1.84375 4.265625 4.117187"/></g></svg>