<svg xmlns="http://www.w3.org/2000/svg" viewBox="0 0 48 48"><path d="m 18.507812 47.390625 c -44.984374 -9.371094 3.304688 -73.847656 26.171876 -35.117187 c 9.800781 15.046874 -3.039063 39.9375 -26.171876 35.117187" style="fill:#b0c3de"/><g style="fill:#ee545b"><path d="m 24.039062 12.886719 c -1.539062 0 -2.855468 0.71875 -3.722656 1.816406 c 0.019532 0.019531 0.039063 0.039063 0.058594 0.054687 l 5.253906 4.941407 l 3.417969 -3.179688 c -0.101563 0.011719 -0.203125 0.046875 -0.304687 0.058594 c -0.445313 -2.121094 -2.382813 -3.691406 -4.699219 -3.691406 m -9.832031 8.003906 c -0.136719 0.257813 -0.273438 0.511719 -0.367188 0.796875 c -0.179688 -0.019531 -0.363281 -0.058594 -0.550781 -0.058594 c -2.644531 0 -4.761719 2.089844 -4.761719 4.65625 c 0 2.566406 2.117188 4.65625 4.761719 4.65625 c 0.121093 0 0.25 0.007813 0.371093 0 c 0.085938 -0.140625 0.1875 -0.273437 0.304688 -0.398437 l 5.3125 -4.9375 m 17.15625 -4.089844 l -4.394531 4.085937 l 4.945312 4.597657 h 0.058594 c 0.273437 -0.171875 0.503906 -0.347657 0.734375 -0.566407 c 0.5 0.667969 1.285156 1.078126 2.199219 1.078126 c 1.515625 0 2.746093 -1.144532 2.746093 -2.613282 c 0 -1.46875 -1.234374 -2.667968 -2.746093 -2.667968 c -0.234375 0 -0.457031 0.003906 -0.671875 0.058593 c -0.195313 -1.757812 -1.308594 -3.234375 -2.871094 -3.976562"/><g transform="matrix(1.954086 0 0 1.816549 2.178 1.9875)" style="stroke:#ee545b;stroke-linejoin:round;stroke-width:0.3"><path d="m 17.010494 16.581923 l -8.665736 -8.668136 l -1.427298 1.40204 l 8.665737 8.69179"/><path d="m 8.412725 18.089331 l 8.667735 -8.663835 l -1.40331 -1.427845 l -8.691723 8.665986"/></g></g></svg>