
<svg xmlns="http://www.w3.org/2000/svg" xmlns:xlink="http://www.w3.org/1999/xlink" width="48px" height="48px" viewBox="0 0 48 48" version="1.1">
<g id="surface1">
<path style=" stroke:none;fill-rule:nonzero;fill:rgb(100%,27.058824%,0%);fill-opacity:1;" d="M 23.574219 47.585938 C 2.589844 51.777344 -5.378906 23.035156 3.714844 7.425781 C 10.960938 -5.011719 35.78125 -1.457031 45.035156 15.332031 C 54.285156 32.121094 40.417969 44.222656 23.574219 47.585938 Z M 23.574219 47.585938 "/>
<path style="fill-rule:nonzero;fill:rgb(100%,100%,100%);fill-opacity:1;stroke-width:4;stroke-linecap:butt;stroke-linejoin:miter;stroke:rgb(100%,100%,100%);stroke-opacity:1;stroke-miterlimit:4;" d="M 434.445823 388.358116 L 432.162175 389.993329 C 418.068808 400.052368 403.018483 409.080727 403.018483 409.080727 L 399.984494 410.894327 L 399.984494 399.368552 L 375.973572 399.368552 L 375.973572 390.171716 C 373.515932 391.81684 363.881115 398.318051 352.528125 406.345461 C 363.359138 413.926904 372.504603 419.645195 375.973572 421.766017 L 375.973572 413.362012 L 391.980854 413.362012 L 391.980854 417.365807 L 379.975393 417.365807 L 379.975393 428.891582 L 376.952278 427.077982 C 376.952278 427.077982 361.901954 418.049623 347.808586 407.990585 L 345.524939 406.365282 L 347.808586 404.739979 C 361.847581 394.710672 376.865282 384.701185 376.865282 384.701185 L 379.975393 382.629915 L 379.975393 395.364757 L 403.986315 395.364757 L 403.986315 403.768762 C 407.466159 401.64794 416.611623 395.929649 427.442637 388.338296 C 416.078772 380.310885 406.443955 373.819585 403.986315 372.174461 L 403.986315 381.361386 L 387.979033 381.361386 L 387.979033 377.357591 L 399.984494 377.357591 L 399.984494 364.622749 L 403.094605 366.694019 C 403.094605 366.694019 418.12318 376.713416 432.162175 386.732813 Z M 434.445823 388.358116 " transform="matrix(0,-0.359212,-0.394157,0,175.968727,163.186853)"/>
<path style="fill-rule:nonzero;fill:rgb(100%,100%,100%);fill-opacity:1;stroke-width:1.000198;stroke-linecap:butt;stroke-linejoin:miter;stroke:rgb(100%,100%,100%);stroke-opacity:1;stroke-miterlimit:4;" d="M 381.976303 365.366028 C 381.976303 376.406195 373.026579 385.365181 361.967201 385.365181 C 350.918697 385.365181 341.968974 376.406195 341.968974 365.366028 C 341.968974 354.315951 350.918697 345.366875 361.967201 345.366875 C 373.026579 345.366875 381.976303 354.315951 381.976303 365.366028 Z M 381.976303 365.366028 " transform="matrix(0,-0.359212,-0.394157,0,175.968727,163.186853)"/>
<path style="fill-rule:nonzero;fill:rgb(100%,27.058824%,0%);fill-opacity:1;stroke-width:1.232563;stroke-linecap:butt;stroke-linejoin:miter;stroke:rgb(100%,27.058824%,0%);stroke-opacity:1;stroke-miterlimit:4;" d="M 375.853953 367.962548 L 368.524532 367.962548 C 366.360504 367.962548 364.359593 367.873355 362.510926 367.675147 C 360.694883 367.48685 358.85709 367.22918 357.008423 366.912048 L 357.008423 362.799239 C 358.85709 362.511838 360.694883 362.273989 362.510926 362.085691 C 364.32697 361.897394 366.338755 361.79829 368.524532 361.79829 L 375.853953 361.79829 Z M 352.549874 364.880419 C 352.549874 365.93092 352.310634 366.842675 351.832156 367.605775 C 351.375426 368.349053 350.777328 368.715737 350.048736 368.715737 C 349.320144 368.715737 348.73292 368.349053 348.27619 367.605775 C 347.819461 366.842675 347.591096 365.93092 347.591096 364.880419 C 347.591096 363.800188 347.819461 362.888432 348.27619 362.155064 C 348.73292 361.421696 349.320144 361.055011 350.048736 361.055011 C 350.777328 361.055011 351.375426 361.421696 351.832156 362.155064 C 352.310634 362.888432 352.549874 363.800188 352.549874 364.880419 Z M 352.549874 364.880419 " transform="matrix(0,-0.359212,-0.394157,0,175.968727,163.186853)"/>
</g>
</svg>
