<svg xmlns="http://www.w3.org/2000/svg" viewBox="0 0 48 48"><path d="m 9.894531 43.316406 c 36.085938 23.992188 58.3125 -52.515625 11.664063 -42.386718 c -19.28125 4.316406 -30.980469 31.386718 -11.664063 42.386718" style="fill:#ff8c00"/><path d="m 24.710938 11.796875 c -7.632813 0 -13.820313 4.636719 -13.820313 11.546875 c 0 6.90625 6.1875 11.542969 13.820313 11.542969 c 2.105468 0 4.078124 -0.441407 5.863281 -1.203125 l 7.957031 3.125 l -2.835938 -6.851563 c 1.785157 -2.105469 2.835938 -3.757812 2.835938 -6.617187 c 0 -6.90625 -6.1875 -11.542969 -13.820312 -11.542969 m -3.945313 3.847656 l 3.945313 3.847657 l 3.949218 -3.847657 l 3.949219 3.847657 l -3.949219 3.851562 l 3.949219 3.847656 l -3.949219 3.847656 l -3.949218 -3.847656 l -3.945313 3.847656 l -3.949219 -3.847656 l 3.949219 -3.847656 l -3.949219 -3.851562" style="fill:#fff;fill-opacity:0.45098"/></svg>